<svg xmlns="http://www.w3.org/2000/svg" width="24" height="24" fill="none" viewBox="0 0 24 24">
  <path fill="#B3B3B3" d="M12 23c6.075 0 11-4.925 11-11S18.075 1 12 1 1 5.925 1 12s4.925 11 11 11z"/>
  <path fill="#818181" d="M8 18a.998.998 0 01-1-1V7a1 1 0 012 0v10a1 1 0 01-1 1zM22 3h-1V2a1 1 0 00-2 0v1h-1a1 1 0 100 2h1v1a1 1 0 002 0V5h1a1 1 0 100-2z"/>
  <path fill="#818181" d="M12 23a11 11 0 112.2-21.78 1 1 0 11-.4 1.96 8.993 8.993 0 107.02 7.02 1.002 1.002 0 011.81-.76 1 1 0 01.15.36A11.012 11.012 0 0112 23z"/>
  <path fill="#818181" d="M18 9a3.003 3.003 0 00-3-3h-1a3.003 3.003 0 00-3 3 1 1 0 002 0 1 1 0 011-1h1a1 1 0 011 1v1a1 1 0 01-1 1h-.5a1 1 0 000 2h.5a1 1 0 011 1v1a1 1 0 01-1 1h-1a1 1 0 01-1-1 1 1 0 00-2 0 3.004 3.004 0 003 3h1a3.004 3.004 0 003-3v-1a2.977 2.977 0 00-.78-2c.5-.546.778-1.26.78-2V9z"/>
</svg>
