<svg xmlns="http://www.w3.org/2000/svg" width="24" height="24" fill="none" viewBox="0 0 24 24">
  <path fill="#B3B3B3" d="M12 23c6.075 0 11-4.925 11-11S18.075 1 12 1 1 5.925 1 12s4.925 11 11 11z"/>
  <path fill="#818181" d="M8 18a1 1 0 01-1-1V7a1 1 0 012 0v10a1 1 0 01-1 1zM22 3h-1V2a1 1 0 00-2 0v1h-1a1 1 0 100 2h1v1a1 1 0 002 0V5h1a1 1 0 100-2z"/>
  <path fill="#818181" d="M12 23a11 11 0 112.199-21.78 1 1 0 11-.398 1.96 8.991 8.991 0 107.019 7.02 1 1 0 011.96-.4A11.008 11.008 0 0112 23z"/>
  <path fill="#818181" d="M15.001 18a1 1 0 01-.981-1.196L15.78 8H13v1a1 1 0 01-2 0V7a1 1 0 011-1h5a1 1 0 01.98 1.196l-2 10a1 1 0 01-.979.804z"/>
</svg>
