<svg xmlns="http://www.w3.org/2000/svg" width="24" height="24" fill="none" viewBox="0 0 24 24">
  <path fill="#818181" d="M19.705 19.266l-.067.067a8.825 8.825 0 01-2.89 1.953 9.137 9.137 0 01-3.539.714 9.044 9.044 0 01-6.428-2.667 8.972 8.972 0 01-2.556-4.99c-.03-.208.149-.341.536-.401.38-.06.588.015.625.223.009.013.013.03.011.045.115.606.287 1.2.513 1.774a7.542 7.542 0 001.697 2.523 7.916 7.916 0 008.683 1.696 7.96 7.96 0 002.511-1.696l.067-.067a.27.27 0 01.279-.067c.14.054.265.137.368.245.268.276.331.491.19.648zm-5.268-6.864l-.736.736.703.704c.156.156.13.338-.078.546a.532.532 0 01-.358.19.286.286 0 01-.212-.111l-.692-.681-.736.736a.228.228 0 01-.168.056.505.505 0 01-.346-.178l-.022-.023a.451.451 0 01-.2-.323.331.331 0 01.088-.19l.737-.726-.737-.736c-.119-.12-.066-.287.157-.502a.55.55 0 01.346-.201.254.254 0 01.145.056l.725.736.726-.725c.134-.127.312-.079.535.145.201.2.242.364.123.49zm5.257.636a6.481 6.481 0 01-1.92 4.62 6.613 6.613 0 01-2.087 1.407 6.562 6.562 0 01-5.09 0 6.615 6.615 0 01-2.086-1.407 6.34 6.34 0 01-1.395-2.075 1.631 1.631 0 01-.168-.447h-.01c-.068-.2.092-.364.48-.49.371-.12.594-.075.669.133.243.682.61 1.314 1.082 1.864h.011v-3.806a3.592 3.592 0 011.139-2.59 3.885 3.885 0 012.823-1.149 3.836 3.836 0 012.802 1.15 3.767 3.767 0 011.16 2.779 3.973 3.973 0 01-3.961 3.962 4.379 4.379 0 01-1.25-.179c-.209-.082-.257-.309-.146-.68.12-.38.283-.54.492-.48l.156.033c.104.022.225.045.363.067.112.02.226.031.34.034a2.684 2.684 0 001.964-.799 2.639 2.639 0 00.804-1.947 2.56 2.56 0 00-.804-1.909 2.655 2.655 0 00-1.953-.792 2.546 2.546 0 00-1.987.893 2.625 2.625 0 00-.714 1.786v4.609a5.093 5.093 0 002.701.748 5.393 5.393 0 002.065-.408 5.327 5.327 0 001.731-8.709 5.354 5.354 0 00-3.785-1.564 5.166 5.166 0 00-3.794 1.563c-.312.3-.6.624-.86.97l-.022.023a1.18 1.18 0 01-.145.173.704.704 0 01-.24.106.676.676 0 01-.43-.034 1.103 1.103 0 01-.407-.184.365.365 0 01-.173-.296V2.424a.426.426 0 01.256-.394.396.396 0 01.168-.03h9.788c.223 0 .335.205.335.614 0 .41-.112.614-.335.614H8.21v5.39h.01a6.958 6.958 0 011.139-.937A7.005 7.005 0 0110.564 7a6.563 6.563 0 012.579-.513c.874-.006 1.74.17 2.544.513a6.525 6.525 0 014.007 6.038zm-.346-6.484a.266.266 0 01.1.2c.001.072-.02.142-.061.201-.041.06-.102.138-.184.235-.194.193-.339.29-.436.29a.246.246 0 01-.178-.078 8.788 8.788 0 00-2.31-1.485 7.6 7.6 0 00-3.08-.625c-1 .002-1.992.188-2.925.547-.2.075-.368-.063-.502-.413a1.125 1.125 0 01-.09-.424.26.26 0 01.18-.223 8.24 8.24 0 013.336-.636 9 9 0 013.527.714c.97.4 1.86.975 2.623 1.697z"/>
</svg>
