<svg xmlns="http://www.w3.org/2000/svg" width="24" height="24" fill="none" viewBox="0 0 24 24">
  <path fill="#B3B3B3" d="M21 2a1 1 0 00-1 1v3H4V3a1 1 0 00-2 0v16a3.003 3.003 0 003 3h14a3.004 3.004 0 003-3V3a1 1 0 00-1-1zm-1 6v6H4V8h16zm-1 12H5a1.001 1.001 0 01-1-1v-3h16v3a1.001 1.001 0 01-1 1z"/>
  <path fill="#818181" d="M7 18a1 1 0 01-1-1v-4a1 1 0 112 0v4a1 1 0 01-1 1zm4 0a1 1 0 01-1-1v-4a1 1 0 012 0v4a1 1 0 01-1 1zm6 0a1 1 0 01-1-1v-4a1 1 0 012 0v4a1 1 0 01-1 1zM7 10a1 1 0 01-1-1V5a1 1 0 012 0v4a1 1 0 01-1 1zm4 0a1 1 0 01-1-1V5a1 1 0 012 0v4a1 1 0 01-1 1zm4 0a1 1 0 01-1-1V5a1 1 0 012 0v4a1 1 0 01-1 1z"/>
</svg>
