<svg xmlns="http://www.w3.org/2000/svg" width="24" height="24" fill="none" viewBox="0 0 24 24">
  <path fill="#B3B3B3" d="M19.5 20h-1v-5c0-.6-.4-1-1-1h-4.6l1.7-4.7c.1-.5 0-.9-.4-1.2L9.7 5.6c-.3-.2-.7-.2-1 0L6 7.1c-.3.2-.5.5-.5.9 0 .6.4 1 1 1 .2 0 .3 0 .5-.1l2.2-1.3 3.2 1.9-1.9 5.2c0 .1-.1.2-.1.3 0 .4.2.7.5.9.1.1.3.1.5.1h5v5c0 .1 0 .2.1.3v.1c.1.2.3.4.5.5.1.1.3.1.4.1h2c.6 0 1-.4 1-1s-.3-1-.9-1zM16 7a2 2 0 100-4 2 2 0 000 4z"/>
  <path fill="#818181" d="M9.5 22c-3.3 0-6-2.7-6-6 0-3.1 2.3-5.6 5.3-6 .5-.1 1 .3 1.1.9.1.5-.3 1-.9 1.1-2.2.2-3.8 2.2-3.5 4.4.2 2 1.9 3.6 4 3.5 1.3 0 2.4-.6 3.2-1.6.3-.4 1-.5 1.4-.2.4.3.5 1 .2 1.4-1.1 1.6-2.9 2.5-4.8 2.5z"/>
</svg>
