<svg xmlns="http://www.w3.org/2000/svg" width="24" height="24" fill="none" viewBox="0 0 24 24">
  <path fill="#B3B3B3" d="M12 3v18a9 9 0 100-18z"/>
  <path fill="#818181" d="M12 22a1 1 0 01-1-.999V3a1 1 0 01.999-1H12a10.016 10.016 0 018.791 5.236c.015.028.027.055.04.082 2.59 4.869.742 10.915-4.126 13.506a9.985 9.985 0 01-4.429 1.166A2.34 2.34 0 0112 22zm1-17.938v15.867a7.981 7.981 0 006.034-11.727.98.98 0 01-.045-.092A8.03 8.03 0 0013 4.062z"/>
  <path fill="#818181" d="M11.999 13.85a1 1 0 01-.865-1.5l4.86-8.42a1 1 0 011.733.999l-4.86 8.42c-.18.31-.51.5-.868.5zm.25 8.14a1 1 0 01-.865-1.5l7.641-13.238a.999.999 0 011.885.458c0 .179-.046.354-.134.51l-7.66 13.27c-.179.31-.51.5-.867.5z"/>
</svg>
