<svg xmlns="http://www.w3.org/2000/svg" width="24" height="24" fill="none" viewBox="0 0 24 24">
  <path fill="#B3B3B3" d="M12 3v18a9 9 0 100-18z"/>
  <path fill="#818181" d="M12 21a9 9 0 110-18v18zm0 1C6.477 22 2 17.523 2 12S6.477 2 12 2s10 4.477 10 10c-.006 5.52-4.48 9.994-10 10zm0-18a8 8 0 108 8 8.01 8.01 0 00-8-8z"/>
  <path fill="#818181" d="M17.36 3.563a1 1 0 00-1.366.367l-1.419 2.458-4.861 8.42a1 1 0 001.732 1l1.419-2.457.001-.002 4.86-8.42a1 1 0 00-.366-1.366zM12.25 21.99a1 1 0 01-.865-1.5l7.641-13.238a.999.999 0 011.885.458c0 .179-.046.354-.134.51l-7.66 13.27c-.179.31-.51.5-.867.5z"/>
</svg>
