<svg xmlns="http://www.w3.org/2000/svg" width="24" height="24" fill="none" viewBox="0 0 24 24">
  <path fill="#818181" d="M14.5 6.5a.997.997 0 01-.707-.293L12 4.414l-1.793 1.793a1 1 0 01-1.414-1.414l2.5-2.5a1 1 0 011.414 0l2.5 2.5A1 1 0 0114.5 6.5z"/>
  <path fill="#818181" d="M12 9a1 1 0 01-1-1V3a1 1 0 012 0v5a1 1 0 01-1 1z"/>
  <path fill="#B3B3B3" d="M16 13H8a1 1 0 010-2h8a1 1 0 010 2z"/>
  <path fill="#818181" d="M12 22a.997.997 0 01-.707-.293l-2.5-2.5a1 1 0 011.414-1.414L12 19.586l1.793-1.793a1 1 0 011.414 1.414l-2.5 2.5A.999.999 0 0112 22z"/>
  <path fill="#818181" d="M12 22a1 1 0 01-1-1v-5a1 1 0 012 0v5a1 1 0 01-1 1z"/>
</svg>
