<svg xmlns="http://www.w3.org/2000/svg" width="24" height="24" fill="none" viewBox="0 0 24 24">
  <path fill="#CCC" d="M22.89 11.53L20.4 8.2A3.012 3.012 0 0018 7h-2v10a1 1 0 01-1 1h7a1.003 1.003 0 001-1v-5a1.116 1.116 0 00-.11-.47z"/>
  <path fill="#B3B3B3" d="M13 3H4a3.003 3.003 0 00-3 3v11a1 1 0 001 1h13a1 1 0 001-1V6a3.003 3.003 0 00-3-3z"/>
  <path fill="#818181" d="M22.89 11.53L20.4 8.2A3.012 3.012 0 0018 7h-2v6h7v-1a1.116 1.116 0 00-.11-.47zM10.5 9.5h-1v-1a1 1 0 10-2 0v1h-1a1 1 0 100 2h1v1a1 1 0 102 0v-1h1a1 1 0 100-2zM6 21a3 3 0 110-6 3 3 0 010 6zm12 0a3 3 0 110-6 3 3 0 010 6z"/>
</svg>
