<svg xmlns="http://www.w3.org/2000/svg" width="24" height="24" fill="none" viewBox="0 0 24 24">
  <path fill="#818181" d="M14.975 3.019l.96-1.732a.194.194 0 00-.075-.263.193.193 0 00-.263.076l-.97 1.75a6.541 6.541 0 00-5.253 0l-.97-1.75a.193.193 0 10-.34.187l.96 1.732a5.546 5.546 0 00-3.093 4.876h12.137a5.546 5.546 0 00-3.093-4.876zM5.931 17.172a1.467 1.467 0 001.467 1.467h.974v3a1.36 1.36 0 102.721 0v-3h1.814v3a1.363 1.363 0 001.36 1.365 1.36 1.36 0 001.36-1.364v-3.001h.974a1.467 1.467 0 001.468-1.467V8.375H5.93v8.797zm-1.867-9.03a1.362 1.362 0 00-1.36 1.36v5.669a1.36 1.36 0 102.72 0V9.502a1.362 1.362 0 00-1.36-1.36zm15.872 0a1.362 1.362 0 00-1.36 1.36v5.669a1.361 1.361 0 102.72 0V9.502a1.362 1.362 0 00-1.36-1.36z"/>
  <path fill="#B3B3B3" d="M9.199 5.675a.507.507 0 100-1.014.507.507 0 000 1.014zM14.8 5.675a.507.507 0 10.001-1.014.507.507 0 000 1.014z"/>
</svg>
