<svg xmlns="http://www.w3.org/2000/svg" width="24" height="24" fill="none" viewBox="0 0 24 24">
  <path fill="#B3B3B3" d="M12 22C6.5 22 2 17.5 2 12S6.5 2 12 2s10 4.5 10 10-4.5 10-10 10z"/>
  <path fill="#818181" d="M15 17.1c-.2 0-.5-.1-.6-.2a3.76 3.76 0 00-4.7 0c-.4.4-1.1.3-1.4-.1-.4-.4-.3-1.1.1-1.4 2.1-1.8 5.2-1.8 7.3 0 .4.4.5 1 .1 1.4-.2.2-.5.3-.8.3zM14 11c-.6 0-1-.4-1-1 0-.4.2-.7.6-.9l2-1c.5-.2 1.1 0 1.3.4.2.4 0 1.1-.4 1.3l-2 1c-.2.2-.3.2-.5.2zm-4 0c-.2 0-.3 0-.4-.1l-2-1c-.5-.3-.7-.9-.5-1.3.3-.5.9-.7 1.3-.5l2 1c.5.2.7.8.4 1.3-.1.4-.4.6-.8.6z"/>
</svg>
