<svg xmlns="http://www.w3.org/2000/svg" width="24" height="24" fill="none" viewBox="0 0 24 24">
  <path fill="#B3B3B3" d="M12 22c5.523 0 10-4.477 10-10S17.523 2 12 2 2 6.477 2 12s4.477 10 10 10z"/>
  <path fill="#818181" d="M15.5 10.836a2.98 2.98 0 01-2.121-.879 1 1 0 011.414-1.414 1.033 1.033 0 001.414 0 1 1 0 011.414 1.414 2.981 2.981 0 01-2.121.879zm-7 0a2.98 2.98 0 01-2.121-.879 1 1 0 011.414-1.414 1.033 1.033 0 001.414 0 1 1 0 011.414 1.414 2.98 2.98 0 01-2.121.879zM10.804 17a1 1 0 01-.337-1.941l4.196-1.5a1 1 0 11.674 1.882l-4.196 1.5a.994.994 0 01-.337.059z"/>
</svg>
