<svg xmlns="http://www.w3.org/2000/svg" width="24" height="24" fill="none" viewBox="0 0 24 24">
  <path fill="#818181" d="M17.594 12.625a4.524 4.524 0 012.162-3.805 4.67 4.67 0 00-3.659-1.984c-1.557-.158-3.039.917-3.828.917-.79 0-2.01-.894-3.3-.87a4.896 4.896 0 00-4.14 2.508c-1.762 3.06-.45 7.593 1.268 10.076.84 1.214 1.843 2.582 3.158 2.532 1.268-.05 1.746-.82 3.277-.82 1.53 0 1.961.82 3.3.795 1.364-.025 2.229-1.239 3.062-2.457a10.945 10.945 0 001.384-2.845 4.42 4.42 0 01-2.684-4.047z"/>
  <path fill="#818181" d="M15.216 5.04A5.56 5.56 0 0016.536 1a5.672 5.672 0 00-3.73 1.92l-.02.047a5.56 5.56 0 00-1.32 4.04 5.672 5.672 0 003.73-1.92l.02-.047z"/>
</svg>
