<svg xmlns="http://www.w3.org/2000/svg" width="24" height="24" fill="none" viewBox="0 0 24 24">
  <path fill="#818181" d="M17.458 12.625A4.523 4.523 0 0119.62 8.82a4.671 4.671 0 00-3.659-1.984c-1.557-.158-3.039.917-3.828.917-.79 0-2.01-.894-3.3-.87a4.896 4.896 0 00-4.14 2.508c-1.762 3.06-.45 7.593 1.268 10.076.84 1.214 1.843 2.582 3.158 2.532 1.268-.05 1.746-.82 3.277-.82 1.53 0 1.961.82 3.3.795 1.364-.025 2.229-1.239 3.062-2.457a10.945 10.945 0 001.384-2.845 4.42 4.42 0 01-2.684-4.047zm-2.517-7.432A4.405 4.405 0 0015.981 2a4.483 4.483 0 00-2.946 1.516 4.187 4.187 0 00-1.06 3.093 3.709 3.709 0 002.966-1.416z"/>
</svg>
