<svg xmlns="http://www.w3.org/2000/svg" width="24" height="24" fill="none" viewBox="0 0 24 24">
  <path fill="#B3B3B3" d="M16 22H8a1 1 0 01-1-.999v-4.529a8.19 8.19 0 014.553-7.367c.281-.14.613-.14.894 0A8.19 8.19 0 0117 16.472V21a1 1 0 01-.999 1H16zm6-14H2a1 1 0 010-2h20a1 1 0 110 2z"/>
  <path fill="#CCC" d="M21 6V3v-.001A1 1 0 0020 2H4h-.001A1 1 0 003 3v3h18zM3 8v13.001A1 1 0 004 22h4a1 1 0 01-1-.999v-4.529a8.19 8.19 0 014.553-7.367c.281-.14.613-.14.894 0A8.19 8.19 0 0117 16.472V21a1 1 0 01-.999 1h4A1 1 0 0021 21V8H3z"/>
  <path fill="#818181" d="M22 22H2a1 1 0 110-2h20a1 1 0 110 2z"/>
</svg>
