<svg xmlns="http://www.w3.org/2000/svg" width="24" height="24" fill="none" viewBox="0 0 24 24">
  <path fill="#818181" d="M7.5 15.5a1 1 0 01-.707-1.707L8.586 12l-1.793-1.793a1 1 0 011.414-1.414l2.5 2.5a1 1 0 010 1.414l-2.5 2.5a.997.997 0 01-.707.293zm9 0a.997.997 0 01-.707-.293l-2.5-2.5a1 1 0 010-1.414l2.5-2.5a1 1 0 011.414 1.414L15.414 12l1.793 1.793A1 1 0 0116.5 15.5z"/>
  <path fill="#B3B3B3" d="M3 18a1 1 0 01-1-.999V7a1 1 0 012 0v10a1 1 0 01-.999 1H3zm18 0a1 1 0 01-1-.999V7a1 1 0 112 0v10a1 1 0 01-.999 1H21z"/>
  <path fill="#818181" d="M10 11H4v2h6a1 1 0 100-2zm10 0h-6a1 1 0 100 2h6v-2z"/>
</svg>
