<svg xmlns="http://www.w3.org/2000/svg" width="24" height="24" fill="none" viewBox="0 0 24 24">
  <path fill="#818181" d="M5.5 15.5a.997.997 0 01-.707-.293l-2.5-2.5a1 1 0 010-1.414l2.5-2.5a1 1 0 011.414 1.414L4.414 12l1.793 1.793A1 1 0 015.5 15.5zm13 0a1 1 0 01-.707-1.707L19.586 12l-1.793-1.793a1 1 0 011.414-1.414l2.5 2.5a1 1 0 010 1.414l-2.5 2.5a.997.997 0 01-.707.293z"/>
  <path fill="#B3B3B3" d="M10 18a1 1 0 01-1-.999V7a1 1 0 112 0v10a1 1 0 01-.999 1H10zm4 0a1 1 0 01-1-.999V7a1 1 0 112 0v10a1 1 0 01-.999 1H14z"/>
  <path fill="#818181" d="M9 11H3a1 1 0 100 2h6v-2zm12 0h-6v2h6a1 1 0 100-2z"/>
</svg>
