<svg xmlns="http://www.w3.org/2000/svg" width="24" height="24" fill="none" viewBox="0 0 24 24">
  <path fill="#818181" d="M14.5 15.5a1 1 0 01-.707-1.707L15.586 12l-1.793-1.793a1 1 0 011.414-1.414l2.5 2.5a1 1 0 010 1.414l-2.5 2.5a.998.998 0 01-.707.293zm-5 0a.997.997 0 01-.707-.293l-2.5-2.5a.999.999 0 010-1.414l2.5-2.5a1 1 0 011.414 1.414L8.414 12l1.793 1.793A1 1 0 019.5 15.5z"/>
  <path fill="#818181" d="M17 13H7a1 1 0 010-2h10a1 1 0 010 2z"/>
  <path fill="#B3B3B3" d="M3 18a1 1 0 01-1-1V7a1 1 0 012 0v10a1 1 0 01-1 1zm18 0a1 1 0 01-1-1V7a1 1 0 012 0v10a1 1 0 01-1 1z"/>
</svg>
