<svg xmlns="http://www.w3.org/2000/svg" width="24" height="24" fill="none" viewBox="0 0 24 24">
  <path fill="#818181" d="M21 10a1 1 0 01-1-1V4h-5a1 1 0 110-2h6a1 1 0 011 1v6a.998.998 0 01-1 1z"/>
  <path fill="#818181" d="M3 22a1 1 0 01-.707-1.707l18-18a1.001 1.001 0 011.635 1.09 1 1 0 01-.221.324l-18 18A.997.997 0 013 22zm18 0h-6a1 1 0 110-2h5v-5a1 1 0 012 0v6a1 1 0 01-1 1z"/>
  <path fill="#818181" d="M21 22a.997.997 0 01-.707-.293l-6.265-6.265a1 1 0 011.414-1.414l6.265 6.265A1 1 0 0121 22zM9.406 10.274a.995.995 0 01-.707-.293L2.425 3.707a1 1 0 111.414-1.414l6.274 6.274a1 1 0 01-.707 1.707z"/>
</svg>
