<svg xmlns="http://www.w3.org/2000/svg" width="24" height="24" fill="none" viewBox="0 0 24 24">
  <path fill="#CCC" d="M21 11a1 1 0 01-1-.999V10a9.04 9.04 0 00-3.61-7.2 1 1 0 011.2-1.6A11.053 11.053 0 0122 10a1 1 0 01-.999 1H21zM7 15a1 1 0 100-2 1 1 0 000 2z"/>
  <path fill="#B3B3B3" d="M14.505 3.935a6.997 6.997 0 00-8.496 10.96c.629.628.786 1.586.39 2.381a3.987 3.987 0 007.092 3.64l3.564-7.42a6.997 6.997 0 00-2.55-9.561zM7 15a1 1 0 110-2 1 1 0 010 2z"/>
  <path fill="#CCC" d="M4 17a1 1 0 100-2 1 1 0 000 2z"/>
  <path fill="#818181" d="M10 15.12a1 1 0 01-.824-1.565.988.988 0 000-1.12 1.185 1.185 0 00-.123-.138l-.12-.126A3 3 0 1114 10a1 1 0 11-2-.001 1 1 0 10-1.672.74l.155.16a2.9 2.9 0 01.336.397 2.983 2.983 0 01.005 3.388.997.997 0 01-.825.435z"/>
</svg>
