<svg xmlns="http://www.w3.org/2000/svg" width="24" height="24" fill="none" viewBox="0 0 24 24">
  <path fill="#818181" d="M12 13a1 1 0 100-2 1 1 0 000 2z"/>
  <path fill="#B3B3B3" d="M9.5 16.33c-.017-.01-.033-.022-.05-.031a15.1 15.1 0 01-1.652.338c-1.374.145-2.416-.1-2.726-.637-.293-.508-.027-1.451.684-2.493A17.118 17.118 0 014.39 12c-.04.05-.085.094-.124.144-1.341 1.843-1.67 3.568-.926 4.856.634 1.097 1.931 1.679 3.702 1.679.323-.001.645-.019.966-.053A17.13 17.13 0 0012 17.548a17.127 17.127 0 01-2.5-1.218z"/>
  <path fill="#CCC" d="M18.117 10.68c.045-.063.083-.123.125-.185a18.358 18.358 0 00-1.425-1.258c.114.855.178 1.758.181 2.704.394-.4.77-.818 1.12-1.262z"/>
  <path fill="#9A9A9A" d="M12 2c-1.564 0-2.913 1.299-3.816 3.408.68.101 1.35.253 2.01.434C10.763 4.662 11.439 4 12 4c1.224 0 3 3.117 3 8s-1.776 8-3 8c-.56 0-1.236-.661-1.805-1.84a16.29 16.29 0 01-2.01.435C9.088 20.702 10.437 22 12 22c2.85 0 5-4.299 5-10S14.85 2 12 2z"/>
  <path fill="#CCC" d="M10.5 14.598a15.138 15.138 0 01-4.617-3.919C5.073 9.564 4.762 8.54 5.073 8c.31-.538 1.35-.782 2.725-.637.558.08 1.107.197 1.65.338L9.5 7.67c.798-.48 1.64-.875 2.5-1.218a17.134 17.134 0 00-3.992-1.078C5.738 5.137 4.084 5.713 3.34 7c-.743 1.288-.415 3.013.926 4.856A17.147 17.147 0 009.5 16.33a17.135 17.135 0 004.306 1.828c.254-.527.484-1.157.675-1.88a15.113 15.113 0 01-3.981-1.68z"/>
  <path fill="#9A9A9A" d="M7.189 14.77c.09.659.204 1.294.352 1.885.086-.006.168-.009.257-.018a15.1 15.1 0 001.651-.338 17.113 17.113 0 01-2.26-1.53z"/>
  <path fill="#CCC" d="M19.734 12.144c-.039-.05-.086-.092-.126-.142a17.023 17.023 0 01-1.365 1.505c.712 1.041.978 1.985.685 2.493-.29.503-1.223.745-2.469.655-.176.703-.392 1.351-.643 1.937.06.01.117.026.176.034.321.034.643.052.966.053 1.772 0 3.068-.582 3.702-1.679.743-1.288.415-3.013-.926-4.856z"/>
  <path fill="#B3B3B3" d="M13.5 14.598a15.12 15.12 0 01-1.5.79c.8.369 1.63.664 2.481.89.201-.763.358-1.623.443-2.578-.458.323-.93.627-1.424.898zm.306-8.756A17.136 17.136 0 009.5 7.67a17.132 17.132 0 00-3.744 2.823c.043.062.081.123.127.186.366.467.766.902 1.182 1.321A15.127 15.127 0 0110.5 9.402a15.114 15.114 0 013.981-1.68 10.552 10.552 0 00-.675-1.88z"/>
  <path fill="#9A9A9A" d="M7.002 11.93v.01c.019.02.04.037.06.056-.021-.02-.039-.045-.06-.067zm2.441-4.226a14.912 14.912 0 00-1.645-.34c-.089-.01-.171-.013-.257-.02A17.323 17.323 0 007.19 9.23a16.587 16.587 0 012.254-1.526zm-.359 2.597A15.436 15.436 0 007.066 12c.623.626 1.296 1.2 2.02 1.708A18.485 18.485 0 019 12c0-.598.035-1.158.084-1.699z"/>
  <path fill="#B3B3B3" d="M20.66 7c-.744-1.288-2.402-1.864-4.668-1.626-.06.008-.117.025-.176.034.25.586.467 1.234.643 1.936 1.243-.09 2.178.153 2.469.656.31.538 0 1.564-.81 2.68-.349.443-.726.86-1.12 1.26L17 12c0 .967-.066 1.89-.183 2.763a17.076 17.076 0 002.917-2.907c1.341-1.843 1.67-3.567.926-4.856z"/>
  <path fill="#CCC" d="M12 8.613c.512.237 1.015.495 1.5.79.493.27.966.574 1.424.897a15.563 15.563 0 00-.443-2.577c-.851.225-1.682.52-2.481.89z"/>
</svg>
