<svg xmlns="http://www.w3.org/2000/svg" width="24" height="24" fill="none" viewBox="0 0 24 24">
  <path fill="#CCC" d="M12 15.25a6 6 0 100-12 6 6 0 000 12z"/>
  <path fill="#B3B3B3" d="M19.574 17.013l-2.566-4.453-.008.004a5.992 5.992 0 01-5 2.686c-.129 0-.254-.011-.381-.02l.39.67 2.374 4.112a.5.5 0 00.862.006l1.324-2.218 2.579-.038a.5.5 0 00.426-.75z"/>
  <path fill="#818181" d="M11.619 15.23a5.99 5.99 0 01-4.62-2.668l-2.564 4.45a.5.5 0 00.426.75l2.58.038 1.323 2.218a.5.5 0 00.862-.006L12 15.9l.004-.007-.385-.662z"/>
</svg>
