<svg xmlns="http://www.w3.org/2000/svg" width="24" height="24" fill="none" viewBox="0 0 24 24">
  <path fill="#B3B3B3" d="M21.98 8H5.38l.51 1.37c.01.01.01.02.02.03l.51 1.37.03.09A6.444 6.444 0 0012.5 15h3A6.487 6.487 0 0022 8.526V8.5c0-.17-.01-.34-.02-.5z"/>
  <path fill="#818181" d="M7.518 8l-1.25-3.35A1 1 0 005.33 4H3a1 1 0 100 2h1.636l.747 2h2.135zm14.457 0A6.496 6.496 0 0015.5 2H15a1 1 0 00-1 1v5h7.975zM19 21.5a2.5 2.5 0 110-5 2.5 2.5 0 010 5zm-10 0a2.5 2.5 0 110-5 2.5 2.5 0 010 5z"/>
</svg>
