<svg xmlns="http://www.w3.org/2000/svg" width="24" height="24" fill="none" viewBox="0 0 24 24">
  <path fill="#9A9A9A" d="M18 10v9c0 .352-.073.686-.185 1H19a3.003 3.003 0 003-3v-3a4.005 4.005 0 00-4-4zM6 19v-9a4.005 4.005 0 00-4 4v3a3.003 3.003 0 003 3h1.185A2.976 2.976 0 016 19z"/>
  <path fill="#CCC" d="M15 22H9a3.003 3.003 0 01-3-3v-1a4.005 4.005 0 014-4h4a4.005 4.005 0 014 4v1a3.003 3.003 0 01-3 3z"/>
  <path fill="#B3B3B3" d="M14 6h-4a4.005 4.005 0 00-4 4v8a4.005 4.005 0 014-4h4a4.005 4.005 0 014 4v-8a4.005 4.005 0 00-4-4z"/>
  <path fill="#818181" d="M10 6h1V5a1 1 0 112 0v1h1c.348 0 .679.059 1 .142V5a3 3 0 10-6 0v1.142A3.969 3.969 0 0110 6zm3 6h-2a1 1 0 110-2h2a1 1 0 110 2z"/>
</svg>
