<svg xmlns="http://www.w3.org/2000/svg" width="24" height="24" fill="none" viewBox="0 0 24 24">
  <path fill="#CCC" d="M19 6H5a3.003 3.003 0 00-3 3v2a1 1 0 00.684.949l6 2A.995.995 0 009 14h6a.995.995 0 00.316-.051l6-2A1 1 0 0022 11V9a3.003 3.003 0 00-3-3z"/>
  <path fill="#B3B3B3" d="M21.316 11.949l-6 2A.998.998 0 0115 14H9a.998.998 0 01-.316-.051l-6-2A1 1 0 012 11v7a3 3 0 003 3h14a3 3 0 003-3v-7a1 1 0 01-.684.949zM10 6l-.001-1H14v1h2V5c0-1.103-.898-2-2-2h-4c-1.103 0-2 .897-2 2v1h2z"/>
  <path fill="#818181" d="M21 22a.997.997 0 01-.707-.293l-18-18a1 1 0 011.414-1.414l18 18A1 1 0 0121 22z"/>
</svg>
