<svg xmlns="http://www.w3.org/2000/svg" width="24" height="24" fill="none" viewBox="0 0 24 24">
  <path fill="#B3B3B3" d="M12 14.5c-3.265 0-6.488-.733-9.43-2.146A.998.998 0 012 11.45V9.5a3.003 3.003 0 013-3h14a3.003 3.003 0 013 3v1.952a1 1 0 01-.57.903A21.79 21.79 0 0112 14.5z"/>
  <path fill="#818181" d="M10 6.5v-1a1 1 0 011-1h2a1 1 0 011 1v1h2v-1a3.003 3.003 0 00-3-3h-2a3.003 3.003 0 00-3 3v1h2z"/>
  <path fill="#CCC" d="M21.43 12.355a21.79 21.79 0 01-18.86-.002.998.998 0 01-.57-.902V18.5a3.003 3.003 0 003 3h14a3.003 3.003 0 003-3v-7.048a1 1 0 01-.57.903z"/>
</svg>
