<svg xmlns="http://www.w3.org/2000/svg" width="24" height="24" fill="none" viewBox="0 0 24 24">
  <path fill="#818181" d="M16 22H8a1 1 0 110-2h8a1 1 0 110 2z"/>
  <path fill="#818181" d="M12 22a1 1 0 01-1-1V3a1 1 0 112 0v18a1 1 0 01-1 1z"/>
  <path fill="#B3B3B3" d="M19 18a4.004 4.004 0 01-4-4 1 1 0 011-1h6a1 1 0 011 1 4.004 4.004 0 01-4 4z"/>
  <path fill="#CCC" d="M15.003 14.027c0 .014.003.026.004.039 0-.013-.004-.026-.004-.039zM15.999 13h1.444L19 8.855 20.556 13H22c.49 0 .879.36.965.824-.011-.059-.007-.118-.03-.176l-2.64-7.03a1 1 0 00-.935-.648h-.72a1 1 0 00-.936.648l-2.64 7.03c-.022.058-.018.116-.028.175a.986.986 0 01.963-.823zm6.994 1.068c.001-.014.004-.028.004-.042 0 .014-.004.027-.004.042z"/>
  <path fill="#818181" d="M19.36 5.97a1 1 0 01.936.648l.335.893A2.996 2.996 0 0022 5a1 1 0 10-2 0 1 1 0 01-.527.881.976.976 0 01-.294.089h.18z"/>
  <path fill="#B3B3B3" d="M5 18a4.004 4.004 0 01-4-4 1 1 0 011-1h6a1 1 0 011 1 4.004 4.004 0 01-4 4z"/>
  <path fill="#CCC" d="M1.003 14.027c0 .028.005.054.008.082 0-.028-.008-.054-.008-.082zM1.999 13H3.444L5 8.855 6.556 13H8c.49 0 .879.36.965.824-.011-.059-.007-.118-.029-.176l-2.64-7.03a1 1 0 00-.936-.648h-.72a1 1 0 00-.936.648l-2.64 7.03-.006.016c-.024.065-.02.132-.03.198A.988.988 0 011.999 13z"/>
  <path fill="#818181" d="M3.37 7.51l.334-.892a1 1 0 01.936-.648h.21A.988.988 0 014 5a1 1 0 10-2 0c0 1.02.523 1.96 1.37 2.51zm14.748-2.037A2.893 2.893 0 0015.54 4H8.46a2.893 2.893 0 00-2.578 1.473.996.996 0 01-.66.497h.138a1 1 0 01.936.648l.332.886c.41-.266.767-.624 1.015-1.084A.917.917 0 018.46 6h7.08a.917.917 0 01.817.42c.243.453.596.822 1.012 1.092l.335-.894a1 1 0 01.936-.648h.192a.982.982 0 01-.714-.497z"/>
  <path fill="#CCC" d="M8.993 14.068c.001-.014.004-.028.004-.042 0 .014-.004.027-.004.042z"/>
</svg>
