<svg xmlns="http://www.w3.org/2000/svg" width="24" height="24" fill="none" viewBox="0 0 24 24">
  <path fill="#B3B3B3" d="M4.462 4.464l.002-.002a4.99 4.99 0 017.057 0l8.019 8.02a4.99 4.99 0 010 7.056l-.002.002a4.99 4.99 0 01-7.057 0l-8.02-8.02a4.99 4.99 0 010-7.056z"/>
  <path fill="#818181" d="M19.06 12.001l.48-.48a4.992 4.992 0 10-7.06-7.06l-.48.48 7.06 7.06zm-14.12 0l-.48.48a4.992 4.992 0 107.06 7.06l.48-.48L4.94 12zM9.525 13.001a1 1 0 100-2 1 1 0 000 2zM12 15.476a1 1 0 100-2 1 1 0 000 2zM14.475 13.001a1 1 0 100-2 1 1 0 000 2zM12 10.526a1 1 0 100-2 1 1 0 000 2z"/>
</svg>
