<svg xmlns="http://www.w3.org/2000/svg" width="24" height="24" fill="none" viewBox="0 0 24 24">
  <path fill="#B3B3B3" d="M21.94 10.96a9.984 9.984 0 00-10.89-8.91 9.984 9.984 0 00-8.99 11 9.986 9.986 0 008.88 8.89c.352.04.706.06 1.06.06a7.4 7.4 0 00.94-.05 9.982 9.982 0 009-10.99z"/>
  <path fill="#818181" d="M12.07 21.01a1.01 1.01 0 00-1.12.87l-.01.06c.352.04.706.06 1.06.06a7.4 7.4 0 00.94-.05 1.004 1.004 0 00-.87-.94zm.41-3.2c0-.01-.04-.1-.04-.11a.956.956 0 00-1.24-.58 1.043 1.043 0 00-.62 1.3.992.992 0 00.95.7 1.048 1.048 0 00.643-.239.998.998 0 00.307-1.071zm-2.36-3.83a1.002 1.002 0 10-1.39 1.43.896.896 0 00.65.28 1.02 1.02 0 00.7-.29 1.037 1.037 0 00.04-1.42zM6.4 11.59c-.01 0-.12-.04-.13-.04a.96.96 0 00-1.22.62 1.05 1.05 0 00.99 1.36 1.004 1.004 0 00.36-1.94zm-4.35-.54c-.062.665-.058 1.335.01 2 .03.002.06-.002.09-.01a.997.997 0 00-.1-1.99zm9-9a.989.989 0 00.88.95c.04.008.08.012.12.01a1.012 1.012 0 001-.88l.01-.07a10.383 10.383 0 00-2.01-.01zm2.38 3.54a.998.998 0 10-1.9.61c0 .01.03.11.03.11a.929.929 0 00.9.64c.12 0 .237-.02.35-.06a1.039 1.039 0 00.62-1.3zm1.85 3.01a.961.961 0 00-1.38.03 1.033 1.033 0 00.03 1.44c.01.01.02.03.04.04a.9.9 0 00.63.25 1.015 1.015 0 00.68-1.76zm3.03 1.94a1 1 0 00-1.28 1.33.997.997 0 00.55.53c.02.01.12.04.13.05.1.03.205.047.31.05a.978.978 0 00.91-.67 1.04 1.04 0 00-.62-1.29zm3.63.42h-.08a.996.996 0 00.06 1.99h.03c.062-.662.058-1.329-.01-1.99z"/>
</svg>
