<svg xmlns="http://www.w3.org/2000/svg" width="24" height="24" fill="none" viewBox="0 0 24 24">
  <path fill="#B3B3B3" d="M12 22a10 10 0 1110-10 10.011 10.011 0 01-10 10z"/>
  <path fill="#818181" d="M21.83 10.17a9.995 9.995 0 00-11.66 11.66c.604.113 1.216.17 1.83.17h.25A8.01 8.01 0 0122 12.25V12c0-.614-.058-1.226-.17-1.83z"/>
  <path fill="#818181" d="M3.99 6.03c-.454.613-.84 1.273-1.15 1.97H3a14.015 14.015 0 0113.94 12.69 9.884 9.884 0 001.83-1.36A16.02 16.02 0 003.99 6.03z"/>
  <path fill="#818181" d="M13.83 2.17A9.967 9.967 0 0012 2h-.25v.01a8.01 8.01 0 01-9.74 9.74H2V12c0 .614.057 1.226.17 1.83A9.96 9.96 0 004 14 10.017 10.017 0 0014 4c0-.614-.057-1.227-.17-1.83z"/>
</svg>
