<svg xmlns="http://www.w3.org/2000/svg" width="24" height="24" fill="none" viewBox="0 0 24 24">
  <path fill="#CCC" d="M20 2H4a3 3 0 00-3 3v8a3 3 0 003 3h3v-4H6a1 1 0 110-2h2a1 1 0 011 .999V14h2v-3a1 1 0 112 0v3h2v-3a1 1 0 01.999-1H18a1 1 0 110 2h-1v4h3a3 3 0 003-3V5a3 3 0 00-3-3z"/>
  <path fill="#818181" d="M14 8h-4a1 1 0 110-2h4a1 1 0 110 2z"/>
  <path fill="#B3B3B3" d="M18 10h-2-.001A1 1 0 0015 11v3h-2v-3a1 1 0 10-2 0v3H9v-3-.001A1 1 0 008 10H6a1 1 0 100 2h1v9.001A1 1 0 008 22h.001A1 1 0 009 21v-1h2v1.001A1 1 0 0012 22h.001A1 1 0 0013 21v-1h2v1.001A1 1 0 0016 22h.001A1 1 0 0017 21v-9h1a1 1 0 100-2zm-9 8v-2h2v2H9zm4 0v-2h2v2h-2z"/>
  <path fill="#818181" d="M18 12H6a1 1 0 110-2h12a1 1 0 110 2z"/>
</svg>
