<svg xmlns="http://www.w3.org/2000/svg" width="24" height="24" fill="none" viewBox="0 0 24 24">
  <path fill="#B3B3B3" d="M8.732 3.732a2.5 2.5 0 013.536 0l.353.353a1 1 0 010 1.415l-2.12 2.12a1 1 0 01-1.415 0l-.354-.353a2.5 2.5 0 010-3.535zM18 20H6a3.003 3.003 0 01-3-3v-4a1 1 0 01.999-1H20a1 1 0 011 .999V17a3.003 3.003 0 01-3 3z"/>
  <path fill="#818181" d="M6 20c-.353 0-.686-.073-1-.185v1.186A1 1 0 006 22h.001A1 1 0 007 21v-1H6zm12 0h-1v1.001A1 1 0 0018 22h.001A1 1 0 0019 21v-1.185A2.978 2.978 0 0118 20zm4-6H2a1 1 0 110-2h20a1 1 0 110 2z"/>
  <path fill="#CCC" d="M8.13 4.74c.117-.368.31-.717.602-1.008.197-.197.423-.343.659-.46a.986.986 0 00-.25-.243A3.999 3.999 0 003 6.41V12h2V6.41a1.975 1.975 0 011.04-1.759 1.95 1.95 0 012.018.06c.022.015.048.016.072.028z"/>
</svg>
