<svg xmlns="http://www.w3.org/2000/svg" width="24" height="24" fill="none" viewBox="0 0 24 24">
  <path fill="#818181" d="M13.988 12.059A1.024 1.024 0 0013 11H9.732l1.444-2.5a1.001 1.001 0 10-1.733-1l-2.31 4A1.022 1.022 0 008 13h3.268l-1.444 2.5a1 1 0 001.733 1l2.31-4c.066-.139.108-.288.121-.441z"/>
  <path fill="#B3B3B3" d="M17 7H4a2.002 2.002 0 00-2 2v6a2.002 2.002 0 002 2h6.69a1 1 0 01-.866-1.5l1.444-2.5H8a1.022 1.022 0 01-.866-1.5l2.31-4a1 1 0 111.732 1L9.732 11H13a1.022 1.022 0 01.988 1.059 1.27 1.27 0 01-.122.441l-2.31 4a1 1 0 01-.866.5H17a2.002 2.002 0 002-2V9a2.002 2.002 0 00-2-2zm4 7a1 1 0 01-1-1v-2a1 1 0 012 0v2a1 1 0 01-1 1z"/>
</svg>
