<svg xmlns="http://www.w3.org/2000/svg" width="24" height="24" fill="none" viewBox="0 0 24 24">
  <path fill="#CCC" d="M16 8.5h-2a2 2 0 00-2 2 2 2 0 00-2-2H8a2 2 0 00-2 2v2h12v-2a2 2 0 00-2-2z"/>
  <path fill="#B3B3B3" d="M20 3.5H4a3.003 3.003 0 00-3 3v6a1 1 0 001 1h20a1 1 0 001-1v-6a3.003 3.003 0 00-3-3zm-2 9H6v-2a2 2 0 012-2h2a2 2 0 012 2 2 2 0 012-2h2a2 2 0 012 2v2z"/>
  <path fill="#818181" d="M22 20.5h-4a1 1 0 01-.832-.445L15.465 17.5h-6.93l-1.703 2.555A1 1 0 016 20.5H2a1 1 0 01-1-1v-7a1 1 0 011-1h20a1 1 0 011 1v7a1 1 0 01-1 1z"/>
</svg>
