<svg xmlns="http://www.w3.org/2000/svg" width="24" height="24" fill="none" viewBox="0 0 24 24">
  <path fill="#818181" d="M10.396 11.519h-.108l.24-.132a2.333 2.333 0 001.095-1.203 3.465 3.465 0 00.145-1.697 2.815 2.815 0 00-1.732-2.297 4.728 4.728 0 00-1.925-.385H2v12.354h5.582a9.45 9.45 0 001.587-.132 3.465 3.465 0 002.659-1.973c.365-.746.47-1.593.3-2.406a2.693 2.693 0 00-1.732-2.13zM4.9 7.959h2.406c.406-.001.81.051 1.203.156a1.035 1.035 0 01.794.926c.05.246.05.5 0 .746a.999.999 0 01-.517.65 2.479 2.479 0 01-1.203.264H4.875l.024-2.743zm4.655 6.904a1.396 1.396 0 01-1.202 1.13c-.262.053-.528.081-.794.085H4.875v-3.272h2.863c.307 0 .612.054.902.156a1.311 1.311 0 01.914 1.203c.032.232.032.467 0 .698zm12.439-.806c.012-.024.012-.048-.024-.024v-1.335a4.379 4.379 0 00-.41-1.769 3.73 3.73 0 00-1.924-1.852 5.137 5.137 0 00-2.947-.289 3.886 3.886 0 00-3.212 2.815 6.7 6.7 0 00-.144 3.465c.12.647.42 1.247.866 1.732.569.58 1.284.995 2.069 1.203a5.45 5.45 0 002.322.12 4.006 4.006 0 002.514-1.323c.323-.343.565-.754.71-1.203a.523.523 0 00.084-.349h-2.358a.12.12 0 00-.12.072 1.707 1.707 0 01-1.203.902 2.682 2.682 0 01-1.083 0 1.9 1.9 0 01-1.431-1.058 2.405 2.405 0 01-.205-.722v-.385h6.496zm-6.352-1.732c.052-.193.116-.382.193-.566a1.733 1.733 0 011.576-1.082c.355-.034.713.015 1.046.144a1.78 1.78 0 011.13 1.444v.252l-3.945.036a2.122 2.122 0 010-.228zm4.415-6.015h-5.004v1.444l5.004-.012V6.31z"/>
</svg>
