<svg xmlns="http://www.w3.org/2000/svg" width="24" height="24" fill="none" viewBox="0 0 24 24">
  <path fill="#B3B3B3" d="M14.446 14.388A6.991 6.991 0 019 17a6.983 6.983 0 01-5.449-2.61A2.99 2.99 0 002 17v1a3.003 3.003 0 003 3h8a3.003 3.003 0 003-3v-1a2.99 2.99 0 00-1.554-2.612zM9 11a1 1 0 100-2 1 1 0 000 2z"/>
  <path fill="#CCC" d="M9 3a7 7 0 000 14 7.008 7.008 0 007-7 7 7 0 00-7-7zm0 8a1 1 0 110-2 1 1 0 010 2z"/>
  <path fill="#B3B3B3" d="M19 10a2 2 0 100-4 2 2 0 000 4z"/>
  <path fill="#818181" d="M20.579 9.214A1.99 1.99 0 0119 10c-.095 0-.187-.015-.279-.028.131.361.226.737.26 1.124a4.49 4.49 0 01-3.229 4.716c.158.365.247.766.248 1.188v.814a6.486 6.486 0 002.648-1.313 6.49 6.49 0 001.931-7.287z"/>
</svg>
