<svg xmlns="http://www.w3.org/2000/svg" width="24" height="24" fill="none" viewBox="0 0 24 24">
  <path fill="#B3B3B3" d="M18 20V3a1 1 0 00-1.497-.867L13.5 3.853l-3.003-1.72a1 1 0 00-.994 0L6.5 3.853l-3.003-1.72A1 1 0 002 3v17a2 2 0 002 2h16a2 2 0 01-2-2z"/>
  <path fill="#818181" d="M21.999 14v6a2 2 0 11-4 0v-8h2a2 2 0 012 2zM10.5 16.5H8a1 1 0 110-2h2.5a.5.5 0 000-1h-1a2.5 2.5 0 010-5H12a1 1 0 110 2H9.5a.5.5 0 000 1h1a2.5 2.5 0 010 5z"/>
  <path fill="#818181" d="M10 10.5a1 1 0 01-1-.999V8a1 1 0 112 0v1.5a1 1 0 01-.999 1H10zm0 7.5a1 1 0 01-1-.999V15.5a1 1 0 112 0V17a1 1 0 01-.999 1H10z"/>
</svg>
