<svg xmlns="http://www.w3.org/2000/svg" width="24" height="24" fill="none" viewBox="0 0 24 24">
  <path fill="#B3B3B3" fill-rule="evenodd" d="M18.333 10.922l-.11-.222-.178-.14c-.235-.184-1.423.011-1.742-.278-.227-.209-.263-.584-.33-1.09a3.155 3.155 0 00-.362-1.367 4.46 4.46 0 00-3.12-2.2H9.667a4.053 4.053 0 00-4.042 4.03v4.695a4.05 4.05 0 004.042 4.025h4.639a4.051 4.051 0 004.038-4.022l.02-2.675.005-.579-.036-.177zM9.718 8.917h2.24a.77.77 0 010 1.541h-2.24a.77.77 0 110-1.541zm4.55 6.125h-4.55a.75.75 0 110-1.5h4.55a.75.75 0 110 1.5z" clip-rule="evenodd"/>
  <path fill="#818181" d="M14.267 13.542H9.72a.75.75 0 100 1.5h4.586a.75.75 0 10-.038-1.5zM9.72 10.458h2.238a.77.77 0 000-1.541H9.718a.77.77 0 100 1.541z"/>
  <path fill="#818181" d="M19.5 2h-15A2.5 2.5 0 002 4.5v15A2.5 2.5 0 004.5 22h15a2.5 2.5 0 002.5-2.5v-15A2.5 2.5 0 0019.5 2zm-1.136 9.678l-.02 2.675a4.051 4.051 0 01-4.038 4.022h-4.64a4.05 4.05 0 01-4.041-4.025V9.656a4.053 4.053 0 014.042-4.031h2.824a4.46 4.46 0 013.12 2.2c.222.422.346.89.362 1.367.067.506.103.881.33 1.09.32.29 1.507.094 1.742.278l.179.14.109.222.036.177-.005.579z"/>
</svg>
