<svg xmlns="http://www.w3.org/2000/svg" width="24" height="24" fill="none" viewBox="0 0 24 24">
  <path fill="#B3B3B3" d="M1.5 16.37v4a.997.997 0 00.993 1H6.5a.997.997 0 001-1v-4h-6zm5-13h-4a1.003 1.003 0 00-1 1v4h6v-4a1.003 1.003 0 00-1-1zm16.262 17.18l-3.864 1.035a1 1 0 01-1.225-.707l-4.14-15.455a1 1 0 01.706-1.225l3.864-1.035a1 1 0 011.225.707l4.14 15.455a1 1 0 01-.706 1.224z"/>
  <path fill="#CCC" d="M7.5 8.37h-6v8h6v-8z"/>
  <path fill="#818181" d="M16.637 17.01l1.035 3.864a.997.997 0 001.225.707l3.864-1.035a.997.997 0 00.709-1.218l-.002-.007-1.035-3.864-5.796 1.553zm1.465-13.85l-3.864 1.034a1.003 1.003 0 00-.707 1.225l1.035 3.864 5.796-1.553-1.035-3.864a1.003 1.003 0 00-1.225-.707z"/>
  <path fill="#CCC" d="M7.5 16.37v4a.997.997 0 00.993 1H12.5a.997.997 0 001-.993V16.37h-6zm5-13h-4a1.003 1.003 0 00-1 1v4h6v-4a1.003 1.003 0 00-1-1z"/>
  <path fill="#B3B3B3" d="M13.5 8.37h-6v8h6v-8z"/>
</svg>
