<svg xmlns="http://www.w3.org/2000/svg" width="24" height="24" fill="none" viewBox="0 0 24 24">
  <path fill="#818181" d="M20 13H4a1 1 0 010-2h16a1 1 0 010 2z"/>
  <path fill="#B3B3B3" d="M12 17a1 1 0 100-2 1 1 0 000 2zM12 21a1 1 0 100-2 1 1 0 000 2zM12 9a1 1 0 100-2 1 1 0 000 2zM12 5a1 1 0 100-2 1 1 0 000 2zM4 17a1 1 0 100-2 1 1 0 000 2zM4 21a1 1 0 100-2 1 1 0 000 2zM4 9a1 1 0 100-2 1 1 0 000 2zM4 5a1 1 0 100-2 1 1 0 000 2zM8 5a1 1 0 100-2 1 1 0 000 2zM16 5a1 1 0 100-2 1 1 0 000 2zM8 21a1 1 0 100-2 1 1 0 000 2zM16 21a1 1 0 100-2 1 1 0 000 2zM20 17a1 1 0 100-2 1 1 0 000 2zM20 21a1 1 0 100-2 1 1 0 000 2zM20 9a1 1 0 100-2 1 1 0 000 2zM20 5a1 1 0 100-2 1 1 0 000 2z"/>
</svg>
