<svg xmlns="http://www.w3.org/2000/svg" width="24" height="24" fill="none" viewBox="0 0 24 24">
  <path fill="#818181" d="M20.5 21a1 1 0 01-1-1V4a1 1 0 012 0v16a1 1 0 01-1 1z"/>
  <path fill="#B3B3B3" d="M16.5 13a1 1 0 100-2 1 1 0 000 2zM12.5 13a1 1 0 100-2 1 1 0 000 2zM8.5 13a1 1 0 100-2 1 1 0 000 2zM4.5 13a1 1 0 100-2 1 1 0 000 2zM16.5 21a1 1 0 100-2 1 1 0 000 2zM12.5 21a1 1 0 100-2 1 1 0 000 2zM8.5 21a1 1 0 100-2 1 1 0 000 2zM4.5 21a1 1 0 100-2 1 1 0 000 2zM4.5 17a1 1 0 100-2 1 1 0 000 2zM4.5 9a1 1 0 100-2 1 1 0 000 2zM12.5 17a1 1 0 100-2 1 1 0 000 2zM12.5 9a1 1 0 100-2 1 1 0 000 2zM16.5 5a1 1 0 100-2 1 1 0 000 2zM12.5 5a1 1 0 100-2 1 1 0 000 2zM8.5 5a1 1 0 100-2 1 1 0 000 2zM4.5 5a1 1 0 100-2 1 1 0 000 2z"/>
</svg>
