<svg xmlns="http://www.w3.org/2000/svg" width="24" height="24" fill="none" viewBox="0 0 24 24">
  <path fill="#818181" d="M20 4.5H4a1 1 0 010-2h16a1 1 0 110 2z"/>
  <path fill="#B3B3B3" d="M12 8.5a1 1 0 100-2 1 1 0 000 2zM12 12.5a1 1 0 100-2 1 1 0 000 2zM12 16.5a1 1 0 100-2 1 1 0 000 2zM12 20.5a1 1 0 100-2 1 1 0 000 2zM20 8.5a1 1 0 100-2 1 1 0 000 2zM20 12.5a1 1 0 100-2 1 1 0 000 2zM20 16.5a1 1 0 100-2 1 1 0 000 2zM20 20.5a1 1 0 100-2 1 1 0 000 2zM16 20.5a1 1 0 100-2 1 1 0 000 2zM8 20.5a1 1 0 100-2 1 1 0 000 2zM16 12.5a1 1 0 100-2 1 1 0 000 2zM8 12.5a1 1 0 100-2 1 1 0 000 2zM4 8.5a1 1 0 100-2 1 1 0 000 2zM4 12.5a1 1 0 100-2 1 1 0 000 2zM4 16.5a1 1 0 100-2 1 1 0 000 2zM4 20.5a1 1 0 100-2 1 1 0 000 2z"/>
</svg>
