<svg xmlns="http://www.w3.org/2000/svg" width="24" height="24" fill="none" viewBox="0 0 24 24">
  <path fill="#818181" d="M19.965 13h-16a1 1 0 010-2h16a1 1 0 010 2z"/>
  <path fill="#818181" d="M11.965 21a1 1 0 01-1-1V4a1 1 0 012 0v16a1 1 0 01-1 1z"/>
  <path fill="#B3B3B3" d="M3.964 17a1 1 0 100-2 1 1 0 000 2zM3.964 21a1 1 0 100-2 1 1 0 000 2zM3.964 9a1 1 0 100-2 1 1 0 000 2zM3.964 5a1 1 0 100-2 1 1 0 000 2zM7.964 5a1 1 0 100-2 1 1 0 000 2zM15.964 5a1 1 0 100-2 1 1 0 000 2zM7.964 21a1 1 0 100-2 1 1 0 000 2zM15.964 21a1 1 0 100-2 1 1 0 000 2zM19.964 17a1 1 0 100-2 1 1 0 000 2zM19.964 21a1 1 0 100-2 1 1 0 000 2zM19.964 9a1 1 0 100-2 1 1 0 000 2zM19.964 5a1 1 0 100-2 1 1 0 000 2z"/>
</svg>
