<svg xmlns="http://www.w3.org/2000/svg" width="24" height="24" fill="none" viewBox="0 0 24 24">
  <path fill="#CCC" d="M20.23 7.24L12 12 3.77 7.24a1.98 1.98 0 01.7-.71L11 2.76c.62-.35 1.38-.35 2 0l6.53 3.77c.29.173.531.418.7.71z"/>
  <path fill="#B3B3B3" d="M12 12v9.5c-.315 0-.626-.072-.91-.21L4.5 17.48a2.003 2.003 0 01-1-1.73v-7.5a2.06 2.06 0 01.27-1.01L12 12z"/>
  <path fill="#818181" d="M20.5 8.25v7.5a2.003 2.003 0 01-1 1.73l-6.62 3.82c-.275.13-.576.198-.88.2V12l8.23-4.76c.175.308.268.656.27 1.01z"/>
</svg>
