<svg xmlns="http://www.w3.org/2000/svg" width="24" height="24" fill="none" viewBox="0 0 24 24">
  <path fill="#818181" d="M22 11a2.002 2.002 0 01-2-2V6a4.004 4.004 0 00-4-4 1 1 0 100 2 2.002 2.002 0 012 2v3a3.974 3.974 0 001.382 3A3.975 3.975 0 0018 15v3a2.002 2.002 0 01-2 2 1 1 0 000 2 4.004 4.004 0 004-4v-3a2.002 2.002 0 012-2 1 1 0 000-2zM6 9V6a2.002 2.002 0 012-2 1 1 0 000-2 4.004 4.004 0 00-4 4v3a2.002 2.002 0 01-2 2 1 1 0 000 2 2.002 2.002 0 012 2v3a4.004 4.004 0 004 4 1 1 0 000-2 2.002 2.002 0 01-2-2v-3a3.975 3.975 0 00-1.382-3A3.975 3.975 0 006 9z"/>
</svg>
