<svg xmlns="http://www.w3.org/2000/svg" width="24" height="24" fill="none" viewBox="0 0 24 24">
  <path fill="#B3B3B3" d="M8.02 5.28A1.977 1.977 0 007 5a2.006 2.006 0 00-2 2c-.002.384.11.76.32 1.08.17.27.403.493.68.65l-.68-.65A3 3 0 006 14l-1.04-.19a2.998 2.998 0 003.97 4.49L8 19a2 2 0 004 0V5a1.998 1.998 0 00-3.319-1.504A2 2 0 008.268 6l-.248-.72z"/>
  <path fill="#B3B3B3" d="M15.98 5.28c.308-.184.66-.281 1.02-.28a2.006 2.006 0 012 2c.002.384-.11.76-.32 1.08-.17.27-.403.493-.68.65l.68-.65A3 3 0 0118 14l1.04-.19a2.998 2.998 0 01-3.97 4.49l.93.7a2 2 0 01-4 0V5a2 2 0 113.732 1l.248-.72z"/>
  <path fill="#818181" d="M12 18a1 1 0 01-1-1 1.972 1.972 0 00-1.323-1.873 1 1 0 11.646-1.893A3.971 3.971 0 0113 17a1 1 0 01-1 1zm0-5a1 1 0 01-1-1 1.972 1.972 0 00-1.323-1.873 1 1 0 11.646-1.893A3.972 3.972 0 0113 12a1 1 0 01-1 1z"/>
  <path fill="#818181" d="M12 18a1 1 0 01-1-1 3.971 3.971 0 012.677-3.766 1 1 0 11.646 1.893A1.971 1.971 0 0013 17a1 1 0 01-1 1zm0-5a1 1 0 01-1-1 3.972 3.972 0 012.677-3.766 1 1 0 11.646 1.893A1.971 1.971 0 0013 12a1 1 0 01-1 1z"/>
  <path fill="#818181" d="M10 22a3.006 3.006 0 01-2.83-2.003 3.997 3.997 0 01-3.689-5.894 3.996 3.996 0 01.562-6.592A3.002 3.002 0 017.17 4.005 3 3 0 0113 5v14a3.004 3.004 0 01-3 3zm-.904-2.573A1 1 0 0011 19V5a1 1 0 10-1.998.06l.211.614a1 1 0 01-1.81.826 2.968 2.968 0 01-.226-.484A1.02 1.02 0 006 7a.959.959 0 00.108.45l.583.557a1 1 0 01-1.188 1.59 2.93 2.93 0 01-.48-.341 1.996 1.996 0 00.21 3.587l.947.173A1 1 0 016 15c-.232 0-.463-.021-.691-.062A1.996 1.996 0 007 18c.395 0 .782-.117 1.111-.335l.218-.164a1 1 0 011.241 1.567c-.095.08-.193.154-.295.224l-.18.135z"/>
  <path fill="#818181" d="M14 22a3.004 3.004 0 01-3-3V5a3 3 0 115.598 1.5 1 1 0 01-1.732-1A1 1 0 1013 5v14a1 1 0 002 0 1 1 0 012 0 3.004 3.004 0 01-3 3z"/>
  <path fill="#818181" d="M18 15a1 1 0 010-2 2.013 2.013 0 002-2 1.991 1.991 0 00-1.547-1.946 1 1 0 01.454-1.948A4 4 0 0118 15z"/>
  <path fill="#818181" d="M17 20a4.022 4.022 0 01-2.57-.932 1 1 0 111.28-1.536A2.003 2.003 0 0019 16a1.974 1.974 0 00-.635-1.453 1 1 0 111.35-1.474A3.993 3.993 0 0117 20zm1.001-10.27a1 1 0 01-.498-1.868.943.943 0 00.331-.316A.971.971 0 0018 7a1.001 1.001 0 00-1.506-.862 1 1 0 11-1.028-1.716 2.998 2.998 0 014.05 4.206 2.903 2.903 0 01-1.02.97.992.992 0 01-.495.132z"/>
</svg>
