<svg xmlns="http://www.w3.org/2000/svg" width="24" height="24" fill="none" viewBox="0 0 24 24">
  <path fill="#818181" d="M12 17.499a5.5 5.5 0 115.5-5.5 5.506 5.506 0 01-5.5 5.5z"/>
  <path fill="#B3B3B3" d="M12 5a1 1 0 01-1-1V3a1 1 0 012 0v1a1 1 0 01-1 1zm0 17a1 1 0 01-1-1v-1a1 1 0 012 0v1a1 1 0 01-1 1zm9-9h-1a1 1 0 010-2h1a1 1 0 010 2zM4 13H3a1 1 0 010-2h1a1 1 0 010 2zm14.364 6.364a.998.998 0 01-.707-.293l-.707-.707a1 1 0 011.414-1.414l.707.707a1 1 0 01-.707 1.707zM6.344 7.343a.997.997 0 01-.708-.293l-.707-.707a1 1 0 011.414-1.414l.707.707a1 1 0 01-.707 1.707zm-.708 12.021a1.001 1.001 0 01-.707-1.707l.707-.707a1 1 0 111.414 1.414l-.707.707a.997.997 0 01-.707.293zm12.02-12.021a1 1 0 01-.706-1.707l.707-.707a1 1 0 011.414 1.414l-.707.707a.996.996 0 01-.707.293z"/>
</svg>
