<svg xmlns="http://www.w3.org/2000/svg" width="24" height="24" fill="none" viewBox="0 0 24 24">
  <path fill="#B3B3B3" d="M12 22a.998.998 0 01-.707-.293L8.95 19.364H5.636a1.001 1.001 0 01-1-1V15.05l-2.343-2.343a.999.999 0 010-1.414L4.636 8.95V5.636a1 1 0 011-1H8.95l2.343-2.343a1 1 0 011.414 0l2.343 2.343h3.314a1 1 0 011 1V8.95l2.343 2.343a1 1 0 010 1.414l-2.343 2.343v3.314a.999.999 0 01-1 1H15.05l-2.343 2.343A.999.999 0 0112 22z"/>
  <path fill="#818181" d="M14 11h-1v-1a1 1 0 00-2 0v1h-1a1 1 0 000 2h1v1a1 1 0 002 0v-1h1a1 1 0 000-2z"/>
</svg>
