<svg xmlns="http://www.w3.org/2000/svg" width="24" height="24" fill="none" viewBox="0 0 24 24">
  <path fill="#B3B3B3" d="M21 14.007H3a1 1 0 00-1 1v6a1 1 0 001 1h18a1 1 0 001-1v-6a1 1 0 00-.999-1z"/>
  <path fill="#CCC" d="M3 14.007h7V8.993a1 1 0 00-1-1H3a1 1 0 00-1 1v6l.002.007A1 1 0 013 14.007z"/>
  <path fill="#818181" d="M15 18.007a1 1 0 01-1-1v-14a1 1 0 112 0v14a1 1 0 01-.999 1z"/>
  <path fill="#818181" d="M18.002 6.993a.997.997 0 01-.707-.293l-2.293-2.293L12.71 6.7a1 1 0 11-1.414-1.414l3-3a1 1 0 011.414 0l3 3a1 1 0 01-.707 1.707z"/>
</svg>
