<svg xmlns="http://www.w3.org/2000/svg" width="24" height="24" fill="none" viewBox="0 0 24 24">
  <path fill="#B3B3B3" d="M12 22a7.008 7.008 0 01-7-7v-4a5.006 5.006 0 015-5h4a5.006 5.006 0 015 5v4a7.009 7.009 0 01-7 7z"/>
  <path fill="#CCC" d="M10 6h4c.696.001 1.358.146 1.96.403.016-.147.04-.292.04-.44A4 4 0 008 6c0 .136.025.27.039.404A4.986 4.986 0 019.999 6z"/>
  <path fill="#818181" d="M18.79 9.648C20.682 8.927 22.008 7.112 22 5a1 1 0 10-2 0 2.978 2.978 0 01-2.134 2.869c.42.519.737 1.118.924 1.779zm-13.58 0a4.96 4.96 0 01.924-1.78A2.977 2.977 0 014 5a1 1 0 10-2 0c-.008 2.112 1.318 3.927 3.21 4.648zM3 14h2v-2H3a1 1 0 100 2zm18-2h-2v2h2a1 1 0 100-2zm-2.139 4.38a6.957 6.957 0 01-.672 1.88A3.009 3.009 0 0120 21v.001A1 1 0 0021 22h.001A1 1 0 0022 21a5.024 5.024 0 00-3.139-4.62zm-13.722 0A5.024 5.024 0 002 21v.001A1 1 0 003 22h.001A1 1 0 004 21a3.009 3.009 0 011.811-2.74 6.952 6.952 0 01-.672-1.88zM11 21.92a6.306 6.306 0 002 0V6h-2v15.92z"/>
</svg>
