<svg xmlns="http://www.w3.org/2000/svg" width="24" height="24" fill="none" viewBox="0 0 24 24">
  <path fill="#818181" d="M12 3a9 9 0 100 18 9 9 0 000-18zm0 16a7 7 0 110-14 7 7 0 010 14z"/>
  <path fill="#B3B3B3" d="M12 5a7 7 0 100 14 7 7 0 000-14zm0 12a5 5 0 110-10 5 5 0 010 10z"/>
  <path fill="#B3B3B3" d="M12 15a3 3 0 100-6 3 3 0 000 6z"/>
  <path fill="#818181" d="M12 7a5 5 0 100 10 5 5 0 000-10zm0 8a3 3 0 110-6 3 3 0 010 6z"/>
  <path fill="#818181" d="M12 13a1 1 0 100-2 1 1 0 000 2z"/>
</svg>
