<svg xmlns="http://www.w3.org/2000/svg" width="24" height="24" fill="none" viewBox="0 0 24 24">
  <path fill="#B3B3B3" d="M20.5 13h-16a1 1 0 01-1-1V5a3.003 3.003 0 013-3h12a3.003 3.003 0 013 3v7a1 1 0 01-1 1z"/>
  <path fill="#CCC" d="M20.5 13h-16a1 1 0 01-1-1v5a3.003 3.003 0 003 3h12a3.003 3.003 0 003-3v-5a1 1 0 01-1 1z"/>
  <path fill="#818181" d="M6.5 20c-.353 0-.686-.073-1-.185V21a1 1 0 102 0v-1h-1zm12 0h-1v1a1 1 0 102 0v-1.185a2.978 2.978 0 01-1 .185zm-10-3a.962.962 0 01-.71-.3.951.951 0 01-.29-.7c.002-.067.008-.134.02-.2a.633.633 0 01.06-.18.762.762 0 01.09-.18l.12-.15a1.55 1.55 0 01.15-.12.742.742 0 01.18-.09.624.624 0 01.18-.06.956.956 0 01.58.06c.122.048.234.12.33.21l.12.15a.762.762 0 01.09.18.65.65 0 01.06.18A1.007 1.007 0 018.5 17zm8 0a.962.962 0 01-.71-.3.992.992 0 01-.27-.9.631.631 0 01.06-.18.76.76 0 01.09-.18l.12-.15c.097-.088.209-.16.33-.21.243-.1.516-.1.76 0 .121.05.233.122.33.21l.12.15a.764.764 0 01.09.18.647.647 0 01.06.18 1.007 1.007 0 01-.98 1.2zm-3-10h-2a1 1 0 110-2h2a1 1 0 110 2z"/>
</svg>
