<svg xmlns="http://www.w3.org/2000/svg" width="24" height="24" fill="none" viewBox="0 0 24 24">
  <path fill="#B3B3B3" d="M19.89 9.89H1V6.5a3.009 3.009 0 013-3h11.56a2.978 2.978 0 012.84 2.05l1.32 3.95.12.36.05.03z"/>
  <path fill="#CCC" d="M22.55 11.67l-.25-.17-2.41-1.61H1v6.61c.002.552.448.998 1 1h20a1.003 1.003 0 001-1v-4a.995.995 0 00-.45-.83z"/>
  <path fill="#818181" d="M19.89 9.89H14V3.5h1.56a2.978 2.978 0 012.84 2.05l1.32 3.95.12.36.05.03zM6 20.5a3 3 0 110-6 3 3 0 010 6zm12 0a3 3 0 110-6 3 3 0 010 6z"/>
</svg>
