<svg xmlns="http://www.w3.org/2000/svg" width="24" height="24" fill="none" viewBox="0 0 24 24">
  <path fill="#B3B3B3" d="M18.5 2h-12a3.003 3.003 0 00-3 3v12a3.003 3.003 0 003 3h12a3.003 3.003 0 003-3V5a3.003 3.003 0 00-3-3zm-7 11h-5a1 1 0 01-1-1V8a1 1 0 011-1h5v6zm8-1a1 1 0 01-1 1h-5V7h5a1 1 0 011 1v4z"/>
  <path fill="#818181" d="M18.5 20h-1v1a1 1 0 002 0v-1.185a2.978 2.978 0 01-1 .185zm-12 0c-.353 0-.686-.073-1-.185V21a1 1 0 002 0v-1h-1zm2-3a1.038 1.038 0 01-.71-.3.951.951 0 01-.29-.7c.002-.067.008-.134.02-.2a.633.633 0 01.06-.18.762.762 0 01.09-.18c.037-.053.077-.103.12-.15.24-.236.58-.337.91-.27.062.01.123.03.18.06a.74.74 0 01.18.09c.052.037.102.077.15.12.043.047.083.097.12.15a.763.763 0 01.09.18.648.648 0 01.06.18A1.007 1.007 0 018.5 17zm8 0a1.038 1.038 0 01-.71-.3.951.951 0 01-.29-.7c.002-.067.008-.134.02-.2a.631.631 0 01.06-.18.76.76 0 01.09-.18 1.54 1.54 0 01.12-.15c.24-.236.58-.337.91-.27.063.01.123.03.18.06a.74.74 0 01.18.09c.052.037.102.077.15.12.043.047.083.097.12.15a.764.764 0 01.09.18.648.648 0 01.06.18 1.007 1.007 0 01-.98 1.2z"/>
  <path fill="#CCC" d="M11.5 7h-5a1 1 0 00-1 1v4a1 1 0 001 1h5V7zm7 0h-5v6h5a1 1 0 001-1V8a1 1 0 00-1-1z"/>
</svg>
