<svg xmlns="http://www.w3.org/2000/svg" width="24" height="24" fill="none" viewBox="0 0 24 24">
  <path fill="#CCC" d="M16 11H8a1 1 0 01-1-.999V6a1 1 0 01.999-1H16a1 1 0 011 .999V10a1 1 0 01-.999 1H16z"/>
  <path fill="#B3B3B3" d="M18 2H6a2 2 0 00-2 2v16a2 2 0 002 2h12a2 2 0 002-2V4a2 2 0 00-2-2zm-1 4v4a1 1 0 01-.999 1H8a1 1 0 01-1-.999V6a1 1 0 01.999-1H16a1 1 0 011 .999V6z"/>
  <path fill="#818181" d="M8 15a1 1 0 100-2 1 1 0 000 2zM8 19a1 1 0 100-2 1 1 0 000 2zM12 19a1 1 0 100-2 1 1 0 000 2zM16 19a1 1 0 100-2 1 1 0 000 2zM16 15a1 1 0 100-2 1 1 0 000 2zM12 15a1 1 0 100-2 1 1 0 000 2z"/>
</svg>
