<svg xmlns="http://www.w3.org/2000/svg" width="24" height="24" fill="none" viewBox="0 0 24 24">
  <path fill="#B3B3B3" d="M12 12H2V5a3 3 0 013-3h7v10z"/>
  <path fill="#CCC" d="M22 12H12V2h7a3 3 0 013 3v7zM12 22H5a3 3 0 01-3-3v-7h10v10z"/>
  <path fill="#B3B3B3" d="M19 22h-7V12h10v7a3 3 0 01-3 3z"/>
  <path fill="#818181" d="M8.5 6H8v-.5a1 1 0 00-2 0V6h-.5a1 1 0 000 2H6v.5a1 1 0 102 0V8h.5a1 1 0 100-2zm10 2h-3a1 1 0 110-2h3a1 1 0 110 2zm0 8.5h-3a1 1 0 110-2h3a1 1 0 110 2zm0 3h-3a1 1 0 110-2h3a1 1 0 110 2zM8.414 17l.707-.707a1 1 0 10-1.414-1.414L7 15.586l-.707-.707a1 1 0 00-1.414 1.414l.707.707-.707.707a1 1 0 101.414 1.414L7 18.414l.707.707a1 1 0 001.414-1.414L8.414 17z"/>
</svg>
