<svg xmlns="http://www.w3.org/2000/svg" width="24" height="24" fill="none" viewBox="0 0 24 24">
  <path fill="#B3B3B3" d="M22 9H2V6a3 3 0 013-3h14a3 3 0 013 3v3z"/>
  <path fill="#CCC" d="M2 19a3.003 3.003 0 003 3h14a3.003 3.003 0 003-3V9H2v10z"/>
  <path fill="#818181" d="M7 7a1 1 0 01-1-1V2a1 1 0 012 0v4a1 1 0 01-1 1zm10 0a1 1 0 01-1-1V2a1 1 0 112 0v4a1 1 0 01-1 1zM7 14a1 1 0 100-2 1 1 0 000 2zM17 14a1 1 0 100-2 1 1 0 000 2zM12 14a1 1 0 100-2 1 1 0 000 2zM12 18a1 1 0 100-2 1 1 0 000 2zM7 18a1 1 0 100-2 1 1 0 000 2zM17 18a1 1 0 100-2 1 1 0 000 2z"/>
</svg>
