<svg xmlns="http://www.w3.org/2000/svg" width="24" height="24" fill="none" viewBox="0 0 24 24">
  <path fill="#9A9A9A" d="M12 16.5a4 4 0 110-8 4 4 0 010 8z"/>
  <path fill="#B3B3B3" d="M19 6.5h-1.28l-.315-.95a2.997 2.997 0 00-2.846-2.05H9.44a2.997 2.997 0 00-2.846 2.05l-.316.95H5a3.003 3.003 0 00-3 3v8a3.003 3.003 0 003 3h14a3.003 3.003 0 003-3v-8a3.003 3.003 0 00-3-3zm-7 10a4 4 0 110-8 4 4 0 010 8z"/>
  <path fill="#818181" d="M21 22a.997.997 0 01-.707-.293l-18-18a1 1 0 011.414-1.414l18 18A1 1 0 0121 22z"/>
</svg>
