<svg xmlns="http://www.w3.org/2000/svg" width="24" height="24" fill="none" viewBox="0 0 24 24">
  <path fill="#B3B3B3" d="M18 22.5H4a3.003 3.003 0 01-3-3v-8a3.003 3.003 0 013-3h1.28l.315-.95A2.997 2.997 0 018.441 5.5h5.118a2.997 2.997 0 012.846 2.05l.316.95H18a3.003 3.003 0 013 3v8a3.004 3.004 0 01-3 3z"/>
  <path fill="#818181" d="M11 18.5a4 4 0 110-8 4 4 0 010 8zm11-15h-1v-1a1 1 0 00-2 0v1h-1a1 1 0 100 2h1v1a1 1 0 002 0v-1h1a1 1 0 100-2z"/>
  <path fill="#818181" d="M11 18.5a4 4 0 110-8 4 4 0 010 8zm0-6a2 2 0 100 4 2 2 0 000-4z"/>
</svg>
