<svg xmlns="http://www.w3.org/2000/svg" width="24" height="24" fill="none" viewBox="0 0 24 24">
  <path fill="#818181" d="M12 16a4 4 0 110-8 4 4 0 010 8z"/>
  <path fill="#B3B3B3" d="M8 22H5a3.003 3.003 0 01-3-3v-3a1 1 0 112 0v3a1.001 1.001 0 001 1h3a1 1 0 010 2zM3 9a1 1 0 01-1-1V5a3.003 3.003 0 013-3h3a1 1 0 010 2H5a1 1 0 00-1 1v3a1 1 0 01-1 1zm18 0a1 1 0 01-1-1V5a1.001 1.001 0 00-1-1h-3a1 1 0 110-2h3a3.003 3.003 0 013 3v3a1 1 0 01-1 1zm-2 13h-3a1 1 0 010-2h3a1.001 1.001 0 001-1v-3a1 1 0 012 0v3a3.004 3.004 0 01-3 3z"/>
</svg>
