<svg xmlns="http://www.w3.org/2000/svg" width="24" height="24" fill="none" viewBox="0 0 24 24">
  <path fill="#B3B3B3" d="M19 18H5a3 3 0 01-3-3v-2a3 3 0 013-3h14a3 3 0 013 3v2a3 3 0 01-3 3z"/>
  <path fill="#818181" d="M19 18h-1v1a1 1 0 002 0v-1.184A2.972 2.972 0 0119 18zM5 18c-.353 0-.686-.072-1-.184V19a1 1 0 002 0v-1H5zm8-3h-2a1 1 0 110-2h2a1 1 0 110 2zm4 0a.99.99 0 01-.38-.07 1.185 1.185 0 01-.33-.22A.99.99 0 0116 14a1.05 1.05 0 01.29-.71c.047-.043.098-.083.15-.12a.746.746 0 01.18-.09.624.624 0 01.18-.06.955.955 0 01.58.06.937.937 0 01.33.21c.182.192.286.445.29.71a.838.838 0 01-.08.38 1.172 1.172 0 01-.21.33.992.992 0 01-.71.29zM7 15a.99.99 0 01-.38-.07A.99.99 0 016 14a1.05 1.05 0 01.29-.71 1.55 1.55 0 01.15-.12.746.746 0 01.18-.09.624.624 0 01.18-.06.956.956 0 01.58.06.938.938 0 01.33.21c.182.192.286.445.29.71a.838.838 0 01-.08.38 1.172 1.172 0 01-.21.33A.992.992 0 017 15z"/>
  <path fill="#CCC" d="M10 10H5l1.54-4.63A2.01 2.01 0 018.44 4h7.12a2.01 2.01 0 011.9 1.37L19 10h-9z"/>
  <path fill="#818181" d="M21 22a.997.997 0 01-.707-.293l-18-18a1 1 0 011.414-1.414l18 18A1 1 0 0121 22z"/>
</svg>
