<svg xmlns="http://www.w3.org/2000/svg" width="24" height="24" fill="none" viewBox="0 0 24 24">
  <path fill="#CCC" d="M19 21H5a3.003 3.003 0 01-3-3v-4a3.003 3.003 0 013-3h14a3.003 3.003 0 013 3v4a3.003 3.003 0 01-3 3z"/>
  <path fill="#818181" d="M5 21c-.353 0-.686-.073-1-.185v1.186A1 1 0 005 23h.001A1 1 0 006 22v-1H5zm14 0h-1v1.001A1 1 0 0019 23h.001A1 1 0 0020 22v-1.185A2.978 2.978 0 0119 21z"/>
  <path fill="#B3B3B3" d="M5 11h14c.263 0 .514.045.757.109l-1.353-4.058A2.996 2.996 0 0015.56 5H8.44a2.996 2.996 0 00-2.845 2.05L4.243 11.11C4.486 11.045 4.737 11 5 11z"/>
  <path fill="#818181" d="M7 17a.961.961 0 01-.71-.3A.951.951 0 016 16a1.39 1.39 0 01.02-.2.65.65 0 01.06-.18.743.743 0 01.09-.18c.037-.053.077-.103.12-.15.095-.09.208-.162.33-.21.373-.152.8-.07 1.09.21l.12.15a.778.778 0 01.09.18c.029.057.049.117.06.18A1.007 1.007 0 017 17zm10 0a1 1 0 01-.38-.08.911.911 0 01-.33-.22.951.951 0 01-.29-.7 1.4 1.4 0 01.02-.2.65.65 0 01.06-.18.745.745 0 01.09-.18c.037-.053.077-.103.12-.15a.998.998 0 011.09-.21.732.732 0 01.18.09c.052.037.102.077.15.12l.12.15a.778.778 0 01.09.18.618.618 0 01.06.18A1.007 1.007 0 0117 17zm-4 0h-2a1 1 0 110-2h2a1 1 0 110 2zM7.5 4a1 1 0 01-.707-1.707l1-1a1 1 0 111.414 1.414l-1 1A.997.997 0 017.5 4zm4 0a1 1 0 01-.707-1.707l1-1a1 1 0 111.414 1.414l-1 1A.997.997 0 0111.5 4zm4 0a1 1 0 01-.707-1.707l1-1a1 1 0 111.414 1.414l-1 1A.997.997 0 0115.5 4z"/>
</svg>
