<svg xmlns="http://www.w3.org/2000/svg" width="24" height="24" fill="none" viewBox="0 0 24 24">
  <path fill="#818181" d="M15.97 15.5a2 2 0 100-4 2 2 0 000 4z"/>
  <path fill="#CCC" d="M13.97 13.5c0-.504.192-.959.5-1.31-.367-.42-.9-.69-1.5-.69a2 2 0 100 4c.6 0 1.133-.27 1.5-.69a1.983 1.983 0 01-.5-1.31z"/>
  <path fill="#B3B3B3" d="M18.97 5.5h-14a2 2 0 00-2 2v9a2 2 0 002 2h14a2 2 0 002-2v-9a2 2 0 00-2-2zm-3 10c-.6 0-1.133-.27-1.5-.69-.367.42-.9.69-1.5.69a2 2 0 110-4c.6 0 1.133.27 1.5.69.367-.42.9-.69 1.5-.69a2 2 0 110 4z"/>
</svg>
