<svg xmlns="http://www.w3.org/2000/svg" width="24" height="24" fill="none" viewBox="0 0 24 24">
  <path fill="#B3B3B3" d="M7 16a1.5 1.5 0 100-3 1.5 1.5 0 000 3zM11.5 11.583a1.5 1.5 0 100-3 1.5 1.5 0 000 3zM14.833 14.75a1.5 1.5 0 100-3 1.5 1.5 0 000 3z"/>
  <path fill="#CCC" d="M14.755 11.758L12.99 9.994c.002.03.009.059.009.089 0 .75-.552 1.366-1.271 1.477l1.612 1.612c.04-.765.649-1.374 1.414-1.414z"/>
  <path fill="#B3B3B3" d="M20 9.5a1.5 1.5 0 100-3 1.5 1.5 0 000 3z"/>
  <path fill="#CCC" d="M18.515 8.154l-3.604 3.604c.765.04 1.374.649 1.414 1.414L19.997 9.5a1.495 1.495 0 01-1.482-1.346zM10 10.083c0-.03.007-.059.009-.089L7.003 13a1.495 1.495 0 011.482 1.346l2.786-2.786A1.496 1.496 0 0110 10.083z"/>
  <path fill="#818181" d="M20.5 22h-18a1 1 0 01-1-.999V3a1 1 0 012 0v17h17a1 1 0 110 2z"/>
</svg>
