<svg xmlns="http://www.w3.org/2000/svg" width="24" height="24" fill="none" viewBox="0 0 24 24">
  <path fill="#B3B3B3" d="M18 2H6a3.003 3.003 0 00-3 3v11a3.003 3.003 0 003 3h2.586l2.707 2.707a.997.997 0 001.357.052L15.87 19H18a3.003 3.003 0 003-3V5a3.003 3.003 0 00-3-3zm-6 10.285a3 3 0 110-5.999 3 3 0 010 6z"/>
  <path fill="#CCC" d="M12 12.285a3 3 0 113-2.999 3.003 3.003 0 01-3 3z"/>
  <path fill="#818181" d="M16.6 13.607a4.985 4.985 0 00-2.282-2.441A2.984 2.984 0 0112 12.285a2.98 2.98 0 01-2.32-1.12 4.954 4.954 0 00-2.28 2.441A1 1 0 008.32 15h7.36a1 1 0 00.92-1.393z"/>
</svg>
