<svg xmlns="http://www.w3.org/2000/svg" width="24" height="24" fill="none" viewBox="0 0 24 24">
  <path fill="#B3B3B3" d="M12 22H4a1 1 0 01-.707-1.707l1.675-1.675A9 9 0 1112 22z"/>
  <path fill="#818181" d="M20 11a.998.998 0 01-1-1V6a1 1 0 012 0v4a.998.998 0 01-1 1zm0-7a.99.99 0 01-.71-.29 1.16 1.16 0 01-.21-.33A1 1 0 0119 3c.001-.265.105-.52.29-.71a1.034 1.034 0 011.09-.21.734.734 0 01.18.09c.052.037.102.077.15.12.184.19.288.445.29.71a.999.999 0 01-.08.38 1.16 1.16 0 01-.21.33A.994.994 0 0120 4z"/>
</svg>
