<svg xmlns="http://www.w3.org/2000/svg" width="24" height="24" fill="none" viewBox="0 0 24 24">
  <path fill="#818181" d="M3 13h2v-2H3a1 1 0 100 2zm10-8V3a1 1 0 10-2 0v2h2zM3 9h2V8c0-.353.073-.686.185-1H3a1 1 0 100 2zm16-1v1h2a1 1 0 100-2h-2.185c.112.314.185.647.185 1zm-3-3c.352 0 .686.073 1 .185V3a1 1 0 10-2 0v2h1zM8 5h1V3a1 1 0 10-2 0v2.185A2.976 2.976 0 018 5zM5 16v-1H3a1 1 0 100 2h2.185A2.976 2.976 0 015 16zm16-1h-2v1c0 .352-.073.686-.185 1H21a1 1 0 100-2zm0-4h-2v2h2a1 1 0 100-2zm-5 8h-1v2a1 1 0 102 0v-2.185A2.978 2.978 0 0116 19zm-8 0c-.353 0-.686-.073-1-.185V21a1 1 0 102 0v-2H8zm3 0v2a1 1 0 102 0v-2h-2z"/>
  <path fill="#CCC" d="M10 11a1 1 0 100-2 1 1 0 000 2zM14 11a1 1 0 100-2 1 1 0 000 2zM14 15a1 1 0 100-2 1 1 0 000 2zM10 15a1 1 0 100-2 1 1 0 000 2z"/>
  <path fill="#B3B3B3" d="M16 5H8a3.003 3.003 0 00-3 3v8a3.003 3.003 0 003 3h8a3.003 3.003 0 003-3V8a3.003 3.003 0 00-3-3zm-6 10a1 1 0 110-2 1 1 0 010 2zm0-4a1 1 0 110-2 1 1 0 010 2zm4 4a1 1 0 110-2 1 1 0 010 2zm0-4a1 1 0 110-2 1 1 0 010 2z"/>
</svg>
