<svg xmlns="http://www.w3.org/2000/svg" width="24" height="24" fill="none" viewBox="0 0 24 24">
  <path fill="#CCC" d="M9.92 2L2 9.92V7.08L7.08 2h2.84zM16.92 2l-8 8H6.08l8-8h2.84zM21.85 4.07L15.92 10h-2.84l7.52-7.52a2.916 2.916 0 011.25 1.59z"/>
  <path fill="#818181" d="M5 2a2.996 2.996 0 00-3 2.992V7.08L7.08 2H5zM9.92 2L2 9.92V10h4.08l8-8H9.92zM21.85 4.07L15.92 10H22V5a2.83 2.83 0 00-.15-.93zm-1.34-1.66C20.052 2.14 19.53 2 19 2h-2.08l-8 8h4.16l7.52-7.52a.551.551 0 00-.09-.07z"/>
  <path fill="#B3B3B3" d="M2 10v9a3.003 3.003 0 003 3h14a3.003 3.003 0 003-3v-9H2z"/>
</svg>
