<svg xmlns="http://www.w3.org/2000/svg" width="24" height="24" fill="none" viewBox="0 0 24 24">
  <path fill="#B3B3B3" d="M12 22c5.523 0 10-4.477 10-10S17.523 2 12 2 2 6.477 2 12s4.477 10 10 10z"/>
  <path fill="#818181" d="M9 16a3.014 3.014 0 01-3-3v-2a3.003 3.003 0 014.154-2.77c.365.152.696.378.972.662.18.174.334.373.46.59a1 1 0 11-1.711 1.036.915.915 0 00-.144-.194A1.01 1.01 0 008 11v2a.961.961 0 00.287.694 1.008 1.008 0 001.58-.198.999.999 0 111.727 1.008A2.979 2.979 0 019 16zm6 0a3.014 3.014 0 01-3-3v-2a3.003 3.003 0 014.154-2.77c.365.152.696.378.972.662.18.174.334.373.46.59a1 1 0 11-1.711 1.036.918.918 0 00-.143-.194A1.01 1.01 0 0014 11v2a.963.963 0 00.287.694 1.009 1.009 0 001.58-.198.998.998 0 011.83.25 1 1 0 01-.103.758A2.98 2.98 0 0115 16z"/>
</svg>
