<svg xmlns="http://www.w3.org/2000/svg" width="24" height="24" fill="none" viewBox="0 0 24 24">
  <path fill="#B3B3B3" d="M14.666 20H5.5a3.5 3.5 0 01-.937-6.873 5.998 5.998 0 0111.407-1.585A4.329 4.329 0 0114.666 20zM16 7.667h.001a1 1 0 00.999-1V5a1 1 0 10-2 0v1.668a1 1 0 001 .999zm2.358.975c.266 0 .52-.105.707-.293l1.175-1.175a1 1 0 10-1.414-1.414l-1.175 1.175a1 1 0 00.707 1.707z"/>
  <path fill="#B3B3B3" d="M19.065 11.651a1 1 0 00-1.414 0 .987.987 0 00-.28.648 4.313 4.313 0 011.311 1.797l.144.144a1 1 0 001.414-1.414l-1.175-1.175zM21 9h-1.667a1 1 0 100 2H21a1 1 0 100-2zm-8.066-.651a1 1 0 001.414-1.414L13.175 5.76a1 1 0 00-1.414 1.414l1.175 1.175z"/>
  <path fill="#818181" d="M15.955 5.56a4.372 4.372 0 00-4.007 2.627 5.991 5.991 0 014.022 3.355 4.302 4.302 0 012.455 1.998 4.373 4.373 0 00-2.47-7.98z"/>
</svg>
