<svg xmlns="http://www.w3.org/2000/svg" width="24" height="24" fill="none" viewBox="0 0 24 24">
  <path fill="#B3B3B3" d="M18.43 7.732a6.996 6.996 0 00-13.37 1.89A3.994 3.994 0 006 17.5h11a4.986 4.986 0 001.43-9.768z"/>
  <path fill="#818181" d="M12 14.063a1.922 1.922 0 10-2.718 2.719l.68.68L12 19.5l2.719-2.718a1.922 1.922 0 000-2.719 1.922 1.922 0 00-2.719 0z"/>
  <path fill="#818181" d="M12 20.5a.997.997 0 01-.707-.293l-2.718-2.718A2.922 2.922 0 0112 12.835a2.923 2.923 0 013.425 4.654l-2.718 2.718A.996.996 0 0112 20.5zm-1.359-6a.923.923 0 00-.652 1.575L12 18.085l2.011-2.01a.922.922 0 000-1.304.945.945 0 00-1.304-.001.998.998 0 01-1.414 0 .916.916 0 00-.652-.27z"/>
</svg>
