<svg xmlns="http://www.w3.org/2000/svg" width="24" height="24" fill="none" viewBox="0 0 24 24">
  <path fill="#B3B3B3" d="M17 17.9H6c-2.2 0-4-1.8-4-4C2 12 3.3 10.4 5.1 10c.5-3.8 4-6.5 7.9-6 2.4.3 4.5 1.9 5.5 4.2 2.6.8 4.2 3.5 3.4 6.2-.7 2-2.7 3.5-4.9 3.5z"/>
  <path fill="#818181" d="M14.5 17.9h-5c-.6 0-1-.4-1-1s.4-1 1-1h5c.6 0 1 .4 1 1s-.4 1-1 1z"/>
  <path fill="#818181" d="M13.3 20.1c-.4 0-.7-.2-.9-.5l-2.5-4.3c-.3-.5-.1-1.1.4-1.4.5-.3 1.1-.1 1.4.4l2.5 4.3c.3.5.1 1.1-.4 1.4-.2 0-.4.1-.5.1z"/>
  <path fill="#818181" d="M10.7 20.1c-.6 0-1-.4-1-1 0-.2 0-.3.1-.5l2.5-4.3c.3-.5.9-.6 1.4-.4.5.3.6.9.4 1.4l-2.5 4.3c-.2.3-.5.5-.9.5z"/>
</svg>
