<svg xmlns="http://www.w3.org/2000/svg" width="24" height="24" fill="none" viewBox="0 0 24 24">
  <path fill="#CCC" d="M14 16h-4a1 1 0 01-1-1v-2a3 3 0 016 0v2a1 1 0 01-1 1zm-3-2h2v-1a1 1 0 10-2 0v1z"/>
  <path fill="#B3B3B3" d="M12 12a1 1 0 00-1 1v1h2v-1a1 1 0 00-1-1z"/>
  <path fill="#B3B3B3" d="M18.43 7.232a6.996 6.996 0 00-13.37 1.89A3.994 3.994 0 006 17h11a4.986 4.986 0 001.43-9.768zM15 15a1 1 0 01-1 1h-4a1 1 0 01-1-1v-2a3 3 0 116 0v2z"/>
  <path fill="#818181" d="M14 22h-4a3 3 0 01-3-3v-2a3 3 0 013-3h4a3 3 0 013 3v2a3 3 0 01-3 3z"/>
</svg>
