<svg xmlns="http://www.w3.org/2000/svg" width="24" height="24" fill="none" viewBox="0 0 24 24">
  <path fill="#B3B3B3" d="M17 21H6a4 4 0 01-.944-7.888 7 7 0 0113.365-1.896A4.994 4.994 0 0117 21z"/>
  <path fill="#818181" d="M14.09 9.38a.998.998 0 01-.358-.067 4.963 4.963 0 00-3.462 0 1 1 0 01-.717-1.867 6.971 6.971 0 014.897 0 1 1 0 01-.36 1.934zM12.001 13a1 1 0 100-2 1 1 0 000 2z"/>
  <path fill="#818181" d="M10.002 9.536A1 1 0 019.5 7.67a5.082 5.082 0 015 0 1 1 0 11-1 1.732 3.05 3.05 0 00-3 0 .994.994 0 01-.5.134zM16 6.072a.99.99 0 01-.5-.135 7.118 7.118 0 00-7 0 1 1 0 11-1-1.731 9.146 9.146 0 019 0 1 1 0 01-.5 1.866z"/>
</svg>
