<svg xmlns="http://www.w3.org/2000/svg" width="24" height="24" fill="none" viewBox="0 0 24 24">
  <path fill="#B3B3B3" d="M17 16H6a4 4 0 01-.944-7.888 6.998 6.998 0 0113.362-1.897A4.995 4.995 0 0117 16z"/>
  <path fill="#818181" d="M5 20a1 1 0 100-2 1 1 0 000 2zM11 12a1 1 0 100-2 1 1 0 000 2zM16 22a.998.998 0 01-1-1 1.013 1.013 0 00-1-1H9a1 1 0 010-2h5a3.004 3.004 0 013 3 .998.998 0 01-1 1zm3-10h-4a1 1 0 010-2h4a1.013 1.013 0 001-1 1 1 0 012 0 3.004 3.004 0 01-3 3z"/>
  <path fill="#818181" d="M19 20a1 1 0 010-2 1 1 0 000-2h-7a1 1 0 010-2h7a3 3 0 010 6z"/>
</svg>
