<svg xmlns="http://www.w3.org/2000/svg" width="24" height="24" fill="none" viewBox="0 0 24 24">
  <path fill="#B3B3B3" d="M17 16H6a4 4 0 01-.944-7.888 6.998 6.998 0 0113.362-1.897A4.994 4.994 0 0117 16z"/>
  <path fill="#818181" d="M7.454 16a1 1 0 01-.94-1.342l1.092-3a1 1 0 011.88.684l-1.092 3a1 1 0 01-.94.658zm4 0a1 1 0 01-.94-1.342l1.092-3a1 1 0 011.88.684l-1.093 3a1 1 0 01-.939.658zm4 0a1 1 0 01-.94-1.342l1.092-3a1 1 0 111.88.684l-1.093 3a1 1 0 01-.939.658zm-7.636 6a1 1 0 01-.94-1.342l.728-2a1 1 0 011.88.684l-.728 2a1 1 0 01-.94.658zm4 0a1 1 0 01-.94-1.342l.728-2a1 1 0 011.88.684l-.728 2a1 1 0 01-.94.658zm4 0a1 1 0 01-.94-1.342l.728-2a1 1 0 111.88.684l-.728 2a1 1 0 01-.94.658z"/>
</svg>
