<svg xmlns="http://www.w3.org/2000/svg" width="24" height="24" fill="none" viewBox="0 0 24 24">
  <path fill="#B3B3B3" d="M16 5a1 1 0 01-1-1V2a1 1 0 112 0v2a1 1 0 01-1 1zm6 4h-2a1 1 0 110-2h2a1 1 0 010 2zm-3.17-2.83a1 1 0 01-.707-1.707l1.41-1.41a1 1 0 011.414 1.414l-1.41 1.41a.997.997 0 01-.707.293zm-5.66 0a.997.997 0 01-.707-.293l-1.41-1.41a1 1 0 111.411-1.417l.003.003 1.41 1.41a1 1 0 01-.707 1.707zm7.07 7.07a.997.997 0 01-.707-.294l-1.41-1.41a1 1 0 011.414-1.414l1.41 1.41a1 1 0 01-.707 1.707zM13.667 19H4.5a3.5 3.5 0 01-.937-6.873 5.998 5.998 0 0111.407-1.585A4.329 4.329 0 0113.666 19z"/>
  <path fill="#818181" d="M16.009 3.004c-2.491 0-4.54 1.828-4.917 4.213a5.997 5.997 0 013.878 3.325 4.31 4.31 0 012.565 2.191c2.008-.648 3.47-2.51 3.47-4.733a4.996 4.996 0 00-4.996-4.996zM7.5 23a1 1 0 01-1-1v-1a1 1 0 112 0v1a1 1 0 01-1 1zm4-1a1 1 0 01-1-1v-1a1 1 0 112 0v1a1 1 0 01-1 1zm0-5a1 1 0 01-1-1v-1a1 1 0 112 0v1a1 1 0 01-1 1zm-4 1a1 1 0 01-1-1v-1a1 1 0 112 0v1a1 1 0 01-1 1z"/>
</svg>
