<svg xmlns="http://www.w3.org/2000/svg" width="24" height="24" fill="none" viewBox="0 0 24 24">
  <path fill="#B3B3B3" d="M14.667 20H5.5a3.5 3.5 0 01-.936-6.873 5.998 5.998 0 0111.406-1.585A4.329 4.329 0 0114.667 20z"/>
  <path fill="#818181" d="M21.973 9.548a1 1 0 00-1.205-.74 2.778 2.778 0 01-.658.082 3.003 3.003 0 01-3-3 2.78 2.78 0 01.082-.658 1 1 0 00-1.197-1.207 4.966 4.966 0 00-3.83 4.215 5.996 5.996 0 013.805 3.302 4.314 4.314 0 012.542 2.133 4.964 4.964 0 003.463-3.67c.034-.15.034-.307-.002-.457z"/>
</svg>
