<svg xmlns="http://www.w3.org/2000/svg" width="24" height="24" fill="none" viewBox="0 0 24 24">
  <path fill="#B3B3B3" d="M14.667 18H5.5a3.5 3.5 0 01-.936-6.873A5.998 5.998 0 0115.97 9.542 4.329 4.329 0 0114.667 18z"/>
  <path fill="#818181" d="M21.972 7.544a1 1 0 00-1.207-.736 2.734 2.734 0 01-.655.082 3.003 3.003 0 01-3-3 2.78 2.78 0 01.082-.658 1 1 0 00-1.196-1.207 4.965 4.965 0 00-3.83 4.215 5.996 5.996 0 013.804 3.302 4.314 4.314 0 012.542 2.133 4.964 4.964 0 003.463-3.671 1 1 0 00-.003-.46zM12.5 16a1 1 0 01-1-.999V14a1 1 0 112 0v1a1 1 0 01-.999 1H12.5zm-4 1a1 1 0 01-1-.999V15a1 1 0 112 0v1a1 1 0 01-.999 1H8.5zm0 5a1 1 0 01-1-.999V20a1 1 0 112 0v1a1 1 0 01-.999 1H8.5zm4-1a1 1 0 01-1-.999V19a1 1 0 112 0v1a1 1 0 01-.999 1H12.5z"/>
</svg>
