<svg xmlns="http://www.w3.org/2000/svg" width="24" height="24" fill="none" viewBox="0 0 24 24">
  <path fill="#B3B3B3" d="M14.666 18.917H5.5a3.5 3.5 0 01-.937-6.873 5.998 5.998 0 0111.407-1.585 4.329 4.329 0 01-1.304 8.458zM16 6.584a1 1 0 001-1V3.917a1 1 0 10-2 0v1.667a1 1 0 001 1zm2.358.976c.266 0 .52-.106.708-.293L20.24 6.09a1 1 0 00-1.415-1.414L17.65 5.853a1 1 0 00.707 1.707zM21 7.917h-1.666a1 1 0 100 2H21a1 1 0 100-2z"/>
  <path fill="#B3B3B3" d="M19.066 10.568a1 1 0 00-1.407 0 .988.988 0 00-.286.65 4.314 4.314 0 011.31 1.798l.143.142a1 1 0 001.415-1.414l-1.175-1.176zm-6.132-3.301a1 1 0 001.415-1.414l-1.175-1.176A1 1 0 0011.76 6.09l1.175 1.176z"/>
  <path fill="#818181" d="M15.946 4.542a4.368 4.368 0 00-3.974 2.567 5.992 5.992 0 013.998 3.35 4.305 4.305 0 012.48 2.036 4.37 4.37 0 001.87-3.578 4.375 4.375 0 00-4.374-4.375zM12.5 18.917h-5a1 1 0 110-2h5a1 1 0 110 2z"/>
  <path fill="#818181" d="M11.251 21.083c-.358 0-.688-.19-.867-.5l-2.5-4.331a1 1 0 111.732-1l2.5 4.331a1 1 0 01-.865 1.5z"/>
  <path fill="#818181" d="M8.749 21.083a1 1 0 01-.865-1.5l2.5-4.331a1 1 0 011.732 1l-2.5 4.331c-.179.31-.51.5-.867.5z"/>
</svg>
