<svg xmlns="http://www.w3.org/2000/svg" width="24" height="24" fill="none" viewBox="0 0 24 24">
  <path fill="#B3B3B3" d="M18.43 7.232a6.996 6.996 0 00-13.37 1.89A3.994 3.994 0 006 17h11a4.986 4.986 0 001.43-9.768z"/>
  <path fill="#818181" d="M14.5 15a2 2 0 100-4 2 2 0 000 4zM9.5 17.5a2 2 0 100-4 2 2 0 000 4zM14.5 20a2 2 0 100-4 2 2 0 000 4z"/>
  <path fill="#818181" d="M9.18 16.59a1 1 0 01-.418-1.908l4.507-2.073a1 1 0 01.835 1.817L9.598 16.5a1 1 0 01-.417.09z"/>
  <path fill="#818181" d="M13.686 18.664a1 1 0 01-.417-.091L8.762 16.5a1 1 0 11.836-1.818l4.507 2.073a1 1 0 01-.419 1.91z"/>
</svg>
