<svg xmlns="http://www.w3.org/2000/svg" width="24" height="24" fill="none" viewBox="0 0 24 24">
  <path fill="#B3B3B3" d="M18.43 8.232a6.996 6.996 0 00-13.37 1.89A3.994 3.994 0 006 18h11a4.986 4.986 0 001.43-9.768z"/>
  <path fill="#818181" d="M12 17a1 1 0 010-2 1 1 0 10-.866-1.5 1 1 0 11-1.732-1A3 3 0 1112 17zm0 3a1.053 1.053 0 01-.71-.29c-.04-.05-.08-.1-.12-.16a.552.552 0 01-.09-.17.601.601 0 01-.06-.19A1.2 1.2 0 0111 19c.002-.067.009-.134.02-.2a.634.634 0 01.06-.18.566.566 0 01.09-.17c.04-.06.08-.11.12-.16a1.038 1.038 0 011.09-.21c.121.05.233.122.33.21.04.05.08.1.12.16.04.05.07.108.09.17a.651.651 0 01.06.18c.011.066.018.133.02.2a1.248 1.248 0 01-.02.19.62.62 0 01-.06.19.554.554 0 01-.09.17c-.04.06-.08.11-.12.16-.098.088-.21.16-.33.21A1 1 0 0112 20z"/>
</svg>
