<svg xmlns="http://www.w3.org/2000/svg" width="24" height="24" fill="none" viewBox="0 0 24 24">
  <path fill="#B3B3B3" d="M14.666 18H5.5a3.5 3.5 0 01-.937-6.873A5.998 5.998 0 0115.97 9.542 4.329 4.329 0 0114.666 18zM16 5.666a1 1 0 001-1V3a1 1 0 10-2 0v1.666a1 1 0 001 1zm2.358.976c.266 0 .52-.106.708-.293l1.175-1.176a1 1 0 00-1.415-1.414L17.65 4.935a1 1 0 00.707 1.707z"/>
  <path fill="#B3B3B3" d="M12.934 6.349a1 1 0 001.415-1.414l-1.175-1.176a1 1 0 00-1.415 1.414l1.175 1.176zM21 7h-1.666a1 1 0 000 2H21a1 1 0 100-2zm-1.935 2.651a1 1 0 00-1.414 0 .988.988 0 00-.28.648 4.314 4.314 0 011.312 1.797l.143.144a1 1 0 101.414-1.414l-1.175-1.175z"/>
  <path fill="#818181" d="M15.955 3.67a4.365 4.365 0 00-3.953 2.528 5.993 5.993 0 013.968 3.344 4.309 4.309 0 012.502 2.07 4.368 4.368 0 001.858-3.567 4.375 4.375 0 00-4.375-4.375zM12.5 16a.846.846 0 01-.38-.08 1.151 1.151 0 01-.33-.21.99.99 0 01-.29-.71 1.05 1.05 0 01.29-.71 1.033 1.033 0 011.42 0c.182.192.286.445.29.71a.99.99 0 01-1 1zm-4 2a1 1 0 01-.38-.08 1.153 1.153 0 01-.33-.21.991.991 0 01-.21-1.09c.05-.121.121-.233.21-.33a1.033 1.033 0 011.42 0c.088.097.16.209.21.33a.838.838 0 01.08.38.991.991 0 01-.29.71c-.097.088-.209.16-.33.21a1 1 0 01-.38.08zm0 4a.845.845 0 01-.38-.08 1.153 1.153 0 01-.33-.21 1.16 1.16 0 01-.21-.33.946.946 0 010-.76c.05-.121.121-.233.21-.33a.931.931 0 01.33-.21c.373-.152.8-.07 1.09.21.088.097.16.209.21.33a.838.838 0 01.08.38.991.991 0 01-.29.71c-.097.088-.209.16-.33.21a.845.845 0 01-.38.08zm4-2a.99.99 0 01-.92-1.38 1.15 1.15 0 01.21-.33c.29-.28.717-.362 1.09-.21a.937.937 0 01.33.21c.088.097.16.209.21.33a.99.99 0 01-.21 1.09c-.097.088-.209.16-.33.21a1 1 0 01-.38.08z"/>
</svg>
