<svg xmlns="http://www.w3.org/2000/svg" width="24" height="24" fill="none" viewBox="0 0 24 24">
  <path fill="#B3B3B3" d="M14.667 18H5.5a3.5 3.5 0 01-.936-6.873A5.998 5.998 0 0115.97 9.542 4.329 4.329 0 0114.667 18zM16 5.666a1 1 0 001-1V3a1 1 0 10-2 0v1.666a1 1 0 001 1zm2.358.976c.266 0 .52-.106.708-.293l1.175-1.176a1 1 0 00-1.415-1.414L17.65 4.935a1 1 0 00.707 1.707z"/>
  <path fill="#B3B3B3" d="M12.934 6.349a1 1 0 001.415-1.414l-1.175-1.176a1 1 0 00-1.415 1.414l1.175 1.176zm6.131 3.302a1 1 0 00-1.414 0 .988.988 0 00-.281.648 4.313 4.313 0 011.312 1.797l.144.144a1 1 0 001.414-1.414l-1.175-1.175zM21 7h-1.667a1 1 0 100 2H21a1 1 0 100-2z"/>
  <path fill="#818181" d="M15.955 3.67a4.365 4.365 0 00-3.953 2.528 5.993 5.993 0 013.968 3.344 4.309 4.309 0 012.502 2.07 4.368 4.368 0 001.858-3.567 4.375 4.375 0 00-4.375-4.375zM8.5 22a1 1 0 01-1-1v-6a1 1 0 112 0v6a1 1 0 01-1 1zm4-1a1 1 0 01-1-1v-6a1 1 0 112 0v6a1 1 0 01-1 1z"/>
</svg>
