<svg xmlns="http://www.w3.org/2000/svg" width="24" height="24" fill="none" viewBox="0 0 24 24">
  <path fill="#B3B3B3" d="M11.833 11.5H4.5a3 3 0 01-.927-5.854 5 5 0 019.45-1.275 3.663 3.663 0 01-1.19 7.129z"/>
  <path fill="#CCC" d="M14.5 13.5h6a1 1 0 011 1v2a1 1 0 01-1 1h-6a1 1 0 01-1-1v-2a1 1 0 011-1z"/>
  <path fill="#818181" d="M9.5 14.5v-3h-2v4a1 1 0 001 1h5v-2h-4z"/>
  <path fill="#B3B3B3" d="M14.5 17.5h6a1 1 0 011 1v2a1 1 0 01-1 1h-6a1 1 0 01-1-1v-2a1 1 0 011-1z"/>
  <path fill="#818181" d="M9.5 18.5v-3a1 1 0 10-2 0v4a1 1 0 001 1h5v-2h-4z"/>
</svg>
