<svg xmlns="http://www.w3.org/2000/svg" width="24" height="24" fill="none" viewBox="0 0 24 24">
  <path fill="#B3B3B3" d="M17 16H6a4 4 0 01-.944-7.888 6.998 6.998 0 0113.362-1.897A4.994 4.994 0 0117 16z"/>
  <path fill="#818181" d="M8 19a1 1 0 01-1-1v-1a1 1 0 112 0v1a1 1 0 01-1 1zm4 3a1 1 0 01-1-1v-1a1 1 0 012 0v1a1 1 0 01-1 1zm4-3a1 1 0 01-1-1v-1a1 1 0 012 0v1a1 1 0 01-1 1zm-8-5a1 1 0 01-1-1v-1a1 1 0 112 0v1a1 1 0 01-1 1zm4 3a1 1 0 01-1-1v-1a1 1 0 012 0v1a1 1 0 01-1 1zm0-5a1 1 0 01-1-1v-1a1 1 0 012 0v1a1 1 0 01-1 1zm4 2a1 1 0 01-1-1v-1a1 1 0 012 0v1a1 1 0 01-1 1z"/>
</svg>
