<svg xmlns="http://www.w3.org/2000/svg" width="24" height="24" fill="none" viewBox="0 0 24 24">
  <path fill="#B3B3B3" d="M14.666 18.5H5.5a3.5 3.5 0 01-.937-6.873 5.998 5.998 0 0111.407-1.585 4.329 4.329 0 01-1.304 8.458zM16 6.167h.001a1 1 0 00.999-1V3.5a1 1 0 10-2 0v1.668a1 1 0 001 .999zm2.358.975c.266 0 .52-.106.707-.293l1.175-1.175a1 1 0 10-1.414-1.414l-1.175 1.175a1 1 0 00.707 1.707z"/>
  <path fill="#B3B3B3" d="M19.065 10.151a1 1 0 00-1.414 0 .987.987 0 00-.28.648 4.313 4.313 0 011.311 1.797l.144.144a1 1 0 001.414-1.414l-1.175-1.175zm-6.13-3.302a1 1 0 001.414-1.414L13.174 4.26a1 1 0 00-1.414 1.414l1.175 1.175zM21 7.5h-1.667a1 1 0 100 2H21a1 1 0 100-2z"/>
  <path fill="#818181" d="M16 4.125a4.369 4.369 0 00-3.98 2.577 5.994 5.994 0 013.95 3.34 4.308 4.308 0 012.498 2.065A4.373 4.373 0 0016 4.125zM10.5 21.5a3.003 3.003 0 01-3-3c0-2.475 2.338-4.093 2.437-4.16a1 1 0 011.118-.005c.1.067 2.445 1.661 2.445 4.165a3.003 3.003 0 01-3 3z"/>
</svg>
