<svg xmlns="http://www.w3.org/2000/svg" width="24" height="24" fill="none" viewBox="0 0 24 24">
  <path fill="#B3B3B3" d="M14.667 18.917H5.5a3.5 3.5 0 01-.936-6.873 5.998 5.998 0 0111.406-1.585 4.329 4.329 0 01-1.303 8.458z"/>
  <path fill="#818181" d="M21.703 7.986a.988.988 0 00-.938-.26 2.735 2.735 0 01-.655.082 3.003 3.003 0 01-3-3c.001-.222.029-.443.082-.659a1.001 1.001 0 00-1.197-1.207 4.968 4.968 0 00-3.83 4.215 5.996 5.996 0 013.805 3.302 4.315 4.315 0 012.542 2.134 4.964 4.964 0 003.463-3.671 1 1 0 00-.272-.936zM12.5 18.917h-5a1 1 0 110-2h5a1 1 0 110 2z"/>
  <path fill="#818181" d="M11.251 21.083c-.358 0-.688-.19-.867-.5l-2.5-4.331a1 1 0 111.732-1l2.5 4.331a1 1 0 01-.865 1.5z"/>
  <path fill="#818181" d="M8.749 21.083a1 1 0 01-.865-1.5l2.5-4.331a1 1 0 011.732 1l-2.5 4.331c-.179.31-.51.5-.867.5z"/>
</svg>
