<svg xmlns="http://www.w3.org/2000/svg" width="24" height="24" fill="none" viewBox="0 0 24 24">
  <path fill="#CCC" d="M10 16a1 1 0 01-1-1v-2a3.003 3.003 0 013-3c.8-.004 1.568.318 2.126.892.18.174.334.373.46.59a1 1 0 01-1.711 1.036.915.915 0 00-.143-.194A1.01 1.01 0 0011 13v2a1 1 0 01-1 1z"/>
  <path fill="#B3B3B3" d="M18.43 7.232a6.996 6.996 0 00-13.37 1.89A3.994 3.994 0 006 17h11a4.986 4.986 0 001.43-9.768zm-4.181 5.623a1 1 0 01-1.374-.337.915.915 0 00-.144-.194A1.01 1.01 0 0011 13v2a1 1 0 11-2 0v-2a3.003 3.003 0 013-3c.8-.004 1.568.318 2.126.892.18.174.334.373.46.59a1 1 0 01-.337 1.373z"/>
  <path fill="#818181" d="M14 22h-4a3 3 0 01-3-3v-2a3 3 0 013-3h4a3 3 0 013 3v2a3 3 0 01-3 3z"/>
</svg>
