<svg xmlns="http://www.w3.org/2000/svg" width="24" height="24" fill="none" viewBox="0 0 24 24">
  <path fill="#CCC" d="M12 19.5a3 3 0 100-6 3 3 0 000 6z"/>
  <path fill="#B3B3B3" d="M18.43 7.754a6.996 6.996 0 00-13.37 1.89A3.994 3.994 0 006 17.522h3.19A2.975 2.975 0 019 16.5a3 3 0 116 0c0 .36-.074.701-.19 1.022H17a4.986 4.986 0 001.43-9.768z"/>
  <path fill="#818181" d="M12 20.5a4 4 0 01-2.828-6.828 4.094 4.094 0 015.656 0 3.998 3.998 0 01.002 5.655l-.002.001A3.972 3.972 0 0112 20.5zm0-6a2 2 0 00-1.414 3.414 2.047 2.047 0 002.828 0A2 2 0 0012 14.5z"/>
  <path fill="#818181" d="M9.879 19.621a1 1 0 01-.707-1.707l4.242-4.242a1 1 0 111.414 1.414l-4.242 4.242a.997.997 0 01-.707.293z"/>
</svg>
