<svg xmlns="http://www.w3.org/2000/svg" width="24" height="24" fill="none" viewBox="0 0 24 24">
  <path fill="#B3B3B3" d="M14.667 18H5.5a3.5 3.5 0 01-.936-6.873A5.998 5.998 0 0115.97 9.542 4.329 4.329 0 0114.667 18z"/>
  <path fill="#818181" d="M21.972 7.544a1 1 0 00-1.208-.736 2.73 2.73 0 01-.654.082 3.003 3.003 0 01-3-3c0-.22.028-.44.082-.655a.998.998 0 00-1.196-1.21 4.965 4.965 0 00-3.831 4.214 5.996 5.996 0 013.805 3.303 4.315 4.315 0 012.542 2.133 4.964 4.964 0 003.463-3.671 1 1 0 00-.003-.46zM12.5 16a.845.845 0 01-.38-.08 1.15 1.15 0 01-.33-.21.99.99 0 01-.29-.71 1.03 1.03 0 01.29-.71.932.932 0 01.33-.21.956.956 0 01.58-.06.62.62 0 01.18.06.742.742 0 01.18.09c.052.037.102.077.15.12.183.192.286.445.29.71a.991.991 0 01-.29.71c-.097.088-.209.16-.33.21a.844.844 0 01-.38.08zm-4 2a.99.99 0 01-1-1 .844.844 0 01.08-.38 1.15 1.15 0 01.21-.33 1.02 1.02 0 011.09-.21c.122.048.234.12.33.21.088.097.16.209.21.33a.99.99 0 01-.21 1.09c-.097.088-.209.16-.33.21a1 1 0 01-.38.08zm0 4a.99.99 0 01-.92-1.38 1.15 1.15 0 01.21-.33 1.02 1.02 0 011.09-.21.9.9 0 01.54.54A.99.99 0 018.5 22zm4-2a.999.999 0 01-.38-.08 1.15 1.15 0 01-.33-.21.991.991 0 01-.21-1.09.904.904 0 01.54-.54c.373-.152.8-.07 1.09.21.088.097.16.209.21.33a.989.989 0 01-.21 1.09c-.097.088-.209.16-.33.21a1 1 0 01-.38.08z"/>
</svg>
