<svg xmlns="http://www.w3.org/2000/svg" width="24" height="24" fill="none" viewBox="0 0 24 24">
  <path fill="#818181" d="M12 15.32a4.495 4.495 0 01-8-2.82 4.495 4.495 0 013.54-4.4 4.5 4.5 0 118.92 0 4.502 4.502 0 01-.96 8.9 4.45 4.45 0 01-3.5-1.68z"/>
  <path fill="#818181" d="M15.5 18a5.45 5.45 0 01-3.5-1.257 5.502 5.502 0 11-5.499-9.37 5.5 5.5 0 0110.998 0A5.502 5.502 0 0115.5 18zM12 14.32a1 1 0 01.783.377A3.452 3.452 0 0015.5 16a3.502 3.502 0 00.748-6.922 1 1 0 01-.777-1.127 3.5 3.5 0 10-6.942 0 1 1 0 01-.777 1.127 3.5 3.5 0 103.465 5.62.997.997 0 01.783-.378z"/>
  <path fill="#818181" d="M14.05 16.82A7.867 7.867 0 0015.76 21H8.24a7.867 7.867 0 001.71-4.18"/>
  <path fill="#818181" d="M15.76 22H8.24a1 1 0 01-.78-1.626 6.855 6.855 0 001.495-3.65 1 1 0 111.99.191A8.799 8.799 0 0110.063 20h3.876a8.8 8.8 0 01-.884-3.085 1 1 0 011.992-.19 6.854 6.854 0 001.494 3.648A1 1 0 0115.76 22z"/>
</svg>
