<svg xmlns="http://www.w3.org/2000/svg" width="24" height="24" fill="none" viewBox="0 0 24 24">
  <path fill="#B3B3B3" d="M7.003 8.06a3 3 0 110-6 3 3 0 010 6zm0-4a1 1 0 100 2 1 1 0 000-2zm10 8a3 3 0 110-6.002 3 3 0 010 6.002zm0-4a1 1 0 100 1.999 1 1 0 000-2zm-10 14a3 3 0 110-6.001 3 3 0 010 6zm0-4a1 1 0 100 2 1 1 0 000-2z"/>
  <path fill="#818181" d="M17.003 12.06c-.396 0-.789-.08-1.154-.233a2.002 2.002 0 01-1.846 1.233h-4a3.954 3.954 0 00-2 .556v-5.74a2.805 2.805 0 01-2 0v8.368a2.9 2.9 0 012.154.048 2.002 2.002 0 011.846-1.232h4a4.005 4.005 0 003.906-3.155 2.96 2.96 0 01-.906.155z"/>
</svg>
