<svg xmlns="http://www.w3.org/2000/svg" width="24" height="24" fill="none" viewBox="0 0 24 24">
  <path fill="#818181" d="M5 4h6a2 2 0 110 4H5a2 2 0 110-4z"/>
  <path fill="#B3B3B3" d="M5 8h6a2 2 0 110 4H5a2 2 0 110-4z"/>
  <path fill="#818181" d="M5 12h6a2 2 0 110 4H5a2 2 0 110-4z"/>
  <path fill="#B3B3B3" d="M5 16h6a2 2 0 110 4H5a2 2 0 110-4z"/>
  <path fill="#818181" d="M19 16h-6a1.979 1.979 0 00-1 .277 1.984 1.984 0 010 3.446c.303.18.648.275 1 .277h6a2 2 0 100-4z"/>
  <path fill="#B3B3B3" d="M19 12h-6a1.98 1.98 0 00-1 .277 1.984 1.984 0 010 3.446c.303.18.648.275 1 .277h6a2 2 0 100-4z"/>
  <path fill="#818181" d="M19 8h-6a1.98 1.98 0 00-1 .277 1.984 1.984 0 010 3.446c.303.18.648.275 1 .277h6a2 2 0 100-4z"/>
</svg>
