<svg xmlns="http://www.w3.org/2000/svg" width="24" height="24" fill="none" viewBox="0 0 24 24">
  <path fill="#CCC" d="M5 18h1.577l.29-.273c.006-.006.014-.013.02-.021l4.821-4.83a1 1 0 00-.002-1.414v-.001l-1.584-1.574a3.05 3.05 0 00-4.238-.005L2 13.755V15a3.003 3.003 0 003 3z"/>
  <path fill="#818181" d="M18.122 7.887a3.054 3.054 0 00-4.233-.01l-10.046 9.89c.366.154.76.233 1.157.233h11.586l3.707 3.707A1 1 0 0022 21v-8.83a.998.998 0 00-.294-.708l-3.584-3.575z"/>
  <path fill="#B3B3B3" d="M19 2H5a3.003 3.003 0 00-3 3v8.755l3.884-3.873a3.05 3.05 0 014.238.005l.858.853 2.909-2.863a3.054 3.054 0 014.233.01l3.584 3.575a.999.999 0 01.294.708V5a3.003 3.003 0 00-3-3z"/>
</svg>
