<svg xmlns="http://www.w3.org/2000/svg" width="24" height="24" fill="none" viewBox="0 0 24 24">
  <path fill="#B3B3B3" d="M19 22a.996.996 0 01-.678-.266L15.359 19H7a3.003 3.003 0 01-3-3V9a3.003 3.003 0 013-3h10a3.003 3.003 0 013 3v12a1 1 0 01-1 1z"/>
  <path fill="#818181" d="M5 11a1.001 1.001 0 01-1-1V6a1 1 0 012 0v4a1 1 0 01-1 1zm0-7a.992.992 0 01-.71-.29 1.162 1.162 0 01-.21-.33.999.999 0 01.084-.938.96.96 0 01.456-.362 1.002 1.002 0 011.09.21c.184.19.288.445.29.71a.838.838 0 01-.08.38 1.171 1.171 0 01-.21.33c-.097.088-.209.16-.33.21A1 1 0 015 4z"/>
</svg>
