<svg xmlns="http://www.w3.org/2000/svg" width="24" height="24" fill="none" viewBox="0 0 24 24">
  <path fill="#B3B3B3" d="M22 12c-.004 5.521-4.479 9.996-10 10H3a.987.987 0 01-.92-.62 1.002 1.002 0 01.21-1.09l1.97-1.97A9.985 9.985 0 012 12C2 6.477 6.477 2 12 2s10 4.477 10 10z"/>
  <path fill="#CCC" d="M10.53 13.46l-.71-.7-.88-.87a3.046 3.046 0 00-4.24-.01L2.27 14.3a9.804 9.804 0 001.99 4.02l-1.97 1.97a1.002 1.002 0 00-.21 1.09c.15.376.515.622.92.62h.41l7.12-7.12c.187-.19.29-.444.29-.71a1.032 1.032 0 00-.29-.71z"/>
  <path fill="#818181" d="M16.94 9.89a3.046 3.046 0 00-4.24-.01l-8.44 8.44-1.97 1.97a1.002 1.002 0 00-.21 1.09c.15.376.515.622.92.62h9a10.025 10.025 0 009.66-7.42l-4.72-4.69z"/>
  <path fill="#B3B3B3" d="M4.7 11.88a3.046 3.046 0 014.24.01l.88.87 2.88-2.88a3.046 3.046 0 014.24.01l4.713 4.683c.797-2.997.202-6.319-1.911-8.903C16.246 1.394 9.946.76 5.67 4.257c-3.059 2.5-4.242 6.434-3.395 10.037L4.7 11.88z"/>
</svg>
