<svg xmlns="http://www.w3.org/2000/svg" width="24" height="24" fill="none" viewBox="0 0 24 24">
  <path fill="#B3B3B3" d="M11 22H3a1 1 0 01-.707-1.707l1.675-1.675A9 9 0 1111 22z"/>
  <path fill="#818181" d="M17 9.004a1 1 0 110-2 1 1 0 10-.867-1.5 1 1 0 01-1.73-1.001A3 3 0 1117 9.003zM17 12a.99.99 0 01-.71-.29 1.028 1.028 0 01-.22-.32A1.002 1.002 0 0116 11a.831.831 0 01.08-.38.987.987 0 01.21-.32c.047-.046.097-.09.15-.13l.18-.09.18-.06a.955.955 0 01.58.06c.24.107.433.3.54.54A.846.846 0 0118 11a1.007 1.007 0 01-1 1z"/>
</svg>
