<svg xmlns="http://www.w3.org/2000/svg" width="24" height="24" fill="none" viewBox="0 0 24 24">
  <path fill="#818181" d="M3 22a1 1 0 01-.707-1.707l7-7a1 1 0 011.414 1.414l-7 7A.995.995 0 013 22z"/>
  <path fill="#818181" d="M10 19a1 1 0 01-1-1v-3H6a1 1 0 010-2h4a.998.998 0 011 1v4a1 1 0 01-1 1zm0-8a.997.997 0 01-.707-.293l-7-7a1 1 0 011.414-1.414l7 7A1 1 0 0110 11z"/>
  <path fill="#818181" d="M10 11H6a1 1 0 010-2h3V6a1 1 0 012 0v4a.998.998 0 01-1 1zm4 0a1 1 0 01-.707-1.707l7-7a.999.999 0 111.414 1.414l-7 7A.996.996 0 0114 11z"/>
  <path fill="#818181" d="M18 11h-4a.998.998 0 01-1-1V6a1 1 0 012 0v3h3a1 1 0 110 2zm3 11a.999.999 0 01-.707-.293l-7-7a1 1 0 011.414-1.414l7 7A1 1 0 0121 22z"/>
  <path fill="#818181" d="M14 19a.998.998 0 01-1-1v-4a.998.998 0 011-1h4a1 1 0 010 2h-3v3a.998.998 0 01-1 1z"/>
</svg>
