<svg xmlns="http://www.w3.org/2000/svg" width="24" height="24" fill="none" viewBox="0 0 24 24">
  <path fill="#818181" d="M12 11a.997.997 0 01-.707-.293l-2.5-2.5a1 1 0 011.414-1.414L12 8.586l1.793-1.793a1 1 0 011.414 1.414l-2.5 2.5A.997.997 0 0112 11z"/>
  <path fill="#818181" d="M12 11a.997.997 0 01-1-1V3a1 1 0 112 0v7a1.002 1.002 0 01-1 1zm2.5 6.5a1 1 0 01-.707-.293L12 15.414l-1.793 1.793a1 1 0 01-1.414-1.414l2.5-2.5a.998.998 0 011.414 0l2.5 2.5A1 1 0 0114.5 17.5z"/>
  <path fill="#818181" d="M12 22a.998.998 0 01-1-1v-7a1 1 0 012 0v7a.998.998 0 01-1 1z"/>
</svg>
