<svg xmlns="http://www.w3.org/2000/svg" width="24" height="24" fill="none" viewBox="0 0 24 24">
  <path fill="#818181" d="M12 11a.997.997 0 01-.707-.293l-2.5-2.5a1 1 0 011.414-1.414L12 8.586l1.793-1.793a1 1 0 011.414 1.414l-2.5 2.5A.996.996 0 0112 11zm2.5 6.5a.997.997 0 01-.707-.293L12 15.414l-1.793 1.793a1 1 0 01-1.414-1.414l2.5-2.5a1 1 0 011.414 0l2.5 2.5A1 1 0 0114.5 17.5z"/>
  <path fill="#B3B3B3" d="M17 4H7a1 1 0 010-2h10a1 1 0 110 2zm0 18H7a1 1 0 110-2h10a1 1 0 110 2z"/>
  <path fill="#818181" d="M12 13a1 1 0 00-1 1v6h2v-6a1 1 0 00-1-1zm-1-2.999A1 1 0 0012 11h.001A1 1 0 0013 10V4h-2v6.001z"/>
</svg>
