<svg xmlns="http://www.w3.org/2000/svg" width="24" height="24" fill="none" viewBox="0 0 24 24">
  <path fill="#B3B3B3" d="M13 19v2.95c-.33.03-.66.05-1 .05-.34 0-.67-.02-1-.05V19a1 1 0 112 0zm0-16.95V5a1 1 0 11-2 0V2.05c.33-.03.66-.05 1-.05.34 0 .67.02 1 .05zM6 12a1.003 1.003 0 01-1 1H2.05c-.03-.33-.05-.66-.05-1 0-.34.02-.67.05-1H5c.552.002.998.448 1 1zm16 0c0 .34-.02.67-.05 1H19a1 1 0 110-2h2.95c.03.33.05.66.05 1z"/>
  <path fill="#CCC" d="M18 12a1 1 0 011-1h2.95A10.03 10.03 0 0013 2.05V5a1 1 0 11-2 0V2.05A10.03 10.03 0 002.05 11H5c.552.002.998.448 1 1a1.003 1.003 0 01-1 1H2.05A10.03 10.03 0 0011 21.95V19a1 1 0 112 0v2.95A10.03 10.03 0 0021.95 13H19a1 1 0 01-1-1z"/>
  <path fill="#818181" d="M8.465 16.535a1 1 0 01-.92-1.393l2.122-4.95a.995.995 0 01.525-.525l4.95-2.121a1 1 0 011.312 1.312l-2.121 4.95a.995.995 0 01-.525.525l-4.95 2.121a.994.994 0 01-.393.081z"/>
</svg>
