<svg xmlns="http://www.w3.org/2000/svg" width="24" height="24" fill="none" viewBox="0 0 24 24">
  <path fill="#CCC" d="M21 22H3a1 1 0 01-1-1V3a1 1 0 012 0v17h17a1 1 0 010 2z"/>
  <path fill="#B3B3B3" d="M4 11.458l4.984-4.984 2.793 2.793a.999.999 0 001.415 0l4.792-4.793 2.183 2.183a1 1 0 101.414-1.414l-2.89-2.89a.999.999 0 00-1.414 0l-4.793 4.793-2.793-2.793a1 1 0 00-1.414 0L4 8.63v2.828z"/>
  <path fill="#818181" d="M4 19.458l4.984-4.984 3.793 3.793a.997.997 0 001.415 0l7.5-7.5a1 1 0 00-1.415-1.414l-6.793 6.793-3.793-3.793a1 1 0 00-1.414 0L4 16.63v2.828z"/>
</svg>
