<svg xmlns="http://www.w3.org/2000/svg" width="24" height="24" fill="none" viewBox="0 0 24 24">
  <path fill="#818181" d="M13.5 11.5a1 1 0 01-.707-1.707l7.5-7.5a1.001 1.001 0 011.635 1.09 1 1 0 01-.221.324l-7.5 7.5a.997.997 0 01-.707.293z"/>
  <path fill="#818181" d="M17.5 11.5h-4a.998.998 0 01-1-1v-4a1 1 0 012 0v3h3a1 1 0 110 2zm-7 7a.998.998 0 01-1-1v-3h-3a1 1 0 010-2h4a.998.998 0 011 1v4a.998.998 0 01-1 1z"/>
  <path fill="#818181" d="M3 22a1 1 0 01-.707-1.707l7.5-7.5a1 1 0 011.414 1.414l-7.5 7.5A.995.995 0 013 22z"/>
</svg>
