<svg xmlns="http://www.w3.org/2000/svg" width="24" height="24" fill="none" viewBox="0 0 24 24">
  <path fill="#9A9A9A" d="M9.5 12a1.5 1.5 0 100-3 1.5 1.5 0 000 3z"/>
  <path fill="#818181" d="M9 16a1 1 0 100-2 1 1 0 000 2z"/>
  <path fill="#9A9A9A" d="M14.5 15a1.5 1.5 0 100-3 1.5 1.5 0 000 3z"/>
  <path fill="#818181" d="M15 10a1 1 0 100-2 1 1 0 000 2z"/>
  <path fill="#CCC" d="M12 8a1 1 0 01-1-1V2a1 1 0 012 0v5a1 1 0 01-1 1zm0 15a1 1 0 01-1-1v-5a1 1 0 012 0v5a1 1 0 01-1 1zm10-10h-4a1 1 0 010-2h4a1 1 0 010 2zM6 13H2a1 1 0 010-2h4a1 1 0 010 2z"/>
  <path fill="#B3B3B3" d="M18 13a1 1 0 110-2h2.941a9.013 9.013 0 00-7.94-7.941V7a1 1 0 01-2 0V3.059A9.013 9.013 0 003.058 11H6a1 1 0 010 2H3.06A9.013 9.013 0 0011 20.941V17a1 1 0 112 0v3.941A9.013 9.013 0 0020.941 13h-2.94zm-9 3a1 1 0 110-2 1 1 0 010 2zm.5-4a1.5 1.5 0 110-3 1.5 1.5 0 010 3zm5 3a1.5 1.5 0 110-3 1.5 1.5 0 010 3zm.5-5a1 1 0 110-2 1 1 0 010 2z"/>
  <path fill="#818181" d="M4.978 6.393a9.063 9.063 0 011.414-1.414l-.756-.757a1 1 0 00-1.414 1.414l.756.757zm0 11.214l-.756.757a1 1 0 101.414 1.414l.756-.756a9.064 9.064 0 01-1.414-1.415zm14.043 0a9.066 9.066 0 01-1.414 1.415l.757.756a1 1 0 101.414-1.414l-.757-.757zm0-11.214l.757-.757a1 1 0 10-1.414-1.414l-.757.757c.522.417.997.892 1.414 1.414z"/>
</svg>
