<svg xmlns="http://www.w3.org/2000/svg" width="24" height="24" fill="none" viewBox="0 0 24 24">
  <path fill="#CCC" d="M12 20a8 8 0 008-8 8.01 8.01 0 00-8-8 8 8 0 000 16z"/>
  <path fill="#B3B3B3" d="M12 2C6.477 2 2 6.477 2 12s4.477 10 10 10c5.52-.006 9.994-4.48 10-10 0-5.523-4.477-10-10-10zm8 10a7.957 7.957 0 01-1.686 4.9L7.1 5.686A7.957 7.957 0 0112 4a8.01 8.01 0 018 8zM4 12c0-1.848.633-3.546 1.686-4.9L16.9 18.314A7.957 7.957 0 0112 20a8 8 0 01-8-8z"/>
  <path fill="#818181" d="M15 13a.976.976 0 00-.46.126l1.406 1.406c.031-.173.054-.35.054-.532a1 1 0 00-1-1zm-4.46-3.874A.977.977 0 0111 9h2c.552 0 1 .448 1 1a1 1 0 102 0 3.003 3.003 0 00-3-3h-2c-.722 0-1.376.267-1.893.692l1.434 1.434zm2.92 5.748A.976.976 0 0113 15h-2c-.552 0-1-.448-1-1v-2.586L8.054 9.468A3 3 0 008 10v4a3.003 3.003 0 003 3h2c.722 0 1.376-.267 1.893-.692l-1.434-1.434z"/>
</svg>
