<svg xmlns="http://www.w3.org/2000/svg" width="24" height="24" fill="none" viewBox="0 0 24 24">
  <path fill="#B3B3B3" d="M16 18h-1v-7c0-.6-.4-1-1-1H7V9c0-.6-.4-1-1-1s-1 .4-1 1v1H4c-.6 0-1 .4-1 1s.4 1 1 1h1v7c0 .6.4 1 1 1h7v1c0 .6.4 1 1 1s1-.4 1-1v-1h1c.6 0 1-.4 1-1s-.4-1-1-1zm-9 0v-6h6v6H7z"/>
  <path fill="#818181" d="M16 4h-.6l.3-.3c.4-.4.4-1 0-1.4-.4-.4-1-.4-1.4 0l-2 2c-.4.4-.4 1 0 1.4l2 2c.4.4 1 .4 1.4 0 .4-.4.4-1 0-1.4l-.3-.3h.6c1.7 0 3 1.3 3 3v2c0 .6.4 1 1 1s1-.4 1-1V9c0-2.8-2.2-5-5-5z"/>
</svg>
