<svg xmlns="http://www.w3.org/2000/svg" width="24" height="24" fill="none" viewBox="0 0 24 24">
  <path fill="#CCC" d="M12 10c-3.976 0-8-1.374-8-4v6c0 2.626 4.024 4 8 4s8-1.374 8-4V6c0 2.626-4.024 4-8 4z"/>
  <path fill="#B3B3B3" d="M12 16c-3.976 0-8-1.374-8-4v6c0 2.626 4.024 4 8 4s8-1.374 8-4v-6c0 2.626-4.024 4-8 4z"/>
  <path fill="#818181" d="M8 19.5a1 1 0 100-2 1 1 0 000 2zM8 13.5a1 1 0 100-2 1 1 0 000 2z"/>
  <path fill="#B3B3B3" d="M12 10c-3.976 0-8-1.374-8-4s4.024-4 8-4 8 1.374 8 4-4.024 4-8 4z"/>
</svg>
