<svg xmlns="http://www.w3.org/2000/svg" width="24" height="24" fill="none" viewBox="0 0 24 24">
  <path fill="#B3B3B3" d="M19.333 11H12a3 3 0 01-.927-5.854 4.999 4.999 0 019.448-1.275A3.663 3.663 0 0119.334 11zm-8 12H4a3 3 0 01-.927-5.854 4.998 4.998 0 019.448-1.275A3.663 3.663 0 0111.333 23z"/>
  <path fill="#818181" d="M5 12a1 1 0 001-1V7c0-.552.448-1 1-1h2.774a2.985 2.985 0 011.3-.854c.07-.406.2-.784.358-1.146H7a3.003 3.003 0 00-3 3v4a1 1 0 001 1zm14 1a1 1 0 00-1 1v3a1 1 0 01-1 1h-2.27c.246.623.323 1.31.195 2H17a3.003 3.003 0 003-3v-3a1 1 0 00-1-1z"/>
</svg>
