<svg xmlns="http://www.w3.org/2000/svg" width="24" height="24" fill="none" viewBox="0 0 24 24">
  <path fill="#818181" d="M4.826 13.037a2 2 0 010-2.149l5.712-7.276a2.001 2.001 0 012.95 0l5.686 7.35a2 2 0 010 2.15l-5.712 7.277a2 2 0 01-2.95 0l-5.686-7.352z"/>
  <path fill="#818181" d="M11.987 22.037a3.01 3.01 0 01-2.212-.973l-5.74-7.415a.973.973 0 01-.052-.073 3 3 0 010-3.226l5.769-7.356a3.062 3.062 0 014.473-.058l5.74 7.415a2.992 2.992 0 01.052 3.3l-5.769 7.355a3.04 3.04 0 01-2.26 1.031zm-6.338-9.57l5.655 7.31a1.102 1.102 0 001.42-.064l5.664-7.219c.067-.143.1-.299.1-.457a.988.988 0 00-.157-.536l-5.635-7.278a1.102 1.102 0 00-1.42.064l-5.664 7.219c-.067.143-.1.299-.1.457a.99.99 0 00.137.504z"/>
</svg>
