<svg xmlns="http://www.w3.org/2000/svg" width="24" height="24" fill="none" viewBox="0 0 24 24">
  <path fill="#B3B3B3" d="M18.8 21H9a1 1 0 010-2h9.8a1 1 0 010 2zm-1.83-4H12a1 1 0 010-2h4.97a1 1 0 010 2zM15 5H5.2a1 1 0 110-2H15a1 1 0 110 2zm-3 4H7.03a1 1 0 110-2H12a1 1 0 110 2z"/>
  <path fill="#818181" d="M19 23a1 1 0 01-1-1 8.78 8.78 0 00-.18-1.797 7.592 7.592 0 00-.329-1.16 9.008 9.008 0 00-1.32-2.441 12.801 12.801 0 00-4.566-3.684 1 1 0 01.788-1.837c2.11.99 3.954 2.471 5.377 4.319a10.97 10.97 0 011.604 2.97c.174.468.31.949.407 1.438.148.721.222 1.456.219 2.192a1 1 0 01-1 1zM5 23a1 1 0 01-1-1 11.2 11.2 0 013.79-8.322 1 1 0 011.361 1.464A9.133 9.133 0 006 22a1 1 0 01-1 1z"/>
  <path fill="#818181" d="M12 13a.996.996 0 01-.394-.081C11.296 12.786 4 9.572 4 2a1 1 0 012 0c0 5.352 4.614 8.165 6.003 8.89C13.411 10.166 18 7.396 18 2a1 1 0 012 0c0 7.572-7.295 10.786-7.606 10.919A.996.996 0 0112 13z"/>
</svg>
