<svg xmlns="http://www.w3.org/2000/svg" width="24" height="24" fill="none" viewBox="0 0 24 24">
  <path fill="#B3B3B3" d="M20 9l-7-7H7a3 3 0 00-3 3v14a3 3 0 003 3h10a3 3 0 003-3V9z"/>
  <path fill="#818181" d="M20 9h-5a2 2 0 01-2-2V2l7 7zm-8 9a.998.998 0 01-1-1v-2a1 1 0 012 0v2a.998.998 0 01-1 1zm0-5a.843.843 0 01-.38-.08 1.027 1.027 0 01-.33-.21A.989.989 0 0111 12c.002-.265.105-.52.29-.71.047-.043.097-.083.15-.12a.74.74 0 01.18-.09.622.622 0 01.18-.06.955.955 0 01.58.06c.121.051.233.122.33.21a1.032 1.032 0 01.216 1.094.994.994 0 01-.216.326A1.01 1.01 0 0112 13z"/>
</svg>
