<svg xmlns="http://www.w3.org/2000/svg" width="24" height="24" fill="none" viewBox="0 0 24 24">
  <path fill="#818181" d="M15.707 13.293a1 1 0 00-1.414 0L13 14.586V3a1 1 0 00-2 0v11.586l-1.293-1.293a1 1 0 00-1.414 1.414l3 3a.998.998 0 001.414 0l3-3a.998.998 0 000-1.414z"/>
  <path fill="#B3B3B3" d="M18 9h-5v5.586l1.293-1.293a1 1 0 011.414 1.414l-3 3a.998.998 0 01-1.414 0l-3-3a1 1 0 011.414-1.414L11 14.586V9H6a3.003 3.003 0 00-3 3v7a3.003 3.003 0 003 3h12a3.004 3.004 0 003-3v-7a3.004 3.004 0 00-3-3z"/>
</svg>
