<svg xmlns="http://www.w3.org/2000/svg" width="24" height="24" fill="none" viewBox="0 0 24 24">
  <path fill="#B3B3B3" d="M11.97 20.97a9 9 0 100-18 9 9 0 000 18z"/>
  <path fill="#818181" d="M2 12a9.796 9.796 0 011.34-5.02 9.93 9.93 0 013.64-3.64A9.796 9.796 0 0112 2a9.796 9.796 0 015.02 1.34 9.928 9.928 0 013.64 3.64A9.795 9.795 0 0122 12a9.795 9.795 0 01-1.34 5.02 9.929 9.929 0 01-3.64 3.64A9.796 9.796 0 0112 22a9.796 9.796 0 01-5.02-1.34 9.93 9.93 0 01-3.64-3.64A9.796 9.796 0 012 12zm1.66 0a8.064 8.064 0 002.1 5.5c.755-1.39 1.79-2.61 3.04-3.58a9.942 9.942 0 014.06-2.14c-.2-.467-.393-.887-.58-1.26a24.303 24.303 0 01-7.44 1.1c-.52 0-.907-.007-1.16-.02 0 .053-.003.12-.01.2-.007.08-.01.147-.01.2zm.26-2.06c.293.027.727.04 1.3.04a21.949 21.949 0 006.34-.9 20.25 20.25 0 00-3.34-4.5A8.12 8.12 0 005.51 6.8a8.539 8.539 0 00-1.59 3.14zm2.98 8.64a8.173 8.173 0 008.04 1.2 29.36 29.36 0 00-1.56-6.62 8.53 8.53 0 00-3.71 2.02 11.345 11.345 0 00-2.77 3.4zM9.96 3.94a21.252 21.252 0 013.26 4.54 9.96 9.96 0 004.1-2.9A8.107 8.107 0 0012 3.66a7.677 7.677 0 00-2.04.28zm3.98 5.96c.2.427.427.967.68 1.62.987-.093 2.06-.14 3.22-.14.827 0 1.647.02 2.46.06a8.029 8.029 0 00-1.96-4.84 9.895 9.895 0 01-4.4 3.3zm1.18 3.02c.68 1.97 1.142 4.01 1.38 6.08a8.346 8.346 0 002.58-2.62 8.078 8.078 0 001.2-3.46c-.973-.067-1.86-.1-2.66-.1-.733 0-1.567.033-2.5.1z"/>
</svg>
