<svg xmlns="http://www.w3.org/2000/svg" width="24" height="24" fill="none" viewBox="0 0 24 24">
  <path fill="#B3B3B3" d="M19 12h-5v7.001A1 1 0 0015 20h2a3.003 3.003 0 003-3v-5.185A2.978 2.978 0 0119 12zM9 12a1 1 0 01-1-.999v2A1 1 0 009 14h.001A1 1 0 0010 13v-1H9z"/>
  <path fill="#818181" d="M8 7H3a1 1 0 100 2h5V7z"/>
  <path fill="#B3B3B3" d="M16 4v3a1 1 0 102 0V4h-2z"/>
  <path fill="#CCC" d="M19 4h-1v3a1 1 0 11-2 0V4H9h-.001A1 1 0 008 5v6.001A1 1 0 009 12h10a3.003 3.003 0 003-3V7a3.003 3.003 0 00-3-3z"/>
</svg>
