<svg xmlns="http://www.w3.org/2000/svg" width="24" height="24" fill="none" viewBox="0 0 24 24">
  <path fill="#B3B3B3" d="M10.071 20.586a.997.997 0 01-.707-.293l-5.657-5.657a1 1 0 111.414-1.414l5.657 5.657a1 1 0 01-.707 1.707zm9.515-9.515a.997.997 0 01-.707-.293l-5.657-5.657a1 1 0 111.414-1.414l5.657 5.657a1 1 0 01-.707 1.707z"/>
  <path fill="#818181" d="M15.343 7.243l-8.1 8.1 1.414 1.414 8.1-8.1-1.414-1.414z"/>
  <path fill="#CCC" d="M19.586 8.242a.997.997 0 01-.707-.293L16.05 5.121a1 1 0 111.414-1.414l2.829 2.828a1 1 0 01-.707 1.707z"/>
  <path fill="#818181" d="M19.586 5.828l.71-.71a1 1 0 10-1.415-1.413l-.71.71 1.415 1.413z"/>
  <path fill="#CCC" d="M7.243 20.586a.997.997 0 01-.707-.293l-2.829-2.828a1 1 0 011.414-1.414l2.829 2.828a1 1 0 01-.707 1.707z"/>
  <path fill="#818181" d="M4.414 18.172l-.71.71a1 1 0 001.415 1.413l.71-.71-1.415-1.413z"/>
</svg>
