<svg xmlns="http://www.w3.org/2000/svg" width="24" height="24" fill="none" viewBox="0 0 24 24">
  <path fill="#B3B3B3" d="M12 22c5.523 0 10-4.477 10-10S17.523 2 12 2 2 6.477 2 12s4.477 10 10 10z"/>
  <path fill="#818181" d="M8.873 17.5a1 1 0 01-.623-1.782c.172-.199.261-.456.25-.718a.948.948 0 00-.25-.719 1.022 1.022 0 01-.136-1.393.977.977 0 011.351-.194A2.868 2.868 0 0110.5 15a2.962 2.962 0 01-1.004 2.282.996.996 0 01-.623.218zm6.604-.006a.956.956 0 01-.57-.188A2.866 2.866 0 0113.873 15a2.962 2.962 0 011.004-2.282 1 1 0 011.246 1.564 1.028 1.028 0 00-.25.718.948.948 0 00.25.719 1.022 1.022 0 01.136 1.393 1.008 1.008 0 01-.782.382z"/>
  <path fill="#818181" d="M14 16h-4a1 1 0 010-2h4a1 1 0 010 2zM15 11a1 1 0 100-2 1 1 0 000 2zM9 11a1 1 0 100-2 1 1 0 000 2z"/>
</svg>
