<svg xmlns="http://www.w3.org/2000/svg" width="24" height="24" fill="none" viewBox="0 0 24 24">
  <path fill="#B3B3B3" d="M21.2 6.21l-7.58 7.58a2.994 2.994 0 01-4.24 0L1.8 6.21A2.992 2.992 0 014.5 4.5h14a2.992 2.992 0 012.7 1.71z"/>
  <path fill="#CCC" d="M21.2 6.21l-7.58 7.58a2.994 2.994 0 01-4.24 0L1.8 6.21c-.197.402-.3.843-.3 1.29v10a3.009 3.009 0 003 3h14a3.009 3.009 0 003-3v-10c0-.447-.103-.888-.3-1.29z"/>
  <path fill="#818181" d="M17.5 9.5a.997.997 0 01-.707-.293l-2-2a1 1 0 011.414-1.414L17.5 7.086l3.293-3.293a1 1 0 011.414 1.414l-4 4a.997.997 0 01-.707.293z"/>
</svg>
