<svg xmlns="http://www.w3.org/2000/svg" width="24" height="24" fill="none" viewBox="0 0 24 24">
  <path fill="#B3B3B3" d="M21 19.628H7a3.009 3.009 0 01-3-3v-7.59l-1.7-1.7c-.197.402-.3.843-.3 1.29v10a3.009 3.009 0 003 3h14a3 3 0 002.858-2.142 2.977 2.977 0 01-.858.142z"/>
  <path fill="#818181" d="M4 6.628c0-.3.063-.592.153-.876A2.991 2.991 0 002.3 7.338l1.7 1.7v-2.41z"/>
  <path fill="#B3B3B3" d="M23.7 5.338l-7.58 7.58a2.994 2.994 0 01-4.24 0L4.3 5.338A2.992 2.992 0 017 3.628h14a2.992 2.992 0 012.7 1.71z"/>
  <path fill="#CCC" d="M23.7 5.338l-7.58 7.58a2.994 2.994 0 01-4.24 0L4.3 5.338c-.197.402-.3.843-.3 1.29v10a3.009 3.009 0 003 3h14a3.009 3.009 0 003-3v-10c0-.447-.103-.888-.3-1.29z"/>
</svg>
