<svg xmlns="http://www.w3.org/2000/svg" width="24" height="24" fill="none" viewBox="0 0 24 24">
  <path fill="#CCC" d="M20.17 8.781s-.002 0-.003-.002l.003.003a1 1 0 010 1.44l-5.214 5.028 1.658 1.6a1 1 0 01-1.388 1.44l-1.765-1.703a2.8 2.8 0 01-2.918.002l-1.77 1.702a1 1 0 01-1.386-1.441l1.66-1.597L3.83 10.22a.997.997 0 01-.039-1.393A2.63 2.63 0 003 10.71v8.575A2.75 2.75 0 005.778 22h12.444A2.75 2.75 0 0021 19.285V10.71a2.665 2.665 0 00-.83-1.929z"/>
  <path fill="#9A9A9A" d="M3.525 9.501a1 1 0 00.305.72l6.218 5.998a2.834 2.834 0 003.903 0l6.219-5.998a1 1 0 00.306-.72H3.524z"/>
  <path fill="#B3B3B3" d="M10.048 16.219l-1-.966-1.66 1.596a1 1 0 001.385 1.442l1.77-1.702a2.83 2.83 0 01-.495-.37zm4.908-.969l-1.005.97a2.822 2.822 0 01-.49.367l1.765 1.703a.998.998 0 001.414-.026 1 1 0 00-.026-1.414l-1.658-1.6zM20.473 9.501c0-.262-.1-.523-.303-.72l-6.218-5.998a2.834 2.834 0 00-3.903 0L3.83 8.78a.994.994 0 00-.302.72h16.945z"/>
</svg>
