<svg xmlns="http://www.w3.org/2000/svg" width="24" height="24" fill="none" viewBox="0 0 24 24">
  <path fill="#B3B3B3" d="M21.2 7.968l-7.58 7.58a2.994 2.994 0 01-4.234.006l-.006-.006-7.58-7.58a2.992 2.992 0 012.7-1.71h14a2.992 2.992 0 012.7 1.71z"/>
  <path fill="#CCC" d="M21.2 7.968l-7.58 7.58a2.994 2.994 0 01-4.24 0L1.8 7.968c-.197.401-.3.843-.3 1.29v10a3.009 3.009 0 003 3h14a3.009 3.009 0 003-3v-10c0-.447-.103-.889-.3-1.29z"/>
  <path fill="#818181" d="M21.5 8.258h-3a1 1 0 110-2h2v-2a1 1 0 112 0v3a1 1 0 01-1 1z"/>
  <path fill="#818181" d="M17.5 13.258a5 5 0 114.84-6.247 1 1 0 11-1.94.493 2.999 2.999 0 10-2.9 3.754 3.02 3.02 0 001.983-.753 1 1 0 111.319 1.502l-.004.004a5.016 5.016 0 01-3.298 1.247z"/>
</svg>
