<svg xmlns="http://www.w3.org/2000/svg" width="24" height="24" fill="none" viewBox="0 0 24 24">
  <path fill="#B3B3B3" d="M21.7 7.21l-7.58 7.58a2.994 2.994 0 01-4.24 0L2.3 7.21A2.992 2.992 0 015 5.5h14a2.992 2.992 0 012.7 1.71z"/>
  <path fill="#CCC" d="M21.7 7.21l-7.58 7.58a2.994 2.994 0 01-4.24 0L2.3 7.21c-.197.402-.3.843-.3 1.29v10a3.009 3.009 0 003 3h14a3.009 3.009 0 003-3v-10c0-.447-.103-.888-.3-1.29z"/>
  <path fill="#818181" d="M21 11.5a1 1 0 01-1-1v-4a1 1 0 012 0v4a1 1 0 01-1 1zm0-7a1.052 1.052 0 01-.71-.29 1.014 1.014 0 010-1.42 1.047 1.047 0 011.42 0c.182.192.286.445.29.71a1.251 1.251 0 01-.02.2.623.623 0 01-.06.18.562.562 0 01-.09.17c-.04.06-.08.11-.12.16a1.054 1.054 0 01-.71.29z"/>
</svg>
