<svg xmlns="http://www.w3.org/2000/svg" width="24" height="24" fill="none" viewBox="0 0 24 24">
  <path fill="#B3B3B3" d="M21.2 6.71l-7.58 7.58a2.994 2.994 0 01-4.24 0L1.8 6.71A2.992 2.992 0 014.5 5h14a2.992 2.992 0 012.7 1.71z"/>
  <path fill="#CCC" d="M21.2 6.71l-7.58 7.58a2.994 2.994 0 01-4.24 0L1.8 6.71c-.197.402-.3.843-.3 1.29v10a3.009 3.009 0 003 3h14a3.009 3.009 0 003-3V8c0-.447-.103-.888-.3-1.29z"/>
  <path fill="#818181" d="M17.672 12a1 1 0 01-.707-.293l-3.172-3.17a3.243 3.243 0 013.878-5.124 3.316 3.316 0 013.879.537 3.246 3.246 0 010 4.586l-3.171 3.171a1 1 0 01-.707.293z"/>
</svg>
