<svg xmlns="http://www.w3.org/2000/svg" width="24" height="24" fill="none" viewBox="0 0 24 24">
  <path fill="#B3B3B3" d="M16 10H8a3.028 3.028 0 00-2.65 1.59l4.53 4.52c.56.568 1.323.889 2.12.89a3.015 3.015 0 002.12-.88l4.53-4.53A3.028 3.028 0 0016 10z"/>
  <path fill="#CCC" d="M18.638 11.602L14.12 16.12A3.015 3.015 0 0112 17a2.982 2.982 0 01-2.12-.89l-4.518-4.508A2.97 2.97 0 005 13v5a3.003 3.003 0 003 3h8a3.003 3.003 0 003-3v-5c0-.508-.139-.979-.362-1.398z"/>
  <path fill="#818181" d="M15 6H9a1 1 0 110-2h6a1 1 0 110 2z"/>
  <path fill="#818181" d="M13 8a1 1 0 01-.707-1.707L13.586 5l-1.293-1.293a1 1 0 011.414-1.414l2 2a1 1 0 010 1.414l-2 2A.997.997 0 0113 8z"/>
</svg>
