<svg xmlns="http://www.w3.org/2000/svg" width="24" height="24" fill="none" viewBox="0 0 24 24">
  <path fill="#B3B3B3" d="M21.2 7.71l-7.58 7.58a2.994 2.994 0 01-4.24 0L1.8 7.71A2.992 2.992 0 014.5 6h14a2.992 2.992 0 012.7 1.71z"/>
  <path fill="#CCC" d="M21.2 7.71l-7.58 7.58a2.994 2.994 0 01-4.24 0L1.8 7.71c-.197.402-.3.843-.3 1.29v10a3.009 3.009 0 003 3h14a3.009 3.009 0 003-3V9c0-.447-.103-.888-.3-1.29z"/>
  <path fill="#818181" d="M16.813 10.627a4.313 4.313 0 110-8.625 4.313 4.313 0 010 8.625zm0-6.627a2.314 2.314 0 00-1.635 3.95 2.368 2.368 0 003.272 0A2.314 2.314 0 0016.813 4z"/>
  <path fill="#818181" d="M21.5 12a.997.997 0 01-.707-.293L18.45 9.364a1 1 0 111.414-1.414l2.343 2.343A1 1 0 0121.5 12z"/>
</svg>
