<svg xmlns="http://www.w3.org/2000/svg" width="24" height="24" fill="none" viewBox="0 0 24 24">
  <path fill="#B3B3B3" d="M21.7 7.21l-7.58 7.58a2.994 2.994 0 01-4.24 0L2.3 7.21A2.992 2.992 0 015 5.5h14a2.992 2.992 0 012.7 1.71z"/>
  <path fill="#CCC" d="M21.7 7.21l-7.58 7.58a2.994 2.994 0 01-4.24 0L2.3 7.21c-.197.402-.3.843-.3 1.29v10a3.009 3.009 0 003 3h14a3.009 3.009 0 003-3v-10c0-.447-.103-.888-.3-1.29z"/>
  <path fill="#818181" d="M19 8.5a1 1 0 110-2 1 1 0 10-.867-1.5 1 1 0 11-1.73-1A3 3 0 1119 8.5zm0 3a1.386 1.386 0 01-.2-.02.648.648 0 01-.18-.06.764.764 0 01-.18-.09 1.014 1.014 0 11.56.17z"/>
</svg>
