<svg xmlns="http://www.w3.org/2000/svg" width="24" height="24" fill="none" viewBox="0 0 24 24">
  <path fill="#B3B3B3" d="M21.7 7.968l-7.58 7.58a2.994 2.994 0 01-4.234.006l-.006-.006-7.58-7.58A2.992 2.992 0 015 6.258h14a2.992 2.992 0 012.7 1.71z"/>
  <path fill="#CCC" d="M21.7 7.968l-7.58 7.58a2.994 2.994 0 01-4.24 0L2.3 7.968c-.197.401-.3.843-.3 1.29v10a3.009 3.009 0 003 3h14a3.009 3.009 0 003-3v-10c0-.447-.103-.889-.3-1.29z"/>
  <path fill="#818181" d="M14.842 13.258c-.309 0-.61-.097-.861-.276a1.531 1.531 0 01-.627-1.51l.285-1.732-1.198-1.22a1.54 1.54 0 01-.36-1.573 1.509 1.509 0 011.205-1.024l1.621-.246.732-1.55a1.5 1.5 0 012.721-.001l.733 1.551 1.62.246c.564.087 1.03.483 1.207 1.024.186.55.047 1.16-.361 1.574L20.36 9.74l.285 1.731a1.53 1.53 0 01-.626 1.51 1.48 1.48 0 01-1.581.09L17 12.282l-1.438.79c-.22.122-.468.186-.72.186z"/>
</svg>
