<svg xmlns="http://www.w3.org/2000/svg" width="24" height="24" fill="none" viewBox="0 0 24 24">
  <path fill="#CCC" d="M21.2 7.968l-7.58 7.58a2.994 2.994 0 01-4.24 0L1.8 7.968c-.197.401-.3.843-.3 1.29v10a3.009 3.009 0 003 3h14a3.009 3.009 0 003-3v-10c0-.447-.103-.889-.3-1.29z"/>
  <path fill="#CCC" d="M19.5 9.258h-4a1 1 0 01-1-1v-2a3 3 0 016 0v2a1 1 0 01-1 1zm-3-2h2v-1a1 1 0 10-2 0v1z"/>
  <path fill="#B3B3B3" d="M16.5 6.258v1h2v-1h-2z"/>
  <path fill="#B3B3B3" d="M20.5 8.258c0 .27-.11.513-.283.693l.983-.983a2.982 2.982 0 00-.7-.934v1.224zm-1 1h-4a1 1 0 01-1-1v-2h-10a2.992 2.992 0 00-2.7 1.71l7.58 7.58.006.006a2.994 2.994 0 004.234-.006l6.574-6.574a.994.994 0 01-.693.284z"/>
  <path fill="#818181" d="M19.5 15.258h-4a3.003 3.003 0 01-3-3v-2a3.003 3.003 0 013-3h4a3.003 3.003 0 013 3v2a3.003 3.003 0 01-3 3z"/>
</svg>
