<svg xmlns="http://www.w3.org/2000/svg" width="24" height="24" fill="none" viewBox="0 0 24 24">
  <path fill="#B3B3B3" d="M21.2 7.71l-7.58 7.58a2.994 2.994 0 01-4.24 0L1.8 7.71A2.992 2.992 0 014.5 6h14a2.992 2.992 0 012.7 1.71z"/>
  <path fill="#CCC" d="M21.2 7.71l-7.58 7.58a2.994 2.994 0 01-4.24 0L1.8 7.71c-.197.402-.3.843-.3 1.29v10a3.009 3.009 0 003 3h14a3.009 3.009 0 003-3V9c0-.447-.103-.888-.3-1.29z"/>
  <path fill="#818181" d="M18.5 12a1 1 0 01-1-1V3a1 1 0 112 0v8a1 1 0 01-1 1z"/>
  <path fill="#818181" d="M21.5 7a.997.997 0 01-.707-.293L18.5 4.414l-2.293 2.293a1 1 0 01-1.414-1.414l3-3a1 1 0 011.414 0l3 3A1 1 0 0121.5 7z"/>
</svg>
