<svg xmlns="http://www.w3.org/2000/svg" width="24" height="24" fill="none" viewBox="0 0 24 24">
  <path fill="#818181" d="M19.196 17.405A5.966 5.966 0 0114.456 20c-2.677 0-5.01-2.004-5.982-5H14a1 1 0 000-2H8.054a9.206 9.206 0 010-2H14a1 1 0 000-2H8.475c.971-2.995 3.304-5 5.98-5a5.966 5.966 0 014.74 2.595 1 1 0 101.61-1.19A7.943 7.943 0 0014.454 2c-3.752 0-6.974 2.84-8.067 7H4a1 1 0 000 2h2.047c-.029.332-.047.666-.047 1 0 .334.018.668.047 1H4a1 1 0 000 2h2.388c1.094 4.161 4.315 7 8.067 7a7.944 7.944 0 006.35-3.405 1 1 0 00-1.61-1.19z"/>
</svg>
