<svg xmlns="http://www.w3.org/2000/svg" width="24" height="24" fill="none" viewBox="0 0 24 24">
  <path fill="#B3B3B3" d="M23 12c0-6.075-4.925-11-11-11S1 5.925 1 12s4.925 11 11 11 11-4.925 11-11z"/>
  <path fill="#818181" d="M15.207 14.946a3.335 3.335 0 01-2.62 1.387 3.433 3.433 0 01-2.92-1.833H12a1 1 0 000-2H9.048C9.032 12.333 9 12.168 9 12c0-.168.032-.333.048-.5H12a1 1 0 000-2H9.667a3.432 3.432 0 012.92-1.833 3.335 3.335 0 012.62 1.387 1 1 0 001.586-1.219 5.317 5.317 0 00-4.205-2.168A5.576 5.576 0 007.456 9.5H6a1 1 0 000 2h1.024c-.011.166-.024.333-.024.5 0 .167.013.334.024.5H6a1 1 0 100 2h1.455a5.577 5.577 0 005.133 3.833 5.318 5.318 0 004.205-2.168 1 1 0 10-1.586-1.219z"/>
</svg>
