<svg xmlns="http://www.w3.org/2000/svg" width="24" height="24" fill="none" viewBox="0 0 24 24">
  <path fill="#B3B3B3" d="M15.462 16.462a1.021 1.021 0 01-1.025-1 .993.993 0 01.6-.926.964.964 0 01.425-.1.978.978 0 011 .957v.018a1.044 1.044 0 01-1 1.05zm0-3.462a.964.964 0 01-1-.958v-.084a1 1 0 112 0c.003.56-.44 1.022-1 1.042zm0-3.436a.993.993 0 01-.926-.6.965.965 0 01-.1-.426.978.978 0 01.975-1 1.044 1.044 0 011.05 1 1.021 1.021 0 01-1 1.026zm-3.42-.026h-.084a1 1 0 110-2c.56-.003 1.022.44 1.042 1a.964.964 0 01-.958 1zm-3.504.026a.978.978 0 01-1-.975 1.044 1.044 0 011-1.05 1.021 1.021 0 011.026 1 .993.993 0 01-.6.925.965.965 0 01-.426.1zm0 3.478a1 1 0 01-1-.999v-.001a1.036 1.036 0 011-1.042.965.965 0 011 .958v.084a1 1 0 01-.999 1zm.05 3.42a1.044 1.044 0 01-1.05-1 1.021 1.021 0 011-1.025.993.993 0 01.926.6c.065.132.1.277.1.425a.978.978 0 01-.975 1zm3.454 0a1.036 1.036 0 01-1.042-1 .964.964 0 01.958-1h.084a1 1 0 110 2z"/>
  <path fill="#818181" d="M21.001 7.54H16.46V3a1 1 0 00-.999-1H3a1 1 0 00-1 .999V15.46a1 1 0 00.999 1H7.54V21a1 1 0 00.999 1H21a1 1 0 001-.999V8.54a1 1 0 00-.999-1zm-5.54 3.418a1 1 0 011 1c.005.56-.439 1.022-1 1.042v1.437a.978.978 0 011 .974 1.044 1.044 0 01-1 1.05 1.021 1.021 0 01-1.024-1h-1.395a1 1 0 01-1 1 1.036 1.036 0 01-1.042-1H9.563a.978.978 0 01-.955 1h-.02a1.044 1.044 0 01-1.05-1 1.021 1.021 0 011-1.024v-1.395a1 1 0 01-1-.999v-.001a1.036 1.036 0 011-1.042V9.563a.978.978 0 01-1-.974 1.044 1.044 0 011-1.05 1.021 1.021 0 011.025 1h1.395a1 1 0 011-1c.56-.004 1.022.439 1.042 1h1.437a.978.978 0 01.956-1h.018a1.044 1.044 0 011.05 1 1.021 1.021 0 01-1 1.024v1.395z"/>
</svg>
