<svg xmlns="http://www.w3.org/2000/svg" width="24" height="24" fill="none" viewBox="0 0 24 24">
  <path fill="#818181" d="M13.5 11.5a1 1 0 01-.707-1.707l7.5-7.5a1.001 1.001 0 011.635 1.09 1 1 0 01-.221.324l-7.5 7.5a.997.997 0 01-.707.293z"/>
  <path fill="#818181" d="M21 8a1 1 0 01-1-1V4h-3a1 1 0 110-2h4a1 1 0 011 1v4a1 1 0 01-1 1zM7 22H3a1 1 0 01-1-1v-4a1 1 0 112 0v3h3a1 1 0 010 2z"/>
  <path fill="#818181" d="M3 22a1 1 0 01-.707-1.707l7.5-7.5a1 1 0 011.414 1.414l-7.5 7.5A.997.997 0 013 22z"/>
</svg>
