<svg xmlns="http://www.w3.org/2000/svg" width="24" height="24" fill="none" viewBox="0 0 24 24">
  <path fill="#818181" d="M14.829 10.172a1 1 0 01-.707-1.707l6.171-6.172a1.001 1.001 0 011.635 1.09 1 1 0 01-.221.324l-6.171 6.172a.998.998 0 01-.707.293z"/>
  <path fill="#B3B3B3" d="M14.829 15.828a.995.995 0 01-.707-.293L8.464 9.88a1 1 0 011.414-1.414l5.658 5.656a1 1 0 01-.707 1.707z"/>
  <path fill="#818181" d="M3 22a1 1 0 01-.707-1.707l6.171-6.172a1 1 0 111.414 1.414l-6.171 6.172A.995.995 0 013 22z"/>
  <path fill="#818181" d="M7 22H3a1 1 0 01-1-1v-4a1 1 0 112 0v3h3a1 1 0 010 2zM21 8a1 1 0 01-1-1V4h-3a1 1 0 110-2h4a1 1 0 011 1v4a1 1 0 01-1 1z"/>
</svg>
