<svg xmlns="http://www.w3.org/2000/svg" width="24" height="24" fill="none" viewBox="0 0 24 24">
  <path fill="#818181" d="M9.172 10.172a1 1 0 01-.707-.293L2.293 3.707a1 1 0 011.414-1.414l6.172 6.172a1 1 0 01-.707 1.707z"/>
  <path fill="#B3B3B3" d="M9.172 15.828a1 1 0 01-.707-1.707l5.656-5.656a1 1 0 011.414 1.414L9.88 15.535a.997.997 0 01-.707.293z"/>
  <path fill="#818181" d="M21 22a.998.998 0 01-.707-.293l-6.172-6.172a1 1 0 011.414-1.414l6.172 6.172A1 1 0 0121 22z"/>
  <path fill="#818181" d="M21 22h-4a1 1 0 010-2h3v-3a1 1 0 012 0v4a.998.998 0 01-1 1zM3 8a1 1 0 01-1-1V3a1 1 0 011-1h4a1 1 0 010 2H4v3a1 1 0 01-1 1z"/>
</svg>
