<svg xmlns="http://www.w3.org/2000/svg" width="24" height="24" fill="none" viewBox="0 0 24 24">
  <path fill="#B3B3B3" d="M19 22H5a2.939 2.939 0 01-2.126-.893 1 1 0 01.009-1.404l16.82-16.82a1 1 0 011.405-.009c.574.558.896 1.326.892 2.126v14a3.003 3.003 0 01-3 3zM11 8H7a1 1 0 010-2h4a1 1 0 110 2z"/>
  <path fill="#818181" d="M19 2H5a3.003 3.003 0 00-3 3v14c-.004.796.315 1.56.884 2.116L21.116 2.884A2.939 2.939 0 0019 2zm-8 6H7a1 1 0 110-2h4a1 1 0 110 2zm6 7h-1v-1a1 1 0 10-2 0v1h-1a1 1 0 100 2h1v1a1 1 0 102 0v-1h1a1 1 0 100-2z"/>
</svg>
