<svg xmlns="http://www.w3.org/2000/svg" width="24" height="24" fill="none" viewBox="0 0 24 24">
  <path fill="#B3B3B3" d="M12 2a9.65 9.65 0 00-10 9.7 9.49 9.49 0 003.14 7.175.807.807 0 01.27.57l.055 1.779a.801.801 0 001.122.708l1.984-.875a.798.798 0 01.534-.04c.943.257 1.917.386 2.895.384A9.705 9.705 0 1012 2z"/>
  <path fill="#818181" d="M6.499 14.772a1 1 0 01-.765-1.642l3.052-3.636a.996.996 0 011.289-.21l3.347 2.056 2.312-2.755a1 1 0 011.531 1.285L14.4 13.286a1 1 0 01-1.289.21L9.764 11.44l-2.499 2.975a.994.994 0 01-.766.357z"/>
</svg>
