<svg xmlns="http://www.w3.org/2000/svg" width="24" height="24" fill="none" viewBox="0 0 24 24">
  <path fill="#818181" d="M21.205 8.5h-3a1 1 0 110-2h3a1 1 0 110 2zm0 4h-2a1 1 0 110-2h2a1 1 0 110 2z"/>
  <path fill="#B3B3B3" d="M2.497 7.571A2.995 2.995 0 014.795 6.5h7.938c1.089 0 2.092.59 2.619 1.543l-3.905 4.416a2.978 2.978 0 01-4.142.348l-5.32-4.311c.114-.336.288-.65.512-.925z"/>
  <path fill="#CCC" d="M15.308 7.985zm0 0l.04.063.004-.005c-.012-.021-.031-.037-.044-.058zm.38.994a2.897 2.897 0 00-.34-.93l-2.14 2.418-1.761 1.992a2.978 2.978 0 01-4.142.348l-5.32-4.311v-.003l-.002-.002a2.926 2.926 0 00-.142 1.53l.881 5A2.995 2.995 0 005.676 17.5h7.939a3 3 0 002.955-3.52l-.882-5.001z"/>
</svg>
