<svg xmlns="http://www.w3.org/2000/svg" width="24" height="24" fill="none" viewBox="0 0 24 24">
  <path fill="#818181" d="M9.025 23H2a1 1 0 01-1-1v-7.945c0-.14.03-.279.086-.407l2.246-5.054A1 1 0 014.246 8a3.257 3.257 0 013.052 4.395l-.246.66h2.892a2.444 2.444 0 012.405 2.882l-.92 5.055A2.443 2.443 0 019.026 23z"/>
  <path fill="#B3B3B3" d="M19.754 16a3.257 3.257 0 01-3.052-4.395l.246-.66h-2.892a2.444 2.444 0 01-2.405-2.882l.92-5.055A2.443 2.443 0 0114.974 1H22a1 1 0 011 1v7.945c0 .14-.03.279-.086.407l-2.246 5.054a1 1 0 01-.914.594z"/>
</svg>
