<svg xmlns="http://www.w3.org/2000/svg" width="24" height="24" fill="none" viewBox="0 0 24 24">
  <path fill="#CCC" d="M18 21a3 3 0 100-6 3 3 0 000 6z"/>
  <path fill="#B3B3B3" d="M15 18a3 3 0 013-3V9l-7-7H5a3 3 0 00-3 3v14a3 3 0 003 3h10a2.98 2.98 0 002.297-1.092A2.995 2.995 0 0115 18z"/>
  <path fill="#818181" d="M18 9h-5a2 2 0 01-2-2V2l7 7zm0 13a4 4 0 01-2.828-6.828 4.094 4.094 0 015.656 0 3.998 3.998 0 010 5.656A3.97 3.97 0 0118 22zm0-6a2 2 0 00-1.414 3.414 2.047 2.047 0 002.828 0A2 2 0 0018 16z"/>
  <path fill="#818181" d="M15.879 21.121a1 1 0 01-.707-1.707l4.242-4.242a1 1 0 111.414 1.414l-4.242 4.242a.997.997 0 01-.707.293zM11 18H7a1 1 0 110-2h4a1 1 0 110 2zm2-4H7a1 1 0 110-2h6a1 1 0 110 2zm-5-4H7a1 1 0 110-2h1a1 1 0 110 2z"/>
</svg>
