<svg xmlns="http://www.w3.org/2000/svg" width="24" height="24" fill="none" viewBox="0 0 24 24">
  <path fill="#B3B3B3" d="M20 9l-7-7H7a3 3 0 00-3 3v14a3 3 0 003 3h10a3 3 0 003-3V9z"/>
  <path fill="#818181" d="M20 9h-5a2 2 0 01-2-2V2l7 7zm-8.134 7a1 1 0 110-2A1 1 0 1011 12.5a1 1 0 01-1.732-1 3 3 0 112.598 4.5zm.004 3c-.134 0-.267-.027-.39-.08a.99.99 0 01-.32-.21 1.196 1.196 0 01-.22-.33 1.062 1.062 0 010-.76c.052-.123.126-.235.22-.33a1.034 1.034 0 011.41 0 .912.912 0 01.22.33.946.946 0 010 .76.988.988 0 01-.54.54.998.998 0 01-.38.08z"/>
</svg>
