<svg xmlns="http://www.w3.org/2000/svg" width="24" height="24" fill="none" viewBox="0 0 24 24">
  <path fill="#818181" d="M19 9h-5a2 2 0 01-2-2V2l7 7z"/>
  <path fill="#B3B3B3" d="M14 9a2 2 0 01-2-2V2H6a2.996 2.996 0 00-3 3v14a2.996 2.996 0 003 3h10a2.996 2.996 0 003-3V9h-5z"/>
  <path fill="#818181" d="M15.5 18h-.033a1.002 1.002 0 01-.72-.341l-2.796-3.196-1.244 1.244A1 1 0 0110 16H8a1 1 0 110-2h1.586l1.707-1.707a.968.968 0 01.74-.292 1.004 1.004 0 01.72.34l2.796 3.196 1.244-1.244A.998.998 0 0117.5 14H20a1 1 0 010 2h-2.086l-1.707 1.707A.998.998 0 0115.5 18z"/>
</svg>
