<svg xmlns="http://www.w3.org/2000/svg" width="24" height="24" fill="none" viewBox="0 0 24 24">
  <path fill="#B3B3B3" d="M11.936 23a2 2 0 100-4 2 2 0 000 4z"/>
  <path fill="#818181" d="M9.936 21c0-.366.106-.705.277-1H2.936a1 1 0 100 2h7.277a1.98 1.98 0 01-.277-1zm11-1h-7.277c.171.295.277.634.277 1s-.106.705-.277 1h7.277a1 1 0 100-2z"/>
  <path fill="#B3B3B3" d="M14 8a2 2 0 01-2-2V1H8a2.996 2.996 0 00-3 2.992V13a2.996 2.996 0 002.992 3H16a2.996 2.996 0 003-2.992V8h-5z"/>
  <path fill="#818181" d="M10.935 16v3.278A1.98 1.98 0 0111.936 19c.366 0 .704.105 1 .277V16h-2zM19 8h-5a2 2 0 01-2-2V1l7 7z"/>
</svg>
