<svg xmlns="http://www.w3.org/2000/svg" width="24" height="24" fill="none" viewBox="0 0 24 24">
  <path fill="#B3B3B3" d="M14 17.5c0-1.9 1.6-3.5 3.5-3.5.2 0 .3 0 .5.1V9l-7-7H5C3.3 2 2 3.3 2 5v14c0 1.7 1.3 3 3 3h10c.9 0 1.7-.4 2.3-1.1-1.9-.1-3.3-1.6-3.3-3.4z"/>
  <path fill="#818181" d="M18 9h-5c-1.1 0-2-.9-2-2V2l7 7z"/>
  <path fill="#CCC" d="M17.5 21c-1.9 0-3.5-1.6-3.5-3.5s1.6-3.5 3.5-3.5c.9 0 1.8.4 2.5 1 1.4 1.4 1.4 3.6 0 4.9-.7.7-1.6 1.1-2.5 1.1z"/>
  <path fill="#818181" d="M11 2v5c0 1.1.9 2 2 2h5l-7-7zm10.7 18.3l-1.2-1.2c-.2.3-.3.6-.6.8-.2.2-.5.4-.8.6l1.2 1.2c.2.2.4.3.7.3.3 0 .5-.1.7-.3.4-.4.4-1 0-1.4zM11 18H7c-.6 0-1-.4-1-1s.4-1 1-1h4c.6 0 1 .4 1 1s-.4 1-1 1zm2-4H7c-.6 0-1-.4-1-1s.4-1 1-1h6c.6 0 1 .4 1 1s-.4 1-1 1zm-5-4H7c-.6 0-1-.4-1-1s.4-1 1-1h1c.6 0 1 .4 1 1s-.4 1-1 1z"/>
</svg>
