<svg xmlns="http://www.w3.org/2000/svg" width="24" height="24" fill="none" viewBox="0 0 24 24">
  <path fill="#B3B3B3" d="M18.5 8.5l-7-7h-6a3 3 0 00-3 3v14a3 3 0 003 3h10a3 3 0 003-3v-10z"/>
  <path fill="#818181" d="M18.5 8.5h-5a2 2 0 01-2-2v-5l7 7zM18.5 16.5a2 2 0 100-4 2 2 0 000 4zM13.5 19a2 2 0 100-4 2 2 0 000 4zM18.5 21.5a2 2 0 100-4 2 2 0 000 4z"/>
  <path fill="#818181" d="M13.18 18.09a1 1 0 01-.418-1.907l4.506-2.074a1 1 0 11.837 1.817l-4.507 2.073a.993.993 0 01-.417.092z"/>
  <path fill="#818181" d="M17.686 20.164a.995.995 0 01-.417-.092L12.762 18a1 1 0 01.836-1.816l4.507 2.073a1 1 0 01-.42 1.908zM8.5 17.5h-1a1 1 0 010-2h1a1 1 0 010 2zm4-4h-5a1 1 0 010-2h5a1 1 0 010 2zm-4-4h-1a1 1 0 010-2h1a1 1 0 010 2z"/>
</svg>
