<svg xmlns="http://www.w3.org/2000/svg" width="24" height="24" fill="none" viewBox="0 0 24 24">
  <path fill="#B3B3B3" d="M19 9l-7-7H6a3 3 0 00-3 3v14a3 3 0 003 3h10a3 3 0 003-3V9z"/>
  <path fill="#818181" d="M19 9h-5a2 2 0 01-2-2V2l7 7zm1 9.254h-2.25a1 1 0 110-2H19v-1.25a1 1 0 012 0v2.25a.998.998 0 01-1 1z"/>
  <path fill="#818181" d="M17 22.004a4 4 0 113.871-4.996 1.002 1.002 0 01-.722 1.216 1 1 0 01-1.215-.724 2.002 2.002 0 10-.61 2 1 1 0 011.314 1.508c-.73.64-1.667.993-2.638.996zm-7-4.008H8a1 1 0 010-2h2a1 1 0 110 2zm3-4H8a1 1 0 010-2h5a1 1 0 010 2zm-4-4H8a1 1 0 110-2h1a1 1 0 010 2z"/>
</svg>
