<svg xmlns="http://www.w3.org/2000/svg" width="24" height="24" fill="none" viewBox="0 0 24 24">
  <path fill="#B3B3B3" d="M17 13a1 1 0 00-1 1v1h2v-1a1 1 0 00-1-1z"/>
  <path fill="#B3B3B3" d="M15 17a1 1 0 01-1-1v-2a3 3 0 013-3c.352 0 .686.072 1 .184V9l-7-7H5a3 3 0 00-3 3v14a3 3 0 003 3h10a3 3 0 003-3v-2h-3z"/>
  <path fill="#818181" d="M18 9h-5a2 2 0 01-2-2V2l7 7z"/>
  <path fill="#CCC" d="M19 17h-4a1 1 0 01-1-1v-2a3 3 0 016 0v2a1 1 0 01-1 1zm-3-2h2v-1a1 1 0 10-2 0v1z"/>
  <path fill="#818181" d="M9 18H7a1 1 0 110-2h2a1 1 0 110 2zm3-4H7a1 1 0 110-2h5a1 1 0 110 2zm-4-4H7a1 1 0 110-2h1a1 1 0 110 2zm11 12h-4a3.003 3.003 0 01-3-3v-1a3.003 3.003 0 013-3h4a3.003 3.003 0 013 3v1a3.003 3.003 0 01-3 3z"/>
</svg>
