<svg xmlns="http://www.w3.org/2000/svg" width="24" height="24" fill="none" viewBox="0 0 24 24">
  <path fill="#B3B3B3" d="M13 8a2 2 0 01-2-2V1H5a3 3 0 00-3 3v14a3 3 0 003 3h10a3 3 0 003-3V8h-5z"/>
  <path fill="#818181" d="M17.25 21H14a1 1 0 010-2h3.25a.75.75 0 100-1.5h-1.5a2.75 2.75 0 110-5.5H19a1 1 0 010 2h-3.25a.75.75 0 100 1.5h1.5a2.75 2.75 0 110 5.5z"/>
  <path fill="#818181" d="M16.5 23a1.001 1.001 0 01-1-1v-2a1 1 0 012 0v2a1.001 1.001 0 01-1 1zm0-9a1.001 1.001 0 01-1-1v-2a1 1 0 012 0v2a1.001 1.001 0 01-1 1zm1.503-6h-5a2 2 0 01-2-2V1l7 7zM21 22a.997.997 0 01-.707-.293l-9-9a1 1 0 011.414-1.414l9 9A1 1 0 0121 22z"/>
</svg>
