<svg xmlns="http://www.w3.org/2000/svg" width="24" height="24" fill="none" viewBox="0 0 24 24">
  <path fill="#B3B3B3" d="M20 9l-7-7H7a3 3 0 00-3 3v14a3 3 0 003 3h10a3 3 0 003-3V9z"/>
  <path fill="#818181" d="M20 9h-5a2 2 0 01-2-2V2l7 7zm-8 6a1 1 0 01-1-1v-2a1 1 0 012 0v2a1 1 0 01-1 1zm0 3a1.034 1.034 0 01-.71-.29 1.161 1.161 0 01-.21-.33.946.946 0 010-.76c.05-.121.121-.233.21-.33a1.034 1.034 0 011.42 0c.09.096.161.208.21.33A.837.837 0 0113 17a.99.99 0 01-.29.71c-.19.184-.445.288-.71.29z"/>
</svg>
