<svg xmlns="http://www.w3.org/2000/svg" width="24" height="24" fill="none" viewBox="0 0 24 24">
  <path fill="#B3B3B3" d="M19 9l-7-7H6a3 3 0 00-3 3v14a3 3 0 003 3h10a3 3 0 003-3V9z"/>
  <path fill="#818181" d="M19 9h-5a2 2 0 01-2-2V2l7 7zm-7 9H8a1 1 0 010-2h4a1 1 0 010 2zm2-4H8a1 1 0 010-2h6a1 1 0 010 2zm-5-4H8a1 1 0 110-2h1a1 1 0 010 2zm9 12a.998.998 0 01-1-1v-5a1 1 0 012 0v5a.998.998 0 01-1 1z"/>
  <path fill="#818181" d="M18 22a.997.997 0 01-.707-.293l-2-2a1 1 0 011.414-1.414L18 19.586l1.293-1.293a1 1 0 011.414 1.414l-2 2A.997.997 0 0118 22z"/>
</svg>
