<svg xmlns="http://www.w3.org/2000/svg" width="24" height="24" fill="none" viewBox="0 0 24 24">
  <path fill="#CCC" d="M16 13h-5a1 1 0 110-2h5a1 1 0 010 2zm2-4h-7a1 1 0 110-2h7a1 1 0 110 2z"/>
  <path fill="#B3B3B3" d="M18.003 9H11a1 1 0 010-2h3V2h-4a2.996 2.996 0 00-3 2.992V15a2.996 2.996 0 002.992 3H18a2.996 2.996 0 003-2.992V9h-2.997zM16 13h-5a1 1 0 010-2h5a1 1 0 110 2z"/>
  <path fill="#CCC" d="M10 18h-.008A2.996 2.996 0 017 15V6H6a2.996 2.996 0 00-3 2.992V19a2.996 2.996 0 002.992 3H14a2.996 2.996 0 003-2.992V18h-7z"/>
  <path fill="#818181" d="M21 9h-5a2 2 0 01-2-2V2l7 7z"/>
</svg>
