<svg xmlns="http://www.w3.org/2000/svg" width="24" height="24" fill="none" viewBox="0 0 24 24">
  <path fill="#B3B3B3" d="M20 9l-7-7H7a3 3 0 00-3 3v14a3 3 0 003 3h10a3 3 0 003-3V9z"/>
  <path fill="#818181" d="M20 9h-5a2 2 0 01-2-2V2l7 7zm-1 13a1.001 1.001 0 01-1-1v-2a1 1 0 012 0v2a1 1 0 01-1 1zm0-5a1.034 1.034 0 01-.71-.29.991.991 0 01-.21-1.09 1.15 1.15 0 01.21-.33c.095-.09.207-.162.33-.21a.915.915 0 01.76 0c.122.048.234.12.33.21.088.097.16.209.21.33a.988.988 0 01-.21 1.09c-.097.088-.209.16-.33.21A.999.999 0 0119 17zm-4 1H9a1 1 0 010-2h6a1 1 0 010 2zm0-4H9a1 1 0 010-2h6a1 1 0 010 2zm-5-4H9a1 1 0 110-2h1a1 1 0 110 2z"/>
</svg>
