<svg xmlns="http://www.w3.org/2000/svg" width="24" height="24" fill="none" viewBox="0 0 24 24">
  <path fill="#9A9A9A" d="M21 12H5a1 1 0 01-1-.999V9a3.003 3.003 0 013-3h12a3.003 3.003 0 013 3v2a1 1 0 01-.999 1H21z"/>
  <path fill="#B3B3B3" d="M4.124 11.458c-.011-.023-.032-.04-.042-.063.01.023.03.04.042.063zM21.001 12H5a.994.994 0 01-.691-.281c.004.004.005.01.01.013l5.9 5.484V21a1 1 0 001.447.895l3.56-1.78a1 1 0 00.553-.895v-2.004l5.9-5.484c.005-.003.006-.01.01-.014a.993.993 0 01-.689.282zm.917-.605c-.011.025-.033.043-.046.068.013-.025.035-.043.046-.068z"/>
  <path fill="#818181" d="M21 22a.997.997 0 01-.707-.293l-18-18a1 1 0 011.414-1.414l18 18A1 1 0 0121 22z"/>
</svg>
