<svg xmlns="http://www.w3.org/2000/svg" width="24" height="24" fill="none" viewBox="0 0 24 24">
  <path fill="#818181" d="M14.46 23.12c-.14 0-.28-.03-.407-.087a9.004 9.004 0 01-4.313-4.016 6.977 6.977 0 00.19 2.58.999.999 0 01-1.328 1.238A8.983 8.983 0 014.948 8.929a8.513 8.513 0 011.988-1.863l.23-.187a7.017 7.017 0 002.471-4.942 1 1 0 011.491-.806 8.717 8.717 0 014.268 9.092 5.78 5.78 0 001.398-1.778 1 1 0 011.399-.41c.083.048.16.107.23.174a8.995 8.995 0 01-3.654 14.863c-.1.032-.203.049-.308.05z"/>
</svg>
