<svg xmlns="http://www.w3.org/2000/svg" width="24" height="24" fill="none" viewBox="0 0 24 24">
  <path fill="#B3B3B3" d="M5.615 19.498a.981.981 0 00.867.502h11.035a1 1 0 00.865-1.504L14.592 12H9.408L5.62 18.496a.981.981 0 00-.004 1.002z"/>
  <path fill="#CCC" d="M20.11 17.488L15 8.73V4h1a1 1 0 100-2H8a1 1 0 100 2h1v4.73l-5.108 8.758A3 3 0 006.482 22h11.036a3.001 3.001 0 002.591-4.512zM17.517 20H6.482a.981.981 0 01-.867-.502.981.981 0 01.004-1.002L9.41 12h5.183l3.79 6.496A1 1 0 0117.518 20z"/>
  <path fill="#818181" d="M14 18a1 1 0 100-2 1 1 0 000 2zM10 17a1 1 0 100-2 1 1 0 000 2z"/>
</svg>
