<svg xmlns="http://www.w3.org/2000/svg" width="24" height="24" fill="none" viewBox="0 0 24 24">
  <path fill="#B3B3B3" d="M6.5 14.5c0 3 2.5 5.5 5.5 5.5s5.5-2.5 5.5-5.5c0-.9-.2-1.7-.6-2.5H7.1c-.4.8-.6 1.6-.6 2.5z"/>
  <path fill="#818181" d="M10 17a1 1 0 100-2 1 1 0 000 2zM14 18a1 1 0 100-2 1 1 0 000 2z"/>
  <path fill="#CCC" d="M15 7.6V4h1c.6 0 1-.4 1-1s-.4-1-1-1H8c-.6 0-1 .4-1 1s.4 1 1 1h1v3.6c-2.7 1.2-4.5 3.9-4.5 6.9 0 4.1 3.4 7.5 7.5 7.5 3 0 5.7-1.8 6.9-4.5 1.6-3.8-.1-8.2-3.9-9.9zM12 20c-3 0-5.5-2.5-5.5-5.5 0-.9.2-1.7.6-2.5h9.8c.4.8.6 1.6.6 2.5 0 3-2.5 5.5-5.5 5.5z"/>
</svg>
