<svg xmlns="http://www.w3.org/2000/svg" width="24" height="24" fill="none" viewBox="0 0 24 24">
  <path fill="#B3B3B3" d="M10 21a.99.99 0 01-.71-.29 1.162 1.162 0 01-.21-.33A.831.831 0 019 20a1 1 0 112 0 .99.99 0 01-1 1zm-4.5-1a1.003 1.003 0 011-1 1.003 1.003 0 011 1 1.003 1.003 0 01-1 1 1.004 1.004 0 01-1-1zM3 21a.99.99 0 01-.71-.29 1.162 1.162 0 01-.21-.33A1 1 0 012 20c.003-.265.107-.518.29-.71a1.047 1.047 0 011.42 0c.182.192.286.445.29.71a1 1 0 01-.08.38 1.16 1.16 0 01-.21.33A.993.993 0 013 21zm.76-4.03a.998.998 0 01-.73-1.21.994.994 0 011.21-.73 1 1 0 01.73 1.21A.992.992 0 014 17a.964.964 0 01-.24-.03zm.99-4a.993.993 0 01-.72-1.21.998.998 0 011.21-.73 1 1 0 01.73 1.21A1 1 0 015 13c-.084 0-.168-.01-.25-.03zm1.01-4a.998.998 0 01-.73-1.21.994.994 0 011.21-.73.999.999 0 01.73 1.21.992.992 0 01-1.21.73zM7 5a.99.99 0 01-1-1c.003-.265.107-.518.29-.71a1.034 1.034 0 011.41 0c.19.188.297.443.3.71a1.007 1.007 0 01-1 1zm3 0a.99.99 0 01-1-1c.003-.265.107-.518.29-.71a1.047 1.047 0 011.42 0c.182.192.286.445.29.71a.99.99 0 01-1 1zM9 16a1.003 1.003 0 011-1 1.003 1.003 0 011 1 1.003 1.003 0 01-1 1 1.004 1.004 0 01-1-1zm0-4a1.003 1.003 0 011-1 1.003 1.003 0 011 1 1.003 1.003 0 01-1 1 1.004 1.004 0 01-1-1zm0-4a1.003 1.003 0 011-1 1.003 1.003 0 011 1 1.003 1.003 0 01-1 1 1.003 1.003 0 01-1-1z"/>
  <path fill="#818181" d="M14 20h7L17 4h-3v16z"/>
  <path fill="#818181" d="M21 21h-7a.998.998 0 01-1-1V4a.998.998 0 011-1h3a1 1 0 01.97.758l4 16A.998.998 0 0121 21zm-6-2h4.719l-3.5-14H15v14z"/>
</svg>
