<svg xmlns="http://www.w3.org/2000/svg" width="24" height="24" fill="none" viewBox="0 0 24 24">
  <path fill="#B3B3B3" d="M20 11a.99.99 0 01-.71-.29 1.16 1.16 0 01-.21-.33.941.941 0 010-.76c.048-.122.12-.234.21-.33a1.046 1.046 0 011.42 0c.088.097.16.209.21.33a.941.941 0 010 .76 1.16 1.16 0 01-.21.33.994.994 0 01-.71.29zm-1-4.5a1.003 1.003 0 011-1 1.003 1.003 0 011 1 1.004 1.004 0 01-1 1 1.003 1.003 0 01-1-1zM20 4a.99.99 0 01-.92-1.38c.048-.122.12-.234.21-.33a1.047 1.047 0 011.42 0c.09.096.162.208.21.33a.99.99 0 01-.21 1.09c-.097.088-.209.16-.33.21A1 1 0 0120 4zM7.03 6.24a.994.994 0 01.73-1.21.99.99 0 011.21.73A1 1 0 018 7a.991.991 0 01-.97-.76zm4-1a.995.995 0 01.73-1.21.99.99 0 011.21.73.998.998 0 01-.73 1.21 1.003 1.003 0 01-1.21-.73zm4-1a.998.998 0 01.73-1.21 1.003 1.003 0 011.21.73A.998.998 0 0116 5a.99.99 0 01-.97-.76zM4 8a.99.99 0 01-1-1 .832.832 0 01.08-.38c.048-.122.12-.234.21-.33a1.047 1.047 0 011.42 0c.09.096.162.208.21.33A.99.99 0 014 8zm0 3a.99.99 0 01-.71-.29 1.161 1.161 0 01-.21-.33.941.941 0 010-.76c.05-.121.122-.233.21-.33a1.047 1.047 0 011.42 0c.088.097.16.209.21.33a.941.941 0 010 .76c-.05.12-.122.232-.21.33A.993.993 0 014 11zm11-1a1.003 1.003 0 011-1 1.003 1.003 0 011 1 1.004 1.004 0 01-1 1 1.004 1.004 0 01-1-1zm-4 0a1.003 1.003 0 011-1 1.003 1.003 0 011 1 1.004 1.004 0 01-1 1 1.004 1.004 0 01-1-1zm-4 0a1.003 1.003 0 011-1 1.003 1.003 0 011 1 1.003 1.003 0 01-1 1 1.004 1.004 0 01-1-1z"/>
  <path fill="#818181" d="M20 14v7L4 17v-3h16z"/>
  <path fill="#818181" d="M20 22a.975.975 0 01-.242-.03l-16-4A1 1 0 013 17v-3a1 1 0 011-1h16a.998.998 0 011 1v7a1 1 0 01-1 1zM5 16.219l14 3.5V15H5v1.219z"/>
</svg>
