<svg xmlns="http://www.w3.org/2000/svg" width="24" height="24" fill="none" viewBox="0 0 24 24">
  <path fill="#CCC" d="M12 22a1 1 0 01-1-1V3a1 1 0 012 0v18a1 1 0 01-1 1z"/>
  <path fill="#818181" d="M21 12l-5-5v10l5-5z"/>
  <path fill="#818181" d="M16 18a1 1 0 01-1-1V7a1 1 0 011.707-.707l5 5a.998.998 0 010 1.414l-5 5A1 1 0 0116 18zm1-8.586v5.172L19.586 12 17 9.414z"/>
  <path fill="#B3B3B3" d="M3 13a.991.991 0 01-.92-1.38 1.15 1.15 0 01.21-.33 1.047 1.047 0 011.42 0c.09.096.162.208.21.33A.838.838 0 014 12a.99.99 0 01-1 1zm1.79 2.21a1.008 1.008 0 010-1.42 1.006 1.006 0 011.42 0 1.008 1.008 0 010 1.42c-.19.185-.445.289-.71.29a1.026 1.026 0 01-.71-.29zM8 18a.992.992 0 01-.71-.29 1.16 1.16 0 01-.21-.33A.999.999 0 017 17a1.05 1.05 0 01.29-.71 1.039 1.039 0 011.09-.21c.121.05.233.122.33.21.183.192.286.445.29.71a1 1 0 01-.08.38 1.172 1.172 0 01-.21.33A.993.993 0 018 18zm-1-4.33a.996.996 0 011-1 .996.996 0 011 1 1.003 1.003 0 01-1 1 1.002 1.002 0 01-1-1zm0-3.34a1.003 1.003 0 011-1 1.003 1.003 0 011 1 .998.998 0 01-1 1 .997.997 0 01-1-1zM8 8a.99.99 0 01-.92-1.38.985.985 0 011.84 0A.99.99 0 018 8zm-3.21 2.21a1.007 1.007 0 010-1.42 1.007 1.007 0 011.42 0 1.009 1.009 0 010 1.42c-.19.185-.445.288-.71.29a1.026 1.026 0 01-.71-.29z"/>
</svg>
