<svg xmlns="http://www.w3.org/2000/svg" width="24" height="24" fill="none" viewBox="0 0 24 24">
  <path fill="#B3B3B3" d="M10.472 20a8.467 8.467 0 01-5.99-2.48 8.472 8.472 0 01-2.333-7.575.999.999 0 01.796-.797 8.472 8.472 0 019.907 9.907.998.998 0 01-.796.797 8.523 8.523 0 01-1.584.148z"/>
  <path fill="#B3B3B3" d="M13.528 20c-.531 0-1.062-.05-1.584-.148a1 1 0 01-.796-.797 8.473 8.473 0 019.907-9.907.999.999 0 01.796.797A8.473 8.473 0 0113.528 20z"/>
  <path fill="#818181" d="M12 20a.997.997 0 01-.563-.174 9.466 9.466 0 010-15.652.998.998 0 011.127 0 9.465 9.465 0 010 15.652A.997.997 0 0112 20z"/>
</svg>
