<svg xmlns="http://www.w3.org/2000/svg" width="24" height="24" fill="none" viewBox="0 0 24 24">
  <path fill="#B3B3B3" d="M19 21.5H5a3.003 3.003 0 01-3-3v-13a3.003 3.003 0 013-3h4.559a2.997 2.997 0 012.846 2.05l.316.95H19a3.003 3.003 0 013 3v10a3.004 3.004 0 01-3 3z"/>
  <path fill="#818181" d="M11.866 15.004a1 1 0 110-2 1 1 0 10-.866-1.5 1 1 0 01-1.732-1 3 3 0 112.598 4.5zM11.87 18a1.003 1.003 0 01-.39-.07 1.018 1.018 0 01-.535-.541.984.984 0 01-.075-.38.995.995 0 01.07-.389c.052-.12.127-.229.22-.32a.98.98 0 01.9-.28c.07.02.13.04.19.06.06.03.12.06.17.09.056.035.107.079.15.13a.878.878 0 01.22.32c.052.123.08.256.08.39a.996.996 0 01-.3.7c-.092.093-.2.168-.32.22a.991.991 0 01-.38.07z"/>
</svg>
