<svg xmlns="http://www.w3.org/2000/svg" width="24" height="24" fill="none" viewBox="0 0 24 24">
  <path fill="#B3B3B3" d="M19 21.5H5a3.003 3.003 0 01-3-3v-13a3.003 3.003 0 013-3h4.559a2.997 2.997 0 012.846 2.05l.316.95H19a3.003 3.003 0 013 3v10a3.004 3.004 0 01-3 3z"/>
  <path fill="#818181" d="M12 14.5a.998.998 0 01-1-1v-2a1 1 0 012 0v2a.998.998 0 01-1 1zm0 3a.99.99 0 01-.71-.29 1.16 1.16 0 01-.21-.33 1 1 0 01-.06-.58.65.65 0 01.06-.18.743.743 0 01.09-.18l.12-.15a.997.997 0 01.9-.27c.066.009.13.03.19.06a.736.736 0 01.18.09l.15.12c.043.047.083.097.12.15a.778.778 0 01.09.18c.029.057.049.117.06.18.012.066.018.133.02.2a.992.992 0 01-.07.38c-.058.12-.132.23-.22.33-.1.088-.21.162-.33.22a.988.988 0 01-.38.07z"/>
</svg>
