<svg xmlns="http://www.w3.org/2000/svg" width="24" height="24" fill="none" viewBox="0 0 24 24">
  <path fill="#B3B3B3" d="M12 21a2 2 0 100-4 2 2 0 000 4z"/>
  <path fill="#818181" d="M10 19c0-.366.106-.705.277-1H3a1 1 0 100 2h7.277A1.98 1.98 0 0110 19zm11-1h-7.277c.171.295.277.634.277 1s-.106.705-.277 1H21a1 1 0 100-2z"/>
  <path fill="#B3B3B3" d="M16.667 14H7.333A2.336 2.336 0 015 11.666V4.333A2.336 2.336 0 017.333 2h3.039a2.33 2.33 0 012.214 1.595L12.72 4h3.946A2.336 2.336 0 0119 6.333v5.333A2.336 2.336 0 0116.667 14z"/>
  <path fill="#818181" d="M12 17c.366 0 .705.106 1 .277V14h-2v3.277A1.98 1.98 0 0112 17z"/>
</svg>
