<svg xmlns="http://www.w3.org/2000/svg" width="24" height="24" fill="none" viewBox="0 0 24 24">
  <path fill="#B3B3B3" d="M19 21.5H5a3.003 3.003 0 01-3-3v-13a3.003 3.003 0 013-3h4.559a2.996 2.996 0 012.845 2.05l.317.95H19a3.003 3.003 0 013 3v10a3.004 3.004 0 01-3 3z"/>
  <path fill="#818181" d="M12 17.5a.998.998 0 01-1-1v-2a1 1 0 012 0v2a.998.998 0 01-1 1zm0-5a.998.998 0 01-.71-.3.951.951 0 01-.29-.7c.004-.265.107-.518.29-.71a.933.933 0 01.33-.21 1.003 1.003 0 011.09.21.93.93 0 01.21.33.999.999 0 01.007.76 1.01 1.01 0 01-.548.54.999.999 0 01-.379.08z"/>
</svg>
