<svg xmlns="http://www.w3.org/2000/svg" width="24" height="24" fill="none" viewBox="0 0 24 24">
  <path fill="#CCC" d="M20 17h-4a1 1 0 01-1-1v-2a3 3 0 016 0v2a1 1 0 01-1 1zm-3-2h2v-1a1 1 0 10-2 0v1z"/>
  <path fill="#B3B3B3" d="M17 14v1h2v-1a1 1 0 10-2 0z"/>
  <path fill="#B3B3B3" d="M21 14V8a3.003 3.003 0 00-3-3h-6.28l-.315-.95A2.997 2.997 0 008.559 2H4a3.003 3.003 0 00-3 3v13a3.003 3.003 0 003 3h14a3.003 3.003 0 003-3v-2a1 1 0 01-1 1h-4a1 1 0 01-1-1v-2a3 3 0 116 0z"/>
  <path fill="#818181" d="M20 23h-4a3.003 3.003 0 01-3-3v-2a3.003 3.003 0 013-3h4a3.003 3.003 0 013 3v2a3.003 3.003 0 01-3 3z"/>
</svg>
