<svg xmlns="http://www.w3.org/2000/svg" width="24" height="24" fill="none" viewBox="0 0 24 24">
  <path fill="#B3B3B3" d="M19 21.5H5a3.003 3.003 0 01-3-3v-13a3.003 3.003 0 013-3h4.559a2.996 2.996 0 012.845 2.05l.317.95H19a3.003 3.003 0 013 3v10a3.004 3.004 0 01-3 3z"/>
  <path fill="#818181" d="M12 17.5a.998.998 0 01-1-1v-5a1 1 0 012 0v5a.998.998 0 01-1 1z"/>
  <path fill="#818181" d="M14 14.5a.997.997 0 01-.707-.293L12 12.914l-1.293 1.293a1 1 0 01-1.414-1.414l2-2a1 1 0 011.414 0l2 2A1 1 0 0114 14.5z"/>
</svg>
