<svg xmlns="http://www.w3.org/2000/svg" width="24" height="24" fill="none" viewBox="0 0 24 24">
  <path fill="#B3B3B3" d="M14.667 18.5H5.5a3.5 3.5 0 01-.936-6.873 5.998 5.998 0 0111.406-1.585 4.329 4.329 0 01-1.303 8.458z"/>
  <path fill="#818181" d="M21.973 8.049a1 1 0 00-1.205-.741 2.775 2.775 0 01-.658.082 3.003 3.003 0 01-3-3c0-.22.028-.44.082-.655a1 1 0 00-1.196-1.21 4.967 4.967 0 00-3.831 4.215 5.995 5.995 0 013.805 3.302 4.315 4.315 0 012.542 2.133 4.965 4.965 0 003.463-3.67c.034-.15.034-.307-.002-.457zM10.5 21.5a3.003 3.003 0 01-3-3c0-2.475 2.338-4.093 2.438-4.16.337-.228.778-.23 1.117-.005.1.067 2.445 1.661 2.445 4.165a3.003 3.003 0 01-3 3z"/>
</svg>
