<svg xmlns="http://www.w3.org/2000/svg" width="24" height="24" fill="none" viewBox="0 0 24 24">
  <path fill="#B3B3B3" d="M18.914 21.936c-.13 0-.259-.009-.388-.025A19.093 19.093 0 017.501 16.5 19.094 19.094 0 012.09 5.474a3.037 3.037 0 01.73-2.394 2.993 2.993 0 012.248-1.016h3.026a2.981 2.981 0 012.954 2.49 10.037 10.037 0 00.513 1.988 1.994 1.994 0 01-1.037 2.481l-.457.213a12.501 12.501 0 004.698 4.699l.213-.458a1.997 1.997 0 012.482-1.037 10.192 10.192 0 001.986.512 2.982 2.982 0 012.49 2.955v3.027a2.996 2.996 0 01-1.015 2.247 3.036 3.036 0 01-2.006.755z"/>
  <path fill="#818181" d="M21.643 4.857l-2.5-2.5a1 1 0 00-1.415 1.414l.793.793h-3.586a1 1 0 000 2h3.586l-.793.793a1 1 0 101.414 1.415l2.5-2.5a1 1 0 000-1.415z"/>
</svg>
