<svg xmlns="http://www.w3.org/2000/svg" width="24" height="24" fill="none" viewBox="0 0 24 24">
  <path fill="#818181" d="M9 22a1 1 0 01-1-1v-1H4v1a1 1 0 11-2 0v-2a1 1 0 011-1h6a1 1 0 011 1v2a1 1 0 01-1 1zm12 0a1 1 0 01-1-1v-1h-4v1a1 1 0 11-2 0v-2a1 1 0 011-1h6a1 1 0 011 1v2a1 1 0 01-1 1z"/>
  <path fill="#818181" d="M18 20a1 1 0 01-1-1v-3H7v3a1 1 0 11-2 0v-4a1 1 0 011-1h12a1 1 0 011 1v4a1 1 0 01-1 1z"/>
  <path fill="#B3B3B3" d="M14.6 12a.997.997 0 01-.466-.115L12 10.764l-2.134 1.12a1 1 0 01-1.451-1.053l.408-2.376-1.727-1.684a1 1 0 01.554-1.705l2.386-.346 1.067-2.162a1.041 1.041 0 011.794 0l1.067 2.162 2.385.346a1 1 0 01.555 1.705l-1.727 1.684.408 2.376A1 1 0 0114.599 12z"/>
  <path fill="#818181" d="M12 10.764l-1 .525V15a1 1 0 002 0v-3.71l-1-.526z"/>
</svg>
