<svg xmlns="http://www.w3.org/2000/svg" width="24" height="24" fill="none" viewBox="0 0 24 24">
  <path fill="#B3B3B3" d="M14 10H2V5a3 3 0 013-3h6a3 3 0 013 3v5z"/>
  <path fill="#818181" d="M2 19a3.003 3.003 0 003 3h6a3.003 3.003 0 003-3v-9H2v9z"/>
  <path fill="#CCC" d="M22 9.83v4l-4.25-4.25a1.995 1.995 0 01-.48-2.04l1.02-3.08.1-.31.61.6 1.54 1.54A4.993 4.993 0 0122 9.83z"/>
  <path fill="#818181" d="M17.69 6.273l.6-1.813.1-.31-.803-.807a1 1 0 10-1.414 1.414l1.516 1.516z"/>
  <path fill="#B3B3B3" d="M20 11.83V19a1 1 0 11-2 0v-2a3.003 3.003 0 00-3-3h-1v2h1a1 1 0 011 1v2a3 3 0 106 0v-5.17l-2-2z"/>
</svg>
