<svg xmlns="http://www.w3.org/2000/svg" width="24" height="24" fill="none" viewBox="0 0 24 24">
  <path fill="#B3B3B3" d="M4.66 9L5.81 19.331A2.996 2.996 0 008.79 22h6.42a2.996 2.996 0 002.982-2.669L19.338 9H4.661z"/>
  <path fill="#CCC" d="M8.79 22zm-2.368-1.156z"/>
  <path fill="#818181" d="M10 18a1 1 0 01-1-.999V13a1 1 0 112 0v4a1 1 0 01-.999 1H10zm4 0a1 1 0 01-1-.999V13a1 1 0 112 0v4a1 1 0 01-.999 1H14z"/>
  <path fill="#CCC" d="M16.766 2H7.234a3 3 0 00-2.982 3.331L4.662 9h14.678l.408-3.669A3 3 0 0016.766 2z"/>
</svg>
