<svg xmlns="http://www.w3.org/2000/svg" width="24" height="24" fill="none" viewBox="0 0 24 24">
  <path fill="#818181" d="M17.25 22H6.75a1 1 0 110-2h10.5a1 1 0 110 2z"/>
  <path fill="#B3B3B3" d="M12 16.737c.302-.002.587-.137.78-.37l4.379-5.477H6.84l4.379 5.477c.193.233.478.368.78.37z"/>
  <path fill="#CCC" d="M11.553 16.626zm.106.033zm.85-.081c.039-.023.082-.032.117-.06a1 1 0 00.138-.138 1.013 1.013 0 01-.255.198zm-.15.077z"/>
  <path fill="#818181" d="M12.78 16.367a1.022 1.022 0 01-.78.37 1.022 1.022 0 01-.78-.37l-.22-.275V20.489a1 1 0 001 .998h.001a1 1 0 00.999-1v-4.395l-.22.275z"/>
  <path fill="#CCC" d="M17.159 10.89l2.626-3.283a1 1 0 00-.78-1.624H4.994a1 1 0 00-.78 1.624L6.84 10.89H17.16z"/>
  <path fill="#818181" d="M19 18a.997.997 0 01-.707-.293l-14-14a1 1 0 011.414-1.414l14 14A1 1 0 0119 18z"/>
</svg>
