<svg xmlns="http://www.w3.org/2000/svg" width="24" height="24" fill="none" viewBox="0 0 24 24">
  <path fill="#B3B3B3" d="M12 22a10 10 0 1110-10 10.011 10.011 0 01-10 10z"/>
  <path fill="#818181" d="M12 2a10 10 0 1010 10A10.011 10.011 0 0012 2zM4 12a7.96 7.96 0 01.263-2h1.853a17.26 17.26 0 000 4H4.263A7.96 7.96 0 014 12zm4 0c0-.669.047-1.337.137-2H11v4H8.137A14.845 14.845 0 018 12zm5-7.702A6.369 6.369 0 0115.435 8H13V4.298zm-2 0V8H8.565A6.369 6.369 0 0111 4.298zM11 16v3.703A6.37 6.37 0 018.565 16H11zm2 3.703V16h2.435A6.37 6.37 0 0113 19.703zM13 14v-4h2.863a14.625 14.625 0 010 4H13zm4.884-4h1.853a7.727 7.727 0 010 4h-1.853a17.251 17.251 0 000-4zm1.034-2h-1.403a12.1 12.1 0 00-.964-2.57A8.053 8.053 0 0118.918 8zM7.449 5.43c-.418.817-.741 1.68-.964 2.57H5.082A8.054 8.054 0 017.45 5.43zM5.082 16h1.403c.223.891.546 1.754.964 2.571a8.054 8.054 0 01-2.367-2.57zm11.469 2.571c.418-.817.741-1.68.964-2.57h1.402a8.052 8.052 0 01-2.366 2.57z"/>
</svg>
