<svg xmlns="http://www.w3.org/2000/svg" width="24" height="24" fill="none" viewBox="0 0 24 24">
  <path fill="#818181" d="M16 11H8c-.3 0-.6-.1-.8-.4-.2-.2-.2-.5-.2-.8l1-5c.1-.5.5-.8 1-.8h6c.5 0 .9.3 1 .8l1 5c.1.3 0 .6-.2.8-.2.3-.5.4-.8.4z"/>
  <path fill="#B3B3B3" d="M10 20H2c-.3 0-.6-.1-.8-.4-.2-.3-.2-.5-.2-.8l1-5c.1-.5.5-.8 1-.8h6c.5 0 .9.3 1 .8l1 5c.1.3 0 .6-.2.8-.2.2-.5.4-.8.4zm12 0h-8c-.3 0-.6-.1-.8-.4-.2-.2-.2-.5-.2-.8l1-5c.1-.5.5-.8 1-.8h6c.5 0 .9.3 1 .8l1 5c.1.3 0 .6-.2.8-.2.3-.5.4-.8.4z"/>
</svg>
