<svg xmlns="http://www.w3.org/2000/svg" width="24" height="24" fill="none" viewBox="0 0 24 24">
  <path fill="#B3B3B3" d="M12 23a1.001 1.001 0 01-1-1v-1.477a9.843 9.843 0 1110.705-8.527 12.531 12.531 0 01-9.466 10.975A.995.995 0 0112 23z"/>
  <path fill="#818181" d="M9 11.689a2 2 0 110-4 2 2 0 010 4z"/>
  <path fill="#818181" d="M8.515 14.688a1 1 0 010-2 .5.5 0 00.5-.5v-2.5a1 1 0 112 0v2.5a2.502 2.502 0 01-2.5 2.5zm6.485-3a2 2 0 110-4 2 2 0 010 4z"/>
  <path fill="#818181" d="M14.515 14.688a1 1 0 010-2 .501.501 0 00.5-.5v-2.5a1 1 0 012 0v2.5a2.502 2.502 0 01-2.5 2.5z"/>
</svg>
