<svg xmlns="http://www.w3.org/2000/svg" width="24" height="24" fill="none" viewBox="0 0 24 24">
  <path fill="#B3B3B3" d="M14.556 12.895l2.572 2.554 3.786-2.186c.506-.253.83-.766.842-1.332a1.474 1.474 0 00-.837-1.275c-.314-.17-3.01-1.734-4.023-2.323l-.003-.002L4.64 1.256a1.644 1.644 0 00-1.657-.06c-.05.034-.097.071-.142.111l11.716 11.588z"/>
  <path fill="#9A9A9A" d="M20.92 10.656c-.295-.159-2.658-1.53-3.792-2.188l-2.597 2.577L2.785 22.698c.048.044.1.084.154.12.208.12.445.182.686.181.292-.004.578-.084.83-.232.389-.226 12.439-7.182 12.439-7.182l4.02-2.322c.506-.253.83-.766.842-1.332a1.474 1.474 0 00-.837-1.275z"/>
  <path fill="#CCC" d="M13.61 11.96L2.84 1.309a1.509 1.509 0 00-.597 1.252v18.985c-.013.452.197.871.543 1.15L13.61 11.96z"/>
  <path fill="#818181" d="M20.919 10.656c-.744-.4-3.37-1.944-3.791-2.188l-2.597 2.577-.921.915.946.935 2.573 2.554 3.785-2.186c.506-.253.83-.766.842-1.332a1.474 1.474 0 00-.837-1.275z"/>
</svg>
