<svg xmlns="http://www.w3.org/2000/svg" width="24" height="24" fill="none" viewBox="0 0 24 24">
  <path fill="#B3B3B3" d="M12 2C6.477 2 2 6.477 2 12s4.477 10 10 10 10-4.477 10-10S17.523 2 12 2zm3 12v1a3.003 3.003 0 01-3 3 3.003 3.003 0 01-3-3v-1a1 1 0 01.999-1H14a1 1 0 011 .999V14z"/>
  <path fill="#818181" d="M16.914 10.836a.997.997 0 01-.707-.293 1.033 1.033 0 00-1.414 0 1 1 0 01-1.414-1.414 3.073 3.073 0 014.242 0 1 1 0 01-.707 1.707zM9 11a1 1 0 100-2 1 1 0 000 2z"/>
  <path fill="#9A9A9A" d="M12 18a3.003 3.003 0 01-3-3v-1a1 1 0 01.999-1H14a1 1 0 011 .999V15a3.003 3.003 0 01-3 3z"/>
</svg>
