<svg xmlns="http://www.w3.org/2000/svg" width="24" height="24" fill="none" viewBox="0 0 24 24">
  <path fill="#B3B3B3" d="M19 22H5a3.003 3.003 0 01-3-3v-4a3.003 3.003 0 013-3h14a3.003 3.003 0 013 3v4a3.003 3.003 0 01-3 3z"/>
  <path fill="#CCC" d="M21.985 14.858c0-.008.003-.014.001-.022l-.008-.047c.002.024.006.046.007.07zM2.021 14.79l-.007.047a1.01 1.01 0 00-.014.16c0-.071.017-.137.021-.207zM5 12h14a2.995 2.995 0 012.884 2.219l-1.62-9.712A2.99 2.99 0 0017.307 2H6.694a2.99 2.99 0 00-2.959 2.507l-1.618 9.712A2.995 2.995 0 015 12z"/>
  <path fill="#818181" d="M17 18a1 1 0 100-2 1 1 0 000 2z"/>
</svg>
