<svg xmlns="http://www.w3.org/2000/svg" width="24" height="24" fill="none" viewBox="0 0 24 24">
  <path fill="#818181" d="M12 5.73a5.273 5.273 0 00-7.456 0 5.272 5.272 0 000 7.456l1.864 1.864 4.178 4.178a2 2 0 002.828 0l6.042-6.042a5.27 5.27 0 000-7.456 5.273 5.273 0 00-7.456 0z"/>
  <path fill="#818181" d="M12 20.814a2.98 2.98 0 01-2.121-.879l-6.042-6.041A6.272 6.272 0 0112 4.413a6.273 6.273 0 018.163 9.48l-6.042 6.041a2.98 2.98 0 01-2.121.879zM8.272 5.188a4.27 4.27 0 00-3.021 7.292l6.042 6.041a1.002 1.002 0 001.414 0l6.042-6.042a4.272 4.272 0 00-6.042-6.042 1 1 0 01-1.414 0 4.258 4.258 0 00-3.021-1.249z"/>
</svg>
