<svg xmlns="http://www.w3.org/2000/svg" width="24" height="24" fill="none" viewBox="0 0 24 24">
  <path fill="#818181" d="M12 2a10.016 10.016 0 00-6.994 2.872V3a1 1 0 00-2 0v4.5a1 1 0 001 1h4.5a1 1 0 000-2H6.218A7.98 7.98 0 114 12a1 1 0 10-2 0A10 10 0 1012 2z"/>
  <path fill="#818181" d="M14 13h-2a1 1 0 01-1-1V9a1 1 0 012 0v2h1a1 1 0 010 2z"/>
  <path fill="#B3B3B3" d="M12 4a8.008 8.008 0 00-5.782 2.5h2.288a1 1 0 010 2h-4.5a.99.99 0 01-.978-.889A9.922 9.922 0 002 12a1 1 0 112 0 8 8 0 108-8zm2 9h-2a1 1 0 01-1-1V9a1 1 0 012 0v2h1a1 1 0 010 2z"/>
</svg>
