<svg xmlns="http://www.w3.org/2000/svg" width="24" height="24" fill="none" viewBox="0 0 24 24">
  <path fill="#B3B3B3" d="M12.5 14.5h-1a1 1 0 010-2h1a1 1 0 010 2zm0 4h-1a1 1 0 010-2h1a1 1 0 010 2zm-5-4h-1a1 1 0 010-2h1a1 1 0 010 2zm0 4h-1a1 1 0 010-2h1a1 1 0 010 2zm10-4h-1a1 1 0 010-2h1a1 1 0 010 2zm0 4h-1a1 1 0 010-2h1a1 1 0 010 2z"/>
  <path fill="#818181" d="M13.5 7H13v-.5a1 1 0 00-2 0V7h-.5a1 1 0 000 2h.5v.5a1 1 0 002 0V9h.5a1 1 0 100-2z"/>
  <path fill="#CCC" d="M21.5 6.5h-3v-4a1 1 0 00-1-1h-11a1 1 0 00-1 1v4h-3a1 1 0 00-1 1v14a1 1 0 001 1h19a1 1 0 001-1v-14a1 1 0 00-1-1zm-14 12h-1a1 1 0 010-2h1a1 1 0 010 2zm0-4h-1a1 1 0 010-2h1a1 1 0 010 2zm5 4h-1a1 1 0 010-2h1a1 1 0 010 2zm0-4h-1a1 1 0 010-2h1a1 1 0 010 2zm1-5.5H13v.5a1 1 0 01-2 0V9h-.5a1 1 0 010-2h.5v-.5a1 1 0 012 0V7h.5a1 1 0 110 2zm4 9.5h-1a1 1 0 010-2h1a1 1 0 010 2zm0-4h-1a1 1 0 010-2h1a1 1 0 010 2z"/>
</svg>
