<svg xmlns="http://www.w3.org/2000/svg" width="24" height="24" fill="none" viewBox="0 0 24 24">
  <path fill="#B3B3B3" d="M17.476 6.123l-.534 5.994.002.033-.002.074v-.001l-.38 4.192-.04.372L12 18.037v.001l-.004.003-4.512-1.258-.306-3.465h2.213l.157 1.762 2.453.665v.001l2.46-.675.261-2.869H9.576l-.044-.485-.1-1.136-.053-.611h5.538l.202-2.231H6.682l-.044-.485-.1-1.137-.053-.61H17.53l-.053.616z"/>
  <path fill="#818181" d="M3.195 2l1.602 17.994L11.99 22l7.212-2.013L20.805 2H3.195zm14.281 4.123l-.534 5.994.002.033-.002.074v-.001l-.38 4.192-.04.372L12 18.037v.001l-.004.003-4.512-1.258-.306-3.465h2.213l.157 1.762 2.453.665v.001l2.46-.675.261-2.869H9.576l-.044-.485-.1-1.136-.053-.611h5.538l.202-2.231H6.682l-.044-.485-.1-1.137-.053-.61H17.53l-.053.616z"/>
</svg>
