<svg xmlns="http://www.w3.org/2000/svg" width="24" height="24" fill="none" viewBox="0 0 24 24">
  <path fill="#B3B3B3" d="M11.99 22a.999.999 0 01-.268-.037l-6.473-1.805a1 1 0 01-.727-.874L3.079 3.09A1 1 0 014.075 2h15.85a1 1 0 01.996 1.089l-1.443 16.188a1 1 0 01-.728.874l-6.491 1.812a1 1 0 01-.269.037z"/>
  <path fill="#818181" d="M16.777 6.325A1 1 0 0016.04 6H7.96a1 1 0 000 2h6.987l-.177 2H10a1 1 0 000 2h4.592l-.264 2.977-2.328.528-2.328-.53-.096-1.064a1 1 0 00-1.992.178l.16 1.79a1.001 1.001 0 00.775.887l3.26.74c.145.032.297.032.443 0l3.26-.74a1.001 1.001 0 00.774-.887l.78-8.79a1.001 1.001 0 00-.259-.764z"/>
</svg>
