<svg xmlns="http://www.w3.org/2000/svg" width="24" height="24" fill="none" viewBox="0 0 24 24">
  <path fill="#818181" d="M3.182 2l1.605 18 7.202 2 7.222-2.002L20.817 2H3.182zm14.143 5.887H8.877l.201 2.261h8.046l-.606 6.778L12 18.178l-.01.003-4.523-1.255-.309-3.466h2.216l.157 1.76 2.46.664h.001l2.462-.665.257-2.863H7.059L6.464 5.68h11.059l-.198 2.207z"/>
  <path fill="#CCC" d="M17.325 7.887H8.877l.202 2.261h8.045l-.606 6.778L12 18.178l-.01.003-4.522-1.255-.31-3.466h2.216l.158 1.76 2.458.664h.002l2.463-.665.256-2.863H7.06L6.464 5.68h11.059l-.198 2.207z"/>
</svg>
