<svg xmlns="http://www.w3.org/2000/svg" width="24" height="24" fill="none" viewBox="0 0 24 24">
  <path fill="#9A9A9A" d="M5.493 20h14c.355-.003.706-.07 1.038-.196l-9.917-9.917a3.05 3.05 0 00-4.238-.005l-3.59 3.58a1 1 0 00-.293.708V17a3.003 3.003 0 003 3z"/>
  <path fill="#CCC" d="M22.199 15.462l-3.585-3.575a3.05 3.05 0 00-4.236-.006l-.888.882 7.04 7.04A2.996 2.996 0 0022.494 17v-.83c0-.266-.106-.52-.294-.708z"/>
  <path fill="#B3B3B3" d="M19.493 4h-14a3.003 3.003 0 00-3 3v7.17a1 1 0 01.294-.708l3.59-3.58a3.05 3.05 0 014.237.005l2.876 2.876.887-.882a3.05 3.05 0 014.237.006l3.585 3.575a1 1 0 01.294.708V7a3.003 3.003 0 00-3-3z"/>
  <path fill="#818181" d="M20.493 22a.997.997 0 01-.707-.293l-18-18A1 1 0 013.2 2.293l18 18A1 1 0 0120.493 22z"/>
</svg>
