<svg xmlns="http://www.w3.org/2000/svg" width="24" height="24" fill="none" viewBox="0 0 24 24">
  <path fill="#CCC" d="M16.02 13.406a2.846 2.846 0 00-3.93 0l-1.41 1.41a.967.967 0 00-.29.7.99.99 0 00.29.71l6.23 6.23a2.894 2.894 0 001.84-.99c.483-.542.75-1.244.75-1.97v-2.62l-3.48-3.47z"/>
  <path fill="#818181" d="M11.39 14.106l-2.48-2.49a2.855 2.855 0 00-3.93 0l-3.48 3.48v4.4a3.009 3.009 0 003 3h12c.138.002.275-.011.41-.04a2.894 2.894 0 001.84-.99l-7.36-7.36zM21.5 1.504a1 1 0 00-1 1v.005a5 5 0 10.298 7.748 1 1 0 10-1.316-1.506 3 3 0 11.25-4.247H18.5a1 1 0 100 2h3a1 1 0 001-1v-3a1 1 0 00-1-1z"/>
  <path fill="#B3B3B3" d="M17.5 5.504c0-.274.111-.522.29-.703a2.98 2.98 0 00-1.29-.305h-1.211a2.989 2.989 0 00-.04 3.992 2.999 2.999 0 004.233.263l.008-.006c.003-.003.007-.004.01-.006V7.496a2.981 2.981 0 00-.184-.992H18.5a1 1 0 01-1-1z"/>
  <path fill="#B3B3B3" d="M14.488 10.5a4.993 4.993 0 01-1.561-6.004H4.5a3.009 3.009 0 00-3 3v7.6l3.48-3.48a2.855 2.855 0 013.93 0l2.48 2.49.7-.7a2.846 2.846 0 013.93 0l3.48 3.47V11.07a4.99 4.99 0 01-5.012-.57z"/>
</svg>
