<svg xmlns="http://www.w3.org/2000/svg" width="24" height="24" fill="none" viewBox="0 0 24 24">
  <path fill="#CCC" d="M16.52 11.91a2.846 2.846 0 00-3.93 0l-1.41 1.41a.967.967 0 00-.29.7.99.99 0 00.29.71l6.23 6.23a2.894 2.894 0 001.84-.99c.483-.542.75-1.243.75-1.97v-2.62l-3.48-3.47z"/>
  <path fill="#818181" d="M11.89 12.61l-2.48-2.49a2.855 2.855 0 00-3.93 0L2 13.6V18a3.009 3.009 0 003 3h12c.138.002.275-.011.41-.04a2.894 2.894 0 001.84-.99l-7.36-7.36zM21 5.008h-4a1 1 0 110-2h4a1 1 0 110 2z"/>
  <path fill="#B3B3B3" d="M17 5.008a1 1 0 110-2h.076C17.05 3.008 17.026 3 17 3H5a3.009 3.009 0 00-3 3v7.6l3.48-3.48a2.855 2.855 0 013.93 0l2.48 2.49.7-.7a2.846 2.846 0 013.93 0L20 15.38V6a2.981 2.981 0 00-.184-.992H17z"/>
</svg>
