<svg xmlns="http://www.w3.org/2000/svg" width="24" height="24" fill="none" viewBox="0 0 24 24">
  <path fill="#9A9A9A" d="M12.89 12.61l-2.48-2.49a2.855 2.855 0 00-3.93 0L3 13.6V18a3.009 3.009 0 003 3h12a1.84 1.84 0 00.41-.04 2.894 2.894 0 001.84-.99l-7.36-7.36z"/>
  <path fill="#CCC" d="M20.25 19.97c.483-.542.75-1.243.75-1.97v-2.62l-3.48-3.47a2.846 2.846 0 00-3.93 0l-.7.7 7.36 7.36"/>
  <path fill="#B3B3B3" d="M18 3H6a3.009 3.009 0 00-3 3v7.6l3.48-3.48a2.855 2.855 0 013.93 0l2.48 2.49.7-.7a2.846 2.846 0 013.93 0L21 15.38V6a3.009 3.009 0 00-3-3z"/>
  <path fill="#818181" d="M21 22a.997.997 0 01-.707-.293l-18-18a1 1 0 011.414-1.414l18 18A1 1 0 0121 22z"/>
</svg>
