<svg xmlns="http://www.w3.org/2000/svg" width="24" height="24" fill="none" viewBox="0 0 24 24">
  <path fill="#CCC" d="M17.52 12.91a2.846 2.846 0 00-3.93 0l-1.41 1.41a.967.967 0 00-.29.7.99.99 0 00.29.71l6.23 6.23a2.894 2.894 0 001.84-.99c.483-.542.75-1.243.75-1.97v-2.62l-3.48-3.47z"/>
  <path fill="#818181" d="M12.89 13.61l-2.48-2.49a2.855 2.855 0 00-3.93 0L3 14.6V19a3.009 3.009 0 003 3h12c.138.002.275-.011.41-.04a2.894 2.894 0 001.84-.99l-7.36-7.36zM20 11.004a1 1 0 01-1-.999V6.004a1 1 0 112 0v4a1 1 0 01-.999 1H20zM20 4a.99.99 0 01-1-1 .83.83 0 01.08-.38.985.985 0 01.21-.32 1.037 1.037 0 011.42 0c.09.092.162.2.21.32A.99.99 0 0120 4z"/>
  <path fill="#B3B3B3" d="M20.001 11.004H20a1 1 0 01-1-.999V6.004a1 1 0 011-1c.094 0 .178.03.264.053A2.989 2.989 0 0018 4H6a3.009 3.009 0 00-3 3v7.6l3.48-3.48a2.855 2.855 0 013.93 0l2.48 2.49.7-.7a2.846 2.846 0 013.93 0L21 16.38v-6.376a1 1 0 01-.999 1z"/>
</svg>
