<svg xmlns="http://www.w3.org/2000/svg" width="24" height="24" fill="none" viewBox="0 0 24 24">
  <path fill="#B3B3B3" d="M17 4H5a3.009 3.009 0 00-3 3v7.6l3.48-3.48a2.855 2.855 0 013.93 0l2.48 2.49.7-.7a2.846 2.846 0 013.93 0L20 16.38V7a3.009 3.009 0 00-3-3z"/>
  <path fill="#CCC" d="M16.52 12.91a2.846 2.846 0 00-3.93 0l-1.41 1.41a.967.967 0 00-.29.7.99.99 0 00.29.71l6.23 6.23a2.894 2.894 0 001.84-.99c.483-.542.75-1.243.75-1.97v-2.62l-3.48-3.47z"/>
  <path fill="#818181" d="M11.89 13.61l-2.48-2.49a2.855 2.855 0 00-3.93 0L2 14.6V19a3.009 3.009 0 003 3h12c.138.002.275-.011.41-.04a2.894 2.894 0 001.84-.99l-7.36-7.36zm2.79-6.02a1 1 0 01-.418-1.907l4.507-2.074a1 1 0 11.836 1.817l-4.507 2.073a.992.992 0 01-.417.092z"/>
  <path fill="#818181" d="M19.186 9.664a.993.993 0 01-.418-.092L14.262 7.5a1 1 0 11.836-1.816l4.507 2.073a1 1 0 01-.419 1.908zM20 6a2 2 0 100-4 2 2 0 000 4z"/>
  <path fill="#818181" d="M15 8.5a2 2 0 100-4 2 2 0 000 4zM20 11a2 2 0 100-4 2 2 0 000 4z"/>
</svg>
