<svg xmlns="http://www.w3.org/2000/svg" width="24" height="24" fill="none" viewBox="0 0 24 24">
  <path fill="#CCC" d="M16.52 12.91a2.846 2.846 0 00-3.93 0l-1.41 1.41a.967.967 0 00-.29.7.99.99 0 00.29.71l6.23 6.23a2.895 2.895 0 001.84-.99c.483-.542.75-1.243.75-1.97v-2.62l-3.48-3.47zm-.207-2.285a4.313 4.313 0 113.051-7.361 4.311 4.311 0 01-3.05 7.361z"/>
  <path fill="#B3B3B3" d="M19.368 9.36a4.312 4.312 0 01-7.367-3.048c0-.853.256-1.643.683-2.312H5a3.009 3.009 0 00-3 3v7.6l3.48-3.48a2.855 2.855 0 013.93 0l2.48 2.49.7-.7a2.846 2.846 0 013.93 0L20 16.38V8.532a4.279 4.279 0 01-.632.828z"/>
  <path fill="#818181" d="M21.707 10.293l-1.726-1.726c-.172.28-.37.55-.613.793a4.288 4.288 0 01-.804.618l1.729 1.729a.997.997 0 001.414 0 1 1 0 000-1.414zM9.41 11.12a2.855 2.855 0 00-3.93 0L2 14.6V19a3.009 3.009 0 003 3h12c.138.002.275-.011.41-.04a2.894 2.894 0 001.84-.99l-7.36-7.36-2.48-2.49z"/>
</svg>
