<svg xmlns="http://www.w3.org/2000/svg" width="24" height="24" fill="none" viewBox="0 0 24 24">
  <path fill="#818181" d="M17.12 22.008h-.24a1 1 0 110-2h.24a1 1 0 110 2zm4.88 0a1.043 1.043 0 01-1.05-1 .982.982 0 01.61-.939.926.926 0 01.44-.111.958.958 0 011 .95 1.09 1.09 0 01-1 1.1zm0-4.389a1 1 0 01-1-.999v-.216a1 1 0 112 0v.215a1 1 0 01-.999 1H22zm0-4.504a1 1 0 01-1-.999V11.9a1 1 0 012 0v.214a1 1 0 01-.999 1H22zm0-4.503a1 1 0 01-1-.999v-.216a1 1 0 112 0v.215a1 1 0 01-.999 1H22zm0-4.504a1 1 0 01-.946-.676.922.922 0 01-.104-.424.958.958 0 01.95-1 1.09 1.09 0 011.1 1v.1a1 1 0 01-.999 1H22zm-3.907-.1h-.19a1 1 0 010-2h.19a1 1 0 010 2zm-3.998 0h-.19a1 1 0 110-2h.19a1 1 0 110 2zm-3.998 0h-.19a1 1 0 110-2h.19a1 1 0 110 2zm-3.998 0h-.19a1 1 0 010-2h.19a1 1 0 010 2zM2 4.108a1 1 0 01-1-.998V3.008a1 1 0 01.999-1H2a1.043 1.043 0 011.05 1 1.05 1.05 0 01-.19.612 1 1 0 01-.86.488zm0 4.674a1 1 0 01-1-.999V7.56a1 1 0 012 0v.222a1 1 0 01-.999 1H2z"/>
  <path fill="#B3B3B3" d="M13 11.01H2a1.003 1.003 0 00-1 1v9c.002.552.448.998 1 1h11a1.003 1.003 0 001-1v-9a1.003 1.003 0 00-1-1z"/>
  <path fill="#818181" d="M13.71 19.09l-2.43-2.42a2.41 2.41 0 00-3.33 0l-4.66 4.66a1.025 1.025 0 00-.29.68h10a1.003 1.003 0 001-1V19.8a1.033 1.033 0 00-.29-.71z"/>
</svg>
