<svg xmlns="http://www.w3.org/2000/svg" width="24" height="24" fill="none" viewBox="0 0 24 24">
  <path fill="#818181" d="M11.89 13.61l-2.48-2.49a2.855 2.855 0 00-3.93 0L2 14.6V19a3.009 3.009 0 003 3h12c.138.002.275-.011.41-.04a2.894 2.894 0 001.84-.99l-7.36-7.36zM16.92 8a.998.998 0 01-.7-.286L14.3 5.83a1 1 0 111.4-1.428L16.92 5.6l3.38-3.314a1 1 0 111.405 1.424l-.005.004-4.08 4a.998.998 0 01-.7.286z"/>
  <path fill="#CCC" d="M19.25 20.97c.483-.542.75-1.243.75-1.97v-2.62l-3.48-3.47a2.846 2.846 0 00-3.93 0l-.7.7 7.36 7.36"/>
  <path fill="#B3B3B3" d="M19.684 5.69L17.62 7.715a.998.998 0 01-1.4 0L14.3 5.83a1 1 0 111.4-1.428L16.92 5.6l1.338-1.312A2.984 2.984 0 0017 4H5a3.009 3.009 0 00-3 3v7.6l3.48-3.48a2.855 2.855 0 013.93 0l2.48 2.49.7-.7a2.846 2.846 0 013.93 0L20 16.38V7a2.979 2.979 0 00-.316-1.31z"/>
</svg>
