<svg xmlns="http://www.w3.org/2000/svg" width="24" height="24" fill="none" viewBox="0 0 24 24">
  <path fill="#818181" d="M21 22h-.1a1 1 0 01-.325-1.946.937.937 0 01.425-.104.958.958 0 011 .95 1.09 1.09 0 01-1 1.1zm0-4.389a1 1 0 01-1-1v-.215a1 1 0 112 0v.215a1 1 0 01-1 1zm0-4.504a1 1 0 01-1-.999v-.215a1 1 0 012 0v.214a1 1 0 01-1 1zm0-4.503a1 1 0 01-1-.999V7.39a1 1 0 112 0v.214a1 1 0 01-1 1zm0-4.554a1.048 1.048 0 01-.614-.193A1 1 0 0120.9 2h.1a1 1 0 011 1 1.043 1.043 0 01-1 1.05zM16.61 4h-.214a1 1 0 010-2h.215a1 1 0 110 2zm-4.503 0h-.214a1 1 0 010-2h.214a1 1 0 110 2zM7.603 4H7.39a1 1 0 010-2h.214a1 1 0 110 2zM3 4.05a.958.958 0 01-1-.95A1.09 1.09 0 013 2h.1a1 1 0 01.325 1.946A.936.936 0 013 4.05zm0 4.554a1 1 0 01-1-1v-.215a1 1 0 012 0v.215a1 1 0 01-1 1zM16.61 22h-.214a1 1 0 010-2h.215a1 1 0 110 2z"/>
  <path fill="#B3B3B3" d="M13 22H3a1 1 0 01-1-1V11a1 1 0 011-1h10a1 1 0 011 1v10a1 1 0 01-1 1z"/>
  <path fill="#818181" d="M11.316 14.683a2.34 2.34 0 00-3.303 0L2 20.696V21a1 1 0 001 1h10a1 1 0 001-1v-3.22a1 1 0 00-.293-.707l-2.39-2.39z"/>
</svg>
