<svg xmlns="http://www.w3.org/2000/svg" width="24" height="24" fill="none" viewBox="0 0 24 24">
  <path fill="#CCC" d="M19.25 20.97c.483-.542.75-1.243.75-1.97v-2.62l-3.48-3.47a2.846 2.846 0 00-3.93 0l-.7.7 7.36 7.36"/>
  <path fill="#818181" d="M9.41 11.12a2.855 2.855 0 00-3.93 0L2 14.6V19a3.009 3.009 0 003 3h12c.138.002.275-.011.41-.04a2.894 2.894 0 001.84-.99l-7.36-7.36-2.48-2.49zM21 4h-1V3a1 1 0 10-2 0v1h-1a1 1 0 100 2h1v1.001A1 1 0 0019 8h.001A1 1 0 0020 7V6h1a1 1 0 100-2z"/>
  <path fill="#B3B3B3" d="M19.001 8H19a1 1 0 01-1-.999V6h-1a1 1 0 110-2H5a3.009 3.009 0 00-3 3v7.6l3.48-3.48a2.855 2.855 0 013.93 0l2.48 2.49.7-.7a2.846 2.846 0 013.93 0L20 16.38V7a1 1 0 01-.999 1z"/>
</svg>
