<svg xmlns="http://www.w3.org/2000/svg" width="24" height="24" fill="none" viewBox="0 0 24 24">
  <path fill="#CCC" d="M16.52 12.91a2.846 2.846 0 00-3.93 0l-1.41 1.41a.967.967 0 00-.29.7.99.99 0 00.29.71l6.23 6.23a2.894 2.894 0 001.84-.99c.483-.542.75-1.243.75-1.97v-2.62l-3.48-3.47z"/>
  <path fill="#818181" d="M11.89 13.61l-2.48-2.49a2.855 2.855 0 00-3.93 0L2 14.6V19a3.009 3.009 0 003 3h12c.138.002.275-.011.41-.04a2.894 2.894 0 001.84-.99l-7.36-7.36zm8.524-8.606l1.293-1.293A1 1 0 0020.3 2.29l-.006.006L19 3.59l-1.293-1.293a1 1 0 00-1.414 1.414l1.293 1.293-1.293 1.293a1 1 0 101.401 1.427l.013-.013L19 6.418l1.293 1.293a1 1 0 001.414-1.414l-1.293-1.293z"/>
  <path fill="#B3B3B3" d="M19 6.418l-1.293 1.293-.013.013a1 1 0 01-1.401-1.427l1.293-1.293L16.582 4H5a3.009 3.009 0 00-3 3v7.6l3.48-3.48a2.855 2.855 0 013.93 0l2.48 2.49.7-.7a2.846 2.846 0 013.93 0L20 16.38V7.418l-1-1z"/>
</svg>
