<svg xmlns="http://www.w3.org/2000/svg" width="24" height="24" fill="none" viewBox="0 0 24 24">
  <path fill="#CCC" d="M16.52 12.906a2.846 2.846 0 00-3.93 0l-1.41 1.41a.967.967 0 00-.29.7.99.99 0 00.29.71l6.23 6.23a2.894 2.894 0 001.84-.99c.483-.542.75-1.244.75-1.97v-2.62l-3.48-3.47z"/>
  <path fill="#818181" d="M11.89 13.606l-2.48-2.49a2.855 2.855 0 00-3.93 0L2 14.596v4.4a3.009 3.009 0 003 3h12a1.84 1.84 0 00.41-.04 2.894 2.894 0 001.84-.99l-7.36-7.36zM19 8.004a1 1 0 110-2 1 1 0 10-.867-1.5 1 1 0 11-1.73-1.001A3 3 0 1119 8.003zm0 3.006a1.04 1.04 0 01-.71-.3 1.006 1.006 0 010-1.41 1.78 1.78 0 01.15-.13l.18-.09.18-.06c.195-.036.396-.015.58.06.374.152.619.516.62.92-.002.265-.106.52-.29.71a1.01 1.01 0 01-.33.22 1 1 0 01-.38.08z"/>
  <path fill="#B3B3B3" d="M19 8.004a1 1 0 110-2c.273 0 .52-.111.7-.289a3.007 3.007 0 00-1.41-1.414 1 1 0 00-.157.204 1 1 0 01-1.366.364.987.987 0 01-.484-.873H5a3.009 3.009 0 00-3 3v7.6l3.48-3.48a2.855 2.855 0 013.93 0l2.48 2.49.7-.7a2.846 2.846 0 013.93 0l3.48 3.47V10c-.002.265-.106.52-.29.71a1.01 1.01 0 01-.33.22.999.999 0 01-.38.08 1.04 1.04 0 01-.71-.3 1.006 1.006 0 010-1.41c.047-.046.097-.09.15-.13l.18-.09.18-.06c.195-.036.396-.015.58.06.374.153.619.516.62.92V7.81c-.319.114-.65.194-1 .194z"/>
</svg>
