<svg xmlns="http://www.w3.org/2000/svg" width="24" height="24" fill="none" viewBox="0 0 24 24">
  <path fill="#818181" d="M11.89 13.61l-2.48-2.49a2.855 2.855 0 00-3.93 0L2 14.6V19a3.009 3.009 0 003 3h12c.138.002.275-.011.41-.04a2.894 2.894 0 001.84-.99l-7.36-7.36zm10.817-9.317l-3-3a1 1 0 00-1.414 0l-3 3a1 1 0 001.414 1.414L18 4.414V10a1 1 0 102 0V4.414l1.293 1.293a1 1 0 001.414-1.414z"/>
  <path fill="#CCC" d="M12.89 14.61l6.36 6.36c.483-.542.75-1.243.75-1.97v-2.62l-3.48-3.47a2.846 2.846 0 00-3.93 0l-.698.698.998 1.002z"/>
  <path fill="#B3B3B3" d="M19 11a1 1 0 01-1-1V4.414l-1.293 1.293a1 1 0 01-1.414-1.414L15.586 4H5a3.009 3.009 0 00-3 3v7.6l3.48-3.48a2.855 2.855 0 013.93 0l2.48 2.49.002-.002.698-.698a2.846 2.846 0 013.93 0L20 16.38V10a1 1 0 01-1 1z"/>
</svg>
