<svg xmlns="http://www.w3.org/2000/svg" width="24" height="24" fill="none" viewBox="0 0 24 24">
  <path fill="#B3B3B3" d="M19 2H5a3.003 3.003 0 00-3 3v5.26a.969.969 0 00.054.27.959.959 0 00.02.098.988.988 0 001.654.307L5.5 9.165l2.293 2.292a1.001 1.001 0 001.414 0L11.5 9.164l2.793 2.793a1 1 0 001.414 0L18.5 9.164l1.772 1.771a.99.99 0 001.654-.307c.012-.03.01-.062.019-.092A.969.969 0 0022 10.26V5a3.003 3.003 0 00-3-3z"/>
  <path fill="#818181" d="M21.706 14.542l-2.499-2.499a1 1 0 00-1.414 0L15 14.836l-2.793-2.793a1 1 0 00-1.414 0L8.5 14.336l-2.293-2.293a1 1 0 00-1.414 0l-2.499 2.499A1.013 1.013 0 002 15.25V19a3.003 3.003 0 003 3h14a3.003 3.003 0 003-3v-3.75a1.012 1.012 0 00-.294-.708z"/>
</svg>
