<svg xmlns="http://www.w3.org/2000/svg" width="24" height="24" fill="none" viewBox="0 0 24 24">
  <path fill="#B3B3B3" d="M17 4H5a3.009 3.009 0 00-3 3v12a3.009 3.009 0 003 3h12c.138.002.275-.011.41-.04a2.894 2.894 0 001.84-.99l-7.36-7.36.7-.7a2.846 2.846 0 013.93 0L20 16.38V7a3.009 3.009 0 00-3-3z"/>
  <path fill="#818181" d="M11.89 13.61l-2.48-2.49a2.855 2.855 0 00-3.93 0L2 14.6V19a3.009 3.009 0 003 3h12c.138.002.275-.011.41-.04a2.894 2.894 0 001.84-.99l-7.36-7.36zm4.545-3.091h-2.42a1 1 0 01-1-1v-2.42a1 1 0 01.293-.707l4.58-4.58a1 1 0 011.414 0l2.42 2.42a1 1 0 010 1.414l-4.58 4.58a1 1 0 01-.707.293z"/>
  <path fill="#CCC" d="M19.25 20.97c.483-.542.75-1.243.75-1.97v-2.62l-3.48-3.47a2.846 2.846 0 00-3.93 0l-.7.7 7.36 7.36"/>
</svg>
