<svg xmlns="http://www.w3.org/2000/svg" width="24" height="24" fill="none" viewBox="0 0 24 24">
  <path fill="#CCC" d="M18.122 11.887a3.05 3.05 0 00-4.237-.006l-1.59 1.58a1 1 0 00-.004 1.414h.001l4.675 4.686.175.439H19a3.003 3.003 0 003-3v-.83a1 1 0 00-.294-.708l-3.584-3.575z"/>
  <path fill="#818181" d="M5 20h14c.355-.003.707-.07 1.038-.196l-9.916-9.917a3.05 3.05 0 00-4.238-.005l-3.59 3.58A1 1 0 002 14.17V17a3.003 3.003 0 003 3z"/>
  <path fill="#B3B3B3" d="M19 4H5a3.003 3.003 0 00-3 3v7.17a1 1 0 01.294-.708l3.59-3.58a3.05 3.05 0 014.238.005l2.875 2.876.888-.882a3.05 3.05 0 014.237.006l3.584 3.575a1 1 0 01.294.708V7a3.003 3.003 0 00-3-3z"/>
</svg>
