<svg xmlns="http://www.w3.org/2000/svg" width="24" height="24" fill="none" viewBox="0 0 24 24">
  <path fill="#CCC" d="M16.52 12.91a2.846 2.846 0 00-3.93 0l-1.41 1.41a.967.967 0 00-.29.7.99.99 0 00.29.71l6.23 6.23a2.894 2.894 0 001.84-.99c.483-.542.75-1.243.75-1.97v-2.62l-3.48-3.47z"/>
  <path fill="#818181" d="M11.89 13.61l-2.48-2.49a2.855 2.855 0 00-3.93 0L2 14.6V19a3.009 3.009 0 003 3h12c.138.002.275-.011.41-.04a2.894 2.894 0 001.84-.99l-7.36-7.36zm10.817-7.317a1 1 0 00-1.414 0L20 7.586V2a1 1 0 10-2 0v5.586l-1.293-1.293a1 1 0 00-1.414 1.414l3 3a1 1 0 001.414 0l3-3a1 1 0 000-1.414z"/>
  <path fill="#B3B3B3" d="M19.707 10.707a1 1 0 01-1.414 0l-3-3a1 1 0 011.414-1.414L18 7.586v-3.4A2.98 2.98 0 0017 4H5a3.009 3.009 0 00-3 3v7.6l3.48-3.48a2.855 2.855 0 013.93 0l2.48 2.49.7-.7a2.846 2.846 0 013.93 0L20 16.38v-5.966l-.293.293z"/>
</svg>
