<svg xmlns="http://www.w3.org/2000/svg" width="24" height="24" fill="none" viewBox="0 0 24 24">
  <path fill="#B3B3B3" d="M20.936 7.564a6.061 6.061 0 00-.377-2.039 3.4 3.4 0 00-.822-1.263 3.398 3.398 0 00-1.262-.82 6.094 6.094 0 00-2.039-.378C15.278 3.012 14.931 3 12 3c-2.93 0-3.279.01-4.436.064a6.06 6.06 0 00-2.039.377 3.39 3.39 0 00-1.263.821 3.425 3.425 0 00-.82 1.264 6.096 6.096 0 00-.378 2.038C3.012 8.723 3 9.07 3 12.001c0 2.931.01 3.279.064 4.436.008.696.136 1.386.378 2.039.175.477.456.908.821 1.261a3.41 3.41 0 001.263.822c.652.242 1.342.37 2.038.377C8.721 20.99 9.07 21 12 21s3.28-.01 4.436-.064a6.059 6.059 0 002.039-.377 3.635 3.635 0 002.084-2.084 6.09 6.09 0 00.377-2.038C20.99 15.278 21 14.93 21 12s-.01-3.278-.064-4.436z"/>
  <path fill="#818181" d="M17.793 7.618a2.459 2.459 0 00-1.41-1.41 4.132 4.132 0 00-1.38-.256c-.784-.036-1.02-.044-3.003-.044S9.782 5.916 9 5.952a4.1 4.1 0 00-1.38.255c-.648.25-1.16.762-1.41 1.41-.164.443-.25.91-.256 1.38-.036.784-.043 1.019-.043 3.003 0 1.984.007 2.22.043 3.003.005.47.092.938.255 1.38a2.46 2.46 0 001.41 1.41c.443.163.91.25 1.38.255.784.036 1.018.043 3.002.043 1.985 0 2.22-.007 3.003-.043a4.105 4.105 0 001.38-.255 2.46 2.46 0 001.41-1.41c.164-.442.25-.909.256-1.38.036-.784.043-1.019.043-3.003 0-1.984-.007-2.219-.043-3.002a4.104 4.104 0 00-.256-1.38zM12 15.815a3.815 3.815 0 110-7.63 3.815 3.815 0 010 7.63zm3.966-6.89a.892.892 0 010-1.783h.001a.892.892 0 01.005 1.783h-.006z"/>
  <path fill="#818181" d="M12 9.523A2.477 2.477 0 1014.477 12a2.477 2.477 0 00-2.476-2.477z"/>
  <path fill="#818181" d="M21.93 7.07a6.733 6.733 0 00-.42-2.264 3.777 3.777 0 00-.913-1.403 3.775 3.775 0 00-1.403-.913 6.771 6.771 0 00-2.265-.42C15.642 2.014 15.257 2 12 2c-3.255 0-3.642.012-4.928.07-.774.01-1.54.151-2.265.42-.53.195-1.01.507-1.403.913a3.806 3.806 0 00-.913 1.403 6.773 6.773 0 00-.42 2.265C2.014 8.358 2 8.744 2 12.001c0 3.257.012 3.643.071 4.929.01.773.151 1.54.42 2.265.195.53.507 1.01.912 1.402a3.79 3.79 0 001.403.913 6.733 6.733 0 002.266.42c1.285.059 1.672.07 4.928.07 3.257 0 3.643-.012 4.93-.07a6.733 6.733 0 002.264-.42 4.04 4.04 0 002.316-2.315c.268-.726.41-1.492.42-2.265.058-1.287.07-1.673.07-4.93 0-3.257-.012-3.642-.07-4.93zm-2.545 7.993a5.435 5.435 0 01-.345 1.804 3.8 3.8 0 01-2.173 2.173 5.45 5.45 0 01-1.803.345c-.793.037-1.046.045-3.064.045-2.017 0-2.27-.009-3.063-.045a5.455 5.455 0 01-1.803-.345 3.799 3.799 0 01-2.174-2.173 5.45 5.45 0 01-.345-1.804C4.58 14.271 4.57 14.018 4.57 12c0-2.018.009-2.271.045-3.063a5.45 5.45 0 01.345-1.804A3.798 3.798 0 017.134 4.96a5.45 5.45 0 011.803-.345c.793-.037 1.047-.045 3.064-.045 2.018 0 2.27.009 3.063.045a5.443 5.443 0 011.804.345 3.8 3.8 0 012.172 2.173 5.45 5.45 0 01.345 1.804c.036.792.045 1.045.045 3.063 0 2.018-.009 2.27-.045 3.063z"/>
</svg>
