<svg xmlns="http://www.w3.org/2000/svg" width="24" height="24" fill="none" viewBox="0 0 24 24">
  <path fill="#818181" d="M12 6.865a5.135 5.135 0 100 10.27 5.135 5.135 0 000-10.27zm0 8.469a3.334 3.334 0 110-6.668 3.334 3.334 0 010 6.668z"/>
  <path fill="#818181" d="M21.94 7.877a7.331 7.331 0 00-.465-2.427 4.918 4.918 0 00-1.153-1.772 4.893 4.893 0 00-1.77-1.153 7.323 7.323 0 00-2.428-.464C15.058 2.012 14.717 2 12.001 2c-2.715 0-3.056.011-4.123.06-.83.017-1.65.174-2.428.465A4.905 4.905 0 003.68 3.678c-.51.5-.903 1.104-1.153 1.772a7.333 7.333 0 00-.465 2.427c-.05 1.066-.06 1.407-.06 4.123s.01 3.056.06 4.123c.016.83.174 1.65.465 2.427.25.668.644 1.272 1.153 1.771.5.509 1.104.902 1.771 1.154a7.337 7.337 0 002.428.464C8.945 21.988 9.285 22 12 22c2.715 0 3.056-.011 4.122-.06a7.332 7.332 0 002.428-.465 5.111 5.111 0 002.925-2.925 7.316 7.316 0 00.464-2.427c.048-1.067.06-1.407.06-4.123s-.012-3.057-.06-4.123zm-1.8 8.164a5.545 5.545 0 01-.343 1.857 3.31 3.31 0 01-1.898 1.898 5.52 5.52 0 01-1.857.344c-1.055.048-1.371.058-4.042.058-2.67 0-2.986-.01-4.04-.058a5.524 5.524 0 01-1.857-.344 3.106 3.106 0 01-1.15-.748 3.085 3.085 0 01-.748-1.15 5.52 5.52 0 01-.344-1.857c-.048-1.054-.058-1.37-.058-4.04 0-2.671.01-2.987.058-4.042a5.563 5.563 0 01.344-1.857c.16-.434.416-.827.748-1.15a3.082 3.082 0 011.15-.748A5.523 5.523 0 017.96 3.86C9.014 3.81 9.331 3.8 12 3.8c2.67 0 2.987.011 4.042.059a5.564 5.564 0 011.857.344 3.309 3.309 0 011.898 1.898c.22.595.337 1.223.344 1.857.048 1.055.058 1.37.058 4.041 0 2.67-.01 2.986-.058 4.041z"/>
  <path fill="#818181" d="M17.34 5.462h-.001a1.2 1.2 0 10-.001 2.399 1.2 1.2 0 00.001-2.399z"/>
</svg>
