<svg xmlns="http://www.w3.org/2000/svg" width="24" height="24" fill="none" viewBox="0 0 24 24">
  <path fill="#B3B3B3" d="M20 23H4a3.003 3.003 0 01-3-3V4a3.003 3.003 0 013-3h16a3.003 3.003 0 013 3v16a3.004 3.004 0 01-3 3z"/>
  <path fill="#818181" d="M12 19a10.8 10.8 0 01-6.644-2.06 1 1 0 011.288-1.532A8.987 8.987 0 0012 17a8.995 8.995 0 005.361-1.595 1 1 0 011.282 1.535A10.795 10.795 0 0112 19zm-6-6a.998.998 0 01-1-1V8a1 1 0 012 0v4a1 1 0 01-1 1zm4 2a.998.998 0 01-1-1V6a1 1 0 012 0v8a.998.998 0 01-1 1zm4 0a.998.998 0 01-1-1V6a1 1 0 012 0v8a.998.998 0 01-1 1zm4-2a.998.998 0 01-1-1V8a1 1 0 012 0v4a.998.998 0 01-1 1z"/>
</svg>
