<svg xmlns="http://www.w3.org/2000/svg" width="24" height="24" fill="none" viewBox="0 0 24 24">
  <path fill="#B3B3B3" d="M13 15h-2c-1.1 0-2-.9-2-2v-1.2c-1.2-.4-2-1.5-2-2.8V5c0-1.7 1.3-3 3-3h4c1.7 0 3 1.3 3 3v4c0 1.3-.8 2.4-2 2.8V13c0 1.1-.9 2-2 2zM3 8c-.6 0-1-.4-1-1V5c0-.6.4-1 1-1s1 .4 1 1v2c0 .6-.4 1-1 1z"/>
  <path fill="#818181" d="M11 21c0 .6.4 1 1 1s1-.4 1-1v-6h-2v6z"/>
  <path fill="#CCC" d="M7 5H4v2h3V5z"/>
  <path fill="#818181" d="M12 9c-.6 0-1-.4-1-1V7c0-.6.4-1 1-1s1 .4 1 1v1c0 .6-.4 1-1 1z"/>
  <path fill="#B3B3B3" d="M21 8c-.6 0-1-.4-1-1V5c0-.6.4-1 1-1s1 .4 1 1v2c0 .6-.4 1-1 1z"/>
  <path fill="#CCC" d="M20 5h-3v2h3V5zM16 22c-.6 0-1-.4-1-1 0-.3.1-.5.3-.7l.8-.8-.3-.1c-.5-.1-.9-.7-.7-1.2 0-.2.1-.3.3-.4l2.1-2.1c.4-.4 1-.4 1.4 0 .4.4.4 1 0 1.4l-.9.8.3.1c.5.1.8.7.7 1.2 0 .2-.1.3-.3.4l-2 2c-.2.3-.4.4-.7.4zm-8 0c-.3 0-.5-.1-.7-.3l-2-2c-.4-.4-.4-1 0-1.4.1-.1.3-.2.4-.3l.3-.1-.8-.8c-.4-.4-.4-1 0-1.4.4-.4 1-.4 1.4 0l2.1 2.1c.4.4.4 1 0 1.4-.1.1-.3.2-.4.3l-.3.1.8.8c.4.4.4 1 0 1.4-.3.1-.5.2-.8.2z"/>
</svg>
