<svg xmlns="http://www.w3.org/2000/svg" width="24" height="24" fill="none" viewBox="0 0 24 24">
  <path fill="#818181" d="M11.181 2.213a1.677 1.677 0 011.638 0l7.478 4.225a1.54 1.54 0 01.777 1.325v8.475a1.556 1.556 0 01-.835 1.354l-7.452 4.204a1.63 1.63 0 01-1.655-.046l-2.236-1.293a1.317 1.317 0 01-.432-.31c.095-.128.265-.144.403-.2.307-.11.602-.247.883-.412a.206.206 0 01.23.014c.636.365 1.268.741 1.906 1.103.137.079.275-.026.392-.09 2.438-1.379 4.876-2.755 7.316-4.13a.242.242 0 00.133-.238c.002-2.796.002-5.591.001-8.387a.262.262 0 00-.156-.261L12.146 3.36a.258.258 0 00-.292 0C9.38 4.755 6.904 6.15 4.43 7.547a.259.259 0 00-.157.26v8.387a.237.237 0 00.135.235c.66.375 1.321.748 1.983 1.12a1.531 1.531 0 001.24.166.94.94 0 00.609-.883c.003-2.78-.002-5.56.002-8.338a.21.21 0 01.228-.214c.318-.002.635-.004.953.001a.22.22 0 01.207.254c-.001 2.797.003 5.594-.002 8.39a2.127 2.127 0 01-.995 1.922 3.063 3.063 0 01-2.738-.075c-.727-.363-1.42-.79-2.133-1.18a1.552 1.552 0 01-.835-1.354V7.763a1.542 1.542 0 01.804-1.342l7.451-4.208z"/>
  <path fill="#818181" d="M13.348 8.083a5.88 5.88 0 013.218.493 2.433 2.433 0 011.187 2.106.228.228 0 01-.247.168c-.315 0-.629.004-.943-.002a.243.243 0 01-.228-.236 1.435 1.435 0 00-.687-.992 4.071 4.071 0 00-1.884-.27 2.557 2.557 0 00-1.349.336.854.854 0 00-.284.955c.101.24.378.317.605.388 1.305.342 2.69.308 3.97.757a1.87 1.87 0 011.23 1.095 2.337 2.337 0 01-.396 2.23 3.127 3.127 0 01-1.678.905 8.062 8.062 0 01-2.533.108 3.99 3.99 0 01-2.228-.839 2.336 2.336 0 01-.753-1.844.211.211 0 01.231-.186c.317-.003.633-.004.95 0a.223.223 0 01.226.22 1.44 1.44 0 00.536 1.01 4.06 4.06 0 002.187.398 2.97 2.97 0 001.793-.439.99.99 0 00.27-.946c-.077-.28-.37-.41-.62-.495-1.29-.408-2.688-.26-3.965-.72a1.93 1.93 0 01-1.218-1.063 2.174 2.174 0 01.434-2.262 3.506 3.506 0 012.176-.875z"/>
</svg>
