<svg xmlns="http://www.w3.org/2000/svg" width="24" height="24" fill="none" viewBox="0 0 24 24">
  <path fill="#818181" d="M3.586 3.586a2 2 0 112.828 2.828 2 2 0 01-2.828-2.828z"/>
  <path fill="#818181" d="M5 7.998a2.998 2.998 0 11.004-5.996A2.998 2.998 0 015 7.998zm0-3.997a.999.999 0 10.002 1.998A.999.999 0 005 4.001zm12.586 13.585a2 2 0 112.828 2.828 2 2 0 01-2.828-2.828z"/>
  <path fill="#818181" d="M19 21.998a2.998 2.998 0 11.005-5.996A2.998 2.998 0 0119 21.998zm0-3.997a1 1 0 10.003 1.998A1 1 0 0019 18.001z"/>
  <path fill="#B3B3B3" d="M17.182 11.182L12.82 6.82a22.197 22.197 0 00-6 6l4.362 4.362a22.05 22.05 0 003.293-2.707 22.05 22.05 0 002.707-3.293z"/>
  <path fill="#CCC" d="M21.778 4.165a3.193 3.193 0 00-4.077-1.943 24.202 24.202 0 00-15.48 15.48 3.219 3.219 0 00.753 3.324c.593.597 1.4.93 2.242.925.368 0 .733-.06 1.083-.173a24.068 24.068 0 009.59-5.89 24.067 24.067 0 005.89-9.59 3.194 3.194 0 000-2.133zm-7.303 10.31a22.046 22.046 0 01-3.293 2.707L6.82 12.82a22.197 22.197 0 016-6l4.362 4.362a22.05 22.05 0 01-2.707 3.293z"/>
  <path fill="#818181" d="M17.59 18.59a.997.997 0 01-.707-.293L5.703 7.117A1 1 0 017.115 5.7l.002.003 11.18 11.18a1 1 0 01-.707 1.707z"/>
</svg>
