<svg xmlns="http://www.w3.org/2000/svg" width="24" height="24" fill="none" viewBox="0 0 24 24">
  <path fill="#B3B3B3" d="M4 3h16c1.1 0 2 .9 2 2v8c0 1.1-.9 2-2 2H4c-1.1 0-2-.9-2-2V5c0-1.1.9-2 2-2z"/>
  <path fill="#818181" d="M14 12h-4c-.6 0-1-.4-1-1s.4-1 1-1h4c.6 0 1 .4 1 1s-.4 1-1 1zM6 8a1 1 0 100-2 1 1 0 000 2zM10 8a1 1 0 100-2 1 1 0 000 2zM14 8a1 1 0 100-2 1 1 0 000 2zM18 8a1 1 0 100-2 1 1 0 000 2zM18 12a1 1 0 100-2 1 1 0 000 2zM6 12a1 1 0 100-2 1 1 0 000 2zM14 22c-.3 0-.5-.1-.7-.3L12 20.4l-1.3 1.3c-.4.4-1 .4-1.4 0-.4-.4-.4-1 0-1.4l2-2c.4-.4 1-.4 1.4 0l2 2c.4.4.4 1 0 1.4-.2.2-.4.3-.7.3z"/>
</svg>
