<svg xmlns="http://www.w3.org/2000/svg" width="24" height="24" fill="none" viewBox="0 0 24 24">
  <path fill="#CCC" d="M12 14.195c-.176 0-.348-.046-.5-.133l-9-5.198a1 1 0 010-1.732l9-5.194c.31-.177.69-.177 1 0l9 5.194a1 1 0 010 1.732l-9 5.197a1.002 1.002 0 01-.5.134z"/>
  <path fill="#B3B3B3" d="M21.5 11.132l-1.964-1.134-7.036 4.064c-.31.178-.69.178-1 0L4.464 9.998 2.5 11.132a1 1 0 000 1.732l9 5.197c.31.179.69.179 1 0l9-5.197a1 1 0 000-1.732z"/>
  <path fill="#818181" d="M21.5 15.132l-1.964-1.133L12.5 18.06c-.31.179-.69.179-1 0l-7.036-4.063L2.5 15.133a1 1 0 000 1.732l9 5.197c.31.179.69.179 1 0l9-5.197a1 1 0 000-1.732z"/>
</svg>
