<svg xmlns="http://www.w3.org/2000/svg" width="24" height="24" fill="none" viewBox="0 0 24 24">
  <path fill="#B3B3B3" d="M16.34 3l-2.43 6.69a2.989 2.989 0 00-3.82 0L7.66 3a9.918 9.918 0 018.68 0zm0 18a9.918 9.918 0 01-8.68 0l2.43-6.69c1.107.92 2.713.92 3.82 0L16.34 21zM22 12a9.85 9.85 0 01-1 4.34l-6.69-2.43a2.988 2.988 0 000-3.82L21 7.66A9.85 9.85 0 0122 12zM9 12c0 .697.245 1.373.69 1.91L3 16.34a9.918 9.918 0 010-8.68l6.69 2.43A2.998 2.998 0 009 12z"/>
  <path fill="#818181" d="M9.69 10.09c-.028.034-.048.073-.075.108.167-.22.362-.415.582-.582-.035.026-.073.046-.107.074L7.66 3a10.023 10.023 0 00-4.659 4.66L9.69 10.09zm4.22-.4c-.034-.028-.072-.048-.107-.074.22.166.414.361.58.581-.025-.035-.045-.073-.073-.107l6.685-2.428a10.033 10.033 0 00-4.657-4.657L13.91 9.69zm.4 4.22c.031-.038.053-.08.083-.12-.172.23-.374.431-.603.603.04-.03.082-.051.12-.083L16.34 21a10.023 10.023 0 004.659-4.66l-6.689-2.43zm-4.22.4c.034.028.072.048.107.074a3 3 0 01-.581-.581c.026.034.046.073.074.107l-6.689 2.43a10.023 10.023 0 004.66 4.659l2.429-6.689z"/>
</svg>
