<svg xmlns="http://www.w3.org/2000/svg" width="24" height="24" fill="none" viewBox="0 0 24 24">
  <path fill="#B3B3B3" d="M15 20.929H9a2.002 2.002 0 01-2-2v-2a2.002 2.002 0 012-2h6a2.002 2.002 0 012 2v2a2.002 2.002 0 01-2 2z"/>
  <path fill="#CCC" d="M16.407 2.632a6.998 6.998 0 00-9.922 9.747 4.744 4.744 0 011.086 2.865v.29A1.994 1.994 0 019 14.929h6c.56 0 1.066.233 1.429.604v-.437c.03-.967.39-1.895 1.017-2.632a6.995 6.995 0 00-1.039-9.832z"/>
  <path fill="#818181" d="M9 20.929v1a1 1 0 002 0v-1H9zm4 1a1 1 0 002 0v-1h-2v1z"/>
</svg>
