<svg xmlns="http://www.w3.org/2000/svg" width="24" height="24" fill="none" viewBox="0 0 24 24">
  <path fill="#B3B3B3" d="M21 8H10a1 1 0 010-2h11a1 1 0 110 2zm0 5H10a1 1 0 010-2h11a1 1 0 010 2z"/>
  <path fill="#818181" d="M4.667 18.5a.998.998 0 01-1-1v-11a1 1 0 012 0v11a1 1 0 01-1 1z"/>
  <path fill="#B3B3B3" d="M21 18H10a1 1 0 010-2h11a1 1 0 010 2z"/>
  <path fill="#818181" d="M6.334 9a.997.997 0 01-.77-.36l-.897-1.078-.898 1.079A1 1 0 012.23 7.359l1.667-2a1.002 1.002 0 011.538.001l1.666 2A1 1 0 016.334 9zM4.667 19a1.003 1.003 0 01-.768-.36l-1.667-2a1 1 0 111.537-1.28l.898 1.078.898-1.078a1 1 0 011.537 1.28l-1.666 2a1 1 0 01-.769.36z"/>
</svg>
