<svg xmlns="http://www.w3.org/2000/svg" width="24" height="24" fill="none" viewBox="0 0 24 24">
  <path fill="#B3B3B3" d="M18.223 14.278c-.041.06-.087.116-.136.17l-.004.004a6.37 6.37 0 01-.798.796c-2.03 1.876-5.37 4.109-5.81 3.764-.383-.299.631-1.764-.54-2.007a9.165 9.165 0 01-.243-.031h-.002c-3.437-.489-6.047-2.893-6.047-5.786 0-3.244 3.285-5.875 7.338-5.875 4.052 0 7.337 2.63 7.337 5.875a5.02 5.02 0 01-1.095 3.09z"/>
  <path fill="#818181" d="M17.907 2H6.093A4.093 4.093 0 002 6.093v11.814A4.093 4.093 0 006.093 22h11.814A4.093 4.093 0 0022 17.907V6.093A4.093 4.093 0 0017.907 2zm.316 12.278c-.041.06-.087.116-.136.17l-.004.004a6.364 6.364 0 01-.798.796c-2.03 1.876-5.37 4.109-5.81 3.764-.383-.299.631-1.764-.54-2.007a9.173 9.173 0 01-.243-.031h-.002c-3.437-.489-6.047-2.893-6.047-5.786 0-3.244 3.285-5.875 7.338-5.875 4.052 0 7.337 2.63 7.337 5.875a5.021 5.021 0 01-1.095 3.09z"/>
  <path fill="#818181" d="M9.203 12.265H8.138V9.842a.384.384 0 00-.383-.383h-.032a.384.384 0 00-.382.383v2.838c0 .211.171.382.382.383h1.48a.384.384 0 00.383-.383v-.032a.384.384 0 00-.383-.383zm4.572-2.806h-.032a.384.384 0 00-.382.383v1.666l-1.383-1.855a.383.383 0 00-.333-.194h-.031a.384.384 0 00-.383.383v2.838c0 .211.171.382.383.383h.031a.384.384 0 00.383-.383v-1.697l1.393 1.903a.422.422 0 00.028.038.32.32 0 00.15.11.38.38 0 00.144.029h.032a.38.38 0 00.18-.045.271.271 0 00.092-.07.382.382 0 00.111-.268V9.842a.384.384 0 00-.383-.383zm-3.498 0h.032c.212 0 .383.171.383.383v2.838a.383.383 0 01-.383.383h-.032a.383.383 0 01-.382-.383V9.842c0-.212.171-.383.382-.383zm6.234.007h-1.48a.384.384 0 00-.383.382v2.839c0 .21.172.382.383.382h1.48a.384.384 0 00.382-.382v-.032a.384.384 0 00-.382-.383h-1.066v-.606h1.066a.384.384 0 00.382-.382v-.032a.384.384 0 00-.382-.383h-1.066v-.606h1.066a.384.384 0 00.382-.383v-.032a.384.384 0 00-.382-.382z"/>
</svg>
