<svg xmlns="http://www.w3.org/2000/svg" width="24" height="24" fill="none" viewBox="0 0 24 24">
  <path fill="#B3B3B3" d="M9.54 15.46a1 1 0 01-.708-1.706l4.922-4.922a1 1 0 011.414 1.414l-4.922 4.922a.996.996 0 01-.707.293z"/>
  <path fill="#818181" d="M16.1 13.818a1.001 1.001 0 01-.707-1.707l3.881-3.88a2.482 2.482 0 000-3.505 2.54 2.54 0 00-3.505 0l-3.88 3.881a1 1 0 01-1.415-1.414l3.881-3.881a4.478 4.478 0 016.334 6.333l-3.882 3.88a.996.996 0 01-.707.293zm-9.622 8.18a4.476 4.476 0 01-3.167-7.643l3.882-3.88a1 1 0 111.414 1.414l-3.881 3.88a2.482 2.482 0 000 3.505 2.54 2.54 0 003.504 0l3.882-3.881a1 1 0 111.414 1.414l-3.881 3.882a4.463 4.463 0 01-3.167 1.309z"/>
</svg>
