<svg xmlns="http://www.w3.org/2000/svg" width="24" height="24" fill="none" viewBox="0 0 24 24">
  <path fill="#B3B3B3" d="M12.979 15.505a4.433 4.433 0 01-2.926-1.1 1.838 1.838 0 01-.236-.204 1 1 0 011.401-1.427.549.549 0 01.12.097 2.457 2.457 0 003.389-.093l4.547-4.548a2.479 2.479 0 00-3.505-3.504l-1.728 1.728a1 1 0 01-1.414-1.414l1.728-1.729a4.478 4.478 0 016.334 6.333l-4.548 4.548a4.462 4.462 0 01-3.162 1.313z"/>
  <path fill="#818181" d="M6.478 21.998a4.477 4.477 0 01-3.167-7.643L7.86 9.808a4.456 4.456 0 016.088-.213c.085.061.163.13.236.204a1 1 0 01-1.401 1.427.549.549 0 01-.12-.097 2.457 2.457 0 00-3.389.093L4.726 15.77a2.479 2.479 0 003.504 3.504l1.729-1.728a1 1 0 011.414 1.414l-1.728 1.729a4.463 4.463 0 01-3.167 1.31z"/>
</svg>
