<svg xmlns="http://www.w3.org/2000/svg" width="24" height="24" fill="none" viewBox="0 0 24 24">
  <path fill="#B3B3B3" d="M8.832 15.168a.998.998 0 001.414 0l4.922-4.922a1 1 0 10-1.414-1.414l-4.922 4.922a1 1 0 000 1.414z"/>
  <path fill="#B3B3B3" d="M20.689 3.312a4.484 4.484 0 00-6.334 0l-3.88 3.88a1 1 0 101.414 1.415l3.88-3.881a2.478 2.478 0 013.505 3.504l-3.881 3.882a1 1 0 001.414 1.414l3.882-3.881a4.483 4.483 0 000-6.333zM12.11 15.393l-3.88 3.881a2.478 2.478 0 11-3.505-3.505l3.881-3.88a1 1 0 00-1.414-1.415l-3.881 3.881a4.478 4.478 0 006.333 6.334l3.88-3.882a1 1 0 00-1.414-1.414z"/>
  <path fill="#818181" d="M21 18h-1v-1a1 1 0 00-2 0v1h-1a1 1 0 000 2h1v1a1 1 0 002 0v-1h1a1 1 0 000-2z"/>
</svg>
