<svg xmlns="http://www.w3.org/2000/svg" width="24" height="24" fill="none" viewBox="0 0 24 24">
  <path fill="#B3B3B3" d="M5.883 6.883a.997.997 0 01-.707-.293L3.888 5.302a1 1 0 011.414-1.414L6.59 5.176a1 1 0 01-.707 1.707z"/>
  <path fill="#818181" d="M15.733 13.745a1 1 0 01-.707-1.707l3.535-3.534a2.166 2.166 0 000-3.065 2.22 2.22 0 00-3.065 0l-3.535 3.535a1 1 0 01-1.414-1.414l3.535-3.535a4.167 4.167 0 015.893 5.893l-3.535 3.534a.998.998 0 01-.707.293zm-8.761 7.45a4.167 4.167 0 01-2.947-7.113l3.535-3.534a1 1 0 011.414 1.414l-3.535 3.534a2.167 2.167 0 000 3.065 2.22 2.22 0 003.065 0l3.535-3.535a1 1 0 011.414 1.414l-3.535 3.535a4.138 4.138 0 01-2.946 1.22z"/>
  <path fill="#B3B3B3" d="M19.405 20.405a1 1 0 01-.707-.293l-1.288-1.288a1 1 0 111.414-1.414l1.288 1.288a1 1 0 01-.707 1.707zM4.76 10.59a.991.991 0 01-.26-.034l-1.759-.472a1 1 0 11.518-1.932l1.759.472a1 1 0 01-.258 1.966zM21 15.883a.991.991 0 01-.259-.034l-1.76-.472a1.001 1.001 0 01.518-1.932l1.76.472A1 1 0 0121 15.883zM9.588 5.759a1 1 0 01-.966-.741l-.47-1.76a1 1 0 011.93-.517l.472 1.759a1 1 0 01-.966 1.259zM14.882 22a1 1 0 01-.965-.741l-.471-1.759a.998.998 0 011.466-1.125 1.002 1.002 0 01.465.607l.471 1.76A1 1 0 0114.883 22z"/>
</svg>
