<svg xmlns="http://www.w3.org/2000/svg" width="24" height="24" fill="none" viewBox="0 0 24 24">
  <path fill="#818181" d="M21 8H7a1 1 0 010-2h14a1 1 0 110 2zm0 5H7a1 1 0 010-2h14a1 1 0 010 2zm0 5H7a1 1 0 010-2h14a1 1 0 010 2zM3 8a1 1 0 01-.38-.08 1.152 1.152 0 01-.33-.21 1.162 1.162 0 01-.21-.33.946.946 0 010-.76 1.15 1.15 0 01.21-.33.998.998 0 011.09-.21c.122.048.234.12.33.21.088.097.16.209.21.33a.941.941 0 010 .76 1.171 1.171 0 01-.21.33A.992.992 0 013 8zm0 5a1.001 1.001 0 01-.38-.08 1.153 1.153 0 01-.33-.21 1.161 1.161 0 01-.21-.33.946.946 0 010-.76 1.03 1.03 0 01.21-.33 1.15 1.15 0 01.33-.21.998.998 0 011.09.21c.09.096.162.208.21.33a.94.94 0 010 .76 1.17 1.17 0 01-.21.33c-.097.088-.209.16-.33.21A.999.999 0 013 13zm0 5a1.001 1.001 0 01-.38-.08 1.153 1.153 0 01-.33-.21.991.991 0 01-.21-1.09 1.03 1.03 0 01.21-.33c.095-.09.207-.162.33-.21.243-.1.516-.1.76 0 .122.048.234.12.33.21.09.096.162.208.21.33a.99.99 0 01-.21 1.09c-.097.088-.209.16-.33.21A1 1 0 013 18z"/>
</svg>
