<svg xmlns="http://www.w3.org/2000/svg" width="24" height="24" fill="none" viewBox="0 0 24 24">
  <path fill="#B3B3B3" d="M18.01 4.442A8.5 8.5 0 005.99 16.465l5.303 5.303a.996.996 0 001.414 0l5.304-5.303a8.5 8.5 0 000-12.021zM12 12.044a3 3 0 110-6 3 3 0 010 6z"/>
  <path fill="#CCC" d="M12 12.044a3 3 0 110-6 3 3 0 010 6z"/>
  <path fill="#818181" d="M15.612 11.871a4.621 4.621 0 00-.725-.725c-.155-.125-.325-.216-.49-.317A2.99 2.99 0 0112 12.044a2.987 2.987 0 01-2.402-1.219 4.582 4.582 0 00-1.21 1.046 1 1 0 00.782 1.622h5.66a1 1 0 00.782-1.622z"/>
</svg>
