<svg xmlns="http://www.w3.org/2000/svg" width="24" height="24" fill="none" viewBox="0 0 24 24">
  <path fill="#CCC" d="M10 7c0-1.103.897-2 2-2 1.102 0 2 .897 2 2v2h2V7c0-2.206-1.794-4-4-4S8 4.794 8 7v2h2V7zm2 10a1 1 0 01-1-1v-2a1 1 0 112 0v2a1 1 0 01-1 1z"/>
  <path fill="#B3B3B3" d="M16 9H8a3 3 0 00-3 3v6a3 3 0 003 3h8a3 3 0 003-3v-6a3 3 0 00-3-3zm-3 7a1 1 0 11-2 0v-2a1 1 0 112 0v2z"/>
  <path fill="#818181" d="M21 22a.997.997 0 01-.707-.293l-18-18a1 1 0 011.414-1.414l18 18A1 1 0 0121 22z"/>
</svg>
