<svg xmlns="http://www.w3.org/2000/svg" width="24" height="24" fill="none" viewBox="0 0 24 24">
  <path fill="#B3B3B3" d="M12 22c-4.486 0-8-2.196-8-5 0-1.735 1.357-3.31 3.632-4.21a1 1 0 01.74 1.858l-.004.001C6.908 15.228 6 16.13 6 17c0 1.419 2.464 3 6 3s6-1.581 6-3c0-.871-.907-1.772-2.368-2.35a1 1 0 01.736-1.86C18.643 13.69 20 15.265 20 17c0 2.804-3.514 5-8 5zM12 10a4 4 0 100-8 4 4 0 000 8z"/>
  <path fill="#818181" d="M12 10c-.347 0-.679-.058-1-.141V17A1 1 0 0012 18h.001A1 1 0 0013 17V9.859A3.966 3.966 0 0112 10z"/>
</svg>
