<svg xmlns="http://www.w3.org/2000/svg" width="24" height="24" fill="none" viewBox="0 0 24 24">
  <path fill="#B3B3B3" d="M12 22.06a.997.997 0 01-.707-.293l-5.304-5.303a8.5 8.5 0 1112.022 0l-5.304 5.303a.995.995 0 01-.707.293z"/>
  <path fill="#818181" d="M12 13.953a1 1 0 01-1-1v-2a1 1 0 112 0v2a1.001 1.001 0 01-1 1zm0-5.003a.99.99 0 01-.38-.07 1.054 1.054 0 01-.33-.22 1.114 1.114 0 01-.21-.32.871.871 0 01-.08-.39c.002-.064.008-.127.02-.19.01-.067.03-.13.06-.19a.557.557 0 01.09-.17.991.991 0 01.12-.15c.047-.046.097-.09.15-.13l.18-.09.18-.06a.988.988 0 011.03.43.58.58 0 01.09.17c.03.059.05.123.06.19.012.063.018.126.02.19 0 .134-.028.267-.08.39a1.116 1.116 0 01-.21.32 1.195 1.195 0 01-.33.22.99.99 0 01-.38.07z"/>
</svg>
