<svg xmlns="http://www.w3.org/2000/svg" width="24" height="24" fill="none" viewBox="0 0 24 24">
  <path fill="#B3B3B3" d="M12 22.06a.997.997 0 01-.707-.293l-5.304-5.303a8.5 8.5 0 1112.022 0l-5.304 5.303a.995.995 0 01-.707.293z"/>
  <path fill="#818181" d="M12 14.953a.997.997 0 01-.595-.196l-1.369-1.014a4.16 4.16 0 01-1.661-3.335v-2.9a.999.999 0 011.213-.978 2.269 2.269 0 001.825-.386 1 1 0 011.174 0 2.28 2.28 0 001.825.386 1 1 0 011.213.978v2.9a4.16 4.16 0 01-1.66 3.335l-1.37 1.014a.998.998 0 01-.595.196z"/>
</svg>
