<svg xmlns="http://www.w3.org/2000/svg" width="24" height="24" fill="none" viewBox="0 0 24 24">
  <path fill="#B3B3B3" d="M12 22.06a.997.997 0 01-.707-.293l-5.304-5.303a8.5 8.5 0 1112.022 0l-5.304 5.303a.995.995 0 01-.707.293z"/>
  <path fill="#818181" d="M11.883 11.446a1 1 0 010-2 .75.75 0 10-.65-1.124A1 1 0 019.501 7.32a2.75 2.75 0 112.38 4.126zm-.003 3.504a.999.999 0 01-.38-.08 1.07 1.07 0 01-.54-.54.999.999 0 01-.08-.38 1.05 1.05 0 01.08-.39.873.873 0 01.22-.32 1.017 1.017 0 011.09-.22c.06.03.11.06.17.09.053.04.103.083.15.13a1 1 0 010 1.41c-.09.094-.2.169-.32.22a1.09 1.09 0 01-.39.08z"/>
  <path fill="#818181" d="M11.88 14.95a.998.998 0 01-.38-.08 1.07 1.07 0 01-.54-.54.998.998 0 01-.08-.38 1.05 1.05 0 01.08-.39.87.87 0 01.22-.32 1.017 1.017 0 011.09-.22c.06.03.11.06.17.09.052.04.103.083.15.13a1 1 0 010 1.41c-.09.094-.2.17-.32.22a1.09 1.09 0 01-.39.08z"/>
</svg>
