<svg xmlns="http://www.w3.org/2000/svg" width="24" height="24" fill="none" viewBox="0 0 24 24">
  <path fill="#B3B3B3" d="M17 6h-6a3.009 3.009 0 00-3 3v4.93a2.993 2.993 0 001.34 2.5L11 17.54V18a2.006 2.006 0 002 2h2a2.006 2.006 0 002-2v-.46l1.66-1.11A2.997 2.997 0 0020 14V9a3.009 3.009 0 00-3-3z"/>
  <path fill="#818181" d="M13 21a1 1 0 102 0v-1h-2v1zm7-9v2h-3a1 1 0 110-2h3zm0-3v2h-4a1 1 0 110-2h4zM5 22a1 1 0 01-1-1V7a5.006 5.006 0 015-5h8a1 1 0 110 2H9a3.003 3.003 0 00-3 3v14a1 1 0 01-1 1z"/>
  <path fill="#818181" d="M15 6V3a1 1 0 10-2 0v3h2z"/>
</svg>
