<svg xmlns="http://www.w3.org/2000/svg" width="24" height="24" fill="none" viewBox="0 0 24 24">
  <path fill="#B3B3B3" d="M19 22H5c-1.7 0-3-1.3-3-3V5c0-1.7 1.3-3 3-3h14c1.7 0 3 1.3 3 3v14c0 1.7-1.3 3-3 3z"/>
  <path fill="#818181" d="M17 10h-3V7h-4v3H7v4h3v3h4v-3h3v-4z"/>
  <path fill="#818181" d="M14 18h-4c-.6 0-1-.4-1-1v-2H7c-.6 0-1-.4-1-1v-4c0-.6.4-1 1-1h2V7c0-.6.4-1 1-1h4c.6 0 1 .4 1 1v2h2c.6 0 1 .4 1 1v4c0 .6-.4 1-1 1h-2v2c0 .6-.4 1-1 1zm-3-2h2v-2c0-.6.4-1 1-1h2v-2h-2c-.6 0-1-.4-1-1V8h-2v2c0 .6-.4 1-1 1H8v2h2c.6 0 1 .4 1 1v2z"/>
</svg>
