<svg xmlns="http://www.w3.org/2000/svg" width="24" height="24" fill="none" viewBox="0 0 24 24">
  <path fill="#CCC" d="M11.441 13.604a1.001 1.001 0 01-.707-.293L7.198 9.771a1 1 0 010-1.414l6.362-6.363a.997.997 0 01.391-.242l2.121-.707a1 1 0 011.024.242l2.122 2.121a1 1 0 01.241 1.024l-.708 2.122a.992.992 0 01-.241.39l-6.362 6.365a1.001 1.001 0 01-.707.293z"/>
  <path fill="#B3B3B3" d="M7.198 9.772l-1.416 1.415a1 1 0 000 1.415l2.122 2.12a1 1 0 001.414 0l1.414-1.413-3.534-3.537z"/>
  <path fill="#818181" d="M8 18.005H4a1 1 0 010-2h4a1 1 0 110 2z"/>
  <path fill="#B3B3B3" d="M20 23.005H4a1 1 0 010-2h16a1 1 0 110 2z"/>
  <path fill="#CCC" d="M14.816 21.005c.118-.32.18-.658.184-1a3 3 0 00-6 0c.003.342.066.68.184 1h5.632z"/>
  <path fill="#B3B3B3" d="M17.872 7.583l-1.414 1.415A5.955 5.955 0 0118 13.005a6.048 6.048 0 01-3.455 5.431 2.97 2.97 0 01.455 1.57 2.628 2.628 0 01-.04.407A8.043 8.043 0 0020 13.005a7.944 7.944 0 00-2.128-5.422zM9.421 18.499a7.036 7.036 0 01-1.095-.56.983.983 0 01-.326.066H5.326a8.874 8.874 0 003.72 2.472A2.691 2.691 0 019 20.005c.003-.53.148-1.05.42-1.506z"/>
</svg>
