<svg xmlns="http://www.w3.org/2000/svg" width="24" height="24" fill="none" viewBox="0 0 24 24">
  <path fill="#B3B3B3" d="M15.46 16.46a1.021 1.021 0 01-1.025-1 .993.993 0 01.6-.926.964.964 0 01.425-.1.98.98 0 011 .959v.067a1 1 0 01-1 1zm-4.103 0h-.1a1 1 0 110-2h.1a1 1 0 110 2zm-4.153 0h-.101a1 1 0 110-2h.1a1 1 0 110 2zm-4.154 0H3a1 1 0 01-1-1 1.022 1.022 0 011-1.025.993.993 0 01.926.6c.065.132.099.278.099.425a.979.979 0 01-.975 1zM3 12.357a1 1 0 01-1-.999v-.102a1 1 0 112 0v.101a1 1 0 01-1 1zm0-4.153a1 1 0 01-1-1v-.101a1 1 0 012 0v.101a1 1 0 01-1 1zm0-4.18a.978.978 0 01-1-.974V3a1 1 0 011-1 1.021 1.021 0 011.025 1 .993.993 0 01-.6.926.962.962 0 01-.425.098zM11.357 4h-.1a1 1 0 110-2h.1a1 1 0 110 2zM7.204 4h-.101a1 1 0 010-2h.1a1 1 0 010 2zm8.256.024a.993.993 0 01-.926-.6.957.957 0 01-.099-.424.979.979 0 01.975-1h.05a1 1 0 011 1 1.02 1.02 0 01-1 1.024zm0 8.333a1 1 0 01-1-.999v-.102a1 1 0 112-.002V11.357a1 1 0 01-1 1zm0-4.153a1 1 0 01-1-1v-.101a1 1 0 112-.002V7.204a1 1 0 01-1 1z"/>
  <path fill="#818181" d="M21 22H8.539a1 1 0 01-1-1V8.538a1 1 0 011-1H21a1 1 0 011 1V21a1 1 0 01-1 1z"/>
</svg>
