<svg xmlns="http://www.w3.org/2000/svg" width="24" height="24" fill="none" viewBox="0 0 24 24">
  <path fill="#B3B3B3" d="M9.879 21.364a2.98 2.98 0 01-2.121-.879h-.001l-4.242-4.243a3 3 0 010-4.242L12 3.515a3.074 3.074 0 014.243 0l4.242 4.243a3 3 0 010 4.242L12 20.485a2.983 2.983 0 01-2.121.88z"/>
  <path fill="#818181" d="M3.515 8.758a1 1 0 01-.707-1.707L7.05 2.808a1 1 0 011.414 1.414L4.222 8.465a.997.997 0 01-.707.293zm12.727 12.727a1.001 1.001 0 01-.707-1.707l4.243-4.243a1 1 0 111.414 1.414l-4.243 4.243a.999.999 0 01-.707.293zM9.172 15.828a1 1 0 100-2 1 1 0 000 2z"/>
</svg>
