<svg xmlns="http://www.w3.org/2000/svg" width="24" height="24" fill="none" viewBox="0 0 24 24">
  <path fill="#CCC" d="M2 10v1.854c.325.093.662.142 1 .146a4.004 4.004 0 004-4 3.791 3.791 0 00-.146-1H5a3.003 3.003 0 00-3 3zm20 1.854V10a3.003 3.003 0 00-3-3h-1.854A3.79 3.79 0 0017 8a4.004 4.004 0 004 4 3.793 3.793 0 001-.146zM22 18v-1.854A3.793 3.793 0 0021 16a4.004 4.004 0 00-4 4c.004.338.053.675.146 1H19a3.003 3.003 0 003-3zM2 16.146V18a3.003 3.003 0 003 3h1.854A3.79 3.79 0 007 20a4.004 4.004 0 00-4-4 3.793 3.793 0 00-1 .146z"/>
  <path fill="#B3B3B3" d="M17 8c.004-.338.053-.675.146-1H6.854c.093.325.142.662.146 1a4.004 4.004 0 01-4 4 3.798 3.798 0 01-1-.146v4.292A3.798 3.798 0 013 16a4.004 4.004 0 014 4 3.792 3.792 0 01-.146 1h10.292A3.793 3.793 0 0117 20a4.004 4.004 0 014-4c.338.004.675.053 1 .146v-4.292A3.798 3.798 0 0121 12a4.004 4.004 0 01-4-4z"/>
  <path fill="#818181" d="M10 7V6a1 1 0 011-1h2a1 1 0 011 1v1h2V6a3.003 3.003 0 00-3-3h-2a3.003 3.003 0 00-3 3v1h2zm2 10a3 3 0 110-6 3 3 0 010 6z"/>
</svg>
