<svg xmlns="http://www.w3.org/2000/svg" width="24" height="24" fill="none" viewBox="0 0 24 24">
  <path fill="#B3B3B3" d="M20.683 10.99a4.039 4.039 0 01-3.67-3.644 3.908 3.908 0 01.123-1.345H6.863c.119.438.16.893.123 1.345a4.039 4.039 0 01-3.67 3.643A3.922 3.922 0 012 10.865v6.27a3.922 3.922 0 011.316-.123 4.039 4.039 0 013.67 3.642c.037.453-.004.908-.123 1.346h10.273a3.908 3.908 0 01-.123-1.346 4.039 4.039 0 013.67-3.642c.442-.034.887.008 1.316.124v-6.27a3.925 3.925 0 01-1.316.123z"/>
  <path fill="#818181" d="M10 6V5a1 1 0 011-1h2a1 1 0 011 1v1h2V5a3.003 3.003 0 00-3-3h-2a3.003 3.003 0 00-3 3v1h2zm2 11a3 3 0 110-6 3 3 0 010 6z"/>
  <path fill="#CCC" d="M3.316 17.012A3.922 3.922 0 002 17.136V19a3.003 3.003 0 003 3h1.863c.118-.438.16-.893.123-1.346a4.039 4.039 0 00-3.67-3.642zm17.367 0c.442-.034.887.008 1.316.124V19a3.003 3.003 0 01-3 3h-1.863a3.908 3.908 0 01-.123-1.346 4.039 4.039 0 013.67-3.642zm0-6.023a3.92 3.92 0 001.316-.124V9.001a3.003 3.003 0 00-3-3h-1.863c-.119.438-.16.893-.123 1.345a4.039 4.039 0 003.67 3.643zm-17.367 0A3.922 3.922 0 012 10.865V9.001a3.003 3.003 0 013-3h1.863c.118.438.16.893.123 1.345a4.039 4.039 0 01-3.67 3.643z"/>
</svg>
