<svg xmlns="http://www.w3.org/2000/svg" width="24" height="24" fill="none" viewBox="0 0 24 24">
  <path fill="#B3B3B3" d="M20 15H4a3.003 3.003 0 01-3-3V4a3.003 3.003 0 013-3h16a3.003 3.003 0 013 3v8a3.003 3.003 0 01-3 3z"/>
  <path fill="#818181" d="M6 9a1 1 0 100-2 1 1 0 000 2zM18 9a1 1 0 100-2 1 1 0 000 2zM16 15H8V1h8v14z"/>
  <path fill="#B3B3B3" d="M16 15H8v4h8v-4z"/>
  <path fill="#9A9A9A" d="M16 19H8v4h8v-4z"/>
  <path fill="#CCC" d="M4 15a3.003 3.003 0 01-3-3v4a3.003 3.003 0 003 3h4v-4H4zm16 0h-4v4h4a3.003 3.003 0 003-3v-4a3.003 3.003 0 01-3 3z"/>
  <path fill="#B3B3B3" d="M20 19h-4v4h4a3.003 3.003 0 003-3v-4a3.003 3.003 0 01-3 3zM4 19a3.003 3.003 0 01-3-3v4a3.003 3.003 0 003 3h4v-4H4z"/>
</svg>
