<svg xmlns="http://www.w3.org/2000/svg" width="24" height="24" fill="none" viewBox="0 0 24 24">
  <path fill="#B3B3B3" d="M5 6v12.18a2.934 2.934 0 011.624-.117 3.01 3.01 0 012.352 2.547c.063.47.01.947-.156 1.39h6.36a2.876 2.876 0 01-.156-1.39 3.01 3.01 0 012.352-2.547A2.934 2.934 0 0119 18.18V6H5z"/>
  <path fill="#818181" d="M21 2H3a2 2 0 00-2 2v6a2 2 0 002 2h2V6h14v6h2a2 2 0 002-2V4a2 2 0 00-2-2z"/>
  <path fill="#818181" d="M12 15a3 3 0 110-6 3 3 0 010 6z"/>
  <path fill="#CCC" d="M6.624 18.063A2.933 2.933 0 005 18.18V20a2.006 2.006 0 002 2h1.82c.165-.443.219-.92.156-1.39a3.01 3.01 0 00-2.352-2.547zm10.752 0a3.01 3.01 0 00-2.352 2.547c-.063.47-.01.947.156 1.39H17a2.006 2.006 0 002-2v-1.82a2.934 2.934 0 00-1.624-.117z"/>
</svg>
