<svg xmlns="http://www.w3.org/2000/svg" width="24" height="24" fill="none" viewBox="0 0 24 24">
  <path fill="#B3B3B3" d="M20 8H4a3.003 3.003 0 00-3 3v8a3.003 3.003 0 003 3h16a3.003 3.003 0 003-3v-8a3.003 3.003 0 00-3-3zm-8 10a3 3 0 110-6 3 3 0 010 6z"/>
  <path fill="#818181" d="M12 10a1 1 0 01-1-1V3a1 1 0 112 0v6a1 1 0 01-1 1z"/>
  <path fill="#818181" d="M14.25 6.25a.997.997 0 01-.707-.293L12 4.414l-1.543 1.543a1 1 0 01-1.414-1.414l2.25-2.25a1 1 0 011.414 0l2.25 2.25a1 1 0 01-.707 1.707z"/>
  <path fill="#CCC" d="M12 18a3 3 0 110-6 3 3 0 010 6z"/>
  <path fill="#818181" d="M6 16a1 1 0 100-2 1 1 0 000 2zM18 16a1 1 0 100-2 1 1 0 000 2z"/>
</svg>
