<svg xmlns="http://www.w3.org/2000/svg" width="24" height="24" fill="none" viewBox="0 0 24 24">
  <path fill="#CCC" d="M20 5c0-.552-.448-1-1-1H5c-.552 0-1 .448-1 1v10h16V5z"/>
  <path fill="#818181" d="M20 8h-4.5a1 1 0 00-.707.293l-1.244 1.244-2.797-3.196a1 1 0 00-.719-.34.968.968 0 00-.74.292L7.586 8H4v2h4a1 1 0 00.707-.293l1.244-1.244 2.797 3.196a1 1 0 00.719.34L13.5 12a1 1 0 00.707-.293L15.914 10H20V8z"/>
  <path fill="#B3B3B3" d="M19 2H5a3.003 3.003 0 00-3 3v14a3.003 3.003 0 003 3h14a3.003 3.003 0 003-3V5a3.003 3.003 0 00-3-3zM4 5c0-.552.448-1 1-1h14c.552 0 1 .448 1 1v10H4V5z"/>
  <path fill="#818181" d="M5 19a1 1 0 100-2 1 1 0 000 2zM9 19a1 1 0 100-2 1 1 0 000 2z"/>
</svg>
