<svg xmlns="http://www.w3.org/2000/svg" width="24" height="24" fill="none" viewBox="0 0 24 24">
  <path fill="#B3B3B3" d="M16.68 17H7.43c-.239 0-.47-.086-.652-.241A8.042 8.042 0 019.491 3.053a1 1 0 011.307 1.1A7.039 7.039 0 0010.7 5.2a6.061 6.061 0 006.06 6.05 5.97 5.97 0 001.92-.317 1 1 0 011.305 1.116 8.045 8.045 0 01-2.65 4.707 1.002 1.002 0 01-.655.244z"/>
  <path fill="#818181" d="M11 21H8a1 1 0 010-2h3a1 1 0 010 2zm5 0h-1a1 1 0 010-2h1a1 1 0 010 2zm4-4H4a1 1 0 010-2h16a1 1 0 010 2z"/>
</svg>
