<svg xmlns="http://www.w3.org/2000/svg" width="24" height="24" fill="none" viewBox="0 0 24 24">
  <path fill="#B3B3B3" d="M12 22c5.523 0 10-4.477 10-10S17.523 2 12 2 2 6.477 2 12s4.477 10 10 10z"/>
  <path fill="#818181" d="M12 17.092a5.68 5.68 0 01-3.643-1.325 1 1 0 111.286-1.534 3.761 3.761 0 004.714 0 1 1 0 011.286 1.534A5.68 5.68 0 0112 17.092zM6.77 10H3.5a1 1 0 010-2h3.27a1 1 0 010 2zm13.71 0h-3.25a1 1 0 110-2h3.25a1 1 0 010 2z"/>
  <path fill="#818181" d="M15.5 12a2 2 0 100-4 2 2 0 000 4z"/>
  <path fill="#818181" d="M15.5 13a3 3 0 110-5.999 3 3 0 010 5.999zm0-4a1 1 0 100 2 1 1 0 000-2zM8.5 12a2 2 0 100-4 2 2 0 000 4z"/>
  <path fill="#818181" d="M8.5 13a3 3 0 110-6 3 3 0 010 6zm0-4a1 1 0 100 2 1 1 0 000-2z"/>
  <path fill="#818181" d="M12.753 10.352a1.012 1.012 0 00-1.506 0L9.714 9.068a2.98 2.98 0 014.572 0l-1.533 1.284z"/>
</svg>
