<svg xmlns="http://www.w3.org/2000/svg" width="24" height="24" fill="none" viewBox="0 0 24 24">
  <path fill="#CCC" d="M8.444 3.111a2 2 0 00-2 2v13.556a2.222 2.222 0 01-2.222 2.222h14.445A3.333 3.333 0 0022 17.556V5.11a2 2 0 00-2-2H8.444z"/>
  <path fill="#B3B3B3" d="M6.444 18.667V7.556H4a2 2 0 00-2 2v9.333a2 2 0 002 2h.222a2.222 2.222 0 002.222-2.222z"/>
  <path fill="#818181" d="M17 9h-6a1 1 0 110-2h6a1 1 0 110 2zm0 4h-1a1 1 0 110-2h1a1 1 0 110 2zm-5 0h-1a1 1 0 110-2h1a1 1 0 110 2zm5 4h-1a1 1 0 110-2h1a1 1 0 110 2zm-5 0h-1a1 1 0 110-2h1a1 1 0 110 2z"/>
</svg>
