<svg xmlns="http://www.w3.org/2000/svg" width="24" height="24" fill="none" viewBox="0 0 24 24">
  <path fill="#B3B3B3" d="M22 12H2c0-2.2.7-4.3 2-6h16c1.3 1.7 2 3.8 2 6z"/>
  <path fill="#818181" d="M20 6c-1.8-2.4-4.7-4-8-4S5.8 3.6 4 6h16zM14 10a1 1 0 100-2 1 1 0 000 2zM8 10a1 1 0 100-2 1 1 0 000 2z"/>
  <path fill="#B3B3B3" d="M11.5 18.1c-.6 0-1-.4-1-1 0-.2 0-.3.1-.5.9-1.6 2.6-2.6 4.4-2.6.6 0 1 .4 1 1s-.4 1-1 1c-1.1 0-2.1.6-2.6 1.5-.2.4-.5.6-.9.6z"/>
  <path fill="#818181" d="M2 12c0 5.5 4.5 10 10 10s10-4.5 10-10H2zm13 4c-1.1 0-2.1.6-2.6 1.5-.2.3-.5.5-.9.5-.6 0-1-.4-1-1 0-.2 0-.3.1-.5.9-1.5 2.6-2.5 4.4-2.5.6 0 1 .4 1 1s-.4 1-1 1z"/>
</svg>
