<svg xmlns="http://www.w3.org/2000/svg" width="24" height="24" fill="none" viewBox="0 0 24 24">
  <path fill="#CCC" d="M19.963 20.732L18.927 17H5.073l-1.036 3.732A.998.998 0 005 22h14a1 1 0 00.963-1.268z"/>
  <path fill="#818181" d="M21 22H3a1 1 0 110-2h18a1 1 0 110 2z"/>
  <path fill="#B3B3B3" d="M16.981 10h-9.96l1.11-4h7.74l1.11 4zM6.184 13l-1.111 4h13.854l-1.111-4H6.184z"/>
  <path fill="#CCC" d="M15.87 6h.001l-.373-1.341a3.63 3.63 0 00-6.996 0L8.129 6h7.742zM16.981 10H7.018l-.834 3h11.632l-.834-3z"/>
</svg>
