<svg xmlns="http://www.w3.org/2000/svg" width="24" height="24" fill="none" viewBox="0 0 24 24">
  <path fill="#B3B3B3" d="M4 16a2 2 0 110-4 2 2 0 010 4zM4 6a2 2 0 110-4 2 2 0 010 4zm10 0a2 2 0 110-4 2 2 0 010 4zm0 10a2 2 0 110-4 2 2 0 010 4z"/>
  <path fill="#818181" d="M10 22a2 2 0 110-4 2 2 0 010 4zm0-10a2 2 0 110-4 2 2 0 010 4zm10 0a2 2 0 110-4 2 2 0 010 4zm0 10a2 2 0 110-4 2 2 0 010 4z"/>
  <path fill="#CCC" d="M12.278 5a1.936 1.936 0 010-2H5.722a1.936 1.936 0 010 2h6.556zM4 12c.352.002.697.098 1 .278V5.722a1.936 1.936 0 01-2 0v6.556c.303-.18.648-.276 1-.278z"/>
  <path fill="#B3B3B3" d="M20 18c.352.002.697.098 1 .278v-6.556a1.936 1.936 0 01-2 0v6.556c.303-.18.648-.276 1-.278zm-10 0c.352.002.697.098 1 .278v-6.556a1.936 1.936 0 01-2 0v6.556c.303-.18.648-.276 1-.278z"/>
  <path fill="#CCC" d="M12.278 13H11v2h1.278a1.936 1.936 0 010-2zM9 15v-2H5.722a1.936 1.936 0 010 2H9z"/>
  <path fill="#B3B3B3" d="M18.278 19h-6.556a1.936 1.936 0 010 2h6.556a1.936 1.936 0 010-2zm0-8a1.936 1.936 0 010-2h-6.556a1.936 1.936 0 010 2h6.556z"/>
  <path fill="#CCC" d="M15 9V5.722a1.936 1.936 0 01-2 0V9h2zm-2 2v1.278a1.936 1.936 0 012 0V11h-2z"/>
</svg>
