<svg xmlns="http://www.w3.org/2000/svg" width="24" height="24" fill="none" viewBox="0 0 24 24">
  <path fill="#CCC" d="M15 23h-2a2.002 2.002 0 01-2-2v-4a2.002 2.002 0 012-2h2a2.002 2.002 0 012 2v4a2.002 2.002 0 01-2 2z"/>
  <path fill="#B3B3B3" d="M18 9h-8a3.003 3.003 0 01-3-3V4a3.003 3.003 0 013-3h8a3.003 3.003 0 013 3v2a3.003 3.003 0 01-3 3z"/>
  <path fill="#818181" d="M12 11H6a1 1 0 01-1-1V7c0-.552.448-1 1-1h1V4H6a3.003 3.003 0 00-3 3v3a3.003 3.003 0 003 3h6a1 1 0 011 1v1h2v-1a3.003 3.003 0 00-3-3z"/>
</svg>
