<svg xmlns="http://www.w3.org/2000/svg" width="24" height="24" fill="none" viewBox="0 0 24 24">
  <path fill="#CCC" d="M12.372 23a10.999 10.999 0 01-2.358-21.745 11.001 11.001 0 0112.2 5.829 3.979 3.979 0 01.18 3.105 3.845 3.845 0 01-2.062 2.246 4.999 4.999 0 00-2.86 5.562 4.206 4.206 0 01-.614 3.176 3.84 3.84 0 01-2.5 1.645c-.655.121-1.32.182-1.986.182z"/>
  <path fill="#818181" d="M12.372 7a1 1 0 100-2 1 1 0 000 2zM12.372 13a1 1 0 100-2 1 1 0 000 2zM12.372 19a1 1 0 100-2 1 1 0 000 2zM6.372 13a1 1 0 100-2 1 1 0 000 2zM8.129 8.757a1 1 0 100-2 1 1 0 000 2zM8.129 17.243a1 1 0 100-2 1 1 0 000 2zM16.615 8.757a1 1 0 100-2 1 1 0 000 2z"/>
</svg>
