<svg xmlns="http://www.w3.org/2000/svg" width="24" height="24" fill="none" viewBox="0 0 24 24">
  <path fill="#B3B3B3" d="M11.43 9.553a.968.968 0 01-.588-.196.98.98 0 01-.21-1.38l.03-.04a1 1 0 01.798-.397 1.021 1.021 0 011.025 1 .983.983 0 01-.846.992c-.069.014-.138.02-.208.02zm4.858-.013h-.116a1 1 0 010-2h.116a1 1 0 110 2zM21 9.565a.993.993 0 01-.926-.6.957.957 0 01-.098-.425.979.979 0 01.974-1H21a1 1 0 011 1 1.021 1.021 0 01-1 1.025zm0 8.333a.997.997 0 01-1-1v-.102a1 1 0 012 0v.102a1 1 0 01-1 1zm0-4.154a.997.997 0 01-1-1v-.101a1 1 0 012 0v.101a1 1 0 01-1 1zM21 22a1.02 1.02 0 01-1.024-1 .993.993 0 01.6-.926.957.957 0 01.424-.098.98.98 0 011 .974V21a1 1 0 01-1 1zm-4.102 0h-.102a1 1 0 110-2h.102a1 1 0 010 2zm-4.154 0h-.101a1 1 0 110-2h.101a1 1 0 010 2zM8.59 22h-.05a1 1 0 01-1-1 1.02 1.02 0 011-1.024.993.993 0 01.926.6c.065.131.1.277.1.424a.98.98 0 01-.976 1zm-.05-4.42a1 1 0 01-1-1v-.11a1 1 0 012 0v.11a1 1 0 01-1 1zm.214-4.408a1 1 0 01-.806-1.592l.065-.088a1 1 0 011.613 1.184l-.064.088a1 1 0 01-.808.408zm2.706 3.288a1.02 1.02 0 01-1.025-1 .983.983 0 01.808-.986.997.997 0 011.031.355.98.98 0 01.073 1.097l-.026.043a1.002 1.002 0 01-.861.491z"/>
  <path fill="#B3B3B3" d="M7.281 16.46h-.103a1 1 0 110-2h.103a1 1 0 010 2zm-4.231 0H3a.998.998 0 01-1-1 1.021 1.021 0 011-1.025.994.994 0 01.926.6.957.957 0 01.098.425.978.978 0 01-.974 1zM3 12.357a1 1 0 01-1-1v-.101a1 1 0 112 0v.101a1 1 0 01-1 1zm0-4.153a1 1 0 01-1-1v-.101a1 1 0 012 0v.101a1 1 0 01-1 1zm0-4.18a.978.978 0 01-1-.974V3a1 1 0 011-1 1.02 1.02 0 011.024 1 .993.993 0 01-.6.926.957.957 0 01-.424.098zM11.357 4h-.101a1 1 0 110-2h.101a1 1 0 110 2zM7.204 4h-.101a1 1 0 010-2h.101a1 1 0 110 2zm8.256.024a.993.993 0 01-.926-.6.959.959 0 01-.1-.424.98.98 0 01.976-1h.05a1 1 0 011 1 1.02 1.02 0 01-1 1.024zm-1.772 8.58a1 1 0 01-.867-1.497l.055-.095a1 1 0 111.736.992l-.054.096a1 1 0 01-.87.504zm1.772-4.04a1 1 0 01-1-1v-.11a1 1 0 012 0v.11a.998.998 0 01-1 1z"/>
  <path fill="#818181" d="M15.462 16.462H8.538a.998.998 0 01-1-1V8.538a1 1 0 011-1h6.924a1 1 0 011 1v6.924a.998.998 0 01-1 1zm-5.924-2h4.924V9.538H9.538v4.924z"/>
  <path fill="#818181" d="M15.462 16.462H8.538a.998.998 0 01-1-1V8.538a1 1 0 011-1h6.924a1 1 0 011 1v6.924a.998.998 0 01-1 1z"/>
</svg>
