<svg xmlns="http://www.w3.org/2000/svg" width="24" height="24" fill="none" viewBox="0 0 24 24">
  <path fill="#B3B3B3" d="M8.882 19.94a1 1 0 01-.988.843H4.063a1.533 1.533 0 01-1.516-1.785l2.59-16.406A1.892 1.892 0 017 1h6.214c2.56 0 4.408.62 5.492 1.843a4.959 4.959 0 011.08 4.395c-.021.135-.043.27-.075.418-.823 4.218-3.655 6.457-8.185 6.457h-1.72l-.924 5.827zm-4.36-.628l-.001.006.002-.006zM7.114 2.897v.002-.002z"/>
  <path fill="#818181" d="M20.436 7.104a4.096 4.096 0 00-.544-.508 4.95 4.95 0 01-.106.642c-.021.135-.043.27-.075.418-.823 4.218-3.655 6.457-8.186 6.457H9.807l-.925 5.827a1 1 0 01-.988.843H6.727l-.082.52A1.467 1.467 0 008.093 23h3.234a1.76 1.76 0 001.751-1.469l.64-4.031.012-.055h.298c4.033 0 6.551-1.993 7.286-5.762a5.149 5.149 0 00-.878-4.578z"/>
</svg>
