<svg xmlns="http://www.w3.org/2000/svg" width="24" height="24" fill="none" viewBox="0 0 24 24">
  <path fill="#B3B3B3" d="M18.914 21.936c-.13 0-.259-.008-.388-.025A19.094 19.094 0 017.501 16.5 19.094 19.094 0 012.09 5.474a3.037 3.037 0 01.73-2.394 2.994 2.994 0 012.248-1.016h3.026a2.981 2.981 0 012.954 2.49 10.037 10.037 0 00.513 1.988 1.994 1.994 0 01-1.037 2.481l-.457.213a12.5 12.5 0 004.698 4.699l.213-.458a1.996 1.996 0 012.482-1.037 9.81 9.81 0 001.986.512 2.981 2.981 0 012.49 2.955v3.027a2.995 2.995 0 01-1.015 2.247 3.036 3.036 0 01-2.006.755z"/>
  <path fill="#818181" d="M3 22a1 1 0 01-.707-1.707l18-18a1.001 1.001 0 011.713.705 1 1 0 01-.299.709l-18 18A.996.996 0 013 22z"/>
</svg>
