<svg xmlns="http://www.w3.org/2000/svg" width="24" height="24" fill="none" viewBox="0 0 24 24">
  <path fill="#B3B3B3" d="M17.235 3.818L13.993 7.06 7.506 4.897a1 1 0 00-1.024.242l-.9.9a1 1 0 00.293 1.618l5.17 2.35-3.616 3.617a1 1 0 01-1.154.187l-1.07-.534a1 1 0 00-1.153.187l-.552.551a1 1 0 000 1.415l5.07 5.07a1 1 0 001.414 0l.552-.552a1 1 0 00.187-1.154l-.534-1.069a1 1 0 01.187-1.154l3.617-3.617 2.35 5.17a1 1 0 001.618.294l.9-.9a1 1 0 00.242-1.024l-2.163-6.487 3.242-3.242a2.084 2.084 0 000-2.947 2.084 2.084 0 00-2.947 0z"/>
</svg>
