<svg xmlns="http://www.w3.org/2000/svg" width="24" height="24" fill="none" viewBox="0 0 24 24">
  <path fill="#CCC" d="M19 8H5a1 1 0 010-2h14a1 1 0 110 2z"/>
  <path fill="#818181" d="M16 6V3a1 1 0 10-2 0v3h2zm-6 0V3a1 1 0 10-2 0v3h2z"/>
  <path fill="#B3B3B3" d="M6 8v5a1 1 0 00.293.707l3 3A1 1 0 0010 17h4a1 1 0 00.707-.293l3-3A1 1 0 0018 13V8H6z"/>
  <path fill="#CCC" d="M14.707 16.707A1 1 0 0114 17h-4a1 1 0 01-.707-.293L9 16.414V21a1 1 0 001 1h4a1 1 0 001-1v-4.586l-.293.293z"/>
  <path fill="#818181" d="M13 13h-2a1 1 0 110-2h2a1 1 0 110 2z"/>
</svg>
