<svg xmlns="http://www.w3.org/2000/svg" width="24" height="24" fill="none" viewBox="0 0 24 24">
  <path fill="#CCC" d="M16.438 13.25H7.561a2.996 2.996 0 01-2.91-2.273L4.03 8.493A1 1 0 015 7.25h14a1 1 0 01.97 1.243l-.62 2.484a2.996 2.996 0 01-2.912 2.273z"/>
  <path fill="#B3B3B3" d="M8 7.25v-.5a2.002 2.002 0 012-2h1a1 1 0 100-2h-1a4.005 4.005 0 00-4 4v.5h2zm8.439 6H7.56c-.156 0-.31-.015-.46-.039l.905 8.15A1 1 0 009 22.25h6a1 1 0 00.994-.89l.905-8.149a3 3 0 01-.46.039z"/>
  <path fill="#818181" d="M17 22.25H7a1 1 0 110-2h10a1 1 0 110 2zm-5.5-17h-1a1.5 1.5 0 110-3h1a1.5 1.5 0 010 3z"/>
</svg>
