<svg xmlns="http://www.w3.org/2000/svg" width="24" height="24" fill="none" viewBox="0 0 24 24">
  <path fill="#B3B3B3" d="M7.403 7.48a1 1 0 010 1.414 6.504 6.504 0 109.194 0 .993.993 0 011.348-1.458 8.473 8.473 0 00-11.89 0 .992.992 0 011.348.043z"/>
  <path fill="#818181" d="M14.5 6.5a.997.997 0 01-.707-.293L12 4.414l-1.793 1.793a1 1 0 01-1.414-1.414l2.5-2.5a1 1 0 011.414 0l2.5 2.5A.999.999 0 0114.5 6.5z"/>
  <path fill="#818181" d="M12 11a.998.998 0 01-1-1V3a1 1 0 012 0v7a.998.998 0 01-1 1z"/>
  <path fill="#818181" d="M12 21.996A8.502 8.502 0 015.99 7.48a1 1 0 011.413 1.414 6.504 6.504 0 109.194 0A1 1 0 0118.01 7.48 8.5 8.5 0 0112 21.996z"/>
</svg>
