<svg xmlns="http://www.w3.org/2000/svg" width="24" height="24" fill="none" viewBox="0 0 24 24">
  <path fill="#B3B3B3" d="M19 16H5a.998.998 0 01-1-1V3a1 1 0 011-1h14a1 1 0 011 1v12a.998.998 0 01-1 1z"/>
  <path fill="#818181" d="M14 10h-4a1 1 0 010-2h4a1 1 0 110 2z"/>
  <path fill="#818181" d="M12 12a.998.998 0 01-1-1V7a1 1 0 012 0v4a.998.998 0 01-1 1zm9-8H3a1 1 0 010-2h18a1 1 0 110 2zm0 12H3a1 1 0 010-2h18a1 1 0 010 2z"/>
  <path fill="#818181" d="M12 22a.998.998 0 01-1-1v-6a1 1 0 012 0v6a.998.998 0 01-1 1z"/>
  <path fill="#818181" d="M16.999 22a.996.996 0 01-.55-.166l-5-3.31a1 1 0 111.103-1.668l5 3.31A1 1 0 0116.999 22z"/>
  <path fill="#818181" d="M7.001 22a1 1 0 01-.553-1.834l5-3.31a1 1 0 011.104 1.668l-5 3.31A.996.996 0 017 22z"/>
</svg>
