<svg xmlns="http://www.w3.org/2000/svg" width="24" height="24" fill="none" viewBox="0 0 24 24">
  <path fill="#B3B3B3" d="M19 16H5a1 1 0 01-1-1V3a1 1 0 011-1h14a1 1 0 011 1v12a1 1 0 01-1 1z"/>
  <path fill="#818181" d="M21 16H3a1 1 0 010-2h18a1 1 0 010 2z"/>
  <path fill="#818181" d="M12 22a1 1 0 01-1-1v-6a1 1 0 012 0v6a1 1 0 01-1 1z"/>
  <path fill="#818181" d="M16.999 22a.996.996 0 01-.55-.166l-5-3.31a1 1 0 111.103-1.668l5 3.31A1 1 0 0116.999 22z"/>
  <path fill="#818181" d="M7.001 22a1 1 0 01-.553-1.834l5-3.31a1 1 0 011.384.284c.146.22.199.49.146.75a1 1 0 01-.426.634l-5 3.31A.995.995 0 017 22zm1.998-10a1 1 0 01-.831-1.555l2-3a1 1 0 011.539-.152l1.138 1.138 1.323-1.986a1 1 0 111.664 1.11l-2 3a1 1 0 01-1.539.152L11.155 9.57l-1.323 1.986a1 1 0 01-.833.445z"/>
</svg>
