<svg xmlns="http://www.w3.org/2000/svg" width="24" height="24" fill="none" viewBox="0 0 24 24">
  <path fill="#B3B3B3" d="M19 16.023H5a1.001 1.001 0 01-1-1v-12a1 1 0 011-1h14a1 1 0 011 1v12a1 1 0 01-1 1z"/>
  <path fill="#818181" d="M11.978 12.046h-1.815a.748.748 0 01-.75-.75V9.481a.75.75 0 01.22-.53l2.685-2.685a.75.75 0 011.06 0l1.815 1.815a.75.75 0 010 1.06l-2.685 2.686a.75.75 0 01-.53.22zM21 4.023H3a1 1 0 010-2h18a1 1 0 110 2zm0 12H3a1 1 0 010-2h18a1 1 0 010 2z"/>
  <path fill="#818181" d="M12 22.023a1.001 1.001 0 01-1-1v-6a1 1 0 012 0v6a1 1 0 01-1 1z"/>
  <path fill="#818181" d="M16.999 22.023a.996.996 0 01-.55-.166l-5-3.31a1 1 0 011.103-1.668l5 3.31a1 1 0 01-.553 1.834z"/>
  <path fill="#818181" d="M7.001 22.023a1 1 0 01-.553-1.834l5-3.31a1 1 0 111.104 1.668l-5 3.31a.994.994 0 01-.551.166z"/>
</svg>
