<svg xmlns="http://www.w3.org/2000/svg" width="24" height="24" fill="none" viewBox="0 0 24 24">
  <path fill="#9A9A9A" d="M17 22H7a1 1 0 01-1-.999V15a1 1 0 01.999-1H17a1 1 0 011 .999V21a1 1 0 01-.999 1H17z"/>
  <path fill="#B3B3B3" d="M19 6H5a3.003 3.003 0 00-3 3v6a3.003 3.003 0 003 3h1v-3a1 1 0 01.999-1H17a1 1 0 011 .999V18h1a3.003 3.003 0 003-3V9a3.003 3.003 0 00-3-3z"/>
  <path fill="#CCC" d="M18 6V3v-.001A1 1 0 0017 2H7h-.001A1 1 0 006 3v3h12z"/>
  <path fill="#818181" d="M7 12a1 1 0 100-2 1 1 0 000 2zM21 22a.997.997 0 01-.707-.293l-18-18a1 1 0 011.414-1.414l18 18A1 1 0 0121 22z"/>
</svg>
