<svg xmlns="http://www.w3.org/2000/svg" width="24" height="24" fill="none" viewBox="0 0 24 24">
  <path fill="#B3B3B3" d="M12 22c5.523 0 10-4.477 10-10S17.523 2 12 2 2 6.477 2 12s4.477 10 10 10z"/>
  <path fill="#818181" d="M15 10a3 3 0 00-5.598-1.501 1 1 0 101.73 1.002A1 1 0 1112 11a.997.997 0 00-1 1v1a1 1 0 002 0v-.184A2.995 2.995 0 0015 10zm-3 7a.998.998 0 01-.38-.08 1.147 1.147 0 01-.33-.21 1.158 1.158 0 01-.21-.33A.832.832 0 0111 16c.002-.067.008-.134.02-.2a.652.652 0 01.06-.18.74.74 0 01.09-.18c.037-.053.077-.103.12-.15a1.047 1.047 0 011.42 0c.184.19.288.445.29.71a1 1 0 01-.08.38.901.901 0 01-.54.54A1 1 0 0112 17z"/>
</svg>
