<svg xmlns="http://www.w3.org/2000/svg" width="24" height="24" fill="none" viewBox="0 0 24 24">
  <path fill="#818181" d="M12.5 22a4.004 4.004 0 01-4-4c0-3.45 3.297-5.732 3.438-5.827a1.004 1.004 0 011.118-.005c.14.095 3.444 2.34 3.444 5.832a4.005 4.005 0 01-4 4zm-6-10a4.004 4.004 0 01-4-4c0-3.45 3.297-5.731 3.437-5.827a1.005 1.005 0 011.119-.005C7.196 2.263 10.5 4.508 10.5 8a4.004 4.004 0 01-4 4zm11 0a4.005 4.005 0 01-4-4c0-3.45 3.297-5.731 3.438-5.827a1.005 1.005 0 011.118-.005c.14.095 3.444 2.34 3.444 5.832a4.004 4.004 0 01-4 4z"/>
</svg>
