<svg xmlns="http://www.w3.org/2000/svg" width="24" height="24" fill="none" viewBox="0 0 24 24">
  <path fill="#818181" d="M5.75 11A3.254 3.254 0 012.5 7.75c0-2.718 2.578-4.502 2.687-4.577a1.003 1.003 0 011.119-.005C6.415 3.242 9 4.999 9 7.75A3.254 3.254 0 015.75 11zm5.5 11a4.755 4.755 0 01-4.75-4.75c0-4.18 4.017-6.96 4.188-7.077a1.001 1.001 0 011.118-.005c.17.114 4.194 2.85 4.194 7.082A4.755 4.755 0 0111.25 22zm6.25-10a4.005 4.005 0 01-4-4c0-3.45 3.297-5.731 3.438-5.827a1.005 1.005 0 011.118-.005c.14.095 3.444 2.34 3.444 5.832a4.004 4.004 0 01-4 4z"/>
</svg>
