<svg xmlns="http://www.w3.org/2000/svg" width="24" height="24" fill="none" viewBox="0 0 24 24">
  <path fill="#CCC" d="M19 20a1 1 0 01-1-.999V19c-.008-7.176-5.824-12.992-13-13a1 1 0 010-2c8.28.009 14.991 6.72 15 15a1 1 0 01-.999 1H19z"/>
  <path fill="#B3B3B3" d="M15 20a1 1 0 01-1-.999V19a9.01 9.01 0 00-9-9 1 1 0 110-2c6.072.007 10.993 4.928 11 11a1 1 0 01-.999 1H15z"/>
  <path fill="#818181" d="M11 20a1 1 0 01-1-.999V19a5.006 5.006 0 00-5-5 1 1 0 110-2 7.008 7.008 0 017 7 1 1 0 01-.999 1H11z"/>
</svg>
