<svg xmlns="http://www.w3.org/2000/svg" width="24" height="24" fill="none" viewBox="0 0 24 24">
  <path fill="#818181" d="M19.108 12.376c-.118-.134-.241-.269-.372-.403.091-.096.18-.192.264-.287 1.606-1.804 2.284-3.614 1.656-4.702-.602-1.043-2.393-1.353-4.636-.917-.22.043-.44.092-.659.146a12.173 12.173 0 00-.133-.43C14.467 3.49 13.238 1.999 11.982 2c-1.204 0-2.368 1.397-3.111 3.558-.073.213-.14.428-.203.644a12.123 12.123 0 00-.44-.1c-2.366-.485-4.271-.165-4.898.924-.601 1.043.027 2.75 1.528 4.472.15.17.302.337.46.5a13.18 13.18 0 00-.525.571c-1.465 1.698-2.057 3.376-1.457 4.415.62 1.074 2.498 1.425 4.785.975.185-.037.37-.078.553-.124.067.234.14.467.221.697.74 2.117 1.897 3.468 3.097 3.468 1.24 0 2.482-1.453 3.235-3.659.06-.174.115-.355.169-.541.236.058.475.11.715.156 2.203.417 3.952.09 4.551-.95.619-1.075-.02-2.877-1.554-4.63zM4.07 7.452c.386-.67 1.943-.932 3.986-.512.13.027.264.057.399.09-.2.882-.34 1.777-.422 2.678A20.896 20.896 0 005.93 11.4a12.423 12.423 0 01-.427-.465C4.216 9.461 3.708 8.081 4.07 7.452zm3.887 5.728a18.81 18.81 0 01-1.416-1.181c.43-.396.905-.79 1.415-1.176a25.029 25.029 0 000 2.357zm0 3.94a7.236 7.236 0 01-2.64.094 1.767 1.767 0 01-1.242-.657c-.364-.63.112-1.978 1.365-3.43.157-.182.32-.36.488-.532a20.49 20.49 0 002.107 1.7c.082.913.224 1.819.426 2.713-.167.041-.336.079-.505.113zm7.1-8.039a29.652 29.652 0 00-2.045-1.176c.593-.249 1.176-.462 1.739-.635.132.598.235 1.203.306 1.811zM9.68 5.835c.636-1.85 1.578-2.98 2.303-2.98.774-.001 1.778 1.218 2.435 3.197.043.129.083.259.12.39-.862.267-1.706.591-2.526.97a20.063 20.063 0 00-2.52-.981c.058-.2.12-.399.188-.596zm-.4 1.424c.587.185 1.164.4 1.73.642-.701.362-1.384.755-2.048 1.181.08-.638.187-1.249.318-1.823zm-.317 7.66a25.16 25.16 0 002.066 1.189 18.23 18.23 0 01-1.744.665 19.145 19.145 0 01-.322-1.853zm5.456 3.146a7.236 7.236 0 01-1.238 2.333 1.767 1.767 0 01-1.188.747c-.729 0-1.658-1.084-2.29-2.895-.075-.214-.143-.43-.206-.648.865-.279 1.71-.616 2.53-1.01.826.382 1.677.709 2.547.979-.048.166-.1.33-.155.494zm.362-1.324c-.569-.176-1.16-.392-1.762-.645.34-.179.68-.367 1.025-.566.353-.204.697-.413 1.032-.627-.067.617-.165 1.23-.295 1.838zm.447-4.743c0 .608-.019 1.214-.057 1.82-.493.334-1.013.66-1.554.972a28.08 28.08 0 01-1.597.856 24.293 24.293 0 01-3.166-1.823 24.016 24.016 0 01-.001-3.643 24.164 24.164 0 013.157-1.823 27.983 27.983 0 013.153 1.81c.043.61.065 1.22.065 1.831zm.956-5.093c1.922-.373 3.37-.122 3.733.507.387.67-.167 2.148-1.554 3.706-.076.086-.156.172-.238.259a20.07 20.07 0 00-2.144-1.688 20.041 20.041 0 00-.405-2.649c.206-.05.41-.096.608-.135zm-.13 3.885c.508.37.995.767 1.462 1.188-.464.428-.95.831-1.457 1.208a29.8 29.8 0 00-.005-2.396zm3.869 5.789c-.364.631-1.768.894-3.653.538a12.13 12.13 0 01-.664-.146c.189-.884.318-1.78.387-2.682a19.944 19.944 0 002.137-1.715c.118.122.23.243.336.364a7.234 7.234 0 011.403 2.238 1.766 1.766 0 01.054 1.403zm-8.82-6.141a1.786 1.786 0 101.787 3.094 1.786 1.786 0 00-1.786-3.094z"/>
</svg>
