<svg xmlns="http://www.w3.org/2000/svg" width="24" height="24" fill="none" viewBox="0 0 24 24">
  <path fill="#B3B3B3" d="M12 22c5.523 0 10-4.477 10-10S17.523 2 12 2 2 6.477 2 12s4.477 10 10 10z"/>
  <path fill="#818181" d="M12.5 14h-3a1 1 0 01-1-1V8a1 1 0 011-1h3a3.003 3.003 0 013 3v1a3.004 3.004 0 01-3 3zm-2-2h2a1 1 0 001-1v-1a1.001 1.001 0 00-1-1h-2v3z"/>
  <path fill="#818181" d="M14.5 17a1 1 0 01-1-1v-1a1 1 0 00-1-1h-2v2a1 1 0 01-2 0v-3a1 1 0 011-1h3a3.004 3.004 0 013 3v1a1 1 0 01-1 1z"/>
</svg>
