<svg xmlns="http://www.w3.org/2000/svg" width="24" height="24" fill="none" viewBox="0 0 24 24">
  <path fill="#B3B3B3" d="M8.777 15.86l4.244-4.244L3.73 2.323a1 1 0 00-1.698.565 11.04 11.04 0 003.114 9.339l3.632 3.633z"/>
  <path fill="#818181" d="M3.081 21.97a1 1 0 01-.707-1.707L18.253 4.385a.998.998 0 011.707.707 1 1 0 01-.293.707L3.788 21.677a.997.997 0 01-.707.293z"/>
  <path fill="#B3B3B3" d="M21.022 22.03a.996.996 0 01-.707-.293l-6.301-6.3a1 1 0 111.414-1.413l6.3 6.3a1 1 0 01-.706 1.706z"/>
  <path fill="#818181" d="M16.839 11.627a2.98 2.98 0 01-2.122-.879l-1.414-1.414a3.004 3.004 0 010-4.242l2.829-2.83a1 1 0 011.414 1.415l-2.83 2.829a1 1 0 00.002 1.414l1.414 1.414a1.023 1.023 0 001.414 0l2.828-2.828a1 1 0 111.414 1.414l-2.828 2.828a2.98 2.98 0 01-2.121.879z"/>
</svg>
