<svg xmlns="http://www.w3.org/2000/svg" width="24" height="24" fill="none" viewBox="0 0 24 24">
  <path fill="#B3B3B3" d="M12 6a2 2 0 100-4 2 2 0 000 4z"/>
  <path fill="#CCC" d="M12 6a1.98 1.98 0 01-1-.277V8a1 1 0 102 0V5.723A1.98 1.98 0 0112 6z"/>
  <path fill="#B3B3B3" d="M17 22H7a3.003 3.003 0 01-3-3v-9a3.003 3.003 0 013-3h10a3.003 3.003 0 013 3v9a3.003 3.003 0 01-3 3z"/>
  <path fill="#818181" d="M14.97 12.242L16.28 7H7.72l1.31 5.242A1 1 0 0010 13h4a1 1 0 00.97-.758z"/>
  <path fill="#CCC" d="M2 18a1 1 0 01-1-1v-2a1 1 0 112 0v2a1 1 0 01-1 1zm20 0a1 1 0 01-1-1v-2a1 1 0 112 0v2a1 1 0 01-1 1z"/>
  <path fill="#818181" d="M9 17a1 1 0 100-2 1 1 0 000 2zM15 17a1 1 0 100-2 1 1 0 000 2z"/>
</svg>
