<svg xmlns="http://www.w3.org/2000/svg" width="24" height="24" fill="none" viewBox="0 0 24 24">
  <path fill="#818181" d="M5 21.998a2.999 2.999 0 11.005-5.997A2.999 2.999 0 015 21.998z"/>
  <path fill="#9A9A9A" d="M11 20a.998.998 0 01-1-1 5.001 5.001 0 00-5-5 1 1 0 010-2 7.002 7.002 0 017 7 .998.998 0 01-1 1z"/>
  <path fill="#B3B3B3" d="M15 20a.998.998 0 01-1-1 9 9 0 00-9-9 1 1 0 010-2 11 11 0 0111 11 .998.998 0 01-1 1z"/>
  <path fill="#CCC" d="M19 20a.998.998 0 01-1-1 13.087 13.087 0 00-3.808-9.192A13.087 13.087 0 005 6a1 1 0 010-2 15.102 15.102 0 0110.607 4.394A15.102 15.102 0 0120 19a.998.998 0 01-1 1z"/>
</svg>
