<svg xmlns="http://www.w3.org/2000/svg" width="24" height="24" fill="none" viewBox="0 0 24 24">
  <path fill="#9A9A9A" d="M8 8h8a2 2 0 012 2v4a2 2 0 01-2 2H8a2 2 0 01-2-2v-4a2 2 0 012-2z"/>
  <path fill="#CCC" d="M19 6H5a1 1 0 00-1 1 1 1 0 11-2 0v10a3 3 0 003 3h10a1 1 0 110-2h4a1 1 0 001-1V7a1 1 0 00-1-1zm-1 8a2 2 0 01-2 2H8a2 2 0 01-2-2v-4a2 2 0 012-2h8a2 2 0 012 2v4z"/>
  <path fill="#818181" d="M3 20a1 1 0 100-2 1 1 0 000 2zM7 20a1 1 0 01-1-.999V19a3.003 3.003 0 00-3-3 1 1 0 110-2 5.006 5.006 0 015 5 1 1 0 01-.999 1H7z"/>
  <path fill="#818181" d="M11 20a1 1 0 01-1-.999V19a7.008 7.008 0 00-7-7 1 1 0 110-2 9.01 9.01 0 019 9 1 1 0 01-.999 1H11z"/>
  <path fill="#B3B3B3" d="M19 20h-4a1 1 0 110-2h4a1 1 0 001-1V7a1 1 0 00-1-1H5a1 1 0 00-1 1 1 1 0 01-2 0 3.003 3.003 0 013-3h14a3.003 3.003 0 013 3v10a3.003 3.003 0 01-3 3z"/>
</svg>
