<svg xmlns="http://www.w3.org/2000/svg" width="24" height="24" fill="none" viewBox="0 0 24 24">
  <path fill="#818181" d="M14 10h-2V7a1 1 0 011-1 1 1 0 011 1v3zM9 6a1 1 0 00-1 1v1H7a1 1 0 000 2h3V7a1 1 0 00-1-1zm1 6v2H7a1 1 0 010-2h3z"/>
  <path fill="#818181" d="M10 12v2H7a1 1 0 010-2h3z"/>
  <path fill="#B3B3B3" d="M21 2H3a1 1 0 00-1 1v18a1 1 0 001 1h6a1 1 0 001-1v-3H7a1 1 0 010-2h3v-2H7a1 1 0 010-2h3v-2H7a1 1 0 010-2h1V7a1 1 0 012 0v3h2V7a1 1 0 012 0v3h2V7a1 1 0 012 0v3h3a1 1 0 001-1V3a1 1 0 00-1-1z"/>
  <path fill="#818181" d="M10 16v2H7a1 1 0 010-2h3zm8-6h-2V7a1 1 0 011-1 1 1 0 011 1v3z"/>
</svg>
