<svg xmlns="http://www.w3.org/2000/svg" width="24" height="24" fill="none" viewBox="0 0 24 24">
  <path fill="#B3B3B3" d="M12 22c5.523 0 10-4.477 10-10S17.523 2 12 2 2 6.477 2 12s4.477 10 10 10z"/>
  <path fill="#818181" d="M14.999 17.092a.994.994 0 01-.642-.234 3.76 3.76 0 00-4.714 0 1.001 1.001 0 01-1.286-1.533 5.817 5.817 0 017.286 0 1 1 0 01-.644 1.767zm-5.085-6.256a.997.997 0 01-.707-.293 1.033 1.033 0 00-1.414 0 1 1 0 01-1.414-1.414 3.072 3.072 0 014.242 0 1 1 0 01-.707 1.707zm7 0a.997.997 0 01-.707-.293 1.033 1.033 0 00-1.414 0 1 1 0 01-1.414-1.414 3.073 3.073 0 014.242 0 1 1 0 01-.707 1.707z"/>
</svg>
