<svg xmlns="http://www.w3.org/2000/svg" width="24" height="24" fill="none" viewBox="0 0 24 24">
  <path fill="#CCC" d="M9 21.48a1 1 0 01-1-.999V10a1 1 0 112 0v10.48a1 1 0 01-1 1zm6 0a1 1 0 01-1-.999V10a1 1 0 112 0v10.48a1 1 0 01-1 1z"/>
  <path fill="#B3B3B3" d="M15.401 21.394C19.247 20 22 16.327 22 12c0-5.523-4.477-10-10-10S2 6.477 2 12c0 4.327 2.753 8 6.6 9.394a.998.998 0 01-.6-.913V10a1 1 0 112 0v10.48a1 1 0 01-1 1 .992.992 0 01-.367-.074A9.96 9.96 0 0012 22a9.957 9.957 0 003.368-.594.99.99 0 01-.367.075H15a1 1 0 01-1-1V10a1 1 0 112 0v10.48a.998.998 0 01-.599.914z"/>
  <path fill="#818181" d="M14 14.406a5.81 5.81 0 00-4 0v2.212a3.749 3.749 0 014 0v-2.212zM16 11h-2a1 1 0 110-2h2a1 1 0 110 2zm-6 0H8a1 1 0 110-2h2a1 1 0 110 2z"/>
</svg>
