<svg xmlns="http://www.w3.org/2000/svg" width="24" height="24" fill="none" viewBox="0 0 24 24">
  <path fill="#B3B3B3" d="M12 22c5.523 0 10-4.477 10-10S17.523 2 12 2 2 6.477 2 12s4.477 10 10 10z"/>
  <path fill="#818181" d="M15 17.092a.995.995 0 01-.643-.235 3.766 3.766 0 00-4.714 0 1.001 1.001 0 01-1.599-.463 1 1 0 01.313-1.068 5.812 5.812 0 017.286 0 1 1 0 01-.644 1.766zM8.25 12a1.001 1.001 0 01-.707-1.707L7.836 10l-.293-.293a1 1 0 011.414-1.414l1 1a1 1 0 010 1.414l-1 1A.995.995 0 018.25 12z"/>
  <path fill="#818181" d="M10.25 12a.997.997 0 01-.707-.293l-1-1a1 1 0 010-1.414l1-1a1 1 0 011.414 1.414l-.293.293.293.293A1 1 0 0110.25 12zm4 0a1 1 0 01-.707-1.707l.293-.293-.293-.293a1 1 0 011.414-1.414l1 1a1 1 0 010 1.414l-1 1a.999.999 0 01-.707.293z"/>
  <path fill="#818181" d="M16.25 12a.998.998 0 01-.707-.293l-1-1a1 1 0 010-1.414l1-1a1 1 0 011.414 1.414l-.293.293.293.293A1 1 0 0116.25 12z"/>
</svg>
