<svg xmlns="http://www.w3.org/2000/svg" width="24" height="24" fill="none" viewBox="0 0 24 24">
  <path fill="#818181" d="M5 5a1 1 0 01-.707-1.707l.829-.829A4.967 4.967 0 018.657 1H17a1 1 0 110 2H8.657a3.022 3.022 0 00-2.121.878l-.829.829A.997.997 0 015 5z"/>
  <path fill="#B3B3B3" d="M10 3v2.5l.4-.3A1 1 0 0111 5h4a1 1 0 01.6.2l.4.3V3h-6z"/>
  <path fill="#818181" d="M13 17a2 2 0 100-4 2 2 0 000 4z"/>
  <path fill="#818181" d="M13 18a3 3 0 110-5.999A3 3 0 0113 18z"/>
  <path fill="#CCC" d="M18.8 7.6l-3.2-2.4A1 1 0 0015 5h-4a1 1 0 00-.6.2L7.2 7.6A3.016 3.016 0 006 10v12a1 1 0 001 1h12a1 1 0 001-1V10a3.014 3.014 0 00-1.2-2.4zM13 18a3 3 0 110-5.999A3 3 0 0113 18z"/>
</svg>
