<svg xmlns="http://www.w3.org/2000/svg" width="24" height="24" fill="none" viewBox="0 0 24 24">
  <path fill="#B3B3B3" d="M12 3v1h2V3h1a1 1 0 100-2h-4.764a4.593 4.593 0 00-4.13 2.553 1 1 0 001.789.894A2.604 2.604 0 0110.235 3H12z"/>
  <path fill="#818181" d="M16 5a1 1 0 00-1-1h-4a1 1 0 00-1 1v3h6V5zm-2 12h-2a1 1 0 010-2h2a1 1 0 010 2z"/>
  <path fill="#CCC" d="M16 8h-6a3.003 3.003 0 00-3 3v9a3.003 3.003 0 003 3h6a3.004 3.004 0 003-3v-9a3.003 3.003 0 00-3-3zm-2 9h-2a1 1 0 010-2h2a1 1 0 010 2z"/>
</svg>
