<svg xmlns="http://www.w3.org/2000/svg" width="24" height="24" fill="none" viewBox="0 0 24 24">
  <path fill="#818181" d="M21 22h-4a1 1 0 110-2h3v-3a1 1 0 112 0v4a1 1 0 01-1 1zM3 8a1 1 0 01-1-1V3a1 1 0 011-1h4a1 1 0 010 2H4v3a1 1 0 01-1 1z"/>
  <path fill="#B3B3B3" d="M9.171 15.828a1 1 0 01-.707-1.707l5.658-5.656a1 1 0 011.414 1.414l-5.658 5.656a.997.997 0 01-.707.293z"/>
  <path fill="#818181" d="M12 10.586L3.707 2.293a1 1 0 00-1.414 1.414L10.586 12 12 10.586zm9.707 9.707L13.414 12 12 13.414l8.293 8.293a.997.997 0 001.414 0 1 1 0 000-1.414z"/>
</svg>
