<svg xmlns="http://www.w3.org/2000/svg" width="24" height="24" fill="none" viewBox="0 0 24 24">
  <path fill="#B3B3B3" d="M7 6a1 1 0 01-1-1V3a1 1 0 012 0v2a1 1 0 01-.999 1H7zm10 0a1 1 0 01-1-1V3a1 1 0 112 0v2a1 1 0 01-.999 1H17z"/>
  <path fill="#818181" d="M19 4h-1v1a1 1 0 11-2 0V4H8v1a1 1 0 01-2 0V4H5a3 3 0 00-3 3v2h20V7a3 3 0 00-3-3zM7 14a1 1 0 100-2 1 1 0 000 2zM7 18a1 1 0 100-2 1 1 0 000 2zM12 14a1 1 0 100-2 1 1 0 000 2zM12 18a1 1 0 100-2 1 1 0 000 2zM17 14a1 1 0 100-2 1 1 0 000 2zM17 18a1 1 0 100-2 1 1 0 000 2z"/>
  <path fill="#B3B3B3" d="M2 9v10a3 3 0 003 3h14a3 3 0 003-3V9H2zm5 9a1 1 0 110-2 1 1 0 010 2zm0-4a1 1 0 110-2 1 1 0 010 2zm5 4a1 1 0 110-2 1 1 0 010 2zm0-4a1 1 0 110-2 1 1 0 010 2zm5 4a1 1 0 110-2 1 1 0 010 2zm0-4a1 1 0 110-2 1 1 0 010 2z"/>
</svg>
