<svg xmlns="http://www.w3.org/2000/svg" width="24" height="24" fill="none" viewBox="0 0 24 24">
  <path fill="#B3B3B3" d="M16 2H8C6.3 2 5 3.3 5 5v14c0 1.7 1.3 3 3 3h8c1.7 0 3-1.3 3-3V5c0-1.7-1.3-3-3-3zm0 17H8c-.6 0-1-.4-1-1 0-1.9 1-3.5 2.5-4.3-.3-.5-.5-1.1-.5-1.7 0-1.7 1.3-3 3-3s3 1.3 3 3c0 .6-.2 1.2-.5 1.7 1.5.8 2.5 2.4 2.5 4.3 0 .6-.4 1-1 1z"/>
  <path fill="#818181" d="M12 6a1 1 0 100-2 1 1 0 000 2z"/>
  <path fill="#CCC" d="M12 15c-1.7 0-3-1.3-3-3s1.3-3 3-3 3 1.3 3 3-1.3 3-3 3z"/>
  <path fill="#9A9A9A" d="M14.5 13.7c-.6.8-1.5 1.3-2.5 1.3s-1.9-.5-2.5-1.3C8 14.5 7 16.1 7 18c0 .6.4 1 1 1h8c.6 0 1-.4 1-1 0-1.9-1-3.5-2.5-4.3z"/>
  <path fill="#818181" d="M16 22H8c-1.7 0-3-1.3-3-3v-1h14v1c0 1.7-1.3 3-3 3z"/>
</svg>
