<svg xmlns="http://www.w3.org/2000/svg" width="24" height="24" fill="none" viewBox="0 0 24 24">
  <path fill="#CCC" d="M7 2h10a2 2 0 012 2v2a2 2 0 01-2 2H7a2 2 0 01-2-2V4a2 2 0 012-2z"/>
  <path fill="#B3B3B3" d="M7 8h10a2 2 0 012 2v2a2 2 0 01-2 2H7a2 2 0 01-2-2v-2a2 2 0 012-2z"/>
  <path fill="#818181" d="M16 6a1 1 0 100-2 1 1 0 000 2zM16 12a1 1 0 100-2 1 1 0 000 2z"/>
  <path fill="#B3B3B3" d="M12 22a2 2 0 100-4 2 2 0 000 4z"/>
  <path fill="#818181" d="M10 20c0-.366.106-.705.277-1H3a1 1 0 100 2h7.277A1.98 1.98 0 0110 20zm11-1h-7.277c.171.295.277.634.277 1s-.106.705-.277 1H21a1 1 0 100-2zM11 6H8a1 1 0 010-2h3a1 1 0 110 2zm0 6H8a1 1 0 110-2h3a1 1 0 110 2zm0 2v4.277A1.98 1.98 0 0112 18c.366 0 .705.106 1 .277V14h-2z"/>
</svg>
