<svg xmlns="http://www.w3.org/2000/svg" width="24" height="24" fill="none" viewBox="0 0 24 24">
  <path fill="#CCC" d="M8 3h8a2 2 0 012 2v2a2 2 0 01-2 2H8a2 2 0 01-2-2V5a2 2 0 012-2z"/>
  <path fill="#B3B3B3" d="M8 9h8a2 2 0 012 2v2a2 2 0 01-2 2H8a2 2 0 01-2-2v-2a2 2 0 012-2z"/>
  <path fill="#CCC" d="M8 15h8a2 2 0 012 2v2a2 2 0 01-2 2H8a2 2 0 01-2-2v-2a2 2 0 012-2z"/>
  <path fill="#818181" d="M20 12h-2v1a2 2 0 01-2 2 2 2 0 012 2v1h2a2.006 2.006 0 002-2v-2a2.006 2.006 0 00-2-2zM6 17a2 2 0 012-2 2 2 0 01-2-2v-1H4a2.006 2.006 0 00-2 2v2a2.006 2.006 0 002 2h2v-1z"/>
  <path fill="#9A9A9A" d="M6 11a2 2 0 012-2 2 2 0 01-2-2V6H4a2.006 2.006 0 00-2 2v2a2.006 2.006 0 002 2h2v-1zm14-5h-2v1a2 2 0 01-2 2 2 2 0 012 2v1h2a2.006 2.006 0 002-2V8a2.006 2.006 0 00-2-2z"/>
  <path fill="#818181" d="M15 7a1 1 0 100-2 1 1 0 000 2zM15 13a1 1 0 100-2 1 1 0 000 2zM15 19a1 1 0 100-2 1 1 0 000 2zM11 7H9a1 1 0 110-2h2a1 1 0 110 2zm0 6H9a1 1 0 110-2h2a1 1 0 110 2zm0 6H9a1 1 0 110-2h2a1 1 0 110 2z"/>
</svg>
