<svg xmlns="http://www.w3.org/2000/svg" width="24" height="24" fill="none" viewBox="0 0 24 24">
  <path fill="#818181" d="M11.64 16a4 4 0 110-8 4 4 0 010 8zm0-6a2 2 0 100 4 2 2 0 000-4z"/>
  <path fill="#B3B3B3" d="M19.903 12.664a1.001 1.001 0 010-1.328l1.278-1.44a1 1 0 00.118-1.164l-2-3.464a1.004 1.004 0 00-1.066-.48l-1.887.386a1 1 0 01-1.15-.663l-.608-1.827A1 1 0 0013.639 2h-4a1 1 0 00-.949.684L8.081 4.51a1.003 1.003 0 01-1.15.663l-1.886-.386a1.007 1.007 0 00-1.066.48l-2 3.464a1 1 0 00.118 1.164l1.278 1.44a1.001 1.001 0 010 1.328l-1.278 1.44a1 1 0 00-.118 1.164l2 3.464a.999.999 0 001.066.48l1.887-.386a.998.998 0 011.15.663l.608 1.827a1 1 0 00.95.684h4a1 1 0 00.948-.684l.609-1.827a1.003 1.003 0 011.149-.664l1.887.386a.996.996 0 001.066-.48l2-3.463a1.001 1.001 0 00-.118-1.164l-1.278-1.44zM11.64 16a4 4 0 110-8 4 4 0 010 8z"/>
</svg>
