<svg xmlns="http://www.w3.org/2000/svg" width="24" height="24" fill="none" viewBox="0 0 24 24">
  <path fill="#B3B3B3" d="M12 22a1 1 0 01-.581-.186l-3.65-2.608A9.016 9.016 0 014 11.883V4.426a1 1 0 011.206-.979 8 8 0 006.222-1.267 1 1 0 011.144 0 7.998 7.998 0 006.222 1.267A1 1 0 0120 4.426v7.457a9.016 9.016 0 01-3.769 7.323l-3.65 2.607A.999.999 0 0112 22z"/>
  <path fill="#818181" d="M12 13.364a1 1 0 110-2 1 1 0 10-.867-1.499 1.001 1.001 0 01-1.73-1.002A3 3 0 1112 13.364zm0 2.995a.975.975 0 01-.92-.609 1.05 1.05 0 01-.08-.39c.002-.263.106-.514.29-.7a1.027 1.027 0 011.42 0 1.009 1.009 0 01.216 1.083.99.99 0 01-.926.616z"/>
</svg>
