<svg xmlns="http://www.w3.org/2000/svg" width="24" height="24" fill="none" viewBox="0 0 24 24">
  <path fill="#B3B3B3" d="M12 22a1 1 0 01-.581-.186l-3.65-2.608A9.016 9.016 0 014 11.883V4.426a1 1 0 011.206-.979 8 8 0 006.222-1.267 1 1 0 011.144 0 7.998 7.998 0 006.222 1.267A1 1 0 0120 4.426v7.457a9.016 9.016 0 01-3.769 7.323l-3.65 2.607A.999.999 0 0112 22z"/>
  <path fill="#818181" d="M12 12.364a1.001 1.001 0 01-1-1v-3a1 1 0 112 0v3a1 1 0 01-1 1zm0 3.995a.975.975 0 01-.92-.609.873.873 0 01-.08-.39c.002-.064.008-.127.02-.19a.716.716 0 01.06-.19.546.546 0 01.09-.17.62.62 0 01.12-.15 1.027 1.027 0 011.42 0 .993.993 0 01.12.15.57.57 0 01.09.17c.029.06.05.124.06.19.012.062.018.126.02.19a1.05 1.05 0 01-.29.71 1.175 1.175 0 01-.33.22.99.99 0 01-.38.07z"/>
</svg>
