<svg xmlns="http://www.w3.org/2000/svg" width="24" height="24" fill="none" viewBox="0 0 24 24">
  <path fill="#B3B3B3" d="M19 12H5c-.323 0-.629-.064-.92-.16l.745 7.459A2.991 2.991 0 007.81 22h8.38a2.991 2.991 0 002.985-2.701l.746-7.458c-.292.095-.597.159-.92.159z"/>
  <path fill="#CCC" d="M19 12H5a3 3 0 010-6h14a3 3 0 010 6z"/>
  <path fill="#CCC" d="M19 12H5a3 3 0 010-6h14a3 3 0 010 6z"/>
  <path fill="#818181" d="M15.382 6h2.236l-1.723-3.447a1 1 0 00-1.79.894L15.382 6zM8.618 6l1.277-2.553.002-.004a1 1 0 00-1.792-.89L6.382 6h2.236zM10 14a1 1 0 00-1 1v2a1 1 0 002 0v-2a1 1 0 00-1-1zm4 0a1 1 0 00-1 1v2a1 1 0 002 0v-2a1 1 0 00-1-1z"/>
</svg>
