<svg xmlns="http://www.w3.org/2000/svg" width="24" height="24" fill="none" viewBox="0 0 24 24">
  <path fill="#818181" d="M8.5 22a1.5 1.5 0 100-3 1.5 1.5 0 000 3zM16.5 22a1.5 1.5 0 100-3 1.5 1.5 0 000 3z"/>
  <path fill="#B3B3B3" d="M19 18H7a3 3 0 01-.32-5.983L4.882 5.725A1.005 1.005 0 003.92 5H3a1 1 0 010-2h.921a3.012 3.012 0 012.885 2.176l2.155 7.55A1 1 0 018 14H7a1 1 0 000 2h12a1 1 0 010 2z"/>
  <path fill="#818181" d="M6.806 5.176l2.155 7.55A1 1 0 018 14h7.491a3.014 3.014 0 002.885-2.176l1.585-5.55A1 1 0 0019 5H6.739c.021.06.05.115.067.176z"/>
</svg>
