<svg xmlns="http://www.w3.org/2000/svg" width="24" height="24" fill="none" viewBox="0 0 24 24">
  <path fill="#B3B3B3" d="M8.454 22H5a3.003 3.003 0 01-3-3v-3.454a2.981 2.981 0 01.879-2.121l3.434-3.436a3.007 3.007 0 014.244 0l3.454 3.454a3.006 3.006 0 010 4.243l-3.436 3.435a2.982 2.982 0 01-2.12.879z"/>
  <path fill="#818181" d="M9.978 15.023a1 1 0 01-.707-1.707l8.48-8.48a1.001 1.001 0 011.713.704 1 1 0 01-.299.71l-8.48 8.48a.999.999 0 01-.707.293z"/>
  <path fill="#818181" d="M21 9.084a.997.997 0 01-.707-.293l-5.084-5.084a1 1 0 011.414-1.414l5.084 5.084A1 1 0 0121 9.084z"/>
</svg>
