<svg xmlns="http://www.w3.org/2000/svg" width="24" height="24" fill="none" viewBox="0 0 24 24">
  <path fill="#818181" d="M9 22H3a.998.998 0 01-1-1v-6a1 1 0 112 0v5h5a1 1 0 010 2z"/>
  <path fill="#818181" d="M3 22a1 1 0 01-.707-1.707l18-18a1 1 0 111.414 1.414l-18 18A.996.996 0 013 22zm0-12a1 1 0 01-1-1V3a1 1 0 011-1h6a1 1 0 110 2H4v5a1 1 0 01-1 1z"/>
  <path fill="#818181" d="M9.265 10.265a.997.997 0 01-.707-.293L2.293 3.707a1 1 0 011.414-1.414l6.265 6.265a1 1 0 01-.707 1.707zM20.868 22a.997.997 0 01-.707-.293l-6.274-6.275a1 1 0 011.414-1.414l6.274 6.275A1 1 0 0120.868 22z"/>
</svg>
