<svg xmlns="http://www.w3.org/2000/svg" width="24" height="24" fill="none" viewBox="0 0 24 24">
  <path fill="#CCC" d="M15 13.24l-7.62 7.62a9.81 9.81 0 007.62.66v-8.28zm-6-2.48l7.62-7.62A9.81 9.81 0 009 2.48v8.28z"/>
  <path fill="#818181" d="M10.76 9h10.77a9.85 9.85 0 00-4.92-5.86L10.76 9zm2.48 6H2.46a9.85 9.85 0 004.93 5.85L13.24 15z"/>
  <path fill="#9A9A9A" d="M13.24 9l7.62 7.62A9.81 9.81 0 0021.52 9h-8.28zm-2.48 6L3.14 7.38A9.81 9.81 0 002.48 15h8.28z"/>
  <path fill="#B3B3B3" d="M15 10.76v10.77a9.85 9.85 0 004.07-2.46 10.001 10.001 0 001.78-2.46L15 10.76zm-6 2.48V2.47a9.92 9.92 0 00-5.86 4.92L9 13.24z"/>
</svg>
