<svg xmlns="http://www.w3.org/2000/svg" width="24" height="24" fill="none" viewBox="0 0 24 24">
  <path fill="#B3B3B3" d="M12 22c5.523 0 10-4.477 10-10S17.523 2 12 2 2 6.477 2 12s4.477 10 10 10z"/>
  <path fill="#818181" d="M15.999 17a.994.994 0 01-.599-.2l-.733-.55-.735.55a.996.996 0 01-1.199 0L12 16.25l-.733.55a1 1 0 01-1.2-1.6l1.333-1a.997.997 0 011.2 0l.733.55.734-.55a.997.997 0 011.2 0l1.332 1A1 1 0 0116 17z"/>
  <path fill="#818181" d="M13.332 17a.994.994 0 01-.599-.2L12 16.25l-.733.55a.996.996 0 01-1.2 0l-.734-.55-.733.55a.998.998 0 01-1.57-.551A1 1 0 017.4 15.2l1.333-1a.996.996 0 011.2 0l.734.55.733-.55a.996.996 0 011.2 0l1.334 1a1 1 0 01-.602 1.8zM15 11a1 1 0 100-2 1 1 0 000 2zM9 11a1 1 0 100-2 1 1 0 000 2z"/>
</svg>
