<svg xmlns="http://www.w3.org/2000/svg" width="24" height="24" fill="none" viewBox="0 0 24 24">
  <path fill="#B3B3B3" d="M12 22c5.523 0 10-4.477 10-10S17.523 2 12 2 2 6.477 2 12s4.477 10 10 10z"/>
  <path fill="#818181" d="M16 16H8a1 1 0 010-2h8a1 1 0 010 2z"/>
  <path fill="#818181" d="M12 17a1 1 0 01-1-1v-2a1 1 0 012 0v2a1 1 0 01-1 1zm3 0a1 1 0 01-1-1v-2a1 1 0 012 0v2a1 1 0 01-1 1zm-6 0a1 1 0 01-1-1v-2a1 1 0 112 0v2a1 1 0 01-1 1zM15 11a1 1 0 100-2 1 1 0 000 2zM9 11a1 1 0 100-2 1 1 0 000 2z"/>
</svg>
