<svg xmlns="http://www.w3.org/2000/svg" width="24" height="24" fill="none" viewBox="0 0 24 24">
  <path fill="#B3B3B3" d="M12 22c5.523 0 10-4.477 10-10S17.523 2 12 2 2 6.477 2 12s4.477 10 10 10z"/>
  <path fill="#818181" d="M15.999 17a.998.998 0 01-.6-.2l-.732-.55-.733.55a.998.998 0 01-1.2 0L12 16.25l-.733.55a1 1 0 01-1.2-1.6l1.333-1a.998.998 0 011.2 0l.734.55.732-.55a.998.998 0 011.2 0l1.334 1A1 1 0 0116 17z"/>
  <path fill="#818181" d="M13.332 17a.998.998 0 01-.599-.2L12 16.25l-.733.55a.997.997 0 01-1.2 0l-.733-.55-.734.55a1 1 0 11-1.2-1.6l1.333-1a.998.998 0 011.2 0l.733.55.734-.55a.998.998 0 011.2 0l1.334 1a1 1 0 01-.601 1.8zm-4.96-4.5a1 1 0 01-.708-1.707L8.457 10l-.793-.793a1 1 0 111.414-1.414l1.5 1.5a1 1 0 010 1.414l-1.5 1.5a.997.997 0 01-.707.293zm7.5 0a.995.995 0 01-.708-.293l-1.5-1.5a.999.999 0 010-1.414l1.5-1.5a1 1 0 011.414 1.414l-.793.793.793.793a.999.999 0 01-.707 1.707z"/>
</svg>
