<svg xmlns="http://www.w3.org/2000/svg" width="24" height="24" fill="none" viewBox="0 0 24 24">
  <path fill="#B3B3B3" d="M16.5 23a6.5 6.5 0 01-2.809-.639A10.492 10.492 0 011.64 10.31a6.499 6.499 0 018.67-8.67A10.492 10.492 0 0122.36 13.692 6.5 6.5 0 0116.5 23z"/>
  <path fill="#818181" d="M16.136 12.865a3.165 3.165 0 00-.997-1.053 5.078 5.078 0 00-1.29-.592c-.28-.085-.59-.168-.911-.247-.28-.078-.612-.158-1.022-.248a9.309 9.309 0 01-1.436-.424 1.496 1.496 0 01-.616-.447.843.843 0 01-.16-.566c0-.216.072-.426.205-.597.186-.218.428-.382.7-.475.457-.157.94-.23 1.423-.216.374-.006.746.043 1.106.146.238.067.463.176.663.322.13.092.24.208.325.343a.999.999 0 101.761-.948 3.146 3.146 0 00-.837-.958 4.006 4.006 0 00-1.319-.669A5.768 5.768 0 0012.032 6a5.963 5.963 0 00-2.145.35A3.552 3.552 0 008.31 7.492a2.977 2.977 0 00-.604 1.797 2.84 2.84 0 00.58 1.792c.378.476.873.846 1.438 1.072.426.164.863.3 1.307.408l1.531.378c.248.064.487.129.706.196.269.078.526.194.763.344.148.093.272.219.363.368.088.182.128.383.118.585.014.261-.061.52-.214.732a1.763 1.763 0 01-.802.585 3.787 3.787 0 01-1.487.252 3.69 3.69 0 01-1.703-.344 1.757 1.757 0 01-.616-.547 1.016 1.016 0 01-.202-.502 1 1 0 10-2 0c.017.59.21 1.16.556 1.638.346.498.806.905 1.342 1.188a5.62 5.62 0 002.623.567 5.706 5.706 0 002.254-.405 3.71 3.71 0 001.665-1.273c.4-.56.605-1.238.584-1.926a3.089 3.089 0 00-.375-1.53z"/>
</svg>
