<svg xmlns="http://www.w3.org/2000/svg" width="24" height="24" fill="none" viewBox="0 0 24 24">
  <path fill="#CCC" d="M9.34 2a2 2 0 100 4h2V4a2 2 0 00-2-2zm0 5.33H4a2 2 0 100 4h5.34a2 2 0 100-4"/>
  <path fill="#B3B3B3" d="M22 9.33a2 2 0 10-4 0v2h2a2 2 0 002-2zm-5.32 0V4a2 2 0 10-4 0v5.33a2 2 0 104 0z"/>
  <path fill="#9A9A9A" d="M14.66 22a2 2 0 100-4h-2v2a2 2 0 002 2zm0-5.33H20a2 2 0 100-4h-5.34a2 2 0 000 4z"/>
  <path fill="#818181" d="M2 14.67a2 2 0 104 0v-2H4a2 2 0 00-2 2zm5.32 0V20a2 2 0 104 0v-5.33a2 2 0 00-4 0"/>
</svg>
