<svg xmlns="http://www.w3.org/2000/svg" width="24" height="24" fill="none" viewBox="0 0 24 24">
  <path fill="#818181" d="M9.338 2a2 2 0 10.001 4h1.996V4a2 2 0 00-1.997-2zm0 5.333H4.016a2 2 0 100 4h5.322a2 2 0 100-4z"/>
  <path fill="#CCC" d="M21.98 9.333a1.997 1.997 0 00-3.993 0v2h1.997a1.998 1.998 0 001.996-2zm-5.323 0V4a1.996 1.996 0 10-3.992 0v5.333a1.997 1.997 0 103.992 0z"/>
  <path fill="#9A9A9A" d="M14.661 22a2 2 0 100-4h-1.996v2a2 2 0 001.996 2zm0-5.334h5.323a2 2 0 000-4h-5.322a2 2 0 10-.001 4z"/>
  <path fill="#B3B3B3" d="M2.02 14.666a1.996 1.996 0 103.993 0v-2H4.016a1.998 1.998 0 00-1.996 2zm5.323 0V20a1.996 1.996 0 103.992 0v-5.332a1.995 1.995 0 10-3.992-.002z"/>
</svg>
