<svg xmlns="http://www.w3.org/2000/svg" width="24" height="24" fill="none" viewBox="0 0 24 24">
  <path fill="#B3B3B3" d="M12 20a3 3 0 100-6 3 3 0 000 6zM19 14a3 3 0 100-6 3 3 0 000 6zM5 12a3 3 0 100-6 3 3 0 000 6z"/>
  <path fill="#818181" d="M19 8c.352 0 .686.072 1 .184V3a1 1 0 10-2 0v5.184A2.972 2.972 0 0119 8zM5 6c.353 0 .686.072 1 .184V3a1 1 0 10-2 0v3.184A2.972 2.972 0 015 6zm7 8c.352 0 .686.072 1 .184V3a1 1 0 10-2 0v11.184A2.972 2.972 0 0112 14zm-7-2c-.353 0-.686-.072-1-.184V21a1 1 0 102 0v-9.184A2.972 2.972 0 015 12zm7 8c-.352 0-.686-.072-1-.184V21a1 1 0 102 0v-1.184A2.972 2.972 0 0112 20zm7-6c-.352 0-.686-.072-1-.184V21a1 1 0 102 0v-7.184A2.972 2.972 0 0119 14z"/>
</svg>
