<svg xmlns="http://www.w3.org/2000/svg" width="24" height="24" fill="none" viewBox="0 0 24 24">
  <path fill="#B3B3B3" d="M12 22c5.523 0 10-4.477 10-10S17.523 2 12 2 2 6.477 2 12s4.477 10 10 10z"/>
  <path fill="#818181" d="M12 17.092a5.673 5.673 0 01-3.643-1.326 1 1 0 011.286-1.532 3.766 3.766 0 004.714 0 1 1 0 011.286 1.532A5.673 5.673 0 0112 17.092zm2.871-4.592a.995.995 0 01-.707-.293l-1.5-1.5a1 1 0 111.414-1.414l1.5 1.5a.999.999 0 01-.707 1.707z"/>
  <path fill="#818181" d="M13.371 11a1 1 0 01-.707-1.707l1.5-1.5a1 1 0 011.414 1.414l-1.5 1.5a.999.999 0 01-.707.293zM9 11a1 1 0 100-2 1 1 0 000 2z"/>
</svg>
