<svg xmlns="http://www.w3.org/2000/svg" width="24" height="24" fill="none" viewBox="0 0 24 24">
  <path fill="#B3B3B3" d="M12 22c5.523 0 10-4.477 10-10S17.523 2 12 2 2 6.477 2 12s4.477 10 10 10z"/>
  <path fill="#818181" d="M12 17.092a5.68 5.68 0 01-3.642-1.325 1 1 0 111.285-1.534 3.76 3.76 0 004.714 0 1 1 0 011.286 1.534A5.68 5.68 0 0112 17.092zm-2.086-6.256a.997.997 0 01-.707-.293 1.033 1.033 0 00-1.414 0A1 1 0 016.38 9.129a3.072 3.072 0 014.242 0 1 1 0 01-.707 1.707zm7 0a.998.998 0 01-.707-.293 1.033 1.033 0 00-1.414 0 1 1 0 01-1.414-1.414 3.072 3.072 0 014.242 0 1 1 0 01-.707 1.707z"/>
</svg>
