<svg xmlns="http://www.w3.org/2000/svg" width="24" height="24" fill="none" viewBox="0 0 24 24">
  <path fill="#818181" d="M12 22a1 1 0 01-1-1V3a1 1 0 012 0v18a1 1 0 01-1 1z"/>
  <path fill="#818181" d="M21 13H3a1 1 0 010-2h18a1 1 0 110 2zm-9-5a.997.997 0 01-.707-.293l-3-3a1 1 0 011.414-1.414L12 5.586l2.293-2.293a1 1 0 011.414 1.414l-3 3A.996.996 0 0112 8zm3 13a.997.997 0 01-.707-.293L12 18.414l-2.293 2.293a1 1 0 01-1.414-1.414l3-3a.998.998 0 011.414 0l3 3A1 1 0 0115 21z"/>
  <path fill="#818181" d="M20 16a.997.997 0 01-.707-.293l-3-3a1 1 0 010-1.414l3-3a1 1 0 011.414 1.414L18.414 12l2.293 2.293A1 1 0 0120 16zM4 16a1 1 0 01-.707-1.707L5.586 12 3.293 9.707a1 1 0 011.414-1.414l3 3a.999.999 0 010 1.414l-3 3A.997.997 0 014 16z"/>
  <path fill="#818181" d="M8 17a1.001 1.001 0 01-.707-1.707L10.586 12 7.293 8.707a1 1 0 011.414-1.414l4 4a1 1 0 010 1.414l-4 4A.995.995 0 018 17z"/>
  <path fill="#818181" d="M16 17a.998.998 0 01-.707-.293l-4-4a1 1 0 010-1.414l4-4a1 1 0 011.414 1.414L13.414 12l3.293 3.293A1 1 0 0116 17z"/>
</svg>
