<svg xmlns="http://www.w3.org/2000/svg" width="24" height="24" fill="none" viewBox="0 0 24 24">
  <path fill="#818181" d="M21.16 16.134l-1.999-1.154.89-.239a1.001 1.001 0 00-.517-1.931l-2.822.756L14 12l2.712-1.566 2.822.756a1 1 0 10.517-1.931l-.89-.239 2-1.154a1 1 0 00-1-1.732L18.02 7.37l.298-1.113a1 1 0 00-1.932-.518l-.816 3.045L13 10.268V7.136l2.065-2.065a1 1 0 00-1.414-1.414L13 4.308V2a1 1 0 00-2 0v2.472l-.815-.815a1 1 0 00-1.414 1.414L11 7.3v2.969L8.43 8.784l-.816-3.045a1 1 0 00-1.932.518L5.98 7.37 3.84 6.134a1 1 0 10-1 1.732L4.839 9.02l-.89.239a1 1 0 10.517 1.931l2.822-.756L10 12l-2.712 1.566-2.822-.756a1 1 0 10-.517 1.931l.89.239-2 1.154a1 1 0 001 1.732L5.98 16.63l-.298 1.113a1 1 0 101.932.518l.816-3.045L11 13.732v3.132l-2.065 2.065a1 1 0 001.414 1.414l.651-.651V22a1 1 0 002 0v-2.472l.815.815a1 1 0 001.414-1.414L13 16.7v-2.969l2.57 1.484.816 3.045a1 1 0 001.932-.518l-.298-1.113 2.14 1.236a1 1 0 001-1.732z"/>
</svg>
