<svg xmlns="http://www.w3.org/2000/svg" width="24" height="24" fill="none" viewBox="0 0 24 24">
  <path fill="#CCC" d="M6 11a3.5 3.5 0 110-7 3.5 3.5 0 010 7z"/>
  <path fill="#B3B3B3" d="M8.64 9.772a3.451 3.451 0 01-5.28 0A4.988 4.988 0 001 14a1 1 0 001 1h8a1 1 0 001-1 4.988 4.988 0 00-2.36-4.228zM18 11a3.5 3.5 0 110-7 3.5 3.5 0 010 7z"/>
  <path fill="#9A9A9A" d="M20.64 9.772a3.453 3.453 0 01-5.28 0A4.988 4.988 0 0013 14a1 1 0 001 1h8a1 1 0 001-1 4.989 4.989 0 00-2.36-4.228z"/>
  <path fill="#818181" d="M21.207 18.293l-2-2a1 1 0 00-1.414 1.414l.293.293H15.5a1 1 0 100 2h2.586l-.293.293a1 1 0 101.414 1.414l2-2a1.002 1.002 0 000-1.414zM8.5 18H5.914l.293-.293a1 1 0 00-1.414-1.414l-2 2a1 1 0 000 1.414l2 2a1 1 0 001.414-1.414L5.914 20H8.5a1 1 0 000-2z"/>
</svg>
