<svg xmlns="http://www.w3.org/2000/svg" width="24" height="24" fill="none" viewBox="0 0 24 24">
  <path fill="#B3B3B3" d="M21 8H11a1 1 0 110-2h10a1 1 0 010 2zm0 5H11a1 1 0 010-2h10a1 1 0 010 2z"/>
  <path fill="#818181" d="M5 18a.998.998 0 01-1-1V7a1 1 0 012 0v10a1 1 0 01-1 1z"/>
  <path fill="#B3B3B3" d="M21 18H11a1 1 0 010-2h10a1 1 0 010 2z"/>
  <path fill="#818181" d="M5 18a.997.997 0 01-.707-.293l-2-2a1 1 0 011.414-1.414L5 15.586l1.293-1.293a1 1 0 011.414 1.414l-2 2A.997.997 0 015 18z"/>
</svg>
