<svg xmlns="http://www.w3.org/2000/svg" width="24" height="24" fill="none" viewBox="0 0 24 24">
  <path fill="#818181" d="M9.95 16.819a4.722 4.722 0 01-4.63-7.88l5.41-5.42a1.817 1.817 0 012.54 0l3.74 3.75 1.67 1.67a4.72 4.72 0 01-4.63 7.88 7.868 7.868 0 001.71 4.18H8.24a7.867 7.867 0 001.71-4.18z"/>
  <path fill="#818181" d="M15.76 21.999H8.24a1.001 1.001 0 01-.78-1.627A6.924 6.924 0 008.708 18a5.713 5.713 0 01-5.768-5.72 5.684 5.684 0 011.673-4.047l5.409-5.42a2.824 2.824 0 013.95-.006l5.415 5.426a5.684 5.684 0 011.673 4.047 5.709 5.709 0 01-5.728 5.718h-.04c.257.865.68 1.672 1.248 2.375A1 1 0 0115.76 22zm-5.698-2h3.876a8.799 8.799 0 01-.884-3.085 1 1 0 011.268-1.058 3.715 3.715 0 004.738-3.577 3.698 3.698 0 00-1.087-2.633l-5.411-5.421a.81.81 0 00-1.13.006L6.028 9.646a3.698 3.698 0 00-1.088 2.633 3.747 3.747 0 001.087 2.633 3.81 3.81 0 003.648.945 1.002 1.002 0 011.27 1.057A8.797 8.797 0 0110.063 20z"/>
</svg>
