<svg xmlns="http://www.w3.org/2000/svg" width="24" height="24" fill="none" viewBox="0 0 24 24">
  <path fill="#B3B3B3" d="M21.7 20.4c-.4-1.6-1.6-2.8-3.2-3.2-.5-.1-1-.4-1.4-.8-.4-.4-.7-.9-.8-1.4-.4-1.6-1.7-2.8-3.2-3.2-1.1-.3-1.9-1.1-2.2-2.2-.3-1-.8-1.8-1.6-2.4-.1-.1-.2-.1-.3-.2.1-1-.2-2.1-1.1-2.9-1.3-1.3-3.2-1.5-4.2-.4s-.9 2.9.4 4.2c1.2 1.1 2.8 1.4 3.8.8.1 0 .1 0 .1.1.4.3.7.8.9 1.4.5 1.8 1.8 3.1 3.6 3.6.9.2 1.6.9 1.8 1.8.5 1.8 1.8 3.1 3.6 3.6.9.2 1.6.9 1.8 1.8 0 .2.1.3.2.5.2.3.5.5.9.5.2 0 .3 0 .4-.1.5-.2.7-.8.5-1.3v-.2zm-10.6-.3c-.2-.1-.5-.3-.6-.5-.3-.3-.6-.7-.7-1.1-.3-1.1-1-2.1-2.1-2.6h-.1c0-.7-.3-1.4-.8-2-1-1-2.4-1.1-3.2-.4-.8.8-.6 2.2.4 3.2.8.8 1.8 1 2.6.7l.3.3c.5.3.9.7 1 1.3.1.8.5 1.5 1.1 2 .3.4.8.7 1.2.9.1.1.3.1.4.1.4 0 .7-.2.9-.6.3-.5.1-1.1-.4-1.3zm10.2-9.9c-.3-.1-.7-.3-.9-.6-.3-.3-.6-.7-.7-1.1-.3-1.1-1-2.1-2.1-2.6h-.1c0-.7-.3-1.4-.8-2-1-1-2.4-1.1-3.2-.4-.8.8-.6 2.2.4 3.2.8.8 1.8 1 2.6.7l.3.3c.5.3.9.7 1 1.3.2.8.6 1.5 1.2 2 .5.5 1.1.9 1.7 1.1.1 0 .2.1.3.1.4 0 .8-.3.9-.7.2-.5-.1-1.1-.6-1.3z"/>
</svg>
