<svg xmlns="http://www.w3.org/2000/svg" width="24" height="24" fill="none" viewBox="0 0 24 24">
  <path fill="#B3B3B3" d="M8 15a.998.998 0 01-.625-.22l-3.498-2.798A4.974 4.974 0 012 8.078V3a1 1 0 011-1h2a1 1 0 010 2H4v4.078a2.985 2.985 0 001.126 2.342L8 12.72l2.874-2.3A2.985 2.985 0 0012 8.078V4h-1a1 1 0 110-2h2a1 1 0 011 1v5.078a4.975 4.975 0 01-1.876 3.904l-3.5 2.799A.998.998 0 018 15zm11-1a3 3 0 110-6 3 3 0 010 6z"/>
  <path fill="#818181" d="M19 14a2.966 2.966 0 01-1-.184V15.5a4.5 4.5 0 11-9 0v-1.02l-.375.3a1 1 0 01-1.25 0L7 14.48v1.02a6.5 6.5 0 0013 0v-1.684c-.32.118-.659.18-1 .184z"/>
</svg>
