<svg xmlns="http://www.w3.org/2000/svg" width="24" height="24" fill="none" viewBox="0 0 24 24">
  <path fill="#818181" d="M14 4.5h-4c-.6 0-1-.4-1-1s.4-1 1-1h4c.6 0 1 .4 1 1s-.4 1-1 1z"/>
  <path fill="#CCC" d="M12 14.5c-.6 0-1-.4-1-1v-3c0-.6.4-1 1-1s1 .4 1 1v3c0 .6-.4 1-1 1z"/>
  <path fill="#B3B3B3" d="M12 5.5c-4.4 0-8 3.6-8 8s3.6 8 8 8 8-3.6 8-8-3.6-8-8-8zm1 8c0 .6-.4 1-1 1s-1-.4-1-1v-3c0-.6.4-1 1-1s1 .4 1 1v3z"/>
  <path fill="#818181" d="M5.7 8.6c.4-.5.9-1 1.4-1.4l-.9-.9c-.4-.4-1-.4-1.4 0-.4.4-.4 1 0 1.4l.9.9zm12.6 0l.9-.9c.4-.4.4-1 0-1.4-.4-.4-1-.4-1.4 0l-.9.9c.5.4 1 .9 1.4 1.4zM12 15a1.5 1.5 0 100-3 1.5 1.5 0 000 3z"/>
</svg>
