<svg xmlns="http://www.w3.org/2000/svg" width="24" height="24" fill="none" viewBox="0 0 24 24">
  <path fill="#CCC" d="M18 9.22a2.953 2.953 0 01-4 0 2.953 2.953 0 01-4 0 2.953 2.953 0 01-4 0 2.987 2.987 0 01-2.026.78A2.958 2.958 0 013 9.82V21a1 1 0 00.999 1H20a1 1 0 001-.999V9.818a2.974 2.974 0 01-3-.598z"/>
  <path fill="#818181" d="M16 22H8v-5.823a4.12 4.12 0 013.601-4.158A4.004 4.004 0 0116 16v6z"/>
  <path fill="#B3B3B3" d="M22 2H2a1 1 0 00-1 .999V7a2.987 2.987 0 005 2.22 2.953 2.953 0 004 0 2.953 2.953 0 004 0 2.953 2.953 0 004 0A2.987 2.987 0 0023 7V3a1 1 0 00-.999-1H22z"/>
</svg>
