<svg xmlns="http://www.w3.org/2000/svg" width="24" height="24" fill="none" viewBox="0 0 24 24">
  <path fill="#CCC" d="M20 18.586v-7.143a3.947 3.947 0 01-5-.8c-.48.54-1.098.94-1.789 1.154L20 18.586z"/>
  <path fill="#818181" d="M22 23a.997.997 0 01-.707-.293l-20-20a1 1 0 011.414-1.414l20 20A1 1 0 0122 23z"/>
  <path fill="#9A9A9A" d="M12.586 14H10a1 1 0 00-1 1v7h6v-5.586L12.586 14z"/>
  <path fill="#CCC" d="M10 14h2.586l-2.49-2.49A3.84 3.84 0 019 10.642a3.998 3.998 0 01-5 .82v9.538A1 1 0 005 22h4v-7a1 1 0 011-1zm5 2.414V22h4a.993.993 0 00.93-.655L15 16.415z"/>
  <path fill="#B3B3B3" d="M13.211 11.797A3.957 3.957 0 0015 10.643 3.999 3.999 0 0022 8c0-.127-.024-.253-.071-.371l-2-5A1.001 1.001 0 0019 2H5a1 1 0 00-.929.629l-.008.02 9.148 9.148zM3.255 4.669L2.071 7.63A1.006 1.006 0 002 8a3.998 3.998 0 007 2.643c.309.353.68.647 1.095.866l-6.84-6.84z"/>
</svg>
