<svg xmlns="http://www.w3.org/2000/svg" width="24" height="24" fill="none" viewBox="0 0 24 24">
  <path fill="#B3B3B3" d="M18 12a3.99 3.99 0 01-3-1.357 3.994 3.994 0 01-6 0A3.998 3.998 0 012 8c0-.127.024-.253.071-.371l2-5A1 1 0 015 2h14a1 1 0 01.929.629l2 5c.047.118.07.244.071.371a4.004 4.004 0 01-4 4z"/>
  <path fill="#CCC" d="M18 12a3.99 3.99 0 01-3-1.357 3.994 3.994 0 01-6 0 3.998 3.998 0 01-5 .82V21a1 1 0 001 1h14a1 1 0 001-1v-9.557A3.963 3.963 0 0118 12z"/>
  <path fill="#818181" d="M15 22H9v-7a1 1 0 011-1h4a1 1 0 011 1v7z"/>
</svg>
