<svg xmlns="http://www.w3.org/2000/svg" width="24" height="24" fill="none" viewBox="0 0 24 24">
  <path fill="#B3B3B3" d="M16 14v-4H8v4.2c.9.3 1.6 1 1.9 1.9h4.4c.3-.9 1-1.6 1.9-1.9-.2-.1-.2-.1-.2-.2z"/>
  <path fill="#B3B3B3" d="M12 2C6.5 2 2 6.5 2 12s4.5 10 10 10 10-4.5 10-10S17.5 2 12 2zm2 17.7V18h-4v1.7C7.2 19 5 16.8 4.3 14H6v-4H4.3c.9-3.4 4-6 7.7-6s6.8 2.6 7.7 6H18v4h1.7c-.7 2.8-2.9 5-5.7 5.7z"/>
  <path fill="#818181" d="M12 14a1 1 0 100-2 1 1 0 000 2z"/>
  <path fill="#CCC" d="M7 15c-.6 0-1-.4-1-1v-4c0-.6.4-1 1-1s1 .4 1 1v4c0 .6-.4 1-1 1zm10 0c-.6 0-1-.4-1-1v-4c0-.6.4-1 1-1s1 .4 1 1v4c0 .6-.4 1-1 1zm-3 3h-4c-.6 0-1-.4-1-1s.4-1 1-1h4c.6 0 1 .4 1 1s-.4 1-1 1z"/>
</svg>
