<svg xmlns="http://www.w3.org/2000/svg" width="24" height="24" fill="none" viewBox="0 0 24 24">
  <path fill="#CCC" d="M21 12.5H3a1 1 0 01-1-1v-4a1 1 0 011-1h18a1 1 0 011 1v4a1 1 0 01-1 1z"/>
  <path fill="#B3B3B3" d="M20.348 18.166l-6.213-3.109 5.111-2.557h-4.47L11.9 13.939 9.024 12.5h-4.47l5.111 2.557-6.212 3.109a1 1 0 10.895 1.789l7.552-3.78 7.553 3.78a1 1 0 10.895-1.79zM21 4.5h-3a1 1 0 110-2h3a1 1 0 110 2z"/>
  <path fill="#818181" d="M4.5 21.5a2.5 2.5 0 100-5 2.5 2.5 0 000 5zM19.5 21.5a2.5 2.5 0 100-5 2.5 2.5 0 000 5z"/>
</svg>
