<svg xmlns="http://www.w3.org/2000/svg" width="24" height="24" fill="none" viewBox="0 0 24 24">
  <path fill="#B3B3B3" d="M18 20H6a3.003 3.003 0 01-3-3V5a3.003 3.003 0 013-3h12a3.003 3.003 0 013 3v12a3.003 3.003 0 01-3 3z"/>
  <path fill="#818181" d="M6 20a2.977 2.977 0 01-1.8-.615l-.907.908a1 1 0 001.414 1.414L6.414 20H6zm13.8-.615A2.976 2.976 0 0118 20h-.414l1.707 1.707a.996.996 0 001.414 0 1 1 0 000-1.414l-.908-.908zM8 17a.963.963 0 01-.71-.3.993.993 0 01-.27-.9.63.63 0 01.06-.18.763.763 0 01.09-.18l.12-.15a1.15 1.15 0 01.33-.21c.243-.1.516-.1.76 0 .121.05.233.122.33.21l.12.15a.762.762 0 01.09.18.649.649 0 01.06.18A1.007 1.007 0 018 17zm8 0a.963.963 0 01-.71-.3.952.952 0 01-.29-.7 1.33 1.33 0 01.02-.2.632.632 0 01.06-.18.768.768 0 01.09-.18l.12-.15c.097-.088.209-.16.33-.21.243-.1.516-.1.76 0 .121.05.233.122.33.21l.12.15a.76.76 0 01.09.18.65.65 0 01.06.18A1.007 1.007 0 0116 17z"/>
  <path fill="#CCC" d="M21 7h-8v7h8V7zM11 7H3v7h8V7z"/>
</svg>
