<svg xmlns="http://www.w3.org/2000/svg" width="24" height="24" fill="none" viewBox="0 0 24 24">
  <path fill="#B3B3B3" d="M21 13.452H3a1 1 0 01-1-1V9.5a3.003 3.003 0 013-3h14a3.003 3.003 0 013 3v2.952a1 1 0 01-1 1z"/>
  <path fill="#CCC" d="M21 13.452H3a1 1 0 01-1-1V18.5a3.003 3.003 0 003 3h14a3.003 3.003 0 003-3v-6.048a1 1 0 01-1 1z"/>
  <path fill="#818181" d="M15 13.452V14.5a1 1 0 002 0v-1.048h-2zM10 6.5v-1a1 1 0 011-1h2a1 1 0 011 1v1h2v-1a3.003 3.003 0 00-3-3h-2a3.003 3.003 0 00-3 3v1h2zm-3 6.951V14.5a1 1 0 002 0v-1.049H7z"/>
</svg>
