<svg xmlns="http://www.w3.org/2000/svg" width="24" height="24" fill="none" viewBox="0 0 24 24">
  <path fill="#B3B3B3" d="M4 13H3a1 1 0 010-2h1a1 1 0 010 2zm17 0h-1a1 1 0 010-2h1a1 1 0 010 2zm-9-8a1 1 0 01-1-1V3a1 1 0 012 0v1a1 1 0 01-1 1zm0 17a1 1 0 01-1-1v-1a1 1 0 012 0v1a1 1 0 01-1 1zM6.343 7.343a.997.997 0 01-.707-.293l-.707-.707a1 1 0 011.414-1.414l.707.707a1 1 0 01-.707 1.707zm12.02 12.021a.998.998 0 01-.706-.293l-.707-.707a1 1 0 011.414-1.414l.707.707a1 1 0 01-.707 1.707zm-.706-12.021a1 1 0 01-.707-1.707l.707-.707a1 1 0 011.414 1.414l-.707.707a.996.996 0 01-.707.293zM5.637 19.364a1.001 1.001 0 01-.708-1.707l.707-.707a1 1 0 111.414 1.414l-.707.707a.997.997 0 01-.707.293z"/>
  <path fill="#818181" d="M12 17.5a5.5 5.5 0 100-11 5.5 5.5 0 000 11z"/>
</svg>
