<svg xmlns="http://www.w3.org/2000/svg" width="24" height="24" fill="none" viewBox="0 0 24 24">
  <path fill="#B3B3B3" d="M15.34 17H8.66a.998.998 0 01-.734-.321A5.4 5.4 0 016.5 13a5.5 5.5 0 0111 0 5.4 5.4 0 01-1.426 3.679.999.999 0 01-.734.321z"/>
  <path fill="#CCC" d="M12 6a1 1 0 01-1-1V4a1 1 0 012 0v1a1 1 0 01-1 1zm9 8h-1a1 1 0 010-2h1a1 1 0 010 2zM4 14H3a1 1 0 010-2h1a1 1 0 010 2zm2.343-5.656a.997.997 0 01-.707-.293l-.707-.707A1 1 0 016.343 5.93l.707.707a1 1 0 01-.707 1.707zm11.314 0a1 1 0 01-.707-1.707l.707-.707a1 1 0 011.414 1.414l-.707.707a.996.996 0 01-.707.293z"/>
  <path fill="#818181" d="M11 21H8a1 1 0 010-2h3a1 1 0 010 2zm5 0h-1a1 1 0 010-2h1a1 1 0 010 2zm2-4H6a1 1 0 010-2h12a1 1 0 010 2z"/>
</svg>
