<svg xmlns="http://www.w3.org/2000/svg" width="24" height="24" fill="none" viewBox="0 0 24 24">
  <path fill="#CCC" d="M9 22H5a3.003 3.003 0 01-3-3V5a3.003 3.003 0 013-3h4a3.003 3.003 0 013 3v14a3.003 3.003 0 01-3 3z"/>
  <path fill="#B3B3B3" d="M20.293 6.535l-2.828-2.828a3.004 3.004 0 00-4.243 0l-1.229 1.228c0 .022.007.043.007.065v14c0 .027-.007.052-.008.08l8.301-8.302a3.004 3.004 0 000-4.243z"/>
  <path fill="#818181" d="M7 18a1 1 0 100-2 1 1 0 000 2zM19.065 12.007l-7.073 7.072c0-.027.008-.052.008-.079a3.003 3.003 0 01-3 3h10a3.003 3.003 0 003-3v-4a3 3 0 00-2.935-2.993z"/>
</svg>
