<svg xmlns="http://www.w3.org/2000/svg" width="24" height="24" fill="none" viewBox="0 0 24 24">
  <path fill="#818181" d="M12 13a1 1 0 01-1-1V9a1 1 0 012 0v3a1 1 0 01-1 1zm0 3a.99.99 0 01-1-1 1.05 1.05 0 01.29-.71c.096-.09.207-.162.33-.21a1.002 1.002 0 011.09.21c.182.192.286.445.29.71a.99.99 0 01-1 1z"/>
  <path fill="#B3B3B3" d="M12 2a10.017 10.017 0 00-7 2.877V3a1 1 0 00-2 0v4.5a1 1 0 001 1h4.5a1 1 0 000-2H6.218A7.98 7.98 0 0120 12a1 1 0 002 0A10.011 10.011 0 0012 2zm8 13.5h-4.5a1 1 0 000 2h2.282A7.98 7.98 0 014 12a1 1 0 10-2 0 9.987 9.987 0 0017 7.123V21a1 1 0 002 0v-4.5a1.001 1.001 0 00-1-1z"/>
</svg>
