<svg xmlns="http://www.w3.org/2000/svg" width="24" height="24" fill="none" viewBox="0 0 24 24">
  <path fill="#CCC" d="M20.293 6.536l-2.828-2.829a1 1 0 00-1.414 0l-1.415 1.414-.707-.707a1 1 0 00-1.414 0l-7.779 7.778-.707-.707A1 1 0 102.615 12.9l1.414 1.414 5.657 5.658 1.415 1.414a1 1 0 001.414-1.414l-.708-.707 7.779-7.779a1 1 0 000-1.413l-.707-.708 1.414-1.414a1 1 0 000-1.414zm-7.071 8.485l-4.243-4.243 4.243-4.243 4.243 4.243-4.243 4.243z"/>
  <path fill="#818181" d="M21.707 2.28a1 1 0 00-1.414.013l-2.12 2.121 1.413 1.414 2.121-2.121a1 1 0 000-1.427z"/>
  <path fill="#B3B3B3" d="M16.05 6.536l1.415 1.414.707-.707-1.414-1.415-.708.708zM8.979 13.608l-1.413 1.415 1.415 1.413 1.413-1.415-1.415-1.413zM13.222 6.535l-4.243 4.243 4.244 4.243 4.242-4.242-4.243-4.244z"/>
  <path fill="#818181" d="M6.535 20.293l-.702-.703 1.735-1.738-1.414-1.414-1.736 1.738-.71-.712a1 1 0 00-1.415 1.414l2.828 2.829a1 1 0 001.422-1.406l-.008-.008z"/>
</svg>
