<svg xmlns="http://www.w3.org/2000/svg" width="24" height="24" fill="none" viewBox="0 0 24 24">
  <path fill="#B3B3B3" d="M17 22H7a3.003 3.003 0 01-3-3V5a3.003 3.003 0 013-3h10a3.003 3.003 0 013 3v14a3.004 3.004 0 01-3 3z"/>
  <path fill="#818181" d="M12 18a.99.99 0 01-.38-.07 1.449 1.449 0 01-.33-.22.99.99 0 01-.21-1.09 1.03 1.03 0 01.21-.33l.15-.12a.741.741 0 01.18-.09.656.656 0 01.18-.06 1.02 1.02 0 01.91.27c.088.097.16.209.21.33A.839.839 0 0113 17c0 .266-.104.52-.29.71A.993.993 0 0112 18z"/>
</svg>
