<svg xmlns="http://www.w3.org/2000/svg" width="24" height="24" fill="none" viewBox="0 0 24 24">
  <path fill="#B3B3B3" d="M20.017 16.813a2.301 2.301 0 00-.147-.163l-1.414-1.415a1.985 1.985 0 01-.495-1.98l.24-.537a5.015 5.015 0 00-1.16-5.26l-.353-.354-1.591-1.591A6.75 6.75 0 004.08 12.85c.418-.222.888-.36 1.393-.36 1.655 0 3 1.346 3 3a2.97 2.97 0 01-.627 1.815 5.006 5.006 0 004.91.857l.538-.24a1.985 1.985 0 011.98.494l1.322 1.323a2.344 2.344 0 003.104.247 2.256 2.256 0 00.317-3.174z"/>
  <path fill="#818181" d="M19.7 19.987a2.256 2.256 0 00.17-3.337l-1.414-1.415a1.985 1.985 0 01-.495-1.98l.24-.537a5.039 5.039 0 00-.264-4.035L8.72 17.898a5.038 5.038 0 004.035.265l.538-.24a1.984 1.984 0 011.98.494l1.322 1.323a2.344 2.344 0 003.104.247z"/>
  <path fill="#CCC" d="M5.473 18.491c-1.654 0-3-1.346-3-3s1.346-3 3-3 3 1.346 3 3-1.346 3-3 3z"/>
</svg>
