<svg xmlns="http://www.w3.org/2000/svg" width="24" height="24" fill="none" viewBox="0 0 24 24">
  <path fill="#B3B3B3" d="M5.482 12.988a1 1 0 01-.966-.741L3.48 8.383a1 1 0 01.707-1.225l11.59-3.106a1 1 0 011.225.706v.001l1.035 3.864a1 1 0 01-.707 1.225l-11.59 3.106a.988.988 0 01-.26.034z"/>
  <path fill="#CCC" d="M10.019 11.807V13.5a2 2 0 104 0v-2.765l-4 1.072z"/>
  <path fill="#B3B3B3" d="M12.019 15.5a1.98 1.98 0 01-1.004-.28v6.28a1 1 0 102 0v-6.275a1.98 1.98 0 01-.996.275zm-2-2v-.377c-.04.03-.085.045-.12.08l-5.591 5.59a1 1 0 001.414 1.414L10.83 15.1a1.991 1.991 0 01-.811-1.6zm9.703 5.293l-5.59-5.59-.002-.002c-.033-.033-.075-.046-.111-.074v.373c0 .66-.323 1.239-.815 1.603l5.104 5.104a1 1 0 001.414-1.414z"/>
  <path fill="#818181" d="M3.74 9.35l-1 .263a1 1 0 00.51 1.934l1.007-.266-.518-1.931zm13.849 2.464a1 1 0 01-.965-.742l-2.07-7.727a1 1 0 01.707-1.224l1.931-.518a3.007 3.007 0 013.675 2.12l1.035 3.865a3 3 0 01-2.12 3.674l-1.933.517a.99.99 0 01-.26.035z"/>
</svg>
