<svg xmlns="http://www.w3.org/2000/svg" width="24" height="24" fill="none" viewBox="0 0 24 24">
  <path fill="#CCC" d="M22 11.955a10.043 10.043 0 00-.756-3.786A10.007 10.007 0 0012.036 2 9.099 9.099 0 0022 11.955zm-20 .09c.023 5.488 4.467 9.932 9.955 9.955A9.09 9.09 0 002 12.045z"/>
  <path fill="#B3B3B3" d="M20.188 11.956a9.099 9.099 0 01-8.153-9.952 9.992 9.992 0 00-9.995 9.127A8.21 8.21 0 002 12l.002.045A9.09 9.09 0 0111.955 22l.045.003c.29.002.58-.012.869-.04a9.991 9.991 0 009.09-9.093A8.21 8.21 0 0022 12l-.001-.045c-.602.06-1.208.06-1.81 0z"/>
  <path fill="#818181" d="M12.07 21.01a1.01 1.01 0 00-1.12.87l-.01.06c.352.04.706.06 1.06.06a7.4 7.4 0 00.94-.05 1.003 1.003 0 00-.87-.94zm.41-3.2c0-.01-.04-.1-.04-.11a.956.956 0 00-1.218-.588l-.022.008c-.52.198-.794.77-.62 1.3.129.417.514.7.95.7.102-.002.203-.019.3-.05a.999.999 0 00.652-1.253l-.002-.007zm-2.36-3.83a1.002 1.002 0 10-1.46 1.37.503.503 0 01.07.06c.169.179.404.28.65.28a1.02 1.02 0 00.7-.29c.386-.389.404-1.01.04-1.42zM6.4 11.59c-.01 0-.12-.04-.13-.04a.96.96 0 00-1.22.62 1.05 1.05 0 00.99 1.36 1.005 1.005 0 00.36-1.94zm-4.35-.54a10.28 10.28 0 00.01 2c.03.002.06-.002.09-.01a.997.997 0 00-.1-1.99zm9-9a.988.988 0 00.88.95c.04.008.08.012.12.01a1.012 1.012 0 001-.88l.01-.07a10.383 10.383 0 00-2.01-.01zm2.38 3.54a.998.998 0 00-1.903.601l.003.009c0 .01.03.11.03.11a.93.93 0 00.9.64c.12 0 .237-.02.35-.06.522-.197.796-.77.62-1.3zm1.85 3.01a.96.96 0 00-1.38.03 1.033 1.033 0 00.03 1.44c.01.01.02.03.04.04a.9.9 0 00.63.25 1.015 1.015 0 00.68-1.76zm3.03 1.94a1 1 0 00-.73 1.86c.02.01.12.04.13.05.1.03.205.047.31.05a.979.979 0 00.91-.67 1.04 1.04 0 00-.62-1.29zm3.63.42h-.08a.996.996 0 00.06 1.99h.03c.062-.662.058-1.329-.01-1.99z"/>
</svg>
