<svg xmlns="http://www.w3.org/2000/svg" width="24" height="24" fill="none" viewBox="0 0 24 24">
  <path fill="#CCC" d="M8 4H4v4h4V4zM14 4h-4v4h4V4zM20 4h-4v4h4V4zM14 10h-4v4h4v-4zM20 10h-4v4h4v-4zM14 16h-4v4h4v-4zM20 16h-4v4h4v-4z"/>
  <path fill="#B3B3B3" d="M21 2H3a1 1 0 00-1 1v18a1 1 0 001 1h18a1 1 0 001-1V3a1 1 0 00-1-1zM10 14v-4h4v4h-4zm4 2v4h-4v-4h4zM4 10h4v4H4v-4zm6-2V4h4v4h-4zm6 2h4v4h-4v-4zm4-2h-4V4h4v4zM8 4v4H4V4h4zM4 16h4v4H4v-4zm12 4v-4h4v4h-4z"/>
  <path fill="#818181" d="M22 23a.997.997 0 01-.707-.293l-20-20a1 1 0 011.414-1.414l20 20A1 1 0 0122 23z"/>
  <path fill="#CCC" d="M8 16H4v4h4v-4zM8 10H4v4h4v-4z"/>
</svg>
