<svg xmlns="http://www.w3.org/2000/svg" width="24" height="24" fill="none" viewBox="0 0 24 24">
  <path fill="#CCC" d="M19.116 4.878a3 3 0 00-4.238 0l-7.876 7.925v4.195h4.195l7.925-7.876a3 3 0 00-.006-4.244z"/>
  <path fill="#818181" d="M10 15a1 1 0 01-.707-1.707l7-7a1 1 0 011.414 1.414l-7 7A.997.997 0 0110 15z"/>
  <path fill="#B3B3B3" d="M20.536 3.467a5 5 0 00-7.072-.003l-8.172 8.223a1 1 0 00-.29.704v5.193l-2.709 2.709a1 1 0 001.414 1.414l2.709-2.709h5.193a1 1 0 00.704-.29l8.223-8.172a5 5 0 000-7.07zm-1.414 5.655l-7.925 7.876H7.002v-4.195l7.877-7.925a3 3 0 014.243 4.244z"/>
</svg>
