<svg xmlns="http://www.w3.org/2000/svg" width="24" height="24" fill="none" viewBox="0 0 24 24">
  <path fill="#B3B3B3" d="M14.667 18.5H5.5a3.5 3.5 0 01-.936-6.873 5.998 5.998 0 0111.406-1.585 4.329 4.329 0 01-1.303 8.458zm3.691-11.358c.266 0 .52-.106.708-.293l1.174-1.175a1 1 0 10-1.414-1.414l-1.175 1.175a1 1 0 00.707 1.707zM16 6.167a1 1 0 001-1V3.5a1 1 0 10-2 0v1.667a1 1 0 001 1z"/>
  <path fill="#B3B3B3" d="M19.066 10.151a1 1 0 00-1.415 0 .987.987 0 00-.28.648 4.313 4.313 0 011.312 1.798l.143.143a1 1 0 001.414-1.414l-1.175-1.175zM21 7.5h-1.666a1 1 0 100 2H21a1 1 0 100-2zm-8.065-.651a1 1 0 001.414-1.414L13.174 4.26a1 1 0 00-1.414 1.414l1.175 1.175z"/>
  <path fill="#818181" d="M15.955 4.17a4.365 4.365 0 00-3.953 2.528 5.993 5.993 0 013.968 3.344 4.308 4.308 0 012.502 2.07 4.368 4.368 0 001.858-3.567 4.375 4.375 0 00-4.375-4.375zM9.85 21.5a1 1 0 01-.865-1.5l.866-1.5H8.583a1 1 0 01-.866-1.5l1.732-3a1 1 0 011.733 1l-.867 1.5h1.268a1 1 0 01.867 1.5l-1.733 3c-.178.31-.51.5-.867.5z"/>
</svg>
