<svg xmlns="http://www.w3.org/2000/svg" width="24" height="24" fill="none" viewBox="0 0 24 24">
  <path fill="#B3B3B3" d="M9 5H3a1 1 0 00-1 1v4a.992.992 0 00.984 1h.005a1 1 0 110 2 .992.992 0 00-.989.995V18a1 1 0 001 1h6V5z"/>
  <path fill="#CCC" d="M21 5H9a1 1 0 011 1v1a1 1 0 01-.999 1H9v2a1 1 0 011 1v2a1 1 0 01-.999 1H9v2a1 1 0 011 1v1a1 1 0 01-.999 1h12A1 1 0 0022 18v-4V14A1 1 0 0021 13a1 1 0 110-2h.001A1 1 0 0022 10V6 6A1 1 0 0021 5z"/>
  <path fill="#818181" d="M9 19a1 1 0 01-1-.999v-1a1 1 0 112 0v1a1 1 0 01-.999 1H9zM9 8a1 1 0 01-1-.999V6a1 1 0 112 0v1a1 1 0 01-.999 1H9zm0 6a1 1 0 01-1-.999v-2a1 1 0 112 0v2a1 1 0 01-.999 1H9z"/>
</svg>
