<svg xmlns="http://www.w3.org/2000/svg" width="24" height="24" fill="none" viewBox="0 0 24 24">
  <path fill="#818181" d="M13.414 12l3.293-3.293a1 1 0 00-1.414-1.414L12 10.586 8.707 7.293a1 1 0 00-1.414 1.414L10.586 12l-3.293 3.293a1 1 0 001.414 1.414L12 13.414l3.293 3.293a1 1 0 001.414-1.414L13.414 12z"/>
  <path fill="#B3B3B3" d="M19.07 4.93A10 10 0 104.93 19.07 10 10 0 0019.07 4.93zm-2.363 10.363a.998.998 0 01-.705 1.713 1 1 0 01-.709-.299L12 13.414l-3.293 3.293a1 1 0 01-1.414-1.414L10.586 12 7.293 8.707a1 1 0 011.414-1.414L12 10.586l3.293-3.293a1 1 0 011.414 1.414L13.414 12l3.293 3.293z"/>
</svg>
