<svg xmlns="http://www.w3.org/2000/svg" width="24" height="24" fill="none" viewBox="0 0 24 24">
  <path fill="#818181" d="M7 9.243c.552 0 1-.56 1-1.25s-.448-1.25-1-1.25-1 .56-1 1.25.448 1.25 1 1.25z"/>
  <path fill="#B3B3B3" d="M7 2C4.243 2 2 4.691 2 8s2.243 6 5 6 5-2.691 5-6-2.243-6-5-6zm0 7.243a1.146 1.146 0 01-1-1.25 1.146 1.146 0 011-1.25 1.146 1.146 0 011 1.25 1.146 1.146 0 01-1 1.25z"/>
  <path fill="#CCC" d="M22.76 20.35A7.503 7.503 0 0121 15.459V8c0-3.309-2.243-6-5-6H7c2.757 0 5 2.691 5 6v7.459a9.508 9.508 0 002.24 6.191A1 1 0 0015 22h7a1 1 0 00.76-1.65z"/>
  <path fill="#818181" d="M12 8c0 3.309-2.243 6-5 6h5V8z"/>
</svg>
