<svg xmlns="http://www.w3.org/2000/svg" width="24" height="24" fill="none" viewBox="0 0 24 24">
  <path fill="#818181" d="M9.5 9h-6a1 1 0 010-2h6a1 1 0 110 2z"/>
  <path fill="#818181" d="M6.5 17a1 1 0 01-1-1V8a1 1 0 012 0v8a1 1 0 01-1 1zm7 0a1 1 0 01-1-1V8a1 1 0 012 0v8a1 1 0 01-1 1zm7 0a1 1 0 01-1-1V8a1 1 0 012 0v8a1 1 0 01-1 1z"/>
  <path fill="#818181" d="M17 12.5a.997.997 0 01-.707-.293l-3.5-3.5a1 1 0 011.414-1.414L17 10.086l2.793-2.793a1 1 0 011.414 1.414l-3.5 3.5A.997.997 0 0117 12.5z"/>
</svg>
