<svg xmlns="http://www.w3.org/2000/svg" width="24" height="24" fill="none" viewBox="0 0 24 24">
  <path fill="#B3B3B3" d="M12 22c5.523 0 10-4.477 10-10S17.523 2 12 2 2 6.477 2 12s4.477 10 10 10z"/>
  <path fill="#818181" d="M10 11H7a1 1 0 010-2h3a1 1 0 110 2z"/>
  <path fill="#818181" d="M8.5 15a1 1 0 01-1-1v-4a1 1 0 012 0v4a1 1 0 01-1 1zm8.5 0a1 1 0 01-1-1v-1.586l-.293.293a1.001 1.001 0 01-1.414 0L14 12.414V14a1 1 0 11-2 0v-4a1 1 0 011.707-.707L15 10.586l1.293-1.293A1 1 0 0118 10v4a1 1 0 01-1 1z"/>
</svg>
