<svg xmlns="http://www.w3.org/2000/svg" width="24" height="24" fill="none" viewBox="0 0 24 24">
  <path fill="#CCC" d="M6 8.5H2a1 1 0 00-1 1 5.997 5.997 0 005 5.91V8.5z"/>
  <path fill="#B3B3B3" d="M15 22.5H9a3.003 3.003 0 01-3-3v-15a3.003 3.003 0 013-3h6a3.003 3.003 0 013 3v15a3.003 3.003 0 01-3 3z"/>
  <path fill="#818181" d="M6 4.5c0-.772.301-1.468.78-2H2a1 1 0 00-1 1 5.997 5.997 0 005 5.91V4.5zm0 15v-4.09a5.975 5.975 0 01-2.313-.91H2a1 1 0 00-1 1 5.996 5.996 0 005.77 5.988A2.98 2.98 0 016 19.5zm16-5h-1.686a5.975 5.975 0 01-2.314.91v4.09a2.98 2.98 0 01-.77 1.988A5.996 5.996 0 0023 15.5a1 1 0 00-1-1z"/>
  <path fill="#CCC" d="M22 8.5h-4v6.91a5.997 5.997 0 005-5.91 1 1 0 00-1-1z"/>
  <path fill="#818181" d="M22 2.5h-4.78c.479.532.78 1.228.78 2v4.91a5.997 5.997 0 005-5.91 1 1 0 00-1-1zM12 8.5a1.5 1.5 0 100-3 1.5 1.5 0 000 3zM12 13.5a1.5 1.5 0 100-3 1.5 1.5 0 000 3zM12 18.5a1.5 1.5 0 100-3 1.5 1.5 0 000 3z"/>
</svg>
