<svg xmlns="http://www.w3.org/2000/svg" width="24" height="24" fill="none" viewBox="0 0 24 24">
  <path fill="#818181" d="M8.5 22a1 1 0 01-1-.999V13a1 1 0 112 0v8a1 1 0 01-.999 1H8.5zm8 0a1 1 0 01-1-.999V13a1 1 0 112 0v8a1 1 0 01-.999 1H16.5z"/>
  <path fill="#B3B3B3" d="M16.5 5a5.006 5.006 0 00-5 5v4a5.008 5.008 0 004 4.899V13a1 1 0 112 0v5.899a5.008 5.008 0 004-4.899v-4a5.006 5.006 0 00-5-5z"/>
  <path fill="#CCC" d="M12.265 16.633A4.952 4.952 0 0111.5 14v-4a4.983 4.983 0 012.519-4.314 6.05 6.05 0 00-1.276-1.937A6.006 6.006 0 002.5 8v4a6.004 6.004 0 005 5.91V13a1 1 0 112 0v4.905a6.035 6.035 0 002.765-1.272z"/>
</svg>
