<svg xmlns="http://www.w3.org/2000/svg" width="24" height="24" fill="none" viewBox="0 0 24 24">
  <path fill="#B3B3B3" d="M4.996 21.998a3.002 3.002 0 01-2.839-3.95l2.662-7.984A3 3 0 019.786 8.89l5.323 5.323a3 3 0 01-1.172 4.968l-7.985 2.66a3.005 3.005 0 01-.956.156z"/>
  <path fill="#CCC" d="M16.586 10.412a3 3 0 01-2.122-5.12l2.415-2.413a3.073 3.073 0 014.242 0 3.003 3.003 0 010 4.242l-2.414 2.414a2.99 2.99 0 01-2.121.877z"/>
  <path fill="#818181" d="M14.464 9.535a2.971 2.971 0 01-.576-.837l-4.425 4.425a1 1 0 001.414 1.414l4.425-4.424a2.978 2.978 0 01-.838-.578z"/>
</svg>
