<svg xmlns="http://www.w3.org/2000/svg" width="24" height="24" fill="none" viewBox="0 0 24 24">
  <path fill="#CCC" d="M22.8 11.9l-2.4-3.2c-.6-.8-1.5-1.2-2.4-1.2h-2v10c0 .6-.4 1-1 1h7c.6 0 1-.4 1-1v-5c0-.2-.1-.4-.2-.6z"/>
  <path fill="#B3B3B3" d="M15 18.5H2c-.6 0-1-.4-1-1v-12c0-1.7 1.3-3 3-3h9c1.7 0 3 1.3 3 3v12c0 .6-.4 1-1 1z"/>
  <path fill="#818181" d="M16 12.5h7c0-.2-.1-.4-.2-.6l-2.4-3.2c-.6-.8-1.5-1.2-2.4-1.2h-2v5zm-10 9c-1.7 0-3-1.3-3-3s1.3-3 3-3 3 1.3 3 3-1.3 3-3 3zm12 0c-1.7 0-3-1.3-3-3s1.3-3 3-3 3 1.3 3 3-1.3 3-3 3z"/>
</svg>
