<svg xmlns="http://www.w3.org/2000/svg" width="24" height="24" fill="none" viewBox="0 0 24 24">
  <path fill="#818181" d="M20.475 7.805c.01.185.01.37.01.545a11.887 11.887 0 01-.493 3.362A11.729 11.729 0 018.485 20.36a11.901 11.901 0 01-6.467-1.902A8.45 8.45 0 008.26 16.71a4.224 4.224 0 01-3.939-2.92c.262.044.526.068.792.071.379.002.756-.05 1.12-.154a4.2 4.2 0 01-3.372-3.815 1.66 1.66 0 01-.02-.319v-.051a4.166 4.166 0 001.912.524A4.202 4.202 0 012.88 6.54c0-.747.195-1.48.566-2.129a11.968 11.968 0 008.7 4.412 4.219 4.219 0 017.187-3.846 8.443 8.443 0 002.684-1.028 4.978 4.978 0 01-1.543 3.856z"/>
</svg>
