<svg xmlns="http://www.w3.org/2000/svg" width="24" height="24" fill="none" viewBox="0 0 24 24">
  <path fill="#818181" d="M22 5.796a8.192 8.192 0 01-2.357.646 4.115 4.115 0 001.805-2.27 8.197 8.197 0 01-2.607.996 4.105 4.105 0 00-6.99 3.743 11.65 11.65 0 01-8.457-4.287 4.107 4.107 0 001.27 5.478 4.084 4.084 0 01-1.86-.513v.052a4.105 4.105 0 003.292 4.023 4.17 4.17 0 01-1.853.072 4.108 4.108 0 003.831 2.848A8.262 8.262 0 012 18.283a11.612 11.612 0 006.29 1.844A11.595 11.595 0 0019.962 8.453c0-.178-.005-.354-.013-.53A8.36 8.36 0 0022 5.796z"/>
</svg>
