<svg xmlns="http://www.w3.org/2000/svg" width="24" height="24" fill="none" viewBox="0 0 24 24">
  <path fill="#CCC" d="M15.977 13H8.023C7.802 8.23 9.178 3 12 3s4.198 5.23 3.977 10z"/>
  <path fill="#B3B3B3" d="M3 12a1 1 0 001 1h4.023C7.802 8.23 9.178 3 12 3a9 9 0 00-9 9zm9-9c2.822 0 4.198 5.23 3.977 10H20a1 1 0 001-1 9 9 0 00-9-9z"/>
  <path fill="#818181" d="M12 3c.338 0 .671.022 1 .059V3a1 1 0 10-2 0v.059A9.077 9.077 0 0112 3zm-1 10v6a1 1 0 11-2 0 1 1 0 10-2 0 3.003 3.003 0 003 3 3.003 3.003 0 003-3v-6h-2z"/>
</svg>
