<svg xmlns="http://www.w3.org/2000/svg" width="24" height="24" fill="none" viewBox="0 0 24 24">
  <path fill="#B3B3B3" d="M12 22c5.523 0 10-4.477 10-10S17.523 2 12 2 2 6.477 2 12s4.477 10 10 10z"/>
  <path fill="#818181" d="M9.914 10.836a.997.997 0 01-.707-.293 1.033 1.033 0 00-1.414 0 1 1 0 01-1.414-1.414 3.072 3.072 0 014.242 0 1 1 0 01-.707 1.707zm7 0a.997.997 0 01-.707-.293 1.033 1.033 0 00-1.414 0 1 1 0 01-1.414-1.414 3.073 3.073 0 014.242 0 1 1 0 01-.707 1.707zM10.804 17a1 1 0 01-.337-1.941l4.196-1.5a1 1 0 01.674 1.882l-4.196 1.5a.992.992 0 01-.337.059z"/>
</svg>
