<svg xmlns="http://www.w3.org/2000/svg" width="24" height="24" fill="none" viewBox="0 0 24 24">
  <path fill="#818181" d="M13 11h-2a1 1 0 010-2h4a1 1 0 100-2h-2V6a1 1 0 00-2 0v1a3 3 0 000 6h2a1 1 0 010 2H9a1 1 0 000 2h2v1a1 1 0 002 0v-1a3 3 0 000-6z"/>
  <path fill="#B3B3B3" d="M19 2H5a3.003 3.003 0 00-3 3v14a3.003 3.003 0 003 3h14a3.004 3.004 0 003-3V5a3.003 3.003 0 00-3-3zm-8 9h2a3 3 0 010 6v1a1 1 0 01-2 0v-1H9a1 1 0 010-2h4a1 1 0 000-2h-2a3 3 0 010-6V6a1 1 0 012 0v1h2a1 1 0 110 2h-4a1 1 0 100 2z"/>
</svg>
