<svg xmlns="http://www.w3.org/2000/svg" width="24" height="24" fill="none" viewBox="0 0 24 24">
  <path fill="#818181" d="M19.75 10.5a1 1 0 01-1-1v-2a1 1 0 112 0v2a1 1 0 01-1 1zm0 3a1.002 1.002 0 01-.38-.08 1.15 1.15 0 01-.33-.21.989.989 0 01-.29-.71 1 1 0 112 0 .839.839 0 01-.08.38 1.172 1.172 0 01-.21.33c-.097.088-.209.16-.33.21a.999.999 0 01-.38.08z"/>
  <path fill="#CCC" d="M11.25 13.5a5 5 0 110-10 5 5 0 010 10z"/>
  <path fill="#B3B3B3" d="M14.556 12.221A4.967 4.967 0 0111.25 13.5a4.96 4.96 0 01-3.309-1.277A7.995 7.995 0 003.25 19.5a1 1 0 001 1h14a1 1 0 001-1 7.995 7.995 0 00-4.694-7.279z"/>
</svg>
