<svg xmlns="http://www.w3.org/2000/svg" width="24" height="24" fill="none" viewBox="0 0 24 24">
  <path fill="#CCC" d="M10 13.5a5 5 0 100-10 5 5 0 000 10z"/>
  <path fill="#B3B3B3" d="M13.309 12.223A4.96 4.96 0 0110 13.5a4.96 4.96 0 01-3.309-1.277A7.995 7.995 0 002 19.5a1 1 0 001 1h14a1 1 0 001-1 7.995 7.995 0 00-4.691-7.277z"/>
  <path fill="#818181" d="M18.334 13.5a.997.997 0 01-.707-.293l-1.334-1.333a1 1 0 011.414-1.414l.627.626 1.96-1.96a1 1 0 011.413 1.414l-2.666 2.667a.997.997 0 01-.707.293z"/>
</svg>
