<svg xmlns="http://www.w3.org/2000/svg" width="24" height="24" fill="none" viewBox="0 0 24 24">
  <path fill="#818181" d="M18.307 12.221A4.967 4.967 0 0115 13.5c-.271 0-.537-.025-.795-.068-.028-.024-.06-.041-.087-.065A7.965 7.965 0 0117 19.5a1 1 0 01-1 1h6a1 1 0 001-1 7.995 7.995 0 00-4.693-7.279z"/>
  <path fill="#CCC" d="M9 13.5a5 5 0 110-10 5 5 0 010 10z"/>
  <path fill="#CCC" d="M9 13.5a5 5 0 110-10 5 5 0 010 10z"/>
  <path fill="#B3B3B3" d="M12.306 12.221A4.967 4.967 0 019 13.5a4.96 4.96 0 01-3.309-1.277A7.995 7.995 0 001 19.5a1 1 0 001 1h14a1 1 0 001-1 7.995 7.995 0 00-4.694-7.279z"/>
  <path fill="#9A9A9A" d="M15 3.5c-1.13 0-2.162.39-3 1.023a4.996 4.996 0 01.927.917 4.974 4.974 0 01.594.955c.042.091.085.181.122.275.097.241.175.49.233.75.013.06.023.123.034.185.053.29.09.588.09.895 0 .315-.036.62-.093.917-.009.044-.013.09-.023.133a4.874 4.874 0 01-.227.729c-.036.094-.071.188-.113.28a4.97 4.97 0 01-.283.52 4.99 4.99 0 01-.955 1.143c.691.314 1.33.722 1.899 1.21.258.043.523.068.795.068a5 5 0 000-10z"/>
</svg>
