<svg xmlns="http://www.w3.org/2000/svg" width="24" height="24" fill="none" viewBox="0 0 24 24">
  <path fill="#CCC" d="M10 13.5a5 5 0 100-10 5 5 0 000 10z"/>
  <path fill="#B3B3B3" d="M13.306 12.225A4.96 4.96 0 0110 13.5a4.961 4.961 0 01-3.306-1.275A8.004 8.004 0 002 19.5a1 1 0 00.999 1H17a1 1 0 001-.999V19.5a8.004 8.004 0 00-4.694-7.275z"/>
  <path fill="#818181" d="M18 14.5a1 1 0 01-.707-1.707l3-3a1 1 0 011.414 1.414l-3 3A.997.997 0 0118 14.5z"/>
  <path fill="#818181" d="M21 14.5a.997.997 0 01-.707-.293l-3-3a1 1 0 011.414-1.414l3 3A1 1 0 0121 14.5z"/>
</svg>
