<svg xmlns="http://www.w3.org/2000/svg" width="24" height="24" fill="none" viewBox="0 0 24 24">
  <path fill="#B3B3B3" d="M12.697 11.298l-2.253-2.253a4.164 4.164 0 00-.743-4.985c-1.445-1.446-5.174-3.03-6.93-1.274-1.754 1.756-.172 5.485 1.273 6.93a4.285 4.285 0 003.033 1.273 3.9 3.9 0 001.954-.53l2.252 2.253a1 1 0 001.414-1.414zM21 22.015a.997.997 0 01-.707-.293l-6.18-6.18a1 1 0 111.414-1.414l6.18 6.18A1 1 0 0121 22.015z"/>
  <path fill="#818181" d="M21.707 6.52a1 1 0 00-1.414 0l-2.83 2.829a1.02 1.02 0 01-1.413 0l3.536-3.535a1 1 0 00-1.414-1.415l-3.536 3.536a1.002 1.002 0 010-1.414l2.828-2.829a1 1 0 00-1.414-1.414l-2.829 2.828a3.004 3.004 0 000 4.243h.001L2.292 20.28a1 1 0 101.415 1.413l10.93-10.929a3 3 0 004.241 0l2.829-2.828a1 1 0 000-1.414z"/>
</svg>
