<svg xmlns="http://www.w3.org/2000/svg" width="24" height="24" fill="none" viewBox="0 0 24 24">
  <path fill="#818181" d="M5 8a3 3 0 110-6 3 3 0 010 6zm0-4a1 1 0 100 2 1 1 0 000-2zm14 4a3 3 0 110-6 3 3 0 010 6zm0-4a1 1 0 100 2 1 1 0 000-2zM5 22a3 3 0 110-6 3 3 0 010 6zm0-4a1 1 0 100 2.001A1 1 0 005 18zm14 4a3 3 0 110-5.999A3 3 0 0119 22zm0-4a1 1 0 100 2.002A1 1 0 0019 18z"/>
  <path fill="#B3B3B3" d="M16.184 20a2.805 2.805 0 010-2H7.816a2.806 2.806 0 010 2h8.368zM19 8a2.965 2.965 0 01-1-.184v8.368a2.805 2.805 0 012 0V7.816c-.32.118-.659.18-1 .184zM7.816 4c.118.32.18.659.184 1-.003.341-.066.68-.184 1h8.368A2.967 2.967 0 0116 5c.003-.341.066-.68.184-1H7.816zM5 16c.341.003.68.066 1 .184V7.816c-.32.118-.659.18-1 .184a2.965 2.965 0 01-1-.184v8.368c.32-.118.659-.18 1-.184z"/>
</svg>
