<svg xmlns="http://www.w3.org/2000/svg" width="24" height="24" fill="none" viewBox="0 0 24 24">
  <path fill="#818181" d="M4 22a2 2 0 110-4 2 2 0 010 4zM4 6a2 2 0 110-4 2 2 0 010 4zm16 0a2 2 0 110-4 2 2 0 010 4zm0 16a2 2 0 110-4 2 2 0 010 4z"/>
  <path fill="#B3B3B3" d="M16 7H8a1 1 0 00-1 1v8a1 1 0 001 1h8a1 1 0 001-1V8a1 1 0 00-1-1z"/>
  <path fill="#CCC" d="M18.278 5a1.935 1.935 0 010-2H5.722a1.936 1.936 0 010 2h12.556zM20 18c.352.002.697.098 1 .278V5.722a1.936 1.936 0 01-2 0v12.556c.303-.18.648-.276 1-.278zM4 18c.352.002.697.098 1 .278V5.722a1.936 1.936 0 01-2 0v12.556c.303-.18.648-.276 1-.278zm14.278 1H5.722a1.936 1.936 0 010 2h12.556a1.935 1.935 0 010-2z"/>
</svg>
