<svg xmlns="http://www.w3.org/2000/svg" width="24" height="24" fill="none" viewBox="0 0 24 24">
  <path fill="#CCC" d="M14 18H5a3.003 3.003 0 01-3-3V9a3.003 3.003 0 013-3h9a3.003 3.003 0 013 3v6a3.003 3.003 0 01-3 3z"/>
  <path fill="#B3B3B3" d="M21.895 7.554a1 1 0 00-1.342-.449l-3.565 1.783c.002.038.012.073.012.112v6c0 .039-.01.074-.012.112l3.565 1.783A1 1 0 0022 16V8a1 1 0 00-.105-.446z"/>
  <path fill="#818181" d="M21 22a.997.997 0 01-.707-.293l-18-18a1 1 0 011.414-1.414l18 18A1 1 0 0121 22z"/>
</svg>
