<svg xmlns="http://www.w3.org/2000/svg" width="24" height="24" fill="none" viewBox="0 0 24 24">
  <path fill="#818181" d="M9 16a1 1 0 100-2 1 1 0 000 2zM15 10a1 1 0 100-2 1 1 0 000 2z"/>
  <path fill="#CCC" d="M12 8a1 1 0 01-1-1V2a1 1 0 012 0v5a1 1 0 01-1 1zm0 15a1 1 0 01-1-1v-5a1 1 0 012 0v5a1 1 0 01-1 1zm10-10h-4a1 1 0 010-2h4a1 1 0 010 2z"/>
  <path fill="#818181" d="M4.98 17.607l-.758.757a1 1 0 101.414 1.414l.758-.758a9.055 9.055 0 01-1.415-1.413zM19.02 6.394l.758-.758a1 1 0 10-1.414-1.414l-.757.757c.522.418.996.892 1.413 1.415z"/>
  <path fill="#CCC" d="M6 13H2a1 1 0 010-2h4a1 1 0 010 2z"/>
  <path fill="#818181" d="M22 23.002a.998.998 0 01-.707-.293l-20-20a1 1 0 011.414-1.414l20 20A1 1 0 0122 23.002z"/>
  <path fill="#9A9A9A" d="M15.746 14.334a1.5 1.5 0 00-2.08-2.08l2.08 2.08zM8.252 9.668a1.5 1.5 0 002.08 2.08l-2.08-2.08z"/>
  <path fill="#B3B3B3" d="M17.606 19.022l-7.274-7.274a1.499 1.499 0 01-2.08-2.08L4.978 6.394A8.943 8.943 0 003.06 11H6a1 1 0 110 2H3.059A9.012 9.012 0 0011 20.94V17a1 1 0 112 0v3.941a8.949 8.949 0 004.606-1.919zM9 16a1 1 0 110-2 1 1 0 010 2zM6.392 4.98l7.274 7.274a1.5 1.5 0 012.08 2.08l3.274 3.274A8.948 8.948 0 0020.941 13H18a1 1 0 110-2h2.94A9.012 9.012 0 0013 3.059V7a1 1 0 01-2 0V3.06a8.953 8.953 0 00-4.608 1.92zM15 8a1 1 0 110 2 1 1 0 010-2z"/>
</svg>
