<svg xmlns="http://www.w3.org/2000/svg" width="24" height="24" fill="none" viewBox="0 0 24 24">
  <path fill="#B3B3B3" d="M12 21a9 9 0 100-18 9 9 0 000 18z"/>
  <path fill="#818181" d="M12 22a10 10 0 1110-10 10.012 10.012 0 01-10 10zm0-18a8 8 0 108 8 8.01 8.01 0 00-8-8z"/>
  <path fill="#818181" d="M7.33 20.69a.99.99 0 01-.464-.114 1.05 1.05 0 01-.556-.906 1.013 1.013 0 111.02 1.02zM9.47 8.91a1 1 0 01-.62-1.785 9.969 9.969 0 0111.34-.669l-.002.003c.165.098.299.239.388.407a1 1 0 01-1.5 1.253 8.135 8.135 0 00-8.987.576.994.994 0 01-.618.215zM12.122 22a1 1 0 01-.458-1.89A7.962 7.962 0 0016 13a7.791 7.791 0 00-.46-2.66 1 1 0 111.88-.68A9.782 9.782 0 0118 13a9.956 9.956 0 01-5.423 8.89.997.997 0 01-.456.11zM7.89 5h-.01a1 1 0 11.01 0zm3.78 11.7a.995.995 0 01-.259-.034A10.021 10.021 0 014 7c0-.262.012-.522.034-.772a1 1 0 111.992.185C6.008 6.603 6 6.801 6 7a8.018 8.018 0 005.929 7.734 1 1 0 01-.258 1.966z"/>
  <path fill="#818181" d="M7 20.48a1 1 0 01-.331-1.943 8.008 8.008 0 005.33-7.485 1 1 0 011-.992h.009A1 1 0 0114 11.067a10.013 10.013 0 01-6.669 9.357.985.985 0 01-.331.056z"/>
  <path fill="#818181" d="M13 12.06a.988.988 0 01-.444-.105 9.94 9.94 0 01-5.501-7.934 1 1 0 01.893-1.096 1.015 1.015 0 011.097.893 7.951 7.951 0 004.4 6.346 1 1 0 01-.446 1.896z"/>
  <path fill="#818181" d="M20.959 12.19a.993.993 0 01-.498-.133 8.04 8.04 0 00-7.379-.286 1 1 0 11-.863-1.802 10.056 10.056 0 019.24.355 1 1 0 01-.5 1.866z"/>
</svg>
