<svg xmlns="http://www.w3.org/2000/svg" width="24" height="24" fill="none" viewBox="0 0 24 24">
  <path fill="#818181" d="M12 20a1 1 0 01-.625-.219L6.649 16H3a1 1 0 01-1-1V9a1 1 0 011-1h3.65l4.725-3.781A1 1 0 0113 5v14a1 1 0 01-1 1z"/>
  <path fill="#CCC" d="M18.501 18.362a1 1 0 01-.643-1.765 6.003 6.003 0 00.385-8.84 1 1 0 011.414-1.414 8 8 0 01-.514 11.785.995.995 0 01-.642.234z"/>
  <path fill="#B3B3B3" d="M15.93 15.298a1 1 0 01-.644-1.767A1.992 1.992 0 0016 12a2.015 2.015 0 00-.586-1.414 1 1 0 011.414-1.414 4 4 0 01-.257 5.893 1 1 0 01-.641.233z"/>
</svg>
