<svg xmlns="http://www.w3.org/2000/svg" width="24" height="24" fill="none" viewBox="0 0 24 24">
  <path fill="#818181" d="M12 20a1 1 0 01-.625-.219L6.649 16H3a1 1 0 01-1-1V9a1 1 0 011-1h3.65l4.725-3.781A1 1 0 0113 5v14a1 1 0 01-1 1z"/>
  <path fill="#CCC" d="M14.999 19.92a1 1 0 01-.139-1.99 5.99 5.99 0 000-11.86 1 1 0 01.28-1.98 7.99 7.99 0 010 15.82.988.988 0 01-.141.01z"/>
  <path fill="#B3B3B3" d="M15 15.82a1 1 0 01-.324-1.946 1.988 1.988 0 000-3.748 1 1 0 11.648-1.893 3.989 3.989 0 010 7.534 1.015 1.015 0 01-.324.053z"/>
</svg>
