<svg xmlns="http://www.w3.org/2000/svg" width="24" height="24" fill="none" viewBox="0 0 24 24">
  <path fill="#CCC" d="M5 16H3v4h2v-4z"/>
  <path fill="#B3B3B3" d="M11 16H5v4h6v-4z"/>
  <path fill="#9A9A9A" d="M17 16h-6v4h6v-4z"/>
  <path fill="#CCC" d="M21 16h-4v4h4v-4zM5 8H3v4h2V8z"/>
  <path fill="#B3B3B3" d="M11 8H5v4h6V8z"/>
  <path fill="#9A9A9A" d="M17 8h-6v4h6V8z"/>
  <path fill="#CCC" d="M21 8h-4v4h4V8z"/>
  <path fill="#9A9A9A" d="M7 4H3v4h4V4z"/>
  <path fill="#CCC" d="M13 4H7v4h6V4z"/>
  <path fill="#B3B3B3" d="M19 4h-6v4h6V4z"/>
  <path fill="#CCC" d="M21 4h-2v4h2V4z"/>
  <path fill="#9A9A9A" d="M7 12H3v4h4v-4z"/>
  <path fill="#CCC" d="M13 12H7v4h6v-4z"/>
  <path fill="#B3B3B3" d="M19 12h-6v4h6v-4z"/>
  <path fill="#9A9A9A" d="M21 12h-2v4h2v-4z"/>
  <path fill="#818181" d="M7 9a1 1 0 01-1-1V4a1 1 0 012 0v4a1 1 0 01-1 1zm6 0a1 1 0 01-1-1V4a1 1 0 012 0v4a1 1 0 01-1 1zm6 0a1 1 0 01-1-1V4a1 1 0 012 0v4a1 1 0 01-1 1zM5 13a1 1 0 01-1-1V8a1 1 0 012 0v4a1 1 0 01-1 1zm6 0a1 1 0 01-1-1V8a1 1 0 012 0v4a1 1 0 01-1 1zm6 0a1 1 0 01-1-1V8a1 1 0 012 0v4a1 1 0 01-1 1zM7 17a1 1 0 01-1-1v-4a1 1 0 112 0v4a1 1 0 01-1 1zm6 0a1 1 0 01-1-1v-4a1 1 0 012 0v4a1 1 0 01-1 1z"/>
  <path fill="#818181" d="M7 17a1 1 0 01-1-1v-4a1 1 0 112 0v4a1 1 0 01-1 1zm12 0a1 1 0 01-1-1v-4a1 1 0 012 0v4a1 1 0 01-1 1zm-8 4a1 1 0 01-1-1v-4a1 1 0 012 0v4a1 1 0 01-1 1zm-6 0a1 1 0 01-1-1v-4a1 1 0 112 0v4a1 1 0 01-1 1zm12 0a1 1 0 01-1-1v-4a1 1 0 012 0v4a1 1 0 01-1 1zm4-12H3a1 1 0 010-2h18a1 1 0 110 2z"/>
  <path fill="#818181" d="M21 21H3a1 1 0 010-2h18a1 1 0 010 2zm0-16H3a1 1 0 010-2h18a1 1 0 110 2zm0 8H3a1 1 0 010-2h18a1 1 0 010 2zm0 4H3a1 1 0 010-2h18a1 1 0 010 2z"/>
</svg>
