<svg xmlns="http://www.w3.org/2000/svg" width="24" height="24" fill="none" viewBox="0 0 24 24">
  <path fill="#B3B3B3" d="M15.15 22h-6.3a3.012 3.012 0 01-2.987-2.773l-.43-5.56a1 1 0 011.156-1.065 2.625 2.625 0 001.96-.903 1.036 1.036 0 011.502 0 2.642 2.642 0 003.898 0 1.037 1.037 0 011.502 0 2.607 2.607 0 001.95.9 1.01 1.01 0 011.166 1.068l-.43 5.56A3.012 3.012 0 0115.15 22z"/>
  <path fill="#818181" d="M15.148 22H8.853a3.014 3.014 0 01-2.992-2.77L5.003 8.077a1 1 0 01.92-1.074.987.987 0 011.074.92l.858 11.153a1.004 1.004 0 00.998.924h6.295a1.005 1.005 0 00.997-.923l.858-11.154a.99.99 0 011.074-.92 1 1 0 01.92 1.074L18.14 19.23A3.014 3.014 0 0115.148 22z"/>
  <path fill="#B3B3B3" d="M12 9a2.44 2.44 0 01-2.438-2.438 4.675 4.675 0 012.016-3.433.752.752 0 01.839-.003 4.625 4.625 0 012.02 3.436A2.44 2.44 0 0112 9z"/>
</svg>
