<svg xmlns="http://www.w3.org/2000/svg" width="24" height="24" fill="none" viewBox="0 0 24 24">
  <path fill="#CCC" d="M15.83 8H6.17a1 1 0 01-.706-1.708l3.42-3.41a3.05 3.05 0 014.238.006l3.414 3.404A1 1 0 0115.83 8z"/>
  <path fill="#B3B3B3" d="M15.962 22.005a2.945 2.945 0 01-2.464-1.35l-4.27-6.41a1 1 0 111.664-1.11l4.27 6.41a1 1 0 001.821-.723l-.96-5.706a1 1 0 111.98-.284l.953 5.662a2.953 2.953 0 01-1.861 3.292c-.36.143-.745.218-1.133.219zM5.889 18.21a1 1 0 01-.893-1.45l1.64-3.259a1 1 0 011.788.898l-1.64 3.26a1 1 0 01-.895.551z"/>
  <path fill="#B3B3B3" d="M17.001 14a1 1 0 01-.981-1.196l2-10A1 1 0 0119 2h2a1 1 0 110 2h-1.18l-1.84 9.196a1 1 0 01-.979.804z"/>
  <path fill="#818181" d="M7 15a1 1 0 01-.868-.504l-4-7A1 1 0 013 6h15.2a1 1 0 01.98 1.196l-1.2 6a1.001 1.001 0 01-.881.8l-9.998 1A1.13 1.13 0 017 15zm-2 7a3 3 0 110-6 3 3 0 010 6z"/>
</svg>
