<svg xmlns="http://www.w3.org/2000/svg" width="24" height="24" fill="none" viewBox="0 0 24 24">
  <path fill="#818181" d="M9.5 22.5c-3.3 0-6-2.7-6-6 0-2.4 1.4-4.5 3.6-5.5.5-.2 1.1 0 1.3.5.2.5 0 1.1-.5 1.3-2 .9-2.9 3.2-2.1 5.3.6 1.5 2.1 2.4 3.7 2.4 1.3 0 2.4-.6 3.2-1.6.3-.4 1-.5 1.4-.2.4.3.5 1 .2 1.4-1.1 1.5-2.9 2.4-4.8 2.4z"/>
  <path fill="#B3B3B3" d="M19.5 20.5h-1v-5c0-.6-.4-1-1-1h-5v-2h5c.6 0 1-.4 1-1s-.4-1-1-1h-5v-2c0-.6-.4-1-1-1s-1 .4-1 1v7c0 .1 0 .2.1.3v.1c.1.2.3.4.5.5.1.1.3.1.4.1h5v5c0 .1 0 .2.1.3v.1c.1.2.3.4.5.5.1.1.3.1.4.1h2c.6 0 1-.4 1-1s-.4-1-1-1zM12 6.5a2 2 0 100-4 2 2 0 000 4z"/>
</svg>
