<svg xmlns="http://www.w3.org/2000/svg" width="24" height="24" fill="none" viewBox="0 0 24 24">
  <g clip-path="url(#clip0)">
    <path fill="#979797" fill-opacity=".4" d="M9.083 5.069c2.213.18 4.924-.317 7.634.18 2.8.497 4.426 2.259 5.646 4.743 1.535 3.116.045 5.465-1.807 7.543-2.033 2.303-4.833 2.755-7.724 1.716-3.026-1.084-4.652-3.433-4.697-6.594 0-1.536-.633-1.807-1.852-2.078-1.49-.316-2.981-.948-4.472-1.174C-.357 9.134.005 7.643.05 6.288c.045-1.671 1.355-1.22 2.303-1.265 2.078 0 4.156.046 6.73.046z"/>
    <path fill="#979797" fill-opacity=".4" d="M15.407 18.258c-4.562-.136-7.092-3.975-5.466-8.266.181-.542 1.084-1.174.136-1.671-.768-.407-.858.542-1.22.903-.09.09-.135.271-.225.361-.452.271-6.956-1.445-7.137-1.897-.27-.813 0-1.31.903-1.264 4.337.135 8.673-.317 12.963.225.633 1.04 1.265 2.033 2.35 2.846 1.941 1.445 1.941 4.472-.046 5.917-1.039.768-1.626 1.761-2.258 2.845z"/>
    <path fill="#818181" d="M15.407 18.257c-.045-1.4-.09-2.439 1.761-3.116 2.123-.768 2.033-4.833-.135-5.51-1.852-.588-1.581-1.717-1.626-2.982 3.478-.045 5.872 2.259 5.962 5.646.045 3.478-2.304 5.827-5.962 5.962z"/>
  </g>
  <defs>
    <clipPath id="clip0">
      <path fill="#fff" d="M0 0h24v24H0z"/>
    </clipPath>
  </defs>
</svg>
