<svg xmlns="http://www.w3.org/2000/svg" width="24" height="24" fill="none" viewBox="0 0 24 24">
  <path fill="#B3B3B3" d="M17.9 22h-13c-1.7 0-3-1.3-3-3v-2c0-1.7 1.3-3 3-3h13c1.7 0 3 1.3 3 3v2c0 1.7-1.3 3-3 3z"/>
  <path fill="#818181" d="M16.9 14v-3c0-.6-.4-1-1-1s-1 .4-1 1v3h2zM5.9 19a1 1 0 100-2 1 1 0 000 2zM8.9 19a1 1 0 100-2 1 1 0 000 2zM11.9 19a1 1 0 100-2 1 1 0 000 2z"/>
  <path fill="#B3B3B3" d="M17.6 9c-.4 0-.7-.2-.9-.5-.3-.5-1-.6-1.4-.3l-.3.3c-.3.5-.9.6-1.4.4-.4-.3-.6-.9-.3-1.4.8-1.4 2.7-1.9 4.1-1.1.5.3.8.6 1.1 1.1.3.5.1 1.1-.4 1.4-.1.1-.3.1-.5.1z"/>
  <path fill="#CCC" d="M10.7 7c-.6 0-1-.4-1-1 0-.2 0-.3.1-.5C11.7 2.2 16 1 19.4 2.9c1.1.6 1.9 1.5 2.6 2.6.3.5.1 1.1-.4 1.4-.5.3-1.1.1-1.4-.4-1.4-2.4-4.4-3.2-6.8-1.8-.8.4-1.4 1.1-1.8 1.8-.2.3-.5.5-.9.5z"/>
</svg>
