<svg xmlns="http://www.w3.org/2000/svg" width="24" height="24" fill="none" viewBox="0 0 24 24">
  <path fill="#818181" d="M12 21a3 3 0 110-5.999A3 3 0 0112 21z"/>
  <path fill="#9A9A9A" d="M16.242 14.758a.995.995 0 01-.707-.293 5 5 0 00-7.07 0 1 1 0 11-1.414-1.414 6.997 6.997 0 019.898 0 1 1 0 01-.707 1.707z"/>
  <path fill="#B3B3B3" d="M19.071 11.929a.995.995 0 01-.707-.293 9.002 9.002 0 00-12.728 0 1 1 0 11-1.414-1.414 11 11 0 0115.556 0 1 1 0 01-.706 1.707z"/>
  <path fill="#CCC" d="M21.9 9.1a.996.996 0 01-.707-.292 13 13 0 00-18.385 0 1 1 0 01-1.414-1.414 15 15 0 0121.213 0A1 1 0 0121.9 9.1z"/>
</svg>
