<svg xmlns="http://www.w3.org/2000/svg" width="24" height="24" fill="none" viewBox="0 0 24 24">
  <path fill="#CCC" d="M14 9a1 1 0 100-2 1 1 0 000 2zM3 21a1.032 1.032 0 01-.71-.29A.99.99 0 012 20c.004-.265.107-.518.29-.71.401-.37 1.019-.37 1.42 0 .183.192.286.445.29.71a.994.994 0 01-.29.71c-.19.184-.445.288-.71.29zm11 2a1 1 0 01-1-.999V22a1.014 1.014 0 00-1-1H7a1 1 0 110-2h5a3.003 3.003 0 013 3 1 1 0 01-.999 1zm6-14h-2a1 1 0 110-2h2c.55-.007.993-.45 1-1a1 1 0 112 0 3.003 3.003 0 01-3 3zm0 12a1 1 0 110-2 1 1 0 000-2h-8a1 1 0 110-2h8a3 3 0 010 6zM8 17H3a1 1 0 110-2h5a1 1 0 110 2z"/>
  <path fill="#B3B3B3" d="M8 15a1 1 0 01.001 2H12A1 1 0 0112 15h5.839a8.037 8.037 0 001.146-2.951 1 1 0 00-1.306-1.116 5.97 5.97 0 01-1.92.317A6.061 6.061 0 019.7 5.2 7.04 7.04 0 019.8 4.152a1 1 0 00-1.308-1.1A8.042 8.042 0 004.263 15H8z"/>
</svg>
