<svg xmlns="http://www.w3.org/2000/svg" width="24" height="24" fill="none" viewBox="0 0 24 24">
  <path fill="#818181" d="M3.5 9a1 1 0 100-2 1 1 0 000 2zM20.5 9a1 1 0 100-2 1 1 0 000 2zM14.5 9H7.494a1 1 0 010-2H14.5a1 1 0 10-.501-1.866 1 1 0 11-.998-1.733A3 3 0 1114.5 9zm-2 12a3.008 3.008 0 01-1.499-.401.999.999 0 11.998-1.733A1.001 1.001 0 1012.5 17H8.494a1 1 0 010-2H12.5a3 3 0 010 6zm-2-8H3.494a1 1 0 010-2H10.5a1 1 0 010 2zm-6 4H3.494a1 1 0 010-2H4.5a1 1 0 010 2zm14 0a1 1 0 010-2 1 1 0 000-2h-4.006a1 1 0 010-2H18.5a3 3 0 010 6z"/>
</svg>
