<svg xmlns="http://www.w3.org/2000/svg" width="24" height="24" fill="none" viewBox="0 0 24 24">
  <path fill="#B3B3B3" d="M5.75 16.976l-.078-.003a3.995 3.995 0 01-.616-7.866A7 7 0 0118.42 7.212a4.993 4.993 0 01.138 9.534c-.095.03-.195.047-.294.049l-12.5.18H5.75z"/>
  <path fill="#818181" d="M16.962 17.005a3.673 3.673 0 01-1.899-.526 1.134 1.134 0 00-1.203 0 3.743 3.743 0 01-3.796 0 1.134 1.134 0 00-1.204 0 3.673 3.673 0 01-1.898.526 1 1 0 010-2c.305 0 .604-.083.865-.24a3.119 3.119 0 013.27 0 1.714 1.714 0 001.73 0 3.118 3.118 0 013.27 0c.261.157.56.24.865.24a1 1 0 110 2zm0 4a3.673 3.673 0 01-1.899-.526 1.134 1.134 0 00-1.203 0 3.743 3.743 0 01-3.796 0 1.134 1.134 0 00-1.204 0 3.673 3.673 0 01-1.898.526 1 1 0 010-2c.305 0 .604-.082.865-.24a3.119 3.119 0 013.27 0 1.714 1.714 0 001.73 0 3.118 3.118 0 013.27 0c.261.157.56.24.865.24a1 1 0 110 2z"/>
</svg>
