<svg xmlns="http://www.w3.org/2000/svg" width="24" height="24" fill="none" viewBox="0 0 24 24">
  <path fill="#B3B3B3" d="M18.08 5L15 4.74l-1-.08-4-.34-1-.08L6.08 4a1.013 1.013 0 00-.76.26c-.203.193-.318.46-.32.74v8c.002.28.117.547.32.74.187.168.429.26.68.26h.08L9 13.76l1-.08 4-.34 1-.08 3.08-.26a1.01 1.01 0 00.92-1V6a1.01 1.01 0 00-.92-1z"/>
  <path fill="#818181" d="M6 22a1 1 0 01-1-1V3a1 1 0 012 0v18a1 1 0 01-1 1z"/>
  <path fill="#CCC" d="M10 13.68l1-.085v-9.19l-1-.085-1-.08v9.52l1-.08zM14 4.66l-1-.085v8.85l1-.085 1-.08V4.74l-1-.08zM18.08 5L17 4.909v8.182L18.08 13a1.01 1.01 0 00.92-1V6a1.01 1.01 0 00-.92-1z"/>
</svg>
