<svg xmlns="http://www.w3.org/2000/svg" width="24" height="24" fill="none" viewBox="0 0 24 24">
  <path fill="#CCC" d="M12 22c5.523 0 10-4.477 10-10S17.523 2 12 2 2 6.477 2 12s4.477 10 10 10z"/>
  <path fill="#818181" d="M12 2a10 10 0 1010 10A10.011 10.011 0 0012 2zM3.01 12a8.956 8.956 0 01.778-3.66l4.288 11.751A8.991 8.991 0 013.01 12zM12 20.99a8.99 8.99 0 01-2.54-.366l2.698-7.839 2.763 7.571c.018.043.04.085.065.124-.96.338-1.97.51-2.986.51zm1.239-13.207c.541-.028 1.029-.085 1.029-.085a.372.372 0 00-.057-.741s-1.457.114-2.397.114c-.883 0-2.368-.114-2.368-.114a.372.372 0 00-.057.74s.459.058.943.086l1.401 3.838-1.968 5.901-3.274-9.739c.542-.028 1.03-.085 1.03-.085a.372.372 0 00-.058-.741s-1.456.114-2.396.114c-.17 0-.368-.004-.579-.01a8.988 8.988 0 0113.583-1.693c-.039-.002-.076-.007-.116-.007a1.557 1.557 0 00-1.51 1.596c.094.77.4 1.5.883 2.109.473.741.73 1.6.741 2.48a10.882 10.882 0 01-.684 2.906l-.897 2.996-3.25-9.665zm3.28 11.987l2.747-7.94a8.489 8.489 0 00.684-3.22c0-.31-.02-.618-.06-.925a8.992 8.992 0 01-3.37 12.085z"/>
</svg>
