<svg xmlns="http://www.w3.org/2000/svg" width="24" height="24" fill="none" viewBox="0 0 24 24">
  <path fill="#CCC" d="M12 2.6a9.4 9.4 0 100 18.8 9.4 9.4 0 000-18.8z"/>
  <path fill="#818181" d="M12.146 12.729l-2.5 7.265a8.337 8.337 0 005.121-.133.74.74 0 01-.06-.115l-2.56-7.017zm-8.48-.73a8.334 8.334 0 004.698 7.5L4.388 8.61a8.3 8.3 0 00-.721 3.39z"/>
  <path fill="#818181" d="M17.626 11.58a4.388 4.388 0 00-.687-2.299 3.903 3.903 0 01-.819-1.954 1.443 1.443 0 011.4-1.48c.037 0 .072.005.108.007a8.332 8.332 0 00-12.59 1.569c.195.006.38.01.536.01.871 0 2.22-.106 2.22-.106a.344.344 0 01.054.686s-.452.053-.954.08l3.035 9.026 1.824-5.47-1.299-3.556c-.449-.027-.874-.08-.874-.08a.344.344 0 01.053-.686s1.376.106 2.195.106c.871 0 2.221-.106 2.221-.106a.345.345 0 01.053.686s-.452.053-.953.08l3.011 8.957.86-2.724c.335-.88.54-1.806.606-2.747z"/>
  <path fill="#818181" d="M12 2a10 10 0 100 20 10 10 0 000-20zm7.795 15.255a9.427 9.427 0 01-4.136 3.407 9.388 9.388 0 01-8.914-.867 9.432 9.432 0 01-3.407-4.136 9.386 9.386 0 01.867-8.914 9.427 9.427 0 014.136-3.407 9.388 9.388 0 018.914.867 9.432 9.432 0 013.407 4.136 9.387 9.387 0 01-.867 8.914z"/>
  <path fill="#818181" d="M19.369 8.859a7.867 7.867 0 01-.634 2.985l-2.545 7.358a8.334 8.334 0 003.123-11.2c.038.284.056.57.056.857z"/>
</svg>
