<svg xmlns="http://www.w3.org/2000/svg" width="24" height="24" fill="none" viewBox="0 0 24 24">
  <path fill="#818181" d="M13.414 12l2.293-2.293a1 1 0 00-1.414-1.414L12 10.586 9.707 8.293a1 1 0 00-1.414 1.414L10.586 12l-2.293 2.293a.999.999 0 101.414 1.414L12 13.414l2.293 2.293a1 1 0 001.414-1.414L13.414 12z"/>
  <path fill="#B3B3B3" d="M8 5a1 1 0 000-2 5.006 5.006 0 00-5 5v8a5.006 5.006 0 005 5 1 1 0 000-2 3.003 3.003 0 01-3-3V8a3.003 3.003 0 013-3zm8-2a1 1 0 100 2 3.003 3.003 0 013 3v8a3.004 3.004 0 01-3 3 1 1 0 000 2 5.006 5.006 0 005-5V8a5.006 5.006 0 00-5-5z"/>
</svg>
