<svg xmlns="http://www.w3.org/2000/svg" width="24" height="24" fill="none" viewBox="0 0 24 24">
  <path fill="#818181" d="M12.414 11l2.293-2.293a1 1 0 00-1.414-1.414L11 9.586 8.707 7.293a1 1 0 00-1.414 1.414L9.586 11l-2.293 2.293a.999.999 0 101.414 1.414L11 12.414l2.293 2.293a1 1 0 001.414-1.414L12.414 11zM21 18h-1v-1a1 1 0 10-2 0v1h-1a1 1 0 100 2h1v1a1 1 0 002 0v-1h1a1 1 0 000-2z"/>
  <path fill="#B3B3B3" d="M7 20a5.006 5.006 0 01-5-5V7a5.006 5.006 0 015-5 1 1 0 010 2 3.003 3.003 0 00-3 3v8a3.003 3.003 0 003 3 1 1 0 010 2zm12-6a1 1 0 01-1-1V7a3.003 3.003 0 00-3-3 1 1 0 110-2 5.006 5.006 0 015 5v6a1 1 0 01-1 1z"/>
</svg>
