<svg width="24" height="24" viewBox="0 0 24 24" fill="none" xmlns="http://www.w3.org/2000/svg">
<path d="M22 12C22 12.219 21.913 12.429 21.7582 12.5838C21.6033 12.7387 21.3933 12.8257 21.1743 12.8257H12.8257V21.1743C12.8257 21.3933 12.7387 21.6033 12.5838 21.7582C12.429 21.913 12.219 22 12 22C11.781 22 11.571 21.913 11.4162 21.7582C11.2613 21.6033 11.1743 21.3933 11.1743 21.1743V12.8257H2.82565C2.60667 12.8257 2.39669 12.7387 2.24184 12.5838C2.087 12.429 2 12.219 2 12C2 11.781 2.087 11.571 2.24184 11.4161C2.39669 11.2613 2.60667 11.1743 2.82565 11.1743H11.1743V2.82568C11.1743 2.71725 11.1956 2.60988 11.2371 2.5097C11.2786 2.40952 11.3395 2.31849 11.4162 2.24182C11.4928 2.16514 11.5838 2.10432 11.684 2.06283C11.7842 2.02133 11.8915 2 12 2C12.1084 2 12.2158 2.02133 12.316 2.06283C12.4161 2.10432 12.5072 2.16514 12.5838 2.24182C12.6605 2.31849 12.7213 2.40952 12.7628 2.5097C12.8043 2.60988 12.8257 2.71725 12.8257 2.82568V11.1743H21.1743C21.2827 11.1743 21.3901 11.1956 21.4903 11.2371C21.5905 11.2786 21.6815 11.3395 21.7582 11.4161C21.8348 11.4928 21.8956 11.5838 21.9371 11.684C21.9786 11.7842 22 11.8916 22 12Z" fill="#1A1A1A"/>
</svg>
