<svg width="24" height="24" viewBox="0 0 24 24" fill="none" xmlns="http://www.w3.org/2000/svg">
<path d="M3.82841 9.09131C1.96841 12.3213 3.14841 17.2313 5.20841 20.2013C6.20841 21.6913 7.2784 23.0213 8.6984 23.0213H8.78837C9.35177 22.9883 9.90274 22.842 10.4084 22.5913C11.0061 22.298 11.6626 22.1441 12.3284 22.1413C12.9647 22.1403 13.592 22.2912 14.1584 22.5813C14.7012 22.8551 15.3004 22.9989 15.9084 23.0013C17.5084 23.0013 18.4984 21.5313 19.3684 20.2613C20.018 19.3022 20.5265 18.2549 20.8784 17.1513C20.8864 17.1303 20.8901 17.1079 20.8894 17.0854C20.8887 17.063 20.8836 17.0409 20.8743 17.0204C20.865 17 20.8517 16.9816 20.8352 16.9663C20.8188 16.951 20.7995 16.9391 20.7784 16.9313C19.9519 16.5804 19.2467 15.9942 18.7506 15.2456C18.2546 14.4971 17.9895 13.6193 17.9884 12.7213C17.9901 11.919 18.1969 11.1304 18.5889 10.4304C18.9809 9.73033 19.5452 9.14203 20.2284 8.72128C20.2586 8.68666 20.2753 8.64225 20.2753 8.59628C20.2753 8.55031 20.2586 8.5059 20.2284 8.47128C19.7643 7.80823 19.1523 7.26242 18.4406 6.87708C17.7289 6.49173 16.9373 6.27749 16.1284 6.25131H15.7684C14.8794 6.30271 14.0077 6.51976 13.1984 6.8913C12.8071 7.079 12.3886 7.20386 11.9584 7.26129C11.5175 7.2093 11.0883 7.08426 10.6884 6.8913C9.98195 6.55857 9.21804 6.36504 8.43839 6.32129C7.49734 6.35067 6.57953 6.6207 5.7725 7.10562C4.96547 7.59054 4.29614 8.2742 3.82841 9.09131Z" fill="#333333"/>
<path d="M16.1984 1.00131C14.9139 1.11853 13.7244 1.7276 12.8784 2.70129C12.4526 3.17114 12.1273 3.72312 11.9226 4.3233C11.718 4.92348 11.6383 5.55915 11.6884 6.19128C11.6927 6.23223 11.711 6.27047 11.7401 6.29959C11.7692 6.3287 11.8074 6.34694 11.8484 6.35128H12.0784C12.6862 6.32155 13.2806 6.16257 13.8221 5.88494C14.3635 5.60732 14.8395 5.21744 15.2184 4.7413C16.0626 3.74354 16.4826 2.45489 16.3884 1.1513C16.3859 1.12892 16.379 1.10725 16.3681 1.08755C16.3572 1.06785 16.3424 1.05051 16.3247 1.03656C16.3071 1.0226 16.2868 1.0123 16.2651 1.00625C16.2434 1.0002 16.2208 0.998521 16.1984 1.00131Z" fill="#333333"/>
</svg>
