<svg width="24" height="24" viewBox="0 0 24 24" fill="none" xmlns="http://www.w3.org/2000/svg">
<path fill-rule="evenodd" clip-rule="evenodd" d="M8.00001 5.9C6.84021 5.9 5.90001 6.8402 5.90001 8V18H4.10001V8C4.10001 5.84609 5.8461 4.1 8.00001 4.1H16C18.1539 4.1 19.9 5.84609 19.9 8V18H18.1V8C18.1 6.8402 17.1598 5.9 16 5.9H15.6487L15.3538 6.78461C15.2313 7.15211 14.8874 7.4 14.5 7.4H9.50001C9.11262 7.4 8.76869 7.15211 8.64619 6.78461L8.35132 5.9H8.00001Z" fill="#333333"/>
<path fill-rule="evenodd" clip-rule="evenodd" d="M5.58093 11.725C5.73283 12.1982 5.4723 12.705 4.99903 12.8569C3.91389 13.2052 3.09326 13.6153 2.56291 14.0336C2.02348 14.4589 1.90001 14.7934 1.90001 15C1.90001 15.1913 2.00381 15.4899 2.45117 15.8745C2.89561 16.2566 3.59138 16.6415 4.5294 16.9826C5.90694 17.4835 7.70428 17.8532 9.74004 18.0128L8.36361 16.6364C8.01214 16.2849 8.01214 15.7151 8.36361 15.3636C8.71508 15.0121 9.28493 15.0121 9.6364 15.3636L12.6364 18.3636C12.8152 18.5424 12.9105 18.7882 12.8991 19.0408C12.8876 19.2934 12.7704 19.5295 12.5762 19.6914L9.57617 22.1914C9.19432 22.5096 8.62681 22.458 8.30861 22.0762C7.9904 21.6943 8.04199 21.1268 8.42384 20.8086L9.62317 19.8092C7.44466 19.6401 5.47564 19.242 3.91426 18.6742C2.86167 18.2915 1.94653 17.8144 1.27771 17.2394C0.611813 16.6669 0.100006 15.9133 0.100006 15C0.100006 14.0119 0.696695 13.2129 1.44834 12.6201C2.20907 12.0203 3.25043 11.5277 4.44895 11.1431C4.92223 10.9912 5.42903 11.2517 5.58093 11.725ZM18.4191 11.725C18.571 11.2517 19.0778 10.9912 19.5511 11.1431C20.7496 11.5277 21.7909 12.0203 22.5517 12.6201C23.3033 13.2129 23.9 14.0119 23.9 15C23.9 16.3921 22.7401 17.4064 21.4535 18.079C20.0944 18.7895 18.2358 19.3188 16.1265 19.6184C15.6344 19.6883 15.1788 19.346 15.1089 18.8539C15.0391 18.3617 15.3813 17.9061 15.8735 17.8363C17.8616 17.5539 19.503 17.0676 20.6196 16.4839C21.8085 15.8623 22.1 15.3039 22.1 15C22.1 14.7934 21.9765 14.4589 21.4371 14.0336C20.9068 13.6153 20.0861 13.2052 19.001 12.8569C18.5277 12.705 18.2672 12.1982 18.4191 11.725Z" fill="#333333"/>
</svg>
