<svg width="24" height="24" viewBox="0 0 24 24" fill="none" xmlns="http://www.w3.org/2000/svg">
<path fill-rule="evenodd" clip-rule="evenodd" d="M14.9906 6.3636C15.3421 6.01213 15.9119 6.01213 16.2634 6.3636L20.7634 10.8636C20.8463 10.9465 20.9131 11.0455 20.9587 11.1555C20.9971 11.2481 21.0205 11.3485 21.0258 11.4537C21.0266 11.469 21.027 11.4845 21.027 11.5C21.027 11.7476 20.9271 11.9718 20.7653 12.1345C20.7647 12.1351 20.764 12.1358 20.7634 12.1364C20.7633 12.1365 20.7635 12.1363 20.7634 12.1364L16.2634 16.6364C15.9119 16.9879 15.3421 16.9879 14.9906 16.6364C14.6391 16.2849 14.6391 15.7151 14.9906 15.3636L17.9542 12.4H4.127C3.62995 12.4 3.22701 11.9971 3.22701 11.5C3.22701 11.0029 3.62995 10.6 4.127 10.6H17.9542L14.9906 7.6364C14.6391 7.28492 14.6391 6.71508 14.9906 6.3636Z" fill="#333333"/>
</svg>
