<svg width="24" height="24" viewBox="0 0 24 24" fill="none" xmlns="http://www.w3.org/2000/svg">
<path fill-rule="evenodd" clip-rule="evenodd" d="M12 3.2865C12.2387 3.2865 12.4676 3.38132 12.6364 3.5501L17.1364 8.0501C17.4879 8.40157 17.4879 8.97142 17.1364 9.3229C16.7849 9.67437 16.2151 9.67437 15.8636 9.3229L12.9 6.35929V20.1865C12.9 20.6836 12.4971 21.0865 12 21.0865C11.5029 21.0865 11.1 20.6836 11.1 20.1865V6.35929L8.1364 9.3229C7.78493 9.67437 7.21508 9.67437 6.86361 9.3229C6.51214 8.97142 6.51214 8.40158 6.86361 8.0501L11.3636 3.5501C11.5324 3.38132 11.7613 3.2865 12 3.2865Z" fill="#333333"/>
</svg>
