<svg width="24" height="24" viewBox="0 0 24 24" fill="none" xmlns="http://www.w3.org/2000/svg">
<path d="M12.185 3.0245C6.815 3.0245 3.11499 6.67451 3.11499 11.9745C3.11499 17.2745 6.775 20.9745 12.375 20.9745C13.4147 20.9867 14.4511 20.8555 15.455 20.5845V18.8645C14.5054 19.1322 13.5213 19.2569 12.535 19.2345C7.96501 19.2345 5.07502 16.4645 5.07502 12.0845C5.07502 7.70449 7.965 4.7745 12.125 4.7745C16.285 4.7745 18.895 7.3245 18.895 11.2145C18.895 13.4245 18.195 14.8445 17.105 14.8445C16.455 14.8445 16.105 14.3945 16.105 13.6345V7.88451H13.935V9.17452H13.745C13.5237 8.69861 13.166 8.29908 12.7174 8.02669C12.2688 7.75431 11.7494 7.6213 11.225 7.64449C9.08501 7.64449 7.625 9.43452 7.625 12.0445C7.625 14.6545 9.105 16.5845 11.335 16.5845C11.8849 16.6211 12.432 16.4807 12.8963 16.1837C13.3606 15.8868 13.7176 15.449 13.915 14.9345H14.105C14.2693 15.4688 14.6149 15.9291 15.0823 16.2358C15.5496 16.5425 16.1094 16.6765 16.665 16.6145C19.265 16.6145 20.885 14.4645 20.885 11.0545C20.825 6.26453 17.305 3.0245 12.185 3.0245ZM11.835 14.5545C10.705 14.5545 10.025 13.6145 10.025 12.0545C10.025 10.4945 10.705 9.55453 11.845 9.55453C12.985 9.55453 13.705 10.5045 13.705 12.0545C13.705 13.6045 12.955 14.5545 11.805 14.5545H11.835Z" fill="#1A1A1A"/>
</svg>
