<svg width="24" height="24" viewBox="0 0 24 24" fill="none" xmlns="http://www.w3.org/2000/svg">
<path fill-rule="evenodd" clip-rule="evenodd" d="M9.3229 5.3001C9.67437 5.65157 9.67437 6.22142 9.3229 6.5729L6.35929 9.5365H16.1865C17.4861 9.5365 18.7324 10.0527 19.6513 10.9717C20.5703 11.8906 21.0865 13.1369 21.0865 14.4365C21.0865 15.7361 20.5703 16.9824 19.6513 17.9013C18.7324 18.8203 17.4861 19.3365 16.1865 19.3365H14.1865C13.6894 19.3365 13.2865 18.9336 13.2865 18.4365C13.2865 17.9394 13.6894 17.5365 14.1865 17.5365H16.1865C17.0087 17.5365 17.7972 17.2099 18.3785 16.6285C18.9599 16.0472 19.2865 15.2587 19.2865 14.4365C19.2865 13.6143 18.9599 12.8258 18.3785 12.2445C17.7972 11.6631 17.0087 11.3365 16.1865 11.3365H6.35929L9.3229 14.3001C9.67437 14.6516 9.67437 15.2214 9.3229 15.5729C8.97142 15.9244 8.40158 15.9244 8.0501 15.5729L3.5501 11.0729C3.19863 10.7214 3.19863 10.1516 3.5501 9.8001L8.0501 5.3001C8.40158 4.94863 8.97142 4.94863 9.3229 5.3001Z" fill="#333333"/>
</svg>
