<svg width="24" height="25" viewBox="0 0 24 25" fill="none" xmlns="http://www.w3.org/2000/svg">
<path fill-rule="evenodd" clip-rule="evenodd" d="M12.6364 0.363604C12.2849 0.0121319 11.7151 0.0121319 11.3636 0.363604L8.3636 3.3636C8.01213 3.71508 8.01213 4.28492 8.3636 4.6364L11.3636 7.6364C11.7151 7.98787 12.2849 7.98787 12.6364 7.6364C12.9879 7.28492 12.9879 6.71508 12.6364 6.3636L11.1728 4.9H12C13.602 4.9 15.1681 5.37506 16.5001 6.2651C17.8322 7.15514 18.8704 8.42018 19.4834 9.90026C20.0965 11.3803 20.2569 13.009 19.9444 14.5802C19.6318 16.1515 18.8604 17.5948 17.7276 18.7276C16.5948 19.8604 15.1515 20.6318 13.5802 20.9444C12.009 21.2569 10.3803 21.0965 8.90026 20.4834C7.42018 19.8704 6.15513 18.8322 5.26509 17.5001C4.37505 16.1681 3.9 14.602 3.9 13C3.9 12.5029 3.49706 12.1 3 12.1C2.50294 12.1 2.1 12.5029 2.1 13C2.1 14.958 2.68062 16.8721 3.76845 18.5001C4.85628 20.1282 6.40244 21.3971 8.21143 22.1464C10.0204 22.8957 12.011 23.0918 13.9314 22.7098C15.8518 22.3278 17.6158 21.3849 19.0004 20.0004C20.3849 18.6158 21.3278 16.8518 21.7098 14.9314C22.0918 13.011 21.8957 11.0204 21.1464 9.21143C20.3971 7.40245 19.1282 5.85628 17.5001 4.76845C15.8721 3.68062 13.958 3.1 12 3.1H11.1728L12.6364 1.6364C12.9879 1.28492 12.9879 0.715076 12.6364 0.363604Z" fill="#333333"/>
<path d="M10.0529 17V9.66846H8.61342L6.87855 10.9146V12.2466L8.54359 11.0649H8.61342V17H10.0529Z" fill="#333333"/>
<path d="M11.9115 15.1201C11.9598 16.2695 12.975 17.1396 14.5057 17.1396C16.1493 17.1396 17.2665 16.1191 17.2665 14.54C17.2665 13.0146 16.1761 12.1606 14.9139 12.1606C14.0868 12.1606 13.5873 12.5474 13.4422 12.7837H13.367L13.5282 10.8394H16.8583V9.66846H12.368L12.0619 13.9438H13.3295C13.4852 13.6538 13.8827 13.2671 14.5326 13.2671C15.263 13.2671 15.8646 13.7827 15.8646 14.5884C15.8646 15.48 15.2254 15.9956 14.5326 15.9956C13.9256 15.9956 13.3509 15.7002 13.2435 15.1201H11.9115Z" fill="#333333"/>
</svg>
