<svg width="24" height="24" viewBox="0 0 24 24" fill="none" xmlns="http://www.w3.org/2000/svg">
<path d="M19.8855 9.84C19.8479 9.63168 19.738 9.4433 19.5752 9.30796C19.4125 9.17262 19.2072 9.09899 18.9955 9.10001H16.8955V7.00001C16.8955 5.70045 16.3793 4.45409 15.4603 3.53516C14.5414 2.61623 13.295 2.10001 11.9955 2.10001C10.6959 2.10001 9.4496 2.61623 8.53068 3.53516C7.61175 4.45409 7.09549 5.70045 7.09549 7.00001V9.10001H4.9955C4.78553 9.10134 4.58263 9.17602 4.42193 9.31116C4.26122 9.4463 4.15282 9.63337 4.1155 9.84L2.1155 20.84C2.09095 20.9697 2.09525 21.1033 2.12809 21.2312C2.16092 21.3591 2.22149 21.4781 2.3055 21.58C2.39105 21.6794 2.49687 21.7595 2.61588 21.8146C2.73489 21.8698 2.86433 21.8989 2.9955 21.9H20.9955C21.1269 21.9003 21.2568 21.8718 21.376 21.8165C21.4952 21.7612 21.6008 21.6805 21.6855 21.58C21.7725 21.4797 21.8357 21.3611 21.8703 21.2329C21.9049 21.1048 21.9101 20.9704 21.8855 20.84L19.8855 9.84ZM8.8855 7.00001C8.8855 6.59291 8.96569 6.18981 9.12148 5.8137C9.27727 5.43759 9.5056 5.09582 9.79346 4.80796C10.0813 4.5201 10.4231 4.29175 10.7992 4.13596C11.1753 3.98017 11.5784 3.9 11.9855 3.9C12.3926 3.9 12.7957 3.98017 13.1718 4.13596C13.5479 4.29175 13.8897 4.5201 14.1775 4.80796C14.4654 5.09582 14.6937 5.43759 14.8495 5.8137C15.0053 6.18981 15.0855 6.59291 15.0855 7.00001V9.10001H8.8855V7.00001ZM4.0655 20.1L5.73551 10.9H7.0855V13C7.0855 13.2387 7.18033 13.4676 7.34911 13.6364C7.51789 13.8052 7.74681 13.9 7.98551 13.9C8.2242 13.9 8.45311 13.8052 8.62189 13.6364C8.79068 13.4676 8.8855 13.2387 8.8855 13V10.9H15.0855V13C15.0855 13.2387 15.1803 13.4676 15.3491 13.6364C15.5179 13.8052 15.7468 13.9 15.9855 13.9C16.2242 13.9 16.4531 13.8052 16.6219 13.6364C16.7907 13.4676 16.8855 13.2387 16.8855 13V10.9H18.2355L19.9055 20.1H4.0655Z" fill="#333333"/>
</svg>
