<svg width="24" height="24" viewBox="0 0 24 24" fill="none" xmlns="http://www.w3.org/2000/svg">
<path fill-rule="evenodd" clip-rule="evenodd" d="M11.9334 3.75137C11.1791 3.75137 10.4557 4.051 9.92237 4.58436C9.38901 5.11772 9.08938 5.84112 9.08938 6.59541V8.52202H14.7775V6.59541C14.7775 5.84112 14.4778 5.11772 13.9445 4.58436C13.4111 4.051 12.6877 3.75137 11.9334 3.75137ZM16.4288 8.52202V6.59541C16.4288 5.40315 15.9552 4.25971 15.1122 3.41665C14.2691 2.5736 13.1257 2.1 11.9334 2.1C10.7412 2.1 9.59772 2.5736 8.75467 3.41665C7.91161 4.25971 7.438 5.40315 7.438 6.59541V8.52202H5.9701C5.74119 8.52202 5.51453 8.5671 5.30304 8.6547C5.09156 8.7423 4.89939 8.8707 4.73753 9.03256C4.57567 9.19443 4.44727 9.38658 4.35967 9.59806C4.27207 9.80955 4.22699 10.0362 4.22699 10.2651V20.3569C4.22699 20.5858 4.27207 20.8124 4.35967 21.0239C4.44727 21.2354 4.57567 21.4276 4.73753 21.5895C4.89939 21.7513 5.09156 21.8797 5.30304 21.9673C5.51453 22.0549 5.74119 22.1 5.9701 22.1H17.8967C18.359 22.1 18.8024 21.9164 19.1293 21.5895C19.4562 21.2626 19.6398 20.8192 19.6398 20.3569V10.2651C19.6398 9.80283 19.4562 9.35946 19.1293 9.03256C18.8024 8.70566 18.359 8.52202 17.8967 8.52202H16.4288ZM5.9701 10.1734C5.94577 10.1734 5.92244 10.1831 5.90523 10.2003C5.88803 10.2175 5.87837 10.2408 5.87837 10.2651V20.3569C5.88044 20.3805 5.89077 20.4027 5.90754 20.4195C5.92432 20.4362 5.94647 20.4466 5.9701 20.4486H17.8967C17.921 20.4486 17.9444 20.439 17.9616 20.4218C17.9788 20.4046 17.9885 20.3812 17.9885 20.3569V10.2651C17.9899 10.2527 17.9886 10.2402 17.9845 10.2283C17.9804 10.2165 17.9737 10.2058 17.9648 10.197C17.956 10.1882 17.9453 10.1815 17.9335 10.1774C17.9217 10.1733 17.9091 10.1719 17.8967 10.1734H5.9701ZM9.18112 12.1C9.18112 12.2815 9.12731 12.4588 9.0265 12.6097C8.92569 12.7606 8.78241 12.8781 8.61478 12.9476C8.44714 13.017 8.26267 13.0352 8.08471 12.9998C7.90674 12.9644 7.74327 12.877 7.61496 12.7487C7.48666 12.6204 7.39928 12.457 7.36388 12.279C7.32848 12.101 7.34665 11.9165 7.41609 11.7489C7.48553 11.5813 7.60311 11.438 7.75398 11.3372C7.90485 11.2364 8.08223 11.1826 8.26368 11.1826C8.507 11.1826 8.74035 11.2792 8.91241 11.4513C9.08446 11.6233 9.18112 11.8567 9.18112 12.1ZM15.6031 13.0174C15.7846 13.0174 15.962 12.9636 16.1128 12.8628C16.2637 12.762 16.3813 12.6187 16.4507 12.4511C16.5202 12.2835 16.5383 12.099 16.5029 11.921C16.4675 11.743 16.3802 11.5796 16.2519 11.4513C16.1236 11.323 15.9601 11.2356 15.7821 11.2002C15.6042 11.1648 15.4197 11.183 15.2521 11.2524C15.0844 11.3218 14.9411 11.4394 14.8403 11.5903C14.7395 11.7412 14.6857 11.9185 14.6857 12.1C14.6857 12.3433 14.7824 12.5767 14.9544 12.7487C15.1265 12.9208 15.3598 13.0174 15.6031 13.0174Z" fill="black"/>
</svg>
