<svg width="24" height="24" viewBox="0 0 24 24" fill="none" xmlns="http://www.w3.org/2000/svg">
<path fill-rule="evenodd" clip-rule="evenodd" d="M4 5.1C4.23869 5.1 4.46763 5.19483 4.63641 5.36361C4.8052 5.53239 4.89999 5.7613 4.89999 5.99999V18C4.89999 18.2387 4.8052 18.4676 4.63641 18.6364C4.46763 18.8052 4.23869 18.9 4 18.9C3.76131 18.9 3.5324 18.8052 3.36362 18.6364C3.19483 18.4676 3.10001 18.2387 3.10001 18V5.99999C3.10001 5.7613 3.19483 5.53239 3.36362 5.36361C3.5324 5.19483 3.76131 5.1 4 5.1ZM12 5.1C12.2387 5.1 12.4676 5.19483 12.6364 5.36361C12.8052 5.53239 12.9 5.7613 12.9 5.99999V18C12.9 18.2387 12.8052 18.4676 12.6364 18.6364C12.4676 18.8052 12.2387 18.9 12 18.9C11.7613 18.9 11.5324 18.8052 11.3636 18.6364C11.1948 18.4676 11.1 18.2387 11.1 18V5.99999C11.1 5.7613 11.1948 5.53239 11.3636 5.36361C11.5324 5.19483 11.7613 5.1 12 5.1ZM8 5.1C7.6287 5.1 7.27262 5.24751 7.01007 5.51006C6.74752 5.77261 6.60001 6.12869 6.60001 6.49999V17.5C6.60001 17.8713 6.74752 18.2274 7.01007 18.49C7.27262 18.7525 7.6287 18.9 8 18.9C8.3713 18.9 8.72741 18.7525 8.98996 18.49C9.25251 18.2274 9.39999 17.8713 9.39999 17.5V6.49999C9.39999 6.12869 9.25251 5.77261 8.98996 5.51006C8.72741 5.24751 8.3713 5.1 8 5.1ZM20 5.1C20.2387 5.1 20.4676 5.19483 20.6364 5.36361C20.8052 5.53239 20.9 5.7613 20.9 5.99999V18C20.9 18.2387 20.8052 18.4676 20.6364 18.6364C20.4676 18.8052 20.2387 18.9 20 18.9C19.7613 18.9 19.5324 18.8052 19.3636 18.6364C19.1948 18.4676 19.1 18.2387 19.1 18V5.99999C19.1 5.7613 19.1948 5.53239 19.3636 5.36361C19.5324 5.19483 19.7613 5.1 20 5.1ZM16 5.1C15.6287 5.1 15.2726 5.24751 15.0101 5.51006C14.7475 5.77261 14.6 6.12869 14.6 6.49999V17.5C14.6 17.8713 14.7475 18.2274 15.0101 18.49C15.2726 18.7525 15.6287 18.9 16 18.9C16.3713 18.9 16.7274 18.7525 16.99 18.49C17.2525 18.2274 17.4 17.8713 17.4 17.5V6.49999C17.4 6.12869 17.2525 5.77261 16.99 5.51006C16.7274 5.24751 16.3713 5.1 16 5.1Z" fill="black"/>
</svg>
