<svg width="24" height="24" viewBox="0 0 24 24" fill="none" xmlns="http://www.w3.org/2000/svg">
<path d="M11.1 9.60001V6.00001C11.1 5.76131 11.1948 5.53238 11.3636 5.36359C11.5324 5.19481 11.7613 5.10001 12 5.10001C12.2387 5.10001 12.4676 5.19481 12.6364 5.36359C12.8052 5.53238 12.9 5.76131 12.9 6.00001V9.60001C12.9 9.83871 12.8052 10.0676 12.6364 10.2364C12.4676 10.4052 12.2387 10.5 12 10.5C11.7613 10.5 11.5324 10.4052 11.3636 10.2364C11.1948 10.0676 11.1 9.83871 11.1 9.60001ZM15.6 10.5H16.4C16.6652 10.5 16.9196 10.3946 17.1071 10.2071C17.2946 10.0196 17.4 9.76522 17.4 9.50001V6.50001C17.4 6.1287 17.2525 5.7726 16.99 5.51005C16.7274 5.2475 16.3713 5.10001 16 5.10001C15.6287 5.10001 15.2726 5.2475 15.0101 5.51005C14.7475 5.7726 14.6 6.1287 14.6 6.50001V9.50001C14.6 9.63133 14.6259 9.76137 14.6761 9.8827C14.7264 10.004 14.8 10.1142 14.8929 10.2071C14.9858 10.3 15.096 10.3736 15.2173 10.4239C15.3386 10.4741 15.4687 10.5 15.6 10.5ZM20 10.5C20.2387 10.5 20.4676 10.4052 20.6364 10.2364C20.8052 10.0676 20.9 9.83871 20.9 9.60001V6.00001C20.9 5.76131 20.8052 5.53238 20.6364 5.36359C20.4676 5.19481 20.2387 5.10001 20 5.10001C19.7613 5.10001 19.5324 5.19481 19.3636 5.36359C19.1948 5.53238 19.1 5.76131 19.1 6.00001V9.60001C19.1 9.7182 19.1233 9.83521 19.1685 9.9444C19.2137 10.0536 19.28 10.1528 19.3636 10.2364C19.4472 10.32 19.5464 10.3863 19.6556 10.4315C19.7648 10.4767 19.8818 10.5 20 10.5ZM3.99999 10.5C4.23869 10.5 4.46762 10.4052 4.63641 10.2364C4.80519 10.0676 4.90002 9.83871 4.90002 9.60001V6.00001C4.90002 5.76131 4.80519 5.53238 4.63641 5.36359C4.46762 5.19481 4.23869 5.10001 3.99999 5.10001C3.7613 5.10001 3.53239 5.19481 3.36361 5.36359C3.19483 5.53238 3.1 5.76131 3.1 6.00001V9.60001C3.1 9.7182 3.12328 9.83521 3.16851 9.9444C3.21374 10.0536 3.28004 10.1528 3.36361 10.2364C3.44718 10.32 3.54641 10.3863 3.6556 10.4315C3.76479 10.4767 3.8818 10.5 3.99999 10.5ZM7.6 10.5H8.40002C8.66523 10.5 8.91957 10.3946 9.10711 10.2071C9.29465 10.0196 9.40002 9.76522 9.40002 9.50001V6.50001C9.40002 6.1287 9.2525 5.7726 8.98995 5.51005C8.7274 5.2475 8.3713 5.10001 7.99999 5.10001C7.62869 5.10001 7.27261 5.2475 7.01006 5.51005C6.74751 5.7726 6.6 6.1287 6.6 6.50001V9.50001C6.6 9.63133 6.62585 9.76137 6.67611 9.8827C6.72636 10.004 6.80005 10.1142 6.89291 10.2071C6.98576 10.3 7.09598 10.3736 7.21731 10.4239C7.33863 10.4741 7.46868 10.5 7.6 10.5ZM23 12.1H0.999992C0.761298 12.1 0.532392 12.1948 0.363609 12.3636C0.194827 12.5324 0.0999985 12.7613 0.0999985 13C0.0999985 13.2387 0.194827 13.4676 0.363609 13.6364C0.532392 13.8052 0.761298 13.9 0.999992 13.9H3.27001C3.16231 14.0447 3.10282 14.2196 3.1 14.4V18C3.1 18.2387 3.19483 18.4676 3.36361 18.6364C3.53239 18.8052 3.7613 18.9 3.99999 18.9C4.23869 18.9 4.46762 18.8052 4.63641 18.6364C4.80519 18.4676 4.90002 18.2387 4.90002 18V14.4C4.89719 14.2196 4.83771 14.0447 4.73 13.9H6.82C6.68301 14.0706 6.60573 14.2813 6.6 14.5V17.5C6.6 17.8713 6.74751 18.2274 7.01006 18.4899C7.27261 18.7525 7.62869 18.9 7.99999 18.9C8.3713 18.9 8.7274 18.7525 8.98995 18.4899C9.2525 18.2274 9.40002 17.8713 9.40002 17.5V14.5C9.39428 14.2813 9.317 14.0706 9.18002 13.9H11.27C11.1622 14.0447 11.1028 14.2196 11.1 14.4V18C11.1 18.2387 11.1948 18.4676 11.3636 18.6364C11.5324 18.8052 11.7613 18.9 12 18.9C12.2387 18.9 12.4676 18.8052 12.6364 18.6364C12.8052 18.4676 12.9 18.2387 12.9 18V14.4C12.8972 14.2196 12.8377 14.0447 12.73 13.9H14.82C14.683 14.0706 14.6057 14.2813 14.6 14.5V17.5C14.6 17.8713 14.7475 18.2274 15.0101 18.4899C15.2726 18.7525 15.6287 18.9 16 18.9C16.3713 18.9 16.7274 18.7525 16.99 18.4899C17.2525 18.2274 17.4 17.8713 17.4 17.5V14.5C17.3943 14.2813 17.317 14.0706 17.18 13.9H19.27C19.1623 14.0447 19.1028 14.2196 19.1 14.4V18C19.1 18.2387 19.1948 18.4676 19.3636 18.6364C19.5324 18.8052 19.7613 18.9 20 18.9C20.2387 18.9 20.4676 18.8052 20.6364 18.6364C20.8052 18.4676 20.9 18.2387 20.9 18V14.4C20.8972 14.2196 20.8377 14.0447 20.73 13.9H23C23.2387 13.9 23.4676 13.8052 23.6364 13.6364C23.8052 13.4676 23.9 13.2387 23.9 13C23.9 12.7613 23.8052 12.5324 23.6364 12.3636C23.4676 12.1948 23.2387 12.1 23 12.1Z" fill="#333333"/>
</svg>
