<svg width="24" height="24" viewBox="0 0 24 24" fill="none" xmlns="http://www.w3.org/2000/svg">
<path d="M20.5255 16.136C20.0474 15.7101 19.6648 15.1879 19.4029 14.6036C19.1409 14.0194 19.0055 13.3863 19.0055 12.746V10.286C19.0055 6.41599 15.8655 2.78599 12.0055 2.78599C8.1455 2.78599 5.0055 6.41599 5.0055 10.286V12.746C5.00427 13.3871 4.86728 14.0205 4.60357 14.6048C4.33986 15.1891 3.95541 15.711 3.4755 16.136C3.24795 16.3407 3.08748 16.6093 3.01512 16.9067C2.94275 17.2041 2.96184 17.5164 3.06989 17.8027C3.17795 18.0891 3.36994 18.3361 3.62074 18.5116C3.87153 18.687 4.16946 18.7827 4.4755 18.786H9.0455C9.17824 19.4696 9.5447 20.0858 10.082 20.5288C10.6194 20.9719 11.2941 21.2142 11.9905 21.2142C12.6869 21.2142 13.3616 20.9719 13.899 20.5288C14.4363 20.0858 14.8028 19.4696 14.9355 18.786H19.5155C19.8224 18.7847 20.1217 18.6905 20.374 18.5158C20.6264 18.3411 20.8199 18.0941 20.9292 17.8074C21.0385 17.5206 21.0585 17.2074 20.9864 16.9091C20.9143 16.6108 20.7537 16.3413 20.5255 16.136Z" fill="#1A1A1A"/>
</svg>
