<svg width="24" height="24" viewBox="0 0 24 24" fill="none" xmlns="http://www.w3.org/2000/svg">
<path d="M19.415 13.08V9.75001C19.415 5.54001 15.955 1.84999 12.015 1.84999C8.075 1.84999 4.615 5.54001 4.615 9.75001V13.08C4.61113 13.4604 4.51875 13.8346 4.34518 14.173C4.17161 14.5115 3.92162 14.8049 3.615 15.03C3.26994 15.2796 3.01358 15.633 2.88327 16.0385C2.75296 16.444 2.75551 16.8804 2.89053 17.2844C3.02555 17.6883 3.286 18.0386 3.63394 18.2843C3.98189 18.5299 4.39916 18.658 4.825 18.65H8.605V18.75C8.605 19.6517 8.96321 20.5166 9.60083 21.1542C10.2385 21.7918 11.1033 22.15 12.005 22.15C12.9067 22.15 13.7715 21.7918 14.4092 21.1542C15.0468 20.5166 15.405 19.6517 15.405 18.75V18.65H19.175C19.6008 18.658 20.0181 18.5299 20.3661 18.2843C20.714 18.0386 20.9745 17.6883 21.1095 17.2844C21.2445 16.8804 21.247 16.444 21.1167 16.0385C20.9864 15.633 20.7301 15.2796 20.385 15.03C20.0833 14.8023 19.8387 14.5077 19.6704 14.1693C19.502 13.8309 19.4146 13.458 19.415 13.08ZM12.015 20.35C11.5907 20.35 11.1837 20.1814 10.8836 19.8814C10.5836 19.5813 10.415 19.1744 10.415 18.75V18.65H13.605C13.6099 18.6831 13.6099 18.7169 13.605 18.75C13.605 19.1726 13.4378 19.5781 13.1399 19.8779C12.842 20.1777 12.4376 20.3473 12.015 20.35ZM19.175 16.85H4.895C4.85006 16.8515 4.80583 16.8385 4.76882 16.8129C4.73182 16.7874 4.704 16.7506 4.68944 16.7081C4.67489 16.6655 4.67437 16.6195 4.68797 16.5766C4.70157 16.5338 4.72858 16.4963 4.765 16.47C5.29321 16.0767 5.72207 15.5653 6.01726 14.9767C6.31245 14.388 6.46578 13.7385 6.465 13.08V9.75001C6.465 6.50001 9.075 3.65001 12.065 3.65001C15.055 3.65001 17.665 6.50001 17.665 9.75001V13.08C17.6646 13.7374 17.8171 14.3859 18.1104 14.9742C18.4037 15.5625 18.8298 16.0746 19.355 16.47C19.3914 16.4963 19.4184 16.5338 19.432 16.5766C19.4456 16.6195 19.4451 16.6655 19.4306 16.7081C19.416 16.7506 19.3882 16.7874 19.3512 16.8129C19.3142 16.8385 19.2699 16.8515 19.225 16.85H19.175Z" fill="#1A1A1A"/>
</svg>
