<svg width="24" height="24" viewBox="0 0 24 24" fill="none" xmlns="http://www.w3.org/2000/svg">
<path d="M5.5 4.7715C5.5 4.24107 5.71068 3.73236 6.08575 3.35728C6.46083 2.98221 6.96957 2.7715 7.5 2.7715H16.5C17.0304 2.7715 17.5391 2.98221 17.9142 3.35728C18.2893 3.73236 18.5 4.24107 18.5 4.7715V20.2315C18.4993 20.4318 18.4384 20.6273 18.3254 20.7926C18.2123 20.9579 18.0522 21.0855 17.8658 21.1587C17.6794 21.232 17.4753 21.2476 17.2799 21.2035C17.0845 21.1595 16.9068 21.0577 16.77 20.9115L12.77 16.5615C12.5826 16.3752 12.3292 16.2707 12.065 16.2707C11.8008 16.2707 11.5473 16.3752 11.36 16.5615H11.31L7.31 20.9115C7.17311 21.0577 6.99543 21.1595 6.80005 21.2035C6.60467 21.2476 6.40058 21.232 6.21417 21.1587C6.02776 21.0855 5.86765 20.9579 5.75458 20.7926C5.64151 20.6273 5.58065 20.4318 5.57996 20.2315L5.5 4.7715Z" fill="#333333"/>
</svg>
