<svg width="24" height="24" viewBox="0 0 24 24" fill="none" xmlns="http://www.w3.org/2000/svg">
<path fill-rule="evenodd" clip-rule="evenodd" d="M7.22708 2.1H16.2313C17.0247 2.10375 17.7845 2.42059 18.3455 2.98158C18.9065 3.54258 19.2233 4.30239 19.227 5.09575L19.2271 5.1L19.2271 20.65C19.2271 20.8469 19.1883 21.0419 19.1129 21.224C19.0375 21.406 18.9271 21.5713 18.7877 21.7107C18.6485 21.8499 18.4832 21.9604 18.3011 22.0358C18.1224 22.1099 17.9311 22.1486 17.738 22.15C17.547 22.1532 17.357 22.1192 17.1788 22.0496C16.9995 21.9796 16.8357 21.8751 16.6967 21.7421L12.0731 17.3881C12.0727 17.3878 12.0724 17.3874 12.072 17.387C11.9795 17.3013 11.8582 17.2537 11.7321 17.2537C11.6054 17.2537 11.4835 17.3018 11.391 17.3881L6.76033 21.7094C6.62411 21.8425 6.46363 21.9486 6.2873 22.0218C6.10493 22.0975 5.90944 22.1365 5.71207 22.1365C5.51469 22.1365 5.3192 22.0975 5.13683 22.0218C4.95432 21.946 4.7888 21.835 4.64958 21.6953L4.63409 21.6797L4.61937 21.6635C4.37022 21.3878 4.23051 21.0303 4.22708 20.6583L4.22701 20.65L4.22704 5.09575C4.23079 4.30239 4.54763 3.54258 5.10863 2.98158C5.66964 2.42057 6.42948 2.10376 7.22282 2.10001L7.22708 2.1ZM7.2295 3.9C6.91122 3.90199 6.60649 4.0293 6.38142 4.25438C6.15634 4.47946 6.02903 4.78416 6.02704 5.10242V19.9317L10.163 16.072C10.5889 15.6747 11.1497 15.4537 11.7321 15.4537C12.3145 15.4537 12.8751 15.6747 13.301 16.0719L13.3041 16.0748L17.4271 19.9574V5.10251C17.4251 4.78421 17.2978 4.47948 17.0727 4.25438C16.8476 4.02928 16.5429 3.90199 16.2247 3.9H7.2295Z" fill="#333333"/>
</svg>
