<svg width="24" height="24" viewBox="0 0 24 24" fill="none" xmlns="http://www.w3.org/2000/svg">
<path d="M18.227 4.6C18.7574 4.6 19.2661 4.81071 19.6412 5.18578C20.0163 5.56086 20.227 6.06957 20.227 6.6V20.6C20.227 21.1304 20.0163 21.6391 19.6412 22.0142C19.2661 22.3893 18.7574 22.6 18.227 22.6H6.22701C5.69657 22.6 5.18783 22.3893 4.81276 22.0142C4.43769 21.6391 4.22701 21.1304 4.22701 20.6V3.1C4.22701 2.56957 4.43769 2.06086 4.81276 1.68578C5.18783 1.31071 5.69657 1.1 6.22701 1.1H18.227C18.4922 1.1 18.7466 1.20537 18.9341 1.39291C19.1216 1.58044 19.227 1.83478 19.227 2.1C19.227 2.36521 19.1216 2.61958 18.9341 2.80712C18.7466 2.99466 18.4922 3.1 18.227 3.1H7.47701C7.27809 3.1 7.08732 3.17901 6.94667 3.31966C6.80602 3.46032 6.72701 3.65109 6.72701 3.85C6.72701 4.04891 6.80602 4.23968 6.94667 4.38033C7.08732 4.52099 7.27809 4.6 7.47701 4.6H10.227C10.4922 4.6 10.7466 4.70537 10.9341 4.89291C11.1216 5.08044 11.227 5.33478 11.227 5.6V14.39C11.2264 14.4887 11.2551 14.5854 11.3093 14.6678C11.3636 14.7503 11.4411 14.8149 11.532 14.8534C11.6229 14.8919 11.7232 14.9026 11.8201 14.8842C11.9171 14.8658 12.0065 14.8191 12.077 14.75L13.877 12.95C13.9704 12.8584 14.0961 12.8071 14.227 12.8071C14.3579 12.8071 14.4835 12.8584 14.577 12.95L16.377 14.75C16.4704 14.8416 16.5961 14.8929 16.727 14.8929C16.8579 14.8929 16.9835 14.8416 17.077 14.75C17.1253 14.7035 17.1635 14.6475 17.1893 14.5856C17.2151 14.5236 17.228 14.4571 17.227 14.39V5.6C17.227 5.33478 17.3323 5.08044 17.5199 4.89291C17.7074 4.70537 17.9618 4.6 18.227 4.6Z" fill="#333333"/>
</svg>
