<svg width="24" height="24" viewBox="0 0 24 24" fill="none" xmlns="http://www.w3.org/2000/svg">
<path d="M21.575 7.40001C21.8137 7.40001 22.0426 7.30518 22.2114 7.1364C22.3802 6.96762 22.475 6.73869 22.475 6.5C22.475 6.26131 22.3802 6.0324 22.2114 5.86362C22.0426 5.69483 21.8137 5.60001 21.575 5.60001V7.40001ZM8.575 5.60001C8.33631 5.60001 8.10739 5.69483 7.9386 5.86362C7.76982 6.0324 7.67501 6.26131 7.67501 6.5C7.67501 6.73869 7.76982 6.96762 7.9386 7.1364C8.10739 7.30518 8.33631 7.40001 8.575 7.40001V5.60001ZM21.575 5.60001H8.575V7.40001H21.575V5.60001Z" fill="#333333"/>
<path d="M21.575 12.9C21.8137 12.9 22.0426 12.8052 22.2114 12.6364C22.3802 12.4676 22.475 12.2387 22.475 12C22.475 11.7613 22.3802 11.5324 22.2114 11.3636C22.0426 11.1948 21.8137 11.1 21.575 11.1V12.9ZM8.575 11.1C8.33631 11.1 8.10739 11.1948 7.9386 11.3636C7.76982 11.5324 7.67501 11.7613 7.67501 12C7.67501 12.2387 7.76982 12.4676 7.9386 12.6364C8.10739 12.8052 8.33631 12.9 8.575 12.9V11.1ZM21.575 11.1H8.575V12.9H21.575V11.1Z" fill="#333333"/>
<path d="M21.575 18.4C21.8137 18.4 22.0426 18.3052 22.2114 18.1364C22.3802 17.9676 22.475 17.7387 22.475 17.5C22.475 17.2613 22.3802 17.0324 22.2114 16.8636C22.0426 16.6948 21.8137 16.6 21.575 16.6V18.4ZM8.575 16.6C8.33631 16.6 8.10739 16.6948 7.9386 16.8636C7.76982 17.0324 7.67501 17.2613 7.67501 17.5C7.67501 17.7387 7.76982 17.9676 7.9386 18.1364C8.10739 18.3052 8.33631 18.4 8.575 18.4V16.6ZM21.575 16.6H8.575V18.4H21.575V16.6Z" fill="#333333"/>
<path fill-rule="evenodd" clip-rule="evenodd" d="M1.52499 6.5C1.52499 5.39543 2.42042 4.5 3.52499 4.5C4.62956 4.5 5.52499 5.39543 5.52499 6.5C5.52499 7.60457 4.62956 8.5 3.52499 8.5C2.42042 8.5 1.52499 7.60457 1.52499 6.5ZM1.52499 12C1.52499 10.8954 2.42042 10 3.52499 10C4.62956 10 5.52499 10.8954 5.52499 12C5.52499 13.1046 4.62956 14 3.52499 14C2.42042 14 1.52499 13.1046 1.52499 12ZM1.52499 17.5C1.52499 16.3954 2.42042 15.5 3.52499 15.5C4.62956 15.5 5.52499 16.3954 5.52499 17.5C5.52499 18.6046 4.62956 19.5 3.52499 19.5C2.42042 19.5 1.52499 18.6046 1.52499 17.5Z" fill="#333333"/>
</svg>
