<svg width="24" height="24" viewBox="0 0 24 24" fill="none" xmlns="http://www.w3.org/2000/svg">
<path d="M20 6.1H16.9V4.99999C16.9 4.23086 16.5945 3.49325 16.0506 2.94939C15.5068 2.40554 14.7691 2.1 14 2.1H10C9.23087 2.1 8.49326 2.40554 7.9494 2.94939C7.40555 3.49325 7.10001 4.23086 7.10001 4.99999V6.1H4C3.23087 6.1 2.49326 6.40554 1.9494 6.94939C1.40555 7.49325 1.10001 8.23086 1.10001 8.99999V19C1.10001 19.7691 1.40555 20.5068 1.9494 21.0506C2.49326 21.5945 3.23087 21.9 4 21.9H20C20.7691 21.9 21.5068 21.5945 22.0506 21.0506C22.5945 20.5068 22.9 19.7691 22.9 19V8.99999C22.9 8.23086 22.5945 7.49325 22.0506 6.94939C21.5068 6.40554 20.7691 6.1 20 6.1ZM8.89999 4.99999C8.89999 4.85554 8.92845 4.71251 8.98373 4.57905C9.03901 4.44559 9.12005 4.32432 9.2222 4.22218C9.32434 4.12003 9.44558 4.03901 9.57904 3.98373C9.7125 3.92845 9.85555 3.9 10 3.9H14C14.2917 3.9 14.5715 4.01589 14.7778 4.22218C14.9841 4.42847 15.1 4.70825 15.1 4.99999V6.1H8.89999V4.99999ZM21.1 19C21.1 19.1444 21.0715 19.2875 21.0163 19.421C20.961 19.5544 20.88 19.6757 20.7778 19.7778C20.6757 19.88 20.5544 19.961 20.421 20.0163C20.2875 20.0716 20.1445 20.1 20 20.1H4C3.85555 20.1 3.7125 20.0716 3.57904 20.0163C3.44558 19.961 3.32434 19.88 3.2222 19.7778C3.12005 19.6757 3.03901 19.5544 2.98373 19.421C2.92845 19.2875 2.89999 19.1444 2.89999 19V14.9H7.10001V16C7.10001 16.2387 7.19483 16.4676 7.36362 16.6364C7.5324 16.8052 7.76131 16.9 8 16.9C8.23869 16.9 8.46763 16.8052 8.63641 16.6364C8.8052 16.4676 8.89999 16.2387 8.89999 16V14.9H15.1V16C15.1 16.2387 15.1948 16.4676 15.3636 16.6364C15.5324 16.8052 15.7613 16.9 16 16.9C16.2387 16.9 16.4676 16.8052 16.6364 16.6364C16.8052 16.4676 16.9 16.2387 16.9 16V14.9H21.1V19ZM21.1 13.1H16.9V12C16.9 11.7613 16.8052 11.5324 16.6364 11.3636C16.4676 11.1948 16.2387 11.1 16 11.1C15.7613 11.1 15.5324 11.1948 15.3636 11.3636C15.1948 11.5324 15.1 11.7613 15.1 12V13.1H8.89999V12C8.89999 11.7613 8.8052 11.5324 8.63641 11.3636C8.46763 11.1948 8.23869 11.1 8 11.1C7.76131 11.1 7.5324 11.1948 7.36362 11.3636C7.19483 11.5324 7.10001 11.7613 7.10001 12V13.1H2.89999V8.99999C2.89999 8.70825 3.01591 8.42847 3.2222 8.22218C3.42849 8.01589 3.70826 7.9 4 7.9H20C20.2917 7.9 20.5715 8.01589 20.7778 8.22218C20.9841 8.42847 21.1 8.70825 21.1 8.99999V13.1Z" fill="#333333"/>
</svg>
