<svg width="24" height="24" viewBox="0 0 24 24" fill="none" xmlns="http://www.w3.org/2000/svg">
<path fill-rule="evenodd" clip-rule="evenodd" d="M10 2.08C9.24586 2.08 8.52247 2.37889 7.98828 2.91121C7.45409 3.44353 7.15264 4.16588 7.14999 4.92001V5.92001H4C3.20435 5.92001 2.4413 6.23608 1.87869 6.79869C1.31608 7.3613 1 8.12436 1 8.92001V13.03H7.10001V11.42C7.10001 11.1813 7.19483 10.9524 7.36362 10.7836C7.5324 10.6148 7.76131 10.52 8 10.52C8.23869 10.52 8.46763 10.6148 8.63641 10.7836C8.8052 10.9524 8.89999 11.1813 8.89999 11.42V13.03H15.1V11.42C15.1 11.1813 15.1948 10.9524 15.3636 10.7836C15.5324 10.6148 15.7613 10.52 16 10.52C16.2387 10.52 16.4676 10.6148 16.6364 10.7836C16.8052 10.9524 16.9 11.1813 16.9 11.42V13.03H23V8.92001C23 8.12436 22.6839 7.3613 22.1213 6.79869C21.5587 6.23608 20.7956 5.92001 20 5.92001H16.85V4.92001C16.8474 4.16588 16.5459 3.44353 16.0117 2.91121C15.4775 2.37889 14.7541 2.08 14 2.08H10ZM15.15 5.92001V4.92001C15.1474 4.61582 15.0254 4.32483 14.8103 4.10973C14.5952 3.89462 14.3042 3.77262 14 3.77H10C9.69581 3.77262 9.40483 3.89462 9.18973 4.10973C8.97462 4.32483 8.85262 4.61582 8.85001 4.92001V5.92001H15.15ZM4 21.92H20C20.7956 21.92 21.5587 21.6039 22.1213 21.0413C22.6839 20.4787 23 19.7157 23 18.92V14.82H16.9V16.42C16.9 16.6587 16.8052 16.8876 16.6364 17.0564C16.4676 17.2252 16.2387 17.32 16 17.32C15.7613 17.32 15.5324 17.2252 15.3636 17.0564C15.1948 16.8876 15.1 16.6587 15.1 16.42V14.82H8.89999V16.42C8.89999 16.6587 8.8052 16.8876 8.63641 17.0564C8.46763 17.2252 8.23869 17.32 8 17.32C7.76131 17.32 7.5324 17.2252 7.36362 17.0564C7.19483 16.8876 7.10001 16.6587 7.10001 16.42V14.82H1V18.92C1 19.7157 1.31608 20.4787 1.87869 21.0413C2.4413 21.6039 3.20435 21.92 4 21.92Z" fill="#333333"/>
</svg>
