<svg width="24" height="24" viewBox="0 0 24 24" fill="none" xmlns="http://www.w3.org/2000/svg">
<path fill-rule="evenodd" clip-rule="evenodd" d="M17.9153 6.40678H7.0678C5.94451 6.40678 5.0339 7.31739 5.0339 8.44068V17.9322C5.0339 19.0555 5.94451 19.9661 7.0678 19.9661H17.9153C19.0385 19.9661 19.9492 19.0555 19.9492 17.9322V8.44068C19.9492 7.31739 19.0385 6.40678 17.9153 6.40678ZM7.0678 4.37288H17.9153C20.1618 4.37288 21.9831 6.1941 21.9831 8.44068V17.9322C21.9831 20.1788 20.1618 22 17.9153 22H7.0678C4.82121 22 3 20.1788 3 17.9322V8.44068C3 6.1941 4.82121 4.37288 7.0678 4.37288Z" fill="black"/>
<path fill-rule="evenodd" clip-rule="evenodd" d="M8.42373 2C8.98537 2 9.44068 2.4553 9.44068 3.01695V8.44068C9.44068 9.00232 8.98537 9.45763 8.42373 9.45763C7.86208 9.45763 7.40678 9.00232 7.40678 8.44068V3.01695C7.40678 2.4553 7.86208 2 8.42373 2ZM16.5593 2C17.121 2 17.5763 2.4553 17.5763 3.01695V8.44068C17.5763 9.00232 17.121 9.45763 16.5593 9.45763C15.9977 9.45763 15.5424 9.00232 15.5424 8.44068V3.01695C15.5424 2.4553 15.9977 2 16.5593 2ZM11.1356 12.8475C11.1356 12.2859 11.5909 11.8306 12.1525 11.8306H16.8983C17.46 11.8306 17.9153 12.2859 17.9153 12.8475C17.9153 13.4091 17.46 13.8644 16.8983 13.8644H12.1525C11.5909 13.8644 11.1356 13.4091 11.1356 12.8475ZM11.1356 16.9153C11.1356 16.3537 11.5909 15.8983 12.1525 15.8983H16.8983C17.46 15.8983 17.9153 16.3537 17.9153 16.9153C17.9153 17.4769 17.46 17.9322 16.8983 17.9322H12.1525C11.5909 17.9322 11.1356 17.4769 11.1356 16.9153Z" fill="black"/>
<path d="M3 8.44068C3 6.1941 4.82121 4.37288 7.0678 4.37288H17.9153C20.1618 4.37288 21.9831 6.1941 21.9831 8.44068V9.79661H3V8.44068Z" fill="black"/>
<path d="M9.91525 12.8475C9.91525 13.6712 9.24747 14.339 8.42372 14.339C7.59997 14.339 6.9322 13.6712 6.9322 12.8475C6.9322 12.0238 7.59997 11.356 8.42372 11.356C9.24747 11.356 9.91525 12.0238 9.91525 12.8475Z" fill="black"/>
<path d="M9.91525 16.9153C9.91525 17.739 9.24747 18.4068 8.42372 18.4068C7.59997 18.4068 6.9322 17.739 6.9322 16.9153C6.9322 16.0915 7.59997 15.4238 8.42372 15.4238C9.24747 15.4238 9.91525 16.0915 9.91525 16.9153Z" fill="black"/>
</svg>
