<svg width="24" height="24" viewBox="0 0 24 24" fill="none" xmlns="http://www.w3.org/2000/svg">
<g clip-path="url(#clip0)">
<path d="M4.73848 2.38235H4.63514V2.15501C4.63514 2.1139 4.61881 2.07447 4.58974 2.0454C4.56067 2.01633 4.52124 2 4.48013 2C4.43902 2 4.39959 2.01633 4.37052 2.0454C4.34145 2.07447 4.32512 2.1139 4.32512 2.15501V2.38752H3.08505V2.15501C3.08505 2.1139 3.06873 2.07447 3.03966 2.0454C3.01059 2.01633 2.97116 2 2.93005 2C2.88894 2 2.84951 2.01633 2.82044 2.0454C2.79137 2.07447 2.77504 2.1139 2.77504 2.15501V2.38752H2.6717C2.49369 2.38798 2.32311 2.45889 2.19724 2.58476C2.07137 2.71063 2.00045 2.88121 2 3.05922V4.78153C2 4.95968 2.07077 5.13053 2.19674 5.2565C2.3227 5.38247 2.49355 5.45323 2.6717 5.45323H4.73848C4.82675 5.45346 4.9142 5.43624 4.99579 5.40257C5.07739 5.36889 5.15153 5.31942 5.21395 5.257C5.27637 5.19459 5.32584 5.12045 5.35951 5.03885C5.39319 4.95725 5.4104 4.86981 5.41018 4.78153V3.05922C5.41086 2.97058 5.39399 2.88268 5.36054 2.80059C5.32709 2.71849 5.27772 2.64383 5.21528 2.58091C5.15284 2.51799 5.07856 2.46805 4.99672 2.43397C4.91489 2.39989 4.82712 2.38235 4.73848 2.38235ZM5.10016 4.77637C5.10016 4.82386 5.09081 4.87089 5.07263 4.91478C5.05446 4.95866 5.02781 4.99853 4.99423 5.03212C4.96064 5.0657 4.92077 5.09235 4.87689 5.11052C4.83301 5.1287 4.78597 5.13805 4.73848 5.13805H2.6717C2.57578 5.13805 2.48378 5.09995 2.41595 5.03212C2.34812 4.96429 2.31001 4.87229 2.31001 4.77637V3.20906H5.10016V4.77637ZM2.92661 3.93244H2.69065C2.69153 3.87573 2.70421 3.81984 2.72789 3.76831C2.75157 3.71679 2.78572 3.67076 2.82818 3.63316C2.87063 3.59557 2.92046 3.56724 2.97447 3.54997C3.02849 3.5327 3.0855 3.52687 3.14189 3.53286C3.39852 3.53286 3.56386 3.68097 3.56386 3.88593C3.56386 4.02716 3.50185 4.12533 3.30034 4.31651L3.04716 4.55764V4.56624H3.58108V4.76948H2.70443V4.59725L3.12984 4.18733C3.2814 4.03922 3.31413 3.9841 3.31413 3.89971C3.3142 3.87589 3.30933 3.8523 3.29983 3.83046C3.29033 3.80861 3.27639 3.78897 3.25891 3.77278C3.24143 3.75659 3.22078 3.74421 3.19827 3.73641C3.17575 3.72862 3.15186 3.72557 3.12811 3.72748C3.10088 3.72565 3.07357 3.72972 3.04806 3.73942C3.02254 3.74912 2.99943 3.76422 2.98029 3.78368C2.96115 3.80315 2.94645 3.82651 2.93719 3.85219C2.92792 3.87786 2.92431 3.90524 2.92661 3.93244ZM4.33201 4.77637H4.57486V4.55419H4.73331V4.35096H4.57486V3.56386H4.21834C4.05644 3.81187 3.8911 4.08055 3.73954 4.3544V4.55419H4.33201V4.77637ZM3.97549 4.35785V4.34407C4.08572 4.14772 4.21489 3.9376 4.33373 3.75676H4.34751V4.35785H3.97549Z" fill="#1A1A1A"/>
</g>
<defs>
<clipPath id="clip0">
<rect width="24" height="24" fill="white"/>
</clipPath>
</defs>
</svg>
