<svg width="24" height="24" viewBox="0 0 24 24" fill="none" xmlns="http://www.w3.org/2000/svg">
<path fill-rule="evenodd" clip-rule="evenodd" d="M2 6.83871C2 4.16636 4.16636 2 6.83871 2H17.1613C19.8336 2 22 4.16636 22 6.83871V17.1613C22 19.8336 19.8336 22 17.1613 22H6.83871C4.16636 22 2 19.8336 2 17.1613V6.83871ZM6.83871 3.93548C5.2353 3.93548 3.93548 5.2353 3.93548 6.83871V17.1613C3.93548 18.7647 5.2353 20.0645 6.83871 20.0645H17.1613C18.7647 20.0645 20.0645 18.7647 20.0645 17.1613V6.83871C20.0645 5.2353 18.7647 3.93548 17.1613 3.93548H6.83871ZM6.51613 8.12907C6.51613 7.5946 6.9494 7.16133 7.48387 7.16133H16.5161C17.0506 7.16133 17.4839 7.5946 17.4839 8.12907C17.4839 8.66354 17.0506 9.09681 16.5161 9.09681H7.48387C6.9494 9.09681 6.51613 8.66354 6.51613 8.12907Z" fill="#262F56"/>
<path d="M6.83871 12C6.83871 11.2874 7.41641 10.7097 8.12903 10.7097C8.84166 10.7097 9.41935 11.2874 9.41935 12C9.41935 12.7127 8.84166 13.2904 8.12903 13.2904C7.41641 13.2904 6.83871 12.7127 6.83871 12Z" fill="#262F56"/>
<path d="M10.7097 12C10.7097 11.2874 11.2874 10.7097 12 10.7097C12.7126 10.7097 13.2903 11.2874 13.2903 12C13.2903 12.7127 12.7126 13.2904 12 13.2904C11.2874 13.2904 10.7097 12.7127 10.7097 12Z" fill="#262F56"/>
<path d="M14.5806 12C14.5806 11.2874 15.1583 10.7097 15.871 10.7097C16.5836 10.7097 17.1613 11.2874 17.1613 12C17.1613 12.7127 16.5836 13.2904 15.871 13.2904C15.1583 13.2904 14.5806 12.7127 14.5806 12Z" fill="#262F56"/>
<path d="M6.83871 15.871C6.83871 15.1584 7.41641 14.5807 8.12903 14.5807C8.84166 14.5807 9.41935 15.1584 9.41935 15.871C9.41935 16.5836 8.84166 17.1613 8.12903 17.1613C7.41641 17.1613 6.83871 16.5836 6.83871 15.871Z" fill="#262F56"/>
<path d="M10.7097 15.871C10.7097 15.1584 11.2874 14.5807 12 14.5807C12.7126 14.5807 13.2903 15.1584 13.2903 15.871C13.2903 16.5836 12.7126 17.1613 12 17.1613C11.2874 17.1613 10.7097 16.5836 10.7097 15.871Z" fill="#262F56"/>
<path d="M14.5806 15.871C14.5806 15.1584 15.1583 14.5807 15.871 14.5807C16.5836 14.5807 17.1613 15.1584 17.1613 15.871C17.1613 16.5836 16.5836 17.1613 15.871 17.1613C15.1583 17.1613 14.5806 16.5836 14.5806 15.871Z" fill="#262F56"/>
</svg>
