<svg width="24" height="24" viewBox="0 0 24 24" fill="none" xmlns="http://www.w3.org/2000/svg">
<path fill-rule="evenodd" clip-rule="evenodd" d="M10.9577 3.21748H13.5055C13.8135 3.19313 14.1231 3.19424 14.431 3.22082C14.4679 3.224 14.5045 3.22945 14.5407 3.23715C15.13 3.36238 15.6628 3.67521 16.0593 4.12876C16.0697 4.14069 16.0798 4.15289 16.0896 4.16535C16.2869 4.41666 16.4599 4.68607 16.6063 4.96998L16.9561 5.57737C17.1119 5.85109 17.3372 6.0788 17.6094 6.23744C17.8815 6.39608 18.1906 6.48002 18.5056 6.48077L18.5035 7.38076V6.48076C18.9747 6.48076 19.4412 6.57357 19.8765 6.75388C20.3118 6.93419 20.7074 7.19848 21.0405 7.53165C21.3737 7.86483 21.638 8.26036 21.8183 8.69567C21.9986 9.13098 22.0914 9.59755 22.0914 10.0687V16.0135C22.1987 17.1357 22.0628 18.2681 21.6926 19.3334C21.6806 19.3681 21.6664 19.402 21.6502 19.435C21.2985 20.1507 20.7196 20.7296 20.0039 21.0813C19.9675 21.0992 19.9299 21.1146 19.8914 21.1274C18.8248 21.4828 17.6945 21.6046 16.5771 21.4848H7.81063C6.69319 21.6046 5.56285 21.4828 4.49624 21.1274C4.45187 21.1126 4.40872 21.0944 4.36718 21.0729C3.67025 20.7124 3.1099 20.1344 2.77113 19.4266C2.75496 19.3928 2.74091 19.3581 2.72907 19.3225C2.37371 18.2559 2.25191 17.1256 2.37169 16.0081V10.0656C2.37501 9.11585 2.75376 8.20597 3.42533 7.5344C4.09689 6.86283 5.00678 6.48408 5.95651 6.48077L5.95751 6.48077C6.27248 6.48002 6.58167 6.39608 6.85378 6.23744C7.12588 6.0788 7.35125 5.8511 7.50708 5.57738L7.50925 5.57356L7.85458 4.97381C7.99999 4.68537 8.17343 4.41191 8.3724 4.15738C8.38405 4.14248 8.39617 4.12795 8.40873 4.11381C8.80723 3.66541 9.3398 3.35759 9.92726 3.23613C9.96187 3.22897 9.99688 3.22386 10.0321 3.22082C10.34 3.19424 10.6496 3.19313 10.9577 3.21748ZM10.2456 5.00954C10.0642 5.05622 9.89966 5.15366 9.77144 5.29062C9.64939 5.44999 9.54296 5.62076 9.45363 5.80058C9.44545 5.81706 9.43676 5.83328 9.42758 5.84923L9.07017 6.46999C8.75751 7.01835 8.3057 7.47453 7.76035 7.79247C7.2145 8.1107 6.59428 8.27914 5.96245 8.28076C5.48805 8.28251 5.03358 8.47173 4.69812 8.80719C4.36291 9.1424 4.17372 9.59644 4.17169 10.0705V10.0687H3.27169L4.17169 10.0719C4.17169 10.0714 4.17169 10.0709 4.17169 10.0705V16.0577C4.17169 16.0918 4.16976 16.1258 4.1659 16.1596C4.06853 17.0138 4.15461 17.8787 4.4181 18.6965C4.41009 18.681 4.4023 18.6653 4.39473 18.6495L3.58293 19.038L4.43678 18.7536C4.43046 18.7346 4.42423 18.7156 4.4181 18.6965C4.5796 19.0102 4.8294 19.2697 5.13649 19.443C5.11269 19.4354 5.08893 19.4276 5.0652 19.4197L4.78072 20.2736L5.19426 19.4742C5.17479 19.4641 5.15553 19.4537 5.13649 19.443C5.95013 19.7029 6.80992 19.7874 7.65913 19.6906C7.69297 19.6867 7.727 19.6848 7.76106 19.6848H16.6266C16.6607 19.6848 16.6947 19.6867 16.7285 19.6906C17.5811 19.7878 18.4443 19.7022 19.2607 19.4399C19.244 19.4488 19.2271 19.4574 19.21 19.4658L19.607 20.2736L19.3225 19.4197C19.3019 19.4265 19.2813 19.4333 19.2607 19.4399C19.5807 19.2699 19.8423 19.0076 20.0114 18.687C20.0051 18.7056 19.9988 18.7241 19.9923 18.7426L20.8425 19.038L20.0347 18.6411C20.0272 18.6565 20.0194 18.6718 20.0114 18.687C20.286 17.8711 20.3832 17.0057 20.2961 16.1487C20.293 16.1185 20.2914 16.0881 20.2914 16.0577V10.0687C20.2914 9.83393 20.2452 9.60143 20.1553 9.3845C20.0655 9.16758 19.9338 8.97047 19.7678 8.80445C19.6017 8.63842 19.4046 8.50672 19.1877 8.41686C18.9708 8.32701 18.7383 8.28076 18.5035 8.28076L18.5013 8.28076C17.8693 8.27926 17.2488 8.11081 16.7028 7.79247C16.1574 7.47454 15.7056 7.01837 15.393 6.47002L15.3939 6.4717L16.1739 6.02264L15.3918 6.4679L15.0356 5.84923C15.0279 5.83599 15.0207 5.82257 15.0137 5.80896C14.9218 5.62877 14.8134 5.45755 14.6898 5.29749C14.6946 5.30275 14.6994 5.30806 14.7041 5.31343L15.3817 4.7211L14.6737 5.27684C14.6791 5.2837 14.6845 5.29058 14.6898 5.29749C14.5622 5.15776 14.3973 5.05782 14.2148 5.00934C14.2353 5.01078 14.2558 5.01238 14.2762 5.01415L14.3536 4.11748L14.1665 4.99782C14.1827 5.00126 14.1988 5.00511 14.2148 5.00934C14.0167 4.99547 13.8178 4.99707 13.6199 5.01415C13.5942 5.01637 13.5684 5.01748 13.5425 5.01748H10.9206C10.8948 5.01748 10.8689 5.01637 10.8432 5.01415C10.6444 4.99699 10.4446 4.99545 10.2456 5.00954ZM18.1262 10.6386C18.1388 10.6386 18.1514 10.6374 18.1638 10.6349C18.2012 10.6275 18.2355 10.6091 18.2624 10.5822C18.2894 10.5553 18.3077 10.5209 18.3152 10.4836C18.3176 10.4711 18.3189 10.4585 18.3189 10.446L18.1262 10.446V10.6386ZM18.1195 10.6385L18.117 10.446H17.9336C17.9336 10.4714 17.9386 10.4964 17.9482 10.5197C17.953 10.5313 17.959 10.5425 17.966 10.553C17.9802 10.5741 17.9983 10.5922 18.0192 10.6062C18.0296 10.6131 18.0408 10.6191 18.0525 10.624C18.0739 10.6328 18.0966 10.6377 18.1195 10.6385ZM18.1262 10.4367L18.3187 10.4393C18.3179 10.4164 18.3131 10.3937 18.3042 10.3723C18.2993 10.3605 18.2934 10.3494 18.2864 10.339C18.2724 10.318 18.2544 10.2999 18.2332 10.2858C18.2227 10.2788 18.2115 10.2728 18.1999 10.268C18.1767 10.2584 18.1516 10.2533 18.1262 10.2533V10.4367ZM18.1168 10.4366L18.1145 10.2534C18.1057 10.2535 18.0969 10.2543 18.0884 10.2556C18.0503 10.2616 18.0149 10.2795 17.9873 10.3071C17.9597 10.3346 17.9419 10.3701 17.9359 10.4081C17.9345 10.4167 17.9338 10.4254 17.9337 10.4342L18.1168 10.4366ZM17.8126 8.86951C18.1244 8.80749 18.4476 8.83932 18.7413 8.96098C19.035 9.08264 19.2861 9.28865 19.4627 9.55298C19.6393 9.81731 19.7336 10.1281 19.7336 10.446V10.4578C19.7281 10.8792 19.5581 11.2818 19.2601 11.5799C18.9621 11.8779 18.5594 12.0478 18.138 12.0533L18.1262 12.0534C17.8083 12.0534 17.4975 11.9591 17.2332 11.7825C16.9689 11.6058 16.7629 11.3548 16.6412 11.0611C16.5196 10.7674 16.4877 10.4442 16.5497 10.1324C16.6118 9.82061 16.7648 9.53421 16.9896 9.30941C17.2144 9.08462 17.5008 8.93153 17.8126 8.86951ZM13.3309 11.3289C12.806 11.1114 12.2284 11.0546 11.6712 11.1654C11.1139 11.2762 10.6021 11.5498 10.2003 11.9516C9.79861 12.3533 9.52502 12.8651 9.41418 13.4224C9.30334 13.9796 9.36023 14.5572 9.57765 15.0821C9.79507 15.607 10.1633 16.0556 10.6356 16.3712C11.108 16.6869 11.6634 16.8554 12.2316 16.8554C12.9934 16.8554 13.7241 16.5527 14.2628 16.014C14.8015 15.4753 15.1041 14.7446 15.1041 13.9828C15.1041 13.4146 14.9357 12.8593 14.62 12.3869C14.3044 11.9145 13.8557 11.5463 13.3309 11.3289ZM11.32 9.39998C12.2264 9.21969 13.1659 9.31222 14.0197 9.66588C14.8735 10.0195 15.6032 10.6184 16.1167 11.3868C16.6301 12.1552 16.9041 13.0586 16.9041 13.9828C16.9041 15.222 16.4119 16.4105 15.5356 17.2868C14.6593 18.1631 13.4708 18.6554 12.2316 18.6554C11.3074 18.6554 10.404 18.3813 9.63562 17.8679C8.86722 17.3545 8.26832 16.6247 7.91467 15.7709C7.56101 14.9171 7.46848 13.9776 7.64877 13.0712C7.82906 12.1648 8.27408 11.3322 8.92755 10.6788C9.58103 10.0253 10.4136 9.58027 11.32 9.39998Z" fill="black"/>
</svg>
