<svg width="24" height="24" viewBox="0 0 24 24" fill="none" xmlns="http://www.w3.org/2000/svg">
<path fill-rule="evenodd" clip-rule="evenodd" d="M3.227 10.4762C3.227 10.0916 3.30276 9.71082 3.44994 9.3555C3.59712 9.00018 3.81284 8.67733 4.08479 8.40538C4.35674 8.13343 4.67959 7.91771 5.03491 7.77053C5.39022 7.62335 5.77105 7.54759 6.15565 7.54759C6.56303 7.54627 6.96204 7.43191 7.30827 7.21722C7.65449 7.00253 7.93432 6.69595 8.11661 6.33162L8.53623 5.4753C8.65421 5.19929 8.80362 4.93781 8.98151 4.69604C9.20609 4.43405 9.50457 4.246 9.83784 4.15655C10.1205 4.10767 10.4077 4.09043 10.6942 4.10517H13.6228C13.9093 4.09043 14.1965 4.10766 14.4791 4.15655C14.8135 4.24834 15.1121 4.43943 15.3355 4.70458C15.5133 4.94332 15.6627 5.20198 15.7807 5.4753L16.2003 6.33162C16.3925 6.71751 16.6938 7.03844 17.0668 7.25461C17.4397 7.47079 17.868 7.57267 18.2983 7.54759C19.0751 7.54759 19.82 7.85616 20.3692 8.40538C20.9184 8.95461 21.227 9.69952 21.227 10.4762V14.912C21.227 16.8302 21.227 17.7893 20.8502 18.5257C20.5224 19.1666 20.0011 19.6879 19.3602 20.0157C18.6237 20.3925 17.6475 20.3925 15.7465 20.3925H8.72463C6.80645 20.3925 5.84737 20.3925 5.11093 20.0157C4.47003 19.6879 3.94866 19.1666 3.6209 18.5257C3.24412 17.7893 3.24414 16.8131 3.24414 14.912L3.227 10.4762ZM15.6437 13.97C15.6437 14.6475 15.4429 15.3098 15.0665 15.873C14.6901 16.4363 14.1551 16.8754 13.5292 17.1346C12.9033 17.3939 12.2146 17.4617 11.5502 17.3295C10.8857 17.1974 10.2754 16.8711 9.79637 16.3921C9.31733 15.9131 8.99112 15.3027 8.85895 14.6383C8.72678 13.9738 8.7946 13.2851 9.05385 12.6592C9.3131 12.0333 9.75213 11.4984 10.3154 11.122C10.8787 10.7456 11.541 10.5447 12.2184 10.5447C13.1269 10.5447 13.9981 10.9056 14.6405 11.548C15.2829 12.1904 15.6437 13.0616 15.6437 13.97ZM18.2127 11.8292C18.4668 11.8292 18.7151 11.7539 18.9264 11.6128C19.1376 11.4716 19.3022 11.271 19.3994 11.0363C19.4967 10.8016 19.5221 10.5433 19.4725 10.2941C19.423 10.045 19.3006 9.81609 19.121 9.63646C18.9414 9.45682 18.7125 9.3345 18.4633 9.28494C18.2141 9.23538 17.9559 9.26081 17.7212 9.35803C17.4865 9.45525 17.2858 9.61989 17.1447 9.83112C17.0036 10.0424 16.9282 10.2907 16.9282 10.5447C16.9282 10.8854 17.0635 11.2121 17.3044 11.453C17.5453 11.6939 17.872 11.8292 18.2127 11.8292Z" fill="black"/>
</svg>
