<svg width="24" height="24" viewBox="0 0 24 24" fill="none" xmlns="http://www.w3.org/2000/svg">
<path d="M19.1143 5.09869C19.0094 4.80789 18.8178 4.55628 18.5654 4.37782C18.313 4.19936 18.0119 4.10265 17.7028 4.10075H6.72542C6.41464 4.09066 6.10914 4.18282 5.85579 4.36309C5.60244 4.54335 5.41524 4.80177 5.32291 5.09869L3.22814 11.0953V19.0878C3.21588 19.3392 3.30353 19.5851 3.47196 19.7721C3.64039 19.9591 3.87593 20.0718 4.12718 20.0858H5.23301C5.35774 20.093 5.48267 20.0755 5.60056 20.0341C5.71846 19.9927 5.82697 19.9283 5.91979 19.8447C6.01262 19.7611 6.08793 19.6599 6.14134 19.5469C6.19475 19.434 6.22521 19.3115 6.23095 19.1867C6.24008 19.1513 6.24008 19.1142 6.23095 19.0788V18.0899H18.2152V19.0878C18.2012 19.2139 18.2141 19.3415 18.253 19.4623C18.2919 19.5831 18.3559 19.6942 18.4408 19.7885C18.5258 19.8827 18.6297 19.958 18.7457 20.0092C18.8618 20.0604 18.9874 20.0865 19.1143 20.0858H20.2291C20.3538 20.093 20.4787 20.0755 20.5966 20.0341C20.7145 19.9927 20.823 19.9283 20.9159 19.8447C21.0087 19.7611 21.084 19.6599 21.1374 19.5469C21.1908 19.434 21.2213 19.3115 21.227 19.1867V11.0953L19.1143 5.09869ZM6.72542 15.0871C6.51993 15.1072 6.31251 15.0847 6.1161 15.021C5.9197 14.9574 5.73853 14.8539 5.58393 14.717C5.42934 14.5802 5.30463 14.4129 5.2176 14.2257C5.13057 14.0384 5.08309 13.8353 5.07813 13.6289C5.07317 13.4225 5.11084 13.2173 5.18878 13.0261C5.26672 12.8349 5.38325 12.6618 5.5311 12.5177C5.67895 12.3736 5.85493 12.2615 6.04805 12.1885C6.24117 12.1154 6.44728 12.083 6.65349 12.0933H6.72542C6.9309 12.0731 7.13833 12.0956 7.33474 12.1593C7.53114 12.2229 7.7123 12.3264 7.8669 12.4633C8.0215 12.6001 8.14621 12.7674 8.23324 12.9546C8.32027 13.1419 8.36775 13.345 8.37271 13.5515C8.37767 13.7579 8.34 13.9631 8.26206 14.1543C8.18412 14.3455 8.06759 14.5185 7.91974 14.6626C7.77189 14.8068 7.59591 14.9188 7.40279 14.9919C7.20967 15.0649 7.00356 15.0973 6.79734 15.0871H6.72542ZM17.7117 15.0871C17.4144 15.0871 17.1238 14.9988 16.8767 14.8334C16.6296 14.668 16.4372 14.433 16.3238 14.1581C16.2104 13.8833 16.1812 13.5809 16.2399 13.2894C16.2985 12.9979 16.4424 12.7304 16.6533 12.5208C16.8642 12.3112 17.1325 12.1689 17.4244 12.112C17.7162 12.0551 18.0184 12.0861 18.2926 12.2011C18.5667 12.3162 18.8006 12.51 18.9645 12.7581C19.1284 13.0062 19.2149 13.2973 19.2131 13.5947C19.2039 13.9906 19.0412 14.3676 18.7594 14.646C18.4777 14.9244 18.0988 15.0825 17.7028 15.0871H17.7117ZM5.22401 10.0974L6.72542 5.60215H17.7028L19.2042 10.0974H5.22401Z" fill="#333333"/>
</svg>
