<svg width="24" height="24" viewBox="0 0 24 24" fill="none" xmlns="http://www.w3.org/2000/svg">
<path fill-rule="evenodd" clip-rule="evenodd" d="M2.22701 7.76055C2.22701 7.41116 2.29582 7.06519 2.42953 6.7424C2.56323 6.41961 2.75921 6.12631 3.00627 5.87926C3.25332 5.6322 3.54662 5.43623 3.86941 5.30252C4.1922 5.16882 4.53816 5.1 4.88755 5.1H19.5664C20.2721 5.1 20.9488 5.38031 21.4477 5.87926C21.9467 6.37821 22.227 7.05493 22.227 7.76055V16.9349C22.227 17.6405 21.9467 18.3172 21.4477 18.8162C20.9488 19.3151 20.2721 19.5954 19.5664 19.5954H4.88755C4.53816 19.5954 4.1922 19.5266 3.86941 19.3929C3.54662 19.2592 3.25332 19.0632 3.00627 18.8162C2.75921 18.5691 2.56323 18.2758 2.42953 17.953C2.29582 17.6302 2.22701 17.2842 2.22701 16.9349V7.76055ZM4.88755 6.75137C4.6199 6.75137 4.36321 6.8577 4.17396 7.04695C3.9847 7.23621 3.87838 7.4929 3.87838 7.76055V8.76972H20.5756V7.76055C20.5756 7.4929 20.4693 7.23621 20.28 7.04695C20.0908 6.8577 19.8341 6.75137 19.5664 6.75137H4.88755ZM20.5756 10.4211H3.87838V16.9349C3.87838 17.2025 3.9847 17.4592 4.17396 17.6485C4.36321 17.8377 4.6199 17.944 4.88755 17.944H19.5664C19.8341 17.944 20.0908 17.8377 20.28 17.6485C20.4693 17.4592 20.5756 17.2025 20.5756 16.9349V10.4211ZM13.2362 15.1C13.2362 14.881 13.3232 14.671 13.478 14.5161C13.6329 14.3613 13.8429 14.2743 14.0619 14.2743H17.7316C17.9506 14.2743 18.1606 14.3613 18.3154 14.5161C18.4703 14.671 18.5573 14.881 18.5573 15.1C18.5573 15.319 18.4703 15.529 18.3154 15.6838C18.1606 15.8387 17.9506 15.9257 17.7316 15.9257H14.0619C13.8429 15.9257 13.6329 15.8387 13.478 15.6838C13.3232 15.529 13.2362 15.319 13.2362 15.1Z" fill="#333333"/>
</svg>
