<svg width="24" height="24" viewBox="0 0 24 24" fill="none" xmlns="http://www.w3.org/2000/svg">
<path fill-rule="evenodd" clip-rule="evenodd" d="M19.4997 5.10001H4.95428C4.23096 5.10001 3.53727 5.38734 3.0258 5.89881C2.51434 6.41027 2.22701 7.10396 2.22701 7.82728V8.82728H22.227V7.82728C22.227 7.10396 21.9397 6.41027 21.4282 5.89881C20.9167 5.38734 20.2231 5.10001 19.4997 5.10001ZM2.22701 16.9182V10.4636H22.227V16.9182C22.227 17.6415 21.9397 18.3352 21.4282 18.8467C20.9167 19.3581 20.2231 19.6455 19.4997 19.6455H4.95428C4.23096 19.6455 3.53727 19.3581 3.0258 18.8467C2.51434 18.3352 2.22701 17.6415 2.22701 16.9182ZM13.1361 14.2818C12.9191 14.2818 12.711 14.368 12.5576 14.5215C12.4041 14.6749 12.3179 14.883 12.3179 15.1C12.3179 15.317 12.4041 15.5251 12.5576 15.6785C12.711 15.832 12.9191 15.9182 13.1361 15.9182H17.6816C17.8985 15.9182 18.1067 15.832 18.2601 15.6785C18.4135 15.5251 18.4997 15.317 18.4997 15.1C18.4997 14.883 18.4135 14.6749 18.2601 14.5215C18.1067 14.368 17.8985 14.2818 17.6816 14.2818H13.1361Z" fill="#333333"/>
</svg>
