<svg width="24" height="24" viewBox="0 0 24 24" fill="none" xmlns="http://www.w3.org/2000/svg">
<path fill-rule="evenodd" clip-rule="evenodd" d="M2.22701 3.92275C2.22701 3.70455 2.31321 3.49528 2.46665 3.34098C2.62009 3.18668 2.82819 3.1 3.04518 3.1H4.86336C5.04274 3.09948 5.21731 3.15825 5.36022 3.26727C5.50312 3.37629 5.60645 3.52951 5.65428 3.70335L6.24518 5.87908L19.4634 6.79324C19.67 6.80927 19.8631 6.9027 20.0045 7.05506C20.1459 7.20742 20.2253 7.4076 20.227 7.616V13.101C20.2276 13.3086 20.1502 13.5087 20.0103 13.6613C19.8704 13.8139 19.6782 13.9076 19.4725 13.9238L7.65428 14.8379C7.46457 14.8515 7.27603 14.7988 7.12039 14.689C6.96474 14.5791 6.8515 14.4186 6.79973 14.2346L4.81792 6.92123L4.2361 4.78207H3.04518C2.82819 4.78207 2.62009 4.69539 2.46665 4.54109C2.31321 4.3868 2.22701 4.17753 2.22701 3.95932V3.92275ZM9.29064 8.29248C9.22501 8.09591 9.08797 7.9315 8.90697 7.83217C8.72596 7.73283 8.51434 7.70588 8.31443 7.75671C8.11451 7.80755 7.94106 7.93242 7.82877 8.10634C7.71648 8.28026 7.67364 8.4904 7.70882 8.69472L8.61791 12.3514C8.68355 12.548 8.82057 12.7124 9.00157 12.8117C9.18258 12.911 9.39421 12.938 9.59413 12.8872C9.79404 12.8363 9.9675 12.7115 10.0798 12.5375C10.1921 12.3636 10.2349 12.1535 10.1997 11.9492L9.29064 8.29248ZM12.4725 7.90853C12.6841 7.88234 12.8976 7.9403 13.0675 8.07008C13.2373 8.19986 13.35 8.39119 13.3815 8.6033L13.8361 11.8029C13.8558 11.9116 13.8535 12.0231 13.8294 12.1309C13.8053 12.2387 13.7598 12.3405 13.6957 12.4302C13.6316 12.52 13.5502 12.5958 13.4564 12.6532C13.3625 12.7107 13.2581 12.7485 13.1494 12.7645C13.0407 12.7804 12.9299 12.7742 12.8236 12.7462C12.7174 12.7182 12.6178 12.6689 12.5309 12.6013C12.4439 12.5338 12.3714 12.4493 12.3177 12.353C12.2639 12.2566 12.23 12.1504 12.2179 12.0406L11.7634 8.84098C11.7373 8.62811 11.795 8.41342 11.924 8.24266C12.0531 8.0719 12.2433 7.95857 12.4543 7.92681L12.4725 7.90853ZM17.4997 8.95068C17.4997 8.73248 17.4135 8.52321 17.2601 8.36891C17.1066 8.21461 16.8985 8.12793 16.6815 8.12793C16.4645 8.12793 16.2564 8.21461 16.103 8.36891C15.9496 8.52321 15.8634 8.73248 15.8634 8.95068V11.6932C15.8634 11.9114 15.9496 12.1207 16.103 12.275C16.2564 12.4293 16.4645 12.5159 16.6815 12.5159C16.8985 12.5159 17.1066 12.4293 17.2601 12.275C17.4135 12.1207 17.4997 11.9114 17.4997 11.6932V8.95068ZM11.227 17.6353C11.227 17.9969 11.1204 18.3504 10.9206 18.6511C10.7208 18.9517 10.4368 19.1861 10.1046 19.3245C9.77237 19.4628 9.40681 19.499 9.05412 19.4285C8.70143 19.358 8.37744 19.1838 8.12317 18.9281C7.86889 18.6724 7.69573 18.3466 7.62558 17.992C7.55542 17.6373 7.59143 17.2697 7.72904 16.9356C7.86666 16.6015 8.0997 16.316 8.3987 16.1151C8.6977 15.9142 9.04921 15.807 9.40881 15.807C9.89103 15.807 10.3535 15.9996 10.6945 16.3425C11.0354 16.6853 11.227 17.1504 11.227 17.6353ZM16.6815 19.4636C17.0411 19.4636 17.3927 19.3564 17.6917 19.1555C17.9907 18.9546 18.2237 18.669 18.3613 18.335C18.4989 18.0009 18.5349 17.6333 18.4648 17.2786C18.3946 16.9239 18.2215 16.5982 17.9672 16.3425C17.7129 16.0868 17.3889 15.9126 17.0363 15.8421C16.6836 15.7715 16.318 15.8077 15.9858 15.9461C15.6535 16.0845 15.3696 16.3189 15.1698 16.6195C14.97 16.9202 14.8634 17.2737 14.8634 17.6353C14.8634 18.1202 15.0549 18.5852 15.3959 18.9281C15.7369 19.271 16.1993 19.4636 16.6815 19.4636Z" fill="#333333"/>
</svg>
