<svg width="24" height="24" viewBox="0 0 24 24" fill="none" xmlns="http://www.w3.org/2000/svg">
<path d="M11.0255 13.2747H18.6699C18.6672 14.7857 18.2174 16.262 17.3771 17.5177C16.5368 18.7735 15.3436 19.7524 13.9478 20.3311C12.5403 20.9208 10.987 21.0699 9.49304 20.7587C7.60787 20.415 5.92086 19.3751 4.76687 17.8452C3.61287 16.3154 3.07626 14.4077 3.2636 12.5006C3.45094 10.5935 4.34854 8.82659 5.77816 7.55058C7.20778 6.27457 9.0649 5.58277 10.9809 5.61249L11.0255 13.2747ZM20.5854 8.19626C20.1689 7.19898 19.5639 6.29143 18.8035 5.52339C17.252 3.9751 15.1508 3.10384 12.9589 3.1V11.377H21.2269C21.2326 10.2875 21.0269 9.20731 20.621 8.19626H20.5854Z" fill="#1A1A1A"/>
</svg>
