<svg width="24" height="24" viewBox="0 0 24 24" fill="none" xmlns="http://www.w3.org/2000/svg">
<path d="M8.26768 9.50864C7.99214 9.50864 7.72277 9.59036 7.49367 9.74344C7.26456 9.89653 7.08599 10.1141 6.98055 10.3687C6.8751 10.6233 6.84751 10.9034 6.90127 11.1736C6.95502 11.4439 7.0877 11.6921 7.28254 11.887C7.47738 12.0818 7.72564 12.2145 7.99589 12.2683C8.26614 12.322 8.54626 12.2944 8.80083 12.189C9.0554 12.0836 9.27298 11.905 9.42606 11.6759C9.57915 11.4467 9.66087 11.1774 9.66087 10.9018C9.66087 10.5323 9.51408 10.178 9.25281 9.91674C8.99154 9.65547 8.63718 9.50864 8.26768 9.50864Z" fill="#1A1A1A"/>
<path d="M16.6268 9.50864C16.3513 9.50864 16.0819 9.59036 15.8528 9.74344C15.6237 9.89653 15.4451 10.1141 15.3397 10.3687C15.2342 10.6233 15.2066 10.9034 15.2604 11.1736C15.3141 11.4439 15.4468 11.6921 15.6417 11.887C15.8365 12.0818 16.0848 12.2145 16.355 12.2683C16.6253 12.322 16.9054 12.2944 17.16 12.189C17.4145 12.0836 17.6321 11.905 17.7852 11.6759C17.9383 11.4467 18.02 11.1774 18.02 10.9018C18.02 10.5323 17.8732 10.178 17.6119 9.91674C17.3507 9.65547 16.9963 9.50864 16.6268 9.50864Z" fill="#1A1A1A"/>
<path d="M12.4472 9.50864C12.1717 9.50864 11.9023 9.59036 11.6732 9.74344C11.4441 9.89653 11.2656 10.1141 11.1601 10.3687C11.0547 10.6233 11.0271 10.9034 11.0808 11.1736C11.1346 11.4439 11.2673 11.6921 11.4621 11.887C11.6569 12.0818 11.9052 12.2145 12.1754 12.2683C12.4457 12.322 12.7258 12.2944 12.9804 12.189C13.235 12.0836 13.4525 11.905 13.6056 11.6759C13.7587 11.4467 13.8404 11.1774 13.8404 10.9018C13.8404 10.5323 13.6936 10.178 13.4324 9.91674C13.1711 9.65547 12.8167 9.50864 12.4472 9.50864Z" fill="#1A1A1A"/>
<path d="M20.6113 4.76252C20.4247 4.5294 20.2129 4.3176 19.9797 4.13095C18.7259 3.09999 17.0912 3.10001 13.8404 3.10001H11.5185C7.80329 3.10001 5.9457 3.1 4.58967 4.42817C3.23363 5.75634 3.25221 7.63247 3.25221 11.3662V18.4622C3.18638 19.0202 3.24994 19.586 3.43796 20.1155C3.58401 20.4118 3.8103 20.6611 4.09107 20.8352C4.37185 21.0092 4.69585 21.101 5.0262 21.1C5.21588 21.1009 5.40434 21.0694 5.58348 21.0071C6.09156 20.7614 6.53882 20.4061 6.89307 19.9668C7.12539 19.7126 7.37692 19.4766 7.6454 19.2609C8.01756 18.9851 8.45095 18.8035 8.90856 18.7316C9.25503 18.7121 9.60232 18.7121 9.9488 18.7316H13.8404C17.0912 18.7316 18.7259 18.7315 19.9797 17.7006C20.2084 17.509 20.4198 17.2977 20.6113 17.069C21.6144 15.8059 21.6144 14.1526 21.6144 10.9018C21.6144 7.65105 21.6144 6.01639 20.6113 4.76252ZM19.3203 15.973C19.2039 16.1219 19.0698 16.256 18.9209 16.3724C18.1222 17.0319 16.6918 17.0319 13.8404 17.0319H9.9488C9.51584 17.0032 9.08144 17.0032 8.64848 17.0319C7.9255 17.1466 7.24066 17.4332 6.65159 17.8678C6.32049 18.135 6.01001 18.4269 5.72279 18.7408L5.07264 19.3817H4.97048C4.95211 19.0724 4.95211 18.7622 4.97048 18.4529V11.357C4.97048 8.08763 4.97048 6.44364 5.81568 5.60773C6.66088 4.77181 8.30483 4.76252 11.5649 4.76252H13.8869C16.7383 4.76252 18.1686 4.76253 18.9674 5.41269C19.1141 5.53151 19.2479 5.66536 19.3667 5.81206C20.0169 6.61082 20.0169 8.04119 20.0169 10.8926C20.0169 13.744 19.9705 15.1836 19.3203 15.973Z" fill="#1A1A1A"/>
</svg>
