<svg width="24" height="24" viewBox="0 0 24 24" fill="none" xmlns="http://www.w3.org/2000/svg">
<path d="M20.9887 7.37389L9.96777 18.3948C9.89915 18.4658 9.81691 18.5223 9.726 18.5609C9.6351 18.5994 9.53737 18.6193 9.43862 18.6193C9.33987 18.6193 9.24214 18.5994 9.15123 18.5609C9.06033 18.5223 8.97809 18.4658 8.90947 18.3948L3.44448 12.8885C3.30513 12.7476 3.22699 12.5575 3.22699 12.3594C3.22699 12.1612 3.30513 11.9711 3.44448 11.8302C3.58393 11.6914 3.77271 11.6134 3.96949 11.6134C4.16627 11.6134 4.35505 11.6914 4.4945 11.8302L9.45517 16.7909L19.98 6.32387C20.0479 6.25309 20.1295 6.19679 20.2197 6.15832C20.3099 6.11985 20.407 6.10001 20.505 6.10001C20.6031 6.10001 20.7002 6.11985 20.7904 6.15832C20.8806 6.19679 20.9622 6.25309 21.0301 6.32387C21.1636 6.46871 21.2342 6.6606 21.2264 6.85743C21.2187 7.05426 21.1331 7.23998 20.9887 7.37389Z" fill="#1A1A1A"/>
</svg>
