<svg width="24" height="24" viewBox="0 0 24 24" fill="none" xmlns="http://www.w3.org/2000/svg">
<path fill-rule="evenodd" clip-rule="evenodd" d="M12.127 2.90001C7.1012 2.90001 3.02699 6.97421 3.02699 12C3.02699 17.0258 7.1012 21.1 12.127 21.1C17.1528 21.1 21.227 17.0258 21.227 12C21.227 6.97421 17.1528 2.90001 12.127 2.90001ZM1.22699 12C1.22699 5.9801 6.10709 1.10001 12.127 1.10001C18.1469 1.10001 23.027 5.9801 23.027 12C23.027 18.0199 18.1469 22.9 12.127 22.9C6.10709 22.9 1.22699 18.0199 1.22699 12ZM12.127 5.60001C12.624 5.60001 13.027 6.00295 13.027 6.50001V11.6272L15.7634 14.3636C16.1149 14.7151 16.1149 15.2849 15.7634 15.6364C15.4119 15.9879 14.8421 15.9879 14.4906 15.6364L11.4906 12.6364C11.3218 12.4676 11.227 12.2387 11.227 12V6.50001C11.227 6.00295 11.6299 5.60001 12.127 5.60001Z" fill="#333333"/>
</svg>
