<svg width="24" height="24" viewBox="0 0 24 24" fill="none" xmlns="http://www.w3.org/2000/svg">
<path fill-rule="evenodd" clip-rule="evenodd" d="M12 22C13.9778 22 15.9112 21.4135 17.5557 20.3147C19.2002 19.2159 20.4819 17.6541 21.2388 15.8268C21.9957 13.9996 22.1937 11.9889 21.8079 10.0491C21.422 8.10928 20.4696 6.32745 19.0711 4.92893C17.6726 3.5304 15.8907 2.578 13.9509 2.19214C12.0111 1.80629 10.0004 2.00433 8.17316 2.7612C6.3459 3.51808 4.78412 4.7998 3.6853 6.44429C2.58649 8.08879 2 10.0222 2 12C2 14.6522 3.05356 17.1957 4.92892 19.0711C6.80429 20.9464 9.34784 22 12 22ZM12.9 6.5C12.9 6.2613 12.8052 6.03238 12.6364 5.8636C12.4676 5.69482 12.2387 5.6 12 5.6C11.7613 5.6 11.5324 5.69482 11.3636 5.8636C11.1948 6.03238 11.1 6.2613 11.1 6.5V12C11.1023 12.2386 11.1953 12.4674 11.36 12.64L14.36 15.64C14.5348 15.7818 14.7558 15.8537 14.9805 15.8421C15.2052 15.8304 15.4176 15.7359 15.5768 15.5768C15.7359 15.4176 15.8304 15.2052 15.8421 14.9805C15.8538 14.7558 15.7818 14.5347 15.64 14.36L12.9 11.6V6.5Z" fill="#333333"/>
</svg>
