<svg width="24" height="24" viewBox="0 0 24 24" fill="none" xmlns="http://www.w3.org/2000/svg">
<path fill-rule="evenodd" clip-rule="evenodd" d="M10.127 1.10001C10.624 1.10001 11.027 1.50295 11.027 2.00001V8.82721L13.4906 6.36361C13.8421 6.01214 14.4119 6.01214 14.7634 6.36361C15.1149 6.71508 15.1149 7.28493 14.7634 7.6364L10.7634 11.6364C10.4119 11.9879 9.84207 11.9879 9.49059 11.6364L5.49059 7.6364C5.13912 7.28493 5.13912 6.71508 5.49059 6.36361C5.84207 6.01214 6.41191 6.01214 6.76339 6.36361L9.22699 8.82721V2.00001C9.22699 1.50295 9.62993 1.10001 10.127 1.10001ZM13.4906 11.3636C13.8421 11.0121 14.4119 11.0121 14.7634 11.3636L18.7634 15.3636C19.1149 15.7151 19.1149 16.2849 18.7634 16.6364C18.4119 16.9879 17.8421 16.9879 17.4906 16.6364L15.027 14.1728V21C15.027 21.4971 14.624 21.9 14.127 21.9C13.6299 21.9 13.227 21.4971 13.227 21V14.1728L10.7634 16.6364C10.4119 16.9879 9.84207 16.9879 9.49059 16.6364C9.13912 16.2849 9.13912 15.7151 9.49059 15.3636L13.4906 11.3636Z" fill="#333333"/>
</svg>
