<svg width="24" height="24" viewBox="0 0 24 24" fill="none" xmlns="http://www.w3.org/2000/svg">
<path d="M18.93 7.00005H17.83V5.90005C17.8274 4.86652 17.4156 3.87607 16.6848 3.14525C15.954 2.41443 14.9635 2.00269 13.93 2.00005H5.92999C5.41568 1.99742 4.90591 2.09628 4.42987 2.29097C3.95383 2.48566 3.52089 2.77236 3.15582 3.13464C2.79076 3.49692 2.50076 3.92766 2.30243 4.4022C2.1041 4.87673 2.00131 5.38574 2 5.90005V13.9001C2.00264 14.9336 2.41438 15.924 3.1452 16.6549C3.87602 17.3857 4.86649 17.7974 5.90002 17.8001H7V18.9001C7 19.6692 7.30551 20.4068 7.84937 20.9507C8.39322 21.4945 9.1309 21.8001 9.90002 21.8001H18.9C19.6683 21.7974 20.4044 21.491 20.9477 20.9478C21.491 20.4045 21.7974 19.6684 21.8 18.9001V9.90005C21.7974 9.13689 21.4952 8.40526 20.9584 7.86282C20.4215 7.32038 19.6931 7.01054 18.93 7.00005ZM5.92999 16.0001C5.37304 16.0001 4.83889 15.7788 4.44507 15.385C4.05124 14.9911 3.83002 14.457 3.83002 13.9001V5.90005C3.83002 5.3431 4.05124 4.80895 4.44507 4.41513C4.83889 4.0213 5.37304 3.80005 5.92999 3.80005H13.93C14.4809 3.81049 15.0059 4.03603 15.3927 4.42845C15.7795 4.82087 15.9975 5.34904 16 5.90005V7.00005H9.90002C9.1309 7.00005 8.39322 7.30559 7.84937 7.84944C7.30551 8.3933 7 9.13092 7 9.90005V16.0001H5.92999Z" fill="black"/>
</svg>
