<svg width="24" height="24" viewBox="0 0 24 24" fill="none" xmlns="http://www.w3.org/2000/svg">
<path fill-rule="evenodd" clip-rule="evenodd" d="M11.2615 1.21326C11.5333 1.06225 11.8639 1.06225 12.1357 1.21326L20.7071 5.97517C20.9928 6.1339 21.17 6.43506 21.17 6.76191V17.2381C21.17 17.565 20.9928 17.8661 20.7071 18.0248L12.1357 22.7867C11.8639 22.9378 11.5333 22.9378 11.2615 22.7867L2.69009 18.0248C2.40437 17.8661 2.22717 17.565 2.22717 17.2381V6.76191C2.22717 6.43506 2.40437 6.1339 2.69009 5.97517L11.2615 1.21326ZM4.02717 7.29147V16.7085L11.6986 20.9704L19.37 16.7085V7.29147L11.6986 3.02957L4.02717 7.29147Z" fill="#333333"/>
<path fill-rule="evenodd" clip-rule="evenodd" d="M2.34043 6.32483C2.58182 5.89033 3.12974 5.73378 3.56425 5.97517L11.6986 10.4943L19.8329 5.97517C20.2675 5.73378 20.8154 5.89033 21.0568 6.32483C21.2982 6.75934 21.1416 7.30726 20.7071 7.54865L12.5986 12.0534V22C12.5986 22.4971 12.1957 22.9 11.6986 22.9C11.2015 22.9 10.7986 22.4971 10.7986 22V12.0534L2.69009 7.54865C2.25559 7.30726 2.09904 6.75934 2.34043 6.32483Z" fill="#333333"/>
</svg>
