<svg width="24" height="24" viewBox="0 0 24 24" fill="none" xmlns="http://www.w3.org/2000/svg">
<path fill-rule="evenodd" clip-rule="evenodd" d="M4.50001 3.39999C4.20827 3.39999 3.92848 3.51588 3.72219 3.72217C3.5159 3.92846 3.40001 4.20825 3.40001 4.49999V6.49999C3.40001 6.79173 3.5159 7.07152 3.72219 7.27781C3.92848 7.4841 4.20827 7.59999 4.50001 7.59999H8.50001C8.79175 7.59999 9.07154 7.4841 9.27783 7.27781C9.48411 7.07152 9.60001 6.79173 9.60001 6.49999V4.49999C9.60001 4.20825 9.48411 3.92846 9.27783 3.72217C9.07154 3.51588 8.79175 3.39999 8.50001 3.39999H4.50001ZM2.44939 2.44938C2.99325 1.90552 3.73088 1.59999 4.50001 1.59999H8.50001C9.26913 1.59999 10.0068 1.90552 10.5506 2.44938C11.0945 2.99324 11.4 3.73087 11.4 4.49999V6.49999C11.4 7.26912 11.0945 8.00674 10.5506 8.5506C10.0068 9.09446 9.26913 9.39999 8.50001 9.39999H4.50001C3.73088 9.39999 2.99325 9.09446 2.44939 8.5506C1.90554 8.00674 1.60001 7.26912 1.60001 6.49999V4.49999C1.60001 3.73087 1.90554 2.99324 2.44939 2.44938ZM13.4494 2.44938C13.9933 1.90552 14.7309 1.59999 15.5 1.59999H19.5C20.2691 1.59999 21.0068 1.90552 21.5506 2.44938C22.0945 2.99324 22.4 3.73087 22.4 4.49999V10.5C22.4 11.2691 22.0945 12.0067 21.5506 12.5506C21.0068 13.0945 20.2691 13.4 19.5 13.4H15.5C14.7309 13.4 13.9933 13.0945 13.4494 12.5506C12.9055 12.0067 12.6 11.2691 12.6 10.5V4.49999C12.6 3.73087 12.9055 2.99324 13.4494 2.44938ZM15.5 3.39999C15.2083 3.39999 14.9285 3.51588 14.7222 3.72217C14.5159 3.92846 14.4 4.20825 14.4 4.49999V10.5C14.4 10.7917 14.5159 11.0715 14.7222 11.2778C14.9285 11.4841 15.2083 11.6 15.5 11.6H19.5C19.7917 11.6 20.0715 11.4841 20.2778 11.2778C20.4841 11.0715 20.6 10.7917 20.6 10.5V4.49999C20.6 4.20825 20.4841 3.92846 20.2778 3.72217C20.0715 3.51588 19.7917 3.39999 19.5 3.39999H15.5ZM2.44939 11.4494C2.99325 10.9055 3.73088 10.6 4.50001 10.6H8.50001C9.26913 10.6 10.0068 10.9055 10.5506 11.4494C11.0945 11.9932 11.4 12.7309 11.4 13.5V19.5C11.4 20.2691 11.0945 21.0067 10.5506 21.5506C10.0068 22.0945 9.26913 22.4 8.50001 22.4H4.50001C3.73088 22.4 2.99325 22.0945 2.44939 21.5506C1.90554 21.0067 1.60001 20.2691 1.60001 19.5V13.5C1.60001 12.7309 1.90554 11.9932 2.44939 11.4494ZM4.50001 12.4C4.20827 12.4 3.92848 12.5159 3.72219 12.7222C3.5159 12.9285 3.40001 13.2083 3.40001 13.5V19.5C3.40001 19.7917 3.5159 20.0715 3.72219 20.2778C3.92848 20.4841 4.20827 20.6 4.50001 20.6H8.50001C8.79175 20.6 9.07154 20.4841 9.27783 20.2778C9.48411 20.0715 9.60001 19.7917 9.60001 19.5V13.5C9.60001 13.2083 9.48411 12.9285 9.27783 12.7222C9.07154 12.5159 8.79175 12.4 8.50001 12.4H4.50001ZM13.4494 15.4494C13.9933 14.9055 14.7309 14.6 15.5 14.6H19.5C20.2691 14.6 21.0068 14.9055 21.5506 15.4494C22.0945 15.9932 22.4 16.7309 22.4 17.5V19.5C22.4 20.2691 22.0945 21.0067 21.5506 21.5506C21.0068 22.0945 20.2691 22.4 19.5 22.4H15.5C14.7309 22.4 13.9933 22.0945 13.4494 21.5506C12.9055 21.0067 12.6 20.2691 12.6 19.5V17.5C12.6 16.7309 12.9055 15.9932 13.4494 15.4494ZM15.5 16.4C15.2083 16.4 14.9285 16.5159 14.7222 16.7222C14.5159 16.9285 14.4 17.2083 14.4 17.5V19.5C14.4 19.7917 14.5159 20.0715 14.7222 20.2778C14.9285 20.4841 15.2083 20.6 15.5 20.6H19.5C19.7917 20.6 20.0715 20.4841 20.2778 20.2778C20.4841 20.0715 20.6 19.7917 20.6 19.5V17.5C20.6 17.2083 20.4841 16.9285 20.2778 16.7222C20.0715 16.5159 19.7917 16.4 19.5 16.4H15.5Z" fill="#333333"/>
</svg>
