<svg width="24" height="24" viewBox="0 0 24 24" fill="none" xmlns="http://www.w3.org/2000/svg">
<path d="M21.1743 9.41284L8.33028 4.82569C8.33028 4.82569 2.82569 4.82569 2.82569 9.41284H6.0367C7.05006 9.41284 7.87156 10.2343 7.87156 11.2477V14V15.6055C7.87156 15.9855 8.17962 16.2936 8.55963 16.2936C8.93965 16.2936 9.24771 15.9855 9.24771 15.6055V14V11.2477C9.24771 10.2343 10.0692 9.41284 11.0826 9.41284H21.1743Z" fill="#333333"/>
<path fill-rule="evenodd" clip-rule="evenodd" d="M8.33028 4C8.42492 4 8.51886 4.01627 8.60798 4.0481L21.452 8.63526C21.7806 8.75262 22 9.0639 22 9.41284V18.5872C22 19.0432 21.6303 19.4128 21.1743 19.4128H2.82569C2.36967 19.4128 2 19.0432 2 18.5872V9.41284C2 8.0869 2.40274 7.04294 3.04103 6.24509C3.66895 5.46019 4.48765 4.95889 5.26041 4.63691C6.03394 4.31461 6.79594 4.15739 7.3566 4.07952C7.63906 4.04029 7.87586 4.02047 8.04469 4.01042C8.12923 4.00539 8.19709 4.00278 8.24553 4.00144C8.26976 4.00077 8.28916 4.00041 8.30339 4.00021L8.32083 4.00004L8.32656 4.00001L8.32867 4L8.33028 4C8.33065 4 8.33028 4 8.33028 4.82569V4ZM8.1996 5.65578C8.18222 5.65664 8.16326 5.65766 8.14281 5.65888C8.01061 5.66675 7.81736 5.68276 7.58377 5.7152C7.11231 5.78068 6.49817 5.91016 5.89555 6.16126C5.29217 6.41267 4.73472 6.77147 4.33053 7.2767C4.05988 7.61501 3.84047 8.04021 3.7297 8.58716H6.0367C7.21001 8.58716 8.20593 9.34666 8.55963 10.4009C8.91334 9.34666 9.90926 8.58716 11.0826 8.58716H16.4074L8.1996 5.65578ZM20.3486 10.2385H11.0826C10.5252 10.2385 10.0734 10.6904 10.0734 11.2477V13.1743H20.3486V10.2385ZM20.3486 14.8257H10.0734V15.6055C10.0734 16.4415 9.39566 17.1193 8.55963 17.1193C7.72361 17.1193 7.04587 16.4415 7.04587 15.6055V14.8257H3.65138V17.7615H20.3486V14.8257ZM3.65138 13.1743H7.04587V11.2477C7.04587 10.6904 6.59405 10.2385 6.0367 10.2385H3.65138V13.1743Z" fill="#333333"/>
</svg>
