<svg width="24" height="24" viewBox="0 0 24 24" fill="none" xmlns="http://www.w3.org/2000/svg">
<path fill-rule="evenodd" clip-rule="evenodd" d="M4.45575 3.11734C4.24983 3.73252 4.18175 4.38546 4.25633 5.02989V19.1701C4.18175 19.8145 4.24983 20.4675 4.45575 21.0827C4.62922 21.4219 4.90514 21.6978 5.24433 21.8713C5.85952 22.0772 6.51246 22.1453 7.15689 22.0707H15.8586C16.503 22.1453 17.1559 22.0772 17.7711 21.8713C18.1103 21.6978 18.3862 21.4219 18.5597 21.0827C18.7656 20.4675 18.8337 19.8145 18.7591 19.1701V8.47431H15.3147C14.6703 8.54889 14.0173 8.48081 13.4022 8.27489C13.063 8.10142 12.787 7.8255 12.6136 7.48631C12.4077 6.87112 12.3396 6.21818 12.4142 5.57375V2.12934H7.15689C6.51246 2.05475 5.85952 2.12283 5.24433 2.32875C4.90514 2.50222 4.62922 2.77814 4.45575 3.11734ZM7.88203 12.9158H15.1334C15.3498 12.9158 15.5573 12.8298 15.7103 12.6769C15.8633 12.5239 15.9492 12.3164 15.9492 12.1C15.9492 11.8836 15.8633 11.6761 15.7103 11.5232C15.5573 11.3702 15.3498 11.2842 15.1334 11.2842H6.06918C5.85282 11.2842 5.64532 11.3702 5.49234 11.5232C5.33935 11.6761 5.2534 11.8836 5.2534 12.1C5.2534 12.3164 5.33935 12.5239 5.49234 12.6769C5.64532 12.8298 5.85282 12.9158 6.06918 12.9158H7.88203ZM5.2534 15.2725C5.2534 15.1654 5.2745 15.0593 5.3155 14.9603C5.3565 14.8613 5.41658 14.7714 5.49234 14.6956C5.56809 14.6199 5.65802 14.5598 5.757 14.5188C5.85597 14.4778 5.96205 14.4567 6.06918 14.4567H16.9463C17.1626 14.4567 17.3701 14.5427 17.5231 14.6956C17.6761 14.8486 17.7621 15.0561 17.7621 15.2725C17.7621 15.4889 17.6761 15.6964 17.5231 15.8493C17.3701 16.0023 17.1626 16.0883 16.9463 16.0883H6.06918C5.85282 16.0883 5.64532 16.0023 5.49234 15.8493C5.33935 15.6964 5.2534 15.4889 5.2534 15.2725ZM7.88203 17.6292C7.66567 17.6292 7.45817 17.7151 7.30519 17.8681C7.1522 18.0211 7.06625 18.2286 7.06625 18.445C7.06625 18.6613 7.1522 18.8688 7.30519 19.0218C7.45817 19.1748 7.66567 19.2608 7.88203 19.2608H11.5077C11.6149 19.2608 11.7209 19.2397 11.8199 19.1987C11.9189 19.1577 12.0088 19.0976 12.0846 19.0218C12.1603 18.9461 12.2204 18.8561 12.2614 18.7572C12.3024 18.6582 12.3235 18.5521 12.3235 18.445C12.3235 18.3378 12.3024 18.2318 12.2614 18.1328C12.2204 18.0338 12.1603 17.9439 12.0846 17.8681C12.0088 17.7924 11.9189 17.7323 11.8199 17.6913C11.7209 17.6503 11.6149 17.6292 11.5077 17.6292H7.88203Z" fill="black"/>
<g opacity="0.5">
<path opacity="0.5" d="M12.4142 5.57376V2.12935L18.7591 8.47432H15.3147C14.6703 8.5489 14.0173 8.48082 13.4022 8.27491C13.063 8.10144 12.787 7.82551 12.6136 7.48632C12.4077 6.87114 12.3396 6.21819 12.4142 5.57376Z" fill="black"/>
</g>
</svg>
