<svg width="24" height="24" viewBox="0 0 24 24" fill="none" xmlns="http://www.w3.org/2000/svg">
<path fill-rule="evenodd" clip-rule="evenodd" d="M7.00001 8.90001C6.70827 8.90001 6.42848 9.0159 6.22219 9.22219C6.0159 9.42848 5.90001 9.70827 5.90001 10V19C5.90001 19.2917 6.0159 19.5715 6.22219 19.7778C6.42848 19.9841 6.70827 20.1 7.00001 20.1H17C17.2917 20.1 17.5715 19.9841 17.7778 19.7778C17.9841 19.5715 18.1 19.2917 18.1 19V10C18.1 9.70827 17.9841 9.42848 17.7778 9.22219C17.5715 9.0159 17.2917 8.90001 17 8.90001H15.5C15.0029 8.90001 14.6 8.49706 14.6 8.00001C14.6 7.50295 15.0029 7.10001 15.5 7.10001H17C17.7691 7.10001 18.5068 7.40554 19.0506 7.94939C19.5945 8.49325 19.9 9.23088 19.9 10V19C19.9 19.7691 19.5945 20.5068 19.0506 21.0506C18.5068 21.5945 17.7691 21.9 17 21.9H7.00001C6.23088 21.9 5.49325 21.5945 4.94939 21.0506C4.40554 20.5068 4.10001 19.7691 4.10001 19V10C4.10001 9.23088 4.40554 8.49325 4.94939 7.94939C5.49325 7.40554 6.23088 7.10001 7.00001 7.10001H8.50001C8.99706 7.10001 9.40001 7.50295 9.40001 8.00001C9.40001 8.49706 8.99706 8.90001 8.50001 8.90001H7.00001Z" fill="#333333"/>
<path fill-rule="evenodd" clip-rule="evenodd" d="M12 2.10001C12.4971 2.10001 12.9 2.50295 12.9 3.00001V14.8272L15.3636 12.3636C15.7151 12.0121 16.2849 12.0121 16.6364 12.3636C16.9879 12.7151 16.9879 13.2849 16.6364 13.6364L12.6364 17.6364C12.2849 17.9879 11.7151 17.9879 11.3636 17.6364L7.36361 13.6364C7.01214 13.2849 7.01214 12.7151 7.36361 12.3636C7.71508 12.0121 8.28493 12.0121 8.6364 12.3636L11.1 14.8272V3.00001C11.1 2.50295 11.5029 2.10001 12 2.10001Z" fill="#333333"/>
</svg>
