<svg width="24" height="24" viewBox="0 0 24 24" fill="none" xmlns="http://www.w3.org/2000/svg">
<path fill-rule="evenodd" clip-rule="evenodd" d="M1.31952 2.25002C1.31952 2.01133 1.41435 1.78241 1.58313 1.61362C1.75191 1.44484 1.98082 1.35002 2.21951 1.35002H6.21951C6.38607 1.35118 6.54904 1.39853 6.69028 1.4868C6.83152 1.57508 6.94551 1.70082 7.01953 1.85002L9.01953 5.85002H12.8995C13.0847 4.82819 13.588 3.89096 14.3373 3.17199C15.0867 2.45302 16.0439 1.98905 17.0725 1.84624C18.1011 1.70344 19.1486 1.8891 20.0655 2.37675C20.9823 2.86439 21.7218 3.62911 22.1784 4.56184C22.635 5.49456 22.7854 6.54765 22.6081 7.57089C22.4309 8.59413 21.935 9.53527 21.1913 10.2601C20.4476 10.9849 19.494 11.4563 18.4665 11.6071C17.439 11.758 16.3902 11.5805 15.4695 11.1L14.9195 11.8L11.6195 16.06V20.85H13.7195C13.9582 20.85 14.1871 20.9448 14.3559 21.1136C14.5247 21.2824 14.6195 21.5113 14.6195 21.75C14.6195 21.9887 14.5247 22.2176 14.3559 22.3864C14.1871 22.5552 13.9582 22.65 13.7195 22.65H7.71951C7.48082 22.65 7.25191 22.5552 7.08313 22.3864C6.91435 22.2176 6.81952 21.9887 6.81952 21.75C6.81952 21.5113 6.91435 21.2824 7.08313 21.1136C7.25191 20.9448 7.48082 20.85 7.71951 20.85H9.81952V16.06L6.50952 11.8L3.00952 7.30002C2.93625 7.20721 2.88221 7.10072 2.85056 6.98679C2.8189 6.87286 2.81027 6.75376 2.82516 6.63646C2.84006 6.51915 2.87819 6.40599 2.93732 6.30358C2.99644 6.20118 3.07539 6.11158 3.16953 6.04002C3.32747 5.91885 3.52045 5.85218 3.71951 5.85002H7.00952L5.65952 3.15002H2.21951C1.98082 3.15002 1.75191 3.0552 1.58313 2.88642C1.41435 2.71763 1.31952 2.48872 1.31952 2.25002ZM16.6095 9.65002C17.1824 9.86894 17.8072 9.91304 18.4051 9.77676C19.003 9.64047 19.5471 9.32992 19.9684 8.88438C20.3898 8.43885 20.6696 7.87835 20.7723 7.27379C20.8751 6.66923 20.7963 6.04778 20.5458 5.48804C20.2953 4.9283 19.8844 4.45542 19.3651 4.12923C18.8459 3.80303 18.2415 3.63818 17.6285 3.65552C17.0155 3.67286 16.4215 3.87162 15.9214 4.22664C15.4214 4.58167 15.038 5.07701 14.8195 5.65002C14.8053 5.72274 14.7818 5.79331 14.7495 5.86002H17.7495C17.9882 5.86002 18.2171 5.95484 18.3859 6.12363C18.5547 6.29241 18.6495 6.52133 18.6495 6.76002C18.6473 6.95908 18.5807 7.15207 18.4595 7.31002L16.6095 9.65002ZM7.90952 7.65002H5.55951L7.65952 10.35H9.25952L7.90952 7.65002ZM11.2795 10.35H13.7795L15.8795 7.65002H9.9295L11.2795 10.35Z" fill="#333333"/>
</svg>
