<svg width="24" height="24" viewBox="0 0 24 24" fill="none" xmlns="http://www.w3.org/2000/svg">
<path fill-rule="evenodd" clip-rule="evenodd" d="M2.24799 1.35001C2.0093 1.35001 1.78039 1.44483 1.61161 1.61361C1.44283 1.78239 1.348 2.01131 1.348 2.25001C1.348 2.4887 1.44283 2.71762 1.61161 2.8864C1.78039 3.05518 2.0093 3.15001 2.24799 3.15001H5.688L7.038 5.85001H3.74799C3.5093 5.85001 3.28039 5.94483 3.11161 6.11361C2.94283 6.28239 2.848 6.51131 2.848 6.75001C2.85016 6.94907 2.91683 7.14206 3.038 7.30001L6.538 11.8L9.848 16.06V20.85H7.74799C7.5093 20.85 7.28039 20.9448 7.11161 21.1136C6.94283 21.2824 6.848 21.5113 6.848 21.75C6.848 21.9887 6.94283 22.2176 7.11161 22.3864C7.28039 22.5552 7.5093 22.65 7.74799 22.65H13.748C13.9867 22.65 14.2156 22.5552 14.3844 22.3864C14.5532 22.2176 14.648 21.9887 14.648 21.75C14.648 21.5113 14.5532 21.2824 14.3844 21.1136C14.2156 20.9448 13.9867 20.85 13.748 20.85H11.648V16.06L14.958 11.8L15.498 11.1C16.3588 11.5458 17.3324 11.7263 18.2958 11.6186C19.2591 11.5109 20.1689 11.1199 20.91 10.4951C21.651 9.87025 22.1902 9.03965 22.4591 8.10836C22.728 7.17707 22.7147 6.18693 22.4208 5.26321C22.1269 4.3395 21.5656 3.52371 20.8079 2.91906C20.0503 2.3144 19.1303 1.94805 18.1644 1.86635C17.1985 1.78465 16.2301 1.99127 15.3817 2.46007C14.5332 2.92887 13.8429 3.63879 13.398 4.50001C13.1775 4.92517 13.0192 5.37982 12.928 5.85001H9.098L7.098 1.85001C7.02398 1.7008 6.91002 1.57506 6.76878 1.48679C6.62753 1.39851 6.46457 1.35116 6.29801 1.35001H2.24799ZM14.778 5.85001H17.778C18.0167 5.85001 18.2456 5.94483 18.4144 6.11361C18.5832 6.28239 18.678 6.51131 18.678 6.75001C18.6758 6.94907 18.6092 7.14206 18.488 7.30001L16.668 9.65001C17.2408 9.86892 17.8657 9.91303 18.4636 9.77674C19.0615 9.64046 19.6056 9.3299 20.0269 8.88437C20.4483 8.43884 20.7281 7.87834 20.8308 7.27378C20.9336 6.66922 20.8547 6.04776 20.6043 5.48802C20.3538 4.92828 19.9429 4.4554 19.4236 4.12921C18.9043 3.80302 18.3 3.63817 17.687 3.65551C17.074 3.67285 16.4799 3.8716 15.9799 4.22663C15.4799 4.58165 15.0964 5.077 14.878 5.65001C14.8311 5.70895 14.797 5.77708 14.778 5.85001ZM5.58799 7.65001H7.938L9.288 10.35H7.688L5.58799 7.65001ZM13.808 10.35H11.308L9.95798 7.65001H15.908L13.808 10.35ZM10.748 12.15H12.408L10.748 14.28L9.098 12.15H10.748Z" fill="#333333"/>
</svg>
