<svg width="24" height="24" viewBox="0 0 24 24" fill="none" xmlns="http://www.w3.org/2000/svg">
<path fill-rule="evenodd" clip-rule="evenodd" d="M16.9906 3.36361C17.3421 3.01214 17.9119 3.01214 18.2634 3.36361L21.2634 6.36361C21.6149 6.71508 21.6149 7.28493 21.2634 7.6364L18.7634 10.1364C18.4119 10.4879 17.8421 10.4879 17.4906 10.1364L14.4906 7.1364C14.1391 6.78493 14.1391 6.21508 14.4906 5.86361L16.9906 3.36361ZM16.3998 6.50001L18.127 8.22721L19.3542 7.00001L17.627 5.2728L16.3998 6.50001ZM12.4906 7.86361C12.8421 7.51214 13.4119 7.51214 13.7634 7.86361L16.7634 10.8636C17.1149 11.2151 17.1149 11.7849 16.7634 12.1364L7.76339 21.1364C7.5946 21.3052 7.36568 21.4 7.12699 21.4H4.12699C3.62993 21.4 3.22699 20.9971 3.22699 20.5V17.5C3.22699 17.2613 3.32181 17.0324 3.49059 16.8636L12.4906 7.86361ZM5.02699 17.8728V19.6H6.7542L14.8542 11.5L13.127 9.7728L5.02699 17.8728Z" fill="#333333"/>
</svg>
