<svg width="24" height="24" viewBox="0 0 24 24" fill="none" xmlns="http://www.w3.org/2000/svg">
<path fill-rule="evenodd" clip-rule="evenodd" d="M18.963 9.0425C18.453 9.5525 18.193 9.8125 17.893 9.8625C17.7705 9.88247 17.6455 9.88247 17.523 9.8625C17.223 9.8125 16.963 9.5525 16.463 9.0425L14.963 7.5425C14.453 7.0325 14.193 6.7825 14.143 6.4725C14.113 6.35438 14.113 6.23062 14.143 6.1125C14.143 5.8125 14.453 5.5525 14.963 5.0425C15.473 4.5325 15.723 4.2825 16.023 4.2225C16.1455 4.20253 16.2705 4.20253 16.393 4.2225C16.693 4.2825 16.953 4.5325 17.463 5.0425L18.963 6.5425C19.463 7.0525 19.723 7.3025 19.783 7.6125C19.803 7.73167 19.803 7.85333 19.783 7.9725C19.723 8.2825 19.463 8.5325 18.963 9.0425ZM6.213 19.7925C5.263 19.7925 4.793 19.7925 4.503 19.5025C4.213 19.2125 4.213 18.7425 4.213 17.7925V16.6025C4.18612 16.3338 4.20987 16.0624 4.283 15.8025C4.41618 15.5681 4.58871 15.3584 4.79301 15.1825L11.293 8.6825C11.963 8.0225 12.293 7.6825 12.713 7.6825C13.133 7.6825 13.463 8.0225 14.123 8.6825L15.293 9.8625C15.963 10.5225 16.293 10.8625 16.293 11.2725C16.293 11.6825 15.963 12.0225 15.293 12.6825L8.79301 19.1825C8.62349 19.3893 8.41654 19.5623 8.183 19.6925C7.9245 19.773 7.65234 19.8003 7.38301 19.7725L6.213 19.7925Z" fill="#333333"/>
</svg>
