<svg width="24" height="24" viewBox="0 0 24 24" fill="none" xmlns="http://www.w3.org/2000/svg">
<g opacity="0.5">
<path opacity="0.5" d="M3.92098 8.996L6.21095 10.606L9.10097 12.606L9.58098 12.946L10.181 13.376C10.341 13.486 10.531 13.606 10.761 13.736C10.9633 13.8579 11.1778 13.9584 11.401 14.036C11.5811 14.0991 11.7701 14.1329 11.961 14.136C12.1518 14.1329 12.3409 14.0991 12.521 14.036C12.7433 13.9565 12.9576 13.856 13.161 13.736C13.381 13.606 13.581 13.486 13.741 13.376L14.341 12.946L14.811 12.606L20.101 8.996C20.631 8.61768 21.0883 8.1468 21.451 7.606C21.7989 7.11395 21.9905 6.52853 22.001 5.926C21.9958 5.45287 21.8055 5.0006 21.4709 4.66603C21.1364 4.33146 20.6841 4.1412 20.211 4.136H3.79097C3.53945 4.12263 3.28827 4.16809 3.05739 4.26877C2.82652 4.36945 2.6223 4.52258 2.46095 4.716C2.14317 5.13087 1.98046 5.6438 2.00096 6.166C2.03733 6.72468 2.25104 7.25718 2.61098 7.686C2.97422 8.19039 3.41659 8.63275 3.92098 8.996Z" fill="#333333"/>
</g>
<path d="M2.53098 19.336C2.35876 19.1752 2.22251 18.9799 2.13117 18.7627C2.03982 18.5455 1.99545 18.3115 2.00098 18.076V6.17599C2.03734 6.73467 2.25106 7.26717 2.61099 7.69599C2.9751 8.19679 3.41741 8.63574 3.92099 8.99599L6.21097 10.606L9.10099 12.606L9.581 12.946L10.181 13.376C10.341 13.486 10.531 13.606 10.761 13.736C10.9634 13.8579 11.1778 13.9584 11.401 14.036C11.5811 14.0991 11.7701 14.1329 11.961 14.136C12.1518 14.1329 12.3409 14.0991 12.521 14.036C12.7433 13.9565 12.9576 13.856 13.161 13.736C13.381 13.606 13.581 13.486 13.741 13.376L14.341 12.946L14.811 12.606L20.101 8.99599C20.631 8.61768 21.0883 8.1468 21.451 7.606C21.7989 7.11395 21.9905 6.52852 22.001 5.92599V18.076C22.001 18.5507 21.8124 19.006 21.4767 19.3417C21.141 19.6774 20.6857 19.866 20.211 19.866H3.79099C3.55598 19.8679 3.32305 19.8218 3.10642 19.7307C2.88979 19.6396 2.69399 19.5053 2.53098 19.336Z" fill="#333333"/>
</svg>
