<svg width="24" height="24" viewBox="0 0 24 24" fill="none" xmlns="http://www.w3.org/2000/svg">
<path fill-rule="evenodd" clip-rule="evenodd" d="M3.09998 4.00001C3.09998 3.50295 3.50292 3.10001 3.99998 3.10001H8.99998C9.49703 3.10001 9.89998 3.50295 9.89998 4.00001C9.89998 4.49706 9.49703 4.90001 8.99998 4.90001H6.17277L12 10.7272L17.8272 4.90001H15C14.5029 4.90001 14.1 4.49706 14.1 4.00001C14.1 3.50295 14.5029 3.10001 15 3.10001H20C20.497 3.10001 20.9 3.50295 20.9 4.00001V9.00001C20.9 9.49706 20.497 9.90001 20 9.90001C19.5029 9.90001 19.1 9.49706 19.1 9.00001V6.1728L13.2728 12L19.1 17.8272V15C19.1 14.5029 19.5029 14.1 20 14.1C20.497 14.1 20.9 14.5029 20.9 15V20C20.9 20.4971 20.497 20.9 20 20.9H15C14.5029 20.9 14.1 20.4971 14.1 20C14.1 19.5029 14.5029 19.1 15 19.1H17.8272L12 13.2728L6.17277 19.1H8.99998C9.49703 19.1 9.89998 19.5029 9.89998 20C9.89998 20.4971 9.49703 20.9 8.99998 20.9H3.99998C3.50292 20.9 3.09998 20.4971 3.09998 20V15C3.09998 14.5029 3.50292 14.1 3.99998 14.1C4.49703 14.1 4.89998 14.5029 4.89998 15V17.8272L10.7272 12L4.89998 6.1728V9.00001C4.89998 9.49706 4.49703 9.90001 3.99998 9.90001C3.50292 9.90001 3.09998 9.49706 3.09998 9.00001V4.00001Z" fill="#333333"/>
</svg>
