<svg width="24" height="24" viewBox="0 0 24 24" fill="none" xmlns="http://www.w3.org/2000/svg">
<path d="M17.35 0.979996H14.58C11.46 0.979996 9.44004 3.1 9.44004 6.39V8.88999H6.65C6.5324 8.89261 6.42047 8.94117 6.33823 9.02528C6.25599 9.10939 6.20997 9.22236 6.21 9.34V12.96C6.20997 13.0776 6.25599 13.1906 6.33823 13.2747C6.42047 13.3588 6.5324 13.4074 6.65 13.41H9.44004V22.58C9.44004 22.6967 9.48637 22.8086 9.56889 22.8911C9.6514 22.9736 9.76335 23.02 9.88004 23.02H13.52C13.6367 23.02 13.7486 22.9736 13.8312 22.8911C13.9137 22.8086 13.96 22.6967 13.96 22.58V13.41H17.22C17.3376 13.4074 17.4495 13.3588 17.5318 13.2747C17.614 13.1906 17.66 13.0776 17.66 12.96V9.34C17.6579 9.22089 17.6115 9.10684 17.53 9.02C17.448 8.93734 17.3365 8.89059 17.22 8.88999H13.96V6.76999C13.96 5.76999 14.19 5.23999 15.48 5.23999H17.35C17.4086 5.24001 17.4667 5.2283 17.5207 5.20557C17.5748 5.18284 17.6237 5.14953 17.6647 5.1076C17.7057 5.06568 17.7379 5.01599 17.7594 4.96145C17.781 4.90691 17.7913 4.84861 17.79 4.78999V1.42999C17.7913 1.37221 17.7812 1.31473 17.7604 1.26083C17.7395 1.20694 17.7082 1.1577 17.6683 1.11591C17.6283 1.07412 17.5805 1.0406 17.5276 1.01728C17.4747 0.993964 17.4178 0.981294 17.36 0.979996H17.35Z" fill="#333333"/>
</svg>
