<svg width="24" height="24" viewBox="0 0 24 24" fill="none" xmlns="http://www.w3.org/2000/svg">
<path d="M19.2156 17.4149C19.4706 17.4133 19.7239 17.3731 19.9669 17.2958C19.8012 18.3487 19.2656 19.308 18.4563 20.0015C17.6469 20.695 16.6168 21.0772 15.551 21.0795H8.22172C7.15588 21.0772 6.12579 20.695 5.31643 20.0015C4.50707 19.308 3.97147 18.3487 3.80582 17.2958C4.0488 17.3731 4.30208 17.4133 4.55707 17.4149H5.56485C5.74323 18.003 6.10756 18.5173 6.60314 18.8808C7.09872 19.2442 7.69881 19.4371 8.31333 19.4304H15.6426C16.2571 19.4371 16.8572 19.2442 17.3528 18.8808C17.8484 18.5173 18.2127 18.003 18.3911 17.4149H19.2156ZM5.38162 16.5903C5.38512 16.8706 5.43146 17.1486 5.51904 17.4149H18.2537C18.3413 17.1486 18.3876 16.8706 18.3911 16.5903C18.3911 16.3716 18.478 16.1619 18.6326 16.0073C18.7872 15.8527 18.997 15.7658 19.2156 15.7658H4.55707C4.77576 15.7658 4.98548 15.8527 5.14011 16.0073C5.29475 16.1619 5.38162 16.3716 5.38162 16.5903ZM15.8258 5.68802C15.7287 5.49363 15.5582 5.34582 15.352 5.27709C15.1459 5.20837 14.9208 5.22436 14.7265 5.32155C14.5321 5.41874 14.3843 5.58917 14.3155 5.79535C14.2468 6.00153 14.2628 6.22656 14.36 6.42094L14.8181 7.3371C14.8842 7.47515 14.9882 7.59154 15.118 7.67266C15.2478 7.75378 15.398 7.79627 15.551 7.79518C15.6778 7.7953 15.803 7.76713 15.9175 7.71273C16.0153 7.66506 16.1025 7.59829 16.1741 7.51637C16.2458 7.43444 16.3002 7.33901 16.3344 7.23571C16.3685 7.1324 16.3817 7.0233 16.373 6.91484C16.3643 6.80638 16.334 6.70075 16.2839 6.60418L15.8258 5.68802ZM8.96381 6.1461C8.86661 5.94928 8.69522 5.79914 8.48732 5.72869C8.27943 5.65825 8.05207 5.67328 7.85525 5.77047C7.65844 5.86766 7.50829 6.03906 7.43785 6.24695C7.36741 6.45485 7.38243 6.68221 7.47963 6.87902L7.93771 7.79518C8.00622 7.93327 8.11206 8.04939 8.24323 8.13036C8.37441 8.21133 8.52565 8.25391 8.6798 8.25326C8.80656 8.25338 8.93176 8.22521 9.04626 8.17081C9.24193 8.07241 9.39103 7.90097 9.46131 7.69353C9.5316 7.4861 9.51744 7.25933 9.42189 7.06226L8.96381 6.1461ZM21.2495 13.0723C21.6501 13.5428 21.8709 14.1401 21.8725 14.758C21.8702 15.3297 21.6835 15.8855 21.3402 16.3427C20.9969 16.7999 20.5153 17.1341 19.9669 17.2958C20.0099 17.0629 20.0344 16.827 20.0402 16.5903C20.0402 16.3716 19.9533 16.1619 19.7987 16.0073C19.6441 15.8527 19.4343 15.7658 19.2156 15.7658C19.4829 15.7658 19.7393 15.6596 19.9282 15.4706C20.1172 15.2816 20.2234 15.0253 20.2234 14.758C20.2234 14.4907 20.1172 14.2344 19.9282 14.0454C19.7393 13.8564 19.4829 13.7502 19.2156 13.7502H4.55707C4.2898 13.7502 4.03346 13.8564 3.84447 14.0454C3.65547 14.2344 3.5493 14.4907 3.5493 14.758C3.5493 15.0253 3.65547 15.2816 3.84447 15.4706C4.03346 15.6596 4.2898 15.7658 4.55707 15.7658C4.33839 15.7658 4.12867 15.8527 3.97403 16.0073C3.8194 16.1619 3.73253 16.3716 3.73253 16.5903C3.73832 16.827 3.76283 17.0629 3.80582 17.2958C3.25742 17.1341 2.77579 16.7999 2.43248 16.3427C2.08917 15.8855 1.90251 15.3297 1.90021 14.758C1.90186 14.1401 2.12261 13.5428 2.5232 13.0723C2.12345 12.6671 1.8996 12.1206 1.90021 11.5514C1.89288 11.0266 2.07357 10.5164 2.40963 10.1131C2.74568 9.70983 3.21493 9.4401 3.73253 9.35266C3.73253 8.95871 3.73253 8.6747 3.73253 8.4365C3.90259 6.79368 4.6329 5.25945 5.80075 4.0916C6.96861 2.92374 8.50284 2.19343 10.1457 2.02337C10.7255 1.99221 11.3065 1.99221 11.8864 2.02337C12.4609 2.00811 13.0358 2.0234 13.6087 2.06918C15.2509 2.24089 16.7842 2.97173 17.9518 4.13927C19.1193 5.30681 19.8502 6.84011 20.0219 8.4823C20.017 8.78837 20.0323 9.09441 20.0677 9.39847C20.579 9.4849 21.0434 9.74929 21.3787 10.1449C21.7139 10.5406 21.8986 11.042 21.9 11.5606C21.8909 12.1305 21.6571 12.6738 21.2495 13.0723ZM5.38162 9.35266H18.3911V8.63805C18.256 7.37709 17.6933 6.20038 16.7966 5.30364C15.8998 4.40691 14.7231 3.8442 13.4622 3.70911C12.9494 3.68326 12.4357 3.68326 11.923 3.70911C11.4103 3.68326 10.8966 3.68326 10.3839 3.70911C9.11631 3.8363 7.93107 4.39553 7.02695 5.29298C6.12284 6.19042 5.55485 7.37149 5.41826 8.63805C5.39994 8.81212 5.39078 9.04116 5.38162 9.35266ZM20.2234 11.5514C20.2234 11.4057 20.1655 11.2658 20.0624 11.1627C19.9593 11.0597 19.8195 11.0017 19.6737 11.0017H4.09899C3.95321 11.0017 3.81339 11.0597 3.7103 11.1627C3.60721 11.2658 3.5493 11.4057 3.5493 11.5514C3.5493 11.6972 3.60721 11.837 3.7103 11.9401C3.81339 12.0432 3.95321 12.1011 4.09899 12.1011H19.6737C19.8195 12.1011 19.9593 12.0432 20.0624 11.9401C20.1655 11.837 20.2234 11.6972 20.2234 11.5514ZM12.2528 4.39623C12.0557 4.30068 11.829 4.28651 11.6215 4.3568C11.4141 4.42709 11.2427 4.57618 11.1443 4.77185L10.6862 5.68802C10.5906 5.88509 10.5765 6.11186 10.6468 6.31929C10.717 6.52673 10.8661 6.69817 11.0618 6.79657C11.1763 6.85097 11.3015 6.87914 11.4283 6.87902C11.5824 6.87967 11.7337 6.83709 11.8648 6.75612C11.996 6.67515 12.1019 6.55903 12.1704 6.42094L12.6284 5.50478C12.724 5.30771 12.7382 5.08094 12.6679 4.87351C12.5976 4.66607 12.4485 4.49463 12.2528 4.39623Z" fill="#333333"/>
</svg>
