<svg width="24" height="24" viewBox="0 0 24 24" fill="none" xmlns="http://www.w3.org/2000/svg">
<path d="M3.70999 11.245V12.645C3.70999 14.995 3.71 16.165 4.47 16.645C5.23 17.125 6.24003 16.475 8.25003 15.265L9.42001 14.565C11.34 13.415 12.29 12.845 12.29 11.995C12.29 11.145 11.29 10.575 9.42001 9.42501L8.25003 8.725C6.25003 7.515 5.25 6.905 4.47 7.335C3.69 7.765 3.70999 8.89501 3.70999 11.245Z" fill="#333333"/>
<path d="M11.71 11.245V12.645C11.71 14.995 11.71 16.165 12.47 16.645C13.23 17.125 14.24 16.475 16.25 15.265L17.42 14.565C19.34 13.415 20.29 12.845 20.29 11.995C20.29 11.145 19.29 10.575 17.42 9.42502L16.25 8.72501C14.25 7.51501 13.25 6.90502 12.47 7.34502C11.69 7.78502 11.71 8.89501 11.71 11.245Z" fill="#333333"/>
</svg>
