<svg width="24" height="24" viewBox="0 0 24 24" fill="none" xmlns="http://www.w3.org/2000/svg">
<path fill-rule="evenodd" clip-rule="evenodd" d="M3.30002 1.10001C3.53871 1.10001 3.76765 1.19483 3.93643 1.36361C4.10521 1.53239 4.19998 1.76131 4.19998 2.00001V3.00001C4.19998 3.26522 4.30535 3.51957 4.49289 3.70711C4.68043 3.89465 4.93477 4.00001 5.19998 4.00001H9.30002C9.56523 4.00001 9.81957 4.10536 10.0071 4.2929C10.1946 4.48044 10.3 4.73479 10.3 5.00001V6.00001C10.3 6.26522 10.4054 6.51958 10.5929 6.70711C10.7805 6.89465 11.0348 7.00001 11.3 7.00001H20.6C20.8044 6.99999 21.004 7.06263 21.1717 7.17948C21.3395 7.29634 21.4674 7.46179 21.5382 7.65356C21.609 7.84532 21.6193 8.05419 21.5678 8.25202C21.5163 8.44985 21.4054 8.62715 21.25 8.76001L17.19 12.24C17.0902 12.3254 17.0082 12.4295 16.9486 12.5466C16.8891 12.6637 16.8532 12.7913 16.843 12.9222C16.8328 13.0532 16.8484 13.1848 16.8891 13.3097C16.9297 13.4346 16.9946 13.5502 17.08 13.65C17.1114 13.6915 17.1485 13.7286 17.19 13.76L21.25 17.24C21.4054 17.3729 21.5163 17.5502 21.5678 17.748C21.6193 17.9458 21.609 18.1547 21.5382 18.3465C21.4674 18.5382 21.3395 18.7037 21.1717 18.8205C21.004 18.9374 20.8044 19 20.6 19H11.3C11.0348 19 10.7805 18.8947 10.5929 18.7071C10.4054 18.5196 10.3 18.2652 10.3 18V17C10.3 16.7348 10.1946 16.4804 10.0071 16.2929C9.81957 16.1054 9.56523 16 9.30002 16H5.19998C4.93477 16 4.68043 16.1054 4.49289 16.2929C4.30535 16.4804 4.19998 16.7348 4.19998 17V22C4.19998 22.1182 4.17673 22.2352 4.1315 22.3444C4.08627 22.4536 4.02 22.5528 3.93643 22.6364C3.85286 22.72 3.75363 22.7863 3.64444 22.8315C3.53525 22.8767 3.41821 22.9 3.30002 22.9C3.18183 22.9 3.06479 22.8767 2.9556 22.8315C2.8464 22.7863 2.74718 22.72 2.6636 22.6364C2.58003 22.5528 2.51377 22.4536 2.46854 22.3444C2.42331 22.2352 2.39999 22.1182 2.39999 22V2.00001C2.39999 1.76131 2.49482 1.53239 2.6636 1.36361C2.83239 1.19483 3.06132 1.10001 3.30002 1.10001Z" fill="black"/>
</svg>
