<svg width="24" height="24" viewBox="0 0 24 24" fill="none" xmlns="http://www.w3.org/2000/svg">
<path fill-rule="evenodd" clip-rule="evenodd" d="M5.40349 1.7C5.27549 1.63788 5.13568 1.60379 4.99345 1.60001L5.40349 1.7ZM4.99345 1.60001C4.7565 1.60264 4.53014 1.69862 4.36351 1.86712C4.19688 2.03562 4.10349 2.26304 4.1035 2.50001V21.5C4.1035 21.7387 4.19833 21.9676 4.36711 22.1364C4.53589 22.3052 4.76477 22.4 5.00346 22.4C5.24216 22.4 5.47109 22.3052 5.63988 22.1364C5.80866 21.9676 5.90349 21.7387 5.90349 21.5V17.06L19.4035 10.31C19.6153 10.2009 19.7758 10.013 19.8506 9.78671C19.9254 9.56046 19.9085 9.3139 19.8035 9.10001C19.7217 8.9235 19.58 8.78174 19.4035 8.7L5.40349 1.7" fill="#333333"/>
</svg>
