<svg width="24" height="24" viewBox="0 0 24 24" fill="none" xmlns="http://www.w3.org/2000/svg">
<path fill-rule="evenodd" clip-rule="evenodd" d="M11.0906 3.0906C11.442 2.73913 12.0119 2.73913 12.3634 3.0906L15.8634 6.5906C16.2148 6.94207 16.2148 7.51192 15.8634 7.86339C15.5119 8.21486 14.942 8.21486 14.5906 7.86339L12.627 5.89979V17.5542L14.5906 15.5906C14.942 15.2391 15.5119 15.2391 15.8634 15.5906C16.2148 15.9421 16.2148 16.5119 15.8634 16.8634L12.3634 20.3634C12.0119 20.7149 11.442 20.7149 11.0906 20.3634L7.59057 16.8634C7.2391 16.5119 7.2391 15.9421 7.59057 15.5906C7.94204 15.2391 8.51189 15.2391 8.86336 15.5906L10.827 17.5542V5.89979L8.86336 7.86339C8.51189 8.21486 7.94204 8.21486 7.59057 7.86339C7.2391 7.51192 7.2391 6.94207 7.59057 6.5906L11.0906 3.0906Z" fill="#333333"/>
</svg>
