<svg width="24" height="24" viewBox="0 0 24 24" fill="none" xmlns="http://www.w3.org/2000/svg">
<path fill-rule="evenodd" clip-rule="evenodd" d="M8.1364 7.86361C8.48787 8.21508 8.48787 8.78493 8.1364 9.1364L6.1728 11.1H17.8272L15.8636 9.1364C15.5121 8.78493 15.5121 8.21508 15.8636 7.86361C16.2151 7.51214 16.7849 7.51214 17.1364 7.86361L20.6364 11.3636C20.8052 11.5324 20.9 11.7613 20.9 12C20.9 12.2387 20.8052 12.4676 20.6364 12.6364L17.1364 16.1364C16.7849 16.4879 16.2151 16.4879 15.8636 16.1364C15.5121 15.7849 15.5121 15.2151 15.8636 14.8636L17.8272 12.9H6.1728L8.1364 14.8636C8.48787 15.2151 8.48787 15.7849 8.1364 16.1364C7.78493 16.4879 7.21508 16.4879 6.86361 16.1364L3.36361 12.6364C3.19483 12.4676 3.10001 12.2387 3.10001 12C3.10001 11.7613 3.19483 11.5324 3.36361 11.3636L6.86361 7.86361C7.21508 7.51214 7.78493 7.51214 8.1364 7.86361Z" fill="#333333"/>
</svg>
