<svg width="24" height="24" viewBox="0 0 24 24" fill="none" xmlns="http://www.w3.org/2000/svg">
<path d="M1.99949 7.17451C1.91721 6.46355 1.99232 5.7432 2.21949 5.06451C2.41087 4.69029 2.71529 4.38589 3.0895 4.19451C3.76819 3.96734 4.48855 3.89223 5.1995 3.97451H8.2895C8.69838 3.94437 9.10947 3.9747 9.5095 4.06451C9.76085 4.13817 9.99529 4.26048 10.1995 4.42451C10.4951 4.72107 10.7476 5.05769 10.9495 5.42451L11.0495 5.57451C11.25 5.94221 11.5027 6.27902 11.7995 6.57451C12.0037 6.73853 12.2381 6.86085 12.4895 6.93451C12.8895 7.02432 13.3006 7.05464 13.7095 7.02451H18.7995C19.5104 6.94223 20.2308 7.01733 20.9095 7.24451C21.2837 7.43589 21.5881 7.7403 21.7795 8.11451C22.0067 8.7932 22.0818 9.51355 21.9995 10.2245V16.8245C22.0818 17.5355 22.0067 18.2558 21.7795 18.9345C21.5881 19.3087 21.2837 19.6131 20.9095 19.8045C20.2308 20.0317 19.5104 20.1068 18.7995 20.0245H5.1995C4.48855 20.1068 3.76819 20.0317 3.0895 19.8045C2.71529 19.6131 2.41087 19.3087 2.21949 18.9345C1.99232 18.2558 1.91721 17.5355 1.99949 16.8245V7.17451Z" fill="black"/>
</svg>
