<svg width="24" height="24" viewBox="0 0 24 24" fill="none" xmlns="http://www.w3.org/2000/svg">
<path fill-rule="evenodd" clip-rule="evenodd" d="M1.6 4.6835C1.6 4.4448 1.69483 4.21588 1.86361 4.0471C2.03239 3.87832 2.2613 3.7835 2.49999 3.7835H21.5C21.6177 3.78218 21.7345 3.80422 21.8437 3.84835C21.9528 3.89249 22.0521 3.95784 22.1358 4.04061C22.2195 4.12339 22.286 4.22196 22.3313 4.33059C22.3767 4.43923 22.4 4.55578 22.4 4.6735C22.4008 4.88389 22.3304 5.08836 22.2 5.2535L12 17.5835L10.08 19.8935C9.92808 20.0754 9.71056 20.1899 9.47466 20.2124C9.23877 20.2349 9.00353 20.1634 8.82 20.0135C6.56248 18.1471 4.74483 15.8053 3.49677 13.1554C2.24872 10.5054 1.60105 7.61264 1.6 4.6835ZM3.42001 5.58351H4.63C4.86333 9.98674 6.80837 14.1244 10.05 17.1135L9.29 18.0335C5.77029 14.8194 3.66389 10.3442 3.43 5.58351H3.42001ZM16.3 9.58351L14.7 11.5035C14.2505 11.0526 13.6402 10.7988 13.0035 10.7979C12.3668 10.7969 11.7559 11.049 11.305 11.4985C10.8541 11.948 10.6003 12.5583 10.5994 13.195C10.5984 13.8317 10.8505 14.4426 11.3 14.8935C11.4084 15.0038 11.5292 15.1011 11.66 15.1835L11.2 15.7435C8.37079 13.0986 6.66358 9.46943 6.43 5.6035H14.21C13.8768 5.96708 13.6637 6.42449 13.5997 6.91349C13.5357 7.40249 13.6238 7.89935 13.8522 8.33645C14.0806 8.77355 14.4381 9.12968 14.8761 9.35639C15.3141 9.58311 15.8113 9.66938 16.3 9.6035V9.58351ZM18.4 7.0435L19.59 5.6035H17.82C18.1654 5.99945 18.3694 6.49895 18.4 7.02349V7.0435ZM13 12.6035C13.11 12.5988 13.219 12.6267 13.3133 12.6836C13.4075 12.7405 13.4829 12.824 13.53 12.9235L12.83 13.7735C12.6957 13.7295 12.5812 13.6396 12.5067 13.5195C12.4323 13.3994 12.4026 13.2569 12.4229 13.117C12.4432 12.9771 12.5122 12.849 12.6178 12.755C12.7234 12.6611 12.8587 12.6074 13 12.6035ZM9.39999 8.2035C9.39999 8.04437 9.46322 7.89175 9.57574 7.77923C9.68826 7.66671 9.84086 7.6035 9.99999 7.6035C10.1591 7.6035 10.3118 7.66671 10.4243 7.77923C10.5368 7.89175 10.6 8.04437 10.6 8.2035C10.6 8.36263 10.5368 8.51525 10.4243 8.62777C10.3118 8.74029 10.1591 8.80351 9.99999 8.80351C9.84086 8.80351 9.68826 8.74029 9.57574 8.62777C9.46322 8.51525 9.39999 8.36263 9.39999 8.2035ZM9.99999 5.80351C9.36347 5.80351 8.75303 6.05636 8.30294 6.50645C7.85285 6.95654 7.6 7.56698 7.6 8.2035C7.6 8.84002 7.85285 9.45047 8.30294 9.90055C8.75303 10.3506 9.36347 10.6035 9.99999 10.6035C10.6365 10.6035 11.247 10.3506 11.697 9.90055C12.1471 9.45047 12.4 8.84002 12.4 8.2035C12.4 7.56698 12.1471 6.95654 11.697 6.50645C11.247 6.05636 10.6365 5.80351 9.99999 5.80351ZM15.4 7.2035C15.4 7.04437 15.4632 6.89175 15.5757 6.77923C15.6883 6.66671 15.8409 6.6035 16 6.6035C16.1591 6.6035 16.3118 6.66671 16.4243 6.77923C16.5368 6.89175 16.6 7.04437 16.6 7.2035C16.6 7.36263 16.5368 7.51525 16.4243 7.62777C16.3118 7.74029 16.1591 7.80351 16 7.80351C15.8409 7.80351 15.6883 7.74029 15.5757 7.62777C15.4632 7.51525 15.4 7.36263 15.4 7.2035Z" fill="#333333"/>
</svg>
