<svg width="24" height="24" viewBox="0 0 24 24" fill="none" xmlns="http://www.w3.org/2000/svg">
<path fill-rule="evenodd" clip-rule="evenodd" d="M14.9906 5.36361C15.3421 5.01214 15.9119 5.01214 16.2634 5.36361L20.7634 9.86361C20.9322 10.0324 21.027 10.2613 21.027 10.5C21.027 10.7387 20.9322 10.9676 20.7634 11.1364L16.2634 15.6364C15.9119 15.9879 15.3421 15.9879 14.9906 15.6364C14.6391 15.2849 14.6391 14.7151 14.9906 14.3636L17.9542 11.4H8.12699C7.30482 11.4 6.51633 11.7266 5.93497 12.308C5.3536 12.8893 5.02699 13.6778 5.02699 14.5C5.02699 15.3222 5.3536 16.1107 5.93497 16.692C6.51633 17.2734 7.30482 17.6 8.12699 17.6H10.127C10.624 17.6 11.027 18.0029 11.027 18.5C11.027 18.9971 10.624 19.4 10.127 19.4H8.12699C6.82743 19.4 5.58111 18.8838 4.66218 17.9648C3.74326 17.0459 3.22699 15.7996 3.22699 14.5C3.22699 13.2004 3.74326 11.9541 4.66218 11.0352C5.58111 10.1163 6.82743 9.60001 8.12699 9.60001H17.9542L14.9906 6.6364C14.6391 6.28493 14.6391 5.71508 14.9906 5.36361Z" fill="#333333"/>
</svg>
