<svg width="24" height="24" viewBox="0 0 24 24" fill="none" xmlns="http://www.w3.org/2000/svg">
<path d="M20.0035 8.04849L20.8935 8.17849C20.9222 7.94563 20.8587 7.71079 20.7168 7.52399C20.5748 7.3372 20.3655 7.21323 20.1335 7.17849H20.0035V8.04849ZM18.0035 22.0485V22.9485C18.2207 22.9527 18.4318 22.8763 18.5961 22.7341C18.7605 22.592 18.8664 22.3941 18.8935 22.1785L18.0035 22.0485ZM6.0035 22.0485L5.1135 22.1785C5.14062 22.3941 5.24653 22.592 5.41085 22.7341C5.57516 22.8763 5.78626 22.9527 6.0035 22.9485V22.0485ZM4.0035 8.04849V7.14849C3.7648 7.14849 3.5359 7.24331 3.36711 7.41209C3.19833 7.58088 3.1035 7.8098 3.1035 8.04849C3.09817 8.09166 3.09817 8.13532 3.1035 8.17849L4.0035 8.04849ZM16.5835 8.04849V7.14849C16.4095 7.15067 16.2398 7.20271 16.0944 7.29842C15.9491 7.39412 15.8342 7.5295 15.7635 7.68849L16.5835 8.04849ZM7.42351 8.04849L8.2435 7.68849C8.17276 7.5295 8.05792 7.39412 7.91259 7.29842C7.76725 7.20271 7.59752 7.15067 7.42351 7.14849V8.04849ZM4.18351 4.31849L4.0535 3.42849C3.82147 3.46323 3.61218 3.5872 3.47022 3.77399C3.32826 3.96079 3.26485 4.19563 3.29351 4.42849L4.18351 4.31849ZM7.18351 3.89849L8.0735 3.77849C8.03873 3.54575 7.91514 3.33553 7.72869 3.19196C7.54223 3.04839 7.3074 2.98263 7.0735 3.00849L7.18351 3.89849ZM19.8535 4.31849L20.7435 4.44849C20.772 4.21413 20.7072 3.97796 20.5632 3.7909C20.4191 3.60384 20.2074 3.48087 19.9735 3.44849L19.8535 4.31849ZM16.8535 3.89849L16.9835 3.00849C16.7496 2.98263 16.5148 3.04839 16.3283 3.19196C16.1419 3.33553 16.0183 3.54575 15.9835 3.77849L16.8535 3.89849ZM16.4635 2.31849L17.3535 2.44849C17.3822 2.21563 17.3187 1.98079 17.1768 1.794C17.0348 1.60721 16.8255 1.48323 16.5935 1.44849L16.4635 2.31849ZM13.4635 1.89849L13.5935 1.00849C13.3596 0.982633 13.1248 1.04839 12.9383 1.19196C12.7519 1.33553 12.6283 1.54575 12.5935 1.77849L13.4635 1.89849ZM7.79351 2.31849L7.67351 1.42849C7.44077 1.46327 7.23055 1.58686 7.08698 1.77331C6.94341 1.95977 6.87765 2.19459 6.90351 2.42849L7.79351 2.31849ZM10.7935 1.90849L11.6835 1.77849C11.6511 1.54463 11.5282 1.33286 11.3411 1.18883C11.154 1.04479 10.9179 0.980028 10.6835 1.00849L10.7935 1.90849ZM10.5035 4.04849V3.14849C10.2656 3.15109 10.0382 3.24675 9.86998 3.41497C9.70176 3.58319 9.6061 3.8106 9.6035 4.04849H10.5035ZM13.5035 4.04849H14.4035C14.4009 3.8106 14.3052 3.58319 14.137 3.41497C13.9688 3.24675 13.7414 3.15109 13.5035 3.14849V4.04849ZM7.84351 8.82849L7.09351 9.32849L7.84351 8.82849ZM8.90351 9.97849L8.34351 10.6785L8.90351 9.97849ZM10.5035 10.8285L10.2335 11.6885L10.5035 10.8285ZM13.5035 10.8285L13.7735 11.6885L13.5035 10.8285ZM13.6035 16.5485C13.6035 16.9738 13.4353 17.3818 13.1355 17.6834C12.8357 17.9851 12.4288 18.1559 12.0035 18.1585V19.9485C12.9052 19.9485 13.77 19.5903 14.4077 18.9527C15.0453 18.315 15.4035 17.4502 15.4035 16.5485H13.6035ZM12.0035 18.1585C11.5782 18.1559 11.1713 17.9851 10.8715 17.6834C10.5718 17.3818 10.4035 16.9738 10.4035 16.5485H8.6035C8.6035 17.4502 8.96171 18.315 9.59934 18.9527C10.237 19.5903 11.1018 19.9485 12.0035 19.9485V18.1585ZM10.4035 16.5785C10.4035 16.1541 10.5721 15.7472 10.8721 15.4471C11.1722 15.1471 11.5792 14.9785 12.0035 14.9785V13.1885C11.1035 13.1885 10.2402 13.5453 9.60286 14.1808C8.96553 14.8163 8.60615 15.6785 8.6035 16.5785H10.4035ZM12.0035 14.9785C12.4278 14.9785 12.8348 15.1471 13.1349 15.4471C13.4349 15.7472 13.6035 16.1541 13.6035 16.5785H15.4035C15.4008 15.6785 15.0415 14.8163 14.4041 14.1808C13.7668 13.5453 12.9035 13.1885 12.0035 13.1885V14.9785ZM19.1135 7.97849L17.1135 21.9785L18.8935 22.2285L20.8935 8.22849L19.1135 7.97849ZM18.0035 21.2085H6.0035V22.9985H18.0035V21.2085ZM6.8935 21.9785L4.8935 7.97849L3.1135 8.22849L5.1135 22.2285L6.8935 21.9785ZM4.3035 5.25849L7.3035 4.83849L7.06351 3.05849L4.06351 3.47849L4.3035 5.25849ZM19.9535 3.47849L16.9535 3.05849L16.7035 4.83849L19.7035 5.25849L19.9535 3.47849ZM16.5935 1.47849L13.5935 1.05849L13.3335 2.83849L16.3335 3.25849L16.5935 1.47849ZM7.95351 3.25849L10.9535 2.83849L10.7035 1.05849L7.70351 1.47849L7.95351 3.25849ZM5.6035 7.97849L5.0735 4.24849L3.29351 4.49849L3.81351 8.22849L5.6035 7.97849ZM4.0035 8.97849H4.70351V7.17849H4.0035V8.97849ZM4.70351 8.97849H7.42351V7.17849H4.70351V8.97849ZM6.26351 4.05849L6.95351 8.97849L8.73351 8.72849L8.04351 3.79849L6.26351 4.05849ZM8.59351 8.35849C8.46124 8.15407 8.34425 7.94015 8.2435 7.71849L6.59351 8.43849C6.73215 8.75958 6.8995 9.06749 7.09351 9.35849L8.59351 8.35849ZM9.45351 9.29849C9.1239 9.02733 8.83436 8.71085 8.59351 8.35849L7.09351 9.35849C7.43417 9.8673 7.85258 10.3195 8.3335 10.6985L9.45351 9.29849ZM9.79351 9.87849L8.7135 2.22849L6.93351 2.47849L8.0035 10.1285L9.79351 9.87849ZM12.0035 10.1885C11.5864 10.1856 11.172 10.1216 10.7735 9.99849L10.2335 11.7185C10.8068 11.8949 11.4037 11.9826 12.0035 11.9785V10.1885ZM10.7735 9.99849C10.2951 9.84612 9.84802 9.60902 9.45351 9.29849L8.34351 10.7085C8.90855 11.1523 9.54872 11.491 10.2335 11.7085L10.7735 9.99849ZM11.4035 10.8585V4.07849H9.6035V10.8585H11.4035ZM12.6035 4.07849V10.8585H14.4035V4.07849H12.6035ZM13.2335 9.99849C12.835 10.1216 12.4206 10.1856 12.0035 10.1885V11.9885C12.6034 11.9843 13.1996 11.8934 13.7735 11.7185L13.2335 9.99849ZM14.8135 9.06849C14.3642 9.49434 13.8239 9.81237 13.2335 9.99849L13.7735 11.7085C14.6197 11.4446 15.3956 10.9934 16.0435 10.3885L14.8135 9.06849ZM16.3235 9.84849L17.3235 2.47849L15.5435 2.22849L14.5435 9.59849L16.3235 9.84849ZM15.7635 7.71849C15.6649 7.94123 15.5478 8.15531 15.4135 8.35849L16.9135 9.35849C17.1055 9.06626 17.2727 8.75853 17.4135 8.43849L15.7635 7.71849ZM15.4135 8.35849C15.2441 8.61944 15.0425 8.85799 14.8135 9.06849L16.0435 10.3885C16.3636 10.0854 16.6517 9.75033 16.9035 9.38849L15.4135 8.35849ZM15.9635 3.80849L15.2635 8.73849L17.0535 8.98849L17.7435 4.05849L15.9635 3.80849ZM20.1935 8.20849L20.7135 4.47849L18.9335 4.22849L18.4035 7.95849L20.1935 8.20849ZM16.5935 8.97849H19.3035V7.17849H16.5835L16.5935 8.97849ZM19.3035 8.97849H20.0035V7.17849H19.3035V8.97849ZM13.1935 4.97849H13.5035V3.17849H13.1935V4.97849ZM12.6035 1.80849L12.3035 3.95849L14.0835 4.20849L14.3835 2.05849L12.6035 1.80849ZM10.5035 4.98849H11.1035V3.17849H10.5135L10.5035 4.98849ZM11.0935 4.98849H13.1935V3.17849H11.1035L11.0935 4.98849ZM9.90351 2.05849L10.2035 4.20849L11.9835 3.95849L11.6835 1.80849L9.90351 2.05849Z" fill="#333333"/>
</svg>
