<svg width="24" height="24" viewBox="0 0 24 24" fill="none" xmlns="http://www.w3.org/2000/svg">
<path fill-rule="evenodd" clip-rule="evenodd" d="M17.3 3.86349C17.1881 3.68511 17.0418 3.53075 16.8697 3.40937C16.6976 3.288 16.5031 3.20201 16.2975 3.15642C16.0918 3.11083 15.8792 3.10655 15.672 3.14381C15.4647 3.18107 15.2669 3.25915 15.09 3.37349C14.4289 3.87235 13.8661 4.48945 13.43 5.19349C13.2127 5.52287 13.0474 5.88377 12.94 6.26349C12.9254 6.36631 12.9254 6.47068 12.94 6.57349V6.64349H12.99C13.0851 6.69014 13.186 6.72378 13.29 6.74349C13.6777 6.80357 14.0723 6.80357 14.46 6.74349C15.2861 6.6535 16.0873 6.40568 16.82 6.01349C17.1583 5.78322 17.3961 5.43279 17.4853 5.03344C17.5744 4.63408 17.5082 4.21576 17.3 3.86349ZM14.13 1.86349C14.8731 1.3903 15.7709 1.22403 16.6342 1.39969C17.4974 1.57536 18.2588 2.07926 18.7579 2.80522C19.257 3.53118 19.4549 4.42253 19.3098 5.29147C19.1646 6.16041 18.6879 6.9391 17.98 7.46349L17.78 7.59349L17.49 7.76349H22C22.2652 7.76349 22.5196 7.86885 22.7071 8.05639C22.8947 8.24392 23 8.49828 23 8.76349V10.6435C23 10.9087 22.8947 11.1631 22.7071 11.3506C22.5196 11.5381 22.2652 11.6435 22 11.6435H12.9V7.74349H11.1V11.6435H2C1.73478 11.6435 1.48044 11.5381 1.29291 11.3506C1.10537 11.1631 1 10.9087 1 10.6435V8.74349C1 8.47827 1.10537 8.22392 1.29291 8.03638C1.48044 7.84885 1.73478 7.74349 2 7.74349H6.51001L6.22 7.57349C5.83457 7.34762 5.49741 7.04804 5.22775 6.69186C4.9581 6.33568 4.76126 5.92988 4.64844 5.49762C4.53561 5.06537 4.50901 4.61512 4.57019 4.1726C4.63137 3.73007 4.77913 3.30392 5.005 2.91849C5.23088 2.53306 5.53045 2.1959 5.88663 1.92624C6.2428 1.65659 6.64861 1.45973 7.08087 1.34691C7.51313 1.23408 7.96339 1.20751 8.40591 1.26869C8.84844 1.32987 9.27457 1.47761 9.66 1.70349L9.87 1.84349C10.7189 2.44458 11.4424 3.20546 12 4.08349C12.5508 3.21543 13.2639 2.46168 14.1 1.86349H14.13ZM2 13.4635V20.7635C2 21.2939 2.21071 21.8026 2.58578 22.1777C2.96086 22.5528 3.46957 22.7635 4 22.7635H11.1V13.4635H2ZM12.9 22.7635H20C20.5304 22.7635 21.0391 22.5528 21.4142 22.1777C21.7893 21.8026 22 21.2939 22 20.7635V13.4635H12.9V22.7635ZM8.89999 3.37349C8.54266 3.17162 8.12142 3.11477 7.72336 3.21471C7.3253 3.31465 6.98085 3.56373 6.76126 3.91046C6.54167 4.25718 6.46372 4.67504 6.54352 5.07763C6.62331 5.48021 6.85476 5.83674 7.19 6.07349C7.92103 6.46289 8.71776 6.71378 9.54001 6.81349C9.93105 6.87349 10.329 6.87349 10.72 6.81349C10.824 6.79377 10.925 6.76013 11.02 6.71349H11.07C11.0653 6.69376 11.0653 6.67322 11.07 6.65349C11.0847 6.54733 11.0847 6.43965 11.07 6.33349C10.9563 5.95753 10.7878 5.60036 10.57 5.27349C10.1444 4.53598 9.57679 3.8902 8.89999 3.37349Z" fill="#333333"/>
</svg>
