<svg width="24" height="24" viewBox="0 0 24 24" fill="none" xmlns="http://www.w3.org/2000/svg">
<path fill-rule="evenodd" clip-rule="evenodd" d="M17.3 3.94549C17.1881 3.76711 17.0418 3.61275 16.8697 3.49138C16.6975 3.37 16.5031 3.28402 16.2974 3.23843C16.0918 3.19284 15.8792 3.18856 15.672 3.22582C15.4647 3.26308 15.2668 3.34115 15.09 3.45549C14.4289 3.95435 13.8661 4.57145 13.43 5.27549C13.2126 5.60486 13.0474 5.96577 12.94 6.34549C12.9254 6.44831 12.9254 6.55268 12.94 6.6555V6.7255H12.99C13.0851 6.77214 13.186 6.80578 13.29 6.8255C13.6777 6.88558 14.0723 6.88558 14.46 6.8255C15.2861 6.73551 16.0873 6.48768 16.82 6.09549C17.1582 5.86522 17.3961 5.51479 17.4853 5.11544C17.5744 4.71608 17.5082 4.29776 17.3 3.94549ZM14.13 1.94549C14.4959 1.6679 14.9142 1.46731 15.3598 1.35584C15.8053 1.24437 16.2689 1.22433 16.7224 1.29692C17.1759 1.36951 17.61 1.53323 17.9985 1.7782C18.387 2.02317 18.7218 2.34431 18.9828 2.72225C19.2438 3.10018 19.4254 3.52708 19.5169 3.97717C19.6084 4.42726 19.6077 4.8912 19.5149 5.34102C19.4221 5.79083 19.2392 6.21719 18.9771 6.59435C18.715 6.97151 18.3792 7.29167 17.99 7.5355L17.78 7.6755C17.6222 7.7752 17.4586 7.86536 17.29 7.94549H22C22.2387 7.94549 22.4676 8.04032 22.6364 8.2091C22.8052 8.37789 22.9 8.6068 22.9 8.84549V12.8455C22.9 13.0842 22.8052 13.3131 22.6364 13.4819C22.4676 13.6507 22.2387 13.7455 22 13.7455H21.9V20.8455C21.9 21.3494 21.6998 21.8327 21.3435 22.189C20.9872 22.5453 20.5039 22.7455 20 22.7455H3.99999C3.49608 22.7455 3.01281 22.5453 2.65649 22.189C2.30017 21.8327 2.1 21.3494 2.1 20.8455V13.7455H1.99999C1.7613 13.7455 1.53239 13.6507 1.36361 13.4819C1.19483 13.3131 1.1 13.0842 1.1 12.8455V8.84549C1.1 8.6068 1.19483 8.37789 1.36361 8.2091C1.53239 8.04032 1.7613 7.94549 1.99999 7.94549H6.70998C6.5414 7.86537 6.37778 7.77521 6.21999 7.6755C5.44291 7.218 4.87939 6.47054 4.6534 5.59756C4.42742 4.72458 4.55751 3.79758 5.01501 3.0205C5.47251 2.24341 6.21997 1.6799 7.09295 1.45392C7.96593 1.22793 8.89292 1.358 9.67001 1.8155C9.74033 1.85292 9.80723 1.89642 9.86999 1.94549C10.7189 2.54659 11.4424 3.30746 12 4.1855C12.5488 3.31024 13.2619 2.54956 14.1 1.94549H14.13ZM3.89999 13.7455V20.8455C3.89999 20.872 3.91053 20.8974 3.92928 20.9162C3.94804 20.935 3.97347 20.9455 3.99999 20.9455H11.1V13.7455H3.89999ZM11.1 11.9455H2.89999V9.7455H11.1V11.9455ZM12.9 13.7455V20.9455H20C20.0265 20.9455 20.0519 20.935 20.0707 20.9162C20.0895 20.8974 20.1 20.872 20.1 20.8455V13.7455H12.9ZM21.1 11.9455H12.9V9.7455H21.1V11.9455ZM8.89999 3.45549C8.54265 3.25362 8.12141 3.19677 7.72335 3.29671C7.32529 3.39665 6.98085 3.64574 6.76125 3.99247C6.54166 4.33919 6.46372 4.75705 6.54351 5.15963C6.62331 5.56222 6.85475 5.91875 7.18999 6.1555C7.92103 6.54488 8.71776 6.79576 9.54 6.8955C9.93105 6.9555 10.3289 6.9555 10.72 6.8955C10.824 6.87577 10.925 6.84214 11.02 6.7955H11.07C11.0653 6.77577 11.0653 6.75522 11.07 6.73549C11.0847 6.62933 11.0847 6.52166 11.07 6.41549C10.9563 6.03953 10.7878 5.68236 10.57 5.3555C10.1444 4.61799 9.57679 3.9722 8.89999 3.45549Z" fill="#333333"/>
</svg>
