<svg width="24" height="24" viewBox="0 0 24 24" fill="none" xmlns="http://www.w3.org/2000/svg">
<path d="M12.2015 10.4995H22.0915C22.1947 11.0738 22.2483 11.656 22.2515 12.2395C22.2803 14.0749 21.8543 15.8888 21.0115 17.5195C20.2084 19.0471 18.9785 20.3083 17.4715 21.1495C16.0768 21.9488 14.5172 22.4171 12.9129 22.5185C11.3086 22.6199 9.70246 22.3516 8.21824 21.7342C6.73402 21.1169 5.41137 20.167 4.35221 18.9578C3.29305 17.7486 2.52565 16.3123 2.1092 14.7597C1.69274 13.2071 1.63835 11.5796 1.95017 10.0026C2.26199 8.42566 2.93172 6.94135 3.90775 5.66409C4.88378 4.38683 6.14005 3.35072 7.57972 2.63561C9.01939 1.9205 10.604 1.5455 12.2115 1.53949C14.8141 1.49808 17.3286 2.48229 19.2115 4.27949L16.3615 7.0095C15.8073 6.47821 15.1537 6.0616 14.4381 5.7836C13.7225 5.50559 12.959 5.37166 12.1915 5.38949C11.0475 5.38607 9.92413 5.6937 8.9415 6.27949C7.95601 6.87393 7.1408 7.71289 6.57493 8.71506C6.00906 9.71723 5.71171 10.8486 5.71171 11.9995C5.71171 13.1504 6.00906 14.2818 6.57493 15.2839C7.1408 16.2861 7.95601 17.1251 8.9415 17.7195C9.92413 18.3053 11.0475 18.6129 12.1915 18.6095C12.9307 18.6106 13.6658 18.4994 14.3715 18.2795C14.9572 18.1 15.5083 17.8228 16.0015 17.4595C16.4255 17.1405 16.8025 16.7635 17.1215 16.3395C17.6412 15.6896 17.9885 14.9192 18.1315 14.0995H12.1915L12.2015 10.4995Z" fill="#333333"/>
</svg>
