<svg width="24" height="24" viewBox="0 0 24 24" fill="none" xmlns="http://www.w3.org/2000/svg">
<path d="M9.51501 15.1V20.43C9.51501 20.5482 9.49176 20.6653 9.44653 20.7744C9.4013 20.8836 9.33498 20.9829 9.2514 21.0664C9.16783 21.15 9.0686 21.2163 8.95941 21.2615C8.85022 21.3067 8.73318 21.33 8.61499 21.33C8.4968 21.33 8.37982 21.3067 8.27063 21.2615C8.16144 21.2163 8.06221 21.15 7.97864 21.0664C7.89506 20.9829 7.82874 20.8836 7.78351 20.7744C7.73828 20.6653 7.71503 20.5482 7.71503 20.43V15.1C7.71503 14.8613 7.80985 14.6324 7.97864 14.4636C8.14742 14.2948 8.3763 14.2 8.61499 14.2C8.85368 14.2 9.08262 14.2948 9.2514 14.4636C9.42019 14.6324 9.51501 14.8613 9.51501 15.1ZM3.72504 16.87C3.48634 16.87 3.25741 16.9649 3.08862 17.1336C2.91984 17.3024 2.82501 17.5313 2.82501 17.77V20.43C2.82501 20.6687 2.91984 20.8977 3.08862 21.0664C3.25741 21.2352 3.48634 21.33 3.72504 21.33C3.96373 21.33 4.19261 21.2352 4.36139 21.0664C4.53017 20.8977 4.625 20.6687 4.625 20.43V17.77C4.62503 17.6501 4.6011 17.5314 4.55463 17.4209C4.50815 17.3104 4.44007 17.2103 4.35437 17.1264C4.26867 17.0426 4.16711 16.9767 4.0556 16.9327C3.94409 16.8887 3.82488 16.8674 3.70502 16.87H3.72504ZM22.335 3.20001C22.2943 3.09562 22.2331 3.00042 22.155 2.92001C22.0714 2.8387 21.9729 2.7742 21.865 2.73001C21.7633 2.68908 21.6546 2.66869 21.545 2.67001H17.075C16.8514 2.69355 16.6444 2.79904 16.494 2.96616C16.3435 3.13327 16.2603 3.35016 16.2603 3.57501C16.2603 3.79987 16.3435 4.01676 16.494 4.18387C16.6444 4.35098 16.8514 4.45647 17.075 4.48001H19.355L14.355 9.48001C14.1016 9.37439 13.8296 9.32004 13.555 9.32004C13.2804 9.32004 13.0085 9.37439 12.755 9.48001L10.755 7.48001C10.8508 7.22747 10.9016 6.96008 10.905 6.69C10.905 6.10122 10.6712 5.53657 10.2548 5.12024C9.83849 4.70391 9.27378 4.47 8.685 4.47C8.09622 4.47 7.53157 4.70391 7.11523 5.12024C6.6989 5.53657 6.46503 6.10122 6.46503 6.69C6.46844 6.96008 6.51917 7.22748 6.61499 7.48001L4.61499 9.48001C4.36098 9.37611 4.08944 9.32182 3.815 9.32004C3.37353 9.31806 2.9414 9.44712 2.57336 9.69095C2.20533 9.93478 1.91794 10.2824 1.74762 10.6897C1.5773 11.097 1.53173 11.5457 1.61664 11.9789C1.70155 12.4121 1.91314 12.8104 2.22461 13.1233C2.53608 13.4361 2.93342 13.6496 3.36627 13.7364C3.79912 13.8233 4.248 13.7797 4.65607 13.6112C5.06413 13.4427 5.41303 13.1569 5.65851 12.7899C5.90399 12.423 6.03503 11.9915 6.03503 11.55C6.0374 11.2761 5.98643 11.0044 5.88501 10.75L7.88501 8.75003C8.13902 8.85393 8.41056 8.90822 8.685 8.91C8.95831 8.90645 9.22895 8.85574 9.48499 8.76004L11.485 10.76C11.3835 11.0144 11.3326 11.2862 11.335 11.56C11.335 12.1488 11.5689 12.7135 11.9852 13.1298C12.4016 13.5461 12.9662 13.78 13.555 13.78C14.1438 13.78 14.7085 13.5461 15.1248 13.1298C15.5411 12.7135 15.775 12.1488 15.775 11.56C15.7726 11.2866 15.7218 11.0158 15.625 10.76L20.625 5.76001V7.98001C20.625 8.21871 20.7198 8.44764 20.8886 8.61642C21.0574 8.78521 21.2863 8.88003 21.525 8.88003C21.7637 8.88003 21.9927 8.78521 22.1614 8.61642C22.3302 8.44764 22.425 8.21871 22.425 7.98001V3.53C22.4094 3.41405 22.3721 3.3021 22.315 3.20001H22.335ZM18.395 14.2C18.1563 14.2 17.9274 14.2948 17.7586 14.4636C17.5898 14.6324 17.495 14.8613 17.495 15.1V20.43C17.495 20.6687 17.5898 20.8977 17.7586 21.0664C17.9274 21.2352 18.1563 21.33 18.395 21.33C18.6337 21.33 18.8626 21.2352 19.0314 21.0664C19.2002 20.8977 19.295 20.6687 19.295 20.43V15.1C19.2951 14.9801 19.2711 14.8614 19.2247 14.7509C19.1782 14.6404 19.1101 14.5403 19.0244 14.4565C18.9387 14.3726 18.8371 14.3067 18.7256 14.2627C18.6141 14.2186 18.4949 14.1973 18.375 14.2H18.395ZM13.515 16.87C13.2763 16.87 13.0474 16.9649 12.8786 17.1336C12.7098 17.3024 12.615 17.5313 12.615 17.77V20.43C12.615 20.6687 12.7098 20.8977 12.8786 21.0664C13.0474 21.2352 13.2763 21.33 13.515 21.33C13.7537 21.33 13.9826 21.2352 14.1514 21.0664C14.3202 20.8977 14.415 20.6687 14.415 20.43V17.77C14.415 17.5313 14.3202 17.3024 14.1514 17.1336C13.9826 16.9649 13.7537 16.87 13.515 16.87Z" fill="#1A1A1A"/>
</svg>
