<svg width="24" height="24" viewBox="0 0 24 24" fill="none" xmlns="http://www.w3.org/2000/svg">
<path d="M2.91499 12.25C2.91499 12.1318 2.89174 12.0148 2.84651 11.9056C2.80128 11.7964 2.73496 11.6972 2.65138 11.6136C2.56781 11.53 2.46858 11.4637 2.35939 11.4185C2.2502 11.3733 2.13322 11.35 2.01503 11.35C1.89684 11.35 1.7798 11.3733 1.67061 11.4185C1.56142 11.4637 1.46219 11.53 1.37862 11.6136C1.29504 11.6972 1.22872 11.7964 1.18349 11.9056C1.13826 12.0148 1.11501 12.1318 1.11501 12.25H2.91499ZM4.91499 5.18001L4.27498 4.54001L4.91499 5.18001ZM3.84499 6.25001H2.94502C2.94502 6.4887 3.03985 6.71762 3.20863 6.88641C3.37742 7.05519 3.60629 7.15001 3.84499 7.15001V6.25001ZM4.74501 1.75001C4.74501 1.51131 4.65018 1.28239 4.4814 1.11361C4.31262 0.944827 4.08368 0.850006 3.84499 0.850006C3.60629 0.850006 3.37742 0.944827 3.20863 1.11361C3.03985 1.28239 2.94502 1.51131 2.94502 1.75001H4.74501ZM8.34499 7.15001C8.58368 7.15001 8.81262 7.05519 8.9814 6.88641C9.15018 6.71762 9.24501 6.4887 9.24501 6.25001C9.24501 6.01131 9.15018 5.78239 8.9814 5.61361C8.81262 5.44483 8.58368 5.35001 8.34499 5.35001V7.15001ZM21.085 12.25C21.0863 13.4454 20.8518 14.6293 20.395 15.734C19.9381 16.8386 19.2679 17.8423 18.4226 18.6876C17.5773 19.5329 16.5737 20.2031 15.469 20.66C14.3644 21.1168 13.1804 21.3513 11.985 21.35V23.15C14.8759 23.15 17.6483 22.0016 19.6925 19.9575C21.7366 17.9133 22.885 15.1409 22.885 12.25H21.115H21.085ZM11.985 21.35C10.7896 21.3513 9.60571 21.1168 8.50105 20.66C7.3964 20.2031 6.39265 19.5329 5.54738 18.6876C4.7021 17.8423 4.03188 16.8386 3.57503 15.734C3.11818 14.6293 2.88371 13.4454 2.88503 12.25H1.11501C1.11501 15.1409 2.26342 17.9133 4.30757 19.9575C6.35172 22.0016 9.12417 23.15 12.015 23.15L11.985 21.35ZM11.985 3.15001C13.1804 3.14869 14.3644 3.38317 15.469 3.84002C16.5737 4.29687 17.5773 4.96713 18.4226 5.8124C19.2679 6.65768 19.9381 7.66137 20.395 8.76603C20.8518 9.87069 21.0863 11.0546 21.085 12.25H22.885C22.885 9.35915 21.7366 6.58669 19.6925 4.54254C17.6483 2.49839 14.8759 1.35001 11.985 1.35001V3.15001ZM5.55501 5.82001C6.3981 4.97338 7.40015 4.30167 8.50362 3.84347C9.60708 3.38527 10.7902 3.1496 11.985 3.15001V1.35001C9.09428 1.35195 6.32202 2.49896 4.27498 4.54001L5.55501 5.82001ZM4.27498 4.54001L3.235 5.60001L4.50502 6.88L5.58498 5.81001L4.27498 4.54001ZM4.74501 6.25001V1.75001H2.94502V6.25001H4.74501ZM3.84499 7.15001H8.34499V5.35001H3.84499V7.15001Z" fill="#333333"/>
<path d="M12.015 6.75V12.25L15.015 15.25" stroke="#333333" stroke-width="1.8" stroke-linecap="round" stroke-linejoin="round"/>
</svg>
