<svg width="24" height="24" viewBox="0 0 24 24" fill="none" xmlns="http://www.w3.org/2000/svg">
<path fill-rule="evenodd" clip-rule="evenodd" d="M10.9016 2.27504C11.7457 2.04166 12.6372 2.04166 13.4813 2.27504L13.5471 2.29325L13.6095 2.32118C14.7454 2.83017 15.7805 3.53908 16.6655 4.41396L19.2008 6.36422C19.879 6.83083 20.4964 7.38023 21.0387 7.99971L21.0631 8.02764L21.0852 8.05749C21.4402 8.53772 21.7029 9.07974 21.8598 9.65596L21.8678 9.68511L21.8737 9.71473C22.0365 10.5228 22.0929 11.3487 22.0415 12.1713V18.6912C22.076 19.2094 22.0392 19.7299 21.9321 20.2381L21.9245 20.2744L21.9139 20.3099C21.7772 20.7676 21.5297 21.1844 21.1933 21.5233C20.8569 21.8623 20.4419 22.1129 19.9854 22.2529L19.9368 22.2678L19.8869 22.2771C19.3849 22.3711 18.8732 22.4031 18.3634 22.3725H17.5195L17.4975 22.3714C16.7782 22.3363 16.0977 22.0347 15.5885 21.5255C15.0792 21.0162 14.7777 20.3357 14.7425 19.6164L14.7415 19.5945V16.4725C14.7415 15.7829 14.4675 15.1216 13.9799 14.634C13.4923 14.1464 12.831 13.8725 12.1415 13.8725C11.4519 13.8725 10.7906 14.1464 10.303 14.634C9.81538 15.1216 9.54146 15.7829 9.54146 16.4725V19.5945L9.54038 19.6164C9.50523 20.3357 9.20369 21.0162 8.69445 21.5255C8.18521 22.0347 7.5047 22.3363 6.78538 22.3714L6.76343 22.3725H5.92949C5.4197 22.4031 4.90804 22.3711 4.40597 22.2771L4.35608 22.2678L4.30756 22.2529C3.85098 22.1129 3.43604 21.8623 3.09961 21.5233C2.76318 21.1844 2.51567 20.7676 2.37906 20.3099L2.36919 20.2769L2.36187 20.2431C2.25474 19.7487 2.21425 19.2423 2.24146 18.7372V12.168C2.19455 11.3207 2.26196 10.471 2.44193 9.64164L2.44691 9.61865L2.4531 9.59596C2.61005 9.01974 2.87273 8.47772 3.22774 7.99749L3.2498 7.96764L3.27425 7.93971C3.8165 7.32023 4.43389 6.77083 5.1121 6.30422L7.65598 4.34739C8.57065 3.48442 9.63449 2.79457 10.7958 2.31151L10.8476 2.28998L10.9016 2.27504ZM11.4333 3.99606C10.4818 4.39944 9.61076 4.97128 8.86213 5.68423L8.82779 5.71694L6.17034 7.76113L6.14966 7.77528C5.59857 8.15233 5.09626 8.59605 4.65413 9.09632C4.44676 9.38389 4.29161 9.70576 4.19585 10.0472C4.05251 10.7181 4.00006 11.4052 4.03994 12.0902L4.04146 12.1163V18.7889L4.03991 18.8153C4.02003 19.1536 4.04469 19.493 4.1132 19.8248C4.16657 19.9867 4.25688 20.1341 4.37716 20.2553C4.49406 20.3731 4.63595 20.4627 4.79208 20.5178C5.13891 20.5782 5.49176 20.5972 5.8432 20.5744L5.8723 20.5725H6.71621C6.98214 20.555 7.23291 20.4414 7.42166 20.2527C7.6104 20.064 7.72393 19.8132 7.74146 19.5473V16.4725C7.74146 15.3055 8.20503 14.1864 9.03019 13.3612C9.85535 12.5361 10.9745 12.0725 12.1415 12.0725C13.3084 12.0725 14.4276 12.5361 15.2527 13.3612C16.0779 14.1864 16.5415 15.3055 16.5415 16.4725V19.5472C16.559 19.8132 16.6725 20.0639 16.8613 20.2527C17.05 20.4414 17.3008 20.555 17.5667 20.5725H18.4206L18.4497 20.5744C18.8012 20.5972 19.154 20.5782 19.5008 20.5178C19.657 20.4627 19.7989 20.3731 19.9158 20.2553C20.0355 20.1347 20.1255 19.988 20.179 19.827C20.2473 19.4852 20.2691 19.1356 20.2438 18.7878L20.2415 18.7552V12.1129L20.2434 12.0834C20.2871 11.4198 20.244 10.7534 20.1153 10.101C20.0194 9.76187 19.8649 9.44215 19.6588 9.15632C19.2167 8.65605 18.7143 8.21233 18.1632 7.83528L18.1426 7.82113L15.4764 5.77021L15.4351 5.72888C14.7125 5.00628 13.8669 4.41855 12.9382 3.99314C12.4443 3.868 11.9268 3.86897 11.4333 3.99606Z" fill="black"/>
<path fill-rule="evenodd" clip-rule="evenodd" d="M13.448 2.39552C12.6257 2.16817 11.7572 2.16817 10.9349 2.39552L10.8884 2.40839L10.8438 2.42693C9.69646 2.90417 8.64543 3.58573 7.74176 4.43831L7.73258 4.44697L5.18305 6.40735C4.51341 6.86806 3.90371 7.41038 3.36831 8.02204L3.34726 8.04609L3.32826 8.07179C2.98245 8.53957 2.72659 9.06754 2.5737 9.62881L2.56838 9.64835L2.56408 9.66815C2.3865 10.4865 2.31997 11.325 2.36627 12.1611L2.36665 12.168L2.36646 18.744C2.33985 19.2379 2.37926 19.7331 2.48404 20.2166L2.49033 20.2457L2.49884 20.2742C2.62956 20.7121 2.8664 21.1109 3.18833 21.4353C3.51026 21.7596 3.90731 21.9994 4.34421 22.1334L4.38601 22.1462L4.42896 22.1543C4.92099 22.2463 5.42241 22.2777 5.92201 22.2477L5.92949 22.2473L6.76038 22.2475L6.77928 22.2466C7.4676 22.2129 8.11877 21.9244 8.60606 21.4371C9.09335 20.9498 9.3819 20.2986 9.41553 19.6103L9.41646 19.5914V16.4725C9.41646 15.7498 9.70355 15.0567 10.2146 14.5456C10.7256 14.0346 11.4187 13.7475 12.1415 13.7475C12.8642 13.7475 13.5573 14.0346 14.0683 14.5456C14.5794 15.0567 14.8665 15.7498 14.8665 16.4725V19.5914L14.8674 19.6103C14.901 20.2986 15.1896 20.9498 15.6769 21.4371C16.1641 21.9244 16.8153 22.2129 17.5036 22.2466L17.5225 22.2475H18.3709C18.8705 22.2775 19.3719 22.2463 19.864 22.1543L19.9069 22.1462L19.9487 22.1334C20.3856 21.9994 20.7827 21.7596 21.1046 21.4353C21.4265 21.1109 21.6634 20.7121 21.7941 20.2742L21.8032 20.2436L21.8098 20.2123C21.9146 19.7153 21.9505 19.2063 21.9167 18.6995L21.9162 18.6912L21.9165 12.1635C21.9672 11.3518 21.9119 10.5368 21.7512 9.73942L21.746 9.71392L21.7392 9.68881C21.5863 9.12754 21.3305 8.59957 20.9847 8.13179L20.9657 8.1061L20.9446 8.08204C20.4092 7.47038 19.7996 6.92792 19.13 6.4672L19.1245 6.46344L16.5831 4.50831L16.5776 4.50286C15.7033 3.6385 14.6806 2.93812 13.5584 2.43525L13.5047 2.4112L13.448 2.39552ZM10.8683 2.15456C11.7342 1.91515 12.6488 1.91515 13.5146 2.15456L13.5896 2.17529L13.6606 2.2071C14.8078 2.72116 15.8534 3.4367 16.7478 4.3196L19.2744 6.26313C19.9601 6.73523 20.5844 7.29091 21.1327 7.91738L21.164 7.95308L21.1857 7.98318C21.5499 8.47587 21.8194 9.03195 21.9804 9.6231L21.9906 9.66036L21.9963 9.69004C22.161 10.5075 22.2182 11.343 22.1665 12.1752V18.6871C22.2013 19.2153 22.1636 19.7458 22.0544 20.2639L22.0446 20.3103L22.0336 20.3457C21.8911 20.823 21.633 21.2578 21.282 21.6114C20.9311 21.9649 20.4983 22.2264 20.022 22.3724L19.96 22.3915L19.9099 22.4C19.399 22.4956 18.8784 22.5283 18.3597 22.4975H17.5134L17.4914 22.4963C16.7411 22.4596 16.0313 22.1451 15.5001 21.6139C14.9689 21.0827 14.6543 20.3728 14.6177 19.6225L14.6163 19.5945L14.6165 16.4725C14.6165 15.8161 14.3557 15.1866 13.8915 14.7224C13.4274 14.2583 12.7979 13.9975 12.1415 13.9975C11.485 13.9975 10.8555 14.2583 10.3914 14.7224C9.92721 15.1866 9.66646 15.8161 9.66646 16.4725V19.6006L9.66524 19.6225C9.62857 20.3728 9.31403 21.0827 8.78284 21.6139C8.25165 22.1451 7.54181 22.4596 6.79149 22.4963L6.76343 22.4976L5.93321 22.4975C5.41447 22.5283 4.89386 22.4956 4.38299 22.4L4.3192 22.3881L4.27091 22.3724C3.79465 22.2264 3.36183 21.9649 3.01089 21.6114C2.65996 21.2578 2.40178 20.823 2.25929 20.3457L2.24666 20.3034L2.23971 20.2696C2.13045 19.7654 2.08901 19.2489 2.11646 18.7339V12.1715C2.0693 11.3141 2.13767 10.4543 2.31977 9.61513L2.32614 9.58576L2.33249 9.5631C2.49352 8.97195 2.763 8.41587 3.12722 7.92318L3.15543 7.88503L3.18019 7.85738C3.72856 7.23091 4.35281 6.67522 5.03851 6.20313L7.57479 4.25214C8.49943 3.38081 9.57445 2.68416 10.7478 2.1961L10.8068 2.17158L10.8683 2.15456ZM11.4022 3.875C11.9159 3.74269 12.4547 3.74168 12.9689 3.87197L12.9799 3.87476L12.9902 3.8795C13.9325 4.31109 14.7903 4.90738 15.5234 5.64049L15.559 5.67609L18.216 7.71993L18.2338 7.73211C18.7934 8.11498 19.3035 8.56556 19.7524 9.07354L19.7607 9.08284C19.9753 9.38051 20.1357 9.71382 20.2356 10.067L20.2384 10.0767C20.3691 10.7398 20.4125 11.4172 20.3681 12.0916L20.3665 12.117V18.7507L20.3685 18.7787C20.3946 19.1378 20.3721 19.4986 20.3016 19.8515L20.3001 19.8591L20.2976 19.8664C20.2381 20.0457 20.1378 20.209 20.0045 20.3434C19.8743 20.4745 19.7163 20.5744 19.5424 20.6357L19.5326 20.6392L19.5223 20.6409C19.1657 20.703 18.8029 20.7226 18.4416 20.6991L18.4166 20.6975H17.5585C17.2623 20.678 16.9831 20.5513 16.7729 20.3411C16.5627 20.1309 16.4362 19.8516 16.4167 19.5555L16.4162 19.5472L16.4165 16.4725C16.4165 15.3387 15.9661 14.2513 15.1643 13.4496C14.3626 12.6479 13.2753 12.1975 12.1415 12.1975C11.0077 12.1975 9.92029 12.6479 9.11858 13.4496C8.31686 14.2513 7.86646 15.3387 7.86646 16.4725V19.5555C7.84693 19.8516 7.72024 20.1309 7.51005 20.3411C7.29985 20.5513 7.02058 20.6777 6.72443 20.6972L6.71621 20.6978L5.87636 20.6975L5.85129 20.6991C5.48998 20.7226 5.12722 20.703 4.77064 20.6409L4.76035 20.6392L4.75051 20.6357C4.57664 20.5744 4.41863 20.4745 4.28844 20.3434C4.1545 20.2084 4.05392 20.0442 3.99448 19.864L3.99223 19.8571L3.99078 19.8501C3.92006 19.5076 3.8946 19.1572 3.91512 18.8079L3.91646 18.7852V12.12L3.91515 12.0975C3.87462 11.4013 3.92793 10.7029 4.07361 10.0211L4.07526 10.0134C4.17498 9.65781 4.33678 9.32268 4.55275 9.0232L4.56001 9.01313C5.00896 8.50515 5.51948 8.05498 6.07908 7.67211L6.09688 7.65993L8.74635 5.62188L8.77593 5.59371C9.53545 4.87039 10.4192 4.29022 11.3845 3.88097L11.3931 3.87733L11.4022 3.875ZM11.4735 4.11481C10.5392 4.51212 9.68381 5.07434 8.94834 5.77475L8.90443 5.81657L6.24103 7.86445L6.22025 7.87844C5.67937 8.2485 5.18623 8.68379 4.75193 9.17443C4.55569 9.44777 4.40859 9.75326 4.31727 10.0772C4.17689 10.7359 4.12558 11.4105 4.16472 12.0829L4.16667 12.1163L4.16646 18.7963L4.16469 18.8226C4.1456 19.1476 4.16896 19.4735 4.23414 19.7923C4.28171 19.9332 4.36092 20.0615 4.46588 20.1672C4.56709 20.2692 4.68944 20.3474 4.82404 20.3965C5.15775 20.4537 5.49709 20.4716 5.83511 20.4496L5.8723 20.4472L6.71197 20.4475C6.9462 20.4311 7.16691 20.3307 7.33327 20.1643C7.49962 19.998 7.60005 19.7772 7.61646 19.543V16.4725C7.61646 15.2724 8.0932 14.1214 8.9418 13.2728C9.7904 12.4242 10.9413 11.9475 12.1415 11.9475C13.3416 11.9475 14.4925 12.4242 15.3411 13.2728C16.1897 14.1214 16.6665 15.2724 16.6665 16.4725V19.543C16.6829 19.7772 16.7833 19.9979 16.9496 20.1643C17.116 20.3307 17.3367 20.4311 17.5709 20.4475H18.4287L18.4578 20.4496C18.7958 20.4716 19.1352 20.4537 19.4689 20.3965C19.6035 20.3474 19.7258 20.2692 19.827 20.1672C19.9314 20.0621 20.0103 19.9347 20.058 19.7947C20.1229 19.4664 20.1435 19.1308 20.1192 18.7969L20.1161 18.7552L20.1165 12.1047L20.1187 12.0752C20.1615 11.4241 20.1195 10.7703 19.9937 10.1302C19.9022 9.80886 19.7558 9.5058 19.561 9.23443C19.1267 8.74379 18.6335 8.3085 18.0927 7.93844L18.0662 7.92036L15.3937 5.86434L15.3467 5.81727C14.6373 5.10788 13.8076 4.53039 12.8965 4.11156C12.4293 3.99508 11.9403 3.99616 11.4735 4.11481Z" fill="black"/>
</svg>
