<svg width="24" height="24" viewBox="0 0 24 24" fill="none" xmlns="http://www.w3.org/2000/svg">
<path d="M21.4996 18.5485V12.4285C21.5597 11.4946 21.4991 10.5569 21.3195 9.63849C21.1588 9.05729 20.8909 8.51126 20.5295 8.0285C19.9257 7.31302 19.2297 6.68083 18.4595 6.1485L16.9595 4.9685C15.1895 3.5685 14.2995 2.8685 13.3195 2.5985C12.4545 2.36866 11.5445 2.36866 10.6795 2.5985C9.67955 2.8685 8.81953 3.5985 7.03953 4.9685L5.53953 6.1485C4.76839 6.6833 4.06929 7.31516 3.45952 8.0285C3.10484 8.51391 2.84064 9.0593 2.67955 9.63849C2.49996 10.5569 2.43946 11.4946 2.49956 12.4285V18.5485C2.44351 19.1427 2.49428 19.7422 2.64952 20.3185C2.85247 20.8072 3.24084 21.1956 3.72954 21.3985C4.30515 21.5577 4.90536 21.6086 5.49956 21.5485H6.59953C7.09398 21.5245 7.56192 21.3179 7.91289 20.9688C8.26385 20.6197 8.47291 20.1528 8.49956 19.6585V16.5485C8.49956 15.6202 8.86826 14.73 9.52464 14.0736C10.181 13.4172 11.0713 13.0485 11.9996 13.0485C12.9278 13.0485 13.818 13.4172 14.4744 14.0736C15.1308 14.73 15.4996 15.6202 15.4996 16.5485V19.6485C15.5238 20.1446 15.7317 20.6139 16.0829 20.9651C16.4341 21.3163 16.9034 21.5243 17.3995 21.5485H18.4996C19.0904 21.609 19.6874 21.5581 20.2595 21.3985C20.5033 21.2991 20.7252 21.1525 20.9122 20.9672C21.0993 20.7818 21.2479 20.5614 21.3495 20.3185C21.4997 19.7413 21.5504 19.1427 21.4996 18.5485Z" fill="black"/>
</svg>
