<svg width="24" height="24" viewBox="0 0 24 24" fill="none" xmlns="http://www.w3.org/2000/svg">
<path fill-rule="evenodd" clip-rule="evenodd" d="M15.9906 3.36361C16.3421 3.01214 16.9119 3.01214 17.2634 3.36361L20.7634 6.86361C21.1149 7.21508 21.1149 7.78493 20.7634 8.1364L17.2634 11.6364C16.9119 11.9879 16.3421 11.9879 15.9906 11.6364C15.6391 11.2849 15.6391 10.7151 15.9906 10.3636L17.9542 8.40001H4.12699C3.62993 8.40001 3.22699 7.99706 3.22699 7.50001C3.22699 7.00295 3.62993 6.60001 4.12699 6.60001H17.9542L15.9906 4.6364C15.6391 4.28493 15.6391 3.71508 15.9906 3.36361ZM7.26339 12.3636C7.61486 12.7151 7.61486 13.2849 7.26339 13.6364L5.29978 15.6H12.127C12.624 15.6 13.027 16.0029 13.027 16.5C13.027 16.9971 12.624 17.4 12.127 17.4H5.29978L7.26339 19.3636C7.61486 19.7151 7.61486 20.2849 7.26339 20.6364C6.91191 20.9879 6.34207 20.9879 5.99059 20.6364L2.49059 17.1364C2.32181 16.9676 2.22699 16.7387 2.22699 16.5C2.22699 16.2613 2.32181 16.0324 2.49059 15.8636L5.99059 12.3636C6.34207 12.0121 6.91191 12.0121 7.26339 12.3636Z" fill="#333333"/>
</svg>
