<svg width="24" height="24" viewBox="0 0 24 24" fill="none" xmlns="http://www.w3.org/2000/svg">
<path fill-rule="evenodd" clip-rule="evenodd" d="M6.56002 1.60001C5.91341 1.60095 5.28564 1.81798 4.77651 2.21658C4.26738 2.61519 3.9061 3.17251 3.75002 3.8L1.19003 14.04C1.13062 14.2686 1.10035 14.5038 1.1 14.74V19.5C1.1 20.2691 1.40551 21.0068 1.94936 21.5506C2.49322 22.0945 3.2309 22.4 4.00002 22.4H20C20.7691 22.4 21.5068 22.0945 22.0506 21.5506C22.5945 21.0068 22.9 20.2691 22.9 19.5V14.75C22.9009 14.5137 22.8707 14.2784 22.81 14.05L20.25 3.8C20.0939 3.17251 19.7326 2.61519 19.2235 2.21658C18.7143 1.81798 18.0866 1.60095 17.44 1.60001H6.56002ZM5.49001 4.23C5.5518 3.99299 5.69021 3.78306 5.88375 3.63293C6.07729 3.48281 6.31508 3.40092 6.56002 3.40001H17.44C17.6841 3.39968 17.9212 3.4813 18.1134 3.6318C18.3056 3.78229 18.4418 3.99294 18.5 4.23L21.1 14.48H17.1C16.7698 14.479 16.4445 14.5597 16.1531 14.715C15.8617 14.8703 15.6133 15.0953 15.43 15.37L14.62 16.59C14.4377 16.8633 14.1909 17.0874 13.9013 17.2427C13.6118 17.3979 13.2885 17.4794 12.96 17.48H11.1C10.7715 17.4794 10.4482 17.3979 10.1587 17.2427C9.86913 17.0874 9.62235 16.8633 9.44003 16.59L8.62002 15.37C8.4377 15.0967 8.19085 14.8726 7.90133 14.7174C7.61181 14.5621 7.28849 14.4806 6.95998 14.48H2.95998L5.49001 4.23Z" fill="black"/>
</svg>
