<svg width="24" height="24" viewBox="0 0 24 24" fill="none" xmlns="http://www.w3.org/2000/svg">
<path d="M21.93 7.85501C21.9142 7.02402 21.7552 6.20198 21.46 5.42502C21.2027 4.76224 20.8102 4.1603 20.3074 3.65756C19.8047 3.15483 19.2028 2.76231 18.54 2.505C17.7617 2.21467 16.9405 2.05585 16.11 2.03502C15.04 1.98502 14.7 1.97501 11.98 1.97501C9.26 1.97501 8.92 1.97502 7.86 2.03502C7.03009 2.05245 6.20887 2.2079 5.43 2.49501C4.764 2.75096 4.16048 3.14649 3.66 3.65501C3.15112 4.15322 2.75845 4.7576 2.51 5.42502C2.2333 6.20567 2.088 7.02681 2.08 7.85501C2.08 8.92501 2.02 9.26501 2.02 11.975C2.02 14.685 2.02 15.035 2.08 16.095C2.07901 16.9395 2.22102 17.778 2.5 18.575C2.75948 19.2381 3.15392 19.8401 3.6583 20.3428C4.16267 20.8454 4.766 21.2378 5.43 21.495C6.20697 21.7902 7.02901 21.9492 7.86 21.965C8.92 21.965 9.26 22.025 11.98 22.025C14.7 22.025 15.04 22.025 16.1 21.965C16.9299 21.9476 17.7511 21.7921 18.53 21.505C19.1947 21.2462 19.7983 20.8521 20.3027 20.3477C20.8071 19.8433 21.2012 19.2397 21.46 18.575C21.752 17.7975 21.9076 16.9754 21.92 16.145C21.97 15.085 21.98 14.745 21.98 12.025C21.98 9.30501 21.98 8.92501 21.93 7.85501ZM20.13 16.025C20.1192 16.6571 20.0008 17.2827 19.78 17.875C19.6116 18.3057 19.3558 18.6969 19.0288 19.0238C18.7019 19.3508 18.3107 19.6066 17.88 19.775C17.2852 19.9983 16.6553 20.1134 16.02 20.115C15.02 20.165 14.65 20.175 12.02 20.175C9.39 20.175 9.02 20.175 8.02 20.115C7.35781 20.1234 6.69987 20.0081 6.08 19.775C5.64385 19.6173 5.25021 19.3605 4.93 19.025C4.59809 18.7038 4.34485 18.3102 4.19 17.875C3.9692 17.2827 3.85085 16.6571 3.84 16.025C3.84 14.965 3.78 14.655 3.78 12.025C3.78 9.39501 3.78 9.02501 3.84 8.02501C3.84689 7.3893 3.96535 6.75974 4.19 6.16501C4.34775 5.72885 4.60447 5.33522 4.94 5.01501C5.24978 4.65534 5.64048 4.3743 6.08 4.19501C6.67234 3.97421 7.29794 3.85586 7.93 3.84502C8.99 3.84502 9.3 3.78502 11.93 3.78502C14.56 3.78502 14.93 3.78502 15.93 3.84502C16.5653 3.85589 17.1942 3.97422 17.79 4.19501C18.2233 4.3536 18.6161 4.60634 18.94 4.93501C19.2667 5.26055 19.5191 5.65283 19.68 6.08501C19.9016 6.68024 20.0167 7.30986 20.02 7.94501C20.07 8.94501 20.08 9.31501 20.08 11.945C20.08 14.575 20.08 14.945 20.03 15.945L20.13 16.025Z" fill="black"/>
<path d="M11.98 6.83499C10.9617 6.82707 9.96407 7.12178 9.11356 7.68174C8.26304 8.24169 7.59802 9.04165 7.20284 9.98014C6.80767 10.9186 6.70015 11.9533 6.89394 12.953C7.08773 13.9527 7.57408 14.8723 8.29131 15.5951C9.00853 16.318 9.9243 16.8115 10.9224 17.0131C11.9206 17.2147 12.9561 17.1153 13.8976 16.7275C14.8392 16.3396 15.6443 15.6809 16.2109 14.8348C16.7775 13.9886 17.08 12.9933 17.08 11.975C17.08 10.6187 16.544 9.31734 15.5887 8.35454C14.6334 7.39175 13.3363 6.84555 11.98 6.83499ZM11.98 15.305C11.2098 15.3028 10.4642 15.0336 9.87016 14.5434C9.27611 14.0532 8.87037 13.3722 8.72202 12.6164C8.57367 11.8606 8.69189 11.0768 9.05655 10.3984C9.42121 9.71999 10.0098 9.18896 10.722 8.89576C11.4342 8.60255 12.226 8.56529 12.9626 8.79032C13.6992 9.01535 14.335 9.48874 14.7618 10.1299C15.1885 10.7711 15.3798 11.5403 15.3031 12.3067C15.2264 13.0731 14.8864 13.7892 14.341 14.333C14.0308 14.6424 13.6625 14.8875 13.2574 15.0543C12.8522 15.2211 12.4181 15.3063 11.98 15.305Z" fill="black"/>
<path d="M18.53 6.63499C18.53 6.87233 18.4596 7.10434 18.3278 7.30168C18.1959 7.49902 18.0085 7.65283 17.7892 7.74365C17.57 7.83448 17.3287 7.85824 17.0959 7.81194C16.8631 7.76563 16.6493 7.65134 16.4815 7.48352C16.3137 7.3157 16.1994 7.10189 16.1531 6.86911C16.1068 6.63633 16.1305 6.39505 16.2213 6.17578C16.3122 5.95651 16.466 5.7691 16.6633 5.63724C16.8607 5.50538 17.0927 5.435 17.33 5.435C17.6483 5.435 17.9535 5.56142 18.1785 5.78647C18.4036 6.01151 18.53 6.31673 18.53 6.63499Z" fill="black"/>
</svg>
