<svg width="24" height="24" viewBox="0 0 24 24" fill="none" xmlns="http://www.w3.org/2000/svg">
<path fill-rule="evenodd" clip-rule="evenodd" d="M2.025 11.975C2.025 7.785 2.02499 5.685 3.07499 4.245C3.41402 3.7759 3.82586 3.36403 4.29496 3.02499C5.73496 2.02499 7.835 2.02499 12.025 2.02499C16.215 2.02499 18.315 2.02499 19.755 3.02499C20.2241 3.36403 20.6359 3.7759 20.975 4.245C21.975 5.685 21.975 7.785 21.975 11.975C21.975 16.165 21.975 18.265 20.975 19.705C20.6359 20.1741 20.2241 20.586 19.755 20.925C18.315 21.975 16.215 21.975 12.025 21.975C7.835 21.975 5.73496 21.975 4.29496 20.925C3.82587 20.586 3.41404 20.1741 3.07499 19.705C2.02499 18.265 2.025 16.165 2.025 11.975ZM12.025 6.685C10.9787 6.685 9.95597 6.99525 9.08604 7.57652C8.2161 8.1578 7.53806 8.98398 7.13767 9.9506C6.73728 10.9172 6.63253 11.9809 6.83665 13.007C7.04076 14.0332 7.54458 14.9758 8.2844 15.7156C9.02422 16.4554 9.9668 16.9592 10.993 17.1633C12.0191 17.3675 13.0827 17.2627 14.0494 16.8623C15.016 16.4619 15.8422 15.7839 16.4234 14.914C17.0047 14.044 17.315 13.0213 17.315 11.975C17.315 10.572 16.7577 9.22647 15.7656 8.23441C14.7735 7.24234 13.428 6.685 12.025 6.685ZM12.025 15.285C11.3703 15.285 10.7303 15.0909 10.186 14.7272C9.64169 14.3635 9.21748 13.8465 8.96696 13.2417C8.71643 12.6369 8.65089 11.9713 8.7786 11.3292C8.90632 10.6872 9.22151 10.0974 9.68443 9.63448C10.1473 9.17156 10.7372 8.85632 11.3792 8.7286C12.0213 8.60088 12.6868 8.66643 13.2917 8.91695C13.8965 9.16748 14.4134 9.59174 14.7771 10.1361C15.1408 10.6804 15.335 11.3203 15.335 11.975C15.335 12.8529 14.9863 13.6948 14.3655 14.3155C13.7448 14.9363 12.9029 15.285 12.025 15.285ZM18.425 6.285C18.425 6.42542 18.3834 6.56269 18.3053 6.67945C18.2273 6.79621 18.1164 6.88721 17.9867 6.94095C17.8569 6.99469 17.7142 7.00875 17.5765 6.98135C17.4387 6.95396 17.3122 6.88634 17.2129 6.78704C17.1136 6.68775 17.046 6.56123 17.0186 6.42351C16.9912 6.28578 17.0053 6.14303 17.059 6.01329C17.1127 5.88355 17.2038 5.77267 17.3205 5.69466C17.4373 5.61664 17.5746 5.575 17.715 5.575C17.8082 5.575 17.9005 5.59336 17.9867 5.62904C18.0728 5.66472 18.1511 5.71702 18.217 5.78295C18.2829 5.84888 18.3353 5.92715 18.3709 6.01329C18.4066 6.09943 18.425 6.19176 18.425 6.285Z" fill="#333333"/>
</svg>
