<svg width="24" height="24" viewBox="0 0 24 24" fill="none" xmlns="http://www.w3.org/2000/svg">
<path fill-rule="evenodd" clip-rule="evenodd" d="M21.9214 20.75C22.108 20.7495 22.2907 20.6969 22.4489 20.598C22.6072 20.4992 22.7346 20.358 22.8167 20.1905C22.8989 20.023 22.9326 19.8359 22.914 19.6502C22.8954 19.4646 22.8252 19.2878 22.7114 19.14L16.2514 10.77C16.0893 10.5609 15.851 10.4246 15.5886 10.3908C15.3262 10.3571 15.0611 10.4287 14.8514 10.59C14.7818 10.6396 14.721 10.7004 14.6714 10.77L10.6714 15.96C10.5093 16.1691 10.271 16.3054 10.0086 16.3392C9.74617 16.3729 9.48109 16.3013 9.27139 16.14C9.20556 16.0973 9.14798 16.0431 9.10141 15.98L7.24142 13.7C7.14764 13.585 7.0294 13.4923 6.89535 13.4286C6.7613 13.365 6.61479 13.332 6.4664 13.332C6.318 13.332 6.17149 13.365 6.03744 13.4286C5.90339 13.4923 5.78515 13.585 5.69137 13.7L1.29141 19.12C1.17503 19.2678 1.10235 19.4452 1.08163 19.6321C1.06091 19.8191 1.09297 20.0081 1.17416 20.1777C1.25535 20.3474 1.3824 20.4909 1.54098 20.5921C1.69956 20.6932 1.8833 20.7479 2.07138 20.75H21.9214Z" fill="#333333"/>
<path d="M7.46136 8.25C8.84208 8.25 9.96136 7.13071 9.96136 5.75C9.96136 4.36929 8.84208 3.25 7.46136 3.25C6.08065 3.25 4.96136 4.36929 4.96136 5.75C4.96136 7.13071 6.08065 8.25 7.46136 8.25Z" fill="#333333"/>
</svg>
