<svg width="24" height="24" viewBox="0 0 24 24" fill="none" xmlns="http://www.w3.org/2000/svg">
<path d="M22.02 22V14.66C22.02 11.08 21.25 8.31003 17.02 8.31003C16.2322 8.28108 15.4513 8.46674 14.7609 8.84719C14.0704 9.22764 13.4963 9.78857 13.1 10.47H13.12V8.65003H9.12V22H13.27V15.39C13.27 13.65 13.6 11.96 15.75 11.96C17.9 11.96 17.91 13.96 17.91 15.5V22H22.02Z" fill="black"/>
<path d="M2.34999 8.65002H6.5V22H2.34999V8.65002Z" fill="black"/>
<path d="M4.42 2.00002C3.94096 1.99607 3.47153 2.13438 3.07116 2.39744C2.6708 2.66049 2.35751 3.03645 2.17099 3.4777C1.98447 3.91895 1.93309 4.40564 2.02339 4.8761C2.11369 5.34657 2.34159 5.77965 2.67822 6.12049C3.01485 6.46133 3.44507 6.69458 3.91438 6.79072C4.38369 6.88685 4.87097 6.84154 5.3145 6.66051C5.75803 6.47949 6.13786 6.17089 6.40587 5.77383C6.67387 5.37676 6.81799 4.90908 6.81999 4.43003C6.82131 4.11449 6.76014 3.80181 6.64 3.51003C6.51985 3.21825 6.34312 2.95314 6.11999 2.73002C5.89687 2.50689 5.63177 2.33017 5.33999 2.21003C5.04822 2.08989 4.73554 2.0287 4.42 2.03002V2.00002Z" fill="black"/>
</svg>
