<svg width="24" height="24" viewBox="0 0 24 24" fill="none" xmlns="http://www.w3.org/2000/svg">
<path fill-rule="evenodd" clip-rule="evenodd" d="M19.6501 4.2179C19.6498 4.218 19.6503 4.21779 19.6501 4.2179L4.26218 11.127C4.24408 11.135 4.22879 11.1484 4.21825 11.1652C4.20773 11.182 4.20246 11.2016 4.2031 11.2215C4.20374 11.2413 4.21027 11.2605 4.22187 11.2766C4.23348 11.2928 4.2496 11.305 4.26817 11.312L4.2722 11.3134L9.57028 13.3127C9.82576 13.4079 10.0577 13.5569 10.2503 13.7496C10.4431 13.9424 10.5921 14.1743 10.6873 14.4298C10.6876 14.4307 10.688 14.4317 10.6883 14.4326L12.6891 19.7346C12.6953 19.7515 12.7066 19.7664 12.7214 19.7771C12.7362 19.7877 12.7538 19.7936 12.772 19.7941C12.7902 19.7946 12.8081 19.7896 12.8234 19.7798C12.8388 19.77 12.8509 19.7558 12.858 19.7392L12.8637 19.7262L19.7821 4.3499C19.7822 4.34962 19.782 4.35017 19.7821 4.3499C19.79 4.33156 19.7927 4.31053 19.789 4.29102C19.7854 4.27122 19.7758 4.25291 19.7614 4.23856C19.7471 4.22427 19.7288 4.21464 19.709 4.21095C19.6893 4.20731 19.6684 4.20994 19.6501 4.2179ZM18.9189 2.57311C19.2698 2.41708 19.6598 2.37109 20.0375 2.44118C20.4151 2.51128 20.7626 2.69418 21.0342 2.96577C21.3057 3.23731 21.4887 3.58481 21.5588 3.96251C21.6289 4.34021 21.5829 4.73022 21.4269 5.08111L21.4252 5.08478L14.5077 20.4594C14.3576 20.8034 14.1085 21.0949 13.7921 21.2969C13.4735 21.5004 13.1011 21.6037 12.7231 21.5934C12.3451 21.5832 11.9789 21.4598 11.6717 21.2393C11.3658 21.0197 11.1322 20.7136 11.0013 20.3603C11.0008 20.359 11.0004 20.3577 10.9999 20.3564L9.00058 15.0584C8.99558 15.0449 8.98774 15.0326 8.97754 15.0224C8.96729 15.0122 8.95505 15.0043 8.94163 14.9994L8.93674 14.9976L3.64073 12.9991C3.63993 12.9988 3.63913 12.9985 3.63833 12.9982C3.28582 12.8665 2.98036 12.6332 2.76064 12.3277C2.54041 12.0216 2.41627 11.6568 2.40404 11.2798C2.39182 10.9029 2.49206 10.5308 2.69199 10.211C2.89173 9.89151 3.18196 9.6386 3.52582 9.48446C3.52613 9.48432 3.52552 9.48459 3.52582 9.48446L18.9158 2.57446L18.9189 2.57311Z" fill="#333333"/>
</svg>
