<svg width="24" height="24" viewBox="0 0 24 24" fill="none" xmlns="http://www.w3.org/2000/svg">
<path fill-rule="evenodd" clip-rule="evenodd" d="M12.56 20.6795C14.22 19.3495 19 15.0695 19 10.1195C19 8.26299 18.2625 6.48251 16.9498 5.16975C15.637 3.857 13.8565 3.11951 12 3.11951C10.1435 3.11951 8.36302 3.857 7.05026 5.16975C5.73751 6.48251 5 8.26299 5 10.1195C5 15.0695 9.78 19.3495 11.44 20.6795C11.5976 20.8096 11.7956 20.8807 12 20.8807C12.2044 20.8807 12.4024 20.8096 12.56 20.6795ZM12 13.1195C12.5933 13.1195 13.1734 12.9436 13.6667 12.6139C14.1601 12.2843 14.5446 11.8157 14.7717 11.2675C14.9987 10.7194 15.0581 10.1162 14.9424 9.53423C14.8266 8.95228 14.5409 8.41774 14.1213 7.99818C13.7018 7.57863 13.1672 7.29289 12.5853 7.17714C12.0033 7.06138 11.4001 7.12081 10.852 7.34787C10.3038 7.57493 9.83524 7.95944 9.5056 8.45279C9.17596 8.94614 9 9.52616 9 10.1195C9 10.9152 9.31608 11.6782 9.87869 12.2408C10.4413 12.8034 11.2044 13.1195 12 13.1195Z" fill="#333333"/>
</svg>
