<svg width="24" height="24" viewBox="0 0 24 24" fill="none" xmlns="http://www.w3.org/2000/svg">
<path d="M20.6085 4.71501L13.6885 20.095C13.61 20.277 13.4788 20.4312 13.3118 20.5379C13.1448 20.6445 12.9496 20.6987 12.7515 20.6933C12.5535 20.6879 12.3616 20.6232 12.2006 20.5077C12.0396 20.3921 11.9169 20.231 11.8485 20.045L9.84847 14.745C9.79841 14.61 9.71977 14.4874 9.61794 14.3855C9.51611 14.2837 9.39353 14.2051 9.25851 14.155L3.95846 12.155C3.77241 12.0858 3.61117 11.9628 3.49526 11.8017C3.37935 11.6405 3.31401 11.4485 3.30758 11.2501C3.30114 11.0517 3.3539 10.8559 3.45913 10.6876C3.56436 10.5193 3.71728 10.3861 3.89846 10.305L19.2885 3.39501C19.4732 3.31289 19.6785 3.28868 19.8772 3.32557C20.076 3.36247 20.2589 3.45873 20.4018 3.60167C20.5448 3.74461 20.641 3.92752 20.6779 4.12627C20.7148 4.32502 20.6906 4.53029 20.6085 4.71501Z" fill="#333333"/>
</svg>
