<svg width="24" height="24" viewBox="0 0 24 24" fill="none" xmlns="http://www.w3.org/2000/svg">
<path fill-rule="evenodd" clip-rule="evenodd" d="M12 3.98851C10.3822 3.98851 8.83063 4.63118 7.68666 5.77515C6.54268 6.91912 5.9 8.47069 5.9 10.0885C5.9 12.2811 6.9653 14.3975 8.3154 16.1832C9.65454 17.9544 11.2004 19.303 12 19.9439C12.7996 19.303 14.3455 17.9544 15.6846 16.1832C17.0347 14.3975 18.1 12.2811 18.1 10.0885C18.1 8.47068 17.4573 6.91912 16.3134 5.77515C15.1694 4.63118 13.6178 3.98851 12 3.98851ZM6.41386 4.50236C7.8954 3.02082 9.90479 2.18851 12 2.18851C14.0952 2.18851 16.1046 3.02082 17.5861 4.50236C19.0677 5.9839 19.9 7.9933 19.9 10.0885C19.9 12.8459 18.5753 15.3445 17.1204 17.2688C15.6584 19.2025 13.9893 20.6562 13.1269 21.3475C12.809 21.6076 12.4108 21.7497 12 21.7497C11.5892 21.7497 11.191 21.6076 10.8731 21.3475C10.0107 20.6562 8.34158 19.2025 6.8796 17.2688C5.4247 15.3445 4.1 12.8459 4.1 10.0885C4.1 7.99329 4.93233 5.98389 6.41386 4.50236ZM12 7.98851C10.8402 7.98851 9.9 8.92871 9.9 10.0885C9.9 11.2483 10.8402 12.1885 12 12.1885C13.1598 12.1885 14.1 11.2483 14.1 10.0885C14.1 8.92871 13.1598 7.98851 12 7.98851ZM8.1 10.0885C8.1 7.9346 9.84609 6.18851 12 6.18851C14.1539 6.18851 15.9 7.9346 15.9 10.0885C15.9 12.2424 14.1539 13.9885 12 13.9885C9.84609 13.9885 8.1 12.2424 8.1 10.0885Z" fill="#333333"/>
</svg>
