<svg width="24" height="24" viewBox="0 0 24 24" fill="none" xmlns="http://www.w3.org/2000/svg">
<path fill-rule="evenodd" clip-rule="evenodd" d="M6.6 6.79999C6.6 5.36782 7.16894 3.99431 8.18163 2.98161C9.19433 1.96892 10.5678 1.39999 12 1.39999C13.4322 1.39999 14.8057 1.96892 15.8184 2.98161C16.8311 3.99431 17.4 5.36782 17.4 6.79999V8.90999H18.24C18.7692 8.94013 19.2882 9.06902 19.77 9.28999C20.5003 9.66516 21.0948 10.2597 21.47 10.99C21.7 11.4686 21.8294 11.9894 21.85 12.52C21.9 13.06 21.9 13.72 21.9 14.52V16.99C21.9 17.8 21.9 18.46 21.85 18.99C21.8294 19.5206 21.7 20.0414 21.47 20.52C21.0948 21.2503 20.5003 21.8448 19.77 22.22C19.2882 22.441 18.7692 22.5698 18.24 22.6H5.76C5.23077 22.5698 4.71184 22.441 4.23 22.22C3.49967 21.8448 2.90516 21.2503 2.52999 20.52C2.29996 20.0414 2.17062 19.5206 2.14999 18.99C2.09999 18.45 2.1 17.79 2.1 16.99V14.52C2.1 13.71 2.09999 13.05 2.14999 12.52C2.17765 11.5713 2.56686 10.6691 3.23797 9.99797C3.90907 9.32687 4.81132 8.93765 5.76 8.90999H6.6V6.79999ZM15.6 6.79999V8.89999H8.39999V6.79999C8.39999 6.32723 8.49312 5.85911 8.67403 5.42233C8.85495 4.98556 9.12011 4.5887 9.4544 4.25441C9.78869 3.92012 10.1856 3.65495 10.6223 3.47403C11.0591 3.29311 11.5272 3.2 12 3.2C12.4728 3.2 12.9409 3.29311 13.3776 3.47403C13.8144 3.65495 14.2113 3.92012 14.5456 4.25441C14.8799 4.5887 15.145 4.98556 15.326 5.42233C15.5069 5.85911 15.6 6.32723 15.6 6.79999ZM5.89999 10.74C5.60315 10.7421 5.31011 10.8069 5.04 10.93C4.70891 11.0919 4.4301 11.3438 4.23556 11.6569C4.04101 11.9699 3.93859 12.3314 3.93999 12.7V18.9C3.94111 19.2693 4.04448 19.6311 4.23864 19.9453C4.4328 20.2595 4.71017 20.5138 5.04 20.68C5.31167 20.7984 5.60373 20.8629 5.89999 20.87H18.1C18.3963 20.8629 18.6883 20.7984 18.96 20.68C19.3514 20.4751 19.6694 20.1536 19.87 19.76C19.9916 19.4889 20.0595 19.1969 20.07 18.9C20.07 18.45 20.07 17.9 20.07 17V12.75C20.0595 12.4531 19.9916 12.1611 19.87 11.89C19.7102 11.5573 19.4587 11.277 19.1452 11.0822C18.8317 10.8873 18.4691 10.786 18.1 10.79H7.80001C7.16977 10.7121 6.53345 10.6953 5.89999 10.74ZM13 16.53C13.3813 16.3099 13.6793 15.9701 13.8478 15.5633C14.0163 15.1566 14.0458 14.7056 13.9318 14.2803C13.8179 13.855 13.5668 13.4793 13.2175 13.2112C12.8682 12.9432 12.4403 12.7979 12 12.7979C11.5597 12.7979 11.1318 12.9432 10.7825 13.2112C10.4332 13.4793 10.1821 13.855 10.0681 14.2803C9.95419 14.7056 9.98376 15.1566 10.1522 15.5633C10.3207 15.9701 10.6187 16.3099 11 16.53V18.3C11 18.5652 11.1054 18.8196 11.2929 19.0071C11.4804 19.1946 11.7348 19.3 12 19.3C12.2652 19.3 12.5196 19.1946 12.7071 19.0071C12.8947 18.8196 13 18.5652 13 18.3V16.53Z" fill="#333333"/>
</svg>
