<svg width="24" height="24" viewBox="0 0 24 24" fill="none" xmlns="http://www.w3.org/2000/svg">
<path fill-rule="evenodd" clip-rule="evenodd" d="M11.9995 1.27649C13.4317 1.27649 14.8052 1.8454 15.8179 2.85809C16.8306 3.87079 17.3995 5.24431 17.3995 6.67648V9.67648C18.234 9.59509 19.076 9.70802 19.8595 10.0065C20.429 10.2863 20.8896 10.747 21.1695 11.3165C21.5083 12.3332 21.6209 13.4117 21.4995 14.4765V17.8765C21.6209 18.9413 21.5083 20.0197 21.1695 21.0365C20.8896 21.6059 20.429 22.0666 19.8595 22.3465C18.8428 22.6852 17.7643 22.7979 16.6995 22.6765H7.2995C6.2347 22.7979 5.15621 22.6852 4.13947 22.3465C3.56999 22.0666 3.10932 21.6059 2.82947 21.0365C2.49072 20.0197 2.37814 18.9413 2.49951 17.8765V14.4765C2.37817 13.4117 2.49075 12.3332 2.82947 11.3165C3.10932 10.747 3.56999 10.2863 4.13947 10.0065C5.1562 9.66769 6.2347 9.55507 7.2995 9.67648H15.5995V6.67648C15.5995 5.7217 15.2202 4.80602 14.545 4.13089C13.8699 3.45576 12.9543 3.07648 11.9995 3.07648C11.0447 3.07648 10.1291 3.45576 9.45392 4.13089C8.77879 4.80602 8.39948 5.7217 8.39948 6.67648V6.77649C8.39948 7.01518 8.30465 7.24409 8.13587 7.41287C7.96708 7.58166 7.73821 7.67648 7.49951 7.67648C7.26082 7.67648 7.03188 7.58166 6.8631 7.41287C6.69432 7.24409 6.59949 7.01518 6.59949 6.77649V6.67648C6.59949 5.24431 7.1684 3.87079 8.18109 2.85809C9.19379 1.8454 10.5673 1.27649 11.9995 1.27649ZM12.9995 16.9065C13.3808 16.6863 13.6787 16.3465 13.8472 15.9398C14.0157 15.533 14.0453 15.0821 13.9313 14.6568C13.8174 14.2315 13.5663 13.8557 13.217 13.5877C12.8677 13.3197 12.4398 13.1744 11.9995 13.1744C11.5592 13.1744 11.1313 13.3197 10.782 13.5877C10.4327 13.8557 10.1816 14.2315 10.0676 14.6568C9.95368 15.0821 9.98325 15.533 10.1517 15.9398C10.3202 16.3465 10.6182 16.6863 10.9995 16.9065V18.6765C10.9995 18.9417 11.1048 19.196 11.2924 19.3836C11.4799 19.5711 11.7343 19.6765 11.9995 19.6765C12.2647 19.6765 12.5191 19.5711 12.7066 19.3836C12.8941 19.196 12.9995 18.9417 12.9995 18.6765V16.9065Z" fill="#333333"/>
</svg>
