<svg width="24" height="24" viewBox="0 0 24 24" fill="none" xmlns="http://www.w3.org/2000/svg">
<path fill-rule="evenodd" clip-rule="evenodd" d="M17.41 6.55499C17.41 5.12282 16.8411 3.74933 15.8284 2.73663C14.8157 1.72394 13.4422 1.155 12.01 1.155C10.5779 1.155 9.20432 1.72394 8.19162 2.73663C7.17892 3.74933 6.61002 5.12282 6.61002 6.55499V6.655C6.61002 6.89369 6.70484 7.1226 6.87363 7.29138C7.04241 7.46016 7.27135 7.55499 7.51004 7.55499C7.74873 7.55499 7.97761 7.46016 8.14639 7.29138C8.31518 7.1226 8.41 6.89369 8.41 6.655V6.55499C8.41 5.60021 8.78932 4.68453 9.46445 4.0094C10.1396 3.33427 11.0553 2.95499 12.01 2.95499C12.9648 2.95499 13.8804 3.33427 14.5556 4.0094C15.2307 4.68453 15.61 5.60021 15.61 6.55499V9.05499C15.605 9.08814 15.605 9.12185 15.61 9.155H5.76004C5.2308 9.18514 4.71185 9.31403 4.23001 9.535C3.49967 9.91017 2.90517 10.5046 2.53 11.235C2.29991 11.7136 2.17057 12.2343 2.14999 12.765C2.14999 13.305 2.14999 13.965 2.14999 14.765V17.235V19.235C2.17065 19.7656 2.29999 20.2864 2.53 20.765C2.90517 21.4953 3.49967 22.0898 4.23001 22.465C4.71185 22.686 5.2308 22.8149 5.76004 22.845H18.24C18.7693 22.8149 19.2882 22.686 19.77 22.465C20.5003 22.0898 21.0948 21.4953 21.47 20.765C21.7 20.2864 21.8293 19.7656 21.85 19.235V12.765C21.8223 11.8163 21.4332 10.9141 20.7621 10.243C20.091 9.57188 19.1887 9.18266 18.24 9.155H17.39C17.395 9.1185 17.395 9.08151 17.39 9.04501L17.41 6.55499ZM5.91 10.995C5.61317 10.9972 5.32014 11.0619 5.05002 11.185C4.71893 11.3469 4.44012 11.5989 4.24557 11.9119C4.05103 12.2249 3.94863 12.5864 3.95004 12.955C3.95004 13.415 3.95004 13.955 3.95004 14.855V19.155C3.95116 19.5243 4.05453 19.8861 4.24869 20.2003C4.44285 20.5145 4.72019 20.7688 5.05002 20.935C5.32169 21.0534 5.61374 21.1179 5.91 21.125H18.11C18.4063 21.1179 18.6983 21.0534 18.97 20.935C19.3614 20.7302 19.6795 20.4086 19.88 20.015C20.0016 19.7439 20.0695 19.4519 20.08 19.155V12.955C20.0695 12.6581 20.0016 12.3661 19.88 12.095C19.7202 11.7623 19.4688 11.482 19.1552 11.2872C18.8417 11.0923 18.4791 10.991 18.11 10.995H7.81003C7.17736 10.954 6.54267 10.954 5.91 10.995ZM13.01 16.785C13.3913 16.5649 13.6893 16.2251 13.8578 15.8183C14.0262 15.4116 14.0558 14.9606 13.9419 14.5353C13.8279 14.11 13.5768 13.7343 13.2275 13.4662C12.8782 13.1982 12.4503 13.0529 12.01 13.0529C11.5698 13.0529 11.1418 13.1982 10.7925 13.4662C10.4432 13.7343 10.1921 14.11 10.0782 14.5353C9.96421 14.9606 9.99378 15.4116 10.1623 15.8183C10.3307 16.2251 10.6288 16.5649 11.01 16.785V18.555C11.01 18.8202 11.1154 19.0746 11.3029 19.2621C11.4904 19.4497 11.7448 19.555 12.01 19.555C12.2753 19.555 12.5296 19.4497 12.7171 19.2621C12.9047 19.0746 13.01 18.8202 13.01 18.555V16.785Z" fill="#333333"/>
</svg>
