<svg width="24" height="24" viewBox="0 0 24 24" fill="none" xmlns="http://www.w3.org/2000/svg">
<path fill-rule="evenodd" clip-rule="evenodd" d="M11.9995 1.52649C10.5673 1.52649 9.19381 2.09541 8.18112 3.10811C7.16842 4.1208 6.5995 5.49431 6.5995 6.92648V9.42648C5.76502 9.34508 4.92302 9.45804 4.13949 9.75648C3.57002 10.0363 3.10934 10.497 2.82949 11.0665C2.49074 12.0832 2.37811 13.1617 2.49949 14.2265V17.6265C2.37811 18.6913 2.49074 19.7697 2.82949 20.7865C3.10934 21.356 3.57002 21.8166 4.13949 22.0965C5.15624 22.4352 6.2347 22.5479 7.29949 22.4265H16.6995C17.7643 22.5479 18.8428 22.4352 19.8595 22.0965C20.429 21.8166 20.8897 21.356 21.1695 20.7865C21.5082 19.7697 21.6208 18.6913 21.4995 17.6265V14.2265C21.6208 13.1617 21.5082 12.0832 21.1695 11.0665C20.8897 10.497 20.429 10.0363 19.8595 9.75648C19.076 9.45804 18.234 9.34508 17.3995 9.42648V6.92648C17.3995 5.49431 16.8306 4.1208 15.8179 3.10811C14.8052 2.09541 13.4317 1.52649 11.9995 1.52649ZM15.5995 9.42648V6.92648C15.5995 5.9717 15.2202 5.05604 14.5451 4.38091C13.87 3.70577 12.9543 3.32649 11.9995 3.32649C11.0447 3.32649 10.129 3.70577 9.45391 4.38091C8.77878 5.05604 8.3995 5.9717 8.3995 6.92648V9.42648H15.5995ZM12.9995 16.6565C13.3808 16.4364 13.6788 16.0966 13.8473 15.6898C14.0158 15.283 14.0453 14.8321 13.9313 14.4068C13.8174 13.9815 13.5663 13.6058 13.217 13.3377C12.8677 13.0697 12.4398 12.9244 11.9995 12.9244C11.5592 12.9244 11.1313 13.0697 10.782 13.3377C10.4327 13.6058 10.1816 13.9815 10.0677 14.4068C9.9537 14.8321 9.98326 15.283 10.1517 15.6898C10.3202 16.0966 10.6182 16.4364 10.9995 16.6565V18.4265C10.9995 18.6917 11.1048 18.9461 11.2924 19.1336C11.4799 19.3211 11.7343 19.4265 11.9995 19.4265C12.2647 19.4265 12.5191 19.3211 12.7066 19.1336C12.8941 18.9461 12.9995 18.6917 12.9995 18.4265V16.6565Z" fill="#333333"/>
</svg>
