<svg width="24" height="24" viewBox="0 0 24 24" fill="none" xmlns="http://www.w3.org/2000/svg">
<path d="M12.5864 12.6073C12.3601 12.4833 12.1564 12.3875 11.9753 12.3199C11.7603 12.2297 11.5396 12.1846 11.3133 12.1846C10.7361 12.1846 10.2212 12.5341 9.76852 13.2328C9.90432 13.0074 10.0005 12.8327 10.0571 12.7087C10.7814 11.4465 11.3642 10.3758 11.8055 9.49676C11.9866 10.3533 12.2469 11.3901 12.5864 12.6073Z" fill="#333333"/>
<path fill-rule="evenodd" clip-rule="evenodd" d="M11.91 22.82C17.9354 22.82 22.82 17.9354 22.82 11.91C22.82 5.88458 17.9354 1 11.91 1C5.88458 1 1 5.88458 1 11.91C1 17.9354 5.88458 22.82 11.91 22.82ZM16.3379 14.2978C15.7042 12.9454 15.1554 11.4859 14.6913 9.91937C14.3292 8.62329 14.0463 7.3949 13.8426 6.23407C13.7634 5.82837 13.6728 5.52405 13.571 5.32117C13.4691 5.10705 13.305 5 13.0787 5C12.9089 5 12.7279 5.05072 12.5355 5.15216C12.162 5.34375 11.8508 5.61987 11.6018 5.98047C11.3529 6.32989 11.1039 6.76941 10.8549 7.29907L10.2438 8.66839C9.85904 9.5249 9.56482 10.1673 9.36111 10.5956C9.01028 11.3281 8.4501 12.4157 7.68054 13.8583L7.3071 14.5683C7.20526 14.7373 7.13168 14.8669 7.08642 14.9571C6.36215 16.163 6 17.0026 6 17.4759C6 17.645 6.03961 17.769 6.11883 17.8478C6.22067 17.9493 6.33951 18 6.47531 18C6.73559 18 7.01852 17.8535 7.32406 17.5605C7.62964 17.2562 7.85031 16.98 7.98611 16.7321C8.05401 16.6194 8.32562 16.0841 8.80093 15.1262C9.1857 14.3372 9.48559 13.7512 9.70062 13.368C9.6214 13.5483 9.58178 13.6836 9.58178 13.7737C9.58178 14.1118 9.75155 14.4048 10.0911 14.6528C10.4419 14.9008 10.9341 15.1825 11.5679 15.498C11.93 15.6671 12.1677 15.7911 12.2808 15.8699C12.4506 15.9827 12.6996 16.1742 13.0278 16.4448C13.4918 16.8392 13.8878 17.1435 14.2161 17.3576C14.5555 17.5605 14.895 17.6619 15.2346 17.6619C15.4383 17.6619 15.6306 17.6112 15.8117 17.5098C16.106 17.3632 16.3776 17.1378 16.6266 16.8336C16.8755 16.518 17 16.2137 17 15.9206C17 15.7291 16.9604 15.5431 16.8812 15.3628C16.8019 15.1712 16.6831 14.9402 16.5247 14.6697L16.3379 14.2978Z" fill="#333333"/>
</svg>
