<svg width="24" height="24" viewBox="0 0 24 24" fill="none" xmlns="http://www.w3.org/2000/svg">
<path d="M14.991 11.1C14.9188 10.6569 14.805 10.2216 14.651 9.79999C13.371 1.23999 11.491 5.48 9.281 10.5C9.191 10.67 9.11099 10.93 9.02099 11.1C8.78099 11.62 8.45098 12.21 8.11098 12.83C7.18808 14.2845 6.4618 15.8548 5.95101 17.5C7.40101 19.5 8.85099 14.39 9.62099 13.35C9.11099 15.25 12.011 15.25 12.941 16.46C14.141 17.93 16.611 18.19 16.941 15.94C16.5797 14.8819 16.1625 13.8438 15.691 12.83C15.501 12.26 15.201 11.69 14.991 11.1ZM11.991 12.22C11.6369 12.0878 11.2492 12.0759 10.8877 12.1862C10.5262 12.2964 10.211 12.5227 9.99099 12.83C9.90616 12.939 9.83245 13.0563 9.77099 13.18L9.95101 12.83C10.261 12.26 10.591 11.68 10.881 11.1C11.171 10.52 11.561 9.89 11.821 9.37C11.9275 9.95428 12.0677 10.5319 12.241 11.1C12.331 11.53 12.501 12.05 12.581 12.57C12.3812 12.4702 12.1904 12.3531 12.011 12.22H11.991ZM22.871 11.22C22.669 8.40129 21.3811 5.77093 19.2785 3.88275C17.176 1.99457 14.4228 0.995901 11.5987 1.09699C8.77452 1.19807 6.09981 2.39102 4.13763 4.42468C2.17545 6.45835 1.07891 9.17406 1.07891 12C1.07891 14.8259 2.17545 17.5417 4.13763 19.5753C6.09981 21.609 8.77452 22.8019 11.5987 22.903C14.4228 23.0041 17.176 22.0054 19.2785 20.1172C21.3811 18.2291 22.669 15.5987 22.871 12.78C22.871 12.46 22.921 12.13 22.921 11.78C22.9212 11.6096 22.9112 11.4392 22.891 11.27L22.871 11.22ZM21.051 12.78C20.7936 15.0211 19.721 17.0892 18.0374 18.5905C16.3538 20.0919 14.1768 20.9216 11.921 20.9216C9.66522 20.9216 7.48821 20.0919 5.80459 18.5905C4.12097 17.0892 3.04836 15.0211 2.79101 12.78C2.74994 12.4483 2.72991 12.1143 2.73101 11.78C2.80967 9.39644 3.81182 7.13682 5.52575 5.47852C7.23968 3.82021 9.53115 2.8931 11.916 2.8931C14.3009 2.8931 16.5923 3.82021 18.3062 5.47852C20.0202 7.13682 21.0223 9.39644 21.101 11.78C21.1172 12.1303 21.1072 12.4812 21.071 12.83L21.051 12.78Z" fill="#333333"/>
</svg>
