<svg width="24" height="24" viewBox="0 0 24 24" fill="none" xmlns="http://www.w3.org/2000/svg">
<path d="M23.125 7.4599V7.49316V8.64701V8.73673L23.0776 8.75273C23.0776 8.75404 23.0776 8.75537 23.0777 8.75669C23.0777 8.76555 23.0775 8.77678 23.0761 8.7891L23.0757 8.79229L23.0757 8.79229C22.9523 9.68713 22.6391 10.5097 22.0574 11.2218L22.0574 11.2219C21.5619 11.8278 20.9454 12.2745 20.2474 12.6121L20.2473 12.6122C20.1656 12.6516 20.1129 12.6787 20.0771 12.7027C20.0425 12.7258 20.0366 12.7378 20.0351 12.7413C20.0332 12.7456 20.0285 12.7596 20.0345 12.8034C20.0406 12.8481 20.055 12.907 20.078 12.9954C20.102 13.0876 20.1266 13.1802 20.1514 13.2733C20.2418 13.6126 20.3337 13.9574 20.3996 14.3058L20.3997 14.306C20.4487 14.5671 20.4919 14.7624 20.5267 14.9196C20.5373 14.9679 20.5472 15.0126 20.5562 15.0545C20.5941 15.2305 20.6183 15.3637 20.6144 15.4992C20.6104 15.6366 20.578 15.7682 20.517 15.9445C20.4719 16.0745 20.4089 16.2351 20.3264 16.4456C20.2981 16.5176 20.2676 16.5955 20.2347 16.68C20.2347 16.68 20.2347 16.68 20.2347 16.68L20.1182 16.6346M23.125 7.4599L16.6793 21.1594C18.3102 20.015 19.4063 18.4637 20.1182 16.6346M23.125 7.4599L23.1085 7.43103C23.0752 7.37296 23.0588 7.30654 23.0473 7.22612C23.0439 7.20234 23.0407 7.17449 23.0373 7.14469C23.0306 7.08589 23.023 7.01952 23.0112 6.96198M23.125 7.4599L0.923805 12.1306C0.92338 12.1245 0.922895 12.1169 0.922664 12.109C0.922373 12.0992 0.922397 12.0867 0.923805 12.0731L0.923954 12.0716L0.923962 12.0716C1.08787 10.6453 1.5152 9.30289 2.26488 8.06968L2.26495 8.06957C3.87819 5.42232 6.22331 3.81892 9.29219 3.26417L9.29274 3.26407C10.1519 3.11276 11.0288 3.08777 11.8952 3.1899C11.9887 3.20006 12.0368 3.18636 12.0643 3.16776C12.0908 3.14985 12.1214 3.11167 12.1434 3.01865L12.1434 3.01863C12.2579 2.53504 12.3794 2.05331 12.5009 1.57179C12.5515 1.37111 12.6022 1.17046 12.6523 0.969731L12.6759 0.875H12.7735H12.8595H12.9156L12.9529 0.916878C12.9723 0.938735 12.9907 0.959748 13.0085 0.980159C13.0456 1.02272 13.0804 1.06266 13.1185 1.10216C13.901 1.91342 14.6863 2.73005 15.3818 3.62764C15.4416 3.70462 15.4804 3.75432 15.5127 3.7877C15.5443 3.82048 15.556 3.82256 15.5565 3.82267L15.5565 3.82268C15.5574 3.82288 15.5692 3.82562 15.6115 3.80966C15.6551 3.79321 15.7117 3.76487 15.7989 3.72088L15.7993 3.72071C16.7868 3.2261 17.8292 2.99402 18.9463 3.18447C20.5462 3.45671 22.585 4.78958 23.0112 6.96198M20.1182 16.6346C20.3776 15.9685 20.4819 15.7348 20.4894 15.4981C20.4969 15.2597 20.4062 15.0182 20.2768 14.3291C20.2118 13.9856 20.1215 13.6466 20.0313 13.3079C20.0063 13.2143 19.9814 13.1206 19.957 13.0269C19.8672 12.6803 19.8706 12.6551 20.193 12.4996C20.8778 12.1684 21.4787 11.7321 21.9606 11.1427C22.5254 10.4513 22.8311 9.65128 22.9519 8.77521L20.1182 16.6346ZM23.0112 6.96198C23.0112 6.96222 23.0113 6.96247 23.0113 6.96271L22.8887 6.98675M23.0112 6.96198C23.0112 6.96183 23.0111 6.9617 23.0111 6.96155L22.8887 6.98675M22.8887 6.98675C22.4756 4.87906 20.49 3.57393 18.9253 3.30769L23 7.49316C22.9386 7.38604 22.9252 7.26695 22.9119 7.14898C22.9057 7.09423 22.8996 7.03972 22.8887 6.98675ZM10.0659 10.1749C9.5415 11.7449 9.00585 13.3013 8.33116 14.8074C8.2931 14.8922 8.25516 14.9311 8.2193 14.9509C8.18266 14.9711 8.12959 14.9818 8.04065 14.9727C7.52374 14.9194 7.00883 14.8755 6.49521 14.8316C5.5862 14.754 4.68122 14.6768 3.77627 14.5489C3.5355 14.5137 3.30927 14.413 3.12252 14.2581L3.12123 14.257C2.66701 13.8903 2.359 13.5167 2.44652 13.0374L2.44902 13.0237L2.44844 13.0098C2.43713 12.7375 2.46595 12.465 2.53398 12.2009C2.864 10.9245 3.2127 9.67774 3.95053 8.58669L3.9506 8.5866C5.2816 6.61462 7.12628 5.428 9.45952 4.96407C10.1253 4.83211 10.7985 4.81236 11.4795 4.85045L11.4797 4.85045C11.5605 4.85488 11.6119 4.85963 11.6458 4.867C11.6486 4.8676 11.6511 4.86819 11.6534 4.86876C11.6531 4.87092 11.6528 4.8733 11.6525 4.87591C11.6478 4.90989 11.6349 4.95879 11.6122 5.03472L11.6122 5.03481C11.457 5.55562 11.3059 6.07661 11.1551 6.59705C10.8076 7.79568 10.461 8.99132 10.0659 10.1749ZM10.0659 10.1749L10.1845 10.2145M10.0659 10.1749L10.1845 10.2145M10.1845 10.2145C9.66004 11.7846 9.12271 13.3462 8.44524 14.8585L11.732 5.07051C11.5773 5.58936 11.4266 6.10926 11.2759 6.62913C10.9281 7.82888 10.5804 9.02847 10.1845 10.2145ZM14.1051 20.7875L14.1054 20.7874C14.6439 20.5774 15.1455 20.3041 15.5799 19.9277C15.6735 19.8467 15.7672 19.7628 15.8618 19.6781C16.0824 19.4807 16.3076 19.2791 16.5456 19.0997M14.1051 20.7875L18.4606 16.5868L18.5733 16.641L18.4606 16.5868C17.9916 17.5609 17.4168 18.4414 16.5456 19.0997M14.1051 20.7875C13.2629 21.1184 12.3834 21.3268 11.486 21.485C11.3424 21.5038 11.1978 21.5141 11.053 21.516C9.79291 21.4786 8.63465 21.1668 7.51136 20.6958C6.82852 20.4094 6.18399 20.0701 5.64002 19.5822L5.63989 19.582C4.57843 18.6326 3.72087 17.5423 3.18112 16.2286C3.17689 16.2182 3.17251 16.2084 3.16879 16.2001L3.15874 16.1776C3.15676 16.1729 3.15519 16.1691 3.15397 16.1659M14.1051 20.7875L3.15397 16.1659M16.5456 19.0997L16.6208 19.1996L16.5455 19.0998C16.5455 19.0998 16.5456 19.0998 16.5456 19.0997ZM3.23701 16.0504C3.32748 16.0623 3.41792 16.0743 3.50837 16.0863C3.83522 16.1297 4.16203 16.1732 4.48963 16.209C5.42616 16.3107 6.36327 16.4085 7.30094 16.5026C7.41538 16.514 7.53051 16.5189 7.64556 16.5238C7.78764 16.5298 7.92959 16.5359 8.06997 16.5543L3.0655 16.2761C3.06152 16.2663 3.05716 16.2567 3.05283 16.2471C3.0277 16.1913 3.0033 16.1371 3.05647 16.0795C3.1014 16.0307 3.15578 16.0387 3.21195 16.0469C3.22027 16.0482 3.22864 16.0494 3.23701 16.0504ZM3.23701 16.0504L3.2215 16.1745C3.21188 16.1733 3.20253 16.1719 3.19461 16.1707L3.17288 16.1677C3.16463 16.1666 3.15856 16.1661 3.15397 16.1659M3.23701 16.0504L3.22077 16.1744C3.31074 16.1862 3.40087 16.1981 3.49112 16.2101C3.81817 16.2536 4.14687 16.2972 4.47605 16.3332L4.47614 16.3332C5.41301 16.435 6.35045 16.5329 7.28847 16.6269C7.40672 16.6388 7.52555 16.6438 7.64012 16.6487C7.65371 16.6493 7.66724 16.6498 7.6807 16.6504C7.80924 16.656 7.93266 16.6623 8.05371 16.6782L8.05407 16.6783C8.22927 16.7007 8.40397 16.7024 8.56945 16.7039L8.58848 16.7041C8.76223 16.7058 8.9259 16.7082 9.08599 16.7318C9.35483 16.7714 9.62092 16.7717 9.87897 16.767C9.92158 16.7662 9.96389 16.7653 10.006 16.7644C10.2215 16.7597 10.4308 16.7552 10.6409 16.7692L10.6409 16.7692C11.3142 16.8137 11.9881 16.8048 12.6562 16.7959L12.6896 16.7955L12.6897 16.7955C12.8611 16.7931 13.0297 16.7877 13.1969 16.7824C13.4854 16.7733 13.7699 16.7642 14.0582 16.7707L14.0584 16.7707C14.2413 16.7744 14.422 16.7648 14.5981 16.7539C14.6236 16.7523 14.649 16.7507 14.6742 16.7491C14.825 16.7396 14.9721 16.7303 15.1196 16.728L15.1196 16.728C15.7582 16.7177 16.3933 16.6496 17.0218 16.5823C17.235 16.5595 17.4474 16.5367 17.6589 16.5163L17.659 16.5163C17.899 16.493 18.1403 16.4756 18.3819 16.4607L18.382 16.4607C18.4421 16.4569 18.4867 16.455 18.5198 16.4554L3.15397 16.1659M18.1329 4.83825L18.1306 4.83824C17.6576 4.82883 17.2076 4.93936 16.7715 5.13226L16.7714 5.13232C16.6924 5.16716 16.6411 5.19262 16.6081 5.21463C16.5923 5.22514 16.5845 5.23236 16.581 5.23618C16.5819 5.24099 16.5843 5.25024 16.591 5.26552C16.6062 5.30043 16.6348 5.34797 16.682 5.41834C17.825 7.11668 18.7464 8.95247 19.4241 10.8816M18.1329 4.83825L19.779 11.1034M18.1329 4.83825C19.6627 4.84031 20.9553 5.84852 21.344 7.3451C21.7065 8.74573 21.026 10.2796 19.7191 10.9937M18.1329 4.83825L19.779 11.1034M19.4241 10.8816L19.3062 10.9231L19.4241 10.8815C19.4241 10.8816 19.4241 10.8816 19.4241 10.8816ZM19.4241 10.8816C19.4536 10.9654 19.4754 11.0197 19.4952 11.055C19.5047 11.072 19.5114 11.0803 19.5149 11.084M19.5149 11.084C19.5095 11.0844 19.5103 11.0834 19.5144 11.0849C19.5166 11.0858 19.5177 11.0865 19.5177 11.0866C19.5177 11.0866 19.5167 11.0859 19.5149 11.084ZM19.5149 11.084C19.52 11.0836 19.5308 11.0818 19.5499 11.0753C19.5885 11.062 19.6412 11.036 19.7191 10.9937M19.7191 10.9937L19.779 11.1034M19.7191 10.9937C19.7192 10.9937 19.7193 10.9936 19.7194 10.9936L19.779 11.1034M10.4071 15.2073C10.4745 15.2118 10.542 15.2164 10.6096 15.2179L9.98759 14.9829C9.9244 15.1312 9.92827 15.2013 10.1166 15.1966C10.2134 15.1943 10.3102 15.2008 10.4071 15.2073ZM11.4708 11.3995L11.4708 11.3994C12.2797 9.00703 12.952 6.57473 13.6113 4.14263C14.0263 4.62205 14.4172 5.12164 14.7824 5.63957L14.7831 5.64043C16.7046 8.31631 18.0459 11.3599 18.7217 14.5783L18.7219 14.5788C18.7314 14.6232 18.7342 14.653 18.7334 14.6729C18.7329 14.6864 18.7308 14.6921 18.7301 14.6937C18.7281 14.6956 18.7097 14.7118 18.6259 14.722C15.9676 15.0403 13.2895 15.1643 10.6129 15.093L10.6125 15.093C10.548 15.0915 10.4837 15.0872 10.4164 15.0827C10.4015 15.0817 10.3863 15.0806 10.371 15.0796C10.2884 15.0743 10.2016 15.0696 10.1136 15.0716L10.1134 15.0716C10.1035 15.0719 10.0946 15.0719 10.0868 15.0716C10.091 15.0601 10.0962 15.0469 10.1026 15.0319L10.1026 15.0318C10.6093 13.8405 11.0562 12.6245 11.4708 11.3995Z" fill="#1C1D1C" stroke="black" stroke-width="0.25"/>
<path opacity="0.3" d="M2.32357 13.015C2.31182 12.7296 2.34223 12.4441 2.41384 12.1675C2.74355 10.8923 3.09647 9.62735 3.84787 8.51453C5.19678 6.51623 7.06884 5.30939 9.4361 4.84145C10.1153 4.70683 10.8001 4.68717 11.4874 4.72563C11.8072 4.74315 11.8223 4.76837 11.7329 5.07051C11.2218 6.78675 10.7532 8.51453 10.1853 10.2145C9.66091 11.7846 9.12359 13.3462 8.44612 14.8586C8.35671 15.0577 8.23334 15.118 8.02872 15.097C6.60587 14.9504 5.17658 14.8731 3.75932 14.6727C3.49579 14.6341 3.24811 14.5239 3.04359 14.3543C2.58751 13.9868 2.22212 13.5722 2.32357 13.015Z" fill="black"/>
<path opacity="0.3" d="M11.0519 21.641C9.77179 21.6055 8.59741 21.2888 7.46128 20.8128C6.77263 20.5217 6.11537 20.176 5.55655 19.6751C4.48619 18.7166 3.61571 17.6115 3.06721 16.2743C3.04013 16.208 2.99585 16.1461 3.05818 16.0777C3.11019 16.0217 3.17381 16.0405 3.23872 16.0486C3.65612 16.1033 4.07309 16.1615 4.49135 16.2072C5.42788 16.3089 6.36498 16.4068 7.30266 16.5008C7.55842 16.5264 7.81849 16.5192 8.07168 16.5525C8.41557 16.5952 8.76634 16.5563 9.10594 16.6063C9.62177 16.6824 10.1376 16.6085 10.6509 16.6427C11.3296 16.6875 12.0097 16.6777 12.6897 16.6687C13.1475 16.6623 13.6053 16.6337 14.0627 16.6439C14.4173 16.6516 14.7677 16.6072 15.1193 16.6012C15.9678 16.5875 16.8065 16.473 17.6486 16.3901C17.8906 16.3666 18.1335 16.3474 18.3759 16.3341C18.7048 16.3136 18.7198 16.3362 18.575 16.6392C18.1021 17.6256 17.5162 18.5243 16.6225 19.1974C16.2868 19.4504 15.982 19.7439 15.6635 20.02C15.2156 20.4081 14.7006 20.6863 14.1525 20.9016C13.2988 21.2371 12.4086 21.4474 11.5067 21.6063C11.356 21.6269 11.2041 21.6385 11.0519 21.641Z" fill="black"/>
</svg>
