<svg width="24" height="24" viewBox="0 0 24 24" fill="none" xmlns="http://www.w3.org/2000/svg">
<path d="M16.87 2.035H22.11V3.22501C21.6617 3.22763 21.2177 3.31237 20.8 3.47501C20.37 3.67549 20.0335 4.03348 19.86 4.47501L13.47 19.475C13.4418 19.5618 13.405 19.6456 13.36 19.725H11.08L10.08 17.725C9.69 18.725 9.30999 19.805 8.90999 20.845H16.45C16.9147 20.8726 17.3803 20.8081 17.82 20.655C18.5192 20.3359 19.12 19.8351 19.56 19.205C20.1081 18.4679 20.5679 17.6691 20.93 16.825H22.2C21.39 18.535 20.59 20.255 19.77 21.965H2.42C2.56 21.605 2.69001 21.235 2.84001 20.865H2.93001C3.66407 20.8431 4.39422 20.7493 5.11 20.585C5.47917 20.5199 5.82433 20.3577 6.11 20.115C6.24226 19.962 6.32888 19.7749 6.36 19.575L8.40999 14.085C6.96999 11.005 5.52333 7.92167 4.06999 4.83501C3.96369 4.55587 3.78406 4.31057 3.55 4.125C3.02527 3.80226 2.41533 3.64543 1.8 3.675V2.38501H7.90001V3.705C7.62871 3.69444 7.35855 3.74574 7.11 3.85501C7.05123 3.8848 7.00436 3.9337 6.9771 3.99368C6.94983 4.05366 6.9438 4.12115 6.96001 4.18501C6.96001 4.39501 7.16001 4.545 7.24001 4.735L9.81999 10.275L11.12 6.66501C11.1845 6.49423 11.1845 6.30579 11.12 6.13501C11.0519 6.00515 10.9378 5.90533 10.8 5.85501C10.5477 5.77539 10.2846 5.73491 10.02 5.735C10.15 5.365 10.29 4.995 10.43 4.625H16.73L16.3 5.74501C15.8004 5.73588 15.303 5.8137 14.83 5.97501C14.6099 6.05909 14.4212 6.20932 14.29 6.40501C14.2072 6.55084 14.1402 6.70503 14.09 6.86501L11.5 13.865C11.98 14.935 12.5 15.995 12.95 17.055L18.2 4.66501C18.3512 4.43282 18.4596 4.17542 18.52 3.90501C18.5178 3.79645 18.4846 3.69077 18.4244 3.60042C18.3642 3.51007 18.2794 3.4388 18.18 3.395C17.7553 3.23625 17.3029 3.16483 16.85 3.18501C16.88 2.82501 16.87 2.435 16.87 2.035Z" fill="black"/>
</svg>
