<svg width="24" height="24" viewBox="0 0 24 24" fill="none" xmlns="http://www.w3.org/2000/svg">
<path fill-rule="evenodd" clip-rule="evenodd" d="M6.259 5.04999C6.0203 5.04999 5.79137 5.14482 5.62258 5.3136C5.4538 5.48238 5.359 5.7113 5.359 5.95C5.359 6.18869 5.4538 6.4176 5.62258 6.58638C5.79137 6.75516 6.0203 6.84999 6.259 6.84999H14.759C14.9977 6.84999 15.2266 6.75516 15.3954 6.58638C15.5642 6.4176 15.659 6.18869 15.659 5.95C15.659 5.7113 15.5642 5.48238 15.3954 5.3136C15.2266 5.14482 14.9977 5.04999 14.759 5.04999H6.259ZM4.359 8.95C4.359 8.7113 4.4538 8.48238 4.62258 8.3136C4.79137 8.14482 5.0203 8.04999 5.259 8.04999H16.759C16.9977 8.04999 17.2266 8.14482 17.3954 8.3136C17.5642 8.48238 17.659 8.7113 17.659 8.95C17.659 9.18869 17.5642 9.4176 17.3954 9.58638C17.2266 9.75516 16.9977 9.84999 16.759 9.84999H5.259C5.0203 9.84999 4.79137 9.75516 4.62258 9.58638C4.4538 9.4176 4.359 9.18869 4.359 8.95ZM1.56899 12.19L2.87899 17.44C2.9881 17.8717 3.23817 18.2547 3.58959 18.5283C3.94101 18.8018 4.37367 18.9502 4.81899 18.95H17.149C17.4889 18.9507 17.8233 18.8647 18.1208 18.7002C18.4182 18.5358 18.6689 18.2982 18.849 18.01L22.309 12.48C22.4037 12.3285 22.4561 12.1544 22.4607 11.9757C22.4653 11.7971 22.4219 11.6205 22.3352 11.4643C22.2484 11.3082 22.1213 11.1781 21.9672 11.0876C21.8132 10.9972 21.6377 10.9496 21.459 10.95H2.539C2.38731 10.9501 2.23764 10.9847 2.10131 11.0512C1.96499 11.1177 1.84559 11.2144 1.75213 11.3338C1.65867 11.4533 1.59361 11.5925 1.56188 11.7408C1.53016 11.8891 1.53259 12.0427 1.56899 12.19ZM17.259 14.95C17.4568 14.95 17.6501 14.8913 17.8146 14.7815C17.979 14.6716 18.1072 14.5154 18.1829 14.3327C18.2586 14.1499 18.2784 13.9489 18.2398 13.7549C18.2012 13.5609 18.1059 13.3827 17.9661 13.2429C17.8262 13.103 17.6481 13.0078 17.4541 12.9692C17.2601 12.9306 17.059 12.9504 16.8763 13.0261C16.6936 13.1018 16.5374 13.23 16.4275 13.3944C16.3176 13.5589 16.259 13.7522 16.259 13.95C16.259 14.2152 16.3643 14.4696 16.5519 14.6571C16.7394 14.8446 16.9938 14.95 17.259 14.95Z" fill="black"/>
</svg>
