<svg width="24" height="24" viewBox="0 0 24 24" fill="none" xmlns="http://www.w3.org/2000/svg">
<path fill-rule="evenodd" clip-rule="evenodd" d="M1.09998 7.00001C1.09998 6.50295 1.50292 6.10001 1.99998 6.10001H22C22.497 6.10001 22.9 6.50295 22.9 7.00001C22.9 7.49706 22.497 7.90001 22 7.90001H1.99998C1.50292 7.90001 1.09998 7.49706 1.09998 7.00001ZM1.09998 12C1.09998 11.5029 1.50292 11.1 1.99998 11.1H22C22.497 11.1 22.9 11.5029 22.9 12C22.9 12.4971 22.497 12.9 22 12.9H1.99998C1.50292 12.9 1.09998 12.4971 1.09998 12ZM1.09998 17C1.09998 16.5029 1.50292 16.1 1.99998 16.1H16C16.497 16.1 16.9 16.5029 16.9 17C16.9 17.4971 16.497 17.9 16 17.9H1.99998C1.50292 17.9 1.09998 17.4971 1.09998 17Z" fill="#333333"/>
</svg>
