<svg width="24" height="24" viewBox="0 0 24 24" fill="none" xmlns="http://www.w3.org/2000/svg">
<path fill-rule="evenodd" clip-rule="evenodd" d="M8.0702 6.29825C8.0702 3.92439 9.99459 2 12.3684 2C14.7423 2 16.6667 3.92439 16.6667 6.29825V11.5614C16.6667 13.9353 14.7423 15.8596 12.3684 15.8596C9.99459 15.8596 8.0702 13.9353 8.0702 11.5614V6.29825ZM12.3684 3.57895C10.8666 3.57895 9.64915 4.79642 9.64915 6.29825V11.5614C9.64915 13.0632 10.8666 14.2807 12.3684 14.2807C13.8703 14.2807 15.0877 13.0632 15.0877 11.5614V6.29825C15.0877 4.79642 13.8703 3.57895 12.3684 3.57895Z" fill="#333333"/>
<path fill-rule="evenodd" clip-rule="evenodd" d="M5.7895 10.3333C6.22551 10.3333 6.57897 10.6868 6.57897 11.1228V11.5614C6.57897 14.7588 9.17101 17.3509 12.3684 17.3509C15.5659 17.3509 18.1579 14.7588 18.1579 11.5614V11.1228C18.1579 10.6868 18.5114 10.3333 18.9474 10.3333C19.3834 10.3333 19.7369 10.6868 19.7369 11.1228V11.5614C19.7369 15.3642 16.8562 18.4941 13.1579 18.888V20.4211H15.8772C16.3132 20.4211 16.6667 20.7745 16.6667 21.2105C16.6667 21.6465 16.3132 22 15.8772 22H8.85967C8.42366 22 8.0702 21.6465 8.0702 21.2105C8.0702 20.7745 8.42366 20.4211 8.85967 20.4211H11.579V18.888C7.88073 18.4941 5.00002 15.3642 5.00002 11.5614V11.1228C5.00002 10.6868 5.35348 10.3333 5.7895 10.3333Z" fill="#333333"/>
</svg>
