<svg width="24" height="24" viewBox="0 0 24 24" fill="none" xmlns="http://www.w3.org/2000/svg">
<path fill-rule="evenodd" clip-rule="evenodd" d="M12 1.04999C10.9392 1.04999 9.92174 1.47141 9.17159 2.22156C8.42145 2.9717 8.00002 3.98912 8.00002 5.04999V12.05C8.00002 13.1109 8.42145 14.1283 9.17159 14.8784C9.92174 15.6286 10.9392 16.05 12 16.05C13.0609 16.05 14.0783 15.6286 14.8285 14.8784C15.5786 14.1283 16 13.1109 16 12.05V5.04999C16 3.98912 15.5786 2.9717 14.8285 2.22156C14.0783 1.47141 13.0609 1.04999 12 1.04999ZM6.39999 11.05C6.39999 10.9318 6.37673 10.8148 6.3315 10.7056C6.28628 10.5964 6.21995 10.4972 6.13638 10.4136C6.0528 10.33 5.95358 10.2637 5.84438 10.2185C5.73519 10.1733 5.61821 10.15 5.50002 10.15C5.38183 10.15 5.26479 10.1733 5.1556 10.2185C5.04641 10.2637 4.94718 10.33 4.86361 10.4136C4.78004 10.4972 4.71371 10.5964 4.66848 10.7056C4.62325 10.8148 4.6 10.9318 4.6 11.05V12.05C4.60095 13.857 5.26213 15.6013 6.45919 16.9549C7.65625 18.3085 9.30669 19.1781 11.1 19.4V21.15H8.00002C7.76133 21.15 7.53239 21.2448 7.36361 21.4136C7.19483 21.5824 7.1 21.8113 7.1 22.05C7.1 22.2887 7.19483 22.5176 7.36361 22.6864C7.53239 22.8552 7.76133 22.95 8.00002 22.95H16C16.2387 22.95 16.4676 22.8552 16.6364 22.6864C16.8052 22.5176 16.9 22.2887 16.9 22.05C16.9 21.8113 16.8052 21.5824 16.6364 21.4136C16.4676 21.2448 16.2387 21.15 16 21.15H12.9V19.4C14.6933 19.1781 16.3437 18.3085 17.5408 16.9549C18.7379 15.6013 19.399 13.857 19.4 12.05V11.05C19.4 10.8113 19.3052 10.5824 19.1364 10.4136C18.9676 10.2448 18.7387 10.15 18.5 10.15C18.2613 10.15 18.0324 10.2448 17.8636 10.4136C17.6948 10.5824 17.6 10.8113 17.6 11.05V12.05C17.6 13.5352 17.01 14.9596 15.9598 16.0098C14.9096 17.06 13.4852 17.65 12 17.65C10.5148 17.65 9.09039 17.06 8.04018 16.0098C6.98998 14.9596 6.39999 13.5352 6.39999 12.05V11.05Z" fill="#333333"/>
</svg>
