<svg width="24" height="24" viewBox="0 0 24 24" fill="none" xmlns="http://www.w3.org/2000/svg">
<path fill-rule="evenodd" clip-rule="evenodd" d="M6.19585 1.69585C6.83347 1.05824 7.69827 0.700012 8.60001 0.700012H15.6C16.5018 0.700012 17.3666 1.05824 18.0042 1.69585C18.6418 2.33347 19 3.19827 19 4.10001V20.1C19 21.0018 18.6418 21.8666 18.0042 22.5042C17.3666 23.1418 16.5018 23.5 15.6 23.5H8.60001C7.69827 23.5 6.83347 23.1418 6.19585 22.5042C5.55824 21.8666 5.20001 21.0018 5.20001 20.1V4.10001C5.20001 3.19827 5.55824 2.33347 6.19585 1.69585ZM8.60001 2.50001C8.17567 2.50001 7.76871 2.66858 7.46865 2.96865C7.16858 3.26871 7.00001 3.67567 7.00001 4.10001V20.1C7.00001 20.5244 7.16858 20.9313 7.46865 21.2314C7.76871 21.5314 8.17567 21.7 8.60001 21.7H15.6C16.0244 21.7 16.4313 21.5314 16.7314 21.2314C17.0314 20.9313 17.2 20.5244 17.2 20.1V4.10001C17.2 3.67567 17.0314 3.26871 16.7314 2.96865C16.4313 2.66858 16.0244 2.50001 15.6 2.50001H15.4593L15.1856 3.18426C15.049 3.52596 14.718 3.75001 14.35 3.75001H9.85001C9.482 3.75001 9.15106 3.52596 9.01438 3.18426L8.74068 2.50001H8.60001Z" fill="#333333"/>
</svg>
