<svg width="24" height="24" viewBox="0 0 24 24" fill="none" xmlns="http://www.w3.org/2000/svg">
<path fill-rule="evenodd" clip-rule="evenodd" d="M12 3.90001C7.52649 3.90001 3.9 7.5265 3.9 12C3.9 16.4735 7.52649 20.1 12 20.1C16.4735 20.1 20.1 16.4735 20.1 12C20.1 7.5265 16.4735 3.90001 12 3.90001ZM2.1 12C2.1 6.53239 6.53238 2.10001 12 2.10001C17.4676 2.10001 21.9 6.53239 21.9 12C21.9 17.4676 17.4676 21.9 12 21.9C6.53238 21.9 2.1 17.4676 2.1 12Z" fill="#333333"/>
<path d="M10.46 9.94001C10.4779 9.66679 10.5998 9.41083 10.8007 9.22481C11.0016 9.03879 11.2662 8.93686 11.54 8.94001V11.04L11.35 10.99C10.76 10.75 10.46 10.41 10.46 9.94001ZM13.72 14.01C13.7174 14.1619 13.6847 14.3118 13.6239 14.451C13.5631 14.5902 13.4753 14.7159 13.3655 14.821C13.2558 14.926 13.1264 15.0083 12.9847 15.0631C12.843 15.1179 12.6918 15.144 12.54 15.14V12.89H12.67C13.4 13.12 13.72 13.48 13.72 14.01ZM12.55 17.38V16.6C14.34 16.43 15.47 15.44 15.47 13.89C15.4693 13.2414 15.2256 12.6166 14.7869 12.139C14.3481 11.6613 13.7462 11.3656 13.1 11.31L12.54 11.19V8.92001C12.8306 8.94832 13.1014 9.07995 13.3033 9.29096C13.5051 9.50198 13.6246 9.7784 13.64 10.07H15.31C15.2666 9.3741 14.9585 8.72117 14.449 8.24515C13.9395 7.76913 13.2672 7.5061 12.5699 7.51001V6.66001H11.5099V7.50001C9.92995 7.64001 8.69 8.50001 8.69 10.08C8.69848 10.7071 8.93593 11.3095 9.35773 11.7737C9.77952 12.2378 10.3565 12.5317 10.98 12.6L11.54 12.72V15.15C11.2105 15.1464 10.8942 15.0206 10.6522 14.7971C10.4101 14.5735 10.2597 14.2681 10.23 13.94H8.51996C8.51996 15.14 9.33996 16.42 11.52 16.57V17.39L12.55 17.38Z" fill="#333333"/>
</svg>
