<svg width="24" height="24" viewBox="0 0 24 24" fill="none" xmlns="http://www.w3.org/2000/svg">
<path fill-rule="evenodd" clip-rule="evenodd" d="M12 22C13.9778 22 15.9112 21.4135 17.5557 20.3147C19.2002 19.2159 20.4819 17.6541 21.2388 15.8268C21.9957 13.9996 22.1937 11.9889 21.8079 10.0491C21.422 8.10929 20.4696 6.32746 19.0711 4.92894C17.6726 3.53041 15.8907 2.578 13.9509 2.19215C12.0111 1.8063 10.0004 2.00433 8.17316 2.76121C6.3459 3.51809 4.78412 4.79981 3.6853 6.4443C2.58649 8.08879 2 10.0222 2 12C2 14.6522 3.05356 17.1957 4.92892 19.0711C6.80429 20.9464 9.34784 22 12 22ZM11.53 8.9C11.2579 8.89942 10.9959 9.0025 10.7971 9.18826C10.5984 9.37402 10.4778 9.62853 10.46 9.9C10.46 10.37 10.76 10.71 11.35 10.9L11.53 10.95V8.9ZM12.53 15.13C12.6814 15.1353 12.8323 15.1105 12.9739 15.0568C13.1156 15.0032 13.2451 14.9218 13.355 14.8176C13.4648 14.7133 13.5528 14.5882 13.6138 14.4495C13.6747 14.3109 13.7074 14.1614 13.71 14.01C13.71 13.47 13.39 13.11 12.66 12.91H12.53V15.13ZM12.53 16.54V17.37H11.5V16.6C9.33 16.44 8.5 15.17 8.5 13.96H10.21C10.2397 14.2881 10.3902 14.5935 10.6322 14.8171C10.8742 15.0406 11.1906 15.1664 11.52 15.17V12.71L10.95 12.58C10.3301 12.5141 9.75574 12.2233 9.33563 11.7626C8.91552 11.302 8.67874 10.7034 8.67001 10.08C8.67001 8.51 9.91002 7.64 11.49 7.5V6.66H12.55V7.51C13.2466 7.5085 13.9175 7.77234 14.4265 8.24788C14.9355 8.72342 15.2443 9.37495 15.29 10.07H13.62C13.601 9.77861 13.4806 9.50306 13.2797 9.29117C13.0788 9.07929 12.81 8.94443 12.52 8.91001V11.19L13.07 11.31C14.38 11.59 15.45 12.26 15.45 13.84C15.45 15.42 14.32 16.37 12.53 16.54Z" fill="#333333"/>
</svg>
