<svg width="24" height="24" viewBox="0 0 24 24" fill="none" xmlns="http://www.w3.org/2000/svg">
<path fill-rule="evenodd" clip-rule="evenodd" d="M7 6.99998C6.46957 6.99998 5.96086 7.21072 5.58578 7.5858C5.21071 7.96087 5 8.46955 5 8.99998V13C5 13.5304 5.21071 14.0391 5.58578 14.4142C5.96086 14.7893 6.46957 15 7 15H9.57001L15 9.56999V5.06001C15.0006 4.87077 14.9476 4.68522 14.847 4.52494C14.7464 4.36467 14.6024 4.23624 14.4317 4.15455C14.261 4.07287 14.0706 4.04128 13.8827 4.06349C13.6947 4.08569 13.517 4.16079 13.37 4.28001L10.55 6.53999C10.1955 6.82444 9.75458 6.97964 9.30002 6.97999L7 6.99998ZM15 12.41L11.34 16.07L13.34 17.7C13.487 17.8192 13.6647 17.8943 13.8527 17.9165C14.0406 17.9387 14.231 17.9071 14.4017 17.8255C14.5724 17.7438 14.7164 17.6153 14.817 17.455C14.9176 17.2948 14.9706 17.1092 14.97 16.92L15 12.41Z" fill="#333333"/>
<path fill-rule="evenodd" clip-rule="evenodd" d="M19.6364 4.36358C19.9879 4.71505 19.9879 5.2849 19.6364 5.63637L5.6364 19.6364C5.28493 19.9878 4.71508 19.9878 4.36361 19.6364C4.01214 19.2849 4.01214 18.7151 4.36361 18.3636L18.3636 4.36358C18.7151 4.01211 19.2849 4.01211 19.6364 4.36358Z" fill="#333333"/>
</svg>
