<svg width="24" height="24" viewBox="0 0 24 24" fill="none" xmlns="http://www.w3.org/2000/svg">
<path fill-rule="evenodd" clip-rule="evenodd" d="M3.89997 12C3.89997 10.398 4.37505 8.83193 5.26509 7.49989C6.15512 6.16785 7.4202 5.12965 8.90028 4.51658C10.3804 3.90351 12.009 3.7431 13.5802 4.05565C15.1515 4.36819 16.5947 5.13964 17.7275 6.27244C18.8604 7.40525 19.6318 8.84853 19.9443 10.4198C20.2569 11.991 20.0965 13.6197 19.4834 15.0997C18.8703 16.5798 17.8322 17.8449 16.5001 18.7349C15.1681 19.6249 13.602 20.1 12 20.1C9.85176 20.1 7.79145 19.2466 6.27241 17.7276C4.75336 16.2085 3.89997 14.1483 3.89997 12ZM12 2.10001C10.042 2.10001 8.12787 2.68063 6.49983 3.76846C4.87178 4.85628 3.60289 6.40245 2.85359 8.21144C2.10428 10.0204 1.90824 12.011 2.29023 13.9314C2.67223 15.8518 3.6151 17.6158 4.99964 19.0004C6.38418 20.3849 8.1482 21.3278 10.0686 21.7098C11.989 22.0918 13.9795 21.8957 15.7885 21.1464C17.5975 20.3971 19.1437 19.1282 20.2315 17.5002C21.3193 15.8721 21.9 13.958 21.9 12C21.9 9.37436 20.8569 6.85626 19.0003 4.99965C17.1437 3.14304 14.6257 2.10001 12 2.10001ZM16.61 7.66001C16.635 7.61355 16.6405 7.55911 16.6256 7.50854C16.6106 7.45797 16.5762 7.41537 16.53 7.39001C16.5005 7.37507 16.468 7.36729 16.435 7.36729C16.402 7.36729 16.3694 7.37507 16.34 7.39001L11.59 10.03C10.9293 10.3917 10.3875 10.937 10.03 11.6L7.38996 16.35C7.365 16.3965 7.35942 16.4509 7.3744 16.5015C7.38938 16.552 7.42374 16.5946 7.46998 16.62C7.49942 16.6349 7.532 16.6427 7.56501 16.6427C7.59802 16.6427 7.63054 16.6349 7.65998 16.62L12.41 13.98C13.0693 13.621 13.611 13.0793 13.97 12.42L16.61 7.66001Z" fill="#333333"/>
</svg>
