<svg width="24" height="24" viewBox="0 0 24 24" fill="none" xmlns="http://www.w3.org/2000/svg">
<path fill-rule="evenodd" clip-rule="evenodd" d="M12 22C13.9778 22 15.9112 21.4135 17.5557 20.3147C19.2002 19.2159 20.4819 17.6541 21.2388 15.8268C21.9956 13.9996 22.1937 11.9889 21.8078 10.0491C21.4219 8.10929 20.4696 6.32746 19.071 4.92894C17.6725 3.53041 15.8907 2.578 13.9509 2.19215C12.0111 1.8063 10.0004 2.00433 8.17316 2.76121C6.3459 3.51809 4.78412 4.79981 3.6853 6.4443C2.58649 8.08879 2 10.0222 2 12C2 14.6522 3.05353 17.1957 4.92889 19.0711C6.80426 20.9464 9.34784 22 12 22ZM16.71 7.6C16.7216 7.57579 16.7283 7.54948 16.7296 7.52263C16.7308 7.49579 16.7267 7.46896 16.7173 7.44376C16.708 7.41856 16.6937 7.3955 16.6752 7.37595C16.6568 7.35641 16.6346 7.34078 16.61 7.33C16.5841 7.31508 16.5548 7.30723 16.525 7.30723C16.4951 7.30723 16.4658 7.31508 16.44 7.33L11.52 9.6C10.6898 9.99998 10.02 10.6698 9.62 11.5L7.28998 16.42C7.27832 16.4442 7.27165 16.4705 7.27039 16.4974C7.26912 16.5242 7.27326 16.551 7.28259 16.5762C7.29193 16.6014 7.30626 16.6245 7.32471 16.6441C7.34315 16.6636 7.36533 16.6792 7.38995 16.69C7.4158 16.7049 7.44513 16.7128 7.47498 16.7128C7.50482 16.7128 7.53415 16.7049 7.56 16.69L12.48 14.36C13.3101 13.96 13.98 13.2902 14.38 12.46L16.71 7.6Z" fill="#333333"/>
</svg>
