<svg width="24" height="24" viewBox="0 0 24 24" fill="none" xmlns="http://www.w3.org/2000/svg">
<path d="M2 5H19.5V7.5H22V15V18.5V18.8111C22 18.932 21.9519 19.0481 21.8664 19.1336C21.6237 19.3763 21.3435 19.5782 21.0365 19.7317L20.7936 19.8532C20.6005 19.9497 20.3876 20 20.1717 20H16.5H11.5H3C2.38713 19.6936 2 19.0672 2 18.382V5Z" fill="black"/>
<path d="M19.5 7.5V5H2V18.75C2 19.4404 2.55966 20 3.25 20H20.125C21.1606 20 22 19.1606 22 18.125V7.5H19.5ZM18.25 18.75H3.25V6.25H18.25V18.75ZM4.5 8.75H17V10H4.5V8.75ZM12 11.25H17V12.5H12V11.25ZM12 13.75H17V15H12V13.75ZM12 16.25H15.75V17.5H12V16.25ZM4.5 11.25H10.75V17.5H4.5V11.25Z" fill="white"/>
</svg>
