<svg width="24" height="24" viewBox="0 0 24 24" fill="none" xmlns="http://www.w3.org/2000/svg">
<path fill-rule="evenodd" clip-rule="evenodd" d="M3.73949 12.0992C3.73949 9.84839 4.63362 7.68977 6.22519 6.0982C7.81676 4.50663 9.97539 3.6125 12.2262 3.6125C14.477 3.6125 16.6357 4.50663 18.2272 6.0982C19.8188 7.68977 20.7129 9.84839 20.7129 12.0992C20.7551 14.0646 20.0766 15.9774 18.8055 17.4769C18.735 17.5501 18.6799 17.6368 18.6436 17.7317C18.6072 17.8267 18.5904 17.928 18.5942 18.0296C18.5979 18.1312 18.6221 18.2309 18.6652 18.323C18.7084 18.415 18.7697 18.4974 18.8454 18.5652C18.9211 18.633 19.0098 18.6849 19.106 18.7177C19.2022 18.7505 19.304 18.7635 19.4054 18.7561C19.5068 18.7486 19.6057 18.7208 19.696 18.6742C19.7864 18.6277 19.8665 18.5634 19.9315 18.4853C21.4518 16.709 22.2679 14.4369 22.2254 12.0992C22.2254 10.1216 21.639 8.18831 20.5402 6.54395C19.4415 4.89959 17.8799 3.61797 16.0527 2.86116C14.2256 2.10434 12.2151 1.90632 10.2755 2.29214C8.3358 2.67796 6.55412 3.6303 5.1557 5.02871C3.75729 6.42712 2.80496 8.20882 2.41913 10.1485C2.03331 12.0881 2.23133 14.0986 2.98815 15.9257C3.74496 17.7529 5.02658 19.3145 6.67095 20.4133C8.31531 21.512 10.2486 22.0984 12.2262 22.0984C14.9403 22.0984 16.604 21.0649 17.3519 19.7121C17.6961 19.1052 17.8429 18.4063 17.772 17.7122C17.7228 17.227 17.5297 16.7676 17.2174 16.393C17.2811 16.2132 17.2816 16.017 17.219 15.8368C17.1564 15.6566 17.0343 15.5031 16.8729 15.4015L15.3604 14.3932C15.267 14.328 15.1613 14.2825 15.0498 14.2594C14.9382 14.2364 14.8232 14.2363 14.7116 14.259C14.6 14.2818 14.4942 14.3271 14.4006 14.392C14.307 14.457 14.2276 14.5403 14.1672 14.6368L13.8143 15.1662C13.7473 15.277 13.6431 15.3604 13.5202 15.4015C13.1169 15.5023 12.0414 15.5527 10.4028 13.9142C8.7643 12.2757 8.81472 11.2001 8.92395 10.7968C8.95893 10.6754 9.04047 10.5727 9.15082 10.5111L9.68019 10.1498C9.77677 10.0894 9.86006 10.01 9.925 9.91644C9.98995 9.82287 10.0352 9.71707 10.058 9.60547C10.0808 9.49387 10.0806 9.37881 10.0576 9.26726C10.0345 9.15572 9.98904 9.05003 9.92387 8.95661L8.91555 7.44412C8.80758 7.2718 8.64079 7.14448 8.44611 7.08576C8.25142 7.02705 8.04204 7.04092 7.85681 7.12482L7.40307 7.31809C7.04134 7.46123 6.74312 7.72962 6.5628 8.07433C6.4122 8.34873 6.3233 8.6527 6.30231 8.96501C6.25189 9.94812 6.47036 12.3849 9.18443 15.099C11.8985 17.813 14.3269 18.0231 15.3184 17.9727C15.6268 17.9511 15.9274 17.8652 16.2007 17.7206V17.8887C16.2348 18.2693 16.1497 18.651 15.957 18.981C15.5453 19.7289 14.4781 20.5859 12.1506 20.5859C9.91633 20.5551 7.78339 19.6488 6.21047 18.0617C4.63755 16.4746 3.75029 14.3337 3.73949 12.0992ZM11.47 6.21733C11.47 6.11801 11.4895 6.01968 11.5275 5.92793C11.5655 5.83618 11.6212 5.75282 11.6915 5.68259C11.7617 5.61237 11.8451 5.55666 11.9368 5.51866C12.0286 5.48065 12.1269 5.46109 12.2262 5.46109C13.9868 5.46109 15.6752 6.16046 16.9201 7.40535C18.165 8.65024 18.8643 10.3387 18.8643 12.0992C18.8643 12.2998 18.7847 12.4921 18.6428 12.634C18.501 12.7758 18.3087 12.8555 18.1081 12.8555C17.9075 12.8555 17.7152 12.7758 17.5733 12.634C17.4315 12.4921 17.3519 12.2998 17.3519 12.0992C17.3519 10.7398 16.8118 9.43609 15.8506 8.47484C14.8893 7.5136 13.5856 6.97358 12.2262 6.97358C12.1269 6.97358 12.0286 6.95401 11.9368 6.91601C11.8451 6.878 11.7617 6.8223 11.6915 6.75207C11.6212 6.68185 11.5655 6.59848 11.5275 6.50673C11.4895 6.41498 11.47 6.31664 11.47 6.21733ZM12.2262 7.9819C12.0256 7.9819 11.8333 8.06158 11.6915 8.2034C11.5496 8.34522 11.47 8.53757 11.47 8.73813C11.47 8.9387 11.5496 9.13106 11.6915 9.27288C11.8333 9.4147 12.0256 9.49438 12.2262 9.49438C12.9171 9.49438 13.5796 9.76881 14.0681 10.2573C14.5566 10.7458 14.831 11.4084 14.831 12.0992C14.831 12.2998 14.9107 12.4921 15.0525 12.634C15.1944 12.7758 15.3867 12.8555 15.5873 12.8555C15.7879 12.8555 15.9802 12.7758 16.122 12.634C16.2639 12.4921 16.3435 12.2998 16.3435 12.0992C16.3435 11.0072 15.9097 9.95998 15.1376 9.18783C14.3654 8.41569 13.3182 7.9819 12.2262 7.9819Z" fill="#333333"/>
</svg>
