<svg width="24" height="24" viewBox="0 0 24 24" fill="none" xmlns="http://www.w3.org/2000/svg">
<path fill-rule="evenodd" clip-rule="evenodd" d="M12 22C13.9778 22 15.9112 21.4135 17.5557 20.3147C19.2002 19.2159 20.4819 17.6541 21.2388 15.8268C21.9957 13.9996 22.1937 11.9889 21.8078 10.0491C21.422 8.10929 20.4696 6.32747 19.0711 4.92894C17.6725 3.53042 15.8907 2.578 13.9509 2.19215C12.0111 1.8063 10.0004 2.00434 8.17316 2.76121C6.3459 3.51809 4.78411 4.79981 3.6853 6.4443C2.58649 8.08879 2 10.0222 2 12C2 14.6522 3.05357 17.1957 4.92893 19.0711C6.80429 20.9464 9.34783 22 12 22ZM13.575 15.0417L13.9333 14.5167C13.9932 14.4209 14.072 14.3383 14.1648 14.2739C14.2576 14.2095 14.3625 14.1646 14.4732 14.142C14.5838 14.1194 14.6979 14.1195 14.8086 14.1424C14.9192 14.1653 15.024 14.2104 15.1167 14.275L16.6167 15.275C16.7876 15.3821 16.9138 15.5475 16.9721 15.7406C17.0303 15.9336 17.0165 16.1413 16.9333 16.325L16.7417 16.7833C16.5911 17.1242 16.3257 17.4014 15.9917 17.5667C15.7211 17.7197 15.4187 17.8081 15.1083 17.825C14.1333 17.875 11.7167 17.6583 9.025 14.975C6.33333 12.2917 6.125 9.86667 6.175 8.89167C6.19581 8.58194 6.28398 8.28048 6.43333 8.00834C6.61216 7.66648 6.90792 7.4003 7.26666 7.25835L7.71666 7.06667C7.90037 6.98347 8.10802 6.96971 8.3011 7.02794C8.49418 7.08617 8.65959 7.21244 8.76666 7.38334L9.76666 8.88334C9.83129 8.97599 9.87641 9.08081 9.89927 9.19143C9.92213 9.30205 9.92227 9.41617 9.89966 9.52685C9.87706 9.63752 9.83219 9.74245 9.76779 9.83525C9.70338 9.92805 9.62078 10.0068 9.525 10.0667L9 10.425C8.89066 10.4883 8.80782 10.5889 8.76666 10.7083C8.66666 11.1083 8.61666 12.175 10.2417 13.8C11.8667 15.425 12.9333 15.375 13.3333 15.275C13.4373 15.2258 13.5222 15.1438 13.575 15.0417ZM11.25 6.16667C11.25 5.96776 11.329 5.777 11.4697 5.63635C11.6103 5.4957 11.8011 5.41667 12 5.41667C13.746 5.41667 15.4205 6.11028 16.6551 7.34489C17.8897 8.5795 18.5833 10.254 18.5833 12C18.5833 12.1989 18.5043 12.3897 18.3637 12.5303C18.223 12.671 18.0322 12.75 17.8333 12.75C17.6344 12.75 17.4437 12.671 17.303 12.5303C17.1623 12.3897 17.0833 12.1989 17.0833 12C17.0833 10.6518 16.5478 9.35886 15.5945 8.40555C14.6411 7.45224 13.3482 6.91668 12 6.91668C11.8011 6.91668 11.6103 6.83765 11.4697 6.697C11.329 6.55635 11.25 6.36558 11.25 6.16667ZM12 7.91667C11.8011 7.91667 11.6103 7.9957 11.4697 8.13635C11.329 8.277 11.25 8.46776 11.25 8.66667C11.25 8.86558 11.329 9.05635 11.4697 9.197C11.6103 9.33765 11.8011 9.41668 12 9.41668C12.6851 9.41668 13.3422 9.68884 13.8267 10.1733C14.3112 10.6578 14.5833 11.3149 14.5833 12C14.5833 12.1989 14.6623 12.3897 14.803 12.5303C14.9437 12.671 15.1344 12.75 15.3333 12.75C15.5322 12.75 15.723 12.671 15.8637 12.5303C16.0043 12.3897 16.0833 12.1989 16.0833 12C16.0833 10.917 15.6531 9.87843 14.8873 9.11266C14.1216 8.34689 13.083 7.91667 12 7.91667Z" fill="#333333"/>
</svg>
