<svg width="24" height="24" viewBox="0 0 24 24" fill="none" xmlns="http://www.w3.org/2000/svg">
<path fill-rule="evenodd" clip-rule="evenodd" d="M6.73292 2.60441C7.21304 2.73305 7.49797 3.22656 7.36932 3.70668L6.8336 5.706L7.54998 5.29239C11.8068 2.83473 17.2499 4.29322 19.7076 8.55002C22.1653 12.8068 20.7068 18.25 16.45 20.7076C12.1932 23.1653 6.75003 21.7068 4.29236 17.45C4.04383 17.0196 4.19132 16.4691 4.62178 16.2206C5.05224 15.9721 5.60268 16.1196 5.8512 16.55C7.81181 19.9459 12.1541 21.1094 15.55 19.1488C18.9459 17.1882 20.1094 12.8459 18.1488 9.45002C16.1882 6.05414 11.8459 4.89063 8.44998 6.85124L7.7336 7.26484L9.73292 7.80056C10.213 7.92921 10.498 8.42271 10.3693 8.90283C10.2407 9.38295 9.74717 9.66787 9.26705 9.53923L5.16897 8.44115C4.68885 8.3125 4.40393 7.819 4.53258 7.33888L5.63065 3.2408C5.7593 2.76068 6.2528 2.47576 6.73292 2.60441Z" fill="black"/>
</svg>
