<svg width="24" height="24" viewBox="0 0 24 24" fill="none" xmlns="http://www.w3.org/2000/svg">
<path fill-rule="evenodd" clip-rule="evenodd" d="M14.415 3.02501C14.415 2.78631 14.3202 2.55741 14.1514 2.38863C13.9826 2.21984 13.7537 2.12502 13.515 2.12502C13.2763 2.12502 13.0474 2.21984 12.8786 2.38863C12.7098 2.55741 12.615 2.78631 12.615 3.02501V7.02501C12.6138 7.90376 12.9094 8.75718 13.454 9.4469C13.9985 10.1366 14.76 10.6222 15.615 10.825V21.025C15.615 21.2637 15.7098 21.4926 15.8786 21.6614C16.0474 21.8302 16.2763 21.925 16.515 21.925C16.7537 21.925 16.9826 21.8302 17.1514 21.6614C17.3202 21.4926 17.415 21.2637 17.415 21.025V10.825C18.27 10.6222 19.0315 10.1366 19.5761 9.4469C20.1206 8.75718 20.4162 7.90376 20.415 7.02501V3.02501C20.415 2.78631 20.3202 2.55741 20.1514 2.38863C19.9826 2.21984 19.7537 2.12502 19.515 2.12502C19.2763 2.12502 19.0474 2.21984 18.8786 2.38863C18.7098 2.55741 18.615 2.78631 18.615 3.02501V7.02501C18.6143 7.4226 18.5013 7.8119 18.289 8.14806C18.0767 8.48421 17.7737 8.75355 17.415 8.92502V3.02501C17.415 2.78631 17.3202 2.55741 17.1514 2.38863C16.9826 2.21984 16.7537 2.12502 16.515 2.12502C16.2763 2.12502 16.0474 2.21984 15.8786 2.38863C15.7098 2.55741 15.615 2.78631 15.615 3.02501V8.92502C15.2563 8.75355 14.9533 8.48421 14.741 8.14806C14.5287 7.8119 14.4157 7.4226 14.415 7.02501V3.02501ZM4.97499 2.25502L4.515 3.02501L4.97499 2.25502H5.03502L5.235 2.39502C5.4593 2.56161 5.67306 2.74195 5.87502 2.93501C6.59812 3.6186 7.22697 4.39542 7.74501 5.24501C9.09501 7.40501 10.385 10.815 10.385 15.975C10.385 16.2137 10.2902 16.4426 10.1214 16.6114C9.95263 16.7802 9.7237 16.875 9.485 16.875H5.38499V20.975C5.38499 21.2137 5.2902 21.4426 5.12141 21.6114C4.95263 21.7802 4.7237 21.875 4.485 21.875C4.24631 21.875 4.0174 21.7802 3.84862 21.6114C3.67983 21.4426 3.58501 21.2137 3.58501 20.975V2.97502C3.58501 2.85683 3.60829 2.73979 3.65352 2.6306C3.69875 2.52141 3.76504 2.4222 3.84862 2.33862C3.93219 2.25505 4.03139 2.18875 4.14058 2.14352C4.24977 2.09829 4.36681 2.07501 4.485 2.07501C4.66331 2.08145 4.83492 2.1445 4.97499 2.25502Z" fill="#333333"/>
</svg>
