<svg width="24" height="24" viewBox="0 0 24 24" fill="none" xmlns="http://www.w3.org/2000/svg">
<path fill-rule="evenodd" clip-rule="evenodd" d="M13.754 2.10002C14.251 2.10002 14.654 2.50297 14.654 3.00002V7.00002C14.654 7.83774 15.1445 8.5609 15.854 8.89793V3.00002C15.854 2.50297 16.2569 2.10002 16.754 2.10002C17.251 2.10002 17.654 2.50297 17.654 3.00002V8.89793C18.3635 8.5609 18.854 7.83774 18.854 7.00002V3.00002C18.854 2.50297 19.2569 2.10002 19.754 2.10002C20.251 2.10002 20.654 2.50297 20.654 3.00002V7.00002C20.654 8.84417 19.374 10.3894 17.654 10.7957V21C17.654 21.4971 17.251 21.9 16.754 21.9C16.2569 21.9 15.854 21.4971 15.854 21V10.7957C14.134 10.3894 12.854 8.84417 12.854 7.00002V3.00002C12.854 2.50297 13.2569 2.10002 13.754 2.10002Z" fill="#333333"/>
<path fill-rule="evenodd" clip-rule="evenodd" d="M5.59005 2.22823L5.127 2.99998C5.59005 2.22823 5.59122 2.22893 5.59122 2.22893L5.5925 2.22971L5.59541 2.23147L5.60259 2.23586L5.62231 2.24818C5.6378 2.25798 5.65793 2.27096 5.68239 2.28726C5.73129 2.31987 5.79752 2.36575 5.87854 2.42594C6.04058 2.54631 6.26192 2.72397 6.52234 2.96703C7.0435 3.45344 7.72015 4.20088 8.3902 5.27298C9.73505 7.42473 11.027 10.8419 11.027 16C11.027 16.497 10.6241 16.9 10.127 16.9H6.027V21C6.027 21.497 5.62406 21.9 5.127 21.9C4.62995 21.9 4.22701 21.497 4.22701 21V2.99998C4.22701 2.67573 4.40142 2.37655 4.68358 2.2168C4.96573 2.05704 5.31201 2.06141 5.59005 2.22823ZM6.027 15.1H9.21275C9.07401 10.7721 7.94571 7.95802 6.86381 6.22697C6.57721 5.76842 6.29223 5.38322 6.027 5.06396V15.1Z" fill="#333333"/>
</svg>
