<svg width="24" height="25" viewBox="0 0 24 25" fill="none" xmlns="http://www.w3.org/2000/svg">
<path fill-rule="evenodd" clip-rule="evenodd" d="M11.3636 0.36361C11.7151 0.0121381 12.2849 0.0121381 12.6364 0.36361L15.6364 3.36361C15.9879 3.71508 15.9879 4.28493 15.6364 4.6364L12.6364 7.6364C12.2849 7.98787 11.7151 7.98787 11.3636 7.6364C11.0121 7.28493 11.0121 6.71508 11.3636 6.36361L12.8272 4.90001H12C10.398 4.90001 8.83193 5.37506 7.49989 6.2651C6.16785 7.15514 5.12966 8.42019 4.51659 9.90027C3.90352 11.3804 3.74311 13.009 4.05565 14.5802C4.36819 16.1515 5.13964 17.5948 6.27245 18.7276C7.40525 19.8604 8.84853 20.6318 10.4198 20.9444C11.991 21.2569 13.6197 21.0965 15.0997 20.4834C16.5798 19.8704 17.8449 18.8322 18.7349 17.5001C19.625 16.1681 20.1 14.602 20.1 13C20.1 12.5029 20.503 12.1 21 12.1C21.4971 12.1 21.9 12.5029 21.9 13C21.9 14.958 21.3194 16.8721 20.2316 18.5002C19.1437 20.1282 17.5976 21.3971 15.7886 22.1464C13.9796 22.8957 11.989 23.0918 10.0686 22.7098C8.1482 22.3278 6.38419 21.3849 4.99965 20.0004C3.61511 18.6158 2.67223 16.8518 2.29024 14.9314C1.90824 13.011 2.1043 11.0204 2.8536 9.21144C3.60291 7.40245 4.87182 5.85628 6.49987 4.76846C8.12791 3.68063 10.042 3.10001 12 3.10001H12.8272L11.3636 1.6364C11.0121 1.28493 11.0121 0.715082 11.3636 0.36361Z" fill="#333333"/>
<path d="M10.0529 17V9.66846H8.61342L6.87856 10.9146V12.2466L8.5436 11.0649H8.61342V17H10.0529Z" fill="#333333"/>
<path d="M11.9115 15.1201C11.9598 16.2695 12.975 17.1397 14.5057 17.1397C16.1493 17.1397 17.2665 16.1191 17.2665 14.54C17.2665 13.0147 16.1761 12.1607 14.9139 12.1607C14.0868 12.1607 13.5873 12.5474 13.4422 12.7837H13.3671L13.5282 10.8394H16.8583V9.66846H12.368L12.0619 13.9439H13.3295C13.4852 13.6538 13.8827 13.2671 14.5326 13.2671C15.2631 13.2671 15.8646 13.7827 15.8646 14.5884C15.8646 15.48 15.2255 15.9956 14.5326 15.9956C13.9256 15.9956 13.3509 15.7002 13.2435 15.1201H11.9115Z" fill="#333333"/>
</svg>
