<svg width="24" height="24" viewBox="0 0 24 24" fill="none" xmlns="http://www.w3.org/2000/svg">
<path d="M20.3 11.305V12.705C20.3 15.055 20.3 16.225 19.53 16.655C18.76 17.085 17.77 16.485 15.75 15.275L14.58 14.575C12.7 13.425 11.7 12.905 11.7 12.005C11.7 11.105 12.7 10.575 14.57 9.435L15.74 8.73498C17.74 7.52498 18.74 6.915 19.52 7.345C20.3 7.775 20.3 8.95499 20.3 11.305Z" fill="#333333"/>
<path d="M12.3 11.305V12.705C12.3 15.055 12.3 16.225 11.53 16.655C10.76 17.085 9.77 16.485 7.75 15.275L6.58 14.575C4.7 13.425 3.7 12.905 3.7 12.005C3.7 11.105 4.7 10.575 6.57 9.435L7.74 8.73498C9.74 7.52498 10.74 6.915 11.52 7.345C12.3 7.775 12.3 8.95499 12.3 11.305Z" fill="#333333"/>
</svg>
