<svg width="24" height="24" viewBox="0 0 24 24" fill="none" xmlns="http://www.w3.org/2000/svg">
<path fill-rule="evenodd" clip-rule="evenodd" d="M4.00002 2.10001C3.88184 2.10001 3.7648 2.12329 3.6556 2.16852C3.54641 2.21375 3.44718 2.28004 3.36361 2.36362C3.28004 2.44719 3.21371 2.5464 3.16848 2.65559C3.12325 2.76479 3.1 2.88181 3.1 3C3.1 3.11819 3.12325 3.23523 3.16848 3.34442C3.21371 3.45361 3.28004 3.55283 3.36361 3.6364C3.44718 3.71997 3.54641 3.78627 3.6556 3.8315C3.7648 3.87673 3.88184 3.90001 4.00002 3.90001H4.63998C4.83306 6.27045 5.76722 8.52002 7.31002 10.33C7.82077 10.9308 8.37924 11.4893 8.98001 12C8.37925 12.5108 7.82078 13.0693 7.31002 13.67C5.76722 15.48 4.83306 17.7296 4.63998 20.1H4.00002C3.76133 20.1 3.53239 20.1948 3.36361 20.3636C3.19483 20.5324 3.1 20.7613 3.1 21C3.1 21.2387 3.19483 21.4676 3.36361 21.6364C3.53239 21.8052 3.76133 21.9 4.00002 21.9H20C20.2387 21.9 20.4676 21.8052 20.6364 21.6364C20.8052 21.4676 20.9 21.2387 20.9 21C20.9 20.7613 20.8052 20.5324 20.6364 20.3636C20.4676 20.1948 20.2387 20.1 20 20.1H19.36C19.167 17.7295 18.2329 15.48 16.69 13.67C16.1793 13.0692 15.6207 12.5107 15.02 12C15.6231 11.4919 16.1819 10.9332 16.69 10.33C18.2328 8.52002 19.1669 6.27045 19.36 3.90001H20C20.2387 3.90001 20.4676 3.80518 20.6364 3.6364C20.8052 3.46762 20.9 3.23869 20.9 3C20.9 2.76131 20.8052 2.5324 20.6364 2.36362C20.4676 2.19483 20.2387 2.10001 20 2.10001H4.00002ZM7.29 7C6.82867 6.02391 6.54106 4.97489 6.44003 3.90001H17.56C17.459 4.97488 17.1713 6.0239 16.71 7H7.29ZM10.63 13L10.28 13.27C9.69692 13.733 9.16404 14.2558 8.69003 14.83C7.42052 16.3163 6.63548 18.1551 6.44003 20.1H17.56C17.3646 18.1551 16.5796 16.3163 15.31 14.83C14.836 14.2559 14.3031 13.733 13.72 13.27L13.37 13H10.63Z" fill="#333333"/>
</svg>
