<svg width="24" height="24" viewBox="0 0 24 24" fill="none" xmlns="http://www.w3.org/2000/svg">
<path d="M20.6213 19.3413L16.3113 15.0813C17.4797 13.5993 18.0377 11.7269 17.8711 9.84704C17.7046 7.96721 16.8262 6.22203 15.4155 4.96846C14.0048 3.71489 12.1685 3.04765 10.2821 3.10322C8.39572 3.15879 6.60186 3.93297 5.26741 5.26742C3.93297 6.60186 3.15878 8.39573 3.10321 10.2821C3.04764 12.1685 3.71488 14.0048 4.96845 15.4155C6.22203 16.8262 7.96721 17.7046 9.84703 17.8711C11.7269 18.0377 13.5993 17.4797 15.0813 16.3113L19.3813 20.6213C19.5529 20.7875 19.7824 20.8804 20.0213 20.8804C20.2602 20.8804 20.4897 20.7875 20.6613 20.6213C20.8247 20.4458 20.9121 20.2128 20.9046 19.9731C20.8971 19.7334 20.7953 19.5064 20.6213 19.3413ZM14.4413 14.4413C13.5253 15.3575 12.3199 15.9277 11.0305 16.0547C9.74118 16.1818 8.44767 15.8579 7.37039 15.1381C6.29311 14.4184 5.49872 13.3474 5.12255 12.1076C4.74639 10.8679 4.81174 9.53602 5.30747 8.33903C5.80319 7.14203 6.69862 6.15395 7.84119 5.54315C8.98375 4.93234 10.3028 4.73659 11.5735 4.98927C12.8442 5.24194 13.988 5.92739 14.8099 6.92883C15.6319 7.93028 16.0812 9.18575 16.0813 10.4813C16.0841 11.2172 15.9406 11.9462 15.659 12.626C15.3775 13.3059 14.9635 13.9229 14.4413 14.4413Z" fill="#1A1A1A"/>
</svg>
