<svg width="24" height="24" viewBox="0 0 24 24" fill="none" xmlns="http://www.w3.org/2000/svg">
<path fill-rule="evenodd" clip-rule="evenodd" d="M8.63995 7.58652C8.46959 7.75506 8.23965 7.84959 8 7.84959C7.76035 7.84959 7.53035 7.75506 7.35999 7.58652C7.19205 7.41785 7.09778 7.18953 7.09778 6.95152C7.09778 6.71351 7.19205 6.48518 7.35999 6.31651L11.36 2.31651C11.5304 2.14797 11.7603 2.05344 12 2.05344C12.2397 2.05344 12.4696 2.14797 12.64 2.31651L16.64 6.31651C16.7389 6.39681 16.82 6.49702 16.8777 6.61063C16.9355 6.72423 16.9688 6.84871 16.9755 6.976C16.9821 7.10329 16.9619 7.23053 16.9162 7.34952C16.8705 7.4685 16.8003 7.57656 16.7101 7.66669C16.62 7.75681 16.512 7.82701 16.393 7.87271C16.274 7.91841 16.1468 7.93861 16.0195 7.93199C15.8922 7.92538 15.7677 7.8921 15.6541 7.8343C15.5404 7.77651 15.4403 7.6955 15.36 7.59651L12.9 5.12651V9.95651H11.1V5.12651L8.63995 7.58652ZM11.1 9.94652H8C7.20435 9.94652 6.44127 10.2626 5.87866 10.8252C5.31605 11.3878 5 12.1509 5 12.9465V18.9465C5 19.7422 5.31605 20.5052 5.87866 21.0678C6.44127 21.6304 7.20435 21.9465 8 21.9465H16C16.7956 21.9465 17.5587 21.6304 18.1213 21.0678C18.6839 20.5052 19 19.7422 19 18.9465V12.9465C19 12.1509 18.6839 11.3878 18.1213 10.8252C17.5587 10.2626 16.7956 9.94652 16 9.94652H12.9V14.9465C12.9 15.1852 12.8051 15.4141 12.6364 15.5829C12.4676 15.7517 12.2387 15.8465 12 15.8465C11.7613 15.8465 11.5324 15.7517 11.3636 15.5829C11.1948 15.4141 11.1 15.1852 11.1 14.9465V9.94652Z" fill="#333333"/>
</svg>
