<svg width="24" height="24" viewBox="0 0 24 24" fill="none" xmlns="http://www.w3.org/2000/svg">
<path fill-rule="evenodd" clip-rule="evenodd" d="M11.5906 2.46356C11.9421 2.11208 12.5119 2.11208 12.8634 2.46356L16.8634 6.46355C17.2149 6.81503 17.2149 7.38488 16.8634 7.73635C16.5119 8.08782 15.9421 8.08782 15.5906 7.73635L13.127 5.27274V15.1C13.127 15.597 12.7241 16 12.227 16C11.7299 16 11.327 15.597 11.327 15.1V5.27274L8.86339 7.73635C8.51192 8.08782 7.94207 8.08782 7.5906 7.73635C7.23913 7.38488 7.23913 6.81503 7.5906 6.46355L11.5906 2.46356ZM8.227 12C7.93524 12 7.65542 12.1159 7.44915 12.3221C7.24288 12.5284 7.127 12.8082 7.127 13.1V19.1C7.127 19.3917 7.24288 19.6715 7.44915 19.8778C7.65542 20.084 7.93524 20.2 8.227 20.2H16.227C16.5187 20.2 16.7985 20.0841 17.0048 19.8778C17.2111 19.6715 17.327 19.3917 17.327 19.1V13.1C17.327 12.8082 17.2111 12.5284 17.0048 12.3221C16.7985 12.1158 16.5187 12 16.227 12H15.727C15.2299 12 14.827 11.597 14.827 11.1C14.827 10.6029 15.2299 10.2 15.727 10.2H16.227C16.9961 10.2 17.7337 10.5055 18.2776 11.0493C18.8214 11.5932 19.127 12.3308 19.127 13.1V19.1C19.127 19.8691 18.8214 20.6067 18.2776 21.1506C17.7337 21.6944 16.9961 22 16.227 22H8.227C7.45789 22 6.72022 21.6944 6.17635 21.1506C5.63247 20.6067 5.327 19.869 5.327 19.1V13.1C5.327 12.3309 5.63247 11.5932 6.17635 11.0493C6.72022 10.5055 7.45789 10.2 8.227 10.2H8.727C9.22405 10.2 9.627 10.6029 9.627 11.1C9.627 11.597 9.22405 12 8.727 12H8.227Z" fill="#333333"/>
</svg>
