<svg width="24" height="24" viewBox="0 0 24 24" fill="none" xmlns="http://www.w3.org/2000/svg">
<path fill-rule="evenodd" clip-rule="evenodd" d="M3.26739 7.25085L3.5074 12.4008C3.47981 13.5357 3.60424 14.6691 3.87739 15.7708C4.09267 16.4627 4.43147 17.1098 4.87739 17.6808C5.65633 18.5037 6.54066 19.2199 7.5074 19.8109L11.2674 22.4508C11.4683 22.6237 11.6987 22.7592 11.9474 22.8509C12.105 22.8898 12.2698 22.8898 12.4274 22.8509C12.6761 22.7592 12.9064 22.6237 13.1074 22.4508L16.8474 19.8109C17.8141 19.2199 18.6985 18.5037 19.4774 17.6808C19.9262 17.1116 20.2653 16.464 20.4774 15.7708C20.75 14.6724 20.8745 13.5423 20.8474 12.4109L21.0874 7.25085C21.1268 6.97224 21.1268 6.68947 21.0874 6.41086C21.0304 6.18664 20.9429 5.97129 20.8274 5.77084C20.7081 5.58193 20.5596 5.41317 20.3874 5.27084C18.136 3.23021 15.206 2.09998 12.1674 2.09998C9.12879 2.09998 6.19882 3.23021 3.94739 5.27084C3.77519 5.41318 3.62668 5.58194 3.5074 5.77084C3.39188 5.97129 3.30439 6.18664 3.24739 6.41086C3.21462 6.69041 3.22136 6.97318 3.26739 7.25085ZM16.8574 10.2509C16.9408 10.1668 17.0068 10.0672 17.0517 9.95761C17.0966 9.84805 17.1194 9.7307 17.119 9.6123C17.1185 9.49391 17.0947 9.37678 17.049 9.26758C17.0032 9.15837 16.9364 9.05925 16.8524 8.97586C16.7683 8.89247 16.6687 8.82643 16.5591 8.78156C16.4496 8.73668 16.3323 8.71383 16.2139 8.71429C16.0955 8.71476 15.9783 8.73853 15.8691 8.78427C15.7599 8.83001 15.6608 8.89682 15.5774 8.98087L11.2174 13.3409L8.85739 10.9809C8.68898 10.8111 8.46004 10.7152 8.22093 10.7143C7.98182 10.7134 7.75213 10.8074 7.58239 10.9759C7.41265 11.1443 7.31677 11.3732 7.31583 11.6123C7.3149 11.8514 7.40898 12.0811 7.5774 12.2509L10.5774 15.2509C10.7478 15.4194 10.9777 15.5139 11.2174 15.5139C11.457 15.5139 11.687 15.4194 11.8574 15.2509L16.8574 10.2509Z" fill="black"/>
</svg>
