<svg width="24" height="24" viewBox="0 0 24 24" fill="none" xmlns="http://www.w3.org/2000/svg">
<path fill-rule="evenodd" clip-rule="evenodd" d="M11.4238 0.808607C11.7576 0.530473 12.2424 0.530472 12.5762 0.808607C14.0833 2.06456 15.2588 2.99816 16.5275 3.63252C17.7667 4.25212 19.1271 4.60001 21 4.60001C21.4971 4.60001 21.9 5.00295 21.9 5.50001C21.9 13.674 19.596 18.1768 17.1364 20.6364C15.9151 21.8577 14.6846 22.5448 13.7458 22.9272C13.277 23.1182 12.8812 23.2332 12.5952 23.3013C12.4521 23.3354 12.3363 23.3578 12.2522 23.3721C12.2102 23.3792 12.1761 23.3844 12.1504 23.388L12.1184 23.3922L12.1072 23.3936L12.1029 23.3941L12.101 23.3943C12.101 23.3943 12.0994 23.3945 12 22.5C11.9006 23.3945 11.899 23.3943 11.899 23.3943L11.8971 23.3941L11.8928 23.3936L11.8817 23.3922L11.8496 23.388C11.8239 23.3844 11.7898 23.3792 11.7478 23.3721C11.6637 23.3578 11.5479 23.3354 11.4048 23.3013C11.1189 23.2332 10.723 23.1182 10.2542 22.9272C9.31537 22.5448 8.08485 21.8577 6.86359 20.6364C4.40398 18.1768 2.09998 13.674 2.10001 5.5C2.10001 5.00295 2.50295 4.60001 3.00001 4.60001C4.87293 4.60001 6.23332 4.25212 7.47251 3.63252C8.74124 2.99816 9.9167 2.06456 11.4238 0.808607ZM12 22.5L11.9006 23.3945C11.9667 23.4018 12.0333 23.4018 12.0994 23.3945L12 22.5ZM12 21.5886C12.0458 21.58 12.1057 21.5675 12.1783 21.5503C12.3845 21.5012 12.6917 21.413 13.0667 21.2603C13.8154 20.9553 14.8349 20.3924 15.8636 19.3636C17.8266 17.4006 19.9337 13.6264 20.0907 6.37399C18.3927 6.27388 17.0108 5.88663 15.7225 5.24249C14.4344 4.59844 13.2648 3.70804 12 2.66871C10.7352 3.70804 9.56561 4.59844 8.2775 5.24249C6.98922 5.88663 5.6073 6.27388 3.90935 6.37399C4.06632 13.6264 6.17336 17.4006 8.13638 19.3636C9.16512 20.3924 10.1846 20.9552 10.9333 21.2603C11.3083 21.413 11.6155 21.5012 11.8217 21.5503C11.8943 21.5675 11.9542 21.58 12 21.5886ZM16.6364 8.86361C16.9879 9.21508 16.9879 9.78493 16.6364 10.1364L11.6364 15.1364C11.2849 15.4879 10.7151 15.4879 10.3636 15.1364L7.86361 12.6364C7.51214 12.2849 7.51214 11.7151 7.86361 11.3636C8.21508 11.0121 8.78493 11.0121 9.1364 11.3636L11 13.2272L15.3636 8.86361C15.7151 8.51214 16.2849 8.51214 16.6364 8.86361Z" fill="black"/>
</svg>
