<svg width="24" height="24" viewBox="0 0 24 24" fill="none" xmlns="http://www.w3.org/2000/svg">
<path fill-rule="evenodd" clip-rule="evenodd" d="M16.2362 2.12232C18.1374 1.6129 20.0916 2.74115 20.601 4.64234L21.7836 9.05568C22.293 10.9569 21.1648 12.911 19.2636 13.4205L14.8502 14.603C12.949 15.1124 10.9949 13.9842 10.4854 12.083L9.30289 7.66967C8.79346 5.76848 9.92171 3.81429 11.8229 3.30487L16.2362 2.12232ZM19.0122 5.06805C18.7379 4.04434 17.6857 3.43682 16.662 3.71112L12.2486 4.89367C11.2249 5.16798 10.6174 6.22023 10.8917 7.24395L12.0742 11.6573C12.3485 12.681 13.4008 13.2885 14.4245 13.0142L18.8379 11.8317C19.8616 11.5574 20.4691 10.5051 20.1948 9.48139L19.0122 5.06805ZM5.14925 4.52544C5.00557 3.98921 4.45439 3.67099 3.91816 3.81467L3.03549 4.05118C2.59675 4.16874 2.14579 3.90838 2.02823 3.46964C1.91067 3.0309 2.17103 2.57994 2.60977 2.46238L3.49244 2.22587C4.90614 1.84707 6.35925 2.68602 6.73805 4.09973L9.62451 14.8721C10.9677 14.832 12.2284 15.5599 12.8652 16.7432L21.431 14.448C21.8697 14.3304 22.3207 14.5908 22.4382 15.0295C22.5558 15.4683 22.2954 15.9192 21.8567 16.0368L13.291 18.332C13.3391 19.9463 12.278 21.4415 10.6502 21.8777C8.74902 22.3871 6.79483 21.2589 6.28541 19.3577C5.84925 17.7299 6.6136 16.0633 8.03571 15.2978L5.14925 4.52544ZM14.8574 5.80293C15.068 5.74648 15.2925 5.77603 15.4814 5.88509L17.1602 6.85433C17.5536 7.08144 17.6883 7.58442 17.4612 7.97778C17.2418 8.35784 16.7648 8.49651 16.378 8.30062L16.8107 9.91515C16.9282 10.3539 16.6679 10.8048 16.2291 10.9224C15.7904 11.04 15.3394 10.7796 15.2219 10.3409L14.7892 8.72634C14.5522 9.08938 14.0698 9.20777 13.6898 8.98834C13.2964 8.76124 13.1616 8.25825 13.3887 7.86489L14.358 6.18612C14.467 5.99722 14.6467 5.85939 14.8574 5.80293ZM11.5814 17.9386C11.3071 16.9149 10.2549 16.3074 9.23115 16.5817C8.20743 16.856 7.59991 17.9082 7.87421 18.9319C8.14852 19.9557 9.20077 20.5632 10.2245 20.2889C11.2482 20.0146 11.8557 18.9623 11.5814 17.9386Z" fill="#333333"/>
</svg>
