<svg width="24" height="24" viewBox="0 0 24 24" fill="none" xmlns="http://www.w3.org/2000/svg">
<path fill-rule="evenodd" clip-rule="evenodd" d="M0.0999756 16C0.0999756 15.5029 0.502919 15.1 0.999976 15.1H23C23.497 15.1 23.9 15.5029 23.9 16C23.9 16.497 23.497 16.9 23 16.9H20.5272C20.4897 16.9628 20.4486 17.0303 20.4038 17.102C20.1517 17.5053 19.7799 18.0468 19.3023 18.5926C18.3802 19.6464 16.9018 20.9 15 20.9H8.99998C7.09818 20.9 5.61971 19.6464 4.69766 18.5926C4.22009 18.0468 3.84822 17.5053 3.59615 17.102C3.55138 17.0303 3.51021 16.9628 3.4727 16.9H0.999976C0.502919 16.9 0.0999756 16.497 0.0999756 16ZM5.64008 16.9C5.76534 17.0656 5.90305 17.2368 6.05229 17.4073C6.88024 18.3535 7.90177 19.1 8.99998 19.1H15C16.0982 19.1 17.1197 18.3535 17.9477 17.4073C18.0969 17.2368 18.2346 17.0656 18.3599 16.9H5.64008Z" fill="#333333"/>
<path fill-rule="evenodd" clip-rule="evenodd" d="M18.8 16C18.24 13.12 15.28 11.1 12 11.1C8.71998 11.1 5.75999 13.1 5.19999 16H7.09998C7.54975 15.0723 8.25163 14.2901 9.12528 13.7427C9.99893 13.1954 11.009 12.9051 12.04 12.9051C13.0709 12.9051 14.081 13.1954 14.9547 13.7427C15.8283 14.2901 16.5302 15.0723 16.98 16H18.8Z" fill="#333333"/>
<path fill-rule="evenodd" clip-rule="evenodd" d="M7.99998 5.09998C8.49703 5.09998 8.89998 5.50292 8.89998 5.99998V8.99998C8.89998 9.49703 8.49703 9.89998 7.99998 9.89998C7.50292 9.89998 7.09998 9.49703 7.09998 8.99998V5.99998C7.09998 5.50292 7.50292 5.09998 7.99998 5.09998Z" fill="#333333"/>
<path fill-rule="evenodd" clip-rule="evenodd" d="M16 5.09998C16.497 5.09998 16.9 5.50292 16.9 5.99998V8.99998C16.9 9.49703 16.497 9.89998 16 9.89998C15.5029 9.89998 15.1 9.49703 15.1 8.99998V5.99998C15.1 5.50292 15.5029 5.09998 16 5.09998Z" fill="#333333"/>
<path fill-rule="evenodd" clip-rule="evenodd" d="M12 3.09998C12.497 3.09998 12.9 3.50292 12.9 3.99998V6.99998C12.9 7.49703 12.497 7.89998 12 7.89998C11.5029 7.89998 11.1 7.49703 11.1 6.99998V3.99998C11.1 3.50292 11.5029 3.09998 12 3.09998Z" fill="#333333"/>
</svg>
