<svg width="24" height="24" viewBox="0 0 24 24" fill="none" xmlns="http://www.w3.org/2000/svg">
<path fill-rule="evenodd" clip-rule="evenodd" d="M17.3268 3.34828C17.6864 3.00518 18.2561 3.01861 18.5992 3.37826C20.8154 5.70142 22.0518 8.7888 22.0518 11.9995C22.0518 15.2102 20.8154 18.2976 18.5992 20.6207C18.2561 20.9804 17.6864 20.9938 17.3268 20.6507C16.9671 20.3076 16.9537 19.7379 17.2968 19.3783C19.1936 17.3899 20.2518 14.7475 20.2518 11.9995C20.2518 9.25151 19.1936 6.60907 17.2968 4.62071C16.9537 4.26106 16.9671 3.69137 17.3268 3.34828ZM10.9914 5.99399C10.9745 5.98585 10.9557 5.98263 10.937 5.98469C10.9188 5.9867 10.9015 5.9937 10.8869 6.00495C10.8866 6.00518 10.8863 6.00541 10.886 6.00564L8.0612 8.26149C8.06092 8.26171 8.06065 8.26193 8.06037 8.26216C7.54641 8.67419 6.90746 8.89898 6.2487 8.89949L3.948 8.89949C3.65626 8.89949 3.37647 9.01538 3.17019 9.22167C2.9639 9.42796 2.848 9.70775 2.848 9.99949V13.9995C2.848 14.2912 2.9639 14.571 3.17019 14.7773C3.37647 14.9836 3.65626 15.0995 3.948 15.0995H6.248C6.90682 15.1 7.54651 15.3248 8.0605 15.7369C8.06073 15.7371 8.06026 15.7367 8.0605 15.7369L10.886 17.9934C10.8863 17.9936 10.8866 17.9938 10.8869 17.9941C10.9014 18.0053 10.9187 18.0123 10.937 18.0143C10.9557 18.0164 10.9745 18.0131 10.9914 18.005C11.0083 17.9968 11.0226 17.9841 11.0326 17.9683C11.0424 17.9528 11.0477 17.9348 11.048 17.9164V6.08265C11.0477 6.06425 11.0424 6.04627 11.0326 6.0307C11.0225 6.01483 11.0083 6.00211 10.9914 5.99399ZM10.7394 4.19557C11.0934 4.15646 11.4513 4.21767 11.7723 4.37218C12.0932 4.52671 12.3642 4.76835 12.5544 5.06948C12.7446 5.37064 12.8464 5.71919 12.848 6.07538L12.848 6.07951L12.848 17.9236C12.8464 18.2798 12.7446 18.6284 12.5544 18.9295C12.3642 19.2307 12.0931 19.4723 11.7723 19.6268C11.4513 19.7813 11.0934 19.8425 10.7394 19.8034C10.3854 19.7643 10.0495 19.6265 9.76999 19.4056L9.76637 19.4028L6.9348 17.1415C6.73979 16.985 6.4973 16.8997 6.2473 16.8995H3.948C3.17888 16.8995 2.44125 16.594 1.89739 16.0501C1.35354 15.5062 1.048 14.7686 1.048 13.9995V9.99949C1.048 9.23037 1.35354 8.49274 1.89739 7.94888C2.44125 7.40502 3.17888 7.09949 3.948 7.09949H6.24778C6.49761 7.09919 6.73991 7.01384 6.9348 6.85749L6.93638 6.85622L9.76998 4.59337C10.0494 4.37257 10.3853 4.23469 10.7394 4.19557ZM14.3559 7.32169C14.7302 6.99468 15.2988 7.03305 15.6258 7.40738C16.7368 8.67921 17.3491 10.3107 17.3491 11.9995C17.3491 13.6883 16.7368 15.3198 15.6258 16.5916C15.2988 16.9659 14.7302 17.0043 14.3559 16.6773C13.9816 16.3503 13.9432 15.7817 14.2702 15.4074C15.0947 14.4635 15.5491 13.2528 15.5491 11.9995C15.5491 10.7462 15.0947 9.53544 14.2702 8.59159C13.9432 8.21726 13.9816 7.6487 14.3559 7.32169Z" fill="#333333"/>
</svg>
