<svg width="24" height="24" viewBox="0 0 24 24" fill="none" xmlns="http://www.w3.org/2000/svg">
<path d="M21.198 8.06354L15.928 7.56351C15.8956 7.55257 15.8676 7.53154 15.848 7.50351L13.738 2.64352C13.5897 2.3055 13.3462 2.01796 13.0372 1.81607C12.7282 1.61418 12.3671 1.50665 11.998 1.50665C11.6289 1.50665 11.2678 1.61418 10.9588 1.81607C10.6498 2.01796 10.4063 2.3055 10.258 2.64352L8.148 7.50351C8.1411 7.51965 8.13008 7.53369 8.11604 7.54422C8.102 7.55475 8.08543 7.56141 8.068 7.56351L2.798 8.06354C2.42794 8.09392 2.0753 8.23375 1.78501 8.46527C1.49473 8.69679 1.27993 9.00949 1.168 9.36353C1.0547 9.71421 1.0464 10.0903 1.14412 10.4457C1.24184 10.801 1.44131 11.1201 1.718 11.3635L5.718 14.8635V14.9635L4.568 20.1235C4.47284 20.4926 4.49272 20.8819 4.62497 21.2393C4.75722 21.5968 4.99554 21.9053 5.308 22.1235C5.62823 22.3637 6.01772 22.4935 6.418 22.4935C6.76991 22.4979 7.11611 22.4044 7.418 22.2235L11.978 19.5335C11.9928 19.5236 12.0102 19.5184 12.028 19.5184C12.0458 19.5184 12.0632 19.5236 12.078 19.5335L16.638 22.2235C16.9571 22.4118 17.3242 22.5027 17.6943 22.485C18.0643 22.4673 18.4211 22.3418 18.7208 22.124C19.0204 21.9061 19.2499 21.6055 19.3809 21.2589C19.5118 20.9124 19.5387 20.5351 19.458 20.1735L18.278 14.9735C18.2681 14.9587 18.2628 14.9413 18.2628 14.9235C18.2628 14.9057 18.2681 14.8883 18.278 14.8735L22.278 11.3735C22.5572 11.1285 22.7584 10.8069 22.8568 10.4486C22.9552 10.0904 22.9463 9.71114 22.8314 9.35785C22.7165 9.00456 22.5005 8.6927 22.2102 8.46088C21.9199 8.22905 21.568 8.08743 21.198 8.05353V8.06354ZM21.088 10.0635L17.088 13.5635C16.8323 13.7883 16.6417 14.0777 16.5362 14.4014C16.4306 14.7251 16.414 15.0712 16.488 15.4035L17.638 20.5735C17.6494 20.5877 17.6556 20.6054 17.6556 20.6235C17.6556 20.6417 17.6494 20.6593 17.638 20.6735C17.6222 20.6857 17.6029 20.6923 17.583 20.6923C17.5631 20.6923 17.5438 20.6857 17.528 20.6735L12.968 17.9735C12.6756 17.8011 12.3424 17.7102 12.003 17.7102C11.6636 17.7102 11.3304 17.8011 11.038 17.9735L6.478 20.6635C6.46225 20.6757 6.4429 20.6823 6.423 20.6823C6.4031 20.6823 6.38375 20.6757 6.368 20.6635C6.308 20.6635 6.368 20.5835 6.368 20.5635L7.518 15.3935C7.59202 15.0612 7.57539 14.7151 7.46983 14.3914C7.36428 14.0677 7.17369 13.7783 6.918 13.5535L2.918 10.0535C2.90121 10.0305 2.89404 10.0018 2.898 9.97351C2.90408 9.95406 2.91596 9.93695 2.93205 9.92444C2.94813 9.91193 2.96765 9.90461 2.988 9.9035L8.258 9.4035C8.59653 9.3714 8.92013 9.24855 9.19469 9.04791C9.46924 8.84728 9.68458 8.57627 9.818 8.26349L11.898 3.36353C11.898 3.31353 12.058 3.31353 12.078 3.36353L14.188 8.2135C14.3223 8.52567 14.5379 8.79607 14.8123 8.99658C15.0867 9.19709 15.4098 9.32037 15.748 9.35352L21.018 9.85352C21.0388 9.853 21.0591 9.85968 21.0755 9.87244C21.0919 9.8852 21.1034 9.90326 21.108 9.92352C21.116 9.94176 21.1184 9.96197 21.1148 9.98157C21.1112 10.0012 21.1019 10.0192 21.088 10.0335V10.0635Z" fill="#1A1A1A"/>
</svg>
