<svg width="24" height="24" viewBox="0 0 24 24" fill="none" xmlns="http://www.w3.org/2000/svg">
<path d="M21.664 10.746L17.664 14.256C17.5232 14.3766 17.4187 14.534 17.3622 14.7106C17.3057 14.8872 17.2994 15.076 17.344 15.256L18.494 20.386C18.536 20.5758 18.5218 20.7737 18.4531 20.9556C18.3843 21.1374 18.2641 21.2953 18.1071 21.4099C17.9501 21.5244 17.763 21.5908 17.5689 21.6008C17.3748 21.6107 17.1819 21.5639 17.014 21.466L12.494 18.776C12.342 18.6882 12.1695 18.642 11.994 18.642C11.8185 18.642 11.646 18.6882 11.494 18.776L6.934 21.466C6.76606 21.5639 6.57323 21.6107 6.37909 21.6008C6.18496 21.5908 5.99794 21.5244 5.84091 21.4099C5.68388 21.2953 5.56366 21.1374 5.49494 20.9556C5.42622 20.7737 5.412 20.5758 5.454 20.386L6.604 15.216C6.64978 15.037 6.64505 14.8487 6.59033 14.6722C6.5356 14.4957 6.43303 14.3378 6.294 14.216L2.294 10.706C2.14972 10.5771 2.04594 10.409 1.99525 10.2223C1.94456 10.0356 1.94913 9.83812 2.00841 9.65393C2.06768 9.46974 2.17913 9.30674 2.32922 9.18463C2.47931 9.06252 2.66161 8.98658 2.854 8.966L8.134 8.45599C8.31075 8.43929 8.47986 8.37585 8.62398 8.27216C8.76809 8.16847 8.882 8.02828 8.954 7.866L11.054 3.00598C11.1308 2.82559 11.259 2.67178 11.4226 2.56366C11.5862 2.45554 11.7779 2.39792 11.974 2.39792C12.1701 2.39792 12.3618 2.45554 12.5254 2.56366C12.689 2.67178 12.8172 2.82559 12.894 3.00598L15.004 7.866C15.076 8.02828 15.1899 8.16847 15.334 8.27216C15.4781 8.37585 15.6473 8.43929 15.824 8.45599L21.094 8.966C21.2964 8.97694 21.4907 9.04911 21.6511 9.17297C21.8116 9.29684 21.9306 9.46651 21.9924 9.65955C22.0542 9.85258 22.0559 10.0599 21.9973 10.2539C21.9386 10.4479 21.8224 10.6195 21.664 10.746Z" fill="#1A1A1A"/>
</svg>
