<svg width="24" height="24" viewBox="0 0 24 24" fill="none" xmlns="http://www.w3.org/2000/svg">
<path d="M4.97 5.01495L4.33002 4.38495L3.69 5.02496L4.33002 5.65497L4.97 5.01495ZM8.42999 8.48495L9.07001 9.11496L9.70001 8.47498L9.07001 7.84497L8.42999 8.48495ZM5.03 4.95496L5.67001 4.31497L5.03 3.67496L4.39999 4.31497L5.03 4.95496ZM8.5 8.41495L7.86002 9.04495L8.49002 9.67496L9.13 9.05496L8.5 8.41495ZM15.5 8.41495L14.87 9.05496L15.51 9.68497L16.14 9.05496L15.5 8.41495ZM18.97 4.94495L19.6 4.31497L18.97 3.67496L18.33 4.31497L18.97 4.94495ZM19.04 5.01495L19.67 5.65497L20.31 5.01495L19.67 4.38495L19.04 5.01495ZM15.57 8.48495L14.94 7.84497L14.31 8.47498L14.93 9.11496L15.57 8.48495ZM15.57 15.485L14.93 14.8549L14.3 15.495L14.93 16.125L15.57 15.485ZM19.04 18.955L19.67 19.585L20.31 18.955L19.67 18.315L19.04 18.955ZM18.97 19.025L18.33 19.655L18.97 20.295L19.6 19.655L18.97 19.025ZM15.5 15.585L16.14 14.955L15.51 14.325L14.87 14.9449L15.5 15.585ZM8.5 15.585L9.13 14.9449L8.49002 14.315L7.86002 14.9449L8.5 15.585ZM5.03 19.045L4.39999 19.685L5.03 20.325L5.67001 19.685L5.03 19.045ZM4.95999 18.975L4.33002 18.345L3.69 18.985L4.33002 19.615L4.95999 18.975ZM8.42999 15.515L9.06 16.155L9.69 15.525L9.07001 14.8849L8.42999 15.515ZM12 22.9149C14.8909 22.9149 17.6633 21.7666 19.7075 19.7224C21.7516 17.6783 22.9 14.9058 22.9 12.015H21.1C21.1013 13.2104 20.8669 14.3943 20.41 15.4989C19.9532 16.6036 19.2829 17.6073 18.4376 18.4526C17.5923 19.2979 16.5886 19.9681 15.484 20.425C14.3793 20.8818 13.1954 21.1163 12 21.115V22.9149ZM1.10001 11.985C1.10001 14.8758 2.24839 17.6483 4.29254 19.6924C6.33669 21.7366 9.10914 22.8849 12 22.8849V21.085C10.8046 21.0863 9.62068 20.8518 8.51602 20.395C7.41137 19.9381 6.40768 19.2679 5.56241 18.4226C4.71713 17.5773 4.04688 16.5736 3.59003 15.4689C3.13318 14.3643 2.89868 13.1804 2.89999 11.985H1.10001ZM12 1.08496C9.10914 1.08496 6.33669 2.23335 4.29254 4.2775C2.24839 6.32164 1.10001 9.0941 1.10001 11.985H2.89999C2.89868 10.7896 3.13318 9.60563 3.59003 8.50098C4.04688 7.39632 4.71713 6.39264 5.56241 5.54736C6.40768 4.70209 7.41137 4.03183 8.51602 3.57498C9.62068 3.11813 10.8046 2.88363 12 2.88495V1.08496ZM22.9 11.985C22.9 9.0941 21.7516 6.32164 19.7075 4.2775C17.6633 2.23335 14.8909 1.08496 12 1.08496V2.88495C13.1954 2.88363 14.3793 3.11813 15.484 3.57498C16.5886 4.03183 17.5923 4.70209 18.4376 5.54736C19.2829 6.39264 19.9532 7.39632 20.41 8.50098C20.8669 9.60563 21.1013 10.7896 21.1 11.985H22.9ZM4.33002 5.65497L7.79001 9.12497L9.07001 7.84497L5.60001 4.38495L4.33002 5.65497ZM4.39999 4.31497L4.33002 4.38495L5.60001 5.65497L5.67001 5.58496L4.39999 4.31497ZM9.14001 7.77496L5.67001 4.31497L4.39999 5.58496L7.86002 9.05496L9.14001 7.77496ZM9.14001 9.05496C9.90793 8.30628 10.9375 7.88654 12.01 7.88495V6.08496C10.4645 6.08265 8.98052 6.68992 7.88 7.77496L9.14001 9.05496ZM12.01 7.88495C13.0825 7.88654 14.1121 8.30628 14.88 9.05496L16.14 7.77496C15.0395 6.68992 13.5555 6.08265 12.01 6.08496V7.88495ZM18.34 4.31497L14.87 7.77496L16.15 9.05496L19.6 5.58496L18.34 4.31497ZM19.68 4.38495L19.61 4.31497L18.33 5.58496L18.4 5.65497L19.68 4.38495ZM16.22 9.12497L19.68 5.65497L18.41 4.38495L14.94 7.84497L16.22 9.12497ZM14.94 9.12497C15.6826 9.892 16.0985 10.9173 16.1 11.985H17.9C17.9023 10.4395 17.295 8.95547 16.21 7.85495L14.94 9.12497ZM16.1 11.985C16.0984 13.0574 15.6787 14.087 14.93 14.8549L16.21 16.115C17.295 15.0144 17.9023 13.5304 17.9 11.985H16.1ZM19.67 18.315L16.21 14.845L14.93 16.125L18.4 19.585L19.67 18.315ZM19.6 19.655L19.67 19.585L18.4 18.315L18.33 18.3849L19.6 19.655ZM14.86 16.1949L18.33 19.655L19.6 18.3849L16.1 14.9149L14.86 16.1949ZM14.86 14.9149C14.0921 15.6636 13.0625 16.0834 11.99 16.085V17.8849C13.5355 17.8873 15.0195 17.28 16.12 16.1949L14.86 14.9149ZM11.99 16.085C10.9175 16.0834 9.88791 15.6636 9.12 14.9149L7.86002 16.1949C8.96053 17.28 10.4446 17.8873 11.99 17.8849V16.085ZM5.66 19.655L9.13 16.1949L7.85001 14.9149L4.39001 18.3849L5.66 19.655ZM4.32001 19.585L4.39001 19.655L5.66 18.3849L5.59 18.315L4.32001 19.585ZM7.78 14.845L4.32001 18.315L5.60001 19.585L9.06 16.125L7.78 14.845ZM9.06 14.845C8.31132 14.0771 7.8916 13.0475 7.89001 11.975H6.10001C6.0977 13.5204 6.70496 15.0044 7.79001 16.1049L9.06 14.845ZM7.89001 11.975C7.8916 10.9025 8.31132 9.87287 9.06 9.10495L7.78 7.84497C6.69617 8.94957 6.0924 10.4375 6.10001 11.985L7.89001 11.975Z" fill="#333333"/>
</svg>
