<svg width="24" height="24" viewBox="0 0 24 24" fill="none" xmlns="http://www.w3.org/2000/svg">
<path fill-rule="evenodd" clip-rule="evenodd" d="M7.89052 14.8405C7.31427 14.0055 7.00566 13.015 7.00566 12.0005C7.00566 10.986 7.31427 9.9955 7.89052 9.16052L4.32051 5.60052C2.81864 7.39888 1.99593 9.66751 1.99593 12.0105C1.99593 14.3535 2.81864 16.6222 4.32051 18.4205L7.89052 14.8405ZM9.16051 16.1105L5.5905 19.6805C7.38886 21.1824 9.65749 22.0051 12.0005 22.0051C14.3435 22.0051 16.6121 21.1824 18.4105 19.6805L14.8405 16.1105C14.0055 16.6868 13.015 16.9954 12.0005 16.9954C10.986 16.9954 9.99548 16.6868 9.16051 16.1105ZM16.1105 14.8405L19.6805 18.4105C21.1824 16.6122 22.0051 14.3435 22.0051 12.0005C22.0051 9.6575 21.1824 7.38887 19.6805 5.59052L16.1005 9.16052C16.6768 9.9955 16.9854 10.986 16.9854 12.0005C16.9854 13.015 16.6768 14.0055 16.1005 14.8405H16.1105ZM14.8405 7.89053L18.4105 4.32053C16.6121 2.81865 14.3435 1.99594 12.0005 1.99594C9.65749 1.99594 7.38886 2.81865 5.5905 4.32053L9.16051 7.89053C9.99548 7.31429 10.986 7.00568 12.0005 7.00568C13.015 7.00568 14.0055 7.31429 14.8405 7.89053Z" fill="#333333"/>
</svg>
