<svg width="24" height="24" viewBox="0 0 24 24" fill="none" xmlns="http://www.w3.org/2000/svg">
<path fill-rule="evenodd" clip-rule="evenodd" d="M3.31055 4.40549C3.31316 4.11456 3.42989 3.83628 3.63562 3.63055C3.84135 3.42483 4.11959 3.30809 4.41052 3.30548H10.5905C10.7345 3.30587 10.8768 3.3353 11.0092 3.392C11.1415 3.4487 11.261 3.53153 11.3605 3.6355L20.3605 12.6355C20.463 12.7369 20.5444 12.8575 20.5999 12.9906C20.6554 13.1236 20.6841 13.2663 20.6841 13.4105C20.6841 13.5546 20.6554 13.6974 20.5999 13.8304C20.5444 13.9634 20.463 14.0841 20.3605 14.1855L14.1906 20.3555C14.0892 20.458 13.9685 20.5393 13.8354 20.5949C13.7024 20.6504 13.5597 20.679 13.4155 20.679C13.2714 20.679 13.1286 20.6504 12.9956 20.5949C12.8626 20.5393 12.7419 20.458 12.6405 20.3555L3.6405 11.3555C3.53653 11.2559 3.45374 11.1364 3.39703 11.0041C3.34033 10.8718 3.31093 10.7294 3.31055 10.5855V4.40549ZM4.41052 1.50549C3.64139 1.50549 2.90378 1.81103 2.35992 2.35489C1.81607 2.89874 1.5105 3.63636 1.5105 4.40549V10.5955C1.513 11.3641 1.81845 12.1006 2.36053 12.6455L11.3605 21.6455C11.9043 22.189 12.6417 22.4943 13.4105 22.4943C14.1794 22.4943 14.9167 22.189 15.4605 21.6455L21.6405 15.4655C22.184 14.9217 22.4893 14.1843 22.4893 13.4155C22.4893 12.6467 22.184 11.9093 21.6405 11.3655L12.6405 2.36548C12.1069 1.83711 11.3913 1.53301 10.6405 1.5155L4.41052 1.50549ZM7.31055 8.40549C7.31055 8.18793 7.37504 7.97527 7.49591 7.79437C7.61678 7.61348 7.78856 7.47248 7.98956 7.38922C8.19056 7.30596 8.41174 7.28419 8.62512 7.32663C8.8385 7.36907 9.03452 7.47385 9.18835 7.62769C9.34219 7.78152 9.44694 7.97751 9.48938 8.19089C9.53182 8.40427 9.51008 8.62545 9.42682 8.82645C9.34356 9.02745 9.20256 9.19923 9.02167 9.3201C8.84077 9.44097 8.62808 9.50549 8.41052 9.50549C8.11878 9.50549 7.83898 9.38961 7.63269 9.18332C7.4264 8.97703 7.31055 8.69723 7.31055 8.40549ZM8.41052 5.50549C7.83696 5.50549 7.27628 5.67558 6.79938 5.99423C6.32247 6.31289 5.95076 6.76581 5.73126 7.29572C5.51177 7.82562 5.45433 8.40871 5.56622 8.97125C5.67812 9.5338 5.95435 10.0505 6.35992 10.4561C6.7655 10.8617 7.28224 11.1379 7.84479 11.2498C8.40733 11.3617 8.99042 11.3042 9.52032 11.0847C10.0502 10.8653 10.5031 10.4935 10.8218 10.0166C11.1404 9.53973 11.3105 8.97905 11.3105 8.40549C11.3105 7.63636 11.005 6.89874 10.4611 6.35489C9.91726 5.81103 9.17965 5.50549 8.41052 5.50549Z" fill="#333333"/>
</svg>
