<svg width="24" height="24" viewBox="0 0 24 24" fill="none" xmlns="http://www.w3.org/2000/svg">
<path fill-rule="evenodd" clip-rule="evenodd" d="M2.62151 5.62149V10.3815C2.62221 11.1769 2.93874 11.9394 3.50151 12.5015L11.5015 20.5015C12.064 21.0633 12.8265 21.3788 13.6215 21.3788C14.4165 21.3788 15.179 21.0633 15.7415 20.5015L20.5015 15.7415C21.0633 15.179 21.3788 14.4165 21.3788 13.6215C21.3788 12.8265 21.0633 12.064 20.5015 11.5015L12.5015 3.5015C11.9394 2.93873 11.1769 2.62219 10.3815 2.62149H5.62151C4.82586 2.62149 4.06278 2.93757 3.50017 3.50018C2.93756 4.06279 2.62151 4.82584 2.62151 5.62149ZM8.62151 10.6215C9.01707 10.6215 9.40375 10.5042 9.73265 10.2844C10.0615 10.0647 10.3178 9.75232 10.4692 9.38687C10.6206 9.02142 10.6602 8.61929 10.5831 8.23132C10.5059 7.84336 10.3154 7.48698 10.0357 7.20728C9.75599 6.92757 9.3996 6.73708 9.01164 6.65991C8.62368 6.58274 8.22158 6.62237 7.85612 6.77374C7.49067 6.92512 7.1783 7.18145 6.95854 7.51035C6.73878 7.83924 6.62151 8.22593 6.62151 8.62149C6.62151 9.15192 6.83219 9.66063 7.20726 10.0357C7.58233 10.4108 8.09107 10.6215 8.62151 10.6215Z" fill="#333333"/>
</svg>
