<svg width="24" height="24" viewBox="0 0 24 24" fill="none" xmlns="http://www.w3.org/2000/svg">
<path d="M12 22.95L15.1 5.59998C18.03 5.59998 18.96 5.91999 19.1 7.23999C20.2866 6.78777 21.3249 6.01593 22.1 5.00998C19.6512 3.91218 17.02 3.27812 14.34 3.13998L12.0699 5.89996L9.79999 3.13998C7.11994 3.27812 4.48876 3.91218 2.03998 5.00998C2.81501 6.01593 3.85334 6.78777 5.03998 7.23999C5.16998 5.91999 6.09998 5.59998 9.03998 5.59998L12 22.95Z" fill="black"/>
<path d="M12 2.37998C15.5674 2.33986 19.1035 3.04843 22.38 4.45997C22.6224 4.05503 22.8298 3.63017 23 3.18998C15.9442 0.336536 8.05576 0.336536 1 3.18998C1.17626 3.62749 1.38344 4.05189 1.62 4.45997C4.89648 3.04843 8.43262 2.33986 12 2.37998Z" fill="black"/>
</svg>
