<svg width="24" height="24" viewBox="0 0 24 24" fill="none" xmlns="http://www.w3.org/2000/svg">
<path d="M22.525 5.807C21.736 6.13758 20.9046 6.35635 20.055 6.45699C20.938 5.94817 21.6088 5.13901 21.945 4.17699C21.0907 4.65391 20.1657 4.99148 19.205 5.17699C18.7953 4.76112 18.3063 4.43177 17.7669 4.20845C17.2275 3.98514 16.6488 3.87241 16.065 3.87697C15.5113 3.86369 14.9604 3.95983 14.4439 4.15984C13.9274 4.35985 13.4554 4.6598 13.055 5.04253C12.6546 5.42526 12.3337 5.88324 12.1106 6.39022C11.8875 6.8972 11.7667 7.4432 11.755 7.99697C11.7571 8.31339 11.794 8.62862 11.865 8.93697C10.169 8.86304 8.50609 8.44249 6.97884 7.70122C5.4516 6.95996 4.09239 5.9137 2.98501 4.62697C2.60641 5.25112 2.40588 5.96698 2.40505 6.69698C2.40848 7.3845 2.58644 8.0599 2.92226 8.65984C3.25809 9.25978 3.74076 9.76459 4.32504 10.127C3.62815 10.1121 2.94396 9.93762 2.32504 9.61699C2.34988 10.5795 2.70703 11.5038 3.3359 12.2329C3.96476 12.962 4.8266 13.4511 5.77505 13.617C5.40335 13.7172 5.01999 13.7676 4.63503 13.767C4.36316 13.7651 4.09202 13.7383 3.82504 13.687C4.11941 14.5154 4.66067 15.2338 5.37588 15.7452C6.09109 16.2565 6.94588 16.5364 7.82504 16.547C6.27982 17.6996 4.40274 18.3206 2.475 18.317C2.14079 18.3161 1.80692 18.296 1.475 18.257C3.46093 19.4748 5.74545 20.1186 8.07504 20.117C11.2292 20.225 14.2973 19.0766 16.6054 16.9241C18.9135 14.7716 20.2729 11.791 20.385 8.63698V7.89699C21.2202 7.33706 21.9455 6.62867 22.525 5.807Z" fill="#333333"/>
</svg>
