<svg width="24" height="24" viewBox="0 0 24 24" fill="none" xmlns="http://www.w3.org/2000/svg">
<path fill-rule="evenodd" clip-rule="evenodd" d="M4.45468 8.38493C4.45468 7.52945 4.7945 6.70902 5.39942 6.1041C6.00434 5.49918 6.82481 5.15932 7.68029 5.15932C8.08553 5.15625 8.48745 5.233 8.86306 5.38514C9.57817 4.42154 10.57 3.69874 11.7063 3.31312C12.8426 2.9275 14.0694 2.89738 15.2233 3.22672C16.3772 3.55607 17.4033 4.22924 18.1648 5.15657C18.9264 6.08389 19.3873 7.22129 19.4861 8.41719C19.9803 8.45108 20.4629 8.58198 20.9065 8.80241C21.3501 9.02284 21.746 9.32849 22.0715 9.7019C22.3969 10.0753 22.6457 10.5092 22.8035 10.9787C22.9613 11.4482 23.0251 11.9443 22.9912 12.4385C22.9573 12.9327 22.8265 13.4153 22.606 13.8589C22.3856 14.3025 22.0799 14.6984 21.7065 15.0239C21.3331 15.3494 20.8993 15.5981 20.4297 15.7559C19.9602 15.9137 19.4641 15.9775 18.9699 15.9436H12.9488V10.7504L15.0992 12.9008C15.2806 13.0814 15.5261 13.1827 15.782 13.1827C16.0379 13.1827 16.2833 13.0814 16.4647 12.9008C16.6459 12.7176 16.7476 12.4703 16.7476 12.2127C16.7476 11.955 16.6459 11.7077 16.4647 11.5245L12.7015 7.76133C12.5201 7.58077 12.2747 7.4794 12.0188 7.4794C11.7629 7.4794 11.5174 7.58077 11.336 7.76133L7.5728 11.5245C7.48243 11.6142 7.4106 11.7208 7.36142 11.8382C7.31225 11.9556 7.28665 12.0816 7.28615 12.2089C7.28565 12.3362 7.31028 12.4623 7.35853 12.5801C7.40679 12.6979 7.47776 12.8051 7.56742 12.8954C7.65708 12.9858 7.76363 13.0576 7.88104 13.1068C7.99846 13.156 8.12446 13.1815 8.25176 13.182C8.37906 13.1825 8.5052 13.1579 8.623 13.1097C8.7408 13.0614 8.8479 12.9905 8.93827 12.9008L11.0887 10.7504V15.9436H5.06756C4.57143 15.9825 4.07255 15.9228 3.59958 15.7681C3.12662 15.6133 2.68894 15.3665 2.31175 15.0419C1.93457 14.7172 1.62534 14.3212 1.40186 13.8766C1.17838 13.4319 1.04507 12.9475 1.00962 12.4511C0.974163 11.9547 1.03726 11.4562 1.19527 10.9843C1.35328 10.5124 1.60306 10.0765 1.93028 9.70151C2.25749 9.32657 2.65565 9.02004 3.10182 8.79962C3.54799 8.5792 4.03334 8.44923 4.52995 8.41719L4.45468 8.38493ZM11.0135 15.9114H12.9488V19.137C12.9488 19.3936 12.8469 19.6398 12.6654 19.8213C12.4839 20.0027 12.2378 20.1047 11.9811 20.1047C11.7245 20.1047 11.4783 20.0027 11.2968 19.8213C11.1154 19.6398 11.0135 19.3936 11.0135 19.137V15.9114Z" fill="#333333"/>
</svg>
