<svg width="24" height="24" viewBox="0 0 24 24" fill="none" xmlns="http://www.w3.org/2000/svg">
<path d="M11.9995 12.071C13.091 12.1781 14.1894 11.952 15.1499 11.4228C16.1105 10.8935 16.8883 10.0857 17.3809 9.10586C17.8735 8.12598 18.0579 7.01991 17.9097 5.93323C17.7615 4.84654 17.2878 3.83021 16.5508 3.018C15.8138 2.2058 14.8481 1.6358 13.7809 1.38305C12.7136 1.13031 11.5949 1.20669 10.5719 1.60208C9.54888 1.99747 8.6696 2.69337 8.04978 3.59817C7.42996 4.50297 7.0987 5.57425 7.09952 6.67099C7.03695 8.0359 7.51723 9.37006 8.4354 10.3819C9.35357 11.3938 10.6349 12.0011 11.9995 12.071ZM11.9995 3.07098C12.7343 2.96076 13.4852 3.07805 14.1514 3.40707C14.8176 3.7361 15.3671 4.26111 15.7262 4.91159C16.0852 5.56207 16.2367 6.30685 16.1601 7.0459C16.0835 7.78495 15.7826 8.48284 15.2978 9.04587C14.8129 9.60889 14.1674 10.0101 13.4479 10.1955C12.7284 10.381 11.9694 10.3418 11.2729 10.0832C10.5763 9.82467 9.9755 9.35915 9.55124 8.74917C9.12698 8.1392 8.89957 7.414 8.89951 6.67099C8.83874 5.78378 9.13008 4.90837 9.71036 4.2345C10.2906 3.56062 11.1131 3.14257 11.9995 3.07098ZM11.9995 13.771C7.42949 13.771 3.09952 16.401 3.09952 19.171C3.07412 19.6286 3.14456 20.0865 3.30643 20.5153C3.4683 20.9441 3.71798 21.3343 4.03946 21.661C5.28946 22.851 7.38948 22.761 9.80948 22.661C11.2395 22.601 12.8095 22.601 14.1895 22.661C14.8895 22.661 15.5595 22.731 16.1895 22.731C17.5376 22.8794 18.8911 22.5035 19.9695 21.681C20.2892 21.3535 20.537 20.9628 20.6971 20.5341C20.8573 20.1053 20.9262 19.6479 20.8995 19.191C20.8995 16.401 16.5695 13.771 11.9995 13.771ZM18.7295 20.361C18.0295 21.021 16.2095 20.931 14.2795 20.841C13.5395 20.841 12.7695 20.771 11.9995 20.771C11.2295 20.771 10.4695 20.771 9.72947 20.841C7.78947 20.931 5.96951 21.021 5.27951 20.361C5.13325 20.2023 5.02344 20.0136 4.9578 19.8081C4.89216 19.6025 4.87227 19.3851 4.89951 19.171C4.89951 17.911 7.82949 15.571 11.9995 15.571C16.1695 15.571 19.0995 17.911 19.0995 19.171C19.1274 19.3843 19.1088 19.6011 19.0449 19.8065C18.981 20.012 18.8734 20.2011 18.7295 20.361Z" fill="#1A1A1A"/>
</svg>
