<svg width="24" height="24" viewBox="0 0 24 24" fill="none" xmlns="http://www.w3.org/2000/svg">
<path fill-rule="evenodd" clip-rule="evenodd" d="M6.86361 2.86358C7.21508 2.51211 7.78493 2.51211 8.1364 2.86358L11.6364 6.36358C11.9879 6.71505 11.9879 7.2849 11.6364 7.63637C11.2849 7.98784 10.7151 7.98784 10.3636 7.63637L8.40001 5.67277V19.5C8.40001 19.997 7.99706 20.4 7.50001 20.4C7.00295 20.4 6.60001 19.997 6.60001 19.5V5.67277L4.6364 7.63637C4.28493 7.98784 3.71508 7.98784 3.36361 7.63637C3.01214 7.2849 3.01214 6.71505 3.36361 6.36358L6.86361 2.86358ZM16.5 3.59998C16.9971 3.59998 17.4 4.00292 17.4 4.49998V18.3272L19.3636 16.3636C19.7151 16.0121 20.2849 16.0121 20.6364 16.3636C20.9879 16.7151 20.9879 17.2849 20.6364 17.6364L17.1364 21.1364C16.7849 21.4878 16.2151 21.4878 15.8636 21.1364L12.3636 17.6364C12.0121 17.2849 12.0121 16.7151 12.3636 16.3636C12.7151 16.0121 13.2849 16.0121 13.6364 16.3636L15.6 18.3272V4.49998C15.6 4.00292 16.0029 3.59998 16.5 3.59998Z" fill="#333333"/>
</svg>
