<svg width="24" height="24" viewBox="0 0 24 24" fill="none" xmlns="http://www.w3.org/2000/svg">
<path d="M15.984 12.02C15.984 12.8111 15.7494 13.5845 15.3099 14.2423C14.8703 14.9001 14.2456 15.4127 13.5147 15.7155C12.7838 16.0182 11.9795 16.0975 11.2036 15.9431C10.4277 15.7888 9.71499 15.4078 9.15558 14.8484C8.59617 14.289 8.21519 13.5762 8.06085 12.8003C7.90651 12.0244 7.9857 11.2201 8.28845 10.4892C8.5912 9.75832 9.10392 9.13365 9.76172 8.69412C10.4195 8.2546 11.1929 8.01999 11.984 8.01999C13.0449 8.01999 14.0623 8.44141 14.8124 9.19156C15.5626 9.9417 15.984 10.9591 15.984 12.02ZM21.744 12.5C19.144 16.67 15.634 18.92 11.984 18.92C8.33401 18.92 4.834 16.67 2.224 12.5C2.12757 12.351 2.07629 12.1774 2.07629 12C2.07629 11.8225 2.12757 11.6489 2.224 11.5C4.834 7.32997 8.33401 5.07999 11.984 5.07999C15.634 5.07999 19.144 7.32997 21.744 11.5C21.8537 11.6438 21.9163 11.818 21.9235 11.9987C21.9306 12.1794 21.8819 12.3579 21.784 12.51L21.744 12.5ZM19.914 12.02C17.574 8.51999 14.714 6.91998 11.984 6.91998C9.25401 6.91998 6.39402 8.51999 4.05402 12.02C6.39402 15.51 9.26401 17.12 11.984 17.12C14.704 17.12 17.574 15.52 19.914 12.02Z" fill="#1A1A1A"/>
</svg>
