<svg width="24" height="24" viewBox="0 0 24 24" fill="none" xmlns="http://www.w3.org/2000/svg">
<g clip-path="url(#clip0)">
<path fill-rule="evenodd" clip-rule="evenodd" d="M21.617 4.60999C22.1234 4.7479 22.5848 5.01626 22.955 5.38828C23.3253 5.76029 23.5914 6.22291 23.727 6.72998C24.0831 8.63892 24.2505 10.5783 24.227 12.52C24.2394 14.4542 24.0754 16.3855 23.737 18.29C23.6006 18.7982 23.3329 19.2617 22.9608 19.6338C22.5887 20.0059 22.1252 20.2736 21.617 20.41C19.737 20.9 12.227 20.9 12.227 20.9C12.227 20.9 4.73696 20.9 2.83696 20.38C2.3299 20.2445 1.86727 19.9783 1.49526 19.608C1.12325 19.2378 0.854879 18.7764 0.716966 18.27C0.0636845 14.4511 0.0636845 10.5489 0.716966 6.72998C0.859263 6.22247 1.12861 5.75961 1.49956 5.38516C1.87051 5.01071 2.33081 4.73702 2.83696 4.58997C4.71696 4.09997 12.227 4.09998 12.227 4.09998C12.227 4.09998 19.737 4.09999 21.617 4.60999ZM16.077 12.5L9.83696 16.1V8.89996L16.077 12.5Z" fill="black"/>
</g>
<defs>
<clipPath id="clip0">
<rect width="24" height="24" fill="white"/>
</clipPath>
</defs>
</svg>
