<svg width="24" height="24" viewBox="0 0 24 24" fill="none" xmlns="http://www.w3.org/2000/svg">
<path d="M12 14.3359C11.8245 14.3359 11.6521 14.2898 11.5 14.2021L2.5 9.00489C2.02161 8.72857 1.85779 8.11675 2.13411 7.63836C2.22187 7.48642 2.34806 7.36023 2.5 7.27247L11.5 2.07911C11.8096 1.90137 12.1904 1.90137 12.5 2.07911L21.5 7.27247C21.9784 7.54879 22.1422 8.16061 21.8659 8.639C21.7781 8.79094 21.6519 8.91713 21.5 9.00489L12.5 14.2021C12.3479 14.2898 12.1755 14.3359 12 14.3359Z" fill="#FA1965"/>
<path d="M21.5 11.1099L19.5359 9.97656L12.5 14.0396C12.1905 14.218 11.8095 14.218 11.5 14.0396L4.46411 9.97656L2.5 11.1099C2.02161 11.3863 1.85779 11.9981 2.13411 12.4765C2.22187 12.6284 2.34806 12.7546 2.5 12.8424L11.5 18.0396C11.8095 18.218 12.1905 18.218 12.5 18.0396L21.5 12.8424C21.9784 12.566 22.1422 11.9542 21.8659 11.4758C21.7781 11.3239 21.6519 11.1977 21.5 11.1099Z" fill="#FFDB54"/>
<path d="M21.5 15.088L19.5359 13.9546L12.5 18.0177C12.1905 18.1961 11.8095 18.1961 11.5 18.0177L4.46411 13.9546L2.5 15.088C2.02161 15.3643 1.85779 15.9762 2.13411 16.4545C2.22187 16.6065 2.34806 16.7327 2.5 16.8204L11.5 22.0177C11.8095 22.1961 12.1905 22.1961 12.5 22.0177L21.5 16.8204C21.9784 16.5441 22.1422 15.9323 21.8659 15.4539C21.7781 15.302 21.6519 15.1758 21.5 15.088Z" fill="#1619FF"/>
</svg>
