<svg width="24" height="24" viewBox="0 0 24 24" fill="none" xmlns="http://www.w3.org/2000/svg">
<g id="icons">
<g id="Group">
<path id="Vector" d="M22.6667 0H14.6667C13.9303 0 13.3333 0.596954 13.3333 1.33333V9.33333C13.3333 10.0697 13.9303 10.6667 14.6667 10.6667H22.6667C23.403 10.6667 24 10.0697 24 9.33333V1.33333C24 0.596954 23.403 0 22.6667 0Z" fill="#FFDB54"/>
<circle id="Ellipse 2" cx="5.33333" cy="5.33333" r="5.33333" fill="#FA1965"/>
<g id="Group 1">
<path id="Vector_2" d="M21.3333 24H16C15.6465 23.9996 15.3076 23.8519 15.0576 23.5894C14.8077 23.3269 14.6671 22.971 14.6667 22.5997V18.5156C14.6667 18.3161 14.7073 18.119 14.7857 17.9373C14.8641 17.7556 14.9786 17.5936 15.1215 17.4622L17.7886 15.0113C18.0322 14.789 18.344 14.6667 18.6667 14.6667C18.9893 14.6667 19.3011 14.789 19.5447 15.0113L22.2114 17.4617L22.2118 17.4622C22.3547 17.5936 22.4692 17.7556 22.5476 17.9373C22.6261 18.119 22.6667 18.3161 22.6667 18.5156V22.5997C22.6663 22.971 22.5257 23.3269 22.2757 23.5894C22.0258 23.8519 21.6868 23.9996 21.3333 24V24Z" fill="#1619FF"/>
<path id="Vector_3" d="M20.4444 24H16.8889V20.7327C16.8889 20.3613 17.0294 20.0052 17.2794 19.7426C17.5295 19.48 17.8686 19.3324 18.2222 19.3324H19.1111C19.4647 19.3324 19.8039 19.48 20.0539 19.7426C20.304 20.0052 20.4444 20.3613 20.4444 20.7327V24Z" fill="#FFDB54"/>
</g>
<path id="Vector_4" d="M3.15575 23.4667C2.67247 23.4651 2.2095 23.2884 1.86801 22.975C1.52653 22.6616 1.3343 22.237 1.33333 21.7941V16.3367C1.33333 16.0436 1.41754 15.7556 1.57749 15.5017C1.73744 15.2478 1.96751 15.0369 2.24456 14.8904C2.52161 14.7438 2.83588 14.6666 3.15578 14.6667C3.47568 14.6667 3.78993 14.7439 4.06695 14.8905L9.22239 17.6192C9.49936 17.7658 9.72935 17.9766 9.88925 18.2305C10.0492 18.4843 10.1333 18.7723 10.1333 19.0654C10.1333 19.3585 10.0492 19.6465 9.88925 19.9003C9.72935 20.1542 9.49936 20.365 9.22239 20.5116L4.06693 23.2403C3.79023 23.3879 3.47592 23.466 3.15575 23.4667V23.4667Z" fill="#1619FF"/>
</g>
</g>
</svg>
