<svg width="24" height="24" viewBox="0 0 24 24" fill="none" xmlns="http://www.w3.org/2000/svg">
<path d="M12.5977 20.8053L10.2527 18.4603L7.90772 20.8053L10.2527 23.1502C11.2246 24.1201 12.7982 24.1201 13.7702 23.1502L16.1151 20.8053C15.1432 21.7751 13.5696 21.7751 12.5977 20.8053ZM3.21777 11.4254C2.24792 10.4535 2.24795 8.87992 3.21777 7.90796L0.8728 10.2529C-0.0970221 11.2249 -0.0970573 12.7984 0.8728 13.7704L3.21777 16.1153L5.56275 13.7704L3.21777 11.4254Z" fill="#1C1EFF"/>
<path d="M14.9424 18.4604L5.56255 9.08051C4.59273 8.10856 4.59273 6.53499 5.56255 5.56305L10.2525 0.873108C11.2244 -0.0967133 12.798 -0.0967132 13.77 0.873108L23.1499 10.253C24.1197 11.2249 24.1197 12.7985 23.1499 13.7704L18.4599 18.4604C17.488 19.4302 15.9144 19.4302 14.9424 18.4604Z" fill="#1C1EFF"/>
<path d="M9.96448 18.7499L5.27454 14.06L13.4819 5.85254L18.1719 10.5425L9.96448 18.7499Z" fill="#FF0056"/>
<g style="mix-blend-mode:darken">
<path d="M10.2792 18.4354L5.58925 13.7455L13.0737 6.26099L17.7637 10.9509L10.2792 18.4354Z" fill="#160203" fill-opacity="0.21"/>
</g>
<path d="M12.5977 16.1152L7.90771 11.4253L5.56273 13.7703L10.2527 18.4602L12.5977 16.1152Z" fill="#F4B000"/>
<path d="M17.7432 10.9233L13.0532 6.2334L10.7083 8.57837L15.3982 13.2683L17.7432 10.9233Z" fill="#F4B000"/>
<path d="M10.2529 18.4602L5.56299 13.7703L3.21801 16.1152L7.90796 20.8052L10.2529 18.4602Z" fill="#FF0056"/>
<path d="M20.7925 7.90446L16.0854 3.19739L13.057 6.22586L17.764 10.9329L20.7925 7.90446Z" fill="#FF0056"/>
<path d="M5.56299 9.08044C4.59313 8.10851 4.59317 6.53495 5.56299 5.56299L3.21802 7.90796C2.2482 8.87992 2.24816 10.4535 3.21802 11.4254L5.56299 13.7704L7.90796 11.4254L5.56299 9.08044ZM14.9429 18.4603L12.5979 16.1153L10.2529 18.4603L12.5979 20.8053C13.5698 21.7751 15.1434 21.7751 16.1154 20.8053L18.4603 18.4603C17.4884 19.4301 15.9148 19.4302 14.9429 18.4603Z" fill="#FFCE16"/>
<path d="M10.7085 3.88843C9.73864 2.9165 9.73867 1.34294 10.7085 0.370972L8.36352 2.71594C7.39369 3.68791 7.39366 5.26147 8.36352 6.2334L10.7085 8.57837L13.0535 6.2334L10.7085 3.88843ZM20.0884 13.2683L17.7434 10.9233L15.3985 13.2683L17.7434 15.6133C18.7154 16.5831 20.2889 16.5831 21.2609 15.6133L23.6059 13.2683C22.6339 14.2381 21.0604 14.2382 20.0884 13.2683Z" fill="#FFCE16"/>
</svg>
