<svg class="illustration"  width="1155" height="700" viewBox="0 0 1155 700" fill="none" xmlns="http://www.w3.org/2000/svg">
<path fill-rule="evenodd" clip-rule="evenodd" d="M483.286 346.143C483.286 363.895 468.895 378.286 451.143 378.286C433.391 378.286 419 363.895 419 346.143C419 328.391 433.391 314 451.143 314C468.895 314 483.286 328.391 483.286 346.143ZM579.714 446.429C579.714 481.933 550.933 510.714 515.429 510.714C479.925 510.714 451.143 481.933 451.143 446.429C451.143 410.925 479.925 382.143 515.429 382.143C550.933 382.143 579.714 410.925 579.714 446.429Z" fill="#ffffff"/>
<path fill-rule="evenodd" clip-rule="evenodd" d="M763.571 253.571C763.571 324.579 706.008 382.143 635 382.143C563.992 382.143 506.428 324.579 506.428 253.571C506.428 182.563 563.992 125 635 125C706.008 125 763.571 182.563 763.571 253.571ZM827.857 478.571C827.857 531.827 784.685 575 731.429 575C678.173 575 635 531.827 635 478.571C635 425.315 678.173 382.143 731.429 382.143C784.685 382.143 827.857 425.315 827.857 478.571Z" fill="#ffd615"/>
</svg>