<svg width="24" height="24" fill="none" xmlns="http://www.w3.org/2000/svg">
  <defs/>
  <g fill="#F2F2F2">
    <path d="M12 7.3a2.378 2.378 0 110 4.756A2.378 2.378 0 0112 7.3z"/>
    <path d="M16.724 15.298A6.09 6.09 0 0112 17.538a6.09 6.09 0 01-4.725-2.24 5.062 5.062 0 019.45 0z"/>
  </g>
  <path d="M9.621 9.679A2.378 2.378 0 0012 12.056 5.062 5.062 0 007.275 15.3a6.103 6.103 0 119.449 0A5.062 5.062 0 0012 12.057 2.378 2.378 0 109.62 9.678z" fill="#3A5BBC"/>
  <path d="M20.59 3.184s2.147 16.05-8.59 19.892C1.263 19.233 3.41 3.184 3.41 3.184L12 .924l8.59 2.26zm-3.865 12.114a6.103 6.103 0 10-9.449-7.727 6.103 6.103 0 009.449 7.728z" fill="#518EF8"/>
  <g fill="#333">
    <path d="M21.01 3.128a.424.424 0 00-.313-.354l-8.59-2.26a.424.424 0 00-.215 0l-8.59 2.26a.424.424 0 00-.312.354c-.022.167-.536 4.13.272 8.636.477 2.663 1.321 4.955 2.51 6.811 1.498 2.343 3.546 3.991 6.085 4.9a.425.425 0 00.286 0c2.54-.909 4.587-2.557 6.086-4.9 1.188-1.856 2.032-4.148 2.51-6.811.807-4.506.293-8.47.27-8.636zm-1.106 8.486c-.458 2.554-1.262 4.742-2.39 6.505-1.366 2.136-3.221 3.652-5.514 4.506-2.29-.853-4.143-2.366-5.51-4.497-1.127-1.76-1.931-3.944-2.39-6.494-.669-3.71-.401-7.133-.301-8.114l8.2-2.158 8.202 2.158c.1.979.368 4.386-.297 8.095z"/>
    <path d="M12 4.908a6.534 6.534 0 00-6.527 6.527c0 1.504.523 2.972 1.474 4.132A6.506 6.506 0 0012 17.962a6.506 6.506 0 005.052-2.395 6.536 6.536 0 001.475-4.132A6.534 6.534 0 0012 4.908zm0 12.206a5.659 5.659 0 01-4.233-1.893A4.63 4.63 0 0112 12.481a4.627 4.627 0 014.232 2.74A5.658 5.658 0 0112 17.114zM10.045 9.68c0-1.078.877-1.955 1.955-1.955 1.077 0 1.954.877 1.954 1.955A1.956 1.956 0 0112 11.633a1.957 1.957 0 01-1.955-1.954zm6.757 4.787a5.479 5.479 0 00-3.1-2.564 2.798 2.798 0 001.1-2.223A2.805 2.805 0 0012 6.877a2.805 2.805 0 00-2.803 2.802c0 .905.432 1.71 1.1 2.223a5.477 5.477 0 00-3.1 2.564 5.69 5.69 0 01-.877-3.031A5.686 5.686 0 0112 5.755a5.686 5.686 0 015.68 5.68c-.001 1.075-.31 2.13-.878 3.03z"/>
  </g>
</svg>
