<svg width="24" height="24" fill="none" xmlns="http://www.w3.org/2000/svg">
  <defs/>
  <path d="M13.219 21.303h-2.438a.27.27 0 01-.27-.27v-6.8h2.978v6.8a.27.27 0 01-.27.27z" fill="#EDE9E8"/>
  <path d="M12.5 14.233v6.8a.27.27 0 01-.25.269h.969a.27.27 0 00.27-.269v-6.8H12.5z" fill="#DFD7D5"/>
  <path d="M14.708 19.07H9.293a.27.27 0 01-.27-.27v-1.443h5.954V18.8a.27.27 0 01-.27.27z" fill="#FABE2C"/>
  <path d="M13.988 17.357V18.8a.27.27 0 01-.27.27h.989a.27.27 0 00.27-.27v-1.443h-.989z" fill="#FD9E28"/>
  <path d="M3.105 7.907H1.106a.27.27 0 01-.27-.27v-.949c0-.149.122-.27.27-.27h2v1.49z" fill="#898989"/>
  <path d="M1.337 6.419h1.768v1.488H1.337V6.42z" fill="#727575"/>
  <path d="M8.279 4.723H4.558V2.967c0-.149.12-.27.27-.27h3.181c.149 0 .27.121.27.27v1.756z" fill="#898989"/>
  <path d="M8.01 2.698H7.02c.15 0 .27.12.27.269v1.756h.988V2.967a.27.27 0 00-.27-.27z" fill="#727575"/>
  <path d="M21.675 4.186H3.814c-.822 0-1.489.666-1.489 1.488v10.42c0 .821.667 1.487 1.489 1.487h16.372c.822 0 1.489-.666 1.489-1.488V4.186z" fill="#EDE9E8"/>
  <path d="M21.675 4.186h-.988v11.907c0 .822-.667 1.488-1.489 1.488h.988c.823 0 1.489-.666 1.489-1.488V4.186z" fill="#DFD7D5"/>
  <path d="M12 13.116a.744.744 0 01-.744-.744v-8.93c0-.411.333-.744.744-.744H22.42c.41 0 .744.333.744.744v8.93a.744.744 0 01-.744.744H12z" fill="#898989"/>
  <path d="M22.419 2.698h-.988c.41 0 .744.333.744.744v8.93a.744.744 0 01-.744.744h.988a.744.744 0 00.744-.744v-8.93a.744.744 0 00-.744-.744z" fill="#727575"/>
  <path d="M21.405 11.628h-8.391a.27.27 0 01-.27-.27V4.455c0-.148.12-.27.27-.27h8.391c.149 0 .27.122.27.27v6.903a.27.27 0 01-.27.27z" fill="#727575"/>
  <path d="M21.405 4.186h-.988c.149 0 .27.12.27.27v6.902a.27.27 0 01-.27.27h.988a.27.27 0 00.27-.27V4.455a.27.27 0 00-.27-.27z" fill="#5E6161"/>
  <path d="M19.442 7.907a2.233 2.233 0 11-4.465 0 2.233 2.233 0 014.465 0z" fill="#AAEBF9"/>
  <path d="M17.21 5.674c-.17 0-.335.02-.494.056a2.233 2.233 0 010 4.354 2.233 2.233 0 10.494-4.41z" fill="#7BE2F6"/>
  <path d="M6.046 14.977a1.116 1.116 0 11-2.232 0 1.116 1.116 0 012.232 0z" fill="#898989"/>
  <path d="M16.734 14.605h3.182c.15 0 .27.12.27.27v.949a.27.27 0 01-.27.27h-3.182a.27.27 0 01-.27-.27v-.95c0-.149.122-.27.27-.27z" fill="#AAEBF9"/>
  <path d="M8.753 8.651h-4.67a.27.27 0 01-.27-.27V5.945c0-.15.121-.27.27-.27h4.67c.15 0 .27.12.27.27v2.438a.27.27 0 01-.27.27z" fill="#FABE2C"/>
  <path d="M8.754 5.674h-.988c.148 0 .27.12.27.27v2.438a.27.27 0 01-.27.27h.988a.27.27 0 00.27-.27V5.944a.27.27 0 00-.27-.27z" fill="#FD9E28"/>
  <path d="M19.917 14.605h-.988c.149 0 .27.12.27.27v.949a.27.27 0 01-.27.27h.988a.27.27 0 00.27-.27v-.95a.27.27 0 00-.27-.27z" fill="#7BE2F6"/>
  <path d="M4.93 13.86c-.178 0-.345.042-.494.116a1.116 1.116 0 010 2.002 1.116 1.116 0 10.494-2.117z" fill="#727575"/>
  <path d="M22.419 2.36H12c-.596 0-1.081.486-1.081 1.082v.407H8.616V2.698a.337.337 0 00-.337-.337h-3.72a.337.337 0 00-.338.337v1.151h-.407a1.827 1.827 0 00-1.825 1.825v.408H.837a.337.337 0 00-.337.337v1.488c0 .186.15.337.337.337h1.152v7.85c0 1.006.818 1.825 1.825 1.825h1.222a.337.337 0 000-.674H3.814a1.153 1.153 0 01-1.152-1.152V5.674c0-.635.517-1.151 1.152-1.151h7.105v7.85c0 .595.485 1.08 1.081 1.08h9.338v2.64c0 .635-.517 1.152-1.152 1.152H9.023 6.384a.337.337 0 000 .674h2.302v1.151c0 .186.151.337.337.337h1.152v1.896c0 .186.15.337.337.337h2.976c.187 0 .337-.151.337-.337v-1.896h1.152c.186 0 .337-.15.337-.337v-1.151h4.872a1.827 1.827 0 001.826-1.826v-2.64h.407c.596 0 1.081-.485 1.081-1.08V3.441c0-.596-.485-1.081-1.081-1.081zM1.989 7.57h-.815v-.814h.814v.814zm2.906-4.536h3.047v.815H4.895v-.815zm8.257 17.932h-2.303v-1.56h2.303v1.56zm1.488-2.233h-1.15H10.511 9.36v-.814h5.279v.814zm8.186-6.36a.408.408 0 01-.407.407H12a.408.408 0 01-.407-.408v-8.93c0-.225.183-.408.407-.408H22.42c.224 0 .407.183.407.408v8.93z" fill="#000"/>
  <path d="M21.675 3.849h-8.93a.337.337 0 00-.338.337v7.442c0 .186.151.337.337.337h8.93c.187 0 .338-.151.338-.337V4.186a.337.337 0 00-.337-.337zm-.337 7.442H13.08V4.523h8.257v6.768z" fill="#000"/>
  <path d="M17.21 10.476a2.572 2.572 0 002.569-2.57 2.572 2.572 0 00-2.57-2.569 2.573 2.573 0 00-2.57 2.57 2.573 2.573 0 002.57 2.57zm0-4.465c1.044 0 1.895.85 1.895 1.896 0 1.045-.85 1.896-1.896 1.896a1.898 1.898 0 01-1.896-1.896c0-1.045.85-1.896 1.896-1.896zM4.93 16.43c.801 0 1.453-.652 1.453-1.453s-.652-1.453-1.453-1.453c-.802 0-1.453.652-1.453 1.453s.651 1.453 1.453 1.453zm0-2.232a.78.78 0 11-.002 1.56.78.78 0 01.002-1.56zM20.186 16.43c.186 0 .337-.15.337-.337v-1.488a.337.337 0 00-.337-.337h-3.721a.337.337 0 00-.337.337v1.488c0 .186.15.337.337.337h3.721zm-3.384-1.488h3.047v.814h-3.047v-.814zM9.023 8.988c.186 0 .337-.15.337-.337V5.674a.337.337 0 00-.337-.337h-5.21a.337.337 0 00-.336.337v2.977c0 .186.15.337.336.337h5.21zM4.15 6.011h4.536v2.303H4.15V6.011z" fill="#000"/>
  <path d="M5.302 6.454a.337.337 0 00-.337.337v.744a.337.337 0 10.674 0v-.744a.337.337 0 00-.337-.337zM7.535 6.454a.337.337 0 00-.337.337v.744a.337.337 0 10.674 0v-.744a.337.337 0 00-.337-.337z" fill="#000"/>
</svg>
