<svg width="24" height="24" fill="none" xmlns="http://www.w3.org/2000/svg">
  <defs/>
  <path d="M18.656 18.71v4.358h4.434V.9H.922v17.088l4.433-.444v5.524h8.867v-5.191" fill="#CFDCE5"/>
  <path d="M23.084 10.014c.23 0 .416-.186.416-.416V.916A.416.416 0 0023.084.5H.916A.416.416 0 00.5.916v17.088a.416.416 0 00.458.414l3.975-.398v5.064c0 .23.187.416.417.416h8.867c.23 0 .416-.186.416-.416v-4.69l3.601.677v4.013c0 .23.186.416.416.416h4.434c.23 0 .416-.186.416-.416V10.985a.416.416 0 00-.832 0v11.683h-3.602v-6.19a.416.416 0 10-.832 0v1.746l-3.601-.676v-1.07a.416.416 0 00-.832 0v6.19h-3.602v-6.19a.416.416 0 00-.832 0v6.19H5.766v-6.19a.416.416 0 00-.833 0v.705l-3.6.361V1.332h21.335v8.266c0 .23.186.416.416.416z" fill="#000"/>
  <path d="M17.742 4.16a.416.416 0 000-.832h-7.235a.416.416 0 000 .832h7.236zM9.12 4.16a.416.416 0 000-.832H6.257a.416.416 0 000 .832H9.12zM20.023 6.99h-3.024a.416.416 0 100 .833h3.024a.416.416 0 100-.833zM3.562 7.406c0 .23.186.417.416.417h11.634a.416.416 0 100-.833H3.978a.416.416 0 00-.416.416zM20.023 9.258H9.453a.416.416 0 000 .833h10.57a.416.416 0 000-.833zM3.978 10.09h4.088a.416.416 0 000-.832H3.978a.416.416 0 000 .833zM20.023 11.526h-5.854a.416.416 0 000 .832h5.854a.416.416 0 100-.832zM3.978 12.358h8.804a.416.416 0 000-.832H3.978a.416.416 0 000 .832z" fill="#000"/>
</svg>
