<svg width="24" height="24" fill="none" xmlns="http://www.w3.org/2000/svg">
  <defs/>
  <path d="M15.552 1.303L12 11.419l-3.473 9.89a2.074 2.074 0 01-1.958 1.388H.936L8.448 1.303h7.104z" fill="#518EF8"/>
  <path d="M15.552 1.303l7.512 21.394h-5.633a2.074 2.074 0 01-1.958-1.387L12 11.419l3.552-10.116z" fill="#28B446"/>
  <path d="M23.475 22.553L15.963 1.159a.434.434 0 00-.411-.292H8.448a.435.435 0 00-.411.292L.525 22.553a.436.436 0 00.41.58h5.633a2.513 2.513 0 002.37-1.68L12 12.733l3.062 8.72a2.513 2.513 0 002.369 1.68h5.634a.435.435 0 00.41-.58zm-15.36-1.388a1.641 1.641 0 01-1.547 1.096H1.55L8.756 1.738h6.181l-3.348 9.536-3.474 9.891zm9.316 1.096c-.695 0-1.317-.44-1.547-1.096l-3.422-9.746 3.09-8.802 6.898 19.644h-5.019z" fill="#333"/>
</svg>
