<svg width="24" height="24" fill="none" xmlns="http://www.w3.org/2000/svg">
  <defs/>
  <path d="M18.362 2.335a.367.367 0 11.734 0h.734a.367.367 0 11.734 0v4.771h.734V1.234H18.73a.367.367 0 01-.367-.367h-.734v1.468h.734zM17.628 22.766h3.67v-3.06c-.213.161-.463.276-.734.331v1.628a.367.367 0 11-.734 0h-.734a.367.367 0 11-.734 0h-.734v1.1zM20.564 13.994c.27.056.52.17.733.332v-1.103h-.733v.771z" fill="#185F8D"/>
  <path d="M19.83 20.075h-.734v1.59h.734v-1.59zM19.096 13.957h.734v-1.1c0-.203.164-.367.367-.367h1.468c.607 0 1.1-.495 1.1-1.102V8.942c0-.608-.493-1.101-1.1-1.101h-1.468a.367.367 0 01-.367-.368V2.335h-.734v11.622z" fill="#FFCC75"/>
  <path d="M22.032 7.143V.867A.367.367 0 0021.665.5h-2.936a.367.367 0 100 .734h2.569v5.872h-.734v-4.77a.367.367 0 10-.734 0v5.137c0 .203.164.367.367.367h1.468c.607 0 1.101.494 1.101 1.101v2.447c0 .607-.494 1.101-1.101 1.101h-1.468a.367.367 0 00-.367.367v1.101h-.734V2.335a.367.367 0 10-.734 0v11.99c0 .202.164.367.367.367h1.468c.607 0 1.1.493 1.1 1.1v2.447c0 .607-.493 1.101-1.1 1.101h-1.468a.367.367 0 00-.367.367v1.958a.367.367 0 10.734 0v-1.59h.734v1.59a.367.367 0 10.734 0v-1.627c.27-.056.52-.17.734-.332v3.06h-3.67V.867A.367.367 0 0017.26.5H2.824a.367.367 0 00-.367.367V2.09h-.856C.994 2.09.5 2.584.5 3.191c0 .608.494 1.102 1.101 1.102h.856v3.67h-.856a1.102 1.102 0 000 2.202h.856v3.67h-.856C.994 13.835.5 14.33.5 14.936s.494 1.101 1.101 1.101h.856v3.67h-.856a1.102 1.102 0 000 2.203h.856v1.223c0 .203.165.367.367.367h18.84a.367.367 0 00.368-.367v-9.946a1.838 1.838 0 001.468-1.799V8.941c0-.886-.631-1.627-1.468-1.798zm-.734 7.183a1.826 1.826 0 00-.734-.332v-.77h.734v1.101zM1.234 20.808c0-.202.165-.366.367-.366h2.447a.367.367 0 010 .733H1.6a.367.367 0 01-.367-.367zm1.957 1.102h.857a1.102 1.102 0 000-2.202H3.19v-3.67h.857a1.102 1.102 0 000-2.203H3.19v-3.67h.857c.607 0 1.1-.494 1.1-1.101s-.493-1.101-1.1-1.101H3.19v-3.67h.857a1.102 1.102 0 000-2.202H3.19v-.857h13.703v21.532H3.19v-.856zm-1.957-6.974c0-.202.165-.367.367-.367h2.447a.367.367 0 010 .734H1.6a.367.367 0 01-.367-.367zm0-5.872c0-.203.165-.367.367-.367h2.447a.367.367 0 010 .734H1.6a.367.367 0 01-.367-.367zm0-5.873c0-.202.165-.367.367-.367h2.447a.367.367 0 010 .735H1.6a.367.367 0 01-.367-.368z" fill="#082947"/>
  <path d="M17.628 21.665h.734v-1.957c0-.203.164-.367.367-.367h1.468c.607 0 1.101-.494 1.101-1.102v-2.446c0-.607-.494-1.101-1.1-1.101h-1.469a.367.367 0 01-.367-.367V2.335h-.734v19.33z" fill="#F2EBD9"/>
  <path d="M16.893 1.234H3.191v.857h.857c.607 0 1.1.493 1.1 1.1 0 .608-.493 1.102-1.1 1.102H3.19v3.67h.857a1.102 1.102 0 010 2.202H3.19v3.67h.857c.607 0 1.1.494 1.1 1.101s-.493 1.101-1.1 1.101H3.19v3.67h.857a1.102 1.102 0 010 2.203H3.19v.856h13.703V1.234z" fill="#6DA8D6"/>
  <path d="M4.048 21.175a.367.367 0 000-.734H1.601a.367.367 0 000 .734h2.447zM4.048 15.303a.367.367 0 000-.734H1.601a.367.367 0 000 .734h2.447zM4.048 9.43a.367.367 0 000-.733H1.601a.367.367 0 000 .734h2.447zM4.048 3.559a.367.367 0 000-.735H1.601a.367.367 0 000 .735h2.447z" fill="#98D9D5"/>
</svg>
