<svg width="24" height="24" fill="none" xmlns="http://www.w3.org/2000/svg">
  <defs/>
  <path d="M19.72 6.598a4.358 4.358 0 00-8.263 0 4.365 4.365 0 011.05-4.472 4.359 4.359 0 017.214 4.473z" fill="#D82E3D"/>
  <path d="M10.202 12.31l2.224 2.223 3.163-3.162 3.082-3.082a4.345 4.345 0 001.276-3.082c0-1.115-.425-2.23-1.276-3.082A4.342 4.342 0 0015.649.85c.624.014 1.243.26 1.718.736.492.49.738 1.135.738 1.779 0 .644-.246 1.288-.738 1.779l-1.778 1.78-2.224 2.223-3.163 3.163z" fill="#D82E3D"/>
  <path d="M20.975 12.31l-2.223 2.223-3.163-3.162-3.082-3.082a4.345 4.345 0 01-1.277-3.082c0-1.115.426-2.23 1.277-3.082A4.342 4.342 0 0115.528.85a2.505 2.505 0 00-1.718.736 2.507 2.507 0 00-.737 1.779c0 .644.246 1.288.737 1.779l1.778 1.78 2.225 2.223 3.162 3.163z" fill="#DA4A54"/>
  <path d="M22.616 16.834l-5.864 4.703c-.482.387-1.1.563-1.714.488l-7.902-.962-2.106.78c-1.13-1.164-.666-4.907-.666-4.907l.502-.137a1.901 1.901 0 011.062-1.832l3.389-1.655 1.743-.85a1.656 1.656 0 011.578 2.909L9.82 17.057l4.74.826c.571.099 1.158-.021 1.644-.337l4.715-3.06a1.45 1.45 0 011.697 2.347z" fill="#F1D0A5"/>
  <path d="M15.025 20.762c-3.246.422-5.484-1.482-6.838-3.273a1.909 1.909 0 01.492-2.76c3.27-2.095 4.115-2.018 4.563-1.57a1.656 1.656 0 00-2.182-.698l-1.743.851-2.747 1.342-.642.313A1.9 1.9 0 004.866 16.8l-.502.137s-.465 3.743.666 4.906l2.106-.778 7.902.961a2.295 2.295 0 001.714-.487l5.863-4.704c-2.026-.55-5.403 3.593-7.59 3.928z" fill="#F1B986"/>
  <path d="M3.663 16.465a6.832 6.832 0 00-2.822.997 55.32 55.32 0 002.01 5.69 6.832 6.832 0 002.822-.998 55.331 55.331 0 00-2.01-5.689z" fill="#80A6C6"/>
  <path d="M5.673 22.154a6.82 6.82 0 01-2.822.997 55.858 55.858 0 01-.582-1.46 7.263 7.263 0 002.944-1.03c.16.495.314.993.46 1.493z" fill="#5B8EB8"/>
  <path d="M23.436 15.228a1.791 1.791 0 00-2.703-1.027l-4.714 3.06c-.415.27-.912.372-1.4.287l-3.837-.668 2.03-1.218a1.992 1.992 0 00.953-1.986l1.824-1.823 2.922 2.922a.34.34 0 00.482 0l2.224-2.224a.341.341 0 000-.482l-2.922-2.922.617-.617c.202-.201.385-.421.546-.653a.34.34 0 00-.561-.388 4.041 4.041 0 01-.467.56l-.617.616-1.742-1.742 1.538-1.538a2.861 2.861 0 00.551-3.264 4.109 4.109 0 01.28.256 4.016 4.016 0 01.996 3.993.341.341 0 00.653.196A4.696 4.696 0 0018.9 1.874 4.667 4.667 0 0015.589.508a4.669 4.669 0 00-3.323 1.377 4.669 4.669 0 00-1.376 3.322c0 1.256.489 2.436 1.376 3.323l.617.617-2.922 2.922a.34.34 0 000 .482l.046.045-3.615 1.766a.341.341 0 00.299.613l4.518-2.207a1.312 1.312 0 011.733.554 1.312 1.312 0 01-.48 1.756l-2.817 1.688a.34.34 0 00.117.628l4.74.826a2.631 2.631 0 001.888-.386l4.715-3.061a1.116 1.116 0 011.674.636 1.11 1.11 0 01-.377 1.16l-5.863 4.703c-.408.327-.94.478-1.46.415l-7.902-.962a.34.34 0 00-.16.019l-1.272.47a56.053 56.053 0 00-1.38-3.923l.592-.164a.34.34 0 00.249-.35c-.028-.431.125-.858.421-1.172a.34.34 0 10-.496-.468 2.25 2.25 0 00-.606 1.402l-.416.116a51.139 51.139 0 00-.131-.32.341.341 0 00-.357-.208 7.2 7.2 0 00-2.96 1.046.341.341 0 00-.147.385 55.91 55.91 0 002.022 5.724.34.34 0 00.356.208 7.204 7.204 0 002.961-1.047.341.341 0 00.147-.385l-.056-.19 1.233-.456 7.82.951a2.65 2.65 0 001.969-.56l5.852-4.694.011-.009a1.791 1.791 0 00.607-1.872zM15.59 6.441l-1.538-1.538a2.167 2.167 0 01-.35-.46 4.03 4.03 0 013.777 0c-.094.164-.21.32-.35.46L15.588 6.44zM17.72 3.8a4.716 4.716 0 00-4.26 0 2.174 2.174 0 114.26 0zm-6.147 1.407a3.991 3.991 0 011.446-3.086 2.861 2.861 0 00.551 3.264l6.925 6.925-1.742 1.741-6.004-6.003a3.99 3.99 0 01-1.176-2.84zm-.311 6.816c-.12.032-.238.077-.351.132l-.138.067 2.594-2.593 1.74 1.742-1.587 1.587a1.987 1.987 0 00-2.258-.935zM3.065 22.776a55.257 55.257 0 01-1.822-5.157 6.508 6.508 0 012.206-.78 55.276 55.276 0 011.822 5.158 6.505 6.505 0 01-2.206.78z" fill="#000"/>
  <path d="M11.397 15.28c.139 0 .279-.033.41-.103l.422-.225a.341.341 0 00-.32-.602l-.423.226a.184.184 0 01-.238-.058c-.283-.422-.372-.853-.373-.861a.34.34 0 00-.67.129c.005.023.112.568.477 1.112a.858.858 0 00.715.382zM3.816 21.87a.344.344 0 00.332-.266c.07-.3-.282-.528-.53-.352a.344.344 0 00-.12.4c.05.13.178.218.318.218z" fill="#000"/>
</svg>
