<svg width="24" height="24" fill="none" xmlns="http://www.w3.org/2000/svg">
  <defs/>
  <g fill-rule="evenodd" clip-rule="evenodd">
    <path d="M19.553 6.49l-1.374-.724-1.375.725v2.526l1.506 1.03 1.244-1.03V6.49zM21.399 14.89l-6.204-1.211-5.788 1.211v6.833l5.959.719 6.033-.72V14.89z" fill="#ECECEC"/>
    <path d="M17.413 11.864h-4.02l-.86 1.513.86 1.513h4.02l.896-1.513-.896-1.513z" fill="#A6E7F0"/>
    <path d="M13.393 11.864H9.408l-1.1 1.582 1.1 1.444h3.985v-3.026zM17.414 11.864H21.4v3.026h-3.986v-3.026zM10.136 5.773L5.974 5l-3.656.773.728 3.243 2.928.808 3.434-.808.728-3.243z" fill="#A6E7F0"/>
    <path d="M8.366 3.88H1.748a.281.281 0 00-.28.281v1.33c0 .156.125.282.28.282h8.958a.283.283 0 00.282-.281v-1.33a.282.282 0 00-.282-.282h-2.34z" fill="#FFD659"/>
    <path d="M21.918 9.017H9.408l-1.1 1.62 1.1 1.227 6.649.99 5.343-.99h.518c.35 0 .636-.287.636-.636V9.653a.637.637 0 00-.636-.636z" fill="#838383"/>
    <path d="M19.332 5.04h-2.969c-.4 0-.725.326-.725.726 0 .398.325.725.725.725h3.631c.4 0 .726-.327.726-.725 0-.4-.326-.725-.726-.725h-.662z" fill="#FFD659"/>
    <path d="M10.987 4.161a.282.282 0 00-.282-.281h-.871c.155 0 .282.126.282.281v1.33a.282.282 0 01-.282.282h.871a.282.282 0 00.282-.281v-1.33z" fill="#FFBF00"/>
    <path d="M9.835 5.773H2.318l.211.939h6.013c.451 0 .442.313.354.704l-.36 1.6h.872l.728-3.243h-.301z" fill="#6BD9E7"/>
    <path d="M16.769 18.482h-2.73a.461.461 0 00-.46.46v2.781l1.824.637 1.826-.637v-2.78a.461.461 0 00-.46-.46z" fill="#838383"/>
    <path d="M16.085 11.864h3.986v3.026h-3.986v-3.026z" fill="#A6E7F0"/>
    <path d="M20.72 5.765c0-.399-.326-.725-.726-.725H18.665c.4 0 .725.326.725.725a.727.727 0 01-.725.726h1.329c.4 0 .725-.327.725-.726z" fill="#FFBF00"/>
    <path d="M19.154 6.49h-.929v2.527h1.329V6.49h-.4z" fill="#CECECE"/>
    <path d="M21.918 9.017h-1.33c.351 0 .637.285.637.636v1.575a.638.638 0 01-.636.636H21.918c.35 0 .636-.287.636-.636V9.653a.637.637 0 00-.636-.636z" fill="#595959"/>
    <path d="M21.4 14.89h-1.33v6.833H21.4V14.89z" fill="#CECECE"/>
    <path d="M9.407 11.864H21.4v3.026H20.07v-.93c0-.493.06-.868-.455-.868H9.407v-1.228z" fill="#6BD9E7"/>
    <path d="M16.769 18.482h-2.73a.461.461 0 00-.46.46v.659c0-.254.206-.46.46-.46h2.73c.253 0 .46.206.46.46v-.658a.461.461 0 00-.46-.46z" fill="#595959"/>
    <path d="M5.974 9.017H3.046v12.706l3.05.732 3.312-.732V9.017H5.974z" fill="#ECECEC"/>
    <path d="M9.407 21.723H2.164a.72.72 0 00-.719.719.72.72 0 00.72.718h19.67a.721.721 0 00.719-.718.721.721 0 00-.719-.72H9.407z" fill="#03BED7"/>
    <path d="M9.407 9.017h-.87v12.706h.87V9.017z" fill="#CECECE"/>
    <path d="M7.224 18.482H5.386a.466.466 0 00-.464.465v2.776l1.383.562 1.383-.562v-2.776a.466.466 0 00-.464-.465z" fill="#838383"/>
    <path d="M22.554 22.442a.721.721 0 00-.72-.72h-1.328a.722.722 0 01.719.72.721.721 0 01-.72.718h1.33a.721.721 0 00.719-.718z" fill="#0099B1"/>
    <path d="M7.224 18.482H5.386a.466.466 0 00-.464.465v.79c0-.255.21-.463.464-.463h1.838c.255 0 .464.208.464.463v-.79a.466.466 0 00-.464-.465z" fill="#595959"/>
  </g>
  <path d="M21.4 18.027a.34.34 0 00.34-.34v-5.483h.178a.977.977 0 00.976-.976V9.653a.977.977 0 00-.976-.976h-2.025V6.83h.102a1.066 1.066 0 000-2.129h-.323v-.948a.34.34 0 00-.679 0v.948h-1.062V1.94a.34.34 0 10-.679 0v2.762h-.889a1.066 1.066 0 000 2.13h.102v1.846H9.832l.576-2.564h.298a.622.622 0 00.621-.621v-1.33a.622.622 0 00-.62-.622H8.705v-.946a.34.34 0 10-.68 0v.946H6.568v-.887a.34.34 0 10-.679 0v.887H4.825V.84a.34.34 0 00-.68 0v2.7H1.749a.621.621 0 00-.62.622v1.33c0 .342.279.62.62.62h.299l.66 2.942v12.33h-.542a1.06 1.06 0 00-1.059 1.058A1.06 1.06 0 002.165 23.5h19.67a1.06 1.06 0 001.059-1.058 1.06 1.06 0 00-1.058-1.058h-.097v-2.117a.34.34 0 00-.678 0v2.117h-3.492v-2.441a.8.8 0 00-.8-.8h-2.73a.8.8 0 00-.8.8v2.44H9.748V15.23H21.06v2.458c0 .187.152.339.34.339zM16.363 6.151a.386.386 0 010-.771h3.632a.386.386 0 010 .771h-3.632zm2.851.68v1.846h-2.07V6.83h2.07zm3 15.61c0 .21-.17.38-.378.38H2.165a.38.38 0 010-.758h19.671c.209 0 .379.17.379.379zM7.35 21.385H5.262v-2.437c0-.068.057-.125.124-.125h1.839c.067 0 .124.057.124.125v2.437zm6.57-2.441c0-.066.054-.121.12-.121h2.73c.066 0 .121.055.121.12v2.442h-2.972v-2.441zm-5.89 2.44v-2.436a.804.804 0 00-.804-.804H5.386a.804.804 0 00-.803.804v2.437H3.386V9.356h1.836a.34.34 0 100-.679H3.318l-.575-2.564h6.969l-.576 2.564H6.845a.34.34 0 100 .68h2.224v12.027h-1.04zM2.314 5.434l-.003.001h-.505V4.219h8.841v1.215H2.315zm10.74 9.118H9.747v-2.347h3.306v2.347zm4.02 0h-3.342v-2.347h3.342v2.347zm-3.681-3.026H9.748V9.356h12.17c.164 0 .297.133.297.297v1.575a.297.297 0 01-.297.297h-8.524zm4.36 3.026v-2.347h3.306v2.347h-3.306z" fill="#000"/>
</svg>
