<svg width="24" height="24" fill="none" xmlns="http://www.w3.org/2000/svg">
  <defs/>
  <path d="M19.62 2.907h-9.186A9.092 9.092 0 1019.527 12a9.054 9.054 0 00-1.964-5.645h2.056V2.907z" fill="#DAE4EA"/>
  <path d="M17.73 11.101A9.092 9.092 0 015.5 19.639 9.092 9.092 0 0017.562 6.355h-1.168a9.05 9.05 0 011.335 4.746z" fill="#C6D0DA"/>
  <path d="M10.434 17.645a5.645 5.645 0 100-11.29 5.645 5.645 0 000 11.29z" fill="#707DD3"/>
  <path d="M12.019 6.58a5.645 5.645 0 01-4.965 9.94 5.645 5.645 0 104.965-9.94z" fill="#5766CB"/>
  <path d="M10.434 15.96a3.96 3.96 0 100-7.92 3.96 3.96 0 000 7.92z" fill="#808B95"/>
  <path d="M11.248 8.124a3.96 3.96 0 01-3.424 6.854 3.96 3.96 0 103.424-6.854z" fill="#5E6B75"/>
  <path d="M10.434 14.556a2.556 2.556 0 100-5.112 2.556 2.556 0 000 5.112z" fill="#E28086"/>
  <path d="M11.105 9.533a2.556 2.556 0 01-2.688 4.035 2.556 2.556 0 102.688-4.035z" fill="#DD636E"/>
  <path d="M19.62 6.752l2.194.222V2.289l-2.195.222v4.24z" fill="#707DD3"/>
  <path d="M20.691 2.402v2.832a.76.76 0 01-.837.757l-.235-.024v.785l2.195.222V2.289l-1.123.113z" fill="#5766CB"/>
  <path d="M21.814 1.989h1.35v5.285h-1.35V1.989z" fill="#707DD3"/>
  <g fill="#808B95">
    <path d="M19.173 15.059a1.728 1.728 0 00-.146-.076 9.082 9.082 0 01-1.715 2.966 1.72 1.72 0 101.86-2.89zM10.434 21.093a9.144 9.144 0 01-1.712-.16 1.72 1.72 0 103.426 0 9.144 9.144 0 01-1.714.16zM1.843 14.984a1.72 1.72 0 101.715 2.966 9.085 9.085 0 01-1.715-2.966zM1.843 9.018a9.083 9.083 0 011.715-2.965 1.72 1.72 0 10-1.715 2.965zM10.434 2.908h1.721v-.003a1.72 1.72 0 10-3.433.164 9.14 9.14 0 011.713-.16z"/>
  </g>
  <path d="M16.706 8.73a.593.593 0 100-1.185.593.593 0 000 1.185z" fill="#E28086"/>
  <path d="M18.242 2.907h1.377v3.448h-1.377V2.907z" fill="#808B95"/>
  <path d="M11.307 8.483a.337.337 0 10.162-.654A4.302 4.302 0 006.136 12a4.302 4.302 0 004.298 4.297A4.302 4.302 0 0014.73 12c0-1.355-.62-2.603-1.7-3.423a.337.337 0 10-.407.536 3.595 3.595 0 011.418 2.55h-.735a2.899 2.899 0 00-2.536-2.537v-.734c.181.017.36.047.536.09zm-1.21-.09v.733a2.899 2.899 0 00-2.537 2.537h-.734a3.63 3.63 0 013.27-3.27zm.72 3.607a.384.384 0 11-.768-.001.384.384 0 01.769.001zm-2.602 0c0-.284.053-.555.15-.805l1.032.595a1.06 1.06 0 000 .42l-1.031.595A2.209 2.209 0 018.215 12zm1.52-.793l-1.032-.595a2.22 2.22 0 011.394-.806v1.192a1.056 1.056 0 00-.362.21zm0 1.586c.104.092.227.164.362.21v1.19a2.22 2.22 0 01-1.394-.805l1.032-.595zm1.036.21a1.06 1.06 0 00.362-.21l1.031.595a2.22 2.22 0 01-1.393.806v-1.192zM12.653 12c0 .284-.054.555-.151.805l-1.032-.596a1.055 1.055 0 000-.418l1.032-.596c.097.25.151.521.151.805zm-5.827.337h.734a2.899 2.899 0 002.537 2.537v.734a3.63 3.63 0 01-3.27-3.271zm3.945 3.27v-.733a2.899 2.899 0 002.536-2.537h.734a3.63 3.63 0 01-3.27 3.27zm1.393-4.995l-1.031.595a1.059 1.059 0 00-.362-.21v-1.19a2.22 2.22 0 011.393.805z" fill="#000"/>
  <path d="M23.163 1.652h-1.349a.337.337 0 00-.337.332l-1.892.191a.337.337 0 00-.303.336v.06h-4.017a.337.337 0 100 .673h2.64v2.774h-7.47a5.982 5.982 0 00-2.138 11.57.337.337 0 00.24-.63A5.308 5.308 0 1115.742 12a5.314 5.314 0 01-5.74 5.29.337.337 0 10-.054.672A5.989 5.989 0 0016.416 12c0-2.305-1.31-4.31-3.225-5.308h4.207A8.66 8.66 0 0119.19 12c0 4.76-3.86 8.756-8.76 8.756-4.796 0-8.751-3.904-8.751-8.756 0-4.822 3.92-8.756 8.755-8.756h3.258a.337.337 0 100-.674h-1.227a2.06 2.06 0 00-2.03-1.723A2.06 2.06 0 008.38 2.796 9.433 9.433 0 003.496 5.62a2.06 2.06 0 00-2.72.802 2.06 2.06 0 00.66 2.754A9.396 9.396 0 001.005 12c0 .983.151 1.93.431 2.822a2.059 2.059 0 002.06 3.556 9.433 9.433 0 004.884 2.826 2.06 2.06 0 002.054 1.95 2.06 2.06 0 002.055-1.95 9.433 9.433 0 004.884-2.825 2.059 2.059 0 002.06-3.556c.28-.892.43-1.84.43-2.823a9.32 9.32 0 00-1.633-5.308h1.053v.06c0 .173.13.317.303.335l1.892.191a.337.337 0 00.336.333h1.35c.185 0 .336-.151.336-.337V1.989a.337.337 0 00-.337-.337zM9.071 2.668a1.386 1.386 0 011.363-1.147c.649 0 1.195.448 1.344 1.05-1.07.015-1.701-.048-2.707.097zM1.359 6.76a1.385 1.385 0 011.676-.607A9.361 9.361 0 001.67 8.514a1.386 1.386 0 01-.311-1.754zm0 10.48a1.386 1.386 0 01.311-1.754c.338.85.795 1.64 1.365 2.36a1.386 1.386 0 01-1.676-.606zm10.439 4.091a1.386 1.386 0 01-1.364 1.148 1.386 1.386 0 01-1.363-1.148 9.448 9.448 0 002.339.048l.02-.002c.123-.013.245-.028.368-.046zm7.712-4.091a1.386 1.386 0 01-1.677.606 9.364 9.364 0 001.366-2.36c.217.18.374.424.449.704.096.357.046.73-.138 1.05zm-.93-11.222V3.244h.703v2.774h-.704zm1.376-3.203l1.521-.154v3.94l-1.52-.154V2.815zm2.87 4.122h-.675V2.326h.675v4.61z" fill="#000"/>
  <path d="M17.636 8.137a.93.93 0 00-1.86 0 .93.93 0 001.86 0zm-.93.256a.256.256 0 110-.512.256.256 0 010 .512zM12.653 4.631c0 .186.151.337.337.337h3.716a.337.337 0 000-.674H12.99a.337.337 0 00-.337.337z" fill="#000"/>
</svg>
