<svg width="24" height="24" fill="none" xmlns="http://www.w3.org/2000/svg">
  <defs/>
  <path d="M10.734 11.096l-.8-1.385-1.515.875.294.51H6.78l-.602 2.246H3.344v1.377h.37c.53 0 .915.502.778 1.013L2.5 23.163h3.66l.694-2.592 1.062-.27a.737.737 0 00.555-.715v-.244H6.246l.79-2.949h.938v-1.675h2.27v-1.804a.562.562 0 001.125 0v1.804h1.348v-3.622h-1.983z" fill="#808B95"/>
  <path d="M10.92 11.096v2.37a.562.562 0 00.45-.552v1.804h1.347v-3.622H10.92zM7.974 16.393v-1.675h2.27v-.898H8.057c-.716 0-1.344.481-1.529 1.173l-1.702 6.352c-.145.542-.637.92-1.199.92h-.884l-.241.898h3.66l.694-2.592 1.062-.27a.737.737 0 00.555-.715v-.244H6.246l.79-2.95h.938z" fill="#5E6B75"/>
  <path d="M7.974 14.718h1.224v1.675H7.974v-1.675z" fill="#E7ECF1"/>
  <path d="M10.244 15.855H9.197v-1.136h1.047v1.136z" fill="#C6D0DA"/>
  <g fill="#E7ECF1">
    <path d="M6.154 15.645a.632.632 0 100-1.265.632.632 0 000 1.265zM11.37 18.895v-2.502h-1.125v2.679a.88.88 0 001.759 0v-.177h-.634zM11.371 12.952a.563.563 0 10-1.121-.094.563.563 0 001.121.094z"/>
  </g>
  <path d="M10.806 13.477a.562.562 0 01-.562-.563v3.479h1.125v-3.479c0 .31-.252.563-.563.563z" fill="#DAE4EA"/>
  <path d="M2.281 11.096h1.064v1.154H2.281v-1.154zM6.779 11.096h-1.34v1.154h1.03l.31-1.154zM6.868.915L2.333 3.533a.577.577 0 00-.212.789l.386.668 5.535-3.196-.385-.668a.577.577 0 00-.789-.211z" fill="#E7ECF1"/>
  <path d="M10.244 12.914c0-.247.16-.458.383-.533H8.738a.556.556 0 000 1.111h1.506v-.578z" fill="#5E6B75"/>
  <path d="M8.233 9.816l.38.657 1.126-.65-.38-.657.913-2.99-2.454-4.252L2.732 4.86 5.187 9.11l3.046.705z" fill="#DAE4EA"/>
  <path d="M10.272 6.176L7.817 1.924l-.959.553 1.51 2.615a.492.492 0 01.044.39l-.788 2.581a.492.492 0 00.045.39l.027.046a.491.491 0 01-.18.671l-.593.343 1.31.303.38.657 1.125-.65-.38-.657.914-2.99z" fill="#C6D0DA"/>
  <path d="M12.717 11.096h2.315v3.622h-2.315v-3.622z" fill="#DAE4EA"/>
  <path d="M14.134 11.096v2.17a.553.553 0 01-.553.554h-.864v.898h2.315v-3.622h-.898z" fill="#C6D0DA"/>
  <path d="M17.625 12.363h-.938a1.593 1.593 0 00-1.496-1.048h-.159V14.5h.159c.665 0 1.236-.408 1.474-.989h.96v-1.147z" fill="#DAE4EA"/>
  <path d="M16.726 12.363v.021c0 .25-.202.453-.452.453h-.231a.452.452 0 00-.387.218c-.15.248-.366.452-.624.587v.857h.159c.665 0 1.236-.409 1.473-.989h.96v-1.147h-.898z" fill="#C6D0DA"/>
  <path d="M6.153 14.044a.97.97 0 000 1.938.97.97 0 000-1.938zm0 1.264a.296.296 0 110-.591.296.296 0 010 .591z" fill="#000"/>
  <path d="M17.624 12.027h-.717a1.938 1.938 0 00-1.557-1.042.337.337 0 00-.318-.226h-.829a.337.337 0 00-.658 0h-2.617l-.703-1.217a.337.337 0 00-.353-.163l-.148-.255.87-2.85a.337.337 0 00-.03-.267L9.34 3.887a.337.337 0 10-.583.337l1.15 1.993-.87 2.85a.337.337 0 00.03.267l.212.366-.543.313-.211-.365a.337.337 0 00-.216-.16l-2.903-.672-2.213-3.833 4.501-2.599.252.436a.337.337 0 10.583-.337l-.256-.444a.337.337 0 00.061-.414L7.95.957A.914.914 0 006.7.623L2.164 3.242A.914.914 0 001.83 4.49l.385.668c.08.137.242.199.39.154l2.29 3.968c.047.08.125.139.216.16l2.904.671.147.256a.337.337 0 00-.036.387l.003.005H5.44a.337.337 0 00-.337.337v.195h-.373v-.195a.337.337 0 00-.674 0v.195h-.373v-.195a.337.337 0 00-.337-.337H2.281a.337.337 0 00-.337.337v1.154c0 .186.151.337.337.337h1.064c.187 0 .337-.15.337-.337v-.285h.373v.195a.337.337 0 00.674 0v-.195h.373v.285c0 .186.15.337.337.337h.592l-.112.418H3.343a.337.337 0 00-.337.337v1.377c0 .186.151.337.337.337h.37c.309 0 .533.292.453.59l-1.99 7.43a.337.337 0 00.324.424h3.66a.337.337 0 00.325-.25l.643-2.4.872-.223c.476-.121.808-.55.808-1.04v-.245a.337.337 0 00-.337-.337H6.685l.61-2.275h1.903c.186 0 .337-.15.337-.337v-.201h.372v1.138a.337.337 0 10.674 0v-.6h.451v2.166c0 .186.15.337.337.337h.273a.543.543 0 01-1.06-.16v-.17a.337.337 0 00-.675 0v.17a1.218 1.218 0 002.433 0v-.177a.337.337 0 00-.337-.337h-.297v-3.504h1.84a.337.337 0 00.657 0h.829a.337.337 0 00.318-.225 1.921 1.921 0 001.525-.982h.75c.185 0 .336-.151.336-.337v-1.147a.337.337 0 00-.337-.338zM3.857 3.043l.337.584-.58.335-.338-.584.58-.335zm1.241-.717l.338.584-.659.38-.337-.584.658-.38zm1.164-.672l.337.584-.58.335-.337-.584.58-.335zm.775-.448a.24.24 0 01.328.088l.217.376-.399.231-.337-.584.191-.11zM2.501 3.825l.192-.11.337.584-.4.23-.217-.376a.24.24 0 01.088-.328zm.508 8.088h-.39v-.48h.39v.48zm2.767 0v-.48h.564l-.129.48h-.435zm3.085 4.143h-.55v-1h.55v1zm.674-.538v-.463h.372v.463h-.372zm1.272-2.378a.226.226 0 110-.452.226.226 0 010 .452zm-.9-.226v.242H8.74a.219.219 0 010-.438h1.19a.898.898 0 00-.022.196zm.674 3.142v-2.271a.9.9 0 00.451 0v2.271h-.45zm1.125-3.142a.9.9 0 00-1.128-.87h-1.84a.893.893 0 000 1.785h1.17v.552H7.973a.337.337 0 00-.337.337v1.338h-.601a.337.337 0 00-.326.25l-.79 2.948a.337.337 0 00.326.425h1.878a.4.4 0 01-.29.295l-1.063.271a.337.337 0 00-.242.24L5.9 22.825H2.94l.17-.638h.98a.337.337 0 100-.674H3.29l.127-.475h.98a.337.337 0 100-.674h-.799l.127-.474h.98a.337.337 0 000-.674h-.8l.128-.476h.979a.337.337 0 000-.673h-.798l.602-2.248a1.142 1.142 0 00-1.103-1.438H3.68v-.703h2.497a.337.337 0 00.326-.25l.535-1.996h1.675a.337.337 0 00.292-.505l-.127-.22.932-.537.631 1.094c.06.104.172.168.292.168h1.647v2.949h-.674v-1.468zm1.348-1.481h.483v.245a.337.337 0 00.674 0v-.245h.484v2.949h-.484V13.25a.337.337 0 00-.674 0v1.13h-.484v-2.948zm4.234 1.74h-.624a.337.337 0 00-.312.21 1.25 1.25 0 01-.983.767v-2.485a1.26 1.26 0 011.002.814.337.337 0 00.316.221h.6v.474zM20.1 12.577a.337.337 0 100 .674h1.857a.337.337 0 100-.674H20.1zM18.888 12.293l3.237-1.869a.337.337 0 00-.337-.583l-3.237 1.869a.337.337 0 00.337.583zM22.125 15.404l-3.237-1.869a.337.337 0 10-.337.584l3.238 1.869a.337.337 0 00.336-.584z" fill="#000"/>
</svg>
