<svg width="24" height="24" fill="none" xmlns="http://www.w3.org/2000/svg">
  <defs/>
  <g fill-rule="evenodd" clip-rule="evenodd">
    <path d="M21.982 4.59H2.019a1.18 1.18 0 00-1.18 1.178v12.464c0 .649.53 1.178 1.18 1.178h19.963c.648 0 1.179-.53 1.179-1.178V5.768c0-.649-.531-1.178-1.179-1.178z" fill="#ECECEC"/>
    <path d="M5.77 12.98l-1.428-.597a.822.822 0 00-.856.138l-.193.192c-.207.207-.132.365.114.506l1.347 1.017 1.004-.368.013-.887zM6.98 14.186l-.903.05-.354.967L6.76 16.57c.143.245.3.32.507.113l.194-.192a.82.82 0 00.136-.856l-.618-1.448zM10.24 11.552l-1.33.217-.39 1.171 1.752 2.947c.182.314.383.41.65.145l.35-.352c.182-.18.361-.628.177-1.093l-1.21-3.035zM8.4 9.736L5.36 8.53c-.465-.184-.914-.005-1.095.175l-.351.351c-.266.266-.171.467.145.649l2.95 1.75 1.512-.638-.121-1.08z" fill="#03BED7"/>
    <path d="M19.867 8.583h-4.96a.666.666 0 00-.663.664v1.115c0 .365.3.662.663.662h4.96a.664.664 0 00.664-.662V9.247a.665.665 0 00-.664-.664z" fill="#FFD659"/>
    <path d="M19.868 8.583h-1.42c.366 0 .663.299.663.664v1.115a.664.664 0 01-.663.662h1.42a.664.664 0 00.663-.662V9.247a.665.665 0 00-.663-.664z" fill="#FFBF00"/>
    <path d="M21.48 5.767v12.465c0 .648-.531 1.177-1.18 1.177h1.683c.648 0 1.178-.529 1.178-1.177V5.767c0-.648-.53-1.177-1.178-1.177H20.3c.648 0 1.179.529 1.179 1.177z" fill="#CECECE"/>
    <path d="M5.77 12.98l-1.016 1.256-.228.28c-.306.304-.233.694-.007.92.228.226.617.3.922-.006l.281-.227 1.258-1.017 1.54-1.246 1.72-1.388.659-.533c.53-.428.81-.88.906-1.296.117-.498.176-1.151-.12-1.443-.292-.296-.947-.236-1.446-.119-.415.097-.867.376-1.296.905l-.543.67-1.392 1.718-1.237 1.527z" fill="#A6E7F0"/>
    <path d="M11.686 8.28c-.107-.107-.261-.167-.438-.195.14.332.083.84-.012 1.243-.096.416-.376.866-.906 1.295l-5.458 4.411a.634.634 0 01-.491.202.684.684 0 00.139.2c.228.226.616.3.921-.006l.282-.227 1.257-1.017 3.92-3.167c.529-.428.809-.88.905-1.295.118-.499.176-1.152-.12-1.443z" fill="#6BD9E7"/>
  </g>
  <path d="M21.982 4.251h-8.427a.34.34 0 100 .679h8.427a.84.84 0 01.84.838v12.464a.84.84 0 01-.84.838H2.018a.84.84 0 01-.839-.838V5.768a.84.84 0 01.84-.838h9.98a.34.34 0 000-.679H2.02A1.52 1.52 0 00.5 5.768v12.464a1.52 1.52 0 001.518 1.517h19.964a1.52 1.52 0 001.518-1.517V5.768a1.52 1.52 0 00-1.518-1.517z" fill="#000"/>
  <path d="M11.112 11.284c.547-.443.9-.955 1.023-1.482.136-.576.209-1.348-.208-1.76-.415-.419-1.19-.346-1.765-.21-.527.122-1.04.475-1.483 1.021l-.386.477-2.809-1.115c-.568-.225-1.164-.044-1.46.25l-.35.352c-.194.192-.278.396-.25.605.044.335.36.517.46.575l2.613 1.55-.83 1.023-1.194-.5c-.47-.196-.974-.043-1.228.211l-.192.192c-.21.209-.233.407-.216.536.038.279.278.433.381.494l1.05.792a.97.97 0 00-.286.68 1.015 1.015 0 001.004.998c.23 0 .468-.085.677-.286l.815 1.072c.061.102.217.343.495.379a.541.541 0 00.07.004c.162 0 .318-.073.464-.219l.195-.193c.254-.256.406-.76.208-1.228l-.517-1.213 1.036-.837 1.55 2.606c.06.104.242.419.576.463a.582.582 0 00.078.005c.182 0 .359-.085.529-.253l.35-.351c.296-.294.478-.89.252-1.46l-1.117-2.803.465-.375zM4.227 9.41a.717.717 0 01-.11-.075.504.504 0 01.036-.039l.351-.351c.088-.087.393-.234.73-.1l2.611 1.036-.916 1.131-2.702-1.602zm-.652 3.514l-.009-.005.159-.159c.05-.05.26-.159.486-.064l1.01.423-.525.648-1.085-.82a.34.34 0 00-.036-.023zm3.71 2.842a.485.485 0 01-.063.483l-.161.16-.007-.011a.348.348 0 00-.023-.035l-.84-1.104.653-.527.44 1.034zm3.848-1.055c.134.338-.012.641-.1.729l-.351.351a.508.508 0 01-.04.036.729.729 0 01-.078-.114L8.963 13.02l1.131-.914 1.039 2.606zm-.448-3.956l-.656.53-.008.006-1.7 1.374a.349.349 0 00-.03.024l-3.064 2.476a.346.346 0 00-.027.024c-.212.213-.405.042-.441.006a.322.322 0 01-.098-.22c0-.077.035-.15.104-.218a.376.376 0 00.024-.027l1.239-1.528.007-.01 1.237-1.526.003-.003 1.932-2.383c.346-.428.73-.7 1.11-.789.26-.061.481-.087.659-.087.241 0 .402.048.47.118.119.116.173.509.028 1.124-.088.38-.361.762-.79 1.109zM14.196 13.144h6.42a.34.34 0 100-.679h-6.42a.34.34 0 000 .68zM14.196 15.049h6.42a.34.34 0 100-.68h-6.42a.34.34 0 100 .68zM14.196 16.953h6.42a.34.34 0 000-.679h-6.42a.34.34 0 100 .68zM13.904 10.363c0 .552.45 1.001 1.003 1.001h1.795a.34.34 0 100-.679h-1.795a.324.324 0 01-.324-.322V9.247c0-.175.149-.324.324-.324h4.96c.179 0 .324.146.324.324v1.116a.324.324 0 01-.324.322h-1.61a.34.34 0 100 .68h1.61c.553 0 1.003-.45 1.003-1.002V9.247c0-.553-.45-1.003-1.003-1.003h-4.96c-.553 0-1.003.45-1.003 1.003v1.116zM18.432 7.195a.34.34 0 100-.678h-4.188a.34.34 0 100 .678h4.188z" fill="#000"/>
</svg>
