<svg width="24" height="24" fill="none" xmlns="http://www.w3.org/2000/svg">
  <defs/>
  <path d="M16.043 5.994c.218.032.42.086.578.211.418.334.419 1.092.752 1.51.332.416 1.072.584 1.306 1.068.23.477-.097 1.16.022 1.687.117.511.71.984.71 1.53s-.593 1.019-.71 1.53c-.12.528.208 1.21-.022 1.687-.234.484-.974.652-1.306 1.068-.333.418-.334 1.176-.752 1.51-.416.332-1.155.165-1.639.399-.476.23-.805.914-1.333 1.034-.511.116-1.103-.355-1.65-.355-.546 0-1.138.47-1.649.355-.528-.12-.857-.804-1.333-1.034-.484-.234-1.223-.067-1.639-.399-.418-.334-.418-1.092-.752-1.51-.332-.416-1.072-.584-1.306-1.068-.23-.476.098-1.159-.022-1.687-.116-.511-.71-.983-.71-1.53 0-.546.594-1.018.71-1.53.12-.528-.207-1.21.022-1.687.234-.484.974-.652 1.306-1.068.334-.418.334-1.176.752-1.51.416-.332 1.155-.165 1.64-.399.475-.23.804-.913 1.332-1.033.511-.117 1.103.354 1.65.354.546 0 1.138-.47 1.65-.354.486.11.804.701 1.225.973l1.168.248z" fill="#74C26C"/>
  <path d="M18.702 13.53c.116-.511.71-.984.71-1.53s-.594-1.019-.71-1.53c-.12-.528.207-1.21-.023-1.687-.233-.484-.973-.652-1.305-1.068-.334-.418-.335-1.176-.753-1.51-.157-.125-.36-.18-.578-.211l-.95-.202a7.196 7.196 0 01-8.036 11.52c.077.191.173.364.322.483.415.332 1.155.165 1.639.398.476.23.805.914 1.333 1.034.51.117 1.103-.354 1.65-.354.546 0 1.137.47 1.649.354.527-.12.856-.804 1.332-1.034.485-.233 1.224-.066 1.64-.398.417-.334.418-1.092.752-1.51.332-.416 1.072-.584 1.305-1.068.23-.477-.097-1.16.023-1.687z" fill="#63A65C"/>
  <g fill="#9DCB3B">
    <path d="M10.607 8.416a.876.876 0 11-1.752 0 .876.876 0 011.752 0zM12.876 1.713a.876.876 0 11-1.752 0 .876.876 0 011.752 0zM16.287 11.312a.876.876 0 11-1.752 0 .876.876 0 011.752 0zM11.113 14.64a1.382 1.382 0 11-2.763.001 1.382 1.382 0 012.763 0zM21.5 2.5a1.077 1.077 0 10-1.524 1.524A1.077 1.077 0 0021.5 2.5zM23.163 12a.876.876 0 11-1.752 0 .876.876 0 011.752 0zM21.08 19.487a1.127 1.127 0 10-1.594 1.594 1.127 1.127 0 001.595-1.594zM12.876 22.287a.876.876 0 11-1.752 0 .876.876 0 011.752 0zM5.345 18.655a.876.876 0 10-1.239 1.238.876.876 0 001.24-1.238zM2.589 12a.876.876 0 11-1.752 0 .876.876 0 011.752 0zM4.53 2.894A1.156 1.156 0 102.893 4.53 1.156 1.156 0 004.53 2.894z"/>
  </g>
  <path d="M10.944 8.416c0-.67-.544-1.213-1.213-1.213-.668 0-1.212.544-1.212 1.213s.544 1.213 1.212 1.213c.67 0 1.213-.544 1.213-1.213zm-1.752 0a.54.54 0 111.08.001.54.54 0 01-1.08-.001zM14.198 11.311c0 .67.544 1.213 1.213 1.213s1.213-.544 1.213-1.213c0-.668-.544-1.213-1.213-1.213s-1.213.544-1.213 1.213zm1.213-.539a.54.54 0 11-.001 1.08.54.54 0 01.001-1.08zM8.013 14.64a1.72 1.72 0 001.718 1.72 1.72 1.72 0 001.719-1.72 1.72 1.72 0 00-1.719-1.718 1.72 1.72 0 00-1.718 1.719zm1.718-1.044a1.046 1.046 0 010 2.09 1.046 1.046 0 010-2.09z" fill="#000"/>
  <path d="M22.287 10.787c-.55 0-.996.374-1.145.876h-1.476c-.19-.629-.559-.93-.636-1.268-.1-.445.238-1.166-.047-1.758-.288-.595-1.072-.788-1.346-1.132-.088-.11-.15-.277-.21-.455l2.596-2.596c.217.13.454.223.715.223a1.416 1.416 0 001-2.415 1.414 1.414 0 00-2 0c-.468.467-.514 1.171-.19 1.714l-2.39 2.39c-.207-.4-.47-.62-1.067-.705a.337.337 0 10-.096.666c.478.07.55.202.745.801.247.755.386.928 1.063 1.332.651.39.68.463.582 1.199-.106.8-.05 1.014.374 1.657.42.637.42.73 0 1.368-.425.645-.48.861-.374 1.657.098.737.068.81-.583 1.2-.675.403-.816.576-1.062 1.33-.234.718-.297.765-1.042.834-.793.073-.992.172-1.532.737-.526.55-.606.562-1.296.304-.277-.103-.564-.21-.87-.21-.601 0-1.21.446-1.575.363-.196-.045-.388-.245-.59-.457-.54-.563-.738-.663-1.533-.737-.745-.07-.808-.117-1.042-.833-.247-.755-.386-.928-1.062-1.332-.652-.39-.681-.463-.583-1.199.106-.795.052-1.012-.374-1.657-.42-.637-.42-.73 0-1.368.426-.645.48-.861.374-1.657-.098-.736-.069-.81.583-1.2.25-.148.507-.302.692-.534.186-.233.28-.52.37-.797.09-.276.176-.537.33-.66.151-.121.424-.146.712-.173.794-.074.993-.173 1.533-.737.525-.55.603-.562 1.295-.304.753.28.986.28 1.74 0 .85-.317.79-.177 1.493.504a.337.337 0 10.469-.483c-.06-.057-.117-.118-.18-.183-.73-.764-1.088-.816-2.018-.47a5.654 5.654 0 01-.297.104V2.858c.502-.15.876-.596.876-1.145C13.213 1.044 12.669.5 12 .5s-1.213.544-1.213 1.213c0 .55.374.996.876 1.145v1.868a5.654 5.654 0 01-.297-.103c-.93-.347-1.288-.295-2.018.47-.166.172-.322.335-.477.41-.16.077-.39.099-.631.121-.678.063-1.09.15-1.398.742L4.958 4.48c.353-.575.307-1.327-.19-1.825a1.495 1.495 0 00-2.112 0c-1.205 1.206.265 3.26 1.825 2.302L6.573 7.05c-.159.47-.219.531-.721.831-.893.534-1.039.864-.905 1.867.032.242.063.47.023.647-.077.339-.446.639-.636 1.268H2.858a1.199 1.199 0 00-1.145-.876C1.044 10.787.5 11.331.5 12s.544 1.213 1.213 1.213c.55 0 .996-.374 1.145-.876h1.476c.19.63.559.93.636 1.268.1.444-.238 1.166.047 1.758.288.595 1.072.788 1.346 1.132.088.11.15.277.21.455l-1.276 1.276a1.2 1.2 0 00-1.429.19c-.764.765-.215 2.07.858 2.07.9 0 1.502-.947 1.048-1.783l1.068-1.069c.5.963 1.503.61 2.03.863.397.192.752.91 1.404 1.059.486.11.953-.147 1.387-.282v1.868a1.199 1.199 0 00-.876 1.145c0 .669.544 1.213 1.213 1.213s1.213-.544 1.213-1.213c0-.55-.374-.996-.876-1.145v-1.868c.44.137.902.392 1.387.282.65-.148 1.01-.869 1.405-1.059.532-.257 1.526.105 2.029-.863l.354.354a.337.337 0 00.476-.476l-.561-.562c.159-.471.22-.531.721-.831.893-.534 1.039-.864.905-1.867-.084-.629-.067-.689.269-1.197.14-.213.265-.457.344-.718h1.476a1.2 1.2 0 001.145.876c.669 0 1.213-.544 1.213-1.213s-.544-1.213-1.213-1.213zm-1.55-8.265a.74.74 0 11-.524 1.264c-.463-.463-.134-1.264.525-1.264zm-9.276-.81a.54.54 0 111.08.002.54.54 0 01-1.08-.001zm-8.328 2.58a.82.82 0 111.16-1.16.82.82 0 01-1.16 1.16zm-1.42 8.247a.54.54 0 11.001-1.08.54.54 0 01-.001 1.08zm3.394 7.116a.54.54 0 11-.762-.764.54.54 0 01.762.764zm7.432 2.632a.54.54 0 11-1.08-.001.54.54 0 011.08.001zm9.748-9.748a.54.54 0 11.001-1.08.54.54 0 010 1.08zM19.535 19.058l-.575-.575a.337.337 0 00-.477.477l.576.575c-.343.563-.297 1.298.19 1.784a1.463 1.463 0 102.07-2.07c-.486-.487-1.22-.533-1.784-.19zm1.308 1.785a.79.79 0 11-1.118-1.117.79.79 0 011.118 1.117z" fill="#000"/>
</svg>
