<svg width="24" height="24" fill="none" xmlns="http://www.w3.org/2000/svg">
  <defs/>
  <g fill-rule="evenodd" clip-rule="evenodd">
    <path d="M11.905 5.887h-.1c-.586 0-1.066.479-1.066 1.066v1.065l1.116.736 1.115-.736V6.953c0-.587-.479-1.066-1.066-1.066z" fill="#FE636E"/>
    <path d="M10.74 8.018H2.495a.808.808 0 00-.8.807v8.08l5.107.674 5.052-.673V8.018h-1.116z" fill="#ECECEC"/>
    <path d="M17.036 8.955c-.697-.732-.895-.937-1.554-.937h-3.628l-.74 4.656.74 4.232 5.984.737 4.447-.737h.026v-1.8l-.002-1.295c-.017-.58-.268-1.306-1.203-1.44-.944-.137-1.299-.217-1.718-.715l-2.352-2.701z" fill="#03BED7"/>
    <path d="M3.27 16.906H1.601a.77.77 0 00-.768.767.77.77 0 00.768.768h3.298a2.401 2.401 0 01.688-1.535H3.27zM22.285 16.906h-3.08a2.375 2.375 0 01.544.854c.079.215.129.443.144.68h2.493a.77.77 0 00.768-.767.77.77 0 00-.768-.767h-.1zM11.602 16.906H7.68a2.442 2.442 0 01.542.854c.079.215.129.443.144.68h8.058a2.406 2.406 0 01.687-1.534h-5.51z" fill="#ACACAC"/>
    <path d="M17.934 16.184a2.412 2.412 0 110 4.824 2.412 2.412 0 010-4.824z" fill="#838383"/>
    <path d="M18.82 16.906a2.402 2.402 0 01.686 1.684 2.413 2.413 0 01-2.01 2.378 2.411 2.411 0 002.702-3.208l-.034-.087a2.412 2.412 0 00-2.634-1.455c.498.09.943.335 1.284.681.001.003.004.004.006.007z" fill="#595959"/>
    <path d="M16.977 18.596a.957.957 0 101.914 0 .957.957 0 00-1.914 0z" fill="#E6E6E6"/>
    <path d="M20.945 13.811a.471.471 0 00-.471.47v.354c0 .26.211.47.47.47h1.367v-1.2l-.001-.094h-1.365zM15.727 10.176c-.191-.238-.363-.355-.715-.355h-1.185c-.082 0-.15.05-.153.112l.004 2.008c0 .26.24.526.621.526h2.875c.073-.004.13-.05.13-.106v-.142c0-.19-.098-.201-.375-.547l-1.202-1.496z" fill="#A6E7F0"/>
    <path d="M7.385 10.47h-1.22c-.122 0-.222.1-.222.223v.936h-.938c-.122 0-.222.1-.222.223v1.22c0 .122.1.221.222.221h.938v.938c0 .123.1.222.222.222h1.22c.122 0 .223-.1.223-.222v-.938h.937c.122 0 .223-.1.223-.221v-1.22c0-.122-.1-.223-.223-.223h-.937v-.936c0-.123-.1-.223-.223-.223z" fill="#FE636E"/>
    <path d="M4.688 16.906a2.4 2.4 0 00-.692 1.69 2.413 2.413 0 10.691-1.69z" fill="#838383"/>
    <path d="M7.295 16.906a2.404 2.404 0 01.685 1.684 2.413 2.413 0 01-2.008 2.378 2.413 2.413 0 002.701-3.208l-.035-.087a2.378 2.378 0 00-.51-.768 2.403 2.403 0 00-2.122-.687c.498.09.942.335 1.282.681l.007.007z" fill="#595959"/>
    <path d="M5.45 18.596a.958.958 0 101.916-.001.958.958 0 00-1.916.001z" fill="#E6E6E6"/>
    <path d="M12.97 6.953c0-.587-.479-1.066-1.066-1.066h-.099a1.03 1.03 0 00-.274.036l.01.002c.45.125.784.539.784 1.028v1.065h.645V6.953z" fill="#FB2A39"/>
    <path d="M22.31 13.811h-.935v1.295h.936l-.001-1.295z" fill="#6BD9E7"/>
    <path d="M22.311 15.106h-.936v1.8h.936v-1.8z" fill="#0099B1"/>
    <path d="M11.855 8.018h-1.116v8.888h1.116V8.018z" fill="#CECECE"/>
    <path d="M15.727 10.176c-.191-.238-.363-.355-.715-.355H13.98c.352 0 .523.117.715.355l1.2 1.496c.278.346.378.357.378.547v.143c0 .056-.058.101-.13.105h1.033c.072-.004.13-.05.13-.105v-.143c0-.19-.099-.201-.376-.547l-1.202-1.496z" fill="#6BD9E7"/>
    <path d="M8.545 11.63h-.938v-.938c0-.122-.1-.222-.222-.222h-1.09c.476.454.779 1.152.779 1.932 0 .853-.36 1.605-.912 2.05H7.385c.122 0 .223-.098.223-.22v-.939h.937c.122 0 .223-.1.223-.221v-1.22c0-.122-.101-.223-.223-.223z" fill="#FB2A39"/>
    <path d="M22.31 13.811c-.019-.58-.27-1.306-1.204-1.44l-.215-.033c.355.432.47 1.085.484 1.473h.934z" fill="#0099B1"/>
  </g>
  <path d="M11.97 4.566a.34.34 0 00.34-.34V2.993a.34.34 0 10-.68 0v1.233c0 .188.153.34.34.34zM9.601 4.903a.339.339 0 00.48 0 .34.34 0 000-.48l-.873-.874a.34.34 0 10-.48.48l.873.874zM14.101 5.002a.338.338 0 00.24-.1l.874-.872a.34.34 0 10-.48-.48l-.874.873a.34.34 0 00.24.58zM13.712 14.036h.858a.34.34 0 100-.679h-.858a.34.34 0 100 .68z" fill="#000"/>
  <path d="M22.65 16.597v-2.69c.012-1.035-.547-1.736-1.495-1.873-.941-.136-1.175-.202-1.507-.597l-.003-.004-2.352-2.701a.286.286 0 00-.01-.011c-.702-.737-.992-1.042-1.8-1.042H13.31v-.724c0-.773-.629-1.402-1.402-1.402h-.105c-.774 0-1.403.629-1.403 1.402v.724H6.248a.34.34 0 100 .679h5.383v8.208H8.27a2.74 2.74 0 00-1.855-.722 2.74 2.74 0 00-1.856.722H2.035v-7.74a.47.47 0 01.461-.468h2.196a.34.34 0 100-.68H2.496c-.629 0-1.14.515-1.14 1.147v7.77C.866 16.71.5 17.15.5 17.673c0 .61.497 1.108 1.107 1.108H3.67a2.754 2.754 0 002.745 2.566 2.754 2.754 0 002.744-2.567h2.563a.34.34 0 100-.679H9.121a2.732 2.732 0 00-.31-.856h6.733a2.73 2.73 0 00-.31.856h-1.957a.34.34 0 000 .68h1.918a2.755 2.755 0 002.746 2.566 2.754 2.754 0 002.744-2.567h1.708c.61 0 1.107-.496 1.107-1.107 0-.521-.363-.96-.85-1.076zm-.678-1.83h-1.027a.132.132 0 01-.132-.132v-.354c0-.07.06-.13.132-.13h1.026v.615zM11.078 6.954c0-.399.325-.723.724-.723h.105c.399 0 .723.324.723.723v.724h-1.552v-.724zm1.205 1.403h3.199c.496 0 .605.093 1.302.826l2.346 2.693c.506.6.983.693 1.927.83.545.078.78.406.868.765h-.981a.811.811 0 00-.811.809v.354c0 .447.364.81.81.81h1.027v1.121h-2.175a2.743 2.743 0 00-3.712 0h-3.8V8.365v-.007zM1.18 17.673c0-.236.192-.428.428-.428h.002a.335.335 0 00.172 0H4.02c-.148.262-.255.55-.31.856H1.607a.429.429 0 01-.428-.428zm5.236 2.995a2.074 2.074 0 01-2.073-2.072c0-1.143.93-2.072 2.073-2.072 1.142 0 2.072.93 2.072 2.072s-.93 2.072-2.072 2.072zm11.526 0a2.075 2.075 0 01-2.074-2.072c0-1.143.93-2.072 2.074-2.072 1.142 0 2.072.93 2.072 2.072s-.93 2.072-2.072 2.072zm4.452-2.567h-1.746a2.732 2.732 0 00-.31-.856h1.888a.335.335 0 00.171 0 .429.429 0 01-.003.856z" fill="#000"/>
  <path d="M17.94 17.298a1.298 1.298 0 000 2.595 1.298 1.298 0 000-2.595zm0 1.916a.619.619 0 11.002-1.237.619.619 0 01-.001 1.237zM6.414 17.298a1.298 1.298 0 101.297 1.298 1.3 1.3 0 00-1.297-1.298zm0 1.916a.619.619 0 11.001-1.237.619.619 0 010 1.237zM14.344 12.744h2.784c.244-.013.435-.201.435-.428v-.137c0-.25-.115-.375-.237-.506a3.906 3.906 0 01-.197-.226l-1.157-1.44c-.223-.278-.469-.463-.942-.463h-1.141c-.251 0-.46.182-.473.414l-.001.021.004 1.933c0 .4.353.832.925.832zm.686-2.547c.221 0 .298.053.433.22l1.157 1.44c.082.102.15.177.202.234h-2.478c-.192 0-.272-.117-.272-.18l-.003-1.714h.961zM4.444 11.852v1.22c0 .31.252.56.561.56h.6v.6c0 .309.251.56.56.56h1.22c.31 0 .563-.251.563-.56v-.6h.598c.31 0 .562-.25.562-.56v-1.22a.563.563 0 00-.562-.562h-.598v-.597a.563.563 0 00-.562-.563h-1.22a.562.562 0 00-.562.563v.597h-.599a.562.562 0 00-.56.562zm.68.117h.82a.34.34 0 00.34-.34v-.82h.985v.82c0 .188.152.34.34.34h.82v.985h-.82a.34.34 0 00-.34.34v.82h-.985v-.82a.34.34 0 00-.34-.34h-.82v-.985z" fill="#000"/>
</svg>
