<svg width="24" height="24" fill="none" xmlns="http://www.w3.org/2000/svg">
  <defs/>
  <path d="M1.728 14.687c-.069.283-.13.567-.185.853l6.914 6.914c.287-.054.572-.116.854-.184l-7.583-7.583zM21.119 8.16l1.153 1.153c.07-.282.131-.567.186-.853l-6.915-6.914a17.58 17.58 0 00-.853.184l5.39 5.391a.367.367 0 010 .52l.52.519a.367.367 0 01.519 0z" fill="#fff"/>
  <path d="M19.518 4.482l.52-.519a.367.367 0 010-.519l.683-.683a.367.367 0 01.519 0l.519-.519a.367.367 0 010-.52l.215-.214a17.753 17.753 0 00-5.538-.107l3.082 3.081zM6.559 16.922l.683-.683a.367.367 0 01.52 0l.518-.52a.367.367 0 010-.518l.087-.087-.779-.778a.367.367 0 01.52-.52l.778.78 1.557-1.558-.778-.778a.367.367 0 01.519-.52l.778.78 1.557-1.558-.778-.779a.367.367 0 11.519-.519l.778.779 1.557-1.557-.778-.779a.367.367 0 11.519-.519l.778.779.087-.087a.367.367 0 01.52 0l.518-.519a.367.367 0 010-.519l.683-.683a.367.367 0 01.52 0l.519-.52-4.09-4.09A17.54 17.54 0 006.399 6.4a17.608 17.608 0 00-4.45 7.47l4.09 4.091.52-.519a.367.367 0 010-.519zm-1.586-2.659a.367.367 0 11.025-.027l-.008.008-.017.02zm0-2.076a.367.367 0 11-.52-.519.367.367 0 01.52.52zM2.76 20.72l.684-.683a.367.367 0 01.52 0l.518-.52-3.087-3.086a17.693 17.693 0 00.113 5.542l.215-.215a.367.367 0 01.519 0l.519-.519a.367.367 0 010-.519z" fill="#FF6E1D"/>
  <path d="M21.24 2.76a.367.367 0 010 .52l-.684.683a.366.366 0 01-.52 0l-.518.52 3.087 3.086c.25-1.815.219-3.683-.113-5.542l-.215.215a.366.366 0 01-.519 0l-.519.519zM4.482 19.518l-.519.518a.367.367 0 010 .52l-.683.683a.366.366 0 01-.519 0l-.519.52a.367.367 0 010 .518l-.215.215a17.752 17.752 0 005.537.107l-3.082-3.081zM20.6 8.679a.367.367 0 010-.52l-.519-.518a.366.366 0 01-.52 0l-1.6-1.601-.52.519a.367.367 0 010 .519l-.683.683a.366.366 0 01-.519 0l-.519.52a.367.367 0 010 .518l-.086.087.778.778a.367.367 0 01-.519.52l-.778-.78-1.557 1.558.778.778a.367.367 0 01-.519.52l-.778-.78-1.558 1.558.779.779a.367.367 0 01-.52.519l-.778-.779-1.557 1.557.779.779a.367.367 0 01-.52.519l-.778-.779-.086.087a.366.366 0 01-.52 0l-.518.519a.367.367 0 010 .519l-.684.683a.366.366 0 01-.519 0l-.519.52 4.09 4.09a17.54 17.54 0 007.472-4.45 17.608 17.608 0 004.45-7.47L20.6 8.68z" fill="#F2484B"/>
  <path d="M15.2 8.28l-.086.087-.779-.779a.367.367 0 00-.519.52l.779.778-1.557 1.557-.779-.779a.367.367 0 00-.519.52l.779.778-1.557 1.557-.779-.778a.367.367 0 00-.519.518l.779.78-1.557 1.556-.779-.778a.367.367 0 00-.519.519l.778.778-.086.087a.367.367 0 00.52.519l.086-.087.778.779a.366.366 0 10.52-.52l-.78-.778 1.558-1.557.778.779a.366.366 0 00.52 0 .367.367 0 000-.52l-.78-.778 1.558-1.557.779.779a.366.366 0 10.519-.52l-.779-.778 1.557-1.557.779.778a.366.366 0 00.519 0 .367.367 0 000-.519l-.779-.778.087-.087a.367.367 0 10-.52-.519z" fill="#fff"/>
  <path d="M4.713 12.295a.367.367 0 100-.734.367.367 0 000 .734zM4.972 13.745a.367.367 0 100 .519l.018-.02.007-.008a.367.367 0 00-.025-.492z" fill="#082947"/>
  <path d="M22.812 10.124a18.292 18.292 0 00.399-1.74c.422-2.369.38-4.816-.132-7.172l-.002-.009-.001-.005a.367.367 0 00-.012-.04l-.003-.008a.363.363 0 00-.02-.044l-.003-.005a.346.346 0 00-.022-.035l-.007-.008a.365.365 0 00-.066-.067l-.01-.006A.368.368 0 0022.9.963l-.006-.004a.369.369 0 00-.043-.02l-.009-.003a.374.374 0 00-.04-.011l-.005-.002A18.483 18.483 0 0018.867.5 18.307 18.307 0 005.88 5.88a18.379 18.379 0 00-4.683 7.966l-.009.03a18.304 18.304 0 00-.398 1.74 18.515 18.515 0 00.132 7.172l.001.009.002.005a.363.363 0 00.012.04l.002.008.02.043.004.006a.354.354 0 00.022.034l.007.01a.366.366 0 00.109.094l.006.004a.374.374 0 00.043.02l.008.002a.358.358 0 00.04.012l.006.002c1.287.28 2.61.423 3.93.423a18.306 18.306 0 0012.987-5.38 18.378 18.378 0 004.683-7.966l.008-.03zM2.028 22.492l.214-.215a.367.367 0 00-.519-.519l-.214.215a17.694 17.694 0 01-.113-5.542l6.169 6.168a17.752 17.752 0 01-5.537-.108zm6.43-.038L1.542 15.54c.055-.286.116-.57.185-.853l7.583 7.583c-.283.068-.567.13-.854.184zm1.672-.403l-8.182-8.182a17.608 17.608 0 014.45-7.47 17.539 17.539 0 017.473-4.45l4.09 4.09 1.6 1.602a.366.366 0 00.52 0 .367.367 0 000-.52l-5.391-5.39c.282-.07.567-.13.854-.185l6.914 6.914c-.055.286-.117.57-.185.853L21.119 8.16a.367.367 0 00-.52.519l1.453 1.452a17.608 17.608 0 01-4.45 7.47 17.539 17.539 0 01-7.472 4.45zM21.973 1.508l-.215.215a.367.367 0 00.52.519l.214-.215c.332 1.859.364 3.727.113 5.542l-6.169-6.168a17.753 17.753 0 015.537.108z" fill="#082947"/>
  <path d="M7.242 16.239l-.683.683a.367.367 0 10.519.52l.683-.684a.367.367 0 00-.519-.52zM3.444 20.037l-.683.683a.367.367 0 10.519.52l.683-.684a.367.367 0 10-.519-.52zM16.923 6.559l-.684.683a.367.367 0 00.52.52l.683-.684a.367.367 0 10-.52-.52zM20.297 4.071a.366.366 0 00.26-.107l.683-.684a.367.367 0 00-.52-.519l-.683.683a.367.367 0 00.26.627z" fill="#082947"/>
</svg>
