<svg width="24" height="24" fill="none" xmlns="http://www.w3.org/2000/svg">
  <defs/>
  <g fill-rule="evenodd" clip-rule="evenodd">
    <path d="M8.584 10.904H5.926l-.897 1.34.897 1.618 1.182 1.007 1.476-1.007.747-1.717-.747-1.24z" fill="#ACACAC"/>
    <path d="M4.089 9.564v4.298l.899.75.938-.75V9.564l-.965-.854-.872.854z" fill="#ECECEC"/>
    <path d="M5.988 6.81H2.744L2.07 8.15l.675 1.414h3.244c.27 0 .491-.22.491-.49V7.3c0-.27-.221-.49-.491-.49z" fill="#838383"/>
    <path d="M9.814 8.49c-.676 0-1.23.554-1.23 1.231v4.141l4.536 1.124 6.198-1.124c0-.315-.207-.96-.576-1.695a9.845 9.845 0 00-1.148-1.777c-.854-1.043-1.977-1.9-3.254-1.9H9.814z" fill="#80D261"/>
    <path d="M8.584 13.862h-5.28c-1.883 0-2.274 2.676-.395 3.323 1.125-.448 2.665-.608 4.516.086 2.273-1.104 4.462 1.16 7.349-.19 3.107-1.45 5.356-1.056 6.738-.229 2.8-1.309 1.029-4.046-.822-3.44l-1.373.45H8.584z" fill="#838383"/>
    <path d="M.993 5.6v5.174c0 .482.394.877.875.877a.88.88 0 00.876-.877V5.6a.879.879 0 00-.876-.875.878.878 0 00-.875.876z" fill="#ECECEC"/>
    <path d="M1.44 4.837c.382.094.578.441.578.852v5.173c0 .326-.091.613-.357.764a.88.88 0 001.083-.852V5.6a.879.879 0 00-1.304-.764z" fill="#CECECE"/>
    <path d="M5.988 6.81h-.87c.27 0 .49.221.49.491v1.773a.492.492 0 01-.49.49H5.988c.27 0 .491-.22.491-.49V7.3c0-.27-.221-.49-.491-.49z" fill="#595959"/>
    <path d="M5.119 9.564h-1.03v.532h.37c.748 0 .807.24.807.906v2.86h.66V9.564h-.807z" fill="#CECECE"/>
    <path d="M7.77 10.904h.814v2.958h-.813v-2.958z" fill="#838383"/>
    <path d="M18.742 12.168h-1.71c.37.735.575 1.379.575 1.694h1.711c0-.315-.207-.959-.576-1.694z" fill="#4FC122"/>
    <path d="M21.512 16.852c2.8-1.309 1.029-4.046-.822-3.44l-.634.207c1.406.008 2.49 1.79 1.07 3.026.135.065.264.135.386.207z" fill="#595959"/>
    <path d="M12.357 10.39h-1.53a.293.293 0 00-.293.292v1.194c0 .16.131.292.293.292h1.53c.16 0 .293-.132.293-.292v-1.194a.294.294 0 00-.293-.292z" fill="#A6E7F0"/>
    <path d="M12.357 10.39h-.765c.16 0 .291.132.291.292v1.194c0 .16-.13.292-.291.292h.765c.16 0 .293-.132.293-.292v-1.194a.294.294 0 00-.293-.292z" fill="#6BD9E7"/>
    <path d="M17.593 10.39H14.61c-.165 0-.301.175-.301.387v1.137c0 .14.089.254.197.254h4.236a9.845 9.845 0 00-1.149-1.778z" fill="#A6E7F0"/>
    <path d="M17.594 10.39c-.854-1.043-1.977-1.9-3.254-1.9h-1.702c1.273.005 2.393.86 3.245 1.9h1.711z" fill="#4FC122"/>
    <path d="M17.594 10.39h-1.711c.47.574.86 1.204 1.148 1.777h1.711a9.851 9.851 0 00-1.148-1.777z" fill="#6BD9E7"/>
    <path d="M7.425 17.27c-1.85-.693-3.391-.534-4.515-.085-1.746.696-2.49 2.09-1.835 2.09h4.787s3.607-.465 1.928-1.75c-.04-.03-.41-.233-.365-.254z" fill="#03BED7"/>
    <path d="M14.774 17.082c-2.886 1.348-5.076-.916-7.348.188a3.31 3.31 0 00-.133.07c-.993.538-1.43 1.934-1.43 1.934h17.002c.666 0 .211-1.487-1.352-2.422a5.071 5.071 0 00-.386-.208c-1.4-.674-3.519-.885-6.353.438z" fill="#A6E7F0"/>
    <path d="M21.126 16.645c-1.102-.532-2.653-.775-4.646-.208 1.993-.567 3.544-.324 4.646.208zm0 0c-1.102-.532-2.653-.775-4.646-.208 2.26.807 3.012 2.838 2.235 2.838h4.15c.665 0 .21-1.488-1.353-2.423a5.09 5.09 0 00-.386-.207z" fill="#6BD9E7"/>
  </g>
  <path d="M10.194 10.683v1.193c0 .348.284.631.633.631h1.53a.633.633 0 00.632-.631v-1.193a.632.632 0 00-.632-.632h-1.53a.633.633 0 00-.633.632zm.68.047h1.436v1.098h-1.437V10.73z" fill="#000"/>
  <path d="M22.522 17.19a4.733 4.733 0 00-.362-.308c1.179-.767 1.305-1.826 1.014-2.56-.358-.906-1.425-1.614-2.59-1.233l-.993.326c-.091-.372-.275-.854-.534-1.374a10.31 10.31 0 00-.873-1.442c-.812-1.116-2.137-2.447-3.843-2.447h-1.644a.34.34 0 100 .678h1.643c.985 0 1.845.588 2.486 1.221H14.61c-.354 0-.641.326-.641.726v1.137c0 .327.24.593.536.593h4.023c.19.403.32.757.39 1.016H8.923V9.72c0-.491.4-.89.89-.89h1.33a.34.34 0 100-.68h-1.33c-.865 0-1.569.705-1.569 1.57v.844H6.265v-.71a.831.831 0 00.554-.781V7.302a.831.831 0 00-.831-.83H3.083V5.6c0-.67-.545-1.215-1.215-1.215S.654 4.93.654 5.6v1.851a.34.34 0 00.679 0V5.601a.536.536 0 011.071 0v5.173c0 .297-.24.538-.536.538a.537.537 0 01-.535-.538V9.01a.34.34 0 00-.68 0v1.765c0 .671.546 1.217 1.215 1.217.67 0 1.215-.546 1.215-1.217v-.87h.666v3.618h-.445c-1.146 0-1.797.823-1.933 1.64-.112.665.106 1.487.784 2.004a4.577 4.577 0 00-1.082.823c-.225.236-.727.835-.527 1.304.086.201.284.321.529.321H22.864c.27 0 .488-.143.584-.383.198-.5-.182-1.34-.926-2.041zm-7.873-5.362v-1.051c0-.02.003-.036.008-.047h2.774a9.487 9.487 0 01.742 1.098h-3.525zm-8.384-.584h1.98v2.279h-1.98v-2.28zM3.083 9.225V7.15h2.905c.082 0 .152.07.152.152v1.772c0 .082-.07.151-.152.151H3.083zm2.503.679v3.619H4.428V9.904h1.158zm-3.546 5.37c.083-.495.464-1.073 1.264-1.073h1.643v.668a.34.34 0 00.679 0v-.668h3.816v.668a.34.34 0 00.68 0v-.668h3.816v.668a.34.34 0 00.679 0v-.668h3.816v.668a.34.34 0 00.68 0v-.668h.204a.351.351 0 00.049-.003l.01-.002a.333.333 0 00.046-.011h.001l1.373-.45c.784-.257 1.504.223 1.747.836.282.714-.098 1.414-1.018 1.896a5.609 5.609 0 00-1.99-.639c-1.49-.196-3.14.122-4.905.947-1.415.66-2.666.386-3.876.12-1.086-.238-2.205-.484-3.342.01-1.768-.63-3.314-.523-4.504-.084a1.4 1.4 0 01-.868-1.548zm3.585 3.662H1.217c.088-.192.341-.55.875-.927.606-.428 2.199-1.285 4.567-.63-.558.5-.889 1.195-1.034 1.556zm.742 0c.197-.414.556-1.009 1.088-1.298 1.01-.55 2.004-.333 3.153-.08 1.26.276 2.686.59 4.31-.168 3.226-1.507 5.305-.916 6.42-.246.299.18.529.365.693.517.607.562.799 1.09.793 1.274H6.367z" fill="#000"/>
</svg>
