<svg width="24" height="24" fill="none" xmlns="http://www.w3.org/2000/svg">
  <defs/>
  <path d="M14.634 6.853H9.422a2.607 2.607 0 015.212 0z" fill="#314A5F"/>
  <g fill="#FF6F52">
    <path d="M20.475 14.399a1.091 1.091 0 100-2.183 1.091 1.091 0 000 2.183zM20.475 10.877a1.091 1.091 0 100-2.183 1.091 1.091 0 000 2.183z"/>
  </g>
  <path d="M23.12 6.035V22.31H.937V6.035H23.12zm-1.553 3.75a1.091 1.091 0 10-2.183.001 1.091 1.091 0 002.183 0zm0 3.524a1.091 1.091 0 10-2.183 0 1.091 1.091 0 002.183 0zm-3.996 5.077c.516-2.84.516-5.68 0-8.519a1.789 1.789 0 00-1.533-1.461 45.47 45.47 0 00-11.291 0 1.789 1.789 0 00-1.533 1.461 23.617 23.617 0 000 8.519 1.79 1.79 0 001.533 1.461c3.764.47 7.527.47 11.291 0a1.79 1.79 0 001.533-1.461z" fill="#CFDCE5"/>
  <path d="M17.57 18.386a1.79 1.79 0 01-1.532 1.461 45.67 45.67 0 01-11.292 0 1.79 1.79 0 01-1.533-1.461 23.617 23.617 0 010-8.52c.14-.768.757-1.364 1.533-1.46a45.465 45.465 0 0111.292 0 1.789 1.789 0 011.532 1.46c.517 2.84.517 5.68 0 8.52z" fill="#314A5F"/>
  <path d="M17.571 18.386a1.79 1.79 0 01-1.533 1.461 45.668 45.668 0 01-5.215.35c3.584-4.844 3.081-10.18 2.762-12.031a45.91 45.91 0 012.453.24 1.789 1.789 0 011.533 1.46c.516 2.84.516 5.68 0 8.52z" fill="#415E72"/>
  <path d="M23.091 7.838a.409.409 0 00.409-.409V6.035a.409.409 0 00-.409-.409h-8.336a3.005 3.005 0 00-.86-1.12L16.42 1.98a.409.409 0 10-.578-.579l-2.671 2.671a3.02 3.02 0 00-2.342 0l-2.67-2.67a.409.409 0 10-.579.578l2.525 2.525a3.005 3.005 0 00-.86 1.12H.91a.409.409 0 00-.409.409v16.273c0 .226.183.41.409.41H23.09a.409.409 0 00.409-.41V8.944a.409.409 0 10-.818 0V21.9H1.318V6.444h21.364v.985c0 .226.183.409.41.409zM12 4.655c.747 0 1.424.374 1.825.971h-3.65c.401-.597 1.078-.97 1.825-.97z" fill="#000"/>
  <path d="M15.959 19.441a45.272 45.272 0 01-11.19 0 1.375 1.375 0 01-1.182-1.128 24.043 24.043 0 01-.143-.879.409.409 0 00-.809.116c.043.302.093.607.148.909a2.19 2.19 0 001.884 1.794 46.054 46.054 0 0011.393 0 2.19 2.19 0 001.884-1.794c.523-2.875.523-5.79 0-8.665A2.188 2.188 0 0016.06 8 46.087 46.087 0 004.668 8c-.954.118-1.711.84-1.885 1.794a24.138 24.138 0 00-.326 6.13.409.409 0 00.815-.062 23.318 23.318 0 01.315-5.922A1.374 1.374 0 014.77 8.811a45.277 45.277 0 0111.19 0 1.374 1.374 0 011.18 1.129 23.315 23.315 0 010 8.372c-.108.601-.583 1.055-1.18 1.13zM20.447 11.809c-.827 0-1.5.672-1.5 1.5 0 .826.673 1.5 1.5 1.5s1.5-.674 1.5-1.5c0-.828-.673-1.5-1.5-1.5zm0 2.182a.683.683 0 11.002-1.367.683.683 0 01-.002 1.367zM20.447 8.286c-.827 0-1.5.673-1.5 1.5s.673 1.5 1.5 1.5 1.5-.673 1.5-1.5-.673-1.5-1.5-1.5zm0 2.182a.683.683 0 11.002-1.366.683.683 0 01-.002 1.366zM21.538 16.476h-2.182a.409.409 0 100 .817h2.182a.409.409 0 100-.817zM21.538 19.688h-2.182a.409.409 0 100 .818h2.182a.409.409 0 100-.818zM21.538 18.082h-2.182a.409.409 0 100 .817h2.182a.409.409 0 100-.817z" fill="#000"/>
</svg>
