<svg width="24" height="24" fill="none" xmlns="http://www.w3.org/2000/svg">
  <defs/>
  <path d="M15.25 3.877l.518-.519a.367.367 0 010-.519l1.57-1.57A3.684 3.684 0 0014.21 2.32a3.697 3.697 0 00-1.05 3.128l1.57-1.57a.367.367 0 01.52 0z" fill="#98D9D5"/>
  <path d="M15.25 3.877a.367.367 0 010 .52l-1.57 1.57a3.684 3.684 0 003.128-1.051 3.697 3.697 0 001.051-3.129l-1.57 1.571a.366.366 0 01-.52 0l-.519.52z" fill="#6DA8D6"/>
  <path d="M16.881 8.777a4.549 4.549 0 00-1.749-.35 4.6 4.6 0 00-2.9 1.035.382.382 0 01-.05.034l-.004.003a.36.36 0 01-.051.023l-.009.003a.366.366 0 01-.052.013l-.01.002a.37.37 0 01-.111 0l-.01-.002a.364.364 0 01-.112-.04c-.002 0-.003 0-.004-.002a.372.372 0 01-.05-.033 4.603 4.603 0 00-2.9-1.035c-.6 0-1.19.117-1.75.35a4.568 4.568 0 00-2.554 5.78c.241.666 2.36 4.819 3.448 6.921a2.377 2.377 0 003.031 1.105c.263-.109.5-.261.707-.452a.366.366 0 01.498 0c.207.191.445.343.707.452.293.12.6.182.913.182.896 0 1.708-.493 2.12-1.287 1.086-2.102 3.206-6.255 3.447-6.921a4.568 4.568 0 00-2.555-5.78zm-10.55 3.54l-.007.001a.367.367 0 01-.367-.367v-.006a.367.367 0 01.367-.36h.027c.18.014.325.158.338.339l.002.027-.002.03a.367.367 0 01-.359.337zm1.828-1.834v.003a.367.367 0 11-.37-.37h.003c.203 0 .367.164.367.367zm7.071 8.833a.367.367 0 110-.734h.016a.367.367 0 01-.016.734z" fill="#F2484B"/>
  <path d="M17.162 8.1a5.28 5.28 0 00-2.03-.406c-.989 0-1.96.28-2.798.797a6.89 6.89 0 00-2-4.222.367.367 0 10-.519.52 6.16 6.16 0 011.776 3.656 5.334 5.334 0 00-2.722-.751 5.28 5.28 0 00-2.03.405 5.3 5.3 0 00-2.964 6.708c.317.878 3.356 6.76 3.486 7.01a3.11 3.11 0 002.771 1.683A3.105 3.105 0 0012 22.878a3.12 3.12 0 001.869.622 3.11 3.11 0 002.771-1.684c.13-.25 3.169-6.13 3.486-7.009A5.3 5.3 0 0017.162 8.1zm2.274 6.458c-.241.667-2.36 4.819-3.448 6.92a2.377 2.377 0 01-3.032 1.106c-.262-.109-.5-.26-.707-.452a.366.366 0 00-.498 0 2.38 2.38 0 01-1.619.634 2.378 2.378 0 01-2.12-1.287c-1.086-2.102-3.206-6.255-3.447-6.921a4.568 4.568 0 012.555-5.78 4.55 4.55 0 011.749-.35 4.6 4.6 0 012.9 1.034.382.382 0 00.05.034l.004.003c.016.009.033.016.051.023.003 0 .006.002.008.003.018.006.035.01.053.014l.01.001a.37.37 0 00.111 0l.01-.001a.365.365 0 00.112-.04l.004-.003a.372.372 0 00.049-.033 4.603 4.603 0 012.901-1.035c.6 0 1.19.117 1.75.35a4.568 4.568 0 012.553 5.78z" fill="#082947"/>
  <path d="M6.69 11.924a.366.366 0 00-.733.02v.007c0 .203.164.367.367.367h.006a.367.367 0 00.361-.367l-.001-.027zM7.792 10.116h-.003a.367.367 0 10.37.37v-.003a.367.367 0 00-.367-.367zM15.246 18.583l-.016-.001a.366.366 0 10.016 0zM12.598 6.285l.001.004.002.005a.354.354 0 00.031.068l.006.01a.394.394 0 00.018.026l.006.009a.365.365 0 00.058.058l.009.006a.38.38 0 00.103.054l.006.003h.004l.005.002c.433.136.883.205 1.337.205a4.414 4.414 0 003.142-1.3 4.433 4.433 0 001.096-4.48L18.42.951 18.42.947 18.417.94a.383.383 0 00-.031-.068l-.006-.01a.4.4 0 00-.018-.026L18.356.83a.354.354 0 00-.058-.058l-.009-.007a.31.31 0 00-.025-.017l-.01-.006a.344.344 0 00-.027-.014l-.01-.005a.368.368 0 00-.031-.012L18.18.708l-.004-.002a4.413 4.413 0 00-4.483 1.095 4.432 4.432 0 00-1.096 4.479v.005zM14.21 2.32a3.684 3.684 0 013.128-1.051l-1.57 1.57a.367.367 0 00.519.52l1.57-1.572a3.697 3.697 0 01-1.051 3.128 3.684 3.684 0 01-3.128 1.052l1.57-1.57a.367.367 0 10-.519-.52l-1.57 1.571A3.697 3.697 0 0114.21 2.32z" fill="#082947"/>
</svg>
