<svg width="24" height="24" fill="none" xmlns="http://www.w3.org/2000/svg">
  <defs/>
  <g fill="#BAC6CC">
    <path d="M20.453.903H7.536v18.205h12.917V.903z"/>
    <path d="M18.46 2.897H5.541v18.205h12.917V2.897z"/>
  </g>
  <path d="M16.465 4.89H3.548v18.206h12.917V4.891z" fill="#CFDCE5"/>
  <path d="M20.453 3.943a.403.403 0 00-.403.404v14.358h-.515a.404.404 0 100 .807h.918c.223 0 .404-.18.404-.404V4.348a.403.403 0 00-.404-.404z" fill="#000"/>
  <path d="M20.453.5H7.536a.404.404 0 00-.404.404v1.59h-1.59a.404.404 0 00-.404.404v.917a.404.404 0 10.807 0V3.3h12.11V20.7H16.87V4.891a.403.403 0 00-.404-.403H3.548a.404.404 0 00-.403.403v18.205c0 .223.18.404.403.404H6.13a.404.404 0 100-.807H3.952V5.295h12.11v17.398H7.476a.404.404 0 000 .807h8.99c.222 0 .403-.18.403-.404v-1.59h1.59c.223 0 .403-.18.403-.404V2.898a.403.403 0 00-.403-.404H7.939V1.307h12.11v1.695a.403.403 0 10.807 0V.904A.404.404 0 0020.453.5z" fill="#000"/>
  <path d="M13.009 7.552a.403.403 0 100-.807h-2.547a.403.403 0 100 .807h2.547zM9.116 7.552a.404.404 0 100-.807h-2.11a.404.404 0 100 .807h2.11zM5.49 9.942c0 .223.18.404.403.404h8.227a.403.403 0 100-.807H5.893a.404.404 0 00-.404.403zM14.12 11.597h-1.237a.403.403 0 100 .807h1.237a.403.403 0 100-.807zM5.893 12.404h5.644a.403.403 0 100-.807H5.893a.404.404 0 100 .807zM5.893 14.462h8.227a.404.404 0 100-.807H5.893a.404.404 0 100 .807zM14.12 15.713H8.881a.404.404 0 100 .807h5.24a.404.404 0 000-.807zM5.893 16.52h1.642a.404.404 0 000-.807H5.893a.404.404 0 100 .807zM14.12 19.83h-2.744a.403.403 0 100 .806h2.744a.404.404 0 000-.807z" fill="#000"/>
</svg>
