<svg width="24" height="24" fill="none" xmlns="http://www.w3.org/2000/svg">
  <defs>
    <path d="M17.166 5.262V17.39a.898.898 0 00-.899.898H7.732a.898.898 0 00-.898-.898V5.26h10.332z" fill="#A0D468" id="reuse-0"/>
  </defs>
  <path d="M23.163 4.363v4.492c0 .742-.606 1.348-1.348 1.348H2.185A1.352 1.352 0 01.837 8.855V4.363c0-.74.606-1.347 1.348-1.347h19.63c.742 0 1.348.606 1.348 1.347z" fill="#656D78"/>
  <g fill="#515760">
    <path d="M21.816 3.016h-1.348c.741 0 1.347.606 1.347 1.347v4.492c0 .742-.606 1.348-1.347 1.348h1.348c.74 0 1.347-.606 1.347-1.348V4.363c0-.74-.606-1.347-1.347-1.347zM19.861 5.262H4.14v2.695H19.86V5.262z"/>
  </g>
  <path d="M18.514 10.203v9.434H5.486V5.262h13.028v4.941z" fill="#8CC152"/>
  <path d="M18.064 19.637H5.936v1.347h12.128v-1.347z" fill="#81B242"/>
  <use xlink:href="#reuse-0"/>
  <use xlink:href="#reuse-0"/>
  <path d="M18.514 5.262H5.486v1.347h13.028V5.262z" fill="#81B242"/>
  <path d="M17.166 5.262H6.834v1.347h10.332V5.262z" fill="#8CC152"/>
  <path d="M18.514 6.61h-1.348v13.027h1.348V6.61z" fill="#81B242"/>
  <path d="M18.064 19.637h-1.347v1.347h1.348v-1.347z" fill="#75A037"/>
  <path d="M9.54 5.262a2.92 2.92 0 104.92 0H9.54z" fill="#8CC152"/>
  <path d="M9.09 6.61h5.82a2.901 2.901 0 00-.45-1.348H9.54a2.901 2.901 0 00-.45 1.347z" fill="#81B242"/>
  <path d="M21.815 2.679H2.185C1.255 2.679.5 3.434.5 4.363v4.492c0 .93.756 1.685 1.685 1.685h1.954a.337.337 0 100-.674H2.185c-.558 0-1.011-.453-1.011-1.01V4.362c0-.557.453-1.01 1.01-1.01h19.631c.558 0 1.011.453 1.011 1.01v4.492c0 .558-.453 1.011-1.01 1.011h-1.348a.337.337 0 000 .674h1.347c.93 0 1.685-.756 1.685-1.685V4.363c0-.929-.756-1.684-1.685-1.684z" fill="#000"/>
  <path d="M20.198 5.262a.337.337 0 00-.337-.337H4.14a.337.337 0 00-.337.337v2.695a.337.337 0 00.674 0V5.6h15.049v2.358a.337.337 0 00.673 0V5.262z" fill="#000"/>
  <path d="M18.514 6.272a.337.337 0 00-.337.337V19.3H5.823V6.61a.337.337 0 00-.674 0v13.027c0 .186.151.337.337.337H5.6v1.01c0 .186.15.337.337.337h12.128c.186 0 .337-.15.337-.337v-1.01h.113c.186 0 .337-.151.337-.337V6.609a.337.337 0 00-.337-.337zm-.787 14.376H6.273v-.674h11.454v.674z" fill="#000"/>
  <path d="M6.834 6.272a.337.337 0 00-.337.337v10.782c0 .186.15.337.337.337.31 0 .562.252.562.561 0 .186.15.337.336.337h8.535c.187 0 .337-.15.337-.337 0-.31.252-.561.562-.561.186 0 .337-.151.337-.337V6.609a.337.337 0 10-.674 0v10.492a1.24 1.24 0 00-.851.851H8.022a1.24 1.24 0 00-.851-.851V6.609a.337.337 0 00-.337-.337z" fill="#000"/>
  <path d="M15.257 6.834a.337.337 0 10-.674 0A2.586 2.586 0 0112 9.417a2.586 2.586 0 01-2.583-2.583.337.337 0 00-.674 0A3.26 3.26 0 0012 10.091a3.26 3.26 0 003.257-3.257z" fill="#000"/>
</svg>
