<svg width="24" height="24" fill="none" xmlns="http://www.w3.org/2000/svg">
  <defs/>
  <path d="M21.993 9.648a.367.367 0 00-.424.6c.546.385 1.197 1 1.197 1.746 0 1.155-1.614 2.36-4.338 3.123a23.714 23.714 0 00-1.216-3.169c.481-1.05.876-2.09 1.173-3.082.716.198 1.373.43 1.955.694a.366.366 0 10.303-.669 14.102 14.102 0 00-2.062-.73 14.55 14.55 0 00.345-1.77c.298-.067.56-.255.715-.524.147-.255.186-.551.11-.835a1.094 1.094 0 00-.802-.784c-.149-1.057-.576-1.815-1.245-2.202-1.131-.653-2.789-.176-4.667 1.343a15.26 15.26 0 00-1.054.941c-.355-.346-.711-.665-1.066-.952C9.039 1.858 7.38 1.382 6.25 2.035 5.575 2.425 5.147 3.192 5 4.261a1.1 1.1 0 00.026 2.119c.073.567.19 1.168.352 1.792-.612.17-1.183.364-1.704.581a1.102 1.102 0 00-1.837 1.02C.963 10.44.5 11.203.5 11.993c0 1.307 1.242 2.504 3.496 3.37.422.163.87.31 1.342.443-.194.75-.327 1.466-.393 2.132a.367.367 0 10.73.072c.063-.63.189-1.308.373-2.02 1.032.248 2.157.428 3.338.535.67.95 1.375 1.818 2.089 2.577-2.035 2-3.899 2.806-4.904 2.226-.646-.373-.854-1.244-.915-1.91a.367.367 0 10-.73.067c.109 1.202.55 2.06 1.278 2.479.33.19.706.285 1.12.285 1 0 2.218-.553 3.547-1.628.37-.3.742-.634 1.112-.998.468.46.936.87 1.399 1.22l-.001.004c-.076.284-.037.58.11.836a1.105 1.105 0 001.504.403c.079-.046.15-.1.212-.16.51.207.987.31 1.422.31.416 0 .792-.094 1.12-.284 1.132-.653 1.548-2.326 1.172-4.712a15.385 15.385 0 00-.298-1.423c.486-.136.948-.287 1.38-.454 2.255-.867 3.497-2.063 3.497-3.37 0-.84-.521-1.65-1.507-2.346zm-4.276 5.651c-.793.187-1.664.338-2.605.443a29.42 29.42 0 001.685-2.928c.37.847.678 1.682.92 2.485zm-9.153-5.25c.385-.668.78-1.295 1.181-1.88a28.175 28.175 0 014.47-.003A28.979 28.979 0 0116.4 11.95a28.945 28.945 0 01-2.23 3.879c-.692.052-1.417.08-2.171.08-.768 0-1.505-.029-2.208-.083a28.21 28.21 0 01-2.233-3.874c.304-.635.64-1.272 1.005-1.904zm-1.397 1.038a22.418 22.418 0 01-.88-2.391c.786-.185 1.63-.33 2.514-.434a29.435 29.435 0 00-1.634 2.825zm4.815-5.719c.557.59 1.123 1.266 1.684 2.025a29.069 29.069 0 00-3.37.003 21.937 21.937 0 011.686-2.028zm4.81 5.718a29.562 29.562 0 00-1.635-2.829c.884.102 1.73.246 2.517.43a22.37 22.37 0 01-.881 2.399zM19.006 5.5a.369.369 0 01-.501.134.364.364 0 01-.135-.5.368.368 0 01.28-.182l.039-.003a.365.365 0 01.317.55zm-1.668-2.818c.56.323.791 1.02.882 1.64a1.102 1.102 0 00-.595 1.28 1.094 1.094 0 00.574.7c-.068.531-.178 1.093-.327 1.677a23.962 23.962 0 00-3.253-.515 23.633 23.633 0 00-2.124-2.615c2.01-1.956 3.848-2.742 4.843-2.167zM4.958 5.222a.365.365 0 01.352-.272h.007a.369.369 0 01.35.462.365.365 0 01-.354.272.369.369 0 01-.355-.462zm.802 1.1a1.094 1.094 0 00.616-.72 1.103 1.103 0 00-.64-1.3c.092-.618.324-1.31.881-1.631.997-.576 2.84.213 4.855 2.178a23.6 23.6 0 00-2.13 2.619 23.896 23.896 0 00-3.253.521c-.15-.58-.26-1.14-.329-1.667zM3.284 9.55a.367.367 0 11-.734 0 .367.367 0 01.734 0zm-2.05 2.444c0-.648.49-1.199.988-1.59A1.102 1.102 0 004.01 9.41c.48-.198 1.005-.376 1.567-.532.297.99.692 2.025 1.172 3.072a23.997 23.997 0 00-1.213 3.156c-2.702-.763-4.301-1.962-4.301-3.112zm5.01 3.296c.242-.799.551-1.63.92-2.475a29.033 29.033 0 001.684 2.922 21.932 21.932 0 01-2.603-.447zM12 16.643c.549 0 1.092-.015 1.626-.044a22.06 22.06 0 01-1.639 1.979 22.511 22.511 0 01-1.645-1.981c.544.03 1.098.046 1.658.046zm2.127 4.674a.365.365 0 01.005-.376l.002-.003.007-.011a.364.364 0 01.303-.161.367.367 0 11-.317.55zm4.069-3.962c.32 2.035.024 3.48-.813 3.963-.555.32-1.268.177-1.846-.05A1.105 1.105 0 0013.8 20.24a13.95 13.95 0 01-1.305-1.14 23.741 23.741 0 002.08-2.57A23.72 23.72 0 0017.912 16c.12.465.215.918.284 1.354z" fill="#082947"/>
  <path d="M2.55 9.55a.367.367 0 10.736 0 .367.367 0 00-.735 0z" fill="#6DA8D6"/>
  <path d="M14.762 20.95a.369.369 0 00-.501-.135.364.364 0 00-.12.112l-.007.011-.002.003a.37.37 0 00-.005.376.369.369 0 00.5.134.367.367 0 00.135-.502z" fill="#F2484B"/>
  <path d="M18.871 4.999a.361.361 0 00-.22-.047.369.369 0 00-.318.46.365.365 0 00.354.272.369.369 0 00.355-.462.365.365 0 00-.171-.223z" fill="#6DA8D6"/>
  <path d="M5.313 5.684a.364.364 0 00.317-.55.369.369 0 00-.313-.184H5.31a.365.365 0 00-.315.55.369.369 0 00.318.184z" fill="#F2484B"/>
  <path d="M12 13.83a1.837 1.837 0 001.835-1.836A1.837 1.837 0 0012 10.16a1.837 1.837 0 00-1.835 1.835c0 1.012.823 1.835 1.835 1.835z" fill="#FFCC75"/>
  <path d="M12 14.564a2.572 2.572 0 002.569-2.57 2.572 2.572 0 00-2.57-2.569 2.572 2.572 0 00-2.568 2.57A2.572 2.572 0 0012 14.563zm0-4.405c1.012 0 1.835.823 1.835 1.835A1.837 1.837 0 0112 13.83a1.837 1.837 0 01-1.835-1.835c0-1.011.823-1.835 1.835-1.835z" fill="#082947"/>
</svg>
