<svg width="24" height="24" fill="none" xmlns="http://www.w3.org/2000/svg">
  <defs/>
  <path d="M10.303 23.119c-2.306-.022-4.148-1.936-4.148-4.242V6.784C6.155 3.562 8.738.899 11.96.88a5.845 5.845 0 015.873 5.839v7.463a.762.762 0 01-1.523 0V6.775c0-2.376-1.897-4.348-4.273-4.37A4.32 4.32 0 007.678 6.72v12.166c0 1.46 1.155 2.682 2.615 2.71a2.668 2.668 0 002.716-2.666V7.252c0-.55-.426-1.019-.976-1.04a1.016 1.016 0 00-1.054 1.015v8.886a.762.762 0 01-1.524 0V7.27c0-1.39 1.1-2.554 2.49-2.58a2.541 2.541 0 012.588 2.537V18.93a4.193 4.193 0 01-4.23 4.189z" fill="#FCD577"/>
  <path d="M11.944 4.308c-1.579.03-2.863 1.359-2.863 2.962v8.843c0 .63.512 1.142 1.142 1.142.63 0 1.142-.513 1.142-1.142V7.227a.63.63 0 01.195-.457.63.63 0 01.465-.177c.336.013.61.308.61.66v7.988a.38.38 0 10.761 0V7.252c0-.768-.59-1.391-1.342-1.42a1.385 1.385 0 00-1.022.39 1.384 1.384 0 00-.428 1.005v8.886a.381.381 0 01-.762 0V7.27c0-1.191.95-2.178 2.116-2.2a2.145 2.145 0 011.552.618c.418.41.648.956.648 1.54V18.93a3.78 3.78 0 01-1.13 2.705 3.785 3.785 0 01-2.716 1.103c-2.079-.02-3.77-1.752-3.77-3.861v-7.385a.38.38 0 10-.762 0v7.385c0 2.525 2.03 4.599 4.525 4.623h.045c1.21 0 2.35-.47 3.214-1.324a4.537 4.537 0 001.355-3.246V7.227c0-.789-.31-1.529-.875-2.083a2.897 2.897 0 00-2.1-.836z" fill="#000"/>
  <path d="M15.99 1.952a.38.38 0 10-.489.584 5.449 5.449 0 011.957 4.184v7.463a.381.381 0 01-.761 0V6.775c0-2.595-2.086-4.727-4.65-4.752a4.668 4.668 0 00-3.35 1.361A4.663 4.663 0 007.304 6.72v12.166c0 1.673 1.34 3.06 2.987 3.09h.06c.802 0 1.557-.308 2.132-.872.589-.578.913-1.35.913-2.174v-2.42a.38.38 0 00-.761 0v2.42c0 .618-.244 1.197-.686 1.63a2.274 2.274 0 01-1.643.655c-1.236-.023-2.24-1.068-2.24-2.33V6.72c0-1.057.414-2.05 1.167-2.795a3.899 3.899 0 012.806-1.14c2.148.02 3.896 1.81 3.896 3.99v7.408c0 .63.513 1.143 1.142 1.143.63 0 1.143-.513 1.143-1.143V6.72c0-1.843-.813-3.58-2.23-4.768z" fill="#000"/>
  <path d="M6.161 10.604c.21 0 .38-.17.38-.381v-3.44c0-3.027 2.435-5.504 5.427-5.521h.033c.871 0 1.704.2 2.476.595a.38.38 0 10.347-.678A6.222 6.222 0 0011.964.5C8.554.52 5.78 3.34 5.78 6.784v3.439c0 .21.17.38.381.38z" fill="#000"/>
</svg>
