<svg width="24" height="24" fill="none" xmlns="http://www.w3.org/2000/svg">
  <defs/>
  <g fill-rule="evenodd" clip-rule="evenodd">
    <path d="M4.896 21.588c.85 0 1.547-.697 1.547-1.55V16.13h-1.91c-.79 0-1.757-.588-2.149-1.428l-.95-2.04c-.03 2.451 0 4.924 0 7.377 0 .852.696 1.55 1.547 1.55h1.915z" fill="#838383"/>
    <path d="M9.771 18.939h4.458c.936 0 1.7-.767 1.702-1.704l.003-1.105H8.068v1.105a1.708 1.708 0 001.703 1.704z" fill="#ECECEC"/>
    <path d="M11.366 16.13h8.102c.79 0 1.757-.588 2.148-1.428l.951-2.04.394-.844c.584-1.251-.259-1.82-.735-1.82H1.775c-.477 0-1.319.569-.736 1.82l.394.844.95 2.04c.393.84 1.36 1.428 2.15 1.428h6.833z" fill="#FE636E"/>
    <path d="M21.02 21.588c.851 0 1.548-.697 1.548-1.55 0-2.452.028-4.925-.001-7.376l-.951 2.04c-.391.84-1.358 1.428-2.148 1.428h-1.911V20.038c0 .853.696 1.55 1.548 1.55h1.914z" fill="#838383"/>
    <path d="M14.37 6.963h1.637V2.422h-.712a.929.929 0 00-.925.927v3.614zM9.631 6.964V3.337a.929.929 0 00-.926-.925h-.712v4.552h1.638zM4.256 4.025V2.412h-.644c-1.217 0-1.217 1.613 0 1.613h.644zM20.389 4.037c1.216 0 1.217-1.615 0-1.615h-.644v1.615h.644z" fill="#ECECEC"/>
    <path d="M21.616 14.702l.951-2.04.394-.844c.584-1.251-.258-1.82-.735-1.82h-2.904c.477 0 1.318.569.735 1.82l-.257.551h.01c.56 0 1.02.459 1.02 1.02 0 .56-.46 1.018-1.02 1.018h-.961l-.137.295c-.392.84-1.358 1.428-2.148 1.428h2.905c.79 0 1.756-.588 2.147-1.428z" fill="#FB2A39"/>
    <path d="M19.759 17.484c.384 0 .804-.116 1.197-.302.573-.27.415.176.412 1.097-.005 1.158-.01 1.631-.01 2.786 0 .175-.034.346-.097.504a1.555 1.555 0 001.307-1.53c0-1.583.012-3.175.012-4.763 0-.873-.002-1.744-.013-2.614l-.951 2.04c-.391.84-1.358 1.428-2.148 1.428h-1.911v1.354h2.202z" fill="#595959"/>
    <path d="M9.631 6.964V3.337a.929.929 0 00-.926-.925h-.712v.005c.46.054.82.448.82.92v3.627h.818zM16.007 6.963V2.422h-.711c-.049 0-.096.004-.144.011h.037v4.53h.818z" fill="#CECECE"/>
    <path d="M4.256 2.412h3.737v1.613H4.256V2.412z" fill="#9B9B9B"/>
    <path d="M7.166 14.407c.56 0 1.019-.459 1.019-1.019 0-.56-.459-1.019-1.019-1.019H4.81c-.56 0-1.019.46-1.019 1.02s.459 1.018 1.019 1.018h2.357zM17.453 14.407h2.358c.56 0 1.018-.459 1.018-1.019 0-.56-.458-1.019-1.018-1.019h-2.358c-.56 0-1.018.46-1.018 1.02s.458 1.018 1.018 1.018z" fill="#A6E7F0"/>
    <path d="M4.533 17.484h.68v2.555c0 .852-.697 1.55-1.55 1.55h1.233c.85 0 1.547-.698 1.547-1.55v-3.91h-1.91c-.79 0-1.757-.587-2.149-1.427l-.95-2.04c-.005.354-.012.895-.017 1.687.008 2.46 2.014 3.135 3.116 3.135z" fill="#595959"/>
    <path d="M20.829 13.388c0-.56-.459-1.019-1.019-1.019h-.961c.561 0 1.018.46 1.018 1.02s-.457 1.018-1.018 1.018h.961c.56 0 1.019-.459 1.019-1.019zM8.185 13.383a1.02 1.02 0 00-1.018-1.018h-.961c.56 0 1.018.458 1.018 1.018 0 .561-.459 1.019-1.019 1.019h.962c.56 0 1.018-.458 1.018-1.02z" fill="#6BD9E7"/>
    <path d="M16.007 2.422h3.738v1.615h-3.738V2.422z" fill="#9B9B9B"/>
    <path d="M8.068 16.13h7.863v1.105H8.068V16.13z" fill="#CECECE"/>
    <path d="M13.925 11.26l5.397-1.261V8.494c0-.842-.689-1.53-1.53-1.53H6.207c-.84 0-1.528.688-1.528 1.53v1.505l5.397 1.26 1.448.332c.36.083.617.076.943.002l1.458-.333z" fill="#FFD659"/>
    <path d="M19.322 8.494c0-.842-.688-1.53-1.53-1.53h-2.604c.842 0 1.529.7 1.529 1.54v2.104l2.605-.61V8.495z" fill="#FFBF00"/>
  </g>
  <path d="M23.286 10.27c-.269-.422-.726-.61-1.06-.61h-2.565V8.493c0-1.031-.838-1.87-1.869-1.87h-1.446V4.375h4.043c.822 0 1.252-.577 1.252-1.147 0-.57-.43-1.146-1.252-1.146h-5.094c-.697 0-1.264.568-1.264 1.266v1.159H9.97v-1.17c0-.698-.568-1.266-1.266-1.266H3.612c-.823 0-1.253.577-1.253 1.146 0 .57.43 1.146 1.253 1.146h4.041v2.26H6.207c-1.03 0-1.868.839-1.868 1.87V9.66H1.775c-.334 0-.792.19-1.06.611-.204.32-.366.871.016 1.692l.361.774a311.807 311.807 0 00-.006 4.848c.004.806.007 1.639.007 2.455a1.89 1.89 0 001.887 1.889h1.915a1.89 1.89 0 001.887-1.89v-1.482l1.333-.127c.372.514.975.85 1.656.85h4.458c.68 0 1.283-.336 1.654-.85l1.334.127v1.483a1.89 1.89 0 001.889 1.889h1.913a1.89 1.89 0 001.889-1.89c0-.803.003-1.622.006-2.415.006-1.604.012-3.261-.007-4.887l.361-.774c.383-.82.221-1.372.018-1.691zm-3.201-7.508h.304c.423 0 .573.252.573.467 0 .216-.15.468-.573.468h-.304v-.935zm-3.739 0h3.06v.935h-3.06v-.935zm-1.636.587c0-.323.262-.587.585-.587h.372V6.623h-.957V3.348zm-6.378.676V2.75h.372c.324 0 .587.263.587.586v3.287h-.959v-2.6zm-4.416-.34h-.304c-.424 0-.574-.251-.574-.467 0-.215.15-.467.574-.467h.304v.934zm.679 0v-.934h3.058v.934H4.595zm.423 4.809c0-.657.534-1.19 1.19-1.19h4.989a.34.34 0 100-.68H9.97V5.187h4.06v1.435h-1.183a.34.34 0 000 .678l3.072.002a.34.34 0 00.175 0l1.698.001c.656 0 1.19.534 1.19 1.191V9.73l-5.132 1.2-1.458.333c-.291.066-.498.066-.792-.002l-1.447-.33-5.135-1.2V8.494zm1.085 8.65h-.55a.34.34 0 100 .68h.55V18.789h-.55a.34.34 0 100 .679h.55v.571a1.21 1.21 0 01-1.208 1.21H2.98a1.21 1.21 0 01-1.208-1.21v-.571h.55a.34.34 0 100-.68H1.77l-.004-.964h.557a.34.34 0 000-.68h-.56a392.08 392.08 0 01-.002-2.974l.315.676c.432.925 1.488 1.623 2.457 1.623h1.57v.676zm.679.73v-1.405h.947v.766c0 .188.026.37.073.542l-1.02.097zm7.447.725H9.771a1.364 1.364 0 01-1.363-1.364v-.766h2.621a.34.34 0 000-.679H4.533c-.699 0-1.525-.552-1.842-1.231l-.943-2.024a.335.335 0 00-.016-.033l-.385-.827c-.2-.428-.22-.788-.06-1.04a.644.644 0 01.488-.297H4.64L10 11.591l1.448.331c.199.046.375.069.551.069.174 0 .348-.023.544-.067l1.46-.334 5.358-1.252h2.865c.115 0 .35.08.488.297.16.252.139.612-.061 1.04l-.386.827a.318.318 0 00-.015.033l-.944 2.024c-.354.76-1.23 1.231-1.84 1.231H12.7a.34.34 0 000 .68h2.894l-.002.765a1.366 1.366 0 01-1.363 1.364zm1.968-.822a2.04 2.04 0 00.073-.54l.002-.768h.945v1.405l-1.02-.097zm6.04-.632h-.56a.34.34 0 100 .679h.557l-.003.965h-.554a.34.34 0 000 .679h.552v.571a1.21 1.21 0 01-1.21 1.21h-1.913a1.21 1.21 0 01-1.21-1.21v-.571h.55a.34.34 0 000-.68h-.55v-.542-.422h.55a.34.34 0 000-.68h-.55v-.675h1.572c.97 0 2.025-.698 2.456-1.623l.315-.677c.004.996.001 1.994-.002 2.976z" fill="#000"/>
  <path d="M14.71 13.81a.34.34 0 00-.34-.34H9.63a.34.34 0 000 .679h4.74a.34.34 0 00.34-.34zM17.453 14.747h2.357a1.36 1.36 0 001.358-1.359 1.36 1.36 0 00-1.358-1.358h-2.357a1.36 1.36 0 00-1.358 1.358c0 .75.609 1.359 1.358 1.359zm0-2.038h2.357a.68.68 0 010 1.359h-2.357a.68.68 0 010-1.36zM7.166 12.03H4.808a1.36 1.36 0 00-1.358 1.358c0 .75.61 1.359 1.358 1.359h2.358a1.36 1.36 0 001.358-1.359 1.36 1.36 0 00-1.358-1.358zm0 2.038H4.808a.68.68 0 010-1.359h2.358a.68.68 0 010 1.359zM10.579 9.647h2.843a.34.34 0 000-.68h-2.843a.34.34 0 100 .68z" fill="#000"/>
</svg>
