<svg width="24" height="24" fill="none" xmlns="http://www.w3.org/2000/svg">
  <defs/>
  <path d="M7.887 12.684v10.288l4.213-3.478 4.017 3.478V12.684L12.019 9.53l-4.132 3.154z" fill="#A0758E"/>
  <path d="M16.117 15.1v-2.416L12.019 9.53l-4.132 3.154v2.234l1.154 1.807 2.989-1.167 2.701 1.248 1.386-1.707z" fill="#826075"/>
  <path d="M12.05 1.028l2.051 1.72h2.676l.465 2.636 2.05 1.72-1.338 2.318.465 2.636-2.515.915-1.338 2.318-2.515-.916-2.515.916-1.338-2.318-2.515-.915.465-2.636L4.81 7.104l2.05-1.72.464-2.636h2.677l2.05-1.72z" fill="#FFEFCA"/>
  <path d="M12.076 12.741a4.31 4.31 0 100-8.622 4.31 4.31 0 000 8.622z" fill="#FFDFA1"/>
  <path d="M12.025 12.967a4.693 4.693 0 004.688-4.688 4.694 4.694 0 00-4.688-4.688A4.693 4.693 0 007.337 8.28a4.693 4.693 0 004.688 4.688zm0-8.621a3.938 3.938 0 013.934 3.933 3.938 3.938 0 01-3.934 3.934A3.938 3.938 0 018.091 8.28a3.938 3.938 0 013.934-3.933z" fill="#000"/>
  <path d="M4.432 7.142l1.27 2.199-.441 2.5c-.032.18.07.358.242.42l1.956.712v10.15a.377.377 0 00.617.29l3.968-3.274 3.775 3.269a.377.377 0 00.625-.285v-3.527a.377.377 0 00-.755 0v2.701l-3.393-2.938a.377.377 0 00-.487-.005l-3.595 2.968v-8.63l.945 1.637a.377.377 0 00.456.165L12 14.627l2.386.868a.374.374 0 00.456-.165l.847-1.468v3.383a.377.377 0 10.755 0V13.01l2.053-.748a.377.377 0 00.243-.42l-.441-2.5 1.27-2.199a.377.377 0 00-.085-.478L17.54 5.033l-.44-2.501a.377.377 0 00-.372-.312h-2.54L12.244.588a.377.377 0 00-.485 0L9.813 2.22h-2.54a.377.377 0 00-.37.312l-.441 2.5-1.945 1.632a.377.377 0 00-.085.478zm2.62-1.62A.377.377 0 007.18 5.3l.41-2.324h2.36a.377.377 0 00.242-.088L12 1.37l1.808 1.517a.377.377 0 00.242.088h2.36l.41 2.324a.377.377 0 00.129.223l1.808 1.517-1.18 2.044a.377.377 0 00-.045.254l.41 2.324-2.218.807a.377.377 0 00-.197.166l-1.18 2.043-2.218-.807a.38.38 0 00-.258 0l-2.217.807-1.18-2.043a.377.377 0 00-.198-.166L6.06 11.66l.41-2.324a.377.377 0 00-.045-.254l-1.18-2.044 1.808-1.517z" fill="#000"/>
  <path d="M11.091 8.317l.777-.777v2.458a.377.377 0 10.754 0V6.629a.377.377 0 00-.644-.267l-1.42 1.421a.377.377 0 00.533.534z" fill="#000"/>
</svg>
