<svg width="24" height="24" fill="none" xmlns="http://www.w3.org/2000/svg">
  <defs/>
  <path d="M12.143 5.798V3.754h-8.03v2.044c0 .445-.36.806-.806.806a2.469 2.469 0 00-2.47 2.469v5.141a3.318 3.318 0 003.318 3.318h7.946a3.318 3.318 0 003.318-3.318V9.073a2.469 2.469 0 00-2.47-2.47.806.806 0 01-.806-.805z" fill="#A5E4EF"/>
  <path d="M13.203 6.617c.008.083.013.168.013.253v5.142a3.318 3.318 0 01-3.318 3.317H1.953c-.338 0-.664-.05-.97-.144a3.319 3.319 0 003.172 2.347h7.946a3.318 3.318 0 003.318-3.318v-5.14a2.47 2.47 0 00-2.216-2.457z" fill="#67D8E4"/>
  <path d="M11.823 10.848c-.146-.018-.304.045-.453.171a3.292 3.292 0 00-6.483 0c-.148-.126-.307-.19-.452-.171-.57.069-.782.623-.58 1.16.191.508.71.937 1.22.814a3.292 3.292 0 006.107 0c.51.123 1.03-.306 1.22-.813.202-.538-.009-1.092-.58-1.162z" fill="#FFEBD7"/>
  <path d="M11.822 10.848c-.145-.018-.303.045-.451.171a3.295 3.295 0 00-1.63-2.298 3.292 3.292 0 01-4.127 4.993 3.292 3.292 0 005.568-.892c.51.123 1.029-.306 1.22-.813.202-.538-.01-1.092-.58-1.161z" fill="#FFE2CA"/>
  <path d="M12.84 5.647H3.417a.53.53 0 01-.53-.53v-1.32a.53.53 0 01.53-.53h9.425a.53.53 0 01.53.53v1.32a.53.53 0 01-.53.53z" fill="#FB9539"/>
  <path d="M12.9 3.268h-.573v.865c0 .26-.21.47-.47.47H2.886v.574c0 .26.21.47.47.47H12.9c.26 0 .47-.21.47-.47v-1.44a.47.47 0 00-.47-.47z" fill="#FC7601"/>
  <path d="M19.97 17.577c0 1.443-1.51 2.612-3.372 2.612-1.862 0-9.03-1.17-9.03-2.612 0-1.443 7.168-2.612 9.03-2.612 1.863 0 3.373 1.17 3.373 2.612z" fill="#FB9539"/>
  <path d="M18.753 15.568c.013.091.02.184.02.278 0 1.442-1.51 2.612-3.373 2.612-1.315 0-5.274-.583-7.488-1.434-.22.178-.344.363-.344.553 0 1.443 7.168 2.612 9.03 2.612 1.863 0 3.373-1.17 3.373-2.612 0-.808-.474-1.53-1.218-2.009z" fill="#FC7601"/>
  <path d="M5.305 18.69a1.112 1.112 0 100-2.225 1.112 1.112 0 000 2.224zM2.885 20.732a1.112 1.112 0 100-2.224 1.112 1.112 0 000 2.224z" fill="#4ACB8C"/>
  <path d="M5.755 16.56a1.112 1.112 0 01-1.467 1.466 1.112 1.112 0 101.467-1.466zM3.336 18.604a1.112 1.112 0 01-1.467 1.466 1.112 1.112 0 101.467-1.466z" fill="#13B766"/>
  <path d="M4.865 13.181a3.613 3.613 0 003.263 2.04 3.614 3.614 0 003.264-2.04c.593-.015 1.12-.504 1.326-1.053.15-.398.126-.807-.066-1.123a1.045 1.045 0 00-.789-.493.773.773 0 00-.264.014 3.619 3.619 0 00-2.132-2.31.338.338 0 00-.616-.183 3.646 3.646 0 00-.405-.057.338.338 0 00-.636 0 3.64 3.64 0 00-.375.052.337.337 0 00-.611.174 3.62 3.62 0 00-2.166 2.324.771.771 0 00-.264-.014 1.045 1.045 0 00-.79.493c-.191.316-.215.725-.065 1.123.206.549.732 1.038 1.326 1.053zm-.683-1.826c.06-.098.158-.156.293-.172.033-.003.104.018.193.094a.338.338 0 00.552-.2 2.944 2.944 0 011.708-2.186.336.336 0 00.565-.185c.108-.024.218-.041.33-.052a.338.338 0 00.611 0c.124.012.245.032.364.06a.338.338 0 00.553.187 2.944 2.944 0 011.686 2.177.338.338 0 00.551.2c.09-.077.16-.098.194-.095.135.016.233.074.292.172.082.136.087.335.012.535-.134.355-.498.683-.825.604a.338.338 0 00-.393.202 2.942 2.942 0 01-2.74 1.85 2.942 2.942 0 01-2.74-1.85.338.338 0 00-.392-.202c-.328.079-.691-.248-.825-.604-.075-.2-.07-.4.011-.535z" fill="#000"/>
  <path d="M23.261 18.986l-2.994-.92 2.849.397a.338.338 0 00.093-.67l-1.555-.216 1.555-.216a.338.338 0 00-.093-.67l-2.848.397 2.993-.92a.338.338 0 00-.198-.645l-3.034.931c-.557-1.071-1.884-1.827-3.43-1.827-.223 0-.52.016-.871.048a3.68 3.68 0 00.029-.46V9.072a2.81 2.81 0 00-2.807-2.807.469.469 0 01-.43-.281h.317c.48 0 .872-.391.872-.872V3.801a.873.873 0 00-.872-.871H3.42a.873.873 0 00-.872.871v1.312c0 .48.391.872.872.872h.316a.469.469 0 01-.43.281A2.81 2.81 0 00.5 9.073v3.182a.338.338 0 10.676 0V9.073c0-1.175.956-2.131 2.13-2.131.568 0 1.04-.415 1.13-.957h5.282a.338.338 0 100-.676H3.42a.196.196 0 01-.196-.196V3.801c0-.108.088-.196.196-.196h9.417c.108 0 .196.088.196.196v1.312a.196.196 0 01-.196.196h-1.535a.338.338 0 100 .676h.52c.089.542.56.957 1.128.957 1.175 0 2.13.956 2.13 2.131v5.141c0 .18-.015.358-.047.534-1.082.129-2.45.356-3.724.653-1.143.267-2.06.553-2.729.85-.663.296-1.077.607-1.252.943h-.625a1.452 1.452 0 00-1.398-1.067c-.663 0-1.223.448-1.395 1.056a2.983 2.983 0 01-2.734-2.969v-.442a.338.338 0 10-.676 0v.442a3.66 3.66 0 003.383 3.644 1.452 1.452 0 001.422 1.169c.7 0 1.284-.498 1.42-1.157h.562c.145.37.571.71 1.293 1.033.668.297 1.586.584 2.729.85 2.047.478 4.34.774 5.29.774.411 0 .815-.053 1.2-.157a.338.338 0 10-.176-.652 3.925 3.925 0 01-1.024.134c-.913 0-3.136-.29-5.137-.757-2.812-.656-3.555-1.28-3.555-1.518s.743-.861 3.555-1.518c2-.467 4.224-.756 5.137-.756 1.247 0 2.32.566 2.786 1.374a1.012 1.012 0 00-.521.894v.032c.01.375.205.697.52.873-.144.25-.348.48-.608.681a.338.338 0 10.414.534c.37-.285.653-.622.842-.99l3.03.93a.339.339 0 00.423-.223.338.338 0 00-.224-.422zM5.305 18.35a.775.775 0 11.002-1.55.775.775 0 01-.002 1.55z" fill="#000"/>
  <path d="M15.424 16.212v.618a.338.338 0 00.675 0v-.618a.338.338 0 10-.675 0zM12.104 16.717v.619a.338.338 0 10.676 0v-.619a.338.338 0 10-.675 0zM13.281 17.819v.618a.338.338 0 00.676 0v-.618a.338.338 0 00-.676 0zM2.886 18.17c-.8 0-1.45.651-1.45 1.45 0 .8.65 1.45 1.45 1.45.8 0 1.45-.65 1.45-1.45 0-.799-.65-1.45-1.45-1.45zm0 2.224a.775.775 0 010-1.548.775.775 0 010 1.549zM7.018 11.685a.564.564 0 100-1.128.564.564 0 000 1.128zM9.296 11.685a.564.564 0 100-1.128.564.564 0 000 1.128zM7.303 12.466a.338.338 0 00-.019.477c.218.235.525.37.845.37.319 0 .627-.135.844-.37a.338.338 0 00-.496-.459.47.47 0 01-.348.152.47.47 0 01-.349-.152.338.338 0 00-.477-.018z" fill="#000"/>
</svg>
