<svg width="24" height="24" fill="none" xmlns="http://www.w3.org/2000/svg">
  <defs/>
  <path d="M3.814 2.662H1.58v1.626c0 .15.12.27.27.27h1.693a.27.27 0 00.27-.27V2.662z" fill="#FABE2C"/>
  <path d="M2.825 2.662v1.626a.27.27 0 01-.27.27h.989a.27.27 0 00.27-.27V2.662h-.989z" fill="#FD9E28"/>
  <path d="M3.814 22.082H1.58v-1.626c0-.149.12-.27.27-.27h1.693c.15 0 .27.121.27.27v1.626z" fill="#FABE2C"/>
  <path d="M2.825 22.082v-1.626a.27.27 0 00-.27-.27h.989c.149 0 .27.121.27.27v1.626h-.989z" fill="#FD9E28"/>
  <path d="M4.288 21.675H1.106a.27.27 0 00-.27.27v.948c0 .15.122.27.27.27h3.182a.27.27 0 00.27-.27v-.949a.27.27 0 00-.27-.27z" fill="#898989"/>
  <path d="M4.288 21.675H3.3c.149 0 .27.12.27.27v.948a.27.27 0 01-.27.27h.988a.27.27 0 00.27-.27v-.949a.27.27 0 00-.27-.27z" fill="#727575"/>
  <path d="M22.42 2.662h-2.234v1.626c0 .15.121.27.27.27h1.694a.27.27 0 00.27-.27V2.662z" fill="#FABE2C"/>
  <path d="M21.43 2.662v1.626a.27.27 0 01-.269.27h.988a.27.27 0 00.27-.27V2.662h-.988z" fill="#FD9E28"/>
  <path d="M22.42 22.082h-2.234v-1.626c0-.149.121-.27.27-.27h1.694c.149 0 .27.121.27.27v1.626z" fill="#FABE2C"/>
  <path d="M21.43 22.082v-1.626a.27.27 0 00-.269-.27h.988c.15 0 .27.121.27.27v1.626h-.988z" fill="#FD9E28"/>
  <path d="M22.894 21.675h-3.182a.27.27 0 00-.27.27v.948c0 .15.121.27.27.27h3.182a.27.27 0 00.27-.27v-.949a.27.27 0 00-.27-.27z" fill="#898989"/>
  <path d="M22.894 21.675h-.989c.15 0 .27.12.27.27v.948a.27.27 0 01-.27.27h.989a.27.27 0 00.27-.27v-.949a.27.27 0 00-.27-.27z" fill="#727575"/>
  <path d="M.837 2.8V1.107c0-.15.12-.27.27-.27h21.787c.148 0 .27.12.27.27V2.8a.27.27 0 01-.27.27H1.106a.27.27 0 01-.27-.27z" fill="#AAEBF9"/>
  <path d="M22.894.837h-.98c.148 0 .269.12.269.27V2.8a.27.27 0 01-.27.27h.981a.27.27 0 00.27-.27V1.107a.27.27 0 00-.27-.27z" fill="#7BE2F6"/>
  <path d="M18.8 19.442H5.2a.27.27 0 01-.27-.27V1.955h14.14v17.219a.27.27 0 01-.27.27z" fill="#EDE9E8"/>
  <path d="M18.082 1.954v17.219a.27.27 0 01-.27.27h.989a.27.27 0 00.27-.27V1.953h-.989z" fill="#DFD7D5"/>
  <path d="M21.64 4.895h.779c.186 0 .337-.15.337-.337V3.407h.407c.186 0 .337-.151.337-.337V.837A.337.337 0 0023.163.5H.837A.337.337 0 00.5.837V3.07c0 .186.15.337.337.337h.407v1.151c0 .186.15.337.337.337h.78v14.954h-.78a.337.337 0 00-.337.337v1.152H.837a.337.337 0 00-.337.337v1.488c0 .186.15.337.337.337h3.72c.187 0 .338-.151.338-.337v-1.488a.337.337 0 00-.337-.337H4.15v-1.152a.337.337 0 00-.337-.337h-.78v-6.024h1.56v5.617c0 .186.15.337.336.337h14.14c.186 0 .337-.151.337-.337v-5.617h1.559v6.024h-.78a.337.337 0 00-.337.337v1.152h-.407a.337.337 0 00-.337.337v1.488c0 .186.15.337.337.337h3.72c.187 0 .338-.151.338-.337v-1.488a.337.337 0 00-.337-.337h-.407v-1.152a.337.337 0 00-.337-.337h-.78V4.895zM4.22 22.826H1.174v-.814H4.22v.814zm-.744-1.488H1.918v-.815h1.559v.815zm19.349 1.488h-3.047v-.814h3.047v.814zm-.744-1.488h-1.559v-.815h1.559v.815zm0-17.117h-1.559v-.814h1.559v.814zM1.174 1.174h21.652v1.559h-3.419V2.29h.407a.337.337 0 100-.673H4.186a.337.337 0 100 .673h.407v.443h-3.42V1.174zm.744 2.233h1.559v.814H1.918v-.814zm1.116 9.745V4.895h.78c.186 0 .337-.15.337-.337V3.407h.442v9.745H3.034zm15.7 5.953H5.266V2.29h13.466v16.815zm.673-5.953V3.407h.442v1.151c0 .186.151.337.337.337h.78v8.257h-1.559z" fill="#000"/>
  <path d="M17.21 17.617H9.404a.337.337 0 000 .674h7.804a.337.337 0 100-.674zM8.057 17.617H6.79a.337.337 0 000 .674h1.267a.337.337 0 000-.674z" fill="#000"/>
</svg>
