<svg width="24" height="24" fill="none" xmlns="http://www.w3.org/2000/svg">
  <defs/>
  <path d="M8.753 23.163h-.95a.27.27 0 01-.269-.27v-1.908h1.489v1.909a.27.27 0 01-.27.27zM16.195 23.163h-.949a.27.27 0 01-.27-.27v-1.908h1.489v1.909a.27.27 0 01-.27.27z" fill="#58565C"/>
  <path d="M8.124 20.985v1.909a.27.27 0 01-.27.27h.899a.27.27 0 00.27-.27v-1.91h-.899zM15.566 20.985v1.909a.27.27 0 01-.27.27h.9a.27.27 0 00.269-.27v-1.91h-.899z" fill="#49484D"/>
  <path d="M14.707 2.325H9.291a.27.27 0 01-.27-.27v-.949c0-.148.121-.27.27-.27h5.415c.148 0 .269.122.269.27v.95a.27.27 0 01-.27.27z" fill="#FFD151"/>
  <path d="M14.707.837h-.898c.149 0 .27.12.27.27v.949a.27.27 0 01-.27.27h.898a.27.27 0 00.27-.27v-.95a.27.27 0 00-.27-.27z" fill="#F79B4A"/>
  <path d="M6.79 8.28c0-.412.333-.745.744-.745h8.93c.412 0 .745.333.745.744v12.652a.744.744 0 01-.744.744h-8.93a.744.744 0 01-.745-.744V8.279z" fill="#00BCE7"/>
  <path d="M16.464 7.535h-.897c.411 0 .745.333.745.744v12.652a.744.744 0 01-.745.744h.897a.744.744 0 00.745-.744V8.279a.744.744 0 00-.745-.744z" fill="#0094D4"/>
  <path d="M12.861 11.447l-.671.67a.27.27 0 01-.381 0l-.671-.67a.27.27 0 010-.382l.67-.67a.27.27 0 01.382 0l.671.67a.27.27 0 010 .382z" fill="#985335"/>
  <path d="M15.45 20.186H8.549a.27.27 0 01-.27-.27v-4.67c0-.149.121-.27.27-.27h6.903c.149 0 .27.121.27.27v4.67a.27.27 0 01-.27.27zM9.497 12h-.95a.27.27 0 01-.269-.27V9.19a.27.27 0 01.15-.241l.474-.238a.27.27 0 01.241 0l.475.238a.27.27 0 01.149.24v2.541a.27.27 0 01-.27.27z" fill="#FFD151"/>
  <path d="M9.767 11.73v-.628H8.278v.628c0 .15.121.27.27.27h.95a.27.27 0 00.269-.27zM15.451 14.977h-.898c.149 0 .27.12.27.27v4.67a.27.27 0 01-.27.27h.898a.27.27 0 00.27-.27v-4.67a.27.27 0 00-.27-.27z" fill="#F79B4A"/>
  <g fill="#000">
    <path d="M17.209 9.75c.186 0 .337-.152.337-.338V8.28c0-.596-.485-1.081-1.081-1.081h-1.896V2.662h.407c.186 0 .337-.15.337-.337V.837A.337.337 0 0014.976.5H9.023a.337.337 0 00-.337.337v1.488c0 .186.15.337.337.337h.407v4.536H7.534c-.596 0-1.08.485-1.08 1.081v12.652c0 .478.312.885.743 1.027v1.205c0 .186.151.337.337.337h1.489c.186 0 .337-.15.337-.337v-1.151h5.28v1.151c0 .186.15.337.336.337h1.489c.186 0 .337-.15.337-.337v-1.205c.431-.142.744-.549.744-1.027V10.758a.337.337 0 10-.674 0v10.173a.408.408 0 01-.405.407H7.534h-.002a.408.408 0 01-.405-.407V8.279c0-.225.183-.407.407-.407h1.152v.57l-.558.28a.337.337 0 00-.186.301V12c0 .186.15.337.337.337h1.488c.186 0 .337-.15.337-.337V9.023a.337.337 0 00-.186-.301l-.558-.28v-.57h7.105c.224 0 .407.182.407.407v1.133c0 .186.15.337.337.337zM8.686 22.825H7.87v-.814h.815v.814zm6.627 0v-.814h.815v.814h-.815zM9.43 11.663h-.815V9.231l.408-.203.407.203v2.432zm-.07-10.49h2.303v.036a.337.337 0 10.673 0v-.035h2.303v.814H9.36v-.814zm.744 1.49h3.791v4.535h-3.791V2.662z"/>
    <path d="M12 12.645a.336.336 0 00.238-.098l1.052-1.053a.337.337 0 000-.476l-1.052-1.053a.337.337 0 00-.476 0l-1.053 1.053a.337.337 0 000 .476l1.053 1.053a.336.336 0 00.238.098zm0-1.965l.576.576-.576.576-.576-.576.576-.576zM8.278 20.523h7.442c.187 0 .337-.15.337-.337v-5.21a.337.337 0 00-.336-.336H8.277a.337.337 0 00-.337.337v5.209c0 .186.151.337.337.337zm.337-.674v-3.047h.815v.407a.337.337 0 10.674 0v-.407h5.28v3.047H8.615zm6.769-4.535v.814H8.615v-.814h6.769z"/>
  </g>
</svg>
