<svg width="24" height="24" fill="none" xmlns="http://www.w3.org/2000/svg">
  <defs/>
  <path d="M12.983 19.808V2.528a.565.565 0 00-.563-.562h-.687a.565.565 0 00-.563.563v17.28l1.25.114" fill="#A0758E"/>
  <g fill="#D3E8F1">
    <path d="M.912 10.25a3.829 3.829 0 007.658 0H.912zM23.184 13.872a3.829 3.829 0 01-7.658 0h7.658z"/>
  </g>
  <g fill="#B1C6D3">
    <path d="M3.794 13.961a3.829 3.829 0 004.776-3.71H7.08c.106 1.53-1.543 3.495-3.286 3.71zM18.433 17.58a3.829 3.829 0 004.776-3.71h-1.491c.106 1.53-1.543 3.495-3.285 3.71z"/>
  </g>
  <g fill="#826075">
    <path d="M12.983 19.809V2.529a.565.565 0 00-.563-.563v17.958l.563-.115z"/>
    <path d="M9.138 22.132a2.939 2.939 0 115.877 0H9.138z"/>
  </g>
  <path d="M4.643 6.374a.364.364 0 00.364-.364V4.216h5.75v13.408a.364.364 0 00.728 0V2.48c0-.108.091-.199.2-.199h.687c.108 0 .199.091.199.2v15.143a.364.364 0 00.728 0V4.216h5.604V9.61a.364.364 0 10.728 0V3.852a.364.364 0 00-.364-.364H13.3V2.48a.928.928 0 00-.927-.927h-.688a.928.928 0 00-.927.927v1.008H4.643a.364.364 0 00-.364.364V6.01c0 .202.163.364.364.364z" fill="#000"/>
  <path d="M8.521 9.838H.864a.364.364 0 00-.364.364 4.197 4.197 0 004.193 4.193 4.197 4.197 0 004.192-4.193.364.364 0 00-.364-.364zm-3.828 3.829a3.47 3.47 0 01-3.446-3.1h6.891a3.47 3.47 0 01-3.445 3.1zM23.136 13.46h-7.658a.364.364 0 00-.364.363 4.197 4.197 0 004.193 4.193 4.197 4.197 0 004.193-4.193.364.364 0 00-.364-.364zm-3.83 3.828a3.47 3.47 0 01-3.445-3.1h6.892a3.47 3.47 0 01-3.446 3.1zM12.027 18.78a3.306 3.306 0 00-3.302 3.303c0 .2.163.364.364.364h5.877a.364.364 0 00.364-.393 3.307 3.307 0 00-3.303-3.274zm-2.549 2.939a2.579 2.579 0 012.55-2.211c1.295 0 2.37.963 2.548 2.21H9.478zM22.338 12.158h-6.06a.364.364 0 100 .728h6.06a.364.364 0 100-.728zM15.913 11.241c0 .202.163.364.364.364h6.06a.364.364 0 100-.728h-6.06a.364.364 0 00-.364.364zM2.13 9.207h1.929a.364.364 0 000-.728h-1.93a.364.364 0 000 .728zM7.256 8.48h-1.93a.364.364 0 000 .727h1.93a.364.364 0 000-.728zM2.13 7.953h1.929a.364.364 0 000-.728h-1.93a.364.364 0 000 .728zM7.256 7.225h-1.93a.364.364 0 000 .728h1.93a.364.364 0 000-.728z" fill="#000"/>
</svg>
