<svg width="24" height="24" fill="none" xmlns="http://www.w3.org/2000/svg">
  <defs/>
  <path d="M2.426 21.573a5.06 5.06 0 010-7.156l11.99-11.99a5.06 5.06 0 017.157 7.156l-11.99 11.99a5.06 5.06 0 01-7.157 0z" fill="#E6B883"/>
  <path d="M4.05 12.793l8.743-8.743 7.156 7.157-8.743 8.743-7.156-7.157z" fill="#BA956A"/>
  <path d="M21.573 21.573a5.06 5.06 0 01-7.156 0L2.427 9.583a5.06 5.06 0 017.156-7.156l11.99 11.99a5.06 5.06 0 010 7.156z" fill="#E6B883"/>
  <path d="M21.573 14.417l-1.481-1.481a5.06 5.06 0 01-7.156 7.156l1.48 1.481a5.06 5.06 0 107.157-7.156z" fill="#BA956A"/>
  <path d="M7.284 11.25l3.967-3.966 5.384 5.384-3.967 3.967-5.384-5.384z" fill="#F9A029"/>
  <path d="M11.25 7.284l-1.043 1.043 1.99 1.99a3.325 3.325 0 010 4.702l-.573.572 1.043 1.044 3.967-3.967-5.384-5.384z" fill="#D68A23"/>
  <path d="M21.922 14.23l-9.446-9.446 2.2-2.2c.9-.9 2.096-1.396 3.37-1.396 4.207 0 6.382 5.125 3.37 8.137l-1.497 1.497a.337.337 0 00.238.574c.25 0 .21-.12 1.735-1.595a5.403 5.403 0 001.593-3.847 5.437 5.437 0 00-5.44-5.439A5.404 5.404 0 0014.2 2.108L12 4.308l-2.23-2.23a5.403 5.403 0 00-7.632 0l-.06.06a5.403 5.403 0 000 7.633L4.308 12l-2.185 2.184a5.446 5.446 0 000 7.693 5.446 5.446 0 007.692 0L12 19.693l2.23 2.229a5.403 5.403 0 007.631 0l.06-.06a5.403 5.403 0 000-7.633zM9.34 21.4a4.772 4.772 0 01-6.741 0 4.772 4.772 0 010-6.74l2.185-2.184 6.74 6.74-2.184 2.185zm12.106-.014l-.06.06a4.73 4.73 0 01-6.68 0L2.553 9.295a4.729 4.729 0 010-6.68c.035-.024 1.263-1.442 3.4-1.442 1.21 0 2.42.46 3.34 1.381l12.152 12.151a4.729 4.729 0 010 6.68z" fill="#000"/>
  <path d="M16.911 12.435l-5.429-5.429a.337.337 0 00-.476 0l-4 4a.336.336 0 000 .476l.9.9a.336.336 0 10.476-.475l-.662-.663 3.524-3.524 4.953 4.953-3.524 3.525-3.16-3.16a.336.336 0 10-.476.476l3.398 3.398a.336.336 0 00.476 0l4-4a.336.336 0 000-.477zM4.91 8.435a.336.336 0 10-.475.476l.234.235a.337.337 0 00.476-.477l-.234-.234zM4.754 6.325l-.235-.234a.336.336 0 10-.476.476c.186.16.26.333.473.333.297 0 .45-.362.238-.575zM6.801 4.277l-.234-.234a.336.336 0 10-.476.475c.186.161.259.334.472.334.298 0 .451-.362.238-.575zM7.145 6.67l-.234-.235a.337.337 0 00-.476.476c.186.16.259.333.472.333a.336.336 0 00.238-.575zM8.907 5.244c.297 0 .45-.362.238-.575l-.234-.234a.337.337 0 00-.476.475c.186.161.259.334.472.334zM15.33 18.855a.337.337 0 00-.476.476l.235.235a.336.336 0 10.476-.476l-.234-.235zM17.675 19.247a.336.336 0 10-.476.476l.235.235a.337.337 0 00.476-.476l-.235-.235zM19.723 17.199a.337.337 0 00-.476.476l.235.235a.337.337 0 00.476-.477l-.235-.234zM17.565 17.09l-.235-.235a.337.337 0 10-.476.476c.187.16.26.333.473.333.297 0 .45-.362.238-.575zM19.566 15.09l-.235-.235a.336.336 0 10-.476.476c.187.16.26.333.473.333.297 0 .45-.362.238-.575z" fill="#000"/>
</svg>
