<svg width="24" height="24" fill="none" xmlns="http://www.w3.org/2000/svg">
  <defs/>
  <path d="M20.73 8.6H.91v13.915h20.42V9.2a.6.6 0 00-.6-.6z" fill="#CFDCE5"/>
  <path d="M15.865 17.688l-3.062 2.409.128-3.894L20.1 2.045a1.02 1.02 0 011.37-.45l1.114.564c.502.255.704.868.45 1.37l-7.17 14.16z" fill="#4EBFED"/>
  <path d="M19.345 3.537l.756-1.492a1.02 1.02 0 011.37-.45l1.114.564c.502.254.703.868.449 1.37l-.756 1.493-2.933-1.485z" fill="#FF6F52"/>
  <path d="M20.776 4.263l-.546-.277-6.412 12.667.546.276 6.412-12.666z" fill="#97E1F7"/>
  <path d="M23.033 3.53a1.02 1.02 0 00-.45-1.371l-.277-.14c.252.127.25.638-.004 1.14l-7.168 14.159-2.331 2.778 3.062-2.408L23.033 3.53z" fill="#3BA4BC"/>
  <path d="M12.932 16.203l2.934 1.485-3.062 2.409.128-3.894z" fill="#FCD577"/>
  <path d="M22.307 2.018l.278.141c.502.254.703.868.448 1.37l-.755 1.493-.731-.37.756-1.492c.254-.503.256-1.014.004-1.142z" fill="#D33F22"/>
  <path d="M15.135 17.318l.73.37-3.061 2.409 2.33-2.78z" fill="#EAC36E"/>
  <path d="M21.304 9.061a.382.382 0 00-.383.382v12.69H1.265v-2.927a.382.382 0 10-.765 0v3.309c0 .211.171.382.382.382h20.422a.382.382 0 00.382-.382V9.443a.382.382 0 00-.382-.382z" fill="#000"/>
  <path d="M23.43 2.632a1.393 1.393 0 00-.7-.814l-1.113-.564a1.404 1.404 0 00-1.885.618l-1.976 3.903a.382.382 0 10.682.346l1.048-2.07 2.251 1.14-6.067 11.983-2.251-1.14 4.444-8.776a.382.382 0 00-.683-.346l-.66 1.306H.881A.382.382 0 00.5 8.6v9.331a.382.382 0 10.765 0V8.983h14.867l-3.568 7.047a.381.381 0 00-.041.16l-.128 3.894a.382.382 0 00.618.313l3.062-2.408a.382.382 0 00.105-.128l7.168-14.159c.17-.334.198-.714.082-1.07zM13.268 16.815l1.863.943-1.945 1.53.082-2.473zm9.398-13.458l-.583 1.152-2.252-1.14.584-1.152a.639.639 0 01.857-.28l1.113.563a.634.634 0 01.28.857z" fill="#000"/>
  <path d="M13.733 11.89a.382.382 0 100-.764h-1.86a.382.382 0 100 .764h1.86zM10.598 11.126H3.716a.382.382 0 100 .764h6.882a.382.382 0 100-.764zM5.985 13.725c0 .212.171.383.383.383h6.066a.382.382 0 100-.765H6.368a.382.382 0 00-.383.382zM3.716 14.108h1.377a.382.382 0 100-.765H3.716a.382.382 0 100 .765zM18.704 20.148a.382.382 0 100-.764H15.39a.382.382 0 100 .764h3.314zM3.716 20.148h7.57a.382.382 0 100-.764h-7.57a.382.382 0 100 .764z" fill="#000"/>
</svg>
