<svg width="24" height="24" fill="none" xmlns="http://www.w3.org/2000/svg">
  <defs/>
  <g fill-rule="evenodd" clip-rule="evenodd">
    <path d="M9.427 8.253h12.906a.83.83 0 01.828.828v2.295a.83.83 0 01-.828.827H9.427l-1.244-2.11 1.244-1.84z" fill="#ECECEC"/>
    <path d="M15.398 8.253H11.58l1.628 3.95h3.818l-1.628-3.95zM22.332 8.253h-3.116l1.628 3.95h1.488a.83.83 0 00.828-.827V9.08a.83.83 0 00-.828-.828z" fill="#838383"/>
    <path d="M5.133 2.434A4.306 4.306 0 00.84 6.727V20.13c0 .79.646 1.436 1.436 1.436h5.715a1.44 1.44 0 001.436-1.436V6.727a4.306 4.306 0 00-4.294-4.293z" fill="#03BED7"/>
    <path d="M9.427 6.727a4.306 4.306 0 00-4.294-4.293c-.43 0-.846.064-1.24.183a4.311 4.311 0 013.056 4.11v.346h.097c.27 0 .49.221.49.49v3.814c0 .27-.22.49-.49.49h-.097v8.262c0 .79-.647 1.436-1.438 1.436h2.48a1.44 1.44 0 001.436-1.436V6.727z" fill="#0099B1"/>
    <path d="M22.333 8.253h-1.558a.83.83 0 01.828.828v2.295c0 .433-.337.79-.76.825l.001.002h1.49a.83.83 0 00.827-.827V9.08a.83.83 0 00-.828-.828z" fill="#595959"/>
    <path d="M7.046 7.073H3.233c-.27 0-.49.221-.49.49v3.814c0 .27.22.49.49.49h3.813c.27 0 .49-.22.49-.49V7.564c0-.27-.22-.49-.49-.49z" fill="#ECECEC"/>
    <path d="M7.046 7.073H5.472c.27 0 .49.221.49.49v3.814c0 .27-.22.49-.49.49h1.574c.27 0 .49-.22.49-.49V7.564c0-.27-.22-.49-.49-.49z" fill="#CECECE"/>
  </g>
  <path d="M22.332 7.914H19.22 9.766V6.727a4.638 4.638 0 00-4.633-4.632A4.638 4.638 0 00.5 6.727v7.46a.34.34 0 10.679 0v-7.46a3.958 3.958 0 013.954-3.953 3.958 3.958 0 013.954 3.953V20.13c0 .604-.492 1.096-1.097 1.096H2.276a1.098 1.098 0 01-1.097-1.096v-4.104a.34.34 0 00-.679 0v4.104c0 .979.797 1.775 1.776 1.775H7.99c.98 0 1.776-.796 1.776-1.775v-7.587h12.566c.644 0 1.168-.523 1.168-1.167V9.08c0-.644-.524-1.167-1.168-1.167zm-5.079 3.95l-1.348-3.272h3.084l1.348 3.272h-3.084zm-3.818 0l-1.348-3.272h3.084l1.348 3.272h-3.084zM9.766 8.592h1.586l1.348 3.272H9.767V8.592zm13.055 2.784a.49.49 0 01-.489.488h-1.26l-1.349-3.272h2.61c.269 0 .488.22.488.489v2.295z" fill="#000"/>
  <path d="M7.046 11.528H5.824a.34.34 0 100 .68h1.222a.83.83 0 00.828-.831V7.564a.83.83 0 00-.828-.83H3.232a.831.831 0 00-.83.83v3.813c0 .458.373.83.83.83h.936a.34.34 0 100-.679h-.936a.153.153 0 01-.15-.151V7.564c0-.082.069-.151.15-.151h3.814c.08 0 .15.07.15.151v3.813a.153.153 0 01-.15.151z" fill="#000"/>
</svg>
