<svg width="24" height="24" fill="none" xmlns="http://www.w3.org/2000/svg">
  <defs/>
  <path d="M6.146 21.695h9.447v-1.468H6.766l-.62 1.468z" fill="#F79B4A"/>
  <path d="M14.066 13.014l2.602 6.938 1.224-.653-2.373-6.327-1.453.042zM9.95 12.972L6.192 22.988a.27.27 0 01-.252.175h-.893a.27.27 0 01-.252-.364L8.846 12l1.103.972z" fill="#FFD151"/>
  <path d="M15.519 12.972l-1.453.042.642 1.71c.439-.145.862-.325 1.267-.535l-.456-1.217zM8.024 14.188c.405.211.829.39 1.268.536l.657-1.752L8.845 12l-.82 2.188z" fill="#F79B4A"/>
  <path d="M4.66 5.172v1.842a7.34 7.34 0 0014.68 0V5.172H4.66z" fill="#FF2551"/>
  <path d="M18.442 5.172v1.842a7.34 7.34 0 01-6.891 7.326 7.34 7.34 0 007.79-7.327v-1.84h-.899z" fill="#C21750"/>
  <path d="M19.805 5.546H4.195a.27.27 0 01-.27-.27v-.929c0-.149.12-.27.27-.27h15.61c.149 0 .27.121.27.27v.93a.27.27 0 01-.27.269z" fill="#FFD151"/>
  <path d="M6.861 2.61a.734.734 0 100-1.468.734.734 0 000 1.468z" fill="#985335"/>
  <path d="M10.262 2.61h-.929a.27.27 0 01-.27-.27v-.929c0-.149.121-.27.27-.27h.929c.149 0 .27.121.27.27v.93a.27.27 0 01-.27.269z" fill="#00CE96"/>
  <path d="M12.543 2.723l-.657-.657a.27.27 0 010-.38l.657-.658a.27.27 0 01.38 0l.658.657a.27.27 0 010 .381l-.657.657a.27.27 0 01-.381 0z" fill="#FF2551"/>
  <path d="M20.539 2.61h-2.397a.27.27 0 01-.27-.27v-.929c0-.149.12-.27.27-.27h2.397c.149 0 .27.121.27.27v.93a.27.27 0 01-.27.269z" fill="#00BCE7"/>
  <path d="M20.54 1.142h-.9c.15 0 .27.12.27.27v.928a.27.27 0 01-.27.27h.9a.27.27 0 00.269-.27v-.929a.27.27 0 00-.27-.27z" fill="#0094D4"/>
  <path d="M19.805 4.08h-.899c.15 0 .27.12.27.269v.929a.27.27 0 01-.27.27h.899a.27.27 0 00.27-.27v-.93a.27.27 0 00-.27-.269z" fill="#F79B4A"/>
  <path d="M17.138 23.163a2.202 2.202 0 100-4.404 2.202 2.202 0 000 4.404z" fill="#58565C"/>
  <path d="M17.138 21.695a.734.734 0 100-1.468.734.734 0 000 1.468z" fill="#B6E3EE"/>
  <path d="M17.138 18.759c-.154 0-.305.016-.45.046a2.203 2.203 0 010 4.312 2.202 2.202 0 10.45-4.358z" fill="#49484D"/>
  <g fill="#000">
    <path d="M5.394 2.212h.451a1.073 1.073 0 002.033 0h.849v.397c0 .186.15.337.337.337h1.468c.186 0 .337-.15.337-.337v-.397h.688l.939.94a.337.337 0 00.476 0l.94-.94h.688v.397a.337.337 0 10.673 0v-.397h2.263v.397c0 .186.15.337.337.337h2.936c.186 0 .337-.15.337-.337V1.141a.337.337 0 00-.337-.337h-2.936a.337.337 0 00-.337.337v.397h-2.263v-.397a.337.337 0 10-.673 0v.397h-.688l-.94-.94a.337.337 0 00-.476 0l-.94.94h-.687v-.397a.337.337 0 00-.337-.337H9.064a.337.337 0 00-.337.337v.397h-.849A1.073 1.073 0 006.862.804c-.473 0-.875.308-1.017.734h-.451a.337.337 0 100 .674zm12.816-.734h2.262v.794H18.21v-.794zm-5.476-.165l.562.562-.562.562-.562-.562.562-.562zm-3.333.165h.794v.794h-.794v-.794zm-2.54 0a.398.398 0 110 .795.398.398 0 010-.795zM16.067 20.96a1.072 1.072 0 002.142 0 1.072 1.072 0 00-2.142 0zm1.468 0a.398.398 0 11-.795 0 .398.398 0 01.796 0z"/>
    <path d="M21.543 5.942c-.473 0-.875.308-1.017.734h-.849v-.794h.398c.186 0 .337-.15.337-.337V4.077a.337.337 0 00-.337-.337H3.925a.337.337 0 00-.337.337v1.468c0 .186.15.337.337.337h.397v.795h-.849a1.072 1.072 0 10-1.016 1.408c.473 0 .875-.309 1.016-.735h.857a7.681 7.681 0 003.588 6.163l-3.574 9.532a.337.337 0 00.315.455h1.468c.14 0 .266-.087.316-.219l.468-1.25h7.926a2.542 2.542 0 002.301 1.469c1.4 0 2.54-1.14 2.54-2.54 0-1.106-.713-2.049-1.702-2.396l-1.895-5.051A7.681 7.681 0 0019.67 7.35h.857a1.072 1.072 0 101.017-1.408zM2.457 7.411a.398.398 0 110-.796.398.398 0 010 .796zm3.437 15.415h-.749l3.366-8.975c.208.107.42.204.64.291l-3.257 8.684zm8.32-8.46l.695 1.853H9.09l.695-1.854a7.654 7.654 0 004.427 0zm.623 5.524H7.715l1.123-2.997h6.323l.703 1.873c-.447.26-.807.653-1.027 1.124zm-7.673 1.468l.298-.795h7.168a2.552 2.552 0 000 .795H7.164zm11.84-.397a1.867 1.867 0 01-1.866 1.865 1.867 1.867 0 01-1.865-1.865c0-1.029.837-1.865 1.865-1.865 1.029 0 1.865.836 1.865 1.865zm-1.8-2.538l-.066-.001c-.225 0-.444.03-.652.085l-1.637-4.365c.219-.087.432-.184.64-.29l1.714 4.571zm1.8-11.41A7.012 7.012 0 0112 14.017a7.012 7.012 0 01-7.004-7.004v-1.13h1.695a.337.337 0 100-.675H4.26v-.794h15.477v.794H8.037a.337.337 0 100 .674h10.966v1.131zm2.539.398a.398.398 0 110-.796.398.398 0 010 .796z"/>
  </g>
</svg>
