<svg width="24" height="24" fill="none" xmlns="http://www.w3.org/2000/svg">
  <defs/>
  <path d="M19.238 10.853A5.459 5.459 0 009.26 7.088" fill="#FCD577"/>
  <path d="M10.283 10.065a5.46 5.46 0 014.507-5.376 5.459 5.459 0 100 10.752 5.46 5.46 0 01-4.507-5.376z" fill="#EAC36E"/>
  <path d="M7.325 13.408l5.188 1.957 2.533.955 5.854-4.84L7.906 6.577" fill="#FF6F52"/>
  <path d="M18.718 23.112a3.144 3.144 0 100-6.287 3.144 3.144 0 000 6.287z" fill="#415E72"/>
  <path d="M18.718 21.678a1.71 1.71 0 100-3.42 1.71 1.71 0 000 3.42z" fill="#CFDCE5"/>
  <path d="M6.242 2.237L2.662.887l-.536 1.421 3.58 1.351.536-1.422z" fill="#415E72"/>
  <path d="M21.94 18.514a3.507 3.507 0 00-1.97-1.848 3.504 3.504 0 00-2.604.045l-.684-1.237 2.124-1.756a.386.386 0 00-.493-.596l-2.01 1.663-.305-.55a1.773 1.773 0 00-2.042-.842 1.75 1.75 0 00-.92.638l-3.7 4.942c-.299.4-.834.556-1.3.38a1.118 1.118 0 01-.556-.454 1.115 1.115 0 01-.17-.693l.362-4.257 3.736 1.41a.387.387 0 10.273-.723l-3.94-1.487.513-6.03 10.855 4.096.006.002 1.032.39-.878.725a.386.386 0 10.492.596l1.391-1.15a.386.386 0 00-.11-.66l-1.38-.52a5.826 5.826 0 00-.896-3.684.386.386 0 00-.65.417 5.055 5.055 0 01.792 2.982L9.874 6.905a5.056 5.056 0 013.968-1.913 5.04 5.04 0 013.587 1.486.386.386 0 10.546-.546 5.807 5.807 0 00-4.133-1.712c-1.88 0-3.622.892-4.722 2.4l-.798-.3.126-1.478A1.776 1.776 0 007.31 3.037l-.832-.314.132-.35.272-.722a.386.386 0 10-.722-.273l-.137.362L2.804.525a.386.386 0 00-.497.225L1.77 2.172c-.075.2.026.422.225.497l3.22 1.215-.137.361a.386.386 0 00.723.273l.404-1.072.832.314a1 1 0 01.641 1.016L6.54 18.141c-.034.416.066.82.288 1.172.219.347.551.617.935.762a1.909 1.909 0 002.192-.639l3.7-4.943a.983.983 0 01.517-.359 1 1 0 011.15.475l.375.677-.718.594-1.352-.51a.386.386 0 10-.272.723l1.56.59a.388.388 0 00.383-.065l.778-.643.613 1.109a3.503 3.503 0 00-1.268 1.639 3.52 3.52 0 00.023 2.551.386.386 0 00.718-.286 2.75 2.75 0 01-.018-1.993c.187-.497.507-.919.922-1.23l.324.588a2.083 2.083 0 00-.628.876 2.098 2.098 0 001.96 2.835 2.1 2.1 0 001.962-1.356 2.098 2.098 0 00-1.22-2.7 2.085 2.085 0 00-1.398-.028l-.324-.588a2.737 2.737 0 011.955-.003c.689.26 1.235.773 1.539 1.444.303.67.327 1.42.067 2.109a2.739 2.739 0 01-1.444 1.539 2.739 2.739 0 01-2.109.067 2.73 2.73 0 01-1.024-.678.386.386 0 00-.56.532c.367.387.809.68 1.311.869a3.518 3.518 0 002.7-.086 3.506 3.506 0 001.849-1.97 3.507 3.507 0 00-.087-2.7zM5.486 3.161L2.629 2.083l.264-.699L5.75 2.462l-.264.7zm13.703 15.57a1.325 1.325 0 01.078 2.443 1.325 1.325 0 01-1.495-2.127l.612 1.108a.386.386 0 10.676-.373l-.611-1.108c.239-.05.495-.037.74.056z" fill="#000"/>
  <path d="M15.954 8.666a.386.386 0 100-.773.386.386 0 000 .773zM16.074 7.36a.386.386 0 100-.772.386.386 0 000 .773zM17.42 8.452a.386.386 0 100-.773.386.386 0 000 .773z" fill="#000"/>
</svg>
