<svg width="24" height="24" fill="none" xmlns="http://www.w3.org/2000/svg">
  <defs/>
  <path d="M6.755 15.602c.34-1.047.527-2.133.561-3.235h-6.07a10.726 10.726 0 003.141 7.246c.025.024.05.047.074.072a12.07 12.07 0 001.774-2.758.367.367 0 01.482-.18c.096-.225.186-.453.268-.685a.367.367 0 01-.23-.46zM7.316 11.633c-.084-2.675-1.088-5.247-2.855-7.318l-.074.072a10.725 10.725 0 00-3.14 7.246h6.07zM4.39 7.068a.366.366 0 01.368.368.367.367 0 11-.368-.368zM17.277 7.251a.367.367 0 01-.178-.487c.492-1.06 1.13-2.05 1.899-2.946a10.676 10.676 0 00-6.632-2.577v10.392h3.583c.034-1.179.234-2.342.597-3.462a.367.367 0 01.462-.236l.006.003c.083-.232.172-.46.268-.685l-.005-.002zM15.949 12.367h-3.583v10.392a10.673 10.673 0 006.632-2.578c-1.892-2.206-2.965-4.955-3.05-7.814zm-1.362 6.3a.358.358 0 01-.147-.015.368.368 0 11.147.015zm1.43 1.47a.366.366 0 01-.334-.215.364.364 0 01-.013-.27.367.367 0 11.347.485z" fill="#F2484B"/>
  <path d="M5.002 20.181a10.678 10.678 0 006.63 2.578V12.367H8.052a12.396 12.396 0 01-.598 3.461.367.367 0 01-.462.236l-.005-.002c-.083.232-.172.46-.269.685l.005.002a.367.367 0 01.179.487 12.804 12.804 0 01-1.899 2.945zM8.05 11.633h3.583V1.241a10.677 10.677 0 00-6.631 2.577c1.892 2.207 2.964 4.956 3.049 7.815zM16.684 12.367c.084 2.674 1.088 5.247 2.855 7.317l.073-.071a10.726 10.726 0 003.142-7.246h-6.07zM19.539 4.315a12.069 12.069 0 00-1.774 2.758.367.367 0 01-.482.18c-.097.225-.186.453-.268.684.189.065.292.27.23.46a11.663 11.663 0 00-.561 3.236h6.07a10.725 10.725 0 00-3.141-7.246l-.074-.072z" fill="#FF6E1D"/>
  <path d="M23.5 12.004V12v-.004a11.424 11.424 0 00-3.368-8.128A11.425 11.425 0 0012 .5a11.42 11.42 0 00-7.76 3.012l-.003.003-.004.004A11.424 11.424 0 00.5 11.999c0 3.074 1.197 5.961 3.368 8.133A11.425 11.425 0 0012 23.5c2.9 0 5.634-1.066 7.758-3.011l.004-.004.005-.005a11.426 11.426 0 003.732-8.475zm-3.961 7.68c-1.767-2.07-2.771-4.643-2.855-7.317h6.07a10.726 10.726 0 01-3.142 7.246l-.073.071zM6.722 16.75l-.005-.002a.367.367 0 00-.482.18 12.074 12.074 0 01-1.774 2.758l-.074-.072a10.725 10.725 0 01-3.141-7.246h6.07a11.662 11.662 0 01-.561 3.235.367.367 0 00.23.46l.006.002a.366.366 0 00.462-.236c.363-1.12.563-2.282.598-3.461h3.582v10.392a10.678 10.678 0 01-6.631-2.578A12.806 12.806 0 006.9 17.236a.367.367 0 00-.178-.487zM4.46 4.316c1.767 2.07 2.77 4.642 2.855 7.317h-6.07a10.726 10.726 0 013.141-7.245c.024-.025.05-.048.074-.072zm7.172 7.317H8.05C7.966 8.774 6.893 6.025 5 3.818a10.677 10.677 0 016.632-2.577v10.392zm.734.734h3.582c.085 2.859 1.158 5.608 3.05 7.814a10.674 10.674 0 01-6.632 2.578V12.367zm4.316-.734c.035-1.102.223-2.189.562-3.235a.367.367 0 00-.23-.46l-.006-.003a.367.367 0 00-.462.236 12.394 12.394 0 00-.598 3.462h-3.582V1.241c2.459.082 4.775.984 6.631 2.577A12.805 12.805 0 0017.1 6.764a.367.367 0 00.179.487l.005.002a.366.366 0 00.482-.18 12.069 12.069 0 011.774-2.758l.074.072a10.725 10.725 0 013.14 7.246h-6.07z" fill="#082947"/>
  <path d="M4.39 7.069a.367.367 0 100 .734.367.367 0 000-.734zM14.55 17.935a.367.367 0 100 .734.367.367 0 000-.734zM16.384 19.77a.367.367 0 10-.734 0 .367.367 0 00.734 0z" fill="#082947"/>
</svg>
