<svg width="24" height="24" fill="none" xmlns="http://www.w3.org/2000/svg">
  <defs/>
  <path d="M1.286 10.404h21.428c-.745 0-1.348.603-1.348 1.348v7.637a2.694 2.694 0 01-2.695 2.695H5.329a2.694 2.694 0 01-2.695-2.695v-7.637c0-.745-.603-1.348-1.348-1.348z" fill="#DA4453"/>
  <path d="M21.366 10.404c-.745 0-1.347.603-1.347 1.348v7.637a2.694 2.694 0 01-2.696 2.695h1.348a2.694 2.694 0 002.695-2.695v-7.637c0-.745.603-1.348 1.348-1.348h-1.348z" fill="#CE3A50"/>
  <g fill="#656D78">
    <path d="M8.63 13.324v5.84a.674.674 0 11-1.347 0v-5.84a.674.674 0 011.348 0zM12.674 13.325v5.84a.674.674 0 11-1.348 0v-5.84a.674.674 0 111.348 0zM16.717 13.325v5.84a.674.674 0 11-1.348 0v-5.84a.674.674 0 011.348 0z"/>
  </g>
  <path d="M20.917 8.603v.004h-1.908v-.006l-5.535-5.535a.674.674 0 11.953-.953l6.49 6.49z" fill="#515760"/>
  <path d="M10.524 2.113a.674.674 0 010 .953L4.99 8.6v.006H3.08v-.004l6.49-6.49a.673.673 0 01.953 0z" fill="#656D78"/>
  <path d="M23.163 8.607v1.797H.836V8.607h22.327z" fill="#ED5565"/>
  <path d="M23.163 8.607h-1.348v1.798h1.348V8.607z" fill="#DA4453"/>
  <path d="M23.163 8.27h-2.102l-6.396-6.396a1.011 1.011 0 00-1.725.715 1.003 1.003 0 00.295.715l4.967 4.966H5.796l4.967-4.966a1.003 1.003 0 00.296-.715 1.011 1.011 0 00-1.725-.715L2.936 8.27h-2.1a.337.337 0 00-.337.337v1.797c0 .186.15.337.337.337h.45c.556 0 1.01.453 1.01 1.01V13.1a.338.338 0 00.674 0v-1.346-.002c0-.38-.126-.73-.338-1.01h18.734c-.211.28-.337.629-.338 1.006V19.39c0 1.3-1.058 2.358-2.358 2.358H5.329a2.361 2.361 0 01-2.358-2.358v-4.942a.337.337 0 00-.674 0V19.392A3.036 3.036 0 005.33 22.42h13.342a3.036 3.036 0 003.032-3.032v-7.635-.002c0-.557.454-1.01 1.011-1.01h.45c.185 0 .336-.152.336-.338V8.607a.337.337 0 00-.337-.337zm-9.45-5.441l-.001-.002a.334.334 0 010-.476.337.337 0 01.476 0l5.92 5.92h-.953l-5.442-5.442zM9.81 2.351a.337.337 0 01.476.476l-.002.002-5.44 5.441H3.89l5.92-5.92zM1.174 8.944h21.652v1.123H1.174V8.944z" fill="#000"/>
  <path d="M8.968 19.164v-5.84-.005a1.012 1.012 0 00-2.022.005v5.84a1.012 1.012 0 002.022 0zm-1.348 0v-5.84a.337.337 0 01.674 0v5.84a.337.337 0 01-.674 0zM13.01 19.164v-5.84-.007a1.012 1.012 0 00-2.02.007v5.84a1.012 1.012 0 002.02 0zm-1.347 0v-5.84a.337.337 0 01.674 0v5.84a.337.337 0 01-.674 0zM16.717 15.009a.337.337 0 00.337-.337v-1.348-.003a1.012 1.012 0 00-2.022.003v5.84a1.012 1.012 0 002.022 0V16.02a.337.337 0 00-.674 0v3.144a.337.337 0 01-.674 0v-5.84a.337.337 0 01.674 0v1.348c0 .185.15.337.337.337z" fill="#000"/>
</svg>
