<svg width="24" height="24" fill="none" xmlns="http://www.w3.org/2000/svg">
  <defs/>
  <path d="M8.919 7.668H5.265v-.435c0-.52.421-.942.942-.942h1.77c.52 0 .942.421.942.942v.435z" fill="#C99C56"/>
  <path d="M17.33 18.247H6.53a3.633 3.633 0 01-3.595-3.11l-.765-5.26 8.818 1.595 10.367.183-.428 3.482a3.633 3.633 0 01-3.595 3.11z" fill="#FFF9F0"/>
  <path d="M20.098 11.633v.165h-.11l-.41 3.338a3.633 3.633 0 01-3.595 3.11h1.348a3.633 3.633 0 003.595-3.11l.428-3.48-1.256-.023z" fill="#FAE8DB"/>
  <path d="M15.26 12.111a36.387 36.387 0 01-9.458-1.254L1.29 9.64a.612.612 0 01.318-1.181L6.12 9.676a35.147 35.147 0 0016.306.473.612.612 0 01.25 1.198 36.386 36.386 0 01-7.416.764z" fill="#FAE8DB"/>
  <path d="M3.853 18.915l-.202-1.664a1.382 1.382 0 01.774-1.413l.034-.016a.692.692 0 01.915.306c.357.69.373 1.508.044 2.212l-.682 1.459h-2.16s.009-.884 1.277-.884zM21.043 18.915l.202-1.664a1.382 1.382 0 00-.774-1.413l-.034-.016a.692.692 0 00-.915.306 2.505 2.505 0 00-.044 2.212l.682 1.459h2.16s-.01-.884-1.277-.884z" fill="#C99C56"/>
  <path d="M16.82 15.908h-3.287a.47.47 0 01-.47-.47v-3.695c0-.955.774-1.729 1.729-1.729h.77c.955 0 1.729.774 1.729 1.729v3.695c0 .26-.21.47-.47.47z" fill="#FBC56D"/>
  <path d="M15.563 10.014h-.77a1.74 1.74 0 00-.29.025c.818.137 1.44.848 1.44 1.704v3.695c0 .26-.21.47-.47.47h1.348c.26 0 .47-.21.47-.47v-3.695c0-.955-.774-1.729-1.728-1.729z" fill="#E9B665"/>
  <path d="M23.48 10.554a.95.95 0 00-1.123-.735c-1.668.348-3.38.574-5.085.673a.335.335 0 00-.06.01 2.063 2.063 0 00-1.65-.825h-.77c-.666 0-1.26.318-1.637.81A34.863 34.863 0 016.208 9.35l-2.175-.587V5.907a1.37 1.37 0 011.368-1.368A1.37 1.37 0 016.77 5.907a.33.33 0 00.004.047h-.566a1.28 1.28 0 00-1.28 1.279v.435c0 .186.152.336.338.336h3.654c.186 0 .337-.15.337-.336v-.435a1.28 1.28 0 00-1.279-1.28H7.44a.338.338 0 00.003-.046 2.044 2.044 0 00-2.042-2.042A2.044 2.044 0 003.36 5.907v2.675l-1.663-.449a.95.95 0 00-1.07 1.39c.127.22.331.376.576.442l.666.18.732 5.04a3.984 3.984 0 00.71 1.75 1.72 1.72 0 00.006.357l.16 1.312c-1.211.174-1.237 1.18-1.237 1.191a.337.337 0 00.337.34h2.16c.13 0 .25-.075.305-.194l.674-1.442c.266.056.54.085.814.085H8.77a.337.337 0 100-.674H6.529c-.201 0-.402-.02-.6-.056a2.861 2.861 0 00-.256-1.881 1.024 1.024 0 00-1.36-.455l-.034.016c-.282.135-.514.34-.68.588a3.313 3.313 0 01-.332-1.034l-.69-4.752 3.137.847a36.774 36.774 0 007.013 1.177v.347a.337.337 0 10.674 0v-.964c0-.767.624-1.392 1.391-1.392h.77c.768 0 1.392.625 1.392 1.392v3.695c0 .074-.06.133-.133.133h-3.287a.133.133 0 01-.133-.133v-1.383a.337.337 0 00-.674 0v1.383c0 .445.362.807.807.807h3.287a.808.808 0 00.807-.807v-3.067a36.857 36.857 0 003.344-.37l-.38 3.09c-.02.134-.048.266-.083.395a1.024 1.024 0 00-1.287.487 2.853 2.853 0 00-.306 1.53 3.3 3.3 0 01-1.585.407h-7.213a.337.337 0 100 .674h7.213c.598 0 1.189-.136 1.724-.394.034.099.073.197.117.292l.683 1.46a.337.337 0 00.305.194h2.159a.337.337 0 00.337-.34c0-.012-.025-1.018-1.237-1.192l.16-1.313a1.718 1.718 0 00-.484-1.415c.075-.224.13-.456.165-.691v-.007l.405-3.294a36.17 36.17 0 001.08-.207.943.943 0 00.6-.41.943.943 0 00.135-.713zM8.582 7.233v.098h-2.98v-.098c0-.334.271-.605.605-.605h1.77c.334 0 .605.271.605.605zM4.57 16.142l.035-.017a.354.354 0 01.47.157c.306.594.32 1.31.037 1.915l-.591 1.265H3.095c.133-.114.362-.21.758-.21a.337.337 0 00.334-.378l-.202-1.664a1.045 1.045 0 01.585-1.068zM1.378 9.315a.273.273 0 01-.194-.337.275.275 0 01.337-.194l4.512 1.217c2.213.597 4.494.98 6.784 1.138a2.055 2.055 0 00-.089.545 36.087 36.087 0 01-6.838-1.152L1.378 9.315zM21.8 19.462h-1.426l-.591-1.265a2.182 2.182 0 01.038-1.915.354.354 0 01.47-.157l.034.017c.404.194.64.623.585 1.068l-.202 1.664a.337.337 0 00.334.378c.396 0 .625.096.758.21zm.807-8.445c-1.635.34-3.31.569-4.98.679a2.056 2.056 0 00-.086-.546 35.58 35.58 0 004.954-.671.275.275 0 01.112.538z" fill="#000"/>
</svg>
