<svg width="24" height="24" fill="none" xmlns="http://www.w3.org/2000/svg">
  <defs/>
  <path d="M13.86 3.814h-3.72V1.106c0-.148.12-.27.27-.27h3.181c.149 0 .27.122.27.27v2.708z" fill="#EDE9E8"/>
  <path d="M13.592.837h-.989c.15 0 .27.12.27.27v2.707h.988V1.106a.27.27 0 00-.27-.27z" fill="#DFD7D5"/>
  <path d="M17.21 22.419a.744.744 0 01-.745.744h-8.93a.744.744 0 01-.744-.744V3.069c0-.41.333-.744.744-.744h8.93c.412 0 .745.333.745.744v19.35z" fill="#AAEBF9"/>
  <path d="M16.466 2.325h-.95c.412 0 .745.333.745.744v19.35a.744.744 0 01-.744.744h.949a.744.744 0 00.744-.744V3.069a.744.744 0 00-.744-.744z" fill="#7BE2F6"/>
  <path d="M15.452 21.675H8.549a.27.27 0 01-.27-.27v-1.247c0-.149.121-.27.27-.27h6.903c.149 0 .27.121.27.27v1.247a.27.27 0 01-.27.27z" fill="#74D84B"/>
  <path d="M15.452 19.888h-.988c.149 0 .27.121.27.27v1.247a.27.27 0 01-.27.27h.988a.27.27 0 00.27-.27v-1.247a.27.27 0 00-.27-.27z" fill="#5AC033"/>
  <path d="M14.704 9.968l-.671-.672a.27.27 0 00-.381 0l-1.461 1.46a.27.27 0 01-.381 0l-1.46-1.46a.27.27 0 00-.382 0l-.671.672a.27.27 0 000 .38l1.46 1.461a.27.27 0 010 .382l-1.46 1.46a.27.27 0 000 .381l.67.671a.27.27 0 00.382 0l1.46-1.46a.27.27 0 01.382 0l1.46 1.46a.27.27 0 00.382 0l.671-.67a.27.27 0 000-.382l-1.46-1.46a.27.27 0 010-.382l1.46-1.46a.27.27 0 000-.381z" fill="#FC4C1E"/>
  <path d="M16.465 1.988h-2.267V.837A.337.337 0 0013.86.5H10.14a.337.337 0 00-.337.337v1.151H7.535c-.596 0-1.08.485-1.08 1.082v1.604a.337.337 0 10.673 0V3.069c0-.224.183-.407.407-.407h8.93c.225 0 .408.183.408.408v19.349a.408.408 0 01-.408.407h-8.93a.408.408 0 01-.407-.407V6.02a.337.337 0 10-.674 0V22.42c0 .596.485 1.081 1.081 1.081h8.93c.597 0 1.082-.485 1.082-1.081V3.069c0-.596-.485-1.08-1.082-1.08zm-5.988 0v-.814h3.047v.814h-3.047z" fill="#000"/>
  <path d="M7.942 19.888v1.787c0 .186.151.337.337.337h7.442c.186 0 .337-.151.337-.337v-1.787a.337.337 0 00-.337-.337H8.28a.337.337 0 00-.337.337zm.674.337h6.768v1.113H8.616v-1.113zM8.77 13.842c0 .09.035.175.098.238l1.053 1.052a.337.337 0 00.476 0l1.604-1.603 1.603 1.603a.336.336 0 00.477 0l1.052-1.052a.337.337 0 000-.477L13.53 12l1.603-1.604a.337.337 0 000-.476l-1.052-1.053a.337.337 0 00-.477 0l-1.603 1.604-1.604-1.604a.337.337 0 00-.476 0L8.868 9.92a.337.337 0 000 .476L10.472 12l-1.604 1.603a.337.337 0 00-.098.239zm2.417-1.604a.337.337 0 000-.476l-1.604-1.604.576-.576 1.603 1.604a.337.337 0 00.477 0l1.603-1.604.577.576-1.604 1.604a.337.337 0 000 .476l1.604 1.604-.577.576-1.603-1.604a.336.336 0 00-.477 0l-1.603 1.604-.576-.576 1.604-1.604z" fill="#000"/>
</svg>
