<svg width="24" height="24" fill="none" xmlns="http://www.w3.org/2000/svg">
  <defs/>
  <path d="M13.86 3.814h-3.72V1.106c0-.148.12-.27.27-.27h3.181c.15 0 .27.122.27.27v2.708z" fill="#EDE9E8"/>
  <path d="M13.592.837h-.989c.15 0 .27.12.27.27v2.707h.988V1.106a.27.27 0 00-.27-.27z" fill="#DFD7D5"/>
  <path d="M17.21 22.419a.744.744 0 01-.744.744h-8.93a.744.744 0 01-.745-.744V3.069c0-.41.333-.744.744-.744h8.93c.412 0 .745.333.745.744v19.35z" fill="#AAEBF9"/>
  <path d="M16.466 2.325h-.95c.412 0 .745.333.745.744v19.35a.744.744 0 01-.744.744h.949c.41 0 .744-.333.744-.744V3.069a.744.744 0 00-.744-.744z" fill="#7BE2F6"/>
  <path d="M15.452 21.675H8.549a.27.27 0 01-.27-.27v-3.033c0-.149.121-.27.27-.27h6.903c.149 0 .27.121.27.27v3.033a.27.27 0 01-.27.27z" fill="#74D84B"/>
  <path d="M15.452 18.102h-.988c.149 0 .27.121.27.27v3.033a.27.27 0 01-.27.27h.988a.27.27 0 00.27-.27v-3.033a.27.27 0 00-.27-.27z" fill="#5AC033"/>
  <path d="M15.452 16.912H8.549a.27.27 0 01-.27-.27V13.61c0-.149.121-.27.27-.27h6.903c.149 0 .27.121.27.27v3.033a.27.27 0 01-.27.27z" fill="#74D84B"/>
  <path d="M15.452 13.34h-.988c.149 0 .27.12.27.269v3.033a.27.27 0 01-.27.27h.988a.27.27 0 00.27-.27V13.61a.27.27 0 00-.27-.27z" fill="#5AC033"/>
  <path d="M15.452 12.149H8.549a.27.27 0 01-.27-.27V8.846c0-.149.121-.27.27-.27h6.903c.149 0 .27.121.27.27v3.033a.27.27 0 01-.27.27z" fill="#74D84B"/>
  <path d="M15.452 8.576h-.988c.149 0 .27.121.27.27v3.033a.27.27 0 01-.27.27h.988a.27.27 0 00.27-.27V8.846a.27.27 0 00-.27-.27z" fill="#5AC033"/>
  <path d="M15.452 7.386H8.549a.27.27 0 01-.27-.27V4.083c0-.149.121-.27.27-.27h6.903c.149 0 .27.121.27.27v3.033a.27.27 0 01-.27.27z" fill="#74D84B"/>
  <path d="M15.452 3.814h-.988c.149 0 .27.12.27.27v3.032a.27.27 0 01-.27.27h.988a.27.27 0 00.27-.27V4.083a.27.27 0 00-.27-.27z" fill="#5AC033"/>
  <path d="M16.466 1.988h-2.268V.837A.337.337 0 0013.86.5H10.14a.337.337 0 00-.337.337v1.151H7.535c-.596 0-1.08.485-1.08 1.082v1.856a.337.337 0 10.673 0V3.069c0-.224.183-.407.407-.407h8.93c.225 0 .408.183.408.408v19.349a.408.408 0 01-.407.407h-8.93a.408.408 0 01-.408-.407V6.274a.337.337 0 00-.674 0v16.145c0 .596.485 1.081 1.081 1.081h8.93c.597 0 1.082-.485 1.082-1.081V3.069c0-.596-.485-1.08-1.081-1.08zm-5.99 0v-.814h3.048v.814h-3.047z" fill="#000"/>
  <path d="M7.942 21.675c0 .186.151.337.337.337h7.442a.337.337 0 00.337-.337v-3.573a.337.337 0 00-.337-.337H8.28a.337.337 0 00-.337.337v3.573zm.674-3.236h6.768v2.899H8.616v-2.899zM7.942 16.912c0 .186.151.337.337.337h7.442c.186 0 .337-.151.337-.337v-3.573a.337.337 0 00-.337-.337H8.28a.337.337 0 00-.337.337v3.573zm.674-3.236h6.768v2.899H8.616v-2.899zM7.942 12.149c0 .186.151.337.337.337h7.442c.186 0 .337-.151.337-.337V8.577a.337.337 0 00-.337-.337H8.28a.337.337 0 00-.337.337v3.572zm.674-3.236h6.768v2.899H8.616V8.913zM8.28 7.723h7.441c.186 0 .337-.15.337-.337V3.814a.337.337 0 00-.337-.337H8.28a.337.337 0 00-.337.337v3.572c0 .186.151.337.337.337zm.336-3.572h6.768v2.898H8.616V4.151z" fill="#000"/>
</svg>
