<svg width="24" height="24" fill="none" xmlns="http://www.w3.org/2000/svg">
  <defs/>
  <path d="M15.721 7.163a3.721 3.721 0 10-7.442 0H3.375v9.302h17.183V7.163h-4.837z" fill="#985335"/>
  <path d="M20.559 7.162h-1.27v9.303h1.27V7.162zM4.645 7.162h-1.27v9.303h1.27V7.162z" fill="#87462A"/>
  <path d="M3.544 6.418h-.95a.27.27 0 00-.269.27v8.66h1.488v-8.66a.27.27 0 00-.269-.27zM21.405 6.418h-.949a.27.27 0 00-.27.27v8.661h1.489V6.688a.27.27 0 00-.27-.27z" fill="#FFD151"/>
  <path d="M21.405 6.418h-.898c.149 0 .27.12.27.27v8.66h.898v-8.66a.27.27 0 00-.27-.27zM3.544 6.418h-.898c.148 0 .269.12.269.27v8.66h.898v-8.66a.27.27 0 00-.269-.27z" fill="#F79B4A"/>
  <path d="M17.954 12.719h-5.21V9.665c0-.15.12-.27.27-.27h4.67c.149 0 .27.12.27.27v3.054z" fill="#B6E3EE"/>
  <path d="M17.684 9.395h-4.67a.28.28 0 00-.028.001h3.799c.148 0 .27.121.27.27v3.053h.899V9.665a.27.27 0 00-.27-.27z" fill="#96D2E0"/>
  <path d="M11.255 12.719h-5.21V9.665c0-.15.122-.27.27-.27h4.67c.15 0 .27.12.27.27v3.054z" fill="#B6E3EE"/>
  <path d="M10.986 9.395h-4.67a.28.28 0 00-.028.001h3.798c.15 0 .27.121.27.27v3.053h.9V9.665a.27.27 0 00-.27-.27z" fill="#96D2E0"/>
  <path d="M12 7.907a.744.744 0 100-1.489.744.744 0 000 1.489z" fill="#FFD151"/>
  <path d="M20.186 15.594V13.86c0-.822-.666-1.489-1.488-1.489H5.302c-.822 0-1.489.667-1.489 1.489v1.733h16.373z" fill="#00BCE7"/>
  <path d="M18.698 12.372H17.8c.822 0 1.488.667 1.488 1.489v1.733h.899V13.86c0-.822-.667-1.489-1.489-1.489z" fill="#0094D4"/>
  <path d="M22.063 15.349H1.938v4.093h20.125V15.35z" fill="#985335"/>
  <g>
    <path d="M22.894 15.349h-.95a.27.27 0 00-.27.27v4.67c0 .149.122.27.27.27h.95a.27.27 0 00.27-.27v-4.67a.27.27 0 00-.27-.27z" fill="#FFD151"/>
    <path d="M22.894 15.35h-.899c.149 0 .27.12.27.269v4.94h.629a.27.27 0 00.27-.27v-4.67a.27.27 0 00-.27-.27z" fill="#F79B4A"/>
  </g>
  <g>
    <path d="M2.053 15.349h-.95a.27.27 0 00-.269.27v4.67c0 .149.12.27.27.27h.949a.27.27 0 00.27-.27v-4.67a.27.27 0 00-.27-.27z" fill="#FFD151"/>
    <path d="M2.053 15.35h-.899c.15 0 .27.12.27.269v4.94h.629a.27.27 0 00.27-.27v-4.67a.27.27 0 00-.27-.27z" fill="#F79B4A"/>
  </g>
  <g fill="#000">
    <path d="M23.163 15.012h-1.151V6.418a.337.337 0 00-.337-.337h-1.489a.337.337 0 00-.337.337v.408h-3.805A4.063 4.063 0 0012 3.104a4.063 4.063 0 00-4.044 3.722h-1.37a.337.337 0 100 .673H8.28c.186 0 .337-.15.337-.336v-.001A3.388 3.388 0 0112 3.778a3.388 3.388 0 013.384 3.384c0 .187.151.337.337.337h4.128v4.946a1.817 1.817 0 00-1.151-.41h-.407v-1.522-.002V9.395a.337.337 0 00-.337-.337h-5.21a.337.337 0 00-.337.337v2.64h-.814v-1.523-1.117a.337.337 0 00-.337-.337h-5.21a.337.337 0 00-.337.337v2.64h-.407c-.436 0-.837.154-1.152.41V7.5h1.09a.337.337 0 100-.673H4.15v-.408a.337.337 0 00-.336-.337H2.325a.337.337 0 00-.337.337v8.594H.837a.337.337 0 00-.337.337v5.21c0 .185.15.336.337.336h1.488c.186 0 .337-.15.337-.337v-.779h18.676v.78c0 .185.15.336.337.336h1.488c.186 0 .337-.15.337-.337v-5.21a.337.337 0 00-.337-.336zm-5.546-5.28v.443h-.408a.337.337 0 100 .673h.408v1.187H13.08v-1.187h.407a.337.337 0 100-.673h-.407v-.443h4.536zm-6.698 0v.443h-.407a.337.337 0 100 .673h.407v1.187H6.383v-1.187h.408a.337.337 0 000-.673h-.408v-.443h4.536zm9.604-2.977h.815v8.257h-.815V6.755zM5.303 12.71h13.395c.635 0 1.151.517 1.151 1.151v1.152H4.151V13.86c0-.634.516-1.151 1.151-1.151zm-2.64-5.954h.814v8.257h-.815V6.755zm-1.49 13.466v-4.535h.815v4.536h-.814zm1.49-1.116v-3.42h18.675v3.42H2.662zm20.163 1.116h-.814v-4.535h.814v4.535z"/>
    <path d="M6.046 16.128H3.441a.337.337 0 00-.337.337v1.86c0 .187.151.337.337.337h2.605c.186 0 .337-.15.337-.336v-1.86a.337.337 0 00-.337-.338zm-.337 1.86H3.78v-1.186h1.93v1.187zM16.838 16.128H7.163a.337.337 0 00-.337.337v1.86c0 .187.151.337.337.337h9.675c.186 0 .337-.15.337-.336v-1.86a.337.337 0 00-.337-.338zm-.337 1.86H7.5v-1.186h9v1.187zM20.559 16.128h-2.605a.337.337 0 00-.337.337v1.86c0 .187.151.337.337.337h2.605c.186 0 .337-.15.337-.336v-1.86a.337.337 0 00-.337-.338zm-.337 1.86H18.29v-1.186h1.93v1.187zM13.081 7.162a1.082 1.082 0 00-2.162 0c0 .597.485 1.082 1.081 1.082s1.081-.485 1.081-1.082zm-1.488 0a.408.408 0 11.815.001.408.408 0 01-.815 0z"/>
  </g>
</svg>
