<svg width="24" height="24" fill="none" xmlns="http://www.w3.org/2000/svg">
  <defs/>
  <path d="M3.197 13.734h17.66v-.057a2.15 2.15 0 00-2.15-2.15H5.347a2.15 2.15 0 00-2.15 2.15v.057z" fill="#CFDCE5"/>
  <g fill="#BAC6CC">
    <path d="M7.419 11.527H5.348a2.15 2.15 0 00-2.15 2.15v.057h2.07v-.057a2.15 2.15 0 012.151-2.15zM16.635 11.526h2.071a2.15 2.15 0 012.15 2.15v.057h-2.071v-.057a2.15 2.15 0 00-2.15-2.15z"/>
  </g>
  <path d="M13.061 10.404c-.22.394-.462.768-.722 1.123H5.533c-.26-.355-.5-.73-.722-1.123a10.623 10.623 0 014.124-4.125c1.76.99 3.136 2.365 4.126 4.125z" fill="#CFDCE5"/>
  <g fill="#FCD577">
    <path d="M3.196 4.195H.91v15.61h2.286V4.195zM23.142 9.718h-2.287v10.086h2.287V9.718z"/>
    <path d="M20.856 13.734H3.196v4.414h17.66v-4.414z"/>
  </g>
  <path d="M20.857 13.734h-1.131v4.415h1.13v-4.415z" fill="#EAC36E"/>
  <path d="M6.978 11.527H5.533c-.26-.355-.5-.73-.722-1.123a10.623 10.623 0 014.124-4.125c-.035.048-2.567 3.53-1.957 5.248z" fill="#BAC6CC"/>
  <path d="M23.116 9.335H20.83a.384.384 0 00-.384.384v2.143a2.525 2.525 0 00-1.767-.72h-5.64c.114-.18.225-.363.33-.55a.384.384 0 000-.377 11.05 11.05 0 00-4.272-4.271.384.384 0 00-.377 0 11.05 11.05 0 00-4.271 4.272.384.384 0 000 .376c.115.205.236.406.363.602a2.531 2.531 0 00-1.258.668V4.195a.384.384 0 00-.384-.384H.884a.384.384 0 00-.384.384v1.801a.384.384 0 00.768 0V4.579h1.518v14.842H1.268V7.43a.384.384 0 10-.768 0v12.375c0 .212.172.384.384.384H3.17a.384.384 0 00.384-.384v-1.272h16.892v1.272c0 .212.172.384.384.384h2.286a.384.384 0 00.384-.384V9.719a.384.384 0 00-.384-.384zM8.909 6.72a10.272 10.272 0 013.682 3.683c-.15.254-.31.501-.477.739h-6.41a10.86 10.86 0 01-.477-.74 10.27 10.27 0 013.682-3.682zM3.554 17.765v-3.647h13.61a.384.384 0 100-.768H3.585a1.77 1.77 0 011.736-1.44h13.36a1.77 1.77 0 011.735 1.44h-1.97a.384.384 0 000 .768h2v3.647H3.556zm19.178 1.656h-1.518v-9.319h1.518v9.319z" fill="#000"/>
</svg>
