<svg width="24" height="24" fill="none" xmlns="http://www.w3.org/2000/svg">
  <defs/>
  <path d="M17.626 23.164H6.374c-.71 0-1.285-.576-1.285-1.286v-1.97H18.91v1.97c0 .71-.575 1.286-1.285 1.286z" fill="#D6D6D6"/>
  <path d="M17.16 2.195v-1.11H6.84v1.11c0 .32-.115.628-.325.869L4.792 5.04c-.21.241-.325.55-.325.87v15.03c0 .517.42.936.937.936h13.193c.518 0 .937-.42.937-.937V5.91c0-.319-.115-.628-.325-.869l-1.724-1.977c-.21-.241-.325-.55-.325-.87z" fill="#EDEDED"/>
  <path d="M17.199 5.91v15.966h1.399c.517 0 .937-.419.937-.936V5.91c0-.32-.116-.628-.326-.869l-1.724-1.978c-.21-.24-.325-.55-.325-.869v-1.11h-2.336v1.11c0 .32.116.629.326.87l1.723 1.977c.21.24.326.55.326.869z" fill="#D6D6D6"/>
  <path d="M19.534 20.94V5.95H4.467v14.99c0 .517.42.936.937.936h13.193c.518 0 .937-.419.937-.936z" fill="#FF9C43"/>
  <path d="M17.198 21.876h1.4c.517 0 .936-.419.936-.936V5.95h-2.336v15.926z" fill="#EF8229"/>
  <path d="M17.577 2.276H6.423a.442.442 0 01-.442-.442V1.28c0-.244.198-.442.442-.442h11.154c.244 0 .442.198.442.442v.554a.442.442 0 01-.442.442z" fill="#D6D6D6"/>
  <g>
    <path d="M12 19.045a4.014 4.014 0 01-4.014-4.014v-2.236a4.014 4.014 0 118.028 0v2.236A4.014 4.014 0 0112 19.045z" fill="#AA4B21"/>
    <path d="M16.588 15.92H7.412a1.107 1.107 0 01-1.106-1.106v-1.802c0-.611.495-1.107 1.106-1.107h9.176c.611 0 1.107.496 1.107 1.107v1.802c0 .611-.496 1.107-1.107 1.107z" fill="#964117"/>
  </g>
  <g fill="#000">
    <path d="M19.462 4.82L17.74 2.84a.985.985 0 01-.15-.23.78.78 0 00.767-.778V1.28A.78.78 0 0017.577.5H6.424a.78.78 0 00-.778.779v.554a.78.78 0 00.766.779.984.984 0 01-.15.23L4.539 4.818a1.66 1.66 0 00-.408 1.09v15.03c0 .468.253.878.63 1.1.081.819.774 1.461 1.615 1.461h11.251c.84 0 1.534-.642 1.615-1.462.377-.221.63-.631.63-1.099V5.91c0-.4-.145-.788-.409-1.09zm-.265 16.12a.6.6 0 01-.6.599H5.404a.6.6 0 01-.6-.6V6.286h14.393v14.653zM6.32 1.832V1.28c0-.058.047-.105.104-.105h11.155c.057 0 .104.047.104.105v.554a.105.105 0 01-.104.105H6.423a.105.105 0 01-.104-.105zm.45 1.451c.17-.193.29-.425.355-.672h9.753c.064.247.186.479.354.672l1.724 1.978c.09.103.156.222.196.35H4.85a.986.986 0 01.196-.35L6.77 3.284zm10.857 19.542H6.375a.95.95 0 01-.888-.613h13.027a.95.95 0 01-.888.613z"/>
    <path d="M7.412 16.257h9.176c.796 0 1.444-.648 1.444-1.444v-1.801c0-.796-.648-1.444-1.444-1.444H7.412c-.796 0-1.443.648-1.443 1.444v1.801c0 .796.647 1.444 1.443 1.444zm-.77-3.245a.77.77 0 01.77-.77h9.176a.77.77 0 01.77.77v1.801a.77.77 0 01-.77.77H7.412a.77.77 0 01-.77-.77v-1.801zM8.48 10.837a.337.337 0 00.468-.092 3.675 3.675 0 016.114.013.337.337 0 10.56-.374 4.346 4.346 0 00-3.621-1.94c-1.451 0-2.802.72-3.613 1.925a.337.337 0 00.092.468zM15.525 16.982a.337.337 0 00-.468.092 3.675 3.675 0 01-6.109.007.337.337 0 00-.558.377A4.348 4.348 0 0012 19.38a4.347 4.347 0 003.617-1.932.337.337 0 00-.092-.467z"/>
  </g>
</svg>
