<svg width="24" height="24" fill="none" xmlns="http://www.w3.org/2000/svg">
  <defs/>
  <path d="M6.74 4.703V.837H3.816v3.866c0 1.67-.376 3.318-1.099 4.822a11.129 11.129 0 00-1.099 4.822v7.572c0 .687.557 1.244 1.245 1.244h4.832c.687 0 1.244-.557 1.244-1.244v-7.572c0-1.67-.375-3.317-1.099-4.822a11.129 11.129 0 01-1.098-4.822z" fill="#A4D852"/>
  <path d="M7.84 9.525a11.129 11.129 0 01-1.1-4.822V.837H4.42v3.866c0 1.67.376 3.318 1.1 4.822a11.129 11.129 0 011.098 4.822v7.572c0 .687-.557 1.244-1.244 1.244h2.32c.687 0 1.244-.557 1.244-1.244v-7.572c0-1.67-.375-3.317-1.099-4.822z" fill="#97C63E"/>
  <path d="M6.75 2.392H3.806a.51.51 0 01-.496-.622l.148-.65a.364.364 0 01.355-.283h2.932c.17 0 .317.117.355.283l.148.65a.51.51 0 01-.496.622z" fill="#345863"/>
  <g>
    <path d="M17.544 23.155h-4.13a2.02 2.02 0 01-2.02-2.02v-8.932h8.169v8.932a2.02 2.02 0 01-2.02 2.02z" fill="#FFE471"/>
    <path d="M17.243 12.202v8.932a2.02 2.02 0 01-2.02 2.02h2.32a2.02 2.02 0 002.02-2.02v-8.932h-2.32z" fill="#F2CA20"/>
    <path d="M19.093 11.037c-.206 0-.402.047-.576.131a1.72 1.72 0 00-1.62-1.156h-.003l.003-.09a1.719 1.719 0 00-3.339-.578 1.72 1.72 0 00-2.09 1.674v.064a1.315 1.315 0 00-.076 2.476l-.005 2.264a.698.698 0 101.396.003l.003-1.225v-.007a.698.698 0 011.395.003v.259a.698.698 0 101.395.003l.003-1.202 3.508.009a1.314 1.314 0 10.006-2.628z" fill="#F9EEC2"/>
    <g>
      <path d="M19.09 11.028c-.207 0-.403.048-.577.133a1.72 1.72 0 00-1.622-1.152h-.003l.003-.09a1.719 1.719 0 00-2.928-1.221 1.715 1.715 0 01.605 1.4h.003c.75 0 1.388.482 1.623 1.153a1.314 1.314 0 111.054 2.405h1.841a1.314 1.314 0 000-2.628z" fill="#FFE471"/>
    </g>
  </g>
  <path d="M4.354 19.653h4.584v-5.306c0-.402-.022-.802-.065-1.2h-4.52a.304.304 0 00-.303.304v5.898c0 .168.136.304.304.304z" fill="#FFE471"/>
  <path d="M6.618 14.347v5.306h2.32v-5.306c0-.402-.022-.802-.066-1.2h-2.32c.044.398.066.798.066 1.2z" fill="#F2CA20"/>
  <g fill="#000">
    <path d="M21.195 14.277h-1.294v-.497a1.652 1.652 0 00-1.207-3.041 2.06 2.06 0 00-1.478-1.041 2.059 2.059 0 00-2.044-1.835c-.776 0-1.48.439-1.828 1.115a2.059 2.059 0 00-2.21 1.885 1.646 1.646 0 00-.916 1.479c0 .597.33 1.148.84 1.438v7.354a2.36 2.36 0 002.357 2.357h4.13a2.36 2.36 0 002.356-2.357v-.52h1.294c.84 0 1.524-.684 1.524-1.524V15.8c0-.84-.684-1.524-1.524-1.524zm-10.303-1.935c0-.426.272-.8.677-.93a.337.337 0 00.233-.333v-.005l-.001-.046a1.383 1.383 0 011.678-1.35.337.337 0 00.39-.217 1.383 1.383 0 012.684.531.337.337 0 00.336.354h.006a1.383 1.383 0 011.3.926.337.337 0 00.467.192.978.978 0 11.428 1.856h-3.507a.337.337 0 00-.337.336v1.202a.361.361 0 01-.722 0V14.6a1.036 1.036 0 00-2.07 0v1.232a.361.361 0 01-.722 0v-2.263a.337.337 0 00-.215-.314.984.984 0 01-.625-.912zm8.335 8.792c0 .928-.755 1.683-1.683 1.683h-4.13a1.684 1.684 0 01-1.682-1.683v-4.333a1.036 1.036 0 001.396-.97V14.6a.361.361 0 01.722 0v.26a1.036 1.036 0 002.07 0v-.866h3.17c.046 0 .092-.002.137-.005v7.146zm2.818-2.044a.85.85 0 01-.85.85h-1.294V14.95h1.294a.85.85 0 01.85.85v3.289zM4.354 12.81a.642.642 0 00-.641.642v5.897c0 .353.287.64.64.64H7.6a.337.337 0 100-.673H4.387v-5.832h3.136a.337.337 0 000-.674h-3.17z"/>
    <path d="M7.077 4.703v-2.04a.844.844 0 00.498-.968l-.148-.65A.697.697 0 006.744.5H3.811a.697.697 0 00-.683.545l-.148.65a.842.842 0 00.498.969v2.04c0 1.608-.369 3.225-1.066 4.675a11.535 11.535 0 00-1.132 4.968v7.572c0 .872.71 1.581 1.582 1.581h4.832c.872 0 1.581-.71 1.581-1.581v-7.572c0-1.71-.391-3.427-1.132-4.968a10.857 10.857 0 01-1.066-4.676zm-3.44-2.858l.148-.65a.027.027 0 01.026-.021h2.933c.013 0 .023.008.026.02l.148.65a.17.17 0 01-.033.147.17.17 0 01-.135.064H3.805a.17.17 0 01-.135-.064.17.17 0 01-.033-.146zm4.964 20.074c0 .5-.407.907-.907.907H2.862a.908.908 0 01-.908-.907v-7.572c0-1.609.369-3.226 1.066-4.676a11.534 11.534 0 001.132-4.967V2.729h2.252v1.974c0 1.71.391 3.428 1.132 4.968A10.856 10.856 0 018.6 14.347v7.572z"/>
  </g>
</svg>
