<svg width="24" height="24" fill="none" xmlns="http://www.w3.org/2000/svg">
  <defs/>
  <path d="M10.777 8.477a.612.612 0 10.001 1.224.612.612 0 00-.001-1.224z" fill="#185F8D"/>
  <path d="M14.864 19.148l-8.174-.003v3.62h8.173l.001-3.617zm-.735 2.517a.367.367 0 01-.367.367h-5.97a.367.367 0 01-.368-.367v-1.419a.367.367 0 01.735 0v1.052h5.236v-1.05a.367.367 0 11.735 0v1.417zM20.338 8.348a.741.741 0 10.002 1.482.741.741 0 00-.002-1.482z" fill="#6DA8D6"/>
  <path d="M10.777 1.234c-4.33 0-7.854 3.524-7.854 7.854 0 4.331 3.523 7.855 7.854 7.855 4.331 0 7.854-3.524 7.854-7.855 0-4.33-3.523-7.854-7.854-7.854zM9.431 9.088c0-.742.604-1.345 1.346-1.345.742 0 1.346.603 1.346 1.345s-.604 1.346-1.346 1.346a1.347 1.347 0 01-1.346-1.346zm5.452 5.204a6.606 6.606 0 01-3.372 1.384.367.367 0 01-.043-.732 5.873 5.873 0 002.96-1.228.367.367 0 01.454.576zm1.098-1.098a.367.367 0 11-.576-.456 5.83 5.83 0 001.269-3.65 5.904 5.904 0 00-5.897-5.896A5.903 5.903 0 004.88 9.088a5.895 5.895 0 005.206 5.856.367.367 0 11-.086.73 6.629 6.629 0 01-5.854-6.586 6.638 6.638 0 016.631-6.63 6.638 6.638 0 016.631 6.63 6.558 6.558 0 01-1.427 4.106z" fill="#98D9D5"/>
  <path d="M13.763 19.881a.367.367 0 00-.367.367v1.05H8.159v-1.052a.367.367 0 00-.734 0v1.419c0 .203.164.367.367.367h5.97a.367.367 0 00.367-.367l.001-1.416a.367.367 0 00-.367-.367zM12.122 9.088c0-.742-.604-1.346-1.346-1.346-.742 0-1.345.604-1.345 1.346 0 .742.603 1.346 1.345 1.346s1.346-.604 1.346-1.346zm-1.346.612a.612.612 0 11.002-1.225.612.612 0 01-.002 1.225z" fill="#082947"/>
  <path d="M20.338 7.614c-.404 0-.77.163-1.037.427C18.783 3.798 15.158.5 10.777.5 6.04.5 2.188 4.353 2.188 9.088c0 4.736 3.853 8.589 8.589 8.589 4.381 0 8.006-3.298 8.524-7.542a1.47 1.47 0 001.691.274 10.343 10.343 0 01-5.843 8.005l-8.825-.003a.367.367 0 00-.367.367v4.355c0 .203.164.367.367.367h8.906a.367.367 0 00.367-.367l.001-4.12a11.058 11.058 0 004.422-3.898 10.983 10.983 0 001.792-6.027c0-.813-.661-1.474-1.474-1.474zM6.69 19.144l8.173.004v3.618H6.69v-3.621zm13.647-9.316a.741.741 0 11.001-1.482.741.741 0 01-.001 1.482zm-9.561 7.115c-4.331 0-7.854-3.524-7.854-7.855 0-4.33 3.523-7.854 7.854-7.854 4.33 0 7.854 3.523 7.854 7.854 0 4.331-3.523 7.855-7.854 7.855z" fill="#082947"/>
  <path d="M10.776 2.458a6.638 6.638 0 00-6.63 6.63 6.63 6.63 0 005.897 6.588.367.367 0 00.042-.732A5.895 5.895 0 014.88 9.088a5.903 5.903 0 015.896-5.896 5.903 5.903 0 015.897 5.896 5.83 5.83 0 01-1.269 3.65.367.367 0 00.576.456 6.558 6.558 0 001.427-4.106 6.638 6.638 0 00-6.63-6.63z" fill="#fff"/>
  <path d="M14.427 13.716a5.873 5.873 0 01-2.96 1.228.367.367 0 00.086.73 6.607 6.607 0 003.329-1.382.367.367 0 10-.455-.576z" fill="#fff"/>
</svg>
