<svg width="24" height="24" fill="none" xmlns="http://www.w3.org/2000/svg">
  <defs/>
  <path d="M22.686 13.501H1.315a.478.478 0 01-.478-.477v-2.048c0-.264.214-.478.478-.478h21.37c.264 0 .478.214.478.478v2.048a.478.478 0 01-.477.477z" fill="#D6694B"/>
  <path d="M22.686 10.498h-2.92c.263 0 .477.214.477.478v2.048a.478.478 0 01-.477.477h2.92a.478.478 0 00.477-.477v-2.048a.478.478 0 00-.477-.478zM2.388 10.498H1.315a.478.478 0 00-.478.478v2.048c0 .264.214.477.478.477h1.073V10.5z" fill="#C4573A"/>
  <path d="M14.608 9.216H9.392a.785.785 0 00-.786.785v3.998c0 .434.352.785.786.785h5.216a.785.785 0 00.785-.785v-3.998a.785.785 0 00-.785-.785zm-.383 4.198c0 .112-.09.202-.202.202H9.977a.202.202 0 01-.203-.202v-2.828c0-.112.09-.203.203-.203h4.046c.111 0 .202.091.202.203v2.828z" fill="#FAC600"/>
  <path d="M16.103 12.535h-2.535a.535.535 0 010-1.07h2.535a.535.535 0 010 1.07z" fill="#FAC600"/>
  <path d="M18.007 12.337a.337.337 0 100-.674.337.337 0 000 .674zM20.037 12.337a.337.337 0 100-.674.337.337 0 000 .674zM11.484 12.337a.337.337 0 100-.674.337.337 0 000 .674z" fill="#000"/>
  <path d="M21.612 10.498h1.073c.264 0 .478.214.478.478v2.048a.478.478 0 01-.478.477h-1.073V10.5z" fill="#C4573A"/>
  <path d="M22.686 10.162H15.73V10c0-.619-.503-1.122-1.122-1.122H9.392c-.619 0-1.122.503-1.122 1.122v.16H5.846a.337.337 0 000 .675H8.27v2.328H2.724v-2.329h1.774a.337.337 0 000-.673H1.315a.815.815 0 00-.815.814v2.048c0 .449.365.814.815.814H8.27V14c0 .619.503 1.122 1.122 1.122h5.216c.619 0 1.122-.503 1.122-1.122v-.16h.627a.337.337 0 100-.675h-.627v-.292h.373a.873.873 0 000-1.744h-.373v-.293h5.546v2.33h-3.57a.337.337 0 000 .673h4.98c.449 0 .814-.365.814-.814v-2.048a.815.815 0 00-.814-.814zM1.174 13.024v-2.048a.14.14 0 01.14-.14h.737v2.328h-.736a.14.14 0 01-.141-.14zM16.3 12c0 .11-.088.198-.198.198h-2.535a.198.198 0 010-.396h2.535c.11 0 .198.089.198.198zm-2.413-.872h-.32a.873.873 0 000 1.744h.32v.407h-3.776V10.72h3.776v.408zm.674 0v-.542a.54.54 0 00-.539-.54H9.977a.54.54 0 00-.54.54v2.828a.54.54 0 00.54.54h4.046a.54.54 0 00.54-.54v-.542h.493v1.127a.449.449 0 01-.448.448H9.392A.449.449 0 018.944 14v-3.998c0-.247.2-.448.448-.448h5.216c.247 0 .448.2.448.448v1.127h-.494zm8.264 1.896a.14.14 0 01-.14.14h-.737v-2.329h.736a.14.14 0 01.141.141v2.048z" fill="#000"/>
</svg>
