<svg width="24" height="24" fill="none" xmlns="http://www.w3.org/2000/svg">
  <defs/>
  <path d="M12.066 22.55c5.752 0 10.415-4.663 10.415-10.415 0-5.752-4.663-10.415-10.415-10.415-5.752 0-10.415 4.663-10.415 10.415 0 5.752 4.663 10.415 10.415 10.415z" fill="#FFF7E6"/>
  <path d="M12.067 18.894a6.76 6.76 0 100-13.519 6.76 6.76 0 000 13.519z" fill="#FFEFCA"/>
  <path d="M12.799 14.496h-1.5v6.828h1.5v-6.828z" fill="#BED8E4"/>
  <g fill="#B1C6D3">
    <path d="M12.799 14.497h-.76v6.827h.76v-6.827z"/>
    <path d="M15.208 21.28H8.891v1.851h6.317V21.28z"/>
  </g>
  <path d="M9.818 23.131h-.927V21.28h.958" fill="#BED8E4"/>
  <path d="M14.295 21.28h.913v1.851h-.913" fill="#8D93A4"/>
  <path d="M11.069 13.221c-.178.177-.304.552-.304.822a1.285 1.285 0 102.362-.7c-.504-.713-1.4-.899-2.059-.122z" fill="#B1C6D3"/>
  <path d="M17.187 4.801a1.384 1.384 0 11.751-2.546V1.237a.374.374 0 00-.372-.372L6.374.86a.374.374 0 00-.373.372v1.08a1.384 1.384 0 110 2.2L6 5.594c0 .205.167.373.372.373h2.409l8.783.003a.373.373 0 00.373-.372V4.58c-.216.14-.473.221-.75.221zm-5.218 0a1.384 1.384 0 110-2.769 1.384 1.384 0 010 2.768z" fill="#6BE8C7"/>
  <path d="M11.969 4.8a1.384 1.384 0 100-2.768 1.384 1.384 0 000 2.768z" fill="#3CD3A8"/>
  <g fill="#9AF7DD">
    <path d="M15.804 3.417a1.384 1.384 0 002.133 1.163l.001-2.325a1.384 1.384 0 00-2.134 1.162zM8.224 3.413a1.384 1.384 0 00-2.223-1.1L6 4.513a1.384 1.384 0 002.224-1.099z"/>
  </g>
  <path d="M15.138 12.446c-.862.623-1.945.937-3.088.937a5.557 5.557 0 01-5.557-5.557h11.114a5.53 5.53 0 01-.864 2.977s-.882 1.146-1.605 1.643z" fill="#BED8E4"/>
  <path d="M12.067 12.162a.369.369 0 01-.369-.368v-1.646l-.413.414a.369.369 0 11-.522-.522l1.044-1.043a.369.369 0 01.63.26v2.537a.369.369 0 01-.37.368z" fill="#000"/>
  <path d="M13.427 13.222c.794-.22 1.206-.41 1.711-.776.398-.273.843-.743 1.164-1.11a5.201 5.201 0 001.108-2.04c.128-.468.196-.96.196-1.47h-1.663c-.294 1.82-1.143 4.258-2.516 5.396z" fill="#B1C6D3"/>
  <path d="M10.628 13.195c-.795-.22-1.226-.384-1.73-.749-.399-.273-.844-.743-1.165-1.11a5.2 5.2 0 01-1.108-2.04 5.564 5.564 0 01-.196-1.47h1.663c.295 1.82 1.162 4.231 2.536 5.37z" fill="#D3E8F1"/>
  <path d="M8.792 18.153a.369.369 0 00-.119-.508 6.408 6.408 0 01-2.84-3.92 6.377 6.377 0 01-.127-2.275.369.369 0 00-.732-.091 7.184 7.184 0 00.14 2.537 7.151 7.151 0 003.17 4.377.367.367 0 00.508-.12zM19.08 12.222a7.06 7.06 0 00-.074-1.02.369.369 0 00-.73.108 6.365 6.365 0 01-1.463 5.068 6.431 6.431 0 01-1.99 1.549.369.369 0 10.33.66 7.175 7.175 0 002.218-1.728 7.102 7.102 0 001.709-4.637z" fill="#000"/>
  <path d="M6.777 20.81a10.12 10.12 0 01-3.346-3.346 10.03 10.03 0 01-1.463-5.212c0-1.602.384-3.193 1.111-4.602.419-.811.947-1.563 1.571-2.234a.369.369 0 00-.54-.503c-.67.72-1.237 1.528-1.687 2.4a10.817 10.817 0 00-1.175 5.561 10.77 10.77 0 001.553 4.974 10.862 10.862 0 003.59 3.592.367.367 0 00.508-.122.369.369 0 00-.122-.507zM20.083 5.126a.369.369 0 10-.554.488 10.021 10.021 0 012.503 6.63 10.03 10.03 0 01-1.317 4.973A10.1 10.1 0 0117.24 20.8a.369.369 0 10.386.629 10.84 10.84 0 003.728-3.845 10.77 10.77 0 001.415-5.34c0-2.624-.954-5.151-2.687-7.118zM6.436 6.34l11.14-.02a.741.741 0 00.738-.74l-.008-4.342a.741.741 0 00-.74-.738l-.74.001a.369.369 0 000 .738h.742l.006 4.344-11.14.018-.007-4.343 8.742-.016a.369.369 0 000-.738h-.001L6.426.52a.741.741 0 00-.739.741l.008 4.341c.001.407.333.739.741.739z" fill="#000"/>
  <path d="M10.254 3.423A1.749 1.749 0 0012 5.167h.003a1.75 1.75 0 001.743-1.75 1.75 1.75 0 00-1.749-1.743 1.75 1.75 0 00-1.743 1.75zm2.755-.003a1.01 1.01 0 01-1.007 1.009v.369L12 4.428a1.01 1.01 0 01-1.008-1.008A1.01 1.01 0 0112 2.412 1.01 1.01 0 0113.01 3.42zM16.944 2.504a.369.369 0 00-.072-.735 1.644 1.644 0 00-1.486 1.645c.001.82.614 1.52 1.424 1.631a.369.369 0 00.1-.73.915.915 0 01-.787-.904c0-.471.353-.861.821-.907zM7.058 4.323a.369.369 0 10.15.722 1.656 1.656 0 001.314-1.619A1.645 1.645 0 007.15 1.803a.369.369 0 10-.123.727.91.91 0 01.757.9c0 .43-.305.806-.726.893zM15.209 21.049h-2.09V15.21a1.65 1.65 0 00.457-1.72 5.89 5.89 0 001.718-.786c.198-.133.389-.278.569-.433a.369.369 0 10-.481-.56A5.163 5.163 0 0112 12.965a5.195 5.195 0 01-5.175-4.818h10.35a5.164 5.164 0 01-.794 2.41.369.369 0 10.623.396 5.907 5.907 0 00.921-3.175.369.369 0 00-.369-.369H6.444a.369.369 0 00-.369.37 5.936 5.936 0 004.35 5.712 1.653 1.653 0 00.457 1.72v5.839h-1.99a.369.369 0 00-.37.369v1.713c0 .204.165.369.37.369h6.317a.369.369 0 00.369-.369v-1.713a.369.369 0 00-.37-.369zM12 13.703c.285 0 .567-.021.845-.06a.913.913 0 01-.845 1.266.917.917 0 01-.846-1.267c.276.04.559.06.846.06zm0 1.944c.13 0 .258-.015.38-.045v5.304h-.761v-5.303c.122.029.25.044.38.044zm2.839 7.115H9.26v-.975h5.58v.975z" fill="#000"/>
</svg>
