<svg width="24" height="24" fill="none" xmlns="http://www.w3.org/2000/svg">
  <defs/>
  <g fill-rule="evenodd" clip-rule="evenodd">
    <path d="M4.933 10.918c-2.26 0-4.093 1.82-4.093 4.066 0 2.246 1.832 4.067 4.093 4.067a4.092 4.092 0 003.92-2.888l-1.695-.083a2.485 2.485 0 01-2.225 1.37 2.474 2.474 0 01-2.482-2.466 2.474 2.474 0 013.04-2.403 2.484 2.484 0 011.684 1.34l1.678-.115a4.088 4.088 0 00-3.92-2.888z" fill="#838383"/>
    <path d="M4.933 12.518a2.474 2.474 0 00-2.482 2.466 2.474 2.474 0 002.482 2.466c.975 0 1.819-.558 2.225-1.37l.017-2.158a2.484 2.484 0 00-2.242-1.404z" fill="#ECECEC"/>
    <path d="M8.854 13.806l-1.679.116-2.021.14c-.119.008-.225.03-.323.062-.98.333-.876 1.8.285 1.857l2.043.1 1.695.082 3.4.164c2.066.1 1.937-2.889-.06-2.751l-.528.036-2.812.194z" fill="#FFD659"/>
    <path d="M8.853 13.806a4.088 4.088 0 00-3.894-2.888c.368.108.716.271 1.037.48.846.554 1.5 1.431 1.825 2.48l1.032-.072zM8.854 16.163l-.86-.043a4.815 4.815 0 01-1.076 2.422 4.085 4.085 0 001.936-2.38z" fill="#595959"/>
    <path d="M11.564 15.712l-2.581-.124-.82-.04-.803-.04-.198-.01-.693-.033-2.043-.099a1.253 1.253 0 01-.217-.03c.108.34.412.62.907.645l2.042.1.835.04.86.042 3.4.164c1.793.088 1.932-2.155.632-2.658.446.84.036 2.109-1.32 2.043z" fill="#FFBF00"/>
    <path d="M17.67 11.161a4.07 4.07 0 00-2.697 3.823c0 2.246 1.832 4.067 4.093 4.067 2.262 0 4.095-1.82 4.095-4.067 0-2.246-1.833-4.066-4.095-4.066-.49 0-.96.085-1.396.243z" fill="#838383"/>
    <path d="M18.219 12.666a2.467 2.467 0 00-1.635 2.318 2.474 2.474 0 002.482 2.466 2.475 2.475 0 002.483-2.466 2.475 2.475 0 00-2.483-2.466c-.297 0-.582.053-.847.148z" fill="#ECECEC"/>
    <path d="M23.161 14.984c0-2.179-1.726-3.958-3.895-4.062a4.074 4.074 0 012.957 3.908c0 2.246-1.833 4.066-4.094 4.066-.067 0-.134 0-.2-.003a4.15 4.15 0 001.138.158c2.262 0 4.094-1.82 4.094-4.067z" fill="#595959"/>
    <path d="M8.762 5.39l-2.203-.414c-1.628-.306-1.918 2.201-.106 2.201h2.153c1.499 0 1.406-1.553.156-1.787z" fill="#ECECEC"/>
    <path d="M8.607 7.177c1.498 0 1.406-1.553.155-1.787l-.437-.082c.714.395.849 1.416.26 1.869h.022z" fill="#CECECE"/>
  </g>
  <path d="M19.066 10.578c-.412 0-.811.056-1.19.162l-.85-2.325v-2.36-.047a2.33 2.33 0 01.192-.006h1.906a.824.824 0 010 1.646.34.34 0 100 .678 1.503 1.503 0 000-3.003h-1.906c-.44 0-.87.056-.87.732v2.08H7.582v-.619h1.023c.993 0 1.398-.57 1.444-1.058.051-.559-.36-1.24-1.226-1.402l-2.203-.414c-.592-.111-1.12.074-1.449.51a1.525 1.525 0 00-.148 1.567c.252.506.773.797 1.429.797h.452v.89l-.976 2.284a4.496 4.496 0 00-.996-.112C2.489 10.578.5 12.555.5 14.984c0 2.43 1.989 4.406 4.433 4.406.971 0 1.893-.306 2.666-.885a4.453 4.453 0 001.492-1.991l1.412.068a.34.34 0 00.033-.678l-3.354-.163h-.007l-2.043-.1c-.46-.021-.627-.333-.63-.592-.003-.3.205-.617.674-.649l7.04-.486c.454-.031.818.136 1.025.471.214.347.224.808.025 1.145-.19.322-.535.48-.996.458a.339.339 0 10-.033.678l.113.003c.658 0 1.201-.286 1.5-.794.325-.549.312-1.29-.031-1.846-.22-.355-.547-.601-.94-.718l3.685-4.184.673 1.843a4.41 4.41 0 00-2.604 4.014c0 2.43 1.988 4.406 4.433 4.406s4.434-1.977 4.434-4.406c0-2.43-1.99-4.406-4.434-4.406zM6.453 6.837c-.4 0-.684-.145-.821-.42a.844.844 0 01.081-.855.688.688 0 01.576-.273c.063 0 .132.006.207.02l2.203.414c.47.088.698.412.675.672-.026.273-.32.442-.768.442H6.453zm5.577 6.41l-.216.014-3.78-4.447h7.901l-3.905 4.432zM7.36 9.067l3.612 4.251-1.883.13a4.452 4.452 0 00-2.508-2.557l.779-1.824zm.01 4.5a2.84 2.84 0 00-1.42-1.199l.365-.854a3.71 3.71 0 012.063 1.983l-1.008.07zm-1.687-.575c.347.13.657.347.896.63l-1.2.083.304-.713zm-.75 5.718c-2.07 0-3.754-1.672-3.754-3.727 0-2.055 1.684-3.727 3.754-3.727.247 0 .49.024.724.069l-.374.875a2.817 2.817 0 00-3.172 2.783 2.817 2.817 0 002.822 2.805 2.81 2.81 0 002.42-1.36l1.021.05a3.732 3.732 0 01-3.441 2.232zm.166-2.391l1.443.07c-.4.454-.98.72-1.609.72a2.137 2.137 0 01-2.143-2.126 2.137 2.137 0 012.212-2.126l-.43 1.005c-.498.236-.753.725-.748 1.192.005.58.407 1.223 1.275 1.265zm13.967 2.39c-2.07 0-3.754-1.671-3.754-3.726a3.73 3.73 0 012.16-3.373l.318.872a2.806 2.806 0 00-1.546 2.5c0 .682.257 1.348.723 1.876a.34.34 0 10.509-.45 2.16 2.16 0 01-.553-1.425c0-.798.445-1.495 1.102-1.858l.722 1.974a.34.34 0 00.638-.233l-.721-1.972a2.138 2.138 0 012.546 2.088 2.138 2.138 0 01-2.144 2.127c-.135 0-.273-.02-.42-.043l-.053-.008a.34.34 0 00-.101.671l.052.008c.165.025.335.051.522.051a2.817 2.817 0 002.823-2.805 2.817 2.817 0 00-3.46-2.733l-.32-.871a3.77 3.77 0 01.957-.123c2.07 0 3.755 1.672 3.755 3.727 0 2.055-1.684 3.727-3.755 3.727z" fill="#000"/>
</svg>
