<svg width="24" height="24" fill="none" xmlns="http://www.w3.org/2000/svg">
  <defs/>
  <path d="M14.977 5.302l-2.786-2.786a.27.27 0 00-.381 0L9.023 5.302v.23h5.954v-.23z" fill="#985335"/>
  <path d="M11.81 2.516l-.26.259 2.528 2.527v.23h.899v-.23L12.19 2.516a.27.27 0 00-.382 0z" fill="#87462A"/>
  <path d="M14.977 5.302H9.023v1.713h5.954V5.302z" fill="#FFD151"/>
  <path d="M14.977 5.302h-.898v1.713h.898V5.302z" fill="#F79B4A"/>
  <path d="M17.21 9.023l-.683-2.048a.27.27 0 00-.256-.184H7.73a.27.27 0 00-.256.184L6.79 9.023v.461H17.21v-.46z" fill="#985335"/>
  <path d="M16.527 6.975a.27.27 0 00-.256-.184h-.897a.27.27 0 01.256.184l.682 2.048v.461h.898v-.46l-.683-2.05z" fill="#87462A"/>
  <path d="M16.838 20.266v2.628a.27.27 0 01-.27.27H7.433a.27.27 0 01-.27-.27v-2.628h9.675z" fill="#F79B4A"/>
  <path d="M17.685 20.93H6.316a.27.27 0 01-.27-.27V9.294c0-.15.122-.27.27-.27h11.369c.148 0 .27.12.27.27V20.66a.27.27 0 01-.27.27z" fill="#FFD151"/>
  <path d="M17.685 9.023h-.899c.149 0 .27.12.27.27V20.66a.27.27 0 01-.27.27h.899a.27.27 0 00.27-.27V9.293a.27.27 0 00-.27-.27z" fill="#F79B4A"/>
  <path d="M12 19.442a4.465 4.465 0 100-8.93 4.465 4.465 0 000 8.93z" fill="#58565C"/>
  <path d="M12 10.511c-.152 0-.302.008-.45.023a4.466 4.466 0 010 8.885 4.465 4.465 0 10.45-8.908z" fill="#49484D"/>
  <path d="M12 18.326a3.349 3.349 0 100-6.698 3.349 3.349 0 000 6.698z" fill="#B6E3EE"/>
  <path d="M12 11.628c-.153 0-.303.01-.451.03a3.349 3.349 0 010 6.636A3.349 3.349 0 1012 11.627z" fill="#96D2E0"/>
  <g fill="#000">
    <path d="M15.721 21.71H8.28a.337.337 0 00-.337.337v1.116a.337.337 0 10.674 0v-.78h6.768v.78a.337.337 0 00.674 0v-1.116a.337.337 0 00-.337-.337z"/>
    <path d="M17.954 8.686h-.501l-.668-2.002a.337.337 0 00-.32-.23h-1.15V5.302a.34.34 0 00-.002-.033l-.002-.014-.003-.019-.004-.016-.004-.016-.006-.015-.005-.016-.007-.014-.008-.016-.007-.013-.01-.015-.01-.015-.009-.011a.337.337 0 00-.022-.025l-2.879-2.878V.836a.337.337 0 00-.673 0v1.35L8.785 5.064a.345.345 0 00-.022.025l-.009.011-.01.015-.01.014-.008.014-.007.015-.007.015-.005.015-.006.016-.004.016-.004.016-.002.018-.003.015a.338.338 0 00-.001.032V6.454H7.535a.337.337 0 00-.32.23l-.667 2.002h-.501a.337.337 0 00-.337.337v2.906a.337.337 0 00.674 0V9.36h11.233v11.233h-.777-9.677-.779v-7.318a.337.337 0 00-.674 0v7.655c0 .186.15.337.337.337h.78v1.896a.337.337 0 10.673 0v-1.896h9v1.896a.337.337 0 10.675 0v-1.896h.78c.185 0 .336-.15.336-.337V9.023a.337.337 0 00-.337-.337zM12 2.802l2.164 2.163H9.837l2.164-2.163zM9.36 5.639h5.28v.815H9.36v-.815zM7.778 7.127h8.445l.52 1.56h-1.429v-.78a.337.337 0 10-.674 0v.78h-2.303v-.78a.337.337 0 10-.673 0v.78H9.36v-.78a.337.337 0 00-.674 0v.78H7.258l.52-1.56z"/>
    <path d="M12 10.175a4.808 4.808 0 00-4.802 4.802A4.808 4.808 0 0012 19.779a4.808 4.808 0 004.802-4.802A4.808 4.808 0 0012 10.175zm0 8.93a4.133 4.133 0 01-4.128-4.128A4.133 4.133 0 0112 10.848a4.133 4.133 0 014.129 4.129A4.133 4.133 0 0112 19.105zM7.907 10.175h-.744a.337.337 0 100 .673h.744a.337.337 0 000-.673zM16.838 10.175h-.744a.337.337 0 100 .673h.744a.337.337 0 000-.673zM7.163 19.779h.744a.337.337 0 100-.674h-.744a.337.337 0 100 .674zM16.838 19.105h-.744a.337.337 0 100 .674h.744a.337.337 0 100-.674z"/>
    <path d="M12 11.29a3.69 3.69 0 00-3.686 3.687A3.69 3.69 0 0012 18.663a3.69 3.69 0 003.686-3.686A3.69 3.69 0 0012 11.29zm0 6.699a3.015 3.015 0 01-3.012-3.012A3.015 3.015 0 0112 11.965a3.015 3.015 0 013.012 3.012A3.015 3.015 0 0112 17.989z"/>
    <path d="M13.488 14.64h-1.151v-1.896a.337.337 0 00-.674 0v2.233c0 .186.15.337.337.337h1.488a.337.337 0 000-.674z"/>
  </g>
</svg>
