<svg width="24" height="24" fill="none" xmlns="http://www.w3.org/2000/svg">
  <defs/>
  <path d="M22.24 23.163H11.73a.46.46 0 01-.46-.46V1.297a.46.46 0 01.46-.46H22.24a.46.46 0 01.46.46v21.406a.46.46 0 01-.46.46z" fill="#09A755"/>
  <path d="M20.298 23.163H9.786a.46.46 0 01-.46-.46V1.297a.46.46 0 01.46-.46h10.512a.46.46 0 01.46.46v21.406a.46.46 0 01-.46.46z" fill="#08B865"/>
  <path d="M18.411 23.163H7.9a.46.46 0 01-.46-.46V1.297a.46.46 0 01.46-.46H18.41a.46.46 0 01.46.46v21.406a.46.46 0 01-.46.46z" fill="#08B865"/>
  <path d="M18.411.837h-1.348a.46.46 0 01.46.46v21.406a.46.46 0 01-.46.46h1.348a.46.46 0 00.46-.46V1.297a.46.46 0 00-.46-.46z" fill="#09A755"/>
  <path d="M15.695 21.59a1.354 1.354 0 011.469-1.58V4.035l-.09.003a1.354 1.354 0 01-1.326-1.628h-4.821a1.354 1.354 0 01-1.6 1.6v16.015a1.354 1.354 0 011.563 1.567h4.805z" fill="#B0E7C9"/>
  <path d="M17.075 4.037a1.354 1.354 0 01-1.327-1.628h-1.347a1.355 1.355 0 00.842 1.539.76.76 0 01.483.713c-.006 2.535-.028 12.053-.04 14.672a.852.852 0 01-.53.778 1.355 1.355 0 00-.808 1.48h1.348a1.354 1.354 0 011.469-1.58V4.034l-.09.003z" fill="#6ED5A1"/>
  <path d="M13.246 14.412a2.425 2.425 0 100-4.851 2.425 2.425 0 000 4.85z" fill="#08B865"/>
  <path d="M13.245 9.56c-.234 0-.46.035-.674.096a2.426 2.426 0 010 4.66 2.425 2.425 0 10.674-4.755z" fill="#09A755"/>
  <path d="M13.245 6.542a.64.64 0 100-1.281.64.64 0 000 1.28zM13.245 18.74a.64.64 0 100-1.282.64.64 0 000 1.281z" fill="#FFF9F0"/>
  <path d="M7.44 12.45H18.87v3.349H7.44v-3.35z" fill="#FEE45A"/>
  <path d="M17.524 12.45h1.348v3.349h-1.348v-3.35zM18.872 12.45h3.83v3.349h-3.83v-3.35z" fill="#FED402"/>
  <path d="M21.354 12.45H22.7v3.349h-1.348v-3.35z" fill="#E8B800"/>
  <path d="M22.24.5H7.9a.798.798 0 00-.797.797V4.44a.337.337 0 00.673 0V1.297c0-.068.056-.123.124-.123H18.41c.068 0 .123.055.123.123v10.815h-1.033V9.275a.337.337 0 10-.674 0v2.837h-.822l.003-.126a2.765 2.765 0 00-2.763-2.762 2.765 2.765 0 00-2.759 2.888h-.823v-7.74a1.694 1.694 0 001.627-1.626h4.094c.03.82.648 1.493 1.443 1.61v3.572a.337.337 0 10.674 0V4.034a.337.337 0 00-.359-.336 1.019 1.019 0 01-1.064-1.22.337.337 0 00-.33-.406h-4.821a.337.337 0 00-.33.405A1.019 1.019 0 019.393 3.68a.337.337 0 00-.405.33v8.102H7.776V5.787a.337.337 0 00-.673 0v16.916c0 .44.357.797.797.797H22.24c.44 0 .798-.358.798-.797V1.297A.798.798 0 0022.24.5zm.124.797v10.815h-1.269V1.297a.783.783 0 00-.01-.123h1.155c.068 0 .124.055.124.123zm0 14.165h-1.269v-2.676h1.269v2.676zm-2.066 7.364h-1.1a.796.796 0 00.01-.123v-6.567h1.213v6.567a.124.124 0 01-.123.123zm-1.09-7.364v-2.676h1.213v2.676h-1.213zm.925-14.288h.165c.068 0 .123.055.123.123v10.815h-1.213V1.297a.796.796 0 00-.01-.123h.935zm-8.976 10.812a2.09 2.09 0 012.088-2.088 2.09 2.09 0 012.085 2.214h-4.17a2.123 2.123 0 01-.003-.126zm7.377.8v2.676H7.776v-2.676h10.758zm-8.87 3.35h7.163v3.543a1.695 1.695 0 00-1.486 1.575h-4.098a1.694 1.694 0 00-1.58-1.583v-3.535zm8.303 6.69H7.9a.123.123 0 01-.124-.123v-6.567H8.99v3.888a.337.337 0 00.394.332 1.019 1.019 0 011.174 1.177.337.337 0 00.332.395h4.806a.337.337 0 00.332-.395 1.019 1.019 0 011.104-1.187.336.336 0 00.37-.335v-3.875h1.033v6.567a.123.123 0 01-.123.123h-.444zm4.273 0h-1.156a.796.796 0 00.011-.123v-6.567h1.269v6.567a.123.123 0 01-.124.123z" fill="#000"/>
  <path d="M12.268 5.901a.979.979 0 001.955 0 .979.979 0 00-1.955 0zm1.281 0a.304.304 0 11-.608 0 .304.304 0 01.608 0zM13.245 19.076a.979.979 0 000-1.955.979.979 0 000 1.955zm0-1.281a.304.304 0 110 .608.304.304 0 010-.608zM2.473 5.878c.186 0 .337-.15.337-.337v-.473a.337.337 0 00-.674 0v.473c0 .186.15.337.337.337zM3.6 5.906h-.473a.337.337 0 000 .673H3.6a.337.337 0 000-.673zM2.426 6.56a.337.337 0 00-.337.336v.473a.337.337 0 00.674 0v-.473a.337.337 0 00-.337-.337zM1.772 5.858h-.473a.337.337 0 000 .674h.473a.337.337 0 000-.674zM5.173 14.68c.186 0 .337-.152.337-.338v-.203a.337.337 0 10-.674 0v.203c0 .186.15.337.337.337zM6.143 14.761h-.204a.337.337 0 100 .674h.204a.337.337 0 100-.674zM5.184 15.529a.337.337 0 00-.337.337v.203a.337.337 0 10.674 0v-.203a.337.337 0 00-.337-.337zM4.416 14.773h-.203a.337.337 0 100 .673h.203a.337.337 0 000-.673z" fill="#000"/>
</svg>
