<svg width="24" height="24" fill="none" xmlns="http://www.w3.org/2000/svg">
  <defs/>
  <path d="M16.662 23.163h-8.9c-.813 0-1.472-.66-1.472-1.473l.021-5.975h11.844l-.021 5.975c0 .813-.66 1.473-1.472 1.473z" fill="#CAEFDD"/>
  <path d="M17.045 15.715l-.017 4.87c0 .813-.659 1.473-1.472 1.473h-8.9c-.113 0-.223-.014-.329-.038.15.654.735 1.143 1.435 1.143h8.9c.812 0 1.471-.66 1.471-1.473l.021-5.975h-1.109z" fill="#90DDB2"/>
  <path d="M8.039 5.766a.743.743 0 01-.743-.743V3.52A2.686 2.686 0 019.979.838h.59a.743.743 0 110 1.485h-.59c-.66 0-1.198.537-1.198 1.197v1.504c0 .41-.332.742-.742.742z" fill="#4ACB8C"/>
  <path d="M10.73.855a.742.742 0 01-.725.904h-.59c-.66 0-1.197.537-1.197 1.197V4.46a.743.743 0 01-.904.724.743.743 0 001.468-.16V3.52c0-.66.537-1.197 1.197-1.197h.59a.743.743 0 00.16-1.468z" fill="#13B766"/>
  <path d="M11.75 4.479c-.68 0-1.304.232-1.8.622a.09.09 0 01-.112 0 2.902 2.902 0 00-1.799-.622c-.679 0-1.304.232-1.8.622a.09.09 0 01-.111 0 2.915 2.915 0 00-4.714 2.293c0 1.61 1.001 9.727 3.916 9.727.513 0 .905-.252 1.203-.676a.135.135 0 01.214-.008c.35.429.775.684 1.292.684s.942-.255 1.292-.684a.135.135 0 01.215.008c.297.424.689.676 1.203.676 2.914 0 3.915-8.118 3.915-9.727a2.915 2.915 0 00-2.914-2.915z" fill="#FB4753"/>
  <path d="M11.75 4.479c-.44 0-.856.098-1.23.272a2.915 2.915 0 011.686 2.643c0 1.34-.695 7.199-2.612 9.117.29.384.668.61 1.154.61 2.915 0 3.916-8.118 3.916-9.727a2.915 2.915 0 00-2.915-2.915z" fill="#E21F2D"/>
  <path d="M21.734 17.831H9.327c-.83 0-1.169-1.065-.492-1.544l9.129-6.466a.85.85 0 011.25.31l3.279 6.465a.85.85 0 01-.76 1.235z" fill="#FDDE2E"/>
  <path d="M22.492 16.596l-3.278-6.465a.85.85 0 00-1.25-.31l-.745.528 2.37 4.676a.85.85 0 01-.758 1.236H8.87l-.036.026c-.677.479-.337 1.544.492 1.544h12.407a.85.85 0 00.758-1.235z" fill="#F9C301"/>
  <path d="M16.46 14.563a.93.93 0 100-1.86.93.93 0 000 1.86zM19.093 15.435a.93.93 0 100-1.86.93.93 0 000 1.86z" fill="#F9C400"/>
  <path d="M19.094 13.575a.93.93 0 00-.225.029l.721 1.421c.035.07.06.142.075.213a.928.928 0 00-.571-1.663z" fill="#E7B801"/>
  <path d="M11.133 19.582c0-.573-.515-.67-.948-.67H9.4c-.21 0-.346.082-.346.345v1.903c0 .263.137.346.346.346h.868c.512 0 .955-.223.955-.768 0-.356-.18-.55-.454-.623v-.007a.553.553 0 00.364-.526zm-1.488-.238h.468c.22 0 .429.068.429.317 0 .205-.133.317-.41.317h-.487v-.634zm.497 1.708h-.497v-.7h.425c.288 0 .562.04.562.354 0 .3-.26.346-.49.346zM11.88 19.16v2.097c0 .177.116.296.296.296s.296-.12.296-.296V19.16c0-.177-.115-.296-.296-.296-.18 0-.295.12-.295.296zM15.707 20.176c0-.76-.46-1.326-1.311-1.326-.85 0-1.312.566-1.312 1.326 0 .786.382 1.391 1.312 1.391.886 0 1.311-.66 1.311-1.39zm-2.032 0c0-.497.238-.85.72-.85.484 0 .722.353.722.85 0 .498-.184.916-.721.916-.555 0-.721-.418-.721-.916z" fill="#000"/>
  <path d="M22.794 16.443l-3.278-6.465a1.188 1.188 0 00-1.747-.432l-3.393 2.403c.463-2.035.626-3.925.626-4.555a3.256 3.256 0 00-5.108-2.672 3.221 3.221 0 00-.775-.398V3.52a.86.86 0 01.86-.86h.59c.595 0 1.08-.484 1.08-1.08 0-.595-.485-1.08-1.08-1.08h-.59a3.024 3.024 0 00-3.02 3.02v.804c-.273.096-.533.23-.775.398a3.256 3.256 0 00-5.107 2.672c0 .172.01.407.03.678a.337.337 0 10.674-.05 8.954 8.954 0 01-.03-.628A2.58 2.58 0 015.92 5.366a.427.427 0 00.53 0 2.55 2.55 0 011.59-.55c.583 0 1.133.19 1.59.55a.427.427 0 00.53 0 2.58 2.58 0 014.168 2.028c0 .758-.234 3.025-.793 5.151L8.64 16.011c-.268.19-.437.465-.488.766a1.187 1.187 0 01-.113.006c-.386 0-.723-.183-1.03-.56a.466.466 0 00-.383-.173.469.469 0 00-.37.201c-.251.358-.554.533-.926.533-1.017 0-1.759-1.322-2.202-2.43-.668-1.67-1.023-3.716-1.175-4.787a.338.338 0 00-.668.095c.332 2.344 1.393 7.797 4.045 7.797.227 0 .44-.04.637-.119l-.015 4.35c0 .998.812 1.81 1.81 1.81h5.194a.338.338 0 000-.675H7.762a1.136 1.136 0 01-1.134-1.134l.016-4.804c0-.012 0-.024-.002-.037l.011-.012c.401.412.867.62 1.386.62.066 0 .13-.004.196-.01.185.441.603.72 1.092.72h8.482l-.013 3.522c0 .626-.509 1.135-1.134 1.135h-2.17a.338.338 0 000 .675h2.17c.998 0 1.81-.812 1.81-1.809l.012-3.522h3.25a1.18 1.18 0 001.013-.566 1.18 1.18 0 00.047-1.16zM7.634 4.167V3.52a2.348 2.348 0 012.345-2.345h.59a.406.406 0 010 .81h-.59c-.846 0-1.535.689-1.535 1.535v.647a3.316 3.316 0 00-.81 0zM22.17 17.249a.503.503 0 01-.437.245H9.327a.5.5 0 01-.489-.358.5.5 0 01.193-.574l9.128-6.465a.513.513 0 01.755.187l3.278 6.465a.503.503 0 01-.02.5z" fill="#000"/>
  <path d="M17.186 12.96a.337.337 0 00-.18.443.593.593 0 11-.817-.297.338.338 0 10-.31-.6 1.27 1.27 0 00.58 2.395 1.27 1.27 0 001.169-1.761.338.338 0 00-.442-.18zM19.094 13.238a1.27 1.27 0 00-1.268 1.267 1.27 1.27 0 001.268 1.268 1.27 1.27 0 001.268-1.268 1.27 1.27 0 00-1.268-1.268zm0 1.86a.593.593 0 11.001-1.187.593.593 0 01-.001 1.187zM14.407 15.678a.427.427 0 10-.328-.79.427.427 0 00.328.79z" fill="#000"/>
</svg>
