<svg width="24" height="24" fill="none" xmlns="http://www.w3.org/2000/svg">
  <defs/>
  <path d="M12 3.81c-.517 0-.815-.323-.815-.885 0-.612.737-1.45.768-1.486a.063.063 0 01.095 0c.031.035.767.874.767 1.486 0 .562-.297.885-.815.885zM15.824 5.474c-.518 0-.815-.322-.815-.885 0-.612.736-1.45.767-1.486a.063.063 0 01.095 0c.031.035.768.874.768 1.486 0 .563-.298.885-.815.885zM8.176 5.474c-.518 0-.815-.322-.815-.885 0-.612.736-1.45.768-1.486a.063.063 0 01.095 0c.031.035.767.874.767 1.486 0 .563-.297.885-.815.885z" fill="#F2CA20"/>
  <g fill="#D6D6D6">
    <path d="M8.888 9.075H7.465V5.973c0-.275.223-.499.498-.499h.426c.276 0 .499.224.499.499v3.102zM16.536 9.075h-1.423V5.973c0-.275.223-.498.499-.498h.426c.275 0 .498.223.498.498v3.103z"/>
  </g>
  <path d="M12.711 9.075h-1.423V4.31c0-.276.223-.499.498-.499h.427c.275 0 .498.223.498.499v4.766z" fill="#D6D6D6"/>
  <path d="M18.782 9.075H5.218v5.999h13.564v-6z" fill="#FF9C43"/>
  <path d="M18.783 9.075h-2.325v5.999h2.325v-6z" fill="#EF8229"/>
  <path d="M21.165 14.622H2.835v7.223h18.33v-7.223z" fill="#F469CA"/>
  <path d="M21.165 14.622h-2.321v7.223h2.32v-7.223z" fill="#EA57B6"/>
  <path d="M4.558 9.215c0 .344.187.653.478.813.323.178.472.5 1.01.5.745 0 .745-.615 1.489-.615.744 0 .744.616 1.488.616.745 0 .745-.616 1.489-.616.744 0 .744.616 1.489.616.744 0 .744-.616 1.488-.616s.744.616 1.488.616.744-.616 1.489-.616c.744 0 .744.616 1.488.616.538 0 .687-.323 1.01-.5.29-.161.478-.47.478-.814 0-.504-.39-.912-.87-.912H5.428c-.481 0-.871.408-.871.912zM1.974 15.59v.004c0 .39.237.737.595.893.47.206.658.616 1.41.616 1.003 0 1.003-.73 2.005-.73 1.003 0 1.003.73 2.005.73 1.003 0 1.003-.73 2.006-.73 1.002 0 1.002.73 2.005.73 1.002 0 1.002-.73 2.005-.73s1.003.73 2.005.73c1.003 0 1.003-.73 2.006-.73 1.002 0 1.002.73 2.005.73.752 0 .94-.41 1.41-.616a.979.979 0 00.596-.893v-.004a.968.968 0 00-.969-.968H2.942a.968.968 0 00-.968.968z" fill="#AA4B21"/>
  <path d="M22.443 22.582H1.557a.72.72 0 110-1.44h20.886a.72.72 0 110 1.44z" fill="#345863"/>
  <path d="M22.443 20.805h-.941v-3.978c.02-.01.042-.021.064-.03a1.307 1.307 0 00-.508-2.51H5.555v-1.973h12.89v.964a.337.337 0 00.674 0v-2.95l.008-.005c.402-.222.652-.646.652-1.108 0-.688-.542-1.248-1.208-1.248h-1.699V5.973a.831.831 0 00-.18-.518c.183-.21.284-.506.284-.866 0-.71-.71-1.548-.853-1.71a.4.4 0 00-.599 0c-.142.162-.852 1-.852 1.71 0 .36.101.656.284.866a.831.831 0 00-.18.518v1.994h-1.728V4.309a.831.831 0 00-.18-.519c.183-.21.284-.505.284-.865 0-.71-.71-1.548-.853-1.71a.4.4 0 00-.599 0c-.142.162-.852 1-.852 1.71 0 .36.101.656.284.866a.831.831 0 00-.18.518v3.658H9.223V5.973a.831.831 0 00-.18-.518c.183-.21.284-.506.284-.866 0-.71-.71-1.548-.853-1.71a.4.4 0 00-.599 0c-.142.162-.852 1-.852 1.71 0 .36.101.656.284.866a.831.831 0 00-.18.518v1.994h-1.7c-.665 0-1.207.56-1.207 1.248 0 .462.25.886.652 1.108l.008.005v3.957H2.94c-.719 0-1.304.586-1.304 1.306v.003c0 .519.312.99.797 1.202a.99.99 0 01.064.031v2.967a.337.337 0 00.674 0v-.786h17.656v1.797H1.558a1.058 1.058 0 000 2.114h20.885a1.059 1.059 0 000-2.114zM5.555 11.64v-.862c.134.053.294.087.491.087.494 0 .752-.214.96-.385.167-.14.278-.23.529-.23.25 0 .362.09.53.23.207.171.465.385.958.385.494 0 .752-.214.96-.385.167-.14.278-.23.529-.23.25 0 .362.09.53.23.207.171.465.385.958.385.494 0 .752-.214.96-.385.167-.14.278-.23.529-.23.25 0 .361.09.53.23.207.171.465.385.958.385.493 0 .752-.214.96-.385.167-.14.278-.23.528-.23.251 0 .362.09.53.23.207.171.466.385.959.385.198 0 .357-.034.491-.086v.86H5.555zm10.269-8.06c.233.316.478.735.478 1.008 0 .255-.054.548-.478.548s-.478-.293-.478-.548c0-.273.245-.692.478-1.008zm-.375 2.392c0-.09.073-.162.162-.162h.426c.09 0 .162.073.162.162v1.994h-.75V5.973zM12 1.917c.233.316.478.735.478 1.008 0 .255-.054.548-.478.548s-.478-.293-.478-.548c0-.273.245-.692.478-1.008zm-.375 2.392c0-.09.073-.162.162-.162h.426c.09 0 .162.073.162.162v3.658h-.75V4.309zM8.176 3.58c.233.316.478.735.478 1.008 0 .255-.054.548-.478.548s-.478-.293-.478-.548c0-.273.245-.692.478-1.008zm-.375 2.392c0-.09.073-.162.162-.162h.426c.09 0 .162.073.162.162v1.994H7.8V5.973zM5.43 8.64H18.57c.295 0 .534.258.534.575a.591.591 0 01-.304.518c-.127.07-.228.155-.318.228-.167.14-.278.231-.53.231-.25 0-.36-.092-.529-.23-.207-.172-.465-.386-.959-.386-.493 0-.751.214-.958.385-.168.14-.28.231-.53.231s-.361-.092-.53-.23c-.207-.172-.465-.386-.958-.386-.494 0-.752.214-.96.385-.167.14-.278.231-.529.231-.25 0-.361-.092-.53-.23-.207-.172-.465-.386-.958-.386-.494 0-.752.214-.96.385-.167.14-.278.231-.529.231-.25 0-.361-.092-.53-.23-.207-.172-.465-.386-.958-.386-.494 0-.752.214-.96.385-.167.14-.278.231-.529.231-.25 0-.362-.092-.53-.23a2.03 2.03 0 00-.317-.229.591.591 0 01-.305-.518c0-.317.24-.575.535-.575zM2.31 15.594v-.004c0-.348.284-.631.632-.631h18.116a.633.633 0 01.238 1.22 1.975 1.975 0 00-.32.18c-.053.036-.103.072-.15.107-.231.168-.413.3-.805.3-.392 0-.574-.132-.804-.3-.263-.192-.59-.43-1.201-.43-.611 0-.939.239-1.201.43-.231.168-.413.3-.805.3-.391 0-.573-.132-.804-.3-.263-.191-.59-.43-1.201-.43-.611 0-.938.239-1.2.43-.231.168-.414.3-.805.3-.392 0-.574-.132-.804-.3-.263-.191-.59-.43-1.201-.43-.611 0-.938.239-1.201.43-.23.168-.413.3-.805.3-.391 0-.573-.132-.804-.3-.263-.191-.59-.43-1.2-.43-.612 0-.939.239-1.202.43-.23.168-.412.3-.804.3-.392 0-.574-.132-.804-.3a5.502 5.502 0 00-.15-.106l-.002-.002a1.975 1.975 0 00-.319-.18.644.644 0 01-.394-.584zm.862 2.74v-1.072c.204.102.46.178.807.178.61 0 .938-.238 1.2-.43.231-.167.413-.3.805-.3.392 0 .574.133.804.3.263.192.59.43 1.201.43.611 0 .938-.238 1.201-.43.23-.167.413-.3.804-.3.392 0 .574.133.805.3.263.192.59.43 1.2.43.611 0 .939-.238 1.201-.43.231-.167.413-.3.805-.3.391 0 .573.133.804.3.263.192.59.43 1.201.43.611 0 .938-.238 1.201-.43.23-.167.413-.3.804-.3.392 0 .574.133.805.3.262.192.59.43 1.2.43.348 0 .603-.076.808-.178v1.072H3.172zm19.27 3.912H1.558a.384.384 0 010-.767h20.886a.384.384 0 010 .767z" fill="#000"/>
</svg>
