<svg width="24" height="24" fill="none" xmlns="http://www.w3.org/2000/svg">
  <defs/>
  <path d="M20.324 17.582H3.676v1.959h16.648v-1.96z" fill="#F2EBD9"/>
  <path d="M3.676 10.14v3.402c0 .203.164.367.367.367h15.913a.368.368 0 00.368-.367V10.14H3.676zM17.18 12.88a.367.367 0 110-.734.367.367 0 010 .734zm1.47-.979a.367.367 0 110-.734.367.367 0 010 .734z" fill="#6DA8D6"/>
  <path d="M21.67 4.46H2.33a1.101 1.101 0 000 2.203c.202 0 .367.164.367.367v2.375h18.606V7.397H8.205a.367.367 0 010-.734H21.67c.604 0 1.095-.493 1.095-1.099 0-.609-.49-1.105-1.095-1.105zM6.736 7.396H3.798a.367.367 0 010-.734h2.938a.367.367 0 010 .734z" fill="#FFCC75"/>
  <path d="M21.67 3.725H2.33a1.837 1.837 0 00-.368 3.635v2.412c0 .203.165.367.368.367h.612v3.403c0 .608.494 1.102 1.101 1.102h15.914c.607 0 1.101-.494 1.101-1.102V10.14h.612a.367.367 0 00.368-.367V7.36a1.837 1.837 0 00-.367-3.635zm0 2.938H8.205a.367.367 0 000 .734h13.098v2.008H2.697V7.03a.367.367 0 00-.367-.367 1.101 1.101 0 010-2.203h19.34a1.101 1.101 0 010 2.203zm-1.713 7.246H4.043a.368.368 0 01-.367-.367V10.14h16.648v3.403a.368.368 0 01-.367.367z" fill="#082947"/>
  <path d="M6.737 6.663H3.799a.367.367 0 000 .734h2.938a.367.367 0 000-.734zM20.691 16.847H3.309a.367.367 0 00-.368.368v2.693c0 .202.165.367.368.367H20.69a.367.367 0 00.367-.367v-2.693a.367.367 0 00-.367-.368zm-.367 2.693H3.676v-1.958h16.648v1.958zM17.18 12.881a.367.367 0 100-.734.367.367 0 000 .734zM18.65 11.902a.367.367 0 100-.734.367.367 0 000 .734z" fill="#082947"/>
</svg>
