<svg width="24" height="24" fill="none" xmlns="http://www.w3.org/2000/svg">
  <defs/>
  <path d="M15.716 18.382H8.272v1.72h7.444v-1.72z" fill="#314A5F"/>
  <g fill="#415E72">
    <path d="M16.538 20.1H7.45c-.918 0-1.662.745-1.662 1.663h12.414c0-.918-.745-1.662-1.663-1.662zM21.819 2.236H2.169c-.708 0-1.282.575-1.282 1.283V17.1c0 .709.574 1.283 1.283 1.283h19.649c.708 0 1.283-.574 1.283-1.283V3.52c0-.708-.575-1.283-1.284-1.283z"/>
  </g>
  <path d="M21.384 3.954H2.604v12.71h18.78V3.955z" fill="#CFDCE5"/>
  <path d="M11.995 5.854L8.206 10.31h1.823v4.455h3.93V10.31h1.824l-3.788-4.455z" fill="#FF6F52"/>
  <path d="M23.107 5.768a.393.393 0 00.393-.393V3.52c0-.924-.752-1.676-1.676-1.676H2.176C1.252 1.844.5 2.596.5 3.52V17.1c0 .923.752 1.675 1.676 1.675h5.71v.934h-.43A2.057 2.057 0 005.4 21.763c0 .217.175.393.392.393h12.414a.393.393 0 00.392-.393 2.057 2.057 0 00-2.054-2.054h-.43v-.934h5.71c.923 0 1.675-.752 1.675-1.676V6.684a.392.392 0 10-.785 0v10.415c0 .491-.4.89-.89.89H2.174c-.49 0-.89-.399-.89-.89V3.52c0-.49.4-.89.89-.89h19.65c.49 0 .89.4.89.89v1.856c0 .217.176.393.392.393zM17.752 21.37H6.248a1.272 1.272 0 011.207-.877h9.09c.563 0 1.041.368 1.207.877zm-2.423-2.596v.934H8.671v-.934h6.658z" fill="#000"/>
  <path d="M5.098 16.665c0 .216.176.392.393.392H21.39a.393.393 0 00.392-.392V3.955a.393.393 0 00-.392-.393H2.61a.393.393 0 00-.392.392v12.71c0 .217.176.393.392.393h1.572a.393.393 0 000-.785h-1.18V4.347h17.995v11.925H5.491a.393.393 0 00-.393.393z" fill="#000"/>
  <path d="M12.822 7.426a.392.392 0 10.598-.508L12.3 5.6a.393.393 0 00-.599 0l-3.788 4.455a.393.393 0 00.299.647h1.43v4.062c0 .217.176.393.393.393h3.93a.392.392 0 00.393-.393v-4.062h1.43a.393.393 0 00.3-.647l-1.914-2.25a.393.393 0 10-.598.508l1.364 1.604h-.974a.392.392 0 00-.393.393v4.062h-3.145v-4.063a.393.393 0 00-.393-.392h-.974l2.94-3.456.82.965z" fill="#000"/>
</svg>
