<svg width="24" height="24" fill="none" xmlns="http://www.w3.org/2000/svg">
  <defs/>
  <path d="M9.8 15.838l-2.908-2.907-2.427 2.428.047 2.86 1.356 1.55L9.8 15.84z" fill="#4EB9FF"/>
  <path d="M4.464 15.359L1.513 18.31l1.403 4.41 2.951-2.95-1.403-4.411z" fill="#9AD7FF"/>
  <path d="M21.15 5.554a2.81 2.81 0 00-3.974-3.974l-.442.442 1.251 2.722 2.723 1.251.442-.441z" fill="#174461"/>
  <path d="M16.735 2.022L5.623 13.134l.957 3.017 3.017.957L20.709 5.995l-3.974-3.973z" fill="#FF755C"/>
  <path d="M17.404 6.578a.885.885 0 10-1.251-1.251L14.24 7.24l-.32 1.153-1.152.319-4.121 4.12a.885.885 0 001.25 1.252l4.122-4.121.319-1.153 1.153-.319 1.913-1.913z" fill="#9AD7FF"/>
  <path d="M14.018 9.963l1.472-1.472-1.25-1.25-1.473 1.471 1.252 1.251z" fill="#174461"/>
  <g fill="#01121C">
    <path d="M18.496 22.46h-1.469a.52.52 0 100 1.04h1.469a.52.52 0 000-1.04zM14.764 22.46h-1.47a.52.52 0 100 1.04h1.47a.52.52 0 000-1.04zM6.504 20.39l2.708-2.708.482.153a.52.52 0 00.526-.128L21.778 6.15c.625-.625.97-1.456.97-2.34 0-.884-.345-1.715-.97-2.34A3.287 3.287 0 0019.438.5c-.883 0-1.714.344-2.34.97l-.453.453-.003.003a.182.182 0 00-.003.003L5.54 13.028a.52.52 0 00-.128.526l.154.482-1.202 1.201a.529.529 0 00-.015.016l-2.944 2.943a.52.52 0 00-.128.526l1.405 4.415a.52.52 0 00.864.21l2.943-2.942a.707.707 0 00.015-.015zm11.33-18.185a2.253 2.253 0 011.605-.664c.605 0 1.175.236 1.603.664.429.429.665.998.665 1.604 0 .606-.236 1.175-.665 1.604l-.089.089-3.207-3.208.089-.089zm-.824.825l3.207 3.208-10.51 10.51-2.433-.775-.586-1.842a.519.519 0 00-.074-.233L6.5 13.54 17.01 3.03zM6.032 18.007a.52.52 0 10-.992.315l.497 1.563-2.122 2.122-1.05-3.3 2.122-2.121.083.262a.52.52 0 10.992-.316l-.246-.775.605-.605.443 1.393a.52.52 0 00.338.338l1.393.444-1.73 1.73-.333-1.05zM22.227 22.46H20.76a.52.52 0 100 1.04h1.468a.52.52 0 000-1.04zM7.3 22.46H5.833a.52.52 0 100 1.04H7.3a.52.52 0 000-1.04zM11.032 22.46H9.563a.52.52 0 100 1.04h1.47a.52.52 0 000-1.04z"/>
    <path d="M9.5 15.158a1.4 1.4 0 00.996-.413l7.572-7.572a1.4 1.4 0 00.413-.996 1.4 1.4 0 00-.413-.997 1.4 1.4 0 00-.997-.413 1.4 1.4 0 00-.997.413l-1.927 1.927-.004.004a.373.373 0 00-.004.004L12.65 8.603a.256.256 0 01-.004.004l-.004.003-4.14 4.14a1.4 1.4 0 00-.413.998c0 .376.146.73.413.996a1.4 1.4 0 00.997.414zm7.31-9.242a.367.367 0 01.522 0 .367.367 0 010 .522L15.769 8l-.522-.522 1.563-1.563zm-2.3 2.299l.523.522-.76.76-.522-.522.76-.76zM9.24 13.487l3.776-3.777.522.522L9.76 14.01a.367.367 0 01-.522 0 .367.367 0 010-.522z"/>
  </g>
</svg>
