<svg width="24" height="24" fill="none" xmlns="http://www.w3.org/2000/svg">
  <defs/>
  <path d="M1.03 15.829L12.981 3.868c1.135 1 2.144 2.14 2.999 3.396l1.028 1.706a18.007 18.007 0 012.1 8.354L2.014 19.021 1.03 15.83z" fill="#C2E7FF"/>
  <path d="M21.162 18.208H18.51v1.04h2.65a.52.52 0 100-1.04z" fill="#3B8BC0"/>
  <path d="M20.072 20.132H4.192L2.65 17.324h17.422v2.808z" fill="#174461"/>
  <path d="M17.83 6.196l-16.8 9.633 1.576 2.151 1.587-.655c1.93-.465 4.038-1.297 6.1-2.487 2.934-1.695 5.273-3.804 6.71-5.868l1.822-1.05-.996-1.724z" fill="#4EB9FF"/>
  <path d="M22.847 4.448a.995.995 0 00-1.36-.364L17.83 6.196l.995 1.724 3.658-2.112a.995.995 0 00.364-1.36z" fill="#174461"/>
  <g fill="#3B8BC0">
    <path d="M19.452 9.524a.52.52 0 01-.452-.26l-1.62-2.808a.52.52 0 11.9-.52l1.622 2.807a.52.52 0 01-.45.78zM4.193 20.132H1.021l.01-4.303 3.162 1.495v2.808z"/>
  </g>
  <path d="M23.297 4.188a1.505 1.505 0 00-.92-.706c-.391-.104-.8-.05-1.15.152L18.02 5.485l-.012-.02a.52.52 0 10-.901.52l.012.02-.987.57a18.635 18.635 0 00-2.807-3.098.52.52 0 00-.712.023L.653 15.461l-.007.007-.014.016a.51.51 0 00-.063.087l-.006.01a.523.523 0 00-.026.056l-.001.002a.521.521 0 00-.017.054l-.004.015a.539.539 0 00-.009.044l-.002.017a.53.53 0 00-.004.06v4.303c0 .287.233.52.52.52h19.052a.52.52 0 00.52-.52v-.883h.57a.52.52 0 000-1.041h-.57v-.883a.52.52 0 00-.52-.52h-.455a18.664 18.664 0 00-1.92-7.634l.937-.54.366.633a.52.52 0 10.901-.52l-.365-.634 3.206-1.851a1.517 1.517 0 00.555-2.07zM18.114 7.73l-1.37.79a.52.52 0 00-.167.153c-1.454 2.089-3.779 4.118-6.544 5.715-1.889 1.09-3.879 1.913-5.768 2.388l-2.052-.962 14.015-8.091 1.411-.815.475.822zm-5.115-3.143c.82.764 1.566 1.606 2.227 2.512L4.014 13.572l8.985-8.986zM1.541 16.648l2.15 1.007v1.957h-2.15v-2.964zm18.01 2.964H4.733v-1.767h14.82v1.767zM7.473 16.804a25.66 25.66 0 003.081-1.516c2.593-1.497 4.823-3.369 6.367-5.332a17.627 17.627 0 011.656 6.848H7.472zm14.75-11.447L19.015 7.21l-.314-.545-.16-.278 3.206-1.851a.475.475 0 01.475.822z" fill="#01121C"/>
</svg>
