<svg width="24" height="24" fill="none" xmlns="http://www.w3.org/2000/svg">
  <defs/>
  <path d="M21.315 6.953H8.618V22.98h12.697V6.953z" fill="#FF4181"/>
  <path d="M19.337 4.975H6.641v16.027h12.696V4.975z" fill="#FF755C"/>
  <path d="M17.36 2.998H4.663v16.027H17.36V2.998z" fill="#FF9356"/>
  <path d="M15.382 17.047H2.686V1.02h8.846l3.85 3.851v12.176z" fill="#FFCE47"/>
  <path d="M11.532 1.02v3.851h3.85l-3.85-3.85z" fill="#FFEBB4"/>
  <g fill="#01121C">
    <path d="M21.32 6.428h-.52a.52.52 0 000 1.041v14.99H9.13a.52.52 0 00-1.041 0v.52c0 .288.233.521.52.521H21.32a.52.52 0 00.52-.52V6.949a.52.52 0 00-.52-.52z"/>
    <path d="M19.864 21.003V4.973a.52.52 0 00-.52-.52h-.52a.52.52 0 000 1.04v14.99H7.152a.52.52 0 00-1.04 0v.52c0 .288.232.52.52.52h12.71a.52.52 0 00.521-.52z"/>
    <path d="M17.889 19.027V2.997a.52.52 0 00-.52-.52h-1.725a.52.52 0 000 1.04h1.204v14.99H5.178a.52.52 0 00-1.041 0v.52c0 .288.233.52.52.52h12.711a.52.52 0 00.52-.52z"/>
    <path d="M15.912 17.051V4.825a.527.527 0 00-.008-.09l-.002-.013a.498.498 0 00-.011-.044l-.002-.005a.525.525 0 00-.015-.043l-.002-.005a.541.541 0 00-.018-.038l-.004-.008a.516.516 0 00-.02-.033l-.006-.01-.02-.029-.01-.013a.486.486 0 00-.025-.027l-.01-.01L11.956.652l-.01-.009-.027-.025-.013-.01-.028-.02-.011-.007a.501.501 0 00-.033-.02l-.008-.003a.513.513 0 00-.038-.018l-.005-.002a.534.534 0 00-.043-.015L11.734.52a.51.51 0 00-.044-.01l-.013-.003-.038-.005A.525.525 0 0011.587.5H2.681a.52.52 0 00-.52.52v16.031c0 .288.232.52.52.52h12.71a.52.52 0 00.521-.52zM12.108 2.277l2.027 2.027h-2.027V2.277zM3.2 16.53V1.54h7.866v3.284c0 .287.233.52.52.52h3.284v11.186H3.201z"/>
  </g>
</svg>
