<svg width="24" height="24" fill="none" xmlns="http://www.w3.org/2000/svg">
  <defs/>
  <path d="M15.469 11.337V6.358a3.475 3.475 0 00-3.471-3.47 3.475 3.475 0 00-3.472 3.47v4.98H6.538v-4.98c0-3.01 2.45-5.46 5.46-5.46s5.459 2.45 5.459 5.46v4.98h-1.988z" fill="#CFDCE5"/>
  <path d="M19.097 11.337H4.89v11.764h14.207V11.337z" fill="#FF6F52"/>
  <path d="M9.255 14.82H6.968v5.212h2.287V14.82z" fill="#CFDCE5"/>
  <path d="M9.255 18.356H6.968v1.675h2.287v-1.675z" fill="#BAC6CC"/>
  <path d="M13.137 14.82h-2.286v5.212h2.286V14.82z" fill="#CFDCE5"/>
  <path d="M13.137 18.356h-2.286v1.675h2.286v-1.675z" fill="#BAC6CC"/>
  <path d="M17.02 14.82h-2.288v5.212h2.287V14.82z" fill="#CFDCE5"/>
  <path d="M17.02 18.356h-2.288v1.675h2.287v-1.675z" fill="#BAC6CC"/>
  <path d="M19.104 10.938h-1.242v-4.58c0-1.714-.75-3.339-2.06-4.456a.399.399 0 00-.518.607 5.057 5.057 0 011.78 3.85v4.58h-1.19v-4.58a3.874 3.874 0 00-3.87-3.87 3.875 3.875 0 00-3.87 3.87v4.58H6.942v-4.58c0-2.791 2.27-5.061 5.06-5.061a5 5 0 012.2.503.399.399 0 00.348-.718A5.792 5.792 0 0012.004.5a5.865 5.865 0 00-5.859 5.859v4.58h-1.25a.399.399 0 00-.398.398v7.511a.399.399 0 10.798 0v-7.112h13.41v10.966H5.295V20.23a.399.399 0 10-.798 0v2.872c0 .22.179.399.399.399h14.208c.22 0 .399-.179.399-.399V11.337a.399.399 0 00-.4-.399zM8.93 6.358a3.076 3.076 0 013.073-3.072 3.076 3.076 0 013.072 3.073v4.58H8.93v-4.58z" fill="#000"/>
  <path d="M9.26 20.43c.221 0 .4-.178.4-.398V14.82a.399.399 0 00-.4-.399H6.975a.399.399 0 00-.399.399v5.212c0 .22.179.398.4.398H9.26zm-1.887-.797v-.878h.824a.399.399 0 100-.797h-.824v-1.064h1.489v2.739h-1.49zm1.489-4.414v.877h-1.49v-.877h1.49zM13.143 20.43c.22 0 .398-.178.398-.398V14.82a.399.399 0 00-.398-.399h-2.287a.399.399 0 00-.399.399v5.212c0 .22.179.398.399.398h2.287zm-1.888-.797v-.878h1.489v.878h-1.49zm0-2.739h1.489v1.064h-1.49v-1.064zm1.489-1.675v.877h-1.49v-.877h1.49zM17.026 20.43c.22 0 .398-.178.398-.398V14.82a.399.399 0 00-.398-.399h-2.287a.399.399 0 00-.4.399v5.212c0 .22.18.398.4.398h2.287zm-1.889-.797v-.878h1.49v.878h-1.49zm1.49-4.414v2.739h-1.49v-1.064h.825a.399.399 0 100-.798h-.824v-.877h1.489z" fill="#000"/>
</svg>
