<svg width="24" height="24" fill="none" xmlns="http://www.w3.org/2000/svg">
  <defs/>
  <path d="M11.527 9.903c0 .095.002.19.004.284.129 5.111 7.83 5.111 7.959 0a11.007 11.007 0 00-3.98-8.769 11.007 11.007 0 00-3.983 8.485z" fill="#DA4A54"/>
  <path d="M15.51 14.02c-1.957 0-3.915-1.278-3.98-3.833a11.007 11.007 0 013.98-8.768c-1.088 2.023-1.78 5.072-1.78 8.484l.001.284c.03 2.554.904 3.832 1.78 3.833z" fill="#D82E3D"/>
  <path d="M22.616 16.265l-5.864 4.703c-.482.387-1.1.563-1.713.488l-7.903-.962-2.106.78c-1.13-1.164-.666-4.907-.666-4.907l.502-.137a1.901 1.901 0 011.062-1.832l3.39-1.655 1.742-.851a1.656 1.656 0 011.578 2.909L9.82 16.489l4.74.826c.571.099 1.158-.021 1.644-.337l4.715-3.06a1.45 1.45 0 011.697 2.347z" fill="#F1D0A5"/>
  <path d="M15.025 20.193c-3.246.421-5.484-1.482-6.838-3.273a1.909 1.909 0 01.492-2.76c3.27-2.095 4.115-2.018 4.563-1.57a1.656 1.656 0 00-2.182-.698l-1.743.851-2.747 1.341v.001l-.642.313a1.9 1.9 0 00-1.062 1.832l-.502.137s-.465 3.743.666 4.906l2.106-.779 7.903.962a2.295 2.295 0 001.713-.488l5.864-4.703c-2.027-.55-5.404 3.593-7.59 3.928z" fill="#F1B986"/>
  <path d="M3.663 15.896a6.832 6.832 0 00-2.822.997 55.328 55.328 0 002.01 5.689 6.832 6.832 0 002.822-.997 55.341 55.341 0 00-2.01-5.689z" fill="#80A6C6"/>
  <path d="M5.673 21.585a6.822 6.822 0 01-2.822.997 55.865 55.865 0 01-.582-1.46 7.261 7.261 0 002.944-1.03c.16.495.314.993.46 1.493z" fill="#5B8EB8"/>
  <path d="M17.773 8.156h-1.38v-1.38h-1.764v1.38h-1.38v1.763h1.38v1.38h1.764V9.92h1.38V8.156z" fill="#EEEBEE"/>
  <path d="M23.436 14.659a1.793 1.793 0 00-.312-.622 1.801 1.801 0 00-2.39-.405l-2.43 1.577a.34.34 0 10.371.572l2.43-1.577a1.116 1.116 0 011.674.636 1.11 1.11 0 01-.377 1.16l-5.863 4.702c-.408.328-.94.479-1.46.415l-7.902-.961a.34.34 0 00-.16.018l-1.272.471a56.048 56.048 0 00-1.38-3.923l.592-.164a.34.34 0 00.249-.35 1.559 1.559 0 01.872-1.503l5.131-2.507a1.315 1.315 0 011.253 2.31l-2.817 1.689a.34.34 0 00.117.628l4.74.826a2.631 2.631 0 001.888-.386l1.142-.742a.341.341 0 00-.372-.572l-1.141.741c-.415.27-.912.371-1.4.287l-3.837-.669 2.03-1.217a1.99 1.99 0 00.875-1.096 4.68 4.68 0 001.824.366c.796 0 1.593-.198 2.285-.594 1.273-.728 1.995-1.997 2.035-3.574a11.345 11.345 0 00-4.102-9.04.34.34 0 00-.436 0c-1.096.911-2 2.004-2.69 3.249a.34.34 0 10.597.33 10.675 10.675 0 012.31-2.868 10.662 10.662 0 013.64 8.312c-.034 1.33-.635 2.395-1.693 3-1.089.622-2.54.661-3.675.114a1.996 1.996 0 00-.24-.864 1.99 1.99 0 00-1.455-1.024 4.01 4.01 0 01-.215-1.227 10.632 10.632 0 01.76-4.25.34.34 0 10-.632-.254 11.31 11.31 0 00-.81 4.523c.011.433.075.845.188 1.23a1.994 1.994 0 00-.468.16l-5.13 2.506a2.24 2.24 0 00-1.255 1.879l-.416.114a58.116 58.116 0 00-.131-.32.34.34 0 00-.357-.207 7.2 7.2 0 00-2.96 1.046.34.34 0 00-.147.385 55.922 55.922 0 002.022 5.724.341.341 0 00.356.207 7.2 7.2 0 002.961-1.046.34.34 0 00.147-.385l-.056-.19 1.233-.456 7.82.951a2.65 2.65 0 001.969-.56l5.852-4.695a1.792 1.792 0 00.618-1.88zm-20.37 7.548a55.283 55.283 0 01-1.823-5.157 6.508 6.508 0 012.206-.78 55.297 55.297 0 011.822 5.158 6.506 6.506 0 01-2.206.78z" fill="#000"/>
  <path d="M11.397 14.711c.139 0 .279-.033.41-.103l.422-.225a.34.34 0 00-.32-.602l-.423.225a.184.184 0 01-.238-.057 2.685 2.685 0 01-.373-.861.34.34 0 00-.67.129c.005.023.112.568.477 1.112a.859.859 0 00.715.382zM3.816 21.3a.344.344 0 00.332-.265c.07-.3-.282-.528-.53-.352a.344.344 0 00-.12.4c.05.13.178.218.318.218zM16.393 6.435h-1.764a.34.34 0 00-.34.34v1.04h-1.04a.34.34 0 00-.34.34V9.92c0 .189.152.341.34.341h1.04v1.04c0 .188.152.34.34.34h1.764a.34.34 0 00.34-.34v-1.04h1.04a.34.34 0 00.34-.34V8.155a.34.34 0 00-.34-.341h-1.04v-1.04a.34.34 0 00-.34-.34zm1.04 2.062v1.082h-1.04a.34.34 0 00-.341.34v1.04H14.97v-1.04a.34.34 0 00-.34-.34h-1.04V8.497h1.04a.34.34 0 00.34-.341v-1.04h1.082v1.04c0 .188.152.34.34.34h1.04z" fill="#000"/>
</svg>
