<svg width="24" height="24" fill="none" xmlns="http://www.w3.org/2000/svg">
  <defs/>
  <path d="M12.988.95c.712 0 1.269.614 1.199 1.322l-.903 9.147c-.123 1.247-1.172 1.614-2.426 1.614H5.37c-1.253 0-2.302-.367-2.425-1.614L2.04 2.272A1.205 1.205 0 013.241.95h9.747z" fill="#EEEDEE"/>
  <path d="M12.987.95h-2.84c.712 0 1.269.614 1.199 1.322l-.903 9.147c-.123 1.247-1.172 1.614-2.425 1.614h2.84c1.253 0 2.302-.367 2.425-1.614l.903-9.147a1.205 1.205 0 00-1.2-1.323z" fill="#CCCBCC"/>
  <path d="M10.857 13.033c1.254 0 2.303-.367 2.426-1.614l.793-8.034H2.18l-.027.034.79 8c.123 1.247 1.172 1.614 2.426 1.614h5.489z" fill="#EF2D57"/>
  <path d="M11.236 3.385l-.793 8.034c-.123 1.247-1.172 1.614-2.425 1.614h2.84c1.253 0 2.302-.367 2.425-1.614l.793-8.034h-2.84z" fill="#BF2445"/>
  <path d="M9.983 14.894h-3.74a.97.97 0 01-.97-.97v-.89h5.68v.89a.97.97 0 01-.97.97z" fill="#EF2D57"/>
  <path d="M8.955 13.033v.89a.97.97 0 01-.97.971h1.998a.97.97 0 00.97-.97v-.89H8.956z" fill="#BF2445"/>
  <path d="M19.18 9.26v1.962c0 .33.268.598.599.598h1.587c.33 0 .599-.268.599-.598V6.505a.599.599 0 00-.6-.6H19.78a.599.599 0 00-.6.6V9.26z" fill="#BDBDBD"/>
  <path d="M21.366 5.906h-1.392c.33 0 .599.268.599.598v4.717c0 .331-.269.6-.6.6h1.393c.331 0 .6-.269.6-.6V6.504a.599.599 0 00-.6-.598z" fill="#949494"/>
  <path d="M21.461 5.507h-.465V4.089a.337.337 0 00-.673 0v1.418h-.465a.943.943 0 00-.942.942v1.33a.337.337 0 00.674 0V6.45c0-.148.12-.268.268-.268h1.603c.148 0 .268.12.268.268v4.764c0 .148-.12.269-.268.269h-1.603a.268.268 0 01-.268-.268V9.232a.337.337 0 00-.674 0v1.982c0 .519.422.941.942.941h.389v6.807a3.868 3.868 0 01-3.864 3.864h-4.108a3.868 3.868 0 01-3.864-3.864v-3.701h1.561c.721 0 1.308-.587 1.308-1.308v-.588c1.786-.134 2.27-1.1 2.352-1.919l.172-1.747v-.001l.157-1.591.157-1.592.314-3.184.112-1.124A1.558 1.558 0 0012.997.5H3.151a1.557 1.557 0 00-1.547 1.707l.912 9.24c.08.819.565 1.784 2.352 1.918v.588c0 .721.586 1.308 1.307 1.308h1.562v3.701a4.543 4.543 0 004.538 4.538h4.108a4.543 4.543 0 004.538-4.538v-6.806h.54c.52 0 .942-.423.942-.943V6.45a.943.943 0 00-.942-.942zM3.186 11.38l-.764-7.746h2.302a.337.337 0 100-.674H2.356l-.081-.82a.87.87 0 01.223-.677.87.87 0 01.653-.29h9.846a.87.87 0 01.652.29.871.871 0 01.224.678l-.08.819H6.63a.337.337 0 100 .674h7.096l-.09.918h-1.183a.337.337 0 000 .674h1.116l-.091.918h-2.355a.337.337 0 100 .673h2.288l-.09.918h-.83a.337.337 0 100 .674h.763l-.09.918h-2.041a.337.337 0 100 .674h1.974l-.136 1.379c-.056.57-.336 1.327-2.115 1.327H5.301c-1.778 0-2.058-.757-2.115-1.327zm2.356 2.573v-.572h5.064v.572c0 .35-.284.634-.634.634H6.175a.634.634 0 01-.633-.634z" fill="#000"/>
</svg>
