<svg width="24" height="24" fill="none" xmlns="http://www.w3.org/2000/svg">
  <defs/>
  <g fill-rule="evenodd" clip-rule="evenodd">
    <path d="M22.795 16l-10.472-.76-9.465.76-.956 3.105 9.55.954 10.275-1.564L22.795 16z" fill="#ECECEC"/>
    <path d="M7.06 18.901c-1.69-.15-3.267-.429-4.732.021a2.63 2.63 0 00-1.35 1.024c-.174.278-.197.5 0 .518a.157.157 0 00.026.001h4.925c-.17 0 1.58-.617 1.58-.617l-.45-.947z" fill="#03BED7"/>
    <path d="M12.63 7.868l-1.255-.69-1.054.69V9.45l1.116.493 1.193-.493V7.868z" fill="#9B9B9B"/>
    <path d="M12.574 6.487H9.745c-.38 0-.69.31-.69.69 0 .38.31.69.69.69H13.206c.38 0 .69-.31.69-.69 0-.38-.31-.69-.69-.69h-.632z" fill="#ECECEC"/>
    <path d="M14.625 18.165c-2.872 1.216-5.036-.532-7.3.586-.09.044-.178.094-.265.15-.508.324-.958.813-1.154 1.158-.133.237-.147.406.023.406h16.59c.567 0 .3-1.082-.793-1.97-1.265-1.03-3.636-1.798-7.101-.33z" fill="#A6E7F0"/>
    <path d="M12.487 9.45H8.589c-.645 0-.851.484-1.037.821-.322.585-.01.585.213.585h1.37c1.244 0 1.903 1.952.813 1.952h-3.58c-.528 0-.99.131-1.3.79l-.427.886 7.707.758 7.178-.758-1.265-1.608-2.232-2.838c-.23-.293-.35-.588-.756-.588H12.487z" fill="#ECECEC"/>
    <path d="M16.579 10.737h-2.514c-.324 0-.59.292-.59.648v.282c0 .358.266.65.59.65h3.758l-1.244-1.58z" fill="#A6E7F0"/>
    <path d="M19.527 14.485H4.258c-.92 0-1.132.642-1.213.906l-.188.61h19.938l.298-.697c.184-.43-.023-.82-.458-.82h-3.109z" fill="#FE636E"/>
    <path d="M21.727 18.495c-1.068-.869-2.922-1.551-5.559-.86.984.316 1.699.856 2.144 1.38.63.74.716 1.45.258 1.45H22.52c.567 0 .3-1.082-.793-1.97z" fill="#6BD9E7"/>
    <path d="M22.296 14.485h-1.88.001c.433.002.637.39.453.819l-.23.54-.067.156h2.221l.299-.696c.183-.43-.023-.82-.458-.82h-.339z" fill="#FB2A39"/>
    <path d="M22.795 16h-2.222l-.672 1.568c.756.21 1.364.552 1.826.927L22.795 16zM17.822 12.317h-1.861l1.704 2.168h1.861l-1.265-1.609-.439-.559z" fill="#CECECE"/>
    <path d="M16.578 10.737h-1.86l1.243 1.58h1.861l-1.107-1.407-.137-.173z" fill="#6BD9E7"/>
    <path d="M15.273 9.45h-1.857.001c.404.002.524.297.752.588l.55.699h1.86l-.55-.7c-.23-.292-.35-.587-.756-.587zM12.575 6.487h-.815a.689.689 0 110 1.38h1.446c.38 0 .69-.31.69-.69 0-.38-.31-.69-.69-.69h-.631z" fill="#CECECE"/>
    <path d="M12.63 7.868h-1.154V9.45H12.63V7.868z" fill="#838383"/>
  </g>
  <path d="M23.146 16.042l.26-.605c.14-.33.123-.667-.047-.924a.845.845 0 00-.724-.368v-.401c0-.722-.526-1.207-1.308-1.207h-2.9l-2.13-2.71c-.038-.047-.075-.098-.11-.147-.182-.254-.408-.57-.914-.57H12.97v-.903h.236c.568 0 1.03-.462 1.03-1.03 0-.567-.462-1.03-1.03-1.03h-.292v-.885a.34.34 0 10-.679 0v.886h-.98V3.535a.34.34 0 10-.679 0v2.613h-.83c-.568 0-1.03.462-1.03 1.03 0 .567.462 1.03 1.03 1.03h.236v.903H8.589c-.798 0-1.108.576-1.293.92l-.041.077c-.124.224-.27.554-.11.824.156.263.458.263.62.263h1.37c.586 0 1.026.64 1.026 1.054 0 .077-.017.14-.045.171-.036.04-.111.048-.168.048h-.984a.34.34 0 000 .68h.984c.354 0 .561-.15.673-.275a.915.915 0 00.219-.624c0-.801-.745-1.733-1.704-1.733H7.807l.042-.08.045-.084c.188-.348.322-.562.695-.562H15.273c.143 0 .193.05.362.285.04.055.08.113.128.172l.118.15h-1.816c-.512 0-.93.444-.93.988v.282c0 .546.418.99.93.99h3.592l.337.427.008.01.826 1.051H5.182l.194-.402c.234-.498.54-.596.992-.596H7.49a.34.34 0 100-.679H6.368c-.532 0-1.196.112-1.605.983l-.335.694h-.17c-.788.001-1.305.387-1.538 1.146L1.616 18.88C.931 19.3.443 19.981.506 20.395c.036.245.236.41.498.41H22.52c.264 0 .48-.139.574-.37.191-.465-.138-1.23-.82-1.905a4.329 4.329 0 00-.137-.13l.934-2.184a.338.338 0 00.075-.174zM9.394 7.178c0-.194.158-.351.352-.351h3.46c.194 0 .351.157.351.35 0 .19-.16.351-.351.351h-3.46a.356.356 0 01-.352-.35zm1.267 1.03h1.63v.903h-1.63v-.904zm3.404 3.77c-.136 0-.25-.142-.25-.31v-.282c0-.168.114-.31.25-.31h2.35l.709.902h-3.06zm4.896 1.238h2.366c.287 0 .63.091.63.528v.401H19.69l-.73-.93zM2.428 19.247c1.158-.355 2.427-.226 3.77-.089H6.2c-.076.075-.15.152-.22.232-.247.28-.406.526-.475.736h-4.24c.178-.274.612-.71 1.163-.879zm20.043.879H6.264c.216-.316.692-.814 1.213-1.07v-.001c1.007-.497 1.989-.376 3.126-.236 1.216.15 2.594.32 4.156-.341 3.69-1.564 5.84-.458 6.745.273l.011.009c.072.058.136.114.192.166.566.524.76 1.017.765 1.2zm-3.108-3.024c-1.473-.247-3.112.006-4.87.75-1.394.591-2.621.44-3.808.293-1.193-.147-2.32-.286-3.51.301a3.05 3.05 0 00-.196.107c-.24-.022-.479-.046-.712-.07-1.34-.137-2.61-.266-3.836.058l.677-2.2h15.1a.34.34 0 000-.68H3.316l.053-.17c.106-.346.287-.666.889-.667h18.377c.077 0 .13.021.158.063.032.049.045.149-.012.283l-.21.491h-2.817a.34.34 0 100 .679h2.526l-.697 1.628a5.685 5.685 0 00-2.22-.866z" fill="#000"/>
</svg>
