<svg width="24" height="24" fill="none" xmlns="http://www.w3.org/2000/svg">
  <defs/>
  <path d="M11.62 16.21l-1.74 1.74a1.64 1.64 0 00-.41 1.651 2.745 2.745 0 01-.629 2.724c-1.047 1.099-2.851 1.124-3.927.053a2.743 2.743 0 01-.74-2.551c-.89.2-1.86-.047-2.551-.741-1.072-1.076-1.047-2.88.053-3.927a2.745 2.745 0 012.723-.629 1.64 1.64 0 001.65-.41l8.072-8.07a1.64 1.64 0 00.41-1.651 2.745 2.745 0 01.628-2.724A2.733 2.733 0 0116.984.84c.673-.04 1.19.188 1.19.188.334.13.646.329.912.594.695.692.94 1.662.74 2.551.89-.2 1.86.047 2.552.741 1.071 1.076 1.046 2.88-.053 3.927a2.745 2.745 0 01-2.723.628 1.64 1.64 0 00-1.651.41l-5.11 5.111-1.22 1.22z" fill="#F7F5F5"/>
  <path d="M22.378 4.914a2.733 2.733 0 00-.908-.605c.412 1.017.197 2.246-.637 3.04a2.745 2.745 0 01-2.723.629 1.64 1.64 0 00-1.65.41l-5.112 5.11-1.22 1.22-1.74 1.74a1.64 1.64 0 00-.41 1.651 2.745 2.745 0 01-.628 2.724c-.794.833-2.024 1.048-3.04.637.134.33.336.64.604.908 1.076 1.07 2.88 1.046 3.927-.053A2.745 2.745 0 009.47 19.6a1.64 1.64 0 01.41-1.65l1.74-1.74 1.22-1.22 5.111-5.111a1.64 1.64 0 011.65-.41 2.745 2.745 0 002.724-.629c1.1-1.047 1.124-2.851.053-3.927z" fill="#E3E2E2"/>
  <path d="M11.383 15.937l-1.74 1.74a1.966 1.966 0 00-.493 1.988 2.396 2.396 0 01-2.267 3.128 2.394 2.394 0 01-2.383-2.93.335.335 0 00-.4-.4 2.394 2.394 0 01-2.93-2.383 2.396 2.396 0 013.128-2.267c.7.221 1.462.033 1.988-.493l8.071-8.07a1.966 1.966 0 00.493-1.99c-.416-1.312.349-2.74 1.734-3.062a.335.335 0 00-.152-.652 3.064 3.064 0 00-2.22 3.917c.145.461.02.964-.328 1.313l-8.072 8.07a1.299 1.299 0 01-1.312.328 3.065 3.065 0 00-4 2.897 3.06 3.06 0 003.278 3.114 3.06 3.06 0 003.07 3.278 3.066 3.066 0 002.94-4 1.3 1.3 0 01.328-1.313l1.74-1.74a.335.335 0 10-.473-.473zM20.222 3.741A3.06 3.06 0 0018.297.679a.335.335 0 00-.245.623A2.394 2.394 0 0119.5 4.063a.335.335 0 00.4.4 2.401 2.401 0 012.24.65c.94.944.919 2.53-.046 3.449a2.412 2.412 0 01-2.392.551 1.967 1.967 0 00-1.988.493l-5.11 5.11a.335.335 0 00.236.572c.264 0 .012.073 5.347-5.209a1.299 1.299 0 011.313-.327 3.065 3.065 0 004-2.897 3.06 3.06 0 00-3.278-3.114z" fill="#000"/>
</svg>
