<svg width="24" height="24" fill="none" xmlns="http://www.w3.org/2000/svg">
  <defs/>
  <g fill-rule="evenodd" clip-rule="evenodd">
    <path d="M18.295 15.18c.858-1.898.978-5.114.059-6.807-.19-.35-.647-.65-.823-.126-.146.434-.224.799-.306.973-.495 1.033-1.981 1.046-2.022-.96-.108-5.308-3.67-7.427-5.647-7.42-1.74.005 2.606 3.108-.165 7.59-.42.68-.963.26-1.534-.248-.675-.601-1.98-.937-2.741-.382-.345.085.155.57.365.996 1.012 2.054 1.083 2.041.347 3.78-.379.893-.273 1.89-.052 2.632l6.223 3.367 6.296-3.395z" fill="#F78411"/>
    <path d="M5.942 21.65c-.093-.75-.686-1.29-1.323-1.21a.945.945 0 00-.2.048c-.524.18-.865.788-.781 1.455.092.75.685 1.29 1.32 1.21a.909.909 0 00.133-.026l.193-.074c.454-.23.734-.79.658-1.403z" fill="#FCC368"/>
    <path d="M11.998 20.489l-.62-1.45H8.204L4.42 20.488a.949.949 0 01.2-.047c.637-.082 1.23.46 1.322 1.21.076.611-.204 1.173-.657 1.402l6.715-2.564z" fill="#B5722F"/>
    <path d="M14.75 16.536c.98-2.869.144-5.18-1.569-6.514-.803-.626-1.992-.617-1.384.601.555 1.112.284 2.661-.008 3.498-.26.746-1.058 1.129-1.67.159-.197-.312-.42-1.091-.883-1.206-.662-.163-1.033 1.756-.481 3.274l3.244 2.228 2.751-2.04z" fill="#FCC368"/>
    <path d="M18.295 15.18c.858-1.898.978-5.114.059-6.808-.19-.348-.648-.649-.823-.126-.146.435-.224.8-.306.974a1.597 1.597 0 01-.086.153c.685 1.769.52 4.613-.268 6.352l1.424-.545z" fill="#F74311"/>
    <path d="M12 20.489l-.658-.528-1.082-.136-4.345 1.669c.011.05.02.103.027.156.076.613-.204 1.174-.658 1.403L12 20.489z" fill="#91561A"/>
    <path d="M19.58 20.486l-3.786-1.447L12 17.589l-6.604-2.526c-1.628-.623-2.484 1.955-1.019 2.514l3.829 1.462 3.794 1.45 6.715 2.564c-.453-.23-.734-.79-.656-1.403.092-.75.685-1.29 1.32-1.21.07.01.137.025.201.046z" fill="#B5722F"/>
    <path d="M20.362 21.943c.084-.667-.257-1.275-.782-1.455v-.002a1.05 1.05 0 00-.201-.046c-.636-.08-1.229.46-1.321 1.21-.078.612.203 1.174.656 1.403l.194.074c.042.011.087.02.133.025.635.082 1.228-.46 1.32-1.21z" fill="#FCC368"/>
    <path d="M18.09 21.47L3.75 15.818c-.268.646-.13 1.471.626 1.76l3.829 1.462 10.508 4.014c-.452-.23-.733-.79-.655-1.403.007-.061.017-.12.031-.18z" fill="#91561A"/>
    <path d="M19.623 17.577c1.465-.559.608-3.137-1.02-2.514L12 17.589l.883 1.846 2.913-.396 3.828-1.462z" fill="#B5722F"/>
    <path d="M19.623 17.577c.699-.267.87-.994.679-1.613l-6.26 2.405 1.752.67 3.829-1.462z" fill="#91561A"/>
  </g>
  <path d="M19.702 20.17l-2.958-1.13 3-1.145c.515-.197.86-.625.949-1.174.103-.647-.16-1.353-.657-1.756a1.47 1.47 0 00-1.172-.32c.282-.865.449-1.898.467-2.94.025-1.402-.216-2.643-.678-3.494-.17-.314-.506-.616-.874-.584-.123.01-.425.082-.569.511-.068.203-.12.387-.167.55-.047.163-.09.316-.124.386-.166.346-.48.545-.763.484-.363-.08-.598-.579-.613-1.304-.02-.99-.16-1.926-.416-2.781a.34.34 0 00-.65.195c.238.796.368 1.67.387 2.6.033 1.589.887 1.896 1.148 1.953.593.129 1.217-.223 1.52-.855.057-.121.104-.285.164-.492a11.397 11.397 0 01.17-.552.604.604 0 01.19.213c.802 1.478.788 4.477-.015 6.38l-2.768 1.059c.18-.706.257-1.396.23-2.06a.34.34 0 00-.68.029c.031.742-.085 1.527-.344 2.334l-2.48.948-2.972-1.137a4.424 4.424 0 01-.176-1.762c.065-.611.244-.88.311-.92.184.055.375.46.489.703.061.13.119.254.18.352.448.707.96.762 1.226.732.461-.053.865-.42 1.053-.96.355-1.016.566-2.61-.009-3.761-.158-.316-.14-.469-.115-.489.1-.081.561-.025.987.307a4.752 4.752 0 011.596 2.238.34.34 0 10.644-.216 5.428 5.428 0 00-1.822-2.557c-.546-.426-1.375-.674-1.835-.297-.191.156-.453.535-.062 1.317.514 1.028.226 2.516-.025 3.234-.098.282-.295.487-.49.51-.25.027-.466-.252-.572-.42a3.059 3.059 0 01-.141-.278c-.189-.402-.447-.952-.948-1.076-.253-.063-.5.022-.694.238-.456.507-.594 1.707-.373 2.808l-2.193-.838c-.139-.536-.265-1.421.083-2.245.745-1.76.694-1.941-.22-3.79l-.135-.271c-.073-.15-.173-.299-.261-.43a5.576 5.576 0 01-.127-.196c.616-.361 1.663-.095 2.235.414.447.398.888.75 1.363.68.271-.04.502-.21.684-.507 1.829-2.957.703-5.386.098-6.69-.121-.263-.268-.58-.3-.735a.788.788 0 01.08-.004h.007c.664 0 1.461.264 2.189.726.888.563 1.636 1.39 2.165 2.39a.34.34 0 00.6-.317C13.256 1.587 11.068.5 9.566.5h-.009c-.12 0-.488.001-.672.291-.218.342-.02.768.278 1.412.59 1.272 1.577 3.402-.06 6.049-.05.08-.125.18-.205.191-.201.03-.614-.338-.813-.515-.795-.707-2.224-1.042-3.12-.435a.46.46 0 00-.274.264c-.106.275.069.536.27.837.08.12.164.243.217.353l.135.273c.426.861.64 1.293.666 1.673.025.36-.114.73-.462 1.55-.336.794-.314 1.616-.21 2.236a1.484 1.484 0 00-1.342.285c-.496.404-.76 1.11-.657 1.756.089.55.434.978.949 1.174l2.998 1.145-2.949 1.13c-.67.234-1.108.99-1.004 1.816.06.487.302.928.664 1.208A1.416 1.416 0 005 23.49a1.308 1.308 0 00.41-.12l6.59-2.517s6.824 2.604 6.836 2.606a1.32 1.32 0 00.33.042c.307 0 .61-.106.869-.307a1.81 1.81 0 00.663-1.208c.104-.823-.33-1.576-.997-1.814zm-.977-4.79c.331-.127.637-.088.883.112.31.251.48.713.414 1.121a.793.793 0 01-.52.647l-3.709 1.416-2.843-1.087 5.775-2.209zM3.975 21.9c-.063-.502.176-.956.547-1.089a.458.458 0 00.02-.006l.004-.002a.681.681 0 01.202-.031.74.74 0 01.451.164c.22.171.368.446.406.757.058.46-.138.88-.459 1.05l-.153.058a.72.72 0 01-.612-.144 1.13 1.13 0 01-.406-.756zm2.257.428c.06-.225.078-.47.047-.72a1.811 1.811 0 00-.663-1.208l-.006-.004 2.595-.993 2.844 1.086-4.817 1.839zm11.49-.72c-.032.25-.013.495.046.72l-9.428-3.6a.346.346 0 00-.029-.012L4.498 17.26a.794.794 0 01-.52-.647c-.066-.41.105-.87.414-1.121.246-.2.55-.239.882-.112l13.116 5.016-.005.004a1.81 1.81 0 00-.664 1.208zm2.303.293c-.038.31-.186.585-.406.756a.722.722 0 01-.611.144l-.155-.059c-.32-.169-.516-.59-.458-1.05.038-.31.186-.585.406-.756a.738.738 0 01.535-.159.682.682 0 01.122.027h.001c.002.002.003.002.005.002.38.127.625.587.561 1.095z" fill="#000"/>
</svg>
