<svg width="24" height="24" fill="none" xmlns="http://www.w3.org/2000/svg">
  <defs/>
  <path d="M23.102 6.67H.957v14.964h22.145V6.67z" fill="#FF6F52"/>
  <path d="M14.12 15.498l-3.932.066L.957 13.14v1.467l9.231 2.423h3.682l9.232-2.423V13.14l-8.982 2.358z" fill="#E25749"/>
  <path d="M16.604 3.52v1.966c0-.636-.516-1.153-1.152-1.153H8.608c-.637 0-1.153.517-1.153 1.153V3.52c0-.637.517-1.153 1.153-1.153h6.844c.636 0 1.152.516 1.152 1.153z" fill="#FF6F52"/>
  <path d="M13.87 12.897H10.19v5.202h3.681v-5.202z" fill="#FCD577"/>
  <path d="M23.073 8.95a.428.428 0 00.427-.427V6.67a.428.428 0 00-.427-.427h-6.071V3.519c0-.87-.709-1.58-1.58-1.58H8.578c-.871 0-1.58.71-1.58 1.58v2.724H.928A.428.428 0 00.5 6.67v14.963c0 .236.191.428.428.428h2.394a.428.428 0 100-.855H1.355v-7.511l8.376 2.198V18.1c0 .236.192.428.428.428h3.682a.428.428 0 00.428-.428v-2.206l8.376-2.199v7.512H4.747a.428.428 0 000 .855h18.326a.428.428 0 00.427-.428V9.948a.428.428 0 10-.855 0v2.862l-8.376 2.2v-2.113a.428.428 0 00-.428-.428H10.16a.428.428 0 00-.428.428v2.112L1.355 12.81V7.098h21.29v1.425c0 .236.191.427.428.427zm-12.487 8.722V16.66h2.828v1.012h-2.828zm2.828-4.348v2.481h-2.828v-2.48h2.828zM8.578 2.794h6.844c.4 0 .725.326.725.725v.564a1.57 1.57 0 00-.725-.177H8.578a1.57 1.57 0 00-.725.177v-.564c0-.4.325-.725.725-.725zm-.725 2.692c0-.4.325-.725.725-.725h6.844c.4 0 .725.325.725.725v.757H7.853v-.757z" fill="#000"/>
</svg>
