<svg width="24" height="24" fill="none" xmlns="http://www.w3.org/2000/svg">
  <defs/>
  <path d="M21.049 5.682H2.939A2.04 2.04 0 00.9 7.722v12.142a2.04 2.04 0 002.04 2.04h18.109a2.04 2.04 0 002.04-2.04V7.721a2.04 2.04 0 00-2.04-2.039z" fill="#4EBFED"/>
  <path d="M2.642 19.776V7.81c0-1.175.952-2.128 2.128-2.128H3.028A2.128 2.128 0 00.9 7.81v11.966c0 1.175.953 2.128 2.128 2.128H4.77a2.128 2.128 0 01-2.128-2.128z" fill="#42B7DB"/>
  <path d="M15.482 2.096h-7.44V3.89h7.44V2.096z" fill="#4EBFED"/>
  <g fill="#FCD577">
    <path d="M6.36 4.399H3.614v1.283H6.36V4.4zM20.352 4.399h-2.746v1.283h2.746V4.4z"/>
  </g>
  <path d="M23.094 16.483a.406.406 0 00.406-.407V7.721a2.448 2.448 0 00-2.445-2.445h-.29v-.877a.406.406 0 00-.407-.406h-2.745a.406.406 0 00-.407.406v.877h-1.313v-3.18a.406.406 0 00-.406-.406h-7.44a.406.406 0 00-.405.406v3.18h-.87V4.4a.406.406 0 00-.407-.406H3.62a.406.406 0 00-.406.406v.877h-.269A2.448 2.448 0 00.5 7.721v12.143a2.448 2.448 0 002.445 2.446h18.11a2.448 2.448 0 002.445-2.446V17.43a.406.406 0 10-.812 0v2.434c0 .9-.733 1.633-1.633 1.633H2.945c-.9 0-1.633-.732-1.633-1.633V7.721c0-.9.733-1.633 1.633-1.633h18.11c.9 0 1.633.733 1.633 1.633v8.355c0 .225.181.407.406.407zM8.454 4.295h1.217a.406.406 0 100-.812H8.454v-.98h6.627v.98h-4.056a.406.406 0 100 .813h4.056v.98H8.454v-.98zm-4.428.981v-.47h1.933v.47H4.026zm13.993 0v-.47h1.933v.47h-1.933z" fill="#000"/>
</svg>
