<svg width="24" height="24" fill="none" xmlns="http://www.w3.org/2000/svg">
  <defs/>
  <path d="M23.163 6.385v14.824H.837V6.385h22.326z" fill="#FFCE54"/>
  <g fill="#656D78">
    <path d="M21.366 18.065H20.02v1.347h1.347v-1.347zM18.67 18.065h-1.347v1.347h1.348v-1.347z"/>
  </g>
  <path d="M20.018 2.791H3.982L.837 6.385h22.326L20.018 2.79z" fill="#F6BB42"/>
  <path d="M20.018 2.791H18.67l3.145 3.594h1.348L20.018 2.79z" fill="#DCA746"/>
  <path d="M13.348 2.791l1.347 3.594h-5.39l1.347-3.594h2.696z" fill="#DA4453"/>
  <path d="M14.695 6.385v3.594l-.898.449-.899-.45-.898.45-.898-.45-.899.45-.898-.45V6.386h5.39z" fill="#ED5564"/>
  <path d="M23.163 6.385h-1.348v14.824h1.348V6.385z" fill="#F6BB42"/>
  <path d="M23.5 6.38l-.001-.019-.001-.013a.342.342 0 00-.004-.022l-.001-.01a.344.344 0 00-.007-.025l-.001-.005a.345.345 0 00-.01-.028l-.001-.003a.328.328 0 00-.012-.026l-.003-.004a.298.298 0 00-.013-.022l-.004-.007a.361.361 0 00-.014-.018l-.007-.01-.004-.005-3.145-3.594-.007-.007a.276.276 0 00-.064-.054.445.445 0 00-.074-.035.355.355 0 00-.099-.018H3.972a.322.322 0 00-.2.072.398.398 0 00-.012.01l-.012.012-.013.013-.007.007L.583 6.163l-.004.006-.007.009a.332.332 0 00-.014.018l-.005.007a.326.326 0 00-.012.022l-.003.005a.334.334 0 00-.012.025l-.001.003a.337.337 0 00-.01.028l-.001.005a.345.345 0 00-.007.026l-.001.009a.349.349 0 00-.004.022v.013l-.002.02v5.26a.337.337 0 00.674 0V6.72h7.794v3.282l.002.014c0 .006.002.012.003.017 0 .006.001.011.003.017l.003.013a.335.335 0 00.005.02l.004.01.008.02.005.01.009.018.008.014.009.013.011.016.008.01.014.015.008.008.015.014.01.009.014.01.013.01a.276.276 0 00.03.017l.004.002.898.45c.004 0 .007.002.01.003a.349.349 0 00.042.016l.014.005a.36.36 0 00.03.006l.012.002a.34.34 0 00.086 0l.011-.002a.342.342 0 00.031-.006l.014-.005a.363.363 0 00.042-.016l.01-.004.748-.373.747.373.01.004a.305.305 0 00.087.027l.01.002a.34.34 0 00.086 0l.012-.002a.334.334 0 00.031-.006l.014-.005a.32.32 0 00.042-.016l.01-.004.747-.373.748.373.01.005a.27.27 0 00.042.016.347.347 0 00.045.01l.01.002a.34.34 0 00.043.003h.001a.34.34 0 00.043-.003l.01-.002a.319.319 0 00.032-.006l.013-.004a.308.308 0 00.028-.01l.014-.006.01-.005.899-.449.004-.002a.418.418 0 00.018-.01l.011-.007a.303.303 0 00.015-.01l.013-.01.011-.01.014-.012.009-.01.013-.014.009-.012.01-.013.01-.016.007-.011a.293.293 0 00.01-.02l.004-.009a.329.329 0 00.008-.022l.003-.008c.003-.007.005-.014.006-.022l.003-.01.004-.02.002-.014.001-.016.001-.018V6.722h7.794v14.15H1.174v-7.884a.337.337 0 00-.674 0v8.221a.338.338 0 00.337.337h22.326a.34.34 0 00.337-.337V6.385 6.38zm-9.703 3.671l-.748-.374-.007-.003a.354.354 0 00-.064-.022l-.013-.003a.329.329 0 00-.05-.007h-.033l-.017.002-.015.001a.353.353 0 00-.018.004c-.005 0-.01.002-.014.003a.346.346 0 00-.032.01l-.015.005a.376.376 0 00-.017.007l-.006.003-.748.374-.748-.374-.007-.003a.318.318 0 00-.063-.022l-.014-.003-.019-.004-.014-.001-.018-.002h-.032l-.017.002-.015.001-.018.004a.298.298 0 00-.03.007l-.016.005a.396.396 0 00-.032.013l-.006.003-.748.374-.562-.28V6.72h4.717v3.05l-.561.28zM4.135 3.128h6.031l-1.095 2.92H1.579l2.556-2.92zm8.979 0l1.095 2.92H9.791l1.095-2.92h2.228zm1.815 2.92l-1.095-2.92h6.031l2.556 2.92h-7.492z" fill="#000"/>
  <path d="M2.634 18.401h3.144a.337.337 0 000-.673H2.634a.337.337 0 100 .673zM2.634 19.75H4.43a.337.337 0 100-.675H2.634a.337.337 0 000 .674zM21.366 19.75c.186 0 .337-.152.337-.338v-1.347a.337.337 0 00-.337-.337H20.02a.337.337 0 00-.337.337v1.347c0 .186.15.337.337.337h1.347zm-1.01-1.349h.673v.674h-.674v-.674zM18.67 19.75c.187 0 .338-.152.338-.338v-1.347a.337.337 0 00-.337-.337h-1.348a.337.337 0 00-.337.337v1.347c0 .186.151.337.337.337h1.348zM17.66 18.4h.674v.674h-.674v-.674z" fill="#000"/>
</svg>
