<svg width="24" height="24" fill="none" xmlns="http://www.w3.org/2000/svg">
  <defs/>
  <path d="M17.143 9.08H5.913v8.535h11.23V9.08z" fill="#FFCE54"/>
  <g fill="#F6BB42">
    <path d="M17.144 9.08h-1.348v8.535h1.348V9.08zM15.347 7.283H7.71L5.913 9.08h11.23l-1.796-1.797z"/>
  </g>
  <path d="M15.347 7.283h-1.348l1.797 1.797h1.348l-1.797-1.797z" fill="#DCA746"/>
  <path d="M12.651 9.08v2.246l-1.123-.45-1.123.45V9.08h2.246z" fill="#ED5564"/>
  <path d="M12.202 7.283l.45 1.797h-2.247l.45-1.797h1.347z" fill="#DA4453"/>
  <path d="M23.421 12.92l-.955-1.137-.007-.008-.011-.012-.002-.001-.001-.002-.012-.01c-.004-.004-.007-.008-.011-.01l-.003-.003-.013-.01-.01-.007-.004-.002-.013-.008-.012-.007-.004-.002-.012-.006-.014-.006-.004-.002-.011-.004-.016-.005-.004-.002-.012-.002-.016-.005h-.003l-.014-.002-.016-.002h-.002l-.019-.001h-.004l-.008-.001h-.001a.29.29 0 00-.02.001h-.012-.002l-.02.004-.01.001h-.003l-.004.002-.014.003-.01.003-.003.001-.013.004-.003.002-.013.004-.002.001-.014.007-.014.007h-.002l-.012.008-.015.009h-.002l-.006.006-.006.004-.012.01-.002.001h-.001l-.008.008-.012.011-.002.002-1.137 1.136a.337.337 0 00.477.477l.527-.527a10.271 10.271 0 01-2.997 6.47 10.281 10.281 0 01-7.317 3.03 10.281 10.281 0 01-7.318-3.03A10.28 10.28 0 011.174 12a10.28 10.28 0 013.03-7.318 10.28 10.28 0 017.319-3.03c2.372 0 4.603.78 6.453 2.257a10.397 10.397 0 013.61 5.669.337.337 0 10.656-.157 11.074 11.074 0 00-3.846-6.038A10.905 10.905 0 0011.523.977a10.95 10.95 0 00-7.795 3.229A10.95 10.95 0 00.5 12a10.95 10.95 0 003.228 7.794 10.95 10.95 0 007.795 3.229 10.95 10.95 0 007.794-3.229 10.94 10.94 0 003.193-6.911l.395.47a.336.336 0 10.516-.433z" fill="#000"/>
  <path d="M5.913 14.134a.337.337 0 00-.337.337v3.144a.34.34 0 00.337.337h11.23a.341.341 0 00.24-.098.34.34 0 00.098-.239V9.081a.336.336 0 00-.099-.24h-.001l-1.796-1.796a.324.324 0 00-.025-.023l-.01-.007c-.006-.004-.01-.009-.016-.012l-.014-.009-.015-.008-.014-.007-.015-.007-.015-.005c-.005-.003-.01-.005-.017-.006l-.014-.004-.018-.004-.016-.003-.016-.002a.33.33 0 00-.03-.002H7.707c-.01 0-.02 0-.03.002l-.015.002c-.006 0-.011.001-.017.003-.006 0-.011.002-.017.004l-.015.004-.016.005-.015.006-.015.007-.015.007-.014.008-.014.009-.015.011-.012.008a.322.322 0 00-.024.023L5.675 8.842a.336.336 0 00-.099.239v4.042a.337.337 0 00.674 0V9.417h3.818V11.334a.361.361 0 00.004.037c0 .006.001.013.003.019 0 .006.002.012.004.018l.003.013a.36.36 0 00.008.023l.002.007.001.001a.322.322 0 00.02.043l.006.008a.336.336 0 00.024.034l.003.004.03.03.008.009c.01.01.022.018.034.026l.003.002a.342.342 0 00.037.02l.007.004a.334.334 0 00.042.016h.002a.347.347 0 00.04.01l.012.002a.322.322 0 00.041.003h.004c.01 0 .022 0 .033-.002h.007a.342.342 0 00.025-.004l.016-.004.015-.004.019-.007.01-.003.005-.002.992-.397.992.396.006.003.01.003a.26.26 0 00.019.007l.015.004.016.004a.34.34 0 00.024.003l.008.001a.342.342 0 00.033.002h.004a.322.322 0 00.04-.003l.012-.002a.352.352 0 00.041-.01h.002a.347.347 0 00.042-.016l.007-.003a.342.342 0 00.037-.021l.003-.002a.324.324 0 00.034-.026l.009-.008a.33.33 0 00.03-.031c0-.001 0-.003.002-.004a.353.353 0 00.024-.034l.005-.008a.335.335 0 00.02-.043h.001l.003-.008a.36.36 0 00.008-.023l.003-.013.004-.018.003-.019.002-.014.001-.023V9.417h3.819v7.861H6.25v-2.807a.337.337 0 00-.337-.337zm5.74-3.57l-.01-.004a.338.338 0 00-.017-.005l-.016-.005-.016-.003c-.006-.002-.011-.003-.017-.003l-.015-.002a.275.275 0 00-.051-.001.357.357 0 00-.033.003l-.014.002a.246.246 0 00-.032.008.268.268 0 00-.02.007l-.009.003-.66.264V9.417h1.571v1.411l-.66-.264zm.286-2.944l.28 1.123h-1.382l.28-1.123h.822zm.975 1.123l-.28-1.123h2.573l1.123 1.123h-3.416zm-6.188 0L7.85 7.62h2.574l-.28 1.123H6.725z" fill="#000"/>
</svg>
