<svg width="24" height="24" fill="none" xmlns="http://www.w3.org/2000/svg">
  <defs/>
  <path d="M21.283 15.148l-7.598 2.765-2.458-6.754 7.598-2.765 2.458 6.754z" fill="#FFCE54"/>
  <path d="M22.702 14.634l.461 1.266-8.682 3.157a2.459 2.459 0 00-.46-1.266l7.262-2.643 1.42-.514z" fill="#CCD1D9"/>
  <path d="M16.827 2.906l1.997 5.488-2.954 1.075-1.688.615-2.955 1.075-1.998-5.487 7.598-2.766z" fill="#F6BB42"/>
  <path d="M15.87 9.47l.614 1.688-1.688.614-.614-1.688 1.688-.615z" fill="#ED5565"/>
  <path d="M13.873 3.982l.615 1.688-1.689.615-.614-1.688 1.688-.615z" fill="#DA4453"/>
  <path d="M14.02 17.791a2.484 2.484 0 01.46 1.267 2.471 2.471 0 11-.46-1.267z" fill="#656D78"/>
  <g fill="#CCD1D9">
    <path d="M12.649 19.007a.674.674 0 11-1.267.46.674.674 0 011.267-.46zM11.836 16.773a2.466 2.466 0 00-1.267.46L5.621 3.64 1.298 5.198.837 3.932l4.324-1.56c.7-.254 1.472.106 1.727.806l4.948 13.595z"/>
  </g>
  <path d="M16.836 2.903l-1.267.461 1.998 5.488 1.266-.461-1.997-5.488z" fill="#DCA746"/>
  <path d="M18.833 8.392l-1.267.46 2.46 6.755 1.266-.461-2.46-6.754z" fill="#F6BB42"/>
  <path d="M22.702 14.635l-1.39.506.461 1.266 1.39-.505-.46-1.267z" fill="#AAB2BC"/>
  <path d="M12.015 18.227a1.01 1.01 0 10.001 2.019 1.01 1.01 0 000-2.02zm.116 1.327a.336.336 0 01-.432-.201.337.337 0 11.432.201z" fill="#000"/>
  <path d="M23.395 16.144a.34.34 0 00.02-.02l.004-.005a.329.329 0 00.017-.02l.001-.003a.388.388 0 00.016-.025l.003-.005a.317.317 0 00.012-.023l.004-.01.009-.02.004-.015.005-.016a.351.351 0 00.005-.025l.001-.007a.335.335 0 00-.016-.165l-.461-1.266a.336.336 0 00-.173-.19h-.002l-.015-.007-.015-.006h-.003a.335.335 0 00-.224.001l-1.102.401-2.343-6.44-.922-2.532a.338.338 0 00-.432-.201.337.337 0 00-.202.431l.807 2.217-4.326 1.574h-.001l-2.638.96-1.767-4.854 2.322-.845.5 1.372a.338.338 0 00.431.201l1.689-.614a.335.335 0 00.218-.365.339.339 0 00-.005-.027l-.002-.007a.325.325 0 00-.01-.033l-.5-1.372 2.322-.844.5 1.371a.339.339 0 00.432.201.337.337 0 00.2-.431l-.614-1.689a.339.339 0 00-.431-.201l-2.954 1.075h-.001l-.003.001-1.683.613h-.003l-.005.003-2.95 1.074a.335.335 0 00-.2.431l1.996 5.488 1.92 5.277a2.792 2.792 0 00-.76-.122L7.204 3.063a1.687 1.687 0 00-2.159-1.007L.722 3.615l-.023.01-.009.003-.02.012-.01.005-.018.013-.009.005-.017.014-.008.008-.015.015-.008.008-.013.016-.007.01-.011.016-.007.01-.01.017-.005.012-.007.017-.006.013-.005.017-.004.014-.003.017-.003.015-.002.017-.002.015v.033l.002.018.001.015.004.018.003.016.005.017.005.015v.001l.461 1.267.012.027.01.02c.005.01.012.019.018.028l.011.017c.007.009.015.017.024.025l.01.013.03.023.01.008a.33.33 0 00.034.02l.01.006.036.015c.004 0 .007.003.011.004a.341.341 0 00.039.009l.01.002a.329.329 0 00.08.003h.006a.357.357 0 00.023-.004l.01-.002.019-.004.019-.006.009-.003h.001L5.42 4.07l4.75 13.053a2.812 2.812 0 00-.792 3.075 2.817 2.817 0 002.638 1.848c.328 0 .65-.057.96-.17a2.79 2.79 0 001.585-1.452 2.8 2.8 0 00.263-1.133l8.454-3.074c.003 0 .005-.002.007-.003a.334.334 0 00.025-.01l.01-.006.02-.01.01-.008a.343.343 0 00.017-.011l.005-.005a.37.37 0 00.02-.017c.002 0 .002-.002.003-.003zm-8.74 2.133a2.793 2.793 0 00-.135-.31l7.98-2.901.231.633-7.98 2.902a2.863 2.863 0 00-.097-.324zm.343-6.937l-.384-1.055 1.055-.384.384 1.055-1.056.385zm-.942-5.871L13 5.853l-.384-1.055 1.056-.384.384 1.055zm-2.397 5.891l2.321-.844.5 1.371a.338.338 0 00.431.201l1.689-.614a.337.337 0 00.201-.432l-.499-1.371 2.322-.845 2.228 6.122-6.722 2.444a2.826 2.826 0 00-.418-.39l-2.053-5.641zm-5.72-7.837l-.008-.015-.006-.016-.007-.013-.01-.017-.007-.01-.011-.017-.007-.009-.015-.017-.006-.006-.017-.016-.005-.005a.314.314 0 00-.02-.016l-.003-.002a.339.339 0 00-.025-.016h-.001a.338.338 0 00-.152-.046H5.6a.33.33 0 00-.027.003c-.005 0-.009.002-.013.003l-.02.004-.023.007-.01.003h-.001L1.499 4.767l-.23-.633 4.006-1.445c.524-.19 1.106.08 1.296.604l4.808 13.21a2.813 2.813 0 00-.633.231L5.938 3.524zm8.01 16.616a2.12 2.12 0 01-1.203 1.104 2.129 2.129 0 01-2.735-1.276 2.136 2.136 0 012.005-2.864c.893 0 1.7.565 2.005 1.405a2.12 2.12 0 01-.071 1.631z" fill="#000"/>
</svg>
