<svg width="24" height="24" fill="none" xmlns="http://www.w3.org/2000/svg">
  <defs/>
  <path d="M18.446 13.09h-1.553a.909.909 0 01-.909-.91v-.137c0-.502.407-.908.909-.908h1.553c.502 0 .909.406.909.908v.138a.909.909 0 01-.909.908z" fill="#FED402"/>
  <path d="M18.447 11.135H17.09c.502 0 .908.406.908.908v.138a.909.909 0 01-.908.909h1.356a.909.909 0 00.908-.91v-.137a.909.909 0 00-.908-.908z" fill="#FAC600"/>
  <path d="M22.253 13.09H20.7a.909.909 0 01-.909-.91v-.137c0-.502.407-.908.909-.908h1.553c.502 0 .908.406.908.908v.138a.909.909 0 01-.908.908z" fill="#FED402"/>
  <g fill="#FAC600">
    <path d="M22.253 11.135h-1.357c.502 0 .909.406.909.908v.138a.909.909 0 01-.909.908h1.357a.909.909 0 00.908-.908v-.138a.909.909 0 00-.909-.908zM3.3 13.09H1.748a.909.909 0 01-.908-.91v-.137c0-.502.407-.908.908-.908h1.554c.501 0 .908.406.908.908v.138a.909.909 0 01-.908.908zM7.106 13.09H5.553a.909.909 0 01-.908-.91v-.137c0-.502.406-.908.908-.908h1.553c.502 0 .909.406.909.908v.138a.909.909 0 01-.909.908z"/>
  </g>
  <path d="M15.551 14.126h-7.23a.947.947 0 01-.947-.946v-2.136c0-.522.424-.946.947-.946h7.23c.523 0 .947.424.947.946v2.136a.947.947 0 01-.947.946z" fill="#E8B800"/>
  <path d="M15.551 10.098h-1.356c.523 0 .947.424.947.946v2.136a.947.947 0 01-.947.946h1.356a.947.947 0 00.947-.946v-2.136a.947.947 0 00-.947-.946z" fill="#D7AA02"/>
  <path d="M9.097 11.585c.181 0 .198.088.202.205.001.065.038.174.26.174.136 0 .262-.03.262-.25 0-.357-.298-.596-.74-.596-.451 0-.71.254-.71.698v.734c0 .45.257.698.724.698.468 0 .726-.248.726-.698v-.29c0-.106-.074-.182-.176-.182H9.18c-.11 0-.175.108-.175.212 0 .122.074.21.175.21H9.3v.05c0 .156-.067.231-.204.231-.136 0-.202-.075-.202-.231v-.734c0-.158.065-.232.204-.232zM11.068 13.248c.469 0 .726-.248.726-.698v-.734c0-.45-.258-.698-.726-.698-.466 0-.723.248-.723.698v.734c0 .45.257.698.723.698zm.204-.698c0 .158-.065.231-.204.231-.137 0-.201-.073-.201-.231v-.734c0-.158.064-.232.201-.232s.204.076.204.232v.734zM13.647 12.998c0-.137-.07-.233-.17-.233h-.586v-1.472c0-.107-.102-.175-.26-.175-.16 0-.262.068-.262.175v1.76c0 .117.118.179.234.179h.874c.1 0 .17-.096.17-.234zM14.842 13.232c.468 0 .726-.248.726-.699v-.717c0-.45-.258-.698-.726-.698h-.49c-.133 0-.234.075-.234.175v1.763c0 .1.1.176.234.176h.49zm.204-.699c0 .156-.067.232-.204.232h-.202v-1.18h.202c.137 0 .204.075.204.231v.717z" fill="#000"/>
  <path d="M22.252 10.796h-1.553a1.25 1.25 0 00-1.127.711c-.2-.42-.63-.711-1.126-.711h-1.553a1.2 1.2 0 00-.08.003 1.288 1.288 0 00-1.262-1.04h-4.652a.339.339 0 100 .678h4.652c.335 0 .607.273.607.607v2.136a.608.608 0 01-.607.607h-2.459a.339.339 0 000 .678h2.459c.623 0 1.145-.447 1.261-1.037h1.634c.496 0 .926-.29 1.126-.711.201.42.63.711 1.127.711h1.553c.688 0 1.248-.56 1.248-1.247v-.138c0-.688-.56-1.247-1.248-1.247zm-3.806 1.954h-1.61v-1.273a.59.59 0 01.057-.003h1.553a.57.57 0 01.501.3h-.37a.339.339 0 100 .677h.37a.57.57 0 01-.501.3zm4.375-.57a.57.57 0 01-.569.57h-1.553a.57.57 0 01-.501-.299h.343a.339.339 0 100-.678h-.343a.57.57 0 01.5-.3h1.554a.57.57 0 01.57.57v.138zM11.737 13.787H8.321a.608.608 0 01-.608-.607v-2.135c0-.335.273-.608.608-.608h1.222a.339.339 0 100-.678H8.321c-.624 0-1.145.447-1.262 1.037H5.553c-.496 0-.925.291-1.126.712-.2-.421-.63-.712-1.126-.712H1.748c-.688 0-1.248.56-1.248 1.247v.138c0 .688.56 1.247 1.248 1.247H3.3a1.25 1.25 0 001.126-.711c.2.42.63.711 1.127.711h1.505c.117.59.638 1.037 1.262 1.037h3.416a.339.339 0 100-.678zM3.301 12.75H1.748a.57.57 0 01-.57-.57v-.137a.57.57 0 01.57-.57H3.3a.57.57 0 01.5.3h-.37a.339.339 0 100 .678h.37a.57.57 0 01-.5.3zm1.751-.299h.344a.339.339 0 100-.678h-.344a.57.57 0 01.502-.3h1.481v1.277H5.554a.57.57 0 01-.502-.299zM6.843 7.112a.339.339 0 00-.34.34v.204a.339.339 0 10.679 0v-.205a.339.339 0 00-.34-.339zM5.866 7.03h.205a.339.339 0 100-.679h-.205a.339.339 0 100 .678zM6.832 6.257a.339.339 0 00.34-.339v-.204a.339.339 0 10-.679 0v.204c0 .188.152.34.34.34zM7.605 7.018h.204a.339.339 0 100-.678h-.204a.339.339 0 100 .678zM16.824 17.743a.339.339 0 00-.339.339v.204a.339.339 0 10.678 0v-.204a.339.339 0 00-.339-.34zM16.053 16.982h-.205a.339.339 0 100 .678h.205a.339.339 0 000-.678zM16.814 16.888a.339.339 0 00.339-.34v-.204a.339.339 0 10-.678 0v.205c0 .187.151.339.339.339zM17.79 16.97h-.205a.339.339 0 100 .679h.205a.339.339 0 100-.678z" fill="#000"/>
</svg>
