<svg width="24" height="24" fill="none" xmlns="http://www.w3.org/2000/svg">
  <defs/>
  <path d="M15.29 17.745c-1.437.02-2.777.783-3.55 1.92.286.594.448 1.25.448 1.939v1.559h7.334v-1.325c0-2.234-2-4.062-4.233-4.093z" fill="#68B9D8"/>
  <path d="M15.29 17.745c-.151.002-.3.013-.45.031 2.046.25 3.783 1.98 3.783 4.062v1.325h.9v-1.325c0-2.234-2-4.062-4.233-4.093z" fill="#3695B2"/>
  <path d="M7.207 23.163h-4.98v-1.56c0-2.628 2.352-4.78 4.98-4.815 2.628.036 4.98 2.187 4.98 4.816v1.559h-4.98z" fill="#68B9D8"/>
  <path d="M7.208 16.788a4.94 4.94 0 00-.45.027c2.44.258 4.53 2.311 4.53 4.789v1.559h.9v-1.56c0-2.628-2.352-4.78-4.98-4.815z" fill="#3695B2"/>
  <path d="M7.207 22.205l-1.234-1.13.663-2.877H7.779l.663 2.877-1.235 1.13z" fill="#F2464F"/>
  <g fill="#D3333C">
    <path d="M7.78 18.198H7.104l.662 2.877-.897.822.337.308 1.235-1.13-.663-2.877zM7.779 18.198H6.636l-.64-1.243a4.99 4.99 0 011.211-.167c.413.006.82.064 1.211.167l-.639 1.243z"/>
  </g>
  <path d="M7.797 16.832l-.693 1.366H7.78l.64-1.243a5.048 5.048 0 00-.622-.123z" fill="#7F1B20"/>
  <path d="M15.29 17.749c1.112 0 2.022-.91 2.022-2.023v-1.74c0-1.113-.91-2.024-2.023-2.024-1.112 0-2.022.91-2.022 2.023v1.741c0 1.112.91 2.023 2.022 2.023z" fill="#FFC89F"/>
  <path d="M15.29 11.963c-.155 0-.305.018-.45.05a2.03 2.03 0 011.573 1.972v1.741a2.03 2.03 0 01-1.573 1.971c.145.034.295.052.45.052 1.112 0 2.022-.91 2.022-2.023v-1.74c0-1.113-.91-2.024-2.022-2.024z" fill="#F7B081"/>
  <path d="M7.207 16.792c1.31 0 2.38-1.071 2.38-2.38v-2.049c0-1.309-1.07-2.38-2.38-2.38a2.387 2.387 0 00-2.38 2.38v2.049c0 1.309 1.071 2.38 2.38 2.38z" fill="#FFC89F"/>
  <path d="M7.208 9.983c-.154 0-.304.015-.45.044a2.389 2.389 0 011.93 2.336v2.049a2.39 2.39 0 01-1.93 2.337 2.387 2.387 0 002.83-2.337v-2.049c0-1.309-1.071-2.38-2.38-2.38z" fill="#F7B081"/>
  <path d="M15.775 18.943h-.972l-.543-1.055a4.243 4.243 0 011.029-.143c.351.005.696.054 1.03.143l-.544 1.055z" fill="#D3333C"/>
  <path d="M15.7 17.771l-.6 1.172h.675l.544-1.055a4.272 4.272 0 00-.62-.117z" fill="#7F1B20"/>
  <path d="M15.29 22.35l-1.05-.961.564-2.446h.971l.564 2.446-1.05.96z" fill="#F2464F"/>
  <path d="M15.775 18.943H15.101l.563 2.446-.712.651.338.31 1.049-.961-.564-2.446z" fill="#D3333C"/>
  <path d="M15.838.837c-3.278 0-5.935 2.154-5.935 4.81 0 1.058.42 2.035 1.134 2.829 0 0-.08.897-.83 1.698a.19.19 0 00.135.318c.572.012 1.594-.076 2.38-.75l-.016-.008c.91.459 1.982.724 3.132.724 3.278 0 5.935-2.153 5.935-4.81 0-2.657-2.657-4.81-5.935-4.81z" fill="#EFE7E4"/>
  <path d="M15.838.837a7.41 7.41 0 00-.45.014c3.067.186 5.485 2.263 5.485 4.797 0 2.533-2.417 4.61-5.483 4.796.148.01.297.014.447.014 3.278 0 5.935-2.153 5.935-4.81 0-2.657-2.657-4.81-5.934-4.81z" fill="#D8D1D0"/>
  <path d="M15.96 7.653h.868c1.316-1.42 1.316-2.964 1.316-2.964 0-1.491-.977-2.183-2.183-2.183s-2.184.692-2.184 2.183c0 0 0 1.544 1.317 2.964h.867z" fill="#F7CB4F"/>
  <path d="M15.961 2.506c-.154 0-.304.011-.45.034.99.156 1.734.848 1.734 2.15 0 0 0 1.543-1.316 2.963h.9c1.316-1.42 1.316-2.964 1.316-2.964 0-1.491-.978-2.183-2.184-2.183z" fill="#FFAE47"/>
  <path d="M16.363 8.73h-.806a.465.465 0 01-.464-.464v-.613h1.734v.613a.465.465 0 01-.464.465z" fill="#FF6137"/>
  <path d="M16.67 17.638c.593-.429.98-1.126.98-1.912v-1.74a2.363 2.363 0 00-2.36-2.36 2.363 2.363 0 00-2.36 2.36v1.74c0 .788.387 1.486.982 1.915a4.822 4.822 0 00-2.125 1.411 5.531 5.531 0 00-3.089-2.37 2.717 2.717 0 001.227-2.27v-2.049a2.72 2.72 0 00-2.717-2.717 2.72 2.72 0 00-2.718 2.717v2.049c0 .948.489 1.784 1.227 2.27-2.184.662-3.827 2.659-3.827 4.922v1.559c0 .186.15.337.337.337h2.038a.337.337 0 100-.675h-1.7v-1.221c0-1.165.496-2.278 1.4-3.136a4.942 4.942 0 011.86-1.108l.454.882L5.644 21a.337.337 0 00.101.324l1.235 1.13a.336.336 0 00.455 0l1.235-1.13A.337.337 0 008.771 21l-.635-2.758.454-.883a4.94 4.94 0 011.861 1.11c.414.392.743.84.977 1.321.003.007.005.014.009.02a4.188 4.188 0 01.369 1.193l.006.04.008.066.006.047.006.062.005.05.004.063.004.049.003.07.001.041.002.113v1.221H5.39a.337.337 0 100 .675h8.417a.337.337 0 100-.675h-1.281v-1.221l-.002-.128v-.012a4.758 4.758 0 00-.396-1.762 4.118 4.118 0 011.961-1.41l.358.696-.536 2.325a.337.337 0 00.101.325l1.05.96a.337.337 0 00.455 0l1.05-.96a.337.337 0 00.1-.325l-.536-2.325.358-.694c.56.19 1.085.501 1.522.916.757.719 1.173 1.652 1.173 2.628v.987h-4.253a.337.337 0 100 .675h4.59a.337.337 0 00.338-.337v-1.325c0-1.911-1.362-3.601-3.19-4.2zm-9.462 4.11l-.862-.789.558-2.424h.607l.558 2.424-.861.79zm-.71-4.556l.046-.008.017-.002a4.997 4.997 0 01.251-.033l.056-.006a4.324 4.324 0 01.184-.012l.088-.003.068.001.067-.001a2.73 2.73 0 01.272.016c.018 0 .037.003.056.005a5.162 5.162 0 01.251.033l.017.002.046.008-.344.668h-.731l-.344-.668zm.79-.74l-.076-.001h-.009c-.026 0-.05 0-.076.002a2.045 2.045 0 01-1.962-2.041v-1.038c1.825-.14 2.5-1.391 2.5-1.391s.445 1.169 1.586 1.373v1.056c0 1.1-.874 1.998-1.963 2.04zm8.001 5.44l-.676-.62.459-1.991h.435l.459 1.992-.677.619zm-.526-3.764l.046-.007.046-.007a4.268 4.268 0 01.262-.024c.017-.001.033-.003.05-.003l.063-.002.06.001.052-.001c.039.001.077.002.116.005l.037.002c.055.004.108.008.162.014h.005l.153.022-.246.478h-.56l-.246-.478zm.595-.718l-.064-.002h-.01l-.06.002a1.687 1.687 0 01-1.62-1.684v-.886c1.513-.138 2.075-1.178 2.075-1.178s.364.958 1.296 1.157v.907c0 .906-.72 1.647-1.617 1.684z" fill="#000"/>
  <path d="M15.838.5c-3.459 0-6.273 2.31-6.273 5.148 0 1.058.385 2.068 1.113 2.93a2.913 2.913 0 01-.718 1.365.526.526 0 00.374.886l.1.001c.575 0 1.531-.103 2.33-.691.934.431 1.982.657 3.073.657 3.459 0 6.273-2.31 6.273-5.148C22.11 2.809 19.296.5 15.838.5zm0 9.621a6.6 6.6 0 01-2.983-.688 5.885 5.885 0 01-.435-.244.337.337 0 10-.336.585c-.484.265-1.011.353-1.414.375.621-.8.7-1.607.703-1.644a.336.336 0 00-.1-.27c-.676-.76-1.033-1.653-1.033-2.587 0-2.467 2.511-4.473 5.598-4.473 3.086 0 5.597 2.006 5.597 4.473 0 2.466-2.511 4.473-5.597 4.473z" fill="#000"/>
  <path d="M17.732 2.789c-.446-.406-1.058-.62-1.77-.62-1.114 0-1.961.519-2.326 1.424a.337.337 0 00.626.252c.35-.872 1.215-1.002 1.7-1.002.554 0 1.845.18 1.845 1.845 0 .014-.022 1.334-1.097 2.59l.208-1.705a.337.337 0 00-.335-.378h-1.244a.338.338 0 00-.335.378l.208 1.705c-1.071-1.252-1.097-2.568-1.097-2.59a.337.337 0 00-.675.001c0 .067.017 1.62 1.315 3.092v.485c0 .442.36.802.802.802h.805c.443 0 .802-.36.802-.802v-.482c1.302-1.472 1.318-3.028 1.318-3.095 0-.797-.26-1.454-.75-1.9zm-1.53 3.08l-.176 1.447h-.13L15.72 5.87h.482zm.287 2.397c0 .07-.057.127-.127.127h-.805a.127.127 0 01-.127-.127V7.99h1.059v.276z" fill="#000"/>
</svg>
