<svg width="24" height="24" fill="none" xmlns="http://www.w3.org/2000/svg">
  <defs/>
  <path d="M12.78 9.809h-1.562a.463.463 0 01-.463-.463V8.264h2.487v1.082a.463.463 0 01-.463.463z" fill="#FF6137"/>
  <path d="M12 8.264h1.245c1.887-2.037 1.887-4.251 1.887-4.251 0-2.14-1.402-3.132-3.131-3.132-1.73 0-3.132.993-3.132 3.132 0 0 0 2.214 1.888 4.25H12z" fill="#F7CB4F"/>
  <path d="M12 .881c-.152 0-.302.008-.448.024 1.517.16 2.683 1.157 2.683 3.108 0 0 0 2.214-1.888 4.25h.897c1.888-2.036 1.888-4.25 1.888-4.25C15.132 1.873 13.73.88 12 .88z" fill="#FBAB00"/>
  <path d="M12 23.119h4.555v-1.463c0-2.404-2.152-4.371-4.555-4.404-2.404.033-4.556 2-4.556 4.404v1.463H12z" fill="#68B9D8"/>
  <path d="M12 17.252c-.15.002-.3.011-.448.028 2.216.253 4.107 2.123 4.107 4.376v1.463h.897v-1.463c0-2.404-2.152-4.371-4.556-4.404z" fill="#3695B2"/>
  <path d="M5.392 17.756h4.555v-1.463c0-2.404-2.151-4.372-4.555-4.404-2.403.033-4.555 2-4.555 4.404v1.463h4.555z" fill="#68B9D8"/>
  <path d="M5.392 11.889c-.15.002-.3.011-.449.028 2.217.253 4.107 2.123 4.107 4.376v1.463h.897v-1.463c0-2.404-2.151-4.372-4.555-4.404z" fill="#3695B2"/>
  <path d="M18.608 17.756h-4.555v-1.463c0-2.404 2.151-4.372 4.555-4.404 2.404.032 4.555 2 4.555 4.404v1.463h-4.555z" fill="#68B9D8"/>
  <path d="M18.609 11.889c-.151.002-.3.011-.449.028 2.216.253 4.107 2.123 4.107 4.376v1.463h.897v-1.463c0-2.404-2.152-4.372-4.555-4.404z" fill="#3695B2"/>
  <path d="M12 17.255a2.183 2.183 0 01-2.177-2.177v-1.873c0-1.197.98-2.177 2.177-2.177 1.198 0 2.177.98 2.177 2.177v1.873c0 1.198-.98 2.177-2.177 2.177z" fill="#FFC89F"/>
  <path d="M12 11.028a2.16 2.16 0 00-.448.047 2.185 2.185 0 011.728 2.13v1.873a2.185 2.185 0 01-1.728 2.13 2.183 2.183 0 002.626-2.13v-1.873c0-1.197-.98-2.177-2.178-2.177z" fill="#F7B081"/>
  <path d="M5.392 11.892a2.183 2.183 0 01-2.177-2.177V7.842c0-1.197.98-2.177 2.177-2.177s2.177.98 2.177 2.177v1.873c0 1.198-.98 2.177-2.177 2.177z" fill="#FFC89F"/>
  <path d="M5.392 5.665c-.154 0-.304.016-.449.047a2.185 2.185 0 011.729 2.13v1.873a2.185 2.185 0 01-1.729 2.13 2.183 2.183 0 002.626-2.13V7.842c0-1.197-.98-2.177-2.177-2.177z" fill="#F7B081"/>
  <path d="M18.609 11.892c1.197 0 2.177-.98 2.177-2.177V7.842c0-1.197-.98-2.177-2.177-2.177-1.198 0-2.177.98-2.177 2.177v1.873c0 1.198.98 2.177 2.177 2.177z" fill="#FFC89F"/>
  <path d="M18.609 5.665c-.154 0-.304.016-.449.047a2.185 2.185 0 011.729 2.13v1.873a2.185 2.185 0 01-1.729 2.13 2.183 2.183 0 002.625-2.13V7.842c0-1.197-.979-2.177-2.176-2.177z" fill="#F7B081"/>
  <g fill="#F2464F">
    <path d="M12 22.207l1.13-1.034-.607-2.632h-1.046l-.606 2.632 1.13 1.034zM5.392 16.843l1.13-1.033-.607-2.632H4.869l-.606 2.632 1.129 1.033z"/>
  </g>
  <g fill="#D3333C">
    <path d="M5.915 13.178h-.673l.606 2.632-.792.725.336.308 1.13-1.033-.607-2.632zM11.477 18.541h1.046l.585-1.136A4.563 4.563 0 0012 17.252c-.378.005-.75.058-1.107.153l.584 1.136z"/>
  </g>
  <path d="M12.49 17.286l-.64 1.255h.672l.585-1.136a4.627 4.627 0 00-.618-.12z" fill="#7F1B20"/>
  <path d="M4.869 13.178h1.046l.585-1.136a4.569 4.569 0 00-1.108-.153c-.378.005-.75.058-1.108.153l.585 1.136z" fill="#D3333C"/>
  <path d="M5.883 11.923l-.64 1.255h.672l.585-1.136a4.61 4.61 0 00-.617-.12z" fill="#7F1B20"/>
  <path d="M19.131 13.178h-1.045l-.585-1.136c.358-.095.73-.148 1.108-.153.378.005.75.058 1.107.153l-.585 1.136z" fill="#D3333C"/>
  <path d="M19.1 11.923l-.642 1.255h.673l.585-1.136a4.596 4.596 0 00-.616-.12z" fill="#7F1B20"/>
  <path d="M18.608 16.843l-1.13-1.033.607-2.632h1.046l.606 2.632-1.13 1.033z" fill="#F2464F"/>
  <g fill="#D3333C">
    <path d="M12.523 18.541h-.672l.606 2.632-.793.726.337.308 1.129-1.034-.607-2.632zM19.132 13.178h-.673l.606 2.632-.793.726.337.308 1.13-1.034-.607-2.632z"/>
  </g>
  <path d="M20.036 11.782a2.512 2.512 0 001.086-2.067V7.842a2.516 2.516 0 00-2.514-2.513 2.516 2.516 0 00-2.513 2.513v1.873c0 .856.43 1.613 1.086 2.067a5.098 5.098 0 00-2.668 1.981v-.558A2.516 2.516 0 0012 10.692a2.516 2.516 0 00-2.513 2.513v.558a5.098 5.098 0 00-2.668-1.98 2.512 2.512 0 001.086-2.068V7.842a2.516 2.516 0 00-2.513-2.514 2.516 2.516 0 00-2.514 2.514v1.873c0 .856.43 1.613 1.086 2.067C1.984 12.408.5 14.23.5 16.293v1.463c0 .186.15.336.336.336h1.662a.336.336 0 100-.673H1.173v-1.126c0-1.057.451-2.068 1.271-2.847a4.49 4.49 0 011.67-1l.4.777-.58 2.511a.337.337 0 00.101.324l1.13 1.034a.336.336 0 00.454 0l1.13-1.034a.337.337 0 00.1-.323l-.579-2.512.4-.777a4.49 4.49 0 011.67 1 4.035 4.035 0 011.176 2.017c.01.07.025.138.041.205a3.7 3.7 0 01.054.625v1.126H3.619a.336.336 0 100 .673h5.226c-1.056.88-1.737 2.167-1.737 3.564v1.463c0 .186.15.336.337.336h1.492a.336.336 0 100-.673H7.781v-1.126c0-1.057.452-2.068 1.272-2.847a4.49 4.49 0 011.67-1l.399.776-.579 2.513a.336.336 0 00.1.323l1.13 1.034a.336.336 0 00.454 0l1.13-1.034a.336.336 0 00.1-.323l-.579-2.512.4-.777a4.488 4.488 0 011.67 1c.82.779 1.271 1.79 1.271 2.847v1.126h-6.16a.336.336 0 100 .673h6.496c.186 0 .337-.15.337-.336v-1.463c0-1.397-.681-2.684-1.737-3.564h1.152a.336.336 0 100-.673H14.39v-1.126c0-.21.019-.42.054-.624.016-.068.03-.137.041-.206a4.035 4.035 0 011.177-2.017 4.49 4.49 0 011.67-1l.399.777-.579 2.511a.336.336 0 00.101.324l1.13 1.034a.336.336 0 00.453 0l1.13-1.034a.336.336 0 00.1-.324l-.578-2.511.4-.777a4.49 4.49 0 011.669 1c.82.779 1.271 1.79 1.271 2.847v1.126H17.43a.336.336 0 100 .673h5.735c.185 0 .336-.15.336-.336v-1.463c0-2.063-1.483-3.885-3.464-4.51zM3.55 9.715v-.95c1.649-.14 2.26-1.271 2.26-1.271s.398 1.05 1.421 1.251v.97c0 .99-.785 1.8-1.766 1.84-.023-.002-.046-.002-.07-.003h-.009l-.07.002a1.843 1.843 0 01-1.766-1.839zm1.84 6.672l-.757-.693.503-2.18h.51l.502 2.18-.757.693zm.318-3.545h-.635l-.29-.563c.065-.01.13-.02.195-.027.01 0 .02-.002.029-.003l.155-.014.045-.003a3.86 3.86 0 01.127-.005l.057.002.057-.002.127.005.045.004c.051.003.103.008.154.013l.03.003c.064.008.13.017.194.027l-.29.563zm4.45 2.236v-.95c1.648-.14 2.258-1.271 2.258-1.271s.399 1.052 1.424 1.252v.97c0 .094-.008.187-.021.277a4.286 4.286 0 00-.033.16 1.844 1.844 0 01-1.713 1.401l-.07-.002h-.009l-.07.002a1.844 1.844 0 01-1.713-1.4 4.327 4.327 0 00-.032-.16 1.86 1.86 0 01-.02-.278zm.124 1.834c.09.085.187.163.29.233-.098.031-.194.065-.29.102v-.335zM12 21.75l-.757-.693.502-2.18h.51l.502 2.18-.757.694zm.318-3.545h-.636l-.289-.563c.065-.01.13-.019.194-.026l.03-.004c.051-.005.102-.01.154-.013l.045-.004a4.14 4.14 0 01.127-.005l.057.002.057-.002.127.005.045.004c.051.003.103.008.155.013l.029.004c.065.007.13.016.194.026l-.29.563zm1.11-1.06a2.53 2.53 0 00.288-.233v.335a4.941 4.941 0 00-.289-.102zm3.34-7.43v-.95c1.648-.14 2.26-1.271 2.26-1.271s.398 1.05 1.42 1.251v.97c0 .99-.785 1.8-1.765 1.839l-.07-.002h-.01l-.07.002a1.842 1.842 0 01-1.765-1.839zm1.84 6.672l-.757-.693.502-2.18h.51l.503 2.18-.758.693zm.318-3.545h-.635l-.29-.563a4.109 4.109 0 01.379-.043l.044-.004.127-.005.057.002.057-.002.128.005.044.003a4.06 4.06 0 01.378.044l-.29.563z" fill="#000"/>
  <path d="M10.418 9.346c0 .44.359.8.8.8h1.56a.8.8 0 00.8-.8v-.95c1.868-2.082 1.89-4.289 1.89-4.383 0-1.1-.355-2.006-1.027-2.617-.612-.557-1.456-.851-2.44-.851-.986 0-1.83.294-2.442.85-.672.612-1.027 1.517-1.027 2.618 0 .094.022 2.298 1.886 4.379v.954zm2.487 0c0 .07-.056.127-.127.127h-1.56a.127.127 0 01-.127-.127V8.6h1.814v.746zm-1.417-3.787h1.024l-.288 2.368h-.447l-.289-2.368zM12 1.218c1.75 0 2.795 1.045 2.795 2.794 0 .02-.029 2.037-1.7 3.915h-.194l.325-2.664a.337.337 0 00-.334-.377h-1.784a.337.337 0 00-.334.377l.325 2.664h-.194c-1.67-1.878-1.7-3.895-1.7-3.914 0-1.75 1.045-2.795 2.795-2.795z" fill="#000"/>
</svg>
