<svg width="24" height="24" fill="none" xmlns="http://www.w3.org/2000/svg">
  <defs/>
  <path d="M18.46 17.743l.927 4.263a.955.955 0 11-1.877.345c-.166-1.076-1.218-2.141-3.6-3.512-1.424-.82-1.948-1.838-2.108-2.678-3.006.678-4.77-.219-5.826-2.63-.674.266-1.707-.14-1.915-.694a1.29 1.29 0 01-.257.103c-.833.232-1.74-.413-2.026-1.44a2.25 2.25 0 01-.03-1.117 2.249 2.249 0 01-.55-.971c-.286-1.026.156-2.046.987-2.28a2.218 2.218 0 01-.084-1.252c.195-.911.88-1.559 1.614-1.588a2.21 2.21 0 01.498-1.187c.533-.657 1.328-.936 1.97-.752.222-.368.59-.686 1.06-.875.688-.278 1.413-.203 1.898.138.28-.342.705-.609 1.215-.723.83-.185 1.63.093 2.017.64.373-.336.928-.535 1.536-.5.781.043 1.433.458 1.705 1.017.437-.117.951-.08 1.44.14.62.28 1.048.785 1.185 1.32.328-.035.66.09 1.024.171.385.087.967.787.967.787.328.463.445 1.01.308 1.477.444.106.882.39 1.206.825.412.553.539 1.212.39 1.75.58.368.886 1.187.703 2.04a2.19 2.19 0 01-.676 1.19c.157.46.135 1.023-.105 1.555-.438.973-1.432 1.473-2.22 1.118l-1.547.587.17 2.733z" fill="#F084AD"/>
  <path d="M22.134 8.52c.148-.538.022-1.197-.39-1.75a2.165 2.165 0 00-1.207-.825c.137-.468.02-1.014-.307-1.477 0 0-.582-.7-.968-.787-.363-.08-.696-.206-1.024-.172-.136-.534-.564-1.04-1.184-1.319a2.17 2.17 0 00-1.44-.14c-.273-.56-.924-.974-1.706-1.018-.608-.034-1.163.165-1.536.502-.386-.548-1.187-.826-2.017-.64-.51.113-.935.38-1.214.722-.486-.341-1.21-.416-1.9-.138-.468.189-.836.507-1.06.875-.64-.184-1.435.095-1.969.752-.127.156-.23.322-.309.494.098-.03.196-.05.293-.062a2.004 2.004 0 001.041-.46c.179-.15.388-.277.623-.372a2.227 2.227 0 011.202-.14c.44.075.897.009 1.288-.208.187-.105.397-.185.624-.236a2.176 2.176 0 011.407.139c.423.202.906.225 1.355.09a2.31 2.31 0 01.79-.09c.514.029.972.218 1.302.502.31.267.697.422 1.104.46.245.021.496.086.74.196.369.166.67.412.881.696.27.36.65.623 1.085.735.08.021.16.042.242.06.386.086.968.786.968.786.164.232.275.485.328.738.092.436.35.82.709 1.087.174.13.336.29.477.478.273.366.42.778.446 1.172.023.356.16.692.363.986.294.423.415 1.019.283 1.632-.076.355-.227.67-.426.925a.818.818 0 00-.167.616c.05.37-.004.78-.174 1.173.552-.122 1.08-.558 1.368-1.197.24-.532.263-1.095.105-1.555.322-.282.57-.697.676-1.19.183-.853-.122-1.672-.702-2.04zM2.412 5.117a2.242 2.242 0 00-.208.414c.043-.006.086-.01.13-.011.012-.134.038-.269.078-.403z" fill="#C96F91"/>
  <path d="M18.459 17.743l.928 4.263a.955.955 0 11-1.877.345c-.167-1.076-1.218-2.141-3.6-3.512-2.978-1.714-2.023-4.297-2.023-4.297s.638.074 1.06.72c.423.646 4.668.354 4.668.354l.844 2.127z" fill="#FFDEEB"/>
  <path d="M19.387 22.006l-.928-4.263-.844-2.126s-.405.027-.976.047l.81 2.04.927 4.262a.955.955 0 01-.458 1.032.955.955 0 001.469-.992z" fill="#E6C8D4"/>
  <path d="M15.5 14.208c-.766 0-1.328.723-1.139 1.466l.12.649a1.824 1.824 0 001.768 1.373h2.137c.834 0 1.561-.565 1.767-1.373l.12-.649a1.176 1.176 0 00-1.139-1.466h-3.633z" fill="#ED2772"/>
  <path d="M19.309 14.221c.022.15.016.306-.024.464l-.12.648a1.824 1.824 0 01-1.768 1.374H15.26c-.245 0-.48-.049-.696-.138.278.674.939 1.127 1.685 1.127h2.136c.834 0 1.562-.565 1.768-1.373l.12-.649a1.176 1.176 0 00-.965-1.453z" fill="#C7215F"/>
  <path d="M17.745 6.538a.337.337 0 00.164-.448 1.82 1.82 0 00-2.48-.86 2.616 2.616 0 00-3.314-.99.337.337 0 10.284.612c.915-.426 1.974-.056 2.477.796a1.835 1.835 0 00-.295 1.989.337.337 0 00.611-.284 1.162 1.162 0 012.106-.979.337.337 0 00.447.164zM8.636 7.757a.337.337 0 10.28-.612 2.036 2.036 0 00-2.686.944 2.602 2.602 0 00-1.864.12.337.337 0 00.284.611 1.95 1.95 0 012.587.945.337.337 0 10.61-.284 2.601 2.601 0 00-.998-1.12 1.362 1.362 0 011.787-.604zM14.49 10.557a.337.337 0 10.393.547 1.391 1.391 0 011.942.32.336.336 0 10.547-.393 2.064 2.064 0 00-2.882-.474zM11.666 8.821a1.39 1.39 0 01-1.599 1.148.337.337 0 10-.109.665 2.065 2.065 0 002.373-1.703.337.337 0 00-.665-.11z" fill="#000"/>
  <path d="M22.507 8.377c.162-1.074-.54-2.245-1.585-2.662a2.087 2.087 0 00-.265-1.196.337.337 0 10-.591.322c.183.336.236.704.147 1.008a.337.337 0 00.244.423c.928.223 1.587 1.302 1.35 2.157a.337.337 0 00.145.374c.603.384.809 1.413.345 2.242a3.165 3.165 0 00-.847-1.149.337.337 0 10-.442.509c.436.379.72.84.83 1.405.004.016-.003.033.003.05.42 1.226-.816 2.729-1.869 2.255-.02-.01-.042.003-.063-.002a1.477 1.477 0 00-.775-.242H17.47a.337.337 0 100 .674h1.663c.547 0 .949.515.814 1.046-.005.017-.028.146-.124.658a1.486 1.486 0 01-1.438 1.11h-2.136a1.486 1.486 0 01-1.439-1.11l-.123-.658a.839.839 0 01.813-1.046h.526a.337.337 0 100-.674H15.5c-.985 0-1.704.923-1.469 1.875.091.49.12.643.124.66a2.16 2.16 0 002.094 1.627h1.927l.88 4.044a.618.618 0 11-1.215.223c-.188-1.221-1.314-2.344-3.765-3.754-1.66-.955-2.16-2.333-1.96-3.52.614.281.511.572.83.572.27 0 .436-.308.274-.533-.282-.393-.687-.626-1.12-.75-.032-.031-.052-.073-.097-.09a.335.335 0 00-.26.011 2.038 2.038 0 00-1.405.356.337.337 0 00.393.547c.22-.158.47-.217.723-.233-.042.251-.056.593-.02.977-2.599.507-4.153-.233-5.14-2.465-.08-.338-.158-.888-.083-1.119a.337.337 0 00-.642-.207c-.108.337-.053.819.006 1.158-.636.047-1.11-.295-1.2-.532a.336.336 0 00-.196-.196c-.19-.072-.275.04-.467.093-.96.268-1.913-.992-1.638-2.155.082-.348-.334-.348-.554-1.14-.235-.844.103-1.68.755-1.863a.337.337 0 00.223-.446c-.398-1.037.29-2.346 1.23-2.383a.337.337 0 00.321-.307c.091-1.029 1.158-1.897 2.039-1.645a.337.337 0 00.381-.149c.423-.698 1.396-1.057 2.15-.798-.126.191-.24.442-.258.713-.07.015-.147.025-.21.045a2.371 2.371 0 00-.845.502.337.337 0 10.473.48c.037-.036.916-.88 1.811 0a.337.337 0 00.473-.48c-.349-.343-.699-.504-1.022-.565.047-.23.254-.487.335-.568.005-.005.003-.013.007-.017.847-.916 2.21-.824 2.713-.111a.337.337 0 00.5.055c.783-.705 2.276-.484 2.714.414.07.145.234.22.39.178.901-.242 1.99.356 2.211 1.217.042.162.196.27.362.252.276-.029.57.021.853.145a.337.337 0 10.27-.617 2.432 2.432 0 00-.92-.21c-.411-1.003-1.594-1.651-2.695-1.49-.694-1.014-2.285-1.292-3.364-.597-.862-.816-2.42-.751-3.339.114-.994-.488-2.346-.13-3.048.788-1.133-.155-2.347.761-2.611 2.013-1.16.25-1.945 1.651-1.646 2.946-1.147.61-1.345 2.412-.39 3.548-.258 1.64 1.139 3.188 2.537 2.773.374.466 1.17.784 1.866.671 1.193 2.48 3.122 3.128 5.765 2.618.23.804.805 1.787 2.19 2.584 2.223 1.28 3.283 2.289 3.435 3.272a1.292 1.292 0 102.54-.469l-.867-3.978c.898-.2 1.51-.914 1.635-1.571.065-.582.291-.859.027-1.536 1.367-.115 2.34-1.638 2.027-2.997.914-.974.928-2.66-.031-3.474z" fill="#000"/>
</svg>
