<svg width="24" height="24" fill="none" xmlns="http://www.w3.org/2000/svg">
  <defs/>
  <path d="M22.185 10.179l-.01.01c0-.001 0 0 0 0a.541.541 0 01-.756-.776l.127-.126a.706.706 0 00.162-.747c-.097-.259-.204-.514-.32-.764l-.965.963a.87.87 0 01-1.403-.242 7.232 7.232 0 00-1.45-2.067 7.235 7.235 0 00-2.067-1.45.87.87 0 01-.242-1.404l.963-.963c-.25-.117-.505-.224-.764-.321a.706.706 0 00-.747.162l-.126.127a.541.541 0 01-.775-.756l.198-.199a10.93 10.93 0 00-2.285-.24C5.712 1.386.837 6.261.837 12.274c0 6.014 4.875 10.889 10.888 10.889 6.014 0 10.889-4.875 10.889-10.889 0-.783-.083-1.547-.24-2.284l-.19.189z" fill="#DAE4EA"/>
  <path d="M22.373 9.99l-.198.198a.541.541 0 01-.756-.775l.126-.126a.706.706 0 00.163-.746c-.097-.26-.204-.515-.32-.765l-.908.906c.22.862.337 1.764.337 2.694 0 6.014-4.875 10.889-10.889 10.889-1.39 0-2.72-.262-3.943-.737a10.837 10.837 0 005.74 1.635c6.014 0 10.888-4.875 10.888-10.888 0-.784-.082-1.548-.24-2.285z" fill="#C6D0DA"/>
  <path d="M11.725 17.825a5.55 5.55 0 100-11.1 5.55 5.55 0 000 11.1z" fill="#808B95"/>
  <g fill="#5E6B75">
    <path d="M13.266 6.94a5.55 5.55 0 01-4.878 9.769 5.55 5.55 0 104.878-9.769z"/>
    <path d="M11.726 13.64a1.366 1.366 0 100-2.732 1.366 1.366 0 000 2.733zM11.726 9.494a.679.679 0 100-1.357.679.679 0 000 1.357zM14.72 11.223a.679.679 0 100-1.357.679.679 0 000 1.357zM14.706 14.69a.679.679 0 100-1.357.679.679 0 000 1.357zM8.73 11.223a.679.679 0 100-1.357.679.679 0 000 1.357zM8.745 14.69a.679.679 0 100-1.357.679.679 0 000 1.357zM11.726 16.411a.679.679 0 100-1.357.679.679 0 000 1.357z"/>
  </g>
  <path d="M20.26 3.74c.888.89 1.621 1.893 2.185 2.978L20.423 8.74a.87.87 0 01-1.404-.243 7.232 7.232 0 00-1.45-2.067 7.233 7.233 0 00-2.066-1.45.87.87 0 01-.243-1.403l2.022-2.022a12.1 12.1 0 012.977 2.186z" fill="#707DD3"/>
  <path d="M20.26 3.74a12.1 12.1 0 00-2.977-2.185l-.142.142a12.23 12.23 0 012.867 3.034 1.533 1.533 0 01-.2 1.928l-1.153 1.154c.134.221.256.45.365.684a.87.87 0 001.404.242l2.022-2.021A12.101 12.101 0 0020.26 3.74z" fill="#5766CB"/>
  <path d="M13.82 1.815l-.009.01a.541.541 0 00.775.756l.127-.127a.706.706 0 01.746-.162c.26.097.514.204.765.32l1.058-1.057a11.908 11.908 0 00-1.457-.638 1.358 1.358 0 00-1.42.315l-.584.583z" fill="#707DD3"/>
  <path d="M13.82 1.815l-.009.01a.541.541 0 00.775.756l.127-.127a.706.706 0 01.746-.162c.26.097.514.204.765.32l1.058-1.057a11.908 11.908 0 00-1.457-.638 1.358 1.358 0 00-1.42.315l-.584.583zM21.708 8.54a.706.706 0 01-.162.747l-.127.126a.541.541 0 00.756.775l.593-.593c.372-.372.494-.925.315-1.42-.18-.5-.392-.986-.637-1.457l-1.058 1.058c.117.25.223.505.32.764zM18.894 5.773a.667.667 0 100-1.334.667.667 0 000 1.334z" fill="#5E6B75"/>
  <path d="M5.838 12.275a5.894 5.894 0 005.887 5.887c1.282 0 2.5-.405 3.523-1.17a5.938 5.938 0 002.1-2.967.337.337 0 00-.643-.2 5.258 5.258 0 01-1.86 2.627 5.17 5.17 0 01-3.12 1.036 5.22 5.22 0 01-5.213-5.213 5.22 5.22 0 015.213-5.214 5.22 5.22 0 015.214 5.214.337.337 0 10.674 0 5.894 5.894 0 00-5.888-5.888 5.894 5.894 0 00-5.887 5.888z" fill="#000"/>
  <path d="M13.43 12.275c0-.94-.765-1.704-1.704-1.704-.94 0-1.704.764-1.704 1.704 0 .939.765 1.703 1.704 1.703s1.703-.764 1.703-1.703zm-1.704 1.03a1.03 1.03 0 010-2.06 1.03 1.03 0 010 2.06zM15.81 7.048a.337.337 0 100-.674.337.337 0 000 .674zM16.51 4.422a.337.337 0 100-.674.337.337 0 000 .674zM19.915 7.826a.337.337 0 100-.674.337.337 0 000 .674zM18.045 9.836a.337.337 0 100-.674.337.337 0 000 .674zM18.691 19.127a.337.337 0 100-.674.337.337 0 000 .674zM17.99 17.912a.337.337 0 100-.674.337.337 0 000 .674zM17.29 16.697a.337.337 0 100-.674.337.337 0 000 .674zM14.501 21.737a.337.337 0 100-.674.337.337 0 000 .674zM14.501 20.334a.337.337 0 100-.674.337.337 0 000 .674zM14.501 18.931a.337.337 0 100-.674.337.337 0 000 .674zM5.21 19.578a.337.337 0 100-.674.337.337 0 000 .674zM6.425 18.876a.337.337 0 100-.673.337.337 0 000 .673zM7.64 18.175a.337.337 0 100-.674.337.337 0 000 .674zM2.6 15.387a.337.337 0 100-.674.337.337 0 000 .674zM4.003 15.387a.337.337 0 100-.674.337.337 0 000 .674zM5.405 15.387a.337.337 0 100-.674.337.337 0 000 .674zM4.759 6.096a.337.337 0 100-.674.337.337 0 000 .674zM5.46 7.311a.337.337 0 100-.674.337.337 0 000 .674zM6.162 8.526a.337.337 0 100-.674.337.337 0 000 .674zM8.95 3.486a.337.337 0 100-.674.337.337 0 000 .674zM8.95 4.889a.337.337 0 100-.674.337.337 0 000 .674zM8.95 6.292a.337.337 0 100-.674.337.337 0 000 .674zM2.143 9.947a.337.337 0 00.123.46l2.43 1.403a.336.336 0 00.46-.123.337.337 0 00-.123-.46l-2.43-1.403a.337.337 0 00-.46.123zM10.678 18.967l-1.403 2.43a.337.337 0 10.583.337l1.403-2.43a.337.337 0 00-.583-.337zM21.016 14.77a.337.337 0 00.168-.628l-2.43-1.403a.337.337 0 10-.337.584l2.43 1.402c.054.031.111.046.169.046zM11.723 9.831a1.017 1.017 0 10.003-2.033 1.017 1.017 0 00-.003 2.033zm-.294-1.186a.34.34 0 01.467-.125.342.342 0 11-.467.125zM14.72 9.53a1.017 1.017 0 000 2.03 1.017 1.017 0 000-2.03zm0 1.357a.342.342 0 11.001-.684.342.342 0 010 .684zM14.706 12.997a1.017 1.017 0 000 2.03 1.017 1.017 0 000-2.03zm0 1.357a.342.342 0 110-.684.342.342 0 010 .684zM9.746 10.545a1.017 1.017 0 00-2.031 0 1.017 1.017 0 002.03 0zm-1.357 0a.342.342 0 11.684.001.342.342 0 01-.684 0zM8.745 15.028a1.017 1.017 0 000-2.031 1.017 1.017 0 000 2.03zm0-1.357a.342.342 0 110 .684.342.342 0 010-.684zM10.71 15.733a1.017 1.017 0 002.031 0 1.017 1.017 0 00-2.031 0zm1.357 0a.342.342 0 11-.684 0 .342.342 0 01.684 0z" fill="#000"/>
  <path d="M23.4 8.06a12.28 12.28 0 00-.656-1.498l-.006-.011c-.604-1.108-1.337-2.145-2.24-3.049a12.64 12.64 0 00-1.175-1.037.337.337 0 00-.414.532c.388.301.762.632 1.112.982.8.799 1.474 1.698 2.01 2.677L20.185 8.5a.531.531 0 01-.474.15.52.52 0 01-.386-.296 7.56 7.56 0 00-1.517-2.163 7.56 7.56 0 00-2.163-1.517.532.532 0 01-.147-.86l1.846-1.846c.078.043.155.086.231.13a.337.337 0 00.337-.583c-.152-.088-.31-.17-.464-.255l-.01-.005C16.955 1.005 16.45.784 15.94.6a1.702 1.702 0 00-1.774.394l-.266.266c-.712-.14-1.443-.21-2.175-.21a11.152 11.152 0 00-7.937 3.287A11.152 11.152 0 00.5 12.275c0 .362.017.728.052 1.086a.337.337 0 00.67-.064 10.731 10.731 0 01-.048-1.022c0-2.819 1.097-5.469 3.09-7.461a10.483 10.483 0 017.461-3.09c.561 0 1.121.043 1.671.13a.885.885 0 00.192.97L12.19 5.245a.337.337 0 00.584.337l1.402-2.43a.333.333 0 00.033-.076.873.873 0 00.616-.257l.127-.126a.37.37 0 01.39-.085c.098.037.197.075.295.115l-.615.615c-.28.28-.405.679-.336 1.068a1.2 1.2 0 00.675.88c.73.34 1.393.804 1.97 1.382a6.887 6.887 0 011.383 1.97 1.2 1.2 0 00.88.676c.39.069.789-.057 1.068-.336l.615-.615c.04.098.078.197.115.295a.37.37 0 01-.085.39l-.126.127a.891.891 0 00-.083.095.336.336 0 00-.584.23.337.337 0 00.41.328c.008.223.098.43.257.59.255.254.64.321.964.186.088.55.132 1.11.132 1.67 0 2.819-1.098 5.469-3.09 7.462a10.482 10.482 0 01-7.462 3.09c-2.402 0-4.666-.787-6.545-2.275a10.605 10.605 0 01-3.694-5.719.337.337 0 00-.654.163 11.282 11.282 0 003.93 6.084c2 1.584 4.407 2.421 6.963 2.421 2.999 0 5.818-1.168 7.938-3.288a11.152 11.152 0 003.288-7.937c0-.732-.071-1.463-.21-2.175l.265-.266A1.702 1.702 0 0023.4 8.06zm-7.822-6.084a1.046 1.046 0 00-1.103.24l-.127.127a.205.205 0 01-.29-.288l.585-.585c.277-.277.697-.37 1.068-.236.339.122.674.26 1.001.414l-.561.561a10.901 10.901 0 00-.573-.233zm6.952 7.381l-.587.587a.205.205 0 01-.285-.293l.126-.126c.288-.288.382-.721.24-1.103-.072-.192-.15-.384-.233-.573l.56-.561c.154.327.293.662.415 1 .134.372.041.792-.236 1.07z" fill="#000"/>
  <path d="M18.894 4.102a1.005 1.005 0 000 2.008 1.005 1.005 0 000-2.008zm0 1.334a.33.33 0 110-.661.33.33 0 010 .661z" fill="#000"/>
</svg>
