<svg width="24" height="24" fill="none" xmlns="http://www.w3.org/2000/svg">
  <defs/>
  <path d="M23.128 15.058c-2.224 0-2.224-1.255-4.45-1.255-2.224 0-2.224 1.255-4.449 1.255-2.224 0-2.224-1.255-4.449-1.255-2.224 0-2.224 1.255-4.449 1.255-2.225 0-2.225-1.255-4.45-1.255v3.313c2.225 0 2.225 1.255 4.45 1.255s2.225-1.255 4.45-1.255c2.224 0 2.224 1.255 4.448 1.255 2.225 0 2.225-1.255 4.45-1.255s2.225 1.255 4.45 1.255" fill="#4EBFED"/>
  <path d="M23.128 8.51v8.205c-.572 0-.997-.083-1.351-.207V12.82a2.706 2.706 0 00-5.413 0v3.318c-.443.248-.905.486-1.666.556V12.82a2.706 2.706 0 00-5.413 0v2.663c-.854.083-1.329.38-1.832.662V12.82a2.706 2.706 0 00-5.413 0v2.786a4.172 4.172 0 00-1.158-.146V8.51h22.246z" fill="#FCD577"/>
  <path d="M23.123 18.009c-1.013 0-1.512-.281-2.04-.579-.561-.317-1.198-.676-2.41-.676-1.21 0-1.847.36-2.41.676-.527.298-1.025.58-2.039.58-1.013 0-1.512-.282-2.04-.58-.561-.317-1.198-.676-2.41-.676-1.21 0-1.847.36-2.409.676-.527.298-1.026.58-2.04.58-1.013 0-1.511-.282-2.039-.58-.562-.317-1.198-.676-2.41-.676a.377.377 0 100 .754c1.014 0 1.512.28 2.04.578.562.317 1.199.676 2.41.676 1.21 0 1.848-.359 2.41-.676.527-.297 1.026-.578 2.039-.578 1.013 0 1.512.28 2.04.578.561.317 1.198.676 2.41.676 1.21 0 1.847-.359 2.409-.676.528-.297 1.026-.578 2.04-.578 1.013 0 1.512.28 2.04.578.561.317 1.198.676 2.41.676a.377.377 0 000-.753z" fill="#000"/>
  <path d="M23.123 16.352c-.391 0-.705-.041-.974-.11v-3.407c0-1.7-1.384-3.083-3.084-3.083a3.06 3.06 0 00-2.18.903.377.377 0 10.533.533 2.312 2.312 0 011.647-.683 2.333 2.333 0 012.33 2.33v1.454a11.699 11.699 0 01-.312-.172c-.562-.317-1.198-.676-2.41-.676-.89 0-1.47.195-1.937.423v-1.03c0-.258.042-.511.124-.753a.377.377 0 00-.712-.244c-.11.32-.165.656-.165.998v3.094a3.35 3.35 0 01-.913.343v-3.437c0-1.7-1.383-3.083-3.083-3.083-.823 0-1.598.32-2.18.903a3.063 3.063 0 00-.903 2.18v2.335a3.93 3.93 0 00-1.08.357v-2.692c0-1.7-1.383-3.083-3.082-3.083-.824 0-1.598.32-2.18.903a3.063 3.063 0 00-.904 2.18v2.32a5.079 5.079 0 00-.781-.057.377.377 0 100 .753c1.013 0 1.511.281 2.04.579.288.163.586.33.967.46a.377.377 0 00.242-.714c-.314-.106-.57-.25-.84-.402-.259-.146-.534-.302-.874-.426v-.841c.174.08.337.172.505.267.561.317 1.198.676 2.409.676.768 0 1.299-.14 1.745-.334v.82c-.436.23-.92.416-1.745.416a.377.377 0 100 .754c1.211 0 1.848-.36 2.41-.676.527-.298 1.026-.579 2.04-.579.523 0 .953.074 1.35.232a.377.377 0 00.279-.7c-.49-.195-1.007-.285-1.63-.285l-.118.001v-.903l.118-.001c1.013 0 1.512.28 2.04.579.561.316 1.198.676 2.41.676l.092-.001v.903h-.093c-.89 0-1.377-.22-1.764-.426a.377.377 0 00-.354.665c.502.267 1.105.515 2.118.515 1.212 0 1.848-.36 2.41-.676.528-.298 1.026-.579 2.04-.579 1.013 0 1.512.281 2.04.579.561.317 1.198.676 2.41.676a.377.377 0 100-.754zM5.326 14.696c-1.013 0-1.512-.28-2.04-.578a5.772 5.772 0 00-.875-.428v-.855c0-.622.243-1.207.683-1.647a2.315 2.315 0 011.648-.683 2.332 2.332 0 012.33 2.33v1.445c-.46.242-.928.416-1.746.416zm8.898 0c-1.013 0-1.512-.28-2.04-.579-.561-.316-1.198-.676-2.41-.676l-.117.002v-.608c0-.622.242-1.207.682-1.647a2.315 2.315 0 011.648-.683 2.332 2.332 0 012.33 2.33v1.86l-.093.001zm4.45.402c-.89 0-1.47.194-1.938.422v-.804c.492-.275.99-.521 1.938-.521 1.013 0 1.511.28 2.039.578.212.12.43.243.682.35v.822a10.993 10.993 0 01-.312-.171c-.561-.317-1.198-.676-2.41-.676zM23.123 8.149h-.577V6.81h.577a.377.377 0 000-.753h-2.268v-.444a.377.377 0 00-.753 0v.444h-7.7v-.444a.377.377 0 10-.754 0v.444h-7.7v-.444a.377.377 0 00-.753 0v.444H.877a.377.377 0 000 .753h.627V8.15H.877a.377.377 0 000 .753h22.246a.377.377 0 000-.753zm-1.33-1.338V8.15h-.938V6.81h.937zM20.101 8.15h-.938V6.81h.938V8.15zm-4.32-1.338h.938V8.15h-.937V6.81zM15.03 8.15h-.938V6.81h.938V8.15zm2.444-1.338h.937V8.15h-.937V6.81zm-4.135 0V8.15h-.937V6.81h.937zm-1.69 1.338h-.938V6.81h.937V8.15zM9.02 6.81h.938V8.15H9.02V6.81zM8.267 8.15H7.33V6.81h.937V8.15zM4.886 6.81v.71a.377.377 0 00.753 0v-.71h.937V8.15H3.948V6.81h.938zm-2.628 0h.937V8.15h-.937V6.81z" fill="#000"/>
</svg>
