<svg width="24" height="24" fill="none" xmlns="http://www.w3.org/2000/svg">
  <defs/>
  <path d="M22.584 11.194v8.74c0 .319-.26.584-.584.584H2.095a.586.586 0 01-.584-.584v-8.74h21.073z" fill="#A0758E"/>
  <g fill="#CA98B3">
    <path d="M5.607 20.347a3.853 3.853 0 00-3.854-3.854c-.054 0-.188 0-.242.005v3.436c0 .319.26.584.584.584H5.61l-.004-.171zM22.507 16.493a3.853 3.853 0 00-3.853 3.853l-.005.171h3.355c.32 0 .584-.26.584-.584v-3.436l-.08-.004z"/>
  </g>
  <path d="M11.44 17.068l-9.925-3.777c.04-.395-.031-5.066 0-5.407h21.073v5.407l-9.872 3.777a1.784 1.784 0 01-1.275 0z" fill="#826075"/>
  <path d="M11.041 15.82v1.307c0 .53.431.871.961.871s.961-.341.961-.871v-1.383l-1.922.076z" fill="#6BE8C7"/>
  <path d="M11.441 16.206l-9.97-3.777a.837.837 0 01-.54-.782V7.632c0-.337.275-.61.611-.61h21.015c.337 0 .611.273.611.61v4.015a.841.841 0 01-.539.782l-9.912 3.777a1.784 1.784 0 01-1.276 0z" fill="#CA98B3"/>
  <path d="M4.133 10.004a1.069 1.069 0 01-1.069-1.07V6.977h2.134v1.959a1.065 1.065 0 01-1.065 1.069zM19.965 10.004a1.069 1.069 0 01-1.069-1.07V6.977h2.134v1.959c0 .588-.476 1.069-1.065 1.069z" fill="#FFEFCA"/>
  <path d="M19.965 10.004a1.069 1.069 0 01-1.069-1.07V6.977h2.134v1.959c0 .588-.476 1.069-1.065 1.069z" fill="#FFEFCA"/>
  <path d="M21.385 13.399v7.119h.624a.59.59 0 00.588-.589l-.004-7.204s-1.186.696-1.208.674z" fill="#826075"/>
  <path d="M1.856 7.021v5.57l-.422-.162a.786.786 0 01-.507-.732V7.664c0-.364.296-.656.655-.647l.274.004z" fill="#D3AEC3"/>
  <path d="M22.534 14.239a.381.381 0 00-.382.382v1.455a4.241 4.241 0 00-3.93 4.01H5.934a4.24 4.24 0 00-4.091-4.02v-1.445a.381.381 0 10-.764 0v5.259c0 .53.431.966.966.966H21.95c.53 0 .966-.432.966-.966v-5.26a.381.381 0 00-.382-.381zM1.843 19.88v-3.054a3.477 3.477 0 013.328 3.256H2.045a.201.201 0 01-.202-.202zm20.107.202h-2.964a3.478 3.478 0 013.166-3.247v3.045c0 .112-.09.202-.202.202z" fill="#000"/>
  <path d="M22.507 6.59H1.488a.988.988 0 00-.988.988v4.59c0 .158.099.301.247.355l9.908 3.755v1.666c0 .211.17.382.382.382h1.926c.212 0 .382-.17.382-.382V16.3l9.908-3.777a.383.383 0 00.247-.355v-4.59a.998.998 0 00-.993-.988zm-1.908.822V8.99a.69.69 0 01-.688.687.69.69 0 01-.687-.687V7.412H20.6zm-15.832 0V8.99a.69.69 0 01-.687.687.69.69 0 01-.688-.687V7.412h1.375zm7.815 10.155h-1.168v-.997l.476.18a.361.361 0 00.27 0l.417-.158v.975h.005zm10.15-5.66l-10.707 4.084-10.761-4.083v-4.33a.23.23 0 01.229-.229h1.145v1.64c0 .799.651 1.446 1.446 1.446.795 0 1.446-.651 1.446-1.446V7.354h12.935v1.635c0 .799.651 1.446 1.446 1.446.795 0 1.447-.651 1.447-1.446V7.354h1.15a.23.23 0 01.229.229l-.005 4.325zM8.854 5.854c.21 0 .382-.171.382-.382v-1.33a.23.23 0 01.229-.229h5.066a.23.23 0 01.229.23v1.329a.381.381 0 10.763 0v-1.33a.988.988 0 00-.988-.988h-5.07a.988.988 0 00-.988.988v1.33c0 .21.17.382.377.382z" fill="#000"/>
</svg>
