<svg width="24" height="24" fill="none" xmlns="http://www.w3.org/2000/svg">
  <defs/>
  <path d="M22.174 9.065a1.668 1.668 0 01-2.082-.492l-3.55 1.78.313-.934-1.016-.334.21-.628.13-.386-.935-.308 3.55-1.78a1.667 1.667 0 113.19.021 1.667 1.667 0 01.19 3.061z" fill="#EEEBEE"/>
  <path d="M19.57 6.691l-3.52 1.766.129-.386-.935-.308 3.55-1.78a1.667 1.667 0 113.19.021l-.01.033a1.663 1.663 0 01-.835.965s.433-1.804-.606-1.924c-1.04-.119-1.189 1.162-.962 1.613z" fill="#D3CED5"/>
  <path d="M9.056 12.33a1.667 1.667 0 01-1.203-2.822 1.66 1.66 0 01-.465-1.154 1.667 1.667 0 013.31-.294h3.504l.698.694-.289.287-.47.467.759.754-.698.695h-3.505c-.14.78-.82 1.373-1.641 1.373z" fill="#EEEBEE"/>
  <path d="M7.805 9.456a1.667 1.667 0 112.892-1.396h3.505l.698.694-.289.287h-4.547s-.303-1.213-1.212-1.213c-.91 0-.555 1.35-.555 1.35l-.492.278z" fill="#D3CED5"/>
  <path d="M22.616 14.614l-5.864 4.703c-.482.386-1.1.563-1.713.488l-7.903-.962-2.106.779c-1.13-1.163-.666-4.906-.666-4.906l.502-.138a1.902 1.902 0 011.062-1.831l3.39-1.655 1.742-.851a1.656 1.656 0 011.578 2.909L9.82 14.837l4.74.825c.571.1 1.158-.02 1.644-.336l4.715-3.06a1.45 1.45 0 011.697 2.347z" fill="#F1D0A5"/>
  <path d="M15.025 18.541c-3.246.422-5.484-1.482-6.838-3.273a1.909 1.909 0 01.492-2.759c3.27-2.095 4.115-2.018 4.563-1.57a1.657 1.657 0 00-2.182-.698l-1.743.85-2.747 1.342-.642.314a1.9 1.9 0 00-1.062 1.831l-.502.138s-.465 3.743.666 4.906l2.106-.78 7.902.963a2.295 2.295 0 001.714-.488l5.863-4.703c-2.026-.55-5.403 3.593-7.59 3.927z" fill="#F1B986"/>
  <path d="M3.663 14.245a6.832 6.832 0 00-2.822.997 55.32 55.32 0 002.01 5.688 6.832 6.832 0 002.822-.997 55.35 55.35 0 00-2.01-5.688z" fill="#80A6C6"/>
  <path d="M5.673 19.933a6.82 6.82 0 01-2.822.998 55.858 55.858 0 01-.582-1.46 7.263 7.263 0 002.944-1.03c.16.495.314.992.46 1.492z" fill="#5B8EB8"/>
  <path d="M15.137 8.087l.61.2-.231.69a.34.34 0 00.217.432l.69.227-.204.609a.341.341 0 00.476.413l1.306-.655a.34.34 0 00-.306-.61l-.567.285.05-.15a.34.34 0 00-.217-.433l-.69-.226.231-.69a.34.34 0 00-.216-.432l-.151-.05 2.811-1.409a.34.34 0 00.174-.402 1.323 1.323 0 011.69-1.633c.336.112.609.348.768.664.154.307.183.658.08.986l-.007.027a1.318 1.318 0 01-.664.767.34.34 0 00.305.61c.373-.187.672-.48.866-.84a1.328 1.328 0 01-.137 2.293 1.324 1.324 0 01-1.656-.39.34.34 0 00-.426-.101l-1.025.513a.341.341 0 00.306.61l.788-.395a2.006 2.006 0 002.319.373 2.01 2.01 0 00.051-3.564 1.996 1.996 0 00-.191-1.194 1.995 1.995 0 00-1.162-1.006 1.995 1.995 0 00-1.533.11 2.005 2.005 0 00-1.088 2.081l-3.313 1.661a.34.34 0 00.046.629z" fill="#000"/>
  <path d="M23.436 13.007a1.791 1.791 0 00-.312-.621 1.801 1.801 0 00-2.39-.405l-4.715 3.06c-.415.27-.912.37-1.4.286l-3.837-.668 2.03-1.217a1.992 1.992 0 00.925-2.144h.465a.34.34 0 00.24-.1l.699-.694a.34.34 0 000-.483l-.516-.513.516-.513a.341.341 0 000-.483l-.698-.694a.34.34 0 00-.24-.1h-3.241a2.005 2.005 0 00-1.906-1.372 2.01 2.01 0 00-1.643 3.162 1.997 1.997 0 00-.365 1.154 2 2 0 00.28 1.022l-1.548.756a2.24 2.24 0 00-1.255 1.879l-.416.115a51.24 51.24 0 00-.131-.32.34.34 0 00-.357-.208 7.2 7.2 0 00-2.96 1.046.34.34 0 00-.147.386 55.93 55.93 0 002.022 5.723.341.341 0 00.356.208 7.2 7.2 0 002.961-1.046.34.34 0 00.147-.386l-.056-.19 1.233-.456.861.105a.341.341 0 00.083-.677l-.944-.115a.341.341 0 00-.16.019l-1.272.47a56.05 56.05 0 00-1.38-3.922l.592-.164a.34.34 0 00.249-.351 1.56 1.56 0 01.872-1.503l5.131-2.506a1.309 1.309 0 011.733.554 1.312 1.312 0 01-.48 1.756l-2.817 1.688a.34.34 0 00.117.629l4.74.825a2.63 2.63 0 001.888-.386l4.715-3.06a1.115 1.115 0 011.674.635 1.11 1.11 0 01-.377 1.16l-5.863 4.703c-.408.327-.94.479-1.46.415l-5.605-.682a.341.341 0 00-.082.677l5.605.682a2.65 2.65 0 001.969-.56l5.852-4.695a1.792 1.792 0 00.618-1.88zm-20.37 7.549a55.271 55.271 0 01-1.823-5.157 6.508 6.508 0 012.206-.78 55.297 55.297 0 011.822 5.157 6.505 6.505 0 01-2.206.78zM11.26 9.802a1.99 1.99 0 00-.351.132l-2.967 1.45a1.32 1.32 0 01.156-1.64 1.318 1.318 0 01.957-.408.34.34 0 100-.682c-.417 0-.815.127-1.15.362a1.328 1.328 0 011.15-1.988c.644 0 1.193.459 1.306 1.092a.34.34 0 00.335.28h3.365l.355.354-.516.513a.341.341 0 000 .483l.516.512-.355.354h-.617a1.987 1.987 0 00-2.184-.814z" fill="#000"/>
  <path d="M11.397 13.06c.139 0 .279-.034.41-.103l.422-.226a.341.341 0 00-.32-.601l-.423.225a.184.184 0 01-.238-.057c-.283-.423-.372-.854-.373-.862a.34.34 0 00-.67.13c.005.022.112.567.477 1.111a.859.859 0 00.715.383zM3.816 19.65a.344.344 0 00.332-.266c.07-.3-.282-.528-.53-.353a.344.344 0 00-.12.4c.05.13.178.218.318.218zM13.505 5.286a.341.341 0 00.65-.206l-.674-2.114a.341.341 0 00-.65.207l.674 2.113zM12.008 5.91a.34.34 0 00.481.026.341.341 0 00.026-.482l-1.07-1.188a.34.34 0 10-.506.456l1.069 1.188zM15.358 5.022a.34.34 0 00.378-.3l.185-1.587a.34.34 0 10-.677-.078l-.185 1.587a.34.34 0 00.3.378z" fill="#000"/>
</svg>
