<svg width="24" height="24" fill="none" xmlns="http://www.w3.org/2000/svg">
  <defs/>
  <g fill-rule="evenodd" clip-rule="evenodd">
    <path d="M12 21.207H1.81c-.568 0-.906-.315-.924-.72v1.974c0 .385.315.7.699.7h20.83c.384 0 .7-.315.7-.7v-1.928c-.04.382-.375.674-.921.674H12z" fill="#8A541E"/>
    <path d="M1.737 18.947l-.651.93a1.038 1.038 0 00-.201.543v.068c.018.404.356.72.924.72h20.384c.546 0 .88-.293.92-.675.022-.204-.04-.433-.198-.657l-.651-.93c-.295-.42-.655-.931-1.16-.97-.02-.002-.323-.003-.344-.003-.59.51-1.806.676-3.17.676H6.249c-1.363 0-2.581-.166-3.17-.676l-.193.003c-.498.045-.856.552-1.15.97z" fill="#B5722F"/>
    <path d="M2.984 16.225c-.431.815-.337 1.374.096 1.748.588.51 1.806.676 3.169.676h.364l1.363-1.282-1.62-1.267c-1.237-.967-2.517-.362-3.372.125zM17.484 16.1l-1.01 1.27.753 1.28h.363c1.364 0 2.58-.167 3.17-.677.431-.374.527-.933.096-1.748-.857-.487-1.848-.497-3.372-.125z" fill="#FFDDA6"/>
    <path d="M7.304 11.253c-1.597.085-2.2.968-2.97 2.42l-1.35 2.552c.855-.487 1.846-.497 3.372-.125h11.128c1.524-.372 2.515-.362 3.371.125l-1.351-2.552c-.769-1.452-1.371-2.334-2.969-2.42-.36-.018-.665-.063-.94-.16l-7.369.005c-.27.094-.569.137-.922.155z" fill="#64B0D9"/>
    <path d="M15.816 5.547c-1.076.81-.71 1.475-.065 1.846.511.007 1.082-.519 1.082-1.035v-.403a.41.41 0 00-.408-.408h-.61zM6.729 6.358c0 .516.57 1.042 1.08 1.035l.818-1.008-.882-.838h-.609a.409.409 0 00-.407.408v.403z" fill="#EDA93B"/>
    <path d="M17.353 17.4l-.126 1.25h.363c1.364 0 2.58-.167 3.17-.677.37-.322.493-.779.247-1.418a1.26 1.26 0 01-.162.168c-.59.511-1.806.676-3.17.676h-.322zM2.824 16.574c-.237.63-.113 1.081.255 1.4.588.51 1.806.675 3.17.675h.364l-.129-1.274H6.12c-1.364 0-2.581-.166-3.17-.676a1.316 1.316 0 01-.126-.125z" fill="#FCC368"/>
    <path d="M14.834 11.889c.247.074.52.11.836.127 1.597.085 2.2.967 2.97 2.42l.742 1.403c.563.013 1.036.136 1.474.386l-1.352-2.552c-.768-1.452-1.37-2.334-2.968-2.42-.36-.018-.666-.063-.94-.16a2.511 2.511 0 01-.762.796z" fill="#4A83C9"/>
    <path d="M8.305 11.21c1.38 2.088 6.121 1.903 7.29-.117-.361-.129-.672-.348-.996-.722-.114-.13-.429-.44-.447-.462l-2.058-1.306-2.532 1.433c-.104.106-.251.254-.322.335-.33.38-.646.601-1.014.727.022.039.055.075.08.112z" fill="#FCC368"/>
    <path d="M7.81 7.393c.201.938.868 1.943 1.752 2.643a4.656 4.656 0 001.213.695c.734.272 1.285.27 2.016-.002.49-.183.952-.469 1.362-.82.808-.692 1.41-1.633 1.599-2.516.042-.193.064-.384.064-.568V4.633l-3.721-1.005-4.349 1.005v2.192c0 .184.022.375.063.568z" fill="#FFDDA6"/>
    <path d="M14.69 5.006v2.193c0 .184-.022.374-.063.567-.19.883-.792 1.825-1.6 2.516a4.9 4.9 0 01-.932.63c.22-.029.448-.09.696-.183.13-.048.259-.104.384-.166.347-.173.678-.397.978-.654.808-.692 1.41-1.633 1.599-2.516a2.65 2.65 0 00.064-.568V4.633c-.41.155-.784.278-1.126.373z" fill="#FCC368"/>
    <path d="M7.746 4.633c3.524-.95 3.238 1.837 8.07 0 2.233-1.625.044-4.77-2.347-3.499-1.18.629-2.654-.287-3.89.257-1.211.533-1.833 1.67-1.833 3.242z" fill="gray"/>
    <path d="M13.284 1.22c1.958-.168 3.34 2.379 1.406 3.786.342-.095.716-.218 1.126-.373 2.234-1.625.044-4.77-2.346-3.499a1.97 1.97 0 01-.186.085z" fill="#666"/>
    <path d="M13.866 11.28c.278.287.552.465.864.575.034.012.068.024.104.034.32-.222.583-.487.762-.796l-.02-.008c-.352-.129-.659-.346-.978-.713-.113-.131-.427-.44-.445-.463-.41.351-.873.637-1.362.82-.731.273-1.282.274-2.016.002a4.65 4.65 0 01-1.213-.695c-.104.106-.25.254-.321.335a2.821 2.821 0 01-.115.126c.11.1.225.194.344.284.332.253.695.465 1.074.622.064.026.127.05.191.072.763.273 1.339.272 2.102 0 .218-.078.43-.175.635-.288.074-.041.19-.118.394.093z" fill="#EDA93B"/>
    <path d="M7.167 19.717l-.554-1.068H6.25c-1.363 0-2.58-.166-3.17-.676l-.192.003c-.264.024-.488.178-.685.378l-.012.012a3.003 3.003 0 00-.153.176c.421 1.123 3.995 1.175 5.13 1.175zM16.673 19.717l.554-1.068h.363c1.364 0 2.58-.165 3.17-.676h.017l.327.003c.282.02.518.19.724.41l-.002-.002.006.005.007.007c.015.016-.008.085-.036.146-.422 1.123-3.996 1.175-5.13 1.175z" fill="#8A541E"/>
    <path d="M6.356 16.1l.257 2.55.058.57c.027.271.223.495.495.495h9.508c.272 0 .468-.224.495-.494l.058-.572.257-2.549.195-1.927c.027-.272-.223-.496-.496-.496H6.656c-.272 0-.523.224-.496.496l.196 1.927z" fill="#E6E6E6"/>
    <path d="M10.89 16.696c0 .493.46.894 1.03.894.569 0 1.03-.4 1.03-.894 0-.493-.461-.892-1.03-.892-.57 0-1.03.399-1.03.892z" fill="#FCC368"/>
    <path d="M6.613 18.65l.058.57c.005.051.016.101.032.148.071.2.242.347.462.347h9.508a.491.491 0 00.463-.347.628.628 0 00.033-.147l.058-.572H6.613z" fill="#C2C7CC"/>
  </g>
  <path d="M10.23 7.575a.34.34 0 01-.34-.34v-.38a.34.34 0 11.679 0v.38a.34.34 0 01-.34.34zM13.377 7.575a.34.34 0 01-.339-.34v-.38a.34.34 0 11.679 0v.38a.34.34 0 01-.34.34zM10.55 16.696c0 .68.614 1.233 1.369 1.233.756 0 1.37-.553 1.37-1.233 0-.679-.614-1.232-1.37-1.232-.755 0-1.37.553-1.37 1.232zm1.369-.553c.381 0 .692.248.692.553 0 .306-.31.554-.692.554-.38 0-.69-.248-.69-.554 0-.305.31-.553.69-.553z" fill="#000"/>
  <path d="M23.193 19.681l-.652-.93c-.272-.389-.633-.904-1.163-1.066.18-.45.108-.99-.218-1.61l-.002-.003-.003-.006-1.351-2.552c-.774-1.461-1.46-2.504-3.251-2.6-.719-.038-1.178-.167-1.7-.768a6.863 6.863 0 00-.213-.225c.656-.639 1.158-1.431 1.384-2.22.255-.058.506-.198.717-.406.274-.27.431-.612.431-.937v-.403a.748.748 0 00-.748-.748h-.269v-.409c.496-.404.806-.911.9-1.476a2.352 2.352 0 00-.342-1.63C16.09.697 14.722.083 13.309.835c-.51.272-1.126.196-1.776.116-.69-.085-1.404-.173-2.091.129a3.178 3.178 0 00-1.53 1.376c-.336.599-.506 1.331-.506 2.176v.575h-.27a.748.748 0 00-.747.748v.403c0 .326.157.667.431.937.211.208.462.349.717.407.242.846.802 1.696 1.53 2.356-.032.033-.06.064-.083.09-.288.332-.558.52-.863.627-.246.087-.515.122-.835.139-1.791.095-2.478 1.138-3.252 2.6l-1.35 2.552-.004.007v.002c-.34.644-.405 1.201-.197 1.661-.453.202-.776.66-1.024 1.016l-.652.93a1.388 1.388 0 00-.262.738v2.041A1.04 1.04 0 001.583 23.5h20.831a1.04 1.04 0 001.039-1.039v-1.928-.001c.019-.28-.07-.578-.26-.85zM7.297 6.811c-.143-.14-.229-.31-.229-.453v-.403a.07.07 0 01.069-.069h.269v.939l.002.08a.999.999 0 01-.111-.093zm10.5 9.564c1.283-.288 2.115-.259 2.804.098.218.447.252.801.1 1.053-.215.357-.927.782-3.1.784l.196-1.935zM16.424 5.886a.07.07 0 01.069.069v.403c0 .143-.085.312-.228.453a1.007 1.007 0 01-.112.095l.002-.08v-.94h.27zM9.715 1.701c.516-.226 1.108-.153 1.734-.076.727.09 1.479.182 2.18-.19 1.093-.583 2.066-.089 2.508.617.378.603.473 1.558-.486 2.28-2.548.96-3.535.586-4.58.19-.564-.214-1.14-.433-1.938-.433-.307 0-.646.032-1.03.11.08-.929.45-1.987 1.612-2.498zm-1.57 5.647a2.401 2.401 0 01-.06-.523V4.897c1.283-.295 1.964-.037 2.745.26.58.22 1.2.454 2.096.454.666 0 1.484-.13 2.55-.495v1.71a2.394 2.394 0 01-.062.531c-.277 1.232-1.44 2.568-2.742 3.054-.657.245-1.122.245-1.78.002-1.307-.486-2.474-1.83-2.747-3.065zm1.351 3.246c.024-.028.06-.067.102-.11a4.7 4.7 0 001.059.566c.404.15.764.224 1.123.224.362 0 .723-.076 1.129-.227.427-.16.838-.395 1.216-.682.083.085.172.177.217.228.245.282.488.485.74.631-.587.657-1.727 1.09-3.036 1.127-1.43.042-2.66-.382-3.298-1.12.255-.147.5-.352.748-.637zm-4.862 3.238c.777-1.467 1.295-2.166 2.688-2.24.272-.014.526-.043.766-.101.699.962 2.118 1.542 3.77 1.542.069 0 .138 0 .208-.003 1.627-.047 3.002-.631 3.675-1.542.243.06.5.09.776.104 1.393.075 1.91.774 2.686 2.24l.93 1.754c-.621-.138-1.342-.11-2.264.08l.147-1.46a.756.756 0 00-.198-.587.857.857 0 00-.635-.282H12.78a.34.34 0 000 .68h4.402c.048 0 .1.022.131.058.02.02.029.043.026.064l-.51 5.048c-.008.09-.062.189-.157.189H7.165c-.101 0-.149-.113-.156-.19l-.315-3.103a.34.34 0 00-.003-.038l-.193-1.906c-.003-.021.006-.043.026-.064a.185.185 0 01.131-.059h4.553a.34.34 0 000-.679H6.655a.858.858 0 00-.635.282.756.756 0 00-.198.588l.148 1.458c-.923-.19-1.644-.217-2.264-.08l.928-1.753zm1.603 4.478c-1.762-.002-2.564-.281-2.918-.577a.799.799 0 01-.181-.206c-.153-.253-.118-.607.1-1.054.687-.357 1.52-.386 2.803-.098l.196 1.935zm6.405 3.237h9.55c.215 0 .41-.037.581-.107v1.021a.36.36 0 01-.359.36H1.584a.36.36 0 01-.36-.36V21.44c.172.07.369.108.585.108l9.266-.005a.34.34 0 100-.68l-9.266.006c-.267 0-.466-.089-.546-.244a.362.362 0 01-.039-.143v-.057a.71.71 0 01.14-.353l.65-.93c.248-.352.555-.79.895-.826l.053-.001c.614.453 1.698.675 3.287.675h.057l.027.265c.046.464.396.8.832.8h9.508c.436 0 .787-.336.833-.8l.027-.265h.056c1.59 0 2.674-.222 3.288-.676l.207.002c.345.032.653.472.901.826l.652.93c.142.202.178.404.1.554-.08.154-.278.243-.544.243h-9.55a.34.34 0 100 .679z" fill="#000"/>
</svg>
