<svg width="24" height="24" fill="none" xmlns="http://www.w3.org/2000/svg">
  <defs/>
  <path d="M20.459 6.327a.944.944 0 00-.495.089.632.632 0 01-.699-.118 1.103 1.103 0 00-.796-.291 1.106 1.106 0 00.047 2.212h1.855a.948.948 0 00.088-1.892z" fill="#FF9C43"/>
  <g fill="#CC966A">
    <path d="M4.141 22.223h-.278a.562.562 0 01-.562-.563v-5.974h1.403v5.974c0 .31-.252.563-.563.563zM20.158 22.229h-.278a.562.562 0 01-.563-.562v-5.975h1.403v5.975c0 .31-.252.562-.562.562z"/>
  </g>
  <path d="M21.538 19.483H2.461a.903.903 0 01-.902-.903v-6.557c0-.498.404-.902.902-.902H21.54c.498 0 .902.404.902.902v6.557a.903.903 0 01-.902.903z" fill="#345863"/>
  <path d="M21.538 11.12H20.12v7.46a.903.903 0 01-.902.903h2.32a.903.903 0 00.903-.903v-6.557a.903.903 0 00-.903-.902z" fill="#1E4751"/>
  <path d="M2.719 15.017c-.641 0-1.16-.52-1.16-1.16v-1.582h2.32v1.581c0 .641-.52 1.16-1.16 1.16z" fill="#E02B3D"/>
  <path d="M5.04 15.017c-.642 0-1.161-.52-1.161-1.16v-1.582h2.32v1.581c0 .641-.52 1.16-1.16 1.16z" fill="#F43B45"/>
  <path d="M7.36 15.017c-.641 0-1.16-.52-1.16-1.16v-1.582h2.32v1.581c0 .641-.52 1.16-1.16 1.16z" fill="#E02B3D"/>
  <path d="M9.68 15.017c-.641 0-1.16-.52-1.16-1.16v-1.582h2.32v1.581c0 .641-.52 1.16-1.16 1.16z" fill="#F43B45"/>
  <path d="M12 15.017c-.64 0-1.16-.52-1.16-1.16v-1.582h2.32v1.581c0 .641-.52 1.16-1.16 1.16z" fill="#E02B3D"/>
  <path d="M14.32 15.017c-.64 0-1.16-.52-1.16-1.16v-1.582h2.32v1.581c0 .641-.519 1.16-1.16 1.16z" fill="#F43B45"/>
  <path d="M16.64 15.017c-.64 0-1.16-.52-1.16-1.16v-1.582h2.32v1.581c0 .641-.519 1.16-1.16 1.16z" fill="#E02B3D"/>
  <path d="M18.96 15.017c-.64 0-1.16-.52-1.16-1.16v-1.582h2.321v1.581c0 .641-.52 1.16-1.16 1.16z" fill="#F43B45"/>
  <path d="M21.281 15.017c-.64 0-1.16-.52-1.16-1.16v-1.582h2.32v1.581c0 .641-.519 1.16-1.16 1.16z" fill="#E02B3D"/>
  <g>
    <path d="M6.085 3.536c-2.35 0-4.256 1.988-4.256 4.44h8.513c0-2.452-1.906-4.44-4.257-4.44z" fill="#EDEDED"/>
    <path d="M6.085 3.536c-.4 0-.788.058-1.156.166 1.788.526 3.1 2.24 3.1 4.275h2.313c0-2.453-1.906-4.44-4.257-4.44z" fill="#D6D6D6"/>
    <path d="M9.367 9.693H2.803a.53.53 0 01-.513-.397l-.235-.91h8.06l-.235.91a.53.53 0 01-.513.397z" fill="#EDEDED"/>
    <path d="M10.363 8.486H1.808a.51.51 0 010-1.02h8.555a.51.51 0 010 1.02z" fill="#D6D6D6"/>
  </g>
  <g>
    <path d="M20.572 9.693h-6.564a.53.53 0 01-.513-.397l-.235-.91h8.06l-.235.91a.53.53 0 01-.513.397z" fill="#EDEDED"/>
    <path d="M21.567 8.487h-8.555a.51.51 0 010-1.02h8.555a.51.51 0 010 1.02z" fill="#D6D6D6"/>
  </g>
  <path d="M20.797 4.502a.151.151 0 00.078-.215c-1.055-1.875-3.285-2.765-5.272-2.004-2.04.783-3.107 3.032-2.541 5.184l7.736-2.965z" fill="#EDEDED"/>
  <path d="M20.875 4.287c-1.055-1.875-3.285-2.765-5.272-2.003-.43.165-.817.396-1.155.677 1.725-.208 3.459.7 4.331 2.315l2.019-.774a.151.151 0 00.077-.215z" fill="#D6D6D6"/>
  <path d="M22.586 12.275H1.414a.577.577 0 010-1.154h21.172a.577.577 0 010 1.154z" fill="#F43B45"/>
  <g fill="#000">
    <path d="M23.5 11.698a.915.915 0 00-.914-.914H20.77a1.68 1.68 0 01-.364-.754h.167c.395 0 .74-.267.839-.649l.144-.558h.013a.848.848 0 00.082-1.689l-.001-.008a1.285 1.285 0 00-1.83-1.014.298.298 0 01-.324-.062 1.432 1.432 0 00-.822-.373l2.245-.86a.488.488 0 00.25-.696 4.832 4.832 0 00-2.458-2.139 4.499 4.499 0 00-2.908-.122l-.08-.21a.337.337 0 00-.63.242l.08.21c-1.88.888-2.913 2.986-2.514 5.106a.848.848 0 00.354 1.616h.013l.144.557c.099.382.444.65.839.65h.41a1.683 1.683 0 01-.364.753H9.375a1.681 1.681 0 01-.363-.754h.356c.395 0 .74-.267.839-.649l.144-.557h.013a.848.848 0 00.25-1.656c-.355-2.166-2.089-3.797-4.191-3.956v-.225a.337.337 0 10-.674 0v.225c-2.102.159-3.836 1.79-4.19 3.956a.848.848 0 00.25 1.656h.012l.144.557c.099.382.444.65.839.65h.22a1.681 1.681 0 01-.364.753H1.414a.915.915 0 00-.192 1.808v1.264c0 .826.672 1.498 1.498 1.498.467 0 .885-.216 1.16-.552a1.495 1.495 0 002.32 0 1.495 1.495 0 002.32 0 1.495 1.495 0 002.32 0 1.495 1.495 0 002.32 0 1.495 1.495 0 002.321 0 1.495 1.495 0 002.32 0 1.495 1.495 0 002.32 0 1.495 1.495 0 002.658-.946v-1.265a.915.915 0 00.721-.893zM20.11 6.72a.606.606 0 01.32-.057.618.618 0 01.537.467h-3.219c0-.022 0-.045.002-.067a.776.776 0 01.734-.72.767.767 0 01.554.203.964.964 0 001.072.174zm-3.033.3a1.425 1.425 0 00-.003.11h-2.192l2.57-.985a1.433 1.433 0 00-.375.876zm-1.353-4.422c.433-.166.889-.249 1.348-.249.47 0 .943.088 1.395.262.822.317 1.526.9 2.004 1.656l-7.163 2.745c-.323-1.89.669-3.744 2.416-4.414zm-2.885 5.379c0-.096.078-.173.173-.173h4.45a.355.355 0 00.015 0h4.091a.173.173 0 010 .346H13.013a.173.173 0 01-.174-.173zm.982 1.235l-.1-.389h7.138l-.1.39a.193.193 0 01-.187.144h-6.564a.193.193 0 01-.187-.145zm1.28.818h4.62c.038.264.12.52.24.754h-5.1c.12-.233.202-.49.24-.754zM6.087 3.873c1.87 0 3.46 1.376 3.836 3.257H2.25c.375-1.88 1.965-3.257 3.836-3.257zm-4.45 4.104c0-.096.077-.173.172-.173H10.364a.173.173 0 010 .346H1.809a.173.173 0 01-.174-.173zm.981 1.235l-.1-.389h7.138l-.1.39a.193.193 0 01-.187.144H2.804a.193.193 0 01-.187-.145zm1.091.818h4.62c.038.264.12.52.24.754h-5.1c.12-.233.202-.49.24-.754zm-.989 4.65a.824.824 0 01-.823-.823v-1.245h1.647v1.245c0 .453-.37.823-.824.823zm2.32 0a.824.824 0 01-.822-.823v-1.245h1.646v1.245c0 .453-.37.823-.823.823zm2.321 0a.824.824 0 01-.823-.823v-1.245h1.646v1.245c0 .453-.369.823-.823.823zm2.32 0a.824.824 0 01-.823-.823v-1.245h1.647v1.245c0 .453-.37.823-.824.823zm2.32 0a.824.824 0 01-.823-.823v-1.245h1.647v1.245c0 .453-.37.823-.823.823zm2.32 0a.824.824 0 01-.822-.823v-1.245h1.646v1.245c0 .453-.37.823-.823.823zm2.321 0a.824.824 0 01-.823-.823v-1.245h1.646v1.245c0 .453-.369.823-.823.823zm2.32 0a.824.824 0 01-.823-.823v-1.245h1.647v1.245c0 .453-.37.823-.824.823zm2.32 0a.824.824 0 01-.823-.823v-1.245h1.647v1.245c0 .453-.37.823-.823.823zm1.305-2.742H1.414a.24.24 0 010-.48h21.172a.24.24 0 010 .48z"/>
    <path d="M22.442 15.47a.337.337 0 00-.337.337v2.773a.566.566 0 01-.566.566H2.462a.566.566 0 01-.566-.566v-2.792a.337.337 0 10-.673 0v2.792c0 .684.556 1.24 1.24 1.24h.502v1.84a.9.9 0 00.899.9h.278a.9.9 0 00.9-.9v-1.84h13.94v1.847a.9.9 0 00.9.899h.277a.9.9 0 00.9-.9V19.82h.48c.684 0 1.24-.556 1.24-1.24v-2.773a.337.337 0 00-.337-.337zM4.368 21.66a.226.226 0 01-.226.226h-.278a.226.226 0 01-.225-.226v-1.84h.729v1.84zm16.017.007a.226.226 0 01-.226.225h-.278a.226.226 0 01-.225-.225V19.82h.729v1.847z"/>
  </g>
</svg>
