<svg width="24" height="24" fill="none" xmlns="http://www.w3.org/2000/svg">
  <defs/>
  <path d="M12 .836v2.14l2.56-.951a.126.126 0 000-.237L12 .836z" fill="#A4D852"/>
  <path d="M22.122 10.344H1.878v12.07h20.244v-12.07z" fill="#EDEDED"/>
  <path d="M22.122 10.344H19.79v12.07h2.332v-12.07z" fill="#D6D6D6"/>
  <path d="M19.528 6.04H4.473a.614.614 0 00-.51.27L1.879 9.394h20.244L20.037 6.31a.614.614 0 00-.51-.27z" fill="#F43B45"/>
  <path d="M22.813 10.415H1.186a.332.332 0 01-.332-.332v-.655c0-.183.149-.332.332-.332h21.625c.184 0 .332.149.332.332v.655a.332.332 0 01-.331.332z" fill="#345863"/>
  <path d="M16.366 9.096H7.635v13.317h8.73V9.096z" fill="#EDEDED"/>
  <path d="M16.365 9.096h-2.332v13.317h2.332V9.096z" fill="#D6D6D6"/>
  <path d="M18.387 9.096l-6.002-4.822a.614.614 0 00-.77 0L5.614 9.096h12.774z" fill="#D82B2B"/>
  <g>
    <path d="M12 14.295a1.706 1.706 0 100-3.412 1.706 1.706 0 000 3.412z" fill="#75CFF2"/>
  </g>
  <path d="M14.532 21.984H9.469v-4.866a.61.61 0 01.61-.61h3.843a.61.61 0 01.61.61v4.866z" fill="#AA4B21"/>
  <g>
    <path d="M5.955 15.597H3.553a.357.357 0 01-.358-.357v-2.402c0-.198.16-.358.358-.358h2.402c.197 0 .357.16.357.358v2.402c0 .197-.16.357-.357.357zM20.447 15.597h-2.402a.357.357 0 01-.358-.357v-2.402c0-.197.16-.357.358-.357h2.402c.197 0 .357.16.357.357v2.402c0 .197-.16.357-.357.357z" fill="#75CFF2"/>
    <g>
      <path d="M5.955 20.503H3.553a.357.357 0 01-.358-.357v-2.402c0-.197.16-.357.358-.357h2.402c.197 0 .357.16.357.357v2.402c0 .197-.16.357-.357.357zM20.447 20.504h-2.402a.357.357 0 01-.358-.358v-2.401c0-.198.16-.358.358-.358h2.402c.197 0 .357.16.357.358v2.401c0 .198-.16.358-.357.358z" fill="#75CFF2"/>
    </g>
  </g>
  <g>
    <path d="M22.813 23.163H1.186a.332.332 0 01-.332-.332v-.656c0-.183.149-.331.332-.331h21.625c.184 0 .332.148.332.331v.656a.332.332 0 01-.331.332z" fill="#345863"/>
  </g>
  <g fill="#000">
    <path d="M12 10.547a2.045 2.045 0 00-2.043 2.043c0 1.126.916 2.043 2.043 2.043a2.045 2.045 0 002.043-2.043A2.045 2.045 0 0012 10.547zm0 3.412a1.37 1.37 0 01-1.37-1.37 1.37 1.37 0 012.738 0 1.37 1.37 0 01-1.368 1.37zM3.553 15.934h2.402a.695.695 0 00.694-.694v-2.402a.695.695 0 00-.694-.694H3.553a.695.695 0 00-.695.694v2.402c0 .383.312.694.695.694zm2.422-3.096v2.402a.02.02 0 01-.02.02H5.09v-2.442h.864c.01 0 .02.009.02.02zm-2.443 0c0-.011.01-.02.02-.02h.865v2.443h-.864a.02.02 0 01-.02-.02v-2.403zM21.141 12.838a.695.695 0 00-.694-.694h-2.402a.695.695 0 00-.694.694v2.402c0 .383.311.694.694.694h2.402a.695.695 0 00.694-.694v-2.402zm-3.117 2.402v-2.402c0-.011.01-.02.02-.02h.865v2.442h-.864a.02.02 0 01-.02-.02zm2.443 0a.02.02 0 01-.02.02h-.864v-2.442h.864c.011 0 .02.009.02.02v2.402zM2.858 20.146c0 .383.312.694.695.694h2.402a.695.695 0 00.694-.694v-2.402a.695.695 0 00-.694-.694H3.553a.695.695 0 00-.695.694v2.402zm3.117-2.402v2.402a.02.02 0 01-.02.02H5.09v-2.442h.864c.01 0 .02.01.02.02zm-2.443 0c0-.01.01-.02.02-.02h.865v2.443h-.864a.02.02 0 01-.02-.02v-2.403zM20.447 17.05h-2.402a.695.695 0 00-.694.694v2.402c0 .383.311.694.694.694h2.402a.695.695 0 00.694-.694v-2.402a.695.695 0 00-.694-.694zm-2.423 3.096v-2.402c0-.01.01-.02.02-.02h.865v2.443h-.864a.02.02 0 01-.02-.02zm2.443 0a.02.02 0 01-.02.02h-.864v-2.442h.864c.011 0 .02.01.02.02v2.402z"/>
    <path d="M23.481 10.084v-.656a.67.67 0 00-.669-.668H22.1l-1.784-2.638a.95.95 0 00-.788-.419h-4.826l-2.106-1.691a.935.935 0 00-.258-.147v-.653l2.34-.87a.46.46 0 00.303-.435.46.46 0 00-.302-.434l-2.554-.95a.332.332 0 00-.158-.021h-.007l-.005.001h-.002a.335.335 0 00-.161.07l-.002.001-.004.003a.336.336 0 00-.069.077v.002l-.003.004a.074.074 0 00-.004.007.338.338 0 00-.046.178v3.02a.939.939 0 00-.259.147L9.3 5.703H4.472a.95.95 0 00-.788.419L1.9 8.76h-.713a.67.67 0 00-.668.668v.656c0 .368.3.668.668.668h6.11v10.755H2.214V11.69a.337.337 0 10-.673 0v9.818h-.354a.67.67 0 00-.668.668v.655c0 .37.3.669.668.669h21.625a.67.67 0 00.67-.669v-.655a.67.67 0 00-.67-.669h-.353V11.69a.337.337 0 10-.674 0v9.818h-5.083V10.752h6.11a.67.67 0 00.67-.668zm-.669 12.742v.337-.337zM19.527 6.377c.093 0 .178.046.23.122l1.529 2.26h-2.78L15.54 6.378h3.988zm-7.19-3.884V1.322l1.575.585-1.575.586zm-.51 2.044a.275.275 0 01.143-.059.332.332 0 00.06 0 .276.276 0 01.143.06L17.43 8.76H6.57l5.256-4.223zM4.242 6.5a.277.277 0 01.23-.122H8.46L5.494 8.76h-2.78l1.529-2.261zm-3.05 3.58v-.645h6.104v.644H1.192zm21.614 12.747H1.192v-.645h21.615v.645zm-8.613-1.319h-1.857v-4.66h1.585c.15 0 .272.121.272.272v4.389zm-2.531 0H9.805V17.12c0-.15.123-.273.273-.273h1.585v4.662zm3.205 0V17.12a.947.947 0 00-.946-.947h-3.844a.947.947 0 00-.947.947v4.389h-1.16V9.434h8.057v12.074h-1.16zm7.94-11.429h-6.106v-.644h6.105v.644z"/>
  </g>
</svg>
