<svg width="24" height="24" fill="none" xmlns="http://www.w3.org/2000/svg">
  <defs/>
  <path d="M9.023 20.153v2.266a.744.744 0 01-.744.744H5.302a.744.744 0 01-.744-.744v-2.266h4.465zM19.442 20.153v2.266a.744.744 0 01-.744.744H15.72a.744.744 0 01-.744-.744v-2.266h4.465z" fill="#58565C"/>
  <path d="M6.79 2.656v-1.55c0-.148.12-.27.27-.27h9.88c.148 0 .269.122.269.27v1.55H6.79z" fill="#FFD151"/>
  <path d="M14.977.837H9.023v1.82h5.954V.836z" fill="#F79B4A"/>
  <path d="M3.07 19.814c0 .411.333.744.744.744h16.372a.744.744 0 00.744-.744v-16c0-.822-.666-1.489-1.488-1.489H4.558c-.822 0-1.489.667-1.489 1.489v16z" fill="#00BCE7"/>
  <path d="M19.442 2.325h-.898c.822 0 1.488.667 1.488 1.489v16a.744.744 0 01-.744.744h.899c.41 0 .744-.333.744-.744v-16c0-.822-.666-1.489-1.489-1.489z" fill="#0094D4"/>
  <path d="M20.93 12h1.964a.27.27 0 00.27-.27V7.804a.27.27 0 00-.27-.27H1.106a.27.27 0 00-.27.27v3.926c0 .15.122.27.27.27H20.93z" fill="#0094D4"/>
  <path d="M20.93 13.86h-5.47a.27.27 0 00-.19.08l-.586.586a.27.27 0 01-.191.079H9.507a.27.27 0 01-.19-.08l-.587-.586a.27.27 0 00-.19-.079H3.07v4.466h17.86V13.86z" fill="#58565C"/>
  <path d="M7.265 16.837H4.827a.27.27 0 01-.27-.27v-.949c0-.149.121-.27.27-.27h2.438c.149 0 .27.121.27.27v.95a.27.27 0 01-.27.27zM19.172 16.837h-2.438a.27.27 0 01-.27-.27v-.949c0-.149.122-.27.27-.27h2.438c.149 0 .27.121.27.27v.95a.27.27 0 01-.27.27z" fill="#FFD151"/>
  <path d="M19.173 15.349h-.899c.15 0 .27.12.27.27v.949a.27.27 0 01-.27.27h.899a.27.27 0 00.27-.27v-.95a.27.27 0 00-.27-.27zM7.283 15.349h-.898c.149 0 .27.12.27.27v.949a.27.27 0 01-.27.27h.898a.27.27 0 00.27-.27v-.95a.27.27 0 00-.27-.27z" fill="#F79B4A"/>
  <path d="M20.93 5.302H3.07v7.442h17.86V5.302z" fill="#B6E3EE"/>
  <path d="M9.023 5.302v-1.59c0-.15.121-.27.27-.27h5.415c.148 0 .269.12.269.27v1.59H9.023z" fill="#FF2551"/>
  <path d="M14.707 3.442h-.898c.149 0 .27.12.27.27v1.59h.897v-1.59a.27.27 0 00-.27-.27z" fill="#C21750"/>
  <path d="M20.93 5.302h-.898v7.442h.899V5.302z" fill="#96D2E0"/>
  <path d="M20.93 13.86h-.898v4.466h.899V13.86z" fill="#49484D"/>
  <g fill="#000">
    <path d="M23.163 7.198h-1.896V3.814a1.827 1.827 0 00-1.825-1.826h-1.896V.837A.337.337 0 0017.21.5H6.791a.337.337 0 00-.337.337v1.151H4.558a1.827 1.827 0 00-1.825 1.826v3.384H.837a.337.337 0 00-.337.337V12c0 .186.15.337.337.337h1.896v7.477c0 .596.485 1.081 1.08 1.081h.408v1.524c0 .596.485 1.081 1.081 1.081H8.28c.596 0 1.081-.485 1.081-1.081v-1.524h5.28v1.524c0 .596.485 1.081 1.081 1.081h2.977c.596 0 1.081-.485 1.081-1.081v-1.524h.407c.596 0 1.081-.485 1.081-1.08V13.86 12.336h1.896c.186 0 .337-.15.337-.337V7.535a.337.337 0 00-.337-.337zM3.406 12V5.639h17.188V12.407H7.642a.337.337 0 100 .674h12.952v.443h-5.245a.337.337 0 00-.238.098l-.646.646h-4.93l-.646-.646a.337.337 0 00-.238-.098H3.406v-.443h2.89a.337.337 0 100-.674h-2.89V12zM14.64 4.965H9.36V3.78h5.28v1.186zM3.406 14.197h5.106l.645.646a.337.337 0 00.238.098h5.21c.09 0 .175-.035.238-.098l.645-.646h5.105v3.792H3.406v-3.792zM16.872 1.988h-1.558v-.814h1.558v.814zm-7.512 0v-.814h5.28v.814H9.36zm-2.233-.814h1.56v.814h-1.56v-.814zm-2.57 1.488h14.885c.635 0 1.152.517 1.152 1.152v1.151h-5.28V3.442a.337.337 0 00-.337-.337H9.023a.337.337 0 00-.337.337v1.523h-5.28V3.814c0-.635.517-1.152 1.152-1.152zm-3.383 9.001V7.872h1.559v3.791h-1.56zM8.686 22.42a.408.408 0 01-.407.407h-.035v-.407a.337.337 0 10-.674 0v.407H6.011v-.407a.337.337 0 10-.674 0v.407h-.035a.408.408 0 01-.407-.407v-1.524h1.559v.408a.337.337 0 10.673 0v-.408h1.56v1.524zm10.42 0a.408.408 0 01-.408.407h-.035v-.407a.337.337 0 10-.674 0v.407H16.43v-.407a.337.337 0 10-.674 0v.407h-.035a.408.408 0 01-.407-.407v-1.524h1.559v.408a.337.337 0 00.673 0v-.408h1.56v1.524zm1.08-2.198H3.814a.408.408 0 01-.408-.407v-1.151h17.188v1.151a.408.408 0 01-.408.407zm2.64-8.558h-1.559V7.872h1.56v3.791z"/>
    <path d="M7.534 15.012H4.558a.337.337 0 00-.337.337v1.488c0 .186.15.337.337.337h2.976c.187 0 .337-.15.337-.337V15.35a.337.337 0 00-.337-.337zM7.197 16.5H4.896v-.814h2.303v.814zM19.442 15.012h-2.977a.337.337 0 00-.337.337v1.488c0 .186.15.337.337.337h2.977c.186 0 .337-.15.337-.337V15.35a.337.337 0 00-.337-.337zm-.337 1.488h-2.303v-.814h2.303v.814zM12 15.756a.337.337 0 00-.337.337v.744a.337.337 0 10.674 0v-.744a.337.337 0 00-.337-.337zM13.116 15.756a.337.337 0 00-.337.337v.744a.337.337 0 10.674 0v-.744a.337.337 0 00-.337-.337zM14.232 15.756a.337.337 0 00-.336.337v.744a.337.337 0 00.673 0v-.744a.337.337 0 00-.337-.337zM10.884 15.756a.337.337 0 00-.337.337v.744a.337.337 0 10.674 0v-.744a.337.337 0 00-.337-.337zM9.768 15.756a.337.337 0 00-.337.337v.744a.337.337 0 10.674 0v-.744a.337.337 0 00-.337-.337zM5.302 4.15H6.79a.337.337 0 100-.673H5.302a.337.337 0 100 .674zM17.21 4.15h1.488a.337.337 0 100-.673H17.21a.337.337 0 100 .674z"/>
  </g>
</svg>
