<svg width="24" height="24" fill="none" xmlns="http://www.w3.org/2000/svg">
  <defs/>
  <g fill-rule="evenodd" clip-rule="evenodd">
    <path d="M2.423 3.663v17.646l1.018.802 1.02-.802V3.663l-1.07-.975-.968.975z" fill="#ECECEC"/>
    <path d="M11.904 7.4v6.384h7.444l1.018-3.371L19.348 7.4h-7.444z" fill="#A6E7F0"/>
    <path d="M19.348 7.4V21.31l1.02.707 1.017-.707V3.663l-1.019-1.288-1.018 1.288V7.4z" fill="#ECECEC"/>
    <path d="M20.366 3.663v17.646h1.019V3.663h-1.019z" fill="#CECECE"/>
    <path d="M6.743 18.033v3.276l.656.74.81-.74v-3.276l-.721-.532-.735.532h-.01zM15.729 18.033v3.276l.63.605.835-.605v-3.276c-.003 0-.008.002-.01 0l-.752-.775-.703.775z" fill="#ECECEC"/>
    <path d="M1.836 22.913h20.522a.805.805 0 00.803-.802.805.805 0 00-.803-.802H1.836a.805.805 0 00-.804.802c0 .441.362.802.804.802z" fill="#838383"/>
    <path d="M4.46 13.784h7.444l1.032-3.46L11.904 7.4H4.46l-1.019 2.983 1.02 3.401z" fill="#A6E7F0"/>
    <path d="M18.428 7.4h.92v6.384h-.92V7.4zM10.984 7.4h.92v6.384h-.92V7.4z" fill="#6BD9E7"/>
    <path d="M14.258 10.735h2.687c.28 0 .51-.23.51-.509v-.9c0-.279-.23-.508-.51-.508h-2.687a.51.51 0 00-.509.509v.899c0 .28.23.509.51.509z" fill="#ECECEC"/>
    <path d="M8.21 18.033h8.984a.812.812 0 00.8-.81.813.813 0 00-.81-.81H6.754a.814.814 0 00-.812.81c0 .442.36.805.801.81H8.21z" fill="#80D261"/>
    <path d="M4.46 3.663h17.947c.308 0 .56-.252.56-.56v-.728c0-.709-.579-1.289-1.29-1.289H2.13c-.709 0-1.29.58-1.29 1.289v.728c0 .308.253.56.561.56H4.46z" fill="#03BED7"/>
    <path d="M20.255 3.663h2.152c.308 0 .56-.252.56-.56v-.728c0-.709-.579-1.289-1.29-1.289h-2.15c.708 0 1.289.58 1.289 1.289v.728a.562.562 0 01-.561.56z" fill="#0099B1"/>
    <path d="M3.44 3.663v17.646h1.02V3.663H3.44z" fill="#CECECE"/>
    <path d="M16.015 18.033h1.179a.812.812 0 00.8-.81.813.813 0 00-.81-.81h-1.18a.813.813 0 01.733 1.158.814.814 0 01-.722.462z" fill="#4FC122"/>
    <path d="M16.462 18.033v3.276h.732v-3.276h-.001c-.003 0-.007.002-.01 0h-.721zM7.477 18.033v3.276h.733v-3.276h-.001c-.003 0-.007.002-.01 0h-.722zM15.719 8.818c.28 0 .51.23.51.509v.899c0 .28-.23.509-.51.509h1.226c.28 0 .51-.23.51-.509v-.9c0-.279-.23-.508-.51-.508h-1.226z" fill="#CECECE"/>
    <path d="M22.358 21.309h-1.482a.804.804 0 01.803.802.805.805 0 01-.803.803h1.482a.805.805 0 00.803-.803.805.805 0 00-.803-.802z" fill="#595959"/>
  </g>
  <path d="M17.455 11.878h-3.706a.34.34 0 100 .679h3.706a.34.34 0 000-.68zM6.387 9.346h3.606a.34.34 0 100-.679H6.387a.34.34 0 100 .679zM6.387 10.994h3.606a.34.34 0 000-.679H6.387a.34.34 0 100 .679zM9.993 11.963H6.387a.34.34 0 000 .68h3.606a.34.34 0 000-.68zM14.258 11.074h2.686a.85.85 0 00.85-.848v-.9a.85.85 0 00-.85-.847h-2.686a.85.85 0 00-.849.848v.899c0 .468.38.848.849.848zm-.17-1.747c0-.092.078-.17.17-.17h2.686c.093 0 .171.078.171.17v.899c0 .092-.078.17-.17.17h-2.687a.172.172 0 01-.17-.17v-.9z" fill="#000"/>
  <path d="M22.357 20.97h-.633V4.001h.683a.9.9 0 00.9-.899v-.728a1.63 1.63 0 00-1.63-1.628H2.13C1.231.747.5 1.477.5 2.375v.728a.9.9 0 00.9.9h.682v16.966h-.247c-.63 0-1.143.512-1.143 1.142 0 .63.513 1.142 1.143 1.142h20.522c.63 0 1.143-.512 1.143-1.142 0-.63-.513-1.142-1.143-1.142zm-1.312 0h-1.358V4.001h1.358V20.97zm-3.512 0v-2.652c.464-.149.8-.583.8-1.095 0-.634-.515-1.15-1.15-1.15h-4.536a.34.34 0 000 .68h4.536a.472.472 0 010 .94H6.753a.472.472 0 010-.94h4.34a.34.34 0 000-.68h-4.34c-.634 0-1.15.516-1.15 1.15 0 .512.336.947.8 1.095v2.651H4.8v-6.845h14.208v6.845h-1.475zm-1.465 0v-2.598h.786v2.597h-.786zm-7.52 0v-2.598h6.84v2.597h-6.84zm-1.466 0v-2.598h.788v2.597h-.788zM19.008 7.74v5.705h-6.765V7.74h6.765zm-7.444 5.705H4.8V7.74h6.764v5.705zM1.18 3.103v-.728a.95.95 0 01.95-.95h19.548a.95.95 0 01.95.95v.728c0 .12-.1.22-.22.22h-9.813a.34.34 0 100 .68h6.414V7.06H4.8V4.002h6.211a.34.34 0 100-.679H1.4c-.12 0-.221-.1-.221-.22zm1.582.9h1.36v16.966H2.76V4.002zm19.596 18.57H1.835a.464.464 0 010-.925h20.522a.464.464 0 010 .926z" fill="#000"/>
</svg>
