<svg width="24" height="24" fill="none" xmlns="http://www.w3.org/2000/svg">
  <defs/>
  <g fill="#826075">
    <path d="M5.048 15.042a.393.393 0 01-.393-.393V6.233a.393.393 0 11.786 0v8.416a.393.393 0 01-.393.393zM9.37 15.042a.393.393 0 01-.393-.393V6.233a.393.393 0 11.785 0v8.416a.393.393 0 01-.393.393zM13.692 15.042a.393.393 0 01-.393-.393V6.233a.393.393 0 01.785 0v8.416a.393.393 0 01-.392.393zM19.24 14.93a.393.393 0 01-.389-.335l-1.218-8.327a.393.393 0 01.777-.114l1.219 8.327a.393.393 0 01-.39.45z"/>
  </g>
  <g fill="#FFDFA1">
    <path d="M5.112 14.56c-.895 0-1.623.728-1.623 1.623s.728 1.623 1.623 1.623 1.623-.728 1.623-1.623-.728-1.623-1.623-1.623zM9.434 14.56c-.895 0-1.622.728-1.622 1.623s.727 1.623 1.622 1.623c.895 0 1.623-.728 1.623-1.623s-.728-1.623-1.623-1.623zM13.738 14.525c-.895 0-1.623.729-1.623 1.623 0 .895.728 1.623 1.623 1.623s1.623-.728 1.623-1.623c0-.894-.728-1.623-1.623-1.623zM21.14 15.796a1.63 1.63 0 00-1.84-1.37 1.612 1.612 0 00-1.067.636 1.613 1.613 0 00-.305 1.204 1.63 1.63 0 001.841 1.37A1.612 1.612 0 0020.836 17c.259-.348.367-.775.304-1.204z"/>
  </g>
  <path d="M23.5 20.61v-2.367a.393.393 0 10-.786 0v1.974h-2.98a.393.393 0 000 .785h3.373a.393.393 0 00.393-.392zM.916 21.003h3.455a.393.393 0 000-.786H1.309V6.285h3.399v8.155a1.76 1.76 0 00-1.365 1.713c0 .97.788 1.758 1.758 1.758a1.76 1.76 0 001.757-1.758 1.76 1.76 0 00-1.365-1.713V6.285H9.03v8.155a1.76 1.76 0 00-1.364 1.713c0 .97.788 1.758 1.757 1.758a1.76 1.76 0 001.758-1.758 1.76 1.76 0 00-1.365-1.713V6.285h3.536v8.155a1.76 1.76 0 00-1.365 1.713c0 .97.788 1.758 1.758 1.758a1.76 1.76 0 001.757-1.758 1.76 1.76 0 00-1.365-1.713V6.285h3.552l1.186 8.102c-.306.119-.573.32-.773.59-.28.375-.397.839-.33 1.303a1.766 1.766 0 001.994 1.485 1.746 1.746 0 001.155-.69c.28-.376.397-.84.33-1.303a1.767 1.767 0 00-1.599-1.498l-1.169-7.989h4.232v9.723a.393.393 0 10.786 0V3.39a.393.393 0 00-.393-.392H.893A.393.393 0 00.5 3.39v2.502c0 .047.009.091.023.133V20.61c0 .217.176.393.393.393zm5.156-4.85a.973.973 0 01-1.943 0 .973.973 0 011.943 0zm4.322 0a.973.973 0 01-1.944 0 .973.973 0 011.944 0zm4.322 0a.973.973 0 01-1.944 0 .973.973 0 011.944 0zm5.756-.268a.965.965 0 01-.182.721.965.965 0 01-.781.392.976.976 0 01-.96-.832.966.966 0 01.182-.72.965.965 0 01.781-.392c.478 0 .89.357.96.831zM1.286 3.783h21.428V5.5H1.286V3.783z" fill="#000"/>
</svg>
