<svg width="24" height="24" fill="none" xmlns="http://www.w3.org/2000/svg">
  <defs/>
  <path d="M16.456 8.101l.008-6.289a.69.69 0 00-.687-.687H8.26a.69.69 0 00-.688.687v4.369c0 .378.31.687.688.687l6.456-.009s1.158 1.113 1.74 1.242z" fill="#6BE8C7"/>
  <path d="M23.131 21.584v1.56l-7.007-.002.012-4.96c0-1.918 1.535-3.508 3.453-3.523a3.48 3.48 0 013.507 3.48V19.9l.035 1.684z" fill="#97EFFF"/>
  <path d="M13.91 19.182a1.097 1.097 0 100-2.193 1.097 1.097 0 000 2.193z" fill="#FFD2A1"/>
  <path d="M23.132 21.584h-7.007v1.56h7.007v-1.56z" fill="#CA98B3"/>
  <g fill="#A0758E">
    <path d="M19.601 22.273c.163 0 .294.131.294.294v.573h-.588v-.573c0-.163.132-.294.294-.294zM23.132 20.975h-7.007v.645h7.007v-.645z"/>
  </g>
  <g fill="#fff">
    <path d="M19.817 16.745h-.4a.33.33 0 01-.33-.33l-.118-.625a.146.146 0 01-.003-.036.33.33 0 01.33-.311h.642a.33.33 0 01.33.311c0 .012-.002.024-.004.036l-.115.614a.15.15 0 00-.003.022.33.33 0 01-.33.319z"/>
    <path d="M19.314 16.637l-.329 2.68.64.917.675-.899-.38-2.698h-.606z"/>
  </g>
  <path d="M16.125 20.973l.012-2.79c0-1.482.915-2.769 2.216-3.284-1.012 1.693-1.474 2.568-1.592 6.08l-.636-.006z" fill="#B0F6FF"/>
  <path d="M16.125 20.973v2.172h.605c0-.82.01-1.537.031-2.166" fill="#CA98B3"/>
  <path d="M23.132 20.973l-.012-2.79a3.534 3.534 0 00-2.217-3.284c1.013 1.693 1.475 2.568 1.592 6.08l.637-.006z" fill="#6EE5F4"/>
  <path d="M23.131 20.973v2.172h-.605c0-.82-.01-1.537-.03-2.166" fill="#A0758E"/>
  <path d="M7.868 21.584v1.56l-6.972-.002.012-4.96c0-1.918 1.535-3.508 3.454-3.523a3.48 3.48 0 013.506 3.48v3.445z" fill="#FFC5E5"/>
  <path d="M10.12 19.182a1.097 1.097 0 100-2.193 1.097 1.097 0 000 2.193z" fill="#FFD2A1"/>
  <path d="M7.868 21.584H.896v1.56h6.972v-1.56z" fill="#CA98B3"/>
  <g fill="#A0758E">
    <path d="M4.372 22.273c.163 0 .295.131.295.294v.573h-.589v-.573c0-.163.132-.294.294-.294zM7.868 20.975H.896v.645h6.972v-.645z"/>
  </g>
  <g fill="#fff">
    <path d="M4.212 16.745h.4a.33.33 0 00.33-.33l.118-.625a.15.15 0 00.003-.036.33.33 0 00-.33-.311h-.642a.33.33 0 00-.33.311c0 .012.002.024.004.036l.115.614a.14.14 0 01.003.022.33.33 0 00.33.319z"/>
    <path d="M4.715 16.637l.329 2.68-.64.917-.675-.899.38-2.698h.606z"/>
  </g>
  <g fill="#FFD2A1">
    <path d="M19.616 7.77a2.622 2.622 0 00-2.521 3.34s.205.617.394.813a2.622 2.622 0 102.127-4.154zM6.933 11.11a2.622 2.622 0 10-.394.813c.295-.317.394-.813.394-.813z"/>
  </g>
  <path d="M.896 20.973l.012-2.79c0-1.482.916-2.769 2.217-3.284-1.012 1.693-1.475 2.568-1.592 6.08l-.637-.006z" fill="#FFDEF2"/>
  <path d="M.896 20.973v2.172h.606c0-.82.01-1.537.03-2.166" fill="#CA98B3"/>
  <path d="M7.9 20.973l-.008-2.79a3.534 3.534 0 00-2.216-3.284c1.012 1.693 1.475 2.568 1.592 6.08l.631-.006z" fill="#F49AD0"/>
  <path d="M7.899 20.973l.005 2.172h-.605c0-.82-.01-1.537-.031-2.166" fill="#A0758E"/>
  <path d="M4.348 13.409a3.009 3.009 0 01-3.005-3.006 3.009 3.009 0 013.005-3.005 3.009 3.009 0 013.006 3.005 3.009 3.009 0 01-3.006 3.006zm0-5.152a2.148 2.148 0 00-2.146 2.146c0 1.184.963 2.146 2.146 2.146a2.148 2.148 0 002.146-2.146 2.148 2.148 0 00-2.146-2.146zM7.767 23.362H.93a.43.43 0 01-.43-.43v-4.917a3.853 3.853 0 013.848-3.848 3.853 3.853 0 013.849 3.848V19a.43.43 0 11-.86 0v-.985a2.992 2.992 0 00-2.989-2.989 2.992 2.992 0 00-2.989 2.99v4.487h5.978v-1.104a.43.43 0 11.86 0v1.533a.43.43 0 01-.43.43zM10.155 19.536c-.83 0-1.507-.676-1.507-1.507 0-.83.676-1.506 1.507-1.506.831 0 1.507.675 1.507 1.506s-.676 1.507-1.507 1.507zm0-2.154a.648.648 0 10.002 1.296.648.648 0 00-.002-1.296zM13.704 15.693H10.19a.43.43 0 010-.86h3.513a.43.43 0 110 .86zM13.704 14.408H10.19a.43.43 0 010-.86h3.513a.43.43 0 110 .86zM13.704 13.123H10.19a.43.43 0 010-.86h3.513a.43.43 0 110 .86zM19.652 13.409a3.009 3.009 0 01-3.006-3.006 3.009 3.009 0 013.006-3.005 3.009 3.009 0 013.005 3.005 3.009 3.009 0 01-3.005 3.006zm0-5.152a2.148 2.148 0 00-2.146 2.146c0 1.184.963 2.146 2.146 2.146a2.148 2.148 0 002.146-2.146 2.148 2.148 0 00-2.146-2.146zM23.07 23.362h-6.837a.43.43 0 01-.43-.43V21.4a.43.43 0 11.86 0v1.104h5.978v-4.488a2.992 2.992 0 00-2.989-2.989 2.992 2.992 0 00-2.989 2.99V19a.43.43 0 01-.86 0v-.985a3.853 3.853 0 013.849-3.848 3.853 3.853 0 013.848 3.848v4.917a.43.43 0 01-.43.43zM13.845 19.536c-.831 0-1.507-.676-1.507-1.507 0-.83.676-1.506 1.507-1.506.83 0 1.507.675 1.507 1.506s-.676 1.507-1.507 1.507zm0-2.154a.648.648 0 10.001 1.296.648.648 0 00-.001-1.296zM16.399 8.474a.43.43 0 01-.093-.01c-.576-.129-1.456-.898-1.817-1.232l-6.285.009a1.119 1.119 0 01-1.118-1.118V1.755c0-.616.501-1.117 1.117-1.117h7.516c.616 0 1.117.501 1.117 1.117l-.007 6.29a.43.43 0 01-.43.429zm-1.74-2.102a.43.43 0 01.298.12c.307.295.692.618 1.013.844l.007-5.581a.261.261 0 00-.258-.258H8.203a.261.261 0 00-.258.258v4.368c0 .14.118.258.258.258l6.455-.009h.001z" fill="#000"/>
  <path d="M14.558 3.449H9.364a.43.43 0 110-.86h5.194a.43.43 0 110 .86zM14.558 5.215H9.364a.43.43 0 110-.859h5.194a.43.43 0 110 .86z" fill="#000"/>
</svg>
