<svg width="24" height="24" fill="none" xmlns="http://www.w3.org/2000/svg">
  <defs/>
  <path d="M11.955 8.54a3.773 3.773 0 100-7.547 3.773 3.773 0 000 7.547z" fill="#FFD2A1"/>
  <path d="M17.015 20.877v2.246L6.93 23.119l.017-7.137c0-2.762 2.209-5.051 4.97-5.072a5.009 5.009 0 015.047 5.009v2.534l.051 2.424z" fill="#97EFFF"/>
  <g fill="#FFD2A1">
    <path d="M20.463 14.92a1.578 1.578 0 100-3.156 1.578 1.578 0 000 3.157zM3.447 14.921a1.578 1.578 0 100-3.156 1.578 1.578 0 000 3.156z"/>
  </g>
  <path d="M17.015 20.877H6.93v2.246h10.085v-2.246z" fill="#CA98B3"/>
  <g fill="#A0758E">
    <path d="M11.934 21.87c.234 0 .423.189.423.423v.825h-.847v-.825c0-.234.19-.424.424-.424zM17.015 20.001H6.93v.928h10.085v-.928z"/>
  </g>
  <g fill="#fff">
    <path d="M12.243 13.911h-.576a.475.475 0 01-.475-.474l-.169-.9a.212.212 0 01-.004-.052.475.475 0 01.474-.448h.925c.253 0 .46.198.474.448a.222.222 0 01-.005.053l-.166.883a.225.225 0 00-.003.032.475.475 0 01-.475.458z"/>
    <path d="M11.519 13.756l-.473 3.858.92 1.32.972-1.295-.548-3.883h-.871zM13.158 5.802a1.203 1.203 0 01-2.406 0h2.406z"/>
  </g>
  <path d="M6.93 19.998l.017-4.016a5.087 5.087 0 013.19-4.726c-1.457 2.436-2.123 3.695-2.291 8.75l-.916-.008z" fill="#B0F6FF"/>
  <path d="M6.93 19.998v3.125H7.8c0-1.178.014-2.211.045-3.117" fill="#CA98B3"/>
  <path d="M17.015 19.998l-.017-4.016a5.087 5.087 0 00-3.19-4.726c1.457 2.436 2.122 3.695 2.291 8.75l.916-.008z" fill="#6EE5F4"/>
  <path d="M17.015 19.998v3.125h-.87c0-1.178-.015-2.211-.045-3.117" fill="#A0758E"/>
  <path d="M11.84 6.685c.43 0 .8-.256.966-.624h-1.93c.166.368.536.624.965.624z" fill="#fff"/>
  <path d="M11.841 7.555a1.931 1.931 0 001.929-1.929.435.435 0 00-.435-.435h-2.988a.435.435 0 00-.435.435c0 1.064.865 1.93 1.93 1.93zm0-.87a1.06 1.06 0 01-.965-.624h1.93a1.06 1.06 0 01-.965.624z" fill="#000"/>
  <path d="M11.897 8.918a4.214 4.214 0 004.209-4.21A4.213 4.213 0 0011.897.5a4.214 4.214 0 00-4.209 4.209 4.214 4.214 0 004.21 4.209zm0-7.548a3.342 3.342 0 013.339 3.339 3.342 3.342 0 01-3.339 3.338A3.342 3.342 0 018.56 4.71a3.342 3.342 0 013.338-3.339zM11.897 10.417a5.45 5.45 0 00-5.444 5.444v7.204c0 .24.195.435.435.435h10.018c.24 0 .435-.195.435-.435v-2.246a.435.435 0 10-.87 0v1.81H7.323v-6.768a4.579 4.579 0 014.573-4.574 4.579 4.579 0 014.573 4.574v2.534a.435.435 0 10.87 0v-2.534a5.45 5.45 0 00-5.443-5.444zM20.405 11.272c-1.11 0-2.013.903-2.013 2.013 0 1.11.903 2.014 2.013 2.014 1.11 0 2.013-.904 2.013-2.014 0-1.11-.903-2.013-2.013-2.013zm0 3.156a1.144 1.144 0 010-2.286 1.144 1.144 0 010 2.286zM3.39 11.272c-1.11 0-2.014.903-2.014 2.013 0 1.11.903 2.014 2.013 2.014 1.11 0 2.013-.904 2.013-2.014 0-1.11-.903-2.013-2.013-2.013zm0 3.156a1.144 1.144 0 010-2.286c.63 0 1.142.513 1.142 1.143s-.513 1.143-1.143 1.143zM22.977 9.47h-5.145a.435.435 0 100 .87h5.145a.435.435 0 100-.87zM22.977 7.754h-5.145a.435.435 0 100 .87h5.145a.435.435 0 100-.87zM17.832 6.91h5.145a.435.435 0 100-.87h-5.145a.435.435 0 100 .87zM6.603 9.905a.435.435 0 00-.435-.435H1.022a.435.435 0 100 .87h5.146c.24 0 .435-.195.435-.435zM1.022 8.625h5.146a.435.435 0 100-.87H1.022a.435.435 0 100 .87zM1.022 6.91h5.146a.435.435 0 100-.87H1.022a.435.435 0 100 .87z" fill="#000"/>
</svg>
