<svg width="24" height="24" fill="none" xmlns="http://www.w3.org/2000/svg">
  <defs/>
  <path d="M4.558 12.494h2.976v3.702a.27.27 0 01-.27.27H4.828a.27.27 0 01-.27-.27v-3.702z" fill="#FABE2C"/>
  <path d="M6.547 12.494v3.702a.27.27 0 01-.27.27h.988a.27.27 0 00.27-.27v-3.702h-.988z" fill="#FD9E28"/>
  <path d="M8.65 6.04H3.442V1.107c0-.15.121-.27.27-.27h4.67c.149 0 .27.12.27.27V6.04z" fill="#EDE9E8"/>
  <path d="M8.382.837h-.988c.148 0 .27.12.27.27V6.04h.987V1.107a.27.27 0 00-.27-.27z" fill="#DFD7D5"/>
  <path d="M7.535 13.116a1.86 1.86 0 001.86-1.86V5.572a.27.27 0 00-.27-.27H2.968a.27.27 0 00-.27.27v5.684a1.86 1.86 0 001.86 1.86h2.978z" fill="#898989"/>
  <path d="M9.395 11.256V5.572a.27.27 0 00-.27-.27h-.988c.149 0 .27.121.27.27v5.684a1.86 1.86 0 01-1.861 1.86h.988a1.86 1.86 0 001.86-1.86z" fill="#727575"/>
  <path d="M6.893 8.279H5.199a.27.27 0 01-.27-.27V7.06c0-.149.121-.27.27-.27h1.694c.149 0 .27.121.27.27v.95a.27.27 0 01-.27.269z" fill="#FABE2C"/>
  <path d="M6.894 6.79h-.989c.15 0 .27.121.27.27v.95a.27.27 0 01-.27.269h.989a.27.27 0 00.27-.27V7.06a.27.27 0 00-.27-.27z" fill="#FD9E28"/>
  <path d="M16.465 11.506h2.977V7.804a.27.27 0 00-.27-.27h-2.438a.27.27 0 00-.27.27v3.702z" fill="#FABE2C"/>
  <path d="M18.454 11.506V7.805a.27.27 0 00-.27-.27h.989c.149 0 .27.12.27.27v3.701h-.989z" fill="#FD9E28"/>
  <path d="M20.558 17.96h-5.21v4.933c0 .15.121.27.27.27h4.67a.27.27 0 00.27-.27V17.96z" fill="#EDE9E8"/>
  <path d="M20.29 23.163h-.99a.27.27 0 00.27-.27V17.96h.989v4.933a.27.27 0 01-.27.27z" fill="#DFD7D5"/>
  <path d="M19.442 10.884a1.86 1.86 0 011.86 1.86v5.684a.27.27 0 01-.27.27h-6.158a.27.27 0 01-.27-.27v-5.684a1.86 1.86 0 011.86-1.86h2.978z" fill="#898989"/>
  <path d="M21.303 12.744v5.684a.27.27 0 01-.27.27h-.988a.27.27 0 00.27-.27v-5.684a1.86 1.86 0 00-1.86-1.86h.987a1.86 1.86 0 011.861 1.86z" fill="#727575"/>
  <path d="M18.8 15.721h-1.694a.27.27 0 00-.27.27v.949c0 .149.122.27.27.27H18.8a.27.27 0 00.27-.27v-.95a.27.27 0 00-.27-.269z" fill="#FABE2C"/>
  <path d="M18.8 17.21h-.988a.27.27 0 00.27-.27v-.95a.27.27 0 00-.27-.269h.989c.149 0 .27.12.27.27v.949a.27.27 0 01-.27.27z" fill="#FD9E28"/>
  <path d="M5.639 2.325a.337.337 0 00-.337-.336h-.744a.337.337 0 100 .673h.744c.186 0 .337-.15.337-.337zM6.79 2.662h.744a.337.337 0 100-.673H6.79a.337.337 0 100 .673zM4.93 8.616h2.232c.186 0 .337-.15.337-.337V6.791a.337.337 0 00-.337-.337H4.93a.337.337 0 00-.337.337v1.488c0 .186.15.337.337.337zm.337-1.488h1.558v.814H5.267v-.814zM18.697 22.012h.745a.337.337 0 000-.674h-.745a.337.337 0 000 .674zM16.465 22.012h.744a.337.337 0 100-.674h-.744a.337.337 0 000 .674zM19.07 15.384h-2.233a.337.337 0 00-.337.337v1.488c0 .186.15.337.337.337h2.233c.186 0 .336-.15.336-.337v-1.488a.337.337 0 00-.336-.337zm-.337 1.489h-1.56v-.815h1.56v.815z" fill="#000"/>
  <path d="M19.779 10.573V7.535a.337.337 0 00-.337-.337H18.29V3.814A3.317 3.317 0 0014.977.5a3.318 3.318 0 00-3.314 3.314v16.372a2.643 2.643 0 01-2.64 2.64 2.643 2.643 0 01-2.64-2.64v-3.384h1.152a.337.337 0 00.337-.337v-1.114-.002-1.115-.001-.805a2.201 2.201 0 001.86-2.172V5.302a.337.337 0 00-.337-.337h-.407V.837A.337.337 0 008.65.5h-5.21a.337.337 0 00-.336.337v4.128h-.408a.337.337 0 00-.337.337v5.954a2.2 2.2 0 001.86 2.171v3.038c0 .186.152.337.338.337h1.151v3.384A3.318 3.318 0 009.023 23.5a3.318 3.318 0 003.314-3.314V3.814a2.643 2.643 0 012.64-2.64 2.643 2.643 0 012.64 2.64v3.384h-1.152a.337.337 0 00-.337.337V10.573a2.2 2.2 0 00-1.86 2.171V18.698c0 .186.15.337.337.337h.407v4.128c0 .186.15.337.337.337h5.21c.185 0 .336-.15.336-.337v-4.128h.407c.187 0 .337-.151.337-.337V12.75v-.006a2.2 2.2 0 00-1.86-2.171zm-12.581 2.88v.443H4.895v-.443h2.303zM4.895 14.57h2.303v.442H4.895v-.443zm-.6-8.93a.337.337 0 000-.675h-.517V1.174h4.536v3.791H5.64a.337.337 0 100 .674h3.42v5.28H3.033v-5.28h1.26zm-1.223 5.953H9.02a1.526 1.526 0 01-1.485 1.187H4.558h-.001a1.526 1.526 0 01-1.485-1.187zm1.823 4.093h2.303v.442H4.895v-.442zm14.21-6.255h-2.303v-.443h2.303v.443zm-2.303.673h2.303v.443h-2.303v-.443zm2.303-2.232v.442h-2.303v-.442h2.303zm-2.64 3.349H19.443c.724 0 1.33.508 1.485 1.186h-5.949a1.526 1.526 0 011.485-1.186zm3.756 11.605h-4.535v-3.791h4.535v3.791zm.337-4.465h-5.616v-5.28h6.024v5.28h-.408z" fill="#000"/>
</svg>
