<svg width="24" height="24" fill="none" xmlns="http://www.w3.org/2000/svg">
  <defs/>
  <path d="M13.489 7.535l-.373-4.093h-2.232l-.372 4.093v.512h2.976v-.512z" fill="#58565C"/>
  <path d="M17.209 2.326a.744.744 0 100-1.489H6.79a.744.744 0 100 1.489H17.21z" fill="#FFD151"/>
  <path d="M12 4.558a1.116 1.116 0 100-2.232 1.116 1.116 0 000 2.232z" fill="#B6E3EE"/>
  <path d="M12 2.326c-.157 0-.306.032-.441.09a1.116 1.116 0 010 2.051A1.116 1.116 0 1012 2.325z" fill="#96D2E0"/>
  <path d="M17.209.837h-.878a.744.744 0 010 1.489h.878a.744.744 0 000-1.489z" fill="#F79B4A"/>
  <path d="M6.046 9.844V8.279c0-.411.333-.744.744-.744H17.21c.411 0 .744.333.744.744v1.565H6.046z" fill="#FFD151"/>
  <path d="M17.209 7.535h-.898c.41 0 .744.333.744.745v1.564h.898V8.28a.744.744 0 00-.744-.745z" fill="#F79B4A"/>
  <path d="M20.93 12.719v8.956c0 .822-.666 1.488-1.488 1.488H4.558a1.488 1.488 0 01-1.489-1.488v-8.956H20.93z" fill="#00BCE7"/>
  <path d="M20.041 12.719v8.955c0 .823-.666 1.489-1.488 1.489h.889c.822 0 1.488-.666 1.488-1.489V12.72h-.889z" fill="#0094D4"/>
  <path d="M3.07 12v-1.116c0-.822.666-1.489 1.488-1.489h14.884c.822 0 1.488.667 1.488 1.489V12H3.07z" fill="#B6E3EE"/>
  <path d="M19.442 9.395h-.898c.822 0 1.488.667 1.488 1.489V12h.899v-1.116c0-.822-.667-1.489-1.489-1.489z" fill="#96D2E0"/>
  <path d="M6.52 20.93H4.828a.27.27 0 01-.27-.269v-.95c0-.148.121-.269.27-.269h1.694c.149 0 .27.12.27.27v.95a.27.27 0 01-.27.269z" fill="#fff"/>
  <path d="M7.265 16.837h-2.81a.27.27 0 01-.27-.27v-2.065c0-.149.121-.27.27-.27h2.81c.149 0 .27.121.27.27v2.066a.27.27 0 01-.27.27zM19.544 16.837h-2.81a.27.27 0 01-.27-.27v-2.065c0-.149.122-.27.27-.27h2.81c.149 0 .27.121.27.27v2.066a.27.27 0 01-.27.27z" fill="#B6E3EE"/>
  <path d="M19.545 14.233h-.899c.15 0 .27.12.27.27v2.065a.27.27 0 01-.27.27h.899a.27.27 0 00.27-.27v-2.066a.27.27 0 00-.27-.27z" fill="#96D2E0"/>
  <path d="M14.708 16.837H9.293a.27.27 0 01-.27-.27v-2.065c0-.149.121-.27.27-.27h5.415c.149 0 .27.121.27.27v2.066a.27.27 0 01-.27.27z" fill="#B6E3EE"/>
  <path d="M20.93 13.116a.744.744 0 000-1.488H3.07a.744.744 0 000 1.488h17.86z" fill="#FFD151"/>
  <path d="M20.93 11.628h-.898a.744.744 0 010 1.488h.899a.744.744 0 000-1.488z" fill="#F79B4A"/>
  <path d="M14.707 14.233h-.898c.149 0 .27.12.27.27v2.065a.27.27 0 01-.27.27h.898a.27.27 0 00.27-.27v-2.066a.27.27 0 00-.27-.27zM7.283 14.233h-.898c.149 0 .27.12.27.27v2.065a.27.27 0 01-.27.27h.898a.27.27 0 00.27-.27v-2.066a.27.27 0 00-.27-.27z" fill="#96D2E0"/>
  <g fill="#000">
    <path d="M22.419 1.988H18.21A1.082 1.082 0 0017.21.5H12 6.79a1.082 1.082 0 00-1 1.488H1.58a.337.337 0 100 .674h9.193c-.14.22-.223.48-.227.759l-.343 3.777H6.79c-.596 0-1.08.485-1.08 1.08v.78H4.557a1.827 1.827 0 00-1.826 1.826v.461a1.083 1.083 0 00-.744 1.027c0 .479.313.885.744 1.027v8.275c0 1.007.82 1.826 1.826 1.826h14.884a1.827 1.827 0 001.825-1.826V13.4c.432-.142.745-.548.745-1.027 0-.478-.313-.885-.745-1.027v-.461a1.827 1.827 0 00-1.825-1.826h-1.151v-.78c0-.595-.486-1.08-1.082-1.08h-3.413l-.343-3.777a1.443 1.443 0 00-.228-.759H22.42a.337.337 0 100-.674zm-4.802-.407a.408.408 0 01-.405.407h-4.875v-.814h4.872c.225 0 .408.183.408.407zm-11.234 0c0-.224.183-.407.407-.407h4.873v.814H6.788a.408.408 0 01-.405-.407zm6.396 1.86a.78.78 0 01-1.559 0 .78.78 0 011.56 0zM6.383 8.28c0-.225.183-.407.407-.407h.408v1.186h-.815v-.78zm14.21 5.174v4.164h-4.87-7.442-4.875v-4.164h17.187zm-5.21 4.838v4.535H8.617V18.29h6.768zM3.407 21.674v-3.383h4.536v4.535H4.558a1.153 1.153 0 01-1.152-1.152zm16.036 1.152h-3.384V18.29h4.535v3.383c0 .635-.516 1.152-1.151 1.152zm1.49-10.047h-.002H3.07h-.001a.408.408 0 010-.814H20.93a.408.408 0 01.001.814zM7.57 11.291H6.01v-.442H7.57v.442zm5.21 0h-1.56v-.442h1.56v.442zm5.209 0h-1.56v-.442h1.56v.442zm2.604-.407v.407h-1.93v-.78a.337.337 0 00-.337-.336h-2.233a.337.337 0 00-.337.337v.779h-2.303v-.78a.337.337 0 00-.337-.336h-2.232a.337.337 0 00-.337.337v.779H8.244v-.78a.337.337 0 00-.337-.336H5.674a.337.337 0 00-.337.337v.779h-1.93v-.407c0-.635.516-1.152 1.15-1.152h4.184a.337.337 0 100-.674h-.87V7.872h8.258v1.186h-6.042a.337.337 0 100 .674h9.355c.635 0 1.151.517 1.151 1.152zm-2.976-2.605v.78h-.815V7.871h.407c.225 0 .408.182.408.407zm-5.28-1.081V6.046a.337.337 0 00-.674 0v1.152h-.783l.237-2.603a1.445 1.445 0 001.766 0l.236 2.603h-.782z"/>
    <path d="M12 3.79a.349.349 0 100-.697.349.349 0 000 .698zM14.232 20.523c.187 0 .337-.15.337-.337v-.744a.337.337 0 10-.674 0v.744c0 .186.151.337.337.337zM6.79 19.105H4.558a.337.337 0 00-.337.337v1.488c0 .187.15.337.337.337H6.79c.186 0 .337-.15.337-.337v-1.488a.337.337 0 00-.337-.337zm-.337 1.489H4.895v-.815h1.558v.815zM4.186 17.174h3.348c.186 0 .337-.15.337-.337v-2.604a.337.337 0 00-.337-.337H4.186a.337.337 0 00-.337.337v2.604c0 .186.15.337.337.337zm.336-2.604h2.676v1.93H4.522v-1.93zM16.465 17.174h3.349c.186 0 .337-.15.337-.337v-2.604a.337.337 0 00-.337-.337h-3.35a.337.337 0 00-.336.337v2.604c0 .186.15.337.337.337zm.337-2.604h2.675v1.93h-2.675v-1.93zM9.023 17.174h5.954c.186 0 .337-.15.337-.337v-2.604a.337.337 0 00-.337-.337H9.023a.337.337 0 00-.336.337v2.604c0 .186.15.337.336.337zm.337-2.604h5.28v1.93H9.36v-1.93z"/>
  </g>
</svg>
