<svg width="24" height="24" fill="none" xmlns="http://www.w3.org/2000/svg">
  <defs/>
  <g fill-rule="evenodd" clip-rule="evenodd">
    <path d="M14.825 6.67H9.546a.6.6 0 00-.599.598v1.745l3.146 1.072 3.331-1.072V7.268a.6.6 0 00-.6-.599z" fill="#80D261"/>
    <path d="M13.377 2.398a1.277 1.277 0 00-2.527.265v.032c.015.542.365 1 .85 1.172v-.001c.133.038.277.058.427.058.156 0 .305-.021.442-.062a1.277 1.277 0 00.808-1.464z" fill="#838383"/>
    <path d="M8.947 9.013H5.869c-.807 0-1.467.724-1.467 1.61v10.411c0 .885.66 1.61 1.467 1.61h12.633c.806 0 1.467-.725 1.467-1.61v-1.828-8.583c0-.886-.66-1.61-1.467-1.61H8.947z" fill="#ECECEC"/>
    <path d="M19.968 10.623c0-.886-.66-1.61-1.466-1.61h-1.54c.807 0 1.467.724 1.467 1.61v10.41c0 .886-.66 1.61-1.466 1.61h1.539c.806 0 1.466-.724 1.466-1.61v-10.41z" fill="#CECECE"/>
    <path d="M13.603 10.597h-2.951a.969.969 0 00-.966.966.97.97 0 00.966.966h2.95a.97.97 0 00.967-.966.969.969 0 00-.966-.966z" fill="#80D261"/>
    <path d="M15.424 7.268a.6.6 0 00-.6-.599h-1.386a.6.6 0 01.595.599v1.745h1.391V7.268z" fill="#4FC122"/>
    <path d="M19.969 13.51h-2.752c-.275 0-.5.273-.5.605v2.658c0 .333.225.605.5.605h2.752V13.51z" fill="#A6E7F0"/>
    <path d="M19.969 13.51h-1.54v3.868h1.54v-3.323-.545z" fill="#6BD9E7"/>
    <path d="M7.155 13.51H4.402v3.868h2.753c.275 0 .499-.272.499-.605v-2.658c0-.332-.226-.605-.5-.605z" fill="#A6E7F0"/>
    <path d="M7.155 13.51H5.932c.275 0 .499.273.499.605v2.658c0 .333-.224.605-.5.605h1.224c.275 0 .499-.272.499-.605v-2.658c0-.332-.225-.605-.499-.605z" fill="#6BD9E7"/>
    <path d="M14.569 11.563a.969.969 0 00-.966-.966h-1.095c.53 0 .966.434.966.966a.97.97 0 01-.966.966h1.095a.97.97 0 00.966-.966z" fill="#4FC122"/>
    <path d="M13.377 2.398a1.28 1.28 0 00-1.552-.978 1.277 1.277 0 01-.05 2.38c-.05.014-.101.026-.155.036.026.01.052.022.079.031v-.001c.134.038.278.058.428.058.155 0 .304-.021.441-.062a1.277 1.277 0 00.809-1.464z" fill="#595959"/>
    <path d="M12.127 14.115h-1.903a.688.688 0 00-.686.687v6.411h2.59v-7.098z" fill="#A6E7F0"/>
    <path d="M14.03 14.115h-1.903v7.098h2.59v-6.412a.688.688 0 00-.687-.686z" fill="#A6E7F0"/>
    <path d="M14.03 14.115h-.952c.378 0 .686.308.686.687v6.411h.953v-6.412a.688.688 0 00-.687-.686z" fill="#6BD9E7"/>
    <path d="M14.717 21.213H9.538v1.43h5.179v-1.43z" fill="#9B9B9B"/>
    <path d="M14.716 21.213h-.952v1.43h.952v-1.43z" fill="#838383"/>
  </g>
  <path d="M23.498 1.317a.34.34 0 00-.378-.298l-9.466 1.114a1.62 1.62 0 00-1.527-1.088 1.62 1.62 0 00-1.608 1.446L.8 3.636a.34.34 0 10.08.676l9.71-1.145c.128.388.397.71.748.908l-1.002 2.254h-.791a.94.94 0 00-.938.939v1.405H5.869c-.997 0-1.807.874-1.807 1.95v10.41c0 1.076.81 1.95 1.807 1.95H18.502c.996 0 1.806-.874 1.806-1.95v-10.41c0-1.076-.81-1.95-1.806-1.95h-2.738V7.268a.94.94 0 00-.94-.939h-.73l-1.07-2.32c.396-.266.668-.701.713-1.201L23.2 1.694a.34.34 0 00.298-.377zM4.742 13.85h2.412c.064 0 .16.106.16.265v2.658c0 .162-.095.265-.16.265H4.742V13.85zm5.135 8.453v-.75h4.499v.75H9.877zm4.153-7.848c.19 0 .346.155.346.347v6.071h-1.91v-6.418h1.564zm5.598 2.583h-2.412c-.065 0-.159-.103-.159-.265v-2.658c0-.162.094-.265.16-.265h2.411v3.188zm-4.544-9.77v1.405h-2.205a.34.34 0 000 .68h5.623c.621 0 1.126.57 1.126 1.27v2.547h-2.412c-.463 0-.839.424-.839.945v2.658c0 .521.377.945.84.945h2.411v1.148h-2.846a.34.34 0 000 .68h2.846v1.488c0 .7-.505 1.27-1.126 1.27h-3.446v-7.502c0-.567-.46-1.027-1.026-1.027h-3.806c-.566 0-1.027.46-1.027 1.027v1.882a.34.34 0 00.68 0v-1.883c0-.19.156-.346.346-.346h1.564v6.418h-1.91V18.24a.34.34 0 00-.68 0v4.063H5.87c-.622 0-1.127-.57-1.127-1.27v-1.487h2.845a.34.34 0 100-.68H4.742v-1.148h2.412c.463 0 .84-.424.84-.945v-2.658c0-.521-.377-.945-.84-.945H4.742v-2.547c0-.7.505-1.27 1.127-1.27h5.454a.34.34 0 000-.68H9.287V7.268c0-.143.116-.259.258-.259h5.279a.26.26 0 01.26.259zm-1.739-.939H11.08l.913-2.054a1.63 1.63 0 00.397-.016l.955 2.07zm-1.218-2.728a.938.938 0 010-1.876.939.939 0 010 1.876z" fill="#000"/>
  <path d="M9.345 11.563c0 .72.586 1.306 1.306 1.306h2.95c.721 0 1.307-.586 1.307-1.306 0-.72-.586-1.306-1.306-1.306h-2.95c-.721 0-1.307.586-1.307 1.306zm4.883 0c0 .345-.28.626-.626.626h-2.95a.627.627 0 010-1.252h2.95c.345 0 .626.28.626.626z" fill="#000"/>
</svg>
