<svg width="24" height="24" fill="none" xmlns="http://www.w3.org/2000/svg">
  <defs/>
  <path d="M20.186 6.046v16.848a.27.27 0 01-.27.27H4.083a.27.27 0 01-.27-.27V6.046" fill="#96D2E0"/>
  <path d="M20.186 6.046v12.652l-2.977 2.977H4.083a.27.27 0 01-.27-.27V6.046h16.373z" fill="#B6E3EE"/>
  <path d="M17.479 18.698h2.707l-2.977 2.977v-2.708c0-.148.12-.27.27-.27zM20.186 8.279l-1.954.71a.27.27 0 01-.185 0l-1.954-.71-1.955.71a.27.27 0 01-.184 0L12 8.28l-1.955.71a.27.27 0 01-.184 0l-1.954-.71-1.955.71a.27.27 0 01-.184 0l-1.955-.71V6.046h16.373V8.28z" fill="#D0EEF5"/>
  <path d="M15.45 19.442H8.549a.27.27 0 01-.27-.27v-.949c0-.149.121-.27.27-.27h6.903c.149 0 .27.121.27.27v.95a.27.27 0 01-.27.27z" fill="#58565C"/>
  <path d="M17.953 2.698h2.233c.411 0 .744.333.744.744v2.977a.744.744 0 01-.744.744H3.814a.744.744 0 01-.745-.744V3.442c0-.411.334-.744.745-.744h14.139z" fill="#00BCE7"/>
  <path d="M6.046 3.814a.744.744 0 101.488 0V1.58a.744.744 0 10-1.488 0v2.233zM16.465 3.814a.744.744 0 001.488 0V1.58a.744.744 0 10-1.488 0v2.233z" fill="#FFD151"/>
  <path d="M6.79 3.66a.744.744 0 01-.744-.745v.899a.744.744 0 101.488 0v-.899a.744.744 0 01-.744.744zM17.21 3.66a.744.744 0 01-.745-.745v.899a.744.744 0 001.488 0v-.899a.744.744 0 01-.744.744z" fill="#F79B4A"/>
  <path d="M20.186 2.698h-.899c.411 0 .744.333.744.744v2.977a.744.744 0 01-.744.744h.899a.744.744 0 00.744-.744V3.442a.744.744 0 00-.744-.744z" fill="#0094D4"/>
  <g fill="#000">
    <path d="M20.186 2.36H18.29v-.779a1.082 1.082 0 00-2.162 0v.78H7.871v-.78a1.082 1.082 0 00-2.162 0v.78H3.813c-.596 0-1.08.484-1.08 1.08V6.42c0 .478.312.885.744 1.027v3.208a.337.337 0 10.673 0V8.76l1.595.58a.337.337 0 00.23 0l1.932-.703 1.931.703a.337.337 0 00.23 0L12 8.637l1.931.703a.337.337 0 00.23 0l1.932-.703 1.931.703a.337.337 0 00.23 0l1.595-.58v9.6h-2.64a.337.337 0 00-.337.338v2.64H4.15V12a.337.337 0 10-.673 0v11.163c0 .186.15.337.336.337h16.373c.186 0 .337-.15.337-.337V7.446c.431-.142.744-.549.744-1.027V3.442c0-.597-.485-1.082-1.081-1.082zm-3.384-.779a.408.408 0 01.814 0V3.814a.408.408 0 01-.814 0V1.58zm-10.419 0a.408.408 0 01.815 0v2.233a.408.408 0 01-.815 0V1.58zM18.14 8.665l-1.932-.703a.337.337 0 00-.1-.02h-.032l-.012.002c-.007 0-.014 0-.02.002a.347.347 0 00-.033.006h-.003a.344.344 0 00-.03.01l-1.932.703-1.931-.703a.336.336 0 00-.1-.02h-.033l-.009.001-.023.003a.319.319 0 00-.032.006l-.005.002a.361.361 0 00-.027.008h-.001l-1.932.703-1.931-.703a.337.337 0 00-.1-.02H7.89l-.011.001-.022.003a.342.342 0 00-.032.006l-.003.001a.33.33 0 00-.03.009l-1.932.703-1.71-.622V7.5h15.7v.543l-1.71.622zm-.594 10.37h1.827l-1.827 1.826v-1.826zM4.15 22.826v-.814H17.212l.03-.002c.008 0 .014-.002.021-.003l.012-.002a.32.32 0 00.024-.006l.008-.002a.32.32 0 00.023-.008l.008-.003a.33.33 0 00.021-.01l.009-.004a.319.319 0 00.019-.012l.009-.005.018-.013.009-.007a.327.327 0 00.024-.022l2.402-2.402v3.315H4.15zM20.593 6.42a.408.408 0 01-.407.407H3.813a.408.408 0 01-.407-.407V3.442c0-.225.183-.408.407-.408H5.71v.78a1.082 1.082 0 002.162 0v-.78h8.257v.78a1.082 1.082 0 002.162 0v-.78h1.896c.224 0 .407.183.407.408v2.976z"/>
    <path d="M19.442 5.71H4.558a.337.337 0 100 .673h14.884a.337.337 0 100-.674zM12 16.802a3.315 3.315 0 000-6.627 3.315 3.315 0 000 6.627zm0-5.953c.092 0 .294.174.474.653.02.052.038.106.056.161h-1.06c.018-.055.037-.11.056-.161.18-.48.382-.653.474-.653zm.689 1.488c.043.256.07.53.083.815h-1.544c.013-.285.04-.559.084-.815h1.377zM12 16.128c-.092 0-.294-.174-.474-.653a3.453 3.453 0 01-.055-.161h1.059c-.018.055-.036.11-.056.161-.18.48-.382.653-.474.653zm-.689-1.488a6.794 6.794 0 01-.083-.815h1.544c-.012.285-.04.559-.083.815H11.31zm-1.929-.817a.343.343 0 00.04.002h1.132c.012.277.037.551.077.815H9.625a2.62 2.62 0 01-.243-.817zm4.064.002h1.133a.343.343 0 00.04-.002c-.038.29-.12.564-.244.817H13.37c.04-.264.065-.538.076-.815zm1.172-.671a.343.343 0 00-.04-.002h-1.132a7.662 7.662 0 00-.076-.815h1.005c.123.252.206.528.243.817zm-4.064-.002H9.422a.343.343 0 00-.04.002c.037-.29.12-.565.243-.817h1.006c-.04.263-.065.537-.077.815zm-.458 2.162h.674c.06.221.131.427.215.611a2.649 2.649 0 01-.89-.611zm2.92.611c.083-.184.155-.39.215-.611h.674c-.25.26-.552.47-.89.611zm.889-4.262h-.674a4.004 4.004 0 00-.216-.611c.338.141.64.35.89.611zm-2.92-.611c-.084.184-.155.39-.215.611h-.674c.25-.26.551-.47.889-.611zM7.941 17.954v1.488c0 .186.151.337.337.337h7.442c.186 0 .337-.151.337-.337v-1.488a.337.337 0 00-.337-.337H8.278a.337.337 0 00-.337.337zm.674.337h6.768v.814H8.615v-.814z"/>
  </g>
</svg>
