<svg width="24" height="24" fill="none" xmlns="http://www.w3.org/2000/svg">
  <defs/>
  <path d="M12 .837a7.187 7.187 0 00-7.187 7.187v10.781a2.245 2.245 0 012.246-2.246h9.882a2.245 2.245 0 012.247 2.246V8.024A7.187 7.187 0 0012 .837z" fill="#656D78"/>
  <path d="M12 .837c-.227 0-.452.011-.674.032a7.187 7.187 0 016.513 7.155v8.722a2.245 2.245 0 011.348 2.06V8.023A7.187 7.187 0 0012 .837z" fill="#515760"/>
  <path d="M16.615 13.035a5.401 5.401 0 01-3.267 2.433 5.395 5.395 0 01-2.696 0 5.393 5.393 0 01-4.043-5.22V8.024H17.391v2.224a5.356 5.356 0 01-.776 2.787z" fill="#FFDECF"/>
  <path d="M16.043 8.024v2.224a5.357 5.357 0 01-.776 2.787 5.401 5.401 0 01-3.94 2.561 5.45 5.45 0 002.02-.128 5.4 5.4 0 003.268-2.433 5.358 5.358 0 00.776-2.787V8.024h-1.348z" fill="#FFCDBE"/>
  <path d="M12.45 12.965c.495 0 .898.302.898.674 0 .372-.403.674-.899.674s-.898-.302-.898-.674c0-.372.402-.674.898-.674z" fill="#656D78"/>
  <path d="M16.043 23.163H4.813v-4.358a2.245 2.245 0 012.246-2.246h9.882a2.245 2.245 0 012.247 2.246v4.358h-3.145z" fill="#48CFAD"/>
  <path d="M16.942 16.56h-1.348a2.245 2.245 0 012.246 2.245v4.358h1.348v-4.358a2.245 2.245 0 00-2.246-2.246z" fill="#37BC9B"/>
  <path d="M13.347 16.56h1.798a3.144 3.144 0 11-6.29 0h1.797v-1.092a5.394 5.394 0 002.695 0v1.091z" fill="#FFDECF"/>
  <path d="M19.524 8.025v-.001C19.524 3.875 16.15.5 12.002.5 7.862.5 4.494 3.858 4.477 7.993l-.001.031V20.602a.337.337 0 00.673 0V18.804c.001-1.052.857-1.908 1.91-1.908h1.477A3.486 3.486 0 0012 20.041a3.486 3.486 0 003.465-3.145h1.476c1.052 0 1.908.856 1.909 1.908V22.826H16.38V21.21a.337.337 0 10-.674 0v1.617H8.294V21.21a.337.337 0 10-.674 0v1.617H5.15v-.876a.338.338 0 00-.674 0V23.163c0 .186.15.337.337.337h14.375c.186 0 .337-.15.337-.337v-4.358V8.024zm-7.523 11.342a2.811 2.811 0 01-2.787-2.47h1.438c.187 0 .337-.152.337-.338v-.673a5.737 5.737 0 002.022 0v.673c0 .186.15.337.337.337h1.44A2.811 2.811 0 0112 19.366zM6.946 8.36h10.108v1.887c0 .915-.245 1.774-.672 2.516-.83.306-1.828.418-2.891.325-.218-.279-.599-.46-1.042-.46-.692 0-1.235.444-1.235 1.01 0 .567.543 1.011 1.235 1.011.635 0 1.144-.373 1.224-.872.184.012.364.018.54.018a7.57 7.57 0 001.524-.15A5.042 5.042 0 0112 15.301a5.06 5.06 0 01-5.054-5.053V8.36zm10.72 2.721c.165.032.28.092.324.174.056.106.01.287-.122.486a2.107 2.107 0 01-.5.502c.139-.37.24-.76.299-1.162zm-4.655 2.557c0 .16-.24.337-.562.337-.321 0-.561-.178-.561-.337 0-.159.24-.336.561-.336.322 0 .562.177.562.336zm3.93 2.583h-3.256v-.5a5.754 5.754 0 003.152-2.41c.745-.313 1.288-.743 1.591-1.196.278-.414.335-.843.156-1.177-.182-.342-.542-.479-.859-.529l.003-.162V7.126a.337.337 0 10-.674 0v.561h-.674v-.561a.337.337 0 10-.674 0v.561h-.674v-.561a.337.337 0 10-.674 0v.561h-.673v-.561a.337.337 0 10-.674 0v.561h-.674v-.561a.337.337 0 10-.674 0v.561h-.674v-.561a.337.337 0 10-.674 0v.561h-.673v-.561a.337.337 0 10-.674 0v.561h-.674v-.561a.337.337 0 10-.674 0v.561h-.674v-.561a.337.337 0 10-.673 0V10.248a5.738 5.738 0 004.043 5.474v.5H7.059c-.756 0-1.437.326-1.91.845v-9.02l.002-.023A6.858 6.858 0 0112 1.174a6.858 6.858 0 016.85 6.85v9.043a2.576 2.576 0 00-1.91-.845z" fill="#000"/>
</svg>
