<svg width="24" height="24" fill="none" xmlns="http://www.w3.org/2000/svg">
  <defs/>
  <path d="M10.512 10.364V4.93l.807-2.532A.744.744 0 0112 1.953h5.954c.304 0 .565.183.68.445h.004l.791 2.492a.272.272 0 01.013.082v5.392L17.21 8.132V6.419a.744.744 0 00-.745-.745H13.49a.744.744 0 00-.745.745v1.713l-2.232 2.232z" fill="#727575"/>
  <path d="M19.429 4.89l-.792-2.492h-.003a.744.744 0 00-.68-.445h-.99c.305 0 .566.183.682.445h.003l.792 2.492a.275.275 0 01.012.082v4.404l.989.988V4.972a.281.281 0 00-.013-.082zM11.756 6.419v1.713l-1.244 2.232 2.232-2.232V6.419c0-.412.334-.745.745-.745H12.5a.744.744 0 00-.744.745z" fill="#5E6161"/>
  <path d="M4.853 22.047h16.821c.822 0 1.489-.667 1.489-1.489v-8.93c0-.822-.667-1.489-1.489-1.489h-2.058a.27.27 0 01-.246-.159l-.733-1.628h-.003a.744.744 0 00-.68-.445H12a.744.744 0 00-.681.445l-.736 1.629a.27.27 0 01-.246.158H4.853v11.908z" fill="#898989"/>
  <g fill="#727575">
    <path d="M17.646 8.352h.003l.733 1.628a.27.27 0 00.245.16h.989a.27.27 0 01-.246-.16l-.733-1.628h-.003a.744.744 0 00-.68-.445h-.99c.305 0 .566.183.682.445zM21.675 10.14h-.989c.822 0 1.489.666 1.489 1.488v8.93c0 .822-.667 1.489-1.489 1.489h.989c.822 0 1.488-.667 1.488-1.489v-8.93c0-.822-.666-1.489-1.488-1.489zM2.325 10.14c-.822 0-1.488.666-1.488 1.488v8.93c0 .822.666 1.489 1.488 1.489h2.977c.822 0 1.488-.667 1.488-1.489v-8.93c0-.822-.666-1.489-1.488-1.489"/>
  </g>
  <path d="M5.302 10.14h-.989c.823 0 1.489.666 1.489 1.488v8.93c0 .822-.666 1.489-1.489 1.489h.989c.822 0 1.488-.667 1.488-1.489v-8.93c0-.822-.666-1.489-1.488-1.489z" fill="#5E6161"/>
  <path d="M6.79 14.605H5.674c-.822 0-1.488.666-1.488 1.488v2.977c0 .822.666 1.488 1.488 1.488H6.79v-5.953z" fill="#A8EBFA"/>
  <path d="M20.186 15.349a5.21 5.21 0 11-10.419 0 5.21 5.21 0 0110.42 0z" fill="#727575"/>
  <path d="M14.977 10.14c-.177 0-.352.008-.524.026a5.21 5.21 0 010 10.366 5.21 5.21 0 10.524-10.393z" fill="#5E6161"/>
  <path d="M18.698 15.349a3.721 3.721 0 11-7.442 0 3.721 3.721 0 017.442 0z" fill="#EDE9E8"/>
  <path d="M14.977 11.628c-.168 0-.333.012-.495.034a3.721 3.721 0 010 7.374 3.721 3.721 0 10.494-7.408z" fill="#DFD7D5"/>
  <path d="M16.465 15.349a1.488 1.488 0 11-2.977 0 1.488 1.488 0 012.977 0z" fill="#A8EBFA"/>
  <path d="M14.977 13.86c-.174 0-.34.03-.495.085a1.489 1.489 0 010 2.808 1.488 1.488 0 10.495-2.892z" fill="#76E2F8"/>
  <path d="M21.675 12.372a.744.744 0 11-1.489 0 .744.744 0 011.489 0z" fill="#EDE9E8"/>
  <path d="M9.498 20.558h-.95a.27.27 0 01-.269-.269v-.95c0-.148.12-.27.27-.27h.95c.148 0 .269.122.269.27v.95a.27.27 0 01-.27.27z" fill="#FFD400"/>
  <path d="M16.94 4.186h-3.926a.27.27 0 01-.27-.27V1.953h4.465v1.963a.27.27 0 01-.27.27z" fill="#EDE9E8"/>
  <path d="M16.22 1.953v1.963a.27.27 0 01-.269.27h.988a.27.27 0 00.27-.27V1.953h-.988z" fill="#DFD7D5"/>
  <path d="M5.302 10.14H2.325c-.772 0-1.406.587-1.48 1.34l-.008.148c0 .822.666 1.488 1.488 1.488h2.977a1.488 1.488 0 100-2.976z" fill="#EDE9E8"/>
  <path d="M5.302 10.14h-.989a1.489 1.489 0 010 2.976h.989a1.488 1.488 0 000-2.976z" fill="#DFD7D5"/>
  <path d="M5.302 11.358V10.14a.744.744 0 00-.744-.744H3.07a.744.744 0 00-.745.745v1.218c0 .15.12.27.27.27h2.438a.27.27 0 00.27-.27z" fill="#727575"/>
  <path d="M4.558 9.395h-.989c.411 0 .745.333.745.745v1.218a.27.27 0 01-.27.27h.988a.27.27 0 00.27-.27V10.14a.744.744 0 00-.744-.744z" fill="#5E6161"/>
  <path d="M5.802 14.605h.988v5.953h-.988v-5.953z" fill="#76E2F8"/>
  <path d="M14.977 19.407a4.062 4.062 0 004.058-4.058 4.062 4.062 0 00-4.058-4.058 4.063 4.063 0 00-4.058 4.058 4.063 4.063 0 004.058 4.058zm0-7.442a3.388 3.388 0 013.384 3.384 3.388 3.388 0 01-3.384 3.384 3.388 3.388 0 01-3.384-3.384 3.388 3.388 0 013.384-3.384z" fill="#000"/>
  <path d="M14.977 17.174a1.827 1.827 0 001.825-1.825 1.827 1.827 0 00-1.825-1.825 1.827 1.827 0 00-1.826 1.825c0 1.006.82 1.825 1.826 1.825zm0-2.976a1.153 1.153 0 010 2.302 1.153 1.153 0 010-2.303z" fill="#000"/>
  <path d="M14.977 20.895a5.553 5.553 0 005.546-5.546 5.553 5.553 0 00-5.546-5.546 5.553 5.553 0 00-5.546 5.546 5.553 5.553 0 005.546 5.546zm0-10.419a4.878 4.878 0 014.872 4.873 4.878 4.878 0 01-4.872 4.872 4.878 4.878 0 01-4.873-4.872 4.878 4.878 0 014.873-4.873z" fill="#000"/>
  <path d="M22.012 12.372c0-.596-.485-1.081-1.081-1.081a1.082 1.082 0 000 2.162c.596 0 1.08-.485 1.08-1.081zm-1.489 0a.408.408 0 11.816.001.408.408 0 01-.816-.001z" fill="#000"/>
  <path d="M21.674 9.803H19.78V4.93a.342.342 0 00-.016-.102l-.804-2.532a.325.325 0 00-.037-.078 1.082 1.082 0 00-.968-.602H12a1.082 1.082 0 00-1.002.68l-.807 2.532a.338.338 0 00-.016.102v4.873h-4.59a1.083 1.083 0 00-1.027-.745H3.069c-.487 0-.9.324-1.034.768A1.828 1.828 0 00.5 11.628v8.93c0 1.007.819 1.826 1.825 1.826h16.617a.337.337 0 100-.674H6.717c.256-.314.41-.713.41-1.148v-5.957-2.977c0-.436-.154-.837-.41-1.152h3.795a.305.305 0 00.092-.013l.005-.001a.333.333 0 00.04-.016c.003 0 .005-.002.008-.003a.343.343 0 00.073-.047l.007-.007a.352.352 0 00.025-.025l.006-.007a.338.338 0 00.026-.034l.004-.006a.317.317 0 00.018-.035l.003-.004.8-1.772.008-.019A.407.407 0 0112 8.244h5.954c.16 0 .307.095.372.243a.33.33 0 00.021.04l.785 1.744.003.007.002.003a.319.319 0 00.019.035l.004.007a.326.326 0 00.025.034l.006.007a.352.352 0 00.026.025l.007.007c.01.009.022.017.033.025l.006.004.034.018.007.004a.335.335 0 00.04.015l.005.001a.304.304 0 00.038.009l.01.001.045.003h2.233c.635 0 1.151.517 1.151 1.152v8.93c0 .635-.516 1.152-1.151 1.152H20.29a.337.337 0 100 .674h1.385a1.827 1.827 0 001.825-1.826v-8.93a1.828 1.828 0 00-1.826-1.825zm-5.581-6.698a.337.337 0 00-.337.337v.407h-1.559v-.407a.337.337 0 10-.673 0v.407h-.443V2.29h3.791V3.85h-.442v-.407a.337.337 0 00-.337-.337zM3.069 9.732h1.489c.224 0 .407.183.407.407v1.152H2.662v-1.149-.002-.002c0-.224.183-.406.407-.406zm-1.08.795v1.1c0 .187.15.338.336.338h2.977c.186 0 .337-.151.337-.337v-1.101c.471.144.815.583.815 1.1 0 .636-.517 1.152-1.152 1.152H2.325a1.153 1.153 0 01-.337-2.252zm.336 11.183a1.153 1.153 0 01-1.151-1.152v-7.515c.314.256.715.41 1.151.41h2.977c.436 0 .837-.154 1.152-.41v1.225h-.78a1.827 1.827 0 00-1.825 1.825v2.977c0 1.006.819 1.825 1.825 1.825h.73a1.154 1.154 0 01-1.102.815H2.325zm4.129-1.489h-.78a1.153 1.153 0 01-1.151-1.151v-2.977c0-.635.516-1.151 1.151-1.151h.78v5.28zM16.872 7.57h-3.791V6.419c0-.225.183-.408.407-.408h2.977c.225 0 .407.183.407.408V7.57zm2.05.6a1.082 1.082 0 00-.968-.6h-.408V6.419c0-.597-.485-1.082-1.08-1.082h-2.978c-.596 0-1.08.485-1.08 1.082V7.57H12c-.421 0-.804.245-.98.626l-.008.017-.164.361V4.982l.784-2.459A.407.407 0 0112 2.29h.407v1.896c0 .186.151.337.337.337h4.465c.186 0 .337-.151.337-.337V2.29h.408c.16 0 .307.096.372.244l.004.007.775 2.441V8.57l-.16-.356a.345.345 0 00-.023-.042z" fill="#000"/>
  <path d="M8.28 18.733a.337.337 0 00-.338.337v1.488c0 .186.151.337.337.337h1.489c.186 0 .337-.15.337-.337V19.07a.337.337 0 00-.337-.337H8.279zm1.151 1.489h-.815v-.815h.815v.815z" fill="#000"/>
</svg>
