<svg width="24" height="24" fill="none" xmlns="http://www.w3.org/2000/svg">
  <defs/>
  <path d="M5.302 8.18H2.325V6.687c0-.149.12-.27.27-.27h2.437c.15 0 .27.121.27.27V8.18z" fill="#FABE2C"/>
  <path d="M5.032 6.419h-.988c.149 0 .27.12.27.27v1.49h.988V6.69a.27.27 0 00-.27-.27z" fill="#FD9E28"/>
  <path d="M8.28 8.18H6.79V6.687c0-.149.12-.27.27-.27h.949c.149 0 .27.121.27.27V8.18z" fill="#898989"/>
  <path d="M8.01 6.419H7.02c.15 0 .27.12.27.27v1.49h.988V6.69a.27.27 0 00-.27-.27z" fill="#727575"/>
  <path d="M22.419 7.907c.41 0 .744.333.744.744v10.42c0 .41-.333.743-.744.743H1.58a.744.744 0 01-.744-.744V8.651c0-.41.333-.744.744-.744H22.42z" fill="#898989"/>
  <path d="M22.419 7.907h-.988c.41 0 .744.333.744.744v10.42c0 .41-.333.743-.744.743h.988a.744.744 0 00.744-.744V8.651a.744.744 0 00-.744-.744z" fill="#727575"/>
  <path d="M23.163 9.395v-.744a.744.744 0 00-.744-.744H1.58a.744.744 0 00-.744.744v.744h22.326zM23.163 19.07v-.744H.837v.744c0 .411.333.744.744.744H22.42a.744.744 0 00.744-.744z" fill="#EDE9E8"/>
  <path d="M22.419 7.907h-.988c.41 0 .744.333.744.744v.744h.988v-.744a.744.744 0 00-.744-.744zM22.175 19.07a.744.744 0 01-.744.744h.988a.744.744 0 00.744-.744v-.744h-.988v.744z" fill="#DFD7D5"/>
  <path d="M3.544 15.349h-.95a.27.27 0 00-.269.27v.949c0 .149.12.27.27.27h.95a.27.27 0 00.269-.27v-.95a.27.27 0 00-.27-.27z" fill="#FC4C1E"/>
  <path d="M19.442 19.814h-8.93V6.5a.27.27 0 01.045-.15l1.363-2.044a.27.27 0 01.224-.12h5.666a.27.27 0 01.224.12l1.363 2.045a.27.27 0 01.045.15v13.313z" fill="#DFD7D5"/>
  <path d="M19.397 6.35l-1.363-2.044a.27.27 0 00-.224-.12h-.989a.27.27 0 01.224.12L18.41 6.35a.27.27 0 01.045.15v13.313h.988V6.5a.27.27 0 00-.045-.15z" fill="#D1CAC8"/>
  <path d="M19.442 13.86a4.465 4.465 0 11-8.93 0 4.465 4.465 0 018.93 0z" fill="#EDE9E8"/>
  <path d="M17.954 13.86a2.977 2.977 0 11-5.954 0 2.977 2.977 0 015.954 0z" fill="#AAEBF9"/>
  <path d="M14.977 10.884c-.169 0-.334.014-.495.041a2.977 2.977 0 010 5.87 2.977 2.977 0 10.494-5.912z" fill="#7BE2F6"/>
  <path d="M15.721 13.86a.744.744 0 11-1.489 0 .744.744 0 011.489 0z" fill="#7BE2F6"/>
  <path d="M19.429 6.419a.267.267 0 00-.032-.068l-1.363-2.045a.27.27 0 00-.225-.12h-5.665a.27.27 0 00-.224.12L10.557 6.35a.271.271 0 00-.033.068h8.905z" fill="#EDE9E8"/>
  <path d="M17.046 4.306l1.363 2.045a.272.272 0 01.032.067h.988a.28.28 0 00-.032-.067l-1.363-2.045a.27.27 0 00-.224-.12h-.989a.27.27 0 01.224.12z" fill="#DFD7D5"/>
  <path d="M23.5 18.325V8.651c0-.596-.485-1.081-1.081-1.081h-2.64V6.419a.347.347 0 00-.003-.045l-.002-.01a.316.316 0 00-.01-.042V6.32a.315.315 0 00-.04-.088l-.002-.001V6.23 6.23l-1.488-2.231a.337.337 0 00-.28-.15H12a.336.336 0 00-.28.15l-1.487 2.23-.001.002-.001.002a.335.335 0 00-.022.038l-.003.007a.372.372 0 00-.026.085l-.002.01a.33.33 0 00-.004.046V7.57H8.617V6.419a.337.337 0 00-.337-.337H6.79a.337.337 0 00-.337.337V7.57h-.815V6.419a.337.337 0 00-.337-.337H2.325a.337.337 0 00-.337.337V7.57h-.407C.985 7.57.5 8.055.5 8.651V19.07c0 .596.485 1.081 1.081 1.081H4a.337.337 0 100-.674H1.581a.408.408 0 01-.407-.407v-.407h9v.814H5.348a.337.337 0 000 .674h17.072c.596 0 1.081-.485 1.081-1.081v-.744zM14.977 9.06c-1.754 0-3.29.944-4.129 2.352V9.396 6.754h8.257V11.41a4.804 4.804 0 00-4.128-2.351zm4.128 4.802a4.133 4.133 0 01-4.128 4.128 4.133 4.133 0 01-4.129-4.128 4.133 4.133 0 014.129-4.129 4.133 4.133 0 014.128 4.129zm.674-4.129h3.047v8.257H19.78V9.732zm2.64-1.488c.224 0 .407.183.407.407v.407H19.78v-.814h2.64zM12.18 4.523h5.593l1.04 1.559H11.14l1.04-1.56zM7.128 6.755h.814v.815h-.814v-.815zm-4.466 0h2.303v.815H2.662v-.815zm-1.08 1.489h8.593v.814H1.174v-.407c0-.224.183-.407.407-.407zm-.408 9.745V9.732h9v8.257h-9zm9.674 1.488v-1.15-2.016a4.804 4.804 0 004.129 2.352c1.753 0 3.29-.945 4.128-2.352v3.166h-8.257zm11.57 0H19.78v-.814h3.047v.407a.408.408 0 01-.407.407z" fill="#000"/>
  <path d="M3.814 15.012H2.325a.337.337 0 00-.337.337v1.488c0 .186.151.337.337.337h1.489a.337.337 0 00.337-.337V15.35a.337.337 0 00-.337-.337zM3.477 16.5h-.815v-.814h.815v.814zM4.558 10.547H2.325a.337.337 0 000 .674h2.233a.337.337 0 100-.674zM14.977 10.547a3.318 3.318 0 00-3.314 3.314 3.317 3.317 0 003.314 3.313 3.317 3.317 0 003.314-3.313 3.318 3.318 0 00-3.314-3.314zm0 5.953a2.643 2.643 0 01-2.64-2.64 2.643 2.643 0 012.64-2.64 2.643 2.643 0 012.64 2.64 2.643 2.643 0 01-2.64 2.64z" fill="#000"/>
  <path d="M14.977 12.78a1.082 1.082 0 000 2.162 1.082 1.082 0 000-2.162zm0 1.488a.408.408 0 110-.816.408.408 0 010 .816zM15.72 7.57h-1.488a.337.337 0 100 .674h1.489a.337.337 0 100-.674z" fill="#000"/>
</svg>
