<svg width="24" height="24" fill="none" xmlns="http://www.w3.org/2000/svg">
  <defs/>
  <path d="M19.442 10.884h-1.489V9.293c0-.15.12-.27.27-.27h.949c.149 0 .27.12.27.27v1.59z" fill="#898989"/>
  <path d="M19.173 9.023h-.988c.149 0 .27.12.27.27v1.59h.987v-1.59a.27.27 0 00-.27-.27z" fill="#727575"/>
  <path d="M5.302 10.767H2.325V9.293c0-.15.12-.27.27-.27h2.437c.15 0 .27.12.27.27v1.474z" fill="#898989"/>
  <path d="M5.032 9.023h-.988c.149 0 .27.12.27.27v1.474h.988V9.293a.27.27 0 00-.27-.27z" fill="#727575"/>
  <path d="M22.419 10.511c.41 0 .744.334.744.745v10.419c0 .41-.333.744-.744.744H1.58a.744.744 0 01-.744-.744v-10.42c0-.41.333-.743.744-.743H22.42z" fill="#898989"/>
  <path d="M22.419 10.511h-.988c.41 0 .744.334.744.745v10.419c0 .41-.333.744-.744.744h.988a.744.744 0 00.744-.744v-10.42a.744.744 0 00-.744-.744z" fill="#727575"/>
  <path d="M.837 12h22.326v-.744a.744.744 0 00-.744-.744H1.58a.744.744 0 00-.744.744V12zM23.163 20.93H.837v.745c0 .41.333.744.744.744H22.42a.744.744 0 00.744-.744v-.745z" fill="#EDE9E8"/>
  <path d="M3.544 17.954h-.95a.27.27 0 00-.269.27v.948c0 .15.12.27.27.27h.95a.27.27 0 00.269-.27v-.949a.27.27 0 00-.27-.27z" fill="#FC4C1E"/>
  <path d="M10.512 6.287h2.976v2.495h-2.976V6.287z" fill="#DFD7D5"/>
  <path d="M12.5 6.287h.988v2.495H12.5V6.287z" fill="#D1CAC8"/>
  <g fill="#DFD7D5">
    <path d="M22.419 10.511h-.988c.41 0 .744.334.744.745V12h.988v-.744a.744.744 0 00-.744-.745zM22.175 21.675a.744.744 0 01-.744.744h.988a.744.744 0 00.744-.744v-.745h-.988v.745zM16.465 22.419h-8.93V10.593a.27.27 0 01.044-.15L8.943 8.4a.27.27 0 01.224-.12h5.665a.27.27 0 01.224.12l1.363 2.045c.03.044.046.096.046.15v11.825z"/>
  </g>
  <path d="M16.42 10.444l-1.363-2.045a.27.27 0 00-.224-.12h-.988a.27.27 0 01.224.12l1.363 2.045a.27.27 0 01.045.15v11.825h.989V10.593a.271.271 0 00-.046-.15z" fill="#D1CAC8"/>
  <path d="M16.465 16.465a4.465 4.465 0 11-8.93 0 4.465 4.465 0 018.93 0z" fill="#EDE9E8"/>
  <path d="M14.977 16.465a2.977 2.977 0 11-5.954 0 2.977 2.977 0 015.954 0z" fill="#AAEBF9"/>
  <path d="M12 13.488a2.99 2.99 0 00-.494.042 2.977 2.977 0 010 5.87A2.977 2.977 0 1012 13.489z" fill="#7BE2F6"/>
  <path d="M12.744 16.465a.744.744 0 11-1.488 0 .744.744 0 011.488 0z" fill="#7BE2F6"/>
  <path d="M16.453 10.512a.27.27 0 00-.033-.068l-1.363-2.045a.27.27 0 00-.224-.12H9.168a.27.27 0 00-.225.12L7.58 10.444a.266.266 0 00-.032.068h8.905z" fill="#EDE9E8"/>
  <path d="M14.069 8.399l1.363 2.045a.266.266 0 01.032.068h.989a.284.284 0 00-.032-.068l-1.364-2.045a.27.27 0 00-.224-.12h-.988a.27.27 0 01.224.12z" fill="#DFD7D5"/>
  <path d="M16.196 6.79H7.805a.27.27 0 01-.27-.269v-4.67c0-.15.12-.27.27-.27h8.391c.149 0 .27.12.27.27v4.67a.27.27 0 01-.27.27z" fill="#898989"/>
  <path d="M16.196 1.581h-.988c.149 0 .27.12.27.27v4.67a.27.27 0 01-.27.27h.988a.27.27 0 00.27-.27v-4.67a.27.27 0 00-.27-.27z" fill="#727575"/>
  <path d="M14.708 5.302H9.293a.27.27 0 01-.27-.27V3.34c0-.149.121-.27.27-.27h5.415c.148 0 .27.121.27.27v1.694a.27.27 0 01-.27.27z" fill="#AAEBF9"/>
  <path d="M14.707 3.07h-.988c.149 0 .27.12.27.27v1.693a.27.27 0 01-.27.27h.988a.27.27 0 00.27-.27V3.339a.27.27 0 00-.27-.27z" fill="#7BE2F6"/>
  <path d="M23.5 20.93v-9.674c0-.596-.485-1.081-1.081-1.081h-2.64V9.023a.337.337 0 00-.337-.337h-1.488a.337.337 0 00-.337.337v1.152h-.971l-1.389-2.083a.337.337 0 00-.28-.15h-1.152v-.815h2.64c.186 0 .337-.15.337-.336V1.58a.337.337 0 00-.337-.337h-8.93a.337.337 0 00-.337.337v5.21c0 .186.15.336.337.336h2.64v.815H9.023a.337.337 0 00-.28.15l-1.388 2.083H5.639V9.023a.337.337 0 00-.337-.337H2.325a.337.337 0 00-.337.337v1.152h-.407c-.596 0-1.081.485-1.081 1.08v10.42c0 .596.485 1.08 1.081 1.08h17.571a.337.337 0 100-.673h-2.35v-.815h6.024v.408a.408.408 0 01-.407.407h-1.92a.337.337 0 100 .674h1.92c.596 0 1.081-.485 1.081-1.081v-.744-.001zm-.674-9.674v.407h-6.024v-.814h5.617c.224 0 .407.182.407.407zM12 11.663c-1.753 0-3.29.945-4.128 2.352V10.85h8.256v3.166A4.804 4.804 0 0012 11.663zm4.128 4.802A4.133 4.133 0 0112 20.593a4.133 4.133 0 01-4.128-4.128A4.133 4.133 0 0112 12.337a4.133 4.133 0 014.128 4.128zM1.174 12.337h6.024v8.256H1.174v-8.256zM18.29 9.36h.815v.815h-.814V9.36zM7.873 1.918h8.256v4.536H7.872V1.918zm2.976 5.21h2.303v.814h-2.303v-.815zM9.204 8.615h5.594l1.039 1.559H8.164l1.04-1.56zm-6.54.744h2.302v.815H2.662V9.36zM1.58 10.849h5.617v.814H1.174v-.407c0-.225.183-.407.407-.407zm-.407 10.826v-.408h6.024v.815H1.58a.408.408 0 01-.407-.407zm6.698.407v-3.166A4.804 4.804 0 0012 21.267c1.753 0 3.29-.944 4.128-2.351v3.166H7.872zm8.93-1.489v-8.256h6.024v8.256h-6.024z" fill="#000"/>
  <path d="M12 13.152a3.318 3.318 0 00-3.313 3.313A3.317 3.317 0 0012 19.78a3.318 3.318 0 003.314-3.314A3.318 3.318 0 0012 13.152zm0 5.953a2.643 2.643 0 01-2.64-2.64 2.643 2.643 0 012.64-2.64 2.643 2.643 0 012.64 2.64 2.643 2.643 0 01-2.64 2.64z" fill="#000"/>
  <path d="M12 15.384c-.596 0-1.081.485-1.081 1.081a1.082 1.082 0 002.162 0c0-.596-.485-1.08-1.08-1.08zm0 1.489a.408.408 0 110-.816.408.408 0 010 .816zM3.814 17.617H2.325a.337.337 0 00-.337.337v1.488c0 .186.151.337.337.337h1.489c.186 0 .337-.15.337-.337v-1.488a.337.337 0 00-.337-.337zm-.337 1.488h-.815v-.814h.815v.814zM4.558 13.152H2.325a.337.337 0 000 .673h2.233a.337.337 0 100-.673zM15.314 5.302V3.07a.337.337 0 00-.337-.337H9.023a.337.337 0 00-.336.337v2.232c0 .186.15.337.336.337h5.954c.186 0 .337-.15.337-.337zm-.674-.337H9.36V3.406h5.28v1.56z" fill="#000"/>
</svg>
