<svg width="24" height="24" fill="none" xmlns="http://www.w3.org/2000/svg">
  <defs/>
  <g fill-rule="evenodd" clip-rule="evenodd">
    <path d="M4.164 21.831h15.671a.586.586 0 00.584-.584V20.13c-.006-.171-.022-.258-.18-.502l-3.25-5.054c-1.4-2.127-2.758-4.29-4.135-6.433-.233-.337-.544-.505-.855-.507-.31.002-.62.17-.854.507L3.761 19.627c-.158.244-.182.212-.182.501v1.12c0 .32.264.583.585.583z" fill="#FCC368"/>
    <path d="M11.244 8.141c1.377 2.142 2.734 4.306 4.136 6.433l3.249 5.054c.158.244.174.331.182.502v1.117c0 .32-.264.584-.586.584h1.61a.586.586 0 00.585-.584V20.13c-.006-.171-.023-.258-.18-.502l-3.25-5.054c-.319-.485-.637-.972-.953-1.46-1.068-1.652-2.118-3.32-3.183-4.973-.233-.337-.543-.505-.854-.507-.289.002-.578.148-.805.44.017.021.034.044.049.067z" fill="#FFA719"/>
    <path d="M21.791 20.477v1.134c0 .124.1.224.224.224h.92c.124 0 .226-.1.226-.224v-2.268a.225.225 0 00-.226-.224h-.92c-.123 0-.224.1-.224.224v1.134zM.84 19.343v2.268c0 .124.1.224.224.224h.92c.124 0 .226-.1.226-.224v-2.268a.225.225 0 00-.226-.224h-.92c-.124 0-.224.1-.224.224z" fill="#B5722F"/>
    <path d="M12 2.889v3.41c1.406-1.4 2.913.185 4.027 0 .38-.064.703-.316.703-.703V3.592c0-.6-.515-.734-1.043-.647-1.448.237-2.38-.88-3.687-.056z" fill="#64B0D9"/>
    <path d="M16.729 5.596V3.592c0-.6-.514-.734-1.043-.647a2.51 2.51 0 01-.168.022c.135.105.218.272.218.512v2.007c0 .361-.281.607-.632.687.328.104.638.173.922.126.38-.064.703-.316.703-.703z" fill="#4A83C9"/>
    <path d="M11.721 12.6c-.527 2.587-1.892 5.411-3.754 7.117-.177.246-.177.415-.177.561v1.553h8.424v-1.553c0-.146 0-.315-.177-.561-1.862-1.706-3.227-4.53-3.754-7.117-.07-.364-.506-.364-.562 0z" fill="#F78411"/>
    <path d="M16.037 19.717c-1.863-1.706-3.227-4.53-3.755-7.117-.07-.364-.505-.364-.561 0-.093.46-.214.927-.358 1.394.624 2.351 1.895 4.781 3.565 6.311a.828.828 0 01.177.562v.964h1.109v-1.553c0-.146 0-.315-.177-.56z" fill="#F74311"/>
  </g>
  <path d="M22.935 18.78h-.92a.564.564 0 00-.564.563v1.105h-.692v-.318-.013c-.009-.232-.044-.376-.235-.673l-3.6-5.588a.34.34 0 00-.571.368l3.6 5.588c.12.185.123.217.127.324v1.111c0 .135-.11.245-.245.245h-3.282v-1.213c0-.17 0-.426-.241-.76a.332.332 0 00-.047-.052c-.637-.583-1.232-1.318-1.768-2.184a.34.34 0 00-.578.357c.562.907 1.187 1.682 1.86 2.302.095.14.095.22.095.337v1.213H8.129v-1.213c0-.117 0-.197.094-.337 1.734-1.602 3.167-4.274 3.778-7.03a15.52 15.52 0 001.219 3.462.34.34 0 10.61-.299 14.79 14.79 0 01-1.215-3.539c-.062-.324-.316-.548-.619-.548h-.011c-.3.005-.545.232-.598.551-.556 2.721-1.954 5.375-3.65 6.928a.35.35 0 00-.046.052c-.241.334-.241.59-.241.76v1.213H4.164a.248.248 0 01-.245-.245v-1.119c0-.087.002-.12.005-.134l.041-.062c.023-.033.05-.072.082-.122l7.38-11.48c.16-.229.363-.355.57-.356.212 0 .415.127.574.356l2.963 4.608a.34.34 0 00.571-.367L13.14 7.957l-.006-.009a1.492 1.492 0 00-.794-.602v-.9c.722-.632 1.469-.368 2.257-.088.427.152.834.296 1.235.296.084 0 .168-.006.251-.02.59-.099.986-.516.986-1.037V3.592c0-.402-.175-.636-.322-.761-.257-.218-.653-.297-1.115-.221-.538.088-.996-.037-1.481-.169-.568-.154-1.152-.313-1.811-.09v-.186a.34.34 0 00-.68 0v5.18a1.495 1.495 0 00-.8.613L3.476 19.442c-.027.043-.05.076-.07.105-.133.192-.166.281-.166.581v.32h-.691v-1.105a.565.565 0 00-.565-.564h-.92a.564.564 0 00-.564.564v2.268c0 .31.253.564.564.564h.92a.565.565 0 00.565-.564v-.484h.69v.12c0 .51.415.924.924.924h15.672c.51 0 .924-.414.924-.924v-.12h.692v.484c0 .31.253.564.564.564h.92a.565.565 0 00.565-.564v-2.268a.565.565 0 00-.565-.564zM13.972 3.096c.508.138 1.085.295 1.77.183.253-.042.464-.016.564.069.02.017.083.07.083.243v2.005c0 .22-.226.335-.418.367-.31.052-.717-.093-1.148-.246-.456-.162-.968-.344-1.502-.344-.322 0-.652.067-.982.246V3.086c.559-.282 1.038-.151 1.633.01zM1.87 21.496h-.691v-2.038h.69v2.038zm20.951 0h-.69v-2.038h.69v2.038z" fill="#000"/>
</svg>
