<svg width="24" height="24" fill="none" xmlns="http://www.w3.org/2000/svg">
  <defs/>
  <path d="M1.494 19.727l-.501 1.202a.27.27 0 00.248.373H22.76a.27.27 0 00.249-.373L17.65 8.073a.27.27 0 00-.249-.166H6.42l-4.925 11.82z" fill="#00BCE7"/>
  <path d="M23.008 20.93L17.65 8.072a.27.27 0 00-.249-.166h-1.1a.27.27 0 01.248.166l5.357 12.856a.27.27 0 01-.248.373h1.1a.27.27 0 00.249-.373zM11.845 20.93L6.419 7.906l-3.94 9.456-1.486 3.566a.27.27 0 00.248.374h10.355a.27.27 0 00.249-.374z" fill="#0094D4"/>
  <path d="M3.07 21.302l-2.046-2.045a.27.27 0 01-.003-.378l5.398-5.614-2.325 8.037H3.07z" fill="#00BCE7"/>
  <path d="M10.242 5.674H6.42V3.07h3.824c.148 0 .269.121.269.27v2.066a.27.27 0 01-.27.27z" fill="#00CE96"/>
  <path d="M10.242 3.07h-.898c.149 0 .27.12.27.269v2.066a.27.27 0 01-.27.27h.898a.27.27 0 00.27-.27V3.339a.27.27 0 00-.27-.27z" fill="#00BA88"/>
  <path d="M9.768 21.302L6.42 13.265 3.07 21.302h6.698z" fill="#0076B5"/>
  <path d="M23.474 21.173l-.62-1.488-.001-.003-4.96-11.905a.337.337 0 00-.311-.207h-1.64a.337.337 0 100 .674h1.415l4.68 11.233H11.606L6.923 8.244h7.672a.337.337 0 100-.674h-7.84V6.01h3.756c.186 0 .337-.15.337-.337V3.07a.337.337 0 00-.337-.336H6.755v-.036a.337.337 0 00-.673 0V7.84l-3.89 9.336-1.598 1.662a.337.337 0 00.005.471l.497.497-.57 1.368a.337.337 0 00.311.466h22.326a.337.337 0 00.311-.466zM6.755 3.406h3.42v1.931h-3.42v-1.93zm-5.413 17.56l.27-.645.644.645h-.914zm1.61-.258l-1.217-1.217-.002-.002-.424-.424 4.108-4.272-2.465 5.916zm.623.258l2.844-6.825 2.843 6.825H3.575zm6.417 0l-3.262-7.83v-.001a.337.337 0 00-.05-.081c0-.002-.002-.003-.003-.005a.337.337 0 00-.025-.027l-.005-.004a.36.36 0 00-.037-.03l-.007-.005a.338.338 0 00-.038-.021l-.006-.003a.332.332 0 00-.087-.027h-.009a.322.322 0 00-.039-.003h-.008a.337.337 0 00-.093.013l-.004.001a.317.317 0 00-.084.04l-.004.002a.347.347 0 00-.035.027l-.008.008-.012.012-2.696 2.803L6.082 9.59v1.293a.337.337 0 00.673 0V9.59l4.314 10.353.001.003.425 1.019H9.992zm2.233 0l-.34-.815h10.433l.34.815H12.225z" fill="#000"/>
</svg>
