<svg width="24" height="24" fill="none" xmlns="http://www.w3.org/2000/svg">
  <defs/>
  <path d="M18.877 6.262l-2.13-1.23-.741-2.769a1.924 1.924 0 00-1.86-1.426H5.305A1.924 1.924 0 003.38 2.76V21.24c0 1.063.861 1.924 1.924 1.924h12.61a1.924 1.924 0 001.925-1.924V7.929c0-.688-.367-1.324-.962-1.667zM8.94 5.032a2.538 2.538 0 01-2.45-1.88l-.14-.518h7.796c.057 0 .108.039.123.094l.617 2.305H8.941z" fill="#80BC93"/>
  <path d="M18.877 6.262l-2.129-1.23-.742-2.769A1.924 1.924 0 0014.147.837h-.169c.101.16.18.337.231.528l.742 2.77 2.129 1.228c.595.344.962.98.962 1.667v13.31a1.924 1.924 0 01-1.924 1.925H3.677c.34.54.942.898 1.628.898h12.61a1.924 1.924 0 001.924-1.924V7.929c0-.688-.367-1.324-.962-1.667z" fill="#69AF81"/>
  <path d="M15.666 9.82l1.509-1.51a.562.562 0 10-.794-.793l-1.51 1.509H8.347l-1.508-1.51a.562.562 0 10-.795.795l1.51 1.509v8.556l-1.51 1.51a.561.561 0 10.795.793l1.508-1.509h6.526l1.509 1.51a.561.561 0 10.794-.795l-1.51-1.509V9.82zM17.274 5.338l.58-1.006 1.603.925-.581 1.005-1.602-.924z" fill="#5EA570"/>
  <path d="M19.854 5.486l-2.396-1.384.728-1.26a.28.28 0 01.383-.103l1.91 1.103a.28.28 0 01.103.383l-.728 1.26z" fill="#808B95"/>
  <path d="M8.676 10.149h5.867v7.898H8.676V10.15z" fill="#80BC93"/>
  <path d="M12.746 10.149v5.195c0 .997-.808 1.805-1.804 1.805H8.676v.898h5.867V10.15h-1.797z" fill="#69AF81"/>
  <path d="M12.862 14.662a1.253 1.253 0 01-2.507 0c0-.692 1.059-2.382 1.254-2.382.195 0 1.253 1.69 1.253 2.382z" fill="#E28086"/>
  <path d="M11.61 12.28c-.053 0-.165.12-.302.307.325.54.656 1.239.656 1.626a1.253 1.253 0 01-1.318 1.252 1.253 1.253 0 002.216-.803c0-.692-1.058-2.382-1.253-2.382z" fill="#DD636E"/>
  <path d="M12.077 2.634a.337.337 0 00-.337-.337H6.352a.337.337 0 00-.326.424l.139.518a2.879 2.879 0 002.777 2.13h5.946a.337.337 0 00.325-.424l-.617-2.304a.465.465 0 00-.449-.344h-.835a.337.337 0 100 .674h.674l.462 1.725H8.942c-.995 0-1.869-.671-2.126-1.631L6.79 2.97h4.949c.186 0 .337-.151.337-.337z" fill="#000"/>
  <path d="M19.686 5.777c.16.093.367.04.46-.123l.728-1.26a.613.613 0 00-.226-.843l-1.91-1.104a.618.618 0 00-.844.226l-.728 1.26a.337.337 0 00.124.46l.105.062-.243.422-.115-.066-.706-2.635A2.265 2.265 0 0014.147.5H5.304a2.264 2.264 0 00-2.261 2.261V21.24A2.264 2.264 0 005.304 23.5h12.61a2.264 2.264 0 002.262-2.261V19.74a.337.337 0 00-.674 0v1.498a1.59 1.59 0 01-1.588 1.587H5.304a1.59 1.59 0 01-1.587-1.587V2.76a1.59 1.59 0 011.587-1.587h8.843A1.59 1.59 0 0115.68 2.35l.742 2.77c.023.086.08.16.157.204l2.13 1.23c.489.282.793.809.793 1.374v10.24a.337.337 0 00.674 0V7.929c0-.691-.32-1.342-.852-1.768l.256-.444.106.061zM18.449 3.06l1.813 1.047-.53.92-.616-.355.138-.24a.337.337 0 00-.583-.336l-.138.239-.615-.355.531-.92zm.304 2.743l-1.018-.588.244-.422 1.018.588-.244.422z" fill="#000"/>
  <path d="M14.543 9.812H8.676a.337.337 0 00-.337.337v1.113a.337.337 0 00.674 0v-.777h5.193v7.225H9.013v-4.876a.337.337 0 00-.674 0v5.213c0 .186.15.337.337.337h5.867c.186 0 .337-.15.337-.337V10.15a.337.337 0 00-.337-.337z" fill="#000"/>
  <path d="M17.413 8.549a.9.9 0 00-1.27-1.27l-1.41 1.41H8.486l-1.41-1.41a.9.9 0 00-1.27 1.27l1.41 1.41v8.278l-1.41 1.41a.9.9 0 001.27 1.27l1.41-1.41h6.247l1.41 1.41a.9.9 0 001.27-1.27l-1.41-1.41V9.959l1.41-1.41zm-1.985 10.065l1.509 1.51a.225.225 0 01-.318.317l-1.509-1.509a.336.336 0 00-.238-.099H8.347a.336.336 0 00-.238.1l-1.51 1.508a.224.224 0 11-.317-.318l1.51-1.509a.337.337 0 00.098-.238V9.82a.337.337 0 00-.099-.239L6.282 8.072a.225.225 0 01.318-.317l1.509 1.509a.337.337 0 00.238.098h6.525c.09 0 .175-.035.238-.098l1.51-1.51a.225.225 0 01.317.318l-1.509 1.51a.337.337 0 00-.099.238v8.556c0 .09.036.175.099.238z" fill="#000"/>
  <path d="M13.2 14.662c0-.491-.375-1.224-.598-1.617-.626-1.101-.865-1.101-.993-1.101s-.367 0-.993 1.101c-.223.393-.597 1.126-.597 1.617 0 .877.713 1.59 1.59 1.59.877 0 1.59-.713 1.59-1.59zm-2.508 0c0-.438.598-1.493.917-1.92.32.427.916 1.482.916 1.92a.917.917 0 01-1.833 0z" fill="#000"/>
</svg>
