<svg width="24" height="24" fill="none" xmlns="http://www.w3.org/2000/svg">
  <defs/>
  <path d="M11.543 22.006h-9.89a.815.815 0 01-.815-.815V4.052c0-.45.365-.815.815-.815h9.89c.45 0 .816.365.816.815v17.139c0 .45-.365.815-.816.815z" fill="#FB4753"/>
  <path d="M11.542 3.237h-1.326v15.81a.817.817 0 01-.817.816H.838v1.326c0 .451.366.817.817.817h9.887a.817.817 0 00.817-.817V4.054a.817.817 0 00-.817-.817z" fill="#E21F2D"/>
  <path d="M22.713 22.006H6.436a.45.45 0 01-.45-.45v-5.072a.45.45 0 01.45-.45h16.277a.45.45 0 01.449.45v5.073a.45.45 0 01-.45.449z" fill="#56449B"/>
  <path d="M22.712 16.035h-1.818v1.973c0 1.03-.835 1.865-1.865 1.865H5.986v1.683c0 .249.202.45.45.45h16.276a.45.45 0 00.45-.45v-5.071a.45.45 0 00-.45-.45z" fill="#473984"/>
  <path d="M8.65 9.502H4.545c-.74 0-1.34-.6-1.34-1.34v-.005c0-.74.6-1.34 1.34-1.34H8.65c.74 0 1.34.6 1.34 1.34v.005c0 .74-.6 1.34-1.34 1.34z" fill="#F9C301"/>
  <path d="M9.288 6.98a1.342 1.342 0 01-1.18 1.982h-4.1c-.233 0-.45-.06-.64-.162.226.418.67.702 1.18.702h4.1a1.342 1.342 0 00.64-2.522z" fill="#E6B700"/>
  <path d="M17.727 19.215a.472.472 0 010-.39l.366-.805a.218.218 0 00-.307-.278l-1.14.657c-.645-.498-1.647-1.116-2.645-1.116-1.23 0-2.467.94-3.035 1.437a.4.4 0 000 .6c.568.498 1.804 1.437 3.035 1.437.998 0 2-.617 2.646-1.116l1.139.658a.218.218 0 00.307-.279l-.366-.805z" fill="#A5E4EF"/>
  <path d="M17.787 20.299a.218.218 0 00.307-.279l-.067-.147h-.978l.738.426zM14.002 20.757c.848 0 1.697-.445 2.33-.884h-4.66c.633.44 1.483.884 2.33.884z" fill="#67D8E4"/>
  <g fill="#FDB1B9">
    <path d="M5.747 12.923a.72.72 0 100-1.44.72.72 0 000 1.44zM7.318 14.595a.72.72 0 100-1.44.72.72 0 000 1.44zM8.97 13.155a.72.72 0 100-1.44.72.72 0 000 1.44z"/>
    <path d="M6.468 12.21a.72.72 0 100-1.44.72.72 0 000 1.44zM3.742 15.135a.72.72 0 100-1.44.72.72 0 000 1.44z"/>
  </g>
  <path d="M23.163 19.927a.337.337 0 00.337-.337v-3.105a.788.788 0 00-.788-.788H21.04a1.506 1.506 0 00-.32-1.65 1.505 1.505 0 00-2.127 0l-1.65 1.65h-4.247V4.054c0-.637-.518-1.154-1.154-1.154h-.645a1.506 1.506 0 00-1.48-1.244c-.74 0-1.357.538-1.481 1.244H1.654C1.018 2.9.5 3.417.5 4.054v17.135c0 .637.518 1.154 1.154 1.154h2.728a.337.337 0 100-.674H1.654a.48.48 0 01-.479-.48V4.054a.48.48 0 01.48-.48h9.887a.48.48 0 01.479.48v11.643H6.437a.788.788 0 00-.788.788v5.071c0 .434.354.787.788.787h16.275a.788.788 0 00.788-.787v-.361a.337.337 0 10-.675 0v.361c0 .062-.05.113-.113.113H6.438a.113.113 0 01-.113-.113v-5.071c0-.062.05-.113.113-.113h16.275c.063 0 .113.05.113.113v3.105c0 .186.151.337.338.337zM9.416 2.331a.83.83 0 01.786.569H8.63a.83.83 0 01.786-.569zm9.655 12.193a.823.823 0 01.585-.243.83.83 0 01.586 1.415l-.001.001h-2.344l1.174-1.173z" fill="#000"/>
  <path d="M4.548 7.155h.48a.337.337 0 100-.675h-.48c-.926 0-1.68.753-1.68 1.68 0 .926.754 1.68 1.68 1.68h4.1c.927 0 1.68-.754 1.68-1.68 0-.927-.753-1.68-1.68-1.68h-2a.337.337 0 100 .675h2a1.006 1.006 0 010 2.01h-4.1a1.006 1.006 0 010-2.01zM18.4 18.16a.554.554 0 00-.782-.71l-.946.546c-.696-.508-1.674-1.05-2.67-1.05-1.323 0-2.609.952-3.257 1.52a.736.736 0 000 1.109c.648.567 1.934 1.52 3.257 1.52.996 0 1.973-.543 2.67-1.05l.946.546a.554.554 0 00.783-.71l-.366-.805a.134.134 0 010-.111l.366-.805zm-.98 1.195l.212.465-.816-.471a.337.337 0 00-.375.025c-.618.477-1.543 1.046-2.44 1.046-1.143 0-2.347-.946-2.812-1.353a.06.06 0 01-.02-.047.06.06 0 01.02-.046c.465-.407 1.67-1.353 2.813-1.353.896 0 1.821.569 2.439 1.046a.337.337 0 00.375.025l.816-.471-.211.465a.81.81 0 000 .67z" fill="#000"/>
  <path d="M12.857 19.425a.405.405 0 100-.81.405.405 0 000 .81zM6.761 12.505a1.059 1.059 0 00-.293-2.073 1.06 1.06 0 00-1.012.755 1.059 1.059 0 101.305 1.319zm-.293-1.398a.383.383 0 01.249.673 1.064 1.064 0 00-.537-.542c.07-.08.174-.13.288-.13zm-1.103 1.096a.383.383 0 11.766 0 .383.383 0 01-.766 0zM7.318 12.817a1.059 1.059 0 000 2.115 1.059 1.059 0 000-2.115zm0 1.44a.383.383 0 11.001-.766.383.383 0 010 .766zM10.028 12.435a1.059 1.059 0 00-2.115 0 1.059 1.059 0 002.115 0zm-1.44 0a.383.383 0 11.766 0 .383.383 0 01-.766 0zM3.742 15.472a1.059 1.059 0 000-2.115 1.059 1.059 0 000 2.115zm0-1.44a.383.383 0 110 .766.383.383 0 010-.766z" fill="#000"/>
</svg>
