<svg width="24" height="24" fill="none" xmlns="http://www.w3.org/2000/svg">
  <defs/>
  <g fill-rule="evenodd" clip-rule="evenodd">
    <path d="M7.421 16.124c-1.041-.389-2.55-.735-4.455-.076a7.874 7.874 0 00-.818.336c-.972.461-1.506 1.723-1.023 1.723H5.87s.434-1.381 1.418-1.915l.132-.068z" fill="#03BED7"/>
    <path d="M9.23 15.753c-.607-.01-1.205.074-1.808.371l-.133.068c-.984.534-1.418 1.915-1.418 1.915h16.857c.616 0 .264-1.38-1.045-2.4-1.334-1.044-3.664-1.712-6.976-.169-1.334.62-2.517.55-3.63.41-.633-.08-1.244-.183-1.847-.195z" fill="#A6E7F0"/>
    <path d="M3.904 8.14C1.766 8.332.783 10.382.841 12.37v.028l11.037 1.414 11.276-1.414c.068-2-.914-4.065-3.063-4.257-.729-.065.73 2.217-2.838 2.222H6.744c-3.57-.005-2.11-2.287-2.84-2.222z" fill="#FFD659"/>
    <path d="M23.155 12.398H.842c.055 1.6.783 3.138 2.124 3.65 1.906-.658 3.415-.313 4.456.076.603-.297 1.202-.381 1.809-.37.602.01 1.213.114 1.847.194 1.113.14 2.295.21 3.63-.41 3.312-1.543 5.641-.874 6.975.168.926-.7 1.427-1.99 1.472-3.308z" fill="#FE636E"/>
    <path d="M11.243 12.398L9.23 15.753c.603.012 1.214.115 1.848.195l2.13-3.55 1.217-2.03 1.92-3.202a.844.844 0 00-.289-1.154.846.846 0 00-1.156.29L12.46 10.37l-1.216 2.027z" fill="#ECECEC"/>
    <path d="M23.154 12.398c.067-2-.914-4.066-3.063-4.258-.253-.022-.242.238-.27.59 1.022.799 1.49 2.232 1.443 3.632l-.002.036h1.892z" fill="#FFBF00"/>
    <path d="M21.248 12.637c-.072.873-.346 1.715-.81 2.363a4.91 4.91 0 011.245.706c.925-.7 1.427-1.99 1.471-3.308h-1.892c-.002.08-.007.159-.014.239z" fill="#FB2A39"/>
    <path d="M16.052 6.01l-2.542 4.237-.069.116-1.148 1.914-.073.12-.812 1.354-1.245 2.076c.3.037.605.081.914.12l1.322-2.202.808-1.347 1.218-2.03.003-.005 1.917-3.197a.844.844 0 00-.29-1.154l-.003-.001z" fill="#CECECE"/>
    <path d="M21.683 15.706A4.914 4.914 0 0020.438 15c-1.064-.415-2.454-.549-4.171-.054a5.121 5.121 0 012.451 1.02c.962.75 1.407 1.693 1.332 2.14h2.678c.616 0 .264-1.379-1.045-2.4z" fill="#6BD9E7"/>
  </g>
  <path d="M22.247 15.743a3.761 3.761 0 00-.044-.041c1.145-1.133 1.61-3.226 1.078-5.077-.476-1.657-1.627-2.686-3.159-2.823a.53.53 0 00-.402.119c-.194.165-.211.416-.23.681-.02.3-.044.641-.293.906-.322.342-.976.516-1.944.516h-2.226l1.61-2.683c.161-.27.208-.587.132-.894a1.172 1.172 0 00-.538-.726 1.185 1.185 0 00-1.621.406l-.762 1.269-.232.387a.34.34 0 10.583.349l.993-1.655a.505.505 0 01.69-.174.497.497 0 01.228.309.498.498 0 01-.056.38l-1.887 3.146a.338.338 0 00-.064.107L10.9 15.582l-.194-.026c-.297-.04-.596-.08-.897-.108l3.705-6.177a.34.34 0 10-.582-.349l-.66 1.102H6.744c-.969 0-1.623-.174-1.945-.517-.25-.264-.273-.604-.294-.905-.018-.265-.036-.516-.23-.681a.53.53 0 00-.402-.119C1.471 8.017.442 10.326.503 12.381v.017c0 .013 0 .027.002.04.033.86.244 1.67.613 2.345.276.507.634.918 1.052 1.217l-.166.077C1.116 16.5.502 17.511.622 18.044a.501.501 0 00.504.402h21.602a.6.6 0 00.578-.386c.221-.555-.224-1.53-1.059-2.317zm-4.994-5.04c2.772 0 2.868-1.387 2.915-2.053.003-.05.007-.108.013-.158 1.178.152 2.066.992 2.447 2.32.117.405.177.827.188 1.246h-9.009l.813-1.355h2.633zM13.4 12.737h9.39c-.104 1.02-.502 1.961-1.121 2.538-1.185-.822-3.516-1.717-7.105-.044-1.05.489-2.007.52-2.923.438l1.759-2.932zm-12.194 0h3.797a.34.34 0 100-.679H1.181c.048-1.627.865-3.338 2.635-3.566.005.05.01.108.013.158.046.666.143 2.053 2.916 2.053h5.12l-.813 1.355H6.687a.34.34 0 000 .68h3.957l-1.607 2.678c-.54.01-1.085.098-1.632.342-1.495-.529-2.952-.553-4.426-.072-.965-.43-1.635-1.552-1.773-2.949zm1.089 3.954c1.831-.87 3.297-.752 4.36-.46-.55.495-.876 1.18-1.02 1.536H1.308c.09-.276.438-.816.987-1.076zm20.39 1.076H6.376c.194-.407.548-.99 1.075-1.277a3.2 3.2 0 01.13-.066c.543-.265 1.082-.342 1.643-.332h.011c.441.01.897.07 1.38.137.136.018.274.037.413.054l.01.002c1.134.143 2.4.22 3.813-.439 3.99-1.86 6.211-.312 6.981.44.675.657.872 1.28.853 1.481z" fill="#000"/>
</svg>
