<svg width="24" height="24" fill="none" xmlns="http://www.w3.org/2000/svg">
  <defs/>
  <path d="M6.509 23.05A5.558 5.558 0 01.95 17.492V6.508a5.558 5.558 0 1111.117 0v10.984A5.558 5.558 0 016.51 23.05z" fill="#5B9ED6"/>
  <path d="M8.364 1.267a5.539 5.539 0 011.457 3.751v10.984a5.558 5.558 0 01-7.415 5.24 5.558 5.558 0 009.66-3.751V6.509a5.56 5.56 0 00-3.702-5.24z" fill="#4E88B8"/>
  <path d="M.95 12v5.492a5.558 5.558 0 1011.117 0V12H.95z" fill="#EF2D57"/>
  <path d="M9.82 12v4.002a5.558 5.558 0 01-7.414 5.24 5.558 5.558 0 009.66-3.751V12H9.822z" fill="#BF2445"/>
  <path d="M21.677 4.229a4.688 4.688 0 10-6.63 6.63 4.688 4.688 0 006.63-6.63z" fill="#F9A029"/>
  <path d="M21.678 4.229a4.696 4.696 0 00-.934-.725 4.69 4.69 0 01-6.42 6.42 4.688 4.688 0 107.354-5.696z" fill="#CC8322"/>
  <path d="M21.677 14.538a4.688 4.688 0 10-6.63 6.63 4.688 4.688 0 006.63-6.63z" fill="#F9A029"/>
  <path d="M21.677 14.538a4.7 4.7 0 00-.922-.718 4.69 4.69 0 01-6.425 6.425 4.688 4.688 0 107.347-5.707z" fill="#CC8322"/>
  <path d="M6.508.5h-.113A5.902 5.902 0 00.5 6.396v11.208a5.902 5.902 0 005.895 5.895h.113a5.902 5.902 0 005.896-5.895V6.396A5.902 5.902 0 006.508.5zm5.222 11.163H6.418a.337.337 0 000 .674h5.312v5.267a5.228 5.228 0 01-5.222 5.222h-.113a5.228 5.228 0 01-5.221-5.222v-5.267h3.52a.337.337 0 000-.674h-3.52V6.396a5.228 5.228 0 015.221-5.222h.113a5.228 5.228 0 015.222 5.222v5.267zM22.014 11.084a5.07 5.07 0 000-7.173 5.07 5.07 0 00-7.174 0 5.07 5.07 0 000 7.173 5.07 5.07 0 007.174 0zm-6.926-6.45l3.1 3.102a.337.337 0 00.477-.476l-3.101-3.102a4.396 4.396 0 015.973.23 4.396 4.396 0 01.23 5.973l-2.075-2.074a.337.337 0 10-.476.476l2.074 2.074a4.396 4.396 0 01-5.973-.23 4.396 4.396 0 01-.23-5.972z" fill="#000"/>
  <path d="M22.013 14.325a5.07 5.07 0 00-7.173 0 5.07 5.07 0 000 7.173 5.07 5.07 0 007.173 0 .337.337 0 00-.476-.476 4.396 4.396 0 01-5.973.23l2.074-2.075 4.128-4.128a4.378 4.378 0 01.563 4.895.337.337 0 10.597.311 5.072 5.072 0 00-.913-5.93zm-6.696.477a4.396 4.396 0 015.973-.23l-6.203 6.203a4.396 4.396 0 01.23-5.973z" fill="#000"/>
</svg>
