<svg width="24" height="24" fill="none" xmlns="http://www.w3.org/2000/svg">
  <defs/>
  <path d="M14.98 7.478a.608.608 0 01-.526-.913l1.834-3.178a.608.608 0 011.054 0l.596 1.033V2.338c0-.83-.672-1.501-1.5-1.501H6.24c-.829 0-1.5.672-1.5 1.5v19.325a1.5 1.5 0 001.5 1.501h10.196a1.5 1.5 0 001.501-1.5V7.477h-2.957z" fill="#808B95"/>
  <path d="M16.141 20.764a1.5 1.5 0 01-1.5 1.5H4.865c.232.53.76.899 1.375.899h10.196c.83 0 1.501-.672 1.501-1.501V7.477h-1.797v13.287zM16.438.837h-.422c.08.184.126.388.126.602v2.203l.147-.255a.608.608 0 011.054 0l.596 1.033V2.338c0-.83-.672-1.501-1.501-1.501z" fill="#5E6B75"/>
  <path d="M11.34 3.113a.576.576 0 100-1.153.576.576 0 000 1.153z" fill="#D5D8F1"/>
  <path d="M14.98 7.478a.609.609 0 01-.526-.913l1.834-3.178a.603.603 0 01.527-.304v-.745a.378.378 0 00-.378-.378h-3.033a.378.378 0 00-.378.378v.198a1.687 1.687 0 01-3.374 0h-.004v-.198a.378.378 0 00-.378-.378H6.241a.378.378 0 00-.378.378v19.324c0 .209.17.378.378.378h10.196c.21 0 .378-.17.378-.378V7.478h-1.834z" fill="#707DD3"/>
  <path d="M15.018 19.21a1.932 1.932 0 01-1.931 1.931H5.863v.521c0 .209.17.378.378.378h10.196c.21 0 .378-.17.378-.378V7.477h-1.797V19.21z" fill="#5766CB"/>
  <path d="M16.438 1.96h-1.42v3.627l1.27-2.2a.603.603 0 01.527-.304v-.745a.378.378 0 00-.378-.378z" fill="#707DD3"/>
  <path d="M9.075 11.399a.784.784 0 100-1.57.784.784 0 000 1.57zM13.675 11.372a.784.784 0 10-.38-1.522.784.784 0 00.38 1.522z" fill="#808B95"/>
  <path d="M15.131 8.762l-2.077-.146H8.526l-1.089.136a.363.363 0 00-.318.36v1.433h1.175a.784.784 0 011.562 0h2.847a.784.784 0 011.562 0h1.295V9.222a.46.46 0 00-.429-.46z" fill="#E28086"/>
  <path d="M15.131 8.762l-.112-.008v1.79h.54V9.223a.461.461 0 00-.428-.46z" fill="#DD636E"/>
  <path d="M12.644 7.646a.726.726 0 00-.67-.444h-1.488v1.414h2.568l-.41-.97z" fill="#BEC3EA"/>
  <path d="M9.6 7.202a.726.726 0 00-.67.447l-.404.967h1.96V7.202H9.6z" fill="#D5D8F1"/>
  <g fill="#5766CB">
    <path d="M7.19 13.286h1.474v1.474H7.189v-1.474zM7.19 16.332h1.474v1.475H7.189v-1.474zM7.19 19.38h1.474v1.474H7.189v-1.475z"/>
  </g>
  <path d="M16.288 3.387l-1.835 3.178a.608.608 0 00.527.913h3.67a.608.608 0 00.527-.913l-1.835-3.178a.609.609 0 00-1.054 0z" fill="#F6E266"/>
  <path d="M19.177 6.565l-1.834-3.178a.608.608 0 00-.921-.159l1.408 2.438a.608.608 0 01-.527.913h-2.856a.608.608 0 00.534.898h3.67a.608.608 0 00.526-.912z" fill="#F1D333"/>
  <path d="M12.252 2.536a.914.914 0 00-1.826 0 .914.914 0 001.826 0zm-1.152 0a.24.24 0 11.48.001.24.24 0 01-.48 0zM15.897 9.222a.8.8 0 00-.742-.796l-1.871-.132-.33-.78a1.061 1.061 0 00-.98-.649H9.6c-.431 0-.816.257-.982.654l-.328.787-.895.112a.701.701 0 00-.613.695v1.432c0 .186.151.337.337.337h.867a1.123 1.123 0 002.178 0h2.23a1.123 1.123 0 002.178 0h.988c.186 0 .337-.151.337-.337V9.222zm-3.564-1.445l.213.502h-1.723v-.74h1.152c.156 0 .297.093.358.238zm-3.093.002a.388.388 0 01.36-.24h.55v.74H9.03l.209-.5zm-.165 3.283a.448.448 0 01-.446-.48l.001-.015c.02-.225.214-.4.445-.4.23 0 .426.175.445.4l.001.015.002.032c0 .247-.201.448-.448.448zm4.409 0a.448.448 0 01-.446-.48l.001-.015c.02-.225.214-.4.445-.4.23 0 .426.175.445.4l.001.015.002.032c0 .247-.201.448-.448.448zm1.739-.854h-.694a1.123 1.123 0 00-2.09 0H10.12a1.123 1.123 0 00-2.09 0h-.574V9.113c0-.013.01-.025.023-.026l1.068-.134h4.495l2.066.145a.124.124 0 01.115.124v.986zM9 13.286a.337.337 0 00-.336-.337H7.189a.337.337 0 00-.336.337v1.474c0 .186.15.337.336.337h1.475c.186 0 .337-.151.337-.337v-1.474zm-.673 1.137h-.8v-.8h.8v.8zM9 16.332a.337.337 0 00-.336-.337H7.189a.337.337 0 00-.336.337v1.475c0 .186.15.337.336.337h1.475c.186 0 .337-.151.337-.337v-1.475zm-.673 1.138h-.8v-.8h.8v.8zM8.664 19.042H7.189a.337.337 0 00-.336.337v1.474c0 .186.15.337.336.337h1.475c.186 0 .337-.15.337-.337V19.38a.337.337 0 00-.337-.337zm-.337 1.474h-.8v-.8h.8v.8zM15.49 12.949H9.787a.337.337 0 000 .673h5.703a.337.337 0 100-.673zM9.787 14.745h3.973a.337.337 0 000-.673H9.787a.337.337 0 100 .674zM15.827 16.332a.337.337 0 00-.337-.337H9.787a.337.337 0 000 .674h5.703c.186 0 .337-.15.337-.337zM9.787 17.792h1.93a.337.337 0 100-.674h-1.93a.337.337 0 100 .674zM14.234 19.379a.337.337 0 00-.337-.337h-4.11a.337.337 0 100 .674h4.11c.186 0 .337-.151.337-.337zM9.787 20.165a.337.337 0 000 .674h3.002a.337.337 0 000-.674H9.787z" fill="#000"/>
  <path d="M19.469 6.396l-.188-.325a.337.337 0 00-.584.337l.188.325c.07.123.024.231 0 .272a.267.267 0 01-.235.136h-3.67a.267.267 0 01-.234-.136.267.267 0 010-.272l1.834-3.177a.267.267 0 01.235-.136c.047 0 .165.013.235.136l.851 1.474a.337.337 0 00.584-.337l-.21-.364V2.338A1.84 1.84 0 0016.437.5H6.241a1.84 1.84 0 00-1.838 1.838v17.04a.337.337 0 00.674 0V2.339c0-.642.522-1.164 1.164-1.164h10.196c.642 0 1.165.522 1.165 1.164v.828a.934.934 0 00-.45-.36v-.468a.716.716 0 00-.715-.715h-3.033a.715.715 0 00-.715.715v.198c0 .745-.605 1.35-1.35 1.35-.744 0-1.35-.605-1.35-1.35 0-.02 0 .073-.004-.198a.719.719 0 00-.715-.715H6.241a.716.716 0 00-.715.715v19.324c0 .394.321.715.715.715h10.196c.394 0 .715-.32.715-.715V10.73a.337.337 0 00-.674 0v10.933a.041.041 0 01-.04.041H6.24a.041.041 0 01-.04-.04V2.337c0-.023.018-.041.04-.041h3.03c.022 0 .04.018.04.04 0 .186.005.259.005.259A2.026 2.026 0 0011.34 4.56a2.026 2.026 0 002.024-2.024v-.198a.04.04 0 01.041-.041h3.033c.023 0 .041.018.041.04v.47a.937.937 0 00-.481.412l-1.835 3.177a.936.936 0 000 .946c.17.296.477.472.819.472h1.497v1.343a.337.337 0 10.674 0V7.814h.45v13.848c0 .642-.523 1.164-1.165 1.164H6.241a1.165 1.165 0 01-1.164-1.164v-.71a.337.337 0 00-.674 0v.71A1.84 1.84 0 006.241 23.5h10.196a1.84 1.84 0 001.838-1.838V7.814h.375a.936.936 0 00.819-.472.936.936 0 000-.946z" fill="#000"/>
  <path d="M16.815 6.736a.337.337 0 100-.674.337.337 0 000 .674zM17.152 5.354v-.725a.337.337 0 10-.674 0v.725a.337.337 0 10.674 0zM7.12 5.463h2.98a.337.337 0 100-.674H7.12a.337.337 0 100 .674zM7.12 6.676h1.299a.337.337 0 100-.674h-1.3a.337.337 0 100 .674z" fill="#000"/>
</svg>
