<svg width="24" height="24" fill="none" xmlns="http://www.w3.org/2000/svg">
  <defs/>
  <path d="M17.295 22.454H6.953v-1.14l2.026-2.183a.757.757 0 01.556-.242h5.179c.21 0 .412.087.555.242l2.026 2.183v1.14z" fill="#E28086"/>
  <path d="M15.269 19.13a.757.757 0 00-.555-.241h-.633l1.199 1.291a.818.818 0 01-.6 1.375H6.953v.899h10.342v-1.14l-2.026-2.183z" fill="#DD636E"/>
  <path d="M10.117 21.165a.576.576 0 100-1.153.576.576 0 000 1.152zM14.131 21.165a.576.576 0 100-1.153.576.576 0 000 1.152z" fill="#DAE4EA"/>
  <path d="M14.446 7.684v2.47a.899.899 0 01-.899.899h-2.846a.899.899 0 01-.898-.899v-2.47h1.214l.416.475h1.382l.416-.475h1.215zM8.98 19.13a.757.757 0 01.554-.241h.321L3.85 14.637a.898.898 0 10-1.038 1.467l5.417 3.834.75-.808z" fill="#E28086"/>
  <path d="M12.648 10.155a.898.898 0 101.797 0 .898.898 0 00-1.797 0zM11.6 10.155a.898.898 0 11-1.797 0 .898.898 0 011.797 0z" fill="#DAE4EA"/>
  <path d="M10.702 11.053a.899.899 0 01-.899-.899V9.69L2.83 14.626a.899.899 0 011.02.012l1.037.733 6.1-4.318h-.285z" fill="#DD636E"/>
  <path d="M15.269 19.13a.757.757 0 00-.556-.241h-.32l6.005-4.251a.898.898 0 111.038 1.467l-5.417 3.834-.75-.808z" fill="#E28086"/>
  <path d="M13.547 11.053a.899.899 0 00.898-.899V9.69l6.973 4.936a.899.899 0 00-1.02.012l-1.037.733-6.1-4.318h.286z" fill="#DD636E"/>
  <path d="M19.362 15.371l-.803-.568H5.689l-.802.568.803.569h12.869l.803-.569zM21.613 14.803a.894.894 0 010 1.137h1.55v-1.137h-1.55z" fill="#DAE4EA"/>
  <path d="M22.887 7.824h-4.85v-1.49h4.85c.152 0 .276.125.276.278v.935a.277.277 0 01-.276.277z" fill="#E4936B"/>
  <path d="M22.887 6.335h-1.52v.493a.277.277 0 01-.277.277h-3.054v.719h4.85a.277.277 0 00.277-.277v-.935a.277.277 0 00-.276-.277z" fill="#E27D47"/>
  <path d="M18.036 7.641H16.35a.562.562 0 01-.561-.562V3.862H4.565a1.571 1.571 0 01-1.411-.848.635.635 0 00-.604-.343.635.635 0 00-.59.608.626.626 0 00.185.468.562.562 0 11-.794.794 1.762 1.762 0 01-.513-1.298A1.767 1.767 0 012.48 1.55a1.758 1.758 0 011.674.952.46.46 0 00.41.237h11.787c.31 0 .562.252.562.562v3.217h1.123V7.64z" fill="#DAE4EA"/>
  <path d="M11.03 20.588a.914.914 0 00-1.826 0 .914.914 0 001.827 0zm-1.152 0a.24.24 0 11.48 0 .24.24 0 01-.48 0zM15.044 20.588a.914.914 0 00-1.826 0 .914.914 0 001.826 0zm-1.152 0a.24.24 0 11.48 0 .24.24 0 01-.48 0zM3.332 15.708a.337.337 0 100-.674.337.337 0 000 .674zM20.917 15.708a.337.337 0 100-.674.337.337 0 000 .674z" fill="#000"/>
  <path d="M23.163 14.466h-1.405a1.23 1.23 0 00-.16-.127l-3.876-2.742a.337.337 0 00-.389.55l3.01 2.13a1.25 1.25 0 00-.14.086l-.841.596-5.241-3.71c.343-.181.591-.519.649-.917l1.243.88a.337.337 0 10.389-.55l-1.62-1.146V7.684a.337.337 0 00-.336-.337H13.23a.337.337 0 00-.254.115l-.315.36h-1.076l-.315-.36a.337.337 0 00-.254-.115H9.803a.337.337 0 00-.337.337v1.832L2.65 14.34a1.227 1.227 0 00-.237.205 1.136 1.136 0 00-1.913.826 1.136 1.136 0 001.913.826c.06.067.128.129.205.183l5.103 3.612-1.015 1.093a.337.337 0 00-.09.23v1.139c0 .186.151.337.337.337H7.6a.337.337 0 100-.674h-.31v-.67l1.937-2.087a.422.422 0 01.308-.134h5.179c.116 0 .229.049.308.134l1.936 2.087v.67H9.173a.337.337 0 100 .674h8.122c.186 0 .337-.151.337-.337v-1.14a.337.337 0 00-.09-.229l-1.014-1.093 5.103-3.612c.045-.032.087-.067.127-.103h1.405c.186 0 .337-.151.337-.337v-1.137a.337.337 0 00-.337-.337zm-8.877 4.086H9.963l-3.085-2.184a.34.34 0 00.086-.091h.793a.337.337 0 00.568 0h.793a.337.337 0 00.568 0h.793a.337.337 0 00.568 0h.793a.337.337 0 00.568 0h.793a.336.336 0 00.568 0h.793a.336.336 0 00.568 0h.793a.336.336 0 00.568 0h.794a.337.337 0 00.086.09l-3.085 2.185zm-.739-7.836h-.015a.562.562 0 11.015 0zm-.393.674l4.217 2.985a.337.337 0 00-.086.091h-.794a.337.337 0 00-.567 0h-.794a.337.337 0 00-.568 0h-.793a.337.337 0 00-.568 0h-.793a.336.336 0 00-.568 0h-.793a.336.336 0 00-.568 0h-.793a.337.337 0 00-.568 0h-.793a.337.337 0 00-.568 0h-.793a.34.34 0 00-.086-.091l4.217-2.985h2.059zm4.751 4.213v-.463h.547l.327.231-.327.232h-.547zm-1.36 0v-.463h.686v.463h-.687zm-1.362 0v-.463h.687v.463h-.687zm-1.36 0v-.463h.686v.463h-.687zm-1.362 0v-.463h.687v.463h-.687zm-1.36 0v-.463h.686v.463H11.1zm-1.362 0v-.463h.687v.463H9.74zm-1.36 0v-.463h.686v.463h-.687zm-1.362 0v-.463h.687v.463h-.687zm-1.22 0l-.327-.232.327-.231h.546v.463h-.546zm4.92-4.887h-.024a.562.562 0 11.024 0zm-.59.533l-5.24 3.71-.842-.596a1.263 1.263 0 00-.14-.086l5.574-3.945c.057.398.306.736.649.917zm.737-3.228l.316.36a.337.337 0 00.253.115h1.382c.097 0 .19-.042.254-.115l.315-.36h.725v1.033a1.237 1.237 0 00-1.662 1.662h-.645a1.237 1.237 0 00-1.662-1.662V8.021h.724zm-9.229 7.811a.462.462 0 11.001-.923.462.462 0 01-.001.923zm7.098 3.07l-.55.591-5.176-3.663a.562.562 0 01.01-.924l.004-.003a.562.562 0 01.635.01l5.34 3.78a1.088 1.088 0 00-.263.209zm7.332.592l-.55-.592a1.091 1.091 0 00-.263-.209l5.34-3.78a.557.557 0 01.637-.01l.001.002a.562.562 0 01.011.925l-5.176 3.664zm6.761-3.891h-.696a1.235 1.235 0 000-.463h.696v.463z" fill="#000"/>
  <path d="M22.887 5.998H19.45a.337.337 0 00-.584 0h-.831a.337.337 0 00-.3.183h-.486v-2.88a.9.9 0 00-.899-.899H4.565c-.055 0-.098-.027-.111-.053a2.093 2.093 0 00-1.995-1.136 2.107 2.107 0 00-1.958 2.02 2.1 2.1 0 00.611 1.546c.17.17.396.263.636.263s.465-.093.635-.263a.893.893 0 00.263-.635.893.893 0 00-.263-.635.289.289 0 01-.086-.219.299.299 0 01.273-.283c.12-.008.23.056.284.16A1.907 1.907 0 004.564 4.2h7.691a.337.337 0 100-.674h-7.69c-.476 0-.901-.255-1.111-.665a.973.973 0 00-.925-.526.974.974 0 00-.905.934.96.96 0 00.283.717.225.225 0 01-.318.318 1.424 1.424 0 01-.414-1.05A1.427 1.427 0 012.5 1.887a1.419 1.419 0 011.353.77c.13.255.41.42.71.42h11.787c.124 0 .225.1.225.225v3.217c0 .186.15.337.337.337h.786v.449H16.35a.225.225 0 01-.224-.225V3.862a.337.337 0 00-.337-.337h-1.962a.337.337 0 100 .674h1.625v2.88a.9.9 0 00.898.899h1.385c.056.109.17.183.3.183h.831a.337.337 0 00.584 0h3.435a.614.614 0 00.614-.614v-.935a.614.614 0 00-.613-.614zm-4.514.674h.449v.815h-.45v-.815zm4.453.815h-3.33v-.815h3.33v.815z" fill="#000"/>
</svg>
