<svg width="24" height="24" fill="none" xmlns="http://www.w3.org/2000/svg">
  <defs/>
  <path d="M12 7.472a1.619 1.619 0 100-3.238 1.619 1.619 0 000 3.238z" fill="#707DD3"/>
  <path d="M11.397 9.5H8.555a5.039 5.039 0 01-.879-1.101l-.335-.569 1.136-.67.336.568A3.72 3.72 0 0011.397 9.5zM9.344 4.224l-.584-.156a3.677 3.677 0 013.239-1.912 3.7 3.7 0 013.697 3.697 3.703 3.703 0 01-3.09 3.647h2.834a5.003 5.003 0 001.575-3.647A5.022 5.022 0 0012 .837a5.01 5.01 0 00-4.542 2.885l-.48-.128.666 2.259 1.7-1.63z" fill="#80BC93"/>
  <path d="M18.605 14.437l-.979-3.457a2.036 2.036 0 00-1.959-1.48H8.334c-.911 0-1.71.604-1.959 1.48l-.98 3.457h13.211z" fill="#E28086"/>
  <path d="M17.626 10.98a2.036 2.036 0 00-1.959-1.48h-.108c.118.175.21.37.27.582l.459 1.618a1.445 1.445 0 01-1.39 1.839H5.648l-.254.898h13.21l-.979-3.457z" fill="#DD636E"/>
  <path d="M21.025 21.519H2.975a.416.416 0 01-.415-.416V19.97c0-.23.186-.416.416-.416h18.049c.23 0 .416.186.416.416v1.133c0 .23-.187.416-.416.416z" fill="#DAE4EA"/>
  <path d="M21.025 19.553h-1.381v.651c0 .23-.186.416-.416.416H2.56v.483c0 .23.186.416.416.416h18.049c.23 0 .416-.186.416-.416V19.97a.416.416 0 00-.416-.416z" fill="#C6D0DA"/>
  <path d="M21.116 13.652a.785.785 0 01-.785.785h-1.726v-.742c0-.457.37-.827.827-.827h.899c.433 0 .785.351.785.784zM3.67 14.437h1.725v-.742a.827.827 0 00-.827-.827h-.899a.785.785 0 000 1.569z" fill="#E28086"/>
  <path d="M9.326 19.553h5.348v1.966H9.326v-1.965z" fill="#808B95"/>
  <path d="M12.878 19.553v.615c0 .25-.203.452-.453.452H9.326v.899h5.348v-1.965h-1.796z" fill="#5E6B75"/>
  <path d="M6.387 23.163H4.163a.604.604 0 01-.604-.604v-1.04H6.99v1.04c0 .333-.27.604-.604.604z" fill="#808B95"/>
  <path d="M17.183 14.437l-.894-3.154a.569.569 0 00-.548-.414H8.26a.569.569 0 00-.547.414l-.894 3.154h10.365z" fill="#D5D8F1"/>
  <path d="M16.086 10.985l.202.715a1.445 1.445 0 01-1.39 1.839H7.073l-.255.898h10.365l-.894-3.154a.568.568 0 00-.203-.298z" fill="#BEC3EA"/>
  <path d="M18.76 14.437H5.24a2.09 2.09 0 00-2.086 1.981l-.164 3.136h18.02l-.163-3.136a2.09 2.09 0 00-2.087-1.98z" fill="#E28086"/>
  <path d="M20.847 16.418a2.09 2.09 0 00-2.087-1.98h-.08c.215.309.35.68.37 1.082l.027.518a2.488 2.488 0 01-2.484 2.617H3.037l-.047.898h18.02l-.163-3.135z" fill="#DD636E"/>
  <path d="M4.756 16.156v1.05c0 .51.414.924.924.924h.38v-1.974H4.756z" fill="#E4936B"/>
  <path d="M6.06 16.156h2.232v1.974H6.06v-1.974z" fill="#F6F9F9"/>
  <path d="M19.244 16.156v1.05c0 .51-.414.924-.924.924h-.38v-1.974h1.304z" fill="#E4936B"/>
  <path d="M18.121 18.13h.199c.51 0 .924-.414.924-.925v-1.049h-.164a2.484 2.484 0 01-.959 1.974z" fill="#E27D47"/>
  <path d="M15.707 16.156h2.233v1.974h-2.233v-1.974z" fill="#F6F9F9"/>
  <path d="M12.964 18.328h-1.927a1.62 1.62 0 01-1.621-1.62v-.679h5.169v.679a1.62 1.62 0 01-1.62 1.62z" fill="#808B95"/>
  <path d="M12.773 16.03a1.62 1.62 0 01-1.606 1.4H9.586a1.62 1.62 0 001.45.898h1.928a1.62 1.62 0 001.62-1.62v-.679h-1.811z" fill="#5E6B75"/>
  <path d="M19.838 23.163h-2.224a.604.604 0 01-.604-.604v-1.04h3.432v1.04c0 .333-.27.604-.604.604z" fill="#808B95"/>
  <path d="M21.334 19.283l-.15-2.882a2.42 2.42 0 00-.75-1.632 1.123 1.123 0 00-.102-2.238h-.9c-.36 0-.683.165-.896.423l-.586-2.065a2.384 2.384 0 00-1.788-1.674c.228-.281.427-.585.595-.909a.337.337 0 00-.599-.31c-.223.432-.51.823-.854 1.167h-1.002a4.032 4.032 0 001.73-3.31A4.038 4.038 0 0012 1.819c-1.474 0-2.828.8-3.534 2.087a.337.337 0 00.209.488l.004.001-.868.832-.345-1.169a.337.337 0 00.297-.193 4.68 4.68 0 018.86 2.722.337.337 0 00.665.105A5.359 5.359 0 0012 .5a5.354 5.354 0 00-4.72 2.826l-.216-.058a.337.337 0 00-.41.421l.666 2.26a.337.337 0 00.556.147l1.701-1.629a.337.337 0 00-.146-.569l-.14-.037a3.364 3.364 0 016.068 1.992 3.366 3.366 0 01-2.78 3.31h-1.153a3.363 3.363 0 01-2.323-1.606l-.335-.568a.337.337 0 00-.461-.12L7.17 7.54a.337.337 0 00-.119.462l.335.568c.134.226.284.442.449.646A2.384 2.384 0 006.05 10.89l-.585 2.065a1.162 1.162 0 00-.897-.423h-.899a1.123 1.123 0 00-.102 2.238 2.42 2.42 0 00-.75 1.632l-.15 2.882a.754.754 0 00-.444.687v1.133c0 .415.337.753.753.753h.245v.703c0 .519.422.941.941.941h2.224a.942.942 0 00.942-.941v-.703h7.77a.337.337 0 100-.674h-.087v-1.291h6.014a.08.08 0 01.079.079v1.133a.08.08 0 01-.08.079H16.67a.337.337 0 100 .674h.003v.703c0 .519.422.941.94.941h2.225a.942.942 0 00.94-.941v-.703h.247a.754.754 0 00.753-.753V19.97a.754.754 0 00-.444-.687zm-2.365 2.573v.97h-.487v-.97h.487zm-1.623.703v-.703h.463v.97h-.195a.268.268 0 01-.268-.267zm2.759 0c0 .147-.12.267-.267.267h-.195v-.97h.462v.703zm-1.163-8.864c0-.27.22-.49.49-.49h.9a.448.448 0 010 .895h-1.39v-.405zM8.36 7.62l.164.278c.3.508.7.936 1.171 1.264H8.692a4.692 4.692 0 01-.725-.936l-.164-.278.556-.328zm-1.66 3.451a1.705 1.705 0 011.634-1.235h7.335c.756 0 1.428.508 1.634 1.235l.858 3.028h-.723l-.824-2.909a.91.91 0 00-.872-.659H8.26a.91.91 0 00-.871.66L6.563 14.1H5.84l.858-3.028zm-3.478 2.58c0-.246.201-.447.448-.447h.899c.27 0 .49.22.49.49v.405H3.669a.448.448 0 01-.448-.448zm-.325 7.45V19.97a.08.08 0 01.08-.08h6.013v1.292H2.976a.08.08 0 01-.08-.08zm2.622.754v.97H5.03v-.97h.487zm-1.623.703v-.703h.462v.97h-.195a.268.268 0 01-.267-.267zm2.759 0c0 .147-.12.267-.268.267h-.194v-.97h.462v.703zm7.683-1.377H9.663V19.89h4.674v1.292zM3.345 19.217l.145-2.781a1.752 1.752 0 011.75-1.662h2.754a.337.337 0 100-.674h-.73l.772-2.725c.028-.1.12-.169.223-.169h7.482c.103 0 .195.07.223.169l.773 2.725h-7.17a.337.337 0 100 .674h9.193c.933 0 1.702.73 1.75 1.662l.145 2.78H3.345z" fill="#000"/>
  <path d="M8.292 15.82H4.756a.337.337 0 00-.337.336v1.05c0 .695.566 1.26 1.261 1.26h2.612c.187 0 .337-.15.337-.336v-1.974a.337.337 0 00-.337-.337zm-3.2 1.386v-.713h.63v1.3H5.68a.588.588 0 01-.587-.587zm2.864.587h-1.56v-1.3h1.56v1.3zM19.244 15.82h-3.537a.337.337 0 00-.337.336v1.974c0 .186.151.337.337.337h2.612c.696 0 1.262-.566 1.262-1.262v-1.049a.337.337 0 00-.337-.337zm-3.2.673h1.56v1.3h-1.56v-1.3zm2.863.713a.588.588 0 01-.588.587h-.042v-1.3h.63v.713zM14.585 15.692H9.416a.337.337 0 00-.337.337v.679a1.96 1.96 0 001.958 1.957h1.927a1.96 1.96 0 001.958-1.957v-.679a.337.337 0 00-.337-.337zm-.337 1.016c0 .708-.576 1.284-1.284 1.284h-1.927a1.285 1.285 0 01-1.284-1.284v-.342h4.495v.342z" fill="#000"/>
  <path d="M11.262 17.473h1.476a.337.337 0 100-.674h-1.476a.337.337 0 000 .674zM13.956 5.853a1.958 1.958 0 00-1.955-1.955 1.958 1.958 0 00-1.956 1.955c0 1.079.877 1.956 1.956 1.956a1.958 1.958 0 001.955-1.956zm-3.237 0c0-.707.575-1.282 1.282-1.282.706 0 1.281.575 1.281 1.282 0 .707-.575 1.282-1.281 1.282a1.283 1.283 0 01-1.282-1.282z" fill="#000"/>
</svg>
