<svg width="24" height="24" fill="none" xmlns="http://www.w3.org/2000/svg">
  <defs/>
  <path d="M18.56 14.871c-.201 0-.396-.005-.584-.015-.84-.044-1.555-.185-2.162-.405-2.29-.832-3.046-2.797-3.277-4.987-.117-1.098-.002-2.371.678-3.609 0 0 .408 2.07 1.708 2.803 0 0-1.006-4.756 2.314-7.816 0 0-.009 2.085 1.652 4.334 1.447 1.958 2.01 3.417 1.063 5.726 0 0 1.486-1.089 2.707-3.968 0 0 2.376 7.453-4.099 7.937z" fill="#DA4A54"/>
  <path d="M13.7 18.42H7.36l-4.24-1.347V14.78c0-3.82 3.975-6.066 6.717-6.066a4.965 4.965 0 014.965 4.965s4.044-.112 4.044 3.393" fill="#78D090"/>
  <path d="M4.918 17.073l2.286 1.348H5.407L3.12 17.073V14.78c0-3.82 3.975-6.066 6.718-6.066.299 0 .592.027.876.077-2.63.425-5.796 2.58-5.796 5.989v2.292z" fill="#63AF7D"/>
  <path d="M16.297 17.073h2.599a.673.673 0 01.674.673.674.674 0 01-.674.675h-2.272" fill="#EEEBEE"/>
  <path d="M15.162 19.566a1.505 1.505 0 100-3.01 1.505 1.505 0 000 3.01z" fill="#5E6B75"/>
  <path d="M13.677 13.68H4.394c.27-.985.878-1.726 1.467-2.243.095-.083.19-.16.28-.232 1.083-.841 2.5-1.364 3.697-1.364a3.844 3.844 0 013.84 3.84z" fill="#BCD0DF"/>
  <path d="M13.677 13.68h-5.27l3.214-3.399a3.844 3.844 0 012.056 3.4z" fill="#DAE7EF"/>
  <path d="M16.842 16.264a.58.58 0 100-1.158.58.58 0 000 1.158z" fill="#BCD0DF"/>
  <path d="M10.484 15.915c-.196 1.018-.78 3.602-1.975 5.722a.694.694 0 01-.334.298c-.423.18-1.388.612-2.06 1.092a.704.704 0 01-.819 0c-.671-.48-1.636-.913-2.06-1.092a.694.694 0 01-.333-.298c-1.196-2.12-1.78-4.704-1.975-5.722a.694.694 0 01.29-.704c.782-.536 2.677-1.736 4.37-2.046a.688.688 0 01.235 0c1.694.31 3.588 1.51 4.371 2.046a.694.694 0 01.29.704z" fill="#F1D333"/>
  <path d="M5.706 13.155v10.004a.704.704 0 01-.41-.132c-.671-.48-1.636-.913-2.06-1.092a.693.693 0 01-.333-.299c-1.196-2.12-1.78-4.703-1.975-5.72a.694.694 0 01.29-.705c.782-.536 2.677-1.736 4.37-2.046a.687.687 0 01.118-.01z" fill="#DAB72B"/>
  <path d="M9.323 15.982c-.223 1.073-.75 3.194-1.724 4.975-.49.213-1.251.57-1.893.986-.641-.416-1.403-.773-1.893-.986-.973-1.78-1.5-3.902-1.723-4.975.71-.467 2.277-1.42 3.616-1.693 1.339.273 2.906 1.226 3.617 1.693z" fill="#E27D47"/>
  <path d="M5.706 14.29v7.654c-.641-.417-1.403-.774-1.893-.987-.973-1.78-1.5-3.902-1.723-4.975.71-.467 2.277-1.42 3.616-1.693z" fill="#DD6938"/>
  <path d="M23.394 9.062c-.1-1.25-.397-2.193-.41-2.232a.342.342 0 00-.64-.03c-.556 1.311-1.17 2.241-1.661 2.856.12-.67.1-1.298-.054-1.919a.342.342 0 00-.663.166c.218.877.114 1.789-.33 2.87a.342.342 0 00.518.405c.057-.042 1.262-.943 2.402-3.208.23 1.212.43 3.35-.583 4.85-.684 1.013-1.836 1.588-3.425 1.71a10.8 10.8 0 01-.364-.007c-.983-.942-2.403-1.137-3.05-1.176a5.308 5.308 0 00-2.267-4.021c-.08-.888.015-1.723.285-2.493.269.71.764 1.65 1.604 2.123a.342.342 0 00.502-.368c-.003-.012-.24-1.172-.08-2.677.183-1.723.785-3.17 1.793-4.31.138.84.53 2.272 1.643 3.778.381.516.659.94.873 1.335a.342.342 0 10.601-.326c-.23-.424-.523-.873-.924-1.415C17.598 2.852 17.58.863 17.58.843a.342.342 0 00-.573-.253c-1.42 1.31-2.288 3.132-2.51 5.272-.081.774-.065 1.456-.025 1.96-.671-.819-.917-2.018-.92-2.033a.342.342 0 00-.635-.098c-.535.972-.788 2.053-.758 3.217a5.273 5.273 0 00-2.32-.535c-1.407 0-3.02.548-4.317 1.465-1.454 1.03-2.393 2.439-2.661 3.985-.548.284-1.162.645-1.836 1.106-.34.233-.51.646-.432 1.05.119.62.39 1.861.866 3.23a.342.342 0 00.646-.225 23.144 23.144 0 01-.84-3.133.352.352 0 01.147-.358c.728-.499 2.6-1.691 4.24-1.992a.311.311 0 01.11 0c1.64.3 3.512 1.493 4.24 1.992.116.08.174.22.148.358-.193.998-.767 3.543-1.938 5.618a.354.354 0 01-.17.152c-.5.212-1.444.641-2.125 1.128a.361.361 0 01-.42 0c-.682-.487-1.625-.916-2.126-1.128a.355.355 0 01-.17-.152 13.297 13.297 0 01-.61-1.235.342.342 0 00-.627.272c.2.462.416.899.641 1.298.112.198.289.357.5.446.382.163 1.343.59 1.994 1.055a1.044 1.044 0 001.216 0c.65-.465 1.612-.892 1.995-1.055.21-.09.387-.248.498-.445.554-.983.978-2.061 1.296-3.043h3.35a1.85 1.85 0 001.71 1.146 1.85 1.85 0 001.707-1.146h2.026a1.017 1.017 0 00.282-1.991c-.039-.592-.19-1.117-.457-1.57 1.745-.159 3.03-.83 3.818-1.999.694-1.027.99-2.459.855-4.14zM5.527 12.83a5.92 5.92 0 00-.46.105c.189-.341.434-.665.733-.969v.852a.993.993 0 00-.273.012zm4.652-2.63a3.504 3.504 0 013.14 3.14h-3.14v-3.14zm-.683 3.14h-1.98a9.837 9.837 0 00-1.032-.366v-1.598c.9-.661 2.015-1.094 3.012-1.177v3.14zm3.819 4.722v.018h-3.003c.258-.89.42-1.648.508-2.099a1.036 1.036 0 00-.433-1.05 18.127 18.127 0 00-1.463-.908h4.753a.342.342 0 00.342-.342A4.186 4.186 0 009.837 9.5c-1.27 0-2.766.55-3.905 1.435-.103.08-.203.162-.297.245-.684.601-1.173 1.288-1.453 2.044-.168.064-.347.138-.538.222.41-1.466 1.432-2.456 2.272-3.05 1.185-.838 2.651-1.339 3.922-1.339a4.628 4.628 0 014.623 4.623.342.342 0 00.35.342c.019 0 1.846-.034 2.915 1.009.445.434.701 1.005.763 1.7h-2.048a1.84 1.84 0 00-1.279-.517 1.849 1.849 0 00-1.847 1.847zm1.847 1.163A1.165 1.165 0 0114 18.061c0-.641.522-1.163 1.163-1.163a1.165 1.165 0 010 2.326zm3.734-1.145h-1.887v-.018c0-.227-.041-.445-.117-.646h2.004a.33.33 0 01.332.331c0 .184-.15.333-.332.333z" fill="#000"/>
  <path d="M14.964 17.783a.344.344 0 00-.12.4c.05.131.178.22.319.22a.345.345 0 00.333-.267c.069-.301-.283-.53-.532-.353zM16.842 16.605a.922.922 0 000-1.841.922.922 0 000 1.841zm0-1.158a.238.238 0 110 .476.238.238 0 010-.476zM3.677 21.271c.502.218 1.23.562 1.842.96a.341.341 0 00.373 0c.612-.398 1.34-.742 1.842-.96a.342.342 0 00.164-.15c.99-1.811 1.527-3.953 1.759-5.07a.342.342 0 00-.147-.354c-.807-.531-2.366-1.463-3.736-1.742a.34.34 0 00-.137 0c-1.37.279-2.929 1.21-3.736 1.742a.342.342 0 00-.147.355c.232 1.116.769 3.258 1.759 5.07.036.066.094.119.164.15zm2.028-6.632c1.17.258 2.536 1.058 3.234 1.502-.241 1.101-.735 2.955-1.586 4.55-.467.207-1.085.504-1.648.849a14.287 14.287 0 00-1.647-.848c-.851-1.596-1.345-3.45-1.586-4.55.698-.445 2.065-1.245 3.233-1.503z" fill="#000"/>
  <path d="M5.181 19.524c.06.11.173.177.297.179h.004a.342.342 0 00.296-.172L7.396 16.7a.342.342 0 10-.594-.34L5.49 18.66l-.56-1.034a.342.342 0 10-.601.326l.853 1.573z" fill="#000"/>
</svg>
