<svg width="24" height="24" fill="none" xmlns="http://www.w3.org/2000/svg">
  <defs/>
  <path d="M22.547 20.029H1.453a.615.615 0 01-.545-.9l1.334-2.56a.615.615 0 01.546-.33h18.424c.229 0 .44.128.545.33l1.335 2.56c.214.41-.083.9-.545.9z" fill="#DAE4EA"/>
  <path d="M20.79 3.72h-2.91l1.388 2.406a.608.608 0 01-.527.912h-3.669a.608.608 0 01-.527-.912l1.389-2.406H3.21a.795.795 0 00-.795.795v10.93c0 .438.356.794.795.794h17.58a.795.795 0 00.795-.795V4.515a.795.795 0 00-.795-.795z" fill="#DAE4EA"/>
  <path d="M20.474 5.447h-1.597l.392.679a.609.609 0 01-.527.912h-3.67a.608.608 0 01-.526-.912l.391-.68H3.527v9.243h16.947V5.447z" fill="#707DD3"/>
  <path d="M20.474 5.447h-1.597l.392.679a.609.609 0 01-.527.912h-.065v4.829a1.924 1.924 0 01-1.923 1.923H3.526v.899h16.948V5.447z" fill="#5766CB"/>
  <path d="M2.84 18.43l.524-1.075a.141.141 0 01.126-.079h17.02c.054 0 .103.031.127.08l.524 1.074a.14.14 0 01-.127.203H2.966a.14.14 0 01-.126-.203z" fill="#808B95"/>
  <path d="M23.161 19.37c.025.338-.24.659-.614.659H1.453a.616.616 0 01-.614-.66H.837v1.224c0 .422.342.763.763.763h20.8a.763.763 0 00.763-.763v-1.224h-.002z" fill="#C6D0DA"/>
  <path d="M13.475 21.356h-2.95a.792.792 0 01-.792-.792v-.535h4.534v.535a.792.792 0 01-.792.792z" fill="#A0AAB7"/>
  <path d="M14.644 20.029H9.356a.31.31 0 01-.29-.421l.297-.775a.31.31 0 01.29-.2h4.694a.31.31 0 01.29.2l.296.775a.31.31 0 01-.29.42z" fill="#C6D0DA"/>
  <path d="M9.871 10.972a.738.738 0 100-1.475.738.738 0 000 1.475zM14.196 10.947a.737.737 0 10-.359-1.431.737.737 0 00.359 1.43z" fill="#808B95"/>
  <path d="M15.565 8.493l-1.954-.138H9.355l-1.024.129a.341.341 0 00-.299.339v1.346h1.105a.737.737 0 011.468 0h2.677a.737.737 0 011.469 0h1.217V8.925a.433.433 0 00-.403-.432z" fill="#E28086"/>
  <path d="M13.226 7.443a.683.683 0 00-.629-.417h-1.399v1.33h2.414l-.386-.913z" fill="#BEC3EA"/>
  <path d="M10.365 7.026a.683.683 0 00-.63.42l-.38.91h1.843v-1.33h-.833z" fill="#D5D8F1"/>
  <path d="M16.38 2.948l-1.835 3.178a.608.608 0 00.527.912h3.67a.608.608 0 00.526-.912l-1.834-3.178a.608.608 0 00-1.054 0z" fill="#F6E266"/>
  <path d="M19.268 6.126l-1.834-3.178a.609.609 0 00-1.054 0l1.316 2.28a.608.608 0 01-.527.912h-2.632a.608.608 0 00.535.898h3.67a.608.608 0 00.526-.912z" fill="#F1D333"/>
  <path d="M4.65 12.22h1.344v1.346H4.65V12.22z" fill="#E28086"/>
  <path d="M7.129 12.22h1.345v1.346H7.129V12.22z" fill="#E4936B"/>
  <path d="M9.61 12.22h1.344v1.346H9.61V12.22z" fill="#F6E266"/>
  <path d="M12.09 12.22h1.345v1.346H12.09V12.22z" fill="#80BC93"/>
  <path d="M23.5 19.37a.957.957 0 00-.109-.396l-1.335-2.56a.953.953 0 00-.317-.353c.116-.178.183-.39.183-.617v-2.27a.337.337 0 10-.674 0v2.27a.459.459 0 01-.458.458H3.21a.459.459 0 01-.458-.458V4.515c0-.252.205-.458.458-.458h12.14l-.607 1.053h-2.216a.337.337 0 100 .674h1.827l-.1.173a.945.945 0 00.818 1.418h3.67a.945.945 0 00.818-1.418l-.1-.173h.677v8.568H3.863V5.784h7.091a.337.337 0 100-.674H3.526a.337.337 0 00-.337.337v9.242c0 .186.151.337.337.337h16.948c.186 0 .337-.151.337-.337V5.447a.337.337 0 00-.337-.337H19.07l-.608-1.053h2.327c.253 0 .458.206.458.458v7.087a.337.337 0 10.674 0V4.515c0-.624-.508-1.131-1.132-1.131h-2.716l-.349-.604a.945.945 0 00-1.637 0l-.349.604H3.21c-.624 0-1.132.507-1.132 1.131v10.93c0 .226.067.438.183.616a.951.951 0 00-.317.353L.609 18.973a.957.957 0 00-.109.396v1.224c0 .607.494 1.1 1.1 1.1h.815a.337.337 0 100-.674H1.6a.427.427 0 01-.426-.426v-.268a.958.958 0 00.28.04h7.942c.009.125-.034.36.096.654H3.987a.337.337 0 100 .674H22.4c.606 0 1.1-.493 1.1-1.1v-1.224zM16.672 3.116a.271.271 0 01.47 0l1.835 3.177a.271.271 0 01-.236.407h-3.669a.271.271 0 01-.235-.407l1.835-3.177zM1.215 19.557a.274.274 0 01-.009-.272l1.335-2.56a.278.278 0 01.247-.149h18.424c.104 0 .199.058.247.15l1.335 2.559a.274.274 0 01-.01.273.274.274 0 01-.237.134H15.29a.644.644 0 00-.042-.204l-.198-.518h5.984a.475.475 0 00.405-.224.475.475 0 00.024-.463l-.523-1.075a.48.48 0 00-.43-.269H3.49a.48.48 0 00-.43.269l-.524 1.075a.475.475 0 00.025.462c.088.141.24.225.405.225H8.95l-.198.518a.647.647 0 00-.042.204H1.453a.274.274 0 01-.238-.134zm2.065-1.26l.332-.684h16.776l.332.683H3.28zm6.391.673h4.658l.276.722h-5.21l.276-.722zm.854 2.05a.455.455 0 01-.455-.456v-.198h3.86v.198c0 .251-.204.455-.455.455h-2.95zm11.875 0h-7.892c.133-.301.088-.534.096-.654h7.943c.096 0 .19-.014.28-.041v.268a.427.427 0 01-.427.426z" fill="#000"/>
  <path d="M15.588 8.157l-1.747-.123-.304-.722a1.018 1.018 0 00-.94-.623h-2.233c-.413 0-.782.247-.941.628l-.304.729-.83.104a.68.68 0 00-.594.673v1.346c0 .186.151.337.337.337h.8a1.076 1.076 0 002.08 0h2.065a1.076 1.076 0 002.08 0h.91c.187 0 .338-.151.338-.337V8.925a.773.773 0 00-.717-.768zm-2.672-.583l.188.445h-1.57v-.656h1.063c.14 0 .265.083.319.211zm-2.871.002a.345.345 0 01.32-.213h.496v.656h-1l.184-.443zm-.174 3.059a.401.401 0 11.001-.802.401.401 0 010 .802zm4.145 0a.401.401 0 11.001-.802.401.401 0 010 .802zm1.615-.803h-.619a1.076 1.076 0 00-1.992 0h-2.153a1.076 1.076 0 00-1.992 0h-.506v-1.01c0-.002.002-.004.004-.004l1.003-.126H13.6l1.941.137c.05.004.09.046.09.096v.907zM16.958 6.295a.337.337 0 10-.108-.665.337.337 0 00.108.665zM16.907 5.252c.186 0 .337-.151.337-.337V4.19a.337.337 0 10-.674 0v.725c0 .186.151.337.337.337zM7.967 6.57a.337.337 0 00-.337-.337H4.65a.337.337 0 100 .674h2.98c.186 0 .337-.151.337-.337zM4.65 8.12h1.299a.337.337 0 100-.674h-1.3a.337.337 0 100 .674zM4.313 13.566c0 .186.15.337.336.337h1.345c.186 0 .337-.151.337-.337V12.22a.337.337 0 00-.337-.337H4.65a.337.337 0 00-.337.337v1.345zm.673-1.008h.671v.67h-.67v-.67zM7.129 13.903h1.345c.186 0 .337-.151.337-.337V12.22a.337.337 0 00-.337-.337H7.129a.337.337 0 00-.337.337v1.345c0 .186.15.337.337.337zm.337-1.345h.671v.67h-.671v-.67zM9.61 11.884a.337.337 0 00-.338.337v1.345c0 .186.151.337.337.337h1.345c.186 0 .337-.151.337-.337V12.22a.337.337 0 00-.337-.337H9.61zm1.007 1.345h-.67v-.671h.67v.67zM12.09 11.884a.337.337 0 00-.337.337v1.345c0 .186.15.337.337.337h1.345c.186 0 .337-.151.337-.337V12.22a.337.337 0 00-.337-.337H12.09zm1.008 1.345h-.671v-.671h.67v.67zM19.35 11.63a.337.337 0 100-.674h-1.69a.337.337 0 100 .674h1.69zM14.769 12.43c0 .185.15.336.336.336h4.246a.337.337 0 000-.674h-4.245a.337.337 0 00-.337.337zM19.35 13.229h-3.113a.337.337 0 100 .674h3.114a.337.337 0 100-.674z" fill="#000"/>
</svg>
