<svg width="24" height="24" fill="none" xmlns="http://www.w3.org/2000/svg">
  <defs/>
  <path d="M19.81 12.845l-1.157-4.087a2.407 2.407 0 00-2.316-1.751H7.664a2.407 2.407 0 00-2.316 1.75l-1.159 4.088h15.622z" fill="#707DD3"/>
  <path d="M18.653 8.758a2.407 2.407 0 00-2.236-1.75c.197.246.349.534.439.851l.508 1.795a1.801 1.801 0 01-1.733 2.293H4.444l-.255.898h15.622l-1.158-4.087z" fill="#5766CB"/>
  <path d="M22.67 21.219H1.33a.492.492 0 01-.492-.492v-1.34c0-.272.22-.492.492-.492H22.67c.272 0 .492.22.492.492v1.34c0 .271-.22.492-.492.492z" fill="#DAE4EA"/>
  <path d="M22.67 18.895h-1.304v.933c0 .272-.22.492-.492.492H.837v.407c0 .271.22.492.492.492H22.67c.272 0 .492-.22.492-.492v-1.34a.492.492 0 00-.492-.492z" fill="#C6D0DA"/>
  <path d="M22.779 11.917a.928.928 0 01-.928.928h-2.04v-.878c0-.54.437-.978.977-.978h1.063c.512 0 .928.416.928.928zM2.148 12.845h2.04v-.878a.978.978 0 00-.977-.978H2.148a.928.928 0 000 1.856z" fill="#707DD3"/>
  <path d="M8.838 18.895h6.324v2.324H8.838v-2.324z" fill="#808B95"/>
  <path d="M13.365 18.895v.966a.46.46 0 01-.459.46H8.838v.898h6.324v-2.324h-1.797z" fill="#5E6B75"/>
  <path d="M5.306 23.163H2.789a.702.702 0 01-.702-.702v-1.242h3.921v1.242a.702.702 0 01-.702.702z" fill="#808B95"/>
  <path d="M18.127 12.845l-1.056-3.73a.673.673 0 00-.648-.489H7.576c-.3 0-.565.2-.647.49l-1.057 3.729h12.255z" fill="#D5D8F1"/>
  <path d="M5.872 12.845h12.255l-.706-2.493c-.1.873-.84 1.595-1.79 1.595H6.127l-.255.898z" fill="#BEC3EA"/>
  <path d="M19.993 12.845H4.007c-1.315 0-2.4 1.03-2.468 2.343l-.193 3.707h21.308l-.193-3.707a2.471 2.471 0 00-2.468-2.343z" fill="#707DD3"/>
  <path d="M22.46 15.188a2.471 2.471 0 00-2.356-2.34c.325.395.531.893.56 1.441l.106 2.042a1.583 1.583 0 01-1.58 1.666H1.392l-.047.898h21.308l-.193-3.707z" fill="#5766CB"/>
  <path d="M3.435 14.878v1.24c0 .604.489 1.094 1.093 1.094h.448v-2.334H3.435z" fill="#E4936B"/>
  <path d="M4.976 14.878h2.52v2.334h-2.52v-2.334z" fill="#F6F9F9"/>
  <path d="M20.566 14.878v1.24c0 .604-.49 1.094-1.093 1.094h-.449v-2.334h1.542z" fill="#E4936B"/>
  <path d="M16.504 14.878h2.52v2.334h-2.52v-2.334z" fill="#F6F9F9"/>
  <path d="M13.14 17.447h-2.28a1.916 1.916 0 01-1.916-1.917v-.803h6.112v.803a1.916 1.916 0 01-1.916 1.917z" fill="#808B95"/>
  <path d="M13.257 14.727a1.916 1.916 0 01-1.914 1.821H9.237c.34.54.94.898 1.624.898h2.279a1.916 1.916 0 001.916-1.916v-.803h-1.8z" fill="#5E6B75"/>
  <path d="M21.211 23.163h-2.517a.702.702 0 01-.702-.702v-1.242h3.921v1.242a.702.702 0 01-.702.702z" fill="#808B95"/>
  <path d="M.837.837h22.326v1.655H.837V.837z" fill="#DAE4EA"/>
  <path d="M21.366.837V1a.593.593 0 01-.593.594H.837v.898h22.326V.837h-1.797z" fill="#C6D0DA"/>
  <path d="M22.977 18.617l-.18-3.447a2.802 2.802 0 00-.979-1.988h.033a1.266 1.266 0 000-2.53h-1.063c-.45 0-.849.229-1.086.575l-.725-2.561a2.755 2.755 0 00-2.64-1.996H7.663c-1.221 0-2.307.82-2.64 1.996l-.725 2.561a1.314 1.314 0 00-1.087-.574H2.15c-.697 0-1.265.567-1.265 1.264 0 .698.568 1.265 1.265 1.265h.033a2.802 2.802 0 00-.98 1.988l-.18 3.447a.83.83 0 00-.522.77v1.34a.83.83 0 00.829.829h.42v.905c0 .573.467 1.039 1.04 1.039h2.517a1.04 1.04 0 001.039-1.04v-.904h11.31v.905c0 .573.466 1.039 1.04 1.039h2.516a1.04 1.04 0 001.04-1.04v-.904h.42a.83.83 0 00.829-.83v-1.339a.83.83 0 00-.523-.77zm-2.83-6.65c0-.353.288-.64.642-.64h1.062a.591.591 0 010 1.181h-1.703v-.54zM5.673 8.85a2.078 2.078 0 011.991-1.506h8.674c.921 0 1.74.62 1.991 1.506l1.037 3.658h-.983l-.987-3.484a1.014 1.014 0 00-.971-.735H9.966a.337.337 0 100 .674h6.457c.15 0 .282.1.323.244l.935 3.301h-4.056l1.185-1.186.693.693a.336.336 0 00.476 0 .337.337 0 000-.476l-1.823-1.824a.337.337 0 10-.477.476l.655.655-1.662 1.662H9.209l1.185-1.186.693.693a.336.336 0 00.476 0 .337.337 0 000-.476L9.74 9.715a.337.337 0 10-.477.476l.655.655-1.662 1.662H6.318l.935-3.3a.337.337 0 01.323-.245h.82a.337.337 0 100-.674h-.82c-.449 0-.848.302-.971.735l-.987 3.484h-.983L5.672 8.85zm-4.114 3.067c0-.326.265-.59.59-.59h1.063c.354 0 .641.287.641.64v.541H2.15a.592.592 0 01-.591-.59zm-.384 8.81v-1.34c0-.085.07-.155.155-.155H8.5v1.65H1.329a.155.155 0 01-.155-.155zm3.2.829v1.27H3.72v-1.27h.652zm-1.95.905v-.905h.623v1.27H2.79a.366.366 0 01-.365-.365zm3.247 0a.366.366 0 01-.365.365h-.26v-1.27h.625v.905zm3.504-1.579v-1.65h5.65v1.65h-5.65zm9.154 1.579v-.905h.624v1.27h-.259a.366.366 0 01-.365-.365zm1.95-.905v1.27h-.652v-1.27h.652zm1.297.905a.366.366 0 01-.365.365h-.258v-1.27h.623v.905zm1.25-1.734c0 .085-.07.155-.155.155h-7.172v-1.65h4.842a.337.337 0 000-.674H1.701l.175-3.353a2.134 2.134 0 012.131-2.023h15.986c1.136 0 2.072.889 2.131 2.023l.175 3.353h-.386a.337.337 0 000 .674h.758c.085 0 .155.07.155.155v1.34z" fill="#000"/>
  <path d="M10.795 19.72h-.684a.337.337 0 100 .674h.684a.337.337 0 000-.674zM13.888 19.72h-1.91a.337.337 0 100 .674h1.91a.337.337 0 000-.674zM7.496 14.54H3.435a.337.337 0 00-.337.338v1.24c0 .79.641 1.43 1.43 1.43h2.968c.186 0 .337-.15.337-.336v-2.334a.337.337 0 00-.337-.337zM3.771 16.12v-.904h.868v1.66h-.111a.757.757 0 01-.757-.756zm3.388.756H5.313v-1.66H7.16v1.66zM20.565 14.54h-4.061a.337.337 0 00-.337.338v2.334c0 .186.15.337.337.337h2.968c.789 0 1.43-.642 1.43-1.43v-1.241a.337.337 0 00-.337-.337zm-3.724.675h1.846v1.66H16.84v-1.66zm3.387.904c0 .417-.339.756-.756.756h-.111v-1.66h.867v.904zM15.056 14.39H8.944a.337.337 0 00-.337.337v.803a2.256 2.256 0 002.254 2.253h2.279a2.256 2.256 0 002.253-2.253v-.803a.337.337 0 00-.337-.336zm-.337 1.14c0 .871-.708 1.58-1.58 1.58h-2.278c-.871 0-1.58-.709-1.58-1.58v-.465h5.438v.465z" fill="#000"/>
  <path d="M11.127 16.373h1.746a.337.337 0 100-.674h-1.746a.337.337 0 100 .674zM23.163.5H3.726a.337.337 0 100 .674h19.1v.981H1.174v-.981h.98a.337.337 0 100-.674H.837A.337.337 0 00.5.837v1.655c0 .186.15.337.337.337h1.735v.848a.337.337 0 10.674 0v-.848H5.17v.623a.337.337 0 10.674 0V2.83h1.923v.848a.337.337 0 10.674 0v-.848h1.923v.623a.337.337 0 10.674 0V2.83h1.924v.623a.337.337 0 00.674 0V2.83h1.923v.848a.337.337 0 10.674 0v-.848h1.923v.623a.337.337 0 10.674 0V2.83h1.924v.848a.337.337 0 10.673 0v-.848h1.736c.186 0 .337-.15.337-.337V.837A.337.337 0 0023.163.5zM2.91 6.322c.185 0 .336-.151.336-.337V5.07a.337.337 0 10-.674 0v.915c0 .186.151.337.337.337zM2.572 8.293a.337.337 0 10.674 0v-.96a.337.337 0 10-.674 0v.96zM5.844 5.985V4.8a.337.337 0 10-.674 0v1.185a.337.337 0 10.674 0zM8.44 5.844V5.07a.337.337 0 10-.673 0v.774a.337.337 0 10.673 0zM11.038 5.844V4.8a.337.337 0 10-.674 0v1.044a.337.337 0 10.674 0zM13.636 5.844V4.8a.337.337 0 10-.674 0v1.044a.337.337 0 10.674 0zM16.233 5.844V5.07a.337.337 0 10-.673 0v.774a.337.337 0 10.673 0zM18.83 5.985V4.8a.337.337 0 10-.674 0v1.185a.337.337 0 00.674 0zM21.09 6.322c.187 0 .338-.151.338-.337V5.07a.337.337 0 10-.674 0v.915c0 .186.15.337.337.337zM20.754 8.293a.337.337 0 10.674 0v-.96a.337.337 0 10-.674 0v.96z" fill="#000"/>
</svg>
