<svg width="24" height="24" fill="none" xmlns="http://www.w3.org/2000/svg">
  <defs/>
  <g fill-rule="evenodd" clip-rule="evenodd">
    <path d="M3.97 16.192H1.729a.819.819 0 000 1.631H3.97l.704-.815-.704-.816z" fill="#838383"/>
    <path d="M2.974 16.192h.996v1.631h-.996v-1.631z" fill="#595959"/>
    <path d="M5.748 17.823l-.913-.815-.864.815v1.386l.952.629.825-.629v-1.386z" fill="#ECECEC"/>
    <path d="M4.988 17.823v1.386h.76v-1.386h-.76z" fill="#CECECE"/>
    <path d="M19.826 3.04H7.303a.961.961 0 00-.958.958v.959l7.24 1.196 7.2-1.196v-.959a.962.962 0 00-.959-.958z" fill="#FE636E"/>
    <path d="M17.249 17.823H3.97V7.41c0-1.349 1.068-2.452 2.374-2.452h14.44c1.306 0 2.376 1.104 2.376 2.452v9.596c0 .45-.367.816-.815.818h-5.097z" fill="#FFD659"/>
    <path d="M17.249 14.49c-.904 0-1.721.37-2.308.968a3.235 3.235 0 102.308-.967z" fill="#838383"/>
    <path d="M17.249 16.44a1.285 1.285 0 10-.002 2.57 1.285 1.285 0 00.002-2.57z" fill="#ECECEC"/>
    <path d="M23.161 13.245H11.685l-.932.866.932 1.003h3.653a3.22 3.22 0 011.911-.623c.715 0 1.375.231 1.911.623h4.001v-1.87zM7.002 13.11H3.97v2.004H7l1.133-1.037-1.132-.967z" fill="#FE636E"/>
    <path d="M10.786 10.33H7.9a.9.9 0 00-.899.898v6.596h4.682v-6.596a.9.9 0 00-.898-.897z" fill="#ECECEC"/>
    <path d="M10.83 6.827H7.845a.845.845 0 00-.843.843c0 .463.38.84.843.84h2.985a.844.844 0 00.843-.84.845.845 0 00-.843-.843zM16.142 7.409a1.993 1.993 0 00-1.988 1.988c0 1.093.894 1.987 1.988 1.987h2.5V7.41h-2.5z" fill="#A6E7F0"/>
    <path d="M18.642 7.409h4.519v3.975h-4.52V7.41z" fill="#A6E7F0"/>
    <path d="M5.748 19.21H3.626a.695.695 0 00-.692.693c0 .38.311.692.692.692h2.466a.695.695 0 00.694-.692.695.695 0 00-.694-.694h-.344z" fill="#838383"/>
    <path d="M23.16 7.409c0-1.348-1.069-2.452-2.375-2.452h-1.179c.22 0 .432.033.633.091.998.29 1.735 1.241 1.735 2.36h1.187zM21.975 11.384h1.186v1.86h-1.186v-1.86z" fill="#FFBF00"/>
    <path d="M21.975 13.245h1.186v1.87h-1.186v-1.87z" fill="#FB2A39"/>
    <path d="M23.16 15.114h-1.186v1.891c0 .45-.367.816-.815.818h1.187a.821.821 0 00.814-.818v-1.89z" fill="#FFBF00"/>
    <path d="M19.826 3.04h-1.178c.526 0 .958.432.958.958v.959h1.179v-.959a.961.961 0 00-.959-.958z" fill="#FB2A39"/>
    <path d="M10.786 10.33H7.9a.9.9 0 00-.899.898v1.009c0-.494.405-.899.899-.899h2.885a.9.9 0 01.898.899v-1.01a.9.9 0 00-.898-.896z" fill="#CECECE"/>
    <path d="M10.83 6.827H7.845a.845.845 0 00-.762 1.203.847.847 0 01.778-.517h2.984c.335 0 .625.197.762.481a.84.84 0 00-.777-1.167zM17.579 7.409H16.14a1.993 1.993 0 00-1.954 2.353 1.995 1.995 0 011.955-1.622h1.252c.167.011.185.166.185.166v3.078h1.063V7.41h-1.063zM21.974 7.409h-3.332v.732h3.054c.249 0 .278.21.278.21v3.033h1.187V7.41h-1.187z" fill="#6BD9E7"/>
    <path d="M6.786 19.903a.695.695 0 00-.694-.694h-.759c.38 0 .693.312.693.694 0 .38-.312.692-.693.692h.759a.695.695 0 00.694-.692zM19.16 15.114a3.226 3.226 0 00-2.675-.533 3.23 3.23 0 012.833 3.242 3.239 3.239 0 01-2.472 3.112 3.234 3.234 0 002.314-5.82z" fill="#595959"/>
    <path d="M18.533 17.724a1.285 1.285 0 00-1.614-1.242 1.285 1.285 0 010 2.484 1.284 1.284 0 001.614-1.242z" fill="#CECECE"/>
  </g>
  <path d="M7.844 8.85h2.986c.652 0 1.182-.529 1.182-1.18 0-.652-.53-1.182-1.182-1.182H7.844c-.652 0-1.182.53-1.182 1.182 0 .651.53 1.18 1.182 1.18zm0-1.683h2.986a.503.503 0 110 1.005H7.844a.503.503 0 110-1.005z" fill="#000"/>
  <path d="M21.125 4.64V4A1.3 1.3 0 0019.826 2.7H7.303A1.3 1.3 0 006.005 4v.641c-1.336.173-2.374 1.348-2.374 2.77v8.443H1.727c-.465 0-.751.195-.91.358a1.138 1.138 0 00-.317.797c0 .574.422 1.155 1.227 1.155h1.904v.707h-.005a1.033 1.033 0 000 2.065H6.09c.57 0 1.034-.463 1.034-1.032 0-.57-.464-1.033-1.034-1.033h-.004v-.707H13.7c.09.749.413 1.446.942 2.009a3.54 3.54 0 002.606 1.127c.998 0 1.923-.4 2.605-1.126.53-.563.853-1.26.944-2.01h1.55a1.161 1.161 0 001.153-1.157V7.409c0-1.42-1.038-2.596-2.375-2.769zM18.98 7.75h3.84v3.296h-3.84V7.75zM6.345 5.297h6.41a.34.34 0 100-.68h-6.07V4a.62.62 0 01.618-.619h12.523a.62.62 0 01.62.619v.619h-6.21a.34.34 0 100 .678h6.549c1.011 0 1.852.77 2.01 1.774H16.14a2.33 2.33 0 00-2.327 2.327 2.33 2.33 0 002.327 2.327h6.68v1.182h-6.128a.34.34 0 100 .678h6.128v1.191h-3.553a3.548 3.548 0 00-2.02-.624c-.732 0-1.43.219-2.019.624h-3.206v-1.19h3.208a.34.34 0 100-.68h-3.208v-1.677c0-.682-.555-1.236-1.238-1.236H7.9c-.682 0-1.238.554-1.238 1.236v1.543H4.31V7.409c0-1.165.913-2.112 2.035-2.112zm9.796 5.748a1.65 1.65 0 01-1.648-1.648c0-.909.74-1.648 1.648-1.648h2.16v3.296h-2.16zm-10.393 6.44H4.31v-2.031h2.352v2.03h-.914zM4.31 13.45h2.352v1.325H4.31V13.45zM1.18 17.008c0-.125.045-.24.126-.325.096-.099.242-.151.422-.151h1.904v.952H1.727c-.404 0-.548-.256-.548-.476zm5.267 2.895a.354.354 0 01-.355.353H3.626a.353.353 0 010-.707H6.092c.195 0 .354.159.354.354zM5.408 18.87H4.31v-.707h1.098v.707zm1.933-1.386v-6.256a.56.56 0 01.56-.557h2.884c.309 0 .56.25.56.557v6.256H7.34zm6.34 0h-1.658v-2.03h2.465a3.57 3.57 0 00-.807 2.03zm5.677 2.224a2.867 2.867 0 01-2.11.912 2.868 2.868 0 01-2.11-.913 2.892 2.892 0 01.045-4.011 2.876 2.876 0 012.065-.865c.784 0 1.517.307 2.066.865a2.89 2.89 0 01.044 4.012zm2.988-2.224h-1.53a3.57 3.57 0 00-.807-2.03h2.812v1.552a.48.48 0 01-.475.478z" fill="#000"/>
  <path d="M17.248 16.101c-.896 0-1.625.728-1.625 1.623 0 .896.73 1.625 1.625 1.625.896 0 1.624-.729 1.624-1.625 0-.895-.728-1.623-1.624-1.623zm0 2.57a.947.947 0 01-.946-.947.946.946 0 011.891 0 .946.946 0 01-.945.946z" fill="#000"/>
</svg>
