<svg width="24" height="24" fill="none" xmlns="http://www.w3.org/2000/svg">
  <defs/>
  <g fill-rule="evenodd" clip-rule="evenodd">
    <path d="M14.507 7.964L13.03 4.4a1.421 1.421 0 00-1.85-.767l-1.048.434-7.813 3.238a1.422 1.422 0 00-.766 1.85l2.385 5.76 3.052 7.37a1.419 1.419 0 001.85.767l8.86-3.672a1.424 1.424 0 00.767-1.851l-1.956-4.724-2.004-4.84z" fill="#E6E6E6"/>
    <path d="M12.453 12.794c.35-.926-.1-2.017-1.004-2.424-.464-.208-.928-.124-1.317.132-.37.244-.675.643-.845 1.095-.903-.408-2.045-.264-2.395.661-.352.927.1 2.018 1.002 2.424l2.238 1.009.034.015c.688.242 1.107.069 1.41-.595l.877-2.317z" fill="#F74311"/>
    <path d="M22.554 16.467V2.255A1.42 1.42 0 0021.138.839h-9.591a1.42 1.42 0 00-1.415 1.416v1.812l1.049-.434a1.421 1.421 0 011.85.767l5.436 13.129c.048.116.079.235.095.354h2.576a1.42 1.42 0 001.416-1.416z" fill="#E6E6E6"/>
    <path d="M18.929 8.92l-2.24-2.854c-.19-.242-.497-.248-.683-.011l-1.5 1.91 2.005 4.84a.471.471 0 00.17-.138l2.258-2.877c.185-.236.18-.628-.01-.87z" fill="#F74311"/>
    <path d="M12.453 12.794c.35-.926-.1-2.017-1.004-2.424-.463-.208-.928-.124-1.317.132a2.066 2.066 0 00-.18.136 1.249 1.249 0 01.438.114c.904.406 1.354 1.497 1.004 2.424l-.876 2.317a1.958 1.958 0 01-.15.274c.57.141.936-.06 1.208-.656l.877-2.317z" fill="#D92525"/>
    <path d="M14.506 7.964L13.03 4.4a1.421 1.421 0 00-1.85-.767l-.523.217-.67.277a1.417 1.417 0 011.845.769l1.477 3.565 2.003 4.84 1.808 4.364.149.36a1.425 1.425 0 01-.766 1.851l1.197-.496a1.424 1.424 0 00.766-1.851l-1.956-4.724-2.004-4.84zM22.554 16.467V2.255A1.42 1.42 0 0021.138.839h-1.53c.78 0 1.415.636 1.415 1.416v14.212c0 .78-.636 1.416-1.415 1.416h1.53a1.42 1.42 0 001.416-1.416z" fill="#C2C7CC"/>
    <path d="M18.928 8.92l-2.24-2.854c-.19-.242-.497-.248-.683-.011l-.312.397 1.951 2.485c.191.243.196.635.01.87l-1.561 1.99.417 1.008a.473.473 0 00.17-.138l2.258-2.877c.185-.236.181-.628-.01-.87z" fill="#D92525"/>
  </g>
  <path d="M22.554 8.052a.34.34 0 00.34-.34V2.256c0-.968-.788-1.755-1.756-1.755h-9.591c-.968 0-1.755.787-1.755 1.755v1.587L2.19 6.992c-.893.37-1.32 1.4-.95 2.294l2.076 5.012a.34.34 0 10.628-.26L1.867 9.028a1.08 1.08 0 01.582-1.408l8.861-3.672a1.08 1.08 0 011.407.583l5.436 13.13a1.08 1.08 0 01-.582 1.407l-8.862 3.672c-.263.11-.555.11-.822-.001a1.068 1.068 0 01-.584-.582l-2.745-6.63a.34.34 0 10-.627.26l2.745 6.63A1.762 1.762 0 008.3 23.5c.227-.001.454-.046.669-.135l8.86-3.672a1.757 1.757 0 001.076-1.471h2.232c.968 0 1.756-.788 1.756-1.755V9.363a.34.34 0 00-.68 0v7.105c0 .593-.482 1.076-1.076 1.076h-2.306a1.745 1.745 0 00-.052-.144l-1.86-4.492.027-.03L19.206 10c.28-.358.276-.925-.01-1.29l-2.24-2.854a.79.79 0 00-.617-.314h-.002a.765.765 0 00-.598.304l-1.141 1.453-1.254-3.03a1.759 1.759 0 00-2.294-.949l-.579.24V2.255c0-.593.482-1.076 1.076-1.076h9.59c.594 0 1.078.483 1.078 1.076v5.458c0 .187.152.34.339.34zm-6.281-1.787c.012-.017.038-.044.066-.044.024 0 .056.02.083.055l2.24 2.853c.093.12.098.34.01.452l-2.049 2.609-1.727-4.172 1.377-1.753z" fill="#000"/>
  <path d="M10.027 16.016a1.94 1.94 0 00.667.133c.525 0 .917-.297 1.191-.896a.304.304 0 00.009-.021l.877-2.317c.413-1.095-.117-2.375-1.182-2.853a1.62 1.62 0 00-1.315-.018c-.474.196-.894.605-1.165 1.122-.557-.174-1.141-.166-1.615.03a1.62 1.62 0 00-.92.943c-.414 1.094.116 2.374 1.181 2.853l2.272 1.024zM7.21 12.379a.945.945 0 01.543-.556c.39-.16.924-.13 1.394.083a.34.34 0 00.457-.189c.184-.484.54-.884.93-1.045a.944.944 0 01.776.008 1.597 1.597 0 01.826 1.995l-.873 2.306c-.227.49-.456.588-.97.41l-2.259-1.018a1.596 1.596 0 01-.824-1.994z" fill="#000"/>
</svg>
