<svg width="24" height="24" fill="none" xmlns="http://www.w3.org/2000/svg">
  <defs/>
  <path d="M23.174 18.015L7.8 19.937l-.096-.771-1.033-9.833L19.006 7.66l3.155 2.259 1.013 8.096z" fill="#A0758E"/>
  <path d="M7.576 18.129c0-.086-.88-8.588-.88-8.588l11.442-1.76 2.311 5.614a.618.618 0 01-.387.825L7.576 18.128z" fill="#826075"/>
  <path d="M16.471 5.235l-3.54-1.573L.926 7.722 4.38 17.936l14.704-4.974-2.614-7.726z" fill="#FFC5E5"/>
  <path d="M6.035 11.88a1.45 1.45 0 110-2.901 1.45 1.45 0 010 2.9z" fill="#fff"/>
  <path d="M4.33 18.662c.04 0 .081-.006.121-.02l14.704-4.974a.376.376 0 00.235-.476l-.931-2.754a.376.376 0 00-.713.241l.811 2.397-13.99 4.733-3.214-9.5L12.86 4.416l3.256 1.447.888 2.624a.376.376 0 10.713-.241l-.941-2.78a.376.376 0 00-.204-.224l-3.54-1.573a.376.376 0 00-.274-.012L.756 7.717a.376.376 0 00-.236.477l3.454 10.212c.053.157.2.256.356.256z" fill="#000"/>
  <path d="M7.544 11.178a1.699 1.699 0 10-3.133-.209 1.699 1.699 0 003.133.209zm-1.523.194a.947.947 0 110-1.893.947.947 0 010 1.893zM11.426 11.854c.04 0 .08-.007.12-.02l4.064-1.375a.376.376 0 10-.24-.712l-4.065 1.374a.376.376 0 00.12.733zM6.313 15.51c.04 0 .08-.006.12-.02l9.762-3.301a.376.376 0 00-.24-.713l-9.763 3.302a.376.376 0 00.12.733zM23.497 18.018l-.364-2.91a.377.377 0 00-.746.093l.317 2.537-14.627 1.83-.05-.399a.376.376 0 00-.746.093l.097.772a.376.376 0 00.42.326l15.372-1.922a.376.376 0 00.327-.42zM18.737 8.016l3.021 2.163.342 2.733a.376.376 0 00.747-.093l-.363-2.897a.376.376 0 00-.154-.259l-3.155-2.258a.376.376 0 00-.438.611z" fill="#000"/>
</svg>
