<svg width="24" height="24" fill="none" xmlns="http://www.w3.org/2000/svg">
  <defs/>
  <path d="M16.268 3.394c-1.675.108-3.193.701-4.268 1.825A5.908 5.908 0 001.823 9.302c0 3.308 2.292 5.618 4.288 7.261a31.847 31.847 0 002.682 1.97L12 20.604l3.207-2.073c.139-.09 1.39-.905 2.682-1.969 1.996-1.643 4.288-3.953 4.288-7.261a5.91 5.91 0 00-4.607-5.763s-.539-.194-1.302-.145z" fill="#EF2D57"/>
  <g fill="#D4284D">
    <path d="M17.96 3.64c.677 3.617 1.135 12.32-9.339 14.78l.17.112L12 20.606l3.207-2.074c.139-.09 1.39-.905 2.682-1.968 1.996-1.644 4.288-3.954 4.288-7.262a5.91 5.91 0 00-4.216-5.661z"/>
    <path d="M19.755 13.366l-1.165-2.342a.337.337 0 00-.622.047l-1.075 3.332-1.325-3.024a.337.337 0 00-.618.271l1.682 3.837a.337.337 0 00.63-.032l1.093-3.39.89 1.788a.337.337 0 00.302.187h.88c.17-.218.33-.442.482-.674h-1.154zM14.374 8.658a.336.336 0 00-.62.009l-1.587 3.91-1.334-2.241a.337.337 0 00-.612.076L8.877 14.96 7.152 9.898a.337.337 0 00-.622-.039l-1.704 3.507H3.09c.151.232.313.456.481.674h1.465a.337.337 0 00.303-.19l1.44-2.96 1.802 5.29a.337.337 0 00.319.228h.007a.337.337 0 00.316-.242l1.425-4.823 1.286 2.161a.337.337 0 00.602-.046l1.542-3.798.46 1.05a.337.337 0 10.617-.27l-.78-1.782z"/>
  </g>
  <path d="M23.163 12.535h-1.41c2.04-4.244-.277-8.464-4.109-9.325a.337.337 0 10-.148.657c3.49.785 5.603 4.739 3.51 8.668h-1.25l-1.165-2.342a.337.337 0 00-.623.047l-1.075 3.332-1.206-2.752a.337.337 0 10-.617.27l1.563 3.566a.337.337 0 00.629-.032l1.094-3.39.89 1.788a.337.337 0 00.3.186h1.05C18.449 16.47 13.8 18.957 12 20.204c-2.873-1.861-6.683-4.09-8.596-6.996h1.633a.337.337 0 00.303-.19l1.44-2.96 1.802 5.29c.105.31.548.302.641-.013l1.426-4.824 1.286 2.162c.143.24.497.211.602-.046l1.541-3.798.46 1.05a.337.337 0 00.618-.27l-.78-1.782a.337.337 0 00-.622.009l-1.587 3.91-1.333-2.242a.337.337 0 00-.612.077l-1.344 4.547-1.725-5.062a.337.337 0 00-.622-.038l-1.705 3.507H2.995C.627 8.09 3.639 3.73 7.73 3.73c1.535 0 2.964.611 4.025 1.72a.337.337 0 00.487 0 5.563 5.563 0 013.495-1.695.337.337 0 00-.063-.67A6.235 6.235 0 0012 4.744a6.184 6.184 0 00-4.27-1.688c-4.432 0-7.82 4.618-5.483 9.478H.837a.337.337 0 100 .673h1.777c1.938 3.257 6.033 5.627 9.203 7.68a.337.337 0 00.366 0c3.165-2.05 7.264-4.422 9.203-7.68h1.777a.337.337 0 000-.673z" fill="#000"/>
</svg>
