<svg width="24" height="24" fill="none" xmlns="http://www.w3.org/2000/svg">
  <defs/>
  <path d="M14.011 7.782l-1.494.954 4.071 11.186 1.184.723.442-1.315-4.203-11.548z" fill="#3B8BC0"/>
  <g fill="#4EB9FF">
    <path d="M9.989 7.78L5.786 19.329l.442 1.315 1.184-.723 4.072-11.186-1.495-.953zM12.705.758h-1.411v4.023h1.411V.758z"/>
  </g>
  <path d="M12 9.344a2.845 2.845 0 100-5.69 2.845 2.845 0 000 5.69z" fill="#174461"/>
  <path d="M12 7.254a.754.754 0 100-1.51.754.754 0 000 1.51z" fill="#4EB9FF"/>
  <g fill="#01121C">
    <path d="M19.016 22.802l-.693-1.904.384-1.142a.52.52 0 00-.004-.344l-1.867-5.13h1.625a.52.52 0 000-1.04h-2.004l-1.672-4.595c.366-.539.58-1.189.58-1.888a3.37 3.37 0 00-2.139-3.133V1.02a.52.52 0 00-.52-.52h-1.411a.52.52 0 00-.52.52v2.606a3.37 3.37 0 00-2.14 3.133c0 .7.214 1.35.58 1.888l-1.672 4.595H5.54a.52.52 0 000 1.04h1.624l-1.867 5.13a.52.52 0 00-.004.344l.384 1.142-.692 1.904a.52.52 0 10.978.355l.692-1.903 1.029-.628a.52.52 0 00.218-.266l2.212-6.077h1.366v.854a.52.52 0 101.04 0v-.854h1.367L16.1 20.36a.52.52 0 00.218.266l1.028.628.693 1.903a.52.52 0 00.978-.355zM13.98 9.479l1.37 3.763h-.734L13.374 9.83c.215-.096.418-.214.606-.351zM11.815 1.54h.37v1.858a3.425 3.425 0 00-.37 0V1.541zM12 4.434a2.327 2.327 0 012.325 2.325A2.327 2.327 0 0112 9.084 2.327 2.327 0 019.676 6.76 2.327 2.327 0 0112 4.434zM10.02 9.48c.189.137.392.255.607.351l-1.242 3.412H8.65l1.37-3.763zM6.987 19.833l-.472.288-.176-.524 1.934-5.314h.734l-2.02 5.55zm5.535-6.59v-.855a.52.52 0 10-1.041 0v.854h-.988l1.142-3.138a3.378 3.378 0 00.732 0l1.142 3.138h-.987zm2.473 1.04h.735l1.934 5.314-.176.524-.472-.288-2.02-5.55z"/>
    <path d="M12 8.034c.703 0 1.275-.572 1.275-1.275s-.572-1.275-1.274-1.275c-.704 0-1.275.572-1.275 1.275S11.297 8.034 12 8.034zm0-1.509a.234.234 0 110 .469.234.234 0 010-.469z"/>
  </g>
</svg>
