<svg width="24" height="24" fill="none" xmlns="http://www.w3.org/2000/svg">
  <defs/>
  <path d="M4.46 1.02L1.038 4.422 19.595 22.98l3.412-3.412L4.461 1.021zm.416 3.765a.515.515 0 11-.728-.728.515.515 0 01.728.728zm14.355 15.083a.515.515 0 11.729-.728.515.515 0 01-.73.728z" fill="#FF9356"/>
  <path d="M3.624 21.593L1.077 22.94l1.346-2.547 1.329-.128-.128 1.33z" fill="#174461"/>
  <path d="M4.343 16.76l-1.92 3.632 1.201 1.201 3.632-1.92-2.913-2.913z" fill="#FFEBB4"/>
  <path d="M22.36 1.657c.803.804.803 2.11 0 2.914l-1.477 1.476-2.54-.356-.373-2.558 1.475-1.476a2.062 2.062 0 012.914 0z" fill="#FF755C"/>
  <path d="M19.062 7.868L7.256 19.674l-2.39-.524L17.605 4.954l1.457 2.914z" fill="#FFB14E"/>
  <path d="M18.334 5.683L4.867 19.149l-.524-2.39L16.149 4.955l2.185.729z" fill="#FFCE47"/>
  <path d="M17.97 3.133l-1.822 1.821 2.914 2.914 1.82-1.821-2.913-2.914z" fill="#174461"/>
  <g fill="#01121C">
    <path d="M7.383 11.518a.513.513 0 00.729 0 .515.515 0 000-.729l-.959-.958 1.373-1.373a.515.515 0 00-.728-.729L6.425 9.102 5.218 7.896l1.374-1.373a.515.515 0 00-.729-.729L4.49 7.168 1.745 4.422l2.692-2.674 6.358 6.358a.515.515 0 00.729-.729L4.803.657a.515.515 0 00-.727-.002l-3.424 3.4a.515.515 0 00-.001.73l6.732 6.733zM23.349 19.203l-6.727-6.727a.515.515 0 00-.728.729l6.362 6.362-2.683 2.684-2.747-2.747 1.373-1.373a.515.515 0 00-.728-.729l-1.373 1.374-1.206-1.206 1.373-1.374a.515.515 0 00-.729-.728l-1.373 1.373-.953-.953a.515.515 0 00-.728.729l6.727 6.726a.514.514 0 00.728 0l3.412-3.412a.515.515 0 000-.728z"/>
    <path d="M4.49 3.39c-.275 0-.534.108-.728.303a1.023 1.023 0 00-.302.728c0 .275.107.534.302.728.194.195.453.302.728.302a1.031 1.031 0 000-2.06zM20.301 20.233a1.031 1.031 0 000-1.457 1.031 1.031 0 00-1.457 0 1.031 1.031 0 00.729 1.758c.263 0 .527-.1.728-.301zM19.407 8.235l1.82-1.82.001-.001 1.475-1.476a2.578 2.578 0 000-3.642 2.578 2.578 0 00-3.642 0l-1.475 1.476-1.821 1.82v.001L3.959 16.4l-.003.003a.523.523 0 00-.044.051l-.008.012a.51.51 0 00-.033.052c0 .002-.002.003-.003.005l-1.919 3.63-.003.006-1.343 2.543a.515.515 0 00.696.696l2.543-1.344.005-.002 3.63-1.919c.002 0 .002-.001.003-.002a.516.516 0 00.057-.035l.01-.008a.503.503 0 00.05-.043l.004-.003L19.407 8.235zM3.7 20.963l-.663-.663 1.084-2.053.223 1.016.002.008c.005.019.01.038.017.056l.004.011a.51.51 0 00.028.06l.005.01.03.046.01.014a.53.53 0 00.092.092l.013.01a.536.536 0 00.048.03l.008.005c.02.01.04.02.061.028l.01.004a.522.522 0 00.057.017l.008.002 1.015.223L3.7 20.962zm2.177-2.112l1.893-1.893a.515.515 0 00-.728-.729l-1.893 1.894-.262-1.195L16.129 5.686l.728.728-8.573 8.573a.515.515 0 00.729.729l8.573-8.573.728.728L7.072 19.113l-1.195-.262zM17.95 3.865l2.185 2.185-1.092 1.093-2.186-2.186 1.093-1.092zm1.84-1.84a1.547 1.547 0 012.185 0 1.547 1.547 0 010 2.185l-1.111 1.112-2.186-2.186 1.112-1.111zM2.533 21.253l.214.214-.454.24.24-.454z"/>
  </g>
</svg>
