<svg width="24" height="24" fill="none" xmlns="http://www.w3.org/2000/svg">
  <defs/>
  <path d="M17.72 5.1l-.025.025v8.424H9.272V5.125L9.246 5.1 13.483.863l4.238 4.236z" fill="#CFDCE5"/>
  <path d="M17.72 6.761l-.025.026v8.423H9.272V6.787l-.026-.026h8.475z" fill="#BAC6CC"/>
  <path d="M17.26 4.64V1.235h-1.957V2.68" fill="#FF6F52"/>
  <path d="M20.578 16.998H6.725l-1.25-8.976h16.352l-1.25 8.976z" fill="#FCD577"/>
  <g fill="#CFDCE5">
    <path d="M7.854 23.108a1.717 1.717 0 100-3.434 1.717 1.717 0 000 3.434zM18.29 23.108a1.717 1.717 0 100-3.434 1.717 1.717 0 000 3.434z"/>
  </g>
  <path d="M7.523 7.21a.376.376 0 00.266-.11l1.1-1.101v.927a.377.377 0 10.755 0V5.245l1.184-1.184a.377.377 0 10-.534-.533L7.256 6.566a.377.377 0 00.267.644zM11.77 3.119L13.48 1.41l3.834 3.835v1.681a.377.377 0 10.754 0V6l1.1 1.1a.376.376 0 00.534 0 .377.377 0 000-.533l-2.068-2.068V1.25a.377.377 0 00-.377-.377h-1.958a.377.377 0 00-.377.377v.535L13.746.61a.377.377 0 00-.534 0l-1.975 1.975a.377.377 0 10.534.534zm3.905-1.492h1.203v2.116L15.675 2.54v-.913z" fill="#000"/>
  <path d="M22.106 7.79a.377.377 0 00-.284-.13H5.797l-.37-2.548a.377.377 0 00-.373-.323H2.179a.377.377 0 100 .754h2.549l2 14.096a2.094 2.094 0 10.72-.288l-.291-1.961h13.416a.377.377 0 00.373-.326l.816-5.862a.377.377 0 10-.747-.104l-.77 5.537H7.047L5.904 8.415h15.485l-.167 1.194a.377.377 0 10.747.104l.226-1.623a.377.377 0 00-.089-.3zM9.19 21.405c0 .739-.601 1.34-1.34 1.34-.739 0-1.34-.601-1.34-1.34 0-.739.601-1.34 1.34-1.34.739 0 1.34.601 1.34 1.34z" fill="#000"/>
  <path d="M18.285 19.312a2.097 2.097 0 00-2.059 1.717h-5.474a.377.377 0 000 .754h5.474a2.097 2.097 0 002.06 1.717c1.154 0 2.094-.94 2.094-2.094 0-1.155-.94-2.094-2.095-2.094zm0 3.434c-.738 0-1.34-.601-1.34-1.34 0-.74.602-1.34 1.34-1.34.74 0 1.34.6 1.34 1.34 0 .739-.6 1.34-1.34 1.34z" fill="#000"/>
  <path d="M18.285 21.783a.377.377 0 100-.754.377.377 0 000 .754zM7.849 21.783a.377.377 0 100-.754.377.377 0 000 .754z" fill="#000"/>
</svg>
