<svg width="24" height="24" fill="none" xmlns="http://www.w3.org/2000/svg">
  <defs/>
  <path d="M17.763 1.541c-4.607.853-9.14 1.999-13.6 3.436.173 2.784.844 5.441 2.014 7.973a108.88 108.88 0 0013.6-3.436 22.1 22.1 0 00-2.014-7.973z" fill="#78D090"/>
  <path d="M18.353 7.164a1.553 1.553 0 00-1.292 1.922l.02.073a108.19 108.19 0 01-8.7 2.198 1.556 1.556 0 00-2.066-1.152 20.87 20.87 0 01-.727-2.878 1.556 1.556 0 001.271-1.995 108.15 108.15 0 018.7-2.198c.005.024.01.05.017.074a1.556 1.556 0 002.05 1.078c.31.941.553 1.902.727 2.878z" fill="#63AF7D"/>
  <path d="M12.5 9.324c.996-.251 1.569-1.385 1.28-2.531-.29-1.147-1.333-1.873-2.329-1.621-.996.252-1.569 1.385-1.28 2.532.29 1.146 1.333 1.872 2.329 1.62z" fill="#78D090"/>
  <path d="M21.465 6.105a108.877 108.877 0 00-14.027 0 22.103 22.103 0 000 8.223c4.676.301 9.352.301 14.027 0 .515-2.741.515-5.482 0-8.223z" fill="#78D090"/>
  <path d="M20.66 11.7a1.556 1.556 0 00-1.722 1.623 108.124 108.124 0 01-8.973.001l.001-.076a1.556 1.556 0 00-1.723-1.547c-.07-.99-.07-1.98 0-2.969A1.556 1.556 0 009.964 7.11a108.189 108.189 0 018.974 0l-.002.076a1.556 1.556 0 001.724 1.547c.07.99.07 1.98 0 2.969z" fill="#63AF7D"/>
  <path d="M14.451 12.357c1.027 0 1.86-.958 1.86-2.14 0-1.183-.833-2.14-1.86-2.14-1.027 0-1.86.957-1.86 2.14 0 1.182.833 2.14 1.86 2.14z" fill="#78D090"/>
  <path d="M22.616 16.142l-5.864 4.703c-.482.387-1.1.563-1.713.488l-7.903-.962-2.106.779c-1.13-1.163-.666-4.906-.666-4.906l.502-.137a1.901 1.901 0 011.062-1.832l3.39-1.655 1.742-.851a1.656 1.656 0 011.578 2.909L9.82 16.365l4.74.825c.571.1 1.158-.02 1.644-.336l4.715-3.06a1.45 1.45 0 011.697 2.347z" fill="#F1D0A5"/>
  <path d="M15.025 20.07c-3.246.421-5.484-1.483-6.838-3.274a1.909 1.909 0 01.492-2.759c3.27-2.095 4.115-2.018 4.563-1.57a1.656 1.656 0 00-2.182-.698l-1.743.85-2.747 1.342-.642.314a1.9 1.9 0 00-1.062 1.832l-.502.137s-.465 3.743.666 4.906l2.106-.779 7.903.962a2.295 2.295 0 001.713-.488l5.864-4.703c-2.027-.55-5.404 3.593-7.59 3.927z" fill="#F1B986"/>
  <path d="M3.663 15.773a6.832 6.832 0 00-2.822.997 55.328 55.328 0 002.01 5.689 6.83 6.83 0 002.822-.998 55.346 55.346 0 00-2.01-5.688z" fill="#80A6C6"/>
  <path d="M5.673 21.461a6.822 6.822 0 01-2.822.998 55.718 55.718 0 01-.582-1.46 7.26 7.26 0 002.944-1.03c.16.495.314.992.46 1.492z" fill="#5B8EB8"/>
  <path d="M23.436 14.535a1.789 1.789 0 00-1.452-1.29 22.514 22.514 0 00-.184-7.203.34.34 0 00-.313-.277c-.645-.042-1.29-.077-1.937-.107a22.64 22.64 0 00-1.477-4.26.34.34 0 00-.372-.192c-4.599.851-9.188 2.011-13.642 3.447a.341.341 0 00-.236.345 22.544 22.544 0 002.045 8.094.34.34 0 00.372.193l.666-.126c.01.08.023.161.035.242l-1.161.567a2.24 2.24 0 00-1.255 1.879l-.416.115a51.139 51.139 0 00-.131-.32.341.341 0 00-.357-.208 7.2 7.2 0 00-2.96 1.046.341.341 0 00-.147.386 55.912 55.912 0 002.022 5.723.34.34 0 00.356.208 7.2 7.2 0 002.961-1.046.34.34 0 00.147-.386l-.056-.19 1.233-.456 7.82.952a2.651 2.651 0 001.969-.56l5.852-4.695a1.792 1.792 0 00.618-1.88zm-17.058-1.97A21.856 21.856 0 014.522 5.22a109.023 109.023 0 0113.041-3.295 21.955 21.955 0 011.277 3.702c-.158-.007-.316-.012-.474-.017-.122-.48-.261-.96-.416-1.431a.34.34 0 00-.442-.213 1.21 1.21 0 01-1.046-.096 1.207 1.207 0 01-.569-.805.34.34 0 00-.404-.265c-.701.146-1.412.302-2.113.463a.34.34 0 00.153.665c.594-.137 1.197-.27 1.794-.396.153.385.428.708.79.924.391.233.843.317 1.287.241.092.295.177.592.256.89-1.389-.04-2.78-.055-4.17-.043-.567-.626-1.366-.895-2.123-.704-.455.115-.854.39-1.143.781-.936.036-1.872.084-2.804.144a.339.339 0 00-.148.045c.001-.08-.003-.16-.012-.24a108.03 108.03 0 014.953-1.33.341.341 0 00-.16-.663 108.884 108.884 0 00-5.287 1.428.341.341 0 00-.229.427l.014.051.002.006c.08.314.032.641-.135.92a1.208 1.208 0 01-.874.58.341.341 0 00-.288.398c.177.99.426 1.975.74 2.925a.34.34 0 00.442.213 1.237 1.237 0 01.281-.068c.003.296.012.592.027.887a.334.334 0 00-.084.043.344.344 0 00-.12.4.344.344 0 00.247.21c.012.16.027.322.043.483l-.45.085zm5.976-7.005c-.353.007-.706.015-1.058.025.075-.035.153-.064.234-.084.273-.07.557-.046.824.059zM6.54 9.793a20.612 20.612 0 01-.559-2.21c.412-.14.76-.415.993-.786a22.602 22.602 0 00-.257 2.976c-.06.004-.118.01-.177.02zm1.185-3.365a109.14 109.14 0 0113.451 0c.399 2.272.437 4.57.116 6.842a1.76 1.76 0 00-.56.238l-.877.57c-.863.043-1.743.076-2.617.1a.341.341 0 00.009.68h.009c.49-.012.981-.028 1.47-.048L16.02 16.57a1.95 1.95 0 01-1.4.286l-3.837-.668 2.03-1.218a2.06 2.06 0 00.13-.085 107.005 107.005 0 002.948.001.34.34 0 10-.01-.681c-.774.01-1.558.012-2.337.005.078-.144.137-.296.178-.453a108.627 108.627 0 005.231-.091.34.34 0 00.326-.36 1.217 1.217 0 011.345-1.265.34.34 0 00.377-.315 21.304 21.304 0 000-3.017.34.34 0 00-.377-.315 1.217 1.217 0 01-1.345-1.265.341.341 0 00-.326-.36 108.824 108.824 0 00-9.002 0 .34.34 0 00-.326.36l.002.057A1.217 1.217 0 018.28 8.393a.34.34 0 00-.377.315 21.298 21.298 0 000 3.017.34.34 0 00.377.315c.335-.037.654.065.9.267l-1.596.78a21.839 21.839 0 01.142-6.659zm5.207 3.788c0-.992.681-1.799 1.518-1.799.838 0 1.52.807 1.52 1.8 0 .992-.682 1.799-1.52 1.799-.837 0-1.518-.807-1.518-1.8zm1.518 2.482c1.214 0 2.2-1.113 2.2-2.482 0-1.368-.986-2.48-2.2-2.48-1.213 0-2.2 1.112-2.2 2.48 0 .427.096.828.265 1.18a1.99 1.99 0 00-1.606.066l-1.08.528a1.883 1.883 0 00-1.267-.633 20.632 20.632 0 010-2.28 1.9 1.9 0 001.728-1.64 108.16 108.16 0 018.321 0 1.9 1.9 0 001.728 1.64c.042.757.042 1.522 0 2.28a1.901 1.901 0 00-1.728 1.639 108.19 108.19 0 01-4.836.078 1.99 1.99 0 00-.132-.55c.25.112.522.174.807.174zM3.066 22.084a55.273 55.273 0 01-1.822-5.157 6.505 6.505 0 012.206-.78 55.286 55.286 0 011.822 5.157 6.508 6.508 0 01-2.206.78zm19.346-6.216a.344.344 0 00-.009.008l-5.863 4.703c-.408.327-.94.479-1.46.415l-7.902-.962a.342.342 0 00-.16.019l-1.272.47a56.058 56.058 0 00-1.38-3.922l.592-.164a.34.34 0 00.249-.351 1.559 1.559 0 01.872-1.503l5.131-2.506a1.313 1.313 0 011.733.554 1.312 1.312 0 01-.48 1.756l-2.817 1.688a.341.341 0 00.117.629l4.74.825a2.63 2.63 0 001.888-.386l4.715-3.06a1.116 1.116 0 011.674.635 1.11 1.11 0 01-.367 1.152z" fill="#000"/>
  <path d="M10.681 14.205a.86.86 0 001.126.28l.422-.226a.34.34 0 00-.32-.601l-.423.225a.184.184 0 01-.238-.057 2.685 2.685 0 01-.373-.862.34.34 0 00-.67.13c.005.022.112.567.476 1.111zM3.816 21.177a.344.344 0 00.332-.266c.07-.3-.282-.527-.53-.352a.344.344 0 00-.12.4c.05.13.178.218.318.218zM17.085 3.167a.344.344 0 00.333-.266c.069-.3-.282-.528-.53-.352a.344.344 0 00-.12.4c.05.13.178.218.317.218zM5.703 5.861c.069-.3-.282-.528-.53-.352a.344.344 0 00-.12.4c.05.13.178.218.318.218a.344.344 0 00.332-.266zM20.295 12.97a.343.343 0 00-.12.4c.05.13.178.219.318.219a.344.344 0 00.332-.266c.069-.3-.282-.528-.53-.352zM20.493 7.526a.344.344 0 00.332-.266c.069-.3-.282-.528-.53-.352a.343.343 0 00-.12.4c.05.13.178.218.318.218zM8.41 7.526a.344.344 0 00.332-.266c.069-.3-.282-.528-.53-.352a.343.343 0 00-.12.4c.05.13.178.218.318.218zM17.74 10.557h1.45a.34.34 0 100-.681h-1.45a.34.34 0 100 .681zM11.164 9.876H9.713a.34.34 0 100 .681h1.451a.34.34 0 100-.681z" fill="#000"/>
</svg>
