<svg width="24" height="24" fill="none" xmlns="http://www.w3.org/2000/svg">
  <defs/>
  <path d="M21.085 23.159a.43.43 0 00.405-.576 8.649 8.649 0 00-8.11-5.646h-2.758c-3.72 0-6.891 2.35-8.11 5.646a.43.43 0 00.404.576h18.17z" fill="#695E67"/>
  <path d="M21.49 22.583a8.649 8.649 0 00-8.11-5.646h-2.684c3.72 0 6.891 2.35 8.11 5.646a.43.43 0 01-.404.576h2.683a.43.43 0 00.405-.576z" fill="#544E56"/>
  <path d="M13.817 19.96h-3.134c-.839 0-1.519-.68-1.519-1.52v-3.085h6.173v3.085c0 .84-.68 1.52-1.52 1.52z" fill="#FFCBBE"/>
  <path d="M13.942 15.355v3.066c0 .85-.69 1.538-1.539 1.538H13.8c.85 0 1.538-.689 1.538-1.538v-3.066h-1.395z" fill="#FDAD9D"/>
  <path d="M18.436 10.352c-.258-.098-.546-.054-.82.097a5.374 5.374 0 00-10.731 0c-.275-.151-.563-.194-.821-.097-.62.235-1.004 1.256-.646 2.2.332.879 1.505 1.333 2.166 1.204.927 2.02 2.67 3.724 4.666 3.724 1.997 0 3.74-1.704 4.666-3.724.662.13 1.834-.325 2.167-1.203.357-.945-.026-1.966-.647-2.2z" fill="#FFCBBE"/>
  <path d="M18.436 10.352c-.258-.098-.546-.054-.82.097a5.374 5.374 0 00-6.233-5.006 5.375 5.375 0 014.506 5.304c0 2.673-1.95 5.991-4.506 6.625.282.07.572.108.867.108 1.997 0 3.74-1.704 4.666-3.724.662.13 1.834-.325 2.166-1.203.358-.945-.025-1.966-.646-2.2z" fill="#FDAD9D"/>
  <path d="M8.978 23.159H5.514a.428.428 0 01-.428-.428v-1.6c0-.236.192-.428.428-.428h3.464c.236 0 .428.192.428.428v1.6a.428.428 0 01-.428.428z" fill="#F9F0F0"/>
  <path d="M8.973 20.703h-.09v1.5c0 .24-.194.433-.433.433H5.086v.09c0 .239.194.433.434.433h3.453c.239 0 .433-.194.433-.434v-1.589a.434.434 0 00-.434-.433z" fill="#F1E8E4"/>
  <path d="M12.329 6.088a2.624 2.624 0 100-5.247 2.624 2.624 0 000 5.247z" fill="#A95E2C"/>
  <path d="M12.329.841c-.3 0-.587.051-.855.143a2.624 2.624 0 010 4.961 2.624 2.624 0 10.855-5.104z" fill="#9B5526"/>
  <path d="M6.846 9.459h10.81a.901.901 0 00.85-1.195 6.608 6.608 0 00-12.51 0 .901.901 0 00.85 1.195z" fill="#A95E2C"/>
  <path d="M12.25 3.786c-.562 0-1.109.07-1.63.203a6.612 6.612 0 014.907 5.47h2.129a.901.901 0 00.85-1.195 6.608 6.608 0 00-6.255-4.478z" fill="#9B5526"/>
  <path d="M21.81 22.464a9 9 0 00-.448-1.012.341.341 0 00-.606.314c.157.302.296.617.414.935a.082.082 0 01-.01.078.088.088 0 01-.075.039H9.741a.777.777 0 00.007-.093v-1.589a.776.776 0 00-.775-.774H5.52a.776.776 0 00-.775.774v1.59c0 .03.003.061.006.092H2.915a.088.088 0 01-.074-.04.082.082 0 01-.01-.077 8.323 8.323 0 015.992-5.226v.946c0 1.036.843 1.88 1.88 1.88h3.095c1.037 0 1.88-.844 1.88-1.88v-.82a8.32 8.32 0 014.376 3.04.34.34 0 10.548-.406 9 9 0 00-4.924-3.341v-.7a8.117 8.117 0 001.444-2.076h.025c.782 0 1.892-.486 2.255-1.445.195-.515.212-1.08.05-1.59-.165-.514-.49-.897-.895-1.05a1.192 1.192 0 00-.643-.052 5.712 5.712 0 00-.03-.202c.312-.057.588-.23.778-.496a1.25 1.25 0 00.166-1.129 6.94 6.94 0 00-3.606-4.043 2.977 2.977 0 00-.124-1.707.341.341 0 00-.637.244 2.273 2.273 0 01.118 1.198 6.944 6.944 0 00-4.51-.051 2.285 2.285 0 013.635-2.151.341.341 0 00.412-.544A2.94 2.94 0 0012.33.5 2.968 2.968 0 009.42 4.046a6.94 6.94 0 00-3.749 4.108c-.129.38-.067.803.167 1.129.19.265.466.44.779.496a5.723 5.723 0 00-.031.202 1.192 1.192 0 00-.644.052c-.403.153-.73.535-.893 1.05a2.427 2.427 0 00.05 1.59c.366.97 1.495 1.454 2.279 1.445.388.79.88 1.495 1.444 2.075v.583a9.007 9.007 0 00-6.632 5.688.773.773 0 00.724 1.036h18.17a.773.773 0 00.724-1.036zm-8.012-2.846h-3.096c-.66 0-1.197-.537-1.197-1.197v-1.616c.86.665 1.805 1.016 2.745 1.016.94 0 1.885-.35 2.746-1.016v1.616c0 .66-.537 1.197-1.198 1.197zM7.52 13.422c-.515.1-1.513-.28-1.782-.99A1.765 1.765 0 015.7 11.29c.1-.31.28-.541.486-.619.195-.073.398.001.535.077a.341.341 0 00.505-.28c.013-.224.04-.448.082-.668h.698a.341.341 0 100-.682h-1.16a.56.56 0 01-.527-.744 6.263 6.263 0 015.933-4.247 6.262 6.262 0 015.932 4.247.56.56 0 01-.527.744H9.58a.341.341 0 100 .682h7.613c.042.22.07.443.081.668a.34.34 0 00.506.28c.137-.076.34-.15.535-.077.205.078.387.31.486.62.114.358.1.774-.038 1.14-.27.711-1.267 1.091-1.782.99a.341.341 0 00-.376.193c-.982 2.141-2.692 3.525-4.356 3.525-1.663 0-3.373-1.383-4.355-3.525a.341.341 0 00-.376-.192zm-2.092 9.303v-1.588c0-.052.042-.093.093-.093h3.453c.05 0 .092.041.092.093v1.588a.093.093 0 01-.092.093H5.52a.093.093 0 01-.093-.093z" fill="#000"/>
  <path d="M7.111 21.59h-.819a.341.341 0 100 .682h.82a.341.341 0 100-.682zM10.047 11.689a.647.647 0 100-1.295.647.647 0 000 1.295zM14.454 11.689a.648.648 0 100-1.295.648.648 0 000 1.295zM10.814 13.83a2.303 2.303 0 002.873 0 .341.341 0 00-.427-.533 1.596 1.596 0 01-1.01.355c-.37 0-.72-.123-1.009-.354a.341.341 0 10-.427.532z" fill="#000"/>
</svg>
