<svg width="24" height="24" fill="none" xmlns="http://www.w3.org/2000/svg">
  <defs/>
  <path d="M22.767 13.247l-.838-.633a.997.997 0 01-.232-.246l-2.606-3.946a.995.995 0 00-.83-.447h-4.238v9.02h8.64a.5.5 0 00.5-.5v-2.454a.995.995 0 00-.396-.794z" fill="#F43B45"/>
  <path d="M22.767 13.247l-.84-.633a.997.997 0 01-.23-.246L19.09 8.422a.995.995 0 00-.83-.447h-1.803l2.902 4.393c.062.095.14.178.23.246l.84.633c.25.188.396.482.396.794v2.954h1.838a.5.5 0 00.5-.5v-2.454a.995.995 0 00-.396-.794z" fill="#D82B2B"/>
  <path d="M.837 5.296V16.44c0 .307.248.555.555.555h13.65V5.296a.555.555 0 00-.555-.555H1.392a.555.555 0 00-.555.555z" fill="#EDEDED"/>
  <path d="M14.487 4.74h-1.753v12.255h2.308V5.296a.555.555 0 00-.555-.555z" fill="#D6D6D6"/>
  <path d="M19.875 11.992l-1.612-2.44a.586.586 0 00-.489-.264h-.694a.566.566 0 00-.565.566v2.45c0 .312.253.565.565.565h2.323c.451 0 .72-.501.472-.877z" fill="#75CFF2"/>
  <path d="M18.745 19.262a2.132 2.132 0 100-4.264 2.132 2.132 0 000 4.264z" fill="#1E4751"/>
  <path d="M18.745 17.958a.83.83 0 010-1.656.83.83 0 010 1.656z" fill="#EDEDED"/>
  <path d="M5.223 19.261a2.132 2.132 0 100-4.264 2.132 2.132 0 000 4.264z" fill="#1E4751"/>
  <path d="M5.223 17.958a.83.83 0 010-1.656.83.83 0 010 1.656z" fill="#EDEDED"/>
  <path d="M21.713 14.232v.387c0 .564.457 1.02 1.021 1.02h.429v-1.6-.017h-1.24a.21.21 0 00-.21.21z" fill="#F2CA20"/>
  <g>
    <path d="M7.94 8.063c-2.353 0-4.26 1.99-4.26 4.443h8.519c0-2.454-1.907-4.444-4.26-4.444z" fill="#FF9C43"/>
    <path d="M12.729 13.017h-9.58a.345.345 0 01-.344-.345v-.33c0-.191.154-.346.345-.346h9.579c.19 0 .345.155.345.345v.33c0 .191-.155.346-.345.346z" fill="#EF8229"/>
  </g>
  <g fill="#000">
    <path d="M18.745 15.963c-.642 0-1.165.522-1.165 1.165s.523 1.165 1.165 1.165c.643 0 1.166-.523 1.166-1.165 0-.643-.523-1.165-1.166-1.165zm0 1.656a.492.492 0 11.001-.983.492.492 0 010 .983zM5.223 15.963c-.643 0-1.165.522-1.165 1.165s.522 1.165 1.165 1.165c.642 0 1.165-.523 1.165-1.165 0-.643-.523-1.165-1.165-1.165zm0 1.656a.492.492 0 110-.983.492.492 0 010 .983z"/>
    <path d="M22.97 12.977l-.839-.633a.654.654 0 01-.153-.162l-2.607-3.947a1.329 1.329 0 00-1.111-.597h-2.881V5.295c0-.492-.4-.892-.892-.892H1.392c-.492 0-.892.4-.892.892V16.44c0 .492.4.892.892.892h1.37a2.472 2.472 0 002.46 2.266c1.294 0 2.358-1 2.461-2.266h8.601a2.472 2.472 0 002.461 2.266c1.293 0 2.357-1 2.46-2.266h1.458a.838.838 0 00.837-.837v-2.453c0-.416-.198-.814-.53-1.064zm-.144 2.325h-.092a.685.685 0 01-.684-.684v-.26h.776v.944zM5.223 18.923c-.99 0-1.795-.805-1.795-1.795 0-.99.805-1.795 1.795-1.795.99 0 1.795.805 1.795 1.795 0 .99-.805 1.795-1.795 1.795zm9.482-2.266H7.647a2.473 2.473 0 00-2.424-1.998c-1.2 0-2.204.861-2.424 1.998H1.392a.218.218 0 01-.218-.218V5.295c0-.12.098-.218.218-.218h13.095c.12 0 .218.098.218.218v11.362zm4.04 2.266c-.99 0-1.795-.805-1.795-1.795 0-.99.805-1.795 1.795-1.795.99 0 1.795.805 1.795 1.795 0 .99-.805 1.795-1.795 1.795zm3.918-2.266h-1.494a2.473 2.473 0 00-2.424-1.998c-1.2 0-2.204.861-2.424 1.998h-.942V8.312h2.881c.222 0 .427.11.55.295l2.606 3.946c.084.127.188.238.31.33l.838.632a.654.654 0 01.157.169h-.797a.548.548 0 00-.548.548v.386c0 .749.61 1.358 1.358 1.358h.092v.518c0 .09-.073.163-.163.163z"/>
    <path d="M20.156 11.805l-1.612-2.44a.92.92 0 00-.77-.414h-.694a.904.904 0 00-.902.902v2.45c0 .497.405.902.902.902h2.323a.901.901 0 00.753-1.4zm-.551.606a.224.224 0 01-.202.12H17.08a.229.229 0 01-.228-.228v-2.45c0-.126.102-.229.228-.229h.695c.083 0 .16.042.207.112l1.612 2.44c.068.104.03.199.01.235zM12.729 11.66h-.265c-.368-2.149-2.096-3.764-4.188-3.921v-.226a.337.337 0 10-.674 0v.226c-.8.06-1.567.335-2.235.805a.337.337 0 10.388.551A3.78 3.78 0 017.94 8.4c1.873 0 3.464 1.377 3.84 3.26H4.1a4.18 4.18 0 01.76-1.699.337.337 0 10-.538-.406 4.859 4.859 0 00-.908 2.104H3.15a.683.683 0 00-.682.682v.33c0 .377.306.683.682.683h9.579a.683.683 0 00.682-.682v-.33a.683.683 0 00-.682-.682zm.008 1.012a.008.008 0 01-.008.008h-9.58a.008.008 0 01-.007-.008v-.33c0-.005.003-.009.008-.009h9.579c.005 0 .008.004.008.008v.33z"/>
  </g>
</svg>
