<svg width="24" height="24" fill="none" xmlns="http://www.w3.org/2000/svg">
  <defs/>
  <path d="M13.022 8.548l-.948-.617 4.092-6.281a.566.566 0 11.948.617l-4.092 6.281z" fill="#A8D3D8"/>
  <g fill="#537983">
    <path d="M5.975 7.316a.899.899 0 100-1.797.899.899 0 000 1.797zM20.069 8.215a.899.899 0 100-1.798.899.899 0 000 1.798zM16.75 7.316a.899.899 0 100-1.797.899.899 0 000 1.797z"/>
  </g>
  <path d="M19.934 7.759c-.17 0-.33.032-.48.09a1.322 1.322 0 00-2.466-.944 1.32 1.32 0 00-2.1.104 1.321 1.321 0 00-1.975-.233 1.323 1.323 0 00-1.51-1.025 1.323 1.323 0 10-2.516.779 1.322 1.322 0 00-2.47.444A1.323 1.323 0 004.583 8.3l-.02.029a1.323 1.323 0 10.833 2.05 1.32 1.32 0 001.275-.456 1.32 1.32 0 002.04 0 1.32 1.32 0 002.04 0 1.32 1.32 0 002.041 0 1.32 1.32 0 002.04 0 1.32 1.32 0 002.041 0 1.32 1.32 0 002.04 0 1.323 1.323 0 101.02-2.164z" fill="#3E5959"/>
  <path d="M10.012 5.616a.173.173 0 00.176.12 1.323 1.323 0 011.3.819.175.175 0 00.256.08c.202-.126.441-.199.697-.199h.004c.154 0 .239-.18.133-.292a1.318 1.318 0 00-1.034-.408.172.172 0 01-.175-.119 1.323 1.323 0 00-1.653-.87.174.174 0 00-.067.295c.167.154.294.352.363.574zM20.028 7.762a1.321 1.321 0 00-.573.086 1.327 1.327 0 00-1.168-1.722 1.316 1.316 0 00-.77.184c.386.231.645.653.645 1.135v.007c-.001.181.149.321.33.31a1.327 1.327 0 011.406 1.229c.034.52-.232.98-.642 1.226a1.323 1.323 0 10.772-2.455z" fill="#384949"/>
  <path d="M10.886 8.647a.899.899 0 100-1.797.899.899 0 000 1.797zM7.131 9.938a.899.899 0 100-1.798.899.899 0 000 1.798zM15.538 9.938a.899.899 0 100-1.798.899.899 0 000 1.798z" fill="#537983"/>
  <path d="M22.542 21.02H1.458a.619.619 0 01-.62-.618v-.634c0-.342.278-.62.62-.62h21.084c.342 0 .619.278.619.62v.634a.619.619 0 01-.62.619z" fill="#FFF9F0"/>
  <path d="M2.451 11.492h19.33v7.565H2.45v-7.565z" fill="#314DC9"/>
  <path d="M22.542 11.492H1.458a.619.619 0 01-.62-.62v-.633c0-.342.278-.62.62-.62h21.084c.342 0 .619.278.619.62v.633a.619.619 0 01-.62.62z" fill="#FFF9F0"/>
  <path d="M22.542 19.149h-1.357c.342 0 .62.277.62.619v.634a.619.619 0 01-.62.619h1.357a.619.619 0 00.619-.62v-.633a.619.619 0 00-.62-.62zM22.542 9.62h-1.357c.342 0 .62.277.62.619v.633a.619.619 0 01-.62.62h1.357a.619.619 0 00.619-.62v-.633a.619.619 0 00-.62-.62z" fill="#FAE8DB"/>
  <path d="M13.51 22.52L12 21.33l-1.511 1.19a.404.404 0 01-.654-.318V16.84h4.33v5.362a.404.404 0 01-.655.318z" fill="#2ED1E2"/>
  <path d="M12.809 16.84v5.126l.702.554c.265.208.654.02.654-.318V16.84h-1.356z" fill="#07B2CD"/>
  <path d="M12 18.28a2.71 2.71 0 100-5.42 2.71 2.71 0 000 5.42z" fill="#2ED1E2"/>
  <path d="M12 12.86c-.234 0-.461.03-.678.086a2.711 2.711 0 010 5.249A2.71 2.71 0 1012 12.86z" fill="#03BED7"/>
  <path d="M12 16.76a1.19 1.19 0 100-2.38 1.19 1.19 0 000 2.38z" fill="#D4F2F6"/>
  <path d="M12 14.38c-.252 0-.485.079-.678.212a1.189 1.189 0 010 1.957A1.19 1.19 0 1012 14.38z" fill="#A6E7F0"/>
  <path d="M10.886 8.986a1.24 1.24 0 001.238-1.238 1.24 1.24 0 00-1.238-1.237 1.24 1.24 0 00-1.238 1.237 1.24 1.24 0 001.238 1.238zm0-1.797a.56.56 0 11-.001 1.12.56.56 0 01.001-1.12z" fill="#000"/>
  <path d="M22.542 11.83a.96.96 0 00.958-.957v-.634a.96.96 0 00-.958-.958h-.959a1.655 1.655 0 00-.445-1.342 1.24 1.24 0 00-1.755-1.652 1.656 1.656 0 00-1.548-.463 1.225 1.225 0 00-1.079-.644h-.009a1.238 1.238 0 00-1.207.976c-.241.066-.464.185-.653.349a1.636 1.636 0 00-.084-.069l2.595-3.984a.906.906 0 00-1.516-.988L12.915 6.02a1.67 1.67 0 00-1.266-.624 1.667 1.667 0 00-1.543-1.045c-.803 0-1.476.573-1.629 1.332a1.66 1.66 0 00-1.504.004 1.24 1.24 0 00-2.131 1.228c-.313.259-.53.63-.587 1.052A1.666 1.666 0 002.684 9.28H1.458a.959.959 0 00-.958.957v.635c0 .528.43.958.958.958h.654v6.979h-.654a.96.96 0 00-.958.958v.634c0 .528.43.958.958.958h8.038v.843a.745.745 0 00.744.744.74.74 0 00.459-.161L12 21.76l1.301 1.025c.225.178.526.21.784.085a.737.737 0 00.419-.668v-.843h1.77a.339.339 0 100-.678h-1.77v-1.194h8.038a.28.28 0 01.28.28v.634a.28.28 0 01-.28.28h-4.911a.34.34 0 100 .678h4.911a.96.96 0 00.958-.958v-.634a.96.96 0 00-.958-.958h-.423v-6.98h.423zm-2.474-5.073a.56.56 0 01.51.792 1.653 1.653 0 00-.722-.128 1.65 1.65 0 00-.107-.564.552.552 0 01.32-.1zm-3.316-.899h.004a.55.55 0 01.459.247c-.111.081-.212.175-.3.282a1.655 1.655 0 00-.645-.263.561.561 0 01.482-.266zm-.302-4.023a.227.227 0 01.38.247l-2.645 4.061a1.658 1.658 0 00-.515-.04l2.78-4.268zM5.415 6.418a.56.56 0 011.029-.306 1.66 1.66 0 00-.263.442 1.673 1.673 0 00-.737.04.558.558 0 01-.029-.176zM4.31 8.643c.063 0 .127.006.19.018a.339.339 0 00.358-.16.339.339 0 00.064-.228.985.985 0 011.364-.987.34.34 0 00.468-.263.985.985 0 011.837-.33.339.339 0 00.52.093.339.339 0 00.09-.39.985.985 0 111.87-.578c.036.179.208.298.388.268a.987.987 0 011.123.761.339.339 0 00.559.18.981.981 0 011.468.175.339.339 0 00.559 0 .985.985 0 011.562-.078.34.34 0 00.568-.08.985.985 0 011.835.701.339.339 0 00.446.42.985.985 0 011.32 1.116h-4.146a1.24 1.24 0 00-1.214-1.48 1.24 1.24 0 00-1.213 1.48h-5.98a1.239 1.239 0 10-2.428 0H3.39a.986.986 0 01.92-.638zm10.726.637a.56.56 0 111.008 0h-1.008zm-8.409 0a.56.56 0 111.02-.024l-.008.024H6.626zM1.458 20.682a.28.28 0 01-.28-.28v-.634a.28.28 0 01.28-.28h8.038v1.194H1.458zM12 17.942a2.374 2.374 0 01-2.371-2.372A2.374 2.374 0 0112 13.2a2.374 2.374 0 012.371 2.37A2.374 2.374 0 0112 17.942zm1.79 4.319a.06.06 0 01-.07-.008l-1.51-1.19a.339.339 0 00-.42 0l-1.51 1.19a.06.06 0 01-.07.008.06.06 0 01-.036-.058V18.01c.51.382 1.142.609 1.826.609.684 0 1.316-.227 1.826-.609v4.192a.06.06 0 01-.037.058zm7.651-3.451h-6.937v-1.313c0-.051-.012-.1-.033-.144a3.031 3.031 0 00.578-1.783A3.053 3.053 0 0012 12.521a3.053 3.053 0 00-3.05 3.05c0 .645.203 1.243.546 1.737v1.502H2.79v-6.98h1.553a.339.339 0 000-.678H1.458a.28.28 0 01-.28-.28v-.633a.28.28 0 01.28-.28h21.084a.28.28 0 01.28.28v.633a.28.28 0 01-.28.28H5.699a.339.339 0 000 .679H21.44v6.979z" fill="#000"/>
  <path d="M12 14.041c-.843 0-1.53.686-1.53 1.53 0 .843.687 1.529 1.53 1.529s1.53-.686 1.53-1.53c0-.843-.687-1.529-1.53-1.529zm0 2.38a.852.852 0 010-1.702.852.852 0 010 1.703zM4.36 15.274c0 .187.151.34.338.34h2.553a.339.339 0 000-.679H4.698a.339.339 0 00-.339.34zM16.617 15.613h2.553a.339.339 0 000-.678h-2.553a.339.339 0 100 .678z" fill="#000"/>
</svg>
