<svg width="24" height="24" fill="none" xmlns="http://www.w3.org/2000/svg">
  <defs/>
  <path d="M21.559 6.397a.275.275 0 00.276-.272v-.003c0-2.919-4.403-5.285-9.835-5.285-5.432 0-9.836 2.366-9.836 5.285v.003c0 .151.126.272.277.272h19.118z" fill="#E1DEE2"/>
  <path d="M12 .837c-.501 0-.994.02-1.475.06 4.733.381 8.362 2.576 8.362 5.225v.003a.275.275 0 01-.277.272h2.949a.275.275 0 00.276-.272v-.003c0-2.919-4.403-5.285-9.835-5.285z" fill="#C8C2C9"/>
  <path d="M14.853 23.163H9.146a.36.36 0 01-.359-.36V19.87c0-.198.161-.359.36-.359h5.706c.198 0 .36.161.36.36v2.934a.36.36 0 01-.36.359z" fill="#E1DEE2"/>
  <path d="M14.853 19.51h-.62v2.296c0 .209-.17.378-.378.378H8.787v.62c0 .198.161.359.36.359h5.706a.36.36 0 00.36-.36V19.87a.36.36 0 00-.36-.359z" fill="#C8C2C9"/>
  <path d="M12.744 21.226h-1.49a.36.36 0 01-.358-.36v-6.112a.45.45 0 01.449-.45h1.31a.45.45 0 01.448.45v6.112a.36.36 0 01-.359.36z" fill="#C8C2C9"/>
  <path d="M12.654 14.305h-.786a.45.45 0 01.45.449v6.112a.36.36 0 01-.36.36h.786a.36.36 0 00.36-.36v-6.112a.45.45 0 00-.45-.45z" fill="#B1ACB6"/>
  <path d="M18.937 4.297h-3.418A5.314 5.314 0 0012 2.972c-1.348 0-2.58.5-3.519 1.325H5.063c-.61 0-1.106.496-1.106 1.106v9.914c0 .61.495 1.106 1.106 1.106h3.418a5.313 5.313 0 003.52 1.326c1.348 0 2.579-.5 3.518-1.326h3.418c.61 0 1.106-.495 1.106-1.106V5.403c0-.61-.495-1.106-1.106-1.106z" fill="#C8C2C9"/>
  <path d="M19.178 4.324c.017.078.027.159.027.242v9.913c0 .61-.496 1.106-1.106 1.106h-3.13a.793.793 0 00-.493.17 5.31 5.31 0 01-3.314 1.156 5.309 5.309 0 01-2.992-.918 2.348 2.348 0 00-1.318-.408H4.225a1.11 1.11 0 01-.242-.027c.11.495.552.865 1.08.865H8.48A5.314 5.314 0 0012 17.75c1.348 0 2.58-.5 3.519-1.326h3.417c.611 0 1.107-.495 1.107-1.106V5.404c0-.528-.37-.97-.865-1.08z" fill="#B1ACB6"/>
  <path d="M18.197 14.665H5.803a.198.198 0 01-.199-.198V6.253c0-.11.09-.198.199-.198h12.394c.11 0 .198.089.198.198v8.214c0 .11-.088.198-.198.198z" fill="#A698A6"/>
  <path d="M18.209 6.055h-2.07v3.281a3.074 3.074 0 01-3.073 3.074H5.604v2.069c0 .103.084.187.187.187H18.21a.187.187 0 00.186-.187V6.242a.187.187 0 00-.186-.187z" fill="#8F8290"/>
  <path d="M12 13.347a2.949 2.949 0 100-5.898 2.949 2.949 0 000 5.898z" fill="#695E67"/>
  <path d="M13.457 7.835a2.949 2.949 0 01-4.021 4.021 2.947 2.947 0 005.512-1.458c0-1.098-.6-2.055-1.49-2.563z" fill="#544E56"/>
  <path d="M12 11.283a.885.885 0 100-1.77.885.885 0 000 1.77z" fill="#67D8E4"/>
  <path d="M18.335 1.71a.337.337 0 00-.27.618c2.151.94 3.398 2.297 3.433 3.732H20.38v-.656c0-.796-.648-1.444-1.444-1.444h-3.293a5.666 5.666 0 00-7.287 0H5.063c-.796 0-1.443.648-1.443 1.444v.656H2.502c.03-1.259.987-2.456 2.702-3.378C7.014 1.709 9.427 1.174 12 1.174c1.628 0 3.236.222 4.65.64a.337.337 0 10.191-.645C15.366.73 13.691.5 12 .5c-2.682 0-5.209.564-7.115 1.588-1.972 1.06-3.058 2.493-3.058 4.037 0 .336.276.61.614.61H3.62v5.33a.337.337 0 10.674 0V5.404a.77.77 0 01.769-.77H8.48c.082 0 .16-.03.222-.084a4.992 4.992 0 016.593 0c.062.054.14.084.223.084h3.417a.77.77 0 01.77.77v9.913a.77.77 0 01-.77.77H15.52c-.082 0-.161.029-.223.083a4.992 4.992 0 01-6.593 0 .337.337 0 00-.222-.084H5.063a.77.77 0 01-.77-.769v-1.731a.337.337 0 10-.673 0v1.731c0 .796.647 1.443 1.443 1.443h3.293a5.663 5.663 0 002.203 1.14v1.276a.336.336 0 00-.04-.003H9.146a.697.697 0 00-.697.697v2.934c0 .384.313.696.697.696h5.706a.697.697 0 00.696-.696V19.87a.697.697 0 00-.696-.697H13.48a.337.337 0 00-.04.003V17.9a5.663 5.663 0 002.202-1.14h3.293c.796 0 1.444-.647 1.444-1.443V6.734h1.179a.612.612 0 00.613-.605v-.007c0-1.738-1.398-3.346-3.837-4.411zm-4.854 18.137h1.372c.012 0 .022.01.022.022v2.934c0 .013-.01.023-.022.023H9.147a.023.023 0 01-.023-.023V19.87c0-.012.01-.022.023-.022h1.371a.336.336 0 00.04-.003v1.022c0 .384.313.697.697.697h1.49a.697.697 0 00.696-.697v-1.022a.336.336 0 00.04.003zm-.714 1.02c0 .012-.01.022-.023.022h-1.489a.023.023 0 01-.022-.023v-2.832a5.69 5.69 0 001.534 0v2.832z" fill="#000"/>
  <path d="M18.197 15.002c.295 0 .535-.24.535-.535V6.253a.536.536 0 00-.535-.535H5.803a.536.536 0 00-.535.535v8.214c0 .295.24.535.535.535h12.394zM5.941 6.392h12.117v7.936H5.941V6.393z" fill="#000"/>
  <path d="M14.524 8.836a.337.337 0 00-.16.448A2.615 2.615 0 0112 13.01a2.615 2.615 0 01-2.613-2.612 2.615 2.615 0 014.13-2.126.337.337 0 10.391-.548c-.56-.4-1.22-.612-1.91-.612a3.29 3.29 0 00-3.285 3.286A3.29 3.29 0 0012 13.684a3.29 3.29 0 002.973-4.687.337.337 0 00-.449-.161z" fill="#000"/>
  <path d="M10.778 10.398a1.223 1.223 0 002.443 0c0-.673-.547-1.221-1.221-1.221s-1.222.548-1.222 1.221zm1.77 0a.548.548 0 11-1.097-.001.548.548 0 011.097.001z" fill="#000"/>
</svg>
