<svg width="24" height="24" fill="none" xmlns="http://www.w3.org/2000/svg">
  <defs/>
  <path d="M15.032 19.638H2.645a.711.711 0 01-.711-.712V1.55c0-.393.318-.712.711-.712h12.387c.393 0 .711.319.711.712v17.377a.712.712 0 01-.711.711z" fill="#8479BF"/>
  <path d="M15.03.838h-1.644v15.729c0 .394-.32.714-.714.714H1.934v1.643c0 .394.32.714.714.714h12.381c.394 0 .714-.32.714-.714V1.552a.714.714 0 00-.714-.714z" fill="#7060B4"/>
  <g fill="#FB9539">
    <path d="M5.848 12.083a.742.742 0 100-1.485.742.742 0 000 1.485zM6.248 14.37a.726.726 0 100-1.453.726.726 0 000 1.453zM9.26 16.428a.726.726 0 100-1.452.726.726 0 000 1.452zM10.903 13.644a.726.726 0 100-1.453.726.726 0 000 1.453z"/>
    <path d="M10.177 14.37a.726.726 0 100-1.453.726.726 0 000 1.453zM8.533 12.661a.742.742 0 100-1.484.742.742 0 000 1.484zM8.533 10.71a.742.742 0 100-1.486.742.742 0 000 1.485z"/>
  </g>
  <path d="M13.993 7.374H3.91a.258.258 0 01-.241-.351l.626-1.616a.258.258 0 000-.186L3.67 3.605a.258.258 0 01.24-.352h10.083c.179 0 .303.178.242.347l-.59 1.626a.259.259 0 000 .176l.59 1.626a.258.258 0 01-.242.346z" fill="#FDDE2E"/>
  <path d="M13.645 5.402a.258.258 0 010-.176l.59-1.626a.258.258 0 00-.242-.347h-.707l-.497 1.367a.258.258 0 000 .176l.591 1.626a.258.258 0 01-.243.347H3.77l-.099.254c-.066.169.06.351.24.351h10.083a.258.258 0 00.242-.346l-.59-1.626z" fill="#F9C301"/>
  <path d="M13.447 17.636c.715 0 1.294-.807 1.294-1.802s-.58-1.802-1.294-1.802c-.715 0-1.295.807-1.295 1.802s.58 1.802 1.295 1.802z" fill="#FDB143"/>
  <path d="M13.83 14.112c.155.297.247.663.247 1.058 0 .995-.58 1.802-1.295 1.802a.964.964 0 01-.384-.08c.236.45.617.744 1.048.744.715 0 1.295-.807 1.295-1.802 0-.81-.383-1.494-.91-1.722z" fill="#FA9801"/>
  <path d="M17.189 17.853c.995 0 1.802-.58 1.802-1.294 0-.715-.807-1.294-1.802-1.294s-1.802.58-1.802 1.294c0 .715.806 1.294 1.802 1.294zM19.615 13.742c.704-.704.864-1.684.359-2.19-.506-.505-1.486-.344-2.19.36-.703.703-.863 1.683-.358 2.188.505.506 1.485.345 2.189-.358z" fill="#FDB143"/>
  <path d="M19.977 11.552a.977.977 0 00-.402-.24c.167.528-.052 1.24-.599 1.787-.546.547-1.26.766-1.787.6a.974.974 0 00.24.401c.505.506 1.485.345 2.19-.359.703-.704.864-1.684.358-2.19z" fill="#FA9801"/>
  <path d="M13.606 21.436c.995 0 1.802-.58 1.802-1.295 0-.714-.807-1.294-1.802-1.294s-1.802.58-1.802 1.294c0 .715.806 1.295 1.802 1.295z" fill="#FDB143"/>
  <path d="M18.194 15.485a.956.956 0 01.064.342c0 .715-.807 1.294-1.802 1.294-.372 0-.718-.081-1.006-.22.209.549.908.953 1.738.953.995 0 1.802-.58 1.802-1.295 0-.447-.316-.842-.796-1.074zM14.612 19.067a.958.958 0 01.064.342c0 .715-.807 1.294-1.802 1.294a2.32 2.32 0 01-1.006-.22c.209.55.908.953 1.738.953.995 0 1.802-.58 1.802-1.295 0-.447-.316-.841-.796-1.074z" fill="#FA9801"/>
  <path d="M1.934 14.236a.338.338 0 00.338-.339V1.552c0-.207.169-.376.376-.376h12.381c.208 0 .376.169.376.376V13.85a.338.338 0 10.676 0V1.552C16.081.972 15.61.5 15.03.5H2.648c-.58 0-1.052.472-1.052 1.052v12.345c0 .187.151.338.338.338z" fill="#000"/>
  <path d="M6.928 11.34c0-.596-.485-1.08-1.08-1.08a1.082 1.082 0 000 2.16c.595 0 1.08-.484 1.08-1.08zm-1.485 0a.405.405 0 11.81.001.405.405 0 01-.81 0zM6.247 14.707a1.066 1.066 0 000-2.128 1.065 1.065 0 000 2.128zm0-1.452a.388.388 0 110 .777.388.388 0 010-.777zM9.26 16.766c.587 0 1.064-.478 1.064-1.064a1.066 1.066 0 00-2.129 0c0 .586.478 1.064 1.065 1.064zm0-1.452a.388.388 0 11-.001.776.388.388 0 010-.776z" fill="#000"/>
  <path d="M11.199 13.94a1.065 1.065 0 10-1.318-1.318 1.066 1.066 0 101.318 1.318zm-1.022.091a.388.388 0 110-.777.388.388 0 010 .777zm.428-1.362a.387.387 0 11.546.546 1.07 1.07 0 00-.546-.546zM7.452 11.918a1.082 1.082 0 002.161 0c0-.43-.252-.802-.617-.975a1.082 1.082 0 00-.463-2.057 1.082 1.082 0 00-.463 2.057 1.082 1.082 0 00-.618.976zm1.08-2.356a.405.405 0 110 .81.405.405 0 010-.81zm0 1.952a.405.405 0 110 .81.405.405 0 010-.81zM14.481 7.458a.597.597 0 00.072-.545l-.58-1.6.58-1.598a.597.597 0 00-.56-.8h-7.59a.338.338 0 100 .676h7.476l-.552 1.52a.597.597 0 000 .406l.552 1.52H4.028l.583-1.508a.595.595 0 000-.43L4.028 3.59h.883a.338.338 0 100-.676h-1a.596.596 0 00-.556.812l.615 1.587L3.355 6.9a.596.596 0 00.556.812h10.082a.597.597 0 00.488-.255z" fill="#000"/>
  <path d="M22.326 10.297a.338.338 0 00-.476-.043l-1.486 1.236a1.3 1.3 0 00-.413-.382l1.145-1.578a.338.338 0 10-.547-.397l-1.297 1.786a1.885 1.885 0 00-.35.025c-.483.08-.964.337-1.354.727-.39.39-.648.871-.727 1.354-.065.392-.007.752.16 1.043l-1.906 1.907c.003-.047.004-.094.004-.141 0-.552-.157-1.074-.442-1.472a1.873 1.873 0 00-.23-.265l.345-2.18a.338.338 0 10-.668-.106l-.305 1.926a1.3 1.3 0 00-.563-.022l-.176-1.926a.338.338 0 00-.674.062l.2 2.176a1.822 1.822 0 00-.31.335c-.285.398-.442.92-.442 1.472 0 .551.157 1.074.443 1.471.234.326.532.541.861.627L11.92 19.13l-.022.022-.147.147H2.648a.376.376 0 01-.376-.376V15.38a.338.338 0 00-.676 0v3.544c0 .58.472 1.052 1.052 1.052h8.426l-2.946 2.947a.338.338 0 00.478.478l2.908-2.909c.09.32.302.61.62.84.398.285.92.442 1.472.442.552 0 1.074-.157 1.471-.443.13-.093.243-.197.336-.309l2.176.2.031.001a.338.338 0 00.03-.675l-1.925-.176a1.297 1.297 0 00-.022-.563l1.926-.305a.338.338 0 10-.106-.668l-2.18.346a1.871 1.871 0 00-.265-.23c-.398-.286-.92-.443-1.472-.443-.037 0-.074 0-.11.002l1.6-1.6c.057.2.161.388.31.557v.598a.338.338 0 10.675 0v-.107c.33.151.712.233 1.107.233.552 0 1.074-.157 1.472-.443.13-.093.242-.197.336-.309l2.175.2a.338.338 0 10.062-.673l-1.926-.178a1.297 1.297 0 00-.022-.562l1.926-.305a.338.338 0 10-.106-.668l-2.18.346a1.878 1.878 0 00-.265-.23c-.398-.286-.92-.443-1.472-.443a.593.593 0 00-.123.015l.395-.395c.214.123.464.187.736.187.1 0 .203-.009.308-.026.482-.08.963-.338 1.353-.728.39-.39.648-.87.727-1.353.026-.158.032-.31.02-.456l1.679-1.397a.338.338 0 00.043-.477zm-9.836 5.537c0-.794.438-1.464.957-1.464.518 0 .956.67.956 1.464 0 .793-.438 1.464-.956 1.464-.519 0-.957-.67-.957-1.464zm2.58 4.308c0 .518-.67.956-1.464.956-.793 0-1.464-.438-1.464-.956 0-.519.67-.957 1.464-.957.793 0 1.464.438 1.464.957zm3.582-3.583c0 .518-.67.956-1.464.956-.793 0-1.463-.438-1.463-.956s.67-.956 1.463-.956c.794 0 1.464.438 1.464.956zm1.265-4.042c-.056.345-.248.694-.538.985-.561.561-1.345.726-1.711.359-.166-.165-.23-.423-.18-.727.057-.344.248-.694.538-.984.358-.358.807-.555 1.18-.555.212 0 .4.063.532.196.165.165.229.423.18.726z" fill="#000"/>
</svg>
