<svg width="24" height="24" fill="none" xmlns="http://www.w3.org/2000/svg">
  <defs/>
  <path d="M11.674 5.072l-1.229-1.228-2.908 2.908L8.765 7.98l4.818 4.818 1.228 1.228 2.908-2.908-1.228-1.229" fill="#EAC36E"/>
  <path d="M7.863 8.883L12.68 13.7l4.713-4.713-4.817-4.818-4.713 4.714z" fill="#FCD577"/>
  <path d="M7.863 8.883L12.68 13.7l1.208-1.208L9.07 7.675 7.863 8.883z" fill="#EAC36E"/>
  <g fill="#FCD577">
    <path d="M6.635 7.655L5.272 6.292a.841.841 0 010-1.19l3.524-3.524a.841.841 0 011.19 0l1.363 1.363-4.714 4.714zM15.271 16.292l-1.363-1.364 4.714-4.713 1.363 1.363a.841.841 0 010 1.19l-3.524 3.524a.841.841 0 01-1.19 0z"/>
  </g>
  <g fill="#EAC36E">
    <path d="M7.547 6.743l-.912.912-1.331-1.331a.886.886 0 010-1.254l.912-.912a.886.886 0 000 1.253l1.331 1.332zM17.406 15.348l-.912.912a.886.886 0 01-1.254 0l-1.33-1.33.911-.913 1.332 1.331a.886.886 0 001.253 0z"/>
  </g>
  <path d="M11.386 12.406l-.886.886-7.085 7.083a.962.962 0 01-1.36 0l-.867-.866a.962.962 0 010-1.36l7.084-7.085.886-.886 2.228 2.228z" fill="#FCD577"/>
  <path d="M10.5 13.291l.886-.886-2.228-2.227-.886.886L10.5 13.29z" fill="#EAC36E"/>
  <path d="M20.94 22.637h2.165v-.977a1.3 1.3 0 00-1.3-1.3h-9.296a1.3 1.3 0 00-1.301 1.3v.977h8.213" fill="#4EBFED"/>
  <path d="M14.197 20.36h-1.688a1.3 1.3 0 00-1.301 1.3v.977h1.688v-.977a1.3 1.3 0 011.3-1.3z" fill="#3BA4BC"/>
  <path d="M12.392 14a.4.4 0 00.566 0l.62-.62.661.662-.619.62a.4.4 0 000 .565l1.363 1.364c.242.242.56.363.878.363.318 0 .636-.121.878-.363l3.524-3.524a1.243 1.243 0 000-1.757L18.9 9.947a.4.4 0 00-.566 0l-.62.62-.662-.662.62-.62a.4.4 0 00.003-.563l-.624-.636a.4.4 0 00-.572.56l.346.353-4.15 4.15L8.424 8.9l4.148-4.148 2.814 2.802a.4.4 0 10.565-.567L12.854 3.9a.4.4 0 00-.566 0l-.62.62-.662-.662.62-.62a.4.4 0 000-.566L10.263 1.31a1.243 1.243 0 00-1.756 0L4.983 4.834a1.243 1.243 0 000 1.756l1.363 1.363a.4.4 0 00.566 0l.62-.619.662.662-.62.62a.4.4 0 000 .566l1.012 1.011-1.757 1.758a.4.4 0 10.566.566l1.757-1.757 1.662 1.66-7.688 7.688a.558.558 0 01-.794 0l-.866-.867a.558.558 0 010-.794l4.875-4.875a.4.4 0 00-.567-.566L.9 17.88c-.257.257-.399.6-.399.963 0 .364.142.706.4.963l.866.867c.266.266.614.399.963.399.35 0 .698-.133.964-.399l7.687-7.687L12.392 14zm6.225-3.203l1.08 1.08a.441.441 0 010 .623l-3.524 3.524a.441.441 0 01-.623 0l-1.08-1.08 4.147-4.147zm-1.47.336l-2.341 2.342-.662-.662 2.342-2.341.662.662zM6.63 7.103l-1.08-1.08a.441.441 0 010-.623l3.524-3.523a.44.44 0 01.624 0l1.08 1.08-4.148 4.147zm1.469-.335l2.342-2.342.662.662L8.76 7.43l-.662-.662zM21.798 19.974h-9.295c-.938 0-1.701.763-1.701 1.701v.978c0 .22.18.4.4.4h8.213a.4.4 0 100-.8h-7.812v-.578c0-.496.404-.9.9-.9h9.295c.497 0 .9.404.9.9v.577h-1.765a.4.4 0 000 .801H23.1a.4.4 0 00.4-.4v-.978c0-.938-.763-1.701-1.7-1.701z" fill="#000"/>
</svg>
