<svg width="24" height="24" fill="none" xmlns="http://www.w3.org/2000/svg">
  <defs/>
  <path d="M7.598 16.632H5.344v6.54h2.254v-6.54z" fill="#1E4751"/>
  <path d="M7.805 23.163h-2.67a.484.484 0 01-.484-.484v-.372c0-.267.217-.484.485-.484h2.669c.267 0 .484.217.484.484v.372a.484.484 0 01-.484.484zM18.657 16.632h-2.254v6.54h2.254v-6.54z" fill="#1E4751"/>
  <path d="M18.468 15.15H5.532V3.679A2.841 2.841 0 018.374.837h7.252a2.841 2.841 0 012.842 2.842v11.47z" fill="#F43B45"/>
  <path d="M15.626.837h-2.3a2.841 2.841 0 012.84 2.842v11.47h2.302V3.68A2.841 2.841 0 0015.626.837zM5.532 16.869v-6.456a.786.786 0 00-.786-.786H3.478a.786.786 0 00-.787.786v3.615a2.84 2.84 0 002.841 2.84z" fill="#D82B2B"/>
  <path d="M18.468 16.869v-6.456c0-.434.352-.786.786-.786h1.268c.435 0 .787.352.787.786v3.615a2.84 2.84 0 01-2.841 2.84z" fill="#F43B45"/>
  <path d="M18.595 18.6H5.405a.754.754 0 01-.754-.753V16.02H19.35v1.827a.754.754 0 01-.754.753z" fill="#345863"/>
  <path d="M19.38 17.31H4.62a1.332 1.332 0 01-1.332-1.332 2.11 2.11 0 012.11-2.11h13.205a2.11 2.11 0 012.11 2.11c0 .736-.596 1.332-1.332 1.332z" fill="#FF4A5C"/>
  <path d="M18.864 23.163h-2.669a.484.484 0 01-.484-.484v-.372c0-.267.217-.484.484-.484h2.67c.267 0 .484.217.484.484v.372a.484.484 0 01-.485.484z" fill="#1E4751"/>
  <g fill="#000">
    <path d="M21.646 10.413c0-.62-.504-1.124-1.123-1.124h-1.269c-.16 0-.311.034-.449.094V7.417a.337.337 0 00-.674 0v6.114H5.869V7.417a.337.337 0 00-.674 0v1.966a1.117 1.117 0 00-.449-.094H3.478c-.62 0-1.124.504-1.124 1.124v3.614c0 .674.207 1.313.599 1.855a1.672 1.672 0 001.362 1.737v.227c0 .461.287.856.691 1.016v2.634a.823.823 0 00-.691.811v.372c0 .453.368.821.82.821h2.67a.822.822 0 00.821-.821v-.372c0-.409-.3-.749-.692-.81v-2.56h8.132v2.56a.823.823 0 00-.692.81v.372c0 .453.369.821.821.821h2.67a.822.822 0 00.82-.821v-.372c0-.409-.3-.749-.691-.81v-2.635c.405-.16.692-.555.692-1.015v-.228a1.672 1.672 0 001.362-1.737 3.142 3.142 0 00.598-1.854v-3.615zM3.192 14.919a2.49 2.49 0 01-.163-.892v-3.614a.45.45 0 01.449-.45h1.268a.45.45 0 01.45.45v3.126a2.452 2.452 0 00-2.004 1.38zm4.76 7.388v.372a.147.147 0 01-.147.147h-2.67a.147.147 0 01-.146-.147v-.372c0-.08.066-.147.147-.147h2.67c.08 0 .146.066.146.147zm-2.271-.821v-2.549h1.58v2.549H5.68zm13.33.821v.372a.147.147 0 01-.146.147h-2.67a.147.147 0 01-.147-.147v-.372c0-.08.066-.147.147-.147h2.67c.08 0 .147.066.147.147zm-2.27-.821v-2.549h1.579v2.549h-1.58zm2.27-3.64c0 .23-.186.417-.416.417H5.405a.417.417 0 01-.416-.417v-.199h14.023v.2zm.37-.873H4.62a.996.996 0 01-.995-.995c0-.977.795-1.773 1.773-1.773h13.205c.977 0 1.773.796 1.773 1.773a.996.996 0 01-.995.995zm1.59-2.945c0 .31-.055.61-.162.891a2.452 2.452 0 00-2.004-1.38v-3.126a.45.45 0 01.45-.45h1.268a.45.45 0 01.449.45v3.614zM5.532 6.406c.186 0 .337-.151.337-.337v-2.39a2.507 2.507 0 012.505-2.505h7.252a2.507 2.507 0 012.505 2.505v2.39a.337.337 0 00.674 0v-2.39A3.182 3.182 0 0015.627.5H8.373a3.182 3.182 0 00-3.179 3.179v2.39c0 .186.151.337.337.337z"/>
  </g>
</svg>
