<svg width="24" height="24" fill="none" xmlns="http://www.w3.org/2000/svg">
  <defs/>
  <path d="M15.688 6.617h-1.97v3.385h1.97V6.617zM13.352 14.162v.734c.203 0 .368.164.368.367v4.567h1.969v-4.567c0-.203.164-.367.367-.367v-.734h-2.704zM7.93 14.162v.734c.202 0 .367.164.367.367v4.567h1.98v-4.567c0-.203.164-.367.366-.367v-.734H7.93zM10.277 1.234h-1.98v4.91a.366.366 0 010 .211v3.647h1.98V1.234z" fill="#F2EBD9"/>
  <path d="M7.173 14.162c-.877 0-1.59.713-1.59 1.59v2.487c0 .877.713 1.59 1.59 1.59h.39v-4.566c0-.203.164-.367.367-.367v-.734h-.757zM10.644 14.162v.734c.202 0 .367.164.367.367v4.567h1.974v-4.567c0-.203.165-.367.367-.367v-.734h-2.708zM16.827 14.162h-.771v.734c.202 0 .367.164.367.367v4.567h.404c.877 0 1.59-.714 1.59-1.59v-2.488c0-.877-.713-1.59-1.59-1.59zM18.417 6.617h-1.995v3.385h1.995V6.617zM12.985 6.617h-1.974v3.385h1.974V6.617zM7.563 6.617h-1.98v3.385h1.98V6.617z" fill="#fff"/>
  <path d="M6.462 4.66H5.216c-.877 0-1.59.713-1.59 1.59v3.752h1.223V6.25c0-.203.165-.367.367-.367h2.347v-1.59h-.734a.367.367 0 01-.367.367zM18.785 5.883c.202 0 .367.164.367.367v3.752h1.223V6.25c0-.877-.713-1.59-1.59-1.59h-6.673a.367.367 0 01-.367-.367h-.734v1.59h7.774z" fill="#FF6E1D"/>
  <path d="M2.158 10.736v12.397h19.685V10.736H2.158zm16.994 7.503a2.327 2.327 0 01-2.325 2.325H7.174a2.327 2.327 0 01-2.324-2.325v-2.487a2.327 2.327 0 012.324-2.324h9.653a2.327 2.327 0 012.325 2.324v2.487z" fill="#FFCC75"/>
  <path d="M22.21 7.066a.367.367 0 00-.367.367v2.569h-.734V6.25a2.327 2.327 0 00-2.325-2.324h-6.672a.367.367 0 000 .734h6.673c.877 0 1.59.713 1.59 1.59v3.752H19.15V6.25a.367.367 0 00-.366-.367H11.01V.867A.367.367 0 0010.644.5H7.93a.367.367 0 00-.367.367v5.016H5.216a.367.367 0 00-.367.367v3.752H3.626V6.25c0-.877.713-1.59 1.59-1.59h1.246a.367.367 0 100-.734H5.216A2.327 2.327 0 002.892 6.25v3.752h-.734v-2.57a.367.367 0 00-.734 0v15.701a.367.367 0 00.734 0V10.736h19.685v12.397a.367.367 0 00.734 0v-15.7a.367.367 0 00-.367-.367zm-3.793 2.936h-1.995V6.617h1.995v3.385zM13.72 6.617h1.97v3.385h-1.97V6.617zm-.734 3.385h-1.974V6.617h1.974v3.385zM8.297 6.355a.366.366 0 000-.21V1.234h1.98v8.768h-1.98V6.355zm-.734 3.647h-1.98V6.617h1.98v3.385z" fill="#082947"/>
  <path d="M16.827 13.428H7.174a2.327 2.327 0 00-2.324 2.324v2.487a2.327 2.327 0 002.324 2.325h9.653a2.327 2.327 0 002.325-2.325v-2.487a2.327 2.327 0 00-2.325-2.324zm1.59 4.811c0 .877-.713 1.59-1.59 1.59h-.404v-4.566a.367.367 0 00-.734 0v4.567h-1.97v-4.567a.367.367 0 10-.734 0v4.567h-1.974v-4.567a.367.367 0 10-.734 0v4.567h-1.98v-4.567a.367.367 0 00-.734 0v4.567h-.389c-.877 0-1.59-.714-1.59-1.59v-2.488c0-.877.713-1.59 1.59-1.59h9.653c.877 0 1.59.713 1.59 1.59v2.487z" fill="#082947"/>
</svg>
