<svg width="24" height="24" fill="none" xmlns="http://www.w3.org/2000/svg">
  <defs/>
  <path d="M4.186 1.581c-.822 0-1.489.667-1.489 1.489V15.72c0 .822.667 1.488 1.489 1.488h11.907c.822 0 1.488-.666 1.488-1.488V3.07c0-.822-.666-1.489-1.488-1.489H4.186z" fill="#A8EBFA"/>
  <path d="M16.093 1.581h-.989c.823 0 1.489.667 1.489 1.489V15.72c0 .822-.666 1.488-1.489 1.488h.989c.822 0 1.488-.666 1.488-1.488V3.07c0-.822-.666-1.489-1.488-1.489z" fill="#76E2F8"/>
  <path d="M4.93 11.705V1.581c0-.41.333-.744.744-.744h8.93c.411 0 .745.333.745.744v10.124H4.929z" fill="#898989"/>
  <path d="M14.604.837h-.988c.411 0 .744.333.744.744v10.124h.989V1.581a.744.744 0 00-.745-.744z" fill="#727575"/>
  <path d="M15.823 12.744H4.455a.27.27 0 01-.27-.27v-.949c0-.149.121-.27.27-.27h11.368c.15 0 .27.121.27.27v.95a.27.27 0 01-.27.27z" fill="#FFD400"/>
  <path d="M15.823 11.256h-.988c.149 0 .27.12.27.27v.949a.27.27 0 01-.27.27h.988a.27.27 0 00.27-.27v-.95a.27.27 0 00-.27-.27z" fill="#FF9F00"/>
  <path d="M5.674 14.977a.744.744 0 11-1.488 0 .744.744 0 011.488 0z" fill="#70DA40"/>
  <path d="M9.396.837v1.219c0 .149.12.27.269.27h.95a.27.27 0 00.269-.27V.837H9.396zM12.372.837v1.219c0 .149.12.27.27.27h.95a.27.27 0 00.269-.27V.837h-1.489z" fill="#FFD400"/>
  <path d="M9.924 9.48l-.578-.77a.27.27 0 01.216-.431h1.155a.27.27 0 01.215.431l-.577.77a.27.27 0 01-.431 0z" fill="#70DA40"/>
  <path d="M13.718 20.372v1.489h-2.565a.27.27 0 01-.27-.27v-.95c0-.148.122-.269.27-.269h2.565z" fill="#FFD400"/>
  <g fill="#FF9F00">
    <path d="M12.128 20.372h1.59v1.489h-1.59v-1.489zM9.396.837h.5v1.219a.27.27 0 01-.25.268.24.24 0 00.02.001h.948a.27.27 0 00.27-.27V.838H9.396zM12.372.837h.5v1.219a.27.27 0 01-.25.268l.02.002h.95a.27.27 0 00.269-.27V.837h-1.489z"/>
  </g>
  <path d="M14.232 23.163c-.616 0-1.116-.5-1.116-1.116v-1.86c0-.617.5-1.117 1.116-1.117h4.94c.15 0 .27.12.27.27v3.553a.27.27 0 01-.27.27h-4.94z" fill="#A8EBFA"/>
  <path d="M19.173 19.07h-.988c.149 0 .27.12.27.27v3.553a.27.27 0 01-.27.27h.988a.27.27 0 00.27-.27V19.34a.27.27 0 00-.27-.27z" fill="#76E2F8"/>
  <path d="M16.465 21.591v-.95c0-.148.12-.269.27-.269h.949c.148 0 .27.12.27.27v.95a.27.27 0 01-.27.269h-.95a.27.27 0 01-.27-.27z" fill="#FFD400"/>
  <path d="M17.684 20.372h-.95l-.02.001c.14.01.25.126.25.269v.95a.27.27 0 01-.25.268h.97a.27.27 0 00.27-.269v-.95a.27.27 0 00-.27-.269z" fill="#FF9F00"/>
  <path d="M3.849 14.977c0 .596.485 1.08 1.08 1.08.597 0 1.082-.484 1.082-1.08a1.082 1.082 0 00-2.162 0zm1.488 0a.408.408 0 11-.815-.001.408.408 0 01.815 0zM16.43 15.721v-.744a.337.337 0 10-.674 0v.744a.337.337 0 10.674 0zM14.941 15.721v-.744a.337.337 0 10-.673 0v.744a.337.337 0 10.673 0zM13.453 15.721v-.744a.337.337 0 10-.674 0v.744a.337.337 0 10.674 0zM11.256 7.942H9.023a.337.337 0 00-.27.539L9.87 9.97a.337.337 0 00.54 0l1.115-1.489a.337.337 0 00-.269-.54zM10.14 9.206l-.443-.59h.885l-.442.59z" fill="#000"/>
  <path d="M22.047 22.268h-2.268v-2.303h2.268a.337.337 0 100-.674h-2.268v-.221a.337.337 0 00-.337-.337h-4.463-.747c-.75 0-1.369.572-1.445 1.302h-.486a.337.337 0 00-.602 0h-.815a.337.337 0 00-.337.337v.408H3.069a.78.78 0 010-1.56h8.187c.801 0 1.453-.651 1.453-1.453v-.22h3.384a1.827 1.827 0 001.826-1.826V3.07a1.827 1.827 0 00-1.826-1.826h-.461A1.083 1.083 0 0014.605.5h-8.93c-.48 0-.886.313-1.028.744h-.461A1.827 1.827 0 002.36 3.07V15.72c0 1.006.818 1.825 1.825 1.825h2.45a.337.337 0 100-.674h-2.45a1.153 1.153 0 01-1.152-1.151V3.07c0-.635.517-1.152 1.152-1.152h.407v9h-.407a.337.337 0 00-.337.338v1.488c0 .186.15.337.337.337h11.907c.186 0 .337-.15.337-.337v-1.488a.337.337 0 00-.337-.337h-.407v-9h.407c.635 0 1.152.516 1.152 1.15v12.652c0 .635-.517 1.151-1.152 1.151H7.984a.337.337 0 100 .674h4.051v.221c0 .43-.35.78-.78.78H3.07c-.8 0-1.453.652-1.453 1.453 0 .802.652 1.453 1.454 1.453h7.477v.408c0 .186.15.337.337.337h.815a.336.336 0 00.602 0h.486c.076.73.695 1.302 1.445 1.302h5.21a.336.336 0 00.337-.337v-.221h2.268a.337.337 0 100-.674zM13.524 1.174v.815h-.815v-.815h.815zm-2.977 0v.815h-.815v-.815h.815zm5.21 11.233H4.522v-.814h11.233v.814zM5.266 10.92V1.58c0-.224.183-.407.407-.407h3.384v1.151c0 .187.151.337.337.337h1.489c.186 0 .336-.15.336-.337V1.174h.815v1.151c0 .187.151.337.337.337h1.489c.186 0 .336-.15.336-.337V1.174h.408c.224 0 .407.182.407.407v9.338H5.267zm7.513 10.605h-.443v-.815h.443v.815zm-1.56-.815h.443v.815h-.443v-.815zm2.233 1.338v-.185-1.49-.186c0-.43.35-.78.78-.78h.407v3.42h-.408a.78.78 0 01-.779-.78zm5.652.78l-3.791-.001v-3.42h3.791v3.42z" fill="#000"/>
  <path d="M17.953 20.035h-1.488a.337.337 0 00-.337.337v1.489c0 .186.15.337.337.337h1.488c.186 0 .337-.151.337-.337v-1.489a.337.337 0 00-.337-.337zm-.337 1.489h-.814v-.815h.814v.815z" fill="#000"/>
</svg>
