<svg width="24" height="24" fill="none" xmlns="http://www.w3.org/2000/svg">
  <defs/>
  <g fill="#808B95">
    <path d="M2.594 1.481v5.094c0 .356.288.644.644.644H5.61a.644.644 0 00.645-.644V1.48A.644.644 0 005.61.837H3.238a.644.644 0 00-.644.644zM17.746 1.482v5.094c0 .356.289.644.645.644h2.372a.644.644 0 00.644-.644V1.482a.644.644 0 00-.644-.644H18.39a.644.644 0 00-.644.644zM2.594 17.426v5.094c0 .356.288.644.644.644H5.61a.644.644 0 00.645-.644v-5.094a.644.644 0 00-.645-.644H3.238a.644.644 0 00-.644.644zM17.746 17.426v5.094c0 .356.289.644.645.644h2.372a.644.644 0 00.644-.644v-5.094a.644.644 0 00-.644-.644H18.39a.644.644 0 00-.644.644z"/>
  </g>
  <path d="M20.763.837H19.61v4.84a.644.644 0 01-.644.644h-1.22v.254c0 .356.289.644.645.644h2.372a.644.644 0 00.644-.644V1.48a.644.644 0 00-.644-.644zM5.61.837H4.458v4.84a.644.644 0 01-.644.644h-1.22v.254c0 .356.288.644.644.644H5.61a.644.644 0 00.645-.644V1.48A.644.644 0 005.61.837zM5.61 16.781H4.458v4.84a.644.644 0 01-.644.644h-1.22v.254c0 .356.288.644.644.644H5.61a.644.644 0 00.645-.644v-5.094a.644.644 0 00-.645-.644zM20.763 16.781H19.61v4.84a.644.644 0 01-.644.644h-1.22v.254c0 .356.289.644.645.644h2.372a.644.644 0 00.644-.644v-5.094a.644.644 0 00-.644-.644z" fill="#5E6B75"/>
  <path d="M13.629 5.291l-.715.898h-1.827l-.715-.898V1.507h3.257V5.29z" fill="#E28086"/>
  <path d="M11.087 6.19h1.826v1.816h-1.826V6.19z" fill="#707DD3"/>
  <path d="M10.725 18.42h2.552v3.105h-2.552v-3.106z" fill="#E28086"/>
  <path d="M10.9 20.626h-.175v.899h2.552v-3.106h-1.348v1.178c0 .569-.46 1.03-1.029 1.03zM12.281 1.507v2.526c0 .233-.079.459-.224.64l-.182.23a1.029 1.029 0 01-.805.388h-.698l.715.898h1.827l.715-.898V1.507H12.28z" fill="#DD636E"/>
  <path d="M14.413 20.79h-1.137v-1.635h1.137v1.634zM10.725 20.79H9.588v-1.635h1.137v1.634zM14.766 4.845h-1.137V3.211h1.137v1.634z" fill="#707DD3"/>
  <path d="M12.581 8.006v10.413h-1.16V8.006h1.16z" fill="#DAE4EA"/>
  <path d="M10.372 4.845H9.235V3.211h1.137v1.634z" fill="#707DD3"/>
  <path d="M16.618 4.028c0-.212.058-.41.16-.58h-2.012v1.16h2.012a1.124 1.124 0 01-.16-.58z" fill="#DAE4EA"/>
  <path d="M17.746 2.9a1.128 1.128 0 100 2.256V2.9z" fill="#707DD3"/>
  <path d="M7.383 4.028c0-.212-.058-.41-.16-.58h2.012v1.16H7.223c.102-.17.16-.368.16-.58z" fill="#DAE4EA"/>
  <path d="M6.255 2.9a1.128 1.128 0 110 2.256V2.9z" fill="#707DD3"/>
  <path d="M16.617 19.972c0-.212.059-.41.161-.58h-2.365v1.16h2.365a1.123 1.123 0 01-.16-.58z" fill="#DAE4EA"/>
  <path d="M17.746 18.844a1.128 1.128 0 100 2.256v-2.256z" fill="#707DD3"/>
  <path d="M7.383 19.972c0-.212-.058-.41-.16-.58h2.365v1.16H7.223c.102-.169.16-.368.16-.58z" fill="#DAE4EA"/>
  <path d="M6.255 18.844a1.128 1.128 0 110 2.256v-2.256z" fill="#707DD3"/>
  <path d="M18.39 7.556h2.372c.542 0 .982-.44.982-.981V1.48A.982.982 0 0020.762.5H18.39a.982.982 0 00-.981.981v1.12a1.468 1.468 0 00-.805.51h-1.517a.337.337 0 00-.322-.237h-.8V1.507a.337.337 0 00-.336-.337h-3.257a.337.337 0 00-.337.337v1.367h-.8c-.151 0-.279.1-.322.237H7.397a1.468 1.468 0 00-.805-.51v-1.12A.982.982 0 005.61.5H3.238a.982.982 0 00-.981.981v5.094c0 .54.44.981.981.981H5.61c.541 0 .982-.44.982-.981v-1.12c.322-.077.603-.26.805-.51h1.516c.043.137.171.237.322.237h.8v.11c0 .075.026.15.073.209l.642.806v1.699c0 .184.149.334.333.337v2.797h-.122a.337.337 0 100 .674h.122v.523a.337.337 0 10.674 0v-.523h.487v2.797h-.487v-.702a.337.337 0 00-.674 0v.702h-.122a.337.337 0 100 .674h.122v2.797h-.359a.337.337 0 00-.337.337v.4h-.8c-.15 0-.279.099-.321.236h-1.87a1.468 1.468 0 00-.804-.51v-1.12a.983.983 0 00-.982-.981H3.238a.983.983 0 00-.981.981v5.094c0 .54.44.981.981.981H5.61c.541 0 .982-.44.982-.981v-1.12c.322-.077.603-.26.805-.51h1.869c.042.137.17.237.321.237h.8v.399c0 .186.151.337.337.337h2.552c.186 0 .337-.151.337-.337v-.4h.8c.151 0 .28-.099.322-.236h1.869c.201.25.483.433.805.51v1.12c0 .54.44.981.981.981h2.372c.542 0 .982-.44.982-.981v-2.83a.337.337 0 10-.674 0v2.83c0 .17-.138.307-.308.307h-.23v-5.708h.23c.17 0 .308.138.308.307v.692a.337.337 0 10.674 0v-.692a.982.982 0 00-.982-.98H18.39a.982.982 0 00-.981.98v1.12a1.467 1.467 0 00-.805.51h-1.87a.337.337 0 00-.32-.237h-.8v-.399a.337.337 0 00-.338-.337h-.358v-2.797h.121a.337.337 0 100-.674h-.121v-2.797h.121a.337.337 0 100-.674h-.121V8.343a.337.337 0 00.332-.337V6.307l.642-.806a.337.337 0 00.074-.21v-.11h.8c.15 0 .278-.099.321-.236h1.517c.201.25.483.433.805.51v1.12c0 .54.44.98.981.98zM4.706 17.118v5.708h-.564v-5.708h.564zm-1.775 5.4v-5.093c0-.17.138-.307.307-.307h.23v5.708h-.23a.308.308 0 01-.307-.307zm2.987 0c0 .17-.138.308-.308.308h-.23v-5.708h.23c.17 0 .308.138.308.307v5.094zm.674-1.83v-1.432a.792.792 0 010 1.432zm1.108-.96h1.55v.488H7.7c.027-.161.027-.327 0-.488zm2.224.724v-.96h.463v.96h-.463zm9.934 2.374h-.564v-5.708h.564v5.708zm-1.775-5.4c0-.17.138-.308.307-.308h.23v5.708h-.23a.308.308 0 01-.307-.307v-5.094zm-.674 1.83v1.432a.791.791 0 010-1.432zm-1.108.96h-1.55v-.488h1.55a1.478 1.478 0 000 .488zm-2.225-.724v.96h-.463v-.96h.463zm-1.137 1.696h-1.878v-2.432h1.878v2.432zm-.695-3.106h-.487v-2.797h.487v2.797zm7.05-11.2V1.174h.564v5.708h-.564zm1.776-5.4v5.093c0 .17-.138.307-.308.307h-.23V1.174h.23c.17 0 .308.138.308.307zm-2.987 0c0-.17.138-.308.307-.308h.23v5.708h-.23a.308.308 0 01-.307-.307V1.48zM2.93 6.574V1.48c0-.17.138-.307.307-.307h.23v5.708h-.23a.308.308 0 01-.307-.307zm2.987 0c0 .17-.138.307-.308.307h-.23v-.827a.337.337 0 10-.674 0v.827h-.564V1.174h.564v3.308a.337.337 0 10.674 0V1.175h.23c.17 0 .308.138.308.307v5.094zm.674-1.83V3.311a.792.792 0 010 1.432zm1.108-.96h1.198v.487H7.7a1.477 1.477 0 000-.488zm1.872.723v-.96h.463v.96h-.463zm3.005 3.16h-1.153V6.527h1.152V7.67zm-.82 3.472V8.343h.487v2.797h-.487zm1.535-5.967l-.541.68H11.25l-.541-.68v-3.33h2.583v3.33zm.674-1.625h.463v.96h-.463v-.96zm1.136.724v-.488h1.199a1.477 1.477 0 000 .488h-1.199zm2.307-.96v1.432a.792.792 0 010-1.432z" fill="#000"/>
  <path d="M12 2.454a.337.337 0 00-.337.337v1.786a.337.337 0 10.674 0V2.791A.337.337 0 0012 2.454z" fill="#000"/>
</svg>
