<svg width="24" height="24" fill="none" xmlns="http://www.w3.org/2000/svg">
  <defs/>
  <path d="M15.85 17.625L5.209 17.61S2.315 20.39.863 20.712L.843 5.005c0-.944.773-1.717 1.718-1.717h18.771c.945 0 1.717.773 1.717 1.717v10.91c0 .945-.772 1.718-1.717 1.718l-2.876-.005-2.606-.003z" fill="#6EE5F4"/>
  <g fill="#DCFDFF">
    <path d="M12.659 8.56H5.46a.397.397 0 110-.795h7.198a.397.397 0 110 .795zM18.432 8.559h-3.54a.397.397 0 110-.794h3.54a.397.397 0 110 .794zM18.432 12.97H5.461a.397.397 0 110-.793h12.971a.397.397 0 110 .794z"/>
  </g>
  <path d="M21.386 2.89H2.614A2.117 2.117 0 00.5 5.007l.019 15.707a.397.397 0 00.483.387c1.397-.31 3.806-2.516 4.418-3.093l10.483.015a.397.397 0 000-.794l-10.64-.015h-.001a.397.397 0 00-.275.11c-.681.655-2.49 2.257-3.675 2.824L1.294 5.005c0-.728.592-1.32 1.32-1.32h18.772c.728 0 1.32.592 1.32 1.32v10.91c0 .728-.592 1.32-1.32 1.32l-2.876-.003a.397.397 0 00-.001.794l2.877.004a2.117 2.117 0 002.114-2.115V5.005a2.117 2.117 0 00-2.114-2.114z" fill="#000"/>
  <path d="M5.514 8.56h7.199a.397.397 0 100-.795H5.514a.397.397 0 100 .795zM18.486 8.56a.397.397 0 100-.795h-3.54a.397.397 0 100 .795h3.54zM5.514 12.971h12.972a.397.397 0 100-.794H5.514a.397.397 0 100 .794z" fill="#000"/>
</svg>
