<svg width="24" height="24" fill="none" xmlns="http://www.w3.org/2000/svg">
  <defs/>
  <path d="M15.14 13.393H1.55a.45.45 0 01-.45-.45V1.286a.45.45 0 01.45-.45H15.14a.45.45 0 01.449.45v11.657a.45.45 0 01-.45.45z" fill="#B1ACB6"/>
  <path d="M19.189 13.37h-2.103a.403.403 0 01-.403-.403v-1.448h2.91v1.448c0 .223-.181.403-.404.403z" fill="#FDDE2E"/>
  <path d="M19.076 11.519v1.448c0 .223-.18.403-.403.403h.516c.223 0 .403-.18.403-.403v-1.448h-.516z" fill="#F9C301"/>
  <path d="M20.326 12.155h-5.105V4.116h5.105c.295 0 .533.239.533.533v6.973a.532.532 0 01-.533.533z" fill="#B1ACB6"/>
  <path d="M20.322 4.118a.536.536 0 01.002.04v6.884a.577.577 0 01-.578.577h-4.525v.536h5.06a.577.577 0 00.578-.578V4.694a.577.577 0 00-.537-.576z" fill="#8F8290"/>
  <path d="M19.163 5.136h-2.052a.429.429 0 00-.428.43V6.72c0 .237.192.43.428.43h2.052a.429.429 0 00.43-.43V5.565a.429.429 0 00-.43-.429z" fill="#DAF4F8"/>
  <path d="M19.127 5.136h-.077v1.007a.465.465 0 01-.466.465h-1.901v.077c0 .257.208.465.465.465h1.979a.465.465 0 00.465-.465V5.602a.465.465 0 00-.465-.466z" fill="#A5E4EF"/>
  <path d="M6.362 12.905h3.965v4.638H6.362v-4.638z" fill="#8F8290"/>
  <path d="M9.38 12.905h.947v4.638H9.38v-4.638z" fill="#786E79"/>
  <path d="M15.14.837h-.83v10.826a.45.45 0 01-.45.45H1.1v.83c0 .248.2.45.449.45H15.14a.45.45 0 00.449-.45V1.286a.45.45 0 00-.45-.45z" fill="#8F8290"/>
  <path d="M12.43 10.45H4.169a.674.674 0 01-.674-.674V3.128c0-.372.302-.674.674-.674h8.263c.372 0 .674.302.674.674v6.648a.674.674 0 01-.674.674z" fill="#DAF4F8"/>
  <path d="M12.43 2.454h-.821v5.827a.674.674 0 01-.674.673h-7.44v.822c0 .373.3.674.673.674h8.263a.674.674 0 00.674-.674V3.128a.674.674 0 00-.674-.674z" fill="#A5E4EF"/>
  <path d="M22.579 23.163H1.422a.45.45 0 01-.45-.45V16.65a.45.45 0 01.45-.449h21.157a.45.45 0 01.449.45v6.064a.45.45 0 01-.45.45z" fill="#B1ACB6"/>
  <path d="M22.579 16.2h-.84v5.225a.45.45 0 01-.45.45H.974v.839c0 .248.2.45.449.45h21.157a.45.45 0 00.449-.45v-6.065a.45.45 0 00-.45-.449z" fill="#8F8290"/>
  <path d="M20.17 20.38h-8.245a.999.999 0 01-1-1V16.2H21.17v3.18a.999.999 0 01-.999 1z" fill="#E3E0E2"/>
  <path d="M19.846 16.2v3.18a.999.999 0 01-.998 1h1.322a.999.999 0 001-1V16.2h-1.324z" fill="#D5CFD5"/>
  <path d="M17.255 9.51a.573.573 0 100-1.146.573.573 0 000 1.145zM19.108 9.505a.573.573 0 10-.183-1.131.573.573 0 00.183 1.13zM17.255 11.062a.573.573 0 100-1.145.573.573 0 000 1.145zM19.421 10.895a.573.573 0 10-.81-.81.573.573 0 00.81.81zM17.111 7.487h2.052a.767.767 0 00.766-.766V5.565a.767.767 0 00-.766-.765h-2.052a.767.767 0 00-.765.765v1.156c0 .423.343.766.765.766zm-.091-1.922c0-.05.04-.092.092-.092h2.051c.051 0 .092.042.092.092v1.156c0 .051-.041.092-.092.092h-2.051a.092.092 0 01-.092-.092V5.565zM12.43 10.787c.558 0 1.011-.453 1.011-1.01v-6.65c0-.556-.453-1.01-1.01-1.01H4.168c-.557 0-1.01.454-1.01 1.01v6.65c0 .557.453 1.01 1.01 1.01h8.263zm-8.599-1.01v-6.65c0-.185.151-.336.337-.336h8.263c.185 0 .337.151.337.337v6.648a.337.337 0 01-.337.337H4.168a.337.337 0 01-.337-.337z" fill="#000"/>
  <path d="M5.025 5.08H8.81a.337.337 0 100-.674H5.025a.337.337 0 100 .674zM5.025 6.265h1.04a.337.337 0 100-.674h-1.04a.337.337 0 100 .674zM5.025 7.45h2.557a.337.337 0 100-.674H5.025a.337.337 0 100 .674z" fill="#000"/>
  <path d="M22.579 15.863H10.664V13.73h4.476a.787.787 0 00.787-.786v-.451h.419v.475c0 .408.332.74.74.74h2.103c.408 0 .74-.332.74-.74v-.476h.398c.479 0 .869-.39.869-.869V4.65a.87.87 0 00-.87-.87h-4.4V1.286A.787.787 0 0015.14.5H1.548a.787.787 0 00-.786.786v2.65a.337.337 0 10.674 0v-2.65c0-.062.05-.112.112-.112H15.14c.062 0 .113.05.113.112v11.657c0 .062-.05.113-.113.113H8.267a.337.337 0 100 .673H9.99v2.134H6.699V13.73h.016a.337.337 0 100-.673H1.548a.112.112 0 01-.112-.113V5.432a.337.337 0 10-.674 0v7.511c0 .434.353.786.786.786h4.477v2.134H1.422a.787.787 0 00-.786.786v6.065c0 .433.352.786.786.786h17.654a.337.337 0 100-.674H1.422a.112.112 0 01-.112-.112v-6.065c0-.062.05-.112.112-.112h9.167v2.844c0 .736.599 1.335 1.335 1.335h8.246c.737 0 1.336-.599 1.336-1.335v-2.844h1.073c.061 0 .112.05.112.112v6.065c0 .062-.05.112-.112.112h-1.994a.337.337 0 100 .674h1.994a.787.787 0 00.786-.786v-6.065a.787.787 0 00-.786-.786zm-3.324-2.896c0 .036-.03.066-.066.066h-2.103a.067.067 0 01-.067-.066v-.476h2.236v.476zm1.072-8.514c.107 0 .195.088.195.196v6.973a.196.196 0 01-.195.196h-4.4V4.453h4.4zm.505 14.928a.663.663 0 01-.662.662h-8.246a.663.663 0 01-.661-.662v-2.844h9.57v2.844z" fill="#000"/>
  <path d="M13.935 19.425c.186 0 .336-.151.336-.337V17.39a.337.337 0 10-.673 0v1.697c0 .186.15.337.337.337zM15.356 19.381c.187 0 .337-.15.337-.337v-1.697a.337.337 0 10-.673 0v1.697c0 .186.15.337.336.337zM16.78 19.381c.185 0 .336-.15.336-.337v-1.697a.337.337 0 10-.674 0v1.697c0 .186.151.337.337.337zM18.202 19.381c.186 0 .337-.15.337-.337v-1.697a.337.337 0 10-.674 0v1.697c0 .186.151.337.337.337zM10.406 9.519h1.04a.337.337 0 100-.674h-1.04a.337.337 0 000 .674z" fill="#000"/>
</svg>
