<svg width="24" height="24" fill="none" xmlns="http://www.w3.org/2000/svg">
  <defs/>
  <path d="M19.515 17.126l-1.086-3.037h-3.651l-2.579 7.209h8.809l-.998-2.79a.367.367 0 01.222-.469l-.248-.691a.367.367 0 01-.469-.222z" fill="#FFCC75"/>
  <path d="M18.594 10.194a.37.37 0 01-.021-.124V5.638h-3.94v4.432a.366.366 0 01-.02.123l-4.101 11.464c-.111.31-.094.592.049.795.143.202.403.314.732.314h10.62c.33 0 .59-.112.733-.314.142-.203.16-.485.049-.795l-4.1-11.463zM14.7 12.13l.669-1.87V6.74a.367.367 0 01.734 0v3.585a.366.366 0 01-.022.123l-.69 1.93a.367.367 0 01-.691-.248zm7.13 9.746a.367.367 0 01-.3.156h-9.851a.367.367 0 01-.346-.49l2.842-7.943a.367.367 0 01.345-.244h4.168c.155 0 .294.098.346.244l1.173 3.28a.367.367 0 01-.222.469l.247.691c.191-.068.401.031.47.222l1.173 3.28a.367.367 0 01-.045.335z" fill="#F2EBD9"/>
  <path d="M11.243 15.19a.367.367 0 01-.367.367H2.803a4.777 4.777 0 005.765 5.614.367.367 0 01.437.26c.334-.104.653-.241.954-.408l2.086-5.833h-.802z" fill="#6DA8D6"/>
  <path d="M9.82 21.41l.139-.387c-.3.167-.62.304-.954.408l.004.014a.367.367 0 01-.273.441 5.512 5.512 0 01-6.576-6.792.367.367 0 01.354-.271h8.362c.203 0 .367.164.367.367h.803l.864-2.417a6.636 6.636 0 00-.554-.696.366.366 0 01-.511-.003 6.225 6.225 0 00-1.829-1.247.367.367 0 01-.217-.335V1.234H5.15v9.258a.367.367 0 01-.217.335 6.25 6.25 0 00-3.698 5.7 6.246 6.246 0 007.48 6.116.367.367 0 01.429.277c.242-.063.48-.14.71-.229-.182-.37-.196-.826-.033-1.282zM5.885 2.334a.367.367 0 11.734 0v2.936a.367.367 0 11-.734 0V2.335zM2.863 13.522a5.499 5.499 0 012.37-2.025l.651-.291V6.739a.367.367 0 11.734 0v4.705a.367.367 0 01-.217.335l-.87.388c-.84.376-1.55.982-2.053 1.755a.367.367 0 11-.615-.4z" fill="#C1E8E6"/>
  <path d="M23.386 21.41l-4.079-11.404V5.638h.122a.367.367 0 000-.734h-5.652a.367.367 0 000 .734h.123v4.368l-.99 2.767-.865 2.417-2.086 5.833-.139.386c-.163.456-.148.911.033 1.282.031.064.067.125.108.183.28.398.765.626 1.332.626h10.62c.567 0 1.053-.228 1.333-.626.28-.397.331-.931.14-1.465zm-.74 1.042c-.143.202-.403.314-.732.314H11.293c-.33 0-.59-.112-.732-.314-.143-.203-.16-.485-.05-.795l4.101-11.463a.37.37 0 00.022-.124V5.638h3.939v4.432c0 .042.007.084.021.124l4.101 11.463c.11.31.093.592-.05.795z" fill="#082947"/>
  <path d="M14.921 12.6a.367.367 0 00.47-.222l.69-1.93a.367.367 0 00.021-.123V6.739a.367.367 0 10-.734 0v3.522l-.669 1.87c-.068.19.031.4.222.469z" fill="#fff"/>
  <path d="M20.7 18.261a.367.367 0 00-.69.247l.997 2.79H12.2l2.579-7.209h3.65l1.087 3.037a.367.367 0 10.69-.247l-1.172-3.28a.367.367 0 00-.346-.244h-4.168a.367.367 0 00-.346.244l-2.841 7.942a.367.367 0 00.346.491h9.85a.367.367 0 00.346-.49l-1.174-3.28z" fill="#082947"/>
  <path d="M2.97 14.03a.366.366 0 00.507-.108 4.766 4.766 0 012.054-1.755l.87-.388a.367.367 0 00.217-.335V6.739a.367.367 0 10-.734 0v4.467l-.652.291a5.497 5.497 0 00-2.37 2.025.367.367 0 00.107.508zM6.25 5.638a.367.367 0 00.368-.367V2.335a.367.367 0 10-.734 0v2.936c0 .203.164.367.367.367z" fill="#fff"/>
  <path d="M8.714 22.643a6.246 6.246 0 01-7.479-6.116 6.25 6.25 0 013.698-5.7.367.367 0 00.217-.335V1.234h4.649v9.258c0 .145.085.276.217.335.68.303 1.295.723 1.828 1.247a.366.366 0 00.511.003l.008-.007a.367.367 0 00-.004-.52 6.957 6.957 0 00-1.826-1.292V1.234h.122a.367.367 0 100-.734H4.294a.367.367 0 100 .734h.122v9.024A6.985 6.985 0 00.5 16.527a6.981 6.981 0 008.358 6.835.367.367 0 00.287-.432l-.002-.01a.367.367 0 00-.43-.277z" fill="#082947"/>
  <path d="M8.567 21.171a4.774 4.774 0 01-5.764-5.614h8.072a.367.367 0 100-.734H2.513a.367.367 0 00-.354.271 5.512 5.512 0 006.576 6.792.367.367 0 00.274-.441l-.004-.014a.367.367 0 00-.438-.26z" fill="#082947"/>
</svg>
