<svg width="24" height="24" fill="none" xmlns="http://www.w3.org/2000/svg">
  <defs/>
  <path d="M4.97 16.867a1.225 1.225 0 110 2.45c-.677 0-1.838-1.226-1.838-1.226s1.161-1.224 1.838-1.224z" fill="#FAC600"/>
  <path d="M4.97 16.867c-.187 0-.41.093-.636.228a1.223 1.223 0 010 1.993c.226.135.45.228.636.228a1.225 1.225 0 000-2.45z" fill="#E8B800"/>
  <path d="M19.688 19.23l-13.216-.48a.288.288 0 01-.278-.288v-.741c0-.155.123-.282.278-.288l13.216-.48a1.14 1.14 0 110 2.277z" fill="#678D98"/>
  <path d="M19.688 16.953l-1.016.037a1.14 1.14 0 010 2.203l1.015.037a1.14 1.14 0 100-2.277z" fill="#537983"/>
  <path d="M22.415 14.314H1.585a.748.748 0 01-.748-.749V5.432c0-.413.335-.748.748-.748h20.83c.413 0 .748.335.748.748v8.133a.748.748 0 01-.748.749z" fill="#FFF9F0"/>
  <path d="M22.415 4.684h-1.348c.414 0 .749.335.749.748v8.133a.748.748 0 01-.749.749h1.348a.748.748 0 00.748-.749V5.432a.748.748 0 00-.748-.748z" fill="#FAE8DB"/>
  <path d="M20.244 10.36H3.755a.193.193 0 01-.192-.193v-.941c0-.107.086-.193.192-.193h16.489c.106 0 .193.086.193.193v.941a.193.193 0 01-.193.193z" fill="#A8D3D8"/>
  <path d="M20.244 9.033h-1.348c.107 0 .193.086.193.193v.94a.193.193 0 01-.192.194h1.347a.193.193 0 00.193-.193v-.941a.193.193 0 00-.193-.193z" fill="#8EBAC5"/>
  <path d="M8.015 9.033H3.728a.166.166 0 00-.166.166v.995c0 .091.075.166.166.166h4.287V9.033z" fill="#FAC600"/>
  <path d="M6.668 9.033h1.348v1.327H6.668V9.033z" fill="#E8B800"/>
  <path d="M19.676 16.616l-13.216.48a.625.625 0 00-.242.058 1.56 1.56 0 00-1.248-.624c-.782 0-1.872 1.107-2.083 1.33a.337.337 0 000 .463c.211.222 1.301 1.33 2.083 1.33.51 0 .963-.245 1.248-.625a.626.626 0 00.242.058l13.216.48.055.002c.384 0 .745-.146 1.023-.414.291-.28.451-.658.451-1.063 0-.404-.16-.781-.45-1.062a1.465 1.465 0 00-1.08-.413zM4.97 18.98c-.303 0-.917-.47-1.36-.888.442-.418 1.056-.888 1.36-.888.37 0 .688.229.82.551h-.365a.337.337 0 000 .674h.366a.889.889 0 01-.821.551zm15.316-.31a.794.794 0 01-.586.224l-13.168-.479v-.646L19.7 17.29a.796.796 0 01.586.224.795.795 0 01.246.577c0 .22-.087.425-.246.578zM12.27 14.314a.337.337 0 00-.337-.337H1.585a.412.412 0 01-.411-.412V5.432c0-.227.184-.411.411-.411h4.088a.337.337 0 000-.674H1.585C.987 4.347.5 4.834.5 5.432v8.133c0 .599.487 1.086 1.085 1.086h10.348c.186 0 .337-.151.337-.337zM22.415 4.347H7.021a.337.337 0 000 .674h15.394c.227 0 .411.184.411.411v8.133a.412.412 0 01-.411.412H13.28a.337.337 0 000 .674h9.134c.598 0 1.085-.487 1.085-1.086V5.432c0-.598-.487-1.085-1.085-1.085z" fill="#000"/>
  <path d="M3.88 11.773l-.42.645a.337.337 0 10.564.368l.421-.645a.337.337 0 10-.564-.368zM5.33 11.773l-.42.645a.337.337 0 10.564.368l.42-.645a.337.337 0 10-.564-.368zM6.78 11.773l-.42.645a.337.337 0 00.564.368l.42-.645a.337.337 0 00-.564-.368zM8.23 11.773l-.421.645a.337.337 0 00.564.368l.42-.645a.337.337 0 00-.564-.368zM9.678 11.773l-.42.645a.337.337 0 00.564.368l.42-.645a.337.337 0 00-.564-.368zM11.128 11.773l-.42.645a.337.337 0 10.563.368l.421-.645a.337.337 0 10-.564-.368zM3.755 8.696h-.027a.503.503 0 00-.502.503v.995c0 .277.225.503.502.503H20.244a.53.53 0 00.53-.53v-.941a.53.53 0 00-.53-.53H3.755zm.144 1.327V9.37h3.779v.653H3.899zm16.2 0H8.353V9.37H20.1v.653zM19.92 6.626a.338.338 0 00.346.143.35.35 0 00.121-.05.36.36 0 00.093-.093.34.34 0 00.032-.316.341.341 0 00-.246-.201.325.325 0 00-.195.02.314.314 0 00-.109.072.336.336 0 00-.042.425zM17.673 6.776a.337.337 0 100-.674.337.337 0 000 .674zM18.936 6.776a.337.337 0 100-.674.337.337 0 000 .674zM16.13 6.626a.336.336 0 00.28.15.32.32 0 00.13-.025.359.359 0 00.108-.073.33.33 0 00.073-.11.346.346 0 00.02-.194.35.35 0 00-.093-.173.325.325 0 00-.109-.073.325.325 0 00-.258 0 .318.318 0 00-.11.073.333.333 0 00-.098.238.369.369 0 00.026.13.35.35 0 00.03.057zM13.28 7.093H3.663a.337.337 0 000 .674h9.617a.337.337 0 000-.674zM19.703 12.027c-.074.04-.375.114-.502-.016a.788.788 0 00-.608-.254.937.937 0 00-.442.143l-.182-.262a.337.337 0 00-.533-.027l-.551.643a.337.337 0 00.511.438l.268-.311.142.204a.337.337 0 00.536.024c.042-.051.182-.174.28-.179.013 0 .044-.002.099.054.409.416 1.055.27 1.304.134a.337.337 0 10-.322-.591z" fill="#000"/>
</svg>
