<svg width="24" height="24" fill="none" xmlns="http://www.w3.org/2000/svg">
  <defs/>
  <g fill-rule="evenodd" clip-rule="evenodd">
    <path d="M14.628 9.82v8.533h7.859c.37 0 .673-.303.673-.673V9.82h-8.532z" fill="#E6E6E6"/>
    <path d="M14.628 1.288v8.533h8.532V1.96a.675.675 0 00-.673-.673h-7.86z" fill="gray"/>
    <path d="M21.236 1.962V9.82h1.924V1.962a.675.675 0 00-.674-.674h-1.924c.37 0 .674.303.674.674z" fill="#666"/>
    <path d="M21.236 9.82v7.86c0 .37-.303.673-.674.673h1.924c.37 0 .674-.303.674-.673V9.82h-1.924z" fill="#C2C7CC"/>
    <path d="M14.627 1.288v8.533H6.094V1.96c0-.37.303-.673.673-.673h7.86z" fill="#E6E6E6"/>
    <path d="M14.627 18.353V9.821H6.094v7.859c0 .37.303.673.673.673h7.86z" fill="gray"/>
    <path d="M5.163 9.218a.345.345 0 01-.344.344h-.538a.344.344 0 01-.343-.344v-.186a.488.488 0 00-.486-.486h-.72a.488.488 0 00-.487.486v1.45c0 .225.183.408.409.408h6.71a.41.41 0 00.41-.409V9.032a.488.488 0 00-.487-.486h-.72a.488.488 0 00-.487.486v.186a.344.344 0 01-.343.344H7.2a.345.345 0 01-.344-.344v-.152a.488.488 0 00-.486-.487h-.72a.488.488 0 00-.486.487v.152z" fill="#FFDDA6"/>
    <path d="M3.538 10.89l-.355 3.425h5.71L8.48 10.89H3.538z" fill="#FCC368"/>
    <path d="M6.094 14.315H2.987a.766.766 0 00-.764.763c0 .42.343.764.764.764h6.291c.42 0 .765-.343.765-.764a.767.767 0 00-.765-.763H6.094z" fill="#FFDDA6"/>
    <path d="M3.023 15.842l-.41 3.952H9.55l-.174-1.44-.301-2.511H3.023z" fill="#FCC368"/>
    <path d="M9.55 19.794H2.6a.582.582 0 00-.582.582v.806h8.127v-.806a.582.582 0 00-.582-.582H9.55z" fill="#FFDDA6"/>
    <path d="M10.145 21.182H1.603a.766.766 0 00-.764.764c0 .42.344.765.764.765h8.957c.42 0 .764-.345.764-.765a.766.766 0 00-.764-.764h-.415z" fill="#FCC368"/>
    <path d="M6.094 10.89H3.538l-.088.853h3.636c.72 0 .61.444.702 1.205l.164 1.367h.94l-.309-2.572-.102-.853H6.094zM6.095 15.842H3.024l-.086.818h4.205c1.05 0 1.036.248 1.151 1.214l.058.48.098.816.075.624H9.55l-.173-1.44-.302-2.511H6.095z" fill="#EDA93B"/>
    <path d="M8.167 14.315c.421 0 .765.343.765.763a.766.766 0 01-.759.764h1.105c.42 0 .765-.343.765-.764a.767.767 0 00-.765-.763H8.167zM8.977 9.814v.661a.41.41 0 01-.408.409H2.585a.315.315 0 00.069.006h6.71a.41.41 0 00.409-.409V9.032a.488.488 0 00-.486-.486h-.72c.232.037.41.24.41.481v.787zM9.119 20.376v.806h1.026v-.806c0-.32-.26-.582-.582-.582H8.541a.583.583 0 01.578.582z" fill="#FCC368"/>
    <path d="M9.534 21.182c.42 0 .764.344.764.764 0 .42-.344.765-.764.765h1.026c.42 0 .764-.345.764-.765a.766.766 0 00-.764-.764H9.534z" fill="#EDA93B"/>
  </g>
  <path d="M22.487.95H6.768c-.558 0-1.013.454-1.013 1.012V8.24H5.65a.827.827 0 00-.825.826v.153c0 .001-.003.004-.005.004h-.538s-.003-.002-.003-.004v-.186a.827.827 0 00-.826-.826h-.72a.827.827 0 00-.826.826v1.449c0 .412.335.748.748.748h.507l-.286 2.751a1.105 1.105 0 00-.223 2.15l-.351 3.375a.922.922 0 00-.623.87v.467h-.076a1.105 1.105 0 000 2.208h8.958a1.105 1.105 0 000-2.208h-.076v-.467a.922.922 0 00-.627-.872l-.097-.811h12.726c.559 0 1.013-.454 1.013-1.013V1.962c0-.558-.454-1.013-1.013-1.013zm-15.719.678h7.52v7.854h-4.175v-.45a.827.827 0 00-.825-.825h-.72a.827.827 0 00-.827.826v.186c0 .002-.002.004-.003.004H7.2c-.002 0-.004-.003-.004-.004v-.153a.827.827 0 00-.762-.823v-6.28c0-.185.15-.335.334-.335zm-4.182 8.854v-1.45c0-.079.067-.146.147-.146h.72c.08 0 .147.067.147.147v.186c0 .377.306.683.682.683h.538a.684.684 0 00.684-.683v-.153c0-.08.067-.147.146-.147h.72c.08 0 .147.067.147.147v.153c0 .377.306.683.683.683h.538a.683.683 0 00.682-.683v-.186c0-.08.068-.147.147-.147h.72c.08 0 .148.067.148.147v1.449a.07.07 0 01-.07.069h-6.71a.07.07 0 01-.07-.07zm5.595.748l.33 2.746H3.56l.284-2.746h4.337zm-5.194 3.425H9.28c.235 0 .425.19.425.424 0 .234-.19.424-.425.424H2.987a.425.425 0 010-.848zm7.998 7.291c0 .235-.19.426-.424.426H1.603a.426.426 0 010-.85h8.958c.234 0 .424.19.424.424zm-8.627-1.103v-.467c0-.133.109-.242.242-.242H5.454a.34.34 0 100-.679H2.99l.34-3.273h5.445l.394 3.273h-2.16a.34.34 0 100 .68H9.564c.134 0 .242.108.242.241v.467H2.358zm7.1-4.675c.524-.086.925-.541.925-1.089 0-.608-.495-1.103-1.104-1.103h-.085l-.33-2.746h.501a.749.749 0 00.748-.748v-.321h4.176v7.853h-4.61l-.222-1.846zm13.029 1.846h-7.52v-7.853h2.557a.34.34 0 100-.68h-2.556V1.629h7.519c.184 0 .334.15.334.334v7.52H19.08a.34.34 0 100 .679h3.742v7.519c0 .184-.15.334-.334.334z" fill="#000"/>
</svg>
