<svg width="24" height="24" fill="none" xmlns="http://www.w3.org/2000/svg">
  <defs/>
  <path d="M4.514 23.163a26.492 26.492 0 013.974-6.105c2.507-2.883 4.983-4.804 8.28-6.108l1.341-.515a22.88 22.88 0 015.054-1.113V4.368a2.43 2.43 0 00-.238.012 27.51 27.51 0 00-7.815 1.914c.394-2.352 2.176-4.641 3.404-5.457h-6.39c-.174.242-.347.507-.517.795-.879 1.498-1.805 3.953-1.477 7.361a28.75 28.75 0 00-5.507 4.98 31.773 31.773 0 00-3.786 5.505l3.677 3.685z" fill="#F5879F"/>
  <g fill="#D47589">
    <path d="M5.655 17.965a.606.606 0 11-1.213 0 .606.606 0 011.213 0zM14.12 3.767a.606.606 0 11-1.213 0 .606.606 0 011.213 0zM16.818 9.525a.607.607 0 11-1.213 0 .607.607 0 011.213 0zM12.888 8.369a.607.607 0 11-1.213 0 .607.607 0 011.213 0zM11.203 13.06a.606.606 0 11-1.213 0 .606.606 0 011.213 0zM21.524 6.757a.606.606 0 11-1.213 0 .606.606 0 011.213 0zM3.688 19.178a.607.607 0 11-1.213 0 .607.607 0 011.213 0zM4.901 21.065a.607.607 0 11-1.213 0 .607.607 0 011.213 0z"/>
    <path d="M22.924 4.38c-.242.023-.484.05-.725.08v2.517c0 .772-.557 1.435-1.32 1.56-1.29.21-2.536.521-3.733.935l-1.342.514c-3.297 1.305-5.772 3.226-8.28 6.108a26.49 26.49 0 00-3.973 6.104l.962.965a26.491 26.491 0 013.975-6.105c2.507-2.883 4.982-4.804 8.279-6.109l1.342-.514a22.869 22.869 0 015.053-1.113V4.368a2.54 2.54 0 00-.238.012z"/>
  </g>
  <path d="M4.623 13.974a31.3 31.3 0 00-1.822 2.342c.742-.03.533.328 1.38.087.418-.12.763-.624 1.252-.87.414-.21 1.033-.174 1.44-.505.363-.298.456-.897.772-1.314.281-.372.844-.614 1.057-1.096.188-.423.004-1.003.119-1.522.1-.45.524-.89.555-1.42l-.102-.068a28.998 28.998 0 00-4.65 4.366z" fill="#FCDA55"/>
  <path d="M9.376 9.676l-.102-.068c-.392.293-.777.598-1.155.913-.072.49.075 1.02-.1 1.414-.213.482-.776.724-1.057 1.096-.316.417-.409 1.016-.773 1.313-.406.332-1.024.296-1.439.506-.489.246-.834.75-1.252.87-.128.037-.232.06-.32.072-.129.176-.255.35-.377.524.742-.03.533.328 1.38.087.418-.12.763-.624 1.252-.87.414-.21 1.033-.174 1.44-.506.363-.297.456-.896.771-1.313.282-.372.845-.614 1.058-1.096.188-.423.004-1.003.119-1.522.1-.45.524-.89.555-1.42z" fill="#D9BC49"/>
  <path d="M5.374 17.763a.606.606 0 11-1.213 0 .606.606 0 011.213 0zM13.838 3.565a.606.606 0 11-1.213 0 .606.606 0 011.213 0zM16.537 9.323a.607.607 0 11-1.213 0 .607.607 0 011.213 0zM12.606 8.167a.607.607 0 11-1.213 0 .607.607 0 011.213 0zM10.922 12.859a.607.607 0 11-1.213 0 .607.607 0 011.213 0zM21.242 6.555a.606.606 0 11-1.213 0 .606.606 0 011.213 0zM3.407 18.976a.606.606 0 11-1.213 0 .606.606 0 011.213 0zM4.62 20.863a.607.607 0 11-1.213 0 .607.607 0 011.213 0z" fill="#D81229"/>
  <path d="M5.7 20.76l.105-.012a26.694 26.694 0 012.684-3.69 28.265 28.265 0 012.188-2.268l-.025-.015c-.443.027-.902-.073-1.254.082-.482.214-.724.776-1.096 1.058-.417.316-1.016.409-1.313.773-.332.405-.296 1.024-.505 1.439-.247.488-.752.834-.87 1.251-.242.848.117.64.086 1.381z" fill="#D9BC49"/>
  <path d="M15.238 6.605a27.237 27.237 0 017.72-1.89c.066-.006.135-.01.206-.01a.337.337 0 000-.674c-1.43.035-4.708.614-7.59 1.717.564-2.113 2.138-3.974 3.127-4.63a.337.337 0 00-.373-.562c-1.448.962-3.168 3.4-3.55 5.682a.337.337 0 00.46.367zM4.273 16.727c.515-.147.867-.67 1.311-.894.133-.067.315-.106.507-.148.964-.21 1.187-.445 1.54-1.236.233-.525.284-.58.665-.886.77-.623.855-.933.827-1.765-.021-.6.004-.672.245-1.124.147-.274.307-.585.338-.948.205-.15.405-.311.615-.455.1-.07.156-.188.144-.31-.27-2.806.287-5.627 1.933-7.928a.337.337 0 00-.548-.392c-1.68 2.349-2.318 5.24-2.073 8.187-3.9 2.728-7.049 6.452-9.236 10.49a.337.337 0 00.592.32 31.253 31.253 0 011.847-2.976c.432.039.463.301 1.293.065zm.606-2.534a28.949 28.949 0 013.835-3.717c-.227.432-.29.634-.265 1.346.023.652.002.75-.577 1.217-.456.368-.575.502-.857 1.137-.275.617-.34.693-1.067.85-.581.127-.765.196-1.34.693-.188.163-.365.316-.52.36-.386.11-.444.076-.656-.005.468-.639.933-1.281 1.447-1.881zM16.644 10.636c-2.277.901-4.198 2.101-6.071 3.802-.462.017-.899-.072-1.312.111-.574.255-.84.853-1.163 1.098-.148.111-.334.194-.532.282-.787.35-1.025.572-1.235 1.54-.105.483-.131.564-.544 1.042-.203.235-.414.478-.498.775-.267.936.099.868.074 1.459-.001.022.018.036.02.057-.533.903-.926 1.68-1.175 2.22a.337.337 0 10.612.282 26.158 26.158 0 013.923-6.025c2.593-2.983 5.03-4.782 8.148-6.016a.337.337 0 00-.247-.627zM5.89 19.98c-.034-.098-.042-.202.046-.51.044-.153.197-.33.36-.519.495-.573.566-.757.692-1.34.158-.726.235-.792.851-1.066.637-.283.771-.405 1.137-.858.385-.476.516-.566.888-.58-1.529 1.504-2.785 3.015-3.974 4.873zM23.127 8.987c-1.782.19-3.507.57-5.128 1.13-.415.143-.207.784.22.637a22.63 22.63 0 014.98-1.096.337.337 0 00-.072-.67z" fill="#000"/>
</svg>
