<svg width="24" height="24" fill="none" xmlns="http://www.w3.org/2000/svg">
  <defs/>
  <path d="M20.694 23.164H3.305a.67.67 0 01-.67-.67v-6.69l9.322-5.868 9.405 5.868v6.69c0 .37-.3.67-.67.67z" fill="#EDEDED"/>
  <path d="M19.038 14.353v8.81h1.656c.37 0 .67-.299.67-.669v-6.69l-2.326-1.45z" fill="#D6D6D6"/>
  <path d="M11.954 9.499L1.556 16.044a.26.26 0 00-.121.221v.93c0 .206.226.33.4.221l10.119-6.37 10.213 6.373a.26.26 0 00.399-.22v-.933a.26.26 0 00-.123-.221l-10.49-6.546z" fill="#F43B45"/>
  <g>
    <path d="M17.127 23.176H6.873V8.138l5.104-3.23 5.15 3.23v15.038z" fill="#EDEDED"/>
    <path d="M14.791 6.672v16.504h2.337V8.138L14.79 6.672z" fill="#D6D6D6"/>
    <path d="M11.972 3.855L5.957 7.793a.472.472 0 00-.214.395v.65c0 .208.23.332.404.219l5.825-3.814 5.882 3.816a.26.26 0 00.402-.218v-.652c0-.16-.08-.31-.215-.396l-6.069-3.938z" fill="#F43B45"/>
  </g>
  <g>
    <path d="M12 12.277a2.157 2.157 0 100-4.314 2.157 2.157 0 000 4.314z" fill="#75CFF2"/>
    <path d="M14.673 23.165H9.326v-4.878a2.674 2.674 0 015.347 0v4.878z" fill="#AA4B21"/>
  </g>
  <g fill="#75CFF2">
    <path d="M5.512 20.686H4.021a.228.228 0 01-.228-.228v-1.15a.974.974 0 111.947 0v1.15a.228.228 0 01-.228.228zM19.98 20.685h-1.491a.228.228 0 01-.228-.227v-1.15a.974.974 0 011.947 0v1.15a.228.228 0 01-.228.227z"/>
  </g>
  <g fill="#000">
    <path d="M22.622 15.758l-5.158-3.218V9.207l.207.134a.598.598 0 00.923-.501v-.652a.806.806 0 00-.369-.679l-5.888-3.82V2.18h.96a.337.337 0 100-.674h-.96V.837a.337.337 0 10-.674 0v.67h-.96a.337.337 0 000 .673h.96v1.474L5.773 7.51a.807.807 0 00-.366.677v.65a.597.597 0 00.925.5l.204-.133v3.306l-5.16 3.248c-.174.11-.278.3-.278.506v.931a.598.598 0 00.916.506l4.522-2.847v7.972h-3.23a.333.333 0 01-.332-.332v-4.236a.337.337 0 00-.674 0v4.236c0 .555.452 1.006 1.007 1.006h17.387c.555 0 1.006-.451 1.006-1.006V18.25a.337.337 0 10-.674 0v4.243a.333.333 0 01-.332.332h-3.23V14.88l4.525 2.823a.597.597 0 00.914-.507v-.932a.594.594 0 00-.281-.507zM6.08 8.696v-.51c0-.045.023-.087.06-.112l5.832-3.817 5.885 3.818a.135.135 0 01.062.113V8.7l-5.764-3.74a.337.337 0 00-.368.001L6.081 8.696zm-4.31 8.36v-.75l4.765-3v.751l-4.764 3zm12.566 5.77h-2v-6.853a2.34 2.34 0 012 2.312v4.54zm-2.674 0h-2v-4.54a2.34 2.34 0 012-2.313v6.853zm3.348 0v-4.54c0-1.66-1.35-3.011-3.01-3.011-1.66 0-3.011 1.35-3.011 3.01v4.54H7.21V8.764l4.763-3.118L16.79 8.77v14.056h-1.78zm7.218-5.766l-4.765-2.973v-.753l4.765 2.973v.753z"/>
    <path d="M5.511 21.022a.566.566 0 00.565-.565v-1.15c0-.722-.588-1.31-1.31-1.31-.723 0-1.31.588-1.31 1.31v1.15c0 .311.253.565.564.565h1.491zM4.13 19.307a.637.637 0 011.273 0v1.04H4.13v-1.04zM17.924 19.307v1.15c0 .311.253.565.565.565h1.491a.566.566 0 00.565-.565v-1.15c0-.722-.588-1.31-1.31-1.31-.723 0-1.311.588-1.311 1.31zm1.947 0v1.04h-1.273v-1.04a.637.637 0 011.273 0zM12 7.625a2.497 2.497 0 00-2.493 2.493A2.497 2.497 0 0012 12.612a2.497 2.497 0 002.494-2.494A2.497 2.497 0 0012 7.625zM13.79 9.78h-1.451V8.33a1.825 1.825 0 011.451 1.451zM11.664 8.33v1.451h-1.452a1.825 1.825 0 011.452-1.451zm-1.452 2.125h1.452v1.452a1.825 1.825 0 01-1.452-1.452zm2.126 1.452v-1.452h1.451a1.825 1.825 0 01-1.451 1.452z"/>
  </g>
</svg>
