<svg width="24" height="24" fill="none" xmlns="http://www.w3.org/2000/svg">
  <defs/>
  <path d="M22.53 18.92H2.66a1.819 1.819 0 110-3.637H22.53a.63.63 0 01.63.63v2.377a.63.63 0 01-.63.63z" fill="#C4573A"/>
  <path d="M11.852 15.283H7.513l-3.17 3.637h4.34l3.169-3.637z" fill="#FBC56D"/>
  <path d="M10.494 15.283l-3.17 3.637h1.359l3.17-3.637h-1.36z" fill="#D8AA5E"/>
  <path d="M22.53 15.283h-1.96v3.637h1.96a.63.63 0 00.63-.63v-2.377a.63.63 0 00-.63-.63z" fill="#7CA1B1"/>
  <path d="M22.53 15.283h-1.358a.63.63 0 01.63.63v2.377a.63.63 0 01-.63.63h1.358a.63.63 0 00.63-.63v-2.377a.63.63 0 00-.63-.63z" fill="#678D98"/>
  <path d="M20.245 5.08s-2.392 2.175-1.134 4.3c1.258 2.126 2.062 3.256 1.459 4.292 0 0 1.448-1.61 1.017-3.639-.43-2.028-2.413-1.95-1.342-4.953z" fill="#DEECF1"/>
  <path d="M21.587 10.034c-.43-2.029-2.413-1.951-1.342-4.954 0 0-1 .91-1.367 2.127.288 1.047 1.287 1.456 1.577 2.827.128.6.09 1.163-.025 1.659.375.793.476 1.4.14 1.979 0 0 1.448-1.61 1.017-3.639z" fill="#A8D3D8"/>
  <path d="M22.53 14.943H5.524a.34.34 0 000 .68h1.243L4.19 18.58H3.04l.96-1.103a.34.34 0 10-.512-.447l-1.286 1.477A1.482 1.482 0 011.179 17.1c0-.815.664-1.479 1.48-1.479h1.506a.34.34 0 000-.679H2.658A2.16 2.16 0 00.5 17.101a2.16 2.16 0 002.158 2.159H9.81a.34.34 0 100-.68h-.38l2.578-2.958h1.782l-.803.922a.34.34 0 10.512.446l1.192-1.368h1.882l-2.578 2.958h-2.826a.34.34 0 000 .68H22.53a.97.97 0 00.97-.97v-2.377a.97.97 0 00-.97-.97zM8.528 18.58H5.09l2.578-2.958h3.438L8.528 18.58zm8.886 0l.96-1.102a.34.34 0 00-.511-.447l-1.293 1.485a.341.341 0 00-.045.064h-1.63l2.578-2.958h2.757v2.958h-2.816zm5.407-.29c0 .16-.13.29-.29.29h-1.622v-2.958h1.621c.16 0 .29.13.29.29v2.378zM19.165 10.134c1.08 1.805 1.539 2.634 1.111 3.367a.34.34 0 00.546.398c.064-.071 1.559-1.764 1.098-3.936-.176-.83-.587-1.34-.95-1.79-.567-.707-1.016-1.265-.405-2.979a.34.34 0 00-.548-.365 6.038 6.038 0 00-1.11 1.442c-.636 1.17-.667 2.305-.088 3.282.12.203.235.396.346.58zm.331-3.523c.033-.062.067-.121.102-.18-.056 1.048.399 1.614.843 2.167.346.43.672.835.814 1.506.175.824.005 1.581-.237 2.165-.197-.689-.668-1.477-1.27-2.484-.11-.184-.226-.376-.345-.577-.454-.768-.423-1.642.093-2.597z" fill="#000"/>
</svg>
