<svg width="24" height="24" fill="none" xmlns="http://www.w3.org/2000/svg">
  <defs/>
  <path d="M12 21.419a9.419 9.419 0 100-18.837 9.419 9.419 0 000 18.837z" fill="#FFEBB4"/>
  <path d="M15.66 12A3.658 3.658 0 0012 8.34 3.658 3.658 0 008.34 12 3.658 3.658 0 0012 15.66 3.658 3.658 0 0015.66 12z" fill="#fff"/>
  <path d="M19.32 12l1.83 1.04L22.98 12c0-3.034-1.228-5.78-3.215-7.766l-2.043.532-.545 2.057A7.297 7.297 0 0119.32 12z" fill="#FFB14E"/>
  <path d="M17.176 17.176l.558 2.03 2.03.558A10.945 10.945 0 0022.982 12h-3.66a7.297 7.297 0 01-2.146 5.176z" fill="#FF755C"/>
  <path d="M12 19.32l-1.041 1.83 1.04 1.83c3.035 0 5.78-1.228 7.766-3.214l-2.588-2.589A7.297 7.297 0 0112 19.32z" fill="#FF4181"/>
  <path d="M6.824 17.176l-2.03.558-.558 2.03A10.945 10.945 0 0012 22.982v-3.66a7.297 7.297 0 01-5.176-2.146z" fill="#3B8BC0"/>
  <path d="M4.68 12l-1.83-1.04L1.02 12c0 3.034 1.228 5.78 3.215 7.766l2.588-2.589A7.297 7.297 0 014.68 12z" fill="#4EB9FF"/>
  <path d="M6.824 6.824l-.558-2.03-2.03-.558A10.945 10.945 0 001.018 12h3.66c0-1.873.716-3.745 2.146-5.176z" fill="#85C250"/>
  <path d="M12 4.68l1.04-1.83L12 1.02c-3.034 0-5.78 1.228-7.766 3.215l2.589 2.588A7.297 7.297 0 0112 4.68z" fill="#C9D467"/>
  <path d="M17.176 6.824l2.588-2.588A10.945 10.945 0 0012 1.018v3.66c1.873 0 3.745.716 5.176 2.146z" fill="#FFCE47"/>
  <g fill="#01121C">
    <path d="M20.134 3.866A11.427 11.427 0 0012 .5a11.426 11.426 0 00-8.134 3.366A11.426 11.426 0 00.5 12c0 3.074 1.196 5.963 3.366 8.134A11.426 11.426 0 0012 23.5c3.074 0 5.963-1.196 8.134-3.366A11.426 11.426 0 0023.5 12c0-3.074-1.196-5.963-3.366-8.134zm-.383 15.15l-1.85-1.851a7.772 7.772 0 001.922-4.645h2.623a10.418 10.418 0 01-2.695 6.495zM1.554 12.52h2.623A7.773 7.773 0 006.1 17.165l-1.85 1.85a10.418 10.418 0 01-2.695-6.495zm2.695-7.535l1.85 1.85a7.773 7.773 0 00-1.922 4.645H1.554a10.418 10.418 0 012.695-6.495zM12 18.799c-3.75 0-6.8-3.05-6.8-6.799 0-3.75 3.05-6.8 6.8-6.8s6.8 3.05 6.8 6.8-3.05 6.8-6.8 6.8zm5.165-12.7a7.773 7.773 0 00-4.645-1.922V1.554a10.419 10.419 0 016.495 2.695l-1.85 1.85zM11.48 4.177A7.772 7.772 0 006.835 6.1l-1.85-1.85a10.418 10.418 0 016.495-2.695v2.623zM6.835 17.901a7.772 7.772 0 004.645 1.922v2.623a10.418 10.418 0 01-6.495-2.695l1.85-1.85zm5.685 1.922a7.772 7.772 0 004.645-1.922l1.85 1.85a10.419 10.419 0 01-6.495 2.695v-2.623zm7.303-8.343A7.772 7.772 0 0017.9 6.835l1.85-1.85a10.42 10.42 0 012.695 6.495h-2.623z"/>
    <path d="M12 7.82A4.185 4.185 0 007.82 12 4.185 4.185 0 0012 16.18 4.185 4.185 0 0016.18 12 4.185 4.185 0 0012 7.82zm0 7.32A3.143 3.143 0 018.86 12 3.143 3.143 0 0112 8.86 3.143 3.143 0 0115.138 12a3.143 3.143 0 01-3.14 3.14z"/>
  </g>
</svg>
