<svg width="24" height="24" fill="none" xmlns="http://www.w3.org/2000/svg">
  <defs/>
  <path d="M7.564 2.05l-.871 1.028-1.378-1.166a.194.194 0 01-.023-.274l.62-.732a.194.194 0 01.274-.023l1.378 1.166z" fill="#56449B"/>
  <path d="M7.13 2.56l.433-.51L6.185.882a.194.194 0 00-.273.023l-.308.363 1.527 1.292z" fill="#473984"/>
  <path d="M11.844 4.524l-3.56-3.013L6.28 3.877l2.252 1.906a.386.386 0 01.037.555l-4.586 5.044a3.965 3.965 0 00-1.032 2.667v7.358c0 .97.786 1.756 1.756 1.756h5.935c.97 0 1.756-.786 1.756-1.756l-.004-15.695c0-.457-.202-.892-.551-1.188z" fill="#A5E4EF"/>
  <path d="M12.395 5.712c0-.457-.202-.892-.551-1.188l-3.56-3.013-.975 1.152 2.2 1.861c.349.296.55.73.55 1.188l.004 15.695c0 .97-.786 1.756-1.756 1.756h2.336c.97 0 1.756-.786 1.756-1.756l-.004-15.695z" fill="#67D8E4"/>
  <path d="M9.026 2.166L7.05 4.5a.48.48 0 01-.675.056l-.607-.513a.48.48 0 01-.056-.675l1.976-2.334a.48.48 0 01.675-.057l.607.514a.48.48 0 01.056.675z" fill="#56449B"/>
  <path d="M8.97 1.49L8.362.978a.48.48 0 00-.675.057l-.153.18.326.277a.48.48 0 01.056.675L6.095 4.319l.28.237A.48.48 0 007.05 4.5l1.976-2.334a.48.48 0 00-.057-.675z" fill="#473984"/>
  <path d="M20.15 23.163h-7.908a.898.898 0 01-.898-.898v-4.38c0-.497.402-.899.898-.899h7.907c.497 0 .899.402.899.898v4.38a.898.898 0 01-.899.9z" fill="#91DEB3"/>
  <path d="M20.15 16.986h-.208v4.172a.899.899 0 01-.899.899h-7.7v.208c0 .496.403.898.9.898h7.906a.899.899 0 00.899-.898v-4.38a.898.898 0 00-.899-.899z" fill="#75D6A5"/>
  <path d="M7.143 17.275a1.897 1.897 0 100-3.794 1.897 1.897 0 000 3.794z" fill="#67D8E4"/>
  <path d="M8.035 13.704a1.897 1.897 0 01-2.566 2.566 1.896 1.896 0 102.566-2.566z" fill="#23D1E0"/>
  <path d="M16.904 14.968a.616.616 0 100-1.232.616.616 0 000 1.232zM15.983 11.617a1.08 1.08 0 100-2.16 1.08 1.08 0 000 2.16z" fill="#D2F0F5"/>
  <path d="M16.397 9.54a1.08 1.08 0 01-1.412 1.412 1.08 1.08 0 101.412-1.413z" fill="#A5E4EF"/>
  <path d="M20.15 23.163h-7.908a.898.898 0 01-.898-.898V20.85h9.704v1.415a.898.898 0 01-.899.898z" fill="#13B866"/>
  <path d="M19.942 20.85v.308a.899.899 0 01-.899.899h-7.7v.208c0 .496.403.898.9.898h7.906a.898.898 0 00.899-.898V20.85h-1.106z" fill="#09A657"/>
  <path d="M20.15 16.649h-7.415l-.003-10.937a1.89 1.89 0 00-.67-1.445L9.45 2.057a.816.816 0 00-.263-.824L8.58.72a.817.817 0 00-1.15.096l-.335.396-.692-.586a.527.527 0 00-.748.062l-.62.733a.528.528 0 00.062.748l.692.586-.335.395A.817.817 0 005.55 4.3l.606.514a.81.81 0 00.856.123l1.304 1.104a.048.048 0 01.017.034c0 .01-.001.023-.013.036l-3.1 3.41a.337.337 0 10.498.454l3.1-3.41a.717.717 0 00.187-.534.717.717 0 00-.254-.505l-1.24-1.05 1.567-1.851 2.548 2.156c.274.233.432.572.432.931l.003 10.95a1.237 1.237 0 00-1.054 1.223v4.38c0 .171.035.334.098.483a1.417 1.417 0 01-.462.078H4.708a1.42 1.42 0 01-1.419-1.419v-7.358c0-.904.335-1.771.944-2.44l.462-.51a.337.337 0 10-.498-.452l-.463.508a4.294 4.294 0 00-1.119 2.894v7.358c0 1.154.94 2.093 2.093 2.093h5.935c.318 0 .63-.072.912-.21.197.133.433.21.687.21h7.907c.682 0 1.236-.554 1.236-1.235v-4.38c0-.682-.554-1.236-1.236-1.236zM5.641 1.747l.435-.515.583.494-.435.514-.583-.493zm1.15 2.536a.142.142 0 01-.2.016l-.606-.513a.142.142 0 01-.017-.2L7.945 1.25a.142.142 0 01.2-.016l.606.513a.142.142 0 01.017.2L6.792 4.283zm13.919 17.982c0 .31-.252.561-.562.561h-7.907a.562.562 0 01-.561-.561v-1.078h1.656a.337.337 0 000-.674h-1.656v-2.629c0-.31.252-.561.561-.561h7.907c.31 0 .562.252.562.561v2.629H14.91a.337.337 0 100 .674h5.8v1.078z" fill="#000"/>
  <path d="M15.139 19.038a.427.427 0 100-.854.427.427 0 000 .854zM16.622 19.827a.427.427 0 100-.853.427.427 0 000 .853zM18.167 18.465a.427.427 0 100-.854.427.427 0 000 .854zM14.174 12.27a.427.427 0 100-.853.427.427 0 000 .854zM9.376 15.378a2.236 2.236 0 00-2.233-2.233 2.236 2.236 0 00-2.234 2.233 2.236 2.236 0 002.234 2.234 2.236 2.236 0 002.233-2.234zm-3.793 0c0-.86.7-1.56 1.56-1.56.86 0 1.56.7 1.56 1.56 0 .86-.7 1.56-1.56 1.56-.86 0-1.56-.7-1.56-1.56zM15.951 14.352a.954.954 0 001.906 0 .954.954 0 00-1.906 0zm1.232 0a.28.28 0 11-.559-.001.28.28 0 01.559 0zM15.984 11.954c.781 0 1.417-.636 1.417-1.417s-.636-1.417-1.417-1.417c-.782 0-1.418.636-1.418 1.417s.636 1.417 1.418 1.417zm0-2.16a.744.744 0 11-.002 1.488.744.744 0 01.002-1.488z" fill="#000"/>
</svg>
