<svg width="24" height="24" fill="none" xmlns="http://www.w3.org/2000/svg">
  <defs/>
  <path d="M5.98 2.017H4.32a.997.997 0 00-.997.997v19.04c0 .55.446.997.997.997H19.68c.55 0 .996-.446.996-.997V3.014a.997.997 0 00-.996-.997H5.98z" fill="#A25753"/>
  <path d="M19.682 2.017h-3.01c.55 0 .996.446.996.997v19.04c0 .55-.446.997-.996.997h3.01c.55 0 .996-.446.996-.997V3.014a.997.997 0 00-.996-.997z" fill="#753F3C"/>
  <path d="M5.98 2.017h-.539v19.084H18.56V2.017H5.982z" fill="#EEEDEE"/>
  <path d="M18.02 2.017h-1.332v11.995a5.217 5.217 0 01-5.217 5.217H5.44v1.872H18.56V2.017h-.54z" fill="#CCCBCC"/>
  <path d="M15.784.95H8.216a.72.72 0 00-.72.719v1.44c0 .397.322.72.72.72h1.88c0 .845.686 1.531 1.532 1.531h.743c.847 0 1.533-.686 1.533-1.532h1.88a.72.72 0 00.72-.72v-1.44a.72.72 0 00-.72-.719z" fill="#636363"/>
  <path d="M15.784.95h-2.679c.128.395.197.818.197 1.257a4.08 4.08 0 01-1.486 3.153h.555c.847 0 1.532-.686 1.532-1.532h1.881a.72.72 0 00.72-.72v-1.44a.72.72 0 00-.72-.719z" fill="#424242"/>
  <path d="M19.76 1.579h-1.68a.337.337 0 100 .674h.209v18.603H5.711V2.253h1.403v.765c0 .587.477 1.064 1.064 1.064H9.77c.16.879.93 1.548 1.855 1.548h.75c.925 0 1.695-.669 1.855-1.548h1.593c.587 0 1.064-.477 1.064-1.064V1.564C16.887.977 16.41.5 15.823.5H8.178C7.59.5 7.114.977 7.114 1.564v.015H4.24c-.74 0-1.344.603-1.344 1.343v13.525a.337.337 0 10.674 0V2.922c0-.369.3-.67.67-.67h.797v18.941c0 .186.15.337.336.337h13.252c.186 0 .337-.15.337-.337V2.253h.796c.37 0 .67.3.67.67v19.233c0 .37-.3.67-.67.67H4.241a.67.67 0 01-.67-.67v-4.12a.337.337 0 00-.674 0v4.12c0 .741.603 1.344 1.344 1.344H19.76c.741 0 1.344-.603 1.344-1.344V2.922c0-.74-.603-1.343-1.344-1.343zM7.786 1.564a.39.39 0 01.39-.39h7.646a.39.39 0 01.39.39v1.454a.39.39 0 01-.39.39h-1.9a.337.337 0 00-.337.337c0 .668-.543 1.21-1.21 1.21h-.751c-.668 0-1.211-.542-1.211-1.21a.337.337 0 00-.337-.337h-1.9a.39.39 0 01-.39-.39V1.564z" fill="#000"/>
  <path d="M16.292 9.719h-1.781l-1.139-3.11c-.113-.309-.561-.288-.643.034l-1.222 4.815-1.181-3.435a.337.337 0 00-.613-.055l-.982 1.75H7.71a.337.337 0 100 .675h1.22a.337.337 0 00.293-.173l.711-1.267 1.303 3.792c.109.316.563.297.646-.027l1.232-4.853.845 2.307c.049.132.175.22.316.22h2.017a.337.337 0 100-.673zM16.292 15.275H7.71a.337.337 0 100 .674h8.583a.337.337 0 000-.674zM16.292 18.243H7.71a.337.337 0 000 .674h8.583a.337.337 0 100-.674z" fill="#000"/>
</svg>
