<svg width="24" height="24" fill="none" xmlns="http://www.w3.org/2000/svg">
  <defs/>
  <path d="M17.916 18.521a7.705 7.705 0 001.786-4.925c0-4.246-3.455-7.701-7.702-7.701-4.246 0-7.701 3.455-7.701 7.702 0 4.246 3.455 7.7 7.701 7.7a7.704 7.704 0 004.925-1.785.367.367 0 01.511.041 8.12 8.12 0 00.521-.52.367.367 0 01-.04-.512zm.685-5.292a.367.367 0 110 .735h-.49a.367.367 0 110-.735h.49zm-1.492-3.006l.424-.245a.367.367 0 11.367.636l-.424.245a.365.365 0 01-.501-.134.367.367 0 01.134-.502zm-2.371-2.102l.245-.424a.367.367 0 11.635.367l-.244.424a.367.367 0 11-.636-.367zm-3.105-1.125a.367.367 0 01.734 0v.49a.367.367 0 11-.734 0v-.49zm-3.116.567a.367.367 0 01.5.134l.246.424a.367.367 0 01-.636.367l-.245-.424a.367.367 0 01.135-.501zm-3.117 6.4a.367.367 0 110-.733h.49a.367.367 0 110 .733H5.4zm1.492 3.007l-.424.245a.365.365 0 01-.502-.135.367.367 0 01.135-.501l.423-.245a.367.367 0 11.368.636zm.134-6.245a.367.367 0 01-.502.134l-.423-.245a.367.367 0 11.367-.636l.424.245a.367.367 0 01.134.502zm2.237 8.347l-.245.424a.367.367 0 11-.636-.367l.245-.424a.367.367 0 11.636.367zm3.104 1.125a.367.367 0 11-.734 0v-.49a.367.367 0 01.734 0v.49zm3.117-.567a.365.365 0 01-.501-.134l-.245-.424a.367.367 0 11.636-.367l.244.424c.102.176.041.4-.134.501zm1.16-5.666H13.1v2.318a1.102 1.102 0 01-2.202 0v-2.23l-2.787-2.787a1.102 1.102 0 01.778-1.88c.294 0 .57.115.779.323l3.11 3.11.013.014c.108.113.193.247.246.397h3.605a.367.367 0 110 .735zm.889 3.25l-.424-.244a.367.367 0 01.367-.636l.424.245a.367.367 0 01-.367.636z" fill="#fff"/>
  <path d="M12 13.963a.367.367 0 100-.735.367.367 0 000 .735z" fill="#BD1515"/>
  <path d="M11.007 13.122c.109-.226.292-.41.519-.519L9.15 10.227a.365.365 0 00-.52 0 .367.367 0 000 .519l2.377 2.376z" fill="#FFCC75"/>
  <path d="M12.367 14.634a1.097 1.097 0 01-.734 0v1.648a.367.367 0 00.734 0v-1.648z" fill="#F2484B"/>
  <path d="M12 4.427c-5.056 0-9.169 4.113-9.169 9.17 0 5.056 4.113 9.169 9.17 9.169 5.056 0 9.17-4.113 9.17-9.17 0-5.056-4.114-9.17-9.17-9.17zm6.48 14.564a.367.367 0 01-.517.047c-.002-.002-.003-.004-.006-.005a8.12 8.12 0 01-.52.52l.005.006a.367.367 0 01-.047.517 8.44 8.44 0 01-5.394 1.956c-4.652 0-8.436-3.784-8.436-8.436 0-4.65 3.784-8.435 8.436-8.435 4.65 0 8.435 3.784 8.435 8.435a8.44 8.44 0 01-1.956 5.395zM20.952 3.898a3.136 3.136 0 00-1.262-2.06 3.133 3.133 0 00-1.853-.604c-.885 0-1.729.374-2.322 1.016l5.071 3.688a3.131 3.131 0 00.366-2.04zM8.486 2.25a3.172 3.172 0 00-2.323-1.016c-.67 0-1.31.209-1.853.604a3.136 3.136 0 00-1.262 2.06c-.112.71.017 1.422.366 2.04L8.486 2.25z" fill="#F2484B"/>
  <path d="M12.367 3.7V2.96h.612a.367.367 0 000-.734h-1.957a.367.367 0 000 .734h.611V3.7c-5.291.194-9.536 4.559-9.536 9.897 0 5.46 4.442 9.903 9.903 9.903s9.904-4.443 9.904-9.903c0-5.338-4.245-9.703-9.537-9.897zM12 22.766c-5.056 0-9.17-4.113-9.17-9.17 0-5.056 4.114-9.169 9.17-9.169s9.17 4.113 9.17 9.17c0 5.056-4.114 9.169-9.17 9.169z" fill="#082947"/>
  <path d="M3.316 6.83c.075 0 .15-.023.216-.07l5.7-4.144a.367.367 0 00.08-.513A3.905 3.905 0 006.162.5c-.824 0-1.615.257-2.284.744a3.865 3.865 0 00-1.555 2.54 3.865 3.865 0 00.696 2.894.367.367 0 00.297.152zm-.268-2.932a3.136 3.136 0 011.262-2.06 3.133 3.133 0 011.853-.604c.885 0 1.729.374 2.322 1.016L3.414 5.938a3.132 3.132 0 01-.366-2.04zM14.77 2.616l5.7 4.143a.365.365 0 00.512-.08c.61-.841.858-1.87.696-2.896a3.865 3.865 0 00-1.555-2.54A3.862 3.862 0 0017.838.5c-1.242 0-2.42.6-3.15 1.603a.367.367 0 00.081.513zm3.068-1.382c.67 0 1.31.209 1.853.604a3.136 3.136 0 011.262 2.06 3.132 3.132 0 01-.366 2.04L15.515 2.25a3.171 3.171 0 012.323-1.016zM12 7.852a.367.367 0 00.367-.367v-.489a.367.367 0 00-.734 0v.49c0 .202.164.366.367.366zM8.627 8.488a.367.367 0 10.636-.367l-.245-.424a.367.367 0 10-.636.367l.245.424zM6.891 10.223l-.423-.245a.367.367 0 10-.367.636l.423.245a.365.365 0 00.502-.134.367.367 0 00-.135-.502zM6.257 13.596a.367.367 0 00-.367-.367H5.4a.367.367 0 100 .734h.49a.367.367 0 00.367-.367zM6.524 16.334l-.423.245a.367.367 0 00.367.635l.423-.244a.367.367 0 10-.367-.636zM9.128 18.57a.367.367 0 00-.501.135l-.245.424a.367.367 0 10.636.367l.245-.424a.367.367 0 00-.135-.501zM12 19.34a.367.367 0 00-.367.367v.49a.367.367 0 10.734 0v-.49A.367.367 0 0012 19.34zM15.373 18.705a.367.367 0 00-.635.367l.244.424a.367.367 0 10.636-.367l-.245-.424zM18.035 17.08a.367.367 0 00-.135-.501l-.424-.245a.367.367 0 10-.367.636l.424.244a.366.366 0 00.502-.134zM17.744 13.596c0 .203.164.367.367.367h.49a.367.367 0 100-.734h-.49a.367.367 0 00-.367.367zM17.293 10.908a.365.365 0 00.183-.05l.424-.244a.367.367 0 00-.367-.636l-.424.245a.367.367 0 00.184.685zM14.872 8.622a.366.366 0 00.501-.134l.245-.424a.367.367 0 00-.636-.367l-.244.424a.367.367 0 00.134.5zM16.643 13.23H13.04a1.104 1.104 0 00-.247-.398l-.013-.014-3.11-3.11a1.094 1.094 0 00-.778-.323 1.102 1.102 0 00-.779 1.88l2.787 2.788v2.229a1.102 1.102 0 002.202 0v-2.319h3.542a.367.367 0 100-.733zm-4.642 3.419a.367.367 0 01-.367-.367v-1.648a1.095 1.095 0 00.734 0v1.648a.367.367 0 01-.367.367zm-.367-3.053a.367.367 0 11.734.001.367.367 0 01-.735 0zm-3.003-3.37a.365.365 0 01.52 0l2.375 2.377c-.226.109-.41.293-.519.519l-2.376-2.376a.367.367 0 010-.52z" fill="#082947"/>
  <path d="M12 5.161c-4.651 0-8.436 3.784-8.436 8.436 0 4.65 3.785 8.435 8.436 8.435a8.44 8.44 0 005.395-1.956.367.367 0 00.047-.517l-.006-.006a.367.367 0 00-.511-.04A7.705 7.705 0 0112 21.297c-4.247 0-7.702-3.455-7.702-7.701 0-4.247 3.455-7.702 7.702-7.702S19.7 9.35 19.7 13.597a7.705 7.705 0 01-1.785 4.924.367.367 0 00.04.512l.007.005c.156.13.387.11.517-.047a8.44 8.44 0 001.955-5.394c0-4.652-3.784-8.436-8.435-8.436z" fill="#082947"/>
</svg>
