<svg width="24" height="24" fill="none" xmlns="http://www.w3.org/2000/svg">
  <defs/>
  <path d="M17.168 2.921h-2.506c-.12 0-.226.08-.258.195a2.496 2.496 0 01-4.807 0 .267.267 0 00-.257-.195H6.834c-.773 0-1.525.246-2.148.702L.948 6.356a.27.27 0 00-.059.378L3.9 10.852a.27.27 0 00.378.059l1.367-1v5.45c0 .15.121.271.27.271h12.17a.27.27 0 00.271-.27v-5.45l1.367.999a.27.27 0 00.378-.059l3.011-4.118a.27.27 0 00-.059-.378l-3.738-2.733a3.639 3.639 0 00-2.147-.702z" fill="#FB9539"/>
  <path d="M23.053 6.356l-1.245-.91-2.69 3.68a.27.27 0 01-.379.058l-1.046-.766a.201.201 0 00-.32.163v5.053a.27.27 0 01-.27.271H5.644v1.457c0 .15.12.27.27.27h12.17a.27.27 0 00.27-.27v-5.45l1.367 1a.27.27 0 00.378-.06l3.011-4.117a.27.27 0 00-.058-.379z" fill="#FC7601"/>
  <path d="M10.202 17.907a5.099 5.099 0 01-.154-1.64 7.986 7.986 0 00-.246-2.563l-.421-1.62a1.537 1.537 0 00-1.875-1.101L6.4 11.27a2.424 2.424 0 00-1.735 2.956l1.35 5.193a2.216 2.216 0 004.29-1.116l-.102-.396z" fill="#A698A6"/>
  <path d="M10.305 18.303l-.103-.396a5.099 5.099 0 01-.154-1.64 7.983 7.983 0 00-.246-2.563l-.421-1.62a1.537 1.537 0 00-1.875-1.101l-.152.039c.464.165.84.55.973 1.061l.421 1.62c.218.837.306 1.702.246 2.564-.037.537.01 1.09.154 1.64l.103.396a2.216 2.216 0 01-1.587 2.703l-.033.008a2.216 2.216 0 002.674-2.71z" fill="#8F8290"/>
  <path d="M9.61 12.96l-.392.02a10.783 10.783 0 00-4.198 1.092l-.351.173.438 1.684a.484.484 0 00.673.316l.032-.015a10.707 10.707 0 013.726-.976l.078-.006a.484.484 0 00.431-.604L9.61 12.96z" fill="#695E67"/>
  <path d="M10.048 14.644l-.439-1.684-.39.02c-.216.011-.431.03-.645.054l.248.953a.484.484 0 01-.432.604l-.077.006c-1.152.087-2.28.36-3.342.806l.136.526a.484.484 0 00.673.316l.032-.015a10.704 10.704 0 013.726-.976l.078-.006a.484.484 0 00.432-.604z" fill="#544E56"/>
  <path d="M8.759 14.894c.197-.533.3-1.078.316-1.617.027-.863.201-1.715.5-2.525l.582-1.57a1.537 1.537 0 011.975-.909l1.073.397a2.424 2.424 0 011.432 3.114l-1.863 5.032a2.216 2.216 0 11-4.157-1.538l.142-.384z" fill="#A698A6"/>
  <path d="M13.597 8.857c.358.607.45 1.363.187 2.075l-1.862 5.032a2.216 2.216 0 01-3.16 1.166 2.216 2.216 0 004.012-.314l1.862-5.032a2.424 2.424 0 00-1.04-2.927z" fill="#8F8290"/>
  <path d="M9.842 10.03l.387.06c1.444.22 2.828.733 4.068 1.505l.333.207-.604 1.632a.484.484 0 01-.701.248l-.03-.018a10.703 10.703 0 00-3.61-1.344l-.078-.014a.484.484 0 01-.369-.643l.604-1.633z" fill="#695E67"/>
  <path d="M14.297 11.595a10.778 10.778 0 00-.626-.36l-.33.894a.484.484 0 01-.701.247l-.03-.018a10.708 10.708 0 00-3.165-1.254l-.207.559a.484.484 0 00.37.644l.076.013c1.275.226 2.498.681 3.61 1.344l.03.018c.26.155.597.036.702-.248l.604-1.632-.333-.207z" fill="#544E56"/>
  <path d="M23.252 6.085L19.514 3.35a3.95 3.95 0 00-2.347-.766h-2.506c-.27 0-.51.181-.581.44A2.164 2.164 0 0112 4.606c-.966 0-1.82-.65-2.08-1.58a.605.605 0 00-.58-.44H6.832c-.506 0-1 .095-1.47.282a.336.336 0 00.248.625c.39-.155.802-.234 1.222-.234h2.454A2.84 2.84 0 0012 5.278a2.84 2.84 0 002.713-2.02h2.454c.706 0 1.38.22 1.95.636L22.8 6.59l-2.933 4.012-1.314-.96a.336.336 0 00-.535.27v5.385h-4.324l1.257-3.395a2.742 2.742 0 00-.081-2.11 2.742 2.742 0 00-1.55-1.436l-1.072-.397A1.876 1.876 0 009.84 9.064l-.733 1.981a1.88 1.88 0 00-1.686-.388l-1.107.288c-.115.03-.226.067-.334.11V9.912a.336.336 0 00-.535-.272l-1.314.961L1.2 6.589 4.42 4.233a.336.336 0 00-.397-.543L.749 6.085a.603.603 0 00-.132.848l3.011 4.118c.198.27.578.33.849.132l.831-.609v.868c-.27.21-.5.473-.678.777a2.742 2.742 0 00-.291 2.092l.98 3.77a.337.337 0 00.651-.17l-.335-1.287a.82.82 0 00.287-.074l.032-.015a10.37 10.37 0 012.2-.74c-.045.446.03.9.222 1.318a2.536 2.536 0 001.63 1.392c.087.45.01.91-.225 1.308a1.868 1.868 0 01-1.148.868 1.868 1.868 0 01-1.425-.199 1.868 1.868 0 01-.868-1.148.336.336 0 00-.65.17c.171.66.59 1.213 1.178 1.558a2.538 2.538 0 001.935.27 2.536 2.536 0 001.558-1.178A2.534 2.534 0 0010.7 18.6c.362 0 .723-.079 1.062-.235a2.536 2.536 0 001.327-1.433l.357-.964h4.639a.608.608 0 00.607-.607v-4.788l.832.609c.27.197.65.138.848-.132l3.011-4.118a.608.608 0 00-.131-.848zM12.014 8.588l1.073.398c.523.193.939.579 1.172 1.085.176.383.231.8.164 1.208a11.056 11.056 0 00-4.123-1.518l.171-.463c.23-.621.922-.94 1.543-.71zM5.21 12.56c.282-.48.734-.823 1.274-.963l1.107-.288a1.205 1.205 0 011.321.527 8.171 8.171 0 00-.132.84c-1.344.12-2.638.48-3.854 1.07-.026-.412.07-.822.284-1.186zm.46 3.367l-.033.015a.146.146 0 01-.125 0 .145.145 0 01-.08-.096l-.369-1.42.106-.051a10.392 10.392 0 013.566-1.02c-.024.485-.121.963-.292 1.423l-.109.295c-.92.17-1.816.457-2.664.854zm6.789.774a1.868 1.868 0 01-.978 1.055c-.456.21-.967.23-1.438.055a1.868 1.868 0 01-1.056-.978 1.868 1.868 0 01-.055-1.438l.142-.383a5.43 5.43 0 00.337-1.723 7.635 7.635 0 01.48-2.42l.172-.463.116.017c1.406.216 2.732.706 3.94 1.459l.1.062-.509 1.375a.145.145 0 01-.089.088.146.146 0 01-.124-.013l-.03-.018a11.046 11.046 0 00-2.641-1.137.336.336 0 10-.184.647c.87.246 1.704.606 2.48 1.068l.03.018a.823.823 0 00.278.103L12.46 16.7z" fill="#000"/>
</svg>
