<svg width="24" height="24" fill="none" xmlns="http://www.w3.org/2000/svg">
  <defs/>
  <path d="M13.682 20.793v-8.217h-1.353v8.217c0 .474-.3.896-.749 1.05l-1.18.406a.47.47 0 00.153.914h4.905a.47.47 0 00.153-.914l-1.18-.406a1.11 1.11 0 01-.75-1.05z" fill="#D6D6D6"/>
  <path d="M5.566 6.4a2.39 2.39 0 100-4.781 2.39 2.39 0 000 4.78z" fill="#F2CA20"/>
  <path d="M5.188 5.112v2.026c0 1.116.779 2.08 1.87 2.315.812.174 1.45.788 1.685 1.584a4.446 4.446 0 008.525 0 2.261 2.261 0 011.685-1.584 2.368 2.368 0 001.87-2.315V5.112a.891.891 0 00-.89-.891H6.078a.891.891 0 00-.89.89z" fill="#75CFF2"/>
  <path d="M19.932 4.22h-1.43V6.31c0 1.116-.78 2.08-1.87 2.315-.8.172-1.45.764-1.676 1.55-.474 1.653-1.882 3.366-3.616 3.722a4.446 4.446 0 005.928-2.859 2.261 2.261 0 011.685-1.585 2.368 2.368 0 001.87-2.314V5.11a.891.891 0 00-.89-.89z" fill="#53B4E4"/>
  <path d="M19.933 4.22H6.078a.891.891 0 00-.89.89V6.4h15.636V5.11a.891.891 0 00-.891-.89z" fill="#EDEDED"/>
  <path d="M20.823 6.4V5.11a.891.891 0 00-.89-.89h-1.431v2.088c0 .03 0 .06-.002.09h2.323z" fill="#D6D6D6"/>
  <g fill="#000">
    <path d="M19.933 3.883h-4.36l1.27-2.71h3.215a.337.337 0 100-.673h-3.43c-.13 0-.25.076-.305.194l-1.495 3.19h-8.75A1.23 1.23 0 004.851 5.11v2.026c0 1.267.898 2.379 2.136 2.645.681.146 1.23.663 1.433 1.35.287.969.89 1.84 1.699 2.454a4.736 4.736 0 001.873.863v6.344c0 .33-.21.624-.521.731l-1.18.406a.807.807 0 00.262 1.57h4.905a.808.808 0 00.263-1.57l-1.18-.406a.773.773 0 01-.522-.73v-6.345a4.738 4.738 0 001.873-.863 4.817 4.817 0 001.699-2.454 1.927 1.927 0 011.433-1.35 2.719 2.719 0 002.137-2.644V5.11a1.23 1.23 0 00-1.228-1.228zm0 .674c.305 0 .554.249.554.554v.952H14.55l.706-1.506h4.677zm-13.855 0h8.434l-.706 1.506H5.524V5.11c0-.305.249-.554.554-.554zm8.243 17.605l1.18.406a.133.133 0 01-.043.258h-4.905a.133.133 0 01-.043-.258l1.18-.407c.584-.2.976-.75.976-1.368v-6.249a4.838 4.838 0 00.68 0v6.25c-.001.617.391 1.167.975 1.367zm4.562-13.04a2.6 2.6 0 00-1.938 1.82 4.138 4.138 0 01-1.46 2.107 4.07 4.07 0 01-2.48.833 4.07 4.07 0 01-2.48-.833 4.139 4.139 0 01-1.459-2.108A2.6 2.6 0 007.13 9.123a2.041 2.041 0 01-1.605-1.986v-.4h14.963v.4c0 .951-.675 1.786-1.604 1.986z"/>
    <path d="M5.566 1.956c.671 0 1.302.329 1.686.88a.337.337 0 10.553-.385 2.73 2.73 0 00-2.239-1.17A2.73 2.73 0 003.34 5.584a.337.337 0 10.55-.39 2.056 2.056 0 011.677-3.238z"/>
  </g>
</svg>
