<svg width="24" height="24" fill="none" xmlns="http://www.w3.org/2000/svg">
  <defs/>
  <path d="M17.135 4.124H6.463V1.846c0-.557.451-1.009 1.008-1.009h8.656c.557 0 1.008.452 1.008 1.009v2.278z" fill="#FDB1B9"/>
  <path d="M16.112.837h-2.313c.565 0 1.024.459 1.024 1.024v2.263h2.312V1.861c0-.565-.458-1.024-1.023-1.024z" fill="#FC8086"/>
  <path d="M15.724 21.367h-7.85c-.61 0-1.119-.47-1.165-1.08L5.53 4.73h12.54l-1.18 15.557a1.169 1.169 0 01-1.165 1.08z" fill="#DA8659"/>
  <path d="M15.797 4.73l-.895 11.8a2.854 2.854 0 01-2.846 2.638H6.624l.085 1.119c.046.609.554 1.08 1.165 1.08h7.85c.611 0 1.119-.471 1.165-1.08L18.07 4.73h-2.272z" fill="#C56E37"/>
  <path d="M19.538 6.5H4.058a.479.479 0 01-.478-.478v-1.84c0-.264.214-.478.479-.478h15.48c.263 0 .478.214.478.478v1.84a.479.479 0 01-.479.478z" fill="#EFE0DB"/>
  <path d="M19.547 3.704h-1.29v.567c0 .26-.21.47-.47.47H3.58v1.29c0 .259.21.47.47.47h15.497c.26 0 .47-.211.47-.47V4.173a.47.47 0 00-.47-.47z" fill="#DFD1CB"/>
  <path d="M16.82 20.993l-1.944 1.943a.752.752 0 01-1.064 0l-1.943-1.943a.753.753 0 010-1.064l1.943-1.944a.753.753 0 011.065 0l1.943 1.944a.753.753 0 010 1.064z" fill="#F9F0F0"/>
  <path d="M16.83 19.939l-1.963-1.964a.738.738 0 00-1.044 0l-.344.344 1.62 1.62a.738.738 0 010 1.044l-1.62 1.62.344.343a.738.738 0 001.044 0l1.964-1.963a.738.738 0 000-1.044z" fill="#EFE0DB"/>
  <path d="M19.666 23.163h-2.748a.752.752 0 01-.753-.753v-2.748c0-.416.337-.753.753-.753h2.748c.416 0 .753.337.753.753v2.748a.752.752 0 01-.753.753z" fill="#F9F0F0"/>
  <path d="M19.68 18.91h-1.369c.408 0 .739.33.739.738v2.776c0 .408-.33.739-.739.739h1.37c.407 0 .738-.33.738-.739v-2.776a.738.738 0 00-.738-.739z" fill="#EFE0DB"/>
  <path d="M14.14 13.102H9.457a1.24 1.24 0 01-1.24-1.24v-.037c0-.684.556-1.24 1.24-1.24h4.684c.684 0 1.239.556 1.239 1.24v.038a1.24 1.24 0 01-1.24 1.24z" fill="#FDB1B9"/>
  <path d="M14.122 10.586h-1.018a1.258 1.258 0 010 2.516h1.018a1.258 1.258 0 000-2.516z" fill="#FC8086"/>
  <path d="M20.419 20.939a.337.337 0 00-.338.337v1.123a.427.427 0 01-.426.426h-2.726a.427.427 0 01-.426-.426v-2.726c0-.235.191-.427.426-.427h2.726c.235 0 .426.192.426.427a.337.337 0 00.675 0c0-.607-.494-1.101-1.101-1.101h-2.298l.89-11.734h1.284c.454 0 .824-.37.824-.824V4.19a.824.824 0 00-.824-.824H6.801V1.861c0-.378.307-.686.686-.686h8.624c.379 0 .687.308.687.686v.182a.337.337 0 10.674 0V1.86c0-.75-.61-1.361-1.36-1.361H7.486c-.751 0-1.362.61-1.362 1.361v1.505H4.066a.824.824 0 00-.823.824v1.824c0 .454.37.824.823.824H5.35l1.022 13.474c.06.78.72 1.392 1.502 1.392h4.23l1.462 1.463c.215.214.497.322.779.322.282 0 .564-.108.779-.322l.706-.706c.032.578.513 1.039 1.1 1.039h2.725c.607 0 1.101-.494 1.101-1.101v-1.123a.337.337 0 00-.337-.337zM7.045 20.26L6.027 6.838h1.904a.337.337 0 100-.675H4.066a.149.149 0 01-.148-.149V4.19c0-.082.066-.149.148-.149h15.465c.082 0 .149.067.149.149v1.824a.149.149 0 01-.149.149H9.527a.337.337 0 100 .674h8.044l-.892 11.764a1.1 1.1 0 00-.47.24l-1.085-1.086a1.103 1.103 0 00-1.558 0l-1.927 1.927a1.102 1.102 0 00-.163 1.348H7.874a.835.835 0 01-.829-.769zm7.602 2.429a.427.427 0 01-.604 0l-1.927-1.928a.427.427 0 010-.603l1.927-1.927a.427.427 0 01.604 0l1.206 1.207a1.098 1.098 0 00-.025.234v1.835l-1.181 1.182z" fill="#000"/>
  <path d="M15.718 11.861v-.034a1.58 1.58 0 00-1.579-1.578H9.46a1.58 1.58 0 00-1.578 1.578v.034c0 .87.708 1.579 1.578 1.579h4.68a1.58 1.58 0 001.579-1.579zm-7.162 0v-.034c0-.498.405-.904.903-.904h4.68c.499 0 .904.406.904.904v.034a.905.905 0 01-.904.904H9.46a.905.905 0 01-.903-.904z" fill="#000"/>
</svg>
