<svg width="24" height="24" fill="none" xmlns="http://www.w3.org/2000/svg">
  <defs/>
  <path d="M7.433 15.584a4.36 4.36 0 100-8.722 4.36 4.36 0 000 8.722z" fill="#FFDFA1"/>
  <path d="M7.433 13.844a2.62 2.62 0 100-5.242 2.62 2.62 0 000 5.242z" fill="#FFEFCA"/>
  <path d="M16.325 15.584a4.36 4.36 0 100-8.722 4.36 4.36 0 000 8.722z" fill="#FFDFA1"/>
  <path d="M16.324 13.844a2.62 2.62 0 100-5.242 2.62 2.62 0 000 5.242z" fill="#FFEFCA"/>
  <g fill="#DDB97A">
    <path d="M11.272 16.3a5.402 5.402 0 100-10.804 5.402 5.402 0 000 10.804z"/>
    <path d="M7.844 8.41c-1.345 2.707-.276 6.008 2.387 7.37 2.663 1.364 5.912.273 7.257-2.435 1.345-2.708.276-6.008-2.387-7.371C12.438 4.61 9.19 5.7 7.844 8.409z"/>
  </g>
  <path d="M12.031 15.521a5.402 5.402 0 100-10.804 5.402 5.402 0 000 10.805z" fill="#FFDFA1"/>
  <path d="M12.03 13.366a3.247 3.247 0 100-6.493 3.247 3.247 0 000 6.493z" fill="#FFEFCA"/>
  <path d="M2.932 14.465L.924 16.473l3.2 3.2L5.198 18.6l1.141-1.162-2.405-3.503-1.002.53z" fill="#6BE8C7"/>
  <path d="M3.075 16.612l3.278.871-1.528-2.34-1.75 1.47z" fill="#34C195"/>
  <path d="M21.142 14.465l2.007 2.008-3.2 3.2-1.074-1.073-1.076-1.098 2.771-3.352.572.315z" fill="#6BE8C7"/>
  <path d="M20.998 16.612l-3.277.871 1.527-2.34 1.75 1.47z" fill="#34C195"/>
  <path d="M20.987 12.795H3.075v3.817h17.912v-3.817z" fill="#6BE8C7"/>
  <path d="M20.987 12.795h-1.044v3.817h1.044v-3.817z" fill="#3CD3A8"/>
  <path d="M3.974 12.795h-.899v3.817h.899v-3.817z" fill="#9AF7DD"/>
  <path d="M21.381 14.088a.383.383 0 00-.064-.051v-1.352a.377.377 0 00-.377-.377h-.108a4.781 4.781 0 00.22-1.7 4.753 4.753 0 00-1.571-3.309 4.762 4.762 0 00-2.966-1.226 5.791 5.791 0 00-5.574-1.89 5.757 5.757 0 00-3.193 1.888 4.79 4.79 0 00-4.832 6.254.377.377 0 00-.265.36v1.374a.364.364 0 00-.033.03L.61 16.095a.377.377 0 000 .534l3.201 3.2a.376.376 0 00.533 0l1.074-1.073a.377.377 0 00-.533-.534l-.807.807-2.667-2.667 1.24-1.241v1.38c0 .208.17.377.377.377H20.94a.377.377 0 00.377-.377V15.09l1.273 1.272-2.668 2.667-.807-.807a.377.377 0 00-.533.534l1.073 1.073a.376.376 0 00.534 0l3.2-3.2a.377.377 0 000-.534l-2.008-2.008zM11.096 4.922a5.038 5.038 0 015.997 5.77.377.377 0 10.743.127c.088-.517.105-1.04.051-1.56a2.258 2.258 0 01.12 3.049h-3.219a3.605 3.605 0 00.964-2.515.377.377 0 00-.376-.371h-.006a.377.377 0 00-.371.383 2.855 2.855 0 01-.467 1.61c-.241.37-.558.673-.926.893h-2.949a2.85 2.85 0 01-1.335-1.871 2.85 2.85 0 01.406-2.158 2.85 2.85 0 011.812-1.24 2.85 2.85 0 012.158.406c.197.128.377.28.535.45a.377.377 0 00.552-.514 3.64 3.64 0 00-.674-.568 3.599 3.599 0 00-2.726-.512 3.6 3.6 0 00-2.288 1.565 3.6 3.6 0 00-.512 2.726 3.6 3.6 0 00.885 1.716H7.738a5.038 5.038 0 013.358-7.386zm9.202 5.724c.03.576-.064 1.14-.267 1.662h-1.114a3.022 3.022 0 00-1.249-4.137 5.747 5.747 0 00-.553-1.264c.686.145 1.326.469 1.86.952a4.004 4.004 0 011.323 2.787zM5.73 12.308a2.256 2.256 0 01-.482-.993 2.253 2.253 0 01.32-1.705c.22-.336.517-.602.865-.78a5.756 5.756 0 00.034 2.206c.093.445.236.87.424 1.272H5.73zm.94-4.373a3 3 0 00-1.733 1.262 3.032 3.032 0 00-.118 3.11H3.71a4.035 4.035 0 013.487-5.48 5.82 5.82 0 00-.527 1.108zm13.893 5.127v3.063H3.405v-3.063h17.158z" fill="#000"/>
</svg>
