<svg width="24" height="24" fill="none" xmlns="http://www.w3.org/2000/svg">
  <defs/>
  <path d="M18.998 10.98H5.002a.606.606 0 000 1.21h13.996a.606.606 0 000-1.21z" fill="#fff"/>
  <path d="M2.668 3.56a2.337 2.337 0 002.334 2.335 2.337 2.337 0 002.072-3.411.363.363 0 11.644-.336 3.065 3.065 0 01-2.353 4.451v1.717h1.09c.2 0 .363.163.363.363h.727c0-.2.162-.363.363-.363h10.727V6.6a3.065 3.065 0 01-2.352-4.451.363.363 0 01.644.336 2.337 2.337 0 002.072 3.412 2.337 2.337 0 002.334-2.335 2.337 2.337 0 00-2.335-2.335H5.002a2.337 2.337 0 00-2.334 2.335zm15.085-.362c.018 0 .036.001.053.004.12-.4.435-.714.834-.833a.363.363 0 01.359-.416 1.61 1.61 0 011.608 1.608 1.61 1.61 0 01-1.608 1.608A1.61 1.61 0 0117.39 3.56c0-.2.163-.363.363-.363zm-8.6 0h5.695a.363.363 0 110 .726H9.153a.363.363 0 010-.726zm-4.15-1.245a.363.363 0 01.358.416c.4.12.714.434.834.833a.363.363 0 01.416.359 1.61 1.61 0 01-1.609 1.608A1.61 1.61 0 013.394 3.56a1.61 1.61 0 011.608-1.608zM5.365 12.916v10.22h1.32v-7.678c0-.734.598-1.331 1.332-1.331.734 0 1.331.597 1.331 1.331v7.679h1.32v-7.679a1.333 1.333 0 012.663 0v7.679h1.32v-7.679a1.333 1.333 0 012.663 0v1.453c0 .2-.162.363-.362.363V18c.2 0 .363.163.363.364v4.773h1.32v-10.22H5.365z" fill="#F2EBD9"/>
  <path d="M8.017 14.853a.606.606 0 00-.605.605v7.679h1.21v-7.679a.606.606 0 00-.605-.605zM12 14.853a.606.606 0 00-.605.605v7.679h1.21v-7.679a.606.606 0 00-.605-.605zM16.952 18v-.726a.363.363 0 01-.364-.363v-1.453a.606.606 0 00-1.21 0v7.679h1.21v-4.773c0-.2.163-.364.364-.364zM6.818 8.68c0 .2-.163.362-.363.362h-1.09v1.21h13.27v-1.21H7.907a.363.363 0 01-.363-.363h-.726zM5.002 2.679a.883.883 0 000 1.763.883.883 0 00.882-.881c0-.183.135-.334.31-.36a1.247 1.247 0 00-.833-.832.363.363 0 01-.36.31zM18.116 3.56a.883.883 0 001.764 0 .883.883 0 00-.882-.881.363.363 0 01-.36-.31c-.398.12-.712.434-.832.833.175.025.31.176.31.359z" fill="#FFCC75"/>
  <path d="M19.361 6.6a3.065 3.065 0 002.698-3.04A3.064 3.064 0 0018.999.5H5.001a3.064 3.064 0 00-3.06 3.06A3.065 3.065 0 004.638 6.6v3.704a1.334 1.334 0 00-.968 1.28c0 .609.41 1.123.968 1.281v10.272a.363.363 0 10.726 0v-10.22h13.27v10.22a.363.363 0 10.726 0V12.865c.558-.158.969-.672.969-1.28 0-.609-.41-1.123-.969-1.281V6.599zm-.363 5.59H5.002a.606.606 0 010-1.21h13.996a.606.606 0 010 1.21zm0-10.964a2.337 2.337 0 012.334 2.335 2.337 2.337 0 01-2.334 2.334 2.337 2.337 0 01-2.072-3.412.363.363 0 10-.644-.335 3.065 3.065 0 002.352 4.451v1.717H7.908a.363.363 0 100 .726h10.728v1.211H5.365v-1.21h1.09a.363.363 0 000-.727h-1.09V6.6a3.065 3.065 0 002.353-4.451.363.363 0 10-.644.335 2.337 2.337 0 01-2.072 3.412 2.337 2.337 0 01-2.334-2.334 2.337 2.337 0 012.334-2.335h13.996z" fill="#082947"/>
  <path d="M8.017 14.127c-.734 0-1.331.597-1.331 1.331v7.679a.363.363 0 10.726 0v-7.679a.606.606 0 011.21 0v7.679a.363.363 0 10.727 0v-7.679c0-.734-.598-1.331-1.332-1.331zM12 14.127c-.734 0-1.331.597-1.331 1.331v7.679a.363.363 0 10.726 0v-7.679a.606.606 0 011.21 0v7.679a.363.363 0 10.727 0v-7.679c0-.734-.597-1.331-1.332-1.331zM15.983 14.853c.334 0 .605.272.605.605v1.453a.363.363 0 10.726 0v-1.453c0-.734-.597-1.331-1.331-1.331s-1.332.597-1.332 1.331v7.679a.363.363 0 10.727 0v-7.679c0-.333.271-.605.605-.605z" fill="#082947"/>
  <path d="M16.952 18c-.2 0-.363.163-.363.364v4.773a.363.363 0 00.726 0v-4.773c0-.2-.162-.363-.363-.364zM5.002 5.169A1.61 1.61 0 006.61 3.56a.363.363 0 00-.727 0 .883.883 0 01-1.763 0c0-.486.395-.882.882-.882a.363.363 0 000-.726A1.61 1.61 0 003.394 3.56a1.61 1.61 0 001.608 1.608zM18.998 5.169a1.61 1.61 0 001.608-1.608 1.61 1.61 0 00-1.608-1.608.363.363 0 000 .726.883.883 0 010 1.763.883.883 0 01-.882-.881.363.363 0 00-.726 0 1.61 1.61 0 001.608 1.608zM9.152 3.924h5.696a.363.363 0 000-.726H9.152a.363.363 0 000 .726z" fill="#082947"/>
</svg>
