<svg width="24" height="24" fill="none" xmlns="http://www.w3.org/2000/svg">
  <defs/>
  <path d="M3.676 1.268L2.635 21.613l20.345-1.04V1.267H3.676z" fill="#3B8BC0"/>
  <g fill="#9AD7FF">
    <path d="M1.02 1.268v19.304l1.328 1.041 1.327-1.04V1.267H1.021zM20.34 10.921A7.012 7.012 0 008.37 5.963l3.137 4.24-5.192.718a7.012 7.012 0 0011.971 4.959l-3.137-4.242 5.191-.717z"/>
  </g>
  <g fill="#fff">
    <path d="M8.37 5.962a6.99 6.99 0 00-2.055 4.958h7.013L8.369 5.962z"/>
    <path d="M13.327 10.92l4.959 4.958a6.99 6.99 0 002.053-4.959h-7.012z"/>
  </g>
  <path d="M22.98 20.572H3.676l-.52 1.08.52 1.08H22.98v-2.16z" fill="#9AD7FF"/>
  <g fill="#4EB9FF">
    <path d="M3.675 20.572H1.021v2.16h2.654v-2.16zM13.327 13.917a2.997 2.997 0 100-5.994 2.997 2.997 0 000 5.994z"/>
  </g>
  <path d="M13.327 12.109a1.189 1.189 0 100-2.377 1.189 1.189 0 000 2.377z" fill="#3B8BC0"/>
  <g fill="#01121C">
    <path d="M13.328 18.453a7.508 7.508 0 005.281-2.168.554.554 0 00.083-.083 7.508 7.508 0 002.168-5.282c0-4.154-3.379-7.533-7.532-7.533a7.508 7.508 0 00-5.28 2.165.519.519 0 00-.088.09 7.508 7.508 0 00-2.165 5.278c0 4.153 3.379 7.533 7.533 7.533zM8.386 6.715l2.115 2.114a3.5 3.5 0 00-.653 1.57H6.856a6.465 6.465 0 011.53-3.684zm4.942 6.682a2.48 2.48 0 01-2.478-2.477 2.48 2.48 0 012.478-2.477 2.48 2.48 0 012.477 2.477 2.48 2.48 0 01-2.477 2.477zM6.856 11.44h2.992a3.523 3.523 0 003.48 2.998 3.5 3.5 0 002.09-.691l2.115 2.114a6.463 6.463 0 01-4.206 1.55 6.5 6.5 0 01-6.47-5.97zM19.8 10.4h-1.005a.52.52 0 100 1.04h1.005a6.464 6.464 0 01-1.53 3.685l-2.115-2.114a3.5 3.5 0 00.653-1.57h.337a.52.52 0 000-1.041h-.337a3.523 3.523 0 00-3.48-2.998c-.782 0-1.506.257-2.09.691L9.121 5.98a6.463 6.463 0 014.206-1.55 6.5 6.5 0 016.47 5.97z"/>
    <path d="M13.327 9.21c-.942 0-1.709.767-1.709 1.71 0 .942.767 1.709 1.71 1.709.942 0 1.708-.767 1.708-1.71 0-.942-.766-1.708-1.709-1.708zm0 2.378a.67.67 0 11.002-1.338.67.67 0 01-.002 1.338z"/>
    <path d="M22.98.747H1.02a.52.52 0 00-.52.52v21.465c0 .288.233.52.52.52h21.96a.52.52 0 00.52-.52V1.268a.52.52 0 00-.52-.52zm-.52 19.305H4.195V1.788h18.263v18.264zM1.54 1.788h1.615v18.264H1.54V1.788zm0 19.305h1.615v1.119H1.54v-1.12zm20.92 1.119H4.195v-1.12h18.263v1.12z"/>
  </g>
</svg>
