<svg width="24" height="24" fill="none" xmlns="http://www.w3.org/2000/svg">
  <defs/>
  <path d="M8.837 20.93l.372-2.976v-.668h5.582v.668l.372 2.976v.563H8.837v-.563z" fill="#EDE9E8"/>
  <path d="M14.791 17.954v-.668h-.988v.668l.372 2.976v.563h.988v-.563l-.372-2.976z" fill="#DFD7D5"/>
  <path d="M.837 16.465c0 .822.666 1.489 1.488 1.489h19.35c.822 0 1.488-.667 1.488-1.489V3.07c0-.821-.666-1.488-1.489-1.488H2.325c-.822 0-1.488.667-1.488 1.488v13.396z" fill="#898989"/>
  <path d="M21.675 1.581h-.989c.823 0 1.489.667 1.489 1.488v13.396c0 .822-.666 1.489-1.489 1.489h.989c.822 0 1.488-.667 1.488-1.489V3.07c0-.821-.666-1.488-1.488-1.488z" fill="#727575"/>
  <path d="M21.675 1.581H2.325c-.822 0-1.488.667-1.488 1.488v11.908h22.326V3.069c0-.821-.666-1.488-1.488-1.488z" fill="#EDE9E8"/>
  <path d="M16.94 20.93H7.06a.27.27 0 00-.269.27v.95c0 .148.12.269.27.269h9.88a.27.27 0 00.269-.27V21.2a.27.27 0 00-.27-.27z" fill="#898989"/>
  <path d="M2.325 14.977V3.339c0-.149.12-.27.27-.27h18.81c.149 0 .27.121.27.27v11.638" fill="#AAEBF9"/>
  <path d="M21.405 3.07h-.988c.149 0 .27.12.27.27v11.637h.988V3.339a.27.27 0 00-.27-.27z" fill="#7BE2F6"/>
  <path d="M21.675 1.581h-.989c.823 0 1.489.667 1.489 1.488v11.908h.988V3.069c0-.821-.666-1.488-1.488-1.488z" fill="#DFD7D5"/>
  <path d="M16.94 20.93h-.988c.149 0 .27.121.27.27v.95a.27.27 0 01-.27.269h.988a.27.27 0 00.27-.27V21.2a.27.27 0 00-.27-.27z" fill="#727575"/>
  <path d="M13.489 9.023a1.488 1.488 0 11-2.977 0 1.488 1.488 0 012.976 0z" fill="#FABE2C"/>
  <path d="M12 7.535c-.173 0-.34.03-.494.084a1.489 1.489 0 010 2.808A1.488 1.488 0 1012 7.534z" fill="#FD9E28"/>
  <path d="M23.5 14.977V3.069a1.827 1.827 0 00-1.826-1.825H2.325A1.827 1.827 0 00.5 3.07v13.396c0 1.007.819 1.826 1.825 1.826h6.503l-.288 2.302H6.79a.337.337 0 00-.336.337v1.489c0 .186.15.337.337.337h10.418c.186 0 .337-.151.337-.337V20.93a.337.337 0 00-.337-.337H15.46l-.288-2.302h6.502a1.827 1.827 0 001.826-1.826V14.98v-.002zM2.325 1.918h19.35c.635 0 1.151.517 1.151 1.151V14.64h-.814V3.07a.337.337 0 00-.337-.337H2.325a.337.337 0 00-.337.337v11.57h-.814V3.07c0-.635.516-1.152 1.151-1.152zm14.548 20.164H7.128v-.815h9.745v.815zm-2.092-1.489H9.22l.288-2.302h1.412v1.151c0 .186.15.337.337.337h1.488c.186 0 .337-.15.337-.337v-1.151h1.412l.288 2.302zm-2.374-2.302v.814h-.814v-.814h.814zm9.267-.674H2.325a1.153 1.153 0 01-1.151-1.152v-1.151h3.179a.337.337 0 000-.674h-1.69V3.407h18.675V14.64H5.7a.337.337 0 100 .674h17.126v1.151c0 .635-.516 1.152-1.152 1.152z" fill="#000"/>
  <path d="M12 10.848a1.827 1.827 0 001.826-1.825A1.827 1.827 0 0012 7.198a1.827 1.827 0 00-1.825 1.825c0 1.007.819 1.825 1.825 1.825zm0-2.976a1.153 1.153 0 010 2.303 1.153 1.153 0 01-1.151-1.152c0-.635.516-1.151 1.151-1.151zM12 6.755c.186 0 .337-.15.337-.337V5.302a.337.337 0 10-.674 0v1.116c0 .187.15.337.337.337zM9.92 7.42a.337.337 0 00.477-.477l-.79-.79a.337.337 0 10-.476.477l.79.79zM8.28 9.36h1.116a.337.337 0 100-.674H8.279a.337.337 0 100 .674zM9.92 10.627l-.79.79a.337.337 0 10.477.475l.79-.789a.337.337 0 00-.477-.476zM12 11.29a.337.337 0 00-.337.338v1.116a.337.337 0 10.674 0v-1.116A.337.337 0 0012 11.29zM14.08 10.627a.337.337 0 00-.476.476l.79.79a.336.336 0 00.476 0 .337.337 0 000-.477l-.79-.79zM14.268 9.023c0 .186.15.337.336.337h1.117a.337.337 0 100-.674h-1.117a.337.337 0 00-.336.337zM13.842 7.518a.337.337 0 00.238-.098l.79-.79a.337.337 0 10-.477-.476l-.79.79a.337.337 0 00.239.574z" fill="#000"/>
</svg>
