<svg width="24" height="24" fill="none" xmlns="http://www.w3.org/2000/svg">
  <defs/>
  <path d="M6.906 20.445H20.97a.616.616 0 00.614-.614v-8.435a.616.616 0 00-.614-.614H6.906a.616.616 0 00-.614.614v8.434c0 .338.276.615.614.615z" fill="#FFEFCA"/>
  <path d="M5.474 19.97h17.08c.337 0 .614.276.614.613v1.572a.616.616 0 01-.614.614H5.474a.616.616 0 01-.614-.614v-1.572c0-.337.277-.614.614-.614z" fill="#FCC973"/>
  <path d="M19.198 12.671h-1.292c-.026 0-2.65-.012-4.393-.012-.476 0-.848 0-1.107.002-.221.002-.36.003-.454.01H8.725a.353.353 0 00-.358.348v4.673c0 .192.16.348.358.348h10.474a.353.353 0 00.358-.348v-4.673a.353.353 0 00-.358-.348z" fill="#fff"/>
  <path d="M16.242 13.328l.014-10.762a1.18 1.18 0 00-1.177-1.177H2.218A1.18 1.18 0 001.04 2.566v7.475c0 .647.53 1.177 1.177 1.177l11.047-.016s1.982 1.905 2.977 2.126z" fill="#6BE8C7"/>
  <g fill="#fff">
    <path d="M4.704 6.763H3.058v2.195h1.646V6.763zM11.008 5.484H9.36V8.96h1.647V5.484zM7.79 3.574H6.146V8.96H7.79V3.574zM14.255 7.723h-1.647V8.96h1.647V7.723z"/>
  </g>
  <path d="M21.577 19.974v-.94H6.285v.94s15.292-.02 15.292 0z" fill="#FFDFA1"/>
  <path d="M18.2 11.065h2.795c.124 0 .23.105.23.23v7.039a.384.384 0 10.767 0v-7.039a1 1 0 00-.997-.998h-2.796a.384.384 0 100 .768zM5.933 12.851v5.483a.384.384 0 00.767 0v-5.482a.384.384 0 10-.767 0zM22.502 19.534H5.422a1 1 0 00-.997.998v1.572a1 1 0 00.998.998h17.079a1 1 0 00.998-.998v-1.572a1 1 0 00-.998-.998zm-13.978.768v2.032h-1.22v-2.032h1.22zm-3.332 1.802v-1.572c0-.125.106-.23.23-.23h1.115v2.032H5.423a.233.233 0 01-.23-.23zm17.54 0c0 .125-.105.23-.23.23H9.292v-2.032h13.21c.125 0 .23.105.23.23v1.572z" fill="#000"/>
  <path d="M19.774 20.986h-1.428a.384.384 0 100 .767h1.428a.384.384 0 100-.767zM18.2 13.185h1.004v4.386H8.734v-4.386h3.086a.384.384 0 100-.768H8.35a.384.384 0 00-.384.384v5.154c0 .212.172.384.384.384h11.238a.384.384 0 00.384-.384V12.8a.384.384 0 00-.384-.383h-1.389a.384.384 0 100 .767z" fill="#000"/>
  <path d="M16.206 13.755a.386.386 0 00.467-.374l.013-10.907c0-.869-.707-1.576-1.576-1.576H2.076C1.207.898.5 1.605.5 2.474v7.575c0 .87.707 1.577 1.577 1.577l11.042-.016c.475.446 2.113 1.928 3.087 2.145zm-14.13-2.897a.81.81 0 01-.808-.809V2.474a.81.81 0 01.808-.809H15.11a.81.81 0 01.808.808l-.012 10.34c-.8-.438-1.927-1.44-2.369-1.864a.384.384 0 00-.265-.107l-11.196.016z" fill="#000"/>
  <path d="M4.55 6.328H2.905a.384.384 0 00-.383.384v2.195c0 .212.171.384.383.384h1.647a.384.384 0 00.383-.384V6.712a.384.384 0 00-.383-.384zm-.383 2.195h-.879V7.096h.879v1.427zM10.957 5.05H9.31a.384.384 0 00-.384.383v3.474c0 .212.172.384.384.384h1.646a.384.384 0 00.384-.384V5.433a.384.384 0 00-.384-.384zm-.384 3.474h-.879V5.817h.88v2.707zM7.74 3.139H6.094a.384.384 0 00-.384.384v5.384c0 .212.172.384.384.384H7.74a.384.384 0 00.384-.384V3.523a.384.384 0 00-.384-.384zm-.384 5.385h-.878V3.907h.878v4.617zM14.69 8.907V7.672a.384.384 0 00-.384-.384H12.66a.384.384 0 00-.384.384v1.235c0 .212.172.384.384.384h1.646a.384.384 0 00.384-.384zm-.767-.383h-.88v-.468h.88v.468z" fill="#000"/>
</svg>
