<svg width="24" height="24" fill="none" xmlns="http://www.w3.org/2000/svg">
  <defs/>
  <path d="M11.256 5.531V3.34c0-.149.12-.27.27-.27h.949c.149 0 .27.121.27.27v2.192h-1.49z" fill="#FFD151"/>
  <path d="M12.475 3.07h-.899c.149 0 .27.12.27.269v2.192h.898V3.34a.27.27 0 00-.27-.27z" fill="#F79B4A"/>
  <path d="M12 23.163a8.93 8.93 0 100-17.861 8.93 8.93 0 000 17.861z" fill="#58565C"/>
  <path d="M12 21.303a7.07 7.07 0 100-14.14 7.07 7.07 0 000 14.14z" fill="#B6E3EE"/>
  <path d="M12 7.163c-.15 0-.3.005-.45.014a7.07 7.07 0 010 14.111A7.07 7.07 0 1012 7.163z" fill="#96D2E0"/>
  <path d="M13.357 14.847l1.049-2.67a.27.27 0 00-.35-.35l-2.67 1.05 1.97 1.97z" fill="#FF2551"/>
  <path d="M12.614 15.589l-2.669 1.049a.27.27 0 01-.35-.35l1.05-2.67 1.97 1.97z" fill="#00BCE7"/>
  <path d="M12 15.72a1.488 1.488 0 100-2.976 1.488 1.488 0 000 2.977z" fill="#FFD151"/>
  <path d="M13.052 13.18a1.488 1.488 0 00-1.501-.366 1.488 1.488 0 010 2.838 1.488 1.488 0 001.501-2.472z" fill="#F79B4A"/>
  <path d="M12 5.302c-.15 0-.3.004-.45.011a8.93 8.93 0 010 17.839A8.93 8.93 0 1012 5.302z" fill="#49484D"/>
  <g fill="#000">
    <path d="M13.081 5.029V4.61a2.198 2.198 0 10-2.162 0v.418c-4.603.537-8.187 4.46-8.187 9.204 0 5.11 4.158 9.267 9.268 9.267s9.267-4.157 9.267-9.267c0-4.745-3.584-8.667-8.186-9.204zm-.674-1.18h-.815v-.443h.815v.443zM12 1.174A1.525 1.525 0 0113.08 3.77v-.7a.337.337 0 00-.337-.337h-1.488a.337.337 0 00-.337.336v.701a1.524 1.524 0 011.08-2.596zm-.408 3.349h.815v.452a9.362 9.362 0 00-.815 0v-.452zM12 22.826c-4.739 0-8.594-3.855-8.594-8.593 0-4.739 3.855-8.594 8.594-8.594 4.738 0 8.593 3.855 8.593 8.594 0 4.738-3.855 8.593-8.593 8.593z"/>
    <path d="M12 6.826a7.39 7.39 0 00-4.968 1.913.337.337 0 10.452.5A6.718 6.718 0 0112 7.498a6.74 6.74 0 016.733 6.734A6.74 6.74 0 0112 20.966a6.74 6.74 0 01-6.733-6.733c0-1.487.475-2.897 1.373-4.077a.337.337 0 00-.536-.408 7.34 7.34 0 00-1.511 4.485c0 4.084 3.322 7.407 7.407 7.407 4.084 0 7.406-3.323 7.406-7.407 0-4.085-3.322-7.407-7.406-7.407z"/>
    <path d="M11.593 9.767v-.675l.913.913a.337.337 0 00.575-.238V8.28a.337.337 0 10-.674 0v.675l-.913-.913a.337.337 0 00-.575.238v1.488a.337.337 0 00.674 0z"/>
    <path d="M9.993 9.06a5.538 5.538 0 00-2.547 2.005 5.507 5.507 0 00-.982 2.83h-.418a.337.337 0 000 .675h.418a5.554 5.554 0 005.199 5.198v.418a.337.337 0 10.673 0v-.418a5.554 5.554 0 005.2-5.198h.417a.337.337 0 000-.674h-.418c-.061-1.024-.4-2-.99-2.843A5.536 5.536 0 0013.98 9.05a.337.337 0 00-.24.63 4.902 4.902 0 013.132 4.553 4.878 4.878 0 01-4.873 4.872 4.878 4.878 0 01-4.872-4.872c0-2.027 1.22-3.81 3.11-4.544a.337.337 0 10-.244-.628z"/>
    <path d="M10.338 13.48l-.007.015-.003.008a1.82 1.82 0 00-.052.131l-1.22 3.107a.337.337 0 00.436.436l3.095-1.216a1.818 1.818 0 001.079-.983l.004-.008.004-.011c.018-.042.035-.083.05-.126l1.22-3.108a.337.337 0 00-.436-.437l-3.092 1.215a1.816 1.816 0 00-1.078.977zm.615.275a1.147 1.147 0 01.56-.566l.13-.052a1.155 1.155 0 011.171.281c.32.32.412.783.276 1.185l-.04.103a1.144 1.144 0 01-.566.572l-.123.048a1.153 1.153 0 01-1.452-1.461l.044-.11zm-.541 1.376a1.819 1.819 0 00.689.69l-1.136.446.447-1.136zm3.177-1.797a1.821 1.821 0 00-.69-.69l1.136-.446-.446 1.136z"/>
  </g>
</svg>
