<svg width="24" height="24" fill="none" xmlns="http://www.w3.org/2000/svg">
  <defs/>
  <path d="M12 17.24a5.24 5.24 0 100-10.48 5.24 5.24 0 000 10.48z" fill="#3B8BC0"/>
  <path d="M22.98 11.48h-5.244a5.734 5.734 0 00-1.314-3.166l.733-.733a.52.52 0 00-.736-.736l-.733.733a5.734 5.734 0 00-3.166-1.314V1.02a.52.52 0 00-1.04 0v5.244a5.734 5.734 0 00-3.166 1.314l-.733-.733a.52.52 0 00-.736.736l.733.733a5.734 5.734 0 00-1.314 3.166H1.02a.52.52 0 000 1.04h5.244a5.734 5.734 0 001.314 3.166l-.733.733a.52.52 0 00.736.736l.733-.733a5.734 5.734 0 003.166 1.314v5.244a.52.52 0 001.04 0v-5.244a5.735 5.735 0 003.166-1.314l.733.733a.52.52 0 10.736-.736l-.733-.733a5.734 5.734 0 001.314-3.166h5.244a.52.52 0 100-1.04zm-6.29 0h-3.434l2.427-2.427c.545.68.907 1.515 1.007 2.427zm-1.743-3.163l-2.427 2.427V7.31c.912.1 1.746.462 2.427 1.007zM11.48 7.31v3.434L9.053 8.317A4.696 4.696 0 0111.48 7.31zM8.317 9.053l2.427 2.427H7.31c.1-.912.462-1.746 1.007-2.427zM7.31 12.52h3.434l-2.427 2.427A4.697 4.697 0 017.31 12.52zm1.743 3.163l2.427-2.427v3.434a4.697 4.697 0 01-2.427-1.007zm3.467 1.007v-3.434l2.427 2.427a4.696 4.696 0 01-2.427 1.007zm3.163-1.743l-2.427-2.427h3.434a4.697 4.697 0 01-1.007 2.427z" fill="#01121C"/>
</svg>
