<svg width="24" height="24" fill="none" xmlns="http://www.w3.org/2000/svg">
  <defs/>
  <path d="M16.182 13.443l-5.625-5.626c-.2-.2-.2-.526 0-.727l.72-.72c.2-.2.526-.2.726 0l5.626 5.626c.2.201.2.526 0 .727l-.72.72c-.2.2-.526.2-.727 0z" fill="#5A67AD"/>
  <path d="M17.629 11.996l-1.735-1.734c.2.2.2.525 0 .726l-.72.72c-.2.2-.526.2-.726 0l-3.891-3.891 5.625 5.626c.201.2.527.2.727 0l.72-.72c.2-.2.2-.526 0-.727z" fill="#465087"/>
  <path d="M17.936 3.977l-4.43 3.897 2.62 2.62 6.737-7.659a1.203 1.203 0 00-1.698-1.698L18.831 3.19" fill="#FFF3CF"/>
  <path d="M13.507 7.874l2.619 2.62 6.737-7.659a1.203 1.203 0 00-1.698-1.698l-7.658 6.737z" fill="#FFF3CF"/>
  <path d="M22.81 1.19a1.198 1.198 0 00-.493-.299c.12.389.04.827-.246 1.152l-6.737 7.658.792.792 6.737-7.658a1.203 1.203 0 00-.052-1.646z" fill="#E3D8B8"/>
  <path d="M8.482 23.099a7.6 7.6 0 01-1.349.055 3.352 3.352 0 01-2.2-.985l-3.102-3.103a3.353 3.353 0 01-.985-2.2c-.108-2.172.744-4.482 2.517-6.255 2.17-2.17 5.147-2.96 7.689-2.3l4.637 4.637c.66 2.542-.13 5.519-2.3 7.69a8.702 8.702 0 01-3.381 2.11s-.825.258-1.526.35z" fill="#7E8CC6"/>
  <path d="M15.688 12.948l-1.626-1.625c.662 2.541-.128 5.518-2.299 7.688a8.698 8.698 0 01-3.381 2.11l-1.526.352a7.593 7.593 0 01-1.349.055 3.353 3.353 0 01-2.2-.984l1.626 1.625c.588.588 1.37.944 2.2.985.446.022.897.003 1.349-.055l1.525-.351a8.702 8.702 0 003.382-2.111c2.17-2.17 2.96-5.147 2.3-7.689z" fill="#6671A1"/>
  <path d="M23.049.95a1.543 1.543 0 00-2.106-.068L18.61 2.936a.336.336 0 00.444.504l2.334-2.053a.87.87 0 011.186.038c.323.322.34.843.038 1.186l-6.5 7.39-2.113-2.113 3.777-3.323a.336.336 0 00-.444-.504l-3.809 3.35-1.28-1.28a.849.849 0 00-1.202 0l-.72.72a.834.834 0 00-.168.951c-5.084-.61-9.898 3.91-9.641 9.079a3.68 3.68 0 001.082 2.42l3.104 3.104c1.056 1.056 2.337 1.218 3.829 1.025a.336.336 0 00-.086-.667c-1.274.165-2.363.072-3.268-.834l-3.103-3.102a3.009 3.009 0 01-.887-1.98c-.251-5.062 4.813-9.436 9.698-8.235l4.506 4.506c.92 3.742-1.467 7.791-5.188 9.203a.336.336 0 00.238.628c3.716-1.41 6.222-5.258 5.76-9.105a.833.833 0 00.951-.166l.72-.72a.85.85 0 000-1.201l-1.28-1.28 6.529-7.422A1.543 1.543 0 0023.049.95zm-5.657 11.533c-.735.71-.716.772-.845.772-.127 0-.132-.08-.62-.546-5.465-5.465-5.184-5.143-5.184-5.257 0-.13.06-.11.772-.846.07-.07.182-.07.251 0l5.626 5.626c.07.07.07.182 0 .251z" fill="#000"/>
</svg>
