<svg width="24" height="24" fill="none" xmlns="http://www.w3.org/2000/svg">
  <defs/>
  <g fill-rule="evenodd" clip-rule="evenodd">
    <path d="M19.906 16.393c-.316-1.341-1.365-1.97-2.683-2.202a7.44 7.44 0 00-.942-.101 1.504 1.504 0 01-.606-.137c-.947 1.793-5.271 1.667-5.993 0v-.013a1.494 1.494 0 01-.634.15 7.531 7.531 0 00-.915.096c-1.28.22-2.311.81-2.671 2.058.556.534 5.07 4.604 5.105 4.828h9.477V18.79c0-.243.11-.463.284-.61l-.422-1.787z" fill="#64B0D9"/>
    <path d="M9.048 14.09a7.492 7.492 0 00-.915.096v2.058l.688.618.86-.617V13.94a1.494 1.494 0 01-.633.15zM8.066 20.51H9.91c.33 0 .607.245.656.562h7.886l-.604-3.498c-.056-.34-.28-.627-.625-.627V14.19a7.436 7.436 0 00-.942-.101 1.504 1.504 0 01-.607-.137v2.994h-4.735c.01.076-2.32 3.336-2.873 3.563z" fill="#E6E6E6"/>
    <path d="M14.934 13.154l-2.157-.68-2.375.667-.006.012c-.159.336-.383.62-.714.787v.013c.721 1.667 5.046 1.793 5.992 0-.347-.165-.567-.462-.74-.799z" fill="#FCC368"/>
    <path d="M15.257 6.661a17.49 17.49 0 00-6.688.292v3.305c0 1.17.853 2.203 1.833 2.883.8.558 1.687.879 2.258.848.722-.04 1.55-.342 2.273-.835 1.029-.702 1.844-1.792 1.844-3.073v-3.13a18.613 18.613 0 00-1.52-.29z" fill="#FFDDA6"/>
    <path d="M12.78 1.47c-.791.002-1.625.407-2.039 1.215H9.63c-1.607 0-2.564 1.767-1.06 2.704v2.458a17.496 17.496 0 016.688-.292c.508.076 1.015.172 1.52.292V5.389c1.505-.937.589-2.704-1.018-2.704h-1.196c-.234-.808-.977-1.213-1.768-1.216h-.015z" fill="#E6E6E6"/>
    <path d="M16.777 5.389c1.504-.937.589-2.704-1.018-2.704h-.939c1.442 0 2.332 1.289 1.412 2.259-.295.31-.388.15-.388.584l-.004 2.123c.313.057.625.122.937.196V5.389z" fill="#C2C7CC"/>
    <path d="M16.777 9.49a2.289 2.289 0 01-.937-.425v.821c0 1.28-.817 2.372-1.845 3.073-.723.494-1.551.795-2.273.835-.026.002-.051.003-.077.003.382.138.737.208 1.015.192.722-.04 1.55-.342 2.274-.835 1.028-.702 1.843-1.792 1.843-3.073v-.59z" fill="#FCC368"/>
    <path d="M15.675 13.953c-.348-.165-.568-.462-.741-.799-.426.29-.89.515-1.344.658.209.404.381.59.985.876.072.034.15.063.234.085.38-.204.684-.478.866-.82z" fill="#EDA93B"/>
    <path d="M19.905 16.393c-.316-1.341-1.365-1.97-2.683-2.202a7.438 7.438 0 00-.942-.101 1.503 1.503 0 01-.606-.137c-.181.342-.486.616-.865.82.112.03.235.048.372.052.167.009.33.02.493.038.153.016.302.037.45.063.393.07.764.175 1.098.324.782.35 1.363.939 1.585 1.88.319 1.355.44 2.551.44 3.942h.796V18.79c0-.243.11-.463.284-.61l-.422-1.787z" fill="#4A83C9"/>
    <path d="M17.223 14.191a7.437 7.437 0 00-.943-.101 1.504 1.504 0 01-.606-.137v.91c.153.016.302.037.45.063.393.07.764.175 1.099.324V14.19z" fill="#C2C7CC"/>
    <path d="M22.88 19.41c0-.78-.639-1.419-1.419-1.419h-.62a.799.799 0 00-.798.799v2.567c0 .44.36.8.798.8h.62c.78 0 1.419-.64 1.419-1.42v-1.326z" fill="#FFDDA6"/>
    <path d="M22.183 7.645H20.74a.981.981 0 00-.977.979v2.956c0 .538.44.978.977.978h1.442c.302 0 .573-.14.753-.357a.976.976 0 00.224-.621V8.624a.973.973 0 00-.224-.62.977.977 0 00-.753-.359z" fill="#E6E6E6"/>
    <path d="M17.849 17.574c-.057-.34-.282-.627-.626-.627h-.902l.739 4.125h1.393l-.604-3.498z" fill="#C2C7CC"/>
    <path d="M22.88 19.41c0-.78-.638-1.419-1.418-1.419h-.62a.788.788 0 00-.238.037 1.425 1.425 0 011.098 1.383v1.326c0 .67-.472 1.236-1.099 1.383a.828.828 0 00.239.037h.62c.78 0 1.419-.64 1.419-1.42V19.41zM13.44 16.947a.812.812 0 00-.802-.703h-1.36c-.477 0-.558.45-.66.913-.053.23.99.49.907.706h1.113a.81.81 0 00.802-.916zM3.007 16.244h-1.36a.812.812 0 00-.808.81.81.81 0 00.808.81h1.11l1.055-1.002-.805-.617z" fill="#FCC368"/>
    <path d="M9.681 16.244H3.007c-.477 0-.55.485-.448.949.052.233.119.456.199.67A4.517 4.517 0 005.36 20.51l1.542.963 2.058-.963a4.67 4.67 0 002.766-3.317c.102-.464.03-.949-.449-.949H9.681z" fill="#F78411"/>
    <path d="M8.96 20.51H3.735c-.366 0-.664.3-.664.664v.694c0 .365.298.664.664.664h7.07c.365 0 .664-.3.664-.664v-.694a.666.666 0 00-.664-.664H8.962z" fill="gray"/>
    <path d="M11.278 16.244H9.894c.477 0 .55.485.448.949a4.738 4.738 0 01-1.305 2.351 4.595 4.595 0 01-1.462.966h1.386a4.54 4.54 0 00.709-.369 4.704 4.704 0 002.057-2.948 1.51 1.51 0 00.037-.246c.027-.374-.092-.703-.486-.703z" fill="#F74311"/>
    <path d="M11.46 21.072a.666.666 0 00-.655-.562H9.419a.667.667 0 01.664.664v.694a.666.666 0 01-.664.664h1.386c.364 0 .663-.3.663-.664v-.694a.572.572 0 00-.009-.102z" fill="#666"/>
    <path d="M22.936 8.004a.976.976 0 00-.753-.359h-1.327c.537 0 .978.441.978.979v2.956c0 .538-.44.978-.978.978h1.326c.303 0 .574-.14.754-.357a.976.976 0 00.224-.621V8.624a.973.973 0 00-.224-.62z" fill="#C2C7CC"/>
    <path d="M16.777 7.847a18.637 18.637 0 00-1.52-.292c-.178 1.61 1.418 1.918 1.52 1.936V7.847zM10.075 7.555c-.501.076-1.003.172-1.506.292v1.641c.22-.043 1.676-.395 1.506-1.933z" fill="gray"/>
    <path d="M16.777 7.847a18.59 18.59 0 00-.937-.196v1.414c.408.324.884.416.937.426V7.847z" fill="#666"/>
  </g>
  <path d="M3.75 13.445a.34.34 0 00.474.487c.678-.662.4-1.206.216-1.566-.173-.338-.244-.478.12-.82a.34.34 0 00-.465-.495c-.736.692-.45 1.253-.26 1.624.166.324.235.458-.085.77zM5.629 11.625a.34.34 0 00.474.487c.679-.662.4-1.207.215-1.567-.173-.338-.244-.477.12-.82a.34.34 0 10-.466-.494c-.735.692-.448 1.253-.258 1.624.166.324.235.458-.085.77zM10.618 9.701a.338.338 0 00.242-.102c.11-.098.605-.097.714.001a.34.34 0 10.482-.478c-.246-.247-.665-.275-.842-.275h-.007c-.17 0-.59.029-.832.277a.34.34 0 00.243.577zM13.367 9.701a.337.337 0 00.242-.102c.11-.098.605-.097.714.001a.34.34 0 00.482-.478c-.246-.247-.665-.275-.842-.275h-.007c-.17 0-.59.029-.832.277a.34.34 0 00.243.577zM12.624 5.538a.34.34 0 00.34-.34V3.64a.34.34 0 00-.68 0v1.56c0 .187.152.339.34.339zM10.319 4.004a.34.34 0 00-.34.34v1.558a.34.34 0 00.68 0V4.344a.34.34 0 00-.34-.34zM14.928 6.241a.34.34 0 00.34-.34V4.345a.34.34 0 00-.68 0v1.558c0 .187.153.34.34.34z" fill="#000"/>
  <path d="M22.183 12.898a1.32 1.32 0 001.317-1.319V8.623a1.32 1.32 0 00-1.317-1.318h-1.441a1.32 1.32 0 00-1.317 1.318v2.956c0 .727.59 1.319 1.317 1.319h.38v4.754h-.28c-.098 0-.192.012-.282.035l-.324-1.372c-.376-1.596-1.701-2.459-3.939-2.565h-.005a1.166 1.166 0 01-.47-.103l-.015-.008a1.117 1.117 0 01-.425-.392c.072-.056.144-.113.213-.172.982-.838 1.522-1.901 1.522-2.994V7.896a.33.33 0 000-.1V5.569c.636-.466.898-1.132.703-1.813-.237-.83-1.084-1.41-2.06-1.41h-.958c-.295-.681-.938-1.125-1.764-1.204-1.003-.096-1.978.383-2.493 1.204H9.63c-.99 0-1.85.589-2.091 1.431-.193.674.065 1.332.691 1.792v4.689c0 1.145.698 2.046 1.283 2.6.14.132.288.258.443.378a1.126 1.126 0 01-.435.406h-.002a1.159 1.159 0 01-.482.109h-.004c-.344.017-.666.05-.966.103h-.004c-1.477.257-2.432.944-2.846 2.052h-3.57a1.15 1.15 0 000 2.298h.883c.34.789.864 1.46 1.535 1.967h-.33c-.554 0-1.003.45-1.003 1.004v.693c0 .554.45 1.004 1.003 1.004h1.988a.34.34 0 100-.679H3.735a.325.325 0 01-.325-.325v-.693c0-.18.146-.325.325-.325h7.07a.325.325 0 01.324.325v.693c0 .18-.145.325-.324.325H7.269a.34.34 0 000 .68h3.536c.553 0 1.003-.451 1.003-1.005v-.456h7.898a1.14 1.14 0 001.136 1.085h.62c.97 0 1.758-.79 1.758-1.76v-1.325c0-.854-.61-1.568-1.418-1.726v-4.787h.38zm-2.608 3.573l.38 1.607c-.157.195-.25.443-.25.712v1.942h-.966l-.555-3.214c-.069-.41-.304-.718-.621-.846v-2.064c1.124.288 1.786.903 2.012 1.863zm-2.691-1.99v2.126h-.87v-2.202c.08.012.164.02.253.023.217.01.422.029.617.054zm-3.187 2.126a1.15 1.15 0 00-1.058-.702H10.02V14.87c.648.473 1.587.684 2.41.716.072.002.145.004.22.004.896 0 1.955-.206 2.684-.75v1.767h-1.638zm-1.638.659c.055-.253.063-.484.024-.682h.556a.47.47 0 010 .94h-.645a5.11 5.11 0 00.065-.258zm4.38-9.148v.915c-.342-.148-.78-.457-.846-1.08.282.048.564.103.845.165zM9.74 7.954c-.065.608-.489.918-.83 1.07v-.907c.276-.061.553-.116.83-.163zm-.83 2.303v-.509c.21-.068.497-.19.766-.397.347-.268.736-.738.752-1.502a17.033 17.033 0 011.53-.133.34.34 0 10-.028-.678c-.624.026-1.254.086-1.883.179h-.009a18.514 18.514 0 00-1.13.205V5.388A.34.34 0 008.75 5.1c-.483-.3-.681-.705-.557-1.137.133-.467.67-.939 1.438-.939h1.112a.34.34 0 00.302-.185c.407-.794 1.262-1.086 1.929-1.022.634.06 1.107.42 1.265.962a.34.34 0 00.326.245h1.195c.788 0 1.282.476 1.408.918.124.434-.083.856-.569 1.158a.34.34 0 00-.16.288v2.034a19.083 19.083 0 00-1.143-.205h-.013a18.369 18.369 0 00-1.711-.171.34.34 0 00-.035.678c.454.023.911.066 1.37.126.015.797.434 1.276.808 1.545.26.187.528.296.724.358v.328c0 .89-.456 1.77-1.283 2.478-.736.627-1.7 1.046-2.513 1.091l-.062.002c-.476 0-1.244-.277-1.967-.777a5.33 5.33 0 01-.633-.512c-.489-.462-1.07-1.203-1.07-2.106zm3.67 4.074c.034 0 .067-.001.1-.003.695-.039 1.452-.291 2.14-.7.1.147.223.294.379.42-.554.642-1.729.898-2.742.86-1.052-.041-1.938-.377-2.324-.861.157-.129.281-.277.382-.426.714.439 1.477.71 2.065.71zm-3.518.098c.1-.004.192-.014.28-.029v1.505h-.87v-1.427a7.9 7.9 0 01.59-.05zm-1.269.173v1.303H5.958c.328-.647.935-1.079 1.835-1.303zm-6.146 2.921a.47.47 0 010-.94h.557c-.04.199-.032.43.024.683.02.087.041.173.064.258h-.645zm3.78 2.647c-1.3-.532-2.222-1.64-2.536-3.05-.058-.26-.03-.445.019-.507.007-.009.023-.03.098-.03H11.279c.075 0 .091.021.098.03.05.061.076.246.019.506a4.334 4.334 0 01-2.504 3.051H5.428zm6.278.562a1.004 1.004 0 00-.9-.562h-.585a5.024 5.024 0 001.533-1.968h.886a1.15 1.15 0 001.125-.916h3.46c.226 0 .284.309.29.346l.536 3.1h-6.345zm10.836-1.321v1.326a1.08 1.08 0 01-1.079 1.08h-.62a.46.46 0 01-.459-.46V18.79a.458.458 0 01.459-.46h.62a1.08 1.08 0 011.08 1.08zm-2.438-7.832V8.623a.64.64 0 01.639-.639h1.44a.64.64 0 01.64.64v2.955a.64.64 0 01-.64.64h-1.44a.64.64 0 01-.639-.64z" fill="#000"/>
</svg>
