<svg width="24" height="24" fill="none" xmlns="http://www.w3.org/2000/svg">
  <defs/>
  <path d="M23.132 4.718v14.564c0 .666-.54 1.205-1.205 1.205h-19.8c-.666 0-1.205-.54-1.205-1.204V4.717c0-.666.54-1.205 1.205-1.205h19.8c.666 0 1.205.539 1.205 1.205z" fill="#CFDCE5"/>
  <path d="M8.975 18.634a6.634 6.634 0 100-13.268 6.634 6.634 0 000 13.268z" fill="#415E72"/>
  <g fill="#FF6F52">
    <path d="M14.295 11.927a2.147 2.147 0 01-3.018 1.962L9.88 13.27a1.557 1.557 0 00.652-1.343h3.763zM9.048 13.558v3.763a2.148 2.148 0 01-1.963-3.017l.619-1.399a1.557 1.557 0 001.344.653zM8.07 10.73a1.556 1.556 0 00-.654 1.344H3.653a2.147 2.147 0 013.017-1.963l1.399.619zM8.9 10.443V6.68a2.147 2.147 0 011.963 3.017l-.619 1.398a1.556 1.556 0 00-1.344-.652z"/>
    <path d="M8.9 10.443c.025-.002.05-.002.074-.002a1.556 1.556 0 011.56 1.56c0 .524-.259.987-.654 1.27a1.541 1.541 0 01-.906.29A1.557 1.557 0 017.414 12 1.556 1.556 0 018.9 10.443z"/>
  </g>
  <path d="M4.261 7.287a.395.395 0 00-.557.032A7.018 7.018 0 001.918 12a7.037 7.037 0 007.029 7.029 7.037 7.037 0 007.029-7.03 7.037 7.037 0 00-7.03-7.028 6.981 6.981 0 00-4.083 1.307.395.395 0 10.46.643 6.196 6.196 0 013.624-1.16c3.44 0 6.24 2.799 6.24 6.239s-2.8 6.24-6.24 6.24A6.247 6.247 0 012.707 12c0-1.536.563-3.011 1.586-4.155a.395.395 0 00-.032-.558z" fill="#000"/>
  <path d="M21.9 3.118H2.1c-.882 0-1.6.717-1.6 1.6v14.565c0 .882.718 1.6 1.6 1.6h17.153a.395.395 0 000-.79H2.1a.81.81 0 01-.81-.81V4.717a.81.81 0 01.81-.81h19.8c.447 0 .81.364.81.81v14.566a.81.81 0 01-.81.81h-1.278a.395.395 0 000 .79H21.9c.882 0 1.6-.718 1.6-1.6V4.717c0-.882-.718-1.6-1.6-1.6z" fill="#000"/>
  <path d="M11.197 9.856c.35-.79.277-1.693-.194-2.416a2.533 2.533 0 00-2.13-1.156.395.395 0 00-.395.395v3.423c-.164.041-.321.103-.467.182L6.803 9.75a2.533 2.533 0 00-2.416.194 2.534 2.534 0 00-1.156 2.13c0 .219.177.396.395.396H7.05c.04.164.102.321.181.467l-.534 1.207c-.35.79-.278 1.693.193 2.417a2.533 2.533 0 002.13 1.155.395.395 0 00.395-.394v-3.423c.166-.041.323-.103.469-.183l1.206.535a2.536 2.536 0 002.416-.193 2.533 2.533 0 001.156-2.131.395.395 0 00-.395-.395h-3.422a1.94 1.94 0 00-.183-.467l.535-1.208zM7.782 12c0-.642.523-1.165 1.165-1.165s1.165.523 1.165 1.165c0 .643-.523 1.165-1.165 1.165A1.166 1.166 0 017.782 12zm2.56-4.13c.324.5.374 1.122.133 1.666l-.388.877a1.943 1.943 0 00-.82-.34V7.117c.438.1.823.366 1.075.752zm-5.524 2.735a1.746 1.746 0 011.666-.134l.877.389a1.944 1.944 0 00-.342.82H4.066c.1-.438.366-.824.752-1.075zm2.734 5.524a1.747 1.747 0 01-.133-1.666l.388-.877c.238.172.517.292.819.342v2.953a1.746 1.746 0 01-1.074-.752zm5.524-2.734a1.745 1.745 0 01-1.666.133l-.876-.389c.171-.238.29-.517.341-.819h2.953c-.1.438-.366.824-.752 1.075zM21.289 5.599h-3.545a.395.395 0 000 .79h3.545a.395.395 0 000-.79zM17.744 9.441h3.545a.395.395 0 000-.79h-3.545a.395.395 0 000 .79zM21.288 7.125h-.49a.395.395 0 000 .79h.49a.395.395 0 000-.79zM17.744 7.915h1.737a.395.395 0 000-.79h-1.737a.395.395 0 000 .79z" fill="#000"/>
</svg>
