<svg width="24" height="24" fill="none" xmlns="http://www.w3.org/2000/svg">
  <defs/>
  <path d="M21.19.837H11.01a.764.764 0 00-.763.764v2.685l2.638 16.757h6.431l2.638-16.757V1.601a.764.764 0 00-.763-.764z" fill="#FFD3D5"/>
  <path d="M21.19.837h-2.586c.422 0 .764.342.764.764v2.685L16.73 21.043h2.585l2.638-16.757V1.601a.764.764 0 00-.763-.764z" fill="#FDB1B9"/>
  <path d="M19.44 23.163h-6.68a.68.68 0 01-.68-.68v-3.626a.68.68 0 01.68-.68h6.68a.68.68 0 01.68.68v3.626a.68.68 0 01-.68.68z" fill="#FC8186"/>
  <path d="M19.44 18.177H18.17v2.354a.68.68 0 01-.68.68H12.08v1.272c0 .376.305.68.68.68h6.68a.68.68 0 00.68-.68v-3.626a.68.68 0 00-.68-.68z" fill="#FB4753"/>
  <path d="M2.85 11.752a.802.802 0 00-.758 1.067c.735 2.055 2.181 4.123 3.845 4.123 1.664 0 3.11-2.068 3.845-4.123a.802.802 0 00-.759-1.067H2.85z" fill="#FDB143"/>
  <path d="M9.023 11.752H7.114c.553 0 .945.547.76 1.067-.591 1.65-1.64 3.308-2.892 3.898.308.144.627.225.955.225 1.664 0 3.11-2.068 3.845-4.123a.802.802 0 00-.759-1.067z" fill="#FCA514"/>
  <path d="M6.88 23.163H4.994a.965.965 0 01-.966-.965V16.02h3.818v6.178a.966.966 0 01-.966.965z" fill="#A5E4EF"/>
  <path d="M6.388 16.02v4.83a.965.965 0 01-.965.966H4.028v.382c0 .533.433.965.966.965H6.88a.965.965 0 00.966-.965V16.02H6.388z" fill="#67D8E4"/>
  <path d="M16.012 10.457a1.99 1.99 0 100-3.982 1.99 1.99 0 000 3.982z" fill="#FDB1B9"/>
  <path d="M16.012 6.475c-.107 0-.212.01-.315.025a1.991 1.991 0 010 3.932 1.99 1.99 0 10.314-3.957z" fill="#FC8086"/>
  <path d="M21.19.837H11.01a.764.764 0 00-.763.764v2.685h11.707V1.601a.764.764 0 00-.763-.764z" fill="#FDB1B9"/>
  <path d="M21.19.837h-2.585c.421 0 .763.342.763.764v2.685h2.586V1.601a.764.764 0 00-.764-.764z" fill="#FC8086"/>
  <path d="M21.19.5H11.01c-.606 0-1.1.494-1.1 1.1v2.686c0 .019.002.037.005.055l2.235 13.703a1.016 1.016 0 00-.407.813v3.626c0 .56.457 1.017 1.018 1.017h6.68c.56 0 1.017-.456 1.017-1.017v-3.626c0-.332-.16-.627-.406-.813l2.235-13.703a.34.34 0 00.004-.055V1.601c0-.607-.494-1.101-1.1-1.101zm-1.406 21.983c0 .19-.154.343-.343.343h-6.68a.344.344 0 01-.344-.343v-3.626c0-.19.154-.343.344-.343h4.044a.337.337 0 000-.674H12.8L10.643 4.623h1.479a.337.337 0 100-.674h-1.538V1.602c0-.236.191-.427.427-.427h10.18c.235 0 .426.191.426.427V3.95h-7.803a.337.337 0 100 .673h7.744L19.402 17.84h-.995a.337.337 0 000 .674h1.034c.19 0 .343.154.343.343v3.626z" fill="#000"/>
  <path d="M16.012 6.139a2.33 2.33 0 00-2.327 2.327 2.33 2.33 0 002.327 2.328 2.33 2.33 0 002.328-2.328 2.33 2.33 0 00-2.328-2.327zm0 3.981a1.656 1.656 0 01-1.654-1.654c0-.912.742-1.654 1.654-1.654.912 0 1.654.742 1.654 1.654 0 .912-.742 1.654-1.654 1.654zM9.023 11.415H2.85c-.37 0-.72.181-.934.485a1.133 1.133 0 00-.141 1.032c.147.411.318.814.509 1.198a.337.337 0 00.603-.3c-.179-.36-.34-.739-.478-1.124a.464.464 0 01.441-.617h6.173a.464.464 0 01.442.617c-.43 1.2-1.06 2.274-1.743 2.978h-3.57a5.912 5.912 0 01-.538-.643.337.337 0 10-.544.397c.2.274.408.522.621.739v6.02c0 .719.584 1.303 1.303 1.303H6.88c.718 0 1.303-.584 1.303-1.302v-6.021c.757-.772 1.451-1.944 1.916-3.245.124-.345.071-.731-.141-1.032a1.144 1.144 0 00-.935-.485zM7.51 22.198a.63.63 0 01-.629.628H4.994a.63.63 0 01-.629-.628v-5.84h3.144v5.84z" fill="#000"/>
</svg>
