<svg width="24" height="24" fill="none" xmlns="http://www.w3.org/2000/svg">
  <defs/>
  <path d="M22.526 3.317l-1.843-1.843a1.55 1.55 0 00-2.192 0l-2.365 2.364 4.036 4.036 2.364-2.365a1.55 1.55 0 000-2.192z" fill="#FFE290"/>
  <path d="M16.996 11.676l4.22-4.22-4.672-4.671-4.22 4.22 4.672 4.671z" fill="#FF755C"/>
  <path d="M5.769 15.003l-2.994 4.465 1.756 1.756 4.465-2.994-3.227-3.227z" fill="#3B8BC0"/>
  <g fill="#174461">
    <path d="M4.014 14.72l-2.993 2.993 1.755 1.755 3.73-3.729-2.492-1.02zM8.26 17.496l-3.729 3.729 1.756 1.755 2.993-2.993-1.02-2.491z"/>
  </g>
  <path d="M9.28 19.985l8.748-8.748-5.266-5.266-8.748 8.748 5.266 5.266z" fill="#FF4181"/>
  <path d="M22.894 2.95l-1.843-1.845a2.073 2.073 0 00-2.928 0L16.858 2.37a.52.52 0 00-.682.046L13.053 5.54a.52.52 0 00-.659.064L.652 17.345a.52.52 0 000 .736l5.267 5.267a.52.52 0 00.736 0l2.99-2.99.003-.004a.12.12 0 01.004-.003l8.745-8.745a.52.52 0 00.064-.659l3.123-3.123a.52.52 0 00.046-.682l1.265-1.265a2.073 2.073 0 000-2.928zM6.287 22.243l-4.53-4.531 2.257-2.258 1.02 1.02-1.503 1.503a.52.52 0 00.736.736l1.502-1.503 1.02 1.02-1.503 1.502a.52.52 0 00.736.736l1.503-1.502 1.02 1.02-2.258 2.257zM9.28 19.25l-1.385-1.385-.002-.002-.003-.003-3.14-3.14 8.012-8.013 4.531 4.53L9.28 19.25zm8.452-9.046l-3.936-3.936 2.748-2.748 3.936 3.936-2.748 2.748zm4.426-5.063l-1.26 1.261-3.3-3.3 1.26-1.26a1.03 1.03 0 011.457 0l1.843 1.843a1.03 1.03 0 010 1.456z" fill="#01121C"/>
</svg>
