<svg width="24" height="24" fill="none" xmlns="http://www.w3.org/2000/svg">
  <defs/>
  <path d="M22.98 1.729l-.708-.708-2.43 1.139-.105 2.103 2.104-.104 1.139-2.43z" fill="#FF4181"/>
  <path d="M18.471 7.528l3.369-3.37-2-1.999-3.368 3.37 1.999 1.999z" fill="#FF755C"/>
  <path d="M13.605 6.978l3.416 3.416 2.894-2.893-3.416-3.416-2.893 2.893z" fill="#FF4181"/>
  <path d="M18.338 13.194a2.09 2.09 0 000-2.956l-4.577-4.576a2.09 2.09 0 00-2.955 0l-9.173 9.173a2.09 2.09 0 000 2.956l4.576 4.576a2.09 2.09 0 002.956 0l9.173-9.173z" fill="#FFD86C"/>
  <path d="M5.403 14.808l3.79 3.79 6.88-6.881-3.79-3.79-6.88 6.881z" fill="#FF755C"/>
  <g fill="#01121C">
    <path d="M23.348 1.36l-.709-.708a.52.52 0 00-.588-.103l-2.42 1.134a.518.518 0 00-.15.1l-.008.009-2.265 2.265-.34-.34a.52.52 0 00-.736 0l-1.79 1.79-.213-.213a2.613 2.613 0 00-3.691 0l-9.173 9.173A2.593 2.593 0 00.5 16.313c0 .697.272 1.353.765 1.846l4.576 4.576a2.593 2.593 0 001.846.765c.697 0 1.353-.271 1.846-.765l9.173-9.173a2.613 2.613 0 000-3.691l-.212-.213 1.79-1.79a.52.52 0 000-.736l-.34-.34 2.265-2.265.008-.008a.52.52 0 00.1-.15l1.134-2.42a.52.52 0 00-.104-.588zM17.97 12.827L8.797 22a1.56 1.56 0 01-1.11.46 1.56 1.56 0 01-1.11-.46L2 17.422a1.56 1.56 0 01-.46-1.11c0-.42.164-.813.46-1.11l9.174-9.173a1.565 1.565 0 011.11-.46c.401 0 .803.154 1.11.46l.577.577a.097.097 0 00.003.003l3.416 3.416.003.003.577.578a1.572 1.572 0 010 2.22zm-.212-3.904l-2.68-2.68L16.5 4.82l2.68 2.68-1.422 1.422zm1.45-2.866l-1.264-1.263 1.897-1.898 1.264 1.264-1.898 1.897zm2.476-2.79l-.95-.95 1.428-.67.192.192-.67 1.429z"/>
    <path d="M12.652 7.56a.52.52 0 00-.736 0l-6.88 6.88a.52.52 0 000 .736l3.788 3.79a.519.519 0 00.736 0l3.44-3.44a.52.52 0 10-.737-.736l-3.07 3.071-3.054-3.053 6.145-6.145 3.053 3.053-1.602 1.603a.52.52 0 00.736.735l1.97-1.97a.52.52 0 000-.736l-3.79-3.789z"/>
  </g>
</svg>
