<svg width="24" height="24" fill="none" xmlns="http://www.w3.org/2000/svg">
  <defs/>
  <path d="M17.77 9.518l.52-.52-3.288-3.287-.52.52 3.288 3.287zM4.326 16.387l-.52.52 3.288 3.287.519-.52-3.287-3.287z" fill="#fff"/>
  <path d="M9.518 6.23L9 5.713 5.712 8.999l.519.519L9.518 6.23zM16.906 20.194l3.287-3.288-.519-.519-3.287 3.287.52.52z" fill="#F2EBD9"/>
  <path d="M11.222 7.415a.366.366 0 01-.52 0l-.665-.665-3.287 3.287.666.665a.367.367 0 010 .52l.519.519 3.806-3.807-.52-.519zM13.298 16.585l2.57 2.57 3.288-3.287-2.57-2.57a.367.367 0 01-.001-.52l-.519-.518-3.806 3.806.519.519a.367.367 0 01.519 0z" fill="#F2484B"/>
  <path d="M13.963 6.75l-9.118 9.118 3.287 3.287 9.118-9.118-3.287-3.287z" fill="#185F8D"/>
  <path d="M6.574 20.712l-3.287-3.287-1.901 1.901 3.287 3.288 1.901-1.902zM22.366 1.31l-3.97 1.913.152.153a.367.367 0 01-.519.519l-.605-.606-1.903 1.903 3.287 3.288 1.903-1.903-1.644-1.644a.367.367 0 11.52-.52l1.19 1.192 1.912-3.97-.323-.324z" fill="#6DA8D6"/>
  <path d="M8.48 5.192L6.576 3.29 5.452 4.414a.367.367 0 01-.52-.52l.673-.671-3.97-1.912-.324.323 1.911 3.971.673-.672a.367.367 0 11.519.519L3.289 6.576 5.192 8.48 8.48 5.192zM20.712 17.425l-3.287 3.288 1.901 1.901 3.287-3.287-1.901-1.902z" fill="#FF6E1D"/>
  <path d="M7.415 10.703l-.665-.666 3.287-3.287.665.665a.366.366 0 00.52 0 .367.367 0 000-.519L6.835 2.511a.367.367 0 00-.519 0l-.162.162L1.718.536A.367.367 0 001.3.608L.608 1.3a.367.367 0 00-.072.418l2.137 4.437-.162.162a.367.367 0 000 .52l4.385 4.385a.366.366 0 00.52 0 .367.367 0 000-.52zM4.414 5.452a.367.367 0 10-.52-.519l-.671.672-1.912-3.97.323-.324 3.971 1.912-.672.672a.367.367 0 00.519.519l1.125-1.125L8.48 5.192 5.192 8.48 3.29 6.577l1.125-1.125zm4.585.26l.519.519L6.23 9.518l-.52-.52L9 5.713zM23.392 19.067l-2.42-2.42-3.868-3.868a.367.367 0 00-.52.519l2.571 2.57-3.287 3.287-2.57-2.57a.367.367 0 00-.52.519l3.868 3.868 2.421 2.42a.366.366 0 00.52 0l3.805-3.806a.367.367 0 000-.519zm-3.199-2.16l-3.287 3.287-.519-.52 3.287-3.287.52.52zm-2.768 3.806l3.287-3.288 1.902 1.902-3.288 3.287-1.9-1.901zM21.49 6.836a.367.367 0 000-.519l-.163-.162 2.137-4.437a.367.367 0 00-.072-.418L22.7.607a.367.367 0 00-.418-.07l-4.437 2.136-.162-.162a.367.367 0 00-.52 0L11.74 7.934 7.934 11.74l-3.868 3.868-1.038 1.038-2.42 2.421a.367.367 0 000 .52l3.806 3.805a.366.366 0 00.519 0l2.42-2.42 4.907-4.906 3.806-3.806 5.423-5.424zM3.805 16.906l.52-.519 3.287 3.287-.52.52-3.287-3.288zm-.519.52l3.288 3.287-1.902 1.9-3.287-3.286 1.901-1.902zm1.558-1.558l9.118-9.118 3.287 3.287-9.118 9.118-3.287-3.287zm13.444-6.87l-.52.52-3.287-3.288.52-.518 3.286 3.287zm1.297-4.584a.367.367 0 00-.519.519l1.644 1.644-1.903 1.903-3.288-3.288 1.903-1.903.606.606a.367.367 0 00.519-.52l-.153-.152 3.97-1.912.324.324-1.912 3.97-1.19-1.191z" fill="#082947"/>
</svg>
