<svg width="24" height="24" fill="none" xmlns="http://www.w3.org/2000/svg">
  <defs/>
  <path d="M22.097 18.888H1.903a1.066 1.066 0 01-1.066-1.066V6.45c0-.59.477-1.066 1.066-1.066h20.194c.589 0 1.066.477 1.066 1.066v11.37c0 .59-.477 1.067-1.066 1.067z" fill="#E8B800"/>
  <path d="M22.097 18.888H1.903a1.066 1.066 0 01-1.066-1.066V6.45c0-.59.477-1.066 1.066-1.066h20.194c.589 0 1.066.477 1.066 1.066v11.37c0 .59-.477 1.067-1.066 1.067z" fill="#FED402"/>
  <path d="M22.097 5.385h-1.348c.589 0 1.066.477 1.066 1.066v11.37c0 .59-.477 1.067-1.066 1.067h1.348c.588 0 1.066-.478 1.066-1.066V6.45c0-.59-.477-1.066-1.066-1.066z" fill="#FAC600"/>
  <path d="M.837 7.081h22.326v2.291H.837v-2.29z" fill="#E8B800"/>
  <path d="M.837 7.081h22.326v2.291H.837v-2.29z" fill="#3E5959"/>
  <path d="M21.815 7.081h1.348v2.291h-1.348v-2.29z" fill="#384949"/>
  <path d="M19.997 14.745h-4.71a.713.713 0 01-.713-.713v-1.778c0-.394.32-.713.713-.713h4.71c.394 0 .713.319.713.713v1.778c0 .394-.319.713-.713.713z" fill="#E8B800"/>
  <path d="M19.998 11.54H18.65c.394 0 .713.32.713.714v1.778c0 .394-.319.713-.713.713h1.348c.394 0 .713-.319.713-.713v-1.778a.713.713 0 00-.713-.713z" fill="#D7AA02"/>
  <path d="M3.2 11.54h8.004v1.84H3.2v-1.84z" fill="#FFF9F0"/>
  <path d="M9.856 11.54h1.348v1.84H9.856v-1.84z" fill="#FFF9F0"/>
  <path d="M22.097 5.048H1.903C1.129 5.048.5 5.677.5 6.45v11.37c0 .774.63 1.404 1.403 1.404h9.842a.337.337 0 000-.674H1.903a.73.73 0 01-.73-.73V9.71h21.653v8.113a.73.73 0 01-.729.729h-9.004a.337.337 0 100 .674h9.004c.774 0 1.403-.63 1.403-1.403V6.45c0-.774-.63-1.403-1.403-1.403zM1.174 9.035V7.418h4.462a.337.337 0 100-.674H1.174v-.293a.73.73 0 01.729-.73h20.194a.73.73 0 01.73.73v.293H6.983a.337.337 0 100 .674h15.842v1.617H1.174z" fill="#000"/>
  <path d="M3.29 16.877H20.71a.337.337 0 100-.673H3.289a.337.337 0 000 .673zM3.29 14.678a.337.337 0 100 .674h7.791a.337.337 0 000-.674H3.29zM19.997 15.082c.58 0 1.05-.47 1.05-1.05v-1.778c0-.58-.47-1.05-1.05-1.05h-4.71c-.579 0-1.05.47-1.05 1.05v1.778c0 .58.471 1.05 1.05 1.05h4.71zm-3.844-.75v-.426a.427.427 0 01.852 0v.426h-.852zm2.875-2.454v.426a.427.427 0 01-.852 0v-.426h.852zm-4.117 2.154v-1.778c0-.207.169-.376.376-.376h2.215v.426a1.101 1.101 0 002.2 0v-.426h.295c.208 0 .377.168.377.376v1.778a.377.377 0 01-.377.377H17.68v-.503a1.101 1.101 0 00-2.2 0v.503h-.192a.377.377 0 01-.376-.377zM11.541 13.38v-1.84a.337.337 0 00-.337-.336H3.2a.337.337 0 00-.337.337v1.838c0 .186.151.337.337.337h8.005c.186 0 .337-.15.337-.337zm-.673-.338H3.536v-1.164h7.332v1.164zM5.116 2.39c.186 0 .337-.15.337-.336V1.58a.337.337 0 10-.674 0v.473c0 .186.151.337.337.337zM5.77 3.092h.473a.337.337 0 100-.674H5.77a.337.337 0 000 .674zM5.07 3.072a.337.337 0 00-.338.336v.474a.337.337 0 00.674 0v-.474a.337.337 0 00-.337-.336zM3.942 3.044h.473a.337.337 0 000-.674h-.473a.337.337 0 000 .674zM20.394 21.03c.186 0 .337-.152.337-.338v-.203a.337.337 0 00-.674 0v.203c0 .186.15.337.337.337zM21.365 21.112h-.204a.337.337 0 100 .674h.204a.337.337 0 100-.674zM20.405 21.879a.337.337 0 00-.337.337v.203a.337.337 0 00.674 0v-.203a.337.337 0 00-.337-.337zM19.638 21.123h-.203a.337.337 0 100 .673h.203a.337.337 0 000-.673z" fill="#000"/>
</svg>
