<svg width="24" height="24" fill="none" xmlns="http://www.w3.org/2000/svg">
  <defs/>
  <path d="M8.056 3.002a.604.604 0 00-.941-.081 2.073 2.073 0 00-.239.3c-.738 1.126-.252 2.75 1.085 3.627.61.4 1.29.574 1.922.54a.601.601 0 00.46-.934L8.056 3.002z" fill="#FDDE2E"/>
  <path d="M10.344 6.454L8.057 3.002a.604.604 0 00-.941-.08c-.039.04-.076.081-.111.125l2.257 3.407c.203.307.083.7-.206.862.279.063.558.087.827.072a.601.601 0 00.46-.934z" fill="#F9C400"/>
  <path d="M14.42 5.727c.806-.806.617-2.303-.424-3.343-1.04-1.04-2.537-1.23-3.343-.424s-.616 2.303.424 3.343 2.537 1.23 3.343.424z" fill="#F9C301"/>
  <path d="M13.998 2.383c-.776-.777-1.807-1.08-2.615-.848.51.127 1.025.413 1.46.848 1.04 1.04 1.23 2.537.424 3.343a1.67 1.67 0 01-.729.424c.711.177 1.415.046 1.884-.424.806-.806.617-2.303-.424-3.343z" fill="#E6B700"/>
  <path d="M16.85 5.917c.523-1.375.082-2.819-.984-3.224-1.066-.404-2.354.383-2.876 1.759-.523 1.376-.082 2.819.984 3.224 1.066.405 2.354-.383 2.876-1.759z" fill="#FDDE2E"/>
  <path d="M16.852 5.922c.39-1.027.244-2.09-.299-2.733a3.174 3.174 0 01-.174 1.68c-.523 1.375-1.81 2.161-2.877 1.756a1.67 1.67 0 01-.685-.49c.13.72.538 1.308 1.159 1.544 1.065.405 2.353-.382 2.876-1.757z" fill="#F9C301"/>
  <path d="M19.443 20.843L18.98 17.5a2.388 2.388 0 01-.023-.326V8.977c0-.109.008-.218.023-.326l.462-3.343a.603.603 0 00-.68-.68l-3.74.517a2.381 2.381 0 01-.326.022H9.303c-.11 0-.218-.007-.326-.022l-3.74-.517a.603.603 0 00-.68.68l.462 3.343c.015.108.022.217.022.326v8.197c0 .109-.007.218-.022.326l-.462 3.343a.603.603 0 00.68.68l3.646-.504c.108-.015.217-.022.326-.022h5.582c.108 0 .217.007.325.022l3.646.504a.603.603 0 00.68-.68z" fill="#FB4753"/>
  <path d="M18.98 17.5a2.37 2.37 0 01-.022-.326V8.977c0-.109.008-.218.023-.326l.462-3.343a.603.603 0 00-.68-.68l-1.55.214-.249 1.793a2.387 2.387 0 00-.022.326v8.197c0 .109.008.218.022.325l.463 3.344a.603.603 0 01-.68.68l-3.647-.504a2.385 2.385 0 00-.326-.023H7.193c-.11 0-.218.008-.326.023l-2.096.29-.214 1.55a.603.603 0 00.68.68l3.646-.504c.108-.015.217-.022.326-.022h5.582c.108 0 .217.007.325.022l3.646.504a.603.603 0 00.68-.68l-.461-3.343z" fill="#E21F2D"/>
  <path d="M9.696 15.352c1.47-1.014 3.285-1.71 5.28-1.984a.299.299 0 00.25-.23l.93-3.99a.3.3 0 00-.33-.365c-.097.012-.194.026-.29.04-3.173.476-5.915 1.919-7.857 3.906a.3.3 0 00-.025.39l1.632 2.167a.3.3 0 00.41.066z" fill="#FDB143"/>
  <path d="M15.825 8.783l-.176.024-1.077 4.623c.134-.023.27-.044.405-.062a.3.3 0 00.25-.23l.93-3.99a.3.3 0 00-.332-.365z" fill="#FA9801"/>
  <path d="M10.626 22.267c.915-.68.944-2.189.065-3.369-.878-1.18-2.332-1.585-3.246-.904-.915.68-.944 2.189-.065 3.37.878 1.18 2.332 1.584 3.246.903z" fill="#F9C301"/>
  <path d="M8.21 17.686c.479.201.938.555 1.3 1.042.879 1.18.85 2.689-.065 3.37-.227.169-.487.27-.763.31.684.288 1.409.264 1.947-.137.915-.68.944-2.19.065-3.37-.66-.888-1.647-1.337-2.484-1.215z" fill="#E6B700"/>
  <path d="M4.46 6.936a.32.32 0 00.632-.087l-.22-1.584a.282.282 0 01.081-.24.282.282 0 01.24-.08l3.74.516c.122.017.246.026.37.026h5.394c.123 0 .248-.009.37-.026l3.74-.517a.282.282 0 01.24.08.282.282 0 01.08.24l-.462 3.344a2.705 2.705 0 00-.026.37v5.597a.32.32 0 10.639 0V8.977c0-.094.006-.189.019-.282l.462-3.343a.915.915 0 00-.261-.779.916.916 0 00-.78-.261l-1.337.185c-.077-.992-.602-1.794-1.4-2.098-.487-.185-1.013-.159-1.506.035a3.826 3.826 0 00-.718-.674.32.32 0 10-.372.52 3.118 3.118 0 01.516.466 3.445 3.445 0 00-1.207 1.596 3.755 3.755 0 00-.153.506h-1.443c-.736-.895-.837-2.044-.218-2.664.315-.315.777-.454 1.302-.391a.319.319 0 10.075-.634c-.723-.087-1.372.117-1.828.574-.756.755-.774 2.034-.113 3.115h-.654l-1.34-2.022A.924.924 0 006.885 2.7a2.399 2.399 0 00-.275.346 2.477 2.477 0 00-.396 1.395l-.933-.13a.916.916 0 00-.78.262.916.916 0 00-.26.78l.218 1.583zm8.83-2.367c.46-1.21 1.565-1.915 2.465-1.573.572.217.945.826.992 1.588l-1.768.245c-.093.013-.188.02-.282.02H13.2c.026-.095.055-.188.09-.28zM7.144 3.396c.059-.09.127-.176.202-.254a.288.288 0 01.235-.088c.05.004.144.026.21.124l1.079 1.63-2.015-.278a1.828 1.828 0 01.289-1.134zM19.297 17.456a2.067 2.067 0 01-.02-.282v-1.15a.32.32 0 10-.638 0v1.15c0 .123.009.247.025.37l.463 3.343a.282.282 0 01-.08.24.281.281 0 01-.24.08l-3.647-.504a2.71 2.71 0 00-.37-.026h-3.14c-.01-.651-.242-1.351-.7-1.966-.982-1.32-2.639-1.755-3.693-.97-.523.389-.82 1.01-.834 1.747-.01.502.114 1.018.354 1.5l-1.584.219a.282.282 0 01-.24-.08.282.282 0 01-.08-.24l.462-3.343c.017-.123.025-.247.025-.37V8.977c0-.123-.008-.247-.025-.37l-.048-.348a.32.32 0 00-.633.087l.049.349c.013.093.019.188.019.282v8.197c0 .094-.006.189-.02.282l-.462 3.343a.916.916 0 00.262.779.914.914 0 00.779.261l1.864-.257c.65.859 1.588 1.336 2.451 1.336.444 0 .868-.126 1.224-.39.397-.296.653-.724.765-1.212h3.205c.094 0 .19.006.283.02l3.646.503a.914.914 0 00.779-.262.915.915 0 00.261-.778l-.462-3.343zm-8.859 4.56c-.771.574-2.028.197-2.8-.84-.383-.514-.588-1.11-.577-1.676.01-.535.216-.978.577-1.247.245-.183.539-.27.85-.27.67 0 1.423.4 1.95 1.109.772 1.037.772 2.349 0 2.923z" fill="#000"/>
  <path d="M15.784 8.466c-.1.013-.2.027-.296.042-3.12.468-5.974 1.887-8.037 3.998a.616.616 0 00-.052.805l1.632 2.167a.617.617 0 00.847.137c1.447-1 3.226-1.667 5.142-1.931a.621.621 0 00.517-.473l.93-3.99a.619.619 0 00-.683-.755zm-.865 4.588c-2.004.278-3.867.978-5.39 2.025L7.92 12.94c1.965-2.005 4.686-3.355 7.663-3.801.084-.013.17-.025.257-.036l-.92 3.95z" fill="#000"/>
  <path d="M13.266 11.193a9.65 9.65 0 00-.86.242.32.32 0 00.2.606c.267-.089.537-.165.804-.227a.32.32 0 00-.144-.621zM11.213 11.916c-1.269.605-2.03 1.274-2.062 1.302a.32.32 0 10.424.478c.007-.007.724-.637 1.913-1.204a.32.32 0 00-.275-.576z" fill="#000"/>
</svg>
