<svg width="24" height="24" fill="none" xmlns="http://www.w3.org/2000/svg">
  <defs/>
  <path d="M15.455 13.83L13.625 12l1.83-1.83-1.625-1.625-1.83 1.83-1.83-1.83-1.625 1.625 1.83 1.83-1.83 1.83 1.625 1.625 1.83-1.83 1.83 1.83 1.625-1.625z" fill="#808B95"/>
  <path d="M15.455 10.17L13.83 8.545l-.674.674.067.066c.24.24.24.63 0 .871l-.96.96c-.24.24-.24.63 0 .87l.96.96c.24.24.24.63 0 .87l-.516.516 1.123 1.123 1.625-1.625-1.83-1.83 1.83-1.83zM20.196 18.13l1.02 1.02-2.06 2.062-1.02-1.02 2.06-2.061z" fill="#5E6B75"/>
  <g fill="#808B95">
    <path d="M19.143 21.843l1.32 1.321 2.7-2.7-1.32-1.32a.434.434 0 00-.615 0l-2.085 2.085a.434.434 0 000 .614zM3.804 5.867l-1.02-1.02 2.06-2.061 1.02 1.02-2.06 2.06zM2.158 4.857L.837 3.537l2.7-2.7 1.32 1.32c.17.17.17.445 0 .615L2.772 4.857a.434.434 0 01-.614 0zM5.867 20.198l-1.02 1.02-2.06-2.06 1.02-1.02 2.06 2.06zM2.158 19.144l-1.321 1.32 2.7 2.7 1.32-1.32a.434.434 0 000-.615l-2.085-2.085a.434.434 0 00-.614 0z"/>
  </g>
  <path d="M18.133 3.806l1.02-1.02 2.06 2.06-1.02 1.02-2.06-2.06z" fill="#5E6B75"/>
  <path d="M19.143 2.158l1.32-1.321 2.7 2.7-1.32 1.32a.434.434 0 01-.615 0l-2.085-2.085a.434.434 0 010-.614z" fill="#808B95"/>
  <path d="M2.772 19.143a.434.434 0 00-.614 0l-.367.367 1.719 1.718c.17.17.17.445 0 .614l-.647.647.673.674 1.321-1.32a.434.434 0 000-.615l-2.085-2.085zM21.343 4.009l-.481.481.366.367c.17.17.445.17.614 0l1.321-1.32-2.7-2.7-.673.674 1.553 1.553c.261.26.261.684 0 .945zM3.536.837l-.673.674.646.647c.17.17.17.444 0 .614L1.791 4.49l.367.367c.17.17.444.17.614 0l2.085-2.085a.434.434 0 000-.614L3.537.837zM21.228 19.143l-.366.367.481.481c.261.261.261.684 0 .945l-1.553 1.553.674.674 2.7-2.7-1.321-1.32a.434.434 0 00-.615 0z" fill="#5E6B75"/>
  <path d="M13.907 8.625l4.522-4.522 1.467 1.466-4.522 4.522-1.467-1.466zM4.1 18.43l4.522-4.521 1.466 1.466-4.522 4.522L4.1 18.431zM4.1 5.568l1.467-1.466 4.522 4.522-1.466 1.466L4.1 5.568zM13.906 15.376l1.467-1.466 4.522 4.521-1.467 1.467-4.522-4.522z" fill="#DAE4EA"/>
  <path d="M18.058 6.061l-3.356 3.356.674.674 4.523-4.523-1.467-1.467-.674.674.3.3a.697.697 0 010 .986zM7.95 14.583l.3.3a.697.697 0 010 .986l-3.355 3.356.673.674 4.523-4.523-1.467-1.467-.674.674zM14.702 14.583l3.356 3.356a.697.697 0 010 .986l-.3.3.674.674 1.467-1.467-4.523-4.523-.674.674zM4.895 4.775L8.25 8.13a.697.697 0 010 .986l-.3.3.674.674 1.467-1.467L5.568 4.1l-.673.674z" fill="#C6D0DA"/>
  <path d="M22.08 18.905a.767.767 0 00-.815-.178l-.83-.83a.337.337 0 00-.477 0l-.06.058-4.106-4.107v-.018a.337.337 0 00-.099-.238L14.101 12l1.592-1.592a.337.337 0 00.099-.256l4.107-4.107.059.059a.336.336 0 00.476 0l.831-.831a.772.772 0 00.816-.178l1.32-1.32a.337.337 0 000-.477l-2.7-2.7a.337.337 0 00-.476 0l-1.32 1.321a.766.766 0 00-.178.816l-.83.83a.337.337 0 000 .477l.058.06-2.232 2.231a.337.337 0 10.477.477l2.232-2.232.99.99-4.046 4.046-.99-.99.697-.697a.337.337 0 10-.477-.476l-.758.757a.336.336 0 00-.256.099L12 9.899l-1.592-1.592a.336.336 0 00-.256-.099L6.045 4.101l.059-.059a.337.337 0 000-.476l-.831-.831a.772.772 0 00-.178-.816L3.775.6a.337.337 0 00-.477 0l-2.7 2.7a.337.337 0 000 .476l1.321 1.32a.766.766 0 00.816.178l.83.83a.336.336 0 00.477 0l.06-.058 4.106 4.107a.334.334 0 00.099.256L9.899 12l-1.592 1.592a.337.337 0 00-.099.256l-4.107 4.107-.059-.059a.337.337 0 00-.476 0l-.831.831a.772.772 0 00-.816.178L.6 20.225a.337.337 0 000 .477l2.7 2.7a.336.336 0 00.476 0l1.32-1.321a.766.766 0 00.178-.816l.83-.83a.337.337 0 000-.477l-.058-.06 1.34-1.34a.337.337 0 00-.476-.476l-1.34 1.34-.991-.99 4.046-4.046.99.99-1.584 1.585a.337.337 0 00.476.476l1.646-1.645a.336.336 0 00.256-.099L12 14.101l1.592 1.592a.336.336 0 00.256.099l4.107 4.107-.059.059a.337.337 0 000 .476l.831.831a.771.771 0 00.178.816l1.32 1.32a.336.336 0 00.477 0l2.7-2.7a.337.337 0 000-.476l-1.321-1.32zm-2.699-16.51l1.083-1.082 2.223 2.223-1.083 1.083a.096.096 0 01-.069.028.096.096 0 01-.069-.028l-2.085-2.085a.096.096 0 01-.028-.07c0-.018.005-.045.028-.068zm-.226.865l1.585 1.585-.544.544-1.585-1.585.544-.544zM4.619 21.604l-1.083 1.083-2.223-2.223 1.083-1.083a.096.096 0 01.069-.028c.018 0 .045.005.069.028l2.085 2.085c.023.024.028.05.028.07a.095.095 0 01-.028.068zm.226-.864L3.26 19.155l.544-.544 1.585 1.585-.544.544zM1.313 3.536l2.223-2.223L4.62 2.396c.023.023.028.05.028.069a.095.095 0 01-.028.069L2.534 4.619a.096.096 0 01-.07.028.095.095 0 01-.068-.028L1.313 3.536zm1.947 1.31L4.845 3.26l.544.544-1.585 1.585-.544-.544zm2.308-.268l4.046 4.046-.99.99-4.046-4.046.99-.99zM12 13.288a.337.337 0 00-.238.099l-1.592 1.592L9.02 13.83l1.592-1.592a.337.337 0 000-.476L9.021 10.17 10.17 9.02l1.592 1.592a.337.337 0 00.476 0l1.592-1.592 1.149 1.149-1.592 1.592a.337.337 0 000 .476l1.592 1.592-1.149 1.149-1.592-1.592a.337.337 0 00-.238-.099zm2.386 2.088l.99-.99 4.046 4.046-.99.99-4.046-4.046zm4.282 4.763l1.528-1.528.544.544-1.585 1.585-.544-.544.057-.057zm1.796 2.548l-1.083-1.083a.095.095 0 01-.028-.069c0-.018.005-.045.028-.069l2.085-2.085a.096.096 0 01.07-.029c.018 0 .044.006.068.03l1.083 1.082-2.223 2.223z" fill="#000"/>
</svg>
