<svg width="24" height="24" fill="none" xmlns="http://www.w3.org/2000/svg">
  <defs/>
  <g fill-rule="evenodd" clip-rule="evenodd">
    <path d="M7.967 2.681H6.484c-.582 0-1.06.424-1.06.942v2.515l2.213.9 2.211-.9-.58-1.77-.243-.745c-.162-.497-.476-.942-1.058-.942z" fill="#FE636E"/>
    <path d="M9.848 6.138H4.596a.959.959 0 00-.955.956v4.086l7.18.983 8.613-.983-.743-1.728-.676-1.578-.479-1.114c-.135-.315-.34-.622-.964-.622H9.848z" fill="#ECECEC"/>
    <path d="M19.435 11.18H2.838a.705.705 0 00-.702.702v2.225L12.61 15.51l8.79-1.405-.705-2.34c-.111-.369-.385-.586-.834-.586h-.427z" fill="#FE636E"/>
    <path d="M20.237 14.106H2.135c-1.013 0-1.045.699-1.01.998l.552 4.797c.033.299.416.546.981.546h16.515c.646 0 .833-.022 1.12-.546l2.672-4.893c.247-.452-.024-.902-.505-.902h-2.223z" fill="#ECECEC"/>
    <path d="M7.967 2.681H6.79c.582 0 .896.445 1.06.942l.243.745.578 1.77h1.177l-.58-1.77-.243-.745c-.162-.497-.476-.942-1.058-.942z" fill="#FB2A39"/>
    <path d="M7.468 19.64c-1.47-.213-2.968-.466-5.05.087-.25.075-.485.193-.692.333-.74.497-1.139 1.259-.712 1.259h5.761c-.257 0 .738-.16 1.093-.591.253-.306.404-.524-.4-1.088z" fill="#03BED7"/>
    <path d="M17.536 6.76c-.135-.315-.34-.622-.964-.622h-1.158.001c.617.003.824.309.959.622l.478 1.114h1.163l-.479-1.114z" fill="#CECECE"/>
    <path d="M20.696 11.766c-.111-.369-.385-.586-.834-.586h-1.164c.122 0 .231.015.328.046.258.083.425.27.506.54l.705 2.34h1.164l-.705-2.34z" fill="#FB2A39"/>
    <path d="M18.015 7.874h-1.163l.676 1.578h1.163l-.676-1.578zM18.691 9.452h-1.163l.742 1.728h1.164l-.743-1.728z" fill="#CECECE"/>
    <path d="M8.089 16.57a.706.706 0 10-1.412.001.706.706 0 001.412 0zM4.882 16.57a.706.706 0 10-1.413.002.706.706 0 001.413-.002zM14.7 18.674c-2.883 1.256-4.798-.279-7.07.875a2.93 2.93 0 00-.163.091c-.375.224-.73.553-.982.859-.355.431-.514.82-.257.82h16.659c.66 0 .119-1.582-1.532-2.605-1.418-.88-3.656-1.346-6.655-.04z" fill="#A6E7F0"/>
    <path d="M21.4 14.106h-1.156 1.157zm-.658.902l-1.595 2.919a5.726 5.726 0 011.892.606l1.925-3.525c.248-.452-.023-.902-.504-.902h-2.216c.476.005.743.453.498.902z" fill="#CECECE"/>
    <path d="M19.147 17.927c-.906-.129-1.962-.072-3.162.278 1.529.48 2.5 1.49 2.881 2.242.205.405.239.737.095.872h3.926c.66 0 .119-1.582-1.532-2.605a5.73 5.73 0 00-2.208-.787z" fill="#6BD9E7"/>
  </g>
  <path d="M12.898 8.213h1.757a.34.34 0 100-.678h-1.757a.34.34 0 100 .678zM12.898 9.791h1.757a.34.34 0 100-.679h-1.757a.34.34 0 100 .679zM9.168 8.213h1.758a.34.34 0 100-.678H9.168a.34.34 0 100 .678zM9.168 9.791h1.758a.34.34 0 100-.679H9.168a.34.34 0 100 .679zM5.44 8.213h1.756a.34.34 0 100-.678H5.439a.34.34 0 100 .678zM5.44 9.791h1.756a.34.34 0 100-.679H5.439a.34.34 0 100 .679zM4.175 17.616c.577 0 1.047-.47 1.047-1.046a1.048 1.048 0 00-2.093 0c0 .577.47 1.046 1.046 1.046zm0-1.412c.203 0 .368.164.368.366a.368.368 0 01-.735 0c0-.202.165-.366.367-.366zM7.383 17.616a1.047 1.047 0 10-1.046-1.045c0 .576.47 1.045 1.046 1.045zm0-1.412a.367.367 0 110 .734.367.367 0 010-.734z" fill="#000"/>
  <path d="M22.47 19.154a5.476 5.476 0 00-.971-.752l1.764-3.23c.175-.32.18-.68.011-.965a.928.928 0 00-.813-.441h-.808l-.632-2.098c-.159-.526-.581-.828-1.158-.828h-.204l-1.33-3.097-.002-.003-.478-1.114c-.152-.355-.45-.827-1.277-.827h-.264v-.644c0-.621-.506-1.127-1.128-1.127H9.515l-.167-.51c-.247-.759-.737-1.176-1.38-1.176H6.483c-.771 0-1.398.575-1.398 1.28V5.8h-.49c-.714 0-1.294.58-1.294 1.295v.959a.34.34 0 10.679 0v-.959c0-.34.276-.616.616-.616h11.975c.44 0 .548.172.653.416l.275.64h-.836a.34.34 0 100 .68h1.127l.386.898h-1.513a.34.34 0 100 .68h1.805l.45 1.048H3.981V9.636a.34.34 0 10-.68 0v1.204H2.84c-.575 0-1.043.467-1.043 1.042v1.911c-.314.05-.562.177-.74.377-.293.33-.293.751-.267.973l.549 4.78a3.282 3.282 0 00-.315.281c-.175.18-.576.639-.517 1.038.036.249.24.416.508.416h21.873a.583.583 0 00.56-.365c.204-.5-.198-1.379-.977-2.14zM15.18 4.707c.247 0 .449.201.449.448V5.8h-5.534l-.358-1.092h5.443zM5.765 3.623c0-.326.33-.602.72-.602h1.482c.125 0 .505 0 .736.707l.242.74v.003l.435 1.328H5.764V3.623zM1.463 15.065c-.013-.11-.016-.312.101-.444.128-.145.382-.175.572-.175h9.848a.34.34 0 000-.679H2.475v-1.886c0-.2.163-.362.364-.362H19.863c.283 0 .435.103.508.345l.573 1.902-7.211.001a.34.34 0 100 .68l7.653-.002.015.001.017-.001h1.043c.106 0 .188.038.23.109.044.076.036.182-.024.291l-.484.887H11.266a.34.34 0 000 .68h10.546l-.913 1.67a6.09 6.09 0 00-1.454-.452c-1.499-.271-3.14-.025-4.88.733-1.402.61-2.566.525-3.692.442-1.134-.084-2.206-.163-3.396.442a3.11 3.11 0 00-.077.04l-.049-.007c-1.45-.212-2.949-.431-5.02.119l-.01.003c-.122.036-.237.08-.345.13l-.513-4.467zm1.048 4.989c1.64-.435 2.917-.35 4.11-.192-.121.113-.237.233-.345.36-.25.29-.408.543-.475.757H1.264c.184-.283.65-.745 1.247-.925zm4.04.925a3.688 3.688 0 011.099-1.052c.044-.027.089-.052.134-.075 1.022-.519 1.957-.45 3.039-.37 1.152.085 2.457.181 4.014-.497 3.932-1.712 6.236-.188 7.043.546.697.634.937 1.23.945 1.448H6.55z" fill="#000"/>
</svg>
