<svg width="24" height="24" fill="none" xmlns="http://www.w3.org/2000/svg">
  <defs/>
  <path d="M14.254 18.963l.883 3.144H8.855l.884-3.144h4.515z" fill="#CCD1D9"/>
  <path d="M21.883 16.717v1.572a.673.673 0 01-.674.674H2.791a.674.674 0 01-.674-.674v-1.572h19.766z" fill="#E6E9ED"/>
  <path d="M20.086 16.717v1.572a.673.673 0 01-.674.674h1.797a.673.673 0 00.674-.674v-1.572h-1.797z" fill="#CCD1D9"/>
  <path d="M21.883 5.936v10.78H2.118V5.937a.899.899 0 00.899-.891.898.898 0 001.796-.008.898.898 0 101.797 0 .898.898 0 001.797.008.898.898 0 001.796-.008.898.898 0 001.797 0 .898.898 0 101.797 0 .898.898 0 001.797.008.898.898 0 001.796-.008.898.898 0 101.797 0 .898.898 0 001.797.008c.003.493.405.89.898.89h.001z" fill="#5D9CEC"/>
  <path d="M21.882 5.936a.898.898 0 01-.898-.891.899.899 0 01-.898.89v10.782h1.798V5.936h-.002z" fill="#4A89DC"/>
  <path d="M12 17.166a.673.673 0 110 1.347.673.673 0 010-1.347z" fill="#656D78"/>
  <path d="M21.881 3.69H2.118V2.565c0-.372.301-.673.673-.673h18.418c.372 0 .674.301.674.673V3.69h-.001z" fill="#E6E9ED"/>
  <path d="M21.21 1.893h-1.798c.373 0 .674.301.674.673V3.69h1.797V2.566a.673.673 0 00-.674-.673z" fill="#CCD1D9"/>
  <path d="M2.698 5.045c-.005.493-.42.89-.93.89h-.002c-.513 0-.93-.402-.93-.898L2.119 3.69h19.765l1.28 1.349c0 .495-.415.898-.929.898h-.001c-.511 0-.926-.398-.93-.891-.004.493-.42.89-.93.89-.515 0-.93-.401-.93-.898 0 .497-.417.899-.931.899s-.93-.402-.93-.899c0 .497-.417.899-.93.899-.512 0-.927-.398-.93-.891-.005.493-.42.89-.931.89-.514 0-.93-.401-.93-.898 0 .497-.417.899-.93.899-.515 0-.931-.402-.931-.899 0 .497-.416.899-.93.899s-.93-.402-.93-.899c0 .497-.417.899-.931.899-.51 0-.926-.398-.93-.891-.004.493-.42.89-.93.89-.514 0-.93-.401-.93-.898 0 .497-.417.899-.93.899-.515 0-.931-.402-.931-.899 0 .497-.417.899-.93.899-.511 0-.927-.398-.93-.891z" fill="#ED5565"/>
  <path d="M21.883 3.69h-1.86l1.28 1.348a.879.879 0 010 .007c.003.493.419.89.93.89.514 0 .93-.402.93-.897l-1.28-1.348z" fill="#DA4453"/>
  <path d="M12 7.732a3.595 3.595 0 100 7.19 3.595 3.595 0 000-7.19z" fill="#FFCE54"/>
  <path d="M12 7.732a3.61 3.61 0 00-.676.064 3.594 3.594 0 010 7.06A3.594 3.594 0 1012 7.732z" fill="#F6BB42"/>
  <path d="M23.5 5.043v-.006-.01c0-.006 0-.013-.002-.019l-.001-.015a.47.47 0 00-.01-.05l-.006-.015a.24.24 0 00-.019-.045.273.273 0 00-.026-.043l-.01-.012a.37.37 0 00-.012-.015l-.007-.008-1.187-1.249v-.99c0-.557-.453-1.01-1.01-1.01H2.792c-.558 0-1.011.453-1.011 1.01v.99L.593 4.805l-.007.007-.012.014a.304.304 0 00-.01.013l-.01.014a.421.421 0 00-.04.09.335.335 0 00-.01.049l-.002.015a.33.33 0 00-.001.019l-.001.01v.011c.006.677.572 1.225 1.267 1.225h.013v12.016a1.004 1.004 0 001.011 1.01h6.504L8.6 21.772h-.643a.337.337 0 100 .674h8.086a.337.337 0 000-.674h-.651l-.694-2.471h3.526a.337.337 0 000-.674h-5.59a1.009 1.009 0 000-1.572h8.911v1.235a.338.338 0 01-.337.337h-1.636a.338.338 0 000 .674h1.636c.27 0 .524-.105.715-.296a1.003 1.003 0 00.296-.715V6.272h.013c.695 0 1.26-.548 1.267-1.224v-.005zM2.792 2.23h18.417c.186 0 .337.151.337.337v.787H2.455v-.787c0-.186.15-.337.337-.337zm11.901 19.542H9.301l.694-2.471h4.004l.694 2.47zm-3.03-3.931a.337.337 0 11.675 0 .337.337 0 01-.674 0zm-.297.786H2.791a.339.339 0 01-.336-.337V17.054h8.911a1.01 1.01 0 000 1.572zm10.18-2.246H2.454V6.075c.09-.057.171-.124.243-.2.232.244.563.398.93.398.368 0 .7-.154.931-.398.232.244.563.398.93.398.368 0 .699-.154.93-.398.232.244.563.398.93.398.368 0 .7-.154.931-.398.232.244.563.398.93.398.368 0 .699-.154.93-.398.232.244.563.398.93.398.368 0 .7-.154.931-.398.232.244.563.398.93.398.368 0 .699-.154.93-.398.232.244.563.398.93.398.368 0 .7-.154.93-.398.233.244.564.398.931.398.367 0 .699-.154.93-.398.232.244.563.398.93.398.368 0 .7-.154.93-.398.233.244.564.398.931.398.367 0 .699-.154.93-.398.073.076.155.143.244.2V16.38zm.687-10.781c-.327 0-.593-.251-.594-.56v-.001a.337.337 0 10-.674 0c0 .31-.266.56-.593.56-.326 0-.592-.25-.593-.558v-.003a.337.337 0 10-.674 0v.003c-.001.308-.267.559-.593.559-.327 0-.593-.252-.593-.56v-.001a.337.337 0 10-.674 0c-.001.31-.267.56-.594.56-.326 0-.592-.25-.593-.559v-.002a.337.337 0 10-.674 0v.002c-.001.31-.267.56-.593.56-.327 0-.593-.252-.594-.56v-.001a.337.337 0 10-.674 0c0 .31-.266.56-.593.56-.326 0-.592-.25-.593-.559v-.002a.337.337 0 00-.674 0v.002c-.001.309-.267.56-.593.56-.327 0-.593-.252-.594-.56v-.001a.337.337 0 10-.674 0c0 .31-.266.56-.593.56-.326 0-.592-.25-.593-.559v-.002a.337.337 0 10-.674 0v.002c-.001.309-.267.56-.593.56-.327 0-.593-.252-.594-.56v-.001a.337.337 0 10-.674 0c0 .31-.266.56-.593.56-.326 0-.592-.25-.593-.558v-.003a.337.337 0 10-.674 0v.003c-.001.308-.267.559-.593.559-.327 0-.593-.252-.593-.56v-.002a.337.337 0 10-.674 0v.001c-.001.31-.267.56-.594.56a.588.588 0 01-.58-.441l1.076-1.13h19.474l1.075 1.13a.588.588 0 01-.58.442z" fill="#000"/>
  <path d="M12 7.396H5.71a.337.337 0 100 .673h4.091c-.58.393-1.049.936-1.352 1.573h-1.84a.337.337 0 100 .674h1.592a3.922 3.922 0 000 2.021H3.465a.337.337 0 000 .674h4.984c.303.637.773 1.18 1.352 1.572H8.406a.337.337 0 100 .674H12a3.935 3.935 0 003.93-3.93A3.935 3.935 0 0012 7.395zm0 7.187a3.26 3.26 0 01-3.257-3.257A3.26 3.26 0 0112 8.07a3.26 3.26 0 013.257 3.257A3.26 3.26 0 0112 14.583z" fill="#000"/>
  <path d="M13.092 11.17a1.012 1.012 0 00-.868-1.529h-.112V9.53a.337.337 0 00-.674 0v.113h-.336a.337.337 0 00-.337.337v3.144c0 .186.15.337.337.337h.336v.112a.337.337 0 00.674 0v-.112h.337a1.237 1.237 0 00.643-2.29zm-.867-.855a.337.337 0 010 .674h-.787v-.674h.787zm.224 2.471h-1.01v-1.123h1.01a.562.562 0 010 1.123z" fill="#000"/>
</svg>
