<svg width="24" height="24" fill="none" xmlns="http://www.w3.org/2000/svg">
  <defs/>
  <path d="M6.872 19.052h-2.58c-1.029 0-1.902.843-1.896 1.872.005 1.018.832 1.775 1.853 1.775h2.059a.618.618 0 00.618-.618v-2.9" fill="#FFEFCA"/>
  <path d="M6.872 18.258H4.25a1.86 1.86 0 00-1.853 1.862c0 1.023.83 1.784 1.853 1.784h2.677v-3.517" fill="#FFE4A1"/>
  <path d="M18.697 15.63h2.677c1.023 0 1.853.76 1.853 1.784a1.86 1.86 0 01-1.854 1.862h-14.5c-1.3 0-4.477-.263-4.477 1.862v-4.6l16.3-.908z" fill="#FDBA77"/>
  <path d="M18.697 14.612h2.677c1.023 0 1.853.76 1.853 1.784a1.86 1.86 0 01-1.854 1.862h-14.5c-1.3 0-4.477-.263-4.477 1.862v-4.6l16.3-.908z" fill="#FCC973"/>
  <g fill="#FFEFCA">
    <path d="M18.696 4.836h2.677c1.023 0 1.853.761 1.853 1.785v10.776c-.106-1.951-1.853-1.99-1.853-1.99h-3.478V4.915l.8-.08z"/>
    <path d="M18.696 5.72h2.677c1.023 0 1.853.76 1.853 1.784v9.895c-.106-1.95-1.853-1.99-1.853-1.99h-3.478v-9.61l.8-.08z"/>
  </g>
  <path d="M1.566 3.74h16.259c.347 0 .628.282.628.629v11.564a.628.628 0 01-.628.628H1.565a.628.628 0 01-.627-.628V4.369c0-.347.28-.629.628-.629z" fill="#826075"/>
  <path d="M12.558 15.328a1.214 1.214 0 100-2.428 1.214 1.214 0 000 2.428z" fill="#FFE4A1"/>
  <path d="M14.692 14.914a1.214 1.214 0 100-2.429 1.214 1.214 0 000 2.429z" fill="#FCC973"/>
  <path d="M6.965 11.201H3.942a.336.336 0 01-.336-.335v-.62s11.605-.214 11.605 0v.667a.335.335 0 01-.338.336c-1.552-.014-7.908-.07-7.908-.048z" fill="#66465B"/>
  <path d="M7.136 11.043L5.69 12.49a.21.21 0 000 .296l2.072 2.071a.21.21 0 00.296 0l3.533-3.533.053-.052 1.51-1.51-4.661.12-1.357 1.162z" fill="#FF97CB"/>
  <path d="M7.06 14.155l.677.677c.095.095.25.095.345 0l3.508-3.508.053-.053 1.418-1.418H9.55l1.166.646-3.535 3.534-.121.122z" fill="#FFC5E5"/>
  <g fill="#9AF7DD">
    <path d="M13.276 8.8c0 .797.614 1.443 1.371 1.443.274 0 .53-.084.744-.23V7.59a1.317 1.317 0 00-.743-.23c-.757 0-1.371.645-1.372 1.442zM5.867 8.776c0-.796-.614-1.442-1.371-1.443-.313 0-.601.11-.832.296v2.293c.23.186.518.296.831.296.758 0 1.372-.645 1.372-1.442z"/>
  </g>
  <path d="M10.445 10.819H7.423s-.166.09-.18.105l-.278.277 3.02.025" fill="#E88AC2"/>
  <path d="M9.984 11.226l1.705.014.421-.421h-1.665" fill="#F49AD0"/>
  <path d="M14.627 10.143a1.371 1.371 0 11.744-2.523V6.611a.37.37 0 00-.369-.369L3.912 6.24a.37.37 0 00-.37.368v1.07a1.371 1.371 0 110 2.18L3.54 10.93c0 .203.166.369.369.369h2.387l8.704.004a.37.37 0 00.369-.37V9.925c-.214.139-.469.22-.743.22zm-5.171-.001a1.371 1.371 0 110-2.743 1.371 1.371 0 010 2.743z" fill="#6BE8C7"/>
  <path d="M9.456 9.776a1.371 1.371 0 100-2.743 1.371 1.371 0 000 2.743z" fill="#3CD3A8"/>
  <path d="M20.075 6.983a.386.386 0 00-.386.386v6.284a.386.386 0 10.772 0V7.369a.386.386 0 00-.386-.386zM3.805 11.769l2.367.001-.954.954a.386.386 0 000 .546l2.367 2.368a.385.385 0 00.547 0l3.733-3.734a.384.384 0 00.086-.131l3.054.001a.76.76 0 00.76-.758l.001-4.365a.754.754 0 00-.222-.536.754.754 0 00-.536-.223h-.744a.386.386 0 000 .772h.73l-.002 4.338-11.173-.005.002-4.338 8.776.004a.386.386 0 000-.772l-8.789-.004a.76.76 0 00-.76.758l-.001 4.365c0 .418.34.759.758.759zm3.458.002h1.943L7.008 13.97l-.971-.972 1.226-1.226zm.595 3.048l-.304-.304 2.743-2.743h.608L7.858 14.82z" fill="#000"/>
  <path d="M7.636 8.83c0 .473.183.917.518 1.252a1.76 1.76 0 001.252.52 1.773 1.773 0 001.253-3.023 1.773 1.773 0 00-3.024 1.25zm2.477-.706a1 1 0 01-.707 1.705v.386-.386a.992.992 0 01-.706-.293 1 1 0 011.413-1.412zM14.38 7.935a.386.386 0 10-.073-.769 1.667 1.667 0 00-1.512 1.666c0 .83.62 1.544 1.441 1.658a.386.386 0 00.106-.765.905.905 0 01-.775-.893c0-.467.35-.852.814-.897zM4.432 9.711a.386.386 0 00.155.757 1.679 1.679 0 001.337-1.64 1.67 1.67 0 00-1.387-1.65.386.386 0 00-.132.761.899.899 0 01.747.89.904.904 0 01-.72.882zM14.64 12.459a1.6 1.6 0 00-1.055.4 1.597 1.597 0 00-1.629-.155 1.59 1.59 0 00-.822.908 1.59 1.59 0 00.06 1.224 1.59 1.59 0 001.443.914c.387 0 .766-.14 1.06-.397a1.603 1.603 0 002.45-.755 1.59 1.59 0 00-.06-1.224 1.59 1.59 0 00-1.447-.915zm-2.277 2.472a.823.823 0 01-.47-.426.823.823 0 01-.032-.633.822.822 0 01.426-.47.822.822 0 01.857.092l-.01.027a1.59 1.59 0 00.06 1.223l.008.016a.833.833 0 01-.84.17zm3.026-1.226a.83.83 0 01-1.027 1.134.83.83 0 111.027-1.134zM10.03 1.71V.886a.386.386 0 10-.772 0v.824a.386.386 0 10.772 0zM8.188 2.699a.385.385 0 00.273-.66l-.582-.582a.386.386 0 00-.546.546l.582.583a.385.385 0 00.273.113zM11.373 2.586l.582-.583a.386.386 0 10-.546-.546l-.582.583a.386.386 0 00.546.546z" fill="#000"/>
  <path d="M23.5 7.036c0-1.218-.984-2.171-2.24-2.171h-2.472v-.764a.386.386 0 00-.386-.386H.886A.386.386 0 00.5 4.1v12.82c0 .214.173.387.386.387h17.516a.386.386 0 00.386-.386v-.715h2.472c.836 0 1.467.601 1.467 1.399 0 .813-.658 1.475-1.467 1.475H4.135c-.56 0-1.074.209-1.467.552v-1.066a.386.386 0 10-.772 0v2.762c0 1.218.983 2.171 2.24 2.171h2.676a.386.386 0 00.386-.386v-3.26H21.26a2.246 2.246 0 002.24-2.248V7.036zM6.425 22.728h-2.29c-.837 0-1.468-.602-1.468-1.399 0-.814.658-1.476 1.467-1.476h2.29v2.875zm11.59-6.193H1.272V4.487h16.744v12.048zm3.244-1.1h-2.472V5.637h2.472c.836 0 1.467.601 1.467 1.399v8.918a2.28 2.28 0 00-1.467-.519z" fill="#000"/>
</svg>
