<svg width="24" height="24" fill="none" xmlns="http://www.w3.org/2000/svg">
  <defs/>
  <path d="M22.915 22.012c.15 0 .267-.132.245-.28a7.109 7.109 0 00-7.033-6.076H7.872A7.109 7.109 0 00.84 21.731a.247.247 0 00.245.281h21.831z" fill="#4ACB8C"/>
  <path d="M23.16 21.732a7.109 7.109 0 00-7.032-6.076h-2.494a7.109 7.109 0 017.032 6.075.247.247 0 01-.244.281h2.494c.15 0 .266-.132.244-.28z" fill="#13B766"/>
  <path d="M13.7 17.428h-2.657a2.066 2.066 0 01-2.066-2.066v-2.087h6.79v2.087a2.066 2.066 0 01-2.067 2.066z" fill="#FFCBBE"/>
  <path d="M14.315 13.275v2.085a2.069 2.069 0 01-2.069 2.068h1.451a2.069 2.069 0 002.069-2.068v-2.085h-1.451z" fill="#FDAD9D"/>
  <path d="M18.488 8.304c-.253-.096-.534-.055-.803.091V5.429c0-.697-.565-1.261-1.261-1.261H8.32c-.697 0-1.262.564-1.262 1.261v2.966c-.268-.146-.55-.187-.803-.091-.613.232-.992 1.241-.639 2.175.236.623.9 1.03 1.497 1.164a4.406 4.406 0 004.35 3.708h1.817a4.406 4.406 0 004.35-3.708c.598-.133 1.261-.54 1.497-1.164.353-.934-.026-1.943-.639-2.175z" fill="#FFCBBE"/>
  <path d="M18.488 8.304c-.253-.096-.535-.055-.803.091V5.429c0-.697-.565-1.261-1.262-1.261h-1.538c.696 0 1.261.564 1.261 1.261v5.518a4.405 4.405 0 01-4.405 4.405h1.539a4.406 4.406 0 004.35-3.709c.597-.133 1.26-.54 1.496-1.164.354-.934-.025-1.943-.638-2.175z" fill="#FDAD9D"/>
  <path d="M12.372 4.82c2.138 0 4.048.973 5.313 2.5V4.578c0-1.148-.89-2.1-2.037-2.175l-6.267-.411a2.18 2.18 0 00-2.322 2.175v3.151a6.883 6.883 0 015.313-2.499z" fill="#FDB143"/>
  <path d="M15.648 2.404l-1.221-.08a2.384 2.384 0 011.08 1.996v1.252a6.926 6.926 0 012.178 1.747V4.58c0-1.148-.89-2.1-2.037-2.175z" fill="#FA9801"/>
  <path d="M23.494 21.683a7.441 7.441 0 00-7.366-6.364h-.024v-.564a4.713 4.713 0 001.82-2.843c.577-.184 1.252-.61 1.518-1.313.398-1.05 0-2.295-.835-2.61a1.169 1.169 0 00-.585-.06V4.579c0-.687-.286-1.353-.785-1.826a.337.337 0 10-.464.489c.37.352.574.826.574 1.337v1.887a7.212 7.212 0 00-4.976-1.983 7.212 7.212 0 00-4.976 1.983V4.168c0-.515.207-.993.583-1.345a1.822 1.822 0 011.38-.494l6.176.406a.337.337 0 10.044-.673l-6.176-.406a2.49 2.49 0 00-1.885.675 2.492 2.492 0 00-.796 1.837V7.929a1.17 1.17 0 00-.585.06c-.835.315-1.233 1.56-.835 2.61.266.702.941 1.13 1.519 1.313a4.73 4.73 0 001.82 2.846v.56h-.768c-1.8 0-3.536.652-4.89 1.833a7.441 7.441 0 00-2.476 4.532.581.581 0 00.579.666h18.15a.337.337 0 100-.674H1.19c.525-3.247 3.379-5.682 6.682-5.682h.853a2.41 2.41 0 002.32 1.772h2.652a2.41 2.41 0 002.321-1.772h.11c3.303 0 6.157 2.435 6.682 5.682h-2.002a.337.337 0 100 .674h2.107a.585.585 0 00.579-.666zm-9.796-4.592h-2.653a1.733 1.733 0 01-1.731-1.731v-.185c.184.093.374.175.572.245a.338.338 0 00.43-.206.337.337 0 00-.206-.43 4.06 4.06 0 01-2.664-3.194.337.337 0 00-.26-.276c-.485-.109-1.062-.446-1.254-.954-.289-.762.006-1.575.442-1.74.19-.073.39-.001.523.071a.337.337 0 00.498-.296v-.951a6.543 6.543 0 014.976-2.287c1.92 0 3.727.832 4.976 2.287v.95a.337.337 0 00.499.297c.133-.072.332-.144.523-.072.436.166.73.979.442 1.741-.192.508-.769.845-1.255.954a.338.338 0 00-.26.276 4.046 4.046 0 01-4.016 3.424h-1.682a.337.337 0 100 .675h1.682c.752 0 1.488-.18 2.149-.516v.187c0 .954-.777 1.731-1.732 1.731z" fill="#000"/>
  <path d="M10.38 9.502a.64.64 0 10-.372-1.225.64.64 0 00.371 1.225zM15.102 9.226a.64.64 0 10-1.09-.673.64.64 0 001.09.673zM13.792 12.097a.337.337 0 00-.422-.526c-.286.229-.631.35-.998.35s-.713-.121-.998-.35a.337.337 0 10-.423.526c.401.322.906.499 1.42.499.515 0 1.02-.178 1.42-.5z" fill="#000"/>
</svg>
