<svg width="24" height="24" fill="none" xmlns="http://www.w3.org/2000/svg">
  <defs/>
  <g fill-rule="evenodd" clip-rule="evenodd">
    <path d="M2.071 19.087l-1.113 2.33c-.08.167-.118.344-.118.52v.003c0 .454.256.892.692 1.101.605.29 1.336.03 1.625-.574l1.423-2.98-1.002-1.175-1.507.775zM15.124 19.487l1.425 2.98c.288.605 1.02.863 1.624.574a1.222 1.222 0 00.574-1.624l-1.112-2.33-1.447-.775-1.064 1.175z" fill="#FCC368"/>
    <path d="M1.394 17.68c0 .567.264 1.075.677 1.407.31.25.702.4 1.13.4h13.303a1.8 1.8 0 001.13-.4c.412-.332.677-.84.677-1.408 0-.994-.813-1.806-1.807-1.806H3.202c-.995 0-1.808.812-1.808 1.806z" fill="#FFDDA6"/>
    <path d="M18.31 17.68c0-.995-.812-1.807-1.807-1.807h-1.23c.995 0 1.808.812 1.808 1.806a1.797 1.797 0 01-.677 1.408 1.8 1.8 0 01-1.13.4h1.23a1.8 1.8 0 001.13-.4h-.002a1.81 1.81 0 00.679-1.408z" fill="#FCC368"/>
    <path d="M18.747 21.417l-1.113-2.33a1.8 1.8 0 01-1.13.4l1.6 3.585.069-.03a1.222 1.222 0 00.574-1.625zM3.157 22.467l1.422-2.977v-.003H3.202a1.63 1.63 0 01-.082-.003l-1.587 3.557c.605.29 1.336.03 1.625-.574z" fill="#EDA93B"/>
    <path d="M20.386 2.198c-.967.35-1.677 1.406-2.319 2.653.81 1.606 3.197.753 3.854-.222.981-1.034-.191-2.919-1.535-2.431z" fill="#64B0D9"/>
    <path d="M20.021 5.316c-.556.232-1.124.798-1.203 1.61 1.291.546 2.513.903 3.48.553 1.345-.487 1.039-2.686-.377-2.85l-1.166.421-.734.266z" fill="#4A83C9"/>
    <path d="M9.852.84C5.18.84 1.394 4.58 1.394 9.196c0 2.727 1.322 5.15 3.368 6.676a8.492 8.492 0 005.09 1.681c1.91 0 3.674-.626 5.09-1.681 2.047-1.527 3.37-3.95 3.37-6.676 0-4.616-3.788-8.358-8.46-8.358z" fill="#64B0D9"/>
    <path d="M9.851 2.879c-3.53 0-6.393 2.828-6.393 6.318 0 3.488 2.863 6.317 6.393 6.317 3.532 0 6.395-2.829 6.395-6.317 0-3.49-2.863-6.318-6.395-6.318z" fill="#E6E6E6"/>
    <path d="M9.852 5.047c-2.32 0-4.2 1.857-4.2 4.15 0 2.291 1.88 4.149 4.2 4.149 2.32 0 4.2-1.858 4.2-4.15 0-2.292-1.88-4.15-4.2-4.15z" fill="#64B0D9"/>
    <path d="M9.852 7.398a1.81 1.81 0 00-1.82 1.799c0 .993.815 1.797 1.82 1.797 1.005 0 1.82-.804 1.82-1.797a1.81 1.81 0 00-1.82-1.799zM11.891 8.261c-.619-1.707 7.511-4.65 8.13-2.945.617 1.706-7.513 4.651-8.13 2.945z" fill="#F78411"/>
    <path d="M15.14 5.642c-.402.157-.793.329-1.157.51l.838 2.396a14.107 14.107 0 001.923-.601l-.924-2.553c-.229.078-.457.16-.68.248z" fill="#FFDDA6"/>
    <path d="M15.138 5.642a6.374 6.374 0 00-1.865-1.783c.384.672.692 1.41.912 2.195.304-.146.625-.284.953-.412z" fill="#C2C7CC"/>
    <path d="M17.175 5.011A8.471 8.471 0 0010.396.856c1.161.692 2.153 1.731 2.878 3.003a6.372 6.372 0 011.865 1.783 13.845 13.845 0 012.037-.631zM18.31 9.197a8.27 8.27 0 00-.21-1.859 13.922 13.922 0 01-1.94.821c.057.338.086.683.086 1.035v.003a6.236 6.236 0 01-.928 3.28 6.405 6.405 0 01-2.665 2.4c-.27.36-.562.692-.875.996a7.224 7.224 0 01-2.647 1.65 8.496 8.496 0 005.812-1.651c2.045-1.526 3.368-3.948 3.368-6.675z" fill="#4A83C9"/>
    <path d="M16.247 9.194c0-.352-.03-.697-.085-1.035h-.002c-.45.154-.904.287-1.34.389-.084.02-.17.038-.254.055.003.097.004.194.004.292 0 2.297-.724 4.393-1.916 5.982a6.412 6.412 0 002.665-2.4l.01-.017.015-.026a6.234 6.234 0 00.903-3.237v-.003z" fill="#C2C7CC"/>
    <path d="M20.021 5.712a.603.603 0 000-.396c-.069-.19-.23-.322-.463-.404-.117.232-.343.474-.646.716a7.47 7.47 0 01-1.108.71c-.432.23-.912.449-1.409.644l.35.964c.475-.184.936-.39 1.356-.608v-.001c.258-.133.498-.271.717-.411.631-.404 1.08-.827 1.203-1.214z" fill="#F74311"/>
    <path d="M16.745 7.947l-.35-.965a14.303 14.303 0 01-1.91.606l.336.96c.436-.102.889-.235 1.34-.389.195-.066.391-.137.584-.212z" fill="#FCC368"/>
    <path d="M14.82 8.547l-.335-.96c-.24.058-.476.106-.702.144-.755.129-1.41.142-1.833-.008-.096.187-.12.369-.06.538.185.51 1.04.605 2.132.44.176-.025.358-.058.543-.098.085-.017.17-.035.255-.056z" fill="#F74311"/>
  </g>
  <path d="M23.486 5.926c-.069-.589-.407-1.214-1.02-1.494.291-.61.15-1.307-.175-1.803-.47-.717-1.282-1.019-2.021-.75-1.091.395-1.838 1.546-2.423 2.66a9.755 9.755 0 00-.507.09 8.803 8.803 0 00-3.03-2.932A8.87 8.87 0 009.851.5C5.001.5 1.054 4.402 1.054 9.197a8.628 8.628 0 002.779 6.337h-.631a2.149 2.149 0 00-2.148 2.145c0 .578.23 1.102.603 1.489L.652 21.27c-.179.373-.2.796-.062 1.19A1.547 1.547 0 002.055 23.5a1.56 1.56 0 001.408-.886l1.33-2.785 4.603.008a.34.34 0 000-.68l-4.778-.007a.333.333 0 00-.073 0l-1.343-.002c-.345 0-.663-.121-.914-.322l-.017-.013a1.465 1.465 0 01.93-2.6H4.66a8.818 8.818 0 005.193 1.681 8.82 8.82 0 005.194-1.681h1.458a1.465 1.465 0 01.914 2.614c-.251.2-.57.32-.915.32l-1.341.003a.34.34 0 00-.078 0l-4.134.008a.34.34 0 00.001.679l3.96-.008 1.331 2.785a1.56 1.56 0 002.077.734c.374-.179.657-.494.796-.888a1.545 1.545 0 00-.062-1.19l-1.004-2.102c.372-.387.602-.911.602-1.489a2.15 2.15 0 00-2.147-2.146h-.632a8.628 8.628 0 002.615-8.017c.125-.07.246-.14.361-.21.835.345 1.746.652 2.596.652.335 0 .661-.048.97-.16.74-.268 1.171-1.02 1.072-1.872zM4.04 19.828l-1.19 2.493a.88.88 0 01-1.172.414.874.874 0 01-.449-.5.87.87 0 01.035-.672l.946-1.98c.296.155.633.243.99.244l.84.001zm14.434 2.406a.88.88 0 01-1.62.087l-1.192-2.493.841-.001c.357 0 .694-.09.99-.244l.947 1.98c.1.21.113.449.034.671zm2.026-19.717c.54-.196.996.138 1.222.484.248.378.337.929 0 1.339l-1.559.564c-.273-.31-.777-.457-1.504-.44.473-.834 1.08-1.672 1.841-1.947zM9.852 17.215c-4.477 0-8.119-3.597-8.119-8.018 0-4.421 3.642-8.018 8.12-8.018a8.181 8.181 0 016.785 3.615c-.3.08-.609.172-.922.278-.004 0-.007.002-.011.003l-.005.002c-.11.037-.219.075-.329.115l-.11.04A6.76 6.76 0 009.852 2.54C6.14 2.54 3.12 5.526 3.12 9.197c0 3.67 3.02 6.656 6.733 6.656a6.74 6.74 0 004.662-1.852.34.34 0 00-.468-.493 6.065 6.065 0 01-4.194 1.667c-3.338 0-6.054-2.682-6.054-5.978 0-3.297 2.716-5.979 6.054-5.979 1.86 0 3.607.844 4.752 2.275-.509.216-.979.449-1.39.688a4.54 4.54 0 00-3.362-1.473c-2.503 0-4.54 2.013-4.54 4.49 0 2.474 2.037 4.487 4.54 4.487s4.54-2.013 4.54-4.488c0-.07-.003-.141-.006-.212.464-.085.967-.211 1.491-.375a5.915 5.915 0 01-.848 3.689.34.34 0 00.579.356 6.594 6.594 0 00.928-4.268c.109-.039.216-.08.322-.12h.002l.006-.003c.348-.135.68-.277.99-.425.077.447.116.902.116 1.358 0 4.421-3.643 8.018-8.12 8.018zm6.459-9.468a29.068 29.068 0 01-1.271.397l-.636-1.817a28.768 28.768 0 011.198-.497l.013-.004.696 1.92zM9.45 9.145a.34.34 0 00.435.203l1.402-.507c.03.114.045.233.045.356 0 .804-.664 1.458-1.48 1.458a1.47 1.47 0 01-1.48-1.458c0-.805.663-1.46 1.48-1.46.442 0 .84.194 1.112.499l-1.31.474a.34.34 0 00-.204.435zm.401-2.086c-1.19 0-2.159.96-2.159 2.138s.969 2.137 2.16 2.137c1.19 0 2.16-.959 2.16-2.137 0-.113-.01-.223-.027-.331.143.087.33.16.573.203.171.03.365.045.578.045.178 0 .37-.01.574-.031l.001.114c0 2.1-1.731 3.81-3.86 3.81-2.129 0-3.86-1.71-3.86-3.81 0-2.101 1.731-3.81 3.86-3.81 1.06 0 2.055.42 2.781 1.166l-.018.014c-.105.074-.447.357-.448.357-.355.322-.565.636-.63.938a2.165 2.165 0 00-1.685-.803zm2.359 1.087c-.021-.052-.01-.112-.01-.113.032-.233.333-.627 1.125-1.125l.004-.003c.144-.09.298-.18.463-.27l.58 1.662c-.13.026-1.767.413-2.162-.151zm6.424-1.506a12.914 12.914 0 01-1.691.86l-.685-1.89c.796-.247 1.56-.409 2.167-.454.126-.01.242-.014.347-.014.6 0 .875.141.929.29.055.152-.077.354-.197.496-.19.226-.49.469-.87.712zm3.547.52c-.762.276-1.736.034-2.662-.317.203-.161.373-.321.505-.478.267-.317.36-.596.368-.822l1.562-.565c.52.099.804.578.856 1.027.048.41-.088.96-.63 1.156z" fill="#000"/>
</svg>
