<svg width="24" height="24" fill="none" xmlns="http://www.w3.org/2000/svg">
  <defs/>
  <path d="M8.417 16.364l2.13-2.13a.591.591 0 01-.835-.837l2.277-2.277-.03-.03a1.584 1.584 0 00-1.182-.462l-.572.023-.906-.906-1.085 1.084-1.986 1.987.905.906.079.744c.052.5.275.968.631 1.324l.574.574z" fill="#F7B081"/>
  <g fill="#DD9A76">
    <path d="M9.264 12.949a.591.591 0 00.29.994.59.59 0 01.159-.546l2.277-2.277-.03-.03a1.583 1.583 0 00-.5-.337L9.263 12.95zM9.713 14.233l-.03-.032-1.713 1.714.448.449 2.13-2.13a.591.591 0 01-.835 0z"/>
  </g>
  <g fill="#FFC89F">
    <path d="M12.567 19.359l-.133.133a.629.629 0 01-.887 0l-.006-.007a.629.629 0 010-.886l-.777.777a.629.629 0 01-.886 0l-.007-.007a.629.629 0 010-.886l-.529.528a.629.629 0 01-.886 0l-.007-.006a.629.629 0 010-.887l.362-.362a.629.629 0 01-.886 0l-.007-.006a.629.629 0 010-.887l3.975-3.974.003-.003-1.348 1.347a.591.591 0 01-.836-.836l2.328-2.328c.313-.312.742-.48 1.183-.463l.572.023.906-.906 1.508 1.508 1.563 1.563-.905.906-.079.744c-.053.5-.276.968-.631 1.324l-.16.16"/>
    <path d="M13.613 19.547a.606.606 0 01-.858 0l-.954-.955a.606.606 0 01.857-.858l.955.955a.606.606 0 010 .858z"/>
  </g>
  <path d="M11.718 17.837a.606.606 0 00.082.755l.955.955c.205.205.52.232.755.082l-1.792-1.792z" fill="#F7B081"/>
  <path d="M14.7 18.92a.606.606 0 01-.858 0l-1.287-1.288a.606.606 0 11.857-.857l1.287 1.287a.606.606 0 010 .857z" fill="#FFC89F"/>
  <path d="M12.472 16.877a.606.606 0 00.082.755l1.288 1.287c.205.205.52.233.755.082l-2.125-2.124z" fill="#F7B081"/>
  <path d="M11.8 18.592a.606.606 0 01.854-.86l-.1-.1a.606.606 0 11.857-.857l.086.085a.606.606 0 01.865-.85l.426.425.001-.001a.606.606 0 01.885-.827l.18.18-.629-.629a.606.606 0 00-.884.827l-.002.002-.425-.426a.606.606 0 00-.865.85l-.086-.085a.606.606 0 00-.858.857l.1.1a.606.606 0 00-.854.86l.955.955-.506-.506z" fill="#DD9A76"/>
  <path d="M15.52 18.024a.606.606 0 01-.858 0l-1.157-1.157a.606.606 0 01.857-.857l1.157 1.157a.606.606 0 010 .857z" fill="#FFC89F"/>
  <path d="M13.424 16.112a.606.606 0 00.081.755l1.158 1.157c.205.205.52.232.755.082l-1.994-1.994z" fill="#F7B081"/>
  <path d="M16.303 17.093a.606.606 0 01-.857 0l-.629-.63a.606.606 0 01.857-.857l.63.63a.606.606 0 010 .857z" fill="#FFC89F"/>
  <path d="M14.83 15.803a83.396 83.396 0 01-.095-.094.606.606 0 00.082.755l.629.629c.205.205.52.232.755.082l-1.372-1.372z" fill="#F7B081"/>
  <path d="M8.287 8.122l-3.625 3.625 1.317 1.318L9.605 9.44 8.287 8.122z" fill="#EFE7E4"/>
  <path d="M5.98 13.065l.448-.449L5.11 11.3l-.448.448 1.317 1.318z" fill="#D8D1D0"/>
  <path d="M14.395 9.418l3.625 3.625 1.318-1.317L15.713 8.1l-1.318 1.317z" fill="#EFE7E4"/>
  <path d="M19.34 11.726l-.45-.448-1.317 1.317.449.448 1.317-1.317z" fill="#D8D1D0"/>
  <path d="M5.167 4.297l-4.33 4.33L4.309 12.1l4.33-4.33-3.472-3.473z" fill="#546F7A"/>
  <path d="M4.308 12.1l.449-.448-3.472-3.473-.449.449L4.308 12.1z" fill="#465A65"/>
  <path d="M15.361 7.748l4.33 4.33 3.473-3.472-4.33-4.33-3.473 3.472z" fill="#546F7A"/>
  <path d="M23.163 8.606l-.448-.448-3.472 3.472.448.448 3.472-3.472z" fill="#465A65"/>
  <path d="M4.28 10.71a.382.382 0 100-.763.382.382 0 000 .763z" fill="#000"/>
  <path d="M23.401 8.368l-4.33-4.33a.336.336 0 00-.476 0l-1.607 1.607a.336.336 0 10.476.476l1.37-1.37 3.854 3.855-2.997 2.997-.114-.114-3.626-3.626-.115-.115.882-.881a.336.336 0 10-.475-.476l-1.12 1.12a.336.336 0 000 .475l.115.115-1.08 1.08a.336.336 0 000 .475l.067.067-.563.564-.426-.017a1.925 1.925 0 00-1.25.4 1.926 1.926 0 00-1.223-.378l-.425.017-.563-.564.067-.067a.336.336 0 000-.476l-1.08-1.08.115-.114a.336.336 0 000-.476L5.405 4.06a.336.336 0 00-.476 0L.599 8.39a.336.336 0 000 .476l.801.801a.336.336 0 10.476-.475l-.564-.564 3.855-3.855L8.163 7.77l-.114.114-3.626 3.626-.114.114-1.667-1.666a.336.336 0 00-.475.476l1.904 1.904a.336.336 0 00.476 0l.114-.115 1.08 1.08a.336.336 0 00.476 0l.01-.011.584.583.066.626c.06.575.32 1.117.729 1.527l.336.336-.262.261a.964.964 0 000 1.363l.007.006a.958.958 0 00.311.209.966.966 0 00.214 1.04l.006.006a.965.965 0 001.235.108.962.962 0 00.18.25l.007.007a.965.965 0 001.362 0l.127-.127a.962.962 0 00.174.236l.007.007a.96.96 0 001.25.094.94.94 0 001.519-.411.94.94 0 00.858-.256.94.94 0 00.274-.628.937.937 0 00.822-.936.944.944 0 00.508-1.595l-.07-.071c.365-.399.595-.909.652-1.448l.066-.625.583-.584.012.011a.336.336 0 00.475 0l1.08-1.079.114.115a.336.336 0 00.476 0l3.473-3.473a.337.337 0 000-.476zm-18.264 3.38l3.15-3.15.841.842-.066.066-3.072 3.072-.011.011-.842-.841zm2.944 3.804c-.3-.3-.49-.699-.535-1.122l-.078-.743a.337.337 0 00-.097-.203l-.668-.668L9.3 10.22l.668.668a.336.336 0 00.251.099l.572-.023c.247-.01.49.055.698.181L9.474 13.16a.955.955 0 00-.063.07l-.008.011a.937.937 0 00-.047.065l-.002.002a.92.92 0 000 1.017l.002.002a.941.941 0 00.048.065l.007.01c.02.024.04.048.063.07l.01.01c.06.058.126.107.196.145l-1.262 1.262-.337-.336zm3.704 3.702l-.006-.006a.288.288 0 01-.076-.277l.36.359a.29.29 0 01-.278-.076zm1.59.055a.27.27 0 01-.382 0l-.188-.188-.767-.767a.268.268 0 010-.381.268.268 0 01.378-.003l.961.96a.268.268 0 01-.002.379zm1.086-.628a.27.27 0 01-.381 0l-.228-.227-.002-.002-.954-.955-.004-.003-.1-.1a.268.268 0 010-.381.268.268 0 01.382 0L14.46 18.3a.27.27 0 010 .381zm.82-.895a.27.27 0 01-.38 0l-1.158-1.157a.27.27 0 01.382-.381l1.157 1.157a.27.27 0 010 .381zm.784-.931a.268.268 0 01-.381 0l-.63-.629a.268.268 0 010-.382.268.268 0 01.382 0l.63.63a.27.27 0 010 .381zm.564-3.393a.336.336 0 00-.097.203l-.078.744c-.041.386-.204.752-.46 1.041l-.082-.081a.936.936 0 00-.667-.276.936.936 0 00-.845.527.944.944 0 00-1.392.642l-.025-.001a.936.936 0 00-.666.276.936.936 0 00-.276.666l.001.036a.936.936 0 00-.48.258.936.936 0 00-.255.86l-.004.004-.001.001-.776.776a.29.29 0 01-.41 0l-.007-.007a.288.288 0 01-.084-.205c0-.078.03-.151.084-.205l2.856-2.857a.336.336 0 10-.476-.475l-2.856 2.856-.528.528a.29.29 0 01-.411 0l-.007-.006a.288.288 0 01-.084-.206c0-.078.03-.15.084-.205l.362-.362 3.023-3.023a.336.336 0 00-.475-.476L8.573 17.52a.29.29 0 01-.41 0l-.007-.007a.29.29 0 010-.41l.5-.5 2.13-2.13.335-.336 1.013-1.012a.336.336 0 00-.476-.476l-.002.002h-.001l-1.345 1.345-.007.006a.242.242 0 01-.032.027l-.01.005a.264.264 0 01-.035.018l-.006.002a.257.257 0 01-.135.013h-.004a.253.253 0 01-.04-.013c-.002 0-.004 0-.007-.002a.26.26 0 01-.034-.018l-.01-.005a.258.258 0 01-.072-.072l-.004-.008a.251.251 0 01-.02-.037l-.001-.004a.256.256 0 010-.184l.001-.004a.262.262 0 01.02-.037l.004-.007a.25.25 0 01.032-.04l2.328-2.328c.245-.246.585-.379.932-.364l.572.022a.338.338 0 00.251-.098l.668-.668.885.885.385.385 1.326 1.325-.668.668zm1.392-.894l-.01-.01v-.001l-.002-.001-1.562-1.563-1.508-1.508-.067-.067.841-.841 3.15 3.15-.842.84z" fill="#000"/>
</svg>
