<svg width="24" height="24" fill="none" xmlns="http://www.w3.org/2000/svg">
  <defs/>
  <g fill-rule="evenodd" clip-rule="evenodd">
    <path d="M1.607 15.6l7.116.987 6.159-.987 1.436-4.146-1.436-4.995H2.034a.428.428 0 00-.427.427V15.6z" fill="#ECECEC"/>
    <path d="M18.864 5.97l-3.982-.46v1.737l2.359.665 2.359-.665v-.54c0-.406-.335-.69-.736-.736z" fill="#ACACAC"/>
    <path d="M1.607 11.434h6.637v1.67H1.607v-1.67zM8.244 11.434h6.638v1.67H8.244v-1.67z" fill="#FFD659"/>
    <path d="M14.882 7.247V15.6l3.505.786 3.64-.786V8.784c0-1.225-1.304-1.537-1.867-1.537h-5.278z" fill="#FE636E"/>
    <path d="M5.142 15.601H1.605a.77.77 0 00-.768.768.77.77 0 00.768.768h2.85a2.404 2.404 0 01.687-1.536z" fill="#ACACAC"/>
    <path d="M22.028 8.784c0-1.225-1.305-1.537-1.868-1.537h-1.01c.564 0 1.87.312 1.87 1.537v.033h1.008v-.033zM21.021 11.33v1.447h1.009V11.33l-1.009-.004v.004zM21.021 14.072h1.009v1.53h-1.009v-1.53z" fill="#FB2A39"/>
    <path d="M18.864 5.97l-1.11-.128c.402.046.736.33.736.736v.669h1.11v-.54c0-.406-.335-.69-.736-.736z" fill="#838383"/>
    <path d="M22.028 8.817h-3.542a.519.519 0 00-.517.517l-.002 1.469a.518.518 0 00.515.516l3.546.012V8.817z" fill="#A6E7F0"/>
    <path d="M21.021 8.817v2.51l1.009.004V8.817h-1.009z" fill="#6BD9E7"/>
    <path d="M20.689 12.777a.472.472 0 00-.471.47v.354c0 .259.212.471.47.471h1.342v-1.295h-1.341z" fill="#A6E7F0"/>
    <path d="M21.021 12.777h1.009v1.295h-1.009v-1.295z" fill="#6BD9E7"/>
    <path d="M13.545 6.46v4.974h1.337V6.459h-1.337z" fill="#CECECE"/>
    <path d="M13.545 11.434h1.337v1.67h-1.337v-1.67z" fill="#FFBF00"/>
    <path d="M13.545 13.105h1.337V15.6h-1.337v-2.495z" fill="#CECECE"/>
    <path d="M22.027 15.6h-2.369c.394.401.648.94.686 1.536h2.047a.771.771 0 00.77-.768.771.771 0 00-.77-.768h-.364zM14.882 15.6H7.687c.394.401.649.94.687 1.536h8.055a2.397 2.397 0 01.686-1.536h-2.233z" fill="#ACACAC"/>
    <path d="M4.695 15.6a2.404 2.404 0 00-.693 1.69 2.412 2.412 0 104.134-1.69l-.05-.048a2.4 2.4 0 00-1.672-.673 2.404 2.404 0 00-1.72.721z" fill="#838383"/>
    <path d="M8.086 15.552a2.4 2.4 0 00-2.156-.624c.483.08.918.302 1.26.624l.018.016.048.049a2.404 2.404 0 01.693 1.691A2.413 2.413 0 016.02 19.67a2.411 2.411 0 002.115-4.07l-.05-.048z" fill="#595959"/>
    <path d="M6.414 16.333a.958.958 0 10.001 1.916.958.958 0 000-1.916z" fill="#ECECEC"/>
    <path d="M20.106 15.6a2.402 2.402 0 00-1.72-.721 2.407 2.407 0 00-2.407 2.257 2.411 2.411 0 002.407 2.566 2.412 2.412 0 001.72-4.102z" fill="#838383"/>
    <path d="M20.058 15.552a2.41 2.41 0 00-2.158-.624c.484.08.92.302 1.26.624l.019.016.05.05a2.4 2.4 0 01.69 1.69 2.414 2.414 0 01-1.926 2.362 2.412 2.412 0 002.806-2.38 2.404 2.404 0 00-.693-1.69l-.048-.048z" fill="#595959"/>
    <path d="M19.344 17.344a.958.958 0 10-1.916 0 .958.958 0 001.916 0z" fill="#ECECEC"/>
  </g>
  <path d="M6.414 15.994a1.298 1.298 0 000 2.595 1.3 1.3 0 001.298-1.298c0-.715-.582-1.297-1.298-1.297zm0 1.916a.62.62 0 11.002-1.239.62.62 0 01-.002 1.239zM18.387 16.047a1.3 1.3 0 00-1.298 1.297 1.298 1.298 0 101.298-1.298zm0 1.915a.62.62 0 110-1.238.62.62 0 010 1.238z" fill="#000"/>
  <path d="M22.392 15.261h-.025v-3.905l.001-.024V8.785c0-.656-.31-1.182-.892-1.522a2.773 2.773 0 00-1.316-.355h-.22v-.201c0-.553-.437-1.005-1.037-1.073l-3.756-.435c-.17-.566-.653-1.24-1.73-1.24a.34.34 0 100 .678c1.018 0 1.116.88 1.125 1.006v.477H8.631a.34.34 0 000 .68h5.911v4.295H1.947V6.886c0-.047.04-.087.087-.087H7.05a.34.34 0 000-.679H2.034a.767.767 0 00-.766.766v8.429a1.109 1.109 0 00.34 2.161h2.061a2.755 2.755 0 002.745 2.566 2.755 2.755 0 002.745-2.566h2.392a.34.34 0 100-.679h-2.43a2.73 2.73 0 00-.31-.857h7.18a2.73 2.73 0 00-.311.857h-2.597a.34.34 0 100 .68h2.558a2.755 2.755 0 002.745 2.565 2.755 2.755 0 002.745-2.566h1.26a1.11 1.11 0 001.109-1.108c0-.61-.497-1.107-1.108-1.107zm-.704-4.27l-3.204-.01a.18.18 0 01-.178-.177l.002-1.47a.18.18 0 01.178-.177h3.202v1.834zm0 2.742h-1a.133.133 0 01-.133-.131v-.354c0-.071.06-.132.132-.132h1.001v.617zm-.04-5.255h-3.162a.857.857 0 00-.857.856l-.002 1.468a.854.854 0 00.854.858l3.207.01v.767h-1.001a.811.811 0 00-.81.81v.355c0 .446.363.81.81.81h1.001v.85h-1.446a2.742 2.742 0 00-1.855-.722c-.715 0-1.367.274-1.856.721h-1.31V7.587h4.939c.014 0 1.25.027 1.488.891zM6.414 14.54c-.714 0-1.366.274-1.855.721H1.947v-1.816H14.542v1.816H8.27a2.742 2.742 0 00-1.856-.721zM19.26 6.707v.201h-4.039V5.891l3.604.417c.21.024.435.16.435.399zm-4.718 6.059H8.583v-.992h5.96v.992zm-6.638-.992v.992H1.947v-.992h5.957zM1.18 16.368c0-.236.192-.428.428-.428h2.411a2.73 2.73 0 00-.31.857h-2.1a.43.43 0 01-.43-.429zm5.235 2.995a2.075 2.075 0 01-2.073-2.072c0-1.143.93-2.072 2.073-2.072.575 0 1.095.234 1.47.613l.012.012c.366.373.591.884.591 1.447 0 1.142-.93 2.072-2.073 2.072zm11.973 0a2.075 2.075 0 01-2.073-2.072c0-1.143.93-2.072 2.073-2.072 1.143 0 2.073.93 2.073 2.072s-.93 2.072-2.073 2.072zm4.005-2.566h-1.299a2.726 2.726 0 00-.31-.857h1.609a.43.43 0 110 .857z" fill="#000"/>
</svg>
