<svg width="24" height="24" fill="none" xmlns="http://www.w3.org/2000/svg">
  <defs/>
  <path d="M16.151 13.653H7.575A6.738 6.738 0 00.837 20.39v1.262c0 .494.4.894.894.894h20.265c.494 0 .894-.4.894-.894v-1.262a6.738 6.738 0 00-6.739-6.738z" fill="#56449B"/>
  <path d="M16.146 13.653h-2.078a6.74 6.74 0 016.744 6.738v1.262c0 .494-.4.894-.895.894h2.078c.494 0 .895-.4.895-.894v-1.262a6.74 6.74 0 00-6.744-6.738z" fill="#473984"/>
  <path d="M21.347 12.215l-.665.427a9.25 9.25 0 00-1.546 1.243l-6.825 6.82h4.323l4.664-4.66c.469-.469.886-.986 1.245-1.544l.426-.665c.681-1.06-.561-2.301-1.622-1.62z" fill="#FDB143"/>
  <path d="M21.804 12.036c.33.36.45.913.122 1.425l-.427.664a9.251 9.251 0 01-1.245 1.544l-5.04 5.037h1.42l4.663-4.66c.47-.47.887-.987 1.245-1.545l.426-.664c.584-.91-.246-1.952-1.164-1.801z" fill="#FA9801"/>
  <path d="M20.515 16.828c-.64-.577-1.34-.82-1.617-.544-.278.277-.034.977.544 1.616l1.073-1.072z" fill="#FA9801"/>
  <path d="M18.88 17.042c.108.269.3.57.561.858l1.074-1.072a2.995 2.995 0 00-.86-.56l-.774.774z" fill="#F88604"/>
  <path d="M13.757 16.84H9.964a2.183 2.183 0 01-2.183-2.183v-4.26h8.159v4.26a2.183 2.183 0 01-2.183 2.183z" fill="#F0AEA0"/>
  <path d="M14.535 10.396v4.26a2.184 2.184 0 01-2.184 2.184h1.403a2.184 2.184 0 002.185-2.183v-4.26h-1.404z" fill="#E79C8A"/>
  <path d="M11.936 15.19c-2.031 0-5.234-3.124-5.234-6.012V3.765H17.17v5.412c0 2.889-3.203 6.012-5.234 6.012z" fill="#F0AEA0"/>
  <path d="M15.299 3.765v4.369c0 2.888-3.203 6.011-5.234 6.011-.217 0-.448-.035-.686-.103.863.705 1.792 1.147 2.556 1.147 2.032 0 5.234-3.123 5.234-6.011V3.765H15.3z" fill="#E79C8A"/>
  <path d="M15.777 1.451H8.095c-.77 0-1.393.624-1.393 1.393v3.235H17.17V2.844c0-.77-.623-1.393-1.393-1.393z" fill="#8479BF"/>
  <path d="M15.776 1.451h-2.347c.997 0 1.806.808 1.806 1.805v2.823h1.935V2.844c0-.77-.624-1.393-1.394-1.393z" fill="#7060B4"/>
  <path d="M18.663 6.079H6.703V4.593h11.96a.743.743 0 110 1.486z" fill="#56449B"/>
  <path d="M18.663 4.593H17.6a.743.743 0 110 1.486h1.062a.743.743 0 100-1.486z" fill="#473984"/>
  <path d="M18.173 19.168c-.64-.577-1.34-.82-1.617-.544-.277.277-.033.977.544 1.616l1.073-1.072z" fill="#FA9801"/>
  <path d="M16.54 19.382c.107.269.299.57.56.858l1.073-1.072a2.993 2.993 0 00-.86-.56l-.774.774z" fill="#F88604"/>
  <path d="M11.772 20.603H5.075v-2.049c0-.27.22-.49.49-.49h5.718c.27 0 .49.22.49.49v2.049z" fill="#A5E4EF"/>
  <path d="M11.282 18.065h-1.079c.27 0 .49.219.49.49v2.048h1.08v-2.049a.49.49 0 00-.49-.49z" fill="#67D8E4"/>
  <path d="M19.686 22.549H3.858v-2.194c0-.397.322-.72.72-.72h14.39c.397 0 .718.323.718.72v2.194z" fill="#D77D4B"/>
  <path d="M17.241 19.636v2.913h2.445v-2.227c0-.379-.322-.686-.72-.686h-1.725z" fill="#C56D36"/>
  <path d="M10.172 10.72a.337.337 0 00.052.473c.462.37 1.043.574 1.636.574s1.174-.204 1.636-.574a.337.337 0 10-.422-.525 1.921 1.921 0 01-1.214.426c-.447 0-.867-.148-1.214-.426a.337.337 0 00-.474.052zM9.739 8.93a.683.683 0 100-1.366.683.683 0 000 1.366zM14.03 8.93a.683.683 0 100-1.366.683.683 0 000 1.366z" fill="#000"/>
  <path d="M23.253 14.019a1.481 1.481 0 00-.204-1.884 1.484 1.484 0 00-1.885-.203l-.664.426a9.606 9.606 0 00-1.602 1.29l-.159.157a7.034 7.034 0 00-2.463-.487v-.704c.79-1.118 1.23-2.33 1.23-3.436V6.416h1.157c.595 0 1.08-.485 1.08-1.08 0-.595-.485-1.08-1.08-1.08h-1.156V2.845c0-.954-.777-1.73-1.731-1.73h-7.68c-.955 0-1.731.776-1.731 1.73v6.334c0 1.034.384 2.159 1.079 3.214v.926h-.028a7.042 7.042 0 00-4.896 2.124A7.033 7.033 0 00.5 20.391v1.262c0 .679.553 1.231 1.232 1.231l17.954.002c.186 0 .337-.151.337-.337v-2.194c0-.583-.474-1.056-1.056-1.056h-.449l2.752-2.75a6.404 6.404 0 011.283 3.842v1.262c0 .307-.25.557-.558.557h-.77a.337.337 0 100 .674h.77c.68 0 1.232-.552 1.232-1.23V20.39a7.077 7.077 0 00-1.479-4.327c.4-.427.762-.89 1.078-1.381l.427-.664zM7.039 4.93h7.317a.337.337 0 100-.674H7.039V2.844c0-.582.474-1.056 1.056-1.056h7.68c.583 0 1.057.474 1.057 1.056v1.412h-.903a.337.337 0 100 .674h2.734a.406.406 0 010 .812H7.039V4.93zm0 4.248V6.416h9.793v2.762c0 2.814-3.141 5.674-4.896 5.674s-4.897-2.86-4.897-5.674zm8.563 4.273v1.206a1.849 1.849 0 01-1.848 1.846H9.966a1.849 1.849 0 01-1.848-1.846V13.28c.062.072.126.143.191.214 1.157 1.253 2.547 2.031 3.627 2.031 1.08 0 2.47-.778 3.626-2.03l.04-.045zM3.521 20.355v1.855H1.73a.558.558 0 01-.557-.557v-1.262c0-3.449 2.805-6.319 6.254-6.4h.016v.666c0 1.39 1.131 2.52 2.522 2.52h3.789c1.39 0 2.521-1.13 2.521-2.52v-.666a6.372 6.372 0 011.938.34l-4.973 4.968H12.11v-.745a.828.828 0 00-.827-.826H8.09a.337.337 0 100 .674h3.192c.084 0 .153.068.153.152v.745H5.412v-.745c0-.084.069-.152.153-.152h1a.337.337 0 100-.674h-1a.828.828 0 00-.827.826v.745h-.16c-.583 0-1.057.473-1.057 1.056zm15.446-.382c.21 0 .382.171.382.382v1.855H4.195v-1.855c0-.211.172-.382.382-.382h14.39zm-2.173-1.11c.05-.05.397-.018.876.33l-.105.106h-.695c-.116-.268-.097-.416-.076-.437zm2.673-1.465c-.348-.479-.382-.826-.331-.876.01-.011.038-.018.078-.018.137 0 .428.08.798.35l-.545.544zm3.218-3.743l-.426.664a8.92 8.92 0 01-1.2 1.488l-.565.565c-.739-.572-1.454-.707-1.835-.326-.381.38-.246 1.096.326 1.834l-.833.832c-.739-.572-1.454-.707-1.835-.326-.212.212-.265.532-.16.913h-1.962l5.18-5.175a8.92 8.92 0 011.489-1.199l.665-.426c.418-.269.824-.107 1.044.112.22.22.38.625.112 1.044z" fill="#000"/>
</svg>
