<svg width="24" height="24" fill="none" xmlns="http://www.w3.org/2000/svg">
  <defs/>
  <path d="M13.14 15.432l.67 2.29a.873.873 0 01-.838 1.118h-1.278l-1.999-1.998-.39-3.545" fill="#FF6F52"/>
  <path d="M10.661 15.312l1.805 6.166a.873.873 0 01-.838 1.118H9.226a.873.873 0 01-.838-.628l-2.392-8.403" fill="#415E72"/>
  <path d="M20.696 19.052a13.58 13.58 0 00-9.36-3.74H5.925a3.165 3.165 0 01-3.165-3.165V8.309a3.165 3.165 0 013.165-3.164h5.41a13.58 13.58 0 009.36-3.741v17.648z" fill="#FCD577"/>
  <path d="M5.006 12.147V8.309a3.165 3.165 0 013.165-3.164H5.925A3.165 3.165 0 002.76 8.309v3.838a3.165 3.165 0 003.165 3.165H8.17a3.165 3.165 0 01-3.165-3.165z" fill="#EAC36E"/>
  <path d="M1.77 12.147h.99V8.693h-.99a.832.832 0 00-.833.832v1.79c0 .46.373.832.832.832z" fill="#415E72"/>
  <path d="M20.696 7.314a3.455 3.455 0 010 6.595" fill="#FCD577"/>
  <path d="M20.696 1.404v17.649a13.559 13.559 0 00-2.18-1.688V3.092a13.554 13.554 0 002.18-1.688z" fill="#FF6F52"/>
  <path d="M23.5 10.612a3.844 3.844 0 00-2.423-3.586V1.404a.41.41 0 00-.692-.297 13.117 13.117 0 01-9.077 3.628H6.356a.41.41 0 100 .819h4.952c2.399 0 4.717-.607 6.77-1.744v1.797a.41.41 0 10.819 0V3.319c.47-.305.926-.64 1.361-1.003V18.14a14.02 14.02 0 00-1.361-1.003V7.098a.41.41 0 10-.819 0v9.55a13.938 13.938 0 00-6.77-1.745H5.897a2.759 2.759 0 01-2.756-2.755V8.309c0-1.11.66-2.106 1.683-2.539a.41.41 0 00-.319-.754 3.569 3.569 0 00-2.182 3.268H1.74C1.057 8.284.5 8.841.5 9.525v1.79c0 .684.557 1.241 1.241 1.241h.606a3.579 3.579 0 003.55 3.165h4.429l1.718 5.872a.46.46 0 01-.074.408.46.46 0 01-.37.186H9.197a.466.466 0 01-.445-.334l-1.54-5.261a.41.41 0 00-.785.23l1.54 5.261a1.29 1.29 0 001.23.922H11.6c.408 0 .782-.187 1.026-.513.245-.326.32-.738.205-1.13l-.618-2.112h.731c.408 0 .782-.188 1.026-.514.245-.326.32-.737.205-1.129l-.489-1.671a13.11 13.11 0 016.7 3.413.41.41 0 00.692-.297v-4.855a3.844 3.844 0 002.423-3.585zm-22.181.703v-1.79c0-.233.19-.422.422-.422h.581v2.634h-.58a.423.423 0 01-.423-.422zm12.07 6.522a.46.46 0 01-.075.408.46.46 0 01-.37.186h-.972l-.793-2.71h.129c.5 0 .995.028 1.486.084l.594 2.032zm7.688-4.541V7.928a3.029 3.029 0 011.604 2.683 3.03 3.03 0 01-1.604 2.685z" fill="#000"/>
</svg>
