<svg width="24" height="24" fill="none" xmlns="http://www.w3.org/2000/svg">
  <defs/>
  <path d="M20.787 6.034a4.46 4.46 0 01-.48 2.038c-.713 1.387-1.172 2.888-1.422 4.428l-.013.076a1.029 1.029 0 01-.637.812c-.517.209-1.188.011-1.413-.641-.502-1.45-1.164-2.74-1.935-2.74-.771 0-1.434 1.29-1.935 2.74-.362 1.047-1.87.922-2.05-.171-.005-.025-.01-.05-.013-.076-.25-1.54-.71-3.04-1.423-4.428a4.467 4.467 0 01-.48-2.038c0-2.141 1.438-3.877 3.212-3.877.338 0 .663.063.969.18 1.102.42 2.338.42 3.44 0 .306-.117.631-.18.969-.18 1.773 0 3.211 1.736 3.211 3.877z" fill="#EEEBEE"/>
  <g fill="#D3CED5">
    <path d="M18.235 13.388c-.517.209-1.188.011-1.413-.64-.502-1.45-1.164-2.74-1.935-2.74 3.076-.746 2.533 3.377 3.348 3.38zM14.392 2.626a4.8 4.8 0 01-1.225-.29 2.707 2.707 0 00-.97-.179c-1.773 0-3.21 1.736-3.21 3.876 0 .748.175 1.447.48 2.039.712 1.387 1.172 2.888 1.421 4.428l.013.076c.098.598.595.906 1.085.89-1.223-.694-.094-4.518-.547-6.83-.436-2.224 2.137-4.048 2.953-4.01zM14.48 2.635h.005-.005z"/>
  </g>
  <path d="M22.616 15.526l-5.864 4.703c-.482.387-1.1.563-1.714.488l-7.902-.962-2.106.78c-1.13-1.164-.666-4.907-.666-4.907l.502-.137a1.901 1.901 0 011.062-1.832l3.39-1.655 1.742-.851a1.656 1.656 0 011.578 2.909L9.82 15.75l4.74.826c.571.099 1.158-.021 1.644-.337l4.715-3.06a1.45 1.45 0 011.697 2.347z" fill="#F1D0A5"/>
  <path d="M15.025 19.454c-3.246.421-5.484-1.482-6.838-3.273a1.909 1.909 0 01.492-2.76c3.27-2.095 4.115-2.018 4.563-1.57a1.656 1.656 0 00-2.182-.698l-1.743.851-2.747 1.341v.001l-.642.313a1.9 1.9 0 00-1.062 1.832l-.502.137s-.465 3.743.666 4.906l2.106-.779 7.903.962a2.296 2.296 0 001.713-.488l5.863-4.703c-2.026-.55-5.403 3.593-7.59 3.928z" fill="#F1B986"/>
  <path d="M3.663 15.157a6.832 6.832 0 00-2.822.997 55.328 55.328 0 002.01 5.689 6.83 6.83 0 002.822-.997 55.326 55.326 0 00-2.01-5.689z" fill="#80A6C6"/>
  <path d="M5.673 20.846a6.822 6.822 0 01-2.822.997 55.718 55.718 0 01-.582-1.46 7.26 7.26 0 002.944-1.03c.16.495.314.993.46 1.493z" fill="#5B8EB8"/>
  <path d="M23.436 13.92a1.791 1.791 0 00-2.703-1.027l-4.714 3.06c-.415.27-.913.371-1.4.287l-3.837-.669 2.03-1.217a1.992 1.992 0 00.83-2.448c.613-1.403 1.072-1.558 1.244-1.558.691 0 1.41 1.921 1.613 2.51a1.386 1.386 0 001.447.945 1.384 1.384 0 001.263-1.172l.012-.077c.256-1.574.723-3.03 1.389-4.326a4.815 4.815 0 00.518-2.195c0-2.325-1.594-4.217-3.553-4.217-.371 0-.738.068-1.09.202a4.474 4.474 0 01-3.197 0 3.046 3.046 0 00-1.03-.2.34.34 0 10-.012.68c.27.006.54.059.799.157a5.155 5.155 0 003.683 0c.274-.104.56-.157.847-.157 1.583 0 2.87 1.586 2.87 3.535 0 .67-.152 1.32-.442 1.883-.698 1.36-1.188 2.884-1.455 4.53l-.012.074a.695.695 0 01-.648.604.7.7 0 01-.745-.489c-.69-1.998-1.429-2.969-2.257-2.969-.606 0-1.16.514-1.682 1.567a1.985 1.985 0 00-2.294-.386l-.022.01a14.61 14.61 0 00-1.119-2.94 4.137 4.137 0 01-.442-1.883c0-1.423.69-2.702 1.756-3.258a.34.34 0 10-.315-.605c-1.29.672-2.123 2.188-2.123 3.863 0 .776.18 1.534.518 2.194.465.905.834 1.891 1.1 2.935l-4.483 2.19a2.24 2.24 0 00-1.255 1.879l-.416.114a51.139 51.139 0 00-.131-.32.341.341 0 00-.357-.207 7.2 7.2 0 00-2.96 1.046.341.341 0 00-.147.385 55.932 55.932 0 002.022 5.724.34.34 0 00.356.207 7.203 7.203 0 002.961-1.046A.341.341 0 006 20.75l-.056-.19 1.233-.457 7.82.952a2.651 2.651 0 001.969-.56L20.6 17.58a.34.34 0 10-.427-.532l-3.634 2.915c-.408.328-.94.479-1.46.415l-7.902-.961a.34.34 0 00-.16.018l-1.272.471a56.043 56.043 0 00-1.38-3.923l.592-.164a.34.34 0 00.249-.35 1.559 1.559 0 01.872-1.503l5.131-2.507a1.316 1.316 0 011.253 2.31l-2.817 1.689a.34.34 0 00.117.628l4.74.825a2.643 2.643 0 001.888-.386l4.715-3.06a1.102 1.102 0 011.48.25 1.109 1.109 0 01-.173 1.537l-.01.008-1.165.935a.34.34 0 10.427.532l1.154-.927.011-.008a1.792 1.792 0 00.607-1.872zm-20.37 7.548a55.29 55.29 0 01-1.823-5.157 6.508 6.508 0 012.206-.78A55.298 55.298 0 015.27 20.69a6.508 6.508 0 01-2.206.78z" fill="#000"/>
  <path d="M11.397 13.972a.87.87 0 00.41-.103l.422-.226a.34.34 0 10-.32-.601l-.423.225a.184.184 0 01-.238-.057 2.683 2.683 0 01-.373-.862.341.341 0 00-.67.13c.005.023.112.568.477 1.111a.859.859 0 00.715.383zM3.816 20.562a.344.344 0 00.332-.266c.07-.3-.282-.528-.53-.352a.344.344 0 00-.12.4c.05.13.178.218.318.218z" fill="#000"/>
</svg>
