<svg width="24" height="24" fill="none" xmlns="http://www.w3.org/2000/svg">
  <defs/>
  <path d="M13.523 15.487a1.062 1.062 0 001.063 1.065h6.127v-5.764h-7.177l-.013 4.7z" fill="#D3E8F1"/>
  <g fill="#8D93A4">
    <path d="M17.41 15.542h-1.485a.435.435 0 110-.869h1.486a.435.435 0 110 .87zM19.842 13.143H13.52v.87h6.32a.435.435 0 100-.87z"/>
  </g>
  <g fill="#CA98B3">
    <path d="M3.641 21.633h-.823a.638.638 0 01-.637-.637v-9.47h2.098v9.47a.637.637 0 01-.638.637zM21.762 19.71v1.285a.637.637 0 01-.637.638h-.823a.637.637 0 01-.638-.638v-9.47h2.098v5.867"/>
  </g>
  <g fill="#684C5F">
    <path d="M4.265 11.517H2.173v1.315h2.092v-1.315zM21.761 11.517H19.67v1.314h2.092v-1.314z"/>
  </g>
  <path d="M8.323 7.266h1.729c.402 0 .728.326.728.729v.954H8.02l-.846-1.343 1.149-.34z" fill="#8D93A4"/>
  <path d="M2.623 8.734v-3.97c0-.43.348-.778.777-.778H7.89c.43 0 .777.348.777.777v4.273l-3.225.76-2.818-1.062z" fill="#D3E8F1"/>
  <path d="M5.717 7.28a.664.664 0 100-1.326.664.664 0 000 1.327z" fill="#8D93A4"/>
  <path d="M15.787 4.916h-1.143a.684.684 0 00-.684.684v3.256h2.51V5.6a.684.684 0 00-.683-.684z" fill="#FFDFA1"/>
  <path d="M20.113 2.367H18.97a.684.684 0 00-.684.684v5.805h2.51V3.051a.684.684 0 00-.683-.684z" fill="#6BE8C7"/>
  <path d="M23.008 11.873H.934a.435.435 0 01-.435-.435v-2.36c0-.24.195-.435.435-.435h22.072c.24 0 .435.195.435.435v2.36c0 .24-.195.435-.434.435z" fill="#826075"/>
  <path d="M23.5 11.438v-2.36a.435.435 0 00-.435-.435H21.29V2.367a.434.434 0 00-.434-.435h-2.51a.435.435 0 00-.435.435v6.276h-.947V4.916a.435.435 0 00-.434-.434h-2.511a.435.435 0 00-.435.434v3.727h-2.31V7.266a.435.435 0 00-.434-.435H9.157V3.856a.435.435 0 00-.435-.435H2.68a.435.435 0 00-.434.435v4.748c0 .013 0 .026.002.04H.992a.435.435 0 00-.434.434v2.36c0 .24.194.435.434.435h.811v9.76c0 .24.195.435.435.435h2.098c.24 0 .435-.195.435-.435v-9.76h8.373v4.68c0 .24.194.434.434.434h5.709v4.646c0 .24.194.435.434.435h2.099c.24 0 .434-.195.434-.435V19.71a.435.435 0 00-.87 0v1.488h-1.228V11.96h1.229v5.433a.435.435 0 10.87 0v-5.52h.81c.24 0 .435-.195.435-.435zm-4.721-8.636h1.641v5.62H18.78v-5.62zM14.453 5.35h1.641v3.07h-1.642v-3.07zM3.9 21.199H2.672V11.96h1.23v9.238zM10.404 7.7v.942H9.158v-.942h1.246zm-7.29.903V4.291H8.29v4.352H3.113a.451.451 0 00.002-.039zm10.899 7.514v-2.103h5.274v2.103h-5.274zm5.274-2.973h-5.274v-1.272h5.274v1.272zm3.344-2.141H1.427V9.513H22.63v1.49z" fill="#000"/>
  <path d="M17.468 14.675h-1.486a.435.435 0 000 .87h1.486a.435.435 0 100-.87zM5.775 7.28a.664.664 0 100-1.326.664.664 0 000 1.327z" fill="#000"/>
</svg>
