<svg width="24" height="24" fill="none" xmlns="http://www.w3.org/2000/svg">
  <defs/>
  <path d="M15.5 6.23v1.468a.367.367 0 01-.367.367H7.696l-.061.735a.367.367 0 01.335.396l-.227 2.734h11.622c-.132-1.585-.62-7.437-.792-9.57-.05-.61-.607-1.126-1.217-1.126H9.75c-.61 0-1.168.516-1.218 1.126-.047.588-.118 1.453-.199 2.432a.367.367 0 01-.396.335l-.06.735h7.255c.203 0 .368.165.368.368z" fill="#F2EBD9"/>
  <path d="M14.767 6.597H3.594v.734h11.173v-.734z" fill="#98D9D5"/>
  <path d="M19.796 12.666a.329.329 0 01-.078-.002H7.345a.644.644 0 00-.001 1.286h12.42a.643.643 0 00.032-1.284z" fill="#FFCC75"/>
  <path d="M21.14 13.307c0-.641-.441-1.182-1.036-1.334-.118-1.414-.623-7.49-.8-9.672C19.224 1.308 18.35.5 17.355.5H9.751c-.994 0-1.869.808-1.95 1.801l-.198 2.43a.367.367 0 00.731.06l.2-2.43c.049-.611.607-1.127 1.217-1.127h7.604c.61 0 1.168.516 1.218 1.126.172 2.133.659 7.985.791 9.57H7.742l.228-2.734a.367.367 0 10-.732-.06 17395.1 17395.1 0 01-.236 2.837 1.381 1.381 0 00-.985.967h-.72a1.102 1.102 0 01-1.1-1.101V8.065h10.937a.367.367 0 00.367-.367V6.23a.367.367 0 00-.367-.367H3.226a.367.367 0 00-.367.367v1.468c0 .202.165.367.367.367h.237v3.774c0 1.012.823 1.835 1.835 1.835h.719c.129.465.495.83.96.96v8.499a.367.367 0 10.733 0V16.64h.815l.242.967c.139.556.696.99 1.268.99h7.037c.572 0 1.129-.434 1.268-.99l.242-.967h.814v6.492a.367.367 0 00.734 0v-8.5a1.379 1.379 0 001.01-1.326zM14.767 7.33H3.593v-.734h11.174v.734zm4.996 6.619H7.343a.643.643 0 010-1.286h12.374a.36.36 0 00.077.002.643.643 0 01-.03 1.284zM9.48 17.43l-.197-.789h2.324v1.223h-1.571a.63.63 0 01-.556-.434zm5.288-.789v1.223H12.34v-1.223h2.427zm2.86.79a.63.63 0 01-.555.433H15.5v-1.223h2.324l-.197.79zM7.71 15.906v-1.223h11.686v1.223H7.71z" fill="#082947"/>
</svg>
