<svg width="24" height="24" fill="none" xmlns="http://www.w3.org/2000/svg">
  <defs/>
  <path d="M8.031 3.29a.367.367 0 01-.417.072 5.071 5.071 0 00-4.208-.059l6.67 6.67a5.071 5.071 0 00-.059-4.208.367.367 0 01.072-.417l1.904-1.904-2.058-2.058L8.03 3.29z" fill="#F2484B"/>
  <path d="M2.729 3.664c-.208.131-.407.279-.596.442l7.14 7.14c.163-.189.31-.388.442-.595L2.73 3.664zM13.366 19.334h-.734v.735h.734v-.735z" fill="#98D9D5"/>
  <path d="M9.218 21.945l-.27.821h12.451l-.27-.821c-.204-.62-.927-1.142-1.58-1.142h-8.753c-.651 0-1.374.523-1.578 1.142z" fill="#F2484B"/>
  <path d="M20.162 10.787c0-.743-.604-1.346-1.346-1.346-.742 0-1.345.603-1.345 1.345 0 .743.603 1.346 1.345 1.346s1.346-.603 1.346-1.345zm-1.345.367a.367.367 0 110-.736.367.367 0 010 .736z" fill="#98D9D5"/>
  <path d="M18.925 10.436a.368.368 0 01-.108.717.368.368 0 00.108-.717z" fill="#FFCC75"/>
  <path d="M19.183 10.787a.368.368 0 00-.734 0 .367.367 0 00.734 0z" fill="#082947"/>
  <path d="M22.396 22.766h-.224l-.346-1.05c-.266-.808-1.063-1.462-1.909-1.614V12.55a2.08 2.08 0 00-1.57-3.79l-6.58-6.58c.332-.23.726-.354 1.14-.354a2 2 0 011.422.59c.44.439.65 1.046.575 1.664a.367.367 0 10.729.088 2.732 2.732 0 00-.785-2.272 2.729 2.729 0 00-1.942-.804c-.61 0-1.189.198-1.665.562L10.194.608a.367.367 0 00-.519 0L7.691 2.592a5.812 5.812 0 00-5.043.269 5.77 5.77 0 00-1.303.977.367.367 0 000 .518l7.678 7.678a.366.366 0 00.519 0 5.765 5.765 0 00.977-1.303c.84-1.53.962-3.392.268-5.042l1.725-1.725L17.63 9.08a2.096 2.096 0 00-.52.52L12.773 5.26a.367.367 0 10-.519.52l4.537 4.537a2.076 2.076 0 00.925 2.232v6.417a.367.367 0 00.734 0v-6.134a2.084 2.084 0 00.734 0v7.235H14.1v-1.1a.367.367 0 00-.367-.368h-1.468a.367.367 0 00-.367.367v1.101h-1.101c-.972 0-1.972.724-2.276 1.647l-.346 1.051H7.95a.367.367 0 100 .734h14.445a.367.367 0 100-.734zM10.09 5.348a.367.367 0 00-.072.417 5.07 5.07 0 01.058 4.208l-6.67-6.67a5.07 5.07 0 014.208.059c.14.066.307.038.417-.072l1.904-1.904 2.058 2.058-1.903 1.904zM2.133 4.106a5.04 5.04 0 01.596-.442l6.986 6.987c-.131.207-.279.406-.442.595l-7.14-7.14zm15.338 6.68c0-.742.603-1.345 1.345-1.345s1.346.603 1.346 1.345c0 .743-.604 1.346-1.346 1.346a1.347 1.347 0 01-1.345-1.345zm-4.105 8.548v.734h-.734v-.734h.734zm6.184 1.468c.652 0 1.375.524 1.579 1.143l.27.821H8.948l.27-.821c.204-.62.927-1.143 1.579-1.143h8.753z" fill="#082947"/>
</svg>
