<svg width="24" height="24" fill="none" xmlns="http://www.w3.org/2000/svg">
  <defs/>
  <g fill="#0AB69F">
    <path d="M10.968 5.513c.864.738 1.12 1.858.57 2.501-.55.643-1.695.567-2.56-.171-.626-.536-1.183-2.07-1.441-2.873a.333.333 0 01.368-.431c.833.13 2.436.439 3.063.974z"/>
    <path d="M9.422 6.207l2.116 1.807-2.116-1.807zM13.033 5.513c-.865.738-1.12 1.858-.57 2.501.549.643 1.695.567 2.56-.171.626-.536 1.183-2.07 1.44-2.873a.333.333 0 00-.367-.431c-.834.13-2.437.439-3.063.974z"/>
    <path d="M14.578 6.207l-2.116 1.807 2.116-1.807z"/>
  </g>
  <path d="M12 9.407a1.617 1.617 0 100-3.234 1.617 1.617 0 000 3.234z" fill="#FD5426"/>
  <path d="M12 6.173c-.24 0-.469.053-.674.147a1.617 1.617 0 010 2.94A1.617 1.617 0 1012 6.173z" fill="#EF4424"/>
  <path d="M5.208 16.998a1.348 1.348 0 100-2.695 1.348 1.348 0 000 2.695z" fill="#D6694B"/>
  <path d="M7.056 16.642a1.348 1.348 0 100-2.695 1.348 1.348 0 000 2.695zM18.496 16.998a1.348 1.348 0 100-2.696 1.348 1.348 0 000 2.696z" fill="#D6694B"/>
  <path d="M16.648 16.642a1.348 1.348 0 100-2.695 1.348 1.348 0 000 2.695z" fill="#D6694B"/>
  <path d="M15.736 16.957H8.264a.495.495 0 01-.493-.529l.468-7.85a.495.495 0 01.493-.46h6.536c.26 0 .475.202.493.46l.468 7.85a.495.495 0 01-.493.529z" fill="#FEE97D"/>
  <path d="M16.229 16.428l-.468-7.85a.494.494 0 00-.493-.46H13.92c.26 0 .475.202.493.46l.468 7.85a.495.495 0 01-.493.529h1.348a.495.495 0 00.493-.529z" fill="#FEDF30"/>
  <path d="M15.863 10.29l-.102-1.711a.494.494 0 00-.493-.46H8.732a.494.494 0 00-.493.46l-.102 1.711h1.091c.15 0 .27.12.27.27v1.293c0 .36.276.668.634.685.383.018.7-.287.7-.666v-1.313c0-.148.12-.269.268-.269h.408c.149 0 .27.12.27.27v.649c0 .359.275.668.634.684.383.018.699-.287.699-.666v-.668c0-.148.12-.269.269-.269h2.483z" fill="#FFF9F0"/>
  <path d="M15.76 8.579a.494.494 0 00-.492-.46H13.92c.26 0 .475.2.493.46l.102 1.711h1.348l-.102-1.711z" fill="#FAE8DB"/>
  <path d="M18.608 19.465H5.39c-.75 0-1.357-.607-1.357-1.357V16.6h15.93v1.508c0 .75-.607 1.357-1.356 1.357z" fill="#FFF9F0"/>
  <path d="M18.618 16.6v1.508c0 .75-.608 1.357-1.357 1.357h1.347c.75 0 1.358-.607 1.358-1.357V16.6h-1.348z" fill="#FAE8DB"/>
  <path d="M22.231 17.93H1.77a.932.932 0 010-1.864H22.23a.932.932 0 010 1.864z" fill="#A8D3D8"/>
  <path d="M22.231 16.066h-1.347a.932.932 0 010 1.864h1.347a.932.932 0 000-1.864z" fill="#8EBAC5"/>
  <path d="M22.231 15.73h-2.053l.002-.08a1.686 1.686 0 00-2.344-1.549 1.679 1.679 0 00-1.436-.472l-.303-5.073a.835.835 0 00-.589-.739c.532-.66.979-1.82 1.276-2.744a.665.665 0 00-.128-.64.666.666 0 00-.612-.227c-1.116.173-2.581.496-3.23 1.05-.21.18-.39.38-.54.6a1.96 1.96 0 00-.548 0c-.15-.22-.33-.42-.54-.6-.649-.554-2.114-.877-3.23-1.05a.666.666 0 00-.612.227.665.665 0 00-.128.64c.297.923.744 2.084 1.276 2.744a.836.836 0 00-.59.742l-.306 5.14a1.684 1.684 0 00-1.727.402 1.686 1.686 0 00-2.343 1.628H1.769c-.7 0-1.269.57-1.269 1.269 0 .7.57 1.268 1.269 1.268h1.936c.08.86.806 1.536 1.687 1.536h13.216c.88 0 1.607-.675 1.687-1.536h1.936c.7 0 1.269-.569 1.269-1.268 0-.7-.57-1.269-1.269-1.269zm-2.724-.08c0 .027-.002.053-.004.08h-1.227a1.689 1.689 0 00-.06-1.05 1.01 1.01 0 011.29.97zm-2.859-1.366a1.012 1.012 0 01.912 1.445h-1.035l-.085-1.423c.068-.014.138-.022.208-.022zm-5.14-4.33h-.407a.607.607 0 00-.607.605v1.313a.327.327 0 01-.102.239.325.325 0 01-.244.09c-.173-.008-.313-.164-.313-.348V10.56a.607.607 0 00-.606-.606h-.735l.08-1.35a.158.158 0 01.158-.148h6.536c.082 0 .152.065.157.144l.08 1.354H13.38a.607.607 0 00-.606.606v.668a.327.327 0 01-.102.24.327.327 0 01-.244.09c-.173-.008-.314-.165-.314-.348v-.65a.607.607 0 00-.606-.606zm1.743-4.185c.162-.139.524-.35 1.325-.57a14.652 14.652 0 011.565-.326c-.444 1.378-.932 2.366-1.338 2.713a2.425 2.425 0 01-.263.195h-.586c0-.184-.028-.363-.077-.532l.92-.786a.337.337 0 00-.438-.512l-.79.675a1.968 1.968 0 00-.623-.545c.09-.111.192-.216.305-.312zm.03 2.012H10.72A1.282 1.282 0 0112 6.51c.703 0 1.275.57 1.28 1.271zM9.423 5.198c.8.22 1.163.432 1.325.571.113.096.215.2.305.312a1.968 1.968 0 00-.623.545l-.79-.675a.337.337 0 00-.438.512l.92.786c-.05.17-.076.348-.077.532H9.46a2.432 2.432 0 01-.263-.195c-.406-.346-.893-1.335-1.338-2.713.402.062.998.17 1.565.325zm-2.368 9.086c.175 0 .346.045.497.131l-.078 1.314H6.144a1.012 1.012 0 01.912-1.445zM4.197 15.65a1.012 1.012 0 011.291-.97 1.675 1.675 0 00-.06 1.05H4.202a1.024 1.024 0 01-.004-.08zm18.034 1.943H6.74a.337.337 0 000 .673h12.877c-.076.488-.5.863-1.008.863H5.392c-.509 0-.932-.375-1.008-.863H5.39a.337.337 0 000-.673H1.77a.595.595 0 010-1.19h9.315a.337.337 0 100-.674H8.15l.304-5.102h.707v1.226a1.012 1.012 0 001.004 1.023 1.008 1.008 0 001.003-1.004v-1.245h.272v.582c0 .547.42.996.956 1.021a.998.998 0 00.74-.276c.198-.189.312-.453.312-.727v-.6h2.098l.304 5.102h-3.418a.337.337 0 100 .674h9.8a.595.595 0 010 1.19z" fill="#000"/>
</svg>
