<svg width="24" height="24" fill="none" xmlns="http://www.w3.org/2000/svg">
  <defs/>
  <g fill-rule="evenodd" clip-rule="evenodd">
    <path d="M4.57 8.916A9.052 9.052 0 005.71 20.63a9.028 9.028 0 003.966 2.234c8.996 2.37 15.344-8.803 8.613-15.28a9.067 9.067 0 00-2.441-1.68 9.102 9.102 0 00-6.256-.529 9.019 9.019 0 00-4.123 2.45c-.333.345-.633.71-.9 1.09z" fill="#A6E7F0"/>
    <path d="M15.847 5.905a9.101 9.101 0 00-6.255-.529 9.019 9.019 0 00-4.123 2.45c-.333.345-.633.71-.9 1.09-.918 1.653 1.375 3.092 2.593 1.514 1.23-1.588 2.71-.473 3.48.457 1.357 1.639 3.784.906 3.498-.884-.377-2.341 2.284-.88 1.707-4.098zM12.892 17.781c-.791.172-1.38.817-1.23 1.75.342 2.13-2.023 1.116-1.986 3.334a9.07 9.07 0 009.938-3.84c-1.015 1.316-2.875.833-3.921.1a9.674 9.674 0 01-.606.595c-.236.23-.388.207-.63 0-.761-.683-1.265-1.336-1.565-1.939z" fill="#80D261"/>
    <path d="M14.771 14.184c-1.542.032-2.922 1.512-1.88 3.597.3.603.805 1.256 1.565 1.94.243.206.395.229.63 0 .224-.202.425-.401.607-.596 2.554-2.765.934-4.902-.922-4.94z" fill="#FE636E"/>
    <path d="M13.269.857h-3.202a.475.475 0 00-.474.474v1.84h3.676a.466.466 0 00.465-.463V1.32a.466.466 0 00-.465-.463z" fill="#03BED7"/>
    <path d="M15.848 5.905a9.095 9.095 0 00-6.121-.565 9.041 9.041 0 016.078 2.157c.136-.348.177-.844.043-1.592z" fill="#4FC122"/>
    <path d="M18.288 7.585a9.067 9.067 0 00-2.44-1.68c.133.748.092 1.244-.044 1.592a9.05 9.05 0 011.411 12.284c.808.166 1.667.056 2.277-.609a9.512 9.512 0 001.34-3.02c.694-2.999-.163-6.276-2.544-8.567z" fill="#6BD9E7"/>
    <path d="M17.215 19.781c-.23.311-.483.61-.76.896a9.013 9.013 0 01-4.255 2.486 9.042 9.042 0 006.328-2.771 9.053 9.053 0 001.086-1.367c-.04.053-.08.101-.122.147-.61.665-1.47.775-2.277.61z" fill="#4FC122"/>
    <path d="M13.27.857h-1.601c.255 0 .464.209.464.463v1.388a.465.465 0 01-.464.463h1.6a.465.465 0 00.465-.463V1.32a.465.465 0 00-.465-.463z" fill="#0099B1"/>
  </g>
  <path d="M19.914 19.185a9.38 9.38 0 001.28-7.064.34.34 0 10-.665.143 8.702 8.702 0 01-1.197 6.57c-.795 1.006-2.21.71-3.119.212.415-.498.72-.998.91-1.494.28-.727.305-1.44.074-2.06-.363-.979-1.313-1.626-2.418-1.649h-.014c-1.106.023-2.056.67-2.42 1.648-.23.622-.205 1.334.075 2.061l.008.02c-.801.34-1.245 1.119-1.102 2.012.134.835-.186 1.005-.716 1.287-.477.255-1.11.592-1.247 1.545a8.676 8.676 0 01-3.418-2.03 8.654 8.654 0 01-2.67-6.115 8.67 8.67 0 01.867-3.964c.142.349.393.636.684.828.298.196.668.318 1.055.318.534 0 1.1-.231 1.55-.816.586-.756 1.263-.867 2.07-.34a.34.34 0 10.372-.57c-1.112-.726-2.17-.55-2.98.495-.516.669-1.222.655-1.693.346-.39-.257-.71-.796-.34-1.476.256-.361.54-.706.854-1.03a8.674 8.674 0 013.539-2.226v1.682a.34.34 0 10.68 0V5.642a8.781 8.781 0 015.61.5c.201 1.35-.255 1.618-.78 1.925-.52.305-1.168.684-.958 1.989.087.546-.135.997-.609 1.239-.537.274-1.436.248-2.14-.457a.34.34 0 10-.48.48c.586.588 1.27.823 1.892.823.383 0 .741-.09 1.037-.24.743-.38 1.106-1.109.97-1.953-.135-.845.154-1.014.632-1.294.53-.31 1.231-.72 1.154-2.153a8.71 8.71 0 011.793 1.33 8.634 8.634 0 012 2.915.34.34 0 10.627-.262 9.31 9.31 0 00-2.156-3.144 9.368 9.368 0 00-2.575-1.76 9.46 9.46 0 00-6.018-.636L9.93 3.497h3.34c.445 0 .806-.36.806-.804v-1.39A.806.806 0 0013.271.5h-3.207a.815.815 0 00-.814.814v1.859l.002 1.95A9.35 9.35 0 005.225 7.59a9.33 9.33 0 00-2.63 6.695 9.33 9.33 0 002.878 6.592 9.352 9.352 0 004.07 2.3c.03.013.062.022.095.026a9.47 9.47 0 002.36.298 9.385 9.385 0 007.916-4.315zM9.933 1.33c0-.074.06-.134.134-.134h3.202c.069 0 .126.056.126.124v1.387a.127.127 0 01-.126.124H9.933V1.33zm3.05 14.398c.26-.702.98-1.185 1.789-1.205.81.02 1.527.503 1.788 1.205.391 1.053-.228 2.416-1.7 3.738l-.01.01a.538.538 0 01-.071.06.688.688 0 01-.098-.073c-1.47-1.322-2.09-2.683-1.698-3.735zm-.985 7.093a8.788 8.788 0 01-1.972-.225c.064-.676.44-.878.904-1.125.57-.303 1.279-.68 1.068-1.994-.112-.699.282-1.111.727-1.29.343.596.847 1.194 1.505 1.785a.192.192 0 00.006.006c.141.12.326.245.546.245.162 0 .342-.067.537-.255.15-.135.291-.27.425-.406a4.324 4.324 0 001.899.62 2.97 2.97 0 00.636-.022 8.705 8.705 0 01-6.281 2.66z" fill="#000"/>
</svg>
