<svg width="24" height="24" fill="none" xmlns="http://www.w3.org/2000/svg">
  <defs/>
  <path d="M16.058 10.087H7.941v-.751a4.058 4.058 0 118.117 0v.751z" fill="#FAC600"/>
  <path d="M12 5.278c-.23 0-.455.019-.674.056a4.06 4.06 0 013.385 4.002v.751h1.347v-.751A4.058 4.058 0 0012 5.278z" fill="#E8B800"/>
  <path d="M20.69 11.7H3.135a3.043 3.043 0 013.043-3.043h11.469A3.043 3.043 0 0120.69 11.7z" fill="#E8B800"/>
  <path d="M17.646 8.657H16.3a3.043 3.043 0 013.043 3.043h1.347a3.043 3.043 0 00-3.043-3.043z" fill="#D7AA02"/>
  <path d="M21.993 12.87H2.007a1.17 1.17 0 010-2.34h19.986a1.17 1.17 0 010 2.34z" fill="#FEDF30"/>
  <path d="M21.993 10.53h-1.348a1.17 1.17 0 010 2.34h1.348a1.17 1.17 0 000-2.34z" fill="#FED402"/>
  <path d="M14.602 10.995a2.602 2.602 0 01-5.205 0C9.397 9.558 12 7.203 12 7.203s2.602 2.355 2.602 3.792z" fill="#FEDF30"/>
  <path d="M12 7.203s-.289.261-.674.663c.771.804 1.929 2.17 1.929 3.129a2.603 2.603 0 01-1.929 2.514 2.604 2.604 0 003.276-2.514C14.602 9.558 12 7.203 12 7.203z" fill="#FAC600"/>
  <path d="M13.093 10.967a1.093 1.093 0 01-2.186 0c0-.604 1.093-1.593 1.093-1.593s1.093.99 1.093 1.593z" fill="#0ED2B3"/>
  <path d="M12 9.374s-.366.331-.674.727c.225.288.42.611.42.866 0 .35-.165.66-.42.86a1.093 1.093 0 001.767-.86c0-.604-1.093-1.593-1.093-1.593zM2.875 15.298a.678.678 0 100-1.355.678.678 0 000 1.355z" fill="#0AB69F"/>
  <path d="M1.845 17.22a1.03 1.03 0 012.061 0c0 .57-1.03 1.502-1.03 1.502s-1.031-.932-1.031-1.502z" fill="#0ED2B3"/>
  <path d="M5.621 14.974a1.03 1.03 0 012.062 0c0 .57-1.031 1.502-1.031 1.502s-1.03-.932-1.03-1.502z" fill="#CEEFDD"/>
  <path d="M21.422 15.298a.678.678 0 100-1.355.678.678 0 000 1.355z" fill="#0AB69F"/>
  <path d="M22.453 17.22a1.03 1.03 0 00-2.061 0c0 .57 1.03 1.502 1.03 1.502s1.031-.932 1.031-1.502z" fill="#0ED2B3"/>
  <path d="M18.677 14.974a1.03 1.03 0 00-2.062 0c0 .57 1.031 1.502 1.031 1.502s1.03-.932 1.03-1.502z" fill="#CEEFDD"/>
  <path d="M21.993 13.206c.831 0 1.507-.675 1.507-1.506s-.676-1.507-1.507-1.507h-1.32a3.4 3.4 0 00-3.026-1.873h-1.372A4.384 4.384 0 0012 4.94 4.39 4.39 0 007.74 8.25a.338.338 0 00-.01.071H6.178a3.399 3.399 0 00-3.026 1.873H2.007C1.176 10.193.5 10.869.5 11.7c0 .83.676 1.506 1.507 1.506h.531v.458a1.016 1.016 0 000 1.914v.317a1.37 1.37 0 00-1.03 1.325c0 .684.95 1.58 1.141 1.752a.336.336 0 00.452 0c.19-.172 1.142-1.068 1.142-1.752a1.37 1.37 0 00-1.03-1.325v-.317a1.016 1.016 0 000-1.914v-.458h3.102v.443a1.37 1.37 0 00-1.03 1.325c0 .684.95 1.58 1.14 1.752a.336.336 0 00.453 0c.19-.172 1.141-1.068 1.141-1.752a1.37 1.37 0 00-1.03-1.325v-.443h3.078a2.927 2.927 0 003.866 0h3.376v.443a1.37 1.37 0 00-1.031 1.325c0 .684.951 1.58 1.142 1.752a.336.336 0 00.452 0c.19-.172 1.141-1.068 1.141-1.752a1.37 1.37 0 00-1.03-1.325v-.444a.337.337 0 00-.024-.672h-3.455c.276-.448.435-.975.435-1.538 0-.042-.002-.085-.005-.128h7.06a.834.834 0 010 1.666h-2.687a.337.337 0 100 .673h1.778v.458a1.016 1.016 0 000 1.914v.317a1.37 1.37 0 00-1.03 1.325c0 .684.95 1.58 1.141 1.752a.336.336 0 00.452 0c.19-.172 1.142-1.068 1.142-1.752a1.37 1.37 0 00-1.03-1.325v-.317a1.016 1.016 0 000-1.914v-.458h.233zM3.57 17.22c0 .208-.328.657-.694 1.034-.366-.377-.694-.825-.694-1.034a.695.695 0 011.388 0zm-.694-2.259a.341.341 0 11.001-.682.341.341 0 010 .682zm4.47.013c0 .208-.328.657-.693 1.034-.366-.377-.694-.825-.694-1.034a.695.695 0 011.388 0zM12 5.614a3.711 3.711 0 013.58 2.706h-2.035a15.506 15.506 0 00-1.319-1.367.337.337 0 00-.452 0c-.129.116-.72.662-1.32 1.367H8.42A3.717 3.717 0 0112 5.614zM1.174 11.7c0-.46.373-.833.833-.833h3.78a.337.337 0 100-.674H3.93a2.723 2.723 0 012.248-1.2h3.747c-.283.392-.531.803-.689 1.2h-2.1a.337.337 0 100 .674h1.93a1.56 1.56 0 00-.005.128c0 .563.16 1.09.435 1.538h-7.49a.834.834 0 01-.832-.833zm8.56-.705c0-.499.433-1.284 1.217-2.212.401-.474.806-.882 1.049-1.117.242.234.644.64 1.044 1.112.788.93 1.221 1.717 1.221 2.217A2.268 2.268 0 0112 13.26a2.268 2.268 0 01-2.265-2.265zm8.606 3.98c0 .207-.329.656-.695 1.033-.365-.377-.693-.825-.693-1.034a.695.695 0 011.387 0zm-4.265-5.981h3.572c.904 0 1.75.46 2.248 1.2h-5.07c-.02 0-.04.001-.06.005-.156-.399-.406-.812-.69-1.205zm8.041 8.226c0 .208-.328.657-.694 1.034-.366-.377-.694-.825-.694-1.034a.695.695 0 011.388 0zm-.694-2.259a.341.341 0 11.001-.682.341.341 0 010 .682z" fill="#000"/>
  <path d="M12.226 9.124a.337.337 0 00-.452 0c-.2.182-1.204 1.126-1.204 1.843 0 .788.642 1.43 1.43 1.43.789 0 1.43-.642 1.43-1.43 0-.717-1.003-1.66-1.204-1.843zm-.226 2.6a.757.757 0 01-.756-.757c0-.19.284-.649.757-1.127.514.518.756.966.756 1.127 0 .417-.34.756-.757.756z" fill="#000"/>
</svg>
