<svg width="24" height="24" fill="none" xmlns="http://www.w3.org/2000/svg">
  <defs/>
  <path d="M15.303 2.633h4.317c1.18 0 2.137.957 2.137 2.137V15.33c0 1.18-.956 2.137-2.137 2.137h-.625a2.14 2.14 0 00-1.64.767l-4.062 4.848v-4.462c0-.637-.515-1.152-1.152-1.152H4.37a2.138 2.138 0 01-2.138-2.138V4.77c0-1.18.958-2.137 2.138-2.137h4.666" fill="#CFDCE5"/>
  <path d="M12.168.92L7.092 6.887h2.443v5.97H14.8v-5.97h2.443L12.168.92z" fill="#FF6F52"/>
  <path d="M2.237 7.94a.419.419 0 00.42-.418V4.77a1.72 1.72 0 011.718-1.718h4.666a.419.419 0 100-.838H4.375A2.56 2.56 0 001.818 4.77v2.752c0 .231.188.419.42.419zM15.47 20.49a.419.419 0 00-.59.051l-1.162 1.387v-3.31c0-.866-.704-1.57-1.57-1.57H4.374a1.72 1.72 0 01-1.719-1.719v-6.41a.419.419 0 10-.838 0v6.41a2.56 2.56 0 002.557 2.556h7.772c.404 0 .733.33.733.734v4.462a.419.419 0 00.74.269l1.902-2.27a.419.419 0 00-.052-.59zM19.626 2.214H15.31a.419.419 0 100 .838h4.317c.948 0 1.718.771 1.718 1.718V15.33a1.72 1.72 0 01-1.718 1.718h-.625c-.76 0-1.474.334-1.962.916l-1.319 1.575a.42.42 0 00.643.538l1.319-1.574a1.718 1.718 0 011.32-.616h.624a2.56 2.56 0 002.556-2.557V4.77a2.559 2.559 0 00-2.556-2.556z" fill="#000"/>
  <path d="M6.718 7.064a.419.419 0 00.38.243h2.024v5.55c0 .232.188.42.42.42h3.087a.419.419 0 000-.839H9.96v-5.55a.419.419 0 00-.419-.419H8.005l4.17-4.903 4.17 4.903h-1.537a.419.419 0 00-.419.42v5.549h-.363a.419.419 0 000 .838h.782a.419.419 0 00.42-.419v-5.55h2.023a.419.419 0 00.32-.69L12.493.647a.419.419 0 00-.638 0l-5.077 5.97a.42.42 0 00-.06.447z" fill="#000"/>
</svg>
