<svg width="24" height="24" fill="none" xmlns="http://www.w3.org/2000/svg">
  <defs/>
  <path d="M10.193 23.009a8.441 8.441 0 100-16.883 8.441 8.441 0 000 16.883z" fill="#FFEFCA"/>
  <g fill="#FBD696">
    <path d="M7.936 14.575a.462.462 0 00-.462-.462h-5.71a8.595 8.595 0 00.001.924h5.709a.462.462 0 00.462-.462zM12.744 14.113a.462.462 0 100 .924h5.744a.465.465 0 00.135-.02 8.617 8.617 0 00.001-.884.462.462 0 00-.136-.02h-5.744zM10.275 19.554a2.807 2.807 0 002.034-.915.462.462 0 00-.68-.625 1.89 1.89 0 01-1.37.616 1.893 1.893 0 01-1.392-.566l-.122-.124a.462.462 0 00-.658.65l.123.123a2.806 2.806 0 002.065.841zM8.24 6.354l6.347 6.343a.58.58 0 00.84-.023l2.08-2.32-.646-1.461-7.639-2.73-1.077.167"/>
  </g>
  <path d="M15.042 11.643L8.024 5.396l2.49-4.274h8.827l2.715 4.276-7.014 6.245z" fill="#B0F6FF"/>
  <path d="M12.778 5.387l-2.264-4.265-2.49 4.274 4.754-.009z" fill="#DCFDFF"/>
  <g fill="#6EE5F4">
    <path d="M17.316 5.39l-2.274-4.267-2.264 4.266 4.538.001zM17.316 5.39l2.025-4.267L22.056 5.4l-4.74-.009z"/>
  </g>
  <g fill="#60D8E8">
    <path d="M12.778 5.389l4.538.001-2.274 6.255-2.264-6.256z"/>
    <path d="M15.042 1.123l2.274 4.267 2.025-4.267h-4.299z"/>
  </g>
  <path d="M17.316 5.389l-2.274 6.254 7.013-6.245-4.739-.01z" fill="#DCFDFF"/>
  <path d="M6.764 7.375a.462.462 0 10-.404-.832A8.947 8.947 0 002.73 9.777a8.895 8.895 0 00-1.399 4.799c0 4.92 4.004 8.924 8.925 8.924 4.92 0 8.924-4.003 8.924-8.925 0-.66-.073-1.318-.215-1.956a.462.462 0 00-.902.202c.094.423.154.856.18 1.292h-5.436a.462.462 0 100 .925h5.435c-.24 4.197-3.73 7.538-7.986 7.538-4.257 0-7.747-3.341-7.987-7.538h5.268a.462.462 0 100-.925H2.27a7.964 7.964 0 011.239-3.839 8.024 8.024 0 013.256-2.9z" fill="#000"/>
  <path d="M10.284 19.555h.053a2.807 2.807 0 002.034-.916.462.462 0 10-.68-.625 1.89 1.89 0 01-1.37.617 1.892 1.892 0 01-1.392-.567l-.123-.124a.462.462 0 00-.657.65l.122.124c.538.544 1.25.841 2.013.841zM19.916 7.98l2.6-2.312a.462.462 0 00.082-.593L19.821.714a.462.462 0 00-.39-.214H10.405a.457.457 0 00-.112.015.461.461 0 00-.063.02l-.005.002a.474.474 0 00-.036.017l-.007.005-.015.009a.46.46 0 00-.083.063l-.003.003a.47.47 0 00-.038.042l-.006.009a.48.48 0 00-.026.037l-.004.007L7.46 5.09c0 .003-.002.005-.003.007a.457.457 0 00-.01.019l-.01.02a.486.486 0 00-.027.083l-.004.016a.461.461 0 00-.005.034l-.001.009a.443.443 0 00-.003.044v.01a.46.46 0 00.018.116l.006.02.007.021.007.018a.48.48 0 00.016.032l.006.011.018.03.008.012a.454.454 0 00.017.022l.011.013a.551.551 0 00.017.019l.014.013.01.01 7.174 6.38a.46.46 0 00.614 0l3.285-2.92a.462.462 0 10-.615-.691l-2.034 1.809 1.69-4.461h3.326l-1.691 1.504a.462.462 0 10.614.69zm-9.529-6.068l1.565 2.949H8.666l1.721-2.95zm5.383-.488h3.046l-1.48 2.904-1.566-2.904zm.804 3.437h-3.08l1.54-2.854 1.54 2.854zm-3.85-.518l-1.55-2.919H14.3l-1.575 2.92zM12.4 5.785l1.69 4.46-5.015-4.46H12.4zm.989 0h3.29l-1.645 4.34-1.645-4.34zm6.163-3.771l1.813 2.847h-3.263l1.45-2.847z" fill="#000"/>
</svg>
