<svg width="24" height="24" fill="none" xmlns="http://www.w3.org/2000/svg">
  <defs/>
  <path d="M12.057 22.2l-10.92-9.7L5.01 5.854h13.733l4.227 6.646-10.912 9.7z" fill="#B0F6FF"/>
  <path d="M8.534 12.498L5.01 5.841l-3.872 6.655h7.388" fill="#DCFDFF"/>
  <g fill="#6EE5F4">
    <path d="M15.574 12.495l-3.518-6.66-3.525 6.66h7.043z"/>
    <path d="M15.57 12.497l3.168-6.657 4.23 6.655h-7.384"/>
  </g>
  <g fill="#60D8E8">
    <path d="M8.532 12.494h7.052l-3.528 9.707-3.524-9.707z"/>
    <path d="M12.056 5.855l3.522 6.647 3.163-6.647h-6.685z"/>
  </g>
  <path d="M15.579 12.5l-3.522 9.7 10.912-9.7h-7.39z" fill="#DCFDFF"/>
  <path d="M23.435 12.313l-4.291-6.739a.414.414 0 00-.35-.191H4.848h-.001a.404.404 0 00-.1.013.405.405 0 00-.056.018l-.004.002a.396.396 0 00-.033.015l-.007.004a.406.406 0 00-.043.028l-.01.008a.414.414 0 00-.035.03l-.002.002a.413.413 0 00-.034.038l-.004.006a.421.421 0 00-.024.035l-.004.006-3.934 6.739-.002.005a.371.371 0 00-.01.017l-.008.018a.476.476 0 00-.02.053l-.005.021-.003.015a.412.412 0 00-.005.03l-.001.008a.42.42 0 00-.002.04V12.543l.002.03.002.014a.485.485 0 00.012.06l.005.017.007.02.006.015.014.03.005.01.016.026.008.01a.45.45 0 00.015.02l.01.011a.49.49 0 00.015.018l.012.011.01.01 11.086 9.858a.413.413 0 00.55 0l5.075-4.513a.414.414 0 00-.55-.618l-4.058 3.609 3.12-8.232h6.137l-3.204 2.85a.414.414 0 10.55.618l4.016-3.573a.413.413 0 00.074-.53zM4.83 6.646l2.906 5.476H1.634L4.83 6.646zm7.803-.436h5.702l-2.77 5.435-2.931-5.435zm2.25 5.912H9.117L12 6.778l2.883 5.344zm-6.456-.463l-2.892-5.45h5.831l-2.94 5.45zm-.289 1.29l3.12 8.232L2 12.949h6.137zm.885 0h5.954L12 20.806l-2.977-7.857zm9.931-6.133l3.379 5.306H16.25l2.703-5.306zM12.413 2.488v-.882a.413.413 0 10-.827 0v.882a.414.414 0 10.827 0zM10.44 3.548a.412.412 0 00.293-.706l-.624-.624a.414.414 0 00-.585.585l.624.623c.081.081.187.122.293.122zM13.852 3.426l.624-.623a.414.414 0 00-.585-.585l-.623.623a.414.414 0 00.584.585z" fill="#000"/>
</svg>
