<svg width="24" height="24" fill="none" xmlns="http://www.w3.org/2000/svg">
  <defs/>
  <path d="M17.018 8.128C18 6.71 19.949 6.045 21.595 6.566c.426.135.849.357 1.088.735.238.378.23.936-.114 1.222-.39.323-.97.173-1.448.008.396.171.826.24 1.018.61.053.101.088.211.107.324.108.636-.527 1.161-1.12.905a1.358 1.358 0 01-.045-.022c.241.183.258.57.085.818-.173.25-.486.37-.788.384-.303.014-.75-.056-1.042-.134" fill="#FFDFA1"/>
  <path d="M20.345 11.628l-2.615-.39-.904-2.907.973-1.278 2.546 4.575z" fill="#FBD696"/>
  <path d="M6.842 7.873c-1.091-1.337-3.085-1.848-4.685-1.2-.414.167-.818.422-1.027.817-.209.395-.157.952.209 1.21.413.291.98.097 1.443-.105-.381.201-.804.304-.967.687a1.099 1.099 0 00-.082.332c-.057.643.616 1.116 1.187.814a.925.925 0 00.044-.025c-.226.202-.213.588-.021.823.191.234.513.33.816.32.303-.009.742-.113 1.028-.213" fill="#FFDFA1"/>
  <path d="M6.168 7.182l1.045 1.151-1.596 3.023-.713-.034-1.12.435 2.384-4.575z" fill="#FBD696"/>
  <path d="M12.144 19.017L4.38 12.124l2.752-4.728h9.763l3.006 4.728-7.758 6.893z" fill="#B0F6FF"/>
  <path d="M9.638 12.126l-2.505-4.73-2.752 4.732h5.25" fill="#DCFDFF"/>
  <g fill="#6EE5F4">
    <path d="M14.645 12.13l-2.502-4.733-2.505 4.732h5.007zM14.645 12.127l2.251-4.73 3.006 4.732h-5.244"/>
  </g>
  <g fill="#60D8E8">
    <path d="M9.632 12.122h5.025l-2.514 6.894-2.511-6.894z"/>
    <path d="M12.143 7.395l2.504 4.728 2.248-4.728h-4.752z"/>
  </g>
  <path d="M14.648 12.124l-2.504 6.893 7.758-6.893h-5.254z" fill="#DCFDFF"/>
  <path d="M21.994 6.065c-.87-.275-1.85-.255-2.763.057-.735.25-1.39.678-1.888 1.226l-.093-.146a.363.363 0 00-.305-.167l-9.764.003h-.004a.357.357 0 00-.083.011l-.01.002a.356.356 0 00-.04.014l-.005.002a.374.374 0 00-.028.013l-.006.004-.01.006a.353.353 0 00-.028.018l-.009.007a.347.347 0 00-.03.027l-.002.001a.367.367 0 00-.03.034l-.003.005a.358.358 0 00-.022.032l-.003.004-.163.28a4.52 4.52 0 00-2.07-1.165c-.934-.24-1.914-.183-2.759.159-.584.236-.991.567-1.212.984-.274.519-.23 1.287.32 1.675.11.077.226.13.344.164a1.458 1.458 0 00-.101.421 1.198 1.198 0 001.065 1.298c.013.205.088.409.225.576.238.291.619.455 1.052.455h.056c.14-.005.299-.026.459-.056l-.003.009a.414.414 0 00-.004.018l-.003.014a.333.333 0 00-.004.025l-.001.008a.369.369 0 00-.002.034V12.126l.001.025.002.014a.313.313 0 00.01.051l.005.016a.38.38 0 00.006.017l.005.013a.377.377 0 00.013.027l.004.007.015.024.006.008a.315.315 0 00.014.019l.008.01.014.015.01.01.008.008 7.763 6.898a.361.361 0 00.482 0l3.552-3.16a.362.362 0 10-.482-.542l-2.618 2.33 2.059-5.438 4.053-.002-2.099 1.868a.362.362 0 10.482.542l2.811-2.502a.362.362 0 00.065-.465l-.122-.192a3.662 3.662 0 00.55.03c.457-.02.847-.217 1.07-.539.124-.177.182-.387.18-.591a1.198 1.198 0 00.96-1.377 1.458 1.458 0 00-.134-.413 1.13 1.13 0 00.33-.19c.518-.43.503-1.199.19-1.695-.253-.398-.686-.697-1.286-.887zm-2.704 5.686l-4.006.002 1.78-3.495 2.226 3.493zM7.165 8.145l1.917 3.61-4.023.001 2.106-3.61zm5.588-.384l3.75-.001-1.82 3.575-1.93-3.574zm1.332 3.992l-3.793.001 1.895-3.515 1.897 3.514zm-4.397-.404L7.784 7.763l3.838-.002L9.69 11.35zm-.253 1.13l2.062 5.437-6.116-5.435 4.054-.001zm.775 0l3.957-.001-1.976 5.221-1.98-5.22zm-6.61-1.14c-.222.007-.422-.064-.523-.188-.078-.095-.087-.26-.018-.322a.362.362 0 00-.427-.582.428.428 0 01-.474-.01.468.468 0 01-.21-.436.733.733 0 01.054-.222c.068-.159.242-.245.521-.373.092-.042.186-.085.282-.136a.363.363 0 00-.314-.653c-.371.162-.83.324-1.09.141-.21-.148-.22-.51-.097-.743.138-.262.422-.481.843-.651 1.402-.568 3.17-.143 4.176.986l-1.738 2.98a.36.36 0 00-.065.015c-.25.088-.656.186-.92.194zm19.026-3.25c-.244.203-.714.077-1.097-.056a.362.362 0 00-.262.676c.1.043.197.078.29.113.289.106.47.178.55.331.034.067.058.14.071.217a.467.467 0 01-.176.452.428.428 0 01-.47.046.363.363 0 00-.381.614c.073.056.077.222.007.323-.091.13-.286.218-.508.228-.263.012-.676-.054-.931-.122a.361.361 0 00-.113-.011L17.75 7.987c.93-1.15 2.614-1.677 4.025-1.23.433.137.733.333.891.583.14.222.16.584-.039.749zM9.282 4.62a.362.362 0 100 .725h5.435a.362.362 0 100-.725H9.282z" fill="#000"/>
</svg>
