<svg width="24" height="24" fill="none" xmlns="http://www.w3.org/2000/svg">
  <defs/>
  <path d="M17.584 18.726V2.335c0-.412.137-.793.368-1.1H4.572c-.614 0-1.096.472-1.096 1.075v16.416c0 .62.492 1.124 1.097 1.124h3.605v-2.208a3.315 3.315 0 01-.962-2.33 3.31 3.31 0 013.307-3.307 3.31 3.31 0 013.306 3.307c0 .89-.361 1.742-.997 2.363v2.175l5.126-.01a1.844 1.844 0 01-.374-1.114zM6.804 4.667l1.143-1.47a.367.367 0 01.58 0l.853 1.097.853-1.097a.367.367 0 01.58 0l.853 1.097.853-1.096a.367.367 0 01.58 0l1.143 1.47a.367.367 0 11-.58.45l-.853-1.096-.853 1.096a.367.367 0 01-.58 0l-.853-1.096-.853 1.096a.367.367 0 01-.58 0l-.853-1.096-.854 1.096a.367.367 0 11-.58-.45zM5.63 6.477h6.858a.367.367 0 010 .734H5.631a.367.367 0 010-.734zm8.328 3.674H7.101a.367.367 0 110-.735h6.858a.367.367 0 010 .735zm1.47-1.47H5.63a.367.367 0 010-.735h9.798a.367.367 0 010 .735zm0-1.47h-1.47a.367.367 0 010-.734h1.47a.367.367 0 010 .734z" fill="#F2EBD9"/>
  <path d="M19.414 1.235a1.102 1.102 0 00-1.095 1.1v2.182h2.205V2.31c0-.593-.498-1.075-1.11-1.075zM18.32 18.726c0 .61.49 1.11 1.094 1.112.602 0 1.11-.51 1.11-1.112V16.52h-2.205v2.207z" fill="#C1E8E6"/>
  <path d="M10.523 12.74a2.575 2.575 0 00-2.572 2.572 2.579 2.579 0 002.572 2.572c.6 0 1.18-.211 1.64-.595a.37.37 0 01.13-.114c.51-.486.802-1.159.802-1.863a2.575 2.575 0 00-2.572-2.572zm0 4.409a1.84 1.84 0 01-1.837-1.837 1.84 1.84 0 011.837-1.837 1.84 1.84 0 011.837 1.837 1.84 1.84 0 01-1.837 1.837z" fill="#BD1515"/>
  <path d="M10.67 21.824l1.428.714v-4.32a3.299 3.299 0 01-3.184-.018v4.338l1.428-.714a.367.367 0 01.329 0zM10.523 14.21a1.103 1.103 0 000 2.204c.608 0 1.102-.495 1.102-1.102 0-.608-.494-1.102-1.102-1.102z" fill="#F2484B"/>
  <path d="M20.891 5.252a.367.367 0 00.368-.368V2.31c0-.998-.828-1.81-1.846-1.81H4.573c-1.027 0-1.832.795-1.832 1.81v16.416c0 1.025.822 1.86 1.832 1.86H8.18v2.547a.367.367 0 00.532.328l1.795-.897 1.795.897a.368.368 0 00.532-.328v-2.549l6.58-.011a1.848 1.848 0 001.846-1.847v-2.574a.367.367 0 00-.368-.368H18.32V5.252h2.571zm-.367 13.474c0 .602-.508 1.111-1.11 1.112a1.108 1.108 0 01-1.095-1.112V16.52h2.205v2.207zm-8.232-1.551a.368.368 0 00-.128.114 2.566 2.566 0 01-3.364-.07 2.58 2.58 0 01-.849-1.907 2.575 2.575 0 012.572-2.572 2.575 2.575 0 012.572 2.572c0 .704-.292 1.377-.803 1.863zm-3.378 5.363V18.2a3.296 3.296 0 003.184.02v4.32l-1.428-.715a.368.368 0 00-.329 0l-1.427.714zm3.919-4.863a3.307 3.307 0 00.997-2.363 3.31 3.31 0 00-3.307-3.307 3.31 3.31 0 00-3.307 3.307c0 .872.35 1.711.963 2.33v2.208H4.573c-.605 0-1.097-.504-1.097-1.124V2.31c0-.603.482-1.075 1.097-1.075h13.38c-.231.307-.368.688-.368 1.1v16.391c0 .418.14.805.373 1.115l-5.125.009v-2.175zm7.69-13.158H18.32V2.335c0-.604.49-1.098 1.094-1.1.612 0 1.11.482 1.11 1.075v2.207z" fill="#082947"/>
  <path d="M10.523 13.475a1.84 1.84 0 00-1.837 1.837 1.84 1.84 0 001.837 1.837 1.84 1.84 0 001.837-1.837 1.84 1.84 0 00-1.837-1.837zm0 2.939a1.103 1.103 0 010-2.205 1.103 1.103 0 010 2.205zM15.429 7.946H5.63a.367.367 0 000 .735h9.798a.367.367 0 000-.735zM13.96 9.416H7.1a.367.367 0 000 .735h6.86a.367.367 0 000-.735zM15.429 6.477h-1.47a.367.367 0 000 .734h1.47a.367.367 0 000-.734zM5.631 7.211h6.858a.368.368 0 000-.734H5.631a.367.367 0 000 .734zM6.868 5.183a.366.366 0 00.516-.065l.853-1.096.853 1.096a.367.367 0 00.58 0l.854-1.096.853 1.096a.367.367 0 00.58 0l.852-1.096.853 1.096a.367.367 0 10.58-.45L13.1 3.197a.367.367 0 00-.58 0l-.853 1.096-.852-1.096a.367.367 0 00-.58 0L9.38 4.293l-.853-1.096a.367.367 0 00-.58 0l-1.143 1.47a.367.367 0 00.064.515z" fill="#082947"/>
</svg>
