<svg width="24" height="24" fill="none" xmlns="http://www.w3.org/2000/svg">
  <defs/>
  <path d="M21.366 4.588H2.634c-.988 0-1.797.808-1.797 1.797v11.23c0 .989.809 1.797 1.797 1.797h18.732c.988 0 1.797-.808 1.797-1.797V6.384c0-.988-.809-1.796-1.797-1.796z" fill="#FFCE54"/>
  <path d="M21.366 4.588H20.02c.988 0 1.796.808 1.796 1.797v11.23c0 .989-.808 1.797-1.796 1.797h1.347c.989 0 1.797-.808 1.797-1.797V6.384c0-.988-.808-1.796-1.797-1.796z" fill="#F6BB42"/>
  <g fill="#ED5565">
    <path d="M4.206 13.123a.674.674 0 110 1.348.674.674 0 010-1.348zM6.901 15.817a.674.674 0 110 1.349.674.674 0 010-1.349z"/>
  </g>
  <path d="M23.163 9.53v1.347H.837V6.834h22.326v2.695z" fill="#656D78"/>
  <path d="M23.163 6.834h-1.348v4.043h1.348V6.834z" fill="#515760"/>
  <path d="M21.366 4.251H2.634A2.14 2.14 0 00.5 6.385v11.23a2.14 2.14 0 002.134 2.134H5.77a.337.337 0 000-.674H2.634c-.388 0-.754-.152-1.031-.429a1.453 1.453 0 01-.43-1.03v-6.402h21.653v6.401c0 .388-.152.754-.429 1.031a1.453 1.453 0 01-1.03.43H7.116a.337.337 0 000 .673h14.25a2.14 2.14 0 002.133-2.134V6.385a2.14 2.14 0 00-2.134-2.134zM1.603 5.354a1.452 1.452 0 011.03-.43h18.733c.387 0 .754.153 1.031.43.277.277.43.643.43 1.03v.113H1.173v-.112c0-.388.153-.754.429-1.031zm-.43 5.186V8.518h5.504a.337.337 0 100-.673H1.174V7.17h21.652v2.021h-5.053a.337.337 0 100 .674h5.053v.674H1.174z" fill="#000"/>
  <path d="M4.206 14.808a1.012 1.012 0 000-2.022 1.012 1.012 0 000 2.022zm0-1.348a.337.337 0 110 .675.337.337 0 010-.675zM6.901 17.503a1.012 1.012 0 000-2.021 1.012 1.012 0 000 2.021zm0-1.348a.337.337 0 110 .675.337.337 0 010-.675zM3.294 17.404a.336.336 0 00.476 0l4.044-4.043a.337.337 0 00-.477-.476l-4.043 4.043a.337.337 0 000 .476zM10.585 14.358h9.883a.337.337 0 100-.673h-9.883a.337.337 0 100 .673zM10.585 16.155h4.941a.337.337 0 000-.673h-4.941a.337.337 0 100 .673z" fill="#000"/>
</svg>
