<svg width="24" height="24" fill="none" xmlns="http://www.w3.org/2000/svg">
  <defs/>
  <path d="M21.741 23.163H2.259a1.422 1.422 0 01-1.422-1.422V2.259c0-.785.637-1.422 1.422-1.422h19.482c.785 0 1.422.637 1.422 1.422v19.482c0 .785-.637 1.422-1.422 1.422z" fill="#EDEDED"/>
  <path d="M21.741.837h-.894v22.326h.894c.785 0 1.422-.637 1.422-1.422V2.259c0-.785-.637-1.422-1.422-1.422z" fill="#D6D6D6"/>
  <path d="M20.24 11.999a8.24 8.24 0 11-16.48 0 8.24 8.24 0 0116.48 0z" fill="#345863"/>
  <path d="M12 3.76c-.394 0-.781.027-1.16.08a8.241 8.241 0 010 16.317A8.24 8.24 0 1012 3.76z" fill="#1E4751"/>
  <path d="M12 14.461a2.462 2.462 0 100-4.924 2.462 2.462 0 000 4.924z" fill="#F43B45"/>
  <path d="M12 12.762a.763.763 0 100-1.526.763.763 0 000 1.526z" fill="#EDEDED"/>
  <path d="M20.154 5.496a1.295 1.295 0 100-2.59 1.295 1.295 0 000 2.59z" fill="#345863"/>
  <path d="M15.899 16.342a.689.689 0 01-.483-1.18l1.075-1.056a.689.689 0 01.965.983l-1.075 1.056a.686.686 0 01-.482.197z" fill="#FFE471"/>
  <path d="M3.296 21.612a.895.895 0 100-1.79.895.895 0 000 1.79zM6.303 21.612a.895.895 0 100-1.79.895.895 0 000 1.79z" fill="#EF8229"/>
  <g fill="#000">
    <path d="M7.552 12.361c.186 0 .337-.15.337-.337a4.112 4.112 0 014.107-4.107.337.337 0 000-.673 4.786 4.786 0 00-4.781 4.78c0 .186.15.337.337.337z"/>
    <path d="M12.332 5.688a.337.337 0 00-.337-.336 6.68 6.68 0 00-6.673 6.672.337.337 0 10.674 0 6.006 6.006 0 015.999-5.999c.186 0 .337-.15.337-.337z"/>
    <path d="M21.741.5H2.259A1.76 1.76 0 00.5 2.259v19.482c0 .97.789 1.759 1.759 1.759h19.482c.97 0 1.759-.79 1.759-1.759V2.259c0-.97-.79-1.759-1.759-1.759zm1.085 21.241c0 .598-.487 1.085-1.085 1.085H2.259a1.086 1.086 0 01-1.085-1.085V2.259c0-.598.487-1.085 1.085-1.085h19.482c.598 0 1.085.487 1.085 1.085v19.482z"/>
    <path d="M12 14.798c1.544 0 2.8-1.255 2.8-2.799 0-1.543-1.256-2.8-2.8-2.8A2.802 2.802 0 009.201 12c0 1.544 1.256 2.8 2.8 2.8zm0-4.924c1.172 0 2.126.953 2.126 2.125A2.128 2.128 0 0112 14.124 2.128 2.128 0 019.875 12c0-1.172.954-2.125 2.125-2.125z"/>
    <path d="M12 13.099a1.1 1.1 0 000-2.2 1.1 1.1 0 000 2.2zm0-1.526a.426.426 0 11-.001.853.426.426 0 01.001-.853zM20.153 2.569c-.9 0-1.632.732-1.632 1.632 0 .663.398 1.235.967 1.49l-1.42 6.193a5.17 5.17 0 01-.749 1.748 1.027 1.027 0 00-1.065.234l-1.075 1.056a1.027 1.027 0 001.438 1.463l1.075-1.056c.348-.342.4-.873.153-1.272.42-.614.716-1.294.88-2.023l1.422-6.201h.006c.9 0 1.632-.732 1.632-1.632 0-.9-.732-1.632-1.632-1.632zm-2.933 12.28l-1.075 1.056a.35.35 0 01-.498-.005.352.352 0 01.005-.497l1.075-1.056a.35.35 0 11.493.502zm2.933-9.69a.97.97 0 01-.04 0 .853.853 0 00-.319-.07.96.96 0 111.317-.889.96.96 0 01-.958.96zM3.296 19.485a1.233 1.233 0 000 2.463c.68 0 1.232-.552 1.232-1.231 0-.68-.553-1.232-1.232-1.232zm0 1.79a.559.559 0 11.001-1.117.559.559 0 010 1.117zM6.303 19.485a1.233 1.233 0 000 2.463c.68 0 1.232-.552 1.232-1.231 0-.68-.553-1.232-1.232-1.232zm0 1.79a.559.559 0 11.001-1.117.559.559 0 01-.001 1.117z"/>
    <path d="M19.75 9.174a.337.337 0 00-.219.423c.247.774.372 1.582.372 2.402 0 4.358-3.546 7.903-7.903 7.903-4.358 0-7.903-3.545-7.903-7.903S7.642 4.096 12 4.096c1.266 0 2.475.29 3.594.863a7.976 7.976 0 012.734 2.306.337.337 0 10.54-.404A8.654 8.654 0 0015.9 4.359 8.485 8.485 0 0012 3.422C7.27 3.422 3.423 7.27 3.423 12c0 4.73 3.847 8.577 8.577 8.577 4.729 0 8.576-3.848 8.576-8.577 0-.89-.135-1.767-.403-2.606a.337.337 0 00-.423-.22z"/>
  </g>
</svg>
