<svg width="24" height="24" fill="none" xmlns="http://www.w3.org/2000/svg">
  <defs/>
  <path d="M10.697 6.418c0 .387-.095.72-.258 1.015H6.015a2.04 2.04 0 01-.26-1.015c0-.395.1-.735.27-1.034h4.403c.17.299.27.639.27 1.034z" fill="#ED2772"/>
  <path d="M10.427 5.384H9.281c.17.299.27.639.27 1.034 0 .387-.095.72-.259 1.015h1.146c.164-.294.259-.628.259-1.015 0-.395-.1-.735-.27-1.034z" fill="#CF2264"/>
  <path d="M10.697 17.581c0 .396-.1.736-.27 1.035H6.026c-.17-.3-.27-.639-.27-1.035 0-.386.096-.72.26-1.014h4.424c.163.294.258.628.258 1.014z" fill="#ED2772"/>
  <path d="M10.438 16.567H9.293c.164.294.259.628.259 1.014 0 .396-.1.736-.27 1.035h1.146c.17-.3.27-.639.27-1.035 0-.386-.095-.72-.258-1.014z" fill="#CF2264"/>
  <path d="M18.244 12c0 .391-.097.727-.264 1.024h-4.414a2.047 2.047 0 01-.263-1.023c0-.392.097-.728.264-1.025h4.413c.167.297.264.633.264 1.024z" fill="#5B9ED6"/>
  <path d="M17.98 10.976h-1.303c.167.297.264.633.264 1.024s-.097.727-.264 1.024h1.303c.166-.297.264-.633.264-1.023 0-.392-.098-.728-.264-1.025z" fill="#4D86B5"/>
  <path d="M11.034.837a.337.337 0 10-.674 0c0 1.142-1.015 1.769-2.133 2.403C7.108 2.606 6.093 1.98 6.093.837a.337.337 0 10-.674 0c0 1.375 1.048 2.153 2.131 2.79C6.423 4.292 5.42 5.122 5.42 6.42c0 1.375 1.048 2.153 2.131 2.79-1.083.638-2.13 1.416-2.131 2.79V12c0 1.376 1.048 2.153 2.131 2.79-1.083.638-2.131 1.416-2.131 2.792 0 .485.141.89.358 1.247.1.116.303.679 1.773 1.543-1.083.638-2.131 1.416-2.131 2.791a.337.337 0 10.674 0c0-1.142 1.015-1.768 2.134-2.403 1.118.634 2.133 1.26 2.133 2.403a.337.337 0 10.674 0c0-1.375-1.048-2.153-2.131-2.79 1.126-.664 2.131-1.494 2.131-2.791 0-1.376-1.048-2.154-2.131-2.791 1.083-.637 2.131-1.415 2.131-2.79 0-.304-.052-.586-.145-.84a.337.337 0 00-.633.232c.031.085.03.181.047.27h-4.17c.18-.931 1.091-1.497 2.092-2.065.394.223.79.452 1.124.703a.337.337 0 00.404-.54 9.117 9.117 0 00-.852-.55c1.084-.638 2.133-1.416 2.133-2.792 0-.486-.141-.89-.358-1.248-.099-.116-.315-.685-1.773-1.543 1.083-.638 2.131-1.416 2.131-2.791zm-.827 17.442h-3.96a1.65 1.65 0 01-.008-1.375h3.975a1.65 1.65 0 01-.007 1.375zm-1.98 1.706c-.569-.323-1.105-.645-1.5-1.032h3c-.395.387-.932.71-1.5 1.032zm1.518-3.755H6.708c.397-.395.941-.724 1.519-1.051.577.327 1.122.656 1.518 1.051zm-1.518-1.827c-1.002-.568-1.914-1.134-2.094-2.066h4.187c-.18.932-1.091 1.498-2.093 2.066zm1.987-7.307H6.24a1.65 1.65 0 01.007-1.375h3.96c.196.443.213.894.008 1.375zM8.227 8.822c-.578-.328-1.123-.656-1.52-1.052h3.038c-.396.396-.94.724-1.518 1.052zm1.5-3.775h-3c.395-.386.932-.71 1.5-1.031.568.322 1.105.645 1.5 1.031zM18.569 6.31c-.056-1.304-1.066-2.063-2.12-2.682 1.084-.638 2.132-1.416 2.132-2.791a.337.337 0 00-.674 0c0 1.142-1.015 1.769-2.134 2.403-1.118-.634-2.133-1.26-2.133-2.403a.337.337 0 00-.674 0c0 1.382 1.057 2.16 2.146 2.8-.253.148-.513.29-.745.455-.267.19-.13.611.196.611.19 0 .085-.048 1.211-.687.975.553 1.87 1.1 2.084 1.987h-4.133c.024-.098.02-.205.062-.298a.337.337 0 00-.616-.274 2.39 2.39 0 00-.195.883c0 .01-.01.016-.01.026 0 .006.006.01.006.015-.034 1.374.937 2.155 2.125 2.854-1.083.638-2.131 1.416-2.131 2.791 0 1.376 1.048 2.153 2.131 2.79-1.16.683-2.131 1.463-2.131 2.792 0 1.375 1.048 2.153 2.131 2.79-1.083.638-2.131 1.416-2.131 2.791a.337.337 0 10.674 0c0-1.142 1.015-1.768 2.133-2.403 1.119.634 2.134 1.26 2.134 2.403a.337.337 0 10.674 0c0-1.375-1.048-2.153-2.131-2.79 1.144-.674 2.147-1.462 2.13-2.807-.01-1.365-1.051-2.14-2.13-2.775 1.083-.637 2.131-1.415 2.131-2.79 0-1.376-1.048-2.154-2.131-2.792 1.222-.719 2.131-1.465 2.131-2.87 0-.01-.011-.017-.012-.028zm-.811 6.378h-3.969a1.65 1.65 0 010-1.376h3.968c.2.462.2.913 0 1.376zm-1.985 7.296c-1.005-.57-1.92-1.138-2.095-2.077h4.19c-.175.939-1.089 1.507-2.095 2.078zm2.093-2.75H13.68c.185-.926 1.094-1.49 2.092-2.055.998.566 1.907 1.13 2.093 2.054zm-2.093-2.83c-.572-.326-1.113-.652-1.509-1.043h3.019c-.396.391-.937.717-1.51 1.042zm1.51-3.765h-3.019c.396-.391.937-.717 1.51-1.042.572.325 1.113.65 1.508 1.042zm-1.51-1.817c-1.029-.584-1.96-1.167-2.103-2.145h4.207c-.144.978-1.074 1.561-2.104 2.145z" fill="#000"/>
</svg>
