<svg width="24" height="24" fill="none" xmlns="http://www.w3.org/2000/svg">
  <defs/>
  <path d="M20 7.005h-4.628a1.423 1.423 0 01-1.423-1.423V.954L20 7.005z" fill="#ACD1FC"/>
  <path d="M20 7.005v14.617c0 .786-.638 1.423-1.424 1.423H5.423A1.423 1.423 0 014 21.622V2.378C4 1.59 4.637.954 5.423.954h8.526v4.628c0 .786.637 1.423 1.423 1.423H20z" fill="#518EF8"/>
  <path d="M20.322 6.684L14.27.634A.454.454 0 0013.949.5H5.425a1.88 1.88 0 00-1.878 1.878v19.244A1.88 1.88 0 005.424 23.5h13.153a1.88 1.88 0 001.878-1.878V7.005a.455.455 0 00-.133-.321zm-5.918-4.632l4.499 4.499h-3.53a.97.97 0 01-.969-.969v-3.53zm4.173 20.539H5.424a.97.97 0 01-.969-.969V2.378a.97.97 0 01.969-.969h8.07v4.173a1.88 1.88 0 001.879 1.878h4.173v14.162a.97.97 0 01-.969.969z" fill="#333"/>
  <g fill="#fff">
    <path d="M15.636 12.953H8.364a.455.455 0 010-.91h7.272a.455.455 0 010 .91zM15.636 14.983H8.364a.455.455 0 010-.909h7.272a.455.455 0 010 .91zM15.636 17.014H8.364a.455.455 0 010-.91h7.272a.455.455 0 110 .91zM13.273 19.044h-4.91a.455.455 0 010-.909h4.91a.454.454 0 110 .91z"/>
  </g>
</svg>
