<svg width="24" height="24" fill="none" xmlns="http://www.w3.org/2000/svg">
  <defs/>
  <path d="M6.361 17.807l-.506 2.077a1.676 1.676 0 00.793 1.847c3.568 2.057 7.136 2.057 10.704 0 .645-.372.969-1.124.793-1.847l-.962-3.949a3.795 3.795 0 00-3.688-2.896h-.287v-1.916a2.608 2.608 0 01-2.415 0v1.916h-.289a3.795 3.795 0 00-3.687 2.896l-.2.821-.256 1.051z" fill="#F5F5F5"/>
  <path d="M18.145 19.884l-.962-3.949a3.795 3.795 0 00-3.687-2.896h-.288v-1.916a2.608 2.608 0 01-1.208.295c-.124 0-.245.2-.365.183v1.438h.288a3.795 3.795 0 013.687 2.896l.962 3.949a1.676 1.676 0 01-.793 1.847c-1.522.878-3.043 1.38-4.565 1.51 2.046.173 4.092-.33 6.138-1.51.645-.372.97-1.124.793-1.847zM11.214 11.506c-.146-.046-.287-.313-.421-.383v.478c.144-.02.285-.052.421-.095z" fill="#D9D9D9"/>
  <path d="M14.467 15.207l1.276.468-.74-2.324a3.786 3.786 0 00-1.507-.313h-.288v-1.915a2.608 2.608 0 01-2.415 0v1.916h-.288c-.482 0-.947.09-1.377.258l-.757 2.378 1.277-.468 2.41 4.112 2.41-4.112z" fill="#1E59A2"/>
  <path d="M9.824 13.208l2.233 6.111 2.12-6.111.037-.1a3.797 3.797 0 00-.718-.07h-.288v-1.915a2.609 2.609 0 01-2.415 0v1.916h-.289c-.26 0-.516.027-.764.077l.084.092z" fill="#B0B0B0"/>
  <path d="M13.208 13.038V11.94l-1.42.438-.995-.125v.785h-.289c-.26 0-.516.028-.764.079l.084.09.619 1.695 1.607-1.605 1.539 1.605.588-1.694.037-.1a3.803 3.803 0 00-.718-.07h-.288z" fill="#61A1DC"/>
  <path d="M9.014 9.178h-.387A1.38 1.38 0 017.26 7.986a23.039 23.039 0 01-.236-3.277c.014-2.595 2.607-4.43 5.037-3.52.441.165.826.404 1.146.73l.03-.03c1.198-1.263 3.327-.524 3.492 1.208.046.492.067.56.067 1.088l-.01 1.082a30.001 30.001 0 01-.22 2.698 1.38 1.38 0 01-1.37 1.213H9.014z" fill="#545454"/>
  <path d="M16.729 3.097c-.165-1.733-2.294-2.47-3.493-1.21l-.028.032a3.115 3.115 0 00-1.147-.73c-2.22-.832-4.575.628-4.977 2.866.92-1.373 2.7-2.082 4.403-1.445.44.165.825.405 1.146.73l.029-.03c1.198-1.262 3.327-.524 3.492 1.208.047.492.068.561.067 1.089l-.01 1.082c-.022.707-.08 1.44-.161 2.193.277-.22.47-.543.516-.917.114-.93.192-1.833.22-2.698l.01-1.082c0-.527-.02-.596-.067-1.088z" fill="#404040"/>
  <path d="M13.208 13.039v-1.916a2.609 2.609 0 01-2.415 0v1.916c.805.354 1.61.336 2.415 0z" fill="#EFB490"/>
  <path d="M12 11.418c-.435 0-.845-.107-1.207-.295v.925a2.974 2.974 0 002.415 0v-.925a2.609 2.609 0 01-1.208.295z" fill="#D49F80"/>
  <path d="M9.014 5.907v2.578a2.986 2.986 0 105.972 0V5.907c-2.458-.025-4.098-1.28-4.098-1.28s-.823.847-1.874 1.28z" fill="#EFB490"/>
  <path d="M10.889 4.628s-.337.346-.855.709c.385.262 1.891 1.188 4 1.21v2.577c0 .826-.336 1.574-.878 2.115a2.987 2.987 0 001.83-2.754V5.907c-2.457-.025-4.097-1.28-4.097-1.28z" fill="#D49F80"/>
  <path d="M18.476 19.693l-.962-3.948c-.477-1.957-2.253-3.135-3.966-3.156V11.3a3.32 3.32 0 001.598-1.893h.05c.869 0 1.603-.65 1.708-1.512a31.48 31.48 0 00.204-2.294.34.34 0 10-.68-.033c-.034.695-.099 1.43-.199 2.244-.06.488-.456.85-.936.897.071-.697.007.425.034-2.913 0-.046-.032-.079-.05-.119-.016-.04-.018-.089-.049-.12-.03-.031-.078-.033-.119-.05-.04-.018-.072-.051-.119-.052-2.306-.022-3.88-1.197-3.894-1.208a.34.34 0 00-.451.033c-.008.008-.785.8-1.76 1.201-.023.01-.03.035-.049.048a.314.314 0 00-.136.204c-.005.023-.026.038-.026.063v2.578c0 .12.023.235.035.353h-.081c-.517 0-.96-.386-1.03-.898A22.496 22.496 0 017.364 4.6c.014-2.33 2.343-4.04 4.579-3.204.402.151.746.37 1.022.65a.34.34 0 00.492-.006l.026-.028c.461-.485 1.14-.65 1.774-.432.636.22 1.07.77 1.133 1.438l.026.257c.028.28.04.396.04.8a.34.34 0 00.68 0c0-.439-.014-.583-.043-.87a26.833 26.833 0 01-.025-.251A2.347 2.347 0 0015.479.938a2.338 2.338 0 00-2.275.406A3.548 3.548 0 0012.18.76C9.492-.247 6.7 1.805 6.684 4.597a23.16 23.16 0 00.24 3.326c.117.847.85 1.485 1.704 1.485h.227c.27.82.845 1.494 1.598 1.893v1.288c-1.772.021-3.498 1.236-3.966 3.155l-.149.612a.34.34 0 00.661.16l.15-.61c.206-.85.72-1.551 1.4-2.02l-.502 1.575a.34.34 0 00.441.423l1.01-.37 2.219 3.788v3.511c-1.625-.052-3.25-.537-4.898-1.487a1.342 1.342 0 01-.633-1.472l.42-1.72a.34.34 0 10-.662-.16l-.419 1.72c-.21.863.182 1.777.954 2.222 3.662 2.111 7.38 2.113 11.043 0a2.026 2.026 0 00.954-2.223zm-3.268-4.686l-.624-.23a.34.34 0 00-.41.148l-.663 1.13.919-2.647c.1.028.202.056.299.094l.48 1.505zm-2.34-2.326a2.55 2.55 0 01-1.735.003v-.957c.56.172 1.174.172 1.735 0v.954zm-.823.992l1.154 1.205-1.15 3.317-1.212-3.316 1.208-1.206zm1.705-.383l-.3.866-.698-.729a3.78 3.78 0 00.503-.158h.241c.086 0 .169.015.254.021zM9.354 8.375V6.008a6.82 6.82 0 001.57-1.054c.524.335 1.885 1.046 3.723 1.149v2.272A2.65 2.65 0 0112 11.02a2.65 2.65 0 01-2.646-2.646zm1.15 4.894h.24c.185.076.371.142.56.183l-.724.722-.323-.884c.083-.006.163-.021.248-.021zm-.974 1.509l-.624.229.495-1.555c.057-.02.116-.029.174-.045l.867 2.374-.501-.856a.34.34 0 00-.41-.147zm7.652 6.549c-1.61.927-3.197 1.407-4.784 1.478v-3.503l2.219-3.787 1.01.37a.34.34 0 00.44-.423l-.47-1.48a3.445 3.445 0 011.255 1.924l.963 3.948c.139.572-.121 1.178-.633 1.473z" fill="#000"/>
</svg>
