<svg width="24" height="24" fill="none" xmlns="http://www.w3.org/2000/svg">
  <defs/>
  <path d="M6.452 5.86V4.402a2.998 2.998 0 012.995-2.995h5.106a2.998 2.998 0 012.994 2.995v3.157h-1.662V4.401c0-.735-.598-1.333-1.332-1.333H9.447c-.735 0-1.333.598-1.333 1.333v3.142H6.452V5.861z" fill="#636363"/>
  <path d="M8.114 5.86H6.872c-.141 0-.281.006-.42.016v1.667h1.662V5.86zM15.886 7.558h1.662V5.876a6.064 6.064 0 00-.42-.015h-1.242v1.697z" fill="#424242"/>
  <path d="M21.766 22.594H2.234c-.71 0-1.285-.575-1.285-1.285v-7.843a5.923 5.923 0 015.924-5.923h10.254a5.923 5.923 0 015.924 5.923v7.844c0 .709-.575 1.284-1.285 1.284z" fill="#EEEDEE"/>
  <path d="M17.127 7.543h-2.605a5.923 5.923 0 015.923 5.923v7.844c0 .709-.575 1.284-1.285 1.284h2.606c.71 0 1.284-.575 1.284-1.285v-7.843a5.923 5.923 0 00-5.923-5.923z" fill="#CCCBCC"/>
  <path d="M.95 21.31c0 .709.574 1.284 1.284 1.284h19.532c.71 0 1.285-.575 1.285-1.285v-1.635H.949v1.636z" fill="#EF2D57"/>
  <path d="M20.446 19.674v1.636c0 .709-.575 1.284-1.285 1.284h2.606c.71 0 1.284-.575 1.284-1.285v-1.635h-2.605z" fill="#BF2445"/>
  <path d="M15.526 12.734h-2.223V10.51h-2.606v2.224H8.474v2.605h2.223v2.224h2.606v-2.224h2.223v-2.605z" fill="#EF2D57"/>
  <path d="M13.303 10.51H12v7.053h1.303v-2.224h2.223v-2.605h-2.223V10.51z" fill="#BF2445"/>
  <path d="M17.941 7.2V4.324A3.366 3.366 0 0014.58.96H9.42A3.366 3.366 0 006.06 4.324V7.2A6.269 6.269 0 00.5 13.421v7.996c0 .894.727 1.622 1.622 1.622h19.756c.895 0 1.622-.728 1.622-1.622v-7.996a6.27 6.27 0 00-5.559-6.22zM6.733 4.324A2.692 2.692 0 019.42 1.635h5.158a2.692 2.692 0 012.688 2.689V7.16h-1.005V4.324c0-.928-.755-1.684-1.683-1.684H9.42c-.928 0-1.683.756-1.683 1.684v1.474a.337.337 0 10.674 0V4.324c0-.557.453-1.01 1.01-1.01h5.157c.556 0 1.01.453 1.01 1.01V7.16H6.732V4.324zm-4.67 18.038a.962.962 0 01-.89-.958V20.09h3.48a.337.337 0 000-.674h-3.48v-5.994A5.593 5.593 0 016.76 7.835h10.48c3.074 0 5.586 2.5 5.586 5.586v5.994H6.314a.337.337 0 000 .674h16.512c0 1.438.002 1.317-.003 1.387a.962.962 0 01-.931.888c-.01 0-19.742.003-19.83-.002z" fill="#000"/>
  <path d="M8.438 15.71h1.909v1.91c0 .185.15.336.337.336h2.632c.186 0 .337-.15.337-.337V15.71h1.909c.186 0 .337-.15.337-.337v-2.632a.337.337 0 00-.337-.337h-1.91v-1.91a.337.337 0 00-.336-.336h-2.632a.337.337 0 00-.337.337v1.91h-1.91a.337.337 0 00-.336.336v2.632c0 .186.15.337.336.337zm.336-2.632h1.91a.337.337 0 00.337-.337v-1.91h1.958v1.91c0 .186.15.337.337.337h1.909v1.958h-1.91a.337.337 0 00-.336.337v1.91H11.02v-1.91a.337.337 0 00-.337-.337h-1.91v-1.958z" fill="#000"/>
</svg>
