<svg width="24" height="24" fill="none" xmlns="http://www.w3.org/2000/svg">
  <defs/>
  <path d="M7.602 14.508H1.6a.646.646 0 01-.644-.644V1.617c0-.355.29-.645.644-.645h17.917c.355 0 .645.29.645.645v12.83l-12.56.06z" fill="#A0758E"/>
  <path d="M.94 9.075L9.16.951H4.905L.94 4.915v4.16z" fill="#FFEFCA"/>
  <path d="M8.285 14.5V3.394c0-.355.288-.643.643-.643h11.24v11.772L8.284 14.5z" fill="#826075"/>
  <path d="M23.152 4.574V22.49c0 .354-.29.644-.645.644H10.26a.646.646 0 01-.644-.644V4.574c0-.355.29-.645.644-.645h12.247c.355 0 .645.29.645.645z" fill="#FFEFCA"/>
  <path d="M9.616 10.242V4.574c0-.355.29-.645.644-.645h12.247c.355 0 .645.29.645.645v5.668H9.616z" fill="#FFF7E6"/>
  <path d="M16.383 8.643a1.576 1.576 0 100-3.151 1.576 1.576 0 000 3.151z" fill="#3CD3A8"/>
  <g fill="#FFDFA1">
    <path d="M.94 9.077V7.743L7.85.94h1.31L.94 9.077zM23.151 10.232v12.26c0 .354-.29.644-.644.644h-.939V10.232"/>
  </g>
  <path d="M21.568 10.23v-6.3h.94c.353 0 .643.29.643.644v5.657" fill="#FFEFCA"/>
  <path d="M22.453 3.473H10.206c-.577 0-1.047.47-1.047 1.047v17.917c0 .577.47 1.047 1.047 1.047h12.247c.577 0 1.047-.47 1.047-1.047V4.52c0-.577-.47-1.047-1.047-1.047zm-12.247.805h12.247c.13 0 .242.111.242.242v5.203H9.965V4.52c0-.13.11-.242.241-.242zm12.247 18.4H10.206a.245.245 0 01-.242-.24v-11.91h12.73v11.91c0 .13-.11.24-.241.24zM7.492 16.856H2.248a.403.403 0 000 .805h5.244a.403.403 0 000-.805zM7.492 18.563H2.248a.403.403 0 000 .806h5.244a.403.403 0 000-.806zM7.492 20.27H2.248a.403.403 0 000 .806h5.244a.403.403 0 000-.806z" fill="#000"/>
  <path d="M20.14 13.681H12.52a.403.403 0 100 .805h7.621a.403.403 0 100-.805zM20.14 16.18H12.52a.403.403 0 000 .806h7.621a.403.403 0 000-.805zM20.14 18.68H12.52a.403.403 0 100 .806h7.621a.403.403 0 100-.805zM1.351 9.127l7.753-7.753a.4.4 0 00.044-.053h10.316c.131 0 .242.11.242.242v.453a.403.403 0 00.805 0v-.453c0-.577-.47-1.047-1.047-1.047H1.547C.97.516.5.986.5 1.563V13.81c0 .577.47 1.047 1.047 1.047h6.001a.403.403 0 000-.806H1.547a.245.245 0 01-.242-.241V9.166a.395.395 0 00.046-.04zm-.046-1.093V5.006a.4.4 0 00.046-.04L4.85 1.469a.4.4 0 00.093-.147h3.075L1.305 8.034zm.242-6.713h2.31L1.306 3.874V1.563c0-.131.11-.242.242-.242z" fill="#000"/>
  <path d="M16.33 8.993a1.98 1.98 0 001.979-1.979 1.98 1.98 0 00-1.979-1.978 1.98 1.98 0 00-1.978 1.978 1.98 1.98 0 001.978 1.979zm0-3.152c.647 0 1.173.526 1.173 1.173s-.526 1.173-1.173 1.173a1.175 1.175 0 01-1.173-1.173c0-.647.526-1.173 1.173-1.173z" fill="#000"/>
</svg>
