<svg width="24" height="24" fill="none" xmlns="http://www.w3.org/2000/svg">
  <defs/>
  <path d="M23.14 19.93v2.229c0 .33-.271.6-.602.6H11.754a.603.603 0 01-.602-.6V6.353c0-.33.27-.601.602-.601h10.784c.33 0 .601.27.601.6v11.313" fill="#FFDFA1"/>
  <path d="M11.144 20.025h8.708c.331 0 .602-.27.602-.601V5.746h-8.688l-.605 11.958-.017 2.32z" fill="#FCC973"/>
  <path d="M19.57 18.515c0 .33-.27.601-.6.601H8.184a.603.603 0 01-.601-.6V2.708c0-.33.27-.6.601-.6H18.97c.331 0 .602.27.602.6v15.806z" fill="#FFEFCA"/>
  <path d="M11.245 6.005a1.094 1.094 0 100-2.189 1.094 1.094 0 000 2.19z" fill="#6BE8C7"/>
  <path d="M3.05 5.626a2.123 2.123 0 100-4.246 2.123 2.123 0 000 4.246z" fill="#97EFFF"/>
  <path d="M1.837 12.77h-.126a.603.603 0 01-.602-.601v-1.48c0-.33.27-.6.602-.6h2.611c.33 0 .601.27.601.6v1.48c0 .33-.27.601-.6.601H1.836z" fill="#8D93A4"/>
  <path d="M3.05 4.748a1.245 1.245 0 100-2.49 1.245 1.245 0 000 2.49z" fill="#A0758E"/>
  <path d="M18.969 2.108c.33 0 .601.27.601.601v15.806c0 .33-.27.601-.601.601V2.108z" fill="#FFDFA1"/>
  <path d="M22.554 5.75c.33 0 .6.271.6.602v15.806c0 .33-.27.601-.6.601V5.751z" fill="#FCC973"/>
  <path d="M4.172 10.088c.33 0 .601.271.601.602v1.48c0 .33-.27.6-.601.6V10.09z" fill="#707682"/>
  <g fill="#B1C6D3">
    <path d="M1.824 12.771a.603.603 0 01-.583-.6v-1.48c0-.33.27-.601.601-.601l-.018 2.681zM1.837 12.772h-.145"/>
  </g>
  <path d="M22.523 5.286h-1.197a.376.376 0 100 .752h1.197c.122 0 .226.103.226.225V22.07a.229.229 0 01-.226.226H11.739a.228.228 0 01-.226-.226v-1.23a.376.376 0 00-.751 0v1.23c0 .539.438.977.977.977h10.784a.978.978 0 00.977-.977V6.263a.978.978 0 00-.977-.977z" fill="#000"/>
  <path d="M19.896 18.465v-2.229a.376.376 0 00-.751 0v2.229a.229.229 0 01-.226.226H8.135a.229.229 0 01-.225-.226V2.659c0-.122.103-.225.225-.225H18.92c.123 0 .226.103.226.225v11.313a.376.376 0 10.751 0V2.659a.978.978 0 00-.977-.977H8.135a.978.978 0 00-.977.977v15.806c0 .539.439.977.977.977H18.92a.978.978 0 00.977-.977z" fill="#000"/>
  <path d="M16.547 15.5h-6.479a.376.376 0 100 .751h6.48a.376.376 0 100-.751zM16.547 12.827h-6.479a.376.376 0 100 .752h6.48a.376.376 0 100-.752zM16.547 10.154h-6.479a.376.376 0 100 .752h6.48a.376.376 0 100-.752zM16.547 7.482h-6.479a.376.376 0 100 .751h6.48a.376.376 0 100-.751zM11.195 6.331c.81 0 1.47-.66 1.47-1.47 0-.81-.66-1.47-1.47-1.47-.81 0-1.47.66-1.47 1.47 0 .81.66 1.47 1.47 1.47zm0-2.189a.72.72 0 11-.002 1.44.72.72 0 01.002-1.44zM2.999.954c-.37 0-.728.08-1.064.239A2.482 2.482 0 00.649 2.608a2.482 2.482 0 00.09 1.91A2.51 2.51 0 003.675 5.86l.598 1.27a.376.376 0 10.68-.32l-.594-1.26a2.48 2.48 0 00.994-1.252 2.482 2.482 0 00-.091-1.91A2.51 2.51 0 002.999.954zm1.646 3.09c-.158.44-.478.79-.9.99a1.731 1.731 0 01-.743.167A1.756 1.756 0 011.42 4.198a1.736 1.736 0 01-.064-1.336c.158-.44.477-.79.9-.99.235-.11.485-.167.743-.167.674 0 1.295.394 1.582 1.003.199.422.221.897.064 1.336zM16.563 4.508h-2.12a.376.376 0 100 .751h2.12a.376.376 0 100-.751zM4.272 9.663H1.661a.978.978 0 00-.977.977v1.479c0 .539.438.977.977.977h.126a.376.376 0 100-.752h-.126a.229.229 0 01-.226-.225v-1.48c0-.122.103-.225.226-.225h2.611c.122 0 .226.103.226.226v1.479a.229.229 0 01-.226.225h-.097a.376.376 0 100 .752h.097a.978.978 0 00.977-.977v-1.48a.978.978 0 00-.977-.976z" fill="#000"/>
  <path d="M2.966 11.324a.376.376 0 00-.376.376v6.98a.376.376 0 10.751 0V11.7a.376.376 0 00-.375-.376z" fill="#000"/>
</svg>
