<svg width="24" height="24" fill="none" xmlns="http://www.w3.org/2000/svg">
  <defs/>
  <path d="M20.718 22.589a.538.538 0 01-.539.538H4.565a.538.538 0 01-.539-.538V1.41c0-.297.241-.538.539-.538h15.614c.297 0 .539.24.539.538v21.178z" fill="#FFEFCA"/>
  <g fill="#8D93A4">
    <path d="M4.822 4.424h-1.59a.373.373 0 110-.745h1.59a.373.373 0 110 .745zM4.822 7.603h-1.59a.373.373 0 110-.745h1.59a.373.373 0 110 .745zM4.822 10.783h-1.59a.373.373 0 110-.745h1.59a.373.373 0 110 .745zM4.822 13.962h-1.59a.373.373 0 010-.745h1.59a.373.373 0 110 .745zM4.822 17.141h-1.59a.373.373 0 010-.745h1.59a.373.373 0 110 .745zM4.822 20.32h-1.59a.373.373 0 010-.745h1.59a.373.373 0 110 .745z"/>
  </g>
  <path d="M10.56 7.06a2.082 2.082 0 01-2.08-2.08 2.082 2.082 0 012.795-1.952.373.373 0 11-.256.7 1.336 1.336 0 00-1.794 1.254c0 .735.598 1.333 1.334 1.333a1.336 1.336 0 001.264-1.765.373.373 0 01.706-.24 2.082 2.082 0 01-1.97 2.75z" fill="#60D8E8"/>
  <path d="M3.282 19.576a.373.373 0 100 .745h.422v2.268c0 .502.409.911.911.911H20.23a.912.912 0 00.911-.911v-1.477a.373.373 0 10-.745 0v1.477a.166.166 0 01-.166.166H4.615a.166.166 0 01-.166-.166V20.32h.422a.373.373 0 100-.745H4.45V17.14h.422a.373.373 0 100-.745H4.45v-2.434h.422a.373.373 0 000-.745H4.45v-2.434h.422a.373.373 0 000-.745H4.45V7.604h.422a.373.373 0 100-.746H4.45V4.424h.422a.373.373 0 100-.745H4.45V1.411c0-.091.075-.166.166-.166h15.614c.092 0 .166.075.166.166V17.86a.372.372 0 10.745 0V1.41A.912.912 0 0020.23.5H4.614a.912.912 0 00-.911.911v2.268h-.422a.373.373 0 100 .745h.422V6.86h-.422a.373.373 0 100 .745h.422v2.434h-.422a.373.373 0 100 .745h.422v2.434h-.422a.373.373 0 100 .745h.422v2.434h-.422a.373.373 0 100 .746h.422v2.434h-.422z" fill="#000"/>
  <path d="M17.91 7.882H7.576a.373.373 0 100 .745h10.332a.373.373 0 100-.745zM17.91 9.471H7.576a.373.373 0 100 .746h10.332a.373.373 0 100-.746zM17.91 11.061H7.576a.373.373 0 000 .745h10.332a.373.373 0 100-.745zM17.91 12.65H7.576a.373.373 0 000 .746h10.332a.373.373 0 100-.745zM17.91 14.24H7.576a.373.373 0 100 .745h10.332a.373.373 0 100-.745zM17.91 15.83H7.576a.373.373 0 100 .745h10.332a.373.373 0 100-.745zM18.282 17.792a.372.372 0 00-.373-.372H7.577a.373.373 0 100 .745h10.332a.373.373 0 00.373-.373zM7.577 19.009a.373.373 0 000 .745h5.219a.373.373 0 100-.745h-5.22zM17.979 4.604h-3.604a.372.372 0 100 .745h3.604a.373.373 0 100-.745zM17.979 6.026h-3.604a.372.372 0 100 .746h3.604a.373.373 0 100-.746z" fill="#000"/>
</svg>
