<svg width="24" height="24" fill="none" xmlns="http://www.w3.org/2000/svg">
  <defs/>
  <path d="M23.101 4.602V3.437A2.453 2.453 0 0020.648.984H3.363A2.453 2.453 0 00.91 3.437v14.33a2.453 2.453 0 002.453 2.454h17.285a2.453 2.453 0 002.453-2.454V6.034" fill="#CFDCE5"/>
  <g fill="#4EBFED">
    <path d="M8.67 4.242v12.72c0 .52-.422.942-.942.942H4a.942.942 0 01-.942-.942V4.242c0-.52.421-.942.942-.942h3.728a.938.938 0 01.942.942zM12.678 9.041v.841c0 .301-.244.545-.544.545h-.841a.545.545 0 01-.545-.545v-.84c0-.302.244-.546.545-.546h.84c.302 0 .546.244.546.545zM12.678 12.78v.841c0 .301-.244.544-.544.544h-.841a.544.544 0 01-.545-.544v-.841c0-.301.244-.545.545-.545h.84c.302 0 .546.244.546.545zM12.678 16.518v.842c0 .3-.244.544-.544.544h-.841a.544.544 0 01-.545-.544v-.842c0-.3.244-.545.545-.545h.84c.302 0 .546.244.546.545zM16.83 16.518v.842c0 .3-.243.544-.544.544h-.841a.544.544 0 01-.545-.544v-.842c0-.3.244-.545.545-.545h.841c.3 0 .545.244.545.545zM16.83 12.78v.841c0 .301-.243.544-.544.544h-.841a.544.544 0 01-.545-.544v-.841c0-.301.244-.545.545-.545h.841c.3 0 .545.244.545.545zM16.83 9.041v.841c0 .301-.243.545-.544.545h-.841a.545.545 0 01-.545-.545v-.84c0-.302.244-.546.545-.546h.841c.3 0 .545.244.545.545zM20.982 9.041v.841c0 .301-.244.545-.544.545h-.842a.545.545 0 01-.544-.545v-.84c0-.302.244-.546.544-.546h.842c.3 0 .544.244.544.545zM20.982 12.78v.841c0 .301-.244.544-.544.544h-.842a.544.544 0 01-.544-.544v-.841c0-.301.244-.545.544-.545h.842c.3 0 .544.244.544.545zM20.982 16.518v.842c0 .3-.244.544-.544.544h-.842a.544.544 0 01-.544-.544v-.842c0-.3.244-.545.544-.545h.842c.3 0 .544.244.544.545z"/>
  </g>
  <path d="M20.982 4.283v1.549c0 .542-.44.981-.982.981h-8.27a.982.982 0 01-.982-.981v-1.55c0-.542.44-.981.982-.981H20c.543 0 .982.44.982.982z" fill="#fff"/>
  <path d="M23.096 14.855a.404.404 0 00.404-.404V3.453A2.86 2.86 0 0020.642.595H3.358A2.86 2.86 0 00.5 3.453v14.33a2.86 2.86 0 002.858 2.858h2.096v1.128a1.638 1.638 0 002.792 1.157c.309-.31.479-.72.479-1.157v-1.128h11.917a2.86 2.86 0 002.858-2.858v-1.9a.404.404 0 00-.809 0v1.9a2.05 2.05 0 01-2.049 2.049H6.262v-1.508h1.46c.743 0 1.347-.604 1.347-1.347V7.34a.404.404 0 00-.81 0v9.637a.538.538 0 01-.537.538H3.994a.538.538 0 01-.538-.538V4.257c0-.296.242-.537.538-.537h3.728c.297 0 .538.241.538.537v1.651a.404.404 0 00.809 0v-1.65c0-.743-.604-1.346-1.347-1.346H3.994c-.742 0-1.346.603-1.346 1.345v12.72c0 .743.604 1.347 1.346 1.347h1.46v1.508H3.358a2.05 2.05 0 01-2.05-2.049V3.453c0-1.13.92-2.049 2.05-2.049h17.284a2.05 2.05 0 012.05 2.049V14.45c0 .223.18.404.404.404zm-15.18 5.786v1.128c0 .22-.086.429-.242.585a.828.828 0 01-1.411-.584v-1.13h1.653z" fill="#000"/>
  <path d="M21.381 4.298c0-.764-.622-1.386-1.387-1.386h-8.27c-.764 0-1.386.622-1.386 1.386v1.55c0 .764.622 1.385 1.386 1.385h5.569a.404.404 0 100-.809h-5.569a.578.578 0 01-.577-.577V4.298c0-.318.259-.577.577-.577h8.27c.319 0 .578.259.578.577v1.55c0 .317-.26.576-.578.576h-1.353a.404.404 0 100 .81h1.353c.765 0 1.387-.623 1.387-1.387V4.298zM13.077 9.057a.95.95 0 00-.949-.95h-.841a.95.95 0 00-.95.95v.84a.95.95 0 00.95.95h.841a.95.95 0 00.95-.95v-.84zm-.809.84a.14.14 0 01-.14.141h-.841a.14.14 0 01-.14-.14v-.841a.14.14 0 01.14-.14h.841a.14.14 0 01.14.14v.84zM21.381 9.057a.95.95 0 00-.95-.95h-.84a.95.95 0 00-.95.95v.84a.95.95 0 00.95.95h.84a.95.95 0 00.95-.95v-.84zm-.809.84a.14.14 0 01-.14.141h-.841a.14.14 0 01-.14-.14v-.841a.14.14 0 01.14-.14h.84a.14.14 0 01.141.14v.84zM17.23 9.057a.95.95 0 00-.95-.95h-.84a.95.95 0 00-.95.95v.84a.95.95 0 00.95.95h.84a.95.95 0 00.95-.95v-.84zm-.81.84a.14.14 0 01-.14.141h-.84a.14.14 0 01-.14-.14v-.841a.14.14 0 01.14-.14h.84a.14.14 0 01.14.14v.84zM13.077 12.795a.95.95 0 00-.949-.95h-.841a.95.95 0 00-.95.95v.842a.95.95 0 00.95.948h.841a.95.95 0 00.95-.948v-.842zm-.809.842a.14.14 0 01-.14.14h-.841a.14.14 0 01-.14-.14v-.842a.14.14 0 01.14-.14h.841a.14.14 0 01.14.14v.842zM21.381 12.795a.95.95 0 00-.95-.95h-.84a.95.95 0 00-.95.95v.842a.95.95 0 00.95.948h.84a.95.95 0 00.95-.948v-.842zm-.809.842a.14.14 0 01-.14.14h-.841a.14.14 0 01-.14-.14v-.842a.14.14 0 01.14-.14h.84a.14.14 0 01.141.14v.842zM17.23 12.795a.95.95 0 00-.95-.95h-.84a.95.95 0 00-.95.95v.842a.95.95 0 00.95.948h.84a.95.95 0 00.95-.948v-.842zm-.81.842a.14.14 0 01-.14.14h-.84a.14.14 0 01-.14-.14v-.842a.14.14 0 01.14-.14h.84a.14.14 0 01.14.14v.842zM12.128 15.584h-.841a.95.95 0 00-.95.95v.841a.95.95 0 00.95.949h.841a.95.95 0 00.95-.949v-.842a.95.95 0 00-.95-.949zm.14 1.791a.14.14 0 01-.14.14h-.841a.14.14 0 01-.14-.14v-.842a.14.14 0 01.14-.14h.841a.14.14 0 01.14.14v.842zM20.432 15.584h-.841a.95.95 0 00-.95.95v.841a.95.95 0 00.95.949h.84a.95.95 0 00.95-.949v-.842a.95.95 0 00-.95-.949zm.14 1.791a.14.14 0 01-.14.14h-.841a.14.14 0 01-.14-.14v-.842a.14.14 0 01.14-.14h.84a.14.14 0 01.141.14v.842zM16.28 15.584h-.84a.95.95 0 00-.95.95v.841a.95.95 0 00.95.949h.84a.95.95 0 00.95-.949v-.842a.95.95 0 00-.95-.949zm.14 1.791a.14.14 0 01-.14.14h-.84a.14.14 0 01-.14-.14v-.842a.14.14 0 01.14-.14h.84a.14.14 0 01.14.14v.842z" fill="#000"/>
</svg>
