<svg width="24" height="24" fill="none" xmlns="http://www.w3.org/2000/svg">
  <defs/>
  <path d="M22.053 22.956H4.333a1.11 1.11 0 01-1.11-1.11v-7.11c0-.613.497-1.11 1.11-1.11h17.72c.613 0 1.11.497 1.11 1.11v7.11a1.11 1.11 0 01-1.11 1.11z" fill="#A4D852"/>
  <path d="M22.052 13.626H20.86v9.33h1.192a1.11 1.11 0 001.11-1.11v-7.11a1.11 1.11 0 00-1.11-1.11z" fill="#97C63E"/>
  <path d="M13.192 15.985a3.596 3.596 0 100-7.191 3.596 3.596 0 000 7.191z" fill="#FF9C43"/>
  <path d="M15.045 9.307a3.586 3.586 0 00-2.978-.331 3.596 3.596 0 01-.002 6.827 3.596 3.596 0 002.98-6.496z" fill="#EF8229"/>
  <path d="M10.17 9.939l-1.617-.971a.79.79 0 01-.36-.488l-.003-.01c-.084-.34.145-.819.45-.988l2.967-.74 1.171.868.497 1.185a3.575 3.575 0 012.435 1.027c-.15-.966-.36-2.31-.433-2.88a1.48 1.48 0 00-.59-1.006l-2.986-2.2a2.608 2.608 0 00-1.482-.508c-1.197-.03-3.386-.112-4.277-.33L4.06 1.819 1.376 6.286l.545.276c.233.14.427.338.564.573l1.218 1.902c.386.597.936 1.07 1.584 1.363l1.592.72 3.84 2.305c.442.266.903.311 1.168-.131.554-.731-.51-2.63-1.717-3.355z" fill="#FAE0C1"/>
  <path d="M10.783 13.28c.306-.51.142-1.17-.368-1.477l-.58-.348a.554.554 0 00-.76.19l-.35.583 1.977 1.188.081-.136z" fill="#EDEDED"/>
  <path d="M.884 6.503l3.183-5.298a.33.33 0 01.453-.113l1.204.725a.33.33 0 01.113.453L2.654 7.57a.33.33 0 01-.453.112L.997 6.956a.33.33 0 01-.113-.453z" fill="#F43B45"/>
  <path d="M17.601 17.226H8.847a.254.254 0 01-.254-.254v-.732c0-.14.114-.255.254-.255h8.754c.14 0 .255.114.255.255v.732c0 .14-.114.254-.255.254z" fill="#454851"/>
  <g fill="#000">
    <path d="M17.601 15.648h-2.208a3.91 3.91 0 001.17-1.234c.542-.9.7-1.957.445-2.977a3.91 3.91 0 00-.982-1.778l-.036-.23c-.14-.903-.315-2.029-.378-2.529a1.824 1.824 0 00-.725-1.235l-2.986-2.2a2.93 2.93 0 00-1.674-.574c-1.998-.05-3.507-.162-4.16-.31l-.018-.01.076-.127a.668.668 0 00-.227-.915L4.694.803a.662.662 0 00-.506-.076.663.663 0 00-.41.304L.595 6.33a.668.668 0 00.228.915l1.204.725a.663.663 0 00.617.038L3.42 9.22a4.037 4.037 0 001.728 1.486l1.574.711 2.581 1.55c.163 1.1.769 2.061 1.689 2.68H8.847a.592.592 0 00-.591.592v.732c0 .326.265.591.591.591h8.754a.592.592 0 00.591-.591v-.732a.592.592 0 00-.591-.592zM1.173 6.677l-.29-.174.29.174zm1.249.624a.381.381 0 00-.007.012l-.046.077-1.193-.72 3.176-5.286 1.192.719L2.422 7.3zm6.364 4.17l-.177.294-1.557-.935a.354.354 0 00-.034-.018l-1.592-.72a3.363 3.363 0 01-1.44-1.236l-.883-1.38 2.599-4.327.072.042a.336.336 0 00.088.035c.919.223 3.119.308 4.348.339a2.26 2.26 0 011.291.441l2.986 2.201c.251.185.417.468.456.777.053.42.181 1.26.304 2.052l-.03-.018a3.931 3.931 0 00-1.713-.55l-.415-.988a.337.337 0 00-.11-.14l-1.172-.869a.337.337 0 00-.282-.056l-2.966.74a.336.336 0 00-.081.032c-.447.247-.734.884-.615 1.363l.003.011c.073.294.256.54.513.695l1.617.971a2.717 2.717 0 01.235.159c.683.512 1.305 1.418 1.444 2.141.049.251.029.451-.056.563a.335.335 0 00-.02.03c-.085.141-.173.164-.248.168a.55.55 0 01-.183-.026 1.415 1.415 0 00-.58-1.748l-.579-.348a.892.892 0 00-1.223.305zm3.991-2.992a3.936 3.936 0 00-2.416 1.181l-.018-.01-1.617-.972a.452.452 0 01-.206-.28l-.003-.01c-.044-.175.09-.474.256-.592l2.76-.689.97.719.274.653zm-3.59 3.634l.177-.295a.217.217 0 01.298-.074l.58.348a.74.74 0 01.326.85l-1.38-.83zm.925 1.34l.416.251.017.01c.275.165.539.249.785.249.019 0 .038 0 .057-.002a.923.923 0 00.557-.217c.049.292.525.61 1.147.625v.152c0 .07.082.136.185.136.092 0 .185-.065.185-.136v-.168c.608-.098 1.026-.484 1.026-1.152 0-.738-.543-.983-1.026-1.162v-.956c.364.027.489.201.64.201.202 0 .288-.25.288-.375 0-.315-.575-.418-.928-.429v-.14c0-.071-.093-.136-.185-.136-.103 0-.184.065-.184.135v.152c-.544.07-1.054.37-1.054 1.06v.005a5.142 5.142 0 00-1.134-1.487 3.262 3.262 0 014.592.013c.416.414.713.935.859 1.518.21.845.08 1.721-.369 2.467a3.262 3.262 0 01-5.874-.613zm2.98-.811v1.08c-.463-.052-.63-.384-.828-.405.116-.25.141-.562.073-.917a2.604 2.604 0 00-.045-.191c.209.211.515.327.8.433zM12.7 11.48c0-.207.164-.337.435-.38v.82c-.25-.098-.434-.201-.434-.44zm.717 2.237v-.945c.234.104.408.234.408.5 0 .255-.169.396-.408.445zm4.101 3.172H8.93v-.567h8.588v.567z"/>
    <path d="M22.053 13.289h-4.135a.337.337 0 100 .674h4.135c.427 0 .773.347.773.773v7.11a.774.774 0 01-.773.773H4.333a.774.774 0 01-.773-.773v-7.11c0-.426.346-.773.773-.773h4.131a.337.337 0 000-.674H4.333c-.798 0-1.447.65-1.447 1.447v7.11c0 .797.649 1.447 1.447 1.447h17.72c.798 0 1.447-.65 1.447-1.447v-7.11c0-.798-.649-1.447-1.447-1.447z"/>
  </g>
</svg>
