<svg width="24" height="24" fill="none" xmlns="http://www.w3.org/2000/svg">
  <defs/>
  <path d="M12.026.884a5.994 5.994 0 00-2.724 11.334v9.824l1.694 1.074h1.531l2.224-2.223-.845-1.39.845-1.389-1.333-1.878 1.333-1.877v-2.141A5.994 5.994 0 0012.026.884zm0 5.751a1.594 1.594 0 110-3.188 1.594 1.594 0 010 3.188z" fill="#FCD577"/>
  <path d="M17.475 3.605a.384.384 0 10-.658.394c.52.867.794 1.862.794 2.879a5.59 5.59 0 01-3.061 4.998.383.383 0 00-.209.342v2.019l-1.262 1.777a.384.384 0 000 .444l1.187 1.672-.714 1.174a.384.384 0 000 .399l.688 1.132-1.898 1.898h-.99V16.52a.384.384 0 00-.766 0v5.9l-.927-.589v-6.538a.384.384 0 00-.767 0v6.749c0 .131.067.253.178.324l1.694 1.074c.061.04.133.06.205.06h1.532c.101 0 .199-.04.271-.112l2.224-2.224a.384.384 0 00.056-.47l-.723-1.19.723-1.191a.383.383 0 00-.015-.421l-1.175-1.656 1.174-1.653a.384.384 0 00.072-.224v-1.911a6.352 6.352 0 003.27-5.57 6.367 6.367 0 00-.903-3.273zM8.892 13.912a.384.384 0 00.767 0v-1.694a.384.384 0 00-.21-.341 5.59 5.59 0 01-3.06-5A5.617 5.617 0 0112 1.268a5.56 5.56 0 014.074 1.753.384.384 0 00.557-.528A6.32 6.32 0 0012 .5a6.385 6.385 0 00-6.378 6.378 6.352 6.352 0 003.27 5.57v1.464z" fill="#000"/>
  <path d="M10.586 12.888v2.354a.384.384 0 00.767 0v-2.354a.384.384 0 00-.767 0zM13.977 5.041A1.98 1.98 0 0012 3.064a1.98 1.98 0 00-1.977 1.977A1.98 1.98 0 0012 7.02a1.98 1.98 0 001.977-1.978zm-3.188 0c0-.667.543-1.21 1.21-1.21.668 0 1.211.543 1.211 1.21 0 .668-.543 1.21-1.21 1.21-.668 0-1.21-.542-1.21-1.21zM14.838 8.85a.384.384 0 00-.384-.383H9.546a.384.384 0 000 .767h4.909a.384.384 0 00.383-.384z" fill="#000"/>
</svg>
