<svg width="24" height="24" fill="none" xmlns="http://www.w3.org/2000/svg">
  <defs/>
  <path d="M17.883 2.983h-6.018v17.893h6.018V2.983z" fill="#415E72"/>
  <path d="M12.84 23.103l-7.93-1.586V3.012L12.84.897v22.206z" fill="#BAC6CC"/>
  <path d="M12.84 21.951h6.25V2.05h-6.25v1.926h4.324v16.05H12.84v1.926z" fill="#CFDCE5"/>
  <path d="M10.993 13.218a.397.397 0 100-.793H9.636a.397.397 0 100 .793h1.357z" fill="#000"/>
  <path d="M19.09 1.652h-5.853V.897a.397.397 0 00-.499-.384l-7.93 2.115a.397.397 0 00-.295.384v1.281a.397.397 0 10.793 0v-.976l7.138-1.904V22.62l-7.138-1.427V5.63a.397.397 0 10-.793 0v15.886c0 .19.133.352.319.39l7.93 1.585a.403.403 0 00.33-.082.397.397 0 00.145-.307v-.755h3.657a.397.397 0 100-.793h-3.657v-1.133h3.928c.219 0 .396-.177.396-.396V3.975a.397.397 0 00-.396-.397h-3.928V2.446h5.457v19.108h-.566a.397.397 0 100 .794h.962c.22 0 .397-.178.397-.397V2.05a.397.397 0 00-.396-.397zm-2.322 2.72v15.257h-3.53V4.37h3.53z" fill="#000"/>
</svg>
