<svg width="24" height="24" fill="none" xmlns="http://www.w3.org/2000/svg">
  <defs/>
  <path d="M7.873 12.519a.744.744 0 00-.338.623v9.752c0 .149.12.27.27.27h8.391a.27.27 0 00.27-.27V5.302a4.465 4.465 0 00-4.5-4.465c-2.461.018-4.43 2.06-4.43 4.521v1.163c0 .149.12.27.269.27h1.693a.27.27 0 00.27-.27V5.339c0-1.224.97-2.249 2.194-2.27 1.25-.02 2.271.987 2.271 2.233v2.833a.27.27 0 01-.12.224l-6.24 4.16z" fill="#00BCE7"/>
  <path d="M14.286 17.582H9.715a.27.27 0 01-.27-.27V14.13c0-.149.121-.27.27-.27h4.57c.15 0 .27.121.27.27v3.182a.27.27 0 01-.27.27z" fill="#B6E3EE"/>
  <g fill="#0094D4">
    <path d="M8.873 5.339V6.52a.27.27 0 01-.27.27h.895a.27.27 0 00.27-.27V5.339c0-1.085.762-2.012 1.787-2.224a2.244 2.244 0 00-.488-.045c-1.224.02-2.194 1.045-2.194 2.269zM16.465 5.302A4.465 4.465 0 0011.555.86a4.466 4.466 0 014.016 4.442v17.592a.27.27 0 01-.27.27h.895a.27.27 0 00.27-.27V5.302z"/>
  </g>
  <path d="M14.286 13.86h-.898c.149 0 .27.121.27.27v3.182a.27.27 0 01-.27.27h.898a.27.27 0 00.27-.27V14.13a.27.27 0 00-.27-.27z" fill="#96D2E0"/>
  <g fill="#000">
    <path d="M16.803 20.965a.337.337 0 10-.674 0v1.861H7.872v-9.684c0-.138.07-.265.188-.343l6.36-4.24a.337.337 0 00.15-.28V5.302A2.572 2.572 0 0012 2.732a2.572 2.572 0 00-2.57 2.57v1.152H7.873V5.302A4.133 4.133 0 0112 1.174a4.133 4.133 0 014.129 4.128V19.62a.337.337 0 10.674 0V5.302A4.808 4.808 0 0012 .5a4.808 4.808 0 00-4.802 4.802v1.489c0 .186.151.336.337.336h2.233c.186 0 .337-.15.337-.336V5.302c0-1.045.85-1.896 1.895-1.896 1.046 0 1.896.85 1.896 1.896V8.1l-6.208 4.138c-.306.2-.49.54-.49.905v10.021c0 .186.151.337.337.337h8.93a.337.337 0 00.338-.337v-2.198z"/>
    <path d="M14.892 13.86a.337.337 0 00-.337-.336h-5.11a.337.337 0 00-.337.337v3.72c0 .187.151.338.337.338h5.11c.186 0 .337-.151.337-.338v-3.72zm-.674 3.385H9.782v-3.048h4.436v3.048zM14.555 18.733h-5.11a.337.337 0 000 .674h5.11a.337.337 0 000-.674zM14.555 19.85h-5.11a.337.337 0 000 .673h5.11a.337.337 0 000-.674zM14.555 20.965h-5.11a.337.337 0 100 .674h5.11a.337.337 0 000-.674z"/>
  </g>
</svg>
