<svg width="24" height="24" fill="none" xmlns="http://www.w3.org/2000/svg">
  <defs/>
  <path d="M.945 8.528v14.556h22.168V.916H.945v6.252" fill="#FCD577"/>
  <path d="M23.084.5H.916A.416.416 0 00.5.916v6.252a.416.416 0 00.832 0v-2.15L3.59 7.275 1.332 9.532V8.528a.416.416 0 00-.832 0v14.556c0 .23.186.416.416.416h22.168c.23 0 .416-.186.416-.416V.916A.416.416 0 0023.084.5zM20.41 16.725l2.257-2.257v4.514l-2.257-2.257zm2.257-3.434c-.002 0-.003.002-.004.003l-2.842 2.843-2.548-2.549 5.394-5.394v5.097zM7.863 16.725l2.549-2.548 5.724 5.724-2.548 2.549-5.725-5.725zM1.59 4.098L4.138 1.55l5.725 5.725-2.548 2.548L1.59 4.098zm12.613 1.244a.416.416 0 10.588-.589l-.654-.654 2.548-2.549 5.725 5.725-2.548 2.548-4.127-4.127a.416.416 0 10-.589.589l.99.99-2.548 2.548L7.863 4.1l2.549-2.549 3.791 3.792zM7.275 16.137l-2.548-2.549 5.724-5.724L13 10.412l-5.725 5.725zm-5.685.588l2.548-2.548L9.863 19.9 7.315 22.45 1.59 16.725zm21.078-10.37L20.41 4.098l2.257-2.257v4.514zM19.822 3.51l-2.178-2.178H22L19.822 3.51zm-6.273 0L11.37 1.332h4.355L13.549 3.51zm-6.274 0L5.097 1.332h4.356L7.275 3.51zM4.178 7.863l2.548 2.549-5.394 5.394v-5.097l.003-.003 2.843-2.843zm-2.846 9.782l2.257 2.257-2.257 2.256v-4.514zm2.846 2.845l2.178 2.178H2l2.178-2.178zm6.273 0l2.178 2.178H8.274l2.177-2.178zm6.274 0l2.178 2.178h-4.356l2.178-2.178zm-2.588-3.765l.845-.845a.416.416 0 00-.588-.589l-.845.845L11 13.588l5.725-5.725 2.548 2.549-4.047 4.047a.416.416 0 00.589.588l.87-.87L22.41 19.9l-2.548 2.549-5.725-5.725zM3.179 1.332L1.332 3.18V1.332H3.18zm17.642 21.336l1.847-1.847v1.847H20.82z" fill="#000"/>
</svg>
