<svg width="24" height="24" fill="none" xmlns="http://www.w3.org/2000/svg">
  <defs/>
  <path d="M7.21 11.871l-.57 2.566H5.194l.367-1.422a1.525 1.525 0 011.476-1.144h.173z" fill="#CFDCE5"/>
  <g fill="#BAC6CC">
    <path d="M15.585 7.975v2.252h-1.301V7.975H15.584zM19.408 8.337v1.529l-1.216.99v-3.51l1.216.99z"/>
  </g>
  <path d="M18.193 7.347v3.509h-2.608V7.347h2.608z" fill="#CFDCE5"/>
  <path d="M18.193 9.85v1.006h-2.608V9.85h2.608z" fill="#BAC6CC"/>
  <path d="M14.284 10.227v.496c0 .634-.514 1.148-1.148 1.148h-1.501V6.249h1.501c.635 0 1.148.514 1.148 1.148V10.227z" fill="#CFDCE5"/>
  <path d="M13.136 10.87h-1.501v1.001h1.501c.635 0 1.148-.514 1.148-1.148V9.722c0 .634-.513 1.148-1.148 1.148z" fill="#BAC6CC"/>
  <path d="M11.635 6.249v5.622H7.037c-.694 0-1.301.47-1.476 1.144l-.366 1.422-.844 3.277-3.47.008 1.16-7.896a4.23 4.23 0 013.63-3.577h5.964z" fill="#8DE0A8"/>
  <path d="M3.026 9.826A4.23 4.23 0 016.655 6.25H5.67a4.23 4.23 0 00-3.628 3.577L.88 17.722l.985-.002 1.16-7.894z" fill="#81CC96"/>
  <path d="M13.136 11.871h-1.501v5.537h1.501v-5.537z" fill="#CFDCE5"/>
  <path d="M13.136 11.871h-1.501v1.433h1.501V11.87z" fill="#BAC6CC"/>
  <path d="M19.64 8.06l-1.215-.99a.375.375 0 00-.237-.084H15.58a.375.375 0 00-.376.375v.253h-.55v-.203c0-.84-.683-1.523-1.522-1.523H8.777a.375.375 0 000 .75h2.478v2.776a.375.375 0 00.75 0V6.639h1.127c.425 0 .772.346.772.772v3.327a.773.773 0 01-.772.772h-1.127v-.895a.375.375 0 00-.75 0v.895H7.032a1.9 1.9 0 00-1.84 1.426l-1.138 4.418-2.744.006 1.098-7.464A3.871 3.871 0 015.69 6.639h1.835a.375.375 0 000-.751h-1.86a.386.386 0 00-.05.003 4.625 4.625 0 00-3.95 3.895L.504 17.682a.375.375 0 00.371.43h.001l4.371-.008a.375.375 0 000-.751H4.83l.65-2.526h1.155a.375.375 0 00.366-.294l.505-2.272h3.748v5.162c0 .207.168.375.376.375h1.501a.375.375 0 00.376-.375v-5.209a1.526 1.526 0 001.148-1.476v-.12h.55v.252c0 .208.167.376.374.376h2.609c.086 0 .17-.03.237-.084l1.215-.99a.375.375 0 00.139-.292V8.351c0-.113-.051-.22-.139-.29zM6.334 14.076h-.66l.245-.952a1.15 1.15 0 01.809-.822l-.394 1.774zm6.422 2.971h-.75v-4.786h.75v4.786zm1.899-7.18V8.364h.55v1.501h-.55zm1.3-2.13h1.857v2.758h-1.857V7.737zm3.073 1.965l-.465.379V8.15l.465.379v1.172z" fill="#000"/>
  <path d="M5.666 8.155a.375.375 0 00-.53 0L3.922 9.366a.375.375 0 10.531.531l1.212-1.211a.375.375 0 000-.531zM5.692 10.007a.374.374 0 00.265-.11L7.17 8.686a.375.375 0 10-.53-.531L5.425 9.366a.375.375 0 00.266.641zM7.196 10.007a.374.374 0 00.265-.11l1.212-1.211a.375.375 0 10-.531-.531L6.93 9.366a.375.375 0 00.266.641zM20.555 8.723a.375.375 0 10-.531.53l.476.476a.374.374 0 00.53 0 .375.375 0 000-.53l-.475-.476zM21.735 8.723a.375.375 0 10-.531.53l.475.476a.374.374 0 00.531 0 .375.375 0 000-.53l-.475-.476zM23.39 9.198l-.476-.475a.375.375 0 10-.53.53l.475.476a.374.374 0 00.53 0 .375.375 0 000-.53z" fill="#000"/>
</svg>
