<svg width="24" height="24" fill="none" xmlns="http://www.w3.org/2000/svg">
  <defs/>
  <path d="M3.878 8.278h16.244a.27.27 0 01.162.485l-8.122 6.092a.27.27 0 01-.323 0L3.717 8.763a.27.27 0 01.161-.485z" fill="#B6E3EE"/>
  <path d="M19.762 8.188h-.898a.27.27 0 01.162.486l-7.835 5.875.288.216a.27.27 0 00.323 0l8.122-6.091a.27.27 0 00-.162-.486z" fill="#96D2E0"/>
  <path d="M9.113 22.662l2.748-1.649a.27.27 0 01.277 0l2.748 1.649c.234.14.135.5-.139.5H9.251c-.273 0-.373-.36-.138-.5z" fill="#B6E3EE"/>
  <path d="M5.302 8.279a2.233 2.233 0 100-4.465 2.233 2.233 0 000 4.465z" fill="#00CE96"/>
  <path d="M5.302 3.813c-.154 0-.304.016-.45.045a2.233 2.233 0 010 4.375 2.233 2.233 0 10.45-4.42z" fill="#00BA88"/>
  <path d="M14.887 22.662l-2.748-1.649a.27.27 0 00-.278 0l-.31.186 2.437 1.463c.235.14.135.5-.138.5h.898c.273 0 .373-.36.139-.5z" fill="#96D2E0"/>
  <path d="M6.542 10.883l5.296 3.972a.27.27 0 00.323 0l5.296-3.972H6.542z" fill="#FF2551"/>
  <path d="M16.2 10.793L11.19 14.55l.288.216a.27.27 0 00.323 0l5.296-3.972H16.2z" fill="#C21750"/>
  <path d="M21.25 8.172a.337.337 0 00-.32-.23h-4.708l4.242-6.17a.337.337 0 10-.556-.382l-4.504 6.552H9.945a.337.337 0 100 .674h4.996l-1.328 1.93H6.655L4.08 8.617H8.6a.337.337 0 100-.674H7.035c.514-.47.836-1.146.836-1.896a2.572 2.572 0 00-2.57-2.57l-.026.001L4.891.79a.337.337 0 00-.667.095l.384 2.689a2.574 2.574 0 00-1.876 2.473c0 .75.323 1.426.837 1.896h-.5a.337.337 0 00-.202.606l8.796 6.597v5.595l-3.558 2.134a.337.337 0 00.174.626h7.442a.337.337 0 00.173-.626l-3.557-2.134v-5.595l8.796-6.597a.337.337 0 00.117-.376zM3.406 6.046c0-.836.545-1.548 1.299-1.798l.263 1.846a.337.337 0 00.667-.095l-.263-1.847a1.898 1.898 0 011.826 1.894c0 1.045-.85 1.895-1.894 1.896H5.3a1.898 1.898 0 01-1.894-1.896zm9.744 5.175l-1.428 2.076a.337.337 0 00.555.382l1.69-2.458h2.48L12 14.556 7.553 11.22h5.597zM9.495 22.826L12 21.323l2.505 1.503h-5.01zm7.85-12.28H14.43l1.328-1.93h4.16l-2.574 1.93z" fill="#000"/>
</svg>
