<svg width="24" height="24" fill="none" xmlns="http://www.w3.org/2000/svg">
  <defs/>
  <path d="M8.1 15.39l-3.6 6.271L.92 15.35 8.39 2.339l3.614 6.292-.033.02-3.87 6.74z" fill="#28B446"/>
  <path d="M15.61 2.339l7.47 13.01-7.219.02v-.02l-3.857-6.718L8.39 2.34h7.218z" fill="#FBBB00"/>
  <path d="M23.08 15.35l-3.577 6.27-15.003.041 3.6-6.27 7.761-.021 7.22-.02z" fill="#518EF8"/>
  <path d="M23.444 15.141L15.974 2.13a.42.42 0 00-.365-.21H8.39a.42.42 0 00-.363.209v.001L.555 15.14a.42.42 0 00-.001.417l3.58 6.311a.42.42 0 00.364.213h.002l15.003-.041a.42.42 0 00.363-.212l3.578-6.27a.42.42 0 000-.417zM15.366 2.759l6.99 12.173-6.241.017-7-12.19h6.251zm-.218 12.193l-6.322.017 3.166-5.514 3.156 5.497zm-13.745.4L8.39 3.181l3.118 5.43-7.006 12.202-3.099-5.463zM19.258 21.2l-14.032.038 3.117-5.43 14.013-.037-3.098 5.429z" fill="#333"/>
</svg>
