<svg width="24" height="24" fill="none" xmlns="http://www.w3.org/2000/svg">
  <defs/>
  <g fill-rule="evenodd" clip-rule="evenodd">
    <path d="M18.584 7.191v2.317a1.092 1.092 0 011.36.005V7.19h-1.36z" fill="#F78411"/>
    <path d="M19.264 5.735c-2.153 0-3.897.416-3.897.93s1.744.93 3.897.93c1.448 0 2.712-.188 3.384-.469.326-.135.513-.293.513-.461 0-.168-.187-.325-.513-.462-.672-.279-1.936-.468-3.384-.468z" fill="#E6E6E6"/>
    <path d="M22.647 6.203c-.672-.279-1.936-.468-3.383-.468-.377 0-.741.013-1.085.036 1.28.03 2.38.21 2.989.464.327.137.513.293.513.462 0 .168-.186.326-.513.461-.3.126-.722.233-1.225.314a12.25 12.25 0 01-1.073.118c.117.003.236.005.357.005h.036c.232 0 .459-.005.68-.014 1.158-.048 2.139-.219 2.704-.455.326-.135.513-.293.513-.461 0-.168-.187-.325-.513-.462z" fill="#C2C7CC"/>
    <path d="M4.057 7.191v2.317a1.093 1.093 0 011.36.005V7.19h-1.36z" fill="#F78411"/>
    <path d="M4.737 5.736c-2.153 0-3.897.416-3.897.93 0 .513 1.744.93 3.897.93 1.447 0 2.711-.189 3.382-.47.328-.134.515-.292.515-.46 0-.169-.187-.326-.515-.462-.67-.28-1.935-.468-3.382-.468z" fill="#E6E6E6"/>
    <path d="M4.733 8.869c-.254 0-.489.088-.676.235a1.102 1.102 0 00-.425.868v.452l1.12.71 1.083-.7v-.462c0-.348-.164-.662-.418-.863a1.093 1.093 0 00-.684-.24z" fill="#64B0D9"/>
    <path d="M8.119 6.203c-.671-.279-1.935-.468-3.383-.468-.377 0-.74.013-1.086.036 1.282.03 2.381.21 2.99.464.328.137.514.293.514.462 0 .168-.186.326-.513.461-.302.126-.722.233-1.225.314-.327.052-.687.092-1.073.118.117.003.235.005.355.005h.038c.232 0 .459-.005.68-.014 1.157-.048 2.139-.219 2.703-.455.327-.135.514-.293.514-.461 0-.168-.187-.325-.514-.462z" fill="#C2C7CC"/>
    <path d="M5.973 13.35l-1.12 3.854a.83.83 0 00.562 1.026.829.829 0 001.025-.563l1.199-4.126-.633-1.01-1.033.82z" fill="#64B0D9"/>
    <path d="M4.698 8.869c.162.078.42.406.42 1.103v.463h.717v-.463c0-.348-.164-.662-.419-.863a1.093 1.093 0 00-.683-.24h-.035zM6.818 13.383L5.65 17.402a.828.828 0 01-.625.577c.101.116.235.206.391.251a.829.829 0 001.025-.563l1.2-4.126a3.761 3.761 0 00-.822-.158zM18.027 13.35l1.12 3.854a.83.83 0 01-.563 1.026.829.829 0 01-1.024-.563l-1.2-4.126.634-1.01 1.033.82z" fill="#4A83C9"/>
    <path d="M17.183 13.383l1.167 4.019a.828.828 0 00.625.577.81.81 0 01-.39.251.829.829 0 01-1.025-.563l-1.2-4.126c.246-.077.5-.128.823-.158zM19.26 8.869c-.254 0-.488.088-.676.235a1.102 1.102 0 00-.425.868v.452l1.12.71 1.084-.7v-.462c0-.348-.164-.662-.42-.863a1.09 1.09 0 00-.683-.24z" fill="#64B0D9"/>
    <path d="M19.227 8.869c.161.078.417.406.417 1.103v.463h.718v-.463c0-.348-.164-.662-.419-.863a1.09 1.09 0 00-.683-.24h-.033z" fill="#4A83C9"/>
    <path d="M7.64 13.541c.398.128.777.332 1.405.645.153.077.312.147.479.212h4.952c.167-.065.326-.135.478-.212.63-.313 1.008-.517 1.406-.645a3.75 3.75 0 01.823-.158c.337-.03.68-.034 1.02-.034h2.225c2.192 0 2.192-2.914 0-2.914h-2.263c-1.665-.003-1.875-.17-3.21-.838-1.77-.885-4.14-.885-5.91 0-1.336.668-1.544.835-3.21.838H3.648c-2.34 0-2.233 2.914-.076 2.914h2.225c.339 0 .683.004 1.021.034.322.03.576.08.821.158z" fill="#E6E6E6"/>
    <path d="M9.524 14.398a.666.666 0 00-.14.41v2.27c0 .367.3.668.667.668h3.898a.67.67 0 00.668-.668v-2.27a.665.665 0 00-.668-.668h-3.898a.667.667 0 00-.527.258z" fill="gray"/>
    <path d="M12 15.17a.773.773 0 10.002 1.548.773.773 0 00-.002-1.549z" fill="#A2D6F2"/>
    <path d="M19.846 11.84c.025.746-.522 1.509-1.644 1.509h2.225c2.193 0 2.193-2.914 0-2.914h-2.225c.607 0 1.045.223 1.317.545.207.247.317.553.327.86z" fill="#C2C7CC"/>
  </g>
  <path d="M23.5 6.665c0-1.233-3.803-1.269-4.236-1.269-.434 0-4.237.036-4.237 1.27 0 .883 1.95 1.153 3.217 1.234v1.05a1.438 1.438 0 00-.425 1.022v.12c-1.17-.021-1.451-.163-2.452-.667a78.629 78.629 0 00-.261-.131c-1.857-.929-4.354-.929-6.213 0l-.266.133c-1 .503-1.281.644-2.452.666v-.12c0-.396-.16-.755-.42-1.016V7.9c1.267-.082 3.218-.35 3.218-1.235 0-1.233-3.803-1.269-4.237-1.269-.433 0-4.236.036-4.236 1.27 0 .883 1.95 1.153 3.217 1.234v1.05a1.439 1.439 0 00-.425 1.022v.139c-1.12.12-1.704.955-1.704 1.781 0 .893.681 1.797 1.984 1.797H5.52l-.995 3.42a1.169 1.169 0 001.12 1.494c.194 0 .386-.048.561-.145a1.16 1.16 0 00.559-.696l1.096-3.773c.218.094.458.214.765.368l.265.134c.058.029.118.057.179.085a1.004 1.004 0 00-.027.232v2.27c0 .556.451 1.008 1.006 1.008h1.219a.34.34 0 100-.68H10.05a.328.328 0 01-.327-.328v-2.27c0-.181.147-.329.327-.329h3.898a.328.328 0 01.33.329v2.27a.329.329 0 01-.33.329h-1.176a.34.34 0 000 .679h1.176c.556 0 1.008-.452 1.008-1.008v-2.27c0-.08-.01-.156-.027-.23.066-.031.127-.062.177-.087l.266-.134c.307-.154.546-.274.764-.368l1.097 3.773c.087.299.285.546.559.696a1.16 1.16 0 00.887.099c.617-.18.973-.83.794-1.447l-.995-3.421h1.95c1.301 0 1.983-.904 1.983-1.797 0-.827-.586-1.664-1.71-1.782v-.138c0-.395-.16-.754-.418-1.015V7.9c1.266-.081 3.217-.35 3.217-1.235zm-7.762 0c.1-.082.39-.234 1.03-.367.687-.144 1.574-.223 2.496-.223.921 0 1.807.08 2.495.223.64.133.93.285 1.03.367-.1.082-.39.235-1.03.369-.688.143-1.574.223-2.495.223-.922 0-1.808-.08-2.496-.223-.64-.134-.93-.287-1.03-.369zm3.985 2.702a.761.761 0 01.3.605v.124h-1.525v-.124a.762.762 0 011.225-.605zm-15.752.605a.763.763 0 111.525 0v.124H3.97v-.124zM1.21 6.665c.1-.082.39-.234 1.03-.367.687-.144 1.573-.223 2.495-.223.922 0 1.808.08 2.496.223.64.133.93.285 1.03.367-.1.082-.39.235-1.03.369-.688.143-1.574.223-2.496.223-.921 0-1.808-.08-2.495-.223-.64-.134-.93-.287-1.03-.369zm3.185 1.266a13.21 13.21 0 00.68 0v.64a1.446 1.446 0 00-.68 0v-.64zm1.718 9.641a.486.486 0 01-.604.333.489.489 0 01-.332-.606l1.048-3.606c.42.01.724.035.99.089l-1.102 3.79zm12.375.333a.485.485 0 01-.604-.332l-1.102-3.791c.266-.054.57-.08.99-.089l1.047 3.606a.489.489 0 01-.331.606zm3.243-6.013c0 .556-.404 1.118-1.305 1.118h-2.225c-.938 0-1.455.055-1.931.205l-.006.001-.025.009c-.356.115-.694.285-1.173.526l-.268.134a9.45 9.45 0 01-.248.116 1.004 1.004 0 00-.603-.2H10.05c-.225 0-.433.074-.601.2a5.14 5.14 0 01-.253-.118 79.11 79.11 0 01-.264-.132c-.48-.241-.818-.411-1.174-.527l-.024-.008-.006-.001c-.476-.15-.993-.205-1.931-.205H3.572c-.902 0-1.305-.562-1.305-1.118s.403-1.117 1.305-1.117h2.266c1.626-.004 1.972-.177 3.094-.741l.264-.133c1.677-.838 3.93-.838 5.606 0l.26.13c1.133.571 1.475.743 3.14.743h2.225c.901 0 1.305.562 1.305 1.118zm-2.128-3.32a1.445 1.445 0 00-.68-.002v-.64a13.234 13.234 0 00.68 0v.642z" fill="#000"/>
  <path d="M18.188 11.502a.34.34 0 000 .679h2.014a.34.34 0 000-.68h-2.014zM5.81 11.502H3.798a.34.34 0 100 .679H5.81a.34.34 0 000-.68zM10.474 10.868a.34.34 0 00-.34.34v1.044a.34.34 0 00.68 0v-1.045a.34.34 0 00-.34-.339zM12 10.534a.34.34 0 00-.34.34v1.712a.34.34 0 10.68 0v-1.712a.34.34 0 00-.34-.34zM13.112 15.942a1.113 1.113 0 10-2.222.001 1.113 1.113 0 002.222 0zM12 16.377a.434.434 0 010-.868.434.434 0 010 .868zM13.526 10.868a.34.34 0 00-.34.34v1.044a.34.34 0 00.68 0v-1.045a.34.34 0 00-.34-.339z" fill="#000"/>
</svg>
