<svg width="24" height="24" fill="none" xmlns="http://www.w3.org/2000/svg">
  <defs/>
  <path d="M16.703 9.547l-2.25-2.249-11.2 11.2a1.608 1.608 0 00-.41 1.607l-1.83 1.83 1.053 1.052 1.83-1.83c.549.168 1.169.028 1.607-.41l11.2-11.2z" fill="#FFC0D5"/>
  <path d="M22.462 1.539a1.796 1.796 0 00-2.54 0l-4.526 4.525 2.54 2.54 4.525-4.525a1.796 1.796 0 000-2.54z" fill="#FF4181"/>
  <path d="M19.66 11.053l-1.452 1.451-6.712-6.712 1.451-1.451a1.544 1.544 0 012.177 0l4.536 4.535a1.544 1.544 0 010 2.177z" fill="#FF755C"/>
  <g fill="#01121C">
    <path d="M10.825 13.103c-.2-.2-.525-.2-.725 0l-6.084 6.084c-.2.2-.2.525 0 .726l.072.072a.512.512 0 00.726 0l6.084-6.084c.2-.2.2-.525 0-.725l-.073-.073z"/>
    <path d="M22.825 1.176A2.294 2.294 0 0021.192.5c-.617 0-1.197.24-1.633.676l-3.437 3.437-.634-.635c-.8-.8-2.103-.8-2.903 0L11.134 5.43c-.2.2-.2.526 0 .726l1.868 1.869-10.11 10.11a2.127 2.127 0 00-.609 1.806L.651 21.572c-.2.2-.2.525 0 .726l1.052 1.052a.512.512 0 00.726 0l1.632-1.632a2.126 2.126 0 001.806-.608l10.11-10.111 1.869 1.868c.2.2.525.2.726 0l1.45-1.451c.387-.387.6-.902.6-1.451 0-.55-.213-1.065-.6-1.452l-.634-.635 3.437-3.437c.9-.9.9-2.364 0-3.265zM5.14 20.384c-.292.291-.711.4-1.095.282a.513.513 0 00-.513.128l-1.467 1.467-.326-.326 1.467-1.467a.513.513 0 00.128-.513 1.096 1.096 0 01.282-1.095L13.728 8.75l1.524 1.523L5.14 20.383zm14.455-10.42c0 .276-.106.534-.299.726L18.21 11.78l-4.115-4.115-.003-.003a.092.092 0 00-.003-.003l-1.866-1.866 1.089-1.088c.4-.4 1.05-.4 1.45 0l4.536 4.535c.193.193.299.45.299.726zm2.503-6.248l-3.437 3.437-1.814-1.814 3.437-3.437c.242-.242.564-.376.907-.376a1.284 1.284 0 01.907 2.19z"/>
  </g>
</svg>
