<svg width="24" height="24" fill="none" xmlns="http://www.w3.org/2000/svg">
  <defs/>
  <g fill-rule="evenodd" clip-rule="evenodd">
    <path d="M19.473 4.98a1.697 1.697 0 00-1.975 1.09l1.403.846 1.883-.08a1.7 1.7 0 00-1.311-1.855z" fill="gray"/>
    <path d="M2.009 7.115c-.614.195-1.17.527-1.17 1.172v11.389c0 .644.526 1.171 1.17 1.171h19.98c.644 0 1.17-.527 1.17-1.171V8.286c0-.644-.543-1.024-1.17-1.17l-1.205-.28-3.286-.766-3.413-.795h-.127l-7.772.52-4.177 1.32z" fill="#E6E6E6"/>
    <path d="M2.4 9.26v7.737h12.667V9.261a.225.225 0 00-.226-.224H2.624c-.124 0-.225.1-.225.224z" fill="#A2D6F2"/>
    <path d="M5.138 10.607a1.034 1.034 0 100 2.068 1.034 1.034 0 000-2.068z" fill="#FCC368"/>
    <path d="M6.001 14.829l-2.366 2.168H7.15l1.372-1.258-.72-.751c-.739-.85-1.364-.577-1.802-.16z" fill="#2BAD3B"/>
    <path d="M8.524 15.74L7.15 16.996h7.916l-2.506-2.608c-.958-1.104-1.769-.749-2.338-.207l-1.7 1.557z" fill="#50D960"/>
    <path d="M2.4 16.997v1.683c0 .123.1.225.224.225H14.84a.227.227 0 00.226-.225v-1.683H2.399z" fill="#B5722F"/>
    <path d="M19.048 14.065a2.274 2.274 0 100 4.548 2.274 2.274 0 000-4.548z" fill="gray"/>
    <path d="M16.774 11.9a.86.86 0 101.72 0 .86.86 0 00-1.72 0zM19.888 11.9a.86.86 0 101.72 0 .86.86 0 00-1.72 0z" fill="#F78411"/>
    <path d="M7.941 3.153A1.76 1.76 0 006.186 4.91v1.535c0 .466.295 1.229 1.259 1.229h5.253c.963 0 1.26-.763 1.26-1.229V4.91c0-.966-.791-1.756-1.757-1.756H7.94z" fill="gray"/>
    <path d="M7.647 5.698v.373c0 .123.102.225.226.225h4.398a.226.226 0 00.224-.225v-.808c0-.538-.296-.734-.833-.734h-3.18c-.538 0-.835.196-.835.734v.435z" fill="#A2D6F2"/>
    <path d="M13.927 16.997v1.908h.915a.227.227 0 00.225-.225v-1.683h-1.14z" fill="#8A541E"/>
    <path d="M13.927 9.037v7.96h1.14V9.261a.225.225 0 00-.225-.224h-.915z" fill="#64B0D9"/>
    <path d="M18.83 4.96c.496.352.778.957.703 1.583l1.251.292A1.7 1.7 0 0018.83 4.96z" fill="#666"/>
    <path d="M10.574 4.529c.539 0 .835.196.835.734v.808a.227.227 0 01-.225.225h1.087a.226.226 0 00.224-.225v-.808c0-.538-.296-.734-.833-.734h-1.088z" fill="#64B0D9"/>
    <path d="M11.139 3.153c.966 0 1.757.79 1.757 1.756v1.535c0 .466-.297 1.229-1.26 1.229H12.7c.962 0 1.259-.763 1.259-1.229V4.91c0-.966-.791-1.756-1.757-1.756h-1.063zM18.826 14.075a2.275 2.275 0 01-.37 4.461 2.274 2.274 0 10.37-4.461z" fill="#666"/>
    <path d="M20.771 14.854a2.273 2.273 0 010 2.97v3.023h1.219c.643 0 1.17-.527 1.17-1.171V8.286c0-.644-.544-1.024-1.17-1.17l-1.206-.281-.012-.003v4.208a.86.86 0 010 1.72v2.094z" fill="#C2C7CC"/>
    <path d="M10.993 14.39l2.506 2.608h1.567l-.854-.89-1.652-1.719c-.805-.928-1.508-.825-2.047-.447.155.111.315.258.48.447z" fill="#2BAD3B"/>
  </g>
  <path d="M22.067 6.784l-.932-.217a2.034 2.034 0 00-1.587-1.918 2.035 2.035 0 00-2.245 1.026l-3.005-.7V4.91c0-1.155-.94-2.096-2.096-2.096h-4.26c-1.155 0-2.095.94-2.095 2.096v.638L1.907 6.79C.973 7.088.5 7.591.5 8.287v11.388c0 .834.677 1.512 1.51 1.512h15.022a.34.34 0 000-.68H2.009a.832.832 0 01-.83-.832V8.287c0-.237.097-.583.933-.848l3.735-1.18v.185c0 .63.426 1.568 1.598 1.568H12.7c1.172 0 1.598-.938 1.598-1.568v-.771l7.615 1.772c.273.064.908.274.908.842v11.388a.832.832 0 01-.83.833h-3.405a.34.34 0 000 .679h3.404c.833 0 1.51-.678 1.51-1.512V8.287c0-.731-.535-1.293-1.433-1.503zm-8.448-.34c0 .036-.01.89-.92.89H7.445c-.909 0-.92-.854-.92-.89v-.647-.888c0-.78.636-1.416 1.417-1.416h4.26c.781 0 1.417.635 1.417 1.416v1.535zm5.78-1.132c.548.124.948.564 1.038 1.093L18 5.837c.312-.429.857-.648 1.398-.525z" fill="#000"/>
  <path d="M11.662 4.189H8.483c-1.022 0-1.174.673-1.174 1.074v.808c0 .311.253.564.564.564h4.399c.31 0 .563-.253.563-.564v-.808c0-.401-.152-1.074-1.173-1.074zm.494 1.768H7.988v-.694c0-.246.033-.395.495-.395h3.18c.46 0 .493.15.493.395v.694zM8.208 9.037a.34.34 0 00-.339-.34H2.624a.564.564 0 00-.563.564v9.419c0 .311.252.564.563.564h12.218a.566.566 0 00.565-.564V9.26a.565.565 0 00-.565-.563H9.423a.34.34 0 000 .68h5.305v6.777L12.81 14.16c-.46-.527-.944-.807-1.443-.83-.467-.024-.93.18-1.377.604l-1.452 1.33-.485-.505c-.369-.423-.761-.646-1.167-.665-.383-.018-.759.145-1.117.487l-2.267 2.077h-.764V9.376h5.13a.34.34 0 00.34-.34zm2.245 5.395l.004-.005c.311-.296.6-.433.879-.42.308.015.633.219.968.604a.355.355 0 00.012.013l1.954 2.034H8.024l2.429-2.226zm-4.222.647l.005-.005c.223-.213.425-.312.619-.302.215.01.448.157.691.438a.291.291 0 00.012.013l.48.5-1.019.935H4.508l1.723-1.58zm8.497 2.258v1.229H2.738v-1.23h11.988z" fill="#000"/>
  <path d="M3.766 11.64c0 .758.616 1.374 1.373 1.374s1.373-.616 1.373-1.373-.616-1.373-1.373-1.373-1.373.616-1.373 1.373zm2.067 0a.695.695 0 01-1.388 0 .695.695 0 011.388 0zM17.634 13.1c.662 0 1.2-.539 1.2-1.2a1.2 1.2 0 10-1.2 1.2zm0-1.72a.521.521 0 110 1.042.521.521 0 010-1.043zM20.747 13.1c.662 0 1.2-.539 1.2-1.2a1.2 1.2 0 10-1.2 1.2zm0-1.72a.521.521 0 110 1.042.521.521 0 010-1.043zM18.494 9.846a.34.34 0 000-.679h-1.72a.34.34 0 100 .679h1.72zM21.608 9.846a.34.34 0 100-.679h-1.72a.34.34 0 100 .679h1.72zM19.049 18.953a2.617 2.617 0 002.614-2.614 2.617 2.617 0 00-2.614-2.614 2.617 2.617 0 00-2.613 2.614 2.616 2.616 0 002.613 2.614zm0-4.55c1.067 0 1.935.869 1.935 1.936a1.937 1.937 0 01-1.935 1.935 1.937 1.937 0 01-1.934-1.935c0-1.067.867-1.935 1.934-1.935z" fill="#000"/>
  <path d="M18.189 16.678h.52v.522a.34.34 0 00.679 0v-.522h.521a.34.34 0 100-.679h-.521v-.521a.34.34 0 10-.68 0v.521h-.519a.34.34 0 000 .68z" fill="#000"/>
</svg>
