<svg width="24" height="24" fill="none" xmlns="http://www.w3.org/2000/svg">
  <defs/>
  <path d="M4.669 20.794v1.894c.055.02.114.031.176.031h14.31v-1.925l-7.243-.52-7.243.52z" fill="#9AD7FF"/>
  <path d="M19.155 18.869H4.845a.516.516 0 00-.176.031v1.894h14.486V18.87z" fill="#C2E7FF"/>
  <path d="M6.25 20.794c0-.945-.681-1.731-1.58-1.894a.522.522 0 00-.345.49v2.81c0 .224.145.416.345.488a1.926 1.926 0 001.58-1.894z" fill="#4EB9FF"/>
  <path d="M4.585.76a.78.78 0 00-.78.78v17.85l3.642-.521L9.53 9.815 7.447.76H4.585z" fill="#FFC0D5"/>
  <path d="M19.155 1.801L16.241.761H7.447v18.108h11.188l1.561-4.475V4.715l-1.04-2.914z" fill="#FF755C"/>
  <g fill="#FFCE47">
    <path d="M20.196 18.867l-3.955-.52 3.955-3.955v4.475zM20.196.759v3.955L16.24.759h3.955z"/>
  </g>
  <g fill="#01121C">
    <path d="M19.421 19.688h.52a.52.52 0 00.521-.52V1.02a.52.52 0 00-.52-.52H4.852c-.663 0-1.314.646-1.314 1.303V22.647c0 .425.336.853 1.087.853h15.317a.52.52 0 000-1.04h-.52v-2.772zm-11.674-1.04V1.54h7.965l3.71 3.903v9.47l-3.704 3.733h-7.97zm11.674-2.256v2.255h-2.237l2.237-2.255zm0-12.459l-2.273-2.392h2.273v2.392zM4.852 1.541h1.855v17.106H4.625c-.015 0-.03 0-.046.002V1.803c0-.088.181-.262.273-.262zM4.58 19.789c.513.209.865.715.865 1.285a1.38 1.38 0 01-.865 1.284v-2.569zm1.474 2.67c.178-.257.307-.55.376-.865h1.568a.52.52 0 000-1.04h-1.57a2.43 2.43 0 00-.38-.866h12.334v.865H9.896a.52.52 0 000 1.041h8.485v.865H6.053z"/>
    <path d="M15.9 9.304h-4.632a.52.52 0 000 1.04H15.9a.52.52 0 000-1.04zM16.706 7.223h-6.244a.52.52 0 000 1.04h6.244a.52.52 0 000-1.04z"/>
  </g>
</svg>
