<svg width="24" height="24" fill="none" xmlns="http://www.w3.org/2000/svg">
  <defs/>
  <path d="M11.333.804A1.03 1.03 0 0010.6.5c-.278 0-.539.108-.734.304L3.123 7.545l.183 1.017 10.311 9.997 7.616-7.83-9.9-9.925z" fill="#FF755C"/>
  <path d="M3.306 8.562l-.675-.04a1.509 1.509 0 00-.027.276v3.271c0 .426.218.953.519 1.254l9.917 9.918c.093.121.577-4.682.577-4.682L3.306 8.562z" fill="#FFC0D5"/>
  <path d="M3.122 7.545c-.238.238-.424.618-.491.977L13.528 19.42l.089-.86.256-.264-10.75-10.75z" fill="#FF80AB"/>
  <path d="M20.878 13.42v2.214l-7.476 7.269v-3.566l7.476-5.918z" fill="#9AD7FF"/>
  <path d="M20.878 11.082v2.337l-7.476 7.476v-2.544l7.476-7.27z" fill="#C2E7FF"/>
  <path d="M20.51 15.389l-6.589 6.59v-.869l7.324-7.323a.52.52 0 10-.734-.735l-6.59 6.59v-.564c0-.148.11-.415.215-.52l6.742-6.74c.196-.197.304-.457.304-.735 0-.278-.108-.539-.304-.734L11.333.804A1.031 1.031 0 0010.599.5c-.278 0-.539.108-.735.304L3.123 7.545c-.301.301-.52.828-.52 1.254v3.634c0 .425.219.953.52 1.254l8.355 8.354a.52.52 0 10.734-.734l-8.355-8.355a.952.952 0 01-.215-.519v-2.9l9.269 9.269a1.506 1.506 0 00-.028.276v3.634c0 .507.3.686.428.739a.66.66 0 00.25.049c.16 0 .364-.057.575-.268l7.11-7.11a.52.52 0 10-.735-.733zM10.6 1.538l9.545 9.545-6.742 6.742L3.857 8.28l6.742-6.742z" fill="#01121C"/>
</svg>
