<svg width="24" height="24" fill="none" xmlns="http://www.w3.org/2000/svg">
  <defs/>
  <path d="M7.053 23.162c2.015 0 3.648-2.42 3.648-5.405 0-2.985-1.633-5.405-3.648-5.405s-3.648 2.42-3.648 5.405c0 2.985 1.633 5.405 3.648 5.405z" fill="#FFF9F0"/>
  <path d="M7.054 12.352c-.232 0-.458.033-.677.094 1.691.47 2.971 2.669 2.971 5.311s-1.28 4.841-2.971 5.311c.22.061.445.094.677.094 2.014 0 3.647-2.42 3.647-5.405 0-2.985-1.633-5.405-3.647-5.405z" fill="#FAE8DB"/>
  <path d="M9.574 13.835h-5.04l.527-1.464a2.101 2.101 0 011.977-1.389h.031c.886 0 1.676.556 1.977 1.389l.528 1.464z" fill="#FED402"/>
  <path d="M9.046 12.37a2.101 2.101 0 00-1.977-1.388h-.031c-.23 0-.452.038-.661.107a2.1 2.1 0 011.316 1.282l.528 1.464h1.353l-.528-1.464z" fill="#FAC600"/>
  <path d="M7.053 8.61a1.181 1.181 0 100-2.362 1.181 1.181 0 000 2.362z" fill="#4F66D0"/>
  <path d="M7.054 6.248c-.252 0-.485.079-.677.213a1.18 1.18 0 010 1.936 1.181 1.181 0 10.677-2.15z" fill="#314DC9"/>
  <path d="M7.053 6.978a1.181 1.181 0 100-2.363 1.181 1.181 0 000 2.363z" fill="#8795DE"/>
  <path d="M7.054 4.615c-.252 0-.485.08-.677.213a1.18 1.18 0 010 1.937 1.181 1.181 0 10.677-2.15z" fill="#6C7FD8"/>
  <path d="M7.054 5.292a2.227 2.227 0 100-4.454 2.227 2.227 0 000 4.454z" fill="#4F66D0"/>
  <path d="M7.054.838c-.236 0-.464.037-.677.105a2.227 2.227 0 010 4.244A2.227 2.227 0 107.054.839z" fill="#314DC9"/>
  <path d="M7.054 3.942a.877.877 0 100-1.754.877.877 0 000 1.754zM16.947 23.162c2.014 0 3.647-2.42 3.647-5.405 0-2.985-1.633-5.405-3.647-5.405-2.015 0-3.648 2.42-3.648 5.405 0 2.985 1.633 5.405 3.648 5.405z" fill="#FFF9F0"/>
  <path d="M16.946 12.352c-.231 0-.457.033-.677.094 1.692.47 2.972 2.669 2.972 5.311s-1.28 4.841-2.971 5.311c.219.061.445.094.676.094 2.015 0 3.648-2.42 3.648-5.405 0-2.985-1.633-5.405-3.648-5.405z" fill="#FAE8DB"/>
  <path d="M19.466 13.835h-5.04l.528-1.464a2.101 2.101 0 011.976-1.389h.032c.885 0 1.676.556 1.976 1.389l.528 1.464z" fill="#FED402"/>
  <path d="M18.938 12.37a2.101 2.101 0 00-1.976-1.388h-.032c-.229 0-.451.038-.66.107a2.1 2.1 0 011.315 1.282l.528 1.464h1.353l-.528-1.464z" fill="#FAC600"/>
  <path d="M16.946 8.61a1.181 1.181 0 100-2.362 1.181 1.181 0 000 2.362z" fill="#4F66D0"/>
  <path d="M16.946 6.248c-.252 0-.485.079-.677.213a1.18 1.18 0 010 1.936 1.181 1.181 0 10.677-2.15z" fill="#314DC9"/>
  <path d="M16.946 6.978a1.181 1.181 0 100-2.363 1.181 1.181 0 000 2.363z" fill="#8795DE"/>
  <path d="M16.946 4.615c-.252 0-.485.08-.677.213a1.18 1.18 0 010 1.937 1.181 1.181 0 10.677-2.15z" fill="#6C7FD8"/>
  <path d="M16.946 5.292a2.227 2.227 0 100-4.454 2.227 2.227 0 000 4.454z" fill="#4F66D0"/>
  <path d="M16.946.838c-.236 0-.463.037-.677.105a2.227 2.227 0 010 4.244 2.227 2.227 0 10.677-4.348z" fill="#314DC9"/>
  <path d="M16.946 3.942a.877.877 0 100-1.754.877.877 0 000 1.754z" fill="#FFF9F0"/>
  <path d="M9.364 12.256a2.447 2.447 0 00-1.972-1.59V8.91a1.521 1.521 0 001.181-1.481c0-.29-.084-.574-.238-.817a1.51 1.51 0 00.12-1.4 2.564 2.564 0 10-2.804-.001 1.512 1.512 0 00.121 1.401 1.522 1.522 0 00.943 2.298v1.756a2.447 2.447 0 00-1.972 1.59l-.525 1.455a6.501 6.501 0 00-.914 2.086.338.338 0 10.656.165 5.88 5.88 0 01.763-1.789h4.66c.624.95.98 2.244.98 3.584 0 1.377-.36 2.667-1.01 3.632-.625.925-1.441 1.434-2.3 1.434-.858 0-1.674-.509-2.299-1.434-.651-.965-1.01-2.255-1.01-3.632 0-.208.008-.418.025-.624a.338.338 0 00-.674-.055 8.449 8.449 0 00-.028.68c0 1.51.4 2.934 1.127 4.01.754 1.117 1.77 1.732 2.86 1.732 1.09 0 2.105-.615 2.86-1.732.726-1.076 1.125-2.5 1.125-4.01 0-1.533-.408-2.964-1.15-4.044l-.525-1.458zM5.165 3.065a1.89 1.89 0 011.888-1.888 1.89 1.89 0 011.889 1.888 1.89 1.89 0 01-1.889 1.888 1.89 1.89 0 01-1.888-1.888zM7.053 5.63c.276 0 .542-.044.791-.125a.844.844 0 11-1.582 0c.25.08.516.125.791.125zM6.21 7.43c0-.114.024-.224.067-.327a1.51 1.51 0 001.553 0 .838.838 0 01-.04.737.845.845 0 01-1.58-.41zm-1.195 6.068l.27-.75h1.172a.338.338 0 100-.677h-.861c.325-.46.86-.75 1.442-.75h.031c.582 0 1.117.29 1.442.75h-.867a.338.338 0 100 .677h1.178l.27.75H5.015z" fill="#000"/>
  <path d="M7.053 4.28c.67 0 1.215-.545 1.215-1.215S7.723 1.85 7.053 1.85s-1.215.545-1.215 1.215.545 1.215 1.215 1.215zm0-1.753a.54.54 0 11-.001 1.078.54.54 0 01.001-1.078zM19.782 13.714l-.526-1.458a2.447 2.447 0 00-1.972-1.59V8.91a1.522 1.522 0 001.182-1.481c0-.29-.084-.574-.239-.817a1.51 1.51 0 00.121-1.4 2.564 2.564 0 10-2.805-.001 1.513 1.513 0 00.122 1.401 1.522 1.522 0 00.943 2.298v1.756a2.447 2.447 0 00-1.973 1.59l-.525 1.458c-.742 1.08-1.15 2.511-1.15 4.043 0 1.51.4 2.935 1.126 4.01.754 1.118 1.77 1.733 2.86 1.733 1.09 0 2.106-.615 2.86-1.732.726-1.076 1.126-2.5 1.126-4.011 0-1.532-.408-2.963-1.15-4.043zM15.058 3.065a1.89 1.89 0 011.888-1.888 1.89 1.89 0 011.888 1.888 1.89 1.89 0 01-1.888 1.888 1.89 1.89 0 01-1.888-1.888zm1.888 2.565c.276 0 .541-.044.79-.125a.844.844 0 11-1.581 0c.25.08.515.125.791.125zm-.843 1.799c0-.114.023-.224.066-.327a1.51 1.51 0 001.554 0 .837.837 0 01-.04.737.845.845 0 01-1.58-.41zm3.142 13.96c-.624.925-1.44 1.434-2.299 1.434-.858 0-1.675-.509-2.299-1.434-.652-.965-1.01-2.255-1.01-3.632 0-1.34.355-2.634.98-3.584h.49a.338.338 0 100-.676h-.2l.27-.75h1.172a.338.338 0 100-.677h-.86c.324-.46.86-.75 1.441-.75h.032c.581 0 1.117.29 1.442.75h-.868a.338.338 0 100 .677h1.178l.27.75h-2.523a.338.338 0 100 .676h2.815c.623.95.98 2.244.98 3.584 0 1.377-.36 2.667-1.011 3.632z" fill="#000"/>
  <path d="M16.947 4.28c.67 0 1.215-.545 1.215-1.215s-.545-1.215-1.215-1.215-1.216.545-1.216 1.215.545 1.215 1.216 1.215zm0-1.753a.54.54 0 11-.002 1.078.54.54 0 01.002-1.078z" fill="#000"/>
</svg>
