<svg width="24" height="24" fill="none" xmlns="http://www.w3.org/2000/svg">
  <defs/>
  <path d="M12 7.684L1.02 5.372v14.672L12 21.832l1.04-7.074L12 7.684z" fill="#3B8BC0"/>
  <path d="M12 7.684v14.148l10.98-1.788V5.372L12 7.684z" fill="#174461"/>
  <path d="M12 5.602L1.02 3.811v14.672L12 20.27l1.04-7.074L12 5.602z" fill="#4EB9FF"/>
  <path d="M12 5.602v14.67l10.98-1.79V3.812L12 5.602z" fill="#3B8BC0"/>
  <path d="M12 4.041l1.04 7.025L12 18.09l-8.898-1.874V2.167L12 4.042z" fill="#FFF5D9"/>
  <path d="M12 4.041v14.05l8.898-1.874V2.167L12 4.042z" fill="#9AD7FF"/>
  <g fill="#01121C">
    <path d="M22.98 3.562a.52.52 0 00-.521.52v13.926L12.52 19.59v-1l8.553-1.833a.52.52 0 00.412-.508V2.162a.52.52 0 00-.63-.51L12 3.55 3.144 1.653a.52.52 0 00-.629.509v14.087a.52.52 0 00.411.508l8.553 1.833v1l-9.938-1.582V4.083a.52.52 0 00-1.041 0v14.369a.52.52 0 00.439.514l10.98 1.748.017.002.016.002a.508.508 0 00.096 0l.016-.002.018-.002 10.98-1.748a.52.52 0 00.438-.514V4.082a.52.52 0 00-.52-.52zm-2.536 12.266l-7.924 1.698V4.503l7.924-1.698v13.023zM3.556 2.805l7.923 1.698v13.023l-7.923-1.698V2.805z"/>
    <path d="M10.096 6.664l-5.137-1.1A.52.52 0 104.74 6.58l5.137 1.1a.52.52 0 00.218-1.018zM10.095 10.186L4.931 9.079a.52.52 0 00-.218 1.018l5.164 1.107a.52.52 0 00.218-1.018zM10.096 13.708l-5.191-1.113a.52.52 0 00-.218 1.018l5.191 1.112a.52.52 0 10.218-1.017zM14.012 7.693a.52.52 0 00.11-.011l5.137-1.101a.52.52 0 00-.218-1.018l-5.137 1.101a.52.52 0 00.108 1.03zM19.068 9.08l-5.164 1.106a.52.52 0 00.218 1.017l5.164-1.106a.52.52 0 00-.218-1.018zM19.068 12.601l-5.164 1.107a.52.52 0 00.218 1.017l5.164-1.106a.52.52 0 00-.218-1.018zM22.898 19.577L12 21.312 1.102 19.577a.52.52 0 00-.163 1.027l10.98 1.748a.512.512 0 00.163 0l10.98-1.748a.52.52 0 00-.164-1.027z"/>
  </g>
</svg>
