<svg width="24" height="24" fill="none" xmlns="http://www.w3.org/2000/svg">
  <defs/>
  <path d="M22.411 18.267H1.59a.752.752 0 01-.752-.752V5.408c0-.415.336-.752.752-.752H22.41c.415 0 .752.337.752.752v12.107a.752.752 0 01-.752.752z" fill="#E6E6E6"/>
  <path d="M22.411 4.656h-.787v11.32a.752.752 0 01-.751.752H.837v.787c0 .415.336.752.752.752H22.41a.752.752 0 00.752-.752V5.408a.752.752 0 00-.752-.752z" fill="#CCC"/>
  <path d="M3.33 18.267h4.043v1.077H3.33v-1.077zM16.627 18.267h4.043v1.077h-4.043v-1.077z" fill="#E6E6E6"/>
  <path d="M2.387 6.408H14.2v10.107H2.387V6.408z" fill="#919191"/>
  <path d="M13.017 6.408v6.984c0 1.07-.868 1.938-1.938 1.938H2.387v1.185H14.2V6.408h-1.184z" fill="#828282"/>
  <path d="M20.95 15.013a1.98 1.98 0 11-3.96 0 1.98 1.98 0 013.96 0z" fill="#5B9ED6"/>
  <path d="M18.97 13.033c-.21 0-.413.033-.604.094a1.981 1.981 0 010 3.772 1.98 1.98 0 10.605-3.866z" fill="#5390C4"/>
  <path d="M18.11 7.62H16.67a.539.539 0 01-.538-.54v-.134c0-.297.24-.538.538-.538h1.439c.297 0 .538.24.538.538v.135a.539.539 0 01-.538.538z" fill="#5B9ED6"/>
  <path d="M18.11 6.408h-1.44.653c.298 0 .539.24.539.538v.135a.539.539 0 01-.539.539h.787a.539.539 0 00.538-.54v-.134a.539.539 0 00-.538-.538z" fill="#5390C4"/>
  <path d="M18.11 9.776H16.67a.539.539 0 01-.538-.539v-.135c0-.297.24-.538.538-.538h1.439c.297 0 .538.24.538.538v.135a.539.539 0 01-.538.539zM18.11 11.932H16.67a.539.539 0 01-.538-.539v-.134c0-.298.24-.539.538-.539h1.439c.297 0 .538.241.538.539v.134a.539.539 0 01-.538.539z" fill="#5B9ED6"/>
  <path d="M18.11 8.564h-1.44.653c.298 0 .539.24.539.538v.135a.539.539 0 01-.539.539h.787a.539.539 0 00.538-.539v-.135a.539.539 0 00-.538-.538zM18.11 10.72h-1.44.653c.298 0 .539.241.539.539v.134a.539.539 0 01-.539.54h.787a.539.539 0 00.538-.54v-.134a.539.539 0 00-.538-.539z" fill="#5390C4"/>
  <path d="M21.307 11.932h-1.065a.501.501 0 01-.5-.501V6.909c0-.277.224-.501.5-.501h1.065c.276 0 .5.224.5.5v4.523a.5.5 0 01-.5.5z" fill="#5B9ED6"/>
  <path d="M21.307 6.408h-.77c.276 0 .5.224.5.5v4.523a.5.5 0 01-.5.5h.77a.5.5 0 00.501-.5V6.909a.501.501 0 00-.5-.501z" fill="#5390C4"/>
  <path d="M16.653 15.013a2.32 2.32 0 002.318 2.317 2.32 2.32 0 002.317-2.317 2.32 2.32 0 00-2.317-2.317 2.32 2.32 0 00-2.318 2.317zm3.961 0c0 .906-.737 1.643-1.643 1.643a1.645 1.645 0 01-1.644-1.643c0-.906.737-1.644 1.644-1.644.906 0 1.643.738 1.643 1.644zM18.11 6.07H16.67a.876.876 0 00-.875.876v.135c0 .483.393.875.875.875h1.439a.876.876 0 00.875-.875v-.135a.876.876 0 00-.875-.875zm.201 1.01c0 .112-.09.203-.201.203H16.67a.202.202 0 01-.201-.202v-.135c0-.11.09-.201.201-.201h1.439c.111 0 .201.09.201.201v.135zM15.796 9.237c0 .483.393.876.875.876h1.439a.876.876 0 00.875-.876v-.135a.876.876 0 00-.875-.875H16.67a.876.876 0 00-.875.875v.135zm.674-.135c0-.11.09-.201.201-.201h1.439c.111 0 .201.09.201.201v.135c0 .111-.09.202-.201.202H16.67a.202.202 0 01-.201-.202v-.135zM15.796 11.393c0 .483.393.876.875.876h1.439a.876.876 0 00.875-.876v-.134a.876.876 0 00-.875-.876H16.67a.876.876 0 00-.875.876v.134zm.674-.134c0-.111.09-.202.201-.202h1.439c.111 0 .201.09.201.202v.134c0 .112-.09.202-.201.202H16.67a.202.202 0 01-.201-.202v-.134zM21.306 12.269a.839.839 0 00.838-.838V6.909a.839.839 0 00-.837-.838h-1.065a.839.839 0 00-.838.838v4.522c0 .462.376.838.838.838h1.064zm-1.228-.838V6.909c0-.09.074-.164.164-.164h1.064c.09 0 .165.073.165.164v4.522c0 .09-.074.164-.165.164h-1.064a.164.164 0 01-.164-.164zM13.153 7.837a.337.337 0 000-.674H12a.337.337 0 100 .674h1.153zM3.585 7.163h-.031a.337.337 0 100 .674h.03a.337.337 0 100-.674zM10.99 12.431l-.566-2.558c-.08-.357-.595-.347-.66.013l-.407 2.222h-.729l-.512-3.162c-.059-.368-.587-.378-.662-.015L6.69 12.61l-.669-2.068a.337.337 0 00-.627-.037l-.836 1.82h-.671a.337.337 0 000 .673h.886a.337.337 0 00.306-.196l.567-1.231.795 2.457c.106.327.58.302.65-.036l.65-3.135.267 1.643a.337.337 0 00.332.283h1.297a.337.337 0 00.331-.276l.157-.859.419 1.892c.069.313.497.361.634.071l.419-.888H12.7a.337.337 0 100-.674h-1.317c-.293 0-.335.297-.394.383z" fill="#000"/>
  <path d="M22.411 4.32h-6.784a.337.337 0 100 .673h6.784c.23 0 .415.186.415.415v12.107a.415.415 0 01-.415.415H1.59a.415.415 0 01-.415-.415V5.408c0-.23.186-.415.415-.415h12.567a.337.337 0 100-.674H1.59C.989 4.32.5 4.807.5 5.408v12.107c0 .6.488 1.088 1.089 1.088h1.404v.741c0 .186.15.337.337.337h4.043c.186 0 .337-.15.337-.337v-.74h8.58v.74c0 .186.15.337.337.337h4.043c.186 0 .337-.15.337-.337v-.74h1.404c.6 0 1.089-.489 1.089-1.09V5.409c0-.6-.488-1.089-1.089-1.089zM7.036 19.006H3.667v-.404h3.37v.404zm13.297 0h-3.37v-.404h3.37v.404z" fill="#000"/>
  <path d="M2.387 10.607a.337.337 0 00-.337.337v5.571c0 .186.15.337.337.337H14.2c.186 0 .337-.15.337-.337V6.408a.337.337 0 00-.337-.337H2.387a.337.337 0 00-.337.337v3.008a.337.337 0 10.674 0V6.745h11.14v9.433H2.724v-5.234a.337.337 0 00-.337-.337z" fill="#000"/>
</svg>
