<svg width="24" height="24" fill="none" xmlns="http://www.w3.org/2000/svg">
  <defs/>
  <path d="M10.605 2.954L1.11 19.4a1.617 1.617 0 001.4 2.426H21.5a1.617 1.617 0 001.4-2.426L13.406 2.954a1.617 1.617 0 00-2.801 0z" fill="#FCD577"/>
  <path d="M14.683 10.463h-3.625l-1.67 3.632H10.7l-1.373 4.52 4.417-4.52h-1.612l2.55-3.632z" fill="#FF6F52"/>
  <path d="M23.229 19.22L13.734 2.777a1.982 1.982 0 00-1.734-1c-.724 0-1.372.373-1.734 1L.77 19.221a1.982 1.982 0 000 2.003 1.982 1.982 0 001.735 1h3.278a.385.385 0 100-.77H2.506a1.22 1.22 0 01-1.067-.616 1.22 1.22 0 010-1.232l9.494-16.444A1.22 1.22 0 0112 2.546c.445 0 .844.23 1.067.616l9.494 16.444a1.22 1.22 0 010 1.232 1.22 1.22 0 01-1.067.616H7.07a.385.385 0 100 .77h14.425c.724 0 1.372-.373 1.735-1a1.982 1.982 0 000-2.003z" fill="#000"/>
  <path d="M13.554 5.648l-1.198-2.074a.385.385 0 00-.205-.18.432.432 0 00-.336.015.4.4 0 00-.17.164L2.151 20.017a.386.386 0 00-.054.256c.015.104.07.205.15.27a.385.385 0 00.26.09h18.988l.026-.001a.385.385 0 00.22-.08.435.435 0 00.167-.33.403.403 0 00-.058-.205L14.258 6.868a.385.385 0 00-.667.385l7.28 12.609H3.13L12 4.499l.886 1.535a.385.385 0 10.667-.386z" fill="#000"/>
  <path d="M15.02 10.3a.385.385 0 00-.342-.208h-3.625a.385.385 0 00-.35.225l-.537 1.167a.385.385 0 00.7.322l.434-.943h2.636l-2.123 3.025a.385.385 0 00.315.607h.697l-2.675 2.737.914-3.01a.385.385 0 00-.368-.498h-.712l.323-.702a.385.385 0 00-.7-.322l-.574 1.248a.385.385 0 00.35.547h.793l-1.222 4.023a.385.385 0 00.644.381l4.417-4.52a.385.385 0 00-.275-.655h-.87l2.123-3.025a.386.386 0 00.026-.4z" fill="#000"/>
</svg>
