<svg width="24" height="24" fill="none" xmlns="http://www.w3.org/2000/svg">
  <defs/>
  <path d="M12.086 21.503H9.478a2.832 2.832 0 005.093.007l.004-.007h-2.49z" fill="#FCD577"/>
  <path d="M8.674.9a3.724 3.724 0 003.353 2.101h.001a3.726 3.726 0 003.352-2.1H8.674z" fill="#FF6F52"/>
  <path d="M12.027 3A3.723 3.723 0 018.674.9h1.925c.257 1.244.8 2.1 1.428 2.1z" fill="#E25749"/>
  <path d="M18.281 11.558H5.775l-1.972 9.945h16.45l-1.972-9.945z" fill="#FF6F52"/>
  <path d="M5.775 11.558l-1.972 9.945h3.351l.966-9.945H5.775z" fill="#E25749"/>
  <path d="M13.328 9.113h-2.6l-.252 2.445h3.103l-.251-2.445z" fill="#CFDCE5"/>
  <path d="M10.727 9.113l-.251 2.445h1.122l.251-2.445h-1.122z" fill="#BAC6CC"/>
  <path d="M20.619 21.425l-1.973-9.945a.4.4 0 00-.393-.322h-4.34L13.7 9.072a.4.4 0 00-.399-.36h-.9v-5.33a4.097 4.097 0 003.312-2.306.4.4 0 00-.36-.576h-1.254a.4.4 0 100 .801h.54a3.3 3.3 0 01-2.64 1.3A3.299 3.299 0 019.36 1.3h3.402a.4.4 0 100-.801H8.646a.4.4 0 00-.36.576 4.155 4.155 0 003.313 2.305v5.331h-.9a.4.4 0 00-.398.36l-.215 2.086H5.747a.4.4 0 00-.393.322l-.416 2.098a.4.4 0 00.786.156l.352-1.775h11.848l1.813 9.143H4.263l1.162-5.86a.4.4 0 00-.786-.155l-1.257 6.338a.401.401 0 00.393.478H9.21a3.255 3.255 0 002.788 1.597 3.21 3.21 0 002.788-1.597h5.438a.4.4 0 00.393-.478zm-9.727-10.267l.17-1.645h1.877l.169 1.645h-2.216zM12 22.698a2.413 2.413 0 01-1.802-.795H13.8c-.453.502-1.099.796-1.8.796z" fill="#000"/>
</svg>
