<svg width="24" height="24" fill="none" xmlns="http://www.w3.org/2000/svg">
  <defs/>
  <g fill-rule="evenodd" clip-rule="evenodd">
    <path d="M13.834 7.256H6.728c-.877 0-.867.06-1.557.816l-2.69 2.95c-.826.851-.716.692-.716 1.757v5.268l9.85 1.027 10.622-1.024v-4.318c.004-.31-.196-.929-.765-1.033l-1.434-.262c-.59-.108-1.04-.45-1.187-.686l-2.893-3.696c-.634-.81-.998-.8-2.124-.8z" fill="#ECECEC"/>
    <path d="M13.87 8.951h-3.349c-.29 0-.281.29-.285.37v2.125c0 .33-.03.61.316.601h5.357a.138.138 0 00.132-.134v-.457c0-.102-.02-.26-.12-.379L14.46 9.35c-.22-.254-.301-.399-.59-.399zM7.166 8.951c-.29 0-.37.145-.591.399l-1.459 1.727a.594.594 0 00-.12.379v.457c0 .07.058.13.131.134h3.061c.345.01.314-.27.314-.601V9.32c-.003-.079.006-.369-.285-.369H7.166zM22.239 14.076h-1.766c-.125 0-.277.145-.227.291l.423 1.24c.032.095.034.298.495.298h1.075v-1.83z" fill="#A6E7F0"/>
    <path d="M1.764 13.467v2.045h1.063a.823.823 0 00.82-.82v-.405c0-.451-.368-.82-.82-.82H1.764z" fill="#FE636E"/>
    <path d="M7.56 9.32v2.126c0 .32.029.593-.283.601h.911c.345.01.315-.27.315-.601V9.32c-.004-.079.005-.369-.286-.369h-.942c.29 0 .28.29.284.37zM15.921 11.077L14.462 9.35c-.22-.254-.302-.399-.59-.399H12.54c.289 0 .37.145.59.399l1.46 1.727c.1.118.12.277.12.379v.457c0 .07-.06.13-.132.134h1.33a.138.138 0 00.133-.134v-.457c0-.102-.02-.26-.12-.38z" fill="#6BD9E7"/>
    <path d="M3.648 14.287c0-.451-.369-.82-.82-.82h-.83c.451 0 .82.369.82.82v.405c0 .452-.369.82-.82.82h.83a.823.823 0 00.82-.82v-.405z" fill="#FB2A39"/>
    <path d="M22.239 15.905h-.932a.862.862 0 01-.12-.007v2.154h1.052v-2.147z" fill="#CECECE"/>
    <path d="M22.239 14.076h-1.053v1.822a.861.861 0 00.12.007h.933v-1.83z" fill="#6BD9E7"/>
    <path d="M21.474 12.699l-1.212-.222h.002c.567.107.927.724.923 1.032v.567h1.052v-.344c.004-.31-.196-.929-.765-1.033z" fill="#CECECE"/>
    <path d="M15.57 18.049H7.452c.173.366.27.88.27 1.206 0 .325-.025.434-.073.64h7.723c-.047-.206-.072-.315-.072-.64 0-.326.096-.84.268-1.206zM22.24 18.052h-3.26c.174.366.27.878.27 1.204 0 .328-.026.443-.076.652l3.065-.008a.93.93 0 00.924-.925.928.928 0 00-.924-.923z" fill="#ACACAC"/>
    <path d="M17.274 16.405c-1.586 0-2.872 1.276-2.872 2.85 0 1.573 1.286 2.849 2.872 2.849 1.587 0 2.872-1.276 2.872-2.85 0-1.573-1.285-2.849-2.872-2.849z" fill="#838383"/>
    <path d="M17.274 18.105c-.64 0-1.159.515-1.159 1.15 0 .635.518 1.15 1.159 1.15.64 0 1.158-.515 1.158-1.15 0-.635-.518-1.15-1.158-1.15z" fill="#ECECEC"/>
    <path d="M19.876 18.048a2.874 2.874 0 00-3.036-1.61c.93.168 1.705.782 2.089 1.61.17.363.264.767.264 1.193a2.856 2.856 0 01-2.437 2.816 2.868 2.868 0 003.318-2.162 2.814 2.814 0 00-.197-1.846v-.001z" fill="#595959"/>
    <path d="M1.764 18.047a.926.926 0 00-.924.924c0 .508.415.923.924.923H3.85c-.048-.206-.073-.314-.073-.64 0-.325.096-.84.27-1.207H1.763z" fill="#ACACAC"/>
    <path d="M5.75 16.405c-1.586 0-2.872 1.276-2.872 2.85 0 1.573 1.286 2.849 2.872 2.849 1.585 0 2.87-1.276 2.87-2.85 0-1.573-1.285-2.849-2.87-2.849z" fill="#838383"/>
    <path d="M5.75 18.105c-.64 0-1.16.515-1.16 1.15 0 .635.52 1.15 1.16 1.15.639 0 1.158-.515 1.158-1.15 0-.635-.52-1.15-1.158-1.15z" fill="#ECECEC"/>
    <path d="M8.35 18.048a2.87 2.87 0 00-3.035-1.61 2.87 2.87 0 012.09 1.61c.17.363.262.767.262 1.193a2.855 2.855 0 01-2.437 2.816 2.868 2.868 0 003.318-2.162 2.864 2.864 0 00-.196-1.846l-.001-.001z" fill="#595959"/>
    <path d="M18.576 1.894c-.739 0-1.344.603-1.344 1.342v.479c0 .737.605 1.342 1.344 1.342h1.348a.258.258 0 00.257-.257V2.15a.257.257 0 00-.257-.256h-1.348z" fill="#80D261"/>
    <path d="M19.926 1.892h-.674c.14 0 .256.114.256.255V4.797a.258.258 0 01-.256.258h.674a.258.258 0 00.257-.257V2.148a.257.257 0 00-.257-.256z" fill="#4FC122"/>
  </g>
  <path d="M22.576 17.759v-4.022c.006-.489-.314-1.238-1.044-1.371l-1.433-.262c-.484-.089-.86-.37-.962-.532a.338.338 0 00-.02-.03l-2.892-3.696c-.72-.918-1.225-.929-2.312-.929h-1.789a.34.34 0 100 .68h1.75c1.072 0 1.292 0 1.816.668l2.883 3.684c.206.313.726.699 1.404.823l1.433.262c.377.069.489.533.487.699v.004H20.47a.593.593 0 00-.47.252.535.535 0 00-.078.488l.421 1.236.004.014c.095.349.36.518.814.518h.735v1.466l-1.816-.002a3.217 3.217 0 00-2.807-1.642 3.217 3.217 0 00-2.807 1.642h-2.264a.34.34 0 000 .68h1.981a3.16 3.16 0 00-.107 1.167H8.945a3.158 3.158 0 00-.107-1.168h1.775a.34.34 0 100-.679H8.556a3.216 3.216 0 00-2.806-1.642 3.217 3.217 0 00-2.807 1.642h-.84v-1.856h.724c.64 0 1.16-.52 1.16-1.16v-.404c0-.64-.52-1.16-1.16-1.16h-.724v-.35c0-.126-.001-.236-.003-.332-.004-.32-.004-.436.039-.527.053-.114.207-.272.486-.558l.1-.102a.368.368 0 00.006-.008l2.69-2.95.133-.146c.25-.277.389-.43.515-.491.119-.059.3-.069.659-.069h3.84a.34.34 0 100-.679H7.068v-2c0-.607.495-1.101 1.103-1.101h8.726c.052.88.785 1.58 1.679 1.58h1.348a.597.597 0 00.597-.596v-.17h.666a.34.34 0 100-.68h-.666v-.97h.666a.34.34 0 100-.679h-.666v-.15a.597.597 0 00-.597-.595h-1.348c-.894 0-1.627.7-1.68 1.58H8.17c-.983 0-1.782.8-1.782 1.781v2.008c-.644.033-.811.194-1.337.775l-.131.145-2.687 2.945-.095.098c-.666.685-.728.771-.717 1.568.002.094.003.2.003.324V17.756A1.265 1.265 0 00.5 18.972c0 .696.567 1.263 1.264 1.263h.93a3.215 3.215 0 003.056 2.21 3.213 3.213 0 003.055-2.21h5.413a3.215 3.215 0 003.056 2.21 3.215 3.215 0 003.052-2.2l1.912-.006a1.269 1.269 0 001.262-1.265c0-.577-.392-1.066-.924-1.215zM2.103 13.807h.724c.265 0 .481.216.481.481v.405a.482.482 0 01-.481.48h-.724v-1.366zm15.468-10.57c0-.553.45-1.002 1.004-1.002h1.266v2.483h-1.266c-.553 0-1.004-.45-1.004-1.003v-.478zM2.553 19.556h-.79a.585.585 0 010-1.168h.897a3.158 3.158 0 00-.107 1.168zm3.197 2.21c-1.397 0-2.533-1.126-2.533-2.51s1.136-2.51 2.533-2.51c1.396 0 2.531 1.126 2.531 2.51s-1.135 2.51-2.531 2.51zm11.524 0c-1.397 0-2.533-1.126-2.533-2.51s1.136-2.51 2.533-2.51c1.396 0 2.532 1.126 2.532 2.51s-1.136 2.51-2.532 2.51zm3.888-6.2a.622.622 0 01-.158-.016.918.918 0 00-.016-.053l-.37-1.082h1.279v1.15h-.735zm1.073 3.994l-1.765.006a3.184 3.184 0 00-.106-1.178l1.871.002c.323.001.586.263.586.584a.589.589 0 01-.586.586z" fill="#000"/>
  <path d="M15.926 12.387a.476.476 0 00.454-.473v-.457a.935.935 0 00-.2-.598L14.72 9.13a7.867 7.867 0 01-.077-.09c-.178-.21-.362-.428-.773-.428h-3.35c-.1 0-.601.033-.623.68v2.154l-.001.072c-.002.24-.004.512.191.703a.615.615 0 00.468.166h5.371zm-.225-.678h-5.123c-.004-.055-.004-.13-.003-.185V9.317l.002-.025h3.293c.089 0 .096 0 .255.188.024.029.05.06.078.091l1.458 1.727c.025.028.04.091.04.159v.252zM8.841 9.305v-.011c-.022-.648-.524-.681-.624-.681H7.165c-.41 0-.594.218-.773.428l-.074.087-.003.003-1.458 1.727a.936.936 0 00-.202.599v.457a.476.476 0 00.472.474h3.077a.614.614 0 00.447-.166c.195-.191.193-.463.191-.703V9.321a.5.5 0 000-.016zm-.68 2.404H5.333v-.252c0-.068.016-.13.041-.16L6.832 9.57l.079-.091c.159-.188.166-.188.254-.188h.996a.9.9 0 01.001.024v2.13l.001.078c0 .056 0 .13-.003.185zM17.273 17.766c-.826 0-1.498.668-1.498 1.49 0 .821.672 1.49 1.498 1.49s1.498-.669 1.498-1.49c0-.822-.672-1.49-1.498-1.49zm0 2.3a.816.816 0 01-.819-.81c0-.447.368-.81.82-.81.451 0 .818.363.818.81 0 .447-.367.81-.819.81zM5.75 17.766c-.826 0-1.499.668-1.499 1.49 0 .821.673 1.49 1.5 1.49.825 0 1.497-.669 1.497-1.49 0-.822-.672-1.49-1.498-1.49zm0 2.3a.816.816 0 01-.82-.81c0-.447.368-.81.82-.81.452 0 .82.363.82.81 0 .447-.368.81-.82.81zM10.235 13.477a.337.337 0 100 .674h1.744a.337.337 0 100-.674h-1.744z" fill="#000"/>
</svg>
