<svg width="24" height="24" fill="none" xmlns="http://www.w3.org/2000/svg">
  <defs/>
  <path d="M12 17.226H7.877v-1.29c0-2.175 1.947-3.956 4.121-3.985 2.175.03 4.121 1.81 4.121 3.984v1.29H12z" fill="#68B9D8"/>
  <path d="M12 11.95a4.098 4.098 0 00-.45.032c1.986.248 3.671 1.93 3.671 3.954v1.29h.9v-1.29c0-2.175-1.947-3.956-4.121-3.985z" fill="#3695B2"/>
  <path d="M12 11.954c1.083 0 1.97-.886 1.97-1.97V8.29c0-1.084-.887-1.97-1.97-1.97s-1.97.886-1.97 1.97v1.694c0 1.084.886 1.97 1.97 1.97z" fill="#FFC89F"/>
  <path d="M12 6.32c-.155 0-.306.019-.45.053.868.205 1.52.988 1.52 1.917v1.694c0 .929-.652 1.712-1.52 1.917a1.975 1.975 0 002.42-1.917V8.29c0-1.084-.887-1.97-1.97-1.97z" fill="#F7B081"/>
  <path d="M13.968 2.815L11.95.838v.922C6.326 1.787 1.775 6.354 1.775 11.984c0 3.845 2.123 7.194 5.261 8.94l1.034-1.933a8.032 8.032 0 013.88-15.039v.841l2.018-1.978zM22.224 11.984c0-3.719-1.985-6.973-4.954-8.763l-1.035 1.937a8.032 8.032 0 01-4.063 14.856v-.807l-2.017 1.978 2.018 1.978v-.957c5.567-.093 10.051-4.633 10.051-10.222z" fill="#465A65"/>
  <path d="M22.224 11.984c0-3.719-1.985-6.973-4.954-8.763l-1.035 1.937a8.032 8.032 0 01-4.063 14.856v-.807l-2.017 1.978 2.018 1.978v-.957c5.567-.093 10.051-4.633 10.051-10.222z" fill="#465A65"/>
  <path d="M12.472 13.117h-.946l-.529-1.028c.324-.086.66-.134 1.002-.138.342.004.678.052 1.002.138l-.529 1.028z" fill="#D3333C"/>
  <path d="M12.378 11.974l-.58 1.143h.675l.529-1.028a4.164 4.164 0 00-.624-.115z" fill="#7F1B20"/>
  <path d="M12 16.433l-1.023-.935.55-2.38h.945l.549 2.38-1.022.935z" fill="#F2464F"/>
  <path d="M12.473 13.117h-.675l.548 2.381-.684.627.338.308 1.021-.935-.548-2.38z" fill="#D3333C"/>
  <path d="M9.464 16.888H8.216v-.953c0-.947.405-1.853 1.14-2.552.422-.4.93-.703 1.471-.887l.343.666-.52 2.26a.337.337 0 00.1.325l1.022.935a.336.336 0 00.455 0l1.022-.935a.337.337 0 00.101-.324l-.52-2.261.342-.667a4.03 4.03 0 011.471.888c.736.699 1.14 1.605 1.14 2.552v.953H10.59a.337.337 0 000 .675h5.532a.337.337 0 00.337-.337v-1.29c0-1.86-1.32-3.504-3.094-4.092.571-.42.943-1.097.943-1.86V8.29A2.31 2.31 0 0012 5.983 2.31 2.31 0 009.693 8.29v1.694c0 .762.371 1.44.943 1.86-1.774.588-3.095 2.233-3.095 4.091v1.29c0 .187.151.338.337.338h1.586a.337.337 0 100-.675zM12 15.976l-.649-.594.444-1.927h.41l.443 1.927-.648.594zm.267-3.196h-.534l-.232-.45a3.739 3.739 0 01.448-.04l.05.001h.051c.038 0 .076.001.113.004l.035.002c.1.007.2.018.3.033l-.231.45zm-1.9-2.796v-.862c1.465-.14 2.01-1.147 2.01-1.147s.352.93 1.255 1.126v.883c0 .878-.697 1.596-1.566 1.63h-.132a1.634 1.634 0 01-1.566-1.63z" fill="#000"/>
  <path d="M8.234 18.696a7.712 7.712 0 01-3.93-6.712c0-2.182.932-4.27 2.558-5.729a.337.337 0 10-.451-.502 8.383 8.383 0 00-2.782 6.231c0 2.91 1.52 5.614 3.99 7.133l-.716 1.34a9.901 9.901 0 01-4.79-8.473 9.823 9.823 0 012.88-6.975 9.825 9.825 0 016.959-2.912.337.337 0 00.335-.337v-.119l1.198 1.174-1.197 1.175v-.038a.338.338 0 00-.338-.338h-.002c-1.67.01-3.278.51-4.653 1.447a.338.338 0 00.38.558 7.65 7.65 0 013.938-1.32v.494a.337.337 0 00.573.241l2.018-1.978a.337.337 0 000-.482L12.186.596a.338.338 0 00-.573.241v.592a10.49 10.49 0 00-7.099 3.104 10.494 10.494 0 00-3.077 7.451c0 3.831 2.083 7.37 5.435 9.235a.337.337 0 00.461-.136l1.034-1.933a.337.337 0 00-.133-.454zM21.153 6.71a10.63 10.63 0 00-3.708-3.778.337.337 0 00-.472.13L15.938 5a.338.338 0 00.12.445 7.694 7.694 0 013.638 6.54 7.637 7.637 0 01-.66 3.122.337.337 0 10.616.274 8.308 8.308 0 00.718-3.396 8.37 8.37 0 00-3.69-6.94l.718-1.345a9.882 9.882 0 014.49 8.285 9.827 9.827 0 01-2.842 6.935 9.829 9.829 0 01-6.878 2.95.337.337 0 00-.332.337v.153l-1.198-1.174 1.198-1.175v.004a.338.338 0 00.344.337 8.368 8.368 0 007-4.063.338.338 0 00-.578-.348 7.691 7.691 0 01-6.091 3.72v-.454a.337.337 0 00-.574-.24L9.92 20.944a.338.338 0 000 .482l2.017 1.978a.338.338 0 00.574-.241v-.63a10.496 10.496 0 007.016-3.14 10.498 10.498 0 003.035-7.41c0-1.853-.487-3.676-1.409-5.273z" fill="#000"/>
</svg>
