<svg width="24" height="24" fill="none" xmlns="http://www.w3.org/2000/svg">
  <defs/>
  <path d="M23.146 6.233v-1.41l-1.153-.163a3.624 3.624 0 00-.423-1.02l.7-.93-.997-.997-.93.7a3.623 3.623 0 00-1.02-.423L19.159.837h-1.41l-.163 1.153a3.62 3.62 0 00-1.02.422l-.93-.7-.997.997.7.931a3.62 3.62 0 00-.423 1.02l-1.153.164v1.41l1.153.163c.089.364.232.707.422 1.02l-.7.93.764.764a2.711 2.711 0 012.082-.977c.791 0 1.506.343 2.004.888.303-.09.59-.217.854-.377l.931.7.997-.997-.7-.931c.19-.313.334-.656.423-1.02l1.153-.164zm-4.692 1.314a2.018 2.018 0 110-4.037 2.018 2.018 0 010 4.037z" fill="#353535"/>
  <g fill="#232323">
    <path d="M15.538 5.529a2.018 2.018 0 002.467 1.967 2.019 2.019 0 010-3.935 2.018 2.018 0 00-2.467 1.968zM23.146 6.233V4.824l-1.153-.164a3.624 3.624 0 00-.423-1.02l.7-.93-.997-.997-.512.385.611.612-.7.93c.19.313.334.656.423 1.02l1.153.164v1.41l-1.153.163a3.62 3.62 0 01-.422 1.02l.7.93-.612.612.512.386.997-.997-.7-.931c.19-.312.334-.655.423-1.02l1.153-.164z"/>
  </g>
  <path d="M13.56 14.31l1.375-.196a2.69 2.69 0 01-.165-.93v-1.388l-1.21-.172a5.599 5.599 0 00-.652-1.576l1.081-1.44-1.54-1.54-1.44 1.081a5.598 5.598 0 00-1.577-.653L9.18 5.714H7.001l-.253 1.782a5.598 5.598 0 00-1.577.653L3.73 7.068l-1.54 1.54 1.081 1.44a5.597 5.597 0 00-.653 1.576l-1.782.253v2.18l1.782.252c.138.564.36 1.094.653 1.577l-1.081 1.44 1.54 1.54 1.44-1.082a5.596 5.596 0 001.576.654L7 20.22h2.18l.252-1.782a5.599 5.599 0 001.577-.654l1.44 1.082.063-.064a5.788 5.788 0 011.385-1.6l-.99-1.316a5.596 5.596 0 00.654-1.577zm-5.47 1.777a3.12 3.12 0 110-6.24 3.12 3.12 0 010 6.24z" fill="#546F7A"/>
  <g fill="#465A65">
    <path d="M7.64 16.055a3.12 3.12 0 010-6.176 3.12 3.12 0 100 6.175zM13.56 14.31l1.374-.196a2.69 2.69 0 01-.165-.93v-1.388l-1.21-.171a5.596 5.596 0 00-.652-1.577l1.081-1.44-1.54-1.54-.513.385 1.156 1.156-1.082 1.439c.293.483.516 1.013.653 1.577l1.21.171v1.388c0 .326.058.64.165.93l-1.375.195a5.598 5.598 0 01-.653 1.577l.99 1.316a5.854 5.854 0 00-1.143 1.22l.591.444.064-.064a5.788 5.788 0 011.385-1.6l-.99-1.316a5.597 5.597 0 00.654-1.577z"/>
  </g>
  <path d="M17.483 23.163h-5.68v-1.778c0-2.997 2.683-5.45 5.68-5.492 2.997.041 5.68 2.495 5.68 5.492v1.778h-5.68z" fill="#68B9D8"/>
  <path d="M17.484 15.893c-.143.002-.285.01-.426.023 2.82.254 5.253 2.615 5.253 5.47v1.777h.853v-1.778c0-2.997-2.683-5.45-5.68-5.492z" fill="#3695B2"/>
  <path d="M17.484 15.898a2.722 2.722 0 002.714-2.714v-2.336a2.722 2.722 0 00-2.714-2.715 2.722 2.722 0 00-2.715 2.715v2.336a2.722 2.722 0 002.715 2.714z" fill="#FFC89F"/>
  <path d="M17.484 8.133c-.153 0-.303.014-.449.038a2.724 2.724 0 012.266 2.677v2.336c0 1.34-.985 2.46-2.266 2.676a2.722 2.722 0 003.163-2.676v-2.336a2.722 2.722 0 00-2.714-2.715z" fill="#F7B081"/>
  <path d="M18.136 17.501h-1.304l-.73-1.417c.447-.118.91-.184 1.382-.19a5.69 5.69 0 011.38.19l-.728 1.417z" fill="#D3333C"/>
  <path d="M17.944 15.92l-.706 1.581h.898l.729-1.417c-.3-.08-.608-.134-.921-.165z" fill="#7F1B20"/>
  <path d="M17.483 22.072l-1.408-1.29.756-3.28h1.304l.756 3.28-1.408 1.29z" fill="#F2464F"/>
  <path d="M18.136 17.501h-.898l.756 3.282-.959.878.449.41 1.408-1.288-.756-3.282z" fill="#D3333C"/>
  <path d="M19.069 15.79a3.052 3.052 0 001.466-2.606v-2.336c0-.616-.184-1.189-.5-1.669.096-.04.19-.085.281-.133l.755.567a.336.336 0 00.44-.031l.997-.997a.337.337 0 00.03-.44l-.566-.754c.117-.221.213-.453.286-.692l.935-.133a.337.337 0 00.289-.333v-1.41a.337.337 0 00-.29-.333l-.934-.132c-.073-.24-.169-.471-.286-.692l.567-.755a.337.337 0 00-.031-.44l-.997-.996a.336.336 0 00-.44-.031l-.755.567a3.956 3.956 0 00-.691-.287l-.133-.935A.336.336 0 0019.159.5h-1.41a.337.337 0 00-.333.29l-.133.934c-.239.073-.47.17-.691.287l-.755-.567a.336.336 0 00-.44.03l-.997.997a.337.337 0 00-.03.44l.566.755a3.958 3.958 0 00-.286.692l-.935.132a.337.337 0 00-.29.334v1.409c0 .167.124.31.29.333l.935.133c.073.24.169.47.286.692l-.567.754a.337.337 0 00.031.44l.556.556a3.033 3.033 0 00-.523 1.707v.56l-.605-.085a5.926 5.926 0 00-.518-1.251l.948-1.261a.337.337 0 00-.031-.44L12.686 6.83a.336.336 0 00-.44-.031l-1.261.947a5.93 5.93 0 00-1.251-.518l-.222-1.562a.337.337 0 00-.333-.289H7a.337.337 0 00-.333.29l-.222 1.56a5.925 5.925 0 00-1.25.52l-1.262-.948a.337.337 0 00-.44.03L1.953 8.37a.337.337 0 00-.031.44l.947 1.262c-.22.396-.394.815-.518 1.25l-1.562.222a.336.336 0 00-.289.333v2.18c0 .167.123.309.29.332l1.56.222c.125.436.299.855.519 1.251l-.947 1.261a.336.336 0 00.03.44l1.541 1.54a.337.337 0 00.44.032l1.261-.948c.396.22.816.394 1.251.519l.222 1.561c.023.166.166.29.333.29H9.18c.168 0 .31-.124.333-.29l.222-1.561a5.926 5.926 0 001.25-.518l1.053.79a5.433 5.433 0 00-.57 2.407v1.778c0 .186.15.337.337.337h2.55a.337.337 0 100-.673H12.14v-1.442c0-.838.224-1.654.646-2.388l.017-.026c.205-.353.452-.682.736-.983l.014-.014c.051-.055.105-.108.16-.16.006-.008.013-.014.02-.021.056-.053.113-.106.171-.157l.013-.012a5.693 5.693 0 012.014-1.137l.545 1.059-.728 3.161a.336.336 0 00.1.324l1.408 1.289a.336.336 0 00.455 0l1.408-1.289a.337.337 0 00.1-.324l-.728-3.161.545-1.059a5.683 5.683 0 012.18 1.288c1.038.987 1.61 2.27 1.61 3.61v1.442h-7.35a.337.337 0 100 .673h7.687c.186 0 .337-.151.337-.337v-1.778c0-2.594-1.91-4.879-4.431-5.596zm-5.109.937l-.65-.865c.22-.396.394-.815.518-1.25l.896-.128a3.07 3.07 0 001.174 1.305c-.703.2-1.358.522-1.938.938zm3.615-1.168l-.087-.002h-.01l-.086.002a2.382 2.382 0 01-2.136-1.544l-.005-.017a2.36 2.36 0 01-.14-.657l-.002-.044a2.358 2.358 0 01-.003-.113V12.01c2.118-.144 2.9-1.592 2.9-1.592s.52 1.365 1.855 1.576v1.19a2.38 2.38 0 01-2.286 2.375zM14.1 5.941v-.825l.864-.123a.337.337 0 00.28-.253 3.28 3.28 0 01.383-.925.337.337 0 00-.02-.377l-.523-.697.583-.584.698.524c.11.083.259.09.376.019.288-.175.599-.303.925-.383a.337.337 0 00.254-.28l.122-.864h.825l.123.864c.02.136.12.247.253.28.327.08.638.208.925.383a.336.336 0 00.377-.019l.698-.524.583.584-.524.697a.336.336 0 00-.019.377c.175.287.304.598.384.925a.337.337 0 00.28.253l.863.123v.825l-.864.122a.336.336 0 00-.28.254 3.28 3.28 0 01-.383.925.337.337 0 00.019.377l.524.697-.583.583-.698-.524a.336.336 0 00-.377-.018 3.28 3.28 0 01-.585.28 3.04 3.04 0 00-1.806-.826l-.028-.002a3.087 3.087 0 00-.415-.008c-.024 0-.048.003-.072.005l-.075.006-.096.011-.048.006a3.039 3.039 0 00-.11.019l-.031.006c-.041.007-.081.016-.121.026l-.018.004c-.043.01-.086.022-.129.034l-.007.002a3.05 3.05 0 00-1.232.708l-.311-.312.524-.697c.082-.11.09-.26.018-.377a3.283 3.283 0 01-.383-.925.337.337 0 00-.28-.254l-.863-.122zm-1.728 12.447l-1.16-.873a.336.336 0 00-.377-.018c-.46.28-.959.486-1.482.614a.337.337 0 00-.253.28l-.212 1.492H7.292L7.08 18.39a.337.337 0 00-.253-.28 5.258 5.258 0 01-1.482-.613.337.337 0 00-.377.018l-1.205.906-1.128-1.127.906-1.206c.083-.11.09-.26.019-.377a5.259 5.259 0 01-.614-1.482.337.337 0 00-.28-.253l-1.493-.212V12.17l1.493-.212a.336.336 0 00.28-.254 5.26 5.26 0 01.614-1.482.337.337 0 00-.019-.376L2.635 8.64l1.128-1.128 1.205.906c.11.083.26.09.377.019a5.26 5.26 0 011.482-.614.337.337 0 00.253-.28l.212-1.493h1.595l.212 1.493c.02.137.12.247.253.28a5.26 5.26 0 011.482.614.336.336 0 00.377-.019l1.206-.906 1.127 1.128-.906 1.206a.336.336 0 00-.018.376c.279.46.486.96.613 1.482a.337.337 0 00.28.254l.92.13v1.096c0 .054.001.108.004.161 0 .012.002.023.003.034.002.043.005.086.01.129l.004.029a3.1 3.1 0 00.018.133l.003.018a2.9 2.9 0 00.028.147l-.99.141a.337.337 0 00-.28.253 5.254 5.254 0 01-.614 1.482.337.337 0 00.02.377l.796 1.06a6.21 6.21 0 00-.685.72l-.05.063-.05.063c-.075.099-.149.2-.218.304l-.004.006-.057.084zm5.113 3.227l-1.036-.948.651-2.83h.769l.652 2.83-1.036.948zm.446-4.45h-.893l-.436-.847.087-.015.064-.01a4.948 4.948 0 01.495-.054l.04-.002.121-.004.075.002.076-.002c.04 0 .08.002.12.004l.04.002a5.21 5.21 0 01.56.064l.087.015-.436.846z" fill="#000"/>
  <path d="M18.454 7.883a2.358 2.358 0 002.355-2.355 2.357 2.357 0 00-2.355-2.355.337.337 0 100 .674c.928 0 1.682.754 1.682 1.681 0 .928-.754 1.682-1.682 1.682a1.684 1.684 0 01-.838-3.14.337.337 0 10-.336-.583 2.363 2.363 0 00-1.18 2.041 2.357 2.357 0 002.354 2.355zM8.09 9.51a.337.337 0 100 .673 2.787 2.787 0 012.783 2.784A2.787 2.787 0 018.09 15.75a2.787 2.787 0 01-2.784-2.784c0-1.169.738-2.221 1.837-2.619a.336.336 0 10-.23-.633 3.467 3.467 0 00-2.28 3.252 3.46 3.46 0 003.457 3.457 3.46 3.46 0 003.456-3.457A3.46 3.46 0 008.09 9.51z" fill="#000"/>
</svg>
