<svg width="24" height="24" fill="none" xmlns="http://www.w3.org/2000/svg">
  <defs/>
  <path d="M15.838.837c-3.278 0-5.935 2.154-5.935 4.81 0 1.058.42 2.035 1.134 2.829 0 0-.08.897-.83 1.698a.19.19 0 00.135.318c.572.012 1.594-.076 2.38-.75l-.016-.008c.91.459 1.982.724 3.132.724 3.278 0 5.935-2.153 5.935-4.81 0-2.657-2.657-4.81-5.935-4.81z" fill="#EFE7E4"/>
  <path d="M15.838.837a7.41 7.41 0 00-.45.014c3.067.186 5.485 2.263 5.485 4.797 0 2.533-2.417 4.61-5.483 4.796.148.01.297.014.447.014 3.278 0 5.935-2.153 5.935-4.81 0-2.657-2.657-4.81-5.934-4.81z" fill="#D8D1D0"/>
  <path d="M15.768 8.496a2.94 2.94 0 100-5.88 2.94 2.94 0 000 5.88z" fill="#F7CB4F"/>
  <path d="M15.768 2.616c-.153 0-.303.012-.45.035a2.94 2.94 0 010 5.81 2.94 2.94 0 10.45-5.845z" fill="#FFAE47"/>
  <path d="M15.29 17.745c-1.437.02-2.777.783-3.55 1.92.286.594.448 1.25.448 1.939v1.559h7.334v-1.325c0-2.234-2-4.062-4.233-4.093z" fill="#68B9D8"/>
  <path d="M15.29 17.745c-.151.002-.3.013-.45.031 2.046.25 3.783 1.98 3.783 4.062v1.325h.9v-1.325c0-2.234-2-4.062-4.233-4.093z" fill="#3695B2"/>
  <path d="M7.208 23.163h-4.98v-1.56c0-2.628 2.352-4.78 4.98-4.815 2.628.036 4.98 2.187 4.98 4.816v1.559h-4.98z" fill="#68B9D8"/>
  <path d="M7.208 16.788a4.94 4.94 0 00-.45.027c2.44.258 4.53 2.311 4.53 4.789v1.559h.9v-1.56c0-2.628-2.352-4.78-4.98-4.815z" fill="#3695B2"/>
  <path d="M7.207 22.205l-1.234-1.13.663-2.877H7.779l.663 2.877-1.235 1.13z" fill="#F2464F"/>
  <g fill="#D3333C">
    <path d="M7.78 18.198H7.103l.663 2.877-.897.822.337.308 1.235-1.13-.663-2.877zM7.779 18.198H6.636l-.64-1.243a4.99 4.99 0 011.211-.167c.413.006.82.064 1.211.167l-.639 1.243z"/>
  </g>
  <path d="M7.797 16.832l-.693 1.366H7.78l.64-1.243a5.046 5.046 0 00-.622-.123z" fill="#7F1B20"/>
  <path d="M15.29 17.749c1.112 0 2.022-.91 2.022-2.023v-1.74c0-1.113-.91-2.024-2.023-2.024-1.112 0-2.022.91-2.022 2.023v1.741c0 1.112.91 2.023 2.022 2.023z" fill="#FFC89F"/>
  <path d="M15.29 11.963c-.155 0-.305.018-.45.05a2.03 2.03 0 011.573 1.972v1.741a2.03 2.03 0 01-1.573 1.971c.145.034.295.052.45.052 1.112 0 2.022-.91 2.022-2.023v-1.74c0-1.113-.91-2.024-2.022-2.024z" fill="#F7B081"/>
  <path d="M7.207 16.792c1.31 0 2.38-1.071 2.38-2.38v-2.049c0-1.309-1.07-2.38-2.38-2.38a2.387 2.387 0 00-2.38 2.38v2.049c0 1.309 1.071 2.38 2.38 2.38z" fill="#FFC89F"/>
  <path d="M7.208 9.983c-.154 0-.304.015-.45.044a2.389 2.389 0 011.93 2.336v2.049a2.39 2.39 0 01-1.93 2.337 2.387 2.387 0 002.83-2.337v-2.049c0-1.309-1.071-2.38-2.38-2.38z" fill="#F7B081"/>
  <path d="M15.775 18.943h-.972l-.543-1.055a4.243 4.243 0 011.029-.143c.351.005.696.054 1.03.143l-.544 1.055z" fill="#D3333C"/>
  <path d="M15.7 17.771l-.6 1.172h.675l.544-1.055a4.275 4.275 0 00-.62-.117z" fill="#7F1B20"/>
  <path d="M15.29 22.35l-1.05-.961.564-2.446h.971l.564 2.446-1.05.96z" fill="#F2464F"/>
  <path d="M15.775 18.943H15.101l.563 2.446-.712.651.338.31 1.049-.961-.564-2.446z" fill="#D3333C"/>
  <path d="M14.674 6.78a.336.336 0 00.476-.02l.485-.528a.686.686 0 00.464-1.27V3.89a.337.337 0 10-.674 0v1.073a.685.685 0 00-.305.833l-.467.508a.337.337 0 00.02.476zm1.088-1.232a.01.01 0 01.011.01c0 .013-.022.013-.022 0 0-.005.005-.01.011-.01z" fill="#000"/>
  <path d="M15.768 2.279c-.62 0-1.224.174-1.746.504a.337.337 0 10.36.57 2.605 2.605 0 013.989 2.203 2.605 2.605 0 01-2.603 2.602 2.605 2.605 0 01-2.158-4.057.337.337 0 10-.559-.377 3.28 3.28 0 002.717 5.11 3.28 3.28 0 003.277-3.278 3.28 3.28 0 00-3.277-3.277z" fill="#000"/>
  <path d="M15.838.5c-3.459 0-6.273 2.31-6.273 5.148 0 1.058.385 2.068 1.113 2.93a2.913 2.913 0 01-.718 1.365.525.525 0 00.374.886l.1.001c.575 0 1.531-.103 2.33-.691.934.431 1.982.657 3.074.657 3.458 0 6.272-2.31 6.272-5.148C22.11 2.809 19.296.5 15.838.5zm0 9.621a6.6 6.6 0 01-2.983-.688 5.882 5.882 0 01-.435-.244.337.337 0 10-.355.574l.019.011c-.484.265-1.011.353-1.414.375.621-.8.7-1.607.703-1.644a.336.336 0 00-.1-.27c-.676-.76-1.033-1.654-1.033-2.587 0-2.467 2.511-4.473 5.598-4.473 3.086 0 5.597 2.006 5.597 4.473 0 2.466-2.511 4.473-5.597 4.473z" fill="#000"/>
  <path d="M16.67 17.638c.593-.429.98-1.126.98-1.912v-1.74a2.363 2.363 0 00-2.36-2.36 2.363 2.363 0 00-2.36 2.36v1.74c0 .788.388 1.486.982 1.915a4.821 4.821 0 00-2.125 1.411 5.532 5.532 0 00-3.089-2.37 2.717 2.717 0 001.227-2.27v-2.049a2.72 2.72 0 00-2.717-2.717 2.72 2.72 0 00-2.718 2.717v2.049c0 .948.489 1.784 1.227 2.27-2.184.662-3.827 2.659-3.827 4.922v1.559c0 .186.15.337.337.337h2.038a.337.337 0 100-.675h-1.7v-1.221c0-1.165.497-2.278 1.4-3.136a4.942 4.942 0 011.86-1.108l.455.882L5.644 21a.337.337 0 00.101.324l1.235 1.13a.336.336 0 00.455 0l1.235-1.13A.337.337 0 008.771 21l-.635-2.758.454-.883a4.94 4.94 0 011.861 1.11c.414.392.742.84.977 1.32l.008.022a4.195 4.195 0 01.353 1.087l.005.03.012.075.006.04.008.067.006.046.006.063.005.049.004.063.004.049.002.07.002.041.002.113v1.221H5.39a.337.337 0 100 .675h8.417a.337.337 0 100-.675h-1.281v-1.221c0-.043 0-.085-.002-.128v-.013a4.755 4.755 0 00-.395-1.76 4.12 4.12 0 011.96-1.41l.358.695-.536 2.325a.337.337 0 00.101.325l1.05.96a.337.337 0 00.455 0l1.05-.96a.338.338 0 00.1-.325l-.535-2.325.357-.694c.56.19 1.085.501 1.522.916.757.72 1.174 1.652 1.174 2.628v.987H14.93a.337.337 0 100 .675h4.59a.337.337 0 00.338-.337v-1.325c0-1.911-1.362-3.601-3.189-4.2zM5.165 14.412v-1.038c1.825-.14 2.5-1.391 2.5-1.391s.445 1.169 1.586 1.373v1.056c0 1.1-.873 1.998-1.963 2.04l-.076-.002h-.009l-.076.003a2.045 2.045 0 01-1.962-2.041zm2.043 7.336l-.862-.789.558-2.424h.607l.558 2.424-.861.79zm.366-3.888h-.732l-.344-.668.046-.008.02-.003a4.866 4.866 0 01.249-.032l.055-.006a4.324 4.324 0 01.184-.012l.088-.003.068.001.067-.001c.03 0 .06.001.088.003l.04.002.144.01.056.006a5.277 5.277 0 01.25.032l.019.003.046.008-.344.668zm6.03-2.134v-.886c1.513-.138 2.075-1.178 2.075-1.178s.364.958 1.296 1.157v.907c0 .906-.72 1.647-1.617 1.684l-.064-.002h-.01l-.06.002a1.687 1.687 0 01-1.62-1.684zm1.685 6.166l-.676-.62.459-1.991h.435l.459 1.992-.677.619zm.28-3.286h-.56l-.246-.478a3.436 3.436 0 01.163-.022l.057-.006.062-.006.072-.004c.017-.001.033-.003.05-.003l.063-.002.06.001.052-.001c.039.001.078.002.116.005l.038.002c.054.004.107.008.161.014h.005l.153.022-.246.478z" fill="#000"/>
</svg>
