<svg width="24" height="24" fill="none" xmlns="http://www.w3.org/2000/svg">
  <defs/>
  <path d="M10.057 2.02a1.553 1.553 0 00-3.014 0H4.058v2.608h8.984V2.02h-2.985z" fill="#F7CB4F"/>
  <path d="M11.877 21.395c0-2.51 1.893-4.636 4.27-5.267l.116-.028v-.47a2.703 2.703 0 01-1.44-2.384v-2.32c0-1.03.586-1.93 1.44-2.384V2.789h-3.22v1.84H4.058v-1.84H.838v18.845h11.039v-.239z" fill="#546F7A"/>
  <g fill="#465A65">
    <path d="M4.058 2.79h-.9v1.838h.9V2.79zM16.263 8.542V2.789h-.9v5.753a2.704 2.704 0 00-1.44 2.383v2.321c0 1.03.586 1.93 1.44 2.383v.47l-.115.03c-2.378.63-4.271 2.756-4.271 5.266v.239h.9v-.24c0-2.509 1.893-4.635 4.27-5.266l.116-.029v-.47a2.702 2.702 0 01-1.44-2.383v-2.32c0-1.03.585-1.93 1.44-2.384z"/>
  </g>
  <path d="M17.52 23.162h-5.644v-1.767c0-2.978 2.665-5.416 5.643-5.456 2.978.04 5.643 2.478 5.643 5.456v1.767H17.52z" fill="#68B9D8"/>
  <path d="M17.52 15.939c-.152.002-.302.01-.45.024 2.79.265 5.193 2.605 5.193 5.432v1.767h.9v-1.767c0-2.978-2.666-5.416-5.644-5.456z" fill="#3695B2"/>
  <path d="M17.52 15.943a2.705 2.705 0 002.696-2.697v-2.32a2.705 2.705 0 00-2.697-2.697 2.705 2.705 0 00-2.697 2.697v2.32a2.705 2.705 0 002.697 2.697z" fill="#FFC89F"/>
  <path d="M17.52 8.229c-.154 0-.304.013-.45.038a2.707 2.707 0 012.246 2.659v2.32c0 1.33-.976 2.443-2.247 2.659a2.705 2.705 0 003.147-2.658v-2.322A2.705 2.705 0 0017.52 8.23z" fill="#F7B081"/>
  <path d="M18.168 17.536h-1.296l-.724-1.408a5.65 5.65 0 011.372-.19c.468.007.928.073 1.372.19l-.724 1.408z" fill="#D3333C"/>
  <path d="M18.014 15.968l-.746 1.568h.9l.724-1.408a5.697 5.697 0 00-.878-.16z" fill="#7F1B20"/>
  <path d="M17.519 22.077l-1.399-1.28.751-3.261h1.296l.75 3.26-1.398 1.28z" fill="#F2464F"/>
  <path d="M18.167 17.536h-.9l.751 3.26-.949.869.45.412 1.4-1.28-.752-3.261z" fill="#D3333C"/>
  <path d="M14.816 16.663V3.977h-1.774v.651H4.057v-.651H2.284v16.35h9.708c.343-1.563 1.418-2.89 2.823-3.664z" fill="#EFE7E4"/>
  <path d="M13.916 3.977v12.687c-1.405.773-2.48 2.1-2.823 3.663h.9c.343-1.563 1.418-2.89 2.823-3.664V3.977h-.9z" fill="#D8D1D0"/>
  <path d="M13.043 12.593v-.002a4.805 4.805 0 00-7.411-4.037l2.572 4.037 4.838.002z" fill="#F7CB4F"/>
  <path d="M8.238 7.786c-.15 0-.3.008-.447.022a4.805 4.805 0 014.352 4.783v.002h.9v-.002a4.805 4.805 0 00-4.805-4.805z" fill="#F4B008"/>
  <path d="M8.204 12.59L5.967 9.08a4.177 4.177 0 00-1.91 3.51c0 1.345.636 2.542 1.622 3.306l2.525-3.305z" fill="#F2464F"/>
  <path d="M5.198 15.46c.149.157.31.303.481.436l2.525-3.305-.387-.607-2.619 3.476z" fill="#D3333C"/>
  <path d="M8.204 12.59l-2.099 2.748a3.478 3.478 0 005.61-2.746l-3.511-.001z" fill="#FF6137"/>
  <path d="M8.204 12.59v.001l2.612.001a3.478 3.478 0 01-3.032 3.447 3.478 3.478 0 003.931-3.447l-3.511-.001z" fill="#E04F32"/>
  <path d="M19.102 15.834a3.035 3.035 0 001.452-2.588v-2.32A3.038 3.038 0 0016.6 8.034V2.789a.337.337 0 00-.337-.337H13.38V2.02a.337.337 0 00-.338-.337h-2.74A1.885 1.885 0 008.55.5c-.781 0-1.468.474-1.752 1.182h-2.74a.337.337 0 00-.338.337v.432H.837a.337.337 0 00-.337.337v18.845c0 .186.151.337.337.337H11.54v1.19c0 .187.15.338.337.338h2.517a.337.337 0 100-.675h-2.18V21.395c0-.063.002-.126.005-.188l.001-.037c.003-.059.007-.117.012-.175l.005-.049c.005-.054.01-.108.018-.162l.008-.054.02-.128.011-.065.026-.127.003-.01a4.83 4.83 0 01.296-.906l.008-.02a4.848 4.848 0 01.133-.276l.02-.037a5.26 5.26 0 01.896-1.214c.095-.097.194-.19.296-.28l.013-.011c.049-.043.1-.086.15-.127l.022-.018.154-.12.013-.01c.044-.033.09-.064.134-.096l.05-.035a5.707 5.707 0 01.208-.135l.06-.037c.058-.035.117-.07.176-.102l.011-.007a5.636 5.636 0 011.014-.437l.54 1.049-.724 3.14a.337.337 0 00.1.324l1.4 1.28a.337.337 0 00.455 0l1.4-1.28a.337.337 0 00.1-.324l-.723-3.14.54-1.049a5.642 5.642 0 012.161 1.278c1.032.98 1.6 2.253 1.6 3.585v1.429h-7.307a.337.337 0 100 .675h7.645a.337.337 0 00.337-.337v-1.767c0-2.576-1.895-4.846-4.398-5.56zm-3.949-.691c.217.27.478.501.772.684v.01c-.264.076-.522.17-.772.28v-.974zm2.458.46l-.087-.002h-.01l-.086.002a2.344 2.344 0 01-.984-.258l-.023-.014a2.367 2.367 0 01-1.17-1.44l-.005-.015a2.321 2.321 0 01-.018-.068l-.005-.023a2.34 2.34 0 01-.05-.284l-.002-.03a2.282 2.282 0 01-.007-.088l-.001-.03a2.355 2.355 0 01-.003-.107v-1.168c2.1-.145 2.876-1.581 2.876-1.581s.515 1.357 1.843 1.566v1.183c0 1.27-1.01 2.31-2.268 2.357zM4.395 2.357h2.648c.155 0 .29-.106.327-.257a1.211 1.211 0 011.18-.924c.561 0 1.046.38 1.18.924.037.151.172.257.327.257h2.648v1.934h-8.31V2.357zm-3.22.77H3.72v.512H2.284a.337.337 0 00-.337.338v9.67a.337.337 0 10.675 0V4.314H3.72v.314c0 .187.151.338.338.338h8.985a.337.337 0 00.337-.338v-.314h1.098v1.862a.337.337 0 00.675 0v-2.2a.337.337 0 00-.337-.337H13.38v-.512h2.545v5.218a3.059 3.059 0 00-.772.684V7.301a.337.337 0 10-.675 0v9.162a6.27 6.27 0 00-1.047.779l-.015.013-.002.002a5.95 5.95 0 00-1.22 1.567c-.012.02-.022.042-.034.063l-.045.09a5.456 5.456 0 00-.388 1.013H2.622v-5.218a.337.337 0 10-.675 0v5.555c0 .187.151.338.337.338h9.305a5.342 5.342 0 00-.036.347l-.005.076a5.187 5.187 0 00-.008.19v.018H1.175V3.126zm16.344 18.492l-1.025-.939.646-2.807h.759l.646 2.807-1.026.94zm.442-4.42h-.883l-.43-.836.087-.015.056-.01a5.811 5.811 0 01.494-.053l.041-.002.118-.004.075.002.075-.002c.04 0 .08.002.118.004l.042.002c.057.003.114.008.172.013l.068.007a5.088 5.088 0 01.397.058l-.43.835z" fill="#000"/>
  <path d="M5.473 16.163a.337.337 0 00.475-.062l.229-.3c.614.397 1.32.605 2.061.605a3.82 3.82 0 003.8-3.476h1.005a.337.337 0 00.337-.33v-.01a5.11 5.11 0 00-2.01-4.078.337.337 0 00-.411.535 4.436 4.436 0 011.734 3.208h-.976l-3.327-.002L6.252 8.9l-.148-.233a4.452 4.452 0 012.134-.542 4.43 4.43 0 011.875.41.337.337 0 10.283-.612 5.1 5.1 0 00-2.158-.473c-.993 0-1.958.284-2.79.822a.337.337 0 00-.1.464l.162.255a4.502 4.502 0 00-1.79 3.6 4.49 4.49 0 001.753 3.573zm5.888-3.233a3.146 3.146 0 01-4.773 2.333l1.783-2.335 2.53.001h.46zM5.874 9.56l1.92 3.012-1.956 2.56v.001l-.211.276a3.815 3.815 0 01-1.231-2.82 3.83 3.83 0 011.478-3.029z" fill="#000"/>
</svg>
