<svg width="24" height="24" fill="none" xmlns="http://www.w3.org/2000/svg">
  <defs>
    <path d="M19.36 3.478l.697 1.411a.294.294 0 00.22.161l1.559.227a.294.294 0 01.163.5l-1.128 1.1a.294.294 0 00-.084.26l.266 1.552a.294.294 0 01-.427.31l-1.393-.733a.294.294 0 00-.274 0l-1.393.733a.294.294 0 01-.427-.31l.267-1.552a.294.294 0 00-.085-.26l-1.127-1.1a.294.294 0 01.163-.5l1.558-.227a.294.294 0 00.22-.16l.698-1.412a.294.294 0 01.527 0z" fill="#F7CB4F" id="reuse-2"/>
    <path d="M12.27 1.001l.697 1.412a.294.294 0 00.221.161l1.558.227a.294.294 0 01.163.5l-1.128 1.1a.294.294 0 00-.084.26l.266 1.552a.294.294 0 01-.426.31l-1.394-.733a.294.294 0 00-.273 0l-1.394.733a.294.294 0 01-.426-.31l.266-1.552a.294.294 0 00-.085-.26L9.104 3.3a.294.294 0 01.163-.5l1.558-.227a.294.294 0 00.221-.16L11.743 1a.294.294 0 01.527 0z" fill="#F7CB4F" id="reuse-1"/>
    <path d="M5.167 3.478l.697 1.411a.294.294 0 00.221.161l1.558.227a.294.294 0 01.163.5l-1.127 1.1a.294.294 0 00-.085.26l.267 1.552a.294.294 0 01-.427.31l-1.393-.733a.294.294 0 00-.274 0l-1.394.733a.294.294 0 01-.426-.31l.266-1.552a.294.294 0 00-.084-.26L2 5.777a.294.294 0 01.163-.5l1.558-.227a.294.294 0 00.221-.16l.697-1.412a.294.294 0 01.527 0z" fill="#F7CB4F" id="reuse-0"/>
  </defs>
  <path d="M12 23.162H6.395v-1.755c0-2.959 2.648-5.381 5.607-5.421 2.958.04 5.607 2.462 5.607 5.421v1.755H12z" fill="#68B9D8"/>
  <path d="M12 15.986c-.151.002-.301.01-.45.024 2.772.265 5.157 2.59 5.157 5.397v1.755h.9v-1.755c0-2.959-2.648-5.38-5.607-5.421z" fill="#3695B2"/>
  <path d="M12 15.99a2.688 2.688 0 002.68-2.68v-2.306A2.688 2.688 0 0012 8.325a2.688 2.688 0 00-2.68 2.68v2.306A2.688 2.688 0 0012 15.99z" fill="#FFC89F"/>
  <path d="M12 8.325c-.153 0-.304.014-.45.039a2.69 2.69 0 012.23 2.64v2.307a2.69 2.69 0 01-2.23 2.64c.146.025.297.04.45.04a2.688 2.688 0 002.68-2.68v-2.306A2.688 2.688 0 0012 8.325z" fill="#F7B081"/>
  <path d="M12.644 17.573h-1.287l-.72-1.399A5.61 5.61 0 0112 15.986c.465.006.923.071 1.364.188l-.72 1.399z" fill="#D3333C"/>
  <path d="M12.542 16.02l-.799 1.553h.901l.72-1.399a5.685 5.685 0 00-.822-.154z" fill="#7F1B20"/>
  <path d="M12 22.085l-1.39-1.273.747-3.24h1.287l.746 3.24L12 22.085z" fill="#F2464F"/>
  <path d="M12.644 17.573h-.901l.747 3.24-.94.86.45.412 1.39-1.273-.746-3.24z" fill="#D3333C"/>
  <use xlink:href="#reuse-0"/>
  <use xlink:href="#reuse-0"/>
  <path d="M7.806 5.778a.294.294 0 00-.163-.501l-.27-.04-1.451 1.414a.378.378 0 00-.109.335l.318 1.853.303.16a.294.294 0 00.427-.31l-.267-1.552a.294.294 0 01.085-.26l1.127-1.1z" fill="#FBAB00"/>
  <use xlink:href="#reuse-1"/>
  <use xlink:href="#reuse-1"/>
  <path d="M14.909 3.302a.294.294 0 00-.163-.501l-.271-.04-1.45 1.414a.379.379 0 00-.11.335l.319 1.853.303.16a.294.294 0 00.426-.31l-.266-1.552a.294.294 0 01.084-.26l1.128-1.099z" fill="#FBAB00"/>
  <use xlink:href="#reuse-2"/>
  <use xlink:href="#reuse-2"/>
  <path d="M21.999 5.778a.294.294 0 00-.163-.501l-.271-.04-1.45 1.414a.379.379 0 00-.11.335l.318 1.853.303.16a.294.294 0 00.427-.31l-.266-1.552a.294.294 0 01.084-.26L22 5.777z" fill="#FBAB00"/>
  <path d="M13.579 15.88a3.018 3.018 0 001.439-2.57v-2.305A3.02 3.02 0 0012 7.987a3.02 3.02 0 00-3.017 3.018v2.305c0 1.086.577 2.04 1.44 2.57-2.486.713-4.367 2.968-4.367 5.527v1.755c0 .187.15.338.337.338h2.275a.338.338 0 100-.675H6.731v-1.418c0-1.322.564-2.587 1.589-3.56a5.604 5.604 0 012.145-1.269l.535 1.04-.719 3.119a.338.338 0 00.101.325l1.39 1.272a.337.337 0 00.456 0l1.39-1.273a.338.338 0 00.101-.324l-.718-3.12.535-1.039a5.603 5.603 0 012.145 1.269c1.025.973 1.589 2.238 1.589 3.56v1.418H9.793a.338.338 0 000 .675h7.815a.338.338 0 00.337-.338v-1.755c0-2.56-1.881-4.814-4.366-5.526zm-3.92-2.57v-1.165c2.086-.142 2.857-1.569 2.857-1.569s.51 1.345 1.826 1.553v1.182a2.344 2.344 0 01-2.251 2.34c-.029-.002-.057-.003-.086-.003h-.01l-.085.002a2.345 2.345 0 01-2.252-2.34zM12 21.627l-1.016-.93.642-2.787h.75l.641 2.786-1.017.931zm.438-4.392h-.875l-.425-.826.084-.015a5.567 5.567 0 01.546-.062l.041-.002.117-.004.075.002.074-.002.117.004.04.002c.058.004.115.008.171.014l.068.006a6.026 6.026 0 01.251.033l.057.01.084.014-.425.826zM6.942 9.25a.628.628 0 00.251-.618l-.262-1.53L8.042 6.02a.627.627 0 00.16-.648.628.628 0 00-.51-.43L6.157 4.72 5.47 3.33a.628.628 0 00-.566-.353.628.628 0 00-.567.352L3.651 4.72l-1.536.224a.628.628 0 00-.51.43.628.628 0 00.16.647l1.111 1.083-.262 1.529a.628.628 0 00.251.618.63.63 0 00.665.048l1.374-.722 1.373.722c.214.112.47.094.665-.048zM4.904 7.895c-.101 0-.202.024-.294.072l-1.315.692.25-1.465a.631.631 0 00-.18-.559L2.3 5.598l1.47-.214a.632.632 0 00.476-.345l.658-1.332.657 1.332c.092.186.27.316.476.345l1.47.214-1.064 1.037a.632.632 0 00-.182.56l.252 1.464-1.316-.692a.63.63 0 00-.293-.072zM9.979 4.627l-.262 1.529a.628.628 0 00.25.617c.197.143.452.161.666.048l1.373-.721 1.373.721a.633.633 0 00.665-.048.628.628 0 00.252-.617l-.262-1.53 1.11-1.082a.628.628 0 00.16-.648.628.628 0 00-.51-.43l-1.535-.223-.687-1.39A.627.627 0 0012.006.5a.628.628 0 00-.566.352l-.687 1.391-1.535.223a.628.628 0 00-.51.43.628.628 0 00.16.648l1.11 1.083zm.894-1.719a.632.632 0 00.476-.345l.657-1.333.658 1.333c.092.186.27.315.475.345l1.47.214-1.063 1.037a.631.631 0 00-.182.559l.251 1.464-1.315-.691a.631.631 0 00-.588 0l-1.315.691.251-1.464a.631.631 0 00-.181-.559L9.403 3.122l1.47-.214zM22.394 5.372a.628.628 0 00-.51-.43L20.35 4.72l-.686-1.39a.628.628 0 00-.567-.353.628.628 0 00-.566.352l-.687 1.391-1.535.223a.628.628 0 00-.51.43.627.627 0 00.16.648l1.11 1.083-.261 1.529a.627.627 0 00.25.617.63.63 0 00.666.049l1.373-.722 1.373.721c.215.113.47.095.665-.048a.628.628 0 00.252-.617l-.263-1.53 1.111-1.082a.628.628 0 00.16-.648zm-1.758 1.263a.632.632 0 00-.182.56l.251 1.463-1.315-.69a.632.632 0 00-.588 0l-1.315.69.251-1.464a.631.631 0 00-.181-.559l-1.064-1.037 1.47-.214a.631.631 0 00.476-.345l.657-1.332.658 1.332c.092.186.27.315.475.345l1.47.214-1.063 1.037z" fill="#000"/>
</svg>
