<svg width="24" height="24" fill="none" xmlns="http://www.w3.org/2000/svg">
  <defs/>
  <path d="M18.678 23.163h4.47v-1.435c0-2.358-2.111-4.289-4.47-4.321-2.358.032-4.469 1.963-4.469 4.321v1.435h4.47z" fill="#68B9D8"/>
  <path d="M18.678 17.407c-.151.002-.301.012-.45.03 2.171.251 4.02 2.084 4.02 4.291v1.435h.9v-1.435c0-2.358-2.112-4.289-4.47-4.321z" fill="#3695B2"/>
  <path d="M5.322 12.7h4.47v-1.435c0-2.359-2.112-4.29-4.47-4.322-2.358.032-4.47 1.963-4.47 4.322v1.434h4.47z" fill="#68B9D8"/>
  <path d="M5.322 6.943c-.15.002-.3.012-.449.03 2.17.251 4.02 2.084 4.02 4.292v1.434h.899v-1.434c0-2.359-2.111-4.29-4.47-4.322z" fill="#3695B2"/>
  <path d="M18.678 17.41a2.142 2.142 0 01-2.136-2.136v-1.838c0-1.174.961-2.136 2.136-2.136 1.175 0 2.136.962 2.136 2.136v1.838a2.142 2.142 0 01-2.136 2.136z" fill="#FFC89F"/>
  <path d="M18.678 11.3c-.154 0-.305.018-.45.049a2.144 2.144 0 011.687 2.088v1.838c0 1.02-.726 1.88-1.686 2.087.145.032.295.049.449.049a2.142 2.142 0 002.136-2.137v-1.837a2.142 2.142 0 00-2.136-2.136z" fill="#F7B081"/>
  <path d="M5.322 6.947A2.142 2.142 0 013.186 4.81V2.973c0-1.175.96-2.136 2.136-2.136 1.174 0 2.135.961 2.135 2.136V4.81a2.142 2.142 0 01-2.135 2.136z" fill="#FFC89F"/>
  <path d="M5.322.837c-.154 0-.304.017-.449.048A2.144 2.144 0 016.56 2.973V4.81c0 1.02-.726 1.88-1.687 2.088A2.142 2.142 0 007.458 4.81V2.973A2.142 2.142 0 005.322.837z" fill="#F7B081"/>
  <g fill="#465A65">
    <path d="M5.252 14.077l-1.98 2.02h.813v3.106a2.8 2.8 0 002.8 2.8h5.412v-2.27H7.325a.97.97 0 01-.97-.97v-2.667h.877l-1.98-2.02zM18.671 9.822l1.98-2.02h-.813V4.696a2.8 2.8 0 00-2.8-2.8h-5.412v2.27h4.973a.97.97 0 01.97.97v2.666h-.878l1.98 2.02z"/>
  </g>
  <path d="M18.678 22.268l1.108-1.014-.595-2.582h-1.026l-.595 2.582 1.108 1.014z" fill="#F2464F"/>
  <path d="M19.19 18.672h-.673l.595 2.582-.771.706.337.308 1.108-1.014-.595-2.582z" fill="#D3333C"/>
  <path d="M5.322 11.805L6.43 10.79l-.595-2.583H4.809l-.595 2.582 1.108 1.015z" fill="#F2464F"/>
  <g fill="#D3333C">
    <path d="M5.835 8.208h-.673l.594 2.582-.77.706.336.309L6.43 10.79l-.595-2.583zM18.166 18.672h1.026l.573-1.115a4.473 4.473 0 00-1.086-.15c-.371.005-.736.057-1.087.15l.574 1.115z"/>
  </g>
  <path d="M19.13 17.437l-.613 1.235h.674l.573-1.115a4.514 4.514 0 00-.634-.12z" fill="#7F1B20"/>
  <path d="M4.81 8.208h1.025l.574-1.115a4.476 4.476 0 00-1.087-.15c-.37.005-.735.057-1.087.15l.574 1.115z" fill="#D3333C"/>
  <path d="M5.76 6.971l-.599 1.237h.674l.574-1.115a4.528 4.528 0 00-.649-.122z" fill="#7F1B20"/>
  <path d="M20.094 17.3a2.471 2.471 0 001.057-2.026v-1.837a2.476 2.476 0 00-2.473-2.473 2.476 2.476 0 00-2.473 2.473v1.838c0 .837.42 1.577 1.058 2.025-1.94.619-3.39 2.406-3.39 4.428v1.435c0 .186.15.337.336.337h1.909a.337.337 0 100-.674h-1.572v-1.098c0-1.035.442-2.026 1.245-2.789a4.398 4.398 0 011.63-.977l.388.754-.567 2.462a.337.337 0 00.1.325l1.109 1.014a.336.336 0 00.455 0l1.108-1.014a.337.337 0 00.1-.325l-.567-2.462.389-.754c.6.201 1.162.534 1.63.977.802.763 1.245 1.754 1.245 2.79v1.097h-5.57a.337.337 0 000 .674h5.907c.186 0 .337-.15.337-.337v-1.435c0-2.022-1.451-3.81-3.39-4.428zm-3.215-2.026v-.943c1.612-.136 2.209-1.243 2.209-1.243s.39 1.028 1.39 1.224v.963c0 .967-.769 1.759-1.728 1.797l-.067-.002h-.01l-.067.002a1.801 1.801 0 01-1.727-1.797zm1.8 6.537l-.736-.673.49-2.13h.49l.49 2.13-.735.673zm.307-3.476h-.615l-.278-.54a4.12 4.12 0 01.184-.025l.022-.002c.052-.006.105-.01.158-.014l.04-.003c.042-.003.084-.004.126-.005l.055.001.056-.001c.041.001.083.002.125.005.014 0 .027.002.04.003.054.003.107.008.16.014l.02.002c.061.007.123.016.184.026l-.277.539zM2.435 12.363H1.19v-1.098c0-1.036.443-2.026 1.246-2.79a4.398 4.398 0 011.63-.976l.388.754-.567 2.462a.337.337 0 00.1.324l1.108 1.014a.336.336 0 00.455 0l1.108-1.014a.337.337 0 00.101-.324l-.567-2.462.388-.754c.6.2 1.163.533 1.63.977.803.763 1.245 1.753 1.245 2.789v1.098H3.558a.337.337 0 100 .674h6.233c.186 0 .337-.151.337-.338v-1.434c0-2.023-1.45-3.81-3.39-4.428A2.471 2.471 0 007.795 4.81V2.973A2.476 2.476 0 005.322.5a2.476 2.476 0 00-2.473 2.473V4.81c0 .837.419 1.578 1.057 2.026-1.94.618-3.39 2.405-3.39 4.428v1.434c0 .187.15.337.337.337h1.582a.337.337 0 100-.673zm2.887-1.015l-.736-.673.49-2.13h.49l.491 2.13-.735.673zm.307-3.477h-.615l-.277-.54.183-.025.024-.002c.052-.006.103-.01.155-.014l.043-.003a4.1 4.1 0 01.125-.005l.055.002.055-.002.125.005.043.003c.052.004.103.008.155.014l.024.002c.06.008.122.016.183.026l-.278.54zm-2.106-3.06v-.944c1.617-.132 2.216-1.242 2.216-1.242s.388 1.021 1.382 1.221v.965a1.8 1.8 0 01-1.727 1.797l-.068-.002h-.009l-.067.002a1.8 1.8 0 01-1.727-1.797zM12.297 19.396H7.325a.634.634 0 01-.634-.634v-.294a.337.337 0 10-.673 0v.294c0 .721.586 1.308 1.307 1.308h4.635v1.595H6.885a2.465 2.465 0 01-2.463-2.462v-3.107a.337.337 0 00-.337-.337h-.01l1.177-1.201 1.178 1.201h-.076a.337.337 0 00-.336.337v1.249a.337.337 0 10.673 0v-.912h.541a.337.337 0 00.24-.573l-1.979-2.02a.337.337 0 00-.481 0l-1.98 2.02a.337.337 0 00.24.573h.476v2.77a3.14 3.14 0 003.137 3.136h5.412c.186 0 .337-.15.337-.337v-2.27a.337.337 0 00-.337-.336zM11.626 4.502h4.973c.349 0 .633.284.633.634v.552a.337.337 0 10.674 0v-.552c0-.721-.587-1.308-1.307-1.308h-4.636V2.233h5.076A2.465 2.465 0 0119.5 4.695v3.107c0 .186.151.337.337.337h.01L18.672 9.34l-1.178-1.201h.076c.186 0 .337-.15.337-.337v-.99a.337.337 0 10-.674 0v.653h-.541a.337.337 0 00-.24.573l1.98 2.02a.337.337 0 00.48 0l1.98-2.02a.337.337 0 00-.24-.573h-.476v-2.77A3.14 3.14 0 0017.04 1.56h-5.413a.337.337 0 00-.337.337v2.27c0 .185.15.336.337.336z" fill="#000"/>
</svg>
