<svg width="24" height="24" fill="none" xmlns="http://www.w3.org/2000/svg">
  <defs/>
  <g fill="#465A65">
    <path d="M17.618 15.288v-.004l-.045.002.045.002zM16.103 15.475a5.45 5.45 0 01.16-.04l.03-.006a5.37 5.37 0 01.292-.06l.04-.007a5.846 5.846 0 01.32-.044l.044-.005.117-.01.054-.005.113-.007.05-.002a4.21 4.21 0 01.072-.002 2.723 2.723 0 01-2.625-2.713v-2.336a2.723 2.723 0 012.849-2.71v-2.56H.835v11.924h12.716a6.002 6.002 0 012.55-1.417z"/>
  </g>
  <g fill="#2E3C42">
    <path d="M12.15 11.275H5.573v.896h6.577v-.896zM.836 7.538v.896a3.737 3.737 0 003.26 3.706v-.896a3.737 3.737 0 01-3.26-3.706zM13.627 11.276v.895h.254c.306 0 .603-.037.888-.107v-.896c-.285.07-.582.108-.888.108h-.254z"/>
  </g>
  <path d="M17.484 22.554h-5.68v-1.778c0-2.997 2.683-5.45 5.68-5.492 2.997.041 5.68 2.495 5.68 5.492v1.778h-5.68z" fill="#68B9D8"/>
  <path d="M17.484 15.284c-.15.002-.3.01-.448.024 2.812.265 5.232 2.621 5.232 5.468v1.778h.896v-1.778c0-2.997-2.683-5.45-5.68-5.492z" fill="#3695B2"/>
  <path d="M17.484 15.289a2.723 2.723 0 002.715-2.715v-2.336a2.723 2.723 0 00-2.715-2.714 2.723 2.723 0 00-2.715 2.714v2.336a2.723 2.723 0 002.715 2.715z" fill="#FFC89F"/>
  <path d="M17.484 7.524c-.153 0-.302.013-.448.038a2.724 2.724 0 012.267 2.676v2.336c0 1.34-.985 2.462-2.267 2.677a2.723 2.723 0 003.162-2.677v-2.336a2.723 2.723 0 00-2.714-2.714z" fill="#F7B081"/>
  <path d="M18.136 16.892h-1.304l-.73-1.417c.447-.118.91-.184 1.382-.19.471.006.934.072 1.381.19l-.73 1.417z" fill="#D3333C"/>
  <path d="M17.991 15.315l-.75 1.577h.895l.729-1.417a5.734 5.734 0 00-.874-.16z" fill="#7F1B20"/>
  <path d="M17.484 21.463l-1.408-1.29.756-3.281h1.304l.756 3.282-1.408 1.289z" fill="#F2464F"/>
  <path d="M18.136 16.892h-.896l.757 3.282-.96.879.447.41 1.408-1.29-.756-3.281z" fill="#D3333C"/>
  <path d="M11.846 1.446H6.608A1.839 1.839 0 004.77 3.284v1.684H5.97V3.525c0-.492.4-.891.892-.891h4.728c.493 0 .892.399.892.89v1.444h1.201V3.284a1.839 1.839 0 00-1.838-1.838z" fill="#353535"/>
  <path d="M4.834 12.635a.739.739 0 01-.738-.738v-1.78h1.477v1.78c0 .408-.33.738-.739.738z" fill="#F7CB4F"/>
  <path d="M4.901 10.118v1.779a.738.738 0 01-.403.657.739.739 0 001.075-.658v-1.778H4.9z" fill="#F4B008"/>
  <path d="M12.888 12.635a.739.739 0 01-.739-.738v-1.78h1.478v1.78c0 .408-.33.738-.739.738z" fill="#F7CB4F"/>
  <path d="M12.956 10.118v1.779a.738.738 0 01-.403.657.739.739 0 001.075-.658v-1.778h-.672z" fill="#F4B008"/>
  <path d="M.836 4.968v2.57a3.737 3.737 0 003.26 3.706v-1.126h1.477v1.158h6.577v-1.158h1.477v1.158h.254c.306 0 .604-.038.889-.107v-.93a2.723 2.723 0 012.849-2.712V4.968H.835z" fill="#546F7A"/>
  <path d="M19.068 15.18a3.051 3.051 0 001.466-2.606v-2.336a3.055 3.055 0 00-2.58-3.014V4.968a.336.336 0 00-.336-.336H14.02V3.284a2.177 2.177 0 00-2.174-2.174H6.608a2.177 2.177 0 00-2.174 2.174v1.348H.836a.336.336 0 00-.336.336v11.924c0 .185.15.336.336.336h2.962a.336.336 0 100-.672H1.172V9.774a4.07 4.07 0 002.588 1.754v.368a1.076 1.076 0 002.149 0v-.284h2.594a.336.336 0 000-.672H5.91v-.822a.336.336 0 00-.336-.336H4.095a.336.336 0 00-.335.336v.723a3.408 3.408 0 01-2.588-3.303V5.304h16.11v1.89l-.059.006-.069.006-.083.01-.066.01c-.028.004-.056.01-.083.015-.021.004-.043.007-.064.012l-.085.02c-.02.004-.04.008-.06.014-.03.007-.059.016-.088.025l-.053.015c-.033.01-.066.022-.099.034l-.04.013a3.047 3.047 0 00-.269.115l-.027.013a3.226 3.226 0 00-.102.053l-.04.023-.085.049-.046.028-.076.05-.047.032-.07.05-.048.036-.066.053c-.016.012-.031.026-.046.039l-.063.054-.046.042-.059.057-.044.044a3.309 3.309 0 00-.24.28 3.626 3.626 0 00-.198.292 3.443 3.443 0 00-.108.197l-.029.059a2.991 2.991 0 00-.033.073l-.026.06-.03.075-.023.061-.026.077-.02.063a3.4 3.4 0 00-.023.079l-.017.063-.019.081-.014.064-.015.085-.01.062-.012.09-.007.06c-.004.033-.006.067-.008.101l-.004.05c-.002.051-.004.103-.004.154v.657c-.156.025-.313.04-.47.044v-.821a.336.336 0 00-.336-.336h-1.478a.336.336 0 00-.335.336v.822H9.621a.336.336 0 100 .672h2.191v.284a1.076 1.076 0 002.15 0v-.286c.157-.003.314-.015.47-.037v1.001c0 .051.002.102.004.153l.004.058.007.092.01.072c.002.026.005.051.009.076l.013.08.012.066.02.086.012.057.025.092.014.049.032.097.013.04.04.105.011.028c.016.04.033.078.05.116l.007.014A3.07 3.07 0 0015.9 15.18a6.284 6.284 0 00-2.482 1.376h-8.5a.336.336 0 000 .672h7.858c-.815.993-1.308 2.23-1.308 3.548v1.778c0 .186.15.336.336.336h2.558a.336.336 0 000-.671H12.14v-1.443c0-1.341.572-2.624 1.611-3.61l.032-.03c.04-.038.08-.075.122-.111l.01-.009c.081-.071.164-.14.25-.206l.046-.036.069-.052.068-.05.03-.02a5.697 5.697 0 011.554-.775l.545 1.06-.728 3.162a.336.336 0 00.1.323l1.408 1.288a.335.335 0 00.454 0l1.408-1.288a.336.336 0 00.1-.323l-.728-3.163.545-1.059a5.683 5.683 0 012.18 1.288c1.04.987 1.612 2.27 1.612 3.611v1.442h-7.347a.336.336 0 000 .672h7.683c.186 0 .336-.15.336-.336v-1.778c0-2.594-1.91-4.88-4.432-5.596zM4.43 10.454h.806v1.442a.403.403 0 01-.806 0V10.454zm7.716-5.822h-5.84V3.525c0-.306.25-.556.556-.556h4.728c.307 0 .556.25.556.556v1.107zm.672 0V3.525c0-.677-.55-1.227-1.228-1.227H6.864c-.677 0-1.227.55-1.227 1.227v1.107h-.53V3.284c0-.828.674-1.503 1.502-1.503h5.238c.829 0 1.503.675 1.503 1.503v1.348h-.53zm.472 7.264a.403.403 0 01-.806 0v-1.442h.806v1.442zm4.332 3.053h-.02l-.026.001h-.008l-.08-.002h-.01l-.08.002a2.399 2.399 0 01-2.294-2.376v-1.182c2.118-.14 2.901-1.589 2.901-1.589s.519 1.366 1.857 1.574v1.197a2.382 2.382 0 01-2.24 2.375zm-.139 6.058l-1.037-.949.652-2.83h.77l.652 2.83-1.037.95zm.447-4.45h-.894l-.436-.848a5.399 5.399 0 01.404-.06l.058-.005.014-.002.15-.011.06-.004.122-.004.075.002.075-.002c.041 0 .081.002.122.004l.039.002a5.796 5.796 0 01.56.064l.087.015-.436.848z" fill="#000"/>
</svg>
