<svg width="24" height="24" fill="none" xmlns="http://www.w3.org/2000/svg">
  <defs/>
  <path d="M3.585 6.31a2.736 2.736 0 100-5.472 2.736 2.736 0 000 5.471z" fill="#F7CB4F"/>
  <path d="M3.584.838c-.153 0-.304.013-.45.037a2.736 2.736 0 010 5.397 2.736 2.736 0 10.45-5.434z" fill="#F4B008"/>
  <path d="M20.416 6.31a2.736 2.736 0 100-5.472 2.736 2.736 0 000 5.471z" fill="#F7CB4F"/>
  <path d="M20.416.838c-.153 0-.304.013-.45.037a2.736 2.736 0 010 5.397 2.736 2.736 0 10.45-5.434z" fill="#F4B008"/>
  <path d="M3.585 23.162a2.736 2.736 0 100-5.472 2.736 2.736 0 000 5.472z" fill="#F7CB4F"/>
  <path d="M3.584 17.69a2.75 2.75 0 00-.45.038 2.736 2.736 0 010 5.397 2.736 2.736 0 10.45-5.434z" fill="#F4B008"/>
  <path d="M20.416 23.162a2.736 2.736 0 100-5.471 2.736 2.736 0 000 5.471z" fill="#F7CB4F"/>
  <path d="M20.416 17.69a2.75 2.75 0 00-.45.038 2.736 2.736 0 010 5.397 2.736 2.736 0 10.45-5.434z" fill="#F4B008"/>
  <path d="M12.014 18.71a6.054 6.054 0 100-12.108 6.054 6.054 0 000 12.108z" fill="#EFE7E4"/>
  <path d="M12.014 6.602c-.152 0-.302.006-.45.017a6.054 6.054 0 010 12.074 6.054 6.054 0 10.45-12.09z" fill="#D8D1D0"/>
  <path d="M12.014 18.71a6.03 6.03 0 003.943-1.461c-.513-1.647-2.15-2.865-3.943-2.89-1.793.025-3.43 1.243-3.944 2.89a6.03 6.03 0 003.944 1.46z" fill="#68B9D8"/>
  <path d="M15.057 17.249c.066.195.115.378.15.55.264-.164.515-.348.75-.55-.513-1.647-2.15-2.865-3.943-2.89a4.055 4.055 0 00-.45.033c1.61.202 3.023 1.349 3.493 2.857z" fill="#3695B2"/>
  <path d="M12.014 14.363a1.97 1.97 0 001.963-1.964v-1.69a1.97 1.97 0 00-1.963-1.964 1.97 1.97 0 00-1.964 1.964v1.69a1.97 1.97 0 001.963 1.964z" fill="#FFC89F"/>
  <path d="M12.014 8.745c-.155 0-.306.02-.45.053a1.971 1.971 0 011.513 1.911v1.69c0 .925-.649 1.706-1.514 1.91.145.035.296.054.45.054a1.97 1.97 0 001.964-1.964v-1.69a1.97 1.97 0 00-1.963-1.964z" fill="#F7B081"/>
  <path d="M12.486 15.523h-.944l-.527-1.025a4.113 4.113 0 01.999-.139c.34.005.676.053.999.139l-.527 1.025z" fill="#D3333C"/>
  <path d="M12.387 14.382l-.577 1.14H12.486l.527-1.024a4.155 4.155 0 00-.626-.116z" fill="#7F1B20"/>
  <path d="M12.014 15.523h-.472l-.547 2.374.886.81a6.476 6.476 0 00.265 0l.886-.81-.547-2.374h-.471z" fill="#F2464F"/>
  <path d="M12.485 15.523h-.675l.547 2.374-.681.623.205.188a6.476 6.476 0 00.265 0l.886-.811-.547-2.374z" fill="#D3333C"/>
  <path d="M4.633 19.369l-1.478 1.478-.62-.62a.338.338 0 00-.477.477l.858.859a.338.338 0 00.478 0l1.717-1.717a.338.338 0 00-.478-.477z" fill="#000"/>
  <path d="M20.416 17.353c-.79 0-1.51.299-2.054.789l-1.426-1.408a6.374 6.374 0 001.128-2.012.338.338 0 10-.64-.218 5.701 5.701 0 01-1.187 2.005l-.005.005a5.921 5.921 0 01-.14.148 4.513 4.513 0 00-1.427-1.738 4.682 4.682 0 00-1.292-.67 2.3 2.3 0 00.942-1.855v-1.69a2.304 2.304 0 00-2.301-2.301 2.304 2.304 0 00-2.302 2.301v1.69a2.3 2.3 0 00.943 1.856 4.684 4.684 0 00-1.293.669 4.514 4.514 0 00-1.425 1.734 5.718 5.718 0 01-1.386-5.692.338.338 0 00-.645-.199 6.391 6.391 0 001.162 5.932l-1.45 1.426a3.06 3.06 0 00-2.034-.772 3.077 3.077 0 00-3.073 3.073A3.077 3.077 0 003.584 23.5a3.077 3.077 0 003.074-3.074c0-.672-.218-1.294-.585-1.8l1.45-1.428c.096.096.196.189.299.278l.028.029c.503.432 1.067.78 1.67 1.035l.01.005.045.018a6.34 6.34 0 001.718.443l.015.002.116.012c.014 0 .027.002.041.003a6.545 6.545 0 00.245.017c.03 0 .058.002.087.003l.063.002a6.523 6.523 0 00.386-.003h.035a6.259 6.259 0 00.466-.037l.068-.009a6.591 6.591 0 00.887-.176l.114-.033.073-.022a6.572 6.572 0 00.435-.15l.058-.023c.121-.048.24-.1.358-.156l.056-.027a6.635 6.635 0 00.419-.222l.049-.028a6.38 6.38 0 00.573-.382l.01-.007c.222-.166.433-.345.631-.539l1.434 1.416a3.056 3.056 0 00-.57 1.78 3.077 3.077 0 003.074 3.073 3.077 3.077 0 003.073-3.074 3.077 3.077 0 00-3.073-3.073zm-4.855-.215a5.66 5.66 0 01-.288.214c-.002 0-.003.002-.005.003a5.799 5.799 0 01-.377.24l-.038.022c-.054.03-.107.06-.162.089l-.041.022c-.06.031-.122.061-.183.09l-.023.012a6.303 6.303 0 01-.103.047l-.043.018a5.679 5.679 0 01-.167.07l-.052.02a5.773 5.773 0 01-.896.266l-.048.01.125-.115a.338.338 0 00.101-.325l-.519-2.254.342-.663c1.072.367 1.976 1.193 2.377 2.234zm-3.75-1.278h.406l.442 1.92-.645.591-.646-.59.443-1.92zm-.243-1.129l.027-.003a3.79 3.79 0 01.244-.024l.038-.002.081-.003.056.002.055-.002.081.003.038.002.101.008.037.004a3.42 3.42 0 01.133.015l.05.008-.23.446h-.531l-.23-.446.05-.008zm-1.18-3.193c1.46-.138 2.004-1.143 2.004-1.143s.35.924 1.248 1.121v.883c0 .875-.695 1.591-1.563 1.625l-.059-.002h-.009l-.059.002a1.628 1.628 0 01-1.562-1.625v-.86zm.456 3.366l.341.663-.519 2.254a.338.338 0 00.101.325l.126.114a5.721 5.721 0 01-1.007-.3l-.092-.037-.016-.007a5.728 5.728 0 01-1.31-.78c.401-1.04 1.305-1.865 2.376-2.232zm-7.26 7.92a2.4 2.4 0 01-2.398-2.398 2.4 2.4 0 012.398-2.398 2.4 2.4 0 012.399 2.399 2.401 2.401 0 01-2.399 2.398zm16.832 0a2.4 2.4 0 01-2.399-2.398 2.4 2.4 0 012.399-2.398 2.4 2.4 0 012.398 2.399 2.401 2.401 0 01-2.398 2.398z" fill="#000"/>
  <path d="M21.464 19.369l-1.478 1.478-.62-.62a.338.338 0 00-.477.477l.858.859a.338.338 0 00.478 0l1.717-1.717a.338.338 0 00-.478-.477zM2.916 4.71a.338.338 0 00.478 0L5.11 2.993a.338.338 0 00-.478-.477L3.155 3.994l-.62-.62a.338.338 0 00-.477.478l.858.858z" fill="#000"/>
  <path d="M3.584 6.647c.616 0 1.19-.182 1.67-.495l2.127 2.1a6.41 6.41 0 00-.994 1.37.338.338 0 00.594.322 5.715 5.715 0 015.033-3.004 5.723 5.723 0 015.66 6.512.338.338 0 10.67.093 6.37 6.37 0 00-1.729-5.32l2.111-2.085c.486.32 1.066.507 1.69.507a3.077 3.077 0 003.073-3.073A3.077 3.077 0 0020.416.5a3.077 3.077 0 00-3.074 3.074c0 .827.33 1.578.863 2.132L16.12 7.763a6.386 6.386 0 00-8.249.024L5.78 5.722a3.063 3.063 0 00.878-2.148A3.077 3.077 0 003.584.5 3.077 3.077 0 00.511 3.574a3.077 3.077 0 003.073 3.073zm14.433-3.073a2.4 2.4 0 012.399-2.399 2.401 2.401 0 012.398 2.399 2.401 2.401 0 01-2.398 2.398 2.4 2.4 0 01-2.399-2.398zM3.584 1.175a2.401 2.401 0 012.399 2.399 2.401 2.401 0 01-2.399 2.398 2.4 2.4 0 01-2.398-2.398 2.4 2.4 0 012.398-2.399z" fill="#000"/>
  <path d="M19.747 4.71a.338.338 0 00.478 0l1.717-1.717a.338.338 0 00-.478-.477l-1.478 1.478-.62-.62a.338.338 0 00-.477.478l.858.858z" fill="#000"/>
</svg>
