<svg width="24" height="24" fill="none" xmlns="http://www.w3.org/2000/svg">
  <defs/>
  <path d="M19.197 23.163H4.803a.45.45 0 01-.45-.449v-.94h15.292v.94a.45.45 0 01-.45.45z" fill="#455B66"/>
  <path d="M18.747 21.774v.94a.45.45 0 01-.45.45h.9a.45.45 0 00.448-.45v-.94h-.898z" fill="#2E3C42"/>
  <path d="M19.646 21.774H4.354v-8.399a.53.53 0 01.53-.53h14.232a.53.53 0 01.53.53v8.4z" fill="#546F7A"/>
  <path d="M19.116 12.846h-.898a.53.53 0 01.53.53v8.398h.897v-8.399a.53.53 0 00-.529-.53z" fill="#465A65"/>
  <path d="M17.623 12.846c-.985-2.09-3.21-3.567-5.623-3.6-2.414.033-4.639 1.51-5.623 3.6h11.246z" fill="#68B9D8"/>
  <path d="M12 9.246c-.15.002-.3.01-.45.023 2.238.197 4.252 1.618 5.174 3.577h.899c-.984-2.09-3.21-3.567-5.623-3.6z" fill="#3695B2"/>
  <path d="M12 9.251A2.95 2.95 0 019.06 6.31V3.778A2.95 2.95 0 0112 .837a2.95 2.95 0 012.942 2.941V6.31A2.95 2.95 0 0112 9.25z" fill="#FFC89F"/>
  <path d="M12 .837c-.153 0-.303.012-.45.034a2.953 2.953 0 012.493 2.907V6.31a2.953 2.953 0 01-2.492 2.907 2.95 2.95 0 003.39-2.907V3.778A2.95 2.95 0 0012 .837z" fill="#F7B081"/>
  <path d="M11.293 10.989H12.706l.79-1.536A6.166 6.166 0 0012 9.246a6.165 6.165 0 00-1.497.207l.79 1.536z" fill="#D3333C"/>
  <path d="M12.679 9.294l-.87 1.695H12.707l.79-1.536a6.251 6.251 0 00-.818-.159z" fill="#7F1B20"/>
  <path d="M13.134 12.846l-.428-1.857H11.293l-.428 1.857h2.27z" fill="#F2464F"/>
  <path d="M12.707 10.989H11.809l.428 1.857h.898l-.428-1.857z" fill="#D3333C"/>
  <path d="M12 18.517a1.057 1.057 0 100-2.114 1.057 1.057 0 000 2.114z" fill="#F7CB4F"/>
  <path d="M13.395 17.46c0-.77-.626-1.394-1.394-1.394-.77 0-1.395.625-1.395 1.394a1.396 1.396 0 002.788 0zm-2.115 0a.721.721 0 111.442.001.721.721 0 01-1.442-.001z" fill="#000"/>
  <path d="M19.645 19.875a.337.337 0 00-.336.337v1.226H4.69V16.43a.337.337 0 00-.673 0V22.714c0 .433.352.786.786.786h14.392a.787.787 0 00.786-.786v-2.502a.337.337 0 00-.337-.337zm-.336 2.839c0 .062-.05.112-.113.112H4.803a.112.112 0 01-.112-.112v-.603H19.31v.603zM19.116 12.51h-1.284c-.844-1.64-2.411-2.87-4.192-3.364a3.28 3.28 0 001.638-2.836V3.778A3.282 3.282 0 0012 .5a3.282 3.282 0 00-3.278 3.278V6.31c0 1.21.66 2.268 1.638 2.836-1.781.494-3.348 1.723-4.192 3.363H4.884a.867.867 0 00-.866.866v1.933a.337.337 0 00.673 0v-1.933c0-.106.087-.192.193-.192h14.232c.106 0 .193.086.193.192v5.714a.337.337 0 00.673 0v-5.714a.867.867 0 00-.866-.866zm-9.72-6.2V5.033c2.315-.143 3.17-1.725 3.17-1.725s.57 1.5 2.039 1.71V6.31a2.607 2.607 0 01-2.51 2.602l-.09-.002h-.01l-.09.002a2.607 2.607 0 01-2.51-2.602zm1.201 6.2h-3.66c.753-1.26 1.99-2.212 3.394-2.654l.607 1.177-.34 1.476zm.692 0l.273-1.184h.877l.272 1.183H11.29zm1.212-1.858H11.5l-.497-.965c.14-.027.28-.05.421-.066h.006a5.713 5.713 0 01.398-.032c.028-.002.057-.002.085-.003l.088.002.088-.002a4.979 4.979 0 01.49.035c.14.017.28.039.42.066l-.497.965zm.901 1.857l-.34-1.476.606-1.177c1.405.442 2.642 1.395 3.394 2.653h-3.66z" fill="#000"/>
</svg>
