<svg width="24" height="24" fill="none" xmlns="http://www.w3.org/2000/svg">
  <defs/>
  <path d="M4.834 10.126v7.535c0 .535.433.968.968.968h13.573V9.16H5.802a.968.968 0 00-.968.967z" fill="#DAE4EA"/>
  <path d="M17.579 9.158v6.46a2.112 2.112 0 01-2.112 2.113H4.837a.967.967 0 00.965.898h13.574V9.16h-1.797z" fill="#C6D0DA"/>
  <path d="M19.375 18.63H11.74l.946 2.015h6.69v-2.016zM2.584 14.77H1.376a.539.539 0 01-.54-.54v-.673c0-.298.242-.539.54-.539h1.208c.002 0 .004.002.004.004v1.743a.004.004 0 01-.004.004z" fill="#808B95"/>
  <path d="M3.71 14.487H2.589V13.3H3.71v1.187z" fill="#DAE4EA"/>
  <path d="M4.834 15.4l-1.123-.43v-2.153l1.123-.43V15.4z" fill="#808B95"/>
  <path d="M2.177 7.928h.366v5.09H1.376V8.73a.8.8 0 01.8-.8zM2.177 19.86h.366v-5.09H1.376v4.289a.8.8 0 00.8.8z" fill="#E28086"/>
  <path d="M16.27 4.546v1.178H8.063V4.546h8.207z" fill="#707DD3"/>
  <path d="M14.407 5.724l-.243 1.419h-3.997l-.243-1.42h4.483z" fill="#DAE4EA"/>
  <path d="M16.57 3.355v1.19H7.76v-1.19h8.81zM17.27 9.158H6.94l.945-2.015h8.44l.945 2.015z" fill="#808B95"/>
  <path d="M22.345 18.663h-1.621V9.124h1.62c.453 0 .82.367.82.82v7.9a.819.819 0 01-.82.82z" fill="#707DD3"/>
  <path d="M22.345 9.124h-.53v7.822a.819.819 0 01-.818.819h-.273v.898h1.62a.819.819 0 00.82-.819v-7.9a.819.819 0 00-.82-.82z" fill="#5766CB"/>
  <path d="M19.376 11.881h1.348v4.025h-1.348v-4.025z" fill="#DAE4EA"/>
  <path d="M15.62 13.894l.42-.728h1.915a2.048 2.048 0 00-3.598-.438.884.884 0 01-.73.372h-3.046a.885.885 0 01-.73-.372 2.048 2.048 0 00-3.598.439h1.915l.42.727-.42.727H6.254a2.048 2.048 0 003.598.439.885.885 0 01.729-.372h3.047c.288 0 .564.135.729.372a2.048 2.048 0 003.598-.439H16.04l-.42-.727z" fill="#F6E266"/>
  <path d="M17.955 14.621a2.05 2.05 0 01-.377.624v-.624h.377zm-.377-1.455h.377a2.049 2.049 0 00-.377-.624v.624z" fill="#F1D333"/>
  <path d="M22.344 8.787h-.16v-.075a.337.337 0 10-.675 0v.075h-.786a.337.337 0 00-.337.337v2.42h-.674V9.158a.337.337 0 00-.337-.337h-1.89L16.628 7a.337.337 0 00-.305-.194h-1.76l.128-.745h1.577c.187 0 .337-.151.337-.337V4.88a.337.337 0 00.302-.335v-1.19a.337.337 0 00-.337-.338H7.76a.337.337 0 00-.337.337v1.19c0 .175.132.318.302.336v.843c0 .186.15.337.337.337H9.64l.128.745H7.885c-.13 0-.25.075-.305.194L6.725 8.82h-.923c-.72 0-1.305.586-1.305 1.305v2.03l-.906.346a.337.337 0 00-.217.315v.146H2.92a.34.34 0 00-.04-.11v-2.38a.337.337 0 10-.674 0v2.208h-.493V8.73c0-.256.208-.464.463-.464h.03v.636a.337.337 0 10.674 0v-.973a.337.337 0 00-.337-.337h-.367c-.627 0-1.137.51-1.137 1.138v4.02a.877.877 0 00-.539.808v.673c0 .364.223.676.539.809v4.02c0 .627.51 1.137 1.137 1.137h.367c.186 0 .337-.15.337-.337v-4.925a.339.339 0 00.04-.11h.454v.147c0 .14.086.264.217.314l.906.347v2.03c0 .719.585 1.304 1.305 1.304h5.724l.855 1.822a.337.337 0 00.305.194h6.69c.186 0 .336-.151.336-.337v-4.402h.674v2.42c0 .186.151.337.337.337h.786v.076a.337.337 0 10.674 0V19h.161c.638 0 1.156-.518 1.156-1.156v-7.9c0-.638-.518-1.157-1.156-1.157zM8.098 3.692h8.136v.517H8.098v-.517zm.301 1.19h7.534v.505H8.398v-.504zm1.925 1.179h3.684l-.127.745h-3.43l-.127-.745zM8.099 7.48h8.011l.63 1.341h-.968v-.555a.337.337 0 10-.674 0v.555h-.991v-.555a.337.337 0 10-.674 0v.555h-.991v-.555a.337.337 0 10-.674 0v.555h-.992v-.555a.337.337 0 10-.673 0v.555H9.11v-.555a.337.337 0 10-.674 0v.555H7.47L8.1 7.48zm-5.848 5.875v1.077h-.875a.202.202 0 01-.202-.201v-.674c0-.111.09-.202.202-.202h.875zm-.045 6.167h-.03a.464.464 0 01-.463-.463v-3.953h.493v4.416zm.719-5.371v-.514h.45v.514h-.45zm1.123.588v-1.69l.45-.172v2.034l-.45-.172zM5.17 17.66v-7.535c0-.348.283-.63.631-.63H19.04v8.796H5.802a.632.632 0 01-.631-.63zm13.868 2.647h-1.163l-.328-.699a.337.337 0 00-.61.286l.194.413h-.828l-.328-.699a.337.337 0 00-.61.286l.194.413h-.828l-.328-.699a.337.337 0 00-.61.286l.194.413H12.9l-.63-1.342h6.768v1.342zm.673-4.739v-3.35h.674v3.35h-.674zm3.114 2.275a.482.482 0 01-.482.482h-.16v-1.012a.337.337 0 10-.675 0v1.012h-.449V9.461h.45v6.281a.337.337 0 10.673 0v-6.28h.161c.266 0 .482.215.482.481v7.901z" fill="#000"/>
  <path d="M14.08 15.252a2.387 2.387 0 001.96 1.027c.984 0 1.88-.618 2.23-1.538a.337.337 0 00-.315-.457h-1.72l-.226-.39.226-.39h1.72a.337.337 0 00.315-.457 2.398 2.398 0 00-2.23-1.538c-.781 0-1.514.384-1.96 1.027a.546.546 0 01-.452.227h-.209a.337.337 0 100 .674h.209a1.22 1.22 0 001.005-.517c.32-.461.847-.737 1.407-.737.527 0 1.019.247 1.338.647H16.04a.337.337 0 00-.292.168l-.42.728a.337.337 0 000 .336l.42.728c.06.104.172.168.292.168h1.338c-.32.4-.811.647-1.338.647-.56 0-1.086-.276-1.406-.737a1.22 1.22 0 00-1.006-.517H10.58a1.22 1.22 0 00-1.006.517c-.32.461-.846.737-1.407.737a1.721 1.721 0 01-1.338-.647h1.338c.12 0 .232-.064.292-.168l.42-.728a.337.337 0 000-.336l-.42-.728a.337.337 0 00-.292-.168H6.83c.32-.4.812-.647 1.338-.647.561 0 1.087.276 1.407.737.225.323.6.517 1.006.517h1.266a.337.337 0 100-.674h-1.266a.546.546 0 01-.452-.227 2.387 2.387 0 00-1.96-1.027c-.984 0-1.88.618-2.23 1.538a.337.337 0 00.315.457h1.72l.225.39-.225.39h-1.72a.337.337 0 00-.315.457 2.398 2.398 0 002.23 1.538c.78 0 1.514-.384 1.96-1.027a.546.546 0 01.452-.227h3.047c.184 0 .353.085.452.227z" fill="#000"/>
</svg>
