<svg width="24" height="24" fill="none" xmlns="http://www.w3.org/2000/svg">
  <defs/>
  <path d="M3.05 2.966V23.09h17.91V4.387" fill="#FF6F52"/>
  <path d="M3.05 2.966v2.65h17.91V3.153" fill="#E25749"/>
  <path d="M13.817 17.487v-3.748h-3.604v6.04h3.604v-.912" fill="#FCD577"/>
  <g fill="#4EBFED">
    <path d="M19.116 13.74h-3.604v4.255h3.604V13.74zM8.5 13.74H4.896v4.255H8.5V13.74zM15.511 6.842h-5.308v4.256H19.115V6.842h-3.604zM8.5 6.842H4.896v4.256H8.5V6.842z"/>
  </g>
  <g fill="#CFDCE5">
    <path d="M15.558 21.435H8.35v1.656h7.208v-1.656zM14.548 19.779h-5.19v1.656h5.19v-1.656z"/>
  </g>
  <path d="M20.96.879H3.052L1.137 4.387h21.738L20.96.88z" fill="#FCD577"/>
  <path d="M20.955 7.529a.394.394 0 00-.393.394v14.79h-4.615V21.45a.394.394 0 00-.394-.394h-.616v-1.262a.394.394 0 00-.393-.394h-.338v-.517a.394.394 0 10-.788 0v.517h-2.816v-5.252h2.816v3.354a.394.394 0 10.788 0v-3.748a.394.394 0 00-.394-.393h-3.604a.394.394 0 00-.394.393V19.4h-.46a.394.394 0 00-.394.394v1.262h-.615a.394.394 0 00-.394.394v1.262H3.44V5.783a.394.394 0 10-.788 0v17.323c0 .218.177.394.394.394h17.91a.394.394 0 00.393-.394V7.923a.394.394 0 00-.394-.394zM9.748 20.188h4.402v.868H9.748v-.868zm-1.01 2.524v-.868h6.421v.868H8.74z" fill="#000"/>
  <path d="M19.11 13.36h-3.604a.394.394 0 00-.394.394v4.256c0 .218.177.394.394.394h3.604a.394.394 0 00.394-.394v-4.256a.394.394 0 00-.394-.393zm-.393 1.657h-1.255v-.869h1.255v.869zm-2.817-.869h.774v3.468H15.9v-3.468zm1.562 3.468v-1.811h1.255v1.811h-1.255zM4.496 18.01c0 .218.176.394.394.394h3.604a.394.394 0 00.394-.394v-4.256a.394.394 0 00-.394-.393H4.89a.394.394 0 00-.394.393v4.256zm2.35-.394v-1.811h1.255v1.811H6.846zm1.255-2.599H6.846v-.869h1.255v.869zm-2.817-.869h.774v3.468h-.774v-3.468zM19.505 6.857a.394.394 0 00-.394-.394h-8.913a.394.394 0 00-.393.394v4.256c0 .218.176.394.393.394h8.913a.394.394 0 00.394-.394V6.857zm-.788 1.318H16.58v-.924h2.137v.924zm-5.2 0v-.924h2.275v.924h-2.275zm2.275.788v1.756h-2.275V8.963h2.275zM12.73 7.25v.924h-2.138v-.924h2.138zm-2.138 1.712h2.138v1.756h-2.138V8.963zm5.988 1.756V8.963h2.137v1.756H16.58zM4.89 11.507h3.604a.394.394 0 00.394-.394V6.857a.394.394 0 00-.394-.394H4.89a.394.394 0 00-.394.394v4.256c0 .218.176.394.394.394zm1.956-.788V8.907h1.255v1.812H6.846zm1.255-2.6H6.846v-.868h1.255v.869zm-2.817-.868h.774v3.468h-.774V7.251z" fill="#000"/>
  <path d="M23.215 4.214L21.3.705A.394.394 0 0020.956.5H3.046A.394.394 0 002.7.705L.785 4.214a.394.394 0 00.346.582h19.43v1.746a.394.394 0 10.788 0V4.796h1.52a.394.394 0 00.346-.582zm-21.42-.205L3.28 1.288H20.72l1.485 2.72H1.795zM11.256 17.3a.394.394 0 100-.787.394.394 0 000 .788z" fill="#000"/>
</svg>
