<svg width="24" height="24" fill="none" xmlns="http://www.w3.org/2000/svg">
  <defs/>
  <path d="M21.665 5.638h-1.959c.231.307.368.689.368 1.101v9.054a.367.367 0 01-.367.367v.734c.203 0 .367.164.367.367 0 .413-.137.794-.368 1.1h1.959c.607 0 1.1-.493 1.1-1.1V6.739c0-.607-.493-1.1-1.1-1.1z" fill="#185F8D"/>
  <path d="M19.34 15.793V6.739c0-.607-.493-1.1-1.1-1.1h-5.995v8.685a.367.367 0 01-.367.367v.734c.203 0 .367.165.367.368v2.569h5.995c.607 0 1.1-.494 1.1-1.101 0-.203.165-.367.368-.367v-.734a.367.367 0 01-.367-.367z" fill="#6DA8D6"/>
  <path d="M11.511 14.325V5.638H2.335c-.607 0-1.1.494-1.1 1.101v10.522c0 .607.493 1.1 1.1 1.1h9.176v-2.568c0-.203.164-.367.367-.367v-.735a.367.367 0 01-.367-.367zm-8.395 1.077a.366.366 0 01-.367-.367.367.367 0 11.367.367zm1.468 1.468a.366.366 0 01-.367-.367.367.367 0 01.65-.233l.004.005a.35.35 0 01.08.228.367.367 0 01-.367.367zm5.239-9.373a.367.367 0 11-.735 0 .367.367 0 01.735 0z" fill="#F2484B"/>
  <path d="M4.871 16.275l-.004-.005a.366.366 0 00-.65.233.366.366 0 00.367.367.367.367 0 00.287-.595zM3.4 14.803a.367.367 0 10-.568.464.367.367 0 00.568-.464z" fill="#082947"/>
  <path d="M21.665 4.904H2.335A1.837 1.837 0 00.5 6.74v10.522c0 1.012.823 1.835 1.835 1.835h19.33A1.837 1.837 0 0023.5 17.26V6.739a1.837 1.837 0 00-1.835-1.835zm1.101 12.357c0 .607-.494 1.1-1.101 1.1h-1.959c.231-.306.369-.688.369-1.1a.367.367 0 10-.735 0c0 .607-.494 1.1-1.1 1.1h-5.995v-2.568a.367.367 0 10-.734 0v2.569H2.335a1.102 1.102 0 01-1.101-1.101V6.739c0-.607.494-1.1 1.101-1.1h9.176v8.686a.367.367 0 10.734 0V5.638h5.994c.607 0 1.101.494 1.101 1.101v9.054a.367.367 0 10.735 0V6.739c0-.412-.138-.794-.369-1.1h1.959c.607 0 1.101.493 1.101 1.1v10.522z" fill="#082947"/>
  <path d="M9.455 7.864a.367.367 0 100-.734.367.367 0 000 .734z" fill="#082947"/>
</svg>
