<svg width="24" height="24" fill="none" xmlns="http://www.w3.org/2000/svg">
  <defs>
    <path d="M20.454 16.919l1.078-.649c.706-.44 1.131-1.187 1.131-1.99v-2.294h-2.326v2.294c0 .803-.684 2.764-.684 2.764s.684 1.961.684 2.763v2.295h2.326v-2.295c0-.802-.425-1.55-1.131-1.99l-1.078-.648a.144.144 0 010-.25z" fill="#53B4E4" id="reuse-0"/>
  </defs>
  <path d="M19.218 20.54H1.681a.844.844 0 01-.844-.844V3.566c0-.466.378-.844.844-.844h17.537c.466 0 .844.378.844.845v16.13a.844.844 0 01-.844.843z" fill="#EDEDED"/>
  <path d="M19.219 2.721h-1.476V20.54h1.476a.844.844 0 00.844-.844V3.565a.844.844 0 00-.844-.844z" fill="#D6D6D6"/>
  <path d="M19.218 2.722H1.681a.844.844 0 00-.844.845v2.619h19.225v-2.62a.844.844 0 00-.844-.844z" fill="#345863"/>
  <path d="M20.063 6.185v-2.62a.844.844 0 00-.844-.844h-1.476v3.464h2.32z" fill="#1E4751"/>
  <g fill="#FF9C43">
    <path d="M3.72 4.277a.887.887 0 01-.886-.887V2.065a.887.887 0 011.773 0V3.39c0 .49-.397.887-.886.887zM8.207 4.277a.887.887 0 01-.887-.887V2.065a.887.887 0 011.773 0V3.39c0 .49-.397.887-.886.887zM12.693 4.277a.887.887 0 01-.886-.887V2.065a.887.887 0 011.773 0V3.39c0 .49-.397.887-.887.887zM17.178 4.277a.887.887 0 01-.886-.887V2.065a.887.887 0 111.773 0V3.39c0 .49-.397.887-.887.887z"/>
  </g>
  <path d="M10.716 8.429l.906 2.787a.28.28 0 00.267.194h2.93a.28.28 0 01.165.507l-2.37 1.723a.28.28 0 00-.103.313l.906 2.788a.28.28 0 01-.432.313l-2.37-1.722a.28.28 0 00-.33 0l-2.371 1.722a.28.28 0 01-.432-.313l.906-2.788a.28.28 0 00-.102-.313l-2.371-1.723a.28.28 0 01.165-.507h2.93a.28.28 0 00.267-.194l.906-2.787a.28.28 0 01.533 0z" fill="#F43B45"/>
  <g>
    <path d="M22.663 11.986h-5.85v2.294c0 .803.425 1.55 1.131 1.99l1.077.649a.144.144 0 010 .25l-1.077.648c-.706.44-1.131 1.188-1.131 1.99v2.295h5.85v-2.295c0-.802-.426-1.55-1.132-1.99l-1.077-.648a.144.144 0 010-.25l1.077-.649c.706-.44 1.132-1.187 1.132-1.99v-2.294z" fill="#75CFF2"/>
    <use xlink:href="#reuse-0"/>
    <use xlink:href="#reuse-0"/>
    <path d="M22.84 12.872h-6.205a.323.323 0 01-.323-.323v-.411c0-.178.145-.323.323-.323h6.205c.178 0 .323.145.323.323v.411a.323.323 0 01-.323.323z" fill="#345863"/>
    <path d="M17.01 15.202c.19.43.512.805.935 1.068l1.077.649a.145.145 0 01.073.125h1.287c0-.048.024-.096.073-.125l1.077-.649a2.41 2.41 0 00.935-1.068H17.01z" fill="#FF9C43"/>
    <path d="M20.454 16.919l1.077-.649a2.41 2.41 0 00.936-1.068h-2.27c-.201.859-.544 1.842-.544 1.842h.729c0-.048.024-.096.072-.125z" fill="#EF8229"/>
    <path d="M22.663 19.834h-5.85v2.268h5.85v-2.268z" fill="#FF9C43"/>
    <path d="M22.663 19.834h-2.326v2.268h2.326v-2.268z" fill="#EF8229"/>
    <path d="M22.832 22.822h-6.189a.331.331 0 01-.33-.331v-.451c0-.183.148-.331.33-.331h6.189c.183 0 .33.148.33.331v.45a.331.331 0 01-.33.332z" fill="#345863"/>
  </g>
  <g fill="#000">
    <path d="M21.71 16.556c.807-.503 1.29-1.354 1.29-2.276v-1.09a.66.66 0 00.5-.64v-.412a.66.66 0 00-.66-.66h-6.205a.66.66 0 00-.66.66v.411a.66.66 0 00.5.64v1.091c0 .922.483 1.773 1.291 2.276l.004.003.806.485-.806.485-.004.002c-.808.503-1.29 1.354-1.29 2.276v1.586a.669.669 0 00-.5.647v.45c0 .369.3.668.667.668h6.189c.368 0 .668-.3.668-.668v-.45a.67.67 0 00-.5-.647v-1.586c0-.922-.483-1.773-1.29-2.276l-.005-.002-.805-.485.805-.485.004-.003zm-4.56-2.276V13.21h5.176v1.071c0 .201-.031.398-.09.585H17.24a1.938 1.938 0 01-.09-.585zm-.5-2.128h6.176v.383h-6.177v-.383zm5.676 9.22h-5.177V20.17h5.177v1.2zm.5 1.113h-6.177v-.44h6.177v.44zm.006.336v-.337.337zm-1.477-4.716c.515.321.854.827.946 1.392h-5.127a2.03 2.03 0 01.946-1.392l1.075-.648a.498.498 0 00.098-.076h.89a.498.498 0 00.097.076l1.075.648zM20.28 16.63a.49.49 0 00-.097.077h-.89a.495.495 0 00-.098-.077l-1.075-.647a2.13 2.13 0 01-.511-.444h4.257c-.141.17-.313.32-.51.444l-1.076.647z"/>
    <path d="M15.438 20.203H1.681a.508.508 0 01-.507-.508V6.521h18.552v3.943a.337.337 0 10.673 0V3.566c0-.652-.53-1.182-1.18-1.182h-.817v-.319c0-.674-.548-1.223-1.223-1.223s-1.223.549-1.223 1.223v.32h-2.04v-.32c0-.674-.549-1.223-1.223-1.223-.675 0-1.224.549-1.224 1.223v.32H9.43v-.32c0-.674-.549-1.223-1.223-1.223-.675 0-1.224.549-1.224 1.223v.32h-2.04v-.32c0-.674-.548-1.223-1.223-1.223-.674 0-1.223.549-1.223 1.223v.32H1.68C1.03 2.384.5 2.914.5 3.564v16.13c0 .652.53 1.181 1.181 1.181h13.757a.337.337 0 000-.673zM16.63 2.065a.55.55 0 011.1 0V3.39a.55.55 0 01-1.1 0V2.065zm-4.486 0a.55.55 0 011.1 0V3.39a.55.55 0 01-1.1 0V2.065zm-4.486 0a.55.55 0 011.1 0V3.39a.55.55 0 01-1.1 0V2.065zm-4.486 0a.55.55 0 011.099 0V3.39a.55.55 0 01-1.1 0V2.065zm-1.49.993h.816v.332c0 .675.549 1.224 1.223 1.224.675 0 1.224-.549 1.224-1.224v-.332h2.04v.332c0 .675.548 1.224 1.223 1.224.674 0 1.223-.549 1.223-1.224v-.332h2.04v.332c0 .675.548 1.224 1.223 1.224.674 0 1.223-.549 1.223-1.224v-.332h2.04v.332c0 .675.548 1.224 1.223 1.224s1.224-.549 1.224-1.224v-.332h.815c.28 0 .508.228.508.508v2.282H1.174V3.566c0-.28.227-.508.507-.508z"/>
    <path d="M15.406 11.5a.616.616 0 00-.587-.427h-2.89l-.893-2.748a.616.616 0 00-1.174 0l-.893 2.748H6.08a.616.616 0 00-.362 1.117l2.337 1.698-.893 2.748a.616.616 0 00.95.69l2.338-1.698 2.338 1.699a.616.616 0 00.95-.69l-.893-2.749 2.338-1.698a.616.616 0 00.224-.69zm-2.991 1.867a.616.616 0 00-.224.69l.852 2.622-2.23-1.62a.616.616 0 00-.727 0l-2.23 1.62.852-2.622a.616.616 0 00-.224-.69l-2.23-1.62H9.01a.616.616 0 00.587-.427l.852-2.622.852 2.622a.616.616 0 00.587.427h2.757l-2.23 1.62z"/>
  </g>
</svg>
