<svg width="24" height="24" fill="none" xmlns="http://www.w3.org/2000/svg">
  <defs/>
  <path d="M19.194 20.528H1.68a.843.843 0 01-.843-.843V3.577c0-.466.377-.843.843-.843h17.514c.465 0 .843.377.843.843v16.108a.843.843 0 01-.843.843z" fill="#EDEDED"/>
  <path d="M19.194 2.734h-1.48v17.794h1.48a.843.843 0 00.843-.843V3.577a.843.843 0 00-.843-.843z" fill="#D6D6D6"/>
  <path d="M19.194 2.734H1.68a.843.843 0 00-.843.843v2.615h19.2V3.577a.843.843 0 00-.843-.843z" fill="#345863"/>
  <path d="M20.037 6.192V3.577a.843.843 0 00-.843-.843h-1.48v3.458h2.323z" fill="#1E4751"/>
  <g fill="#FF9C43">
    <path d="M3.716 4.287a.885.885 0 01-.885-.885V2.079a.885.885 0 111.77 0v1.323a.885.885 0 01-.885.885zM8.197 4.287a.885.885 0 01-.885-.885V2.079a.885.885 0 111.77 0v1.323a.885.885 0 01-.885.885zM12.677 4.287a.885.885 0 01-.885-.885V2.079a.885.885 0 111.77 0v1.323a.885.885 0 01-.885.885zM17.157 4.287a.885.885 0 01-.886-.885V2.079a.885.885 0 111.771 0v1.323a.885.885 0 01-.885.885z"/>
  </g>
  <path d="M10.703 8.434l.904 2.783a.28.28 0 00.267.194H14.8a.28.28 0 01.165.506l-2.368 1.72a.28.28 0 00-.101.314l.904 2.783a.28.28 0 01-.431.313l-2.368-1.72a.28.28 0 00-.33 0l-2.367 1.72a.28.28 0 01-.43-.313l.903-2.783a.28.28 0 00-.101-.314l-2.368-1.72a.28.28 0 01.165-.506h2.926a.28.28 0 00.267-.194l.904-2.783a.28.28 0 01.533 0z" fill="#F43B45"/>
  <path d="M18.413 22.807c-.27 0-.49-.22-.49-.49v-.268a.143.143 0 00-.106-.14 3.621 3.621 0 01-.891-.369.144.144 0 00-.174.024l-.19.19a.487.487 0 01-.693 0l-.477-.478a.491.491 0 010-.694l.19-.19a.144.144 0 00.023-.173 3.616 3.616 0 01-.37-.891.143.143 0 00-.139-.106h-.268c-.27 0-.49-.22-.49-.49v-.675c0-.27.22-.49.49-.49h.268a.143.143 0 00.14-.106c.082-.312.206-.612.369-.891a.144.144 0 00-.024-.174l-.19-.19a.49.49 0 010-.693l.478-.477a.487.487 0 01.694 0l.19.19a.144.144 0 00.173.023c.28-.163.58-.287.891-.37a.143.143 0 00.105-.139v-.268c0-.27.22-.49.49-.49h.676c.27 0 .49.22.49.49v.268c0 .066.044.123.105.14.313.082.613.206.892.369a.144.144 0 00.174-.024l.19-.19a.487.487 0 01.693 0l.477.478a.491.491 0 010 .694l-.19.19a.144.144 0 00-.023.173c.162.28.287.58.37.891a.143.143 0 00.139.106h.267c.27 0 .49.22.49.49v.675c0 .27-.22.49-.49.49h-.267a.143.143 0 00-.14.106 3.612 3.612 0 01-.37.891.144.144 0 00.025.174l.19.19a.491.491 0 010 .693l-.478.477a.487.487 0 01-.694 0l-.19-.19a.144.144 0 00-.173-.023c-.28.163-.58.287-.892.37a.143.143 0 00-.105.139v.268c0 .27-.22.49-.49.49h-.675zm.337-5.648c-.681 0-1.235.554-1.235 1.236 0 .68.554 1.235 1.235 1.235.682 0 1.236-.554 1.236-1.235 0-.682-.554-1.236-1.236-1.236z" fill="#345863"/>
  <g fill="#000">
    <path d="M15.388 11.5a.615.615 0 00-.587-.426h-2.885l-.892-2.745a.615.615 0 00-1.174 0l-.891 2.745H6.073a.616.616 0 00-.362 1.116l2.334 1.696-.892 2.744a.616.616 0 00.95.69l2.334-1.696 2.334 1.696a.616.616 0 00.95-.69l-.892-2.744 2.335-1.696a.615.615 0 00.224-.69zM12.4 13.365a.616.616 0 00-.224.69l.85 2.617-2.226-1.618a.616.616 0 00-.726 0l-2.226 1.618.85-2.617a.615.615 0 00-.224-.69l-2.226-1.618H9a.615.615 0 00.587-.426l.85-2.617.85 2.617a.615.615 0 00.587.426h2.752L12.4 13.365zM18.75 16.822c-.867 0-1.572.705-1.572 1.573 0 .867.705 1.572 1.572 1.572.867 0 1.573-.705 1.573-1.572 0-.868-.706-1.573-1.573-1.573zm0 2.471a.9.9 0 010-1.797.9.9 0 010 1.797z"/>
    <path d="M22.672 17.23h-.123a3.963 3.963 0 00-.289-.698l.087-.087a.828.828 0 000-1.17l-.477-.477a.822.822 0 00-.585-.243.822.822 0 00-.585.242l-.087.087a3.953 3.953 0 00-.698-.289v-.122a.828.828 0 00-.827-.828h-.675a.828.828 0 00-.828.828v.122c-.24.074-.474.171-.697.29l-.087-.087a.822.822 0 00-.585-.243.822.822 0 00-.585.242l-.478.478a.828.828 0 000 1.17l.087.087a3.952 3.952 0 00-.289.698h-.123a.828.828 0 00-.827.827v.675c0 .456.371.827.827.827h.123c.074.241.17.475.29.698l-.088.087a.828.828 0 000 1.17l.477.477a.822.822 0 00.586.243.822.822 0 00.585-.243l.087-.087c.223.119.456.216.697.29v.122c0 .457.372.828.828.828h.675a.828.828 0 00.827-.828v-.122c.241-.074.475-.171.698-.29l.087.087a.822.822 0 00.585.243.822.822 0 00.585-.243l.477-.477a.828.828 0 000-1.17l-.087-.087c.119-.223.215-.457.29-.698h.122a.828.828 0 00.828-.827v-.675a.828.828 0 00-.828-.827zm.154 1.502a.154.154 0 01-.154.153h-.268a.48.48 0 00-.465.356 3.279 3.279 0 01-.335.809.48.48 0 00.077.58l.19.19c.06.06.06.158 0 .218l-.478.477a.156.156 0 01-.217 0l-.19-.19a.48.48 0 00-.58-.076 3.28 3.28 0 01-.809.335.48.48 0 00-.356.465v.267a.154.154 0 01-.153.154h-.675a.154.154 0 01-.154-.154v-.267a.48.48 0 00-.356-.465 3.276 3.276 0 01-.808-.335.479.479 0 00-.581.076l-.19.19a.156.156 0 01-.217 0l-.477-.477a.154.154 0 010-.218l.19-.19a.481.481 0 00.076-.58 3.278 3.278 0 01-.335-.809.48.48 0 00-.465-.356h-.268a.154.154 0 01-.153-.153v-.675c0-.085.069-.153.153-.153h.268a.48.48 0 00.465-.356 3.28 3.28 0 01.335-.809.481.481 0 00-.077-.581l-.19-.19a.154.154 0 010-.217l.478-.477a.156.156 0 01.217 0l.19.19a.48.48 0 00.58.076c.254-.147.526-.26.81-.335a.48.48 0 00.355-.465v-.267c0-.085.07-.154.154-.154h.675c.084 0 .153.069.153.154v.267c0 .218.146.41.356.465.283.075.555.188.809.335a.478.478 0 00.58-.076l.19-.19a.156.156 0 01.217 0l.478.477c.06.06.06.158 0 .217l-.19.19a.48.48 0 00-.077.581c.148.254.26.526.335.808a.48.48 0 00.465.357h.268c.085 0 .154.068.154.153v.675z"/>
    <path d="M13.987 20.191H1.68a.507.507 0 01-.506-.506V6.529H19.7v7.13a.337.337 0 10.674 0V3.576c0-.65-.53-1.18-1.18-1.18h-.815v-.318c0-.674-.548-1.223-1.222-1.223-.674 0-1.222.549-1.222 1.223v.318h-2.036v-.318c0-.674-.548-1.223-1.222-1.223-.674 0-1.222.549-1.222 1.223v.318H9.419v-.318c0-.674-.548-1.223-1.222-1.223-.674 0-1.222.549-1.222 1.223v.318H4.939v-.318a1.224 1.224 0 00-2.445 0v.318H1.68c-.65 0-1.18.53-1.18 1.18v16.108c0 .65.53 1.18 1.18 1.18h12.307a.337.337 0 000-.674zM16.609 2.08a.55.55 0 011.096 0v1.323a.549.549 0 01-1.096 0V2.079zm-4.48 0a.549.549 0 011.096 0v1.323a.549.549 0 01-1.096 0V2.079zm-4.48 0a.549.549 0 011.096 0v1.323a.55.55 0 01-1.097 0V2.079zm-4.481 0a.549.549 0 011.097 0v1.323a.55.55 0 01-1.097 0V2.079zM1.174 3.577c0-.28.227-.506.506-.506h.814v.33c0 .675.549 1.223 1.222 1.223.674 0 1.223-.548 1.223-1.222V3.07h2.035v.33a1.224 1.224 0 002.444 0v-.33h2.037v.33c0 .675.548 1.223 1.222 1.223.674 0 1.222-.548 1.222-1.222V3.07h2.036v.33c0 .675.548 1.223 1.222 1.223.674 0 1.222-.548 1.222-1.222V3.07h.814c.28 0 .507.227.507.506v2.278H1.174V3.577z"/>
  </g>
</svg>
