<svg width="24" height="24" fill="none" xmlns="http://www.w3.org/2000/svg">
  <defs/>
  <path d="M21.426 23.163H2.574a.908.908 0 01-.908-.907V3.402c0-.501.406-.908.908-.908h18.852c.502 0 .908.407.908.908v18.853a.907.907 0 01-.908.907z" fill="#EDEDED"/>
  <path d="M21.426 2.495h-1.412v20.668h1.412a.908.908 0 00.908-.907V3.402a.908.908 0 00-.908-.908z" fill="#D6D6D6"/>
  <path d="M21.427 2.496H2.575a.907.907 0 00-.908.908v2.815h20.668V3.404a.908.908 0 00-.908-.908z" fill="#345863"/>
  <path d="M22.334 6.218V3.403a.908.908 0 00-.908-.908h-1.412v3.723h2.32z" fill="#1E4751"/>
  <path d="M12.361 8.765l1.226 3.773a.38.38 0 00.361.263h3.968c.368 0 .521.47.224.687l-3.21 2.332a.38.38 0 00-.139.425l1.227 3.773a.38.38 0 01-.585.425l-3.21-2.332a.38.38 0 00-.446 0l-3.21 2.332a.38.38 0 01-.585-.425l1.226-3.773a.38.38 0 00-.138-.425l-3.21-2.332a.38.38 0 01.224-.687h3.967a.38.38 0 00.362-.263l1.226-3.773a.38.38 0 01.722 0z" fill="#F43B45"/>
  <g fill="#FF9C43">
    <path d="M4.766 4.168a.953.953 0 01-.954-.954V1.79a.953.953 0 111.907 0v1.424a.953.953 0 01-.953.954zM9.589 4.168a.953.953 0 01-.953-.954V1.79a.953.953 0 111.906 0v1.424a.953.953 0 01-.953.954zM14.411 4.168a.953.953 0 01-.953-.954V1.79a.953.953 0 011.906 0v1.424a.953.953 0 01-.953.954zM19.234 4.168a.953.953 0 01-.953-.954V1.79a.953.953 0 011.906 0v1.424a.953.953 0 01-.953.954z"/>
  </g>
  <g fill="#000">
    <path d="M12 8.166a.706.706 0 00-.682.495l-1.226 3.773a.043.043 0 01-.04.03H6.082a.706.706 0 00-.681.495c-.098.301.004.616.26.802l3.21 2.332c.015.01.022.03.016.048l-1.226 3.773c-.098.301.004.616.26.801a.706.706 0 00.843 0l3.21-2.332a.043.043 0 01.05 0l3.21 2.332c.128.093.275.14.421.14a.715.715 0 00.422-.14.706.706 0 00.26-.8l-1.226-3.774a.043.043 0 01.015-.048l3.21-2.332a.706.706 0 00.26-.802.706.706 0 00-.68-.495h-3.969a.043.043 0 01-.04-.03l-1.226-3.773A.706.706 0 0012 8.166zm1.267 4.477c.096.296.37.495.681.495h3.968c.012 0 .031 0 .04.03.01.03-.005.04-.015.047l-3.21 2.333a.715.715 0 00-.26.8l1.226 3.775c.004.01.01.03-.016.047-.025.019-.04.007-.05 0l-3.21-2.332a.716.716 0 00-.843 0l-3.21 2.332c-.009.007-.025.019-.05 0-.025-.018-.02-.036-.016-.048L9.53 16.35a.715.715 0 00-.26-.801l-3.21-2.333c-.01-.006-.026-.018-.016-.047.01-.03.029-.03.04-.03h3.968a.715.715 0 00.682-.495l1.226-3.774c.004-.011.01-.03.04-.03.032 0 .038.019.041.03l1.227 3.774z"/>
    <path d="M21.426 2.158h-.902V1.79c0-.711-.579-1.29-1.29-1.29-.711 0-1.29.579-1.29 1.29v.368h-2.243V1.79c0-.711-.579-1.29-1.29-1.29-.711 0-1.29.579-1.29 1.29v.368h-2.243V1.79c0-.711-.578-1.29-1.29-1.29-.71 0-1.29.579-1.29 1.29v.368H6.057V1.79c0-.711-.579-1.29-1.29-1.29-.712 0-1.29.579-1.29 1.29v.368h-.902c-.687 0-1.245.559-1.245 1.245v4.736a.337.337 0 10.674 0V6.555h19.994v12.976a.337.337 0 10.674 0V3.403c0-.686-.559-1.245-1.245-1.245zm-2.808-.368a.617.617 0 011.232 0v1.424a.617.617 0 01-1.232 0V1.79zm-4.823 0a.617.617 0 011.232 0v1.424a.617.617 0 01-1.232 0V1.79zm-4.823 0a.617.617 0 011.233 0v1.424a.617.617 0 01-1.233 0V1.79zm-4.206-.616c.34 0 .616.276.616.616v1.424a.617.617 0 01-1.232 0V2.5v-.004-.705c0-.34.276-.616.616-.616zM2.003 5.88V3.403c0-.315.256-.57.57-.57h.903v.381c0 .712.578 1.29 1.29 1.29.711 0 1.29-.578 1.29-1.29v-.382h2.243v.382c0 .712.578 1.29 1.29 1.29.71 0 1.29-.578 1.29-1.29v-.382h2.242v.382c0 .712.58 1.29 1.29 1.29.712 0 1.29-.578 1.29-1.29v-.382h2.243v.382c0 .712.579 1.29 1.29 1.29.711 0 1.29-.578 1.29-1.29v-.382h.902c.315 0 .57.256.57.57v2.48H2.004zM22.334 20.796a.337.337 0 00-.337.337v1.123c0 .314-.256.57-.57.57H2.573a.571.571 0 01-.571-.57V9.72a.337.337 0 10-.674 0v12.536c0 .686.558 1.244 1.245 1.244h18.852c.686 0 1.245-.558 1.245-1.244v-1.123a.337.337 0 00-.337-.337z"/>
  </g>
</svg>
