<svg width="24" height="24" fill="none" xmlns="http://www.w3.org/2000/svg">
  <defs/>
  <path d="M18.112 17.623H5.889a.654.654 0 00-.578.349l-2.234 4.231c-.23.436.085.96.578.96h16.69a.654.654 0 00.58-.96l-2.235-4.231a.654.654 0 00-.578-.349z" fill="#345863"/>
  <path d="M20.924 22.203l-2.234-4.231a.654.654 0 00-.579-.349h-1.92l2.925 5.54h1.23a.654.654 0 00.578-.96z" fill="#1E4751"/>
  <path d="M12.22.84a7.781 7.781 0 00-.44 0C7.638.955 4.3 4.376 4.3 8.522c0 7.114 7.7 12.711 7.701 12.712.001 0 7.702-5.598 7.702-12.712 0-4.146-3.338-7.567-7.483-7.682zM12 13.522a5.203 5.203 0 110-10.406 5.203 5.203 0 010 10.406z" fill="#A4D852"/>
  <path d="M12.22.84a7.781 7.781 0 00-1.38.084c3.697.562 6.54 3.771 6.54 7.598 0 5.372-4.39 9.878-6.54 11.764.698.612 1.16.948 1.16.948.001 0 7.702-5.598 7.702-12.712 0-4.146-3.338-7.567-7.483-7.682z" fill="#97C63E"/>
  <path d="M12.184 5.056l.624 1.92c.026.08.1.134.184.134h2.019c.187 0 .265.24.113.35l-1.633 1.186a.193.193 0 00-.07.216l.624 1.92a.193.193 0 01-.298.216L12.114 9.81a.193.193 0 00-.227 0l-1.633 1.187a.193.193 0 01-.298-.216l.624-1.92a.193.193 0 00-.07-.216L8.877 7.459a.193.193 0 01.113-.35h2.02a.193.193 0 00.183-.133l.624-1.92a.193.193 0 01.367 0z" fill="#F43B45"/>
  <g fill="#000">
    <path d="M7.866 17.734c1.91 2.277 3.829 3.695 3.933 3.77a.336.336 0 00.401 0c.101-.074 2.021-1.491 3.932-3.77 1.13-1.348 2.032-2.728 2.68-4.1.813-1.725 1.226-3.445 1.226-5.112a7.97 7.97 0 00-2.283-5.588A7.993 7.993 0 0011.771.503a7.992 7.992 0 00-5.528 2.431 7.969 7.969 0 00-2.282 5.588c0 1.667.413 3.387 1.226 5.112.648 1.373 1.549 2.752 2.68 4.1zm-1.14-14.33a7.322 7.322 0 015.483-2.227 7.322 7.322 0 015.064 2.228 7.3 7.3 0 012.09 5.117c0 1.567-.39 3.19-1.161 4.825-.623 1.32-1.493 2.65-2.586 3.954a24.796 24.796 0 01-3.617 3.51 24.79 24.79 0 01-3.616-3.51c-1.094-1.304-1.964-2.634-2.586-3.954-.771-1.635-1.162-3.258-1.162-4.825a7.3 7.3 0 012.091-5.117z"/>
    <path d="M12 13.859a5.546 5.546 0 005.54-5.54A5.546 5.546 0 0012 2.779a5.546 5.546 0 00-5.54 5.54 5.546 5.546 0 005.54 5.54zm0-10.406a4.872 4.872 0 014.866 4.866A4.872 4.872 0 0112 13.185 4.872 4.872 0 017.134 8.32 4.872 4.872 0 0112 3.453z"/>
    <path d="M8.678 7.732l1.548 1.125-.591 1.82a.529.529 0 00.816.593l1.548-1.125 1.55 1.125a.53.53 0 00.815-.592l-.592-1.821 1.55-1.125a.529.529 0 00-.313-.96h-1.914l-.591-1.82a.529.529 0 00-1.009 0l-.591 1.82H8.989a.529.529 0 00-.311.96zm2.33-.285c.23 0 .433-.148.504-.367L12 5.58l.488 1.5c.07.22.273.367.504.367h1.576l-1.275.926a.529.529 0 00-.193.593l.487 1.5-1.275-.927a.529.529 0 00-.623 0l-1.276.926.488-1.5a.529.529 0 00-.193-.592l-1.275-.926h1.576zM21.221 22.046l-2.234-4.231a.989.989 0 00-.876-.529h-.968a.337.337 0 100 .674h.968c.118 0 .226.065.28.17l2.235 4.23a.312.312 0 01-.01.313.312.312 0 01-.27.153H3.653a.312.312 0 01-.271-.153.312.312 0 01-.01-.312l2.235-4.232a.316.316 0 01.28-.169h.97a.337.337 0 100-.674h-.97a.989.989 0 00-.876.529l-2.234 4.231a.983.983 0 00.028.975c.18.3.498.479.848.479h16.691c.35 0 .668-.18.849-.48.18-.3.191-.664.027-.974z"/>
  </g>
</svg>
