<svg width="24" height="24" fill="none" xmlns="http://www.w3.org/2000/svg">
  <defs/>
  <path d="M6.637 9.328l5.537 3.198-4.931 8.541-5.538-3.197 4.932-8.542z" fill="#F6F9F9"/>
  <path d="M6.637 9.329l-.561.972 2.009 1.16a2.13 2.13 0 01.779 2.909l-3.305 5.725 1.684.973 4.932-8.542-5.538-3.197z" fill="#E7ECF1"/>
  <path d="M7.094 8.072l5.94 3.43-.658 1.14-5.94-3.43.658-1.14zM1.504 17.753l5.94 3.43-.658 1.14-5.94-3.43.658-1.14z" fill="#B9C1CB"/>
  <path d="M3.6 23.163l-2.341-.305 1.613-2.794 1.888 1.09-1.16 2.01z" fill="#808B95"/>
  <path d="M22.279 5.755l-2.026.283a2.613 2.613 0 01-2.785-1.608L16.7 2.534a1.017 1.017 0 01.801-1.388l2.026-.284a2.613 2.613 0 012.785 1.608l.767 1.897a1.017 1.017 0 01-.801 1.388z" fill="#B9C1CB"/>
  <path d="M19.89 4.707a1.257 1.257 0 100-2.513 1.257 1.257 0 000 2.513zM17.788 5.003l-1.301 2.255-2.958-1.708a1.915 1.915 0 00-2.613.7L9.172 9.272l1.785 1.03 1.67-2.893 2.958 1.708a1.915 1.915 0 002.613-.7l1.37-2.373a2.616 2.616 0 01-1.78-1.04z" fill="#808B95"/>
  <path d="M18.406 5.601L17.3 7.518a1.913 1.913 0 01-2.613.7l-2.022-1.167a1.08 1.08 0 00-1.475.395l-.776 1.343a.71.71 0 01-.97.26l-.107-.062-.164.285 1.785 1.03 1.67-2.893 2.958 1.708a1.913 1.913 0 002.613-.7l1.37-2.373a2.613 2.613 0 01-1.162-.443z" fill="#5E6B75"/>
  <path d="M23.392 4.24a.337.337 0 00-.624.253.676.676 0 01-.042.595.675.675 0 01-.494.333l-2.026.284a2.12 2.12 0 01-.585.006l-.012-.001a2.286 2.286 0 01-1.55-.907l-.007-.01a2.102 2.102 0 01-.272-.489l-.767-1.896a.676.676 0 01.042-.595.675.675 0 01.494-.333l2.026-.284A2.273 2.273 0 0122 2.596l.161.4a.337.337 0 00.625-.252l-.162-.4A2.946 2.946 0 0019.481.53l-2.026.284c-.415.058-.774.3-.984.663-.21.364-.24.796-.082 1.185l.767 1.896c.065.162.144.316.235.46l-1.028 1.78-2.665-1.539a2.252 2.252 0 00-3.074.824l-1.576 2.73L7.262 7.78a.337.337 0 00-.46.124l-.658 1.14a.337.337 0 00.04.394l-3.312 5.738a.337.337 0 00.583.337L6.76 9.789l4.954 2.86-4.594 7.958-4.954-2.86.483-.837a.337.337 0 10-.583-.337l-.492.851a.337.337 0 00-.362.162l-.658 1.14a.337.337 0 00.123.46l1.735 1.001L.967 22.69a.337.337 0 00.249.502l2.34.305a.338.338 0 00.336-.166l.991-1.717 1.735 1.002c.16.092.367.038.46-.124l.658-1.14a.337.337 0 00-.04-.393l4.61-7.987c.145.03.29-.037.362-.162l.658-1.14a.337.337 0 00-.123-.46l-1.786-1.03 1.333-2.31.264.152a.337.337 0 00.337-.584l-.556-.32a.337.337 0 00-.46.123l-1.502 2.601-1.201-.693 1.576-2.73a1.578 1.578 0 012.153-.577l2.957 1.707a.337.337 0 00.46-.123l1.067-1.848c.338.325.75.565 1.198.7l-1.137 1.97a1.577 1.577 0 01-2.153.577l-1.02-.589a.337.337 0 10-.337.584l1.02.589a2.25 2.25 0 003.073-.824l1.263-2.187a2.996 2.996 0 00.548-.026l2.025-.284c.416-.058.775-.3.985-.663.21-.364.24-.795.082-1.185zM3.42 22.8l-1.617-.21 1.193-2.066 1.304.753-.88 1.523zm3.243-.936L1.306 18.77l.321-.557 5.357 3.093-.32.557zm5.59-9.682L6.896 9.089l.321-.557 5.357 3.093-.321.557z" fill="#000"/>
  <path d="M20.687 2.07a1.593 1.593 0 10-1.594 2.76 1.593 1.593 0 101.594-2.76zm0 1.84a.92.92 0 11-1.593-.918.92.92 0 011.593.919zM21.944 4.973a.337.337 0 100-.673.337.337 0 000 .673zM17.836 2.602a.337.337 0 100-.674.337.337 0 000 .674zM6.664 19.825c.16.093.366.039.46-.123l3.808-6.597a.337.337 0 00-.583-.337L6.54 19.366a.337.337 0 00.124.46zM7.216 10.57a.337.337 0 00-.46.124l-3.808 6.597a.337.337 0 10.583.337L7.34 11.03a.337.337 0 00-.124-.46z" fill="#000"/>
</svg>
