<svg width="24" height="24" fill="none" xmlns="http://www.w3.org/2000/svg">
  <defs/>
  <path d="M17.686 15.553s3.094-2.907 5.478-1.939v-3.228c-2.384.968-5.479-1.938-5.479-1.938v7.104z" fill="#ED2772"/>
  <path d="M17.685 15.553s.693-.651 1.675-1.234c.21-.737.321-1.515.321-2.319a8.49 8.49 0 00-.32-2.318c-.983-.584-1.676-1.234-1.676-1.234v7.104z" fill="#D62367"/>
  <path d="M8.84 3.58a8.485 8.485 0 11-1.168.23s.673-.183 1.168-.23z" fill="#F4F2F3"/>
  <path d="M15.125 5.32A8.485 8.485 0 013.213 17.231 8.485 8.485 0 1015.126 5.319z" fill="#CCCBCB"/>
  <path d="M4.647 15.7h.003c-.404.762-.932 1.223-1.513 1.223-.055 0-.109-.004-.163-.012A8.445 8.445 0 011.41 12c0-1.83.58-3.525 1.565-4.911a1.01 1.01 0 01.163-.012C4.414 7.1 5.45 9.33 5.437 12a9.688 9.688 0 01-.318 2.478l-.472 1.223z" fill="#5B9ED6"/>
  <path d="M5.438 12c.013-2.67-1.024-4.9-2.3-4.923-.055-.001-.11.004-.163.012a8.221 8.221 0 00-.17.247C3.729 8 4.394 9.858 4.384 12a9.697 9.697 0 01-.318 2.478l-.473 1.223h.003c-.226.427-.492.76-.785.97l.165.24c.054.008.108.012.163.012.581 0 1.11-.461 1.513-1.222h-.003l.472-1.223A9.697 9.697 0 005.438 12z" fill="#508BBD"/>
  <path d="M3.392 12c0-1.204-.506-2.18-1.131-2.18s-1.132.976-1.132 2.18c0 1.204.507 2.18 1.132 2.18.625 0 1.131-.976 1.131-2.18z" fill="#000"/>
  <path d="M23.29 13.302c-1.772-.72-3.827.463-4.966 1.297a8.82 8.82 0 000-5.2c1.416 1.04 3.34 1.96 4.966 1.3a.337.337 0 00-.254-.625c-2.154.874-5.091-1.844-5.12-1.872-.025-.023-.06-.019-.088-.033-1.534-3.164-4.874-5.253-8.618-4.964a.337.337 0 10.051.672c3.942-.304 7.409 2.257 8.443 5.931-.08.115-.21.276-.407.417-.71.506-1.52.2-2.285-.254-.43-.96.102-1.538.13-1.568a.337.337 0 00-.473-.48c-.03.03-.574.589-.495 1.51-.469-.283-1.014-.486-2.111-.413a.337.337 0 10.044.673c1.49-.1 1.64.335 2.471.804 1.14.703 2.325 1.014 3.322.095.238 1.353.125 1.792.034 2.475a8.997 8.997 0 00-1.972.533 8.07 8.07 0 00-2.436 1.483c-.63-.502-.511-1.364-.504-1.408a.337.337 0 00-.665-.111c-.01.056-.188 1.233.67 1.985-.225.245-.436.5-.618.77a.337.337 0 10.56.376c.36-.538.8-.961 1.26-1.325-.104.935.365 1.693.393 1.736a.336.336 0 00.567-.364c-.027-.043-.627-1.029-.048-1.993a8.904 8.904 0 012.695-.98c-1.454 6.524-9.794 8.702-14.19 3.397.493-.183.943-.631 1.302-1.307a.338.338 0 10-.61-.29c-.345.642-.76 1-1.171 1.015-.56-.817-.842-1.507-1.098-2.441.063.02.126.037.192.037.625 0 1.131-.976 1.131-2.18 0-1.204-.506-2.18-1.131-2.18a.614.614 0 00-.2.038c.29-1.061.612-1.684 1.124-2.436C4.113 7.51 5.113 9.37 5.101 12a9.608 9.608 0 01-.252 2.18.337.337 0 00.655.159c.176-.727.267-1.513.271-2.336.006-1.342-.242-2.62-.699-3.599-.388-.832-.897-1.362-1.461-1.563A8.103 8.103 0 017.76 4.135a.337.337 0 00-.176-.65 8.785 8.785 0 00-4.84 3.381c-.012.013-.034.013-.045.028-.142.199-.25.414-.374.622-.16.27-.291.404-.648 1.33-.015.04-.035.077-.05.116-1.5 1.133-1.506 4.922-.008 6.069a8.817 8.817 0 008.274 5.79c3.49 0 6.503-2.04 7.933-4.988.03-.014.064-.011.089-.035.029-.027 2.962-2.748 5.12-1.871a.337.337 0 10.254-.625z" fill="#000"/>
  <path d="M13.296 12.082c.702-.496 1.52.298 1.556.333a.337.337 0 00.476-.477c-.428-.429-1.486-1.066-2.42-.406a.337.337 0 10.388.55zM13.392 6.645c1.115.078 1.714.775 1.74.807a.337.337 0 00.52-.429c-.031-.039-.797-.952-2.213-1.05a2.028 2.028 0 01-1.58-.935.337.337 0 10-.59.326c.027.048.67 1.18 2.123 1.28zM9.792 18.942a.337.337 0 00.315.357c.133.009.26.012.383.012 2.319 0 2.9-1.39 2.924-1.451a.339.339 0 00-.188-.44.336.336 0 00-.437.187c-.02.047-.516 1.15-2.64 1.02a.336.336 0 00-.357.315z" fill="#000"/>
</svg>
