<svg width="24" height="24" fill="none" xmlns="http://www.w3.org/2000/svg">
  <defs/>
  <path d="M12.027 21.04a6.98 6.98 0 100-13.958 6.98 6.98 0 000 13.959z" fill="#BAC6CC"/>
  <path d="M12.028 19.34a5.278 5.278 0 100-10.556 5.278 5.278 0 000 10.556z" fill="#CFDCE5"/>
  <path d="M12 6.684c-1.787 0-3.511.647-4.855 1.822a.398.398 0 10.525.6A6.575 6.575 0 0112 7.48a6.588 6.588 0 016.58 6.58A6.588 6.588 0 0112 20.642a6.588 6.588 0 01-6.581-6.58c0-1.374.418-2.69 1.21-3.805a.398.398 0 10-.65-.461 7.328 7.328 0 00-1.357 4.265c0 4.068 3.31 7.378 7.377 7.378 4.068 0 7.378-3.31 7.378-7.378 0-4.067-3.31-7.377-7.378-7.377zM12 5.68c.22 0 .398-.179.398-.399V2.96a.398.398 0 10-.796 0V5.28c0 .22.178.399.398.399zM9.343 5.684a.398.398 0 10.77-.207L9.734 4.07a.398.398 0 00-.77.206l.378 1.408zM7.265 6.657a.398.398 0 10.69-.399l-1.161-2.01a.398.398 0 00-.69.398l1.161 2.01zM5.51 8.135a.397.397 0 00.564 0 .398.398 0 000-.564l-.822-.821a.398.398 0 00-.563.563l.821.822zM21.813 19.267l-2.01-1.16a.398.398 0 10-.399.69l2.01 1.16a.397.397 0 00.545-.146.398.398 0 00-.146-.544zM2.187 8.855l2.01 1.161a.397.397 0 00.544-.146.398.398 0 00-.146-.544l-2.01-1.16a.398.398 0 10-.398.69zM22.003 16.33l-1.42-.381a.398.398 0 00-.206.77l1.42.38a.398.398 0 00.206-.77zM2.014 11.798l1.402.376a.397.397 0 00.488-.282.398.398 0 00-.282-.488l-1.402-.376a.398.398 0 00-.206.77zM23.102 13.663H20.78a.398.398 0 100 .797h2.322a.398.398 0 100-.797zM3.618 14.061a.398.398 0 00-.398-.398H.898a.398.398 0 100 .797H3.22c.22 0 .398-.179.398-.399zM21.805 11.022l-1.428.382a.398.398 0 00.206.77l1.429-.383a.398.398 0 00-.207-.77zM2.335 17.05a.396.396 0 00.103-.014l1.184-.318a.398.398 0 10-.206-.769l-1.184.317a.398.398 0 00.103.784zM19.259 9.87a.398.398 0 00.543.146l2.011-1.16a.398.398 0 00-.398-.69l-2.01 1.16a.398.398 0 00-.146.544zM4.197 18.106l-2.01 1.161a.398.398 0 10.398.69l2.01-1.16a.398.398 0 00-.398-.69zM17.927 8.135a.397.397 0 00.564 0l.889-.89a.398.398 0 10-.564-.563l-.889.89a.398.398 0 000 .563zM16.19 6.803a.397.397 0 00.544-.146l1.161-2.01a.398.398 0 00-.69-.4l-1.16 2.011a.398.398 0 00.145.545zM14.17 5.965a.398.398 0 00.487-.281l.361-1.349a.398.398 0 10-.77-.206l-.36 1.348c-.057.213.069.431.281.488z" fill="#000"/>
  <path d="M16.595 12.101a.398.398 0 100-.796.398.398 0 000 .796z" fill="#000"/>
</svg>
