<svg width="24" height="24" fill="none" xmlns="http://www.w3.org/2000/svg">
  <defs/>
  <path d="M9.874 2.47s-1.498-1.194-2.6 0c-1.382 1.5.294 3.145.294 3.145s.148-1.99 1.631-1.631" fill="#4D5961"/>
  <path d="M12.095 8.06c1.636 0 2.962-1.505 2.962-3.363s-1.326-3.364-2.963-3.364c-1.636 0-2.962 1.506-2.962 3.364 0 1.858 1.326 3.364 2.963 3.364z" fill="#F1D0A5"/>
  <path d="M12.095 8.061c-1.637 0-2.963-1.506-2.963-3.364 0-1.858 1.326-3.364 2.963-3.364-.785 0-1.421 1.506-1.421 3.364 0 1.858.636 3.364 1.42 3.364z" fill="#F1B986"/>
  <path d="M12.095 1.333c-1.193 0-2.22.8-2.69 1.953.02.015 1.798 1.41 5.652 1.41 0-1.857-1.326-3.363-2.962-3.363z" fill="#5E6B75"/>
  <path d="M12.095 1.333h-.004c-1.19.001-2.216.8-2.686 1.953.01.007.432.338 1.303.678.141-1.505.708-2.631 1.387-2.631z" fill="#4D5961"/>
  <path d="M20.103 8.06c1.637 0 2.963-1.505 2.963-3.363s-1.326-3.364-2.963-3.364c-1.636 0-2.962 1.506-2.962 3.364 0 1.858 1.326 3.364 2.962 3.364z" fill="#F1D0A5"/>
  <path d="M20.104 8.061c-1.637 0-2.963-1.506-2.963-3.364 0-1.858 1.326-3.364 2.963-3.364-.785 0-1.421 1.506-1.421 3.364 0 1.858.636 3.364 1.42 3.364z" fill="#F1B986"/>
  <path d="M20.104 1.333c-1.193 0-2.22.8-2.69 1.953.02.015 1.797 1.41 5.652 1.41 0-1.857-1.326-3.363-2.962-3.363z" fill="#F1D333"/>
  <path d="M20.103 1.333h-.004c-1.19.001-2.216.8-2.686 1.953.01.007.432.338 1.303.678.141-1.505.708-2.631 1.387-2.631z" fill="#DAB72B"/>
  <path d="M16.096 13.344c1.341 0 2.43-1.235 2.43-2.758s-1.088-2.758-2.43-2.758c-1.341 0-2.429 1.235-2.429 2.758s1.088 2.758 2.429 2.758z" fill="#F1D0A5"/>
  <path d="M16.096 13.344c-1.341 0-2.429-1.235-2.429-2.758s1.087-2.758 2.43-2.758c-.644 0-1.166 1.235-1.166 2.758s.522 2.758 1.165 2.758z" fill="#F1B986"/>
  <path d="M16.096 7.828c-.978 0-1.82.656-2.205 1.601.016.013 1.473 1.157 4.634 1.157 0-1.523-1.088-2.758-2.43-2.758z" fill="#E27D47"/>
  <path d="M16.096 7.828h-.003c-.977 0-1.818.656-2.202 1.6.008.007.354.279 1.068.557.116-1.234.58-2.157 1.137-2.157z" fill="#DD6938"/>
  <path d="M22.616 16.35l-5.864 4.704c-.482.386-1.1.562-1.714.487l-7.902-.961-2.106.779c-1.13-1.164-.666-4.907-.666-4.907l.502-.137a1.901 1.901 0 011.062-1.832l3.389-1.654 1.743-.852a1.657 1.657 0 011.578 2.909L9.82 16.574l4.74.826c.571.1 1.158-.02 1.644-.336l4.715-3.06a1.45 1.45 0 011.697 2.347z" fill="#F1D0A5"/>
  <path d="M15.025 20.278c-3.246.422-5.484-1.482-6.838-3.273a1.909 1.909 0 01.492-2.759c3.27-2.095 4.115-2.018 4.563-1.57a1.657 1.657 0 00-2.182-.698l-1.743.85L6.57 14.17l-.642.314a1.9 1.9 0 00-1.062 1.831l-.502.138s-.465 3.742.666 4.906l2.106-.78 7.902.963a2.295 2.295 0 001.714-.488l5.863-4.703c-2.026-.55-5.403 3.593-7.59 3.927z" fill="#F1B986"/>
  <path d="M3.663 15.981a6.83 6.83 0 00-2.822.998 55.326 55.326 0 002.01 5.688 6.832 6.832 0 002.822-.997 55.352 55.352 0 00-2.01-5.689z" fill="#80A6C6"/>
  <path d="M5.673 21.67a6.82 6.82 0 01-2.822.997 55.718 55.718 0 01-.582-1.46 7.261 7.261 0 002.944-1.03c.16.495.314.993.46 1.493z" fill="#5B8EB8"/>
  <path d="M10.934 5.037a.34.34 0 00-.341.34v.12a.34.34 0 10.682 0v-.12a.34.34 0 00-.341-.34zM13.256 5.037a.34.34 0 00-.341.34v.12a.34.34 0 10.682 0v-.12a.34.34 0 00-.341-.34zM20.103 8.402c1.822 0 3.304-1.662 3.304-3.705 0-.775-.21-1.516-.608-2.144a.34.34 0 00-.576.365c.27.425.434.915.485 1.434-2.728-.065-4.313-.856-4.863-1.188.457-.891 1.298-1.49 2.258-1.49.444 0 .882.13 1.268.377a.34.34 0 00.368-.574 3.033 3.033 0 00-1.636-.485c-1.821 0-3.303 1.662-3.303 3.705s1.482 3.705 3.303 3.705zm-2.506-4.59c.705.408 2.366 1.16 5.111 1.222-.145 1.509-1.258 2.686-2.604 2.686-1.446 0-2.622-1.356-2.622-3.023 0-.308.04-.605.115-.886z" fill="#000"/>
  <path d="M18.942 5.837a.34.34 0 00.34-.34v-.12a.34.34 0 10-.681 0v.12c0 .188.152.34.34.34zM21.264 5.837a.34.34 0 00.34-.34v-.12a.34.34 0 10-.681 0v.12c0 .188.153.34.34.34zM13.326 10.586c0 1.708 1.243 3.099 2.77 3.099s2.77-1.39 2.77-3.1c0-1.708-1.243-3.098-2.77-3.098s-2.77 1.39-2.77 3.099zm2.77 2.417c-1.151 0-2.088-1.084-2.088-2.417 0-.22.026-.431.073-.633.616.342 1.948.91 4.083.968-.142 1.175-1.015 2.082-2.068 2.082zm0-4.834c1.05 0 1.92.9 2.066 2.07-2.104-.063-3.357-.654-3.836-.933.37-.683 1.025-1.137 1.77-1.137z" fill="#000"/>
  <path d="M15.144 10.974a.34.34 0 00-.341.341v.025a.34.34 0 10.681 0v-.025a.34.34 0 00-.34-.34zM17.048 10.974a.34.34 0 00-.341.341v.025a.34.34 0 10.682 0v-.025a.34.34 0 00-.341-.34zM23.436 14.744a1.791 1.791 0 00-.312-.621 1.801 1.801 0 00-2.39-.406l-4.715 3.06c-.415.27-.912.372-1.4.287l-3.837-.668 2.03-1.218a1.993 1.993 0 00.73-2.665 1.988 1.988 0 00-2.632-.842l-2.54 1.24a.34.34 0 00.299.614l2.54-1.241a1.309 1.309 0 011.733.554 1.312 1.312 0 01-.48 1.756l-2.817 1.688a.34.34 0 00.117.628l4.74.826a2.63 2.63 0 001.888-.386l4.715-3.061a1.116 1.116 0 011.674.636 1.11 1.11 0 01-.367 1.152l-.01.007-5.863 4.704c-.408.327-.94.478-1.46.415l-7.902-.962a.34.34 0 00-.16.019l-1.272.47a56.05 56.05 0 00-1.38-3.922l.592-.164a.34.34 0 00.249-.351 1.559 1.559 0 01.872-1.503l1.367-.668a.341.341 0 00-.3-.612l-1.365.667a2.24 2.24 0 00-1.255 1.879l-.416.115a51.139 51.139 0 00-.131-.32.341.341 0 00-.357-.208 7.202 7.202 0 00-2.96 1.046.341.341 0 00-.147.386 55.92 55.92 0 002.022 5.723.34.34 0 00.356.208 7.2 7.2 0 002.961-1.047.34.34 0 00.147-.385l-.056-.19 1.233-.456 7.82.952a2.65 2.65 0 001.969-.56l5.852-4.695a1.792 1.792 0 00.618-1.88zm-20.37 7.549a55.261 55.261 0 01-1.823-5.158 6.51 6.51 0 012.206-.779 55.297 55.297 0 011.822 5.157 6.508 6.508 0 01-2.206.78z" fill="#000"/>
  <path d="M11.397 14.796c.139 0 .279-.033.41-.103l.422-.225a.341.341 0 00-.32-.602l-.423.226a.184.184 0 01-.238-.057c-.283-.424-.372-.856-.373-.862a.34.34 0 00-.67.13c.005.022.112.567.477 1.111a.859.859 0 00.715.382zM3.816 21.386a.344.344 0 00.332-.266c.07-.3-.282-.527-.53-.352a.343.343 0 00-.12.4c.05.13.178.218.318.218zM7.328 5.859a.34.34 0 00.58-.218c0-.01.078-.894.542-1.232a.662.662 0 01.362-.125 4.169 4.169 0 00-.021.413c0 2.043 1.482 3.705 3.303 3.705 1.822 0 3.304-1.662 3.304-3.705S13.916.992 12.095.992c-.884 0-1.688.392-2.281 1.028a3.172 3.172 0 00-.732-.325c-.803-.234-1.515-.046-2.059.544-.661.718-.812 1.58-.436 2.496.27.656.722 1.105.741 1.124zm4.766 1.86c-1.445 0-2.621-1.355-2.621-3.022 0-.308.04-.605.115-.886.705.41 2.366 1.162 5.112 1.223-.146 1.509-1.259 2.686-2.605 2.686zm0-6.045c1.345 0 2.456 1.173 2.605 2.678-2.728-.065-4.313-.856-4.863-1.188.457-.891 1.298-1.49 2.258-1.49zm-4.57 1.028c.636-.69 1.456-.374 1.872-.138a3.89 3.89 0 00-.458 1.038 1.368 1.368 0 00-.89.256c-.335.245-.536.625-.654.968a2.666 2.666 0 01-.183-.368c-.267-.663-.165-1.238.313-1.756z" fill="#000"/>
</svg>
