<svg width="24" height="24" fill="none" xmlns="http://www.w3.org/2000/svg">
  <defs/>
  <path d="M17.19 20.479l5.922-1.519-3.957-15.437-5.922 1.518 3.957 15.438z" fill="#4EBFED"/>
  <path d="M6.99 4.542H.878v15.936h6.114V4.542z" fill="#FF6F52"/>
  <path d="M6.99 20.477h6.114V4.541H6.99" fill="#FCD577"/>
  <g fill="#CFDCE5">
    <path d="M5.343 6.74H2.524v6.21h2.819V6.74zM16.916 12.777l2.73-.7-1.543-6.016-2.73.7 1.543 6.016zM11.457 6.74H8.639v6.21h2.818V6.74z"/>
  </g>
  <g fill="#415E72">
    <path d="M3.934 18.323a1.41 1.41 0 100-2.818 1.41 1.41 0 000 2.818zM19.266 17.676a1.41 1.41 0 100-2.818 1.41 1.41 0 000 2.818zM10.047 18.323a1.41 1.41 0 100-2.818 1.41 1.41 0 000 2.818z"/>
  </g>
  <path d="M5.348 6.356H2.53a.383.383 0 00-.383.383v3.991a.383.383 0 00.765 0V7.121h2.054v5.445H2.912v-.56a.383.383 0 00-.765 0v.943c0 .211.172.382.383.382h2.818a.383.383 0 00.383-.382v-6.21a.382.382 0 00-.383-.383z" fill="#000"/>
  <path d="M3.605 8.889h.669a.383.383 0 000-.765h-.669a.383.383 0 000 .765zM3.605 9.987h.669a.383.383 0 000-.765h-.669a.383.383 0 000 .765z" fill="#000"/>
  <path d="M23.488 18.864l-2.892-11.28a.383.383 0 00-.74.19l2.796 10.91-5.181 1.328-3.768-14.696 5.182-1.328.697 2.72a.382.382 0 10.741-.19l-.792-3.09a.382.382 0 00-.466-.276L13.493 4.58v-.039a.382.382 0 00-.383-.382H.883a.382.382 0 00-.383.382v15.936c0 .212.171.383.383.383H13.11a.382.382 0 00.383-.383V7.574l3.332 12.999a.382.382 0 00.465.275l5.922-1.518a.383.383 0 00.276-.466zM1.265 4.924h5.349v15.171H1.265V4.924zm11.463 15.171h-5.35V4.924h5.35v15.171z" fill="#000"/>
  <path d="M18.48 5.965a.382.382 0 00-.465-.275l-2.73.7a.382.382 0 00-.276.465l1.542 6.015a.383.383 0 00.466.276l2.73-.7a.383.383 0 00.275-.466L18.48 5.965zm-1.283 6.345l-1.352-5.274 1.99-.51 1.351 5.274-1.989.51z" fill="#000"/>
  <path d="M17.413 7.669l-.648.166a.382.382 0 10.19.74l.648-.165a.383.383 0 10-.19-.741zM17.685 8.733l-.647.166a.382.382 0 10.19.741l.647-.166a.382.382 0 10-.19-.741zM8.644 13.331h2.819a.382.382 0 00.382-.382v-6.21a.382.382 0 00-.382-.383H8.644a.383.383 0 00-.382.383v6.21c0 .211.171.382.382.382zm.383-6.21h2.053v5.445H9.027V7.121z" fill="#000"/>
  <path d="M10.387 8.124h-.669a.383.383 0 000 .765h.67a.383.383 0 000-.765zM10.387 9.223h-.669a.383.383 0 000 .765h.67a.383.383 0 000-.765zM3.94 15.122c-.989 0-1.793.804-1.793 1.791 0 .988.804 1.792 1.792 1.792s1.792-.804 1.792-1.791c0-.988-.804-1.792-1.792-1.792zm0 2.818a1.028 1.028 0 010-2.053 1.028 1.028 0 010 2.053zM18.826 14.53a1.78 1.78 0 00-1.097.824 1.795 1.795 0 001.987 2.648 1.794 1.794 0 00.467-3.278 1.78 1.78 0 00-1.357-.193zm.968.853a1.028 1.028 0 01-.268 1.878 1.028 1.028 0 01-1.139-1.518 1.02 1.02 0 01.886-.504c.181 0 .36.049.52.144zM11.463 16.531a.382.382 0 00-.383.383 1.028 1.028 0 01-2.053 0 1.028 1.028 0 011.752-.726.383.383 0 00.541-.541 1.794 1.794 0 00-3.059 1.267c0 .987.804 1.791 1.792 1.791s1.792-.804 1.792-1.791a.382.382 0 00-.382-.383z" fill="#000"/>
</svg>
