<svg width="24" height="24" fill="none" xmlns="http://www.w3.org/2000/svg">
  <defs/>
  <path d="M16.25 21.59a.772.772 0 01-.67.862l-4.373.55a.772.772 0 01-.862-.67L7.844 2.424a.772.772 0 01.67-.862l4.373-.55a.772.772 0 01.862.67L16.25 21.59z" fill="#BED8E4"/>
  <path d="M16.25 21.59l-1.098-8.743c.054.261-5.904.748-5.886.89l1.08 8.595a.772.772 0 00.862.67l4.373-.55a.772.772 0 00.67-.862z" fill="#707682"/>
  <path d="M7.198 22.288a.772.772 0 01-.771.772H2.019a.772.772 0 01-.772-.772V2.223c0-.426.346-.771.772-.771h4.408c.426 0 .771.345.771.771v20.065z" fill="#6BE8C7"/>
  <path d="M22.65 22.288a.772.772 0 01-.771.772H17.47a.772.772 0 01-.772-.772V2.223c0-.426.346-.771.772-.771h4.408c.426 0 .771.345.771.771v20.065z" fill="#FFC5E5"/>
  <g fill="#FFEFCA">
    <path d="M1.246 5.382v4.716l5.97-.02V5.363l-5.97.019zM7.203 19.062v-4.715l-5.957-.006v4.716l5.957.005z"/>
  </g>
  <path d="M13.025 21.24a1.356 1.356 0 100-2.71 1.356 1.356 0 000 2.71z" fill="#BED8E4"/>
  <path d="M20.29 16.915h-1.294a.352.352 0 01-.352-.352V3.445c0-.194.157-.352.352-.352h1.294c.195 0 .352.158.352.352v13.118a.352.352 0 01-.352.352z" fill="#FF97CB"/>
  <path d="M12.96 18.692a1.356 1.356 0 00-1.32 1.67 1.517 1.517 0 002.638 0 1.356 1.356 0 00-1.319-1.671z" fill="#EBF9FE"/>
  <g fill="#3CD3A8">
    <path d="M1.376 18.699v.354s5.94.019 5.94 0v-.354s-5.946.005-5.94 0zM1.376 9.736v.354s5.94.02 5.94 0v-.354s-5.946.006-5.94 0z"/>
  </g>
  <path d="M20.703 20.683h-2.12a.366.366 0 110-.731h2.12a.366.366 0 110 .731z" fill="#000"/>
  <path d="M22.732 17.404a.366.366 0 00.366-.365V2.057c0-.632-.514-1.146-1.146-1.146h-4.455c-.632 0-1.146.514-1.146 1.146v17.115L14.986 8.104a.365.365 0 10-.726.09l.531 4.302-1.131.182c-.035-.323-.18-1.375-.766-5.676L12.12 1.34l.864-.106a.412.412 0 01.462.36l.593 4.808a.365.365 0 10.725-.09l-.593-4.807a1.138 1.138 0 00-.432-.763 1.138 1.138 0 00-.845-.234l-4.422.545a1.138 1.138 0 00-.89.638 1.148 1.148 0 00-1.08-.764H2.047c-.632 0-1.146.514-1.146 1.145v20.281c0 .632.514 1.146 1.146 1.146h4.455c.632 0 1.146-.514 1.146-1.146v-1.112a.366.366 0 10-.731 0v1.112a.415.415 0 01-.415.415H2.047a.415.415 0 01-.414-.415v-2.969h5.284v.215a.366.366 0 00.731 0V3.724L9.96 22.46a1.147 1.147 0 001.277.997l4.422-.546a1.14 1.14 0 00.711-.372c.096.536.565.944 1.128.944h4.455c.632 0 1.146-.514 1.146-1.145V19.31a.366.366 0 10-.731 0v3.028a.415.415 0 01-.415.414h-4.455a.415.415 0 01-.414-.414V2.057c0-.229.186-.415.414-.415h4.455c.229 0 .415.186.415.415v14.982c0 .202.163.365.365.365zM6.917 9.641H1.633V5.774h5.284V9.64zm-5.284.731h5.284v3.684H1.633v-3.684zm.414-8.713h4.455c.229 0 .415.186.415.414v2.97H1.633v-2.97c0-.228.186-.414.414-.414zm-.414 16.995v-3.867h5.284v3.867H1.633zM12.169 7.1c.64 4.693.75 5.499.768 5.694l-1.363.219-.139-1.056c-.185-1.4-.567-4.288-1.355-10.365l1.316-.162.773 5.67zM8.287 1.936a.412.412 0 01.276-.156l.791-.098c.789 6.082 1.17 8.971 1.356 10.372l.141 1.076-1.28.206L8.201 2.242a.411.411 0 01.085-.306zm7.282 20.25l-4.422.545a.415.415 0 01-.462-.36L9.66 14.061l5.22-.84 1.05 8.502a.415.415 0 01-.361.462z" fill="#000"/>
  <path d="M12.96 18.245c-.95 0-1.722.772-1.722 1.721 0 .95.773 1.722 1.722 1.722.95 0 1.721-.772 1.721-1.722 0-.949-.772-1.721-1.721-1.721zm0 2.711a.991.991 0 010-1.98.991.991 0 010 1.98zM18.725 2.71a.366.366 0 00-.366.367v13.822c0 .202.164.366.366.366h1.999a.366.366 0 00.366-.366V3.076a.366.366 0 00-.366-.365h-1.999zm1.633 13.823h-1.267V3.443h1.267v13.09zM5.355 16.355H3.194a.366.366 0 100 .731h2.161a.366.366 0 100-.731zM3.194 8.073h2.161a.366.366 0 100-.731H3.194a.366.366 0 100 .731z" fill="#000"/>
</svg>
