<svg width="24" height="24" fill="none" xmlns="http://www.w3.org/2000/svg">
  <defs/>
  <g fill="#6BE8C7">
    <path d="M14.836 21.719a.748.748 0 01-.747.748H9.818a.748.748 0 01-.748-.748V2.279c0-.413.335-.748.748-.748h4.27c.414 0 .748.335.748.748v19.44zM17.33 21.745c0 .412.335.747.748.747h4.27a.748.748 0 00.748-.747V2.305a.748.748 0 00-.748-.748h-4.27a.748.748 0 00-.748.747v19.44zM6.586 21.719a.748.748 0 01-.747.748H1.568a.748.748 0 01-.748-.748V2.279c0-.413.335-.748.748-.748h4.27c.414 0 .748.335.748.748v19.44z"/>
  </g>
  <g fill="#3CD3A8">
    <path d="M2.638 18.145V4.944c0-.113.089-.197.202-.2.287-.01.807-.01 1.092 0a.216.216 0 01.201.217v11.718l-1.495 1.466zM20.694 18.145V4.944c0-.113.09-.197.202-.2.287-.01.807-.01 1.092 0a.216.216 0 01.202.217v12.524l-1.496.66zM10.809 18.145V4.944c0-.113.089-.197.202-.2.287-.01.806-.01 1.092 0a.216.216 0 01.2.217v12.524l-1.494.66zM5.393 15.585a.354.354 0 01-.354-.354V3.42a.354.354 0 11.709-.001v11.81a.354.354 0 01-.355.355zM19.105 15.585a.354.354 0 01-.354-.354V3.42a.354.354 0 11.708-.001v11.81a.354.354 0 01-.354.355zM13.684 17a.354.354 0 01-.354-.354V4.836a.354.354 0 11.709 0v11.81a.354.354 0 01-.355.354z"/>
  </g>
  <path d="M2.115 18.145V4.943c0-.113.09-.196.202-.2.287-.01.807-.01 1.092 0a.216.216 0 01.202.217v11.719l-1.496 1.466z" fill="#fff"/>
  <path d="M6.587 21.72l.015-10.313-5.78 7.1v3.213c0 .413.334.748.747.748h4.27a.748.748 0 00.748-.748z" fill="#FFDFA1"/>
  <path d="M21.755 18.17V4.97a.202.202 0 00-.202-.2c-.287-.01-.807-.01-1.092 0a.216.216 0 00-.201.217v11.718l1.495 1.466z" fill="#fff"/>
  <path d="M23.096 21.746v-3.69l-5.766-6.734v10.424c0 .413.335.747.748.747h4.27a.748.748 0 00.748-.747z" fill="#FFDFA1"/>
  <path d="M10.365 18.145V4.943c0-.113.09-.196.202-.2.287-.01.807-.01 1.092 0a.216.216 0 01.201.217v11.719l-1.495 1.466z" fill="#fff"/>
  <path d="M14.837 21.72l.014-10.357-5.78-.002V21.72c0 .413.335.748.748.748h4.27a.748.748 0 00.748-.748z" fill="#FFDFA1"/>
  <path d="M5.886 22.822c.608 0 1.102-.494 1.102-1.102v-1.066a.354.354 0 10-.708 0v1.066a.394.394 0 01-.394.393h-4.27a.394.394 0 01-.394-.393v-3.088L6.28 12.41v6.67a.354.354 0 10.708 0V2.28c0-.608-.494-1.102-1.102-1.102h-4.27c-.608 0-1.102.494-1.102 1.102v16.145a.355.355 0 000 .196v3.099c0 .608.494 1.102 1.102 1.102h4.27zM3.32 14.929l-.803.988V5.086h.06c.227 0 .51.007.726.014v9.722c0 .037.006.073.017.107zM1.616 1.886h4.27c.217 0 .394.177.394.394v9.051a.352.352 0 00-.109.09l-.694.854V3.42a.354.354 0 10-.709 0v9.728l-.756.93V4.759c0-.19-.15-.346-.339-.354-.026-.001-.65-.028-1.095-.028-.396 0-.546.011-.666.132a.354.354 0 00-.104.25v11.932c0 .03.004.057.01.084l-.596.734V2.279c0-.216.177-.393.394-.393zM14.142 1.178h-4.27c-.608 0-1.102.494-1.102 1.102v19.44c0 .608.494 1.102 1.101 1.102h4.271c.608 0 1.102-.494 1.102-1.102v-1.066a.354.354 0 00-.708 0v1.066a.394.394 0 01-.394.393h-4.27a.394.394 0 01-.394-.393v-9.91l5.058-.029v7.298a.354.354 0 10.708 0V2.28c0-.608-.494-1.102-1.102-1.102zm-2.49 9.911l-.786.005V5.086h.06c.228 0 .51.007.726.014v5.99zm2.08-.012V4.79a.354.354 0 10-.708 0v6.292l-.663.003V4.76c0-.19-.15-.346-.339-.354-.026 0-.65-.028-1.095-.028-.396 0-.545.011-.666.132a.354.354 0 00-.104.25v6.34l-.679.003V2.28c0-.217.177-.393.394-.393h4.27c.217 0 .394.176.394.393v8.793l-.804.004zM22.398 1.178h-4.27c-.608 0-1.103.494-1.103 1.102v19.44c0 .608.495 1.102 1.102 1.102h4.271c.608 0 1.102-.494 1.102-1.102v-1.066a.354.354 0 10-.709 0v1.066a.394.394 0 01-.393.393h-4.27a.394.394 0 01-.394-.393v-9.33l5.057 6.45v.24a.354.354 0 10.709 0V2.28c0-.608-.494-1.102-1.102-1.102zm-.994 14.745l-.787-1.005V5.114h.787v10.81zm.674.859a.352.352 0 00.035-.153V4.759a.354.354 0 00-.355-.354h-1.495a.354.354 0 00-.355.354v9.256l-.74-.943V3.42a.354.354 0 00-.708 0v8.748l-.726-.926V2.28c0-.217.176-.393.393-.393h4.271c.217 0 .393.176.393.393v15.412l-.713-.91z" fill="#000"/>
</svg>
