<svg width="24" height="24" fill="none" xmlns="http://www.w3.org/2000/svg">
  <defs/>
  <path d="M22.893 6.046H12.52v13.396h7.408a.27.27 0 00.269-.25 2.977 2.977 0 012.716-2.716.27.27 0 00.25-.27v-9.89a.27.27 0 00-.27-.27zm-7.442 11.907h-.95a.27.27 0 01-.269-.269v-.95c0-.148.121-.269.27-.269h.95c.148 0 .269.12.269.27v.949a.27.27 0 01-.27.27zm0-8.93h-.95a.27.27 0 01-.269-.27v-.949c0-.149.121-.27.27-.27h.95c.148 0 .269.121.269.27v.95a.27.27 0 01-.27.27zm2.977 8.93h-.95a.27.27 0 01-.269-.269v-.95c0-.148.12-.269.27-.269h.95c.148 0 .269.12.269.27v.949a.27.27 0 01-.27.27zm0-8.93h-.95a.27.27 0 01-.269-.27v-.949c0-.149.12-.27.27-.27h.95c.148 0 .269.121.269.27v.95a.27.27 0 01-.27.27zm2.977 0h-.95a.27.27 0 01-.269-.27v-.949c0-.149.12-.27.27-.27h.949c.149 0 .27.121.27.27v.95a.27.27 0 01-.27.27z" fill="#898989"/>
  <path d="M9.023 2.55H5.302V1.106c0-.148.12-.27.27-.27h3.181c.15 0 .27.122.27.27V2.55z" fill="#FED330"/>
  <path d="M8.754.837h-.988c.148 0 .27.12.27.27V2.55h.987V1.106a.27.27 0 00-.27-.27z" fill="#FD9E28"/>
  <path d="M1.581 3.997h11.163v17.494H1.581V3.997z" fill="#FED330"/>
  <path d="M11.756 3.997h.988v17.494h-.988V3.997z" fill="#FD9E28"/>
  <path d="M5.032 17.21H3.34a.27.27 0 00-.27.269v1.693c0 .15.121.27.27.27h1.693a.27.27 0 00.27-.27V17.48a.27.27 0 00-.27-.27z" fill="#EDE9E8"/>
  <path d="M22.893 6.046h-.988c.149 0 .27.121.27.27v9.89a.27.27 0 01-.25.27 2.977 2.977 0 00-2.717 2.716.27.27 0 01-.268.25h-6.42 7.408a.27.27 0 00.269-.25 2.977 2.977 0 012.716-2.716.27.27 0 00.25-.27v-9.89a.27.27 0 00-.27-.27z" fill="#727575"/>
  <path d="M13.488 3.814a.744.744 0 01-.744.744H1.581a.744.744 0 01-.744-.744V3.07c0-.411.333-.745.744-.745h11.163c.411 0 .744.334.744.745v.744z" fill="#898989"/>
  <path d="M12.744 2.325h-.994c.411 0 .744.334.744.745v.744a.744.744 0 01-.744.744h.994a.744.744 0 00.744-.744V3.07a.744.744 0 00-.744-.745z" fill="#727575"/>
  <path d="M13.488 22.419c0 .41-.333.744-.744.744H1.581a.744.744 0 01-.744-.744v-.745c0-.41.333-.744.744-.744h11.163c.411 0 .744.334.744.744v.745z" fill="#898989"/>
  <path d="M12.744 20.93h-.994c.411 0 .744.334.744.744v.745c0 .41-.333.744-.744.744h.994a.744.744 0 00.744-.744v-.745a.744.744 0 00-.744-.744z" fill="#727575"/>
  <path d="M5.032 17.21h-.988c.149 0 .27.12.27.269v1.693a.27.27 0 01-.27.27h.988a.27.27 0 00.27-.27V17.48a.27.27 0 00-.27-.27z" fill="#DFD7D5"/>
  <path d="M5.302 16.872H3.069a.337.337 0 00-.337.337v2.233c0 .186.151.337.337.337h2.233c.186 0 .337-.151.337-.337v-2.233a.337.337 0 00-.337-.337zm-.337 2.233H3.406v-1.559h1.559v1.559zM3.07 6.383h1.488a.337.337 0 100-.674H3.069a.337.337 0 100 .674zM6.046 7.198H3.07a.337.337 0 000 .674h2.977a.337.337 0 000-.674z" fill="#000"/>
  <path d="M23.401 5.808a.337.337 0 00-.238-.099H13.08v-.868c.432-.142.745-.549.745-1.027V3.07c0-.597-.486-1.082-1.082-1.082H9.36V.837A.337.337 0 009.023.5h-3.72a.337.337 0 00-.338.337v1.151H1.581C.985 1.988.5 2.473.5 3.07v.744c0 .478.313.885.744 1.027v15.806A1.083 1.083 0 00.5 21.675v.745c0 .596.485 1.081 1.081 1.081h11.163c.596 0 1.081-.485 1.081-1.081v-.745c0-.478-.312-.885-.744-1.026v-.87h7.105c.186 0 .337-.15.337-.336a2.643 2.643 0 012.64-2.64c.186 0 .337-.15.337-.337V6.046a.337.337 0 00-.099-.238zM5.64 1.174h3.047v.814H5.64v-.814zM1.174 3.07c0-.225.183-.408.407-.408h11.163c.225 0 .408.183.408.408v.744a.408.408 0 01-.408.407H1.581a.408.408 0 01-.407-.407V3.07zM13.15 22.419a.408.408 0 01-.407.407H1.581a.408.408 0 01-.407-.407v-.745c0-.224.182-.406.406-.407H9.308a.337.337 0 000-.673h-7.39V4.895h10.49V20.594h-1.753a.337.337 0 100 .673h2.09c.224 0 .407.183.407.407v.745zm9.675-6.274a3.32 3.32 0 00-2.96 2.96h-6.785V6.383h9.745v9.762z" fill="#000"/>
  <path d="M20.186 9.36h1.49c.185 0 .336-.15.336-.337V7.535a.337.337 0 00-.337-.337h-1.489a.337.337 0 00-.336.337v1.488c0 .186.15.337.336.337zm.337-1.488h.815v.814h-.815v-.814zM17.209 9.36h1.488c.187 0 .337-.15.337-.337V7.535a.337.337 0 00-.337-.337H17.21a.337.337 0 00-.337.337v1.488c0 .186.15.337.337.337zm.337-1.488h.814v.814h-.814v-.814zM14.232 9.36h1.489c.186 0 .337-.15.337-.337V7.535a.337.337 0 00-.337-.337h-1.489a.337.337 0 00-.336.337v1.488c0 .186.15.337.336.337zm.337-1.488h.815v.814h-.815v-.814zM17.209 18.29h1.488c.187 0 .337-.15.337-.337v-1.488a.337.337 0 00-.337-.337H17.21a.337.337 0 00-.337.337v1.488c0 .187.15.337.337.337zm.337-1.488h.814v.815h-.814v-.815zM14.232 18.29h1.489c.186 0 .337-.15.337-.337v-1.488a.337.337 0 00-.337-.337h-1.489a.337.337 0 00-.336.337v1.488c0 .187.15.337.336.337zm.337-1.488h.815v.815h-.815v-.815z" fill="#000"/>
</svg>
