<svg width="24" height="24" fill="none" xmlns="http://www.w3.org/2000/svg">
  <defs/>
  <path d="M19.895 9.5l-.05.048v12.853H4.143V9.548L4.094 9.5l7.9-7.9 7.9 7.9z" fill="#FCD577"/>
  <path d="M4.142 11.509l7.852-7.851 7.852 7.85v-1.96l.049-.048-7.9-7.9-7.901 7.9.048.048v1.96z" fill="#EAC36E"/>
  <path d="M19.036 8.642V2.296h-3.65v2.695" fill="#FF6F52"/>
  <path d="M11.288 12.914H5.925V22.4h5.363v-9.486z" fill="#CFDCE5"/>
  <path d="M18.343 12.914h-5.364v5.363h5.364v-5.363z" fill="#4EBFED"/>
  <path d="M13.735 6.506h-3.482v3.482h3.482V6.506z" fill="#415E72"/>
  <path d="M23.384 12.425l-7.597-7.598V2.692h2.859v4.293a.396.396 0 00.791 0V2.296a.396.396 0 00-.395-.395h-3.65a.396.396 0 00-.396.395v1.74L12.28 1.32a.396.396 0 00-.56 0L8.425 4.615a.396.396 0 10.56.56L12 2.16l3.11 3.11.003.003 4.343 4.343v12.388H11.69v-9.09a.396.396 0 00-.396-.396H5.931a.396.396 0 00-.396.396v9.09h-.991V9.616L8 6.159a.396.396 0 10-.56-.56L.616 12.426a.396.396 0 10.56.56l2.576-2.578V22.4c0 .218.178.396.396.396h15.704a.396.396 0 00.395-.396V10.407l2.578 2.577a.395.395 0 00.559 0 .395.395 0 000-.56zm-17.058 9.58V13.31h4.572v8.694H6.326z" fill="#000"/>
  <path d="M12.59 12.914v5.363c0 .218.177.395.396.395h5.363a.396.396 0 00.395-.395v-5.363a.396.396 0 00-.395-.396h-5.364a.396.396 0 00-.395.396zm.791 3.077h1.89v1.89h-1.89v-1.89zm2.682 1.89v-1.89h1.89v1.89h-1.89zm1.89-2.681h-1.89v-1.89h1.89v1.89zm-2.682-1.89v1.89h-1.89v-1.89h1.89zM13.74 6.11H10.26a.396.396 0 00-.396.396v3.482c0 .219.178.396.396.396h3.482a.396.396 0 00.396-.396V6.506a.396.396 0 00-.396-.395zm-.395 3.483h-2.69v-2.69h2.69v2.69zM9.907 18.033a.396.396 0 100-.791.396.396 0 000 .791z" fill="#000"/>
</svg>
