<svg width="24" height="24" fill="none" xmlns="http://www.w3.org/2000/svg">
  <defs/>
  <path d="M14.443 15.573c-.203 0-.4-.005-.59-.015-.848-.044-1.569-.187-2.181-.409-2.311-.839-3.074-2.822-3.308-5.033-.117-1.108-.002-2.393.685-3.642 0 0 .411 2.09 1.724 2.829 0 0-1.016-4.8 2.335-7.888 0 0-.009 2.104 1.667 4.374 1.46 1.976 2.03 3.448 1.073 5.779 0 0 1.5-1.1 2.731-4.005 0 0 2.398 7.522-4.136 8.01z" fill="#DA4A54"/>
  <path d="M13.854 15.558c-.849-.044-1.57-.187-2.182-.409l-.095-1.141c1.057-.373 1.904-4.908 1.904-4.908.362 1.388 2.052 4.57.373 6.458z" fill="#F1D333"/>
  <path d="M22.616 16.268l-5.864 4.703c-.482.387-1.1.563-1.714.488l-7.902-.962-2.106.78c-1.13-1.164-.666-4.907-.666-4.907l.502-.137a1.902 1.902 0 011.062-1.832l3.39-1.655 1.742-.85a1.656 1.656 0 011.578 2.909L9.82 16.491l4.74.826c.571.1 1.158-.02 1.644-.337l4.715-3.06a1.45 1.45 0 011.697 2.347z" fill="#F1D0A5"/>
  <path d="M15.025 20.196c-3.246.422-5.484-1.482-6.838-3.273a1.909 1.909 0 01.492-2.76c3.27-2.095 4.115-2.018 4.563-1.57a1.656 1.656 0 00-2.182-.698l-1.743.851-2.747 1.342-.642.313a1.9 1.9 0 00-1.062 1.832l-.502.137s-.465 3.743.666 4.906l2.106-.778 7.902.961a2.295 2.295 0 001.714-.487l5.863-4.704c-2.026-.55-5.403 3.594-7.59 3.928z" fill="#F1B986"/>
  <path d="M3.663 15.9a6.832 6.832 0 00-2.822.996 55.32 55.32 0 002.01 5.69 6.829 6.829 0 002.822-.998 55.316 55.316 0 00-2.01-5.689z" fill="#80A6C6"/>
  <path d="M5.673 21.588a6.822 6.822 0 01-2.822.997 55.718 55.718 0 01-.582-1.46 7.26 7.26 0 002.944-1.03c.16.495.314.993.46 1.493z" fill="#5B8EB8"/>
  <path d="M23.436 14.662a1.79 1.79 0 00-2.703-1.027l-4.714 3.06a1.95 1.95 0 01-1.4.287l-3.837-.668 1.185-.711c.72.207 1.553.311 2.477.311a.36.36 0 00.025 0c1.83-.137 3.171-.82 3.987-2.027.7-1.037.998-2.48.862-4.176-.1-1.26-.4-2.212-.413-2.252a.34.34 0 00-.639-.03c-.564 1.333-1.189 2.274-1.686 2.895.228-1.257-.03-2.386-.796-3.655a.34.34 0 00-.584.352c.919 1.523 1.012 2.762.333 4.417a.341.341 0 00.516.405c.058-.042 1.277-.954 2.43-3.248.064.336.126.742.16 1.186.084 1.07.022 2.584-.75 3.726-.68 1.006-1.818 1.584-3.383 1.719.909-1.638.143-3.79-.383-5.267-.132-.372-.247-.693-.312-.945a.34.34 0 00-.665.024c-.003.014-.24 1.27-.61 2.492a1.988 1.988 0 00-1.626.059l-1.66.81c-.27-.64-.45-1.402-.546-2.319-.1-.94-.005-1.82.281-2.63.27.716.77 1.671 1.62 2.15a.34.34 0 00.502-.367c-.003-.012-.243-1.183-.081-2.702.185-1.743.795-3.206 1.816-4.359.136.833.52 2.248 1.606 3.746a.341.341 0 00.552-.4c-1.533-2.116-1.55-4.083-1.55-4.102a.341.341 0 00-.572-.252c-1.433 1.32-2.308 3.16-2.533 5.318-.082.787-.064 1.48-.024 1.99-.684-.828-.934-2.048-.937-2.063a.34.34 0 00-.633-.099c-.63 1.145-.874 2.438-.725 3.842.105 1 .306 1.837.61 2.548L5.78 14.095a2.24 2.24 0 00-1.255 1.879l-.416.115a53.786 53.786 0 00-.131-.32.341.341 0 00-.357-.208 7.2 7.2 0 00-2.96 1.046.34.34 0 00-.147.385 55.934 55.934 0 002.022 5.724.341.341 0 00.356.208 7.2 7.2 0 002.961-1.047.341.341 0 00.147-.385l-.056-.19 1.233-.456 1.114.135a.34.34 0 10.082-.677l-1.196-.145a.34.34 0 00-.16.019l-1.272.47a56.063 56.063 0 00-1.38-3.923l.592-.164a.341.341 0 00.249-.35 1.56 1.56 0 01.872-1.503l5.131-2.506a1.313 1.313 0 011.733.554 1.312 1.312 0 01-.48 1.755l-2.817 1.69a.34.34 0 00.117.627l4.74.826a2.632 2.632 0 001.888-.387l4.715-3.06a1.116 1.116 0 011.674.636 1.11 1.11 0 01-.377 1.16l-5.863 4.703c-.408.327-.94.478-1.46.415l-5.354-.652a.341.341 0 00-.082.677l5.354.651a2.65 2.65 0 001.969-.56l5.852-4.694.011-.009a1.792 1.792 0 00.607-1.872zm-20.37 7.549a55.29 55.29 0 01-1.823-5.158 6.51 6.51 0 012.206-.78 55.29 55.29 0 011.822 5.158 6.508 6.508 0 01-2.206.78zm10.476-9.78a2.01 2.01 0 00-.41-.524c.167-.527.308-1.065.419-1.523.513 1.45 1.176 3.5.152 4.823a8.427 8.427 0 01-.893-.109l.003-.002a1.993 1.993 0 00.728-2.665z" fill="#000"/>
  <path d="M11.397 14.714c.139 0 .28-.033.41-.103l.422-.225a.34.34 0 10-.32-.602l-.423.226a.184.184 0 01-.238-.057 2.686 2.686 0 01-.373-.862.34.34 0 00-.67.129c.005.023.112.568.477 1.112a.859.859 0 00.715.382zM3.816 21.304a.344.344 0 00.332-.266c.07-.3-.282-.528-.53-.352a.344.344 0 00-.12.4c.05.13.178.218.318.218z" fill="#000"/>
</svg>
