<svg width="24" height="24" fill="none" xmlns="http://www.w3.org/2000/svg">
  <defs/>
  <g fill="#EAC36E">
    <path d="M5.829 10.998l-3.785 1.316v8.564h3.785v-9.88zM18.183 10.998l3.784 1.316v8.564h-3.784v-9.88z"/>
  </g>
  <path d="M18.182 6.696v14.182H5.828V6.652l6.139-3.559 6.215 3.603z" fill="#FCD577"/>
  <g fill="#4EBFED">
    <path d="M3.606 14.89H2.044v3.335h1.562v-3.334zM21.967 14.89h-1.562v3.336h1.562V14.89z"/>
  </g>
  <path d="M13.635 14.89h-3.259v5.988h3.259V14.89z" fill="#EAC36E"/>
  <g fill="#4EBFED">
    <path d="M8.917 14.89H7.325v3.335h1.592V14.89zM16.685 14.89h-1.591v3.335h1.591V14.89zM8.917 9.319H7.325v3.334h1.592V9.32zM12.8 9.319H11.21v3.334H12.8V9.32zM16.685 9.319h-1.591v3.334h1.591V9.32zM11.967 7.513a1.137 1.137 0 100-2.273 1.137 1.137 0 000 2.273z"/>
  </g>
  <path d="M8.912 14.526H7.32c-.209 0-.379.17-.379.38v3.334c0 .21.17.379.38.379h1.59c.21 0 .38-.17.38-.38v-3.334c0-.21-.17-.379-.38-.379zm-.38 3.335H7.7v-2.577h.834v2.577zM16.68 14.526h-1.592c-.21 0-.379.17-.379.38v3.334c0 .21.17.379.379.379h1.592c.209 0 .378-.17.378-.38v-3.334c0-.21-.17-.379-.378-.379zm-.38 3.335h-.833v-2.577h.834v2.577zM9.29 9.334c0-.21-.169-.38-.378-.38H7.32c-.209 0-.379.17-.379.38v3.335c0 .209.17.378.38.378h1.59c.21 0 .38-.17.38-.379V9.335zm-.757 2.956h-.834V9.713h.834v2.577zM11.204 8.955c-.21 0-.379.17-.379.379v3.335c0 .209.17.378.38.378h1.59c.21 0 .38-.17.38-.379V9.335c0-.21-.17-.38-.38-.38h-1.59zm1.213 3.335h-.834V9.713h.834v2.577zM17.058 9.334c0-.21-.17-.38-.378-.38h-1.592c-.21 0-.379.17-.379.38v3.335c0 .209.17.378.379.378h1.592c.209 0 .378-.17.378-.379V9.335zm-.757 2.956h-.834V9.713h.834v2.577z" fill="#000"/>
  <path d="M23.245 12.373l-4.69-1.63V7.368l1.148.665a.377.377 0 00.518-.138.379.379 0 00-.137-.517L16.09 5.063a.38.38 0 00-.38.656l2.087 1.21v13.584h-3.79v-3.208a.379.379 0 00-.757 0v3.208h-2.502v-5.229h2.502v.758a.379.379 0 00.758 0v-1.137c0-.21-.17-.379-.38-.379h-3.258c-.21 0-.38.17-.38.38v5.607H6.203V16.32a.379.379 0 10-.758 0v4.193H2.417V18.62H3.6c.21 0 .38-.17.38-.38v-3.334c0-.21-.17-.379-.38-.379H2.417v-1.928l3.027-1.052v3.41a.379.379 0 10.758 0V6.884l5.76-3.339 2.602 1.51a.379.379 0 10.38-.657L12.152 2.78a.379.379 0 00-.38 0L3.84 7.378a.379.379 0 10.38.655l1.223-.709v3.42l-4.69 1.63a.379.379 0 00.25.715l.656-.228v8.031c0 .21.17.38.378.38h19.924c.209 0 .378-.17.378-.38v-8.03l.657.227a.376.376 0 00.482-.233.379.379 0 00-.234-.482zM3.221 15.284v2.577h-.804v-2.577h.804zm18.362 2.577h-.804v-2.577h.804v2.577zm0-3.335H20.4c-.21 0-.38.17-.38.38v3.334c0 .21.17.379.38.379h1.183v1.894h-3.027v-8.967l3.027 1.052v1.928z" fill="#000"/>
  <path d="M11.962 4.876c-.836 0-1.516.68-1.516 1.516 0 .835.68 1.515 1.516 1.515s1.516-.68 1.516-1.515c0-.836-.68-1.516-1.516-1.516zm0 2.274a.759.759 0 11.002-1.518.759.759 0 01-.002 1.518zM11.355 18.278a.379.379 0 100-.758.379.379 0 000 .758z" fill="#000"/>
</svg>
