<svg width="24" height="24" fill="none" xmlns="http://www.w3.org/2000/svg">
  <defs/>
  <path d="M6.874 2.527l1.204.097a.136.136 0 00.135-.08l.493-1.102a.136.136 0 01.257.024l.28 1.175c.013.056.06.098.117.104l1.2.129c.13.013.168.183.057.251l-1.03.629a.136.136 0 00-.063.144l.249 1.182a.136.136 0 01-.222.131l-.917-.786a.136.136 0 00-.156-.015l-1.047.602a.136.136 0 01-.194-.17l.465-1.115a.136.136 0 00-.035-.153l-.895-.81a.136.136 0 01.102-.237z" fill="#A4D852"/>
  <path d="M18.826 18.27l.782.92c.038.043.099.06.152.038l1.129-.43a.136.136 0 01.164.199l-.633 1.028a.136.136 0 00.01.157l.758.94a.136.136 0 01-.138.217l-1.173-.284a.136.136 0 00-.146.058l-.66 1.011a.136.136 0 01-.25-.063l-.092-1.204a.136.136 0 00-.1-.121l-1.166-.315a.136.136 0 01-.016-.258l1.116-.46a.136.136 0 00.084-.132l-.06-1.206a.136.136 0 01.239-.095z" fill="#75CFF2"/>
  <path d="M10.034 20.822l-4.62-3.29 9.913-13.925 5.307 3.779-9.427 13.238a.841.841 0 01-1.173.198z" fill="#F43B45"/>
  <path d="M8.833 19.967l1.2.855a.842.842 0 001.174-.198l9.427-13.238-1.887-1.344-9.914 13.925z" fill="#D82B2B"/>
  <path d="M20.94.864l-6.942 2.978a.323.323 0 00-.06.56l6.399 4.557a.323.323 0 00.51-.24l.543-7.535a.323.323 0 00-.45-.32z" fill="#FF9C43"/>
  <path d="M20.94.864l-1.578.677-.46 6.396 1.435 1.022a.323.323 0 00.51-.24l.543-7.535a.323.323 0 00-.45-.32z" fill="#EF8229"/>
  <g fill="#FFE471">
    <path d="M10.862 9.879l6.608 1.95 1.82-2.557-6.607-1.95-1.82 2.557zM9.041 12.436l6.608 1.95-1.82 2.557-6.608-1.95 1.82-2.557zM12.008 19.5l-6.545-1.932 4.57 3.254a.841.841 0 001.174-.197l.801-1.125z"/>
  </g>
  <g fill="#F2CA20">
    <path d="M16.942 8.579l-1.82 2.557 2.348.693.486-.682 1.335-1.875-2.35-.693zM13.83 16.943l1.82-2.557-2.35-.693-1.82 2.556 2.35.694zM9.66 18.806l-.827 1.161 1.2.855a.841.841 0 001.174-.197l.802-1.126-2.35-.693z"/>
  </g>
  <g fill="#000">
    <path d="M2.953 12.475l.396.225-.226.396a.337.337 0 10.586.333l.225-.396.396.226a.335.335 0 00.46-.127.337.337 0 00-.126-.459l-.396-.225.225-.397a.337.337 0 10-.586-.333l-.225.396-.396-.225a.337.337 0 10-.333.586zM22.763 11.928l-.396-.226.226-.396a.337.337 0 10-.586-.333l-.225.396-.397-.225a.337.337 0 00-.333.585l.396.226-.225.396a.337.337 0 10.586.333l.225-.396.396.226a.336.336 0 00.46-.127.337.337 0 00-.127-.46zM17.75 12.017l1.81-2.544.01-.012.3-.422.272.194a.66.66 0 001.041-.49l.543-7.535a.655.655 0 00-.275-.585.656.656 0 00-.644-.069l-6.942 2.978a.661.661 0 00-.122 1.145l.272.193-1.603 2.25-.007.011L10.59 9.68a.213.213 0 00-.005.006l-1.814 2.549a.297.297 0 00-.006.009L6.95 14.79a.277.277 0 00-.007.01l-1.805 2.535-4.01 5.632a.337.337 0 00.549.39l3.814-5.357 4.346 3.095a1.17 1.17 0 00.88.202 1.17 1.17 0 00.764-.478l.797-1.12a.367.367 0 00.008-.012l1.812-2.544a.22.22 0 00.009-.013l1.812-2.545a.21.21 0 00.008-.01l1.812-2.546a.532.532 0 00.01-.013zm3.302-10.835l-.54 7.488-6.359-4.528 6.9-2.96zM10.932 20.43a.501.501 0 01-.703.118L7.298 18.46l4.162 1.228-.527.74zm2.762-3.878l-3.792-1.119a.337.337 0 00-.19.646l3.569 1.053-1.408 1.977-5.924-1.749 1.407-1.976 1.06.313a.337.337 0 10.191-.646l-.837-.248 1.407-1.976 5.924 1.749-1.407 1.976zm1.82-2.557L9.59 12.246l1.407-1.976 5.925 1.748-1.408 1.976zM11.412 9.69l1.407-1.976.927.274a.338.338 0 00.419-.228.337.337 0 00-.228-.419l-.705-.208 1.332-1.87.676.48 4.082 2.906-.166.233-3.915-1.156a.337.337 0 00-.19.646l3.692 1.09-1.407 1.976L11.41 9.69zM6.546 3.014l.79.714-.409.984a.473.473 0 00.672.592l.924-.53.81.693a.473.473 0 00.77-.457l-.22-1.042.91-.555a.473.473 0 00-.196-.875l-1.06-.113-.246-1.037a.473.473 0 00-.892-.083l-.435.972-1.062-.086a.472.472 0 00-.356.823zm1.505-.054c.199.016.388-.096.47-.278l.251-.562.143.6c.047.193.211.338.41.36l.612.065-.525.321a.474.474 0 00-.217.501l.127.603-.468-.4a.473.473 0 00-.543-.052l-.534.307.236-.568a.474.474 0 00-.12-.533l-.456-.413.614.049zM20.782 20.08l.558-.907a.473.473 0 00-.571-.69l-.996.38-.69-.811a.473.473 0 00-.833.33l.053 1.064-.985.406a.473.473 0 00.057.894l1.029.278.081 1.062a.473.473 0 00.868.222l.582-.892 1.036.25a.473.473 0 00.48-.756l-.67-.83zm-2.213-1.592zm1.387 2.24a.474.474 0 00-.508.201l-.336.516-.047-.614a.474.474 0 00-.349-.42l-.594-.161.57-.235a.474.474 0 00.291-.461l-.03-.615.399.469c.13.152.342.206.529.135l.575-.22-.323.525a.474.474 0 00.035.545l.387.48-.6-.145z"/>
  </g>
</svg>
