<svg width="24" height="24" fill="none" xmlns="http://www.w3.org/2000/svg">
  <defs/>
  <path d="M10.511 16.093H1.97a.27.27 0 01-.252-.364l2.06-5.495a.27.27 0 000-.189L1.718 4.55a.27.27 0 01.252-.364h5.565l2.976 9.675v2.232z" fill="#96D2E0"/>
  <path d="M7.535 4.186H1.97a.27.27 0 00-.252.364L2 5.302h5.878l-.343-1.116zM1.718 15.73a.27.27 0 00.252.363h8.541v-1.116H2l-.282.752z" fill="#0094D4"/>
  <path d="M10.512 13.86v2.233l-2.977-2.232h2.977z" fill="#78B4C2"/>
  <path d="M19.188 1.953H7.805a.27.27 0 00-.27.27v11.638h11.653V1.953z" fill="#B6E3EE"/>
  <path d="M19.187 1.953h-1.388v11.908h1.388V1.953z" fill="#96D2E0"/>
  <path d="M7.535 2.223v.847h11.653V1.953H7.805a.27.27 0 00-.27.27z" fill="#00BCE7"/>
  <path d="M19.187 1.953h-1.388V3.07h1.388V1.953z" fill="#0094D4"/>
  <path d="M19.188 12.744H7.535v1.117h11.653v-1.117z" fill="#00BCE7"/>
  <path d="M19.187 12.744h-1.388v1.117h1.388v-1.117z" fill="#0094D4"/>
  <path d="M20.187 22.063h-1.489V1.105c0-.148.12-.27.27-.27h.95c.148 0 .269.122.269.27v20.957z" fill="#985335"/>
  <path d="M19.917.837h-.898c.148 0 .27.12.27.27v20.956h.897V1.105a.27.27 0 00-.269-.27z" fill="#87462A"/>
  <path d="M21.674 23.163H17.21v-1.219c0-.149.12-.27.27-.27h3.926c.148 0 .27.121.27.27v1.219z" fill="#FFD151"/>
  <path d="M21.405 21.675h-.898c.149 0 .27.12.27.27v1.218h.898v-1.219a.27.27 0 00-.27-.27z" fill="#F79B4A"/>
  <g fill="#000">
    <path d="M22.419 22.826h-.407v-1.151a.337.337 0 00-.337-.337h-1.152V.837A.337.337 0 0020.186.5h-1.488a.337.337 0 00-.337.337v.78H7.535a.337.337 0 00-.337.336V3.85H1.58a.337.337 0 00-.315.455l2.188 5.836-2.188 5.835a.337.337 0 00.315.455h8.93c.013 0 .025 0 .037-.002l.01-.001a.319.319 0 00.027-.005l.01-.003a.332.332 0 00.062-.022l.005-.002.003-.002a.348.348 0 00.037-.022l.004-.002a.335.335 0 00.029-.024l.008-.007a.339.339 0 00.075-.106l.002-.003a.337.337 0 00.015-.041l.001-.006a.332.332 0 00.012-.089v-1.895h7.513v3.369a.337.337 0 10.674 0v-4.822V3.07 3.07v-.78h.814v19.048h-.814v-2.425a.337.337 0 10-.674 0v2.425h-1.152a.337.337 0 00-.337.337v1.151h-.407a.337.337 0 100 .674h5.954a.337.337 0 000-.674zM7.872 5.304v-.002V4.188v-.002-.779H18.36v9H7.87V5.304zM18.36 2.29v.443H7.87V2.29h10.49zM7.198 4.523v.442H2.233l-.166-.442h5.13zm-3.069 5.498L2.486 5.64h4.712v8.229a.348.348 0 00.008.067l.004.014a.332.332 0 00.005.018l.005.013.007.017.006.014.008.015.009.014.008.013a.397.397 0 00.02.026l.012.013a.292.292 0 00.037.034l.006.004.68.51H2.485l1.643-4.382a.337.337 0 000-.237zm-1.896 5.293h6.678l.59.442H2.067l.166-.442zm7.942.105l-1.63-1.221h1.63v1.221zm-2.303-1.895v-.443H18.36v.443H7.87zM19.035 1.616v-.442h.814v.442h-.814zm-1.489 21.21v-.814h3.792v.814h-3.792z"/>
    <path d="M16.003 9.532c.271-.48.427-1.035.427-1.625a3.292 3.292 0 00-.462-1.685 3.315 3.315 0 00-2.852-1.629 3.315 3.315 0 000 6.628 3.315 3.315 0 002.887-1.69zm-2.887 1.015c-.092 0-.294-.174-.473-.653a3.57 3.57 0 01-.056-.162h1.059a3.57 3.57 0 01-.056.162c-.18.479-.382.653-.474.653zm-.688-1.488a6.795 6.795 0 01-.083-.815h1.543c-.012.284-.04.558-.083.815h-1.377zm.688-3.792c.092 0 .295.174.474.654.02.051.038.106.056.16h-1.059a3.46 3.46 0 01.056-.16c.18-.48.381-.654.473-.654zm.69 1.489c.042.256.07.53.082.814h-1.543c.012-.284.04-.558.083-.814h1.377zm1.928.817a.337.337 0 00-.04-.003h-1.132a7.66 7.66 0 00-.076-.814h1.005c.123.252.207.527.243.817zM11.67 7.57h-1.132a.337.337 0 00-.04.003c.037-.29.12-.565.243-.817h1.006c-.04.263-.065.537-.077.814zm-1.172.671a.337.337 0 00.04.003h1.132c.012.277.038.551.077.815h-1.006a2.62 2.62 0 01-.243-.818zm4.065.003h1.132a.337.337 0 00.04-.003 2.62 2.62 0 01-.243.818h-1.006c.04-.264.065-.538.076-.815zm.458-2.162h-.674a3.995 3.995 0 00-.215-.611c.337.14.64.35.889.61zM12.1 5.47c-.083.183-.155.39-.215.61h-.674c.25-.26.552-.47.89-.61zm-.889 4.261h.674c.06.222.132.428.215.612a2.648 2.648 0 01-.889-.612zm2.92.612c.083-.184.155-.39.215-.612h.674c-.25.26-.552.47-.89.612z"/>
  </g>
</svg>
