<svg width="24" height="24" fill="none" xmlns="http://www.w3.org/2000/svg">
  <defs/>
  <path d="M15.17 2.746H8.83a.558.558 0 01-.559-.558v-.793c0-.308.25-.558.558-.558h6.342c.308 0 .558.25.558.558v.793c0 .308-.25.558-.558.558z" fill="#9CC8DB"/>
  <path d="M15.17.837h-1.544c.308 0 .558.25.558.558v.793c0 .308-.25.558-.558.558h1.544c.308 0 .558-.25.558-.558v-.793a.558.558 0 00-.558-.558z" fill="#87ACBD"/>
  <path d="M19.918 16.696c-.072-3.266-2.136-6.04-5.003-7.182a.879.879 0 01-.557-.815V2.746H9.641v5.949c0 .36-.222.682-.557.815a7.923 7.923 0 00-2.741 12.909 2.486 2.486 0 001.775.744h7.763c.67 0 1.312-.27 1.781-.75a7.895 7.895 0 002.256-5.717z" fill="#D0EAF5"/>
  <path d="M19.919 16.696c-.073-3.266-2.137-6.04-5.004-7.182a.879.879 0 01-.557-.815V2.746H9.642v.797h2.43c.618 0 1.118.5 1.118 1.118v4.835c0 .36.222.682.557.815 2.867 1.143 4.93 3.916 5.004 7.182a7.893 7.893 0 01-2.094 5.545 2.495 2.495 0 001.006-.625 7.895 7.895 0 002.256-5.717z" fill="#BFD6E0"/>
  <path d="M12 14.754c-3.934-2.255-7.633 0-7.633 0a7.93 7.93 0 00-.288 2.122c0 2.158.864 4.114 2.264 5.543a2.486 2.486 0 001.775.744h7.763c.67 0 1.312-.27 1.781-.75a7.895 7.895 0 002.256-5.718 7.853 7.853 0 00-.445-2.442s-3.54 2.757-7.473.501z" fill="#61A1DC"/>
  <path d="M19.919 16.696a9.02 9.02 0 00-.006-.157l-.002-.048-.006-.108-.003-.055-.008-.1-.005-.056c-.003-.033-.005-.067-.009-.1l-.006-.054-.011-.1-.007-.052a6.682 6.682 0 00-.013-.102l-.008-.05-.015-.103-.008-.047a7.339 7.339 0 00-.019-.106l-.008-.043a7.813 7.813 0 00-.021-.11l-.008-.038a6.819 6.819 0 00-.06-.264l-.007-.03-.03-.12-.008-.026a10.413 10.413 0 00-.034-.125l-.006-.02a8.428 8.428 0 00-.039-.13l-.004-.014a6.814 6.814 0 00-.044-.135l-.002-.008a6.381 6.381 0 00-.049-.142s-.448.35-1.204.697a7.85 7.85 0 01.482 2.543 7.892 7.892 0 01-2.094 5.545 2.35 2.35 0 00.137-.05l.005-.001c.137-.054.269-.12.394-.198l.01-.006c.035-.022.07-.046.105-.07l.03-.021a2.33 2.33 0 00.193-.155l.03-.027a2.38 2.38 0 00.102-.097 7.895 7.895 0 002.256-5.717z" fill="#558BBF"/>
  <g fill="#674297">
    <path d="M17.964 17.211a.51.51 0 11-1.02 0 .51.51 0 011.02 0zM15.33 20.9a.445.445 0 11-.891 0 .445.445 0 01.89 0zM8.55 16.524a.445.445 0 11-.89 0 .445.445 0 01.89 0zM10.014 20.9a.445.445 0 11-.891 0 .445.445 0 01.89 0zM12.805 17.555a.538.538 0 11-1.075 0 .538.538 0 011.075 0z"/>
  </g>
  <path d="M18.735 12.114a8.296 8.296 0 00-3.7-2.913.54.54 0 01-.344-.502V3.083h.476a.896.896 0 00.894-.895v-.793A.896.896 0 0015.167.5h-1.778a.337.337 0 100 .674h1.778c.122 0 .22.099.22.22v.794c0 .122-.098.221-.22.221H8.825c-.122 0-.22-.099-.22-.22v-.794c0-.122.098-.221.22-.221h2.916a.337.337 0 100-.674H8.825a.896.896 0 00-.894.895v.793c0 .494.4.895.894.895h.476v2.778a.337.337 0 10.674 0V3.083h4.043v5.616c0 .5.301.942.768 1.128a7.584 7.584 0 014.261 4.306 7.408 7.408 0 01-1.959.9c-1.727.505-3.384.313-4.925-.571-2.263-1.298-4.874-1.347-7.207-.368a7.528 7.528 0 014.248-4.271 1.21 1.21 0 00.77-1.129V7.553a.337.337 0 10-.673 0v1.141a.54.54 0 01-.345.503c-5.498 2.178-6.96 9.272-2.858 13.458a2.84 2.84 0 002.017.845h7.762c.756 0 1.493-.31 2.022-.851 2.919-2.984 3.035-7.439.836-10.535zm-1.317 10.063a2.168 2.168 0 01-1.54.65H8.114a2.161 2.161 0 01-1.535-.644c-1.781-1.817-2.618-4.46-1.91-7.214a7.907 7.907 0 012.125-.735c1.789-.35 3.482-.077 5.033.812 2.136 1.225 4.156 1.017 5.475.626a8.196 8.196 0 001.97-.88c.747 2.611.091 5.395-1.855 7.385z" fill="#000"/>
</svg>
