<svg width="24" height="24" fill="none" xmlns="http://www.w3.org/2000/svg">
  <defs/>
  <path d="M13.591 23.163H10.41a.27.27 0 01-.27-.27V21.45h3.722v1.444a.27.27 0 01-.27.27z" fill="#FABE2C"/>
  <path d="M12.872 21.45v1.444a.27.27 0 01-.27.27h.989a.27.27 0 00.27-.27V21.45h-.989z" fill="#FD9E28"/>
  <path d="M15.45 21.675H8.549a.27.27 0 01-.27-.27v-1.99h7.442v1.99a.27.27 0 01-.27.27z" fill="#898989"/>
  <path d="M14.732 19.415v1.99a.27.27 0 01-.27.27h.99a.27.27 0 00.269-.27v-1.99h-.989z" fill="#727575"/>
  <path d="M16.214 20.186H7.785a.27.27 0 01-.269-.25L6.79 9.767v-.224h10.419v.225l-.726 10.168a.27.27 0 01-.27.25z" fill="#727575"/>
  <path d="M6.79 9.543h9.43v.224l-.726 10.17a.27.27 0 01-.268.25h.988a.27.27 0 00.269-.25l.726-10.17v-.224H6.79z" fill="#5E6161"/>
  <path d="M13.219 17.954h-2.438a.27.27 0 01-.27-.27v-.95c0-.148.121-.269.27-.269h2.438c.149 0 .27.121.27.27v.95a.27.27 0 01-.27.269z" fill="#FABE2C"/>
  <path d="M13.219 16.465h-.989c.15 0 .27.121.27.27v.95a.27.27 0 01-.27.269h.989a.27.27 0 00.27-.27v-.95a.27.27 0 00-.27-.269z" fill="#FD9E28"/>
  <path d="M18.698 9.023a.744.744 0 01-.745.744H6.046a.744.744 0 01-.744-.744V1.581c0-.41.333-.744.744-.744h11.907c.411 0 .745.333.745.744v7.442z" fill="#898989"/>
  <path d="M18.697 1.581a.744.744 0 00-.744-.744h-.988c.41 0 .744.333.744.744v7.442a.744.744 0 01-.744.744h.988a.744.744 0 00.744-.744V1.581z" fill="#727575"/>
  <path d="M16.94 8.28H7.06a.27.27 0 01-.27-.27V2.595c0-.149.12-.27.27-.27h9.88c.148 0 .269.121.269.27V8.01a.27.27 0 01-.27.269z" fill="#AAEBF9"/>
  <path d="M16.94 2.325h-.989c.149 0 .27.121.27.27V8.01a.27.27 0 01-.27.269h.988a.27.27 0 00.27-.27V2.596a.27.27 0 00-.27-.27z" fill="#7BE2F6"/>
  <path d="M17.953.5H6.046C5.45.5 4.965.985 4.965 1.581v7.442c0 .596.485 1.081 1.081 1.081h.43l.722 10.106c.013.177.16.313.337.313h.407v1.152c0 .186.15.337.337.337h1.523v1.151c0 .186.151.337.337.337h3.721c.186 0 .337-.15.337-.337v-1.151h1.524c.186 0 .337-.151.337-.337v-1.152h.407a.337.337 0 00.336-.313l.722-10.106h.43c.596 0 1.082-.485 1.082-1.08V1.58C19.035.985 18.549.5 17.953.5zm-11.907.674h11.907c.225 0 .408.183.408.407v.407H5.639v-.407c0-.224.182-.407.407-.407zm1.081 1.488h9.745v5.28H7.127v-5.28zm6.396 20.164h-3.047v-.814h3.047v.814zm1.86-1.488H8.617v-.815h6.768v.815zm.768-1.489H8.28h-.431l-.537-7.512h2.276l.644.966c.063.094.168.15.28.15h2.977a.337.337 0 00.28-.15l.645-.966h2.275l-.537 7.512zm1.802-10.418H9.697a.337.337 0 000 .673h7.15l-.11 1.56h-2.505a.337.337 0 00-.28.15l-.644.966h-2.616l-.645-.967a.337.337 0 00-.28-.15H7.264l-.112-1.559H8.35a.337.337 0 00.332-.393L8.68 9.7a.338.338 0 00-.228-.254H8.45a.339.339 0 00-.1-.015H6.046a.408.408 0 01-.407-.408v-6.36h.814v5.616c0 .186.151.337.337.337h10.42c.185 0 .336-.15.336-.337V2.662h.815v6.361a.408.408 0 01-.408.408z" fill="#000"/>
  <path d="M13.489 16.128h-2.977a.337.337 0 00-.337.337v1.489c0 .186.15.337.337.337h2.976c.187 0 .337-.151.337-.337v-1.489a.337.337 0 00-.336-.337zm-.337 1.489h-2.303v-.815h2.303v.815zM9.022 4.221a.337.337 0 00-.336.337v1.488a.337.337 0 10.673 0V4.558a.337.337 0 00-.337-.337zM12 4.221a.337.337 0 00-.337.337v1.488a.337.337 0 10.674 0V4.558A.337.337 0 0012 4.221zM14.977 4.221a.337.337 0 00-.337.337v1.488a.337.337 0 10.673 0V4.558a.337.337 0 00-.336-.337z" fill="#000"/>
</svg>
