<svg width="24" height="24" fill="none" xmlns="http://www.w3.org/2000/svg">
  <defs/>
  <g fill="#CFDCE5">
    <path d="M11.03 8.206v-2.66H1v17.54H11.03V9.573M23.01 11.485H11.03v11.602h11.98V11.485z"/>
  </g>
  <path d="M20.913 15.546h-7.786v7.54h7.786v-7.54z" fill="#415E72"/>
  <g fill="#FCD577">
    <path d="M8.106 15.669h-4.18v5.082h4.18v-5.082zM8.106 7.881h-4.18v5.082h4.18V7.881z"/>
  </g>
  <path d="M23.005 20.478c.22 0 .398-.179.398-.398V11.5a.398.398 0 00-.398-.398H11.423V9.587a.398.398 0 00-.796 0v13.117H1.394V5.959h9.232V8.22a.398.398 0 00.797 0V5.56a.398.398 0 00-.398-.398H3.492V3.865h.668a.398.398 0 000-.797h-.668v-.57h.258a.398.398 0 000-.796h-.258V.898a.398.398 0 00-.796 0v.804h-.258a.398.398 0 000 .796h.258v.57H2.03a.398.398 0 000 .797h.667v1.298h-1.7a.398.398 0 00-.398.398V23.1c0 .22.178.399.398.399h22.009c.22 0 .398-.178.398-.398v-1.656a.398.398 0 10-.796 0v1.258h-1.301V15.56a.398.398 0 00-.398-.398h-7.786a.398.398 0 00-.398.399v7.142h-1.301V11.898h11.184v8.182c0 .22.178.398.398.398zm-9.485-.748h6.99v1.089h-6.99v-1.09zm6.99-3.77v1.088h-.776a.398.398 0 000 .797h.776v1.089h-6.99v-1.09h4.848a.398.398 0 100-.796H13.52V15.96h6.99zm-6.99 5.655h6.99v1.089h-6.99v-1.09z" fill="#000"/>
  <path d="M13.122 13.277a.398.398 0 100 .797h2.956a.398.398 0 000-.796h-2.956zM17.952 13.277a.398.398 0 100 .797h2.956a.398.398 0 000-.796h-2.956zM8.1 15.286H3.92a.398.398 0 00-.399.398v5.082c0 .22.179.398.399.398H8.1c.22 0 .398-.178.398-.398v-5.082a.398.398 0 00-.398-.398zm-3.782.796h1.294v4.286H4.318v-4.286zm3.384 4.286H6.408v-4.286h1.294v4.286zM8.498 7.897a.398.398 0 00-.398-.398H3.92a.398.398 0 00-.399.398v5.082c0 .22.179.398.399.398H8.1c.22 0 .398-.178.398-.398V7.897zm-.796 4.684H6.408v-2.338a.398.398 0 00-.796 0v2.338H4.318V8.295h1.294v.746a.398.398 0 00.796 0v-.746h1.294v4.286z" fill="#000"/>
</svg>
