<svg width="24" height="24" fill="none" xmlns="http://www.w3.org/2000/svg">
  <defs/>
  <path d="M14.12 1.743a3.757 3.757 0 00-3.468 2.312l-2.083 5-5.631.706a1.879 1.879 0 00-1.645 1.864v5.4h3.794v2.004h2.281a4.056 4.056 0 018.08 0h7.715V1.743H14.12z" fill="#E28086"/>
  <path d="M7.552 18.13a4.04 4.04 0 00-.183.9H5.088v-.9h2.464zM21.367 1.744v11.205a5.182 5.182 0 01-5.183 5.183h-.92c.094.287.157.587.184.898h7.716V1.743h-1.797z" fill="#DD636E"/>
  <path d="M15.647 20.467h-.183v-1.078a4.056 4.056 0 10-8.112 0v1.078h-.183c-.888 0-1.608.72-1.608 1.608v.183h11.694v-.183c0-.888-.72-1.608-1.608-1.608z" fill="#808B95"/>
  <path d="M15.647 20.466h-.182V19.39a4.058 4.058 0 00-3.223-3.97 4.129 4.129 0 011.426 3.123v.844c0 .1.081.182.182.182.888 0 1.608.72 1.608 1.608 0 .101-.082.183-.183.183H5.728a1.602 1.602 0 00-.167.716v.183h11.694v-.183c0-.889-.72-1.608-1.608-1.608z" fill="#5E6B75"/>
  <path d="M15.802 15.951l1.004-1.005a.866.866 0 001.311-1.086.866.866 0 00-1.177-1.178.866.866 0 00-1.087 1.312l-1.004 1.004.953.953zM.837 17.026h4.25v2.637H.837v-2.637z" fill="#DAE4EA"/>
  <path d="M3.29 17.026v.784a.955.955 0 01-.954.955h-1.5v.898h4.251v-2.637H3.291z" fill="#C6D0DA"/>
  <path d="M11.407 21.134a1.745 1.745 0 100-3.49 1.745 1.745 0 000 3.49z" fill="#DAE4EA"/>
  <path d="M11.408 19.98a.59.59 0 100-1.181.59.59 0 000 1.18z" fill="#F6F9F9"/>
  <path d="M23.163 12.69h-3.661v-.875c0-.286.232-.519.519-.519h2.623c.287 0 .519.233.519.52v.874z" fill="#808B95"/>
  <path d="M22.644 11.296h-1.278v1.394h1.797v-.875a.519.519 0 00-.519-.519z" fill="#5E6B75"/>
  <path d="M14.578 3.984c-.89 0-1.691.535-2.033 1.356l-1.548 3.715h6.263v-5.07h-2.682zM19.502 3.984h3.661v5.07h-3.661v-5.07z" fill="#D5D8F1"/>
  <path d="M21.366 3.984h1.797v5.07h-1.797v-5.07z" fill="#BEC3EA"/>
  <path d="M3.714 13.543c0-.635-.516-1.15-1.151-1.15h-1.27v2.316h2.42v-1.166z" fill="#F6F9F9"/>
  <path d="M1.293 14.709h2.42v2.317h-2.42v-2.317z" fill="#E4936B"/>
  <path d="M11.744 16.453a.337.337 0 00-.336-.336 3.276 3.276 0 00-3.273 3.272.337.337 0 10.674 0 2.602 2.602 0 012.599-2.599c.186 0 .336-.15.336-.337z" fill="#000"/>
  <path d="M11.408 21.471a2.085 2.085 0 002.082-2.082 2.085 2.085 0 00-2.082-2.082 2.085 2.085 0 00-2.083 2.082c0 1.148.934 2.082 2.083 2.082zm0-3.49a1.41 1.41 0 011.408 1.408 1.41 1.41 0 01-1.409 1.409A1.41 1.41 0 0110 19.389a1.41 1.41 0 011.409-1.408z" fill="#000"/>
  <path d="M11.408 20.316a.928.928 0 000-1.854.928.928 0 000 1.854zm0-1.18a.254.254 0 110 .507.254.254 0 010-.507zM17.26 3.647h-2.682c-1.028 0-1.949.614-2.344 1.564l-1.548 3.714a.337.337 0 00.311.467h6.263c.186 0 .337-.151.337-.337v-5.07a.337.337 0 00-.337-.338zm-.337 5.07h-5.42l1.353-3.247a1.861 1.861 0 011.722-1.149h2.346v4.397z" fill="#000"/>
  <path d="M23.163 1.406h-6.322a.337.337 0 100 .673h5.985v1.568h-3.324a.337.337 0 00-.337.337v5.07c0 .187.151.338.337.338h1.126a.337.337 0 100-.674h-.789V4.32h2.987v4.397H22.2a.337.337 0 100 .674h.626v1.587a.857.857 0 00-.182-.02h-2.623a.857.857 0 00-.856.856v.875c0 .186.151.336.337.336h3.324v5.666h-7.08a4.356 4.356 0 00-.206-.796l-.006-.017a4.393 4.393 0 00-8.464.813H5.424v-1.667a.337.337 0 00-.337-.336H4.051v-3.146a1.49 1.49 0 00-1.488-1.488H1.63v-.43c0-.776.58-1.433 1.35-1.53l5.63-.706a.337.337 0 00.27-.205l2.083-5A3.41 3.41 0 0114.12 2.08h1.149a.337.337 0 100-.673h-1.15a4.083 4.083 0 00-3.778 2.519l-2.008 4.82-5.437.682a2.219 2.219 0 00-1.94 2.198v5.064h-.12a.337.337 0 00-.336.337v2.637c0 .186.15.337.337.337h4.25c.186 0 .337-.15.337-.337v-.297h1.59v.77c-1 .078-1.79.918-1.79 1.939v.183c0 .186.15.336.336.336h9.03a.337.337 0 100-.673H5.908a1.273 1.273 0 011.262-1.118h.182c.186 0 .337-.15.337-.337V19.39c0-.427.076-.876.237-1.307l.006-.014a3.723 3.723 0 013.477-2.398 3.725 3.725 0 013.72 3.72v1.076c0 .187.15.337.336.337h.183c.649 0 1.185.489 1.262 1.118h-.746a.337.337 0 100 .673h1.092c.186 0 .337-.15.337-.337v-.182c0-1.02-.79-1.86-1.79-1.94v-.769h7.361c.186 0 .337-.15.337-.337V1.743a.337.337 0 00-.337-.337zm-20.6 11.323c.449 0 .814.365.814.814v.829H1.63v-1.643h.933zm-.933 2.317h1.747v1.643H1.63v-1.643zm3.12 4.28H1.175v-1.964H4.75v1.964zm15.089-6.973v-.538c0-.1.082-.182.182-.182h2.623c.1 0 .182.082.182.182v.538H19.84z" fill="#000"/>
  <path d="M18.213 12.587a1.208 1.208 0 00-1.273-.275 1.208 1.208 0 00-1.273.275c-.368.368-.452.91-.242 1.358l-.815.815a.337.337 0 10.477.476l1.004-1.004a.337.337 0 00.02-.455.532.532 0 01.032-.713.53.53 0 01.632-.088.337.337 0 00.33 0 .53.53 0 01.631.088.53.53 0 01.087.631.338.338 0 000 .33.53.53 0 01-.087.631.532.532 0 01-.713.032.337.337 0 00-.455.02l-1.005 1.005a.337.337 0 10.477.476l.815-.815c.448.211.99.127 1.357-.241.336-.336.438-.838.276-1.273.163-.435.06-.938-.275-1.273z" fill="#000"/>
</svg>
