<svg width="24" height="24" fill="none" xmlns="http://www.w3.org/2000/svg">
  <defs/>
  <path d="M22.392 4.948h-9.098v18.161h9.098V4.948z" fill="#BAC6CC"/>
  <g fill="#fff">
    <path d="M14.31 16.629h5.327v-1.93H14.31M14.31 20.454h5.327v-1.931H14.31M14.31 12.804h5.327v-1.93H14.31M14.31 8.98h5.327V7.048H14.31"/>
  </g>
  <path d="M14.31 2.556H1.662v20.553H14.31V2.556z" fill="#CFDCE5"/>
  <g fill="#fff">
    <path d="M6.227 5.052h6.378v2.08H3.368v-2.08h1.555M12.605 13.294H3.368v2.08h9.237v-2.08zM12.605 9.172H3.368v2.08h9.237v-2.08zM12.605 17.416H3.368v2.08h9.237v-2.08z"/>
  </g>
  <path d="M22.365 4.557H19.5v-.71h.524a.391.391 0 100-.781h-.524v-.71h.524a.391.391 0 100-.781h-.524V.89a.391.391 0 10-.782 0v.684h-.524a.391.391 0 000 .782h.524v.709h-.524a.391.391 0 000 .782h.524v.709h-3.027a.391.391 0 100 .782h6.281v12.677a.391.391 0 00.783 0V4.949a.391.391 0 00-.391-.391z" fill="#000"/>
  <path d="M22.364 19.033a.391.391 0 00-.39.392v3.293h-7.3v-1.873h4.935a.391.391 0 00.391-.391v-1.93a.391.391 0 00-.39-.392h-4.935V17.02h2.581a.391.391 0 000-.782h-2.581V15.09h4.543v1.148h-.658a.391.391 0 000 .782h1.05a.391.391 0 00.39-.39v-1.932a.391.391 0 00-.39-.39h-4.935v-3.044h4.543v1.149h-3.761a.391.391 0 100 .782h4.152a.391.391 0 00.391-.391v-1.93a.391.391 0 00-.39-.392h-4.935V9.37h4.934A.391.391 0 0020 8.98V7.048a.391.391 0 00-.39-.392h-4.935V2.555a.391.391 0 00-.391-.39H1.635a.391.391 0 00-.39.39V23.11c0 .216.174.39.39.39l20.73.001a.391.391 0 00.39-.391v-3.684a.391.391 0 00-.39-.392zm-3.146-.119v1.148h-4.543v-1.148h4.543zm0-11.474v1.148h-4.543V7.44h4.543zM2.026 2.947h11.866v19.77H2.027V2.948z" fill="#000"/>
  <path d="M12.578 4.66H6.2a.391.391 0 100 .783h5.987V6.74H3.733V5.443h1.163a.391.391 0 100-.782H3.34a.391.391 0 00-.39.39v2.081c0 .216.174.391.39.391h9.237a.391.391 0 00.391-.391v-2.08a.391.391 0 00-.391-.391zM12.578 12.904H3.34a.391.391 0 00-.39.39v2.081c0 .216.174.391.39.391h9.237a.391.391 0 00.391-.39v-2.081a.391.391 0 00-.391-.391zm-.391 2.08H3.733v-1.298h8.454v1.298zM12.578 8.782H3.34a.391.391 0 00-.39.391v2.08c0 .217.174.392.39.392h9.237a.391.391 0 00.391-.391v-2.08a.391.391 0 00-.391-.392zm-.391 2.08H3.733V9.564h8.454v1.298zM12.578 17.025H3.34a.391.391 0 00-.39.391v2.08c0 .217.174.392.39.392h9.237a.391.391 0 00.391-.391v-2.08a.391.391 0 00-.391-.392zm-.391 2.08H3.733v-1.297h8.454v1.297z" fill="#000"/>
</svg>
