<svg width="24" height="24" fill="none" xmlns="http://www.w3.org/2000/svg">
  <defs/>
  <path d="M20.196 19.724a54.226 54.226 0 01-11.905 0 54.21 54.21 0 01-.202-9.63L12.08 4.67l2.162-2.939 2.164 2.94 3.991 5.424a54.32 54.32 0 01-.202 9.629z" fill="#EEEBEE"/>
  <path d="M23.111 23.16c-1.567 0-1.567-.912-3.135-.912-1.567 0-1.567.911-3.135.911-1.568 0-1.568-.91-3.135-.91-1.568 0-1.568.91-3.136.91-1.567 0-1.567-.91-3.134-.91v-2.432c1.567 0 1.567.911 3.134.911 1.568 0 1.568-.91 3.136-.91 1.567 0 1.567.91 3.135.91 1.567 0 1.567-.91 3.135-.91 1.568 0 1.568.91 3.136.91" fill="#5B8EB8"/>
  <path d="M23.111 21.154c-1.567 0-1.567-.911-3.135-.911-1.567 0-1.567.91-3.135.91-1.568 0-1.568-.91-3.135-.91-1.568 0-1.568.91-3.136.91-1.567 0-1.567-.91-3.134-.91v-2.431c1.567 0 1.567.91 3.134.91 1.568 0 1.568-.91 3.136-.91 1.567 0 1.567.91 3.135.91 1.567 0 1.567-.91 3.135-.91 1.568 0 1.568.91 3.136.91" fill="#80A6C6"/>
  <path d="M20.493 11.966l-6.25-5.913-6.249 5.913c.02-.623.053-1.247.095-1.871L12.08 4.67l2.162-2.046 2.164 2.047 3.991 5.424c.043.624.075 1.248.095 1.871z" fill="#D3CED5"/>
  <path d="M21.445 11.085l-7.202-6.814-7.2 6.814-1.713-1.81L14.243.842l8.914 8.433-1.712 1.81z" fill="#78D090"/>
  <path d="M17.112 11.067a26.154 26.154 0 00-5.737 0 26.154 26.154 0 000 5.737c1.912.21 3.825.21 5.737 0 .21-1.912.21-3.825 0-5.737z" fill="#BCD0DF"/>
  <path d="M10.406 15.92c-.197 1.018-.78 3.6-1.974 5.718a.694.694 0 01-.334.298c-.423.18-1.387.611-2.059 1.091a.703.703 0 01-.818 0c-.67-.48-1.635-.912-2.058-1.09a.694.694 0 01-.334-.3C1.634 19.52 1.052 16.939.855 15.92a.693.693 0 01.29-.703c.782-.536 2.675-1.735 4.368-2.045a.687.687 0 01.235 0c1.692.31 3.586 1.51 4.368 2.045a.693.693 0 01.29.703z" fill="#F1D333"/>
  <path d="M5.63 13.162v9.997a.703.703 0 01-.409-.132c-.671-.48-1.636-.912-2.058-1.09a.693.693 0 01-.334-.3C1.634 19.52 1.052 16.939.855 15.92a.693.693 0 01.29-.703c.782-.536 2.675-1.735 4.368-2.045a.687.687 0 01.117-.01z" fill="#DAB72B"/>
  <path d="M9.244 15.987c-.222 1.072-.75 3.192-1.722 4.972-.49.212-1.25.57-1.892.986-.64-.417-1.402-.774-1.89-.986-.974-1.78-1.501-3.9-1.723-4.972.71-.467 2.276-1.419 3.613-1.691 1.338.272 2.904 1.224 3.614 1.691z" fill="#E27D47"/>
  <path d="M5.63 14.296v7.649c-.64-.417-1.402-.773-1.89-.986-.974-1.78-1.501-3.9-1.723-4.972.71-.467 2.276-1.419 3.613-1.691z" fill="#DD6938"/>
  <path d="M11.337 17.144a26.579 26.579 0 005.812 0 .342.342 0 00.303-.303 26.624 26.624 0 000-5.812.342.342 0 00-.303-.302 26.624 26.624 0 00-5.812 0 .341.341 0 00-.302.302 26.612 26.612 0 000 5.812c.018.16.143.285.302.303zm.225-2.867h2.34v2.34c-.74-.01-1.48-.05-2.216-.124a25.899 25.899 0 01-.124-2.216zm3.023 2.34v-2.34h2.34c-.01.74-.05 1.48-.124 2.216-.736.073-1.476.114-2.216.124zm2.34-3.023h-2.34v-2.34c.74.01 1.48.05 2.216.124.073.736.114 1.476.124 2.216zm-3.024-2.34v2.34h-2.34c.01-.74.052-1.48.124-2.216a25.976 25.976 0 012.216-.124zM1.682 16.057c.232 1.115.768 3.256 1.757 5.066.037.067.094.12.164.15.502.218 1.23.56 1.841.959a.342.342 0 00.373 0c.612-.398 1.339-.741 1.841-.96a.341.341 0 00.164-.149c.99-1.81 1.526-3.951 1.757-5.066a.342.342 0 00-.147-.355c-.806-.53-2.364-1.462-3.733-1.741a.34.34 0 00-.137 0c-1.369.279-2.927 1.21-3.733 1.741a.342.342 0 00-.147.355zm3.949-1.412c1.168.258 2.533 1.057 3.23 1.501-.24 1.1-.734 2.953-1.584 4.548-.467.206-1.085.502-1.646.847a14.284 14.284 0 00-1.647-.847c-.85-1.595-1.344-3.447-1.584-4.548.697-.444 2.062-1.243 3.23-1.501z" fill="#000"/>
  <path d="M5.105 19.527c.06.109.173.177.297.178h.004a.342.342 0 00.296-.172l1.617-2.828a.342.342 0 10-.593-.34l-1.313 2.297-.56-1.033a.342.342 0 10-.6.326l.852 1.572z" fill="#000"/>
  <path d="M10.57 19.064c.877 0 1.335-.266 1.74-.501.378-.22.704-.41 1.396-.41.691 0 1.018.19 1.396.41.404.235.863.502 1.739.502.876 0 1.334-.267 1.74-.502.377-.22.704-.41 1.395-.41.125 0 .244.007.355.02.463.054.73.21 1.041.39.405.235.864.502 1.74.502a.342.342 0 100-.684c-.692 0-1.018-.19-1.396-.409-.266-.154-.56-.326-.983-.423a54.493 54.493 0 00.058-6.612l.42.397c.063.06.147.093.234.093h.01a.341.341 0 00.238-.107l1.712-1.81a.342.342 0 00-.013-.483L14.479.593a.342.342 0 00-.47 0L5.095 9.027a.342.342 0 00-.013.483l1.712 1.81a.341.341 0 00.483.013l.42-.396a53.163 53.163 0 00-.073 2.487c-.871-.378-1.495-.53-1.816-.588a.989.989 0 00-.356 0 7.92 7.92 0 00-1.526.462.342.342 0 10.257.633 7.24 7.24 0 011.391-.423.309.309 0 01.112 0c1.639.3 3.509 1.492 4.236 1.99.117.08.174.22.148.358-.193.997-.766 3.54-1.936 5.615a.354.354 0 01-.17.151c-.5.212-1.443.64-2.124 1.127a.36.36 0 01-.42 0c-.68-.486-1.623-.915-2.124-1.127a.356.356 0 01-.17-.152c-1.171-2.077-1.744-4.618-1.935-5.614a.352.352 0 01.147-.357c.37-.254.955-.633 1.642-1a.342.342 0 00-.322-.602 18.52 18.52 0 00-1.706 1.038c-.34.233-.51.645-.432 1.05.198 1.029.79 3.656 2.01 5.82.112.198.289.357.5.446.382.162 1.342.59 1.992 1.054a1.043 1.043 0 001.216 0c.65-.465 1.61-.892 1.994-1.054.21-.09.386-.248.497-.445.124-.22.241-.445.352-.672.353.19.787.361 1.49.361.876 0 1.334-.266 1.739-.502.378-.22.704-.409 1.396-.409.691 0 1.018.19 1.396.41.404.235.863.501 1.739.501.876 0 1.334-.266 1.74-.501.377-.22.704-.41 1.395-.41.692 0 1.018.19 1.396.41.405.235.864.501 1.74.501a.342.342 0 000-.683c-.692 0-1.018-.19-1.396-.41-.405-.234-.864-.5-1.74-.5s-1.334.266-1.739.5c-.378.22-.704.41-1.396.41s-1.018-.19-1.396-.41c-.405-.234-.864-.5-1.74-.5-.875 0-1.334.266-1.738.5-.378.22-.705.41-1.396.41-.573 0-.895-.13-1.203-.3.22-.504.41-1.012.575-1.5.195.035.402.052.628.052zm-2.264-5.32a53.828 53.828 0 01.116-3.493l5.822-5.51 3.958 3.746a.342.342 0 10.47-.496l-4.193-3.968a.342.342 0 00-.47 0l-6.953 6.58-1.243-1.314 8.43-7.977 8.431 7.977-1.242 1.313-1.768-1.672a.342.342 0 00-.47.496l.872.825a53.3 53.3 0 01-.013 7.22h-.077c-.876 0-1.334.266-1.74.501-.377.22-.703.41-1.395.41-.692 0-1.018-.19-1.396-.41-.405-.235-.864-.502-1.74-.502-.875 0-1.334.267-1.738.502-.378.22-.705.41-1.397.41-.149 0-.287-.01-.417-.028a24.25 24.25 0 00.588-2.369 1.035 1.035 0 00-.432-1.05 17.253 17.253 0 00-2.003-1.192z" fill="#000"/>
</svg>
