<svg width="24" height="24" fill="none" xmlns="http://www.w3.org/2000/svg">
  <defs/>
  <path d="M11.88 12.57c.552-.553.623-1.438.619-1.898a.318.318 0 00-.315-.315c-.46-.004-1.344.067-1.897.62-.538.538-.72 1.49-.78 2.02a.318.318 0 00.352.352c.53-.06 1.482-.242 2.02-.78z" fill="#13B866"/>
  <path d="M12.499 10.672a.318.318 0 00-.316-.315 3.786 3.786 0 00-.835.083c.064.058.104.14.105.232.004.46-.067 1.345-.62 1.897-.332.332-.822.528-1.272.644.063.093.175.15.298.136.53-.06 1.482-.242 2.02-.78.553-.552.624-1.437.62-1.897z" fill="#09A657"/>
  <path d="M12.556 12.57c-.552-.553-.624-1.438-.62-1.898a.318.318 0 01.316-.315c.46-.004 1.344.067 1.897.62.538.538.72 1.49.78 2.02a.318.318 0 01-.353.352c-.53-.06-1.482-.242-2.02-.78z" fill="#13B866"/>
  <path d="M14.929 12.997c-.06-.53-.242-1.482-.78-2.02-.553-.553-1.437-.624-1.897-.62a.316.316 0 00-.189.065c.397.075.83.234 1.151.555.538.538.72 1.49.78 2.02a.316.316 0 01-.07.239c.244.058.473.093.653.113a.318.318 0 00.352-.352z" fill="#09A657"/>
  <path d="M12.205 11.326a4.71 4.71 0 01-4.71-4.71v-5.25a.23.23 0 01.405-.15L9.513 3.12a.23.23 0 00.339.013l2.19-2.227a.23.23 0 01.327 0l2.19 2.227a.23.23 0 00.338-.013l1.614-1.903a.23.23 0 01.405.148v5.25a4.71 4.71 0 01-4.71 4.71z" fill="#FC8186"/>
  <path d="M16.511 1.217L15.236 2.72v3.254a4.71 4.71 0 01-5.516 4.641 4.71 4.71 0 007.196-4.001v-5.25a.23.23 0 00-.405-.148z" fill="#FB4753"/>
  <path d="M7.878 13.173a2.605 2.605 0 100-5.21 2.605 2.605 0 000 5.21z" fill="#FB4753"/>
  <path d="M8.95 8.194a2.605 2.605 0 01-3.446 3.446A2.605 2.605 0 108.95 8.194z" fill="#E21F2D"/>
  <path d="M18.835 15.697a2.605 2.605 0 100-5.21 2.605 2.605 0 000 5.21zM3.67 15.956a2.605 2.605 0 100-5.21 2.605 2.605 0 000 5.21z" fill="#FB4753"/>
  <path d="M19.907 10.718a2.605 2.605 0 01-3.446 3.446 2.605 2.605 0 103.446-3.446zM4.743 10.977a2.605 2.605 0 01-3.446 3.446 2.605 2.605 0 103.446-3.446z" fill="#E21F2D"/>
  <path d="M12.054 15.434c-.24-.022-.47.019-.672.108a.2.2 0 01-.267-.106 1.356 1.356 0 00-1.927-.677.196.196 0 01-.26-.063 1.354 1.354 0 00-2.282 0 .196.196 0 01-.26.063 1.356 1.356 0 00-1.927.676.2.2 0 01-.267.107 1.355 1.355 0 10-.544 2.597c.57 0 1.059-.353 1.259-.853a.198.198 0 01.264-.107 1.354 1.354 0 001.687-.509.196.196 0 01.26-.063 1.348 1.348 0 001.337 0 .196.196 0 01.26.064 1.354 1.354 0 001.687.508.198.198 0 01.265.107 1.356 1.356 0 101.387-1.852z" fill="#FDDE2E"/>
  <path d="M13.273 16.63a1.34 1.34 0 00-.285-.687 1.355 1.355 0 01-2.613.444.198.198 0 00-.264-.107 1.354 1.354 0 01-1.687-.509.196.196 0 00-.26-.063 1.347 1.347 0 01-1.337 0 .196.196 0 00-.26.063 1.354 1.354 0 01-1.687.509.198.198 0 00-.265.107 1.356 1.356 0 01-2.322.338 1.355 1.355 0 002.613.561.198.198 0 01.264-.107 1.354 1.354 0 001.687-.509.196.196 0 01.26-.063 1.348 1.348 0 001.338 0 .196.196 0 01.26.064 1.354 1.354 0 001.687.508.198.198 0 01.264.107 1.356 1.356 0 002.607-.655z" fill="#F9C301"/>
  <path d="M18.095 18.153c.91 1.326.883 2.994.841 3.566a.137.137 0 01-.202.111c-.468-.249-1.735-1.006-2.63-2.31-1.117-1.625-1.781-3.11-1.231-3.487.55-.377 2.106.494 3.222 2.12z" fill="#13B866"/>
  <path d="M18.096 18.153c-1.117-1.626-2.673-2.497-3.223-2.12a.396.396 0 00-.047.038c.702.28 1.619 1.02 2.348 2.082.777 1.131.87 2.512.856 3.248.296.202.546.345.704.43a.138.138 0 00.203-.112c.041-.572.069-2.24-.841-3.566z" fill="#09A657"/>
  <path d="M19.516 18.153c-.91 1.326-.882 2.994-.841 3.566.007.1.114.158.202.111.468-.249 1.735-1.006 2.63-2.31 1.117-1.625 1.782-3.11 1.232-3.487-.55-.377-2.106.494-3.223 2.12z" fill="#13B866"/>
  <path d="M22.739 16.033c-.217-.149-.59-.103-1.03.106.34.5-.304 1.88-1.336 3.382-.522.76-1.17 1.334-1.714 1.73 0 .193.008.353.016.468.007.1.114.158.202.111.468-.249 1.735-1.006 2.63-2.31 1.117-1.625 1.782-3.11 1.232-3.487z" fill="#09A657"/>
  <path d="M12.543 15.207v-2.206c.618.462 1.493.626 1.995.683a.651.651 0 00.538-.188.652.652 0 00.188-.537c-.055-.482-.208-1.308-.63-1.92a5.051 5.051 0 002.62-4.424v-1.08a.337.337 0 00-.676 0v1.08a4.378 4.378 0 01-5.765 4.146 2.95 2.95 0 00-.942-2.357.337.337 0 10-.457.496c.465.429.732 1.037.732 1.668a2.27 2.27 0 01-3.725 1.74 2.95 2.95 0 00-.711-1.075 2.269 2.269 0 012.539-2.902.338.338 0 00.11-.666 2.965 2.965 0 00-.408-.037 4.392 4.392 0 01-.118-1.013V1.66l1.423 1.68a.568.568 0 00.837.03l2.113-2.148 2.113 2.148a.566.566 0 00.836-.03l1.423-1.68v2.347a.337.337 0 00.675 0v-2.64c0-.241-.146-.45-.371-.533a.561.561 0 00-.628.166l-1.537 1.813L12.61.67A.562.562 0 0012.206.5a.562.562 0 00-.404.17L9.694 2.811 8.157 1A.562.562 0 007.53.833a.562.562 0 00-.372.532v5.25c0 .363.039.723.115 1.074a2.947 2.947 0 00-2.334 3.008 2.946 2.946 0 00-4.21 2.654c0 1.066.567 2.03 1.473 2.55a1.7 1.7 0 00.184 2.012 1.696 1.696 0 001.958.415l3.105 2.65v2.185a.337.337 0 10.675 0v-2.186l3.105-2.65c.197.09.414.14.64.147v4.689a.337.337 0 10.674 0v-4.804a1.695 1.695 0 001.065-1.765 1.693 1.693 0 00-1.065-1.387zM8.123 13.5c.381-.031.741-.135 1.067-.298a.652.652 0 00.708.483c.495-.056 1.353-.216 1.97-.664v2.072c-.17.006-.337.037-.497.092a1.693 1.693 0 00-2.236-.777 1.684 1.684 0 00-1.011-.637v-.27zm6.468-.488c-.804-.095-1.458-.342-1.796-.68a1.63 1.63 0 01-.387-.673 5.014 5.014 0 001.602-.329c.287.36.495.96.581 1.682zm-3.9-1.58a5 5 0 001.013.207c.036.154.082.3.137.435-.059.097-.126.184-.2.258-.338.338-.992.585-1.796.68.012-.1.027-.2.044-.298.369-.346.65-.786.802-1.281zm-3.242 2.047v.292a1.684 1.684 0 00-1.012.636L6.42 14.4a2.953 2.953 0 00.19-1.177c.265.127.548.213.839.256zm-6.046-.127a2.27 2.27 0 012.268-2.267 2.27 2.27 0 012.082 3.163l-.036-.001c-.65 0-1.231.364-1.516.938a1.705 1.705 0 00-.713-.086 1.68 1.68 0 00-.806.294 2.261 2.261 0 01-1.279-2.04zm8.453 4.28c.19 0 .376-.03.554-.093.07.14.157.268.258.381L8.69 19.607l.882-2c.093.016.188.024.284.024zm-1.732 1.59v-2.135c.132-.026.26-.068.382-.126.122.162.27.297.436.404l-.818 1.856zm-.675 0l-.818-1.857a1.69 1.69 0 00.435-.404c.122.058.25.1.383.126v2.134zM6 17.606l.881 2-1.978-1.688c.102-.113.19-.24.259-.38a1.682 1.682 0 00.838.068zm6.683-.144a1.02 1.02 0 01-1.704-.302.537.537 0 00-.714-.29 1.015 1.015 0 01-1.267-.382.532.532 0 00-.711-.175 1.016 1.016 0 01-1.003 0 .532.532 0 00-.711.174 1.015 1.015 0 01-1.267.383.539.539 0 00-.714.29 1.02 1.02 0 01-1.958-.494 1.016 1.016 0 011.42-.816c.134.058.288.06.423.005a.529.529 0 00.293-.295 1.014 1.014 0 011.447-.508c.246.14.559.063.711-.175a1.015 1.015 0 011.714 0 .532.532 0 00.711.175 1.016 1.016 0 011.447.508.53.53 0 00.294.296.543.543 0 00.422-.006 1.016 1.016 0 011.167 1.612z" fill="#000"/>
  <path d="M22.93 15.755c-.788-.54-2.513.49-3.692 2.207a4.485 4.485 0 00-.095.145v-2.089a2.93 2.93 0 001.239-.422.337.337 0 10-.355-.574 2.27 2.27 0 01-3.459-1.93 2.27 2.27 0 012.268-2.267 2.27 2.27 0 012.033 3.273.337.337 0 10.604.3 2.946 2.946 0 00-2.638-4.247 2.946 2.946 0 00-2.941 2.941 2.946 2.946 0 002.575 2.919v2.098c-.031-.05-.062-.099-.095-.147-1.18-1.716-2.904-2.748-3.692-2.207-.406.279-.45.842-.133 1.674.236.62.678 1.41 1.277 2.283.872 1.269 2.07 2.039 2.643 2.358v1.093a.337.337 0 10.674 0V22.07c.573-.32 1.771-1.09 2.643-2.358.599-.873 1.04-1.662 1.278-2.283.317-.832.272-1.395-.134-1.674zm-6.547 3.575c-.57-.83-.986-1.57-1.204-2.141-.237-.622-.164-.845-.115-.878.096-.066.461-.039 1.029.317.608.38 1.237 1.006 1.725 1.716.293.427.508.937.642 1.514a6.984 6.984 0 00-.138 1.334c-.568-.375-1.34-.99-1.94-1.862zm6.05-2.141c-.218.571-.634 1.312-1.203 2.14-.71 1.035-1.664 1.707-2.232 2.046-.01-.676.078-1.984.796-3.03.488-.71 1.117-1.336 1.725-1.717.417-.261.725-.345.897-.345.062 0 .107.01.132.028.049.033.123.256-.115.878z" fill="#000"/>
</svg>
