<svg width="24" height="24" fill="none" xmlns="http://www.w3.org/2000/svg">
  <defs/>
  <path d="M22.42 6.171c0-.768-.546-1.367-1.27-1.505l-7.047-.03H7.83l-1.717.023 2.022 3.15h14.307L22.42 6.17z" fill="#F9BA8F"/>
  <path d="M22.365 5.757L6.121 5.83l1.394 1.789s10.024.686 10.149.686c.099 0 3.037-1.248 4.253-1.766.307-.13.64.04.448-.78z" fill="#E8AD85"/>
  <path d="M23.214 13.164V7.418c0-.658-.534-1.296-1.192-1.296H8.827C7.533 4.729 7.43 3.444 5.529 3.444H.959v15.482c0 .658.534 1.192 1.192 1.192h19.87c.66 0 1.193-.534 1.193-1.192v-5.763z" fill="#FED1A9"/>
  <path d="M18.575 10.101h1.083v5.46h-8.134v-5.46h7.051z" fill="#fff"/>
  <g fill="#FFEFCA">
    <path d="M.959 10.925l.236-.004h2.996V8.648H.96v2.277zM1.195 17.028h2.996v-2.273H.96v2.277l.236-.004z"/>
  </g>
  <path d="M21.133 4.504a.371.371 0 00-.07-.006H7.908a.37.37 0 00-.09.01C7.302 3.82 6.714 3.29 5.442 3.29H.872a.373.373 0 00-.372.373v15.482c0 .863.702 1.565 1.565 1.565h19.87c.863 0 1.565-.702 1.565-1.565v-3.263a.373.373 0 10-.745 0v3.263a.82.82 0 01-.82.82H2.065a.82.82 0 01-.82-.82v-1.41h2.897a.373.373 0 00.372-.372V15.09a.373.373 0 00-.372-.372H1.245V11.64h2.897a.373.373 0 00.372-.372V8.995a.373.373 0 00-.372-.373H1.245V4.036h4.197c1.15 0 1.502.508 2.086 1.35.254.366.542.78.94 1.208.07.076.169.12.272.12h13.195c.43 0 .82.44.82.923v5.745a.373.373 0 10.745 0V7.637c0-.599-.332-1.147-.803-1.442a1.903 1.903 0 00-1.564-1.69zM3.769 15.463v1.527H1.245v-1.527H3.77zm0-6.095v1.527H1.245V9.368H3.77zm4.569-4.125h12.688c.406.088.72.363.858.725H8.905c-.218-.247-.4-.489-.567-.725z" fill="#000"/>
  <path d="M16.097 10.076h-4.622a.373.373 0 00-.373.373v5.46c0 .206.167.373.373.373h8.134a.373.373 0 00.372-.373v-5.46a.373.373 0 00-.372-.373h-1.084a.373.373 0 100 .745h.711v4.715h-7.388v-4.715h4.25a.373.373 0 000-.745z" fill="#000"/>
  <path d="M17.688 11.997h-4.293a.373.373 0 000 .745h4.293a.372.372 0 100-.745zM17.688 13.729h-4.293a.373.373 0 000 .745h4.293a.372.372 0 100-.745z" fill="#000"/>
</svg>
