<svg width="24" height="24" fill="none" xmlns="http://www.w3.org/2000/svg">
  <defs/>
  <path d="M22.383 6.094c0-.768-.546-1.367-1.27-1.504l-7.047-.03H7.793l-1.717.022 2.022 3.15h14.307l-.022-1.638z" fill="#F9BA8F"/>
  <path d="M22.384 6.094l-.068-.442H7.396l3.569 3.568h11.07l.349-3.126z" fill="#E8AD85"/>
  <path d="M19.85 6.06V3.264h-4.465v2.798" fill="#FFEFCA"/>
  <path d="M15.385 3.263v3.21h1.477V3.262h-1.477z" fill="#FFDFA1"/>
  <path d="M23.177 13.087V7.342c0-.659-.534-1.297-1.193-1.297H8.79C7.496 4.652 7.393 3.367 5.492 3.367H.922V18.85c0 .659.534 1.192 1.192 1.192h19.87c.659 0 1.193-.533 1.193-1.192V13.087z" fill="#FED1A9"/>
  <path d="M9.371 12.77V9.035H3.257v6.973H9.37V12.77z" fill="#fff"/>
  <path d="M6.32 13.286a1.457 1.457 0 100-2.915 1.457 1.457 0 000 2.915z" fill="#FFEFCA"/>
  <path d="M2.065 20.762h19.87c.863 0 1.565-.702 1.565-1.565v-3.262a.373.373 0 10-.745 0v3.262a.82.82 0 01-.82.82H2.065a.82.82 0 01-.82-.82V4.087h4.197c1.15 0 1.502.509 2.086 1.351.254.366.542.78.94 1.209.07.076.169.119.272.119h13.195c.43 0 .82.44.82.923v5.746a.373.373 0 00.745 0V7.689c0-.599-.332-1.147-.803-1.442-.084-.837-.703-1.512-1.564-1.676a.373.373 0 00-.14.732c.42.08.745.354.889.718h-1.709V3.61a.373.373 0 00-.372-.373h-4.466a.373.373 0 00-.372.373v2.41H8.905a8.557 8.557 0 01-.578-.741h5.69a.373.373 0 100-.745H7.799c-.512-.677-1.101-1.192-2.356-1.192H.873a.373.373 0 00-.373.372v15.482c0 .863.702 1.565 1.565 1.565zM19.428 6.02h-2.243V3.983h2.243V6.02zm-3.72-2.037h.732V6.02h-.732V3.983z" fill="#000"/>
  <path d="M19.558 11.997h-6.32a.373.373 0 100 .745h6.32a.373.373 0 100-.745zM19.558 14.127h-6.32a.372.372 0 100 .745h6.32a.373.373 0 100-.745zM9.322 13.491a.373.373 0 00.372-.372V9.38a.373.373 0 00-.372-.372H3.208a.373.373 0 00-.373.372v6.973c0 .206.167.373.373.373h6.114a.373.373 0 00.372-.373V14.7a.373.373 0 00-.745 0v1.283H3.58V9.754h5.37v3.365c0 .205.166.372.372.372z" fill="#000"/>
  <path d="M6.27 10.347c-.99 0-1.799.79-1.829 1.773a.373.373 0 00.005.197c.072.943.862 1.69 1.823 1.69A1.832 1.832 0 008.1 12.21v-.012-.022c0-1.009-.82-1.83-1.83-1.83zm0 2.914c-.455 0-.845-.281-1.006-.679h.41a.373.373 0 100-.745h-.435c.143-.432.55-.745 1.03-.745s.887.313 1.03.745h-.443a.373.373 0 100 .745h.419c-.161.398-.551.679-1.006.679zM4.17 14.859c0 .206.167.372.373.372h3.444a.373.373 0 100-.745H4.543a.373.373 0 00-.373.373z" fill="#000"/>
</svg>
