<svg width="24" height="24" fill="none" xmlns="http://www.w3.org/2000/svg">
  <defs/>
  <path d="M4.93 2.697h14.14v18.605H4.93V2.697z" fill="#A8EBFA"/>
  <path d="M17.71 2.697h1.36v18.605h-1.36V2.697z" fill="#76E2F8"/>
  <path d="M18.698 3.954h1.488v16.092h-1.488V3.954zM6.236 1.581h11.527v1.488H6.236V1.581z" fill="#68544F"/>
  <path d="M16.22 1.581h1.543v1.488h-1.542V1.581z" fill="#53433F"/>
  <path d="M6.236 20.93h11.527v1.489H6.236V20.93z" fill="#68544F"/>
  <path d="M16.22 20.93h1.543v1.489h-1.542V20.93z" fill="#53433F"/>
  <path d="M17.209 22.893v-3.182c0-.148.12-.27.27-.27h3.181c.15 0 .27.122.27.27v3.183a.27.27 0 01-.27.269H17.48a.27.27 0 01-.27-.27z" fill="#FFD400"/>
  <path d="M20.66 19.442h-.988c.149 0 .27.12.27.27v3.181a.27.27 0 01-.27.27h.988a.27.27 0 00.27-.27v-3.182a.27.27 0 00-.27-.27z" fill="#FF9F00"/>
  <path d="M17.209 4.288V1.106c0-.148.12-.27.27-.27h3.181c.15 0 .27.122.27.27v3.182a.27.27 0 01-.27.27H17.48a.27.27 0 01-.27-.27z" fill="#FFD400"/>
  <path d="M20.66.837h-.988c.149 0 .27.12.27.27v3.181a.27.27 0 01-.27.27h.988a.27.27 0 00.27-.27V1.106a.27.27 0 00-.27-.27z" fill="#FF9F00"/>
  <path d="M3.813 3.954h1.489v16.092H3.813V3.954z" fill="#68544F"/>
  <path d="M19.07 3.779a1.082 1.082 0 000-2.163 1.082 1.082 0 000 2.163z" fill="#FFE470"/>
  <path d="M3.07 22.893v-3.182c0-.148.12-.27.269-.27H6.52c.149 0 .27.122.27.27v3.183a.27.27 0 01-.27.269H3.339a.27.27 0 01-.27-.27z" fill="#FFD400"/>
  <path d="M6.52 19.442h-.988c.149 0 .27.12.27.27v3.181a.27.27 0 01-.27.27h.989a.27.27 0 00.269-.27v-3.182a.27.27 0 00-.27-.27z" fill="#FF9F00"/>
  <path d="M3.07 4.288V1.106c0-.148.12-.27.269-.27H6.52c.149 0 .27.122.27.27v3.182a.27.27 0 01-.27.27H3.339a.27.27 0 01-.27-.27z" fill="#FFD400"/>
  <path d="M6.52.837h-.988c.149 0 .27.12.27.27v3.181a.27.27 0 01-.27.27h.989a.27.27 0 00.269-.27V1.106a.27.27 0 00-.27-.27z" fill="#FF9F00"/>
  <path d="M12 14.232a1.86 1.86 0 01-3.694.319.27.27 0 01.265-.319H12z" fill="#56C225"/>
  <path d="M11.708 14.232h-.988a.27.27 0 01.265.319 1.863 1.863 0 01-1.339 1.475 1.861 1.861 0 002.327-1.476.27.27 0 00-.265-.318z" fill="#49A520"/>
  <path d="M15.428 14.232a.27.27 0 01.266.319A1.86 1.86 0 0112 14.233h3.428z" fill="#56C225"/>
  <path d="M13.93 7.183a2.234 2.234 0 00-1.887 1.775.044.044 0 01-.086 0 2.234 2.234 0 00-1.886-1.775.269.269 0 00-.303.267v3.397c0 1.224.97 2.248 2.194 2.269 1.25.02 2.27-.987 2.27-2.232V7.45a.269.269 0 00-.302-.267z" fill="#FF4B00"/>
  <path d="M13.93 7.183a2.215 2.215 0 00-.692.213.264.264 0 01.006.054v3.434a2.233 2.233 0 01-1.737 2.176 2.233 2.233 0 002.726-2.177V7.45a.269.269 0 00-.304-.267z" fill="#DD3400"/>
  <path d="M15.428 14.232h-.988a.27.27 0 01.266.319 1.863 1.863 0 01-1.339 1.475 1.86 1.86 0 002.327-1.476.27.27 0 00-.265-.318z" fill="#49A520"/>
  <path d="M20.93 4.895c.186 0 .337-.15.337-.337V.837A.337.337 0 0020.93.5h-3.72a.337.337 0 00-.338.337v.407H7.127V.837A.337.337 0 006.79.5H3.07a.337.337 0 00-.338.337v3.721c0 .186.151.337.337.337h.408v14.21h-.408a.337.337 0 00-.337.337v3.721c0 .186.151.337.337.337H6.79c.186 0 .337-.15.337-.337v-.407h1.846a.337.337 0 100-.674H7.127v-.815h9.745v.815H10.32a.337.337 0 000 .674h6.552v.407c0 .186.151.337.337.337h3.721c.186 0 .337-.15.337-.337v-3.721a.337.337 0 00-.337-.337h-.407V4.895h.407zm-3.384-3.721h3.047V4.22h-3.047V1.174zm-.674.744v.814H7.127v-.814h9.745zM3.406 1.174h3.048V4.22H3.406V1.174zm.744 3.721h.815v14.21H4.15V4.895zm-.744 17.931V19.78h3.048v3.047H3.406zm3.721-2.232v-1.152a.337.337 0 00-.337-.337H5.64V4.895H6.79c.186 0 .337-.15.337-.337V3.406h9.745v1.152c0 .186.151.337.337.337h1.152v14.21h-1.152a.337.337 0 00-.337.337v1.152H7.127zm13.466 2.232h-3.047V19.78h3.047v3.047zm-.744-3.721h-.814V4.895h.814v14.21z" fill="#000"/>
  <path d="M4.93 3.779a1.082 1.082 0 000-2.163 1.082 1.082 0 000 2.163zm0-1.489a.408.408 0 11-.001.816.408.408 0 010-.816zM19.07 3.779a1.082 1.082 0 000-2.163 1.082 1.082 0 000 2.163zm0-1.489a.408.408 0 11-.001.815.408.408 0 010-.815zM4.93 20.221a1.082 1.082 0 101.081 1.081c0-.596-.485-1.08-1.081-1.08zm0 1.489a.408.408 0 110-.816.408.408 0 010 .816zM19.07 20.221a1.082 1.082 0 101.081 1.081c0-.596-.485-1.08-1.082-1.08zm0 1.489a.408.408 0 110-.816.408.408 0 010 .816zM15.72 13.896h-3.384v-.466a2.573 2.573 0 002.233-2.546V7.163a.337.337 0 00-.337-.337c-.955 0-1.79.523-2.232 1.298a2.572 2.572 0 00-2.233-1.298.337.337 0 00-.337.337v3.72c0 1.303.974 2.382 2.233 2.547v.466H8.278a.337.337 0 00-.337.336 2.2 2.2 0 002.198 2.198 2.19 2.19 0 001.524-.616v1.023a.337.337 0 10.673 0v-1.023c.396.38.933.616 1.524.616a2.2 2.2 0 002.197-2.197.337.337 0 00-.337-.337zm-5.616-3.012V7.53c.885.159 1.559.935 1.559 1.865a.337.337 0 10.673 0c0-.93.674-1.706 1.56-1.865v3.354c0 1.045-.851 1.895-1.897 1.895a1.898 1.898 0 01-1.895-1.895zm.035 4.872a1.526 1.526 0 01-1.486-1.187h2.972a1.526 1.526 0 01-1.486 1.187zm3.72 0a1.526 1.526 0 01-1.485-1.187h2.972a1.526 1.526 0 01-1.486 1.187z" fill="#000"/>
</svg>
