<svg width="24" height="24" fill="none" xmlns="http://www.w3.org/2000/svg">
  <defs/>
  <g fill="#CFDCE5">
    <path d="M23.112 20.188H.944v2.553h22.168v-2.553z"/>
    <path d="M21.51 1.26H2.546v18.928H21.51V1.259z"/>
  </g>
  <g fill="#fff">
    <path d="M11.138 2.96h-6.81v15.528h6.81V2.959zM19.73 2.958h-6.81v15.529h6.81V2.958z"/>
  </g>
  <g fill="#FF6F52">
    <path d="M19.73 2.96v9.324a5.334 5.334 0 00-.271.151c-5.665-.206-6.54-6.875-6.54-6.875v-2.6h6.81zM19.73 12.44v6.049h-3.91s.555-4.226 3.638-6.054c.09.003.18.005.271.005zM11.138 2.959v2.6s-.874 6.67-6.539 6.875a5.352 5.352 0 00-.27-.151V2.959h6.81z"/>
  </g>
  <g fill="#E25749">
    <path d="M11.138 2.959h-6.81v2.247h6.81V2.959zM19.73 2.959h-6.81v2.247h6.81V2.96z"/>
  </g>
  <path d="M4.328 12.44v6.048h3.91s-.555-4.226-3.639-6.054a7.13 7.13 0 01-.27.006z" fill="#FF6F52"/>
  <path d="M23.084 19.772h-1.186V1.259a.416.416 0 00-.416-.416h-2.774a.416.416 0 100 .832h2.358v18.097H2.934V1.675h14.387a.416.416 0 000-.832H2.518a.416.416 0 00-.416.416v18.513H.916a.416.416 0 00-.416.416v2.553c0 .23.186.416.416.416h2.062a.416.416 0 000-.832H1.332v-1.721h21.336v1.72H4.365a.416.416 0 100 .833h18.719c.23 0 .416-.186.416-.416v-2.553a.416.416 0 00-.416-.416z" fill="#000"/>
  <path d="M11.109 13.223c.23 0 .416-.186.416-.416V2.96a.416.416 0 00-.416-.416h-6.81a.416.416 0 00-.416.416v15.529c0 .23.186.416.416.416h6.81c.23 0 .416-.186.416-.416v-4.294a.416.416 0 00-.832 0v3.878H8.559c-.187-.968-.866-3.627-2.873-5.347 1.934-.38 3.507-1.578 4.596-3.522.155-.276.29-.551.41-.82v4.424c0 .23.187.416.417.416zm-3.402 4.849H4.715v-5.047c2.01 1.42 2.76 3.992 2.992 5.047zm1.85-9.276c-1.127 2.01-2.755 3.09-4.842 3.215V3.375h5.978V5.53c-.031.21-.283 1.743-1.137 3.267zM19.7 2.543h-6.81a.416.416 0 00-.415.416v15.529c0 .23.186.416.416.416H19.7c.23 0 .416-.186.416-.416V2.959a.416.416 0 00-.416-.416zm-.415.832v8.636c-2.08-.125-3.704-1.198-4.83-3.194a10.445 10.445 0 01-1.148-3.288V3.375h5.978zm-5.978 5.009c.12.268.256.543.41.819 1.09 1.944 2.662 3.142 4.597 3.522-2.008 1.72-2.686 4.379-2.874 5.347h-2.133V8.384zm2.986 9.688c.231-1.055.981-3.627 2.992-5.047v5.047h-2.992z" fill="#000"/>
</svg>
