<svg width="24" height="24" fill="none" xmlns="http://www.w3.org/2000/svg">
  <defs/>
  <path d="M17.009 4.821v3.594H.837V4.82h16.171z" fill="#ED5565"/>
  <path d="M19.12 14.255c1.348 0 2.246 2.247 4.043 2.247v3.593H1.735v-3.593H16.11v-2.246h3.01z" fill="#CCD1D9"/>
  <path d="M5.779 17.867a2.228 2.228 0 110 4.457 2.228 2.228 0 010-4.457z" fill="#656D78"/>
  <path d="M16.11 8.415H1.736v8.087h14.376V8.415z" fill="#DA4453"/>
  <path d="M10.72 4.821c0-.838-.573-1.541-1.348-1.74.45-.507 1.792-1.405 3.145-1.405 1.985 0 2.246 1.16 2.246 3.145H10.72z" fill="#E8AA3D"/>
  <path d="M18.67 17.867a2.228 2.228 0 110 4.457 2.228 2.228 0 010-4.457z" fill="#656D78"/>
  <path d="M8.474 3.08a1.798 1.798 0 00-1.348 1.74v.001H3.083c0-1.985.261-3.145 2.246-3.145 1.353 0 2.695.899 3.145 1.404z" fill="#F6BB42"/>
  <g fill="#FFCE54">
    <path d="M7.126 4.82a1.798 1.798 0 013.594 0v.001H7.126z"/>
    <path d="M10.72 4.82v3.595H7.126V4.82h3.593z"/>
  </g>
  <path d="M10.72 8.415H7.126v8.087h3.594V8.415z" fill="#F6BB42"/>
  <g fill="#CCD1D9">
    <path d="M5.778 19.197a.898.898 0 110 1.797.898.898 0 010-1.797zM18.67 19.197a.898.898 0 110 1.797.898.898 0 010-1.797z"/>
  </g>
  <path d="M19.12 11.56h-3.009v2.695h3.01c1.347 0 2.246 2.247 4.042 2.247v-.898a4.04 4.04 0 00-4.043-4.043z" fill="#5D9CEC"/>
  <path d="M19.12 11.56h-1.348a4.04 4.04 0 014.043 4.044v.455c.398.26.836.443 1.348.443v-.898a4.04 4.04 0 00-4.043-4.043z" fill="#4A89DC"/>
  <path d="M21.815 20.095h1.348v-3.593c-.512 0-.95-.183-1.348-.443v4.036z" fill="#AAB2BC"/>
  <path d="M16.11 8.431h-1.347v8.07h1.348v-8.07z" fill="#CE3A50"/>
  <path d="M17.01 4.82H15.66v3.595h1.348V4.82z" fill="#DA4453"/>
  <path d="M19.12 11.223h-2.672V8.752h.56c.187 0 .338-.15.338-.336V4.82a.337.337 0 00-.337-.337h-1.912c-.03-1.695-.342-3.145-2.58-3.145-1.411 0-2.706.85-3.258 1.375a2.139 2.139 0 00-.673 0C8.035 2.188 6.74 1.339 5.33 1.339c-2.238 0-2.55 1.45-2.58 3.145H.837A.337.337 0 00.5 4.82v3.594c0 .186.15.336.337.336h.561v3.258a.337.337 0 00.674 0V8.77H6.79v7.396H2.072v-2.808a.337.337 0 00-.674 0v6.738a.337.337 0 00.337.337h1.501a2.569 2.569 0 002.543 2.229c1.3 0 2.376-.973 2.542-2.229h7.807a2.569 2.569 0 002.543 2.229c1.3 0 2.377-.973 2.542-2.229h1.95c.186 0 .337-.15.337-.336v-4.492a4.385 4.385 0 00-4.38-4.38zm3.706 4.38v.529c-.673-.13-1.223-.634-1.758-1.123-.496-.454-1.007-.921-1.611-1.053v-2.043a3.71 3.71 0 013.37 3.69zm-4.043-3.706v2.022h-2.335v-2.022h2.335zm-7.726 4.268V8.768h4.717v7.397h-4.717zm-.674-11.007v2.92h-2.92v-2.92h2.92zm6.289 2.92h-5.615v-2.92h5.615v2.92zm-4.155-6.065c1.056 0 1.397.353 1.576.66.252.434.317 1.109.33 1.81H11.03a2.138 2.138 0 00-1.04-1.51c.571-.44 1.557-.96 2.527-.96zm-2.174 2.47h-2.84a1.462 1.462 0 011.42-1.122c.689 0 1.268.48 1.42 1.123zm-6.59-1.81c.179-.307.52-.66 1.576-.66.97 0 1.955.52 2.527.96a2.138 2.138 0 00-1.04 1.51H3.423c.013-.701.077-1.376.33-1.81zm-2.58 2.485H6.79v2.92H1.174v-2.92zm6.29 3.61h2.92v7.397h-2.92V8.768zm8.648 8.07c.186 0 .337-.15.337-.336v-1.91h2.672c.494 0 .957.424 1.493.915.61.558 1.294 1.182 2.213 1.308v2.944h-1.613a2.569 2.569 0 00-2.542-2.229c-1.3 0-2.377.973-2.543 2.229H8.321a2.569 2.569 0 00-2.542-2.229c-1.3 0-2.377.973-2.543 2.229H2.072v-2.92h14.039zM5.779 21.988a1.894 1.894 0 01-1.892-1.892c0-1.043.849-1.891 1.892-1.891 1.042 0 1.891.848 1.891 1.891a1.894 1.894 0 01-1.891 1.892zm12.892 0a1.894 1.894 0 01-1.892-1.892c0-1.043.849-1.891 1.892-1.891s1.891.848 1.891 1.891a1.894 1.894 0 01-1.891 1.892z" fill="#000"/>
  <path d="M5.778 18.86a1.237 1.237 0 000 2.47c.682 0 1.236-.553 1.236-1.235 0-.68-.554-1.235-1.236-1.235zm0 1.797a.562.562 0 11.002-1.124.562.562 0 01-.002 1.124zM18.67 18.86a1.237 1.237 0 000 2.47c.682 0 1.236-.553 1.236-1.235 0-.68-.554-1.235-1.235-1.235zm0 1.797a.562.562 0 11.002-1.124.562.562 0 01-.001 1.124z" fill="#000"/>
</svg>
