<svg width="24" height="24" fill="none" xmlns="http://www.w3.org/2000/svg">
  <defs/>
  <path d="M19.955 20.852l-.518-3.989V5.181l.518-3.99a.315.315 0 00-.353-.352l-3.371.437H6.059L2.688.84a.315.315 0 00-.352.353l.517 3.989v11.682l-.517 3.99a.314.314 0 00.352.351l3.371-.437h10.172l3.371.438a.314.314 0 00.353-.353z" fill="#DAF4F8"/>
  <path d="M19.438 16.863V5.181l.517-3.99a.314.314 0 00-.353-.352l-1.46.19-.329 2.528v11.682l.37 2.848a1.2 1.2 0 01-1.346 1.346l-2.23-.29H4.435l-1.91.248-.19 1.461a.314.314 0 00.353.352l3.371-.437h10.172l3.371.438a.314.314 0 00.353-.353l-.517-3.989z" fill="#A5E4EF"/>
  <path d="M21.668 15.723c0-.417-.258-.79-.647-.94a3.086 3.086 0 00-1.112-.202c-1.376 0-7.247.21-7.247 1.93 0 1.721 5.87 1.93 7.247 1.93.412 0 .8-.077 1.143-.214a.995.995 0 00.616-.927v-1.577z" fill="#FDDE2E"/>
  <path d="M21.022 14.783c-.127-.049-.26-.09-.398-.122v1.596c0 .404-.24.776-.615.926-.343.137-.731.215-1.143.215-1.011 0-4.45-.113-6.202-.856.07 1.692 5.878 1.9 7.245 1.9.412 0 .8-.078 1.143-.215a.995.995 0 00.616-.927v-1.578c0-.416-.258-.788-.646-.939z" fill="#F9C301"/>
  <path d="M14.41 20.81a2.352 2.352 0 01-4.704 0c0-1.298 1.053-1.853 2.352-1.853s2.351.555 2.351 1.854z" fill="#FB4753"/>
  <path d="M13.304 19.173c.064.187.099.397.099.631a2.352 2.352 0 01-3.433 2.088 2.35 2.35 0 004.44-1.081c0-.841-.442-1.37-1.106-1.638z" fill="#E21F2D"/>
  <path d="M7.472 19.638a2.446 2.446 0 100-4.892 2.446 2.446 0 000 4.892z" fill="#FB4753"/>
  <path d="M8.617 15.03a2.446 2.446 0 01-3.306 3.306 2.445 2.445 0 103.306-3.306z" fill="#E21F2D"/>
  <path d="M5.267 1.513l.75.098a.341.341 0 00.043.002H16.23c.015 0 .03 0 .043-.002l3.343-.434-.514 3.96a.33.33 0 00-.002.044v5.21a.337.337 0 00.674 0V5.202l.514-3.967a.647.647 0 00-.185-.545.647.647 0 00-.545-.185l-3.35.434H6.081L5.354.845a.337.337 0 10-.087.668zM21.143 14.47a3.403 3.403 0 00-1.234-.225h-.134v-2.272a.337.337 0 00-.674 0v2.287c-.818.028-2.124.103-3.386.309-2.281.372-3.39 1.008-3.39 1.943s1.109 1.571 3.39 1.943c1.397.228 2.848.296 3.63.316l.272 2.096-3.343-.433a.33.33 0 00-.043-.003h-1.514c-.138-.873-.761-1.48-1.733-1.709a.337.337 0 00-.563-.138l-.046.048a4.59 4.59 0 00-.633 0l-.047-.048a.337.337 0 00-.563.138c-.971.229-1.595.836-1.733 1.71h-3.34c-.014 0-.028 0-.043.002l-3.342.433.513-3.96a.341.341 0 00.003-.043V5.182a.342.342 0 00-.003-.044l-.513-3.96 1.053.137a.337.337 0 00.087-.669L2.731.506a.648.648 0 00-.544.185.647.647 0 00-.185.545l.514 3.967v11.64l-.514 3.967c-.027.202.041.4.185.544a.646.646 0 00.545.186l3.35-.435h3.304a2.692 2.692 0 002.672 2.395 2.692 2.692 0 002.672-2.395h1.48l3.35.435a.646.646 0 00.544-.185.647.647 0 00.185-.545l-.264-2.033c.404-.013.791-.092 1.152-.236.503-.202.828-.688.828-1.24v-1.577c0-.56-.339-1.051-.862-1.254zm-9.085 8.356a2.017 2.017 0 01-2.015-2.014c0-1.02.755-1.37 1.445-1.475l.33.335a.337.337 0 00.48 0l.33-.335c.69.105 1.445.454 1.445 1.475 0 1.11-.904 2.014-2.015 2.014zm9.273-5.525c0 .27-.163.517-.405.614-.31.125-.662.19-1.017.19-.8 0-2.559-.066-4.085-.315-1.77-.289-2.825-.766-2.825-1.278s1.056-.99 2.825-1.278c1.526-.249 3.286-.315 4.085-.315.349 0 .682.06.99.18a.667.667 0 01.432.624v1.578z" fill="#000"/>
  <path d="M4.568 8.615h.962l-.514.516a.337.337 0 10.478.475l.986-.991h.678c.06.473.247.907.526 1.267l-.982.983-.256-.256a.337.337 0 10-.476.477l.255.255-.373.373a.337.337 0 10.477.477l.373-.373.238.238a.336.336 0 00.477 0 .337.337 0 000-.476l-.239-.239.983-.982c.36.279.794.465 1.267.526v.678l-.991.986a.337.337 0 00.475.478l.516-.514v.962a.337.337 0 00.674 0v-.962l.517.514a.337.337 0 10.475-.478l-.992-.986v-.678c.474-.06.908-.247 1.268-.526l.982.982-.255.256a.337.337 0 10.477.476l.255-.255.373.373a.336.336 0 00.476 0 .337.337 0 000-.477l-.373-.373.239-.238a.337.337 0 00-.477-.477l-.238.239-.982-.982c.278-.36.465-.795.526-1.268h.677l.986.991a.336.336 0 00.477.002.337.337 0 00.001-.477l-.513-.516h.961a.337.337 0 000-.674h-.961l.513-.517a.337.337 0 10-.477-.475l-.987.992h-.677a2.616 2.616 0 00-.526-1.268l.982-.982.255.255a.336.336 0 00.477 0 .337.337 0 000-.477l-.255-.255.372-.373a.337.337 0 10-.476-.476l-.373.373-.239-.239a.337.337 0 10-.476.477l.238.238-.982.982a2.616 2.616 0 00-1.268-.526v-.677l.992-.986a.337.337 0 00-.475-.478l-.517.513v-.961a.337.337 0 00-.674 0v.961l-.516-.513a.337.337 0 00-.475.478l.991.986v.677c-.473.061-.907.248-1.267.526l-.983-.982.256-.255a.337.337 0 10-.477-.477l-.255.256-.373-.373a.337.337 0 10-.477.476l.373.373-.238.239a.337.337 0 10.476.476l.239-.238.982.982c-.279.36-.465.794-.526 1.268H6.48l-.986-.992a.337.337 0 00-.478.475l.514.517h-.962a.337.337 0 000 .674zm3.271 0h1.113l-.786.786a1.945 1.945 0 01-.327-.786zm.803 1.262l.786-.786v1.113a1.943 1.943 0 01-.786-.327zm1.46.327V9.09l.786.786c-.23.163-.497.277-.786.327zm1.263-.803l-.786-.786h1.112c-.05.288-.164.555-.326.786zm.326-1.46H10.58l.786-.786c.162.23.276.497.326.786zm-.803-1.263l-.786.786V6.352c.289.05.556.164.786.326zm-1.46-.326v1.112l-.786-.786c.23-.162.498-.276.786-.326zm-1.262.803l.786.786H7.839c.05-.289.164-.556.327-.786zM5.66 18.27a.337.337 0 00-.58.344c.5.84 1.417 1.361 2.393 1.361a2.786 2.786 0 002.783-2.783 2.786 2.786 0 00-2.783-2.783 2.777 2.777 0 00-2.767 2.48.337.337 0 00.67.073 2.104 2.104 0 012.097-1.879c1.163 0 2.109.946 2.109 2.11a2.111 2.111 0 01-2.11 2.108A2.12 2.12 0 015.66 18.27z" fill="#000"/>
  <path d="M6.649 17.573a.336.336 0 00.476 0l.347-.347.347.347a.336.336 0 00.477 0 .337.337 0 000-.477l-.347-.347.347-.347a.337.337 0 10-.477-.477l-.347.347-.347-.346a.337.337 0 00-.476.476l.346.347-.346.347a.337.337 0 000 .477zM16.449 16.925a.414.414 0 100-.827.414.414 0 000 .827zM18.198 16.215a.413.413 0 10-.584-.585.413.413 0 00.584.585zM19.277 16.215a.414.414 0 10-.586-.585.414.414 0 00.586.585z" fill="#000"/>
</svg>
