<svg width="24" height="24" fill="none" xmlns="http://www.w3.org/2000/svg">
  <defs/>
  <path d="M9.037 19.446a8.226 8.226 0 100-16.452 8.226 8.226 0 000 16.452z" fill="#FB9539"/>
  <path d="M13.511 4.317A8.226 8.226 0 012.133 15.695 8.226 8.226 0 1013.512 4.316z" fill="#FC7601"/>
  <path d="M5.625 7.367l.08.162c.05.102.147.172.26.189l.178.026c.284.04.397.39.192.59l-.13.125a.346.346 0 00-.099.306l.03.178a.346.346 0 01-.5.365l-.16-.084a.346.346 0 00-.322 0l-.16.084a.346.346 0 01-.502-.365l.03-.178a.346.346 0 00-.099-.306l-.129-.126a.346.346 0 01.192-.59l.178-.025a.346.346 0 00.26-.19l.08-.161a.346.346 0 01.62 0z" fill="#4ACB8C"/>
  <path d="M6.143 7.744l-.178-.026-.006-.002a.342.342 0 01-.09.15l-.13.127a.346.346 0 00-.1.306l.031.177a.346.346 0 01-.501.365l-.16-.084a.346.346 0 00-.322 0l-.16.084-.018.008-.016.094a.346.346 0 00.501.365l.16-.084a.346.346 0 01.322 0l.16.084a.346.346 0 00.501-.365l-.03-.178a.346.346 0 01.099-.306l.13-.126a.346.346 0 00-.193-.59z" fill="#13B766"/>
  <path d="M22.857 13.529l-2.955.24.649 1.896 2.483-1.62c.245-.159.115-.54-.177-.516z" fill="#4ACB8C"/>
  <path d="M22.857 13.529l-.32.026a.282.282 0 01-.095.102l-2.108 1.374.217.634 2.483-1.62c.245-.159.115-.54-.177-.516z" fill="#13B766"/>
  <path d="M19.362 11.235l.956 2.806-1.998.16.497-2.922c.05-.288.45-.32.545-.044z" fill="#4ACB8C"/>
  <path d="M18.776 11.519l.878 2.576.664-.054-.956-2.806c-.095-.276-.496-.244-.545.044l-.04.24z" fill="#13B766"/>
  <path d="M21.169 11.795l-2.187 2.003 1.676 1.1.967-2.803c.096-.276-.241-.497-.456-.3z" fill="#4ACB8C"/>
  <path d="M21.624 12.095c.096-.277-.24-.497-.456-.3l-.215.197-.872 2.527.576.378.967-2.802z" fill="#13B766"/>
  <path d="M21.825 18.146c-1.027 1.565-5.135 3.434-6.264 2.693-1.13-.741-1.05-5.253-.024-6.818 1.027-1.565 2.628-.937 4.364.202 1.737 1.14 2.95 2.359 1.924 3.923z" fill="#FB4753"/>
  <path d="M21.727 15.775a2.287 2.287 0 01-.336.767c-1.027 1.565-5.135 3.433-6.264 2.693a1.096 1.096 0 01-.331-.377c.104.944.354 1.712.765 1.98 1.129.742 5.237-1.127 6.264-2.691.58-.886.444-1.66-.098-2.372z" fill="#E21F2D"/>
  <path d="M.817 10.751a.337.337 0 00.368-.303 7.855 7.855 0 017.852-7.117c2.19 0 4.301.923 5.79 2.531a.337.337 0 00.495-.458 8.534 8.534 0 00-6.285-2.747c-2.141 0-4.19.795-5.771 2.237a8.54 8.54 0 00-2.752 5.49.337.337 0 00.303.367zM12.014 11.072a.527.527 0 100-1.054.527.527 0 000 1.053zM10.817 12.273a.527.527 0 100-1.053.527.527 0 000 1.053zM4.99 14.547a.527.527 0 100-1.053.527.527 0 000 1.053z" fill="#000"/>
  <path d="M10.688 5.906a.527.527 0 100-1.053.527.527 0 000 1.053zM6.57 8.575a.678.678 0 00.173-.7.679.679 0 00-.551-.465l-.179-.026a.009.009 0 01-.006-.005l-.08-.161a.678.678 0 00-.612-.38.678.678 0 00-.612.38l-.08.161a.009.009 0 01-.007.005l-.178.026a.679.679 0 00-.552.465.678.678 0 00.173.7l.13.126a.009.009 0 01.002.007l-.03.178a.679.679 0 00.271.668.678.678 0 00.719.052l.16-.084a.01.01 0 01.008 0l.16.084a.683.683 0 00.99-.72l-.03-.178c0-.002 0-.005.002-.007l.13-.126zm-.47-.483l-.13.126a.682.682 0 00-.196.604l.03.178.001.005a.015.015 0 01-.009.006l-.004-.002-.16-.084a.682.682 0 00-.635 0l-.16.084-.004.002a.016.016 0 01-.009-.006V9l.03-.178a.682.682 0 00-.195-.604l-.13-.126-.002-.003c-.001-.003 0-.01.003-.011l.004-.001.179-.026a.683.683 0 00.514-.373l.08-.162.002-.004c.002-.002.009-.002.011 0l.003.004.08.162c.099.201.291.34.514.373l.178.026h.004a.016.016 0 01.004.011s0 .002-.003.004zM23.465 13.61a.61.61 0 00-.635-.417l-1.263.103.376-1.091a.61.61 0 00-.245-.72.61.61 0 00-.757.062l-.851.78-.41-1.2a.61.61 0 00-.634-.417.61.61 0 00-.56.512l-.294 1.723a3.688 3.688 0 00-.692-.17l-.041-.006c.093-.509.14-1.028.14-1.549a8.536 8.536 0 00-1.335-4.595.337.337 0 10-.569.362 7.863 7.863 0 011.231 4.233 7.95 7.95 0 01-.154 1.556c-.61.098-1.118.452-1.517 1.06-.5.763-.745 2.017-.823 3.14a7.85 7.85 0 01-5.395 2.133c-4.088 0-7.542-3.188-7.864-7.257a.336.336 0 10-.672.053 8.532 8.532 0 002.712 5.592 8.535 8.535 0 005.824 2.286c1.97 0 3.85-.667 5.367-1.89.008.893.134 2.678.972 3.227.225.148.53.223.906.223.154 0 .32-.013.5-.038a.337.337 0 10-.094-.667c-.588.082-.843-.016-.943-.081-.327-.215-.676-1.188-.668-2.817.007-1.471.298-2.859.742-3.534.404-.616.908-.86 1.588-.764.597.083 1.33.42 2.31 1.063.978.642 1.58 1.181 1.895 1.696.357.585.335 1.145-.07 1.76-.499.762-1.95 1.727-3.45 2.294a.337.337 0 10.238.63c1.345-.509 3.1-1.525 3.776-2.554.548-.835.575-1.67.08-2.481a3.689 3.689 0 00-.431-.568l1.463-.954a.61.61 0 00.247-.718zm-4.352-2.06l.434 1.273-.528.484a8.125 8.125 0 00-.188-.095l.282-1.662zm.522 2.106l1.6-1.466-.474 1.376v.002l-.233.674a15.572 15.572 0 00-.893-.586zm1.62 1.147a8.085 8.085 0 00-.162-.135l.234-.677 1.34-.109-1.412.921z" fill="#000"/>
  <path d="M18.913 16.81a.336.336 0 00.26.046l.652-.15a.337.337 0 10-.15-.656l-.31.07-.058-.311a.337.337 0 00-.663.123l.123.657c.017.09.07.17.146.22zM18.373 18.901a.337.337 0 00-.404-.253l-.31.071-.057-.312a.337.337 0 00-.663.123l.123.658a.336.336 0 00.406.267l.652-.15a.337.337 0 00.253-.404zM17.773 15.923a.337.337 0 00-.403-.253l-.31.071-.058-.312a.337.337 0 00-.662.123l.122.657a.337.337 0 00.407.267l.651-.15a.337.337 0 00.253-.403z" fill="#000"/>
</svg>
