<svg width="24" height="24" fill="none" xmlns="http://www.w3.org/2000/svg">
  <defs/>
  <path d="M7.921 15.858a7.08 7.08 0 100-14.16 7.08 7.08 0 000 14.16z" fill="#FE73C5"/>
  <path d="M7.922 1.698c-.23 0-.458.011-.683.033a7.08 7.08 0 010 14.095 7.08 7.08 0 10.682-14.128z" fill="#FE4FB7"/>
  <path d="M7.922 8.778l4.7-5.295a7.08 7.08 0 012.38 5.295h-7.08z" fill="#FFF9F0"/>
  <path d="M14.38 5.876a7.08 7.08 0 00-1.758-2.393l-.651.733a7.08 7.08 0 011.666 4.562h1.364c0-1-.212-1.99-.622-2.902z" fill="#FAE8DB"/>
  <g fill="#FFF9F0">
    <path d="M7.92 8.777l5.296 4.7a7.082 7.082 0 01-5.295 2.38v-7.08z"/>
    <path d="M7.921 8.777l-4.7 5.296A7.081 7.081 0 01.84 8.776h7.08z"/>
    <path d="M7.921 8.778l-5.295-4.7a7.08 7.08 0 015.295-2.38v7.08z"/>
    <path d="M7.92 13.96a5.183 5.183 0 100-10.366 5.183 5.183 0 000 10.367z"/>
  </g>
  <path d="M7.922 3.595c-.232 0-.46.015-.683.045a5.184 5.184 0 010 10.277 5.183 5.183 0 10.682-10.322z" fill="#FAE8DB"/>
  <path d="M16.078 22.302a7.08 7.08 0 100-14.16 7.08 7.08 0 000 14.16z" fill="#2ED1E2"/>
  <path d="M16.079 8.141c-.23 0-.458.012-.683.033a7.081 7.081 0 010 14.095 7.08 7.08 0 10.682-14.128z" fill="#03BED7"/>
  <path d="M16.078 15.222l4.7-5.295a7.08 7.08 0 012.38 5.295h-7.08z" fill="#FFF9F0"/>
  <path d="M22.537 12.32a7.08 7.08 0 00-1.758-2.393l-.651.733a7.078 7.078 0 011.666 4.562h1.365c0-1-.212-1.99-.622-2.903z" fill="#FAE8DB"/>
  <path d="M16.078 15.222l5.295 4.7a7.08 7.08 0 01-5.295 2.38v-7.08z" fill="#FFF9F0"/>
  <path d="M16.078 15.222v1.21l3.491 3.1c.249.22.252.605.01.833a7.083 7.083 0 01-3.5 1.804v.133a7.08 7.08 0 005.294-2.38l-5.295-4.7z" fill="#FAE8DB"/>
  <path d="M16.078 15.222l-4.7 5.295a7.08 7.08 0 01-2.38-5.295h7.08zM16.078 15.222l-5.295-4.7a7.08 7.08 0 015.295-2.38v7.08z" fill="#FFF9F0"/>
  <path d="M16.079 20.405a5.183 5.183 0 100-10.367 5.183 5.183 0 000 10.367z" fill="#FFF9F0"/>
  <path d="M16.079 10.038c-.232 0-.46.016-.683.045a5.184 5.184 0 010 10.277 5.183 5.183 0 10.682-10.322z" fill="#FAE8DB"/>
  <path d="M17.637 14.062a1.565 1.565 0 10-3.117 0 1.566 1.566 0 101.16 2.803v.035c-.004.362.029.733.108 1.102l.015.069.017.069.035.138c.028.091.053.184.087.274.06.183.14.36.224.537l1.138-.72a3.4 3.4 0 01-.252-.338c-.041-.058-.075-.12-.113-.182l-.052-.096-.025-.047-.024-.05a3.947 3.947 0 01-.27-.728 1.565 1.565 0 101.07-2.866z" fill="#2ED1E2"/>
  <path d="M17.637 14.062a1.565 1.565 0 00-2.24-1.556c.522.254.883.79.883 1.41v.005c0 .08.054.15.133.168a1.566 1.566 0 01.32 2.931 1.569 1.569 0 002.24-1.254 1.566 1.566 0 00-1.336-1.704z" fill="#02C7DD"/>
  <path d="M7.921 4.88l-2.25 3.898 2.25 3.898 2.251-3.898-2.25-3.898z" fill="#FEAEE1"/>
  <path d="M7.922 4.88l-.683 1.182 1.072 1.856a1.721 1.721 0 010 1.72l-1.072 1.857.683 1.181 2.25-3.898-2.25-3.898z" fill="#FE93D3"/>
  <path d="M16.078 7.8c-.268 0-.533.015-.793.043a7.404 7.404 0 00-2.373-4.558 7.404 7.404 0 00-4.99-1.928C3.829 1.357.5 4.686.5 8.778.5 12.87 3.83 16.2 7.922 16.2c.265 0 .53-.015.794-.043.461 3.652 3.587 6.486 7.362 6.486 4.093 0 7.422-3.329 7.422-7.421 0-4.092-3.33-7.422-7.422-7.422zm-3.403 11.77a5.496 5.496 0 003.062 1.165v1.217a6.705 6.705 0 01-3.87-1.473l.808-.909zm3.403.494a4.848 4.848 0 01-4.842-4.842 4.848 4.848 0 014.842-4.842 4.848 4.848 0 014.843 4.842 4.848 4.848 0 01-4.843 4.842zm-5.513-5.183H9.348a6.706 6.706 0 011.473-3.87l.909.807a5.497 5.497 0 00-1.165 3.063zm-6.047-1.754a5.497 5.497 0 003.062 1.165v1.217a6.705 6.705 0 01-3.87-1.473l.808-.91zm3.404.493a4.848 4.848 0 01-4.843-4.842 4.848 4.848 0 014.843-4.842 4.848 4.848 0 014.838 4.65A7.45 7.45 0 008.85 13.53c-.304.06-.616.09-.93.09zM2.408 8.438H1.19a6.706 6.706 0 011.473-3.87l.91.807a5.496 5.496 0 00-1.166 3.063zm8.917-4.007a5.496 5.496 0 00-3.062-1.166V2.048a6.719 6.719 0 013.871 1.47l-.809.912zm8.157 6.443a5.496 5.496 0 00-3.062-1.165V8.491a6.706 6.706 0 013.87 1.473l-.808.91zm-3.745-1.165a5.508 5.508 0 00-3.554 1.6l-.909-.807a6.72 6.72 0 014.463-2.01v1.217zm5.855 5.855h1.217a6.706 6.706 0 01-1.473 3.87l-.91-.807a5.497 5.497 0 001.166-3.063zm1.217-.682h-1.217a5.508 5.508 0 00-1.6-3.554l.807-.91a6.72 6.72 0 012.01 4.464zm-8.2-6.935a7.35 7.35 0 00-1.185.345 5.51 5.51 0 00-1.589-3.408l.81-.912a6.718 6.718 0 011.965 3.975zM7.58 2.048v1.216a5.508 5.508 0 00-3.554 1.6l-.909-.807a6.72 6.72 0 014.463-2.01zM1.19 9.119h1.218a5.508 5.508 0 001.6 3.554l-.807.91a6.72 6.72 0 01-2.01-4.464zm7.073 6.389v-1.216c.153-.01.306-.025.458-.047a7.46 7.46 0 00-.06 1.232 6.79 6.79 0 01-.398.03zm1.085.055h1.217a5.508 5.508 0 001.6 3.554l-.807.91a6.72 6.72 0 01-2.01-4.464zm7.072 6.39v-1.218a5.508 5.508 0 003.554-1.6l.909.808a6.72 6.72 0 01-4.463 2.01z" fill="#000"/>
  <path d="M17.981 13.791a1.908 1.908 0 00-.446-1.106.341.341 0 00-.521.44 1.224 1.224 0 01.283.906.341.341 0 00.292.37c.599.084 1.05.605 1.05 1.21a1.226 1.226 0 01-1.886 1.03.341.341 0 00-.515.375c.075.282.174.549.293.789l.024.049.007.014.077.143a2.968 2.968 0 01.044.073c.024.042.052.089.085.136l.039.06-.489.309a3.01 3.01 0 01-.053-.145l-.003-.011c-.02-.054-.038-.113-.056-.175l-.023-.074-.021-.085-.027-.104-.013-.065a4.678 4.678 0 01-.1-1.027v-.033a.341.341 0 00-.546-.278 1.226 1.226 0 01-1.958-.98c0-.606.452-1.127 1.05-1.212a.341.341 0 00.292-.37 1.22 1.22 0 011.219-1.338.341.341 0 100-.683c-1.01 0-1.838.789-1.903 1.782-.781.245-1.34.98-1.34 1.82a1.909 1.909 0 002.522 1.806c.019.224.051.443.096.654l.015.07.003.013.028.11a4.803 4.803 0 00.051.187 5.094 5.094 0 00.307.785.341.341 0 00.49.141l1.139-.72a.341.341 0 00.081-.505 3.09 3.09 0 01-.333-.474l-.047-.087-.044-.086-.003-.006a1.909 1.909 0 002.18-1.887c0-.84-.558-1.576-1.34-1.82zM10.468 8.949a.34.34 0 000-.341L8.218 4.71a.341.341 0 00-.592 0L6.602 6.483a.341.341 0 00.591.341l.729-1.262 1.856 3.216-1.856 3.216-1.857-3.216.455-.788a.341.341 0 00-.59-.341l-.554.959a.341.341 0 000 .34l2.25 3.899a.341.341 0 00.591 0l2.25-3.898z" fill="#000"/>
</svg>
