<svg width="24" height="24" fill="none" xmlns="http://www.w3.org/2000/svg">
  <defs/>
  <path d="M1.64 7.4h20.72v14.415H1.64V7.401z" fill="#F6F9F9"/>
  <path d="M20.562 7.4v7.683a5.834 5.834 0 01-5.834 5.834H1.641v.898h20.718V7.401h-1.797z" fill="#E7ECF1"/>
  <path d="M20.546 8.904v12.911H3.454V8.905h17.092z" fill="#707DD3"/>
  <path d="M18.75 8.904V15.7a5.218 5.218 0 01-5.219 5.218H3.454v.898h17.092V8.905h-1.797z" fill="#5766CB"/>
  <path d="M23.163 7.4H.837L4.044.838h15.912L23.163 7.4z" fill="#E4936B"/>
  <path d="M19.956.837h-1.358l1.44 2.948a1.889 1.889 0 01-1.697 2.717H1.276l-.44.899h22.327L19.956.837z" fill="#E27D47"/>
  <path d="M18.775 20.581H5.225a.312.312 0 01-.312-.312v-.85c0-.173.14-.313.312-.313h13.55c.172 0 .312.14.312.312v.85c0 .173-.14.313-.312.313z" fill="#DAE4EA"/>
  <path d="M18.843 14.676a.589.589 0 01-.589.589H16.96v-.558a.62.62 0 01.62-.62h.675a.59.59 0 01.59.589zM5.746 15.265h1.296v-.558a.62.62 0 00-.621-.62h-.675a.589.589 0 100 1.178z" fill="#E28086"/>
  <path d="M9.992 19.106h4.015v1.475H9.992v-1.475zM7.75 21.815H6.152a.446.446 0 01-.446-.446v-.788h2.49v.788c0 .247-.2.446-.446.446z" fill="#808B95"/>
  <path d="M16.959 15.265l-.736-2.595a1.528 1.528 0 00-1.47-1.112H9.247c-.684 0-1.284.454-1.47 1.112l-.736 2.595h9.918z" fill="#E28086"/>
  <path d="M16.223 12.67a1.528 1.528 0 00-1.47-1.112h-.405c.031.069.058.14.079.213l.24.85a1.372 1.372 0 01-1.32 1.745H7.296l-.255.899h9.918l-.736-2.595z" fill="#DD636E"/>
  <path d="M8.258 15.265l.645-2.276a.36.36 0 01.344-.26h5.507a.36.36 0 01.344.26l.645 2.276H8.258z" fill="#D5D8F1"/>
  <path d="M8.258 15.265h7.485l-.645-2.276a.36.36 0 00-.344-.26h-.06a1.371 1.371 0 01-1.346 1.637H8.512l-.254.899z" fill="#BEC3EA"/>
  <path d="M17.075 15.265H6.925c-.834 0-1.522.653-1.566 1.487l-.123 2.354h13.528l-.122-2.354a1.569 1.569 0 00-1.567-1.487z" fill="#E28086"/>
  <path d="M18.642 16.752a1.569 1.569 0 00-1.567-1.487h-.378c.085.18.137.378.148.589l.05.954c.04.76-.567 1.4-1.329 1.4H5.283l-.047.898h13.528l-.122-2.354z" fill="#DD636E"/>
  <path d="M7.675 16.462h-.979v.787c0 .384.311.695.694.695h1.72v-1.482H7.675zM17.304 16.462H14.89v1.482h1.72c.383 0 .694-.311.694-.695v-.787z" fill="#F6F9F9"/>
  <path d="M12.658 18.031h-1.317a1.108 1.108 0 01-1.108-1.107v-.464h3.533v.464c0 .611-.496 1.107-1.108 1.107zM17.848 21.815H16.25a.446.446 0 01-.445-.446v-.788h2.49v.788c0 .247-.2.446-.447.446z" fill="#808B95"/>
  <g fill="#DAE4EA">
    <path d="M20.546 8.903v1.307H3.454V8.903h17.092zM15.626 4.118l.433-.75h1.974a2.112 2.112 0 00-3.71-.453.912.912 0 01-.752.384H10.43a.912.912 0 01-.752-.384 2.112 2.112 0 00-3.71.453H7.94l.433.75-.433.75H5.967a2.112 2.112 0 003.71.452.912.912 0 01.752-.383h3.142c.298 0 .582.14.752.383a2.112 2.112 0 003.71-.452H16.06l-.433-.75zM.837 21.815h22.326v1.347H.837v-1.347z"/>
  </g>
  <path d="M9.11 16.125H6.696a.337.337 0 00-.337.337v.787c0 .569.463 1.031 1.031 1.031h1.72c.187 0 .337-.15.337-.337v-1.481a.337.337 0 00-.337-.337zm-.336 1.482H7.39a.358.358 0 01-.357-.358v-.45h1.74v.808zM14.89 18.28h1.72c.568 0 1.03-.462 1.03-1.03v-.788a.337.337 0 00-.336-.337H14.89a.337.337 0 00-.337.337v1.482c0 .186.15.336.337.336zm.337-1.481h1.74v.45c0 .197-.16.358-.357.358h-1.383v-.808zM11.34 18.368h1.318c.797 0 1.445-.648 1.445-1.444v-.464a.337.337 0 00-.337-.337h-3.533a.337.337 0 00-.337.337v.464c0 .796.648 1.444 1.445 1.444zm-.77-1.571h2.859v.127c0 .425-.346.77-.77.77H11.34a.772.772 0 01-.77-.77v-.127zM5.967 4.532a.337.337 0 00-.315.457A2.462 2.462 0 007.94 6.568c.802 0 1.555-.394 2.013-1.055a.574.574 0 01.475-.238h3.142c.194 0 .371.089.475.238a2.451 2.451 0 002.013 1.055c1.01 0 1.93-.635 2.29-1.58a.337.337 0 00-.316-.456h-1.78l-.238-.413.239-.413h1.78a.337.337 0 00.314-.457A2.462 2.462 0 0016.06 1.67c-.802 0-1.555.394-2.013 1.054a.574.574 0 01-.475.239h-.86a.337.337 0 100 .674h.86c.415 0 .8-.198 1.029-.529a1.777 1.777 0 011.46-.764c.553 0 1.07.263 1.401.688h-1.402a.337.337 0 00-.292.168l-.433.75a.337.337 0 000 .337l.433.75c.06.105.172.169.292.169h1.402a1.786 1.786 0 01-1.402.688 1.777 1.777 0 01-1.46-.765 1.248 1.248 0 00-1.028-.528H10.43c-.415 0-.799.197-1.029.528a1.777 1.777 0 01-1.459.765c-.554 0-1.07-.264-1.402-.688h1.402c.12 0 .232-.064.292-.169l.433-.75a.337.337 0 000-.337l-.433-.75a.337.337 0 00-.292-.168H6.539a1.786 1.786 0 011.402-.688c.582 0 1.127.286 1.46.764.229.331.613.529 1.028.529h.71a.337.337 0 000-.674h-.71a.574.574 0 01-.475-.239A2.451 2.451 0 007.941 1.67c-1.01 0-1.93.635-2.29 1.579a.337.337 0 00.316.457h1.78l.238.413-.238.413h-1.78z" fill="#000"/>
  <path d="M23.163 21.479h-.467V7.738h.467a.337.337 0 00.303-.485L20.259.689A.337.337 0 0019.956.5H4.044a.337.337 0 00-.303.189L.534 7.253a.337.337 0 00.303.485h.467v13.74H.837a.337.337 0 00-.337.337v1.348c0 .186.15.337.337.337h22.326c.186 0 .337-.15.337-.337v-1.348a.337.337 0 00-.337-.337zM4.255 1.174h15.49l2.878 5.89H1.378l2.878-5.89zM1.978 7.738h20.044v13.74h-1.14V8.905a.337.337 0 00-.336-.337h-1.459a.337.337 0 100 .674h1.122v.633H3.791V9.24h13.724a.337.337 0 100-.674H3.455a.337.337 0 00-.338.337V21.48h-1.14V7.738zM6.043 21.37v-.452H7.86v.452c0 .06-.049.108-.11.108H6.153a.109.109 0 01-.109-.108zm11.253-6.442v-.22c0-.157.127-.284.284-.284h.674a.252.252 0 010 .504h-.958zm-1.299 0l-.575-2.031a.698.698 0 00-.669-.505H9.247a.698.698 0 00-.669.505l-.575 2.03h-.516l.614-2.165c.144-.51.616-.867 1.146-.867h5.506c.53 0 1.002.357 1.146.867l.614 2.166h-.516zm-9.293 0h-.958a.252.252 0 010-.504h.674c.157 0 .284.127.284.284v.22zM5.695 16.77a1.232 1.232 0 011.23-1.168h2.186a.337.337 0 000-.674h-.408l.523-1.847a.023.023 0 01.02-.016h5.507c.009 0 .018.007.02.016l.524 1.847h-4.614a.337.337 0 100 .674h6.392c.655 0 1.196.513 1.23 1.168l.104 1.999H5.591l.104-2zm8.65 3.474v-.801h4.405v.801h-4.405zm-4.016-.801h3.342v.801h-3.342v-.801zm-5.08 0h4.407v.801H5.25v-.801zm3.284 1.927v-.452h6.934v.452c0 .037.003.073.008.108h-6.95a.786.786 0 00.008-.108zm7.608 0v-.452h1.816v.452c0 .06-.049.108-.11.108H16.25a.109.109 0 01-.109-.108zm2.49 0v-.452h.144a.65.65 0 00.649-.65v-.85a.65.65 0 00-.336-.569l-.11-2.114a1.9 1.9 0 00-.478-1.166.927.927 0 00-.246-1.819h-.674a.954.954 0 00-.633.239l-.4-1.411a1.872 1.872 0 00-1.794-1.357H9.247c-.83 0-1.568.558-1.795 1.357l-.4 1.41a.954.954 0 00-.632-.238h-.674a.927.927 0 00-.246 1.819 1.9 1.9 0 00-.478 1.165l-.11 2.115a.65.65 0 00-.336.57v.85c0 .358.291.65.65.65h.143v.45c0 .038.003.074.008.11H3.791V10.548h16.418v10.93h-1.586a.799.799 0 00.008-.108zm4.195 1.456H1.174v-.674h21.652v.674z" fill="#000"/>
</svg>
