<svg width="24" height="24" fill="none" xmlns="http://www.w3.org/2000/svg">
  <defs/>
  <path d="M5.667 19.681l.47 3.111c.037.245.2.448.447.448h10.831c.247 0 .41-.203.448-.448l.47-3.11L12 17.08 5.667 19.68z" fill="#3B8BC0"/>
  <path d="M18.883 6.415H5.116v13.267h13.767V6.415z" fill="#85C250"/>
  <path d="M18.883 3.41H5.116v3.005h13.767V3.409z" fill="#3B8BC0"/>
  <path d="M19.873 6.164a.52.52 0 00-.47-.518V3.15a.52.52 0 00-.52-.52h-3.489v-.666c0-.807-.656-1.463-1.463-1.463h-3.863c-.807 0-1.463.656-1.463 1.463v.666H5.116a.52.52 0 00-.52.52v2.497a.52.52 0 000 1.036v12.74c0 .287.233.52.52.52h.103l.403 2.668c.08.524.475.89.962.89h10.831c.487 0 .883-.366.962-.89l.403-2.668h.103a.52.52 0 00.52-.52V6.681a.52.52 0 00.47-.518zm-10.227-4.2c0-.234.19-.423.422-.423h3.863c.233 0 .423.19.423.422v.666H9.646v-.666zm8.716 1.706v1.974H5.638V3.67h12.726zm-1.014 18.784v.005H6.651v-.005l-.38-2.512h8.343a.52.52 0 000-1.041H5.637V6.685h12.726V18.9h-1.666a.52.52 0 000 1.04h1.03l-.38 2.513z" fill="#01121C"/>
</svg>
