<svg width="24" height="24" fill="none" xmlns="http://www.w3.org/2000/svg">
  <defs/>
  <path d="M11.09 11.764v-1.633c0-.806.34-1.574.937-2.117a2.854 2.854 0 01.936 2.117v2.807h-1.872v-1.174z" fill="#F2F2F2"/>
  <g fill="#CFDCE5">
    <path d="M7.051 9.937A10.597 10.597 0 0112.026.875a10.594 10.594 0 014.976 8.98L17 9.937l-.01 1.481-3.64.346h-2.65l-3.638-.346-.012-1.481z"/>
    <path d="M11.09 14.32v-4.19c0-.805.34-1.574.937-2.116a2.854 2.854 0 01.936 2.116v4.19h-1.872z"/>
  </g>
  <path d="M11.098 23.125h1.857a.745.745 0 00.744-.744v-7.316a.745.745 0 00-.744-.744h-1.857a.745.745 0 00-.745.745v7.315c0 .411.334.744.745.744z" fill="#FF6F52"/>
  <path d="M12.551 15.034v7.378c0 .394-.32.713-.713.713h1.148c.394 0 .714-.319.714-.713v-7.378a.714.714 0 00-.714-.713h-1.148c.394 0 .713.32.713.713z" fill="#E25749"/>
  <path d="M15.977 4.542c-.899-1.623-2.205-3-3.778-3.985a.375.375 0 00-.397 0 11.01 11.01 0 00-4.547 5.707.375.375 0 10.708.246A10.26 10.26 0 0112 1.32a10.247 10.247 0 013.322 3.585 10.241 10.241 0 011.28 4.95l-.001.036v.043l-.009 1.144-3.28.312v-1.26c0-.453-.094-.893-.277-1.308a3.21 3.21 0 00-.782-1.085.375.375 0 00-.504 0 3.241 3.241 0 00-1.059 2.393v1.26l-3.281-.313-.01-1.143c-.005-.723.067-1.448.214-2.155a.375.375 0 10-.734-.152 10.996 10.996 0 00-.228 2.313l.011 1.481a.375.375 0 00.34.37l3.688.352v1.862a1.09 1.09 0 00-.737 1.03v7.377c0 .6.488 1.088 1.088 1.088h1.92c.6 0 1.087-.488 1.087-1.088v-1.637a.375.375 0 10-.749 0v1.637a.34.34 0 01-.339.339h-1.919a.34.34 0 01-.339-.34v-7.377a.34.34 0 01.34-.339h1.918a.34.34 0 01.339.34v4.161a.375.375 0 10.75 0v-4.162a1.09 1.09 0 00-.738-1.03v-1.861L17 11.791a.375.375 0 00.339-.37l.011-1.52v-.046c0-1.854-.474-3.691-1.373-5.313zm-4.538 9.404v-3.815c0-.576.202-1.133.562-1.574a2.471 2.471 0 01.561 1.574v3.815H11.44z" fill="#000"/>
</svg>
