<svg width="24" height="24" fill="none" xmlns="http://www.w3.org/2000/svg">
  <defs/>
  <path d="M13.091 6.39h-2.193v6.346h2.193V6.39z" fill="#FF6F52"/>
  <g fill="#CFDCE5">
    <path d="M13.092 14.112v1.914c0 .943-.398 1.844-1.097 2.48a3.357 3.357 0 01-1.097-2.48v-3.29h2.194v1.376z"/>
    <path d="M16.104 14.398l.047 6.128-4.155 2.6-4.156-2.6.046-6.128 3.012-.286v1.914a3.351 3.351 0 001.097 2.48 3.352 3.352 0 001.097-2.48v-1.914l3.012.286z"/>
  </g>
  <path d="M16.068 3.027a1.377 1.377 0 01-.82 1.28l-2.157.952v1.13h-2.194V5.26L8.74 4.307a1.377 1.377 0 01-.82-1.28L7.952.874h8.084l.032 2.153zm-1.373.023l-.012-.804H9.305l-.012.804 2.702 1.193 2.7-1.193z" fill="#FCD577"/>
  <path d="M16.483 14.395a.374.374 0 00-.338-.37l-2.674-.253V5.503l1.934-.854a1.748 1.748 0 001.043-1.627L16.416.868A.374.374 0 0016.042.5H9.98a.374.374 0 000 .748h5.692l.027 1.785c.006.403-.229.769-.597.932l-2.158.952a.374.374 0 00-.222.342v.757h-1.446v-.757a.374.374 0 00-.223-.342l-2.157-.952a1.001 1.001 0 01-.597-.932l.026-1.785h.358a.374.374 0 000-.748h-.726a.374.374 0 00-.374.368l-.032 2.154c-.01.704.4 1.342 1.043 1.627l1.934.854v8.269l-2.673.254a.374.374 0 00-.339.37l-.046 6.127c-.001.13.065.251.175.32l4.156 2.6a.374.374 0 00.397 0l2.6-1.627a.374.374 0 10-.397-.634L12 22.685 8.22 20.32l.042-5.582 2.267-.215v1.503c0 .521.107 1.029.319 1.507.211.477.514.897.9 1.249a.373.373 0 00.503 0 3.733 3.733 0 001.22-2.756v-1.503l2.267.215.042 5.582-.406.254a.374.374 0 10.397.634l.583-.365a.374.374 0 00.175-.32l-.046-6.128zm-3.76-7.631v5.598h-1.446V6.764h1.446zM12 17.97a2.964 2.964 0 01-.723-1.944V13.11h1.446v2.915c0 .717-.26 1.408-.723 1.945z" fill="#000"/>
  <path d="M8.937 2.24l-.012.804a.374.374 0 00.223.348l2.701 1.193a.374.374 0 00.303 0l2.7-1.193a.374.374 0 00.223-.348l-.012-.803a.374.374 0 00-.374-.368H9.311a.374.374 0 00-.374.368zm.742.38h4.642l.003.188L12 3.835 9.675 2.808l.003-.188z" fill="#000"/>
</svg>
