<svg width="24" height="24" fill="none" xmlns="http://www.w3.org/2000/svg">
  <defs/>
  <g fill-rule="evenodd" clip-rule="evenodd">
    <path d="M3.923 3.88l-.866-.392-.891.393v16.827l.878.769.879-.769V3.881z" fill="#ECECEC"/>
    <path d="M19.435 9.777h-1.667l-.457.642.457.886h1.46c.403 0 .53.24.777.5l.299.33.937-.308-.129-1.068-.491-.511c-.469-.488-.566-.471-1.186-.471z" fill="#9B9B9B"/>
    <path d="M22.824 11.761l-1.034-1.286c-.123-.153-.404-.18-.504-.011l-.174.295-.809 1.376-.219.373c-.225.385-.078.552.096.97l.573 1.34c.11.26.171.285.453.285h1.073c.907 0 .876-.443.876-1.124v-.533c0-.659.08-1.174-.331-1.685z" fill="#80D261"/>
    <path d="M16.497 6.328H8.466c-.7 0-1.27.573-1.27 1.27v11.398l5.379 1.143 5.192-1.143V7.6c0-.698-.57-1.27-1.27-1.27z" fill="#ECECEC"/>
    <path d="M17.768 18.996H7.179a.858.858 0 00-.856.856v.856l6.115.822 6.388-.822v-.856a.858.858 0 00-.856-.856h-.202z" fill="#80D261"/>
    <path d="M3.044 3.88h.879v16.828h-.879V3.881zM17.767 7.599c0-.698-.57-1.27-1.27-1.27h-1.048c.7 0 1.272.572 1.272 1.27V18.996h1.046V7.6z" fill="#CECECE"/>
    <path d="M22.824 11.761l-1.035-1.286c-.122-.153-.403-.18-.503-.011l-.257.436.864 1.073c.41.51.454.945.454 1.604v.402c0 .68.031 1.124-.876 1.124H22.278c.908 0 .877-.443.877-1.123v-.534c0-.659.08-1.174-.331-1.685zM18.826 19.852a.858.858 0 00-.856-.856h-1.149a.86.86 0 01.858.856v.856h1.147v-.856z" fill="#4FC122"/>
    <path d="M19.435 9.777h-1.667v.688h1.263c.619 0 .717-.016 1.186.471l.491.512.404-.689-.491-.511c-.469-.488-.566-.471-1.186-.471z" fill="#838383"/>
    <path d="M21.607 1.423H2.07c-.677 0-1.23.553-1.23 1.229v.694c0 .294.241.535.534.535h20.929c.294 0 .534-.24.534-.535v-.694c0-.676-.552-1.229-1.229-1.229z" fill="#80D261"/>
    <path d="M22.836 2.652c0-.676-.552-1.229-1.229-1.229h-2.854c.676 0 1.229.553 1.229 1.229v.694c0 .294-.24.535-.534.535h2.855c.293 0 .533-.24.533-.535v-.694z" fill="#4FC122"/>
    <path d="M6.323 20.708H1.774a.937.937 0 00-.934.934c0 .515.42.935.934.935h20.128c.514 0 .934-.42.934-.935a.937.937 0 00-.934-.934H6.323z" fill="#9B9B9B"/>
    <path d="M22.836 21.642a.937.937 0 00-.935-.934h-1.88c.514 0 .934.422.934.934 0 .515-.42.935-.934.935h1.88c.515 0 .935-.42.935-.935z" fill="#838383"/>
    <path d="M15.615 7.98H9.514a.477.477 0 00-.477.476v3.578c0 .262.213.476.477.476h6.101a.478.478 0 00.477-.476V8.456a.478.478 0 00-.477-.477z" fill="#A6E7F0"/>
    <path d="M11.841 7.98H9.514a.477.477 0 00-.477.476v.436h5.906c.262 0 .294.072.294.251v3.367h.378a.478.478 0 00.477-.476V8.456a.478.478 0 00-.477-.476h-3.774z" fill="#6BD9E7"/>
  </g>
  <path d="M23.088 11.548l-1.034-1.287a.702.702 0 00-.591-.25.591.591 0 00-.41.198l-.188-.197c-.525-.546-.733-.575-1.354-.575H18.106V7.599c0-.888-.722-1.61-1.61-1.61h-8.03c-.888 0-1.61.722-1.61 1.61V18.7a1.197 1.197 0 00-.873 1.151v.517H4.261V4.22h7.37a.34.34 0 100-.679H1.374a.197.197 0 01-.194-.195v-.694c0-.49.399-.89.89-.89h19.538c.49 0 .89.4.89.89v.694a.197.197 0 01-.195.195h-9.068a.34.34 0 100 .679h9.068a.874.874 0 00.873-.874v-.694a1.57 1.57 0 00-1.568-1.568H2.068A1.57 1.57 0 00.5 2.652v.694c0 .482.392.874.873.874h.453v16.149h-.052C1.07 20.369.5 20.94.5 21.642c0 .703.571 1.274 1.274 1.274H21.9c.703 0 1.274-.571 1.274-1.274 0-.702-.571-1.273-1.274-1.273h-2.736v-.517c0-.613-.464-1.119-1.058-1.187v-1.03h2.961c.795 0 1.441-.648 1.441-1.443v-.76c.315-.029.542-.121.705-.284.281-.282.28-.681.28-1.104v-.598c0-.093.001-.182.003-.27.01-.563.02-1.095-.409-1.628zm-3.595-1.432c.529 0 .529 0 .882.367l.314.326-.444.755a4.36 4.36 0 01-.107-.117c-.19-.215-.425-.482-.911-.482h-1.12v-.849h1.386zM2.505 4.22h1.078v16.149H2.505V4.22zm19.991 17.422a.595.595 0 01-.595.595H1.774a.595.595 0 010-1.19h20.128c.327 0 .594.267.594.595zm-4.01-1.79v.517H6.662v-.517c0-.285.232-.516.517-.516h4.412a.34.34 0 100-.68H7.534V7.6c0-.514.418-.931.931-.931h8.031c.514 0 .931.417.931.93v11.059h-4.191a.34.34 0 000 .679h4.733c.285 0 .517.231.517.516zm2.582-2.896h-2.962v-5.312h1.12c.173 0 .23.057.403.252.038.042.08.09.126.139l.13.143-.094.158c-.28.476-.143.781.002 1.104.023.052.048.107.075.172l.572 1.338c.178.418.388.492.766.492h.625v.75a.764.764 0 01-.763.764zm1.75-3.792c-.002.091-.003.185-.003.282v.6c0 .277 0 .54-.082.622-.035.036-.141.095-.455.095h-1.072c-.052 0-.085-.001-.107-.003a1.164 1.164 0 01-.035-.076l-.57-1.336a7.198 7.198 0 00-.081-.185c-.125-.28-.139-.309-.036-.483l1.161-1.976 1.021 1.27c.274.341.268.679.26 1.19z" fill="#000"/>
  <path d="M15.281 15.468h-1.734a.34.34 0 100 .679h1.734a.34.34 0 000-.68zM11.6 15.468H9.867a.34.34 0 100 .679H11.6a.34.34 0 000-.68zM15.281 13.849h-1.734a.34.34 0 000 .679h1.734a.34.34 0 100-.679zM11.6 13.849H9.867a.34.34 0 100 .679H11.6a.34.34 0 100-.679zM12.564 12.85h3.051c.45 0 .816-.366.816-.816V8.456a.817.817 0 00-.816-.816H9.513a.817.817 0 00-.816.816v3.578c0 .45.366.816.816.816H12.564zm-3.188-.816V8.456c0-.076.062-.137.137-.137h6.102c.074 0 .137.063.137.137v3.578a.139.139 0 01-.137.137h-2.498l.848-1.67a.34.34 0 00-.605-.307l-1.005 1.977H9.513a.137.137 0 01-.137-.137z" fill="#000"/>
</svg>
