<svg width="24" height="24" fill="none" xmlns="http://www.w3.org/2000/svg">
  <defs/>
  <path d="M7.444 14.05a6.606 6.606 0 100-13.213 6.606 6.606 0 000 13.213z" fill="#B9C1CB"/>
  <path d="M9.462 1.151a6.607 6.607 0 01-5.834 11.687A6.607 6.607 0 109.462 1.15z" fill="#A0AAB7"/>
  <path d="M12.458 8.029v-1.17a.052.052 0 00-.04-.051l-1.112-.259a.052.052 0 01-.038-.038 3.911 3.911 0 00-.461-1.111.052.052 0 010-.055l.603-.969a.052.052 0 00-.007-.064l-.827-.828a.052.052 0 00-.065-.007l-.969.603a.052.052 0 01-.054 0 3.912 3.912 0 00-1.112-.46.052.052 0 01-.038-.039L8.08 2.47a.052.052 0 00-.051-.04h-1.17a.052.052 0 00-.051.04L6.549 3.58a.052.052 0 01-.038.039 3.91 3.91 0 00-1.111.46.052.052 0 01-.054 0l-.97-.603a.052.052 0 00-.064.007l-.827.828a.052.052 0 00-.008.064l.603.97c.01.016.01.037 0 .054-.206.34-.364.713-.46 1.11a.052.052 0 01-.039.04l-1.111.258a.052.052 0 00-.04.05v1.17c0 .025.016.046.04.051l1.111.259c.02.004.034.02.039.038.096.398.254.772.46 1.112.01.016.01.037 0 .054l-.603.97a.052.052 0 00.008.063l.827.828c.017.017.044.02.064.007l.97-.603a.052.052 0 01.054 0c.34.207.714.364 1.111.46.02.005.034.02.038.039l.259 1.111c.005.024.027.04.05.04h1.17a.052.052 0 00.052-.04l.258-1.111a.052.052 0 01.038-.038 3.908 3.908 0 001.112-.461.052.052 0 01.054 0l.97.603c.02.013.046.01.064-.007l.827-.828a.052.052 0 00.007-.064l-.603-.97a.052.052 0 010-.053 3.91 3.91 0 00.46-1.112.052.052 0 01.04-.038l1.11-.259a.052.052 0 00.04-.05z" fill="#F6F9F9"/>
  <path d="M12.458 8.029v-1.17a.052.052 0 00-.04-.051l-.168-.04a6.61 6.61 0 01-.196 1.396l.364-.085a.052.052 0 00.04-.05zM10.273 11.262l.238.148c.02.013.047.01.064-.008l.828-.827a.052.052 0 00.007-.064l-.226-.362c-.263.403-.569.777-.911 1.113z" fill="#E7ECF1"/>
  <path d="M19.373 23.163a3.79 3.79 0 100-7.58 3.79 3.79 0 000 7.58z" fill="#B9C1CB"/>
  <path d="M20.108 15.654a3.79 3.79 0 01-3.267 6.54 3.79 3.79 0 103.267-6.54z" fill="#A0AAB7"/>
  <path d="M19.372 21.715a2.342 2.342 0 100-4.685 2.342 2.342 0 000 4.685z" fill="#F6F9F9"/>
  <path d="M21.366 18.474a3.788 3.788 0 01-1.812 3.234 2.343 2.343 0 001.795-3.592c.011.118.017.237.017.358z" fill="#E7ECF1"/>
  <path d="M19.373 20.002a.629.629 0 100-1.258.629.629 0 000 1.258z" fill="#B9C1CB"/>
  <path d="M16.883 11.265l-.376.267.65.915.377-.267 1.01 1.425-.375.267.65.915.376-.267.79 1.112c.968.157 1.814.681 2.39 1.426L12.856 3.654a6.573 6.573 0 011.192 3.618l1.174 1.653-.377.267.65.915.377-.267 1.011 1.425zM15.632 19.984l-1.112-.79.267-.375-.915-.65-.267.376-1.425-1.012.267-.376-.915-.65-.267.376-1.425-1.011.267-.377-.915-.65-.267.376-1.653-1.173a6.573 6.573 0 01-3.618-1.192l13.404 9.518a3.788 3.788 0 01-1.426-2.39z" fill="#808B95"/>
  <path d="M7.444 10.205a2.761 2.761 0 100-5.523 2.761 2.761 0 000 5.523z" fill="#B9C1CB"/>
  <g fill="#F6F9F9">
    <path d="M7.444 8.153a.71.71 0 100-1.419.71.71 0 000 1.42zM13.445 14.154a.71.71 0 100-1.42.71.71 0 000 1.42zM15.377 16.086a.71.71 0 100-1.42.71.71 0 000 1.42z"/>
  </g>
  <path d="M22.662 16.882c-.003-.005-9.53-13.426-9.559-13.457A6.94 6.94 0 007.443.5 6.951 6.951 0 00.5 7.444a6.94 6.94 0 002.925 5.66c.03.027-.227-.159 3.974 2.825a.336.336 0 00.47-.08.337.337 0 00-.08-.47l-1.542-1.095c.298.052.603.085.913.097l1.57 1.115a.337.337 0 00.47-.08l.071-.101.367.26-.072.102a.337.337 0 00.08.47l1.424 1.01a.338.338 0 00.47-.079l.072-.101.366.26-.072.101a.337.337 0 00.08.47l1.424 1.011a.338.338 0 00.47-.08l.071-.1.367.26-.072.1a.337.337 0 00.08.47l.999.71c.048.24.116.473.204.696L9.15 16.346a.337.337 0 00-.39.55c8.424 5.981 8.102 5.754 8.12 5.765a4.106 4.106 0 002.492.839 4.132 4.132 0 004.127-4.127c0-.935-.313-1.798-.838-2.491zm-1.787-1.353a4.1 4.1 0 00-.696-.204l-.71-1a.337.337 0 00-.47-.08l-.1.073-.26-.367.1-.072a.337.337 0 00.08-.47l-1.011-1.424a.337.337 0 00-.47-.08l-.101.073-.26-.367.101-.072a.337.337 0 00.08-.47l-1.012-1.424a.337.337 0 00-.47-.08l-.101.073-.26-.366.101-.072a.336.336 0 00.08-.47l-1.115-1.57a6.946 6.946 0 00-.097-.913l6.591 9.282zm-5.893 3.015l-.915-.65a.338.338 0 00-.47.08l-.072.1-.875-.62.072-.102a.337.337 0 00-.08-.47l-.915-.65a.338.338 0 00-.47.08l-.072.101-.875-.621.072-.101a.337.337 0 00-.08-.47l-.915-.65a.337.337 0 00-.47.08l-.072.1-.58-.411a6.85 6.85 0 002.318-.702 7.006 7.006 0 002.395-2.001.337.337 0 10-.536-.408 6.226 6.226 0 01-4.998 2.484 6.277 6.277 0 01-6.27-6.27 6.277 6.277 0 016.27-6.27 6.277 6.277 0 015.802 8.65.337.337 0 00.624.255c.239-.583.396-1.19.47-1.814l.412.581-.102.072a.337.337 0 00-.08.47l.65.915a.337.337 0 00.47.08l.102-.072.621.875-.101.072a.337.337 0 00-.08.47l.65.915a.337.337 0 00.47.08l.102-.072.62.875-.1.072a.337.337 0 00-.08.47l.65.916a.337.337 0 00.47.08l.101-.073.182.256a4.132 4.132 0 00-4.05 4.051l-.257-.182.072-.101a.337.337 0 00-.08-.47zm4.39 4.282a3.457 3.457 0 01-3.452-3.453 3.457 3.457 0 013.453-3.453 3.457 3.457 0 013.453 3.453 3.457 3.457 0 01-3.453 3.453z" fill="#000"/>
  <path d="M21.742 18.12a.337.337 0 00-.596.316 2.008 2.008 0 01-1.774 2.942c-1.105 0-2.005-.9-2.005-2.005a2.008 2.008 0 012.787-1.848.337.337 0 00.263-.62 2.682 2.682 0 00-3.724 2.468 2.682 2.682 0 002.68 2.679 2.682 2.682 0 002.369-3.931z" fill="#000"/>
  <path d="M19.373 18.407a.967.967 0 000 1.932.967.967 0 000-1.932zm0 1.258a.292.292 0 110-.585.292.292 0 010 .585zM7.444 4.345a3.102 3.102 0 00-3.098 3.099 3.102 3.102 0 003.098 3.098 3.102 3.102 0 003.098-3.098 3.102 3.102 0 00-3.098-3.099zm0 5.523A2.427 2.427 0 015.02 7.443 2.427 2.427 0 017.444 5.02a2.427 2.427 0 012.424 2.424 2.427 2.427 0 01-2.424 2.425z" fill="#000"/>
  <path d="M7.444 6.397a1.048 1.048 0 000 2.093 1.048 1.048 0 000-2.093zm0 1.42a.373.373 0 110-.747.373.373 0 010 .746zM13.445 12.398a1.048 1.048 0 000 2.093 1.048 1.048 0 000-2.093zm0 1.42a.373.373 0 110-.747.373.373 0 010 .747zM16.423 15.377a1.048 1.048 0 00-2.093 0 1.048 1.048 0 002.093 0zm-1.42 0a.373.373 0 11.747 0 .373.373 0 01-.746 0z" fill="#000"/>
  <path d="M12.494 6.48l-.944-.22a4.24 4.24 0 00-.366-.882l.512-.824a.387.387 0 00-.055-.48l-.827-.828a.388.388 0 00-.48-.055l-.824.512a4.243 4.243 0 00-.883-.365l-.22-.945a.387.387 0 00-.378-.3h-1.17a.388.388 0 00-.38.3l-.219.945a4.24 4.24 0 00-.882.365l-.824-.512a.387.387 0 00-.48.055l-.827.827a.387.387 0 00-.056.481l.513.824c-.155.28-.278.575-.366.882l-.944.22a.387.387 0 00-.301.378v1.17c0 .182.124.338.3.38l.945.22c.088.306.21.601.366.881l-.513.824a.387.387 0 00.055.48l.828.828a.388.388 0 00.48.055l.824-.512c.28.155.575.277.882.365l.22.945c.041.177.197.3.379.3h1.17a.387.387 0 00.379-.3l.22-.945a4.24 4.24 0 00.882-.365l.823.512a.387.387 0 00.481-.055l.827-.828a.387.387 0 00.055-.48l-.512-.824c.155-.28.277-.575.366-.882l.944-.22a.387.387 0 00.3-.379v-1.17a.387.387 0 00-.3-.378zm-.373 1.322l-.891.208a.387.387 0 00-.29.287c-.087.358-.228.7-.42 1.015a.387.387 0 00.001.408l.484.777-.508.508-.777-.485a.387.387 0 00-.407-.001 3.57 3.57 0 01-1.017.421.387.387 0 00-.286.29l-.207.89h-.718l-.207-.89a.387.387 0 00-.287-.29 3.57 3.57 0 01-1.016-.421.388.388 0 00-.407.002l-.778.484-.507-.508.484-.777a.387.387 0 00.001-.408 3.573 3.573 0 01-.42-1.016.387.387 0 00-.29-.286l-.891-.208v-.717l.891-.208a.387.387 0 00.29-.287c.086-.358.228-.7.42-1.015a.386.386 0 00-.001-.408l-.484-.777.507-.508.778.484a.387.387 0 00.407.002 3.573 3.573 0 011.016-.421.387.387 0 00.287-.29l.207-.89h.718l.207.89a.387.387 0 00.287.29c.358.087.7.229 1.016.421a.387.387 0 00.407-.002l.777-.484.508.508-.484.777a.386.386 0 00-.002.408c.193.316.334.657.421 1.016a.387.387 0 00.29.286l.891.208v.717z" fill="#000"/>
</svg>
