<svg width="24" height="24" fill="none" xmlns="http://www.w3.org/2000/svg">
  <defs/>
  <path d="M2.818 2.381c0-.853.692-1.544 1.544-1.544h15.275c.852 0 1.544.691 1.544 1.544v19.238c0 .853-.692 1.544-1.544 1.544H4.362a1.544 1.544 0 01-1.544-1.544V2.381z" fill="#DAE4EA"/>
  <path d="M19.636.837h-.393c.09.196.14.415.14.646V14.27a7.994 7.994 0 01-7.994 7.995h-8.43c.244.53.78.898 1.403.898h15.274c.853 0 1.544-.691 1.544-1.544V2.381c0-.853-.69-1.544-1.544-1.544z" fill="#C6D0DA"/>
  <path d="M9.796 13.633a3.74 3.74 0 100-7.48 3.74 3.74 0 000 7.48z" fill="#707DD3"/>
  <path d="M10.508 6.224a3.74 3.74 0 01-3.222 6.444 3.74 3.74 0 103.222-6.444z" fill="#5766CB"/>
  <path d="M9.796 12.473a2.58 2.58 0 100-5.159 2.58 2.58 0 000 5.159z" fill="#F6F9F9"/>
  <path d="M11.739 8.997a3.74 3.74 0 01-2.3 3.452 2.58 2.58 0 002.186-4.372c.074.294.114.602.114.92z" fill="#E7ECF1"/>
  <path d="M9.795 6.153c.54 0 1.054.115 1.518.321V3.703a1.518 1.518 0 10-3.036 0v2.771c.464-.206.978-.32 1.518-.32zM9.795 13.633c.54 0 1.054-.114 1.518-.32v6.984a1.518 1.518 0 11-3.036 0v-6.985c.464.207.978.321 1.518.321z" fill="#808B95"/>
  <g fill="#707DD3">
    <path d="M15.332 3.083h2.611v2.498h-2.611V3.083zM15.332 8.646h2.611v2.497h-2.611V8.646zM15.332 13.533h2.611v2.498h-2.611v-2.498z"/>
  </g>
  <path d="M15.332 18.42h2.611v2.497h-2.611v-2.498z" fill="#E28086"/>
  <path d="M15.833 20.917h2.11v-2.068a8.04 8.04 0 01-2.11 2.068z" fill="#DD636E"/>
  <path d="M19.637.5H4.362a1.883 1.883 0 00-1.88 1.881v.975a.337.337 0 10.673 0V2.38c0-.666.542-1.207 1.207-1.207h15.275c.665 0 1.207.541 1.207 1.207v19.238c0 .666-.542 1.207-1.207 1.207H4.362a1.209 1.209 0 01-1.207-1.207V4.928a.337.337 0 10-.674 0v16.691c0 1.037.844 1.881 1.881 1.881h15.275a1.883 1.883 0 001.88-1.881V2.381A1.883 1.883 0 0019.638.5z" fill="#000"/>
  <path d="M6.88 9.893a2.92 2.92 0 002.916 2.916 2.92 2.92 0 002.803-3.722.337.337 0 00-.648.186 2.245 2.245 0 01-2.155 2.863 2.245 2.245 0 01-2.242-2.243 2.245 2.245 0 013.625-1.765.337.337 0 00.416-.53 2.887 2.887 0 00-1.8-.62A2.92 2.92 0 006.88 9.892z" fill="#000"/>
  <path d="M10.53 11.439c.186 0 .337-.151.337-.337V9.419a1.073 1.073 0 00-2.143 0v1.683a.337.337 0 10.673 0v-.872h.796v.872c0 .186.15.337.337.337zM9.397 9.556V9.42a.398.398 0 01.796 0v.137h-.796z" fill="#000"/>
  <path d="M9.796 1.848A1.857 1.857 0 007.94 3.703v2.56a4.081 4.081 0 00-2.222 3.63c0 1.58.904 2.954 2.222 3.63v6.774c0 1.023.832 1.855 1.855 1.855a1.857 1.857 0 001.854-1.855v-1.422a.337.337 0 10-.673 0v1.422c0 .652-.53 1.182-1.181 1.182-.652 0-1.181-.53-1.181-1.181v-6.502c.27.082.553.137.844.16v6.341a.337.337 0 10.674 0v-6.34c.29-.024.573-.079.844-.161v3.507a.337.337 0 10.673 0v-3.78a4.081 4.081 0 002.223-3.63c0-1.58-.904-2.953-2.223-3.63v-2.56a1.857 1.857 0 00-1.854-1.855zM8.615 3.703c0-.652.53-1.182 1.18-1.182.652 0 1.182.53 1.182 1.182V5.99a4.05 4.05 0 00-.845-.16V3.702a.337.337 0 10-.673 0V5.83a4.05 4.05 0 00-.844.161V3.703zm4.584 6.19a3.407 3.407 0 01-3.403 3.403 3.407 3.407 0 01-3.403-3.403A3.407 3.407 0 019.796 6.49a3.407 3.407 0 013.403 3.403zM15.332 5.918h2.611c.186 0 .337-.151.337-.337V3.083a.337.337 0 00-.337-.337h-2.611a.337.337 0 00-.337.337v2.498c0 .186.151.337.337.337zm.337-2.498h1.937v1.824H15.67V3.42zM14.995 11.142c0 .186.15.337.337.337h2.611c.186 0 .337-.15.337-.337V8.645a.337.337 0 00-.337-.337h-2.611a.337.337 0 00-.337.337v2.497zm.674-2.16h1.937v1.823H15.67V8.981zM14.995 16.03c0 .186.15.336.337.336h2.611c.186 0 .337-.15.337-.336v-2.498a.337.337 0 00-.337-.337h-2.611a.337.337 0 00-.337.337v2.498zm.674-2.161h1.937v1.824H15.67v-1.824zM14.995 20.917c0 .186.15.337.337.337h2.611c.186 0 .337-.15.337-.337V18.42a.337.337 0 00-.337-.337h-2.611a.337.337 0 00-.337.337v2.498zm.674-2.16h1.937v1.823H15.67v-1.824z" fill="#000"/>
</svg>
