<svg width="24" height="24" fill="none" xmlns="http://www.w3.org/2000/svg">
  <defs/>
  <path d="M16.502 22.515H2.734c-.43 0-.84-.41-.84-.915V6.77h14.683l-.075 15.745z" fill="#F469CA"/>
  <path d="M16.577 6.77h-2.312v15.745h2.312V6.771z" fill="#EA57B6"/>
  <path d="M17.03 7.296H1.441a.605.605 0 01-.605-.604V5.73c0-.334.27-.605.605-.605h15.587c.334 0 .605.27.605.605v.962c0 .334-.27.604-.605.604z" fill="#EA57B6"/>
  <path d="M10.633 5.125v-.541a1.397 1.397 0 10-2.794 0v.541h2.794z" fill="#EF8229"/>
  <path d="M10.233 12.976l-.836-.857a.233.233 0 00-.335 0l-.823.853a.233.233 0 01-.4-.162V5.125h2.794v7.689a.233.233 0 01-.4.162z" fill="#FF9C43"/>
  <g>
    <path d="M21.784 15.14H11.027a.537.537 0 00-.538.538v6.3c0 .297.24.538.537.538h10.758c.297 0 .537-.24.537-.537v-6.301a.537.537 0 00-.537-.537z" fill="#A4D852"/>
    <path d="M21.784 15.14h-1.827v7.376h1.827c.297 0 .538-.24.538-.537v-6.301a.537.537 0 00-.538-.537z" fill="#97C63E"/>
    <path d="M22.557 15.14H10.253a.606.606 0 00-.606.606v.338c0 .335.272.606.606.606h12.304a.606.606 0 00.606-.606v-.338a.606.606 0 00-.606-.606z" fill="#97C63E"/>
    <path d="M17.089 20.098l-.58-.533a.152.152 0 00-.206 0l-.58.532a.152.152 0 01-.255-.112v-4.844h1.876v4.844a.152.152 0 01-.255.113z" fill="#EDEDED"/>
  </g>
  <path d="M17.344 15.14v-.363a.938.938 0 10-1.876 0v.364h1.876z" fill="#D6D6D6"/>
  <g fill="#000">
    <path d="M9.343 22.179H2.809a.579.579 0 01-.578-.578V7.634H7.5v5.176c0 .234.14.441.357.529a.568.568 0 00.624-.133l.748-.774.761.78a.568.568 0 00.623.13.568.568 0 00.355-.528v-5.18h5.271v4.903a.337.337 0 00.674 0V7.634h.115c.52 0 .942-.422.942-.942V5.73a.943.943 0 00-.942-.941h-3.022c1.132-.484 1.79-1.172 1.919-1.883.13-.72-.313-1.333-1.158-1.6-1.42-.448-2.886.056-4.242 1.457-.12.123-.233.248-.34.372a1.724 1.724 0 00-1.901 0 8.692 8.692 0 00-.34-.372C6.589 1.362 5.123.858 3.703 1.306c-.845.267-1.288.88-1.158 1.6.129.711.787 1.399 1.919 1.883H1.442A.943.943 0 00.5 5.73v.962c0 .52.422.942.942.942h.115v13.967c0 .69.562 1.252 1.252 1.252h6.534a.337.337 0 100-.674zm7.686-16.716c.148 0 .268.12.268.267v.962c0 .148-.12.268-.268.268h-6.06V5.463h6.06zm-2.463-3.514c.698.22.736.62.697.837-.144.796-1.56 1.802-4.294 1.984v-.185c0-.36-.11-.696-.3-.973.91-1.067 2.296-2.168 3.896-1.663zm-6.39 2.636a1.061 1.061 0 012.12 0v.204h-2.12v-.204zm0 .878h2.12v7.096l-.658-.675a.565.565 0 00-.408-.172h-.002c-.155 0-.3.063-.408.174l-.644.667v-7.09zM3.208 2.786c-.092-.508.398-.743.698-.837.276-.087.545-.127.807-.127 1.257 0 2.336.907 3.088 1.79V3.61c-.189.278-.3.613-.3.974v.184C4.77 4.587 3.353 3.582 3.209 2.786zM1.442 6.96a.268.268 0 01-.268-.268V5.73c0-.147.12-.267.268-.267h6.06V6.96h-6.06z"/>
    <path d="M22.558 14.804h-2.571c.563-.333.926-.77 1.016-1.23.11-.569-.22-1.072-.842-1.283-1.003-.34-2.033.034-2.976 1.082-.077.085-.15.172-.22.258a1.267 1.267 0 00-1.118 0 6.176 6.176 0 00-.22-.258c-.944-1.048-1.973-1.422-2.976-1.082-.622.21-.952.714-.842 1.283.09.46.453.897 1.016 1.23h-2.57a.944.944 0 00-.943.942v.34c0 .485.369.886.841.937v4.955c0 .482.392.875.874.875h10.758a.875.875 0 00.874-.875v-4.956a.944.944 0 00.841-.937v-.339a.944.944 0 00-.942-.942zm-5.087-.727c.067-.085.14-.17.214-.254.76-.843 1.52-1.144 2.26-.893.212.072.454.22.396.516-.101.524-.984 1.18-2.66 1.327-.001-.257-.078-.497-.21-.697zm-1.666.7a.602.602 0 011.202 0v.027h-1.202v-.027zm0 .7h1.202v4.088l-.27-.249a.488.488 0 00-.662 0l-.27.249v-4.088zm-3.335-2.031c-.057-.296.184-.444.397-.516.172-.059.34-.085.503-.085.793 0 1.483.62 1.97 1.232-.131.2-.208.44-.209.696-1.676-.147-2.559-.803-2.66-1.327zm-2.216 2.908a.27.27 0 01-.269-.269v-.339a.27.27 0 01.27-.269h4.876v.877h-4.877zm11.73 5.624a.2.2 0 01-.2.2H11.028a.2.2 0 01-.2-.2v-4.95h4.304v2.957a.49.49 0 00.82.36l.455-.417.455.418a.489.489 0 00.82-.36v-2.958h4.304v4.95zm.843-5.893a.27.27 0 01-.27.27h-4.876v-.878h4.877a.27.27 0 01.269.27v.338z"/>
  </g>
</svg>
