<svg width="24" height="24" fill="none" xmlns="http://www.w3.org/2000/svg">
  <defs/>
  <path d="M23.108 9.31H21.25v10.244H2.738V9.31H.88l3.643-5.638 7.47-2.525 7.473 2.525 3.642 5.638z" fill="#FCD577"/>
  <path d="M18.45 9.31V6.72H5.538v2.59H.879l3.644-5.638 7.47-2.525 7.473 2.525 3.642 5.638H18.45z" fill="#FF6F52"/>
  <path d="M21.25 13.569H2.738v1.028H21.25V13.57z" fill="#EAC36E"/>
  <g fill="#CFDCE5">
    <path d="M13.816 19.553h7.732v3.299H2.44v-3.299h7.732M22.14 11.177H1.849v2.392h20.29v-2.392z"/>
  </g>
  <path d="M11.994 1.147L8.43 6.72H5.54v2.59H.879l3.644-5.637 7.47-2.525z" fill="#E25749"/>
  <g fill="#EAC36E">
    <path d="M21.25 9.31h-2.8v1.867h2.8V9.31zM5.539 9.31h-2.8v1.867h2.8V9.31z"/>
  </g>
  <path d="M13.816 16.161h-3.643v6.691h3.643v-6.69z" fill="#415E72"/>
  <g fill="#4EBFED">
    <path d="M19.479 15.112H15.62v2.855h3.858v-2.855zM8.368 15.112H4.511v2.855h3.857v-2.855zM10.16 8.614H7.597v2.563h2.563V8.614zM16.392 8.614H13.83v2.563h2.563V8.614z"/>
  </g>
  <path d="M18.45 6.72H5.54v1.894h12.91V6.72z" fill="#EAC36E"/>
  <path d="M23.438 9.1l-3.642-5.638a.386.386 0 00-.201-.156L12.123.782a.386.386 0 00-.247 0l-3.405 1.15a.386.386 0 00.247.731L12 1.554l7.22 2.44 3.186 4.93H18.84V6.719a.386.386 0 00-.386-.385H5.545a.386.386 0 00-.386.385v2.205H1.594l3.185-4.93 2.814-.95a.386.386 0 00-.247-.731l-2.941.993a.386.386 0 00-.2.156L.562 9.1a.386.386 0 00.324.596h1.472v1.095h-.503a.386.386 0 00-.386.386v2.392c0 .213.172.385.386.385h.503v5.225a.386.386 0 00-.297.376v3.298c0 .213.173.385.386.385h19.106a.386.386 0 00.386-.385v-.6a.386.386 0 00-.772 0v.214h-6.96V19.94h6.96v1.027a.386.386 0 10.772 0v-1.412a.386.386 0 00-.297-.376v-4.324a.386.386 0 00-.772 0v4.314h-6.663v-3.007a.386.386 0 00-.386-.386h-3.643a.386.386 0 00-.385.386v1.025a.386.386 0 10.771 0v-.64h2.872v5.92h-2.872v-4.123a.386.386 0 00-.771 0v.825H3.13v-5.215h3.269a.386.386 0 000-.771H2.24v-1.62h19.52v1.62H7.685a.386.386 0 100 .771h14.46a.386.386 0 00.386-.386v-2.391a.386.386 0 00-.386-.386h-.503V9.695h1.472a.386.386 0 00.324-.595zM9.793 19.94v2.527h-6.96V19.94h6.96zM3.13 9.696h2.029v1.095H3.13V9.696zm4.858 1.095V9h1.791v1.791H7.988zm6.232 0V9h1.792v1.791H14.22zm2.563 0V8.614a.386.386 0 00-.385-.386h-2.563a.386.386 0 00-.386.386v2.177H10.55V8.614a.386.386 0 00-.386-.386H7.602a.386.386 0 00-.386.386v2.177H5.93V7.105h12.14v3.686h-1.287zm2.058 0V9.696h2.029v1.095h-2.029z" fill="#000"/>
  <path d="M15.626 14.726a.386.386 0 00-.386.385v2.855c0 .213.173.386.386.386h3.858a.386.386 0 00.385-.386v-2.855a.386.386 0 00-.385-.385h-3.858zm.386.771h1.157v2.083h-1.157v-2.083zm3.086 2.083H17.94v-2.083h1.157v2.083zM4.517 14.726a.386.386 0 00-.386.385v2.855c0 .213.173.386.386.386h3.857a.386.386 0 00.386-.386v-2.855a.386.386 0 00-.386-.385H4.517zm.385.771H6.06v2.083H4.902v-2.083zm3.086 2.083H6.831v-2.083h1.157v2.083zM11.183 19.964a.386.386 0 100-.772.386.386 0 000 .772z" fill="#000"/>
</svg>
