<svg width="24" height="24" fill="none" xmlns="http://www.w3.org/2000/svg">
  <defs/>
  <path d="M9.878 15.528l-.769.77a.366.366 0 01-.519 0 .367.367 0 010-.52l.761-.76c-.704-.535-1.729-.872-2.868-.872-2.12 0-3.843 1.165-3.843 2.598 0 1.351.701 2.541 1.758 3.227l3.154-3.154a.367.367 0 01.52.519l-2.988 2.987c.434.17.905.265 1.399.265a3.848 3.848 0 003.843-3.844c0-.439-.162-.852-.448-1.216zm-2.164.088l-3.106 3.107a.366.366 0 01-.52 0 .367.367 0 010-.52l3.107-3.106a.367.367 0 11.52.52zM21.36 16.744c0-.439-.162-.852-.447-1.216l-.77.77a.366.366 0 01-.518 0 .367.367 0 010-.52l.76-.76c-.704-.535-1.729-.872-2.868-.872-2.12 0-3.843 1.165-3.843 2.598 0 1.351.701 2.541 1.758 3.227l3.154-3.154a.367.367 0 11.52.519l-2.988 2.987c.434.17.906.265 1.4.265a3.848 3.848 0 003.843-3.844zm-2.612-1.128l-3.106 3.107a.366.366 0 01-.52 0 .367.367 0 010-.52l3.107-3.106a.367.367 0 11.52.52z" fill="#C1E8E6"/>
  <path d="M1.906 16.744c0-.196.022-.388.067-.577h-.368a.371.371 0 00-.37.371v.259c0 .204.166.37.37.37h.32c-.013-.139-.02-.28-.02-.423zM22.395 17.168c.204 0 .37-.167.37-.371v-.259a.371.371 0 00-.37-.37h-.368c.045.188.067.38.067.576 0 .143-.007.284-.02.423h.32z" fill="#6DA8D6"/>
  <path d="M7.195 15.097l-3.107 3.107a.367.367 0 10.52.519l3.106-3.107a.367.367 0 10-.52-.519zM4.304 20.769l-.058-.032a.368.368 0 00.058.032zM8.07 16.817a.367.367 0 00-.518 0L4.397 19.97c.215.139.445.257.686.352l2.988-2.988a.367.367 0 000-.518zM8.59 16.297a.366.366 0 00.519 0l.769-.769a2.889 2.889 0 00-.527-.51l-.761.76a.367.367 0 000 .52zM18.23 15.097l-3.107 3.107a.367.367 0 10.52.519l3.106-3.107a.367.367 0 10-.52-.519zM15.338 20.769l-.058-.032a.365.365 0 00.058.032zM19.106 16.817a.367.367 0 00-.52 0l-3.153 3.154c.215.139.444.257.685.352l2.988-2.988a.367.367 0 000-.518zM19.625 16.297a.366.366 0 00.52 0l.768-.769a2.89 2.89 0 00-.527-.51l-.76.76a.367.367 0 000 .52z" fill="#fff"/>
  <path d="M23.469 16.278l-.002-.007L20.48 4.25a2.069 2.069 0 00-2.012-1.57.367.367 0 000 .733c.617 0 1.15.417 1.3 1.015l2.736 11.012a1.095 1.095 0 00-.109-.006h-.662a3.505 3.505 0 00-1.027-1.086c-.857-.603-1.99-.935-3.189-.935-1.2 0-2.332.332-3.188.935-.684.482-1.132 1.091-1.307 1.76A2.311 2.311 0 0012 15.87c-.362 0-.71.082-1.022.235-.175-.668-.624-1.277-1.307-1.759-.856-.603-1.989-.935-3.188-.935-1.2 0-2.332.332-3.189.935a3.506 3.506 0 00-1.027 1.086h-.662c-.037 0-.073.002-.11.006L4.234 4.427a1.336 1.336 0 011.299-1.015.367.367 0 100-.734c-.955 0-1.782.646-2.012 1.571L.533 16.271l-.002.007c-.02.083-.031.17-.031.26v.259c0 .609.496 1.105 1.105 1.105h.449a4.596 4.596 0 002.192 2.835l.057.032a4.55 4.55 0 002.18.553 4.583 4.583 0 004.573-4.405c.264-.202.594-.312.944-.312s.68.11.944.312a4.582 4.582 0 002.336 3.82l.058.032a4.549 4.549 0 002.18.553 4.586 4.586 0 004.428-3.42h.45c.608 0 1.104-.496 1.104-1.105v-.259c0-.09-.011-.177-.031-.26zm-16.986 4.31a3.82 3.82 0 01-2.085-.617 3.843 3.843 0 01-1.759-3.227c0-1.432 1.724-2.598 3.844-2.598 1.139 0 2.164.337 2.868.871.204.155.382.327.527.512.286.363.448.776.448 1.215a3.848 3.848 0 01-3.843 3.844zm-5.249-3.791v-.259c0-.204.166-.37.37-.37h.368a2.516 2.516 0 00-.067.576c0 .143.007.284.02.424h-.32a.371.371 0 01-.371-.371zm14.884 3.526a3.843 3.843 0 01-2.444-3.579c0-1.432 1.724-2.598 3.843-2.598 1.14 0 2.164.337 2.869.871.204.155.381.327.527.512.285.363.448.776.448 1.215a3.848 3.848 0 01-3.844 3.844c-.493 0-.965-.095-1.399-.265zm5.91-4.156h.367c.204 0 .37.167.37.371v.259a.371.371 0 01-.37.37h-.32c.013-.139.02-.28.02-.423 0-.195-.023-.388-.067-.577z" fill="#082947"/>
</svg>
