<svg width="24" height="24" fill="none" xmlns="http://www.w3.org/2000/svg">
  <defs/>
  <path d="M14.44 15.705a7.195 7.195 0 100-14.39 7.195 7.195 0 000 14.39z" fill="#80A6C6"/>
  <path d="M16.193 15.49a7.194 7.194 0 01-8.948-6.98 7.194 7.194 0 018.948-6.98 7.197 7.197 0 000 13.96z" fill="#5B8EB8"/>
  <path d="M22.616 16.368l-5.864 4.703c-.482.387-1.1.563-1.714.488l-7.902-.962-2.106.78c-1.13-1.164-.666-4.907-.666-4.907l.502-.137A1.901 1.901 0 015.928 14.5l3.389-1.655 1.743-.851a1.657 1.657 0 011.578 2.909L9.82 16.592l4.74.826c.571.099 1.158-.021 1.644-.337l4.715-3.06a1.45 1.45 0 011.697 2.347z" fill="#F1D0A5"/>
  <path d="M15.025 20.296c-3.246.421-5.484-1.482-6.838-3.273a1.909 1.909 0 01.492-2.76c3.27-2.095 4.115-2.018 4.563-1.57a1.657 1.657 0 00-2.182-.698l-1.743.851-2.747 1.341v.001l-.642.313a1.9 1.9 0 00-1.062 1.832l-.502.137s-.465 3.743.666 4.906l2.106-.779 7.902.962a2.295 2.295 0 001.714-.488l5.863-4.703c-2.026-.55-5.403 3.593-7.59 3.928z" fill="#F1B986"/>
  <path d="M3.663 15.999a6.832 6.832 0 00-2.822.997 55.318 55.318 0 002.01 5.689 6.829 6.829 0 002.822-.997 55.338 55.338 0 00-2.01-5.69z" fill="#80A6C6"/>
  <path d="M5.673 21.688a6.822 6.822 0 01-2.822.997 55.999 55.999 0 01-.582-1.46 7.263 7.263 0 002.944-1.03c.16.495.314.993.46 1.493z" fill="#5B8EB8"/>
  <path d="M23.436 14.762a1.791 1.791 0 00-2.703-1.027l-4.714 3.06c-.415.27-.912.371-1.4.287l-3.837-.669 1.262-.757c.77.259 1.575.39 2.395.39h.001c4.156 0 7.536-3.381 7.536-7.536 0-.674-.09-1.342-.264-1.985a.341.341 0 00-.658.179c.13.476.206.968.23 1.465h-1.812c-.04-1.358-.319-2.653-.805-3.771.264-.18.517-.376.76-.59a6.868 6.868 0 011.167 1.68.34.34 0 10.612-.3 7.558 7.558 0 00-2.73-3.043A7.512 7.512 0 0014.44.975c-4.155 0-7.536 3.38-7.536 7.535 0 1.592.51 3.15 1.441 4.431l-1.997.976a.34.34 0 10.3.613l4.561-2.229a1.309 1.309 0 011.733.554 1.312 1.312 0 01-.48 1.756L9.645 16.3a.34.34 0 00.117.628l4.74.825a2.631 2.631 0 001.888-.386l4.715-3.06a1.115 1.115 0 011.674.636 1.11 1.11 0 01-.367 1.152l-.01.007-5.863 4.703c-.408.328-.94.479-1.46.415l-7.902-.961a.342.342 0 00-.16.018l-1.272.471a56.05 56.05 0 00-1.38-3.923l.592-.164a.341.341 0 00.249-.35 1.568 1.568 0 01.394-1.142.34.34 0 10-.508-.455 2.256 2.256 0 00-.567 1.36l-.416.114a48.285 48.285 0 00-.131-.32.341.341 0 00-.357-.207 7.2 7.2 0 00-2.96 1.046.341.341 0 00-.147.385 55.93 55.93 0 002.022 5.724.341.341 0 00.356.207 7.2 7.2 0 002.961-1.046.341.341 0 00.147-.385l-.056-.19 1.233-.457 7.82.952a2.65 2.65 0 001.969-.56l5.852-4.695a1.792 1.792 0 00.618-1.88zm-5.07-1.518c.195.136.383.283.564.44a6.87 6.87 0 01-1.651 1.064c.273-.28.53-.601.767-.964a7.5 7.5 0 00.32-.54zm-.89.167c-.74 1.133-1.686 1.807-2.695 1.932v-3.326a6.811 6.811 0 013.007.863 6.852 6.852 0 01-.313.531zm-2.695-2.076V8.85h4.009c-.039 1.23-.284 2.398-.71 3.41a7.495 7.495 0 00-3.3-.926zm4.643 1.875a7.559 7.559 0 00-.757-.587c.486-1.119.765-2.414.804-3.772h1.814a6.83 6.83 0 01-1.861 4.36zm-.634-5.04h-4.01V5.685a7.492 7.492 0 003.3-.927c.426 1.012.671 2.181.71 3.41zm-4.01-6.493c1.01.125 1.956.8 2.695 1.932.11.17.215.347.313.531-.916.514-1.94.811-3.007.864V1.677zm-4.266 2.1a6.885 6.885 0 01-.564-.441A6.873 6.873 0 0111.6 2.272c-.273.28-.53.602-.767.964-.113.174-.22.354-.32.54zm.89-.168c.74-1.133 1.686-1.807 2.695-1.932v3.327a6.813 6.813 0 01-3.007-.864c.098-.184.202-.361.313-.531zM14.1 5.686v2.483H10.09c.038-1.229.283-2.398.71-3.41a7.493 7.493 0 003.299.927zm4.833-2.352c-.181.158-.37.306-.566.442a7.492 7.492 0 00-.32-.54 6.27 6.27 0 00-.77-.967 6.82 6.82 0 011.656 1.065zm-9.476.476c.241.213.494.409.756.587-.486 1.12-.764 2.414-.804 3.772H7.595A6.83 6.83 0 019.456 3.81zM7.595 8.851h1.814c.034 1.15.242 2.27.607 3.274l-1.048.512a6.87 6.87 0 01-1.373-3.786zm3.666 2.705a1.99 1.99 0 00-.351.133l-.278.135a9.894 9.894 0 01-.541-2.973h4.008v2.484a7.525 7.525 0 00-1.655.26 1.99 1.99 0 00-1.183-.039zm2.28.975a2.02 2.02 0 00-.3-.418c.283-.05.57-.08.858-.095v3.325a2.967 2.967 0 01-1.03-.33c.72-.6.933-1.633.472-2.482zM3.065 22.31a55.263 55.263 0 01-1.822-5.158 6.51 6.51 0 012.206-.78 55.297 55.297 0 011.822 5.158 6.507 6.507 0 01-2.206.78z" fill="#000"/>
  <path d="M11.397 14.814c.139 0 .279-.033.41-.103l.422-.225a.341.341 0 00-.32-.602l-.423.225a.184.184 0 01-.238-.057 2.685 2.685 0 01-.373-.862.34.34 0 00-.67.13c.005.023.112.568.477 1.112a.859.859 0 00.715.382zM3.816 21.404a.344.344 0 00.332-.266c.07-.3-.282-.528-.53-.352a.344.344 0 00-.12.4c.05.13.178.218.318.218z" fill="#000"/>
</svg>
