<svg width="24" height="24" fill="none" xmlns="http://www.w3.org/2000/svg">
  <defs/>
  <path d="M8.999 18.634l-2.941 2.942 1.038 1.038 2.94-2.941L9 18.635zM3.895 17.51l-.952.951L3.981 19.5l2.942-2.942-1.038-1.038-.952.952a.366.366 0 01-.519 0l-.519.519a.367.367 0 010 .519z" fill="#185F8D"/>
  <path d="M8.48 18.115L7.44 17.077l-2.94 2.941 1.037 1.038 2.941-2.94zM3.375 16.99a.367.367 0 01.52 0l.518-.518a.367.367 0 010-.52l.952-.95-1.038-1.039-2.941 2.941 1.038 1.038.951-.951z" fill="#274B6D"/>
  <path d="M16.648 8.563a.367.367 0 01-.52 0l-3.2-3.2-8.081 8.081 1.297 1.297L7.7 16.3l2.855 2.855 8.082-8.082-1.471-1.47a.367.367 0 010-.52l-.52-.519z" fill="#F2484B"/>
  <path d="M21.665 7.18l-4.844-4.845-.087-.086-2.941 2.94 2.855 2.855a.367.367 0 010 .52l.519.518a.367.367 0 01.519 0l1.124 1.125 2.942-2.941-.087-.086z" fill="#F2EBD9"/>
  <path d="M22.41 4.357L19.642 1.59a1.285 1.285 0 00-.075-.069l-.01-.01a1.267 1.267 0 00-.07-.053l-.024-.016a1.2 1.2 0 00-.369-.17l-.026-.006a1.112 1.112 0 00-.084-.017l-.012-.002a1.099 1.099 0 00-.262-.005.975.975 0 00-.057.008l-.03.005a.902.902 0 00-.06.014l-.023.008a.879.879 0 00-.06.02l-.022.01a.864.864 0 00-.057.025l-.024.013a.807.807 0 00-.05.029l-.031.022-.038.028a.825.825 0 00-.057.05l-.008.008-.594.595L21.924 6.4l.595-.595a.868.868 0 00.248-.604 1.176 1.176 0 00-.357-.845z" fill="#fff"/>
  <path d="M22.93 3.838L20.162 1.07a1.974 1.974 0 00-.069-.065l-.008-.007a1.898 1.898 0 00-1.17-.495h-.025L18.82.5H18.792a1.624 1.624 0 00-.873.263l-.008.005a1.552 1.552 0 00-.055.039l-.016.012a1.54 1.54 0 00-.046.035l-.028.024-.032.028-.06.056-.594.595-.086-.087a.367.367 0 00-.52 0l-3.2 3.2-.087-.086a.367.367 0 00-.519 0l-8.6 8.6-3.46 3.46a.367.367 0 000 .52l3.114 3.114 3.114 3.114a.366.366 0 00.519 0l12.06-12.06a.367.367 0 000-.52l-.086-.086 3.2-3.2a.367.367 0 000-.52l-.086-.086.595-.595c.656-.656.607-1.771-.108-2.487zM7.44 17.078l1.039 1.038-2.942 2.94L4.5 20.02l2.941-2.942zm-3.114-3.115l1.038 1.038-.951.952a.367.367 0 00.519.519l.951-.952 1.038 1.038-2.94 2.942-1.039-1.039.952-.951a.367.367 0 10-.52-.52l-.95.952-1.039-1.038 2.941-2.94zm1.73 7.613L9 18.634l1.038 1.039-2.942 2.94-1.038-1.037zM17.686 9.082a.367.367 0 00-.52.52l1.471 1.47-8.081 8.082L7.7 16.299a57132.574 57132.574 0 01-2.855-2.855l8.082-8.081 3.2 3.2a.367.367 0 00.52-.519L13.792 5.19l2.941-2.942.086.087 4.845 4.844.087.087-2.942 2.941-1.124-1.125zm4.238-2.681L17.6 2.075l.595-.594.008-.007a.803.803 0 01.056-.051l.038-.028c.01-.007.02-.015.032-.022l.05-.029c.008-.004.015-.01.024-.013a.819.819 0 01.056-.026l.022-.01a.874.874 0 01.06-.02l.024-.007.06-.014.03-.005a.983.983 0 01.319-.003l.012.002c.028.004.056.01.083.016l.026.007.072.021.036.013a1.11 1.11 0 01.197.095l.064.04.024.017c.024.017.047.035.07.054l.01.009c.026.022.051.045.076.07l2.768 2.767c.241.242.362.553.356.845a.868.868 0 01-.248.604l-.595.595z" fill="#082947"/>
</svg>
