<svg width="24" height="24" fill="none" xmlns="http://www.w3.org/2000/svg">
  <defs/>
  <path d="M15.818 9.99l-2.303 3.752 5.044 8.218h4.606L15.818 9.99z" fill="#546F7A"/>
  <path d="M15.817 9.99l-.447.728 6.9 11.242h.894L15.817 9.99z" fill="#465A65"/>
  <path d="M9.696 21.96h8.862L9.696 7.522.835 21.96h8.861z" fill="#546F7A"/>
  <path d="M9.697 7.522l-.447.729 8.414 13.709h.895L9.697 7.522z" fill="#465A65"/>
  <path d="M9.697 3.628v1.587l4.164-1.587L9.697 2.04v1.588z" fill="#F2464F"/>
  <path d="M9.697 4.32v.895l4.164-1.587-1.173-.448-2.99 1.14z" fill="#D3333C"/>
  <path d="M13.466 13.662L10.914 12.5l-1.217 1.485L8.481 12.5l-2.552 1.162 3.768-6.14 3.769 6.14z" fill="#EFE7E4"/>
  <path d="M12.224 13.097l1.242.565-3.769-6.14-.447.729 2.974 4.846z" fill="#D8D1D0"/>
  <path d="M15.818 9.99l-2.303 3.752.117.192 1.256-.572.918 1.12.918-1.12 1.615.735-2.521-4.108z" fill="#EFE7E4"/>
  <path d="M17.097 13.532l1.242.565-2.522-4.108-.447.73 1.727 2.813z" fill="#D8D1D0"/>
  <path d="M23.45 21.785l-2.918-4.755a.335.335 0 10-.572.35l2.605 4.245h-3.819l-1.211-1.974-3.418-5.57.675-.307.754.921a.335.335 0 00.52 0l.754-.92 1.287.585 1.268 2.067a.335.335 0 10.572-.351l-1.322-2.154-2.522-4.108a.335.335 0 00-.571 0L13.515 13.1l-3.482-5.673v-1.98L13.98 3.94a.335.335 0 000-.627L9.817 1.727l-.006-.002a.354.354 0 00-.027-.009c-.004 0-.008-.002-.011-.003a.335.335 0 00-.028-.005l-.01-.001a.336.336 0 00-.076 0l-.009.001a.324.324 0 00-.028.005l-.01.003a.35.35 0 00-.065.024l-.006.003a.338.338 0 00-.033.02h-.001l-.005.004a.345.345 0 00-.023.019l-.01.008a.327.327 0 00-.018.018l-.008.01a.335.335 0 00-.019.023c0 .002-.002.004-.004.006a.333.333 0 00-.02.032c0 .002 0 .003-.002.005a.342.342 0 00-.013.029l-.003.01a.336.336 0 00-.009.026l-.002.01a.316.316 0 00-.005.029l-.002.01a.337.337 0 00-.002.038V7.427L4.499 15.35a.335.335 0 00.572.351l1.09-1.775 2.224-1.013 1.052 1.286a.336.336 0 00.52 0l1.052-1.286 2.224 1.013.113.184 2.22 3.617 2.393 3.899H1.435l3.014-4.91a.335.335 0 10-.572-.352L.55 21.785a.335.335 0 00.285.51h22.329a.336.336 0 00.287-.51zm-5.971-8.448l-.616-.28a.335.335 0 00-.399.092l-.658.804-.658-.803a.335.335 0 00-.4-.093l-.583.265 1.653-2.691 1.66 2.706zM10.033 4.73V2.527l2.886 1.1-2.886 1.102zm1.02 7.466a.335.335 0 00-.4.092l-.956 1.169-.957-1.168a.335.335 0 00-.398-.093l-1.553.707 2.908-4.739 2.908 4.739-1.553-.707z" fill="#000"/>
</svg>
