<svg width="24" height="24" fill="none" xmlns="http://www.w3.org/2000/svg">
  <defs/>
  <g fill="#FFDFA1">
    <path d="M19.272 20.54H17.12l1.294-3.533h3.34l1.332 3.533h-1.76M10.87 15.126H4.904l1.294-3.533h3.34l1.332 3.533zM19.17 15.126h-5.965l1.294-3.533h3.34l1.332 3.533zM6.782 20.54H.816l1.294-3.533h3.34l1.332 3.533zM15.02 9.731H9.056l1.293-3.533h3.34l1.332 3.533zM15.02 20.521H9.056l1.293-3.533h3.34l1.332 3.533z"/>
  </g>
  <g fill="#FBD696">
    <path d="M4.121 17.007H5.45l1.332 3.534h-2l-.66-3.534zM12.385 17.007h1.329l1.332 3.534h-2l-.661-3.534zM20.464 17.007h1.329l1.332 3.534h-2l-.661-3.534zM16.533 11.599h1.33l1.331 3.534h-2l-.66-3.534zM12.378 6.193h1.329l1.332 3.534h-2l-.661-3.534zM8.236 11.599h1.33l1.331 3.534h-2l-.66-3.534z"/>
  </g>
  <path d="M23.477 20.412l-1.333-3.533a.365.365 0 00-.341-.237h-3.34a.365.365 0 00-.344.24l-1.293 3.533a.365.365 0 00.343.491h2.152a.365.365 0 100-.73h-1.63l1.027-2.803h2.832l1.057 2.802h-1.231a.365.365 0 100 .731h1.759a.365.365 0 00.342-.494zM4.953 15.492h5.966a.365.365 0 00.332-.519L9.93 11.465a.365.365 0 00-.342-.236h-3.34a.365.365 0 00-.343.24L4.61 15a.365.365 0 00.343.491zm1.549-3.533h2.832l1.057 2.803H5.476l1.026-2.803zM19.22 15.492a.365.365 0 00.332-.519l-1.323-3.508a.365.365 0 00-.341-.236h-3.34a.365.365 0 00-.344.24L12.912 15a.365.365 0 00.343.491h5.966zm-5.443-.73l1.026-2.803h2.832l1.057 2.803h-4.915zM6.832 20.906a.365.365 0 00.331-.52l-1.322-3.508a.365.365 0 00-.342-.236h-3.34a.365.365 0 00-.343.24L.522 20.415a.365.365 0 00.343.49H6.832zm-5.444-.73l1.026-2.803h2.832l1.057 2.802H1.388zM13.737 5.833h-3.34a.365.365 0 00-.343.24L8.761 9.606a.365.365 0 00.343.491h5.966a.365.365 0 00.332-.519L14.079 6.07a.365.365 0 00-.342-.237zm-4.11 3.534l1.025-2.803h2.833l1.056 2.803H9.626zM14.079 16.86a.365.365 0 00-.342-.236h-3.34a.365.365 0 00-.343.24l-1.293 3.532a.365.365 0 00.343.491h5.966a.365.365 0 00.332-.519l-1.323-3.508zm-4.453 3.297l1.026-2.803h2.833l1.056 2.803H9.626zM21.591 15.69a.364.364 0 00.431-.284 10.252 10.252 0 00-1.106-7.09.365.365 0 00-.636.36 9.52 9.52 0 011.027 6.584c-.04.197.087.39.284.43z" fill="#000"/>
  <path d="M11.983 3.824a9.436 9.436 0 016.87 2.932.365.365 0 00.527-.506 10.213 10.213 0 00-7.397-3.156c-5.65 0-10.248 4.597-10.248 10.247 0 .61.054 1.22.16 1.816a.365.365 0 10.72-.129 9.611 9.611 0 01-.15-1.687c0-5.247 4.27-9.517 9.518-9.517z" fill="#000"/>
</svg>
