<svg width="24" height="24" fill="none" xmlns="http://www.w3.org/2000/svg">
  <defs/>
  <path d="M22.323 16.627H1.677a.838.838 0 010-1.676h20.646a.838.838 0 110 1.676z" fill="#7CA1B1"/>
  <path d="M22.323 14.951h-1.36a.838.838 0 110 1.675h1.36a.838.838 0 100-1.675z" fill="#678D98"/>
  <path d="M5.74 9.366h7.997v5.585H5.739V9.366z" fill="#E8B800"/>
  <path d="M9.073 12.159H4.636a.32.32 0 01-.3-.43l.789-2.153a.32.32 0 01.3-.21h2.858a.32.32 0 01.3.21l.79 2.152a.32.32 0 01-.3.43z" fill="#FED402"/>
  <path d="M9.374 11.728l-.79-2.152a.32.32 0 00-.3-.21h-1.36a.32.32 0 01.301.21l.79 2.152a.32.32 0 01-.3.43h1.358a.32.32 0 00.301-.43z" fill="#FAC600"/>
  <path d="M19.657 11.728l-.79-2.152a.32.32 0 00-.3-.21H11.726v2.793h7.631a.32.32 0 00.3-.43z" fill="#E8B800"/>
  <path d="M19.657 11.728l-.79-2.152a.32.32 0 00-.3-.21h-1.359a.32.32 0 01.3.21l.79 2.152a.32.32 0 01-.3.43h1.359a.32.32 0 00.3-.43z" fill="#D7AA02"/>
  <path d="M14.144 12.159H9.707a.32.32 0 01-.3-.43l.79-2.153a.32.32 0 01.3-.21h2.858a.32.32 0 01.3.21l.79 2.152a.32.32 0 01-.3.43z" fill="#FED402"/>
  <path d="M14.444 11.728l-.79-2.152a.32.32 0 00-.3-.21h-1.359a.32.32 0 01.3.21l.79 2.152a.32.32 0 01-.3.43h1.359a.32.32 0 00.3-.43z" fill="#FAC600"/>
  <path d="M6.534 14.951H2.097a.32.32 0 01-.3-.43l.789-2.152a.32.32 0 01.3-.21h2.858a.32.32 0 01.3.21l.79 2.152a.32.32 0 01-.3.43z" fill="#FED402"/>
  <path d="M6.835 14.52l-.79-2.151a.32.32 0 00-.3-.21h-1.36a.32.32 0 01.301.21l.79 2.152a.32.32 0 01-.3.43h1.358a.32.32 0 00.3-.43z" fill="#FAC600"/>
  <path d="M11.612 14.951H7.175a.32.32 0 01-.3-.43l.79-2.152a.32.32 0 01.3-.21h2.857a.32.32 0 01.3.21l.79 2.152a.32.32 0 01-.3.43z" fill="#FED402"/>
  <path d="M11.913 14.52l-.79-2.151a.32.32 0 00-.3-.21h-1.36a.32.32 0 01.301.21l.79 2.152a.32.32 0 01-.3.43h1.358a.32.32 0 00.301-.43z" fill="#FAC600"/>
  <path d="M22.203 14.52l-.79-2.151a.32.32 0 00-.3-.21H14.272v2.792h7.63a.32.32 0 00.301-.43z" fill="#E8B800"/>
  <path d="M22.203 14.52l-.79-2.151a.32.32 0 00-.3-.21H19.753a.32.32 0 01.302.21l.79 2.152a.32.32 0 01-.301.43h1.358a.32.32 0 00.301-.43z" fill="#D7AA02"/>
  <path d="M16.69 14.951h-4.437a.32.32 0 01-.3-.43l.79-2.152a.32.32 0 01.3-.21H15.9a.32.32 0 01.301.21l.79 2.152a.32.32 0 01-.3.43z" fill="#FED402"/>
  <path d="M16.991 14.52l-.79-2.151a.32.32 0 00-.3-.21h-1.359a.32.32 0 01.3.21l.79 2.152a.32.32 0 01-.3.43h1.358a.32.32 0 00.301-.43z" fill="#FAC600"/>
  <path d="M16.85 8.936l-.79-2.152a.32.32 0 00-.3-.21H8.92v2.792h7.631a.32.32 0 00.3-.43z" fill="#E8B800"/>
  <path d="M16.85 8.936l-.79-2.152a.32.32 0 00-.3-.21h-1.359a.32.32 0 01.301.21l.79 2.152a.32.32 0 01-.3.43h1.358a.32.32 0 00.3-.43z" fill="#D7AA02"/>
  <path d="M11.338 9.366H6.9a.32.32 0 01-.301-.43l.79-2.152a.32.32 0 01.3-.21h2.858a.32.32 0 01.3.21l.79 2.152a.32.32 0 01-.3.43z" fill="#FED402"/>
  <path d="M11.639 8.936l-.79-2.152a.32.32 0 00-.3-.21h-1.36a.32.32 0 01.301.21l.79 2.152a.32.32 0 01-.3.43h1.358a.32.32 0 00.3-.43z" fill="#FAC600"/>
  <path d="M3.897 3.443a.34.34 0 00.34-.34v-.477a.34.34 0 00-.68 0v.477c0 .188.153.34.34.34zM4.556 4.15h.478a.34.34 0 000-.68h-.478a.34.34 0 000 .68zM3.85 4.13a.34.34 0 00-.34.34v.476a.34.34 0 10.68 0V4.47a.34.34 0 00-.34-.34zM2.714 4.102h.477a.34.34 0 000-.68h-.477a.34.34 0 000 .68zM21.063 19.87a.34.34 0 00.34-.34v-.476a.34.34 0 10-.68 0v.477c0 .188.153.34.34.34zM22.2 19.898h-.477a.34.34 0 000 .68h.477a.34.34 0 000-.68zM21.015 20.557a.34.34 0 00-.34.34v.477a.34.34 0 00.68 0v-.477a.34.34 0 00-.34-.34zM20.357 19.85h-.477a.34.34 0 000 .68h.477a.34.34 0 100-.68zM22.563 14.636a.66.66 0 00-.04-.232l-.79-2.152a.662.662 0 00-.62-.433h-1.098a.66.66 0 00-.04-.208l-.789-2.152a.662.662 0 00-.62-.432H17.21a.658.658 0 00-.04-.208l-.79-2.152a.662.662 0 00-.619-.433H9.975a.34.34 0 000 .68H10.534l.776 2.113H6.928l.776-2.113h.912a.34.34 0 000-.68H7.69a.662.662 0 00-.62.433l-.79 2.152a.659.659 0 00-.038.208h-.816a.662.662 0 00-.62.432l-.79 2.152a.659.659 0 00-.038.208H2.887a.662.662 0 00-.62.433l-.79 2.152a.66.66 0 00-.04.232 1.179 1.179 0 00.24 2.33h6.09a.34.34 0 000-.68h-6.09a.498.498 0 010-.995h20.646a.498.498 0 010 .996H9.126a.34.34 0 000 .68h13.197a1.179 1.179 0 00.24-2.33zm-3.235-2.817h-.468l-.238-.657a.34.34 0 10-.639.232l.155.425h-1.784l-.24-.657a.34.34 0 10-.638.232l.155.425h-.829a.657.657 0 00-.039-.208l-.699-1.905h2.288l.237.65a.34.34 0 00.638-.232l-.152-.418h1.478l.775 2.113zm-7.395 1.77l-.4-1.09h.8l-.4 1.09zm-5.078 0l-.4-1.09h.8l-.4 1.09zm2.535-2.803l-.396-1.08h.792l-.396 1.08zm2.567-1.967l-.699-1.906h2.13l.24.658a.34.34 0 00.639-.232l-.155-.426h1.635l.775 2.114h-.678l-.266-.733a.34.34 0 10-.638.232l.181.5h-1.4l-.265-.732a.34.34 0 10-.639.233l.182.5h-1.003a.656.656 0 00-.039-.208zm1.383.887l.776 2.113H9.735l.775-2.113h2.83zm-7.9 0h2.83l.775 2.113h-4.38l.774-2.113zm-3.315 4.906l.775-2.113h2.83l.776 2.113H2.125zm5.078 0l.776-2.113h2.83l.775 2.113h-4.38zm9.387 0H12.28l.776-2.113h2.83l.776 2.113h-.073zm2.966 0l-.237-.654a.34.34 0 00-.639.232l.154.422h-1.485a.655.655 0 00-.04-.208l-.698-1.905h.437l.238.653a.34.34 0 00.638-.232l-.153-.421h1.835l.239.653a.34.34 0 10.638-.232l-.153-.421h.77l.775 2.113h-2.319z" fill="#000"/>
</svg>
