<svg width="24" height="24" fill="none" xmlns="http://www.w3.org/2000/svg">
  <defs/>
  <path d="M18.332 6.422H8.272a.704.704 0 010-1.407h10.06a.704.704 0 110 1.407z" fill="#FED402"/>
  <path d="M18.332 5.015h-1.355a.704.704 0 010 1.407h1.355a.704.704 0 000-1.407z" fill="#FAC600"/>
  <path d="M6.957 8.491a2.347 2.347 0 00-2.347 2.347v6.337a2.347 2.347 0 002.347 2.347h4.97V8.492h-4.97zm3.614 9.676H6.957a.993.993 0 01-.991-.992v-6.337c0-.547.444-.991.991-.991h3.614v8.32z" fill="#A8D3D8"/>
  <path d="M14.244 23.161h-1.647a3.82 3.82 0 01-3.82-3.82V6.421h9.287V19.34a3.82 3.82 0 01-3.82 3.821z" fill="#FFF9F0"/>
  <path d="M16.71 6.422V19.34a3.82 3.82 0 01-3.821 3.821h1.355a3.82 3.82 0 003.82-3.82V6.421H16.71z" fill="#FAE8DB"/>
  <path d="M17.61 18.15h-2.032a1.778 1.778 0 01-1.778-1.778v-6.056c0-.35.284-.635.636-.635h4.317c.352 0 .636.284.636.636v6.055c0 .982-.796 1.778-1.778 1.778z" fill="#FEDF30"/>
  <path d="M18.753 9.68h-1.356c.352 0 .636.285.636.636v6.056c0 .982-.796 1.778-1.778 1.778h1.355c.982 0 1.779-.796 1.779-1.778v-6.056a.636.636 0 00-.636-.635z" fill="#FAC600"/>
  <path d="M13.8 13.55v2.657c0 1.073.87 1.943 1.942 1.943h1.705c1.072 0 1.942-.87 1.942-1.942V13.55H13.8z" fill="#FAC600"/>
  <path d="M18.034 13.55v2.658c0 1.073-.87 1.942-1.943 1.942h1.355c1.073 0 1.943-.87 1.943-1.942V13.55h-1.355z" fill="#E8B800"/>
  <path d="M10.073 3.22h-.013a1.19 1.19 0 110-2.381h1.58c.225 0 .407.182.407.407 0 1.09-.884 1.974-1.974 1.974z" fill="#DEECF1"/>
  <path d="M11.64.839h-1.356c.225 0 .407.182.407.407 0 .82-.5 1.524-1.213 1.822.172.096.37.152.581.152h.014c1.09 0 1.973-.884 1.973-1.974a.407.407 0 00-.407-.407z" fill="#A8D3D8"/>
  <path d="M14.444 3.489h-.205a.895.895 0 01-.895-.895v-.146c0-.494.4-.895.895-.895h1.382c.17 0 .307.137.307.306v.146c0 .82-.665 1.484-1.484 1.484z" fill="#DEECF1"/>
  <path d="M15.621 1.553h-1.355c.17 0 .306.137.306.306v.146c0 .585-.338 1.091-.83 1.333a.89.89 0 00.497.15h.205c.82 0 1.484-.664 1.484-1.483v-.146a.306.306 0 00-.307-.306z" fill="#A8D3D8"/>
  <path d="M18.753 9.342h-.35V6.759a1.044 1.044 0 00-.072-2.083h-2.065V1.859a.646.646 0 00-.645-.645h-1.383c-.68 0-1.233.554-1.233 1.234v.146c0 .68.553 1.234 1.233 1.234h.205c.434 0 .832-.153 1.145-.406v1.254h-3.202v-3.43A.747.747 0 0011.64.5h-1.58c-.844 0-1.53.686-1.53 1.53 0 .842.686 1.528 1.53 1.528h.013c.638 0 1.216-.26 1.635-.678v1.796H8.272a1.044 1.044 0 000 2.085h.166v1.392h-1.48a2.689 2.689 0 00-2.687 2.685v6.337a2.689 2.689 0 002.686 2.686H8.47a4.166 4.166 0 004.127 3.639h1.647a4.164 4.164 0 004.16-4.16v-1.006a2.12 2.12 0 001.324-1.962v-6.056a.976.976 0 00-.975-.974zm-4.31-6.192h-.205a.557.557 0 01-.556-.556v-.146c0-.307.25-.556.556-.556h1.35v.113c0 .631-.513 1.145-1.145 1.145zm-4.37-.27h-.014a.853.853 0 010-1.702h1.58c.038 0 .069.03.069.068 0 .901-.733 1.635-1.635 1.635zm8.977 7.436v2.895H14.14v-2.895c0-.163.133-.297.296-.297h4.318c.164 0 .297.134.297.297zm-3.833 3.573h1.038v.561a.52.52 0 01-1.038 0v-.561zM4.949 17.175v-6.337c0-1.107.9-2.008 2.008-2.008h1.48v.678h-1.48c-.733 0-1.33.597-1.33 1.33v6.337c0 .734.597 1.33 1.33 1.33h1.48v.678h-1.48a2.01 2.01 0 01-2.008-2.008zm12.777 2.165a3.486 3.486 0 01-3.482 3.482h-1.647a3.486 3.486 0 01-3.482-3.482v-6.142a.339.339 0 10-.677 0v4.63h-1.48a.654.654 0 01-.654-.653v-6.337c0-.36.293-.653.653-.653h1.48v1.658a.339.339 0 10.678 0V6.761h1.013a.339.339 0 100-.677H8.272a.365.365 0 010-.73h10.06a.365.365 0 010 .73h-6.849a.339.339 0 000 .677h6.243v2.58h-3.29a.976.976 0 00-.975.976v6.055a2.12 2.12 0 002.117 2.117h2.032c.04 0 .078-.001.116-.003v.854zm-.116-1.529h-2.032c-.794 0-1.44-.645-1.44-1.44V13.89h.401v.561c0 .66.537 1.197 1.197 1.197s1.197-.537 1.197-1.197v-.561h2.117v2.483c0 .794-.646 1.44-1.44 1.44z" fill="#000"/>
  <path d="M15.315 11.775h2.557a.339.339 0 100-.678h-2.557a.339.339 0 100 .678zM10.827 10.288a.339.339 0 00-.339.338v.678a.339.339 0 10.678 0v-.678a.339.339 0 00-.339-.338zM10.827 8.255a.339.339 0 00-.339.339v.677a.339.339 0 10.678 0v-.677a.339.339 0 00-.339-.34zM10.827 12.32a.339.339 0 00-.339.34v.677a.339.339 0 10.678 0v-.678a.339.339 0 00-.339-.338zM10.827 18.42a.339.339 0 00-.339.338v.678a.339.339 0 10.678 0v-.678a.339.339 0 00-.339-.339zM10.827 16.386a.339.339 0 00-.339.339v.678a.339.339 0 10.678 0v-.678a.339.339 0 00-.339-.339zM10.827 14.353a.339.339 0 00-.339.34v.677a.339.339 0 10.678 0v-.678a.339.339 0 00-.339-.339z" fill="#000"/>
</svg>
