<svg width="24" height="24" fill="none" xmlns="http://www.w3.org/2000/svg">
  <defs/>
  <g fill-rule="evenodd" clip-rule="evenodd">
    <path d="M16.93 5.31l-1.547-.779-.112.777 2.544 5.769.944 1.047.67-1.04-2.498-5.774zM5.572 5.308l-.767-1.066-.767 1.066v5.778l.768.785.766-.785V5.308zM11.281 12.59H9.947c-.556 0-.947-.32-.947-.913V9.63c0-1.434-2.053-1.434-2.053.074v2.588L5.93 14.707c1.936.28 2.902.491 4.833.47.426-.005.853-.003 1.28-.001V13.35a.763.763 0 00-.763-.76z" fill="#ECECEC"/>
    <path d="M9.911 14.954l-2.058-1.487c-.554-.4-.906-.509-.906-1.174v-1.207H3.374c-.64 0-1.163.522-1.163 1.16v4.615l9.542 1.108 10.503-1.104-1.435-4.619c-.19-.61-.523-1.158-1.162-1.16l-.23-.002-1.613-.007c-1.012 0-1.18-.01-1.625.688l-.718 1.043-1.188 1.727c-.552.8-.874.642-1.628.642l-.613-.001c-.427-.002-.854-.004-1.28 0-.472.006-.483.044-.853-.222zM17.319 3.176H3.279a1.07 1.07 0 00-1.068 1.066c0 .586.481 1.066 1.068 1.066H17.319a1.07 1.07 0 001.067-1.066 1.07 1.07 0 00-1.067-1.066z" fill="#FE636E"/>
    <path d="M4.048 16.861H1.742a.906.906 0 00-.902.903c0 .496.406.903.902.903h2.114a2.173 2.173 0 01-.072-.626c0-.317.095-.821.264-1.18z" fill="#ACACAC"/>
    <path d="M20.933 12.606h-1.557c-1.275 0-.403 1.95 1.081 1.95h1.081l-.605-1.95z" fill="#FFD659"/>
    <path d="M20.821 12.246c-.19-.61-.523-1.158-1.162-1.16l-.23-.002-1.614-.007c-.132 0-.25-.002-.356 0l1.148.006c.64.003.973.55 1.163 1.16l.111.363h1.052l-.112-.36z" fill="#FB2A39"/>
    <path d="M20.933 12.606h-1.051l.606 1.95h1.05l-.605-1.95z" fill="#FFBF00"/>
    <path d="M21.538 14.555h-1.05l.716 2.308 1.052.002-.718-2.31z" fill="#FB2A39"/>
    <path d="M23.16 17.767a.906.906 0 00-.904-.902l-1.858-.003c.17.358.264.862.264 1.18 0 .317-.025.424-.071.625l1.665.002a.905.905 0 00.904-.902z" fill="#ACACAC"/>
    <path d="M23.158 17.722a.906.906 0 00-.902-.857h-.025l-.905-.001a.905.905 0 01.904.901.906.906 0 01-.867.903l.893.001a.905.905 0 00.903-.902l-.001-.045z" fill="#838383"/>
    <path d="M18.386 4.242a1.07 1.07 0 00-1.067-1.066H15.5c.587 0 1.068.48 1.068 1.066 0 .586-.481 1.066-1.068 1.066h1.82a1.07 1.07 0 001.066-1.066z" fill="#FB2A39"/>
    <path d="M12.043 13.351a.763.763 0 00-.762-.76h-.498a.76.76 0 01.343.634v1.95c.305-.002.612 0 .918 0v-1.824z" fill="#CECECE"/>
    <path d="M8.236 16.861c.17.359.264.863.264 1.18 0 .318-.024.425-.071.626h7.59a2.17 2.17 0 01-.072-.626c0-.317.094-.821.264-1.18H8.236z" fill="#ACACAC"/>
    <path d="M8.685 16.861a2.81 2.81 0 00-2.543-1.603 2.81 2.81 0 00-2.544 1.603 2.753 2.753 0 00-.192 1.806 2.802 2.802 0 002.736 2.157c1.333 0 2.45-.922 2.736-2.157a2.771 2.771 0 00-.192-1.805zM18.304 15.258a2.81 2.81 0 00-2.543 1.604 2.753 2.753 0 00-.193 1.805 2.802 2.802 0 002.736 2.157c1.333 0 2.45-.921 2.736-2.157a2.754 2.754 0 00-.193-1.805 2.806 2.806 0 00-2.543-1.604z" fill="#838383"/>
    <path d="M8.686 16.861a2.81 2.81 0 00-2.913-1.58c.786.223 1.43.776 1.773 1.499.175.369.264.77.264 1.179a2.793 2.793 0 01-2.438 2.76c.244.068.503.105.77.105 1.333 0 2.45-.922 2.736-2.157a2.813 2.813 0 00.042-1.026 2.778 2.778 0 00-.234-.78zM20.847 16.861a2.806 2.806 0 00-2.912-1.58c.786.223 1.431.776 1.774 1.499.174.369.263.77.263 1.179a2.793 2.793 0 01-2.438 2.76c.245.068.503.105.77.105 1.333 0 2.45-.922 2.736-2.157a2.815 2.815 0 00.042-1.026 2.782 2.782 0 00-.235-.78z" fill="#595959"/>
    <path d="M18.304 16.917c-.627 0-1.133.504-1.133 1.124 0 .62.507 1.124 1.133 1.124a1.13 1.13 0 001.133-1.124c0-.62-.508-1.124-1.133-1.124zM7.275 18.041c0-.62-.508-1.124-1.133-1.124-.627 0-1.133.504-1.133 1.124 0 .62.506 1.124 1.133 1.124a1.13 1.13 0 001.133-1.124z" fill="#ECECEC"/>
    <path d="M4.806 5.308h.766v5.778h-.766V5.308zM19.43 11.084l-2.5-5.774-.83-.002 2.498 5.773.832.003z" fill="#CECECE"/>
  </g>
  <path d="M22.515 16.552l-1.037-3.34-.22-.707v-.003l-.112-.357c-.288-.926-.788-1.397-1.485-1.4h-.007l-2.208-5.103a1.409 1.409 0 001.28-1.4c0-.776-.631-1.406-1.407-1.406H3.28c-.776 0-1.408.63-1.408 1.405a1.41 1.41 0 001.408 1.407h.419v5.097h-.323c-.83 0-1.504.674-1.504 1.501v4.275h-.128c-.686 0-1.243.557-1.243 1.243 0 .685.557 1.242 1.243 1.242H3.15a3.15 3.15 0 002.992 2.158 3.15 3.15 0 002.993-2.158h6.177a3.15 3.15 0 002.993 2.158 3.15 3.15 0 002.992-2.157l.958.002h.003c.33 0 .64-.129.876-.363.236-.236.366-.548.366-.88 0-.594-.423-1.093-.985-1.213zm-1.439-2.337h-.619c-.797 0-1.357-.709-1.357-1.092 0-.056.012-.096.037-.12.019-.017.08-.057.24-.057h1.306l.146.473.247.796zm-3.038-3.478L15.793 5.65h.915l2.203 5.093-.873-.005zM2.55 4.242c0-.4.327-.726.728-.726h14.04a.727.727 0 010 1.452h-6.472a.34.34 0 000 .68h4.202l2.247 5.093c-.643.023-.948.148-1.388.835l-.473.687-.966-1.055.616-.586a.34.34 0 10-.469-.493l-.774.737a.338.338 0 00-.167.158l-.773.735a.34.34 0 10.468.493l.606-.575 1.064 1.161-1.034 1.504c-.363.525-.515.52-1.02.502-.097-.004-.208-.008-.329-.008h-.273V13.35c0-.607-.495-1.1-1.103-1.1H9.947c-.277 0-.607-.1-.607-.574V9.63c0-.924-.678-1.407-1.347-1.407-.362 0-.701.135-.954.38-.197.19-.432.535-.432 1.1v1.041h-.695V5.648h3.38a.34.34 0 100-.68H3.279a.728.728 0 01-.728-.726zm8.21 10.594l-.157.003c-.262.006-.262.006-.493-.16L8.052 13.19c-.095-.069-.185-.13-.264-.184-.385-.26-.501-.339-.501-.714V9.705c0-.26.077-.47.224-.612a.688.688 0 01.482-.189c.332 0 .667.225.667.727v2.046c0 .75.517 1.254 1.287 1.254h1.334c.233 0 .423.188.423.42v1.483c-.313 0-.63 0-.943.002zM4.378 5.648h.854v5.097h-.854V5.648zM1.743 18.326a.563.563 0 010-1.125h1.369a3.09 3.09 0 00-.103 1.125H1.743zm4.4 2.158c-1.361 0-2.468-1.096-2.468-2.443s1.107-2.443 2.467-2.443 2.467 1.096 2.467 2.443c0 .154-.015.304-.043.45a.338.338 0 00-.047.203 2.467 2.467 0 01-2.377 1.79zm3.133-2.158a3.092 3.092 0 00-.103-1.125h1.723a.34.34 0 100-.68H8.89a3.153 3.153 0 00-2.748-1.603c-1.18 0-2.209.648-2.748 1.603h-.843v-4.275c0-.453.37-.82.824-.82h3.232v.867c0 .736.37.987.8 1.278.079.053.16.108.247.171l2.059 1.488c.38.274.503.298.906.29a92.707 92.707 0 011.425-.003l.026-.002.587.002c.11 0 .209.003.305.007.639.022 1.057-.004 1.604-.797l1.183-1.72.722-1.05.007-.01c.338-.53.337-.531 1.3-.53l1.88.008c.229.001.559.091.812.84h-1.094c-.293 0-.529.08-.7.239a.816.816 0 00-.256.619c0 .802.908 1.772 2.037 1.772h.83l.507 1.629-.741-.002a3.153 3.153 0 00-2.749-1.604c-1.18 0-2.209.648-2.747 1.603H12.85a.34.34 0 100 .68h2.424a3.092 3.092 0 00-.103 1.125H9.276zm9.029 2.158c-1.36 0-2.467-1.096-2.467-2.443s1.106-2.443 2.467-2.443c.942 0 1.763.527 2.178 1.298a.34.34 0 00.099.206c.122.29.19.607.19.939 0 1.347-1.107 2.443-2.467 2.443zm4.349-2.32a.557.557 0 01-.396.165h-.001l-.819-.002a3.09 3.09 0 00-.102-1.125l.919.003h.001a.559.559 0 01.397.96z" fill="#000"/>
  <path d="M18.305 16.577a1.47 1.47 0 00-1.473 1.464c0 .807.66 1.464 1.473 1.464a1.47 1.47 0 001.473-1.464 1.47 1.47 0 00-1.473-1.464zm0 2.248a.79.79 0 01-.793-.784.79.79 0 01.793-.784.79.79 0 01.793.784.79.79 0 01-.793.784zM6.142 19.505a1.47 1.47 0 01-1.473-1.464c0-.807.66-1.464 1.473-1.464a1.47 1.47 0 011.473 1.464 1.47 1.47 0 01-1.473 1.464zm0-2.248a.79.79 0 00-.793.784.79.79 0 00.793.784.79.79 0 00.793-.784.79.79 0 00-.793-.784z" fill="#000"/>
</svg>
