<svg width="24" height="24" fill="none" xmlns="http://www.w3.org/2000/svg">
  <defs/>
  <path d="M17.772 3.905a2.305 2.305 0 11-.001 4.61 2.305 2.305 0 010-4.61z" fill="#7E2D25"/>
  <path d="M13.229 3.574a5.25 5.25 0 118.246 6.357 12 12 0 00-1.076 1.327c-2.102 2.994-2.628 6.412-2.628 6.412s-.572-3.712-2.902-6.788a11.99 11.99 0 00-.802-.951A5.223 5.223 0 0112.52 6.21c0-.96.258-1.861.709-2.636zm6.846 2.636a2.305 2.305 0 10-4.609 0 2.305 2.305 0 004.61 0z" fill="#F14336"/>
  <path d="M20.445 11.29v9.387l-2.95-2.91-.25-.247-4.522-4.463 2.146-2.175c2.33 3.077 2.902 6.788 2.902 6.788s.527-3.418 2.628-6.412l.046.032z" fill="#CCC"/>
  <path d="M20.445 20.677v.606c0 .913-.696 1.663-1.587 1.75l-8.095-7.99 1.96-1.986 4.522 4.463.25.247 2.95 2.91z" fill="#F2F2F2"/>
  <path d="M10.763 15.043l8.095 7.99a1.758 1.758 0 01-.17.008H2.87l7.892-7.998z" fill="#518EF8"/>
  <path d="M14.869 10.883l-2.146 2.175-1.96 1.986L2.87 23.04h-.135c-.97 0-1.757-.787-1.757-1.758L13.238 8.86c.23.393.509.753.83 1.071h-.001c.287.307.554.626.802.952z" fill="#FFD837"/>
  <path d="M13.238 8.86L.978 21.283V5.332c0-.971.788-1.758 1.758-1.758H13.23a5.224 5.224 0 00-.709 2.636c0 .966.262 1.872.718 2.65z" fill="#28B446"/>
  <path d="M5.57 10.507a2.804 2.804 0 01-2.8-2.8c0-1.545 1.256-2.801 2.8-2.801.748 0 1.451.291 1.98.82a.459.459 0 11-.65.65 1.87 1.87 0 00-1.33-.552 1.885 1.885 0 00-1.882 1.883c0 1.038.844 1.882 1.882 1.882.88 0 1.62-.606 1.826-1.423H5.57a.46.46 0 110-.919h2.342a.46.46 0 01.459.46c0 1.544-1.256 2.8-2.8 2.8z" fill="#fff"/>
  <g fill="#333">
    <path d="M17.77 3.446a2.767 2.767 0 00-2.763 2.764 2.767 2.767 0 002.764 2.763 2.767 2.767 0 002.763-2.763 2.767 2.767 0 00-2.763-2.764zm0 4.609a1.847 1.847 0 01-1.845-1.845c0-1.018.828-1.846 1.846-1.846 1.017 0 1.845.828 1.845 1.846a1.847 1.847 0 01-1.845 1.845z"/>
    <path d="M17.771.5a5.733 5.733 0 00-4.798 2.615H2.736A2.22 2.22 0 00.52 5.332v15.951A2.22 2.22 0 002.736 23.5h15.952a2.207 2.207 0 002.217-2.217v-9.942c.285-.391.587-.757.9-1.09A5.69 5.69 0 0023.48 6.21 5.716 5.716 0 0017.77.5zM2.736 4.033h9.756a5.72 5.72 0 00.18 4.747L1.438 20.164V5.332a1.3 1.3 0 011.298-1.299zM1.451 21.458L13.167 9.586c.17.232.358.452.562.656l.003.003c.18.191.355.394.525.604L2.682 22.579a1.298 1.298 0 01-1.231-1.12zm13.364-9.867c1.3 1.88 1.972 3.94 2.28 5.135l-3.723-3.673 1.443-1.462zm-4.048 4.102l6.981 6.889H3.97l6.798-6.89zm8.246 6.846l-7.6-7.5 1.314-1.332 7.259 7.162v.414a1.29 1.29 0 01-.973 1.256zm-.808-4.718a.46.46 0 00.02-.08c.004-.029.394-2.455 1.761-4.947v6.785l-1.781-1.758zm3.98-9.741a4.775 4.775 0 01-1.034 1.526l-.01.01c-.392.417-.768.88-1.117 1.378-1.168 1.663-1.861 3.437-2.253 4.728-.422-1.393-1.195-3.347-2.537-5.117a12.506 12.506 0 00-.843-1A4.785 4.785 0 0112.98 6.21c0-.846.223-1.677.646-2.404a4.811 4.811 0 014.145-2.387 4.797 4.797 0 014.413 6.662z"/>
  </g>
</svg>
