<svg width="24" height="24" fill="none" xmlns="http://www.w3.org/2000/svg">
  <defs/>
  <path d="M13.116 18.698v-4.183h-2.232v4.183h-.322v1.488H13.439v-1.488h-.322z" fill="#49484D"/>
  <path d="M3.734 11.256h-1.14a.27.27 0 01-.269-.27V9.293c0-.149.12-.27.27-.27h1.14v2.233z" fill="#58565C"/>
  <path d="M2.595 11.256h1.14v-.899h-1.41v.63c0 .148.12.269.27.269z" fill="#49484D"/>
  <path d="M5.674 2.656V1.48c0-.15.12-.27.27-.27H8.38c.149 0 .27.12.27.27v1.177H5.674z" fill="#FFD151"/>
  <path d="M8.651 2.656h-.898V1.21h.629c.149 0 .27.12.27.27v1.177z" fill="#F79B4A"/>
  <path d="M20.93 9.767v4.466a.744.744 0 01-.744.744h-16a.744.744 0 01-.745-.744V3.069c0-.41.334-.744.745-.744h8.558l8.186 7.442z" fill="#B6E3EE"/>
  <path d="M20.93.837c.411 0 .744.333.744.744v7.442a.744.744 0 01-.744.744h-7.442a.744.744 0 01-.744-.744V1.581c0-.41.333-.744.744-.744h7.442z" fill="#58565C"/>
  <path d="M17.21 8.65a3.349 3.349 0 100-6.697 3.349 3.349 0 000 6.698z" fill="#FFD151"/>
  <path d="M19.66 5.302a3.349 3.349 0 01-2.9 3.318 3.349 3.349 0 100-6.636c1.637.22 2.9 1.62 2.9 3.318z" fill="#F79B4A"/>
  <path d="M17.21 7.535a2.233 2.233 0 100-4.465 2.233 2.233 0 000 4.465z" fill="#00BCE7"/>
  <path d="M18.543 5.302c0 1.08-.765 1.98-1.783 2.187a2.233 2.233 0 100-4.375 2.233 2.233 0 011.783 2.188z" fill="#0094D4"/>
  <path d="M7.162 17.954h1.591a.27.27 0 00.27-.27v-.949a.27.27 0 00-.27-.27h-1.59v1.489z" fill="#49484D"/>
  <path d="M7.534 16.465L6.87 15.8a.27.27 0 00-.19-.08h-.364a.27.27 0 00-.27.27v2.438c0 .15.122.27.27.27h.363a.27.27 0 00.191-.08l.665-.664v-1.489z" fill="#58565C"/>
  <path d="M6.678 15.72h-.363a.27.27 0 00-.27.27v2.438c0 .15.122.27.27.27h.363a.27.27 0 00.191-.08V15.8a.27.27 0 00-.19-.08z" fill="#49484D"/>
  <path d="M17.21 13.488a.744.744 0 100-1.488.744.744 0 000 1.488z" fill="#FF2551"/>
  <path d="M8.753 8.279H5.571a.27.27 0 01-.27-.27V4.828c0-.15.121-.27.27-.27h3.182c.15 0 .27.12.27.27v3.181a.27.27 0 01-.27.27z" fill="#00BCE7"/>
  <path d="M6.418 8.279V4.558h-.847a.27.27 0 00-.27.27v3.181c0 .15.121.27.27.27h.847z" fill="#58565C"/>
  <path d="M20.93.837h-.897c.411 0 .744.333.744.744v7.442a.744.744 0 01-.744.744h.897c.411 0 .744-.333.744-.744V1.581a.744.744 0 00-.744-.744z" fill="#49484D"/>
  <path d="M8.754 8.279h-.629V4.558h.629c.149 0 .27.12.27.27v3.181a.27.27 0 01-.27.27z" fill="#0094D4"/>
  <path d="M14.605 22.062h-1.489v-3.364h1.22c.148 0 .269.12.269.27v3.094zM9.396 22.062h1.488v-3.364H9.665a.27.27 0 00-.27.27v3.094z" fill="#58565C"/>
  <path d="M16.093 23.163H7.907v-1.219c0-.149.12-.27.27-.27h7.647c.149 0 .27.121.27.27v1.219z" fill="#FFD151"/>
  <path d="M15.823 21.675h-.898c.149 0 .27.12.27.27v1.218h.898v-1.219a.27.27 0 00-.27-.27z" fill="#F79B4A"/>
  <g fill="#000">
    <path d="M20.93.5h-7.442c-.596 0-1.08.485-1.08 1.081v.407h-3.42V1.21A.337.337 0 008.65.872H5.674a.337.337 0 00-.337.337v.78H4.186c-.596 0-1.081.484-1.081 1.08v5.617h-.78a.337.337 0 00-.337.337v2.233c0 .186.151.337.337.337h.78v2.64c0 .596.485 1.08 1.08 1.08h6.362v1.56H9.36v-.408a.337.337 0 00-.337-.337H7.674l-.645-.645a.337.337 0 00-.238-.099h-.745a.337.337 0 00-.337.337v2.977c0 .186.151.337.337.337h.745c.089 0 .175-.036.238-.099l.645-.646h1.35c.185 0 .336-.15.336-.337v-.407h1.187v.815H9.395a.337.337 0 00-.337.337v2.64H7.907a.337.337 0 00-.337.337v1.151h-.407a.337.337 0 100 .674h9.674a.337.337 0 100-.674h-.407v-1.151a.337.337 0 00-.337-.337h-1.152v-2.64a.337.337 0 00-.336-.337h-1.152v-.815h.78a.337.337 0 100-.674h-.78v-1.558h3.674a.337.337 0 100-.674H4.186a.408.408 0 01-.408-.407V3.069c0-.224.183-.407.408-.407h8.221v6.361c0 .596.485 1.081 1.081 1.081h7.105v4.129a.408.408 0 01-.407.407h-1.713a.337.337 0 100 .674h1.713c.596 0 1.081-.485 1.081-1.081V10.05c.432-.142.745-.548.745-1.027V1.581C22.012.985 21.527.5 20.93.5zM6.65 18.36h-.267v-2.302h.268l.547.547v1.21l-.547.546zm2.036-.743h-.814v-.815h.814v.815zm4.093 2.94v.781h-1.558v-.815h1.558v.034zm-2.232-1.522v1.186h-.815v-1.186h.815zm-.815 1.86h.815v.443h-.815v-.443zm6.024 1.931H8.244v-.814h7.512v.814zm-2.303-1.488v-.443h.815v.443h-.815zm.815-2.303v1.186h-.815v-1.186h.815zm-1.489-.337v1.151h-1.558v-4.535h1.558v3.384zm-10.117-7.78V9.36h.443v1.559h-.443zm3.35-9.372h2.302v.442H6.011v-.442zm15.326 7.477a.408.408 0 01-.408.407h-7.442a.408.408 0 01-.407-.407V1.581c0-.224.183-.407.407-.407h7.442c.225 0 .408.183.408.407v7.442z"/>
    <path d="M17.21 1.616a3.69 3.69 0 00-3.687 3.686 3.69 3.69 0 003.686 3.686 3.69 3.69 0 003.686-3.686 3.69 3.69 0 00-3.686-3.686zm0 6.698a3.015 3.015 0 01-3.013-3.012A3.015 3.015 0 0117.21 2.29a3.015 3.015 0 013.012 3.012 3.015 3.015 0 01-3.012 3.012z"/>
    <path d="M17.21 2.733a2.572 2.572 0 00-2.57 2.569 2.572 2.572 0 002.57 2.57 2.572 2.572 0 002.569-2.57 2.572 2.572 0 00-2.57-2.57zm0 4.465a1.898 1.898 0 01-1.897-1.896c0-1.045.85-1.896 1.896-1.896 1.045 0 1.896.85 1.896 1.896 0 1.045-.85 1.896-1.896 1.896zM17.21 11.663a1.082 1.082 0 000 2.162 1.082 1.082 0 000-2.162zm0 1.489a.408.408 0 110-.816.408.408 0 010 .816zM5.302 8.616h3.72c.187 0 .338-.151.338-.337V4.558a.337.337 0 00-.337-.337H5.302a.337.337 0 00-.337.337v3.72c0 .187.15.338.337.338zm3.384-.674H6.755V4.895h1.93v3.047zM5.639 4.895h.442v3.047H5.64V4.895zM4.965 12.744c0 .186.15.337.337.337h4.465c.186 0 .337-.15.337-.337v-1.488a.337.337 0 00-.337-.337H5.302a.337.337 0 00-.337.337v1.488zm.674-1.151H9.43v.814H5.64v-.814zM5.302 10.104h2.232a.337.337 0 100-.674H5.302a.337.337 0 000 .674z"/>
  </g>
</svg>
