<svg width="24" height="24" fill="none" xmlns="http://www.w3.org/2000/svg">
  <defs/>
  <path d="M6.046 21.675c0 .822.666 1.488 1.488 1.488h8.931c.822 0 1.488-.666 1.488-1.488V2.325c0-.822-.666-1.488-1.488-1.488h-8.93c-.823 0-1.49.666-1.49 1.488v19.35z" fill="#58565C"/>
  <path d="M16.465.837h-.899c.822 0 1.489.666 1.489 1.488v19.35c0 .822-.666 1.488-1.489 1.488h.899c.822 0 1.488-.666 1.488-1.488V2.325c0-.822-.666-1.488-1.488-1.488z" fill="#49484D"/>
  <path d="M17.953 3.814H6.046v16.372h11.907V3.814z" fill="#00BCE7"/>
  <path d="M17.953 3.814h-.898v16.372h.898V3.814z" fill="#0094D4"/>
  <path d="M12 22.419a.744.744 0 100-1.488.744.744 0 000 1.488z" fill="#00CE96"/>
  <path d="M15.349 6.79h.847c.149 0 .27.121.27.27v4.67a.27.27 0 01-.27.27h-4.67a.27.27 0 01-.27-.27V7.06c0-.149.12-.27.27-.27h3.823z" fill="#FFD151"/>
  <path d="M8.279 20.186v-3.451c0-.149.12-.27.269-.27h9.405V13.49H8.548a.27.27 0 01-.27-.27V3.814H6.047v16.372h2.233z" fill="#B6E3EE"/>
  <path d="M15.349 6.79a1.488 1.488 0 10-2.763.77l1.274 2.207 1.275-2.208c.136-.224.214-.487.214-.768z" fill="#FF2551"/>
  <path d="M13.86 7.348a.558.558 0 100-1.116.558.558 0 000 1.116z" fill="#fff"/>
  <path d="M16.196 11.1h-4.67a.27.27 0 01-.27-.27v.9c0 .15.12.27.27.27h4.67a.27.27 0 00.27-.27v-.9a.27.27 0 01-.27.27z" fill="#F79B4A"/>
  <path d="M17.953 13.489h-.898v2.976h.898V13.49z" fill="#96D2E0"/>
  <g fill="#000">
    <path d="M16.465.5h-8.93a1.827 1.827 0 00-1.826 1.825v4.35a.337.337 0 10.674 0V4.152h1.559v9.338c0 .186.15.336.337.336h9.337v2.303H8.28a.337.337 0 00-.337.337v3.384h-1.56V8.022a.337.337 0 10-.673 0v13.653c0 1.006.819 1.825 1.825 1.825h8.931a1.827 1.827 0 001.825-1.825V2.325A1.828 1.828 0 0016.465.5zM6.383 2.325c0-.635.516-1.151 1.151-1.151h8.931c.635 0 1.152.516 1.152 1.151v1.152H8.279 6.383V2.325zm2.232 10.827V4.15h9.001v9h-9zm0 3.65h9.001v3.047h-9v-3.047zm7.85 6.024h-8.93a1.153 1.153 0 01-1.152-1.151v-1.152h11.233v1.152c0 .635-.516 1.151-1.151 1.151z"/>
    <path d="M10.512 2.662h2.977a.337.337 0 100-.674h-2.977a.337.337 0 100 .674zM12 20.594a1.082 1.082 0 000 2.162 1.082 1.082 0 000-2.162zm0 1.488a.408.408 0 11.001-.815.408.408 0 01-.001.815zM13.86 7.686a.896.896 0 000-1.79.896.896 0 000 1.79zm0-1.117a.221.221 0 110 .443.221.221 0 010-.443z"/>
    <path d="M16.465 6.454h-.81a1.828 1.828 0 00-1.794-1.489c-.892 0-1.636.643-1.794 1.489h-.811a.337.337 0 00-.337.337V12c0 .185.15.336.337.336h5.21c.185 0 .336-.15.336-.337V6.79a.337.337 0 00-.337-.336zm-2.604-.815c.634 0 1.15.516 1.151 1.151v.001c0 .21-.057.415-.165.594l-.003.006-.983 1.703-.983-1.703a1.15 1.15 0 01-.168-.6c0-.635.516-1.152 1.15-1.152zm2.267 6.024h-4.535V7.127h.474c.04.213.117.417.229.603l.981 1.7h-.16a.337.337 0 100 .674h1.488a.337.337 0 100-.674h-.16l.98-1.7c.113-.186.19-.39.229-.603h.474v4.536zM11.256 17.617h-.744a.337.337 0 000 .674h.744a.337.337 0 100-.674zM14.977 17.617h-.745a.337.337 0 000 .674h.745a.337.337 0 100-.674z"/>
  </g>
</svg>
