<svg width="24" height="24" fill="none" xmlns="http://www.w3.org/2000/svg">
  <defs/>
  <path d="M18.989 21.276a2.808 2.808 0 01-1.462-.842 2.804 2.804 0 01-.719-1.538H9.785a.367.367 0 01-.367-.367h-.734a.367.367 0 01-.367.367H7.192a2.802 2.802 0 01-.719 1.537 2.807 2.807 0 01-1.461.843l.136 1.83v.027h13.704v-.027l.137-1.83z" fill="#FF6E1D"/>
  <path d="M21.27 16.938H2.73l.46 6.168.001.027h1.223l-.16-2.14a.367.367 0 01.334-.393 2.067 2.067 0 001.894-2.071c0-.203.164-.367.367-.367h1.468c.203 0 .367.164.367.367h.734c0-.203.164-.367.367-.367h7.366c.203 0 .367.164.367.367 0 1.085.814 1.975 1.894 2.07.2.018.349.194.334.394l-.16 2.14h1.223v-.027l.46-6.168zM14.634 4.956a2.257 2.257 0 00-2.4.306.366.366 0 01-.469 0 2.249 2.249 0 00-2.4-.306c-.079.259-.118.518-.118.788A2.756 2.756 0 0012 8.497a2.756 2.756 0 002.752-2.753c0-.27-.039-.53-.118-.788z" fill="#FFCC75"/>
  <path d="M9.432 4.144A2.985 2.985 0 0112 4.521a2.983 2.983 0 012.568-.377v-2.91H9.432v2.91z" fill="#6DA8D6"/>
  <path d="M5.76 1.234h2.938v3.404a3.384 3.384 0 00-.185 1.106A3.49 3.49 0 0012 9.231a3.49 3.49 0 003.487-3.487c0-.38-.061-.743-.185-1.106V1.234h1.836v4.437l-.375.907a.367.367 0 10.678.28l.064-.155.065.156a.367.367 0 10.678-.28l-.376-.908V1.234h.367a.367.367 0 100-.734H5.761a.367.367 0 100 .734zM12 8.497a2.756 2.756 0 01-2.753-2.753c0-.27.04-.53.119-.788a2.257 2.257 0 012.4.306.366.366 0 00.469 0 2.248 2.248 0 012.399-.306c.08.259.119.518.119.788A2.756 2.756 0 0112 8.497zm2.568-4.353A2.984 2.984 0 0012 4.521a2.984 2.984 0 00-2.568-.377v-2.91h5.136v2.91z" fill="#082947"/>
  <path d="M9.347 11.334l2.286 2.286v-1.049a.367.367 0 11.734 0v1.05l2.287-2.287a5.83 5.83 0 00-2.287-.623v.392a.367.367 0 11-.734 0v-.392c-.818.05-1.592.27-2.286.623z" fill="#fff"/>
  <path d="M17.86 16.204a5.874 5.874 0 00-2.554-4.484l-3.046 3.046-.004.003a.319.319 0 01-.023.021l-.013.01-.016.011-.016.01-.015.009-.016.008-.017.007-.015.006-.018.006-.016.005-.02.004-.018.003-.017.002a.364.364 0 01-.072 0l-.016-.002c-.007 0-.013-.002-.02-.003l-.018-.004a.303.303 0 01-.016-.005l-.018-.006-.016-.006-.016-.007-.017-.008-.015-.009-.016-.01-.015-.011-.014-.01a43799.083 43799.083 0 01-3.073-3.07 5.874 5.874 0 00-2.554 4.484h11.72z" fill="#185F8D"/>
  <path d="M23.133 16.204h-4.537a6.61 6.61 0 00-3.11-5.242A6.566 6.566 0 0012 9.965a6.567 6.567 0 00-3.486.997 6.611 6.611 0 00-3.11 5.242H.867a.367.367 0 100 .734h1.127l.464 6.222a.367.367 0 00.733-.027v-.027l-.46-6.168h18.538l-.46 6.168v.027a.367.367 0 00.732.027l.465-6.222h1.127a.367.367 0 100-.734zM12 11.47a.367.367 0 00.367-.367v-.392c.818.05 1.592.27 2.286.623l-2.286 2.286v-1.049a.367.367 0 10-.734 0v1.05l-2.287-2.287a5.83 5.83 0 012.287-.623v.392c0 .203.164.367.367.367zm-3.305.25l3.046 3.046.026.024.013.01.016.011.016.01.015.009.017.008.016.007.016.006.018.006.016.005.018.004.02.003.016.002a.366.366 0 00.072 0l.017-.002.019-.003.019-.005c.005 0 .01-.002.016-.004l.018-.006.015-.006.017-.007.016-.008.015-.01.016-.009.016-.011.013-.01a.368.368 0 00.023-.02c0-.002.002-.003.004-.004l3.045-3.046a5.873 5.873 0 012.556 4.484H6.139a5.873 5.873 0 012.556-4.484z" fill="#082947"/>
  <path d="M5.011 21.276a2.807 2.807 0 001.462-.843c.395-.43.644-.965.719-1.537h1.125a.367.367 0 100-.734H6.849a.367.367 0 00-.368.367 2.067 2.067 0 01-1.893 2.07.367.367 0 00-.334.394l.16 2.14.002.027a.367.367 0 00.732-.027v-.027l-.137-1.83zM19.412 20.6a2.067 2.067 0 01-1.894-2.071.367.367 0 00-.367-.367H9.785a.367.367 0 000 .734h7.023c.075.572.323 1.108.719 1.537.393.427.903.72 1.461.843l-.136 1.83v.027a.367.367 0 00.732.027l.002-.027.16-2.14a.367.367 0 00-.334-.393z" fill="#082947"/>
</svg>
