<svg width="24" height="24" fill="none" xmlns="http://www.w3.org/2000/svg">
  <defs/>
  <path d="M15.935 15.805a8.26 8.26 0 00-3.567-.983v1.093a.367.367 0 01-.735 0v-1.093a8.26 8.26 0 00-3.567.983l3.567 3.567v-1.99a.367.367 0 11.735 0v1.99l3.567-3.567z" fill="#fff"/>
  <path d="M8.024 8.146a3.98 3.98 0 003.977 3.976 3.98 3.98 0 003.976-3.976c0-.412-.063-.805-.19-1.2a3.28 3.28 0 00-3.552.418.366.366 0 01-.47 0 3.28 3.28 0 00-3.55-.417c-.128.394-.19.787-.19 1.2z" fill="#F2EBD9"/>
  <path d="M7.315 15.39A8.999 8.999 0 0112 14.08c1.713 0 3.318.479 4.685 1.31.03.013.058.03.084.051.365.228.713.48 1.042.756v-1.872a.367.367 0 01-.367-.367V8.146a5.4 5.4 0 00-.991-3.133V6.63c.172.498.257.995.257 1.516a4.715 4.715 0 01-4.71 4.71 4.715 4.715 0 01-4.71-4.71c0-.521.084-1.018.256-1.516V5.013a5.4 5.4 0 00-.99 3.133v5.812a.367.367 0 01-.368.367v1.872a9.097 9.097 0 011.043-.756.364.364 0 01.083-.052z" fill="#FFCC75"/>
  <path d="M8.281 6.12a4.01 4.01 0 013.72.5 4.01 4.01 0 013.718-.5V2.824c0-.202.165-.367.368-.367v-.734H8.28V6.12z" fill="#6DA8D6"/>
  <path d="M6.556 13.957v-5.81a5.4 5.4 0 01.991-3.134V6.63a4.572 4.572 0 00-.257 1.516 4.716 4.716 0 004.71 4.71 4.716 4.716 0 004.71-4.71c0-.522-.084-1.018-.256-1.516V5.013a5.4 5.4 0 01.99 3.133v5.811a.367.367 0 10.735 0v-5.81a6.131 6.131 0 00-1.725-4.283v-1.04a.367.367 0 10-.734 0V6.12a4.048 4.048 0 00-1.395-.247 4.01 4.01 0 00-2.324.746 4.01 4.01 0 00-3.72-.5V1.724h11.06v6.35l-.534 1.29a.367.367 0 10.678.28l.223-.538.223.538a.367.367 0 10.678-.28l-.534-1.29v-6.35h.612a.367.367 0 100-.734h-.612V.867a.367.367 0 10-.734 0v.122H3.314a.367.367 0 100 .734h4.233v2.141a6.132 6.132 0 00-1.725 4.282v5.811a.367.367 0 10.734 0zm3.12-7.35c.761 0 1.504.269 2.09.757a.366.366 0 00.47 0 3.28 3.28 0 013.55-.417c.128.394.19.787.19 1.2A3.98 3.98 0 0112 12.121a3.98 3.98 0 01-3.976-3.976c0-.412.063-.805.19-1.2a3.28 3.28 0 011.462-.339z" fill="#082947"/>
  <path d="M7.23 22.766h13.082a8.32 8.32 0 00-3.728-6.572l-4.324 4.323-.003.003a.375.375 0 01-.023.021l-.009.007-.02.015-.008.004a.392.392 0 01-.023.014l-.006.003a.391.391 0 01-.027.013l-.004.001a.391.391 0 01-.03.011l-.003.001a.322.322 0 01-.031.008l-.009.001a.393.393 0 01-.1.004.396.396 0 01-.027-.004l-.009-.001a.346.346 0 01-.03-.008l-.004-.001a.379.379 0 01-.03-.01l-.004-.002a.352.352 0 01-.027-.013l-.006-.003-.023-.014-.008-.004-.02-.015-.008-.006a.403.403 0 01-.024-.022l-.003-.003-4.324-4.323a8.32 8.32 0 00-3.728 6.572h2.072c.203 0 .367.164.367.367h.734c0-.203.165-.367.367-.367z" fill="#185F8D"/>
  <path d="M17.812 16.197a9.109 9.109 0 00-1.043-.756.366.366 0 00-.083-.052 8.998 8.998 0 00-4.685-1.31 8.999 8.999 0 00-4.686 1.31.363.363 0 00-.084.052c-.365.228-.713.48-1.042.756a9.037 9.037 0 00-3.242 6.936c0 .203.165.367.367.367h2.447a.367.367 0 100-.734H3.69a8.32 8.32 0 013.728-6.572l4.324 4.324.003.002a.347.347 0 00.024.022l.008.006a.38.38 0 00.02.015l.008.005.023.014.006.002a.391.391 0 00.027.013l.004.001.03.011.003.001.031.008.009.001.027.004a.373.373 0 00.073 0c.01 0 .018-.002.027-.004l.009-.001a.347.347 0 00.03-.008h.004a.363.363 0 00.03-.012l.004-.001a.37.37 0 00.027-.013l.006-.002.023-.015.008-.004a.38.38 0 00.02-.015l.008-.006a.347.347 0 00.024-.022l.003-.002 4.324-4.324a8.32 8.32 0 013.728 6.572H7.229a.367.367 0 100 .734h13.458a.367.367 0 00.367-.367 9.037 9.037 0 00-3.242-6.936zM12 17.016a.367.367 0 00-.367.367v1.989l-3.567-3.567a8.26 8.26 0 013.567-.983v1.093a.367.367 0 10.735 0v-1.093a8.261 8.261 0 013.567.983l-3.568 3.567v-1.989a.367.367 0 00-.367-.367z" fill="#082947"/>
</svg>
