<svg width="24" height="24" fill="none" xmlns="http://www.w3.org/2000/svg">
  <defs/>
  <path d="M11.633 15.884V2.335c0-.203.164-.367.367-.367v-.734H4.17v10.041L12 17.393v-1.142a.367.367 0 01-.367-.367zm-2.08-5.107H6.25a.367.367 0 110-.734h3.303a.367.367 0 110 .734zm0-2.203H6.25a.367.367 0 110-.734h3.303a.367.367 0 110 .734zm0-2.202H6.25a.367.367 0 110-.734h3.303a.367.367 0 110 .734zm0-2.202H6.25a.367.367 0 110-.734h3.303a.367.367 0 110 .734z" fill="#F2EBD9"/>
  <path d="M15.519 7.139l-.4-.964-.398.964h.798z" fill="#FFCC75"/>
  <path d="M12 1.968c.203 0 .367.164.367.367v13.549a.367.367 0 01-.367.367v1.142l7.83-6.118V1.234H12v.734zm4.686 3.86h.611v-.612a.367.367 0 11.734 0v.612h.612a.367.367 0 110 .734h-.612v.611a.367.367 0 11-.734 0v-.611h-.611a.367.367 0 110-.734zm-3.471 3.028l.617-1.491.002-.004.947-2.285a.367.367 0 01.678 0l.946 2.284.002.006.618 1.49a.367.367 0 11-.678.281l-.524-1.264h-1.407l-.523 1.264a.367.367 0 11-.678-.28z" fill="#FFCC75"/>
  <path d="M20.564 10.701l1.503-1.174h-1.503V10.7zM3.436 10.701V9.527H1.933L3.436 10.7z" fill="#C1E8E6"/>
  <path d="M14.788 16.146l3.522 2.752c.16.125.188.356.063.516l.579.452a.367.367 0 01.515-.064l3.299 2.578V9.912l-7.978 6.234z" fill="#98D9D5"/>
  <path d="M18.084 19.555a.366.366 0 01-.226-.078l-3.666-2.865-1.966 1.536a.367.367 0 01-.452 0l-1.966-1.536-7.875 6.154h20.134l-3.052-2.385a.367.367 0 01-.064-.515l-.578-.452a.366.366 0 01-.29.14z" fill="#C1E8E6"/>
  <path d="M9.212 16.146L1.234 9.912V22.38l7.978-6.234z" fill="#fff"/>
  <path d="M16.685 6.562h.612v.611a.367.367 0 10.734 0v-.611h.612a.367.367 0 100-.734h-.612v-.612a.367.367 0 10-.734 0v.612h-.612a.367.367 0 100 .734zM13.413 9.336a.367.367 0 00.48-.199l.523-1.264h1.407l.523 1.264a.367.367 0 10.679-.28l-.618-1.491a.104.104 0 00-.002-.006l-.946-2.284a.367.367 0 00-.678 0l-.947 2.285a.239.239 0 00-.002.004l-.617 1.491a.367.367 0 00.198.48zm1.707-3.16l.399.963h-.799l.4-.964zM9.553 3.436H6.25a.367.367 0 100 .734h3.303a.367.367 0 100-.734zM9.553 5.638H6.25a.367.367 0 100 .734h3.303a.367.367 0 100-.734zM9.553 7.84H6.25a.367.367 0 100 .735h3.303a.367.367 0 100-.735zM9.553 10.043H6.25a.367.367 0 100 .734h3.303a.367.367 0 100-.734z" fill="#082947"/>
  <path d="M23.45 23.319c.002-.006.006-.011.009-.017l.007-.016.008-.017a.269.269 0 00.016-.052.317.317 0 00.003-.016l.003-.02.002-.016.001-.021V9.16v-.011-.022l-.003-.015a.443.443 0 00-.01-.055c-.003-.005-.004-.011-.006-.017a.28.28 0 00-.006-.017l-.008-.017a.34.34 0 00-.017-.032l-.008-.014a.31.31 0 00-.012-.017l-.007-.01-.003-.003a.478.478 0 00-.013-.015l-.011-.013-.013-.011-.014-.013-.012-.01-.017-.012-.012-.008-.018-.01-.016-.008-.015-.007-.02-.008-.013-.005-.021-.006c-.005 0-.01-.002-.014-.003l-.019-.003-.017-.003-.016-.001-.02-.001H20.562V.867A.367.367 0 0020.198.5H3.803a.367.367 0 00-.367.367v7.926H.841l-.015.002-.018.003L.79 8.8c-.005 0-.01.002-.015.004l-.02.005-.014.005-.019.007-.016.008-.015.008-.019.011-.011.007-.018.013-.011.009-.015.013-.012.011-.011.013-.013.015-.003.004-.007.009a.343.343 0 00-.012.017l-.008.014-.01.017a.323.323 0 00-.026.066.357.357 0 00-.012.055l-.001.015A.35.35 0 00.5 9.15v13.994l.002.022.001.016.004.02.003.016a.388.388 0 00.024.069l.007.016a.407.407 0 00.01.017l.008.014.012.017.007.009.002.003a.35.35 0 00.022.025l.005.005a.356.356 0 00.029.026l.012.009.02.014.013.008a.485.485 0 00.058.027l.012.005a.362.362 0 00.027.008l.01.002a.33.33 0 00.032.006h.007a.349.349 0 00.04.003h22.266c.013 0 .027 0 .04-.002l.007-.001a.379.379 0 00.032-.006l.01-.002a.369.369 0 00.027-.008l.012-.004a.417.417 0 00.058-.028l.014-.008a.388.388 0 00.02-.014l.011-.01a.345.345 0 00.029-.025l.005-.005a.347.347 0 00.021-.025l.003-.003.007-.01a.325.325 0 00.02-.03zm-3.983-3.517a.367.367 0 10-.452.579l3.052 2.385H1.933l7.875-6.154 1.966 1.536a.366.366 0 00.452 0l1.966-1.536 3.666 2.865a.365.365 0 00.515-.063.367.367 0 00-.063-.516l-3.522-2.752 7.978-6.234V22.38l-3.3-2.578zM9.212 16.146L1.234 22.38V9.912l7.978 6.234zm11.352-5.445V9.527h1.503L20.564 10.7zm-.734.574L12 17.393l-7.83-6.118V1.234h15.66v10.041zm-16.394-.574L1.933 9.527h1.503V10.7z" fill="#082947"/>
  <path d="M11.633 2.335v13.549a.367.367 0 10.734 0V2.335a.367.367 0 10-.734 0z" fill="#082947"/>
</svg>
