<svg width="24" height="24" fill="none" xmlns="http://www.w3.org/2000/svg">
  <defs/>
  <g fill="#6BE8C7">
    <path d="M11.987 9.71H10.06v12.947h1.927V9.71zM18.887 13.797H17.02v8.86h1.867v-8.86z"/>
  </g>
  <g fill="#34C195">
    <path d="M20.9 13.797h-2.012v8.86H20.9v-8.86zM13.94 9.71h-1.954v12.947h1.954V9.71z"/>
  </g>
  <path d="M3.101 9.757v12.898h1.974V4.218H3.101v3.24c0 .234-.19.423-.423.423h-.011v1.454h.011c.234 0 .423.188.423.422z" fill="#6BE8C7"/>
  <path d="M6.98 4.218H5.075v18.437H6.98V4.218z" fill="#34C195"/>
  <path d="M14.362 8.864H9.637a.423.423 0 00-.422.422v13.791c0 .234.189.423.422.423h4.725c.234 0 .423-.19.423-.423V9.287a.423.423 0 00-.423-.423zm-.422 13.79h-3.88V9.71h3.88v12.946zM7.403 3.373H2.68a.423.423 0 00-.423.422V7.46c0 .23.183.416.411.422h.012c.233 0 .422-.189.422-.422V4.218h3.88v18.437H3.1V9.757a.423.423 0 00-.422-.423h-.012a.422.422 0 00-.411.423v13.32c0 .234.189.423.422.423h4.725c.234 0 .423-.19.423-.423V3.795a.423.423 0 00-.423-.422zM21.322 12.95h-4.725a.423.423 0 00-.422.423v9.704c0 .234.189.423.422.423h4.725c.234 0 .423-.19.423-.423v-9.705a.423.423 0 00-.423-.422zm-.422 9.705h-3.88v-8.86H20.9v8.86zM12.541.867a.423.423 0 00-.444-.366c-.01 0-.02 0-.03.002L9.82.798a.423.423 0 00-.365.47l.272 2.25a.423.423 0 00.84-.1l-.14-1.162-.007-.05 8.976 7.253a.42.42 0 00.243.092l.022.001a.422.422 0 00.266-.751l-9.025-7.292 1.276-.168a.423.423 0 00.363-.474z" fill="#000"/>
</svg>
