<svg width="24" height="24" fill="none" xmlns="http://www.w3.org/2000/svg">
  <defs/>
  <g fill="#3B8BC0">
    <path d="M22.216 8.539a.963.963 0 100-1.926.963.963 0 000 1.926zM1.67 8.492a.963.963 0 100-1.925.963.963 0 000 1.925z"/>
  </g>
  <path d="M13.752 5.6h-3.573v3.573h3.573V5.599z" fill="#9AD7FF"/>
  <path d="M17.086 8.068h4.085c.195.415.618.703 1.106.703.674 0 1.223-.549 1.223-1.223a1.224 1.224 0 00-2.33-.52h-6.863V5.617a.52.52 0 00-.52-.52h-3.574a.52.52 0 00-.52.52v1.41H2.829a1.224 1.224 0 00-2.33.52 1.224 1.224 0 002.33.521h4.085A11.5 11.5 0 00.5 18.383a.52.52 0 001.04 0c0-4.943 3.394-9.14 8.153-10.204V9.19c0 .287.233.52.52.52h3.574a.52.52 0 00.52-.52V8.18a10.412 10.412 0 018.152 10.203.52.52 0 001.041 0 11.5 11.5 0 00-6.414-10.315zm5.191-.702a.182.182 0 110 .364.182.182 0 010-.364zM1.723 7.73a.182.182 0 110-.364.182.182 0 010 .364zm9.01.94V7.552l.001-.004V6.137h2.532V8.67h-2.532z" fill="#01121C"/>
</svg>
