<svg width="24" height="24" fill="none" xmlns="http://www.w3.org/2000/svg">
  <defs/>
  <g fill="#9AD7FF">
    <path d="M22.98 19.28h-3.7v3.7h3.7v-3.7zM22.98 10.15h-3.7v3.701h3.7v-3.7zM13.85 19.28h-3.7v3.7h3.7v-3.7zM4.721 19.28h-3.7v3.7h3.7v-3.7zM13.85 1.021h-3.7v3.701h3.7v-3.7zM22.98 1.021h-3.7v3.701h3.7v-3.7zM4.721 10.15h-3.7v3.701h3.7v-3.7zM4.721 1.02h-3.7v3.701h3.7v-3.7z"/>
  </g>
  <g fill="#01121C">
    <path d="M22.98 5.242a.52.52 0 00.52-.52V1.02a.52.52 0 00-.52-.52h-3.701a.52.52 0 00-.52.52v1.33H14.37V1.02a.52.52 0 00-.52-.52h-3.702a.52.52 0 00-.52.52v1.33H5.242V1.02a.52.52 0 00-.52-.52H1.02a.52.52 0 00-.52.52v3.701c0 .288.233.52.52.52h1.33V9.63H1.02a.52.52 0 00-.52.52v3.702c0 .287.233.52.52.52h1.33v4.387H1.02a.52.52 0 00-.52.52v3.702c0 .287.233.52.52.52h3.701a.52.52 0 00.52-.52v-1.33H9.63v1.33c0 .287.233.52.52.52h3.702a.52.52 0 00.52-.52v-1.33h4.387v1.33c0 .287.233.52.52.52h3.702a.52.52 0 00.52-.52v-3.701a.52.52 0 00-.52-.52h-1.33V14.37h1.33a.52.52 0 00.52-.52v-3.702a.52.52 0 00-.52-.52h-1.33V5.242h1.33zM19.799 1.54h2.66V4.2H19.8v-2.66zm-9.13 0h2.661V4.2h-2.66v-2.66zm-9.128 0H4.2V4.2h-2.66v-2.66zm0 9.129H4.2v2.66h-2.66v-2.66zM4.2 22.46h-2.66v-2.661H4.2v2.66zm9.13 0H10.67v-2.661h2.66v2.66zm9.128 0H19.8v-2.661h2.66v2.66zm0-9.13H19.8v-2.66h2.66v2.66zm-1.85-3.7h-1.33a.52.52 0 00-.52.52v3.7c0 .288.232.52.52.52h1.33v4.388h-1.33a.52.52 0 00-.52.52v1.33H14.37v-1.33a.52.52 0 00-.52-.52h-3.702a.52.52 0 00-.52.52v1.33H5.242v-1.33a.52.52 0 00-.52-.52h-1.33v-4.387h1.33a.52.52 0 00.52-.52v-3.702a.52.52 0 00-.52-.52h-1.33V5.242h1.33a.52.52 0 00.52-.52v-1.33h4.387v1.33c0 .287.233.52.52.52h3.702a.52.52 0 00.52-.52v-1.33h4.387v1.33c0 .287.233.52.52.52h1.33v4.387z"/>
    <path d="M13.51 11.48h-.99v-.989a.52.52 0 10-1.04 0v.989h-.989a.52.52 0 000 1.04h.989v.99a.52.52 0 101.04 0v-.99h.99a.52.52 0 000-1.04z"/>
  </g>
</svg>
