<svg width="24" height="24" fill="none" xmlns="http://www.w3.org/2000/svg">
  <defs/>
  <path d="M17 4.575H7v14.849h10V4.575z" fill="#9AD7FF"/>
  <path d="M16.91 19.616H7.089a.52.52 0 01-.52-.52V4.905a.52.52 0 01.52-.52h9.821a.52.52 0 01.52.52v14.19a.52.52 0 01-.52.521zm-9.3-1.04h8.78V5.424H7.61v13.15z" fill="#4EB9FF"/>
  <g fill="#3B8BC0">
    <path d="M7.089 3.343a.52.52 0 01-.52-.52V1.02a.52.52 0 111.04 0v1.803a.52.52 0 01-.52.52zM5.008 5.425H3.205a.52.52 0 110-1.04h1.803a.52.52 0 010 1.04zM16.91 3.343a.52.52 0 01-.52-.52V1.02a.52.52 0 011.04 0v1.803a.52.52 0 01-.52.52zM20.795 5.425h-1.803a.52.52 0 110-1.04h1.803a.52.52 0 110 1.04zM7.089 23.5a.52.52 0 01-.52-.52v-1.803a.52.52 0 111.04 0v1.803a.52.52 0 01-.52.52zM5.008 19.616H3.205a.52.52 0 110-1.04h1.803a.52.52 0 110 1.04zM16.91 23.5a.52.52 0 01-.52-.52v-1.803a.52.52 0 011.04 0v1.803a.52.52 0 01-.52.52zM20.795 19.616h-1.803a.52.52 0 110-1.04h1.803a.52.52 0 110 1.04z"/>
  </g>
  <g fill="#01121C">
    <path d="M16.91 4.384H7.089a.52.52 0 00-.52.52v14.192c0 .287.232.52.52.52h9.821a.52.52 0 00.52-.52V4.905a.52.52 0 00-.52-.52zm-.52 14.191H7.61V5.425h8.78v13.15zM7.089 3.343a.52.52 0 00.52-.52V1.02a.52.52 0 00-1.04 0v1.803c0 .287.232.52.52.52zM5.008 4.384H3.205a.52.52 0 100 1.04h1.803a.52.52 0 000-1.04zM16.91.5a.52.52 0 00-.52.52v1.803a.52.52 0 001.04 0V1.02a.52.52 0 00-.52-.52zM18.992 5.425h1.803a.52.52 0 000-1.04h-1.803a.52.52 0 100 1.04zM7.089 20.657a.52.52 0 00-.52.52v1.803a.52.52 0 101.04 0v-1.803a.52.52 0 00-.52-.52zM5.008 18.575H3.205a.52.52 0 100 1.04h1.803a.52.52 0 100-1.04zM16.91 20.657a.52.52 0 00-.52.52v1.803a.52.52 0 001.04 0v-1.803a.52.52 0 00-.52-.52zM20.795 18.575h-1.803a.52.52 0 100 1.04h1.803a.52.52 0 100-1.04z"/>
  </g>
</svg>
