<svg width="24" height="24" fill="none" xmlns="http://www.w3.org/2000/svg">
  <defs/>
  <path d="M6.668 23.107h-2.56a.508.508 0 01-.508-.508V11.15c0-.28.227-.508.508-.508h2.56c.28 0 .508.228.508.508V22.6c0 .28-.227.508-.508.508z" fill="#8D93A4"/>
  <path d="M13.441 23.107h-2.56a.508.508 0 01-.508-.508V5.732c0-.28.228-.508.508-.508h2.56c.281 0 .509.228.509.508v16.866c0 .281-.228.509-.509.509z" fill="#FFEFCA"/>
  <path d="M20.215 23.107h-2.56a.508.508 0 01-.509-.508v-7.22c0-.281.228-.509.509-.509h2.56c.28 0 .508.228.508.508v7.22c0 .281-.227.509-.508.509z" fill="#6EE5F4"/>
  <path d="M.867 4.396V.893H4.37A3.502 3.502 0 01.867 4.396z" fill="#60D8E8"/>
  <path d="M10.373 10.304l3.577-.006v-.786l-3.577.006v.786z" fill="#FFE4A1"/>
  <path d="M3.259 10.643v12.464c0 .217.176.393.393.393h3.576a.393.393 0 00.394-.393V10.643a.393.393 0 00-.394-.393H3.652a.393.393 0 00-.393.393zm.786 8.6a.391.391 0 00.08-.062l2.71-2.71v1.696l-2.79 2.79v-1.715zm2.79-3.884l-2.79 2.79v-1.715a.394.394 0 00.08-.061l2.71-2.71v1.696zm-2.79 7.355v-.663a.394.394 0 00.08-.062l2.71-2.71v3.434h-2.79zm2.79-11.678v1.515l-2.79 2.79v-4.305h2.79zM10.425 4.831a.393.393 0 00-.393.393v17.883c0 .217.176.393.393.393h3.577a.393.393 0 00.393-.393V5.224a.393.393 0 00-.393-.393h-3.577zm3.184.786v3.875h-2.79V5.617h2.79zm-2.79 17.097V10.278h2.79v12.436h-2.79zM17.199 14.477a.393.393 0 00-.393.393v8.237c0 .217.176.393.393.393h3.576a.393.393 0 00.394-.393V14.87a.393.393 0 00-.394-.393H17.2zm.393 8.237v-7.45h2.79v1.53h-1.151a.393.393 0 000 .786h1.151v.899h-1.151a.393.393 0 000 .786h1.151v3.449h-2.79zM18.13 1.916h4.951a.393.393 0 000-.787H18.13a.393.393 0 100 .787zM18.13 4.21h4.951a.393.393 0 000-.786H18.13a.393.393 0 100 .786zM4.422.5H.92a.393.393 0 00-.394.393v3.503c0 .217.176.393.394.393A3.9 3.9 0 004.815.893.393.393 0 004.422.5zm-3.11 3.478V1.286h2.692a3.115 3.115 0 01-2.691 2.692zM5.115 7.254v1.75a.393.393 0 10.787 0V7.647h2.545a.393.393 0 100-.786H5.508a.393.393 0 00-.393.393zM15.55 7.254c0 .217.177.393.394.393h2.6v5.15a.393.393 0 00.787 0V7.254a.393.393 0 00-.393-.393h-2.994a.393.393 0 00-.393.393z" fill="#000"/>
</svg>
