<svg width="24" height="24" fill="none" xmlns="http://www.w3.org/2000/svg">
  <defs/>
  <path d="M8.982 16.733h12.653c.182 0 .38-.166.38-.37v-2.657c0-.204-.198-.37-.38-.37H8.982v3.397z" fill="#FFDFA1"/>
  <path d="M9.13 13.336H5.74c-.182 0-.33.166-.33.37v2.657c0 .204.148.37.33.37h3.39v-3.397z" fill="#6BE8C7"/>
  <path d="M8.982 22.59h6.674c.182 0 .38-.166.38-.37v-2.657c0-.205-.198-.37-.38-.37H8.982v3.397z" fill="#FFEFCA"/>
  <path d="M12.11 19.192H5.74c-.182 0-.33.166-.33.371v2.656c0 .205.148.37.33.37h6.37v-3.396z" fill="#6BE8C7"/>
  <path d="M7.402 10.783c.012.001-.012.002 0 .002h3.363V7.386H7.402v3.396z" fill="#FFEFCA"/>
  <path d="M10.424 10.784h3.116c.182 0 .38-.166.38-.37V7.757c0-.204-.198-.37-.38-.37h-3.116v3.397z" fill="#FFDFA1"/>
  <path d="M7.642 7.387H5.74c-.182 0-.33.166-.33.37v2.657c0 .204.148.37.33.37h1.902V7.387z" fill="#6BE8C7"/>
  <path d="M9.561 4.865c.012 0-.012.001 0 .001h5.194V1.47H9.56v3.396z" fill="#FFEFCA"/>
  <path d="M14.413 4.866h3.445c.183 0 .38-.166.38-.37V1.839c0-.204-.197-.37-.38-.37h-3.445v3.397z" fill="#FFDFA1"/>
  <path d="M9.8 1.469H5.74c-.182 0-.33.166-.33.37v2.657c0 .204.148.37.33.37H9.8V1.47z" fill="#6BE8C7"/>
  <path d="M2.023 1.26c0-.215.175-.39.39-.39h1.062c.215 0 .389.175.389.39v21.48a.389.389 0 01-.389.39H2.412a.389.389 0 01-.389-.39V1.26z" fill="#FEA8D6"/>
  <path d="M3.475.87c.214 0 .388.175.388.39v21.48a.389.389 0 01-.388.39V.87z" fill="#F49AD0"/>
  <path d="M3.863.5h-1.84a.37.37 0 00-.37.37v18.526a.37.37 0 00.74 0V1.241h1.1V22.76h-1.1v-1.313a.37.37 0 10-.74 0v1.683c0 .205.165.371.37.371h1.84a.37.37 0 00.37-.37V.87a.37.37 0 00-.37-.37zM5.479 5.297h10.222a.37.37 0 000-.742h-.941a.372.372 0 00.016-.107V1.886h3.052v2.67h-.285a.37.37 0 100 .74h.655a.37.37 0 00.37-.37v-3.41a.37.37 0 00-.37-.37H5.48a.37.37 0 00-.37.37v3.41c0 .205.165.37.37.37zm8.572-.741h-3.902a.372.372 0 00.016-.108V1.886h3.87v2.562c0 .037.005.073.016.107zM5.85 1.886h3.573v2.562a.37.37 0 00.016.107H5.85V1.887zM5.479 11.195h6.033a.37.37 0 100-.74h-.865v-2.67h2.849v2.67h-.257a.37.37 0 100 .74h.627a.37.37 0 00.37-.37v-3.41a.37.37 0 00-.37-.37H5.48a.37.37 0 00-.37.37v3.41c0 .205.165.37.37.37zm4.427-.74H7.874v-2.67h2.032v2.67zM5.85 7.784h1.283v2.67H5.85v-2.67zM21.977 12.943H5.48a.37.37 0 00-.37.37v3.41c0 .205.165.371.37.371H17.69a.37.37 0 100-.741H9.471v-2.67h12.136v2.67h-1.971a.37.37 0 100 .741h2.341a.37.37 0 00.37-.37v-3.41a.37.37 0 00-.37-.371zM8.73 16.353H5.85v-2.67h2.88v2.67zM15.998 18.842H5.48a.37.37 0 00-.37.37v3.41c0 .205.165.371.37.371h7.992a.37.37 0 100-.741h-1.016v-2.67h3.173v2.67h-.33a.37.37 0 100 .741h.7a.37.37 0 00.37-.37v-3.41a.37.37 0 00-.37-.371zm-4.284 3.41H5.85v-2.67h5.864v2.67z" fill="#000"/>
</svg>
