<svg width="24" height="24" fill="none" xmlns="http://www.w3.org/2000/svg">
  <defs/>
  <path d="M21.587 13.489v5.382H2.512V3.423h19.075v10.066z" fill="#FFEFCA"/>
  <g fill="#A0758E">
    <path d="M2.511 3.425h-.596a.993.993 0 110-1.987h.597v1.987zM22.183 3.425h-.596V1.438h.596a.994.994 0 010 1.987z"/>
  </g>
  <path d="M2.362 1.787h19.175v2.015H2.363V1.787z" fill="#FFDFA1"/>
  <path d="M20.914 20.866H2.986c-.632 0-1.145-.383-1.145-.853s.513-.853 1.145-.853h17.928c.631 0 1.145.383 1.145.853s-.514.853-1.145.853z" fill="#A0758E"/>
  <g fill="#fff">
    <path d="M7.241 14.385v2.636H5.446v-4.414h1.795v1.778zM15.108 16.532v.49h-1.795v-2.268h1.795v1.778z"/>
  </g>
  <g fill="#FFDFA1">
    <path d="M19.044 16.533v.49h-1.795v-2.268h1.795v1.778zM11.178 13.203v3.82H9.383v-6.789h1.795V13.203z"/>
  </g>
  <path d="M19.067 8.662c.03-.968-.373-1.947-1.318-2.57l-1.697 2.827-2.956-1.13a3.082 3.082 0 002.956 3.958c1.811 0 2.97-1.53 3.015-3.085z" fill="#FED1A9"/>
  <path d="M22.134 20.228c-.257.387-.424.62-.89.62l-18.208.016c-.43 0-.778-.241-1.048-.698h20.146" fill="#826075"/>
  <path d="M22.028 19.86l-20.125-.037c.279-.317.587-.446 1.033-.446h18.099c.466 0 .745.183.996.483" fill="#D3AEC3"/>
  <path d="M21.587 3.423H2.512V4.1h19.075v-.677z" fill="#FCC973"/>
  <path d="M1.866 4.143h.224v14.994a1.169 1.169 0 00.77 2.044h5.383v1.035c0 .206.167.373.372.373h6.77a.373.373 0 00.372-.373V21.18h1.318a.373.373 0 100-.745H2.86a.423.423 0 010-.844h18.28a.423.423 0 010 .844h-2.398a.373.373 0 100 .745h2.398a1.169 1.169 0 00.77-2.043v-5.3a.373.373 0 00-.745 0v5.009H2.835V4.143h18.33v7.57a.373.373 0 00.745 0v-7.57h.224c.753 0 1.366-.613 1.366-1.366 0-.753-.613-1.366-1.366-1.366H1.866C1.113 1.411.5 2.024.5 2.777c0 .753.613 1.366 1.366 1.366zm13.146 17.7H8.988v-.662h6.024v.663zM2.835 3.399V2.156h18.33v1.242H2.835zm19.1-1.242h.199a.622.622 0 010 1.242h-.224V2.156h.025zm-20.069 0h.224v1.242h-.224a.622.622 0 010-1.242z" fill="#000"/>
  <path d="M6.822 13.327a.373.373 0 00.742-.043v-.33a.373.373 0 00-.372-.372H5.397a.373.373 0 00-.373.372v4.415c0 .206.167.372.373.372h1.795a.373.373 0 00.372-.372v-2.636a.373.373 0 00-.745 0v2.263H5.77v-3.669h1.053zM14.689 15.474a.373.373 0 00.743-.043v-.33a.373.373 0 00-.373-.372h-1.795a.373.373 0 00-.372.373v2.267c0 .206.166.372.372.372h1.795a.373.373 0 00.373-.372v-.49a.373.373 0 10-.745 0v.117h-1.05v-1.522h1.052zM18.625 15.474a.373.373 0 00.742-.043v-.33a.373.373 0 00-.372-.372H17.2a.373.373 0 00-.373.373v2.267c0 .206.167.372.373.372h1.795a.373.373 0 00.372-.372v-.49a.373.373 0 10-.745 0v.117h-1.05v-1.522h1.053zM11.129 12.185a.372.372 0 00.372-.372V10.58a.372.372 0 00-.372-.373H9.334a.373.373 0 00-.373.373v6.788c0 .206.167.372.373.372h1.795a.372.372 0 00.372-.372v-3.82a.373.373 0 10-.745 0v3.447h-1.05v-6.043h1.05v.86c0 .206.167.372.373.372zM17.904 6.128a.373.373 0 00-.524.119l-1.537 2.56-2.664-1.019a.373.373 0 00-.49.242 3.459 3.459 0 003.313 4.437 3.434 3.434 0 003.107-1.943.373.373 0 10-.67-.326 2.693 2.693 0 01-2.437 1.524 2.713 2.713 0 01-2.684-3.083l2.55.975a.373.373 0 00.453-.156l1.483-2.47c.574.51.908 1.243.908 2.024a.373.373 0 00.745 0c0-1.164-.58-2.242-1.553-2.884zM4.68 6.653h3.968a.373.373 0 100-.745H4.68a.373.373 0 100 .745zM9.02 7.82a.373.373 0 00-.372-.373H4.68a.373.373 0 100 .745h3.968a.373.373 0 00.372-.372z" fill="#000"/>
</svg>
