<svg width="24" height="24" fill="none" xmlns="http://www.w3.org/2000/svg">
  <defs/>
  <path d="M20.395 22.358a.422.422 0 01-.421.422H4.126a.422.422 0 01-.422-.422V.947c0-.233.189-.422.422-.422h11.898l4.371 4.371v17.462z" fill="#FFEFCA"/>
  <path d="M16.474 3.98c.612 1.54 2.417 1.998 3.922.917l-1.3-1.11-2.622.192z" fill="#FCC973"/>
  <path d="M20.396 4.897L16.024.525h-.002l.002.05v2.069a2.253 2.253 0 002.253 2.252h2.02l.099.001z" fill="#FFDFA1"/>
  <path d="M20.346 17.801a.373.373 0 00.373-.372V5.244a.373.373 0 00-.11-.263L16.238.609A.373.373 0 0015.974.5H4.077a.795.795 0 00-.795.794v21.412c0 .438.357.794.795.794h15.847a.795.795 0 00.794-.794V19.75a.373.373 0 00-.745 0v2.955a.05.05 0 01-.049.049H4.077a.05.05 0 01-.05-.05V1.296a.05.05 0 01.05-.05h11.525v1.746a2.628 2.628 0 002.625 2.626h1.746v11.812c0 .206.167.372.373.372zm-3.999-14.81V1.772l3.1 3.1h-1.22a1.882 1.882 0 01-1.88-1.88z" fill="#000"/>
  <path d="M7.138 17.32c-.644 0-1.167.523-1.167 1.167s.523 1.167 1.167 1.167 1.167-.523 1.167-1.167-.523-1.167-1.167-1.167zm0 1.59a.423.423 0 11.001-.846.423.423 0 010 .845zM17.544 17.32H9.522a.373.373 0 100 .745h8.022a.372.372 0 100-.745zM17.544 18.91H9.522a.373.373 0 100 .744h8.022a.372.372 0 100-.745zM7.138 13.743c-.644 0-1.167.524-1.167 1.167 0 .644.523 1.168 1.167 1.168s1.167-.524 1.167-1.168c0-.643-.523-1.167-1.167-1.167zm0 1.59a.423.423 0 11.001-.846.423.423 0 010 .845zM17.544 13.743H9.522a.373.373 0 100 .745h8.022a.373.373 0 000-.745zM17.544 15.332H9.522a.373.373 0 000 .746h8.022a.373.373 0 000-.745z" fill="#000"/>
  <path d="M10.632 10.423h3.54c.123.82.833 1.451 1.687 1.451.94 0 1.705-.765 1.705-1.705a1.707 1.707 0 00-2.396-1.559l-.837-1.195A1.707 1.707 0 0012.958 4.7a1.707 1.707 0 00-1.57 2.373l-1.194.84a2.326 2.326 0 00-1.705-.743 2.335 2.335 0 00-2.333 2.333 2.335 2.335 0 002.333 2.332c.96 0 1.785-.582 2.143-1.412zm6.187-.254a.961.961 0 01-1.92 0 .961.961 0 011.92 0zm-3.861-4.724a.961.961 0 010 1.92.961.961 0 010-1.92zm-1.134 2.233a1.698 1.698 0 001.942.229l.803 1.148c-.155.179-.273.39-.343.623h-3.412a2.317 2.317 0 00-.205-1.146l1.215-.854zM6.9 9.502A1.59 1.59 0 018.49 7.915a1.59 1.59 0 011.587 1.587A1.59 1.59 0 018.49 11.09 1.59 1.59 0 016.9 9.502z" fill="#6BE8C7"/>
</svg>
