<svg width="24" height="24" fill="none" xmlns="http://www.w3.org/2000/svg">
  <defs/>
  <path d="M16.095 22.684h7.024V3.246L20.267 6.1l-3.221-3.65-3.977 3.976L2.722 16.773l11.11 5.911h2.263z" fill="#6BE8C7"/>
  <path d="M13.634 1.076L11.636.977a.38.38 0 10-.044.76l1.112.053-2.149 2.15-1.501-1.502a.38.38 0 00-.533-.005l-4.41 4.26a.38.38 0 00.529.547l4.14-4 1.506 1.506a.38.38 0 00.538 0l2.363-2.362-.053 1.093a.38.38 0 00.76.036l.098-2.039a.38.38 0 00-.358-.398z" fill="#FFDFA1"/>
  <path d="M11.676 7.803l4.824 4.824v10.057h-.56l-6.077-2.806L11.18 8.271l.497-.468z" fill="#3CD3A8"/>
  <path d="M14.684 22.684h1.258v-9.683l-6.84-6.84-6.95 6.948.508 9.575s12.056-.031 12.024 0z" fill="#A0758E"/>
  <path d="M3.14 12.16l2.952 2.952 3.465-3.464 5.949 11.036-.846-.001-10.904-1.554-1.201-8.444.584-.526z" fill="#826075"/>
  <path d="M.88 22.684h13.804L9.286 12.97l-3.068 3.068L.881 11.16v11.524z" fill="#FEA8D6"/>
  <path d="M.88 23.044H15.943a.38.38 0 00.076-.008c.025.005.05.008.077.008h7.024c.21 0 .381-.17.381-.38V3.245a.38.38 0 00-.65-.269l-2.566 2.567-2.953-3.347a.38.38 0 00-.554-.017L12.8 6.156a.38.38 0 10.538.538l3.69-3.69 2.953 3.347a.38.38 0 00.555.017l2.203-2.203v18.118h-6.417V13a.38.38 0 00-.111-.27l-4.455-4.454.324-.324a.38.38 0 00-.538-.538l-.324.324L9.37 5.89a.38.38 0 00-.538 0l-6.28 6.28-1.415-1.292a.38.38 0 00-.637.281v11.503c0 .21.17.38.38.38zM9.102 6.698l6.46 6.46v9.125h-.653l-5.29-9.498a.38.38 0 00-.602-.084l-2.81 2.81-3.092-2.825 5.987-5.987zm-7.84 5.325l4.7 4.295a.38.38 0 00.526-.012l2.711-2.71 4.838 8.687H1.261v-10.26z" fill="#000"/>
  <path d="M4.376 7.347c.095 0 .19-.036.264-.107l4.14-4 1.506 1.506a.38.38 0 00.538 0l2.363-2.362-.053 1.093a.38.38 0 00.76.036l.098-2.038a.38.38 0 00-.358-.399L11.597.957a.38.38 0 10-.045.76l1.158.068-2.155 2.154-1.501-1.501a.38.38 0 00-.534-.005l-4.409 4.26a.38.38 0 00.265.654z" fill="#000"/>
</svg>
