<svg width="24" height="24" fill="none" xmlns="http://www.w3.org/2000/svg">
  <defs/>
  <path d="M21.811 8.61V19.2a.595.595 0 01-.593.593H2.88a.595.595 0 01-.593-.593V8.61h19.523z" fill="#FFEFCA"/>
  <path d="M23.178 7.988c0 .83-.68 1.51-1.51 1.51H2.43c-.83 0-1.51-.68-1.51-1.51s.68-1.51 1.51-1.51h19.239c.83 0 1.51.68 1.51 1.51z" fill="#A0758E"/>
  <path d="M5.85 17.263l3.883-3.94 2.2 2.2 3.077-3.077 4.817 4.817H5.85z" fill="#fff"/>
  <path d="M22.888 8.53a1.51 1.51 0 01-1.219.622H2.431c-.461 0-.875-.209-1.153-.537l21.61-.084z" fill="#826075"/>
  <path d="M22.882 7.34L1.254 7.291a1.509 1.509 0 011.176-.566h19.24c.495 0 .936.242 1.212.613z" fill="#D3AEC3"/>
  <path d="M21.31 6.658h-2.998v1.097h2.998V6.658z" fill="#FFDFA1"/>
  <path d="M12.04 4.288a.963.963 0 100-1.925.963.963 0 000 1.925z" fill="#6BE8C7"/>
  <g fill="#A0758E">
    <path d="M9.898 20.115h-.05v.001h.05v-.001zM14.944 20.114h-.051v.002h.051v-.002z"/>
  </g>
  <path d="M11.63 4.375v.877a.37.37 0 10.74 0v-.877c.46-.156.792-.59.792-1.101 0-.641-.521-1.162-1.162-1.162a1.163 1.163 0 00-.37 2.263zM12 2.853a.42.42 0 11-.001.842.42.42 0 010-.842zM21.761 10.64a.37.37 0 00-.37.37v8.14c0 .121-.103.223-.223.223H2.83a.225.225 0 01-.222-.223v-8.14a.37.37 0 00-.742 0v8.14c0 .532.433.965.964.965h6.276v1.403c0 .204.166.37.37.37h5.044a.37.37 0 00.371-.37V20.115h6.276a.965.965 0 00.964-.964v-8.14a.37.37 0 00-.37-.371zM9.85 21.147v-1.032H14.15v1.032H9.849zM21.62 6.058H2.38c-1.036 0-1.88.844-1.88 1.88 0 1.038.844 1.881 1.88 1.881h19.24c1.036 0 1.88-.843 1.88-1.88s-.844-1.88-1.88-1.88zm-2.987.742h2.256v.535h-2.256V6.8zm-13.87 0v2.278h-1.12V6.8h1.12zM1.242 7.939c0-.628.51-1.14 1.139-1.14h.52v2.279h-.52a1.14 1.14 0 01-1.14-1.14zm20.377 1.139H5.505V6.8h12.386v.905c0 .205.166.371.371.371h2.998a.37.37 0 00.371-.37V6.8a1.14 1.14 0 01-.012 2.278z" fill="#000"/>
  <path d="M5.541 17.477a.37.37 0 00.525-.003l3.62-3.674 1.935 1.936a.37.37 0 00.525 0l2.815-2.815 4.554 4.555a.37.37 0 00.525-.525l-4.817-4.817a.37.37 0 00-.525 0l-2.814 2.815-1.938-1.938a.37.37 0 00-.262-.108h-.002a.37.37 0 00-.262.11l-3.883 3.94a.37.37 0 00.004.524zM4.758 11.972h1.84a.37.37 0 000-.742h-1.84a.37.37 0 000 .742zM4.758 13.287h1.84a.37.37 0 100-.742h-1.84a.37.37 0 100 .742z" fill="#000"/>
</svg>
