<svg width="24" height="24" fill="none" xmlns="http://www.w3.org/2000/svg">
  <defs/>
  <path d="M20.395 22.622a.538.538 0 01-.538.538H4.243a.538.538 0 01-.539-.538V1.444c0-.298.241-.539.539-.539h15.614c.297 0 .538.241.538.539v21.178z" fill="#FFEFCA"/>
  <path d="M11.975 3.837H7.083V7.3h4.892V3.837z" fill="#FFC5E5"/>
  <path d="M17.468 9.465h-10.1v6.537h10.1V9.465z" fill="#fff"/>
  <path d="M20.346 18.232a.373.373 0 00.373-.372V1.41A.912.912 0 0019.807.5H4.194a.912.912 0 00-.91.911V22.59c0 .502.408.911.91.911h15.615a.912.912 0 00.91-.911v-1.477a.373.373 0 10-.745 0v1.477a.166.166 0 01-.165.166H4.193a.166.166 0 01-.166-.166V1.41c0-.091.075-.166.166-.166h15.615c.09 0 .165.075.165.166V17.86c0 .206.167.372.373.372z" fill="#000"/>
  <path d="M17.558 5.386h-3.604a.373.373 0 000 .745h3.604a.373.373 0 000-.745zM17.861 18.574a.373.373 0 00-.373-.373H7.156a.373.373 0 100 .745h10.332a.373.373 0 00.373-.372zM7.156 19.79a.373.373 0 100 .746h5.219a.372.372 0 100-.745h-5.22zM17.558 6.808h-3.604a.373.373 0 000 .745h3.604a.373.373 0 000-.745zM12.025 3.464H7.132a.373.373 0 00-.372.373V7.3c0 .206.167.373.372.373h4.893a.373.373 0 00.372-.373V3.837a.373.373 0 00-.372-.373zm-.373 3.464H7.505V4.209h4.147v2.719zM7.22 9.092a.373.373 0 00-.373.373v6.538c0 .205.166.372.372.372H17.22a.373.373 0 100-.745H7.592V9.465a.373.373 0 00-.373-.373z" fill="#000"/>
  <path d="M13.927 11.063l-2.075 2.075-.992-.993a.373.373 0 00-.527 0l-2.251 2.252a.373.373 0 00.527.527l1.988-1.988.992.992a.373.373 0 00.527 0l2.074-2.075 1.62 1.62a.373.373 0 00.527 0l1.06-1.06a.373.373 0 00-.526-.527l-.798.797-1.62-1.62a.373.373 0 00-.526 0zM11.289 11.05a.373.373 0 100-.745H9.427a.373.373 0 100 .745h1.862zM16.51 10.85V9.681a.373.373 0 10-.744 0v1.17a.373.373 0 10.745 0z" fill="#000"/>
</svg>
