<svg width="24" height="24" fill="none" xmlns="http://www.w3.org/2000/svg">
  <defs/>
  <g fill="#9AF7DD">
    <path d="M2.94 4.92a1.882 1.882 0 100-3.764 1.882 1.882 0 000 3.764zM2.94 10.775a1.882 1.882 0 100-3.764 1.882 1.882 0 000 3.764z"/>
  </g>
  <g fill="#A0758E">
    <path d="M22.733 23.262H.918a.418.418 0 01-.418-.418v-8.225a.418.418 0 01.836 0v7.807h21.397a.418.418 0 110 .836z"/>
    <path d="M6.696 16.295H3.854a.396.396 0 00-.396.397v4.291c0 .22.178.397.396.397h2.842a.397.397 0 00.396-.397v-4.291a.396.396 0 00-.396-.397z"/>
  </g>
  <path d="M11.783 14.665h-2.84a.396.396 0 00-.395.396v5.875c0 .219.177.396.396.396h2.839a.396.396 0 00.396-.396v-5.875a.396.396 0 00-.396-.396z" fill="#FEA8D6"/>
  <path d="M16.784 18.754H14.12a.372.372 0 00-.372.371v1.859c0 .205.167.371.372.371h2.664a.372.372 0 00.371-.371v-1.859a.372.372 0 00-.371-.371z" fill="#A0758E"/>
  <path d="M22.626 11.938c-.627 1.289-1.904 2.262-3.517 2.262A3.973 3.973 0 0115.3 9.1l3.81 1.456 2.188-3.644c.037-.062.894.806.96.892.972 1.26.992 2.853.369 4.135z" fill="#6BE8C7"/>
  <path d="M17.244 13.736c.351.179.994.496 1.865.464 1.613 0 2.89-.973 3.516-2.262.45-.926.557-2.013.236-2.996-.312-.88-.791-1.443-1.448-1.959a1.07 1.07 0 00-.116-.072c1.05 2.553-.499 6.825-4.053 6.825z" fill="#3CD3A8"/>
  <path d="M21.935 16.927h-2.763c-.213 0-.386.205-.386.395v3.667c0 .19.173.343.386.343h2.763c.213 0 .386-.154.386-.343v-3.667c0-.19-.173-.395-.386-.395z" fill="#FEA8D6"/>
  <g fill="#F49AD0">
    <path d="M21.155 21.33h.805c.213 0 .385-.153.385-.343V17.32a.414.414 0 00-.346-.392.323.323 0 00-.04-.003v.003h-.804v4.403zM10.954 21.33h.87c.219 0 .396-.157.396-.352v-5.915a.426.426 0 00-.355-.403.339.339 0 00-.04-.003v.003h-.87v6.67z"/>
  </g>
  <g fill="#826075">
    <path d="M5.91 21.38h.815c.219 0 .396-.158.396-.353v-4.338a.426.426 0 00-.356-.403.34.34 0 00-.04-.003v.003H5.91v5.094zM15.964 21.357h.847c.206 0 .372-.148.372-.33V19.13a.399.399 0 00-.334-.377.3.3 0 00-.038-.002v.002h-.847v2.603z"/>
  </g>
  <path d="M2.94 5.338a2.303 2.303 0 01-2.3-2.3c0-1.268 1.031-2.3 2.3-2.3 1.268 0 2.3 1.032 2.3 2.3 0 1.268-1.032 2.3-2.3 2.3zm0-3.764c-.807 0-1.464.657-1.464 1.464 0 .807.657 1.464 1.464 1.464.807 0 1.463-.657 1.463-1.464 0-.807-.656-1.464-1.463-1.464zM12.767 2.585H6.912a.418.418 0 010-.836h5.855a.418.418 0 010 .836zM15.485 4.327H6.773a.418.418 0 010-.836h8.712a.418.418 0 110 .836zM2.94 11.193a2.303 2.303 0 01-2.3-2.3c0-1.268 1.031-2.3 2.3-2.3 1.268 0 2.3 1.032 2.3 2.3 0 1.268-1.032 2.3-2.3 2.3zm0-3.764c-.808 0-1.464.657-1.464 1.464 0 .807.657 1.463 1.464 1.463.807 0 1.463-.656 1.463-1.463S3.747 7.429 2.94 7.429zM8.934 8.44H6.912a.418.418 0 010-.837h2.022a.418.418 0 010 .837zM12.07 10.182H6.773a.418.418 0 010-.836h5.297a.418.418 0 010 .836zM22.733 23.26H.918a.418.418 0 01-.418-.417v-8.225a.418.418 0 01.836 0v7.806h21.397a.418.418 0 110 .837z" fill="#000"/>
  <path d="M6.773 21.518H3.776a.418.418 0 01-.419-.418v-4.527c0-.23.188-.418.419-.418h2.997c.23 0 .418.188.418.418V21.1a.418.418 0 01-.418.418zm-2.58-.836h2.161v-3.69h-2.16v3.69zM11.86 21.518H8.864a.418.418 0 01-.418-.418v-6.203c0-.23.188-.418.418-.418h2.998c.23 0 .418.187.418.418v1.364a.418.418 0 01-.837 0v-.946h-2.16v5.367h2.16v-2.779a.418.418 0 01.837 0V21.1c0 .231-.188.418-.418.418zM16.948 21.518h-2.997a.418.418 0 01-.418-.418v-2.09c0-.232.187-.419.418-.419h2.997c.231 0 .418.187.418.418V21.1c0 .231-.187.418-.418.418zm-2.579-.836h2.161v-1.255h-2.16v1.255zM22.036 21.518H19.04a.418.418 0 01-.418-.418v-3.833c0-.231.187-.418.418-.418h2.997c.231 0 .418.187.418.418v1.366a.418.418 0 01-.836 0v-.948h-2.16v2.997h2.16v-.589a.418.418 0 01.836 0V21.1a.418.418 0 01-.418.418zM19.109 14.618a4.396 4.396 0 01-4.211-5.638.418.418 0 01.55-.272l3.483 1.332 2.007-3.344a.418.418 0 01.589-.134 4.384 4.384 0 011.973 3.665.418.418 0 01-.837 0c0-1.05-.459-2.032-1.247-2.704l-1.949 3.248a.418.418 0 01-.508.175L15.6 9.661a3.559 3.559 0 003.51 4.121 3.533 3.533 0 003.197-2 .418.418 0 11.752.367 4.363 4.363 0 01-3.95 2.47z" fill="#000"/>
</svg>
