<svg width="24" height="24" fill="none" xmlns="http://www.w3.org/2000/svg">
  <defs/>
  <path d="M16.926 19.766H2.212A1.216 1.216 0 01.996 18.55V5.567c0-.672.544-1.216 1.216-1.216h19.693c.671 0 1.215.544 1.215 1.216V18.55c0 .671-.544 1.216-1.215 1.216h-4.979z" fill="#FFEFCA"/>
  <path d="M2.9 8.976a2.448 2.448 0 101.483-2.25l.966 2.25H2.9z" fill="#6BE8C7"/>
  <path d="M16.114 16.765a4.793 4.793 0 100-9.585 4.793 4.793 0 000 9.585z" fill="#FCC973"/>
  <path d="M16.114 11.973l-1.262 4.637c1.646.519 4.628-.171 5.583-2.546l-4.321-2.091z" fill="#FFDFA1"/>
  <path d="M16.11 11.974l4.32 2.092c.824-1.6 1.088-4.085-1.08-5.522l-3.24 3.43z" fill="#3CD3A8"/>
  <g fill="#6BE8C7">
    <path d="M17.853 12.822l1.16.562-1.363-3.49-1.497 1.848 1.7 1.08zM18.926 9.395l1.52 4.62c.185-.353.324-.783.401-1.254l-1.041-4.026-.88.66z"/>
  </g>
  <path d="M23.062 3.855H.938a.438.438 0 00-.438.438v15.414c0 .242.196.438.438.438h15.93a.438.438 0 000-.875H1.375V4.73h21.248v14.54h-2.269a.438.438 0 100 .875h2.707a.438.438 0 00.438-.438V4.293a.438.438 0 00-.438-.438z" fill="#000"/>
  <path d="M2.404 8.917a2.89 2.89 0 002.886 2.886 2.89 2.89 0 002.886-2.886 2.89 2.89 0 00-4.024-2.652.438.438 0 00-.23.575l.704 1.64H2.842a.438.438 0 00-.438.437zm2.886.438a.438.438 0 00.403-.61L4.918 6.94A2.013 2.013 0 017.3 8.917c0 1.109-.901 2.01-2.01 2.01a2.014 2.014 0 01-1.962-1.572H5.29zM8.795 13.112H3.228a.438.438 0 000 .876h5.567a.438.438 0 000-.876zM8.795 14.977H3.228a.438.438 0 000 .876h5.567a.438.438 0 000-.876zM8.795 16.843H3.228a.438.438 0 000 .876h5.567a.438.438 0 000-.876zM16.055 6.684a5.236 5.236 0 00-5.23 5.23 5.236 5.236 0 005.23 5.23 5.236 5.236 0 005.23-5.23 5.236 5.236 0 00-5.23-5.23zm1.401 4.449l.472 1.194-1.126-.54.654-.654zm1.631 1.75a.425.425 0 00-.013-.04l-.943-2.385.42-.42 1.329 3.226-.793-.38zm1.323-.969c0 .104-.005.206-.012.308l-1.176-2.855.205-.205c.614.75.983 1.71.983 2.752zm-8.71 0a4.36 4.36 0 014.355-4.354c1.044 0 2.002.369 2.753.983l-3.062 3.062h-.001a.46.46 0 00-.033.038l-.004.006a.432.432 0 00-.024.034l-.007.012a.471.471 0 00-.034.076c-.002.005-.005.01-.006.016 0 .003-.002.005-.003.007l-1.186 4.166a4.36 4.36 0 01-2.747-4.046zm4.355 4.355c-.26 0-.516-.024-.765-.069l1.044-3.666 3.437 1.648a4.356 4.356 0 01-3.716 2.087z" fill="#000"/>
</svg>
