<svg width="24" height="24" fill="none" xmlns="http://www.w3.org/2000/svg">
  <defs/>
  <path d="M9.925 5.244l-8.904 8.904 1.261 1.262 5.188-3.717 3.717-5.188-1.262-1.261z" fill="#FFCE47"/>
  <path d="M11.187 6.505L2.282 15.41l1.262 1.261 5.188-3.716 3.716-5.188-1.261-1.262z" fill="#FFB14E"/>
  <path d="M12.448 7.767L3.544 16.67l1.261 1.262 5.189-3.716 3.716-5.189-1.262-1.261z" fill="#FFCE47"/>
  <path d="M13.71 9.028l-8.905 8.905 1.261 1.261 5.188-3.716 3.717-5.188-1.262-1.262z" fill="#FFB14E"/>
  <path d="M14.97 10.29l-8.904 8.904 1.262 1.262 5.188-3.716 3.716-5.188-1.261-1.262z" fill="#FFCE47"/>
  <path d="M16.233 11.552l-8.905 8.904 1.262 1.262L13.778 18l3.716-5.188-1.261-1.261z" fill="#FFB14E"/>
  <path d="M8.59 21.718l1.262 1.261 8.904-8.904-1.262-1.262-8.904 8.905z" fill="#FFCE47"/>
  <path d="M22.212 1.787a1.821 1.821 0 00-2.575 0l-5.704 5.704-2.723-2.723a1.044 1.044 0 00-1.471 0L8.635 5.872l9.493 9.493 1.104-1.104a1.044 1.044 0 000-1.472l-2.723-2.723 5.703-5.703a1.821 1.821 0 000-2.576z" fill="#FF755C"/>
  <g fill="#01121C">
    <path d="M5.622 17.115a.52.52 0 00-.736 0l-.445.444a.52.52 0 00.736.736l.445-.444a.52.52 0 000-.736zM6.775 13.435a.52.52 0 00-.736 0l-2.86 2.861a.52.52 0 00.736.736l2.86-2.86a.52.52 0 000-.737zM4.567 13.117a.52.52 0 00-.736 0l-1.916 1.916a.52.52 0 00.736.736l1.916-1.916a.52.52 0 000-.736zM8.724 16.538a.52.52 0 00-.736 0l-2.284 2.284a.52.52 0 00.736.736l2.284-2.284a.52.52 0 000-.736z"/>
    <path d="M23.5 2.835a2.32 2.32 0 00-.684-1.651 2.339 2.339 0 00-3.304 0L13.725 6.97l-2.314-2.314a1.636 1.636 0 00-2.311 0l-.698.697a.52.52 0 00-.033.7l-.304.304a.52.52 0 00-.733.733l-6.68 6.68a.52.52 0 00.736.736l6.679-6.678 1.79 1.79-2.714 2.714a.52.52 0 00.736.736l2.714-2.714 3.053 3.053-.911.91a.52.52 0 00.736.737l.91-.911 1.79 1.79-6.678 6.678a.52.52 0 10.736.736l6.68-6.68a.52.52 0 00.733-.733l.304-.304a.521.521 0 00.7-.033l.698-.697c.308-.309.479-.72.479-1.156 0-.436-.17-.847-.48-1.155l-2.314-2.315 5.787-5.787a2.32 2.32 0 00.684-1.652zm-6.592 12.362l-5.945-5.945-.002-.002-.003-.002-2.155-2.156.3-.301 8.106 8.104-.301.302zM22.08 3.75l-6.155 6.155a.52.52 0 000 .736l2.683 2.683a.59.59 0 010 .839l-.33.33L9.506 5.72l.33-.33a.594.594 0 01.839 0l2.682 2.683.002.001.821.822a.52.52 0 00.736-.736l-.455-.455 5.787-5.787a1.297 1.297 0 012.211.916c0 .346-.134.672-.38.916z"/>
    <path d="M20.665 2.336a.708.708 0 00.999.999.708.708 0 00-1-1zM10.883 19.432a.52.52 0 00-.736 0L8.23 21.348a.52.52 0 00.735.736l1.917-1.916a.52.52 0 000-.736zM11.998 15.79a.52.52 0 00-.736 0l-4.295 4.295a.52.52 0 00.736.736l4.295-4.296a.52.52 0 000-.735z"/>
  </g>
</svg>
