<svg width="24" height="24" fill="none" xmlns="http://www.w3.org/2000/svg">
  <defs/>
  <g fill="#6BE8C7">
    <path d="M13.43 23.076h-2.883a.921.921 0 01-.921-.921V10.207c0-.509.412-.921.921-.921h2.882c.51 0 .922.412.922.92v11.949a.921.921 0 01-.922.921zM2.667 7.458V4.716c0-.509.412-.921.921-.921H6.47c.51 0 .922.412.922.921v17.439a.921.921 0 01-.922.921H3.588a.921.921 0 01-.921-.921V7.458z"/>
  </g>
  <g fill="#34C195">
    <path d="M12.028 9.286h1.399c.509 0 .921.412.921.921v11.948a.921.921 0 01-.921.921h-1.399V9.286zM5.076 3.787h1.399c.509 0 .921.413.921.921v17.447a.921.921 0 01-.921.921H5.076V3.787z"/>
  </g>
  <path d="M20.374 23.077h-2.882a.921.921 0 01-.922-.921v-7.862c0-.509.413-.921.922-.921h2.882c.508 0 .921.412.921.921v7.862a.921.921 0 01-.921.921z" fill="#6BE8C7"/>
  <path d="M18.917 13.373h1.457c.509 0 .921.412.921.921v7.862a.921.921 0 01-.921.921h-1.457v-9.704z" fill="#34C195"/>
  <path d="M9.546.657a.423.423 0 00.063.594l9.025 7.293-1.275.167a.423.423 0 00.11.838l2.247-.295c.23-.03.393-.24.365-.47l-.272-2.25a.423.423 0 00-.84.101l.147 1.211L10.14.594a.423.423 0 00-.594.063zM14.362 8.864H9.637a.423.423 0 00-.422.423v13.79c0 .234.189.423.422.423h4.725c.233 0 .423-.19.423-.423V9.287a.423.423 0 00-.423-.423zm-.423 13.79H10.06V9.71h3.88v12.946zM7.403 3.373H2.678a.423.423 0 00-.422.423v9.815a.423.423 0 10.845 0V4.22h3.88v18.436H3.1v-6.813a.423.423 0 00-.845 0v7.235c0 .234.19.423.423.423h4.724c.234 0 .423-.19.423-.423V3.796a.423.423 0 00-.423-.423zM21.321 12.95h-4.725a.423.423 0 00-.422.423v9.704c0 .234.189.423.422.423h4.725c.233 0 .423-.19.423-.423v-9.704a.423.423 0 00-.423-.423zm-.423 9.705H17.02v-8.86h3.88v8.86z" fill="#000"/>
</svg>
