<svg width="24" height="24" fill="none" xmlns="http://www.w3.org/2000/svg">
  <defs/>
  <path d="M19.617 20.909a2.089 2.089 0 01-2.087-2.087c0-1.15.936-2.086 2.087-2.086 1.15 0 2.086.936 2.086 2.086s-.936 2.087-2.086 2.087z" fill="#FFEFCA"/>
  <g fill="#6BE8C7">
    <path d="M14.328 8.937h-4.57a.38.38 0 01-.38-.38v-3.95c0-.21.17-.38.38-.38h4.57c.21 0 .38.17.38.38v3.95c0 .21-.17.38-.38.38zM12.043 23.498a.38.38 0 01-.295-.14L9.463 20.53a.38.38 0 01-.083-.263l.657-10.03a.38.38 0 01.379-.355h3.255c.2 0 .365.155.378.354l.658 10.031a.38.38 0 01-.084.263l-2.285 2.828a.38.38 0 01-.295.14z"/>
  </g>
  <path d="M4.285 4.79a.38.38 0 00-.759 0v1.75c0 .21.17.38.38.38h3.502a.38.38 0 100-.758H4.285V4.789zM16.454 12.038h2.726v3.043a.38.38 0 00.759 0v-3.423a.38.38 0 00-.38-.38h-3.105a.38.38 0 000 .76zM1.827 1.259h4.219a.38.38 0 100-.759h-4.22a.38.38 0 000 .759zM1.827 3.249h4.219a.38.38 0 100-.759h-4.22a.38.38 0 000 .759z" fill="#000"/>
  <g fill="#FFC5E5">
    <path d="M18.686.93h-1.82v1.821h1.82V.931zM22.362.932H20.54v1.82h1.82V.932zM18.686 4.61h-1.82v1.82h1.82V4.61zM22.362 4.61H20.54v1.82h1.82V4.61z"/>
  </g>
  <g fill="#FEA8D6">
    <path d="M3.645 20.707H2.018a.38.38 0 01-.38-.379v-3.084c0-.21.17-.38.38-.38h1.627c.21 0 .38.17.38.38v3.084c0 .21-.17.38-.38.38zM6.797 20.707H5.17a.38.38 0 01-.379-.379v-4.406c0-.21.17-.38.38-.38h1.626c.21 0 .38.17.38.38v4.406c0 .21-.17.38-.38.38z"/>
  </g>
  <path d="M7.177 22.984H1.639a.38.38 0 110-.759h5.538a.38.38 0 110 .76z" fill="#A0758E"/>
  <g fill="#3CD3A8">
    <path d="M12.021 5.925l1.72-1.697h.587c.21 0 .38.17.38.379v3.95c0 .21-.17.38-.38.38h-4.57a.38.38 0 01-.38-.38v-3.95c0-.21.17-.38.38-.38h.673l1.59 1.698zM12.021 11.283H9.97l.068-1.047a.38.38 0 01.379-.354h3.255c.2 0 .365.155.378.354l.658 10.031a.38.38 0 01-.084.263l-2.285 2.828a.38.38 0 01-.295.14"/>
  </g>
  <path d="M17.53 18.822c0 1.15.936 2.087 2.087 2.087 1.15 0 2.086-.936 2.086-2.087 0-1.15-.936-2.086-2.086-2.086s-2.087.936-2.087 2.086zm3.415 0a1.33 1.33 0 01-1.328 1.328 1.33 1.33 0 01-1.328-1.328 1.33 1.33 0 011.328-1.328 1.33 1.33 0 011.328 1.328zM9.758 8.938h4.57c.21 0 .38-.17.38-.38v-3.95a.38.38 0 00-.38-.379h-4.57a.38.38 0 00-.38.38v3.95c0 .21.17.379.38.379zm.38-3.95h3.81v3.191h-3.81V4.988zM13.315 10.642l.328 4.992a.38.38 0 00.757-.05l-.35-5.346a.38.38 0 00-.38-.355h-3.254a.38.38 0 00-.379.355l-.657 10.03a.38.38 0 00.083.264l2.285 2.827a.379.379 0 00.59 0l2.285-2.827a.38.38 0 00.084-.263l-.146-2.224a.38.38 0 00-.757.05l.136 2.075-1.897 2.347-1.897-2.347.625-9.528h2.544zM16.865 3.13h1.82c.21 0 .38-.17.38-.379V.931a.38.38 0 00-.38-.38h-1.82a.38.38 0 00-.38.38v1.82c0 .21.17.38.38.38zm.379-1.82h1.062v1.062h-1.062V1.31zM20.54 3.13h1.821c.21 0 .38-.17.38-.379V.931a.38.38 0 00-.38-.38h-1.82a.38.38 0 00-.38.38v1.82c0 .21.17.38.38.38zm.38-1.82h1.062v1.062H20.92V1.31zM16.865 6.809h1.82c.21 0 .38-.17.38-.38V4.61a.38.38 0 00-.38-.38h-1.82a.38.38 0 00-.38.38v1.82c0 .21.17.38.38.38zm.379-1.82h1.062V6.05h-1.062V4.988zM20.54 6.809h1.821c.21 0 .38-.17.38-.38V4.61a.38.38 0 00-.38-.38h-1.82a.38.38 0 00-.38.38v1.82c0 .21.17.38.38.38zm.38-1.82h1.062V6.05H20.92V4.988zM2.018 16.863a.38.38 0 00-.38.379v3.084c0 .21.17.38.38.38h1.627c.21 0 .38-.17.38-.38v-3.084a.38.38 0 00-.38-.38H2.018zm1.248 3.084h-.869v-2.326h.869v2.326zM5.17 15.54a.38.38 0 00-.379.38v4.406c0 .21.17.38.38.38h1.626c.21 0 .38-.17.38-.38V15.92a.38.38 0 00-.38-.38H5.17zm1.248 4.407H5.55V16.3h.868v3.648zM1.64 22.984h5.537a.38.38 0 100-.759H1.639a.38.38 0 100 .76z" fill="#000"/>
</svg>
