<svg width="24" height="24" fill="none" xmlns="http://www.w3.org/2000/svg">
  <defs/>
  <path d="M12.3 22.593c5.845 0 10.584-4.739 10.584-10.584 0-5.846-4.739-10.584-10.584-10.584-5.846 0-10.584 4.738-10.584 10.584 0 5.845 4.738 10.584 10.584 10.584z" fill="#FFDEF2"/>
  <path d="M12.433 1.427l-.082-.002V4.32l-2.005 9.209 8.21 3.509 2.18 1.361a10.537 10.537 0 002.148-6.39c0-5.802-4.667-10.512-10.45-10.583z" fill="#97EFFF"/>
  <path d="M12.3 20.28a8.272 8.272 0 100-16.543 8.272 8.272 0 000 16.544z" fill="#A0758E"/>
  <path d="M12.3 18.431a6.422 6.422 0 100-12.844 6.422 6.422 0 000 12.844z" fill="#FFDEF2"/>
  <path d="M6.7 8.864a6.422 6.422 0 005.6 9.567h.05l.002-.008v-1.995l.657-3.707L10 9.127l-3.3-.263z" fill="#6BE8C7"/>
  <path d="M17.236 7.901A6.423 6.423 0 005.934 11.15l.149.037 1.778.242 4.874.335 2.956-2.632 1.49-1.182.055-.049z" fill="#FEA8D6"/>
  <path d="M12.3 16.273a4.264 4.264 0 100-8.528 4.264 4.264 0 000 8.528z" fill="#A0758E"/>
  <path d="M12.3 14.373a2.365 2.365 0 100-4.729 2.365 2.365 0 000 4.73z" fill="#FFC5E5"/>
  <path d="M11.272 10.108l-.102-.176a2.364 2.364 0 00-.358 3.914l.152-.193 1.387-1.644-1.079-1.9z" fill="#FFDEF2"/>
  <g fill="#60D8E8">
    <path d="M22.165 2.966a.925.925 0 100-1.85.925.925 0 000 1.85zM2.23 22.918a.925.925 0 100-1.85.925.925 0 000 1.85z"/>
  </g>
  <path d="M6.125 9.075c-.438.921-.66 1.9-.66 2.913 0 1.432.466 2.859 1.311 4.017a.385.385 0 10.623-.454 6.089 6.089 0 01-1.15-3.958l1.25.17a4.778 4.778 0 004.381 4.985v1.261a5.977 5.977 0 01-2.2-.572 6.097 6.097 0 01-.802-.458.385.385 0 00-.432.638c.286.194.59.367.903.516.921.438 1.9.66 2.913.66 1.268 0 2.51-.354 3.59-1.023a6.775 6.775 0 002.555-2.861c.438-.921.66-1.9.66-2.913 0-1.268-.354-2.509-1.023-3.59a6.776 6.776 0 00-2.861-2.555 6.739 6.739 0 00-2.912-.66c-1.269 0-2.51.354-3.59 1.024a6.774 6.774 0 00-2.556 2.86zm2.14 2.917a4.006 4.006 0 014.001-4.001 4.006 4.006 0 014.001 4.001 4.006 4.006 0 01-4.001 4.001 4.006 4.006 0 01-4.001-4zm10.03.004c0 .897-.196 1.766-.584 2.582a6.006 6.006 0 01-2.265 2.536 6.045 6.045 0 01-2.795.895v-1.26a4.778 4.778 0 004.387-4.757 4.746 4.746 0 00-.91-2.8l.987-.782a6.043 6.043 0 011.18 3.587zM12.27 5.962c.897 0 1.766.197 2.582.585a6.025 6.025 0 011.766 1.273l-.992.787a4.757 4.757 0 00-3.36-1.387A4.78 4.78 0 007.598 11l-1.249-.171a6.03 6.03 0 01.472-1.423A6.006 6.006 0 019.087 6.87a6.043 6.043 0 013.184-.908z" fill="#000"/>
  <path d="M15.055 11.992c0-.098-.005-.197-.015-.294a.385.385 0 10-.767.08 2.02 2.02 0 01-2.99 1.976l1.277-1.513a.386.386 0 00.041-.439l-.978-1.723c.202-.068.418-.105.643-.105.539 0 1.046.21 1.427.59a.386.386 0 00.545-.544 2.77 2.77 0 00-1.972-.817 2.792 2.792 0 00-2.79 2.79 2.793 2.793 0 002.79 2.788 2.793 2.793 0 002.79-2.789zm-4.808 0c0-.612.275-1.161.706-1.532l.845 1.489-1.104 1.308a2.008 2.008 0 01-.447-1.265z" fill="#000"/>
  <path d="M19.698 4.026a10.857 10.857 0 00-7.433-2.93c-5.384 0-9.867 3.926-10.74 9.066l-.004.023a10.92 10.92 0 00-.15 1.807c0 6.008 4.887 10.895 10.894 10.895a10.92 10.92 0 006.867-2.435 10.935 10.935 0 003.772-6.096.385.385 0 00-.753-.167 10.112 10.112 0 01-1.706 3.767l-1.103-.845a8.69 8.69 0 001.66-5.119c0-4.689-3.711-8.526-8.351-8.728V1.875a10.085 10.085 0 016.522 2.714 10.085 10.085 0 013.19 6.653.385.385 0 10.769-.056c-.201-2.738-1.42-5.28-3.434-7.16zm.27 14.535c-.4.468-.841.902-1.322 1.293a10.146 10.146 0 01-6.38 2.263c-5.583 0-10.125-4.542-10.125-10.125 0-5.454 4.334-9.913 9.74-10.117v1.389c-4.64.202-8.353 4.04-8.353 8.728 0 4.818 3.92 8.737 8.737 8.737a8.72 8.72 0 006.598-3.014l1.105.846zm.264-6.569c0 4.393-3.574 7.967-7.966 7.967-4.393 0-7.967-3.574-7.967-7.967s3.574-7.967 7.966-7.967c4.393 0 7.967 3.574 7.967 7.967zM.885 1.51h2.518a.385.385 0 100-.77H.885a.385.385 0 000 .77zM.885 3.31h2.518a.385.385 0 100-.772H.885a.385.385 0 100 .771zM22.08.714c-.723 0-1.31.588-1.31 1.31 0 .723.587 1.31 1.31 1.31.722 0 1.31-.587 1.31-1.31 0-.722-.588-1.31-1.31-1.31zm0 1.85a.54.54 0 110-1.08.54.54 0 010 1.08zM2.144 20.665c-.722 0-1.31.588-1.31 1.31 0 .723.588 1.31 1.31 1.31.723 0 1.31-.587 1.31-1.31 0-.722-.587-1.31-1.31-1.31zm0 1.85a.54.54 0 11.001-1.08.54.54 0 010 1.08zM22.842 20.986l-1.162 1.162-.363-.363a.385.385 0 10-.545.545l.635.635a.385.385 0 00.545 0l1.435-1.434a.385.385 0 10-.545-.545z" fill="#000"/>
</svg>
