<svg width="24" height="24" fill="none" xmlns="http://www.w3.org/2000/svg">
  <defs/>
  <path d="M11.163 23.1a7.878 7.878 0 100-15.756 7.878 7.878 0 000 15.756z" fill="#FFEFCA"/>
  <g fill="#FBD696">
    <path d="M9.057 15.23a.431.431 0 00-.432-.432H3.297a8.028 8.028 0 000 .863h5.328a.431.431 0 00.432-.432zM13.544 14.798a.431.431 0 100 .863h5.36a.432.432 0 00.126-.019 8.02 8.02 0 00.001-.825.433.433 0 00-.127-.019h-5.36zM12.706 19.103a.43.43 0 01-.28-.103l-1.31-1.119-1.47 1.08a.431.431 0 01-.511-.694l1.745-1.283a.431.431 0 01.536.02l1.57 1.34a.431.431 0 01-.28.76zM15.675 8.983c-.632-.286-1.235-.625-1.834-.97-1.239-.38-2.423-.94-3.536-1.607a1.462 1.462 0 01-.29-.14 4.98 4.98 0 109.08 4.08 47.603 47.603 0 01-3.42-1.363z"/>
  </g>
  <path d="M20.718 7.439a5.677 5.677 0 01-5.774 4.842c-3.079-.084-5.544-2.644-5.518-5.723a5.676 5.676 0 016.576-5.556l-.9 5.605 4.879-2.902c.253.424.452.885.588 1.372 0 0 .268 1.638.18 2.173l-.031.189z" fill="#FFC5E5"/>
  <path d="M19.106 10.63l-4.004-4.023-2.937 4.853a5.66 5.66 0 006.94-.83z" fill="#826075"/>
  <path d="M19.965 3.673l-.038.008-4.822 2.925 3.996 4.029a5.66 5.66 0 00.864-6.962z" fill="#6BE8C7"/>
  <path d="M20.845 6.885a.432.432 0 00-.481.375 5.208 5.208 0 01-1.204 2.738l-3.304-3.304 4.017-2.39c.14.286.253.583.338.889a.431.431 0 10.83-.232 6.086 6.086 0 00-.633-1.477.431.431 0 00-.59-.15L15.73 5.765l.754-4.694a.432.432 0 00-.358-.495 6.114 6.114 0 00-7.076 6.031 6.114 6.114 0 006.108 6.108c3.077 0 5.682-2.3 6.06-5.348a.431.431 0 00-.374-.482zm-10.93-.278a5.25 5.25 0 015.647-5.23l-.815 5.078-2.672 4.392a5.24 5.24 0 01-2.16-4.24zm2.896 4.69L15.242 7.3l3.307 3.307a5.235 5.235 0 01-5.738.69z" fill="#000"/>
  <path d="M7.849 8.45a.431.431 0 10-.377-.775 8.35 8.35 0 00-3.39 3.017 8.302 8.302 0 00-1.305 4.479c0 4.593 3.737 8.329 8.33 8.329 4.592 0 8.328-3.736 8.328-8.329 0-.616-.067-1.23-.2-1.826a.431.431 0 00-.843.188c.089.395.145.8.168 1.207h-5.072a.431.431 0 100 .862h5.072c-.224 3.917-3.481 7.035-7.454 7.035-3.972 0-7.23-3.118-7.453-7.035h4.916a.431.431 0 100-.862H3.653a7.433 7.433 0 011.157-3.584 7.488 7.488 0 013.039-2.705z" fill="#000"/>
  <path d="M9.703 18.962l1.47-1.08L12.483 19a.43.43 0 00.609-.048.431.431 0 00-.048-.608l-1.57-1.34a.431.431 0 00-.536-.02l-1.745 1.283a.431.431 0 10.51.695z" fill="#000"/>
</svg>
