<svg width="24" height="24" fill="none" xmlns="http://www.w3.org/2000/svg">
  <defs/>
  <path d="M21.34 23.166h-2.68a.302.302 0 01-.302-.302V9.607c0-.165.136-.301.302-.301h2.68c.166 0 .302.136.302.302v13.256a.302.302 0 01-.302.302z" fill="#FED1A9"/>
  <path d="M19.941 9.305h1.408c.166 0 .301.135.301.301v13.258a.302.302 0 01-.301.302H19.94V9.305z" fill="#F9BA8F"/>
  <path d="M15.99 23.166h-2.68a.302.302 0 01-.302-.302V5.2c0-.165.136-.301.301-.301h2.68c.166 0 .302.136.302.301v17.665a.302.302 0 01-.302.302z" fill="#6BE8C7"/>
  <path d="M14.628 4.896h1.407c.166 0 .302.135.302.3v17.669a.302.302 0 01-.302.3h-1.407V4.896z" fill="#3CD3A8"/>
  <path d="M10.67 23.166H7.99a.302.302 0 01-.302-.302V1.126c0-.166.136-.302.302-.302h2.68c.166 0 .302.136.302.302v21.738a.302.302 0 01-.302.302z" fill="#FFEFCA"/>
  <path d="M9.27.824h1.4c.165 0 .301.136.301.302v21.738a.302.302 0 01-.302.302H9.31L9.27.824z" fill="#FFDFA1"/>
  <path d="M5.32 23.166H2.64a.302.302 0 01-.302-.302V9.818c0-.166.136-.302.301-.302h2.68c.166 0 .302.136.302.302v13.046a.302.302 0 01-.301.302z" fill="#6BE8C7"/>
  <path d="M3.912 9.516H5.32c.165 0 .301.136.301.302v13.046a.302.302 0 01-.301.302H3.912V9.516z" fill="#3CD3A8"/>
  <path d="M3.912 23.166H2.639a.302.302 0 01-.301-.302V9.818c0-.166.136-.302.301-.302h1.273" fill="#6BE8C7"/>
  <path d="M13.977 11.225l-1.197-.477a.298.298 0 00-.054-.016 3.805 3.805 0 00-.032-2.384.285.285 0 00.054-.017l1.184-.508a.293.293 0 10-.232-.538l-1.183.509a.293.293 0 00-.05.027 3.805 3.805 0 00-1.706-1.663.294.294 0 00.025-.05l.478-1.196a.293.293 0 10-.544-.217l-.477 1.196a.294.294 0 00-.016.054 3.805 3.805 0 00-2.384.029.294.294 0 00-.016-.05L7.318 4.74a.293.293 0 00-.538.231l.509 1.183a.292.292 0 00.026.047 3.805 3.805 0 00-1.666 1.707.298.298 0 00-.046-.023l-1.196-.477a.292.292 0 10-.217.544l1.196.477c.014.005.028.01.043.013l.006.001a3.805 3.805 0 00.03 2.386.294.294 0 00-.047.016l-1.183.508a.293.293 0 00.231.538l1.183-.508a.307.307 0 00.044-.024 3.805 3.805 0 001.71 1.664.293.293 0 00-.023.045l-.477 1.197a.293.293 0 10.544.216l.477-1.196a.293.293 0 00.014-.049c.757.237 1.59.241 2.386-.033.004.017.009.034.016.05l.509 1.183a.292.292 0 10.537-.23l-.508-1.184a.291.291 0 00-.026-.047 3.805 3.805 0 001.662-1.71c.016.01.032.019.05.026l1.196.477a.293.293 0 00.217-.544zm-4.174.047a1.831 1.831 0 11-1.446-3.365 1.831 1.831 0 011.446 3.365z" fill="#8D93A4"/>
  <path d="M2.058 9.654v13.469c0 .208.168.377.376.377h3.14a.377.377 0 00.377-.377V16.18a.377.377 0 00-.753 0v6.566H2.81V10.031h.358a.377.377 0 000-.754h-.735a.377.377 0 00-.376.377zM10.904 2.682a.377.377 0 00.377-.377V.877A.377.377 0 0010.904.5h-3.14a.377.377 0 00-.376.377v1.95a.377.377 0 00.753 0V1.254h2.387v1.051c0 .208.168.377.376.377zM7.765 16.264a.377.377 0 00-.377.377v6.482c0 .208.168.377.377.377h3.14a.377.377 0 00.376-.377v-5.422a.377.377 0 10-.753 0v5.045H8.14v-6.105a.377.377 0 00-.376-.377zM13.096 21.017a.377.377 0 00-.377.377v1.73c0 .207.168.376.377.376h3.14a.377.377 0 00.376-.377V21.92a.377.377 0 10-.753 0v.827h-2.386v-1.352a.377.377 0 00-.377-.377zM16.235 4.513h-3.14a.377.377 0 00-.376.377v.858a.377.377 0 10.753 0v-.48h2.387v5.511a.377.377 0 10.753 0V4.89a.377.377 0 00-.377-.377zM18.049 9.372v2.237a.377.377 0 00.753 0V9.75h2.387v12.997h-2.387V21.08a.377.377 0 10-.753 0v2.043c0 .208.169.377.377.377h3.14a.377.377 0 00.376-.377V9.373a.377.377 0 00-.376-.378h-3.14a.377.377 0 00-.377.377z" fill="#000"/>
  <path d="M3.822 11.782a.377.377 0 00.495.198l.889-.38a4.351 4.351 0 001.878 1.837l-.36.896a.377.377 0 10.7.28l.359-.896a4.365 4.365 0 002.626-.032l.38.89a.377.377 0 10.694-.297l-.38-.889a4.338 4.338 0 001.833-1.878l.9.36a.377.377 0 00.28-.7l-.9-.36c.255-.835.261-1.75-.027-2.626l.888-.38a.377.377 0 00-.296-.693l-.89.38a4.351 4.351 0 00-1.877-1.836l.36-.896a.377.377 0 10-.7-.28l-.359.895a4.366 4.366 0 00-2.627.032l-.38-.89a.377.377 0 10-.693.297l.38.89A4.316 4.316 0 005.16 7.58l-.898-.36a.377.377 0 10-.28.7l.898.36a4.316 4.316 0 00.03 2.626l-.89.38a.377.377 0 00-.198.495zm3.81-5.55a3.58 3.58 0 012.746-.037l.012.006.011.004a3.6 3.6 0 011.962 1.924A3.608 3.608 0 019.05 13.15c-.465 0-.915-.09-1.33-.254l-.013-.006-.01-.003a3.6 3.6 0 01-1.963-1.925 3.58 3.58 0 01-.031-2.758 3.58 3.58 0 011.928-1.973z" fill="#000"/>
  <path d="M9.046 11.812c.307 0 .606-.061.89-.183a2.25 2.25 0 001.21-1.24 2.262 2.262 0 00-2.992-2.924 2.267 2.267 0 00-1.19 2.973 2.262 2.262 0 002.082 1.374zm-.595-3.653a1.51 1.51 0 111.188 2.777A1.51 1.51 0 118.451 8.16zM19.271 13.354a.377.377 0 00-.533-.002l-.448.446a3.305 3.305 0 00-1.702-.71l.002-.633a.377.377 0 00-.754-.002l-.001.633a3.308 3.308 0 00-1.706.7l-.446-.448a.377.377 0 10-.534.532l.446.448a3.305 3.305 0 00-.71 1.701l-.633-.001h-.001a.377.377 0 00-.001.753l.633.002c.068.626.309 1.213.7 1.705l-.448.447a.377.377 0 10.531.534l.449-.446c.49.394 1.076.639 1.701.71l-.002.633c0 .208.168.377.376.378h.001a.377.377 0 00.377-.376l.002-.633a3.308 3.308 0 001.705-.7l.446.448a.376.376 0 00.533.002.377.377 0 00.002-.533l-.446-.45c.394-.49.638-1.075.71-1.7l.633.001a.377.377 0 00.002-.753l-.633-.002a3.306 3.306 0 00-.7-1.705l.448-.447a.377.377 0 00.001-.532zm-1.245 4.886a2.57 2.57 0 01-1.824.752c-.694 0-1.345-.27-1.834-.762a2.569 2.569 0 01-.753-1.832 2.57 2.57 0 01.763-1.826 2.57 2.57 0 011.824-.753c.694 0 1.345.27 1.834.763a2.59 2.59 0 01-.01 3.658z" fill="#000"/>
</svg>
