<svg width="24" height="24" fill="none" xmlns="http://www.w3.org/2000/svg">
  <defs/>
  <path d="M20.186 22.419a.744.744 0 01-.744.744H4.558a.744.744 0 01-.745-.744V1.58c0-.41.334-.744.745-.744h14.884c.41 0 .744.333.744.744V22.42z" fill="#EDE9E8"/>
  <path d="M19.441.837h-.988c.411 0 .744.333.744.744V22.42a.744.744 0 01-.744.744h.988a.744.744 0 00.745-.744V1.58a.744.744 0 00-.745-.744z" fill="#DFD7D5"/>
  <path d="M18.428 21.675H5.57a.27.27 0 01-.27-.27V2.595c0-.15.121-.27.27-.27h12.857c.149 0 .27.12.27.27v18.81a.27.27 0 01-.27.27z" fill="#AAEBF9"/>
  <path d="M18.428 2.325h-.989c.15 0 .27.12.27.27v18.81a.27.27 0 01-.27.27h.989a.27.27 0 00.27-.27V2.595a.27.27 0 00-.27-.27z" fill="#7BE2F6"/>
  <path d="M19.442.5H4.558c-.596 0-1.081.485-1.081 1.081V22.42c0 .596.485 1.081 1.08 1.081h14.885c.596 0 1.08-.485 1.08-1.081V1.58c0-.596-.484-1.081-1.08-1.081zm.407 21.919a.408.408 0 01-.407.407H4.558a.408.408 0 01-.408-.407V1.58c0-.224.183-.407.408-.407h14.884c.224 0 .407.183.407.407V22.42z" fill="#000"/>
  <path d="M18.697 1.988H5.302a.337.337 0 00-.337.337v19.35c0 .186.15.337.337.337h1.41a.337.337 0 000-.674H5.64V2.662H18.36v18.676H8.06a.337.337 0 000 .674h10.637c.186 0 .337-.151.337-.337V2.325a.337.337 0 00-.337-.337z" fill="#000"/>
  <path d="M10.104 6.79V3.815a.337.337 0 00-.674 0V6.79a.337.337 0 10.674 0zM14.57 6.79V3.815a.337.337 0 10-.675 0V6.79a.337.337 0 00.674 0zM9.43 17.21v2.976a.337.337 0 10.674 0V17.21a.337.337 0 10-.674 0zM13.896 17.21v2.976a.337.337 0 00.673 0V17.21a.337.337 0 10-.674 0zM8.686 8.775a1.082 1.082 0 002.162 0c0-.596-.485-1.081-1.081-1.081s-1.081.485-1.081 1.081zm1.08-.407a.408.408 0 110 .815.408.408 0 010-.815zM13.151 8.775a1.082 1.082 0 002.162 0c0-.596-.484-1.081-1.08-1.081-.597 0-1.082.485-1.082 1.081zm1.082-.407a.408.408 0 11-.001.815.408.408 0 010-.815zM9.767 16.306c.596 0 1.08-.485 1.08-1.081s-.484-1.081-1.08-1.081c-.596 0-1.081.485-1.081 1.08 0 .597.485 1.082 1.08 1.082zm0-1.489a.408.408 0 11-.001.816.408.408 0 010-.816zM14.232 16.306a1.082 1.082 0 000-2.162c-.596 0-1.08.485-1.08 1.08 0 .597.484 1.082 1.08 1.082zm0-1.489a.408.408 0 110 .816.408.408 0 010-.816zM6.418 9.112h1.488a.337.337 0 000-.674H6.418a.337.337 0 100 .674zM16.093 9.112h1.488a.337.337 0 000-.674h-1.488a.337.337 0 000 .674zM6.418 15.562h1.488a.337.337 0 100-.674H6.418a.337.337 0 100 .674zM16.093 15.562h1.488a.337.337 0 100-.674h-1.488a.337.337 0 000 .674zM11.628 9.112h.744a.337.337 0 000-.674h-.744a.337.337 0 000 .674zM11.628 15.562h.744a.337.337 0 000-.674h-.744a.337.337 0 000 .674zM9.43 11.256v1.488a.337.337 0 00.674 0v-1.488a.337.337 0 00-.674 0zM13.896 11.256v1.488a.337.337 0 10.673 0v-1.488a.337.337 0 00-.674 0z" fill="#000"/>
</svg>
