<svg width="24" height="24" fill="none" xmlns="http://www.w3.org/2000/svg">
  <defs/>
  <path d="M19.411 3.532v17.676H4.588V.837h12.128v2.695h2.695z" fill="#E6E9ED"/>
  <path d="M15.818 21.208v1.955l-1.123-.898-1.123.898V20.42c.322.215.708.34 1.123.34a2.01 2.01 0 001.123-.34v.789z" fill="#DA4453"/>
  <path d="M14.695 16.717a2.022 2.022 0 110 4.043 2.022 2.022 0 010-4.043z" fill="#ED5565"/>
  <path d="M14.695 18.064a.674.674 0 110 1.348.674.674 0 010-1.348z" fill="#DA4453"/>
  <path d="M19.411 3.532h-2.695V.837l2.695 2.695z" fill="#F5F7FA"/>
  <path d="M10.248 4.43l.225 2.696h-3.19l.27-2.695h2.695z" fill="#ED5565"/>
  <path d="M19.411 3.532h-1.348v17.676h1.348V3.532z" fill="#DADDE1"/>
  <path d="M8.9 2.746c-.557 0-1.01.453-1.01 1.01v.338h-.337a.337.337 0 00-.335.303l-.27 2.695a.337.337 0 00.335.37h3.19a.337.337 0 00.333-.389l-.222-2.67a.337.337 0 00-.336-.31h-.337v-.336c0-.558-.453-1.01-1.01-1.01zm1.206 4.043h-2.45l.202-2.021h2.08l.168 2.021zM8.563 4.094v-.337a.337.337 0 01.674 0v.337h-.674z" fill="#000"/>
  <path d="M19.747 3.499l-.004-.025-.001-.008a.3.3 0 00-.008-.028v-.004a.33.33 0 00-.01-.028l-.002-.003a.327.327 0 00-.012-.025c0-.002 0-.003-.002-.005a.327.327 0 00-.013-.022l-.004-.006a.35.35 0 00-.015-.02l-.004-.007a.338.338 0 00-.023-.024L16.954.599a.352.352 0 00-.024-.022L16.923.57a.315.315 0 00-.02-.014l-.006-.004a.322.322 0 00-.022-.013L16.87.538a.322.322 0 00-.025-.012l-.003-.002a.33.33 0 00-.028-.01h-.004a.327.327 0 00-.027-.007l-.01-.002A.318.318 0 0016.717.5H4.588a.337.337 0 00-.337.337v20.37c0 .187.15.338.337.338h7.637a.337.337 0 000-.674h-7.3V1.174h11.454v2.358c0 .186.151.337.337.337h2.358v17.002h-1.908a.337.337 0 100 .674h2.245c.186 0 .337-.151.337-.337V3.532a.34.34 0 00-.001-.033zM17.053 1.65l1.545 1.545h-1.545V1.65z" fill="#000"/>
  <path d="M7.283 10.764h9.433a.337.337 0 000-.673H7.283a.337.337 0 100 .673zM7.283 12.562h9.433a.337.337 0 000-.674H7.283a.337.337 0 000 .674zM17.053 14.022a.337.337 0 00-.337-.337H7.283a.337.337 0 100 .673h9.433c.186 0 .337-.15.337-.336zM7.283 15.482a.337.337 0 100 .673h4.043a.337.337 0 000-.673H7.283zM17.054 18.738c0-1.3-1.058-2.358-2.359-2.358a2.361 2.361 0 00-2.358 2.358c0 .75.352 1.418.898 1.85v2.575l.001.01.001.021a.328.328 0 00.005.033l.003.015.005.017.005.016.005.015.008.016.006.014a.32.32 0 00.017.028l.012.017.006.009.002.001a.34.34 0 00.024.027l.007.007a.337.337 0 00.02.017l.011.009a.335.335 0 00.118.055l.01.002.028.005.008.001a.368.368 0 00.033.002h.003a.333.333 0 00.106-.017l.008-.003a.332.332 0 00.047-.021l.001-.001a.325.325 0 00.045-.03l.003-.002.912-.73.913.73.003.002a.344.344 0 00.045.03h.001c.015.01.03.016.047.022.003 0 .005.002.008.003.015.005.03.009.047.011l.01.002a.336.336 0 00.048.004h.004a.37.37 0 00.033-.002l.008-.001a.35.35 0 00.028-.005l.01-.002a.286.286 0 00.024-.007l.011-.004a.361.361 0 00.053-.025l.013-.008a.316.316 0 00.016-.012c.005-.003.009-.005.013-.009a.304.304 0 00.019-.016l.007-.007a.324.324 0 00.024-.027l.002-.001.006-.01a.334.334 0 00.012-.016l.007-.012a.32.32 0 00.024-.046l.005-.015.005-.016.005-.017.003-.015.003-.018.002-.015.001-.02v-2.585c.547-.433.899-1.101.899-1.85zm-4.043 0c0-.928.755-1.684 1.684-1.684.93 0 1.685.756 1.685 1.684 0 .93-.756 1.685-1.685 1.685a1.686 1.686 0 01-1.684-1.685zm2.47 3.724l-.57-.456-.005-.004-.008-.006a.32.32 0 00-.018-.013l-.01-.007-.018-.01-.014-.006-.015-.007-.017-.006-.014-.005a.273.273 0 00-.018-.005l-.014-.003a.357.357 0 00-.032-.004l-.016-.002h-.031l-.019.002-.013.001a.425.425 0 00-.02.003l-.011.003a.475.475 0 00-.05.016l-.014.006-.015.008-.017.01-.011.006-.019.013-.007.006-.005.004-.57.456v-1.5a2.348 2.348 0 001.571 0v1.5z" fill="#000"/>
  <path d="M14.695 19.75a1.012 1.012 0 000-2.022 1.012 1.012 0 000 2.021zm0-1.349a.337.337 0 110 .675.337.337 0 010-.675z" fill="#000"/>
</svg>
