<svg width="24" height="24" fill="none" xmlns="http://www.w3.org/2000/svg">
  <defs/>
  <path d="M23.481 8.323l-6.39 1.302-7.029 2.419 2.386 1.358a.52.52 0 00.421.042c.053-.017 5.348-1.768 9.187-3.093.618-.213 1.061-.572 1.284-1.039.142-.3.19-.635.141-.989z" fill="#3B8BC0"/>
  <path d="M15.677.518l-1.303 6.39-2.418 7.028-1.358-2.385a.52.52 0 01-.042-.421c.017-.053 1.768-5.349 3.092-9.187.213-.618.573-1.061 1.04-1.284.3-.142.635-.19.989-.141z" fill="#9AD7FF"/>
  <g fill="#01121C">
    <path d="M21.074 3.447c.133 0 .266-.051.368-.153l1.038-1.038a.52.52 0 00-.735-.736l-1.039 1.038a.52.52 0 00.368.889zM18.435 6.085c.134 0 .267-.05.368-.152l1.039-1.039a.52.52 0 00-.736-.736l-1.039 1.039a.52.52 0 00.368.888z"/>
    <path d="M23.36 7.845a.52.52 0 00-.628-.323L14.08 9.92l2.399-8.651a.52.52 0 00-.324-.628c-.529-.193-1.037-.185-1.47.02-.466.223-.825.667-1.038 1.284a881.565 881.565 0 00-3.008 8.93l-.484.134-3.157-.169c-.304-.544-.837-.947-1.532-1.152-.77-.228-1.657-.184-2.5.123-.843.306-1.552.844-1.995 1.512-.475.718-.596 1.502-.34 2.207.258.705.854 1.228 1.68 1.472.618.183 1.313.19 2 .027l.056.152a.52.52 0 00.977-.356l-.055-.152c.632-.316 1.16-.769 1.516-1.307.314-.474.474-.978.47-1.469l2.787.149 1.206.687.687 1.206.149 2.786c-.491-.005-.995.156-1.47.47-.538.357-.99.885-1.307 1.516l-.152-.055a.52.52 0 00-.356.978l.153.055c-.164.687-.157 1.383.026 2.001.244.826.767 1.422 1.473 1.679.242.088.494.131.749.131.487 0 .986-.159 1.457-.47.669-.444 1.206-1.152 1.513-1.995.307-.843.35-1.731.123-2.5-.206-.696-.609-1.228-1.152-1.532l-.17-3.158.135-.484c1.11-.368 5.576-1.85 8.93-3.007.617-.213 1.06-.573 1.283-1.04.206-.432.213-.94.02-1.469zM4.453 13.901c-1.235.45-2.537.117-2.844-.727-.307-.844.477-1.936 1.711-2.386.636-.23 1.292-.268 1.85-.103.47.14.812.409.968.762.01.05.027.097.05.14.24.834-.535 1.877-1.735 2.314zm8.861 4.929c.165.557.128 1.214-.103 1.849-.45 1.235-1.542 2.018-2.386 1.712-.843-.307-1.176-1.61-.727-2.845.384-1.053 1.235-1.779 2-1.779.107 0 .212.015.313.044.044.023.091.04.141.05.354.157.623.498.762.969zm-.48-8.312a.866.866 0 00-.007.022l-.527 1.903-.195-.34a.377.377 0 00-.01-.02l-.481-.844a882.798 882.798 0 013.015-8.955c.084-.242.24-.557.503-.683a.606.606 0 01.188-.054l-2.487 8.971zm9.564-1.651c-.126.264-.44.42-.683.503a838.25 838.25 0 01-8.255 2.784l.294-1.064 8.698-2.411a.606.606 0 01-.053.188z"/>
    <path d="M15.43 7.835a.52.52 0 00.736.736l1.038-1.038a.52.52 0 00-.736-.736L15.43 7.835z"/>
  </g>
</svg>
