<svg width="24" height="24" fill="none" xmlns="http://www.w3.org/2000/svg">
  <defs/>
  <g fill-rule="evenodd" clip-rule="evenodd">
    <path d="M20.088 10.629l-1.224.627-.56.287a.266.266 0 00-.116.356l.116.227.664 1.293.115.225c.067.13.227.181.357.115l.628-.322 1.224-.627.612-.313a.266.266 0 00.114-.356l-.895-1.745a.267.267 0 00-.357-.115l-.678.348z" fill="#F78411"/>
    <path d="M10.136 8.892l-2.22 1.395c-.049.056-.395.406-.456.464a2.49 2.49 0 01-.526.387c.566 2.945 5.785 2.555 6.06.086a2.379 2.379 0 01-.484-.438l-.312-.38-2.062-1.514z" fill="#FCC368"/>
    <path d="M4.393 19.9v2.596c0 .365.289.664.642.664h9.696c.353 0 .64-.299.64-.664v-3.38c.873-1.006 2.287-2.941 1.277-6.143-.462-.952-1.17-1.315-2.36-1.378-.028-.003-.205-.008-.235-.01a2.008 2.008 0 01-1.058-.36c-1.09 1.826-4.907 1.841-6.06-.087-.25.135-.537.23-.853.24-.028.003-.207.008-.234.01-1.465.077-2.269.782-2.725 2.218l-1.05 3.31 2.32 1.214v1.77z" fill="#64B0D9"/>
    <path d="M7.958 14.449c-2.207-.76-3.73.289-4.008 2.307-.059.823-.02 1.668.218 2.56.687 2.503 4.3 3.486 6.222 1.034.648-.828 1.283-1.437 2.29-1.369 1.061.072 1.744-.525 1.709-1.288-.005-.118-.031-.215-.21-.184-.706.117-1.27-.799-.561-1.35l-1.015.52a.319.319 0 01-.422-.148l-.367-.716a.316.316 0 01.126-.43l1.027-.525c-.255-1.167-1.64-1.55-2.617-.724-.79.665-1.547.572-2.392.313z" fill="#F78411"/>
    <path d="M18.304 12.126l-1.656.847-3.681 1.887-1.027.526a.316.316 0 00-.126.429l.367.716a.318.318 0 00.421.148l1.015-.52 5.35-2.74-.663-1.293zM10.376 16.69c-.386-.584-1.311-.654-1.755-.36-.445.293-.495.512-.552.847-.023-.003-.047-.003-.073-.003h-.151c.77 0 1.046.824.66 1.334.025-.032.047-.065.067-.1a1.267 1.267 0 001.804-1.719z" fill="#B5722F"/>
    <path d="M3.95 16.756c-.64-.185-.93-.254-1.513-.04-.135.052-.257.12-.364.2-.742.558-.789 1.754.318 2.25.319.143.986.172 1.776.15.684-.017 1.46-.072 2.183-.123.582-.04 1.757-.158 2.156-.685.384-.51.109-1.334-.662-1.334h-.479c-.31 0-.538-.107-.361-.489.253-.546-.534-.776-.993-.267-.361.4-.26.803-.802.677-.553-.127-.948-.247-1.26-.339z" fill="#FFDDA6"/>
    <path d="M6.094 5.789h-.612a.41.41 0 00-.409.409v.404c0 .516.572 1.043 1.083 1.037l.778-1.127-.84-.723zM15.199 6.197a.41.41 0 00-.41-.408h-.61l-.924.924.86.926c.512.006 1.084-.521 1.084-1.037v-.405z" fill="#EDA93B"/>
    <path d="M14.179 4.884l-3.846-1.805-4.24 1.767V7.07c0 .184.021.375.062.569.203.94.873 1.947 1.76 2.648.372.293.783.534 1.213.693.734.272 1.287.271 2.02-.003a4.39 4.39 0 001.05-.571c.966-.704 1.703-1.772 1.917-2.768.042-.193.064-.384.064-.568V4.884z" fill="#FFDDA6"/>
    <path d="M12.114 1.168c-1.242.66-2.792-.301-4.093.27-1.275.56-1.928 1.757-1.928 3.408 3.728-1.382 4.971 1.755 8.086.038.131-.073.266-.154.403-.245 2.352-1.707.048-4.809-2.468-3.47z" fill="gray"/>
    <path d="M16.378 15.416l-.9.905c-.325.629-.603 3.034.407 3.261 1.425.322 2.426-.704 2.033-2.267l-.395-1.567-1.145-.332z" fill="#FFDDA6"/>
    <path d="M17.35 14.248a.528.528 0 00-.629-.104l-1.491.792a.528.528 0 00-.217.71l.191.36a.938.938 0 001.262.387l.77-.41a.939.939 0 00.387-1.261l-.192-.36a.465.465 0 00-.082-.114z" fill="#FCC368"/>
    <path d="M17.918 17.315l-.395-1.567a.944.944 0 01-.286.236l-.061.031.173.69c.388 1.54-.58 2.56-1.972 2.28l-.061-.012h-.002c.018.05.037.098.058.142.11.242.277.414.513.467 1.426.322 2.427-.704 2.033-2.267z" fill="#FCC368"/>
    <path d="M10.001 19.552c-1.61 2.055-4.411 1.697-5.678.052a3.109 3.109 0 01-.119-.163c.052.16.115.313.189.458 1.043 2.058 4.233 2.701 5.997.45.648-.827 1.282-1.436 2.29-1.368 1.061.072 1.744-.525 1.708-1.288-.005-.118-.03-.215-.209-.184a.745.745 0 01-.314-.016c-.248.45-.813.741-1.573.69-1.008-.068-1.643.541-2.29 1.369z" fill="#F74311"/>
    <path d="M9.656 17.872a1.26 1.26 0 01-.954.183l-.026-.005a.865.865 0 01-.104.359 1.267 1.267 0 001.804-1.72 1.014 1.014 0 00-.2-.223 1.264 1.264 0 01-.52 1.406z" fill="#733E08"/>
    <path d="M8.322 17.837c-.398.528-1.572.646-2.155.686-.685.047-1.418.098-2.074.12l-.07.001-.038.001c-.791.022-1.457-.006-1.777-.15a1.48 1.48 0 01-.672-.559c-.013.474.247.957.856 1.23.318.142.985.172 1.775.15l.086-.002c.662-.02 1.405-.073 2.097-.121.583-.04 1.757-.158 2.156-.685a.865.865 0 00.17-.458.845.845 0 00-.19-.599.867.867 0 01-.164.386z" fill="#FCC368"/>
    <path d="M20.964 12.174l-1.222.626-.63.322a.264.264 0 01-.355-.114l.21.41.116.226c.066.13.227.181.357.115l.628-.322 1.224-.627.611-.313a.266.266 0 00.115-.356l-.326-.634a.265.265 0 01-.116.354l-.612.313z" fill="#F74311"/>
    <path d="M16.647 12.973c-.462-.952-1.17-1.315-2.36-1.378-.028-.003-.205-.008-.234-.01a2.007 2.007 0 01-1.059-.36 2.405 2.405 0 01-.774.778c.01.008.02.014.03.02.282.181.624.315 1.005.328l.235.007c1.066.058 1.745.356 2.207 1.102l.95-.487z" fill="#4A83C9"/>
    <path d="M9.129 10.98c-.43-.16-.84-.4-1.213-.693-.048.056-.395.408-.456.464l-.068.064c.361.395 1.062.686 1.566.845.865.272 1.515.27 2.38-.002.223-.07.334.044.536.167.13.079.113.066.34.182l.006-.004c.32-.206.588-.466.775-.779a2.454 2.454 0 01-.484-.438l-.312-.38a4.39 4.39 0 01-1.05.571c-.733.274-1.286.275-2.02.003z" fill="#EDA93B"/>
    <path d="M14.18 4.884a4.614 4.614 0 01-.84.365v1.48l-.001.076a2.7 2.7 0 01-.063.494c-.2.931-.857 1.925-1.732 2.627-.06.048-.122.094-.185.14-.327.238-.68.435-1.05.573-.622.231-1.114.267-1.699.106.168.09.342.17.519.235.734.272 1.286.271 2.02-.003a4.392 4.392 0 001.05-.571c.965-.704 1.703-1.772 1.917-2.767a2.69 2.69 0 00.063-.57V4.884z" fill="#FCC368"/>
    <path d="M14.583 4.64c2.213-1.607.303-4.448-2.027-3.664 1.76.16 2.851 2.314 1.155 3.688a2.883 2.883 0 01-.132.1c-.139.09-.274.172-.405.245a4.473 4.473 0 01-.964.402c.355.01.727-.036 1.13-.162a4.59 4.59 0 00.84-.365c.13-.073.265-.154.403-.245z" fill="#666"/>
    <path d="M14.977 15.561c.01.03.02.057.036.084l.191.36a.938.938 0 001.262.387l.77-.408a.938.938 0 00.387-1.261l-.177-.334c.352.942-2.038 1.984-2.469 1.172z" fill="#EDA93B"/>
    <path d="M16.841 13.7l-4.844 2.472.004.008.18.351a.318.318 0 00.421.148l1.015-.52 1.34-.687a.527.527 0 01.273-.536l1.492-.792.015-.007a.534.534 0 01.613.11l1.617-.828-.21-.411-.116-.227-1.8.92z" fill="#733E08"/>
    <path d="M18.353 7.098c-.227-.113-.546-.14-.903-.058-.684.16-1.238.663-1.238 1.128 0 .465.554.713 1.238.555.684-.16 1.238-.663 1.238-1.128 0-.223-.127-.396-.335-.497zM22.05 5.709c-.218-.083-.508-.097-.825-.023-.684.158-1.238.663-1.238 1.128 0 .464.554.712 1.238.553.684-.158 1.238-.663 1.238-1.128 0-.248-.159-.435-.412-.53z" fill="#A2D6F2"/>
    <path d="M18.353 7.098c-.226-.113-.546-.14-.903-.058l-.056.014c.036.013.07.027.102.044.208.101.335.274.335.497 0 .45-.523.94-1.18 1.114.215.074.495.084.8.014.683-.16 1.237-.663 1.237-1.128 0-.223-.127-.396-.335-.497zM22.464 6.24c0-.249-.16-.436-.413-.531-.219-.083-.508-.097-.825-.023a.766.766 0 00-.058.014c.01.002.018.006.027.009.252.095.412.282.412.53 0 .452-.524.942-1.181 1.114.215.075.494.086.8.014.684-.158 1.238-.663 1.238-1.128z" fill="#64B0D9"/>
  </g>
  <path d="M21.425 10.24a.606.606 0 00-.814-.26l-.373.19-.172-.34a.34.34 0 00-.607.305l.175.345-.62.317-.171-.34a.34.34 0 00-.607.305l.174.345-.263.134a.607.607 0 00-.294.734l-1.066.546c-.504-.816-1.264-1.2-2.477-1.265a6.352 6.352 0 00-.186-.007l-.06-.002c-.556-.018-1.032-.361-1.29-.676l-.094-.113c.814-.679 1.446-1.598 1.707-2.51.257-.06.51-.202.721-.41.273-.27.43-.611.43-.936v-.404a.749.749 0 00-.748-.749h-.271v-.37a6.872 6.872 0 00.264-.165c1.315-.954 1.33-2.3.762-3.208-.64-1.025-2.078-1.641-3.59-.837-.543.288-1.192.208-1.88.124-.723-.09-1.471-.182-2.19.134-.7.308-1.238.792-1.602 1.44-.351.626-.53 1.393-.53 2.279v.603h-.271a.749.749 0 00-.748.749v.404c0 .325.156.666.43.935.211.21.464.352.721.41.243.849.806 1.702 1.537 2.363-.087.088-.17.17-.197.195-.2.193-.618.517-1.154.534l-.016.001c-.024.002-.1.004-.154.006l-.071.002c-1.583.084-2.518.841-3.03 2.455l-1.02 3.214c-.351.3-.567.73-.583 1.2-.022.67.373 1.253 1.056 1.559.301.135.803.186 1.47.186l.198-.002c.039.109.083.215.133.319v2.517c0 .554.44 1.004.981 1.004h9.696c.54 0 .98-.45.98-1.004v-2.61a2.64 2.64 0 00.681.095c.555 0 1.05-.193 1.406-.558.506-.518.67-1.316.45-2.19l-.358-1.418c.052-.088.094-.182.125-.283.1-.325.068-.67-.091-.969l-.096-.179.998-.511a.605.605 0 00.769.188l.324-.166.172.341a.34.34 0 10.607-.306l-.175-.345.62-.317.172.342a.34.34 0 10.607-.306l-.175-.345.312-.16a.606.606 0 00.261-.813l-.895-1.745zM5.64 7.055c-.142-.14-.227-.31-.227-.452v-.404a.07.07 0 01.07-.07h.27v.941c0 .028.003.056.003.083a.99.99 0 01-.116-.098zm9.15-.926a.07.07 0 01.069.07v.404c0 .143-.085.311-.228.452a.996.996 0 01-.114.097l.002-.082v-.94h.27zm-6.632-4.38c.548-.24 1.173-.163 1.835-.081.761.093 1.549.19 2.281-.2 1.144-.608 2.222-.16 2.696.598.37.594.44 1.55-.58 2.295-1.654 1.078-2.72.716-3.955.295-.721-.245-1.502-.511-2.45-.511-.466 0-.972.064-1.531.225.088-.977.483-2.084 1.704-2.62zM6.488 7.57v-.004a2.408 2.408 0 01-.055-.496V5.087c1.608-.529 2.713-.153 3.784.211.658.224 1.327.452 2.083.452.473 0 .98-.09 1.54-.326V7.07a2.407 2.407 0 01-.061.527c-.274 1.234-1.441 2.576-2.748 3.063-.66.246-1.126.247-1.784.003-1.32-.49-2.495-1.849-2.759-3.093zM2.531 18.856c-.43-.192-.668-.526-.655-.917.013-.4.28-.755.68-.904.503-.186.707-.126 1.385.073.303.089.68.2 1.191.318.617.143.814-.24.932-.468.053-.104.108-.21.2-.313a.479.479 0 01.34-.17.216.216 0 01.108.02.195.195 0 01-.016.047c-.153.331-.088.553-.007.68.124.193.351.291.677.291h.479c.263 0 .385.136.442.249a.521.521 0 01-.052.541c-.125.166-.54.459-1.908.551l-.105.008c-1.345.093-3.187.22-3.691-.006zm2.16.88a2.877 2.877 0 01-.047-.098 70.667 70.667 0 001.625-.1l.105-.007c1.137-.077 1.887-.3 2.283-.684a1.611 1.611 0 001.547-.12 1.61 1.61 0 00.455-2.225c-.492-.743-1.62-.856-2.225-.455-.406.267-.558.511-.638.787h-.43l-.056-.001.002-.005c.162-.35.075-.703-.222-.898-.338-.223-.928-.186-1.33.26a2.007 2.007 0 00-.3.458 1.363 1.363 0 01-.073.131.47.47 0 01-.101-.015c-.385-.089-.693-.174-.95-.248.149-.699.472-1.242.944-1.582a.34.34 0 00-.396-.551c-.602.433-1.014 1.101-1.203 1.948-.366-.092-.67-.122-1.059-.026l.824-2.596c.426-1.34 1.127-1.914 2.417-1.983.008 0 .032 0 .06-.002l.177-.007a2.16 2.16 0 00.716-.152c.507.658 1.346 1.123 2.352 1.292a.34.34 0 10.113-.67c-.795-.133-1.455-.476-1.863-.958.11-.082.203-.163.274-.23l.263-.263c.333.233.688.426 1.056.562.404.15.764.225 1.125.225.362 0 .724-.076 1.132-.227.297-.112.587-.26.864-.436l.117.142c.052.063.146.17.28.289-.374.44-.99.76-1.737.892a.34.34 0 10.118.669c.946-.168 1.707-.58 2.182-1.175.264.134.581.236.947.248l.063.002a11.144 11.144 0 01.168.007c.974.052 1.526.303 1.91.898l-3.02 1.547a1.75 1.75 0 00-1.04-.925c-.666-.226-1.41-.068-1.99.422-.641.542-1.244.502-2.067.25-.63-.216-1.227-.3-1.772-.25a.34.34 0 00.061.675c.451-.041.954.033 1.496.219a.429.429 0 00.01.003c.861.265 1.786.402 2.71-.378.397-.336.896-.447 1.335-.298.297.1.525.311.652.592l-.77.395a.656.656 0 00-.273.885l.367.718c.119.23.352.363.59.363a.634.634 0 00.288-.07l.202-.102a1.112 1.112 0 001.085.98.776.776 0 01-.234.46c-.246.24-.64.357-1.107.325-1.233-.084-1.978.729-2.58 1.497-.793 1.011-1.999 1.468-3.226 1.221-.989-.198-1.793-.801-2.205-1.622v-.002zm4.203-2.277c-.1-.2-.251-.359-.437-.466.045-.133.13-.234.35-.38.299-.197 1.008-.156 1.285.263a.93.93 0 01-.262 1.284.934.934 0 01-.842.091 1.197 1.197 0 00-.094-.792zm6.138 1.726v3.311c0 .18-.135.325-.301.325H5.035c-.164 0-.303-.149-.303-.325v-1.55a3.92 3.92 0 002.031 1.08c.266.054.532.08.794.08 1.197 0 2.317-.548 3.1-1.547.648-.827 1.183-1.294 2-1.239.664.045 1.242-.139 1.628-.517.305-.3.462-.699.442-1.124-.003-.076-.011-.277-.18-.413a.51.51 0 00-.423-.092.436.436 0 01-.461-.26c-.043-.097-.079-.286.145-.472l.979-.5.118.223c.048.09.106.172.17.245-.228.677-.368 1.974-.043 2.774zm.281-3.7c-.038-.04-.051-.179.076-.249l1.492-.792c.117-.078.22.019.251.078l.192.36c.074.139.089.299.042.451a.59.59 0 01-.289.35l-.769.41a.593.593 0 01-.571-.01.723.723 0 01-.232-.237l-.192-.361zm2 3.464c-.314.321-.795.428-1.353.302-.042-.01-.17-.038-.281-.28-.25-.545-.17-1.593-.01-2.184a1.265 1.265 0 00.958-.095l.691-.367.27 1.073c.162.64.061 1.206-.276 1.55zm.07-5.1a.876.876 0 00-.82-.004l-1.491.791a.857.857 0 00-.447.625l-2.15 1.101-.352-.689 6.034-3.09.354.689-1.129.578zm2.539-.718l-.007.003-.008.004-.555.285-.828-1.612.484-.248.009-.003.013-.008 1.207-.618.004-.002.006-.003.608-.312.827 1.612-1.76.902z" fill="#000"/>
  <path d="M7.822 6.967a.338.338 0 00.479-.028c.026-.027.15-.076.332-.076h.002c.18 0 .303.05.328.076a.34.34 0 00.508-.452c-.244-.273-.667-.303-.838-.303-.171 0-.596.03-.84.303a.34.34 0 00.029.48zM10.786 6.967a.338.338 0 00.48-.029c.025-.026.149-.075.33-.075h.003c.18 0 .302.05.327.076a.34.34 0 00.507-.452c-.243-.273-.665-.303-.838-.303h-.002c-.17 0-.594.03-.836.304a.34.34 0 00.03.48zM16.206 8.85c.216.172.51.26.843.26.152 0 .313-.018.479-.056.855-.2 1.5-.826 1.5-1.459a.858.858 0 00-.333-.682l-.002-.001v-2.84h.004l3.015-.629V5.3a2.084 2.084 0 00-.562.056c-.842.194-1.501.835-1.501 1.459 0 .269.118.511.333.682.216.171.509.26.84.26.153 0 .315-.02.48-.058.842-.194 1.502-.835 1.502-1.459a.857.857 0 00-.413-.738V3.356a.64.64 0 00-.233-.492.538.538 0 00-.45-.114l-3.15.657c-.325.067-.544.311-.544.606V6.66a2.034 2.034 0 00-.64.05c-.856.199-1.501.826-1.501 1.458 0 .269.118.511.333.682zm5.842-2.761c.068.054.077.109.077.15 0 .27-.417.669-.976.798-.373.087-.634.015-.745-.073-.068-.054-.076-.109-.076-.15 0-.27.416-.669.974-.798h.001c.12-.027.227-.039.323-.039.202 0 .347.052.422.112zm-4.52 1.282c.373-.086.634-.014.745.074.068.054.076.108.076.15 0 .27-.417.668-.975.797-.373.086-.635.014-.745-.073a.178.178 0 01-.077-.151c0-.269.417-.667.975-.797z" fill="#000"/>
</svg>
