<svg width="24" height="24" fill="none" xmlns="http://www.w3.org/2000/svg">
  <defs/>
  <path d="M18.689 11.784l-1.255 1.502-.968-1.001-1.255 1.502-.968-1.002-1.255 1.501-.968-1.002-1.255 1.501-.968-1.002-1.255 1.502H6.798l1.92-2.138a1.67 1.67 0 00.416-1.315L8.72 8.396l.121-.015 14.293-.014v2.419l-1.255 1.501-.968-1.002-1.255 1.501-.968-1.002z" fill="#CFDCE5"/>
  <path d="M6.798 15.285l-.48.535-3.967.094a1.08 1.08 0 01-1.062-.778l-.196-.674a5.525 5.525 0 01.505-4.28 1.269 1.269 0 00.016-1.226l-.166-.308a.396.396 0 01.349-.583l6.884-.007.04.338.413 3.436a1.67 1.67 0 01-.416 1.315l-1.92 2.138zm-.648-4.89a1 1 0 00-.796-1.166.998.998 0 00-1.166.795v.25c0 1.141-.23 2.27-.675 3.322a.998.998 0 001.961.37l.676-3.57z" fill="#4EBFED"/>
  <path d="M6.509 10.478a1.37 1.37 0 00-2.69-.508.374.374 0 00-.006.069v.249a8.085 8.085 0 01-.646 3.177.37.37 0 00-.023.076 1.37 1.37 0 002.116 1.385 1.36 1.36 0 00.573-.876l.12-.638a.37.37 0 10-.727-.138l-.12.638a.623.623 0 01-.734.5.629.629 0 01-.506-.699 8.82 8.82 0 00.688-3.425v-.21a.623.623 0 01.256-.373.628.628 0 01.97.636l-.327 1.736a.37.37 0 10.727.137l.329-1.736zM9.884 8.766l7.582-.01a.37.37 0 000-.74h-.001l-7.582.01a.37.37 0 000 .74z" fill="#000"/>
  <path d="M23.391 8.12a.37.37 0 00-.261-.11l-4.431.006a.37.37 0 000 .74l4.06-.004v1.914l-.904 1.082-.682-.706a.368.368 0 00-.55.02l-.991 1.185-.682-.706a.37.37 0 00-.55.02l-.991 1.186-.682-.705a.368.368 0 00-.55.02l-.99 1.186-.683-.706a.369.369 0 00-.55.02l-.99 1.185-.683-.706a.37.37 0 00-.55.02l-.991 1.185-.682-.706a.37.37 0 00-.55.02l-1.144 1.369h-.741l1.365-1.52a2.04 2.04 0 00.508-1.607l-.453-3.774a.37.37 0 00-.368-.326l-6.884.007a.76.76 0 00-.657.373.76.76 0 00-.017.755l.165.308a.901.901 0 01-.01.869 5.927 5.927 0 00-.54 4.566l.196.674a1.452 1.452 0 001.427 1.044l3.966-.093a.37.37 0 00.267-.123l.37-.413h1.579a.37.37 0 00.284-.133l.99-1.185.683.706a.369.369 0 00.55-.02l.99-1.185.683.706a.37.37 0 00.55-.02l.991-1.186.682.706a.372.372 0 00.55-.02l.99-1.186.683.706a.37.37 0 00.55-.02l.99-1.186.683.706a.37.37 0 00.55-.02l.99-1.185.683.706a.367.367 0 00.55-.02l1.255-1.501a.37.37 0 00.086-.238V8.381a.371.371 0 00-.109-.262zM6.143 15.467l-3.806.09a.712.712 0 01-.698-.51l-.196-.675a5.182 5.182 0 01.472-3.993 1.643 1.643 0 00.02-1.585l-.166-.308c-.002-.005-.006-.013.001-.025.008-.013.017-.013.022-.013l6.555-.006.414 3.447a1.3 1.3 0 01-.324 1.024l-2.294 2.554z" fill="#000"/>
</svg>
