<svg width="24" height="24" fill="none" xmlns="http://www.w3.org/2000/svg">
  <defs/>
  <path d="M16.392 15.932l.74-.337c1.686-.674 4.045-1.84 4.045-1.84a1.345 1.345 0 011.84.492c.372.648 0 1.348-.492 1.84 0 0-6.066 4.9-8.088 4.9-2.022 0-8.088-1.348-8.088-1.348v-6.066c3.37-.56 4.523.337 9.436 1.907.27.115.451.277.566.473l.04-.021z" fill="#FFDECF"/>
  <path d="M23.017 14.247a1.332 1.332 0 00-.557-.527c-.083.376-.322.733-.61 1.02 0 0-5.391 4.775-7.413 4.775-1.611 0-6.457-.73-8.088-1.078v1.202s6.066 1.348 8.088 1.348c2.022 0 8.088-4.9 8.088-4.9.492-.492.863-1.192.492-1.84z" fill="#FFCDBE"/>
  <path d="M6.348 19.64v.653H5V12.9h1.348v6.74z" fill="#E6E9ED"/>
  <path d="M5 20.293v.694H.836v-8.762h4.166v8.068z" fill="#656D78"/>
  <path d="M11.067 10.202a1.573 1.573 0 100-3.145 1.573 1.573 0 000 3.145z" fill="#FFCE54"/>
  <g fill="#DCA746">
    <path d="M11.067 10.202c.868 0 1.572-.704 1.572-1.572v1.348a1.573 1.573 0 11-3.145 0V8.63c0 .868.704 1.572 1.573 1.572zM19.829 5.709v1.348a2.696 2.696 0 11-5.393 0h.001V5.709a2.696 2.696 0 105.392 0z"/>
  </g>
  <path d="M19.828 5.709a2.696 2.696 0 11-5.392 0 2.696 2.696 0 015.392 0z" fill="#FFCE54"/>
  <path d="M17.132 3.013a2.7 2.7 0 00-.674.085 2.698 2.698 0 010 5.222 2.696 2.696 0 10.674-5.307z" fill="#F6BB42"/>
  <path d="M11.069 11.888c1.053 0 1.91-.857 1.91-1.91V8.63c0-1.053-.857-1.91-1.91-1.91s-1.91.857-1.91 1.91v1.348c0 1.053.857 1.91 1.91 1.91zm0-.674a1.237 1.237 0 01-1.23-1.125 1.9 1.9 0 002.46 0 1.237 1.237 0 01-1.23 1.125zm0-3.82c.681 0 1.236.555 1.236 1.236a1.237 1.237 0 01-2.471 0c0-.681.553-1.236 1.235-1.236z" fill="#000"/>
  <path d="M11.068 9.416c.187 0 .338-.15.338-.337v-.898a.337.337 0 00-.675 0v.898c0 .187.151.337.337.337zM17.135 10.09c1.67 0 3.03-1.357 3.032-3.027V5.709a3.036 3.036 0 00-3.032-3.033 3.036 3.036 0 00-3.033 3.033v1.348a3.036 3.036 0 003.033 3.033zm0-.674a2.363 2.363 0 01-2.262-1.688 3.026 3.026 0 004.523 0 2.363 2.363 0 01-2.261 1.688zm0-6.066c1.3 0 2.359 1.059 2.359 2.36 0 1.3-1.059 2.358-2.36 2.358-1.3 0-2.358-1.058-2.358-2.359 0-1.3 1.058-2.359 2.359-2.359z" fill="#000"/>
  <path d="M17.135 6.945c.186 0 .337-.15.337-.337V4.811a.337.337 0 00-.674 0v1.797c0 .186.15.337.337.337zM23.306 14.08a1.688 1.688 0 00-2.291-.622c-.146.072-2.01.988-3.547 1.634a.337.337 0 00.261.622c1.611-.678 3.574-1.647 3.593-1.657a1.013 1.013 0 011.4.36c.323.559-.18 1.171-.427 1.422-1.674 1.35-6.304 4.81-7.86 4.81-1.725 0-6.565-1.025-7.749-1.281v-5.505c2.347-.345 3.59.088 6.196.996.793.276 1.691.589 2.783.938.162.07.614.325.442.899-.105.35-.442.682-.936.59-.663-.124-4.568-.654-4.733-.676a.337.337 0 10-.091.668c.04.005 4.053.55 4.7.67.1.02.198.028.292.028.716 0 1.242-.513 1.414-1.086.18-.604-.008-1.368-.833-1.717a.057.057 0 00-.004-.002l-.003-.001-.014-.005-.013-.005c-1.09-.348-1.99-.662-2.782-.938-2.598-.905-3.968-1.382-6.418-1.04v-.281a.337.337 0 00-.337-.337H5.34v-.337a.337.337 0 00-.337-.337H.837a.337.337 0 00-.337.337v7.412a.337.337 0 00.674 0v-7.075h3.49v8.085h-.673v-.336a.337.337 0 10-.674 0v.337H.837a.337.337 0 000 .674h4.165c.186 0 .337-.151.337-.338v-.353h1.01c.186 0 .337-.151.337-.337v-.238c1.41.304 6 1.265 7.75 1.265.92 0 2.553-.82 4.992-2.508a63.573 63.573 0 003.331-2.488c.732-.733.937-1.573.547-2.247zM5.339 19.96v-6.721h.673v6.721H5.34z" fill="#000"/>
</svg>
