<svg width="24" height="24" fill="none" xmlns="http://www.w3.org/2000/svg">
  <defs/>
  <path d="M22.504 21.69l-2.73 1.124a3.488 3.488 0 01-3.099-.22l-.434-.255C10.684 19.07 4.923 13.31 1.654 7.754L1.4 7.318a3.489 3.489 0 01-.22-3.096L2.306 1.49l.935-.443a1.282 1.282 0 011.616.447l2.772 4.157c.294.442.286 1.02-.022 1.454l-.837 1.177-.91 1.28c.882 1.554 2.248 3.256 3.782 4.79 1.534 1.535 3.238 2.901 4.791 3.783l1.28-.91 1.177-.837a1.282 1.282 0 011.454-.022l4.157 2.77c.53.354.72 1.042.447 1.617l-.443.936z" fill="#CFDCE5"/>
  <g fill="#415E72">
    <path d="M7.605 7.105l-.799 1.123-4.502-6.737.936-.444a1.281 1.281 0 011.616.448l2.77 4.155a1.283 1.283 0 01-.021 1.455zM22.946 20.752l-.444.937-6.807-4.454.016-.01 1.177-.838a1.282 1.282 0 011.454-.021l4.156 2.77c.53.353.72 1.04.448 1.616z"/>
  </g>
  <path d="M15.204 21.192C10.056 17.835 5.006 12.603 2.027 7.538l-.256-.435a3.08 3.08 0 01-.192-2.72L2.4 2.39l.598.895a.425.425 0 10.707-.473l-.767-1.148.49-.233a.861.861 0 011.08.3L7.28 5.886a.862.862 0 01-.015.971l-.441.621-2.332-3.49a.425.425 0 00-.707.473l2.511 3.76-.778 1.093a.425.425 0 00-.023.456c.324.572.718 1.173 1.171 1.788a.426.426 0 00.685-.504c-.371-.505-.7-.998-.98-1.47L7.958 7.35a1.717 1.717 0 00.028-1.936l-2.77-4.157A1.717 1.717 0 003.063.662l-.936.444a.425.425 0 00-.21.222L.792 4.06a3.935 3.935 0 00.245 3.474l.256.435C4.336 13.141 9.488 18.48 14.74 21.904a.424.424 0 00.589-.123.425.425 0 00-.125-.59z" fill="#000"/>
  <path d="M22.742 18.783l-4.156-2.77a1.717 1.717 0 00-1.937.028l-2.234 1.589c-1.414-.84-2.99-2.102-4.467-3.579a28.07 28.07 0 01-1.809-1.987.425.425 0 00-.656.541 28.934 28.934 0 001.863 2.048c1.611 1.611 3.345 2.98 4.883 3.852a.426.426 0 00.456-.023l1.028-.73 5.888 3.852-1.984.817a3.08 3.08 0 01-2.72-.193l-.435-.256a.425.425 0 10-.431.733l.434.256a3.925 3.925 0 003.476.246l2.73-1.124a.425.425 0 00.223-.211l.444-.937c.36-.76.104-1.686-.596-2.152zm-5.6-2.048a.862.862 0 01.972-.015l4.156 2.77c.351.235.48.7.3 1.08l-.236.497-5.876-3.845.684-.487z" fill="#000"/>
</svg>
