<svg width="24" height="24" fill="none" xmlns="http://www.w3.org/2000/svg">
  <defs/>
  <path d="M20.687 20.821H13.59v2.312h7.096v-2.312zM10.41 17.396H3.314v5.737h7.096v-5.737z" fill="#F2484B"/>
  <path d="M20.197 18.864H14.08v1.223h6.117v-1.223zM9.92 15.438H3.805v1.223H9.92v-1.223z" fill="#98D9D5"/>
  <path d="M19.218 17.029V14.63c0-.092.035-.181.099-.25.567-.611.88-1.409.88-2.245V6.984a.367.367 0 00-.734 0v3.23a.367.367 0 01-.734 0V6.005a.367.367 0 00-.734 0v4.209a.367.367 0 11-.734 0V5.027a.367.367 0 00-.734 0v5.187a.367.367 0 11-.734 0V6.005a.367.367 0 00-.734 0v5.79a2.573 2.573 0 012.202 2.543.367.367 0 11-.734 0 1.837 1.837 0 00-1.835-1.835.367.367 0 01-.367-.367V8.941a.367.367 0 00-.734 0v3.195a3.31 3.31 0 002.202 3.116.367.367 0 01-.245.692 4.01 4.01 0 01-.49-.211v2.396h4.527v-.734a.367.367 0 01-.367-.366z" fill="#FFCC75"/>
  <path d="M8.942 13.603v-2.397c0-.093.035-.182.098-.25.568-.612.88-1.41.88-2.245V3.558a.367.367 0 00-.733 0v3.23a.367.367 0 11-.734 0V2.58a.367.367 0 00-.734 0v4.208a.367.367 0 11-.734 0V1.601a.367.367 0 00-.734 0v5.187a.367.367 0 11-.734 0V2.58a.367.367 0 00-.734 0v5.79a2.573 2.573 0 012.202 2.543.367.367 0 11-.734 0 1.837 1.837 0 00-1.835-1.835.367.367 0 01-.368-.367V5.516a.367.367 0 00-.734 0V8.71c0 1.398.885 2.65 2.202 3.115a.367.367 0 01-.244.692c-.17-.06-.332-.13-.49-.21v2.396H9.31v-.734a.367.367 0 01-.367-.367z" fill="#F2EBD9"/>
  <path d="M21.053 20.087h-.122v-1.59a.367.367 0 00-.367-.367h-5.505v-2.397c.157.08.32.151.489.21a.367.367 0 10.245-.691 3.31 3.31 0 01-2.202-3.116V8.941a.367.367 0 01.734 0v3.195c0 .203.164.367.367.367 1.011 0 1.835.824 1.835 1.835a.367.367 0 10.734 0 2.573 2.573 0 00-2.202-2.542v-5.79a.367.367 0 01.734 0v4.208a.367.367 0 10.734 0V5.027a.367.367 0 01.734 0v5.187a.367.367 0 10.734 0V6.005a.367.367 0 01.734 0v4.209a.367.367 0 10.734 0v-3.23a.367.367 0 01.734 0v5.152c0 .836-.313 1.634-.88 2.246a.367.367 0 00-.099.25v2.397a.367.367 0 10.734 0V14.77a4.023 4.023 0 00.979-2.635V6.984a1.102 1.102 0 00-1.47-1.038 1.102 1.102 0 00-1.468-.978 1.102 1.102 0 00-1.1-1.042c-.587 0-1.068.462-1.099 1.042a1.102 1.102 0 00-1.47 1.038v1.898a1.102 1.102 0 00-1.468 1.038v3.194c0 1.227.558 2.362 1.469 3.115v2.879h-.612a.367.367 0 00-.367.367v1.59h-.123a.367.367 0 00-.367.367v2.679a.367.367 0 00.735 0v-2.312h7.095v2.312a.367.367 0 00.734 0v-2.679a.367.367 0 00-.367-.367zm-.856-1.223v1.223H14.08v-1.223h6.117zM10.777 16.662h-.122v-1.59a.367.367 0 00-.367-.368H4.781v-2.397c.157.08.32.151.49.211a.366.366 0 10.244-.692 3.31 3.31 0 01-2.202-3.115V5.516a.367.367 0 01.734 0v3.195c0 .203.164.367.367.367 1.012 0 1.835.823 1.835 1.835a.367.367 0 10.734 0A2.573 2.573 0 004.782 8.37V2.58a.367.367 0 01.734 0v4.208a.367.367 0 10.734 0V1.601a.367.367 0 01.734 0v5.187a.367.367 0 10.734 0V2.58a.367.367 0 01.734 0v4.208a.367.367 0 10.734 0v-3.23a.367.367 0 01.735 0v5.153c0 .836-.313 1.633-.881 2.245a.367.367 0 00-.098.25v2.397a.367.367 0 10.734 0v-2.257a4.023 4.023 0 00.979-2.635V3.559a1.102 1.102 0 00-1.47-1.038 1.102 1.102 0 00-1.468-.979A1.102 1.102 0 006.617.5c-.587 0-1.069.462-1.1 1.042a1.102 1.102 0 00-1.47 1.038v1.898A1.102 1.102 0 002.58 5.516v3.195c.001 1.226.559 2.361 1.47 3.114v2.88h-.613a.367.367 0 00-.367.366v1.59h-.122a.367.367 0 00-.367.367v6.105a.367.367 0 10.734 0v-5.737h7.096v5.737a.367.367 0 10.734 0v-6.104a.367.367 0 00-.367-.367zm-.856-1.224v1.223H3.803v-1.223h6.118z" fill="#082947"/>
</svg>
