<svg width="24" height="24" fill="none" xmlns="http://www.w3.org/2000/svg">
  <defs/>
  <path d="M17.82 7.21l-.028.028v10.428H8.678V7.238l-.029-.029 4.586-4.584 4.585 4.584z" fill="#CFDCE5"/>
  <path d="M17.322 6.712V3.028h-2.119v1.565" fill="#FF6F52"/>
  <path d="M14.723 8.932h-2.977v4.188h2.977V8.932z" fill="#FCD577"/>
  <path d="M22.486 16.582l-6.766 4.276c-.68.43-1.492.6-2.287.48l-7.99-1.207c-.411-.062-.831.03-1.179.258l-.674.444-1.889-3.703-.784-1.537a8.958 8.958 0 002.846-2.798 3.414 3.414 0 012.926-1.59c.27.005.54.034.806.088l1.169.234 5.961 1.195a1.154 1.154 0 01.893 1.408c-.15.601-.734.987-1.344.887l-4.466-.725a1.084 1.084 0 00-.355 2.139l5.144.871a2.05 2.05 0 001.333-.227l5.235-2.894a1.395 1.395 0 011.421 2.402z" fill="#F9EADE"/>
  <g fill="#EDDFD6">
    <path d="M8.664 11.527s-2.757-.022-4.394 2.863c-.62 1.09-1.595 2.014-2.569 2.74l-.784-1.537a8.958 8.958 0 002.846-2.798 3.414 3.414 0 012.926-1.59c.27.005.54.034.806.088l1.169.234zM15.935 17.016l2.156-3.532a1.397 1.397 0 012.575.917"/>
  </g>
  <path d="M7.039 9.345L8.26 8.123v2.226a.39.39 0 10.78 0V7.343l4.167-4.167L14.9 4.868l2.475 2.475v4.608a.39.39 0 10.78 0V8.123l1.222 1.222a.389.389 0 00.552 0 .39.39 0 000-.551L17.685 6.55V3.028a.39.39 0 00-.39-.39h-2.119a.39.39 0 00-.39.39v.623L13.484 2.35a.39.39 0 00-.552 0L6.487 8.794a.39.39 0 10.552.551zm8.527-5.927h1.339V5.77l-1.339-1.339V3.418z" fill="#000"/>
  <path d="M14.696 11.869a.39.39 0 00.39-.39V8.93a.39.39 0 00-.39-.39h-2.977a.39.39 0 00-.39.39v2.08a.39.39 0 10.78 0v-1.69h2.197v2.158c0 .215.174.39.39.39z" fill="#000"/>
  <path d="M23.219 14.442a1.79 1.79 0 00-2.233-.67 1.79 1.79 0 00-1.729-1.347c-.628 0-1.198.32-1.526.856l-2.102 3.445-.014.008c-.328.18-.711.246-1.08.184l-5.144-.872a.698.698 0 01-.575-.747.687.687 0 01.265-.486.687.687 0 01.537-.137l4.466.726a1.587 1.587 0 001.786-1.178 1.53 1.53 0 00-.195-1.197 1.53 1.53 0 00-1-.687l-7.13-1.43a4.925 4.925 0 00-.875-.095c-1.3-.023-2.55.654-3.262 1.77A8.599 8.599 0 01.686 15.26a.39.39 0 00.408.664 9.383 9.383 0 002.971-2.92 3.042 3.042 0 012.59-1.41c.247.005.495.031.737.08l7.13 1.43a.757.757 0 01.495.34.757.757 0 01.096.592c-.1.4-.497.661-.903.595l-4.466-.725a1.478 1.478 0 00-1.14.29 1.48 1.48 0 00-.565 1.032 1.481 1.481 0 001.222 1.586l5.144.872a2.447 2.447 0 001.587-.27l5.235-2.895a1.008 1.008 0 011.468 1.1.999.999 0 01-.444.63l-6.766 4.276c-.6.38-1.318.53-2.02.424l-4.043-.61a.39.39 0 10-.116.77l4.042.612a3.727 3.727 0 002.554-.536l6.766-4.276c.404-.255.684-.653.788-1.12.105-.467.02-.947-.237-1.35zm-4.822-.755a1.001 1.001 0 011.328-.365c.318.167.519.493.535.844l-3.252 1.797 1.389-2.276z" fill="#000"/>
  <path d="M8.103 20.142l-2.628-.397a2.072 2.072 0 00-1.45.318l-.675.444a.39.39 0 10.428.651l.675-.443c.267-.176.588-.247.905-.199l2.629.397a.39.39 0 00.116-.77z" fill="#000"/>
</svg>
