<svg width="24" height="24" fill="none" xmlns="http://www.w3.org/2000/svg">
  <defs/>
  <path d="M19.379 3.227H9.044a.901.901 0 00-.898.899v5.841c0 .495.404.899.898.899H19.38a.901.901 0 00.898-.899V4.126a.901.901 0 00-.898-.899z" fill="#5D9CEC"/>
  <path d="M19.38 3.227H18.03c.495 0 .899.405.899.899v5.841a.901.901 0 01-.899.899h1.348a.901.901 0 00.9-.899V4.126a.901.901 0 00-.9-.899z" fill="#4A89DC"/>
  <path d="M16.392 15.717l.74-.337c1.686-.674 4.045-1.84 4.045-1.84a1.345 1.345 0 011.84.492c.372.648 0 1.348-.492 1.84 0 0-6.066 4.9-8.088 4.9-2.022 0-8.088-1.348-8.088-1.348v-6.066c3.37-.559 4.523.337 9.436 1.908.27.114.451.276.566.473l.04-.022z" fill="#FFDECF"/>
  <path d="M23.017 14.033a1.332 1.332 0 00-.557-.528c-.083.376-.322.733-.61 1.02 0 0-5.391 4.776-7.413 4.776-1.611 0-6.457-.73-8.088-1.078v1.202s6.066 1.348 8.088 1.348c2.022 0 8.088-4.9 8.088-4.9.492-.492.864-1.193.492-1.84z" fill="#FFCDBE"/>
  <path d="M6.348 19.425v.654H5v-7.395h1.348v6.741z" fill="#E6E9ED"/>
  <g fill="#656D78">
    <path d="M5 20.079v.694H.836V12.01h4.166v8.068zM20.279 4.575H8.146v1.798H20.28V4.575z"/>
  </g>
  <path d="M20.278 4.575H18.93v1.798h1.348V4.575z" fill="#434A54"/>
  <path d="M23.306 13.866a1.687 1.687 0 00-2.291-.623 77.36 77.36 0 01-3.547 1.635.337.337 0 00.261.621c1.611-.678 3.574-1.646 3.593-1.656a1.013 1.013 0 011.4.36c.323.558-.18 1.171-.427 1.421-1.674 1.35-6.304 4.811-7.86 4.811-1.725 0-6.565-1.025-7.749-1.282v-5.505c2.347-.345 3.59.088 6.196.996.793.276 1.691.59 2.783.938.162.071.614.325.442.9-.105.349-.442.682-.936.59-.663-.125-4.567-.654-4.733-.677a.337.337 0 10-.09.668c.04.006 4.052.55 4.7.671.1.019.197.028.291.028.716 0 1.242-.514 1.414-1.087.18-.603-.008-1.367-.833-1.717a.057.057 0 01-.004-.001l-.003-.002-.014-.005-.013-.005c-1.09-.348-1.989-.661-2.782-.937-2.598-.906-3.968-1.382-6.418-1.04v-.282a.337.337 0 00-.337-.337H5.34v-.337a.337.337 0 00-.337-.337H.837a.337.337 0 00-.337.337v7.412a.337.337 0 10.674 0v-7.075h3.49v8.086h-.673v-.337a.337.337 0 10-.674 0v.337H.837a.337.337 0 100 .674h4.165c.186 0 .337-.15.337-.337v-.354h1.01c.186 0 .337-.15.337-.337v-.238c1.41.305 6 1.266 7.75 1.266.92 0 2.553-.82 4.992-2.508 1.758-1.218 3.289-2.451 3.304-2.464a.358.358 0 00.027-.024c.732-.733.937-1.573.547-2.247zM5.339 19.744v-6.72h.673v6.72H5.34zM9.046 11.204h10.335c.681 0 1.235-.555 1.235-1.236V4.127c0-.682-.554-1.236-1.235-1.236H9.046c-.681 0-1.235.554-1.235 1.236v5.841c0 .681.554 1.236 1.235 1.236zm10.896-5.167H8.485V4.913h11.457v1.124zm-.561 4.493H9.046a.562.562 0 01-.561-.562V6.711h11.457v3.257c0 .31-.252.562-.561.562zM9.046 3.565h10.335c.31 0 .561.252.561.562v.112H8.485v-.112c0-.31.251-.562.561-.562z" fill="#000"/>
  <path d="M12.642 8.283H9.496a.337.337 0 100 .674h3.146a.337.337 0 100-.674zM18.932 8.283h-.899a.337.337 0 100 .674h.899a.337.337 0 100-.674z" fill="#000"/>
</svg>
