<svg width="24" height="24" fill="none" xmlns="http://www.w3.org/2000/svg">
  <defs/>
  <path d="M19.002 17.248H5.376v-4.974a6.813 6.813 0 1113.626 0v4.974z" fill="#FFF9F0"/>
  <path d="M12.189 5.461c-.23 0-.456.012-.68.034a6.814 6.814 0 016.135 6.779v4.974h1.358v-4.974a6.813 6.813 0 00-6.813-6.813z" fill="#FAE8DB"/>
  <path d="M5.376 14.379h13.626v2.869H5.376v-2.869z" fill="#FBC56D"/>
  <path d="M17.644 14.379h1.358v2.869h-1.358v-2.869z" fill="#E9B665"/>
  <path d="M21.566 18.539H2.435A1.595 1.595 0 01.84 16.944c0-.446.361-.807.806-.807h20.708c.446 0 .807.361.807.807 0 .88-.714 1.595-1.595 1.595z" fill="#FFF9F0"/>
  <path d="M22.354 16.137h-1.358c.445 0 .806.361.806.807 0 .88-.714 1.595-1.595 1.595h1.358c.881 0 1.595-.714 1.595-1.595a.807.807 0 00-.806-.807z" fill="#FAE8DB"/>
  <path d="M22.354 15.798h-3.013v-3.524c0-3.944-3.209-7.152-7.152-7.152-3.944 0-7.153 3.208-7.153 7.152v3.524h-3.39c-.632 0-1.146.514-1.146 1.146 0 1.066.868 1.934 1.935 1.934h9.84a.34.34 0 100-.679h-9.84a1.257 1.257 0 01-1.256-1.255c0-.258.21-.467.467-.467h20.708c.258 0 .467.21.467.467 0 .692-.563 1.255-1.256 1.255h-7.931a.34.34 0 000 .68h7.931a1.937 1.937 0 001.935-1.935c0-.632-.514-1.146-1.146-1.146zm-16.639-1.08h4.437a.34.34 0 100-.678H5.715v-1.766a6.48 6.48 0 016.474-6.473 6.48 6.48 0 016.473 6.473v1.766H11.51a.34.34 0 000 .679h7.152v1.079H5.715v-1.08z" fill="#000"/>
</svg>
