<svg width="24" height="24" fill="none" xmlns="http://www.w3.org/2000/svg">
  <defs/>
  <path d="M21.284.904H2.704v22.192h18.58V.904z" fill="#CFDCE5"/>
  <path d="M19.185 3.003H4.803v17.994h14.382V3.003z" fill="#fff"/>
  <path d="M16.434 10.063h-2.503V7.56h-3.875v2.503H7.554v3.874h2.502v2.503h3.875v-2.503h2.503v-3.874z" fill="#FF6F52"/>
  <path d="M21.29.5H2.71a.404.404 0 00-.404.404v22.192c0 .223.18.404.403.404h4.564a.404.404 0 100-.807h-4.16v-3.63h1.292v1.934c0 .223.18.404.403.404h14.383c.223 0 .404-.18.404-.404V12.48h.428a.404.404 0 100-.807h-.428v-4.87a.404.404 0 10-.807 0v4.87h-.404a.404.404 0 100 .807h.404v8.115H5.212V3.406h13.576v2.13a.404.404 0 10.807 0V3.003a.404.404 0 00-.404-.404H4.808a.404.404 0 00-.403.404v1.933H3.113V1.307h17.774v21.386H8.618a.404.404 0 100 .807H21.29c.223 0 .404-.18.404-.404V.904A.404.404 0 0021.29.5zM4.405 15.431H3.113V8.569h1.292v6.862zm-1.292 2.826v-2.019h1.292v2.019H3.113zM4.405 5.743v2.019H3.113V5.743h1.292z" fill="#000"/>
  <path d="M10.063 16.844h3.875c.223 0 .403-.18.403-.404v-2.099h2.1c.222 0 .403-.18.403-.403v-3.875a.404.404 0 00-.404-.404h-2.099v-2.1a.404.404 0 00-.403-.403h-1.749a.404.404 0 100 .808h1.345v2.099c0 .223.18.403.404.403h2.099v3.068h-2.1a.404.404 0 00-.403.404v2.099h-3.068v-2.1a.404.404 0 00-.403-.403h-2.1v-3.068h2.1c.223 0 .403-.18.403-.403v-2.1h.485a.404.404 0 100-.807h-.888a.404.404 0 00-.404.404v2.099h-2.1a.404.404 0 00-.403.404v3.875c0 .223.18.403.404.403h2.099v2.1c0 .222.18.403.404.403z" fill="#000"/>
</svg>
