<svg width="24" height="24" fill="none" xmlns="http://www.w3.org/2000/svg">
  <defs/>
  <path d="M20.473 4.325V18.04H7.27V1.224h10.103l3.101 3.101z" fill="#EEEBEE"/>
  <path d="M20.473 4.325h-3.1v-3.1" fill="#D3CED5"/>
  <path d="M16.546 4.39h-1.632V2.757h-2.086V4.39h-1.633v2.086h1.633v1.632h2.086V6.476h1.632V4.39z" fill="#DA4A54"/>
  <path d="M22.616 16.459l-5.864 4.703c-.482.387-1.1.563-1.714.488l-7.902-.962-2.106.779c-1.13-1.163-.666-4.906-.666-4.906l.502-.138a1.902 1.902 0 011.062-1.831l3.39-1.655 1.742-.851a1.656 1.656 0 011.578 2.909L9.82 16.682l4.74.825c.571.1 1.158-.02 1.644-.336l4.715-3.06a1.45 1.45 0 011.697 2.347z" fill="#F1D0A5"/>
  <path d="M15.025 20.386c-3.246.422-5.484-1.482-6.838-3.273a1.909 1.909 0 01.492-2.759c3.27-2.095 4.115-2.018 4.563-1.57a1.657 1.657 0 00-2.182-.698l-1.743.85-2.747 1.342-.642.314a1.9 1.9 0 00-1.062 1.832l-.502.137s-.465 3.743.666 4.906l2.106-.779 7.902.962a2.296 2.296 0 001.714-.488l5.863-4.703c-2.026-.55-5.403 3.593-7.59 3.927z" fill="#F1B986"/>
  <path d="M3.663 16.09a6.832 6.832 0 00-2.822.997 55.33 55.33 0 002.01 5.689 6.83 6.83 0 002.822-.998 55.326 55.326 0 00-2.01-5.688z" fill="#80A6C6"/>
  <path d="M5.673 21.778a6.822 6.822 0 01-2.822.998 55.865 55.865 0 01-.582-1.46 7.261 7.261 0 002.944-1.03c.16.495.314.992.46 1.492z" fill="#5B8EB8"/>
  <path d="M14.914 2.417h-2.086a.34.34 0 00-.341.34V4.05h-1.292a.34.34 0 00-.34.34v2.087c0 .188.152.34.34.34h1.292v1.292c0 .188.153.341.34.341h2.087a.34.34 0 00.34-.34V6.816h1.292a.34.34 0 00.341-.341V4.39a.34.34 0 00-.34-.341h-1.292V2.757a.341.341 0 00-.341-.34zm1.291 2.314v1.404h-1.291a.34.34 0 00-.341.34v1.292h-1.404V6.476a.341.341 0 00-.341-.341h-1.292V4.73h1.292a.34.34 0 00.34-.341V3.098h1.405V4.39c0 .188.152.34.34.34h1.292z" fill="#000"/>
  <path d="M23.436 14.852a1.791 1.791 0 00-.312-.621 1.802 1.802 0 00-2.31-.455v-9.45a.34.34 0 00-.1-.242l-3.1-3.1a.34.34 0 00-.242-.1H7.268a.34.34 0 00-.34.34V5.57a.34.34 0 00.681 0V1.565h9.422v2.76c0 .189.153.341.341.341h2.76v9.55l-4.113 2.67c-.415.27-.912.371-1.4.286l-3.837-.668 2.03-1.217a1.993 1.993 0 00.648-2.802h5.081a.34.34 0 000-.682h-5.827a1.988 1.988 0 00-1.804-.024l-.048.024H9.2a.34.34 0 000 .682h.266l-1.857.907v-6.46a.34.34 0 00-.682 0v6.793l-1.147.56a2.24 2.24 0 00-1.255 1.879l-.416.115a51.139 51.139 0 00-.131-.32.341.341 0 00-.357-.208 7.2 7.2 0 00-2.96 1.046.341.341 0 00-.147.386 55.93 55.93 0 002.022 5.723.34.34 0 00.356.208 7.2 7.2 0 002.961-1.047.34.34 0 00.147-.385l-.056-.19 1.233-.456 7.82.952a2.62 2.62 0 001.291-.167.34.34 0 10-.251-.633c-.303.12-.634.162-.958.123l-7.902-.962a.338.338 0 00-.16.019l-1.272.47a56.04 56.04 0 00-1.38-3.922l.592-.164a.34.34 0 00.249-.351 1.559 1.559 0 01.872-1.503l5.131-2.506a1.315 1.315 0 011.253 2.31L9.645 16.39a.34.34 0 00.117.628l4.74.826a2.631 2.631 0 001.888-.386l4.715-3.06a1.102 1.102 0 011.48.25 1.109 1.109 0 01-.173 1.537l-.01.008-5.331 4.276a.341.341 0 00.426.532l5.32-4.268.012-.008a1.792 1.792 0 00.607-1.873zm-20.37 7.549a55.28 55.28 0 01-1.823-5.157 6.507 6.507 0 012.206-.78 55.277 55.277 0 011.822 5.158 6.507 6.507 0 01-2.206.779zM17.712 2.047l1.937 1.937h-1.937V2.047z" fill="#000"/>
  <path d="M11.397 14.905a.87.87 0 00.41-.103l.422-.226a.34.34 0 10-.32-.601l-.423.225a.184.184 0 01-.238-.057 2.684 2.684 0 01-.373-.862.34.34 0 00-.67.13c.005.022.112.567.477 1.111a.859.859 0 00.715.383zM3.816 21.494a.344.344 0 00.332-.266c.07-.3-.282-.527-.53-.352a.344.344 0 00-.12.4c.05.13.178.218.318.218zM8.86 9.65c0 .188.152.34.34.34h9.341a.34.34 0 100-.68h-9.34a.34.34 0 00-.342.34zM17.182 10.556a.341.341 0 000 .682h1.359a.34.34 0 100-.682h-1.36zM9.2 10.556a.34.34 0 000 .682h6.619a.34.34 0 000-.682H9.2z" fill="#000"/>
</svg>
