<svg width="24" height="24" fill="none" xmlns="http://www.w3.org/2000/svg">
  <defs/>
  <path d="M22.277 4.486H1.712V21.48h20.565V4.486z" fill="#FF6F52"/>
  <path d="M22.277 19.822H1.712v1.658h20.565v-1.658z" fill="#CFDCE5"/>
  <path d="M22.277 4.486H1.712v1.21h20.565v-1.21z" fill="#E25749"/>
  <path d="M23.106 2.52H.883v1.966h22.223V2.52z" fill="#CFDCE5"/>
  <path d="M11.994 8.055a4.351 4.351 0 00-4.351 4.352v7.415h8.702v-7.415a4.351 4.351 0 00-4.351-4.352z" fill="#415E72"/>
  <path d="M14.49 18.98l-1.02-1.436-1.476 1.047-1.476-1.047L9.5 18.98l.973.691.213.151h3.044l-.213-.15.974-.692z" fill="#EAC36E"/>
  <path d="M11.533 10.264c0 2.928-2.071 2.432-2.026 4.414.02.879.605 1.463 1.368 1.733.218.077.416-.156.309-.36-.315-.601-.523-1.578.71-2.41.055 1.128.99 1.307.99 2.117 0 .103-.006.195-.018.278-.027.2.18.35.363.264.641-.305 1.135-.856 1.231-1.667.316-2.657-2.927-4.369-2.927-4.369z" fill="#FCD577"/>
  <path d="M23.111 2.132H6.587a.389.389 0 000 .777h16.136v1.188H1.277V2.91h4.015a.389.389 0 000-.777H.889A.389.389 0 00.5 2.52v1.966c0 .214.174.388.389.388h.44V21.48c0 .214.174.388.388.388h20.566a.389.389 0 00.388-.388V4.874h.44a.388.388 0 00.389-.388V2.52a.389.389 0 00-.389-.388zm-1.217 17.302H20.47a.388.388 0 100 .777h1.424v.88H2.106v-.88h17.069a.388.388 0 100-.777H16.74v-7.027A4.745 4.745 0 0012 7.667a4.745 4.745 0 00-4.74 4.74v1.562a.389.389 0 10.777 0v-1.562A3.967 3.967 0 0112 8.444a3.967 3.967 0 013.963 3.963v7.027h-1.435l.192-.137a.388.388 0 00.092-.541l-1.02-1.437a.388.388 0 00-.541-.092l-1.25.888-1.252-.888a.388.388 0 00-.542.092l-1.02 1.437a.388.388 0 00.093.541l.192.137H8.037v-4.17a.389.389 0 10-.777 0v4.17H2.106V4.874h4.87v1.04h-3.86a.389.389 0 000 .776h2.046v.881h-.958a.389.389 0 000 .777h3.211a.389.389 0 000-.777H5.94v-.88H8.84v.44a.389.389 0 00.777 0v-.44h1.062a.389.389 0 100-.778H7.752V4.874h14.142v14.56zm-11.848-.546l.57-.802 1.9 1.348h-1.701l-.769-.546zm3.476.307l-.85-.604.712-.506.57.803-.432.307z" fill="#000"/>
  <path d="M17.465 12.285h2.305v.88h-.958a.388.388 0 100 .778h2.175a.388.388 0 100-.777h-.44v-.881h.751a.388.388 0 100-.777h-2.823v-.7a.389.389 0 00-.777 0v.7h-.233a.388.388 0 100 .777zM6.354 16.067H3.945a.389.389 0 000 .777h.466v.647a.389.389 0 00.777 0v-.648h1.166a.389.389 0 100-.776zM10.751 16.777a.642.642 0 00.783-.907c-.301-.575-.261-1.074.125-1.515.134.33.334.567.508.772.22.26.334.406.334.632 0 .08-.005.156-.014.225a.644.644 0 00.914.667c.832-.395 1.347-1.095 1.45-1.973.1-.83-.101-1.652-.595-2.442a.389.389 0 10-.659.412c.398.636.56 1.289.483 1.939a1.648 1.648 0 01-.803 1.248l.001-.076c0-.52-.275-.846-.518-1.134-.241-.285-.45-.532-.473-1.002a.39.39 0 00-.605-.303c-1 .674-1.346 1.604-.98 2.588-.375-.201-.786-.573-.801-1.24-.017-.725.297-1.019.732-1.426.497-.464 1.098-1.027 1.255-2.302.275.19.623.457.96.789a.388.388 0 10.545-.553A7.909 7.909 0 0011.72 9.92a.389.389 0 00-.57.344c0 1.43-.509 1.906-1.048 2.41-.47.44-1.003.938-.978 2.012.021.956.63 1.737 1.627 2.09z" fill="#000"/>
</svg>
