<svg width="24" height="24" fill="none" xmlns="http://www.w3.org/2000/svg">
  <defs/>
  <g fill-rule="evenodd" clip-rule="evenodd">
    <path d="M14.15 16.726l-.726-.558-.812.558v1.85l.812.38.726-.38v-1.85zM16.348 16.726v1.85l.81.592.727-.592v-1.85l-.746-.507-.791.507z" fill="#9B9B9B"/>
    <path d="M13.424 16.726v1.85h.726v-1.85h-.726zM17.158 16.726v1.85h.727v-1.85h-.727z" fill="#838383"/>
    <path d="M18.082 18.576h-7.929l-.54-.644c-.653-.778-1.734.23-1.13.95l.737.878a.846.846 0 00.614.292h11.634a.843.843 0 00.613-.292l.737-.879c.603-.719-.478-1.727-1.13-.949l-.54.644h-3.066z" fill="#ECECEC"/>
    <path d="M12.708 6.205v1.997l.777.53.828-.53V6.205L13.51 5.5l-.802.704z" fill="#9B9B9B"/>
    <path d="M15.336 8.21h-4.498c-.554.006-.82.144-1.154.523l-.808.91 4.178 1.044 4.048-1.043c0-.906-.665-1.43-1.766-1.433z" fill="#ECECEC"/>
    <path d="M22.01 14.191c-.122-1.036-.6-2.196-1.34-3.085-.712-.857-1.668-1.462-2.782-1.462H8.876l-.243.275c-.38.427-.417.51-.859.51H4.165L2.23 7.595c-.11-.16-.353-.154-.496-.024l-.8.725c-.143.131-.078.311-.024.497l.723 2.313-.693 1.658a.515.515 0 00.305.668l.55.207c.235.088.417.083.682-.114l1.435-1.068h3.026c.835.012 1.054.153 1.407 1.04l.619 1.549c.484 1.213 1.584 1.68 2.51 1.68h8.922c1.314 0 1.779-1.157 1.615-2.535z" fill="#03BED7"/>
    <path d="M11.92 11.106a.36.36 0 00-.36.36v2.366c0 .197.162.36.36.36h2.792c.197 0 .359-.163.359-.36v-2.367a.36.36 0 00-.36-.36H11.92zM20.67 11.106h-3.164c-.316 0-.575.285-.575.633v1.818c0 .35.258.634.575.634h4.504c-.122-1.036-.6-2.196-1.34-3.085z" fill="#A6E7F0"/>
    <path d="M22.468 4.799h-7.309v1.406h7.309a.704.704 0 000-1.406zM11.863 4.799H4.554a.704.704 0 000 1.406h7.309V4.799z" fill="#9B9B9B"/>
    <path d="M12.441 3.93a.58.58 0 00-.579.579v1.696h3.297V4.509a.58.58 0 00-.579-.579h-2.139z" fill="#ECECEC"/>
    <path d="M20.67 11.106c-.712-.857-1.668-1.462-2.782-1.462h-2.016c.279 0 .549.038.807.108.772.212 1.441.712 1.974 1.354h2.017z" fill="#0099B1"/>
    <path d="M20.67 11.106h-2.017c.74.889 1.218 2.05 1.34 3.085h2.018c-.123-1.036-.601-2.196-1.341-3.085z" fill="#6BD9E7"/>
    <path d="M22.01 14.191h-2.017c.164 1.376-.299 2.531-1.607 2.535H20.395c1.313 0 1.779-1.157 1.615-2.534z" fill="#0099B1"/>
    <path d="M15.336 8.21h-1.688c.182.017.35.05.503.097.633.195.994.656.994 1.325h.786c.09 0 .178.004.266.012h.905c0-.906-.665-1.43-1.766-1.433z" fill="#CECECE"/>
    <path d="M13.913 11.465v2.367a.36.36 0 01-.36.36h1.158c.197 0 .36-.163.36-.36v-2.367a.36.36 0 00-.36-.36h-1.157a.36.36 0 01.359.36z" fill="#6BD9E7"/>
    <path d="M21.148 18.576h-1.32c-.012.632-.736 1.485-1.46 1.476h3.099a.843.843 0 00.614-.292l.737-.879c.603-.719-.478-1.727-1.13-.949l-.54.644z" fill="#CECECE"/>
    <path d="M22.468 4.799H20.12a.704.704 0 010 1.406h2.348a.704.704 0 000-1.406z" fill="#838383"/>
    <path d="M14.58 3.93h-1.26a.58.58 0 01.579.578v1.697h1.26V4.508a.58.58 0 00-.578-.578z" fill="#CECECE"/>
  </g>
  <path d="M14.712 14.53a.7.7 0 00.698-.698v-2.367a.7.7 0 00-.698-.699h-2.793a.7.7 0 00-.698.7v2.366a.7.7 0 00.698.699h2.793zm-2.812-.698v-2.367c0-.01.009-.02.02-.02h2.792c.008 0 .02.01.02.02v2.367c0 .01-.011.02-.02.02h-2.793c-.01 0-.019-.01-.019-.02z" fill="#000"/>
  <path d="M22.916 17.58c-.402-.338-1.045-.397-1.497.142l-.439.523h-2.755v-1.17h2.161c.65 0 1.178-.25 1.527-.721.3-.407.46-.975.46-1.641 0-.156-.01-.315-.026-.478a.337.337 0 00-.02-.167 6.587 6.587 0 00-1.348-3.102.34.34 0 00-.117-.14c-.84-.98-1.886-1.513-2.983-1.513h-.475c-.152-.89-.918-1.43-2.076-1.433h-.684V6.552h7.815a1.043 1.043 0 000-2.084h-6.971a.919.919 0 00-.917-.869h-2.139c-.49 0-.89.386-.916.87H4.545a1.043 1.043 0 000 2.083H12.36V7.88h-1.535c-.626.006-.994.172-1.405.635L8.37 9.702l-.084.095c-.265.301-.265.301-.52.301h-3.43L2.5 7.413a.615.615 0 00-.444-.265.718.718 0 00-.56.18l-.801.726c-.289.263-.188.613-.134.8l.011.04.003.01.686 2.193-.646 1.545a.852.852 0 00.5 1.117l.55.205c.368.139.669.092 1.004-.158l1.345-1h2.91c.683.009.789.056 1.096.825l.617 1.55c.558 1.396 1.826 1.893 2.827 1.893h.808v1.17h-1.97l-.439-.523c-.452-.538-1.096-.479-1.498-.141-.408.343-.6.995-.153 1.529l.738.88c.214.253.55.411.874.411h5.393a.34.34 0 100-.679H9.825a.508.508 0 01-.354-.17l-.738-.88c-.2-.237-.05-.47.07-.571.087-.073.313-.213.54.058l.54.644a.34.34 0 00.26.122H21.14a.34.34 0 00.26-.121l.54-.645c.228-.27.454-.131.54-.058.12.1.27.334.07.572l-.738.88a.502.502 0 01-.353.17h-4.732a.34.34 0 000 .678h4.732c.321 0 .664-.162.874-.413l.737-.878c.448-.534.256-1.187-.153-1.53zm-5.37.656h-.859v-1.162h.858v1.162zm4.055-4.384h-4.095c-.128 0-.236-.135-.236-.295v-1.818c0-.16.108-.294.236-.294h2.99a5.96 5.96 0 011.105 2.407zm1.22-8.342c0 .2-.163.363-.362.363H15.49v-.726h6.969c.2 0 .362.163.362.363zm-18.638 0c0-.2.162-.363.362-.363h6.969v.726h-6.97a.363.363 0 01-.361-.363zm8.01-.993a.24.24 0 01.24-.238h2.138a.24.24 0 01.24.238v1.356h-2.618V4.517zm.846 2.035h.926V7.88h-.926V6.552zm-3.77 8.377l-.617-1.55c-.397-.993-.734-1.24-1.72-1.253h-3.03a.34.34 0 00-.203.067l-1.435 1.068c-.173.13-.236.114-.36.067l-.55-.206c-.12-.044-.13-.16-.107-.227l.69-1.65a.34.34 0 00.01-.233l-.721-2.308-.011-.037c-.012-.041-.029-.099-.035-.135l.773-.701a.027.027 0 01.008-.005l1.915 2.804a.34.34 0 00.28.147h3.61c.534 0 .682-.136 1.03-.531l.082-.094.142-.16h2.712a.34.34 0 000-.68h-2.11l.306-.346c.268-.302.436-.403.9-.407h4.5c.46.001 1.191.11 1.38.754h-3.452a.34.34 0 100 .68h4.623c.747 0 1.412.301 1.97.773h-2.344c-.504 0-.914.437-.914.973v1.818c0 .537.41.974.914.974h4.184c.003.061.004.122.004.182 0 .52-.113.947-.327 1.237-.221.3-.542.445-.98.445H17.96a.343.343 0 00-.076-.009h-1.537a.342.342 0 00-.077.009h-2.045a.344.344 0 00-.076-.009h-1.538a.343.343 0 00-.076.009h-1.071c-.779 0-1.764-.385-2.196-1.466zm4.541 2.145v1.162h-.858v-1.162h.858zm.68 0h1.518v1.17H14.49v-1.17z" fill="#000"/>
</svg>
