<svg width="24" height="24" fill="none" xmlns="http://www.w3.org/2000/svg">
  <defs/>
  <path d="M15.624 2.198a6.68 6.68 0 100 13.361 6.68 6.68 0 000-13.361zm0 9.265a2.584 2.584 0 110-5.168 2.584 2.584 0 010 5.168z" fill="#EEEBEE"/>
  <path d="M16.137 11.412a2.584 2.584 0 100-5.066 2.585 2.585 0 010 5.066zM9.967 8.879c0-3.517 2.718-6.4 6.169-6.662a6.68 6.68 0 100 13.323A6.68 6.68 0 019.967 8.88z" fill="#D3CED5"/>
  <path d="M18.208 8.879a2.584 2.584 0 01-2.584 2.584v4.097a6.68 6.68 0 006.68-6.681h-4.096zm-2.584-6.68a6.68 6.68 0 00-6.68 6.68h4.096a2.584 2.584 0 012.584-2.584V2.198z" fill="#DA4A54"/>
  <path d="M16.205 11.396a2.569 2.569 0 01-.037.009l-.032.007a2.584 2.584 0 003.096-2.533h-1.024a2.585 2.585 0 01-2.003 2.517zM8.943 8.879h1.024a6.682 6.682 0 015.657-6.603v-.078a6.68 6.68 0 00-6.68 6.68z" fill="#D82E3D"/>
  <path d="M22.616 15.486l-5.864 4.703c-.482.386-1.1.562-1.714.487l-7.902-.961-2.106.779c-1.13-1.164-.666-4.907-.666-4.907l.502-.137a1.901 1.901 0 011.062-1.832l3.39-1.655 1.742-.85a1.656 1.656 0 011.578 2.909L9.82 15.708l4.74.826c.571.1 1.158-.02 1.644-.337l4.715-3.06a1.45 1.45 0 011.697 2.348z" fill="#F1D0A5"/>
  <path d="M15.025 19.413c-3.246.422-5.484-1.482-6.838-3.273a1.909 1.909 0 01.492-2.759c3.27-2.095 4.115-2.018 4.563-1.57a1.657 1.657 0 00-2.182-.699l-1.743.852-2.747 1.34v.002l-.642.313a1.9 1.9 0 00-1.062 1.831l-.502.138s-.465 3.742.666 4.906l2.106-.78 7.902.963a2.295 2.295 0 001.714-.488l5.864-4.703c-2.027-.55-5.404 3.593-7.59 3.927z" fill="#F1B986"/>
  <path d="M3.663 15.116a6.832 6.832 0 00-2.822.997 55.32 55.32 0 002.01 5.69 6.832 6.832 0 002.822-.998 55.328 55.328 0 00-2.01-5.689z" fill="#80A6C6"/>
  <path d="M5.673 20.805a6.82 6.82 0 01-2.822.997 55.858 55.858 0 01-.582-1.46 7.263 7.263 0 002.944-1.03c.16.495.314.993.46 1.493z" fill="#5B8EB8"/>
  <path d="M23.436 13.88a1.79 1.79 0 00-1.837-1.31 7.01 7.01 0 001.047-3.691 7.03 7.03 0 00-7.022-7.022c-1.879 0-3.645.733-4.972 2.064a.34.34 0 10.483.481 6.292 6.292 0 014.148-1.854v3.426a2.93 2.93 0 00-2.563 2.564H9.295a6.304 6.304 0 011.024-3.131.34.34 0 00-.57-.374 6.99 6.99 0 00-1.146 3.843v.005c0 .967.192 1.898.57 2.773L5.78 13.312a2.24 2.24 0 00-1.255 1.879l-.416.115a57.409 57.409 0 00-.131-.32.341.341 0 00-.357-.208 7.2 7.2 0 00-2.96 1.046.34.34 0 00-.147.385 55.934 55.934 0 002.022 5.724.341.341 0 00.356.207 7.201 7.201 0 002.961-1.046A.34.34 0 006 20.71l-.056-.19 1.233-.456 7.82.952a2.65 2.65 0 001.969-.56l5.852-4.695.011-.009a1.791 1.791 0 00.607-1.872zm-1.48-5.342h-3.427a2.93 2.93 0 00-2.564-2.563V2.548a6.349 6.349 0 015.99 5.99zm-6.332-1.902a2.246 2.246 0 012.243 2.243 2.246 2.246 0 01-2.243 2.243 2.246 2.246 0 01-2.243-2.243 2.246 2.246 0 012.243-2.243zm-3.7 8.21a6.99 6.99 0 003.698 1.054h.005c.144 0 .288-.004.432-.013l-.04.026c-.415.269-.913.37-1.4.286l-3.837-.668 1.141-.685zM9.293 9.22h3.426a2.93 2.93 0 002.563 2.563v3.426a6.301 6.301 0 01-2.692-.763l.222-.133a1.993 1.993 0 00.728-2.665 1.988 1.988 0 00-2.631-.842l-1.123.549a6.252 6.252 0 01-.493-2.135zM3.065 21.428a55.29 55.29 0 01-1.822-5.158 6.508 6.508 0 012.206-.78 55.3 55.3 0 011.822 5.158 6.508 6.508 0 01-2.206.78zm19.347-6.216a.181.181 0 00-.01.008l-5.863 4.703c-.408.327-.94.478-1.46.415l-7.902-.962a.342.342 0 00-.16.019l-1.272.47a56.068 56.068 0 00-1.38-3.923l.592-.164a.34.34 0 00.249-.35 1.559 1.559 0 01.872-1.503l5.131-2.506a1.31 1.31 0 011.733.554 1.312 1.312 0 01-.48 1.756l-2.817 1.688a.34.34 0 00.117.628l4.74.826a2.631 2.631 0 001.888-.386l2.546-1.653a.341.341 0 00-.372-.572l-1.019.662a6.315 6.315 0 01-1.58.287v-3.426A2.93 2.93 0 0018.53 9.22h3.426a6.324 6.324 0 01-1.596 3.875l-.655.425a.34.34 0 10.371.572l1.03-.668a1.102 1.102 0 011.48.251 1.109 1.109 0 01-.173 1.537z" fill="#000"/>
  <path d="M10.682 13.549a.86.86 0 001.125.28l.422-.226a.34.34 0 10-.32-.602l-.423.226a.184.184 0 01-.238-.057 2.686 2.686 0 01-.373-.862.34.34 0 00-.67.13c.005.022.112.567.477 1.11zM3.816 20.521a.344.344 0 00.332-.266c.07-.3-.282-.528-.53-.352a.343.343 0 00-.12.4c.05.13.178.218.318.218z" fill="#000"/>
</svg>
