<svg width="24" height="24" fill="none" xmlns="http://www.w3.org/2000/svg">
  <defs/>
  <path d="M13.468 2.604h2.104v-1.37h-3.205v1.737h.734c0-.202.165-.367.367-.367zM14.936 16.73h-2.569v4.568h2.57v-4.567zM11.633 16.73h-2.57v4.568h2.57v-4.567z" fill="#6DA8D6"/>
  <path d="M14.936 22.032H9.063v.734h5.873v-.734zM5.883 21.665v-6.729H1.234v7.83H6.25v-.734a.367.367 0 01-.367-.367zM3.03 17.832a.367.367 0 01-.734 0v-1.469a.367.367 0 01.734 0v1.469zm1.794 0a.367.367 0 01-.734 0v-1.469a.367.367 0 01.734 0v1.469zM22.766 22.766v-7.83h-4.649v6.729a.367.367 0 01-.367.367v.734h5.016zm-1.794-6.402a.367.367 0 11.734 0v1.468a.367.367 0 01-.734 0v-1.469zm-1.795 0a.367.367 0 11.734 0v1.468a.367.367 0 01-.734 0v-1.469z" fill="#FFCC75"/>
  <path d="M17.75 22.032a.367.367 0 01-.367-.367V9.994h-2.57a.367.367 0 01-.366-.367h-.734a.367.367 0 01-.367.367H6.617v11.671a.367.367 0 01-.367.367v.734h2.08v-6.402c0-.203.164-.367.367-.367h6.606c.203 0 .367.164.367.367v6.402h2.08v-.734zM12 14.773a1.78 1.78 0 01-1.778-1.778c0-.98.798-1.778 1.778-1.778s1.778.798 1.778 1.778A1.78 1.78 0 0112 14.773z" fill="#F2EBD9"/>
  <path d="M12 11.951a1.045 1.045 0 000 2.088c.576 0 1.044-.468 1.044-1.044 0-.576-.468-1.044-1.044-1.044z" fill="#98D9D5"/>
  <path d="M5.883 12.979H1.234v1.223h4.65V12.98zM22.766 12.979h-4.649v1.223h4.65V12.98zM14.446 9.627c0-.203.165-.367.367-.367h1.882L12 5.544 7.305 9.26h6.04c.203 0 .367.164.367.367h.734z" fill="#F2484B"/>
  <path d="M23.133 12.245h-5.016V9.627c0-.014 0-.027-.002-.04l-.002-.01a.412.412 0 00-.005-.03c0-.004-.002-.007-.003-.01a.364.364 0 00-.04-.099l-.007-.01a.392.392 0 00-.016-.023l-.007-.01a.365.365 0 00-.026-.028l-.003-.003a.37.37 0 00-.026-.023l-.002-.002-5.611-4.441V1.234h3.205v1.37h-2.104a.367.367 0 000 .734h2.471a.367.367 0 00.367-.367V.867A.367.367 0 0015.94.5H12a.367.367 0 00-.367.367v4.03L6.023 9.34c-.002 0-.002.001-.003.002a.372.372 0 00-.026.023l-.003.003a.37.37 0 00-.026.029l-.007.009a.377.377 0 00-.016.022l-.006.011a.375.375 0 00-.03.06c0 .004-.002.007-.003.011a.355.355 0 00-.008.027l-.003.011a.365.365 0 00-.005.03l-.002.01a.373.373 0 00-.002.04v2.618H.867a.367.367 0 00-.367.367v10.521c0 .203.164.367.367.367h22.266a.367.367 0 00.367-.367V12.612a.367.367 0 00-.367-.367zM9.063 22.766v-.734h5.873v.734H9.064zm5.873-6.035v4.567h-2.569V16.73h2.57zm-3.303 4.567h-2.57V16.73h2.57v4.567zm4.037-4.934a.367.367 0 00-.367-.368H8.697a.367.367 0 00-.367.367v6.403H1.234v-7.83h4.649v6.729a.367.367 0 00.734 0V9.994h6.729a.367.367 0 000-.734h-6.04L12 5.544l4.695 3.716h-1.881a.367.367 0 000 .734h2.569v11.67a.367.367 0 10.734 0v-6.728h4.649v7.83H15.67v-6.402zm7.096-2.162h-4.649V12.98h4.649v1.223zm-16.883 0H1.234V12.98h4.649v1.223z" fill="#082947"/>
  <path d="M2.661 15.996a.367.367 0 00-.367.367v1.469a.367.367 0 00.734 0v-1.469a.367.367 0 00-.367-.367zM4.456 15.996a.367.367 0 00-.367.367v1.469a.367.367 0 00.734 0v-1.469a.367.367 0 00-.367-.367zM21.339 18.199a.367.367 0 00.367-.367v-1.469a.367.367 0 10-.734 0v1.469c0 .202.164.367.367.367zM19.545 18.199a.367.367 0 00.367-.367v-1.469a.367.367 0 00-.734 0v1.469c0 .202.164.367.367.367zM12 11.217a1.78 1.78 0 00-1.778 1.778c0 .98.797 1.778 1.778 1.778a1.78 1.78 0 001.778-1.778A1.78 1.78 0 0012 11.217zm0 2.822a1.045 1.045 0 010-2.088 1.045 1.045 0 010 2.088z" fill="#082947"/>
</svg>
