<svg width="24" height="24" fill="none" xmlns="http://www.w3.org/2000/svg">
  <defs/>
  <path d="M1.19 9.694s.2.457.692 3.434c.498 3.008.24 7.045.24 7.045h1.501s-.933-7.195-.087-9.855" fill="#DEECF1"/>
  <path d="M1.19 9.694S-.47 5.47 3.449 3.827c0 0 5.88 6.325 7.882 9.699 2.003 3.374 4.562 4.056 6.946 2.465l4.663 3.075a.493.493 0 01-.275.902h-9.347a2.164 2.164 0 01-1.837-1.02C9.78 16.22 4.897 9.01 1.19 9.694z" fill="#3E5959"/>
  <path d="M9.967 13.526c1.512 2.547 3.34 3.56 5.172 3.218-1.36-.259-2.673-1.306-3.808-3.218-2.003-3.374-7.883-9.7-7.883-9.7-.346.146-.648.312-.912.492 1.414 1.55 5.764 6.4 7.43 9.208zM22.94 19.066l-4.664-3.075c-.243.162-.488.3-.734.415l4.034 2.66a.493.493 0 01-.276.902h1.364c.487 0 .68-.63.275-.902z" fill="#384949"/>
  <path d="M14.69 19.627h-1.373a1.813 1.813 0 01-1.547-.86c-.827-1.326-2.502-3.863-4.431-5.957-2.267-2.459-4.254-3.631-5.914-3.49a5.789 5.789 0 01-.233-1.944c.092-1.447.822-2.502 2.172-3.138.668.726 3.236 3.545 5.332 6.191a.341.341 0 00.535-.423C6.794 6.93 3.729 3.628 3.698 3.595a.34.34 0 00-.381-.083C1.13 4.43.583 6.11.51 7.356A6.37 6.37 0 00.873 9.82l.005.011-.003-.007c.008.021.205.546.671 3.361.486 2.934.238 6.928.236 6.967a.341.341 0 00.34.363h1.501a.34.34 0 00.338-.385c-.009-.069-.859-6.72-.17-9.459.932.547 1.956 1.42 3.046 2.603 1.892 2.052 3.54 4.55 4.354 5.855a2.491 2.491 0 002.126 1.181h1.373a.341.341 0 000-.682zm-11.452.205h-.756c.05-1.066.154-4.239-.263-6.76-.287-1.734-.477-2.628-.59-3.08.472-.01.988.11 1.542.357-.693 2.448-.112 7.963.067 9.483z" fill="#000"/>
  <path d="M23.127 18.781l-4.663-3.075a.34.34 0 00-.377.001c-1.009.673-2.018.902-3 .679-1.257-.286-2.455-1.335-3.463-3.034-.366-.616-.884-1.37-1.54-2.243a.34.34 0 10-.545.41c.641.852 1.145 1.586 1.498 2.18 1.122 1.891 2.434 3.019 3.9 3.352 1.09.247 2.24.021 3.337-.654l4.475 2.952c.081.054.073.13.06.17a.143.143 0 01-.145.108h-6.61a.341.341 0 000 .682h6.61a.82.82 0 00.798-.59.82.82 0 00-.335-.938z" fill="#000"/>
</svg>
