<svg width="24" height="24" fill="none" xmlns="http://www.w3.org/2000/svg">
  <defs/>
  <path d="M21.298 7.483H2.702v1.713h18.596V7.483z" fill="#FFCC75"/>
  <path d="M6.25 20.677a.367.367 0 110-.734h15.538v-.734H2.213v.734h2.57a.367.367 0 110 .734H1.233v.734h21.532v-.734H6.25zM4.415 11.398H3.68v7.077h.734v-7.077zM8.391 11.398h-.734v7.077h.734v-7.077zM12.367 11.398h-.734v7.077h.734v-7.077zM16.343 11.398h-.734v7.077h.734v-7.077zM20.319 11.398h-.734v7.077h.734v-7.077zM2.213 6.749H21.787V5.95L12 4.064 2.213 5.951v.798z" fill="#F2EBD9"/>
  <path d="M1.479 5.644v1.472c0 .203.164.367.367.367h.122v2.08c0 .202.164.367.367.367h19.33a.367.367 0 00.367-.367v-2.08h.122a.367.367 0 00.367-.367V5.644 4.18a.367.367 0 00-.734 0v1.023l-9.42-1.816V2.222a.367.367 0 10-.734 0v1.165l-9.42 1.816V4.18a.367.367 0 00-.734 0v1.464zm10.52-1.58l9.788 1.887v.798h-.122-19.33-.122v-.798L12 4.064zM2.703 9.196V7.483h18.596v1.713H2.702zM23.133 19.943h-.612V18.84a.367.367 0 00-.367-.367h-1.1v-7.076h.122a.367.367 0 000-.734h-2.447a.367.367 0 100 .734h.122v7.076h-1.774v-7.076h.122a.367.367 0 000-.734h-2.446a.367.367 0 100 .734h.122v7.076h-1.774v-7.076h.122a.367.367 0 000-.734h-2.446a.367.367 0 100 .734h.122v7.076H9.125v-7.076h.122a.367.367 0 000-.734H6.801a.367.367 0 100 .734h.122v7.076H5.149v-7.076h.122a.367.367 0 000-.734H2.824a.367.367 0 100 .734h.123v7.076H1.846a.367.367 0 00-.367.367v1.102H.867a.367.367 0 00-.367.367v1.468c0 .202.164.367.367.367h22.266a.367.367 0 00.367-.367V20.31a.367.367 0 00-.367-.367zm-.367 1.468H1.234v-.734h3.548a.367.367 0 100-.734h-2.57v-.735h19.575v.735H6.25a.367.367 0 100 .734h16.516v.734zM4.415 11.398v7.076H3.68v-7.076h.734zm3.976 0v7.076h-.734v-7.076h.734zm3.976 0v7.076h-.734v-7.076h.734zm3.976 0v7.076h-.734v-7.076h.734zm3.976 0v7.076h-.734v-7.076h.734z" fill="#082947"/>
</svg>
