<svg width="24" height="24" fill="none" xmlns="http://www.w3.org/2000/svg">
  <defs/>
  <path d="M19.28 16.883h2.018v-15h-7.892c-.443 0-.854.22-1.1.59a.367.367 0 01-.612 0 1.319 1.319 0 00-1.1-.59H2.702v15h7.892c.53 0 1.03.202 1.406.556a2.05 2.05 0 011.406-.556h.98c.202 0 .367.164.367.367h.734V6.311a.37.37 0 01.006-.066V6.24a.367.367 0 01.023-.072l.978-2.346a.367.367 0 01.677 0l.978 2.345c.01.024.017.048.022.073l.001.006a.33.33 0 01.006.066v10.94h.734c0-.204.165-.368.367-.368zM9.918 15.66H4.293a.367.367 0 01-.367-.367V12.19a.367.367 0 11.734 0v2.736h.815v-1.268a.367.367 0 11.734 0v1.268h.815V12.19a.367.367 0 11.734 0v2.736h.815v-1.268a.367.367 0 11.734 0v1.268h.611a.367.367 0 110 .734zm0-4.846H4.293a.367.367 0 110-.734h5.626a.367.367 0 110 .734zm0-1.744H4.293a.367.367 0 110-.734h5.626a.367.367 0 110 .734zM3.926 6.96c0-.203.164-.367.367-.367h2.813a.367.367 0 110 .734H4.293a.367.367 0 01-.367-.367zm5.993-1.377H4.293a.367.367 0 110-.734h5.626a.367.367 0 110 .734zm0-1.743H4.293a.367.367 0 110-.734h5.626a.367.367 0 110 .734zm2.448 12.272a.367.367 0 11-.734 0V3.738a.367.367 0 11.734 0v12.374z" fill="#fff"/>
  <path d="M10.594 18.351c.372 0 .729.1 1.039.282v-.51a1.318 1.318 0 00-1.04-.506H2.336v.734h8.259zM19.279 18.351h2.385v-.734H19.28a.367.367 0 01-.367-.367h-.734v1.468h.734c0-.203.164-.367.367-.367zM14.753 17.25a.367.367 0 01-.367.367h-.98c-.408 0-.79.188-1.039.506v.51c.31-.182.667-.282 1.04-.282h.979c.203 0 .367.164.367.367h.734V17.25h-.734z" fill="#C1E8E6"/>
  <path d="M14.753 18.718a.367.367 0 01-.367.367h-.98c-.443 0-.854.22-1.1.59a.384.384 0 01-.026.034l-.007.009a.352.352 0 01-.055.05l-.009.006a.368.368 0 01-.073.039l-.01.004a.39.39 0 01-.03.01l-.011.002a.424.424 0 01-.03.006l-.012.002a.392.392 0 01-.085 0l-.011-.002a.397.397 0 01-.073-.018l-.01-.004a.363.363 0 01-.073-.04l-.008-.005a.345.345 0 01-.055-.05l-.008-.009a.362.362 0 01-.025-.033 1.32 1.32 0 00-1.1-.59h-8.26a.367.367 0 110-.735v-.734a.367.367 0 01-.367-.367V4.82h-.734v15h9.36c.188 0 .363.09.474.24l.315.368h1.235l.315-.368c.11-.15.286-.24.473-.24h2.081v-1.1h-.734zM22.032 17.25a.367.367 0 01-.368.367v.734a.367.367 0 110 .734H19.28a.367.367 0 01-.367-.367h-.734v1.101h4.587v-15h-.733V17.25z" fill="#98D9D5"/>
  <path d="M9.919 14.926h-.612v-1.268a.367.367 0 10-.734 0v1.268h-.815V12.19a.367.367 0 10-.734 0v2.736h-.815v-1.268a.367.367 0 10-.734 0v1.268H4.66V12.19a.367.367 0 10-.734 0v3.103c0 .202.164.367.367.367h5.626a.367.367 0 100-.734zM9.919 3.106H4.293a.367.367 0 100 .734h5.626a.367.367 0 100-.734zM9.919 4.85H4.293a.367.367 0 100 .734h5.626a.367.367 0 100-.735zM4.293 7.327h2.813a.367.367 0 100-.734H4.293a.367.367 0 100 .734zM9.919 8.336H4.293a.367.367 0 100 .734h5.626a.367.367 0 100-.734zM9.919 10.08H4.293a.367.367 0 000 .734h5.626a.367.367 0 000-.734zM12 3.371a.367.367 0 00-.367.367v12.374a.367.367 0 10.734 0V3.738A.367.367 0 0012 3.371z" fill="#082947"/>
  <path d="M23.133 4.085h-1.101v-2.57a.367.367 0 00-.367-.367h-8.259c-.53 0-1.03.203-1.406.557a2.05 2.05 0 00-1.406-.557H2.335a.367.367 0 00-.367.367v2.57H.867a.367.367 0 00-.367.367v15.734c0 .203.164.367.367.367h9.657l.41.48c.07.08.172.128.28.128h1.573a.367.367 0 00.278-.129l.411-.479h2.01v1.344c0 .526.429.955.955.955h.783a.955.955 0 00.954-.955v-1.344h4.955a.367.367 0 00.367-.367V4.452a.367.367 0 00-.367-.367zm-.367 15.734h-4.588V6.311a.343.343 0 00-.006-.066l-.001-.006a.358.358 0 00-.023-.073l-.977-2.345a.367.367 0 00-.677 0l-.978 2.346a.36.36 0 00-.022.072l-.001.006a.319.319 0 00-.006.066V19.82h-2.081a.586.586 0 00-.474.24l-.314.367h-1.236l-.315-.366a.587.587 0 00-.473-.24h-9.36V4.818h.734V17.25c0 .203.164.367.367.367h8.259c.408 0 .79.188 1.039.506v.51a2.052 2.052 0 00-1.039-.282H2.335a.367.367 0 100 .734h8.259c.443 0 .854.221 1.1.59a.38.38 0 00.026.034l.008.009a.394.394 0 00.055.05l.008.006a.342.342 0 00.073.04l.01.003.03.01.011.002.032.006.01.002a.373.373 0 00.085 0l.012-.002a.351.351 0 00.072-.018l.01-.004a.371.371 0 00.073-.04l.009-.006a.386.386 0 00.087-.091 1.32 1.32 0 011.101-.59h.98a.367.367 0 100-.735h-.98c-.372 0-.729.1-1.039.282v-.51c.25-.318.63-.506 1.04-.506h.979a.367.367 0 100-.734h-.98c-.53 0-1.03.202-1.406.556a2.05 2.05 0 00-1.406-.556H2.702v-15h7.892c.443 0 .854.22 1.1.59a.367.367 0 00.612 0c.246-.37.657-.59 1.1-.59h7.892v15h-2.019a.367.367 0 000 .734h2.386a.367.367 0 00.367-.367V4.82h.734v15zm-5.542 2.299h-.783c-.12 0-.22-.101-.22-.22v-.661h1.223v.66c0 .12-.1.22-.22.22zm-1.003-1.615v-.734h1.223v.734h-1.223zm.183-14.559l.428-1.028.429 1.028h-.857zm-.183.734h1.223v12.357h-1.223V6.678z" fill="#082947"/>
  <path d="M18.912 18.718c0 .203.164.367.367.367h2.386a.367.367 0 100-.734h-2.386a.367.367 0 00-.367.367z" fill="#082947"/>
  <path d="M16.22 21.237v.66c0 .12.102.22.221.22h.783c.12 0 .22-.1.22-.22v-.66h-1.223z" fill="#F2484B"/>
  <path d="M17.444 19.768h-1.223v.735h1.223v-.735z" fill="#6DA8D6"/>
  <path d="M17.444 6.678h-1.223v12.356h1.223V6.678z" fill="#FFCC75"/>
  <path d="M16.404 5.944h.857l-.428-1.028-.429 1.028z" fill="#F2EBD9"/>
</svg>
