<svg width="24" height="24" fill="none" xmlns="http://www.w3.org/2000/svg">
  <defs/>
  <path d="M23.163 22.096h-1.46V10.45a.73.73 0 111.46 0v11.646z" fill="#E79D79"/>
  <path d="M22.433 9.72a.725.725 0 00-.365.099.73.73 0 01.365.631v11.646h.73V10.45a.73.73 0 00-.73-.73z" fill="#C28366"/>
  <path d="M2.297 12.415h6.469v5.84h-6.47v-5.84z" fill="#DEDEDE"/>
  <path d="M7.657 12.415h1.108v5.84H7.657v-5.84z" fill="#C9C9C9"/>
  <path d="M6.7 12.415H2.296V8.014a4.402 4.402 0 014.402 4.402z" fill="#D4D4D4"/>
  <path d="M2.297 8.013v.856a4.406 4.406 0 013.546 3.546H6.7a4.402 4.402 0 00-4.402-4.402z" fill="#BFBFBF"/>
  <path d="M4.498 18.255h1.033v3.841H4.498v-3.84z" fill="#B8B8B8"/>
  <path d="M8.905 7.235H7.518a.448.448 0 01-.446-.407l-.238-2.557h2.755l-.238 2.557a.448.448 0 01-.446.407z" fill="#5B9ED6"/>
  <path d="M8.766 4.271l-.238 2.557a.448.448 0 01-.446.407h.824a.448.448 0 00.446-.407l.237-2.557h-.823z" fill="#4F89BA"/>
  <path d="M8.766 11.427h12.937v7.996H8.766v-7.996z" fill="#5B9ED6"/>
  <path d="M20.056 11.427h1.647v7.996h-1.647v-7.996z" fill="#4F89BA"/>
  <path d="M5.531 1.904H5.12a.621.621 0 00-.62.621v6.077c.384.223.732.503 1.032.827V2.937h3.691a.517.517 0 100-1.033h-3.69z" fill="#B8B8B8"/>
  <path d="M.837 22.096h1.46V4.321a.73.73 0 00-1.46 0v17.775z" fill="#E79D79"/>
  <path d="M1.567 3.591a.725.725 0 00-.365.099.73.73 0 01.365.631v17.775h.73V4.321a.73.73 0 00-.73-.73z" fill="#C28366"/>
  <path d="M22.433 9.383c-.588 0-1.067.479-1.067 1.067v.64h-12.6a.337.337 0 00-.337.337v.652H7.002a4.692 4.692 0 00-1.134-2.744V3.274h2.007v.66H6.834a.337.337 0 00-.336.368l.238 2.557a.781.781 0 00.782.712h.357v1.887a.337.337 0 00.673 0V7.57h.357a.781.781 0 00.782-.712l.238-2.557a.337.337 0 00-.336-.368H8.55v-.66h.673a.854.854 0 000-1.707H7.717a.337.337 0 100 .674h1.505a.18.18 0 010 .36h-3.69a.337.337 0 00-.338.336v5.728c-.044-.034-.355-.25-.359-.252V2.525c0-.157.128-.284.284-.284h1.056a.337.337 0 100-.674H5.12a.96.96 0 00-.958.958v5.536a4.712 4.712 0 00-1.527-.35V4.32a1.068 1.068 0 00-2.134 0v7.123a.337.337 0 10.674 0V4.32a.394.394 0 01.786 0v17.438h-.786v-8.647a.337.337 0 10-.674 0v8.984c0 .186.15.337.337.337h1.46c.186 0 .337-.15.337-.337v-3.504H4.16v3.504c0 .186.15.337.337.337h1.033c.186 0 .337-.15.337-.337v-3.504h2.56v.831c0 .187.151.337.338.337h6.289a.337.337 0 100-.674H9.103v-7.322h12.263v7.322h-4.739a.337.337 0 100 .674h4.74v2.336c0 .186.15.337.336.337h1.46c.186 0 .337-.15.337-.337V10.45c0-.588-.479-1.067-1.067-1.067zM9.016 6.797a.11.11 0 01-.11.1H7.517a.11.11 0 01-.11-.1l-.204-2.19h2.015l-.203 2.19zm-2.668 5.282H2.634V8.364c1.94.16 3.552 1.74 3.714 3.715zm-1.154 9.68h-.359v-3.167h.36v3.167zm-2.56-3.84v-5.167h5.795v5.167H2.634zm20.192 3.84h-.786V10.45a.394.394 0 01.786 0v11.31z" fill="#000"/>
</svg>
