<svg width="24" height="24" fill="none" xmlns="http://www.w3.org/2000/svg">
  <defs>
    <path d="M5.307 9.97h1.07v11.92h-1.07V9.97z" fill="#9BC3CC" id="reuse-1"/>
    <path d="M5.307 8.758h1.07V9.97h-1.07V8.758z" fill="#525252" id="reuse-0"/>
  </defs>
  <path d="M.837 21.89h22.326v1.273H.837V21.89z" fill="#7D7D7D"/>
  <path d="M.837 21.89h22.326v.572H.837v-.573z" fill="#525252"/>
  <path d="M6.376 6.504h11.248V21.89H6.376V6.504z" fill="#B6E5F0"/>
  <path d="M5.522 5.292h12.956v1.212H5.522V5.292z" fill="#7D7D7D"/>
  <path d="M16.388 5.292h2.09v1.212h-2.09V5.292z" fill="#525252"/>
  <path d="M.837 8.758h5.54V9.97H.836V8.758z" fill="#7D7D7D"/>
  <use xlink:href="#reuse-0"/>
  <use xlink:href="#reuse-0"/>
  <path d="M8.99 16.223h6.02v5.666H8.99v-5.666z" fill="#5B9ED6"/>
  <path d="M11.229 16.223h1.542v5.666h-1.543v-5.666z" fill="#4D86B5"/>
  <path d="M1.323 9.97h5.053v11.92H1.323V9.97z" fill="#B6E5F0"/>
  <use xlink:href="#reuse-1"/>
  <use xlink:href="#reuse-1"/>
  <path d="M22.677 21.89h-5.053V9.97h5.053v11.92z" fill="#B6E5F0"/>
  <path d="M17.624 9.97h1.07v11.92h-1.07V9.97z" fill="#9BC3CC"/>
  <g fill="#5B9ED6">
    <path d="M7.612 8.9H9.44v3.624H7.612V8.9zM11.087 8.9h1.827v3.624h-1.827V8.9zM14.56 8.9h1.827v3.624H14.56V8.9zM2.937 14.118h1.826v3.624H2.937v-3.624zM21.063 17.742h-1.827v-3.624h1.827v3.624z"/>
  </g>
  <path d="M17.624 8.758h5.54V9.97h-5.54V8.758z" fill="#7D7D7D"/>
  <path d="M17.624 8.758h1.07V9.97h-1.07V8.758z" fill="#525252"/>
  <path d="M11.326 5.292H8.864V.837h6.271v4.455h-3.809z" fill="#EF2D57"/>
  <path d="M14.027.837h1.109v4.455h-1.109V.837z" fill="#D4284D"/>
  <path d="M13.033 2.727h-.696v-.696a.337.337 0 00-.674 0v.696h-.696a.337.337 0 000 .674h.696v.696a.337.337 0 10.674 0v-.696h.696a.337.337 0 100-.674z" fill="#fff"/>
  <path d="M9.44 12.861c.185 0 .336-.15.336-.337V8.9a.337.337 0 00-.337-.337H7.612a.337.337 0 00-.337.337v3.624c0 .186.151.337.337.337H9.44zM7.95 9.237h1.152v2.95H7.95v-2.95zM11.087 12.861h1.827c.186 0 .337-.15.337-.337V8.9a.337.337 0 00-.337-.337h-1.827a.337.337 0 00-.337.337v3.624c0 .186.15.337.337.337zm.337-3.624h1.153v2.95h-1.153v-2.95zM4.763 18.079c.186 0 .337-.151.337-.337v-3.624a.337.337 0 00-.337-.337H2.937a.337.337 0 00-.337.337v3.624c0 .186.15.337.337.337h1.826zm-1.49-3.624h1.153v2.95H3.273v-2.95zM19.236 18.079h1.827c.186 0 .337-.151.337-.337v-3.624a.337.337 0 00-.337-.337h-1.827a.337.337 0 00-.337.337v3.624c0 .186.151.337.337.337zm.337-3.624h1.153v2.95h-1.153v-2.95zM14.56 12.861h1.827c.186 0 .337-.15.337-.337V8.9a.337.337 0 00-.337-.337H14.56a.337.337 0 00-.336.337v3.624c0 .186.15.337.336.337zm.338-3.624h1.152v2.95h-1.152v-2.95zM11.663 4.097a.337.337 0 10.674 0v-.696h.696a.337.337 0 100-.674h-.696v-.696a.337.337 0 00-.674 0v.696h-.696a.337.337 0 000 .674h.696v.696z" fill="#000"/>
  <path d="M23.163 10.307c.186 0 .337-.15.337-.336V8.758a.337.337 0 00-.337-.337H21.12a.337.337 0 000 .674h1.707v.539h-4.865v-.54h1.48a.337.337 0 100-.673h-1.48V6.84h.517c.186 0 .337-.15.337-.337V5.292a.337.337 0 00-.337-.337h-3.006V.837A.337.337 0 0015.136.5H8.864a.337.337 0 00-.337.337v4.118H5.522a.337.337 0 00-.337.337v1.212c0 .187.151.337.337.337h.517v1.58H.837a.337.337 0 00-.337.337V9.97c0 .186.15.336.337.336h.15v2.217a.337.337 0 00.673 0v-2.216h4.38v11.245H1.66v-7.356a.337.337 0 10-.673 0v7.355h-.15a.337.337 0 00-.337.337v1.274c0 .186.15.337.337.337h22.326c.186 0 .337-.15.337-.337V21.89a.337.337 0 00-.337-.337h-.15V10.307h.15zM5.86 5.63h5.236a.337.337 0 000-.674H9.201V1.174H14.8v3.78h-1.796a.337.337 0 100 .675h5.138v.539H5.859v-.54zM1.174 9.095h4.865v.539H1.174v-.54zm5.54-2.254h10.573v14.711h-1.94v-5.33a.337.337 0 00-.337-.336H8.99a.337.337 0 00-.337.337v5.33h-1.94V6.84zm2.613 14.711V16.56h2.336v4.992H9.327zm3.01-4.992h2.336v4.992h-2.336V16.56zm10.49 6.266H1.173v-.6h21.652v.6zm-.487-1.274h-4.38V10.307h4.38v11.245z" fill="#000"/>
</svg>
