<svg width="24" height="24" fill="none" xmlns="http://www.w3.org/2000/svg">
  <defs/>
  <path d="M14.233 20.267v2.153a.744.744 0 01-.745.744h-2.976a.744.744 0 01-.744-.744v-2.153h4.465z" fill="#985335"/>
  <path d="M13.334 20.267v2.153a.744.744 0 01-.744.744h.898a.744.744 0 00.745-.744v-2.153h-.899z" fill="#87462A"/>
  <path d="M14.335 19.443h-4.67a.27.27 0 00-.27.27v.576c0 .15.12.27.27.27h4.67a.27.27 0 00.269-.27v-.577a.27.27 0 00-.27-.27z" fill="#BA6641"/>
  <path d="M16.34 15.15a7.814 7.814 0 10-8.683 0l.178.444h8.33l.176-.445z" fill="#FF2551"/>
  <path d="M4.186 8.652a7.807 7.807 0 003.472 6.498l.177.445h8.33l.176-.445a7.807 7.807 0 003.473-6.498H4.186z" fill="#B6E3EE"/>
  <path d="M18.915 8.652a7.806 7.806 0 01-3.473 6.498l-.176.445h.898l.177-.445a7.807 7.807 0 003.473-6.498h-.899z" fill="#96D2E0"/>
  <path d="M7.658 15.15l.801 2.014c.04.103.14.17.25.17h6.58a.27.27 0 00.251-.17l.8-2.014H7.659z" fill="#FFD151"/>
  <path d="M15.443 15.15l-.8 2.014a.27.27 0 01-.251.17h.898a.27.27 0 00.25-.17l.801-2.014h-.898z" fill="#F79B4A"/>
  <path d="M9.14 5.494l-.67.67a.27.27 0 01-.382 0l-.671-.67a.27.27 0 010-.382l.671-.67a.27.27 0 01.381 0l.671.67a.27.27 0 010 .382zM16.565 5.494l-.67.67a.27.27 0 01-.382 0l-.671-.67a.27.27 0 010-.382l.67-.67a.27.27 0 01.382 0l.671.67a.27.27 0 010 .382zM12.861 5.494l-.671.67a.27.27 0 01-.381 0l-.671-.67a.27.27 0 010-.382l.67-.67a.27.27 0 01.382 0l.671.67a.27.27 0 010 .382z" fill="#FFD151"/>
  <g>
    <path d="M13.489 23.5h-2.977a1.082 1.082 0 01-1.081-1.081v-1.861c0-.186.15-.337.337-.337h4.465c.186 0 .337.15.337.337v1.86c0 .597-.485 1.082-1.082 1.082zm-3.385-2.605v1.524c0 .224.183.407.408.407h2.976a.408.408 0 00.408-.407v-1.524h-3.792z" fill="#000"/>
    <path d="M14.604 20.895h-5.21a.337.337 0 01-.336-.337v-1.116c0-.186.15-.337.337-.337h5.209c.186 0 .337.15.337.337v1.116c0 .186-.15.337-.337.337zm-4.873-.674h4.536v-.442H9.731v.442z" fill="#000"/>
    <path d="M12 21.639a.337.337 0 01-.337-.337v-.744a.337.337 0 11.674 0v.744c0 .186-.15.337-.337.337zM16.342 15.486a.337.337 0 01-.188-.617 7.471 7.471 0 003.324-6.218c0-4.123-3.355-7.477-7.477-7.477-4.123 0-7.478 3.354-7.478 7.477 0 2.5 1.243 4.825 3.324 6.218a.337.337 0 01-.375.56A8.144 8.144 0 013.85 8.651C3.85 4.157 7.506.5 12 .5c4.495 0 8.152 3.657 8.152 8.151a8.143 8.143 0 01-3.623 6.778.336.336 0 01-.187.057z" fill="#000"/>
    <path d="M15.473 17.67H8.527a.337.337 0 01-.314-.212l-.868-2.184a.337.337 0 01.313-.462h8.683a.337.337 0 01.313.462l-.868 2.184a.337.337 0 01-.313.212zm-6.718-.674h6.489l.6-1.51h-7.69l.601 1.51zM8.279 6.691a.336.336 0 01-.238-.098L6.988 5.54a.337.337 0 010-.476L8.041 4.01a.337.337 0 01.476 0L9.57 5.064a.337.337 0 010 .476L8.517 6.593a.336.336 0 01-.238.098zm-.576-1.389l.576.576.576-.576-.576-.576-.576.576zM15.703 6.691a.336.336 0 01-.238-.098L14.412 5.54a.337.337 0 010-.476l1.053-1.053a.337.337 0 01.476 0l1.053 1.053a.337.337 0 010 .476L15.94 6.593a.336.336 0 01-.238.098zm-.576-1.389l.576.576.576-.576-.576-.576-.576.576zM12 6.691a.336.336 0 01-.239-.098L10.71 5.54a.337.337 0 010-.476l1.053-1.053a.337.337 0 01.476 0l1.052 1.053a.337.337 0 010 .476l-1.052 1.053A.336.336 0 0112 6.69zm-.576-1.389l.576.576.576-.576L12 4.726l-.576.576z" fill="#000"/>
    <g>
      <path d="M9.395 19.779a.337.337 0 01-.312-.209l-.868-2.108a.337.337 0 01.623-.257l.868 2.109a.337.337 0 01-.311.465z" fill="#000"/>
    </g>
    <g>
      <path d="M14.604 19.779a.338.338 0 01-.31-.465l.867-2.109a.337.337 0 01.623.257l-.868 2.108a.337.337 0 01-.312.209z" fill="#000"/>
    </g>
    <g>
      <path d="M12 19.779a.337.337 0 01-.337-.337v-2.109a.337.337 0 11.674 0v2.109c0 .186-.15.337-.337.337z" fill="#000"/>
    </g>
  </g>
  <path d="M18.916 8.651v.007h.898v-.007a7.814 7.814 0 00-8.263-7.8 7.814 7.814 0 017.365 7.8z" fill="#C21750"/>
  <g fill="#000">
    <path d="M20.15 8.651C20.15 4.157 16.495.5 12 .5 7.505.5 3.849 4.157 3.849 8.651c0 2.69 1.32 5.193 3.534 6.717l.83 2.09.001.001.001.003.843 2.047v1.05c0 .185.15.336.337.336h.035v1.524c0 .596.485 1.081 1.081 1.081h2.977c.596 0 1.081-.485 1.081-1.081v-1.524h.035c.187 0 .337-.15.337-.337v-1.05l.843-2.046v-.003l.002-.001.83-2.09a8.142 8.142 0 003.535-6.717zm-5.18 9.02l-.591 1.434h-2.042V17.67h2.633zm-5.203 2.55h-.035v-.442h4.535v.442h-4.5zm1.896-1.116H9.62L9.03 17.67h2.633v1.435zm2.232 3.314a.408.408 0 01-.407.407h-2.977a.408.408 0 01-.407-.407v-1.524h1.559v.408a.337.337 0 10.673 0v-.408h1.56v1.524zm1.35-5.422h-6.49l-.6-1.51h7.69l-.6 1.51zm.991-2.185H7.763a7.469 7.469 0 01-3.232-5.824h1.455a.337.337 0 100-.674H4.53c.177-3.967 3.46-7.14 7.47-7.14s7.292 3.173 7.469 7.14H7.332a.337.337 0 100 .674h12.136a7.47 7.47 0 01-3.232 5.824z"/>
    <path d="M8.279 6.691a.336.336 0 00.238-.098L9.57 5.54a.337.337 0 000-.476L8.517 4.01a.337.337 0 00-.476 0L6.988 5.064a.337.337 0 000 .476l1.053 1.053a.336.336 0 00.238.098zm0-1.965l.576.576-.576.576-.576-.576.576-.576zM15.465 6.593a.336.336 0 00.476 0l1.053-1.053a.337.337 0 000-.476L15.94 4.01a.337.337 0 00-.476 0l-1.053 1.053a.337.337 0 000 .476l1.053 1.053zm.238-1.867l.576.576-.576.576-.576-.576.576-.576zM11.761 6.593a.336.336 0 00.477 0L13.29 5.54a.337.337 0 000-.476L12.238 4.01a.337.337 0 00-.476 0l-1.053 1.053a.337.337 0 000 .476l1.052 1.053zM12 4.726l.576.576-.576.576-.576-.576.576-.576z"/>
  </g>
</svg>
