<svg width="24" height="24" fill="none" xmlns="http://www.w3.org/2000/svg">
  <defs/>
  <path d="M21.675 19.187v3.706a.27.27 0 01-.27.27H2.595a.27.27 0 01-.27-.27v-3.706h19.35z" fill="#FFD151"/>
  <path d="M21.675 19.187H2.325v1.168h19.35v-1.168z" fill="#F79B4A"/>
  <path d="M17.954 19.442h4.195a.27.27 0 00.27-.27V12.27a.27.27 0 00-.27-.27H1.851a.27.27 0 00-.27.27v6.903c0 .15.12.27.27.27h16.103z" fill="#49484D"/>
  <path d="M17.582 4.354H6.419V6.25h11.163V4.354z" fill="#985335"/>
  <path d="M17.581 4.354h-.898V6.25h.898V4.354z" fill="#87462A"/>
  <path d="M17.684 6.046H6.315a.27.27 0 00-.27.27v16.847h11.908V6.316a.27.27 0 00-.27-.27z" fill="#58565C"/>
  <path d="M18.325 3.339v.95a.27.27 0 01-.27.269H5.944a.27.27 0 01-.27-.27v-.95c0-.148.121-.269.27-.269h12.113c.149 0 .27.121.27.27z" fill="#FFD151"/>
  <path d="M18.057 3.07h-.899c.15 0 .27.12.27.269v.95a.27.27 0 01-.27.269h.899a.27.27 0 00.27-.27v-.95a.27.27 0 00-.27-.269z" fill="#F79B4A"/>
  <path d="M13.591 4.558H10.41a.27.27 0 01-.27-.27V1.106c0-.149.121-.27.27-.27h3.182c.149 0 .27.121.27.27v3.182a.27.27 0 01-.27.27z" fill="#58565C"/>
  <path d="M13.59.834h-.898c.15 0 .27.12.27.27v3.184a.27.27 0 01-.27.27h.899a.27.27 0 00.27-.27V1.103a.27.27 0 00-.27-.27zM17.056 6.316v16.847h.898V6.316a.27.27 0 00-.27-.27h-.898c.149 0 .27.12.27.27z" fill="#49484D"/>
  <path d="M14.233 18.11H9.768v5.053h4.465v-5.054z" fill="#00BCE7"/>
  <g fill="#00BCE7">
    <path d="M8.754 14.976h-.95a.27.27 0 01-.269-.27v-.949c0-.149.12-.27.27-.27h.949c.149 0 .27.121.27.27v.95a.27.27 0 01-.27.27zM16.196 14.976h-.949a.27.27 0 01-.27-.27v-.949c0-.149.121-.27.27-.27h.95c.148 0 .269.121.269.27v.95a.27.27 0 01-.27.27zM12.463 14.976h-.95a.27.27 0 01-.269-.27v-.949c0-.149.12-.27.27-.27h.95c.148 0 .269.121.269.27v.95a.27.27 0 01-.27.27zM8.754 12h-.95a.27.27 0 01-.269-.27v-.95c0-.148.12-.269.27-.269h.949c.149 0 .27.12.27.27v.949a.27.27 0 01-.27.27zM16.196 12h-.949a.27.27 0 01-.27-.27v-.95c0-.148.121-.269.27-.269h.95c.148 0 .269.12.269.27v.949a.27.27 0 01-.27.27zM12.463 12h-.95a.27.27 0 01-.269-.27v-.95c0-.148.12-.269.27-.269h.95c.148 0 .269.12.269.27v.949a.27.27 0 01-.27.27zM8.754 9.023h-.95a.27.27 0 01-.269-.27v-.949c0-.149.12-.27.27-.27h.949c.149 0 .27.121.27.27v.95a.27.27 0 01-.27.27zM16.196 9.023h-.949a.27.27 0 01-.27-.27v-.95c0-.148.121-.269.27-.269h.95c.148 0 .269.12.269.27v.949a.27.27 0 01-.27.27zM12.463 9.023h-.95a.27.27 0 01-.269-.27v-.95c0-.148.12-.269.27-.269h.95c.148 0 .269.12.269.27v.949a.27.27 0 01-.27.27z"/>
  </g>
  <g fill="#00BCE7">
    <path d="M4.288 14.977h-.95a.27.27 0 01-.269-.27v-.95c0-.148.121-.269.27-.269h.95c.148 0 .269.12.269.27v.95a.27.27 0 01-.27.269zM20.661 14.977h-.95a.27.27 0 01-.269-.27v-.95c0-.148.121-.269.27-.269h.95c.148 0 .269.121.269.27v.95a.27.27 0 01-.27.269zM4.288 17.953h-.95a.27.27 0 01-.269-.269v-.95c0-.148.121-.269.27-.269h.95c.148 0 .269.12.269.27v.949a.27.27 0 01-.27.27zM20.661 17.953h-.95a.27.27 0 01-.269-.269v-.95c0-.148.121-.269.27-.269h.95c.148 0 .269.12.269.27v.949a.27.27 0 01-.27.27z"/>
  </g>
  <path d="M16.382 21.674h-.577a.27.27 0 01-.27-.27v-1.693c0-.148.12-.27.27-.27h.577c.149 0 .27.122.27.27v1.694a.27.27 0 01-.27.27zM8.195 21.674h-.577a.27.27 0 01-.27-.27v-1.693c0-.148.121-.27.27-.27h.577c.15 0 .27.122.27.27v1.694a.27.27 0 01-.27.27z" fill="#00CE96"/>
  <path d="M9.293 17.21h5.415c.148 0 .27.12.27.27v.95a.27.27 0 01-.27.269H9.293a.27.27 0 01-.27-.27v-.95c0-.148.121-.269.27-.269z" fill="#FFD151"/>
  <path d="M14.707 17.21h-.898c.149 0 .27.12.27.27v.949a.27.27 0 01-.27.27h.898a.27.27 0 00.27-.27v-.95a.27.27 0 00-.27-.27z" fill="#F79B4A"/>
  <path d="M18.852 12h-.898v7.442h.898V12z" fill="#3A393D"/>
  <g fill="#000">
    <path d="M10.884 20.593a.337.337 0 00-.337.337v.373a.337.337 0 00.674 0v-.373a.337.337 0 00-.337-.337zM13.116 20.593a.337.337 0 00-.337.337v.373a.337.337 0 00.674 0v-.373a.337.337 0 00-.337-.337zM10.919 2.7v.928a.337.337 0 00.674 0v-.594h.814v.594a.337.337 0 10.674 0v-1.86a.337.337 0 10-.674 0v.592h-.814v-.593a.337.337 0 00-.674 0V2.7z"/>
    <path d="M22.419 11.663H18.29V6.046a.337.337 0 00-.337-.337h-.036v-.814h.408c.186 0 .337-.151.337-.337V3.069a.337.337 0 00-.337-.336h-4.129V.837A.337.337 0 0013.861.5h-3.722a.337.337 0 00-.336.337v1.896H5.674a.337.337 0 00-.337.336v1.489c0 .186.151.337.337.337h.408v.814h-.036a.337.337 0 00-.337.337v2.977a.337.337 0 10.674 0v-2.64h11.234v16.443H16.43v-.815h.221c.186 0 .337-.15.337-.337v-2.232a.337.337 0 00-.337-.337h-1.116a.337.337 0 00-.337.337v2.232c0 .187.15.337.337.337h.221v.815H14.57v-3.791h.408c.186 0 .337-.151.337-.337v-1.489a.337.337 0 00-.337-.337H9.023a.337.337 0 00-.337.337v1.489c0 .186.151.337.337.337h.407v3.791H8.244v-.815h.221c.186 0 .337-.15.337-.337v-2.232a.337.337 0 00-.337-.337H7.349a.337.337 0 00-.337.337v2.232c0 .187.15.337.337.337h.221v.815H6.383V10.37a.337.337 0 10-.674 0v1.294H1.581a.337.337 0 00-.337.337v7.442c0 .186.151.337.337.337h.407v3.384c0 .186.151.337.337.337h19.35c.186 0 .337-.15.337-.337V19.78h.407c.186 0 .337-.15.337-.337V12a.337.337 0 00-.337-.337zm-6.547 8.116h.442v1.559h-.442v-1.56zm-8.186 0h.442v1.559h-.442v-1.56zm-5.768-7.442h3.791v6.768H1.918v-6.768zm.744 7.442H5.71v3.047H2.662V19.78zM17.99 3.406v.815h-.406-.002-3.383v-.815h3.79zm-7.513-2.232h3.048V4.22h-3.048V1.174zM6.011 3.406h3.792v.815H6.42h-.002H6.011v-.815zm.744 1.489h10.49v.814H6.755v-.814zM9.36 17.546h5.28v.815H9.36v-.815zm.744 1.489h1.548v3.791h-1.548v-3.791zm2.221 3.791v-3.791h1.57v3.791h-1.57zm9.013 0H18.29V19.78h3.047v3.047zm.744-3.72h-3.791v-6.77h3.791v6.77z"/>
    <path d="M3.07 15.314h1.488c.186 0 .337-.151.337-.337v-1.489a.337.337 0 00-.337-.336H3.069a.337.337 0 00-.337.336v1.489c0 .186.151.337.337.337zm.336-1.489h.815v.815h-.815v-.815zM7.198 14.977c0 .186.151.337.337.337h1.489c.186 0 .336-.151.336-.337v-1.489a.337.337 0 00-.336-.336H7.535a.337.337 0 00-.337.336v1.489zm.674-1.152h.815v.815h-.815v-.815zM14.64 14.977c0 .186.15.337.337.337h1.488c.186 0 .337-.151.337-.337v-1.489a.337.337 0 00-.337-.336h-1.488a.337.337 0 00-.337.336v1.489zm.673-1.152h.815v.815h-.815v-.815zM10.907 14.977c0 .186.151.337.337.337h1.489c.186 0 .336-.151.336-.337v-1.489a.337.337 0 00-.336-.336h-1.489a.337.337 0 00-.337.336v1.489zm.674-1.152h.815v.815h-.815v-.815zM7.198 12c0 .186.151.337.337.337h1.489c.186 0 .336-.151.336-.337V10.51a.337.337 0 00-.336-.336H7.535a.337.337 0 00-.337.336V12zm.674-1.152h.815v.815h-.815v-.815zM14.64 12c0 .186.15.337.337.337h1.488c.186 0 .337-.151.337-.337V10.51a.337.337 0 00-.337-.336h-1.488a.337.337 0 00-.337.336V12zm.673-1.152h.815v.815h-.815v-.815zM10.907 12c0 .186.151.337.337.337h1.489c.186 0 .336-.151.336-.337V10.51a.337.337 0 00-.336-.336h-1.489a.337.337 0 00-.337.336V12zm.674-1.152h.815v.815h-.815v-.815zM7.535 9.36h1.489c.186 0 .336-.15.336-.337V7.535a.337.337 0 00-.336-.337H7.535a.337.337 0 00-.337.337v1.488c0 .186.151.337.337.337zm.337-1.488h.815v.814h-.815v-.814zM14.976 9.36h1.489c.186 0 .337-.15.337-.337V7.535a.337.337 0 00-.337-.337h-1.488a.337.337 0 00-.337.337v1.488c0 .186.15.337.336.337zm.337-1.488h.815v.814h-.815v-.814zM11.244 9.36h1.489c.186 0 .336-.15.336-.337V7.535a.337.337 0 00-.336-.337h-1.489a.337.337 0 00-.337.337v1.488c0 .186.151.337.337.337zm.337-1.488h.815v.814h-.815v-.814zM19.442 15.314h1.489c.186 0 .337-.151.337-.337v-1.489a.337.337 0 00-.337-.336h-1.489a.337.337 0 00-.337.336v1.489c0 .186.151.337.337.337zm.337-1.489h.815v.815h-.815v-.815zM3.07 18.29h1.488c.186 0 .337-.15.337-.336v-1.489a.337.337 0 00-.337-.337H3.069a.337.337 0 00-.337.337v1.489c0 .186.151.337.337.337zm.336-1.488h.815v.815h-.815v-.815zM19.442 18.29h1.489c.186 0 .337-.15.337-.336v-1.489a.337.337 0 00-.337-.337h-1.489a.337.337 0 00-.337.337v1.489c0 .186.151.337.337.337zm.337-1.488h.815v.815h-.815v-.815z"/>
  </g>
</svg>
