<svg width="24" height="24" fill="none" xmlns="http://www.w3.org/2000/svg">
  <defs/>
  <path d="M15.501 9.688l-.022.022v7.293H8.187V9.71l-.023-.022 3.669-3.668L15.5 9.688z" fill="#CFDCE5"/>
  <path d="M15.102 9.29V6.343h-1.695v1.251" fill="#FF6F52"/>
  <path d="M13.023 11.066h-2.381v3.351h2.381v-3.351z" fill="#FCD577"/>
  <path d="M18.804 4.106a.404.404 0 10-.528.612A9.611 9.611 0 0121.613 12c0 4.39-2.966 8.22-7.212 9.312a.404.404 0 10.201.782A10.415 10.415 0 0022.421 12c0-3.033-1.319-5.91-3.617-7.894zM11.627 2.287L13.133 3.6a.402.402 0 00.57-.039.404.404 0 00-.04-.57l-.63-.55a9.573 9.573 0 014.03 1.385.401.401 0 00.556-.13.404.404 0 00-.13-.556 10.38 10.38 0 00-4.321-1.496l.624-.4a.404.404 0 10-.435-.68l-1.683 1.078a.404.404 0 00-.047.645zM12.373 21.713L10.866 20.4a.404.404 0 00-.53.608l.63.55c-4.817-.517-8.58-4.606-8.58-9.558 0-2.183.713-4.241 2.062-5.951a9.665 9.665 0 015.189-3.37.404.404 0 10-.198-.784 10.477 10.477 0 00-5.624 3.653A10.314 10.314 0 001.578 12c0 5.352 4.055 9.773 9.254 10.356l-.625.4a.404.404 0 00.436.68l1.682-1.078a.404.404 0 00.048-.645z" fill="#000"/>
  <path d="M8.158 14.39a.404.404 0 00-.404.404v2.209c0 .223.181.404.404.404h7.293c.223 0 .403-.181.403-.404V10.64l.821.821a.403.403 0 00.571 0 .404.404 0 000-.57l-1.768-1.769v-2.78a.404.404 0 00-.404-.403H13.38a.404.404 0 00-.404.404v.277l-.885-.886a.404.404 0 00-.571 0l-5.157 5.157a.404.404 0 10.571.57l.821-.82v2.807a.404.404 0 10.808 0V9.833l3.242-3.242 3.243 3.242v6.766H8.562v-1.805a.404.404 0 00-.404-.404zm5.625-7.644h.888v1.569l-.888-.888v-.68z" fill="#000"/>
  <path d="M12.995 14.82c.223 0 .404-.18.404-.403v-3.351a.404.404 0 00-.404-.404h-2.381a.404.404 0 00-.404.403v3.352c0 .223.18.404.404.404h2.381zm-1.978-3.35h1.574v2.543h-1.574V11.47z" fill="#000"/>
</svg>
