<svg width="24" height="24" fill="none" xmlns="http://www.w3.org/2000/svg">
  <defs/>
  <path d="M12.951 14.206h-1.913v3.067h1.913v-3.067z" fill="#CFDCE5"/>
  <path d="M11.406 21.684v-4.411h-.846v4.411a1.435 1.435 0 001.858 1.372 1.436 1.436 0 01-1.012-1.372z" fill="#E25749"/>
  <path d="M11.944 14.206v3.067h-.906v-3.067" fill="#BAC6CC"/>
  <path d="M11.995 14.274a6.697 6.697 0 100-13.393 6.697 6.697 0 000 13.393z" fill="#FCD577"/>
  <path d="M12.951 14.206v1.22a6.752 6.752 0 01-1.913 0v-1.22h1.913z" fill="#BAC6CC"/>
  <path d="M11.994 12.66a5.082 5.082 0 100-10.165 5.082 5.082 0 000 10.165z" fill="#CFDCE5"/>
  <path d="M9.45 7.578c0-1.809.5-3.5 1.367-4.945a5.084 5.084 0 000 9.89 9.578 9.578 0 01-1.366-4.945z" fill="#DCE8EF"/>
  <path d="M11.995 23.12a1.435 1.435 0 01-1.435-1.436v-4.411h2.87v4.411c0 .793-.643 1.435-1.435 1.435z" fill="#FF6F52"/>
  <path d="M12 14.655a7.086 7.086 0 007.078-7.077A7.086 7.086 0 0012.001.5a7.086 7.086 0 00-7.078 7.078c0 3.445 2.475 6.323 5.74 6.95v2.364h-.098a.38.38 0 00-.38.38v4.412c0 1.001.814 1.816 1.816 1.816a1.818 1.818 0 001.815-1.816v-4.411a.38.38 0 00-.38-.38h-.098v-1.424a.38.38 0 00-.762 0v1.423h-1.151v-2.26c.19.015.382.023.575.023zm1.055 2.999v4.03a1.055 1.055 0 01-2.109 0v-4.03h2.109zM5.685 7.578A6.323 6.323 0 0112 1.262a6.323 6.323 0 016.316 6.316A6.323 6.323 0 0112 13.894a6.323 6.323 0 01-6.317-6.316z" fill="#000"/>
  <path d="M17.464 7.578a5.47 5.47 0 00-7.602-5.03.38.38 0 10.299.701 4.707 4.707 0 016.541 4.328A4.707 4.707 0 0112 12.28 4.707 4.707 0 017.3 7.578c0-1.44.646-2.78 1.772-3.678a.38.38 0 00-.474-.596 5.439 5.439 0 00-2.06 4.274A5.47 5.47 0 0012 13.04a5.47 5.47 0 005.464-5.463z" fill="#000"/>
  <path d="M13.827 8.014c.21 0 .381-.17.381-.38v-.062l.107.107a.38.38 0 00.538 0 .38.38 0 000-.539L12.27 4.557a.38.38 0 00-.538 0L9.149 7.14a.38.38 0 10.538.539l.107-.107v2.756c0 .21.17.381.38.381h3.653c.21 0 .381-.17.381-.38V8.902a.38.38 0 00-.761 0v1.045h-2.892V6.81l1.446-1.446 1.445 1.446v.822c0 .21.171.381.381.381z" fill="#000"/>
</svg>
