<svg width="24" height="24" fill="none" xmlns="http://www.w3.org/2000/svg">
  <defs/>
  <path d="M19.42 8.3l-.045.045v14.739H4.637V8.345L4.592 8.3 12.006.886 19.42 8.3z" fill="#CFDCE5"/>
  <path d="M19.42 8.3l-.045.045H4.637L4.592 8.3 12.006.886 19.42 8.3z" fill="#BAC6CC"/>
  <path d="M18.614 7.495V1.539h-3.426v2.53" fill="#FF6F52"/>
  <g fill="#FCD577">
    <path d="M15.795 19.108h-2.168v3.975h2.168v-3.975zM12.664 11.738h-2.169v3.976h2.169v-3.976z"/>
  </g>
  <path d="M22.705 11.039L19.01 7.344v-5.79a.402.402 0 00-.401-.4h-3.426a.401.401 0 00-.402.4v1.56L12.284.619a.401.401 0 00-.568 0l-10.42 10.42a.402.402 0 00.567.569L4.23 9.24v13.858c0 .222.18.402.402.402h14.737c.222 0 .402-.18.402-.402V9.24l2.366 2.367a.4.4 0 00.568 0 .402.402 0 000-.568zm-7.12-9.083h2.622v4.585l-2.623-2.623V1.956zm-1.402 6.807v6.565H13.06v-3.574a.402.402 0 00-.401-.402H10.89v-2.59h3.292zm2.169 0v.873h-1.366v-.873h1.366zm2.616 0v6.565h-1.813V8.763h1.813zm-3.982 6.565v-.873h1.366v.873h-1.366zm.402 3.393h-1.767a.402.402 0 00-.401.402v3.574H9.365V16.13h6.023v2.59zm-6.826-2.59v.874H7.197v-.874h1.365zm0 4.89H7.197v-1.205h1.365v1.204zm0-2.008H7.197v-1.205h1.365v1.205zm-1.365 2.81h1.365v.874H7.197v-.874zm3.694-9.667h1.365v3.172h-1.365v-3.172zm4.095-1.717h1.366v1.205h-1.366v-1.205zm0 2.008h1.366v1.205h-1.366v-1.205zm-4.898 2.881H5.033V8.763h5.055v6.565zm-5.055.803h1.36v6.566h-1.36V16.13zm8.99 3.393h1.365v3.173h-1.365v-3.173zm2.168 3.173V16.13h2.777v6.566H16.19zM5.511 7.959L12 1.47l6.49 6.49H5.51z" fill="#000"/>
  <path d="M11.71 14.156a.402.402 0 100-.803.402.402 0 000 .803zM14.569 21.525a.402.402 0 100-.803.402.402 0 000 .803z" fill="#000"/>
</svg>
