<svg width="24" height="24" fill="none" xmlns="http://www.w3.org/2000/svg">
  <defs/>
  <path d="M13.925 6.009l8.923 8.923a.653.653 0 010 .921l-7.05 7.05a.653.653 0 01-.92 0L1.042 9.067a.654.654 0 010-.922l7.049-7.049a.654.654 0 01.921 0l3.222 3.223" fill="#FEA8D6"/>
  <g fill="#fff">
    <path d="M7.08 8.96a1.828 1.828 0 100-3.655 1.828 1.828 0 000 3.656zM9.701 15.044a.406.406 0 01-.288-.695l4.811-4.811a.407.407 0 01.576.576l-4.81 4.81a.406.406 0 01-.289.12zM11.677 17.019a.406.406 0 01-.288-.695l4.81-4.812a.407.407 0 01.577.576L11.965 16.9a.406.406 0 01-.288.119zM13.651 18.994a.406.406 0 01-.288-.696l4.811-4.81a.407.407 0 01.576.575l-4.81 4.811a.406.406 0 01-.289.12z"/>
  </g>
  <path d="M16.391 22.31l-.592.592a.654.654 0 01-.922 0L1.043 9.068a.654.654 0 010-.922l.622-.622L16.39 22.31z" fill="#FF97CB"/>
  <path d="M14.267 5.72a.407.407 0 00-.576.577l8.923 8.923a.248.248 0 010 .345l-7.049 7.05a.248.248 0 01-.345 0L1.385 8.78a.242.242 0 01-.07-.173c0-.066.025-.127.07-.173l3.237-3.236.671.671a2.238 2.238 0 00.261 2.846 2.22 2.22 0 001.58.655 2.22 2.22 0 001.581-.655 2.22 2.22 0 00.655-1.58 2.22 2.22 0 00-.655-1.58 2.22 2.22 0 00-1.58-.655c-.459 0-.896.138-1.266.393l-.671-.671 3.236-3.237a.247.247 0 01.346 0l3.222 3.223a.407.407 0 00.576-.576L9.356.809C9.156.61 8.89.5 8.607.5s-.55.11-.749.31L4.622 4.045 3.366 2.79a.407.407 0 00-.576.576l1.256 1.256L.809 7.858c-.2.2-.309.466-.309.749s.11.55.31.749L14.643 23.19c.206.207.478.31.749.31.27 0 .542-.103.748-.31l7.05-7.049c.199-.2.309-.465.309-.748 0-.284-.11-.55-.31-.749l-8.923-8.923zm-7.132-.006a1.422 1.422 0 010 2.841c-.38 0-.736-.147-1.005-.415a1.423 1.423 0 01-.245-1.68l.962.963a.406.406 0 00.576 0 .407.407 0 000-.576l-.963-.963c.205-.11.435-.17.675-.17z" fill="#000"/>
  <path d="M14.279 9.54l-4.811 4.81a.407.407 0 00.576.577l4.81-4.811a.407.407 0 10-.575-.576zM16.253 11.514l-4.81 4.811a.407.407 0 00.575.576l4.811-4.81a.407.407 0 00-.576-.577zM13.417 18.876a.406.406 0 00.576 0l4.811-4.811a.407.407 0 00-.576-.576l-4.81 4.811a.407.407 0 000 .576z" fill="#000"/>
</svg>
