<svg width="24" height="24" fill="none" xmlns="http://www.w3.org/2000/svg">
  <defs/>
  <path d="M10.606 2.911c-2.933.624-5.045 3.2-5.045 6.32v13.942h12.98V9.23a6.493 6.493 0 00-4.967-6.31l-2.968-.009z" fill="#FFEFCA"/>
  <path d="M12.05 15.946a3.27 3.27 0 100-6.541 3.27 3.27 0 000 6.541z" fill="#F9BA8F"/>
  <path d="M10.936 5.628a1.18 1.18 0 102.246.055l-2.246-.055z" fill="#fff"/>
  <g fill="#FFDFA1">
    <path d="M13.661 2.853l.99.416-1.24 2.587.25-3.003zM10.447 2.853l-.99.416 1.24 2.587-.25-3.003z"/>
  </g>
  <path d="M13.692.914a.336.336 0 00-.25-.112h-2.92a.336.336 0 00-.334.378l.537 4.244a.336.336 0 00.333.294h1.907a.336.336 0 00.334-.299l.477-4.244a.336.336 0 00-.084-.261z" fill="#6BE8C7"/>
  <path d="M13.735 2.226l.108-1.055a.403.403 0 00-.085-.294.33.33 0 00-.255-.126h-2.975a.33.33 0 00-.257.128.403.403 0 00-.083.297l.121 1.053" fill="#9AF7DD"/>
  <path d="M12 16.273a3.652 3.652 0 003.648-3.648A3.652 3.652 0 0012 8.977a3.652 3.652 0 00-3.648 3.648A3.652 3.652 0 0012 16.273zm0-6.541a2.897 2.897 0 012.868 2.516h-1.882a.377.377 0 100 .755h1.882A2.898 2.898 0 0112 15.518a2.898 2.898 0 01-2.869-2.517h1.818a.377.377 0 100-.754H9.131A2.898 2.898 0 0112 9.732z" fill="#000"/>
  <path d="M18.49 16.221a.377.377 0 00.377-.377V9.18A6.793 6.793 0 0017.37 4.9a6.905 6.905 0 00-3.541-2.34l.184-1.64a.377.377 0 00-.375-.42h-3.277a.377.377 0 00-.374.425l.206 1.633c-2.994.77-5.06 3.453-5.06 6.622v13.943c0 .208.169.377.377.377h12.98a.377.377 0 00.377-.377v-3.694a.377.377 0 10-.755 0v3.317H5.887V9.18c0-2.787 1.793-5.15 4.402-5.866l.264 2.088a.362.362 0 00-.023.051A1.559 1.559 0 0012 7.524a1.559 1.559 0 001.495-1.991l.249-2.212A6.148 6.148 0 0116.78 5.37a6.047 6.047 0 011.332 3.81v6.664c0 .208.17.377.378.377zM13.217 1.254l-.45 4.01h-1.471l-.507-4.01h2.428zM12 6.77a.803.803 0 01-.8-.753h1.6a.803.803 0 01-.8.753z" fill="#000"/>
  <path d="M15.318 17.944H8.683a.377.377 0 100 .754h6.635a.377.377 0 100-.755zM15.318 19.96H8.683a.377.377 0 100 .754h6.635a.377.377 0 100-.754z" fill="#000"/>
</svg>
