<svg width="24" height="24" fill="none" xmlns="http://www.w3.org/2000/svg">
  <defs/>
  <path d="M21.753 9.194H2.248c-.762 0-1.379.617-1.379 1.379v11.212c0 .76.617 1.378 1.379 1.378h19.505c.761 0 1.378-.617 1.378-1.378V10.573c0-.762-.617-1.379-1.378-1.379zm-7.444 3.251H9.692a.835.835 0 010-1.67h4.617a.835.835 0 010 1.67z" fill="#75CFF2"/>
  <path d="M21.753 9.194h-.942v13.97h.942c.761 0 1.378-.618 1.378-1.38V10.574c0-.762-.617-1.379-1.378-1.379z" fill="#53B4E4"/>
  <path d="M6.103 1.345l3.948 9.43h2.804L8.789 1.063A.366.366 0 008.45.837H6.44a.366.366 0 00-.338.508z" fill="#FF9C43"/>
  <path d="M15.212 1.062l-4.066 9.714h2.804l3.947-9.431a.366.366 0 00-.337-.508h-2.01a.366.366 0 00-.338.225z" fill="#EF8229"/>
  <g>
    <path d="M9.051 21.243h-5.28a.435.435 0 01-.436-.436v-6.252c0-.24.195-.435.435-.435h5.281c.24 0 .436.195.436.435v6.252c0 .24-.195.436-.436.436z" fill="#EDEDED"/>
    <path d="M9.052 14.12H7.167v7.122h1.885c.24 0 .435-.195.435-.435v-6.252a.435.435 0 00-.435-.436z" fill="#D6D6D6"/>
    <g fill="#345863">
      <path d="M6.413 18.282a1.273 1.273 0 100-2.546 1.273 1.273 0 000 2.546z"/>
      <path d="M6.395 18.282a2.17 2.17 0 00-2.17 2.17v.79h4.34v-.79a2.17 2.17 0 00-2.17-2.17z"/>
    </g>
  </g>
  <g fill="#000">
    <path d="M20.665 13.783H12a.337.337 0 100 .674h8.665a.337.337 0 100-.674zM21.002 15.737a.337.337 0 00-.337-.337H12a.337.337 0 100 .674h8.665c.187 0 .337-.151.337-.337zM12 17.017a.337.337 0 100 .674h4.553a.337.337 0 100-.674H12zM9.051 13.783h-5.28a.773.773 0 00-.773.772v6.252c0 .426.346.773.772.773h5.281a.773.773 0 00.772-.773v-6.252a.773.773 0 00-.772-.772zm-2.638 4.163a.937.937 0 010-1.872.937.937 0 010 1.872zm-.017.674c1.01 0 1.833.822 1.833 1.833v.453H4.563v-.453c0-1.01.823-1.833 1.833-1.833zm2.754 2.187a.098.098 0 01-.099.099h-.148v-.453A2.51 2.51 0 007.496 18.2a1.612 1.612 0 00-1.083-2.8c-.887-.001-1.61.721-1.61 1.609 0 .465.199.885.516 1.18a2.51 2.51 0 00-1.43 2.263v.453H3.77a.098.098 0 01-.098-.099v-6.252c0-.054.044-.098.098-.098h5.281c.054 0 .099.044.099.098v6.252z"/>
    <path d="M21.753 8.857H16.18a.337.337 0 100 .674h5.573c.574 0 1.041.467 1.041 1.041v11.213c0 .574-.467 1.041-1.041 1.041H2.248a1.043 1.043 0 01-1.042-1.041V10.573c0-.575.467-1.042 1.042-1.042h5.57a.337.337 0 100-.674h-5.57c-.946 0-1.716.77-1.716 1.716v11.212c0 .945.77 1.715 1.716 1.715h19.505c.946 0 1.715-.77 1.715-1.715V10.573c0-.946-.77-1.716-1.715-1.716z"/>
    <path d="M9.549 10.447a1.173 1.173 0 00.144 2.335h4.616a1.173 1.173 0 00.143-2.335l3.756-8.972A.702.702 0 0017.56.5h-2.01a.701.701 0 00-.649.432l-2.9 6.928L9.1.932A.702.702 0 008.45.5h-2.01a.702.702 0 00-.648.975l3.756 8.973zm5.258 1.164a.499.499 0 01-.498.497H9.692a.499.499 0 010-.995h4.617c.274 0 .498.223.498.498zm.716-10.42a.03.03 0 01.027-.017h2.01c.004 0 .015 0 .024.013a.027.027 0 01.003.028l-3.861 9.224h-2.074l3.87-9.247zm-9.106-.004c.009-.013.02-.013.025-.013h2.01a.03.03 0 01.027.018l3.156 7.54-.714 1.707h-.645L6.415 1.215c-.002-.005-.007-.015.002-.028z"/>
  </g>
</svg>
