<svg width="24" height="24" fill="none" xmlns="http://www.w3.org/2000/svg">
  <defs/>
  <path d="M15.234 9.415h3.048L16.162.866H7.849l-2.12 8.55h9.506z" fill="#FCD577"/>
  <path d="M12.715 9.415v12.14h-1.42V9.415" fill="#CFDCE5"/>
  <path d="M12.715 9.415v1.424h-1.42V9.415" fill="#BAC6CC"/>
  <path d="M9.081.866l-1.49 8.55H5.729l2.12-8.55H9.08z" fill="#EAC36E"/>
  <path d="M14.644 23.104H9.367v-.402c0-.633.514-1.147 1.147-1.147h2.983c.633 0 1.147.514 1.147 1.147v.402z" fill="#CFDCE5"/>
  <path d="M18.647 9.338L16.527.79a.38.38 0 00-.37-.289H7.844a.38.38 0 00-.37.29L5.354 9.337a.38.38 0 00.37.473h5.186v11.378h-.401a1.53 1.53 0 00-1.528 1.528v.402c0 .21.17.381.381.381h5.277a.38.38 0 00.38-.38v-.403a1.53 1.53 0 00-1.527-1.528h-.401V10.854a.381.381 0 00-.762 0v10.335h-.657V9.811h3.176v4.775a.38.38 0 10.762 0V9.811h2.667a.381.381 0 00.37-.473zm-5.155 12.613c.422 0 .766.343.766.766v.021H9.743v-.021c0-.422.344-.766.766-.766h2.983zM10.96 9.049l.147-2.582a.381.381 0 00-.76-.044l-.15 2.626H8.039l1.358-7.787h1.244l-.229 4.01a.381.381 0 00.761.043l.231-4.053h1.193l.444 7.787h-2.08zM8.141 1.262h.482L7.265 9.049H6.211l1.93-7.787zm8.594 7.787l-.758-4.347a.381.381 0 00-.75.131l.735 4.216h-2.158l-.444-7.787h1.244l.38 2.176a.381.381 0 00.75-.13l-.357-2.046h.483l1.93 7.787h-1.055z" fill="#000"/>
</svg>
