<svg width="24" height="24" fill="none" xmlns="http://www.w3.org/2000/svg">
  <defs/>
  <path d="M20.763 4.89H16.72l-.486 8.328h5.014l-.486-8.328z" fill="#CFDCE5"/>
  <path d="M16.721 4.89h1.239l-.189 8.328h-1.536l.486-8.328z" fill="#BAC6CC"/>
  <path d="M20.96 8.261h-4.436l.1-1.7h4.236l.1 1.7z" fill="#FF6F52"/>
  <path d="M17.922 6.562l-.04 1.7h-1.358l.1-1.7h1.298z" fill="#E25749"/>
  <path d="M1.024 13.218l6.204-3.994v3.994l6.203-3.994v3.994h9.602v9.857H1.024v-9.857z" fill="#CFDCE5"/>
  <g fill="#fff">
    <path d="M9.098 15.428H2.81v2.634h6.288v-2.635zM17.34 15.427h-6.288v2.635h6.288v-2.635z"/>
  </g>
  <path d="M19.082.925H5.062a1.317 1.317 0 00-1.17 1.923H2.469a1.317 1.317 0 100 2.634h5.269a1.317 1.317 0 001.17-1.923h10.174a1.317 1.317 0 100-2.634z" fill="#415E72"/>
  <path d="M23.004 12.793h-6.348l.24-4.107h3.633l.185 3.159a.425.425 0 00.848-.05l-.405-6.93a.425.425 0 00-.424-.4h-4.041a.425.425 0 00-.424.4l-.463 7.928h-1.979V9.224a.425.425 0 00-.654-.357l-5.549 3.572V9.224a.425.425 0 00-.655-.357L.765 12.861a.425.425 0 00-.195.357v4.9a.425.425 0 10.85 0V13.45l5.354-3.447v3.215a.425.425 0 00.655.357l5.548-3.572v3.215c0 .235.19.425.425.425h9.177v9.007H1.42v-3.087a.425.425 0 10-.85 0v3.512c0 .235.19.425.425.425h22.009c.234 0 .425-.19.425-.425v-9.857a.425.425 0 00-.425-.425zm-6.058-4.957l.05-.85h3.434l.05.85h-3.534zm3.386-2.52l.048.82h-3.335l.048-.82h3.24z" fill="#000"/>
  <path d="M9.068 18.486c.234 0 .425-.19.425-.424v-2.635a.425.425 0 00-.425-.425H2.779a.425.425 0 00-.425.425v2.635c0 .234.19.424.425.424h6.289zm-3.91-.85v-1.784h1.53v1.785h-1.53zm3.485 0H7.538v-1.784h1.105v1.785zm-5.439-1.784H4.31v1.785H3.204v-1.785zM17.31 18.486c.236 0 .426-.19.426-.424v-2.635a.425.425 0 00-.425-.425h-6.288a.425.425 0 00-.425.425v2.635c0 .234.19.424.425.424h6.288zm-.424-.85H15.78v-.99a.425.425 0 10-.85 0v.99h-1.53v-1.784h3.485v1.785zm-5.439-1.784h1.105v1.785h-1.105v-1.785zM2.44 5.907H7.71A1.744 1.744 0 009.44 3.984h9.612c.96 0 1.742-.781 1.742-1.742 0-.96-.782-1.742-1.742-1.742h-1.827a.425.425 0 100 .85h1.827a.893.893 0 010 1.784H8.878a.425.425 0 00-.377.62.893.893 0 01-.792 1.302H2.44a.893.893 0 010-1.784h1.422a.425.425 0 00.378-.62.893.893 0 01.792-1.302h10.75a.425.425 0 100-.85H5.031a1.744 1.744 0 00-1.733 1.923H2.44c-.96 0-1.742.781-1.742 1.742 0 .96.782 1.742 1.742 1.742z" fill="#000"/>
</svg>
