<svg width="24" height="24" fill="none" xmlns="http://www.w3.org/2000/svg">
  <defs/>
  <path d="M18.813.837l4.35 4.35-.622.621-4.35-4.35.622-.621z" fill="#737373"/>
  <path d="M7.599 17.943l-.91.908a.708.708 0 01-1 0l-.54-.54a.708.708 0 010-1l.909-.91" fill="#D7E4EF"/>
  <path d="M17.296 10.728l1.471-1.47-4.023-4.025-7.168 7.168a5.05 5.05 0 00-1.463 3.962c.063.814.71 1.461 1.525 1.525a5.048 5.048 0 003.962-1.464l4.883-4.883" fill="#D7E4EF"/>
  <path d="M17.868 8.358l-7.167 7.167a5.05 5.05 0 01-3.962 1.464 1.66 1.66 0 01-.506-.12c.234.563.768.969 1.404 1.019a5.049 5.049 0 003.963-1.464l7.167-7.167-.899-.899z" fill="#C1CCD6"/>
  <path d="M14.246 13.779s-1.256.068-2.133-1.892c-.876-1.96-2.011-2.012-2.011-2.012l-2.526 2.526a5.05 5.05 0 00-1.463 3.962c.063.814.71 1.461 1.525 1.525a5.048 5.048 0 003.962-1.464l2.646-2.645z" fill="#5B9ED6"/>
  <path d="M13.015 13.211L10.7 15.525a5.05 5.05 0 01-3.962 1.464 1.66 1.66 0 01-.506-.12c.234.563.768.969 1.404 1.019a5.049 5.049 0 003.963-1.464l2.645-2.645s-.582.031-1.23-.568z" fill="#4F8ABA"/>
  <path d="M14.524 3.485l5.992 5.99-.765.766-5.991-5.992.764-.764z" fill="#B1BAC4"/>
  <path d="M14.524 3.485l5.063 5.062-.765.765.929.929.764-.765-5.99-5.991z" fill="#8F969E"/>
  <path d="M16.097 5.057l2.846-2.847 2.847 2.847-2.847 2.847-2.846-2.847z" fill="#BDBDBD"/>
  <path d="M18.944 2.21l-.483.483 1.494 1.495c.31.31.31.812 0 1.122l-1.803 1.802-2.055-2.055 2.847 2.847 2.363-2.364.484-.483-2.847-2.847z" fill="#A1A1A1"/>
  <path d="M23.401 5.425a.337.337 0 000-.476l-4.35-4.35a.337.337 0 00-.476 0l-.622.621a.337.337 0 000 .477l.513.513-.517.518a.337.337 0 00.476.476l.518-.517 2.37 2.37-2.37 2.37-2.37-2.37.654-.654a.337.337 0 10-.477-.477l-.654.654c-1.345-1.299-1.327-1.432-1.572-1.432-.24 0-.291.19-1.003.863a.337.337 0 000 .477l.745.745c-7.205 7.205-7.083 7.077-7.114 7.125a5.378 5.378 0 00-1.386 3.858l-.856.856c-.197.197-.306.46-.306.739 0 .48.33.759.338.77L.6 22.924a.337.337 0 10.476.477l4.344-4.343.032.032c.408.408 1.069.408 1.477 0l.856-.856c1.542.07 3-.519 4.054-1.572l4.315-4.314a.337.337 0 00-.477-.477l-1.56 1.56c-.288-.049-1.081-.307-1.695-1.681-.552-1.235-1.222-1.78-1.697-2.02l.264-.265 1.646 1.646a.337.337 0 10.476-.476l-1.646-1.646.708-.708.754.754a.337.337 0 00.477-.477l-.754-.754.708-.708.754.754a.337.337 0 10.476-.477l-.753-.754.909-.909 3.547 3.547-1.233 1.233a.337.337 0 10.477.476l1.233-1.232c.718.675.744.844.983.844a.336.336 0 00.239-.099c.701-.742.863-.766.863-1.003 0-.245-.12-.214-1.432-1.572l2.37-2.37c.47.432.52.612.752.612a.336.336 0 00.238-.099l.621-.622zM6.19 18.722c-.251 0-.316-.201-.802-.65a.37.37 0 010-.523l.539-.54a1.98 1.98 0 001.064 1.065c-.489.451-.549.648-.8.648zm5.616-6.697c.55 1.23 1.256 1.737 1.77 1.946l-2.214 2.215a4.706 4.706 0 01-3.698 1.366 1.315 1.315 0 01-1.214-1.215 4.705 4.705 0 011.007-3.296c1.664 1.615 1.611 1.723 1.862 1.723a.337.337 0 00.238-.575L7.91 12.543l.708-.708c.723.68.753.852.992.852a.337.337 0 00.239-.575l-.754-.754.708-.708c.723.68.752.853.992.853a.337.337 0 00.238-.576l-.586-.587c.346.183.884.625 1.358 1.685zm7.945-2.261L14.236 4.25l.288-.289 5.514 5.515-.288.288zm2.792-4.432l-3.874-3.873.145-.145 3.873 3.873-.144.145z" fill="#000"/>
</svg>
