<svg width="24" height="24" fill="none" xmlns="http://www.w3.org/2000/svg">
  <defs/>
  <path d="M16.837 20.186h2.605c.822 0 1.488-.666 1.488-1.488V15.72l-.744-2.233V2.325c0-.822-.666-1.488-1.488-1.488H5.302c-.822 0-1.488.666-1.488 1.488v11.163l-.745 2.233v2.977c0 .822.667 1.488 1.489 1.488h2.604" fill="#58565C"/>
  <path d="M20.186 13.488V2.325c0-.822-.666-1.488-1.488-1.488h-.91c.822 0 1.488.666 1.488 1.488v11.163l.744 2.233v2.977c0 .822-.666 1.488-1.488 1.488h.91c.822 0 1.488-.666 1.488-1.488V15.72l-.744-2.233z" fill="#49484D"/>
  <path d="M7.162 17.953v4.94c0 .15.12.27.27.27h9.135a.27.27 0 00.27-.27v-4.94H7.162z" fill="#B6E3EE"/>
  <path d="M15.938 17.953v4.94a.27.27 0 01-.27.27h.9a.27.27 0 00.269-.27v-4.94h-.899z" fill="#96D2E0"/>
  <path d="M8.278 17.953v3.824c0 .149.121.27.27.27h6.903a.27.27 0 00.27-.27v-3.824H8.277z" fill="#00BCE7"/>
  <path d="M14.822 17.953v3.824a.27.27 0 01-.27.27h.9a.27.27 0 00.269-.27v-3.824h-.899z" fill="#0094D4"/>
  <path d="M7.637 4.186H6.315a.27.27 0 01-.27-.27V2.595c0-.149.122-.27.27-.27h1.322c.149 0 .27.121.27.27v1.321a.27.27 0 01-.27.27z" fill="#fff"/>
  <path d="M7.637 2.325h-.9c.148 0 .269.121.269.27v1.321a.27.27 0 01-.27.27h.9a.27.27 0 00.27-.27V2.595a.27.27 0 00-.27-.27z" fill="#E6E6E6"/>
  <path d="M17.209 12a.744.744 0 100-1.488.744.744 0 000 1.488z" fill="#FF2551"/>
  <path d="M20.186 13.488H3.814l-.745 2.233H20.93l-.744-2.233z" fill="#49484D"/>
  <path d="M20.186 13.488h-.91l.744 2.233h.91l-.744-2.233z" fill="#3A393D"/>
  <g>
    <path d="M13.438 9.972h-2.876v5.749h2.876V9.97z" fill="#B6E3EE"/>
    <path d="M13.425 13.488h-2.863v2.233h2.863v-2.233z" fill="#96D2E0"/>
    <path d="M11.255 9.972H9.022v5.749h2.233V9.97z" fill="#FF2551"/>
    <path d="M11.255 13.488H9.022v2.233h2.233v-2.233z" fill="#C21750"/>
    <path d="M14.977 9.972h-2.233v5.749h2.233V9.97z" fill="#00CE96"/>
    <path d="M14.977 13.488h-2.233v2.233h2.233v-2.233z" fill="#00BA88"/>
    <path d="M12 11.256a4.093 4.093 0 100-8.186 4.093 4.093 0 000 8.186z" fill="#FFD151"/>
    <path d="M16.092 7.163a4.14 4.14 0 00-.024-.45 4.094 4.094 0 01-8.137 0 4.093 4.093 0 108.161.45z" fill="#F79B4A"/>
    <path d="M12 10.14a2.977 2.977 0 100-5.954 2.977 2.977 0 000 5.953z" fill="#00BCE7"/>
    <path d="M12 9.24a2.977 2.977 0 01-2.943-2.527 2.977 2.977 0 105.886 0A2.977 2.977 0 0112 9.241z" fill="#0094D4"/>
  </g>
  <g fill="#000">
    <path d="M21.263 15.672l-.001-.01a.336.336 0 00-.012-.048l-.727-2.18v-6.92a.337.337 0 00-.674 0v6.637h-4.536V10.1a4.412 4.412 0 001.117-2.936A4.435 4.435 0 0012 2.733a4.435 4.435 0 00-4.43 4.43c0 1.125.422 2.154 1.116 2.936v3.052H4.15V2.325c0-.635.517-1.151 1.152-1.151h13.396c.635 0 1.151.516 1.151 1.151v2.842a.337.337 0 00.674 0V2.325A1.827 1.827 0 0018.698.5H5.302a1.827 1.827 0 00-1.825 1.825v11.109l-.727 2.18v.002a.338.338 0 00-.012.047l-.002.01a.337.337 0 00-.004.048v2.977c0 1.006.82 1.825 1.826 1.825h2.267v2.64c0 .186.151.337.337.337h9.675c.186 0 .337-.15.337-.337v-2.64h2.268a1.827 1.827 0 001.825-1.825V15.72a.342.342 0 00-.004-.049zm-1.32-1.847l.52 1.559h-5.15v-1.559h4.63zm-6.862 1.559v-1.559h1.559v1.559h-1.56zm-1.488 0v-1.559h.814v1.559h-.814zm-2.233 0v-1.559h1.559v1.559h-1.56zM12 11.593c.137 0 .273-.007.407-.02v1.578h-.814v-1.577c.134.012.27.019.407.019zm1.08 1.558V11.46a4.415 4.415 0 001.56-.741v2.433h-1.56zM12 3.406a3.76 3.76 0 013.756 3.757A3.76 3.76 0 0112 10.919a3.76 3.76 0 01-3.756-3.756A3.76 3.76 0 0112 3.406zm-2.64 7.312c.46.342.987.597 1.559.741v1.693h-1.56v-2.434zm-.674 4.666h-5.15l.52-1.559h4.63v1.559zm-1.187 7.442v-4.535h.443v3.756c0 .186.15.337.337.337h7.442c.186 0 .337-.151.337-.337V18.29h.442v4.535h-9zm7.885-4.535v3.419H8.616v-3.42h6.768zm4.058 1.558h-2.268v-1.558h.407a.337.337 0 000-.674h-.742-.002-1.114-.002H8.28h-.002-1.861a.337.337 0 000 .674h.408v1.558H4.558a1.153 1.153 0 01-1.152-1.151v-2.64h17.187v2.64c0 .635-.516 1.151-1.151 1.151z"/>
    <path d="M6.046 1.988a.337.337 0 00-.337.337v1.86c0 .187.15.338.337.338h1.86c.186 0 .337-.151.337-.337v-1.86a.337.337 0 00-.337-.338h-1.86zm1.523 1.86H6.383V2.663h1.186V3.85zM16.128 11.256c0 .596.485 1.08 1.081 1.08s1.081-.484 1.081-1.08a1.082 1.082 0 00-2.162 0zm1.488 0a.408.408 0 11-.815-.001.408.408 0 01.815 0zM12 10.476a3.317 3.317 0 003.314-3.313A3.317 3.317 0 0012 3.849a3.317 3.317 0 00-3.313 3.314A3.317 3.317 0 0012 10.476zm0-5.953a2.643 2.643 0 012.64 2.64A2.643 2.643 0 0112 9.803a2.643 2.643 0 01-2.64-2.64A2.643 2.643 0 0112 4.523z"/>
  </g>
</svg>
