<svg width="24" height="24" fill="none" xmlns="http://www.w3.org/2000/svg">
  <defs/>
  <path d="M19.741 17.206a45.529 45.529 0 01-9.994 0 45.51 45.51 0 01-.17-8.084l3.351-4.554L14.744 2.1l1.816 2.468 3.352 4.554a45.71 45.71 0 01-.17 8.084z" fill="#EEEBEE"/>
  <path d="M19.991 10.693L14.744 5.73l-5.247 4.964c.017-.523.044-1.047.08-1.57l3.35-4.555 1.817-1.719 1.816 1.72 3.351 4.553c.036.524.063 1.048.08 1.571z" fill="#D3CED5"/>
  <path d="M20.79 9.953l-6.046-5.72-6.046 5.72-1.437-1.519 7.483-7.08 7.484 7.08-1.438 1.52z" fill="#DA4A54"/>
  <path d="M17.153 9.938a21.96 21.96 0 00-4.817 0 21.965 21.965 0 000 4.817c1.605.177 3.21.177 4.817 0a21.952 21.952 0 000-4.817z" fill="#BCD0DF"/>
  <path d="M22.616 16.33l-5.864 4.703c-.482.387-1.1.563-1.713.488l-7.903-.962-2.106.78c-1.13-1.164-.666-4.907-.666-4.907l.502-.137a1.901 1.901 0 011.062-1.832l3.39-1.655 1.742-.851a1.656 1.656 0 011.578 2.909L9.82 16.554l4.74.826c.571.099 1.158-.021 1.644-.337l4.715-3.06a1.45 1.45 0 011.697 2.347z" fill="#F1D0A5"/>
  <path d="M15.025 20.258c-3.246.422-5.484-1.482-6.838-3.273a1.909 1.909 0 01.492-2.76c3.27-2.095 4.115-2.018 4.563-1.57a1.657 1.657 0 00-2.182-.698l-1.743.851L6.57 14.15v.001l-.642.313a1.9 1.9 0 00-1.062 1.832l-.502.137s-.465 3.743.666 4.906l2.106-.779 7.903.962a2.296 2.296 0 001.713-.488l5.863-4.703c-2.026-.55-5.403 3.593-7.59 3.928z" fill="#F1B986"/>
  <path d="M3.663 15.961a6.829 6.829 0 00-2.822.997 55.326 55.326 0 002.01 5.689 6.829 6.829 0 002.822-.997 55.34 55.34 0 00-2.01-5.689z" fill="#80A6C6"/>
  <path d="M5.673 21.65a6.822 6.822 0 01-2.822.997 55.718 55.718 0 01-.582-1.46 7.261 7.261 0 002.944-1.03c.16.495.314.993.46 1.493z" fill="#5B8EB8"/>
  <path d="M23.436 14.724a1.791 1.791 0 00-.312-.622 1.801 1.801 0 00-2.39-.405l-.41.266c.05-1.329.043-2.67-.022-4.002l.254.24c.137.13.352.123.482-.013l1.438-1.52a.34.34 0 00-.014-.481L19.91 5.77a.341.341 0 00-.469.496l2.305 2.18-.969 1.025-5.799-5.487a.341.341 0 00-.468 0L8.712 9.472l-.97-1.024 7.002-6.626L18.45 5.33a.34.34 0 10.469-.495l-3.94-3.729a.341.341 0 00-.47 0L7.027 8.187a.341.341 0 00-.013.482l1.438 1.519a.34.34 0 00.482.013l.254-.24a45.84 45.84 0 00-.054 2.558L5.78 14.156a2.24 2.24 0 00-1.255 1.879l-.416.115a51.24 51.24 0 00-.131-.32.341.341 0 00-.357-.207 7.2 7.2 0 00-2.96 1.046.34.34 0 00-.147.385 55.92 55.92 0 002.022 5.724.341.341 0 00.356.207 7.2 7.2 0 002.961-1.046.341.341 0 00.147-.385l-.056-.19 1.233-.457.997.122a.342.342 0 00.082-.677l-1.079-.131a.34.34 0 00-.16.018l-1.272.471a56.053 56.053 0 00-1.38-3.923l.592-.164a.341.341 0 00.249-.35 1.56 1.56 0 01.872-1.503l5.131-2.507a1.317 1.317 0 011.733.555 1.312 1.312 0 01-.48 1.755l-2.817 1.689a.34.34 0 00.117.628l4.74.825a2.63 2.63 0 001.888-.386l4.715-3.06a1.115 1.115 0 011.674.636 1.11 1.11 0 01-.367 1.152l-.01.007-5.863 4.703c-.408.328-.94.48-1.46.416l-5.47-.666a.341.341 0 00-.082.676l5.47.666a2.65 2.65 0 001.969-.56l5.852-4.695a1.792 1.792 0 00.618-1.88zm-20.37 7.548a55.273 55.273 0 01-1.823-5.157 6.51 6.51 0 012.206-.78 55.283 55.283 0 011.822 5.158 6.508 6.508 0 01-2.206.78zm9.492-10.671c.016-.45.045-.903.088-1.353.584-.056 1.17-.089 1.757-.098v1.856h-1.231a1.982 1.982 0 00-.614-.405zm4.284-1.353c.057.584.09 1.17.099 1.758h-1.856V10.15c.587.01 1.173.042 1.757.098zm-3.365 4.26a1.991 1.991 0 00.157-1.82h.77v1.855a21.636 21.636 0 01-.927-.034zm1.608-1.82h1.856c-.01.586-.042 1.173-.099 1.756-.584.057-1.17.09-1.757.1v-1.857zm.934 4.07a1.95 1.95 0 01-1.4.286l-3.837-.669 2.03-1.217.02-.012c.63.054 1.265.081 1.9.082H14.757c.812 0 1.625-.045 2.432-.134a.341.341 0 00.301-.302 22.385 22.385 0 000-4.891.34.34 0 00-.301-.302 22.349 22.349 0 00-2.43-.134h-.033c-.811 0-1.623.045-2.428.134a.341.341 0 00-.302.302 22.472 22.472 0 00-.116 1.548 2.008 2.008 0 00-.971.202l-1.097.535c0-.966.033-1.942.096-2.909l4.835-4.575 4.835 4.575c.112 1.71.125 3.438.041 5.142l-3.601 2.338z" fill="#000"/>
  <path d="M11.397 14.776c.139 0 .279-.033.41-.103l.422-.225a.34.34 0 00-.32-.602l-.423.225a.184.184 0 01-.238-.057 2.685 2.685 0 01-.373-.862.34.34 0 00-.67.13c.005.023.112.568.477 1.112a.859.859 0 00.715.382zM3.816 21.366a.344.344 0 00.332-.266c.07-.3-.282-.528-.53-.352a.343.343 0 00-.12.4c.05.13.178.218.318.218z" fill="#000"/>
</svg>
