<svg width="24" height="24" fill="none" xmlns="http://www.w3.org/2000/svg">
  <defs/>
  <path d="M15.14 5.88l1.724-.15a2.002 2.002 0 110 4.005 2.002 2.002 0 011.744 2.988l.445 1.57c-.049.607-.195 1.112-.502 1.449-.246 1.1-11.974 1.168-11.995-.3.035-1.23.008-2.332-.08-3.351a1.993 1.993 0 011.136-.354c-.458 0-.88-.154-1.217-.412a15.978 15.978 0 00-.52-2.585 2.001 2.001 0 011.737-1.008 2.002 2.002 0 010-4.004l6.267.824c-.51.754-1.371 1.394-2.35 1.394" fill="#ED2772"/>
  <g fill="#CC2262">
    <path d="M12.02 12.85c-1.492 0-2.97-.067-4.425-.201-.513-.004-1-.17-1.408-.483a.342.342 0 01.416-.542 1.643 1.643 0 001.04.344c2.878.266 5.85.266 8.832 0a.342.342 0 01.061.68c-1.511.135-3.02.202-4.516.202zM5.874 9.652a.34.34 0 01-.295-.511 2.35 2.35 0 012.033-1.18c.02 0 .04.003.06.006 3.353.603 6.216.604 8.756.004a.342.342 0 01.157.664c-2.624.62-5.57.624-9.002.01a1.668 1.668 0 00-1.413.835.341.341 0 01-.296.172zM18.113 11.127a.338.338 0 01-.213-.075 1.643 1.643 0 00-1.007-.362c-3.14.553-6.165.551-8.989-.006a.342.342 0 01.133-.67c2.75.543 5.7.543 8.768-.001a.342.342 0 01.06-.005c.529 0 1.048.181 1.46.51a.341.341 0 01-.212.609zM18.113 6.743a.338.338 0 01-.213-.075 1.643 1.643 0 00-1.007-.361c-3.14.553-6.165.55-8.989-.007a.341.341 0 01.133-.67c2.75.543 5.7.543 8.768 0a.34.34 0 01.06-.006c.529 0 1.048.182 1.46.511a.341.341 0 01-.212.608zM12.554 15.104c-1.495 0-3.035-.138-4.642-.414a.341.341 0 01.116-.673c3.133.54 6.002.54 8.771.002a.33.33 0 01.066-.007c.46 0 .905-.194 1.219-.532a.341.341 0 11.5.463 2.351 2.351 0 01-1.686.752c-1.417.273-2.858.41-4.344.41zM5.985 4.563a2.478 2.478 0 011.853.072c1.69.75 3.395 1.036 5.096.86.379-.25.703-.584.946-.944l-6.268-.824a2 2 0 00-1.627.836z"/>
  </g>
  <path d="M3.704 11.737c.226 2.309.116 4.866-.105 7.106a1.362 1.362 0 102.711.267c.284-2.881.335-5.134.16-7.088-.22-2.46-.804-4.41-1.784-5.957a1.08 1.08 0 01-.073-1.07A2.316 2.316 0 015.91 3.742a2.478 2.478 0 011.928.044c2.74 1.215 5.517 1.215 8.256 0a2.478 2.478 0 011.928-.044 2.317 2.317 0 011.326 1.33c.156.4.186.846.085 1.29-.48 2.124-.645 4.541-.506 7.39a4.26 4.26 0 01-2.532 4.13c-1.123.566-1.675 1.86-1.352 3.074l.254.957c.081.307.197.604.35.882.125.229.232.351.511.359h.021c.41 0 .611-.441.76-.74l.65-2.047a.06.06 0 01.036-.054 6.974 6.974 0 004.023-6.694c-.127-2.6.018-4.776.442-6.656a4.914 4.914 0 00-.265-3.031 5.021 5.021 0 00-2.803-2.724 5.252 5.252 0 00-4.033.088c-2.034.902-4.012.902-6.046 0a5.253 5.253 0 00-4.033-.088 5.022 5.022 0 00-2.887 2.932 3.831 3.831 0 00.363 3.384c.48.758.816 1.652 1.045 2.627 0 0 .199.82.274 1.587z" fill="#CF4842"/>
  <path d="M17.162 17.44a4.275 4.275 0 01-.769.441 2.597 2.597 0 00-1.083 1.03 2.418 2.418 0 01.198-.104 4.244 4.244 0 001.654-1.368zM4.685 6.065a1.08 1.08 0 01-.072-1.07c.026-.06.054-.118.084-.176a2.307 2.307 0 00-1.091 1.247c-.118.312-.076.663.114.964.981 1.548 1.565 3.496 1.785 5.957.174 1.954.124 4.207-.16 7.088a1.406 1.406 0 01-.04.218A1.362 1.362 0 006.31 19.11c.284-2.881.334-5.133.16-7.088-.22-2.46-.804-4.41-1.785-5.957z" fill="#A83A36"/>
  <path d="M21.885 4.081l-.061-.15a5.022 5.022 0 00-2.803-2.724 5.252 5.252 0 00-4.033.088c-2.034.902-4.012.902-6.046 0a5.253 5.253 0 00-4.033-.088 5.04 5.04 0 00-2.18 1.645 5.124 5.124 0 011.215-.68 5.254 5.254 0 014.033.088c2.034.902 4.012.902 6.046 0a5.253 5.253 0 014.033-.089 5.022 5.022 0 012.864 2.875c.355.908.425 1.905.205 2.881-.425 1.88-.57 4.057-.443 6.656a7 7 0 01-1.57 4.792 6.982 6.982 0 002.535-5.757c-.127-2.599.018-4.776.442-6.656a4.912 4.912 0 00-.204-2.88zM16.659 21.276a.06.06 0 00-.036.055l-.575 1.812c.033.005.069.009.109.01h.021c.41 0 .61-.441.76-.74l.495-1.56a7.058 7.058 0 01-.774.423z" fill="#A83A36"/>
  <path d="M14.847.988c-1.941.861-3.828.861-5.77 0A5.597 5.597 0 004.781.894C2.028 1.981.488 5.178 2.094 7.711c.431.682.768 1.53 1 2.522a.341.341 0 00.665-.155c-.25-1.067-.616-1.986-1.089-2.732C.608 4.092 4.714-.201 8.8 1.612c2.128.944 4.196.944 6.324 0 3.585-1.59 7.488 1.486 6.63 5.28-.432 1.91-.58 4.118-.45 6.748a6.634 6.634 0 01-3.827 6.367c-.255.12-.163.188-.859 2.283-.094.18-.244.527-.442.527-.112-.003-.131.005-.234-.183-.307-.558-.352-.994-.573-1.761-.286-1.076.216-2.236 1.245-2.716a4.604 4.604 0 002.65-4.417c-.138-2.818.025-5.205.498-7.298.484-2.138-1.742-3.881-3.81-2.964-2.648 1.174-5.332 1.174-7.98 0-2.276-1.01-4.53 1.273-3.577 2.775.478.755.859 1.61 1.147 2.58l.002.01c.924 3.118.743 7.002.424 10.239a1.022 1.022 0 01-2.032-.2c.202-2.056.397-4.73.104-7.18a.342.342 0 00-.678.08c.286 2.386.094 5.012-.105 7.033a1.706 1.706 0 001.528 1.862 1.705 1.705 0 001.862-1.528c.104-1.057.177-2.03.219-2.936.655.3 1.814.456 2.528.53 1.027.106 2.25.16 3.48.16.81 0 1.624-.023 2.384-.072.734-.046 1.665-.133 2.38-.287-.497.579-.964.817-1.401 1.037-1.251.632-1.894 2.09-1.528 3.467.215.735.273 1.257.635 1.915.138.253.326.523.8.536.55.019.835-.402 1.076-.886.071-.148-.057.193.66-2.042a7.314 7.314 0 004.105-6.964c-.126-2.568.016-4.715.434-6.564.982-4.338-3.473-7.873-7.572-6.055zm3.231 8.752c.213-.13.404-.294.566-.483-.026.293-.047.591-.063.895a2.365 2.365 0 00-.503-.412zM4.925 5.134c.193-.455.545-.815.998-1.024a2.34 2.34 0 00.47 3.628c-.14.085-.272.185-.392.298-.783-2.224-1.388-2.166-1.076-2.902zm9.7 11.048c-2.016.092-4.222.02-5.758-.19-1.64-.222-1.933-.515-1.971-.565.028-1.03.017-2.098-.066-3.15.785-.418.908-.002 5.078.007 1.856.022 4.494-.113 4.744-.235.339-.165.198-.679-.18-.646-1.53.136-3.057.202-4.571.199-2.32-.028-4.172-.2-4.292-.2-.322 0-.629-.091-.896-.263a16.32 16.32 0 00-.471-2.342 1.667 1.667 0 011.337-.718c1.587.297 3.169.465 4.759.458 1.734.002 3.47-.246 4.259-.472.415-.118.266-.758-.168-.66-4.53 1.012-8.418-.009-8.82-.009a1.663 1.663 0 01-1.661-1.66c0-.917.745-1.662 1.66-1.662h.018l.07.028c1.775.787 3.565 1.08 5.35.881-.4.35-.914.617-1.49.626A50.66 50.66 0 018 5.395a.342.342 0 00-.065.68c2.4.227 4.856.301 7.224.152a.342.342 0 00-.043-.682c-.576.037-1.165.06-1.766.07.312-.245.573-.53.77-.812a11.21 11.21 0 002.108-.7c1.555-.69 3.229.596 2.869 2.188-.036.158-.07.318-.102.479a2.346 2.346 0 00-2.133-1.376.341.341 0 000 .682c.916 0 1.66.746 1.66 1.662a1.663 1.663 0 01-1.69 1.662c-.428.038-4.15.9-8.798.005a.342.342 0 00-.133.67c1.433.283 2.917.422 4.441.42h.037c1.496 0 3.004-.138 4.512-.413a1.663 1.663 0 011.632 1.66c0 .916-.745 1.661-1.661 1.661-.335 0-3.52.92-8.837.005a.341.341 0 10-.115.673c1.606.276 3.146.414 4.641.414 1.486 0 2.928-.136 4.345-.41a2.337 2.337 0 001.669-.735c.023.606.096 1.335-.339 2.28-.196.17-1.29.447-3.6.552z" fill="#000"/>
</svg>
