<svg width="24" height="24" fill="none" xmlns="http://www.w3.org/2000/svg">
  <defs/>
  <path d="M23.114.915H.944v22.17h22.17V.915z" fill="#FCD577"/>
  <path d="M17.879 4.543h-3.065v5.7h3.065v-5.7z" fill="#C4A457"/>
  <path d="M6.524 16.126c-.65 0-1.224.266-1.574.674v1.856c.35.408.924.674 1.574.674 1.066 0 1.93-.717 1.93-1.602 0-.885-.864-1.602-1.93-1.602z" fill="#fff"/>
  <path d="M23.114 3.255V.915H.944v22.17h14.678V21.32h-2.719v-4.456h-1.748v4.456H2.692v-7.34h11.871v-1.747H2.692V2.645h8.463v6.428h1.748V2.645h8.464v9.588h-2.19v1.748h2.19v7.339h-2.402v1.765h4.15V3.255z" fill="#CFDCE5"/>
  <g fill="#fff">
    <path d="M4.369 15.918H2.69v3.621H4.37a.729.729 0 00.728-.728v-2.164a.729.729 0 00-.728-.729zM7.116 2.645H2.69v7.81h2.177a2.248 2.248 0 002.248-2.248V2.645z"/>
  </g>
  <path d="M21.216 4.599h-1.304v5.558h1.304V4.6z" fill="#415E72"/>
  <path d="M23.085 4.316a.415.415 0 00-.415.415V22.67h-3.319v-.935h1.987c.229 0 .415-.186.415-.415v-7.34a.415.415 0 00-.415-.415h-1.774v-.917h1.774c.229 0 .415-.186.415-.415V2.645a.415.415 0 00-.415-.415h-8.464a.415.415 0 00-.415.415v6.013h-.917V2.645a.415.415 0 00-.415-.415H2.663a.415.415 0 00-.415.415v9.588c0 .23.186.415.415.415h1.501a.415.415 0 100-.83H3.078v-.948H4.84a2.666 2.666 0 002.663-2.663V3.06h3.209v6.013c0 .23.185.415.415.415h1.747c.23 0 .415-.186.415-.415V3.06h7.634v1.068h-1.096a.415.415 0 00-.416.415v5.7c0 .23.186.416.415.416h1.097v1.159h-1.774a.415.415 0 00-.415.415v1.748c0 .229.186.415.415.415h1.774v6.509h-1.987a.415.415 0 00-.415.415v1.765c0 .229.186.415.415.415h4.15c.229 0 .414-.186.414-.415V4.73a.415.415 0 00-.415-.415zM6.672 8.206c0 1.011-.822 1.834-1.832 1.834H3.078V3.06h.303v.269a.415.415 0 00.83 0V3.06h.25V4.16a.415.415 0 00.83 0V3.06h.248v.269a.415.415 0 00.83 0V3.06h.304v5.147zm13.57 1.623v-4.87h.68v4.87h-.68z" fill="#000"/>
  <path d="M23.085.5H.915A.415.415 0 00.5.915v22.17c0 .23.186.415.415.415h14.677c.23 0 .415-.186.415-.415V21.32a.415.415 0 00-.415-.415H13.29v-4.041a.415.415 0 00-.415-.415h-1.748a.415.415 0 00-.415.415v4.04H3.078v-.95H4.34c.39 0 .735-.197.941-.496a2.63 2.63 0 001.212.287c1.294 0 2.348-.905 2.348-2.017 0-.33-.095-.658-.273-.947a.415.415 0 00-.707.436c.1.16.15.332.15.51 0 .656-.681 1.188-1.518 1.188-.374 0-.732-.11-1.01-.303v-1.768a1.772 1.772 0 011.01-.303c.241 0 .472.043.687.13a.415.415 0 00.309-.771 2.659 2.659 0 00-.996-.19c-.436 0-.851.1-1.212.288a1.143 1.143 0 00-.941-.495H3.078v-1.107h11.456c.23 0 .415-.186.415-.415v-1.748a.415.415 0 00-.415-.415H5.492a.415.415 0 000 .83h8.627v.918H2.663a.415.415 0 00-.415.415v7.339c0 .23.185.415.415.415h8.463c.23 0 .415-.186.415-.415v-4.041h.918v4.04c0 .23.186.416.415.416h2.303v.935H1.33V1.33h21.34v1.925a.415.415 0 00.83 0V.915A.415.415 0 0023.085.5zM4.34 16.333c.173 0 .313.14.313.313v2.164c0 .173-.14.314-.313.314H3.078v-2.791H4.34z" fill="#000"/>
  <path d="M17.85 4.128h-3.064a.415.415 0 00-.415.415v5.7c0 .23.186.416.415.416h3.065c.229 0 .415-.186.415-.415V4.543a.415.415 0 00-.415-.415zm-2.649 5.7v-4.87h2.234v.526H16.23a.415.415 0 00-.415.415v2.989c0 .229.185.415.415.415h1.206v.526h-2.234zm2.234-1.355h-.791V6.314h.791v2.159zM6.377 18.143a.415.415 0 100-.83.415.415 0 000 .83zM4.875 8.946a.415.415 0 100-.83.415.415 0 000 .83z" fill="#000"/>
</svg>
