<svg width="24" height="24" fill="none" xmlns="http://www.w3.org/2000/svg">
  <defs/>
  <g fill="#465A65">
    <path d="M11.956 18.377a1.782 1.782 0 01-1.716-1.57H.843v2.035h9.4a3.812 3.812 0 011.712-.465zM13.768 16.808c-.101.866-.83 1.546-1.717 1.57a3.814 3.814 0 011.713.465h9.39v-2.035h-9.386z"/>
  </g>
  <path d="M10.227 16.602v-1.529c0-.976.8-1.776 1.777-1.776.976 0 1.776.8 1.776 1.776v1.53c0 .069-.005.137-.012.204h9.37l-5.74-6.87H6.583l-5.74 6.87h9.396a1.778 1.778 0 01-.012-.205z" fill="#546F7A"/>
  <path d="M12.004 23.163H8.287v-1.194c0-1.961 1.756-3.567 3.717-3.594 1.961.027 3.717 1.633 3.717 3.594v1.194h-3.717z" fill="#68B9D8"/>
  <path d="M12.003 18.375a3.67 3.67 0 00-.45.034c1.773.243 3.268 1.75 3.268 3.56v1.194h.9v-1.194c0-1.961-1.756-3.567-3.718-3.594z" fill="#3695B2"/>
  <path d="M11.99 9.937H8.563v-1.1c0-1.81 1.62-3.291 3.429-3.316 1.809.025 3.428 1.506 3.428 3.315v1.1h-3.428z" fill="#68B9D8"/>
  <path d="M11.99 5.521a3.392 3.392 0 00-.449.037c1.62.24 2.979 1.62 2.979 3.278v1.1h.899v-1.1c0-1.809-1.62-3.29-3.428-3.315z" fill="#3695B2"/>
  <path d="M11.982 18.378h.044a1.76 1.76 0 001.754-1.754v-1.573a1.76 1.76 0 00-1.754-1.754h-.044a1.76 1.76 0 00-1.755 1.754v1.573c0 .965.79 1.754 1.755 1.754z" fill="#353535"/>
  <path d="M12.021 13.302h-.044c-.143 0-.282.017-.416.05.757.195 1.32.885 1.32 1.7v1.572a1.76 1.76 0 01-1.339 1.704c.14.036.285.055.435.055h.044a1.76 1.76 0 001.754-1.754v-1.573a1.76 1.76 0 00-1.754-1.754z" fill="#232323"/>
  <path d="M11.97 5.524h.041c.89 0 1.618-.728 1.618-1.618v-1.45c0-.89-.728-1.619-1.618-1.619h-.04c-.89 0-1.619.728-1.619 1.618v1.451c0 .89.729 1.618 1.619 1.618z" fill="#FFC89F"/>
  <path d="M12.384 6.674h-.787l-.44-1.038c.27-.071.55-.111.834-.115.284.004.564.044.834.115l-.44 1.038z" fill="#D3333C"/>
  <path d="M11.992 9.25l-.85-.777.456-1.8h.787l.456 1.8-.85.777z" fill="#F2464F"/>
  <path d="M12.004 13.297c.614 0 1.158.316 1.477.793h2.662l-1.961-3.111H9.8L7.839 14.09h2.688c.319-.477.862-.793 1.477-.793z" fill="#EFE7E4"/>
  <path d="M14.182 10.979h-.9l1.961 3.111h.9l-1.961-3.111z" fill="#D8D1D0"/>
  <path d="M12.011.837h-.04c-.15 0-.293.02-.43.059.683.19 1.189.818 1.189 1.56v1.45c0 .741-.506 1.37-1.189 1.56.137.037.28.058.43.058h.04c.89 0 1.618-.728 1.618-1.618v-1.45c0-.89-.728-1.619-1.618-1.619z" fill="#F7B081"/>
  <path d="M23.345 16.528l-5.687-6.807a.337.337 0 00-.26-.121h-1.641v-.764c0-1.532-1.062-2.892-2.505-3.42.436-.358.715-.902.715-1.51v-1.45A1.957 1.957 0 0012.01.5h-.04a1.957 1.957 0 00-1.956 1.955v1.45c0 .609.28 1.153.716 1.511-1.443.528-2.506 1.888-2.506 3.42V9.6H6.583c-.1 0-.194.044-.259.12L.585 16.59v.001a.338.338 0 00-.026.036l-.005.008a.352.352 0 00-.018.035l-.002.003a.327.327 0 00-.014.041l-.002.009a.334.334 0 00-.007.034l-.002.01a.338.338 0 00-.002.04v2.035c0 .187.15.338.337.338h8.358c-.768.72-1.252 1.715-1.252 2.79v1.193c0 .186.15.337.337.337h1.766a.337.337 0 100-.674H8.624v-.857c0-.845.362-1.654 1.018-2.278a3.59 3.59 0 01.796-.57l.014-.007a3.61 3.61 0 01.437-.193l.014-.005.126-.042.028-.01.127-.035a3.627 3.627 0 01.376-.078l.03-.005a3.306 3.306 0 01.362-.03h.104c.058 0 .117.004.175.01a3.412 3.412 0 01.186.02l.032.005a3.456 3.456 0 01.502.114l.028.009.126.042.014.005.143.055.012.005c.096.04.19.084.282.133l.014.007c.288.152.557.344.796.57.656.624 1.018 1.433 1.018 2.278v.857h-4.207a.337.337 0 100 .674h4.544a.337.337 0 00.337-.337v-1.194c0-1.074-.485-2.069-1.252-2.79h8.35a.337.337 0 00.336-.337v-2.035a.337.337 0 00-.148-.279zM11.86 7.011h.262l.342 1.349-.473.433-.473-.433.342-1.349zm.301-.675h-.34l-.191-.45.065-.008h.002c.046-.006.092-.01.138-.013l.02-.001c.029-.002.057-.003.086-.003h.1c.029 0 .057.001.085.003l.02.001c.047.003.093.007.139.013h.002l.065.009-.19.45zM10.69 3.15c1.183-.128 1.625-.944 1.625-.944s.275.727.977.916v.785c0 .692-.551 1.257-1.238 1.28l-.058-.002h-.01l-.058.002a1.282 1.282 0 01-1.238-1.28v-.757zM1.18 18.505v-1.36h3.27a.337.337 0 100-.675H1.565l5.176-6.196H10.053a.337.337 0 100-.674H8.9v-.764c0-.772.33-1.512.93-2.082.329-.311.719-.55 1.137-.703l.276.65-.429 1.689c-.03.12.008.247.1.331l.85.778a.336.336 0 00.455 0l.85-.778a.337.337 0 00.099-.331L12.74 6.7l.275-.649c.418.153.809.392 1.136.703.6.57.931 1.31.931 2.082V9.6h-3.905a.337.337 0 100 .674h6.064l5.176 6.196h-8.3V15.05c0-.217-.033-.426-.095-.623h2.121a.337.337 0 00.285-.518l-1.96-3.111a.337.337 0 00-.286-.158H9.8a.337.337 0 00-.285.158L7.554 13.91a.337.337 0 00.285.517h2.146a2.085 2.085 0 00-.095.623v1.419H5.575a.337.337 0 100 .674h4.38c.117.453.382.847.74 1.127a4.195 4.195 0 00-.541.234H1.18zm10.906-4.868l.021.002a1.367 1.367 0 01.156.02h.008c.375.072.71.292.929.619l.01.012c.146.226.232.495.232.783v1.53a1.446 1.446 0 01-1.387 1.437l-.047-.002h-.01l-.047.001a1.446 1.446 0 01-1.377-1.27v-.001a1.406 1.406 0 01-.01-.166v-1.529c0-.288.085-.557.232-.783l.01-.012c.218-.327.554-.547.929-.618l.007-.002c.024-.004.048-.008.073-.01l.018-.003c.022-.003.043-.005.065-.006l.021-.002a1.453 1.453 0 01.167 0zm-.061-.677h-.044c-.663 0-1.255.31-1.638.793H8.45l1.536-2.437h4.01l1.536 2.437h-1.868a2.089 2.089 0 00-1.638-.793zm10.792 5.545h-8.964a4.197 4.197 0 00-.541-.234c.358-.28.623-.674.739-1.127h8.766v1.361z" fill="#000"/>
</svg>
