<svg width="24" height="24" fill="none" xmlns="http://www.w3.org/2000/svg">
  <defs/>
  <g fill="#FCD577">
    <path d="M11.014 9.894v4.543H8.249V10.94M15.457 8.081v6.356h-2.765V9.204"/>
  </g>
  <g fill="#EAC36E">
    <path d="M13.727 8.081v6.356h-1.036V9.204M9.284 8.082v6.355H8.248V9.205"/>
  </g>
  <path d="M14.99 6.771L7.515 9.81a1.592 1.592 0 101.2 2.95l7.473-3.038a1.592 1.592 0 00-1.2-2.95z" fill="#FCD577"/>
  <path d="M7.976 11.341c-.331-.814-.024-1.709.686-1.997l-1.146.465a1.592 1.592 0 101.2 2.95l1.146-.466c-.71.289-1.555-.137-1.886-.952z" fill="#EAC36E"/>
  <path d="M15.272 3.223L7.799 6.26a1.592 1.592 0 101.199 2.95l7.473-3.039a1.592 1.592 0 10-1.2-2.95z" fill="#FCD577"/>
  <path d="M8.258 7.792c-.33-.814-.024-1.709.687-1.997l-1.146.466a1.592 1.592 0 101.199 2.95l1.146-.467c-.71.289-1.555-.137-1.886-.952z" fill="#EAC36E"/>
  <path d="M12.317.992L8.55 2.523a1.592 1.592 0 101.199 2.95l3.767-1.532a1.592 1.592 0 00-1.199-2.95z" fill="#FCD577"/>
  <path d="M9.01 4.055c-.332-.815-.025-1.71.686-1.998l-1.146.466a1.592 1.592 0 101.199 2.95l1.146-.466c-.71.289-1.555-.138-1.886-.952z" fill="#EAC36E"/>
  <path d="M16.237 14.437H7.47v3.258h8.768v-3.258z" fill="#CFDCE5"/>
  <g fill="#BAC6CC">
    <path d="M9.436 14.437H7.468v3.258h1.968v-3.258zM16.236 17.695H7.468l1.791 2.238h5.186l1.791-2.238z"/>
  </g>
  <path d="M14.445 19.933H9.26v2.008h5.185v-2.008z" fill="#CFDCE5"/>
  <g fill="#BAC6CC">
    <path d="M10.684 19.933H9.26v2.008h1.424v-2.008zM10.668 21.94a1.185 1.185 0 102.37 0"/>
  </g>
  <path d="M17.688 5.462a1.953 1.953 0 00.01-1.505 1.954 1.954 0 00-1.057-1.071 1.953 1.953 0 00-1.505-.01l-.324.132a1.969 1.969 0 00-2.63-2.363L8.413 2.176a1.968 1.968 0 00-1.081 2.562c.172.424.477.755.846.966l-.516.21a1.953 1.953 0 00-1.071 1.057 1.954 1.954 0 00-.01 1.505c.168.414.465.75.847.967l-.048.02a1.969 1.969 0 00-1.08 2.562 1.967 1.967 0 001.579 1.21v.828h-.406a.374.374 0 00-.374.374v.756a.374.374 0 10.748 0v-.382h8.02v2.51h-1.437a.374.374 0 100 .748h1.032l-1.192 1.49H9.445l-1.192-1.49h5.13a.374.374 0 100-.748H7.849v-.881a.374.374 0 10-.748 0v1.263c.002.08.03.16.082.226l1.71 2.136v1.876c0 .207.167.374.373.374h1.08c.168.68.782 1.185 1.513 1.185.73 0 1.345-.505 1.513-1.185h1.08a.374.374 0 00.374-.374v-1.876l1.71-2.136a.374.374 0 00.08-.226l.002-.008v-3.258a.374.374 0 00-.375-.374h-.406V10.27l.5-.203a1.969 1.969 0 001.08-2.562 1.956 1.956 0 00-.849-.967l.05-.02a1.953 1.953 0 001.071-1.057zm-5.83 17.29a.811.811 0 01-.718-.437h1.436a.811.811 0 01-.718.437zm2.219-1.185H9.64v-1.26h4.437v1.26zM8.68 5.12a1.21 1.21 0 01-.655-.663 1.21 1.21 0 01.006-.932c.126-.3.362-.533.663-.655l3.768-1.532a1.22 1.22 0 011.58 1.602c-.114.272-.32.487-.581.617L9.518 5.16a1.209 1.209 0 01-.837-.04zm-.053 8.943v-.88c.079-.02.157-.046.234-.077l1.782-.725v1.682H8.628zm6.46 0H13.07v-1.814a.374.374 0 00-.748 0v1.814h-.93v-1.986l3.694-1.502v3.488zm1.635-6.275a1.22 1.22 0 01-.67 1.586L8.58 12.412a1.22 1.22 0 01-1.587-.67 1.22 1.22 0 01.67-1.586L12.475 8.2a.374.374 0 10-.282-.693L8.788 8.89c-.28.094-.583.083-.858-.033a1.21 1.21 0 01-.655-.664 1.21 1.21 0 01.006-.932c.127-.3.362-.532.664-.655l7.473-3.038a1.21 1.21 0 01.932.006c.3.127.532.363.655.664.122.301.12.632-.006.932a1.21 1.21 0 01-.664.655l-1.383.562a1.993 1.993 0 00-.098.037l-1.366.555a.374.374 0 10.282.693l.784-.318a.388.388 0 00.042-.014l.614-.25a1.22 1.22 0 011.513.697z" fill="#000"/>
</svg>
