<svg width="24" height="24" fill="none" xmlns="http://www.w3.org/2000/svg">
  <defs>
    <path d="M11.343 17.395c-.439-.351-1.07-.851-1.802-1.43l-7.854 6.98a.622.622 0 00.47.218h19.686a.62.62 0 00.45-.197l-7.844-6.994c-.729.575-1.356 1.073-1.793 1.423a1.04 1.04 0 01-1.313 0z" fill="#FFE471" id="reuse-0"/>
  </defs>
  <path d="M22.466 9.68a1.473 1.473 0 00-.514-.888l-9.299-7.709a1.039 1.039 0 00-1.34.001L2.046 8.792a1.475 1.475 0 00-.512.888l-.017 12.804c0 .375.286.68.64.68h19.686c.354 0 .64-.305.64-.68l-.017-12.803z" fill="#FFE471"/>
  <path d="M20.56 18.827H3.44V4.431c0-.794.645-1.438 1.44-1.438H19.12c.795 0 1.439.644 1.439 1.438v14.396z" fill="#EDEDED"/>
  <path d="M19.12 2.993h-.897v15.834h2.336V4.431c0-.794-.644-1.438-1.438-1.438z" fill="#D6D6D6"/>
  <path d="M22.483 22.484L22.466 9.68s-7.52 5.878-9.81 7.714a1.04 1.04 0 01-1.313 0C9.053 15.56 1.534 9.68 1.534 9.68l-.017 12.804c0 .375.286.679.64.679h19.686c.354 0 .64-.304.64-.68z" fill="#F2CA20"/>
  <path d="M22.466 9.68l-2.287 1.79.013 9.075c0 .375-.287.68-.64.68H1.517l-.001 1.259c0 .375.286.68.64.68h19.686c.353 0 .64-.305.64-.68l-.017-12.803z" fill="#E0B917"/>
  <use xlink:href="#reuse-0"/>
  <use xlink:href="#reuse-0"/>
  <path d="M2.156 23.163h19.687a.62.62 0 00.45-.197l-2.241-1.999a.626.626 0 01-.501.257H3.624l-1.937 1.721a.622.622 0 00.47.218z" fill="#F2CA20"/>
  <path d="M12.223 5.707l.788 2.428c.033.1.127.169.233.169h2.553c.236 0 .335.302.143.442l-2.065 1.5a.244.244 0 00-.089.273l.789 2.428a.244.244 0 01-.376.273l-2.065-1.5a.244.244 0 00-.287 0l-2.065 1.5a.244.244 0 01-.376-.273l.788-2.428a.244.244 0 00-.088-.273l-2.065-1.5a.244.244 0 01.143-.442h2.553c.106 0 .2-.069.232-.17l.789-2.427a.244.244 0 01.465 0z" fill="#F43B45"/>
  <g fill="#000">
    <path d="M22.803 9.68a.326.326 0 00-.005-.055 1.807 1.807 0 00-.63-1.093L20.895 7.48V4.432c0-.98-.796-1.776-1.775-1.776h-4.043L12.868.824a1.37 1.37 0 00-1.77.001l-2.201 1.83H4.879c-.98 0-1.776.798-1.776 1.777v3.042L1.83 8.534a1.81 1.81 0 00-.628 1.09.345.345 0 00-.005.055L1.18 22.484c0 .56.438 1.016.977 1.016h19.686c.538 0 .977-.456.977-1.017L22.803 9.68zm-20.933.69c1.307 1.023 4.697 3.678 7.147 5.61l-7.163 6.367.016-11.977zm7.684 6.035c.639.504 1.187.939 1.579 1.253a1.384 1.384 0 001.734 0c.39-.313.935-.745 1.57-1.246l7.194 6.414H2.329l7.225-6.421zm12.592 5.978l-7.173-6.395c2.451-1.933 5.848-4.593 7.157-5.617l.016 12.012zM11.529 1.343a.704.704 0 01.91 0l1.584 1.313H9.95l1.579-1.313zM2.26 9.051l.842-.7v1.394a.337.337 0 10.674 0V4.432c0-.608.494-1.102 1.102-1.102H19.12c.607 0 1.102.494 1.102 1.102v5.313a.337.337 0 10.673 0V8.354l.841.697c.161.133.281.306.349.5-1.138.89-7.567 5.92-9.64 7.581a.7.7 0 01-.892 0c-2.073-1.66-8.502-6.692-9.64-7.583a1.14 1.14 0 01.347-.498z"/>
    <path d="M7.843 9.018l2.011 1.461-.768 2.364a.58.58 0 00.894.65l2.011-1.461 2.01 1.46a.58.58 0 00.895-.65l-.768-2.363 2.01-1.46a.58.58 0 00-.34-1.052h-2.486l-.768-2.364a.58.58 0 00-1.106 0l-.768 2.364H8.185a.58.58 0 00-.342 1.051zm2.895-.378a.58.58 0 00.552-.401l.701-2.157.7 2.157c.079.24.301.401.554.401h2.267l-1.834 1.333a.58.58 0 00-.211.65l.7 2.157-1.834-1.333a.58.58 0 00-.683 0L9.815 12.78l.7-2.157a.58.58 0 00-.21-.65L8.47 8.64h2.268z"/>
  </g>
</svg>
