<svg width="24" height="24" fill="none" xmlns="http://www.w3.org/2000/svg">
  <defs/>
  <path d="M21.733 20.366H7.043a.372.372 0 01-.373-.372V.872c0-.205.167-.372.372-.372h14.691c.206 0 .373.167.373.372v19.122a.372.372 0 01-.373.372z" fill="#A0758E"/>
  <g fill="#826075">
    <path d="M6.668 5.07h10.21c.424 0 .767.344.767.767v14.53l-8.17-.019-2.807-14.43v-.847zM20.096 4.55H8.628a.351.351 0 01-.33-.217L7.122 1.326a.319.319 0 01.04-.306.357.357 0 01.29-.143h13.871c.116 0 .225.054.29.145.066.09.08.206.038.309l-1.227 3.006a.352.352 0 01-.328.213z"/>
  </g>
  <path d="M16.62 17.837l.018-11.158a.776.776 0 00-.775-.777L3.12 5.882a.776.776 0 00-.777.774l-.025 15.525c0 .428.346.776.775.776l12.745.02a.776.776 0 00.776-.774l.004-2.055.003-2.311z" fill="#FFEFCA"/>
  <path d="M14.731 8.24H8.65v3.844h6.082V8.239z" fill="#fff"/>
  <path d="M6.62 4.355a.372.372 0 00.745 0V3.041l.524 1.414a.372.372 0 00.35.243h12.145a.372.372 0 00.347-.238l.58-1.5v16.81h-2.637a.372.372 0 100 .745h3.01a.372.372 0 00.372-.373V1.022c0-.01 0-.02-.002-.03a.372.372 0 00-.37-.397H6.992a.372.372 0 00-.37.397l-.002.03v3.333zm13.509-.402H8.497l-.95-2.56H21.12l-.99 2.56z" fill="#000"/>
  <path d="M2.294 5.657a.372.372 0 00-.373.372l-.026 17.076a.373.373 0 00.371.373l14.296.022a.372.372 0 00.373-.372l.005-2.83a.372.372 0 00-.745-.001l-.004 2.458-13.551-.021.025-16.332 13.552.022-.018 11.561c0 .206.166.373.371.373h.001a.372.372 0 00.372-.372l.019-11.934a.372.372 0 00-.372-.372L2.294 5.657z" fill="#000"/>
  <path d="M14.735 17.193l-10.573-.017a.372.372 0 00-.001.745l10.573.017a.372.372 0 00.001-.745zM14.732 19.526a.372.372 0 00.001-.744L4.16 18.764a.372.372 0 00-.001.745l10.573.017zM14.735 13.867L4.162 13.85a.372.372 0 00-.001.745l10.573.017a.372.372 0 00.001-.745zM4.159 16.183l10.573.018a.372.372 0 00.001-.745L4.16 15.439a.372.372 0 00-.001.744zM6.486 20.353a.372.372 0 00-.001.744l5.56.01a.372.372 0 000-.745l-5.559-.01zM4.924 10.812c-.158 0-.282.208-.282.35 0 .26.389.51.872.537v.103c0 .109.09.198.197.198a.198.198 0 00.198-.198v-.126c.46-.09.773-.398.773-.897 0-.539-.406-.74-.773-.88v-.62c.234.031.311.15.44.15.183 0 .258-.23.258-.341 0-.271-.433-.346-.698-.36V8.63a.198.198 0 00-.197-.197.198.198 0 00-.198.197v.114c-.426.07-.798.324-.798.838 0 .517.424.7.798.843v.68c-.284-.066-.422-.293-.59-.293zm1.151.034c0 .117-.069.19-.166.232v-.48c.1.062.166.14.166.248zM5.323 9.52c0-.085.058-.167.191-.213v.44c-.116-.059-.19-.127-.19-.227zM14.682 12.605a.372.372 0 00.372-.373V8.388a.372.372 0 00-.372-.372H8.6a.372.372 0 00-.372.372v3.844c0 .206.166.373.372.373h6.082zM8.972 8.76h5.338v3.1H8.971v-3.1z" fill="#000"/>
</svg>
