<svg width="24" height="24" fill="none" xmlns="http://www.w3.org/2000/svg">
  <defs/>
  <path d="M22.276 18.136h-1.569v.734h1.57v-.734zM3.293 18.136h-1.57v.734h1.57v-.734zM12 3.449c.272-.57.655-.977 1.002-1.255h-2.005c.347.278.73.685 1.002 1.255z" fill="#BD1515"/>
  <path d="M12.426 4.498l1.825-1.016-.102-1.144c-.552.255-1.482.867-1.723 2.16zM13.468 21.072a.367.367 0 01-.367-.367h-.734v1.1h4.02v-.733h-2.919zM11.633 21.072H7.489v.734h4.144v-.734z" fill="#F2484B"/>
  <path d="M11.633 19.604H7.489v.734h4.144v-.734zM13.101 20.705c0-.203.164-.367.367-.367h2.92v-.734h-4.02v1.1h.733z" fill="#BD1515"/>
  <path d="M11.574 4.498c-.242-1.293-1.172-1.905-1.723-2.16l-.102 1.144 1.825 1.016z" fill="#F2484B"/>
  <path d="M14.797 16.313c0-.203.165-.367.367-.367H17v-6.15c-.513-.581-.734-1.174-.734-1.954v-3.5l-1.563-.271-2.335 1.3v2.72a.367.367 0 11-.734 0v-2.72l-2.336-1.3-1.563.272v3.5c0 .78-.221 1.372-.734 1.952v6.151h1.835a.367.367 0 110 .734H7v2.067c0 .067.056.123.122.123h4.51V9.56a.367.367 0 11.735 0v9.31h4.51a.124.124 0 00.122-.123V16.68h-1.835a.367.367 0 01-.367-.367z" fill="#F2484B"/>
  <path d="M6.367 9.4c.462-.486.634-.908.634-1.558V4.541a2.1 2.1 0 00-.601.408l-5.166 5.518v6.812c0 .067.056.123.123.123H3.66a.124.124 0 00.123-.123v-6.957a.367.367 0 11.734 0v1.028l1.85-1.95zM19.484 10.322a.367.367 0 11.734 0v6.957c0 .067.056.123.122.123h2.304a.124.124 0 00.122-.123v-6.812L17.601 4.95A2.101 2.101 0 0017 4.54v3.301c0 .65.172 1.072.633 1.558l1.851 1.95v-1.028z" fill="#F2EBD9"/>
  <path d="M23.4 10.071l-5.264-5.624c-.328-.351-.956-.69-1.43-.773l-1.728-.3-.14-1.58-.002-.01a.246.246 0 00-.007-.038c0-.003 0-.006-.002-.009v-.004a.292.292 0 00-.008-.023l-.004-.012a.316.316 0 00-.009-.02l-.005-.013a.292.292 0 00-.01-.017l-.007-.014-.009-.012a.355.355 0 00-.028-.037l-.004-.005-.014-.013-.01-.011-.013-.01-.015-.013-.011-.007-.018-.012-.01-.006a.41.41 0 00-.02-.01l-.011-.006a.377.377 0 00-.02-.008l-.014-.005a.332.332 0 00-.106-.018H9.52a.346.346 0 00-.107.018l-.013.004a.386.386 0 00-.022.01l-.009.004a.357.357 0 00-.024.013c-.002 0-.004.002-.005.003a.367.367 0 00-.177.282l-.141 1.579-1.729.3c-.473.083-1.101.422-1.43.773L.6 10.07a.367.367 0 00-.099.251v6.957c0 .34.2.635.49.773v1.185c0 .202.164.367.366.367H3.66a.367.367 0 00.367-.367v-1.185a.857.857 0 00.49-.773v-4.863l1.75-1.844v8.175c0 .341.2.635.489.773v2.653c0 .202.164.367.367.367h9.632a.367.367 0 00.367-.367v-2.605a.858.858 0 00.612-.82v-8.176l1.75 1.844v4.863c0 .34.2.635.489.773v1.185c0 .202.164.367.367.367h2.303a.367.367 0 00.367-.367v-1.185a.856.856 0 00.49-.773v-6.957a.367.367 0 00-.1-.25zM1.724 18.87v-.734h1.57v.734h-1.57zM4.15 9.955a.367.367 0 00-.367.367v6.957a.124.124 0 01-.122.122H1.356a.124.124 0 01-.122-.122v-6.812l5.165-5.518c.137-.146.368-.299.601-.408v3.301c0 .65-.171 1.072-.633 1.558l-1.85 1.95v-1.028a.367.367 0 00-.368-.367zm10.102-6.473l-1.825 1.016c.241-1.293 1.171-1.905 1.723-2.16l.102 1.144zM12 3.45a3.604 3.604 0 00-1.002-1.255h2.004c-.347.278-.73.685-1.002 1.255zm-.426 1.05L9.749 3.481l.102-1.144c.551.255 1.481.867 1.723 2.16zm.059 15.839H7.49v-.734h4.143v.734zm-4.143.734h4.143v.734H7.49v-.734zm4.877.734v-2.202h4.02v.734h-2.919a.367.367 0 100 .734h2.92v.734h-4.021zM17 18.747a.124.124 0 01-.123.123h-4.51V9.56a.367.367 0 10-.734 0v9.31h-4.51A.124.124 0 017 18.747V16.68h1.835a.367.367 0 100-.734H7v-6.15c.513-.581.734-1.174.734-1.954v-3.5l1.563-.271 2.336 1.3v2.72a.367.367 0 10.734 0v-2.72l2.335-1.3 1.564.272v3.5c0 .78.22 1.372.734 1.952v6.151h-1.835a.367.367 0 100 .734H17v2.067zm.633-9.347C17.17 8.914 17 8.491 17 7.842V4.541c.232.11.464.262.6.408l5.166 5.518v6.812a.124.124 0 01-.123.123H20.34a.124.124 0 01-.122-.123v-6.957a.367.367 0 10-.734 0v1.028L17.633 9.4zm3.074 8.736h1.57v.734h-1.57v-.734z" fill="#082947"/>
</svg>
