<svg width="24" height="24" fill="none" xmlns="http://www.w3.org/2000/svg">
  <defs/>
  <g fill="#FFF9F0">
    <path d="M20.765 12.326h-1.387V9.944a.693.693 0 011.387 0v2.383zM17.53 10.964h-1.387V8.58a.693.693 0 111.386 0v2.384zM3.234 11.16v1.166h1.387V9.944a.693.693 0 10-1.387 0v1.218zM6.47 10.964h1.387V8.58a.693.693 0 10-1.387 0v2.384z"/>
    <path d="M12.84 7.996l9.2 3.756a1.8 1.8 0 011.119 1.666v.93L12.774 12.23"/>
  </g>
  <path d="M22.04 11.75l-9.2-3.755-.009.554 7.844 3.202a1.8 1.8 0 011.12 1.666v.652l1.364.278v-.93a1.8 1.8 0 00-1.12-1.666z" fill="#FAE8DB"/>
  <path d="M11.16 7.995l-9.2 3.756a1.8 1.8 0 00-1.12 1.666v.93l10.385-2.118" fill="#FFF9F0"/>
  <path d="M13.046 1.703A1.103 1.103 0 0012 .894a1.122 1.122 0 00-1.086.833l-.599 2.168a17.375 17.375 0 00-.627 4.624l.824 13.204a1.474 1.474 0 002.943 0l.823-13.204c0-1.562-.211-3.118-.627-4.624l-.605-2.192z" fill="#FFF9F0"/>
  <path d="M13.65 3.895l-.604-2.192A1.103 1.103 0 0012 .894a1.086 1.086 0 00-.695.24 1.1 1.1 0 01.376.57l.606 2.191c.416 1.506.626 3.062.626 4.624l-.823 13.205a1.474 1.474 0 01-.79 1.215 1.474 1.474 0 002.153-1.215l.824-13.205c0-1.562-.21-3.118-.626-4.624z" fill="#FAE8DB"/>
  <path d="M15.775 20.67H8.191a.506.506 0 01-.486-.367l-.166-.578a.506.506 0 01.487-.644h7.915c.336 0 .578.321.486.645l-.166.577a.506.506 0 01-.486.366z" fill="#E9B665"/>
  <path d="M15.94 19.08h-1.364c.336 0 .579.322.486.646l-.165.577a.506.506 0 01-.486.366h1.364c.226 0 .424-.15.486-.366l.166-.578a.506.506 0 00-.487-.644z" fill="#C99C56"/>
  <path d="M12.32 15.655a5.19 5.19 0 011.5.22l.116-1.868a9.882 9.882 0 01-4.082-2.847l.309 4.963a5.172 5.172 0 012.157-.468z" fill="#E9B665"/>
  <path d="M9.854 11.16l.086 1.38c.402.315.829.599 1.277.848a2.426 2.426 0 011.252 2.27c.468.013.921.088 1.35.217l.117-1.868a9.88 9.88 0 01-4.082-2.847z" fill="#C99C56"/>
  <path d="M5.027 14.899a.341.341 0 00-.341.34v1.226a.341.341 0 00.682 0V15.24a.341.341 0 00-.341-.341zM3.695 14.899a.341.341 0 00-.341.34v3.455a.341.341 0 10.682 0V15.24a.341.341 0 00-.341-.341zM18.695 14.899a.341.341 0 00-.34.34v1.226a.341.341 0 10.681 0V15.24a.341.341 0 00-.34-.341zM20.029 14.899a.341.341 0 00-.341.34v3.455a.341.341 0 10.681 0V15.24a.341.341 0 00-.34-.341z" fill="#000"/>
  <path d="M22.168 11.435l-1.062-.433v-1.06a1.036 1.036 0 00-2.069 0v.215l-1.166-.476V8.579a1.036 1.036 0 00-2.07 0v.257l-1.184-.483a17.718 17.718 0 00-.637-4.548l-.605-2.193a1.45 1.45 0 00-1.37-1.059h-.021a1.46 1.46 0 00-1.399 1.084l-.273.988a.34.34 0 10.658.182l.272-.989a.779.779 0 01.742-.583h.01a.765.765 0 01.723.559l.605 2.192c.407 1.473.614 2.995.615 4.523l-.312 5.008a9.6 9.6 0 01-3.439-2.495l-.156-2.513c0-1.411.177-2.82.525-4.187a.341.341 0 00-.661-.168 17.728 17.728 0 00-.545 4.213l-1.15.47v-.258a1.036 1.036 0 00-2.07 0v1.102l-1.167.476v-.215a1.036 1.036 0 00-2.068 0v1.06l-1.062.433A2.133 2.133 0 00.5 13.417v.93a.34.34 0 00.41.334l5.695-1.161a.34.34 0 10-.137-.669L1.182 13.93v-.512c0-.595.356-1.125.907-1.35l4.513-1.843 2.78-1.135.195 3.128-1.808.37a.341.341 0 00.136.667l1.715-.35.209 3.346.155 2.49H8.026a.84.84 0 00-.676.337.84.84 0 00-.138.742l.165.578a.85.85 0 00.814.613h1.935l.046.735c.059.954.855 1.702 1.811 1.702.957 0 1.752-.748 1.812-1.702l.046-.735h1.935a.85.85 0 00.814-.613l.165-.578a.84.84 0 00-.138-.742.84.84 0 00-.676-.337h-1.959l.365-5.842 8.744 1.783a.343.343 0 00.409-.334v-.93c0-.874-.523-1.652-1.332-1.982zM19.72 9.942a.353.353 0 01.704 0v.781l-.704-.287v-.494zM16.483 8.58a.353.353 0 01.704 0v.823l-.704-.287v-.536zm-2.904 5.657l-.075 1.206a5.551 5.551 0 00-3.031.188l-.222-3.554c.97.939 2.102 1.675 3.328 2.16zM6.81 8.58a.353.353 0 01.705 0v.536l-.705.287V8.58zM3.576 9.942a.353.353 0 01.704 0v.494l-.704.287v-.78zm9.538 11.76a1.135 1.135 0 01-1.13 1.063 1.135 1.135 0 01-1.132-1.063l-.043-.692h2.349l-.044.692zm2.958-2.215a.162.162 0 01.027.145l-.165.577a.165.165 0 01-.159.12H8.191a.165.165 0 01-.158-.12l-.166-.577a.161.161 0 01.027-.145.162.162 0 01.132-.065h7.915c.071 0 .113.04.131.065zm-3.748-.747v-.717a.341.341 0 10-.682 0v.717h-.975l-.149-2.398a4.865 4.865 0 012.944-.21l-.163 2.608h-.975zm10.494-4.81l-8.429-1.72.196-3.134 2.811 1.148h.002l1.847.755h.002l1.385.566h.002l1.277.522c.55.225.907.755.907 1.35v.512z" fill="#000"/>
  <path d="M12.818 6.648a.341.341 0 00.34-.341v-.461c0-.627-.51-1.137-1.136-1.137-.627 0-1.137.51-1.137 1.137v.46a.341.341 0 10.682 0v-.46a.455.455 0 01.91 0v.46c0 .189.152.342.34.342z" fill="#000"/>
</svg>
