<svg width="24" height="24" fill="none" xmlns="http://www.w3.org/2000/svg">
  <defs/>
  <g fill-rule="evenodd" clip-rule="evenodd">
    <path d="M9.835 8.234H5.483c-.55 0-1 .45-1 1.001v1l3 .743 3.353-.742V9.235c0-.55-.45-1.001-1-1.001z" fill="#838383"/>
    <path d="M10.836 10.236H4.484c-1.627.28-2.126 1.398-2.308 2.723-.143 1.043.355.962 1.242.962h17.788c.801 0 .623-.742-.096-1.827a13.517 13.517 0 00-.297-.432c-1.805-2.54-3.712-3.624-4.54-3.931l-1.134-.438-.755.438.726 1.552c.722 1.44-1.762 3.957-4.274.953z" fill="#FFD659"/>
    <path d="M17.04 6.338l-3.8-1.312c-.165-.056-.318.144-.318.318v2.069a.32.32 0 00.318.318h3.8a.319.319 0 00.317-.318v-.757c0-.174-.152-.26-.317-.318z" fill="#ECECEC"/>
    <path d="M17.04 6.338l-.918-.316h.001c.165.057.313.142.313.316v1.08a.32.32 0 01-.258.313h.862a.319.319 0 00.317-.318v-.757c0-.174-.153-.261-.317-.318z" fill="#CECECE"/>
    <path d="M20.813 11.662c-1.805-2.54-3.712-3.624-4.54-3.931h-1.421c.6.222 1.768.853 3.052 2.152.488.492.992 1.08 1.487 1.78.1.138.199.282.297.43.72 1.086.899 1.828.097 1.828h1.422c.8 0 .622-.742-.097-1.827a13.354 13.354 0 00-.297-.432z" fill="#FFBF00"/>
    <path d="M10.836 9.235c0-.55-.45-1.001-1-1.001H8.428c.497.057.886.483.886.995v1l-.03.007h1.551V9.235z" fill="#595959"/>
    <path d="M18.44 13.921H3.418c-.033 1.145.402 1.977 1.115 2.605 3.217 1.437 8.447 2.645 11.5 1.22 2.192-1.022 2.892-1.036 4.029-2.066.433-.536.785-1.151 1.144-1.759H18.44z" fill="#ECECEC"/>
    <path d="M18.44 13.921H3.418c-.008.273.01.528.053.766H20.75c.155-.252.306-.51.457-.766H18.44z" fill="#CECECE"/>
    <path d="M7.424 16.98c-1.075-.402-2.045-.517-2.89-.454-2.318.17-3.693 1.672-3.695 2.24v.002c.001.134.078.214.235.214H9.262c-.086-.895-.637-1.59-1.838-2.002z" fill="#03BED7"/>
    <path d="M14.773 16.388c-2.886 1.346-5.076-.527-7.348.592-.045.022-.09.045-.133.069-.993.539-1.43 1.933-1.43 1.933h17.001c.839 0-.103-2.543-2.8-3.302-1.335-.376-3.1-.315-5.29.708z" fill="#A6E7F0"/>
    <path d="M22.863 18.982c.84 0-.103-2.543-2.8-3.302-1.001-.281-2.244-.318-3.728.113 2.425.87 3.247 3.19 2.447 3.19h4.081z" fill="#6BD9E7"/>
  </g>
  <path d="M22.373 16.594c-.34-.32-.92-.77-1.755-1.086.287-.406.542-.837.792-1.262.331-.05.495-.222.574-.37.221-.412.039-1.02-.59-1.969-1.452-2.19-2.964-3.372-3.957-3.97.157-.121.26-.31.26-.524v-.756c0-.205-.095-.482-.546-.64l-3.8-1.311h-.002a.528.528 0 00-.482.076.712.712 0 00-.285.563v2.068c0 .363.295.658.658.658h.929l.634 1.357.004.008c.248.494-.032 1.212-.623 1.6-.882.578-2 .231-3.008-.925v-.876c0-.739-.601-1.34-1.34-1.34H5.483c-.738 0-1.338.601-1.338 1.34v.727c-1.755.435-2.158 1.878-2.305 2.951-.068.497-.01.82.187 1.044.244.278.618.305 1.056.306.04.765.29 1.44.746 2.014-1.209.228-2.16.797-2.758 1.423-.224.236-.725.833-.525 1.301.086.201.284.321.529.321H22.863a.603.603 0 00.58-.388c.223-.56-.227-1.545-1.07-2.34zM13.26 7.392V5.393l3.668 1.266a.57.57 0 01.089.038v.695H13.26zm-9.498 6.87h9.4a.34.34 0 000-.68H3.419l-.18.001c-.297.002-.633.004-.702-.074-.014-.015-.078-.112-.025-.504.207-1.505.788-2.21 2.002-2.43h2.255a.34.34 0 100-.678H4.824v-.662c0-.364.296-.661.66-.661h4.352c.365 0 .661.297.661.662v.661H8.324a.34.34 0 100 .679h2.357c.901 1.027 1.813 1.407 2.595 1.407.488 0 .926-.148 1.28-.38.883-.58 1.26-1.662.86-2.467l-.498-1.065h1.291c.26.104 1.15.502 2.26 1.473h-1.11a.34.34 0 100 .68h1.823c.312.32.633.685.956 1.1h-1.197a.34.34 0 000 .678h1.697c.063.091.126.185.19.28.667 1.008.56 1.27.56 1.27s-.04.03-.18.03h-6.384a.34.34 0 100 .68h5.788c-.218.363-.438.713-.68 1.034-1.295-.313-3.054-.264-5.303.785-1.423.664-2.677.494-3.89.33-1.083-.148-2.2-.3-3.33.203-.994-.353-1.919-.474-2.75-.434a2.778 2.778 0 01-.896-1.919zm1.862 4.381H1.217c.088-.191.342-.549.874-.924.606-.428 2.199-1.284 4.567-.63-.558.5-.888 1.193-1.033 1.554zm17.197 0H6.367c.197-.413.556-1.007 1.087-1.295 1.029-.56 2.032-.423 3.194-.265 1.248.17 2.664.362 4.269-.387 1.882-.878 3.373-1.004 4.508-.812.272.046.523.11.753.186a4.65 4.65 0 011.791 1.078c.679.667.874 1.295.853 1.495z" fill="#000"/>
</svg>
