<svg width="24" height="24" fill="none" xmlns="http://www.w3.org/2000/svg">
  <defs/>
  <path d="M21.48 23.14H1.565a.165.165 0 01-.166-.165V6.685h21.204v15.334c0 .62-.502 1.121-1.121 1.121z" fill="#FFF9F0"/>
  <path d="M21.252 6.684V22.02c0 .62-.502 1.121-1.121 1.121h1.35c.618 0 1.12-.502 1.12-1.12V6.683h-1.349z" fill="#FAE8DB"/>
  <path d="M1.398 18.851v4.124c0 .091.083.165.185.165h20.834c.102 0 .185-.073.185-.165v-4.124H1.398z" fill="#2ED1E2"/>
  <path d="M21.252 18.851v4.124c0 .091-.083.165-.185.165h1.35c.102 0 .184-.073.184-.165v-4.124h-1.35z" fill="#03BED7"/>
  <path d="M1.398 15.466H14.33v3.385H1.4v-3.385z" fill="#A8D3D8"/>
  <path d="M22.581 6.684H1.418a.58.58 0 01-.581-.58v-.369c0-.32.26-.58.58-.58h21.164c.321 0 .581.26.581.58v.368c0 .321-.26.581-.58.581z" fill="#07B2CD"/>
  <path d="M22.582 5.154h-1.35c.321 0 .581.26.581.581v.368c0 .321-.26.581-.58.581h1.349c.32 0 .58-.26.58-.58v-.369a.58.58 0 00-.58-.58z" fill="#0199B1"/>
  <path d="M22.602 5.154H1.398V3.36A2.501 2.501 0 013.9.86h16.202a2.501 2.501 0 012.5 2.5v1.794z" fill="#2ED1E2"/>
  <path d="M20.1.86h-1.349a2.501 2.501 0 012.501 2.5v1.794h1.35V3.36A2.501 2.501 0 0020.1.86z" fill="#02C7DD"/>
  <path d="M5.348 20.083a1.458 1.458 0 11-2.915 0c0-.528.627-1.66 1.058-2.377a.466.466 0 01.799 0c.431.717 1.058 1.85 1.058 2.377z" fill="#5DE1C4"/>
  <path d="M4.29 17.706a.466.466 0 00-.799 0c-.086.143-.18.303-.275.471.381.674.783 1.484.783 1.906 0 .562-.318 1.05-.783 1.293a1.458 1.458 0 002.133-1.292c0-.529-.627-1.661-1.06-2.378z" fill="#0AB69F"/>
  <path d="M9.365 20.083a1.458 1.458 0 11-2.916 0c0-.528.627-1.66 1.059-2.377a.466.466 0 01.798 0c.432.717 1.059 1.85 1.059 2.377z" fill="#5DE1C4"/>
  <path d="M8.306 17.706a.466.466 0 00-.798 0c-.086.143-.18.303-.276.471.382.674.784 1.484.784 1.906 0 .562-.318 1.05-.784 1.293a1.458 1.458 0 002.133-1.292c0-.529-.627-1.661-1.059-2.378z" fill="#0AB69F"/>
  <path d="M13.277 20.083a1.458 1.458 0 11-2.916 0c0-.528.627-1.66 1.059-2.377a.466.466 0 01.799 0c.431.717 1.058 1.85 1.058 2.377z" fill="#5DE1C4"/>
  <path d="M12.219 17.706a.466.466 0 00-.8 0c-.085.143-.18.303-.274.471.381.674.783 1.484.783 1.906 0 .562-.318 1.05-.784 1.293a1.458 1.458 0 002.133-1.292c0-.529-.627-1.661-1.058-2.378z" fill="#0AB69F"/>
  <path d="M2.586 20.945c-.656 0-1.188.532-1.188 1.188v.74c0 .044.05.078.11.078h12.48c.062 0 .111-.034.111-.077v-.74c0-.657-.532-1.189-1.188-1.189H2.586z" fill="#D6694B"/>
  <path d="M12.911 20.945h-1.35c.657 0 1.188.532 1.188 1.188v.74c0 .044-.049.078-.11.078h1.35c.06 0 .11-.034.11-.077v-.74c0-.657-.532-1.189-1.188-1.189z" fill="#C4573A"/>
  <path d="M18.469 5.154H5.532a.956.956 0 01-.957-.956v-.801c0-.528.428-.956.957-.956h12.937c.528 0 .956.428.956.956v.8a.956.956 0 01-.956.957z" fill="#FFF9F0"/>
  <path d="M18.469 2.44h-1.35c.528 0 .957.429.957.957v.8a.956.956 0 01-.957.957h1.35a.956.956 0 00.956-.956v-.801a.956.956 0 00-.956-.956z" fill="#FAE8DB"/>
  <path d="M6.96 11.514c-.503-.162-1.09-1.138-1.27-1.453a.193.193 0 00-.167-.098H3.931a.193.193 0 00-.168.098c-.178.315-.766 1.291-1.268 1.454a.196.196 0 00-.14.183c-.007.722.108 3.637 2.372 3.637 2.265 0 2.379-2.915 2.372-3.637a.196.196 0 00-.14-.184z" fill="#FEAEE1"/>
  <path d="M7.1 11.698a.196.196 0 00-.14-.184c-.502-.161-1.09-1.139-1.269-1.453a.193.193 0 00-.168-.098H4.174c.07 0 .134.037.168.098.113.2.393.67.711 1.025.518.58.712 1.381.533 2.138-.196.832-.621 1.718-1.533 2.01.2.065.424.101.674.101 2.265 0 2.38-2.915 2.373-3.637z" fill="#FE93D3"/>
  <path d="M13.218 11.514c-.502-.162-1.09-1.138-1.268-1.453a.193.193 0 00-.168-.098H10.19a.193.193 0 00-.168.098c-.178.315-.766 1.291-1.269 1.454a.196.196 0 00-.14.183c-.006.722.108 3.637 2.373 3.637 2.264 0 2.379-2.915 2.372-3.637a.197.197 0 00-.14-.184z" fill="#6BD9E7"/>
  <path d="M13.359 11.698a.196.196 0 00-.14-.184c-.502-.162-1.09-1.138-1.269-1.453a.193.193 0 00-.167-.098H10.19h.242c.07 0 .134.037.168.098.178.315.766 1.291 1.268 1.454.082.026.14.098.14.183.006.642-.084 3.02-1.697 3.537.2.064.424.1.675.1 2.264 0 2.378-2.915 2.372-3.637z" fill="#2ED1E2"/>
  <path d="M22.939 4.89V3.36A2.842 2.842 0 0020.101.522H3.899A2.842 2.842 0 001.061 3.36v1.53a.92.92 0 00-.561.845v.368c0 .38.232.707.56.846v16.026c0 .277.235.503.523.503h20.834a.513.513 0 00.522-.503V6.95a.92.92 0 00.561-.846v-.368a.92.92 0 00-.561-.846zM3.899 1.196h16.202c1.193 0 2.163.97 2.163 2.163v1.457h-2.66c.101-.184.158-.395.158-.62v-.8c0-.713-.58-1.294-1.293-1.294H5.53c-.713 0-1.293.58-1.293 1.294v.8c0 .225.057.436.158.62h-2.66V3.36c0-1.193.97-2.163 2.163-2.163zm1.013 3v-.8a.62.62 0 01.62-.62h12.937a.62.62 0 01.619.62v.8a.62.62 0 01-.62.62H5.532a.62.62 0 01-.619-.62zM1.736 7.023H4.35a.337.337 0 100-.675H1.418a.244.244 0 01-.243-.244v-.368c0-.134.109-.243.243-.243h21.164c.134 0 .243.109.243.243v.368c0 .135-.109.244-.243.244H5.7a.337.337 0 100 .675h8.292v8.107h-1.465c.047-.041.094-.084.139-.129.947-.956 1.036-2.63 1.03-3.305a.533.533 0 00-.374-.502c-.25-.08-.684-.602-1.079-1.299a.531.531 0 00-.461-.268H10.19a.531.531 0 00-.461.268c-.395.697-.829 1.219-1.079 1.3a.534.534 0 00-.374.5c-.006.676.083 2.35 1.03 3.306.045.045.092.088.14.129H6.267c.047-.041.094-.084.139-.129.947-.956 1.036-2.63 1.03-3.305a.534.534 0 00-.374-.502c-.25-.08-.684-.602-1.079-1.299a.531.531 0 00-.46-.268H3.93a.531.531 0 00-.461.268c-.395.697-.829 1.219-1.079 1.3a.534.534 0 00-.374.5c-.006.676.083 2.35 1.03 3.306.045.045.092.088.14.129H1.735V7.022zm12.256 11.492h-.93a17.693 17.693 0 00-.554-.982.797.797 0 00-.689-.39.797.797 0 00-.688.39c-.216.36-.4.686-.553.982h-1.43a17.678 17.678 0 00-.553-.982.797.797 0 00-.688-.39.797.797 0 00-.688.39c-.217.36-.402.688-.555.985v-.003H5.132a17.684 17.684 0 00-.553-.982.797.797 0 00-.689-.39.797.797 0 00-.688.39c-.216.36-.4.686-.553.982h-.913v-2.71h12.256v2.71zm-7.206 1.57c0-.124.073-.647 1.01-2.204a.125.125 0 01.11-.063c.028 0 .078.009.111.063.938 1.557 1.01 2.08 1.01 2.203 0 .185-.045.364-.13.525h-1.98a1.114 1.114 0 01-.13-.525zm3.913 0c0-.124.073-.647 1.01-2.204a.125.125 0 01.11-.063c.028 0 .078.009.11.063.938 1.557 1.011 2.08 1.011 2.203 0 .185-.045.364-.131.525H10.83a1.114 1.114 0 01-.131-.525zm-.597.524h-.478c.052-.169.078-.345.078-.525 0-.217-.08-.517-.236-.894h.794c-.156.377-.236.677-.236.894 0 .18.027.356.078.525zm-3.912 0h-.583c.052-.169.078-.345.078-.525 0-.217-.08-.517-.235-.894h.898c-.157.377-.236.677-.236.894 0 .18.026.356.078.525zm-1.18-.525c0 .185-.045.364-.13.525H2.9a1.12 1.12 0 01-.13-.525c0-.123.073-.646 1.01-2.203a.125.125 0 01.11-.063c.027 0 .078.009.11.063.938 1.557 1.01 2.08 1.01 2.203zm-2.82.577a1.516 1.516 0 00-.454.208v-1.68h.595c-.156.378-.236.678-.236.895 0 .197.033.392.096.577zm11.572 1.954H1.736v-.48c0-.47.381-.851.85-.851h10.325c.47 0 .85.381.85.85v.48zM4.737 11.65c-.309-.484-.757-.764-1.008-.892.091-.136.187-.287.286-.458H5.44c.093.161.183.306.27.436a2.514 2.514 0 00-.973.914zm-1.43-.345c.033.013 1.087.435 1.087 1.503 0 .186.151.337.338.337h.035a.337.337 0 00.337-.337c0-1.074.944-1.49.988-1.508a.331.331 0 00.035-.017c.267.3.483.445.635.515-.007 1.754-.638 2.528-.834 2.726-.316.318-.708.473-1.2.473-.493 0-.886-.155-1.201-.473-.197-.198-.828-.973-.835-2.726.149-.068.358-.208.615-.493zm7.689.39c-.318-.498-.785-.781-1.03-.903.098-.144.2-.307.308-.492h1.425c.101.175.2.331.293.47-.206.105-.68.39-.996.924zm-1.46-.357l.028.012c.011.004 1.09.423 1.09 1.503 0 .186.15.337.337.337h.035a.337.337 0 00.337-.337c0-1.074.944-1.49.988-1.508a.332.332 0 00.061-.033c.255.28.462.418.61.486-.008 1.754-.64 2.528-.835 2.726-.316.318-.708.473-1.2.473-.493 0-.886-.155-1.201-.473-.197-.198-.828-.973-.835-2.726.143-.066.341-.197.585-.46zm12.728 11.464h-7.828v-.67c0-.633-.388-1.178-.94-1.408.078-.203.119-.42.119-.642 0-.217-.08-.517-.236-.894h1.757a.337.337 0 000-.675h-.47V7.022h7.598v11.492h-5.778a.337.337 0 100 .675h5.778v3.614z" fill="#000"/>
  <path d="M15.96 3.46H7.449a.337.337 0 100 .675h8.513a.337.337 0 100-.675z" fill="#000"/>
</svg>
