<svg width="24" height="24" fill="none" xmlns="http://www.w3.org/2000/svg">
  <defs/>
  <path d="M17.654 14.034a1.616 1.616 0 111.859 0h3.635V4.906h-9.134v3.653a1.606 1.606 0 00-1.33-.705 1.616 1.616 0 100 3.232c.555 0 1.04-.28 1.33-.705v3.653h3.64z" fill="#F7CB4F"/>
  <path d="M23.147 4.906h-.945v9.128h.945V4.906z" fill="#F4B008"/>
  <path d="M10.375 14.035a1.616 1.616 0 11-1.859 0H4.88v9.128h9.133V19.51c.291.426.776.705 1.33.705a1.616 1.616 0 000-3.232c-.554 0-1.039.28-1.33.705v-3.653h-3.64z" fill="#68B9D8"/>
  <path d="M10.081 6.388a1.64 1.64 0 01-1.34.694 1.633 1.633 0 010-3.266 1.64 1.64 0 011.34.694V.837H.853v9.224h3.691a1.633 1.633 0 101.84 0h3.697V6.388z" fill="#546F7A"/>
  <g fill="#465A65">
    <path d="M8.292 3.878a1.633 1.633 0 100 3.14 1.634 1.634 0 010-3.14zM6.385 10.06h-.898a1.632 1.632 0 01-.471 2.92 1.635 1.635 0 002.082-1.57c0-.56-.283-1.055-.713-1.35zM9.184 7.02v3.04h.898V6.389a1.64 1.64 0 01-.898.633zM9.184.837v3.04c.367.103.684.33.898.633V.837h-.898z"/>
  </g>
  <path d="M14.014 17.67a1.616 1.616 0 111.327 2.546 1.623 1.623 0 01-1.327-.688v3.635h9.133v-9.129h-3.653a1.616 1.616 0 10-1.822 0h-3.658v3.635z" fill="#F2464F"/>
  <path d="M23.147 14.035h-.943v9.128h.943v-9.128z" fill="#D3333C"/>
  <path d="M7.434 11.41c0-.362-.099-.71-.28-1.012h2.927c.186 0 .337-.151.337-.337V6.388a.337.337 0 00-.612-.194 1.298 1.298 0 01-2.362-.745 1.298 1.298 0 012.362-.745.337.337 0 00.612-.194V.837A.337.337 0 0010.08.5H.852a.337.337 0 00-.336.337v2.32a.337.337 0 10.673 0V1.173h8.555v2.578A1.972 1.972 0 006.77 5.45a1.972 1.972 0 002.974 1.696v2.579h-3.36a.337.337 0 00-.19.615 1.297 1.297 0 11-1.46 0 .337.337 0 00-.19-.615H1.19V4.279a.337.337 0 00-.673 0v5.782c0 .186.15.337.336.337h2.923a1.968 1.968 0 001.69 2.982c1.086 0 1.97-.884 1.97-1.97z" fill="#000"/>
  <path d="M23.148 8.84c.186 0 .336-.151.336-.337V4.906a.337.337 0 00-.336-.337h-9.134a.337.337 0 00-.337.337V7.79a1.94 1.94 0 00-.993-.274A1.955 1.955 0 0010.73 9.47c0 1.077.876 1.953 1.953 1.953.354 0 .697-.097.993-.274v2.549h-3.303a.337.337 0 00-.193.612c.34.24.544.631.544 1.046A1.281 1.281 0 118.71 14.31a.337.337 0 00-.194-.611H4.88a.337.337 0 00-.337.336v5.319a.337.337 0 00.674 0v-4.982h2.541a1.952 1.952 0 103.372 0h2.546v3.318a.337.337 0 00.615.19c.239-.35.632-.56 1.05-.56a1.28 1.28 0 011.278 1.28c0 .705-.573 1.278-1.277 1.28-.42-.001-.812-.21-1.05-.56a.337.337 0 00-.616.19v3.317h-8.46v-2.35a.337.337 0 00-.673 0v2.687c0 .186.15.337.337.337h18.267c.186 0 .336-.15.336-.337V9.625a.337.337 0 10-.673 0v4.073h-2.542c.173-.295.267-.635.267-.985v-.008-.006a1.955 1.955 0 00-1.953-1.953A1.955 1.955 0 0016.63 12.7v.014c0 .35.095.69.268.985H14.35V10.38a.337.337 0 00-.615-.19 1.275 1.275 0 01-2.332-.72 1.276 1.276 0 012.332-.72.337.337 0 00.615-.192V5.243h8.46v3.26c0 .186.15.336.337.336zm-5.494 5.531h.018a.337.337 0 00.19-.614 1.28 1.28 0 01-.558-1.052 1.28 1.28 0 011.28-1.272c.702 0 1.275.57 1.279 1.272a1.28 1.28 0 01-.559 1.052.337.337 0 00.19.614h3.317v8.455h-8.46v-2.542c.296.173.637.268.99.268h.004a1.955 1.955 0 001.953-1.953 1.955 1.955 0 00-1.953-1.953h-.002-.002c-.353 0-.694.095-.99.268V14.37h3.303z" fill="#000"/>
</svg>
