<svg width="24" height="24" fill="none" xmlns="http://www.w3.org/2000/svg">
  <defs/>
  <path d="M19.921 18.344V19.8l-3.362 3.362H2.894V.838H19.92v14.54" fill="#EFE7E4"/>
  <path d="M19.02.838V19.8l-3.362 3.362h.9l3.363-3.362V.838h-.9z" fill="#D8D1D0"/>
  <path d="M11.14 14.644a6.267 6.267 0 100-12.533 6.267 6.267 0 000 12.533z" fill="#F7CB4F"/>
  <path d="M11.14 13.224a4.875 4.875 0 100-9.75 4.875 4.875 0 000 9.75z" fill="#EFE7E4"/>
  <path d="M11.14 3.474c-.151 0-.301.008-.45.021a4.875 4.875 0 010 9.708 4.875 4.875 0 10.45-9.729z" fill="#D8D1D0"/>
  <path d="M14.163 6.578H8.117v4.06h6.046v-4.06z" fill="#465A65"/>
  <path d="M13.16 8.682H9.123c-.554 0-1.004-.45-1.004-1.004v.676c0 .554.45 1.003 1.004 1.003H13.161c.554 0 1.003-.449 1.003-1.003v-.676c0 .555-.449 1.004-1.003 1.004z" fill="#2E3C42"/>
  <path d="M12.354 8.682h.807c.554 0 1.004-.45 1.004-1.004v-1.1H8.117v1.1c0 .555.45 1.004 1.004 1.004h3.232z" fill="#546F7A"/>
  <path d="M15.613 3.939a6.25 6.25 0 00-4.77-1.826 6.267 6.267 0 010 12.515 6.267 6.267 0 004.769-10.689z" fill="#FFAE47"/>
  <path d="M20.74 17.978a1.26 1.26 0 01-1.782 0l-3.136-3.136 1.781-1.781 3.136 3.136a1.26 1.26 0 010 1.78z" fill="#353535"/>
  <path d="M19.63 17.34l-3.137-3.136-.63.63L19 17.972a1.26 1.26 0 002.039-.373 1.26 1.26 0 01-1.409-.258z" fill="#262626"/>
  <path d="M15.57 12.809c-.2.2-.41.384-.63.551l1.182 1.182 1.182-1.182-1.181-1.182c-.168.22-.352.43-.552.63z" fill="#F7CB4F"/>
  <path d="M15.49 12.918c-.164.155-.334.3-.51.435l1.182 1.182.473-.472-1.145-1.145z" fill="#FFAE47"/>
  <path d="M16.559 23.162V19.8h3.362l-3.362 3.362z" fill="#B2AEAD"/>
  <path d="M14.502 7.678v-1.1a.338.338 0 00-.338-.338h-1.242v-.208a.934.934 0 00-.933-.933h-1.696a.934.934 0 00-.933.933v.208H8.118a.338.338 0 00-.338.337v4.061c0 .187.151.338.338.338h6.046a.338.338 0 00.338-.337v-2.96zm-4.467-1.646c0-.142.116-.258.258-.258h1.696c.142 0 .258.116.258.258v.208h-2.212v-.208zm-1.58.883h5.371v.763a.667.667 0 01-.666.667H9.122a.667.667 0 01-.667-.667v-.763zm0 3.386V8.842c.197.113.424.178.667.178h4.038c.243 0 .47-.065.667-.178V10.3H8.455z" fill="#000"/>
  <path d="M20.978 15.958l-.72-.72v-3.63a.338.338 0 10-.675 0v2.955l-1.74-1.741a.338.338 0 00-.478 0l-.06.06-.739-.737C18.355 9.57 18.103 6 15.811 3.707a6.561 6.561 0 00-4.67-1.934 6.561 6.561 0 00-4.67 1.934 6.612 6.612 0 000 9.34 6.562 6.562 0 004.67 1.935 6.556 6.556 0 003.766-1.177l.738.737-.061.061a.338.338 0 000 .478l3.136 3.135c.238.238.538.392.863.446v.8h-3.025a.337.337 0 00-.337.338v3.025H3.23v-7.973a.338.338 0 10-.675 0v8.31c0 .187.15.338.337.338h13.674a.34.34 0 00.024-.002c.007 0 .013-.002.02-.003.004 0 .008 0 .013-.002.007 0 .013-.003.02-.004l.012-.004.019-.006.012-.005.018-.008.012-.006.018-.01.01-.006a.305.305 0 00.024-.018l.003-.002a.319.319 0 00.025-.023l3.363-3.362a.325.325 0 00.059-.08v-.003a.338.338 0 00.018-.037c0-.004.002-.008.003-.011a.34.34 0 00.018-.097v-1.18a1.599 1.599 0 00.72-2.673zM6.948 12.57a5.936 5.936 0 010-8.385 5.89 5.89 0 014.193-1.737 5.89 5.89 0 014.192 1.737 5.938 5.938 0 01.531 7.776l-.01.012a5.99 5.99 0 01-1.119 1.119l-.016.014a5.885 5.885 0 01-3.578 1.2 5.89 5.89 0 01-4.193-1.736zm8.497.817a6.727 6.727 0 00.704-.704l.678.677-.705.705-.677-.678zm1.451 6.75h2.21l-2.21 2.21v-2.21zm3.605-2.398a.916.916 0 01-.652.27.915.915 0 01-.651-.27L16.3 14.842l.06-.06.001-.001 1.182-1.182.06-.06 2.079 2.077.819.82c.36.359.36.944 0 1.303z" fill="#000"/>
  <path d="M13.748 12.063a4.508 4.508 0 01-2.607.823A4.542 4.542 0 016.604 8.35a4.51 4.51 0 011.313-3.192.338.338 0 10-.48-.475A5.18 5.18 0 005.929 8.35a5.218 5.218 0 005.212 5.213 5.18 5.18 0 002.995-.946.338.338 0 10-.388-.553zM14.745 11.969a.337.337 0 00.25-.11 5.2 5.2 0 001.358-3.51 5.218 5.218 0 00-5.212-5.212c-.969 0-1.914.267-2.735.774a.338.338 0 10.355.574 4.527 4.527 0 012.38-.673 4.542 4.542 0 014.537 4.537c0 1.133-.42 2.218-1.183 3.055a.338.338 0 00.25.565z" fill="#000"/>
  <path d="M2.893 14.064a.338.338 0 00.338-.337V1.175h16.352v9.307a.338.338 0 00.675 0V.838A.338.338 0 0019.921.5H2.893a.338.338 0 00-.337.338v12.889c0 .186.15.337.337.337zM6.93 18.434h8.423a.338.338 0 000-.675H6.929a.338.338 0 100 .675zM6.93 16.846h8.423a.338.338 0 000-.676H6.929a.338.338 0 100 .675zM6.93 20.023h5.807a.338.338 0 100-.675H6.929a.338.338 0 100 .675z" fill="#000"/>
</svg>
