<svg width="24" height="24" fill="none" xmlns="http://www.w3.org/2000/svg">
  <defs/>
  <path d="M16.837 1.581a.744.744 0 00-1.488 0v1.075h1.488V1.581z" fill="#58565C"/>
  <path d="M16.837 1.747h-1.488v.91h1.488v-.91z" fill="#49484D"/>
  <path d="M6.046 4.186c0-.617.5-1.117 1.116-1.117H18.698c.41 0 .744.334.744.745v2.232H6.046v-1.86z" fill="#B6E3EE"/>
  <path d="M18.697 3.07H17.8c.41 0 .744.333.744.744v2.232h.898V3.814a.744.744 0 00-.744-.744z" fill="#96D2E0"/>
  <path d="M14.977 5.531V2.595c0-.15.12-.27.27-.27h1.693c.149 0 .27.12.27.27V5.53h-2.233z" fill="#FFD151"/>
  <path d="M16.94 2.325h-.897c.149 0 .27.12.27.27V5.53h.897V2.595a.27.27 0 00-.27-.27z" fill="#F79B4A"/>
  <path d="M6.046 4.186c0 .616.5 1.116 1.116 1.116h11.535c.411 0 .745.333.745.744V22.42a.744.744 0 01-.745.744H6.79a.744.744 0 01-.744-.744V4.186z" fill="#00BCE7"/>
  <path d="M18.697 5.302H17.8c.41 0 .744.333.744.744V22.42a.744.744 0 01-.744.744h.898a.744.744 0 00.744-.744V6.046a.744.744 0 00-.744-.744zM7.604 5.302h-.442c-.616 0-1.116-.5-1.116-1.116v18.233c0 .41.333.744.744.744h.814V5.302z" fill="#0094D4"/>
  <path d="M7.162 20.186a.744.744 0 100-1.488h-1.86a.744.744 0 100 1.488h1.86zM7.162 9.767a.744.744 0 100-1.488h-1.86a.744.744 0 100 1.488h1.86zM7.162 14.977a.744.744 0 100-1.489h-1.86a.744.744 0 100 1.489h1.86z" fill="#58565C"/>
  <path d="M16.567 17.954h-6.159a.27.27 0 01-.27-.27v-.95c0-.148.121-.269.27-.269h6.16c.148 0 .269.121.269.27v.95a.27.27 0 01-.27.269z" fill="#fff"/>
  <path d="M16.567 16.465h-.898c.149 0 .27.121.27.27v.95a.27.27 0 01-.27.269h.898a.27.27 0 00.27-.27v-.95a.27.27 0 00-.27-.269z" fill="#F2F2F2"/>
  <path d="M7.162 8.279h-.898a.744.744 0 110 1.488h.898a.744.744 0 100-1.488zM7.162 13.489h-.898a.744.744 0 110 1.488h.898a.744.744 0 000-1.489zM7.162 18.698h-.898a.744.744 0 110 1.488h.898a.744.744 0 100-1.488z" fill="#49484D"/>
  <g fill="#000">
    <path d="M18.698 2.733h-1.152v-.408a.337.337 0 00-.337-.337h-.035v-.407a1.082 1.082 0 00-2.162 0v.407h-.035a.337.337 0 00-.337.337v.408H7.163c-.801 0-1.453.65-1.454 1.451V7.942h-.407a1.082 1.082 0 000 2.162h.407v3.047h-.407a1.082 1.082 0 000 2.163h.407v3.047h-.407a1.082 1.082 0 000 2.162h.407v1.896c0 .596.485 1.081 1.081 1.081h11.908c.596 0 1.08-.485 1.08-1.081V3.814c0-.596-.484-1.081-1.08-1.081zm0 .673c.224 0 .407.183.407.408v1.231a1.075 1.075 0 00-.407-.08h-1.152V3.406h1.152zm-2.268 1.56V3.813a.337.337 0 10-.674 0v1.151h-.443V2.662h1.559v2.303h-.442zm-.744-3.385a.408.408 0 01.814 0v.407h-.814v-.407zM4.895 9.023c0-.225.182-.407.407-.407h1.86a.408.408 0 010 .814h-1.86a.408.408 0 01-.407-.407zm0 5.21c0-.225.182-.408.407-.408H7.162a.408.408 0 010 .815h-1.86a.408.408 0 01-.407-.408zm0 5.209c0-.225.182-.407.407-.407h1.86a.408.408 0 010 .814h-1.86a.408.408 0 01-.407-.407zm14.21 2.977a.408.408 0 01-.407.407H6.79a.408.408 0 01-.407-.407v-1.896h.78a1.082 1.082 0 000-2.162h-.78v-3.048h.78a1.082 1.082 0 000-2.162h-.78v-3.047h.78a1.082 1.082 0 000-2.162h-.78v-2.53c.225.143.493.227.78.227H10.174a.337.337 0 100-.674H7.161h-.001a.78.78 0 01.001-1.559h7.478v1.56h-3.12a.337.337 0 000 .673H15.757v1.152a.337.337 0 10.674 0V5.639h2.268c.224 0 .407.183.407.407V22.42z"/>
    <path d="M10.637 12.94a3.315 3.315 0 002.852 1.63 3.315 3.315 0 002.851-5 3.315 3.315 0 00-2.851-1.628 3.315 3.315 0 00-2.852 4.999zm2.851-4.324c.093 0 .295.174.474.653.02.052.038.106.056.162h-1.059c.018-.056.036-.11.056-.162.18-.479.381-.653.473-.653zm.69 1.488c.042.257.07.53.082.815h-1.543c.012-.285.04-.558.083-.815h1.377zm-.69 3.792c-.091 0-.294-.174-.473-.654a3.494 3.494 0 01-.056-.16h1.059c-.018.054-.036.109-.056.16-.18.48-.381.654-.473.654zm-.688-1.489a6.797 6.797 0 01-.083-.814h1.543c-.012.284-.04.558-.083.814H12.8zm-1.93-.817a.342.342 0 00.04.003h1.133c.01.277.037.55.076.814h-1.006a2.618 2.618 0 01-.242-.817zm4.065.003h1.132a.343.343 0 00.04-.003c-.037.29-.12.565-.243.817h-1.006c.04-.263.065-.537.077-.814zm1.171-.672a.343.343 0 00-.039-.002h-1.132a7.662 7.662 0 00-.077-.815h1.006c.122.253.206.528.242.817zm-4.064-.002H10.91a.342.342 0 00-.04.002c.037-.289.12-.564.244-.817h1.005c-.04.264-.065.538-.076.815zm-.458 2.162h.674c.06.222.132.428.215.611a2.648 2.648 0 01-.889-.61zm2.92.612c.083-.184.155-.39.215-.612h.674c-.25.26-.552.47-.89.612zm.889-4.262h-.674a3.995 3.995 0 00-.215-.612c.338.142.64.351.889.612zm-2.92-.612c-.083.184-.155.39-.215.612h-.674c.25-.26.552-.47.89-.612zM16.837 16.128h-6.698a.337.337 0 00-.337.337v1.489c0 .186.15.337.337.337h6.698c.186 0 .337-.151.337-.337v-1.489a.337.337 0 00-.337-.337zm-.337 1.489h-6.024v-.815H16.5v.815z"/>
  </g>
</svg>
