<svg width="24" height="24" fill="none" xmlns="http://www.w3.org/2000/svg">
  <defs/>
  <path d="M7.264 7.325a4.112 4.112 0 007.706 1.996h6.32l1.27-1.089-1.27-2.902-.92.786-.893-.786-1.21.634-1.117-.634h-2.18a4.112 4.112 0 00-7.707 1.995zm3.34 0a.968.968 0 11-1.935 0 .968.968 0 011.935 0z" fill="#F1D333"/>
  <path d="M22.616 14.47l-5.864 4.703c-.482.386-1.1.562-1.714.487L7.136 18.7l-2.106.779c-1.13-1.164-.666-4.907-.666-4.907l.502-.137a1.901 1.901 0 011.062-1.832l3.39-1.654 1.742-.852a1.656 1.656 0 011.578 2.909L9.82 14.693l4.74.826c.571.1 1.158-.02 1.644-.336l4.715-3.06a1.45 1.45 0 011.697 2.347z" fill="#F1D0A5"/>
  <path d="M15.025 18.397c-3.246.422-5.484-1.482-6.838-3.273a1.909 1.909 0 01.492-2.759c3.27-2.095 4.115-2.018 4.563-1.57a1.656 1.656 0 00-2.182-.698l-1.743.85L6.57 12.29l-.642.313a1.9 1.9 0 00-1.062 1.832l-.502.138s-.465 3.742.666 4.906l2.106-.78 7.902.962a2.295 2.295 0 001.714-.487l5.863-4.703c-2.026-.55-5.403 3.593-7.59 3.927z" fill="#F1B986"/>
  <path d="M3.663 14.1a6.829 6.829 0 00-2.822.998 55.326 55.326 0 002.01 5.688 6.832 6.832 0 002.822-.997 55.324 55.324 0 00-2.01-5.689z" fill="#80A6C6"/>
  <path d="M5.673 19.789a6.82 6.82 0 01-2.822.997 55.718 55.718 0 01-.582-1.46 7.263 7.263 0 002.944-1.03c.16.495.314.993.46 1.493z" fill="#5B8EB8"/>
  <path d="M23.436 12.863a1.788 1.788 0 00-.312-.621 1.801 1.801 0 00-2.39-.406l-1.396.906a.341.341 0 00.371.572l1.396-.906a1.102 1.102 0 011.48.251 1.11 1.11 0 01-.183 1.544l-5.863 4.704c-.408.327-.94.478-1.46.415l-7.902-.962a.34.34 0 00-.16.019l-1.272.47a56.066 56.066 0 00-1.38-3.922l.592-.164a.341.341 0 00.249-.351 1.56 1.56 0 01.872-1.503l5.131-2.506a1.312 1.312 0 011.733.554 1.312 1.312 0 01-.48 1.756L9.645 14.4a.34.34 0 00.117.629l4.74.825a2.632 2.632 0 001.888-.386l2.182-1.417a.341.341 0 00-.371-.572l-2.182 1.417c-.415.27-.912.37-1.4.286l-3.837-.668 2.03-1.218a1.992 1.992 0 00.914-2.19 4.459 4.459 0 001.44-1.446h6.124c.082 0 .16-.029.222-.082l1.27-1.088a.34.34 0 00.09-.395l-1.27-2.902a.34.34 0 00-.533-.123l-.697.594-.67-.59a.34.34 0 00-.384-.047l-1.044.548-.956-.542a.341.341 0 00-.168-.045h-1.985a4.458 4.458 0 00-5.552-1.754.34.34 0 10.27.626 3.776 3.776 0 014.79 1.634c.06.109.173.176.297.176h2.09l1.039.59c.1.056.224.058.326.005l1.002-.525.716.63a.341.341 0 00.447.004l.572-.488.876 2.004h-6.96a.34.34 0 100 .682h6.56l-.474.407H14.97a.341.341 0 00-.298.175 3.778 3.778 0 01-1.225 1.32 1.986 1.986 0 00-2.537-.685l-1.519.742a3.775 3.775 0 01-1.787-3.207c0-1.056.448-2.071 1.228-2.785a.34.34 0 10-.46-.503 4.467 4.467 0 00-1.45 3.288c0 1.405.664 2.715 1.766 3.55l-2.908 1.42a2.24 2.24 0 00-1.255 1.879l-.416.116a51.139 51.139 0 00-.131-.32.34.34 0 00-.357-.208 7.2 7.2 0 00-2.96 1.046.341.341 0 00-.147.385 55.926 55.926 0 002.022 5.724.341.341 0 00.356.207 7.201 7.201 0 002.961-1.046.34.34 0 00.147-.385l-.056-.19 1.233-.456 7.82.951a2.65 2.65 0 001.969-.56l5.852-4.694a1.791 1.791 0 00.618-1.88zm-20.37 7.549a55.277 55.277 0 01-1.823-5.158 6.51 6.51 0 012.206-.779 55.28 55.28 0 011.822 5.157 6.508 6.508 0 01-2.206.78z" fill="#000"/>
  <path d="M11.397 12.915a.87.87 0 00.41-.103l.422-.225a.34.34 0 10-.32-.602l-.423.226a.184.184 0 01-.238-.057 2.682 2.682 0 01-.373-.862.34.34 0 00-.67.13c.005.022.112.567.477 1.111a.859.859 0 00.715.382zM3.816 19.505a.344.344 0 00.332-.266c.07-.3-.282-.528-.53-.352a.343.343 0 00-.12.4c.05.13.178.218.318.218zM8.327 7.325a1.31 1.31 0 001.308 1.309 1.31 1.31 0 001.309-1.309 1.31 1.31 0 00-1.309-1.308 1.31 1.31 0 00-1.308 1.308zM9.635 6.7a.627.627 0 11-.001 1.254.627.627 0 01.001-1.254z" fill="#000"/>
</svg>
