<svg width="24" height="24" fill="none" xmlns="http://www.w3.org/2000/svg">
  <defs/>
  <g fill="#FCD577">
    <path d="M16.915 2.125A4.389 4.389 0 0013.865.9h-3.742a4.389 4.389 0 00-3.05 1.225 4.278 4.278 0 00-1.332 3.03A4.303 4.303 0 006.983 8.27a4.302 4.302 0 003.092 1.299h1.065V23.1h1.708V9.57h1.065c1.172 0 2.27-.462 3.092-1.299a4.303 4.303 0 001.242-3.115 4.278 4.278 0 00-1.332-3.03zM13.914 7.97h-3.84A2.739 2.739 0 017.34 5.184c.027-1.5 1.284-2.685 2.783-2.685h3.742c1.5 0 2.757 1.186 2.784 2.685a2.739 2.739 0 01-2.735 2.786z"/>
    <path d="M15.326 20.187v-1.85h1.084v-1.712h-3.562V21.9h3.562v-1.714h-1.084z"/>
  </g>
  <path d="M10.13 2.898h3.741c.315 0 .622.06.912.18a.4.4 0 10.303-.74 3.194 3.194 0 00-1.215-.24h-3.742c-1.724 0-3.152 1.381-3.183 3.079a3.112 3.112 0 00.898 2.253c.595.606 1.39.94 2.237.94h3.838c.847 0 1.641-.334 2.237-.94a3.113 3.113 0 00.124-4.243.4.4 0 00-.6.528c.36.41.565.935.575 1.476a2.318 2.318 0 01-.67 1.679c-.443.451-1.035.7-1.666.7h-3.838c-.631 0-1.223-.249-1.666-.7a2.319 2.319 0 01-.67-1.679c.023-1.264 1.092-2.293 2.384-2.293z" fill="#000"/>
  <path d="M13.92 9.968c1.28 0 2.478-.503 3.377-1.418a4.699 4.699 0 001.356-3.402 4.675 4.675 0 00-1.455-3.312A4.787 4.787 0 0013.87.5H10.13a4.787 4.787 0 00-3.326 1.336 4.675 4.675 0 00-1.456 3.312A4.699 4.699 0 006.704 8.55a4.699 4.699 0 003.377 1.418h.666v3.06a.4.4 0 10.8 0v-3.46a.4.4 0 00-.4-.4H10.08A3.905 3.905 0 017.274 7.99a3.906 3.906 0 01-1.127-2.828 3.882 3.882 0 011.209-2.749A3.99 3.99 0 0110.129 1.3h3.742a3.99 3.99 0 012.774 1.114 3.881 3.881 0 011.209 2.75 3.905 3.905 0 01-1.128 2.827A3.905 3.905 0 0113.92 9.17h-1.066a.4.4 0 00-.4.4V22.7h-.908v-8.34a.4.4 0 00-.8 0v8.74c0 .22.18.399.4.399h1.708a.4.4 0 00.4-.4v-.8h3.163a.4.4 0 00.4-.399v-1.713a.4.4 0 00-.4-.4h-.685v-1.05h.685a.4.4 0 00.4-.4v-1.713a.4.4 0 00-.4-.4h-3.163V9.969h.666zm2.097 7.057v.914h-.685a.4.4 0 00-.4.4v1.849c0 .22.18.4.4.4h.685v.914h-2.763v-4.477h2.763z" fill="#000"/>
</svg>
