<svg width="24" height="24" fill="none" xmlns="http://www.w3.org/2000/svg">
  <defs/>
  <path d="M2.773 4.756c-.055.08-.12.155-.174.237C1.431 6.747.839 8.58.838 10.442c0 1.863.592 3.698 1.762 5.452a3.197 3.197 0 004.411.905c1.488-.972 1.866-3.006.89-4.491a.986.986 0 01-.027-1.097 1.46 1.46 0 00.213-.768c0-.285-.079-.55-.214-.769a.982.982 0 01-.004-1.048l.057-.087a3.2 3.2 0 00-4.079-4.642s-.708.326-1.074.86z" fill="#CF4842"/>
  <path d="M3.988 15.894c-1.17-1.754-1.763-3.589-1.762-5.452 0-1.861.593-3.695 1.76-5.45.056-.081.114-.16.175-.235l1.074-.86c.232-.114.475-.199.726-.254a3.212 3.212 0 00-2.114.254l-1.074.86c-.06.075-.12.154-.174.236C1.431 6.747.839 8.58.838 10.442c0 1.863.592 3.698 1.762 5.452a3.197 3.197 0 003.358 1.35 3.189 3.189 0 01-1.97-1.35z" fill="#A83A36"/>
  <path d="M21.227 4.756c.056.08.12.155.175.237 1.168 1.754 1.76 3.588 1.76 5.449.001 1.863-.592 3.698-1.762 5.452a3.197 3.197 0 01-4.41.905c-1.488-.972-1.866-3.006-.89-4.491l.028-.043c.207-.32.2-.73 0-1.054a1.461 1.461 0 01-.214-.768c0-.285.078-.55.213-.769a.982.982 0 00.005-1.048 3.2 3.2 0 014.021-4.73s.768.42 1.074.86z" fill="#CF4842"/>
  <path d="M21.402 4.993a3.211 3.211 0 00-.174-.237l-1.075-.86a3.21 3.21 0 00-2.214-.229c.213.055.422.132.622.23l1.074.86c.061.075.12.154.174.236 1.168 1.754 1.761 3.588 1.761 5.449 0 1.863-.592 3.698-1.762 5.452a3.188 3.188 0 01-1.868 1.325 3.197 3.197 0 003.46-1.324c1.17-1.755 1.764-3.59 1.763-5.453 0-1.861-.593-3.695-1.761-5.45z" fill="#A83A36"/>
  <path d="M9.282 10.315c.83-.279 1.44-1.155 1.44-2.203v-.439a.337.337 0 00-.673 0v.439c0 .898-.59 1.63-1.317 1.63h-.468c-.034-.08-.059-.165-.104-.24a.641.641 0 01-.008-.688c2.105-3.273-1.333-6.75-4.454-5.215a.337.337 0 10.298.605c2.497-1.228 5.337 1.535 3.59 4.245a1.31 1.31 0 000 1.407c.218.353.22.827 0 1.183-.26.42-.296.961.033 1.459.428.65.581 1.462.422 2.227-.517 2.482-3.766 3.08-5.161.987C.637 12.348.575 8.646 2.879 5.184a.337.337 0 00-.56-.373c-2.386 3.582-2.464 7.578 0 11.275 1.724 2.585 5.743 1.843 6.382-1.223.19-.911.035-1.876-.546-2.776a.646.646 0 01.005-.695 1.76 1.76 0 00.197-.455h.417c1.146 0 2.08.933 2.08 2.08v7.421a.337.337 0 10.673 0v-7.422c0-1.344-.97-2.462-2.245-2.701zM21.681 4.811a.337.337 0 00-.56.373c2.245 3.373 2.3 7.075-.001 10.528a2.86 2.86 0 01-2.385 1.275c-2.235 0-3.655-2.474-2.325-4.535.276-.427.278-.969.003-1.413a1.15 1.15 0 010-1.183 1.31 1.31 0 00.001-1.407c-1.734-2.687 1.07-5.485 3.59-4.245a.337.337 0 10.297-.605c-3.12-1.534-6.56 1.941-4.453 5.214a.642.642 0 01-.008.69c-.046.074-.07.158-.104.238h-.468c-.727 0-1.318-.73-1.318-1.629v-.439a.337.337 0 10-.673 0v.439c0 1.048.611 1.924 1.44 2.203a2.755 2.755 0 00-2.244 2.701v7.422a.337.337 0 10.673 0v-7.422c0-1.146.933-2.08 2.08-2.08h.416c.045.161.11.315.198.456a.649.649 0 01-.022.736c-1.533 2.33.041 5.533 2.917 5.533a3.532 3.532 0 002.945-1.575c2.388-3.581 2.464-7.577.002-11.275z" fill="#000"/>
</svg>
