<svg width="24" height="24" fill="none" xmlns="http://www.w3.org/2000/svg">
  <defs/>
  <path d="M10.877 7.036v11.092c0 1.035-.84 1.875-1.875 1.875h-1.23c-.681 0-1.234.552-1.234 1.234v1.022h10.935v-1.022c0-.682-.553-1.234-1.235-1.234h-1.23a1.875 1.875 0 01-1.875-1.875V2.84a1.129 1.129 0 00-2.256 0v1.014" fill="#4EBFED"/>
  <g fill="#3BA4BC">
    <path d="M11.579 18.128V2.84a1.126 1.126 0 01.777-1.073 1.126 1.126 0 00-1.149.275c-.204.205-.33.487-.33.798v15.287c0 1.035-.84 1.874-1.875 1.874h.702c1.035 0 1.875-.84 1.875-1.874zM8.474 20.002h-.702c-.681 0-1.234.553-1.234 1.235v1.022h.702v-1.022c0-.682.553-1.235 1.234-1.235z"/>
  </g>
  <path d="M10.162 4.806h-8.05v1.28H21.897v-1.28h-8.05" fill="#4EBFED"/>
  <path d="M.872 13.284a3.611 3.611 0 107.222 0H.872z" fill="#FCD577"/>
  <path d="M1.938 13.284H.872a3.611 3.611 0 004.144 3.572 3.612 3.612 0 01-3.078-3.572z" fill="#EAC36E"/>
  <path d="M15.916 13.284a3.611 3.611 0 007.222 0h-7.222z" fill="#FCD577"/>
  <path d="M16.982 13.284h-1.066a3.611 3.611 0 004.144 3.572 3.612 3.612 0 01-3.078-3.572z" fill="#EAC36E"/>
  <path d="M12.005 7.395a1.95 1.95 0 100-3.899 1.95 1.95 0 000 3.9z" fill="#FCD577"/>
  <path d="M16.232 19.65h-1.23a1.509 1.509 0 01-1.507-1.508V8.213a.367.367 0 10-.735 0v9.929a2.245 2.245 0 002.243 2.242h1.23c.477 0 .866.389.866.867v.655H6.9v-.655c0-.478.389-.867.867-.867h1.23a2.245 2.245 0 002.242-2.242v-2.907a.368.368 0 00-.735 0v2.907c0 .831-.676 1.507-1.507 1.507h-1.23c-.883 0-1.602.719-1.602 1.602v1.022c0 .203.165.368.367.368h10.935a.367.367 0 00.367-.368v-1.022c0-.883-.718-1.602-1.602-1.602z" fill="#000"/>
  <path d="M23.133 12.931h-1.106L20.02 6.467h1.873a.367.367 0 00.367-.368V4.82a.367.367 0 00-.367-.367h-7.806a2.332 2.332 0 00-.591-.76v-.838a1.497 1.497 0 00-2.554-1.057 1.488 1.488 0 00-.438 1.057v.837a2.329 2.329 0 00-.59.76H6.723a.367.367 0 000 .736H9.7a2.334 2.334 0 000 .544H2.475v-.544H5.47a.368.368 0 000-.735H2.108a.367.367 0 00-.368.367V6.1c0 .202.165.367.368.367H3.98L1.974 12.93H.868A.367.367 0 00.5 13.3a3.983 3.983 0 003.978 3.978A3.983 3.983 0 008.457 13.3a.367.367 0 00-.368-.368H6.983L4.977 6.467h4.936c.143.293.345.552.591.76v6.754a.368.368 0 00.735 0V7.648a2.32 2.32 0 002.848-1.181h4.936l-2.006 6.464H15.91a.368.368 0 00-.368.368 3.983 3.983 0 003.979 3.978 3.947 3.947 0 002.852-1.205.367.367 0 10-.527-.512 3.218 3.218 0 01-2.325.982 3.248 3.248 0 01-3.223-2.876h6.446a3.206 3.206 0 01-.262.959.367.367 0 10.67.3A3.95 3.95 0 0023.5 13.3a.367.367 0 00-.367-.368zM4.478 16.542a3.248 3.248 0 01-3.222-2.876H7.7a3.248 3.248 0 01-3.223 2.876zm-1.735-3.61l1.735-5.593 1.736 5.592h-3.47zM11.24 2.854a.757.757 0 01.761-.76c.42 0 .76.34.76.76v.417a2.306 2.306 0 00-1.52 0v-.417zM12 7.042c-.872 0-1.582-.71-1.582-1.582 0-.873.71-1.582 1.582-1.582.873 0 1.582.71 1.582 1.582 0 .872-.71 1.582-1.582 1.582zm2.3-1.854h7.225v.544h-7.224a2.347 2.347 0 000-.544zm3.486 7.743l1.736-5.592 1.735 5.592h-3.47z" fill="#000"/>
  <path d="M12 4.418a1.043 1.043 0 000 2.083 1.043 1.043 0 000-2.083zm0 1.348a.307.307 0 11.001-.613.307.307 0 010 .613z" fill="#000"/>
</svg>
