<svg width="24" height="24" fill="none" xmlns="http://www.w3.org/2000/svg">
  <defs/>
  <path d="M13.98 19.535V9.733H9.871v9.802s4.11-.05 4.11 0z" fill="#BED8E4"/>
  <path d="M13.982 9.726h-4.11v1.151h4.11v-1.15z" fill="#B1C6D3"/>
  <path d="M15.59 5.817L14.361 8.99H9.447L8.218 5.822l7.372-.005z" fill="#BED8E4"/>
  <path d="M8.237 8.792h7.377l-.396 1.238H8.683l-.446-1.238z" fill="#D3E8F1"/>
  <path d="M9.878 18.737v-.858h4.1v2.05h-4.24l.14-1.192z" fill="#B1C6D3"/>
  <path d="M15.862 18.743H7.99v2.773h7.872v-2.773z" fill="#D3E8F1"/>
  <path d="M15.858 20.378H7.994v1.28h7.864v-1.28z" fill="#B1C6D3"/>
  <path d="M17.434 21.08H6.375v2.049h11.059V21.08z" fill="#BED8E4"/>
  <path d="M6.1 21.08v2.049c0 .205.166.371.37.371h11.06a.371.371 0 00.37-.371V21.08a.371.371 0 00-.37-.372h-1.322v-1.99a.371.371 0 00-.37-.372H7.964a.371.371 0 00-.37.372v1.99H6.47a.371.371 0 00-.371.372zm.742.372h6.595a.371.371 0 100-.743h-5.1v-1.62h7.129v1.62h-.508a.371.371 0 100 .743h2.2v1.305H6.842v-1.305zM13.956 17.63a.371.371 0 00.37-.372v-6.881h.941a.371.371 0 100-.743H8.733a.371.371 0 100 .743h.742v6.881a.371.371 0 10.743 0v-6.881h3.366v6.881c0 .205.167.371.372.371zM6.392 5.458c0 .205.166.372.37.372h1.181a.37.37 0 00.03.124l1.046 2.442h-.732a.371.371 0 100 .743h7.376a.371.371 0 100-.743h-.682l1.046-2.442a.368.368 0 00.03-.124h1.18a.371.371 0 100-.743h-1.985a.371.371 0 100 .743h.021l-1.1 2.566H9.827l-1.1-2.566h4.906a.371.371 0 100-.743h-6.87a.371.371 0 00-.371.371zM13.139 1.762h-.842v-.89a.371.371 0 10-.743 0v.89h-.89a.371.371 0 100 .743h.89v.94h-.445a.371.371 0 000 .743h1.634a.371.371 0 100-.742h-.446v-.941h.842a.371.371 0 000-.743z" fill="#000"/>
</svg>
