<svg width="24" height="24" fill="none" xmlns="http://www.w3.org/2000/svg">
  <defs/>
  <g fill-rule="evenodd" clip-rule="evenodd">
    <path d="M6.036 4.446l5.252-3.42c.24-.157.486-.213.714-.173.256.045.489.21.668.487l3.378 5.231c.339.523.081 1.27-.348 1.702l-5.76 5.808c-.43.432-1.164.269-1.383-.315l-2.87-7.618c-.218-.583-.162-1.37.35-1.702z" fill="#FFDDA6"/>
    <path d="M11.698 2.28l2.61 4.041c.124.194.169.416.152.643-.027.388-.229.786-.5 1.059l-1.795 1.81-2.647 2.668-1.042 1.05.081.214c.106.28.329.464.58.531.272.073.579.01.803-.215l2.957-2.982L15.7 8.273c.43-.432.687-1.179.348-1.702l-3.378-5.23c-.18-.278-.412-.443-.668-.488-.228-.04-.474.016-.714.173l-.281.183.69 1.07z" fill="#FCC368"/>
    <path d="M4.849 21.114l-.126.633-.192.963c-.056.282.219.531.53.425l.875-.296.877-.297c.311-.106.378-.47.163-.661l-.736-.648c-.128-.114-.258-.226-.387-.34l-.135-.12c.044-.228.09-.455.137-.683l.192-.962c.056-.283-.22-.532-.531-.426l-.876.297-.876.297c-.31.105-.38.47-.163.66l.736.65c.173.151.35.304.522.458l-.01.05zM6.795 15.577l-.193.906-.194.907c-.069.322.209.567.483.479l.933-.303c.217-.071.441-.146.66-.214l.039.033.477.432.728.659c.213.193.567.083.635-.239l.194-.907.194-.906c.068-.321-.21-.567-.484-.478l-.932.302c-.22.072-.44.146-.66.215-.174-.154-.346-.312-.516-.467l-.729-.658c-.213-.193-.567-.082-.635.24z" fill="#F78411"/>
  </g>
  <path d="M23.18 17.825c-2.098-.126-2.533-1.269-3.037-2.591-.524-1.376-1.117-2.935-3.876-2.803l-.009.001c-1.272.095-2.186-.392-2.912-1.303l2.596-2.617c.28-.282.5-.681.574-1.095l.004-.014a1.393 1.393 0 00-.186-1.017l-3.378-5.231c-.227-.35-.53-.569-.88-.635h-.005l-.01-.003c-.318-.055-.649.022-.957.224L5.852 4.16c-.671.437-.75 1.39-.481 2.107l.872 2.317a.34.34 0 10.635-.24l-.872-2.317c-.064-.17-.1-.363-.1-.548l4.555.975-1.55 7.267a.556.556 0 01-.035-.076L7.44 9.837a.34.34 0 10-.635.24l1.434 3.808c.098.26.278.473.507.61l-.281 1.32-.807-.73a.701.701 0 00-.696-.148.748.748 0 00-.499.569l-.193.905-.194.907a.751.751 0 00.224.723c.19.173.45.23.695.15l.933-.302a.517.517 0 00.012-.003c-.318.74-.855 1.39-1.715 2.082l.155-.775a.707.707 0 00-.23-.675.748.748 0 00-.743-.14l-.876.298-.875.297a.748.748 0 00-.506.563.705.705 0 00.227.674l.557.492-3.088-.071H.84a.34.34 0 00-.007.68l3.615.084-.249 1.248a.706.706 0 00.23.674c.136.12.308.183.486.183.085 0 .17-.014.256-.043l1.753-.594a.75.75 0 00.505-.563.707.707 0 00-.227-.675l-.735-.648-.195-.17-.01-.008c1.254-.935 1.993-1.81 2.384-2.846l.857.775a.7.7 0 00.694.148.75.75 0 00.5-.568l.388-1.813a.751.751 0 00-.226-.724.702.702 0 00-.695-.15l-.932.303-.102.034.276-1.294c.29-.013.566-.133.777-.344l2.682-2.704c.757.916 1.739 1.508 3.085 1.508.115 0 .234-.005.355-.013 2.262-.108 2.678.984 3.205 2.365.513 1.348 1.095 2.876 3.631 3.028h.02a.34.34 0 00.02-.68zM3.818 19.67c.002-.013.013-.037.057-.052l.876-.297.876-.298c.032-.01.06-.008.077.007.015.013.013.026.012.03l-.232 1.158-.07.349a.914.914 0 01-.428.154 57.772 57.772 0 00-.286-.252l-.873-.77c-.004-.003-.013-.01-.01-.03zm2.935 2.466c.004.003.013.011.01.03-.004.017-.016.04-.057.053l-1.753.594c-.041.014-.064.004-.077-.007-.014-.013-.012-.025-.01-.03l.276-1.39c.212-.031.388-.102.544-.19a48.601 48.601 0 00.332.292l.735.648zm6.198-11.572c-.62-1.003-1.103-2.352-1.592-3.918l1.184.253 1.206.26 2.01.43a1.482 1.482 0 01-.297.444l-2.51 2.53zm2.814-3.808c.03.047.054.099.07.153l-1.944-.416-1.206-.259-1.417-.303.977-4.581a.988.988 0 01.143.175l3.377 5.23zM6.222 4.73l5.252-3.419a.96.96 0 01.096-.054l-.967 4.532-4.492-.962a.563.563 0 01.111-.097zM7.94 17.17l-.219.072-.932.302c-.005.002-.017.006-.031-.007-.01-.01-.025-.031-.016-.076l.387-1.814c.01-.045.032-.058.045-.062.018-.006.027.001.031.006l.727.656.093.084.278.253-.101.474-.007.03-.255.083zm1.283-.527l.219-.072.932-.302c.005-.002.016-.005.03.008.01.009.026.03.017.076l-.387 1.813c-.01.044-.033.058-.046.062-.018.006-.026-.001-.03-.005l-1.099-.994.007-.029.1-.474c.087-.027.173-.055.257-.083zM9.7 13.84a.492.492 0 01-.14.099l1.365-6.402c.408 1.271.877 2.526 1.532 3.524L9.7 13.84z" fill="#000"/>
</svg>
