<svg width="24" height="24" fill="none" xmlns="http://www.w3.org/2000/svg">
  <defs/>
  <path d="M10.726 9.771a1.192 1.192 0 000 1.686l2.518 2.518c.466.466 1.22.466 1.686 0l7.885-7.885a1.192 1.192 0 000-1.686l-2.518-2.518a1.192 1.192 0 00-1.686 0l-7.885 7.885z" fill="#5B9ED6"/>
  <path d="M22.815 4.404l-1.429-1.428c.466.465.466 1.22 0 1.686l-7.884 7.885a1.192 1.192 0 01-1.687 0l1.429 1.428c.466.466 1.22.466 1.686 0l7.885-7.885a1.193 1.193 0 000-1.686z" fill="#508BBD"/>
  <path d="M16.803 3.694l4.203 4.204-1.003 1.004-4.204-4.204 1.004-1.004z" fill="#5A67AD"/>
  <path d="M18.574 7.474l1.004-1.004 1.429 1.428-1.004 1.004-1.429-1.428z" fill="#4B558F"/>
  <path d="M.836 21.735c.536 1.998 9.1-.286 9.333-4.811.02-.4.25-.76.533-1.043l2.224-2.224-2.006-2.005L.836 21.735z" fill="#F4F4F4"/>
  <path d="M11.82 12.551l-2.224 2.224c-.283.282-.513.643-.533 1.042-.178 3.466-5.243 5.617-7.846 5.537l-.381.381c.536 1.998 9.1-.286 9.333-4.811.02-.4.25-.76.533-1.043l2.224-2.224-1.107-1.106z" fill="#DBDBDB"/>
  <path d="M23.053 4.167l-2.518-2.518a1.53 1.53 0 00-2.162 0l-3.975 3.975a.337.337 0 00.476.476l.925-.925 3.728 3.728-4.835 4.835a.857.857 0 01-1.21 0l-2.518-2.518a.857.857 0 010-1.21l2.813-2.812a.337.337 0 00-.476-.476l-2.813 2.812c-.58.58-.585 1.51-.035 2.11L3.83 18.266a.337.337 0 00.476.476l6.615-6.615 1.53 1.53-1.986 1.986c-.39.39-.609.827-.631 1.263-.207 4.026-7.542 6.08-8.588 4.895l1.923-1.923a.337.337 0 00-.476-.476L.599 21.498a.337.337 0 00-.088.325c.258.96 1.616 1.045 2.609.94 3.056-.323 7.22-2.58 7.386-5.822.032-.614.564-.9 2.42-2.807.039.026.418.527 1.161.527.392 0 .783-.15 1.081-.447l7.885-7.885a1.53 1.53 0 000-2.162zm-6.778.532l.528-.528 3.728 3.728-.528.528-3.728-3.728zm6.302 1.154l-1.57 1.57-3.728-3.728 1.57-1.57a.855.855 0 011.21 0l2.518 2.518a.857.857 0 010 1.21z" fill="#000"/>
</svg>
