<svg width="24" height="24" fill="none" xmlns="http://www.w3.org/2000/svg">
  <defs/>
  <path d="M17.083 2.901H7.925A1.698 1.698 0 019.594.891h5.703c.818 0 1.52.582 1.67 1.385l.116.625z" fill="#FCD577"/>
  <path d="M20.99 21.609L17.36 2.217A2.105 2.105 0 0015.292.5H9.588C8.96.5 8.37.777 7.97 1.26a2.098 2.098 0 00-.449 1.731l.535 2.855L2.999 22.98a.406.406 0 00.39.521h9.158c.18 0 .339-.119.39-.291l4.605-15.606 2.65 14.156a.782.782 0 01-.771.928h-5.237a.406.406 0 000 .813h5.237c.477 0 .924-.21 1.229-.577.304-.367.428-.846.34-1.314zM9.589 1.312h5.704c.621 0 1.155.444 1.27 1.054l.026.144H8.3a1.288 1.288 0 011.288-1.198zm5.73 10.957h-5.234l-.414-2.21a.407.407 0 00-.799.149l.386 2.06h-2.25l.819-2.775h8.31l-.818 2.775zm-1.06 3.588h-3.503l-.52-2.776h4.843l-.82 2.776zM13.2 19.445h-1.773l-.52-2.776h3.112l-.819 2.776zM5.708 16.67h4.373l.52 2.776H4.889l.819-2.776zm1.059-3.588h2.642l.52 2.776H5.948l.819-2.776zm5.476 9.607h-8.31l.716-2.43h6.104l.194 1.035a.406.406 0 10.798-.15l-.165-.885h1.38l-.717 2.43zM16.377 8.68H8.065l.726-2.458h8.31l-.724 2.458zM8.799 5.41l-.39-2.087h8.331l.391 2.087H8.799z" fill="#000"/>
</svg>
