<svg width="24" height="24" fill="none" xmlns="http://www.w3.org/2000/svg">
  <defs/>
  <path d="M5.033 22.419h-.95a.27.27 0 01-.27-.27v-6.8h1.489v6.8a.27.27 0 01-.27.27z" fill="#EDE9E8"/>
  <path d="M4.314 15.35v6.8a.27.27 0 01-.25.268l.019.001h.95a.27.27 0 00.269-.27v-6.8h-.988z" fill="#DFD7D5"/>
  <path d="M5.777 16.093H3.339a.27.27 0 01-.27-.27V14.38h2.977v1.444a.27.27 0 01-.27.27z" fill="#FABE2C"/>
  <path d="M5.059 14.38v1.444a.27.27 0 01-.27.27h.988a.27.27 0 00.27-.27V14.38h-.988z" fill="#FD9E28"/>
  <path d="M7.984 14.605H1.581a.744.744 0 01-.744-.744V10.14c0-.411.333-.745.744-.745h6.403v5.21z" fill="#898989"/>
  <path d="M3.07 10.717V9.395H1.58a.744.744 0 00-.744.745v3.72c0 .412.333.745.744.745H3.07v-1.322a.27.27 0 00-.15-.241l-.446-.223a.27.27 0 01-.149-.241v-1.155a.27.27 0 01.15-.242l.446-.223a.27.27 0 00.149-.24z" fill="#FABE2C"/>
  <path d="M2.92 13.042l-.446-.223a.27.27 0 01-.149-.241v-1.155a.27.27 0 01.15-.242l.445-.223a.27.27 0 00.15-.24V9.394H2.08v1.322a.27.27 0 01-.149.241l-.446.223a.27.27 0 00-.15.242v1.155a.27.27 0 00.15.24l.446.224a.27.27 0 01.15.241v1.322h.987v-1.322a.27.27 0 00-.149-.241z" fill="#FD9E28"/>
  <path d="M6.547 9.395h1.437v5.21H6.547v-5.21z" fill="#727575"/>
  <path d="M17.954 22.145a.27.27 0 01-.276.27C12.05 22.27 7.535 17.662 7.535 12c0-5.662 4.516-10.269 10.143-10.415a.27.27 0 01.276.27v20.29z" fill="#898989"/>
  <path d="M17.677 1.585c-.756.02-1.492.12-2.2.293v20.244c.708.173 1.444.274 2.2.293a.27.27 0 00.276-.27V1.855a.27.27 0 00-.276-.27z" fill="#727575"/>
  <path d="M17.954 14.232a2.233 2.233 0 000-4.465h-.99v4.466h.99z" fill="#AAEBF9"/>
  <path d="M17.954 9.767h-.989a2.233 2.233 0 010 4.466h-.001.99a2.233 2.233 0 000-4.466z" fill="#7BE2F6"/>
  <path d="M16.465 22.313c.397.056.801.091 1.212.102a.27.27 0 00.276-.27V1.855a.27.27 0 00-.276-.27c-.41.01-.815.045-1.212.102v20.626z" fill="#FABE2C"/>
  <path d="M17.677 1.585c-.276.007-.549.026-.819.054a.27.27 0 01.108.216v20.29a.269.269 0 01-.108.215c.27.029.543.048.819.055a.27.27 0 00.277-.27V1.855a.27.27 0 00-.277-.27z" fill="#FD9E28"/>
  <path d="M4.558 11.291a.337.337 0 00-.337.337v.744a.337.337 0 10.674 0v-.744a.337.337 0 00-.337-.337zM6.047 11.291a.337.337 0 00-.337.337v.744a.337.337 0 10.674 0v-.744a.337.337 0 00-.337-.337zM23.163 11.663h-1.488a.337.337 0 000 .674h1.488a.337.337 0 100-.674zM21.176 10.476a.335.335 0 00.168-.045l1.29-.744a.337.337 0 00-.338-.583l-1.289.744a.337.337 0 00.17.628zM22.633 14.313l-1.289-.744a.337.337 0 00-.337.583l1.29.744a.337.337 0 00.337-.583z" fill="#000"/>
  <path d="M18.29 9.453V1.581a.337.337 0 00-.336-.337 10.685 10.685 0 00-7.606 3.15 10.697 10.697 0 00-2.746 4.671.348.348 0 00-.067-.007h-2.64V8.28a.337.337 0 10-.674 0v.78h-1.15-.002-1.488C.985 9.058.5 9.542.5 10.138v3.722c0 .596.485 1.08 1.081 1.08h1.152v1.152c0 .186.15.337.337.337h.407v5.989c0 .186.15.337.337.337h1.488c.186 0 .337-.151.337-.337v-3.56a.337.337 0 10-.674 0v3.223h-.814V16.43h.814v1.08a.337.337 0 00.674 0v-1.08h.407c.186 0 .337-.15.337-.337v-1.151h1.152a.333.333 0 00.067-.007 10.697 10.697 0 002.746 4.67 10.685 10.685 0 007.606 3.15c.186 0 .337-.15.337-.336v-7.872A2.573 2.573 0 0020.523 12a2.573 2.573 0 00-2.232-2.547zM1.175 13.861v-3.722c0-.224.183-.407.407-.407h1.152v.944l-.558.278a.337.337 0 00-.187.302v1.488c0 .128.073.245.187.302l.558.279v.943H1.58a.408.408 0 01-.407-.407zm4.536 1.895H3.406v-.814H5.71v.814zm.336-1.488h-2.64v-1.152a.337.337 0 00-.186-.301l-.558-.279v-1.072l.558-.279a.337.337 0 00.186-.301V9.732h4.03a10.854 10.854 0 000 4.536h-1.39zM7.872 12c0-2.693 1.048-5.225 2.953-7.13a10.008 10.008 0 015.303-2.788v19.836a10.01 10.01 0 01-5.303-2.789A10.016 10.016 0 017.872 12zm8.93 10.017V1.983c.27-.03.541-.05.815-.06v20.154c-.274-.01-.545-.03-.815-.06zm1.489-8.152v-3.73c.885.16 1.558.935 1.558 1.865 0 .93-.673 1.706-1.558 1.865z" fill="#000"/>
</svg>
