<svg width="24" height="24" fill="none" xmlns="http://www.w3.org/2000/svg">
  <defs/>
  <path d="M6.046 13.488a5.954 5.954 0 005.876 5.953c3.287.043 6.007-2.62 6.031-5.907a5.954 5.954 0 00-3.56-5.499.268.268 0 01-.16-.246V6.521H9.766v1.268a.269.269 0 01-.16.247 5.954 5.954 0 00-3.561 5.452z" fill="#FABE2C"/>
  <path d="M14.393 8.035a.268.268 0 01-.16-.246V6.521h-.988v1.268c0 .107.062.203.16.246a5.955 5.955 0 013.56 5.499c-.022 3.095-2.435 5.636-5.461 5.887.138.012.278.019.419.02 3.287.043 6.007-2.62 6.03-5.907a5.954 5.954 0 00-3.56-5.499z" fill="#FD9E28"/>
  <path d="M14.605 5.651V1.106a.27.27 0 00-.27-.27h-4.67a.27.27 0 00-.27.27v4.545h5.21z" fill="#EDE9E8"/>
  <path d="M14.335.837h-.988c.149 0 .27.12.27.27V5.65h.987V1.106a.27.27 0 00-.269-.27z" fill="#DFD7D5"/>
  <path d="M9.396 5.302a.744.744 0 100 1.488h5.209a.744.744 0 100-1.488h-5.21z" fill="#898989"/>
  <path d="M14.604 5.302h-.988a.744.744 0 110 1.488h.989a.744.744 0 100-1.488z" fill="#727575"/>
  <path d="M12 20.594a.337.337 0 00-.337.336v2.233a.337.337 0 00.674 0V20.93a.337.337 0 00-.337-.336zM17.5 18.512a.337.337 0 00-.476.477l1.58 1.579a.336.336 0 00.476 0 .337.337 0 000-.477l-1.58-1.579zM21.675 13.152h-2.233a.337.337 0 100 .673h2.233a.337.337 0 000-.673zM17.263 8.563a.336.336 0 00.238-.099l1.579-1.579a.337.337 0 10-.477-.476l-1.579 1.579a.337.337 0 00.239.575zM6.5 8.464a.336.336 0 00.476 0 .337.337 0 000-.476L5.397 6.409a.337.337 0 10-.476.476L6.5 8.465zM4.558 13.152H2.325a.337.337 0 100 .673h2.233a.337.337 0 100-.673zM6.5 18.512l-1.579 1.58a.337.337 0 10.476.476l1.58-1.58a.337.337 0 10-.477-.476z" fill="#000"/>
  <path d="M17.189 9.931a6.287 6.287 0 00-2.62-2.186v-.618h.035a1.082 1.082 0 00.337-2.108V4.15h.035a.337.337 0 000-.673h-.035v-.815h.035a.337.337 0 000-.674h-.035V.837A.337.337 0 0014.604.5h-5.21a.337.337 0 00-.336.337v1.151h-.035a.337.337 0 100 .674h.035v.815h-.035a.337.337 0 100 .673h.035v.869a1.082 1.082 0 00.337 2.108h.035v.618a6.288 6.288 0 00-3.721 5.743 6.298 6.298 0 006.29 6.29 6.298 6.298 0 006.291-6.29c0-1.277-.38-2.507-1.101-3.557zM9.732 2.662h.477a.337.337 0 000-.674h-.477v-.814h4.535v.814h-2.71a.337.337 0 100 .674h2.71v.815H9.732v-.815zm4.535 1.488v.815H9.732V4.15h4.535zm-5.28 1.896c0-.224.183-.407.408-.407h5.21a.408.408 0 010 .814h-5.21a.408.408 0 01-.407-.407zm4.466 6.29h.407a.408.408 0 11-.407.408v-.407zM11.22 7.128h1.559v4.536H11.22V7.127zM12 19.105a5.623 5.623 0 01-5.617-5.617 5.614 5.614 0 013.51-5.208.337.337 0 00.21-.312v-.84h.443v4.535h-.407c-.596 0-1.081.485-1.081 1.081a1.082 1.082 0 002.162 0v-.407h1.559v.407a1.082 1.082 0 002.162 0c0-.596-.485-1.081-1.081-1.081h-.407V7.127h.442v.84c0 .138.084.262.21.313a5.615 5.615 0 013.511 5.208A5.623 5.623 0 0112 19.105zm-1.454-6.768v.407a.408.408 0 11-.407-.407h.407z" fill="#000"/>
</svg>
