<svg width="24" height="24" fill="none" xmlns="http://www.w3.org/2000/svg">
  <defs/>
  <path d="M5.405 7.24L6.79 8.278h.225v7.442H6.79l-1.385 1.04a.27.27 0 01-.227.045L1.04 15.772a.27.27 0 01-.204-.261V8.489a.27.27 0 01.204-.261l4.137-1.034a.27.27 0 01.227.045z" fill="#727575"/>
  <path d="M5.178 7.194L1.04 8.228a.27.27 0 00-.204.261v.989a.27.27 0 01.204-.262l4.137-1.034a.27.27 0 01.227.046l1.385 1.04h.225v-.989H6.79l-1.385-1.04a.27.27 0 00-.227-.045z" fill="#5E6161"/>
  <path d="M7.162 13.489v1.488h-1.59a.27.27 0 01-.27-.27v-.949c0-.149.12-.27.27-.27h1.59z" fill="#FABE2C"/>
  <path d="M5.302 13.758v.969a.27.27 0 01.27-.25h1.59v-.989h-1.59a.27.27 0 00-.27.27z" fill="#FD9E28"/>
  <path d="M7.162 9.023v1.489h-1.59a.27.27 0 01-.27-.27v-.95c0-.148.12-.269.27-.269h1.59z" fill="#FABE2C"/>
  <path d="M5.302 9.293v.968a.27.27 0 01.27-.25h1.59v-.988h-1.59a.27.27 0 00-.27.27z" fill="#FD9E28"/>
  <path d="M18.596 7.24L17.21 8.278h-.225v7.442h.225l1.386 1.04a.27.27 0 00.227.045l4.136-1.034a.27.27 0 00.204-.261V8.489a.27.27 0 00-.204-.261l-4.136-1.034a.27.27 0 00-.227.045z" fill="#727575"/>
  <path d="M18.823 7.194l4.136 1.034a.27.27 0 01.204.261v.989a.27.27 0 00-.204-.262l-4.136-1.034a.27.27 0 00-.227.046l-1.386 1.04h-.225v-.989h.225l1.386-1.04a.27.27 0 01.227-.045z" fill="#5E6161"/>
  <path d="M16.837 13.489v1.488h1.591a.27.27 0 00.27-.27v-.949a.27.27 0 00-.27-.27h-1.591z" fill="#FABE2C"/>
  <path d="M18.698 13.758v.95l-.002.019a.27.27 0 00-.268-.25h-1.591v-.989h1.591c.149 0 .27.121.27.27z" fill="#FD9E28"/>
  <path d="M16.837 9.023v1.489h1.591a.27.27 0 00.27-.27v-.95a.27.27 0 00-.27-.269h-1.591z" fill="#FABE2C"/>
  <path d="M18.698 9.293v.95l-.002.018a.27.27 0 00-.268-.25h-1.591v-.988h1.591c.149 0 .27.12.27.27z" fill="#FD9E28"/>
  <path d="M16.76 5.405L15.72 6.79v.224H8.28V6.79l-1.04-1.385a.27.27 0 01-.045-.227L8.228 1.04a.27.27 0 01.261-.204h7.021a.27.27 0 01.262.204l1.034 4.137a.27.27 0 01-.046.227z" fill="#727575"/>
  <path d="M16.806 5.178L15.772 1.04a.27.27 0 00-.261-.204h-.988a.27.27 0 01.26.204l1.035 4.137a.27.27 0 01-.046.227l-1.04 1.385v.225h.99V6.79l1.039-1.385a.27.27 0 00.046-.227z" fill="#5E6161"/>
  <path d="M10.512 7.163H9.023V5.572c0-.15.121-.27.27-.27h.95c.148 0 .269.12.269.27v1.59z" fill="#FABE2C"/>
  <path d="M10.242 5.302h-.95l-.019.001c.14.01.25.127.25.269v1.59h.989v-1.59a.27.27 0 00-.27-.27z" fill="#FD9E28"/>
  <path d="M14.977 7.163h-1.489V5.572c0-.15.121-.27.27-.27h.95c.148 0 .269.12.269.27v1.59z" fill="#FABE2C"/>
  <path d="M14.707 5.302h-.95a.24.24 0 00-.019.001c.14.01.25.127.25.269v1.59h.989v-1.59a.27.27 0 00-.27-.27z" fill="#FD9E28"/>
  <path d="M16.76 18.595l-1.04-1.386v-.224H8.28v.224l-1.04 1.386a.27.27 0 00-.045.227l1.034 4.137a.27.27 0 00.261.204h7.021a.27.27 0 00.262-.204l1.034-4.137a.27.27 0 00-.046-.227z" fill="#727575"/>
  <path d="M16.806 18.822l-1.034 4.137a.27.27 0 01-.261.204h-.988a.27.27 0 00.26-.204l1.035-4.137a.27.27 0 00-.046-.227l-1.04-1.386v-.224h.99v.224l1.039 1.386a.27.27 0 01.046.227z" fill="#5E6161"/>
  <path d="M10.512 16.837H9.023v1.591c0 .15.121.27.27.27h.95a.27.27 0 00.269-.27v-1.59z" fill="#FABE2C"/>
  <path d="M10.242 18.698h-.95l-.019-.001a.27.27 0 00.25-.269v-1.59h.989v1.59a.27.27 0 01-.27.27z" fill="#FD9E28"/>
  <path d="M14.977 16.837h-1.489v1.591c0 .15.121.27.27.27h.95a.27.27 0 00.269-.27v-1.59z" fill="#FABE2C"/>
  <path d="M14.707 18.698h-.95l-.019-.001a.27.27 0 00.25-.269v-1.59h.989v1.59a.27.27 0 01-.27.27z" fill="#FD9E28"/>
  <path d="M17.21 16.465a.744.744 0 01-.745.745h-8.93a.744.744 0 01-.745-.745v-8.93c0-.411.333-.744.744-.744h8.93c.412 0 .745.333.745.744v8.93z" fill="#898989"/>
  <path d="M16.466 6.79h-.989c.412 0 .745.334.745.745v8.93a.744.744 0 01-.745.745h.989a.744.744 0 00.744-.745v-8.93a.744.744 0 00-.744-.744z" fill="#727575"/>
  <path d="M15.452 15.721H8.55a.27.27 0 01-.27-.27V8.549c0-.148.121-.27.27-.27h6.903c.149 0 .27.122.27.27v6.904a.27.27 0 01-.27.27z" fill="#727575"/>
  <path d="M15.451 8.279h-.988c.149 0 .27.12.27.27v6.903a.27.27 0 01-.27.27h.988a.27.27 0 00.27-.27V8.548a.27.27 0 00-.27-.27z" fill="#5E6161"/>
  <path d="M15.721 12a3.721 3.721 0 11-7.442 0 3.721 3.721 0 017.442 0z" fill="#AAEBF9"/>
  <path d="M12 8.28a3.76 3.76 0 00-.494.033 3.721 3.721 0 010 7.374A3.721 3.721 0 1012 8.28z" fill="#7BE2F6"/>
  <path d="M15.722 7.942H8.279a.337.337 0 00-.337.337v7.442c0 .186.151.337.337.337h7.443c.186 0 .336-.15.336-.337V8.28a.337.337 0 00-.336-.337zM12 15.384A3.388 3.388 0 018.616 12 3.388 3.388 0 0112 8.616 3.388 3.388 0 0115.385 12 3.388 3.388 0 0112 15.384H12zM8.616 8.616h1.148a4.094 4.094 0 00-1.148 1.147V8.616zm0 6.768v-1.147c.302.455.693.845 1.148 1.147H8.616zm6.769 0h-1.148a4.093 4.093 0 001.148-1.147v1.147zm-1.148-6.768h1.148v1.147a4.093 4.093 0 00-1.148-1.147z" fill="#000"/>
  <path d="M10.14 11.291a.337.337 0 00-.337.337v.744a.337.337 0 00.674 0v-.744a.337.337 0 00-.337-.337zM12 11.291a.337.337 0 00-.337.337v.744a.337.337 0 00.674 0v-.744A.337.337 0 0012 11.29zM13.86 11.291a.337.337 0 00-.337.337v.744a.337.337 0 00.674 0v-.744a.337.337 0 00-.337-.337zM10.512 2.662h2.976a.337.337 0 100-.674h-2.976a.337.337 0 100 .674zM13.489 21.338h-2.977a.337.337 0 000 .674h2.976a.337.337 0 100-.674z" fill="#000"/>
  <path d="M23.245 7.952L18.78 6.836a.337.337 0 00-.284.057l-.95.712v-.07c0-.596-.485-1.081-1.08-1.081h-.071l.712-.95a.337.337 0 00.057-.284L16.048.755A.337.337 0 0015.72.5H8.279a.337.337 0 00-.327.255L6.836 5.22a.337.337 0 00.057.284l.712.95h-.07c-.596 0-1.081.485-1.081 1.08v.071l-.95-.712a.337.337 0 00-.284-.057L.755 7.952A.337.337 0 00.5 8.28v7.442c0 .155.105.29.255.327l1.825.456a.337.337 0 00.164-.654l-1.57-.392V8.542l4.054-1.014 1.226.92v.238H5.302a.337.337 0 00-.337.337v1.488c0 .187.151.337.337.337h1.152v2.303H5.302a.337.337 0 00-.337.337v1.489c0 .186.151.337.337.337h1.152v.239l-1.226.918-1.137-.284a.337.337 0 00-.163.654l1.292.323a.343.343 0 00.284-.057l.95-.712v.07c0 .596.485 1.081 1.08 1.081h.071l-.712.95a.337.337 0 00-.057.284l1.116 4.465c.037.15.172.255.327.255h7.442c.155 0 .29-.105.327-.255l1.116-4.466a.337.337 0 00-.057-.283l-.712-.95h.07c.596 0 1.081-.485 1.081-1.08v-.071l.95.712a.338.338 0 00.284.057l4.465-1.116a.337.337 0 00.255-.327V8.279a.337.337 0 00-.255-.327zM6.454 10.175h-.815V9.36h.815v.815zm0 4.465h-.815v-.815h.815v.815zm1.074-9.412l1.014-4.054h6.916l1.014 4.054-.92 1.226h-.238V5.302a.337.337 0 00-.337-.337h-1.489a.337.337 0 00-.336.337v1.152h-2.304V5.302a.337.337 0 00-.337-.337H9.023a.337.337 0 00-.337.337v1.152h-.239l-.919-1.226zm6.297 1.226v-.815h.815v.815h-.815zm-4.465 0v-.815h.815v.815H9.36zm7.112 12.318l-1.014 4.054H8.542l-1.014-4.054.92-1.226h.238v1.152c0 .186.151.337.337.337h1.489c.186 0 .336-.151.336-.337v-1.152h2.303v1.152c0 .186.151.337.337.337h1.489c.186 0 .337-.151.337-.337v-1.152h.239l.919 1.226zm-6.297-1.226v.815H9.36v-.815h.815zm4.465 0v.815h-.815v-.815h.815zm1.825-.673H8.28h-.744a.408.408 0 01-.408-.408V8.28v-.744c0-.225.183-.408.408-.408h8.93c.225 0 .408.183.408.408v8.93a.408.408 0 01-.408.408zm6.361-1.415l-4.054 1.014-1.226-.92v-.238h1.152c.186 0 .337-.151.337-.337v-1.489a.337.337 0 00-.337-.336h-1.152v-2.304h1.152c.186 0 .337-.15.337-.337V9.023a.337.337 0 00-.337-.337h-1.152v-.239l1.226-.919 4.054 1.014v6.916zm-5.28-.818v-.815h.815v.815h-.815zm0-4.466V9.36h.815v.815h-.815z" fill="#000"/>
  <path d="M21.675 13.825c.186 0 .337-.15.337-.337v-2.976a.337.337 0 10-.674 0v2.976c0 .187.15.337.337.337zM1.988 10.512v2.976a.337.337 0 10.674 0v-2.976a.337.337 0 00-.674 0z" fill="#000"/>
</svg>
