<svg width="24" height="24" fill="none" xmlns="http://www.w3.org/2000/svg">
  <defs/>
  <path d="M4.52 13.88v-.96a1.273 1.273 0 01-.904-1.216V8.009A9.242 9.242 0 002.715 12c0 1.206.23 2.36.65 3.418A2.468 2.468 0 014.52 13.88zM19.482 15.273v2.257a9.29 9.29 0 001.233-2.257h-1.233zM15.186 20.74a2.812 2.812 0 01-1.005-2.16V16.29h-.934c-.85 0-1.54-.69-1.54-1.54 0-.85.69-1.54 1.54-1.54h6.215v-.682a2.259 2.259 0 01-1.58-1.089H15.02a1.731 1.731 0 01-3.314-.706V9.687c0-.203.165-.367.367-.367h2.363v-.682c0-.652.503-1.247 1.145-1.356a.368.368 0 01.062-.005h1.17v-.64h-.611a.367.367 0 010-.734h1.586l-.014-1.196a9.29 9.29 0 00-2.755-1.506 3.145 3.145 0 01-3.006 2.263A3.145 3.145 0 019.006 3.2a9.275 9.275 0 00-2.24 1.128h1.32c.822 0 1.49.668 1.49 1.49 0 .531-.286 1.02-.734 1.284v4.382a.367.367 0 01-.734 0v-.115c-.897.015-1.548.02-1.95.01v.324c0 .573-.382 1.058-.904 1.216v.677a2.463 2.463 0 012.958 2.31h.583c.985 0 1.787.802 1.787 1.787 0 .738-.46 1.394-1.127 1.66v1.586a9.274 9.274 0 002.558.358 9.255 9.255 0 003.173-.558zM13.242 7.802a.367.367 0 11.734 0v.383a.367.367 0 01-.734 0v-.383z" fill="#98D9D5"/>
  <path d="M18.75 18.403v-3.497c0-.203.163-.367.366-.367h1.843c.229-.807.352-1.659.352-2.539a9.27 9.27 0 00-2.795-6.639l.01.904a.367.367 0 01-.367.372h-.611v1.007a.367.367 0 01-.367.367h-1.503a.685.685 0 00-.508.627v1.049a.367.367 0 01-.367.367H12.44v.68a.999.999 0 001.965.248h.003c.03-.108.118-.276.39-.276h3.308c.145 0 .276.085.335.217.245.548.79.902 1.388.902.203 0 .367.164.367.367v1.386a.367.367 0 01-.367.367h-6.582a.807.807 0 000 1.612h1.3c.203 0 .367.165.367.367v2.656c0 .76.406 1.445 1.07 1.826a9.341 9.341 0 002.765-2.003z" fill="#6DA8D6"/>
  <path d="M9.71 2.991a2.407 2.407 0 002.303 1.738 2.407 2.407 0 002.303-1.738 9.284 9.284 0 00-2.303-.289c-.795 0-1.566.1-2.303.289z" fill="#fff"/>
  <path d="M8.72 20.695v-1.612c0-.174.122-.324.292-.36a1.054 1.054 0 00-.217-2.082h-.948a.367.367 0 01-.367-.366v-.27c0-.951-.774-1.725-1.726-1.725-.951 0-1.726.774-1.726 1.726v.753a9.351 9.351 0 004.692 3.936zM4.887 12.24c.296 0 .537-.24.537-.537v-.708a.367.367 0 01.443-.359c.167.022 1.209.017 2.241 0V6.872c0-.154.096-.291.24-.344a.757.757 0 00-.262-1.466H5.83A9.371 9.371 0 004.35 6.74v4.963c0 .296.241.537.537.537z" fill="#6DA8D6"/>
  <path d="M22.755 11.29C22.388 5.65 17.67 1.234 12.013 1.234 6.077 1.234 1.247 6.064 1.247 12c0 2.177.647 4.275 1.871 6.066a.367.367 0 01.045.323l-1.23 3.69 3.69-1.23a.367.367 0 01.324.046 10.707 10.707 0 006.066 1.87c5.656 0 10.375-4.416 10.742-10.055a.367.367 0 01.384-.342 11.52 11.52 0 000-.736.367.367 0 01-.384-.342zm-3.333 7.466a.371.371 0 01-.081.088 10.08 10.08 0 01-3.17 2.284.37.37 0 01-.087.04 9.974 9.974 0 01-4.071.864 10 10 0 01-3.07-.482 10.08 10.08 0 01-5.566-4.452.367.367 0 01-.055-.092A9.97 9.97 0 011.982 12c0-2.045.615-3.948 1.67-5.536a.367.367 0 01.06-.092A10.113 10.113 0 015.4 4.463a.368.368 0 01.091-.08 10.024 10.024 0 013.717-2.015c.89-.26 1.832-.4 2.805-.4a10.002 10.002 0 016.31 2.24c.034.019.065.044.09.073a10.015 10.015 0 013.178 10.704 10.036 10.036 0 01-2.17 3.771z" fill="#FFCC75"/>
  <path d="M22.044 12c0-3.1-1.414-5.877-3.631-7.719a.366.366 0 00-.09-.074 10.015 10.015 0 00-6.31-2.239A10.002 10.002 0 005.49 4.384a.368.368 0 00-.092.08 10.11 10.11 0 00-1.687 1.908.365.365 0 00-.062.092A9.973 9.973 0 001.98 12a9.97 9.97 0 001.341 5.006.365.365 0 00.055.093 10.081 10.081 0 005.628 4.472c.95.3 1.96.461 3.008.461a9.974 9.974 0 004.07-.864.37.37 0 00.089-.04 10.079 10.079 0 003.169-2.284.368.368 0 00.082-.088 10.035 10.035 0 002.169-3.77A9.996 9.996 0 0022.044 12zM12.012 4.73A2.407 2.407 0 019.71 2.99a9.282 9.282 0 012.303-.289c.795 0 1.567.1 2.304.29a2.407 2.407 0 01-2.304 1.738zM4.028 16.006c0-.952.774-1.726 1.726-1.726s1.726.774 1.726 1.726v.269c0 .202.164.367.367.367h.948a1.054 1.054 0 01.217 2.082.367.367 0 00-.292.36v1.611a9.35 9.35 0 01-4.692-3.936v-.753zm1.8-10.943h2.257a.757.757 0 01.262 1.466.367.367 0 00-.24.344v3.762c-1.032.018-2.074.023-2.241.001a.367.367 0 00-.443.36v.708a.537.537 0 01-1.073 0V6.74a9.37 9.37 0 011.479-1.677zM3.617 8.009v3.695c0 .573.381 1.058.903 1.216v.96a2.468 2.468 0 00-1.154 1.538A9.25 9.25 0 012.715 12c0-1.428.323-2.78.9-3.99zm5.838 11.345a1.796 1.796 0 001.127-1.66c0-.985-.801-1.786-1.786-1.786h-.583a2.463 2.463 0 00-2.959-2.31v-.678c.522-.158.904-.643.904-1.216v-.323c.402.008 1.054.004 1.95-.011v.115a.367.367 0 00.735 0V7.103c.447-.265.734-.753.734-1.284 0-.822-.67-1.49-1.49-1.49H6.764A9.273 9.273 0 019.005 3.2a3.145 3.145 0 003.007 2.263A3.146 3.146 0 0015.02 3.2a9.29 9.29 0 012.754 1.506l.014 1.196h-1.586a.367.367 0 000 .734h.612v.64h-1.17a.368.368 0 00-.062.005 1.406 1.406 0 00-1.145 1.356v.682h-2.363a.367.367 0 00-.367.367v1.047a1.734 1.734 0 003.314.706h2.862c.339.58.92.98 1.58 1.089v.682h-6.216c-.85 0-1.54.69-1.54 1.54 0 .85.69 1.54 1.54 1.54h.934v2.289c0 .848.373 1.626 1.005 2.16-.99.36-2.059.558-3.173.558a9.274 9.274 0 01-2.558-.358v-1.586zm6.53 1.052a2.098 2.098 0 01-1.07-1.826v-2.656a.367.367 0 00-.367-.367h-1.301a.807.807 0 010-1.612h6.583a.367.367 0 00.367-.367v-1.386a.367.367 0 00-.367-.367 1.521 1.521 0 01-1.388-.902.367.367 0 00-.335-.217h-3.308c-.272 0-.361.168-.39.277h-.003a.997.997 0 01-1.965-.249v-.68h2.363a.367.367 0 00.367-.367v-1.05c0-.279.234-.565.507-.626h1.503a.367.367 0 00.367-.367V6.637h.612a.367.367 0 00.367-.372l-.011-.904a9.27 9.27 0 012.795 6.64c0 .879-.123 1.73-.352 2.538h-1.842a.367.367 0 00-.367.367v3.497a9.346 9.346 0 01-2.765 2.003zm3.499-5.133h1.232a9.291 9.291 0 01-1.232 2.257v-2.257z" fill="#082947"/>
  <path d="M13.608 8.552a.367.367 0 00.367-.367v-.383a.367.367 0 00-.734 0v.383c0 .202.165.367.367.367z" fill="#082947"/>
  <path d="M23.145 12.368h-.006a.367.367 0 00-.384.342c-.367 5.639-5.086 10.056-10.742 10.056-2.178 0-4.275-.647-6.066-1.871a.367.367 0 00-.324-.045l-3.69 1.23 1.23-3.69a.367.367 0 00-.045-.324A10.707 10.707 0 011.247 12c0-5.936 4.83-10.766 10.766-10.766 5.656 0 10.375 4.417 10.742 10.056.013.2.184.353.384.342h.006a.367.367 0 00.342-.39 11.453 11.453 0 00-3.597-7.62A11.454 11.454 0 0012.013.5C8.94.5 6.053 1.696 3.88 3.868A11.425 11.425 0 00.513 12c0 2.264.655 4.448 1.897 6.328l-1.406 4.216a.367.367 0 00.465.464l4.215-1.405a11.437 11.437 0 006.329 1.897c2.94 0 5.737-1.109 7.877-3.122a11.453 11.453 0 003.597-7.62.367.367 0 00-.342-.39z" fill="#082947"/>
</svg>
