<svg width="24" height="24" fill="none" xmlns="http://www.w3.org/2000/svg">
  <defs/>
  <path d="M15.348 6.968H8.65v8.574h6.698V6.968z" fill="#B6E3EE"/>
  <path d="M15.349 6.968h-.899v8.574h.899V6.968z" fill="#96D2E0"/>
  <path d="M16.837 19.905v-3.44c0-.823-.667-1.489-1.489-1.489H8.651c-.822 0-1.489.666-1.489 1.489v3.44h9.675z" fill="#00CE96"/>
  <path d="M15.349 14.976h-.899c.822 0 1.489.666 1.489 1.489v3.44h.898v-3.44c0-.823-.666-1.489-1.488-1.489z" fill="#00BA88"/>
  <path d="M12 17.953a.744.744 0 100-1.488.744.744 0 000 1.488z" fill="#00BCE7"/>
  <path d="M15.72 6.046a3.721 3.721 0 10-7.442 0v.563h7.442v-.563z" fill="#00CE96"/>
  <path d="M10.51 12.372a1.489 1.489 0 102.764-.769L12.233 9.8a.27.27 0 00-.467 0l-1.042 1.803a1.481 1.481 0 00-.213.77z" fill="#F7931E"/>
  <path d="M13.274 11.603L12.233 9.8a.27.27 0 00-.467 0l-.216.373.826 1.43c.152.252.232.553.21.873a1.496 1.496 0 01-1.036 1.315 1.493 1.493 0 001.934-1.315 1.485 1.485 0 00-.21-.873z" fill="#F58400"/>
  <path d="M6.79 21.882v-2.171c0-.149.12-.27.27-.27h9.88c.148 0 .269.121.269.27v2.171a.27.27 0 01-.27.27H7.06a.27.27 0 01-.269-.27z" fill="#FFD151"/>
  <path d="M16.94 19.441h-.897c.149 0 .27.121.27.27v2.171a.27.27 0 01-.27.27h.897a.27.27 0 00.27-.27v-2.171a.27.27 0 00-.27-.27z" fill="#F79B4A"/>
  <path d="M17.684 23.162H6.315a.27.27 0 01-.27-.27v-.949c0-.149.122-.27.27-.27h11.369c.148 0 .27.122.27.27v.95a.27.27 0 01-.27.27z" fill="#00CE96"/>
  <path d="M17.684 21.674h-.897c.149 0 .27.12.27.27v.95a.27.27 0 01-.27.27h.897a.27.27 0 00.27-.27v-.95a.27.27 0 00-.27-.27zM12 2.324c-.152 0-.302.01-.45.028a3.721 3.721 0 013.273 3.694v.563h.898v-.563A3.721 3.721 0 0012 2.324z" fill="#00BA88"/>
  <path d="M16.94 7.534H7.06a.27.27 0 01-.27-.27v-.949c0-.149.12-.27.27-.27h9.88c.148 0 .269.121.269.27v.95a.27.27 0 01-.27.269z" fill="#FFD151"/>
  <path d="M16.94 6.046h-.897c.149 0 .27.12.27.27v.948a.27.27 0 01-.27.27h.897a.27.27 0 00.27-.27v-.949a.27.27 0 00-.27-.27z" fill="#F79B4A"/>
  <g fill="#000">
    <path d="M18.698 22.826h-.408v-1.151a.337.337 0 00-.337-.337h-.407v-1.896a.337.337 0 00-.337-.337h-.035v-2.64c0-.891-.642-1.635-1.488-1.793v-6.8h2.268a.337.337 0 100-.674h-.408V6.046a.337.337 0 00-.337-.337h-1.165a4.067 4.067 0 00-2.963-3.574V1.58a1.082 1.082 0 00-2.162 0v.554a4.067 4.067 0 00-2.963 3.574H6.79a.337.337 0 00-.337.337v1.152h-.407a.337.337 0 100 .674h2.268v6.8a1.828 1.828 0 00-1.489 1.793v2.64H6.79a.337.337 0 00-.337.337v1.896h-.407a.337.337 0 00-.337.337v1.151h-.407a.337.337 0 100 .674H18.698a.337.337 0 000-.674zM11.592 1.581a.408.408 0 01.815 0v.428a4.08 4.08 0 00-.815 0V1.58zM7.127 6.383h2.28a.337.337 0 100-.673h-.775A3.389 3.389 0 0112 2.662a3.389 3.389 0 013.367 3.048h-4.613a.337.337 0 100 .673h6.118v.815H7.127v-.815zm7.885 1.489v6.768H8.988V7.872h6.024zm-7.513 8.593c0-.635.517-1.151 1.152-1.151h6.698c.635 0 1.151.516 1.151 1.151v2.64h-9v-2.64zm-.372 3.314h9.745v1.559H7.127v-1.559zm-.744 3.047v-.814h11.233v.814H6.383z"/>
    <path d="M12 16.128a1.082 1.082 0 000 2.163 1.082 1.082 0 000-2.163zm0 1.489a.408.408 0 11.001-.816.408.408 0 010 .816zM12 14.197a1.828 1.828 0 001.565-2.765l-1.273-2.205a.337.337 0 00-.584 0l-1.273 2.205A1.828 1.828 0 0012 14.197zm-.986-2.42l.003-.005.983-1.703.983 1.703.004.006A1.153 1.153 0 0112 13.524a1.153 1.153 0 01-.987-1.746z"/>
  </g>
</svg>
