<svg width="24" height="24" fill="none" xmlns="http://www.w3.org/2000/svg">
  <defs/>
  <path d="M19.707 19.707h1.59V7.23H2.703v12.479H18.24c.203 0 .367.164.367.367h.734c0-.203.165-.367.367-.367zm-2.936-9.91h2.936a.367.367 0 110 .735h-2.936a.367.367 0 010-.734zm0 2.203h2.936a.367.367 0 010 .734h-2.936a.367.367 0 110-.734zm0 2.202h2.936a.367.367 0 110 .734h-2.936a.367.367 0 110-.734zm-1.59 3.426a.367.367 0 01-.367.367H4.293a.367.367 0 01-.367-.367v-8.32c0-.202.164-.366.367-.366h6.239c.203 0 .367.164.367.367h.734c0-.203.164-.367.367-.367h2.814c.203 0 .367.164.367.367v8.319zm1.59-.49a.367.367 0 110-.734h2.936a.367.367 0 110 .734h-2.936z" fill="#fff"/>
  <path d="M10.531 9.676H4.66v7.585h9.787V9.676H12a.367.367 0 01-.367-.367h-.734a.367.367 0 01-.367.367zm1.633 3.464a.367.367 0 010 .656L7.27 16.243a.367.367 0 01-.531-.328v-4.894a.367.367 0 01.531-.328l4.894 2.447z" fill="#F2EBD9"/>
  <path d="M22.766 5.027V2.824H1.234v2.203h21.532zm-1.223-1.468h.006a.367.367 0 01.021.732l-.027.002-.03-.002a.367.367 0 01-.337-.366l.001-.027a.367.367 0 01.366-.34zm-1.713 0h.006a.367.367 0 01.361.366l-.001.028a.367.367 0 01-.338.338l-.028.002-.03-.002a.367.367 0 01.03-.732zm-1.713 0h.007a.367.367 0 01.36.366l-.001.028a.367.367 0 01-.338.338l-.028.002-.03-.002a.367.367 0 01-.337-.366l.002-.027a.367.367 0 01.365-.34z" fill="#6DA8D6"/>
  <path d="M1.234 5.76v15.416h21.532V5.76H1.234zm20.798 14.315a.367.367 0 01-.367.367h-1.957a.367.367 0 01-.367-.367h-.734a.367.367 0 01-.367.367H2.335a.367.367 0 01-.367-.367V6.862c0-.203.165-.367.367-.367h19.33c.203 0 .367.164.367.367v13.213z" fill="#98D9D5"/>
  <path d="M23.133 2.09H.867a.367.367 0 00-.367.367v19.086c0 .202.164.367.367.367h22.266a.367.367 0 00.367-.367V2.457a.367.367 0 00-.367-.367zm-.367.735v2.202H1.234V2.824h21.532zM1.234 21.175V5.762h21.532v15.415H1.234z" fill="#082947"/>
  <path d="M19.464 3.956a.367.367 0 00.366.337l.027-.002a.367.367 0 00.339-.338v-.027-.03a.367.367 0 00-.36-.337h-.006a.367.367 0 00-.366.397zM21.177 3.956a.367.367 0 00.366.337l.027-.002a.367.367 0 00.338-.338l.002-.027c0-.01 0-.02-.002-.03a.367.367 0 00-.359-.337h-.006a.367.367 0 00-.366.397zM17.752 3.956a.367.367 0 00.365.337l.027-.002a.367.367 0 00-.02-.732h-.007a.367.367 0 00-.366.397zM16.771 10.532h2.936a.367.367 0 100-.734h-2.936a.367.367 0 100 .734zM16.771 12.734h2.936a.367.367 0 100-.734h-2.936a.367.367 0 100 .734zM16.771 14.936h2.936a.367.367 0 100-.734h-2.936a.367.367 0 000 .734zM20.075 16.771a.367.367 0 00-.367-.367H16.77a.367.367 0 100 .734h2.936a.367.367 0 00.367-.367z" fill="#082947"/>
  <path d="M11.18 13.468l-3.706-1.853v3.706l3.706-1.853z" fill="#F2484B"/>
  <path d="M6.913 10.71a.367.367 0 00-.174.311v4.894a.367.367 0 00.531.328l4.894-2.447a.367.367 0 000-.656L7.27 10.693a.367.367 0 00-.357.016zm4.266 2.758l-3.706 1.853v-3.706l3.706 1.853z" fill="#082947"/>
  <path d="M14.814 8.942H12a.367.367 0 100 .734h2.447v7.585H4.66V9.676h5.872a.367.367 0 100-.734h-6.24a.367.367 0 00-.366.367v8.319c0 .202.164.367.367.367h10.521a.367.367 0 00.367-.367v-8.32a.367.367 0 00-.367-.366z" fill="#082947"/>
  <path d="M21.665 6.495H2.335a.367.367 0 00-.367.367v13.213c0 .202.164.367.367.367h15.904a.367.367 0 100-.735H2.702V7.23h18.596v12.479h-1.59a.367.367 0 100 .734h1.957a.367.367 0 00.367-.367V6.862a.367.367 0 00-.367-.367z" fill="#082947"/>
</svg>
