<svg width="24" height="24" fill="none" xmlns="http://www.w3.org/2000/svg">
  <defs/>
  <path d="M15.72 21.17H8.278v1.724c0 .148.12.27.27.27h6.903a.27.27 0 00.27-.27V21.17z" fill="#FFD400"/>
  <path d="M14.727 21.17v1.724a.27.27 0 01-.27.27h.994a.27.27 0 00.27-.27V21.17h-.994z" fill="#FF9F00"/>
  <path d="M17.209 19.698H6.79v1.707c0 .149.12.27.27.27h9.88a.27.27 0 00.269-.27v-1.707z" fill="#898989"/>
  <path d="M16.22 19.698v1.707a.27.27 0 01-.269.27h.989a.27.27 0 00.27-.27v-1.707h-.99z" fill="#727575"/>
  <path d="M17.953 12.52v6.922a.744.744 0 01-.744.744H6.79a.744.744 0 01-.744-.744V12.52h11.907z" fill="#727575"/>
  <path d="M16.965 12.52v6.922a.744.744 0 01-.744.744h.988c.41 0 .744-.333.744-.744V12.52h-.988z" fill="#5E6161"/>
  <path d="M6.418 3.443h11.163v2.23H6.418v-2.23z" fill="#727575"/>
  <path d="M16.593 3.443h.988v2.23h-.988v-2.23z" fill="#5E6161"/>
  <path d="M17.953 2.325c0-.822-.666-1.488-1.488-1.488h-8.93c-.823 0-1.49.666-1.49 1.488v.744h11.943l-.035-.744z" fill="#AAEBF9"/>
  <path d="M17.953 2.325c0-.822-.666-1.488-1.488-1.488h-1.024c.822 0 1.489.666 1.489 1.488l.035.744h1.023l-.035-.744z" fill="#76E2F8"/>
  <path d="M9.768 12.744h4.465v5.582H9.768v-5.582z" fill="#5E6161"/>
  <path d="M18.428 2.325H5.57a.27.27 0 00-.27.27v.95c0 .148.121.269.27.269h12.857a.27.27 0 00.27-.27v-.95a.27.27 0 00-.27-.269z" fill="#898989"/>
  <path d="M18.428 2.325h-.989c.15 0 .27.121.27.27v.95a.27.27 0 01-.27.269h.989a.27.27 0 00.27-.27v-.95a.27.27 0 00-.27-.269z" fill="#727575"/>
  <path d="M18.697 5.572V12a.744.744 0 01-.744.744H6.046A.744.744 0 015.302 12V5.572c0-.15.12-.27.27-.27h12.856c.149 0 .27.12.27.27z" fill="#898989"/>
  <path d="M18.428 5.302h-.989c.15 0 .27.12.27.27V12a.744.744 0 01-.744.744h.988a.744.744 0 00.744-.744V5.572a.27.27 0 00-.27-.27z" fill="#727575"/>
  <path d="M12.475 16.465h-.95a.27.27 0 01-.27-.27v-.949c0-.149.121-.27.27-.27h.95c.149 0 .27.121.27.27v.95a.27.27 0 01-.27.27z" fill="#EDE9E8"/>
  <path d="M18.697 4.965h-.779v-.814h.78c.185 0 .336-.151.336-.337V2.325a.337.337 0 00-.337-.337h-.438A1.828 1.828 0 0016.465.5h-8.93c-.892 0-1.636.642-1.794 1.488H5.3a.337.337 0 00-.336.337v1.489c0 .186.15.337.337.337h.78v.814h-.78a.337.337 0 00-.337.337V12c0 .479.312.885.744 1.027v6.415c0 .479.313.885.744 1.027v1.206c0 .186.151.337.337.337h1.152v1.151c0 .186.15.337.337.337h.814a.337.337 0 000-.674h-.478v-.814h6.769v.814H10.44a.337.337 0 000 .674h5.28c.186 0 .337-.15.337-.337v-1.151h1.151c.186 0 .337-.151.337-.337v-1.206c.432-.142.744-.549.744-1.027v-6.415c.432-.142.744-.548.744-1.027V5.302a.337.337 0 00-.337-.337zM7.534 1.174h8.931c.518 0 .957.343 1.101.814H6.433a1.154 1.154 0 011.101-.814zM5.64 2.662H18.36v.815H5.64v-.815zm11.605 1.489v.814H6.755v-.814h10.49zM5.64 7.127h1.558v3.792H5.64V7.127zm2.232 0H9.43v3.792H7.871V7.127zm2.233 0h1.559v3.792h-1.56V7.127zm2.232 0h1.56v3.792h-1.56V7.127zm2.233 0h1.559v3.792h-1.559V7.127zm2.233 0h1.558v3.792h-1.558V7.127zM18.36 5.64v.815H5.64v-.815H18.36zm-6.358 10.49H11.592v-.815h.815v.814h-.405zm.742.673c.186 0 .337-.15.337-.337v-1.488a.337.337 0 00-.337-.337h-1.489a.337.337 0 00-.337.337v1.488c0 .186.151.337.337.337h.408v1.187h-1.56V13.08h3.792v4.908h-1.558v-1.187h.407zM6.383 17.99V13.08H9.43v4.908H6.383zm8.186-4.908h3.047v4.908H14.57V13.08zm-2.906 7.442v.815H9.36v-.815h2.303zm.674.815v-.815h2.302v.815h-2.302zm-5.21-.815h1.559v.815H7.127v-.815zm9.745.815h-1.559v-.815h1.56v.815zm.337-1.489H6.79a.408.408 0 01-.407-.407v-.78h11.233v.78a.408.408 0 01-.407.407zm.745-7.442H6.045A.408.408 0 015.638 12v-.407H18.36V12a.408.408 0 01-.406.407z" fill="#000"/>
</svg>
