<svg width="24" height="24" fill="none" xmlns="http://www.w3.org/2000/svg">
  <defs/>
  <path d="M23.163 12c0 6.165-4.998 11.163-11.163 11.163S.837 18.165.837 12 5.835.837 12 .837 23.163 5.835 23.163 12z" fill="#EDE9E8"/>
  <path d="M12 .837c-.166 0-.33.004-.494.011C17.442 1.107 22.175 6 22.175 12c0 6-4.733 10.893-10.67 11.151.165.008.33.012.495.012 6.165 0 11.163-4.998 11.163-11.163S18.165.837 12 .837z" fill="#DFD7D5"/>
  <path d="M21.675 12A9.675 9.675 0 0112 21.675 9.675 9.675 0 012.325 12 9.675 9.675 0 0112 2.325c5.343 0 9.675 4.332 9.675 9.675z" fill="#898989"/>
  <g fill="#727575">
    <path d="M11.999 2.325c-.166 0-.33.005-.494.013 5.113.257 9.18 4.485 9.18 9.662 0 5.178-4.067 9.405-9.18 9.662A9.675 9.675 0 0021.674 12a9.675 9.675 0 00-9.675-9.675z"/>
    <path d="M14.523 14.265l-5.746-.404 9.457 5.46h.091a9.652 9.652 0 003.35-7.32c0-.596-.055-1.18-.158-1.745l-.021-.017-6.973 4.026zM5.71 4.648l9.512 5.492V2.92l-.024-.053A9.656 9.656 0 0012 2.325c-2.4 0-4.597.875-6.288 2.323z"/>
    <path d="M2.49 13.788a9.689 9.689 0 006.287 7.336V12l2.212-3.137-8.496 4.905-.003.02z"/>
  </g>
  <path d="M15.222 13.705v-3.41a.27.27 0 00-.134-.233l-2.953-1.705a.27.27 0 00-.27 0l-2.953 1.705a.27.27 0 00-.135.233v3.41a.27.27 0 00.135.233l2.953 1.705a.27.27 0 00.27 0l2.953-1.705a.27.27 0 00.134-.233z" fill="#AAEBF9"/>
  <path d="M15.088 10.062l-2.953-1.705a.27.27 0 00-.27 0l-.36.207 2.594 1.498a.27.27 0 01.135.233v3.41a.27.27 0 01-.135.233l-2.593 1.498.36.207a.27.27 0 00.269 0l2.953-1.705a.27.27 0 00.135-.233v-3.41a.27.27 0 00-.135-.233z" fill="#7BE2F6"/>
  <path d="M21.669 11.677a8.867 8.867 0 00-.006-.147l-.006-.107a8.123 8.123 0 00-.051-.574 10.012 10.012 0 00-.017-.138l-.011-.08-.023-.15-.01-.06-.028-.165-.021-.018-.89.514c.053.409.08.825.08 1.248a9.646 9.646 0 01-3 7.004l.548.316h.091a9.54 9.54 0 00.188-.166l.023-.022.155-.145.051-.05.124-.121.059-.06.11-.116.062-.066.104-.114.063-.07a8.983 8.983 0 00.257-.305 11.07 11.07 0 00.154-.195l.055-.072.098-.133.047-.064c.037-.051.073-.104.108-.156l.032-.045a9.64 9.64 0 00.267-.416c.01-.02.022-.038.033-.057l.091-.155.042-.075.077-.14.045-.084.069-.135.044-.09a10.196 10.196 0 00.168-.358l.04-.093a8.241 8.241 0 00.152-.373l.034-.089.055-.155.028-.08c.022-.063.042-.127.063-.191l.015-.046c.025-.08.049-.16.071-.241l.016-.057.05-.186.021-.087.037-.158.022-.098.031-.149.02-.105c.01-.048.018-.096.027-.145a12.861 12.861 0 00.073-.509l.013-.11.014-.149.01-.107c.004-.053.008-.105.01-.158a10.15 10.15 0 00.014-.277l.004-.085a9.507 9.507 0 000-.498l-.002-.087zM11.692 2.33a10.459 10.459 0 00-.183.008 9.622 9.622 0 013.713.95v-.367l-.024-.054a9.637 9.637 0 00-1.128-.32l-.046-.009a8.836 8.836 0 00-.153-.031l-.064-.013-.146-.026-.073-.012a9.474 9.474 0 00-.142-.023l-.07-.01a10.592 10.592 0 00-.237-.03l-.12-.014-.104-.01-.126-.012a9.526 9.526 0 00-.235-.016l-.093-.004a8.684 8.684 0 00-.152-.006l-.078-.003a9.222 9.222 0 00-.469 0l-.07.003z" fill="#5E6161"/>
  <path d="M20.132 3.868A11.424 11.424 0 0012 .5a11.458 11.458 0 00-8.343 3.585.337.337 0 00.489.464A10.793 10.793 0 0112 1.174c2.892 0 5.61 1.126 7.655 3.17A10.756 10.756 0 0122.826 12c0 2.892-1.126 5.61-3.17 7.655A10.755 10.755 0 0112 22.826c-2.892 0-5.61-1.126-7.655-3.17A10.755 10.755 0 011.174 12c0-2.34.734-4.567 2.123-6.441a.337.337 0 10-.54-.401A11.407 11.407 0 00.5 12c0 3.072 1.196 5.96 3.368 8.132A11.425 11.425 0 0012 23.5c3.072 0 5.96-1.196 8.132-3.368A11.425 11.425 0 0023.5 12c0-3.072-1.196-5.96-3.368-8.132z" fill="#000"/>
  <path d="M4.92 19.08A9.946 9.946 0 0012 22.011a9.946 9.946 0 007.08-2.933A9.945 9.945 0 0022.011 12a9.946 9.946 0 00-2.933-7.08A9.946 9.946 0 0012 1.989a9.946 9.946 0 00-7.078 2.933A9.946 9.946 0 001.988 12a9.946 9.946 0 002.933 7.08zm-2.054-5.138l5.575-3.219v9.91a9.373 9.373 0 01-5.575-6.691zm12.02-3.608v3.332l-2.034 1.174-.852.492-2.049-1.183-.837-.483v-3.332L12 8.668l2.886 1.666zM9.114 20.88v-6.437l2.717 1.569h.002l.001.001 5.858 3.383A9.29 9.29 0 0112 21.337a9.299 9.299 0 01-2.886-.456zm9.13-1.944l-5.57-3.216 8.582-4.955a9.316 9.316 0 01-3.012 8.17zm2.89-8.879l-5.575 3.219v-9.91a9.373 9.373 0 015.575 6.691zM14.886 3.12v6.437L6.307 4.603A9.29 9.29 0 0112 2.663a9.3 9.3 0 012.886.456zm-9.13 1.944l5.57 3.216-.506.292-8.076 4.663a9.316 9.316 0 013.012-8.17z" fill="#000"/>
</svg>
