<svg width="24" height="24" fill="none" xmlns="http://www.w3.org/2000/svg">
  <defs/>
  <path d="M17.029 2.874H6.972a10.468 10.468 0 00-4.099 4.099v10.056a10.468 10.468 0 004.1 4.1h10.056a10.467 10.467 0 004.099-4.1V6.973a10.468 10.468 0 00-4.1-4.1zm.012 12.297a5.984 5.984 0 01-1.87 1.87l-3.17.71-3.171-.71a5.986 5.986 0 01-1.87-1.87l-.71-3.17.722-3.189c.47-.74 1.1-1.369 1.84-1.84L12 6.252l3.172.71A5.985 5.985 0 0117.04 8.83l.71 3.172-.71 3.17z" fill="#B6E3EE"/>
  <g fill="#96D2E0">
    <path d="M6.2 3.344L8.092 7.51c.226-.196.465-.376.719-.537l.337-.077-1.827-4.022h-.35c-.264.146-.521.303-.77.47zM17.8 3.344l-1.893 4.165a5.969 5.969 0 00-.718-.537l-.337-.076 1.827-4.023h.349c.265.146.522.303.771.47z"/>
  </g>
  <g fill="#96D2E0">
    <path d="M3.343 17.802l4.166-1.892a5.978 5.978 0 01-.538-.719l-.076-.337-4.023 1.827v.35c.146.264.303.521.471.77zM3.343 6.201l4.166 1.892a5.977 5.977 0 00-.538.719l-.076.337-4.023-1.827v-.35c.146-.264.303-.521.471-.77z"/>
  </g>
  <g fill="#96D2E0">
    <path d="M17.8 20.658l-1.893-4.165a5.966 5.966 0 01-.718.537l-.337.076 1.827 4.023h.349c.264-.146.522-.303.771-.47zM6.2 20.657l1.892-4.165c.226.196.465.376.719.537l.337.077-1.827 4.022h-.35a10.399 10.399 0 01-.77-.47z"/>
  </g>
  <g fill="#96D2E0">
    <path d="M20.657 6.201L16.49 8.093c.197.226.377.465.538.719l.076.337 4.023-1.827v-.35a10.376 10.376 0 00-.471-.77zM20.657 17.802L16.49 15.91c.197-.226.377-.465.538-.719l.076-.337 4.023 1.827v.35a10.35 10.35 0 01-.471.77z"/>
  </g>
  <path d="M12 .838c-1.772 0-3.448.413-4.936 1.148a.466.466 0 00-.219.61l2.081 4.577c.11.243.403.347.638.222A5.185 5.185 0 0112 6.791c.88 0 1.709.219 2.435.604a.465.465 0 00.639-.222l2.08-4.577a.466.466 0 00-.218-.61A11.116 11.116 0 0012 .838z" fill="#00BCE7"/>
  <path d="M16.936 1.986A11.116 11.116 0 0012 .838c-.15 0-.3.004-.45.01 1.607.063 3.126.465 4.487 1.138a.466.466 0 01.219.61l-2.08 4.577a.463.463 0 01-.043.074c.103.047.204.096.303.148a.465.465 0 00.638-.222l2.08-4.577a.466.466 0 00-.218-.61z" fill="#0094D4"/>
  <path d="M.837 12v.001c0 1.772.413 3.448 1.148 4.936a.466.466 0 00.61.218l4.577-2.08a.465.465 0 00.222-.638A5.185 5.185 0 016.79 12c0-.88.219-1.709.604-2.436a.465.465 0 00-.222-.638l-4.577-2.08a.466.466 0 00-.61.218 11.117 11.117 0 00-1.148 4.936zM12 23.164c1.772 0 3.448-.413 4.936-1.148a.466.466 0 00.218-.61l-2.08-4.578a.465.465 0 00-.639-.221A5.185 5.185 0 0112 17.21c-.88 0-1.709-.219-2.436-.604a.465.465 0 00-.638.221l-2.08 4.578c-.105.229-.008.499.218.61A11.116 11.116 0 0012 23.164zM23.163 12.001c0-1.772-.413-3.448-1.148-4.936a.466.466 0 00-.61-.218l-4.578 2.08a.465.465 0 00-.221.638c.385.727.603 1.556.603 2.436 0 .88-.218 1.709-.603 2.436a.465.465 0 00.221.638l4.578 2.08a.466.466 0 00.61-.218A11.116 11.116 0 0023.163 12z" fill="#00BCE7"/>
  <path d="M1.985 7.065a11.117 11.117 0 00-1.148 4.936c0 .15.004.3.01.45a11.103 11.103 0 011.138-4.487.466.466 0 01.61-.219l4.577 2.08c.027.013.051.027.074.043a5.17 5.17 0 01.148-.303.465.465 0 00-.222-.638l-4.577-2.08a.466.466 0 00-.61.218zM7.064 22.016A11.116 11.116 0 0012 23.164c.15 0 .3-.004.45-.01a11.103 11.103 0 01-4.488-1.138.466.466 0 01-.218-.61l2.08-4.577a.472.472 0 01.043-.074 5.215 5.215 0 01-.303-.148.465.465 0 00-.638.222l-2.08 4.577a.466.466 0 00.218.61zM22.015 16.937A11.118 11.118 0 0023.163 12c0-.15-.004-.3-.01-.45a11.103 11.103 0 01-1.138 4.487.466.466 0 01-.61.219l-4.578-2.08a.463.463 0 01-.073-.043 5.196 5.196 0 01-.148.303.465.465 0 00.221.638l4.578 2.08a.466.466 0 00.61-.218z" fill="#0094D4"/>
  <g fill="#000">
    <path d="M22.317 6.915a.8.8 0 00-1.05-.377 10.774 10.774 0 00-3.805-3.805.8.8 0 00-.377-1.05A11.387 11.387 0 0012 .5c-.779 0-1.557.078-2.313.233a.337.337 0 10.135.66c.712-.145 1.444-.22 2.178-.22 1.68 0 3.291.375 4.787 1.114.063.031.09.105.06.169l-2.08 4.577a.131.131 0 01-.077.07.119.119 0 01-.096-.006 5.557 5.557 0 00-5.187 0 .119.119 0 01-.096.007.131.131 0 01-.078-.07l-2.08-4.578a.129.129 0 01.06-.169c.414-.204.845-.384 1.281-.533a.337.337 0 10-.218-.637c-.464.158-.922.349-1.361.566a.8.8 0 00-.377 1.05 10.773 10.773 0 00-3.805 3.805.8.8 0 00-1.05.377A11.386 11.386 0 00.5 12c0 1.785.398 3.496 1.183 5.085a.8.8 0 001.05.377 10.773 10.773 0 003.805 3.805.8.8 0 00.377 1.05c1.59.785 3.3 1.183 5.085 1.183 1.785 0 3.496-.398 5.085-1.183a.8.8 0 00.377-1.05 10.773 10.773 0 003.805-3.805.8.8 0 001.05-.377c.785-1.59 1.183-3.3 1.183-5.085 0-1.785-.398-3.496-1.183-5.085zm-1.666-.097l-3.49 1.586a6.369 6.369 0 00-1.565-1.565l1.586-3.49a10.1 10.1 0 013.469 3.47zm-10.929.874a4.88 4.88 0 014.556 0 .795.795 0 00.629.05.81.81 0 00.39-.288c.478.347.902.771 1.25 1.248a.798.798 0 00-.238 1.02 4.88 4.88 0 010 4.556.799.799 0 00.238 1.02 5.694 5.694 0 01-1.25 1.249.799.799 0 00-1.02-.238 4.88 4.88 0 01-4.555 0 .798.798 0 00-1.02.238 5.695 5.695 0 01-1.249-1.25.798.798 0 00.238-1.02 4.88 4.88 0 010-4.555.798.798 0 00-.238-1.02 5.697 5.697 0 011.25-1.248.8.8 0 001.02.238zM6.818 3.35l1.586 3.489A6.371 6.371 0 006.84 8.404l-3.49-1.586A10.1 10.1 0 016.82 3.35zM2.287 16.787A10.717 10.717 0 011.174 12c0-1.68.374-3.29 1.113-4.787a.128.128 0 01.169-.06l4.577 2.08a.13.13 0 01.07.078.119.119 0 01-.007.096 5.556 5.556 0 000 5.186c.02.038.015.073.007.096a.131.131 0 01-.07.078l-.22.1-.004.002-4.353 1.979a.129.129 0 01-.169-.061zm1.063.395l3.489-1.586a6.368 6.368 0 001.565 1.566L6.818 20.65a10.1 10.1 0 01-3.468-3.47zm13.437 4.531A10.717 10.717 0 0112 22.826c-1.68 0-3.29-.374-4.787-1.113a.129.129 0 01-.06-.169l2.08-4.577a.131.131 0 01.118-.077c.017 0 .036.003.056.014a5.558 5.558 0 005.186 0 .119.119 0 01.096-.007.13.13 0 01.078.07l2.08 4.577a.129.129 0 01-.06.17zm.395-1.063l-1.586-3.488a6.367 6.367 0 001.565-1.566l3.49 1.586a10.1 10.1 0 01-3.47 3.469zM22.826 12c0 1.68-.374 3.291-1.113 4.787a.128.128 0 01-.169.06l-4.577-2.08a.132.132 0 01-.07-.077.12.12 0 01.007-.097 5.556 5.556 0 000-5.186.12.12 0 01-.008-.096.131.131 0 01.071-.078l4.577-2.08a.128.128 0 01.17.06A10.718 10.718 0 0122.825 12z"/>
    <path d="M9.514 5.342A7.08 7.08 0 0112 4.895c.856 0 1.693.15 2.487.447a.337.337 0 10.236-.631A7.75 7.75 0 0012 4.221c-.936 0-1.852.165-2.722.49a.337.337 0 10.236.631zM5.144 9.08a.337.337 0 00-.433.197A7.75 7.75 0 004.22 12c0 .937.165 1.853.49 2.723a.337.337 0 10.63-.236A7.08 7.08 0 014.896 12c0-.856.15-1.693.447-2.487a.337.337 0 00-.198-.433zM14.487 18.658a7.082 7.082 0 01-2.487.447 7.08 7.08 0 01-2.486-.447.337.337 0 00-.236.631c.87.325 1.786.49 2.722.49.937 0 1.853-.165 2.723-.49a.337.337 0 10-.236-.631zM18.856 9.08a.337.337 0 00-.198.433A7.08 7.08 0 0119.105 12a7.08 7.08 0 01-.447 2.487.337.337 0 00.631.236c.325-.87.49-1.786.49-2.723a7.75 7.75 0 00-.49-2.723.337.337 0 00-.433-.197z"/>
  </g>
</svg>
