<svg width="24" height="24" fill="none" xmlns="http://www.w3.org/2000/svg">
  <defs/>
  <path d="M17.411.856h-5.148l-2.575 4.46 2.746 12.56h5.148l2.404-12.56L17.41.855z" fill="#4D5961"/>
  <path d="M13.348 16.74L10.893 5.502l2.026-3.51h3.836l2.035 3.525-2.147 11.223h-3.295z" fill="#5E6B75"/>
  <path d="M22.616 16.827l-5.864 4.703c-.482.387-1.1.563-1.714.488l-7.902-.962-2.106.779c-1.13-1.163-.666-4.906-.666-4.906l.502-.137a1.901 1.901 0 011.062-1.832l3.389-1.655 1.743-.851a1.657 1.657 0 011.578 2.909L9.82 17.05l4.74.825c.571.1 1.158-.02 1.644-.336l4.715-3.06a1.45 1.45 0 011.697 2.347z" fill="#F1D0A5"/>
  <path d="M15.025 20.755c-3.246.421-5.484-1.482-6.838-3.273a1.909 1.909 0 01.492-2.76c3.27-2.095 4.115-2.018 4.563-1.57a1.656 1.656 0 00-2.182-.698l-1.743.851-2.747 1.341-.642.314a1.9 1.9 0 00-1.062 1.832l-.502.137s-.465 3.743.666 4.906l2.106-.779 7.902.962a2.296 2.296 0 001.714-.488l5.863-4.703c-2.026-.55-5.403 3.593-7.59 3.927z" fill="#F1B986"/>
  <path d="M3.663 16.458a6.829 6.829 0 00-2.822.997 55.326 55.326 0 002.01 5.689 6.832 6.832 0 002.822-.997 55.32 55.32 0 00-2.01-5.69z" fill="#80A6C6"/>
  <path d="M5.673 22.146a6.822 6.822 0 01-2.822.998 55.753 55.753 0 01-.582-1.46 7.261 7.261 0 002.944-1.03c.16.495.314.992.46 1.492z" fill="#5B8EB8"/>
  <path d="M23.436 15.22a1.793 1.793 0 00-.312-.621 1.801 1.801 0 00-2.39-.405l-2.397 1.555 1.41-7.364a.341.341 0 00-.67-.128l-1.533 8.007-.528.343 2.11-11.026a.34.34 0 00-.04-.234L17.05 1.822a.34.34 0 00-.295-.17h-3.837a.34.34 0 00-.295.17l-2.026 3.51a.34.34 0 00-.038.243l1.393 6.375a1.994 1.994 0 00-.462.017l-1.44-6.595 2.41-4.175h4.754l2.413 4.179-.296 1.544a.34.34 0 10.67.128l.32-1.669a.34.34 0 00-.04-.234L17.707.686a.34.34 0 00-.295-.17h-5.149a.34.34 0 00-.295.17L9.394 5.145a.34.34 0 00-.038.243l1.484 6.794-5.06 2.471a2.24 2.24 0 00-1.255 1.879l-.415.115a60.583 60.583 0 00-.132-.32.34.34 0 00-.356-.208A7.203 7.203 0 00.66 17.166a.34.34 0 00-.147.385c.14.476.289.961.444 1.442a.34.34 0 10.649-.21c-.126-.39-.248-.783-.364-1.171a6.51 6.51 0 012.206-.78 55.307 55.307 0 011.822 5.157 6.501 6.501 0 01-2.206.78 54.828 54.828 0 01-1.025-2.7.34.34 0 00-.644.224c.35 1.003.735 2.006 1.14 2.982a.34.34 0 00.357.207 7.192 7.192 0 002.96-1.047A.34.34 0 006 22.05l-.056-.19 1.233-.456 7.82.952a2.651 2.651 0 001.969-.56l5.852-4.694a1.792 1.792 0 00.619-1.88zM11.74 16.299l.169.77-1.127-.196.958-.574zm.894.897l-.277-1.267.411-.247.248 1.132a.34.34 0 00.333.268h2.937l-.267.173a1.95 1.95 0 01-1.4.287l-1.985-.346zm-1.38-11.636l1.862-3.225h3.443l1.873 3.244-2.07 10.821h-2.739l-.267-1.222c.48-.609.578-1.465.185-2.188a1.995 1.995 0 00-.844-.827L11.254 5.56zm11.158 10.994l-.01.008-5.863 4.703c-.408.327-.94.479-1.46.415l-7.902-.962a.34.34 0 00-.159.019l-1.273.47a56.05 56.05 0 00-1.38-3.922l.592-.164a.34.34 0 00.249-.35 1.559 1.559 0 01.872-1.504l5.131-2.506a1.309 1.309 0 011.733.554 1.312 1.312 0 01-.48 1.756l-2.817 1.689a.34.34 0 00.117.628l4.74.825a2.63 2.63 0 001.888-.386l4.715-3.06a1.102 1.102 0 011.48.25 1.11 1.11 0 01-.173 1.537z" fill="#000"/>
  <path d="M10.682 14.89a.86.86 0 001.125.28l.422-.226a.341.341 0 00-.32-.601l-.423.225a.184.184 0 01-.238-.057c-.283-.423-.372-.854-.373-.862a.341.341 0 00-.67.13c.005.022.112.567.477 1.111zM3.816 21.862a.344.344 0 00.332-.265c.07-.3-.282-.528-.53-.353a.343.343 0 00-.12.4c.05.13.178.218.318.218z" fill="#000"/>
</svg>
