<svg width="24" height="24" fill="none" xmlns="http://www.w3.org/2000/svg">
  <defs/>
  <path d="M20.731 8.49h2.432v1.325H20.73V8.49zM.837 8.494h2.13v1.322H.837V8.494z" fill="#DAE4EA"/>
  <path d="M6.133 11.71a2.032 2.032 0 100-4.064 2.032 2.032 0 000 4.065zM17.557 11.71a2.032 2.032 0 100-4.064 2.032 2.032 0 000 4.065z" fill="#808B95"/>
  <path d="M17.556 10.553a.874.874 0 100-1.75.874.874 0 000 1.75zM6.133 10.553a.874.874 0 100-1.75.874.874 0 000 1.75z" fill="#DAE4EA"/>
  <path d="M21.824 4.88l-5.383-.38-1.062-2.513a1.882 1.882 0 00-1.734-1.15H7.492c-.76 0-1.445.457-1.737 1.158L4.71 4.501l-2.821.353a.941.941 0 00-.825.934v2.706h1.902v1.004h1.142a2.032 2.032 0 014.048 0h7.375a2.032 2.032 0 014.048 0h1.152V8.489h2.202V6.071c0-.627-.484-1.148-1.11-1.192z" fill="#E28086"/>
  <path d="M21.824 4.88l-.737-.052c.033.109.05.225.05.344v.321a2.1 2.1 0 01-2.097 2.1H1.065v.901h1.902v1.004h1.142a2.032 2.032 0 014.048 0h7.375a2.032 2.032 0 014.048 0h1.152V8.49h2.202V6.07c0-.626-.484-1.147-1.11-1.19z" fill="#DD636E"/>
  <path d="M7.722 1.96c-.446 0-.848.268-1.019.68L5.928 4.5h3.138V1.96H7.722zM14.434 2.634a1.104 1.104 0 00-1.017-.674h-3.229V4.5h5.034l-.788-1.866z" fill="#D5D8F1"/>
  <path d="M7.722 1.96l-.004.004v.98a.658.658 0 01-.658.658h-.758l-.374.899h3.138V1.96H7.722zM14.434 2.634a1.104 1.104 0 00-1.017-.674h-.236l.307.727a.658.658 0 01-.607.915h-2.693v.899h5.034l-.788-1.867z" fill="#BEC3EA"/>
  <path d="M20.352 6.165V6.7c0 .368.299.666.666.666h.458V6.165h-1.123z" fill="#E4936B"/>
  <path d="M21.018 7.366h.457V6.165h-.448a2.1 2.1 0 01-.577.881c.117.191.327.32.568.32z" fill="#E27D47"/>
  <path d="M21.476 6.165h1.454v1.2h-1.454v-1.2z" fill="#E7ECF1"/>
  <path d="M2.278 6.75a.577.577 0 00-.576-.578h-.637v1.161h1.213V6.75z" fill="#F6F9F9"/>
  <path d="M1.065 7.333h1.213v1.16H1.065v-1.16z" fill="#E4936B"/>
  <path d="M20.352 23.163H3.328v-.585c0-.356.289-.645.645-.645h15.735c.356 0 .644.289.644.645v.585z" fill="#A0AAB7"/>
  <path d="M1.806 9.815a.571.571 0 00-.57.572v1.324h1.142v-1.324a.571.571 0 00-.572-.572zM22.193 9.815c.316 0 .571.256.571.572v1.324h-1.142v-1.324c0-.316.256-.572.571-.572z" fill="#F6F9F9"/>
  <path d="M16.008 16.046l1.318 4.918 1.428.97-1.757-6.559-.99.671zM9.185 9.498h5.251v1.126H9.185V9.498z" fill="#808B95"/>
  <path d="M15.013 11.71l-.128.107H8.69l-.128-.106H.837v.896c0 .407.33.738.738.738h20.85c.408 0 .738-.33.738-.739v-.895h-8.15z" fill="#A0AAB7"/>
  <path d="M21.366 11.71a.738.738 0 01-.738.736H.837v.16c0 .408.33.739.738.739h20.85c.408 0 .738-.33.738-.739v-.895h-1.797z" fill="#909BA5"/>
  <path d="M4.09 13.345l12.663 8.588h2.001L6.091 13.345h-2z" fill="#DAE4EA"/>
  <path d="M4.527 21.933h2.801l4.713-3.196-1.4-.95-6.114 4.146zM17.19 13.345l-5.55 3.763 1.401.95 6.95-4.713H17.19z" fill="#C6D0DA"/>
  <path d="M23.5 9.816V8.489a.337.337 0 00-.229-.319v-2.1c0-.8-.625-1.47-1.423-1.527L16.67 4.18l-.981-2.324A2.215 2.215 0 0013.645.5H7.492c-.899 0-1.703.536-2.048 1.366L4.475 4.19l-2.627.329a1.28 1.28 0 00-1.12 1.268v2.387a.337.337 0 00-.228.319v1.322c0 .186.15.336.337.336h.092a.907.907 0 00-.03.235v.987H.837a.337.337 0 00-.337.337v.896c0 .592.482 1.074 1.075 1.074h2.412l6.053 4.106-5.616 3.81h-.45a.983.983 0 00-.982.981v.585c0 .186.15.337.337.337h17.024c.186 0 .337-.15.337-.337v-.585a.983.983 0 00-.982-.981h-.695l-.533-1.99a.337.337 0 00-.16-.598l-.13-.486a.337.337 0 00-.161-.6l-.13-.485a.337.337 0 00-.161-.6l-.354-1.319 2.71-1.838h2.331c.593 0 1.075-.482 1.075-1.075v-.896a.337.337 0 00-.337-.336h-.062v-.988c0-.08-.01-.159-.03-.234h.092c.186 0 .337-.15.337-.336zm-.674-.337h-1.758v-.653h1.758v.653zm-1.54 1.895H19.21c.406-.397.671-.938.71-1.54h.475c.01.178.157.319.337.319h.584a.909.909 0 00-.03.234v.987zm-10.922.106v-.52h2.892v.52h-2.892zm-1.552 0l-.035-.028a.337.337 0 00-.215-.078h-.775c.406-.397.671-.938.71-1.54h.35v.79c0 .186.151.336.337.336h.507v.52h-.88zM1.174 9.48V8.83H2.63v.648H1.174zm.228-2.97h.3a.24.24 0 01.24.24v.247h-.54V6.51zm0 1.161h.54v.487h-.54V7.67zm1.565 2.482c.18 0 .326-.14.336-.317h.466c.04.601.304 1.142.71 1.539H2.716v-.987c0-.081-.011-.16-.031-.235h.283zm1.47-.474c0-.933.76-1.695 1.696-1.695.937 0 1.696.762 1.696 1.695 0 .935-.76 1.696-1.696 1.696-.935 0-1.695-.76-1.695-1.696zm9.493 1.282h.506c.186 0 .337-.15.337-.337v-.788h.42c.039.601.304 1.142.71 1.539h-.89a.337.337 0 00-.215.077l-.034.03h-.834v-.52zm1.931-1.282c0-.933.76-1.695 1.695-1.695.937 0 1.696.762 1.696 1.695 0 .935-.76 1.696-1.695 1.696s-1.696-.76-1.696-1.696zm5.952-3.176h.78v.527h-.78v-.527zM1.93 5.189l2.822-.354a.337.337 0 00.269-.205l1.044-2.505c.24-.578.8-.951 1.426-.951h6.153c.623 0 1.181.37 1.424.944l1.062 2.514c.05.116.16.196.287.205l5.383.379a.861.861 0 01.761.612h-2.21a.337.337 0 00-.336.337V6.7c0 .553.45 1.003 1.002 1.003h1.58v.45h-1.866a.337.337 0 00-.337.336v.672h-.526a2.374 2.374 0 00-2.313-1.852 2.373 2.373 0 00-2.312 1.852h-1.447a.337.337 0 100 .674h.302v.451H9.521v-.451h2.704a.337.337 0 100-.674h-3.78A2.374 2.374 0 006.134 7.31 2.374 2.374 0 003.821 9.16h-.518v-.667a.337.337 0 00-.336-.337h-.352V6.75a.915.915 0 00-.913-.913h-.3v-.048c0-.304.228-.562.53-.6zm19.087 1.84a.33.33 0 01-.328-.329v-.198h.449v.527h-.12zM1.572 10.387a.234.234 0 01.469 0v.987h-.469v-.987zm4.416 3.294l11.67 7.916h-.801L5.187 13.68h.801zm1.2 0h8.905l-4.452 3.02-4.453-3.02zm8.617 2.91l.191.714a.337.337 0 00.16.6l.13.485a.337.337 0 00.162.6l.13.485a.337.337 0 00.16.6l.028.103-3.125-2.12 2.164-1.467zm1.814 4.165l-.223-.83.44-.118.359 1.339-.576-.391zm-.397-1.481l-.117-.434.44-.118.116.434-.44.118zm-.291-1.085l-.116-.434.44-.118.116.434-.44.118zm-6.29.004l.8.543-4.217 2.86h-1.6l5.016-3.403zm9.375 4.384v.248H3.666v-.248c0-.17.137-.308.307-.308h9.163a.337.337 0 100-.673H8.425l3.616-2.453 3.616 2.453h-.948a.337.337 0 000 .673h5c.169 0 .307.138.307.308zm-2.936-5.59l-.44.117-.245-.915.399-.27.286 1.068zm-.267-1.895l-.01.007-3.762 2.551-.8-.543 5.052-3.427h1.6l-2.08 1.412zm6.013-2.486c0 .22-.18.4-.4.4H1.574a.402.402 0 01-.401-.4v-.56H8.44c.017.011.1.107.25.107h6.195a.337.337 0 00.216-.078l.034-.028h7.691v.559zm-.399-2.22v.987h-.468v-.987a.234.234 0 01.468 0z" fill="#000"/>
  <path d="M17.556 8.467c-.668 0-1.211.543-1.211 1.211s.543 1.212 1.211 1.212 1.211-.544 1.211-1.212c0-.668-.543-1.211-1.21-1.211zm0 1.749a.538.538 0 11.001-1.076.538.538 0 010 1.076zM6.133 8.467c-.668 0-1.211.543-1.211 1.211s.543 1.212 1.211 1.212 1.212-.544 1.212-1.212c0-.668-.544-1.211-1.212-1.211zm0 1.749a.538.538 0 11.001-1.076.538.538 0 010 1.076zM11.731 5.287h-1.194a.337.337 0 100 .673h1.194a.337.337 0 100-.673zM5.928 4.837h3.138c.186 0 .337-.15.337-.336V1.96a.337.337 0 00-.337-.337H7.722c-.584 0-1.106.348-1.33.887L5.617 4.37a.337.337 0 00.31.466zM7.014 2.77a.765.765 0 01.708-.472H8.73v1.867H6.433l.581-1.395zM10.188 4.837h5.034a.337.337 0 00.31-.468l-.788-1.866a1.438 1.438 0 00-1.327-.88h-.935a.337.337 0 000 .674h.935c.309 0 .586.184.706.468l.59 1.399h-4.188V2.297h.385a.337.337 0 000-.674h-.722a.337.337 0 00-.336.337V4.5c0 .187.15.337.336.337z" fill="#000"/>
</svg>
