<svg width="24" height="24" fill="none" xmlns="http://www.w3.org/2000/svg">
  <defs/>
  <path d="M14.976 17.953L13.86 8.278v-.591h-3.721v.591l-1.117 9.675v.156h5.954v-.156z" fill="#FF2551"/>
  <path d="M10.139 7.687v.591l-.372 3.225h4.465l-.372-3.225v-.591h-3.721zM9.022 17.953v.156h5.954v-.156l-.372-3.225h-5.21l-.372 3.225z" fill="#F2F2F2"/>
  <path d="M10.139 7.687v.591l-.104.899h3.928l-.103-.899v-.591h-3.721zM14.708 15.626l-.104-.898h-5.21l-.103.898h5.417z" fill="#CCC"/>
  <path d="M9.663 12.402h4.673l-.104-.899H9.767l-.104.899z" fill="#C21750"/>
  <path d="M13.962 8.278h-3.926a.27.27 0 01-.27-.27V6.79h4.466v1.219a.27.27 0 01-.27.27z" fill="#FF2551"/>
  <path d="M13.963 8.278h-1.001V6.79h1.27v1.219a.27.27 0 01-.27.27z" fill="#C21750"/>
  <path d="M16.465 21.674l-.348-3.479a.27.27 0 00-.268-.242H8.15a.27.27 0 00-.268.242l-.348 3.479v.744h8.93v-.744z" fill="#FF2551"/>
  <path d="M16.117 18.195a.27.27 0 00-.268-.242h-.899a.27.27 0 01.268.242l.348 3.479v.744h.899v-.744l-.348-3.479z" fill="#C21750"/>
  <path d="M11.255 21.674v-1.489a.744.744 0 011.488 0v1.489h-1.488z" fill="#58565C"/>
  <path d="M13.86 3.813h-3.721V6.79h3.72V3.813z" fill="#B6E3EE"/>
  <path d="M13.86 3.813h-.898V6.79h.898V3.813z" fill="#96D2E0"/>
  <path d="M9.767 3.813l2.042-2.042a.27.27 0 01.38 0l2.043 2.042H9.767z" fill="#FF2551"/>
  <path d="M12.19 1.77a.27.27 0 00-.38 0l-.26.26 1.784 1.783h.899L12.19 1.77z" fill="#C21750"/>
  <path d="M18.428 23.162H5.57a.27.27 0 01-.27-.27v-.948c0-.15.121-.27.27-.27h12.857c.149 0 .27.12.27.27v.949a.27.27 0 01-.27.27z" fill="#FFD151"/>
  <path d="M18.428 21.674h-.899c.15 0 .27.12.27.27v.949a.27.27 0 01-.27.27h.899a.27.27 0 00.27-.27v-.95a.27.27 0 00-.27-.269z" fill="#F79B4A"/>
  <g fill="#000">
    <path d="M19.442 22.826h-.408v-1.151a.337.337 0 00-.336-.337H16.77l-.342-3.418a.337.337 0 00-.335-.303h-.816l-.295-2.552a.337.337 0 00-.005-.673h-.072l-.295-2.552a.337.337 0 00-.006-.673h-.071l-.295-2.551a.337.337 0 00.331-.337V7.127h.035a.337.337 0 100-.673H14.197V4.15h.407a.337.337 0 100-.674h-.232L12.337 1.44V.837a.337.337 0 00-.674 0v.604L9.627 3.477h-.232a.337.337 0 100 .674h.407v2.303H9.395a.337.337 0 100 .673h.035V8.28c0 .184.148.333.331.337l-.294 2.551h-.072a.337.337 0 00-.006.674l-.294 2.55h-.072a.337.337 0 00-.006.674l-.294 2.552h-.816a.337.337 0 00-.336.303l-.341 3.418H5.302a.337.337 0 00-.337.337v1.151h-.407a.337.337 0 100 .674h2.379a.337.337 0 100-.674H5.639v-.814H18.36v.814H8.283a.337.337 0 100 .674h11.159a.337.337 0 100-.674zM12 2.057l1.419 1.42H10.58L12 2.057zm-1.524 2.094h3.047v2.303h-3.047V4.15zm3.42 2.976v.815h-.038-1.521v-.035a.337.337 0 10-.674 0v.035h-1.56v-.815h3.792zm-3.457 1.489h3.121l.294 2.55h-3.709l.294-2.55zm-.372 3.225h3.865l.294 2.55H9.773l.294-2.55zm-.372 3.225h4.61l.293 2.55H9.401l.294-2.55zM8.211 18.29h7.577l.305 3.047h-1.518l-.004-.817h.035a.337.337 0 00-.001-.674h-.002l-.744.004a.337.337 0 00.001.674H13.897l.004.813h-.82v-1.152c0-.596-.485-1.081-1.081-1.081s-1.081.485-1.081 1.081v1.152h-.809l-.004-.817h.035a.337.337 0 00-.002-.674h-.001l-.745.004a.337.337 0 00.002.674H9.432l.004.813h-1.53l.305-3.047zm4.196 3.047h-.815v-1.152a.408.408 0 01.815 0v1.152zM4.433 2.638l3.72 1.489a.336.336 0 00.439-.188.337.337 0 00-.188-.438L4.683 2.012a.337.337 0 00-.25.626z"/>
    <path d="M4.558 8.616a.336.336 0 00.125-.024l3.72-1.489a.337.337 0 00-.25-.625l-3.72 1.488a.337.337 0 00.125.65zM15.72 4.15a.336.336 0 00.126-.023l3.721-1.489a.337.337 0 00-.25-.626l-3.721 1.489a.337.337 0 00.125.65zM19.567 7.966l-3.721-1.488a.337.337 0 10-.25.625l3.72 1.489a.336.336 0 00.439-.188.337.337 0 00-.188-.438zM12 9.43a.337.337 0 00-.337.337v.745a.337.337 0 10.674 0v-.745A.337.337 0 0012 9.43zM12 12.78a.337.337 0 00-.337.336v.745a.337.337 0 10.674 0v-.745A.337.337 0 0012 12.78zM12 16.128a.337.337 0 00-.337.337v.744a.337.337 0 10.674 0v-.744a.337.337 0 00-.337-.337z"/>
  </g>
</svg>
