<svg width="24" height="24" fill="none" xmlns="http://www.w3.org/2000/svg">
  <defs/>
  <path d="M.922 8.013v12.409H23.09V3.546H.922v3.08" fill="#FCD577"/>
  <path d="M23.084 3.146H.916a.416.416 0 00-.416.416v3.08a.416.416 0 10.832 0V3.978h21.336v16.044H1.332V8.029a.416.416 0 10-.832 0v12.409c0 .23.186.416.416.416h22.168c.23 0 .416-.186.416-.416V3.562a.416.416 0 00-.416-.416z" fill="#000"/>
  <path d="M20.117 6.418l-7.884 5.834-.802-2.07a.416.416 0 00-.638-.183l-7.407 5.576a.416.416 0 10.5.665l6.968-5.245.8 2.067a.416.416 0 00.636.184l8.322-6.159a.416.416 0 10-.495-.669zM3.22 18.293a.416.416 0 10.832 0v-.998a.416.416 0 00-.832 0v.998zM20.78 8.417a.416.416 0 00-.832 0v6.187a.416.416 0 10.833 0V8.417zM20.364 15.575a.416.416 0 00-.416.416v2.302a.416.416 0 00.833 0v-2.302a.416.416 0 00-.417-.416zM17.16 10.48v7.813a.416.416 0 10.832 0v-7.812a.416.416 0 00-.832 0zM14.372 12.544v5.75a.416.416 0 10.832 0v-5.75a.416.416 0 00-.832 0zM11.584 14.469v3.824a.416.416 0 10.832 0V14.47a.416.416 0 00-.832 0z" fill="#000"/>
  <path d="M9.628 13.374a.416.416 0 10-.832 0v1.897a.416.416 0 10.832 0v-1.897zM9.212 16.243a.416.416 0 00-.416.416v1.634a.416.416 0 10.832 0V16.66a.416.416 0 00-.416-.416zM6.008 15.473v2.82a.416.416 0 10.832 0v-2.82a.416.416 0 10-.832 0z" fill="#000"/>
</svg>
