<svg width="24" height="24" fill="none" xmlns="http://www.w3.org/2000/svg">
  <defs/>
  <path d="M22.417 12.564h-2.895V4.398h.267a2.628 2.628 0 012.628 2.628v5.538z" fill="#EF4424"/>
  <path d="M19.79 4.398h-.267v.233a2.628 2.628 0 011.545 2.395v5.538h1.35V7.026a2.628 2.628 0 00-2.629-2.628z" fill="#D73D24"/>
  <path d="M19.523 7.912h2.894v8.166h-2.895V7.912z" fill="#E9B665"/>
  <path d="M21.067 7.912h1.35v8.166h-1.35V7.912z" fill="#C99C56"/>
  <path d="M20.448 15.04c-.96-.431-2.711-1.398-3.764-3.072-1.288-2.047-2.265-3.971-4.604-3.378-.868.22-1.782.22-2.65 0-2.339-.593-3.316 1.331-4.604 3.378-1.066 1.695-2.848 2.665-3.8 3.087-.314.14-.283.555.026.707 3.603 1.78 9.703-.45 9.703-.45s6.385 2.278 9.719.442a.4.4 0 00-.026-.715z" fill="#EF4424"/>
  <path d="M20.429 15.339c-1.917-.151-4.937-.342-6.505-.898a4.633 4.633 0 00-3.17.023 4.632 4.632 0 00-3.172-.023c-1.567.556-4.587.747-6.504.898-.192.015-.244.272-.072.36.7.356 1.671.938 2.013 1.568.481.886 1.98 2.565 5.814 1.621a8.03 8.03 0 013.84 0c3.834.944 5.333-.735 5.814-1.62.342-.63 1.313-1.213 2.014-1.57.172-.087.12-.344-.072-.36z" fill="#EF4424"/>
  <path d="M20.43 15.339c-1.918-.151-4.938-.342-6.505-.898a4.65 4.65 0 00-2.234-.218c.3.044.596.116.884.218 1.568.556 4.588.747 6.505.898.192.015.244.272.072.36-.701.356-1.672.938-2.014 1.568-.343.632-1.203 1.666-3.057 1.866 2.806.267 3.99-1.098 4.407-1.866.342-.63 1.313-1.212 2.014-1.568.171-.088.12-.345-.073-.36z" fill="#D73D24"/>
  <path d="M21.92 19.602h-1.9a1.243 1.243 0 01-1.243-1.242V9.736h4.386v8.624c0 .686-.557 1.242-1.243 1.242z" fill="#7CA1B1"/>
  <path d="M21.813 9.736v8.624c0 .686-.556 1.242-1.243 1.242h1.35c.686 0 1.242-.556 1.242-1.242V9.736h-1.35z" fill="#678D98"/>
  <path d="M23.163 9.399h-.408V7.026A2.969 2.969 0 0019.79 4.06h-.267a.337.337 0 00-.338.338V9.399h-.407a.337.337 0 00-.338.337v.606a.337.337 0 00.675 0v-.269h3.71v1.452h-2.142a.337.337 0 100 .675h2.142v6.16c0 .499-.406.905-.905.905h-1.9a.906.906 0 01-.905-.905v-1.451a.338.338 0 000-.064v-5.153a.337.337 0 10-.675 0v1.727a6.796 6.796 0 01-1.47-1.63l-.282-.452c-1.176-1.894-2.286-3.684-4.69-3.074a5.068 5.068 0 01-2.485 0c-.96-.243-1.786-.117-2.526.387-.687.467-1.216 1.2-1.684 1.923a.337.337 0 10.566.367c1.049-1.618 1.914-2.42 3.478-2.023a5.742 5.742 0 002.816 0c.887-.225 1.577-.075 2.236.487.625.532 1.155 1.386 1.715 2.289l.284.455c.494.784 1.18 1.498 2.042 2.122v.572c-1.528-.134-3.329-.338-4.403-.719a4.978 4.978 0 00-3.283-.018 4.978 4.978 0 00-3.284.018c-1.28.454-3.588.66-5.432.803.991-.552 2.238-1.45 3.073-2.778a.337.337 0 00-.57-.36c-1.016 1.615-2.724 2.547-3.652 2.959a.633.633 0 00-.389.574.75.75 0 00.084.352.523.523 0 00.267.325L.853 16c.975.496 1.64 1.004 1.87 1.43.222.409.753 1.166 1.808 1.642 1.164.526 2.639.574 4.383.144a7.72 7.72 0 013.68 0 9.18 9.18 0 002.185.29c.822 0 1.557-.145 2.198-.434a3.914 3.914 0 001.463-1.127v.416c0 .87.709 1.58 1.58 1.58h1.9c.871 0 1.58-.71 1.58-1.58V9.736a.337.337 0 00-.337-.337zM22.08 7.026v.548h-2.22V4.736a2.293 2.293 0 012.22 2.29zm-2.22 1.223h2.22V9.4h-2.22v-1.15zm-1.669 8.857c-.402.741-1.737 2.366-5.436 1.454a8.399 8.399 0 00-4.002 0c-3.7.912-5.035-.713-5.437-1.453-.262-.483-.837-.977-1.712-1.47l.014-.002c1.942-.149 4.601-.352 6.078-.876a4.3 4.3 0 012.94.02c.076.03.16.03.236 0a4.302 4.302 0 012.94-.02c1.158.41 3.047.623 4.628.76v1.231c-.101.12-.185.239-.249.357z" fill="#000"/>
</svg>
