<svg width="24" height="24" fill="none" xmlns="http://www.w3.org/2000/svg">
  <defs/>
  <path d="M18.255 15.689l.02-13.404a.984.984 0 00-.982-.986L2.026 1.275a.984.984 0 00-.986.983l-.03 18.62c0 .543.44.984.983.985l15.268.024c.544 0 .985-.44.986-.983l.004-2.429.004-2.786z" fill="#FFEFCA"/>
  <g fill="#6BE8C7">
    <path d="M23.111 16.133v1.826c0 .4-.324.725-.725.725h-.528a.725.725 0 01-.725-.725V6.662h1.978v9.471zM21.133 6.662l.72-2.204a.323.323 0 01.616.01l.642 2.194"/>
  </g>
  <path d="M22.095 18.683h.29c.401 0 .725-.325.725-.725V6.66l-.641-2.195a.317.317 0 00-.305-.232l-.07 14.449z" fill="#3CD3A8"/>
  <path d="M.981 1.244c-.247 0-.448.2-.449.448L.5 22.279a.449.449 0 00.448.45l17.236.027a.45.45 0 00.45-.448l.005-3.413a.449.449 0 10-.898-.001l-.004 2.964-16.339-.026.031-19.69 16.339.026-.022 13.94a.449.449 0 00.898.001l.022-14.388c0-.248-.2-.45-.448-.45L.982 1.244z" fill="#000"/>
  <path d="M16.28 15.153l-13.345-.021a.449.449 0 00-.002.897l13.346.021h.001a.449.449 0 000-.897zM16.277 17.965a.449.449 0 00.001-.897l-13.346-.021a.449.449 0 00-.001.897l13.345.021h.001zM6.036 18.962a.449.449 0 000 .897l6.702.01a.449.449 0 00.001-.897l-6.703-.01zM8.174 6.332h6.542a.449.449 0 000-.898H8.174a.449.449 0 000 .898zM4.873 7.036a.447.447 0 00.634 0l1.671-1.671a.449.449 0 10-.634-.635L5.19 6.084l-.423-.423a.449.449 0 00-.635.635l.74.74zM8.174 9.292h6.542a.449.449 0 000-.897H8.174a.449.449 0 000 .897zM4.132 9.256l.74.74a.449.449 0 00.635 0l1.671-1.67a.449.449 0 10-.634-.636L5.19 9.044l-.423-.422a.449.449 0 10-.635.634zM8.174 12.253h6.542a.449.449 0 000-.898H8.174a.449.449 0 000 .898zM4.132 12.217l.74.74a.449.449 0 00.635 0l1.671-1.671a.449.449 0 00-.634-.635L5.19 12.005l-.423-.423a.449.449 0 10-.635.635zM23.5 7.068l-.002-.03c0-.008-.002-.015-.003-.022l-.003-.022-.007-.03-.003-.01-.002-.006v-.003l-.933-3.188a.449.449 0 00-.858-.013L20.646 6.94v.002c-.004.01-.006.02-.009.031 0 .005-.002.009-.003.013l-.004.022-.003.024-.001.012a.423.423 0 00-.002.034V19.1c0 .248.201.45.449.45h1.978a.449.449 0 00.45-.45v-2.55a.449.449 0 00-.899 0v2.102h-1.08V7.528h1.08v6.753a.449.449 0 00.898 0V7.088 7.08v-.011zm-1.407-1.666l.36 1.229h-.761l.4-1.23z" fill="#000"/>
</svg>
