<svg width="24" height="24" fill="none" xmlns="http://www.w3.org/2000/svg">
  <defs/>
  <path d="M15.028 5.087a1.929 1.929 0 001.927-1.926 1.929 1.929 0 00-1.927-1.927 1.929 1.929 0 00-1.926 1.927c0 1.062.864 1.926 1.926 1.926zM7.046 3.16c0 1.063.864 1.927 1.926 1.927A1.929 1.929 0 0010.9 3.161a1.929 1.929 0 00-1.927-1.927 1.929 1.929 0 00-1.926 1.927z" fill="#C1E8E6"/>
  <path d="M8.972 5.821c1.34 0 2.451-.996 2.634-2.286h.788a2.664 2.664 0 002.633 2.286 2.664 2.664 0 002.66-2.66A2.664 2.664 0 0015.028.5a2.664 2.664 0 00-2.635 2.301h-.784A2.664 2.664 0 008.972.5a2.664 2.664 0 00-2.66 2.66 2.664 2.664 0 002.66 2.661zm1.927-2.66a1.929 1.929 0 01-1.927 1.926 1.929 1.929 0 01-1.926-1.926c0-1.063.864-1.927 1.926-1.927 1.062 0 1.927.864 1.927 1.927zm4.128-1.927c1.063 0 1.927.864 1.927 1.927a1.929 1.929 0 01-1.927 1.926 1.929 1.929 0 01-1.926-1.926c0-1.063.864-1.927 1.926-1.927z" fill="#082947"/>
  <path d="M17.07 8.88a.367.367 0 11.733 0h.734a.367.367 0 11.734 0v12.785a.367.367 0 11-.734 0h-.734a.367.367 0 11-.734 0h-.734v1.101h3.67V7.779h-2.569a.367.367 0 01-.367-.367h-.734V8.88h.734z" fill="#FF6E1D"/>
  <path d="M18.537 8.88h-.734v12.785h.734V8.88z" fill="#98D9D5"/>
  <path d="M18.904 22.032a.367.367 0 00.367-.367V8.88a.367.367 0 00-.734 0v12.785c0 .203.164.367.367.367z" fill="#082947"/>
  <path d="M17.07 8.88h-.735v12.785h.734V8.88z" fill="#C1E8E6"/>
  <path d="M17.436 22.032a.367.367 0 00.367-.367V8.88a.367.367 0 10-.734 0v12.785c0 .203.165.367.367.367z" fill="#082947"/>
  <path d="M6.197 13.284v6.583a1.84 1.84 0 011.431 1.43h5.074a1.841 1.841 0 011.431-1.43v-9.19a1.841 1.841 0 01-1.431-1.43H7.628a1.84 1.84 0 01-1.43 1.43v1.139a.367.367 0 01-.368.367v.734c.203 0 .367.164.367.367z" fill="#F2EBD9"/>
  <path d="M3.995 8.146c0 .202.165.367.367.367.203 0 .367.164.367.367v12.785a.367.367 0 01-.367.367.367.367 0 000 .734h11.24V7.779H4.361a.367.367 0 00-.367.367zm1.468 5.138c0-.203.165-.367.367-.367v-.734a.367.367 0 01-.367-.367v-1.468c0-.203.165-.367.367-.367.607 0 1.101-.494 1.101-1.101 0-.203.165-.367.367-.367h5.734c.203 0 .367.164.367.367 0 .607.494 1.1 1.101 1.1.203 0 .367.165.367.368v9.849a.367.367 0 01-.367.367c-.607 0-1.1.494-1.1 1.1a.367.367 0 01-.368.368H7.298a.367.367 0 01-.367-.367c0-.607-.494-1.101-1.1-1.101a.367.367 0 01-.368-.367v-6.913z" fill="#FFCC75"/>
  <path d="M20.372 7.044h-2.936a.367.367 0 000 .734h2.57v14.988h-3.671V7.41a.367.367 0 00-.367-.367H4.362a1.102 1.102 0 00-.367 2.14V21.36a1.102 1.102 0 00.367 2.14h16.01a.367.367 0 00.367-.368V7.41a.367.367 0 00-.367-.367zm-4.771 15.722H4.361a.367.367 0 010-.734.367.367 0 00.368-.367V8.88a.367.367 0 00-.367-.367.367.367 0 010-.735H15.6v14.988z" fill="#082947"/>
  <path d="M5.83 20.564c.607 0 1.101.494 1.101 1.1 0 .203.164.368.367.368h5.734a.367.367 0 00.367-.367c0-.607.494-1.101 1.1-1.101a.367.367 0 00.368-.367v-9.85a.367.367 0 00-.367-.366 1.102 1.102 0 01-1.101-1.101.367.367 0 00-.367-.367H7.298a.367.367 0 00-.367.367c0 .607-.494 1.1-1.101 1.1a.367.367 0 00-.367.368v1.468a.367.367 0 00.734 0v-1.138a1.84 1.84 0 001.431-1.431h5.074a1.841 1.841 0 001.431 1.43v9.19a1.841 1.841 0 00-1.431 1.43H7.628a1.841 1.841 0 00-1.431-1.43v-6.583a.367.367 0 00-.734 0v6.913c0 .203.164.367.367.367z" fill="#082947"/>
</svg>
