<svg width="24" height="24" fill="none" xmlns="http://www.w3.org/2000/svg">
  <defs/>
  <path d="M12.046 20.812c.66-.863 1.008-2.074 1.035-3.6.018-.977-.106-1.769-.135-1.937-.188.23-.453.395-.761.458l-.96.193c.114.965.149 2.806-.607 3.796l1.428 1.09z" fill="#5B9ED6"/>
  <path d="M11.287 17.082l.898-.181c.308-.063.573-.229.761-.458.02.12.03-1 0-1.168-.188.23-.453.395-.76.458l-.96.193c.036.313.065.718.06 1.156z" fill="#4C83B3"/>
  <path d="M10.024 3.561l.651 3.063h1.49c.127 0 .248.022.36.062l-.743-3.498-1.758.373z" fill="#5B9ED6"/>
  <path d="M12.262 5.45c-.113-.04-.3-.024-.426-.024H10.42l.255 1.198h1.49c.126 0 .247.022.36.062l-.263-1.236z" fill="#4C83B3"/>
  <path d="M18.665 3.561l-.651 3.063h-1.837l.73-3.436 1.758.373z" fill="#ED2772"/>
  <path d="M18.278 5.383l-1.834-.017-.267 1.258h1.837l.264-1.24z" fill="#D12265"/>
  <path d="M5.307 17.12l6.878-1.387a1.323 1.323 0 001.062-1.297V7.705c0-.597-.484-1.081-1.082-1.081H5.322a4.485 4.485 0 00-4.485 4.485v4.193a2.227 2.227 0 002.667 2.183l.455-.092 1.348-.272z" fill="#CF4842"/>
  <path d="M12.166 6.624h-.88c.002.021.003.043.003.064v6.73c0 .63-.444 1.173-1.062 1.298l-6.878 1.388L2 16.376l-.455.092a2.253 2.253 0 01-.353.042 2.226 2.226 0 002.312.974l.454-.091 1.348-.272 6.878-1.388a1.323 1.323 0 001.062-1.297V7.705c0-.597-.484-1.081-1.081-1.081z" fill="#A83A36"/>
  <path d="M19.711 6.624h-3.149c-1.09 0-1.973.883-1.973 1.973v4.391a.994.994 0 001.499.857l6.117-3.603a1.943 1.943 0 00-.986-3.618h-.28" fill="#CF4842"/>
  <path d="M21.85 6.729a1.942 1.942 0 01-.853 2.305l-6.117 3.602a1.005 1.005 0 01-.291.116v.236a.994.994 0 001.499.857l6.117-3.603a1.944 1.944 0 00-.356-3.513z" fill="#A83A36"/>
  <path d="M14.59 12.988v-4.39c0-.748.415-1.398 1.027-1.733h-2.771c.244.198.4.5.4.84v6.73c0 .23-.059.447-.163.637.585-.575 1.266-1.13 2.223-1.13a.99.99 0 01-.717-.954z" fill="#EC947E"/>
  <path d="M21.22 6.287a.337.337 0 000 .674c.885 0 1.606.72 1.606 1.607 0 .566-.303 1.097-.791 1.384l-6.118 3.603a.657.657 0 01-.99-.567v-4.39c0-.903.733-1.637 1.636-1.637h3.149a.337.337 0 100-.674H18.43l.565-2.655a.337.337 0 10-.66-.14l-.594 2.795h-1.148l.644-3.03a.337.337 0 00-.659-.14l-.698 3.285c-.112.035-.22.075-.325.126H12.91c-.03-.018-.055-.04-.085-.057l-.713-3.353a.337.337 0 10-.659.14l.644 3.029h-1.148l-.595-2.796a.337.337 0 10-.659.14l.565 2.656H5.322A4.827 4.827 0 00.5 11.109v4.193a2.564 2.564 0 003.07 2.513l.456-.092a.337.337 0 10-.134-.66l-.455.091a1.89 1.89 0 01-2.263-1.852v-4.193A4.153 4.153 0 015.322 6.96h6.843c.41 0 .745.334.745.744v6.73a.978.978 0 01-.38.76c-.335.268.408.019-6.909 1.519a.337.337 0 10.134.66l5.16-1.041c.086 1.13-.012 2.46-.564 3.185a.337.337 0 00.535.409c.808-1.06.776-2.865.704-3.73.552-.125.774-.12 1.1-.289.156 1.552.04 3.455-.911 4.7a.337.337 0 00.536.409c1.142-1.497 1.265-3.851.98-5.686l.007-.011c.479-.418 1.052-1.04 2.003-1.04.02 0 .2.042.279.042.232 0 .464-.063.675-.187l6.118-3.602A2.29 2.29 0 0023.5 8.568a2.283 2.283 0 00-2.28-2.281zm-6.727 7.45a3.194 3.194 0 00-.91.476c-.04-6.784.09-6.514-.101-7.011h1.252a2.289 2.289 0 00-.482 1.395v4.391c0 .278.09.533.24.75z" fill="#000"/>
</svg>
