<svg width="24" height="24" fill="none" xmlns="http://www.w3.org/2000/svg">
  <defs/>
  <path d="M17.926 8.169h.988a3.013 3.013 0 003.013-3.012V1.662a.806.806 0 00-.806-.806h-.968c-1.23 0-2.227.997-2.227 2.226V8.17z" fill="#FE860A"/>
  <path d="M21.12.856h-.967c-.083 0-.164.004-.244.013a.806.806 0 01.662.793v3.495a3.012 3.012 0 01-2.645 2.989v.023h.988a3.013 3.013 0 003.013-3.012V1.662a.806.806 0 00-.806-.806z" fill="#FE7701"/>
  <path d="M18.875 9.748a1.323 1.323 0 100-2.645 1.323 1.323 0 000 2.645z" fill="#FE7701"/>
  <path d="M18.875 7.102c-.248 0-.48.069-.678.187a1.322 1.322 0 010 2.272 1.323 1.323 0 10.678-2.458z" fill="#F46700"/>
  <path d="M17.926 11.793a1.323 1.323 0 100-2.645 1.323 1.323 0 000 2.645z" fill="#FE7701"/>
  <path d="M17.926 9.148c-.248 0-.48.068-.678.187a1.322 1.322 0 010 2.271 1.323 1.323 0 10.678-2.458z" fill="#F46700"/>
  <path d="M6.074 8.169h-.988a3.013 3.013 0 01-3.013-3.012V1.662c0-.445.361-.806.806-.806h.968c1.23 0 2.227.997 2.227 2.226V8.17z" fill="#FE860A"/>
  <path d="M3.847.856H2.88a.81.81 0 00-.144.013 2.227 2.227 0 011.983 2.213v5.064c.12.015.243.023.368.023h.988V3.082c0-1.23-.997-2.226-2.227-2.226z" fill="#FE7701"/>
  <path d="M5.17 9.793a1.323 1.323 0 100-2.645 1.323 1.323 0 000 2.645z" fill="#FE7701"/>
  <path d="M5.17 7.148c-.248 0-.48.068-.678.187a1.322 1.322 0 010 2.27 1.323 1.323 0 10.678-2.458z" fill="#F46700"/>
  <path d="M6.725 11.622a1.323 1.323 0 11.567-1.67" fill="#FE7701"/>
  <path d="M6.074 9.148c-.247 0-.48.068-.678.187a1.322 1.322 0 010 2.271 1.323 1.323 0 10.678-2.458z" fill="#F46700"/>
  <path d="M9.586 12.265h-2.12a.59.59 0 01-.588-.587v-.964a.59.59 0 01.588-.587h2.12a.59.59 0 01.587.587v.964a.59.59 0 01-.587.587zM14.414 12.265h2.12a.59.59 0 00.588-.587v-.964a.59.59 0 00-.588-.587h-2.12a.59.59 0 00-.588.587v.964a.59.59 0 00.588.587z" fill="#FE9738"/>
  <path d="M13.763 20.55c-.595-.595-1.364-.79-1.718-.437-.354-.354-1.123-.158-1.718.437s-.79 1.365-.437 1.718c.276.276.804.218 1.305-.103.128.582.46.996.85.996.39 0 .723-.415.85-.996.502.32 1.03.38 1.305.103.354-.353.158-1.123-.437-1.718z" fill="#FE7701"/>
  <g fill="#F46700">
    <path d="M9.839 22.165l-.022.013a.556.556 0 00.038.052l-.016-.065zM13.763 20.55c-.595-.595-1.364-.79-1.718-.437-.16-.16-.403-.207-.678-.157.334.061.713.268 1.04.594.549.549.758 1.246.51 1.628.495.309 1.012.362 1.283.09.354-.353.158-1.123-.437-1.718zM12.844 22.268c-.275.276-.803.218-1.305-.103-.04.18-.098.342-.172.482.166.315.408.514.678.514.375 0 .697-.384.834-.931a.574.574 0 01-.035.038z"/>
  </g>
  <path d="M12.527 20.249H11.46a.88.88 0 01-.88-.88v-3.59h2.827v3.59a.88.88 0 01-.88.88z" fill="#FE9738"/>
  <path d="M12.05 15.779v3.59a.879.879 0 01-.735.867.879.879 0 00.145.013h1.067a.88.88 0 00.88-.88v-3.59H12.05z" fill="#FE860A"/>
  <path d="M12.914 17.916h-1.84a.88.88 0 01-.879-.879v-3.59h3.598v3.59a.88.88 0 01-.88.88z" fill="#FE9738"/>
  <path d="M12.437 13.447v3.59a.88.88 0 01-.88.88h1.357a.88.88 0 00.88-.88v-3.59h-1.357z" fill="#FE860A"/>
  <path d="M13.35 15.643h-2.712a.88.88 0 01-.88-.88v-3.59h4.47v3.59a.88.88 0 01-.879.88z" fill="#FE9738"/>
  <path d="M12.873 11.173v3.59a.88.88 0 01-.88.88h1.356a.88.88 0 00.88-.88v-3.59h-1.356z" fill="#FE860A"/>
  <path d="M15.436 13.295H8.563V7.618a3.436 3.436 0 116.873 0v5.677z" fill="#FE9738"/>
  <path d="M12 4.181a3.45 3.45 0 00-.678.068 3.437 3.437 0 012.759 3.369v5.677h1.356V7.618A3.436 3.436 0 0012 4.18z" fill="#FE860A"/>
  <path d="M21.12.517h-.967a2.569 2.569 0 00-2.566 2.566v4.294a1.653 1.653 0 00-.294 1.557c-.385.159-.703.46-.881.854h-.637v-2.17a3.772 3.772 0 00-1.54-3.04V2.164a.988.988 0 011.973 0v4.362a.339.339 0 00.678 0V2.165c0-.918-.747-1.665-1.665-1.665s-1.665.747-1.665 1.665V4.18a3.751 3.751 0 00-3.112 0V2.165C10.444 1.247 9.697.5 8.779.5s-1.665.747-1.665 1.665v4.362a.339.339 0 00.678 0V2.165a.988.988 0 011.974 0v2.412a3.772 3.772 0 00-1.541 3.04v2.17h-.637a1.659 1.659 0 00-.83-.83 1.664 1.664 0 00-.352-1.595.34.34 0 00.007-.067V3.082A2.569 2.569 0 003.847.517H2.88c-.632 0-1.146.513-1.146 1.145v1.163a.339.339 0 00.678 0V1.662c0-.258.21-.467.468-.467h.628V3.74a.339.339 0 00.678 0V1.226a1.89 1.89 0 011.55 1.857v3.825a1.66 1.66 0 00-1.92.602 2.687 2.687 0 01-1.404-2.353V4.18a.339.339 0 00-.678 0v.976c0 1.248.706 2.402 1.81 2.976a1.661 1.661 0 00.941 1.852 1.663 1.663 0 002.129 2.058c.142.33.47.561.852.561h.759v.691c0 .187.152.339.339.339h.856v1.13c0 .374.17.71.436.933v1.34c0 .355.152.675.395.897a.34.34 0 00-.01.08v1.355c0 .239.07.461.189.65-.12.086-.235.184-.343.292-.738.738-.93 1.704-.437 2.197.313.313.815.359 1.344.143.221.527.608.849 1.051.849.443 0 .83-.322 1.052-.849.529.216 1.03.17 1.343-.143.494-.493.302-1.459-.437-2.197a2.824 2.824 0 00-.414-.343c.1-.177.157-.381.157-.599v-1.355a.34.34 0 00-.01-.08c.243-.222.396-.542.396-.897v-1.34c.266-.224.436-.559.436-.933v-1.13h.868a.339.339 0 00.34-.339v-.69h.758c.382 0 .71-.233.852-.563a1.663 1.663 0 002.122-2.08 1.657 1.657 0 00.998-1.855 3.336 3.336 0 001.76-2.95V1.662c0-.632-.514-1.145-1.145-1.145zM12 4.52a3.1 3.1 0 013.097 3.098V9.79c-1.41.038-2.61.88-3.109 2.057-.496-1.171-1.686-2.01-3.085-2.056V7.618A3.1 3.1 0 0112 4.52zM4.187 8.47a.985.985 0 111.93.271.34.34 0 00-.013.069l-.03-.001c-.502 0-.953.225-1.258.578a.981.981 0 01-.63-.917zm.904 2a.985.985 0 011.828-.502.925.925 0 00-.38.746v.623a.985.985 0 01-1.449-.867zm2.375 1.456a.249.249 0 01-.249-.248v-.964c0-.137.112-.248.249-.248h.759v1.46h-.76zm1.437-1.457c1.437.059 2.593 1.143 2.653 2.487H8.903v-2.487zm5.057 11.56c-.122.123-.474.112-.882-.15a.339.339 0 00-.514.213c-.104.474-.345.73-.519.73-.174 0-.415-.256-.519-.73a.339.339 0 00-.514-.212c-.408.261-.76.272-.882.149-.082-.082-.1-.245-.049-.446.067-.262.244-.551.486-.793.122-.122.254-.226.392-.31.153.069.322.108.501.108h1.068c.2 0 .39-.05.557-.136.153.087.304.203.438.338.472.472.623 1.053.438 1.239zm-.892-2.66c0 .298-.242.54-.54.54H11.46a.541.541 0 01-.54-.54v-1.124c.05.007.102.01.155.01h1.838c.053 0 .104-.003.155-.01v1.124zm.822-4.605c0 .298-.243.54-.54.54h-.889a.339.339 0 000 .678h.888c.036 0 .07-.002.105-.005v1.06c0 .298-.243.54-.54.54h-1.84a.541.541 0 01-.54-.54v-1.06c.034.003.07.005.105.005h.466a.339.339 0 000-.678h-.466a.541.541 0 01-.54-.54v-1.13h3.791v1.13zm-1.47-1.808c.06-1.352 1.23-2.44 2.677-2.488v2.488h-2.676zm4.363-1.278a.249.249 0 01-.249.248h-.759v-1.46h.76c.136 0 .248.111.248.248v.964zm1.143-.224a.975.975 0 01-.39-.08.34.34 0 00-.075-.023v-.637a.925.925 0 00-.38-.746.985.985 0 11.845 1.486zm1.239-2.09a1.658 1.658 0 00-1.195-.554.985.985 0 111.889-.385.98.98 0 01-.694.94zm2.423-4.207a2.66 2.66 0 01-1.349 2.322 1.66 1.66 0 00-1.974-.599V3.083c0-.926.669-1.697 1.549-1.857V3.74a.339.339 0 00.678 0V1.195h.628c.258 0 .468.21.468.467v3.495z" fill="#000"/>
  <path d="M10.654 7.544a.339.339 0 00.34-.34v-.491a.339.339 0 00-.679 0v.492c0 .187.152.339.34.339zM13.346 7.544a.339.339 0 00.339-.34v-.491a.339.339 0 00-.678 0v.492c0 .187.152.339.339.339z" fill="#000"/>
</svg>
