<svg width="24" height="24" fill="none" xmlns="http://www.w3.org/2000/svg">
  <defs/>
  <path d="M14.367 20.398c-1.311 1.644-2.314 2.755-2.314 2.755S3.707 13.909 3.707 9.3a8.346 8.346 0 0116.692 0c0 1.944-1.485 4.712-3.201 7.264l-2.832 3.834z" fill="#FEA8D6"/>
  <path d="M12.053 14.307a5.335 5.335 0 100-10.669 5.335 5.335 0 000 10.67z" fill="#fff"/>
  <path d="M15.5 8.92s-1.543 1.973-3.447 1.973c-1.904 0-3.448-1.974-3.448-1.974s1.544-1.866 3.448-1.866S15.5 8.919 15.5 8.919z" fill="#6BE8C7"/>
  <path d="M12.053 9.752a.78.78 0 100-1.559.78.78 0 000 1.559z" fill="#fff"/>
  <path d="M14.366 20.398l2.831-3.834c1.717-2.552 3.202-5.32 3.202-7.264A8.346 8.346 0 0012.053.954c14.621 5.621 1.297 18.952 0 22.199 0 0 1.003-1.111 2.313-2.755z" fill="#E88AC2"/>
  <path d="M12 23.5a.4.4 0 01-.298-.132c-.345-.382-8.45-9.412-8.45-14.121C3.253 4.424 7.178.5 12 .5c4.823 0 8.746 3.924 8.746 8.747 0 1.744-1.1 4.263-3.27 7.487a.4.4 0 01-.665-.447c2.05-3.046 3.134-5.48 3.134-7.04C19.945 4.866 16.38 1.3 12 1.3S4.054 4.867 4.054 9.247c0 1.799 1.416 4.708 4.093 8.414A70.308 70.308 0 0012 22.494c.39-.447 1.13-1.308 2-2.399a.4.4 0 01.626.5 66.264 66.264 0 01-2.329 2.773.401.401 0 01-.297.132z" fill="#000"/>
  <path d="M12 14.655a5.742 5.742 0 01-5.735-5.736A5.742 5.742 0 0112 3.184a5.742 5.742 0 015.735 5.735A5.742 5.742 0 0112 14.655zm0-10.67A4.94 4.94 0 007.066 8.92 4.94 4.94 0 0012 13.853a4.94 4.94 0 004.934-4.934A4.94 4.94 0 0012 3.986z" fill="#000"/>
  <path d="M12 11.24c-2.076 0-3.696-2.04-3.764-2.127a.4.4 0 01.007-.502C8.311 8.529 9.931 6.599 12 6.599c2.07 0 3.689 1.93 3.757 2.012a.4.4 0 01.006.502C15.694 9.2 14.075 11.24 12 11.24zM9.09 8.874c.469.5 1.616 1.565 2.909 1.565 1.297 0 2.441-1.064 2.908-1.565C14.435 8.398 13.291 7.4 12 7.4c-1.292 0-2.436.997-2.909 1.474z" fill="#000"/>
  <path d="M12 10.1c-.651 0-1.18-.53-1.18-1.18 0-.651.529-1.18 1.18-1.18.65 0 1.18.529 1.18 1.18 0 .65-.53 1.18-1.18 1.18zm0-1.56a.38.38 0 100 .759.38.38 0 000-.758z" fill="#000"/>
</svg>
