<svg width="24" height="24" fill="none" xmlns="http://www.w3.org/2000/svg">
  <defs/>
  <path d="M23.163 3.24v8.086H12V3.24h11.163z" fill="#CCD1D9"/>
  <path d="M23.163 3.24h-1.349v8.206h1.349V3.24z" fill="#AAB2BC"/>
  <path d="M23.163 11.326v8.086H12v-8.086h11.163z" fill="#656D78"/>
  <path d="M12 3.24v8.086H.838V3.24H12z" fill="#AAB2BC"/>
  <path d="M12 11.326v8.086H.838v-8.086H12z" fill="#CCD1D9"/>
  <path d="M3.308 14.47a.673.673 0 110 1.348.673.673 0 010-1.347z" fill="#656D78"/>
  <path d="M23.163 11.326v8.086l-2.246 1.348V9.979l2.246 1.347z" fill="#E6E9ED"/>
  <path d="M19.188 14.92h-4.043v3.144h4.043V14.92z" fill="#5D9CEC"/>
  <path d="M15.145 14.92v3.144h-1.797v-4.94h1.796v1.796z" fill="#48CFAD"/>
  <g fill="#656D78">
    <path d="M14.47 6.384a.673.673 0 11.001 1.347.673.673 0 010-1.347zM3.308 6.385a.673.673 0 110 1.347.673.673 0 010-1.347z"/>
  </g>
  <path d="M21.814 20.221l1.349-.809v-8.086l-1.349-.809v9.704z" fill="#CCD1D9"/>
  <path d="M3.308 8.968c.186 0 .337-.151.337-.337v-.62a1.012 1.012 0 10-1.348-.953c0 .44.282.814.674.953v.62c0 .186.15.337.337.337zm0-2.246a.337.337 0 11-.001.674.337.337 0 010-.674zM10.99 5.486v-.823a.337.337 0 10-.675 0v.823a.337.337 0 10.674 0zM3.308 14.134a1.012 1.012 0 00-.337 1.963v.62a.337.337 0 00.674 0v-.62a1.012 1.012 0 00-.337-1.964zm0 1.347a.337.337 0 110-.674.337.337 0 010 .674zM10.652 12.412a.337.337 0 00-.337.337v.823a.337.337 0 10.674 0v-.823a.337.337 0 00-.337-.337zM9.305 12.412a.337.337 0 00-.337.337v.823a.337.337 0 10.674 0v-.823a.337.337 0 00-.337-.337zM7.957 12.412a.337.337 0 00-.337.337v.823a.337.337 0 10.674 0v-.823a.337.337 0 00-.337-.337z" fill="#000"/>
  <path d="M23.401 3.002a.34.34 0 00-.238-.099h-11.16H.837A.34.34 0 00.5 3.24v2.83a.337.337 0 00.674 0V3.577h10.49v7.412H1.173V7.418a.338.338 0 00-.674 0v11.994a.338.338 0 00.337.337H20.58v1.01a.337.337 0 00.51.29l2.246-1.348.007-.004a.379.379 0 00.022-.016l.01-.008a.352.352 0 00.027-.024l.01-.01a.316.316 0 00.04-.054l.005-.01a.34.34 0 00.017-.034l.003-.006a.338.338 0 00.019-.072l.001-.01a.35.35 0 00.003-.04V3.24a.34.34 0 00-.099-.238zm-11.064.575h10.49v7.154L21.09 9.689a.337.337 0 00-.51.29v1.01h-8.243V3.577zM1.174 15.512V11.663h10.49v7.412H1.173v-3.563zm11.163 3.563v-7.412h8.243v7.412h-8.243zm8.917-8.502l1.572.944v7.704l-1.572.944v-9.592z" fill="#000"/>
  <path d="M14.47 6.048a1.012 1.012 0 00-.336 1.963v.62a.337.337 0 10.674 0v-.62a1.012 1.012 0 00-.337-1.964zm0 1.347a.337.337 0 11.001-.674.337.337 0 010 .674zM21.815 5.823c.186 0 .337-.15.337-.337v-.823a.337.337 0 10-.674 0v.823c0 .186.151.337.337.337zM20.805 5.486v-.823a.337.337 0 10-.674 0v.823a.337.337 0 10.674 0zM19.188 14.583H15.48v-1.46a.337.337 0 00-.336-.337h-1.797a.337.337 0 00-.337.337v4.941c0 .187.15.337.337.337h5.84c.186 0 .337-.15.337-.337V14.92a.337.337 0 00-.337-.337zm-5.503-1.123h1.123v4.268h-1.123V13.46zm5.166 4.268h-3.37v-2.471h3.37v2.47z" fill="#000"/>
</svg>
