<svg width="24" height="24" fill="none" xmlns="http://www.w3.org/2000/svg">
  <defs/>
  <path d="M9.796 9.712H.921V1.686c0-.469.38-.85.85-.85h8.025v8.876z" fill="#C8C2C9"/>
  <path d="M8 .837V6.55c0 .754-.612 1.365-1.366 1.365H.92v1.797h8.875V.837H8z" fill="#B1ACB6"/>
  <path d="M18.671 9.712H9.796V.837h8.026c.47 0 .85.38.85.85v8.025z" fill="#C8C2C9"/>
  <path d="M16.874.837V6.55c0 .754-.611 1.365-1.365 1.365H9.796v1.797h8.875V1.686a.849.849 0 00-.849-.85h-.948z" fill="#B1ACB6"/>
  <path d="M9.796 18.587H1.77a.85.85 0 01-.85-.849V9.712h8.876v8.875z" fill="#C8C2C9"/>
  <path d="M8 9.712v5.713c0 .754-.612 1.366-1.366 1.366H.92v.948c0 .468.38.848.849.848h8.026V9.712H8z" fill="#B1ACB6"/>
  <path d="M17.822 18.587H9.796V9.712h8.875v8.026c0 .47-.38.85-.849.85z" fill="#C8C2C9"/>
  <path d="M16.874 9.712v5.713c0 .754-.611 1.366-1.365 1.366H9.796v1.796h8.026c.47 0 .85-.38.85-.848V9.712h-1.798z" fill="#B1ACB6"/>
  <path d="M16.629 18.677v-3.255c0-1.2.977-2.176 2.177-2.176 1.2 0 2.177.976 2.177 2.176v3.255h1.168v-3.255c0-1.844-1.5-3.345-3.345-3.345a3.349 3.349 0 00-3.345 3.345v3.255h1.168z" fill="#8F8290"/>
  <path d="M18.806 12.078c-.12 0-.24.006-.359.019a3.35 3.35 0 012.986 3.325v3.255h.718v-3.255c0-1.844-1.5-3.345-3.345-3.345z" fill="#695E67"/>
  <path d="M22.248 23.163h-6.883a.831.831 0 01-.83-.83v-4.38c0-.458.371-.83.83-.83h6.883c.459 0 .831.372.831.83v4.38a.831.831 0 01-.831.83z" fill="#A698A6"/>
  <path d="M22.248 17.123h-.606v4.36a.83.83 0 01-.83.831h-6.278v.019c0 .458.372.83.83.83h6.884a.83.83 0 00.831-.83v-4.38a.83.83 0 00-.83-.83z" fill="#8F8290"/>
  <path d="M20.037 19.485a1.205 1.205 0 10-1.697 1.099v.754c0 .142.114.257.256.257h.474a.256.256 0 00.256-.257v-.754c.42-.189.711-.61.711-1.1z" fill="#5A575B"/>
  <path d="M18.755 18.282c-.075.005-.149.017-.22.035a1.205 1.205 0 01.193 2.267v.754c0 .12-.083.22-.194.249.02.005.041.008.063.008h.473a.256.256 0 00.257-.257v-.754a1.205 1.205 0 00-.572-2.302z" fill="#453E43"/>
  <path d="M3.41 17.282a1.461 1.461 0 100-2.922 1.461 1.461 0 000 2.922z" fill="#F0F0F5"/>
  <path d="M4.023 14.496a1.461 1.461 0 01-1.94 1.94 1.46 1.46 0 101.94-1.94z" fill="#E1DEE2"/>
  <path d="M3.41 8.372a1.461 1.461 0 100-2.923 1.461 1.461 0 000 2.923z" fill="#F0F0F5"/>
  <path d="M4.023 5.585a1.461 1.461 0 01-1.94 1.94 1.461 1.461 0 101.94-1.94z" fill="#E1DEE2"/>
  <path d="M12.349 17.282a1.461 1.461 0 100-2.922 1.461 1.461 0 000 2.922z" fill="#F0F0F5"/>
  <path d="M12.962 14.496a1.461 1.461 0 01-1.94 1.94 1.46 1.46 0 101.94-1.94z" fill="#E1DEE2"/>
  <path d="M12.349 8.372a1.461 1.461 0 100-2.923 1.461 1.461 0 000 2.923z" fill="#F0F0F5"/>
  <path d="M12.962 5.585a1.461 1.461 0 01-1.94 1.94 1.46 1.46 0 101.94-1.94z" fill="#E1DEE2"/>
  <path d="M22.488 16.811v-1.389a3.686 3.686 0 00-3.48-3.676V1.686c0-.654-.532-1.186-1.185-1.186H1.77C1.116.5.584 1.032.584 1.686v16.053c0 .653.532 1.185 1.186 1.185h5.043a.337.337 0 100-.673H1.77a.513.513 0 01-.513-.512v-7.69H9.46v8.202H8.354a.337.337 0 000 .673h5.843v3.409c0 .643.524 1.167 1.167 1.167h6.884c.644 0 1.167-.524 1.167-1.167v-4.38a1.17 1.17 0 00-.927-1.142zm-.674-1.389v1.364h-.494v-1.364a2.517 2.517 0 00-2.514-2.513 2.517 2.517 0 00-2.513 2.513v1.364h-.495v-1.364a3.012 3.012 0 013.008-3.008 3.012 3.012 0 013.008 3.008zm-3.142.46c.186 0 .336-.15.336-.336v-1.952c.92.1 1.638.882 1.638 1.829v1.363h-3.68v-1.364c0-.851.582-1.57 1.369-1.778v1.902c0 .186.15.337.337.337zM1.257 9.376v-7.69c0-.282.23-.512.513-.512h7.69v1.293a.337.337 0 10.673 0V1.173h7.69c.282 0 .512.23.512.513v7.69h-8.202V4.081a.337.337 0 10-.674 0v5.293H1.257zm8.876 8.876v-8.202h8.202v1.723a3.686 3.686 0 00-3.21 3.65v1.39a1.17 1.17 0 00-.928 1.141v.298h-4.064zm12.609 4.082a.495.495 0 01-.494.494h-6.884a.494.494 0 01-.493-.494v-4.38c0-.272.221-.494.493-.494h6.884c.272 0 .494.222.494.494v4.38z" fill="#000"/>
  <path d="M19.888 18.36a1.528 1.528 0 00-1.154-.414 1.545 1.545 0 00-1.438 1.419 1.55 1.55 0 00.707 1.418v.555c0 .327.266.593.593.593h.474a.594.594 0 00.593-.593v-.555a1.544 1.544 0 00.225-2.423zm-.7 1.916a.337.337 0 00-.198.308v.674h-.313v-.674a.337.337 0 00-.199-.308.869.869 0 11.71 0zM1.611 15.822a1.8 1.8 0 001.798 1.797 1.8 1.8 0 001.798-1.797 1.8 1.8 0 00-1.798-1.798 1.8 1.8 0 00-1.798 1.798zm2.922 0a1.126 1.126 0 01-2.248 0 1.126 1.126 0 012.248 0z" fill="#000"/>
  <path d="M2.792 15.864c0 .186.15.337.337.337h.512a.337.337 0 000-.674h-.512a.337.337 0 00-.337.337zM3.41 5.113A1.8 1.8 0 001.61 6.91 1.8 1.8 0 003.41 8.709 1.8 1.8 0 005.207 6.91a1.8 1.8 0 00-1.798-1.797zm0 2.922a1.126 1.126 0 010-2.249 1.126 1.126 0 010 2.249z" fill="#000"/>
  <path d="M3.64 6.616H3.13a.337.337 0 100 .674h.512a.337.337 0 100-.674zM12.349 14.024a1.8 1.8 0 00-1.798 1.798 1.8 1.8 0 001.798 1.797 1.8 1.8 0 001.797-1.797 1.8 1.8 0 00-1.797-1.798zm0 2.922a1.126 1.126 0 111.124-1.124c0 .62-.505 1.124-1.124 1.124z" fill="#000"/>
  <path d="M12.58 15.527h-.512a.337.337 0 100 .674h.512a.337.337 0 000-.674zM12.349 8.708a1.8 1.8 0 001.797-1.798 1.8 1.8 0 00-1.797-1.797A1.8 1.8 0 0010.55 6.91a1.8 1.8 0 001.798 1.798zm0-2.922a1.126 1.126 0 11-1.124 1.124c0-.62.504-1.124 1.124-1.124z" fill="#000"/>
  <path d="M12.068 7.29h.512a.337.337 0 100-.674h-.512a.337.337 0 100 .674z" fill="#000"/>
</svg>
