<svg width="24" height="24" fill="none" xmlns="http://www.w3.org/2000/svg">
  <defs/>
  <path d="M20.731 19.767h2.432v1.327H20.73v-1.327zM.837 19.772h2.13v1.322H.837v-1.322z" fill="#B9C1CB"/>
  <path d="M6.176 22.997a2.033 2.033 0 10-.098-4.065 2.033 2.033 0 00.098 4.065zM17.557 22.989a2.032 2.032 0 100-4.065 2.032 2.032 0 000 4.065z" fill="#808B95"/>
  <path d="M17.556 21.83a.874.874 0 100-1.748.874.874 0 000 1.749zM6.133 21.83a.874.874 0 100-1.748.874.874 0 000 1.749z" fill="#B9C1CB"/>
  <path d="M21.824 16.157l-5.383-.379-1.062-2.513a1.882 1.882 0 00-1.734-1.15H7.492c-.76 0-1.445.457-1.737 1.158L4.71 15.778l-2.821.354a.941.941 0 00-.825.934v2.706h1.902v1.004h1.142a2.032 2.032 0 014.048 0h7.376a2.032 2.032 0 014.048 0h1.15v-1.009h2.203V17.35c0-.627-.484-1.148-1.11-1.192z" fill="#707DD3"/>
  <path d="M21.824 16.157l-.737-.052c.033.11.05.226.05.345v.89a1.53 1.53 0 01-1.528 1.531H1.065v.901h1.902v1.004h1.142a2.032 2.032 0 014.048 0h7.376a2.032 2.032 0 014.048 0h1.15v-1.009h2.203V17.35c0-.627-.484-1.148-1.11-1.192z" fill="#5766CB"/>
  <path d="M7.722 13.238c-.446 0-.848.268-1.019.68l-.775 1.86h3.138v-2.54H7.722zM14.434 13.912a1.104 1.104 0 00-1.017-.674h-3.229v2.54h5.034l-.788-1.866z" fill="#D5D8F1"/>
  <path d="M7.722 13.238l-.004.004v1.163a.475.475 0 01-.475.475h-.941l-.374.898h3.138v-2.54H7.722zM14.434 13.912a1.104 1.104 0 00-1.017-.674h-.236l.414.982a.475.475 0 01-.438.66h-2.969v.899h5.034l-.788-1.867z" fill="#BEC3EA"/>
  <path d="M20.352 17.443v.535c0 .368.299.666.666.666h.458v-1.201h-1.123z" fill="#E4936B"/>
  <path d="M21.476 18.644v-1.201h-.342a1.525 1.525 0 01-.529 1.056c.114.09.257.145.414.145h.457z" fill="#E27D47"/>
  <path d="M21.476 17.443h1.454v1.2h-1.454v-1.2z" fill="#E7ECF1"/>
  <path d="M2.278 18.027a.577.577 0 00-.576-.576h-.637v1.16h1.213v-.584z" fill="#F6F9F9"/>
  <path d="M1.065 18.611h1.213v1.161H1.065v-1.16z" fill="#E4936B"/>
  <path d="M8.998 4.425h6.005v5.473H8.997V4.425z" fill="#808B95"/>
  <path d="M13.206 4.425v3.563c0 .559-.453 1.012-1.012 1.012H8.998v.898h6.005V4.425h-1.797z" fill="#5E6B75"/>
  <path d="M12 1.011A2.291 2.291 0 009.71 3.303v1.122h1.202V3.303a1.09 1.09 0 112.179 0v1.122h1.202V3.303A2.291 2.291 0 0012 1.01z" fill="#DAE4EA"/>
  <path d="M12.96 6.519a.96.96 0 10-1.556.752v1.493h1.191V7.27a.958.958 0 00.364-.752z" fill="#5E6B75"/>
  <g fill="#F6E266">
    <path d="M18.982 1.92a.702.702 0 00-.05.937 5.677 5.677 0 011.253 3.564c0 1.348-.47 2.588-1.253 3.565a.702.702 0 101.096.875 7.074 7.074 0 001.56-4.44 7.074 7.074 0 00-1.56-4.44.703.703 0 00-1.046-.06zM18.566 6.421c0-.953-.296-1.838-.8-2.568a.7.7 0 10-1.15.803c.345.503.546 1.11.546 1.765 0 .655-.201 1.263-.546 1.766a.701.701 0 101.15.803c.504-.731.8-1.616.8-2.569zM5.02 1.92a.702.702 0 01.05.937A5.677 5.677 0 003.815 6.42c0 1.348.47 2.588 1.253 3.565a.702.702 0 11-1.096.875 7.074 7.074 0 01-1.56-4.44c0-1.678.584-3.222 1.56-4.44a.703.703 0 011.046-.06zM5.435 6.421c0-.953.295-1.838.799-2.568a.7.7 0 111.15.803 3.113 3.113 0 00-.546 1.765c0 .655.202 1.263.546 1.766a.701.701 0 11-1.15.803 4.51 4.51 0 01-.8-2.569z"/>
  </g>
  <path d="M23.271 19.448v-2.1c0-.8-.625-1.47-1.423-1.527l-5.177-.364-.981-2.324a2.215 2.215 0 00-2.045-1.355H7.492c-.899 0-1.703.536-2.048 1.366l-.969 2.325-2.627.329a1.28 1.28 0 00-1.12 1.268v2.387a.337.337 0 00-.228.319v1.322c0 .186.15.336.337.336h2.13c.18 0 .326-.14.336-.317h.466a2.372 2.372 0 002.364 2.213 2.372 2.372 0 002.364-2.213h4.222a.337.337 0 100-.674H8.446a2.374 2.374 0 00-2.313-1.852 2.373 2.373 0 00-2.312 1.852h-.518v-.667a.337.337 0 00-.336-.337h-.352v-1.408a.915.915 0 00-.913-.913h-.3v-.048c0-.304.228-.562.53-.6l2.82-.353a.337.337 0 00.27-.205l1.044-2.505c.24-.578.8-.951 1.426-.951h6.153c.623 0 1.182.37 1.424.944l1.062 2.514c.05.116.16.196.287.205l5.383.379a.861.861 0 01.761.612h-2.21a.337.337 0 00-.336.337v.535c0 .553.45 1.003 1.002 1.003h1.58v.45h-1.866a.337.337 0 00-.337.336v.672h-.526a2.374 2.374 0 00-2.313-1.852 2.373 2.373 0 00-2.312 1.852h-.953a.337.337 0 100 .674h.901a2.372 2.372 0 002.365 2.213 2.372 2.372 0 002.364-2.213h.474c.01.177.157.317.337.317h2.431c.186 0 .337-.15.337-.336v-1.327a.337.337 0 00-.229-.319zm-17.138-.187c.935 0 1.696.76 1.696 1.695s-.76 1.696-1.696 1.696c-.935 0-1.695-.76-1.695-1.696 0-.933.76-1.695 1.695-1.695zM2.63 20.757H1.174v-.648H2.63v.648zm-1.228-1.322v-.487h.54v.487h-.54zm.3-1.647a.24.24 0 01.24.24v.246h-.54v-.486h.3zm18.988.19v-.198h.449v.527h-.12a.33.33 0 01-.33-.329zm1.903.329h-.78v-.527h.78v.527zm-5.037 4.345c-.934 0-1.695-.76-1.695-1.696 0-.935.76-1.695 1.695-1.695s1.696.76 1.696 1.695-.76 1.696-1.695 1.696zm5.27-1.895H21.07v-.653h1.757v.653z" fill="#000"/>
  <path d="M17.556 19.745c-.668 0-1.211.543-1.211 1.211s.543 1.212 1.211 1.212 1.211-.544 1.211-1.212c0-.668-.543-1.211-1.21-1.211zm0 1.749a.538.538 0 11.001-1.077.538.538 0 010 1.077zM6.133 22.168a1.213 1.213 0 000-2.423c-.668 0-1.211.543-1.211 1.211s.543 1.212 1.211 1.212zm0-1.75a.538.538 0 110 1.077.538.538 0 010-1.076zM10.537 16.565a.337.337 0 100 .673h1.194a.337.337 0 100-.673h-1.194zM7.722 12.901c-.584 0-1.106.348-1.33.887l-.775 1.86a.337.337 0 00.31.467h3.139c.186 0 .337-.15.337-.336v-2.541a.337.337 0 00-.337-.337H7.722zm1.007 2.54H6.433l.581-1.394a.765.765 0 01.708-.472H8.73v1.867zM15.503 15.965a.337.337 0 00.03-.318l-.79-1.866a1.438 1.438 0 00-1.326-.88h-3.229a.337.337 0 00-.336.337v2.54c0 .186.15.337.336.337h5.034a.337.337 0 00.28-.15zm-4.978-.523v-1.867h2.892c.309 0 .586.184.706.468l.59 1.399h-4.188zM8.998 10.235h6.005c.186 0 .336-.151.336-.337V6.895a.337.337 0 10-.673 0v2.666H9.335v-4.8h5.33v.562a.337.337 0 10.674 0v-.898a.337.337 0 00-.337-.337h-.373v-.785c0-1.45-1.18-2.628-2.629-2.628a2.631 2.631 0 00-2.628 2.628v.785h-.374a.337.337 0 00-.337.337v5.473c0 .186.15.337.337.337zm3.755-6.147h-1.505v-.785a.754.754 0 011.505 0v.785zm-2.707-.785c0-1.078.877-1.955 1.954-1.955 1.078 0 1.955.877 1.955 1.955v.785h-.528v-.785c0-.787-.64-1.427-1.427-1.427-.786 0-1.426.64-1.426 1.427v.785h-.528v-.785z" fill="#000"/>
  <path d="M11.404 9.1h1.191c.186 0 .337-.15.337-.336V7.42A1.298 1.298 0 0012 5.222a1.298 1.298 0 00-.933 2.198v1.344c0 .186.151.337.337.337zM12 5.897a.623.623 0 01.386 1.111.337.337 0 00-.128.264v1.156h-.517V7.27c0-.103-.047-.2-.128-.264A.623.623 0 0112 5.896zM19.848 6.42a5.304 5.304 0 01-1.18 3.354 1.038 1.038 0 101.622 1.296 7.46 7.46 0 001.635-4.65 7.46 7.46 0 00-1.635-4.65 1.04 1.04 0 00-1.545-.091l-.002.003c-.375.375-.407.97-.075 1.385a5.304 5.304 0 011.18 3.353zm-.63-4.26l.001-.002a.366.366 0 01.546.033 6.692 6.692 0 011.486 4.23 6.691 6.691 0 01-1.486 4.228.365.365 0 11-.57-.454A6.053 6.053 0 0020.52 6.42a6.054 6.054 0 00-1.328-3.775.365.365 0 01.024-.485z" fill="#000"/>
  <path d="M16.826 6.42c0 .565-.169 1.11-.488 1.575a1.038 1.038 0 101.706 1.185 4.84 4.84 0 00.86-2.76 4.84 4.84 0 00-.86-2.76 1.038 1.038 0 10-1.706 1.185c.32.466.488 1.01.488 1.575zm.068-1.956a.369.369 0 01.04-.469.364.364 0 01.556.048c.484.702.74 1.524.74 2.377 0 .854-.256 1.676-.74 2.377a.364.364 0 11-.596-.421A3.447 3.447 0 0017.5 6.42c0-.701-.21-1.378-.606-1.956zM2.935 9.118a.337.337 0 00.204-.43 6.733 6.733 0 01-.39-2.268c0-1.554.514-3.016 1.487-4.229a.366.366 0 01.545-.033l.002.002c.13.131.14.34.024.485A6.053 6.053 0 003.479 6.42c0 1.368.471 2.708 1.328 3.775a.365.365 0 11-.571.454 6.83 6.83 0 01-.377-.517.337.337 0 10-.562.37c.128.195.267.386.413.568a1.037 1.037 0 101.622-1.297 5.304 5.304 0 01-1.18-3.353c0-1.232.408-2.392 1.18-3.353A1.038 1.038 0 103.71 1.77a7.46 7.46 0 00-1.635 4.65c0 .855.145 1.694.43 2.493a.337.337 0 00.43.205z" fill="#000"/>
  <path d="M5.957 9.18a1.038 1.038 0 101.705-1.185 2.775 2.775 0 01-.487-1.575c0-.565.169-1.11.487-1.575A1.038 1.038 0 105.956 3.66a4.839 4.839 0 00-.858 2.76c0 .99.297 1.945.859 2.76zm.554-5.137a.364.364 0 11.595.421 3.446 3.446 0 00-.605 1.956c0 .702.21 1.378.605 1.956a.364.364 0 11-.595.421 4.169 4.169 0 01-.74-2.377c0-.853.256-1.675.74-2.377z" fill="#000"/>
</svg>
