<svg width="24" height="24" fill="none" xmlns="http://www.w3.org/2000/svg">
  <defs/>
  <path d="M22.399 4.375a.367.367 0 00-.367.367v10.496a.367.367 0 01-.367.367v.735c.203 0 .367.164.367.366v1.469a.367.367 0 00.734 0V4.742a.367.367 0 00-.367-.367z" fill="#FF6E1D"/>
  <path d="M9.136 18.523l4.235 1.043a1.994 1.994 0 001.517-.231c.458-.277.78-.716.909-1.236l.23-.935-.713-.175-.23.935c-.08.33-.286.607-.576.783a1.262 1.262 0 01-.961.147L9.312 17.81a1.262 1.262 0 01-.784-.576 1.26 1.26 0 01-.178-.77.367.367 0 01.443-.325l.175-.714-1.069-.263-.23.935a1.992 1.992 0 00.231 1.517c.277.458.716.78 1.236.908zM2.335 12.315a.367.367 0 01-.367-.368V9.501a.367.367 0 00-.734 0v3.915a.367.367 0 00.734 0 .367.367 0 01.368-.367v-.734z" fill="#F2EBD9"/>
  <path d="M21.665 15.605a.367.367 0 01-.367-.367V5.21L2.701 9.788v2.16a.367.367 0 01-.367.367v.734c.03 0 .059.003.087.01l12.71 3.13a490554.343 490554.343 0 006.165 1.517v-1c0-.202.165-.366.367-.366v-.735zm-6.138-6.959L4.38 11.391a.366.366 0 01-.444-.269.367.367 0 01.268-.444l11.148-2.744a.367.367 0 01.175.712zm4.268-1.05l-2.842.7a.368.368 0 11-.176-.713l2.842-.7a.367.367 0 01.176.713z" fill="#FFCC75"/>
  <path d="M15.352 7.934L4.205 10.678a.367.367 0 10.176.713l11.147-2.745a.367.367 0 00-.176-.712zM19.62 6.883l-2.843.7a.367.367 0 00.176.713l2.842-.7a.367.367 0 10-.176-.713z" fill="#fff"/>
  <path d="M22.399 3.64c-.504 0-.93.34-1.06.804L2.61 9.055A1.102 1.102 0 00.5 9.5v3.915a1.102 1.102 0 002.107.446l4.578 1.127-.23.934a2.72 2.72 0 00.316 2.072 2.72 2.72 0 001.688 1.242l4.235 1.043a2.765 2.765 0 00.659.08c.497 0 .984-.136 1.413-.396a2.721 2.721 0 001.242-1.688l.23-.935 4.6 1.132a1.102 1.102 0 002.16-.298V4.742c.001-.608-.493-1.102-1.1-1.102zm.367 14.534a.368.368 0 01-.734 0v-1.468a.367.367 0 10-.734 0v1l-4.74-1.167-1.425-.35-12.71-3.13a.367.367 0 00-.455.357.367.367 0 01-.734 0V9.5a.367.367 0 01.734 0v2.446a.367.367 0 00.734 0V9.788L21.298 5.21v10.028a.367.367 0 10.734 0V4.742a.367.367 0 01.734 0v13.432zM7.669 16.098l.23-.935 1.069.263 5.633 1.387-.23.935a.533.533 0 01-.65.393l-4.234-1.043a.533.533 0 01-.406-.567.367.367 0 00-.732-.066c-.024.27.038.536.179.77.176.29.454.495.783.576l4.235 1.043a1.263 1.263 0 00.961-.146c.291-.177.496-.455.577-.784l.23-.935.713.175-.23.935c-.129.52-.451.96-.91 1.236a1.995 1.995 0 01-1.516.231l-4.235-1.043a1.992 1.992 0 01-1.236-.909 1.992 1.992 0 01-.231-1.516z" fill="#082947"/>
</svg>
