<svg width="24" height="24" fill="none" xmlns="http://www.w3.org/2000/svg">
  <defs/>
  <path d="M19.42 8.3l-.046.045v14.738H4.638V8.345L4.592 8.3 12.006.886 19.42 8.3z" fill="#CFDCE5"/>
  <g fill="#FF6F52">
    <path d="M18.614 7.495V1.539h-3.426v2.53M9.838 19.587c-1.736-1.292-3.189-2.987-3.189-4.709 0-1.934 1.333-3.503 2.976-3.503 1.315 0 2.38 1.255 2.38 2.803 0-1.548 1.067-2.803 2.381-2.803.96 0 1.815.535 2.358 1.367.389.592.618 1.332.618 2.136 0 2.419-2.867 4.784-5.356 6.056a15.27 15.27 0 01-2.168-1.347z"/>
  </g>
  <path d="M22.705 11.039l-7.12-7.121V1.956h2.622v3.999a.402.402 0 00.803 0v-4.4a.401.401 0 00-.401-.402h-3.426a.402.402 0 00-.402.402v1.56L12.284.618a.401.401 0 00-.568 0L8.624 3.71a.402.402 0 10.568.568L12 1.469l6.967 6.968v14.26H5.033V8.437L8.268 5.2a.402.402 0 10-.567-.568L1.295 11.04a.402.402 0 00.568.568L4.23 9.24v13.858c0 .222.18.402.402.402h14.737c.222 0 .402-.18.402-.402V9.24l2.366 2.367a.4.4 0 00.568 0 .402.402 0 000-.568z" fill="#000"/>
  <path d="M9.62 11.792c1.09 0 1.979 1.077 1.979 2.401a.402.402 0 00.803 0c0-1.324.887-2.401 1.978-2.401.427 0 .85.128 1.223.372a.402.402 0 00.439-.672 3.035 3.035 0 00-1.662-.504c-1.008 0-1.892.621-2.38 1.548-.488-.927-1.373-1.547-2.38-1.547-1.863 0-3.378 1.751-3.378 3.905 0 2.208 2.1 4.1 3.35 5.03.687.513 1.457.991 2.226 1.383a.4.4 0 00.365 0c2.572-1.314 5.575-3.783 5.575-6.413 0-.86-.236-1.676-.683-2.357a.402.402 0 00-.672.44c.36.55.552 1.213.552 1.917 0 2.072-2.46 4.283-4.955 5.603a14.935 14.935 0 01-1.928-1.217c-2.634-1.96-3.027-3.59-3.027-4.386 0-1.71 1.155-3.102 2.575-3.102z" fill="#000"/>
</svg>
