<svg width="24" height="24" fill="none" xmlns="http://www.w3.org/2000/svg">
  <defs/>
  <path d="M17.063 15.569h-.014c-1.287-.018-2.366-.489-3.238-1.12l-.247 3.884a3.051 3.051 0 003.04 3.303h5.686a.872.872 0 00.864-.988c-.691-5.166-1.344-10.159-4.502-12.252a2.31 2.31 0 00-1.275-.382c-1.205 0-3.109.924-3.208 2.124l-.146 1.763c.712.816 1.747 1.625 3.053 1.642l-.027 2.026" fill="#CF4842"/>
  <path d="M23.155 20.648c-.692-5.166-1.345-10.16-4.503-12.252a2.308 2.308 0 00-1.275-.382c-.322 0-.692.065-1.066.185.128.054.251.12.368.197 3.158 2.093 3.81 7.086 4.503 12.252a.873.873 0 01-.865.988h1.973a.872.872 0 00.865-.988z" fill="#A83A36"/>
  <path d="M6.937 15.569h.014c1.288-.018 2.367-.489 3.238-1.12l.247 3.884a3.051 3.051 0 01-3.04 3.303H1.71a.873.873 0 01-.864-.988c.692-5.166 1.345-10.159 4.502-12.252a2.31 2.31 0 011.276-.382c1.204 0 3.108.924 3.208 2.124l.146 1.763c-.713.816-1.747 1.625-3.054 1.642l.027 2.026" fill="#CF4842"/>
  <g fill="#A83A36">
    <path d="M.846 20.648c.692-5.166 1.345-10.16 4.502-12.252.378-.25.822-.382 1.276-.382a3.6 3.6 0 011.065.185 2.29 2.29 0 00-.368.197c-3.157 2.093-3.81 7.086-4.502 12.252a.872.872 0 00.864.988H1.71a.873.873 0 01-.864-.988z"/>
    <path d="M7.79 14.556c0-1.094-.388-1.981-.867-1.981-.478 0-.866.887-.866 1.98 0 1.095.388 1.981.866 1.981.479 0 .867-.887.867-1.98zM17.943 14.556c0-1.094-.388-1.981-.866-1.981-.48 0-.867.887-.867 1.98 0 1.095.388 1.981.867 1.981.478 0 .866-.887.866-1.98z"/>
  </g>
  <path d="M17.077 13.543c-1.922-.026-3.255-1.763-3.842-2.715a1.66 1.66 0 01-.246-.871V2.365h-2.026v7.593c0 .308-.084.609-.245.87-.19.308-.456.697-.797 1.085-.938 1.067-1.962 1.616-3.045 1.63l.013 2.026h.014c1.884-.026 3.32-1.022 4.315-2.072a1.047 1.047 0 011.517 0c.994 1.05 2.43 2.046 4.314 2.072h.014l.014-2.026z" fill="#E0726E"/>
  <path d="M17.81 21.298h-1.205c-.768 0-1.477-.311-1.997-.876-.497-.54-.76-1.222-.707-2.068l.21-3.302c.122.073.248.13.372.193.275.142.563.29 1.032.428.032.667.329 1.652 1.328 1.883.442.102.581-.559.152-.658-.57-.131-.737-.684-.786-1.07.471.078.85.078.854.078a.338.338 0 100-.675h-.01c-1.528-.02-2.976-.807-4.073-1.966a1.385 1.385 0 00-2.008 0c-1.984 2.096-4.016 1.951-4.083 1.966a.338.338 0 000 .676c.011-.001.352.004.83-.072-.05.385-.22.932-.785 1.063-.43.099-.291.76.151.658.996-.23 1.294-1.209 1.327-1.876.279-.081.553-.186.823-.311.004-.002.574-.298.651-.345.248 3.883.207 3.266.213 3.336a2.711 2.711 0 01-2.704 2.938H6.322a.338.338 0 000 .675h1.073a3.39 3.39 0 003.377-3.665l-.239-3.745c.318-.248.63-.517.93-.834a.7.7 0 01.513-.22c.49 0 .447.295 1.487 1.094l-.236 3.705c-.077.94.246 1.877.885 2.571a3.397 3.397 0 002.493 1.094h1.205a.337.337 0 100-.675z" fill="#000"/>
  <path d="M23.478 20.52c-.705-5.266-1.371-10.239-4.64-12.405a2.638 2.638 0 00-1.461-.439c-1.346 0-3.428 1.022-3.545 2.434l-.074.9c-.247-.357-.431-.62-.431-1.053V2.365a.338.338 0 00-.676 0v7.592c0 .371.103.733.297 1.048.236.384.59.855.82 1.118.52.594 1.007.965 1.503 1.244.024.013.046.034.07.046.014.01.088.046.115.052.478.24 1.092.416 1.62.416.05 0 .086-.033.13-.053.035-.016.079-.016.107-.044a.338.338 0 00-.232-.578c-.162-.003-.32-.037-.48-.066.31-.216.623-.565.777-1.137a.338.338 0 00-.651-.176c-.224.826-.89.96-1.073.981a4.882 4.882 0 01-1.283-1.026l.134-1.616c.081-.984 1.822-1.815 2.872-1.815.39 0 .766.113 1.088.327 3.013 1.997 3.66 6.822 4.344 11.931l.01.083a.527.527 0 01-.127.423.528.528 0 01-.402.183h-2.994a.338.338 0 100 .675h2.994a1.21 1.21 0 001.2-1.37l-.012-.083zM5.535 8.678a1.964 1.964 0 011.088-.327c1.05 0 2.79.831 2.872 1.815l.13 1.566c-.117.13-.238.236-.357.35-.29.275-.164.21-.695.554-.088.057-.175.13-.265.178a1.276 1.276 0 01-1.106-.987.338.338 0 00-.652.176c.155.573.469.922.778 1.138-.151.027-.303.063-.457.065a.338.338 0 00-.231.578c.02.02.055.019.081.033.053.03.095.065.16.064.493-.007 1.295-.229 1.714-.45 1.022-.542 1.865-1.54 2.41-2.426.194-.314.296-.676.296-1.047V2.365a.338.338 0 00-.675 0v7.593c0 .544-.305.831-.391.96l-.067-.808c-.117-1.412-2.199-2.434-3.545-2.434-.523 0-1.029.152-1.462.439-3.47 2.3-4.047 7.986-4.65 12.488a1.21 1.21 0 001.2 1.37h2.675a.338.338 0 100-.675H1.71a.528.528 0 01-.402-.183c-.196-.224-.115-.468-.117-.506.684-5.109 1.33-9.935 4.344-11.931z" fill="#000"/>
</svg>
