<svg width="24" height="24" fill="none" xmlns="http://www.w3.org/2000/svg">
  <defs/>
  <path d="M17.328 9.352H6.921L5.211 21.149a.543.543 0 00-.01.1c0 1.057 3.1 1.914 6.924 1.914 3.824 0 6.924-.857 6.924-1.914a.544.544 0 00-.01-.1L17.327 9.352z" fill="#345863"/>
  <path d="M19.04 21.149L17.328 9.352H15.1l1.712 11.797c.006.033.01.066.01.1 0 .952-2.516 1.742-5.81 1.89.362.015.734.024 1.114.024 3.824 0 6.923-.857 6.923-1.914a.552.552 0 00-.009-.1z" fill="#1E4751"/>
  <path d="M7.422 9.352c-.176.033-.348.069-.515.105l-.505 3.48c1.495.39 3.508.628 5.723.628s4.229-.238 5.723-.628l-.505-3.48a16.664 16.664 0 00-.515-.105H7.422z" fill="#F43B45"/>
  <path d="M17.327 9.352H15.1l.58 3.994c.8-.104 1.531-.243 2.168-.409l-.52-3.585z" fill="#D82B2B"/>
  <path d="M12.125 11.66c4.61 0 8.347-1.034 8.347-2.308 0-1.274-3.737-2.307-8.347-2.307-4.61 0-8.347 1.033-8.347 2.307s3.737 2.307 8.347 2.307z" fill="#345863"/>
  <path d="M12.125 10.395c-1.815 0-3.58-.172-4.971-.483a11.972 11.972 0 01-.691-.175c-.387-.11-.387-.66 0-.77.205-.06.434-.118.69-.175 1.391-.311 3.157-.483 4.972-.483 1.816 0 3.581.172 4.971.483.257.057.486.116.692.175.386.11.386.66 0 .77-.206.059-.435.118-.692.175-1.39.311-3.155.483-4.971.483z" fill="#353944"/>
  <g>
    <path d="M7.863 10.053c1.02.18 2.188.292 3.403.328-.234-2.04-.398-3.673-.538-4.407C10.15 2.947 8.846.652 7.815.849c-1.032.197-1.4 2.81-.822 5.837.117.615.451 1.824.87 3.367zM16.411 10.048c.419-1.54.752-2.747.87-3.362.577-3.027.209-5.64-.822-5.837-1.032-.197-2.336 2.097-2.913 5.124-.14.734-.305 2.367-.54 4.407a24.075 24.075 0 003.405-.332z" fill="#F9EEC2"/>
    <path d="M15.333 10.208c.225-.92.395-1.635.474-2.05.214-1.121.296-2.238.23-3.145a6.608 6.608 0 00-.052-.49.237.237 0 00-.44-.083c-.072.126-.149.27-.228.435-.395.82-.73 1.888-.944 3.01-.09.467-.212 1.33-.364 2.447.454-.03.898-.072 1.324-.124zM8.941 10.211c.426.051.87.092 1.324.122-.153-1.117-.275-1.981-.365-2.449-.213-1.12-.549-2.19-.943-3.009a6.601 6.601 0 00-.23-.435.237.237 0 00-.439.084 6.64 6.64 0 00-.052.489c-.066.907.016 2.024.23 3.145.08.415.25 1.132.475 2.053z" fill="#CC966A"/>
  </g>
  <g fill="#000">
    <path d="M3.115 5.85a.337.337 0 00-.476 0l-.27.27-.268-.27a.337.337 0 10-.477.477l.27.27-.27.268a.337.337 0 10.477.477l.269-.27.269.27a.336.336 0 00.476 0 .337.337 0 000-.477l-.269-.269.27-.27a.337.337 0 000-.476zM22.106 13.764l.27-.27a.337.337 0 00-.477-.476l-.27.27-.269-.27a.337.337 0 00-.476.476l.269.27-.27.269a.337.337 0 00.477.476l.27-.269.269.27a.336.336 0 00.476 0 .337.337 0 000-.477l-.27-.27zM11.552 2.704a.336.336 0 00.476 0l.27-.27.269.27a.336.336 0 00.476 0 .337.337 0 000-.477l-.269-.27.27-.268a.337.337 0 10-.477-.477l-.27.27-.269-.27a.337.337 0 00-.476.477l.27.269-.27.27a.337.337 0 000 .476z"/>
    <path d="M6.37 8.643a.731.731 0 00-.534.71c0 .331.214.616.534.708.221.064.46.124.71.18.22.05.463.098.72.143l.011.002c1.289.226 2.78.346 4.314.346 1.126 0 2.229-.065 3.245-.188l.006-.001c.377-.046.743-.1 1.093-.163h.001c.251-.044.487-.091.7-.139.25-.056.49-.116.71-.18a.731.731 0 00.534-.709.731.731 0 00-.533-.709 12.413 12.413 0 00-.692-.176c.2-.747.35-1.34.422-1.718.286-1.5.356-2.952.195-4.09-.226-1.61-.823-2.053-1.284-2.141-.461-.088-1.18.104-1.983 1.518-.568 1-1.038 2.375-1.324 3.875-.04.206-.08.48-.124.812-.631-.02-1.276-.02-1.909 0a15.273 15.273 0 00-.124-.812c-.286-1.5-.756-2.876-1.324-3.875C8.93.622 8.212.43 7.75.518c-.46.088-1.058.53-1.284 2.141-.16 1.138-.091 2.59.195 4.09.072.378.222.969.421 1.713l-.003.001c-.25.056-.489.117-.71.18zm9.107-.548c-.077.4-.24 1.09-.415 1.806-.218.024-.438.046-.663.065.131-.95.23-1.625.305-2.018.209-1.093.534-2.132.916-2.926l.069-.139.013.154c.063.879-.017 1.965-.226 3.058zm2.218 1.196c.013.004.045.013.045.061s-.032.057-.045.061a11.734 11.734 0 01-.817.202l.135-.497.01.003c.237.053.463.11.672.17zM13.5 9.006a169.028 169.028 0 01.22-1.897c.056-.455.107-.82.155-1.072.61-3.19 1.877-4.98 2.52-4.857.259.05.59.489.743 1.573.15 1.067.083 2.441-.19 3.87-.103.543-.386 1.584-.745 2.903l-.062.227c-.12.02-.241.038-.365.056.154-.633.292-1.223.361-1.588.22-1.149.303-2.297.236-3.232a7.042 7.042 0 00-.055-.514.567.567 0 00-.46-.48.568.568 0 00-.605.277 7.04 7.04 0 00-.24.457c-.408.846-.753 1.944-.972 3.093a51.981 51.981 0 00-.33 2.192l-.326.016.115-1.024zm-.67-.075c-.04.355-.081.73-.126 1.121a28.652 28.652 0 01-1.137 0l-.127-1.12-.03-.276a28.037 28.037 0 011.452 0l-.031.275zm.176-1.536l-.069.59a28.752 28.752 0 00-1.604-.001l-.068-.59a30.283 30.283 0 011.74 0zM9.212 9.904c-.175-.718-.34-1.41-.416-1.809-.208-1.093-.288-2.179-.225-3.058l.013-.154c.023.045.046.091.068.139.383.793.708 1.833.917 2.926.075.394.174 1.07.305 2.02-.224-.02-.445-.04-.662-.064zm-2.078-7.15c.152-1.085.484-1.525.743-1.574.641-.123 1.91 1.666 2.52 4.857.047.251.099.616.155 1.07l.002.012c.045.363.093.784.146 1.248v.004l.072.637.115 1.023-.327-.016a52.047 52.047 0 00-.33-2.193c-.219-1.15-.563-2.248-.97-3.093a7.01 7.01 0 00-.241-.457.568.568 0 00-.605-.277.567.567 0 00-.46.48 7.02 7.02 0 00-.055.514c-.067.936.016 2.084.235 3.232.07.366.209.957.362 1.592a19.291 19.291 0 01-.365-.056l-.063-.232c-.358-1.318-.641-2.36-.745-2.902-.272-1.429-.34-2.803-.19-3.87zm.093 6.367l.031-.007.138.506a12.662 12.662 0 01-.84-.207c-.014-.004-.046-.013-.046-.06 0-.049.032-.058.045-.062.21-.06.435-.117.672-.17z"/>
    <path d="M20.809 9.352c0-.745-.786-1.368-2.336-1.851a.337.337 0 10-.2.643c1.373.428 1.862.905 1.862 1.208 0 .516-1.184 1.027-2.198 1.307a13.206 13.206 0 01-.446.115c-1.488.355-3.371.548-5.366.548-1.995 0-3.878-.193-5.366-.548a13.158 13.158 0 01-.447-.115c-1.621-.449-2.197-.984-2.197-1.307 0-.306.496-.786 1.888-1.216a.337.337 0 10-.2-.644c-1.567.485-2.362 1.11-2.362 1.86 0 .793.931 1.47 2.692 1.956l.16.043-.223 1.533a.277.277 0 00-.002.011l-1.19 8.2a.885.885 0 00-.014.154c0 1.478 3.653 2.251 7.261 2.251s7.26-.773 7.26-2.25a.887.887 0 00-.013-.155l-1.191-8.209-.223-1.535.159-.043c1.76-.487 2.692-1.163 2.692-1.956zM6.95 11.507c1.479.317 3.281.49 5.175.49 1.894 0 3.696-.173 5.175-.49l.17 1.177c-1.485.352-3.368.545-5.345.545-1.976 0-3.86-.193-5.346-.545l.171-1.177zm11.756 9.69l.002.014a.204.204 0 01.004.038c0 .267-.55.689-1.78 1.029-1.28.353-2.987.548-4.807.548-1.82 0-3.527-.195-4.806-.548-1.23-.34-1.78-.762-1.78-1.029a.204.204 0 01.005-.051l1.138-7.845c1.528.355 3.442.55 5.443.55 2.001 0 3.916-.195 5.443-.55l1.138 7.845z"/>
  </g>
</svg>
