<svg width="24" height="24" fill="none" xmlns="http://www.w3.org/2000/svg">
  <defs/>
  <path d="M12.833 15.34a6.694 6.694 0 100-13.388 6.694 6.694 0 000 13.389z" fill="#F8FEFF"/>
  <path d="M20.193 11.98c1.045-2.273.93-4.948-.259-7.142a7.811 7.811 0 00-1.703-2.144 7.948 7.948 0 00-2.921-1.628 8.014 8.014 0 00-3.72-.243c-2.39.42-4.546 1.991-5.668 4.144a8.025 8.025 0 00-.903 3.975 8.012 8.012 0 003.098 6.017 7.845 7.845 0 002.285 1.219 8.062 8.062 0 004.5.19 7.804 7.804 0 001.15-.38 8.039 8.039 0 004.14-4.008zm-4.924 2.15a5.813 5.813 0 01-.858.284 6.017 6.017 0 01-3.358-.142 5.853 5.853 0 01-1.706-.91 5.98 5.98 0 01-2.313-4.491 5.99 5.99 0 01.674-2.967 6.014 6.014 0 014.23-3.093 5.98 5.98 0 012.778.18c.803.247 1.55.66 2.18 1.216.516.454.944.996 1.271 1.6.888 1.638.973 3.635.193 5.331a6 6 0 01-3.09 2.991z" fill="#D3E8F1"/>
  <path d="M18.63 14.334c1.204-1.21 1.94-2.8 2.19-4.461-3.838 9.214-13.699 5.755-15.68.186a7.926 7.926 0 001.127 2.901 7.84 7.84 0 001.724 1.933 8.062 8.062 0 004.157 1.732c.402.044.807.058 1.21.04a8.04 8.04 0 005.271-2.331z" fill="#BED8E4"/>
  <path d="M4.914 22.866l-1.131-.7a.77.77 0 01-.249-1.056l2.319-3.749a.77.77 0 011.056-.249l1.132.7a.77.77 0 01.249 1.056l-2.32 3.75a.77.77 0 01-1.056.248z" fill="#8D93A4"/>
  <path d="M4.966 22.895a.77.77 0 001.004-.278l2.32-3.748a.77.77 0 00-.25-1.056l-3.074 5.082z" fill="#707682"/>
  <path d="M17.109 1.667A8.105 8.105 0 0012.72.502 8.147 8.147 0 008.5 1.803a.378.378 0 10.411.636 7.39 7.39 0 013.828-1.18 7.347 7.347 0 013.98 1.056 7.32 7.32 0 013.349 4.537 7.321 7.321 0 01-.84 5.577 7.32 7.32 0 01-4.538 3.35 7.321 7.321 0 01-5.577-.84c-3.48-2.097-4.606-6.635-2.51-10.115a.378.378 0 10-.647-.39C3.73 8.125 4.796 12.895 8.297 15.31l-.007.011-.924 1.515-.26-.156a1.171 1.171 0 00-.604-.168c-.412 0-.799.217-1.01.568l-2.364 3.924a1.167 1.167 0 00-.133.89c.076.305.265.562.534.723l1.184.714a1.183 1.183 0 001.614-.4l2.364-3.924c.161-.268.209-.584.133-.89a1.167 1.167 0 00-.533-.724l-.277-.166.922-1.511.002-.005a8.064 8.064 0 005.934.801 8.072 8.072 0 005.004-3.693c2.312-3.838 1.07-8.841-2.767-11.153zm-9.066 16.95l-2.364 3.924a.423.423 0 01-.575.143l-1.185-.714a.415.415 0 01-.19-.258.416.416 0 01.047-.317l2.364-3.924a.423.423 0 01.575-.142l1.185.713a.416.416 0 01.19.259c.026.109.01.221-.047.317z" fill="#000"/>
  <path d="M9.792 13.812a6.058 6.058 0 002.915.866.378.378 0 00.014-.757 5.302 5.302 0 01-2.539-.757 5.263 5.263 0 01-2.408-3.262 5.262 5.262 0 01.604-4.009 5.303 5.303 0 017.27-1.803 5.303 5.303 0 01.063 9.037.378.378 0 00.399.643 5.987 5.987 0 001.99-2.02 6.06 6.06 0 00-2.06-8.309 6.06 6.06 0 00-8.31 2.062 6.06 6.06 0 002.062 8.309z" fill="#000"/>
</svg>
