<svg width="24" height="24" fill="none" xmlns="http://www.w3.org/2000/svg">
  <defs/>
  <path d="M12.117 13.905H22.3V7.832a3.771 3.771 0 00-3.77-3.772H8.345" fill="#FCD577"/>
  <path d="M11.68 4.06h-1.322a3.771 3.771 0 013.772 3.772v3.032c0 .73.591 1.321 1.321 1.321V7.832a3.771 3.771 0 00-3.77-3.772z" fill="#EAC36E"/>
  <path d="M8.346 4.06a3.771 3.771 0 00-3.772 3.772v6.074h7.543V7.832A3.771 3.771 0 008.346 4.06z" fill="#415E72"/>
  <path d="M12.117 13.905H3.463V7.272h8.613l.041 6.633z" fill="#CFDCE5"/>
  <path d="M10.65 13.905V7.832c0-.19-.015-.377-.042-.56h1.467l.042 6.633H10.65z" fill="#BAC6CC"/>
  <path d="M16.087.885H14.79V11.51a.648.648 0 101.297 0V.885z" fill="#415E72"/>
  <path d="M16.087 5.37V1.6l3.771 1.885-3.771 1.885z" fill="#FF6F52"/>
  <path d="M13.017 23.116v-9.21h2.064v9.21" fill="#FCD577"/>
  <path d="M13.017 16.959v-3.053h2.064v1.73" fill="#EAC36E"/>
  <path d="M20.858 4.386a.385.385 0 10-.43.637 3.386 3.386 0 011.493 2.809v5.69h-9.414v-5.69a4.153 4.153 0 00-1.752-3.387h2.876a.385.385 0 100-.77H8.35c-1.56 0-2.976.863-3.693 2.25a.385.385 0 10.683.353 3.378 3.378 0 013.01-1.833 3.392 3.392 0 013.252 2.443H3.469a.385.385 0 00-.385.384v6.249H1.695a.385.385 0 000 .769h10.943v8.825a.385.385 0 00.769 0V14.29h1.295v8.826a.385.385 0 00.769 0V14.29h6.835a.385.385 0 00.384-.384V7.832c0-1.383-.684-2.671-1.832-3.446zm-9.12 3.436l-3.466 2.686-1.759-1.363a.384.384 0 10-.47.608l1.993 1.545a.384.384 0 00.471 0l3.23-2.503v3.587l-1.66-1.286a.385.385 0 00-.47.608l2.13 1.651v.166H4.594l2.387-1.85a.384.384 0 10-.471-.608l-2.656 2.058V8.057l1.184.917a.383.383 0 00.54-.069c.13-.168.099-.41-.07-.54l-.914-.708h7.14c.003.055.005.11.005.165z" fill="#000"/>
  <path d="M15.444 12.543c.57 0 1.033-.463 1.033-1.033V5.608l3.559-1.78a.385.385 0 000-.687l-3.559-1.78V.885A.385.385 0 0016.093.5h-1.297a.385.385 0 00-.385.385V11.51c0 .57.463 1.033 1.033 1.033zm3.56-9.058l-2.527 1.263V2.221l2.527 1.264zM15.18 1.269h.528V11.51a.264.264 0 01-.528 0V1.27z" fill="#000"/>
</svg>
