<svg width="24" height="24" fill="none" xmlns="http://www.w3.org/2000/svg">
  <defs/>
  <path d="M2.061 10.96l-1.04 8h18.911v-8H2.062z" fill="#FF9356"/>
  <path d="M19.932 5.04H1.021L2.06 12h17.871V5.04z" fill="#FFCE47"/>
  <path d="M22.089 6.31l-2.157-1.27-1.04 6.96 1.04 6.96 2.157-1.27c.49-.288.89-.988.89-1.557V7.867c0-.569-.4-1.27-.89-1.558z" fill="#FF755C"/>
  <path d="M16.885 6.833v10.334l3.047 1.792V5.041l-3.047 1.792z" fill="#FF4181"/>
  <path d="M3.177 6.31L1.021 5.04v13.92l2.156-1.27c.49-.288.89-.988.89-1.557V7.867c0-.569-.4-1.27-.89-1.558z" fill="#FF755C"/>
  <path d="M22.353 5.86l-2.151-1.265h-.003l-.003-.003-.005-.002a.518.518 0 00-.117-.05l-.008-.002-.014-.003a.528.528 0 00-.046-.01h-.01a.363.363 0 00-.05-.004H1.006a.518.518 0 00-.427.245l-.007.01-.004.007a.55.55 0 00-.015.03l-.008.017-.012.028-.007.02-.007.026-.007.025-.004.023a.56.56 0 00-.004.029l-.002.02-.002.032V18.967l.002.032c0 .007 0 .013.002.02 0 .01.002.02.004.03l.004.021.007.026.007.025.008.02.01.029.01.018.014.029.004.006.005.008a.517.517 0 00.029.042l.009.012a.51.51 0 00.04.044l.013.013a.499.499 0 00.089.065l.012.008c.017.01.036.018.054.026l.01.004a.518.518 0 00.11.028l.017.003a.533.533 0 00.055.003H19.938a.533.533 0 00.055-.003l.007-.001.012-.002a.473.473 0 00.043-.009l.012-.002.008-.003a.518.518 0 00.044-.014l.01-.004a.503.503 0 00.055-.026l.008-.005.004-.002 2.157-1.269c.654-.385 1.147-1.247 1.147-2.006V7.867c0-.76-.493-1.622-1.147-2.006zM1.54 5.95l1.372.808c.332.195.634.723.634 1.109v8.266c0 .385-.302.914-.634 1.11l-1.372.806V5.95zm15.08.435a.52.52 0 00-.257.448v4.646H4.588V7.867c0-.76-.493-1.622-1.147-2.006l-.51-.3h15.09l-1.4.824zM3.441 18.139c.654-.385 1.147-1.247 1.147-2.006V12.52h11.776v4.647a.52.52 0 00.257.448l1.4.824H2.931l.51-.3zm13.964-1.27V7.13l2.007-1.18v12.098l-2.007-1.18zm5.054-.736c0 .385-.302.914-.634 1.11l-1.372.806V5.95l1.372.808c.332.195.634.724.634 1.109v8.266z" fill="#01121C"/>
</svg>
