<svg width="24" height="24" fill="none" xmlns="http://www.w3.org/2000/svg">
  <defs/>
  <path d="M3.524 8.326V6.022c0-.206.167-.373.373-.373h8.164c.206 0 .373.167.373.373v4.088H3.696s-.28-1.784-.172-1.784z" fill="#FFEFCA"/>
  <path d="M21.543 8.326V3.672a.373.373 0 00-.373-.373H9.446a.373.373 0 00-.373.373V10.875h12.481l-.011-2.549z" fill="#6BE8C7"/>
  <path d="M23.019 8.457H1.09v12.195h21.928V8.457z" fill="#D3E8F1"/>
  <g fill="#BED8E4">
    <path d="M14.299 14.26l8.719 6.391H1.09c0-.146 8.654-6.097 8.654-6.097l1.52-.95 3.035.656z"/>
    <path d="M21.964 8.456h1.053v12.195h-1"/>
  </g>
  <path d="M11.994 16.62l.019.011 3.069-1.825-1.576-1.134-1.325-.07-.187 3.018z" fill="#B1C6D3"/>
  <path d="M15.081 14.806l7.59-5.065V8.617l-9.005 4.978.38.484 1.035.727z" fill="#BED8E4"/>
  <path d="M10.543 13.899c.906.838 1.55 1.45 1.55 1.494 0 .207-.081 1.238-.081 1.238l-2.758-1.743" fill="#B1C6D3"/>
  <path d="M9.255 14.888L1.083 9.723V8.457l3.699.195s3.615 3.26 5.761 5.247" fill="#BED8E4"/>
  <path d="M1.09 8.457l10.965 7.126 10.957-7.121L1.09 8.457z" fill="#EBF9FE"/>
  <path d="M23.092 7.955h-1.087V3.3a.408.408 0 00-.408-.408H9.127a.408.408 0 00-.408.408v4.656H3.986V6.057H7.43a.408.408 0 100-.816H3.578a.408.408 0 00-.408.408v2.306H.905l-.023.001-.018.002-.016.002-.025.004a.406.406 0 00-.195.103l-.009.008-.013.014-.014.016-.008.011a.395.395 0 00-.017.023l-.001.002-.005.008a.396.396 0 00-.014.025l-.007.013-.01.023-.006.017-.007.02-.005.02-.004.019-.004.023-.002.016-.001.027-.001.011v12.338c0 .225.183.408.408.408h22.189l.04-.003.011-.001a.348.348 0 00.033-.006l.013-.003a.508.508 0 00.07-.026l.015-.007a.498.498 0 00.026-.014l.012-.008a.404.404 0 00.035-.026l.009-.008a.374.374 0 00.055-.059l.005-.006.004-.006a.45.45 0 00.032-.054l.008-.017.008-.019a.46.46 0 00.007-.018l.005-.019.005-.02.004-.018a.342.342 0 00.006-.063V8.363a.408.408 0 00-.408-.408zM1.316 9.115l7.97 5.18c-.524.362-2.389 1.647-4.234 2.93a341.45 341.45 0 00-3.013 2.117 77.93 77.93 0 00-.723.52V9.116zm20.642-.344l-9.955 6.317L2.285 8.77h19.673zM9.894 14.868a.407.407 0 00.107-.108l1.777 1.155a.407.407 0 00.44.002l1.961-1.244 7.666 5.62H2.112c1.661-1.195 5.236-3.674 7.782-5.425zm5.025-.664l7.765-4.927v10.619l-7.765-5.692zM9.536 3.707h11.653v4.248H9.536V3.707z" fill="#000"/>
</svg>
