<svg width="24" height="24" fill="none" xmlns="http://www.w3.org/2000/svg">
  <defs/>
  <path d="M19.954 7.208l2.778 1.563-.286.907L2.262 9.67l-.713-.93L5.82 6.26l12.042-.276 2.092 1.223z" fill="#60D8E8"/>
  <g fill="#6EE5F4">
    <path d="M22.727 8.757H1.514v1.382h21.213V8.757zM2.024 20.555h20.192a.51.51 0 00.511-.51v-9.181H1.514v9.18c0 .283.228.511.51.511z"/>
  </g>
  <path d="M15.737 17.456v-.93c0-.343-.052-.683-.153-1.012a.362.362 0 00-.692.214c.08.26.12.528.12.799v.93H9.504v-.93c0-1.51 1.241-2.74 2.766-2.74.288 0 .587.048.865.139a.362.362 0 00.224-.69 3.565 3.565 0 00-1.089-.174c-1.925 0-3.49 1.555-3.49 3.465v.93h-.074v3.097h7.247v-3.098h-.216z" fill="#60D8E8"/>
  <path d="M17.998.862H5.968v7.875h12.03V.862z" fill="#FFDFA1"/>
  <path d="M15.405 17.134H8.352v5.955h7.246v-5.955h-.193z" fill="#8D93A4"/>
  <path d="M8.015 17.183v5.955c0 .2.162.362.362.362h7.246c.2 0 .363-.162.363-.362v-5.955c0-.2-.162-.363-.363-.363h-.195a.356.356 0 00.002-.04v-.575c0-.347-.05-.689-.152-1.017a.362.362 0 10-.693.213c.08.26.12.53.12.804v.575c0 .014.002.027.003.04H9.196a.368.368 0 00.002-.04v-.575c0-1.513 1.24-2.743 2.766-2.743.295 0 .594.046.865.134a.362.362 0 00.224-.689 3.562 3.562 0 00-1.089-.17c-1.925 0-3.49 1.556-3.49 3.468v.575c0 .014 0 .027.002.04h-.099c-.2 0-.362.163-.362.363zm7.246 5.592H8.74v-5.23h6.522v5.23z" fill="#000"/>
  <path d="M1.394 20.747H6.94a.362.362 0 100-.724H1.756v-9.161h20.489v9.16h-5.16a.362.362 0 000 .725h5.522c.2 0 .363-.162.363-.362V8.587c0-.2-.163-.363-.363-.363h-.02l-2.409-1.333a.362.362 0 10-.35.634l1.264.7h-1.59a.362.362 0 100 .724h2.743v1.188H1.756V8.949h2.762a.362.362 0 100-.725H2.826l1.576-.875a.362.362 0 00-.352-.634L1.33 8.226l-.008.006a.362.362 0 00-.29.355v11.798c0 .2.162.362.362.362z" fill="#000"/>
  <path d="M18.047 8.906c.2 0 .362-.162.362-.362V.862c0-.2-.162-.362-.362-.362H6.017c-.2 0-.362.162-.362.362v7.682a.362.362 0 10.725 0v-7.32h11.305v7.32c0 .2.162.362.362.362z" fill="#000"/>
  <path d="M10.258 3.017a.362.362 0 00-.513 0L8.652 4.11l-.341-.341a.362.362 0 00-.512.512l.597.598a.362.362 0 00.512 0l1.35-1.35a.362.362 0 000-.512zM9.745 6L8.652 7.094l-.341-.34a.362.362 0 00-.512.512l.597.597a.361.361 0 00.512 0l1.35-1.349a.362.362 0 00-.513-.512zM16.009 3.586h-4.131a.362.362 0 100 .724h4.13a.362.362 0 100-.724zM16.009 6.569h-4.131a.362.362 0 100 .725h4.13a.362.362 0 100-.725zM11.538 21.123a.362.362 0 00.512 0l1.35-1.349a.362.362 0 10-.513-.512l-1.093 1.093-.341-.341a.362.362 0 10-.513.512l.598.598z" fill="#000"/>
</svg>
