<svg width="24" height="24" fill="none" xmlns="http://www.w3.org/2000/svg">
  <defs/>
  <path d="M23.07 4.932v11.25a.56.56 0 01-.56.56H1.388a.56.56 0 01-.559-.56V4.932c0-.31.25-.56.56-.56H22.51c.309 0 .56.25.56.56z" fill="#6EE5F4"/>
  <path d="M16.086 12.63a3.646 3.646 0 00-3.647-3.637 3.645 3.645 0 00-3.646 3.636v1.026H8.69v3.087h7.598v-3.087h-.203v-1.026zm-.76 1.025H9.552v-1.026a2.885 2.885 0 012.887-2.876 2.885 2.885 0 012.887 2.876v1.026z" fill="#60D8E8"/>
  <path d="M5.472 6.02H2.575v2.897h2.897V6.019z" fill="#fff"/>
  <path d="M15.545 13.384H8.151v6.244h7.597v-6.244h-.203z" fill="#8D93A4"/>
  <path d="M15.799 13.004h-.205a.389.389 0 00.002-.042v-.603a3.645 3.645 0 00-3.647-3.636 3.645 3.645 0 00-3.647 3.636v.603c0 .015.001.029.003.042H8.2a.38.38 0 00-.38.38v6.244c0 .21.17.38.38.38H15.8c.21 0 .38-.17.38-.38v-6.244a.38.38 0 00-.38-.38zm-6.598.76h6.218V18.6L9.2 13.764zm-.139-.802v-.603a2.885 2.885 0 012.887-2.876 2.885 2.885 0 012.887 2.876v.603c0 .015.001.029.003.042h-5.78a.394.394 0 00.003-.042zm-.48 1.283l6.431 5.003H8.582v-5.003z" fill="#000"/>
  <path d="M15.34 3.993H.88a.38.38 0 00-.38.38v12.369c0 .21.17.38.38.38h5.815a.38.38 0 000-.76H1.26V4.752h14.08a.38.38 0 100-.76zM23.5 16.742V4.372a.38.38 0 00-.38-.38h-3.61a.38.38 0 100 .76h3.23v11.61h-5.41a.38.38 0 100 .76h5.79c.21 0 .38-.17.38-.38z" fill="#000"/>
  <path d="M2.626 5.64a.38.38 0 00-.38.38v2.897c0 .21.17.38.38.38h2.897c.21 0 .38-.17.38-.38V6.019a.38.38 0 00-.38-.38H2.626zm2.517 2.897H3.006V6.399h2.137v2.138zM20.622 6.797H15.44a.38.38 0 100 .76h5.18a.38.38 0 100-.76zM20.621 9.217h-3.067a.38.38 0 100 .76h3.067a.38.38 0 100-.76z" fill="#000"/>
</svg>
