<svg width="24" height="24" fill="none" xmlns="http://www.w3.org/2000/svg">
  <defs/>
  <g clip-path="url(#clip0)">
    <path d="M14.26 15.655l3.401 2.494" stroke="#000" stroke-width="15" stroke-miterlimit="10" stroke-linecap="round" stroke-linejoin="round"/>
    <path d="M5.068 12.805h13.937V1.896H5.068v10.909z" fill="#FFEFCA"/>
    <path d="M23.048 9.724H1.038v12.24h22.01V9.725z" fill="#D3E8F1"/>
    <g fill="#BED8E4">
      <path d="M14.296 15.547l8.752 6.416H1.038c0-.147 8.686-6.12 8.686-6.12l1.526-.955 3.046.66z"/>
      <path d="M21.99 9.722h1.058v12.241h-1.003"/>
    </g>
    <path d="M11.981 17.918l.02.011 3.08-1.832-1.582-1.139-1.33-.07-.188 3.03z" fill="#B1C6D3"/>
    <path d="M15.08 16.098l7.62-5.085V9.884l-9.04 4.997.382.485 1.039.73z" fill="#BED8E4"/>
    <path d="M10.526 15.186c.91.842 1.556 1.456 1.556 1.5 0 .208-.081 1.243-.081 1.243l-2.769-1.75" fill="#B1C6D3"/>
    <path d="M9.232 16.18l-8.203-5.185V9.724l3.713.195s3.63 3.273 5.783 5.267" fill="#BED8E4"/>
    <path d="M1.037 9.724l11.005 7.153 10.999-7.148-22.004-.005z" fill="#EBF9FE"/>
    <path d="M.88 22.501H23.125l.036-.002.011-.002a.423.423 0 00.03-.005l.013-.003a.368.368 0 00.066-.024l.013-.006a.334.334 0 00.024-.014l.012-.007a.37.37 0 00.032-.024l.008-.007a.38.38 0 00.023-.022l.01-.01a.408.408 0 00.018-.023l.005-.006.004-.006a.448.448 0 00.012-.018l.009-.014a.328.328 0 00.01-.018l.007-.015.007-.018a.393.393 0 00.011-.035l.005-.019.003-.016.003-.021.002-.016v-.022l.001-.007V9.752a.38.38 0 00-.38-.38h-3.61a.38.38 0 100 .76h2.574l-10.082 6.396-9.84-6.396h13.177a.38.38 0 100-.76H5.36V2.26h13.282v5.053a.38.38 0 10.76 0V1.879a.38.38 0 00-.38-.38H4.98a.38.38 0 00-.38.38v7.493H.88.878l-.02.001c-.006 0-.012 0-.019.002l-.01.001a.378.378 0 00-.16.061l-.02.015-.01.007-.016.014-.011.011-.01.011-.016.017-.006.01a.376.376 0 00-.016.021l-.002.002-.004.008a.37.37 0 00-.013.023l-.006.012a.421.421 0 00-.01.021l-.006.016-.006.02-.005.018-.004.017a.326.326 0 00-.003.022l-.002.015A.379.379 0 00.5 9.74L.5 9.752v12.37c0 .209.17.38.38.38zm.38-12.049l8.072 5.247c-.47.324-2.386 1.644-4.28 2.962a344.046 344.046 0 00-3.021 2.122c-.308.219-.565.404-.771.555V10.452zM12 17.36a.38.38 0 00.204-.06l1.982-1.257 3.267 2.395a.379.379 0 00.532-.081.38.38 0 00-.082-.531l-3.028-2.22 7.865-4.99v10.756l-2.117-1.553a.38.38 0 00-.45.613l1.786 1.31H1.996c1.633-1.178 5.284-3.71 7.876-5.492a.377.377 0 00.115-.126l1.806 1.174a.379.379 0 00.207.062z" fill="#000"/>
    <path d="M16.43 3.756H7.57a.38.38 0 100 .76h8.86a.38.38 0 100-.76zM16.43 6.096H7.57a.38.38 0 100 .76h8.86a.38.38 0 100-.76z" fill="#000"/>
  </g>
  <defs>
    <clipPath id="clip0">
      <path fill="#fff" d="M0 0h24v24H0z"/>
    </clipPath>
  </defs>
</svg>
