<svg width="24" height="24" fill="none" xmlns="http://www.w3.org/2000/svg">
  <defs/>
  <path d="M22.208 21.895H1.791a.942.942 0 01-.942-.942v-7.467c0-.52.421-.943.942-.943h20.417c.52 0 .943.422.943.943v7.467c0 .52-.422.942-.943.942z" fill="#C0B9DF"/>
  <path d="M22.175 12.543h-2.384c.54 0 .976.437.976.976v7.4a.976.976 0 01-.976.976h2.384a.976.976 0 00.976-.976v-7.4a.976.976 0 00-.976-.976z" fill="#ABA2D5"/>
  <path d="M16.753 14.358h-8.64v-5.79c0-.273.222-.495.494-.495h7.652c.273 0 .494.222.494.495v5.79z" fill="#8479BF"/>
  <path d="M18.933 14.358h-13.1a.494.494 0 01-.494-.494v-2.596c0-.273.221-.494.494-.494h13.1c.273 0 .494.22.494.494v2.596a.494.494 0 01-.494.494z" fill="#8479BF"/>
  <path d="M16.241 8.073h-.958c.283 0 .512.23.512.512v5.773h.958V8.585a.512.512 0 00-.512-.512zM18.916 10.774h-.958c.283 0 .512.229.512.511v3.073h.446a.512.512 0 00.512-.511v-2.562a.512.512 0 00-.512-.511z" fill="#7060B4"/>
  <path d="M14.46 14.358h-4.055v-2.332c0-.355.288-.642.642-.642h2.772c.355 0 .642.287.642.642v2.332z" fill="#56449B"/>
  <path d="M13.797 11.384h-.987c.367 0 .664.298.664.665v2.31h.987v-2.31a.664.664 0 00-.664-.665z" fill="#473984"/>
  <path d="M12.217 6.023c0 1.733-2.512 4.896-3.513 5.972a.553.553 0 01-.81 0c-1-1.076-3.513-4.239-3.513-5.972a3.918 3.918 0 017.836 0z" fill="#FB9539"/>
  <path d="M8.558 2.114a3.919 3.919 0 012.51 3.657c0 1.7-2.42 4.779-3.456 5.909.104.118.2.224.284.315.218.234.59.234.808 0 1.001-1.076 3.514-4.239 3.514-5.972a3.918 3.918 0 00-3.66-3.909z" fill="#FC7601"/>
  <path d="M8.3 7.772a1.788 1.788 0 100-3.576 1.788 1.788 0 000 3.576z" fill="#E3E0E2"/>
  <path d="M9.149 4.41a1.788 1.788 0 01-2.49 2.282 1.788 1.788 0 102.49-2.281z" fill="#D5CFD5"/>
  <path d="M22.175 12.194h-2.398v-.909a.862.862 0 00-.861-.86h-1.814v-1.84a.862.862 0 00-.86-.86h-4.139c.283-.618.464-1.207.464-1.702a4.272 4.272 0 00-4.268-4.267 4.272 4.272 0 00-4.267 4.267c0 1.22 1.093 3.008 2.126 4.402H5.85a.862.862 0 00-.86.86v2.562c0 .474.385.86.86.86h6.206v2.087l-10.86 2.463v-5.738c.001-.345.282-.627.628-.627h1.89a.349.349 0 000-.698h-1.89c-.73 0-1.325.595-1.325 1.325v7.4c0 .73.594 1.325 1.325 1.325h15.11a.349.349 0 100-.698H8.188v-3.159l4.271-.968H22.802v3.5a.628.628 0 01-.627.627H18.51a.35.35 0 000 .698h3.665c.73 0 1.325-.595 1.325-1.325v-7.4c0-.73-.594-1.325-1.325-1.325zM7.489 21.546H1.825a.628.628 0 01-.627-.627v-.946l6.29-1.427v3zm.81-19.092a3.573 3.573 0 013.57 3.57c0 1.54-2.35 4.582-3.42 5.733a.202.202 0 01-.15.065.202.202 0 01-.149-.065C7.08 10.606 4.73 7.564 4.73 6.023A3.573 3.573 0 018.3 2.454zM5.69 13.847v-2.562c0-.09.072-.162.162-.162h.843c.377.473.714.86.946 1.11a.904.904 0 001.32 0c.602-.648 1.924-2.246 2.79-3.81h4.491c.09 0 .163.073.163.162v2.189c0 .193.156.349.349.349h2.163c.09 0 .163.073.163.163v2.56c0 .09-.073.163-.163.163H14.81v-1.96c0-.56-.455-1.014-1.014-1.014H11.07c-.559 0-1.014.455-1.014 1.014v1.96H5.851a.163.163 0 01-.163-.162zm8.423.162h-3.358v-1.96c0-.174.142-.316.316-.316h2.726c.174 0 .316.142.316.316v1.96zm-1.357 2.712v-2.014h6.16c.476 0 .862-.386.862-.86v-.955h2.398c.346 0 .627.282.627.627v3.202H12.755z" fill="#000"/>
  <path d="M10.436 5.984c0-.677-.326-1.32-.871-1.722a.349.349 0 10-.414.562A1.44 1.44 0 018.3 7.422a1.44 1.44 0 01-.372-2.828.349.349 0 00-.18-.675 2.139 2.139 0 00-1.585 2.065c0 1.178.959 2.137 2.137 2.137a2.139 2.139 0 002.136-2.137z" fill="#000"/>
</svg>
