<svg width="24" height="24" fill="none" xmlns="http://www.w3.org/2000/svg">
  <defs/>
  <path d="M17.837 16.094H6.163a2.244 2.244 0 00-2.245 2.245v4.824h16.164V18.34a2.244 2.244 0 00-2.245-2.245z" fill="#5D9CEC"/>
  <path d="M17.837 16.094H16.49a2.243 2.243 0 012.245 2.245v4.824h1.347V18.34a2.244 2.244 0 00-2.245-2.245z" fill="#4A89DC"/>
  <path d="M12.45 18.339l.449 4.824h-1.796l.449-4.824h.898z" fill="#F6BB42"/>
  <path d="M13.796 16.992l-1.347 1.347h-.898l-1.347-1.347 1.796-.45 1.796.45z" fill="#FFCE54"/>
  <path d="M12 15.196a5.364 5.364 0 01-3.143-1.011v1.909l1.347.898 1.796-.45 1.796.45 1.347-.898v-1.91A5.364 5.364 0 0112 15.196z" fill="#E6E9ED"/>
  <path d="M16.939 18.361h-1.347v.898h1.347v-.898z" fill="#FFCE54"/>
  <path d="M18.286 19.26v2.244h-4.04V19.26h4.04z" fill="#E6E9ED"/>
  <path d="M15.592 3.097s2.774.038 1.795 4.937l-.98-1.96s-3.074.98-4.9.98c-1.825 0-3.43-.98-3.43-.98L6.61 8.032l-.001.002C5.628.195 11.672.85 15.59.85v2.247z" fill="#965353"/>
  <path d="M15.592 3.096V.85c-.74 0-1.348-.011-1.348-.011v2.257c0 1.433 1.796.692 1.796 3.09l.367-.112.98 1.96c.98-4.9-1.795-4.938-1.795-4.938z" fill="#864B4C"/>
  <path d="M12 15.196a5.364 5.364 0 01-3.143-1.011 5.382 5.382 0 01-2.245-4.377V8.034l-.003-.002 1.469-1.958s1.604.98 3.43.98c1.825 0 4.899-.98 4.899-.98l.98 1.96h.001v1.774a5.38 5.38 0 01-2.245 4.376A5.364 5.364 0 0112 15.196z" fill="#FFDECF"/>
  <path d="M17.386 8.034l-.98-1.96s-.135.044-.366.112v3.622a5.38 5.38 0 01-2.244 4.376 5.36 5.36 0 01-2.47.97 5.364 5.364 0 003.817-.97 5.38 5.38 0 002.245-4.376V8.034h-.002z" fill="#FFCDBE"/>
  <path d="M17.837 15.757H15.48V14.35a5.718 5.718 0 002.245-4.542V8.06c.399-2.027.225-3.522-.518-4.44a2.319 2.319 0 00-1.279-.813V.85a.337.337 0 00-.336-.337c-.272 0-.55-.003-.845-.006A83.12 83.12 0 0013.804.5C11.366.5 8.908.73 7.44 2.393 6.334 3.646 5.952 5.505 6.274 8.076l.001.007v1.725c0 1.848.881 3.495 2.245 4.542v1.407H6.163a2.585 2.585 0 00-2.582 2.582v1.796a.337.337 0 00.674 0v-1.796-.002a1.91 1.91 0 011.908-1.907h2.592l1.234.823 1.212 1.212-.406 4.361H7.398v-2.22a.337.337 0 10-.674 0v2.22h-2.47v-1.344a.337.337 0 00-.673 0V23.163a.337.337 0 00.337.337H20.082c.186 0 .337-.15.337-.337V18.34a2.585 2.585 0 00-2.582-2.582zm1.908 2.582v4.487h-6.54l-.406-4.361 1.211-1.212 1.235-.823h2.592a1.91 1.91 0 011.908 1.909zm-8.055-.337l-.827-.828L12 16.89l1.137.284-.828.828h-.618zm3.116-2.089l-1.073.716-1.396-.35v-.757a5.684 5.684 0 002.47-.726v1.117zM7.945 2.84c1.292-1.464 3.58-1.666 5.859-1.666.317 0 .631.004.935.007l.516.006v1.91c0 .185.145.334.33.337.025 0 .636.026 1.109.622.478.603.654 1.589.521 2.883l-.507-1.015a.337.337 0 00-.404-.17c-.03.01-3.045.964-4.797.964-1.704 0-3.239-.921-3.254-.93a.337.337 0 00-.445.085L6.86 7.136c-.122-1.924.235-3.335 1.085-4.297zm-.996 6.969V8.14l1.222-1.63c.549.286 1.864.88 3.337.88 1.553 0 3.92-.669 4.725-.911l.818 1.636v1.692a5.057 5.057 0 01-4.983 5.05.333.333 0 00-.136 0 5.057 5.057 0 01-4.983-5.05zm4.714 5.714v.758l-1.396.349-1.073-.716v-1.117a5.682 5.682 0 002.47.726zm.195 3.153h.284l.386 4.151h-1.056l.386-4.15z" fill="#000"/>
  <path d="M17.276 18.361a.337.337 0 00-.337-.337h-1.347a.337.337 0 00-.337.337v.561h-1.01a.337.337 0 00-.337.337v2.245c0 .186.15.337.337.337h4.04c.187 0 .338-.15.338-.337V19.26a.337.337 0 00-.337-.337h-1.01v-.56zm-1.347.337h.673v.224h-.673v-.224zm2.02 2.47h-3.367v-1.572h3.367v1.571z" fill="#000"/>
</svg>
