<svg width="24" height="24" fill="none" xmlns="http://www.w3.org/2000/svg">
  <defs>
    <path d="M23.163 19.857V4.035a.27.27 0 00-.216-.265L15.8 2.34a.269.269 0 00-.153.015L8.353 5.272a.27.27 0 01-.153.014L1.16 3.878a.27.27 0 00-.323.264v15.823c0 .129.09.24.217.265L8.2 21.659a.27.27 0 00.153-.014l7.294-2.918a.27.27 0 01.153-.014l7.04 1.409a.27.27 0 00.323-.265z" fill="#B6E3EE" id="reuse-0"/>
  </defs>
  <use xlink:href="#reuse-0"/>
  <use xlink:href="#reuse-0"/>
  <path d="M22.946 3.77l-.763-.153c.05.05.082.118.082.193v16.047c0 .052-.015.1-.04.141l.616.123a.27.27 0 00.322-.264V4.034a.27.27 0 00-.217-.264zM15.722 2.337a.27.27 0 00-.075.018L8.354 5.272a.27.27 0 01-.075.018v16.373a.271.271 0 00.075-.018l7.293-2.918a.268.268 0 01.075-.018V2.337z" fill="#96D2E0"/>
  <path d="M21.601 13.252l-1.48-.296a.27.27 0 01-.202-.355l.74-2.075a.27.27 0 01.512.01l.74 2.371a.27.27 0 01-.31.345z" fill="#00CE96"/>
  <path d="M20.93 6.016a1.489 1.489 0 10-2.762.769l1.041 1.804a.27.27 0 00.467 0l1.041-1.804c.136-.225.214-.488.214-.769z" fill="#FF2551"/>
  <path d="M19.442 6.574a.558.558 0 100-1.117.558.558 0 000 1.117z" fill="#fff"/>
  <path d="M18.625 15.485l-1.482-.297a.27.27 0 01-.2-.355l.74-2.075a.27.27 0 01.511.01l.74 2.372a.27.27 0 01-.31.345z" fill="#00CE96"/>
  <g fill="#000">
    <path d="M19.442 5.121a.896.896 0 000 1.79.896.896 0 000-1.79zm0 1.117a.221.221 0 110-.443.221.221 0 010 .443z"/>
    <path d="M23.23 3.483l-7.44-1.488h-.003-.003a.335.335 0 00-.052-.006h-.035l-.008.001a.339.339 0 00-.043.007l-.01.002a.327.327 0 00-.036.012l-.004.001-7.35 2.94L4.483 4.2a.337.337 0 10-.132.66l3.592.72v5.236l-3.018-.604h-.007A1.827 1.827 0 002.733 12c0 .868.618 1.621 1.47 1.79l3.74.748v2.519l-1.957-.391.299-.3a.337.337 0 00-.477-.476l-.506.506-.506-.506a.337.337 0 00-.476.477l.506.506-.506.506a.337.337 0 00.476.476l.506-.506.506.506a.336.336 0 00.477 0 .337.337 0 00.034-.436l1.623.325v3.519L1.174 19.91V4.225l1.83.366a.337.337 0 10.132-.661L.903 3.483a.337.337 0 00-.403.33v16.373c0 .16.113.3.27.33l7.44 1.489h.002l.008.001.025.004a.344.344 0 00.067 0c.006 0 .011-.002.017-.003.005 0 .01 0 .015-.002l.02-.005a.342.342 0 00.031-.01l.009-.002.005-.003h.001l7.343-2.937 7.344 1.469a.337.337 0 00.403-.33V3.813a.337.337 0 00-.27-.33zM8.615 5.53l6.768-2.707V8.02l-6.768 2.707V5.53zm0 8.96l3.695-1.477a1.153 1.153 0 11.855 2.14v-.001l-4.55 1.82V14.49zm0 3.207l4.8-1.92a1.816 1.816 0 001.153-1.697 1.827 1.827 0 00-2.509-1.693h-.002l-3.442 1.378v-2.31l6.768-2.708v9.723l-6.768 2.707v-3.48zM3.406 12a1.153 1.153 0 011.383-1.128h.004l3.149.63v2.35l-3.607-.722A1.153 1.153 0 013.405 12zm19.42 7.775l-6.768-1.353V8.66l3.318.664.014.002.012.002a.341.341 0 00.08 0l.008-.001a.334.334 0 00.12-.041l.003-.003a.353.353 0 00.03-.02l.006-.004a.333.333 0 00.058-.058l.003-.003a.342.342 0 00.023-.035v-.001l1.274-2.206a1.824 1.824 0 00-1.565-2.765 1.827 1.827 0 00-1.565 2.765l.901 1.56-2.72-.543V2.736l6.768 1.354v15.685zM19.442 8.32l-.983-1.702-.003-.006a1.153 1.153 0 01.986-1.746 1.153 1.153 0 01.986 1.746l-.003.006-.983 1.702z"/>
    <path d="M18.276 11.9a.337.337 0 00-.315-.237h-.007c-.142 0-.27.09-.317.224l-1.116 3.127a.337.337 0 00.25.444l.837.167v1.212a.337.337 0 00.673 0V15.76l.724.144a.337.337 0 00.387-.43L18.276 11.9zm-.262 3.12l-.003-.002-.725-.144.647-1.812.647 2.07-.566-.113zM20.938 9.43a.335.335 0 00-.325.224l-1.116 3.128a.337.337 0 00.251.443l.836.167v1.213a.337.337 0 10.674 0v-1.078l.723.145a.337.337 0 00.388-.431l-1.117-3.574a.337.337 0 00-.314-.236zm.052 3.357l-.003-.001-.724-.145.647-1.812.646 2.07-.566-.112z"/>
  </g>
</svg>
