<svg width="24" height="24" fill="none" xmlns="http://www.w3.org/2000/svg">
  <defs/>
  <path d="M10.285 10.056v13.043h2.084V.871h-2.084v2.007" fill="#FCD577"/>
  <path d="M10.285 8.83v2.512h2.084V7.061h-2.084v.386" fill="#EAC36E"/>
  <path d="M18.18 10.056H3.051V2.878h15.127l2.779 3.589-2.779 3.589z" fill="#FF6F52"/>
  <path d="M21.258 6.246l-2.778-3.59a.386.386 0 00-.306-.15H12.75V.887A.386.386 0 0012.363.5H10.28a.386.386 0 00-.386.386v1.62H7.321a.386.386 0 100 .773h10.664l2.48 3.203-2.48 3.203H3.433V3.279h2.602a.386.386 0 100-.772H3.047a.386.386 0 00-.386.386v7.178c0 .213.173.386.386.386h8.93v8.72a.386.386 0 10.772 0v-8.72h5.426c.119 0 .232-.056.305-.15l2.778-3.589a.386.386 0 000-.472zM10.666 1.272h1.311v1.235h-1.311V1.272z" fill="#000"/>
  <path d="M12.364 20.078a.386.386 0 00-.386.387v2.263h-1.312v-11.37a.386.386 0 10-.771 0v11.756c0 .213.172.386.386.386h2.083a.386.386 0 00.386-.386v-2.65a.386.386 0 00-.386-.386zM15.774 5.517a.386.386 0 100-.772h-1.458a.386.386 0 00-.386.386v2.701c0 .214.172.386.386.386h1.458a.386.386 0 100-.772h-1.072v-.578h.471a.386.386 0 000-.772h-.472v-.579h1.073zM16.914 4.745a.386.386 0 00-.386.386v2.701c0 .214.173.386.386.386h1.36a.386.386 0 100-.772H17.3V5.131a.386.386 0 00-.386-.386zM5.949 5.131v.965h-.97V5.13a.386.386 0 10-.771 0v2.701a.386.386 0 10.772 0v-.964h.969v.964a.386.386 0 10.772 0v-2.7a.386.386 0 10-.772 0zM10.622 6.482c0-.958-.78-1.737-1.737-1.737-.958 0-1.737.78-1.737 1.737 0 .957.78 1.736 1.737 1.736.958 0 1.737-.779 1.737-1.736zm-2.702 0a.966.966 0 011.93 0 .966.966 0 01-1.93 0zM12.152 7.086a.386.386 0 00-.386.386v.36a.386.386 0 10.771 0v-.36a.386.386 0 00-.386-.386zM12.538 5.517h.665a.386.386 0 100-.772h-2.101a.386.386 0 100 .772h.664v.849a.386.386 0 10.772 0v-.849z" fill="#000"/>
</svg>
