<svg width="24" height="24" fill="none" xmlns="http://www.w3.org/2000/svg">
  <defs/>
  <path d="M11.046 13.456v9.652h1.962V.893h-1.962v1.305" fill="#FCD577"/>
  <path d="M11.046 8.659v5.965h1.962V.893h-1.962v.806" fill="#EAC36E"/>
  <g fill="#8DE0A8">
    <path d="M17.983 2.199H8.437v4.895h9.546l1.876-2.448L17.982 2.2zM6.072 8.562h9.545v4.895H6.072L4.195 11.01l1.877-2.448z"/>
  </g>
  <path d="M20.143 4.407l-1.877-2.448a.392.392 0 00-.311-.153h-4.582V.893A.393.393 0 0012.981.5h-1.963a.393.393 0 00-.392.393v.913H8.41a.393.393 0 00-.393.392v1.175a.393.393 0 00.786 0V2.59h8.958l1.576 2.054L17.76 6.7H8.803V4.681a.393.393 0 00-.786 0v2.412c0 .217.176.392.393.392h2.216v.684H6.044a.392.392 0 00-.311.154L3.856 10.77a.393.393 0 000 .478l1.877 2.447c.074.097.19.154.311.154h1.277a.393.393 0 000-.785H6.238l-1.575-2.055 1.575-2.055h8.959v4.11H8.63a.393.393 0 000 .785h1.996v9.259c0 .216.176.392.392.392h1.963a.392.392 0 00.392-.392v-8.344a.393.393 0 10-.785 0v7.951h-1.177v-8.866h4.178a.393.393 0 00.393-.393V8.561a.393.393 0 00-.393-.392h-2.216v-.684h4.582a.392.392 0 00.312-.153l1.876-2.448a.393.393 0 000-.477zM11.41 1.285h1.177v.52h-1.177v-.52zm1.177 6.884h-1.177v-.684h1.177v.684z" fill="#000"/>
</svg>
