<svg width="24" height="24" fill="none" xmlns="http://www.w3.org/2000/svg">
  <defs/>
  <path d="M20.887 8.22c-1.953-9.761-15.835-9.761-17.788 0a12.95 12.95 0 00-.25 2.542c0 5.817 3.852 10.734 9.144 12.34 5.292-1.606 9.145-6.523 9.145-12.34 0-.87-.087-1.72-.251-2.543z" fill="#FF6F52"/>
  <path d="M11.994 14.483a4.81 4.81 0 100-9.62 4.81 4.81 0 000 9.62z" fill="#CFDCE5"/>
  <path d="M8.696 9.673c0-2.4 1.756-4.389 4.054-4.751a4.81 4.81 0 100 9.502 4.811 4.811 0 01-4.054-4.751z" fill="#BAC6CC"/>
  <path d="M21.283 8.141c-.286-1.432-.832-2.717-1.62-3.819a.398.398 0 10-.648.463c.723 1.01 1.224 2.191 1.488 3.512.161.807.243 1.636.243 2.465 0 2.735-.867 5.332-2.507 7.51a12.604 12.604 0 01-6.24 4.414 12.604 12.604 0 01-6.239-4.414 12.386 12.386 0 01-2.507-7.51c0-.83.082-1.659.243-2.465.648-3.238 2.755-5.64 5.782-6.587 3.088-.967 6.53-.2 8.767 1.952a.398.398 0 10.552-.573c-1.228-1.181-2.79-2-4.516-2.37A9.948 9.948 0 009.04.95C5.726 1.988 3.421 4.61 2.715 8.141c-.172.857-.259 1.74-.259 2.621 0 2.91.923 5.672 2.668 7.989a13.4 13.4 0 006.759 4.732.399.399 0 00.231 0 13.4 13.4 0 006.76-4.732 13.176 13.176 0 002.667-7.989c0-.881-.087-1.763-.259-2.62z" fill="#000"/>
  <path d="M12 14.085a4.387 4.387 0 01-2.498-.775.398.398 0 00-.452.656 5.18 5.18 0 002.95.915 5.214 5.214 0 005.207-5.208A5.214 5.214 0 0012 4.464a5.214 5.214 0 00-5.208 5.209c0 1.043.308 2.05.89 2.912a.398.398 0 00.66-.446 4.39 4.39 0 01-.754-2.466 4.417 4.417 0 014.412-4.413 4.417 4.417 0 014.412 4.413A4.417 4.417 0 0112 14.085z" fill="#000"/>
</svg>
