<svg width="24" height="24" fill="none" xmlns="http://www.w3.org/2000/svg">
  <defs/>
  <path d="M22.68 2.41H5.401v8.86h17.28V2.41z" fill="#FF6F52"/>
  <path d="M3.716.87H1.33V23.1h2.386V.87z" fill="#FCD577"/>
  <g fill="#EAC36E">
    <path d="M5.4 3.419H3.716v1.83H5.4v-1.83zM5.4 8.432H3.716v1.83H5.4v-1.83z"/>
  </g>
  <path d="M14.979 8.854V6.256l1.66 2.794a.385.385 0 00.716-.197V4.856a.385.385 0 00-.77 0v2.597l-1.66-2.794a.385.385 0 00-.716.197v3.998a.385.385 0 10.77 0zM7.198 4.47a.385.385 0 00-.385.386v3.998a.385.385 0 10.77 0V7.35h.18L8.6 9.025a.385.385 0 10.688-.343l-.728-1.46c.47-.227.798-.73.798-1.312 0-.793-.608-1.44-1.356-1.44h-.804zm1.39 1.44c0 .37-.263.67-.586.67h-.419V5.24h.419c.323 0 .587.3.587.67zM12.782 5.24a.385.385 0 100-.77h-1.754a.385.385 0 00-.384.386v3.998c0 .212.172.384.384.384h1.754a.385.385 0 100-.77h-1.369V7.25h1.369a.385.385 0 000-.77h-1.369V5.24h1.369zM19.912 7.756a.385.385 0 00-.385.384v.714a.385.385 0 00.77 0V8.14a.385.385 0 00-.385-.384zM20.296 5.24h.98a.385.385 0 100-.77h-2.728a.385.385 0 100 .77h.979v1.806a.385.385 0 00.77 0V5.24z" fill="#000"/>
  <path d="M22.675 2.04H9.809a.385.385 0 100 .769H22.29V10.9H5.78V2.81h2.746a.385.385 0 100-.77h-3.13a.385.385 0 00-.385.385v.625h-.916V.885A.385.385 0 003.71.5H1.324A.385.385 0 00.94.885v15.032a.385.385 0 00.77 0V1.27h1.616v21.46H1.71V17.2a.385.385 0 10-.77 0v5.915c0 .213.173.385.385.385H3.71a.385.385 0 00.385-.385V10.661h.916v.624c0 .213.173.385.385.385h17.279a.385.385 0 00.385-.385V2.424a.385.385 0 00-.385-.385zM4.095 5.647h.916V8.06h-.916V5.648zm.916-1.83v1.06h-.916v-1.06h.916zm-.916 6.073V8.83h.916v1.06h-.916z" fill="#000"/>
</svg>
