<svg width="24" height="24" fill="none" xmlns="http://www.w3.org/2000/svg">
  <defs/>
  <path d="M12.893 13.122H11.16v9.996h1.734v-9.996z" fill="#FCD577"/>
  <g fill="#EAC36E">
    <path d="M11.16 23.117H8.812l2.346-2.396M12.894 23.117h2.345l-2.345-2.396"/>
  </g>
  <path d="M20.517 1.392h1.607v11.73H1.929V1.392h1.606" fill="#CFDCE5"/>
  <g fill="#DCE8EF">
    <path d="M5.754 2.157l2.141 10.965H1.93L4.07 2.157M19.982 2.157l2.142 10.964h-5.967L18.3 2.157M12.868 2.157L15.01 13.12H9.043l2.142-10.964"/>
  </g>
  <g fill="#FCD577">
    <path d="M6.289 2.157H3.535v-.68c0-.329.266-.595.594-.595h1.566c.328 0 .594.266.594.594v.681zM13.403 2.157H10.65v-.681c0-.328.266-.594.594-.594h1.566c.329 0 .594.266.594.594v.681zM20.518 2.157h-2.754v-.681c0-.328.265-.594.594-.594h1.566c.328 0 .594.266.594.594v.681z"/>
  </g>
  <path d="M22.098 3.254a.383.383 0 00-.383.382v9.104H5.013a.382.382 0 100 .764h7.472v9.231h-.97v-8.491a.382.382 0 10-.764 0v6.32L8.514 22.85a.382.382 0 00.273.65h6.426a.383.383 0 00.273-.65l-2.236-2.285v-7.06h8.848a.382.382 0 00.382-.383V3.636a.382.382 0 00-.382-.382zM10.75 21.658v1.077H9.697l1.054-1.077zm3.552 1.077H13.25v-1.077l1.054 1.077z" fill="#000"/>
  <path d="M22.097 1.01h-1.343a.977.977 0 00-.857-.51H18.33a.977.977 0 00-.858.51H13.64a.977.977 0 00-.857-.51h-1.566a.977.977 0 00-.858.51H6.526A.977.977 0 005.668.5H4.102a.977.977 0 00-.857.51H1.902a.382.382 0 00-.382.382v11.73c0 .211.17.382.382.382h1.734a.382.382 0 100-.764H2.284V1.774h.842v.382c0 .212.171.383.382.383h2.754a.382.382 0 00.383-.383v-.382h3.595v.382c0 .212.171.383.383.383h2.753a.382.382 0 00.383-.383v-.382h3.595v.382c0 .212.172.383.383.383h2.754a.383.383 0 00.382-.383v-.382h.841v.586a.383.383 0 00.766 0v-.969a.382.382 0 00-.383-.382zM5.88 1.775H3.89v-.299c0-.116.096-.211.212-.211h1.566c.117 0 .212.095.212.211v.299zm7.114 0h-1.989v-.299c0-.116.095-.211.211-.211h1.567c.116 0 .211.095.211.211v.299zm7.114 0H18.12v-.299c0-.116.095-.211.212-.211h1.566c.116 0 .211.095.211.211v.299z" fill="#000"/>
</svg>
