<svg width="24" height="24" fill="none" xmlns="http://www.w3.org/2000/svg">
  <defs/>
  <path d="M2.905 23.068h18.201a1.983 1.983 0 001.983-1.984v-18.2A1.983 1.983 0 0021.107.9h-18.2A1.983 1.983 0 00.921 2.883v18.201c0 1.096.888 1.984 1.983 1.984z" fill="#4EBFED"/>
  <path d="M13.098 5.075H8.646v14.232h2.466V14.57h1.986a4.753 4.753 0 004.748-4.748 4.753 4.753 0 00-4.748-4.748zm0 7.03h-1.986V7.542h1.986a2.284 2.284 0 012.281 2.281 2.284 2.284 0 01-2.281 2.281z" fill="#fff"/>
  <path d="M21.1 23.5H2.9a2.402 2.402 0 01-2.4-2.4V2.9C.5 1.575 1.576.5 2.9.5h12.989a.416.416 0 110 .832H2.899c-.864 0-1.567.703-1.567 1.567V21.1c0 .865.703 1.568 1.567 1.568H21.1c.865 0 1.568-.703 1.568-1.567V2.898c0-.864-.703-1.567-1.567-1.567h-3.825a.416.416 0 110-.832h3.825C22.424.5 23.5 1.576 23.5 2.9v18.2c0 1.324-1.076 2.4-2.4 2.4z" fill="#000"/>
  <path d="M21.1 21.78H2.9a.68.68 0 01-.68-.68V2.9a.68.68 0 01.68-.68H21.1a.68.68 0 01.68.68v18.2a.68.68 0 01-.68.68zm-18.048-.832h17.895V3.052H3.052v17.896z" fill="#000"/>
  <path d="M11.106 19.74H8.64a.416.416 0 01-.416-.417V8.809a.416.416 0 01.832 0v10.098h1.634v-4.32c0-.23.187-.416.416-.416h1.986a4.337 4.337 0 004.332-4.332 4.337 4.337 0 00-4.332-4.332H9.056v1.914a.416.416 0 01-.832 0v-2.33c0-.23.186-.416.416-.416h4.452a5.17 5.17 0 015.164 5.164 5.17 5.17 0 01-5.164 5.164h-1.57v4.32c0 .23-.186.416-.416.416zm1.986-7.203h-1.986a.416.416 0 01-.416-.416V7.558c0-.23.187-.416.416-.416h1.986a2.7 2.7 0 012.697 2.697 2.7 2.7 0 01-2.697 2.698zm-1.57-.833h1.57a1.867 1.867 0 001.865-1.865 1.867 1.867 0 00-1.865-1.865h-1.57v3.73z" fill="#000"/>
</svg>
