<svg width="24" height="24" fill="none" xmlns="http://www.w3.org/2000/svg">
  <defs/>
  <path d="M7.512 13.438l-5.003 5.279 3.12 3.12 11.61-11.002-3.728-3.728-4.99 5.265a.366.366 0 01-.518.014l-.505.533c.147.14.153.371.014.519zM21.82 1.53l-1.064 1.065.994.995.61-.611-.54-1.449z" fill="#FFCC75"/>
  <path d="M17.757 11.354L6.147 22.356l.082.081a1.147 1.147 0 001.589.022l10.805-10.24-.866-.865z" fill="#F48205"/>
  <path d="M1.909 18.117l.081.08 4.99-5.264a.367.367 0 01.518-.014l.505-.533a.367.367 0 01-.014-.519l5.003-5.279-.865-.865-10.24 10.804a1.147 1.147 0 00.022 1.59z" fill="#F2EBD9"/>
  <path d="M21.585 4.462l-.093-.093-1.514-1.514-.094-.094a6.319 6.319 0 01-5.604 1.43l-.545.545a.372.372 0 01-.26.107.366.366 0 01-.26-.107l-.078-.08-.505.534 6.524 6.524.533-.505-5.435-5.435a.367.367 0 01.52-.52l5.096 5.097.286-.286a6.32 6.32 0 011.429-5.603z" fill="#274B6D"/>
  <path d="M23.131 2.943L22.31.74a.367.367 0 00-.603-.132l-1.469 1.47-.086-.087a.367.367 0 00-.52 0 5.579 5.579 0 01-5.369 1.44l-.007-.002a.378.378 0 00-.033-.007l-.013-.001a.366.366 0 00-.042-.003h-.006a.378.378 0 00-.081.01l-.011.004a.367.367 0 00-.08.033l-.01.005a.356.356 0 00-.028.019l-.01.007a.386.386 0 00-.033.03l-.433.432-.086-.086a.367.367 0 00-.526.007L1.354 16.022a1.886 1.886 0 00.035 2.614l4.32 4.32a1.87 1.87 0 001.326.544c.465 0 .93-.17 1.288-.509l12.145-11.509a.367.367 0 00.007-.526l-.086-.086.432-.432a.367.367 0 00.095-.354 5.58 5.58 0 011.44-5.37.367.367 0 000-.52l-.087-.085.778-.778a.367.367 0 00.084-.388zM6.23 22.438l-.081-.08 11.61-11.003.865.865L7.818 22.46a1.147 1.147 0 01-1.589-.022zm5.897-16.714l.866.865-5.003 5.279a.367.367 0 10.533.505l4.99-5.265 3.726 3.728-11.61 11.002-3.12-3.12 5.004-5.28a.367.367 0 00-.533-.504l-4.99 5.265-.08-.081a1.147 1.147 0 01-.022-1.59l10.24-10.804zm2.647-.468a.367.367 0 00-.52.519l5.436 5.435-.533.505-6.524-6.524.505-.534.079.08a.366.366 0 00.52 0l.544-.546a6.319 6.319 0 005.604-1.429l.093.094 1.513 1.512.095.095a6.32 6.32 0 00-1.43 5.604l-.285.285-5.097-5.096zm5.983-2.66l1.065-1.065.54 1.449-.61.61-.995-.994z" fill="#082947"/>
</svg>
