<svg width="24" height="24" fill="none" xmlns="http://www.w3.org/2000/svg">
  <defs/>
  <path d="M11.602 4.298H2.814c-1.06 0-1.92.86-1.92 1.92v8.788a4.666 4.666 0 004.665 4.666h10.708V8.964a4.666 4.666 0 00-4.665-4.666z" fill="#FF6F52"/>
  <g fill="#FCD577">
    <path d="M16.983 17.036h-.715v-5.111h.715a.7.7 0 01.699.7v3.712a.7.7 0 01-.7.699zM8.58 17.081a5.096 5.096 0 100-10.192 5.096 5.096 0 000 10.192z"/>
  </g>
  <path d="M23.111 18.18h-6.46v-.74h.326c.6 0 1.088-.488 1.088-1.088V12.64c0-.6-.488-1.088-1.088-1.088h-.326V9.109a5.19 5.19 0 00-5.185-5.184H4.739a.388.388 0 000 .777h6.727a4.413 4.413 0 014.408 4.407V19.3H5.684a4.413 4.413 0 01-4.407-4.408V6.287c0-.874.711-1.585 1.585-1.585h.519a.388.388 0 000-.777h-.519A2.365 2.365 0 00.5 6.287v8.604a5.19 5.19 0 005.185 5.184h10.577a.389.389 0 00.389-.388v-.73h6.072v.73a.389.389 0 00.777 0v-1.118a.389.389 0 00-.389-.389zm-6.134-5.851c.172 0 .311.14.311.31v3.713c0 .171-.14.311-.31.311h-.327v-4.334h.326z" fill="#000"/>
  <path d="M12.938 14.663c.191.098.426.022.523-.17a5.49 5.49 0 00-4.886-7.978A5.49 5.49 0 003.091 12a5.49 5.49 0 005.484 5.485c1.477 0 2.861-.578 3.9-1.628a.388.388 0 10-.553-.546 4.674 4.674 0 01-3.347 1.397A4.713 4.713 0 013.868 12a4.713 4.713 0 014.707-4.708 4.713 4.713 0 014.195 6.848.388.388 0 00.168.523z" fill="#000"/>
</svg>
