<svg width="24" height="24" fill="none" xmlns="http://www.w3.org/2000/svg">
  <defs/>
  <path d="M14.399 14.405l-4.73-4.73L.935.942v22.118h22.118l-8.654-8.654zM4.284 9.026L14.967 19.71H4.284V9.026z" fill="#8DE0A8"/>
  <path d="M8.083 18.59l-4.218 1.538 1.539-4.219L18.337 2.976c.46-.46 1.204-.46 1.663 0l1.017 1.017c.46.46.46 1.203 0 1.663L8.083 18.589z" fill="#4EBFED"/>
  <path d="M16.974 4.34l1.363-1.364c.46-.46 1.204-.46 1.663 0l1.017 1.017c.46.46.459 1.203 0 1.662L19.653 7.02l-2.68-2.68z" fill="#FF6F52"/>
  <path d="M18.282 5.648l-.499-.498-11.57 11.57.5.498 11.569-11.57z" fill="#97E1F7"/>
  <path d="M21.017 5.656c.46-.46.46-1.204 0-1.663l-.254-.254c.23.23.045.79-.414 1.249L7.415 17.92l-3.55 2.207 4.218-1.539L21.017 5.656z" fill="#3BA4BC"/>
  <path d="M5.404 15.91l2.68 2.679-4.219 1.539 1.539-4.219z" fill="#FCD577"/>
  <g fill="#E25749">
    <path d="M20.763 3.738l.254.254c.46.46.459 1.203 0 1.662l-1.364 1.364-.668-.668 1.364-1.363c.46-.46.644-1.018.414-1.249zM7.415 17.92l.668.668-4.218 1.539 3.55-2.207z"/>
  </g>
  <path d="M4.997 15.758l-1.539 4.219a.44.44 0 00.565.564l4.219-1.538a.44.44 0 00.16-.102L21.336 5.967c.63-.63.63-1.656 0-2.286l-1.017-1.017a1.606 1.606 0 00-1.143-.473c-.432 0-.838.168-1.143.473L14.467 6.23a.44.44 0 10.623.623l1.89-1.89 2.057 2.056L8.091 17.966l-2.057-2.057 8.018-8.017a.44.44 0 10-.623-.624l-8.33 8.33a.44.44 0 00-.102.16zm.591.952l1.702 1.702-2.68.977.978-2.68zM17.604 4.34l1.052-1.053a.73.73 0 01.52-.215.73.73 0 01.52.215l1.016 1.017a.73.73 0 01.216.52.73.73 0 01-.216.52L19.66 6.396 17.604 4.34z" fill="#000"/>
  <path d="M23.37 22.748l-8.653-8.655a.44.44 0 00-.624.624l7.902 7.902h-2.65v-.416a.44.44 0 00-.882 0v.416h-1.714v-.416a.44.44 0 00-.881 0v.416h-1.714v-.416a.44.44 0 00-.881 0v.416h-1.714v-.416a.44.44 0 00-.881 0v.416H8.964v-.416a.44.44 0 00-.881 0v.416H6.369v-.416a.44.44 0 00-.882 0v.416H3.774v-.416a.44.44 0 00-.882 0v.416h-1.51V2.005l7.982 7.982a.44.44 0 10.623-.623L1.252.629A.44.44 0 00.5.941v22.118c0 .244.197.441.44.441H23.06a.44.44 0 00.311-.752z" fill="#000"/>
  <path d="M4.73 15.094V10.09l2.266 2.265a.44.44 0 10.623-.623L4.602 8.715a.44.44 0 00-.752.311v6.068a.44.44 0 10.88 0zM8.105 19.71c0 .243.198.44.441.44h6.428a.44.44 0 00.311-.752l-2.937-2.936a.44.44 0 10-.623.623l2.185 2.184H8.546a.44.44 0 00-.44.441z" fill="#000"/>
</svg>
