<svg width="24" height="24" fill="none" xmlns="http://www.w3.org/2000/svg">
  <defs/>
  <path d="M18.47 4.439v2.518c0 .296.24.536.536.536h.66c.296 0 .536-.24.536-.536V4.44c.658 0 1.187-.55 1.152-1.216a1.162 1.162 0 00-1.133-1.091 1.149 1.149 0 00-.775.282.167.167 0 01-.22 0 1.148 1.148 0 00-.775-.282c-.6.01-1.102.493-1.133 1.091A1.154 1.154 0 0018.47 4.44z" fill="#EFE0DB"/>
  <path d="M21.354 3.223a1.162 1.162 0 00-.7-.998c.109.166.178.36.189.567.03.573-.359 1.061-.887 1.185a.344.344 0 00-.265.335v2.215c0 .295-.24.535-.536.535h-.675a.536.536 0 00.526.431h.66c.297 0 .537-.24.537-.536V4.44c.657 0 1.186-.55 1.151-1.216z" fill="#DFD1CB"/>
  <path d="M23.162 12.045a3.825 3.825 0 01-7.651 0c0-2.113 1.712-5.971 3.825-5.971 2.113 0 3.826 3.858 3.826 5.971z" fill="#FDB1B9"/>
  <path d="M20.191 6.283C21 7.565 21.51 9.24 21.51 10.393a3.825 3.825 0 01-5.575 3.402 3.824 3.824 0 007.226-1.75c0-1.819-1.269-4.93-2.97-5.762z" fill="#FC8086"/>
  <path d="M16.924 11.7c-1.252-.494-2.346-1.322-3.123-2.422a5.028 5.028 0 00-9.057 2.007l-.001.01a2.563 2.563 0 01-1.375 1.863 4.6 4.6 0 00-2.527 4.29c.095 2.462 2.141 4.424 4.605 4.42.618 0 1.207-.123 1.745-.345a7.349 7.349 0 012.804-.536h.123c.958 0 1.902.19 2.796.533.622.238 1.3.362 2.01.347a5.281 5.281 0 005.181-5.01 5.305 5.305 0 00-3.18-5.156z" fill="#FB4753"/>
  <path d="M17.38 11.924c.468.841.714 1.822.658 2.864a5.282 5.282 0 01-5.182 5.011 5.294 5.294 0 01-2.009-.347 7.824 7.824 0 00-2.795-.533h-.124c-.96 0-1.916.17-2.804.536a4.586 4.586 0 01-3.803-.14 4.617 4.617 0 004.125 2.553c.618 0 1.208-.123 1.746-.345a7.349 7.349 0 012.803-.536h.124c.957 0 1.902.19 2.796.533.622.238 1.3.362 2.009.347a5.282 5.282 0 005.182-5.011 5.303 5.303 0 00-2.725-4.932z" fill="#E21F2D"/>
  <path d="M14.675 18.427a1.847 1.847 0 100-3.694 1.847 1.847 0 000 3.694z" fill="#EFE0DB"/>
  <path d="M15.43 14.895a1.847 1.847 0 01-2.44 2.44 1.846 1.846 0 102.44-2.44z" fill="#DFD1CB"/>
  <path d="M23.5 12.045c0-1.78-1.194-4.91-2.96-5.957v-1.35c.283-.067.543-.214.745-.426.284-.3.429-.693.407-1.107a1.495 1.495 0 00-1.465-1.411 1.488 1.488 0 00-.89.277 1.487 1.487 0 00-.891-.277 1.495 1.495 0 00-1.465 1.411 1.48 1.48 0 00.407 1.107c.202.212.462.36.744.425V6.09c-.325.192-.643.46-.946.8a.338.338 0 00.506.45c.376-.424.967-.928 1.645-.928.808 0 1.686.736 2.41 2.021.644 1.143 1.077 2.595 1.077 3.612a3.5 3.5 0 01-2.495 3.344 5.639 5.639 0 00-3.28-4.003 6.914 6.914 0 01-1.054-.523c.174-.783.49-1.625.883-2.344a.338.338 0 00-.593-.324 9.805 9.805 0 00-.888 2.258 6.346 6.346 0 01-1.32-1.37A5.375 5.375 0 009.694 6.81a5.355 5.355 0 00-5.281 4.415l-.002.014a2.235 2.235 0 01-1.195 1.618 4.946 4.946 0 00-.907.591.338.338 0 10.43.523c.24-.198.504-.37.782-.51a2.914 2.914 0 001.556-2.11l.001-.005a4.68 4.68 0 014.616-3.86c1.52 0 2.954.743 3.832 1.988.8 1.133 1.932 2.012 3.275 2.542l.072.03a4.948 4.948 0 012.896 4.793 4.933 4.933 0 01-2.043 3.755.338.338 0 10.396.549 5.607 5.607 0 002.322-4.268c.015-.273.01-.544-.014-.811a4.179 4.179 0 003.071-4.018zm-4.692-6.24V4.438a.338.338 0 00-.338-.338.808.808 0 01-.591-.255.81.81 0 01-.223-.605.827.827 0 01.8-.771.818.818 0 01.549.2c.189.164.474.164.663 0a.812.812 0 01.548-.2c.42.007.779.353.801.77a.81.81 0 01-.223.606.808.808 0 01-.591.255.338.338 0 00-.338.338v1.364a2.117 2.117 0 00-1.056.001zM16.414 21.269a5.011 5.011 0 01-3.379-.065 8.143 8.143 0 00-2.916-.555h-.124a7.65 7.65 0 00-2.933.561 4.237 4.237 0 01-1.617.32H5.44c-2.263 0-4.174-1.836-4.26-4.095a4.249 4.249 0 01.626-2.4.338.338 0 10-.575-.354 4.923 4.923 0 00-.727 2.78 4.905 4.905 0 001.517 3.366 4.916 4.916 0 003.418 1.38h.007c.649-.002 1.28-.126 1.874-.372a6.98 6.98 0 012.675-.51h.124c.89 0 1.79.172 2.675.51a5.612 5.612 0 002.137.37 5.682 5.682 0 001.699-.296.338.338 0 10-.216-.64z" fill="#000"/>
  <path d="M8.792 12.7l-1.015-1.015a.338.338 0 10-.478.479l2.102 2.101c.228.228.353.53.353.852 0 1.038.844 1.882 1.881 1.882h.896a2.188 2.188 0 002.144 1.766c1.204 0 2.185-.98 2.185-2.185s-.98-2.185-2.185-2.185a2.187 2.187 0 00-2.17 1.928h-.87c-.664 0-1.205-.541-1.205-1.206 0-.502-.195-.974-.55-1.33l-.509-.508a2.285 2.285 0 001.21-3.478.338.338 0 10-.556.385A1.607 1.607 0 018.792 12.7zm5.883 2.371a1.51 1.51 0 011.508 1.509 1.51 1.51 0 01-1.508 1.509 1.51 1.51 0 01-1.509-1.509 1.51 1.51 0 011.509-1.509zM6.41 15.061a2.983 2.983 0 01-1.75.564h-.773a.338.338 0 100 .676h.774c.774 0 1.515-.239 2.144-.69l.615-.442a.338.338 0 10-.394-.55l-.615.442z" fill="#000"/>
</svg>
