<svg width="24" height="24" fill="none" xmlns="http://www.w3.org/2000/svg">
  <defs/>
  <path d="M8.285 3.41L7.449.913H5.776L4.94 3.41l.89 1.18v7.55h1.566V4.59l.889-1.18z" fill="#CFDCE5"/>
  <path d="M7.964 12.14H5.26v1.351h2.704v-1.35z" fill="#FF6F52"/>
  <path d="M6.327 12.14H5.26v1.351h1.067v-1.35z" fill="#E25749"/>
  <path d="M7.542 15.307c0-.247.108-.469.28-.62.336-.296.545-.71.545-1.157v-.039h-3.51v.039c0 .448.209.861.545 1.157a.824.824 0 01.038 1.204 1.915 1.915 0 00-.584 1.349v3.801a1.755 1.755 0 003.511 0V17.24c0-.511-.222-.988-.584-1.349a.823.823 0 01-.241-.584z" fill="#FF6F52"/>
  <path d="M5.906 21.041V17.24c0-.511.09-.988.235-1.349.06-.15.097-.356.097-.584 0-.247-.044-.469-.113-.62-.135-.296-.219-.71-.219-1.157v-.039h-1.05v.039c0 .448.21.861.546 1.157a.824.824 0 01.038 1.204 1.915 1.915 0 00-.584 1.349v3.802c0 .969.786 1.755 1.756 1.755-.39 0-.706-.786-.706-1.756z" fill="#E25749"/>
  <path d="M16.38 15.21V7.418c0-.693.182-1.37.503-1.984A3.118 3.118 0 0014.014.88l.917 1.751a1.379 1.379 0 01-2.441 1.28l-.908-1.73a3.117 3.117 0 001.005 4.534c.753.425 1.232 2.475 1.232 3.34v6.527c0 .693-.182 1.37-.502 1.984a3.118 3.118 0 002.868 4.553l-.918-1.75a1.379 1.379 0 012.442-1.28l.907 1.73a3.116 3.116 0 00-1.005-4.534 2.387 2.387 0 01-1.232-2.075z" fill="#CFDCE5"/>
  <path d="M8.341 13.112h-.023v-.972a.38.38 0 00-.38-.379h-.19V4.718l.813-1.08a.38.38 0 00.057-.348L7.782.792a.38.38 0 00-.36-.26H5.75a.38.38 0 00-.36.26L4.554 3.29a.38.38 0 00.057.349l.813 1.079V7.82a.38.38 0 10.758 0v-3.23a.379.379 0 00-.076-.228l-.77-1.021.687-2.05h1.126l.686 2.05-.769 1.02a.38.38 0 00-.076.229v7.17h-.808v-2.65a.38.38 0 10-.758 0v2.65h-.19a.38.38 0 00-.38.38v.97H4.83a.38.38 0 00-.379.38v.039c0 .54.246 1.065.674 1.442a.447.447 0 01.021.65c-.448.45-.695 1.023-.695 1.618v3.802c0 1.176.958 2.134 2.135 2.134a2.137 2.137 0 002.135-2.134V17.24c0-.595-.247-1.169-.695-1.617a.444.444 0 01.02-.651c.429-.377.675-.903.675-1.442v-.039a.38.38 0 00-.38-.379zm-2.728-.592H7.56v.592H5.613v-.592zm1.932 1.883a1.206 1.206 0 00-.056 1.756c.305.305.473.69.473 1.08v3.803c0 .758-.617 1.376-1.376 1.376a1.378 1.378 0 01-1.376-1.376V17.24c0-.392.168-.776.473-1.08a1.206 1.206 0 00-.056-1.757 1.242 1.242 0 01-.36-.532h2.638c-.066.197-.19.382-.36.531zM13.414 11.235a.38.38 0 10.758 0v-1.18c0-.79-.438-3.114-1.425-3.67a2.725 2.725 0 01-1.392-2.57c.019-.288.084-.57.191-.836l.582 1.109c.218.416.585.722 1.033.862.448.14.924.096 1.34-.122.416-.218.722-.585.862-1.033.14-.448.096-.924-.122-1.34l-.598-1.14c.506.102.971.347 1.352.715.537.52.832 1.22.832 1.967 0 .445-.103.87-.308 1.262a4.7 4.7 0 00-.545 2.159v7.792c0 .988.546 1.91 1.425 2.405.611.344 1.063.9 1.272 1.565a.38.38 0 10.724-.228 3.488 3.488 0 00-1.623-1.998 2.015 2.015 0 01-1.04-1.744V7.418c0-.607.16-1.232.46-1.808a3.503 3.503 0 00.394-1.613c0-.955-.378-1.847-1.063-2.511a3.472 3.472 0 00-2.547-.984.379.379 0 00-.324.555l.918 1.75a.993.993 0 01.069.762.993.993 0 01-.49.587.993.993 0 01-.762.07.993.993 0 01-.588-.49l-.907-1.73a.38.38 0 00-.644-.046 3.472 3.472 0 00-.65 1.806 3.478 3.478 0 001.777 3.28c.536.302 1.039 2.097 1.039 3.009v1.18z" fill="#000"/>
  <path d="M19.194 19.83a.38.38 0 00-.403.355 2.69 2.69 0 01-.19.836l-.582-1.109a1.76 1.76 0 00-2.373-.74 1.76 1.76 0 00-.74 2.373l.598 1.14a2.718 2.718 0 01-1.352-.715 2.716 2.716 0 01-.833-1.967c0-.445.104-.87.308-1.262a4.7 4.7 0 00.546-2.159v-3.83a.38.38 0 10-.759 0v3.83a3.94 3.94 0 01-.46 1.808 3.503 3.503 0 00-.394 1.613c0 .955.378 1.847 1.064 2.511a3.469 3.469 0 002.547.984.379.379 0 00.324-.555l-.918-1.75a1 1 0 011.77-.929l.907 1.73a.38.38 0 00.644.046 3.471 3.471 0 00.65-1.807.379.379 0 00-.354-.402z" fill="#000"/>
</svg>
