<svg width="24" height="24" fill="none" xmlns="http://www.w3.org/2000/svg">
  <defs/>
  <path d="M16.213 10.192L7.788 9.6 6.126 5.665a2.946 2.946 0 00-2.714-1.8H.837v13.556h5.529a3.18 3.18 0 016.335 0h1.802v-1.578h3.448v-3.786a1.87 1.87 0 00-1.738-1.865z" fill="#707DD3"/>
  <path d="M.837 14.944v2.477h5.529a3.181 3.181 0 011.584-2.477H.837zM16.213 10.192l-.343-.024c.18.288.284.628.284.99v2.104c0 .929-.753 1.682-1.682 1.682h-3.355a3.181 3.181 0 011.585 2.477h1.801v-1.579h3.448v-3.785c0-.982-.759-1.796-1.738-1.865z" fill="#5766CB"/>
  <path d="M14.503 15.842h3.805v2.076h-3.805v-2.075z" fill="#DAE4EA"/>
  <path d="M16.512 15.842v.481a.697.697 0 01-.697.697h-1.312v.898h3.805v-2.075h-1.796z" fill="#C6D0DA"/>
  <path d="M11.78 19.951a3.18 3.18 0 10-4.498-4.498 3.18 3.18 0 004.498 4.498z" fill="#808B95"/>
  <path d="M9.985 14.555a3.181 3.181 0 01-2.7 5.399 3.181 3.181 0 102.7-5.399z" fill="#5E6B75"/>
  <path d="M9.534 19.072a1.369 1.369 0 100-2.737 1.369 1.369 0 000 2.737z" fill="#DAE4EA"/>
  <path d="M13.91 12.204v.838c0 .575.467 1.042 1.042 1.042h.716v-1.88H13.91z" fill="#E4936B"/>
  <path d="M15.668 12.204h2.276v1.88h-2.276v-1.88z" fill="#F6F9F9"/>
  <path d="M16.154 13.262c0 .299-.078.579-.214.822h2.003v-1.88h-1.79v1.058z" fill="#E7ECF1"/>
  <path d="M5.352 8.07h-.589a.764.764 0 000 1.53h1.354v-.765a.764.764 0 00-.765-.764z" fill="#707DD3"/>
  <path d="M5.352 8.07h-.14a.77.77 0 01.005.091v.344a.42.42 0 01-.42.42h-.793c.045.38.367.674.758.674h1.354v-.764a.764.764 0 00-.764-.764z" fill="#5766CB"/>
  <path d="M3.999 8.835c0-.422.342-.764.764-.764h.471l-.588-1.393a1.728 1.728 0 00-1.592-1.055H.837v3.976h3.926a.764.764 0 01-.764-.764z" fill="#D5D8F1"/>
  <path d="M4.763 8.07h.471l-.588-1.392a1.728 1.728 0 00-1.592-1.055h-.282c.028.05.054.103.077.157l.656 1.552a.985.985 0 01-.908 1.369H.837v.898h3.926a.764.764 0 010-1.528z" fill="#BEC3EA"/>
  <path d="M14.439 5.615a1.87 1.87 0 012.547.09l.956-.957a3.232 3.232 0 00-4.39-.154L7.788 9.599l1.908.135 4.743-4.12z" fill="#5766CB"/>
  <path d="M21.334 18.532v.535a.582.582 0 01-.518.578l-.587.064a.452.452 0 00-.404.45v.497c0 .126.102.228.228.228h3.11v-2.352h-1.829z" fill="#808B95"/>
  <path d="M21.905 3.31a1.419 1.419 0 00-2.793.492l.011.065 2.794-.492-.012-.065z" fill="#E28086"/>
  <path d="M20.469 5.928c.057-.01.114-.023.17-.038a.17.17 0 01.21.136l.055.308h1.536l-.522-2.96-2.794.494.225 1.276a.967.967 0 001.12.784z" fill="#F1D0A5"/>
  <path d="M22.612 6.39a.292.292 0 00-.173-.056h-1.538c-.03 0-.06.007-.086.02-.63.332-1.06.992-1.06 1.753v.71h-.95v1.352h.95v2.28c0 .738.374 1.426.993 1.83l.586.381v2.671h1.829V7.478c0-.446-.217-.842-.551-1.087z" fill="#E28086"/>
  <path d="M22.612 6.39a.292.292 0 00-.172-.056h-1.128c.015.08.023.162.023.246V17.33h1.828V7.478c0-.446-.217-.842-.55-1.087z" fill="#DD636E"/>
  <path d="M16.777 8.817h.885v1.352h-1.796v-.442a.91.91 0 01.91-.91z" fill="#F1D0A5"/>
  <path d="M17.661 8.728h1.144v1.441H17.66V8.73zM21.12 17.331h2.043v1.2H21.12v-1.2z" fill="#F6E266"/>
  <path d="M9.534 15.998c-.94 0-1.706.765-1.706 1.705 0 .94.765 1.706 1.706 1.706.94 0 1.705-.765 1.705-1.706 0-.94-.765-1.705-1.705-1.705zm0 2.737a1.033 1.033 0 010-2.064 1.033 1.033 0 010 2.064z" fill="#000"/>
  <path d="M23.163 10.275c.186 0 .337-.15.337-.337v-2.46c0-.534-.257-1.042-.688-1.359a.623.623 0 00-.077-.048l-.427-2.423.707-.125a.337.337 0 00-.117-.663l-.727.128a1.743 1.743 0 00-.655-.87A1.757 1.757 0 0018.78 3.86l.237 1.341c.112.636.67 1.084 1.295 1.078a2.309 2.309 0 00-.893 1.827v.373h-.386a.336.336 0 00-.228-.089h-1.143a.336.336 0 00-.228.089h-.658c-.687 0-1.247.56-1.247 1.247v.08l-2.437-.172-.454-2.01L14.66 5.87a1.537 1.537 0 012.088.074.337.337 0 00.476 0l.957-.957a.337.337 0 000-.476 3.57 3.57 0 00-4.85-.17l-.442.384a.337.337 0 00.442.508l.442-.384a2.896 2.896 0 013.679-.086l-.484.484a2.215 2.215 0 00-2.75.114L9.58 9.388l-.958-.068 3.487-3.028a.337.337 0 00-.442-.509L7.918 9.04 6.436 5.533a3.277 3.277 0 00-3.024-2.005H.837a.337.337 0 00-.337.337v13.556c0 .186.15.337.337.337h2.77a.337.337 0 100-.674H1.175V9.936h4.942c.186 0 .337-.15.337-.337v-.764c0-.57-.436-1.041-.993-1.096l-.504-1.192a2.06 2.06 0 00-1.902-1.26h-1.88V4.201h2.238c1.051 0 1.995.626 2.404 1.594l1.66 3.928a.337.337 0 00.289.211l8.424.593a1.538 1.538 0 011.413 1.34H13.91a.337.337 0 00-.337.336v.838c0 .76.619 1.379 1.379 1.379h2.662v1.085h-3.11a.337.337 0 00-.338.337v1.241h-1.169a3.524 3.524 0 00-3.463-2.899 3.524 3.524 0 00-3.464 2.9h-.89a.337.337 0 100 .673h.836a3.522 3.522 0 003.518 3.463 3.522 3.522 0 003.517-3.463h1.115v.16c0 .186.151.337.337.337h3.806c.186 0 .337-.15.337-.337v-2.075a.337.337 0 00-.337-.337h-.021v-3.45c0-.6-.244-1.15-.64-1.55h1.77v1.942c0 .856.429 1.646 1.146 2.113l.434.282v2.174a.337.337 0 00-.215.314v1.2c0 .144.09.266.215.315v.221c0 .125-.094.23-.219.243l-.587.064a.788.788 0 00-.704.785v.497c0 .312.254.565.566.565h3.11c.185 0 .336-.15.336-.337v-9.373a.337.337 0 10-.674 0v5.483h-1.154V14.66a.337.337 0 00-.154-.282l-.586-.382a1.84 1.84 0 01-.84-1.548v-1.942h.77c.382 0 .728-.212.902-.553l.29-.568a.337.337 0 10-.6-.306l-.29.568a.338.338 0 01-.303.185h-1.72v-.678h1.306a.337.337 0 00.3-.184l.38-.744a.337.337 0 00-.601-.306l-.285.56h-.148v-.373c0-.6.323-1.146.846-1.436h1.486c.255.194.401.487.401.807v2.46c0 .186.151.337.337.337zM5.78 8.835v.427H4.763a.428.428 0 010-.854h.589c.236 0 .427.192.427.427zM3.054 5.96c.56 0 1.064.333 1.282.85l.39.925a1.102 1.102 0 00-.978 1.527H1.174V5.96h1.88zm6.48 14.587a2.847 2.847 0 01-2.844-2.844 2.847 2.847 0 012.844-2.844 2.847 2.847 0 012.844 2.844 2.847 2.847 0 01-2.844 2.844zm8.438-2.966H14.84V16.18h3.132v1.401zm-3.725-4.539v-.5h1.084v1.205h-.379a.706.706 0 01-.705-.705zm3.36.705h-1.602V12.54h1.602v1.206zm5.22 6.8h-2.665v-.388c0-.059.045-.108.103-.115l.588-.064a.917.917 0 00.819-.913v-.198h1.154v1.678zm0-2.879v.527h-1.37v-.527h1.37zm-6.624-7.94c0-.317.257-.574.573-.574h.549v.678h-1.122v-.105zM12.06 8.126l.33 1.458-1.859-.13 1.53-1.328zm5.938.938h.47v.767h-.47v-.767zm2.323-6.574a1.074 1.074 0 01.808.18c.161.111.286.262.365.436l-2.063.364c.037-.48.395-.893.89-.98zm.865 3.506l-.005-.03a.51.51 0 00-.632-.402 1.515 1.515 0 01-.139.031.63.63 0 01-.73-.51l-.166-.945 2.13-.376.394 2.232h-.852z" fill="#000"/>
</svg>
