<svg width="24" height="24" fill="none" xmlns="http://www.w3.org/2000/svg">
  <defs>
    <path d="M8.27 5.172h7.458V6.64H8.27V5.172z" fill="#5A67AD" id="reuse-0"/>
  </defs>
  <path d="M17.39 23.05H6.61a1.415 1.415 0 01-1.416-1.414V8.056c0-.782.634-1.416 1.415-1.416H17.39c.782 0 1.415.634 1.415 1.415v13.58c0 .782-.633 1.416-1.415 1.416z" fill="#5B9ED6"/>
  <path d="M17.39 6.64h-2.3c.782 0 1.416.634 1.416 1.415v13.581c0 .781-.634 1.415-1.415 1.415h2.3c.78 0 1.414-.634 1.414-1.415V8.056c0-.782-.633-1.416-1.415-1.416z" fill="#487CA8"/>
  <use xlink:href="#reuse-0"/>
  <use xlink:href="#reuse-0"/>
  <path d="M13.481 5.172h2.246V6.64h-2.246V5.172z" fill="#475187"/>
  <path d="M6.72.95h10.557v4.222H6.721V.949z" fill="#5B9ED6"/>
  <path d="M14.581.95h2.697v4.222H14.58V.949z" fill="#487CA8"/>
  <path d="M7.339 9.089h9.321v11.513H7.34V9.09z" fill="#D7E4EF"/>
  <path d="M13.964 9.089h2.696v11.513h-2.696V9.09z" fill="#B3BEC7"/>
  <path d="M15.178 14.845a3.178 3.178 0 11-6.357 0 3.178 3.178 0 016.357 0z" fill="#EF2D57"/>
  <path d="M13.564 12.08a3.178 3.178 0 01-4.33 4.33 3.177 3.177 0 005.944-1.564c0-1.187-.65-2.22-1.614-2.767z" fill="#BF2445"/>
  <path d="M17.459 6.249h-1.356v-.81h1.228c.187 0 .337-.15.337-.337V2.97a.337.337 0 00-.673 0v1.796H15.06V1.174h1.935v.404a.337.337 0 10.673 0V.837A.337.337 0 0017.331.5H6.667a.337.337 0 00-.336.337v4.265c0 .187.15.337.336.337h1.23v.81H6.54c-.966 0-1.752.786-1.752 1.752v13.747c0 .966.786 1.752 1.752 1.752h10.919c.966 0 1.752-.786 1.752-1.752V8.001c0-.966-.786-1.752-1.752-1.752zm-3.072-1.484h-2.05V1.174h2.05v3.591zm-4.775 0V1.174h2.05v3.591h-2.05zM7.004 1.174H8.94v3.591H7.004V1.174zM8.57 5.439h6.859v.81H8.57v-.81zm9.967 16.309a1.08 1.08 0 01-1.078 1.078H6.54a1.08 1.08 0 01-1.078-1.078V8.001A1.08 1.08 0 016.54 6.923h10.919A1.08 1.08 0 0118.537 8v13.747z" fill="#000"/>
  <path d="M10.524 15.211h1.139v1.139a.337.337 0 00.674 0V15.21h1.138a.337.337 0 100-.674h-1.138V13.4a.337.337 0 00-.674 0v1.139h-1.139a.337.337 0 000 .673z" fill="#000"/>
  <path d="M12 18.422a3.551 3.551 0 003.547-3.548A3.551 3.551 0 0012 11.327a3.551 3.551 0 00-3.548 3.547A3.551 3.551 0 0012 18.422zM12 12a2.877 2.877 0 012.873 2.873A2.877 2.877 0 0112 17.748a2.877 2.877 0 01-2.874-2.874A2.877 2.877 0 0112 12.002z" fill="#000"/>
  <path d="M16.707 8.722h-6.183a.337.337 0 100 .674h5.847v10.957H7.627V9.396h1.16a.337.337 0 100-.674H7.292a.337.337 0 00-.337.337v11.63c0 .187.15.338.337.338h9.416c.187 0 .337-.151.337-.337V9.06a.337.337 0 00-.337-.338z" fill="#000"/>
</svg>
