<svg width="24" height="24" fill="none" xmlns="http://www.w3.org/2000/svg">
  <defs/>
  <path d="M11.911 22.163c.68 0 1.25-.467 1.407-1.096a4.484 4.484 0 01-1.552-3.398c0-1.378.62-2.611 1.596-3.436v-5.71c0-.802-.65-1.452-1.45-1.452H2.296c-.802 0-1.451.65-1.451 1.451v12.19c0 .801.65 1.45 1.45 1.45h9.615z" fill="#5B9ED6"/>
  <path d="M11.911 7.071h-1.074c.8 0 1.45.65 1.45 1.451v4.98c0 .226-.08.445-.227.617a5.49 5.49 0 00-1.012 1.791 4.478 4.478 0 00-.357 1.759 4.478 4.478 0 00.365 1.78.957.957 0 01-.901 1.271H2.297a1.45 1.45 0 01-1.451-1.45v1.442c0 .801.65 1.45 1.45 1.45h9.615a1.448 1.448 0 001.191-.622l.008-.011a1.945 1.945 0 00.058-.093l.01-.017.02-.037.01-.02a1.328 1.328 0 00.028-.057l.015-.036a.511.511 0 00.01-.022l.013-.037a.7.7 0 00.008-.022l.014-.041.006-.02.017-.06a4.462 4.462 0 01-.145-.131l-.016-.016a4.504 4.504 0 01-.133-.133l-.018-.018a4.356 4.356 0 01-.268-.308 4.476 4.476 0 01-.973-2.792c0-1.378.62-2.611 1.597-3.436v-5.71c0-.802-.65-1.452-1.452-1.452z" fill="#4C83B3"/>
  <path d="M3.675 5.72h6.858v1.351H3.675v-1.35z" fill="#5A67AD"/>
  <path d="M8.77 5.72h1.763v1.351H8.77v-1.35z" fill="#48538A"/>
  <path d="M2.25 3.78v1.94h9.708V1.839H2.25v1.941z" fill="#5B9ED6"/>
  <path d="M9.512 1.838h2.445V5.72H9.512V1.838z" fill="#4C83B3"/>
  <path d="M10.867 14.617a3.763 3.763 0 11-7.526 0 3.763 3.763 0 017.526 0z" fill="#EF2D57"/>
  <path d="M9.237 11.517a3.763 3.763 0 01-5.233 5.233 3.763 3.763 0 105.233-5.233z" fill="#D9294F"/>
  <path d="M20.754 17.669a4.494 4.494 0 11-8.988 0 4.494 4.494 0 018.988 0z" fill="#FCDA55"/>
  <path d="M18.976 14.088a4.494 4.494 0 01-6.297 6.296 4.494 4.494 0 106.297-6.296z" fill="#D9BC4A"/>
  <path d="M13.174 20.892c.172.15.356.286.549.409l6.2-6.2a4.52 4.52 0 00-.41-.549.346.346 0 00-.077.058l-6.204 6.204a.352.352 0 00-.058.078z" fill="#D9BC4A"/>
  <path d="M20.29 7.592a3.473 3.473 0 012.864 3.418v6.338a3.473 3.473 0 01-3.685 3.466 4.494 4.494 0 00-3.21-7.64l-.05.001V11.01a3.473 3.473 0 012.865-3.418s.774-.083 1.216 0z" fill="#F084AD"/>
  <path d="M20.29 7.592h-1.216l-.037.007a3.473 3.473 0 012.828 3.411v6.338a3.473 3.473 0 01-2.173 3.22 4.508 4.508 0 01-.223.246 3.473 3.473 0 003.686-3.466V11.01a3.473 3.473 0 00-2.865-3.418z" fill="#D47499"/>
  <path d="M19.092 14.18a4.485 4.485 0 011.662 3.489 4.48 4.48 0 01-1.285 3.145 3.473 3.473 0 003.686-3.466V14.18h-4.063z" fill="#EF2D57"/>
  <path d="M21.865 17.348a3.473 3.473 0 01-2.173 3.22 4.842 4.842 0 01-.223.246 3.473 3.473 0 003.686-3.466V14.18h-1.29v3.17z" fill="#CC264B"/>
  <path d="M8.833 14.271H7.45v-1.384a.345.345 0 10-.69 0v1.384H5.375a.345.345 0 100 .691h1.384v1.384a.345.345 0 10.69 0v-1.384h1.384a.346.346 0 100-.69z" fill="#000"/>
  <path d="M11.213 14.617a4.114 4.114 0 00-4.11-4.11 4.113 4.113 0 00-4.108 4.11 4.113 4.113 0 004.109 4.109 4.114 4.114 0 004.109-4.11zm-4.11 3.418a3.422 3.422 0 01-3.417-3.418 3.422 3.422 0 013.418-3.418 3.422 3.422 0 013.418 3.418 3.422 3.422 0 01-3.418 3.418z" fill="#000"/>
  <path d="M20.704 7.331a.346.346 0 00-.185.666 3.135 3.135 0 012.29 3.013v2.824h-3.616c-.262-.202-.23-.167-.517-.334-.455-.265-.44-.246-.84-.385-.476-.166-.504-.162-.916-.22-.123-.016-.24-.05-.365-.057V11.01a3.12 3.12 0 012.579-3.078.346.346 0 00-.12-.68 3.81 3.81 0 00-3.15 3.758v1.859a4.79 4.79 0 00-2.156.705V8.522c0-.99-.806-1.796-1.797-1.796h-1.033v-.66h1.08c.19 0 .345-.155.345-.345V1.837a.345.345 0 00-.345-.345H2.25a.345.345 0 00-.346.345v.675a.345.345 0 10.691 0v-.33H4.28v3.193H2.595V4.282a.345.345 0 10-.69 0v1.439c0 .19.154.345.345.345h1.08v.66H2.296C1.306 6.726.5 7.53.5 8.522v12.19c0 .99.806 1.796 1.796 1.796h5.711a.346.346 0 100-.691h-5.71c-.61 0-1.106-.496-1.106-1.106V8.522c0-.61.496-1.106 1.105-1.106h9.615c.61 0 1.106.496 1.106 1.106v5.554c-.033.03-.055.067-.087.097-.13.123-.243.261-.358.399-.288.342-.261.27-.559.824-.154.287-.2.27-.4.996-.01.033-.193.465-.193 1.276 0 .647.129 1.289.387 1.893.047.11.116.209.17.315.332.638.288.518.572.862.107.128.206.263.325.38.016.015.027.035.044.051-.176.39-.566.648-1.007.648H9.584a.345.345 0 100 .69h2.327a1.78 1.78 0 001.546-.909 4.787 4.787 0 006.133-.435c2.144.057 3.91-1.68 3.91-3.815V11.01c0-1.71-1.15-3.223-2.796-3.679zm-9.092-1.956H9.93V2.183h1.683v3.192zm-4.163 0V2.183h1.79v3.192h-1.79zM4.97 2.183h1.79v3.192h-1.79V2.183zM4.02 6.066h6.167v.66H4.02v-.66zm12.24 7.454a4.11 4.11 0 012.664.995l-5.818 5.818c-2.342-2.767-.241-6.813 3.153-6.813zm-2.665 7.301l5.818-5.817c2.352 2.78.23 6.813-3.154 6.813a4.11 4.11 0 01-2.664-.996zm6.642-.395a5.076 5.076 0 00.862-2.758c0-.826-.185-1.25-.187-1.258-.186-.685-.195-.606-.354-.917-.189-.373-.228-.487-.642-.969h2.893v2.824a3.132 3.132 0 01-2.572 3.078z" fill="#000"/>
</svg>
