<svg width="24" height="24" fill="none" xmlns="http://www.w3.org/2000/svg">
  <defs/>
  <path d="M21.284 15.76H1.433a.606.606 0 01-.604-.604V1.796c0-.332.272-.604.604-.604h19.851c.333 0 .604.272.604.604v13.36a.606.606 0 01-.604.604z" fill="#FFF7E6"/>
  <g fill="#D3E8F1">
    <path d="M12.384 8.382a.377.377 0 01-.24-.669l2.514-2.08a.377.377 0 01.48.581l-2.513 2.08a.376.376 0 01-.24.088zM10.08 7.98a.376.376 0 01-.285-.128L8.02 5.828a.377.377 0 01.567-.498l1.777 2.024a.377.377 0 01-.284.627z"/>
  </g>
  <path d="M9.182 19.87a.377.377 0 01-.334-.202l-3.545-6.711a.377.377 0 11.667-.353l3.546 6.712a.378.378 0 01-.334.554z" fill="#A0758E"/>
  <path d="M10.095 22.699a1.963 1.963 0 100-3.925 1.963 1.963 0 000 3.925z" fill="#FED1A9"/>
  <path d="M16.167 6.73a1.809 1.809 0 100-3.618 1.809 1.809 0 000 3.618z" fill="#FEA8D6"/>
  <path d="M11.191 10.313a1.583 1.583 0 100-3.165 1.583 1.583 0 000 3.165z" fill="#6BE8C7"/>
  <path d="M8.035 6.213a.95.95 0 100-1.9.95.95 0 000 1.9z" fill="#FEA8D6"/>
  <g fill="#FFEFCA">
    <path d="M21.284 15.76a.606.606 0 00.604-.604V1.796a.606.606 0 00-.604-.603"/>
    <path d="M21.85 10.052C18.9 7.033 10.583 7.614 11.389 15.791h10.027l.436-5.739z"/>
  </g>
  <path d="M17.643 20.145a5.53 5.53 0 100-11.059 5.53 5.53 0 000 11.06z" fill="#FFD2A1"/>
  <path d="M17.643 18.265a1.076 1.076 0 100-2.152 1.076 1.076 0 000 2.152z" fill="#fff"/>
  <g fill="#F9BA8F">
    <path d="M15.867 14.239h-3.74a5.613 5.613 0 000 .755h3.74a.377.377 0 100-.755zM19.311 14.239a.377.377 0 100 .754h3.753a.376.376 0 00.097-.013 5.572 5.572 0 000-.728.376.376 0 00-.097-.013h-3.753z"/>
  </g>
  <path d="M17.593 8.659a5.914 5.914 0 00-5.908 5.907 5.914 5.914 0 005.908 5.907 5.914 5.914 0 005.907-5.907 5.914 5.914 0 00-5.907-5.907zm0 11.06a5.16 5.16 0 01-5.139-4.776h3.362a.377.377 0 100-.754h-3.362a5.159 5.159 0 015.139-4.775 5.159 5.159 0 015.138 4.775h-3.47a.377.377 0 100 .754h3.47a5.159 5.159 0 01-5.138 4.775z" fill="#000"/>
  <path d="M17.593 15.685c-.802 0-1.454.652-1.454 1.454 0 .802.652 1.454 1.454 1.454.801 0 1.453-.652 1.453-1.454 0-.802-.652-1.454-1.453-1.454zm0 2.153a.7.7 0 11.001-1.4.7.7 0 01-.002 1.4zM5.233 15.349H1.255V1.729h20.203v6.46a.377.377 0 00.754 0V1.35a.377.377 0 00-.377-.378H.877a.377.377 0 00-.377.378v14.375c0 .209.169.378.377.378h4.356a.377.377 0 100-.755zM9.13 15.349a.377.377 0 000 .755h1.055a.377.377 0 100-.755H9.129z" fill="#000"/>
  <path d="M5.74 7.329H3.017a.377.377 0 000 .755H5.74a.377.377 0 000-.755zM5.74 9.292H3.017a.377.377 0 000 .755H5.74a.377.377 0 000-.755zM16.114 6.705a1.84 1.84 0 001.819-2.082 1.84 1.84 0 00-2.065-1.57A1.84 1.84 0 0014.3 5.119c.028.205.09.398.179.574l-1.933 1.624a1.957 1.957 0 00-2.457-.287l-.842-1.036a.375.375 0 00-.124-.1 1.316 1.316 0 00.177-.86 1.331 1.331 0 00-1.495-1.135A1.331 1.331 0 006.67 5.392a1.331 1.331 0 001.494 1.136c.16-.022.31-.072.445-.145.013.03.03.06.052.086l.88 1.083a1.947 1.947 0 00-.342 1.393 1.966 1.966 0 002.207 1.678 1.967 1.967 0 001.678-2.207 1.948 1.948 0 00-.123-.463l1.989-1.671c.32.264.727.423 1.165.423zM8.061 5.78a.574.574 0 01-.155-1.134.574.574 0 01.65.568.574.574 0 01-.495.566zm7.91-1.978a1.082 1.082 0 011.225 1.07 1.082 1.082 0 01-1.082 1.078 1.082 1.082 0 01-1.077-1.081c0-.536.401-.995.933-1.067zm-4.668 6.073a1.209 1.209 0 01-1.368-1.196 1.209 1.209 0 011.207-1.204 1.209 1.209 0 011.204 1.208c0 .598-.448 1.11-1.043 1.192zM19.292 3.085v3.799a.377.377 0 10.755 0v-3.8a.377.377 0 00-.755 0zM3.647 3.971v-.886a.377.377 0 00-.754 0v.886a.377.377 0 00.754 0zM4.85 3.971v-.886a.377.377 0 00-.754 0v.886a.377.377 0 00.755 0zM10.045 18.346c-.324 0-.633.067-.914.186l-3.437-6.506a.377.377 0 00-.668.352l3.466 6.56a2.334 2.334 0 00-.787 1.748c0 1.29 1.05 2.34 2.34 2.34 1.29 0 2.34-1.05 2.34-2.34 0-1.29-1.05-2.34-2.34-2.34zm0 3.926a1.587 1.587 0 01-1.585-1.586c0-.874.711-1.585 1.585-1.585s1.586.711 1.586 1.585c0 .875-.712 1.586-1.586 1.586z" fill="#000"/>
</svg>
