<svg width="24" height="24" fill="none" xmlns="http://www.w3.org/2000/svg">
  <defs/>
  <path d="M19.408 8.315l-.045.046v14.738H4.626V8.361l-.046-.046L11.994.902l7.414 7.413z" fill="#CFDCE5"/>
  <path d="M16.572 12.541H7.417v10.557h9.155V12.542z" fill="#BAC6CC"/>
  <path d="M16.572 7.964H7.417v2.65h9.155v-2.65z" fill="#4EBFED"/>
  <path d="M19.369 18.564a.402.402 0 00-.401.402v3.73h-1.989V12.542a.402.402 0 00-.401-.401H7.423a.402.402 0 00-.402.401v10.156H5.033V8.437L8.268 5.2a.402.402 0 10-.567-.567l-6.406 6.405a.402.402 0 10.568.568L4.23 9.24v13.859c0 .221.18.401.402.401h14.737c.222 0 .402-.18.402-.401v-4.133a.402.402 0 00-.402-.402zM7.824 17.166h2.83a.402.402 0 100-.803h-2.83v-1.309h8.352v1.309h-4.183a.402.402 0 100 .803h4.183v1.308H7.824v-1.308zm8.352-4.223v1.308H7.824v-1.308h8.352zm-8.352 9.754v-1.308h6.043a.402.402 0 000-.803H7.824v-1.309h8.352v1.308h-.97a.401.401 0 100 .804h.97v1.308H7.824z" fill="#000"/>
  <path d="M22.706 11.039L12.285.618a.401.401 0 00-.568 0L8.624 3.71a.402.402 0 10.568.568l2.809-2.809 6.967 6.968v9.19a.402.402 0 10.803 0V9.24l2.367 2.367a.4.4 0 00.568 0 .402.402 0 000-.568z" fill="#000"/>
  <path d="M7.021 7.964v2.65c0 .222.18.401.402.401h9.155c.222 0 .402-.18.402-.401v-2.65a.401.401 0 00-.402-.402H7.423a.402.402 0 00-.402.402zm3.695 2.248V8.365h2.57v1.847h-2.57zm5.46 0H14.09V8.365h2.088v1.847zM7.826 8.365h2.088v1.847H7.825V8.365z" fill="#000"/>
</svg>
