<svg width="24" height="24" fill="none" xmlns="http://www.w3.org/2000/svg">
  <defs/>
  <path d="M17.43 21.301H7.256a5.086 5.086 0 1110.172 0z" fill="#D9D9D9"/>
  <path d="M12.343 16.215c-.244 0-.484.018-.719.05a5.087 5.087 0 014.368 5.036h1.437a5.086 5.086 0 00-5.086-5.086z" fill="#C2C2C2"/>
  <path d="M9.02 15.94H3.63a.494.494 0 01-.494-.495v-.508c0-.273.221-.494.494-.494h5.39c.272 0 .493.22.493.494v.508a.494.494 0 01-.494.495z" fill="#ADDFF5"/>
  <path d="M9.02 14.443H7.581c.273 0 .494.22.494.494v.508a.494.494 0 01-.494.495h1.437a.494.494 0 00.494-.495v-.508a.494.494 0 00-.494-.494z" fill="#8BB3C4"/>
  <path d="M6.725 15.94H4.632c.02.07.046.138.083.203a8.228 8.228 0 003.002 3.042 5.097 5.097 0 011.03-1.48 6.444 6.444 0 01-2.022-1.765z" fill="#A8A8A8"/>
  <path d="M13.286 18.758a.943.943 0 11-1.886 0 .943.943 0 011.886 0z" fill="#6B6B6B"/>
  <path d="M16.449 5.341a.898.898 0 01.308.148 8.288 8.288 0 012.422 2.849c.506.98.807 2.066.887 3.171l.009 1.044a8.215 8.215 0 01-3.348 6.168 5.105 5.105 0 00-1.175-1.366 6.419 6.419 0 002.74-5.258 6.37 6.37 0 00-2.604-5.164" fill="#A8A8A8"/>
  <path d="M20.065 11.51a8.235 8.235 0 00-.886-3.172 8.288 8.288 0 00-2.423-2.849.898.898 0 00-.308-.148l-.221.464a8.29 8.29 0 012.024 2.533c.505.98.806 2.066.886 3.171l.009 1.044a8.201 8.201 0 01-2.748 5.681c.119.156.229.318.329.487a8.216 8.216 0 003.347-6.168l-.009-1.044z" fill="#8C8C8C"/>
  <path d="M3.821 23.163l.74-1.862h15.565l.739 1.862H3.82z" fill="#757575"/>
  <path d="M20.125 21.301h-1.287l.74 1.862h1.287l-.74-1.862z" fill="#616161"/>
  <path d="M18.756 3.847l-.297.296a.5.5 0 01-.706 0l-2.157-2.157a.5.5 0 010-.707l.296-.296a.5.5 0 01.706 0l2.158 2.157a.5.5 0 010 .707z" fill="#5B9ED6"/>
  <path d="M18.756 3.14l-1.079-1.078.264.263a.5.5 0 010 .707l-.296.296a.5.5 0 01-.707 0l-1.342-1.342 2.157 2.157a.5.5 0 00.706 0l.297-.296a.5.5 0 000-.707z" fill="#4F89BA"/>
  <path d="M11.51 12.261l-.564.564a.384.384 0 01-.543 0L6.914 9.336a.384.384 0 010-.543l.564-.563c.15-.15.393-.15.543 0l3.488 3.488c.15.15.15.393 0 .543z" fill="#5B9ED6"/>
  <path d="M11.509 11.718l-.815-.815c.15.15.15.393 0 .543l-.564.564a.385.385 0 01-.543 0l.815.815c.15.15.393.15.543 0l.564-.564a.384.384 0 000-.543z" fill="#4F89BA"/>
  <path d="M8.302 10.725l-.711.712a.517.517 0 01-.73 0l-.346-.347a.517.517 0 010-.73l.71-.711 1.077 1.076zM10.09 12.512l-.71.712a.516.516 0 01-.731 0l-.346-.346a.516.516 0 010-.73l.71-.712 1.077 1.076z" fill="#ADDFF5"/>
  <path d="M13.942 4.009L15.78 2.17l1.92 1.92-1.838 1.837-1.92-1.92z" fill="#A8A8A8"/>
  <path d="M16.885 3.275l-1.838 1.838-1.105-1.104 1.92 1.919L17.7 4.09l-.815-.815z" fill="#8C8C8C"/>
  <path d="M8.333 8.542l5.071-5.071 2.864 2.863-5.071 5.072-2.864-2.864z" fill="#D9D9D9"/>
  <path d="M13.404 3.47l2.05 2.05-5.072 5.07.815.816 5.071-5.072-2.864-2.863z" fill="#C2C2C2"/>
  <path d="M12.343 17.478c-.706 0-1.28.574-1.28 1.28 0 .706.574 1.28 1.28 1.28.705 0 1.28-.574 1.28-1.28 0-.706-.575-1.28-1.28-1.28zm0 1.886a.607.607 0 110-1.214.607.607 0 010 1.214z" fill="#000"/>
  <path d="M20.438 21.177a.337.337 0 00-.313-.213h-2.393a5.354 5.354 0 00-.595-2.144 8.566 8.566 0 003.239-5.817.337.337 0 10-.67-.071 7.899 7.899 0 01-2.893 5.298c-.077-.111-.177-.202-.261-.307-.136-.167-.265-.339-.418-.49-.018-.017-.031-.04-.05-.057 3.317-2.654 3.434-7.708.092-10.474l.33-.33a.337.337 0 000-.476l-.168-.168.184-.184c.725.466 1.733 1.535 2.358 2.748a7.94 7.94 0 01.85 3.041.337.337 0 10.671-.048 8.529 8.529 0 00-3.395-6.226l.731-.73a.81.81 0 00.96-.148l.297-.296a.837.837 0 000-1.183L16.836.745a.837.837 0 00-1.183 0l-.296.296a.83.83 0 00-.042 1.119l-1.373 1.372-.3-.3a.337.337 0 00-.476 0L11.019 5.38a.337.337 0 10.477.476l1.908-1.908 2.387 2.387-4.594 4.595-2.388-2.387 1.714-1.714a.337.337 0 00-.477-.476L8.333 8.065l-.074-.074a.722.722 0 00-1.02 0l-.564.564a.722.722 0 000 1.02l.075.074c-.31.362-.723.552-.723 1.076 0 .228.088.442.25.604.253.209.44.595.949.595.525 0 .712-.413 1.076-.723l.235.235c-.309.363-.723.552-.723 1.076 0 .506.386.695.596.95.161.161.375.25.603.25.526 0 .713-.413 1.077-.723.046.033.208.285.584.285.184 0 .369-.07.51-.211l.563-.564a.721.721 0 000-1.02l-.074-.074 4.014-4.014c1.432 1.162 2.267 2.85 2.267 4.706a6.09 6.09 0 01-2.42 4.842c-2.097-1.539-4.876-1.388-6.802.346a6.039 6.039 0 01-1.238-1.009H9.02c.459 0 .831-.372.831-.83v-.51a.832.832 0 00-.83-.83H3.63a.832.832 0 00-.831.83v.51c0 .458.373.83.83.83h.78c.557 1.057 1.591 2.212 2.9 3.039a5.378 5.378 0 00-.355 1.65H4.56a.337.337 0 00-.313.212l-.74 1.862a.337.337 0 00.314.461h1.86a.337.337 0 100-.674H4.317l.472-1.188h15.108l.472 1.188H7.257a.337.337 0 000 .674h13.608c.237 0 .4-.24.313-.461l-.74-1.863zM7.353 11.198a.18.18 0 01-.254 0l-.346-.346a.18.18 0 010-.254l.473-.473.6.6-.473.473zm1.787 1.787a.18.18 0 01-.254 0l-.346-.346a.18.18 0 010-.254l.473-.473.6.6-.473.473zm2.13-.962l-.563.563c-.065.066.107.143-3.555-3.488a.047.047 0 010-.067c.568-.56.58-.614.63-.564l.313.313c3.355 3.355 3.228 3.19 3.176 3.243zm4.564-10.506l.296-.296a.163.163 0 01.23 0l2.157 2.157a.163.163 0 010 .23l-.296.297a.163.163 0 01-.23 0l-2.157-2.158a.163.163 0 010-.23zm-.054 1.13l1.443 1.443-1.361 1.362-1.443-1.444 1.361-1.361zM3.472 15.445v-.509c0-.086.071-.157.158-.157h5.39c.086 0 .156.07.156.157v.51c0 .086-.07.157-.157.157H3.63a.157.157 0 01-.157-.158zm4.108 3.26a7.904 7.904 0 01-2.393-2.429h1.372a6.723 6.723 0 001.658 1.504c-.066.079-.112.172-.174.254-.113.148-.219.3-.316.46-.045.073-.105.136-.147.211zm.025 2.259c.17-2.405 2.229-4.412 4.738-4.412 2.56 0 4.572 2.062 4.737 4.412H7.605z" fill="#000"/>
</svg>
