<svg width="24" height="24" fill="none" xmlns="http://www.w3.org/2000/svg">
  <defs/>
  <path d="M16.562 23.162v-4.081c0-.817.36-1.595.99-2.114a8.64 8.64 0 003.162-6.803A8.616 8.616 0 0019.587 6l-4.34 1.448 3.192-2.788-1.987-1.275.505-.246a8.62 8.62 0 00-4.882-1.518A8.65 8.65 0 004.76 5.622l-.502.898a8.62 8.62 0 00-.855 3.757c0 .572.162 1.672.162 1.672l-1.275 2.255a.964.964 0 00.474 1.367l1.544.632v2.587c0 .901.73 1.632 1.632 1.632h2.124v2.74h8.499z" fill="#EFB490"/>
  <path d="M9.566 2.88c2.886 0 5.494 1.186 7.365 3.096L18.44 4.66l-1.987-1.275.505-.246a8.622 8.622 0 00-4.882-1.518 8.616 8.616 0 00-4.967 1.555c.788-.193 1.61-.295 2.458-.295zM19.876 13.19c0 .299-.014.595-.039.887a8.624 8.624 0 00.877-3.913A8.616 8.616 0 0019.587 6l-2.03.677a10.267 10.267 0 012.319 6.513z" fill="#D49F80"/>
  <path d="M21.219 4.8l.617.449-6.589 2.198 3.192-2.788-1.987-1.275L21.68.838l-2.088 2.78.606.44 1.02.742z" fill="#FCDA55"/>
  <path d="M21.219 4.8l-1.02-.742-.607-.44L21.68.838l-1.65.804-1.216 1.617a.738.738 0 00.157 1.04l1.02.742.617.448-5.048 1.684-.313.274 6.589-2.198-.617-.45z" fill="#E3C44D"/>
  <path d="M10.105 19.435c-.73.64-2.03.65-2.042.65H5.938a1.297 1.297 0 01-1.294-1.294v-2.587a.337.337 0 00-.21-.312l-1.543-.632a.627.627 0 01-.309-.89c1.31-2.365 1.345-2.266 1.315-2.47-.002-.01-.158-1.081-.158-1.622 0-1.266.276-2.48.822-3.61a.337.337 0 10-.607-.293 8.908 8.908 0 00-.89 3.903c0 .484.108 1.304.15 1.606l-1.218 2.155a1.302 1.302 0 00.64 1.845l1.334.546v2.36c0 1.086.883 1.97 1.969 1.97h1.787v2.403a.337.337 0 00.674 0V20.74c.507-.047 1.478-.21 2.15-.798a.337.337 0 00-.445-.507zM22.034 4.977l-.617-.449a.337.337 0 00-.397.545l.088.064-1.628.543-2.746.917 1.926-1.683a.337.337 0 00-.04-.537l-1.482-.952 3.434-1.672c-1.234 1.7-1.35 1.67-1.313 1.916.033.221.225.26.537.514a.337.337 0 00.396-.545l-.125-.09L21.95 1.04c.21-.281-.1-.66-.417-.505L16.97 2.758a8.97 8.97 0 00-12.127 2.15.337.337 0 00.54.403c2.684-3.6 7.434-4.242 10.887-2.21-.007.004-.005.016-.012.021-.147.11-.144.248-.143.243.001.005-.017.193.155.303l1.61 1.033-2.855 2.493a.33.33 0 00.085.554c.224.103.01.054 4.316-1.34a8.321 8.321 0 01-2.088 10.3 3.059 3.059 0 00-1.114 2.374v4.08a.337.337 0 10.674 0v-4.08c0-.725.316-1.4.868-1.854 3.196-2.627 4.268-7.152 2.291-11.03l1.886-.63a.337.337 0 00.091-.591z" fill="#000"/>
  <path d="M15.533 8.206c-.492-.043-1.051-.237-1.01-1.359a.337.337 0 00-.674-.024c-.044 1.229.533 1.958 1.625 2.054a.337.337 0 00.06-.67z" fill="#000"/>
</svg>
