<svg width="24" height="24" fill="none" xmlns="http://www.w3.org/2000/svg">
  <defs/>
  <path d="M7.986 17.872a1.88 1.88 0 001.507-2.999l-1.507-2.017-1.508 2.018a1.88 1.88 0 001.508 2.999z" fill="#fff"/>
  <path d="M13.882 20.197c0-.203.164-.367.367-.367h6.194v-9.178h-6.195a.367.367 0 01-.366-.367h-.734v9.912h.734z" fill="#98D9D5"/>
  <path d="M3.558 19.83h8.856v-9.178H3.558v9.178zm4.134-7.807a.367.367 0 01.588 0l1.802 2.411a2.615 2.615 0 01-2.096 4.172 2.616 2.616 0 01-2.096-4.171l1.802-2.412z" fill="#C1E8E6"/>
  <path d="M20.443 20.564h-6.195a.367.367 0 01-.366-.367h-.734v2.569h7.295v-2.202zM13.882 10.285c0-.203.164-.367.367-.367h6.194V7.716h-7.296v2.57l.735-.001zM13.594 6.982h6.402l-3.2-3.628-3.202 3.628z" fill="#FFCC75"/>
  <path d="M8.673 2.432c.203 0 .367.164.367.367h.734c0-.203.165-.367.367-.367h6.288V1.234H7.572v1.198h1.101z" fill="#F2EBD9"/>
  <path d="M9.04 2.799a.367.367 0 01-.367.367H7.371L4.004 6.982h8.611l3.367-3.816h-5.84a.367.367 0 01-.368-.367H9.04z" fill="#fff"/>
  <path d="M12.414 20.564H3.558v2.202h8.856v-2.202zM12.414 7.716H3.558v2.202h8.856V7.716z" fill="#F2EBD9"/>
  <path d="M21.175 7.313l-.002-.014a.262.262 0 00-.011-.053.387.387 0 00-.006-.018l-.005-.014a.474.474 0 00-.023-.048l-.008-.014a.367.367 0 00-.03-.041l-.005-.005-3.923-4.446V.867A.367.367 0 0016.795.5h-9.59a.367.367 0 00-.367.367V2.66L2.915 7.106l-.004.004-.01.014a.377.377 0 00-.067.137l-.004.018-.003.02-.002.014a.369.369 0 00-.002.036v15.784c0 .203.165.367.367.367h17.62a.367.367 0 00.367-.367V7.349c0-.012 0-.024-.002-.036zm-8.761.403v2.202H3.557V7.716h8.857zm0 12.114H3.557v-9.178h8.857v9.178zm1.18-12.848l3.201-3.628 3.202 3.628h-6.403zm2.834-5.748v1.198h-6.287a.367.367 0 000 .734h5.841l-3.367 3.816H4.004L7.37 3.166h1.303a.367.367 0 100-.734H7.572V1.234h8.856zm-12.87 19.33h8.856v2.202H3.557v-2.202zm9.59-12.848h7.295v2.202h-6.194a.367.367 0 100 .734h6.194v9.178h-6.194a.367.367 0 100 .734h6.194v2.202h-7.295V7.716z" fill="#082947"/>
  <path d="M7.986 18.606a2.615 2.615 0 002.096-4.172L8.28 12.023a.367.367 0 00-.588 0l-1.803 2.412a2.615 2.615 0 002.096 4.172zm0-5.75l1.507 2.017a1.88 1.88 0 01-1.508 3 1.88 1.88 0 01-1.507-3l1.508-2.017z" fill="#082947"/>
</svg>
