<svg width="24" height="24" fill="none" xmlns="http://www.w3.org/2000/svg">
  <defs/>
  <g fill-rule="evenodd" clip-rule="evenodd">
    <path d="M11.604 3.984H3.086a.7.7 0 00-.7.699v.484c0 .152.124.277.277.277h10.845a.289.289 0 00.265-.399c-.359-.892-1.331-1.06-2.17-1.06z" fill="#9B9B9B"/>
    <path d="M12.38 17.27l9.904-1.355c-.004-1.927.003-1.966 0-3.013.007-.593-.219-1.39-1.206-1.533-.943-.136-1.297-.216-1.716-.714L17.01 7.954c-.697-.732-.895-.931-1.553-.931H2.47c-.44 0-.801.36-.801.8v8.092l10.71 1.355z" fill="#ECECEC"/>
    <path d="M3.277 15.915H1.607a.77.77 0 000 1.536h2.849a2.408 2.408 0 01.686-1.536H3.277zM22.29 15.915h-3.528a2.384 2.384 0 01.543.855c.08.214.129.443.144.681h2.942a.771.771 0 00.77-.768.77.77 0 00-.77-.768h-.1zM9.102 15.915H7.686a2.416 2.416 0 01.686 1.536h7.609a2.403 2.403 0 01.687-1.536H9.102z" fill="#ACACAC"/>
    <path d="M13.773 5.045c-.359-.892-1.331-1.06-2.17-1.06H9.847c.837 0 1.81.168 2.169 1.06a.29.29 0 01-.266.399H13.508a.289.289 0 00.265-.399z" fill="#838383"/>
    <path d="M11.104 8.586h-7.42a.369.369 0 00-.369.368v1.932c0 .202.166.367.368.367h7.421a.369.369 0 00.368-.367V8.954a.369.369 0 00-.368-.368z" fill="#A6E7F0"/>
    <path d="M4.694 15.915A2.404 2.404 0 004 17.605a2.412 2.412 0 10.693-1.69z" fill="#838383"/>
    <path d="M5.456 17.605a.957.957 0 101.918 0 .957.957 0 00-1.918 0z" fill="#E6E6E6"/>
    <path d="M17.939 15.194a2.412 2.412 0 11.001 4.824 2.412 2.412 0 01-.001-4.824z" fill="#838383"/>
    <path d="M16.981 17.605c0 .53.43.957.958.957a.957.957 0 10-.958-.957z" fill="#E6E6E6"/>
    <path d="M20.473 13.645c0 .259.212.471.47.471h1.341v-1.295h-1.34a.473.473 0 00-.471.47v.354z" fill="#A6E7F0"/>
    <path d="M7.3 15.915a2.403 2.403 0 01.686 1.684c0 1.194-.87 2.186-2.01 2.378a2.411 2.411 0 10.033-4.749c.5.09.944.335 1.284.68l.006.007zM18.825 15.915a2.396 2.396 0 01.686 1.684c0 1.194-.87 2.186-2.009 2.378a2.411 2.411 0 10.034-4.749c.498.09.942.335 1.282.68h.002c0 .003.003.005.005.007z" fill="#595959"/>
    <path d="M21.291 12.82v1.296h.992l.001-.355v-.906-.034h-.993zM10.274 9.402H3.315v-.448c0-.202.166-.368.368-.368h7.421c.203 0 .368.166.368.368v1.932a.369.369 0 01-.368.367h-.462V9.77a.369.369 0 00-.368-.368z" fill="#6BD9E7"/>
    <path d="M16.754 10.438l-1.202-1.495c-.19-.238-.361-.357-.713-.357h-1.568c-.082 0-.149.051-.153.114l.004 2.009c0 .258.24.524.623.524H17c.073-.003.13-.05.13-.106v-.14c0-.192-.098-.203-.377-.55z" fill="#A6E7F0"/>
    <path d="M14.84 8.586h-1.172c.351 0 .522.119.714.357l1.2 1.495c.28.346.378.357.378.548v.141c0 .056-.058.103-.13.106H17c.073-.003.13-.05.13-.106v-.14c0-.192-.097-.203-.376-.55l-1.202-1.494c-.19-.238-.361-.357-.713-.357zM21.3 12.82c-.002.386-.002.824-.002 1.296h.985c.002-.127.002-.242.002-.355V12.821h-.986z" fill="#6BD9E7"/>
    <path d="M20.824 11.33c.346.302.457.753.467 1.137a.92.92 0 010 .082v.272h.993c-.015-.582-.262-1.316-1.205-1.452-.09-.013-.175-.025-.255-.038z" fill="#CECECE"/>
    <path d="M21.3 12.82l-.002 1.296h.985c.002-.127.002-.242.002-.355V12.821h-.986z" fill="#6BD9E7"/>
    <path d="M22.283 14.116h-.992v1.8h.993c-.002-.933-.001-1.425-.001-1.8z" fill="#CECECE"/>
  </g>
  <path d="M14.356 12.367H13.12a.34.34 0 000 .679h1.235a.34.34 0 100-.68zM6.414 16.308c-.715 0-1.297.582-1.297 1.297a1.298 1.298 0 002.595 0c0-.715-.582-1.297-1.298-1.297zm0 1.914a.618.618 0 110-1.237.618.618 0 010 1.237zM17.94 16.308c-.716 0-1.297.582-1.297 1.297a1.298 1.298 0 002.595 0c0-.715-.583-1.297-1.299-1.297zm0 1.914a.618.618 0 110-1.236.618.618 0 010 1.236z" fill="#000"/>
  <path d="M22.624 15.6v-2.694-.076-.01-.017c-.027-.98-.58-1.638-1.495-1.77-.941-.136-1.174-.202-1.506-.597l-.004-.004-2.353-2.701a.243.243 0 00-.01-.011c-.698-.734-.987-1.037-1.799-1.037h-3.253v-.9h1.305a.626.626 0 00.58-.865c-.34-.845-1.173-1.273-2.476-1.273h-.009l-3.907.005a.34.34 0 000 .679h.001l3.907-.006h.009c.97 0 1.566.256 1.815.78H2.727v-.42a.358.358 0 01.358-.36l3.069.006a.34.34 0 00.001-.68H3.09a1.035 1.035 0 00-1.041 1.034v.484c0 .34.276.616.616.616h.82v.9H2.47c-.628 0-1.14.511-1.14 1.14v7.788a1.109 1.109 0 00.277 2.18H3.67a2.755 2.755 0 002.745 2.564A2.755 2.755 0 009.16 17.79h2.563a.34.34 0 100-.679h-2.6a2.73 2.73 0 00-.312-.857h6.735c-.149.263-.255.551-.31.857h-1.957a.34.34 0 000 .68h1.918a2.754 2.754 0 002.744 2.564 2.754 2.754 0 002.745-2.565h1.707a1.11 1.11 0 001.108-1.108c0-.53-.376-.975-.876-1.082zm-.679-1.823h-1a.133.133 0 01-.133-.132v-.354c0-.07.06-.13.132-.13h1.001v.616zM8.26 5.783h3.265v.9H8.26v-.9zm-4.097 0h3.418v.9H4.163v-.9zM3.708 17.11h-2.1a.43.43 0 010-.856h2.41a2.73 2.73 0 00-.31.856zm2.706 2.566a2.075 2.075 0 01-2.073-2.072c0-1.143.93-2.072 2.073-2.072 1.143 0 2.073.93 2.073 2.072s-.93 2.072-2.073 2.072zm1.856-4.101a2.742 2.742 0 00-1.856-.722c-.714 0-1.366.274-1.855.722h-2.55V7.823c0-.254.207-.461.461-.461h12.987c.5 0 .61.093 1.302.82l2.346 2.694c.507.6.983.693 1.927.829.551.08.785.413.87.776h-.958a.811.811 0 00-.81.81v.354c0 .447.363.81.81.81h1.001v1.12h-2.15a2.742 2.742 0 00-3.71 0H8.27zm9.67 4.1a2.074 2.074 0 01-2.072-2.071c0-1.143.93-2.072 2.072-2.072 1.143 0 2.073.93 2.073 2.072s-.93 2.072-2.073 2.072zm4.452-2.565h-1.746a2.731 2.731 0 00-.31-.856h2.056a.43.43 0 110 .856z" fill="#000"/>
  <path d="M11.105 8.247H3.684a.708.708 0 00-.707.707v1.931c0 .39.317.708.707.708h7.42c.39 0 .708-.318.708-.708V8.954a.708.708 0 00-.707-.707zm-4.05 2.667H3.683a.03.03 0 01-.029-.029V8.954a.03.03 0 01.029-.028h3.37v1.988zm4.078-.029a.03.03 0 01-.028.029H7.733V8.926h3.372a.03.03 0 01.028.028v1.931zM13.738 11.579h3.276c.252-.014.45-.21.45-.446v-.142c0-.26-.12-.389-.246-.525-.053-.058-.12-.13-.204-.234L15.81 8.734c-.234-.29-.49-.482-.978-.482h-1.567c-.261 0-.477.19-.492.432a.3.3 0 000 .021l.002 2.008c0 .416.368.865.962.865zm1.095-2.647c.228 0 .308.055.45.23l1.201 1.494c.086.107.156.185.21.244h-2.956c-.2 0-.283-.122-.283-.187l-.002-1.781h1.38z" fill="#000"/>
</svg>
