<svg width="24" height="24" fill="none" xmlns="http://www.w3.org/2000/svg">
  <defs/>
  <path d="M23.1 4.256v-1.63H.96v12.1h22.142V5.888" fill="#8DE0A8"/>
  <g fill="#81CC96">
    <path d="M23.1 14.726H.96v6.647h22.142v-6.647zM9.327 4.341H4.736a2.06 2.06 0 01-2.06 2.06v4.548a2.06 2.06 0 012.06 2.06H19.324a2.06 2.06 0 012.06-2.06V6.401a2.06 2.06 0 01-2.06-2.06h-4.59"/>
  </g>
  <path d="M14.733 2.626H9.326v18.748h5.407V2.626z" fill="#FCD577"/>
  <path d="M14.733 14.727H9.326v6.647h5.407v-6.647z" fill="#EAC36E"/>
  <path d="M23.07 4.686a.43.43 0 00.43-.43v-1.63a.43.43 0 00-.43-.43H.93a.43.43 0 00-.43.43V21.374c0 .237.192.43.43.43h22.14a.43.43 0 00.43-.43V5.887a.43.43 0 10-.858 0v8.41h-7.51v-.858h4.162a.43.43 0 00.43-.429c0-.9.731-1.63 1.63-1.63a.43.43 0 00.43-.43V6.402a.43.43 0 00-.43-.43c-.899 0-1.63-.73-1.63-1.63a.43.43 0 00-.43-.429h-4.162v-.858h7.51v1.202c0 .237.192.429.429.429zM1.359 3.055h7.51v.858H4.704a.43.43 0 00-.429.43c0 .898-.731 1.63-1.63 1.63a.43.43 0 00-.43.43v4.547c0 .237.193.43.43.43.899 0 1.63.73 1.63 1.63 0 .237.192.43.43.43h4.161v.857H1.358V3.055zm0 15.424h1.66a.43.43 0 000-.858h-1.66v-.803h7.51v.803h-4.42a.43.43 0 100 .858h4.42v.804h-7.51v-.804zm7.51-2.52h-7.51v-.803h7.51v.804zm-7.51 4.183h7.51v.803h-7.51v-.803zm8.368.803v-5.79h4.548v5.79H9.726zm12.916-3.324h-7.51v-.803h7.51v.803zm-7.51 3.324v-2.466h7.51v.804h-6.523a.43.43 0 100 .858h6.523v.804h-7.51zm7.51-5.79v.805h-7.51v-.804h7.51zm-3.74-10.384a2.496 2.496 0 002.023 2.023v3.764a2.496 2.496 0 00-2.023 2.023h-3.77V4.77h3.77zm-4.628 9.526H9.726v-3.152a.43.43 0 00-.859 0v1.436h-3.77a2.496 2.496 0 00-2.022-2.023V6.794a2.496 2.496 0 002.023-2.023h3.77v4.943a.43.43 0 10.858 0V3.055h4.548v11.242z" fill="#000"/>
</svg>
