<svg width="24" height="24" fill="none" xmlns="http://www.w3.org/2000/svg">
  <defs/>
  <path d="M22.36 2.766c.44 0 .795.356.795.796v8.198c0 .44-.356.795-.795.795H1.747a.795.795 0 01-.796-.795V3.562c0-.44.356-.796.796-.796H22.36z" fill="#FFEFCA"/>
  <path d="M19.587 10.672a1.711 1.711 0 100-3.422 1.711 1.711 0 000 3.422z" fill="#FFC5E5"/>
  <path d="M4.538 19.041l3.905 1.069-.034-3.756-3.768.815-.103 1.872z" fill="#826075"/>
  <g fill="#A0758E">
    <path d="M10.528 18.459v2.145c0 .35-.287.636-.637.636H8.487a.639.639 0 01-.636-.636v-4.855c0-.35.286-.637.636-.637h1.404c.35 0 .637.287.637.637v2.71zM3.45 20.007a1.83 1.83 0 100-3.661 1.83 1.83 0 000 3.66z"/>
  </g>
  <g fill="#826075">
    <path d="M22.486 15.702c0-.05-.007-.1-.018-.147l-5.693 5.785h1.557l4.154-4.25v-1.388zM20.284 15.065l-6.178 6.273.04.002h1.513l6.174-6.275h-1.549zM19.445 21.34h2.405c.35 0 .636-.287.636-.637v-2.475l-3.04 3.112zM14.146 15.065a.639.639 0 00-.637.637v2.417l2.986-3.054h-2.35zM17.609 15.065l-4.1 4.193v1.445c0 .034.004.067.01.099l5.649-5.737h-1.56z"/>
    <path d="M16.496 15.065L13.51 18.12v1.139l4.099-4.193h-1.113zM19.167 15.065l-5.65 5.737c.046.29.29.518.59.536l6.177-6.273h-1.117zM21.85 15.065h-.017L15.66 21.34h1.117l5.692-5.785a.639.639 0 00-.618-.49zM22.486 17.09l-4.154 4.25h1.113l3.04-3.112V17.09z"/>
  </g>
  <path d="M23.102 2.315h-2.974a.398.398 0 000 .796h2.576v8.993H1.296V3.111h14.987a.398.398 0 000-.796H.898a.398.398 0 00-.398.398v9.79c0 .219.178.397.398.397h22.204c.22 0 .398-.178.398-.398V2.713a.398.398 0 00-.398-.398z" fill="#000"/>
  <path d="M10.05 5.22H3.365a.398.398 0 000 .796h6.685a.398.398 0 000-.796zM10.05 7.21H3.365a.398.398 0 000 .796h6.685a.398.398 0 000-.796zM10.05 9.2H3.365a.398.398 0 000 .795h6.685a.398.398 0 000-.796zM12.518 4a.398.398 0 00-.796 0v1.472a.398.398 0 10.796 0V4zM12.518 6.871a.398.398 0 00-.796 0v1.473a.398.398 0 10.796 0V6.87zM12.12 9.345a.398.398 0 00-.398.398v1.473a.398.398 0 00.796 0V9.743a.398.398 0 00-.398-.398zM19.534 11.016a2.111 2.111 0 002.109-2.109 2.111 2.111 0 00-2.11-2.109 2.111 2.111 0 00-2.108 2.11c0 1.162.946 2.108 2.109 2.108zm0-3.422c.724 0 1.313.59 1.313 1.313 0 .725-.59 1.314-1.313 1.314a1.315 1.315 0 010-2.626zM21.796 14.614h-7.704c-.57 0-1.034.465-1.034 1.035v5.001c0 .57.464 1.035 1.034 1.035h7.704c.57 0 1.035-.464 1.035-1.035v-5c0-.572-.464-1.036-1.035-1.036zm-4.674 6.275l4.913-5.007v1.552a.404.404 0 00-.043.038l-3.31 3.417h-1.56zm-2.671 0l5.376-5.479h1.556l-5.376 5.479H14.45zm-.598-2.075l.02-.018 3.277-3.386h1.562l-4.858 4.951v-1.547zm.24-3.404h1.95l-2.19 2.261V15.65c0-.13.11-.239.24-.239zm7.703 5.479h-2.005l2.244-2.317v2.078c0 .13-.11.239-.239.239zM9.838 14.663H8.434c-.57 0-1.035.464-1.035 1.035v.41l-2.361.51a2.223 2.223 0 00-1.64-.721 2.23 2.23 0 00-2.23 2.228c.001 1.229 1 2.228 2.23 2.228.676 0 1.282-.303 1.691-.78l2.198.585a.4.4 0 00.102.013h.01v.381c0 .57.464 1.035 1.035 1.035h1.404c.57 0 1.035-.464 1.035-1.035v-2.144a.398.398 0 00-.796 0v2.144c0 .13-.11.24-.24.24H8.435a.242.242 0 01-.239-.24v-4.854c0-.13.11-.239.239-.239h1.404c.13 0 .239.11.239.239v1.001a.398.398 0 00.796 0v-1.001c0-.57-.465-1.035-1.035-1.035zm-6.44 4.895c-.79 0-1.433-.643-1.433-1.433s.642-1.432 1.432-1.432c.79 0 1.433.642 1.433 1.432 0 .79-.643 1.433-1.433 1.433zm2.103-.699a2.218 2.218 0 00-.02-1.522l1.918-.415v2.442l-1.898-.505z" fill="#000"/>
</svg>
