<svg width="24" height="24" fill="none" xmlns="http://www.w3.org/2000/svg">
  <defs/>
  <path d="M14.206 22.349a8.997 8.997 0 100-17.995 8.997 8.997 0 000 17.995z" fill="#FFEFCA"/>
  <path d="M14.206 19.825a6.474 6.474 0 100-12.948 6.474 6.474 0 000 12.948z" fill="#FFE4A1"/>
  <path d="M14.207 17.404a4.053 4.053 0 100-8.106 4.053 4.053 0 000 8.106z" fill="#FFF7E6"/>
  <path d="M16.432 16.73l2.414.566c.19.044.379-.08.422-.275l.213-.974.487-2.222.213-.972a.366.366 0 00-.266-.437L9.585 9.991a.353.353 0 00-.421.275l-.226 1.031-.46 2.102-.227 1.035a.367.367 0 00.266.437l.686.16 1.478.348-.47-.958 6.621 1.116.018.68-.018.109-.4.403z" fill="#FBD696"/>
  <path d="M10.68 15.378l5.752 1.351.454-.377-6.471-1.436.266.462z" fill="#F6E1B8"/>
  <path d="M18.962 15.788a1.364 1.364 0 111.276-2.284l.222-.978a.368.368 0 00-.277-.44L9.426 9.647a.368.368 0 00-.439.278l-.235 1.037a1.364 1.364 0 11-.48 2.114l-.236 1.04a.368.368 0 00.277.44l.715.162 1.6.363 8.442 1.915a.368.368 0 00.44-.277l.221-.979c-.238.087-.503.11-.769.049zm-5.015-1.137a1.364 1.364 0 11.603-2.66 1.364 1.364 0 01-.603 2.66z" fill="#6BE8C7"/>
  <path d="M14.248 14.684a1.364 1.364 0 100-2.727 1.364 1.364 0 000 2.727z" fill="#3CD3A8"/>
  <g fill="#9AF7DD">
    <path d="M17.933 14.157a1.364 1.364 0 001.798 1.583l.507-2.235a1.364 1.364 0 00-2.305.652zM10.65 12.502a1.364 1.364 0 00-1.898-1.541l-.48 2.114a1.364 1.364 0 002.377-.572z"/>
  </g>
  <path d="M6.103 5.958l8.288 7.58s-.152.114-.4.079a.06.06 0 01-.03-.015L3.8 4.367l2.302 1.591z" fill="#B1C6D3"/>
  <path d="M1.2 4.222a.802.802 0 01.498-1.396l.917-.046-.046-.917a.802.802 0 011.34-.635L5.57 2.732c.481.435.77 1.044.802 1.692l.092 1.839-1.839.092a2.447 2.447 0 01-1.763-.63L1.2 4.222z" fill="#FEA8D6"/>
  <path d="M6.464 6.263l-1.839.092a2.447 2.447 0 01-1.763-.63L1.2 4.222a.802.802 0 01.498-1.396l.917-.046" fill="#F49AD0"/>
  <path d="M2.615 2.78l-.046-.917a.802.802 0 011.34-.635L5.57 2.732c.481.435.77 1.044.802 1.692l.092 1.839" fill="#FEA8D6"/>
  <path d="M11.885 4.575A9.296 9.296 0 008.53 6.17a.382.382 0 00.459.611 8.534 8.534 0 013.082-1.463 8.597 8.597 0 0110.659 8.686.382.382 0 00.764.032 9.363 9.363 0 00-11.608-9.46zM6.652 8.702a.382.382 0 00-.525.13 9.293 9.293 0 00-1.06 7.08c1.057 4.25 4.883 7.096 9.078 7.096a9.352 9.352 0 008.95-6.632.382.382 0 00-.732-.223 8.586 8.586 0 01-6.145 5.835c-4.596 1.144-9.266-1.665-10.41-6.261a8.534 8.534 0 01.975-6.5.382.382 0 00-.131-.525z" fill="#000"/>
  <path d="M20.03 11.216a.382.382 0 00.345-.547 6.926 6.926 0 00-3.254-3.25 6.918 6.918 0 00-6.884.535.382.382 0 00.433.63 6.12 6.12 0 011.99-.892 6.16 6.16 0 017.025 3.306.383.383 0 00.345.218zM8.603 16.308a.382.382 0 10-.69.33 6.91 6.91 0 0010.867 2.137.382.382 0 10-.513-.567 6.15 6.15 0 01-2.64 1.406 6.16 6.16 0 01-7.024-3.306z" fill="#000"/>
  <path d="M13.21 9.291a.382.382 0 00.16.748 3.702 3.702 0 012.935.616.38.38 0 00.534-.087.382.382 0 00-.087-.533 4.468 4.468 0 00-3.543-.744zM14.136 18.115a4.487 4.487 0 001.274-.185.382.382 0 00-.217-.734 3.68 3.68 0 01-3.3-.612.382.382 0 10-.465.608c.79.605 1.739.923 2.708.923zM19.19 13.886a.383.383 0 00.101-.757 1.65 1.65 0 00-1.833 1.265 1.664 1.664 0 001.016 1.924.382.382 0 10.276-.714.896.896 0 01-.547-1.036.889.889 0 01.987-.682zM9.197 13.357a.382.382 0 10-.022.764h.047c.763 0 1.437-.531 1.613-1.28a1.653 1.653 0 00-.967-1.903.383.383 0 00-.298.704c.401.17.62.6.52 1.025a.895.895 0 01-.893.69z" fill="#000"/>
  <path d="M.892 4.862a.382.382 0 10.513-.567.412.412 0 01-.113-.452.412.412 0 01.374-.278l.76-.038 3.047 2.757-.917.046a2.05 2.05 0 01-1.489-.531l-.584-.53a.382.382 0 00-.513.568l.584.529a2.809 2.809 0 002.04.727l1.68-.084 2.797 2.53a.751.751 0 00-.517.549l-.986 4.208a.752.752 0 00.56.903l10.799 2.53a.753.753 0 00.903-.56l.986-4.209a.746.746 0 00-.094-.567.746.746 0 00-.467-.336l-.717-.168a.382.382 0 00-.174.745l.704.165-.98 4.183-10.773-2.524.98-4.183.795.186 2.565 2.321a1.756 1.756 0 001.538 2.6c.818 0 1.52-.556 1.706-1.354a1.756 1.756 0 00-2.74-1.82l-1.531-1.386 6.13 1.435a.383.383 0 00.174-.744l-7.475-1.751-3.67-3.32-.084-1.68a2.81 2.81 0 00-.927-1.957L4.114 1.3a1.166 1.166 0 00-1.302-.191c-.441.209-.7.641-.675 1.129l.026.535-.535.027a1.166 1.166 0 00-1.057.785c-.164.46-.04.949.321 1.276zm13.299 7.777a.99.99 0 11-.94.683l.604.546a.38.38 0 00.54-.027.382.382 0 00-.027-.54l-.617-.559a.99.99 0 01.44-.103zM3.14 1.8a.412.412 0 01.46.068l1.663 1.504c.409.37.65.877.677 1.428l.045.917L2.938 2.96 2.9 2.2a.411.411 0 01.24-.4z" fill="#000"/>
</svg>
