<svg width="24" height="24" fill="none" xmlns="http://www.w3.org/2000/svg">
  <defs/>
  <path d="M2.936 14.28L.928 16.288l3.2 3.2 1.074-1.073 2.906-2.928-3.653-2.47-1.52 1.263z" fill="#FFDFA1"/>
  <path d="M3.08 16.427l3.277.87-1.528-2.34-1.75 1.47z" fill="#FCC973"/>
  <path d="M21.145 14.28l2.008 2.008-3.2 3.2-1.074-1.073-2.906-2.928 3.652-2.47 1.52 1.263z" fill="#FFDFA1"/>
  <path d="M21.002 16.427l-3.277.87 1.527-2.34 1.75 1.47z" fill="#FCC973"/>
  <path d="M23.09 7.767l-1.11-.684a1.772 1.772 0 11-2.536-1.561l-1.11-.684a.478.478 0 00-.657.156L10.162 17.2a.478.478 0 00.156.657l1.177.724a1.772 1.772 0 112.399 1.477l1.181.727a.478.478 0 00.657-.156l.499-.81 1.118-1.816 5.898-9.58a.478.478 0 00-.157-.656zm-4.876 5.974a1.772 1.772 0 11-3.019-1.859 1.772 1.772 0 013.019 1.859z" fill="#6BE8C7"/>
  <path d="M16.933 14.28a1.772 1.772 0 100-3.545 1.772 1.772 0 000 3.545z" fill="#3CD3A8"/>
  <g fill="#9AF7DD">
    <path d="M18.698 6.19a1.772 1.772 0 103.28.893L19.444 5.52c-.298.142-.56.368-.745.67zM14.768 19.333a1.772 1.772 0 10-3.273-.752l2.4 1.477c.35-.134.66-.38.873-.725z"/>
  </g>
  <path d="M7.876 19.793l.5.811a.478.478 0 00.656.156l4.757-2.928a.478.478 0 00.156-.657L6.43 4.97a.478.478 0 00-.656-.156L1.017 7.742a.478.478 0 00-.157.656l5.898 9.58 1.118 1.815z" fill="#6BE8C7"/>
  <path d="M7.175 14.179a1.772 1.772 0 100-3.545 1.772 1.772 0 000 3.545z" fill="#3CD3A8"/>
  <g fill="#9AF7DD">
    <path d="M4.83 8.602a1.772 1.772 0 00-.166-3.108L2.128 7.056a1.772 1.772 0 002.7 1.547zM9.92 16.867a1.772 1.772 0 00.293 3.164l2.4-1.477a1.773 1.773 0 00-2.692-1.687z"/>
  </g>
  <path d="M16.377 7.105l-1.138 1.85-.008 6.169-.002 2.132-.002.952a.478.478 0 01-.477.477l-1.387-.002-2.817-.003-1.383-.002a.478.478 0 01-.476-.478l.012-9.546-1.033-1.678-.014 10.527v1.927l.224.363.5.811a.478.478 0 00.656.156l3.001-1.848 3.042 1.873a.478.478 0 00.657-.156l.499-.81.134-.219.012-12.495z" fill="#3CD3A8"/>
  <path d="M9.164 18.678l1.382.002a1.772 1.772 0 112.817.003l1.387.002a.478.478 0 00.478-.477l.001-.952.003-2.132.007-6.17.006-5.08a.478.478 0 00-.476-.477l-1.305-.002a1.772 1.772 0 11-2.978-.004L9.183 3.39a.478.478 0 00-.478.476l-.006 4.788-.011 9.546c0 .263.214.478.476.478zm2.805-9.413a1.772 1.772 0 11-.005 3.545 1.772 1.772 0 01.005-3.545z" fill="#6BE8C7"/>
  <path d="M11.966 12.201a1.772 1.772 0 100-3.544 1.772 1.772 0 000 3.544z" fill="#3CD3A8"/>
  <g fill="#9AF7DD">
    <path d="M11.972 6.125a1.772 1.772 0 001.493-2.73l-2.978-.005a1.773 1.773 0 001.486 2.735zM11.958 15.832a1.772 1.772 0 00-1.412 2.847l2.817.003a1.772 1.772 0 00-1.405-2.85z"/>
  </g>
  <path d="M20.991 12.61H3.08v3.817h17.912V12.61z" fill="#FFEFCA"/>
  <path d="M20.99 12.61h-1.043v3.817h1.044V12.61z" fill="#FFDFA1"/>
  <path d="M3.978 12.61h-.899v3.817h.899V12.61z" fill="#FFF7E6"/>
  <path d="M4.475 8.027c-.472.291-1.09.21-1.47-.194a.377.377 0 00-.55.516 1.927 1.927 0 002.416.32 1.922 1.922 0 00.779-2.357.377.377 0 10-.7.28 1.17 1.17 0 01-.475 1.435zM18.84 6.102a.377.377 0 00-.49.21 1.922 1.922 0 001.788 2.642c.519 0 1.033-.207 1.406-.605a.377.377 0 10-.55-.516 1.176 1.176 0 01-1.47.194 1.17 1.17 0 01-.474-1.434.377.377 0 00-.21-.49zM11.921 6.17h.025a1.922 1.922 0 001.879-1.623.377.377 0 00-.745-.118 1.174 1.174 0 01-2.305.065.377.377 0 10-.737.16 1.934 1.934 0 001.883 1.516z" fill="#000"/>
  <path d="M23.39 15.97l-2.008-2.007a.38.38 0 00-.065-.052V12.56a.377.377 0 00-.25-.354l2.294-3.82a.82.82 0 00.1-.624.82.82 0 00-.37-.513l-4.474-2.756a.82.82 0 00-.624-.1.82.82 0 00-.513.37l-1.123 1.824a.377.377 0 10.642.396l1.124-1.824a.07.07 0 01.044-.032.07.07 0 01.054.008l4.474 2.757a.07.07 0 01.032.044.074.074 0 01-.01.058l-2.516 4.19h-1.277a2.043 2.043 0 00-1.73-1.89.377.377 0 00-.113.745 1.288 1.288 0 011.087 1.144h-2.692l-.108-8.517a.82.82 0 00-.25-.58.819.819 0 00-.586-.236l-5.255.067a.827.827 0 00-.815.836l.1 8.43h-2.73a1.282 1.282 0 011.087-1.144.377.377 0 10-.114-.745c-.27.041-.527.136-.762.28a2.03 2.03 0 00-.968 1.61H3.821l-2.54-4.194a.073.073 0 01.024-.098l4.474-2.757a.07.07 0 01.054-.008.07.07 0 01.044.032l1.124 1.824a.377.377 0 10.642-.396L6.52 4.762a.82.82 0 00-.513-.37.82.82 0 00-.624.1L.91 7.248a.826.826 0 00-.271 1.134l2.307 3.81a.377.377 0 00-.294.367v1.375a.364.364 0 00-.033.029L.61 15.97a.377.377 0 000 .533l3.201 3.2a.376.376 0 00.534 0l1.073-1.073a.377.377 0 10-.533-.533l-.807.806-2.668-2.667 1.241-1.24v1.38c0 .207.17.376.377.376h2.68l2.427 4.005a.82.82 0 00.705.393.82.82 0 00.43-.123l1.276-.785a.377.377 0 00-.396-.642l-1.275.785a.07.07 0 01-.054.008.069.069 0 01-.043-.03l-2.188-3.61h2.026l.016 1.412a.826.826 0 00.821.815h5.27a.797.797 0 00.603-.309.94.94 0 00.213-.591l-.009-1.328h1.927l-2.134 3.554a.073.073 0 01-.098.023l-1.275-.785a.377.377 0 10-.396.642l1.275.785a.83.83 0 001.138-.274l2.37-3.945h2.603a.377.377 0 00.377-.377v-1.411l1.273 1.272-2.668 2.668-.807-.807a.377.377 0 00-.533.533l1.074 1.073a.376.376 0 00.533 0l3.2-3.2a.377.377 0 000-.534zM3.405 16v-3.063h17.158v3.062H3.405zm7.305-5.534c-.004-.344.126-.67.366-.917.24-.246.563-.385.908-.39H12c.702 0 1.28.572 1.29 1.275a1.292 1.292 0 01-1.275 1.306H12c-.703 0-1.281-.571-1.29-1.274zM9.216 3.743c0-.04.032-.072.07-.073l5.255-.066a.07.07 0 01.05.02.07.07 0 01.023.05l.107 8.508h-1.636c.583-.367.969-1.02.96-1.758A2.052 2.052 0 0012 8.406h-.027a2.031 2.031 0 00-1.438.617 2.03 2.03 0 00-.58 1.453c.009.717.394 1.348.964 1.706H9.316l-.1-8.44zm5.568 14.345c.001.058-.049.126-.076.139h-5.25a.073.073 0 01-.072-.07l-.016-1.404h5.406l.008 1.335z" fill="#000"/>
</svg>
