<svg width="24" height="24" fill="none" xmlns="http://www.w3.org/2000/svg">
  <defs/>
  <path d="M9.43 1.933L7.817 3.15 6.721 1.107a.125.125 0 00-.22 0L5.46 3.15l-1.69-1.226c-.08-.058-.197 0-.197.099v3.445h6.06V2.032a.125.125 0 00-.202-.099z" fill="#FFDFA1"/>
  <path d="M9.996 7.97h-7.11c-.441 0-.805.346-.805.773v.324c0 .426.36.772.804.772h7.111c.44 0 .804-.346.804-.772v-.324a.794.794 0 00-.804-.772z" fill="#FFEFCA"/>
  <g fill="#FFE4A1">
    <path d="M3.627 7.972h-.364v1.87h.364v-1.87zM5.114 7.972H4.75v1.87h.364v-1.87zM6.605 7.972h-.364v1.87h.364v-1.87zM8.091 7.972h-.363v1.87h.363v-1.87zM9.579 7.972h-.364v1.87h.364v-1.87z"/>
  </g>
  <path d="M9.997 7.97H2.885c-.359 0-.664.23-.768.544h8.643a.795.795 0 00-.763-.543z" fill="#FFDFA1"/>
  <path d="M13.137 12.934H6.026c-.44 0-.804.346-.804.773v.323c0 .427.36.773.804.773h7.11c.441 0 .805-.346.805-.773v-.323a.794.794 0 00-.804-.773z" fill="#FFEFCA"/>
  <g fill="#FFE4A1">
    <path d="M6.766 12.934h-.364v1.87h.364v-1.87zM8.254 12.935H7.89v1.87h.364v-1.87zM9.745 12.935H9.38v1.87h.364v-1.87zM11.232 12.935h-.364v1.87h.364v-1.87zM12.723 12.935h-.364v1.87h.364v-1.87z"/>
  </g>
  <path d="M13.136 12.934H6.025c-.36 0-.665.23-.768.544H13.9a.795.795 0 00-.764-.544z" fill="#FFDFA1"/>
  <path d="M14.951 14.731h-7.11c-.441 0-.805.346-.805.773v.323c0 .427.36.773.804.773h7.111c.44 0 .804-.346.804-.773v-.323c0-.427-.359-.773-.804-.773z" fill="#FFEFCA"/>
  <g fill="#FFE4A1">
    <path d="M8.586 14.731h-.364v1.87h.364v-1.87zM10.073 14.732h-.364v1.869h.364v-1.869zM11.56 14.732h-.364v1.869h.364v-1.869zM13.051 14.732h-.364v1.869h.364v-1.869zM14.538 14.732h-.364v1.869h.364v-1.869z"/>
  </g>
  <path d="M14.952 14.731H7.84c-.359 0-.664.23-.768.544h8.643a.795.795 0 00-.763-.544z" fill="#FFDFA1"/>
  <path d="M12.952 16.304h-7.11c-.441 0-.805.346-.805.772v.324c0 .426.36.772.804.772h7.111c.44 0 .805-.346.805-.772v-.324c0-.427-.36-.772-.805-.772z" fill="#FFEFCA"/>
  <g fill="#FFE4A1">
    <path d="M6.588 16.302h-.364v1.87h.364v-1.87zM8.075 16.302H7.71v1.87h.364v-1.87zM9.561 16.302h-.364v1.87h.364v-1.87zM11.052 16.302h-.364v1.87h.364v-1.87zM12.54 16.302h-.364v1.87h.364v-1.87z"/>
  </g>
  <path d="M12.953 16.304H5.84c-.359 0-.664.229-.768.543h8.643a.795.795 0 00-.763-.543z" fill="#FFDFA1"/>
  <path d="M10 18.033H2.895c-.44 0-.804.346-.804.773v.323c0 .427.36.773.804.773h7.111c.44 0 .804-.346.804-.773v-.323a.795.795 0 00-.808-.773z" fill="#FFEFCA"/>
  <g fill="#FFE4A1">
    <path d="M3.635 18.035h-.364v1.869h.364v-1.87zM5.123 18.035h-.364v1.869h.364v-1.87zM6.609 18.035h-.364v1.869h.364v-1.87zM8.1 18.035h-.364v1.869H8.1v-1.87zM9.588 18.035h-.364v1.869h.364v-1.87z"/>
  </g>
  <path d="M10 18.033H2.895c-.36 0-.665.23-.768.544h8.643a.797.797 0 00-.768-.544z" fill="#FFDFA1"/>
  <path d="M11.78 19.695H4.673c-.444 0-.804.346-.804.773v.323c0 .427.36.773.804.773h7.111c.44 0 .804-.346.804-.773v-.323a.795.795 0 00-.808-.773z" fill="#FFEFCA"/>
  <g fill="#FFE4A1">
    <path d="M5.415 19.695H5.05v1.869h.364v-1.869zM6.901 19.695h-.364v1.869h.364v-1.869zM8.388 19.695h-.364v1.869h.364v-1.869zM9.88 19.695h-.364v1.869h.363v-1.869zM11.367 19.695h-.364v1.869h.364v-1.869z"/>
  </g>
  <path d="M11.78 19.695H4.673c-.359 0-.664.23-.768.544h8.643a.805.805 0 00-.768-.544z" fill="#FFDFA1"/>
  <path d="M9.87 21.335H2.76c-.441 0-.805.346-.805.773v.323c0 .427.36.773.804.773H9.87c.44 0 .804-.346.804-.773v-.323c0-.427-.363-.773-.804-.773z" fill="#FFEFCA"/>
  <g fill="#FFE4A1">
    <path d="M3.5 21.334h-.363v1.869H3.5v-1.87zM4.992 21.334h-.364v1.869h.364v-1.87zM6.48 21.334h-.365v1.869h.364v-1.87zM7.965 21.334h-.363v1.869h.363v-1.87zM9.458 21.334h-.364v1.869h.364v-1.87z"/>
  </g>
  <path d="M9.87 21.335H2.76c-.36 0-.665.229-.769.543h8.643a.795.795 0 00-.763-.543z" fill="#FFDFA1"/>
  <path d="M11.77 9.66H4.66c-.44 0-.805.345-.805.772v.324c0 .426.36.772.805.772h7.11c.441 0 .805-.346.805-.772v-.324a.794.794 0 00-.804-.772z" fill="#FFEFCA"/>
  <g fill="#FFE4A1">
    <path d="M5.401 9.66h-.364v1.868h.364V9.66zM6.888 9.659h-.364v1.869h.364v-1.87zM8.38 9.659h-.364v1.869h.363v-1.87zM9.866 9.659h-.364v1.869h.364v-1.87zM11.353 9.659h-.364v1.869h.364v-1.87z"/>
  </g>
  <path d="M11.77 9.66H4.66c-.36 0-.665.229-.768.543h8.643a.795.795 0 00-.764-.543z" fill="#FFDFA1"/>
  <path d="M9.884 11.407H2.778c-.44 0-.804.346-.804.773v.323c0 .427.359.773.804.773h7.11c.441 0 .805-.346.805-.773v-.323a.795.795 0 00-.809-.773z" fill="#FFEFCA"/>
  <g fill="#FFE4A1">
    <path d="M3.52 11.407h-.365v1.869h.364v-1.869zM5.005 11.408h-.363v1.869h.363v-1.869zM6.497 11.408h-.364v1.869h.364v-1.869zM7.984 11.408H7.62v1.869h.364v-1.869zM9.471 11.408h-.364v1.869h.364v-1.869z"/>
  </g>
  <path d="M9.885 11.407H2.778c-.36 0-.665.23-.768.544h8.643a.797.797 0 00-.768-.544z" fill="#FFDFA1"/>
  <path d="M1.51 22.157v.36c0 .543.441.983.985.983h7.623c.543 0 .984-.44.984-.984v-.36a.93.93 0 00-.04-.278h.983c.543 0 .984-.44.984-.983v-.36a.983.983 0 00-.984-.984h-.858a.96.96 0 00.05-.3v-.36a1 1 0 00-.077-.382h2.143c.543 0 .984-.44.984-.984v-.359a.94.94 0 00-.027-.23h.97c.543 0 .984-.44.984-.983v-.36a.983.983 0 00-.984-.983h-.921a.956.956 0 00.112-.454v-.36a.983.983 0 00-.983-.983h-2.359a.908.908 0 00.032-.247v-.36c0-.116-.023-.229-.059-.332h.993c.543 0 .984-.44.984-.984v-.359a.983.983 0 00-.984-.984h-.92a.957.957 0 00.111-.453v-.36a.984.984 0 00-.983-.984h-.75a.377.377 0 100 .755h.745c.121 0 .23.103.23.23v.359c0 .12-.104.229-.23.229H2.625a.233.233 0 01-.23-.23v-.359c0-.121.104-.229.23-.229h5.471a.377.377 0 100-.755H2.625a.983.983 0 00-.984.984v.36c0 .543.44.983.984.983h.92a.956.956 0 00-.112.454v.36c0 .116.023.229.059.332h-.997a.984.984 0 00-.984.984v.359c0 .544.44.984.984.984h2.362a.91.91 0 00-.031.247v.36c0 .543.44.983.984.983h.92a.956.956 0 00-.112.454v.36c0 .08.01.156.027.228h-.97a.984.984 0 00-.984.984v.36c0 .134.027.26.077.381H2.625a.984.984 0 00-.984.984v.36c0 .543.44.983.984.983h.858a.96.96 0 00-.05.301v.36c0 .098.014.193.04.278h-.978a.98.98 0 00-.984.984zm8.832.36c0 .12-.103.228-.229.228H2.495a.233.233 0 01-.23-.229v-.36c0-.12.104-.228.23-.228h7.623c.121 0 .229.103.229.229v.36h-.005zm1.932-1.986v.36c0 .12-.103.228-.229.228H4.422a.233.233 0 01-.23-.229v-.36c0-.12.104-.228.23-.228h7.623c.121 0 .23.107.23.229zm3.18-4.946v.36c0 .12-.103.228-.229.228H7.607a.233.233 0 01-.23-.229v-.36c0-.12.104-.228.23-.228h7.623a.235.235 0 01.224.229zm-3.18-5.063v.36c0 .12-.103.229-.229.229H4.422a.233.233 0 01-.23-.23v-.359c0-.121.104-.229.23-.229h7.623c.121.004.23.108.23.23zM2.27 12.557v-.36c0-.12.103-.228.229-.228h7.623c.122 0 .23.103.23.229v.359c0 .121-.104.23-.23.23H2.495a.23.23 0 01-.225-.23zm3.31 1.595v-.36c0-.12.104-.229.23-.229h7.623c.121 0 .23.104.23.23v.359c0 .121-.104.229-.23.229H5.81a.236.236 0 01-.23-.23zm-.13 3.01c0-.122.104-.23.23-.23h7.623c.121 0 .229.104.229.23v.359c0 .121-.103.229-.23.229H5.68a.233.233 0 01-.23-.23v-.358zM2.4 19.245v-.36c0-.12.104-.229.23-.229h7.618c.121 0 .23.104.23.23v.359c0 .121-.104.229-.23.229H2.625a.235.235 0 01-.225-.23z" fill="#000"/>
  <path d="M22.49 22.871v-7.223a.38.38 0 00-.647-.27l-1.407 1.406V9.633a.373.373 0 00-.229-.346.389.389 0 00-.409.067l-1.94 1.797v-6.86a.382.382 0 00-.656-.26l-2.493 2.641V2.045l1.033 1.016c.072.071.17.107.265.107a.377.377 0 00.265-.647L14.56.832a.38.38 0 00-.53 0l-1.72 1.69a.377.377 0 00-.005.534.377.377 0 00.535.005l1.114-1.097V7.62c0 .157.094.297.238.35.144.059.31.023.418-.09l2.493-2.64v6.769c0 .153.09.287.229.346.14.058.296.031.409-.068l1.94-1.796v7.2a.38.38 0 00.647.27l1.406-1.406v5.93h-8.409a.377.377 0 100 .755h8.787a.366.366 0 00.377-.369zM9.615 3.33c.211 0 .377-.17.377-.377V1.767a.38.38 0 00-.606-.305l-1.46 1.104L6.929.702a.375.375 0 00-.67.004l-.952 1.86L3.78 1.461a.38.38 0 00-.396-.031.376.376 0 00-.206.337v3.692c0 .212.17.378.377.378h6.06c.211 0 .377-.171.377-.378V4.404a.377.377 0 10-.754 0v.674H3.937v-2.57l1.28.934c.09.063.202.09.31.063a.378.378 0 00.247-.197l.827-1.613.867 1.617a.39.39 0 00.251.193c.108.023.22 0 .31-.067l1.204-.912v.422c.005.211.17.382.382.382z" fill="#000"/>
</svg>
