<svg width="24" height="24" fill="none" xmlns="http://www.w3.org/2000/svg">
  <defs/>
  <g fill="#FFEFCA">
    <path d="M15.722 14.453H2.044c-.851 0-1.544.693-1.544 1.544v.645c0 .85.693 1.543 1.544 1.543h13.678c.851 0 1.544-.692 1.544-1.543v-.645c0-.851-.693-1.544-1.544-1.544z"/>
    <path d="M15.722 17.376H2.044c-.851 0-1.544.692-1.544 1.544v.644c0 .852.693 1.544 1.544 1.544h13.678c.851 0 1.544-.692 1.544-1.544v-.644c0-.852-.693-1.544-1.544-1.544zM15.722 8.607H2.044C1.193 8.607.5 9.3.5 10.151v.645c0 .851.693 1.543 1.544 1.543h13.678c.851 0 1.544-.692 1.544-1.543v-.645c0-.851-.693-1.544-1.544-1.544z"/>
    <path d="M15.722 11.53H2.044c-.851 0-1.544.693-1.544 1.544v.645c0 .85.693 1.543 1.544 1.543h13.678c.851 0 1.544-.692 1.544-1.543v-.645c0-.851-.693-1.544-1.544-1.544z"/>
  </g>
  <g fill="#FFE4A1">
    <path d="M3.267 8.608H2.54V21.11h.726V8.608zM6.237 8.608h-.725V21.11h.725V8.608zM9.208 8.608h-.726V21.11h.726V8.608zM12.179 8.608h-.726V21.11h.726V8.608zM15.15 8.608h-.725V21.11h.725V8.608z"/>
  </g>
  <g fill="#FFDFA1">
    <path d="M1.026 11.944h15.742s.212.153.36.539H.615c.186-.485.437-.54.411-.54zM1.026 14.857h15.742s.212.153.36.539H.615c.186-.485.437-.54.411-.54zM1.026 17.8h15.742s.212.154.36.54H.615c.186-.485.437-.54.411-.54z"/>
  </g>
  <path d="M19.244 14.908a.456.456 0 00.017.644l1.772 1.68a.454.454 0 00.64-.013l1.699-1.755a.455.455 0 10-.654-.633l-.915.944-.02-12.43a.455.455 0 10-.91.002l.02 12.498-1.005-.954a.455.455 0 00-.644.017zM17.326 10.794v-.645c0-.85-.692-1.543-1.543-1.543h-2.819a.455.455 0 100 .91h2.819c.348 0 .633.284.633.633v.645c0 .35-.285.633-.633.633H2.104a.634.634 0 01-.633-.633v-.645c0-.349.284-.633.633-.633h8.068a.455.455 0 100-.91H2.104c-.85 0-1.543.692-1.543 1.543v.645c0 .45.194.857.503 1.14a1.54 1.54 0 00-.503 1.138v.645c0 .45.194.857.503 1.14a1.54 1.54 0 00-.503 1.138v.645c0 .45.194.857.503 1.14a1.54 1.54 0 00-.503 1.138v.645c0 .851.692 1.544 1.543 1.544h13.678c.852 0 1.544-.692 1.544-1.544v-.645c0-.45-.194-.856-.503-1.139a1.54 1.54 0 00.503-1.139v-.645c0-.45-.194-.856-.503-1.139a1.54 1.54 0 00.503-1.139v-.645c0-.45-.194-.856-.503-1.139a1.54 1.54 0 00.503-1.139zm-.91 8.77c0 .348-.284.632-.633.632H2.104a.634.634 0 01-.633-.633v-.645c0-.349.284-.633.633-.633h13.678c.35 0 .634.284.634.633v.645zm0-2.924a.634.634 0 01-.633.633H2.104a.634.634 0 01-.633-.633v-.645c0-.349.284-.633.633-.633h13.678c.35 0 .634.284.634.633v.645zm0-2.923c0 .35-.284.633-.633.633H2.104a.634.634 0 01-.633-.633v-.645c0-.349.284-.633.633-.633h13.678c.35 0 .634.284.634.633v.645zM9.399 4.933v-.97a.455.455 0 10-.91 0v.97a.455.455 0 10.91 0zM7.227 6.1a.454.454 0 00.322-.777l-.687-.687a.455.455 0 00-.644.644l.687.686a.454.454 0 00.322.134zM10.982 5.966l.687-.686a.455.455 0 00-.644-.644l-.687.687a.455.455 0 10.644.643z" fill="#000"/>
</svg>
