<svg width="24" height="24" fill="none" xmlns="http://www.w3.org/2000/svg">
  <defs/>
  <path d="M20.243 15.995a2.207 2.207 0 111.198-4.06V10.31a.596.596 0 00-.594-.594L2.997 9.71a.596.596 0 00-.594.594v1.72a2.207 2.207 0 11-.001 3.508l-.002 1.728c0 .327.268.595.594.595h3.842l14.009.005a.596.596 0 00.594-.594v-1.624a2.195 2.195 0 01-1.196.352zm-8.323-.002a2.207 2.207 0 11.001-4.414 2.207 2.207 0 01-.001 4.414z" fill="#6BE8C7"/>
  <path d="M11.921 15.993a2.207 2.207 0 100-4.415 2.207 2.207 0 000 4.415z" fill="#3CD3A8"/>
  <g fill="#9AF7DD">
    <path d="M18.037 13.786a2.207 2.207 0 003.403 1.856l.001-3.71a2.207 2.207 0 00-3.404 1.853zM5.948 13.78a2.207 2.207 0 00-3.545-1.755L2.4 15.533a2.207 2.207 0 003.547-1.753z"/>
  </g>
  <path d="M15.19 2.354l-1.775 1.34-1.225-2.29a.264.264 0 00-.467.004l-1.171 2.286L8.684 2.34a.264.264 0 00-.42.213V6.51h7.347V2.565a.264.264 0 00-.423-.21z" fill="#FFDFA1"/>
  <path d="M2.4 17.012c0 .326.268.594.594.594H4.18l2.656.001 14.009.005a.596.596 0 00.594-.594L2.4 17.012z" fill="#3CD3A8"/>
  <path d="M22.014 10.302c0-.281-.11-.546-.31-.746-.2-.2-.465-.31-.746-.31h-1.19a.46.46 0 100 .92h1.19c.048 0 .08.025.096.04.015.016.04.048.04.096l.001 6.983c0 .048-.025.08-.04.096a.136.136 0 01-.096.04l-17.916.003a.138.138 0 01-.137-.137v-6.982c0-.074.062-.137.136-.137l14.06-.002a.46.46 0 100-.919l-14.06.002c-.582 0-1.056.474-1.056 1.056l.001 6.982c0 .582.474 1.056 1.056 1.056l17.916-.003c.281 0 .546-.11.746-.31.2-.2.31-.464.31-.745l-.001-6.983z" fill="#000"/>
  <path d="M10.11 11.903a2.657 2.657 0 00-.784 1.892c0 1.475 1.2 2.674 2.675 2.674 1.475 0 2.675-1.2 2.675-2.675 0-1.474-1.2-2.674-2.675-2.674-.715 0-1.387.278-1.892.784zm3.647 1.891c0 .968-.788 1.756-1.756 1.756v.46-.46a1.758 1.758 0 01-1.242-2.997 1.758 1.758 0 012.997 1.241zM19.94 12.2a.46.46 0 10-.088-.914 2.509 2.509 0 00-2.274 2.508c0 1.25.934 2.323 2.171 2.495a.46.46 0 00.126-.91 1.606 1.606 0 01-1.378-1.585c0-.829.62-1.514 1.444-1.594zM4.076 15.363a.46.46 0 10.184.9 2.527 2.527 0 002.012-2.468c0-1.23-.879-2.274-2.09-2.483a.46.46 0 10-.156.906 1.596 1.596 0 011.327 1.577c0 .757-.537 1.417-1.277 1.568zM15.674 3.931a.46.46 0 00.459-.46V2.036a.46.46 0 00-.736-.367l-1.769 1.336-1.21-2.261A.46.46 0 0012.015.5h-.004a.46.46 0 00-.405.25l-1.157 2.257-1.851-1.344a.46.46 0 00-.73.372v4.477a.46.46 0 00.502.458h7.305a.46.46 0 00.46-.46V5.233a.46.46 0 10-.92 0v.818H8.786V2.936l1.556 1.13a.46.46 0 00.68-.162l1-1.954 1.05 1.961a.46.46 0 00.681.15l1.46-1.103v.514c0 .254.207.46.46.46zM12.46 23.04v-.98a.46.46 0 10-.919 0v.98a.46.46 0 10.92 0zM14.427 22.495a.458.458 0 00.325-.785l-.693-.693a.46.46 0 00-.65.65l.693.693c.09.09.208.135.325.135zM9.899 22.36l.693-.693a.46.46 0 00-.65-.65l-.693.693a.46.46 0 10.65.65z" fill="#000"/>
</svg>
