<svg width="24" height="24" fill="none" xmlns="http://www.w3.org/2000/svg">
  <defs/>
  <path d="M18.389 13.197a3.976 3.976 0 100-7.952 3.976 3.976 0 000 7.952z" fill="#FFDFA1"/>
  <g fill="#FEA8D6">
    <path d="M10.109 9.943a2.516 2.516 0 00-.088-.092l-.25-.26-.76-.79-1.106-1.146a.372.372 0 00-.267-.114h-.001a.372.372 0 00-.268.114L5.173 9.95a.372.372 0 00.268.629h4.372a.372.372 0 00.377-.225c.074-.175.01-.299-.083-.409l.002-.001zM10.213 11.91a.372.372 0 00-.372-.37H5.436a.372.372 0 00-.372.372v8.87c-.021.127.035.226.11.315v.002a.37.37 0 00.013.013l.073.078.249.26.756.79 1.1 1.146a.372.372 0 00.536 0l2.206-2.29c.107-.11.107-.204.11-.412l.002-.426c.002-.361.003-.869.003-1.458v-1.817c-.003-2.387-.01-5.046-.01-5.072z"/>
  </g>
  <path d="M12.83 4.61a1.395 1.395 0 11.756-2.567V1.017a.377.377 0 00-.374-.376L1.93.638a.377.377 0 00-.376.375V2.1a1.395 1.395 0 110 2.217L1.552 5.41c0 .206.169.375.375.375h.75l1.678.001 8.854.003a.376.376 0 00.375-.375V4.387c-.217.14-.477.223-.756.222zm-5.26-.002a1.395 1.395 0 110-2.79 1.395 1.395 0 010 2.79z" fill="#6BE8C7"/>
  <path d="M7.57 4.608a1.395 1.395 0 100-2.79 1.395 1.395 0 000 2.79z" fill="#3CD3A8"/>
  <g fill="#9AF7DD">
    <path d="M11.435 3.213a1.395 1.395 0 002.15 1.172l.001-2.344a1.395 1.395 0 00-2.152 1.171zM3.795 3.209a1.395 1.395 0 00-2.241-1.11l-.001 2.218a1.395 1.395 0 002.242-1.108z"/>
  </g>
  <path d="M18.39 11.61a2.39 2.39 0 100-4.779 2.39 2.39 0 000 4.78z" fill="#FFEFCA"/>
  <g fill="#F49AD0">
    <path d="M10.108 9.943l.002-.002a2.527 2.527 0 00-.088-.092l-.25-.26-.601-.622c.006.508.023 1.016.028 1.524v.085h.615a.372.372 0 00.377-.225c.074-.175.01-.299-.083-.408zM9.087 22.153l1.02-1.06c.107-.108.108-.203.11-.41l.003-.426.002-1.458v-1.817a4510.98 4510.98 0 00-.009-5.073.372.372 0 00-.371-.37h-.755"/>
  </g>
  <path d="M20.868 17.204a2.635 2.635 0 00-.088-.092l-.25-.26-.76-.789-1.106-1.147a.372.372 0 00-.536 0l-2.197 2.294a.372.372 0 00.269.63h4.372a.372.372 0 00.377-.225c.074-.176.01-.3-.083-.41h.002z" fill="#FEA8D6"/>
  <path d="M20.866 17.206l.002-.002a2.518 2.518 0 00-.088-.092l-.25-.26-.601-.622c.006.508.023 1.016.028 1.524v.085h.615a.372.372 0 00.377-.225c.074-.175.01-.298-.083-.408z" fill="#F49AD0"/>
  <path d="M20.996 19.176a.372.372 0 00-.372-.371H16.22a.372.372 0 00-.372.372v1.43c-.021.127.035.226.11.316a2.406 2.406 0 00.086.091l.25.262.755.789 1.1 1.146a.372.372 0 00.536 0l2.207-2.29c.106-.109.107-.204.109-.411l.003-.426c.001-.362-.007-.882-.007-.908z" fill="#FEA8D6"/>
  <path d="M19.87 21.98l1.02-1.06c.106-.108.107-.203.11-.41l.002-.427c.002-.36-.006-.88-.006-.907a.372.372 0 00-.372-.371h-.755" fill="#F49AD0"/>
  <path d="M1.962 6.387a.747.747 0 01-.747-.744l-.008-4.376c0-.412.334-.747.744-.747l8.813-.016a.372.372 0 01.001.743l-8.812.016.006 4.378 11.23-.018-.006-4.378h-.748A.372.372 0 0112.434.5l.746-.002c.411 0 .746.334.747.744l.008 4.377a.747.747 0 01-.744.746l-11.23.02z" fill="#000"/>
  <path d="M7.574 5.203H7.57a1.763 1.763 0 01-1.76-1.757c0-.972.788-1.761 1.757-1.763.972 0 1.761.788 1.763 1.757 0 .972-.788 1.762-1.757 1.763zm-.003-2.777a1.019 1.019 0 00-1.017 1.017A1.019 1.019 0 007.571 4.46l.002.372V4.46a1.018 1.018 0 001.014-1.017 1.018 1.018 0 00-1.016-1.017zM12.47 5.085a.374.374 0 01-.05-.004 1.669 1.669 0 01-1.437-1.644c0-.862.644-1.574 1.498-1.658a.372.372 0 01.073.74.915.915 0 00-.827.915c0 .458.342.849.793.91a.372.372 0 01-.05.74zM2.664 5.089a.372.372 0 01-.075-.736.922.922 0 00.732-.9.917.917 0 00-.763-.907.372.372 0 11.124-.733c.8.136 1.381.824 1.383 1.636a1.67 1.67 0 01-1.326 1.632.373.373 0 01-.075.008zM9.85 10.578h-.001c-.012 0-.023 0-.035-.002H5.442a.372.372 0 01-.268-.629L7.37 7.654a.372.372 0 01.536 0L9.011 8.8l.76.789.25.26c.029.03.054.055.075.079a.374.374 0 01.126.278.372.372 0 01-.372.372zm-3.537-.745h2.66L7.64 8.448 6.313 9.833zM7.633 23.5a.372.372 0 01-.268-.115l-1.1-1.147-.755-.788-.25-.261-.078-.084-.008-.008a.372.372 0 01-.11-.3V11.91c.001-.205.168-.372.373-.372h4.405c.205 0 .371.166.372.371 0 .027.006 2.686.008 5.073a.372.372 0 11-.744 0c-.001-1.86-.005-3.884-.007-4.7H5.809v8.404c.286.3 1.131 1.182 1.825 1.905l1.84-1.91c.002-.202.005-.698.005-1.882a.372.372 0 11.744 0 448.15 448.15 0 01-.005 1.884c-.003.207-.004.303-.11.41l-2.207 2.292a.372.372 0 01-.268.114zM20.621 17.844c-.012 0-.024 0-.035-.002h-4.372a.372.372 0 01-.269-.628l2.197-2.294a.372.372 0 01.267-.114h.001c.101 0 .198.04.268.114l1.105 1.146.76.789.25.26.075.079a.373.373 0 01-.247.65zm-3.536-.745h2.66l-1.334-1.385-1.326 1.385zM18.407 23.332a.372.372 0 01-.268-.114l-1.1-1.146c-.274-.287-.55-.574-.755-.79l-.25-.26a3.815 3.815 0 01-.078-.084l-.008-.008c-.078-.088-.111-.15-.111-.264 0-.012 0-.024.002-.036v-1.453c0-.206.166-.372.371-.372h4.405c.204 0 .37.163.372.366 0 .007.01.662.01 1.101 0 .465 0 .54-.116.655l-2.206 2.291a.372.372 0 01-.268.114zm-1.825-2.813l1.825 1.905 1.844-1.914.002-.238c0-.223-.003-.503-.005-.724h-3.666v.971zM18.417 13.601a4.382 4.382 0 01-4.377-4.376 4.382 4.382 0 014.377-4.377 4.382 4.382 0 014.072 5.983.372.372 0 01-.692-.273 3.637 3.637 0 00-3.38-4.967 3.637 3.637 0 00-3.633 3.634 3.637 3.637 0 003.633 3.633c.784 0 1.531-.246 2.16-.712a.372.372 0 11.442.598 4.343 4.343 0 01-2.602.857z" fill="#000"/>
  <path d="M18.417 12a2.757 2.757 0 01-1.962-.813 2.756 2.756 0 01-.812-1.962c0-.741.288-1.438.812-1.962a2.757 2.757 0 011.962-.813 2.786 2.786 0 012.378 1.344.372.372 0 01-.636.384 2.018 2.018 0 00-1.741-.984c-.543 0-1.053.21-1.437.594a2.018 2.018 0 00-.595 1.437c0 .542.212 1.052.595 1.436.384.384.894.595 1.436.595.543 0 1.053-.211 1.437-.595.288-.288.48-.65.557-1.048a.372.372 0 11.73.141 2.762 2.762 0 01-.761 1.433 2.757 2.757 0 01-1.963.813z" fill="#000"/>
</svg>
