<svg width="24" height="24" fill="none" xmlns="http://www.w3.org/2000/svg">
  <defs/>
  <path d="M22.829 6.056a1.878 1.878 0 11-.286-3.143l-.125-1.377a.507.507 0 00-.55-.457L6.74 2.455a.507.507 0 00-.458.55l.133 1.459a1.878 1.878 0 11.27 2.973L6.819 8.9a.507.507 0 00.55.458l1.004-.092 2.25-.204 11.875-1.08a.507.507 0 00.457-.55l-.125-1.377zm-8.041 1.033a1.878 1.878 0 11-.34-3.74 1.878 1.878 0 01.34 3.74z" fill="#6BE8C7"/>
  <path d="M14.618 7.097a1.879 1.879 0 100-3.757 1.879 1.879 0 000 3.757z" fill="#3CD3A8"/>
  <g fill="#9AF7DD">
    <path d="M21.502 2.706a1.879 1.879 0 101.328 3.35l-.286-3.143a1.87 1.87 0 00-1.042-.207zM7.856 7.719a1.878 1.878 0 10-1.441-3.254l.27 2.973c.337.212.744.32 1.17.28z"/>
  </g>
  <path d="M19.806 8.234L8.65 2.826a.507.507 0 00-.676.234l-1.42 2.92.226 2.475a.507.507 0 00.55.457l1.004-.091 2.25-.205 9.22-.382z" fill="#3CD3A8"/>
  <path d="M10.834 11.714l4.844 2.527-4.738 4.783-1.313 1.313-5.347-5.993.58-1.267 5.974-1.363z" fill="#FFE8CA"/>
  <path d="M6.676 10.505l-.907-.44a.507.507 0 01-.234-.677l2.589-5.324a.507.507 0 01.675-.234l13.663 6.642c.25.122.355.426.234.676l-2.589 5.325a.507.507 0 01-.676.233L8.71 11.493l-2.033-.988z" fill="#6BE8C7"/>
  <path d="M14.116 12.146a1.878 1.878 0 100-3.756 1.878 1.878 0 000 3.756z" fill="#3CD3A8"/>
  <g fill="#9AF7DD">
    <path d="M21.308 11.673a1.878 1.878 0 10-.596 3.554l1.38-2.839a1.87 1.87 0 00-.784-.715zM9.545 8.041A1.878 1.878 0 007.483 5.38L6.178 8.064a1.878 1.878 0 003.367-.023z"/>
  </g>
  <path d="M9.936 10.813l.244-.792s.12.046.275.14c.216.13.499.354.622.675.115.3.19.718.06 1.17" fill="#3CD3A8"/>
  <path d="M10.876 12.554c-.274.402-.75.803-1.531 1.147l.16-1.495.43-1.392" fill="#FFD2A1"/>
  <g fill="#3CD3A8">
    <path d="M11.136 12.007c-.051.179-.135.364-.26.548l-1.123-.573.353-.636.192-.313.838.974zM10.474 10.246s2.93-3.073 3.41-3.937l-.72-.032-3.33 2.977.032.704.608.288z"/>
  </g>
  <path d="M9.335 13.723l1.139-1.139a1.61 1.61 0 000-2.277l-.285-.284 3.553-3.553.022-.023c2.013-2.012-.226-3.757-1.901-2.082l-2.65 2.65-2.414 2.414c-.451.451-.774.892-.982 1.51-.25.742-.39 1.57-.958 2.137l-.077.077-1.034 1.034L6.443 16.1l2.892-2.376z" fill="#FFE8CA"/>
  <path d="M2.884 12.4l-1.19 1.19-.862.862a.637.637 0 000 .899l7.567 7.567a.637.637 0 00.899 0l1.19-1.19.862-.862a.637.637 0 000-.899L3.783 12.4a.637.637 0 00-.899 0z" fill="#B0F6FF"/>
  <path d="M9.235 17.852l-2.95 2.951 2.114 2.115a.637.637 0 00.899 0l1.19-1.19.862-.862a.637.637 0 000-.899l-2.115-2.115z" fill="#60D8E8"/>
  <path d="M8.02 23.078a1.032 1.032 0 00.75.319c.27 0 .524-.102.719-.288l1.186-1.138a.418.418 0 10-.579-.604L8.91 22.505a.203.203 0 01-.285-.006l-1.731-1.806 2.336-2.24 1.732 1.805a.418.418 0 10.604-.58l-.461-.48 2.904-2.726a.419.419 0 00-.573-.61l-2.91 2.732-5.287-5.514c.49-.522.702-1.178.906-1.813.054-.168.105-.327.16-.483.19-.526.469-.934.965-1.41l5.447-5.222c.32-.306.698-.415 1.066-.308.367.106.66.409.75.771.095.391-.06.807-.441 1.173l-3.843 3.684a.418.418 0 00-.012.592l.293.306c.236.246.363.57.355.911a1.27 1.27 0 01-.393.896L9.267 13.35a.418.418 0 00.579.604l1.224-1.174c.408-.391.64-.917.651-1.482a2.101 2.101 0 00-.588-1.508l-.004-.004 3.111-2.983 5.301 2.513a.417.417 0 00.558-.199.418.418 0 00-.2-.557L16.398 6.9a2.292 2.292 0 00.594-2.096c-.276-1.26-1.458-2.034-2.69-1.764a.416.416 0 00-.129.053 1.838 1.838 0 00-.156-.054c-.658-.191-1.343-.006-1.88.508L6.69 8.771c-.59.564-.94 1.082-1.173 1.73-.06.169-.116.342-.17.51-.178.554-.347 1.079-.69 1.463l-.323-.337a1.04 1.04 0 00-1.469-.03l-2.046 1.96a1.04 1.04 0 00-.03 1.469l7.23 7.542zm8.154-18.094c.12.544-.075 1.1-.506 1.453a.422.422 0 00-.076.082l-.72-.342c.448-.53.62-1.16.472-1.761a1.848 1.848 0 00-.238-.553c.517.123.94.542 1.068 1.121zM1.399 14.671l2.045-1.961a.206.206 0 01.144-.055c.032 0 .092.01.142.06l4.92 5.133-2.337 2.24-4.92-5.132a.204.204 0 01.006-.285zM19.137 1.284a.418.418 0 00-.455-.38L6.762 1.99a.92.92 0 00-.627.33.92.92 0 00-.211.676l.071.784a.418.418 0 10.834-.076l-.072-.783a.087.087 0 01.021-.065.088.088 0 01.06-.032l11.92-1.086c.23-.02.4-.224.379-.454zM22.582 7.537l-1.296.118a.418.418 0 10.076.834l1.296-.118a.92.92 0 00.627-.33.92.92 0 00.211-.676l-.539-5.92a.927.927 0 00-1.006-.838l-1.009.092a.418.418 0 10.076.833l1.01-.092a.09.09 0 01.096.081l.539 5.92a.088.088 0 01-.02.064.087.087 0 01-.06.032z" fill="#000"/>
  <path d="M19.412 4.752a2.18 2.18 0 002.078 1.973.418.418 0 00.02-.836 1.34 1.34 0 01-1.265-1.213 1.33 1.33 0 011.079-1.433.418.418 0 00-.156-.822 2.163 2.163 0 00-1.756 2.331zM9.103 3.395a.927.927 0 00-1.235.436L6.11 7.505a.418.418 0 00.755.361l1.758-3.674a.09.09 0 01.12-.042l1.086.52a.418.418 0 10.361-.755l-1.087-.52zM12.438 13.693l7.06 3.317a.927.927 0 001.235-.436l2.565-5.361a.92.92 0 00.037-.708.92.92 0 00-.473-.527l-.914-.438a.419.419 0 00-.361.755l.914.438c.026.012.039.034.045.05a.086.086 0 01-.003.068l-2.566 5.362a.09.09 0 01-.121.041l-7.062-3.319a.419.419 0 00-.356.758z" fill="#000"/>
  <path d="M13.306 12.281c.313.15.647.227.993.227.883 0 1.7-.515 2.08-1.31.266-.556.3-1.181.094-1.762a2.29 2.29 0 00-1.178-1.312 2.284 2.284 0 00-.993-.226c-.883 0-1.7.514-2.08 1.31a2.307 2.307 0 001.084 3.073zm-.33-2.712a1.476 1.476 0 011.326-.834c.219 0 .432.048.632.144.353.17.62.466.75.836.13.37.11.768-.06 1.121a1.476 1.476 0 01-1.325.835 1.47 1.47 0 01-1.322-2.101zM18.56 12.24a2.18 2.18 0 00.76 2.749.416.416 0 00.58-.119.419.419 0 00-.12-.58 1.34 1.34 0 01-.465-1.689 1.33 1.33 0 011.66-.679.418.418 0 10.286-.786 2.163 2.163 0 00-2.701 1.104z" fill="#000"/>
</svg>
