<svg width="24" height="24" fill="none" xmlns="http://www.w3.org/2000/svg">
  <defs/>
  <path d="M23.069 6.636a2.357 2.357 0 01-2.357 2.357v6.864L10.664 20.08V8.993a2.356 2.356 0 01-2.356-2.357 2.946 2.946 0 012.945-2.946h8.87a2.946 2.946 0 012.945 2.946z" fill="#EEEBEE"/>
  <path d="M11.617 8.993v11.086h-.962V8.993A2.356 2.356 0 018.3 6.636a2.946 2.946 0 012.945-2.946h.962a2.946 2.946 0 00-2.945 2.946 2.357 2.357 0 002.356 2.357zM21.333 8.907c-.2.056-.412.086-.63.086a1.885 1.885 0 01-1.885-1.886c0-.833.676-1.508 1.509-1.508.202 0 .392.05.56.138a1.508 1.508 0 00-.877 1.37c0 .846.556 1.561 1.323 1.8z" fill="#D3CED5"/>
  <path d="M20.107 1.889h-8.854a.9.9 0 100 1.801h8.854a.9.9 0 000-1.801z" fill="#EEEBEE"/>
  <g fill="#D3CED5">
    <path d="M13.122 3.426a.898.898 0 00.637.264h-2.506a.898.898 0 01-.9-.9c0-.498.403-.901.9-.901h2.506a.901.901 0 00-.637 1.537zM12.579 9.456a.866.866 0 00-.866.866v6.847a.866.866 0 101.732 0v-6.847a.866.866 0 00-.866-.866zM15.696 9.456a.866.866 0 00-.866.866v6.847a.866.866 0 101.732 0v-6.847a.866.866 0 00-.866-.866zM18.814 9.456a.866.866 0 00-.866.866v6.847a.866.866 0 001.732 0v-6.847a.866.866 0 00-.866-.866z"/>
  </g>
  <path d="M22.616 15.795l-5.864 4.703c-.482.386-1.1.563-1.713.488l-7.903-.962-2.106.779c-1.13-1.163-.666-4.906-.666-4.906l.502-.138a1.901 1.901 0 011.062-1.831l3.39-1.655 1.742-.851a1.656 1.656 0 011.578 2.909L9.82 16.018l4.74.825c.571.1 1.158-.02 1.644-.336l4.715-3.06a1.45 1.45 0 011.697 2.347z" fill="#F1D0A5"/>
  <path d="M15.025 19.722c-3.246.422-5.484-1.482-6.838-3.273a1.909 1.909 0 01.492-2.759c3.27-2.095 4.115-2.018 4.563-1.57a1.657 1.657 0 00-2.182-.698l-1.743.85-2.747 1.342-.642.314a1.9 1.9 0 00-1.062 1.831l-.502.138s-.465 3.743.666 4.906l2.106-.779 7.903.962a2.296 2.296 0 001.713-.488l5.864-4.703c-2.027-.55-5.404 3.593-7.59 3.927z" fill="#F1B986"/>
  <path d="M3.663 15.426a6.832 6.832 0 00-2.822.997 55.328 55.328 0 002.01 5.689 6.83 6.83 0 002.822-.998 55.348 55.348 0 00-2.01-5.688z" fill="#80A6C6"/>
  <path d="M5.673 21.114a6.822 6.822 0 01-2.822.998 55.865 55.865 0 01-.582-1.46 7.261 7.261 0 002.944-1.03c.16.495.314.992.46 1.492z" fill="#5B8EB8"/>
  <path d="M23.436 14.188a1.791 1.791 0 00-.312-.621 1.804 1.804 0 00-2.08-.566v-3.69a2.701 2.701 0 002.357-2.675c0-1.462-.96-2.704-2.282-3.13a1.243 1.243 0 00-1.012-1.959h-8.854a1.243 1.243 0 00-1.011 1.962 3.292 3.292 0 00-2.276 3.127 2.701 2.701 0 002.349 2.674v2.096L5.78 13.621A2.24 2.24 0 004.525 15.5l-.416.115a54.348 54.348 0 00-.131-.32.341.341 0 00-.357-.208 7.2 7.2 0 00-2.96 1.046.341.341 0 00-.147.386 55.92 55.92 0 002.022 5.723.34.34 0 00.356.208 7.202 7.202 0 002.961-1.046.341.341 0 00.147-.386l-.056-.19 1.233-.456.824.1a.341.341 0 00.082-.676l-.906-.11a.343.343 0 00-.16.018l-1.272.47a56.05 56.05 0 00-1.38-3.922l.592-.164a.34.34 0 00.249-.351 1.559 1.559 0 01.872-1.503l5.131-2.506a1.309 1.309 0 011.733.554 1.312 1.312 0 01-.48 1.756l-2.817 1.688a.34.34 0 00.117.629l4.74.825a2.631 2.631 0 001.888-.386l4.715-3.06a1.115 1.115 0 011.674.635 1.11 1.11 0 01-.377 1.16l-5.863 4.703c-.408.327-.94.479-1.46.415l-5.643-.687a.34.34 0 00-.083.677l5.644.687a2.65 2.65 0 001.969-.56l5.852-4.695.011-.008a1.792 1.792 0 00.607-1.873zm-20.37 7.549a55.271 55.271 0 01-1.823-5.157 6.508 6.508 0 012.206-.78 55.297 55.297 0 011.822 5.157 6.505 6.505 0 01-2.206.78zm7.627-18.948a.56.56 0 01.56-.56h8.853a.56.56 0 010 1.12h-8.853-.002a.56.56 0 01-.558-.56zM8.648 6.636A2.608 2.608 0 0111.25 4.03H20.114a2.608 2.608 0 012.605 2.605 2.018 2.018 0 01-2.016 2.016 1.546 1.546 0 01-1.544-1.545c0-.644.524-1.167 1.168-1.167.477 0 .865.388.865.865a.34.34 0 10.682 0c0-.853-.694-1.547-1.547-1.547-.904 0-1.657.651-1.818 1.508h-5.651a1.852 1.852 0 00-1.817-1.508c-.853 0-1.547.694-1.547 1.547a.34.34 0 10.681 0c0-.477.389-.865.866-.865.643 0 1.167.523 1.167 1.167 0 .852-.693 1.545-1.544 1.545a2.018 2.018 0 01-2.016-2.016zm2.348 4.44V9.307a2.231 2.231 0 001.868-1.86h5.64a2.231 2.231 0 001.859 1.86v4.094l-.342.222v-3.301c0-.666-.541-1.207-1.207-1.207-.665 0-1.207.541-1.207 1.207v.711a.34.34 0 10.682 0v-.711a.526.526 0 011.05 0v3.743l-1.05.682v-2.36a.34.34 0 00-.682 0v2.803l-.704.457v-5.325c0-.666-.541-1.207-1.207-1.207-.665 0-1.207.541-1.207 1.207v6.163l-.704-.123v-6.04c0-.666-.541-1.207-1.207-1.207-.665 0-1.207.541-1.207 1.207v.633a1.987 1.987 0 00-.375.12zm1.057-.147v-.606a.526.526 0 011.05 0v1.084a1.982 1.982 0 00-1.05-.478zm.76 3.694c.104-.063.201-.135.29-.212v1.833l-1.05-.183v-.983l.76-.455zm-1.442.864v.456l-.59-.103.59-.353zm3.8 1.038v-6.202a.526.526 0 011.05 0v5.767l-.202.132c-.258.167-.548.27-.848.303z" fill="#000"/>
  <path d="M11.397 14.24c.139 0 .279-.033.41-.102l.422-.226a.34.34 0 00-.32-.601l-.423.225a.184.184 0 01-.238-.057 2.686 2.686 0 01-.373-.862.34.34 0 00-.67.13c.005.022.112.567.477 1.111a.859.859 0 00.715.383zM3.816 20.83a.344.344 0 00.332-.266c.07-.3-.282-.527-.53-.352a.343.343 0 00-.12.4c.05.13.178.218.318.218z" fill="#000"/>
</svg>
