<svg width="24" height="24" fill="none" xmlns="http://www.w3.org/2000/svg">
  <defs/>
  <g fill-rule="evenodd" clip-rule="evenodd">
    <path d="M3.885 15.791l-2.553.956a3.212 3.212 0 106.25 1.391l-3.697-2.347zM16.348 16.963h-.043a3.211 3.211 0 003.126 3.952 3.211 3.211 0 003.125-3.952l-2.873-.708-3.335.708z" fill="#838383"/>
    <path d="M10.567 12.588l-2.897 3.13c.115.265.334 1.038-.006 1.034l-.198-.002.001.004 2.35.767c3.423-.152 2.24-.078 4.75-2.422l.409-2.51-2.165-1.222-2.244 1.221z" fill="#ECECEC"/>
    <path d="M14.976 12.588h-4.409l-.943 1.018h2.712c.711 0 .685-.032.28.652l-.71 1.059a.955.955 0 01.625.623l1.564-2.143.88-1.209z" fill="#CECECE"/>
    <path d="M4.48 13.728c-1.59-.066-3.204.677-3.559 1.99-.112.417-.203 1.062.411 1.03h2.51l.776-1.03-.139-1.99zM7.67 15.718c-.335-.798-.95-1.338-1.675-1.653l-.718 1.344.106 1.338h1.911l.172.003.198.002c.34.004.121-.768.005-1.034z" fill="#FE636E"/>
    <path d="M11.605 15.27a.985.985 0 00-.706.297.983.983 0 00-.152 1.187h.686c.421 0 .564-.078.791-.39l.308-.424a.96.96 0 00-.927-.67z" fill="#838383"/>
    <path d="M20.097 8.65h-1.19a1.38 1.38 0 00-.933.363l-.606 1.149.606.896c.247.225.573.362.932.362h1.19a.426.426 0 00.426-.424v-1.92a.426.426 0 00-.425-.425zM17.63 15.046l-.316-.66-.05-.103c-.636.366-1.142.905-1.396 1.606-.15.416-.268 1.048.436 1.074h2.246l-.21-.439-.71-1.478zM22.762 15.378c-.918-1.409-2.733-1.882-4.294-1.55l.075.163.266.566.723 1.545.404.86h2.62c.078 0 .145-.006.206-.018.528-.114.436-.682.274-1.055a3.603 3.603 0 00-.274-.511zM16.482 3.406l-1.699-.317c-.216-.04-.398.18-.398.4v.893c0 .22.178.398.398.398h1.699a.4.4 0 00.4-.398v-.579c0-.219-.185-.358-.4-.397z" fill="#FE636E"/>
    <path d="M9.229 10.144H3.86c-.55-.028-.778-.752-1.319-.755l-.612.003c-.444-.027-.965.154-.965.848v1.421c0 .508.365.927 1.06.927h8.543l1.19-1.221-1.19-1.223h-1.34z" fill="#838383"/>
    <path d="M4.479 13.728c-1.59-.066-3.204.677-3.558 1.99-.094.347-.171.852.158.992a3.433 3.433 0 013.171-1.896l.067-.316.162-.77zM7.65 15.671c-.34-.772-.944-1.298-1.656-1.606l-.173.762-.085.373c.652.34 1.182.884 1.504 1.547h.053l.173.003.198.003c.34.003.12-.77.005-1.035a2.126 2.126 0 00-.02-.047zM22.762 15.378c-.47-.72-1.172-1.195-1.955-1.443a4.624 4.624 0 00-2.34-.106l.076.162.02.042c.794.015 1.587.232 2.244.664.384.254.721.582.986.986.102.158.194.329.273.511.1.232.175.542.086.769h.404c.078 0 .145-.007.206-.02.528-.113.436-.681.274-1.054a3.615 3.615 0 00-.274-.511zM17.264 14.283c-.298.17-.566.38-.794.624l.217.45.708 1.477.063.129h1.092l-.21-.439-.71-1.478-.317-.66-.05-.103zM20.097 8.65h-.758c.233 0 .425.192.425.425v1.92a.426.426 0 01-.425.425h.758a.426.426 0 00.425-.424v-1.92a.426.426 0 00-.425-.425z" fill="#FB2A39"/>
    <path d="M9.478 10.144h1.09v2.444h-1.09v-2.444z" fill="#595959"/>
    <path d="M18.952 17.8l-.369-.767-.033-.07h-.547a1.605 1.605 0 001.427 2.35 1.608 1.608 0 001.427-2.35h-.922l.032.07.069.148c.398.85-.791 1.228-1.084.62z" fill="#ECECEC"/>
    <path d="M22.152 16.963h-.684a3.21 3.21 0 01-2.582 3.907 3.211 3.211 0 003.67-3.907h-.404z" fill="#595959"/>
    <path d="M16.88 3.803c0-.219-.183-.358-.399-.398l-.48-.089c.11.08.184.2.184.359v.654c0 .248-.18.451-.398.451h.694a.4.4 0 00.4-.398v-.579z" fill="#FB2A39"/>
    <path d="M7.582 18.138l-1.017.002a3.214 3.214 0 01-2.68 2.735 3.212 3.212 0 003.697-2.736z" fill="#595959"/>
    <path d="M3.843 16.747h-.735a1.61 1.61 0 102.841 1.392l-2.106-1.392z" fill="#ECECEC"/>
    <path d="M10.747 16.754H5.382l-.706.478-.063.909 1.335-.001 1.634-.002 4.477-.002c.164 0 .692 0 1.165-.701l3.426-4.477v-.37h-1.674l-.881 1.209-1.564 2.143-.307.423c-.227.313-.37.39-.792.39h-.685z" fill="#FFBF00"/>
    <path d="M16.65 10.417c0-1.825-5.025-2.06-6.083-.273v2.444h6.083l.568-1.168-.568-1.003z" fill="#FE636E"/>
    <path d="M16.65 10.417c0-1.591-3.82-1.973-5.5-.86 1.847-.459 4.372.035 4.372 1.329v1.702h1.128V10.417z" fill="#FB2A39"/>
    <path d="M17.218 6.457l-2.236-.008c-.878-.004-.883 1.23-.011 1.28l1.68.098v5.178l.663 1.38.317.661.71 1.478.243.509.369.767c.292.609 1.482.231 1.083-.62l-.069-.147-.435-.93-.723-1.546-.266-.566-.568-1.215V7.253c0-.14-.033-.26-.088-.356a.734.734 0 00-.669-.44z" fill="#FFD659"/>
    <path d="M17.886 6.896a.734.734 0 00-.668-.44h-.603a.732.732 0 01.665.438.72.72 0 01.088.357v5.522l.564 1.206.006.01.264.565.723 1.545.405.864.032.069.067.146c.196.416.01.72-.264.85.437.239 1.201-.14.87-.847l-.068-.148-.032-.07-.403-.86-.724-1.546-.245-.524-.02-.042-.076-.162-.493-1.053V7.253c0-.14-.033-.26-.088-.357z" fill="#FFBF00"/>
    <path d="M3.75 17.18c-.12.7.404 1.035.865.938.233-.05.45-.21.558-.491.021-.056.04-.119.052-.185l1.106-4.854h-1.61l-.97 4.593z" fill="#FFD659"/>
    <path d="M6.331 12.588h-1.61l-.47 2.226a3.41 3.41 0 011.486.386c.197-.871.396-1.741.594-2.612z" fill="#FFBF00"/>
  </g>
  <path d="M23.346 15.755c-.401-.928-1.13-1.629-2.109-2.026a4.883 4.883 0 00-2.573-.28l-.35-.749v-1.046c.188.07.388.106.592.106h1.19a.765.765 0 00.765-.764v-1.92a.765.765 0 00-.764-.764h-1.19c-.205 0-.405.036-.593.105V7.254c0-.187-.042-.358-.124-.509a1.073 1.073 0 00-.74-.601l-.517-1.18a.735.735 0 00.287-.582v-.579c0-.363-.272-.657-.677-.731l-1.698-.316h-.001a.63.63 0 00-.525.143.775.775 0 00-.274.59v.893c0 .407.33.738.737.738h1.477l.438.995-1.714-.005h-.006c-.635 0-.982.468-.996.931-.015.481.313.989.97 1.027l1.36.08v1.09a3.262 3.262 0 00-1.028-.46c-1.673-.458-4.018-.138-4.895 1.027H7.733a.34.34 0 100 .679h2.494v1.765H2.023c-.45 0-.72-.22-.72-.588V10.24c0-.173.044-.302.128-.382.1-.093.274-.14.478-.127h.021l.61-.002c.131 0 .248.106.428.278.213.203.477.456.875.476h2.411a.34.34 0 100-.678H3.87c-.133-.01-.253-.116-.432-.288-.217-.207-.487-.465-.898-.467l-.602.002c-.391-.02-.736.09-.972.312-.156.147-.342.418-.342.876v1.421c0 .746.576 1.267 1.4 1.267H4.3l-.096.458C2.659 13.413.99 14.16.593 15.63c-.148.548-.12.939.087 1.194a.684.684 0 00.235.185 3.554 3.554 0 003.483 4.245c1.67 0 3.11-1.174 3.467-2.777l1.536-.002a.34.34 0 000-.679H9.4l-3.933.005c.039-.088.07-.184.09-.29l.095-.418H11.432c.521 0 .77-.123 1.066-.53l1.873-2.57.005-.007.772-1.058h1.097l-3.29 4.3a.448.448 0 00-.012.017c-.373.551-.745.551-.884.551h-1.325a.34.34 0 000 .68h1.325c.575 0 1.06-.284 1.44-.843l3.07-4.011.257.536a3.332 3.332 0 00-1.278 1.616c-.184.508-.179.906.015 1.182.066.095.175.2.347.27a3.554 3.554 0 003.52 4.03 3.554 3.554 0 003.52-4.015.785.785 0 00.412-.311c.269-.41.079-.959-.015-1.175zm-5.032-6.58c.174-.12.38-.184.592-.184h1.19c.047 0 .086.039.086.085v1.92c0 .046-.039.085-.085.085h-1.19a1.04 1.04 0 01-.593-.185v-1.72zM16.54 4.383a.06.06 0 01-.06.059h-1.699a.06.06 0 01-.058-.059V3.49c0-.023.012-.048.023-.06l1.673.31c.068.013.121.045.121.065v.578zM1.33 16.408h-.017c-.08.005-.105-.011-.105-.011-.02-.02-.07-.177.04-.59.26-.963 1.434-1.67 2.812-1.738l-.494 2.339H1.333 1.33zm2.933 2.049c.03.005.06.01.091.012a.343.343 0 00.087.011h.962a1.27 1.27 0 01-2.275-.773c0-.22.057-.431.163-.62h.132l-.005.024a.416.416 0 00-.002.012c-.13.753.327 1.241.847 1.334zm1.924.022l.979-.001a2.883 2.883 0 01-2.767 2.098 2.875 2.875 0 01-2.806-3.49h.957a1.95 1.95 0 003.637 1.392zM5.66 14l-.61 2.674-.001.006-.157.686a.347.347 0 00-.003.014c-.07.38-.352.435-.508.407-.089-.015-.372-.101-.298-.544l.088-.42a.45.45 0 00.004-.015l.82-3.881h.91l-.242 1.057a.232.232 0 00-.003.016zm1.637 2.407h-1.49l.42-1.843c.516.31.902.747 1.127 1.285l.002.005c.072.162.133.405.147.556l-.206-.003zm-.913-2.532l.217-.948H9.79l-2.041 2.204a3.432 3.432 0 00-1.364-1.255zm1.675 1.92l2.655-2.868h3.593l-.386.53h-2.069a.34.34 0 000 .678h1.574l-.873 1.199a1.312 1.312 0 00-.95-.404c-.36 0-.696.142-.947.397a1.325 1.325 0 00-.372 1.086H8.184a2.314 2.314 0 00-.124-.618zm3.372.618h-.46a.652.652 0 01.17-.61.643.643 0 01.462-.194c.226 0 .423.11.537.29l-.192.264c-.162.222-.2.25-.517.25zm4.878-4.165h-5.404v-2.006c.65-.932 2.755-1.206 4.198-.81.363.1 1.206.394 1.206.984v1.832zm.36-4.76l-1.68-.099c-.251-.014-.335-.185-.33-.327.002-.083.038-.274.318-.274h.002l2.236.007c.156.001.297.094.36.236a.36.36 0 00.015.032c.03.052.044.115.044.19v5.522c0 .05.01.099.032.144l.486 1.039.014.03 1.561 3.336c.09.192.057.322-.102.397-.11.052-.303.067-.368-.068l-2.269-4.726V7.827a.34.34 0 00-.32-.338zm3.764 9.813h.198a1.27 1.27 0 11-2.473.404c0-.139.023-.274.067-.404h.11l.31.646c.163.34.486.491.812.491.158 0 .317-.036.46-.103.346-.165.62-.544.516-1.034zm-4.315-.736c-.033-.047-.056-.219.067-.561.175-.482.497-.9.939-1.226l.885 1.844h-1.663c-.116 0-.203-.022-.228-.057zm3.31 4.01a2.875 2.875 0 01-2.844-3.274h.938a1.95 1.95 0 001.906 2.351 1.95 1.95 0 001.906-2.35h.938a2.875 2.875 0 01-2.843 3.274zm3.365-4.019c-.027.042-.116.066-.239.066H20.15l-1.184-2.53c1.415-.154 3.077.36 3.758 1.932.108.25.117.46.07.532z" fill="#000"/>
</svg>
