<svg width="24" height="24" fill="none" xmlns="http://www.w3.org/2000/svg">
  <defs/>
  <path d="M9.12 17.912h11.683v-8.74c0-3.22-2.611-5.832-5.832-5.832H7.535a5.832 5.832 0 00-5.832 5.832v8.74h1.921" fill="#8DE0A8"/>
  <path d="M9.676 3.34h-2.14a5.832 5.832 0 00-5.833 5.832v8.74h2.141v-8.74A5.832 5.832 0 019.676 3.34z" fill="#7BC690"/>
  <path d="M6.372 20.66a2.748 2.748 0 100-5.496 2.748 2.748 0 000 5.496z" fill="#415E72"/>
  <path d="M6.372 19.182a1.27 1.27 0 100-2.54 1.27 1.27 0 000 2.54z" fill="#CFDCE5"/>
  <g fill="#4EBFED">
    <path d="M9.889 7.374H4.96a.87.87 0 00-.87.87v2.376c0 .481.39.87.87.87H9.89c.48 0 .87-.389.87-.87V8.245a.87.87 0 00-.87-.87zM17.098 7.375h-3.154a.87.87 0 00-.87.87v2.376c0 .48.389.87.87.87h3.154c.48 0 .87-.39.87-.87V8.245a.87.87 0 00-.87-.87z"/>
  </g>
  <g fill="#FCD577">
    <path d="M10.759 8.245v.748H4.091v-.748c0-.481.39-.87.87-.87H9.89c.48 0 .87.389.87.87zM17.968 8.245v.749h-4.895v-.749c0-.48.39-.87.87-.87h3.155c.48 0 .87.39.87.87z"/>
  </g>
  <path d="M6.379 16.256c-.914 0-1.656.743-1.656 1.656 0 .913.742 1.656 1.656 1.656.913 0 1.655-.743 1.655-1.656 0-.913-.742-1.656-1.655-1.656zm0 2.54a.885.885 0 010-1.768.885.885 0 010 1.768zM9.895 6.988H4.967c-.692 0-1.256.564-1.256 1.257v2.375c0 .693.564 1.257 1.256 1.257h4.928c.693 0 1.256-.564 1.256-1.257V8.245c0-.693-.563-1.257-1.256-1.257zm0 4.117H4.967a.485.485 0 01-.484-.485V9.38h4.114a.386.386 0 100-.773H4.483v-.362c0-.267.217-.485.484-.485h4.928c.267 0 .484.218.484.485v.362h-.41a.386.386 0 100 .772h.41v1.241a.485.485 0 01-.484.485zM17.104 11.877c.693 0 1.256-.564 1.256-1.257V8.245c0-.693-.563-1.257-1.256-1.257H13.95c-.693 0-1.257.564-1.257 1.257v2.375c0 .693.564 1.257 1.257 1.257h3.154zM13.95 7.76h3.154c.267 0 .484.218.484.485v.363h-4.123v-.363c0-.267.217-.485.485-.485zm-.485 2.86V9.38h4.123v1.24a.485.485 0 01-.484.485H13.95a.485.485 0 01-.485-.485z" fill="#000"/>
  <path d="M23.114 17.526h-1.92V9.172a6.225 6.225 0 00-6.217-6.218H7.54c-.257 0-.516.016-.77.047a.386.386 0 10.095.766c.222-.027.45-.041.675-.041h7.436a5.452 5.452 0 015.446 5.446v4.238h-3.401a.386.386 0 000 .772h3.4v3.344H9.488a3.138 3.138 0 00-3.109-2.748 3.138 3.138 0 00-3.11 2.748H2.096v-.957h.437a.386.386 0 100-.772h-.437V9.172a5.44 5.44 0 013.326-5.018.386.386 0 10-.3-.711 6.21 6.21 0 00-3.798 5.73v6.624H.886a.386.386 0 100 .772h.437v1.343c0 .213.173.386.386.386h1.56a3.138 3.138 0 003.11 2.748 3.138 3.138 0 003.108-2.748h13.627a.386.386 0 100-.772zM6.378 20.274a2.364 2.364 0 01-2.362-2.362 2.365 2.365 0 012.362-2.362 2.365 2.365 0 012.362 2.362 2.365 2.365 0 01-2.362 2.362z" fill="#000"/>
  <path d="M2.97 13.796c0 .213.172.386.386.386h12.266a.386.386 0 000-.772H3.356a.386.386 0 00-.386.386z" fill="#000"/>
</svg>
