<svg width="24" height="24" fill="none" xmlns="http://www.w3.org/2000/svg">
  <defs/>
  <path d="M14.366 8.733l-1.219 2.322-2.396-4.553a.27.27 0 00-.477 0L1.58 23.162h20.838L14.843 8.734a.27.27 0 00-.477 0z" fill="#B6E3EE"/>
  <path d="M22.419 23.163l-7.575-14.43a.27.27 0 00-.478 0l-1.218 2.322 6.37 12.108h2.901z" fill="#96D2E0"/>
  <path d="M13.446 11.67l-.884.884a.27.27 0 01-.38 0l-.736-.736a.27.27 0 00-.381 0l-1.48 1.48a.27.27 0 01-.38 0L7.577 11.67l2.696-5.166a.27.27 0 01.477 0l2.696 5.166z" fill="#fff"/>
  <path d="M16.386 11.67l-.884.884a.27.27 0 01-.38 0l-.736-.736a.27.27 0 00-.381 0l-.316.317-.558-1.07 1.235-2.334a.27.27 0 01.477 0l1.543 2.94z" fill="#E6E6E6"/>
  <path d="M8.855 19.435L7.78 17.02a.27.27 0 00-.492 0l-1.074 2.416a.27.27 0 00.246.38h.33l-.597 1.49a.27.27 0 00.25.37h2.181a.27.27 0 00.25-.37l-.596-1.49h.33a.27.27 0 00.246-.38z" fill="#00CE96"/>
  <path d="M8.279 19.814H6.791l-.597 1.49a.27.27 0 00.25.37h2.181a.27.27 0 00.25-.37l-.596-1.49z" fill="#00BA88"/>
  <path d="M17.785 19.435L16.71 17.02a.27.27 0 00-.493 0l-1.073 2.416a.27.27 0 00.246.38h.33l-.597 1.49a.27.27 0 00.25.37h2.18a.27.27 0 00.251-.37l-.596-1.49h.33a.27.27 0 00.245-.38z" fill="#00CE96"/>
  <path d="M17.209 19.814H15.72l-.596 1.49a.27.27 0 00.25.37h2.18a.27.27 0 00.251-.37l-.596-1.49z" fill="#00BA88"/>
  <path d="M8.279 4.93a1.488 1.488 0 00-2.164-1.327.266.266 0 01-.3-.044A1.86 1.86 0 002.697 4.93H8.28z" fill="#00BCE7"/>
  <g>
    <path d="M21.303 6.419a1.488 1.488 0 00-2.163-1.327.266.266 0 01-.3-.045 1.86 1.86 0 00-3.118 1.371h5.581z" fill="#00BCE7"/>
  </g>
  <g>
    <path d="M13.86 4.558a1.86 1.86 0 100-3.721 1.86 1.86 0 000 3.721z" fill="#FFD151"/>
    <path d="M13.86.837c-.155 0-.305.02-.449.055a1.861 1.861 0 010 3.611 1.86 1.86 0 10.45-3.666z" fill="#F79B4A"/>
  </g>
  <g fill="#000">
    <path d="M23.163 22.826h-.54l-5.939-11.31-.001-.004-1.78-3.39a.337.337 0 00-.597 0l-1.17 2.228-2.326-4.46a.337.337 0 00-.597 0L7.28 11.513l-.002.003-5.901 11.311h-.54a.337.337 0 100 .674h3.008a.337.337 0 100-.674H2.137l5.527-10.593 1.493 1.494a.337.337 0 00.477 0l1.622-1.623.878.879a.337.337 0 00.476 0l.75-.75.03.057v.003l1.87 3.584a.337.337 0 00.598-.312L14.1 12.198l.094-.094.878.879a.336.336 0 00.476 0l.75-.75 5.562 10.593h-5.059v-.815h1.151a.337.337 0 00.313-.462l-.56-1.398h.247a.337.337 0 00.308-.474l-1.488-3.349a.337.337 0 00-.616 0l-1.488 3.35a.337.337 0 00.308.473h.246l-.56 1.398a.337.337 0 00.314.462h1.151v.815H7.872v-.815h1.151a.337.337 0 00.313-.462l-.56-1.398h.247a.337.337 0 00.308-.474l-1.489-3.349a.337.337 0 00-.615 0l-1.489 3.35a.337.337 0 00.308.473h.247l-.56 1.398a.337.337 0 00.313.462h1.152v.815H5.19a.337.337 0 100 .674h17.972a.337.337 0 100-.674zM12.372 12.268l-.878-.878a.337.337 0 00-.477 0l-1.622 1.622-1.405-1.405 2.522-4.832 2.52 4.832-.66.66zm2.94 0l-.879-.878a.337.337 0 00-.476 0l-.183.182-.03-.056a.032.032 0 000-.004l-.228-.435 1.088-2.073 1.368 2.604-.66.66zm-8.768 9.07l.56-1.399a.337.337 0 00-.314-.462h-.225l.97-2.182.97 2.182h-.226a.337.337 0 00-.313.462l.56 1.399H6.543zm8.93 0l.56-1.399a.337.337 0 00-.313-.462h-.226l.97-2.182.97 2.182h-.226a.337.337 0 00-.313.462l.56 1.399h-1.982zM13.86 4.895a2.2 2.2 0 002.198-2.198A2.2 2.2 0 0013.861.5a2.2 2.2 0 00-2.198 2.197 2.2 2.2 0 002.197 2.198zm0-3.721c.84 0 1.524.683 1.524 1.523 0 .84-.683 1.524-1.524 1.524-.84 0-1.523-.683-1.523-1.524 0-.84.683-1.523 1.524-1.523zM1.581 5.267h2.233a.337.337 0 100-.674h-.742a1.525 1.525 0 012.628-.67.337.337 0 00.443.055 1.154 1.154 0 011.749.615h-.357a.337.337 0 100 .674h2.232a.337.337 0 100-.674H8.584A1.828 1.828 0 006.01 3.28a2.198 2.198 0 00-3.623 1.313h-.805a.337.337 0 000 .674zM15.41 6.082h-.806a.337.337 0 100 .673h2.233a.337.337 0 100-.673h-.741a1.525 1.525 0 012.628-.67.337.337 0 00.442.055 1.153 1.153 0 011.749.615h-.357a.337.337 0 100 .674h2.233a.337.337 0 100-.674h-1.183a1.828 1.828 0 00-2.576-1.313 2.199 2.199 0 00-3.623 1.313z"/>
  </g>
</svg>
