<svg width="24" height="24" fill="none" xmlns="http://www.w3.org/2000/svg">
  <defs/>
  <g fill-rule="evenodd" clip-rule="evenodd">
    <path d="M20.91 7.27c-.808.186-1.464.784-1.464 1.334s.656.844 1.464.655c.81-.187 1.465-.785 1.465-1.335 0-.294-.189-.515-.488-.628-.258-.098-.602-.115-.977-.027z" fill="#F74311"/>
    <path d="M15.934 21.039L8.878 18.61l-7.252 2.428v1.042c0 .545.408.999.934 1.07h12.438c.527-.071.936-.525.936-1.07v-1.042zM14.854.84H2.705c-.594 0-1.079.485-1.079 1.08v1.305l7.03 1.742 7.278-1.742V1.919c0-.594-.487-1.079-1.08-1.079z" fill="gray"/>
    <path d="M15.934 1.92c0-.595-.486-1.08-1.08-1.08h-1.348c.593 0 1.079.485 1.079 1.08v1.305h1.35V1.92zM15.934 21.039h-1.35v1.042c0 .545-.408.999-.934 1.07h1.348c.527-.071.936-.525.936-1.07v-1.042z" fill="#666"/>
    <path d="M22.374 7.924c0-.294-.188-.515-.488-.628-.258-.098-.601-.115-.977-.027a2.449 2.449 0 00-.663.26 1.63 1.63 0 01.82.06c.299.113.487.334.487.628 0 .388-.326.8-.802 1.073a1.79 1.79 0 00.158-.03c.81-.188 1.465-.786 1.465-1.336z" fill="#D92525"/>
    <path d="M15.934 3.225H1.626v17.814h14.308V3.225z" fill="#A2D6F2"/>
    <path d="M15.934 3.225h-1.349v17.814h1.349V3.225z" fill="#64B0D9"/>
    <path d="M17.512 8.94c-.268-.133-.647-.166-1.068-.068-.18.042-.351.105-.51.181-.558.27-.954.727-.954 1.154 0 .428.396.7.954.713.159.002.33-.015.51-.056.81-.188 1.465-.785 1.465-1.335 0-.263-.152-.468-.397-.59z" fill="#F74311"/>
    <path d="M17.512 8.94c-.267-.133-.646-.166-1.068-.068a2.505 2.505 0 00-.663.263c.053-.01.103-.016.153-.02.295-.025.557.018.757.116.246.121.396.326.396.59 0 .388-.325.799-.8 1.073a4.01 4.01 0 00.157-.03c.81-.188 1.465-.785 1.465-1.335 0-.263-.151-.468-.397-.59z" fill="#D92525"/>
    <path d="M5.207 17.887a.82.82 0 00-1.638 0v.724a.82.82 0 001.638 0v-.724zM8.192 16.675a.82.82 0 00-.819-.818c-.45 0-.82.368-.82.819v1.935c0 .45.37.818.82.818a.82.82 0 00.819-.818v-1.936zM11.176 17.887a.821.821 0 00-.82-.818.82.82 0 00-.818.818v.724c0 .45.37.818.818.818.45 0 .82-.368.82-.818v-.724zM14.16 15.986a.82.82 0 00-1.638 0v2.625a.82.82 0 001.638 0v-2.625z" fill="#50D960"/>
    <path d="M8.665 6.427a3.755 3.755 0 10.001 7.51 3.755 3.755 0 000-7.51z" fill="#E6E6E6"/>
    <path d="M12.42 10.182a3.755 3.755 0 00-4.555-3.67 3.757 3.757 0 01.433 7.407 3.755 3.755 0 004.122-3.737z" fill="#C2C7CC"/>
    <path d="M9.268 9.068l-.725-.397c-.59-.296-1.2-.081-1.2.86v.65l.018.825c.038.66.53 1.08 1.345.61l.562-.325.706-.428c.551-.363.671-1-.143-1.47l-.563-.325z" fill="#F74311"/>
  </g>
  <path d="M22.343 7.165a1.168 1.168 0 00-.116-.08V4.513a.697.697 0 00-.252-.535.576.576 0 00-.48-.123l-3.727.777c-.362.074-.596.332-.596.657V8.49a2.3 2.3 0 00-.805.05 2.693 2.693 0 00-.093.023V1.92A1.42 1.42 0 0014.854.5H2.706a1.42 1.42 0 00-1.419 1.42v20.16c0 .783.637 1.42 1.42 1.42h12.149a1.42 1.42 0 001.419-1.42V11.24c.081-.011.163-.026.247-.045.969-.226 1.728-.957 1.728-1.666 0-.3-.132-.569-.371-.76l-.026-.018V5.316a.218.218 0 01.054-.017l3.64-.76v2.339a2.356 2.356 0 00-.714.06c-.968.224-1.726.956-1.726 1.666 0 .3.132.569.372.76.243.193.576.293.954.293.176 0 .363-.022.554-.067.97-.224 1.728-.955 1.728-1.666 0-.3-.132-.569-.371-.76zM14.855 22.82H2.705a.74.74 0 01-.739-.74v-.701h6.138a.34.34 0 100-.68H1.966V3.564h6.138a.34.34 0 100-.68H1.966v-.966a.74.74 0 01.74-.739h12.149a.74.74 0 01.739.74v.965H9.657a.34.34 0 000 .68h5.937V8.85c-.57.337-.953.852-.953 1.357 0 .3.131.57.37.76.16.126.359.212.583.257v9.474H9.558a.34.34 0 000 .68h6.036v.703a.74.74 0 01-.74.739zm1.512-12.288a1.72 1.72 0 01-.43.048h-.003-.002c-.232-.007-.401-.07-.497-.146a.273.273 0 01-.114-.227c0-.263.288-.615.74-.839a2.113 2.113 0 01.46-.165c.375-.086.658-.045.83.037l.004.001c.039.019.072.04.1.061a.273.273 0 01.114.227c0 .342-.494.838-1.202 1.003zm4.465-1.604c-.46.107-.783.02-.931-.098a.273.273 0 01-.115-.226c0-.344.493-.84 1.2-1.004.148-.034.281-.049.399-.049.252 0 .434.066.535.147a.272.272 0 01.114.226c0 .343-.493.84-1.202 1.004z" fill="#000"/>
  <path d="M4.39 16.728c-.64 0-1.16.52-1.16 1.159v.724a1.16 1.16 0 002.318 0v-.724a1.16 1.16 0 00-1.159-1.159zm.477 1.883a.479.479 0 01-.957 0v-.724a.48.48 0 01.957 0v.724zM7.374 15.517c-.64 0-1.16.52-1.16 1.158v1.936a1.16 1.16 0 002.318 0v-1.936a1.16 1.16 0 00-1.158-1.158zm.478 3.094a.479.479 0 01-.958 0v-1.936a.48.48 0 01.958 0v1.936zM10.356 19.769c.639 0 1.16-.52 1.16-1.158v-.724a1.16 1.16 0 00-2.318 0v.724c0 .639.519 1.158 1.158 1.158zm-.478-1.882a.479.479 0 01.957 0v.724a.48.48 0 01-.957 0v-.724zM12.182 15.986v2.625a1.16 1.16 0 002.318 0v-2.625a1.16 1.16 0 00-2.318 0zm.68 0a.479.479 0 01.957 0v2.625a.48.48 0 01-.957 0v-2.625zM12.76 10.182a4.1 4.1 0 00-4.095-4.096 4.1 4.1 0 00-4.095 4.096 4.1 4.1 0 004.095 4.095 4.1 4.1 0 004.095-4.095zm-4.095 3.415a3.419 3.419 0 01-3.415-3.415 3.418 3.418 0 013.415-3.415 3.419 3.419 0 013.415 3.415 3.42 3.42 0 01-3.415 3.415z" fill="#000"/>
  <path d="M10 9.098l-.563-.324-.006-.004-.726-.397-.01-.006c-.415-.208-.839-.214-1.162-.014-.242.15-.531.475-.531 1.177v.658l.018.825v.013c.027.463.234.833.57 1.013.12.065.28.118.48.118.22 0 .488-.063.805-.247l.563-.324a.237.237 0 00.006-.004l.706-.429a.182.182 0 00.01-.007c.389-.255.605-.619.594-.998-.009-.285-.146-.698-.754-1.05zm-.208 1.477L9.094 11l-.56.322c-.262.152-.483.194-.622.12-.12-.065-.198-.232-.212-.449l-.018-.815V9.53c0-.303.074-.516.208-.598.115-.071.3-.056.495.04l.716.393.56.322c.261.152.408.322.413.48.004.136-.102.288-.282.408zM13.133 2.233h.027a.34.34 0 000-.68h-.027a.34.34 0 000 .68zM12.02 2.233h.028a.34.34 0 000-.68h-.027a.34.34 0 000 .68z" fill="#000"/>
</svg>
