<svg width="24" height="24" fill="none" xmlns="http://www.w3.org/2000/svg">
  <defs/>
  <path d="M10.43 3.834l.71 2.772a.482.482 0 00.467.363h.787c.22 0 .412-.15.467-.363l.71-2.772a.482.482 0 00-.467-.602h-2.207a.482.482 0 00-.468.602z" fill="#E8B800"/>
  <path d="M13.104 3.232h-1.35c.315 0 .545.297.467.602l-.71 2.772a.482.482 0 01-.186.27c.08.059.178.093.282.093h.787c.22 0 .412-.15.467-.363l.71-2.772a.482.482 0 00-.467-.602z" fill="#D7AA02"/>
  <path d="M12 23.162A8.367 8.367 0 1012 6.43a8.367 8.367 0 000 16.733z" fill="#FED402"/>
  <path d="M12 6.429c-.227 0-.452.01-.675.027a8.367 8.367 0 010 16.679A8.367 8.367 0 1012 6.429z" fill="#E8B800"/>
  <path d="M12 20.164a5.369 5.369 0 100-10.737 5.369 5.369 0 000 10.737z" fill="#FEF0AE"/>
  <path d="M12 9.427c-.228 0-.454.014-.675.042a5.37 5.37 0 010 10.653A5.369 5.369 0 1012 9.427z" fill="#FEE97D"/>
  <path d="M10.527 11.24l-2.083 2.083v2.945l2.083 2.083h2.946l2.083-2.083v-2.945l-2.083-2.083h-2.946z" fill="#E8B800"/>
  <path d="M13.473 11.24h-1.35l1.82 1.82a.895.895 0 01.262.634v2.204a.896.896 0 01-.262.633l-1.82 1.82h1.35l2.083-2.083v-2.945l-2.083-2.083z" fill="#D7AA02"/>
  <path d="M11.247 16.615l-1.065-1.066v-1.507l1.065-1.066h1.507l1.066 1.066v1.507l-1.066 1.066h-1.507z" fill="#FEDF30"/>
  <path d="M12.754 12.976h-1.35l.744.745c.205.205.321.484.321.775v.599c0 .29-.116.57-.321.775l-.745.745h1.351l1.066-1.066v-1.507l-1.066-1.066z" fill="#FED402"/>
  <path d="M19.436 19.317a8.652 8.652 0 001.269-4.521 8.688 8.688 0 00-1.276-4.54.338.338 0 00-.576.353 7.98 7.98 0 01.87 1.984l-.762.164a7.22 7.22 0 00-.544-1.346.338.338 0 00-.515-.101l-.896.747a5.734 5.734 0 00-.741-1.049l1.646-1.646a8.2 8.2 0 01.248.282.338.338 0 10.518-.434 8.687 8.687 0 00-5.361-3.019l.374-1.46A7.287 7.287 0 0018.488.994a.338.338 0 00-.598-.313 6.615 6.615 0 01-4.008 3.3l.017-.063a.815.815 0 00-.147-.706.815.815 0 00-.648-.318h-2.207a.815.815 0 00-.648.318.814.814 0 00-.147.706l.017.063A6.615 6.615 0 016.11.681a.338.338 0 10-.599.313 7.287 7.287 0 004.799 3.737l.374 1.459a8.623 8.623 0 00-3.831 1.585 8.667 8.667 0 00-3.119 4.283.338.338 0 00.641.212 8.07 8.07 0 01.605-1.378l.656.423a7.227 7.227 0 00-.567 1.336.338.338 0 00.292.436l1.162.105a5.676 5.676 0 00-.22 1.266H3.98c.012-.308.042-.614.09-.916a.338.338 0 00-.668-.104 8.706 8.706 0 004.01 8.75.345.345 0 00.067.043A8.652 8.652 0 0012 23.5a8.706 8.706 0 007.395-4.118l.02-.026a.33.33 0 00.02-.039zm-5.233 3.2l-.164-.76a7.221 7.221 0 001.346-.545.338.338 0 00.101-.515l-.748-.896c.378-.208.73-.457 1.05-.74l1.643 1.643a8.026 8.026 0 01-3.228 1.813zM6.57 20.704l1.643-1.644a5.72 5.72 0 001.528.975l-.083.909a6.55 6.55 0 01-1.073-.526l-.011-.006-.016-.009-.015-.006-.016-.007-.015-.005-.017-.005-.015-.004c-.006 0-.011-.002-.017-.003l-.016-.002a.441.441 0 00-.016-.002h-.033l-.016.001c-.005 0-.01 0-.016.002a.438.438 0 00-.016.002l-.016.003-.016.005-.015.004-.015.006-.015.006a.271.271 0 00-.015.007l-.014.007-.015.01-.013.008-.014.01-.012.01-.013.012-.011.01-.012.014-.01.013-.011.014-.007.01-.602.934a8.094 8.094 0 01-.954-.753zm-2.591-5.57h2.325c.037.62.173 1.216.393 1.769l-.7.584a6.56 6.56 0 01-.387-1.13l-.004-.013-.005-.017-.006-.015-.006-.017-.008-.014-.008-.015-.009-.014c-.003-.005-.005-.01-.009-.014l-.01-.014-.01-.011-.012-.013-.01-.01-.014-.013-.011-.008-.015-.011-.012-.008-.016-.01-.012-.006a.345.345 0 00-.017-.008l-.012-.005-.018-.006-.013-.004-.019-.005-.013-.002-.02-.003-.013-.002H5.256l-.016.002a.37.37 0 00-.017.003l-.013.002-1.089.235a8.026 8.026 0 01-.142-1.208zM12 9.763a5.037 5.037 0 015.031 5.032 5.037 5.037 0 01-5.03 5.03 5.037 5.037 0 01-5.032-5.03A5.037 5.037 0 0112 9.765zm-2.69-.972a6.558 6.558 0 011.13-.387l.012-.004.017-.005.015-.006.017-.006.014-.008.015-.008.014-.008.014-.01.013-.01a.318.318 0 00.024-.021l.012-.012.01-.012.01-.012a.327.327 0 00.01-.014l.01-.013.007-.014a.373.373 0 00.008-.014l.006-.015.007-.015a.263.263 0 00.005-.015l.005-.016.004-.015a.305.305 0 00.004-.017l.002-.016.002-.017a.3.3 0 000-.016v-.017-.017l-.002-.017-.003-.016-.002-.014-.235-1.09a8.06 8.06 0 011.208-.141v2.325a5.666 5.666 0 00-1.77.394l-.584-.701zm8.124.093l-1.647 1.646a5.72 5.72 0 00-1.527-.975l.082-.909a6.554 6.554 0 011.108.544l.008.004a.34.34 0 00.033.012l.011.003a.334.334 0 00.041.01h.005a.345.345 0 00.037.002h.012c.01 0 .019 0 .028-.002h.01a.33.33 0 00.037-.007l.006-.002a.336.336 0 00.03-.01l.012-.004a.343.343 0 00.024-.011l.01-.006a.334.334 0 00.027-.016l.006-.004a.319.319 0 00.03-.024l.007-.007a.344.344 0 00.046-.055l.005-.006.604-.937c.335.226.655.477.955.754zm-1.953-.453a7.215 7.215 0 00-1.336-.567.338.338 0 00-.436.292l-.105 1.162a5.675 5.675 0 00-1.266-.22V6.774a8.01 8.01 0 013.565 1.004l-.422.654zM5.04 16.834c.136.466.318.917.544 1.346a.338.338 0 00.515.101l.897-.747c.208.377.457.729.74 1.049l-1.643 1.643a8.028 8.028 0 01-1.813-3.228l.76-.164zm3.48 4.325c.426.233.874.424 1.337.567a.338.338 0 00.436-.292l.105-1.162c.405.12.829.194 1.266.22v2.325a7.973 7.973 0 01-3.564-1.006l.42-.652zm3.82-.667a5.663 5.663 0 001.768-.393l.585.7a6.557 6.557 0 01-1.131.387l-.012.004-.017.005-.015.006a.293.293 0 00-.017.006l-.014.008a.36.36 0 00-.03.016l-.013.01-.013.01-.012.01a.331.331 0 00-.013.011l-.01.012a.217.217 0 00-.012.012l-.01.012-.01.014-.008.013-.008.014a.407.407 0 00-.008.014l-.007.015-.006.015-.006.015-.005.016-.003.015-.004.017-.002.016-.002.016V21.54l.002.017.003.016c0 .005 0 .01.002.014l.235 1.089a8.014 8.014 0 01-1.208.142v-2.325zm3.926-1.91a5.72 5.72 0 00.975-1.527l.909.083a6.544 6.544 0 01-.526 1.073l-.006.011-.009.015-.006.016-.007.016-.005.015-.005.016a.314.314 0 00-.01.065l-.001.017v.016l.001.016a.291.291 0 00.011.063l.005.016.006.015.006.015.007.015.007.014.009.014.009.014.01.013.01.013a.272.272 0 00.012.013l.01.011.014.012.012.01.015.01.01.008.934.602c-.227.337-.48.656-.753.954l-1.644-1.643zm2.099-.306a7.22 7.22 0 00.567-1.336.337.337 0 00-.292-.436l-1.162-.105c.119-.406.194-.83.22-1.266h2.325a7.974 7.974 0 01-1.006 3.564l-.652-.42zm-.36-6.172c.163.364.293.743.387 1.13.002.01.006.018.008.026l.01.027c.003.01.009.018.013.027l.013.024.019.024.015.02.023.022.018.016.027.018c.007.004.013.01.02.013.01.005.02.01.03.013l.02.01.036.009.019.005a.337.337 0 00.057.005h.002l.036-.002.013-.002.02-.004 1.089-.235c.077.397.126.8.143 1.208h-2.325a5.668 5.668 0 00-.393-1.77l.7-.584zM10.757 3.75a.142.142 0 01.025-.124.142.142 0 01.114-.056h2.208c.062 0 .098.035.114.056.017.02.041.065.026.124l-.606 2.365a8.77 8.77 0 00-1.275 0l-.606-2.365zm-.96 3.322l.165.763a7.217 7.217 0 00-1.346.544.338.338 0 00-.102.515l.748.896c-.377.208-.729.457-1.049.74l-1.65-1.649a8.015 8.015 0 013.234-1.809zm-3.945 5.381a6.55 6.55 0 01.526-1.073l.006-.011.009-.015.006-.016.007-.016.005-.015.005-.016.004-.017.003-.016.002-.016.002-.016v-.017-.016l-.001-.016-.002-.016-.002-.016-.003-.016a.334.334 0 00-.005-.015l-.004-.016-.006-.015-.006-.015a.259.259 0 00-.007-.015l-.008-.014-.008-.014a.356.356 0 00-.009-.014l-.01-.013-.01-.013-.012-.013-.011-.011-.013-.012-.013-.01-.014-.01-.01-.008-.94-.606c.228-.339.48-.658.753-.956l1.65 1.65a5.721 5.721 0 00-.975 1.527l-.909-.083z" fill="#000"/>
  <path d="M8.158 16.445a.34.34 0 00.022.032l.004.005a.356.356 0 00.022.025l2.083 2.083c.063.063.15.099.239.099h2.946c.09 0 .175-.036.238-.1l2.083-2.082a.338.338 0 00.1-.239v-2.945a.338.338 0 00-.1-.24l-2.083-2.082a.338.338 0 00-.238-.099h-2.946a.337.337 0 00-.239.1l-2.083 2.082a.338.338 0 00-.099.239V16.278l.002.02.001.013.003.02.004.015.004.017.006.017.004.012v.002a.335.335 0 00.02.04l.007.01zm2.251-4.609l.44 1.061-.77.77-1.062-.439 1.392-1.392zm4.606 1.423l-1.06.44-.77-.769.44-1.061 1.39 1.39zm.204 2.58l-1.061-.44v-1.053l1.06-.44v1.933zm-1.657 1.946l-.44-1.061.723-.723 1.061.44-1.344 1.344zm-4.513-1.39l1.077-.424.726.726-.44 1.061-1.363-1.364zm2.338-3.08h1.227l.868.867v1.227l-.868.868h-1.227l-.868-.868v-1.227l.868-.868zm.09 3.637h1.01l.439 1.061h-1.888l.44-1.06zm1.098-4.313h-1.102l-.44-1.061h1.982l-.44 1.06zm-2.731 1.663v1.054l-1.061.417v-1.91l1.061.439z" fill="#000"/>
</svg>
