<svg width="24" height="24" fill="none" xmlns="http://www.w3.org/2000/svg">
  <defs/>
  <path d="M8.697 13.077v-.612H4.17v3.67h4.527v-1.59c0-.203.164-.367.367-.367v-.734a.367.367 0 01-.367-.367z" fill="#FF6E1D"/>
  <path d="M16.453 5.957h2.858l-2.858-2.858v2.858z" fill="#FFCC75"/>
  <path d="M21.665 20.686h-1.468a.367.367 0 01-.367-.367V6.691h-3.743a.367.367 0 01-.367-.367V2.58H1.233v17.74c0 .606.494 1.1 1.101 1.1h19.33c.607 0 1.101-.494 1.101-1.1h-.734a.367.367 0 01-.367.366zM7.741 7.402l1.284-.979c.132-.1.314-.1.445 0l1.062.81 1.062-.81c.132-.1.314-.1.445 0l1.285.979a.367.367 0 11-.445.584l-1.062-.81-1.063.81c-.13.1-.313.1-.444 0l-1.062-.81-1.062.81a.367.367 0 01-.445-.584zm1.323 11.67h-5.26a.367.367 0 110-.735h5.26a.367.367 0 110 .734zm.367-5.995a.367.367 0 01-.367.367v.734c.203 0 .367.164.367.367v1.957a.367.367 0 01-.367.367h-5.26a.367.367 0 01-.367-.367v-4.404c0-.203.164-.367.367-.367h5.26c.203 0 .367.164.367.367v.979zm7.83 5.994h-5.26a.367.367 0 110-.734h5.26a.367.367 0 110 .734zm0-2.202h-5.26a.367.367 0 110-.734h5.26a.367.367 0 110 .734zm0-2.202h-5.26a.367.367 0 110-.734h5.26a.367.367 0 010 .734zm0-2.202h-5.26a.367.367 0 010-.734h5.26a.367.367 0 110 .734zm0-2.202H3.804a.367.367 0 110-.734H17.26a.367.367 0 110 .734z" fill="#fff"/>
  <path d="M20.462 6.07a.367.367 0 01.018.02l.006.008.016.021.004.007.014.024.002.005a.39.39 0 01.014.028v.003l.012.03v.004c.004.01.006.02.008.031l.002.01.004.026a.344.344 0 01.002.037v13.628h1.1c.203 0 .368.164.368.367h.734V4.537H20.12a.367.367 0 01-.367-.367h-1.19l1.893 1.894.006.006z" fill="#F2EBD9"/>
  <path d="M8.185 7.986l1.062-.81 1.062.81c.132.1.314.1.445 0l1.062-.81 1.063.81a.365.365 0 00.514-.07.367.367 0 00-.07-.514l-1.284-.979a.367.367 0 00-.445 0l-1.062.81-1.062-.81a.367.367 0 00-.445 0l-1.285.979a.367.367 0 00.445.584z" fill="#082947"/>
  <path d="M23.133 3.803H20.12a.367.367 0 100 .734h2.646V20.32c0 .607-.494 1.101-1.101 1.101H2.335a1.102 1.102 0 01-1.101-1.1V2.58h14.485v3.743c0 .203.164.367.367.367h3.744v13.63c0 .202.164.366.367.366h1.468a.367.367 0 100-.734h-1.101V6.323c0-.012 0-.024-.002-.036 0-.01-.003-.018-.004-.027l-.001-.009a.366.366 0 00-.008-.031l-.001-.003a.363.363 0 00-.011-.031l-.001-.003a.326.326 0 00-.013-.028l-.003-.005a.366.366 0 00-.014-.024l-.004-.007a.406.406 0 00-.016-.02l-.006-.009a.347.347 0 00-.018-.02l-.006-.006-4.11-4.11-.006-.006a.385.385 0 00-.02-.019l-.009-.006a.397.397 0 00-.02-.015l-.008-.004a.326.326 0 00-.024-.015l-.004-.002a.365.365 0 00-.028-.013l-.003-.001a.363.363 0 00-.03-.011l-.004-.001a.36.36 0 00-.032-.008l-.009-.001a.367.367 0 00-.063-.006H.867a.367.367 0 00-.367.367v18.106c0 1.012.823 1.835 1.835 1.835h19.33A1.837 1.837 0 0023.5 20.32V4.17a.367.367 0 00-.367-.367zm-6.68 2.153V3.1l2.858 2.857h-2.858z" fill="#082947"/>
  <path d="M9.064 18.337h-5.26a.367.367 0 100 .734h5.26a.367.367 0 100-.734zM17.26 18.337H12a.367.367 0 100 .734h5.26a.367.367 0 100-.734zM17.26 16.135H12a.367.367 0 100 .734h5.26a.367.367 0 100-.734zM17.26 13.933H12a.367.367 0 100 .734h5.26a.367.367 0 100-.734zM9.064 11.731h-5.26a.367.367 0 00-.367.367v4.404c0 .203.164.367.367.367h5.26a.367.367 0 00.367-.367v-1.957a.367.367 0 00-.734 0v1.59H4.171v-3.67h4.526v.612a.367.367 0 00.734 0v-.979a.367.367 0 00-.367-.367zM17.26 11.731H12a.367.367 0 100 .734h5.26a.367.367 0 000-.734zM17.261 9.529H3.804a.367.367 0 100 .734H17.26a.367.367 0 100-.734z" fill="#082947"/>
</svg>
