<svg width="24" height="24" fill="none" xmlns="http://www.w3.org/2000/svg">
  <defs/>
  <g fill-rule="evenodd" clip-rule="evenodd">
    <path d="M10.095 16.784l2.892.894 3.045-.894-1.126-1.882-3.019-1.468-1.792 1.468-1.162 1.19 1.162.692z" fill="#E6E6E6"/>
    <path d="M14.905 16.784h1.127l-1.127-1.882h-4.81v.84h3.565c.519 0 .638.063.916.474l.33.568z" fill="#C2C7CC"/>
    <path d="M.84 13.677c0 .674.551 1.225 1.224 1.225h2.153c1.96 0 3.917.008 5.878 0h11.839a1.23 1.23 0 001.226-1.22V2.531a1.23 1.23 0 00-1.226-1.22H2.064c-.673 0-1.224.552-1.224 1.225v11.141z" fill="#E6E6E6"/>
    <path d="M21.947 2.536v11.146a1.23 1.23 0 01-1.226 1.22h1.213a1.23 1.23 0 001.226-1.22V2.531a1.23 1.23 0 00-1.226-1.22H20.72a1.23 1.23 0 011.226 1.22v.005z" fill="#C2C7CC"/>
    <path d="M10.095 18.573h7.417a.896.896 0 00.894-.895.896.896 0 00-.894-.894h-7.417l-.808.944.808.845z" fill="#64B0D9"/>
    <path d="M2.952 13.106h2.764v-.602c0-.302.247-.547.548-.547h3.284c.3 0 .547.245.547.547v.602h10.952c.136 0 .248-.11.248-.247V3.354a.248.248 0 00-.248-.247H2.952a.247.247 0 00-.247.247v9.505c0 .136.11.247.247.247z" fill="#A2D6F2"/>
    <path d="M20.283 13.106h.764c.136 0 .248-.11.248-.247V3.354a.248.248 0 00-.248-.247h-.764v9.999z" fill="#64B0D9"/>
    <path d="M16.513 10.973a3.05 3.05 0 100-6.1 3.05 3.05 0 000 6.1z" fill="#50D960"/>
    <path d="M19.564 7.924a3.05 3.05 0 00-3.454-3.022 3.035 3.035 0 01.988.308 3.061 3.061 0 011.53 1.838 3.06 3.06 0 010 1.752 3.056 3.056 0 01-2.518 2.146 3.05 3.05 0 003.454-3.022z" fill="#2BAD3B"/>
    <path d="M17.512 18.573a.897.897 0 00.893-.895.897.897 0 00-.893-.894h-1.48c.493 0 .895.402.895.894a.897.897 0 01-.895.895h1.48z" fill="#4A83C9"/>
    <path d="M7.223 20.226h.21c.028 0 .054.002.08.008h2.035a.55.55 0 00.547-.549v-7.181a.549.549 0 00-.547-.547H6.265a.55.55 0 00-.55.547v.858a.042.042 0 01.003.019c0 .006 0 .012-.002.02v2.592c.043.154 0 1.244 0 2.138v2.095h1.507z" fill="gray"/>
    <path d="M10.095 16.784v-4.28a.55.55 0 00-.548-.547l-1.162-.005a.55.55 0 01.547.548v7.181a.55.55 0 01-.547.549l1.162.004a.55.55 0 00.548-.549v-2.901z" fill="#666"/>
    <path d="M5.716 14.903v-1.541c-.046-.158-.685-.033-1.498 1.54-.036.068-.072.14-.108.212-.828 1.704-.262 3.716.274 5.112l1.205.705 1.634-.705c-.014-.72-.178-1.447-.402-1.97-.157-.366-.129-.393.135-.61.33-.273.772-.692.66-1.333-.164-.943-.567-.437-1.008-.12-.47.339-.874.03-.892-.468v-.822z" fill="#FFDDA6"/>
    <path d="M7.223 20.226a5.711 5.711 0 00-.282-1.653 4.066 4.066 0 00-.12-.317c-.157-.366-.128-.393.135-.61.24-.2.542-.477.643-.862.038-.142.048-.3.018-.471-.117-.672-.355-.608-.642-.401l-.063.047c-.03.022.041.14.111.33a.646.646 0 010 .395c-.123.343-.38.425-.6.611-.263.224-.473.522-.315.9.042.1.082.21.12.324.174.54.333 1.138.345 1.707h.65z" fill="#FCC368"/>
    <path d="M4.57 22.688h2.8a.465.465 0 00.464-.464v-1.55a.45.45 0 00-.424-.448h-.187l-2.798.023a.467.467 0 00-.319.44v1.535c0 .256.21.464.464.464z" fill="#50D960"/>
    <path d="M7.37 22.688a.465.465 0 00.464-.464v-1.55a.45.45 0 00-.424-.448h-.187l-.646.005h.094a.45.45 0 01.426.448v1.55a.468.468 0 01-.396.46h.67z" fill="#2BAD3B"/>
  </g>
  <path d="M12.198 6.063a1.369 1.369 0 00-.367-.145c-.038-.011-.148-.04-.183-.063-.005-.004-.017-.016-.017-.02 0-.016.01-.025.022-.035a.15.15 0 01.086-.024c.035 0 .08.011.114.02l.067.023a.51.51 0 00.157.034c.074 0 .137-.029.187-.084a.27.27 0 00.072-.188c0-.122-.08-.207-.183-.262a.793.793 0 00-.382-.085.77.77 0 00-.517.177.581.581 0 00-.212.46c0 .18.067.33.219.428.096.063.252.11.363.141.063.02.14.04.2.069.008.004.029.014.034.021.006.01.007.025.007.036 0 .028-.01.047-.033.064a.18.18 0 01-.114.033.717.717 0 01-.224-.051c-.056-.02-.143-.051-.203-.051a.244.244 0 00-.186.083.278.278 0 00-.07.192v.011c0 .135.101.223.214.277.139.064.298.085.45.085.2 0 .392-.049.543-.184a.613.613 0 00.213-.483.525.525 0 00-.257-.479zM7.09 7.182h.639a.264.264 0 00.27-.262.24.24 0 00-.023-.107.251.251 0 00-.056-.08l-.002-.003a.27.27 0 00-.19-.077h-.357v-.17h.303a.262.262 0 00.193-.079.258.258 0 000-.371.26.26 0 00-.193-.079h-.306v-.159h.35a.258.258 0 00.185-.079l.001-.003h.003a.282.282 0 00.072-.188.26.26 0 00-.076-.186.253.253 0 00-.186-.079h-.63a.276.276 0 00-.204.088.287.287 0 00-.082.201v1.347a.281.281 0 00.289.286zM8.639 6.924c.042.177.16.28.345.28.176 0 .295-.09.346-.259l.187-.62.187.622c.053.164.17.257.343.257.184 0 .303-.103.345-.28l.314-1.329a.276.276 0 00-.076-.267.275.275 0 00-.2-.084c-.16 0-.255.103-.285.254l-.14.657-.205-.693c-.04-.138-.138-.22-.283-.22-.145 0-.24.085-.281.22l-.209.694-.139-.659v-.001c-.035-.148-.128-.252-.287-.252a.272.272 0 00-.2.083.283.283 0 00-.082.203.18.18 0 00.012.069l.308 1.325zM6.053 7.204a.285.285 0 00.202-.08.271.271 0 00.084-.202V5.525a.283.283 0 00-.079-.2v-.001l-.002-.001a.279.279 0 00-.402.004.284.284 0 00-.083.2l.005.638-.622-.798a.287.287 0 00-.23-.126.283.283 0 00-.284.289v1.384a.288.288 0 00.287.29.275.275 0 00.2-.082.273.273 0 00.081-.2l-.005-.638.624.803c.056.07.131.117.224.117zM7.28 14.325a.34.34 0 00-.34.34v.001a.34.34 0 10.34-.341zM8.639 14.325a.34.34 0 00-.34.34v.001a.34.34 0 10.34-.341zM8.639 15.49a.34.34 0 00-.34.34v.002a.34.34 0 10.34-.342zM8.639 16.656a.34.34 0 00-.34.34v.001a.34.34 0 10.68 0 .34.34 0 00-.34-.34z" fill="#000"/>
  <path d="M21.934.971H2.064C1.203.971.5 1.673.5 2.536v11.141c0 .863.702 1.565 1.565 1.565h1.617c-.525 1.305-.424 2.912.306 4.895a.8.8 0 00-.222.552v1.535c0 .444.36.805.804.805h2.8a.805.805 0 00.804-.805v-1.55a.792.792 0 00-.008-.105l1.38.005h.004a.877.877 0 00.623-.259.884.884 0 00.262-.63v-.772h7.077a1.236 1.236 0 000-2.47h-1.287l-.72-1.201h6.43c.863 0 1.565-.702 1.565-1.565V2.536c0-.863-.703-1.565-1.566-1.565zM5.376 13.824v1.916c.015.39.201.71.499.856.285.14.625.094.932-.127.071-.051.14-.105.205-.157.064-.05.15-.119.216-.162.016.046.035.116.053.221.072.41-.165.7-.542 1.012-.367.303-.451.49-.23 1.007.181.425.308.965.355 1.496H4.62c-.71-1.934-.776-3.448-.204-4.623.39-.8.732-1.228.96-1.44zm2.118 6.85v1.55a.126.126 0 01-.123.124H4.57a.125.125 0 01-.123-.124v-1.535c0-.067.056-.123.123-.123h2.822c.056.004.102.05.102.108zm2.26-.989a.208.208 0 01-.205.208l-2.003-.006a5.814 5.814 0 00-.412-1.765 2.468 2.468 0 01-.055-.136l.093-.079c.28-.23.934-.77.78-1.653-.053-.304-.155-.668-.472-.79-.334-.127-.63.108-.89.315-.06.047-.122.096-.18.138-.046.033-.16.105-.235.068-.055-.026-.112-.12-.12-.267v-2.29a.409.409 0 000-.091v-.833c0-.114.095-.207.21-.207h3.283a.21.21 0 01.207.207v7.181zm5.678-3.242h-1.52a.34.34 0 100 .68h3.6a.555.555 0 010 1.11h-7.077v-1.11h1.91a.34.34 0 000-.68h-1.91v-1.201h4.278l.72 1.201zm7.388-2.766a.886.886 0 01-.886.884H10.435v-1.115h10.612a.588.588 0 00.588-.587V3.354a.588.588 0 00-.588-.587h-7.998a.34.34 0 000 .68h7.906v9.319h-10.52v-.262a.889.889 0 00-.887-.887H6.264a.89.89 0 00-.888.887v.262h-2.33V3.447l8.448.002a.34.34 0 100-.68l-8.542-.002a.588.588 0 00-.587.587v9.505c0 .323.263.587.587.587h1.843c-.243.251-.507.614-.782 1.115H2.065a.885.885 0 01-.885-.884V2.536c0-.488.397-.884.885-.884h19.87c.487 0 .885.396.885.884v11.141z" fill="#000"/>
  <path d="M7.28 13.159a.34.34 0 00-.34.34v.001a.34.34 0 10.68 0 .34.34 0 00-.34-.341zM8.639 13.159a.34.34 0 00-.34.34v.001a.34.34 0 10.68 0 .34.34 0 00-.34-.341zM8.285 9.28c-.684 0-1.27.324-1.528.846a.34.34 0 00.61.302c.14-.285.5-.469.918-.469.416 0 .777.184.918.469a.34.34 0 00.61-.302c-.26-.522-.845-.847-1.528-.847z" fill="#000"/>
  <path d="M8.285 8.083h-.002c-1.095 0-2.029.512-2.437 1.337a.34.34 0 10.61.302c.35-.707 1.173-.958 1.828-.958.654 0 1.478.252 1.826.957a.34.34 0 00.61-.301c-.407-.824-1.34-1.336-2.435-1.337zM16.513 11.313c1.87 0 3.39-1.52 3.39-3.39 0-1.868-1.52-3.388-3.39-3.388s-3.39 1.52-3.39 3.389c0 1.869 1.52 3.39 3.39 3.39zm-2.479-2.297c.29.136.63.242 1.001.318.08.386.194.745.341 1.048a2.726 2.726 0 01-1.342-1.366zm.448-1.635c.137-.054.286-.102.445-.144a7.224 7.224 0 000 1.374 3.837 3.837 0 01-.444-.145c-.47-.186-.68-.407-.68-.542 0-.136.21-.356.68-.543zm2.031-2.166c.247 0 .565.438.76 1.192a7.852 7.852 0 00-1.52 0c.195-.754.514-1.192.76-1.192zm0 1.835c.308 0 .608.019.891.055a6.77 6.77 0 010 1.638 7.1 7.1 0 01-1.781 0 6.795 6.795 0 010-1.638c.283-.036.582-.055.89-.055zm2.71.874c0 .136-.21.356-.679.542a3.884 3.884 0 01-.444.145 7.258 7.258 0 000-1.374c.159.042.307.09.444.144.47.187.68.407.68.543zm-2.71 2.709c-.246 0-.565-.438-.76-1.192a7.91 7.91 0 001.52 0c-.195.754-.513 1.192-.76 1.192zm1.137-.251c.147-.303.261-.662.342-1.048.37-.076.711-.182 1-.318a2.725 2.725 0 01-1.341 1.366zm1.342-3.55a4.522 4.522 0 00-1-.318 4.58 4.58 0 00-.341-1.048 2.726 2.726 0 011.341 1.366zm-3.616-1.366c-.146.303-.26.662-.341 1.048-.37.076-.712.182-1 .318a2.724 2.724 0 011.341-1.366z" fill="#000"/>
</svg>
