<svg width="24" height="24" fill="none" xmlns="http://www.w3.org/2000/svg">
  <defs/>
  <path d="M12.864 22.621H1.38a.408.408 0 01-.408-.408V1.904c0-.225.182-.408.408-.408h11.482c.226 0 .409.183.409.408v20.309a.408.408 0 01-.409.408z" fill="#D3E8F1"/>
  <path d="M11.098 14.423v3.867H3.146V3.646h7.952v10.777z" fill="#F5FCFF"/>
  <path d="M11.211 12.481l-2.514-2.264-.374.794 2.772 4.108" fill="#D3E8F1"/>
  <path d="M11.095 15.119l2.175 3.225.013-3.997-2.072-1.866" fill="#BED8E4"/>
  <path d="M13.28 15.982L7.76 10.46a.434.434 0 010-.613L16.655.95c.17-.17.444-.17.613 0l5.522 5.522c.17.17.17.444 0 .613l-8.896 8.897a.434.434 0 01-.613 0z" fill="#A0758E"/>
  <path d="M8.654 11.356l1.636 1.636 9.526-9.495-1.643-1.642-9.519 9.5z" fill="#FFC5E5"/>
  <path d="M13.58 22.923V18.18a.465.465 0 00-.93 0v4.278H1.43V2.186h11.22v.496a.465.465 0 00.93 0V1.72a.465.465 0 00-.464-.465H.965a.465.465 0 00-.465.465v21.202c0 .257.208.465.465.465h12.15a.465.465 0 00.466-.465z" fill="#000"/>
  <path d="M11.318 4.883a.465.465 0 00.465-.465v-.59a.465.465 0 00-.465-.464H2.763a.465.465 0 00-.465.465v15.126c0 .257.208.465.465.465h8.555a.465.465 0 00.465-.465v-2.263a.465.465 0 00-.93 0v1.798H3.228V4.294h7.625v.124c0 .256.208.465.465.465zM5.831 20.412a.465.465 0 100 .93h2.604a.465.465 0 000-.93H5.83z" fill="#000"/>
  <path d="M20.182 9.408a.465.465 0 00.658.657l2.523-2.524a.465.465 0 000-.657L17.228.749a.465.465 0 00-.657 0l-9.51 9.51a.465.465 0 000 .657l6.135 6.135a.464.464 0 00.658 0l5.374-5.374a.465.465 0 00-.658-.657l-5.045 5.045-.451-.452.005-.005a.465.465 0 10-.657-.658l-.006.006-1.52-1.52 8.852-8.852 1.525 1.524a.465.465 0 00.648.649l.456.456-2.195 2.195zM16.9 1.735l.546.546-8.852 8.852-.546-.546L16.9 1.735zm-6.66 11.044l-.988-.988 8.852-8.852.988.987-8.852 8.853z" fill="#000"/>
  <path d="M7.72 8.827a.465.465 0 00.16-.916 3.446 3.446 0 00-3.666 1.865A3.433 3.433 0 007.29 14.72a3.43 3.43 0 001.522-.358.465.465 0 10-.412-.834 2.484 2.484 0 01-2.212.004 2.502 2.502 0 01-1.14-3.345 2.512 2.512 0 012.672-1.36z" fill="#000"/>
  <path d="M6.328 10.298a.465.465 0 00-.622.212 1.768 1.768 0 001.98 2.5.465.465 0 00-.208-.905.837.837 0 01-.938-1.184.465.465 0 00-.212-.623zM16.893 10.479l-.044.044a.465.465 0 00.657.657l.044-.044a.465.465 0 10-.657-.657zM14.658 12.714l-.044.044a.465.465 0 10.657.658l.044-.044a.465.465 0 00-.657-.658zM19.13 8.243l-.045.044a.465.465 0 10.658.657l.044-.043a.465.465 0 10-.658-.658z" fill="#000"/>
</svg>
