<svg width="24" height="24" fill="none" xmlns="http://www.w3.org/2000/svg">
  <defs/>
  <path d="M7.724 12.774c-.05.442-.336.828-.752.989-.92.357-1.652.972-2.19 1.852-.774 1.263-.835 2.853-.083 4.13.63 1.067 1.64 1.629 2.956 1.786.376.045.73.213.986.49 1.407 1.522 5.31 1.522 6.717 0 .257-.277.61-.445.985-.49 1.316-.157 2.327-.719 2.957-1.787.752-1.276.69-2.866-.082-4.13-.539-.88-1.27-1.494-2.191-1.851a1.203 1.203 0 01-.752-.99l-1.025-9C15.066 2.163 13.746.894 12.127.84a3.891 3.891 0 00-.143-.002C10.32.845 8.937 2.122 8.749 3.775l-1.025 8.999z" fill="#EFB490"/>
  <path d="M19.218 15.615c-.538-.88-1.27-1.495-2.191-1.852a1.203 1.203 0 01-.751-.99l-1.026-9C15.067 2.163 13.747.894 12.127.84a3.254 3.254 0 00-2.744 1.327 3.207 3.207 0 011.307-.221c1.62.054 2.94 1.323 3.123 2.933l1.025 9c.05.443.337.828.752.99.92.357 1.652.972 2.19 1.852.774 1.263.835 2.853.083 4.13a3.709 3.709 0 01-.238.355 3.436 3.436 0 001.675-1.462c.752-1.276.691-2.866-.082-4.13z" fill="#D9A383"/>
  <path d="M18.997 20.184l-1.292-.381s-2.27-.77-3.577 1.615l-.43 1.524c.676-.188 1.266-.495 1.66-.92.257-.278.61-.446.986-.491 1.122-.134 2.022-.562 2.653-1.347zM4.924 20.184l1.292-.381s2.27-.77 3.577 1.615l.43 1.524c-.676-.188-1.266-.495-1.66-.92a1.595 1.595 0 00-.986-.491c-1.122-.134-2.022-.562-2.653-1.347z" fill="#B5886D"/>
  <path d="M9.573 21.579c-1.15-2.098-3.092-1.485-3.175-1.458a.338.338 0 01-.215-.638 3.406 3.406 0 011.455-.101c.742.107 1.783.52 2.526 1.873a.337.337 0 01-.591.324zM13.962 21.713a.337.337 0 01-.133-.458c.742-1.353 1.783-1.766 2.526-1.873a3.402 3.402 0 011.454.1.337.337 0 01-.216.639c-.081-.027-2.023-.64-3.174 1.458a.337.337 0 01-.457.134z" fill="#000"/>
  <path d="M8.39 22.249a1.259 1.259 0 00-.777-.385c-4.852-.579-4.955-6.79-.766-8.416a.863.863 0 00.54-.713l.255-2.244a.337.337 0 01.67.076l-.256 2.244a1.534 1.534 0 01-.965 1.265c-2.19.85-3.297 3.473-2.104 5.497.554.94 1.44 1.471 2.706 1.622.465.056.888.268 1.192.596 1.274 1.378 4.95 1.377 6.223 0 .304-.328.727-.54 1.192-.596 1.267-.15 2.152-.682 2.707-1.622 1.193-2.026.084-4.647-2.105-5.497a1.534 1.534 0 01-.965-1.265L14.912 3.81c-.165-1.45-1.38-2.641-2.93-2.636-1.483.006-2.73 1.14-2.901 2.638L8.508 8.84a.338.338 0 01-.67-.077l.573-5.028C8.623 1.879 10.2.436 12.135.502c1.762.06 3.244 1.449 3.447 3.232l1.025 9a.862.862 0 00.539.714c.99.384 1.784 1.054 2.356 1.99 1.528 2.497.4 6.006-3.122 6.426a1.258 1.258 0 00-.778.385c-1.542 1.668-5.67 1.668-7.211 0z" fill="#000"/>
</svg>
