<svg width="24" height="24" fill="none" xmlns="http://www.w3.org/2000/svg">
  <defs/>
  <path d="M18.102 4.676a.5.5 0 01.633.315l4.183 12.454a.5.5 0 01-.315.634L10.15 22.26a.5.5 0 01-.634-.318L5.475 9.65a.5.5 0 01.31-.628l12.317-4.345z" fill="#FFDFA1"/>
  <path d="M15.96 17.597l1.212-12.593L5.784 9.02a.5.5 0 00-.309.628l2.529 7.69 7.405.713a.506.506 0 00.552-.455z" fill="#EFD299"/>
  <path d="M14.393 16.958L1.326 15.702a.506.506 0 01-.455-.552L2.128 2.083a.506.506 0 01.552-.455l13.067 1.257a.506.506 0 01.455.551l-1.257 13.067a.506.506 0 01-.552.455z" fill="#FFEFCA"/>
  <path d="M1.865 4.73L15.96 6.149l.246-2.715a.506.506 0 00-.455-.55L2.68 1.629a.506.506 0 00-.553.453L1.865 4.73z" fill="#FFDFA1"/>
  <path d="M.585 15.89a.373.373 0 00.252.134l14.074 1.354a.373.373 0 00.407-.335l1.354-14.074a.373.373 0 00-.336-.407L2.262 1.208a.373.373 0 00-.407.336L.502 15.617c-.01.099.02.197.083.273zM15.893 3.27l-.24 2.506L2.327 4.42l.234-2.435L15.893 3.27zM2.256 5.164l13.325 1.353-.97 10.083L1.28 15.318l.976-10.154z" fill="#000"/>
  <path d="M18.507 4.163l-.474.16a.373.373 0 10.237.706l.121-.04 4.264 12.696-12.696 4.263-.9-2.68a.373.373 0 10-.707.238l1.018 3.033a.373.373 0 00.473.235l13.403-4.501a.373.373 0 00.234-.472l-4.5-13.403a.373.373 0 00-.473-.235zM12.538 9.873L4.61 9.068a.373.373 0 00-.075.742l7.928.805a.373.373 0 00.075-.742z" fill="#000"/>
  <path d="M12.242 12.85l-7.928-.804a.373.373 0 10-.075.742l7.927.805a.373.373 0 00.075-.742z" fill="#000"/>
</svg>
