<svg width="24" height="24" fill="none" xmlns="http://www.w3.org/2000/svg">
  <defs/>
  <path d="M19.586 2.335a.367.367 0 11.734 0h.734a.367.367 0 11.734 0v19.33a.367.367 0 11-.734 0h-.734a.367.367 0 11-.734 0h-.734v1.1h3.67V1.235h-2.57a.367.367 0 01-.366-.367h-.734v1.468h.734z" fill="#F2484B"/>
  <path d="M21.053 2.335h-.734v19.33h.734V2.335z" fill="#98D9D5"/>
  <path d="M19.586 2.335h-.734v19.33h.734V2.335z" fill="#C1E8E6"/>
  <path d="M18.117 1.234H3.437v.856h.856a1.102 1.102 0 010 2.202h-.856v3.67h.856a1.102 1.102 0 010 2.202h-.856v3.671h.856c.607 0 1.101.494 1.101 1.101s-.494 1.101-1.101 1.101h-.856v3.67h.856a1.102 1.102 0 010 2.203h-.856v.856h14.68V1.234zm-3.327 20.04a.366.366 0 01-.367-.368v-.018a.367.367 0 11.367.385zm1.833-1.798a.367.367 0 11-.73-.075.367.367 0 01.73.075z" fill="#F2484B"/>
  <path d="M15.157 20.906a.367.367 0 00-.733-.018l-.001.018a.365.365 0 00.367.367.367.367 0 00.367-.367zM16.625 19.438a.365.365 0 00-.367-.367.367.367 0 10.367.367z" fill="#082947"/>
  <path d="M22.889.5h-2.936a.367.367 0 100 .734h2.569v21.532h-3.67V.867A.367.367 0 0018.485.5H3.07a.367.367 0 00-.367.367V2.09h-.857c-.607 0-1.1.494-1.1 1.101 0 .608.493 1.102 1.1 1.102h.857v3.67h-.857c-.607 0-1.1.494-1.1 1.1 0 .608.493 1.102 1.1 1.102h.857v3.67h-.857c-.607 0-1.1.494-1.1 1.101s.493 1.101 1.1 1.101h.857v3.67h-.857c-.607 0-1.1.494-1.1 1.101 0 .608.493 1.102 1.1 1.102h.857v1.223c0 .203.164.367.367.367h19.819a.367.367 0 00.367-.367V.867A.367.367 0 0022.889.5zM1.479 20.808c0-.202.165-.366.367-.366h2.447a.367.367 0 010 .733H1.846a.367.367 0 01-.367-.367zm1.958 1.102h.856a1.102 1.102 0 000-2.202h-.856v-3.67h.856a1.102 1.102 0 000-2.203h-.856v-3.67h.856c.607 0 1.101-.494 1.101-1.101S4.9 7.963 4.293 7.963h-.856v-3.67h.856a1.102 1.102 0 000-2.202h-.856v-.857h14.68v21.532H3.438v-.856zm-1.958-6.974c0-.202.165-.367.367-.367h2.447a.367.367 0 010 .734H1.846a.367.367 0 01-.367-.367zm0-5.872c0-.203.165-.367.367-.367h2.447a.367.367 0 010 .734H1.846a.367.367 0 01-.367-.367zm0-5.873c0-.202.165-.367.367-.367h2.447a.367.367 0 010 .735H1.846a.367.367 0 01-.367-.368z" fill="#082947"/>
  <path d="M19.953 22.032a.367.367 0 00.367-.367V2.335a.367.367 0 10-.734 0v19.33c0 .203.164.367.367.367zM21.42 22.032a.367.367 0 00.368-.367V2.335a.367.367 0 10-.734 0v19.33c0 .203.164.367.367.367z" fill="#082947"/>
  <path d="M4.293 21.175a.367.367 0 000-.733H1.847a.367.367 0 000 .733h2.446zM4.293 15.303a.367.367 0 000-.734H1.847a.367.367 0 000 .734h2.446zM4.293 9.43a.367.367 0 000-.733H1.847a.367.367 0 000 .734h2.446zM4.293 3.559a.367.367 0 000-.735H1.847a.367.367 0 000 .735h2.446z" fill="#FFCC75"/>
</svg>
