<svg width="24" height="24" fill="none" xmlns="http://www.w3.org/2000/svg">
  <defs/>
  <path d="M13.195 11.601h1.455a2.09 2.09 0 002.078-1.881c.078-.773.114-2.45.108-3.232a4.195 4.195 0 00-2.06-3.582l-.493 1.289c-1.53-.587-3.027-.586-4.575.001l-.49-1.288a4.196 4.196 0 00-2.055 3.58c-.006.783.03 2.46.108 3.232A2.09 2.09 0 009.35 11.6h1.455" fill="#545454"/>
  <path d="M16.837 6.488a4.195 4.195 0 00-2.06-3.582l-.31.809a4.175 4.175 0 011.075 2.773c.005.783-.03 2.46-.109 3.232a2.09 2.09 0 01-2.078 1.881h1.295a2.09 2.09 0 002.078-1.881c.079-.773.114-2.45.109-3.232z" fill="#404040"/>
  <path d="M9.708 4.196l-1.036-2.73c2.217-.841 4.457-.84 6.656.002l-1.045 2.727c-1.53-.587-3.027-.586-4.575.001z" fill="#fff"/>
  <path d="M14.15 1.098L13.13 3.76l1.153.435 1.045-2.727a9.87 9.87 0 00-1.178-.37z" fill="#E3E2E2"/>
  <path d="M12.432 1.884h-.096v-.095a.337.337 0 10-.673 0v.095h-.096a.337.337 0 000 .674h.096v.095a.337.337 0 10.673 0v-.095h.096a.337.337 0 000-.674z" fill="#EF2D57"/>
  <path d="M17.584 17.751l.5 2.056a1.66 1.66 0 01-.785 1.83c-3.533 2.037-7.066 2.037-10.6 0a1.66 1.66 0 01-.785-1.83l.953-3.91a3.758 3.758 0 013.651-2.869h.285v-1.69a2.58 2.58 0 002.392 0v1.69h.285a3.758 3.758 0 013.652 2.869l.198.813.254 1.041z" fill="#61A1DC"/>
  <path d="M11.206 11.506c-.14-.045-.274-.101-.402-.168v.262c.137-.021.272-.052.402-.094zM18.085 19.807l-.501-2.056-.254-1.041-.198-.813a3.758 3.758 0 00-3.651-2.869h-.285v-1.69a2.584 2.584 0 01-1.588.262v1.428h.285a3.758 3.758 0 013.652 2.869l.198.813.253 1.041.501 2.056a1.66 1.66 0 01-.785 1.83c-1.502.866-3.004 1.363-4.506 1.493 2.031.176 4.062-.322 6.093-1.493a1.66 1.66 0 00.786-1.83z" fill="#558CBF"/>
  <path d="M9.844 13.196L12 16.93l2.156-3.733-.007-.107c-.217-.04-.44-.06-.667-.06h-.286v-1.69A2.581 2.581 0 0112 11.63c-.43 0-.837-.105-1.195-.292v1.69h-.286c-.267 0-.53.029-.783.083l.11.085z" fill="#EFB490"/>
  <path d="M13.195 12.257v-.919a2.581 2.581 0 01-1.195.293c-.432 0-.838-.106-1.196-.293v.919a2.946 2.946 0 002.391 0z" fill="#D49F80"/>
  <path d="M9.042 8.428v.09a2.957 2.957 0 105.915 0V5.967C13.915 5.537 13.1 4.699 13.1 4.699s-1.624 1.243-4.058 1.267v2.462z" fill="#EFB490"/>
  <path d="M13.1 4.7s-.336.255-.929.537c.316.28.915.754 1.618 1.043v2.553c0 1.152-.66 2.15-1.621 2.638a2.957 2.957 0 002.789-2.952V5.966C13.915 5.537 13.1 4.699 13.1 4.699z" fill="#D49F80"/>
  <path d="M18.412 19.73l-.374-1.534a.337.337 0 00-.654.16l.373 1.533a1.33 1.33 0 01-.626 1.458c-3.453 1.991-6.81 1.991-10.263 0a1.33 1.33 0 01-.626-1.458l.953-3.91a3.403 3.403 0 012.432-2.482l2.08 3.603c.13.224.455.224.584 0l2.08-3.603a3.403 3.403 0 012.434 2.482l.198.813a.337.337 0 00.654-.16l-.198-.813a4.085 4.085 0 00-3.927-3.125v-.754h1.118a2.42 2.42 0 002.413-2.184c.083-.812.115-2.533.11-3.268-.01-1.503-.762-2.848-1.993-3.69l.462-1.207a.337.337 0 00-.194-.435C13.17.282 10.85.28 8.552 1.153a.337.337 0 00-.196.435l.46 1.212c-1.229.842-1.98 2.187-1.99 3.688-.005.735.028 2.456.11 3.268A2.42 2.42 0 009.35 11.94h1.118v.754a4.085 4.085 0 00-3.927 3.125l-.953 3.91c-.208.856.18 1.761.945 2.202 3.628 2.092 7.307 2.092 10.936 0a2.007 2.007 0 00.944-2.201zM14.891 1.67l-.429 1.117-.376.982c-1.37-.457-2.743-.475-4.18.002l-.798-2.102c1.928-.658 3.87-.658 5.782 0zM7.605 9.688c-.074-.734-.112-2.356-.106-3.196a3.83 3.83 0 011.553-3.068c.366.874.29 1.003.563 1.083.03.01.059.029.092.029.04 0 .08-.007.12-.023 1.466-.556 2.885-.557 4.334-.001a.337.337 0 00.435-.195l.344-.896A3.828 3.828 0 0116.5 6.492c.005.84-.033 2.462-.107 3.196-.092.9-.841 1.578-1.743 1.578h-.836c.89-.59 1.48-1.599 1.48-2.745V5.968a.67.67 0 00-.073-.177.664.664 0 00-.136-.135c-.96-.395-1.736-1.182-1.743-1.19a.338.338 0 00-.446-.033c-.015.012-1.573 1.176-3.857 1.198-.046 0-.078.033-.118.05-.04.018-.088.02-.118.05-.03.031-.032.08-.05.12-.016.04-.048.071-.048.117v.957a.337.337 0 10.674 0v-.654c1.82-.102 3.167-.805 3.687-1.138.29.261.864.719 1.554 1.045V8.52a2.623 2.623 0 01-2.62 2.62 2.623 2.623 0 01-2.62-2.62.337.337 0 10-.675 0c0 1.146.59 2.155 1.48 2.745H9.35a1.749 1.749 0 01-1.743-1.578zm2.912 3.68h.286c.186 0 .337-.151.337-.337v-1.19c.555.17 1.162.17 1.717 0v1.19c0 .186.151.337.337.337h.286c.06 0 .118.012.178.015L12 16.257l-1.66-2.874c.06-.003.119-.015.18-.015z" fill="#000"/>
</svg>
