<svg width="24" height="24" fill="none" xmlns="http://www.w3.org/2000/svg">
  <defs/>
  <path d="M15.46 1.02H8.556v7.232h6.906V1.02z" fill="#4EB9FF"/>
  <path d="M20.386 9.79c-1.402-1.132-3.96-2.751-4.942-3.1h-6.89c-.981.349-3.54 1.968-4.941 3.1-.961.777-1.23 1.663-1.077 2.743a2754.48 2754.48 0 001.334 8.901c.127.85.935 1.546 1.794 1.546h12.67c.86 0 1.668-.696 1.795-1.546 0 0 1.172-7.755 1.334-8.901.152-1.08-.116-1.966-1.077-2.742z" fill="#3B8BC0"/>
  <path d="M5.043 13.458l1.076 7.18h11.779l1.076-7.18H5.043z" fill="#174461"/>
  <g fill="#01121C">
    <path d="M20.714 9.386c-1.236-.999-3.492-2.47-4.732-3.036V5.321a.52.52 0 100-1.04v-.85a.52.52 0 100-1.04V1.02a.52.52 0 00-.52-.521H8.554a.52.52 0 00-.52.52v1.37a.52.52 0 100 1.04v.85a.52.52 0 100 1.041v1.021c-1.238.56-3.508 2.041-4.75 3.044-1.052.851-1.454 1.874-1.264 3.22.16 1.135 1.323 8.829 1.335 8.906.164 1.096 1.2 1.988 2.308 1.988h12.671c1.109 0 2.145-.892 2.309-1.988.012-.078 1.174-7.771 1.334-8.906.19-1.346-.211-2.369-1.264-3.22zM9.075 1.541h5.866v.85H9.075v-.85zm0 1.89h5.866v.85H9.075v-.85zm5.866 1.89v.85H9.075v-.85h5.866zm6.007 7.14c-.16 1.13-1.322 8.818-1.333 8.896-.09.598-.676 1.102-1.28 1.102H5.665c-.605 0-1.19-.504-1.28-1.102-.012-.078-1.174-7.766-1.333-8.897-.138-.973.128-1.65.888-2.264C5.285 9.109 7.69 7.588 8.65 7.21h6.7c.959.377 3.365 1.898 4.71 2.985.76.614 1.025 1.291.888 2.264z"/>
    <path d="M19.26 10.707H8.753a.52.52 0 000 1.04h10.505a.52.52 0 000-1.04zM6.673 11.748a.52.52 0 000-1.041H4.757a.52.52 0 000 1.04h1.916zM18.973 12.938H5.043a.52.52 0 00-.515.598l1.076 7.18a.52.52 0 00.515.442h7.31a.52.52 0 000-1.04H6.567l-.92-6.14h12.722l-.92 6.14H15.51a.52.52 0 100 1.04h2.388a.52.52 0 00.514-.443l1.076-7.18a.52.52 0 00-.515-.597z"/>
  </g>
</svg>
