<svg width="24" height="24" fill="none" xmlns="http://www.w3.org/2000/svg">
  <defs/>
  <path d="M19.599 22.98H4.4V1.02h10.244l1.56 3.394 3.394 1.56V22.98z" fill="#FFCE47"/>
  <path d="M14.645 1.02v4.955h4.954L14.645 1.02z" fill="#FFEBB4"/>
  <path d="M20.116 5.923c0-.013-.003-.026-.005-.038l-.002-.013a.504.504 0 00-.011-.044l-.002-.005a.552.552 0 00-.015-.044l-.002-.004a.555.555 0 00-.019-.04l-.003-.006a.492.492 0 00-.02-.034l-.006-.01a.514.514 0 00-.022-.03L20 5.646a.501.501 0 00-.03-.034l-.003-.004L15.011.652 15.008.65a.52.52 0 00-.033-.03l-.012-.01a.484.484 0 00-.03-.021l-.01-.006a.484.484 0 00-.033-.02l-.007-.004a.506.506 0 00-.04-.018L14.84.538a.532.532 0 00-.043-.015L14.791.52a.516.516 0 00-.044-.01l-.013-.003-.038-.005A.514.514 0 0014.644.5H4.401a.52.52 0 00-.52.52v21.96c0 .287.233.52.52.52H19.6a.52.52 0 00.52-.52V5.975c0-.018 0-.035-.003-.052zm-4.951-3.646l3.177 3.177h-3.177V2.277zM4.922 22.459V1.541h9.202v4.434c0 .287.233.52.52.52h4.434v15.964H4.922z" fill="#01121C"/>
</svg>
