<svg width="24" height="24" fill="none" xmlns="http://www.w3.org/2000/svg">
  <defs/>
  <path d="M10.737 4.403h10.16c1.146 0 2.082.936 2.082 2.081v2.602H10.737V4.403z" fill="#FFD86C"/>
  <path d="M20.898 7.004H12v-1.56A2.088 2.088 0 009.92 3.361H3.102a2.088 2.088 0 00-2.081 2.081v14.675c0 .286.234.52.52.52h20.918c.287 0 .52-.234.52-.52V9.086a2.088 2.088 0 00-2.08-2.082z" fill="#FFB14E"/>
  <path d="M20.898 3.882h-8.9a2.6 2.6 0 00-2.08-1.04H3.103A2.605 2.605 0 00.5 5.443v14.675c0 .574.467 1.04 1.04 1.04h20.92c.573 0 1.04-.466 1.04-1.04V6.484a2.605 2.605 0 00-2.602-2.602zm0 1.041c.861 0 1.561.7 1.561 1.561v.522a2.588 2.588 0 00-1.56-.522H12.52v-1.04a2.61 2.61 0 00-.052-.52h8.43zm1.561 15.195H1.541V5.443c0-.86.7-1.56 1.56-1.56H9.92a1.562 1.562 0 011.56 1.56v1.561c0 .288.234.52.521.52h8.898c.861 0 1.561.701 1.561 1.562v11.032z" fill="#01121C"/>
</svg>
