<svg width="24" height="24" fill="none" xmlns="http://www.w3.org/2000/svg">
  <defs/>
  <path d="M22.98 1.387H1.02V3.21L12 4.249l10.98-1.04V1.387z" fill="#FFCE47"/>
  <path d="M22.98 3.209H1.02v1.82L12 6.072 22.98 5.03V3.209z" fill="#FFE290"/>
  <path d="M22.98 5.03H1.02V6.85L12 7.891l10.98-1.04V5.03z" fill="#FFCE47"/>
  <path d="M22.98 6.851H1.02v1.821L12 9.713l10.98-1.04V6.85z" fill="#FFE290"/>
  <path d="M22.98 8.672H1.02v1.822L12 11.534l10.98-1.04V8.672z" fill="#FFCE47"/>
  <path d="M22.98 10.494H1.02v1.82L12 13.357l10.98-1.041v-1.821z" fill="#FFE290"/>
  <path d="M18.683 12.315H5.317l-2.215 1.821L12 15.176l8.898-1.04-2.215-1.821z" fill="#FFCE47"/>
  <path d="M20.898 14.136H3.102v1.821L12 16.998l8.898-1.04v-1.822z" fill="#FFE290"/>
  <path d="M20.898 15.957H3.102v1.822h17.796v-1.822z" fill="#FFCE47"/>
  <path d="M18.683 12.315c-.518 2.95-3.313 5.204-6.683 5.204-3.37 0-6.165-2.254-6.683-5.204H1.021v8.633H22.98v-8.633h-4.297z" fill="#3B8BC0"/>
  <g fill="#01121C">
    <path d="M22.98 12.035h-4.152a.52.52 0 00-.512.43c-.498 2.84-3.154 4.9-6.316 4.9s-5.818-2.06-6.316-4.9a.52.52 0 00-.512-.43H1.02a.52.52 0 00-.52.52v8.63c0 .287.233.52.52.52h1.093v.655a.52.52 0 101.04 0v-.655h17.693v.655a.52.52 0 001.04 0v-.655h1.094a.52.52 0 00.52-.52v-8.63a.52.52 0 00-.52-.52zm-.52 8.629H1.54v-7.588h3.21c.355 1.429 1.203 2.725 2.421 3.686 1.344 1.06 3.059 1.643 4.829 1.643 1.77 0 3.485-.584 4.829-1.643 1.218-.961 2.066-2.257 2.42-3.686h3.21v7.588z"/>
    <path d="M17.605 12.556a.52.52 0 00-.52-.52H6.914a.52.52 0 000 1.04h10.17a.52.52 0 00.52-.52zM22.98 8.404H1.02a.52.52 0 000 1.041h21.96a.52.52 0 100-1.04zM22.98 4.773H1.02a.52.52 0 000 1.041h21.96a.52.52 0 100-1.04zM22.98 6.589H1.02a.52.52 0 000 1.04h21.96a.52.52 0 100-1.04zM22.98 2.946H1.02a.52.52 0 000 1.041h21.96a.52.52 0 100-1.04zM1.02 2.16h21.96a.52.52 0 000-1.04H1.02a.52.52 0 000 1.04zM22.98 10.22H1.02a.52.52 0 000 1.04h21.96a.52.52 0 100-1.04zM16.786 14.371a.52.52 0 00-.52-.52H7.733a.52.52 0 000 1.04h8.531a.52.52 0 00.52-.52zM10.673 15.666a.52.52 0 100 1.041h2.653a.52.52 0 000-1.04h-2.653z"/>
  </g>
</svg>
