<svg width="24" height="24" fill="none" xmlns="http://www.w3.org/2000/svg">
  <defs/>
  <path d="M4.324 11.444l-2.847 2.848a1.56 1.56 0 000 2.207L7.5 22.523c.61.61 1.598.61 2.207 0l2.848-2.847-8.232-8.232z" fill="#3B8BC0"/>
  <path d="M4.324 11.444a1.56 1.56 0 000 2.207l6.025 6.025c.61.61 1.598.61 2.207 0l4.984-4.984-3.38-4.852-4.852-3.38-4.984 4.984z" fill="#4EB9FF"/>
  <path d="M22.523 7.501l-6.025-6.025a1.56 1.56 0 00-2.207 0L9.308 6.46l8.231 8.232 4.984-4.984a1.56 1.56 0 000-2.207z" fill="#FF4181"/>
  <path d="M22.891 7.133L16.867 1.11a2.084 2.084 0 00-2.943 0L8.94 6.09l-.001.001-.001.001-4.981 4.982h-.002c0 .002-.001.003-.002.003l-2.845 2.846a2.084 2.084 0 000 2.943l6.024 6.024c.406.406.939.609 1.472.609s1.066-.203 1.471-.608l2.846-2.846.002-.002.001-.002 4.982-4.98v-.002l.002-.001 4.982-4.983a2.084 2.084 0 000-2.943zM12.188 19.308a1.033 1.033 0 01-.735.304c-.278 0-.54-.108-.736-.304l-3.569-3.569a.52.52 0 00-.736.736l3.57 3.569c.261.262.582.446.93.539L9.34 22.155a1.041 1.041 0 01-1.47 0l-6.026-6.024a1.041 1.041 0 010-1.471l1.573-1.573c.093.35.277.67.54.932l.984.984a.52.52 0 00.736-.736l-.985-.984a1.034 1.034 0 01-.304-.736c0-.278.108-.539.304-.735l4.616-4.616 7.496 7.496-4.616 4.616zm9.967-9.968l-4.615 4.616-7.496-7.496 4.616-4.615a1.042 1.042 0 011.47 0l6.026 6.024a1.041 1.041 0 010 1.471z" fill="#01121C"/>
</svg>
