<svg width="24" height="24" fill="none" xmlns="http://www.w3.org/2000/svg">
  <defs/>
  <g fill="#FF4181">
    <path d="M22.98 18.618H1.02v-2.496l2.238-1.041 2.238 1.04h14.987a2.496 2.496 0 012.497 2.497zM15.275 5.41c-3.889.34-13.694 3.81-13.694 3.81l.263 3.008 3.11 1.168 14.585-2.225.727-.064c-.187-2.143-.741-6.07-4.99-5.698z"/>
  </g>
  <path d="M19.789 14.023l-.25-2.853-13.545 1.184.542 1.784 12.125-1.061.09 1.036a.52.52 0 101.038-.09z" fill="#9AD7FF"/>
  <path d="M5.496 12.226H1.02v3.894h4.475c.572 0 1.04-.468 1.04-1.04v-1.813c0-.572-.468-1.04-1.04-1.04z" fill="#FF80AB"/>
  <path d="M20.483 15.6H6.967c.058-.163.09-.338.09-.52v-.466l11.65-1.019.045.518a.52.52 0 101.037-.09l-.204-2.335.727-.064a.52.52 0 00.473-.563c-.143-1.634-.577-6.606-5.555-6.171-3.91.342-13.42 3.695-13.822 3.838a.52.52 0 00-.345.535l.214 2.443H1.02a.52.52 0 00-.52.52v6.391c0 .287.233.52.52.52h21.96a.52.52 0 00.52-.52 3.02 3.02 0 00-3.017-3.017zM1.541 12.747h3.954a.516.516 0 01.254.066l.002.001a.52.52 0 01.265.453v1.812c0 .287-.234.52-.52.52H1.54v-2.852zm17.007-.968l.068.78-11.56 1.01v-.302c0-.166-.026-.326-.074-.476l1.737-.152 9.829-.86zM2.135 9.576c1.838-.637 9.836-3.356 13.186-3.65 1.649-.144 2.8.395 3.522 1.648.525.911.741 2.06.854 3.06L6.09 11.823a1.553 1.553 0 00-.595-.118H2.321l-.186-2.13zm-.594 8.52V16.64h18.942c.91 0 1.678.618 1.907 1.456H1.54z" fill="#01121C"/>
</svg>
