<svg width="24" height="24" fill="none" xmlns="http://www.w3.org/2000/svg">
  <defs/>
  <path d="M6.077 1.02L1.023 6.68l7.439 2.082 7.439-2.081 5.053-5.66H6.077z" fill="#9AD7FF"/>
  <path d="M8.099 19.341L1.023 22.98h14.878l7.075-3.639H8.099z" fill="#174461"/>
  <path d="M8.099 17.513L1.023 21.15h14.878l7.075-3.638H8.099z" fill="#4EB9FF"/>
  <path d="M8.099 15.684l-7.076 3.639h14.878l7.075-3.639H8.099z" fill="#174461"/>
  <path d="M15.9 13.856v3.639l7.076-3.639H15.9z" fill="#4EB9FF"/>
  <path d="M6.077 11.835l-5.054 5.66h14.878l5.053-5.66-7.438-2.082-7.439 2.082z" fill="#9AD7FF"/>
  <path d="M15.9 6.68H1.024l5.054 5.155h14.877L15.901 6.68z" fill="#4EB9FF"/>
  <path d="M23.482 15.562a.52.52 0 00-.506-.398H21.57l1.644-.845a.52.52 0 00-.238-.983H20.31l1.031-1.155.002-.002a.518.518 0 00.08-.12l.003-.007a.518.518 0 00.048-.21v-.001a.506.506 0 00-.004-.065l-.003-.018a.533.533 0 00-.012-.06l-.001-.005a.5.5 0 00-.023-.063l-.003-.008-.004-.008a.542.542 0 00-.027-.05l-.006-.01a.503.503 0 00-.055-.07l-.01-.013-4.714-4.807 4.73-5.297A.52.52 0 0020.953.5H6.077a.52.52 0 00-.388.174L.635 6.334l-.004.005a.512.512 0 00-.041.054l-.003.005a.518.518 0 00-.031.055l-.006.012a.513.513 0 00-.04.128c0 .005 0 .01-.002.016a.523.523 0 00-.005.062v.004a.506.506 0 00.02.146.52.52 0 00.023.066l.002.006.004.006c.01.02.02.04.032.06v.001a.513.513 0 00.04.054l.013.014.015.017 4.712 4.806-4.729 5.297-.004.006a.516.516 0 00-.041.053l-.004.007a.524.524 0 00-.03.053l-.006.013a.502.502 0 00-.024.063v.001a.524.524 0 00-.022.136v.011l-.001.004c0 .021.002.042.004.062l.002.015c.003.02.007.038.012.056l.003.012a.521.521 0 00.023.065l.001.003.003.005a.501.501 0 00.03.054l.006.011a.533.533 0 00.04.053c.002.004.006.007.009.01a.514.514 0 00.038.04l.012.01a.537.537 0 00.052.039l.009.005a.53.53 0 00.05.029l.013.005a.51.51 0 00.063.024l.006.002c.02.005.04.01.06.013l.016.002a.53.53 0 00.068.005H15.9c.02 0 .04 0 .06-.003l.017-.003a.523.523 0 00.04-.007l.021-.006a.533.533 0 00.035-.01l.022-.009a.512.512 0 00.033-.015l.01-.004 3.409-1.753h1.28l-5.053 2.598H1.024a.52.52 0 000 1.04H15.9a.52.52 0 00.238-.057l3.408-1.753h1.28l-5.052 2.598H1.023a.52.52 0 000 1.04h14.878a.52.52 0 00.238-.057l3.408-1.752h1.28l-5.052 2.597H1.023a.52.52 0 000 1.041h14.878a.52.52 0 00.238-.058l7.075-3.638a.52.52 0 00-.238-.983H21.57l1.644-.845a.52.52 0 00-.238-.983H21.57l1.644-.846a.52.52 0 00.268-.585zm-2.656-1.185l-2.67 1.373 1.226-1.373h1.444zm-18.64 2.597l4.124-4.619h7.072a.52.52 0 000-1.04H6.295L2.262 7.2h1.91a.52.52 0 000-1.04H2.186L6.31 1.54h13.482L15.667 6.16H6.253a.52.52 0 000 1.04h9.43l4.033 4.114h-4.253a.52.52 0 100 1.041h4.33l-4.125 4.62H2.187z" fill="#01121C"/>
</svg>
