<svg width="24" height="24" fill="none" xmlns="http://www.w3.org/2000/svg">
  <defs/>
  <path d="M18.495 3.382l-.836-.836-1.976 1.923.104.8.8.105 1.908-1.992z" fill="#3B8BC0"/>
  <path d="M14.874 7.56l1.95-1.95-1.393-1.393-1.95 1.95 1.393 1.392z" fill="#4EB9FF"/>
  <path d="M2.253 20.006l1.88-1.88-1.219-1.219-1.88 1.88 1.219 1.219z" fill="#174461"/>
  <path d="M1.958 17.343l1.74 1.74 11.35-11.349-1.74-1.74-11.35 11.349z" fill="#3B8BC0"/>
  <path d="M9.477 3.905L8.084 5.298l2.437 1.044.696-.696-1.74-1.741z" fill="#174461"/>
  <g fill="#3B8BC0">
    <path d="M3.767 9.613l1.74 1.741 4.318-4.317-1.393-2.09-4.665 4.666zM5.506 20.617l.835.835 1.977-1.922-.105-.801-.8-.105-1.907 1.993z"/>
  </g>
  <path d="M9.126 16.44l-1.95 1.95 1.393 1.392 1.95-1.95-1.393-1.392z" fill="#4EB9FF"/>
  <path d="M21.747 3.994l-1.88 1.88 1.219 1.219 1.88-1.88-1.219-1.219z" fill="#174461"/>
  <path d="M22.043 6.657l-1.741-1.74-11.35 11.35 1.74 1.74 11.35-11.35z" fill="#3B8BC0"/>
  <path d="M14.524 20.095l1.393-1.393-2.438-1.044-.696.696 1.741 1.741z" fill="#174461"/>
  <path d="M20.234 14.385l-1.741-1.74-4.317 4.317 1.392 2.089 4.666-4.666z" fill="#3B8BC0"/>
  <g fill="#01121C">
    <path d="M23.5 5.33a.492.492 0 00-.144-.349l-1.237-1.237a.492.492 0 00-.697 0l-.828.828a.493.493 0 00-.602.074L8.619 16.018a.493.493 0 00-.12.497l-1.63 1.63a.493.493 0 00-.078.596l-1.585 1.668a.493.493 0 00.009.687l.046.047-.898.898a.492.492 0 00.696.696l.898-.898.047.046a.492.492 0 00.687.01l1.669-1.586c.188.11.434.084.595-.078l1.63-1.63a.493.493 0 00.497-.12L22.454 7.108a.492.492 0 00.073-.602l.829-.828a.492.492 0 00.144-.348zM6.36 20.85l-.052-.053a.832.832 0 01-.002-.003l-.003-.003-.053-.052 1.226-1.29.175.174-1.29 1.227zm2.247-1.663l-.694-.694 1.243-1.242.693.694-1.242 1.242zm2.127-1.75l-1.07-1.07L20.34 5.69l1.07 1.07-10.676 10.675zM21.84 5.8l-.54-.541.47-.47.54.54-.47.47zM15.525 7.633a.492.492 0 00-.023-.148l1.63-1.63a.493.493 0 00.077-.596l1.585-1.668a.492.492 0 00-.009-.687l-.046-.047.898-.898a.492.492 0 00-.696-.696l-.898.898-.047-.046a.492.492 0 00-.687-.01l-1.668 1.586a.493.493 0 00-.596.078l-1.63 1.63a.49.49 0 00-.496.12L1.546 16.892a.493.493 0 00-.073.602l-.829.828a.492.492 0 000 .697l1.237 1.237a.491.491 0 00.697 0l.828-.829c.19.115.439.09.602-.073L15.381 7.982a.492.492 0 00.144-.349zm2.114-4.483l.053.052.003.003a.832.832 0 00.003.003l.052.053-1.226 1.29-.175-.175 1.29-1.226zM2.23 19.211l-.54-.54.47-.47.54.54-.47.47zm1.431-.902l-1.07-1.07L13.268 6.565l1.07 1.07L3.66 18.308zM14.15 6.055l1.243-1.242.694.694-1.242 1.242-.694-.694zM20.977 15.252l-4.292 4.292-.233-.234 4.291-4.291a.492.492 0 000-.697l-1.765-1.766a.492.492 0 00-.697 0l-4.636 4.636-.004.004-.004.004-1.08 1.081a.493.493 0 000 .697l1.765 1.765a.49.49 0 00.697 0l.736-.736.582.581a.493.493 0 00.696 0l4.64-4.64a.492.492 0 00-.696-.696zM14.67 19.7l-1.07-1.07.39-.388 1.069 1.07-.389.388zm1.085-1.085l-1.07-1.07 3.944-3.943 1.07 1.07-3.944 3.943zM3.023 8.748l4.292-4.292.234.233-4.292 4.292a.492.492 0 000 .697l1.766 1.765a.492.492 0 00.696 0l4.636-4.635.004-.004.004-.004 1.081-1.081a.493.493 0 000-.697L9.678 3.256a.492.492 0 00-.696 0l-.737.737-.582-.582a.492.492 0 00-.696 0l-4.64 4.64a.492.492 0 00.696.697zM9.33 4.3l1.07 1.07-.39.388-1.069-1.07.389-.388zM8.245 5.386l1.07 1.07-3.944 3.943-1.07-1.07 3.944-3.943z"/>
  </g>
</svg>
