<svg width="24" height="24" fill="none" xmlns="http://www.w3.org/2000/svg">
  <defs/>
  <path d="M6.19 1.795l-1.452 4.29L6.191 7.11l1.452-1.026-1.452-4.29z" fill="#FFE290"/>
  <path d="M7.643 6.085H4.738v5.246h3.93L7.644 6.085z" fill="#FFCE47"/>
  <path d="M9.095 1.795l-1.452 4.29L9.095 7.11l1.452-1.026-1.452-4.29z" fill="#FFE290"/>
  <path d="M10.547 6.085H7.643v5.246h3.93l-1.026-5.246z" fill="#85C250"/>
  <path d="M12 1.795l-1.452 4.29L12 7.11l1.453-1.026L12 1.794z" fill="#FFE290"/>
  <path d="M13.453 6.085h-2.905v5.246h3.93l-1.025-5.246z" fill="#FF755C"/>
  <path d="M14.905 1.795l-1.453 4.29 1.453 1.025 1.452-1.026-1.452-4.29z" fill="#FFE290"/>
  <path d="M16.357 6.085h-2.905v5.246h3.93l-1.025-5.246z" fill="#FF4181"/>
  <path d="M17.81 1.795l-1.453 4.29L17.81 7.11l1.452-1.026-1.452-4.29z" fill="#FFE290"/>
  <g fill="#4EB9FF">
    <path d="M19.262 6.083h-2.905v5.246h2.905V6.083zM2.958 14.427v8.302h18.084v-8.302L12 12.89l-9.042 1.538z"/>
  </g>
  <path d="M18.99 9.792H5.01a2.052 2.052 0 00-2.052 2.052v2.585h18.084v-2.585a2.052 2.052 0 00-2.052-2.052z" fill="#9AD7FF"/>
  <path d="M23.049 10.614a.513.513 0 00-.687.233l-.807 1.638V12.1c0-1.14-.749-2.109-1.78-2.441V6.34a.5.5 0 00-.003-.047l-.002-.018a.56.56 0 00-.02-.095l-.002-.005-1.425-4.21v-.953a.513.513 0 00-1.026 0v.954l-.94 2.775-.94-2.775v-.954a.513.513 0 00-1.025 0v.954l-.94 2.775-.94-2.775v-.954a.513.513 0 00-1.025 0v.954l-.94 2.775-.939-2.775v-.954a.513.513 0 00-1.026 0v.954l-.94 2.775-.939-2.775v-.954a.513.513 0 00-1.025 0v.954l-1.426 4.21-.001.004-.006.022a.5.5 0 00-.015.073l-.002.018a.507.507 0 00-.003.047v3.318a2.569 2.569 0 00-1.78 2.441v.385l-.807-1.637a.513.513 0 00-.92.453l1.727 3.504v8.182a.513.513 0 101.026 0v-7.789h1.96a.513.513 0 000-1.026H3.47V12.1c0-.848.69-1.539 1.539-1.539h13.98c.849 0 1.539.69 1.539 1.539v2.072H7.482a.513.513 0 000 1.026h13.047v7.79a.513.513 0 101.026 0v-8.183l1.727-3.504a.513.513 0 00-.233-.687zM6.19 3.651l.738 2.177H5.453l.737-2.177zm2.905 0l.737 2.177H8.358l.737-2.177zm2.905 0l.737 2.177h-1.474L12 3.651zm2.905 0l.737 2.177h-1.475l.738-2.177zm2.905 0l.737 2.177h-1.475l.738-2.177zM7.13 6.854v2.682H5.25V6.854h1.88zm1.026 0h1.879v2.682h-1.88V6.854zm2.904 0h1.88v2.682h-1.88V6.854zm2.905 0h1.88v2.682h-1.88V6.854zm2.905 0h1.88v2.682h-1.88V6.854z" fill="#01121C"/>
</svg>
