<svg width="24" height="24" fill="none" xmlns="http://www.w3.org/2000/svg">
  <defs/>
  <path d="M1.02 20.854v1.937h21.96v-1.938L12 19.294l-10.98 1.56z" fill="#FFE290"/>
  <path d="M1.02 18.395v1.938h21.96v-1.938L12 16.835l-10.98 1.56z" fill="#FFCE47"/>
  <path d="M1.02 15.937v1.938h21.96v-1.938L12 14.377l-10.98 1.56z" fill="#FFE290"/>
  <path d="M22.98 1.02H1.02V15.23h21.96V1.02z" fill="#FFCE47"/>
  <g fill="#01121C">
    <path d="M22.98 21.64a.52.52 0 00-.52.52v.3H1.54v-.3a.52.52 0 00-1.04 0v.82c0 .287.233.52.52.52h21.96a.52.52 0 00.52-.52v-.82a.52.52 0 00-.52-.52zM22.98 19.182a.52.52 0 00-.52.52v.3H1.54v-.3a.52.52 0 00-1.04 0v.82c0 .287.233.52.52.52h21.96a.52.52 0 00.52-.52v-.82a.52.52 0 00-.52-.52zM22.98 16.724a.52.52 0 00-.52.52v.3H1.54v-.3a.52.52 0 00-1.04 0v.82c0 .287.233.52.52.52h21.96a.52.52 0 00.52-.52v-.82a.52.52 0 00-.52-.52zM22.98 14.266a.52.52 0 00-.52.52v.299H1.54v-.3a.52.52 0 00-1.04 0v.82c0 .288.233.52.52.52h21.96a.52.52 0 00.52-.52v-.82a.52.52 0 00-.52-.52zM22.98.5H1.02a.52.52 0 00-.52.52v12.127c0 .288.233.52.52.52h21.96a.52.52 0 00.52-.52V1.02a.52.52 0 00-.52-.52zm-.52 12.127H1.54V1.54h20.92v11.086z"/>
    <path d="M4.661 10.936a.52.52 0 00.52-.52V3.752a.52.52 0 00-1.04 0v6.664c0 .287.233.52.52.52zM7.264 10.936a.52.52 0 00.52-.52V3.752a.52.52 0 00-1.04 0v6.664c0 .287.232.52.52.52zM9.865 10.936a.52.52 0 00.52-.52V3.752a.52.52 0 00-1.04 0v6.664c0 .287.233.52.52.52zM12.467 10.936a.52.52 0 00.52-.52V3.752a.52.52 0 00-1.04 0v6.664c0 .287.232.52.52.52zM15.07 10.936a.52.52 0 00.52-.52V7.084a.52.52 0 00-1.041 0v3.332c0 .287.233.52.52.52z"/>
  </g>
</svg>
