<svg width="24" height="24" fill="none" xmlns="http://www.w3.org/2000/svg">
  <defs/>
  <path d="M20.737 8.63H3.217v9.434h17.52V8.631z" fill="#F5F7FA"/>
  <path d="M23.163 6.385V20.31H.837V6.385h22.326zm-2.426 11.68V8.63H3.218v9.433h17.52z" fill="#E6E9ED"/>
  <path d="M23.163 5.037v1.348h-1.348V5.037h1.348z" fill="#656D78"/>
  <path d="M21.815 5.037h-1.347v1.348h1.347V5.037z" fill="#7A8087"/>
  <path d="M20.467 5.037H5.464v1.348h15.003V5.037z" fill="#656D78"/>
  <path d="M5.464 5.037v1.348H.837V5.037h4.627z" fill="#7A8087"/>
  <path d="M23.163 4.588v.449H.837v-.45c0-.496.402-.898.899-.898h20.529c.496 0 .898.402.898.899z" fill="#5D9CEC"/>
  <path d="M22.265 3.69h-1.348c.496 0 .898.401.898.898v.449h1.348v-.45a.898.898 0 00-.898-.898z" fill="#4A89DC"/>
  <g fill="#48CFAD">
    <path d="M19.186 11.326l.225 2.695h-3.19l.27-2.695H19.186zM13.348 11.326l.224 2.695h-3.19l.27-2.695h2.696zM7.508 11.326l.224 2.695H4.543l.27-2.695h2.695z"/>
  </g>
  <path d="M23.163 6.385h-1.348V20.31h1.348V6.385z" fill="#CCD1D9"/>
  <path d="M23.5 4.57a1.225 1.225 0 00-.362-.856 1.226 1.226 0 00-.873-.362H1.736c-.68 0-1.232.55-1.236 1.229V16.583a.337.337 0 00.674 0V6.722h21.652v13.252H1.174V17.93a.337.337 0 00-.674 0v2.38a.34.34 0 00.337.338h22.326a.34.34 0 00.337-.337V4.588 4.57zM1.735 4.027h20.53c.15.001.29.06.395.165a.559.559 0 01.165.397V4.7H1.174v-.109-.003c0-.31.252-.562.562-.562zm18.372 1.348v.674H5.801v-.674h14.307zm.674 0h.674v.674h-.674v-.674zm-19.608 0h3.953v.674H1.174v-.674zm20.956.674v-.674h.696v.674h-.696z" fill="#000"/>
  <path d="M10.133 14.248c.064.07.155.11.25.11h3.19a.337.337 0 00.333-.39l-.223-2.67a.337.337 0 00-.335-.309h-.337v-.337a1.012 1.012 0 00-2.022 0v.337h-.337a.337.337 0 00-.335.304l-.27 2.695a.336.336 0 00.086.26zM12 10.315c.186 0 .337.152.337.337v.337h-.674v-.337c0-.185.151-.337.337-.337zm-1.043 1.348h2.08l.169 2.022h-2.45l.201-2.022zM10.405 15.706h1.348a.337.337 0 100-.674h-1.348a.337.337 0 100 .674zM13.572 15.032h-.471a.337.337 0 100 .674h.471a.337.337 0 100-.674zM13.572 16.38h-3.167a.337.337 0 000 .674h3.167a.337.337 0 100-.674zM15.973 14.248c.064.07.154.11.25.11h3.189a.337.337 0 00.334-.39l-.223-2.67a.337.337 0 00-.335-.309h-.337v-.337a1.012 1.012 0 00-2.022 0v.337h-.337a.337.337 0 00-.335.304l-.27 2.695a.336.336 0 00.086.26zm1.867-3.933c.186 0 .337.152.337.337v.337h-.674v-.337c0-.185.151-.337.337-.337zm-1.043 1.348h2.08l.169 2.022h-2.451l.202-2.022zM16.245 15.706h1.348a.337.337 0 100-.674h-1.348a.337.337 0 100 .674zM19.412 15.032h-.472a.337.337 0 100 .674h.472a.337.337 0 100-.674zM19.412 16.38h-3.167a.337.337 0 000 .674h3.167a.337.337 0 100-.674z" fill="#000"/>
  <path d="M9.058 18.401h11.68c.185 0 .336-.15.336-.337V8.631a.337.337 0 00-.337-.337H3.217a.337.337 0 00-.336.337v9.433c0 .186.15.337.337.337h5.84zm11.342-.674h-5.166v-8.76H20.4v8.76zm-5.84 0H9.395v-8.76h5.165v8.76zM3.555 8.967H8.72v8.76H3.555v-8.76z" fill="#000"/>
  <path d="M4.543 14.358h3.19a.337.337 0 00.333-.39l-.222-2.67a.337.337 0 00-.336-.309H7.17v-.337a1.012 1.012 0 00-2.022 0v.337h-.336a.337.337 0 00-.336.304l-.27 2.695a.337.337 0 00.336.37zm1.617-4.043c.186 0 .337.152.337.337v.337h-.674v-.337c0-.185.151-.337.337-.337zm-1.043 1.348h2.08l.17 2.022H4.914l.202-2.022zM4.565 15.032a.337.337 0 100 .674h1.348a.337.337 0 100-.674H4.565zM7.732 15.032h-.471a.337.337 0 100 .674h.471a.337.337 0 100-.674zM7.732 16.38H4.565a.337.337 0 000 .674h3.167a.337.337 0 100-.674z" fill="#000"/>
</svg>
