<svg width="24" height="24" fill="none" xmlns="http://www.w3.org/2000/svg">
  <defs/>
  <path d="M21.37 7.113H2.62v15.989h18.75V7.113z" fill="#CFDCE5"/>
  <path d="M21.37 5.573v5.4a1.487 1.487 0 01-1.939-1.417 1.485 1.485 0 01-1.487 1.488 1.487 1.487 0 01-1.488-1.487 1.485 1.485 0 01-1.487 1.487 1.487 1.487 0 01-1.487-1.488 1.485 1.485 0 01-1.488 1.488 1.487 1.487 0 01-1.487-1.488 1.485 1.485 0 01-1.487 1.488 1.487 1.487 0 01-1.487-1.488 1.485 1.485 0 01-1.488 1.488 1.487 1.487 0 01-1.487-1.488 1.485 1.485 0 01-1.939 1.418V5.572h18.75z" fill="#AEB6BA"/>
  <path d="M19.43.898H1.584V8.6a1.487 1.487 0 002.975 0 1.487 1.487 0 002.974 0 1.487 1.487 0 002.975 0 1.487 1.487 0 002.975 0 1.487 1.487 0 002.974 0 1.487 1.487 0 002.975 0 1.487 1.487 0 102.974 0V.898h-2.974z" fill="#CFDCE5"/>
  <g fill="#FF6F52">
    <path d="M7.532.898H4.558V8.6a1.487 1.487 0 002.974 0V.898zM13.481.898h-2.974V8.6a1.487 1.487 0 002.975 0V.898zM19.43.898h-2.974V8.6a1.487 1.487 0 102.975 0V.898z"/>
  </g>
  <path d="M13.402 11.575H4.318v9.668h9.084v-9.668z" fill="#4EBFED"/>
  <path d="M13.402 11.575v9.668H8.604l2.054-9.668h2.744z" fill="#92DDF4"/>
  <path d="M19.95 12.637h-4.848v10.465h4.847V12.637z" fill="#DCE8EF"/>
  <path d="M18.621 13.966H16.43v7.808h2.191v-7.809z" fill="#4EBFED"/>
  <path d="M22.411.5H1.589a.398.398 0 00-.399.398V8.6c0 .735.422 1.372 1.036 1.683v12.819c0 .22.179.398.399.398h18.75c.22 0 .399-.178.399-.398v-12.82A1.887 1.887 0 0022.809 8.6V.898A.398.398 0 0022.411.5zm-6.348 8.1a1.09 1.09 0 01-2.177 0V1.297h2.177V8.6zm-2.974 0a1.09 1.09 0 01-2.178 0V1.297h2.178V8.6zM7.538 6.502c.22 0 .398-.178.398-.398V1.297h2.178V8.6a1.09 1.09 0 01-2.178 0V7.379a.398.398 0 00-.796 0V8.6a1.09 1.09 0 01-2.178 0V1.297H7.14v4.807c0 .22.178.398.398.398zm-5.55-5.205h2.177V8.6a1.09 1.09 0 01-2.178 0V1.297zm18.989 21.406h-.624v-6.56a.398.398 0 00-.796 0v6.56h-4.051v-9.667h4.05v1.78a.398.398 0 10.797 0v-2.179a.398.398 0 00-.398-.398h-4.847a.398.398 0 00-.399.398v10.066H3.023V10.485l.053.001c.604 0 1.142-.286 1.487-.728a1.883 1.883 0 002.975 0 1.883 1.883 0 002.975 0 1.883 1.883 0 002.974 0 1.883 1.883 0 002.975 0 1.883 1.883 0 002.974 0c.346.443.884.728 1.488.728l.053-.001v12.218zM22.013 8.6a1.09 1.09 0 01-2.178 0V3.91a.398.398 0 00-.797 0V8.6a1.09 1.09 0 01-2.178 0V1.297h2.178v1.339a.398.398 0 10.797 0v-1.34h2.178V8.6z" fill="#000"/>
  <path d="M13.407 11.177H4.324a.398.398 0 00-.398.398v2.019a.398.398 0 10.797 0v-1.62h8.286v8.87H4.723v-5.923a.398.398 0 00-.797 0v6.322c0 .22.178.398.398.398h9.083c.22 0 .399-.178.399-.398v-9.668a.398.398 0 00-.399-.398zM18.627 13.567h-2.191a.398.398 0 00-.399.398v7.809c0 .22.178.398.399.398h2.191c.22 0 .398-.178.398-.398v-7.809a.398.398 0 00-.398-.398zm-1.793 2.709h1.395v1.195h-1.395v-1.195zm0 1.992h1.395v1.195h-1.395v-1.195zm1.395-3.904v1.115h-1.395v-1.115h1.395zm-1.395 7.011V20.26h1.395v1.115h-1.395z" fill="#000"/>
</svg>
