<svg width="24" height="24" fill="none" xmlns="http://www.w3.org/2000/svg">
  <defs/>
  <path d="M23.162 5.935V21.21H.838V5.935h22.325z" fill="#E6E9ED"/>
  <path d="M18.29 14.021H5.71v1.348h12.58v-1.348z" fill="#656D78"/>
  <path d="M22.264 4.588H1.735a.898.898 0 00-.898.898v.45h22.325v-.45a.898.898 0 00-.898-.898z" fill="#5D9CEC"/>
  <path d="M22.265 4.588h-1.348c.497 0 .898.401.898.898v.45h1.348v-.45a.898.898 0 00-.898-.898z" fill="#4A89DC"/>
  <path d="M7.059 2.79V15.37h9.883V2.79H7.059z" fill="#8CC152"/>
  <path d="M15.594 4.587V15.37H8.387V4.587c.248 0 .449-.2.449-.449h6.309c0 .248.2.45.449.45z" fill="#A0D468"/>
  <path d="M13.797 15.369a2.246 2.246 0 10-3.594 0h3.594z" fill="#8CC152"/>
  <path d="M23.163 5.936h-1.348v15.273h1.348V5.936z" fill="#DADDE1"/>
  <path d="M16.941 2.79h-1.347V15.37h1.347V2.79z" fill="#81B242"/>
  <path d="M7.059 14.358c.186 0 .337-.15.337-.337V3.127h9.209v10.894a.337.337 0 00.674 0V2.791a.337.337 0 00-.337-.337H7.059a.337.337 0 00-.337.337v11.23c0 .186.15.337.337.337z" fill="#000"/>
  <path d="M15.594 14.358c.186 0 .337-.15.337-.337V4.587a.337.337 0 00-.337-.336.112.112 0 01-.113-.113.337.337 0 00-.337-.337H8.835a.337.337 0 00-.336.337c0 .062-.05.113-.112.113a.337.337 0 00-.337.336v9.434a.337.337 0 10.674 0V4.847a.79.79 0 00.372-.372h5.788a.79.79 0 00.373.372v9.174c0 .186.15.337.337.337z" fill="#000"/>
  <path d="M9.417 14.021a.337.337 0 10.674 0c0-1.052.856-1.909 1.909-1.909s1.91.857 1.91 1.91a.337.337 0 10.673 0A2.586 2.586 0 0012 11.437a2.586 2.586 0 00-2.583 2.583z" fill="#000"/>
  <path d="M5.71 13.684a.337.337 0 00-.336.337v1.348c0 .186.15.337.337.337h12.578c.186 0 .337-.15.337-.337v-1.348a.337.337 0 10-.674 0v1.011H6.049v-1.01a.337.337 0 00-.337-.338zM.837 17.818c.186 0 .337-.15.337-.337V6.272H5.71a.337.337 0 100-.674H1.174V5.49v-.003c0-.31.252-.561.562-.561H5.71a.337.337 0 100-.674H1.736C1.056 4.25.504 4.8.5 5.479V17.48c0 .186.15.337.337.337z" fill="#000"/>
  <path d="M23.138 4.613a1.227 1.227 0 00-.873-.363h-3.976a.337.337 0 100 .675h3.977a.561.561 0 01.56.56v.113H18.29a.337.337 0 100 .674h4.537v14.6H1.174V18.83a.337.337 0 00-.674 0v2.38a.338.338 0 00.337.337h22.326a.338.338 0 00.337-.337V5.486c0-.33-.128-.64-.362-.873z" fill="#000"/>
</svg>
