<svg width="24" height="24" fill="none" xmlns="http://www.w3.org/2000/svg">
  <defs/>
  <path d="M21.884 3.914H2.118v12.578h19.766V3.914z" fill="#5D9CEC"/>
  <path d="M21.884 16.492v1.572a.674.674 0 01-.674.674H2.792a.674.674 0 01-.674-.674v-1.572h19.766z" fill="#E6E9ED"/>
  <g fill="#CCD1D9">
    <path d="M20.088 16.492v1.572a.674.674 0 01-.674.674h1.797a.674.674 0 00.674-.674v-1.572h-1.797zM14.256 18.738l.883 3.145H8.857l.884-3.145h4.515z"/>
  </g>
  <path d="M12.001 16.941a.674.674 0 110 1.348.674.674 0 010-1.348z" fill="#656D78"/>
  <path d="M17.84 9.304h-1.347v5.391h1.348v-5.39z" fill="#DA4453"/>
  <path d="M16.493 9.304h-2.246v5.391h2.246v-5.39z" fill="#ED5565"/>
  <path d="M12.45 7.957H6.161v6.738h6.29V7.957z" fill="#FFCE54"/>
  <path d="M21.884 2.79v1.124H2.118V2.79c0-.373.302-.674.674-.674H21.21c.372 0 .674.301.674.674z" fill="#E6E9ED"/>
  <path d="M21.21 2.117h-1.797c.372 0 .674.301.674.674v1.123h1.797V2.791a.674.674 0 00-.674-.674z" fill="#CCD1D9"/>
  <path d="M14.247 9.304v5.391H12.45V7.957h1.797v1.347z" fill="#F6BB42"/>
  <path d="M21.884 3.914h-1.797v12.578h1.797V3.914z" fill="#4A89DC"/>
  <path d="M21.884 3.915L2.12 3.914.838 5.262c0 .496.417.898.93.898.514 0 .93-.402.93-.898 0 .496.417.898.93.898.515 0 .931-.402.931-.898 0 .496.417.898.93.898.514 0 .93-.402.93-.898 0 .496.417.898.931.898.51 0 .926-.398.93-.89.004.492.42.89.93.89.514 0 .93-.402.93-.898 0 .496.417.898.93.898.515 0 .931-.402.931-.898 0 .496.417.898.93.898.511 0 .927-.398.93-.89.005.492.42.89.93.89.515 0 .931-.402.931-.898 0 .496.417.898.93.898.514 0 .93-.402.93-.898 0 .496.417.898.93.898.512 0 .927-.398.931-.89.004.492.42.89.93.89.514 0 .93-.402.93-.898 0 .496.417.898.93.898h.002c.514 0 .93-.403.93-.898l-1.28-1.347z" fill="#ED5565"/>
  <path d="M21.884 3.915h-1.861l1.28 1.347c0 .487 0 .488 0 0 0 .496.416.898.93.898h.001c.514 0 .93-.403.93-.898l-1.28-1.347z" fill="#DA4453"/>
  <path d="M23.5 5.284v-.007-.01a.384.384 0 00-.003-.034l-.003-.017c0-.006-.002-.011-.003-.016a.296.296 0 00-.028-.077.398.398 0 00-.048-.07l-.006-.007-1.189-1.264v-.991c0-.558-.453-1.01-1.01-1.01H2.791c-.558 0-1.011.452-1.011 1.01v.99L.59 5.046l-.006.008-.012.014a.29.29 0 00-.035.055.39.39 0 00-.032.093.364.364 0 00-.006.051v.023c.008.658.573 1.192 1.267 1.192.368 0 .699-.15.93-.388.232.239.563.388.93.388.368 0 .7-.15.931-.388.232.239.563.388.93.388.368 0 .699-.15.93-.388.232.239.563.388.93.388.368 0 .7-.15.931-.388.232.239.563.388.93.388.368 0 .699-.15.93-.388.232.239.563.388.93.388.368 0 .7-.15.931-.388.232.239.563.388.93.388.368 0 .699-.15.93-.388.232.239.563.388.93.388.368 0 .7-.15.931-.388.232.239.563.388.93.388.368 0 .699-.15.93-.388.232.239.563.388.93.388.368 0 .7-.15.931-.388.232.239.563.388.93.388.368 0 .699-.15.93-.388.232.239.563.388.93.388.695 0 1.26-.534 1.268-1.193v-.005zM2.792 2.454h18.417c.186 0 .337.151.337.337v.786H2.455v-.786c0-.186.15-.337.337-.337zm19.44 3.355c-.326 0-.592-.238-.593-.53v-.002a.337.337 0 10-.674 0v.001c0 .293-.266.53-.593.53-.326 0-.592-.237-.593-.53v-.001a.337.337 0 10-.674 0v.002c-.001.292-.267.53-.593.53-.327 0-.593-.238-.594-.531v-.001a.337.337 0 00-.674 0c0 .294-.266.532-.593.532-.326 0-.591-.238-.593-.53v-.002a.337.337 0 10-.674 0v.002c-.002.292-.267.53-.593.53-.327 0-.593-.238-.594-.531v-.001a.337.337 0 10-.674 0c0 .294-.266.532-.593.532-.326 0-.592-.238-.593-.53v-.002a.337.337 0 10-.674 0v.002c-.001.292-.267.53-.593.53-.327 0-.593-.238-.594-.531v-.001a.337.337 0 10-.674 0c0 .294-.266.532-.593.532-.326 0-.591-.238-.593-.53v-.002a.337.337 0 00-.674 0v.002c-.002.292-.267.53-.593.53-.327 0-.593-.238-.594-.531v-.001a.337.337 0 10-.674 0c0 .294-.266.532-.593.532-.326 0-.592-.238-.593-.53v-.002a.337.337 0 10-.674 0v.002c-.001.292-.267.53-.593.53-.327 0-.593-.238-.594-.53v-.002a.337.337 0 10-.674 0v.001c0 .293-.266.53-.593.53-.282 0-.518-.177-.578-.414l1.075-1.143h19.472l1.075 1.143c-.06.237-.296.415-.578.415zM21.884 7.171a.337.337 0 00-.337.337v8.647H2.455V7.508a.337.337 0 10-.674 0v10.556c0 .558.454 1.011 1.011 1.011h6.503l-.694 2.471h-.643a.337.337 0 100 .674h8.086a.337.337 0 100-.674h-.65l-.695-2.47h6.51c.558 0 1.012-.454 1.012-1.012V7.508a.337.337 0 00-.337-.337zM12 17.952a.337.337 0 110-.674.337.337 0 010 .674zm-9.546.112V16.83h8.912a1.009 1.009 0 000 1.572H2.792a.337.337 0 01-.337-.337zm12.238 3.482H9.301l.694-2.47H14l.694 2.47zm6.517-3.145h-8.575a1.01 1.01 0 000-1.572h8.912v1.235a.337.337 0 01-.337.337z" fill="#000"/>
  <path d="M10.652 8.968a.337.337 0 00-.337.337 1.012 1.012 0 01-2.021 0 .337.337 0 10-.674 0c0 .929.756 1.684 1.685 1.684.928 0 1.684-.755 1.684-1.684a.337.337 0 00-.337-.337z" fill="#000"/>
  <path d="M14.246 7.62H6.16a.337.337 0 00-.337.337v6.738c0 .187.151.337.337.337h11.68c.186 0 .337-.15.337-.337v-5.39a.337.337 0 00-.337-.337h-3.257V7.957a.337.337 0 00-.337-.337zm-7.749.674h5.615v6.064H6.497V8.294zm6.29 0h1.122v6.064h-1.123V8.294zm4.042 6.064V9.642h.674v4.716h-.674zm-.674-4.716v4.716h-1.572V9.642h1.572z" fill="#000"/>
</svg>
