<svg width="24" height="24" fill="none" xmlns="http://www.w3.org/2000/svg">
  <defs/>
  <path d="M19.865 3.062H7.28v16.505h12.585V3.062z" fill="#5D9CEC"/>
  <path d="M19.865 3.062h-1.348v16.505h1.348V3.062z" fill="#4A89DC"/>
  <path d="M19.865 19.567v2.247c0 .745-.604 1.349-1.349 1.349H8.63a1.348 1.348 0 01-1.349-1.349v-2.247h12.585z" fill="#656D78"/>
  <path d="M18.516 19.567v2.247c0 .745-.603 1.349-1.348 1.349h1.348c.745 0 1.349-.604 1.349-1.349v-2.247h-1.349z" fill="#515760"/>
  <path d="M13.573 20.467a.899.899 0 110 1.797.899.899 0 010-1.797z" fill="#AAB2BC"/>
  <path d="M19.865 3.062l.899 1.767a.9.9 0 01-1.798 0 .9.9 0 01-1.797 0 .9.9 0 01-1.798 0 .9.9 0 01-1.798 0 .9.9 0 01-1.798 0 .9.9 0 01-1.798 0 .9.9 0 01-1.797 0 .9.9 0 01-1.798 0l.899-1.767h12.584z" fill="#ED5565"/>
  <path d="M19.865 3.062h-1.573l.674 1.767a.899.899 0 001.798 0l-.899-1.767z" fill="#DA4453"/>
  <path d="M19.865 2.185v.876H7.28v-.876c0-.744.604-1.348 1.349-1.348h9.887c.745 0 1.349.604 1.349 1.348z" fill="#656D78"/>
  <path d="M18.516.837h-1.348c.745 0 1.348.604 1.348 1.348v.876h1.349v-.876c0-.744-.604-1.348-1.349-1.348z" fill="#515760"/>
  <path d="M14.471 7.275h-1.348v10.787h1.348V7.275z" fill="#656D78"/>
  <path d="M14.471 8.624H3.235v8.09h11.236v-8.09z" fill="#8CC152"/>
  <path d="M14.472 9.972v5.413H5.033a.45.45 0 00-.449-.45v-4.514c.248 0 .45-.2.45-.449h9.438z" fill="#A0D468"/>
  <path d="M13.124 14.017a1.348 1.348 0 100-2.697 1.348 1.348 0 000 2.697z" fill="#8CC152"/>
  <path d="M13.573 20.13c-.682 0-1.236.554-1.236 1.236 0 .681.554 1.236 1.236 1.236.681 0 1.236-.555 1.236-1.236 0-.682-.555-1.236-1.236-1.236zm0 1.797a.562.562 0 11.001-1.124.562.562 0 01-.001 1.124z" fill="#000"/>
  <path d="M21.101 4.834V4.83v-.01a.372.372 0 00-.006-.053l-.003-.016-.004-.015a.318.318 0 00-.007-.02l-.004-.011a.373.373 0 00-.01-.021l-.002-.007-.863-1.695v-.796c0-.929-.756-1.685-1.685-1.685H8.629c-.93 0-1.685.756-1.685 1.685v.796l-.862 1.695c-.002.002-.002.004-.003.007a.329.329 0 00-.01.02l-.004.012a.352.352 0 00-.01.035l-.004.016-.003.019-.002.014a.31.31 0 000 .02l-.001.01v.012c.006.559.384 1.03.899 1.177V7.24a.337.337 0 10.674 0V6.018c.217-.062.41-.182.562-.342a1.232 1.232 0 001.798 0 1.232 1.232 0 001.797 0 1.233 1.233 0 001.798 0 1.232 1.232 0 001.798 0 1.232 1.232 0 001.798 0 1.233 1.233 0 001.797 0c.151.16.345.28.562.342V19.23H7.618v-1.203a.337.337 0 10-.674 0v3.788c0 .929.756 1.685 1.685 1.685h9.888c.93 0 1.685-.756 1.685-1.685V6.017c.515-.146.893-.617.899-1.176v-.007zM8.63 1.174h9.888c.558 0 1.011.454 1.011 1.011v.54H7.618v-.54c0-.557.454-1.01 1.011-1.01zm9.888 21.652H8.63a1.012 1.012 0 01-1.01-1.011v-1.91h11.91v1.91c0 .557-.454 1.01-1.012 1.01zM19.865 5.39a.562.562 0 01-.561-.561.337.337 0 10-.675 0 .562.562 0 01-1.123 0 .337.337 0 10-.674 0 .562.562 0 01-1.124 0 .337.337 0 10-.674 0 .562.562 0 01-1.124 0 .337.337 0 10-.674 0 .562.562 0 01-1.123 0 .337.337 0 10-.675 0 .562.562 0 01-1.123 0 .337.337 0 10-.674 0 .562.562 0 01-1.124 0 .337.337 0 10-.674 0 .562.562 0 01-1.119.07l.764-1.5h12.17l.764 1.5a.562.562 0 01-.557.491z" fill="#000"/>
  <path d="M13.46 16.714a.337.337 0 00-.337-.337h-9.55V8.96h9.55a.337.337 0 100-.674H3.236a.337.337 0 00-.338.337v8.09c0 .186.151.337.338.337h9.887c.187 0 .337-.15.337-.337z" fill="#000"/>
  <path d="M4.584 15.272a.112.112 0 01.113.113c0 .186.15.337.337.337h8.09a.337.337 0 000-.674h-7.83a.783.783 0 00-.373-.373v-3.993a.79.79 0 00.373-.373h7.83a.337.337 0 100-.674h-8.09a.337.337 0 00-.337.337c0 .062-.05.113-.113.113a.337.337 0 00-.337.337v4.513c0 .186.151.337.337.337z" fill="#000"/>
  <path d="M12.786 18.062c0 .186.151.337.337.337h1.349c.186 0 .337-.15.337-.337V7.275a.337.337 0 00-.337-.337h-1.349a.337.337 0 100 .675h1.011v10.112h-1.01a.337.337 0 00-.338.337z" fill="#000"/>
  <path d="M13.123 11.667a.337.337 0 100-.674c-.93 0-1.685.756-1.685 1.685 0 .93.755 1.686 1.685 1.686a.337.337 0 000-.674 1.012 1.012 0 010-2.023z" fill="#000"/>
</svg>
