<svg width="24" height="24" fill="none" xmlns="http://www.w3.org/2000/svg">
  <defs/>
  <path d="M20.573 19.848H3.427a1.832 1.832 0 01-1.832-1.831v-5.54c0-1.012.82-1.832 1.832-1.832h17.148c1.011 0 1.831.82 1.831 1.832v5.54c0 1.011-.82 1.831-1.832 1.831z" fill="#968BC8"/>
  <path d="M20.639 10.645h-.25v5.42c0 .976-.79 1.767-1.767 1.767H1.595v.25c0 .975.79 1.766 1.766 1.766H20.64c.976 0 1.766-.79 1.766-1.766v-5.67c0-.976-.79-1.767-1.766-1.767z" fill="#8479BF"/>
  <path d="M20.64 20.606H3.36a2.528 2.528 0 01-2.524-2.524v-5.67A2.528 2.528 0 013.36 9.887h17.278a2.528 2.528 0 012.525 2.525v5.67a2.527 2.527 0 01-2.525 2.524zM3.36 11.403a1.01 1.01 0 00-1.008 1.009v5.67a1.01 1.01 0 001.009 1.008h17.278a1.01 1.01 0 001.009-1.008v-5.67a1.01 1.01 0 00-1.009-1.009H3.361z" fill="#56449B"/>
  <path d="M22.045 10.316c.27.402.429.886.429 1.406v5.67a2.528 2.528 0 01-2.525 2.525H2.671a2.51 2.51 0 01-1.406-.43 2.524 2.524 0 002.096 1.12h17.278a2.528 2.528 0 002.525-2.525v-5.67c0-.872-.445-1.642-1.119-2.096z" fill="#473984"/>
  <path d="M11.784 5.96a1.283 1.283 0 100-2.566 1.283 1.283 0 000 2.566z" fill="#968BC8"/>
  <path d="M12.143 3.445a1.283 1.283 0 01-1.591 1.592 1.284 1.284 0 101.591-1.592z" fill="#8479BF"/>
  <path d="M20.64 9.551h-2.991l-4.335-4.345a1.618 1.618 0 10-3.15-.529c0 .182.031.36.09.53L5.918 9.55H3.361A2.864 2.864 0 00.5 12.411v5.67a2.864 2.864 0 002.86 2.861h13.845a.336.336 0 100-.672H3.36a2.191 2.191 0 01-2.189-2.188v-5.67c0-1.207.982-2.189 2.189-2.189h17.278c1.207 0 2.189.982 2.189 2.189v5.67a2.191 2.191 0 01-2.189 2.188h-1.92a.336.336 0 100 .672h1.92a2.864 2.864 0 002.861-2.86v-5.67a2.864 2.864 0 00-2.86-2.861zM10.616 5.793a.336.336 0 00.458-.487.946.946 0 01.709-1.576.948.948 0 01.371 1.819.336.336 0 00.264.618 1.62 1.62 0 00.535-.37l3.745 3.754H6.87l3.748-3.758z" fill="#000"/>
  <path d="M8.192 11.067h-4.83c-.742 0-1.345.603-1.345 1.345v5.67c0 .741.603 1.344 1.344 1.344H20.64c.741 0 1.344-.603 1.344-1.344v-5.67c0-.742-.603-1.345-1.344-1.345H9.76a.336.336 0 100 .672h10.88c.37 0 .672.302.672.673v5.67c0 .37-.302.672-.672.672H3.36a.673.673 0 01-.672-.672v-5.67c0-.371.301-.673.672-.673h4.83a.336.336 0 100-.672z" fill="#000"/>
  <path d="M5.623 15.361c0 .963.468 1.706 1.609 1.706 1.087 0 1.608-.809 1.608-1.706 0-.932-.566-1.626-1.608-1.626-1.043 0-1.609.694-1.609 1.626zm2.492 0c0 .61-.225 1.122-.883 1.122-.681 0-.884-.512-.884-1.122 0-.61.291-1.043.884-1.043.592 0 .883.433.883 1.043zM10.095 16.687v-.862h.804c.703 0 1.105-.429 1.105-1.007 0-.707-.49-1.008-1.1-1.008h-1.11c-.256 0-.424.102-.424.424v2.453c0 .216.142.362.362.362.221 0 .363-.146.363-.362zm0-2.32h.6c.359 0 .584.132.584.45 0 .274-.216.451-.508.451h-.676v-.901zM14.624 14.393c.213 0 .367-.062.367-.291 0-.23-.154-.292-.367-.292h-1.7c-.257 0-.425.102-.425.424v2.333c0 .323.168.425.424.425h1.737c.212 0 .367-.062.367-.292 0-.23-.155-.292-.367-.292h-1.436v-.769h1.228c.19 0 .34-.053.34-.278 0-.225-.15-.278-.34-.278h-1.228v-.69h1.4zM16.192 16.7v-1.834h.01l1.259 1.989c.092.145.168.194.397.194.305 0 .429-.163.429-.45v-2.497c0-.235-.133-.35-.35-.35-.216 0-.348.115-.348.35v1.887h-.01l-1.267-2.046c-.08-.133-.213-.19-.363-.19-.309 0-.455.123-.455.424V16.7c0 .234.133.35.35.35.216 0 .348-.116.348-.35z" fill="#000"/>
</svg>
