<svg width="24" height="24" fill="none" xmlns="http://www.w3.org/2000/svg">
  <defs/>
  <path d="M4.045 23.162H.856V22.14c0-1.683 1.506-3.06 3.189-3.083 1.682.023 3.188 1.4 3.188 3.083v1.023H4.045z" fill="#68B9D8"/>
  <path d="M4.044 19.056a3.161 3.161 0 00-.45.04c1.491.235 2.738 1.512 2.738 3.043v1.023h.9V22.14c0-1.683-1.506-3.06-3.188-3.083z" fill="#3695B2"/>
  <path d="M19.957 23.162h-3.188V22.14c0-1.683 1.505-3.06 3.188-3.083 1.682.023 3.188 1.4 3.188 3.083v1.023h-3.188z" fill="#68B9D8"/>
  <path d="M19.956 19.056a3.159 3.159 0 00-.45.04c1.491.235 2.738 1.512 2.738 3.043v1.023h.9V22.14c0-1.683-1.506-3.06-3.188-3.083z" fill="#3695B2"/>
  <path d="M11.914 9.913H8.495V8.815c0-1.804 1.615-3.281 3.42-3.306 1.804.025 3.419 1.502 3.419 3.306v1.098h-3.42z" fill="#68B9D8"/>
  <path d="M11.915 5.51a3.381 3.381 0 00-.45.036c1.614.24 2.969 1.617 2.969 3.27v1.097h.9V8.815c0-1.804-1.615-3.281-3.419-3.306z" fill="#3695B2"/>
  <path d="M4.044 19.059c.838 0 1.524-.686 1.524-1.524v-1.31c0-.839-.686-1.524-1.524-1.524s-1.523.685-1.523 1.523v1.311c0 .838.685 1.524 1.523 1.524z" fill="#FFC89F"/>
  <path d="M4.044 14.7a1.51 1.51 0 00-.45.069 1.53 1.53 0 011.073 1.455v1.311a1.53 1.53 0 01-1.073 1.456 1.528 1.528 0 001.974-1.455v-1.312c0-.838-.686-1.523-1.524-1.523z" fill="#F7B081"/>
  <g fill="#FFC89F">
    <path d="M19.956 19.059c.838 0 1.524-.686 1.524-1.524v-1.311c0-.838-.686-1.524-1.524-1.524s-1.523.686-1.523 1.524v1.311c0 .838.685 1.524 1.523 1.524zM11.908 5.512h.015c.895 0 1.627-.732 1.627-1.626V2.464c0-.895-.732-1.626-1.627-1.626h-.015c-.895 0-1.627.731-1.627 1.626v1.422c0 .894.732 1.626 1.627 1.626z"/>
  </g>
  <g fill="#F7B081">
    <path d="M19.956 14.7a1.51 1.51 0 00-.45.069 1.53 1.53 0 011.073 1.455v1.311a1.53 1.53 0 01-1.073 1.455c.142.045.293.069.45.069.838 0 1.524-.686 1.524-1.524v-1.311c0-.838-.686-1.524-1.524-1.524zM11.923.838h-.016c-.153 0-.301.022-.442.062a1.632 1.632 0 011.184 1.564v1.422c0 .74-.503 1.37-1.184 1.564.14.04.289.062.442.062h.016c.894 0 1.626-.732 1.626-1.626V2.464c0-.895-.732-1.626-1.626-1.626z"/>
  </g>
  <g fill="#F2464F">
    <path d="M4.044 22.525l-.79-.723.424-1.662h.732l.424 1.662-.79.723zM19.956 22.525l-.79-.723.424-1.662h.732l.425 1.662-.79.723zM11.915 9.23l-.848-.776.456-1.796h.785l.455 1.796-.848.775z"/>
  </g>
  <g fill="#D3333C">
    <path d="M4.41 20.138H3.68l-.41-.975c.251-.066.511-.104.776-.107.264.003.524.04.775.107l-.41.975zM20.323 20.138h-.732l-.41-.975c.251-.066.511-.104.776-.107.264.003.524.04.775.107l-.41.975zM12.308 6.657h-.785l-.439-1.033c.269-.072.548-.111.831-.115.284.004.563.043.832.115l-.44 1.033z"/>
  </g>
  <path d="M5.255 18.947c.397-.341.65-.847.65-1.412v-1.31a1.863 1.863 0 00-1.86-1.862 1.863 1.863 0 00-1.862 1.861v1.311c0 .565.253 1.07.65 1.412C1.499 19.45.52 20.714.52 22.14v1.023c0 .187.15.338.337.338h1.288a.338.338 0 000-.675h-.95v-.686c0-.712.304-1.393.858-1.919a3.038 3.038 0 011.026-.64l.245.585-.396 1.552c-.031.12.007.249.099.333l.79.723a.334.334 0 00.075.052H3.27a.338.338 0 000 .675h3.963a.338.338 0 00.338-.338V22.14c0-1.425-.98-2.69-2.315-3.192zm-2.397-2.091c1.075-.134 1.476-.877 1.476-.877s.253.666.896.85v.706c0 .638-.505 1.159-1.136 1.185l-.045-.001h-.01l-.045.001a1.187 1.187 0 01-1.136-1.185v-.68zm.903 2.557l.075-.007.065-.006.105-.004h.076c.035 0 .07.002.105.004l.065.006.075.007.02.003-.161.385h-.283l-.162-.385c.007 0 .013-.002.02-.003zm-.13 2.275l.31-1.212h.207l.31 1.212-.414.378-.413-.378zm3.264 1.137H4.197a.338.338 0 00.075-.052l.79-.723a.337.337 0 00.1-.333l-.397-1.552.246-.585c.377.141.729.359 1.025.64.554.526.859 1.207.859 1.919v.686zM21.167 18.947c.398-.341.65-.847.65-1.412v-1.31a1.863 1.863 0 00-1.86-1.862 1.863 1.863 0 00-1.862 1.861v1.311c0 .565.253 1.07.65 1.412-1.335.502-2.314 1.767-2.314 3.192v1.023c0 .187.15.338.337.338h1.288a.338.338 0 100-.675h-.95v-.686c0-.712.305-1.393.858-1.919a3.039 3.039 0 011.026-.64l.245.585-.396 1.552c-.03.12.007.249.1.333l.79.723a.336.336 0 00.074.052h-.622a.338.338 0 000 .675h3.963a.338.338 0 00.338-.338V22.14c0-1.425-.98-2.69-2.315-3.192zm-2.397-2.091c1.077-.133 1.48-.878 1.48-.878s.252.665.892.85v.707c0 .638-.505 1.159-1.136 1.185l-.045-.001h-.01l-.044.001a1.187 1.187 0 01-1.137-1.185v-.68zm.903 2.557l.076-.007c.021-.002.043-.005.065-.006l.105-.004h.075c.035 0 .07.002.105.004l.066.006.075.007.02.003-.162.385h-.283l-.162-.385c.007 0 .013-.002.02-.003zm-.13 2.275l.31-1.212h.207l.31 1.212-.414.378-.413-.378zm3.264 1.137h-2.698a.339.339 0 00.075-.052l.79-.723a.337.337 0 00.1-.333l-.397-1.552.246-.585c.377.141.73.358 1.026.64.553.526.858 1.207.858 1.919v.686zM8.496 10.25h1.222a.338.338 0 000-.674h-.885v-.76c0-.77.33-1.508.928-2.076.327-.31.716-.549 1.132-.701l.274.645-.427 1.686c-.03.12.008.248.1.332l.847.775a.337.337 0 00.456 0l.848-.775a.338.338 0 00.099-.332l-.427-1.686.274-.645c.416.152.805.39 1.132.7.598.57.928 1.306.928 2.076v.76h-4.153a.338.338 0 100 .676h4.49a.338.338 0 00.338-.338V8.815c0-1.53-1.062-2.888-2.503-3.413a1.96 1.96 0 00.718-1.516V2.464C13.887 1.38 13.006.5 11.923.5h-.016a1.966 1.966 0 00-1.964 1.964v1.422c0 .61.28 1.156.718 1.516-1.441.525-2.503 1.883-2.503 3.413v1.098c0 .187.151.338.338.338zm3.42-1.48l-.472-.43.341-1.345h.26l.34 1.345-.47.43zm.168-2.45h-.338l-.19-.445.063-.009h.004c.045-.005.091-.01.137-.013h.02c.03-.003.06-.003.09-.004h.09l.09.003.02.001.137.013h.004l.062.009-.189.444zM10.62 3.152c1.172-.135 1.61-.944 1.61-.944s.277.731.983.92v.757a1.29 1.29 0 01-1.24 1.287l-.052-.001h-.01l-.052.001a1.29 1.29 0 01-1.24-1.287v-.733zM16.235 18.699l-3.857-2.868v-4.184a.338.338 0 10-.675 0v4.177l-3.876 2.874a.338.338 0 00.402.543l3.802-2.82 3.8 2.82a.338.338 0 00.404-.542z" fill="#000"/>
</svg>
