<svg width="24" height="24" fill="none" xmlns="http://www.w3.org/2000/svg">
  <defs/>
  <path d="M12 23.047H8.807V22.02c0-1.685 1.508-3.064 3.193-3.088 1.685.024 3.194 1.403 3.194 3.088v1.026H12z" fill="#68B9D8"/>
  <path d="M12 18.933a3.167 3.167 0 00-.448.04c1.495.234 2.745 1.515 2.745 3.049v1.025h.897V22.02c0-1.685-1.509-3.064-3.194-3.088z" fill="#3695B2"/>
  <path d="M4.03 23.047H.836V22.02c0-1.685 1.508-3.064 3.194-3.088 1.685.024 3.193 1.403 3.193 3.088v1.026H4.03z" fill="#68B9D8"/>
  <path d="M4.03 18.933a3.168 3.168 0 00-.449.04c1.495.234 2.745 1.515 2.745 3.049v1.025h.897V22.02c0-1.685-1.508-3.064-3.193-3.088z" fill="#3695B2"/>
  <path d="M19.97 23.047h-3.194V22.02c0-1.685 1.509-3.064 3.194-3.088 1.685.024 3.194 1.403 3.194 3.088v1.026H19.97z" fill="#68B9D8"/>
  <path d="M19.97 18.933c-.151.003-.301.016-.448.04 1.495.234 2.745 1.515 2.745 3.049v1.025h.896V22.02c0-1.685-1.508-3.064-3.193-3.088z" fill="#3695B2"/>
  <path d="M11.915 10.045H8.489v-1.1c0-1.808 1.618-3.287 3.426-3.312 1.807.025 3.425 1.504 3.425 3.312v1.1h-3.425z" fill="#68B9D8"/>
  <path d="M11.914 5.633c-.15.002-.3.015-.448.037 1.618.238 2.977 1.619 2.977 3.275v1.1h.897v-1.1c0-1.808-1.618-3.287-3.426-3.312z" fill="#3695B2"/>
  <path d="M11.992 18.936h.016c.835 0 1.518-.683 1.518-1.518v-1.33c0-.835-.683-1.518-1.518-1.518h-.016c-.835 0-1.518.683-1.518 1.518v1.33c0 .835.683 1.518 1.518 1.518z" fill="#FFC89F"/>
  <path d="M12.008 14.57h-.016c-.153 0-.3.023-.44.066.622.19 1.078.77 1.078 1.452v1.33c0 .682-.456 1.263-1.078 1.452.14.043.287.066.44.066h.016c.835 0 1.519-.683 1.519-1.518v-1.33c0-.835-.684-1.518-1.518-1.518z" fill="#F7B081"/>
  <path d="M19.97 18.936a1.53 1.53 0 001.526-1.526v-1.314a1.53 1.53 0 00-1.526-1.526 1.53 1.53 0 00-1.527 1.526v1.314c0 .84.687 1.526 1.527 1.526z" fill="#FFC89F"/>
  <path d="M19.97 14.57c-.156 0-.307.024-.448.068a1.532 1.532 0 011.077 1.458v1.314c0 .683-.455 1.266-1.078 1.458a1.53 1.53 0 001.975-1.459v-1.313a1.53 1.53 0 00-1.526-1.526z" fill="#F7B081"/>
  <path d="M11.914 5.636c.9 0 1.637-.737 1.637-1.637V2.59c0-.9-.736-1.637-1.637-1.637-.9 0-1.637.737-1.637 1.637V4c0 .9.737 1.637 1.637 1.637z" fill="#FFC89F"/>
  <path d="M11.914.953c-.155 0-.306.023-.448.064a1.643 1.643 0 011.188 1.573V4c0 .745-.504 1.377-1.188 1.574a1.642 1.642 0 002.085-1.574V2.59c0-.9-.736-1.637-1.637-1.637z" fill="#F7B081"/>
  <path d="M4.03 18.936a1.53 1.53 0 001.526-1.526v-1.314A1.53 1.53 0 004.03 14.57a1.53 1.53 0 00-1.526 1.526v1.314c0 .84.687 1.526 1.526 1.526z" fill="#FFC89F"/>
  <path d="M4.03 14.57c-.156 0-.307.024-.449.068a1.532 1.532 0 011.078 1.458v1.314c0 .683-.456 1.266-1.078 1.458a1.53 1.53 0 001.975-1.459v-1.313A1.53 1.53 0 004.03 14.57z" fill="#F7B081"/>
  <g fill="#F2464F">
    <path d="M12 22.408l-.792-.725.425-1.665h.733l.425 1.665-.791.725zM4.03 22.407l-.792-.724.425-1.665h.734l.425 1.665-.792.724z"/>
  </g>
  <g fill="#D3333C">
    <path d="M12.366 20.018h-.733l-.41-.977c.25-.066.511-.104.776-.107.265.003.526.04.777.107l-.41.977zM4.396 20.018h-.733l-.41-.977c.251-.066.512-.104.777-.107.264.003.525.04.776.107l-.41.977zM20.337 20.018h-.734l-.41-.977c.251-.066.512-.104.777-.107.265.003.526.04.777.107l-.41.977zM12.307 6.783h-.786l-.44-1.034c.27-.072.549-.112.833-.116.284.004.564.044.833.116l-.44 1.034z"/>
  </g>
  <g fill="#F2464F">
    <path d="M19.97 22.407l-.791-.724.425-1.665h.733l.425 1.665-.792.724zM11.915 9.359l-.85-.777.456-1.8h.787l.456 1.8-.85.777z"/>
  </g>
  <path d="M13.212 18.826c.398-.34.65-.845.65-1.408v-1.33a1.856 1.856 0 00-1.854-1.854h-.017a1.856 1.856 0 00-1.854 1.854v1.33c0 .563.253 1.068.65 1.408-1.337.503-2.317 1.77-2.317 3.195v1.026c0 .186.15.336.336.336h6.387c.186 0 .337-.15.337-.336V22.02c0-1.425-.98-2.692-2.318-3.195zm-2.402-2.093c1.08-.134 1.483-.88 1.483-.88s.254.666.897.852v.713c0 .637-.506 1.157-1.137 1.18H11.946a1.183 1.183 0 01-1.136-1.18v-.685zm1.084 3.621h.211l.31 1.217-.415.38-.416-.38.31-1.217zm.249-.672h-.286l-.164-.39.021-.003.077-.007c.022-.002.043-.005.065-.006l.103-.004h.081c.035 0 .07.002.104.004l.064.006.077.007.021.003-.163.39zm-3 2.34c0-.714.305-1.397.86-1.924.297-.283.651-.5 1.03-.642l.246.588-.397 1.555c-.03.12.008.248.099.332l.792.724a.339.339 0 00.081.055H9.142v-.689zm5.714.688h-2.712a.334.334 0 00.082-.055l.791-.724a.336.336 0 00.1-.332l-.398-1.555.247-.588c.378.141.732.36 1.03.642.555.527.86 1.21.86 1.923v.69zM5.239 18.825c.4-.342.654-.85.654-1.415v-1.314a1.865 1.865 0 00-1.863-1.862 1.865 1.865 0 00-1.863 1.862v1.314c0 .566.254 1.073.654 1.415C1.482 19.326.5 20.595.5 22.021v1.026c0 .186.15.336.336.336H2.02a.336.336 0 000-.673h-.847v-.689c0-.713.305-1.396.86-1.923.298-.283.651-.5 1.03-.642l.247.588-.398 1.555c-.03.12.008.248.1.332l.79.724a.337.337 0 00.082.055h-.742a.336.336 0 100 .673h4.082c.185 0 .336-.15.336-.336V22.02c0-1.427-.982-2.695-2.321-3.196zM2.84 16.733c1.08-.134 1.484-.88 1.484-.88s.253.666.896.852v.705c0 .64-.507 1.162-1.14 1.189l-.045-.002h-.01l-.045.002a1.191 1.191 0 01-1.14-1.19v-.676zm.905 2.556l.077-.007.064-.006.106-.005.038.001h.038a2.9 2.9 0 01.106.004l.064.006.077.007.021.003-.163.39h-.286l-.163-.39c.007 0 .014-.002.02-.003zm-.131 2.282l.31-1.217h.211l.311 1.217-.416.38-.416-.38zm3.273 1.14H4.175a.334.334 0 00.082-.056l.792-.724a.336.336 0 00.099-.332l-.398-1.555.247-.588c.379.141.732.36 1.03.642.555.527.86 1.21.86 1.923v.69zM21.18 18.825c.4-.342.653-.85.653-1.415v-1.314a1.865 1.865 0 00-1.862-1.862 1.865 1.865 0 00-1.863 1.862v1.314c0 .566.254 1.073.653 1.415-1.338.501-2.32 1.77-2.32 3.196v1.026c0 .186.15.336.336.336h1.53a.336.336 0 100-.673h-1.194v-.689c0-.713.306-1.396.86-1.923.298-.283.652-.5 1.03-.642l.247.588-.397 1.555c-.03.12.007.248.099.332l.791.724a.336.336 0 00.082.055h-.396a.336.336 0 000 .673h3.735c.186 0 .336-.15.336-.336V22.02c0-1.427-.982-2.695-2.32-3.196zm-2.4-2.092c1.08-.134 1.483-.88 1.483-.88s.254.667.897.852v.705c0 .64-.507 1.162-1.14 1.189l-.045-.002h-.01l-.044.002a1.191 1.191 0 01-1.14-1.19v-.676zm.905 2.556l.077-.007c.021-.002.043-.005.065-.006l.106-.005.038.001h.037c.036 0 .07.002.106.004l.065.006.077.007.02.003-.163.39h-.285l-.164-.39.021-.003zm-.13 2.282l.31-1.217h.21l.312 1.217-.416.38-.416-.38zm3.273 1.14h-2.712a.332.332 0 00.082-.056l.791-.724a.336.336 0 00.1-.332l-.398-1.555.247-.588c.378.141.732.36 1.03.642.554.527.86 1.21.86 1.923v.69zM8.49 10.381h1.225a.336.336 0 000-.673h-.89v-.763c0-.772.331-1.51.931-2.08.328-.312.718-.551 1.136-.704l.276.65-.428 1.688c-.03.12.007.247.099.33l.849.778a.335.335 0 00.454 0l.849-.777a.337.337 0 00.099-.331l-.428-1.689.276-.649c.417.153.808.392 1.136.703.6.57.93 1.31.93 2.08v.764h-4.168a.336.336 0 100 .673h4.504c.186 0 .337-.15.337-.336v-1.1c0-1.535-1.066-2.896-2.513-3.42A1.97 1.97 0 0013.888 4V2.59A1.976 1.976 0 0011.915.617 1.976 1.976 0 009.942 2.59V4c0 .614.282 1.164.724 1.526-1.447.524-2.513 1.885-2.513 3.42v1.1c0 .185.15.336.337.336zm3.425-1.478l-.474-.434.342-1.35h.263l.343 1.35-.474.434zm.17-2.456h-.34l-.192-.45.066-.008h.002a3.02 3.02 0 01.138-.013l.02-.001.094-.004.042.001.042-.001c.031 0 .062.002.093.004h.02l.139.013h.001l.066.01-.19.449zm-1.47-3.17c1.175-.136 1.614-.948 1.614-.948s.278.734.987.923v.747c0 .7-.555 1.271-1.248 1.3l-.049-.002h-.009l-.049.001a1.302 1.302 0 01-1.247-1.3v-.721zM4.03 13.764c.185 0 .336-.15.336-.337v-.845h7.212v.845a.336.336 0 00.673 0v-.845h7.383v.845a.336.336 0 10.672 0v-1.18a.336.336 0 00-.336-.337h-7.72v-.893a.336.336 0 10-.672 0v.893H4.03a.336.336 0 00-.337.336v1.181c0 .186.15.337.337.337z" fill="#000"/>
</svg>
