<svg width="24" height="24" fill="none" xmlns="http://www.w3.org/2000/svg">
  <defs/>
  <path d="M4.934 5.947A9.291 9.291 0 002.687 12c0 5.127 4.171 9.298 9.298 9.298s9.298-4.171 9.298-9.298-4.17-9.298-9.298-9.298a9.291 9.291 0 00-6.052 2.246.367.367 0 01-.506-.026 9.77 9.77 0 00-.52.52.367.367 0 01.027.505zm6.7-1.033v-1.11a.367.367 0 01.733 0v1.11a7.09 7.09 0 013.031.858c.178.098.243.32.146.498l-.006.01c.249.153.486.323.712.507l1.024-.56a.367.367 0 01.498.499l-.56 1.024c.185.226.355.464.509.712l.009-.006a.367.367 0 01.498.146c.51.93.802 1.97.858 3.031h1.111a.367.367 0 110 .734h-1.11a7.106 7.106 0 01-6.72 6.72v1.11a.367.367 0 11-.734 0v-1.112a7.09 7.09 0 01-3.03-.857.367.367 0 01-.146-.498l.005-.01a6.758 6.758 0 01-.712-.507l-1.024.56a.366.366 0 01-.498-.499l.56-1.024a6.765 6.765 0 01-.509-.712l-.008.005a.365.365 0 01-.499-.145 7.091 7.091 0 01-.857-3.031H3.803a.367.367 0 110-.734h1.11a7.106 7.106 0 016.72-6.72z" fill="#fff"/>
  <path d="M15.046 6.416A6.357 6.357 0 0012 5.638 6.369 6.369 0 005.64 12c0 1.063.269 2.116.777 3.045a.367.367 0 01-.137.493c.155.249.324.486.509.712l3.287-6.02.001-.003.002-.003.002-.003a.377.377 0 01.096-.112l.01-.007a.348.348 0 01.035-.022l.003-.002.004-.003 6.022-3.288a6.754 6.754 0 00-.711-.508.367.367 0 01-.493.137zM13.924 13.772l-.002.004-.002.004a.362.362 0 01-.023.035l-.006.009a.373.373 0 01-.067.067l-.01.007a.365.365 0 01-.034.022l-.004.002-.004.003-6.022 3.288c.226.184.463.354.712.508.1-.171.318-.233.492-.137a6.356 6.356 0 003.046.778A6.369 6.369 0 0018.36 12a6.356 6.356 0 00-.777-3.045.367.367 0 01.137-.493 6.78 6.78 0 00-.509-.712l-3.288 6.022z" fill="#F2EBD9"/>
  <path d="M12.995 13.513l-2.508-2.507-3.015 5.523 5.522-3.016z" fill="#98D9D5"/>
  <path d="M13.513 12.994l3.016-5.523-5.523 3.016 2.507 2.507z" fill="#F2484B"/>
  <path d="M12 1.234C6.064 1.234 1.234 6.064 1.234 12S6.064 22.766 12 22.766c5.937 0 10.766-4.83 10.766-10.766S17.936 1.234 12 1.234zm-.014 20.798c-5.532 0-10.032-4.5-10.032-10.032 0-2.394.86-4.713 2.423-6.531a.367.367 0 01.518-.04l.013.013c.166-.18.34-.353.52-.52l-.013-.013a.367.367 0 01.04-.517 10.025 10.025 0 016.53-2.424c5.532 0 10.032 4.5 10.032 10.032s-4.5 10.032-10.031 10.032z" fill="#F2484B"/>
  <path d="M20.132 3.868A11.425 11.425 0 0012 .5C8.928.5 6.04 1.696 3.868 3.868A11.425 11.425 0 00.5 12c0 3.072 1.196 5.96 3.368 8.132A11.425 11.425 0 0012 23.5c3.072 0 5.96-1.196 8.132-3.368A11.425 11.425 0 0023.5 12c0-3.072-1.196-5.96-3.368-8.132zM12 22.766c-5.936 0-10.766-4.83-10.766-10.766S6.064 1.234 12 1.234 22.766 6.064 22.766 12 17.936 22.766 12 22.766z" fill="#082947"/>
  <path d="M11.985 1.968c-2.394 0-4.713.86-6.531 2.424a.367.367 0 00-.04.517l.013.013a.367.367 0 00.505.026 9.29 9.29 0 016.053-2.246c5.127 0 9.298 4.171 9.298 9.298s-4.171 9.298-9.298 9.298S2.687 17.127 2.687 12c0-2.218.798-4.368 2.246-6.053a.367.367 0 00-.026-.505l-.013-.012a.367.367 0 00-.517.039A10.026 10.026 0 001.953 12c0 5.532 4.5 10.032 10.032 10.032S22.017 17.532 22.017 12s-4.5-10.032-10.032-10.032z" fill="#082947"/>
  <path d="M17.584 8.955c.509.929.778 1.982.778 3.045A6.369 6.369 0 0112 18.362a6.357 6.357 0 01-3.045-.778.367.367 0 00-.493.137l-.006.009a.367.367 0 00.146.498c.93.509 1.97.802 3.03.857v1.112a.367.367 0 10.735 0v-1.11a7.106 7.106 0 006.72-6.72h1.11a.367.367 0 100-.734h-1.112a7.092 7.092 0 00-.857-3.031.367.367 0 00-.498-.146l-.01.006a.367.367 0 00-.136.493z" fill="#082947"/>
  <path d="M10.227 10.075l-.004.003-.003.002a.348.348 0 00-.035.022l-.01.007a.375.375 0 00-.066.067l-.007.009a.384.384 0 00-.023.035l-.002.004-.002.003-.001.003-3.287 6.02-.56 1.024a.367.367 0 00.499.498l1.024-.56 6.02-3.287.006-.003.003-.002a.353.353 0 00.036-.022l.009-.007a.37.37 0 00.096-.111l.002-.004.002-.004 3.288-6.022.56-1.024a.367.367 0 00-.498-.498l-1.025.56-6.022 3.287zm2.767 3.438L7.47 16.53l3.015-5.523 2.508 2.507zm.519-.519l-2.508-2.507 5.523-3.016-3.015 5.523z" fill="#082947"/>
  <path d="M3.804 11.633a.367.367 0 100 .734h1.111a7.091 7.091 0 00.858 3.03.367.367 0 00.498.147l.008-.006a.367.367 0 00.137-.493A6.357 6.357 0 015.64 12 6.369 6.369 0 0112 5.638c1.064 0 2.117.27 3.046.778a.367.367 0 00.493-.137l.005-.009a.367.367 0 00-.146-.498 7.09 7.09 0 00-3.03-.857V3.803a.367.367 0 10-.735 0v1.11a7.106 7.106 0 00-6.719 6.72h-1.11z" fill="#082947"/>
</svg>
