<svg width="24" height="24" fill="none" xmlns="http://www.w3.org/2000/svg">
  <defs/>
  <path d="M2.403 2.144C1.875 3.4 1.384 4.666.85 5.922c-.057.135.079.283.23.251.49-.104.93-.227 1.417-.344a.202.202 0 01.214.085c.274.42.504.824.788 1.236.088.128.288.113.34-.025.446-1.205.935-2.4 1.388-3.605a30.725 30.725 0 01-2.824-1.376z" fill="#F43B45"/>
  <path d="M3.163 2.55c-.448 1.15-.9 2.297-1.34 3.448.22-.056.442-.113.674-.169a.202.202 0 01.214.085c.273.42.503.824.788 1.236.087.128.288.113.339-.025.447-1.205.936-2.4 1.388-3.605a32.034 32.034 0 01-2.063-.97z" fill="#D82B2B"/>
  <path d="M7.56 4.428C7.184 5.63 6.848 6.84 6.468 8.04c-.044.14.104.275.252.228.477-.15.903-.32 1.376-.483a.201.201 0 01.22.064c.312.391.58.767.901 1.15.1.118.297.085.335-.058.318-1.198.678-2.386 1.002-3.583a42.755 42.755 0 01-2.996-.931z" fill="#F43B45"/>
  <path d="M8.383 4.708a375.97 375.97 0 00-.934 3.31c.212-.077.425-.155.647-.232a.201.201 0 01.221.064c.312.391.58.767.9 1.15.1.118.298.084.336-.058.317-1.198.678-2.386 1.002-3.583a43.289 43.289 0 01-2.171-.651z" fill="#D82B2B"/>
  <path d="M13.227 5.997c-.26 1.237-.48 2.484-.745 3.72-.03.144.13.264.273.203.46-.196.869-.41 1.324-.617a.201.201 0 01.225.043c.348.36.651.703 1.008 1.054.11.108.304.056.328-.09.21-1.266.463-2.523.677-3.789a42.67 42.67 0 01-3.09-.524z" fill="#F43B45"/>
  <path d="M14.043 6.158c-.208 1.155-.426 2.307-.632 3.462.22-.105.438-.212.668-.317a.201.201 0 01.225.043c.348.36.651.703 1.008 1.054.11.108.304.056.328-.09.21-1.266.463-2.523.677-3.789a42.182 42.182 0 01-2.274-.363z" fill="#D82B2B"/>
  <path d="M18.939 19.747l.834.418c.04.02.088.013.12-.018l.673-.647a.105.105 0 01.177.091l-.14.923a.105.105 0 00.054.108l.823.44a.105.105 0 01-.032.197l-.92.152a.105.105 0 00-.087.085l-.164.919a.105.105 0 01-.197.03l-.429-.829a.105.105 0 00-.108-.055l-.924.128a.105.105 0 01-.09-.178l.656-.665a.105.105 0 00.02-.12l-.408-.839a.105.105 0 01.142-.14z" fill="#75CFF2"/>
  <path d="M18.408 2.725l.922-.14a.105.105 0 00.088-.085l.175-.916a.105.105 0 01.198-.028l.418.834c.02.04.063.063.108.058l.925-.116c.1-.013.159.108.087.179l-.663.656a.105.105 0 00-.022.119l.397.845a.105.105 0 01-.144.138l-.829-.429a.105.105 0 00-.12.017l-.68.638a.105.105 0 01-.177-.094l.152-.92a.105.105 0 00-.053-.11l-.817-.45a.105.105 0 01.035-.196z" fill="#F2CA20"/>
  <path d="M2.326 11.621l.93.075a.105.105 0 00.104-.062l.382-.851a.105.105 0 01.198.018l.216.908c.01.043.047.075.091.08l.928.1c.1.01.13.142.044.194l-.797.486a.105.105 0 00-.048.111l.192.914a.105.105 0 01-.171.101l-.709-.607a.105.105 0 00-.12-.012l-.81.465a.105.105 0 01-.15-.132l.36-.86a.105.105 0 00-.027-.12l-.692-.625a.105.105 0 01.079-.183z" fill="#A4D852"/>
  <path d="M22.692 12.657a29.384 29.384 0 01-3.986 1.933l.058.058a68.647 68.647 0 003.446 3.216c.229.2.586.04.59-.263a70.008 70.008 0 00-.1-4.813l-.008-.131zM13.2 16.34l.038.049a69.316 69.316 0 002.977 3.643c.2.228.576.117.62-.183a69.71 69.71 0 00.523-4.673l.006-.079A42.26 42.26 0 0113.2 16.34zM7.51 17.34l.022.037a69.74 69.74 0 002.466 4.003.356.356 0 00.64-.1 69.28 69.28 0 001.138-4.564l.012-.056c-1.467.309-2.901.534-4.277.68z" fill="#FF9C43"/>
  <g>
    <path d="M1.669 17.46l.014.035a69.955 69.955 0 001.962 4.396.356.356 0 00.646-.013 68.63 68.63 0 001.745-4.38l.012-.032c-1.568.105-3.042.1-4.38-.006z" fill="#FF9C43"/>
  </g>
  <path d="M18.811 6.767c-.158 1.369-.267 2.75-.425 4.119-.017.146.155.25.291.176.44-.239.828-.495 1.262-.745a.202.202 0 01.23.02c.38.325.718.634 1.107.949.12.098.309.027.319-.12.1-1.454.248-2.897.347-4.351-.984.038-2.033.022-3.13-.048z" fill="#F43B45"/>
  <path d="M19.655 6.81c-.102 1.291-.218 2.58-.322 3.87.199-.121.398-.243.607-.364a.202.202 0 01.229.021c.381.325.718.634 1.107.949.121.098.31.027.32-.12.098-1.454.247-2.897.346-4.351-.729.028-1.493.027-2.287-.005z" fill="#D82B2B"/>
  <g>
    <path d="M9.568 17.068l.914 4.419a.35.35 0 00.156-.206 69.28 69.28 0 001.138-4.565l.012-.056c-.75.158-1.49.293-2.22.408z" fill="#EF8229"/>
  </g>
  <path d="M3.74 17.542v4.47c.172.14.45.093.55-.134a68.645 68.645 0 001.745-4.38l.012-.032c-.795.053-1.566.078-2.307.076zM15.144 15.817l1.659 4.136a.36.36 0 00.032-.104c.226-1.547.402-3.12.523-4.673l.006-.079c-.714.255-1.456.495-2.22.72zM22.73 17.808a.35.35 0 00.07-.207 69.946 69.946 0 00-.1-4.813l-.008-.131c-.625.368-1.3.727-2.022 1.072l2.06 4.079z" fill="#EF8229"/>
  <g fill="#000">
    <path d="M23.499 6.708a.337.337 0 00-.366-.306c-3.22.288-7.192-.08-11.185-1.035C7.955 4.41 4.247 2.94 1.506 1.224a.337.337 0 00-.357.572c.267.167.543.332.828.494-.207.497-.41.999-.607 1.486A128.22 128.22 0 01.54 5.79a.511.511 0 00.08.527.54.54 0 00.53.186c.32-.068.623-.145.916-.22.135-.034.274-.069.416-.103.09.142.179.284.264.422.15.241.303.49.475.74a.538.538 0 00.513.229.512.512 0 00.42-.329c.24-.645.495-1.3.743-1.932l.162-.416a.337.337 0 10-.627-.245l-.163.415c-.213.546-.433 1.109-.644 1.669-.104-.16-.203-.32-.305-.485-.104-.168-.212-.342-.327-.518a.538.538 0 00-.574-.228c-.178.042-.351.086-.518.128-.213.054-.417.106-.627.155.246-.587.487-1.18.72-1.756.188-.463.38-.939.576-1.41a34.409 34.409 0 004.572 2.017c-.142.465-.28.933-.415 1.388-.186.63-.379 1.28-.58 1.916a.512.512 0 00.13.517.538.538 0 00.546.133c.3-.095.584-.198.859-.298.14-.051.285-.104.432-.156.101.129.199.257.294.382.174.227.354.463.552.698a.537.537 0 00.531.18.511.511 0 00.387-.367c.169-.636.353-1.281.531-1.905.127-.443.257-.899.382-1.353a45.048 45.048 0 002.038.487c-.1.485-.195.974-.287 1.45a104.42 104.42 0 01-.39 1.939.512.512 0 00.18.502c.156.13.37.16.555.081.283-.12.55-.249.808-.373.141-.068.287-.138.435-.207.108.113.213.225.315.335.2.213.406.434.63.655a.537.537 0 00.547.128.512.512 0 00.35-.402c.109-.658.232-1.325.351-1.97.09-.492.184-.997.271-1.5.623.076 1.239.137 1.843.182-.063.572-.119 1.15-.174 1.712-.065.676-.133 1.374-.212 2.057a.512.512 0 00.226.483.539.539 0 00.56.028c.267-.145.517-.297.759-.444.139-.085.282-.172.427-.257l.323.28c.228.2.464.406.718.61a.538.538 0 00.557.075.512.512 0 00.31-.433c.05-.725.112-1.46.173-2.17.052-.616.106-1.25.152-1.88.319-.017.631-.038.937-.066a.337.337 0 00.306-.365zm-13.737.23c-.153.535-.31 1.085-.459 1.634a26.333 26.333 0 01-.36-.463c-.116-.153-.236-.31-.363-.47a.537.537 0 00-.594-.172c-.184.064-.362.129-.535.192-.194.07-.381.139-.573.204.17-.55.335-1.107.495-1.648.132-.445.267-.902.406-1.355.768.263 1.557.509 2.362.734-.124.45-.253.904-.38 1.345zm5.899 1.335c-.103.555-.208 1.125-.305 1.693-.142-.145-.277-.29-.419-.441a34.136 34.136 0 00-.39-.414.537.537 0 00-.608-.115c-.185.085-.364.17-.536.254-.18.086-.353.17-.53.25.116-.556.225-1.118.33-1.664.092-.473.187-.96.286-1.442.819.163 1.633.3 2.437.413-.086.492-.177.986-.265 1.466zm5.771.688c-.053.62-.107 1.256-.153 1.89a32.717 32.717 0 01-.49-.42c-.129-.114-.263-.231-.403-.35a.538.538 0 00-.615-.056c-.182.104-.357.21-.525.313-.167.102-.328.2-.493.295.066-.595.124-1.195.181-1.778.055-.57.112-1.155.176-1.734a32.185 32.185 0 002.469.042 153.58 153.58 0 01-.147 1.798zM22.736 12.238c-2.75 1.667-6.462 3.076-10.449 3.97-3.987.892-7.944 1.2-11.144.866a.337.337 0 10-.07.67c.12.013.24.024.361.035a70.311 70.311 0 001.907 4.26.686.686 0 00.637.389.686.686 0 00.62-.415 69.032 69.032 0 001.692-4.227c.342-.025.688-.055 1.036-.09a70.125 70.125 0 002.391 3.87.685.685 0 00.684.302.686.686 0 00.56-.495c.417-1.459.79-2.948 1.11-4.428a43.853 43.853 0 00.995-.227 69.747 69.747 0 002.895 3.535.686.686 0 00.717.209.686.686 0 00.49-.561v-.004c.22-1.508.394-3.04.515-4.557 1.72-.625 3.311-1.34 4.701-2.118.072 1.448.098 2.917.079 4.374 0 .007 0 .012-.012.017-.01.006-.015.002-.02-.003a68.431 68.431 0 01-2.55-2.337.337.337 0 00-.468.485 69.27 69.27 0 002.575 2.36.688.688 0 00.738.11.686.686 0 00.41-.623 70.298 70.298 0 00-.097-4.763l.046-.028a.337.337 0 10-.349-.576zM3.982 21.743c-.003.006-.005.01-.017.011-.013 0-.015-.005-.018-.01a69.74 69.74 0 01-1.762-3.91c.527.03 1.07.045 1.626.045.569 0 1.151-.016 1.745-.047a68.403 68.403 0 01-1.574 3.91zm6.331-.555c-.002.006-.003.012-.015.014s-.015-.003-.02-.009a69.535 69.535 0 01-2.22-3.577 43.086 43.086 0 003.29-.522 69.049 69.049 0 01-1.035 4.094zm6.188-1.39v.002c0 .006-.002.012-.013.015-.012.004-.016 0-.02-.005a68.97 68.97 0 01-2.688-3.268 42.79 42.79 0 003.207-.957 69.378 69.378 0 01-.485 4.212z"/>
    <path d="M21.639 20.765l-.679-.363.115-.76a.442.442 0 00-.743-.385l-.555.533-.688-.344a.442.442 0 00-.595.588l.336.692-.54.548a.442.442 0 00.375.748l.762-.105.354.683a.442.442 0 00.828-.126l.135-.757.759-.126a.442.442 0 00.136-.826zm-1.167.314a.443.443 0 00-.363.358l-.044.247-.115-.223a.443.443 0 00-.453-.234l-.249.034.176-.178a.443.443 0 00.083-.504l-.11-.225.225.112c.167.084.37.053.504-.076l.181-.174-.037.247a.443.443 0 00.228.457l.221.118-.247.04zM18.21 3.216l.674.371-.125.76a.442.442 0 00.738.394l.562-.526.683.353a.442.442 0 00.604-.58l-.327-.697.547-.54a.442.442 0 00-.366-.754l-.763.096-.345-.688a.441.441 0 00-.83.115l-.144.756-.76.116a.442.442 0 00-.148.824zm1.17-.299a.443.443 0 00.369-.353l.047-.246.112.224a.442.442 0 00.45.24l.249-.031-.178.176a.443.443 0 00-.09.502l.107.227-.223-.115a.442.442 0 00-.505.07l-.183.171.04-.247a.443.443 0 00-.222-.459l-.22-.12.248-.039zM5.595 11.896a.442.442 0 00-.384-.342l-.765-.082-.179-.749a.442.442 0 00-.833-.078l-.314.702-.767-.062a.442.442 0 00-.332.769l.57.516-.295.71a.442.442 0 00.628.553l.667-.383.584.5a.441.441 0 00.72-.426l-.158-.753.657-.4a.442.442 0 00.2-.475zm-1.349.385a.443.443 0 00-.202.469l.052.245-.19-.163a.442.442 0 00-.509-.048l-.217.125.096-.231a.443.443 0 00-.111-.498l-.186-.168.25.02a.444.444 0 00.439-.26l.102-.229.058.244a.443.443 0 00.383.337l.25.027-.215.13z"/>
  </g>
</svg>
