<svg width="24" height="24" fill="none" xmlns="http://www.w3.org/2000/svg">
  <defs/>
  <path d="M6.154 21.138a8.27 8.27 0 001.943-5.345A8.268 8.268 0 004.782 9.15v13.284a8.343 8.343 0 001.314-1.23.369.369 0 01.058-.067zM19.218 22.435V9.15a8.268 8.268 0 00-3.315 6.642 8.27 8.27 0 001.959 5.363c.022.02.041.042.058.067.384.444.818.851 1.298 1.212z" fill="#F2484B"/>
  <path d="M15.17 15.793a9.004 9.004 0 014.046-7.539 7.221 7.221 0 00-3.423-5.94 7.22 7.22 0 00-3.425 6.138.367.367 0 11-.735 0 7.22 7.22 0 00-3.425-6.139 7.221 7.221 0 00-3.423 5.941 9.003 9.003 0 014.046 7.539c0 2.03-.667 3.949-1.861 5.502l1.285.685 1.1-.602a.365.365 0 01.119-.065l.454-.249c.109-.06.24-.06.35-.002l1.723.92 1.724-.92a.366.366 0 01.345 0l.52.277 1.203.643 1.252-.668a9.003 9.003 0 01-1.876-5.521zM8.161 8.819A2.205 2.205 0 015.96 6.617c0-1.214.988-2.202 2.202-2.202s2.202.988 2.202 2.202a2.205 2.205 0 01-2.202 2.202zm4.197 9.027a.367.367 0 01-.323-.192l-.008-.018-.008-.014a.367.367 0 11.339.224zm1.468 1.468a.367.367 0 01-.323-.192l-.006-.012-.01-.02a.367.367 0 11.338.224zm-.19-12.697c0-1.214.988-2.202 2.202-2.202s2.202.988 2.202 2.202a2.205 2.205 0 01-2.202 2.202 2.205 2.205 0 01-2.202-2.202z" fill="#F2EBD9"/>
  <path d="M19.218 5.117V1.243a7.167 7.167 0 00-2.695.673 8.004 8.004 0 012.695 3.201zM4.782 5.117a8.004 8.004 0 012.694-3.2 7.167 7.167 0 00-2.694-.674v3.874zM8.94 1.916A7.986 7.986 0 0112 6.062a7.987 7.987 0 013.06-4.146A7.176 7.176 0 0012 1.234c-1.094 0-2.13.245-3.06.682z" fill="#F2484B"/>
  <path d="M8.161 5.149a1.47 1.47 0 00-1.468 1.468c0 .81.659 1.468 1.468 1.468A1.47 1.47 0 009.63 6.617 1.47 1.47 0 008.16 5.149zm0 1.835a.367.367 0 110-.734.367.367 0 010 .734zM15.838 8.085a1.47 1.47 0 001.468-1.468 1.47 1.47 0 00-1.468-1.468 1.47 1.47 0 00-1.468 1.468c0 .81.659 1.468 1.468 1.468zm0-1.835a.367.367 0 110 .734.367.367 0 010-.734z" fill="#FFCC75"/>
  <path d="M8.161 4.415A2.205 2.205 0 005.96 6.617c0 1.214.988 2.202 2.202 2.202a2.205 2.205 0 002.202-2.202 2.205 2.205 0 00-2.202-2.202zm0 3.67a1.47 1.47 0 01-1.468-1.468c0-.81.659-1.468 1.468-1.468.81 0 1.468.659 1.468 1.468a1.47 1.47 0 01-1.468 1.468z" fill="#082947"/>
  <path d="M8.162 6.984a.367.367 0 100-.734.367.367 0 000 .734zM18.041 6.617a2.205 2.205 0 00-2.202-2.202 2.205 2.205 0 00-2.202 2.202c0 1.214.988 2.202 2.202 2.202a2.205 2.205 0 002.202-2.202zm-3.67 0c0-.81.658-1.468 1.468-1.468.81 0 1.468.659 1.468 1.468a1.47 1.47 0 01-1.468 1.468 1.47 1.47 0 01-1.468-1.468z" fill="#082947"/>
  <path d="M15.839 6.984a.367.367 0 100-.734.367.367 0 000 .734z" fill="#082947"/>
  <path d="M19.585.5c-1.372 0-2.664.35-3.792.964A7.904 7.904 0 0012 .5c-1.372 0-2.665.35-3.793.964A7.903 7.903 0 004.415.5a.367.367 0 00-.367.367v22.266a.367.367 0 00.563.31 9.13 9.13 0 001.85-1.544v1.234a.367.367 0 10.735 0v-.886l.645.345v.541a.367.367 0 10.734 0v-.491l.645-.353v.844a.367.367 0 10.734 0v-1.246l.152-.084 1.722.918a.367.367 0 00.345 0l1.724-.919.15.08v1.251a.367.367 0 10.734 0v-.86l.645.345v.515a.367.367 0 10.734 0v-.515l.645-.344v.859a.367.367 0 10.734 0v-1.234a9.131 9.131 0 001.85 1.544.367.367 0 00.563-.31V8.458.867A.367.367 0 0019.585.5zm-3.792 21.482l-1.204-.643-.52-.277a.367.367 0 00-.345 0l-1.723.92-1.724-.92a.367.367 0 00-.35.002l-.454.25a.366.366 0 00-.12.064l-1.098.602-1.285-.685a9.003 9.003 0 001.861-5.503 9.003 9.003 0 00-4.046-7.538 7.221 7.221 0 013.423-5.94 7.22 7.22 0 013.425 6.138.367.367 0 10.734 0 7.22 7.22 0 013.425-6.139 7.221 7.221 0 013.423 5.941 9.003 9.003 0 00-4.046 7.539c0 2.038.673 3.964 1.876 5.52l-1.252.669zM12 6.062a7.986 7.986 0 00-3.06-4.146A7.175 7.175 0 0112 1.234c1.094 0 2.13.245 3.06.682A7.987 7.987 0 0012 6.062zm-7.218-.945V1.243a7.166 7.166 0 012.694.673 8.004 8.004 0 00-2.694 3.201zm0 17.317V9.152a8.268 8.268 0 013.315 6.642c0 1.993-.7 3.87-1.943 5.345a.367.367 0 00-.058.067 8.342 8.342 0 01-1.314 1.23zm13.138-1.21a.362.362 0 00-.058-.068 8.27 8.27 0 01-1.959-5.363 8.268 8.268 0 013.315-6.642v13.284a8.351 8.351 0 01-1.298-1.212zm1.298-16.107a8.004 8.004 0 00-2.694-3.2 7.167 7.167 0 012.694-.674v3.874z" fill="#082947"/>
  <path d="M12.358 17.846a.367.367 0 10-.338-.224l.007.014.009.018a.367.367 0 00.322.192zM13.826 19.314a.367.367 0 10-.338-.224l.01.02.005.012a.367.367 0 00.323.192z" fill="#082947"/>
</svg>
