<svg width="24" height="24" fill="none" xmlns="http://www.w3.org/2000/svg">
  <defs>
    <path d="M16.727 15.704c-.256-2.335-2.237-4.424-4.988-5.005-3.323-.703-6.51 1.062-7.118 3.94a4.66 4.66 0 00-.1.863 6.072 6.072 0 002.8 1.556c4.266 1.07 7.339.268 9.406-1.354z" fill="#DEECF1" id="reuse-0"/>
  </defs>
  <path d="M7.32 17.058a6.07 6.07 0 01-2.808-1.565c-.563-.559-1.069-1.291-1.193-2.18-.258-1.84.558-4.797 5.155-5.083 4.598-.287 3.627-2.375 6.4-3.72 2.774-1.343 4.398.603 4.692 1.167 2.007 3.837-.904 14.227-12.246 11.381z" fill="#FFF9F0"/>
  <path d="M19.566 5.677c-.25-.48-1.464-1.96-3.53-1.563 1.249.26 1.992 1.2 2.182 1.563 1.722 3.293-.177 11.41-7.917 11.85 8.865.48 11.083-8.374 9.265-11.85z" fill="#FAE8DB"/>
  <use xlink:href="#reuse-0"/>
  <use xlink:href="#reuse-0"/>
  <path d="M11.739 10.699a6.991 6.991 0 00-2.135-.121c.261.025.524.065.787.12 2.75.582 4.732 2.671 4.988 5.007-1.287 1.01-2.965 1.702-5.078 1.821 2.76.15 4.876-.605 6.426-1.821-.256-2.336-2.238-4.425-4.988-5.006z" fill="#A8D3D8"/>
  <path d="M9.007 13.803a1.85 1.85 0 100-3.699 1.85 1.85 0 000 3.699z" fill="#FFF9F0"/>
  <path d="M9.007 13.75a1.85 1.85 0 100-3.7 1.85 1.85 0 000 3.7z" fill="#FFF9F0"/>
  <path d="M9.39 10.091a1.84 1.84 0 00-1.124.116 1.849 1.849 0 01.136 3.44 1.85 1.85 0 10.988-3.556z" fill="#FAE8DB"/>
  <path d="M19.566 5.677a1.643 1.643 0 00-.074-.127c.4 4.553-3.144 11.73-12.803 9.307a6.07 6.07 0 01-2.808-1.565 5.002 5.002 0 01-.603-.718c-.007.26.008.508.04.74.125.888.631 1.62 1.194 2.18a6.071 6.071 0 002.808 1.564c11.342 2.846 14.253-7.544 12.246-11.381z" fill="#7CA1B1"/>
  <path d="M18.609 19.954H5.392c-.75 0-1.357-.608-1.357-1.358v-1.508h15.93v1.508c0 .75-.607 1.358-1.356 1.358z" fill="#FFF9F0"/>
  <path d="M18.618 17.088v1.508c0 .75-.608 1.358-1.357 1.358h1.347c.75 0 1.358-.608 1.358-1.358v-1.508h-1.348z" fill="#FAE8DB"/>
  <path d="M22.231 18.418H1.77a.932.932 0 010-1.864H22.23a.932.932 0 010 1.864z" fill="#A8D3D8"/>
  <path d="M22.231 16.554h-1.347a.932.932 0 010 1.864h1.347a.932.932 0 000-1.864z" fill="#8EBAC5"/>
  <path d="M22.204 16.217h-5.602c1.65-1.17 2.872-2.922 3.485-5.018.608-2.078.523-4.254-.222-5.678-.412-.787-2.239-2.718-5.137-1.313-.945.457-1.491 1.007-1.94 1.534a.345.345 0 00.025.48.335.335 0 00.481-.034c.375-.441.848-.948 1.728-1.374 1.087-.527 2.09-.572 2.98-.133.351.173.635.398.846.61.208.21.328.492.335.787a9.273 9.273 0 01-.586 3.371c-.528 1.422-1.378 2.662-2.458 3.584l-.074.06c-.962-1.364-2.505-2.354-4.257-2.724a7.45 7.45 0 00-1.369-.16h-.008a.336.336 0 00-.09.013 2.18 2.18 0 00-2.333-.213c-.437.227-.773.58-.975 1.007a.36.36 0 00-.038.017c-1.069.593-1.878 1.447-2.352 2.477a5.419 5.419 0 01-.856-.82.658.658 0 01-.143-.498c.152-1.248.983-3.385 4.851-3.626 2.34-.146 3.292-.772 3.912-1.368a.345.345 0 00.044-.453.337.337 0 00-.504-.04c-.557.54-1.366 1.056-3.494 1.189-1.903.118-3.354.689-4.312 1.696-.743.78-1.17 1.837-1.2 2.975V12.574c-.006.265.008.53.044.786.118.84.552 1.64 1.29 2.373.173.172.358.333.552.484H1.796c-.69 0-1.275.54-1.295 1.23a1.27 1.27 0 001.268 1.308h1.936c.08.86.806 1.536 1.687 1.536h13.216c.88 0 1.607-.676 1.687-1.536h1.936c.713 0 1.29-.59 1.268-1.307-.02-.69-.604-1.23-1.295-1.23zm-14.021-5.53a1.502 1.502 0 011.137-.213c.816.172 1.34.976 1.167 1.792a1.514 1.514 0 01-2.747.513 1.503 1.503 0 01-.212-1.138c.084-.395.316-.734.655-.955zm-1.362 1.25a2.17 2.17 0 00.355 1.21 2.171 2.171 0 001.832.993 2.19 2.19 0 002.139-1.735 2.176 2.176 0 00-.218-1.49c.248.024.495.062.74.113 1.595.338 2.996 1.237 3.86 2.474-2.233 1.553-5.24 1.91-8.758 1.028a5.905 5.905 0 01-1.561-.638 4.642 4.642 0 011.611-1.955zm-.848 4.233a5.536 5.536 0 01-1.224-.916c-.526-.523-.87-1.075-1.026-1.646a6.418 6.418 0 002.884 1.575c1.11.278 2.4.493 3.748.493 2.1 0 4.334-.52 6.221-2.131 1.168-.996 2.085-2.332 2.653-3.862.256-.69.437-1.414.538-2.133.128 1.056.021 2.27-.326 3.46-.652 2.23-2.042 4.037-3.913 5.092a.335.335 0 00-.12.115h-9.37a.338.338 0 00-.065-.047zm16.258 1.91h-9.806a.337.337 0 100 .675h7.191c-.076.487-.5.862-1.008.862H5.392c-.509 0-.932-.375-1.008-.863h6.694a.337.337 0 100-.673h-9.31a.596.596 0 010-1.19h20.463a.596.596 0 010 1.19zM7.62 7.049a.337.337 0 00.353-.32l.035-.706a.337.337 0 10-.673-.034l-.035.706a.337.337 0 00.32.354zM6.299 7.292a.336.336 0 10.516-.433l-.454-.542a.337.337 0 00-.517.433l.455.542z" fill="#000"/>
</svg>
