<svg width="24" height="24" fill="none" xmlns="http://www.w3.org/2000/svg">
  <defs/>
  <path d="M21.887 14.193a1.696 1.696 0 01-1.566 1.513 86.325 86.325 0 01-12.411 0 1.697 1.697 0 01-1.566-1.513 44.494 44.494 0 010-9.38A1.698 1.698 0 017.91 3.302a86.036 86.036 0 0112.412 0c.818.059 1.48.696 1.565 1.513.33 3.126.33 6.252 0 9.379z" fill="#E27D47"/>
  <path d="M16.451 3.11v5L14.116 6.57 11.78 8.111V3.109a86.138 86.138 0 014.671 0z" fill="#EEEBEE"/>
  <path d="M22.616 14.605l-5.864 4.703c-.482.387-1.1.563-1.714.488l-7.902-.962-2.106.78c-1.13-1.164-.666-4.907-.666-4.907l.502-.137a1.902 1.902 0 011.062-1.832l3.389-1.655 1.743-.85a1.657 1.657 0 011.578 2.909L9.82 14.828l4.74.826c.571.099 1.158-.021 1.644-.337l4.715-3.06a1.45 1.45 0 011.697 2.347z" fill="#F1D0A5"/>
  <path d="M15.025 18.533c-3.246.422-5.484-1.482-6.838-3.273a1.909 1.909 0 01.492-2.76c3.27-2.095 4.115-2.018 4.563-1.57a1.656 1.656 0 00-2.182-.698l-1.743.851-2.747 1.342-.642.313a1.9 1.9 0 00-1.062 1.832l-.502.137s-.465 3.743.666 4.906l2.106-.779 7.902.962a2.295 2.295 0 001.714-.488l5.863-4.703c-2.026-.55-5.403 3.593-7.59 3.928z" fill="#F1B986"/>
  <path d="M3.663 14.236a6.83 6.83 0 00-2.822.997 55.326 55.326 0 002.01 5.689 6.832 6.832 0 002.822-.997 55.317 55.317 0 00-2.01-5.689z" fill="#80A6C6"/>
  <path d="M5.673 19.925a6.822 6.822 0 01-2.822.997 55.718 55.718 0 01-.582-1.46 7.26 7.26 0 002.944-1.03c.16.495.314.993.46 1.493z" fill="#5B8EB8"/>
  <path d="M23.436 12.999a1.79 1.79 0 00-1.021-1.167c.122-2.34.059-4.712-.188-7.054a2.035 2.035 0 00-1.88-1.818 71.904 71.904 0 00-.552-.037.34.34 0 10-.044.68l.546.037a1.354 1.354 0 011.252 1.21c.24 2.27.303 4.568.19 6.837a1.775 1.775 0 00-1.006.285l-4.714 3.06c-.415.27-.912.371-1.4.287l-1.428-.249a.34.34 0 10-.117.672l1.429.249a2.631 2.631 0 001.887-.387l4.715-3.06a1.102 1.102 0 011.48.25 1.11 1.11 0 01-.183 1.544l-5.863 4.704c-.408.328-.94.479-1.46.416l-7.902-.962a.34.34 0 00-.16.018l-1.272.471a56.048 56.048 0 00-1.38-3.923l.592-.164a.34.34 0 00.249-.35 1.56 1.56 0 01.872-1.503l5.131-2.506a1.31 1.31 0 011.733.554 1.312 1.312 0 01-.48 1.755l-2.817 1.689a.34.34 0 00.117.628l1.972.343a.341.341 0 00.117-.672l-1.07-.186 2.032-1.217a1.993 1.993 0 00.728-2.665 1.988 1.988 0 00-2.631-.842l-1.487.726v-2.91l.778.777a.34.34 0 00.482 0 .34.34 0 000-.482l-1.36-1.36a.34.34 0 00-.482 0l-1.36 1.36a.34.34 0 10.483.482l.777-.777v3.243l-2.229 1.089a44.365 44.365 0 01.17-7.225A1.355 1.355 0 017.936 3.64a86.04 86.04 0 013.505-.179v4.65a.34.34 0 00.528.284l2.148-1.418 2.148 1.418a.34.34 0 00.528-.284V3.46c.537.016 1.073.037 1.607.064a.34.34 0 10.034-.68 87.047 87.047 0 00-10.547.116 2.036 2.036 0 00-1.881 1.817 45.035 45.035 0 00-.156 7.62l-.07.034a2.24 2.24 0 00-1.255 1.879l-.415.114a57.409 57.409 0 00-.131-.32.34.34 0 00-.357-.207 7.201 7.201 0 00-2.96 1.046.34.34 0 00-.147.385 55.93 55.93 0 002.022 5.724.34.34 0 00.356.207 7.202 7.202 0 002.961-1.046A.341.341 0 006 19.83l-.056-.19 1.233-.456 7.82.951a2.65 2.65 0 001.969-.56l5.852-4.694.01-.009a1.791 1.791 0 00.608-1.872zM16.11 3.442v4.035l-1.806-1.192a.34.34 0 00-.376 0l-1.807 1.192V3.443c1.331-.031 2.662-.031 3.99 0zM3.065 20.547a55.29 55.29 0 01-1.822-5.157 6.505 6.505 0 012.206-.78 55.275 55.275 0 011.822 5.158 6.505 6.505 0 01-2.206.78z" fill="#000"/>
  <path d="M11.397 13.051c.139 0 .28-.033.41-.103l.422-.225a.34.34 0 10-.32-.602l-.423.226a.184.184 0 01-.238-.058 2.687 2.687 0 01-.373-.861.341.341 0 00-.67.129c.005.023.112.568.477 1.112a.86.86 0 00.715.382zM3.816 19.64a.344.344 0 00.332-.265c.07-.3-.282-.528-.53-.352a.344.344 0 00-.12.4c.05.13.178.218.318.218zM17.548 8.52a.34.34 0 00.482 0l.778-.778v4.178a.34.34 0 10.681 0V7.742l.778.777a.34.34 0 00.482 0 .34.34 0 000-.482l-1.36-1.36a.34.34 0 00-.482 0l-1.359 1.36a.341.341 0 000 .482z" fill="#000"/>
</svg>
