<svg width="24" height="24" fill="none" xmlns="http://www.w3.org/2000/svg">
  <defs/>
  <path d="M12.548 7.499H2.307L.89 4.249h8.87" fill="#EAC36E"/>
  <g fill="#FCD577">
    <path d="M20.46 7.498H2.306v13.529H20.46V7.497z"/>
    <path d="M7.867 7.498H20.46l2.638-4.526H10.505L7.867 7.498z"/>
  </g>
  <path d="M7.868 7.498H2.307v13.53h5.56V7.497z" fill="#EAC36E"/>
  <path d="M23.447 2.775a.396.396 0 00-.343-.198H19.19a.396.396 0 100 .792h3.225l-2.176 3.733H8.562L10.74 3.37h7.033a.396.396 0 000-.792H10.51a.396.396 0 00-.342.196l-2.523 4.33H2.57l-1.07-2.458h6.628a.396.396 0 100-.792H.896a.396.396 0 00-.363.555L1.916 7.58v13.446c0 .219.177.396.396.396h18.154a.396.396 0 00.396-.396V7.605l2.584-4.433a.396.396 0 00.001-.397zM20.07 20.631H8.27v-1.305a.396.396 0 00-.793 0v1.305H2.708V7.894h4.77v9.73a.396.396 0 00.791 0v-9.73H20.07v12.737z" fill="#000"/>
  <path d="M6.2 9.315H3.986a.396.396 0 00-.396.396v2.203c0 .677.473 1.244 1.106 1.39v1.116h-.625a.396.396 0 100 .792h2.042a.396.396 0 000-.792H5.49v-1.117a1.428 1.428 0 001.106-1.389V9.711a.396.396 0 00-.396-.396zm-.397 2.6c0 .349-.284.633-.633.633h-.154a.634.634 0 01-.633-.634v-1.807h1.42v1.807zM17.162 14.42h-.78a.396.396 0 100 .792h.78a.396.396 0 100-.792zM14.963 14.42h-2.907a.396.396 0 000 .792h2.907a.396.396 0 000-.792zM11.331 11.719a.396.396 0 00.552-.095l.472-.667v2.367a.396.396 0 10.792 0v-2.367l.472.667a.396.396 0 10.647-.457l-1.191-1.685a.396.396 0 00-.647 0l-1.191 1.685a.396.396 0 00.094.552zM15.047 11.719a.396.396 0 00.552-.095l.472-.667v2.367a.396.396 0 10.792 0v-2.367l.472.667a.395.395 0 10.647-.458L16.79 9.482a.396.396 0 00-.647 0l-1.191 1.684a.396.396 0 00.094.553z" fill="#000"/>
</svg>
