<svg width="24" height="24" fill="none" xmlns="http://www.w3.org/2000/svg">
  <defs/>
  <path d="M5.254 2.47h13.493v19.06H5.254V2.47z" fill="#FFF9F0"/>
  <path d="M17.39 2.47h1.357v19.06H17.39V2.47z" fill="#FAE8DB"/>
  <path d="M5.257.84v22.32H3.496V.84h1.76zM20.505.84v22.32h-1.761V.84h1.76z" fill="#C4573A"/>
  <path d="M19.6.84h.905v22.32h-.904V.84z" fill="#A74B30"/>
  <path d="M12 23.16h8.505l-1.758-1.63H5.253l-1.758 1.63H12zM12.001.84H3.496l1.758 1.63h13.493L20.506.84H12z" fill="#C4573A"/>
  <path d="M10.417 11.503H7.212l1.357-4.58h1.848v4.58z" fill="#FE73C5"/>
  <path d="M9.06 6.923h1.358v4.58H9.06v-4.58z" fill="#FE4FB7"/>
  <path d="M15.12 9.213a1.528 1.528 0 100-3.056 1.528 1.528 0 000 3.056z" fill="#FD5426"/>
  <path d="M15.12 6.157c-.244 0-.474.058-.679.16a1.528 1.528 0 010 2.737 1.528 1.528 0 10.679-2.897z" fill="#EF4424"/>
  <path d="M14.902 13.586l-3.22 2.939 4.155 1.318-.935-4.257-3.22 2.939 4.155 1.318-.935-4.257z" fill="#FED402"/>
  <path d="M14.379 17.38l1.459.463-.936-4.257-1.13 1.032.607 2.762z" fill="#FAC600"/>
  <path d="M20.845.84l-.001-.012a.436.436 0 00-.007-.059l-.003-.014a.314.314 0 00-.01-.03c0-.004-.001-.007-.003-.01L20.82.711a.327.327 0 00-.018-.037L20.794.66a.327.327 0 00-.018-.026l-.008-.01a.333.333 0 00-.027-.03l-.012-.01a.33.33 0 00-.027-.022l-.007-.005a.334.334 0 00-.088-.042.345.345 0 00-.045-.01l-.01-.002A.329.329 0 0020.505.5H3.496a.339.339 0 00-.146.033l-.004.002a.339.339 0 00-.079.054L3.264.59a.337.337 0 00-.107.223V8.014a.34.34 0 00.678 0V1.616L4.917 2.62v18.76l-1.082 1.004V9.37a.34.34 0 00-.679 0v13.79l.001.018v.01l.007.046.002.005a.348.348 0 00.013.042v.004l.002.002a.339.339 0 00.02.042l.004.006a.328.328 0 00.024.035l.003.004a.343.343 0 00.071.066l.002.001a.343.343 0 00.19.059h17.01a.34.34 0 00.331-.413.34.34 0 00.009-.074V.839zm-2.1 14.02a.34.34 0 00-.34.339v5.992H5.596V2.81h12.809v11.033a.34.34 0 10.678 0V2.62l1.083-1.003v20.766l-1.082-1.003v-6.181a.34.34 0 00-.34-.34zm.896-13.681l-1.027.951H5.387L4.361 1.18h15.28zM4.36 22.82l1.026-.951h13.227l1.026.951H4.36z" fill="#000"/>
  <path d="M9.752 16.133a.34.34 0 00-.48 0l-.407.407-.407-.407a.34.34 0 10-.48.48l.407.407-.407.407a.34.34 0 10.48.48l.407-.407.407.407a.338.338 0 10.48-.48l-.407-.407.407-.407a.34.34 0 000-.48zM10.756 11.503v-4.58a.34.34 0 00-.34-.34H8.57a.34.34 0 00-.326.243l-1.357 4.58a.34.34 0 00.325.436h3.206a.34.34 0 00.339-.339zm-.678-.34H7.666l1.156-3.901h1.256v3.902zM15.12 9.552a1.87 1.87 0 001.866-1.867 1.87 1.87 0 00-1.867-1.867 1.87 1.87 0 00-1.867 1.867 1.87 1.87 0 001.867 1.867zm0-3.056a1.19 1.19 0 011.188 1.189 1.19 1.19 0 01-1.189 1.188 1.19 1.19 0 01-1.188-1.188 1.19 1.19 0 011.188-1.189zM15.232 13.513a.34.34 0 00-.56-.178l-3.219 2.94a.339.339 0 00.127.573l4.154 1.318a.338.338 0 00.332-.073.34.34 0 00.102-.323l-.936-4.257zm-2.887 2.866l2.35-2.147.684 3.11-3.034-.963z" fill="#000"/>
  <path d="M16.789 11.033c-2.525 0-4.578-1.645-4.578-3.666a.34.34 0 00-.679 0c0 1.175.556 2.274 1.565 3.096l.057.045-3.16 3.16a.34.34 0 10.48.48l3.248-3.249c.888.528 1.951.812 3.067.812a.34.34 0 100-.678z" fill="#000"/>
</svg>
