<svg width="24" height="24" fill="none" xmlns="http://www.w3.org/2000/svg">
  <defs/>
  <path d="M19.188.896H3.625a.975.975 0 00-.976.976V7.07c0 .538.437.975.976.975h15.563a.975.975 0 00.975-.975V1.87a.975.975 0 00-.975-.975z" fill="#CFDCE5"/>
  <path d="M19.188 6.386H3.625a.975.975 0 01-.976-.975v1.658c0 .539.437.976.976.976h15.563a.975.975 0 00.975-.976V5.411a.975.975 0 01-.975.975z" fill="#BAC6CC"/>
  <path d="M20.163 1.871v1.384c-2.919 0-2.919 2.145-5.838 2.145s-2.919-2.145-5.838-2.145S5.568 5.4 2.65 5.4V1.87c0-.538.437-.975.976-.975h15.563c.538 0 .975.437.975.975z" fill="#4EBFED"/>
  <path d="M13.106 22.416a.674.674 0 01-.673.688H10.38a.674.674 0 01-.673-.688l.208-9.869h2.983l.208 9.869z" fill="#FF6F52"/>
  <path d="M10.658 22.416l.208-9.869h-.95l-.209 9.869a.673.673 0 00.673.688h.951a.673.673 0 01-.673-.688z" fill="#E25749"/>
  <path d="M21.078 4.074h-.513V1.872c0-.757-.615-1.372-1.371-1.372H6.806a.396.396 0 000 .793h12.388c.319 0 .579.26.579.579v1c-1.337.092-2.088.644-2.758 1.136-.696.512-1.354.995-2.684.995-.595 0-1.086-.092-1.545-.289a.396.396 0 00-.313.728c.553.238 1.161.354 1.858.354 1.59 0 2.42-.61 3.154-1.15.623-.458 1.216-.893 2.288-.98V7.07a.58.58 0 01-.58.58H3.632a.58.58 0 01-.58-.58V5.782C4.389 5.69 5.14 5.14 5.81 4.647c.697-.512 1.355-.996 2.684-.996 1.33 0 1.988.484 2.684.996l.051.037a.396.396 0 00.47-.64l-.051-.036c-.733-.539-1.564-1.15-3.154-1.15-1.59 0-2.42.611-3.153 1.15-.624.458-1.217.893-2.288.98V1.872c0-.32.26-.58.579-.58h1.7a.396.396 0 000-.792h-1.7c-.757 0-1.372.615-1.372 1.372v2.202h-.668a.396.396 0 000 .793h.668V7.07c0 .756.615 1.371 1.372 1.371h15.563c.756 0 1.371-.615 1.371-1.371V4.867h.513c.516 0 .935.419.935.934v3.153c0 .515-.42.935-.935.935h-8.335c-.952 0-1.727.774-1.727 1.727v.535H9.219a.396.396 0 000 .793h.297l-.2 9.463c-.006.29.102.564.305.771.203.208.475.322.765.322h2.053c.29 0 .561-.114.764-.322.203-.207.311-.481.305-.77l-.04-1.94a.396.396 0 10-.793.016l.04 1.94a.275.275 0 01-.276.283h-2.053a.275.275 0 01-.277-.283l.2-9.48h2.207l.127 6.037a.396.396 0 00.396.388h.009a.396.396 0 00.387-.405l-.126-6.02h.297a.396.396 0 100-.793h-1.797v-.535c0-.516.419-.935.934-.935h8.336c.952 0 1.727-.774 1.727-1.727V5.801a1.73 1.73 0 00-1.728-1.727z" fill="#000"/>
</svg>
