<svg width="24" height="24" fill="none" xmlns="http://www.w3.org/2000/svg">
  <defs/>
  <path d="M19.613 9.843A6.735 6.735 0 1112 20.904l1.365-7.331 5.286-4.189c.328.126.65.279.962.46z" fill="#FFCE47"/>
  <path d="M4.387 9.843A6.735 6.735 0 1012 20.904l-1.366-7.331L5.35 9.384c-.327.126-.649.279-.962.46z" fill="#FF4181"/>
  <path d="M18.735 8.321c0 .362-.029.717-.084 1.063L12 12.007 5.348 9.384a6.735 6.735 0 1113.386-1.063z" fill="#4EB9FF"/>
  <path d="M14.406 14.614H9.593A6.743 6.743 0 0012 20.904a6.743 6.743 0 002.407-6.29z" fill="#FF755C"/>
  <path d="M12 10.446l2.406 4.168a6.745 6.745 0 004.245-5.23A6.743 6.743 0 0012 10.446z" fill="#85C250"/>
  <path d="M5.349 9.384a6.744 6.744 0 004.245 5.23L12 10.446a6.743 6.743 0 00-6.651-1.062z" fill="#3B8BC0"/>
  <path d="M13.586 12.308c.424.735.694 1.516.82 2.306a6.723 6.723 0 01-2.406.442 6.724 6.724 0 01-2.406-.442c.126-.79.396-1.571.82-2.306A6.708 6.708 0 0112 10.446a6.71 6.71 0 011.586 1.862z" fill="#174461"/>
  <path d="M19.874 9.392a7.315 7.315 0 00-.656-.335c.025-.242.037-.488.037-.736 0-4-3.254-7.255-7.255-7.255-4 0-7.255 3.255-7.255 7.255 0 .248.012.494.037.736-.222.1-.44.211-.656.335-3.464 2-4.656 6.447-2.655 9.911a7.208 7.208 0 004.405 3.38 7.212 7.212 0 005.506-.725c.214-.123.42-.256.618-.399a7.212 7.212 0 006.124 1.124 7.208 7.208 0 004.405-3.38c2-3.464.81-7.91-2.655-9.91zM5.786 8.322A6.221 6.221 0 0112 2.106a6.221 6.221 0 016.203 6.582A7.287 7.287 0 0012 9.793 7.287 7.287 0 005.797 8.69a6.256 6.256 0 01-.011-.368zm7.97 8.962A6.173 6.173 0 0112 20.216a6.173 6.173 0 01-1.757-2.932 6.224 6.224 0 01-.204-1.977 7.237 7.237 0 003.92 0 6.227 6.227 0 01-.202 1.977zM12 14.536c-.63 0-1.237-.095-1.81-.27A6.238 6.238 0 0112 11.139a6.237 6.237 0 011.81 3.129 6.192 6.192 0 01-1.81.269zm-2.785-.66a6.239 6.239 0 01-3.268-4.147 6.239 6.239 0 015.226.759 7.292 7.292 0 00-1.959 3.387zm4.822-1.828a7.239 7.239 0 00-1.21-1.56 6.258 6.258 0 013.43-1.025c.6 0 1.206.087 1.796.267a6.238 6.238 0 01-3.268 4.145 7.292 7.292 0 00-.748-1.827zm-3.176 9.01a6.174 6.174 0 01-4.716.62 6.173 6.173 0 01-3.773-2.895A6.222 6.222 0 014.97 10.12a7.287 7.287 0 004.055 4.818 7.255 7.255 0 00.213 2.615 7.211 7.211 0 001.934 3.312 6.321 6.321 0 01-.31.192zm10.767-2.275a6.173 6.173 0 01-3.773 2.895 6.173 6.173 0 01-5.027-.813 7.21 7.21 0 001.934-3.311c.232-.866.301-1.75.213-2.616a7.287 7.287 0 004.054-4.818 6.221 6.221 0 012.599 8.663z" fill="#01121C"/>
</svg>
