<svg width="24" height="24" fill="none" xmlns="http://www.w3.org/2000/svg">
  <defs/>
  <path d="M4.68 3.102V22.98L12 20.898V1.02L4.68 3.102z" fill="#C9D467"/>
  <path d="M12 1.02v19.878l7.32 2.082V3.102L12 1.02z" fill="#85C250"/>
  <path d="M17.239 19.786v-6.869l-3.157-.897v6.868l3.157.898z" fill="#174461"/>
  <g fill="#01121C">
    <path d="M19.462 2.601L12.142.52l-.008-.002a.505.505 0 00-.052-.011c-.006 0-.011-.002-.017-.003A.53.53 0 0012.002.5H12a.52.52 0 00-.065.005l-.015.002a.514.514 0 00-.055.011l-.007.002-.012.003h-.001L4.538 2.601a.52.52 0 00-.378.5V22.98a.52.52 0 00.663.5L12 21.44l7.178 2.04a.521.521 0 00.662-.5V3.102a.52.52 0 00-.378-.5zm-14.261.894l6.279-1.786v18.796L5.2 22.291V3.495zM18.799 22.29l-6.278-1.786V1.71l6.278 1.786V22.29z"/>
    <path d="M13.94 4.715l3.156.897a.52.52 0 10.285-1l-3.157-.898a.52.52 0 00-.284 1zM13.94 7.317l3.156.897a.52.52 0 10.285-1l-3.157-.899a.52.52 0 10-.284 1.002zM13.94 9.918l3.156.898a.522.522 0 00.643-.358.52.52 0 00-.358-.643l-3.157-.898a.52.52 0 00-.284 1.001zM13.94 19.389l3.156.898a.517.517 0 00.456-.086.52.52 0 00.207-.415v-6.869a.52.52 0 00-.378-.5l-3.157-.898a.52.52 0 00-.662.5v6.87a.52.52 0 00.378.5zm.662-6.68l2.116.601v5.787l-2.116-.602v-5.787zM9.776 18.388l-3.157.897a.52.52 0 00.285 1.001l3.157-.897a.52.52 0 00-.285-1.001zM6.761 5.632a.521.521 0 00.143-.02l3.157-.897a.52.52 0 00-.285-1.002l-3.157.898a.52.52 0 00.142 1.021zM9.776 6.315l-3.157.898a.52.52 0 00.285 1.001l3.157-.898a.52.52 0 00-.285-1z"/>
  </g>
</svg>
