<svg width="24" height="24" fill="none" xmlns="http://www.w3.org/2000/svg">
  <defs/>
  <path d="M20.83 14.494H4.074v4.533H20.83v-4.533z" fill="#314A5F"/>
  <path d="M19.159 8.564V2.831H4.852v5.733" fill="#EAC36E"/>
  <path d="M3.71 8.564v3.215a1.86 1.86 0 001.86 1.86h12.872a1.86 1.86 0 001.86-1.86V8.564H3.71z" fill="#FF6F52"/>
  <g fill="#314A5F">
    <path d="M4.82 20.538H2.655v1.368h2.167v-1.368zM21.356 20.537h-2.167v1.369h2.167v-1.369z"/>
  </g>
  <g fill="#FCD577">
    <path d="M14.115 10.219a.855.855 0 110 1.71.855.855 0 010-1.71zM17.25 10.219a.856.856 0 110 1.71.856.856 0 010-1.71z"/>
    <path d="M23.123 10.106v10.432h-5.56V18.2h1.227c.456 0 .826-.37.826-.826v-1.142a.826.826 0 00-.826-.826H5.22a.826.826 0 00-.827.826v1.142c0 .456.37.826.826.826h1.227v2.338H.886V10.106c0-.851.691-1.542 1.542-1.542h1.28v3.215a1.86 1.86 0 001.86 1.86h12.873a1.86 1.86 0 001.86-1.86V8.564h1.28c.851 0 1.542.69 1.542 1.542z"/>
  </g>
  <g fill="#CFDCE5">
    <path d="M17.786 1.456H6.225v7.108h11.56V1.456zM17.786 15.406H6.225v7.109h11.56v-7.109z"/>
  </g>
  <path d="M23.118 17.591a.382.382 0 00.382-.382v-7.088c0-1.061-.863-1.924-1.924-1.924h-2.04V2.846a.382.382 0 00-.383-.382h-.99v-.993a.382.382 0 00-.382-.382H6.219a.382.382 0 00-.382.382v.993h-.99a.382.382 0 00-.383.382v5.351h-2.04C1.363 8.197.5 9.06.5 10.121v10.432c0 .21.171.381.382.381h1.385v.987c0 .21.171.382.382.382h2.167a.382.382 0 00.382-.382v-.986h.64v1.594c0 .211.17.382.381.382h1.976a.382.382 0 100-.764H6.6v-6.344H17.4v6.344H9.468a.382.382 0 000 .764h8.313a.382.382 0 00.382-.382v-1.595h.639v.987c0 .21.17.382.382.382h2.166a.382.382 0 00.383-.382v-.986h1.385a.382.382 0 00.382-.383v-1.918a.382.382 0 10-.764 0v1.537h-4.573v-1.574h.622a1.21 1.21 0 001.209-1.208v-1.142a1.21 1.21 0 00-1.209-1.208H5.215a1.21 1.21 0 00-1.208 1.208v1.142a1.21 1.21 0 001.208 1.208h.622v1.573H1.264V10.12c0-.639.52-1.159 1.16-1.159h.898v2.832a2.244 2.244 0 002.242 2.242h1.46a.382.382 0 100-.764h-1.46a1.48 1.48 0 01-1.478-1.477V8.96h15.828v2.833a1.48 1.48 0 01-1.478 1.477H8.449a.382.382 0 000 .764h9.987a2.244 2.244 0 002.242-2.242V8.962h.898c.64 0 1.16.52 1.16 1.16v7.088c0 .211.171.382.382.382zm-2.15 3.948h-1.402v-.605h1.403v.605zm-1.738-5.292v1.142c0 .245-.2.444-.445.444h-.622v-2.03h.622c.245 0 .445.199.445.444zM5.215 17.833a.445.445 0 01-.444-.444v-1.142c0-.245.199-.444.444-.444h.622v2.03h-.622zm-.781 3.706H3.031v-.605h1.403v.605zm.794-18.311h.61v4.97h-.61v-4.97zm1.373 4.969V2.85v-.004-.993H17.4v4.15a.382.382 0 00.764 0V3.229h.608v4.97h-.608v-.921a.382.382 0 00-.764 0v.92H6.6z" fill="#000"/>
  <path d="M17.245 10.614a.382.382 0 000-.763c-.682 0-1.237.554-1.237 1.237 0 .682.555 1.237 1.237 1.237s1.237-.555 1.237-1.237a.382.382 0 00-.764 0 .474.474 0 11-.473-.473zM15.347 11.088a1.239 1.239 0 00-2.474 0c0 .682.554 1.237 1.236 1.237.682 0 1.238-.555 1.238-1.237zm-1.711 0a.474.474 0 11.948 0 .474.474 0 01-.948 0zM15.845 17.438a.382.382 0 100-.764H11.2a.382.382 0 000 .764h4.646zM8.154 17.438h1.772a.382.382 0 100-.764H8.154a.382.382 0 000 .764zM8.154 19.297h7.691a.382.382 0 000-.764h-7.69a.382.382 0 000 .764zM15.845 20.392h-1.59a.382.382 0 100 .764h1.59a.382.382 0 100-.764zM8.154 21.155h4.828a.382.382 0 100-.763H8.154a.382.382 0 000 .764z" fill="#000"/>
</svg>
