<svg width="24" height="24" fill="none" xmlns="http://www.w3.org/2000/svg">
  <defs/>
  <g fill-rule="evenodd" clip-rule="evenodd">
    <path d="M10.741 13.306v7.348l.879 1.07 1.028-1.07v-7.348l-.954-.871-.953.871z" fill="#ECECEC"/>
    <path d="M12.648 20.654H7.781a.577.577 0 00-.576.576v1.354c0 .317.258.576.576.576H15.609a.577.577 0 00.576-.576V21.23a.577.577 0 00-.576-.576h-2.96z" fill="#838383"/>
    <path d="M11.694 13.306h.954v7.348h-.954v-7.348z" fill="#CECECE"/>
    <path d="M14.13 20.654c.316 0 .575.259.575.576v1.354c0 .317-.26.576-.575.576h1.48a.577.577 0 00.575-.576V21.23a.577.577 0 00-.575-.576h-1.48z" fill="#595959"/>
    <path d="M16.087.84H7.914c-.267 0-.523.05-.757.144A2.075 2.075 0 005.849 2.91v8.328c0 1.139.928 2.07 2.065 2.07h8.173c1.135 0 2.065-.931 2.065-2.07V2.909a2.075 2.075 0 00-2.065-2.07z" fill="#03BED7"/>
    <path d="M16.843.984a2.037 2.037 0 00-.757-.145h-1.479a2.075 2.075 0 012.066 2.07v8.327c0 1.14-.929 2.07-2.065 2.07h1.478c1.136 0 2.065-.93 2.065-2.07V2.91c0-.872-.543-1.621-1.308-1.925z" fill="#0099B1"/>
    <path d="M12.848 6.366a.968.968 0 01-.712.305h-.826c-.157 0-.252.022-.252-.139v-1.83c0-.119.054-.119.213-.119h.876a.94.94 0 01.717.31c.192.207.288.457.288.75 0 .28-.102.52-.304.723zm-.617-3.302h-1.989a.85.85 0 00-.623.256.863.863 0 00-.257.634v5.893c0 .245.085.451.252.62a.812.812 0 00.596.25c.23 0 .43-.083.597-.25a.818.818 0 00.251-.6V8.16h1.277c.775 0 1.395-.233 1.863-.697.467-.466.7-1.075.7-1.83 0-.763-.247-1.382-.742-1.857-.495-.475-1.137-.712-1.925-.712z" fill="#ECECEC"/>
    <path d="M14.156 3.776c-.495-.475-1.137-.712-1.925-.712h-.708c.787 0 1.43.237 1.924.712.495.475.743 1.094.743 1.857 0 .755-.234 1.365-.7 1.83-.469.464-1.089.697-1.864.697h.709c.775 0 1.395-.233 1.863-.697.467-.466.701-1.075.701-1.83 0-.763-.248-1.382-.743-1.857z" fill="#CECECE"/>
  </g>
  <path d="M18.152 6.906a.34.34 0 00.34-.34V2.91A2.41 2.41 0 0016.085.5H7.914a2.41 2.41 0 00-2.405 2.409v8.328a2.41 2.41 0 002.405 2.409h2.488v2.464a.34.34 0 00.679 0v-2.464h1.228v6.669h-1.228v-2.639a.34.34 0 10-.679 0v2.639H7.781a.917.917 0 00-.915.916v1.353c0 .505.41.916.915.916h7.828c.505 0 .915-.41.915-.916V21.23a.917.917 0 00-.915-.916h-2.621v-6.67h3.098a2.41 2.41 0 002.405-2.408V8.132a.34.34 0 10-.679 0v3.105a1.73 1.73 0 01-1.726 1.73H7.914a1.73 1.73 0 01-1.726-1.73V2.909c0-.954.774-1.73 1.726-1.73h8.172a1.73 1.73 0 011.726 1.73v3.657c0 .188.152.34.34.34zM15.845 21.23v1.353c0 .13-.106.237-.236.237H7.781a.237.237 0 01-.236-.237V21.23c0-.131.105-.238.236-.238h7.828c.13 0 .236.107.236.238z" fill="#000"/>
  <path d="M10.243 2.725c-.335 0-.626.119-.863.355a1.195 1.195 0 00-.357.875v5.893c0 .336.119.625.352.859.232.232.513.35.836.35.319 0 .608-.12.837-.35.23-.23.35-.52.35-.839V8.5h.937c.862 0 1.57-.268 2.103-.796.531-.53.8-1.226.8-2.07 0-.855-.284-1.562-.846-2.102-.558-.536-1.285-.808-2.16-.808h-1.99zm4.317 2.908c0 .667-.197 1.187-.6 1.589-.407.403-.938.599-1.625.599H11.06a.34.34 0 00-.34.34v1.707a.48.48 0 01-.151.359.477.477 0 01-.357.152.476.476 0 01-.356-.152.505.505 0 01-.153-.38V3.956c0-.162.05-.287.157-.394a.513.513 0 01.384-.158h1.989c.704 0 1.256.203 1.69.618.43.413.638.94.638 1.612z" fill="#000"/>
  <path d="M11.271 4.244c-.11 0-.204 0-.303.044-.074.033-.248.14-.248.414v1.83c0 .146.044.264.133.351a.497.497 0 00.37.129 2.518 2.518 0 00.088-.001h.826a1.3 1.3 0 00.952-.405c.268-.268.403-.592.403-.963 0-.38-.127-.71-.378-.98a1.271 1.271 0 00-.966-.419h-.877zm1.542 1.4c0 .189-.065.342-.206.483a.63.63 0 01-.47.205H11.4V4.923h.749a.6.6 0 01.469.202.727.727 0 01.196.518z" fill="#000"/>
</svg>
