<svg width="24" height="24" fill="none" xmlns="http://www.w3.org/2000/svg">
  <defs/>
  <path d="M12 1.72L4.132 21.755h15.737L12 1.72z" fill="#EDEDED"/>
  <path d="M12 1.72l-1.175 2.993 6.693 17.043h2.351L12.001 1.72z" fill="#D6D6D6"/>
  <path d="M19.151 19.93l-3.374 1.826h4.091l-.716-1.825z" fill="#D82B2B"/>
  <path d="M16.225 12.48l-.887-2.26-8.477 4.584-1.366 3.478 10.73-5.803zM8.43 10.808l5.889-3.184-.888-2.26L9.797 7.33 8.43 10.808zM18.132 17.335l-.887-2.26-12.352 6.68h5.065l8.174-4.42z" fill="#F43B45"/>
  <g fill="#D82B2B">
    <path d="M13.4 11.268l.887 2.26 1.939-1.048-.888-2.26-1.939 1.048zM11.492 6.413l.888 2.26 1.938-1.049-.887-2.26-1.939 1.05zM15.307 16.124l.887 2.26 1.939-1.049-.887-2.26-1.94 1.049z"/>
  </g>
  <path d="M19.623 20.369H4.377a1.398 1.398 0 10.953 2.42c.25.233.585.375.953.375s.703-.142.953-.375c.25.233.584.375.953.375.368 0 .703-.142.953-.375a1.392 1.392 0 001.906 0 1.392 1.392 0 001.906 0 1.392 1.392 0 001.906 0 1.393 1.393 0 001.906 0 1.392 1.392 0 001.906 0 1.398 1.398 0 10.953-2.42z" fill="#EF8229"/>
  <path d="M12 4.509a1.835 1.835 0 100-3.671 1.835 1.835 0 000 3.67z" fill="#FF9C43"/>
  <path d="M12 .838c-.445 0-.853.159-1.17.422.405.337.663.845.663 1.413 0 .569-.258 1.077-.664 1.413A1.835 1.835 0 1012.001.838z" fill="#EF8229"/>
  <path d="M19.623 20.031h-.07L13.392 4.34c.478-.4.782-.999.782-1.668A2.175 2.175 0 0012 .5a2.175 2.175 0 00-2.172 2.172c0 .67.304 1.269.781 1.668L4.447 20.03h-.07c-.956 0-1.734.778-1.734 1.735a1.736 1.736 0 002.687 1.45c.281.184.61.284.953.284.342 0 .672-.1.953-.285.28.185.61.285.953.285.342 0 .671-.1.952-.285a1.729 1.729 0 001.906 0 1.729 1.729 0 001.906 0 1.729 1.729 0 001.906 0c.281.185.61.285.953.285.342 0 .672-.1.953-.285.28.185.61.285.953.285.342 0 .671-.1.953-.285a1.736 1.736 0 002.687-1.45c0-.956-.778-1.734-1.735-1.734zm-5.137-.725a.337.337 0 00-.456-.136l-1.593.861H8.788l8.283-4.48.639 1.628-2.48 1.342a.337.337 0 10.32.593l2.408-1.303.772 1.964-.474.256h-4.402l.496-.269a.337.337 0 00.136-.456zM8.7 11.045l1.437-.777a.337.337 0 10-.32-.593l-.735.397.984-2.505 3.191-1.726.64 1.628-2.895 1.565a.337.337 0 10.32.593L14.146 8.1l.77 1.964-7.403 4.004L8.7 11.045zm-1.57 3.996l8.034-4.345.64 1.628-9.658 5.223.984-2.506zM12 1.174A1.5 1.5 0 0113.5 2.672 1.5 1.5 0 0112 4.171a1.5 1.5 0 01-1.498-1.499A1.5 1.5 0 0112 1.174zm0 3.67c.284 0 .556-.054.805-.154l.204.519-2.561 1.385.747-1.904c.25.1.521.155.805.155zM5.764 18.52l10.287-5.563.772 1.964-9.451 5.111H5.17l.593-1.512zm13.86 4.307c-.27 0-.527-.1-.724-.285a.336.336 0 00-.46 0 1.057 1.057 0 01-1.446 0 .337.337 0 00-.46 0 1.057 1.057 0 01-1.445 0 .337.337 0 00-.46 0 1.057 1.057 0 01-1.446 0 .337.337 0 00-.46 0 1.056 1.056 0 01-1.446 0 .337.337 0 00-.46 0 1.057 1.057 0 01-1.446 0 .337.337 0 00-.46 0 1.057 1.057 0 01-1.446 0 .337.337 0 00-.459 0 1.057 1.057 0 01-1.446 0 .337.337 0 00-.46 0 1.062 1.062 0 11-.723-1.837h.292l.007.001h14.947a1.062 1.062 0 010 2.121z" fill="#000"/>
</svg>
