<svg width="24" height="24" fill="none" xmlns="http://www.w3.org/2000/svg">
  <defs/>
  <path d="M23.1 3.642a.125.125 0 00-.221-.078c-.47.564-1.273 1.106-2.393.363-2.45-1.625-4.284-.29-5.746.233a.6.6 0 01-.798-.567v-.01c0-1.635-1.524-1.95-1.942-2.746-.417.796-1.942 1.11-1.942 2.745v.01a.6.6 0 01-.798.568c-1.462-.522-3.295-1.858-5.746-.233-1.12.743-1.923.201-2.393-.363a.125.125 0 00-.221.078c-.025 2.145.288 8.264 4.568 8.689 2.81.279 4.49.988 5.44 1.622a1.967 1.967 0 002.184 0c.95-.634 2.63-1.343 5.44-1.622 4.28-.425 4.593-6.544 4.569-8.69zM4.058 6.156s.728.747 3.261.418c2.89-.375 3.138 2.977 3.138 2.977s-4.992 2.104-6.4-3.395zm9.487 3.395s.248-3.352 3.138-2.977c2.534.329 3.262-.418 3.262-.418-1.407 5.5-6.4 3.395-6.4 3.395z" fill="#FF9C43"/>
  <path d="M22.398 8.85h-1.162v7.728h1.162V8.85z" fill="#D6D6D6"/>
  <path d="M12.887 4.386c0 .802-.887 1.452-.887 1.452s-.887-.65-.887-1.452c0-.803.887-1.453.887-1.453s.887.65.887 1.453z" fill="#FFE471"/>
  <path d="M22.321 23.163h-1.007a.505.505 0 01-.504-.505v-6.3c0-.279.226-.505.504-.505h1.007c.28 0 .505.226.505.505v6.3a.505.505 0 01-.505.505z" fill="#345863"/>
  <g>
    <path d="M23.1 3.642a.125.125 0 00-.22-.078c-.426.51-1.124 1.002-2.082.542-.032 2.45-.564 7.827-4.568 8.225-1.981.196-3.4 1.167-4.398 1.944a1.966 1.966 0 001.26-.322c.95-.634 2.63-1.343 5.44-1.622 4.28-.425 4.593-6.544 4.569-8.69z" fill="#EF8229"/>
  </g>
  <g fill="#000">
    <path d="M21.3 11.327c.608-.643 1.096-1.514 1.45-2.59.627-1.9.7-4.01.688-5.1a.457.457 0 00-.307-.429.459.459 0 00-.511.14c-.573.69-1.21.788-1.947.299-.975-.646-1.947-.914-2.973-.818-.877.082-1.645.414-2.323.707-.265.115-.515.223-.75.307a.263.263 0 01-.348-.25v-.01c0-1.23-.744-1.81-1.342-2.278-.27-.211-.527-.411-.638-.625a.337.337 0 00-.597 0c-.112.214-.368.414-.639.625-.598.467-1.342 1.049-1.342 2.277v.01a.263.263 0 01-.347.251 12.83 12.83 0 01-.75-.307c-.678-.293-1.446-.625-2.323-.707-1.026-.096-2 .172-2.973.818-.737.489-1.374.39-1.948-.298a.459.459 0 00-.51-.141.457.457 0 00-.307.43c-.013 1.088.06 3.199.687 5.099.354 1.076.842 1.947 1.45 2.59a4.24 4.24 0 002.735 1.339c2.851.283 4.449 1.008 5.287 1.567.379.253.821.387 1.278.387.457 0 .9-.134 1.279-.387.838-.559 2.435-1.284 5.287-1.567a4.24 4.24 0 002.734-1.339zm-2.8.668c-2.99.297-4.693 1.076-5.595 1.678a1.626 1.626 0 01-.905.273c-.323 0-.636-.095-.905-.274-.902-.6-2.604-1.38-5.594-1.677-1.693-.168-2.908-1.335-3.611-3.469-.51-1.546-.634-3.252-.652-4.368.233.193.482.328.744.402.553.156 1.13.038 1.718-.352 1.887-1.251 3.358-.615 4.656-.053.275.119.535.231.79.323a.932.932 0 00.85-.117.941.941 0 00.4-.768v-.01c0-.9.525-1.312 1.082-1.747.187-.146.368-.287.522-.444.155.157.335.298.522.444.557.435 1.083.846 1.083 1.746v.011c0 .305.15.592.399.768a.932.932 0 00.85.117c.256-.092.515-.204.79-.323 1.298-.562 2.77-1.198 4.656.053.588.39 1.166.508 1.718.352.262-.074.511-.209.745-.402-.018 1.116-.143 2.822-.652 4.368-.704 2.134-1.919 3.301-3.612 3.47z"/>
    <path d="M9.494 6.8c-.595-.486-1.342-.674-2.22-.56-2.198.285-2.925-.278-2.98-.323a.327.327 0 00-.4-.066.342.342 0 00-.164.388c.452 1.766 1.31 2.973 2.55 3.589.694.344 1.414.457 2.064.457a6.305 6.305 0 002.243-.424.337.337 0 00.205-.335c-.005-.072-.145-1.787-1.298-2.727zM6.58 9.223c-.884-.438-1.545-1.252-1.973-2.422.546.165 1.418.28 2.754.106.686-.089 1.26.05 1.705.411.697.567.941 1.548 1.02 2.007-.585.19-2.137.577-3.506-.102zM20.107 5.85a.327.327 0 00-.401.067c-.055.045-.782.608-2.98.323-.878-.114-1.625.074-2.22.56-1.153.94-1.293 2.654-1.298 2.726-.01.144.072.28.205.335a6.303 6.303 0 002.243.424c.65 0 1.37-.113 2.063-.457 1.241-.616 2.1-1.823 2.551-3.589a.342.342 0 00-.163-.388zm-2.683 3.372c-1.364.68-2.924.292-3.51.103.077-.457.319-1.434 1.018-2.003.446-.364 1.02-.503 1.707-.414 1.336.174 2.208.06 2.754-.106-.427 1.168-1.087 1.981-1.969 2.42zM22.735 15.626v-4.973a.337.337 0 10-.673 0v4.864h-.488v-3.101a.337.337 0 10-.674 0v3.21a.842.842 0 00-.427.732v6.3c0 .464.377.842.841.842h1.007a.843.843 0 00.842-.842v-6.3a.842.842 0 00-.428-.732zm-.246 7.032a.168.168 0 01-.168.168h-1.007a.168.168 0 01-.168-.168v-6.3c0-.092.076-.168.168-.168h1.007c.093 0 .168.076.168.168v6.3zM12.701 3.141a3.22 3.22 0 00-.502-.48.337.337 0 00-.398 0c-.01.008-.257.19-.502.48-.342.406-.523.836-.523 1.245 0 .408.181.838.523 1.244.245.29.492.472.502.48a.336.336 0 00.399 0c.01-.008.257-.19.501-.48.343-.406.523-.836.523-1.244 0-.409-.18-.84-.523-1.245zm-.7 2.252c-.222-.213-.55-.598-.55-1.007 0-.388.308-.775.548-1.008.222.213.552.599.552 1.008 0 .387-.309.775-.55 1.007z"/>
  </g>
</svg>
