<svg width="24" height="24" fill="none" xmlns="http://www.w3.org/2000/svg">
  <defs/>
  <path d="M10.512 20.192v2.702c0 .148.12.27.27.27h1.908a.268.268 0 00.245-.16 2.233 2.233 0 014.084 0c.043.098.14.16.245.16h1.909a.27.27 0 00.27-.27V1.106a.27.27 0 00-.27-.27H10.78a.27.27 0 00-.27.27v19.086z" fill="#B6E3EE"/>
  <g fill="#96D2E0">
    <path d="M14.078 21.675c-.911 0-1.695.546-2.042 1.33a.268.268 0 01-.245.158h.898a.268.268 0 00.246-.158 2.236 2.236 0 011.593-1.285 2.24 2.24 0 00-.45-.045zM19.173.837h-.899c.15 0 .27.12.27.27v21.787a.27.27 0 01-.27.27h.899a.27.27 0 00.27-.27V1.106a.27.27 0 00-.27-.27z"/>
  </g>
  <path d="M4.558 3.814c0-.411.333-.744.744-.744H15.72c.41 0 .744.333.744.744v15.628a.744.744 0 01-.744.744H5.3a.744.744 0 01-.743-.744V3.814z" fill="#58565C"/>
  <path d="M13.962 15.72H8.548a.27.27 0 01-.27-.269v-.949c0-.149.121-.27.27-.27h5.414c.15 0 .27.121.27.27v.95a.27.27 0 01-.27.269z" fill="#B6E3EE"/>
  <path d="M13.963 14.232h-.885c.149 0 .27.121.27.27v.95a.27.27 0 01-.27.269h.885a.27.27 0 00.27-.27v-.949a.27.27 0 00-.27-.27z" fill="#96D2E0"/>
  <path d="M15.72 3.07h-.898c.411 0 .744.333.744.744v15.628a.744.744 0 01-.744.744h.899a.744.744 0 00.744-.744V3.814a.744.744 0 00-.744-.745z" fill="#49484D"/>
  <g fill="#000">
    <path d="M8.403 9.964a3.315 3.315 0 002.852 1.629 3.315 3.315 0 000-6.628 3.315 3.315 0 00-2.852 4.999zm2.852-4.325c.092 0 .294.174.474.653.02.052.038.106.056.162h-1.06c.018-.056.037-.11.056-.162.18-.479.382-.653.474-.653zm.689 1.488c.042.257.07.53.083.815h-1.544c.013-.284.04-.558.083-.815h1.378zm-.689 3.792c-.092 0-.294-.174-.474-.654a3.658 3.658 0 01-.055-.16h1.059c-.018.054-.037.109-.056.16-.18.48-.382.654-.474.654zm-.689-1.489a6.795 6.795 0 01-.083-.814h1.544c-.012.284-.04.558-.083.814h-1.378zm-1.929-.817a.339.339 0 00.04.003h1.132c.012.277.037.55.077.814H8.88a2.62 2.62 0 01-.243-.817zm4.064.003h1.133a.337.337 0 00.04-.003c-.038.29-.12.565-.244.817h-1.005a7.66 7.66 0 00.076-.814zm1.172-.672a.339.339 0 00-.04-.002h-1.132a7.662 7.662 0 00-.076-.815h1.005c.123.253.206.528.243.817zM9.81 7.942H8.677a.339.339 0 00-.04.002c.037-.289.12-.564.243-.817h1.006c-.04.264-.065.538-.077.815zm-.458 2.162h.674c.06.222.131.428.215.612a2.65 2.65 0 01-.89-.612zm2.92.612a4.02 4.02 0 00.215-.612h.674c-.25.26-.552.47-.89.612zm.888-4.262h-.673a4.006 4.006 0 00-.216-.612c.338.142.64.351.89.612zm-2.92-.612c-.083.184-.155.39-.214.612H9.35c.25-.26.551-.47.889-.612zM14.569 15.721v-1.489a.337.337 0 00-.337-.336H8.278a.337.337 0 00-.337.336v1.489c0 .186.151.337.337.337h5.954c.186 0 .337-.15.337-.337zm-.674-.337h-5.28v-.815h5.28v.815zM10.512 16.872a.337.337 0 000 .674H12a.337.337 0 000-.674h-1.488z"/>
    <path d="M19.779 5.302V.837A.337.337 0 0019.442.5h-8.93a.337.337 0 00-.338.337v1.896H6.048h-.002-.744c-.596 0-1.081.485-1.081 1.08v15.629c0 .596.485 1.081 1.08 1.081h2.197a.337.337 0 100-.674H6.383V3.406h9.338c.224 0 .407.183.407.408V19.442a.408.408 0 01-.407.407H8.845a.337.337 0 000 .674h1.33v2.64c0 .186.15.337.336.337h2.36c.143 0 .27-.09.318-.225a1.899 1.899 0 011.788-1.263c.801 0 1.52.508 1.787 1.263a.337.337 0 00.318.225h2.36c.186 0 .337-.15.337-.337V5.303zM5.709 19.85h-.407a.408.408 0 01-.407-.407V3.814c0-.225.182-.408.407-.408h.407V19.85zm11.093-1.558h.814v.814h-.814v-.814zm0-10.42h.814v8.257h-.814V7.872zm.506 14.955a2.575 2.575 0 00-2.331-1.488 2.575 2.575 0 00-2.332 1.488h-1.797v-2.303h4.873c.478 0 .885-.313 1.027-.744h1.205c.187 0 .337-.15.337-.337v-1.488a.337.337 0 00-.337-.337h-1.151v-.815h1.151c.186 0 .337-.15.337-.337v-8.93a.337.337 0 00-.337-.337h-1.151V5.639h.317a.337.337 0 100-.674h-.317V3.814c0-.596-.485-1.081-1.081-1.081h-4.873v-1.56h8.257v3.792h-.64a.337.337 0 100 .674h.64v17.187h-1.797z"/>
  </g>
</svg>
