<svg width="24" height="24" fill="none" xmlns="http://www.w3.org/2000/svg">
  <defs/>
  <path d="M12.245 23.163H8.31a4.632 4.632 0 01-4.632-4.632V2.44h13.2v16.09a4.632 4.632 0 01-4.633 4.633z" fill="#DAF4F8"/>
  <path d="M14.623 2.44v13.836a4.632 4.632 0 01-4.632 4.632H6.056a4.615 4.615 0 01-1.949-.428 4.633 4.633 0 004.204 2.683h3.935a4.632 4.632 0 004.632-4.632V2.44h-2.255z" fill="#A5E4EF"/>
  <path d="M16.78 3.196H3.776a1.18 1.18 0 110-2.36h13.006a1.18 1.18 0 010 2.36z" fill="#FDB143"/>
  <path d="M16.78.837h-.841a1.18 1.18 0 01-1.18 1.18H2.596c0 .65.528 1.179 1.179 1.179h13.006a1.18 1.18 0 100-2.36z" fill="#FCA514"/>
  <path d="M19.457 18.294a1.698 1.698 0 01-3.396 0c0-.938.76-.842 1.698-.842s1.698-.096 1.698.842z" fill="#FDCB82"/>
  <path d="M18.655 17.466l.001.027a1.698 1.698 0 01-2.43 1.533 1.698 1.698 0 003.232-.732c0-.609-.32-.782-.802-.828z" fill="#FDB143"/>
  <path d="M20.906 20.264a1.698 1.698 0 11-2.402 2.402c-.663-.664-.058-1.134.605-1.797.664-.663 1.133-1.268 1.797-.605z" fill="#FDCB82"/>
  <path d="M20.906 20.264a.951.951 0 00-.42-.268 1.699 1.699 0 01-2.25 2.25c.035.133.12.271.268.42a1.698 1.698 0 102.402-2.402z" fill="#FDB143"/>
  <path d="M21.07 11.42c.267-.145.67-.364.67-.833 0-.468-.403-.687-.67-.832-.142-.077-.318-.172-.318-.24s.176-.163.318-.24c.267-.145.67-.364.67-.832a.337.337 0 10-.674 0c0 .067-.176.163-.317.24-.267.145-.67.363-.67.832s.403.687.67.832c.141.077.317.173.317.24 0 .068-.176.163-.317.24-.267.145-.67.364-.67.832 0 .469.403.688.67.833.141.076.317.172.317.24 0 .067-.176.163-.317.24-.267.145-.67.363-.67.832s.403.688.67.832c.141.077.317.173.317.24 0 .068-.176.164-.317.24-.267.145-.67.364-.67.833 0 .468.402.687.67.832.141.077.317.173.317.24a.337.337 0 10.674 0c0-.468-.403-.687-.67-.832-.142-.077-.318-.173-.318-.24 0-.068.176-.163.318-.24.267-.145.67-.364.67-.833 0-.468-.403-.687-.67-.832-.142-.077-.318-.172-.318-.24s.176-.163.318-.24c.267-.145.67-.364.67-.832 0-.469-.403-.688-.67-.832-.142-.077-.318-.173-.318-.24 0-.068.176-.164.318-.24zM19.795 18.294c0-.368-.098-.645-.299-.844-.35-.346-.883-.341-1.5-.336h-.473c-.105 0-.208-.002-.308 0v-1.839a.337.337 0 00-.674 0v1.902c-.2.048-.375.13-.518.273-.201.2-.299.476-.299.845 0 .58.245 1.104.635 1.475a4.286 4.286 0 01-4.113 3.056H8.31a4.3 4.3 0 01-4.295-4.295V3.532h4.109v2.385L7.516 4.7a.337.337 0 10-.603.3l1.211 2.424v.889L6.558 5.178a.337.337 0 10-.603.301l2.169 4.342v.846L5.617 5.648a.337.337 0 10-.603.302l3.11 6.225v8.688a.337.337 0 10.674 0v-7.34l.378.757v6.583a.337.337 0 10.674 0V15.63l.397.795v4.44a.337.337 0 10.674 0v-3.091l.378.757v2.333a.337.337 0 10.674 0v-.984l.438.877a.337.337 0 10.603-.3l-1.041-2.085v-.846l1.38 2.761a.337.337 0 10.602-.301l-1.982-3.968v-.889l2.337 4.68a.337.337 0 00.603-.302l-2.94-5.885V3.532h4.568v10.269a.337.337 0 00.674 0V3.469a1.519 1.519 0 001.082-1.453c0-.836-.68-1.516-1.516-1.516H6.75a.337.337 0 000 .674h10.03a.843.843 0 010 1.685H3.775a.843.843 0 010-1.685h1.419a.337.337 0 000-.674H3.775c-.836 0-1.516.68-1.516 1.516 0 .686.457 1.266 1.082 1.453V18.53c0 2.74 2.23 4.969 4.97 4.969h3.935a4.96 4.96 0 004.696-3.342 2.038 2.038 0 002.852-1.864zM8.798 3.532h.378v4.49l-.378-.757V3.532zM9.85 9.371V3.532h.397v6.634l-.397-.795zm.397 2.303v.889l-.397-.796v-.888l.397.795zm-1.45-2.901l.379.757v.889l-.378-.757v-.89zm0 3.243v-.847l.379.757v.847l-.378-.757zM9.85 14.12v-.846l.397.795v.847l-.397-.796zm1.449 2.901l-.378-.757v-.846l.378.757v.846zm0-2.354l-.378-.756v-.89l.378.758v.888zm0-2.396l-.378-.757V3.532h.378v8.74zm5.198 5.657c.126-.125.444-.142.807-.142h.213c.158.002.326.002.485 0 .447-.003.87-.007 1.02.142.065.065.099.188.099.366a1.363 1.363 0 01-2.723 0c0-.178.033-.301.099-.366zM21.389 21.873a.337.337 0 00-.447.164 1.358 1.358 0 01-1.236.79c-.364 0-.706-.142-.963-.4-.125-.125-.189-.236-.188-.328 0-.212.302-.508.621-.821a29.882 29.882 0 00.343-.343c.313-.32.61-.62.82-.621.092-.001.204.063.33.188.097.097.179.208.242.328a.337.337 0 10.596-.314 2.033 2.033 0 00-.362-.49c-.26-.26-.523-.386-.804-.386h-.004c-.492.002-.866.382-1.299.823l-.166.168-.168.166c-.44.433-.82.806-.823 1.299-.001.282.125.547.386.808.384.384.895.596 1.439.596s1.055-.212 1.44-.596c.17-.17.306-.367.407-.583a.337.337 0 00-.164-.448z" fill="#000"/>
</svg>
