<svg width="24" height="24" fill="none" xmlns="http://www.w3.org/2000/svg">
  <defs/>
  <path d="M11.111 6.436c.27 1.281-.46 2.975-1.74 3.244-1.282.268-2.63-.989-2.899-2.27-.269-1.281.662-2.013 1.943-2.282 1.281-.27 2.428.027 2.696 1.308z" fill="#FB4753"/>
  <path d="M11.111 6.436c-.269-1.281-1.415-1.577-2.696-1.308l-.054.012c.565.175.988.583 1.137 1.296.238 1.132-.303 2.584-1.315 3.093.379.17.786.235 1.187.15 1.282-.268 2.01-1.962 1.741-3.243z" fill="#E21F2D"/>
  <path d="M4.87 17.324a2.206 2.206 0 100-4.412 2.206 2.206 0 000 4.412z" fill="#FB4753"/>
  <path d="M4.871 12.912a2.2 2.2 0 00-.803.151 2.206 2.206 0 010 4.11 2.206 2.206 0 10.803-4.26z" fill="#E21F2D"/>
  <path d="M8.824 17.324a2.206 2.206 0 100-4.412 2.206 2.206 0 000 4.412z" fill="#FB4753"/>
  <path d="M8.824 12.912a2.2 2.2 0 00-.803.151 2.206 2.206 0 010 4.11 2.206 2.206 0 10.803-4.26z" fill="#E21F2D"/>
  <path d="M12.777 17.324a2.206 2.206 0 100-4.412 2.206 2.206 0 000 4.412z" fill="#FB4753"/>
  <path d="M12.777 12.912a2.2 2.2 0 00-.802.151 2.206 2.206 0 010 4.11 2.206 2.206 0 10.803-4.26z" fill="#E21F2D"/>
  <path d="M14.745 11.848c-.269-.012-.52.063-.727.2a.573.573 0 01-.625-.008 1.213 1.213 0 00-1.317 0 .587.587 0 01-.639 0 1.212 1.212 0 00-1.316 0 .587.587 0 01-.639 0 1.212 1.212 0 00-1.316 0 .587.587 0 01-.639 0 1.212 1.212 0 00-1.317 0 .587.587 0 01-.638 0 1.212 1.212 0 00-1.317 0 .573.573 0 01-.626.008 1.213 1.213 0 00-.727-.2 1.218 1.218 0 10.714 2.242.587.587 0 01.64 0 1.212 1.212 0 001.316 0 .587.587 0 01.638 0 1.212 1.212 0 001.317 0 .587.587 0 01.639 0 1.212 1.212 0 001.316 0 .587.587 0 01.639 0 1.212 1.212 0 001.316 0 .587.587 0 01.64 0 1.212 1.212 0 001.316 0 .587.587 0 01.638 0 1.218 1.218 0 10.714-2.242z" fill="#FFD3D5"/>
  <path d="M15.905 12.986a1.22 1.22 0 00-.57-.953l.009.09a1.218 1.218 0 01-1.874 1.104.587.587 0 00-.639 0 1.212 1.212 0 01-1.316 0 .587.587 0 00-.639 0 1.212 1.212 0 01-1.316 0 .587.587 0 00-.64 0 1.212 1.212 0 01-1.316 0 .587.587 0 00-.638 0 1.212 1.212 0 01-1.317 0 .587.587 0 00-.639 0 1.212 1.212 0 01-1.316 0 .587.587 0 00-.639 0 1.212 1.212 0 01-1.303.008 1.218 1.218 0 001.864.855.588.588 0 01.639 0 1.212 1.212 0 001.316 0 .588.588 0 01.64 0 1.212 1.212 0 001.316 0 .588.588 0 01.638 0 1.212 1.212 0 001.317 0 .588.588 0 01.639 0 1.212 1.212 0 001.316 0 .587.587 0 01.639 0 1.212 1.212 0 001.316 0 .588.588 0 01.639 0 1.218 1.218 0 001.874-1.103z" fill="#FFC4C6"/>
  <path d="M16.65 10.93c0-.762-.502-1.432-1.231-1.647-1.21-.357-3.351-.792-6.594-.792-3.243 0-5.385.435-6.594.792a1.716 1.716 0 00.485 3.362h12.217c.948 0 1.716-.768 1.716-1.716z" fill="#FDB143"/>
  <path d="M15.418 9.283c-.08-.024-.165-.048-.254-.072a1.714 1.714 0 01-1.606 2.32H1.34c-.081 0-.161-.006-.24-.017.24.66.872 1.131 1.614 1.131h12.217a1.716 1.716 0 00.486-3.362z" fill="#FA9801"/>
  <path d="M14.873 16.632H2.776a1.776 1.776 0 100 3.551h12.097a1.776 1.776 0 100-3.551z" fill="#FDCB82"/>
  <path d="M14.873 16.632H2.776a1.776 1.776 0 100 3.551h12.097a1.776 1.776 0 100-3.551z" fill="#FDB143"/>
  <path d="M15.212 16.664a1.776 1.776 0 01-1.653 2.423H1.46c-.116 0-.23-.011-.339-.032.259.66.901 1.128 1.654 1.128h12.097a1.776 1.776 0 00.34-3.519z" fill="#FA9801"/>
  <path d="M21.861 18.58c-.418 1.044-1.745 1.907-2.788 1.488-1.043-.418-1.407-1.958-.99-3.002.419-1.043 1.432-1.122 2.476-.704 1.043.418 1.72 1.176 1.302 2.219z" fill="#FB4753"/>
  <path d="M21.86 18.58c.419-1.042-.26-1.8-1.302-2.218l-.045-.017c.32.394.428.886.195 1.467-.369.922-1.447 1.702-2.413 1.583.19.301.45.542.777.673 1.043.418 2.37-.444 2.788-1.487z" fill="#E21F2D"/>
  <path d="M22.47 21.25H1.479a.643.643 0 01-.643-.643v-.296c0-.355.288-.643.643-.643H22.47c.355 0 .643.288.643.643v.296a.643.643 0 01-.643.643z" fill="#E1DEE2"/>
  <path d="M22.471 20.424H1.477a.641.641 0 01-.584-.378.639.639 0 00-.057.263v.3c0 .354.287.641.641.641h20.995a.641.641 0 00.64-.641v-.3a.638.638 0 00-.056-.263.641.641 0 01-.585.378z" fill="#C8C2C9"/>
  <path d="M22.472 19.332h-.658c.15-.198.272-.41.359-.626.237-.593.19-1.165-.136-1.655a2.431 2.431 0 00-.75-.698l.026-.036a3.422 3.422 0 011.933-1.307.336.336 0 10-.164-.652c-.93.233-1.75.789-2.314 1.564l-.09.126c-.613-.245-1.188-.317-1.666-.21-.574.13-1.003.51-1.24 1.103-.298.743-.241 1.674.106 2.39h-1.106a2.11 2.11 0 00-1.745-3.03 2.533 2.533 0 00.22-1.786 1.556 1.556 0 00.994-1.55 1.535 1.535 0 00-.079-.394 2.05 2.05 0 00.823-1.642c0-.903-.605-1.713-1.472-1.968-.905-.267-2.297-.57-4.242-.718.228-.611.292-1.29.169-1.876a.336.336 0 10-.658.138c.11.527.029 1.153-.219 1.693a33.734 33.734 0 00-3.4-.003A2.569 2.569 0 016.8 7.34c-.226-1.074.594-1.564 1.303-1.786l.056.158a.336.336 0 00.633-.226l-.028-.08c.507-.07.946-.031 1.28.118a.336.336 0 00.275-.614c-.481-.215-1.096-.265-1.786-.147l-.016-.045a3.456 3.456 0 00-1.79-1.97 3.456 3.456 0 00-2.659-.13.336.336 0 00.227.633 2.788 2.788 0 012.145.104c.67.316 1.179.872 1.435 1.566-1.341.428-1.985 1.36-1.733 2.557.054.256.146.513.272.762-1.965.145-3.37.451-4.28.72a2.05 2.05 0 00-.649 3.61 1.541 1.541 0 00.34 1.558c.16.171.359.302.575.386a2.541 2.541 0 00.22 1.787 2.114 2.114 0 00-1.664 3.18.978.978 0 00-.457.827v.3c0 .539.438.977.978.977h20.994a.979.979 0 00.977-.977v-.3a.979.979 0 00-.977-.977zm-4.077-2.14c.353-.88 1.181-.822 1.873-.58l-.154.211a.336.336 0 00.544.395l.233-.32c.259.154.458.332.587.525.203.306.227.644.07 1.033-.127.319-.359.627-.657.876H18.66c-.417-.553-.536-1.464-.265-2.14zm-7.07-.896a1.866 1.866 0 01-.346-1.69c.228-.03.446-.109.64-.234a.251.251 0 01.275 0 1.549 1.549 0 001.68 0 .251.251 0 01.276 0c.219.141.469.224.728.243a1.87 1.87 0 01-.349 1.68h-2.904zm-3.952 0a1.85 1.85 0 01-.348-1.685c.243-.025.477-.106.684-.239a.251.251 0 01.275 0 1.55 1.55 0 001.68 0 .251.251 0 01.275 0c.114.073.235.13.362.17a2.543 2.543 0 00.125 1.54 1.875 1.875 0 01-.15.214H7.374zm-3.954 0a1.86 1.86 0 01-.349-1.681c.26-.019.51-.102.729-.243a.251.251 0 01.274 0 1.549 1.549 0 001.68 0 .251.251 0 01.276 0c.101.066.21.118.322.158a2.542 2.542 0 00.121 1.553 1.873 1.873 0 01-.149.213H3.42zm-1.34-3.289a.87.87 0 01.016-.122c.196.062.404.096.62.096h.99a.336.336 0 100-.672h-.99c-.76 0-1.38-.62-1.38-1.38 0-.608.408-1.152.99-1.324 1.205-.355 3.31-.778 6.5-.778 3.188 0 5.293.423 6.498.778.583.172.99.716.99 1.324 0 .761-.62 1.38-1.38 1.38H5.227a.336.336 0 100 .672h9.704c.217 0 .425-.034.621-.096a.876.876 0 01-.22.783.879.879 0 01-1.12.139.928.928 0 00-1.002 0 .878.878 0 01-.953 0 .928.928 0 00-1.002 0 .878.878 0 01-.953 0 .928.928 0 00-1.003 0 .878.878 0 01-.952 0 .928.928 0 00-1.003 0 .878.878 0 01-.952 0 .928.928 0 00-1.003 0 .878.878 0 01-.953 0 .928.928 0 00-1.002 0 .878.878 0 01-1.12-.139.876.876 0 01-.237-.66zm20.698 7.602a.306.306 0 01-.305.305H1.477a.306.306 0 01-.305-.305v-.3c0-.168.137-.305.306-.305H12.33a.336.336 0 100-.672H1.67a1.441 1.441 0 011.103-2.364h12.099a1.441 1.441 0 011.104 2.364h-2.168a.336.336 0 100 .672h8.663c.168 0 .305.137.305.305v.3z" fill="#000"/>
</svg>
