<svg width="24" height="24" fill="none" xmlns="http://www.w3.org/2000/svg">
  <defs/>
  <g fill-rule="evenodd" clip-rule="evenodd">
    <path d="M21.452 5.546l-7.562-.758-.85 1.078 1.02.698 2.267 1.553c.343.192.821.176 1.374-.178l3.751-2.393z" fill="#ECECEC"/>
    <path d="M22.07 4.118h-8.91c-.26 0-.519.084-.65.218L10.938 5.6c-.932.75.089 1.885 1.049 1.113l1.053-.848.4-.32H22.07a.717.717 0 00.715-.714.715.715 0 00-.715-.714z" fill="#FFD659"/>
    <path d="M21.452 5.546H13.44l-.399.32.706.483h6.45l1.256-.803z" fill="#CECECE"/>
    <path d="M22.784 4.831a.716.716 0 00-.714-.713h-1.588a.713.713 0 01.005 1.428h1.583a.717.717 0 00.714-.715z" fill="#FFBF00"/>
    <path d="M7.71 14.785a3.607 3.607 0 00-3.268-2.063c-1.444 0-2.69.844-3.265 2.063-.217.46-.338.975-.338 1.516 0 .277.032.546.09.805a3.602 3.602 0 003.513 2.775 3.6 3.6 0 003.514-2.775 3.574 3.574 0 00-.247-2.321z" fill="#838383"/>
    <path d="M7.709 14.785a3.607 3.607 0 00-3.74-2.033 3.61 3.61 0 012.277 1.927c.223.476.338.992.338 1.517a3.589 3.589 0 01-3.13 3.549c.314.089.646.136.988.136a3.6 3.6 0 003.513-2.775 3.574 3.574 0 00-.246-2.321z" fill="#595959"/>
    <path d="M6.759 16.301a2.307 2.307 0 00-2.316-2.298A2.307 2.307 0 002.128 16.3c0 1.27 1.037 2.3 2.315 2.3a2.308 2.308 0 002.316-2.3z" fill="#ECECEC"/>
    <path d="M5.726 10.587L3.907 15.93l.535.372.71-.471 1.8-5.243-.543-.411-.683.411z" fill="#03BED7"/>
    <path d="M7.952 9.217H4.697a.686.686 0 000 1.37h3.255a.688.688 0 00.685-.685.687.687 0 00-.685-.685z" fill="#838383"/>
    <path d="M13.63 9.023c-.222-.934-1.612-.575-1.403.312l.29 1.23.918.566.519-.738-.325-1.37z" fill="#ECECEC"/>
    <path d="M21.689 11.29c-.36-.896-1-1.702-2.074-1.573l-5.661.676-1.436.171c-.48.058-.623.59-.505.907l.258.691.605 1.617.41 1.098c.425-1.408 8.265-1.643 8.265 1.207h1.087c.198 0 .637-.146.493-.71L21.69 11.29z" fill="#03BED7"/>
    <path d="M8.638 9.902a.687.687 0 00-.686-.685h-.776c.376 0 .685.308.685.685a.688.688 0 01-.685.685h.776a.688.688 0 00.686-.685z" fill="#595959"/>
    <path d="M5.152 15.83l-1.244.099a.548.548 0 00.048 1.095c2.063.15 4.127.297 6.19.445 1.246.125 1.487-1.216.815-1.788-.205-.173-.492-.276-.86-.247-1.65.133-3.3.263-4.949.396z" fill="#FFD659"/>
    <path d="M3.43 16.456l-.039-.003c-.014.268.163.542.565.572l6.19.445c1.246.124 1.487-1.217.815-1.789a1.013 1.013 0 00-.23-.146c.24.63-.05 1.314-1.044 1.214-2.063-.148-4.193-.145-6.256-.293z" fill="#FFBF00"/>
    <path d="M21.689 11.29c-.36-.896-1-1.702-2.073-1.573l-1.055.125c1.075-.128 1.713.678 2.074 1.574l1.443 4.084c.075.298-.012.48-.14.584h.7c.198 0 .637-.146.493-.71L21.69 11.29z" fill="#0099B1"/>
    <path d="M13.63 9.023c-.136-.576-.719-.66-1.095-.431.2.068.369.232.435.51l.324 1.37.66-.08-.324-1.37z" fill="#CECECE"/>
    <path d="M20.617 14.785a3.605 3.605 0 00-3.265-2.063 3.605 3.605 0 00-3.266 2.063 3.544 3.544 0 00-.247 2.321 3.601 3.601 0 003.513 2.775 3.601 3.601 0 003.513-2.775 3.577 3.577 0 00-.248-2.321z" fill="#838383"/>
    <path d="M20.618 14.785a3.605 3.605 0 00-3.74-2.033 3.61 3.61 0 012.277 1.927c.225.476.339.992.339 1.517a3.589 3.589 0 01-3.13 3.549c.313.089.645.136.988.136a3.601 3.601 0 003.514-2.775 3.571 3.571 0 00-.248-2.321z" fill="#595959"/>
    <path d="M19.468 16.301c0-1.16-.947-2.101-2.116-2.101-1.17 0-2.117.94-2.117 2.101a2.11 2.11 0 002.117 2.103 2.11 2.11 0 002.116-2.103z" fill="#ECECEC"/>
    <path d="M21.552 16.084c0-2.315-1.89-4.191-4.222-4.191a4.219 4.219 0 00-4.164 3.498c-.103.62.048.693.587.693h7.799z" fill="#FFD659"/>
    <path d="M21.551 16.076c-.005-2.31-1.892-4.183-4.221-4.183-.3 0-.594.03-.876.09a4.23 4.23 0 012.865 2.16c.306.58.48 1.24.48 1.94h1.752v-.007z" fill="#FFBF00"/>
  </g>
  <path d="M23.461 15.291a.328.328 0 00-.009-.03l-1.443-4.083a.53.53 0 00-.005-.014c-.512-1.276-1.375-1.91-2.428-1.784l-.563.067.592-2.319 1.947-1.242h.519a1.054 1.054 0 000-2.106h-4.504a.34.34 0 100 .678h4.504a.375.375 0 110 .749H13.44a.34.34 0 00-.213.075l-.389.312a.36.36 0 00-.018.015l-1.046.841c-.338.272-.645.206-.787.03-.114-.142-.13-.377.164-.615l1.572-1.264a.332.332 0 00.03-.027c.047-.048.205-.116.407-.116h2.888a.34.34 0 000-.679H13.16c-.347 0-.68.116-.875.303l-1.56 1.255c-.609.49-.595 1.16-.267 1.568.196.244.513.406.87.406.278 0 .581-.098.872-.332l.857-.69.783.536 1.455 3.066-1.057.127-.253-1.069c-.16-.679-.767-.91-1.283-.788-.506.12-.96.603-.803 1.262l.218.924a.922.922 0 00-.384.434l-1.067-.617a.34.34 0 00-.34.588l1.35.78a.92.92 0 00.02.058l.353.944H8.622l-1.044-1.607h.375a1.026 1.026 0 000-2.05H4.697a1.026 1.026 0 000 2.05h.556l-.5 1.468a3.96 3.96 0 00-.31-.012C2.27 12.383.5 14.14.5 16.302c0 2.16 1.769 3.919 3.943 3.919.87 0 1.695-.276 2.386-.798a3.954 3.954 0 001.312-1.757l1.977.142c.062.006.123.01.183.01.503 0 .92-.212 1.162-.595.271-.429.27-1.02 0-1.469l-.037-.056 1.317-1.307.187.5c-.04.146-.073.295-.098.445-.051.305-.072.618.118.842.12.141.28.202.46.227.055 2.114 1.802 3.816 3.942 3.816 2.134 0 3.878-1.693 3.943-3.797H22.639a.895.895 0 00.694-.33c.114-.147.23-.406.128-.803zM13.67 5.886h6.62l-2.77 1.768c-.394.25-.753.312-1.014.174l-2.837-1.942zm1.296 1.71l1.17.802a1.333 1.333 0 00.68.182c.29 0 .65-.087 1.069-.354l.882-.563-.477 1.87-2.276.272-1.048-2.208zM12.86 8.83c.087-.02.376-.06.457.278l.235.993-.767.091-.218-.925c-.08-.338.255-.428.293-.437zm-4.75 4.165a.339.339 0 00.08.12l1.317 2.028-1.266.1a3.964 3.964 0 00-1.743-2.285l.55-1.6 1.063 1.637zm-2.044 1.22l.205-.596c.599.403 1.052 1 1.277 1.68l-.63.05a2.626 2.626 0 00-.852-1.135zm.135 1.192l-.56.044.188-.545c.15.146.276.315.372.5zm-1.504-5.158a.346.346 0 010-.691h3.256c.19 0 .345.155.345.346a.35.35 0 01-.345.345H4.697zm1.273.68h.507l-1.573 4.581-.508.04 1.574-4.622zm-1.527 8.614c-1.8 0-3.264-1.454-3.264-3.24 0-1.787 1.464-3.24 3.264-3.24l.082.001-.205.604a2.648 2.648 0 00-2.531 2.635 2.65 2.65 0 002.654 2.639c.978 0 1.868-.532 2.33-1.373l.655.047a3.285 3.285 0 01-2.985 1.927zm-.511-2.179l2.066.149c-.369.466-.938.75-1.555.75a1.97 1.97 0 01-1.975-1.96c0-.957.695-1.755 1.61-1.925l-.43 1.263a.886.886 0 00-.596.845c.001.393.277.835.88.878zm6.957-.502c-.133.21-.378.304-.709.271h-.01l-2.236-.162h-.008l-3.946-.284c-.163-.011-.249-.082-.25-.203 0-.02.006-.2.205-.215l6.194-.495a1.19 1.19 0 01.093-.004c.295 0 .527.118.66.336.139.231.142.542.007.756zm.028-1.614a1.514 1.514 0 00-.633-.155l-1.221-1.88h3.24l.179.481-1.565 1.554zm6.435 4.295c-1.759 0-3.197-1.388-3.262-3.118h.81a2.424 2.424 0 00.616 1.498l.007.007c.45.5 1.103.815 1.83.815.725 0 1.379-.316 1.829-.815l.007-.007a2.424 2.424 0 00.616-1.499h.81c-.065 1.73-1.503 3.119-3.263 3.119zM15.8 17.158a1.74 1.74 0 01-.22-.734h.953l-.733.734zm1.213-.254v1.128a1.776 1.776 0 01-.771-.356l.77-.772zm1.45.772c-.22.176-.483.3-.771.356v-1.128l.771.772zm-.292-1.252h.954a1.74 1.74 0 01-.22.734l-.734-.734zm4.625-.746c-.036.046-.122.067-.157.067h-.76c-.176-2.34-2.148-4.191-4.548-4.191-.36 0-.718.041-1.064.123a.34.34 0 00.157.661c.295-.07.6-.105.907-.105 2.025 0 3.693 1.546 3.867 3.512h-1.74-2.105H13.754c-.157 0-.237-.008-.277-.016a1.255 1.255 0 01.024-.281 3.858 3.858 0 011.746-2.614.34.34 0 10-.363-.574 4.556 4.556 0 00-1.58 1.695l-.111-.3-.001-.003-.86-2.3a.419.419 0 01.04-.33.236.236 0 01.187-.12l7.098-.848c.74-.088 1.316.368 1.715 1.357l1.434 4.061c.015.06.028.157-.01.206z" fill="#000"/>
</svg>
