<svg width="24" height="24" fill="none" xmlns="http://www.w3.org/2000/svg">
  <defs/>
  <path d="M15.147 20.32c-.168-.39-.384-.975-.553-1.713h-1.127a.367.367 0 01-.367-.367h-.734a.367.367 0 01-.367.367H9.404c-.17.738-.385 1.322-.552 1.712h6.295z" fill="#F2EBD9"/>
  <path d="M13.1 18.24c0-.203.165-.368.368-.368h.985c-.012-.08-.025-.16-.036-.244-.234-1.743-.139-4.396 1.592-7.251a11.442 11.442 0 01-3.134-7.24.367.367 0 01.056-.216 1.103 1.103 0 00-.565-1.624V9.29a1.102 1.102 0 11-1.468 1.038c0-.479.307-.887.735-1.038V1.297a1.103 1.103 0 00-.565 1.624c.04.065.06.14.056.217a11.441 11.441 0 01-3.134 7.239c1.731 2.855 1.826 5.508 1.592 7.251-.011.083-.023.164-.036.244H12c.202 0 .367.165.367.367h.734zm-.231-1.452c-.105-2.225.39-4.392 1.47-6.44a.367.367 0 01.649.343c-1.018 1.93-1.484 3.97-1.386 6.063a.367.367 0 01-.733.034z" fill="#FFCC75"/>
  <path d="M8.268 21.053h-.433l-.343 1.713h9.014l-.342-1.713H8.268z" fill="#274B6D"/>
  <path d="M17.314 23.061l-.49-2.447a.367.367 0 00-.36-.295h-.51a9.457 9.457 0 01-.814-2.82c-.317-2.421.236-4.768 1.642-6.975a.367.367 0 00-.05-.457 10.71 10.71 0 01-3.117-6.862A1.837 1.837 0 0012 .5a1.837 1.837 0 00-1.616 2.705 10.708 10.708 0 01-3.117 6.862.367.367 0 00-.05.457c1.406 2.207 1.959 4.554 1.642 6.975a9.46 9.46 0 01-.815 2.82h-.51a.367.367 0 00-.36.295l-.49 2.447a.367.367 0 00.36.439h9.91a.367.367 0 00.36-.439zm-9.822-.295l.343-1.713h8.329l.343 1.713H7.492zm1.912-4.16H12a.367.367 0 100-.734H9.546c.013-.08.025-.16.036-.244.234-1.743.139-4.396-1.592-7.251a11.441 11.441 0 003.134-7.24.367.367 0 00-.056-.216 1.103 1.103 0 01.565-1.624V9.29a1.102 1.102 0 101.468 1.038c0-.479-.307-.887-.734-1.038V1.297a1.103 1.103 0 01.564 1.624.367.367 0 00-.056.217 11.44 11.44 0 003.134 7.239c-1.731 2.855-1.826 5.508-1.592 7.251.011.083.023.164.036.244h-.985a.367.367 0 000 .735h1.127c.169.738.384 1.322.552 1.712H8.852c.168-.39.383-.974.552-1.712zM12 9.96a.367.367 0 110 .734.367.367 0 010-.734z" fill="#082947"/>
  <path d="M13.253 17.138a.367.367 0 00.35-.384c-.099-2.093.367-4.133 1.385-6.063a.367.367 0 10-.65-.342c-1.079 2.047-1.573 4.213-1.469 6.44a.367.367 0 00.384.349z" fill="#fff"/>
</svg>
