<svg width="24" height="24" fill="none" xmlns="http://www.w3.org/2000/svg">
  <defs/>
  <path d="M21.176 14.63H7.229a.367.367 0 01-.367-.367h-.734a.367.367 0 01-.367.367H2.825a.367.367 0 01-.367-.367h-.734v2.814a2.572 2.572 0 002.569 2.57h15.415a2.572 2.572 0 002.569-2.57v-2.814h-.734a.367.367 0 01-.367.367zm-3.501 3.365a.367.367 0 110-.734.367.367 0 010 .734zm1.468-.979a.367.367 0 110-.734.367.367 0 010 .734z" fill="#6DA8D6"/>
  <path d="M3.07 13.162H1.724v1.101h.734c0-.202.164-.367.367-.367H5.76c.203 0 .367.165.367.367h.734c0-.202.164-.367.367-.367h13.947c.203 0 .367.165.367.367h.734v-1.1H3.07z" fill="#F2EBD9"/>
  <path d="M2.873 10.562a.537.537 0 00-.138-.412.537.537 0 00-.4-.169.537.537 0 00-.4.17.537.537 0 00-.137.411l.143 1.866h.789l.143-1.866zM7.816 9.247h-.734v1.224h.734V9.247z" fill="#6DA8D6"/>
  <path d="M20.662 10.287l1.028-.428-1.028-.428v.856z" fill="#F2EBD9"/>
  <path d="M19.927 9.247H8.55v1.224h11.377V9.247z" fill="#FFCC75"/>
  <path d="M5.687 10.47h.66V9.248h-.66c-.12 0-.22.101-.22.22v.784c0 .119.1.22.22.22z" fill="#F2484B"/>
  <path d="M5.688 11.205h14.607a.374.374 0 00.065-.006l.007-.001a.339.339 0 00.07-.021l.002-.002 2.346-.977a.367.367 0 000-.678l-2.345-.977a.364.364 0 00-.073-.022l-.006-.001a.356.356 0 00-.066-.007H5.688a.955.955 0 00-.955.955v.783c0 .526.428.954.955.954zm-.22-1.737c0-.12.1-.22.22-.22h.66v1.223h-.66c-.12 0-.22-.101-.22-.22v-.783zm15.194.82V9.43l1.028.428-1.028.428zm-.734.183H8.55V9.247h11.378v1.224zm-12.112 0h-.734V9.247h.734v1.224z" fill="#082947"/>
  <path d="M7.082 5.906l-1.615.337v.381l1.615.337V5.906zM19.928 5.822v1.223h.66c.12 0 .22-.1.22-.22v-.783c0-.12-.1-.22-.22-.22h-.66z" fill="#185F8D"/>
  <path d="M19.194 5.822H7.816v1.223h11.378V5.822z" fill="#6DA8D6"/>
  <path d="M5.026 7.282l2.348.49c.024.005.05.007.075.007h13.14a.955.955 0 00.954-.954V6.8h1.101a.367.367 0 100-.735h-1.101v-.024a.955.955 0 00-.954-.954h-.66v-.123c0-.742-.605-1.345-1.347-1.345h-3.66a.367.367 0 100 .734h3.66c.338 0 .612.274.612.611v.123H7.449a.37.37 0 00-.075.008l-2.348.489a.367.367 0 00-.293.36v.978c0 .174.122.324.293.36zm15.783-1.24v.783c0 .12-.1.22-.22.22h-.66V5.822h.66c.12 0 .22.1.22.22zm-1.615 1.003H7.816V5.822h11.378v1.223zM5.467 6.243l1.615-.337v1.055l-1.615-.337v-.381zM19.142 17.016a.367.367 0 100-.734.367.367 0 000 .734zM17.675 17.995a.367.367 0 100-.735.367.367 0 000 .735z" fill="#082947"/>
  <path d="M23.133 12.428H3.465l.14-1.81a1.263 1.263 0 00-1.27-1.37 1.263 1.263 0 00-1.27 1.37l.14 1.81H.867a.367.367 0 000 .734h.122v3.915a3.307 3.307 0 003.304 3.303h15.414a3.307 3.307 0 003.304-3.303v-3.915h.122a.367.367 0 000-.734zm-.856 4.65a2.572 2.572 0 01-2.57 2.568H4.293a2.572 2.572 0 01-2.57-2.569v-3.915h20.554v3.915zm-20.48-6.516a.537.537 0 01.138-.412.537.537 0 01.4-.169c.157 0 .3.06.4.17.1.108.15.255.138.411l-.144 1.866h-.788l-.144-1.866z" fill="#082947"/>
  <path d="M7.228 14.63h13.947a.367.367 0 100-.734H7.228a.367.367 0 100 .734zM2.824 14.63H5.76a.367.367 0 100-.734H2.824a.367.367 0 100 .734z" fill="#082947"/>
</svg>
