<svg width="24" height="24" fill="none" xmlns="http://www.w3.org/2000/svg">
  <defs/>
  <path d="M13.298 16.239l6.375 6.375 1.211-1.211-2.915-2.915a.367.367 0 11.52-.519l2.914 2.915 1.211-1.211-6.375-6.375a.367.367 0 010-.52l-.519-.518-3.46 3.46.519.519a.367.367 0 01.519 0zm1.21-1.73a.367.367 0 01.52 0l1.73 1.73a.367.367 0 01-.52.519l-1.73-1.73a.367.367 0 010-.52zM11.221 7.761a.367.367 0 01-.519 0L6.876 3.935A2.317 2.317 0 015.509 4.99L9.49 8.972a.367.367 0 11-.519.52L4.99 5.508a2.316 2.316 0 01-1.055 1.367l3.826 3.826a.367.367 0 010 .52l.519.518 3.46-3.46-.519-.519zM2.67 2.006l-1.128-.464.464 1.127.663-.663z" fill="#F2484B"/>
  <path d="M6.281 3.493L3.404 2.31 2.31 3.405 3.493 6.28c.141-.073.273-.168.389-.284.347-.347.507-.818.43-1.26a.367.367 0 01.425-.425c.442.078.913-.083 1.26-.43.115-.116.21-.247.284-.389z" fill="#FFCC75"/>
  <path d="M23.392 19.413l-6.634-6.635a.367.367 0 00-.52.52l6.376 6.375-1.211 1.21-2.915-2.914a.367.367 0 10-.52.519l2.916 2.915-1.212 1.21-6.375-6.374a.367.367 0 00-.519.519l6.635 6.634a.366.366 0 00.52 0l3.46-3.46a.367.367 0 000-.519zM7.761 10.703L3.935 6.877A2.32 2.32 0 004.99 5.51l3.982 3.982a.366.366 0 00.52 0 .367.367 0 000-.519L5.508 4.991a2.317 2.317 0 001.367-1.055l3.826 3.826a.367.367 0 00.52-.519L7.008 3.031l-.002-.002-.01-.01a.368.368 0 00-.108-.068L3.458 1.538l-.003-.001L1.007.529a.367.367 0 00-.48.479l1.009 2.447.001.004L2.95 6.89c.017.042.042.08.073.113l.004.004.003.003 4.212 4.212a.366.366 0 00.52 0 .367.367 0 000-.519zm-3.024-6.39a.367.367 0 00-.425.425c.077.442-.083.913-.43 1.26a1.572 1.572 0 01-.389.284L2.31 3.405 3.405 2.31 6.28 3.494a1.572 1.572 0 01-.284.389c-.347.347-.818.507-1.26.43zM2.669 2.007l-.663.663-.464-1.127 1.127.464z" fill="#082947"/>
  <path d="M16.239 16.758a.366.366 0 10.519-.52l-1.73-1.73a.367.367 0 10-.52.52l1.73 1.73z" fill="#082947"/>
  <path d="M19.599 6.516a2.273 2.273 0 01-.59-1.007L9.42 15.1a.366.366 0 11-.52-.519l9.592-9.59a2.318 2.318 0 01-1.367-1.055L1.386 19.672l1.21 1.21 4.92-4.918a.367.367 0 01.519.52l-4.92 4.918 1.212 1.21L20.065 6.877a2.313 2.313 0 01-.466-.36zM21.994 2.67l.465-1.128-1.128.464.663.663z" fill="#FF6E1D"/>
  <path d="M18.003 3.882c.347.347.818.508 1.26.43a.367.367 0 01.425.425c-.078.442.083.913.43 1.26.116.116.247.211.389.284l1.184-2.876-1.096-1.096-2.876 1.184c.073.142.169.273.284.39z" fill="#FFCC75"/>
  <path d="M20.97 7.009l.003-.003.004-.004a.367.367 0 00.073-.113l1.413-3.43.002-.005 1.007-2.447a.367.367 0 00-.479-.48l-2.448 1.009-.003.001L17.11 2.95a.368.368 0 00-.108.068l-.01.01-.002.002-5.25 5.25-3.46 3.46-7.673 7.673a.367.367 0 000 .52l3.46 3.46a.367.367 0 00.519 0l7.672-7.673 3.46-3.46 5.251-5.251zM3.116 21.403l4.919-4.919a.367.367 0 00-.52-.519l-4.918 4.919-1.211-1.211L17.124 3.935A2.318 2.318 0 0018.49 4.99L8.9 14.58a.367.367 0 00.52.52l9.59-9.59a2.314 2.314 0 001.055 1.367L4.327 22.613l-1.21-1.211zm17.48-19.094l1.095 1.096-1.184 2.876a1.574 1.574 0 01-.39-.284c-.346-.347-.507-.818-.429-1.26a.367.367 0 00-.425-.425c-.442.078-.913-.083-1.26-.43a1.575 1.575 0 01-.284-.389l2.876-1.184zm1.398.36l-.663-.663 1.127-.464-.464 1.127z" fill="#082947"/>
</svg>
