<svg width="24" height="24" fill="none" xmlns="http://www.w3.org/2000/svg">
  <defs/>
  <path d="M9.21 19.505l-.01.008a.366.366 0 01-.108.07L5.66 20.994l-.002.001-2.448 1.009a.367.367 0 01-.48-.48l1.008-2.447.002-.005 1.413-3.43a.367.367 0 01.069-.108l.008-.01.002-.002 10-10 1.29-1.29 1.73-1.73c.073-.072.15-.137.233-.196v-.875a.367.367 0 01-.326-.198H1.969v21.532h11.5v-4.282c0-.203.164-.367.367-.367h4.282v-6.33c0-.203.164-.367.367-.367v-1.19l-9.273 9.272-.002.003z" fill="#fff"/>
  <path d="M17.598 18.851h-3.396v3.396l3.396-3.396z" fill="#98D9D5"/>
  <path d="M17.222 8.032l-1.47 1.47a.366.366 0 01-.52 0 .367.367 0 010-.518l1.47-1.47-1.21-1.212-9.354 9.354a2.317 2.317 0 011.055 1.367l6.655-6.655a.367.367 0 01.52.519l-6.656 6.655a2.316 2.316 0 011.367 1.055l9.354-9.354-1.211-1.21z" fill="#6DA8D6"/>
  <path d="M4.208 19.863l-.464 1.127 1.128-.464-.664-.663z" fill="#274B6D"/>
  <path d="M8.2 18.65c-.347-.347-.818-.508-1.26-.43a.367.367 0 01-.425-.425c.077-.442-.083-.913-.43-1.26a1.574 1.574 0 00-.389-.284l-1.184 2.876 1.096 1.096 2.876-1.184a1.572 1.572 0 00-.284-.39z" fill="#FFCC75"/>
  <path d="M16.01 5.783l2.942 2.941.77-.77-2.94-2.941-.771.77z" fill="#F2EBD9"/>
  <path d="M22.027 5.076a1.09 1.09 0 00-.315-.67l-1.384-1.383a1.093 1.093 0 00-.082-.074l-.04-.03-.048-.035c-.019-.013-.039-.024-.059-.035-.01-.006-.021-.014-.033-.02a1.075 1.075 0 00-.085-.04l-.01-.004a1.107 1.107 0 00-.843 0c-.005.001-.01.004-.014.006a1.09 1.09 0 00-.082.038l-.036.021-.056.034c-.017.011-.033.024-.05.036l-.038.029a1.114 1.114 0 00-.082.074l-1.47 1.47 2.941 2.942 1.47-1.471a1.09 1.09 0 00.316-.888z" fill="#F2484B"/>
  <path d="M18.117 11.787v6.33h-4.282a.367.367 0 00-.367.367v4.282h-11.5V1.234h16.19a.367.367 0 00.693-.169V.867A.367.367 0 0018.484.5H1.601a.367.367 0 00-.367.367v22.266c0 .203.165.367.367.367h12.234a.344.344 0 00.064-.006l.009-.001a.396.396 0 00.03-.008h.004a.363.363 0 00.03-.012l.004-.001a.391.391 0 00.027-.013l.006-.003a.373.373 0 00.023-.014l.008-.004a.38.38 0 00.02-.015l.008-.006a.375.375 0 00.024-.022l.003-.003 4.649-4.648.002-.003a.364.364 0 00.022-.024l.005-.007a.37.37 0 00.017-.022l.003-.006a.34.34 0 00.015-.025l.002-.004a.417.417 0 00.013-.028l.002-.003a.356.356 0 00.01-.031l.002-.004a.388.388 0 00.007-.03l.002-.01.004-.026a.373.373 0 00.001-.037v-6.697a.367.367 0 10-.734 0zm-.519 7.064l-3.395 3.396V18.85h3.395z" fill="#082947"/>
  <path d="M22.766 5.185c0-.491-.19-.952-.535-1.297l-1.385-1.384a1.833 1.833 0 00-2.595 0l-1.73 1.73-1.29 1.29-10 9.999-.001.002-.009.01a.366.366 0 00-.069.108l-1.413 3.43c0 .002 0 .003-.002.005L2.73 21.525a.367.367 0 00.479.48l2.448-1.009h.003l3.431-1.414a.37.37 0 00.108-.069l.01-.009.002-.002 9.273-9.273.727-.726 3.02-3.02c.345-.345.535-.806.535-1.298zm-1.054.779l-1.471 1.47-2.941-2.94 1.47-1.471c.027-.027.054-.051.082-.075l.038-.028c.017-.012.033-.025.05-.036l.056-.034.036-.02a1.09 1.09 0 01.082-.04l.013-.006a1.107 1.107 0 01.844 0l.01.005.085.04.033.02c.02.011.04.022.059.035.016.01.032.023.047.035.014.01.028.019.04.03.029.023.056.047.082.074l1.385 1.384a1.09 1.09 0 01.315.888 1.09 1.09 0 01-.316.669zM8.718 18.13a2.271 2.271 0 00-1.007-.589l6.655-6.655a.367.367 0 00-.518-.52l-6.656 6.656a2.315 2.315 0 00-1.055-1.367l9.354-9.354 1.211 1.211-1.47 1.47a.367.367 0 00.518.52l1.471-1.47 1.211 1.21-9.354 9.354a2.317 2.317 0 00-.36-.466zm-4.51 1.732l.663.663-1.127.464.464-1.127zm1.399.36L4.51 19.127l1.184-2.876c.142.073.273.168.39.284.346.347.507.818.429 1.26a.367.367 0 00.425.425c.442-.078.913.083 1.26.43.116.116.211.247.284.389l-2.876 1.184zM18.95 8.724l-2.94-2.941.77-.77 2.94 2.94-.77.771z" fill="#082947"/>
</svg>
