<svg width="24" height="24" fill="none" xmlns="http://www.w3.org/2000/svg">
  <defs/>
  <path d="M11.74 7.243l-1.384 1.384a.366.366 0 01-.52 0 .367.367 0 010-.52l1.125-1.124-.981-.981-1.125 1.124a.366.366 0 01-.519 0 .367.367 0 010-.519l1.125-1.124-.982-.982-1.125 1.125a.366.366 0 01-.519 0 .367.367 0 010-.52L7.96 3.983 5.365 1.387l-3.98 3.98 5.857 5.855a.367.367 0 010 .519l.519.519 4.498-4.498-.52-.52zM5.45 5.453a1.094 1.094 0 01-.778.322 1.102 1.102 0 010-2.202 1.102 1.102 0 01.779 1.88zM12.778 16.758l5.856 5.856 3.98-3.98-2.596-2.594-1.124 1.124a.366.366 0 01-.52 0 .367.367 0 010-.519l1.125-1.124-.981-.982-1.125 1.125a.366.366 0 01-.519 0 .367.367 0 010-.52l1.125-1.124-.982-.981-1.124 1.124a.366.366 0 11-.52-.519l1.384-1.384-.519-.52-4.498 4.5.52.518a.367.367 0 01.518 0zm5.77 1.79c.208-.208.484-.322.778-.322a1.102 1.102 0 010 2.202 1.102 1.102 0 01-.779-1.88z" fill="#98D9D5"/>
  <path d="M4.674 3.573a1.102 1.102 0 000 2.202 1.102 1.102 0 000-2.202zm.26 1.36a.365.365 0 01-.52 0 .368.368 0 11.52 0zM19.326 20.428a1.102 1.102 0 000-2.202 1.102 1.102 0 000 2.202zm-.26-1.36a.365.365 0 01.52 0 .367.367 0 11-.52 0z" fill="#082947"/>
  <path d="M7.242 11.222L1.386 5.366l3.98-3.979L7.96 3.982 6.836 5.107a.367.367 0 10.519.519L8.479 4.5l.982.982-1.125 1.124a.367.367 0 10.52.52L9.98 6.001l.981.981-1.124 1.125a.367.367 0 10.52.519l1.383-1.384a.367.367 0 000-.52L5.625.609a.367.367 0 00-.52 0L.608 5.107a.367.367 0 000 .519l6.116 6.115a.366.366 0 10.519-.52zM17.276 12.26a.367.367 0 00-.519 0l-1.384 1.384a.367.367 0 10.52.519l1.124-1.124.981.981-1.124 1.125a.367.367 0 00.519.519l1.124-1.125.982.982-1.125 1.124a.367.367 0 00.52.52l1.124-1.125 2.595 2.595-3.98 3.979-5.855-5.856a.367.367 0 00-.52.52l6.116 6.114a.366.366 0 00.52 0l4.498-4.498a.367.367 0 000-.519l-6.116-6.115z" fill="#082947"/>
  <path d="M17.954 6.565l-1.47 1.47a.366.366 0 11-.52-.519l1.471-1.47-1.211-1.211-12.29 12.29A2.318 2.318 0 014.99 18.49l9.59-9.59a.367.367 0 01.52.518L5.509 19.01a2.316 2.316 0 011.367 1.055l12.29-12.29-1.212-1.21z" fill="#6DA8D6"/>
  <path d="M17.514 3.545l-.77.77 2.94 2.942.77-.77-2.94-2.942z" fill="#F2EBD9"/>
  <path d="M2.006 21.33l-.464 1.128 1.127-.464-.663-.663z" fill="#274B6D"/>
  <path d="M5.996 20.118c-.347-.347-.817-.508-1.26-.43a.367.367 0 01-.424-.425c.077-.442-.083-.913-.43-1.26a1.57 1.57 0 00-.389-.284L2.31 20.596l1.095 1.095 2.877-1.184a1.573 1.573 0 00-.285-.389z" fill="#FFCC75"/>
  <path d="M20.974 5.967l1.47-1.47c.43-.43.43-1.128 0-1.557l-1.383-1.384a1.102 1.102 0 00-1.558 0l-.692.692a.367.367 0 01-.519 0l-.519.519 3.201 3.2z" fill="#F2484B"/>
  <path d="M19.944 8.036l3.02-3.02a1.837 1.837 0 000-2.595l-1.385-1.384a1.837 1.837 0 00-2.595 0l-.692.692a.367.367 0 00.52.519l.691-.692c.43-.43 1.128-.43 1.557 0l1.384 1.384c.43.429.43 1.127 0 1.557l-1.47 1.47-3.2-3.2a.367.367 0 00-.52 0l-1.289 1.289-3.706 3.706-4.498 4.498L3.03 16.99l-.002.003-.01.01a.366.366 0 00-.068.107l-1.413 3.431a.544.544 0 00-.001.003L.528 22.994a.367.367 0 00.479.48l2.448-1.009h.003l3.431-1.414a.368.368 0 00.108-.07l.01-.007.002-.003 4.731-4.73 4.498-4.5 3.706-3.704zM3.404 21.69L2.31 20.596l1.184-2.877c.142.073.273.169.389.285.347.346.507.817.43 1.26a.367.367 0 00.425.424c.442-.077.913.083 1.26.43.115.116.21.247.284.389L3.405 21.69zM6.517 19.6a2.272 2.272 0 00-1.007-.589l9.59-9.59a.367.367 0 10-.518-.52L4.99 18.491a2.314 2.314 0 00-1.055-1.367l12.29-12.29 1.21 1.212-1.47 1.47a.367.367 0 00.519.52l1.47-1.471 1.211 1.21-12.29 12.29a2.314 2.314 0 00-.36-.466zM19.684 7.257l-2.94-2.941.77-.77 2.94 2.94-.77.77zM2.006 21.33l.663.663-1.127.464.464-1.127z" fill="#082947"/>
</svg>
