<svg width="24" height="24" fill="none" xmlns="http://www.w3.org/2000/svg">
  <defs/>
  <path d="M17.2 22.766v-7.945c-.563.23-1.174.35-1.798.35-1.15 0-2.228-.402-3.035-1.106v3.33a.367.367 0 01-.734 0v-3.33c-.806.704-1.884 1.106-3.034 1.106-.624 0-1.236-.12-1.798-.35v7.945h4.832v-3.904a.367.367 0 01.734 0v3.904H17.2z" fill="#6DA8D6"/>
  <path d="M10.231 6.066h3.538L12 1.821l-1.769 4.245z" fill="#274B6D"/>
  <path d="M8.598 14.437c1.269 0 2.428-.574 3.102-1.534a.367.367 0 01.6 0c.674.96 1.834 1.534 3.102 1.534a4 4 0 001.699-.374L14.075 6.8h-4.15L6.9 14.063a4.001 4.001 0 001.7.374z" fill="#FFCC75"/>
  <path d="M17.933 14.225v-.003a.366.366 0 00-.028-.137L14.66 6.294l-.003-.006L12.34.726a.367.367 0 00-.678 0L9.343 6.289l-.001.004-3.247 7.792a.367.367 0 00-.028.138v8.91c0 .203.164.367.366.367h11.133a.367.367 0 00.367-.367v-8.908zM12 18.495a.367.367 0 00-.367.367v3.904H6.8v-7.945c.563.23 1.175.35 1.798.35 1.15 0 2.228-.402 3.035-1.106v3.33a.367.367 0 10.734 0v-3.33c.807.704 1.885 1.106 3.035 1.106.623 0 1.235-.12 1.797-.35v7.945h-4.832v-3.904a.367.367 0 00-.367-.367zM9.925 6.801h4.15l3.026 7.262a4.001 4.001 0 01-1.7.374c-1.268 0-2.427-.574-3.1-1.534a.367.367 0 00-.602 0c-.673.96-1.833 1.534-3.1 1.534a4 4 0 01-1.7-.374L9.925 6.8zm.306-.735L12 1.821l1.769 4.245H10.23z" fill="#082947"/>
</svg>
