<svg width="24" height="24" fill="none" xmlns="http://www.w3.org/2000/svg">
  <defs/>
  <path d="M8.312 4.897l-.874 2.676 1.04.974L9.52 7.44 8.312 4.897z" fill="#FFE290"/>
  <path d="M9.52 7.44l-2.082.133.32 5.015h2.09L9.518 7.44z" fill="#4EB9FF"/>
  <path d="M12.987 2.672s.074-1.439-.988-1.439c-1.061 0-.987 1.44-.987 1.44v.434l.987 1.084.988-1.084v-.434z" fill="#FF4181"/>
  <path d="M12.988 3.107h-1.977v9.99h1.977v-9.99z" fill="#FF80AB"/>
  <path d="M14.575 6.392l2.013.142.208-2.953-2.012-.142-.209 2.953z" fill="#3B8BC0"/>
  <path d="M14.576 6.392l-.437 6.196h2.023l.427-6.054-2.013-.142z" fill="#174461"/>
  <path d="M7.733 23.193h8.534l.114-1.874L12 20.28l-4.38 1.04.113 1.874z" fill="#FF4181"/>
  <path d="M7.056 12.057l.562 9.262h8.762l.563-9.262H7.056z" fill="#FF755C"/>
  <path d="M17.322 11.498a.52.52 0 00-.38-.164h-.185l.559-7.93a.52.52 0 00-.483-.555l-.487-.035.117-1.663a.52.52 0 00-1.038-.073l-.117 1.663-.487-.034a.52.52 0 00-.556.482l-.575 8.145h-.17V2.471c.006-.156.015-1.007-.496-1.546A1.38 1.38 0 0011.994.5c-.408 0-.764.147-1.028.425-.51.539-.502 1.39-.496 1.546v8.863h-.167l-.264-4.14a.517.517 0 00-.05-.19L8.826 4.552l-.036-.58a.52.52 0 00-1.04.066l.038.58-.844 2.58a.519.519 0 00-.024.195l.25 3.941h-.112a.52.52 0 00-.52.552l.687 11.126a.52.52 0 00.52.488h8.512a.52.52 0 00.519-.488l.687-11.126a.52.52 0 00-.14-.388zm-4.843-8.04v7.876h-.969V3.457h.97zm-.757-1.818c.045-.046.116-.1.273-.1.157 0 .228.054.272.1.173.18.218.59.213.777h-.97c-.005-.188.04-.596.212-.777zm4.031 2.176h.001l.487.034-.135 1.915-.975-.07.135-1.914.487.035zm-.695 2.918l.975.069-.32 4.531h-.98l.325-4.6zm-7.094.692l.438-1.34.605 1.274.253 3.974H8.213l-.25-3.908zm.269 15.033l-.054-.877h4.206a.52.52 0 100-1.041h-4.27l-.505-8.166h8.779l-.504 8.166h-1.419a.52.52 0 000 1.04h1.354l-.054.878H8.233z" fill="#01121C"/>
</svg>
