<svg width="24" height="24" fill="none" xmlns="http://www.w3.org/2000/svg">
  <defs/>
  <path d="M22.677 11.146H8.247a.622.622 0 01-.621-.62V1.63c0-.341.279-.62.62-.62h14.43c.342 0 .62.279.62.62v8.897c0 .341-.278.62-.62.62z" fill="#BED8E4"/>
  <path d="M22.05 2.105H8.563v7.946h13.489V2.105z" fill="#EBF9FE"/>
  <path d="M12.568 7.27a1.912 1.912 0 100-3.823 1.912 1.912 0 000 3.824z" fill="#6BE8C7"/>
  <path d="M18.355 7.323a1.912 1.912 0 100-3.824 1.912 1.912 0 000 3.824z" fill="#FEA8D6"/>
  <path d="M.992 20.238v2.784h.774c0-1.05.012-1.97.04-2.776" fill="#CA98B3"/>
  <path d="M5.465 10.035a3.36 3.36 0 100-6.721 3.36 3.36 0 000 6.72z" fill="#FFD2A1"/>
  <path d="M9.926 21.021v2l-8.934-.003.013-6.356c0-2.46 1.967-4.498 4.426-4.517a4.46 4.46 0 014.495 4.46v4.416z" fill="#97EFFF"/>
  <path d="M13.041 15.718a1.406 1.406 0 100-2.811 1.406 1.406 0 000 2.81z" fill="#FED1A9"/>
  <path d="M9.926 21.021H.992v2h8.934v-2z" fill="#CA98B3"/>
  <g fill="#A0758E">
    <path d="M5.445 21.903c.208 0 .377.169.377.377v.735h-.755v-.735c0-.209.17-.377.378-.377zM9.925 20.24H.99v.827h8.934v-.827z"/>
  </g>
  <g fill="#fff">
    <path d="M5.722 14.819h-.514a.423.423 0 01-.422-.423l-.151-.8a.193.193 0 01-.004-.047.423.423 0 01.422-.4h.824c.225 0 .41.177.422.4 0 .015 0 .03-.004.046l-.148.787a.192.192 0 00-.003.028.423.423 0 01-.422.409z"/>
    <path d="M5.077 14.68l-.422 3.436.82 1.175.865-1.153-.488-3.458h-.775z"/>
  </g>
  <path d="M.992 20.238l.013-3.576a4.53 4.53 0 012.841-4.209c-1.298 2.17-1.89 3.291-2.04 7.793l-.814-.008z" fill="#B0F6FF"/>
  <path d="M9.964 20.238l-.008-3.576a4.53 4.53 0 00-2.842-4.209c1.298 2.17 1.89 3.291 2.041 7.793l.81-.008z" fill="#6EE5F4"/>
  <path d="M9.964 20.238l.007 2.784h-.776c0-1.05-.013-1.97-.04-2.776" fill="#A0758E"/>
  <path d="M5.465 8.718a.93.93 0 100-1.86.93.93 0 000 1.86z" fill="#fff"/>
  <path d="M18.02 17.206v-2.585h3.127v2.625" fill="#FFEFCA"/>
  <path d="M15.565 17.282v-1.51h2.795v1.457l-2.795.053z" fill="#6BE8C7"/>
  <path d="M21.146 14.621h-.82v2.41h.82v-2.41z" fill="#FFDFA1"/>
  <path d="M18.36 15.771h-.708v1.363h.708v-1.363z" fill="#3CD3A8"/>
  <path d="M5.363 8.303a.543.543 0 10-.001-1.086.543.543 0 000 1.086z" fill="#fff"/>
  <path d="M5.363 9.078A1.32 1.32 0 006.68 7.76a1.32 1.32 0 00-1.317-1.317A1.32 1.32 0 004.045 7.76a1.32 1.32 0 001.318 1.318zm0-1.86a.543.543 0 11-.002 1.086.543.543 0 01.002-1.086z" fill="#000"/>
  <path d="M5.348 10.34A3.752 3.752 0 009.096 6.59a3.743 3.743 0 00-3.748-3.748A3.753 3.753 0 001.6 6.59a3.752 3.752 0 003.748 3.748zm0-6.722A2.97 2.97 0 018.32 6.59a2.976 2.976 0 01-2.973 2.973 2.976 2.976 0 01-2.973-2.973 2.976 2.976 0 012.973-2.973zM5.348 11.671A4.854 4.854 0 00.5 16.52v6.416c0 .214.174.387.388.387h8.92a.388.388 0 00.388-.387v-2a.388.388 0 00-.775 0v1.612H1.275V16.52a4.078 4.078 0 014.073-4.073 4.078 4.078 0 014.073 4.073v2.257a.388.388 0 10.775 0V16.52a4.854 4.854 0 00-4.848-4.849zM14.718 14.226c0-.602-.299-1.136-.755-1.46l3.142-6.286a.387.387 0 10-.693-.347l-3.165 6.33a1.795 1.795 0 00-2.115 1.763c0 .989.804 1.793 1.793 1.793.988 0 1.793-.804 1.793-1.793zm-1.793 1.018a1.019 1.019 0 010-2.036 1.019 1.019 0 010 2.036z" fill="#000"/>
  <path d="M22.492.646H8.102c-.555 0-1.007.452-1.007 1.007v.651a.388.388 0 10.775 0v-.65c0-.127.106-.233.232-.233h14.39c.127 0 .233.106.233.232v8.8a.236.236 0 01-.232.232h-5.734a.387.387 0 100 .775h5.734c.555 0 1.007-.452 1.007-1.008V1.653c0-.555-.452-1.007-1.008-1.007zM7.39 10.616a.388.388 0 000 .548 1 1 0 00.712.296h4.272a.388.388 0 000-.775H8.102a.23.23 0 01-.164-.07.387.387 0 00-.548.001zM21.808 16.975h-.326v-2.397a.388.388 0 00-.387-.388h-3.128a.388.388 0 00-.387.388v.76h-2.067a.388.388 0 00-.388.388v1.249h-1.768a.388.388 0 000 .775h1.007v5.217a.388.388 0 00.775 0V17.75h4.887v5.217a.388.388 0 00.775 0V17.75h1.007a.388.388 0 000-.775zm-1.1-2.01v2.01h-2.353v-2.01h2.352zM15.9 16.115h1.679v.861H15.9v-.861z" fill="#000"/>
</svg>
