<svg width="24" height="24" fill="none" xmlns="http://www.w3.org/2000/svg">
  <defs/>
  <path d="M7.848 5.61h2.507v1.094H7.848V5.61z" fill="#3E5959"/>
  <path d="M10.896 1.232v3.986a.392.392 0 01-.393.393H7.701a.392.392 0 01-.392-.393V1.232c0-.217.175-.393.392-.393h2.802c.217 0 .393.176.393.393z" fill="#DEECF1"/>
  <path d="M10.503.84H9.145c.216 0 .392.175.392.392v3.986a.392.392 0 01-.392.393h1.358a.392.392 0 00.392-.393V1.232a.392.392 0 00-.392-.393z" fill="#A8D3D8"/>
  <path d="M6.776 9.382v-1.79a.89.89 0 01.89-.888h2.774a.89.89 0 01.89.889v1.789" fill="#678D98"/>
  <path d="M10.44 6.704H9.082a.89.89 0 01.89.889v1.789h1.357v-1.79a.89.89 0 00-.889-.888z" fill="#537983"/>
  <path d="M12.08 23.056a7.56 7.56 0 004.676-6.96A7.536 7.536 0 009.25 8.509a7.559 7.559 0 00-2.937 14.547c.172.07.356.105.542.105h4.687c.184 0 .368-.033.538-.104z" fill="#FFF9F0"/>
  <path d="M9.25 8.508a7.665 7.665 0 00-.73.03 7.534 7.534 0 016.878 7.559 7.561 7.561 0 01-4.677 6.96c-.17.07-.354.103-.538.103h1.358c.185 0 .368-.034.538-.104a7.56 7.56 0 004.677-6.96A7.536 7.536 0 009.25 8.509z" fill="#FAE8DB"/>
  <path d="M11.426 21.42a5.849 5.849 0 003.618-5.383 5.83 5.83 0 00-5.807-5.87A5.847 5.847 0 006.965 21.42c.132.055.275.081.42.081h3.625c.142 0 .284-.026.416-.08z" fill="#D5DAF3"/>
  <path d="M9.237 10.167a5.901 5.901 0 00-.717.039 5.828 5.828 0 015.166 5.831 5.849 5.849 0 01-3.618 5.384c-.132.054-.274.08-.416.08h1.358c.143 0 .284-.026.416-.08a5.849 5.849 0 003.618-5.384 5.83 5.83 0 00-5.807-5.87z" fill="#BEC6ED"/>
  <path d="M9.102 3.697a.626.626 0 100-1.253.626.626 0 000 1.253z" fill="#DEECF1"/>
  <path d="M20.137 16.655c1.229 0 2.224-1.672 2.224-3.735 0-2.063-.995-3.735-2.224-3.735-1.227 0-2.223 1.672-2.223 3.735 0 2.063.995 3.736 2.223 3.736z" fill="#6C7FD8"/>
  <path d="M20.138 9.185c-.237 0-.465.062-.679.178.896.482 1.544 1.892 1.544 3.557s-.648 3.075-1.544 3.557c.214.116.442.178.679.178 1.228 0 2.223-1.672 2.223-3.735 0-2.063-.995-3.735-2.223-3.735z" fill="#4F66D0"/>
  <path d="M9.398 14.256h2.478a.88.88 0 01.88.881v2.041a.88.88 0 01-.88.88H6.719a.88.88 0 01-.881-.88v-2.04a.88.88 0 01.88-.882H8.04" fill="#FFF9F0"/>
  <path d="M9.058 14.256c0 .188.152.34.34.34h2.477c.299 0 .542.243.542.541v2.041a.542.542 0 01-.542.541H6.718a.542.542 0 01-.54-.541v-2.04c0-.3.242-.542.54-.542H8.04a.34.34 0 100-.68H6.718c-.672 0-1.22.548-1.22 1.221v2.041c0 .673.548 1.22 1.22 1.22h5.157c.673 0 1.22-.547 1.22-1.22v-2.04c0-.674-.547-1.221-1.22-1.221H9.398a.34.34 0 00-.34.34z" fill="#000"/>
  <path d="M9.197 9.827a6.144 6.144 0 00-4.36 1.798 6.144 6.144 0 00-1.826 4.389 6.17 6.17 0 003.824 5.72c.173.07.358.107.55.107h3.625c.192 0 .375-.036.546-.106a6.173 6.173 0 003.828-5.696 6.152 6.152 0 00-1.783-4.381 6.15 6.15 0 00-4.404-1.83zm5.508 6.21a5.496 5.496 0 01-3.408 5.07.749.749 0 01-.287.055H7.385a.755.755 0 01-.29-.056 5.493 5.493 0 01-3.405-5.092 5.47 5.47 0 011.626-3.908 5.47 5.47 0 013.919-1.6 5.474 5.474 0 013.883 1.63 5.477 5.477 0 011.587 3.9zM10.068 3.07a.967.967 0 00-1.932 0 .967.967 0 001.932 0zm-1.253 0a.287.287 0 11.574.001.287.287 0 01-.574 0z" fill="#000"/>
  <path d="M20.455 8.875a6.996 6.996 0 00-2.224-4.58 6.997 6.997 0 00-4.774-1.874h-2.222V1.232A.733.733 0 0010.503.5H7.7a.733.733 0 00-.732.732v2.012a.34.34 0 00.679 0V1.232c0-.03.024-.053.053-.053h2.802c.03 0 .053.024.053.053v3.986c0 .03-.024.053-.053.053H7.7a.053.053 0 01-.053-.053v-.616a.34.34 0 00-.68 0v.616c0 .337.23.62.54.706v.45a1.23 1.23 0 00-1.07 1.219v1.069a7.872 7.872 0 00-2.807 1.8 7.844 7.844 0 00-2.332 5.605c0 1.593.472 3.13 1.367 4.442a7.895 7.895 0 003.516 2.86c.21.087.437.131.672.131h4.687c.234 0 .459-.044.668-.13a7.88 7.88 0 004.886-7.272c.009-2.114-.8-4.1-2.276-5.593a7.832 7.832 0 00-3.15-1.947v-.965a1.23 1.23 0 00-.974-1.202v-.467a.733.733 0 00.54-.706V3.1h2.222c1.605 0 3.137.601 4.312 1.692a6.317 6.317 0 012.005 4.092c-1.26.274-2.2 1.948-2.2 4.036 0 2.285 1.127 4.075 2.564 4.075s2.563-1.79 2.563-4.075c0-2.114-.964-3.804-2.246-4.045zM10.016 5.95v.414H8.187V5.95h1.83zm6.4 10.146a7.204 7.204 0 01-4.466 6.646 1.066 1.066 0 01-.41.079H6.855c-.145 0-.284-.027-.413-.08a7.2 7.2 0 01-4.463-6.674 7.17 7.17 0 012.131-5.122 7.17 7.17 0 015.137-2.098 7.176 7.176 0 015.09 2.136 7.18 7.18 0 012.08 5.113zM10.99 7.593v.777a8.029 8.029 0 00-3.874.073v-.85a.55.55 0 01.55-.55h2.774a.55.55 0 01.55.55zm9.148 8.723c-1.022 0-1.884-1.555-1.884-3.396 0-1.84.862-3.396 1.884-3.396 1.02 0 1.884 1.555 1.884 3.396 0 1.84-.863 3.396-1.884 3.396z" fill="#000"/>
  <path d="M11.43 15.545a.34.34 0 00-.34-.34H7.505a.34.34 0 100 .68h3.587a.34.34 0 00.34-.34zM8.49 16.43a.34.34 0 000 .68h1.614a.34.34 0 000-.68H8.49z" fill="#000"/>
</svg>
