<svg width="24" height="24" fill="none" xmlns="http://www.w3.org/2000/svg">
  <defs/>
  <path d="M12.3 5.445c.72-.083 1.21-.973 1.092-1.987-.117-1.014-.797-1.769-1.517-1.685-.72.083-1.21.973-1.092 1.987.117 1.014.797 1.768 1.517 1.685zM17.197 3.771c.117-1.014-.372-1.904-1.092-1.987-.72-.083-1.4.671-1.517 1.685-.118 1.014.371 1.904 1.092 1.987.72.084 1.4-.67 1.517-1.685z" fill="#E27D47"/>
  <path d="M10.05 8.125c.549-.317.632-1.199.187-1.97-.446-.772-1.252-1.141-1.8-.824-.548.316-.631 1.198-.186 1.97.446.772 1.251 1.14 1.8.824zM19.728 7.302c.445-.772.362-1.654-.186-1.97-.549-.317-1.354.051-1.8.823-.445.772-.362 1.654.186 1.97.549.317 1.354-.052 1.8-.823z" fill="#CA4941"/>
  <g fill="#E27D47">
    <path d="M19.729 7.302c.445-.772.362-1.654-.186-1.97-.549-.317-1.354.052-1.8.823-.445.772-.362 1.654.186 1.97.549.317 1.354-.052 1.8-.823zM10.052 8.125c.548-.316.631-1.199.186-1.97-.446-.772-1.252-1.14-1.8-.824-.548.316-.632 1.198-.186 1.97s1.251 1.14 1.8.824zM16.576 8.701v-.074A2.595 2.595 0 0013.954 6.1a2.586 2.586 0 00-2.55 2.604.944.944 0 01-.543.86 2.586 2.586 0 00-1.48 2.338 2.578 2.578 0 002.555 2.585c.313.004.614-.048.893-.146a3.494 3.494 0 012.323 0c.279.098.579.15.892.146a2.578 2.578 0 002.555-2.585 2.586 2.586 0 00-1.48-2.338.947.947 0 01-.543-.863z"/>
  </g>
  <path d="M22.616 15.913l-5.864 4.703c-.482.387-1.1.563-1.714.488l-7.902-.962-2.106.78c-1.13-1.164-.666-4.907-.666-4.907l.502-.137a1.901 1.901 0 011.062-1.832l3.39-1.655 1.742-.85a1.656 1.656 0 011.578 2.909L9.82 16.136l4.74.826c.571.099 1.158-.02 1.644-.337l4.715-3.06a1.45 1.45 0 011.697 2.347z" fill="#F1D0A5"/>
  <path d="M15.025 19.841c-3.246.422-5.484-1.482-6.838-3.273a1.909 1.909 0 01.492-2.76c3.27-2.095 4.115-2.018 4.563-1.57a1.657 1.657 0 00-2.182-.698l-1.743.851-2.747 1.342-.642.313a1.9 1.9 0 00-1.062 1.832l-.502.137s-.465 3.743.666 4.906l2.106-.778 7.902.961a2.296 2.296 0 001.714-.488l5.864-4.703c-2.027-.55-5.404 3.594-7.59 3.928z" fill="#F1B986"/>
  <path d="M3.663 15.544a6.832 6.832 0 00-2.822.997 55.32 55.32 0 002.01 5.689 6.829 6.829 0 002.822-.997 55.326 55.326 0 00-2.01-5.689z" fill="#80A6C6"/>
  <path d="M5.673 21.233a6.822 6.822 0 01-2.822.997 55.718 55.718 0 01-.582-1.46 7.26 7.26 0 002.944-1.03c.16.495.314.993.46 1.493z" fill="#5B8EB8"/>
  <path d="M12.19 5.797c.05 0 .1-.003.152-.008.461-.054.859-.345 1.12-.82.24-.436.337-.985.272-1.546-.064-.56-.284-1.073-.617-1.443-.363-.403-.816-.596-1.278-.542-.921.106-1.533 1.145-1.392 2.365.133 1.152.883 1.994 1.743 1.994zm-.272-3.682a.593.593 0 01.069-.004c.214 0 .433.114.623.325.24.266.398.645.447 1.066.049.42-.02.825-.192 1.14-.152.275-.366.442-.601.47-.524.06-1.046-.575-1.14-1.387-.094-.812.27-1.55.794-1.61zM15.638 5.789c.05.005.1.008.151.008.409 0 .804-.192 1.127-.55.333-.371.552-.884.617-1.444.065-.56-.032-1.11-.272-1.546-.261-.475-.659-.766-1.12-.82-.461-.052-.915.14-1.278.543-.333.37-.553.883-.617 1.443-.141 1.22.47 2.26 1.392 2.366zm-.715-2.287c.049-.421.207-.8.447-1.066.19-.212.41-.325.623-.325.024 0 .047.001.07.004.235.027.449.194.6.47.173.314.241.719.193 1.14-.049.42-.208.8-.447 1.065-.21.235-.457.349-.693.321-.523-.06-.887-.797-.793-1.61zM17.759 8.42c.182.106.39.158.607.158.21 0 .43-.049.643-.147.404-.185.764-.525 1.015-.96.548-.948.411-2.019-.31-2.436-.359-.206-.815-.21-1.252-.01-.403.184-.764.525-1.014.96-.548.948-.412 2.018.31 2.435zm.28-2.095c.177-.308.435-.556.707-.68a.896.896 0 01.36-.087c.089 0 .18.018.266.068.378.218.406.907.061 1.505-.177.308-.435.556-.707.68-.137.063-.401.149-.626.019-.379-.218-.407-.907-.062-1.505zM8.076 6.999a.34.34 0 00.263-.404c-.093-.44.013-.821.27-.97.225-.13.488-.043.626.02.272.124.53.372.708.68.177.308.263.656.235.954-.014.15-.072.421-.296.55-.257.149-.64.05-.975-.25a.34.34 0 10-.455.507c.36.323.776.492 1.165.492.215 0 .421-.051.605-.157.358-.207.59-.6.635-1.078.042-.442-.073-.925-.324-1.359-.25-.434-.61-.774-1.015-.96-.436-.2-.892-.195-1.25.012-.517.298-.75.965-.596 1.7a.34.34 0 00.404.263z" fill="#000"/>
  <path d="M23.436 14.307a1.791 1.791 0 00-.312-.622 1.801 1.801 0 00-2.39-.405l-4.715 3.06c-.415.27-.912.372-1.4.287l-3.837-.668 2.03-1.218c.04-.023.077-.048.114-.073l.016-.006a3.161 3.161 0 012.097 0c.312.11.639.166.97.166h.039a2.91 2.91 0 002.049-.867c.543-.55.842-1.282.842-2.06 0-.406-.082-.8-.244-1.17a.34.34 0 00-.624.273c.124.284.187.585.187.898 0 .597-.23 1.158-.646 1.58a2.232 2.232 0 01-1.572.664 2.23 2.23 0 01-.775-.127 3.84 3.84 0 00-1.644-.2 1.992 1.992 0 00-.08-1.743 1.988 1.988 0 00-2.631-.842l-1.185.579a2.257 2.257 0 011.282-1.941 1.29 1.29 0 00.738-1.168v-.019A2.254 2.254 0 0113.99 6.44c1.213 0 2.217.978 2.245 2.193V8.7c-.003.498.287.958.738 1.173.124.059.243.13.354.21a.341.341 0 00.4-.552 2.92 2.92 0 00-.461-.274.602.602 0 01-.35-.549V8.62a2.937 2.937 0 00-2.967-2.86 2.91 2.91 0 00-2.042.87 2.91 2.91 0 00-.844 2.056v.021a.607.607 0 01-.349.55 2.941 2.941 0 00-1.663 2.886L5.78 13.74a2.24 2.24 0 00-1.255 1.879l-.416.115a53.757 53.757 0 00-.131-.32.34.34 0 00-.357-.208 7.2 7.2 0 00-2.96 1.046.341.341 0 00-.147.385 55.93 55.93 0 002.022 5.724.34.34 0 00.356.207 7.201 7.201 0 002.961-1.046.341.341 0 00.147-.385l-.056-.19 1.233-.456 7.82.951a2.65 2.65 0 001.969-.56l5.852-4.694a1.792 1.792 0 00.618-1.88zm-20.37 7.548a55.28 55.28 0 01-1.823-5.157 6.507 6.507 0 012.206-.78 55.288 55.288 0 011.822 5.158 6.505 6.505 0 01-2.206.78zm19.346-6.215a.231.231 0 00-.01.007l-5.863 4.704c-.408.327-.94.478-1.46.415l-7.902-.962a.34.34 0 00-.16.019l-1.272.47a56.043 56.043 0 00-1.38-3.923l.592-.164a.34.34 0 00.249-.35 1.56 1.56 0 01.872-1.503l5.131-2.506a1.315 1.315 0 011.253 2.31l-2.817 1.688a.34.34 0 00.117.628l4.74.826a2.63 2.63 0 001.888-.387l4.715-3.06a1.102 1.102 0 011.48.25 1.11 1.11 0 01-.173 1.537z" fill="#000"/>
  <path d="M10.682 13.977a.859.859 0 001.125.28l.422-.226a.34.34 0 10-.32-.602l-.423.226a.184.184 0 01-.238-.058 2.683 2.683 0 01-.373-.861.34.34 0 00-.67.129c.005.023.112.568.477 1.112zM3.816 20.949a.344.344 0 00.332-.266c.07-.3-.282-.528-.53-.352a.343.343 0 00-.12.4c.05.13.178.218.318.218z" fill="#000"/>
</svg>
