<svg width="24" height="24" fill="none" xmlns="http://www.w3.org/2000/svg">
  <defs/>
  <path d="M10.605 18.845H2.258a1.17 1.17 0 01-1.17-1.17V2.565c0-.647.524-1.17 1.17-1.17h8.347c.646 0 1.17.523 1.17 1.17v15.11a1.17 1.17 0 01-1.17 1.17z" fill="#D3E8F1"/>
  <path d="M2.15 18.843V1.396a1.17 1.17 0 00-1.106 1.169v15.11c0 .625.49 1.135 1.106 1.168z" fill="#EBF9FE"/>
  <path d="M9.886 12.627v2.455h-6.91V3.262h6.91v9.365z" fill="#F5FCFF"/>
  <path d="M8.11 6.037l3.663 1.626V5.794l-3.626.128-.037.115z" fill="#BED8E4"/>
  <path d="M9.885 6.824l-1.776-.759-.023-.187.439-.194 1.345-.076.03.01-.015 1.205z" fill="#D3E8F1"/>
  <path d="M.904 18.827h10.687c.224 0 .404-.181.404-.404v-1.284a.404.404 0 00-.808 0v.88H1.308V1.376h9.88v3.537h-1.08V2.84a.404.404 0 00-.405-.404h-6.91a.404.404 0 00-.405.404v11.82c0 .223.181.403.404.403h6.911c.223 0 .404-.18.404-.404v-2.454a.404.404 0 00-.808 0v2.05H3.196V3.245H9.3v1.668h-1.16a.404.404 0 000 .808H9.3V9.81a.404.404 0 00.808 0V5.72h1.08v9.656a.404.404 0 00.808 0V5.721h7.388V14.3a.404.404 0 10.808 0V5.317a.404.404 0 00-.404-.404h-7.792V.973a.404.404 0 00-.404-.405H.904A.404.404 0 00.5.972v17.45c0 .224.18.405.404.405z" fill="#000"/>
  <path d="M4.782 16.23a.404.404 0 000 .807h2.932a.404.404 0 000-.808H4.782zM4.95 6.22V4.587a.404.404 0 00-.808 0V6.22a.404.404 0 00.808 0zM6.283 6.22V4.587a.404.404 0 00-.808 0V6.22a.404.404 0 00.808 0zM17.208 17.35h5.888a.404.404 0 000-.808h-5.888a.404.404 0 000 .808zM14.237 17.984a.404.404 0 00.57 0l1.505-1.504a.404.404 0 10-.571-.572l-1.219 1.219-.38-.38a.404.404 0 00-.572.57l.667.667zM17.208 20.015h5.888a.404.404 0 000-.808h-5.888a.404.404 0 000 .808zM13.57 19.983l.666.666a.403.403 0 00.571 0l1.504-1.505a.404.404 0 10-.571-.57l-1.219 1.218-.38-.38a.404.404 0 00-.572.57zM17.208 22.68h5.888a.404.404 0 000-.808h-5.888a.404.404 0 000 .808zM13.57 22.647l.666.666a.403.403 0 00.571 0l1.504-1.504a.404.404 0 00-.571-.571l-1.219 1.218-.38-.38a.404.404 0 10-.572.571zM8.053 7.449H4.4a.404.404 0 000 .808h3.653a.404.404 0 000-.808zM8.053 9.426H4.4a.404.404 0 000 .808h3.653a.404.404 0 000-.808z" fill="#000"/>
</svg>
