<svg width="24" height="24" fill="none" xmlns="http://www.w3.org/2000/svg">
  <defs/>
  <path d="M20.186 17.21a.744.744 0 01-.744.744H4.558a.744.744 0 01-.745-.745V1.581c0-.41.334-.744.745-.744h14.884c.41 0 .744.333.744.744V17.21z" fill="#EDE9E8"/>
  <path d="M19.441.837h-.988c.411 0 .744.333.744.744V17.21a.744.744 0 01-.744.745h.988a.744.744 0 00.745-.745V1.581a.744.744 0 00-.745-.744z" fill="#DFD7D5"/>
  <path d="M18.428 16.465H5.57a.27.27 0 01-.27-.27v-13.6c0-.149.121-.27.27-.27h12.857c.149 0 .27.121.27.27v13.6a.27.27 0 01-.27.27z" fill="#AAEBF9"/>
  <path d="M18.428 2.325h-.989c.15 0 .27.121.27.27v13.6a.27.27 0 01-.27.27h.989a.27.27 0 00.27-.27v-13.6a.27.27 0 00-.27-.27z" fill="#7BE2F6"/>
  <path d="M9.767 5.302a1.488 1.488 0 11-2.977 0 1.488 1.488 0 012.977 0z" fill="#FED330"/>
  <path d="M8.278 3.814c-.173 0-.34.03-.494.084a1.489 1.489 0 010 2.808 1.487 1.487 0 001.983-1.404c0-.822-.667-1.488-1.489-1.488z" fill="#FD9E28"/>
  <path d="M18.697 13.489l-3.53-3.53a.27.27 0 00-.381 0L12.743 12v4.464h5.685a.27.27 0 00.27-.27V13.49z" fill="#5AC033"/>
  <path d="M9.576 9.214l-4.274 4.274v2.708c0 .149.12.27.27.27h11.637L9.957 9.213a.27.27 0 00-.38 0z" fill="#74D84B"/>
  <path d="M17.709 12.5v3.696a.27.27 0 01-.27.27h.989a.27.27 0 00.27-.27v-2.707l-.989-.989z" fill="#43AD2E"/>
  <path d="M16.093 19.07a4.093 4.093 0 11-8.187 0 4.093 4.093 0 018.187 0z" fill="#FABE2C"/>
  <path d="M12 14.977c-.167 0-.332.01-.494.03a4.094 4.094 0 010 8.127A4.093 4.093 0 1012 14.977z" fill="#FD9E28"/>
  <path d="M14.604 19.07a2.605 2.605 0 11-5.21 0 2.605 2.605 0 015.21 0z" fill="#74D84B"/>
  <path d="M12 16.465c-.17 0-.334.017-.494.048a2.605 2.605 0 010 5.114A2.605 2.605 0 1012 16.465z" fill="#5AC033"/>
  <path d="M19.442.5H4.558c-.596 0-1.081.485-1.081 1.081V17.21c0 .597.485 1.082 1.08 1.082h.777a.337.337 0 000-.674h-.776a.408.408 0 01-.408-.408V1.581c0-.224.183-.407.408-.407h14.884c.224 0 .407.183.407.407V17.21a.408.408 0 01-.407.408h-3.257a4.41 4.41 0 00-.381-.815h2.894c.186 0 .336-.15.336-.337V2.325a.337.337 0 00-.336-.336H5.302a.337.337 0 00-.337.336v14.14c0 .186.15.337.337.337h2.894a4.422 4.422 0 00-.381.815H6.682a.337.337 0 100 .674h.956A4.435 4.435 0 0012 23.5a4.435 4.435 0 004.362-5.21h3.08c.597 0 1.082-.485 1.082-1.082V1.581C20.523.985 20.038.5 19.442.5zM18.36 2.662v10.013L15.215 9.53a.338.338 0 00-.477 0l-1.994 1.995-2.739-2.74a.337.337 0 00-.476 0l-3.89 3.891V2.662H18.36zM8.65 16.128H5.639v-2.5L9.767 9.5l2.725 2.724.013.015.014.013 1.475 1.475a.337.337 0 10.476-.477L13.22 12l1.757-1.756 3.384 3.384v2.5h-3.012c-.013 0-.026.001-.038.003a4.42 4.42 0 00-6.623 0 .384.384 0 00-.037-.003zM12 22.826a3.76 3.76 0 01-3.756-3.756A3.76 3.76 0 0112 15.314a3.76 3.76 0 013.756 3.756A3.76 3.76 0 0112 22.826z" fill="#000"/>
  <path d="M8.278 7.127a1.827 1.827 0 001.826-1.825 1.827 1.827 0 00-1.826-1.825 1.827 1.827 0 00-1.825 1.825c0 1.007.819 1.825 1.825 1.825zm0-2.976c.635 0 1.152.516 1.152 1.151s-.517 1.152-1.152 1.152a1.153 1.153 0 010-2.303zM12 16.128A2.945 2.945 0 009.06 19.07 2.945 2.945 0 0012 22.01a2.945 2.945 0 002.942-2.941A2.945 2.945 0 0012 16.128zm0 5.21a2.27 2.27 0 01-2.268-2.268A2.27 2.27 0 0112 16.802a2.27 2.27 0 012.268 2.268A2.27 2.27 0 0112 21.338z" fill="#000"/>
  <path d="M13.117 18.733h-.78v-.78a.337.337 0 00-.674 0v.78h-.78a.337.337 0 000 .674h.78v.78a.337.337 0 10.674 0v-.78h.78a.337.337 0 100-.674z" fill="#000"/>
</svg>
