<svg width="24" height="24" fill="none" xmlns="http://www.w3.org/2000/svg">
  <defs/>
  <path d="M20.186 22.419a.744.744 0 01-.744.744H4.558a.744.744 0 01-.745-.744V1.58c0-.41.334-.744.745-.744h14.884c.41 0 .744.333.744.744V22.42z" fill="#EDE9E8"/>
  <path d="M19.441.837h-.988c.411 0 .744.333.744.744V22.42a.744.744 0 01-.744.744h.988a.744.744 0 00.745-.744V1.58a.744.744 0 00-.745-.744z" fill="#DFD7D5"/>
  <path d="M18.428 16.465H5.57a.27.27 0 01-.27-.27v-13.6c0-.149.121-.27.27-.27h12.857c.149 0 .27.121.27.27v13.6a.27.27 0 01-.27.27z" fill="#AAEBF9"/>
  <path d="M18.428 2.325h-.989c.15 0 .27.121.27.27v13.6a.27.27 0 01-.27.27h.989a.27.27 0 00.27-.27v-13.6a.27.27 0 00-.27-.27z" fill="#7BE2F6"/>
  <path d="M7.534 16.465v-1.488c0-1.233 1-2.233 2.233-2.233h4.465c1.233 0 2.233 1 2.233 2.233v1.488h-8.93z" fill="#FC4C1E"/>
  <path d="M14.232 12.744h-.988c1.233 0 2.233 1 2.233 2.233v1.488h.988v-1.488c0-1.233-1-2.233-2.233-2.233z" fill="#DB3618"/>
  <path d="M10.884 10.428v2.205c0 .071.028.14.079.19l.846.847a.27.27 0 00.382 0l.846-.847a.27.27 0 00.08-.19v-2.205h-2.233z" fill="#FDA792"/>
  <path d="M14.232 6.79c0-.821-.666-1.488-1.488-1.488h-1.489c-.822 0-1.488.667-1.488 1.489v2.232a2.233 2.233 0 004.465 0V6.791z" fill="#FECEC0"/>
  <path d="M12.744 5.302h-.988c.822 0 1.489.667 1.489 1.489v2.232a2.233 2.233 0 01-1.74 2.177 2.233 2.233 0 002.727-2.177V6.791c0-.822-.666-1.489-1.488-1.489z" fill="#FDA792"/>
  <path d="M19.442.5H4.558c-.596 0-1.081.485-1.081 1.081V22.42c0 .596.485 1.081 1.08 1.081h14.885c.596 0 1.08-.485 1.08-1.081V1.58c0-.596-.484-1.081-1.08-1.081zm.407 21.919a.408.408 0 01-.407.407H4.558a.408.408 0 01-.408-.407V1.58c0-.224.183-.407.408-.407h14.884c.224 0 .407.183.407.407V22.42z" fill="#000"/>
  <path d="M18.697 1.989H5.302a.337.337 0 00-.337.336v14.14c0 .186.15.337.337.337h13.395c.186 0 .337-.15.337-.337V2.325a.337.337 0 00-.337-.336zM12 10.919a1.898 1.898 0 01-1.896-1.896V6.791c0-.635.516-1.152 1.152-1.152h1.488c.635 0 1.151.517 1.151 1.152v2.232c0 1.046-.85 1.896-1.895 1.896zm0 .674c.271 0 .533-.043.779-.121v1.133l-.78.78-.779-.78v-1.133c.246.078.508.12.78.12zm-1.256 1.488L11.76 14.1a.336.336 0 00.477 0l1.018-1.018h.976c1.046 0 1.896.85 1.896 1.896v1.151H7.87v-1.151c0-1.045.85-1.896 1.896-1.896h.977zm7.616 3.047h-1.558v-1.151a2.572 2.572 0 00-2.57-2.57h-.78v-1.266a2.569 2.569 0 001.117-2.118V6.791a1.827 1.827 0 00-1.825-1.826h-1.489A1.827 1.827 0 009.43 6.791v2.232c0 .878.443 1.654 1.116 2.118v1.267h-.779a2.572 2.572 0 00-2.57 2.569v1.151H5.64V2.662H18.36v13.466zM18.697 21.338H8.208a.337.337 0 100 .674h10.49a.337.337 0 000-.674zM6.86 21.338H5.303a.337.337 0 100 .674H6.86a.337.337 0 100-.674z" fill="#000"/>
  <path d="M12.372 9.43h-.744a.337.337 0 100 .675h.744a.337.337 0 100-.674zM11.593 7.83v-.372a.337.337 0 10-.674 0v.372a.337.337 0 10.674 0zM12.744 7.12a.337.337 0 00-.337.338v.372a.337.337 0 10.674 0v-.372a.337.337 0 00-.337-.337z" fill="#000"/>
</svg>
