<svg width="24" height="24" fill="none" xmlns="http://www.w3.org/2000/svg">
  <defs/>
  <path d="M19.442 22.419c0 .41-.333.744-.744.744H5.302a.744.744 0 01-.744-.744V4.186c0-.411.333-.744.744-.744h13.396c.41 0 .744.333.744.744v18.233z" fill="#EDE9E8"/>
  <path d="M18.697 3.442h-.988c.411 0 .744.333.744.744v18.233c0 .41-.333.744-.744.744h.988a.744.744 0 00.745-.744V4.186a.744.744 0 00-.745-.744z" fill="#DFD7D5"/>
  <path d="M17.685 17.954H6.316a.27.27 0 01-.27-.27V5.2c0-.15.121-.27.27-.27h11.369c.148 0 .27.12.27.27v12.484a.27.27 0 01-.27.27z" fill="#AAEBF9"/>
  <path d="M17.684 4.93h-.989c.15 0 .27.12.27.27v12.484a.27.27 0 01-.27.27h.989a.27.27 0 00.27-.27V5.2a.27.27 0 00-.27-.27z" fill="#7BE2F6"/>
  <path d="M12.847 4.93h-1.694a.27.27 0 01-.27-.27V1.107c0-.148.121-.27.27-.27h1.694c.149 0 .27.122.27.27v3.555a.27.27 0 01-.27.27z" fill="#FABE2C"/>
  <path d="M12 14.233a1.86 1.86 0 01-3.694.318.27.27 0 01.265-.318H12z" fill="#5AC033"/>
  <path d="M15.429 14.233a.27.27 0 01.265.318A1.861 1.861 0 0112 14.233h3.429z" fill="#5AC033"/>
  <path d="M14.73 14.233c0 .856-.578 1.576-1.365 1.793a1.86 1.86 0 002.329-1.475.27.27 0 00-.266-.318h-.698zM11.009 14.233c0 .856-.578 1.576-1.365 1.793a1.862 1.862 0 002.355-1.793h-.99z" fill="#43AD2E"/>
  <path d="M13.93 6.811a2.234 2.234 0 00-1.879 1.736.053.053 0 01-.05.042.053.053 0 01-.052-.042 2.234 2.234 0 00-1.879-1.736.269.269 0 00-.302.267v3.397c0 1.224.97 2.248 2.194 2.269 1.25.02 2.27-.987 2.27-2.232V7.078a.269.269 0 00-.302-.267z" fill="#FC4C1E"/>
  <path d="M13.93 6.811a2.215 2.215 0 00-.692.213.278.278 0 01.006.054v3.434a2.233 2.233 0 01-1.737 2.177 2.233 2.233 0 002.726-2.177V7.078a.269.269 0 00-.303-.267z" fill="#DB3618"/>
  <path d="M12.847.837h-.989c.15 0 .27.12.27.27V4.66a.27.27 0 01-.27.27h.989a.27.27 0 00.27-.27V1.106a.27.27 0 00-.27-.27z" fill="#FD9E28"/>
  <path d="M13.116 5.267h-2.232a.337.337 0 01-.337-.337V.837c0-.186.15-.337.337-.337h2.232c.186 0 .337.15.337.337V4.93c0 .186-.15.337-.337.337zm-1.896-.674h1.56v-3.42h-1.56v3.42z" fill="#000"/>
  <path d="M10.884 2.29H1.58a.337.337 0 010-.674h9.303a.337.337 0 110 .674zM22.419 2.29h-9.303a.337.337 0 110-.674h9.303a.337.337 0 110 .674zM18.698 23.5H5.302a1.082 1.082 0 01-1.081-1.081V4.186c0-.596.485-1.081 1.081-1.081h5.581a.337.337 0 110 .674H5.302a.408.408 0 00-.407.407v18.233c0 .224.182.407.407.407h13.396a.408.408 0 00.407-.407V4.186a.408.408 0 00-.407-.407h-5.582a.337.337 0 110-.674h5.582c.596 0 1.08.485 1.08 1.08V22.42c0 .596-.484 1.081-1.08 1.081z" fill="#000"/>
  <path d="M17.953 18.29H6.046a.337.337 0 01-.337-.336V4.93c0-.186.15-.337.337-.337h11.907c.186 0 .337.151.337.337v13.024c0 .186-.15.337-.337.337zm-11.57-.673h11.233V5.267H6.383v12.35zM17.954 22.012H8.687a.337.337 0 010-.674h9.267a.337.337 0 110 .674zM7.338 22.012H6.046a.337.337 0 010-.674h1.292a.337.337 0 110 .674z" fill="#000"/>
  <path d="M12 13.081a2.572 2.572 0 01-2.57-2.57v-3.72c0-.187.152-.337.338-.337.954 0 1.79.523 2.232 1.298a2.571 2.571 0 012.233-1.298.337.337 0 01.337.337v3.72a2.572 2.572 0 01-2.57 2.57zm-1.896-5.923v3.354c0 1.045.85 1.895 1.896 1.895 1.046 0 1.896-.85 1.896-1.895V7.158a1.899 1.899 0 00-1.559 1.865.337.337 0 11-.674 0c0-.93-.673-1.706-1.559-1.865z" fill="#000"/>
  <path d="M12 16.802a.337.337 0 01-.337-.337v-3.72a.337.337 0 01.674 0v3.72c0 .186-.151.337-.337.337z" fill="#000"/>
  <path d="M10.14 16.43a2.2 2.2 0 01-2.198-2.197c0-.186.151-.337.337-.337H12c.186 0 .337.15.337.337a2.2 2.2 0 01-2.197 2.197zm-1.486-1.86a1.527 1.527 0 001.486 1.186c.724 0 1.332-.508 1.486-1.187H8.654z" fill="#000"/>
  <path d="M13.86 16.43a2.2 2.2 0 01-2.197-2.197c0-.186.15-.337.337-.337h3.721c.186 0 .337.15.337.337a2.2 2.2 0 01-2.198 2.197zm-1.486-1.86a1.526 1.526 0 001.486 1.186c.725 0 1.333-.508 1.487-1.187h-2.973z" fill="#000"/>
</svg>
