<svg width="24" height="24" fill="none" xmlns="http://www.w3.org/2000/svg">
  <defs/>
  <path d="M5.302 3.07V1.58c0-.41.333-.744.744-.744h14.14c.411 0 .744.333.744.744v18.605a.744.744 0 01-.744.744h-1.488L5.302 3.07z" fill="#96D2E0"/>
  <path d="M18.852 2.171H5.302v.898L18.698 20.93h.898V2.915a.744.744 0 00-.744-.744z" fill="#78B4C2"/>
  <path d="M3.07 3.814c0-.411.333-.744.744-.744h14.14c.41 0 .744.333.744.744v18.605a.744.744 0 01-.744.744H3.814a.744.744 0 01-.745-.744V3.814z" fill="#B6E3EE"/>
  <path d="M16.94 17.954H4.827a.27.27 0 01-.27-.27V4.827c0-.148.121-.27.27-.27H16.94c.149 0 .27.122.27.27v12.857a.27.27 0 01-.27.27z" fill="#00BCE7"/>
  <path d="M7.534 9.023a1.488 1.488 0 100-2.977 1.488 1.488 0 000 2.977z" fill="#FFD151"/>
  <path d="M7.534 6.046c-.156 0-.307.025-.449.07a1.489 1.489 0 010 2.838 1.487 1.487 0 001.938-1.42c0-.821-.667-1.488-1.489-1.488z" fill="#F79B4A"/>
  <path d="M16.94 17.954a.27.27 0 00.27-.27v-4.939l-3.515-4.218a.27.27 0 00-.414 0l-3.328 3.994v5.433h6.987z" fill="#00BA88"/>
  <path d="M8.486 10.76a.27.27 0 00-.414 0l-3.514 4.217v2.707c0 .149.12.27.27.27h9.653L8.486 10.76z" fill="#00CE96"/>
  <path d="M16.279 11.628l-.775.93a.27.27 0 01-.357.052l-.73-.487a.27.27 0 00-.34.033l-1.151 1.15a.27.27 0 01-.372.01l-1.857-1.688 2.584-3.1a.27.27 0 01.414 0l2.584 3.1zM11.07 13.86l-.775.93a.27.27 0 01-.357.052l-.73-.487a.27.27 0 00-.34.034l-1.151 1.15a.27.27 0 01-.372.01L5.488 13.86l2.584-3.1a.27.27 0 01.414 0l2.584 3.1z" fill="#fff"/>
  <g fill="#000">
    <path d="M20.186.5H6.046C5.45.5 4.965.985 4.965 1.581v1.152H3.814c-.597 0-1.082.485-1.082 1.08V19.22a.337.337 0 10.674 0V3.814c0-.225.183-.408.408-.408h14.14c.224 0 .407.183.407.408V22.419a.408.408 0 01-.407.407H3.814a.408.408 0 01-.408-.407v-1.853a.337.337 0 00-.674 0v1.853c0 .596.485 1.081 1.082 1.081h14.14c.596 0 1.08-.485 1.08-1.081v-1.152h1.152c.596 0 1.081-.485 1.081-1.08V1.58c0-.596-.485-1.081-1.08-1.081zm.407 19.686a.408.408 0 01-.407.408h-1.151V3.814c0-.596-.485-1.081-1.081-1.081H5.639V1.58c0-.224.183-.407.407-.407h14.14c.225 0 .407.183.407.407v18.605z"/>
    <path d="M17.546 4.558a.337.337 0 00-.337-.337H4.558a.337.337 0 00-.337.337v13.396c0 .186.15.337.337.337h12.651c.186 0 .337-.151.337-.337V4.558zm-.674.337v6.919l-3.125-3.75a.337.337 0 00-.518 0l-3.276 3.93-1.415-1.698a.337.337 0 00-.518 0l-3.125 3.75V4.895h11.977zm-6.241 8.966l-.557.668-.864-.577a.337.337 0 00-.425.042l-1.261 1.262-1.57-1.428 2.325-2.79 2.352 2.822zm5.21-2.233l-.557.668-.865-.576a.337.337 0 00-.425.042l-1.261 1.261-1.57-1.427 2.325-2.79 2.352 2.822zM4.894 17.617v-2.518l.627-.753 1.786 1.624a.336.336 0 00.465-.01l1.293-1.294.886.591a.337.337 0 00.446-.064l.671-.806.672.805a.336.336 0 10.518-.431l-1.867-2.24.339-.407 1.786 1.624a.336.336 0 00.465-.011l1.293-1.293.887.59a.337.337 0 00.445-.064l.672-.806.593.712v4.75H4.895zM17.21 21.338H4.557a.337.337 0 100 .674h12.651a.337.337 0 100-.674z"/>
    <path d="M7.534 9.36A1.827 1.827 0 009.36 7.535a1.827 1.827 0 00-1.826-1.826A1.827 1.827 0 005.71 7.535c0 1.006.819 1.825 1.825 1.825zm0-2.977a1.153 1.153 0 010 2.303 1.153 1.153 0 01-1.151-1.151c0-.635.516-1.152 1.151-1.152z"/>
  </g>
</svg>
