<svg width="24" height="24" fill="none" xmlns="http://www.w3.org/2000/svg">
  <defs/>
  <path d="M6.413 21.745a.27.27 0 01.258 0l2.6 1.418 2.6-1.418a.27.27 0 01.258 0l2.47 1.348c.08.044.178.044.258 0l2.471-1.348a.27.27 0 01.258 0l2.201 1.2a.27.27 0 00.399-.236V1.581a.744.744 0 00-.744-.744H4.558a.744.744 0 00-.745.744V22.71a.27.27 0 00.399.237l2.201-1.201z" fill="#EDE9E8"/>
  <g fill="#DFD7D5">
    <path d="M19.441.837h-.988c.411 0 .745.333.745.744v21.043l.59.322a.27.27 0 00.398-.237V1.581a.744.744 0 00-.745-.744zM5.683 21.745a.27.27 0 00-.258 0l-1.612.88v.084a.27.27 0 00.399.237l1.836-1.002-.365-.199zM11.141 21.745a.27.27 0 00-.258 0l-2.106 1.149.494.27 2.235-1.22-.365-.199zM16.598 21.745a.27.27 0 00-.258 0c-.371.203-1.46.797-2.106 1.148l.365.2c.08.044.178.044.258 0l2.106-1.149-.365-.199z"/>
  </g>
  <path d="M18.428 16.465H5.57a.27.27 0 01-.27-.27v-13.6c0-.149.121-.27.27-.27h12.857c.149 0 .27.121.27.27v13.6a.27.27 0 01-.27.27z" fill="#AAEBF9"/>
  <path d="M18.428 2.325h-.989c.15 0 .27.121.27.27v13.6a.27.27 0 01-.27.27h.989a.27.27 0 00.27-.27v-13.6a.27.27 0 00-.27-.27z" fill="#7BE2F6"/>
  <path d="M7.534 16.465v-1.488c0-1.233 1-2.233 2.233-2.233h4.465c1.233 0 2.233 1 2.233 2.233v1.488h-8.93z" fill="#FC4C1E"/>
  <path d="M14.232 12.744h-.988c1.233 0 2.233 1 2.233 2.233v1.488h.988v-1.488c0-1.233-1-2.233-2.233-2.233z" fill="#DB3618"/>
  <path d="M10.884 10.428v2.205c0 .071.028.14.079.19l.846.847a.27.27 0 00.382 0l.846-.847a.269.269 0 00.08-.19v-2.205h-2.233z" fill="#FDA792"/>
  <path d="M14.232 6.79c0-.821-.666-1.488-1.489-1.488h-1.488c-.822 0-1.488.667-1.488 1.489v2.232a2.233 2.233 0 104.465 0V6.791z" fill="#FECEC0"/>
  <path d="M12.744 5.302h-.988c.822 0 1.488.667 1.488 1.489v2.232a2.233 2.233 0 01-1.738 2.177 2.233 2.233 0 002.727-2.177V6.791c0-.822-.667-1.489-1.489-1.489z" fill="#FDA792"/>
  <path d="M18.428 17.954H5.57a.27.27 0 00-.27.27v4.127l1.112-.606a.27.27 0 01.258 0l2.6 1.418 2.6-1.418a.27.27 0 01.258 0l2.47 1.348c.08.044.178.044.258 0l2.471-1.348a.27.27 0 01.258 0l1.111.606v-4.128a.27.27 0 00-.27-.27z" fill="#AAEBF9"/>
  <path d="M5.683 21.745a.27.27 0 00-.258 0l-.123.067v.54l.746-.408-.365-.199zM11.141 21.745a.27.27 0 00-.258 0l-2.106 1.149.494.27 2.235-1.22-.365-.199zM18.428 17.954h-.989c.15 0 .27.12.27.27v3.588l.988.54v-4.129a.27.27 0 00-.27-.27zM16.598 21.745a.269.269 0 00-.258 0l-2.106 1.149.365.199c.08.044.178.044.258 0l2.106-1.149-.365-.199z" fill="#7BE2F6"/>
  <path d="M20.438 23.386l.006-.006a.33.33 0 00.064-.118v-.003a.285.285 0 00.012-.054l.001-.007a.308.308 0 00.002-.035V1.58C20.523.985 20.038.5 19.442.5H4.558c-.596 0-1.081.485-1.081 1.081v21.582l.001.034.003.022.002.01c.01.049.03.094.058.132l.005.006.026.03.001.003c.01.01.02.019.032.028a.358.358 0 00.036.025l.004.002a.34.34 0 00.08.033h.003a.354.354 0 00.038.009h.005a.349.349 0 00.082 0h.006a.325.325 0 00.033-.006l.007-.002a.324.324 0 00.034-.011l.004-.002a.297.297 0 00.04-.019l2.565-1.399 2.568 1.4.003.002.016.008.015.007.012.004.02.007.006.002a.421.421 0 00.025.006h.003l.03.004h.007l.024.002.024-.001h.008a.32.32 0 00.029-.005h.003l.024-.006.008-.002.019-.006.012-.005a.321.321 0 00.015-.007l.016-.008.003-.001 2.568-1.4 2.567 1.4.018.008.017.008a.29.29 0 00.028.01l.012.004a.373.373 0 00.036.007l.007.001a.365.365 0 00.087 0l.007-.001a.361.361 0 00.035-.007l.013-.004a.341.341 0 00.028-.01l.017-.008.018-.008 2.567-1.4 2.564 1.398a.334.334 0 00.319.005h.001l.024-.014.005-.003.02-.014.007-.005.017-.015.008-.007a.198.198 0 00.016-.018zm-3.142-2.007l-2.567 1.4-2.568-1.4a.338.338 0 00-.323 0l-2.567 1.4-2.567-1.4a.338.338 0 00-.323 0l-.742.405V18.29h1.895a.337.337 0 000-.674H5.302a.337.337 0 00-.337.337v4.197l-.815.445V1.58c0-.224.183-.407.408-.407h14.884c.224 0 .407.183.407.407v21.015l-.815-.445v-4.197a.337.337 0 00-.336-.337H8.922a.337.337 0 000 .674h9.439v3.493l-.742-.405a.338.338 0 00-.323 0z" fill="#000"/>
  <path d="M16.465 16.802H18.697c.187 0 .337-.15.337-.337V2.325a.337.337 0 00-.337-.337H5.302a.337.337 0 00-.337.337v14.14c0 .186.15.337.337.337h11.163zM12 10.92a1.898 1.898 0 01-1.896-1.896V6.791c0-.635.516-1.152 1.151-1.152h1.489c.635 0 1.151.517 1.151 1.152v2.232c0 1.046-.85 1.896-1.895 1.896zm0 .674c.271 0 .533-.043.779-.121v1.133l-.78.78-.779-.78v-1.133c.246.078.508.12.78.12zm-1.256 1.488L11.76 14.1a.337.337 0 00.477 0l1.017-1.018h.977c1.046 0 1.896.85 1.896 1.896v1.151H7.87v-1.151c0-1.045.85-1.896 1.896-1.896h.977zM5.639 2.662H18.36v13.466h-1.558v-1.151a2.572 2.572 0 00-2.57-2.57h-.78v-1.266a2.568 2.568 0 001.117-2.118V6.791a1.827 1.827 0 00-1.825-1.826h-1.489A1.827 1.827 0 009.43 6.791v2.232c0 .878.443 1.654 1.116 2.118v1.266h-.779a2.572 2.572 0 00-2.57 2.57v1.151H5.64V2.662z" fill="#000"/>
  <path d="M12.372 9.43h-.744a.337.337 0 100 .674h.744a.337.337 0 000-.673zM11.593 7.83v-.372a.337.337 0 00-.674 0v.372a.337.337 0 00.674 0zM12.744 7.12a.337.337 0 00-.337.338v.372a.337.337 0 10.674 0v-.372a.337.337 0 00-.337-.337z" fill="#000"/>
</svg>
