<svg width="24" height="24" fill="none" xmlns="http://www.w3.org/2000/svg">
  <defs/>
  <g fill="#3B8BC0">
    <path d="M12.64 3.3c-.18-.425-.702-.773-1.16-.773H7.283c-.458 0-.987.345-1.175.766L5.053 5.65l4.293 1.04 4.293-1.04-.999-2.35zM19.337 4.089h-1.04c-.863 0-1.562.699-1.562 1.56l2.082 1.041 2.081-1.04c0-.862-.699-1.561-1.56-1.561z"/>
  </g>
  <path d="M3.102 5.652a2.088 2.088 0 00-2.081 2.081v11.656c0 1.145.936 2.082 2.081 2.082h17.796a2.088 2.088 0 002.082-2.082V7.733a2.088 2.088 0 00-2.082-2.081H3.102z" fill="#4EB9FF"/>
  <path d="M9.346 18.817a5.256 5.256 0 100-10.512 5.256 5.256 0 000 10.512z" fill="#174461"/>
  <path d="M9.346 17.256a3.695 3.695 0 100-7.39 3.695 3.695 0 000 7.39z" fill="#C2E7FF"/>
  <path d="M20.898 7.733h-4.163v2.498h4.163V7.733z" fill="#FFD86C"/>
  <g fill="#01121C">
    <path d="M21.03 5.133a1.917 1.917 0 00-1.848-1.374h-1.298c-.877 0-1.61.572-1.848 1.372H14.06l-.862-2.009c-.264-.615-.968-1.08-1.638-1.08H7.366c-.666 0-1.374.458-1.648 1.064l-.916 2.025H3.043A2.547 2.547 0 00.5 7.676v11.737a2.547 2.547 0 002.543 2.544h17.915a2.546 2.546 0 002.542-2.544V7.676a2.546 2.546 0 00-2.47-2.543zM17.883 4.8h1.298c.275 0 .524.13.687.332h-2.673a.888.888 0 01.688-.332zm4.575 14.614c0 .829-.673 1.503-1.502 1.503H3.043a1.505 1.505 0 01-1.502-1.503V7.676c0-.83.674-1.504 1.502-1.504h3.134a.52.52 0 000-1.04h-.233l.722-1.597c.105-.232.445-.452.7-.452h4.193c.251 0 .583.219.682.45l.686 1.598H8a.52.52 0 000 1.041h12.957c.829 0 1.502.675 1.502 1.504v11.737z"/>
    <path d="M9.464 7.62a5.777 5.777 0 00-5.77 5.77 5.775 5.775 0 005.77 5.768 5.774 5.774 0 005.768-5.768 5.776 5.776 0 00-5.768-5.77zm0 10.497a4.733 4.733 0 01-4.729-4.727 4.735 4.735 0 014.729-4.73 4.734 4.734 0 014.727 4.73 4.732 4.732 0 01-4.727 4.727z"/>
    <path d="M9.464 9.166A4.229 4.229 0 005.24 13.39a4.227 4.227 0 004.224 4.222 4.226 4.226 0 004.222-4.222 4.228 4.228 0 00-4.222-4.224zm0 7.405a3.186 3.186 0 01-3.183-3.18 3.187 3.187 0 013.183-3.184 3.186 3.186 0 013.18 3.183 3.185 3.185 0 01-3.18 3.181z"/>
    <path d="M11.1 12.87a.52.52 0 00-.52.52 1.117 1.117 0 11-1.116-1.118.52.52 0 000-1.04 2.16 2.16 0 00-2.158 2.158 2.16 2.16 0 002.158 2.156c1.189 0 2.156-.967 2.156-2.156a.52.52 0 00-.52-.52zM20.589 7.362h-4.113a.52.52 0 00-.52.52v2.546c0 .287.232.52.52.52h4.113a.52.52 0 00.52-.52V7.882a.52.52 0 00-.52-.52zm-.52 2.545h-3.073V8.403h3.073v1.504z"/>
  </g>
</svg>
