<svg width="24" height="24" fill="none" xmlns="http://www.w3.org/2000/svg">
  <defs/>
  <path d="M8.697 2.723v.74a2.576 2.576 0 012.054 1.686.367.367 0 01-.253.477 2.215 2.215 0 010 .759.367.367 0 01.253.478A2.575 2.575 0 018.33 8.573a2.572 2.572 0 01-2.57-2.569c0-1.292.96-2.364 2.203-2.542v-.74a3.308 3.308 0 00-2.937 3.282A3.307 3.307 0 008.33 9.308a3.307 3.307 0 003.303-3.303c0-1.697-1.287-3.099-2.936-3.282z" fill="#C1E8E6"/>
  <path d="M10.499 5.626a.367.367 0 01-.439-.232A1.84 1.84 0 008.33 4.17a1.837 1.837 0 00-1.835 1.835c0 1.012.823 1.835 1.835 1.835a1.84 1.84 0 001.73-1.223.367.367 0 01.439-.232 2.205 2.205 0 000-.759z" fill="#6DA8D6"/>
  <path d="M14.041 19.108l-.407 3.658h4.073l-.408-3.658h-3.258z" fill="#FFCC75"/>
  <path d="M18.974 13.603A3.307 3.307 0 0015.67 10.3a3.307 3.307 0 00-3.303 3.303 3.308 3.308 0 002.936 3.282v-.74a2.573 2.573 0 01-2.202-2.542 2.572 2.572 0 012.57-2.57c1.085 0 2.058.69 2.421 1.713a.367.367 0 01-.223.469l-.03.009a2.204 2.204 0 010 .758l.03.01a.367.367 0 01.223.468 2.576 2.576 0 01-2.055 1.685v.74a3.308 3.308 0 002.937-3.282z" fill="#C1E8E6"/>
  <path d="M17.839 13.224a.367.367 0 01-.439-.232 1.84 1.84 0 00-1.73-1.224 1.837 1.837 0 00-1.835 1.835c0 1.012.823 1.835 1.835 1.835a1.84 1.84 0 001.73-1.224.367.367 0 01.439-.232 2.206 2.206 0 000-.758z" fill="#6DA8D6"/>
  <path d="M23.133.5H.867a.367.367 0 100 .734h7.096v.752a4.042 4.042 0 00-3.67 4.02v10.197l-.486-.623a.367.367 0 00-.579.45l1.142 1.468.002.003a.37.37 0 00.023.026l.003.004.03.027.004.003a.355.355 0 00.099.056l.01.003.028.009.01.002c.01.003.02.004.031.006h.01a.359.359 0 00.08.001l.01-.002a.34.34 0 00.068-.015l.012-.005a.314.314 0 00.024-.01l.012-.006a.377.377 0 00.023-.013l.011-.007a.351.351 0 00.023-.016l.01-.007a.38.38 0 00.027-.025l.009-.01a.33.33 0 00.017-.02l.004-.003L6.09 16.03a.367.367 0 00-.58-.451l-.484.624V8.322a4.034 4.034 0 003.303 1.72 4.035 4.035 0 003.303-1.72v5.281a4.042 4.042 0 003.67 4.02v.751h-1.59a.367.367 0 00-.365.327l-.49 4.391a.367.367 0 00.365.408h4.895a.367.367 0 00.36-.435l-.486-4.364a.367.367 0 00-.364-.327h-1.59v-.751a4.042 4.042 0 003.67-4.02V1.234h3.425a.367.367 0 000-.734zm-9.5 22.266l.408-3.658H17.3l.408 3.658h-4.073zM8.33 9.309a3.307 3.307 0 01-3.303-3.304c0-1.697 1.287-3.099 2.936-3.282v.74A2.573 2.573 0 005.76 6.005a2.572 2.572 0 002.569 2.57 2.575 2.575 0 002.421-1.713.367.367 0 10-.691-.245A1.84 1.84 0 018.33 7.84a1.837 1.837 0 01-1.835-1.835c0-1.012.823-1.835 1.835-1.835.775 0 1.47.492 1.73 1.224a.367.367 0 00.691-.245 2.576 2.576 0 00-2.054-1.686v-.74a3.308 3.308 0 012.936 3.282A3.307 3.307 0 018.33 9.31zm7.707 6.836a2.576 2.576 0 002.055-1.685.367.367 0 10-.692-.246 1.84 1.84 0 01-1.73 1.224 1.837 1.837 0 01-1.835-1.835c0-1.012.823-1.835 1.835-1.835.775 0 1.47.492 1.73 1.224a.367.367 0 00.692-.246 2.575 2.575 0 00-2.422-1.712 2.572 2.572 0 00-2.569 2.569c0 1.292.959 2.364 2.202 2.542v.74a3.308 3.308 0 01-2.936-3.282A3.307 3.307 0 0115.67 10.3a3.307 3.307 0 013.303 3.303 3.308 3.308 0 01-2.936 3.282v-.74zm2.936-4.859a4.035 4.035 0 00-3.303-1.72 4.035 4.035 0 00-3.303 1.72v-5.28a4.042 4.042 0 00-3.67-4.02v-.752h10.276v10.052z" fill="#082947"/>
</svg>
