<svg width="24" height="24" fill="none" xmlns="http://www.w3.org/2000/svg">
  <defs/>
  <g fill="#EAC36E">
    <path d="M20.665 8.405H3.541v2.594h17.124V8.405zM20.665 16.292H3.541v2.595h17.124v-2.595z"/>
  </g>
  <g fill="#FCD577">
    <path d="M5.031 5.529L2.963 3.527.895 5.529v14.914H5.03V5.53zM11.06 5.528L8.99 3.526 6.923 5.528v14.914h4.136V5.528zM17.088 5.528L15.02 3.526 12.95 5.528v14.914h4.137V5.528zM23.116 5.528l-2.068-2.002-2.068 2.002v14.914h4.136V5.528z"/>
  </g>
  <path d="M23.381 5.264l-.521-.505a.39.39 0 10-.542.56l.404.39v14.36h-3.359V5.709l1.68-1.626.456.442a.39.39 0 10.541-.56l-.727-.703a.39.39 0 00-.541 0l-2.069 2.002a.39.39 0 00-.118.28V8.03H17.47V5.544a.39.39 0 00-.118-.28l-2.068-2.002a.39.39 0 00-.542 0l-2.068 2.002a.39.39 0 00-.119.28V8.03h-1.113V5.544a.39.39 0 00-.118-.28L9.256 3.262a.39.39 0 00-.541 0L6.647 5.264a.39.39 0 00-.119.28V8.03H5.415V5.544a.39.39 0 00-.119-.28L3.228 3.262a.39.39 0 00-.541 0L.619 5.264a.39.39 0 00-.119.28v3.498a.39.39 0 00.778 0V5.71l1.68-1.626L4.637 5.71v14.36H1.278v-9.73a.39.39 0 10-.778 0v10.12c0 .214.174.388.39.388h4.136a.39.39 0 00.39-.389v-1.167h1.112v1.167c0 .215.175.39.39.39h4.136a.39.39 0 00.39-.39v-1.167h1.113v1.167c0 .215.174.39.389.39h4.136a.39.39 0 00.39-.39v-1.167h1.113v1.167c0 .215.174.39.39.39h4.136a.39.39 0 00.389-.39V5.544a.39.39 0 00-.119-.28zm-5.91 6.14h1.114v4.514h-1.113v-4.515zm1.114-2.595v1.816h-1.113V8.809h1.113zm-6.028 0v1.816h-1.114V8.809h1.114zm-7.142 2.594h1.113v4.515H5.415v-4.515zM6.528 8.81v1.816H5.415V8.809h1.113zm-1.113 9.703v-1.816h1.113v1.816H5.415zm1.892 1.557V5.709l1.679-1.626 1.679 1.626v5.928a.39.39 0 00.778 0v-.234h1.114v4.515h-1.114v-2.984a.39.39 0 00-.778 0v7.135H7.307zm4.136-1.557v-1.816h1.114v1.816h-1.114zm1.892 1.557V5.709l1.68-1.626 1.678 1.626v14.36h-3.358zm4.137-1.557v-1.816h1.113v1.816h-1.113z" fill="#000"/>
  <path d="M21.043 10.106a.39.39 0 100-.778.39.39 0 000 .778zM21.043 17.994a.39.39 0 100-.779.39.39 0 000 .779zM15.014 10.106a.39.39 0 100-.778.39.39 0 000 .778zM15.014 17.994a.39.39 0 100-.779.39.39 0 000 .779zM8.986 10.106a.39.39 0 100-.778.39.39 0 000 .778zM8.986 17.994a.39.39 0 100-.779.39.39 0 000 .779zM2.958 10.106a.39.39 0 100-.778.39.39 0 000 .778zM2.958 17.994a.39.39 0 100-.779.39.39 0 000 .779z" fill="#000"/>
</svg>
