<svg width="24" height="24" fill="none" xmlns="http://www.w3.org/2000/svg">
  <defs/>
  <path d="M18.835 3.799l.666-1.288a.484.484 0 00-.666-.645l-1.755.978a7.388 7.388 0 00-2.53-.44c-3.52 0-6.372 2.4-6.372 5.361 0 1.68.919 3.18 2.357 4.163v2.147h1.975v-1.23c.64.183 1.326.281 2.04.281.732 0 1.436-.104 2.092-.296v.75c0 .274.222.495.495.495h.985a.495.495 0 00.495-.495v-1.688c1.407-.984 2.304-2.467 2.304-4.127 0-1.572-.805-2.986-2.086-3.966z" fill="#E4989D"/>
  <path d="M17.69 12.43v1.645h-.553a.495.495 0 01-.495-.495v-.75l1.048-.4z" fill="#DD636E"/>
  <path d="M17.69 12.43a7.28 7.28 0 01-3.14.696c-3.52 0-6.372-2.4-6.372-5.36 0-2.636 2.26-4.827 5.238-5.277-1.929.921-3.23 2.665-3.23 4.665 0 2.96 2.852 5.36 6.372 5.36.386 0 .765-.028 1.133-.084z" fill="#DD636E"/>
  <path d="M21.358 9.28a.738.738 0 01-.738-.739V6.874a.738.738 0 011.476 0V8.54c0 .408-.33.738-.738.738z" fill="#E4989D"/>
  <path d="M22.096 8.46v.081a.738.738 0 11-1.476 0V6.874c0-.243.117-.458.298-.592v1.585a.738.738 0 001.178.593z" fill="#DD636E"/>
  <path d="M18.287 8.021a.682.682 0 100-1.364.682.682 0 000 1.364z" fill="#5E6B75"/>
  <path d="M22.616 15.88l-5.864 4.703c-.482.387-1.1.563-1.713.488l-7.903-.962-2.106.779c-1.13-1.163-.666-4.906-.666-4.906l.502-.137a1.901 1.901 0 011.062-1.832l3.39-1.655 1.742-.851a1.656 1.656 0 011.578 2.909L9.82 16.104l4.74.826c.571.099 1.158-.021 1.644-.337l4.715-3.06a1.45 1.45 0 011.697 2.347z" fill="#F1D0A5"/>
  <path d="M15.025 19.808c-3.246.421-5.484-1.482-6.838-3.273a1.909 1.909 0 01.492-2.76c3.27-2.095 4.115-2.018 4.563-1.57a1.657 1.657 0 00-2.182-.698l-1.743.851-2.747 1.341-.642.314a1.9 1.9 0 00-1.062 1.832l-.502.137s-.465 3.743.666 4.906l2.106-.779 7.903.962a2.295 2.295 0 001.713-.488l5.864-4.703c-2.027-.55-5.404 3.593-7.59 3.928z" fill="#F1B986"/>
  <path d="M3.663 15.51a6.832 6.832 0 00-2.822.998 55.328 55.328 0 002.01 5.689 6.832 6.832 0 002.822-.997 55.341 55.341 0 00-2.01-5.69z" fill="#80A6C6"/>
  <path d="M5.673 21.2a6.822 6.822 0 01-2.822.997 55.865 55.865 0 01-.582-1.46 7.261 7.261 0 002.944-1.03c.16.495.314.992.46 1.492z" fill="#5B8EB8"/>
  <path d="M23.436 14.274a1.79 1.79 0 00-2.703-1.027l-4.714 3.06c-.246.16-.53.263-.82.3a.34.34 0 10.086.676c.391-.05.773-.189 1.105-.404l4.715-3.06a1.115 1.115 0 011.674.635 1.11 1.11 0 01-.377 1.16l-5.863 4.703c-.408.328-.94.479-1.46.415l-7.902-.962a.34.34 0 00-.16.02l-1.272.47a56.058 56.058 0 00-1.38-3.923l.592-.164a.341.341 0 00.249-.35 1.559 1.559 0 01.872-1.504l5.131-2.506a1.309 1.309 0 011.733.554 1.312 1.312 0 01-.48 1.756l-2.817 1.689a.34.34 0 00.117.628l4.069.708a.34.34 0 10.117-.672l-3.167-.55 2.031-1.218c.491-.294.812-.765.926-1.283a7.859 7.859 0 002.563-.155v.31c0 .461.375.836.836.836h.984a.837.837 0 00.837-.836v-1.514c.914-.677 1.6-1.56 1.974-2.534a1.08 1.08 0 001.505-.99V6.873a1.08 1.08 0 00-1.544-.974c-.335-.826-.889-1.573-1.628-2.191l.538-1.041a.82.82 0 00-.159-.972.82.82 0 00-.976-.128l-1.621.904a7.725 7.725 0 00-2.498-.408c-1.387 0-2.718.356-3.849 1.029a.34.34 0 10.349.586c1.025-.61 2.235-.933 3.5-.933a7.03 7.03 0 012.418.42.34.34 0 00.326-.05L19 2.162a.135.135 0 01.17.023c.028.028.07.086.027.169l-.63 1.222a.34.34 0 00.055.49c.846.646 1.448 1.467 1.746 2.38a1.074 1.074 0 00-.088.427V8.54c0 .17.04.331.11.474-.311 1.006-1.005 1.924-1.969 2.597a.34.34 0 00-.145.28v1.688c0 .085-.07.155-.155.155h-.984a.154.154 0 01-.154-.155v-.75a.34.34 0 00-.437-.327 7.127 7.127 0 01-2.778.24 2 2 0 00-.227-.7 1.988 1.988 0 00-2.631-.842l-.475.231c-1.22-.948-1.917-2.274-1.917-3.666 0-1.22.534-2.398 1.503-3.315a.34.34 0 10-.469-.495c-1.067 1.01-1.672 2.305-1.713 3.66a2.09 2.09 0 01-.427.303 1.457 1.457 0 00-.136-.473c-.21-.428-.634-.712-1.062-.71a.809.809 0 00-.743.47c-.213.452-.052.969.4 1.287.191.134.424.227.683.262a2.831 2.831 0 01-.295.45.341.341 0 00.535.422c.272-.344.437-.657.529-.936.184-.055.372-.138.56-.255.174 1.254.833 2.423 1.878 3.326L5.78 13.706a2.24 2.24 0 00-1.255 1.879l-.416.115a51.14 51.14 0 00-.132-.32.34.34 0 00-.356-.208 7.2 7.2 0 00-2.96 1.047.341.341 0 00-.147.385 55.93 55.93 0 002.022 5.724.34.34 0 00.356.207 7.2 7.2 0 002.961-1.046.34.34 0 00.147-.385l-.056-.19 1.233-.457 7.82.952a2.651 2.651 0 001.969-.56l5.852-4.695.011-.008a1.792 1.792 0 00.607-1.872zm-2.078-7.798c.22 0 .398.179.398.397v1.668a.397.397 0 01-.794 0V6.873c0-.218.178-.397.396-.397zM6.263 7.935c-.067-.048-.279-.219-.175-.439.019-.04.048-.078.131-.078h.002c.14 0 .337.112.442.328.05.102.075.215.076.338a.893.893 0 01-.476-.15zM3.065 21.822a55.271 55.271 0 01-1.822-5.157 6.508 6.508 0 012.206-.78 55.29 55.29 0 011.822 5.158 6.51 6.51 0 01-2.206.78z" fill="#000"/>
  <path d="M11.397 14.326a.87.87 0 00.41-.103l.422-.226a.34.34 0 00-.32-.601l-.423.225a.184.184 0 01-.238-.057 2.685 2.685 0 01-.373-.862.34.34 0 00-.67.13c.005.022.112.567.477 1.111a.859.859 0 00.715.383zM3.816 20.916a.344.344 0 00.332-.266c.07-.3-.282-.528-.53-.352a.343.343 0 00-.12.4c.05.13.178.218.318.218zM12.53 4.253a.34.34 0 00.11-.018 5.9 5.9 0 011.91-.311c.636 0 1.255.097 1.84.288a.34.34 0 10.211-.648 6.595 6.595 0 00-2.052-.322 6.58 6.58 0 00-2.13.348.34.34 0 00.11.663zM19.31 7.34a1.024 1.024 0 00-2.045 0 1.024 1.024 0 002.045 0zm-1.363 0a.341.341 0 11.682 0 .341.341 0 01-.683 0z" fill="#000"/>
</svg>
