<svg width="24" height="24" fill="none" xmlns="http://www.w3.org/2000/svg">
  <defs/>
  <path d="M13.221 11.559l4.046 4.4 4.727 5.175.542 2.111-2.055-.727-4.728-5.174-4.23-4.23 1.698-1.555z" fill="#D3E8F1"/>
  <path d="M22.536 23.245l-2.055-.727-4.728-5.174-4.23-4.23.82-.752 10.193 10.883z" fill="#B1C6D3"/>
  <g fill="#6BE8C7">
    <path d="M5.653 9.305l3.462 4.742 1.45-1.326 1.613-1.477 2.396-2.191-4.407-3.877"/>
    <path d="M9.115 14.047a9.025 9.025 0 00-.072.17c-.71 1.742-.076 3.554.963 4.663l9.288-8.514c-.322-.399-.694-.774-1.154-1.006-.514-.26-1.448-.603-2.234-.565a4.673 4.673 0 00-1.332.258l-5.46 4.994z"/>
  </g>
  <g fill="#3CD3A8">
    <path d="M7.667 2.196l1.32-1.21 2.627 2.864-7.426 6.806L1.563 7.79l4.326-4.013 1.778-1.583z"/>
    <path d="M6.736 7.51c.099.045 3.942 4.726 3.942 4.726-.216.222-.428.448-.638.675-.207.225-.427.437-.62.675-.17.21-.282.43-.392.676.002-.006.017-.04.015-.044L4.995 8.316l1.11-1.241.631.435z"/>
  </g>
  <path d="M16.968 15.57a.37.37 0 00-.023.523L21.61 21.2l.346 1.35-1.314-.465-4.665-5.106a.37.37 0 00-.546.5l4.727 5.174c.041.045.093.079.15.099l2.055.727a.374.374 0 00.373-.076.37.37 0 00.11-.365l-.542-2.111a.368.368 0 00-.085-.158l-4.728-5.175a.37.37 0 00-.523-.023zM1.24 7.926l2.627 2.865a.37.37 0 00.522.022l1.164-1.066 3.091 4.235a4.416 4.416 0 00-.322 1.657c0 1.221.497 2.453 1.364 3.378a.37.37 0 00.52.02l9.29-8.513a.37.37 0 00.037-.506 4.694 4.694 0 00-1.253-1.092.37.37 0 00-.378.636c.302.18.579.401.826.66l-8.74 8.011c-.584-.745-.926-1.69-.926-2.594 0-.48.093-.95.275-1.397l.038-.092 5.34-4.885.095-.03c.356-.11.713-.172 1.062-.186a.37.37 0 10-.03-.74 4.93 4.93 0 00-1.23.213l-3.94-3.466 1.143-1.048a.37.37 0 00.023-.523L9.212.62a.37.37 0 00-.523-.023l-1.32 1.21a.37.37 0 10.5.546l1.047-.96 2.126 2.32-1.175 1.076-.001.001-4.46 4.089-.02.012a.367.367 0 00-.076.075l-1.148 1.052-2.127-2.321 4.057-3.763a.37.37 0 10-.503-.542L1.262 7.405a.37.37 0 00-.021.52zm5.82.44c.433.494 2.14 2.58 3.24 3.935L9.12 13.38 6.103 9.244l.959-.879zm6.911.577L10.847 11.8a671.41 671.41 0 00-1.602-1.964c-.993-1.212-1.429-1.735-1.64-1.971l2.518-2.308 3.848 3.385z" fill="#000"/>
</svg>
