<svg width="24" height="24" fill="none" xmlns="http://www.w3.org/2000/svg">
  <defs/>
  <path d="M20.415 21.196a1.39 1.39 0 01-2.568 1.06l-4.14-9.983 2.649-.9 4.059 9.823z" fill="#4EBFED"/>
  <path d="M16.165 1.886a4.951 4.951 0 01-.579 7.624l.77 1.862-2.65.9-.828-1.995-.042-.121.096-.034a3.033 3.033 0 001.89-1.737 3.03 3.03 0 000-2.325c.102-.077 1.778-1.399 1.343-4.174z" fill="#BAC6CC"/>
  <path d="M16.165 1.886c.435 2.775-1.241 4.097-1.344 4.174a3.032 3.032 0 00-1.65-1.647L14.629.885a4.935 4.935 0 011.537 1.001z" fill="#CFDCE5"/>
  <path d="M14.822 6.06a3.03 3.03 0 01.001 2.325 3.033 3.033 0 01-1.89 1.737l-.097.034c-.596.2-1.206.278-1.804.25l-.764 1.85-2.615-.889.77-1.857a4.952 4.952 0 01-.572-7.631h.001C7.4 4.747 9.201 6.064 9.201 6.064a3.033 3.033 0 011.64-1.646l.004-.002a3.032 3.032 0 012.327-.003c.777.321 1.351.927 1.65 1.647zm-1.816 1.575a1.076 1.076 0 10-1.989-.82 1.076 1.076 0 001.99.82z" fill="#BAC6CC"/>
  <path d="M12.422 6.23a1.076 1.076 0 11-.82 1.99 1.076 1.076 0 01.82-1.99z" fill="#314A5F"/>
  <path d="M10.838 4.413l.002.005c-.716.3-1.32.872-1.64 1.646 0 0-1.8-1.318-1.348-4.185a4.947 4.947 0 011.53-.994l1.456 3.528z" fill="#CFDCE5"/>
  <path d="M10.268 12.256l-4.128 10a1.39 1.39 0 01-1.284.859h-.021a1.39 1.39 0 01-1.263-1.92l4.08-9.828 2.616.889z" fill="#4EBFED"/>
  <path d="M13.093 6.83h-.003a.385.385 0 00-.382.39.687.687 0 01-.426.643.686.686 0 01-.529 0 .685.685 0 01-.374-.373.686.686 0 010-.529.686.686 0 01.373-.374.686.686 0 01.529-.001.385.385 0 00.293-.712 1.452 1.452 0 00-1.117.002c-.36.15-.641.43-.79.791a1.45 1.45 0 00.001 1.118c.15.36.431.641.792.79a1.458 1.458 0 002.018-1.363.385.385 0 00-.385-.381z" fill="#000"/>
  <path d="M13.06 10.488a3.42 3.42 0 002.125-1.956 3.403 3.403 0 00-.002-2.62 3.403 3.403 0 00-1.858-1.855 3.4 3.4 0 00-2.262-.123L9.743.738A.385.385 0 009.242.53a5.32 5.32 0 00-3.176 3.787 5.303 5.303 0 00.28 3.18c.349.845.904 1.58 1.614 2.143l-3.56 8.576a.385.385 0 10.71.296l2.767-6.663 1.885.64-3.971 9.62c-.156.378-.52.622-.928.622h-.018a.99.99 0 01-.82-.452.99.99 0 01-.09-.934l.612-1.477a.385.385 0 00-.71-.295l-.614 1.477a1.773 1.773 0 001.612 2.45H4.862c.72 0 1.364-.43 1.64-1.096l4.79-11.607a5.283 5.283 0 001.672-.275l.084-.03.013-.003zM10.353 4.23a3.393 3.393 0 00-1.253 1.2c-.439-.502-1.118-1.592-.88-3.361a4.54 4.54 0 01.966-.666l1.167 2.827zm2.47 5.525a.23.23 0 00-.01.004l-.018.006a4.52 4.52 0 01-1.737.256.384.384 0 00-.375.237l-.626 1.517-1.884-.64.613-1.477a.385.385 0 00-.135-.463 4.552 4.552 0 01-1.593-1.993 4.537 4.537 0 01-.24-2.72 4.58 4.58 0 01.588-1.443c.1 2.227 1.504 3.285 1.574 3.336a.385.385 0 00.583-.164 2.64 2.64 0 011.436-1.44 2.64 2.64 0 012.033-.002 2.637 2.637 0 011.44 1.439 2.651 2.651 0 01-1.65 3.548z" fill="#000"/>
  <path d="M20.776 21.049l-4.714-11.41a5.327 5.327 0 001.615-2.143 5.304 5.304 0 00.28-3.175A5.325 5.325 0 0014.782.53a.385.385 0 00-.503.209l-.966 2.34a.385.385 0 10.712.293l.813-1.969c.353.182.678.407.971.672.14 1.044-.019 1.978-.475 2.778a.385.385 0 10.669.382c.28-.49.57-1.224.617-2.19.274.44.473.926.587 1.441.2.911.117 1.85-.24 2.716a4.556 4.556 0 01-1.596 1.993.385.385 0 00-.134.462l.613 1.483-1.92.652-.219-.526a.385.385 0 00-.71.295l4.496 10.842a1.764 1.764 0 001.64 1.097h.027a1.782 1.782 0 001.748-1.773c0-.231-.046-.46-.135-.678zm-1.625 1.68h-.015a.999.999 0 01-.928-.62l-3.984-9.604 1.92-.652 3.92 9.49c.05.124.077.253.077.384 0 .544-.444.994-.99 1.003z" fill="#000"/>
</svg>
