<svg width="24" height="24" fill="none" xmlns="http://www.w3.org/2000/svg">
  <defs/>
  <path d="M7.889.837h8.224v2.471H7.889V.837z" fill="#DAE4EA"/>
  <path d="M14.316.837v.345c0 .678-.55 1.228-1.228 1.228h-5.2v.898h8.225V.837h-1.797z" fill="#C6D0DA"/>
  <path d="M8.352 3.308h7.298v1.236H8.352V3.308z" fill="#B9C1CB"/>
  <path d="M7.889 4.544v6.395h1.123l.33-.62c.27-.507.796-.823 1.37-.823h2.578c.573 0 1.1.316 1.37.822l.33.62h1.123V4.545H7.889z" fill="#DAE4EA"/>
  <path d="M14.765 4.544v5.2a.295.295 0 01-.295.296c.072.085.136.178.19.278l.33.62h1.123V4.545h-1.348z" fill="#C6D0DA"/>
  <path d="M12 9.496a2.476 2.476 0 100-4.952 2.476 2.476 0 000 4.952z" fill="#F6F9F9"/>
  <path d="M12 8.373a1.353 1.353 0 100-2.706 1.353 1.353 0 000 2.706z" fill="#808B95"/>
  <path d="M12 16.52a3.321 3.321 0 100 6.643 3.321 3.321 0 000-6.643zm0 5.276a1.954 1.954 0 110-3.908 1.954 1.954 0 010 3.908z" fill="#DAE4EA"/>
  <path d="M12.517 16.56c.544.528.908 1.241.99 2.037a1.954 1.954 0 01-1.598 3.197 3.306 3.306 0 01-2.222.43 3.321 3.321 0 102.83-5.664z" fill="#C6D0DA"/>
  <path d="M13.124 13.42V9.495h-2.246v3.923a7.119 7.119 0 01-1.191 3.942l-.228.342a3.314 3.314 0 012.542-1.183c1.02 0 1.932.46 2.542 1.183l-.228-.342a7.119 7.119 0 01-1.191-3.942z" fill="#B9C1CB"/>
  <path d="M15.012 16.55h1.152v1.153h-1.152v-1.152zM15.012 21.98h1.152v1.153h-1.152V21.98z" fill="#808B95"/>
  <path d="M14.542 17.703c.486.578.78 1.324.78 2.139h1.515v-2.139h-2.295z" fill="#B9C1CB"/>
  <path d="M15.322 19.842c0 .814-.293 1.56-.78 2.138h2.295v-2.138h-1.515z" fill="#A0AAB7"/>
  <path d="M8.99 17.703H7.835v-1.152H8.99v1.152zM8.99 23.133H7.835V21.98H8.99v1.153z" fill="#808B95"/>
  <path d="M9.459 17.703a3.308 3.308 0 00-.78 2.139H7.164v-2.139H9.46z" fill="#B9C1CB"/>
  <path d="M8.679 19.842c0 .814.293 1.56.78 2.138H7.164v-2.138H8.68z" fill="#A0AAB7"/>
  <path d="M22.263 15.102l-.171 2.801-.75-.522c-.967 1.233-2.248 2.266-3.736 3.007-.251.126-.508.242-.77.35v-1.226c1.436-.666 2.665-1.62 3.582-2.773l-.722-.502 2.567-1.135zm-15.099 4.74v-.33c-1.435-.666-2.664-1.62-3.58-2.773l.721-.502-2.567-1.135.17 2.801.751-.522c.967 1.233 2.248 2.266 3.736 3.007.251.126.508.242.77.35v-.896z" fill="#80BC93"/>
  <path d="M12 5.33c-.931 0-1.69.758-1.69 1.69 0 .932.759 1.69 1.69 1.69.932 0 1.69-.758 1.69-1.69 0-.932-.758-1.69-1.69-1.69zm0 2.706a1.017 1.017 0 010-2.032 1.017 1.017 0 010 2.032zM12 17.55a2.294 2.294 0 00-2.291 2.292 2.294 2.294 0 003.41 2 .337.337 0 00-.33-.588 1.618 1.618 0 11.786-1.044.337.337 0 10.657.152A2.294 2.294 0 0012 17.55zM14.815 9.366a.337.337 0 100-.674.337.337 0 000 .674zM9.187 9.366a.337.337 0 100-.674.337.337 0 000 .674z" fill="#000"/>
  <path d="M22.455 14.825a.337.337 0 00-.329-.031l-2.566 1.135a.337.337 0 00-.056.585l.42.292a9.561 9.561 0 01-2.75 2.163v-1.265a.337.337 0 00-.337-.337H16.5v-.816a.337.337 0 00-.337-.337h-1.153a.337.337 0 00-.336.337v.743l-.08-.12a6.762 6.762 0 01-1.135-3.755V9.845c.381.054.717.286.902.632l.33.62c.059.11.173.179.298.179h1.123c.186 0 .337-.15.337-.337V4.544a.337.337 0 00-.337-.337h-.126v-.562h.126c.186 0 .337-.15.337-.336v-.912a.337.337 0 000-.65v-.91A.337.337 0 0016.113.5H7.888a.337.337 0 00-.337.337v.91a.337.337 0 000 .65v.912c0 .186.151.336.337.336h.126v.562h-.126a.337.337 0 00-.337.337v6.395c0 .186.151.337.337.337h1.123a.337.337 0 00.298-.179l.33-.62c.185-.346.52-.578.902-.632v1.094a.337.337 0 10.673 0V9.833h.45v5.46a.337.337 0 10.673 0v-5.46h.45v3.586c0 1.064.224 2.103.656 3.06a3.64 3.64 0 00-1.442-.296c-.512 0-1 .106-1.443.297a7.432 7.432 0 00.656-3.06v-.909a.337.337 0 10-.674 0v.908c0 1.34-.392 2.64-1.134 3.756l-.08.119v-.743a.337.337 0 00-.336-.337H7.837a.337.337 0 00-.337.337v.816h-.336a.337.337 0 00-.337.336v1.266a9.562 9.562 0 01-2.75-2.163l.42-.293a.337.337 0 00-.056-.584l-2.566-1.135a.337.337 0 00-.473.328l.17 2.802a.337.337 0 00.53.256l.493-.343c1.09 1.303 2.546 2.392 4.232 3.124v1.019c0 .186.151.337.337.337H7.5v.816c0 .186.15.337.337.337H8.99c.186 0 .336-.151.336-.337v-.797a3.649 3.649 0 002.675 1.164 3.649 3.649 0 002.674-1.164v.797c0 .186.15.337.336.337h1.153c.186 0 .337-.151.337-.337v-.816h.336c.186 0 .337-.151.337-.337V20.96c1.684-.731 3.14-1.82 4.232-3.124l.494.343a.337.337 0 00.528-.256l.171-2.802a.337.337 0 00-.144-.297zM16.5 21.643h-1.316c.25-.44.411-.936.46-1.465h.856v1.465zm0-3.603v1.465h-.857a3.634 3.634 0 00-.459-1.465H16.5zm-1.152-1.152h.48v.479h-.48v-.48zM9.861 7.02c0-1.18.96-2.139 2.14-2.139 1.18 0 2.139.96 2.139 2.14 0 1.179-.96 2.138-2.14 2.138-1.18 0-2.139-.96-2.139-2.139zm5.915 3.582h-.584l-.236-.442a1.885 1.885 0 00-1.2-.943 2.81 2.81 0 00.07-4.336h1.95v5.72zm0-9.428v.562h-.335a.337.337 0 100 .674h.335v.562h-7.55V2.41h5.642a.337.337 0 100-.674H8.225v-.562h7.55zm-.463 2.471v.562H8.688v-.562h6.625zM9.045 10.16l-.236.442h-.584v-5.72h1.95a2.808 2.808 0 00.07 4.335 1.885 1.885 0 00-1.2.943zM7.5 21.643v-1.465h.857c.048.529.21 1.025.46 1.465H7.5zm0-3.603h1.316c-.25.44-.411.936-.46 1.465h-.856V18.04zm.673-1.152h.479v.479h-.48v-.48zm-5.25.285a.337.337 0 00-.457-.068l-.258.18-.1-1.651 1.511.668-.23.16a.337.337 0 00-.07.487c.907 1.14 2.116 2.096 3.507 2.776v.498c-1.566-.728-2.916-1.792-3.902-3.05zm5.729 5.623h-.48v-.48h.48v.48zm3.348.03a2.988 2.988 0 01-2.985-2.984 2.988 2.988 0 012.985-2.985 2.988 2.988 0 012.984 2.985 2.988 2.988 0 01-2.984 2.984zm3.826-.03h-.479v-.48h.48v.48zm5.965-5.512l-.258-.18a.337.337 0 00-.458.07c-.975 1.242-2.316 2.311-3.902 3.049v-.498c1.39-.68 2.6-1.636 3.508-2.776a.337.337 0 00-.072-.487l-.23-.16 1.513-.668-.1 1.65z" fill="#000"/>
</svg>
