<svg width="24" height="24" fill="none" xmlns="http://www.w3.org/2000/svg">
  <defs/>
  <path d="M21.015 4.049H3.04v14.323h17.976V4.05z" fill="#CFDCE5"/>
  <path d="M21.015 4.049H3.04v1.646h17.976V4.049z" fill="#BAC6CC"/>
  <g fill="#FCD577">
    <path d="M22.358.891H1.696v3.158h20.662V.89zM10.617 18.373l-.556 1.46-1.248 3.276H5.655l1.248-3.277.557-1.46h3.157zM18.399 23.11h-3.158l-1.248-3.278-.556-1.46h3.157l.556 1.46L18.4 23.11z"/>
  </g>
  <g fill="#EAC36E">
    <path d="M7.46 18.372h3.157l-.556 1.46H6.903l.557-1.46zM17.15 19.831h-3.157l-.556-1.46h3.157l.556 1.46z"/>
  </g>
  <path d="M22.33.5H4.937a.391.391 0 000 .782H21.94v2.376H2.06V1.282h1.313a.391.391 0 000-.782H1.67a.391.391 0 00-.39.391v3.158c0 .216.174.39.39.39h.952v13.933c0 .216.175.391.39.391h3.854L5.262 22.97a.391.391 0 00.366.53h3.157c.163 0 .308-.1.366-.252l1.248-3.277a.39.39 0 10-.73-.278l-1.153 3.025H6.195l1.507-3.955h5.438l1.709 4.485a.391.391 0 00.365.252h3.158a.39.39 0 00.365-.53l-1.602-4.207h3.853a.391.391 0 00.391-.39v-3.397a.391.391 0 00-.782 0v3.005H3.403V4.44h17.194v9.233a.391.391 0 10.782 0V4.44h.951a.391.391 0 00.391-.391V.89a.391.391 0 00-.39-.391zm-6.032 18.263l1.507 3.955h-2.321l-1.507-3.955h2.321z" fill="#000"/>
  <path d="M6.485 5.304a.391.391 0 00-.391.391v11.03c0 .217.175.392.39.392h11.032a.391.391 0 00.39-.391V5.696a.391.391 0 00-.39-.392H6.485zm3.97 11.03v-1.031a.391.391 0 10-.782 0v1.032H6.876V6.086h2.797v7.462a.391.391 0 10.782 0v-1.462h4.191a.39.39 0 100-.782h-4.191V6.086h6.67v5.218h-.821a.391.391 0 000 .782h.82v4.249h-6.67z" fill="#000"/>
</svg>
