<svg width="24" height="24" fill="none" xmlns="http://www.w3.org/2000/svg">
  <defs/>
  <path d="M11.843 23.006c6.078 0 11.006-4.928 11.006-11.006S17.92.994 11.843.994C5.764.994.837 5.922.837 12s4.927 11.006 11.006 11.006z" fill="#5D9CEC"/>
  <path d="M11.843.994c-.456 0-.906.028-1.348.082 5.443.665 9.658 5.302 9.658 10.924s-4.215 10.259-9.658 10.924c.442.054.892.082 1.348.082 6.078 0 11.006-4.928 11.006-11.006S17.92.994 11.843.994z" fill="#4A89DC"/>
  <path d="M22.265 14.021h-7.502l-1.348 1.797h9.748l-.898-1.797z" fill="#F6BB42"/>
  <path d="M22.265 14.021h-1.348l.898 1.797h1.348l-.898-1.797z" fill="#DCA746"/>
  <path d="M23.163 15.818h-9.748v7.188h9.748v-7.188z" fill="#FFCE54"/>
  <path d="M23.163 15.818h-1.348v7.188h1.348v-7.188z" fill="#F6BB42"/>
  <path d="M18.963 15.818h-1.348v1.797h1.348v-1.797z" fill="#ED5565"/>
  <path d="M18.738 14.021l.225 1.797h-1.348l.225-1.797h.898z" fill="#DA4453"/>
  <g fill="#A0D468">
    <path d="M7.98 18.064a1.348 1.348 0 110 2.696h-2.8a11.023 11.023 0 01-3.817-5.39h3.458a1.348 1.348 0 010 2.694h3.16zM22.85 12l-.003.225H8.459a1.348 1.348 0 110-2.696h5.406a1.348 1.348 0 110-2.695h-2.71a1.348 1.348 0 110-2.695h4.507a1.348 1.348 0 01-.45-2.619C19.642 2.942 22.85 7.097 22.85 12z"/>
  </g>
  <path d="M22.846 12.225L22.85 12c0-4.903-3.207-9.057-7.637-10.48-.377.134-.676.43-.814.806a11.002 11.002 0 015.753 9.899h2.695z" fill="#8CC152"/>
  <path d="M23.5 15.81c0-.007 0-.014-.002-.02l-.001-.015a.419.419 0 00-.016-.068.185.185 0 00-.013-.032l-.003-.007-.899-1.797-.002-.004a.358.358 0 00-.017-.03l-.01-.014-.01-.013a.224.224 0 00-.01-.01l-.012-.015-.01-.008-.014-.014-.011-.008-.015-.011-.015-.01-.012-.007-.02-.01-.008-.004a.314.314 0 00-.022-.009c-.003 0-.006-.002-.008-.003a.304.304 0 00-.022-.006l-.01-.002-.02-.004-.014-.002-.016-.001-.018-.001H14.737l-.015.002a.31.31 0 00-.034.006l-.014.004a.3.3 0 00-.031.01l-.016.006a.291.291 0 00-.029.014l-.016.01-.011.008-.015.01a.48.48 0 00-.046.044.27.27 0 00-.012.015l-.005.005-1.348 1.797-.004.006a.307.307 0 00-.027.045l-.006.014a.244.244 0 00-.012.03.355.355 0 00-.005.016l-.004.017-.003.015a.355.355 0 00-.005.052V23.006c0 .186.15.337.336.337h9.748c.186 0 .337-.151.337-.337v-7.188-.008zm-8.569-1.452h2.527l-.14 1.123h-3.23l.843-1.123zm3.51 0l.14 1.123h-.584l.14-1.123h.304zm-.489 1.797h.674v1.123h-.674v-1.123zm1.308-.674l-.14-1.123h2.936l.562 1.123H19.26zm3.566 7.188h-9.074v-6.514h3.526v1.46c0 .186.151.337.337.337h1.348c.186 0 .337-.15.337-.337v-1.46h3.526v6.514z" fill="#000"/>
  <path d="M12.06 22.667l-.217.002c-2.002 0-3.919-.548-5.581-1.573h1.717c.93 0 1.685-.755 1.685-1.684 0-.929-.756-1.685-1.685-1.685H6.167c.212-.281.338-.631.338-1.01 0-.93-.756-1.685-1.685-1.685H1.61A10.712 10.712 0 011.173 12c0-2.85 1.11-5.529 3.125-7.544a10.599 10.599 0 017.544-3.125c.883 0 1.75.107 2.585.314a1.685 1.685 0 00-.114 2.157h-3.16c-.929 0-1.685.755-1.685 1.684 0 .929.756 1.685 1.685 1.685h1.364a1.676 1.676 0 000 2.021h-4.06c-.928 0-1.684.756-1.684 1.685s.756 1.684 1.685 1.684h14.038c-.01.177-.022.354-.04.528a.337.337 0 00.67.068c.039-.382.059-.771.059-1.157 0-3.03-1.18-5.878-3.323-8.02a11.269 11.269 0 00-8.02-3.323c-3.03 0-5.878 1.18-8.02 3.322A11.268 11.268 0 00.5 12c0 3.03 1.18 5.878 3.322 8.02a11.268 11.268 0 008.252 3.32.337.337 0 10-.013-.673zm10.45-10.78H8.458a1.012 1.012 0 010-2.021h5.406a.337.337 0 100-.674 1.012 1.012 0 010-2.021.337.337 0 100-.674h-2.71a1.012 1.012 0 010-2.022h4.507a.337.337 0 100-.673 1.012 1.012 0 01-.431-1.925c1.549.517 2.968 1.39 4.157 2.579a10.597 10.597 0 013.123 7.431zM1.833 15.706H4.82a1.012 1.012 0 010 2.021.337.337 0 100 .674h3.16a1.012 1.012 0 010 2.022H5.291c-.346-.27-.678-.564-.993-.879a10.635 10.635 0 01-2.466-3.838z" fill="#000"/>
</svg>
