<svg width="24" height="24" fill="none" xmlns="http://www.w3.org/2000/svg">
  <defs/>
  <path d="M19.442 13.86h2.977a.744.744 0 00.744-.744v-1.225a.269.269 0 00-.227-.266 1.489 1.489 0 010-2.942.269.269 0 00.227-.266v-1.24a.744.744 0 00-.744-.744H3.814a.744.744 0 00-.745.744v2.97l16.373 3.713z" fill="#96D2E0"/>
  <path d="M21.601 11.491a.269.269 0 00.228-.266v-.41a1.483 1.483 0 01-.073-1.148.744.744 0 00-.672-.426H3.07v.906l16.373 3.713h1.2a1.489 1.489 0 01.959-2.37z" fill="#78B4C2"/>
  <path d="M19.442 13.86c0-.744.547-1.361 1.261-1.47a.269.269 0 00.227-.267v-1.24a.744.744 0 00-.744-.744H1.581a.744.744 0 00-.744.745v5.939c0 .41.333.744.744.744h18.605a.744.744 0 00.744-.744v-1.226a.269.269 0 00-.227-.265 1.489 1.489 0 01-1.26-1.472z" fill="#B6E3EE"/>
  <path d="M11.73 12.372h-.577a.27.27 0 01-.27-.27v-.577c0-.149.121-.27.27-.27h.578c.148 0 .27.121.27.27v.578a.27.27 0 01-.27.27zM13.963 8.666h-.577a.27.27 0 01-.27-.27V7.82c0-.149.12-.27.27-.27h.577c.149 0 .27.121.27.27v.577a.27.27 0 01-.27.27z" fill="#00BCE7"/>
  <g fill="#000">
    <path d="M13.488 13.453c.186 0 .337-.15.337-.337V12a.337.337 0 10-.674 0v1.116c0 .187.151.337.337.337zM13.488 14.268a.337.337 0 00-.337.337v1.116a.337.337 0 10.674 0v-1.116a.337.337 0 00-.337-.337zM14.977 14.268a.337.337 0 00-.337.337v1.488a.337.337 0 00.673 0v-1.488a.337.337 0 00-.336-.337zM16.093 14.268a.337.337 0 00-.337.337v1.488a.337.337 0 10.674 0v-1.488a.337.337 0 00-.337-.337zM17.209 14.268a.337.337 0 00-.337.337v1.488a.337.337 0 10.674 0v-1.488a.337.337 0 00-.337-.337zM18.326 14.268a.337.337 0 00-.337.337v1.488a.337.337 0 10.674 0v-1.488a.337.337 0 00-.337-.337zM5.453 13.738l-1.302-.651v-.908a.337.337 0 10-.674 0v.908l-1.302.65a.337.337 0 00.301.604l1-.501v1.107l-.557.28a.337.337 0 10.301.602l.594-.297.593.297a.337.337 0 00.302-.603l-.558-.279V13.84l1 .5a.337.337 0 10.302-.602zM6.79 12.71h2.977c.186 0 .337-.152.337-.338v-1.116a.337.337 0 00-.337-.337H6.79a.337.337 0 00-.337.337v1.116c0 .186.151.337.337.337zm.337-1.117H9.43v.442H7.127v-.442zM12 10.919h-1.116a.337.337 0 00-.337.337v1.116c0 .186.15.337.337.337H12c.186 0 .337-.15.337-.337v-1.116a.337.337 0 00-.337-.337zm-.337 1.116h-.442v-.442h.442v.442zM9.767 13.524H6.79a.337.337 0 100 .674h2.977a.337.337 0 100-.674zM12 13.524h-.744a.337.337 0 100 .674H12a.337.337 0 100-.674zM10.512 15.012h-.744a.337.337 0 100 .674h.744a.337.337 0 100-.674zM7.535 14.64a1.082 1.082 0 000 2.162 1.082 1.082 0 000-2.162zm0 1.488a.408.408 0 11.001-.815.408.408 0 010 .815z"/>
    <path d="M23.163 9.003c.186 0 .337-.15.337-.337V7.177c0-.596-.485-1.08-1.081-1.08h-2.03a.337.337 0 100 .673h2.03c.224 0 .407.183.407.407V8.36a1.828 1.828 0 00-1.488 1.794c0 .892.642 1.636 1.488 1.794v1.168a.408.408 0 01-.407.408h-2.59a1.154 1.154 0 011.101-.815c.187 0 .337-.15.337-.337v-1.488c0-.596-.485-1.081-1.08-1.081H3.406V7.177c0-.224.182-.407.407-.407h11.57v.408a.337.337 0 10.674 0V6.77h2.985a.337.337 0 100-.674H3.813c-.595 0-1.08.485-1.08 1.081v2.626H1.58c-.596 0-1.081.484-1.081 1.08v5.94c0 .596.485 1.08 1.081 1.08h18.605c.596 0 1.081-.484 1.081-1.08v-1.474a.337.337 0 00-.337-.337c-.517 0-.956-.344-1.1-.815h2.589c.596 0 1.081-.484 1.081-1.08v-1.474a.337.337 0 00-.337-.337 1.153 1.153 0 01-1.151-1.152c0-.635.516-1.151 1.151-1.151zm-2.57 6.652v1.168a.408.408 0 01-.407.407h-6.36v-.393a.337.337 0 10-.675 0v.393H1.581a.408.408 0 01-.407-.407v-5.94c0-.224.182-.407.407-.407h1.418a.338.338 0 00.14 0h10.013v.408a.337.337 0 10.673 0v-.408h6.361c.225 0 .408.183.408.408v1.182c-.845.159-1.486.9-1.489 1.79V13.865c.003.89.644 1.631 1.489 1.79z"/>
    <path d="M15.72 7.957a.337.337 0 00-.336.337V9.41a.337.337 0 10.674 0V8.294a.337.337 0 00-.337-.337zM9.023 7.213a.337.337 0 00-.336.337v1.116c0 .186.15.337.336.337H12c.186 0 .337-.151.337-.337V7.55A.337.337 0 0012 7.213H9.023zm2.64 1.116H9.36v-.443h2.303v.443zM13.116 7.213a.337.337 0 00-.337.337v1.116c0 .186.151.337.337.337h1.117c.186 0 .336-.151.336-.337V7.55a.337.337 0 00-.337-.337h-1.116zm.78 1.116h-.443v-.443h.443v.443z"/>
  </g>
</svg>
