<svg width="24" height="24" fill="none" xmlns="http://www.w3.org/2000/svg">
  <defs/>
  <g fill="#FF6F52">
    <path d="M3.504 2.968L2.212.892.919 2.968h2.585zM.919 16.543l1.293 2.076 1.292-2.076H.92zM21.06 23.107l2.076-1.292-2.076-1.293v2.585zM7.483 23.107l-2.076-1.292 2.076-1.293v2.585z"/>
  </g>
  <path d="M23.135 2.125V.892H5.407V18.62h17.728V3.43" fill="#CFDCE5"/>
  <path d="M23.108 2.517a.392.392 0 00.392-.392V.892A.392.392 0 0023.108.5H5.38a.392.392 0 00-.392.392V18.62c0 .216.176.392.392.392h17.728a.392.392 0 00.392-.392V3.431a.392.392 0 00-.784 0v6.712h-1.555a.392.392 0 100 .784h1.555v7.301H11.524v-1.895a.392.392 0 00-.784 0v1.895H5.772V1.284h4.968v12.228a.392.392 0 10.784 0v-2.585h6.973a.392.392 0 000-.784h-6.973v-8.86h11.193v.842c0 .216.175.392.391.392zM2.517.685a.392.392 0 00-.665 0L.559 2.76a.392.392 0 00.333.599h.9v1.638a.392.392 0 00.784 0V3.36h.901a.392.392 0 00.333-.599L2.517.685zm-.92 1.891l.587-.943.588.943H1.597zM3.477 16.152h-.9V6.042a.392.392 0 00-.784 0v10.11H.892a.392.392 0 00-.333.599l1.293 2.076a.392.392 0 00.665 0l1.293-2.076a.392.392 0 00-.333-.599zm-1.292 1.727l-.588-.943h1.175l-.587.943zM23.315 21.483L21.24 20.19a.392.392 0 00-.599.333v.9H7.848v-.9a.392.392 0 00-.599-.333l-2.076 1.293a.392.392 0 000 .665l2.076 1.293a.391.391 0 00.6-.333v-.9H20.64v.9a.392.392 0 00.6.333l2.075-1.293a.392.392 0 000-.665zm-16.25.92l-.944-.587.944-.588v1.175zm14.359 0v-1.175l.943.588-.943.587z" fill="#000"/>
</svg>
