<svg width="24" height="24" fill="none" xmlns="http://www.w3.org/2000/svg">
  <defs/>
  <g fill="#CFDCE5">
    <path d="M23.107 18.866v2.618h-5.4v-2.618c0-.976-.794-1.77-1.77-1.77h-2.709a4.702 4.702 0 01-3.925 2.11 4.703 4.703 0 01-3.926-2.11H1.27v-5.4h4.248a4.7 4.7 0 013.785-1.907c1.55 0 2.925.75 3.784 1.906h2.85c3.953 0 7.17 3.217 7.17 7.17z"/>
    <path d="M7.961 4.559v-.705a1.338 1.338 0 112.676 0V9.94l-2.676-.003V4.56z"/>
  </g>
  <g fill="#BAC6CC">
    <path d="M19.162 19.872v1.611h-1.456v-2.617c0-.976-.794-1.77-1.77-1.77a2.808 2.808 0 013.226 2.776zM6.837 14.497a4.71 4.71 0 013.587-4.573 4.708 4.708 0 00-5.718 5.59H1.27v1.582h4.107a4.703 4.703 0 005.047 1.974 4.71 4.71 0 01-3.587-4.573z"/>
    <path d="M8.981 9.937V3.854c0-.558.343-1.037.829-1.237a1.338 1.338 0 00-1.848 1.237v6.083l2.676.002-1.657-.002z"/>
  </g>
  <path d="M15.387 3.376a2.526 2.526 0 00-1.193.209c-1.493.66-3.091 1.05-4.724 1.05h-.246c-1.632 0-3.23-.39-4.724-1.05a2.526 2.526 0 00-1.193-.209A2.54 2.54 0 00.952 5.827 2.529 2.529 0 004.57 8.182c1.47-.704 3.097-1.018 4.728-1.018h.1c1.63 0 3.257.315 4.728 1.018a2.529 2.529 0 003.617-2.355 2.54 2.54 0 00-2.355-2.451z" fill="#FF6F52"/>
  <path d="M3.147 5.827a2.528 2.528 0 001.43 2.351l-.008.004A2.529 2.529 0 01.953 5.827a2.541 2.541 0 012.354-2.451c.427-.028.832.05 1.193.209l.081.035a2.545 2.545 0 00-1.434 2.207z" fill="#E25749"/>
  <path d="M21.651 13.905a7.6 7.6 0 00-4.573-2.541.422.422 0 00-.13.834 6.755 6.755 0 014.065 2.26 6.742 6.742 0 011.643 4.408v2.196h-4.557v-2.196a2.194 2.194 0 00-2.191-2.192h-2.709a.422.422 0 00-.351.189 4.28 4.28 0 01-3.575 1.92 4.28 4.28 0 01-3.574-1.92.422.422 0 00-.351-.189H1.24a.422.422 0 100 .844h3.887a5.12 5.12 0 004.146 2.11 5.12 5.12 0 004.147-2.11h2.488a1.35 1.35 0 011.347 1.348v2.618c0 .233.19.422.422.422h5.401a.422.422 0 00.422-.422v-2.618c0-1.82-.657-3.582-1.849-4.96z" fill="#000"/>
  <path d="M3.45 8.85c.446 0 .873-.097 1.272-.287a9.89 9.89 0 012.788-.847v1.966a5.16 5.16 0 00-2.227 1.591H1.24a.422.422 0 100 .845h4.25c.133 0 .259-.064.338-.171a4.251 4.251 0 013.446-1.736c1.37 0 2.626.632 3.445 1.736.08.107.205.17.339.17h2.305a.422.422 0 000-.844h-2.099a5.159 5.159 0 00-2.233-1.593V8.565a.422.422 0 00-.844 0v.885a5.078 5.078 0 00-1.832.001V7.62c.3-.023.603-.034.913-.034h.1c1.661 0 3.19.328 4.546.977.399.19.826.287 1.27.287.805 0 1.556-.317 2.116-.894a2.93 2.93 0 00.835-2.14 2.971 2.971 0 00-2.75-2.86 2.968 2.968 0 00-1.39.243c-.989.436-1.98.732-2.964.887v-.232c0-.97-.79-1.76-1.76-1.76s-1.76.79-1.76 1.76v.217A11.957 11.957 0 014.64 3.2a2.969 2.969 0 00-1.39-.244.422.422 0 00.055.842c.347-.023.682.036.994.174 1.631.72 3.278 1.086 4.895 1.086h.246c1.617 0 3.263-.366 4.894-1.086.313-.138.648-.197.995-.174a2.12 2.12 0 011.96 2.042 2.092 2.092 0 01-.595 1.529 2.09 2.09 0 01-1.51.638c-.318 0-.623-.069-.907-.205-1.47-.703-3.122-1.06-4.91-1.06h-.1c-1.788 0-3.44.357-4.91 1.06-.284.136-.59.205-.907.205a2.09 2.09 0 01-1.51-.638 2.092 2.092 0 01-.596-1.529c.015-.551.246-1.07.65-1.458a.422.422 0 00-.584-.609A2.934 2.934 0 00.5 5.816a2.93 2.93 0 00.834 2.14c.56.577 1.312.894 2.116.894zm5.745-4.637c-.28 0-.56-.012-.84-.036v-.323a.917.917 0 011.832 0v.33c-.25.019-.498.029-.746.029h-.246z" fill="#000"/>
</svg>
