<svg width="24" height="24" fill="none" xmlns="http://www.w3.org/2000/svg">
  <defs/>
  <path d="M17.366 22.81H6.635L5.288 6.088h13.424l-1.346 16.72z" fill="#CC966A"/>
  <path d="M16.386 6.089l-1.347 16.72h2.326l1.347-16.72h-2.326z" fill="#B7825A"/>
  <path d="M17.926 23.163H6.074a.634.634 0 01-.635-.634v-.653c0-.35.284-.635.635-.635h11.852c.35 0 .634.284.634.635v.653c0 .35-.284.634-.634.634z" fill="#AA4B21"/>
  <path d="M17.926 21.241H16.24v1.922h1.687c.35 0 .635-.284.635-.634v-.653a.634.634 0 00-.635-.635z" fill="#964117"/>
  <path d="M8.515 2.96a.7.7 0 01-.3-1.332L9.748.905a.7.7 0 11.598 1.265l-1.532.723a.697.697 0 01-.298.068z" fill="#345863"/>
  <path d="M19.967 8.268H4.033a.756.756 0 01-.744-.625l-.205-1.158a.756.756 0 01.744-.887h16.344c.47 0 .826.424.744.887l-.205 1.158a.756.756 0 01-.744.625z" fill="#AA4B21"/>
  <path d="M20.171 5.598h-1.42l-.472 2.67h1.688c.366 0 .68-.264.744-.625l.205-1.158a.756.756 0 00-.745-.887z" fill="#964117"/>
  <path d="M16.198 13.265l.136-1.698a.297.297 0 00-.296-.321H7.962a.297.297 0 00-.296.32l.137 1.7a.297.297 0 00.296.272H15.9a.297.297 0 00.297-.273z" fill="#F2CA20"/>
  <g fill="#000">
    <path d="M17.926 20.904h-.07l.905-11.235a.337.337 0 10-.671-.054l-.91 11.29H6.82L5.909 9.61a.337.337 0 00-.672.054l.906 11.24h-.07a.972.972 0 00-.97.972v.653c0 .535.435.971.97.971h11.853a.972.972 0 00.971-.971v-.653a.973.973 0 00-.971-.972zm.297 1.625a.298.298 0 01-.297.297H6.074a.298.298 0 01-.298-.297v-.653c0-.164.134-.298.298-.298h11.852c.164 0 .297.134.297.298v.653zM21.009 5.65a1.09 1.09 0 00-.837-.39H6.467V4.023c0-.228.133-.438.34-.536l.997-.471a1.041 1.041 0 001.153.183l1.531-.723A1.038 1.038 0 0010.396.56 1.03 1.03 0 009.603.6l-1.531.723c-.425.2-.65.654-.583 1.096l-.97.458c-.441.208-.726.657-.726 1.145V5.26H3.828a1.09 1.09 0 00-1.076 1.283l.205 1.159c.092.523.545.902 1.076.902h15.934c.531 0 .984-.38 1.076-.902l.205-1.159a1.09 1.09 0 00-.24-.892zM8.359 1.933l1.532-.723a.362.362 0 01.483.173.363.363 0 01-.173.483l-1.532.723a.365.365 0 01-.483-.173.363.363 0 01.173-.483zm12.225 4.494l-.204 1.159a.418.418 0 01-.413.346H4.033a.418.418 0 01-.413-.346l-.204-1.159a.418.418 0 01.412-.492h16.344a.418.418 0 01.412.492z"/>
    <path d="M8.099 13.875H15.9a.637.637 0 00.632-.583l.137-1.699a.635.635 0 00-.632-.684H7.962a.636.636 0 00-.632.684l.137 1.699a.637.637 0 00.632.583zm7.896-2.293l-.13 1.619h-7.73l-.13-1.619h7.99z"/>
  </g>
</svg>
