<svg width="24" height="24" fill="none" xmlns="http://www.w3.org/2000/svg">
  <defs/>
  <path d="M12.379 17.291l-.013.002a2.662 2.662 0 01-.732 0l-.013-.002a2.574 2.574 0 01-.477-.116v4.735a.857.857 0 001.712 0v-4.735a2.582 2.582 0 01-.477.116z" fill="#FFCC75"/>
  <path d="M14.215 1.346c-.008.247-.017.492-.027.736.204.009.36.18.351.383-.1 2.178-.284 4.208-.535 5.868l-1.207 7.985 3.796-7.834c.718-1.48 1.252-3.293 1.546-5.242.03-.2.215-.337.414-.309.033-.245.063-.492.088-.74a25.979 25.979 0 00-4.426-.847zM10.358 8.645a.367.367 0 01-.362-.312c-.25-1.66-.436-3.69-.535-5.868a.367.367 0 01.35-.384c-.01-.243-.018-.488-.026-.735-1.604.16-3.101.475-4.427.846.026.25.056.496.09.741a.367.367 0 01.413.309c.294 1.949.828 3.761 1.546 5.242l3.796 7.835-.988-6.535a.367.367 0 01.308-.417l-.11-.726a.377.377 0 01-.055.004z" fill="#C1E8E6"/>
  <path d="M1.28 3.676a10.87 10.87 0 002.78 5.372l5.747 6.072-3.06-6.316C5.996 7.258 5.44 5.372 5.134 3.35a.367.367 0 01.309-.417h.003a24.378 24.378 0 01-.088-.742A28.896 28.896 0 001.28 3.676zM12 1.234c-.756 0-1.496.04-2.215.112.008.247.017.492.027.735a.367.367 0 01.382.35c.098 2.154.28 4.157.528 5.792.03.2-.108.388-.308.418l.11.726c.2-.03.387.107.417.308l1.045 6.91H12.015l1.264-8.362c.247-1.635.43-3.638.528-5.792.009-.202.18-.359.382-.35.01-.243.019-.488.027-.735-.72-.072-1.46-.112-2.216-.112zM18.641 2.192c-.025.25-.055.496-.088.741h.004c.2.03.338.218.308.418-.305 2.02-.862 3.906-1.611 5.453l-3.06 6.316 5.745-6.072a10.868 10.868 0 002.78-5.373 28.897 28.897 0 00-4.078-1.483z" fill="#98D9D5"/>
  <path d="M23.288 3.129C21.182 2.147 16.915.5 12 .5 7.086.5 2.818 2.147.712 3.129a.367.367 0 00-.207.394 11.6 11.6 0 003.022 6.03l6.576 6.948c.096.101.198.194.306.277v5.132c0 .877.714 1.59 1.591 1.59s1.59-.713 1.59-1.59v-5.131c.108-.084.211-.176.307-.278l6.576-6.948a11.599 11.599 0 003.022-6.03.367.367 0 00-.207-.394zM12 22.766a.857.857 0 01-.856-.856v-4.735c.154.054.313.093.477.116l.013.002a2.66 2.66 0 00.732 0l.013-.002c.163-.023.323-.062.477-.116v4.735a.857.857 0 01-.856.856zm2.194-7.646l3.06-6.316c.75-1.546 1.307-3.432 1.611-5.453a.367.367 0 00-.308-.417h-.004a.367.367 0 00-.413.308c-.294 1.948-.829 3.761-1.546 5.242l-3.797 7.834 1.207-7.985c.251-1.66.436-3.69.536-5.868a.367.367 0 00-.734-.034c-.098 2.154-.28 4.157-.527 5.792l-1.264 8.361H11.986l-1.045-6.91a.367.367 0 10-.726.11l.988 6.534-3.796-7.834C6.689 7.004 6.154 5.19 5.86 3.242a.367.367 0 00-.414-.309h-.004a.367.367 0 00-.308.418c.305 2.021.862 3.907 1.611 5.453l3.06 6.316L4.06 9.048a10.869 10.869 0 01-2.78-5.372 28.89 28.89 0 014.078-1.484 25.985 25.985 0 014.427-.846A22.39 22.39 0 0112 1.234c.756 0 1.496.04 2.216.112 1.603.16 3.1.475 4.426.846a28.888 28.888 0 014.078 1.484 10.869 10.869 0 01-2.78 5.372l-5.746 6.072z" fill="#082947"/>
  <path d="M9.46 2.465c.1 2.178.285 4.208.536 5.868a.367.367 0 00.725-.11c-.247-1.635-.43-3.638-.527-5.792a.366.366 0 10-.734.034z" fill="#082947"/>
</svg>
