<svg width="24" height="24" fill="none" xmlns="http://www.w3.org/2000/svg">
  <defs/>
  <path d="M3.07 17.39v-7.353c0-.15.12-.27.269-.27H20.66c.148 0 .269.12.269.27v7.353H3.07z" fill="#58565C"/>
  <path d="M20.93 17.39h-.898V9.767h.63c.148 0 .269.12.269.27v7.353z" fill="#49484D"/>
  <path d="M11.256 15.473V7.535a.744.744 0 111.488 0v2.232h1.489V7.535a2.233 2.233 0 10-4.465 0v7.442l1.488.496z" fill="#F79B4A"/>
  <path d="M15.72 15.473V7.535a.744.744 0 111.49 0v2.232h1.488V7.535a2.233 2.233 0 00-4.466 0v7.442l1.489.496z" fill="#FFD151"/>
  <path d="M.837 17.953l2.232.745 2.233-.745 2.233.745 2.232-.745 2.233.745 2.232-.745 2.233.745 2.233-.745 2.232.745 2.233-.745v-2.976l-2.233.744-2.232-.745-2.233.745-2.232-.745-2.233.745-2.233-.745-2.232.745-2.233-.745-2.233.745-2.232-.745v2.977z" fill="#00BCE7"/>
  <g fill="#000">
    <path d="M.73 15.296l2.233.745h.002a.336.336 0 00.153.013l.01-.002a.338.338 0 00.047-.011h.001l2.126-.71 2.126.71c.07.023.144.023.213 0l2.126-.71 1.387.463h.002l.737.246c.07.024.144.024.213 0l2.127-.708 1.387.462h.001l.738.247a.338.338 0 00.213 0l2.126-.71 2.126.71h.001a.335.335 0 00.154.013l.01-.002a.337.337 0 00.046-.011h.002l2.233-.745a.337.337 0 00-.214-.639l-1.789.596V9.767a.337.337 0 00-.337-.337h-1.895V7.535a2.572 2.572 0 00-2.57-2.57 2.57 2.57 0 00-2.232 1.3A2.57 2.57 0 0012 4.965a2.572 2.572 0 00-2.57 2.57V9.43H6.083a.337.337 0 000 .674H9.43v.443H3.406v-.443h1.33a.337.337 0 000-.674H3.069a.337.337 0 00-.336.337v5.487l-1.79-.597a.337.337 0 10-.213.64zm13.166-2.517h-2.304v-.442h2.304v.442zm0-1.116h-2.304v-.442h2.304v.442zm-2.304 1.79h2.304v.443h-2.304v-.443zm2.304-3.349v.443h-2.304v-.443h2.304zm-1.489-.674h-.815V7.535a.408.408 0 01.815 0V9.43zM12 15.366l-.408-.136v-.66h2.304v.164L12 15.366zm4.872-5.936h-.814V7.535a.408.408 0 01.814 0V9.43zm1.72 5.227l-2.127.709-.407-.136v-4.01h4.535v4.033l-1.789-.596a.336.336 0 00-.213 0zm2.001-4.11h-4.535v-.443h4.535v.443zm-4.128-4.908c1.045 0 1.896.85 1.896 1.896V9.43h-.815V7.535a1.082 1.082 0 00-2.162 0V15.005l-.815-.271v-7.2c0-1.044.85-1.895 1.896-1.895zm-6.36 1.896c0-1.046.85-1.896 1.895-1.896s1.896.85 1.896 1.896V9.43h-.815V7.535a1.082 1.082 0 00-2.162 0v7.47l-.815-.271v-3.849-.001V7.535zM9.43 11.22v3.513l-1.895.632-2.126-.709a.336.336 0 00-.213 0l-1.79.597V11.22H9.43zM23.056 17.634l-2.126.709-2.126-.71a.335.335 0 00-.213 0l-2.126.71-2.126-.71a.335.335 0 00-.213 0l-2.126.71-2.126-.71a.335.335 0 00-.213 0l-2.126.71-2.126-.71a.335.335 0 00-.213 0l-2.127.71-2.125-.71a.337.337 0 00-.214.64l2.233.744c.07.023.144.023.213 0l2.126-.708 2.126.708c.07.023.144.023.213 0l2.126-.708 2.126.708c.07.023.144.023.213 0l2.127-.708 2.125.708c.07.023.144.023.214 0l2.126-.708 2.126.708a.335.335 0 00.213 0l2.232-.744a.337.337 0 00-.213-.64z"/>
  </g>
</svg>
