<svg width="24" height="24" fill="none" xmlns="http://www.w3.org/2000/svg">
  <defs/>
  <path d="M21.392 19.273H2.608a.626.626 0 01-.626-.626V6.593c0-.346.28-.626.626-.626h18.784c.345 0 .626.28.626.626v12.054c0 .345-.28.626-.626.626z" fill="#EDEDED"/>
  <path d="M21.391 5.967h-1.694v13.306h1.694c.346 0 .626-.28.626-.626V6.593a.626.626 0 00-.626-.626z" fill="#D6D6D6"/>
  <path d="M22.386 6.744H1.614a.777.777 0 110-1.555h20.772a.777.777 0 010 1.555z" fill="#345863"/>
  <path d="M6.727 16.28a.492.492 0 01-.49-.492v-.143a.116.116 0 00-.083-.112 2.632 2.632 0 01-.543-.223.11.11 0 00-.053-.013.119.119 0 00-.083.034l-.1.1a.488.488 0 01-.695 0l-.245-.244a.488.488 0 010-.695l.1-.1a.116.116 0 00.021-.136 2.634 2.634 0 01-.222-.544.116.116 0 00-.112-.082h-.144a.492.492 0 01-.491-.49v-.347c0-.271.22-.491.491-.491h.156a.118.118 0 00.113-.082c.055-.182.13-.36.224-.526a.116.116 0 00-.02-.138l-.116-.116a.488.488 0 010-.695l.245-.245a.488.488 0 01.694 0l.13.13a.118.118 0 00.136.021 2.63 2.63 0 01.514-.207.116.116 0 00.082-.112v-.189c0-.27.22-.49.491-.49h.347c.27 0 .491.22.491.49v.203c0 .05.033.097.08.11.173.053.34.123.499.21a.117.117 0 00.138-.02l.145-.146a.488.488 0 01.694 0l.245.245a.492.492 0 010 .695l-.145.145a.117.117 0 00-.02.137c.086.159.156.326.209.499.014.047.06.08.11.08h.203c.271 0 .491.22.491.492v.346c0 .27-.22.491-.49.491h-.19a.116.116 0 00-.112.083c-.05.178-.12.35-.207.514a.116.116 0 00.022.136l.13.129a.492.492 0 010 .694l-.246.245a.488.488 0 01-.694 0l-.116-.116a.117.117 0 00-.139-.02c-.166.094-.343.17-.526.225a.118.118 0 00-.081.113v.155c0 .271-.22.491-.491.491h-.347zm.174-4.599a1.286 1.286 0 000 2.569c.708 0 1.284-.576 1.284-1.284 0-.708-.576-1.284-1.284-1.284z" fill="#F43B45"/>
  <g fill="#000">
    <path d="M12 10.572h8.176a.337.337 0 000-.674H12a.337.337 0 000 .674zM12 13.303h8.176a.337.337 0 000-.674H12a.337.337 0 000 .674zM12 16.034h4.088a.337.337 0 000-.674H12a.337.337 0 100 .674zM22.386 4.852h-2.442L12.474.784a.99.99 0 00-.95 0L4.056 4.852H1.614a1.115 1.115 0 000 2.228h20.772a1.115 1.115 0 000-2.228zM11.847 1.376a.318.318 0 01.306 0l6.382 3.476H5.022c2.224-1.07 6.825-3.476 6.825-3.476zm10.539 5.031H1.614a.44.44 0 010-.88h20.772a.44.44 0 010 .88z"/>
    <path d="M22.017 7.755a.337.337 0 00-.336.337v10.554a.29.29 0 01-.29.29H2.609a.29.29 0 01-.289-.29V8.092a.337.337 0 00-.673 0v10.554c0 .531.431.963.962.963h9.055v1.488a1.147 1.147 0 00.337 2.24 1.147 1.147 0 00.337-2.24V19.61h9.055c.53 0 .963-.432.963-.963V8.092a.337.337 0 00-.338-.337zM12 22.664a.472.472 0 11.001-.945.472.472 0 01-.001.945z"/>
    <path d="M6.902 14.587c.893 0 1.62-.727 1.62-1.621s-.727-1.621-1.62-1.621c-.894 0-1.622.727-1.622 1.62 0 .895.728 1.622 1.622 1.622zm0-2.569a.948.948 0 010 1.895.948.948 0 010-1.895z"/>
    <path d="M3.251 12.793v.346c0 .451.362.819.811.828.036.102.077.202.123.3a.822.822 0 00-.23.572c0 .221.086.43.243.586l.245.245a.823.823 0 00.585.242.822.822 0 00.573-.23c.097.047.197.088.3.123a.829.829 0 00.827.811h.347a.829.829 0 00.828-.827c.097-.035.192-.076.285-.121l.002.002a.823.823 0 00.585.242c.221 0 .43-.086.585-.242l.246-.245a.829.829 0 000-1.171l-.018-.018c.04-.088.076-.178.108-.269h.028a.829.829 0 00.828-.828v-.346a.829.829 0 00-.828-.828H9.68a2.98 2.98 0 00-.107-.255l.033-.032a.822.822 0 00.242-.586.822.822 0 00-.242-.585l-.245-.245a.823.823 0 00-.586-.243.823.823 0 00-.585.243l-.033.032a3.017 3.017 0 00-.254-.107v-.044a.829.829 0 00-.828-.828h-.347a.829.829 0 00-.828.828v.028a2.964 2.964 0 00-.268.109l-.018-.018a.822.822 0 00-.586-.243.823.823 0 00-.585.243l-.245.245a.823.823 0 00-.243.585c0 .222.086.43.243.586l.002.002a2.974 2.974 0 00-.122.285.829.829 0 00-.827.828zm.984-.155c.199 0 .378-.131.435-.32.048-.16.114-.313.196-.459a.454.454 0 00-.076-.541l-.116-.117a.151.151 0 01-.045-.109c0-.041.016-.079.045-.109l.245-.245c.06-.059.159-.059.218 0l.13.13a.45.45 0 00.532.08c.142-.075.293-.136.448-.18a.454.454 0 00.327-.436v-.189c0-.085.07-.154.154-.154h.347c.085 0 .154.07.154.154v.202c0 .199.132.377.32.434.15.046.296.107.434.182a.453.453 0 00.538-.078l.145-.145a.156.156 0 01.218 0l.245.245c.06.06.06.158 0 .218l-.145.146a.456.456 0 00-.078.537c.075.138.137.284.182.434.057.189.236.32.434.32h.202c.085 0 .154.07.154.155v.346c0 .085-.069.154-.154.154h-.189a.454.454 0 00-.436.328 2.297 2.297 0 01-.18.448.456.456 0 00.08.532l.13.13c.06.06.06.157 0 .217l-.245.245a.156.156 0 01-.218 0l-.116-.116A.452.452 0 008.008 15a2.3 2.3 0 01-.458.196.457.457 0 00-.321.436v.155c0 .085-.07.155-.154.155h-.347a.154.154 0 01-.154-.155v-.143a.454.454 0 00-.327-.437 2.298 2.298 0 01-.473-.194.448.448 0 00-.537.079l-.1.1a.156.156 0 01-.218 0l-.245-.245a.151.151 0 01-.045-.109c0-.042.016-.08.045-.109l.1-.1a.455.455 0 00.079-.536 2.296 2.296 0 01-.194-.474.454.454 0 00-.436-.327h-.144a.154.154 0 01-.154-.154v-.347c0-.085.069-.154.154-.154h.156z"/>
  </g>
</svg>
