<svg width="24" height="24" fill="none" xmlns="http://www.w3.org/2000/svg">
  <defs/>
  <path d="M13.766 14.932a4.607 4.607 0 009.214 0c0-2.932-4.607-10.47-4.607-10.47S13.766 12 13.766 14.931z" fill="#FF4181"/>
  <path d="M7.393 14.932a4.607 4.607 0 009.214 0C16.607 12 12 4.462 12 4.462S7.393 12 7.393 14.931z" fill="#FFCE47"/>
  <path d="M1.02 14.932a4.607 4.607 0 009.215 0c0-2.932-4.607-10.47-4.607-10.47S1.02 12 1.02 14.931z" fill="#4EB9FF"/>
  <g fill="#01121C">
    <path d="M21.159 14.932a.52.52 0 10-1.041 0c0 .962-.783 1.745-1.745 1.745a.52.52 0 000 1.04 2.789 2.789 0 002.786-2.785z"/>
    <path d="M18.816 4.19a.52.52 0 00-.888 0 71.548 71.548 0 00-2.332 4.188.52.52 0 00.927.474 71.098 71.098 0 011.85-3.374c1.452 2.48 4.086 7.404 4.086 9.454a4.091 4.091 0 01-5.677 3.766.52.52 0 10-.406.958 5.133 5.133 0 007.123-4.724c0-3.043-4.491-10.43-4.683-10.742zM14.786 14.932a.52.52 0 10-1.041 0c0 .962-.783 1.745-1.745 1.745a.52.52 0 000 1.04 2.789 2.789 0 002.786-2.785z"/>
    <path d="M12.444 4.19a.52.52 0 00-.888 0 71.634 71.634 0 00-2.332 4.188.52.52 0 00.927.474A71.077 71.077 0 0112 5.478c1.452 2.48 4.086 7.404 4.086 9.454a4.091 4.091 0 01-5.746 3.736.52.52 0 10-.423.951 5.133 5.133 0 007.21-4.687c0-3.043-4.492-10.43-4.684-10.742z"/>
    <path d="M6.071 4.19a.52.52 0 00-.888 0C4.993 4.503.5 11.889.5 14.932c0 2.827 2.3 5.127 5.127 5.127 2.828 0 5.128-2.3 5.128-5.127 0-3.043-4.492-10.43-4.684-10.742zm-.444 14.829a4.091 4.091 0 01-4.086-4.087c0-2.05 2.636-6.977 4.086-9.456 1.451 2.478 4.087 7.405 4.087 9.456a4.091 4.091 0 01-4.087 4.087z"/>
    <path d="M7.893 14.412a.52.52 0 00-.52.52c0 .962-.783 1.745-1.745 1.745a.52.52 0 000 1.04 2.789 2.789 0 002.786-2.785.52.52 0 00-.52-.52z"/>
  </g>
</svg>
