<svg width="24" height="24" fill="none" xmlns="http://www.w3.org/2000/svg">
  <defs/>
  <path d="M17.49 7.814h5.49V4.405a2.088 2.088 0 00-2.082-2.081H3.102a2.088 2.088 0 00-2.081 2.081v3.409H17.49z" fill="#4EB9FF"/>
  <path d="M6.51 5.069v12.077H12l5.49-5.49V5.07H6.51z" fill="#FFCE47"/>
  <path d="M17.49 11.657a5.49 5.49 0 01-5.49 5.49 5.473 5.473 0 001.608-3.882c1.405 0 2.81-.537 3.882-1.608z" fill="#FFEBB4"/>
  <g fill="#01121C">
    <path d="M21.106 3.859a.547.547 0 10.001 1.094.547.547 0 00-.001-1.094zM21.106 5.706a.547.547 0 10.001 1.094.547.547 0 00-.001-1.094z"/>
    <path d="M20.898 2.064H3.102A2.605 2.605 0 00.5 4.665v3.409c0 .287.233.52.52.52h1.353v12.302h-1.04a.52.52 0 000 1.04h3.122a.52.52 0 100-1.04H3.414V8.594H5.99v8.813c0 .287.233.52.52.52H12a6.017 6.017 0 006.01-6.01V8.594h2.576v12.302h-1.04a.52.52 0 000 1.04h3.121a.52.52 0 000-1.04h-1.04V8.594h1.353a.52.52 0 00.52-.52V4.665a2.605 2.605 0 00-2.602-2.601zm-9.12 14.822H7.03V5.85h9.939v5.845a4.934 4.934 0 01-3.362 1.31.52.52 0 00-.52.52 4.933 4.933 0 01-1.31 3.362zm1.42-.146c.518-.814.83-1.741.91-2.715a5.953 5.953 0 002.715-.91 4.988 4.988 0 01-3.625 3.625zm9.261-9.186H18.01V5.849h1.04a.52.52 0 000-1.04H4.95a.52.52 0 000 1.04h1.04v1.705H1.54V4.665c0-.86.701-1.56 1.562-1.56h17.796c.86 0 1.561.7 1.561 1.56v2.889z"/>
  </g>
</svg>
