<svg width="24" height="24" fill="none" xmlns="http://www.w3.org/2000/svg">
  <defs/>
  <path d="M8.41 1.957H2.582c-.863 0-1.561.699-1.561 1.561v1.561l7.44 1.04 7.442-1.04c-4.111-3.12-4.527-3.122-7.493-3.122z" fill="#3B8BC0"/>
  <path d="M1.02 7.577v9.99h21.96v-9.99L12 6.537 1.02 7.576z" fill="#4EB9FF"/>
  <path d="M22.98 6.64c0-.858-.703-1.56-1.561-1.56H1.02v2.497H22.98V6.64z" fill="#174461"/>
  <path d="M18.634 22.043H5.365v-7.805L12 13.197l6.634 1.04v7.806z" fill="#FFCE47"/>
  <path d="M17.073 11.57H6.926c-.858 0-1.56.703-1.56 1.561v1.041h13.268v-1.04c0-.86-.702-1.562-1.56-1.562z" fill="#fff"/>
  <g fill="#01121C">
    <path d="M21.429 4.551h-5.351c-.516-.39-.98-.736-1.4-1.04h4.665a.52.52 0 000-1.04h-6.216a8.208 8.208 0 00-1.21-.614c-1.08-.426-1.994-.426-3.508-.426H2.571C1.43 1.431.5 2.361.5 3.502V17.55c0 .288.233.52.52.52h3.822v3.979c0 .287.233.52.52.52h13.275a.52.52 0 00.52-.52V18.07h3.823a.52.52 0 00.52-.52V6.621c0-1.142-.93-2.07-2.071-2.07zm1.03 2.071v.429H1.541V5.59H15.9l.001.001h5.527c.568 0 1.03.462 1.03 1.03zM2.571 2.472H8.41c1.954 0 2.73 0 4.24.918a.52.52 0 00.127.079c.443.277.95.63 1.564 1.082H1.54V3.502c0-.568.463-1.03 1.031-1.03zm15.546 11.27H5.883v-.596c0-.568.462-1.03 1.03-1.03h10.174c.568 0 1.03.462 1.03 1.03v.596zm0 7.786H5.883v-6.745h12.234v6.745zm1.04-4.498v-3.884c0-1.142-.928-2.071-2.07-2.071H6.913c-1.142 0-2.07.929-2.07 2.071v3.884H1.54V8.092h20.918v8.938h-3.301z"/>
    <path d="M16.156 18.933H7.844a.52.52 0 000 1.04h8.312a.52.52 0 000-1.04zM16.156 16.337H12a.52.52 0 100 1.041h4.156a.52.52 0 000-1.04zM20.898 9.189h-1.554a.52.52 0 000 1.04h1.554a.52.52 0 000-1.04z"/>
  </g>
</svg>
