<svg width="24" height="24" fill="none" xmlns="http://www.w3.org/2000/svg">
  <defs/>
  <path d="M7.534 7.702h-3.72V5.944c0-.15.12-.27.269-.27h3.182c.149 0 .27.12.27.27v1.758z" fill="#898989"/>
  <path d="M7.266 5.674h-.989c.15 0 .27.12.27.27v1.758h.988V5.944a.27.27 0 00-.27-.27z" fill="#727575"/>
  <path d="M20.187 7.702h-2.233V5.944c0-.15.12-.27.27-.27h1.693c.15 0 .27.12.27.27v1.758z" fill="#AAEBF9"/>
  <path d="M19.917 5.674h-.988c.149 0 .27.12.27.27v1.758h.987V5.944a.27.27 0 00-.269-.27z" fill="#76E2F8"/>
  <path d="M22.047 10.614v9.2a.744.744 0 01-.744.745H2.697a.744.744 0 01-.744-.745v-9.2h20.094z" fill="#AAEBF9"/>
  <path d="M21.059 10.614v9.2a.744.744 0 01-.745.745h.989a.744.744 0 00.744-.745v-9.2h-.988z" fill="#76E2F8"/>
  <path d="M22.047 9.62V7.907a.744.744 0 00-.744-.744h-6.057a.27.27 0 01-.27-.27V4.186a.744.744 0 00-.744-.744H9.768a.744.744 0 00-.744.744v2.707a.27.27 0 01-.27.27H2.698a.744.744 0 00-.744.744V9.62h20.094z" fill="#FFD400"/>
  <path d="M13.989 4.186v2.707c0 .149.12.27.269.27h.988a.27.27 0 01-.27-.27V4.186a.744.744 0 00-.744-.745h-.988c.411 0 .745.334.745.745zM21.303 7.163h-.989c.411 0 .745.333.745.744V9.62h.988V7.907a.744.744 0 00-.744-.744z" fill="#FF9F00"/>
  <path d="M19.917 13.86h-1.693a.27.27 0 01-.27-.269v-.95c0-.148.12-.269.27-.269h1.693c.15 0 .27.12.27.27v.95a.27.27 0 01-.27.269z" fill="#EDE9E8"/>
  <path d="M19.917 12.372h-.988c.149 0 .27.12.27.27v.95a.27.27 0 01-.27.269h.988a.27.27 0 00.27-.27v-.95a.27.27 0 00-.27-.269z" fill="#DFD7D5"/>
  <path d="M16.838 15.721a4.837 4.837 0 11-9.675 0 4.837 4.837 0 019.675 0z" fill="#EDE9E8"/>
  <path d="M12 10.884c-.167 0-.332.008-.494.025a4.838 4.838 0 010 9.624 4.837 4.837 0 10.494-9.65z" fill="#DFD7D5"/>
  <path d="M15.35 15.721a3.349 3.349 0 11-6.699 0 3.349 3.349 0 016.698 0z" fill="#898989"/>
  <path d="M12 12.372c-.168 0-.333.013-.494.037a3.35 3.35 0 010 6.624A3.349 3.349 0 1012 12.372z" fill="#727575"/>
  <path d="M13.489 15.721a1.488 1.488 0 11-2.977 0 1.488 1.488 0 012.976 0z" fill="#AAEBF9"/>
  <path d="M12 14.233c-.173 0-.34.03-.494.084a1.489 1.489 0 010 2.808A1.488 1.488 0 1012 14.232z" fill="#76E2F8"/>
  <path d="M13.219 7.907h-2.438a.27.27 0 01-.27-.27V5.2c0-.15.121-.27.27-.27h2.438c.149 0 .27.12.27.27v2.437a.27.27 0 01-.27.27z" fill="#EDE9E8"/>
  <path d="M13.219 4.93h-.989c.15 0 .27.12.27.27v2.437a.27.27 0 01-.27.27h.989a.27.27 0 00.27-.27V5.2a.27.27 0 00-.27-.27z" fill="#DFD7D5"/>
  <path d="M22.42 10.884a.744.744 0 000-1.489H1.58a.744.744 0 000 1.489H22.42z" fill="#FFE252"/>
  <path d="M22.419 9.395h-.988a.744.744 0 010 1.489h.988a.744.744 0 000-1.489z" fill="#FF9F00"/>
  <path d="M17.954 14.197h2.233c.186 0 .337-.15.337-.336v-1.489a.337.337 0 00-.337-.337h-2.233a.337.337 0 00-.337.337v1.489c0 .186.15.336.337.336zm.337-1.488h1.559v.815H18.29v-.815zM12 12.035a3.69 3.69 0 00-3.686 3.686A3.69 3.69 0 0012 19.407a3.69 3.69 0 003.686-3.686A3.69 3.69 0 0012 12.035zm0 6.698a3.015 3.015 0 01-3.012-3.012A3.015 3.015 0 0112 12.709a3.015 3.015 0 013.012 3.012A3.015 3.015 0 0112 18.733z" fill="#000"/>
  <path d="M12 13.896a1.827 1.827 0 00-1.825 1.825c0 1.006.819 1.825 1.825 1.825a1.827 1.827 0 001.825-1.825A1.827 1.827 0 0012 13.896zm0 2.976a1.153 1.153 0 010-2.303 1.153 1.153 0 010 2.303z" fill="#000"/>
  <path d="M22.42 9.058h-.036V7.907c0-.596-.485-1.081-1.081-1.081h-.78V5.674a.337.337 0 00-.337-.337h-2.232a.337.337 0 00-.337.337v1.152h-2.303v-2.64c0-.596-.485-1.081-1.081-1.081H9.768c-.597 0-1.082.485-1.082 1.08v2.64h-.814v-1.15a.337.337 0 00-.337-.338H3.814a.337.337 0 00-.337.337v1.152h-.78c-.596 0-1.08.485-1.08 1.08v1.152H1.58a1.082 1.082 0 000 2.162h.035v8.594c0 .596.485 1.081 1.081 1.081h18.606c.596 0 1.081-.485 1.081-1.08V11.22h.035a1.082 1.082 0 000-2.162zm-4.13-3.047h1.56v.815h-1.56V6.01zm-14.14 0h3.048v.815H4.151V6.01zM2.29 7.907c0-.225.183-.407.407-.407h6.326c.186 0 .337-.151.337-.337V4.186c0-.225.183-.407.407-.407h4.466c.224 0 .407.182.407.407v2.976a.335.335 0 00.337.338h6.326c.224 0 .407.182.407.407v1.151H2.29V7.907zm19.42 11.907a.408.408 0 01-.407.407H14.55a5.177 5.177 0 002.623-4.5 5.178 5.178 0 00-2.623-4.5h7.16v8.593zm-9.71.407a4.505 4.505 0 01-4.5-4.5c0-2.481 2.019-4.5 4.5-4.5 2.482 0 4.5 2.019 4.5 4.5 0 2.482-2.018 4.5-4.5 4.5zm10.42-9.674H5.497a.337.337 0 100 .673H9.45a5.178 5.178 0 00-2.624 4.501 5.177 5.177 0 002.623 4.5H7.128v-.407a.337.337 0 10-.674 0v.407h-.815v-.407a.337.337 0 10-.674 0v.407h-.814v-.407a.337.337 0 10-.674 0v.407h-.78a.408.408 0 01-.407-.407V11.22h1.86a.337.337 0 100-.673H1.582a.408.408 0 010-.815H22.42a.408.408 0 010 .815z" fill="#000"/>
  <path d="M13.824 4.897l-.002-.014-.003-.019c0-.005-.002-.01-.004-.016l-.004-.016-.005-.015L13.8 4.8l-.007-.014-.007-.016a.172.172 0 00-.008-.013.21.21 0 00-.01-.015c-.002-.005-.006-.01-.01-.014l-.009-.013a.323.323 0 00-.02-.023l-.002-.001-.001-.002a.331.331 0 00-.024-.02l-.012-.01a.387.387 0 00-.014-.01l-.015-.01-.013-.007-.016-.008-.014-.006-.016-.006-.015-.006c-.006 0-.01-.002-.016-.004-.006 0-.01-.002-.016-.003-.006-.002-.013-.002-.019-.003l-.014-.002a.352.352 0 00-.033-.002h-2.981c-.01 0-.02 0-.03.002l-.016.002-.016.003c-.006 0-.012.002-.018.004l-.014.003-.017.006-.014.006a.253.253 0 00-.015.007l-.015.007-.014.008-.014.009-.015.01-.012.01a.387.387 0 00-.047.046l-.01.013-.01.014-.009.015-.007.013-.008.016-.007.014-.005.016-.006.015-.004.016-.004.016-.002.02-.002.013a.293.293 0 00-.002.033v2.977c0 .01 0 .022.002.033 0 .005 0 .01.002.014l.002.019.004.016.004.016.006.015.005.016.007.014.008.016.007.013.01.015.01.014.01.012a.38.38 0 00.02.023l.001.002.002.001a.387.387 0 00.036.03l.014.011.015.01.013.007.016.008.014.006.015.006.016.005.016.004.016.004a.315.315 0 00.018.003l.014.002a.304.304 0 00.034.002h2.977c.01 0 .022 0 .033-.002l.015-.002.018-.003.017-.004.014-.004a.354.354 0 00.017-.006l.014-.005.016-.007.014-.007.014-.008a.637.637 0 00.041-.029.418.418 0 00.024-.02v-.002l.002-.002a.323.323 0 00.021-.023l.01-.012.01-.014.01-.015a.428.428 0 00.007-.013l.007-.016.007-.014.006-.016.005-.015a.243.243 0 00.004-.017l.004-.015.003-.02.002-.013a.38.38 0 00.002-.034V4.93c0-.011 0-.022-.002-.033zm-2.3 1.521l-.675.675v-1.35l.675.675zm-.199-1.151h1.35L12 5.942l-.675-.675zM12 6.895l.675.675h-1.35L12 6.895zm.477-.477l.675-.675v1.35l-.675-.675z" fill="#000"/>
</svg>
