<svg width="24" height="24" fill="none" xmlns="http://www.w3.org/2000/svg">
  <defs/>
  <path d="M20.374 1.871H3.681A2.756 2.756 0 00.925 4.627v17.502h16.693V11.435" fill="#DCE8EF"/>
  <path d="M19.289 12.537h3.84v-7.91a2.756 2.756 0 10-5.51 0v7.91" fill="#A8B3BA"/>
  <path d="M9.286 5.096H2.832v7.618h6.454V5.096z" fill="#4EBFED"/>
  <path d="M15.899 16.523H9.444v3.81H15.9v-3.81z" fill="#FF6F52"/>
  <path d="M20.347 1.474H3.653A3.157 3.157 0 00.5 4.627v14.528a.397.397 0 00.795 0V4.627c0-1.3 1.058-2.359 2.358-2.359h14.604a3.146 3.146 0 00-1.064 2.359v17.105H1.295V20.48a.397.397 0 10-.795 0v1.649c0 .22.178.397.397.397h16.694c.22 0 .397-.177.397-.397V4.627c0-1.3 1.058-2.359 2.359-2.359 1.3 0 2.358 1.058 2.358 2.359v7.513h-3.444a.397.397 0 100 .795h3.841c.22 0 .398-.178.398-.398v-7.91a3.157 3.157 0 00-3.153-3.153z" fill="#000"/>
  <path d="M9.258 4.698H2.804a.397.397 0 00-.398.398v7.618c0 .22.178.398.398.398h6.454c.22 0 .398-.178.398-.398V8.132a.397.397 0 10-.795 0v4.185H3.2V5.493h5.66v1.102a.397.397 0 10.795 0v-1.5a.397.397 0 00-.398-.397zM15.871 4.698h-4.796a.397.397 0 100 .795h4.796a.397.397 0 100-.795zM15.871 6.603h-2.679a.397.397 0 100 .795h2.68a.397.397 0 100-.795zM11.075 7.398h.792a.397.397 0 100-.795h-.792a.397.397 0 100 .795zM11.075 9.302h4.796a.397.397 0 100-.795h-4.796a.397.397 0 100 .795zM11.075 13.111h4.796a.397.397 0 100-.794h-4.796a.397.397 0 100 .794zM15.87 10.412h-1.194a.397.397 0 100 .795h1.195a.397.397 0 000-.795zM11.075 11.207h2.276a.397.397 0 100-.795h-2.276a.397.397 0 100 .795zM19.262 7.221h1.901a.397.397 0 100-.795h-1.901a.397.397 0 100 .795zM19.262 9.126h1.901a.397.397 0 100-.795h-1.901a.397.397 0 100 .795zM19.262 11.03h1.901a.397.397 0 100-.795h-1.901a.397.397 0 100 .795zM15.871 16.126H9.418a.397.397 0 00-.397.397v3.81c0 .219.177.397.397.397h6.454c.22 0 .398-.178.398-.398v-3.809a.397.397 0 00-.397-.397zm-.397 3.809h-5.66v-3.014h5.66v3.014zM2.804 15.016h2.12a.397.397 0 100-.795h-2.12a.397.397 0 100 .795zM5.8 14.619c0 .22.178.397.397.397h9.674a.397.397 0 100-.795H6.197a.397.397 0 00-.397.398zM2.804 16.92h4.795a.397.397 0 100-.794H2.804a.397.397 0 100 .795zM2.804 20.73h2.65a.397.397 0 100-.795h-2.65a.397.397 0 100 .795zM7.6 19.935h-.82a.397.397 0 100 .795h.82a.397.397 0 100-.795zM2.804 18.825h4.795a.397.397 0 100-.795H2.804a.397.397 0 100 .795z" fill="#000"/>
</svg>
