<svg width="24" height="24" fill="none" xmlns="http://www.w3.org/2000/svg">
  <defs/>
  <path d="M15.56 16.27a6.71 6.71 0 01-13.42 0C2.14 12 8.85 1.02 8.85 1.02S15.56 12 15.56 16.27z" fill="#4EB9FF"/>
  <path d="M12.327 12.929c-.115-.298-.24-.607-.375-.929H5.749c-.137.326-.264.64-.38.94-.8 2.077-.887 3.02-.887 3.33a4.373 4.373 0 004.368 4.368 4.373 4.373 0 004.368-4.368c0-.31-.086-1.257-.89-3.341z" fill="#174461"/>
  <g fill="#01121C">
    <path d="M9.11.5a.52.52 0 00-.443.249C8.39 1.202 1.88 11.904 1.88 16.27c0 3.987 3.243 7.23 7.23 7.23 3.986 0 7.23-3.243 7.23-7.23 0-4.366-6.51-15.068-6.786-15.521A.52.52 0 009.11.5zm0 21.96a6.196 6.196 0 01-6.188-6.19c0-3.449 4.703-11.71 6.189-14.234C10.597 4.56 15.3 12.82 15.3 16.27a6.196 6.196 0 01-6.19 6.19z"/>
    <path d="M5.53 11.798c-.139.33-.268.651-.386.956-.802 2.08-.921 3.096-.921 3.516a4.894 4.894 0 004.888 4.888 4.894 4.894 0 004.888-4.888c0-.421-.12-1.44-.926-3.528-.116-.302-.245-.62-.38-.944a.52.52 0 00-.48-.318H6.01a.52.52 0 00-.48.318zm.827.722h5.508c.083.204.163.404.237.596.795 2.06.857 2.935.857 3.154a3.852 3.852 0 01-3.848 3.848 3.852 3.852 0 01-3.848-3.848c0-.219.062-1.091.852-3.142.076-.196.157-.4.242-.608zM21.6.5h-3.26a.52.52 0 100 1.04h2.74v2.62h-1.646a.52.52 0 100 1.04h1.645v2.62h-1.646a.52.52 0 100 1.04h1.646v2.62h-2.738a.52.52 0 000 1.04h2.738v2.62h-1.646a.52.52 0 000 1.04h1.646v2.62h-1.646a.52.52 0 000 1.04h1.646v2.62h-2.738a.52.52 0 100 1.04H21.6a.52.52 0 00.52-.52V1.02A.52.52 0 0021.6.5z"/>
  </g>
</svg>
