<svg width="24" height="24" fill="none" xmlns="http://www.w3.org/2000/svg">
  <defs/>
  <path d="M21.94 2.061a1.04 1.04 0 110 2.081H4.905V2.061H21.94z" fill="#3B8BC0"/>
  <path d="M21.94 4.143v6.144a.885.885 0 01-.885.884l-2.365-.004a2.811 2.811 0 00-2.81 2.812v7.075a.885.885 0 01-.885.885H4.906V4.143H21.94z" fill="#174461"/>
  <path d="M4.542 1.02H3.085a.885.885 0 00-.885.885v20.19c0 .489.396.885.885.885h1.457a.885.885 0 00.884-.885V1.905a.884.884 0 00-.884-.885z" fill="#FF4181"/>
  <path d="M21.939 1.54H5.899A1.407 1.407 0 004.54.5H3.084C2.31.5 1.68 1.13 1.68 1.905v1.717h-.66a.52.52 0 100 1.04h.66v11.553h-.66a.52.52 0 000 1.04h.66v2.082h-.66a.52.52 0 000 1.04h.66v1.718c0 .775.63 1.405 1.404 1.405h1.457c.65 0 1.196-.442 1.357-1.04h9.096c.775 0 1.405-.631 1.405-1.406V13.98a2.293 2.293 0 012.29-2.291l2.365.004c.775 0 1.405-.63 1.405-1.405V4.574A1.564 1.564 0 0023.5 3.102c0-.861-.7-1.561-1.561-1.561zM4.906 22.096c0 .2-.164.364-.365.364H3.084a.365.365 0 01-.364-.364V1.905c0-.2.164-.364.364-.364h1.457c.201 0 .365.163.365.364v20.19zM21.939 3.622H10.265a.52.52 0 100 1.04H21.42v5.625c0 .201-.164.364-.364.364l-2.365-.004a3.336 3.336 0 00-3.332 3.332v7.075c0 .201-.163.365-.364.365H5.946V4.663h2.238a.52.52 0 100-1.04H5.946V2.58H21.94a.521.521 0 010 1.041z" fill="#01121C"/>
</svg>
