<svg width="24" height="24" fill="none" xmlns="http://www.w3.org/2000/svg">
  <defs/>
  <path d="M18.637 3.834H5.362v6.976h13.275V3.834z" fill="#174461"/>
  <path d="M19.678 14.277H4.322v5.269h15.356v-5.27z" fill="#3B8BC0"/>
  <path d="M22.98 10.8v9.366h-4.343V16.878H5.363V20.166H1.02V10.8c0-.856.694-1.55 1.55-1.55H21.43c.857 0 1.55.694 1.55 1.55z" fill="#4EB9FF"/>
  <path d="M18.637 15.762v1.116H5.362v-1.116c0-.857.694-1.55 1.551-1.55h10.173c.857 0 1.55.693 1.55 1.55z" fill="#fff"/>
  <g fill="#01121C">
    <path d="M21.429 8.728h-2.271V3.834a.52.52 0 00-.52-.52H5.362a.52.52 0 00-.52.52v4.894H2.57C1.43 8.728.5 9.658.5 10.8v9.367c0 .287.233.52.52.52h4.343a.52.52 0 00.52-.52v-.1h12.234v.1c0 .287.233.52.52.52h4.343a.52.52 0 00.52-.52V10.8c0-1.142-.93-2.07-2.071-2.07zM5.883 4.354h12.234v4.374h-2.278V6.454a.52.52 0 00-1.04 0v2.274H12.52V6.454a.52.52 0 00-1.04 0v2.274H9.202V6.454a.52.52 0 10-1.041 0v2.274H5.883V4.354zm12.234 12.004H5.883v-.596c0-.568.462-1.03 1.03-1.03h10.174c.568 0 1.03.462 1.03 1.03v.596zM5.883 19.026v-1.627h12.234v1.627H5.883zm16.576.62h-3.301v-3.884c0-1.142-.93-2.071-2.071-2.071H6.913c-1.142 0-2.07.929-2.07 2.07v3.885H1.54v-8.847c0-.568.462-1.03 1.03-1.03H21.43c.568 0 1.03.462 1.03 1.03v8.847z"/>
    <path d="M20.347 11.214a.547.547 0 10.001 1.094.547.547 0 000-1.094zM18.265 11.214a.547.547 0 10.001 1.094.547.547 0 000-1.094z"/>
  </g>
</svg>
