<svg width="24" height="24" fill="none" xmlns="http://www.w3.org/2000/svg">
  <defs/>
  <path d="M19.025 5.37H4.985V23.1h14.04V5.37z" fill="#CFDCE5"/>
  <path d="M9.01 7.359H6.781v3.074h2.23V7.36z" fill="#FCD577"/>
  <path d="M17.228 7.359h-2.229v3.074h2.229V7.36z" fill="#415E72"/>
  <path d="M13.12 7.359h-2.23v3.074h2.23V7.36z" fill="#FCD577"/>
  <path d="M9.01 12.514H6.781v3.074h2.23v-3.074z" fill="#415E72"/>
  <path d="M17.228 12.514h-2.229v3.074h2.229v-3.074z" fill="#FCD577"/>
  <path d="M13.12 12.514h-2.23v3.074h2.23v-3.074z" fill="#415E72"/>
  <path d="M9.01 17.67H6.781v3.074h2.23v-3.075z" fill="#FCD577"/>
  <g fill="#415E72">
    <path d="M17.229 17.67H15v3.073h2.229V17.67zM13.12 17.67h-2.23V23.1h2.23V17.67z"/>
  </g>
  <path d="M9.489 5.77h9.147v13.759a.384.384 0 00.768 0V5.386A.384.384 0 0019.02 5H9.489a.384.384 0 000 .769zM6.392 7.374v3.074c0 .212.172.384.384.384h2.229a.384.384 0 00.384-.384V7.374a.384.384 0 00-.384-.385h-2.23a.384.384 0 00-.383.385zm.768.384h1.46v2.306H7.16V7.758z" fill="#000"/>
  <path d="M17.608 7.374a.384.384 0 00-.384-.385h-2.23a.384.384 0 00-.384.385v3.074c0 .212.172.384.385.384h2.229a.384.384 0 00.384-.384V7.374zm-.769 2.69h-1.46V7.758h1.46v2.306zM13.499 7.374a.384.384 0 00-.385-.385h-2.229a.384.384 0 00-.384.385v3.074c0 .212.172.384.384.384h2.23a.384.384 0 00.384-.384V7.374zm-.769 2.69h-1.46V7.758h1.46v2.306zM9.005 13.508a.384.384 0 00.384-.385v-.594a.384.384 0 00-.384-.384h-2.23a.384.384 0 00-.383.384v3.074c0 .213.172.385.384.385h2.229a.384.384 0 00.384-.385v-1.198a.384.384 0 10-.768 0v.814H7.16v-2.306h1.46v.21c0 .213.172.385.384.385zM17.608 12.529a.384.384 0 00-.384-.384h-2.23a.384.384 0 00-.384.384v3.074c0 .213.172.385.385.385h2.229a.384.384 0 00.384-.385V12.53zm-.769 2.69h-1.46v-2.306h1.46v2.306zM13.114 12.145h-2.229a.384.384 0 00-.384.384v3.074c0 .213.172.385.384.385h2.23a.384.384 0 00.384-.385V12.53a.384.384 0 00-.385-.384zm-.384 3.074h-1.46v-2.306h1.46v2.306zM9.005 17.3h-2.23a.384.384 0 00-.383.384v3.075c0 .212.172.384.384.384h2.229a.384.384 0 00.384-.384v-3.075a.384.384 0 00-.384-.384zm-.384 3.074H7.16v-2.306h1.46v2.306zM17.224 17.3h-2.23a.384.384 0 00-.384.384v3.075c0 .212.172.384.385.384h2.229a.384.384 0 00.384-.384v-3.075a.384.384 0 00-.384-.384zm-.385 3.074h-1.46v-2.306h1.46v2.306z" fill="#000"/>
  <path d="M20.045 22.731h-.64V20.81a.384.384 0 10-.77 0v1.921H13.5v-5.047a.384.384 0 00-.385-.384h-2.229a.384.384 0 00-.384.384v5.047H5.364V5.77h2.844a.384.384 0 000-.769h-.794V3.748h.644a.384.384 0 000-.768h-.644v-.55h.248a.384.384 0 000-.77h-.248V.885a.384.384 0 00-.77 0v.777h-.248a.384.384 0 000 .768h.249v.55H6a.384.384 0 000 .77h.645V5H4.979a.384.384 0 00-.384.385V22.73h-.64a.384.384 0 000 .769h16.09a.384.384 0 100-.769zm-8.775 0v-4.663h1.46v4.663h-1.46z" fill="#000"/>
</svg>
