<svg width="24" height="24" fill="none" xmlns="http://www.w3.org/2000/svg">
  <defs/>
  <path d="M16.67 9.419l1.73-1.73a.367.367 0 01.518 0l.777.776 2.92-2.92-.518-.516-.778.778a.366.366 0 01-.52 0 .367.367 0 010-.519l.775-.774a12.161 12.161 0 00-1.54-1.233l-.585.93a.367.367 0 11-.621-.39l.585-.931a11.921 11.921 0 00-1.778-.858l-.364 1.04a.367.367 0 01-.692-.243l.363-1.039a12 12 0 00-1.925-.435l-.122 1.09a.367.367 0 01-.73-.082l.123-1.089a12.3 12.3 0 00-1.973 0l.123 1.09a.367.367 0 01-.73.082l-.122-1.09c-.656.092-1.3.238-1.925.436l.364 1.038a.367.367 0 11-.693.243l-.364-1.04c-.614.236-1.208.523-1.777.859l.585.93a.367.367 0 01-.621.391l-.585-.93c-.541.366-1.056.778-1.54 1.234l.775.774a.367.367 0 11-.52.519l-.774-.774c-.455.484-.867.999-1.232 1.54l.93.585a.367.367 0 11-.39.621l-.931-.584a11.92 11.92 0 00-.858 1.778l1.04.363a.367.367 0 11-.242.693L1.79 9.669a12 12 0 00-.435 1.925l1.09.122a.367.367 0 11-.081.73l-1.089-.123a12.315 12.315 0 00.001 1.973l1.089-.123a.368.368 0 01.082.729l-1.09.123c.093.656.24 1.3.437 1.925l1.039-.364a.367.367 0 01.243.692l-1.04.365c.236.614.524 1.208.86 1.777l.93-.586a.367.367 0 11.39.621l-.929.585c.366.542.778 1.056 1.234 1.54l.774-.775a.367.367 0 11.52.519l-.78.779.512.51 2.92-2.918-.777-.777a.367.367 0 010-.519l7.942-7.942a.367.367 0 01.52 0l.518-.52a.367.367 0 010-.518zm-.522-3.977l-7.246 7.245a.367.367 0 01-.519 0l-1.211 1.211a.367.367 0 010 .52l-1.73 1.73a.367.367 0 01-.61-.149 8.864 8.864 0 012.187-8.98 8.864 8.864 0 018.98-2.187.367.367 0 01.149.61z" fill="#98D9D5"/>
  <path d="M23.392 5.286L22.357 4.25A12.72 12.72 0 0013.303.5 12.72 12.72 0 004.25 4.25l-.003.003A12.72 12.72 0 00.5 13.303a12.72 12.72 0 003.75 9.054l1.036 1.035a.366.366 0 00.519 0l3.438-3.438a.367.367 0 000-.519l-.776-.776 7.683-7.683a.367.367 0 00-.52-.52L7.689 18.4a.367.367 0 000 .52l.777.776-2.92 2.919-.51-.511.778-.78a.367.367 0 10-.52-.518l-.773.775a12.167 12.167 0 01-1.234-1.54l.93-.585a.367.367 0 00-.391-.62l-.931.585a11.918 11.918 0 01-.86-1.777l1.04-.365a.367.367 0 00-.243-.692l-1.038.364a12.003 12.003 0 01-.437-1.925l1.09-.123a.367.367 0 00-.083-.73l-1.088.124a12.326 12.326 0 01-.001-1.973l1.089.122a.367.367 0 00.082-.73l-1.09-.121c.092-.656.237-1.3.434-1.925l1.039.363a.366.366 0 10.242-.693l-1.04-.363c.236-.615.523-1.21.858-1.778l.93.584a.365.365 0 00.507-.115.367.367 0 00-.116-.506l-.93-.584A12.17 12.17 0 014.51 5.036l.775.774a.366.366 0 00.519 0 .367.367 0 000-.52l-.775-.773c.483-.456.998-.868 1.54-1.234l.584.93a.367.367 0 10.622-.39l-.586-.931a11.916 11.916 0 011.778-.86l.364 1.04a.367.367 0 10.692-.242l-.363-1.039a12 12 0 011.924-.436l.123 1.09a.367.367 0 00.73-.082l-.123-1.089a12.359 12.359 0 011.973 0l-.123 1.089a.367.367 0 10.73.082l.122-1.09c.656.093 1.3.238 1.925.435l-.364 1.04a.367.367 0 10.693.242l.364-1.04c.614.235 1.208.522 1.777.858l-.584.93a.367.367 0 00.621.391l.584-.93c.542.365 1.057.777 1.54 1.233l-.774.774a.367.367 0 00.52.52l.778-.78.517.517-2.92 2.92-.776-.777a.367.367 0 00-.519 0l-1.73 1.73a.367.367 0 00.52.52l1.47-1.471.776.776a.367.367 0 00.52 0l3.438-3.438a.367.367 0 000-.52z" fill="#082947"/>
  <path d="M15.999 4.832a8.864 8.864 0 00-8.981 2.186A8.864 8.864 0 004.832 16a.367.367 0 00.61.149l1.73-1.73a.367.367 0 00-.52-.52l-1.285 1.286a8.129 8.129 0 012.17-7.647 8.129 8.129 0 017.646-2.17l-6.8 6.801a.367.367 0 10.519.52l7.246-7.246a.367.367 0 00-.15-.61z" fill="#082947"/>
</svg>
