<svg width="24" height="24" fill="none" xmlns="http://www.w3.org/2000/svg">
  <defs/>
  <path d="M21.434 3.083v1.348a2.246 2.246 0 01-4.493 0V3.083a2.246 2.246 0 004.493 0z" fill="#DCA746"/>
  <path d="M21.434 3.083a2.246 2.246 0 11-4.493 0 2.246 2.246 0 014.493 0z" fill="#FFCE54"/>
  <path d="M19.187.837c-.235 0-.462.036-.674.103a2.247 2.247 0 010 4.286 2.246 2.246 0 10.674-4.39z" fill="#F6BB42"/>
  <path d="M5.486 5.688c.869 0 1.573-.704 1.573-1.572v1.347a1.572 1.572 0 11-3.145 0V4.116c0 .868.704 1.572 1.572 1.572z" fill="#DCA746"/>
  <path d="M5.486 5.688a1.572 1.572 0 100-3.144 1.572 1.572 0 000 3.144z" fill="#FFCE54"/>
  <path d="M11.326 5.014a.674.674 0 11-1.347 0 .674.674 0 011.347 0z" fill="#CCD1D9"/>
  <g fill="#DADDE1">
    <path d="M13.348 4.34a.674.674 0 110 1.348.674.674 0 010-1.348zM10.586 7.577c.51-.064.987-.093 1.413-.093.426 0 .903.03 1.414.093 1.764.217 3.937.84 5.84 2.088.462.303.89.63 1.282.978l-.953.952-.003.004C17.302 9.606 14.11 8.832 12 8.832c-2.104 0-5.287.77-7.564 2.753l-.956-.956c.389-.343.811-.665 1.268-.964 1.903-1.247 4.075-1.871 5.839-2.088z"/>
  </g>
  <path d="M11.999 8.833c2.11 0 5.302.774 7.58 2.766 1.603 1.402 2.752 3.409 2.752 6.174v.898a4.505 4.505 0 01-4.492 4.492H6.16a4.505 4.505 0 01-4.492-4.492v-.898c0-2.774 1.157-4.785 2.768-6.188C6.712 9.603 9.895 8.833 12 8.833z" fill="#48CFAD"/>
  <path d="M19.579 11.6c-2.278-1.993-5.47-2.767-7.58-2.767a9.98 9.98 0 00-.898.043c2.047.185 4.707.997 6.68 2.723 1.604 1.402 2.753 3.409 2.753 6.174v.898a4.505 4.505 0 01-4.492 4.492h1.797a4.505 4.505 0 004.492-4.492v-.898c0-2.765-1.149-4.772-2.752-6.174z" fill="#37BC9B"/>
  <path d="M21.513 13.38a8.416 8.416 0 00-1.446-1.792l.707-.707.007-.008.006-.006.005-.006.011-.014.01-.013.01-.015.007-.013.008-.016.007-.014.006-.015.005-.016a.285.285 0 00.005-.015l.004-.017a.254.254 0 00.005-.032l.001-.015.001-.017v-.016a.292.292 0 00-.003-.032l-.002-.016c0-.006-.002-.01-.003-.016l-.004-.016a.296.296 0 00-.024-.06.27.27 0 00-.016-.03l-.009-.013a.371.371 0 00-.01-.014l-.01-.012a.402.402 0 00-.013-.014l-.004-.005-.008-.007-.007-.007a11.461 11.461 0 00-1.322-1.007c-1.91-1.252-4.084-1.891-5.873-2.127l-1.07-1.002.374-.351a1.012 1.012 0 10.48-1.9 1.012 1.012 0 00-.933 1.4l-.415.39-.415-.39a1.012 1.012 0 10-1.943-.39 1.012 1.012 0 001.49.89l.375.35-1.072 1.003c-1.788.236-3.963.875-5.872 2.127-.467.306-.907.64-1.306.993l-.008.008-.007.006-.005.005a.32.32 0 00-.033.04l-.009.013-.008.015a.32.32 0 00-.021.045l-.005.014a.344.344 0 00-.01.031l-.003.018-.002.014a.32.32 0 00-.002.017v.048a.392.392 0 00.015.08.273.273 0 00.018.046.31.31 0 00.026.043l.01.014.01.013.005.006.007.008.007.007.706.706a8.393 8.393 0 00-1.46 1.805c-.769 1.285-1.158 2.763-1.157 4.394v.898c0 .65.128 1.28.381 1.876.244.574.593 1.09 1.037 1.535.444.444.96.793 1.535 1.037.595.253 1.226.38 1.876.381h.766a.337.337 0 000-.674H6.16c-.559 0-1.1-.11-1.613-.327a4.178 4.178 0 01-1.322-.894 4.16 4.16 0 01-.893-1.322 4.1 4.1 0 01-.327-1.612v-.898c0-.78.096-1.526.284-2.218a7.325 7.325 0 01.777-1.83 7.926 7.926 0 011.855-2.106 10.417 10.417 0 012.365-1.414c.786-.344 1.625-.61 2.491-.79a11.12 11.12 0 012.218-.246h.016c.923 0 2.002.159 3.036.446.577.16 1.138.36 1.67.592.577.252 1.119.543 1.612.867 1.114.73 1.99 1.622 2.605 2.65.34.57.6 1.186.777 1.831.188.692.284 1.438.284 2.218v.898a4.1 4.1 0 01-.327 1.613c-.21.494-.51.938-.894 1.321a4.17 4.17 0 01-1.322.894 4.106 4.106 0 01-1.612.327H8.274a.337.337 0 000 .674h9.566c.65 0 1.28-.128 1.876-.381a4.835 4.835 0 001.535-1.037c.444-.445.793-.96 1.037-1.535.253-.595.38-1.227.38-1.876v-.898c.002-1.63-.387-3.109-1.155-4.394zm-8.165-8.703a.337.337 0 11-.001.675.337.337 0 010-.675zm-3.033.337a.337.337 0 11.675.001.337.337 0 01-.675 0zM12 6.716l.474.444a10.648 10.648 0 00-.948 0L12 6.716zm4.983 2.872a13.38 13.38 0 00-2.626-.834A11.83 11.83 0 0012 8.496c-.482 0-.994.038-1.523.113a13.375 13.375 0 00-3.46.979 11.74 11.74 0 00-1.715.923c-.298.195-.58.401-.847.618l-.479-.48c.3-.246.62-.482.956-.702 1.832-1.2 3.92-1.808 5.628-2.027h.019c.034 0 .069-.005.102-.015.476-.057.92-.083 1.319-.083a11.306 11.306 0 011.405.093c1.714.215 3.818.824 5.663 2.032.341.224.667.464.971.716l-.48.48c-.018-.017-.038-.033-.057-.049a11.099 11.099 0 00-2.519-1.506zM19.188 7.014A2.586 2.586 0 0021.77 4.43V3.083A2.586 2.586 0 0019.188.5a2.586 2.586 0 00-2.583 2.583v1.348a2.586 2.586 0 002.583 2.583zm0-.674c-.9 0-1.655-.625-1.857-1.463a2.575 2.575 0 003.713 0 1.912 1.912 0 01-1.856 1.463zm0-5.166c1.052 0 1.909.856 1.909 1.91 0 1.052-.857 1.908-1.91 1.908a1.911 1.911 0 01-1.909-1.909c0-1.053.857-1.91 1.91-1.91z" fill="#000"/>
  <path d="M5.486 7.373c1.053 0 1.91-.857 1.91-1.91V4.117c0-1.053-.857-1.91-1.91-1.91-1.052 0-1.909.857-1.909 1.91v1.348c0 1.052.857 1.909 1.91 1.909zm0-.674a1.237 1.237 0 01-1.23-1.125 1.9 1.9 0 002.46 0A1.237 1.237 0 015.486 6.7zm0-3.818c.681 0 1.236.554 1.236 1.235s-.555 1.235-1.236 1.235a1.237 1.237 0 01-1.235-1.235c0-.681.554-1.235 1.235-1.235z" fill="#000"/>
  <path d="M5.486 4.902c.186 0 .337-.15.337-.337v-.898a.337.337 0 10-.674 0v.898c0 .186.151.337.337.337zM19.16 3.87c.186 0 .337-.152.337-.338v-.898a.337.337 0 10-.674 0v.898c0 .186.151.337.337.337z" fill="#000"/>
</svg>
