<svg width="24" height="24" fill="none" xmlns="http://www.w3.org/2000/svg">
  <defs/>
  <path d="M20.019 3.914H2.634a1.797 1.797 0 100 3.593H20.02c.992 0 1.797.805 1.797 1.797V5.711c0-.993-.805-1.797-1.797-1.797z" fill="#CE3A50"/>
  <path d="M21.816 20.086c0 .992-.805 1.797-1.797 1.797H2.634a1.797 1.797 0 01-1.797-1.797V5.711c0 .992.804 1.796 1.797 1.796H20.02c.992 0 1.797.805 1.797 1.797v10.782z" fill="#DA4453"/>
  <g fill="#CE3A50">
    <path d="M20.019 7.507H18.67c.992 0 1.797.805 1.797 1.797v10.782c0 .992-.805 1.797-1.797 1.797h1.348c.992 0 1.797-.805 1.797-1.797V9.304c0-.992-.805-1.797-1.797-1.797zM22.489 10.652a.674.674 0 010 1.347h-.674v-1.347h.674z"/>
  </g>
  <path d="M23.163 11.326v5.39a.674.674 0 01-.674.674h-4.717l-1.796-2.695 1.796-2.696h4.717a.674.674 0 00.674-.673z" fill="#ED5565"/>
  <path d="M22.49 12h-.674v4.716a.674.674 0 01-.674.674h1.347a.674.674 0 00.674-.674v-5.39a.674.674 0 01-.674.673z" fill="#DA4453"/>
  <path d="M17.008 5.711H3.532l.45-1.797.448-1.797 6.288 1.797 6.29 1.797z" fill="#A0D468"/>
  <path d="M20.019 3.914H18.67c.992 0 1.797.804 1.797 1.797v1.853c.775.2 1.348.903 1.348 1.74V5.711c0-.993-.805-1.797-1.797-1.797z" fill="#BF2E4A"/>
  <path d="M19.12 13.796a.899.899 0 110 1.797.899.899 0 010-1.797z" fill="#FFCE54"/>
  <path d="M22.49 10.315h-.337V5.71a2.136 2.136 0 00-2.134-2.133h-9.253L4.523 1.793l-.005-.001-.005-.002-.012-.002-.017-.004-.016-.002a.325.325 0 00-.018-.001h-.047a.297.297 0 00-.02.003c-.004 0-.008 0-.012.002a.313.313 0 00-.02.004l-.012.003a.366.366 0 00-.05.018l-.01.005a.3.3 0 00-.018.01l-.01.006a.308.308 0 00-.017.012l-.01.007a.325.325 0 00-.015.013l-.009.008a.369.369 0 00-.015.014l-.008.01a.341.341 0 00-.013.015l-.008.011a.318.318 0 00-.01.015l-.008.014a.303.303 0 00-.008.015l-.007.015a.305.305 0 00-.007.016l-.005.016-.004.011-.001.006-.002.005-.385 1.541H2.634C1.46 3.576.504 4.53.5 5.703V17.39a.337.337 0 00.674 0V7.264c.382.36.895.58 1.46.58H20.02c.804 0 1.459.655 1.459 1.46v2.359h-3.707a.354.354 0 00-.061.006h-.005a.29.29 0 00-.026.007l-.006.001a.425.425 0 00-.022.008l-.009.003-.018.009-.012.006-.013.008-.015.009-.01.007-.017.012-.006.006-.018.016-.01.01-.012.015a.334.334 0 00-.02.026l-1.797 2.696a.329.329 0 00-.031.06c-.004.007-.006.015-.009.023l-.002.007-.007.025-.001.007a.289.289 0 00-.003.022l-.002.01v.019l-.001.014v.014l.001.02.002.009a.368.368 0 00.003.023l.002.006a.39.39 0 00.006.025l.002.007a.312.312 0 00.04.083l1.797 2.695.024.031.008.01a.304.304 0 00.05.044l.009.007c.01.006.02.013.031.018l.008.005a.37.37 0 00.027.011l.01.004a.376.376 0 00.027.008l.01.003.028.005.01.002a.343.343 0 00.036.002h3.709v2.359c0 .805-.655 1.46-1.46 1.46H2.634c-.805 0-1.46-.655-1.46-1.46V18.738a.337.337 0 00-.674 0v1.358a2.136 2.136 0 002.134 2.124H20.02a2.136 2.136 0 002.134-2.134v-2.359h.336c.558 0 1.011-.453 1.011-1.01v-5.391c0-.558-.453-1.011-1.01-1.011zm.336 6.401a.337.337 0 01-.337.337h-4.537l-1.572-2.358 1.573-2.359h4.55c.113-.002.222-.022.323-.058v4.438zM4.673 2.536l5.945 1.7h.001l3.984 1.138H3.964l.71-2.837zM20.02 7.17H2.634c-.805 0-1.46-.655-1.46-1.46 0-.805.655-1.46 1.46-1.46h.916l-.28 1.124h-.636a.337.337 0 000 .674H19.57a.337.337 0 000-.674h-2.514L13.124 4.25h6.895c.805 0 1.46.655 1.46 1.46v2.04a2.125 2.125 0 00-1.46-.58zm2.134 3.819h.336a.337.337 0 010 .673h-.337v-.673z" fill="#000"/>
  <path d="M19.12 13.46c-.681 0-1.235.554-1.235 1.235s.554 1.235 1.235 1.235 1.235-.554 1.235-1.235-.554-1.235-1.235-1.235zm0 1.796a.562.562 0 11.001-1.124.562.562 0 010 1.125z" fill="#000"/>
</svg>
