<svg width="24" height="24" fill="none" xmlns="http://www.w3.org/2000/svg">
  <defs/>
  <path d="M22.46 20.846v-4.059l-4.684-.156-.52 2.186.52 2.185 4.683-.156z" fill="#4EB9FF"/>
  <path d="M15.382 14.654v8.326c1.01 0 1.896-.797 2.393-1.978v-4.37c-.499-1.182-1.382-1.98-2.393-1.978z" fill="#3B8BC0"/>
  <path d="M22.46 7.213v-4.06l-4.684-.155-.52 2.185.52 2.186 4.683-.156z" fill="#FFCE47"/>
  <path d="M15.382 1.02v8.326c1.01 0 1.896-.796 2.393-1.977V2.997c-.499-1.18-1.382-1.978-2.393-1.977z" fill="#FFB14E"/>
  <path d="M1.645 9.97v4.06l4.682.156.52-2.186-.52-2.185-4.682.156z" fill="#FF80AB"/>
  <path d="M8.722 7.837c-1.01 0-1.896.797-2.393 1.978v4.37c.498 1.182 1.381 1.98 2.393 1.978V7.837z" fill="#FF4181"/>
  <g fill="#01121C">
    <path d="M22.735 20.846v-4.492a.52.52 0 00-1.033-.09l-3.824-.123c-.62-1.24-1.619-1.97-2.723-1.97a.52.52 0 00-.52.52v3.624h-6.62a.52.52 0 000 1.04h6.62v3.625c0 .287.232.52.52.52h.003c1.1 0 2.1-.73 2.72-1.97l3.825-.124a.52.52 0 001.032-.09v-.436-.028-.006zm-5.212-.346a.52.52 0 00-.462.317c-.334.79-.83 1.335-1.386 1.545v-7.05c.532.207 1.017.723 1.344 1.449v2.376a.52.52 0 001.04 0l.001-1.949 3.634.117v3.06l-4.17.135zM8.015 5.685h6.62V9.31c0 .288.232.52.52.52h.003c1.1 0 2.1-.73 2.72-1.97l3.825-.123a.52.52 0 001.032-.09V7.21v-.028-4.498a.52.52 0 00-1.033-.09l-3.824-.123C17.258 1.23 16.259.5 15.155.5a.52.52 0 00-.52.52v3.625h-6.62a.52.52 0 000 1.04zm9.004-2.594v2.376a.52.52 0 001.04 0l.001-1.949 3.634.117v3.06l-4.17.134a.52.52 0 00-.463.318c-.334.79-.83 1.334-1.386 1.545v-7.05c.532.207 1.017.723 1.344 1.449zM8.845 16.665a.52.52 0 00.52-.52V12.52h6.62a.52.52 0 000-1.04h-6.62V7.856a.52.52 0 00-.521-.52c-1.104 0-2.103.73-2.723 1.97l-3.824.123a.52.52 0 00-1.033.09v4.962a.52.52 0 001.033.09l3.824.123c.621 1.241 1.62 1.971 2.72 1.97l.004.001zm-1.907-2.683a.52.52 0 00-.462-.317l-4.171-.135v-3.06l3.634-.117v1.949a.52.52 0 001.04 0V9.926c.328-.726.813-1.242 1.345-1.45v7.051c-.555-.21-1.052-.755-1.386-1.545z"/>
  </g>
</svg>
