<svg width="24" height="24" fill="none" xmlns="http://www.w3.org/2000/svg">
  <defs/>
  <path d="M14.388 16.096h-5.75v5.554h14.456l-3.206-5.554h-5.5z" fill="#D3E8F1"/>
  <path d="M8.639 21.65v-5.554H4.016L.81 21.65h7.829z" fill="#EBF9FE"/>
  <path d="M8.638 16.096h5.75v-5.92H7.433l-3.417 5.92h4.622z" fill="#FFEFCA"/>
  <path d="M14.389 10.177v5.92h5.5l-3.418-5.92h-2.082z" fill="#FEA8D6"/>
  <path d="M11.936 2.378l-4.502 7.799h4.502v-7.8z" fill="#6BE8C7"/>
  <path d="M11.937 10.177h4.534L11.952 2.35l-.015.027v7.8z" fill="#9AF7DD"/>
  <path d="M12.309 2.172a.357.357 0 00-.618 0L.548 21.472a.357.357 0 00.309.535h22.286a.357.357 0 00.296-.556L12.31 2.17zm-7.68 13.657l3.03-5.248c.034.01.07.016.107.016h6.378v5.232H4.629zm7.723-5.946l.001-.014V3.676l3.584 6.207h-3.585zm-.712 0H8.062l3.578-6.196V9.883zm3.217.714h1.376a.357.357 0 00.107-.016l3.03 5.248h-4.513v-5.232zm-10.64 5.946h4.086v4.75H1.475l2.742-4.75zm4.8 4.75v-4.75h10.765l2.742 4.75H9.017z" fill="#000"/>
</svg>
