<svg width="24" height="24" fill="none" xmlns="http://www.w3.org/2000/svg">
  <defs>
    <path d="M11.152 6.801c0 2.543-2.061 5.769-4.604 5.769-2.542 0-4.604-3.226-4.604-5.769a4.604 4.604 0 119.208 0z" fill="#FFCBBE" id="reuse-0"/>
  </defs>
  <path d="M6.559.837h-.02a5.65 5.65 0 00-5.65 5.65v4.304c0 .269.219.487.487.487h10.345a.487.487 0 00.487-.487V6.487a5.65 5.65 0 00-5.65-5.65z" fill="#A95E2C"/>
  <path d="M6.548.837c-.236 0-.47.015-.698.043a5.66 5.66 0 014.96 5.617v4.293c0 .27-.218.488-.488.488h1.398c.27 0 .488-.219.488-.488V6.497a5.66 5.66 0 00-5.66-5.66z" fill="#9B5526"/>
  <use xlink:href="#reuse-0"/>
  <use xlink:href="#reuse-0"/>
  <path d="M6.549 2.197c-.253 0-.501.021-.743.06a4.605 4.605 0 013.86 4.544c0 2.29-1.671 5.133-3.86 5.676.242.06.49.093.743.093 2.542 0 4.604-3.226 4.604-5.769a4.604 4.604 0 00-4.604-4.604z" fill="#FDAD9D"/>
  <path d="M.945 5.698h11.206a5.66 5.66 0 00-11.206 0z" fill="#A95E2C"/>
  <path d="M6.548.837c-.482 0-.95.061-1.398.175a5.665 5.665 0 014.205 4.686h2.796A5.66 5.66 0 006.548.838z" fill="#9B5526"/>
  <path d="M12.252 17.113h-1.51a3.85 3.85 0 01-3.848-3.85v-3.73A2.647 2.647 0 019.54 6.885h3.913a2.647 2.647 0 012.647 2.648v3.73a3.85 3.85 0 01-3.849 3.85z" fill="#D58678"/>
  <path d="M13.916 6.927c.244.401.385.873.385 1.377v3.72a3.856 3.856 0 01-3.856 3.856H8.95c-.415 0-.815-.067-1.19-.188a3.848 3.848 0 002.99 1.421h1.496a3.856 3.856 0 003.856-3.856v-3.72c0-1.305-.943-2.39-2.185-2.61z" fill="#CA6D56"/>
  <path d="M10.42 7.413h2.155c1.513 0 2.832.83 3.526 2.06V7.94a2.652 2.652 0 00-2.651-2.652H9.545A2.652 2.652 0 006.894 7.94v1.533a4.045 4.045 0 013.526-2.06z" fill="#883E2F"/>
  <path d="M13.45 5.288h-2.37c1.34 0 2.447.994 2.626 2.285a4.057 4.057 0 012.396 1.9V7.94a2.652 2.652 0 00-2.652-2.652z" fill="#763729"/>
  <path d="M17.041 13.26a1.983 1.983 0 100-3.965 1.983 1.983 0 000 3.965z" fill="#C8C2C9"/>
  <path d="M17.04 9.295c-.184 0-.363.026-.533.073a1.983 1.983 0 010 3.819 1.983 1.983 0 10.534-3.892z" fill="#B1ACB6"/>
  <g fill="#FFCBBE">
    <path d="M13.19 17.367c.312.824.446 1.608-.095 1.813-.54.204-1.7-.192-2.011-1.015-.312-.824.022-1.714.563-1.918.54-.205 1.232.297 1.543 1.12zM20.887 17.367c-.311.824-.445 1.608.096 1.813.54.204 1.7-.192 2.011-1.015.312-.824-.022-1.714-.563-1.918-.54-.205-1.232.297-1.544 1.12z"/>
    <path d="M21.657 16.625c0 2.55-2.068 6.537-4.618 6.537-2.55 0-4.618-3.986-4.618-6.537a4.618 4.618 0 119.236 0z"/>
  </g>
  <path d="M17.718 12.057a4.615 4.615 0 012.22 3.947c0 2.55-2.068 6.537-4.619 6.537h-.021c.537.388 1.125.622 1.741.622 2.55 0 4.618-3.987 4.618-6.538 0-2.32-1.71-4.24-3.939-4.568z" fill="#FEAE9E"/>
  <path d="M20.887 17.367c-.311.824-.445 1.608.096 1.813.54.205 1.7-.192 2.011-1.015.312-.824-.022-1.714-.563-1.918-.54-.205-1.232.297-1.544 1.12z" fill="#FEAE9E"/>
  <path d="M17.565 19.82a.63.63 0 00-.498.145.04.04 0 01-.052 0 .63.63 0 00-1.037.395.633.633 0 00.647.72h.831a.633.633 0 00.109-1.26z" fill="#F26A35"/>
  <path d="M17.039 14.058c1.894 0 3.574.92 4.618 2.336v-.755a4.618 4.618 0 10-9.236 0v.755a5.724 5.724 0 014.618-2.336z" fill="#C8C2C9"/>
  <path d="M17.039 11.02c-.18 0-.358.011-.533.032a4.62 4.62 0 014.071 4.23c.408.32.772.694 1.08 1.112v-.755a4.618 4.618 0 00-4.618-4.618z" fill="#B1ACB6"/>
  <path d="M7.727 11.842c.312.823.446 1.608-.095 1.812-.54.205-1.7-.191-2.011-1.015-.312-.823.022-1.713.563-1.918.54-.204 1.232.297 1.543 1.12z" fill="#D58678"/>
  <path d="M4.598 7.608a.555.555 0 100-1.11.555.555 0 000 1.11zM9.546 12.077a.555.555 0 100-1.11.555.555 0 000 1.11z" fill="#000"/>
  <path d="M22.55 15.931a1.07 1.07 0 00-.556-.052v-.24a4.971 4.971 0 00-2.633-4.378 2.322 2.322 0 00-2.922-2.224V7.94a2.993 2.993 0 00-2.99-2.989h-1.105a6.023 6.023 0 00-2.01-3.106 6.01 6.01 0 00-6.635-.626.338.338 0 00.32.594 5.329 5.329 0 012.53-.638 5.355 5.355 0 015.093 3.776H9.545c-.55 0-1.064.15-1.507.41h-5.96a.342.342 0 00-.328.256A4.962 4.962 0 001.607 6.8c0 1.333.554 2.917 1.49 4.14h-1.72a.15.15 0 01-.15-.15V6.496c0-1.484.595-2.861 1.677-3.878a.338.338 0 00-.463-.492 6.02 6.02 0 00-1.89 4.37v4.293c0 .455.37.825.826.825h2.316c.466.455.996.82 1.578 1.046.01.033.022.065.034.098.23.609.79.986 1.303 1.162.15.938.615 1.799 1.325 2.443a4.182 4.182 0 002.698 1.084 2.18 2.18 0 00.137.836c.294.776 1.225 1.274 1.967 1.286.77 1.864 2.317 3.93 4.304 3.93s3.533-2.066 4.304-3.93c.742-.012 1.673-.51 1.967-1.286.358-.945-.004-2.067-.76-2.353zm-3.896-4.978a4.923 4.923 0 00-.64-.174.337.337 0 10-.132.662 4.29 4.29 0 013.435 4.045 6.099 6.099 0 00-4.278-1.765 6.099 6.099 0 00-4.278 1.765 4.287 4.287 0 013.728-4.093.338.338 0 00-.085-.67c-.338.044-.664.121-.975.228a1.648 1.648 0 011.612-1.318c.796 0 1.461.568 1.613 1.32zM2.282 6.8c0-.257.023-.514.069-.766h4.892a2.976 2.976 0 00-.687 1.905v1.304h-.008c-.307 0-.597-.1-.836-.293a.338.338 0 00-.422.527c.355.285.802.442 1.258.442h.008v.425a1.064 1.064 0 00-.492.06c-.525.2-.86.803-.895 1.47-1.722-.901-2.887-3.287-2.887-5.074zm8.478 9.975h-.01a3.507 3.507 0 01-3.5-3.152.338.338 0 00-.258-.293c-.41-.097-.895-.386-1.056-.811-.258-.682.04-1.36.367-1.483.154-.058.318.001.429.062a.338.338 0 00.499-.297V9.537a.343.343 0 00-.003-.043.073.073 0 00.003-.02V7.94a2.317 2.317 0 012.314-2.314h3.904a2.317 2.317 0 012.315 2.314v.511a4.393 4.393 0 00-3.19-1.376H10.42c-.81 0-1.603.223-2.29.645a.338.338 0 00.353.575 3.7 3.7 0 011.937-.545h2.155c1.246 0 2.407.63 3.091 1.66a2.318 2.318 0 00-.944 1.848 4.957 4.957 0 00-.779.513.555.555 0 10-.315.276 4.99 4.99 0 00-1.117 1.581H10.492a.337.337 0 100 .675h1.775c-.12.426-.183.874-.183 1.336v.24a1.07 1.07 0 00-.557.052c-.352.134-.62.45-.767.845zm11.919 1.27c-.224.59-1.064.916-1.5.838a.337.337 0 00-.374.212c-.71 1.856-2.15 3.729-3.766 3.729s-3.056-1.873-3.766-3.729a.337.337 0 00-.375-.212c-.435.078-1.275-.248-1.498-.839-.259-.682.04-1.359.366-1.483.139-.052.286-.008.394.044a.336.336 0 00.533-.011 5.42 5.42 0 014.346-2.2 5.42 5.42 0 014.346 2.2.338.338 0 00.534.011c.107-.052.255-.096.393-.044.326.124.625.801.367 1.483z" fill="#000"/>
  <path d="M15.122 17.225a.555.555 0 100 1.11.555.555 0 000-1.11zM19.023 18.335a.555.555 0 100-1.11.555.555 0 000 1.11z" fill="#000"/>
  <path d="M19.024 15.655c-.912 0-1.673.659-1.832 1.526h-.3a1.866 1.866 0 00-1.833-1.526 1.866 1.866 0 00-1.864 1.863c0 1.028.836 1.864 1.864 1.864.912 0 1.673-.66 1.832-1.526h.3c.16.867.92 1.526 1.833 1.526a1.866 1.866 0 001.864-1.864 1.866 1.866 0 00-1.864-1.863zm-3.965 3.052a1.19 1.19 0 01-1.189-1.189 1.19 1.19 0 011.189-1.188 1.19 1.19 0 011.188 1.188 1.19 1.19 0 01-1.188 1.189zm3.965 0a1.19 1.19 0 01-1.189-1.189 1.19 1.19 0 011.189-1.188 1.19 1.19 0 011.188 1.188 1.19 1.19 0 01-1.188 1.189zM17.611 19.486a.976.976 0 00-.57.095.969.969 0 00-1.155 1.517.97.97 0 00.745.32h.821a.969.969 0 00.986-1.102.969.969 0 00-.826-.83zm.084 1.159a.296.296 0 01-.228.097h-.841a.292.292 0 01.17-.52c.143.121.348.12.49 0a.294.294 0 01.41.423z" fill="#000"/>
</svg>
