<svg width="24" height="24" fill="none" xmlns="http://www.w3.org/2000/svg">
  <defs/>
  <g fill="#BAC6CC">
    <path d="M23.138 15.384H.916v2.567h22.222v-2.567zM23.138 6.048H.916v2.568h22.222V6.048z"/>
  </g>
  <g fill="#CFDCE5">
    <path d="M6.778 2.5L5.28 1.66l-1.497.84a1.787 1.787 0 00-.913 1.56v15.882c0 .647.35 1.243.913 1.56l1.497.839 1.498-.84c.564-.316.913-.912.913-1.559V4.06c0-.646-.35-1.242-.913-1.559zM13.53 2.5l-1.497-.84-1.497.84a1.787 1.787 0 00-.913 1.559v15.883c0 .646.35 1.242.913 1.559l1.497.84 1.498-.84c.563-.317.913-.913.913-1.56V4.06c0-.647-.35-1.243-.914-1.56zM20.161 2.5l-1.497-.84-1.497.84a1.787 1.787 0 00-.913 1.559v15.883c0 .646.35 1.242.913 1.559l1.497.84 1.497-.84c.564-.317.913-.913.913-1.56V4.06c0-.647-.349-1.243-.913-1.56z"/>
  </g>
  <path d="M4.864 20.084a.389.389 0 00.778 0V6.77a.389.389 0 00-.778 0v13.316zM5.253 5.86a.389.389 0 00.39-.388V3.915a.389.389 0 00-.779 0v1.557a.39.39 0 00.39.389zM12.006 16.026a.39.39 0 00-.389.39v3.668a.389.389 0 10.778 0v-3.668a.389.389 0 00-.389-.39zM12.006 3.526a.389.389 0 00-.389.39v11.203a.389.389 0 10.778 0V3.915a.389.389 0 00-.389-.389zM18.638 11.903a.389.389 0 00-.389.39v7.791a.389.389 0 10.778 0v-7.792a.39.39 0 00-.389-.389zM18.638 3.526a.389.389 0 00-.389.39v7.08a.389.389 0 10.778 0v-7.08a.389.389 0 00-.389-.39z" fill="#000"/>
  <path d="M23.11 9.005a.389.389 0 00.39-.39V6.049a.389.389 0 00-.39-.389h-1.673v-1.6c0-.787-.426-1.514-1.112-1.899l-1.497-.84a.389.389 0 00-.38 0l-1.498.84a2.179 2.179 0 00-1.112 1.899v1.6h-1.032v-1.6c0-.787-.426-1.514-1.112-1.899l-1.497-.84a.389.389 0 00-.38 0l-1.498.84A2.179 2.179 0 009.207 4.06v1.6H8.053v-1.6c0-.787-.426-1.514-1.112-1.899l-1.497-.84a.389.389 0 00-.38 0l-1.498.84a.389.389 0 10.38.679l1.308-.733 1.306.733a1.4 1.4 0 01.715 1.22V19.94a1.4 1.4 0 01-.715 1.22l-1.306.733-1.307-.733a1.4 1.4 0 01-.715-1.22V4.06c0-.14.021-.279.062-.412a.389.389 0 10-.743-.23 2.175 2.175 0 00-.097.642v1.6H.89a.389.389 0 00-.389.39v2.567c0 .215.174.389.389.389h1.565v5.99H.89a.39.39 0 00-.389.389v2.567c0 .215.174.39.389.39h1.565v1.6c0 .787.426 1.514 1.112 1.899l1.497.84a.388.388 0 00.381 0l1.497-.84a2.179 2.179 0 001.112-1.898V18.34h1.154v1.602c0 .786.426 1.513 1.112 1.898l1.497.84a.388.388 0 00.38 0l1.498-.84a2.179 2.179 0 001.112-1.898V18.34h1.033v1.602c0 .786.426 1.513 1.112 1.898l1.497.84a.388.388 0 00.38 0l1.497-.84a2.179 2.179 0 001.112-1.898V18.34h1.674a.389.389 0 00.389-.389v-2.567a.389.389 0 00-.389-.389h-1.674v-5.99h1.674zM1.279 8.227v-1.79h1.176v1.79H1.278zm0 9.335v-1.79h1.176v1.79H1.278zm7.93-11.125v1.79H8.052v-1.79h1.154zm0 2.568v5.99H8.052v-5.99h1.154zm-1.155 8.557v-1.79h1.154v1.79H8.053zm5.975 2.38a1.4 1.4 0 01-.715 1.22l-1.306.732-1.307-.733a1.4 1.4 0 01-.715-1.22V4.06a1.4 1.4 0 01.715-1.22l1.307-.733 1.306.733a1.4 1.4 0 01.715 1.22V19.94zm1.81-13.505v1.79h-1.032v-1.79h1.032zm0 2.568v5.99h-1.032v-5.99h1.032zm-1.032 8.557v-1.79h1.032v1.79h-1.032zm5.853 2.38a1.4 1.4 0 01-.714 1.22l-1.307.732-1.307-.733a1.4 1.4 0 01-.715-1.22V4.06a1.4 1.4 0 01.715-1.22l1.307-.733 1.307.733a1.4 1.4 0 01.714 1.22V19.94zm2.063-13.505v1.79h-1.285v-1.79h1.285zm0 9.336v1.79h-1.285v-1.79h1.285z" fill="#000"/>
</svg>
