<svg width="24" height="24" fill="none" xmlns="http://www.w3.org/2000/svg">
  <defs/>
  <path d="M19.655 21.64h2.28c.678 0 1.228-.55 1.228-1.23V8.44c0-.678-.55-1.228-1.228-1.228h-2.28v14.428z" fill="#808B95"/>
  <path d="M21.935 7.21h-.614c.03.106.045.216.045.33v11.972c0 .679-.55 1.229-1.228 1.229h-.483v.898h2.28c.678 0 1.228-.55 1.228-1.228V8.439c0-.678-.55-1.228-1.228-1.228z" fill="#5E6B75"/>
  <path d="M4.345 7.21h-2.28c-.678 0-1.228.55-1.228 1.229v4.1l1.175 1.626v7.474h2.333V7.211z" fill="#808B95"/>
  <path d="M2.997 7.21v12.765a.766.766 0 01-.765.766h-.22v.898h2.333V7.211H2.997z" fill="#5E6B75"/>
  <path d="M4.345 7.21h15.31v14.43H4.345V7.21z" fill="#DAE4EA"/>
  <path d="M17.859 7.21v11.33a2.2 2.2 0 01-2.2 2.2H4.344v.9h15.31V7.21H17.86z" fill="#C6D0DA"/>
  <g fill="#808B95">
    <path d="M10.238 9.414v10.024a.587.587 0 101.175 0V9.414a.587.587 0 10-1.175 0zM5.54 9.414v10.023a.587.587 0 101.175 0V9.414a.587.587 0 00-1.175 0zM7.889 9.414v10.024a.587.587 0 101.174 0V9.414a.587.587 0 00-1.174 0zM17.872 8.827a.587.587 0 00-.587.587v10.024a.587.587 0 101.175 0V9.414a.587.587 0 00-.588-.587z"/>
  </g>
  <path d="M17.873 8.826h-.014v9.714c0 .483-.156.929-.42 1.291a.585.585 0 001.021-.395V9.413a.587.587 0 00-.587-.587z" fill="#5E6B75"/>
  <path d="M12.587 9.413v10.024a.587.587 0 001.174 0V9.413a.587.587 0 10-1.174 0zM14.937 9.413v10.024a.587.587 0 001.174 0V9.413a.587.587 0 00-1.175 0z" fill="#808B95"/>
  <path d="M21.41 20.516a1.754 1.754 0 100-3.508 1.754 1.754 0 000 3.508z" fill="#A0AAB7"/>
  <path d="M21.41 19.36a.598.598 0 100-1.196.598.598 0 000 1.197z" fill="#5E6B75"/>
  <path d="M2.59 11.841a1.754 1.754 0 100-3.507 1.754 1.754 0 000 3.507z" fill="#A0AAB7"/>
  <path d="M2.59 10.686a.599.599 0 100-1.197.599.599 0 000 1.197z" fill="#5E6B75"/>
  <path d="M16.995 5.933h1.72V7.21h-1.72V5.933z" fill="#C6D0DA"/>
  <path d="M16.665 4.797h2.38v1.136h-2.38V4.796z" fill="#DAE4EA"/>
  <path d="M5.243 5.494h1.495V7.21H5.243V5.494z" fill="#C6D0DA"/>
  <path d="M21.935 6.874h-2.883v-.605a.337.337 0 00.33-.336V4.797a.337.337 0 00-.336-.337h-2.38a.337.337 0 00-.338.337v1.136c0 .183.148.333.33.336v.605H7.075v-1.38a.337.337 0 00-.337-.337H5.243a.337.337 0 00-.337.337v1.38h-2.84C1.201 6.874.5 7.576.5 8.439v4.1c0 .072.022.14.064.198l1.111 1.537v5.098a.337.337 0 10.674 0v-5.207c0-.07-.022-.14-.064-.197L1.174 12.43v-.807a2.083 2.083 0 002.834 0v9.678H2.349v-.358a.337.337 0 10-.674 0v.695c0 .186.151.337.337.337h19.923c.863 0 1.565-.702 1.565-1.565V8.439c0-.863-.702-1.565-1.565-1.565zm.891 1.565v8.787a2.083 2.083 0 00-2.834 0v-7.32a.337.337 0 10-.674 0v11.396H4.683V7.548h14.636v.786a.337.337 0 10.674 0v-.786h1.943c.491 0 .891.4.891.891zm0 10.323c0 .782-.636 1.417-1.417 1.417a1.419 1.419 0 01-1.417-1.417c0-.781.636-1.417 1.417-1.417.782 0 1.417.636 1.417 1.417zM17.002 5.134h1.707v.462h-1.707v-.462zm.33 1.135h1.046v.605h-1.046v-.605zM5.58 5.831h.82v1.043h-.82V5.83zM2.065 7.548h1.943v1.004a2.083 2.083 0 00-2.834 0v-.113c0-.492.4-.891.891-.891zm.526 3.957a1.419 1.419 0 01-1.417-1.417c0-.782.635-1.417 1.417-1.417.781 0 1.417.635 1.417 1.417 0 .78-.636 1.417-1.417 1.417zm19.344 9.797h-1.943v-1.004a2.083 2.083 0 002.834 0v.113c0 .491-.4.891-.891.891z" fill="#000"/>
  <path d="M10.825 8.489a.925.925 0 00-.924.924v10.023a.925.925 0 001.849 0V9.413a.925.925 0 00-.925-.924zm.25 10.947a.25.25 0 01-.5 0V9.413a.25.25 0 01.5 0v10.023zM6.127 8.489a.925.925 0 00-.924.924v10.023a.925.925 0 001.848 0V9.413a.925.925 0 00-.924-.924zm.25 10.947a.25.25 0 01-.5 0V9.413a.25.25 0 01.5 0v10.023zM8.476 8.489a.925.925 0 00-.924.924v1.655a.337.337 0 10.674 0V9.413a.25.25 0 01.5 0v10.023a.25.25 0 01-.5 0v-6.795a.337.337 0 10-.674 0v6.795a.925.925 0 001.848 0V9.413a.925.925 0 00-.924-.924zM17.872 8.489a.925.925 0 00-.924.924v10.023a.925.925 0 001.849 0V9.413a.925.925 0 00-.925-.924zm.25 10.947a.25.25 0 01-.5 0V9.413a.25.25 0 01.5 0v10.023zM13.174 8.489a.925.925 0 00-.924.924v10.023a.925.925 0 001.848 0V9.413a.925.925 0 00-.924-.924zm.25 10.947a.25.25 0 01-.5 0V9.413a.25.25 0 01.5 0v10.023zM15.524 8.489a.925.925 0 00-.924.924v10.023a.925.925 0 001.848 0V9.413a.925.925 0 00-.924-.924zm.25 10.947a.25.25 0 01-.5 0V9.413a.25.25 0 01.5 0v10.023zM20.474 18.762a.937.937 0 001.87 0 .937.937 0 00-1.87 0zm1.197 0a.262.262 0 11-.524 0 .262.262 0 01.524 0zM21.41 15.79a.337.337 0 100-.674.337.337 0 000 .674zM21.41 9.395a.337.337 0 100-.674.337.337 0 000 .674zM2.59 9.152a.937.937 0 000 1.871.936.936 0 000-1.87zm0 1.197a.262.262 0 11.001-.524.262.262 0 010 .524zM3.516 20.186v-1.629a.337.337 0 10-.674 0v1.63a.337.337 0 10.674 0zM9.492 6.077c.186 0 .337-.15.337-.337 0-.76.19-1.118.41-1.531.229-.43.488-.92.488-1.848a.337.337 0 10-.673 0c0 .76-.19 1.118-.41 1.531-.23.431-.489.92-.489 1.848 0 .187.151.337.337.337zM11.55 6.077c.187 0 .338-.15.338-.337 0-.76.19-1.118.41-1.531.229-.43.488-.92.488-1.848a.337.337 0 10-.674 0c0 .76-.19 1.118-.41 1.531-.229.431-.488.92-.488 1.848 0 .187.15.337.337.337zM13.61 6.077c.185 0 .336-.15.336-.337 0-.76.19-1.118.41-1.531.23-.43.489-.92.489-1.848a.337.337 0 10-.674 0c0 .76-.19 1.118-.41 1.531-.229.431-.488.92-.488 1.848 0 .187.15.337.336.337z" fill="#000"/>
</svg>
