<svg width="24" height="24" fill="none" xmlns="http://www.w3.org/2000/svg">
  <defs/>
  <g fill-rule="evenodd" clip-rule="evenodd">
    <path d="M3.242 12.06h-.629a.31.31 0 00-.31.31v2.178l.731.84.944-.84-.427-2.178c-.033-.167-.14-.31-.309-.31zM11.698 9.091H9.991a.48.48 0 00-.477.478v1.16l1.455 1.37 1.206-1.37v-1.16a.48.48 0 00-.477-.478z" fill="#F78411"/>
    <path d="M21.347 15l-2.862-.325c-.64-.072-.739-.069-1.15-.574l-2.378-2.922c-.295-.311-.455-.449-1.008-.449l-1.775-.001h-2.66l-.927-.001c-.311 0-.609.154-.876.44l-2.576 2.757c-.304.286-.456.623-.924.623H2.304a.724.724 0 00-.722.723v2.772l10.102.832 10.73-.832V16.07c0-.51-.56-1.011-1.067-1.069z" fill="#50D960"/>
    <path d="M4.479 18.043H1.582a.746.746 0 00-.743.744c0 .41.335.745.743.745h2.755a1.867 1.867 0 01-.062-.534c0-.263.072-.664.204-.955z" fill="#E6E6E6"/>
    <path d="M9.564 12.1c-.377-.002-.568.046-1.032.528l-.829.987c-.537.557-.043.995.23.993l3.365-.018 3.365.018c.272.002.766-.436.23-.993l-.829-.987c-.465-.482-.655-.53-1.033-.528-.577.004-1.156 0-1.733 0-.578 0-1.156.004-1.734 0z" fill="#A2D6F2"/>
    <path d="M22.415 18.043H19.93c.13.29.203.692.203.955 0 .26-.021.363-.062.534h2.344c.41 0 .745-.336.745-.745a.747.747 0 00-.745-.744z" fill="#E6E6E6"/>
    <path d="M22.415 16.07c0-.512-.56-1.012-1.068-1.07l-1.189-.135.367.86c.089.205.325.63.94.63h.95v-.286z" fill="#A2D6F2"/>
    <path d="M12.175 9.57a.48.48 0 00-.476-.478h-.707a.48.48 0 01.477.477v1.16h.706v-1.16z" fill="#F74311"/>
    <path d="M21.403 18.043h-2.485c.131.29.204.692.204.955 0 .26-.022.363-.063.534h2.344c.41 0 .745-.336.745-.745a.746.746 0 00-.745-.744z" fill="#E6E6E6"/>
    <path d="M23.16 18.787a.747.747 0 00-.745-.744h-1.012a.747.747 0 01.745.744c0 .41-.335.745-.745.745h1.012c.41 0 .745-.336.745-.745z" fill="#C2C7CC"/>
    <path d="M18.236 15.965a3.052 3.052 0 00-2.896 2.078h.74a2.36 2.36 0 012.156-1.391c.961 0 1.789.572 2.157 1.391h.74a3.05 3.05 0 00-2.897-2.078zM6.172 15.965a3.053 3.053 0 00-2.897 2.078h.741a2.36 2.36 0 012.156-1.391c.96 0 1.788.572 2.156 1.391h.741a3.051 3.051 0 00-2.897-2.078z" fill="#2BAD3B"/>
    <path d="M16.543 18.043H7.866c.131.29.204.692.204.955 0 .26-.022.363-.062.534H16.4a1.874 1.874 0 01-.062-.534c0-.263.072-.664.204-.955z" fill="#E6E6E6"/>
    <path d="M6.171 16.652c-.96 0-1.787.572-2.155 1.391a2.317 2.317 0 00-.141 1.489 2.357 2.357 0 002.296 1.81 2.358 2.358 0 002.298-1.81 2.353 2.353 0 00-2.298-2.88z" fill="gray"/>
    <path d="M8.327 18.043a2.36 2.36 0 00-2.695-1.329 2.358 2.358 0 011.704 1.562 2.324 2.324 0 01.053 1.256 2.357 2.357 0 01-1.757 1.748 2.358 2.358 0 002.838-1.748c.04-.171.06-.35.06-.534a2.321 2.321 0 00-.203-.955z" fill="#666"/>
    <path d="M20.391 18.043a2.36 2.36 0 00-2.155-1.391c-.96 0-1.787.572-2.155 1.391a2.317 2.317 0 00-.142 1.489 2.356 2.356 0 002.297 1.81 2.358 2.358 0 002.298-1.81c.04-.171.061-.35.061-.534 0-.34-.072-.664-.204-.955z" fill="gray"/>
    <path d="M20.391 18.043a2.36 2.36 0 00-2.695-1.329 2.359 2.359 0 011.705 1.562 2.326 2.326 0 01.052 1.256 2.356 2.356 0 01-1.757 1.748 2.358 2.358 0 002.838-1.748 2.325 2.325 0 00-.142-1.488z" fill="#666"/>
    <path d="M14.065 12.628c-.466-.482-.656-.53-1.034-.528l-.93.001c.258.027.454.134.827.52l.561.669c.485.504-.074.628-.527.628H7.5c-.153.405.213.69.433.69l3.366-.018 2.23.011 1.135.007c.272.002.766-.436.229-.993l-.827-.987z" fill="#64B0D9"/>
    <path d="M17.335 14.1l-2.378-2.921c-.295-.311-.454-.449-1.008-.449h-.389l3.348 4.009c.412.506.511.502 1.15.575l2.375.193-.275-.642-1.673-.19c-.64-.072-.738-.069-1.15-.575z" fill="#2BAD3B"/>
    <path d="M21.347 15l-1.189-.135.275.642.582.102c.365.065.761.356.761.746h.64v-.286c0-.51-.56-1.011-1.069-1.069z" fill="#64B0D9"/>
    <path d="M22.416 16.355h-.64c.034.567.025 1.119.025 1.688h.615v-1.688z" fill="#2BAD3B"/>
    <path d="M6.87 18.998a.695.695 0 00-.698-.694.694.694 0 00-.696.694c0 .382.311.691.696.691.386 0 .698-.31.698-.691zM18.933 18.998a.695.695 0 00-.698-.694.695.695 0 00-.696.694c0 .382.312.691.696.691.386 0 .698-.31.698-.691z" fill="#E6E6E6"/>
    <path d="M3.979 14.548l-.427-2.178c-.033-.167-.14-.31-.31-.31h-.628c-.015 0-.03 0-.045.003.145.023.236.154.266.307l.427 2.178h.717z" fill="#F74311"/>
  </g>
  <path d="M10.84 15.48a.34.34 0 000 .68h1.408a.34.34 0 100-.68H10.84zM14.667 14.947c.3 0 .61-.218.74-.52.068-.158.179-.576-.26-1.039l-.82-.979a.459.459 0 00-.017-.018c-.53-.547-.812-.635-1.28-.63-.383.002-.774 0-1.153 0H10.721c-.378 0-.77.002-1.153 0-.47-.003-.751.083-1.28.63a.396.396 0 00-.015.018l-.822.979c-.44.463-.329.88-.26 1.04.13.301.44.519.738.519h.006l3.363-.018 3.363.018h.006zm-3.707-.68H7.936a.209.209 0 01-.126-.119c-.033-.1.073-.23.139-.298a.282.282 0 00.015-.017l.821-.979c.405-.417.515-.417.778-.415.387.003.78.002 1.16 0h.237v1.829zm.679-1.827h.237c.38 0 .772.002 1.158-.001.271-.002.374-.002.78.416l.82.978.015.017c.066.069.172.198.139.298a.21.21 0 01-.126.12h-3.023V12.44z" fill="#000"/>
  <path d="M22.755 17.758v-1.69c0-.716-.723-1.333-1.37-1.406l-1.192-.135a.06.06 0 01-.004 0l-1.724-.196c-.555-.063-.555-.063-.866-.445l-2.378-2.922a.242.242 0 00-.017-.02c-.358-.376-.598-.554-1.254-.554h-1.435v-.821a.817.817 0 00-.816-.818h-.5c.04-.876.08-2.045-.263-3.214-.43-1.473-1.37-2.546-2.793-3.188a.34.34 0 10-.28.619c2.824 1.274 2.735 4.07 2.657 5.783h-.528a.818.818 0 00-.817.818v.819h-.587c-.4 0-.79.189-1.125.547l-.691.74a.34.34 0 00.496.464l.691-.74c.207-.22.418-.332.628-.332h3.588l1.775.002c.43 0 .51.078.753.334l2.37 2.911c.466.574.657.617 1.315.691l1.536.175.29.678c.232.539.677.836 1.25.836h.612v1.01H20.6a2.702 2.702 0 00-4.728 0h-2.761a.34.34 0 100 .678h2.499a2.66 2.66 0 00-.064.81H8.863a2.672 2.672 0 00-.064-.81h2.757a.34.34 0 100-.679h-3.02a2.702 2.702 0 00-4.727 0H1.922V15.27c0-.211.172-.383.383-.383h1.907c.507 0 .767-.291.977-.525a3.075 3.075 0 01.195-.206l.843-.902a.34.34 0 10-.496-.464l-.836.895a3.82 3.82 0 00-.213.224c-.174.195-.26.284-.424.297l-.373-1.902c-.069-.35-.327-.584-.642-.584h-.629a.65.65 0 00-.649.65v1.894c-.419.142-.722.54-.722 1.006v2.488a1.085 1.085 0 00.34 2.112h2.038a2.702 2.702 0 005.103 0h6.961a2.701 2.701 0 005.102 0h1.629c.598 0 1.084-.486 1.084-1.083 0-.48-.313-.886-.745-1.03zm-10.92-7.37H9.855v-.82a.14.14 0 01.138-.138H11.699a.14.14 0 01.137.139v.82zM2.646 12.4h.564c.003.01.007.021.01.036l.347 1.773h-.922v-1.809zm.837 6.792h-1.9a.405.405 0 010-.809h1.964a2.672 2.672 0 00-.064.81zm2.69 1.811c-1.113 0-2.02-.9-2.02-2.005 0-1.106.907-2.006 2.02-2.006 1.114 0 2.02.9 2.02 2.006a2.015 2.015 0 01-2.02 2.005zm12.064 0c-1.113 0-2.02-.9-2.02-2.005 0-1.106.907-2.006 2.02-2.006 1.114 0 2.02.9 2.02 2.006a2.015 2.015 0 01-2.02 2.005zm2.601-5.412l-.137-.322.61.07c.344.038.72.38.762.677h-.607c-.303 0-.503-.136-.628-.425zm1.579 3.601h-1.49a2.603 2.603 0 00-.064-.809h1.554a.405.405 0 010 .81z" fill="#000"/>
  <path d="M6.173 17.964c-.572 0-1.036.464-1.036 1.033S5.6 20.03 6.173 20.03c.571 0 1.037-.463 1.037-1.032 0-.57-.466-1.033-1.037-1.033zm0 1.386a.355.355 0 01-.357-.353c0-.195.16-.354.357-.354.197 0 .358.159.358.354 0 .194-.16.353-.358.353zM18.236 17.964c-.571 0-1.036.464-1.036 1.033s.465 1.032 1.036 1.032c.572 0 1.037-.463 1.037-1.032 0-.57-.465-1.033-1.037-1.033zm0 1.386a.355.355 0 01-.357-.353c0-.195.16-.354.357-.354.197 0 .358.159.358.354 0 .194-.16.353-.358.353z" fill="#000"/>
</svg>
