<svg width="24" height="24" fill="none" xmlns="http://www.w3.org/2000/svg">
  <defs/>
  <g fill-rule="evenodd" clip-rule="evenodd">
    <path d="M4.48 16.064c2.293-.645 4.505-.583 6.633.193l.944-5.956-.944-6.542c-2.436-.786-4.863-.65-7.298 0-.312.009-.568.221-.568.493v6.315l-.522 5.592 1.755-.095z" fill="#E6E6E6"/>
    <path d="M12 10.637l.889 5.632c2.002-.81 4.195-.96 6.639-.228l2.785.067-1.558-5.496v-6.36c0-.272-.256-.484-.568-.493-2.665-.73-5.083-.684-7.298 0L12 10.637z" fill="#E6E6E6"/>
    <path d="M11.113 5.324v10.933l.057.02.801.4.918-.408V3.76h-1.776v1.565z" fill="gray"/>
    <path d="M19.438 16.27l.003-.006c0 .002-.001.003-.003.005zm-14.876 0c.058.136.114.286.163.443.08.248.148.52.2.802h14.15s.002-.002.002-.005c.052-.282.12-.554.2-.802.05-.156.104-.303.161-.439l.003-.005.001-.002a2.69 2.69 0 00.087-.22c-2.444-.732-4.637-.583-6.64.227l-1.719.008-.057-.02c-2.128-.776-4.34-.838-6.633-.193.02.056.046.122.08.201l.002.004z" fill="#A4A9AD"/>
    <path d="M4.988 6.267v.928c0 .29.239.529.529.529h3.192c.291 0 .53-.238.53-.529v-.928a.531.531 0 00-.53-.528H5.517a.53.53 0 00-.529.528zM14.825 7.195c0 .29.239.529.53.529h3.192a.53.53 0 00.528-.529v-.928a.53.53 0 00-.528-.528h-3.192a.531.531 0 00-.53.528v.928z" fill="#A2D6F2"/>
    <path d="M5.508 14.41c-.09.514-.48.874-.788 1.13-.256.21-.326.27-.24.524 2.293-.645 4.505-.583 6.633.193v-1.368h-.058l-.057-.02c-1.772-.647-3.602-.798-5.49-.458zM12.889 14.834v1.435c2.002-.81 4.195-.96 6.639-.228.076-.24.004-.3-.246-.507-.305-.252-.693-.61-.786-1.118-2.034-.436-3.89-.25-5.607.418z" fill="#C2C7CC"/>
    <path d="M18.497 13.948c-.134.764.393 1.261.785 1.586.314.259.348.29.16.728l-.004.007a6.04 6.04 0 00-.362 1.246c-.065.351-.104.72-.112 1.09l1.508.886c.198-.087 1.837-.883 1.864-.878.314-.814.58-1.662.721-2.525.128-.78.157-1.597 0-2.392-.08-.4-.206-.792-.392-1.173-1.026-2.113-1.853-2.171-1.91-1.96v2.914c-.003.475-.047.66-.547.33l-.605-.4c-.57-.377-1.013-.001-1.106.541z" fill="#FFDDA6"/>
    <path d="M18.236 18.828v1.736c0 .116.095.21.212.21h4.01a.212.212 0 00.212-.21v-1.75a.212.212 0 00-.212-.21H18.46c-.122 0-.223.1-.223.224z" fill="#50D960"/>
    <path d="M19.2 18.835v1.717c0 .122.1.223.223.223h-.963a.223.223 0 01-.224-.223v-1.717c0-.127.104-.23.232-.23h.962a.231.231 0 00-.23.23z" fill="#2BAD3B"/>
    <path d="M20.04 17.51a6.892 6.892 0 00-.112 1.095h-.964a6.915 6.915 0 01.312-1.897c.05-.157.107-.307.165-.444l.001-.002c.188-.438.154-.47-.16-.728-.392-.324-.919-.821-.785-1.586.093-.542.536-.918 1.106-.541l.079.052a.98.98 0 00-.222.49c-.133.764.393 1.26.786 1.585.304.251.345.288.175.69-.004.011-.01.021-.013.033l-.003.005v.002a5.97 5.97 0 00-.364 1.246z" fill="#FCC368"/>
    <path d="M1.337 12.528c-.987 2.026-.312 4.42.325 6.082l.004.008c.147-.031 1.2 1.055 1.373 1.198l1.999-1.206a6.874 6.874 0 00-.113-1.094 5.962 5.962 0 00-.364-1.247l-.001-.003c-.188-.437-.153-.468.16-.727.392-.324.919-.821.786-1.586-.094-.542-.538-.917-1.107-.541l-.605.4c-.5.33-.543.145-.547-.33v-2.915c-.057-.21-.884-.152-1.91 1.961z" fill="#FFDDA6"/>
    <path d="M1.332 18.832v1.725c0 .123.1.223.223.223h3.988c.123 0 .223-.1.223-.223V18.84a.232.232 0 00-.232-.23H1.555c-.123 0-.223.1-.223.223z" fill="#50D960"/>
    <path d="M4.802 18.84v1.717c0 .123-.1.223-.223.223h.963c.123 0 .223-.1.223-.223V18.84a.232.232 0 00-.231-.23H4.57a.232.232 0 01.232.23z" fill="#2BAD3B"/>
    <path d="M3.961 17.515c.065.353.105.724.113 1.095h.963a6.881 6.881 0 00-.313-1.897 4.843 4.843 0 00-.163-.444l-.002-.003c-.187-.436-.153-.468.16-.727.393-.324.92-.821.786-1.586-.094-.542-.537-.917-1.106-.541l-.079.052a.983.983 0 01.222.49c.133.764-.393 1.26-.786 1.585-.304.251-.345.288-.175.69l.013.033c0 .001 0 .002.002.003l.001.004c.151.353.28.784.364 1.246z" fill="#FCC368"/>
    <path d="M4.988 7.195c0 .29.239.529.529.529h3.192c.291 0 .53-.238.53-.529V6.33c0 .29-.239.53-.53.53H5.517a.53.53 0 01-.529-.53v.866zM14.825 7.195c0 .29.239.529.53.529h3.192a.53.53 0 00.528-.529V6.33a.53.53 0 01-.528.53h-3.192a.531.531 0 01-.53-.53v.866z" fill="#64B0D9"/>
  </g>
  <path d="M9.024 9.238H5.237a.34.34 0 000 .678h3.787a.34.34 0 100-.678zM9.024 10.716H5.237a.34.34 0 000 .679h3.787a.34.34 0 100-.68zM9.024 12.195H6.57a.34.34 0 000 .68h2.453a.34.34 0 000-.68zM19.165 11.055a.34.34 0 00-.34-.34h-3.787a.34.34 0 000 .68h3.787a.34.34 0 00.34-.34zM15.038 12.195a.34.34 0 000 .68h2.454a.34.34 0 100-.68h-2.454z" fill="#000"/>
  <path d="M22.786 18.374c.887-2.466.947-4.431.184-6-.815-1.676-1.475-2.126-1.876-2.216V4.25c0-.439-.372-.796-.853-.83a15.274 15.274 0 00-2.759-.49.34.34 0 00-.054.676c.866.07 1.764.231 2.669.479a.335.335 0 00.08.012c.14.004.238.084.238.153l-.001 9.285-.625-.413c-.332-.219-.683-.267-.99-.135-.326.142-.565.479-.638.902-.126.724.225 1.25.554 1.59l.002.001c-1.9-.411-3.74-.311-5.49.298V4.012c.845-.24 1.719-.385 2.6-.43a.34.34 0 10-.033-.677c-1.005.05-2 .223-2.957.514h-1.672c-2.261-.718-4.684-.717-7.404.002-.483.033-.855.391-.855.83v5.905c-.399.09-1.058.541-1.876 2.224-.764 1.568-.703 3.535.186 6.004a.561.561 0 00-.225.448v1.724c0 .31.253.563.563.563H5.54c.31 0 .563-.252.563-.563V18.84a.572.572 0 00-.571-.57H5.36a7.152 7.152 0 00-.041-.415h13.36a7.188 7.188 0 00-.041.41h-.18a.563.563 0 00-.563.562v1.737c0 .303.247.55.551.55h4.01a.551.551 0 00.552-.55v-1.75c0-.18-.088-.34-.223-.44zM1.641 12.677c.56-1.151 1.019-1.628 1.265-1.79v2.447c0 .432 0 .773.288.929.294.158.627-.063.787-.169l.605-.4c.094-.062.231-.126.345-.078.112.05.206.204.24.395.095.55-.265.933-.668 1.266-.346.286-.465.465-.359.842a.307.307 0 00.029.09c.02.059.045.121.074.19.228.531.383 1.21.434 1.87H1.897c-.864-2.342-.947-4.173-.256-5.592zm3.784 6.272v1.491H1.67v-1.482a.35.35 0 00.07-.009h3.685zm5.348-1.773H5.2a6.316 6.316 0 00-.264-.882c2.008-.497 3.968-.43 5.836.203v.679zm1.776 0h-1.097v-.561l1.097-.005v.566zm0-1.245l-1.097.005v-5.143a.34.34 0 10-.68 0v4.99c-1.78-.563-3.634-.648-5.53-.255.34-.336.73-.876.597-1.633-.073-.423-.312-.76-.64-.902-.305-.132-.656-.084-.988.136l-.605.4-.02.012v-2.924l-.002-.027.002-.023V4.251c0-.07.097-.15.238-.153a.34.34 0 00.077-.012c2.53-.674 4.78-.7 6.872-.077v5.236a.34.34 0 10.679 0V4.098h1.097V15.93zm.679 1.245V16.5c1.869-.707 3.787-.784 5.845-.236-.11.28-.202.589-.274.91h-5.571zm9.102 3.259h-3.755v-1.491h3.685a.33.33 0 00.07.008v1.483zm-.227-2.17H19.32c.05-.66.206-1.339.433-1.87.033-.076.06-.145.08-.208a.827.827 0 00.06-.311v-.002a.583.583 0 00-.02-.145l-.008-.023-.01-.029c-.068-.165-.21-.282-.356-.404h-.001c-.404-.334-.764-.718-.668-1.267.033-.191.127-.346.24-.395a.222.222 0 01.088-.017c.09 0 .185.049.257.096l.414.273.19.126c.16.106.491.326.785.17.285-.151.288-.5.29-.784v-.14V10.888c.247.16.707.635 1.265 1.784.691 1.42.608 3.251-.256 5.593z" fill="#000"/>
  <path d="M8.708 5.399H5.517a.87.87 0 00-.869.868v.928c0 .479.39.868.869.868h3.191c.48 0 .87-.39.87-.868v-.928a.87.87 0 00-.87-.868zm.19 1.796c0 .103-.087.19-.19.19H5.517a.192.192 0 01-.19-.19v-.928c0-.102.087-.189.19-.189h3.191c.103 0 .19.086.19.19v.927zM19.415 6.267a.869.869 0 00-.869-.868h-3.191a.87.87 0 00-.87.868v.928c0 .479.39.868.87.868h3.191a.87.87 0 00.869-.868v-.928zm-.68.928c0 .103-.086.19-.189.19h-3.191a.192.192 0 01-.19-.19v-.928c0-.102.087-.189.19-.189h3.191c.103 0 .19.086.19.19v.927zM18.825 9.238h-3.787a.34.34 0 100 .678h3.787a.34.34 0 100-.678z" fill="#000"/>
</svg>
