<svg width="24" height="24" fill="none" xmlns="http://www.w3.org/2000/svg">
  <defs/>
  <path d="M6.398 20.972a4.288 4.288 0 100-8.575 4.288 4.288 0 000 8.575z" fill="#CFDCE5"/>
  <path d="M4.09 18.268c0 .794.142 1.554.403 2.257a4.287 4.287 0 013.014-7.984 6.503 6.503 0 00-3.417 5.727z" fill="#E4EDF2"/>
  <path d="M17.613 20.972a4.287 4.287 0 100-8.575 4.287 4.287 0 000 8.575z" fill="#CFDCE5"/>
  <path d="M15.242 18.268c0 .794.142 1.554.402 2.257a4.287 4.287 0 013.014-7.984 6.503 6.503 0 00-3.416 5.727z" fill="#E4EDF2"/>
  <path d="M.896 10.657a.396.396 0 00.396-.396V4.085a.677.677 0 011.352 0 .396.396 0 10.792 0 1.47 1.47 0 00-1.468-1.468A1.47 1.47 0 00.5 4.085v6.176c0 .219.177.396.396.396zM22.032 2.617a1.47 1.47 0 00-1.468 1.468.396.396 0 00.792 0 .677.677 0 011.352 0V15.49c0 .315-.18.589-.443.724a4.661 4.661 0 00-1.248-2.725.396.396 0 10-.576.543 3.876 3.876 0 011.058 2.668 3.896 3.896 0 01-3.891 3.891 3.896 3.896 0 01-3.892-3.891 3.896 3.896 0 015.865-3.355.396.396 0 00.402-.682 4.68 4.68 0 00-2.375-.647 4.692 4.692 0 00-4.498 3.377 1.708 1.708 0 00-2.22 0 4.692 4.692 0 00-4.497-3.377 4.69 4.69 0 00-4.658 4.197.814.814 0 01-.443-.723v-3.909a.396.396 0 00-.792 0v3.91c0 .753.522 1.386 1.222 1.558a4.69 4.69 0 004.67 4.334c2.583 0 4.684-2.101 4.684-4.683a.925.925 0 011.848 0c0 2.582 2.101 4.683 4.684 4.683a4.69 4.69 0 004.67-4.334A1.608 1.608 0 0023.5 15.49V4.085a1.47 1.47 0 00-1.468-1.468zM6.392 20.591a3.896 3.896 0 01-3.89-3.892 3.896 3.896 0 013.89-3.89 3.896 3.896 0 013.892 3.89 3.896 3.896 0 01-3.891 3.892z" fill="#000"/>
</svg>
