<svg width="24" height="24" fill="none" xmlns="http://www.w3.org/2000/svg">
  <defs/>
  <path d="M19.408 8.315l-.045.046v14.738H4.626V8.36l-.046-.046L11.994.902l7.414 7.413z" fill="#CFDCE5"/>
  <path d="M18.603 7.51V1.555h-3.426v2.53" fill="#FF6F52"/>
  <path d="M11.995 11.877a4.123 4.123 0 00-4.123 4.122v7.1h8.245v-7.1a4.123 4.123 0 00-4.122-4.122z" fill="#BAC6CC"/>
  <path d="M22.705 11.039l-7.12-7.121V1.956h2.622v3.999a.402.402 0 00.803 0v-4.4a.402.402 0 00-.401-.402h-3.426a.401.401 0 00-.402.402v1.56L12.284.618a.402.402 0 00-.568 0L8.624 3.71a.402.402 0 10.568.568L12 1.469l6.967 6.968v14.26h-2.442v-3.431a.402.402 0 10-.803 0v3.43H8.279V16a3.725 3.725 0 013.722-3.72 3.725 3.725 0 013.72 3.72v1.928a.402.402 0 10.804 0v-1.928A4.53 4.53 0 0012 11.475 4.53 4.53 0 007.476 16v6.698H5.033V8.437L8.268 5.2a.402.402 0 10-.567-.568L1.295 11.04a.402.402 0 10.568.568L4.23 9.24v13.858c0 .222.18.402.402.402h14.737c.222 0 .402-.18.402-.402V9.24l2.366 2.367a.4.4 0 00.568 0 .402.402 0 000-.568z" fill="#000"/>
  <path d="M9.445 18.81a.402.402 0 100-.802.402.402 0 000 .803z" fill="#000"/>
</svg>
