<svg width="24" height="24" fill="none" xmlns="http://www.w3.org/2000/svg">
  <defs/>
  <path d="M14.014 16.45H1.81v3.545h12.203V16.45z" fill="#314A5F"/>
  <path d="M15.644 19.995h-1.63V7.79h4.251a4.166 4.166 0 014.166 4.166v8.038H20.43" fill="#FF6F52"/>
  <g fill="gray">
    <path d="M5.998 22.387a2.393 2.393 0 100-4.785 2.393 2.393 0 000 4.785zM18.036 22.388a2.393 2.393 0 100-4.785 2.393 2.393 0 000 4.785z"/>
  </g>
  <path d="M20.636 13.803v-1.846a2.374 2.374 0 00-2.372-2.371h-2.456v4.217h4.828z" fill="#CFDCE5"/>
  <g fill="#E6E6E6">
    <path d="M5.997 20.95a.955.955 0 100-1.91.955.955 0 000 1.91zM18.037 20.95a.955.955 0 100-1.91.955.955 0 000 1.91z"/>
  </g>
  <path d="M12.737 6.713l-.031.032v9.705H2.566V6.745l-.032-.032 5.102-5.1 5.101 5.1z" fill="#CFDCE5"/>
  <path d="M12.737 6.713l-.031.032H2.566l-.032-.032 5.102-5.1 5.101 5.1z" fill="#FCD577"/>
  <path d="M12.182 6.16V2.061H9.825v1.74" fill="#FF6F52"/>
  <path d="M9.357 9.333H5.884v4.014h3.473V9.333z" fill="#4EBFED"/>
  <path d="M18.27 9.207h-2.457c-.209 0-.378.17-.378.379v2.371a.379.379 0 00.757 0V9.965h2.078c1.1 0 1.993.893 1.993 1.992v1.467h-4.071v-.205a.379.379 0 00-.757 0v.584c0 .21.17.379.378.379h4.829c.209 0 .378-.17.378-.379v-1.846a2.753 2.753 0 00-2.75-2.75zM6.003 21.329c.736 0 1.334-.599 1.334-1.334 0-.736-.598-1.334-1.334-1.334-.736 0-1.334.598-1.334 1.334 0 .735.598 1.334 1.334 1.334zm0-1.911a.577.577 0 11-.001 1.155.577.577 0 01.001-1.155zM18.042 18.66a1.336 1.336 0 000 2.668c.736 0 1.334-.598 1.334-1.333 0-.736-.598-1.334-1.334-1.334zm0 1.911a.578.578 0 11.002-1.155.578.578 0 01-.002 1.155zM20.642 15.548c-.209 0-.378.17-.378.379v1.136a.379.379 0 10.757 0v-1.136c0-.21-.17-.379-.379-.379z" fill="#000"/>
  <path d="M23.121 18.545h-.306v-6.588a4.55 4.55 0 00-4.545-4.544H14.02c-.21 0-.379.17-.379.378v8.28h-.582V6.864a.379.379 0 00-.079-.418l-2.77-2.778V2.44h1.6v2.397a.379.379 0 10.758 0V2.062c0-.21-.17-.379-.379-.379H9.831c-.21 0-.379.17-.379.379v.846L7.894 1.345a.379.379 0 00-.537 0l-5.085 5.1a.379.379 0 00-.08.42v1.963a.379.379 0 10.758 0V7.092H12.3v8.98H2.95V10.09a.379.379 0 10-.758 0v5.98h-.376c-.21 0-.379.17-.379.379v2.095H.879a.379.379 0 000 .757h.558v.693c0 .209.17.378.379.378h1.442a2.775 2.775 0 002.745 2.393 2.775 2.775 0 002.771-2.771 2.775 2.775 0 00-2.771-2.772c-1.4 0-2.56 1.043-2.745 2.393H2.194v-.314h.379a.379.379 0 100-.757h-.379v-1.717H13.64v2.788H9.68a.379.379 0 100 .757h5.617a2.775 2.775 0 002.745 2.393c1.4 0 2.56-1.043 2.745-2.393h1.65c.209 0 .378-.17.378-.378v-.693h.306a.379.379 0 100-.757zM6.003 17.98c1.11 0 2.014.904 2.014 2.015 0 1.11-.903 2.014-2.014 2.014a2.016 2.016 0 01-2.014-2.014c0-1.111.903-2.015 2.014-2.015zM7.626 2.15l4.173 4.186H3.452l4.174-4.186zm10.416 19.86a2.016 2.016 0 01-2.014-2.014v-.001c0-1.11.903-2.014 2.014-2.014 1.11 0 2.014.904 2.014 2.015 0 1.11-.904 2.014-2.014 2.014zm4.016-2.393h-1.271a2.775 2.775 0 00-2.745-2.393c-1.4 0-2.56 1.043-2.745 2.393h-.9V8.17h3.873a3.792 3.792 0 013.788 3.787v6.588h-.631a.379.379 0 000 .757h.631v.314z" fill="#000"/>
  <path d="M9.362 13.726c.21 0 .379-.17.379-.38V9.334c0-.209-.17-.378-.379-.378H5.89c-.209 0-.378.17-.378.378v4.014c0 .209.17.379.378.379h3.473zM6.268 9.712h2.716v3.256H6.268V9.712z" fill="#000"/>
</svg>
