<svg width="24" height="24" fill="none" xmlns="http://www.w3.org/2000/svg">
  <defs/>
  <path d="M19.42 8.3l-.046.045v14.738H4.638V8.345L4.592 8.3 12.006.886 19.42 8.3z" fill="#CFDCE5"/>
  <path d="M18.614 7.495V1.539h-3.426v2.53" fill="#FF6F52"/>
  <path d="M22.705 11.039l-7.12-7.121V1.956h2.622v3.999a.402.402 0 00.803 0v-4.4a.401.401 0 00-.401-.402h-3.426a.402.402 0 00-.402.402v1.56L12.284.618a.402.402 0 00-.568 0L8.624 3.71a.402.402 0 10.568.568L12 1.469l6.967 6.968v14.26H5.033V8.437L8.268 5.2a.402.402 0 10-.567-.568L1.295 11.04a.402.402 0 00.568.568L4.23 9.24v13.858c0 .222.18.402.402.402h14.737c.222 0 .402-.18.402-.402V9.24l2.366 2.367a.4.4 0 10.568-.568z" fill="#000"/>
  <path d="M14.41 15.794a2.224 2.224 0 00-2.223 2.222c0 1.225.997 2.222 2.223 2.222a2.225 2.225 0 002.221-2.222 2.224 2.224 0 00-2.222-2.222zm0 3.641a1.42 1.42 0 01-1.42-1.419 1.42 1.42 0 011.42-1.419 1.42 1.42 0 011.418 1.42 1.42 1.42 0 01-1.418 1.418zM9.591 11.778a.402.402 0 100-.803 2.225 2.225 0 00-2.222 2.222c0 1.226.997 2.222 2.222 2.222a2.225 2.225 0 002.222-2.222c0-.593-.231-1.151-.65-1.57a.402.402 0 00-.569.567 1.42 1.42 0 01-1.003 2.422 1.42 1.42 0 01-1.419-1.419 1.42 1.42 0 011.42-1.418zM15.438 11.602l-7.442 7.442a.401.401 0 10.567.568l7.443-7.442a.402.402 0 10-.568-.568z" fill="#000"/>
</svg>
