<svg width="24" height="24" fill="none" xmlns="http://www.w3.org/2000/svg">
  <defs/>
  <path d="M21.998 8.764H2.06c-.616 0-1.115.498-1.115 1.114v9.771c0 .616.5 1.115 1.115 1.115h19.938c.615 0 1.114-.5 1.114-1.115V9.878c0-.616-.499-1.114-1.114-1.114z" fill="#FCD577"/>
  <path d="M12.029 5.403a1.083 1.083 0 100-2.167 1.083 1.083 0 000 2.167z" fill="#CFDCE5"/>
  <path d="M21.97 8.347h-7.088l-1.384-4.101A1.502 1.502 0 0012 2.82c-.802 0-1.46.633-1.498 1.425L9.118 8.348H2.03C1.187 8.347.5 9.034.5 9.877v9.772c0 .845.687 1.531 1.53 1.531h1.637a.417.417 0 100-.833H2.03a.698.698 0 01-.698-.698V9.878c0-.385.313-.698.698-.698H21.969c.385 0 .698.313.698.698v9.771a.698.698 0 01-.698.698H5a.417.417 0 100 .833h16.97c.843 0 1.53-.686 1.53-1.53V9.877c0-.844-.687-1.531-1.53-1.531zM12 3.653a.667.667 0 11-.002 1.335A.667.667 0 0112 3.653zm-1.016 1.77a1.494 1.494 0 002.032 0l.987 2.924H9.997l.987-2.925z" fill="#000"/>
  <path d="M12.81 16.794v-2.646l1.852 2.872a.417.417 0 00.767-.226v-4.06a.417.417 0 10-.833 0v2.645l-1.853-2.871a.417.417 0 00-.766.225v4.06a.417.417 0 10.833 0zM4.66 15.292h.22l.92 1.7a.416.416 0 10.733-.396l-.78-1.442a1.49 1.49 0 00.863-1.35 1.49 1.49 0 00-1.488-1.487h-.885a.417.417 0 00-.417.416v4.061a.417.417 0 10.834 0v-1.502zm0-2.142h.468a.655.655 0 01.001 1.309H4.66V13.15zM10.396 13.15a.417.417 0 100-.833H8.464a.417.417 0 00-.417.416v4.06c0 .231.186.418.417.418h1.932a.417.417 0 100-.834H8.88v-1.186h1.516a.417.417 0 100-.833H8.88V13.15h1.516zM18.254 15.653a.417.417 0 00-.417.417v.724a.417.417 0 10.833 0v-.724a.417.417 0 00-.416-.417zM18.671 13.15h1.086a.417.417 0 100-.833h-3.005a.417.417 0 100 .833h1.086v1.808a.417.417 0 10.833 0V13.15z" fill="#000"/>
</svg>
