<svg width="24" height="24" fill="none" xmlns="http://www.w3.org/2000/svg">
  <defs/>
  <path d="M15.897 6.572h5.987v16.096H2.127V6.572h5.988" fill="#CFDCE5"/>
  <path d="M8.551 6.572H.917L3.237 1.3h17.538l2.32 5.272H15.46" fill="#FCD577"/>
  <path d="M17.735 8.848l-5.73-5.73-5.73 5.73" fill="#CFDCE5"/>
  <g fill="#fff">
    <path d="M13.207 20.798H6.955v1.87h10.101v-1.87h-2.461M15.872 20.798v-1.87H8.14v1.87"/>
  </g>
  <path d="M14.336 10.687H9.675v8.242h4.661v-8.242z" fill="#BAC6CC"/>
  <g fill="#FCD577">
    <path d="M19.886 11.934H16.39v4.829h3.496v-4.829zM7.621 11.935H4.125v4.829h3.496v-4.829z"/>
  </g>
  <path d="M23.465 6.423l-2.32-5.272a.411.411 0 00-.376-.246H3.231a.411.411 0 00-.377.246L.534 6.423A.411.411 0 00.912 7h.798v15.684c0 .227.185.411.412.411h19.758a.411.411 0 00.412-.411v-11.51a.411.411 0 00-.823 0v11.098h-4.006v-1.458a.411.411 0 00-.411-.411h-.773v-1.459a.411.411 0 00-.411-.411h-1.125v-7.83a.411.411 0 00-.411-.412H9.669a.411.411 0 00-.411.412v4.911a.411.411 0 00.822 0v-4.5h3.84v7.419h-3.84v-1.531a.411.411 0 00-.822 0v1.531H8.133a.411.411 0 00-.411.411v1.459h-.773a.411.411 0 00-.411.411v1.458H2.532V7h5.02L5.98 8.573a.411.411 0 10.582.582L12 3.715l5.439 5.44a.41.41 0 00.581 0 .411.411 0 000-.582L16.447 7h5.02v2.787a.411.411 0 00.823 0V7h.799a.411.411 0 00.376-.577zM7.361 21.225h5.84a.411.411 0 000-.822H8.545v-1.047h6.91v1.047h-.866a.411.411 0 000 .822h2.05v1.047H7.362v-1.047zm8.264-15.048L12.29 2.843a.411.411 0 00-.582 0L8.375 6.177H1.542l1.957-4.45h17.002l1.957 4.45h-6.833z" fill="#000"/>
  <path d="M16.384 11.54a.411.411 0 00-.411.412v4.828c0 .227.184.411.411.411h3.496a.411.411 0 00.412-.411V11.95a.411.411 0 00-.412-.41h-3.496zm3.085 4.829h-2.674v-2.091h1.698a.411.411 0 000-.823h-1.698v-1.092h2.674v4.006zM4.12 11.54a.411.411 0 00-.412.412v4.828c0 .227.184.411.411.411h3.497a.411.411 0 00.411-.411V11.95a.411.411 0 00-.411-.41H4.119zm3.084.823v1.092H4.531v-1.092h2.673zm-2.673 4.006v-2.091h2.673v2.09H4.531zM10.815 15.443a.411.411 0 100-.822.411.411 0 000 .822z" fill="#000"/>
</svg>
