<svg width="24" height="24" fill="none" xmlns="http://www.w3.org/2000/svg">
  <defs/>
  <path d="M3.474 4.559H1.745V20.97h1.73V4.559z" fill="#D6D6D6"/>
  <path d="M2.61 5.903a1.672 1.672 0 100-3.343 1.672 1.672 0 000 3.343z" fill="#F43B45"/>
  <path d="M22.255 4.559h-1.73V20.97h1.73V4.559z" fill="#D6D6D6"/>
  <path d="M21.39 5.903a1.672 1.672 0 100-3.344 1.672 1.672 0 000 3.344zM14.946 18.216H9.054a.446.446 0 00-.356.177l-1.732 2.286a.446.446 0 00.356.716h9.356a.446.446 0 00.356-.716l-1.732-2.286a.446.446 0 00-.356-.177z" fill="#F43B45"/>
  <path d="M17.034 20.68l-1.732-2.287a.447.447 0 00-.356-.177h-2.414l2.409 3.18h1.737a.446.446 0 00.356-.717z" fill="#D82B2B"/>
  <path d="M3.723 21.44H1.496a.66.66 0 110-1.319h2.226a.66.66 0 010 1.32zM22.504 21.44h-2.226a.66.66 0 110-1.319h2.226a.66.66 0 110 1.32z" fill="#345863"/>
  <g fill="#000">
    <path d="M2.61 6.24A2.01 2.01 0 004.62 4.23 2.01 2.01 0 002.61 2.223 2.01 2.01 0 00.602 4.23 2.01 2.01 0 002.61 6.24zm0-3.344c.736 0 1.335.6 1.335 1.335 0 .736-.599 1.335-1.335 1.335A1.336 1.336 0 011.275 4.23c0-.736.6-1.335 1.335-1.335zM21.39 6.24A2.01 2.01 0 0023.4 4.23a2.01 2.01 0 00-2.009-2.008 2.01 2.01 0 00-2.008 2.008A2.01 2.01 0 0021.39 6.24zm0-3.344c.736 0 1.335.6 1.335 1.335 0 .736-.599 1.335-1.335 1.335a1.336 1.336 0 01-1.334-1.335c0-.736.598-1.335 1.334-1.335zM15.57 18.19a.788.788 0 00-.624-.31H9.054a.787.787 0 00-.624.31l-1.732 2.286a.779.779 0 00-.077.822.779.779 0 00.701.434h9.356c.3 0 .568-.166.702-.434a.78.78 0 00-.077-.822l-1.732-2.287zm1.206 2.808a.105.105 0 01-.098.06H7.322a.105.105 0 01-.098-.06.105.105 0 01.01-.115l1.733-2.287a.11.11 0 01.087-.043h5.892a.11.11 0 01.087.043l1.732 2.287a.105.105 0 01.011.115z"/>
    <path d="M22.592 19.788V7.064a.337.337 0 10-.674 0v12.72h-1.055V7.065a.337.337 0 10-.674 0v1.049c-2.096 1.253-5.066 1.97-8.189 1.97-3.122 0-6.093-.717-8.189-1.97V7.064a.337.337 0 10-.673 0v12.72H2.082V7.065a.337.337 0 10-.673 0v12.724a.998.998 0 00.088 1.99h2.226a.998.998 0 00.088-1.99V8.89c2.171 1.191 5.115 1.867 8.19 1.867 3.073 0 6.017-.676 8.188-1.867v10.9a.998.998 0 00.088 1.99h2.227a.998.998 0 00.088-1.99zm-18.547.993a.323.323 0 01-.323.323H1.497a.323.323 0 010-.646h2.225c.178 0 .323.145.323.323zm18.458.323h-2.226a.323.323 0 010-.646h2.226a.323.323 0 010 .646z"/>
  </g>
</svg>
