<svg width="24" height="24" fill="none" xmlns="http://www.w3.org/2000/svg">
  <defs/>
  <path d="M20.283 23.044H3.486l2.796-4.528c.205-.331.567-.533.957-.533h9.292c.39 0 .752.202.956.533l2.796 4.528z" fill="#FD5426"/>
  <path d="M17.487 18.516a1.124 1.124 0 00-.956-.533h-1.364c.39 0 .752.202.956.533l2.796 4.528h1.364l-2.796-4.528z" fill="#EF4424"/>
  <path d="M3.583 9.643H2.476V5.737c0-.302.245-.548.548-.548h.01c.304 0 .549.246.549.548v3.906z" fill="#678D98"/>
  <path d="M4.195 21.676H1.862V8.096c0-.252.205-.457.457-.457h1.42c.252 0 .456.205.456.457v13.58z" fill="#A8D3D8"/>
  <path d="M3.739 7.64H2.375c.252 0 .457.204.457.456v13.58h1.363V8.096a.457.457 0 00-.456-.457z" fill="#8EBAC5"/>
  <path d="M5.197 23.044H.86v-.167c0-.795.645-1.44 1.44-1.44h1.458c.795 0 1.44.645 1.44 1.44v.167z" fill="#A8D3D8"/>
  <path d="M3.758 21.438H2.395c.794 0 1.439.644 1.439 1.439v.167h1.364v-.167a1.44 1.44 0 00-1.44-1.44z" fill="#8EBAC5"/>
  <path d="M3.029 5.331a2.188 2.188 0 100-4.375 2.188 2.188 0 000 4.375z" fill="#DEECF1"/>
  <path d="M3.029.956c-.239 0-.468.038-.682.109a2.188 2.188 0 010 4.157A2.188 2.188 0 103.029.955z" fill="#A8D3D8"/>
  <path d="M15.845 6.457a4.117 4.117 0 01-8.232 0H5.075a6.655 6.655 0 0013.309 0h-2.539z" fill="#FBC56D"/>
  <path d="M17.02 6.457a6.655 6.655 0 01-5.973 6.562 6.655 6.655 0 007.336-6.562h-1.364z" fill="#E9B665"/>
  <path d="M21.525 9.643h-1.107V5.737c0-.302.245-.548.548-.548h.011c.303 0 .548.246.548.548v3.906z" fill="#678D98"/>
  <path d="M22.137 21.676h-2.332V8.096c0-.252.204-.457.456-.457h1.42c.252 0 .456.205.456.457v13.58z" fill="#A8D3D8"/>
  <path d="M21.681 7.64h-1.364c.253 0 .457.204.457.456v13.58h1.364V8.096a.457.457 0 00-.457-.457z" fill="#8EBAC5"/>
  <path d="M23.14 23.044h-4.337v-.167c0-.795.644-1.44 1.44-1.44H21.7c.795 0 1.44.645 1.44 1.44v.167z" fill="#A8D3D8"/>
  <path d="M21.7 21.438h-1.364c.795 0 1.44.644 1.44 1.439v.167h1.363v-.167a1.44 1.44 0 00-1.44-1.44z" fill="#8EBAC5"/>
  <path d="M20.971 5.331a2.188 2.188 0 100-4.375 2.188 2.188 0 000 4.375z" fill="#DEECF1"/>
  <path d="M20.971.956c-.238 0-.467.038-.682.109a2.188 2.188 0 010 4.157 2.188 2.188 0 10.682-4.267z" fill="#A8D3D8"/>
  <path d="M22.479 21.276V8.096a.798.798 0 00-.613-.775v-.523h.227a.34.34 0 000-.682h-.227v-.379a.891.891 0 00-.028-.218A2.533 2.533 0 0023.5 3.144a2.532 2.532 0 00-2.529-2.53 2.532 2.532 0 00-2.529 2.53c0 1.09.693 2.02 1.662 2.375a.891.891 0 00-.027.218v.379h-4.232a.34.34 0 00-.34.336 3.753 3.753 0 01-1.124 2.634 3.753 3.753 0 01-2.652 1.089c-1 0-1.941-.387-2.652-1.089a3.753 3.753 0 01-1.123-2.634.34.34 0 00-.341-.336h-3.69v-.379a.891.891 0 00-.027-.218 2.533 2.533 0 001.662-2.375 2.532 2.532 0 00-2.53-2.53A2.532 2.532 0 00.5 3.145c0 1.09.693 2.02 1.662 2.375a.886.886 0 00-.028.218v.379h-.367a.34.34 0 100 .682h.367v.523a.798.798 0 00-.613.775v3.822a.341.341 0 10.682 0V8.096c0-.064.052-.116.116-.116h1.42c.063 0 .115.052.115.116v13.003a1.71 1.71 0 00-.096-.002H2.3c-.033 0-.065 0-.097.002v-7.817a.34.34 0 10-.681 0v7.994a1.783 1.783 0 00-1.003 1.601v.167c0 .189.153.341.341.341h4.337a.342.342 0 00.043-.003.342.342 0 00.044.003H23.14a.34.34 0 00.34-.34v-.168c0-.703-.409-1.311-1.002-1.6zm-.779-.18h-1.458l-.096.003V8.096c0-.064.052-.116.115-.116h1.42c.064 0 .116.052.116.116v13.003a1.816 1.816 0 00-.097-.002zm-.516-13.798h-.425v-.5h.425v.5zm-2.06-4.154c0-1.019.829-1.847 1.847-1.847 1.019 0 1.847.828 1.847 1.847a1.849 1.849 0 01-1.847 1.846 1.849 1.849 0 01-1.847-1.846zm1.635 2.593c0-.025.004-.05.013-.073a2.535 2.535 0 00.399 0 .205.205 0 01.013.073v.379h-.425v-.379zm-13.47 1.06a4.428 4.428 0 001.308 2.775 4.43 4.43 0 003.132 1.285 4.43 4.43 0 003.131-1.285 4.428 4.428 0 001.309-2.774h1.86a6.27 6.27 0 01-1.854 4.084 6.274 6.274 0 01-4.446 1.83 6.274 6.274 0 01-4.446-1.83 6.27 6.27 0 01-1.855-4.084h1.86zm-2.544 0a6.949 6.949 0 002.057 4.569 6.952 6.952 0 004.927 2.029c1.858 0 3.607-.72 4.926-2.03a6.949 6.949 0 002.058-4.567h1.364v.523a.798.798 0 00-.613.775v12.972l-1.686-2.73a1.456 1.456 0 00-1.247-.696h-4.395a.34.34 0 100 .682h4.395c.274 0 .523.139.666.371l1.799 2.913c-.29.285-.484.668-.526 1.095H5.53a1.78 1.78 0 00-.675-1.226l1.718-2.782a.778.778 0 01.666-.371h3.533a.341.341 0 000-.682H7.239c-.512 0-.978.26-1.247.695l-1.456 2.359v-12.6a.798.798 0 00-.613-.775v-.523h.822zM1.182 3.145c0-1.019.828-1.847 1.847-1.847 1.018 0 1.847.828 1.847 1.847A1.849 1.849 0 013.029 4.99a1.849 1.849 0 01-1.847-1.846zm1.634 2.593c0-.025.005-.05.014-.073a2.541 2.541 0 00.398 0 .206.206 0 01.013.073v.379h-.425v-.379zm.425 1.06v.501h-.425v-.5h.425zM1.216 22.704A1.1 1.1 0 012.3 21.78h1.458a1.1 1.1 0 011.085.924H1.215zm17.942 0a1.1 1.1 0 011.085-.924H21.7a1.1 1.1 0 011.085.924h-3.628z" fill="#000"/>
</svg>
