<svg width="24" height="24" fill="none" xmlns="http://www.w3.org/2000/svg">
  <defs/>
  <g fill="#BAC6CC">
    <path d="M4.148 16.825l-.494 2.448h1.071L6.4 17.566M19.861 16.825l.494 2.448h-1.07l-1.676-1.707"/>
  </g>
  <path d="M22.053 10.979v1.571a5.012 5.012 0 01-5.016 5.016H6.974a4.978 4.978 0 01-2.805-.857 5.011 5.011 0 01-2.211-4.159V10.98" fill="#CFDCE5"/>
  <path d="M22.053 12.098v-1.12H1.958v1.572a5.011 5.011 0 005.016 5.016h1.884a4.978 4.978 0 01-2.805-.857 5.011 5.011 0 01-2.212-4.159v-.452h18.212z" fill="#BAC6CC"/>
  <path d="M1.67 9.413a.783.783 0 000 1.566H22.34a.783.783 0 100-1.566H3.275" fill="#CFDCE5"/>
  <path d="M3.826 10.196c0-.432.35-.783.783-.783H1.67a.783.783 0 000 1.566h2.939a.78.78 0 01-.783-.783z" fill="#BAC6CC"/>
  <path d="M1.958 8.083v-1.39c0-1.1.895-1.996 1.995-1.996s1.995.895 1.995 1.996v1.08H4.63v-1.08a.678.678 0 00-1.355 0v1.445" fill="#CFDCE5"/>
  <path d="M1.67 9.413h-.46V8.138h2.066v1.275H1.67z" fill="#4EBFED"/>
  <path d="M23.5 10.21c0-.31-.121-.603-.341-.823a1.157 1.157 0 00-.824-.341h-5.953a.382.382 0 100 .763h5.953c.107 0 .208.042.284.118a.402.402 0 01-.284.685H1.665a.398.398 0 01-.402-.402c0-.22.18-.4.402-.4h13.444a.382.382 0 100-.764H3.652V6.707a.296.296 0 01.591 0v1.08c0 .21.171.382.382.382h1.318c.21 0 .381-.171.381-.382v-1.08A2.38 2.38 0 003.947 4.33a2.38 2.38 0 00-2.376 2.377v1.064h-.365c-.211 0-.382.171-.382.382v1.253a1.16 1.16 0 00.017 1.628c.198.198.454.315.73.337v1.194c0 .456.057.91.17 1.349a.382.382 0 00.74-.19 4.652 4.652 0 01-.147-1.16v-1.189h19.332v1.19a4.62 4.62 0 01-2.137 3.904 4.567 4.567 0 01-2.498.73H6.97a4.645 4.645 0 01-2.591-.791 4.685 4.685 0 01-1.416-1.513.382.382 0 10-.66.385c.365.625.86 1.179 1.442 1.613l-.469 2.32a.382.382 0 00.375.457h1.07c.103 0 .201-.041.273-.115l1.578-1.608c.132.01.265.015.398.015H17.03c.133 0 .266-.005.398-.015l1.578 1.608c.072.074.17.115.273.115h1.07a.382.382 0 00.374-.458l-.468-2.319a5.376 5.376 0 002.173-4.328V11.37a1.166 1.166 0 001.071-1.16zM1.587 9.046v-.511H2.89v.51H1.587zm.747-2.339c0-.89.724-1.613 1.613-1.613.89 0 1.614.724 1.614 1.613v.698h-.554v-.698a1.06 1.06 0 00-2.118 0v1.064h-.555V6.707zm2.226 12.2h-.444l.318-1.576c.384.204.792.36 1.213.467L4.56 18.906zm14.88 0l-1.088-1.109c.422-.106.83-.263 1.214-.467l.318 1.575h-.444z" fill="#000"/>
</svg>
