<svg width="24" height="24" fill="none" xmlns="http://www.w3.org/2000/svg">
  <defs/>
  <g fill="#FF6F52">
    <path d="M21.407 13.165H2.602V22.3h18.805v-9.136zM19.003 5.793c.847 0 1.989-.99 1.989-.99h-.103c-1.653-.046-3.057-1.23-3.432-2.842l-.068-.29H6.62l-.067.29C6.178 3.572 4.774 4.757 3.12 4.802l-.102.002s1.142.989 1.988.989"/>
    <path d="M23.122 9.48s-1.446 1.253-2.518 1.253H3.405C2.335 10.733.888 9.48.888 9.48c.35 0 .694-.039 1.025-.105a3.715 3.715 0 002.402-1.63 3.8 3.8 0 00.614-1.953H19.08c.024.714.245 1.385.615 1.952a3.73 3.73 0 002.401 1.631c.33.066.676.105 1.026.105z"/>
  </g>
  <path d="M19.696 7.743H4.316a3.8 3.8 0 00.614-1.951H19.08c.024.713.245 1.384.615 1.951z" fill="#E25749"/>
  <path d="M12.102 15.3h-.194c-.968 0-1.752.785-1.752 1.752V22.3h3.697v-5.248c0-.967-.784-1.751-1.751-1.751z" fill="#314A5F"/>
  <path d="M20.605 10.733H3.405v2.431h17.199v-2.431z" fill="#FCD577"/>
  <path d="M20.605 10.733H3.405v1.215h17.199v-1.215z" fill="#EAC36E"/>
  <path d="M23.368 9.784a.383.383 0 00-.25-.672 4.91 4.91 0 01-.952-.098 3.356 3.356 0 01-1.91-1.134 3.441 3.441 0 01-.77-1.762c.826-.227 1.645-.918 1.752-1.011a.383.383 0 00-.25-.672l-.093-.001c-1.468-.04-2.73-1.087-3.07-2.546l-.068-.29a.383.383 0 00-.373-.296h-2.749a.383.383 0 100 .766h2.446a4.052 4.052 0 002.893 3.001c-.39.23-.733.355-.975.355H5c-.287 0-.65-.161-.976-.354A4.051 4.051 0 006.92 2.068h6.37a.383.383 0 000-.766H6.615a.383.383 0 00-.372.296l-.068.29c-.34 1.459-1.602 2.506-3.07 2.546l-.092.001a.383.383 0 00-.25.672c.106.093.925.785 1.752 1.01a3.441 3.441 0 01-.77 1.763 3.355 3.355 0 01-1.911 1.135 4.909 4.909 0 01-.951.097.383.383 0 00-.25.672c.141.123 1.298 1.1 2.385 1.307v1.705h-.42a.383.383 0 00-.384.383v9.136c0 .211.172.383.383.383h18.806a.383.383 0 00.383-.383v-5.698a.383.383 0 00-.766 0v.176h-6.807a2.137 2.137 0 00-2.116-1.86h-.194a2.137 2.137 0 00-2.116 1.86h-4.28a.383.383 0 000 .766H9.77v4.373h-6.79v-4.373h1.182a.383.383 0 100-.766H2.98v-3.231H21.02v1.709a.383.383 0 10.765 0v-2.092a.383.383 0 00-.382-.383h-.421v-1.705c1.087-.206 2.244-1.184 2.386-1.307zM21.02 21.932h-6.789v-4.373h6.789v4.373zm-10.486-4.865a1.37 1.37 0 011.369-1.369h.194a1.37 1.37 0 011.369 1.369v4.865h-2.932v-4.865zM1.983 9.765A4.123 4.123 0 004.33 8.372a4.211 4.211 0 00.948-2.183h13.444c.099.8.429 1.564.947 2.183a4.123 4.123 0 002.418 1.407c-.473.3-1.043.586-1.488.586H3.401c-.443 0-1.014-.285-1.487-.586l.069-.014zm1.8 3.031V11.13h16.433v1.666H3.783z" fill="#000"/>
</svg>
