<svg width="24" height="24" fill="none" xmlns="http://www.w3.org/2000/svg">
  <defs/>
  <path d="M21.393 23.113c-1.88 0-1.88-.516-3.76-.516s-1.88.516-3.76.516-1.88-.516-3.76-.516-1.88.516-3.759.516c-1.88 0-1.88-.516-3.76-.516v-1.81c1.88 0 1.88.516 3.76.516s1.88-.515 3.76-.515 1.88.515 3.76.515 1.88-.515 3.76-.515 1.88.515 3.76.515" fill="#4EBFED"/>
  <path d="M4.877 14.98v1.79H19.11V8.182H4.877v5.507" fill="#CFDCE5"/>
  <path d="M4.877 9.031v.224H19.11V8.182H4.877v.688" fill="#BAC6CC"/>
  <g fill="#FCD577">
    <path d="M5.959 21.295V16.77h1.16v4.5M16.867 20.823v-4.054h1.16v4.027M22.205 8.182H1.782L11.994.887l10.211 7.295z"/>
  </g>
  <path d="M6.057 8.182L11.994.887 1.782 8.182h4.275z" fill="#EAC36E"/>
  <g fill="#415E72">
    <path d="M13.954 10.801h-3.92v5.967h3.92v-5.967zM6.573 10.183H4.877v3.507h1.696v-3.507zM19.112 10.182h-1.696v3.507h1.696v-3.507z"/>
  </g>
  <g fill="#FCD577">
    <path d="M6.573 13.69H3.994v1.29h2.579v-1.29zM19.995 13.69h-2.579v1.29h2.579v-1.29z"/>
  </g>
  <path d="M22.436 7.868L16.92 3.927a.387.387 0 00-.45.63l4.534 3.239H2.995L12 1.362l3.397 2.427a.387.387 0 00.45-.63L12.224.573a.387.387 0 00-.45 0L1.563 7.868a.387.387 0 00.225.701h2.708v4.734h-.497a.387.387 0 00-.386.387v1.29c0 .213.173.386.386.386h.497v1.403c0 .214.173.387.386.387h.697v3.722a5.863 5.863 0 01-.996-.205c-.487-.134-.99-.272-1.983-.272a.387.387 0 100 .774c.888 0 1.32.118 1.778.244.487.133.99.271 1.982.271.826 0 1.317-.097 1.726-.203a.387.387 0 10-.193-.749c-.124.032-.248.061-.38.086v-3.668h2.63v3.245h-.024c-.3 0-.569.012-.82.038a.387.387 0 10.078.77c.225-.023.468-.034.742-.034.888 0 1.32.118 1.778.244.487.133.99.271 1.982.271s1.496-.138 1.982-.271c.458-.126.89-.244 1.778-.244s1.32.118 1.778.244c.487.133.99.271 1.982.271a.387.387 0 100-.773 5.73 5.73 0 01-1.778-.244 6.454 6.454 0 00-1.2-.238v-3.279h.696a.387.387 0 00.387-.387v-1.402H20a.387.387 0 00.387-.387v-1.29a.387.387 0 00-.387-.387h-.496V8.57h2.707a.387.387 0 00.225-.701zM6.191 13.303H5.27V10.57h.922v2.733zm-1.805.774H6.191v.516H4.386v-.516zm2.353 6.832a8.547 8.547 0 01-.38.008h-.007v-3.76h.387v3.752zm4.178-2.345h2.166v.733h-2.166v-.733zm2.166-1.408v.635h-2.166v-.635h2.166zm-2.166 3.28v-.366h2.166v.806a5.897 5.897 0 01-.981-.203 6.446 6.446 0 00-1.185-.236zm6.73-.035h-.008c-.992 0-1.495.138-1.982.272a5.73 5.73 0 01-1.778.244h-.022v-3.76h2.63v2.67a.387.387 0 10.773 0v-2.67h.387V20.4zm1.966-5.808h-1.805v-.516h1.805v.516zm-1.805-1.29V10.57h.922v2.733h-.922zm.922-3.507h-1.309a.387.387 0 00-.386.387v4.797c0 .213.173.386.386.386h1.31v1.017h-2.347v-4.756a.387.387 0 00-.774 0v4.755h-1.263v-3.517a.387.387 0 10-.774 0v3.518h-3.146v-5.194h3.146v.541a.387.387 0 00.774 0v-.928a.387.387 0 00-.387-.387h-3.92a.387.387 0 00-.387.387v5.58H8.389v-2.434a.387.387 0 10-.773 0v2.434H5.269v-1.016h1.31a.387.387 0 00.386-.386v-4.797a.387.387 0 00-.387-.387H5.27V8.57h2.347v4.09a.387.387 0 00.773 0v-4.09h1.225v.583a.387.387 0 10.774 0v-.583h1.225v1.253a.387.387 0 10.774 0V8.569h1.224v.583a.387.387 0 00.774 0v-.583h1.225v1.769a.387.387 0 10.774 0V8.569h2.346v1.227zM21.399 22.726c-.888 0-1.32-.118-1.778-.244-.486-.133-.99-.271-1.982-.271-.537 0-.983.04-1.405.127a.387.387 0 00.157.758 6.07 6.07 0 011.248-.112c.888 0 1.32.119 1.778.244.486.134.99.272 1.982.272a.387.387 0 000-.774zM14.95 22.648a6.363 6.363 0 01-1.07.078c-.888 0-1.32-.118-1.778-.244-.487-.133-.99-.271-1.982-.271s-1.496.138-1.982.271a5.73 5.73 0 01-1.778.244c-.888 0-1.32-.118-1.777-.244-.487-.133-.99-.271-1.982-.271a.387.387 0 100 .773c.887 0 1.32.119 1.777.244.487.134.99.272 1.982.272s1.496-.138 1.982-.272c.458-.125.89-.244 1.778-.244s1.32.119 1.777.244c.487.134.99.272 1.982.272.451 0 .843-.03 1.199-.089a.387.387 0 10-.129-.763z" fill="#000"/>
</svg>
