<svg width="24" height="24" fill="none" xmlns="http://www.w3.org/2000/svg">
  <defs/>
  <path d="M11.917 4.728H8.53v1.71h3.388v-1.71z" fill="#BAC6CC"/>
  <g fill="#CFDCE5">
    <path d="M11.918 12.002v9.415a1.694 1.694 0 11-3.388 0v-9.415h3.388zm-1.082 9.335a.612.612 0 10-1.224 0 .612.612 0 001.224 0zM16.153 3.234v1.494H8.53V3.213c0-1.75 1.845-2.887 3.408-2.1l4.215 2.12z"/>
  </g>
  <path d="M15.903 6.439v1.494L13.585 9.1c-.61.307-.995.932-.995 1.615v1.287H7.857V6.44h8.046z" fill="#415E72"/>
  <path d="M16.315 2.914l-2.001-1.007a.374.374 0 00-.336.668l1.796.903v.891H8.898V3.228c0-.692.352-1.321.94-1.684a1.964 1.964 0 011.927-.083l1.058.533a.374.374 0 10.336-.668L12.101.794a2.707 2.707 0 00-2.654.114 2.707 2.707 0 00-1.296 2.32v2.851h-.299a.374.374 0 00-.373.374v5.563c0 .207.167.374.373.374h3.687v4.505a.374.374 0 10.747 0V12.39h.3a.374.374 0 00.373-.374V10.73c0-.545.302-1.036.789-1.28l2.318-1.168a.374.374 0 00.206-.333V6.453a.374.374 0 00-.374-.374h-3.612v-.963h3.861a.374.374 0 00.374-.373V3.248c0-.14-.08-.27-.206-.334zm-.79 4.804L13.412 8.78a2.17 2.17 0 00-1.2 1.948v.914H8.225V6.827h7.298v.89zM8.898 6.08v-.963h2.64v.963h-2.64z" fill="#000"/>
  <path d="M11.913 17.767a.374.374 0 00-.374.374v3.292a1.322 1.322 0 01-2.254.933 1.31 1.31 0 01-.386-.933v-8.238a.374.374 0 00-.748 0v8.238c0 .552.216 1.072.606 1.461.39.39.91.606 1.462.606a2.07 2.07 0 002.067-2.067V18.14a.374.374 0 00-.373-.374zM10.954 7.657h-1.47a.374.374 0 100 .748h1.47a.374.374 0 100-.748zM10.954 8.75h-1.47a.374.374 0 100 .748h1.47a.374.374 0 100-.748z" fill="#000"/>
  <path d="M10.219 22.337a.987.987 0 000-1.97.987.987 0 000 1.97zm0-1.223a.238.238 0 110 .476.238.238 0 010-.476z" fill="#000"/>
</svg>
