<svg width="24" height="24" fill="none" xmlns="http://www.w3.org/2000/svg">
  <defs/>
  <path d="M15.838.837c-3.278 0-5.935 2.154-5.935 4.81 0 1.058.42 2.035 1.134 2.829 0 0-.08.897-.83 1.698a.19.19 0 00.135.318c.572.012 1.594-.076 2.38-.75l-.016-.008c.91.459 1.982.724 3.132.724 3.278 0 5.935-2.153 5.935-4.81 0-2.657-2.657-4.81-5.935-4.81z" fill="#EFE7E4"/>
  <path d="M15.838.837c-.152 0-.302.005-.45.014 3.067.186 5.485 2.263 5.485 4.797 0 2.533-2.417 4.61-5.483 4.796.148.01.297.014.447.014 3.278 0 5.935-2.153 5.935-4.81 0-2.657-2.657-4.81-5.934-4.81z" fill="#D8D1D0"/>
  <path d="M19.111 5.962v-.001a3.257 3.257 0 00-5.024-2.737l1.744 2.737 3.28.001z" fill="#F7CB4F"/>
  <path d="M15.854 2.703c-.153 0-.304.011-.452.032a3.257 3.257 0 012.81 3.226l.9.001v-.001a3.257 3.257 0 00-3.258-3.258z" fill="#FFAE47"/>
  <path d="M15.832 5.96l-1.517-2.379a2.831 2.831 0 00-.195 4.62l1.712-2.24z" fill="#F2464F"/>
  <path d="M15.432 5.335l-1.82 2.358c.147.19.317.362.507.509l1.712-2.241-.4-.626z" fill="#D3333C"/>
  <path d="M15.83 5.96l-1.422 1.864a2.358 2.358 0 003.803-1.862l-2.38-.001z" fill="#FF6137"/>
  <path d="M15.831 5.96v.001h1.481a2.358 2.358 0 01-1.908 2.314 2.358 2.358 0 002.808-2.314h-2.38z" fill="#E04F32"/>
  <path d="M15.29 17.745c-1.437.02-2.777.783-3.55 1.92.286.594.448 1.25.448 1.939v1.559h7.334v-1.325c0-2.234-2-4.062-4.233-4.093z" fill="#68B9D8"/>
  <path d="M15.289 17.745c-.151.002-.3.013-.45.031 2.046.25 3.783 1.98 3.783 4.062v1.325h.9v-1.325c0-2.234-2-4.062-4.233-4.093z" fill="#3695B2"/>
  <path d="M7.207 23.163h-4.98v-1.56c0-2.628 2.352-4.78 4.98-4.815 2.628.036 4.98 2.187 4.98 4.816v1.559h-4.98z" fill="#68B9D8"/>
  <path d="M7.208 16.788a4.904 4.904 0 00-.45.027c2.44.258 4.53 2.311 4.53 4.789v1.559h.9v-1.56c0-2.628-2.352-4.78-4.98-4.815z" fill="#3695B2"/>
  <path d="M7.207 22.205l-1.234-1.13.663-2.877H7.779l.663 2.877-1.235 1.13z" fill="#F2464F"/>
  <g fill="#D3333C">
    <path d="M7.78 18.198H7.103l.663 2.877-.897.822.337.308 1.235-1.13-.663-2.877zM7.779 18.198H6.636l-.64-1.242a4.99 4.99 0 011.211-.168c.413.006.82.064 1.211.168l-.639 1.242z"/>
  </g>
  <path d="M7.797 16.832l-.693 1.366H7.78l.64-1.242a5.065 5.065 0 00-.622-.124z" fill="#7F1B20"/>
  <path d="M15.29 17.749c1.112 0 2.022-.91 2.022-2.023v-1.74c0-1.113-.91-2.024-2.023-2.024-1.112 0-2.022.91-2.022 2.023v1.741c0 1.112.91 2.023 2.022 2.023z" fill="#FFC89F"/>
  <path d="M15.29 11.963c-.155 0-.305.018-.45.05a2.03 2.03 0 011.573 1.972v1.74a2.03 2.03 0 01-1.573 1.972c.145.034.295.052.45.052 1.112 0 2.022-.91 2.022-2.023v-1.74c0-1.113-.91-2.024-2.022-2.024z" fill="#F7B081"/>
  <path d="M7.207 16.792c1.31 0 2.38-1.071 2.38-2.38v-2.049c0-1.309-1.07-2.38-2.38-2.38a2.387 2.387 0 00-2.38 2.38v2.049c0 1.309 1.071 2.38 2.38 2.38z" fill="#FFC89F"/>
  <path d="M7.208 9.983c-.154 0-.304.015-.45.044a2.389 2.389 0 011.93 2.336v2.049a2.39 2.39 0 01-1.93 2.337 2.387 2.387 0 002.83-2.337v-2.049c0-1.309-1.071-2.38-2.38-2.38z" fill="#F7B081"/>
  <path d="M15.775 18.943h-.972l-.543-1.055a4.238 4.238 0 011.029-.143c.351.005.696.054 1.03.143l-.544 1.055z" fill="#D3333C"/>
  <path d="M15.7 17.771l-.6 1.172h.675l.544-1.055a4.289 4.289 0 00-.62-.117z" fill="#7F1B20"/>
  <path d="M15.29 22.35l-1.05-.961.564-2.446h.971l.564 2.446-1.05.96z" fill="#F2464F"/>
  <path d="M15.775 18.943H15.101l.563 2.446-.712.652.338.308 1.049-.96-.564-2.446z" fill="#D3333C"/>
  <path d="M15.838.5c-3.459 0-6.273 2.31-6.273 5.148 0 1.058.385 2.068 1.113 2.93a2.913 2.913 0 01-.718 1.365.525.525 0 00.374.886l.1.001c.575 0 1.531-.103 2.33-.691.934.431 1.982.657 3.073.657 3.459 0 6.273-2.31 6.273-5.148C22.11 2.809 19.296.5 15.838.5zm0 9.621a6.6 6.6 0 01-2.983-.688 5.885 5.885 0 01-.435-.244.337.337 0 10-.336.585c-.484.265-1.011.353-1.414.375.621-.8.7-1.607.703-1.644a.336.336 0 00-.1-.27c-.676-.76-1.033-1.653-1.033-2.587 0-2.467 2.511-4.473 5.598-4.473 3.086 0 5.597 2.006 5.597 4.473 0 2.466-2.511 4.473-5.597 4.473z" fill="#000"/>
  <path d="M17.403 2.716a.337.337 0 00-.291.609 2.94 2.94 0 011.642 2.3l-2.12-.001h-.618L14.6 3.4l-.037-.059a2.912 2.912 0 011.726-.268.337.337 0 00.1-.668 3.582 3.582 0 00-2.484.535c-.156.101-.201.309-.101.465l.057.09a3.16 3.16 0 00-1.177 2.466c0 .987.448 1.901 1.23 2.507a.337.337 0 00.474-.062l.096-.124a2.7 2.7 0 004.044-1.983h.584a.338.338 0 00.337-.332V5.96c0-1.377-.803-2.65-2.045-3.245zm-4.046 3.245c0-.735.32-1.421.868-1.893l1.195 1.875-1.28 1.676-.069.09a2.479 2.479 0 01-.714-1.748zm2.497 2.02a2 2 0 01-.958-.24l.241-.316.86-1.127h1.849a2.024 2.024 0 01-1.992 1.683zM16.67 17.638c.593-.429.98-1.126.98-1.912v-1.74a2.363 2.363 0 00-2.36-2.36 2.363 2.363 0 00-2.36 2.36v1.74c0 .788.387 1.486.982 1.915a4.822 4.822 0 00-2.124 1.411 5.533 5.533 0 00-3.09-2.37 2.717 2.717 0 001.227-2.27v-2.049a2.72 2.72 0 00-2.717-2.717 2.72 2.72 0 00-2.718 2.717v2.049c0 .948.489 1.784 1.227 2.27-2.184.662-3.827 2.659-3.827 4.922v1.559c0 .186.15.337.337.337h2.038a.337.337 0 100-.675h-1.7v-1.221c0-1.165.496-2.278 1.4-3.136a4.942 4.942 0 011.86-1.108l.454.882L5.644 21a.337.337 0 00.101.324l1.235 1.13a.336.336 0 00.455 0l1.235-1.13A.337.337 0 008.771 21l-.635-2.758.454-.883a4.94 4.94 0 011.861 1.11c.414.392.743.84.977 1.321l.008.02c.154.32.265.648.333.984l.004.016.016.088.005.03.012.075.006.04.008.066.006.047.006.062.005.05a4.3 4.3 0 01.004.063l.004.049.003.07.001.041.002.113v1.221H5.39a.337.337 0 100 .675h8.417a.337.337 0 100-.675h-1.281v-1.221c0-.067-.002-.133-.005-.2v-.018a4.759 4.759 0 00-.393-1.684 4.119 4.119 0 011.961-1.41l.358.696-.536 2.325a.337.337 0 00.101.325l1.05.96a.336.336 0 00.455 0l1.05-.96a.337.337 0 00.1-.325l-.536-2.325.358-.694c.56.19 1.085.501 1.522.916.757.72 1.174 1.652 1.174 2.628v.987H14.93a.337.337 0 100 .675h4.59a.337.337 0 00.338-.337v-1.325c0-1.911-1.362-3.601-3.19-4.2zm-9.462 4.11l-.862-.789.558-2.424h.607l.558 2.424-.861.79zm-.71-4.556l.046-.008.017-.002a4.993 4.993 0 01.251-.033l.056-.006c.048-.004.096-.008.144-.01l.04-.002.088-.003.068.001.067-.001c.03 0 .059.001.088.003.014 0 .027 0 .04.002l.144.01.056.006a5.173 5.173 0 01.251.033l.017.002.046.008-.344.668h-.731l-.344-.668zm.79-.74l-.076-.001h-.009c-.026 0-.05 0-.076.002a2.045 2.045 0 01-1.962-2.041v-1.038c1.825-.14 2.5-1.391 2.5-1.391s.444 1.169 1.586 1.373v1.056c0 1.1-.874 1.998-1.963 2.04zm8.001 5.44l-.676-.62.459-1.991h.435l.459 1.992-.677.619zm-.526-3.764l.046-.007.046-.007a3.414 3.414 0 01.262-.024c.017-.001.033-.003.05-.003l.063-.002.06.001.052-.001a3.766 3.766 0 01.473.043l-.246.478h-.56l-.246-.479zm.595-.718l-.064-.002h-.01l-.06.002a1.687 1.687 0 01-1.62-1.684v-.886c1.513-.138 2.075-1.178 2.075-1.178s.364.958 1.296 1.157v.907c0 .906-.72 1.647-1.617 1.684z" fill="#000"/>
</svg>
