<svg width="24" height="24" fill="none" xmlns="http://www.w3.org/2000/svg">
  <defs/>
  <path d="M16.823 2.931v1.975H7.177V2.93H3.72v20.232h16.56V2.93h-3.457z" fill="#546F7A"/>
  <g fill="#465A65">
    <path d="M7.177 2.931h-.899v1.975h.9V2.93zM20.28 2.931h-.898v20.231h.899V2.932z"/>
  </g>
  <path d="M13.62 2.106a1.667 1.667 0 00-3.237 0H7.178v2.8h9.646v-2.8h-3.205z" fill="#F7CB4F"/>
  <path d="M16.824 4.007H7.178v.899h9.646v-.9z" fill="#F4B008"/>
  <path d="M16.823 4.206v.7H7.177v-.7H5.273V21.76h13.454V4.206h-1.904z" fill="#EFE7E4"/>
  <path d="M18.727 4.206h-.899v17.555h.9V4.206z" fill="#D8D1D0"/>
  <path d="M16.823 12.001V12a5.158 5.158 0 00-7.956-4.334l2.762 4.334 5.194.002z" fill="#F7CB4F"/>
  <path d="M11.665 6.84c-.15 0-.3.008-.447.02A5.158 5.158 0 0115.924 12V12h.9V12a5.158 5.158 0 00-5.159-5.158z" fill="#F4B008"/>
  <path d="M11.63 11.999L9.227 8.23A4.484 4.484 0 007.178 12a4.48 4.48 0 001.74 3.549l2.711-3.55z" fill="#F2464F"/>
  <path d="M10.73 11.999L8.39 15.065c.163.174.34.336.53.483l2.71-3.55-.427-.67-.472.67z" fill="#D3333C"/>
  <path d="M11.629 11.999l-2.253 2.95A3.734 3.734 0 0015.399 12l-3.77-.002z" fill="#FF6137"/>
  <path d="M11.629 11.999l2.87.002a3.734 3.734 0 01-3.286 3.704A3.734 3.734 0 0015.399 12L11.629 12z" fill="#E04F32"/>
  <path d="M18.727 9.453a.337.337 0 00-.337.337v11.633H5.61v-4.137a.337.337 0 00-.673 0v4.474c0 .187.15.337.337.337h13.453c.187 0 .337-.15.337-.337V9.79a.337.337 0 00-.337-.337z" fill="#000"/>
  <path d="M20.28 2.594h-3.12v-.488a.337.337 0 00-.337-.338h-2.958A1.998 1.998 0 0012 .5c-.834 0-1.566.51-1.864 1.268H7.177a.337.337 0 00-.337.338v.488H3.72a.337.337 0 00-.337.337v20.232c0 .186.15.337.337.337h16.56c.187 0 .338-.15.338-.337V2.93a.337.337 0 00-.337-.337zM7.515 2.443h2.868c.155 0 .29-.106.328-.257A1.326 1.326 0 0112 1.174c.614 0 1.145.416 1.291 1.012.037.15.172.257.328.257h2.867v2.126H7.514V2.443zm12.43 20.383H4.057V3.269H6.84v.6H5.273a.337.337 0 00-.337.337v11.957a.337.337 0 10.675 0V4.543h1.23v.363c0 .186.15.337.336.337h9.646c.187 0 .337-.151.337-.337v-.363h1.23v4.123a.337.337 0 10.674 0v-4.46a.337.337 0 00-.337-.337H17.16v-.6h2.784v19.557z" fill="#000"/>
  <path d="M8.711 15.814a.337.337 0 00.475-.062l.26-.34c.66.432 1.42.658 2.219.658a4.077 4.077 0 004.057-3.732h1.101A.339.339 0 0017.16 12c0-1.82-.899-3.519-2.405-4.544a.337.337 0 00-.38.557 4.823 4.823 0 012.1 3.652l-3.776-.002h-.886L9.59 8.173l-.079-.124-.174-.273a4.804 4.804 0 012.328-.598 4.8 4.8 0 011.727.318.337.337 0 10.241-.63 5.472 5.472 0 00-1.968-.362 5.475 5.475 0 00-2.981.878c-.156.1-.201.308-.101.464l.186.294a4.808 4.808 0 00-1.93 3.859c0 1.503.683 2.893 1.872 3.815zm6.334-3.476a3.402 3.402 0 01-5.189 2.537l1.94-2.539h.921l2.328.002zM9.133 8.71l2.085 3.271-2.11 2.763-.244.319a4.121 4.121 0 01-1.35-3.064c0-1.299.6-2.505 1.619-3.29zM16.645 17.931a.337.337 0 00-.338-.337H7.774a.337.337 0 100 .675h8.533c.187 0 .338-.151.338-.337zM7.774 19.204a.337.337 0 100 .674h5.883a.337.337 0 100-.674H7.774z" fill="#000"/>
</svg>
