<svg width="24" height="24" fill="none" xmlns="http://www.w3.org/2000/svg">
  <defs/>
  <g fill="#4EB9FF">
    <path d="M4.858 6.003l1.56 3.914-1.56 4.57L.76 12.333V6.003h4.098zM14.15.759v4.626L4.857 3.824V2.637C4.857 1.6 5.698.76 6.736.76h7.414z"/>
  </g>
  <path d="M17.718 3.843v2.162l-6.43 2.081-6.43-2.081V3.843h12.86z" fill="#9AD7FF"/>
  <path d="M4.858 6.005v15.771h4.62l8.24-7.287V6.005H4.858z" fill="#174461"/>
  <path d="M17.718 14.49v2.428l-4.12 1.041-4.12-1.04v-2.43h8.24z" fill="#4EB9FF"/>
  <path d="M17.718 19.347v2.43h-8.24v-2.43l4.12-1.04 4.12 1.04z" fill="#C2E7FF"/>
  <path d="M17.718 16.918h-8.24v2.43h8.24v-2.43z" fill="#9AD7FF"/>
  <path d="M22.722 9.145l-4.224 2.404V9.414l4.739-2.697a.52.52 0 00-.515-.904l-4.224 2.403V4.103a.52.52 0 00-.52-.52h-3.046V1.02a.52.52 0 00-.52-.52H6.995A2.402 2.402 0 004.598 2.9V5.745H1.02a.52.52 0 00-.52.52v6.328c0 .194.107.37.278.46l3.82 2.01v6.974c0 .287.233.52.52.52v.423a.52.52 0 001.04 0v-.423h10.78v.423a.52.52 0 101.04 0v-.423a.52.52 0 00.52-.52v-9.291l4.739-2.696a.52.52 0 10-.515-.905zm-5.264 12.371h-7.2v-1.388h7.2v1.388zm-7.2-2.429V17.7h7.2v1.388h-7.2zm0-2.429V15.27h7.2v1.388h-7.2zm-4.62-13.76c0-.748.61-1.357 1.358-1.357h6.895v2.024H5.638v-.666zm0 1.725h11.82v1.122h-1.372a.52.52 0 000 1.04h1.372v7.444h-7.72a.52.52 0 00-.52.52v6.767h-3.58v-6.771-7.96h8.367a.52.52 0 000-1.04H5.637V4.623zM1.541 12.28V6.785h3.057v7.103L1.54 12.279z" fill="#01121C"/>
</svg>
