<svg width="24" height="24" fill="none" xmlns="http://www.w3.org/2000/svg">
  <defs/>
  <path d="M23.048.952H.952v22.096h22.096V.952z" fill="#9AD7FF"/>
  <path d="M23.048 23.5H.952a.452.452 0 01-.452-.452V.952C.5.702.702.5.952.5h22.096c.25 0 .452.202.452.452v22.096c0 .25-.202.452-.452.452zm-21.644-.904h21.192V1.404H1.404v21.192z" fill="#01121C"/>
  <path d="M14.19 17.622a.523.523 0 00-.714.197l-.953 1.677V4.504l.953 1.677a.523.523 0 10.91-.517l-1.93-3.4-.005-.007a.55.55 0 00-.03-.043l-.01-.014a.501.501 0 00-.037-.044c-.002 0-.002-.002-.003-.003a.524.524 0 00-.047-.04l-.013-.01a.49.49 0 00-.04-.027l-.013-.008a.518.518 0 00-.115-.048l-.015-.004a.507.507 0 00-.048-.01l-.017-.002a.51.51 0 00-.127 0l-.017.002a.53.53 0 00-.048.01l-.014.004a.52.52 0 00-.116.048l-.012.008a.506.506 0 00-.04.027l-.014.01a.538.538 0 00-.046.04l-.003.003a.553.553 0 00-.077.101l-.005.007-1.931 3.4a.524.524 0 10.91.517l.953-1.677v6.972H4.504l1.677-.952a.524.524 0 10-.517-.91l-3.39 1.925h-.001l-.01.006-.006.004a.527.527 0 00-.1.077l-.004.003a.515.515 0 00-.04.046l-.01.014a.529.529 0 00-.028.04l-.007.012a.52.52 0 00-.049.116l-.004.014a.491.491 0 00-.01.048l-.002.017a.553.553 0 000 .128l.003.016a.536.536 0 00.01.048l.003.015a.52.52 0 00.049.115l.008.013a.506.506 0 00.026.04l.01.014a.517.517 0 00.04.046.53.53 0 00.047.04l.015.01a.54.54 0 00.043.03l.007.004.009.005 3.391 1.927a.521.521 0 00.714-.197.524.524 0 00-.197-.714l-1.677-.952h6.972v6.972l-.953-1.677a.523.523 0 10-.91.517l1.932 3.4.004.007a.547.547 0 00.077.1l.003.004c.014.014.03.028.046.04l.013.01c.013.01.027.019.04.027l.013.008a.52.52 0 00.116.048l.014.004a.555.555 0 00.049.01l.016.002a.515.515 0 00.128 0l.016-.002a.546.546 0 00.048-.01l.015-.004a.519.519 0 00.116-.048l.012-.008a.5.5 0 00.04-.027l.014-.01a.54.54 0 00.046-.04l.003-.004a.544.544 0 00.038-.043l.01-.014a.53.53 0 00.029-.043l.004-.007 1.932-3.4a.524.524 0 00-.197-.714z" fill="#000"/>
  <path d="M21.887 12.325l.01-.014a.531.531 0 00.083-.168l.004-.015a.485.485 0 00.01-.048l.002-.016a.515.515 0 00-.012-.192l-.004-.015a.517.517 0 00-.083-.168l-.01-.014a.551.551 0 00-.04-.046c-.002 0-.003-.002-.004-.003a.512.512 0 00-.043-.038l-.014-.01a.533.533 0 00-.044-.029l-.007-.004-.008-.005-3.392-1.927a.523.523 0 10-.517.91l1.677.954H13.57a.524.524 0 100 1.047h5.925l-1.677.952a.524.524 0 10.518.91l3.39-1.926.01-.005.006-.004a.493.493 0 00.1-.077l.005-.003a.568.568 0 00.04-.046z" fill="#000"/>
</svg>
