<svg width="24" height="24" fill="none" xmlns="http://www.w3.org/2000/svg">
  <defs/>
  <path d="M17.219 4.021v13.075l-2.883 2.883H6.78v3.184h11.717l2.883-2.883V4.021h-4.161z" fill="#CCC6C4"/>
  <path d="M17.219 17.096l-2.883 2.883H2.619V.837h14.6v16.26z" fill="#EFE7E4"/>
  <path d="M17.219 4.021v13.075l-2.883 2.883H6.78v.9h8.455l2.883-2.884V4.021h-.899z" fill="#969493"/>
  <path d="M16.32.837v16.26l-2.883 2.882h.9l2.883-2.883V.837h-.9z" fill="#D8D1D0"/>
  <path d="M13.134 3.473H6.406v7.35h6.728v-7.35z" fill="#546F7A"/>
  <path d="M9.756 10.823H7.3v-.788c0-1.296 1.16-2.357 2.456-2.375 1.296.017 2.456 1.079 2.456 2.375v.788H9.756z" fill="#68B9D8"/>
  <path d="M9.755 7.66c-.152.002-.302.019-.45.049 1.104.222 2.007 1.182 2.007 2.326v.788h.9v-.788c0-1.296-1.16-2.357-2.457-2.375z" fill="#3695B2"/>
  <path d="M9.756 7.662c.646 0 1.174-.528 1.174-1.174v-1.01c0-.646-.529-1.174-1.174-1.174-.646 0-1.174.528-1.174 1.174v1.01c0 .646.528 1.174 1.174 1.174z" fill="#FFC89F"/>
  <path d="M9.755 4.304c-.159 0-.31.032-.45.09.425.178.725.597.725 1.084v1.01c0 .487-.3.906-.724 1.084a1.177 1.177 0 001.623-1.084v-1.01c0-.646-.528-1.174-1.174-1.174z" fill="#F7B081"/>
  <path d="M9.755 10.331l-.609-.557.327-1.137h.564l.327 1.137-.609.557z" fill="#F2464F"/>
  <path d="M14.336 19.979v-2.883h2.883l-2.883 2.883z" fill="#B2AEAD"/>
  <path d="M18.497 23.163V20.28h2.883l-2.883 2.883z" fill="#969493"/>
  <path d="M10.037 8.638h-.563l-.316-.896c.193-.05.394-.08.597-.082.204.003.405.031.598.082l-.316.896z" fill="#D3333C"/>
  <path d="M5.793 14.715h8.414a.337.337 0 100-.675H5.793a.337.337 0 100 .675zM5.456 12.79c0 .187.151.338.337.338h8.414a.337.337 0 100-.675H5.793a.337.337 0 00-.337.338zM5.793 16.302h5.801a.337.337 0 100-.674h-5.8a.337.337 0 100 .674z" fill="#000"/>
  <path d="M21.717 4.021a.337.337 0 00-.337-.337h-3.824V.837A.337.337 0 0017.22.5H2.62a.337.337 0 00-.337.337V3.46a.337.337 0 10.675 0V1.174h13.925V12.45a.337.337 0 10.674 0V4.358h3.487v15.585h-2.546a.337.337 0 00-.337.337v2.546H7.118v-2.51h7.226l.025-.001.02-.003.013-.002.02-.005.011-.003.02-.007.011-.004.018-.009.012-.005.019-.011.01-.006a.327.327 0 00.023-.018l.003-.002a.336.336 0 00.026-.022l1.441-1.442 1.441-1.441a.33.33 0 00.03-.035l.006-.008a.343.343 0 00.024-.038v-.001a.34.34 0 00.017-.039l.004-.01a.342.342 0 00.017-.085v-.011l.001-.012v-3.522a.337.337 0 10-.674 0v3.185h-2.546a.337.337 0 00-.337.337v2.546H2.957V4.583a.337.337 0 10-.675 0v15.396c0 .186.151.337.337.337h3.824v2.847c0 .186.151.337.337.337h11.726c.008 0 .016 0 .024-.002l.02-.002.013-.002.02-.005.012-.003.019-.007.012-.004.017-.009.012-.005.019-.011.01-.006a.358.358 0 00.023-.018l.003-.002a.336.336 0 00.026-.023l2.883-2.883a.342.342 0 00.059-.08v-.002a.32.32 0 00.033-.09.36.36 0 00.005-.043v-.012l.001-.011V4.021zm-7.043 13.412h1.731l-1.732 1.732v-1.732zm4.16 3.184h1.732l-1.732 1.732v-1.732z" fill="#000"/>
  <path d="M7.3 11.16h5.834a.337.337 0 00.337-.337v-7.35a.337.337 0 00-.337-.337H6.407a.337.337 0 00-.338.337v7.35c0 .186.151.337.338.337h.892zm1.619-5.204C9.69 5.828 9.98 5.29 9.98 5.29s.174.459.611.63v.568a.837.837 0 01-.81.835H9.729a.837.837 0 01-.81-.835v-.532zm1.063 3.71l-.227.208-.227-.207.2-.692h.055l.2.692zM9.8 8.3h-.087l-.104-.295.02-.002a2.45 2.45 0 01.098-.005h.059a2.082 2.082 0 01.098.005l.02.002-.104.295zm-.85-.134l.17.482-.297 1.033a.337.337 0 00.097.342l.506.463H7.636v-.451c0-.82.551-1.55 1.314-1.869zm1.137 2.32l.506-.463a.337.337 0 00.096-.342l-.297-1.033.17-.482c.763.319 1.313 1.05 1.313 1.869v.451h-1.788zM6.744 3.81h6.053v6.676h-.248v-.451c0-1.089-.72-2.06-1.72-2.485.27-.273.437-.649.437-1.062v-1.01c0-.833-.678-1.511-1.51-1.511-.834 0-1.512.678-1.512 1.51v1.01c0 .414.167.79.437 1.063-.999.425-1.72 1.396-1.72 2.485v.451h-.217V3.81z" fill="#000"/>
</svg>
