<svg width="24" height="24" fill="none" xmlns="http://www.w3.org/2000/svg">
  <defs/>
  <path d="M18.858.838H5.146v17.12h13.712V.838z" fill="#EFE7E4"/>
  <path d="M18.859.838h-.901v17.12h.9V.838z" fill="#D8D1D0"/>
  <path d="M9.312 21.95h-4.81v1.212h4.81V21.95z" fill="#EFE7E4"/>
  <path d="M5.144 17.958h4.739v1.173c0 .472-.162.93-.46 1.297l-.441.545v.977H4.908v-.977l-.395-.364a1.486 1.486 0 01-.478-1.092v-3.643c.613 0 1.11.497 1.11 1.11v1.233s2.418.262 2.418 1.95" fill="#FFC89F"/>
  <path d="M19.497 21.95h-4.81v1.212h4.81V21.95z" fill="#EFE7E4"/>
  <g fill="#D8D1D0">
    <path d="M9.313 21.95h-.9v1.212h.9V21.95zM19.497 21.95h-.9v1.212h.9V21.95z"/>
  </g>
  <path d="M15.806 2.767H8.298v8.202h7.508V2.767z" fill="#546F7A"/>
  <path d="M12.036 7.441c.72 0 1.31-.589 1.31-1.31V5.005c0-.72-.59-1.31-1.31-1.31-.721 0-1.31.59-1.31 1.31v1.128c0 .72.589 1.31 1.31 1.31z" fill="#FFC89F"/>
  <path d="M12.035 3.694c-.158 0-.31.029-.45.08.5.185.86.668.86 1.23v1.128c0 .562-.36 1.045-.86 1.23a1.314 1.314 0 001.76-1.23V5.004c0-.72-.59-1.31-1.31-1.31z" fill="#F7B081"/>
  <path d="M19.965 15.874a1.11 1.11 0 00-1.11 1.11v.974h-4.737v1.172c0 .473.161.93.458 1.298l.442.545v.977h4.074v-.977l.395-.364c.305-.282.478-.677.478-1.092v-3.643z" fill="#FFC89F"/>
  <g fill="#F7B081">
    <path d="M9.88 18.857H6.047a.9.9 0 01-.9-.9H9.88v.9zM17.956 18.857h-3.84v-.9h4.74a.9.9 0 01-.9.9z"/>
  </g>
  <path d="M12.035 10.97H9.294v-.88c0-1.447 1.295-2.63 2.74-2.65 1.447.019 2.742 1.203 2.742 2.65v.88h-2.741z" fill="#68B9D8"/>
  <path d="M12.035 7.44a2.722 2.722 0 00-.45.044c1.254.228 2.29 1.311 2.29 2.605v.88h.901v-.88c0-1.446-1.294-2.63-2.74-2.65z" fill="#3695B2"/>
  <path d="M12.35 8.53h-.629l-.352-.999c.216-.057.44-.089.667-.092.227.003.45.035.666.092l-.352 1z" fill="#D3333C"/>
  <path d="M12.035 10.42l-.68-.621.365-1.269h.63l.364 1.269-.679.622z" fill="#F2464F"/>
  <path d="M19.716 20.857c.373-.344.587-.832.587-1.34v-3.643a.338.338 0 00-.338-.338c-.282 0-.546.082-.769.223v-2.705a.338.338 0 00-.676 0v3.847a1.478 1.478 0 00-.002.082v.637H5.483V5.653a.338.338 0 10-.675 0V15.76a1.438 1.438 0 00-.773-.225.338.338 0 00-.338.338v3.643c0 .508.214.996.587 1.34l.286.264v.491h-.067a.338.338 0 00-.338.338v1.212c0 .187.151.338.338.338h4.81a.338.338 0 00.337-.338V21.95a.337.337 0 00-.33-.338v-.52l.366-.452c.344-.425.534-.962.534-1.51v-.834h3.56v.835c0 .547.19 1.084.534 1.51l.367.452v.52a.337.337 0 00-.33.337v1.212c0 .187.15.338.337.338h4.81a.338.338 0 00.337-.338V21.95a.338.338 0 00-.338-.338h-.067v-.491l.286-.264zM8.974 22.825H4.84v-.538h4.135v.538zm.57-3.694c0 .393-.135.778-.383 1.084l-.442.546a.338.338 0 00-.075.212v.639H5.245v-.639a.338.338 0 00-.108-.248l-.395-.365a1.151 1.151 0 01-.37-.843V16.29c.257.125.435.389.435.693v1.233c0 .172.13.317.3.336.006 0 .571.066 1.12.32.662.307.998.743.998 1.296a.338.338 0 10.676 0c0-.805-.454-1.45-1.315-1.872h2.959v.835zm9.616 3.694h-4.134v-.538h4.134v.538zm-3.804-1.213v-.639a.338.338 0 00-.075-.212l-.442-.546a1.73 1.73 0 01-.384-1.085v-.835h2.958c-.86.423-1.314 1.068-1.314 1.872a.338.338 0 10.676 0c0-.552.336-.988.998-1.295.549-.254 1.114-.32 1.12-.32a.338.338 0 00.3-.336v-.22a.338.338 0 00.003-.038v-1.035a.773.773 0 01.431-.633v3.227c0 .32-.134.627-.369.843l-.395.365a.337.337 0 00-.108.248v.639h-3.399zM5.145 4.865a.338.338 0 00.338-.338V1.175H18.52v10.753a.338.338 0 10.676 0V.838A.338.338 0 0018.858.5H5.145a.338.338 0 00-.337.338v3.689c0 .186.15.338.337.338z" fill="#000"/>
  <path d="M16.143 2.767a.338.338 0 00-.338-.338H8.298a.338.338 0 00-.338.338v8.203c0 .186.151.337.338.337h7.508a.338.338 0 00.337-.338V2.768zm-5.08 2.776c.888-.13 1.222-.748 1.222-.748s.205.54.722.717v.62c0 .526-.42.955-.943.97h-.058a.973.973 0 01-.943-.97v-.589zm1.269 4.148l-.297.272-.297-.272.236-.823h.121l.237.823zm-.222-1.498h-.15l-.142-.402.015-.002A2.415 2.415 0 0112 7.78h.067a2.403 2.403 0 01.168.01l.016.002-.142.402zm-.951-.24l.207.588-.335 1.164a.338.338 0 00.096.343l.638.584H9.632v-.543c0-.943.642-1.782 1.527-2.135zm1.145 2.679l.638-.584a.337.337 0 00.097-.343l-.335-1.164.207-.587c.884.352 1.527 1.192 1.527 2.135v.543h-2.134zm3.164 0h-.354v-.543c0-1.218-.821-2.303-1.95-2.759.319-.3.518-.727.518-1.198V5.004a1.65 1.65 0 00-1.647-1.647 1.65 1.65 0 00-1.648 1.647v1.128c0 .471.2.897.519 1.198-1.13.456-1.95 1.54-1.95 2.76v.542h-.32V3.104h6.832v7.528zM16.143 14.329a.338.338 0 00-.338-.338H8.26a.338.338 0 100 .675h7.545a.338.338 0 00.338-.338zM15.805 12.401H8.26a.338.338 0 100 .676h7.545a.338.338 0 000-.676zM8.26 15.58a.338.338 0 100 .676h5.202a.338.338 0 100-.676H8.26z" fill="#000"/>
</svg>
