<svg width="24" height="24" fill="none" xmlns="http://www.w3.org/2000/svg">
  <defs/>
  <path d="M19.503 6.42c-.496 0-.962.13-1.365.36a1.038 1.038 0 01-1.027 0 2.752 2.752 0 00-1.366-.36c-.496 0-.962.13-1.365.36a1.038 1.038 0 01-1.027 0 2.752 2.752 0 00-1.366-.36c-.496 0-.962.13-1.365.36a1.038 1.038 0 01-1.027 0 2.752 2.752 0 00-1.366-.36c-.496 0-.962.13-1.365.36a1.038 1.038 0 01-1.027 0 2.767 2.767 0 00-4.12 2.153h20.541a2.767 2.767 0 00-2.755-2.513z" fill="#FE73C5"/>
  <path d="M19.503 6.42c-.233 0-.458.029-.674.083a2.768 2.768 0 012.081 2.43h1.348a2.767 2.767 0 00-2.755-2.513z" fill="#FE4FB7"/>
  <path d="M22.77 8.614l-.016-.058a.472.472 0 00-.454-.348H1.7a.472.472 0 00-.454.348l-.016.058a10.961 10.961 0 00-.393 2.91v2.124c0 2.157 1.718 3.931 3.852 3.933 1.701 0 3.144-1.113 3.656-2.657.52 1.538 1.95 2.656 3.643 2.657 1.712 0 3.163-1.128 3.666-2.688.51 1.554 1.949 2.687 3.653 2.688 2.13 0 3.856-1.744 3.856-3.896v-2.16c0-.984-.132-1.963-.393-2.91zM4.69 15.88a2.217 2.217 0 110-4.433 2.217 2.217 0 010 4.433zm7.319 0a2.217 2.217 0 110-4.433 2.217 2.217 0 010 4.433zm7.32 0a2.217 2.217 0 110-4.433 2.217 2.217 0 010 4.433z" fill="#FEDF30"/>
  <path d="M22.77 8.614l-.017-.058a.472.472 0 00-.453-.348h-1.348c.212 0 .397.142.454.348l.016.058c.261.948.393 1.927.393 2.91v2.161c0 1.918-1.37 3.512-3.176 3.835.217.04.44.06.668.06 2.13.002 3.856-1.743 3.856-3.895v-2.16c0-.984-.132-1.963-.393-2.91z" fill="#FAC600"/>
  <path d="M19.328 16.216a2.557 2.557 0 002.554-2.553 2.557 2.557 0 00-2.554-2.554 2.557 2.557 0 00-2.554 2.554 2.557 2.557 0 002.554 2.553zm0-4.433c1.037 0 1.88.843 1.88 1.88 0 1.036-.843 1.88-1.88 1.88a1.882 1.882 0 01-1.88-1.88c0-1.037.844-1.88 1.88-1.88z" fill="#000"/>
  <path d="M23.094 8.525l-.016-.058a.81.81 0 00-.764-.595 3.103 3.103 0 00-4.344-1.385.705.705 0 01-.693 0 3.103 3.103 0 00-3.064 0 .705.705 0 01-.694 0 3.103 3.103 0 00-3.064 0 .705.705 0 01-.694 0 3.103 3.103 0 00-3.064 0 .705.705 0 01-.694 0 3.103 3.103 0 00-1.532-.404c-1.18 0-2.244.655-2.774 1.711a.336.336 0 00-.028.078.81.81 0 00-.747.595l-.016.058c-.27.977-.406 1.986-.406 3v2.123c0 2.353 1.88 4.268 4.189 4.27h.002a4.18 4.18 0 003.656-2.162 4.188 4.188 0 002.94 2.101.337.337 0 10.115-.664c-1.267-.218-2.316-1.129-2.738-2.377a.337.337 0 00-.639.002 3.517 3.517 0 01-3.334 2.426H4.69c-1.938-.002-3.515-1.614-3.515-3.596v-2.123c0-.519.038-1.036.113-1.548h3.837a.337.337 0 000-.674H1.41c.043-.2.091-.4.146-.6l.016-.057a.136.136 0 01.13-.101h7.627a.337.337 0 100-.674h-6.9A2.416 2.416 0 014.47 6.756c.42 0 .835.11 1.199.317.42.238.94.238 1.36 0a2.427 2.427 0 012.398 0c.42.238.94.238 1.36 0a2.428 2.428 0 012.398 0c.42.238.94.238 1.36 0a2.427 2.427 0 012.398 0c.42.238.94.238 1.36 0a2.427 2.427 0 013.241.798h-10.87a.337.337 0 100 .674H22.3c.06 0 .112.041.129.1l.016.059c.054.198.103.398.146.6h-3.606a.337.337 0 100 .673h3.727c.076.512.114 1.03.114 1.548v2.16c0 .952-.366 1.846-1.032 2.518a3.474 3.474 0 01-2.485 1.04h-.002c-1.511 0-2.85-.987-3.333-2.455a.337.337 0 00-.64.002 3.55 3.55 0 01-2.83 2.416.337.337 0 00.1.666 4.221 4.221 0 003.05-2.136 4.175 4.175 0 003.652 2.181h.003c1.12 0 2.172-.44 2.964-1.24a4.226 4.226 0 001.227-2.992v-2.16a11.3 11.3 0 00-.406-3z" fill="#000"/>
  <path d="M14.563 13.663a2.557 2.557 0 00-2.554-2.554 2.557 2.557 0 00-2.554 2.554 2.557 2.557 0 002.554 2.553 2.557 2.557 0 002.553-2.553zm-2.554 1.88a1.882 1.882 0 01-1.88-1.88c0-1.037.843-1.88 1.88-1.88 1.036 0 1.88.843 1.88 1.88 0 1.036-.844 1.88-1.88 1.88zM2.136 13.663a2.557 2.557 0 002.553 2.553 2.557 2.557 0 002.554-2.553 2.557 2.557 0 00-2.554-2.554 2.556 2.556 0 00-2.553 2.554zm4.433 0c0 1.036-.843 1.88-1.88 1.88a1.882 1.882 0 01-1.88-1.88c0-1.037.844-1.88 1.88-1.88 1.037 0 1.88.843 1.88 1.88z" fill="#000"/>
</svg>
