<svg width="24" height="24" fill="none" xmlns="http://www.w3.org/2000/svg">
  <defs/>
  <g fill="#85C250">
    <path d="M8.34 3.102L9.9 13.04 8.34 22.98l-7.32-2.082V1.02l7.32 2.082zM22.98 3.103V22.98l-7.32-2.082-1.04-9.939 1.04-9.939 7.32 2.082z"/>
  </g>
  <path d="M15.66 1.02v19.878L8.34 22.98V3.102l7.32-2.082z" fill="#C9D467"/>
  <g fill="#174461">
    <path d="M3.102 4.214v6.869l3.156.897V5.112l-3.156-.898zM17.741 12.019v6.868l3.157.898v-6.869l-3.157-.897z"/>
  </g>
  <g fill="#01121C">
    <path d="M23.122 2.601L15.802.52l-.008-.002a.494.494 0 00-.053-.011l-.016-.003A.533.533 0 0015.66.5h-.001a.522.522 0 00-.064.004l-.017.003a.518.518 0 00-.053.011l-.008.002L8.34 2.56 1.163.52a.52.52 0 00-.663.5v19.878a.52.52 0 00.378.5l7.32 2.082.007.002a.549.549 0 00.054.011l.016.003a.525.525 0 00.064.004h.002a.505.505 0 00.064-.005l.016-.002a.549.549 0 00.053-.011l.008-.002 7.178-2.04 7.177 2.04a.521.521 0 00.663-.5V3.102a.52.52 0 00-.378-.5zM8.86 3.495l6.28-1.786v18.796l-6.28 1.786V3.495zM1.54 1.709l6.28 1.786V22.29l-6.28-1.786V1.71zm20.92 20.582l-6.28-1.786V1.71l6.28 1.786V22.29z"/>
    <path d="M6.4 19.285l-3.156-.897a.52.52 0 00-.285 1l3.157.898a.522.522 0 00.643-.358.52.52 0 00-.359-.643zM6.4 16.684l-3.156-.898a.52.52 0 10-.285 1.001l3.157.898a.518.518 0 00.643-.358.52.52 0 00-.359-.643zM6.4 14.082l-3.156-.898a.52.52 0 10-.285 1.001l3.157.898a.518.518 0 00.643-.358.52.52 0 00-.358-.643zM6.4 4.611l-3.156-.897a.52.52 0 00-.663.5v6.869a.52.52 0 00.378.5l3.157.898a.52.52 0 00.662-.5V5.11a.52.52 0 00-.378-.5zm-.662 6.68l-2.116-.601V4.903l2.116.602v5.787zM10.42 5.632a.521.521 0 00.143-.02l3.157-.897a.52.52 0 00-.285-1.001l-3.157.897a.52.52 0 00.143 1.021zM13.435 18.388l-3.157.897a.52.52 0 00.285 1.001l3.157-.897a.52.52 0 10-.285-1.001zM13.435 15.786l-3.157.898a.52.52 0 10.285 1l3.157-.897a.52.52 0 10-.285-1.001zM13.435 13.184l-3.157.898a.52.52 0 00.285 1l3.157-.897a.52.52 0 00-.285-1zM13.435 10.582l-3.157.898a.52.52 0 00.285 1l3.157-.897a.52.52 0 00-.285-1zM17.599 4.715l3.157.897a.521.521 0 10.285-1l-3.157-.898a.52.52 0 00-.285 1zM17.599 7.316l3.157.898a.521.521 0 10.285-1l-3.157-.899a.52.52 0 00-.285 1.001zM17.599 9.918l3.157.898a.522.522 0 00.643-.358.52.52 0 00-.358-.643l-3.157-.898a.52.52 0 00-.285 1.001zM17.599 19.389l3.157.897a.517.517 0 00.456-.085.52.52 0 00.206-.415v-6.869a.52.52 0 00-.378-.5l-3.157-.898a.521.521 0 00-.662.5v6.87a.52.52 0 00.378.5zm.662-6.68l2.117.601v5.787l-2.117-.602v-5.787z"/>
  </g>
</svg>
