<svg width="24" height="24" fill="none" xmlns="http://www.w3.org/2000/svg">
  <defs/>
  <path d="M14.997 22.624a8.106 8.106 0 100-16.212 8.106 8.106 0 000 16.212z" fill="#FFDFA1"/>
  <path d="M14.838 19.142a5.059 5.059 0 100-10.118 5.059 5.059 0 000 10.118z" fill="#FFEFCA"/>
  <path d="M6.92 11.04l-5.965.823a15.782 15.782 0 019.841-5.383l.342-.003.849.613-3.484 4.329-1.583-.38z" fill="#60D8E8"/>
  <path d="M7.198 11.03l-.97.107s3.802-4.52 3.868-4.546c.067-.027 1.088-.171 1.088-.171l-.013 2.259-3.322 2.498-.651-.146z" fill="#57CADD"/>
  <path d="M11.54 14.792l.116 6.02a15.782 15.782 0 003.784-10.56l-.05-.337-.738-.743-3.733 4.115.621 1.505z" fill="#60D8E8"/>
  <path d="M15.44 10.253l-.002.785-3.882 4.535-.091-3.317 3.61-2.814.366.81z" fill="#57CADD"/>
  <path d="M5.982 13.758c-1.162.81-3.675 2.816-4.884 5.234 2.687-.299 5.438-1.963 6.6-2.773l.769-.859-2.485-1.602z" fill="#FFDFA1"/>
  <path d="M6.707 14.34c-.72 1.22-2.633 4.71-2.728 7.412 2.32-1.39 4.13-4.047 4.85-5.267l.44-.75-2.562-1.395z" fill="#FFEFCA"/>
  <path d="M10.071 15.047l-.974 1.141a.5.5 0 01-.705.056l-2.281-1.95a.5.5 0 01-.056-.704l.975-1.14" fill="#60D8E8"/>
  <path d="M7.03 12.45l-.317.363 3.057 2.57.514-.548-3.254-2.386z" fill="#57CADD"/>
  <path d="M19.545 1.545a.486.486 0 00-.633-.54c-3.103 1.03-5.162 1.998-7.286 4.484l-4.707 5.55a1 1 0 00.111 1.41l3.042 2.598a1 1 0 001.41-.11l4.706-5.55c1.36-1.594 2.137-3.04 2.66-4.722 0 0 .638-2.76.697-3.12z" fill="#EBF9FE"/>
  <path d="M16.506 9.004c1.166-1.445 1.861-2.793 2.342-4.34 0 0 .638-2.76.697-3.12a.486.486 0 00-.633-.54c-2.942.977-4.947 1.9-6.957 4.112l4.55 3.888z" fill="#60D8E8"/>
  <path d="M16.179 5.873a1.095 1.095 0 100-2.19 1.095 1.095 0 000 2.19z" fill="#fff"/>
  <path d="M8.88 19.221a.401.401 0 00-.637.488c.438.573.949 1.089 1.519 1.534a.4.4 0 00.563-.07.401.401 0 00-.07-.562 7.709 7.709 0 01-1.375-1.39zM12.71 22.736a8.528 8.528 0 004.039.13c4.586-.965 7.533-5.48 6.568-10.067a8.432 8.432 0 00-2.67-4.603.401.401 0 10-.532.6 7.635 7.635 0 012.417 4.168c.873 4.153-1.795 8.243-5.948 9.117a7.715 7.715 0 01-3.657-.118.401.401 0 00-.217.773z" fill="#000"/>
  <path d="M15.016 18.963a.401.401 0 00.002.802h.003a5.252 5.252 0 004.374-2.386c.722-1.106 1-2.432.785-3.734a5.244 5.244 0 00-1.922-3.263.401.401 0 00-.498.63 4.444 4.444 0 011.628 2.764 4.445 4.445 0 01-.665 3.164 4.452 4.452 0 01-3.707 2.023zM10.777 16.058c.09-.007.178-.022.264-.046l.104 5.327a.401.401 0 00.707.253 16.17 16.17 0 002.516-4.013.401.401 0 00-.735-.322 15.361 15.361 0 01-1.707 2.952l-.094-4.754 3.077-3.629a15.393 15.393 0 01-.369 2.685.401.401 0 10.782.179 16.19 16.19 0 00.406-3.83l.712-.839c.095-.111.187-.222.277-.333a.388.388 0 00.096-.12c1.12-1.402 1.859-2.783 2.364-4.41a.401.401 0 00-.766-.238 11.934 11.934 0 01-2.016 3.881l-3.914-3.343c1.82-1.892 3.687-2.764 6.504-3.698a.081.081 0 01.082.016c.016.014.035.039.028.078-.061.375-.122.711-.184 1.028a.401.401 0 00.788.154c.063-.325.125-.669.188-1.051a.88.88 0 00-.299-.82.88.88 0 00-.856-.167c-3.07 1.02-5.068 1.972-7.077 4.166a.404.404 0 00-.104.115c-.095.106-.19.213-.285.325l-.744.878a16.166 16.166 0 00-9.926 5.495.401.401 0 00.36.658l5.278-.73c-.035.318.038.644.215.918l-.752.88a.905.905 0 00-.123.19c-.963.685-3.603 2.725-4.888 5.294a.401.401 0 00.403.578c1.044-.116 2.085-.427 3.033-.807-.318.993-.559 2.08-.596 3.154a.401.401 0 00.607.359c2.58-1.546 4.47-4.53 4.988-5.408a.4.4 0 00.032-.07.897.897 0 00.196-.17l.752-.88a1.387 1.387 0 00.676.115zm-1.07-8.615l-3.048 3.594-4.709.65a15.36 15.36 0 017.756-4.244zm-2.351 8.863a18.66 18.66 0 01-1.774 1.088 19.41 19.41 0 01.928-1.81l.846.722zM1.813 18.83c.588-.927 1.765-2.458 3.844-4.008.04.055.087.106.14.151l.101.087a.402.402 0 00-.053.07 20.222 20.222 0 00-1.358 2.803 13.645 13.645 0 01-2.674.897zm2.582 2.502c.126-.98.405-1.948.726-2.814a20.206 20.206 0 002.754-1.596.397.397 0 00.094-.093l.11.093a.896.896 0 00.13.093c-.618.989-2.002 2.986-3.814 4.317zm4.344-5.031a.099.099 0 01-.14.01l-2.28-1.948a.094.094 0 01-.032-.05.402.402 0 00.037-.108l.697-.817 2.431 2.077-.713.836zm1.54-1.185l-3.042-2.598a.6.6 0 01-.065-.846l3.796-4.476a.403.403 0 00.169-.2l.74-.873.063-.073 3.951 3.375-.063.075-4.705 5.55a.595.595 0 01-.844.066z" fill="#000"/>
  <path d="M16.125 3.657a1.495 1.495 0 00-.972 2.633 1.496 1.496 0 10.972-2.633zm.527 1.946a.693.693 0 11-1.054-.9.693.693 0 011.054.9zM11.101 13.705l3.079-3.644a.401.401 0 00-.613-.517l-3.079 3.643a.401.401 0 10.613.518z" fill="#000"/>
</svg>
