<svg width="24" height="24" fill="none" xmlns="http://www.w3.org/2000/svg">
  <defs/>
  <g fill-rule="evenodd" clip-rule="evenodd">
    <path d="M7.61 20.048l-2.387-.82-2.387.82c0 3.161 4.775 3.161 4.775 0zM12 19.228l-2.388.82c0 3.161 4.776 3.161 4.776 0L12 19.228zM18.915 19.257l-2.526.791c0 3.161 4.774 3.161 4.774 0l-2.248-.79z" fill="#F78411"/>
    <path d="M22.952 18.385L12 17.534l-10.952.851c-.48.766-.1 1.638.88 1.663h20.145c.98-.025 1.36-.897.88-1.663z" fill="gray"/>
    <path d="M11.786 15.04l-8.911 1.644-1.49 1.31c-.14.123-.252.256-.337.391h21.904a1.789 1.789 0 00-.337-.39l-1.394-1.266-9.435-1.689z" fill="#E6E6E6"/>
    <path d="M12.515 16.729h9.045c.675-.01 1.126-.46 1.126-1.622 0-.08-.004-.158-.012-.239-.135-1.432-1.436-3.087-2.523-3.372-1.881-.494-3.346-.885-5.709-1.487-.893-.282-1.623-.58-1.831-.925l-.386-1.63-2.944-.009c-1.735-.006-2.51.692-2.556 2.276.173 4.254-5.256 2.976-5.256.344v4.921c0 .581.314 1.257.859 1.504.172.101.355.16.546.194.252.043.52.045.79.045h8.851z" fill="#50D960"/>
    <path d="M14.663 14.868c-1.282 0-2.147.84-2.147 1.86h9.045c.675-.008 1.125-.46 1.125-1.621 0-.08-.004-.158-.011-.239h-8.012z" fill="gray"/>
    <path d="M15.91 10.383l-.238.826a.472.472 0 00.317.583l.37.11a.468.468 0 00.578-.321l.25-.863.002-.007.034-.115a.473.473 0 00-.319-.584l-.369-.108a.469.469 0 00-.579.32l-.033.115-.013.044zM18.318 10.768l-.03.116-.029.114-.195.764a.472.472 0 00.337.573l.371.096a.468.468 0 00.57-.339l.193-.757.03-.12.03-.116a.47.47 0 00-.336-.572l-.372-.098a.469.469 0 00-.57.339z" fill="#F78411"/>
    <path d="M9.418 1.588l-6.661.008c-.769 0-1.288.427-1.288 1.35v.903L6.44 5.172l5.455-1.323c.032-1.044-.099-2.384-2.478-2.26z" fill="#50D960"/>
    <path d="M6.98 3.849H1.47v6.673c0 2.63 5.429 3.909 5.256-.344.047-1.586.82-2.268 2.556-2.276l3.047-.015-.432-1.82c.3 0 .546-.295.546-.655v-.908c0-.36-.245-.655-.546-.655H6.98z" fill="#E6E6E6"/>
    <path d="M11.513 3.849H6.98c-.297.002-.54.297-.54.655v.908c0 .36.245.655.546.655h4.91c.301 0 .547-.295.547-.655v-.908c0-.36-.246-.655-.546-.655h-.384zM12.611 9.084h-1.489a.655.655 0 00-.65.655v.54c0 .36.292.655.65.655h2.67c.358 0 .651-.294.651-.655v-.54a.655.655 0 00-.65-.655H12.61z" fill="#F78411"/>
    <path d="M7.611 20.048H6.062c0 1.234-.727 1.985-1.613 2.257 1.386.423 3.162-.33 3.162-2.257zM14.389 20.048h-1.55c0 1.234-.727 1.985-1.612 2.257 1.384.423 3.162-.33 3.162-2.257zM19.615 20.048c0 1.234-.726 1.985-1.613 2.257 1.386.423 3.162-.33 3.162-2.257h-1.55z" fill="#F74311"/>
    <path d="M21.221 16.729h-2.61l1.395 1.265a1.763 1.763 0 01.336.391h2.61a1.797 1.797 0 00-.337-.39l-1.394-1.266z" fill="#C2C7CC"/>
    <path d="M22.952 18.385h-2.61c.308.49.263 1.023-.067 1.35-.184.185-.46.304-.813.313h2.61c.98-.025 1.36-.897.88-1.663zM22.675 14.868h-.937c.006.081.01.16.01.239 0 .767-.196 1.224-.523 1.449a1.08 1.08 0 01-.602.173h.938c.675-.01 1.125-.46 1.125-1.622 0-.08-.003-.158-.01-.239z" fill="#666"/>
    <path d="M11.514 3.849h-2.12c.248.002.458.206.521.48.013.056.02.115.02.175v.908c0 .36-.245.655-.545.655h2.507c.3 0 .546-.295.546-.655v-.908c0-.36-.245-.655-.546-.655h-.383z" fill="#F74311"/>
    <path d="M11.896 3.849c.032-1.044-.099-2.384-2.478-2.26h-.886c1.836.106 1.944 1.306 1.915 2.26h1.45z" fill="#2BAD3B"/>
    <path d="M11.758 6.067h-1.272l-.039.001.327 1.383.003.006.102.43.001.007 1.449-.007-.104-.432-.328-1.388h-.139z" fill="#C2C7CC"/>
    <path d="M12.329 7.887l-1.45.007.284 1.19h1.448l-.282-1.197z" fill="#2BAD3B"/>
    <path d="M13.627 9.084h-1.012.001a.655.655 0 01.647.655v.54c0 .36-.293.655-.652.655h1.182c.357 0 .65-.294.65-.655v-.54a.655.655 0 00-.65-.655h-.166zM18.259 10.998c-.04.156-.104.334-.125.486l1.265.364c.055-.14.096-.36.135-.514l.06-.235a.47.47 0 00-.336-.572l-.372-.098a.469.469 0 00-.569.339l-.058.23z" fill="#F74311"/>
    <path d="M18.259 10.998l-1.072-.28-.233.806c.37.096.733.193 1.1.289.002-.017.005-.034.01-.052l.195-.762z" fill="#2BAD3B"/>
    <path d="M16.535 9.904a.469.469 0 00-.579.32l-.045.159-.128.44 1.264.378.14-.483.036-.122a.473.473 0 00-.318-.584l-.37-.108z" fill="#F74311"/>
    <path d="M15.91 10.386l-1.467-.377v.27c0 .172-.068.33-.177.448l1.43.401.074-.26.14-.482zM22.675 14.868c-.135-1.432-1.436-3.087-2.523-3.372l-.008-.003-.074-.019-.535-.14c0 .002 0 .003-.002.004-.035.143-.074.34-.122.48l-.07.274a.362.362 0 01-.018.055l.028.007c.923.242 2 1.472 2.387 2.714h.937z" fill="#2BAD3B"/>
  </g>
  <path d="M23.236 18.2a2.162 2.162 0 00-.395-.458l-.82-.745c.488-.156 1.005-.62 1.005-1.89a2.85 2.85 0 00-.015-.281c-.069-.694-.383-1.468-.886-2.165-.564-.782-1.252-1.326-1.887-1.493l-.297-.078a.81.81 0 00-.597-.891l-.373-.098a.804.804 0 00-.95.485l-.441-.116a.81.81 0 00-.58-.783l-.37-.11a.808.808 0 00-.938.4l-.91-.232V9.74a.994.994 0 00-.99-.995h-.912l-.218-.917a.305.305 0 00-.01-.043L12.3 6.297c.286-.165.482-.5.482-.885v-.907c0-.413-.224-.767-.543-.918-.005-.608-.109-1.252-.593-1.725-.474-.464-1.205-.665-2.236-.613l-2.423.003a.34.34 0 000 .679l2.432-.003h.017c.824-.043 1.408.098 1.736.419.296.29.376.715.388 1.163H1.809v-.564c0-.68.31-1.01.949-1.01l2.537-.003a.34.34 0 000-.679h-.001l-2.537.003c-1.019 0-1.627.632-1.627 1.69v12.04c0 .636.326 1.47 1.041 1.805l.042.022-1.052.926c-.159.14-.29.293-.394.455l-.002.004c-.267.419-.34.89-.185 1.316.192.53.692.856 1.338.873h.597c.163 1.558 1.443 2.37 2.709 2.37s2.546-.812 2.709-2.37H9.29c.163 1.558 1.444 2.37 2.71 2.37s2.547-.812 2.71-2.37h1.357c.163 1.558 1.444 2.37 2.71 2.37s2.546-.812 2.708-2.37h.597c.646-.017 1.146-.344 1.338-.873.154-.425.082-.897-.184-1.316zm-1.678-1.81h-8.663c.169-.702.86-1.182 1.768-1.182h7.682c-.03 1.167-.575 1.179-.787 1.182zm-2.912-5.538a.128.128 0 01.06-.08.125.125 0 01.094-.014l.374.098c.067.017.109.09.091.16l-.253.993a.128.128 0 01-.155.093l-.372-.096a.133.133 0 01-.092-.16l.224-.879.03-.115zm-2.24-.627c.01 0 .022.001.033.004l.37.11c.068.02.107.094.087.164l-.034.12-.003.009v.003l-.248.852a.127.127 0 01-.061.077.125.125 0 01-.095.012l-.37-.11a.132.132 0 01-.087-.162l.284-.984a.13.13 0 01.124-.095zm-2.303-.485v.54c0 .174-.14.315-.31.315h-2.671a.314.314 0 01-.311-.315v-.54c0-.174.14-.316.31-.316H13.793c.172 0 .311.142.311.316zm-2.206-5.551c.097 0 .207.135.207.316v.907c0 .181-.11.316-.207.316H6.986c-.097 0-.207-.135-.207-.315l.002-.908c0-.181.108-.316.205-.316h4.91zm-5.75 0c-.029.099-.045.205-.045.315l-.001.908c0 .549.397.995.885.995h4.642l.27 1.143-2.618.013c-1.922.008-2.842.836-2.894 2.605a.36.36 0 000 .024c.041 1.017-.261 1.754-.876 2.13-.67.412-1.692.368-2.545-.11-.724-.405-1.156-1.037-1.156-1.69V4.189h4.339zm-2.482 12.88h3.88a.34.34 0 000-.68h-3.88c-.432 0-.84 0-1.164-.19a.336.336 0 00-.032-.017c-.429-.195-.66-.761-.66-1.195v-2.825c.226.245.503.463.825.643a3.69 3.69 0 001.786.48c.527 0 1.029-.127 1.446-.384.581-.357 1.26-1.12 1.199-2.724.044-1.386.667-1.928 2.218-1.935l2.776-.014.123.517h-1.06a.993.993 0 00-.99.995v.54c0 .548.444.994.99.994h2.67c.49 0 .9-.36.977-.831l.718.183-.14.489a.81.81 0 00.546 1.003l.37.11a.806.806 0 001-.552l.159-.546.424.112-.11.436c-.11.433.15.875.58.986l.371.096a.808.808 0 00.983-.583l.109-.427.287.075c.84.22 1.924 1.49 2.209 2.704h-7.612c-1.287 0-2.286.78-2.46 1.86H9.1a.34.34 0 100 .68h11.99l1.077.977H1.84l1.142-1.004c.233.026.465.027.683.027zm1.559 5.01c-.903 0-1.868-.531-2.026-1.69H7.25c-.157 1.159-1.123 1.69-2.025 1.69zm6.776 0c-.903 0-1.868-.531-2.026-1.69h4.052c-.158 1.159-1.123 1.69-2.026 1.69zm6.776 0c-.902 0-1.868-.531-2.025-1.69h4.05c-.157 1.159-1.122 1.69-2.025 1.69zm4.006-2.796c-.095.26-.355.415-.714.426H1.932c-.36-.01-.62-.166-.714-.426a.754.754 0 01.034-.558h21.496a.754.754 0 01.034.558z" fill="#000"/>
</svg>
