<svg width="24" height="24" fill="none" xmlns="http://www.w3.org/2000/svg">
  <defs/>
  <path d="M21.428 9.293H2.561v13.192h18.867V9.293z" fill="#CFDCE5"/>
  <path d="M21.428 9.293H2.561v1.42h18.867v-1.42z" fill="#BAC6CC"/>
  <path d="M23.1 9.293H.89l1.99-4.188.736-1.547h16.76L23.1 9.293z" fill="#FCD577"/>
  <path d="M5.465 3.558L4.872 6.14 2.88 5.105l.735-1.547h1.851z" fill="#EAC36E"/>
  <path d="M11.285 12.131H5.083v5.414h6.202V12.13z" fill="#4EBFED"/>
  <path d="M11.285 12.131v5.414H6.958l1.818-5.414h2.509z" fill="#92DDF4"/>
  <path d="M19.168 12.131h-4.796v10.354h4.796V12.131z" fill="#DCE8EF"/>
  <path d="M17.854 13.445h-2.168v7.726h2.168v-7.726z" fill="#4EBFED"/>
  <path d="M8.447 1.515H4.873V6.14h3.574V1.515z" fill="#FF6F52"/>
  <path d="M11.89 17.545H4.478v1.314h7.41v-1.314z" fill="#DCE8EF"/>
  <path d="M9.583 3.952h7.7a.394.394 0 000-.788h-7.7a.394.394 0 000 .788z" fill="#000"/>
  <path d="M23.462 9.124L20.736 3.39a.394.394 0 00-.356-.225h-1.784a.394.394 0 000 .788h1.535l2.351 4.947H1.518l2.351-4.947h.615V6.14c0 .218.177.394.395.394h3.573a.394.394 0 00.395-.394V1.515a.394.394 0 00-.395-.394H4.88a.394.394 0 00-.395.394v1.649H3.62a.394.394 0 00-.356.225L.538 9.124a.394.394 0 00.356.564h1.278v12.797c0 .218.176.394.394.394h18.868a.394.394 0 00.394-.394V9.688h1.278a.394.394 0 00.356-.564zM5.272 1.91h2.786v3.837H5.273V1.909zM21.04 22.091h-1.472v-6.49a.394.394 0 10-.788 0v6.49h-4.008v-9.565h4.008v1.76a.394.394 0 10.788 0v-2.155a.394.394 0 00-.394-.394h-4.796a.394.394 0 00-.394.394v9.96H2.96V9.688h18.08V22.09z" fill="#000"/>
  <path d="M17.86 13.051h-2.168a.394.394 0 00-.394.394v7.726c0 .218.176.395.394.395h2.168a.394.394 0 00.395-.395v-7.726a.394.394 0 00-.395-.394zm-1.774 2.68h1.38v1.183h-1.38v-1.182zm0 1.972h1.38v1.182h-1.38v-1.183zm1.38-3.864v1.104h-1.38V13.84h1.38zm-1.38 6.938v-1.104h1.38v1.104h-1.38zM4.484 19.253h.657a.394.394 0 000-.788h-.263v-.526h6.623v.526H6.192a.394.394 0 000 .788h5.703a.394.394 0 00.394-.394v-1.314a.394.394 0 00-.394-.394h-.21v-5.02a.394.394 0 00-.395-.394H5.088a.394.394 0 00-.394.394v5.02h-.21a.394.394 0 00-.394.394v1.314c0 .217.176.394.394.394zm4.1-2.102v-1.919h2.312v1.919H8.584zm2.312-2.707H8.584v-1.918h2.312v1.918zm-3.1-1.918v1.918H5.482v-1.918h2.312zm-2.313 2.706h2.312v1.919H5.483v-1.919z" fill="#000"/>
</svg>
