<svg width="24" height="24" fill="none" xmlns="http://www.w3.org/2000/svg">
  <defs/>
  <path d="M12 23.163c6.165 0 11.163-4.998 11.163-11.163S18.165.837 12 .837.837 5.835.837 12 5.835 23.163 12 23.163z" fill="#537983"/>
  <path d="M12 .837c-.226 0-.45.007-.674.02 5.851.35 10.49 5.204 10.49 11.143 0 5.939-4.639 10.794-10.49 11.142.223.014.448.021.674.021 6.165 0 11.163-4.998 11.163-11.163S18.165.837 12 .837z" fill="#3E5959"/>
  <path d="M12 21.143a9.144 9.144 0 100-18.287 9.144 9.144 0 000 18.288z" fill="#EF4424"/>
  <g fill="#00C27A">
    <path d="M12 11.999l8.569-3.19a9.143 9.143 0 01.575 3.19H12zM12 11.999l8.315 3.803a9.141 9.141 0 01-1.85 2.662L12 12z"/>
    <path d="M12 11.999l3.19 8.569a9.144 9.144 0 01-3.19.574V12zM12 11.999l-3.804 8.315a9.145 9.145 0 01-2.662-1.85L12 12z"/>
    <path d="M12 11.999l-8.569 3.19A9.144 9.144 0 012.856 12H12zM12 11.999L3.685 8.196a9.145 9.145 0 011.85-2.662L12 11.999zM12 11.999L8.81 3.43A9.143 9.143 0 0112 2.856v9.143zM12 11.999l3.803-8.315a9.147 9.147 0 012.662 1.85L12 11.999z"/>
  </g>
  <path d="M12 18.694a6.694 6.694 0 100-13.388 6.694 6.694 0 000 13.388z" fill="#FBC56D"/>
  <path d="M12 5.306c-.227 0-.452.012-.674.034a6.695 6.695 0 010 13.32A6.694 6.694 0 1012 5.306z" fill="#D8AA5E"/>
  <path d="M12 15.19a3.19 3.19 0 100-6.38 3.19 3.19 0 000 6.38z" fill="#C4573A"/>
  <path d="M12 8.81c-.231 0-.457.025-.674.072a3.191 3.191 0 010 6.236A3.19 3.19 0 1012 8.81z" fill="#A74B30"/>
  <path d="M5.534 5.534l1.732 1.733-1.732-1.733zM3.685 8.197a9.145 9.145 0 011.85-2.662M5.911 9.215L3.685 8.197 5.91 9.215z" fill="#00C27A"/>
  <path d="M20.132 3.868A11.425 11.425 0 0012 .5a11.424 11.424 0 00-8.137 3.374.337.337 0 10.477.476A10.755 10.755 0 0112 1.174c2.892 0 5.61 1.126 7.655 3.17A10.755 10.755 0 0122.826 12c0 2.892-1.126 5.61-3.17 7.655A10.755 10.755 0 0112 22.826c-2.892 0-5.61-1.126-7.655-3.17A10.755 10.755 0 011.174 12c0-2.417.779-4.703 2.253-6.612a.337.337 0 00-.534-.411A11.39 11.39 0 00.5 12c0 3.072 1.196 5.96 3.368 8.132A11.425 11.425 0 0012 23.5c3.072 0 5.96-1.196 8.132-3.368A11.425 11.425 0 0023.5 12c0-3.072-1.196-5.96-3.368-8.132z" fill="#000"/>
  <path d="M12 15.527A3.531 3.531 0 0015.527 12 3.531 3.531 0 0012 8.473c-.719 0-1.41.215-2 .621a.337.337 0 00.383.555A2.857 2.857 0 0114.853 12 2.857 2.857 0 0112 14.853a2.857 2.857 0 01-2.42-4.364.337.337 0 10-.572-.358A3.531 3.531 0 0012 15.527z" fill="#000"/>
  <path d="M12 10.4a.337.337 0 00-.337.336v.737h-.737a.337.337 0 000 .674h.737v.737a.337.337 0 00.673 0v-.737h.737a.337.337 0 000-.674h-.737v-.737A.337.337 0 0012 10.4z" fill="#000"/>
  <path d="M12 21.48c5.227 0 9.48-4.252 9.48-9.48 0-5.228-4.253-9.48-9.48-9.48-5.228 0-9.48 4.252-9.48 9.48 0 5.228 4.252 9.48 9.48 9.48zm0-15.837A6.364 6.364 0 0118.357 12 6.364 6.364 0 0112 18.357 6.364 6.364 0 015.643 12 6.364 6.364 0 0112 5.643zM6.798 16.725l-1.256 1.256a8.83 8.83 0 01-1.671-2.595l1.666-.62c.31.723.739 1.385 1.261 1.96zm.477.477c.45.409.953.76 1.498 1.043l-.74 1.616a8.844 8.844 0 01-2.014-1.403l1.256-1.256zm2.11 1.324c.71.286 1.477.459 2.278.497V20.8a8.75 8.75 0 01-3.017-.658l.74-1.616zm2.952.497a6.99 6.99 0 001.798-.324l.62 1.666a8.757 8.757 0 01-2.418.435v-1.777zm2.429-.56a7.048 7.048 0 001.96-1.261l1.255 1.256a8.827 8.827 0 01-2.595 1.671l-.62-1.666zm2.436-1.738c.409-.45.76-.953 1.043-1.498l1.616.74a8.842 8.842 0 01-1.404 2.014l-1.255-1.256zm1.324-2.11c.286-.71.459-1.477.497-2.278h1.776a8.747 8.747 0 01-.657 3.017l-1.616-.74zm.497-2.952a6.99 6.99 0 00-.324-1.798l1.666-.62c.253.766.403 1.577.434 2.418h-1.776zm-.56-2.429a7.052 7.052 0 00-1.261-1.96l1.255-1.255a8.83 8.83 0 011.672 2.595l-1.666.62zm-1.738-2.436c-.45-.409-.953-.76-1.498-1.043l.74-1.616a8.844 8.844 0 012.014 1.403l-1.256 1.256zm-2.11-1.324a6.982 6.982 0 00-2.278-.496V3.2c1.064.04 2.08.27 3.017.658l-.74 1.616zm-2.952-.496a6.99 6.99 0 00-1.798.323l-.62-1.666a8.758 8.758 0 012.418-.435v1.778zm-2.429.559a7.05 7.05 0 00-1.96 1.261L6.02 5.542a8.83 8.83 0 012.595-1.671l.62 1.666zM6.798 7.275c-.409.45-.76.953-1.043 1.498l-1.616-.74A8.845 8.845 0 015.542 6.02l1.256 1.256zm-1.324 2.11a6.983 6.983 0 00-.497 2.278H3.2c.04-1.064.27-2.08.658-3.017l1.616.74zm-.497 2.952c.03.624.141 1.226.324 1.798l-1.666.62a8.757 8.757 0 01-.435-2.418h1.777z" fill="#000"/>
</svg>
