<svg width="24" height="24" fill="none" xmlns="http://www.w3.org/2000/svg">
  <defs/>
  <path d="M5.788 21.67H4.9v-4.437h3.042l-.65 3.208a1.535 1.535 0 01-1.503 1.23z" fill="#3E5959"/>
  <path d="M6.594 17.233l-.649 3.208c-.113.56-.523.996-1.045 1.16v.07h.888c.73 0 1.36-.515 1.505-1.23l.649-3.208H6.594z" fill="#384949"/>
  <path d="M18.211 21.67h.888v-4.437h-3.041l.649 3.208c.145.715.774 1.23 1.504 1.23z" fill="#3E5959"/>
  <path d="M17.752 17.233V21.6c.146.046.3.07.46.07h.888v-4.437h-1.348z" fill="#384949"/>
  <path d="M22.246 18.77H1.754a.917.917 0 01-.917-.918V3.246c0-.506.41-.917.917-.917h20.492c.507 0 .917.41.917.917v14.606c0 .507-.41.917-.917.917z" fill="#7CA1B1"/>
  <path d="M22.246 2.33h-1.348c.507 0 .918.41.918.916v14.606c0 .507-.411.917-.918.917h1.348c.507 0 .917-.41.917-.917V3.246a.917.917 0 00-.917-.917z" fill="#678D98"/>
  <path d="M2.41 16.618V4.48c0-.32.258-.579.578-.579h18.024c.32 0 .579.26.579.58v12.137c0 .32-.26.579-.579.579H2.988a.579.579 0 01-.579-.579z" fill="#A8D3D8"/>
  <path d="M21.012 3.902h-1.348c.32 0 .579.259.579.578v12.138c0 .32-.26.579-.579.579h1.348c.32 0 .579-.26.579-.579V4.48c0-.32-.26-.578-.58-.578z" fill="#8EBAC5"/>
  <path d="M16.177 13.94a3.391 3.391 0 100-6.782 3.391 3.391 0 000 6.783z" fill="#678D98"/>
  <path d="M16.177 12.375a1.826 1.826 0 100-3.652 1.826 1.826 0 000 3.652z" fill="#DEECF1"/>
  <path d="M16.177 8.723a1.82 1.82 0 00-.674.13 1.826 1.826 0 010 3.393 1.826 1.826 0 10.674-3.523z" fill="#A8D3D8"/>
  <path d="M5.031 10.087a.32.32 0 100-.64.32.32 0 000 .64zM6.692 10.087a.32.32 0 100-.64.32.32 0 000 .64zM8.354 10.087a.32.32 0 100-.64.32.32 0 000 .64zM5.031 11.434a.32.32 0 100-.64.32.32 0 000 .64zM6.692 11.434a.32.32 0 100-.64.32.32 0 000 .64zM8.354 11.434a.32.32 0 100-.64.32.32 0 000 .64zM5.031 12.78a.32.32 0 100-.64.32.32 0 000 .64zM6.692 12.78a.32.32 0 100-.64.32.32 0 000 .64zM8.354 12.78a.32.32 0 100-.64.32.32 0 000 .64z" fill="#000"/>
  <path d="M7.047 7.965H2.409V5.992h4.638a.987.987 0 110 1.973z" fill="#DEECF1"/>
  <path d="M7.047 5.992H5.699a.987.987 0 010 1.973h1.348a.987.987 0 100-1.973z" fill="#A8D3D8"/>
  <path d="M22.246 1.992H1.754C1.063 1.992.5 2.555.5 3.246v14.606c0 .692.563 1.254 1.254 1.254h2.81v2.565c0 .186.15.337.336.337h.889c.886 0 1.658-.631 1.834-1.5l.284-1.402h1.642a.337.337 0 000-.674H1.754c-.32 0-.58-.26-.58-.58V3.246c0-.32.26-.58.58-.58h20.492c.32 0 .58.26.58.58v14.606c0 .32-.26.58-.58.58h-11.35a.337.337 0 000 .674h5.197l.284 1.401c.176.87.948 1.5 1.835 1.5h.888c.186 0 .337-.15.337-.336v-2.565h2.809c.691 0 1.254-.562 1.254-1.254V3.246c0-.691-.563-1.254-1.254-1.254zM6.962 20.374c-.112.556-.606.96-1.173.96h-.552v-2.228H7.22l-.257 1.268zm11.8.96h-.55a1.201 1.201 0 01-1.174-.96l-.257-1.268h1.982v2.228z" fill="#000"/>
  <path d="M2.988 4.238h6.07a.337.337 0 000-.673h-6.07a.917.917 0 00-.916.915v12.138c0 .505.411.916.916.916h18.024c.505 0 .916-.411.916-.916V4.48a.917.917 0 00-.916-.915H10.405a.337.337 0 000 .673h10.607c.133 0 .242.109.242.242v12.138a.242.242 0 01-.242.242H2.988a.242.242 0 01-.242-.242V8.302h4.301c.73 0 1.324-.594 1.324-1.323 0-.73-.594-1.324-1.324-1.324h-4.3V4.48c0-.133.108-.242.241-.242zm4.059 2.09a.65.65 0 010 1.3h-4.3v-1.3h4.3z" fill="#000"/>
  <path d="M19.905 10.55a3.732 3.732 0 00-3.729-3.73 3.733 3.733 0 00-3.728 3.73 3.733 3.733 0 003.729 3.728 3.733 3.733 0 003.728-3.729zm-6.764.336h.899c.054.346.19.664.388.935l-.635.635a3.04 3.04 0 01-.652-1.57zm.652-2.244l.635.636c-.197.27-.334.589-.388.934h-.899c.065-.59.299-1.13.652-1.57zm5.419 1.57h-.899a2.152 2.152 0 00-.388-.934l.635-.636c.353.44.587.98.652 1.57zm-.652 2.244l-.635-.635c.197-.271.334-.59.388-.935h.899a3.039 3.039 0 01-.652 1.57zm-3.873-1.907c0-.82.668-1.489 1.49-1.489.82 0 1.489.668 1.489 1.49 0 .82-.668 1.489-1.49 1.489a1.49 1.49 0 01-1.489-1.49zm1.827 2.137c.345-.054.663-.19.934-.389l.636.636a3.04 3.04 0 01-1.57.652v-.9zm.934-3.885a2.151 2.151 0 00-.935-.388v-.9a3.04 3.04 0 011.57.653l-.635.635zm-1.608-.388c-.346.054-.664.19-.935.388l-.635-.635a3.04 3.04 0 011.57-.652v.899zm-.935 3.884c.27.198.59.335.935.389v.899a3.04 3.04 0 01-1.57-.652l.635-.636zM5.124 13.633a.337.337 0 000 .674h1.569a.337.337 0 000-.674H5.124zM11.087 13.896v-4.52a.337.337 0 10-.674 0v4.52a.337.337 0 00.674 0z" fill="#000"/>
</svg>
