<svg width="24" height="24" fill="none" xmlns="http://www.w3.org/2000/svg">
  <defs/>
  <path d="M21.766 3.642H2.31V20.47h19.457V3.642zM3.803 18.065a.482.482 0 01-.48-.48V6.527c0-.265.216-.481.48-.481h15.678c.264 0 .481.216.481.48v11.057a.482.482 0 01-.481.481H3.803z" fill="#BED8E4"/>
  <path d="M19.148 6.047H4.261v12.018h14.887V6.047z" fill="#D3E8F1"/>
  <path d="M2.31 3.642H1.65a.675.675 0 00-.673.674v15.48c0 .37.303.674.673.674h.658V3.642z" fill="#EBF9FE"/>
  <path d="M22.462 20.47c.37 0 .674-.303.674-.674V4.316a.676.676 0 00-.674-.674h-.695V20.47h.695z" fill="#B1C6D3"/>
  <path d="M3.803 6.047a.482.482 0 00-.48.481v11.056c0 .265.216.481.48.481h.458V6.047h-.458z" fill="#EBF9FE"/>
  <g fill="#B1C6D3">
    <path d="M19.481 18.064a.483.483 0 00.481-.48V6.526a.483.483 0 00-.48-.481h-.333v12.018h.332zM14.733 14.991a2.844 2.844 0 100-5.688 2.844 2.844 0 000 5.688z"/>
  </g>
  <path d="M13.909 14.996a2.844 2.844 0 100-5.689 2.844 2.844 0 000 5.69z" fill="#BED8E4"/>
  <path d="M19.906 14.044a.42.42 0 01-.42-.421V10.56a.42.42 0 11.841 0v3.063a.421.421 0 01-.42.421z" fill="#000"/>
  <path d="M19.424 18.43H3.747a.903.903 0 01-.902-.902V6.472c0-.497.404-.902.902-.902h15.677c.498 0 .902.404.902.902v1.05a.421.421 0 01-.841 0v-1.05a.062.062 0 00-.06-.06H3.746a.062.062 0 00-.06.06v11.056c0 .032.028.06.06.06h15.677c.032 0 .06-.028.06-.06v-.961a.421.421 0 11.842 0v.961a.903.903 0 01-.902.902z" fill="#000"/>
  <path d="M20.743 15.552H19.08a.42.42 0 010-.842h1.663a.421.421 0 010 .842zM20.743 9.462H19.08a.421.421 0 010-.842h1.663a.421.421 0 010 .842zM7.218 14.859h-.43a.42.42 0 110-.842h.43a.421.421 0 010 .842zM5.506 10.239a.413.413 0 100-.826.413.413 0 000 .826zM7.003 10.239a.413.413 0 100-.826.413.413 0 000 .826zM8.5 10.239a.413.413 0 100-.826.413.413 0 000 .826zM5.506 11.71a.413.413 0 100-.826.413.413 0 000 .825zM7.003 11.71a.413.413 0 100-.826.413.413 0 000 .825zM8.5 11.71a.413.413 0 100-.826.413.413 0 000 .825zM5.506 13.18a.413.413 0 100-.825.413.413 0 000 .825zM7.003 13.18a.413.413 0 100-.825.413.413 0 000 .825zM8.5 13.18a.413.413 0 100-.825.413.413 0 000 .825zM14.676 8.827a3.27 3.27 0 00-3.237 2.844h-1.082a.421.421 0 000 .842h1.082a3.27 3.27 0 003.237 2.844c1.8 0 3.266-1.465 3.266-3.265a3.27 3.27 0 00-3.266-3.265zm0 5.688a2.427 2.427 0 01-2.386-2.002h1.088c.177.544.69.938 1.292.938a1.36 1.36 0 000-2.719c-.603 0-1.115.395-1.292.939H12.29a2.427 2.427 0 012.386-2.003 2.426 2.426 0 012.424 2.424 2.426 2.426 0 01-2.424 2.423zm-.524-2.423a.518.518 0 111.036.001.518.518 0 01-1.036-.001z" fill="#000"/>
  <path d="M22.406 20.835H8.514a.421.421 0 010-.842h13.892a.256.256 0 00.252-.253V4.26a.256.256 0 00-.252-.253H19.76a.421.421 0 010-.842h2.646c.603 0 1.094.491 1.094 1.095v15.48c0 .604-.49 1.095-1.094 1.095zM6.201 20.835H1.594A1.096 1.096 0 01.5 19.74V4.26c0-.604.491-1.094 1.094-1.094h15.992a.421.421 0 010 .841H1.594a.256.256 0 00-.252.253v15.48c0 .137.116.253.252.253h4.607a.421.421 0 010 .842z" fill="#000"/>
</svg>
