<svg width="24" height="24" fill="none" xmlns="http://www.w3.org/2000/svg">
  <defs>
    <path d="M21.42 1.61a57.252 57.252 0 00-12.558 0 57.252 57.252 0 000 12.558c4.186.46 8.372.46 12.557 0 .461-4.186.461-8.371 0-12.557z" fill="#D3CED5" id="reuse-0"/>
  </defs>
  <use xlink:href="#reuse-0"/>
  <use xlink:href="#reuse-0"/>
  <path d="M9.843 4.3c.033-.53.075-1.057.123-1.584 1.723-.16 3.459-.24 5.175-.24 1.715 0 3.452.08 5.174.24.317 3.437.317 6.91 0 10.348-1.722.159-3.459.24-5.174.24-1.716 0-3.452-.081-5.175-.24a55.864 55.864 0 01-.123-1.584" fill="#EEEBEE"/>
  <path d="M15.14 11.85a3.96 3.96 0 100-7.92 3.96 3.96 0 000 7.92z" fill="#5E6B75"/>
  <path d="M15.14 9.619a1.73 1.73 0 100-3.458 1.73 1.73 0 000 3.458z" fill="#EEEBEE"/>
  <path d="M9.97 6.551c.301 0 .545-.244.545-.544v-1.18a.544.544 0 10-1.088 0v1.18c0 .3.243.544.544.544zM9.97 11.495c.301 0 .545-.243.545-.544V9.772a.544.544 0 10-1.088 0v1.18c0 .3.243.543.544.543z" fill="#5E6B75"/>
  <path d="M22.616 16.416l-5.864 4.703c-.482.387-1.1.563-1.714.488l-7.902-.962-2.106.78c-1.13-1.164-.666-4.907-.666-4.907l.502-.137a1.901 1.901 0 011.062-1.832l3.39-1.655 1.742-.85a1.656 1.656 0 011.578 2.909L9.82 16.639l4.74.826c.571.099 1.158-.02 1.644-.337l4.715-3.06a1.45 1.45 0 011.697 2.347z" fill="#F1D0A5"/>
  <path d="M15.025 20.344c-3.246.422-5.484-1.482-6.838-3.273a1.909 1.909 0 01.492-2.76c3.27-2.095 4.115-2.018 4.563-1.57a1.656 1.656 0 00-2.182-.698l-1.743.851-2.747 1.342-.642.313a1.9 1.9 0 00-1.062 1.832l-.502.137s-.465 3.743.666 4.906l2.106-.778 7.902.961a2.296 2.296 0 001.714-.487l5.864-4.704c-2.027-.55-5.404 3.593-7.59 3.928z" fill="#F1B986"/>
  <path d="M3.663 16.047a6.832 6.832 0 00-2.822.997 55.33 55.33 0 002.01 5.69 6.832 6.832 0 002.822-.998 55.32 55.32 0 00-2.01-5.689z" fill="#80A6C6"/>
  <path d="M5.673 21.736a6.822 6.822 0 01-2.822.997 55.865 55.865 0 01-.582-1.46 7.261 7.261 0 002.944-1.03c.16.495.314.993.46 1.493z" fill="#5B8EB8"/>
  <path d="M23.436 14.81a1.793 1.793 0 00-1.606-1.308c.298-3.048.354-6.133.165-9.175a.34.34 0 10-.68.043 57.14 57.14 0 01-.179 9.22 1.76 1.76 0 00-.403.193l-.205.133c-2.27.216-4.569.295-6.843.238.056-.17.088-.347.097-.527a56.832 56.832 0 006.564-.224.34.34 0 00.308-.308 56.798 56.798 0 000-10.41.341.341 0 00-.308-.309c-1.73-.16-3.481-.241-5.206-.241-1.724 0-3.476.081-5.205.241a.34.34 0 00-.309.308c-.042.464-.079.929-.11 1.386a.884.884 0 00-.43.758v1.179c0 .271.123.514.315.676a56.019 56.019 0 000 2.413.883.883 0 00-.315.676v1.18c0 .32.173.602.43.757.015.225.032.454.05.684l-.509.249A57.135 57.135 0 019.171 1.92a57.183 57.183 0 0111.938 0c.04.37.074.739.105 1.098a.34.34 0 10.68-.058 57.1 57.1 0 00-.136-1.387.34.34 0 00-.302-.301 57.861 57.861 0 00-12.632 0 .34.34 0 00-.301.301 57.806 57.806 0 00-.122 11.39l-2.621 1.28a2.24 2.24 0 00-1.255 1.879l-.416.114a51.75 51.75 0 00-.132-.32.34.34 0 00-.356-.207 7.203 7.203 0 00-2.96 1.046.34.34 0 00-.147.385 55.93 55.93 0 002.022 5.724.34.34 0 00.356.207 7.2 7.2 0 002.961-1.046A.34.34 0 006 21.64l-.056-.19 1.233-.456.668.081a.341.341 0 00.082-.677l-.75-.091a.34.34 0 00-.16.019l-1.272.47a56.066 56.066 0 00-1.38-3.923l.592-.164a.341.341 0 00.249-.35 1.56 1.56 0 01.872-1.503l5.131-2.506a1.316 1.316 0 011.253 2.31l-2.817 1.688a.34.34 0 00.117.628l4.74.826a2.631 2.631 0 001.888-.386l4.715-3.061a1.102 1.102 0 011.48.25 1.11 1.11 0 01-.183 1.545l-5.863 4.704c-.408.327-.94.478-1.46.415l-5.798-.706a.341.341 0 00-.082.677l5.798.706a2.651 2.651 0 001.969-.56l5.852-4.695a1.792 1.792 0 00.618-1.88zm-20.37 7.548a55.28 55.28 0 01-1.823-5.157 6.508 6.508 0 012.206-.78A55.292 55.292 0 015.27 21.58a6.505 6.505 0 01-2.206.78zM9.97 6.21a.203.203 0 01-.203-.203V4.828a.203.203 0 01.406 0v1.179a.203.203 0 01-.203.203zm.203 4.741a.203.203 0 01-.406 0V9.772a.203.203 0 01.406 0v1.18zm1.087.654c-.12.032-.238.077-.351.132l-.685.334-.02-.267a.886.886 0 00.65-.853V9.772a.886.886 0 00-.776-.877 55.19 55.19 0 010-2.01.886.886 0 00.777-.878V4.828a.886.886 0 00-.65-.852c.022-.313.046-.63.074-.946a55.983 55.983 0 014.86-.213c1.61 0 3.244.071 4.86.213a56.101 56.101 0 010 9.72 56.112 56.112 0 01-6.305.193 1.988 1.988 0 00-2.435-1.338zm4.758 5.238c-.415.27-.912.372-1.4.287l-3.837-.668 2.03-1.218c.193-.115.359-.258.497-.42a57.23 57.23 0 006.009-.122l-3.299 2.141z" fill="#000"/>
  <path d="M11.397 14.862a.87.87 0 00.41-.103l.422-.225a.34.34 0 10-.32-.602l-.423.226a.184.184 0 01-.238-.058 2.683 2.683 0 01-.373-.861.34.34 0 00-.67.129c.005.023.112.568.477 1.112a.859.859 0 00.715.382zM3.816 21.452a.344.344 0 00.332-.266c.07-.3-.282-.528-.53-.352a.344.344 0 00-.12.4c.05.13.178.218.318.218zM19.442 7.89a4.306 4.306 0 00-4.302-4.302A4.306 4.306 0 0010.84 7.89a4.306 4.306 0 004.301 4.301 4.306 4.306 0 004.302-4.301zm-5.69 0A1.39 1.39 0 0115.14 6.5 1.39 1.39 0 0116.53 7.89a1.39 1.39 0 01-1.389 1.388 1.39 1.39 0 01-1.388-1.388zm1.73 2.041c.316-.053.609-.178.86-.358l1.104 1.104a3.603 3.603 0 01-1.965.816V9.93zm1.342-.84c.18-.25.305-.544.358-.86h1.561a3.603 3.603 0 01-.815 1.964l-1.104-1.104zm.358-1.542a2.057 2.057 0 00-.358-.861l1.104-1.104c.451.544.746 1.222.815 1.965h-1.561zm-.84-1.343a2.059 2.059 0 00-.86-.358V4.287c.742.07 1.42.364 1.964.815l-1.104 1.104zm-1.543-.358c-.317.053-.61.178-.86.358l-1.104-1.104a3.603 3.603 0 011.964-.815v1.561zm-1.343.84c-.18.251-.304.544-.357.86h-1.562c.07-.742.364-1.42.815-1.964l1.104 1.104zM13.1 8.23c.053.317.178.61.357.861l-1.104 1.104a3.604 3.604 0 01-.815-1.965H13.1zm.84 1.343c.25.18.543.305.86.358v1.562a3.603 3.603 0 01-1.964-.816l1.103-1.104z" fill="#000"/>
</svg>
