<svg width="24" height="24" fill="none" xmlns="http://www.w3.org/2000/svg">
  <defs/>
  <path d="M16.426 1.894c-3.721 0-6.738 2.242-6.738 7.255 0 4.06 2.03 10.729 4.76 12.828a.614.614 0 00.979-.598c-.196-1.047-.39-3.013-.39-4.3 0-3.991.621-4.453 1.389-4.453.767 0 1.389.462 1.389 4.452 0 1.288-.095 3.254-.29 4.3a.614.614 0 00.98.599c2.729-2.1 4.658-8.768 4.658-12.828 0-5.013-3.016-7.255-6.737-7.255z" fill="#FDB1B9"/>
  <path d="M19.22 2.386c1.301 1.184 2.114 3.039 2.114 5.64 0 3.525-1.454 9.015-3.624 11.775a15.703 15.703 0 01-.185 1.578.614.614 0 00.98.598c2.73-2.1 4.659-8.768 4.659-12.828 0-3.67-1.618-5.855-3.944-6.763z" fill="#FC8086"/>
  <path d="M16.426 9.277a1.52 1.52 0 100-3.039 1.52 1.52 0 000 3.039z" fill="#F9F0F0"/>
  <path d="M16.968 6.338A1.52 1.52 0 0115.007 8.3a1.52 1.52 0 101.961-1.96z" fill="#F1E8E4"/>
  <path d="M9.382 11.313H7.974v3.053h1.018a1.108 1.108 0 110 2.216H7.246v1.555h2.136a3.412 3.412 0 100-6.824z" fill="#FC8186"/>
  <path d="M10.94 11.69a3.412 3.412 0 01-2.463 5.772h-1.23v.675h2.135a3.412 3.412 0 001.559-6.447z" fill="#FB4753"/>
  <path d="M10.1 12.803c0 1.128-.524 1.922-2.037 1.922-1.497 0-2.058-1.114-3.137-1.516-1.746-.652-2.342-.333-2.342-.918 0-1.129 3.966-1.653 5.48-1.653 1.512 0 2.035 1.036 2.035 2.165z" fill="#FC8186"/>
  <path d="M9.186 10.902c.094.282.135.592.135.91 0 1.128-.523 1.922-2.036 1.922-1.497 0-2.059-1.114-3.138-1.517a8.996 8.996 0 00-1.325-.385c-.152.14-.238.293-.238.459 0 .584.596.266 2.342.918 1.079.402 1.64 1.516 3.137 1.516 1.513 0 2.036-.794 2.036-1.922 0-.784-.252-1.522-.913-1.9z" fill="#FB4753"/>
  <path d="M7.384 16.582l-2.13-.864a.592.592 0 00-.814.549v.397a.732.732 0 000 1.322v.398c0 .42.425.706.814.548l2.13-.864c.667-.27.667-1.215 0-1.486z" fill="#FC8186"/>
  <path d="M7.384 16.582l-.145-.059a.794.794 0 01-.493.846l-2.13.864a.592.592 0 01-.176.042v.109c0 .42.425.706.814.548l2.13-.864a.802.802 0 000-1.486z" fill="#FB4753"/>
  <path d="M22.833 5.49a.337.337 0 00-.62.262c.407.964.614 2.107.614 3.397 0 2.022-.482 4.655-1.288 7.042-.892 2.638-2.042 4.598-3.24 5.519a.273.273 0 01-.316.017.27.27 0 01-.127-.286c.195-1.04.296-2.982.296-4.363 0-3.536-.451-4.79-1.726-4.79-1.274 0-1.726 1.254-1.726 4.79 0 .417.02.932.06 1.488a.337.337 0 10.671-.047c-.037-.54-.057-1.04-.057-1.44 0-4.117.684-4.117 1.052-4.117s1.053 0 1.053 4.116c0 1.317-.1 3.25-.285 4.239a.943.943 0 00.437.984.95.95 0 001.079-.057c1.302-1.001 2.533-3.074 3.467-5.838.829-2.452 1.323-5.165 1.323-7.257 0-1.38-.224-2.611-.667-3.66z" fill="#000"/>
  <path d="M15.565 19.972a.337.337 0 10-.67.077c.063.541.132 1.023.201 1.392a.27.27 0 01-.127.286.273.273 0 01-.316-.017c-.988-.76-1.946-2.205-2.78-4.187a3.74 3.74 0 001.258-2.798 3.743 3.743 0 00-2.979-3.67 15.873 15.873 0 01-.127-1.906c0-4.332 2.393-6.919 6.4-6.919 2.197 0 4.012.825 5.11 2.321a.337.337 0 10.544-.398c-1.229-1.674-3.236-2.596-5.653-2.596-2.032 0-3.76.637-5 1.843C10.07 4.722 9.353 6.71 9.353 9.15c0 .469.027.974.079 1.507-.327-.207-.77-.355-1.368-.355-.769 0-2.155.13-3.382.412-.936.216-1.596.477-1.991.788a1.235 1.235 0 01-.197-.369c-.133-.397.054-.832.416-.97l1.014-.388.122-.049a8.912 8.912 0 003.99-1.19.337.337 0 10-.337-.584 8.314 8.314 0 01-2.013.836c.224-.172.44-.357.646-.557a.337.337 0 10-.47-.484A6.415 6.415 0 013.895 9.06a7.959 7.959 0 01-.305.006H2.174C1.251 9.065.5 9.858.5 10.833S1.251 12.6 2.174 12.6H2.3c.137.34.519.414.918.49.37.07.875.167 1.59.433.36.135.667.368.992.614.57.433 1.217.924 2.263.924.551 0 .977-.098 1.307-.26a.772.772 0 01-.379 1.443H7.448l-2.067-.839a.927.927 0 00-1.277.86v.212c-.26.2-.418.514-.418.847 0 .334.158.647.418.847v.212a.927.927 0 001.277.86l1.898-.77h2.103c.708 0 1.37-.197 1.935-.54.635 1.477 1.623 3.308 2.925 4.31a.95.95 0 001.516-.927 20.075 20.075 0 01-.193-1.345zm-14.391-9.14c0-.602.448-1.093 1-1.093h.136a1.478 1.478 0 00-.456 1.606c.071.214.178.41.314.582-.549-.004-.994-.493-.994-1.094zm3.954 7.788a.252.252 0 01-.239-.025.252.252 0 01-.112-.211v-.398a.337.337 0 00-.192-.304.393.393 0 010-.714.337.337 0 00.192-.304v-.398c0-.122.079-.188.112-.21a.252.252 0 01.238-.025l2.13.863c.27.11.29.358.29.431 0 .073-.02.322-.29.431l-2.13.864zm2.992-.82a1.163 1.163 0 00.028-.882h.843a1.446 1.446 0 00.941-2.54c.33-.375.458-.85.493-1.285a.337.337 0 00-.672-.054c-.075.933-.596 1.35-1.69 1.35-.819 0-1.323-.383-1.856-.788-.35-.265-.71-.539-1.164-.708a9.65 9.65 0 00-1.699-.464c-.167-.032-.354-.067-.421-.1a.346.346 0 01-.002-.038c0-.179.402-.574 1.91-.921 1.125-.26 2.477-.395 3.232-.395.682 0 1.166.236 1.438.701a.337.337 0 00.548.047 3.07 3.07 0 012.408 3.002A3.079 3.079 0 019.382 17.8H8.12z" fill="#000"/>
  <path d="M14.57 7.758c0 1.023.832 1.856 1.855 1.856a1.858 1.858 0 001.857-1.856A1.858 1.858 0 0016.425 5.9a1.858 1.858 0 00-1.856 1.857zm3.038 0a1.184 1.184 0 01-2.365 0c0-.653.53-1.183 1.182-1.183.652 0 1.183.53 1.183 1.183zM6.734 12.803a.512.512 0 100-1.024.512.512 0 000 1.024z" fill="#000"/>
</svg>
