<svg width="24" height="24" fill="none" xmlns="http://www.w3.org/2000/svg">
  <defs/>
  <path d="M19.93 14.307H3.915c-1.233 0-2.233-1-2.233-2.233v-.05c0-1.233 1-2.233 2.233-2.233H19.93c1.233 0 2.233 1 2.233 2.234v.049c0 1.233-1 2.233-2.233 2.233z" fill="#A95E2C"/>
  <path d="M20.54 9.882a2.259 2.259 0 01-2.166 2.893H2.406c-.22 0-.433-.032-.635-.09a2.258 2.258 0 002.167 1.622h15.968a2.258 2.258 0 00.635-4.425z" fill="#9B5526"/>
  <path d="M1.287 13.417a.448.448 0 00-.396.658c1.25 2.331 5.75 3.45 11.11 3.45 5.359 0 9.858-1.119 11.109-3.45a.448.448 0 00-.396-.658H1.287z" fill="#FDB143"/>
  <path d="M22.714 13.417H21.12c-1.744 1.812-5.808 2.685-10.544 2.685-4.051 0-7.61-.64-9.647-1.959 1.3 2.285 5.764 3.382 11.07 3.382 5.36 0 9.86-1.119 11.11-3.45a.448.448 0 00-.396-.658z" fill="#FA9801"/>
  <path d="M15.261 9.175H5.826c-1.267 0-2.328 1.037-2.304 2.304a2.26 2.26 0 003.095 2.055.17.17 0 01.22.1 2.26 2.26 0 003.574.897.17.17 0 01.22 0 2.26 2.26 0 003.575-.9.169.169 0 01.222-.096c.305.121.643.178.997.153a2.268 2.268 0 002.09-2.097 2.26 2.26 0 00-2.254-2.416z" fill="#13B866"/>
  <path d="M16.864 9.843a2.268 2.268 0 01-2.094 2.304 2.258 2.258 0 01-.998-.153.169.169 0 00-.221.096 2.26 2.26 0 01-3.575.9.17.17 0 00-.22 0 2.26 2.26 0 01-3.574-.897.17.17 0 00-.22-.1 2.252 2.252 0 01-2.44-.508 2.26 2.26 0 003.095 2.05.17.17 0 01.22.1 2.26 2.26 0 003.574.896.17.17 0 01.22 0 2.26 2.26 0 003.575-.9.169.169 0 01.222-.096 2.258 2.258 0 003.088-1.944 2.254 2.254 0 00-.652-1.748z" fill="#09A657"/>
  <path d="M22.714 10.583c.338 0 .555-.36.396-.658-1.25-2.332-5.75-3.45-11.11-3.45-5.359 0-9.859 1.118-11.109 3.45a.448.448 0 00.396.658h21.427z" fill="#FDB143"/>
  <path d="M23.109 9.925c-1.25-2.332-5.75-3.45-11.11-3.45-.394 0-.784.006-1.169.018 4.835.153 8.781 1.272 9.94 3.432a.448.448 0 01-.396.658h2.339c.338 0 .556-.36.396-.658z" fill="#FA9801"/>
  <path d="M22.713 13.08h-.417c.135-.316.205-.656.205-1.008v-.046c0-.385-.087-.763-.25-1.106h.462a.78.78 0 00.675-.382.777.777 0 00.018-.773c-.645-1.203-2.064-2.133-4.216-2.763-1.932-.566-4.418-.864-7.19-.864-2.772 0-5.258.298-7.19.864-2.152.63-3.57 1.56-4.216 2.763a.777.777 0 00.018.773.78.78 0 00.675.382h.306c-.163.343-.25.721-.25 1.106v.046c0 .352.07.692.204 1.008h-.26a.78.78 0 00-.675.382.777.777 0 00-.018.773c.645 1.203 2.064 2.133 4.216 2.763 1.932.566 4.418.864 7.19.864 2.957 0 5.57-.337 7.553-.975a.337.337 0 10-.206-.642c-1.919.617-4.459.943-7.347.943-2.709 0-5.13-.29-7-.837-1.945-.57-3.263-1.411-3.812-2.435a.106.106 0 01.003-.107.109.109 0 01.096-.055h3.326a2.586 2.586 0 001.973.15 2.58 2.58 0 002.357 1.507c.571 0 1.127-.19 1.578-.536a2.597 2.597 0 002.39.406.337.337 0 00-.21-.64 1.921 1.921 0 01-1.85-.366.505.505 0 00-.66 0 1.921 1.921 0 01-1.248.461c-.798 0-1.502-.48-1.792-1.224a.517.517 0 00-.273-.285.498.498 0 00-.386-.006 1.91 1.91 0 01-.71.136 1.932 1.932 0 01-1.923-1.885 1.848 1.848 0 01.073-.552h2.366a.337.337 0 000-.674H1.287a.109.109 0 01-.096-.055.106.106 0 01-.003-.107C1.738 9.06 3.055 8.218 5 7.65 6.87 7.101 9.291 6.812 12 6.812c2.709 0 5.13.29 7 .837 1.945.57 3.263 1.411 3.812 2.435a.106.106 0 01-.003.107.109.109 0 01-.096.055H7.992a.337.337 0 100 .674h9.122a1.926 1.926 0 01-2.562 2.302.504.504 0 00-.66.287 1.917 1.917 0 01-.101.219.337.337 0 00.593.321c.025-.047.05-.096.073-.145a2.584 2.584 0 001.97-.15h6.286c.055 0 .084.034.096.055.012.02.028.06.003.107-.365.68-1.057 1.275-2.058 1.768a.337.337 0 00.298.605c1.13-.557 1.922-1.248 2.354-2.055a.777.777 0 00-.018-.772.78.78 0 00-.675-.382zm-18.94 0H2.305a1.88 1.88 0 01-.289-1.008v-.046a1.9 1.9 0 01.356-1.106h.865a2.579 2.579 0 00.534 2.16zm17.698-2.16c.23.321.355.708.355 1.106v.046c0 .361-.1.706-.289 1.008h-4.269a2.579 2.579 0 00.539-2.16h3.664z" fill="#000"/>
  <path d="M11.481 8.919c.243 0 .44-.348.44-.777 0-.43-.197-.777-.44-.777s-.44.347-.44.777c0 .429.197.777.44.777zM14.928 8.948c.172-.172.066-.557-.238-.86-.303-.304-.688-.41-.86-.239-.172.172-.066.557.238.86.303.304.689.41.86.239zM8.883 9.12c.43 0 .777-.197.777-.44s-.347-.44-.777-.44c-.429 0-.777.197-.777.44s.348.44.777.44z" fill="#000"/>
</svg>
