<svg width="24" height="24" fill="none" xmlns="http://www.w3.org/2000/svg">
  <defs/>
  <g fill="#8DE0A8">
    <path d="M19.245.89H4.743v2.093h14.502V.89zM19.245 21.017H4.743v2.093h14.502v-2.093z"/>
  </g>
  <g fill="#7BC690">
    <path d="M7.679.89H4.743v2.093H7.68V.89zM7.679 21.017H4.743v2.093H7.68v-2.093z"/>
  </g>
  <path d="M6.13 21.017v-2.963a5.866 5.866 0 015-5.871 5.866 5.866 0 01-5.001-5.801v-3.4h11.729v3.33a5.866 5.866 0 01-5 5.871c2.829.418 5 2.856 5 5.801v3.033H6.13z" fill="#CFDCE5"/>
  <path d="M12.743 12.183a5.866 5.866 0 01-5.001-5.801v-3.4H6.129v3.4a5.866 5.866 0 005 5.8 5.866 5.866 0 00-5 5.872v2.963h1.613v-2.963a5.866 5.866 0 015-5.871z" fill="#BAC6CC"/>
  <path d="M16.885 21.017a4.891 4.891 0 00-9.782 0" fill="#FCD577"/>
  <path d="M12.722 16.18a4.891 4.891 0 00-5.62 4.837H8.56a4.892 4.892 0 014.162-4.837z" fill="#EAC36E"/>
  <path d="M9.683 6.743l.72 4.863 1.154-1.241 1.363 1.267 1.874-2.016-1.363-1.267 1.154-1.241-4.902-.365z" fill="#FCD577"/>
  <path d="M19.25 3.373a.39.39 0 00.39-.39V.89a.39.39 0 00-.39-.39h-2.515a.39.39 0 100 .78h2.125v1.313H5.14V1.28h10.295a.39.39 0 000-.781H4.75a.39.39 0 00-.39.39v2.093c0 .215.174.39.39.39h.996v3.009a6.25 6.25 0 003.917 5.802 6.312 6.312 0 00-3.104 2.714.39.39 0 00.679.386 5.513 5.513 0 013.956-2.715.39.39 0 000-.772 5.395 5.395 0 01-.366-.068l.755-.812 1.036.963a.39.39 0 00.189.69 5.473 5.473 0 014.667 5.414v2.643h-.207a5.231 5.231 0 00-1.608-3.42.39.39 0 00-.541.564 4.458 4.458 0 011.365 2.856H7.516a4.507 4.507 0 016.65-3.557.39.39 0 00.376-.684 5.288 5.288 0 00-2.542-.65 5.289 5.289 0 00-5.268 4.89h-.206V18.05a5.48 5.48 0 01.23-1.644.39.39 0 10-.748-.225 6.252 6.252 0 00-.263 1.873v2.573h-.996a.39.39 0 00-.39.39v2.093c0 .215.174.39.39.39H19.25a.39.39 0 00.39-.39v-2.093a.39.39 0 00-.39-.39h-.997v-2.643a6.251 6.251 0 00-3.913-5.8 6.268 6.268 0 002.4-1.723 6.247 6.247 0 001.513-4.15V3.374h.997zm-.39 19.346H5.14v-1.312H18.86v1.312zm-5.435-11.05l1.66-1.787a.39.39 0 00-.02-.552L13.988 8.33l.888-.956a.39.39 0 00-.257-.655l-1.706-.126a.39.39 0 10-.058.778l.896.067-.6.646a.39.39 0 00.02.552l1.077 1.002-1.343 1.444-1.077-1.002a.39.39 0 00-.552.02l-.6.647-.53-3.577 1.364.101a.39.39 0 10.057-.778l-1.85-.138a.392.392 0 00-.415.447l.692 4.675a5.47 5.47 0 01-3.47-5.094V3.373h10.95v2.943a5.496 5.496 0 01-4.05 5.353z" fill="#000"/>
  <path d="M14.29 19.18a.39.39 0 100-.78.39.39 0 000 .78zM13.665 20.222a.39.39 0 100-.781.39.39 0 000 .78zM14.87 20.17a.39.39 0 100-.78.39.39 0 000 .78z" fill="#000"/>
</svg>
