<svg width="24" height="24" fill="none" xmlns="http://www.w3.org/2000/svg">
  <defs/>
  <path d="M11.377 1.99C5.59 1.99.898 6.68.898 12.466S5.59 22.945 11.377 22.945c5.786 0 10.478-4.69 10.478-10.478 0-5.787-4.692-10.478-10.479-10.478zm0 14.606a4.128 4.128 0 110-8.257 4.128 4.128 0 010 8.257z" fill="#FFC5E5"/>
  <g fill="#826075">
    <path d="M15.26 2.733L12.922 8.64a4.135 4.135 0 012.5 3.005l5.9-2.48a10.507 10.507 0 00-6.062-6.43zM17.833 20.719l-3.96-4.965a4.11 4.11 0 01-3.582.697l-.748 6.334c.595.105 1.207.16 1.833.16 2.436 0 4.678-.831 6.457-2.226zM7.247 12.467c0-1.164.483-2.215 1.258-2.966L3.74 5.294a10.44 10.44 0 00-2.791 8.201l6.329-.54a4.168 4.168 0 01-.03-.488z"/>
  </g>
  <path d="M17.626 20.569l.061-.059c.02.016.081.086.173.193 2.445-1.912 4.046-4.862 4.046-8.203 0-1.14-.182-2.236-.518-3.263l-1.721.659c.834 3.476.69 7.469-2.041 10.673z" fill="#FF97CB"/>
  <g fill="#684C5F">
    <path d="M16.61 3.393c.534.867 1.678 2.965 1.812 3.287A24.236 24.236 0 0119.66 9.9l.007-.002 1.72-.66a10.507 10.507 0 00-4.777-5.845zM17.688 20.512l-.061.059-1.013.975c.435-.252.852-.533 1.246-.841a2.84 2.84 0 00-.172-.193z"/>
  </g>
  <path d="M15.788 22.15a.392.392 0 00.525.178 10.922 10.922 0 005.095-5.255h.002c.179.052.354.078.523.078.398 0 .76-.143 1.048-.42.434-.419.617-1.08.467-1.683-.14-.565-.55-.983-1.125-1.149h-.004a10.884 10.884 0 00-.827-5.755 10.88 10.88 0 00-6.031-5.82 10.9 10.9 0 00-5.102-.71c-.174-.513-.53-.872-1.02-1.017a1.776 1.776 0 00-1.695.422c-.39.37-.558.88-.47 1.416l-.094.04a10.879 10.879 0 00-5.82 6.03c-1.269 3.227-.895 6.701.718 9.493-.458.385-.667.893-.587 1.437.088.597.518 1.13 1.097 1.36.193.076.39.114.587.114.338 0 .67-.114.963-.333.967.89 2.11 1.62 3.404 2.13a10.846 10.846 0 005.011.717.392.392 0 00-.072-.78c-.8.073-1.592.053-2.373-.06l.645-5.42.001-.01a4.731 4.731 0 003.276-.637l3.437 4.27c-.441.314-.91.596-1.402.84a.392.392 0 00-.177.525zm6.9-6.914c.08.327-.022.71-.251.93-.185.178-.435.238-.726.175.204-.545.364-1.1.478-1.66a.774.774 0 01.499.555zm-1.915-6.779c.059.134.114.27.166.405l-5.036 2.124a4.732 4.732 0 00-.544-1.095 4.674 4.674 0 00-1.827-1.597l1.987-5.096a10.094 10.094 0 015.254 5.26zm-12.59-6.87c.245-.23.628-.33.933-.239a.72.72 0 01.442.377c-.548.098-1.09.237-1.624.419a.769.769 0 01.25-.556zm6.606 1.325l-1.987 5.096a4.67 4.67 0 00-3.23.192c-.39.17-.749.389-1.072.648L4.347 5.243c2.685-2.616 6.711-3.63 10.442-2.33zM1.99 8.792a10.12 10.12 0 011.816-2.98L7.93 9.391c-.361.407-.652.88-.857 1.4a4.7 4.7 0 00-.329 1.818l-5.454.369c-.064-1.41.168-2.832.701-4.185zm.787 11.274c-.313-.124-.564-.43-.61-.745-.035-.236.046-.457.233-.648.32.473.679.921 1.072 1.341a.77.77 0 01-.695.052zm7.098-2.996l-.64 5.37a10.317 10.317 0 01-1.506-.464 10.1 10.1 0 01-5.6-5.403 10.209 10.209 0 01-.773-2.814l5.47-.37c.066.341.168.678.31 1.005a4.676 4.676 0 002.769 2.566.389.389 0 00-.03.11zm4.686-1.021c.327-.287.618-.624.861-1.006a.392.392 0 00-.662-.42 3.926 3.926 0 01-4.745 1.542 3.897 3.897 0 01-2.16-2.084 3.897 3.897 0 01-.054-3.002 3.897 3.897 0 012.085-2.16 3.897 3.897 0 013.001-.054 3.903 3.903 0 012.488 3.642.392.392 0 10.784-.002c0-.253-.022-.503-.063-.75l5.098-2.15a10.09 10.09 0 01-.282 6.633 10.147 10.147 0 01-2.926 4.067l-3.425-4.256z" fill="#000"/>
</svg>
