<svg width="24" height="24" fill="none" xmlns="http://www.w3.org/2000/svg">
  <defs/>
  <g clip-path="url(#clip0)">
    <path opacity=".52" d="M21.363 11.897c.17.826.26 1.659.243 2.487-.068 3.13-1.51 6.05-3.044 8.706H5.435c-4.062-7.034-4.062-10.856 0-17.89h13.127c1.161 2.01 2.312 4.328 2.801 6.697z" fill="#EBF9FE"/>
    <path d="M12.066 9.62a4.38 4.38 0 100-8.76 4.38 4.38 0 000 8.76z" fill="#FFDFA1"/>
    <path d="M12.067 7.873a2.632 2.632 0 100-5.265 2.632 2.632 0 000 5.265z" fill="#FFEFCA"/>
    <g fill="#FBD696" stroke="#FBD696" stroke-width="15" stroke-miterlimit="10" stroke-linecap="round" stroke-linejoin="round">
      <path d="M14.428 22.608H6.58a.852.852 0 01-.85-.85c0-.467.383-.85.85-.85h7.848c.467 0 .85.383.85.85 0 .467-.383.85-.85.85zM16.51 20.524H8.664a.852.852 0 01-.85-.85c0-.466.383-.849.85-.849h7.848c.467 0 .85.383.85.85 0 .467-.383.85-.85.85zM14.57 18.582H6.721a.852.852 0 01-.85-.849c0-.467.382-.85.85-.85h7.847c.468 0 .85.383.85.85 0 .467-.382.85-.85.85zM19.086 18.376l-7.032-3.485a.852.852 0 01-.384-1.138.852.852 0 011.138-.384l7.032 3.484c.419.208.592.72.384 1.139a.852.852 0 01-1.138.384z"/>
    </g>
    <path opacity=".52" d="M18.563 5.2c1.69 4.375 3.004 11.079-1.674 17.89h1.674s6.683-8.544 0-17.89z" fill="#D3E8F1"/>
    <path d="M5.435 23.5h13.128a.41.41 0 00.354-.205c2.76-4.78 3.563-8 2.864-11.482a.41.41 0 10-.803.161c.347 1.728.292 3.4-.23 5.27a1.061 1.061 0 00-.552-.672l-7.38-3.656a1.067 1.067 0 00-1.427.481l-.172.348a1.057 1.057 0 00-.054.813c.091.27.281.488.535.614l2.628 1.302H6.528c-.587 0-1.065.478-1.065 1.065v.388c0 .587.478 1.065 1.065 1.065h.996c-.076.147-.12.312-.12.489v.388c0 .236.079.453.21.63H6.385c-.587 0-1.065.478-1.065 1.065v.388c0 .039.003.076.007.114-1.767-3.213-2.53-5.618-2.53-7.921 0-2.448.862-5.01 2.874-8.536h1.514A4.83 4.83 0 0012 10.144a4.83 4.83 0 004.81-4.535h1.515c.703 1.232 1.253 2.32 1.677 3.318a.41.41 0 10.754-.32c-.46-1.084-1.062-2.266-1.84-3.612a.41.41 0 00-.354-.205h-1.77a4.795 4.795 0 00-.437-1.533.41.41 0 00-.74.351c.18.378.297.776.351 1.182h-.95a3.042 3.042 0 00-1.862-2.324.41.41 0 00-.308.76 2.226 2.226 0 011.335 1.564H9.826a2.229 2.229 0 011.416-1.596.41.41 0 00-.28-.77 3.048 3.048 0 00-1.97 2.366h-.959a4.007 4.007 0 016.126-2.839.41.41 0 00.442-.69A4.827 4.827 0 007.207 4.79H5.435a.41.41 0 00-.354.206c-2.174 3.764-3.102 6.501-3.102 9.15s.928 5.385 3.102 9.15a.41.41 0 00.354.205zm6.504-9.204a.243.243 0 01.012-.187l.172-.348a.249.249 0 01.33-.111l7.38 3.656c.12.06.17.21.11.33l-.172.348a.249.249 0 01-.329.11l-7.38-3.656a.244.244 0 01-.123-.142zm7.14 4.533a1.066 1.066 0 001.207-.185c-.464 1.225-1.112 2.55-1.96 4.037h-2.929c.18-.19.29-.447.29-.729v-.388c0-.236-.077-.454-.208-.63h1.227c.587 0 1.065-.478 1.065-1.065v-.388c0-.588-.478-1.065-1.065-1.065h-.996c.075-.147.12-.313.12-.489v-.388c0-.123-.023-.24-.061-.35l3.31 1.64zm-10.61 1.286a.25.25 0 01-.245-.246v-.388a.25.25 0 01.246-.246h8.236a.25.25 0 01.246.246v.388a.249.249 0 01-.246.246H8.47zm-2.187-2.188v-.388a.25.25 0 01.246-.246h8.236c.133 0 .246.113.246.246v.388a.25.25 0 01-.246.246H6.528a.25.25 0 01-.246-.246zm-.141 3.637a.25.25 0 01.245-.246h8.237a.25.25 0 01.245.246v.388a.25.25 0 01-.245.246H6.386a.25.25 0 01-.245-.246v-.388zm9.785-15.47a4.009 4.009 0 01-4.7 3.155 3.976 3.976 0 01-2.55-1.696 3.978 3.978 0 01-.67-1.944h.958a3.056 3.056 0 006.079 0h.948a4.064 4.064 0 01-.065.485zm-6.138-.485h4.43a2.232 2.232 0 01-.967 1.547 2.24 2.24 0 01-3.463-1.547z" fill="#000"/>
  </g>
  <defs>
    <clipPath id="clip0">
      <path fill="#fff" d="M0 0h24v24H0z"/>
    </clipPath>
  </defs>
</svg>
