<svg width="24" height="24" fill="none" xmlns="http://www.w3.org/2000/svg">
  <defs/>
  <path d="M9.219 12.36h5.441v4.719H9.22v-4.72z" fill="#E1DEE2"/>
  <path d="M13.362 12.36h1.298v4.719h-1.298v-4.72z" fill="#C8C2C9"/>
  <path d="M19.924 13.64H3.986a.45.45 0 01-.449-.45V1.534a.45.45 0 01.45-.45h15.937a.45.45 0 01.45.45V13.19a.45.45 0 01-.45.45z" fill="#C8C2C9"/>
  <path d="M19.924 1.083h-.83V11.91a.45.45 0 01-.45.45H3.537v.83c0 .249.201.45.45.45h15.937a.45.45 0 00.45-.45V1.534a.45.45 0 00-.45-.45z" fill="#B1ACB6"/>
  <path d="M16.07 10.697H7.809a.674.674 0 01-.674-.674V3.374c0-.372.301-.673.674-.673h8.263c.372 0 .674.301.674.673v6.65a.674.674 0 01-.674.673z" fill="#DAF4F8"/>
  <path d="M16.07 2.7h-.821v5.827a.674.674 0 01-.674.674H7.134v.822c0 .373.301.674.674.674h8.263a.674.674 0 00.674-.674V3.374a.674.674 0 00-.674-.673z" fill="#A5E4EF"/>
  <path d="M13.504 6.012c0 .896-.295 2.099-1.622 2.099-1.327 0-1.622-1.203-1.622-2.099 0-.895.726-1.022 1.622-1.022.895 0 1.622.127 1.622 1.022z" fill="#FDB1B9"/>
  <path d="M12.958 5.134c.025.094.038.2.038.321 0 .896-.294 2.099-1.621 2.099-.342 0-.616-.08-.833-.214.235.442.646.77 1.34.77 1.328 0 1.622-1.202 1.622-2.098 0-.483-.211-.742-.546-.878z" fill="#FC8086"/>
  <path d="M12.734 11.908c0 2.072-.682 4.854-3.752 4.854s-3.753-2.782-3.753-4.854 1.68-2.365 3.753-2.365c2.072 0 3.752.293 3.752 2.365z" fill="#FB4753"/>
  <path d="M11.47 9.875c.058.219.09.465.09.745 0 2.072-.683 4.854-3.753 4.854-.79 0-1.423-.185-1.926-.495.543 1.022 1.495 1.783 3.101 1.783 3.07 0 3.752-2.782 3.752-4.854 0-1.117-.489-1.717-1.264-2.033z" fill="#E21F2D"/>
  <path d="M22.714 20.749H1.286a.45.45 0 01-.45-.45v-3.402a.45.45 0 01.45-.45h21.428a.45.45 0 01.45.45v3.402a.45.45 0 01-.45.45z" fill="#C8C2C9"/>
  <path d="M22.714 16.448h-.975v2.562a.45.45 0 01-.45.45H.838v.84c0 .248.201.449.45.449h21.427a.45.45 0 00.45-.45v-3.402a.45.45 0 00-.45-.45z" fill="#B1ACB6"/>
  <path d="M19.583 22.917H15.67a.348.348 0 01-.348-.348v-4.46h4.61v4.46a.348.348 0 01-.348.348z" fill="#EFE0DB"/>
  <path d="M18.4 21.006h-1.643a.262.262 0 01-.262-.262v-.758c0-.144.117-.262.262-.262H18.4c.145 0 .262.118.262.262v.758a.262.262 0 01-.262.262z" fill="#C9BEB9"/>
  <path d="M18.374 19.724h-.518c.16 0 .288.13.288.288v.707a.288.288 0 01-.288.287h.518a.288.288 0 00.288-.287v-.707a.288.288 0 00-.288-.288z" fill="#B9ACAC"/>
  <path d="M19.012 18.11v3.506c0 .21-.17.382-.382.382h-3.309v.537c0 .21.171.382.382.382h3.846c.211 0 .382-.171.382-.382V18.11h-.92z" fill="#DFD1CB"/>
  <path d="M13.84 6.012c0-1.14-.964-1.323-1.621-1.353a.337.337 0 00-.674 0c-.657.03-1.622.214-1.622 1.353 0 1.525.732 2.436 1.959 2.436 1.226 0 1.959-.91 1.959-2.436zm-1.958 1.762c-1.062 0-1.285-.958-1.285-1.762 0-.412.152-.633.954-.677a.337.337 0 00.662 0c.801.044.954.265.954.677 0 .804-.223 1.762-1.285 1.762z" fill="#000"/>
  <path d="M22.714 16.11h-7.717v-2.133h4.928a.787.787 0 00.786-.787V1.534a.787.787 0 00-.786-.787h-.77a.337.337 0 100 .674h.77c.061 0 .112.05.112.113V13.19c0 .062-.05.113-.112.113h-6.96c.081-.514.106-.999.106-1.395 0-.32-.04-.61-.114-.874h3.114c.557 0 1.01-.453 1.01-1.01v-6.65c0-.557-.453-1.01-1.01-1.01H7.808c-.557 0-1.01.453-1.01 1.01V9.42c-.22.059-.43.133-.622.228a.337.337 0 00.297.604c.607-.298 1.466-.362 2.266-.371l-.085.299a.337.337 0 10.648.184l.102-.359c.011-.04.02-.08.028-.12 1.885.05 2.965.448 2.965 2.023 0 1.221-.246 3.39-1.891 4.197l-.01.006H7.471c-1.655-.801-1.905-2.97-1.905-4.203 0-.277.034-.524.1-.736a.337.337 0 00-.644-.2c-.086.276-.13.591-.13.936 0 .398.025.883.106 1.395H3.987a.112.112 0 01-.113-.113V1.534c0-.062.05-.113.113-.113h13.592a.337.337 0 100-.674H3.987a.787.787 0 00-.787.786v11.659c0 .433.353.786.787.786h1.15c.201.772.555 1.547 1.166 2.134H1.286a.787.787 0 00-.786.786v3.402c0 .434.353.787.786.787H13.73a.337.337 0 100-.674H1.286a.112.112 0 01-.112-.113v-3.402c0-.062.05-.112.112-.112h21.428c.062 0 .112.05.112.112v3.402c0 .063-.05.113-.112.113h-2.446v-1.965h.514a.337.337 0 000-.674h-6.311a.337.337 0 000 .674h.513v4.122c0 .378.307.685.685.685h3.914a.685.685 0 00.685-.685v-1.483h2.446a.787.787 0 00.786-.787v-3.402a.787.787 0 00-.786-.786zM11.783 9.647c-.678-.332-1.557-.418-2.387-.436a1.411 1.411 0 00-.964-.948.337.337 0 00-.184.648c.174.05.316.158.41.298-.391.006-.796.027-1.187.08V3.374c0-.185.151-.336.337-.336h8.263c.186 0 .337.15.337.336v6.65a.337.337 0 01-.337.336H12.64a2.214 2.214 0 00-.857-.714zm1.042 4.33h1.498v2.135h-2.665c.61-.588.966-1.363 1.167-2.134zm6.77 8.593a.01.01 0 01-.012.01H15.67a.01.01 0 01-.01-.01v-4.122h3.935v4.122z" fill="#000"/>
  <path d="M16.757 21.343H18.4a.6.6 0 00.6-.599v-.758a.6.6 0 00-.6-.599h-1.642a.6.6 0 00-.599.6v.757c0 .33.269.6.6.6zm.075-1.282h1.493v.608h-1.493v-.608z" fill="#000"/>
</svg>
