<svg width="24" height="24" fill="none" xmlns="http://www.w3.org/2000/svg">
  <defs/>
  <path d="M22.01 22.649H2.203v-2.493l19.805-1.551v4.044z" fill="#9AD7FF"/>
  <path d="M20.36 18.146a.544.544 0 11.002-1.087.544.544 0 01-.002 1.087zm0-1.034a.492.492 0 10.002.984.492.492 0 00-.002-.984zM18.292 18.146a.544.544 0 11.001-1.087.544.544 0 010 1.087zm0-1.034a.492.492 0 10.001.984.492.492 0 000-.984z" fill="#000"/>
  <g fill="#4EB9FF">
    <path d="M22.01 15.052H2.203v5.106h20.778v-4.134a.973.973 0 00-.973-.972zM16.098 1.502L1.017 12.062l1.187 1.697 15.76-11.035-.713-1.018a.827.827 0 00-1.153-.204z"/>
  </g>
  <g fill="#01121C">
    <path d="M20.36 18.146a.544.544 0 100-1.087.544.544 0 000 1.087zM18.292 18.146a.544.544 0 10-.001-1.087.544.544 0 00.001 1.087zM12.146 10.914v2.067a.517.517 0 101.035 0v-2.067a.517.517 0 10-1.034 0zM10.078 10.914v2.067a.517.517 0 101.035 0v-2.067a.517.517 0 10-1.035 0zM14.216 10.914v2.067a.517.517 0 101.034 0v-2.067a.517.517 0 10-1.034 0z"/>
    <path d="M22.01 14.533H2.862v-.605L18.261 3.146a.517.517 0 00.127-.72l-.713-1.019a1.336 1.336 0 00-.868-.552 1.336 1.336 0 00-1.005.222L.721 11.637a.517.517 0 00-.127.72l1.187 1.697c.014.02.03.039.047.057v8.538c0 .286.232.517.517.517H22.01a.517.517 0 00.517-.517v-1.975h.456a.517.517 0 00.517-.518v-4.133c0-.822-.668-1.49-1.49-1.49zm.456 1.49v3.616H2.862v-4.072H22.01c.251 0 .456.205.456.456zM1.737 12.188L16.396 1.925a.308.308 0 01.432.076l.416.594L2.332 13.037l-.595-.849zm19.756 9.944H2.863v-1.458h18.63v1.458z"/>
  </g>
</svg>
