<svg width="24" height="24" fill="none" xmlns="http://www.w3.org/2000/svg">
  <defs/>
  <path d="M20.881 7.545a1.19 1.19 0 00-1.142-1.188c.258.327.413.74.413 1.188v12.652a.365.365 0 01-.364.364h-4.63a.365.365 0 01-.364-.364V8.03c0-.911-.733-1.654-1.64-1.673h-1.301a1.19 1.19 0 00-1.188 1.188v8.425a.217.217 0 00.217.218.365.365 0 010 .729.948.948 0 01-.947-.947V2.71H3.118v13.745c0 .64.509 1.164 1.143 1.188a1.91 1.91 0 01-.413-1.188V8.18c0-.201.163-.364.364-.364v-.73a.365.365 0 01-.364-.364V3.803c0-.201.163-.364.364-.364h4.63c.2 0 .364.163.364.364V15.97c0 .911.733 1.654 1.64 1.673h1.301a1.19 1.19 0 001.188-1.188V8.03a.218.218 0 00-.218-.218.365.365 0 110-.729c.522 0 .947.425.947.947v13.26h6.818V7.546z" fill="#F2EBD9"/>
  <path d="M4.577 8.18v8.275a1.19 1.19 0 001.18 1.189h3.4a2.394 2.394 0 01-.68-1.674V4.168h-3.9V6.72a.365.365 0 01-.365.364v.73c.201 0 .365.163.365.364zM15.523 19.832h3.9V7.545a1.19 1.19 0 00-1.18-1.189h-3.401c.42.434.681 1.024.681 1.674v11.802z" fill="#FFCC75"/>
  <path d="M19.693 5.627h-7.84c-.449 0-.861.156-1.188.415V.865a.365.365 0 10-.73 0V1.98H8.778V.865a.365.365 0 10-.73 0V1.98H6.892V.865a.365.365 0 10-.729 0V1.98H5.005V.865a.365.365 0 10-.73 0V1.98H3.118V.865a.365.365 0 10-.73 0v15.59a1.92 1.92 0 001.918 1.918H12.147c.448 0 .86-.156 1.188-.415v5.177a.365.365 0 10.73 0V22.02h1.156v1.115a.365.365 0 10.73 0V22.02h1.157v1.115a.365.365 0 10.73 0V22.02h1.157v1.115a.365.365 0 10.73 0V22.02h1.156v1.115a.365.365 0 10.73 0V7.545a1.92 1.92 0 00-1.918-1.918zM14.064 21.29V8.03a.948.948 0 00-.947-.947.365.365 0 100 .73c.12 0 .218.097.218.217v8.425a1.19 1.19 0 01-1.188 1.188h-1.3a1.677 1.677 0 01-1.641-1.673V3.803a.365.365 0 00-.365-.364H4.212a.365.365 0 00-.365.364v2.918a.365.365 0 10.73 0V4.168h3.9V15.97c0 .65.26 1.24.68 1.673h-3.4a1.19 1.19 0 01-1.18-1.188V8.179a.365.365 0 10-.73 0v8.276c0 .448.155.86.414 1.188a1.19 1.19 0 01-1.143-1.188V2.709h6.817V15.97c0 .522.425.947.947.947a.365.365 0 100-.73.218.218 0 01-.217-.217V7.545a1.19 1.19 0 011.188-1.188h1.3c.908.02 1.64.762 1.64 1.673v12.167c0 .201.164.364.365.364h4.63a.365.365 0 00.364-.364V7.545c0-.448-.155-.86-.413-1.188a1.19 1.19 0 011.142 1.188v13.746h-6.817zm4.179-14.935a1.19 1.19 0 011.18 1.189v12.287h-3.9V8.03c0-.65-.26-1.24-.681-1.673h3.4z" fill="#082947"/>
</svg>
