<svg width="24" height="24" fill="none" xmlns="http://www.w3.org/2000/svg">
  <defs/>
  <path d="M19.279 20.809h-.734v1.223h.734V20.81z" fill="#6DA8D6"/>
  <path d="M4.721 20.992l-1.028.428 1.028.428v-.856z" fill="#F2EBD9"/>
  <path d="M17.811 20.809H5.455v1.223h12.356V20.81z" fill="#FFCC75"/>
  <path d="M20.674 20.809h-.66v1.223h.66c.12 0 .22-.1.22-.22v-.783c0-.12-.1-.22-.22-.22z" fill="#F2484B"/>
  <path d="M20.674 20.075H5.088a.371.371 0 00-.065.006h-.007a.354.354 0 00-.072.023l-2.346.977a.367.367 0 000 .678l2.346.977c.023.01.047.018.072.023h.007a.305.305 0 00.065.007h15.586a.955.955 0 00.954-.954v-.783a.955.955 0 00-.954-.954zm.22 1.737c0 .12-.1.22-.22.22h-.66V20.81h.66c.12 0 .22.1.22.22v.783zm-16.173-.82v.857l-1.028-.429 1.028-.428zm.734-.183h12.356v1.223H5.455V20.81zm13.09 0h.734v1.223h-.733V20.81z" fill="#082947"/>
  <path d="M19.096 14.447v3.151l3.15-3.151h-3.15z" fill="#FFCC75"/>
  <path d="M18.362 16.527h-.734a.367.367 0 01-.367.367H2.825a.367.367 0 01-.367-.367V3.558c0-.202.164-.367.367-.367h1.468c.203 0 .367.165.367.367h.734c0-.202.164-.367.367-.367h15.415c.203 0 .367.165.367.367v9.054a.367.367 0 01-.367.367v.734h1.59V1.968H1.234v16.149h17.128v-1.59z" fill="#F2EBD9"/>
  <path d="M8.574 7.068H3.191v9.091h5.383V7.069zM14.692 7.068H9.309v9.091h5.383V7.069zM20.809 12.612V7.068h-5.383v9.091h1.835c.203 0 .367.165.367.367h.734V14.08c0-.203.164-.367.367-.367h2.447v-.734a.367.367 0 01-.367-.367z" fill="#fff"/>
  <path d="M23.438 14.284l.004-.007.014-.024.003-.005a.447.447 0 00.013-.028l.001-.004a.376.376 0 00.011-.03l.001-.004a.344.344 0 00.008-.03l.001-.01.004-.026a.344.344 0 00.002-.036V1.6a.367.367 0 00-.367-.367H.867a.367.367 0 00-.367.367v16.883c0 .203.164.367.367.367h17.862c.012 0 .024 0 .036-.002.01 0 .018-.002.027-.004l.009-.001a.335.335 0 00.03-.008h.005a.363.363 0 00.03-.012l.003-.001a.37.37 0 00.027-.013l.006-.002a.353.353 0 00.024-.015l.007-.004a.373.373 0 00.021-.016l.008-.005a.404.404 0 00.026-.024l4.404-4.405a.36.36 0 00.025-.026l.005-.008a.306.306 0 00.016-.021zM1.234 1.968h21.532v11.745h-4.037a.367.367 0 00-.367.367v4.037H1.234V1.968zm17.862 12.479h3.15l-3.15 3.151v-3.151z" fill="#082947"/>
  <path d="M4.292 3.925h-1.1v2.409h17.616V3.925H5.761a.367.367 0 01-.367-.367h-.735a.367.367 0 01-.367.367z" fill="#FF6E1D"/>
  <path d="M17.26 16.16h-1.835V7.068h5.383v5.544a.367.367 0 10.734 0V3.558a.367.367 0 00-.367-.367H5.76a.367.367 0 000 .735h15.048v2.408H3.191V3.926h1.101a.367.367 0 000-.735H2.824a.367.367 0 00-.367.367v12.969c0 .202.164.367.367.367H17.26a.367.367 0 100-.734zm-2.569 0H9.308V7.068h5.383v9.092zm-11.5-9.092h5.383v9.092H3.191V7.068z" fill="#082947"/>
</svg>
