<svg width="24" height="24" fill="none" xmlns="http://www.w3.org/2000/svg">
  <defs/>
  <path d="M21.985 1.02v21.96h-3.651L16.773 12l1.56-10.98h3.652z" fill="#FF9356"/>
  <path d="M18.334 1.02v21.96H2.017V1.02h16.317z" fill="#FFD86C"/>
  <g fill="#FF4181">
    <path d="M12.64 5.707v14.235h-2.239L9.361 5.707h3.28zM16.004 4.056v2.692h-2.24l-1.04-1.346 1.04-1.346h2.24z"/>
  </g>
  <path d="M4.346 4.057V6.75h3.363v13.194h2.692V6.749h3.364V4.057h-9.42z" fill="#FF9356"/>
  <g fill="#01121C">
    <path d="M21.984.5H2.016a.52.52 0 00-.52.52v21.96c0 .287.233.52.52.52h19.968a.52.52 0 00.52-.52V1.02a.52.52 0 00-.52-.52zM2.537 1.54h15.276v20.92H2.537V1.54zm18.927 20.92h-2.61V1.54h2.61v20.92z"/>
    <path d="M16.004 3.537H4.346a.52.52 0 00-.52.52V6.75c0 .287.232.52.52.52h2.843v12.674c0 .287.233.52.52.52h4.932a.52.52 0 00.52-.52V7.269H16.005a.52.52 0 00.52-.52V4.057a.52.52 0 00-.52-.52zM12.64 6.228H10.4a.52.52 0 00-.52.52v2.65a.52.52 0 101.041 0V7.27h1.2v12.153h-1.2V11.48a.52.52 0 00-1.04 0v7.943H8.23V6.75a.52.52 0 00-.52-.52H4.865V4.576h8.378v1.651h-.604zm2.844 0h-1.2v-1.65h1.2v1.65z"/>
  </g>
</svg>
