<svg width="24" height="24" fill="none" xmlns="http://www.w3.org/2000/svg">
  <defs/>
  <g fill-rule="evenodd" clip-rule="evenodd">
    <path d="M4.544 5.643l3.846.927 3.937-.927v-.75a.753.753 0 00-.751-.75H5.295a.753.753 0 00-.751.75v.75z" fill="#9B9B9B"/>
    <path d="M10.124 5.643h2.204v-.75a.753.753 0 00-.751-.75H9.373c.412 0 .751.336.751.75v.75z" fill="#838383"/>
    <path d="M22.292 15.761v-3.626a.81.81 0 00-.789-.8h-.011l.002-3.935c0-.966-.792-1.757-1.76-1.757H3.493c-.968 0-1.76.791-1.76 1.757v8.361l10.104 1.306 10.456-1.306z" fill="#FFD659"/>
    <path d="M20.816 14.007l1.476.256v-1.527H19.83c-.425 0-.37.318-.251.497l.218.33c.23.349.637.378 1.02.444z" fill="#A6E7F0"/>
    <path d="M11.652 8.763v6.998l2.061.768 2.116-.768V8.763a.992.992 0 00-.99-.99H12.64a.992.992 0 00-.989.99z" fill="#ECECEC"/>
    <path d="M1.732 7.537h2.689v3.475H1.732V7.537zM7.067 11.012h2.147a.5.5 0 00.499-.498V8.036a.5.5 0 00-.5-.499H7.068v3.475z" fill="#A6E7F0"/>
    <path d="M1.732 7.537h2.689v.867H1.732v-.867zM7.067 7.537h2.147a.5.5 0 01.499.499v2.478a.5.5 0 01-.5.498h-.511v-2.11a.501.501 0 00-.5-.498H7.068v-.867z" fill="#6BD9E7"/>
    <path d="M4.42 7.537h2.647v3.475H4.421V7.537z" fill="#A6E7F0"/>
    <path d="M4.42 7.537h2.647v.867H4.421v-.867z" fill="#6BD9E7"/>
    <path d="M1.732 12.619v1.47h1.576c.215 0 .391-.175.391-.39v-.69a.392.392 0 00-.39-.39H1.731z" fill="#FE636E"/>
    <path d="M20.854 17.295h1.598a.77.77 0 00.769-.766.77.77 0 00-.769-.768h-2.285c.395.4.65.938.687 1.534z" fill="#ACACAC"/>
    <path d="M18.447 19.858a2.41 2.41 0 002.413-2.409c0-.05-.003-.103-.005-.154a2.4 2.4 0 00-.688-1.534 2.404 2.404 0 00-1.72-.72 2.405 2.405 0 00-2.412 2.408 2.41 2.41 0 002.412 2.409z" fill="#838383"/>
    <path d="M12.378 17.295h3.662a2.399 2.399 0 01.686-1.534H8.26c.393.4.648.938.686 1.534h3.432z" fill="#ACACAC"/>
    <path d="M4.127 17.45a2.41 2.41 0 002.412 2.408 2.41 2.41 0 10-1.72-4.097 2.405 2.405 0 00-.692 1.688z" fill="#838383"/>
    <path d="M1.67 17.295h2.462a2.405 2.405 0 01.686-1.534H1.67a.773.773 0 00-.707.465.775.775 0 000 .604c.119.273.391.465.707.465z" fill="#ACACAC"/>
    <path d="M18.9 11.335h2.591l.003-3.927V7.4h-2.595a.903.903 0 00-.901.9v2.14a.9.9 0 00.901.895z" fill="#A6E7F0"/>
    <path d="M18.448 18.406a.957.957 0 100-1.914.957.957 0 000 1.914zM5.582 17.45a.957.957 0 101.913 0 .957.957 0 00-1.913 0z" fill="#E6E6E6"/>
    <path d="M18.444 5.643c.968 0 1.76.791 1.76 1.757h1.29c0-.966-.791-1.757-1.759-1.757h-1.29z" fill="#FFBF00"/>
    <path d="M20.203 7.4l-.003 3.935h1.291l.003-3.927V7.4h-1.291z" fill="#6BD9E7"/>
    <path d="M20.212 11.335a.81.81 0 01.79.8v.601h1.29v-.601a.81.81 0 00-.79-.8h-1.29z" fill="#FFBF00"/>
    <path d="M21.001 12.736v1.303l1.29.224v-1.527h-1.29z" fill="#6BD9E7"/>
    <path d="M21.001 14.039v1.722h1.29v-1.498l-1.29-.224z" fill="#FFBF00"/>
    <path d="M7.54 15.774a2.392 2.392 0 01.69 1.688 2.41 2.41 0 01-2.01 2.375 2.41 2.41 0 10-.081-4.763 2.4 2.4 0 011.4.7zM19.448 15.774a2.405 2.405 0 01.692 1.688 2.41 2.41 0 01-2.012 2.375 2.41 2.41 0 002.732-2.387 2.408 2.408 0 00-2.813-2.376 2.4 2.4 0 011.401.7z" fill="#595959"/>
    <path d="M3.308 12.619h-.593v1.47h.593c.215 0 .39-.175.39-.39v-.69a.391.391 0 00-.39-.39z" fill="#FB2A39"/>
  </g>
  <path d="M22.57 15.435v-3.3c0-.508-.337-.94-.8-1.087l.002-3.3h.339c.189 0 .343.153.343.342v.969a.34.34 0 00.68 0V8.09c0-.564-.459-1.023-1.023-1.023h-.365a2.102 2.102 0 00-2.073-1.764h-7.067v-.41c0-.602-.49-1.091-1.092-1.091h-6.28c-.602 0-1.092.489-1.092 1.09v.41H3.43A2.1 2.1 0 001.33 7.4V15.456a1.109 1.109 0 00.278 2.18h2.124a2.754 2.754 0 002.745 2.562 2.754 2.754 0 002.746-2.562h2.68a.34.34 0 100-.681H9.185a2.726 2.726 0 00-.309-.853h7.113a2.723 2.723 0 00-.31.853h-2.22a.34.34 0 000 .68h2.182a2.754 2.754 0 002.746 2.563 2.754 2.754 0 002.746-2.562h1.259a1.11 1.11 0 001.109-1.107 1.11 1.11 0 00-.93-1.094zm-.68-1.577l-1.077-.186a11.8 11.8 0 00-.126-.021c-.337-.055-.55-.097-.668-.275l-.197-.3h2.068v.782zm-3.052-2.863c-.31 0-.561-.25-.561-.556V8.3a.56.56 0 01.56-.559h2.255l-.003 3.255h-2.251zM3.43 5.984h3.85a.34.34 0 100-.681H4.822v-.41a.41.41 0 01.41-.41h6.281a.41.41 0 01.41.41v.41h-3.09a.34.34 0 100 .68h10.839A1.42 1.42 0 0121.05 7.06h-2.212c-.685 0-1.242.556-1.242 1.24v2.14a1.24 1.24 0 001.242 1.236h2.59c.25.001.462.211.462.459v.26h-2.122c-.387 0-.549.195-.61.312-.132.245-.047.53.075.713l.218.331c.288.436.753.511 1.127.572l.119.02 1.193.206v.872h-1.65a2.745 2.745 0 00-1.854-.72c-.714 0-1.365.273-1.855.72h-.423V8.763c0-.733-.597-1.33-1.331-1.33H12.58a1.33 1.33 0 00-1.33 1.33v6.658H8.333a2.744 2.744 0 00-1.856-.721c-.714 0-1.366.273-1.856.72h-2.61v-.99h1.235a.732.732 0 00.732-.73v-.69a.732.732 0 00-.732-.731H2.011v-.926h7.14a.84.84 0 00.84-.839V8.035a.84.84 0 00-.84-.838H2.027A1.42 1.42 0 013.43 5.984zm-1.42 6.975h1.236a.05.05 0 01.05.05v.69a.05.05 0 01-.05.05H2.011v-.79zm0-5.081h2.01v2.794H2.01V7.878zm4.655 0v2.794H4.701V7.878h1.964zm2.487 0a.16.16 0 01.158.158v2.478a.16.16 0 01-.158.158H7.346V7.878h1.806zm-7.971 8.65c0-.235.191-.426.427-.426h2.471a2.726 2.726 0 00-.31.853H1.609a.427.427 0 01-.427-.426zm5.296 2.99a2.072 2.072 0 01-2.072-2.069 2.072 2.072 0 014.144 0c0 1.14-.93 2.068-2.072 2.068zm5.454-10.755a.65.65 0 01.649-.649h.758v7.307h-1.407V8.763zm2.088 6.658V8.114h.758c.358 0 .65.291.65.649v6.658h-1.408zm4.367 4.096a2.072 2.072 0 01-2.072-2.068 2.072 2.072 0 014.144 0c0 1.14-.93 2.068-2.072 2.068zm4.005-2.562h-1.298a2.727 2.727 0 00-.31-.853h1.608c.236 0 .428.191.428.427a.428.428 0 01-.428.426z" fill="#000"/>
  <path d="M6.477 16.153c-.715 0-1.297.581-1.297 1.296a1.3 1.3 0 002.596 0 1.3 1.3 0 00-1.299-1.296zm0 1.913a.617.617 0 110-1.23.617.617 0 010 1.23zM18.386 16.153a1.3 1.3 0 00-1.3 1.296 1.299 1.299 0 002.597 0c0-.715-.582-1.296-1.297-1.296zm0 1.913a.618.618 0 01-.618-.617.618.618 0 011.235 0c0 .34-.277.617-.617.617z" fill="#000"/>
</svg>
