<svg width="24" height="24" fill="none" xmlns="http://www.w3.org/2000/svg">
  <defs/>
  <path d="M13.256 13.778A2.183 2.183 0 0014.178 12c0-.705-.345-1.37-.922-1.778a.367.367 0 01-.101-.49 2.525 2.525 0 00-.788-.25v5.036c.28-.04.545-.127.787-.25a.367.367 0 01.102-.49z" fill="#F2484B"/>
  <path d="M13.371 17.016A5.213 5.213 0 0017.2 12a5.213 5.213 0 00-3.829-5.016.367.367 0 01-.26-.439 5.551 5.551 0 00-.744-.1v3.037c.28.04.545.127.787.25l.015-.022a.367.367 0 01.511-.087A2.918 2.918 0 0114.912 12c0 .943-.46 1.832-1.232 2.377a.365.365 0 01-.511-.087l-.014-.022c-.243.123-.508.21-.788.25v3.036c.253-.016.502-.05.745-.1a.367.367 0 01.26-.438z" fill="#FF6E1D"/>
  <path d="M6.07 11.633c.034-2.151.368-4.202.961-5.961a11.488 11.488 0 01-2.382-1.53 10.738 10.738 0 00-3.408 7.49H6.07zM7.285 4.979c.139-.353.29-.692.451-1.015.52-1.039 1.125-1.86 1.788-2.442a10.738 10.738 0 00-4.315 2.13c.643.524 1.34.968 2.076 1.327zM11.633 22.738V17.94c-1.272.044-2.516.31-3.678.782.135.343.28.673.437.986.896 1.791 2.035 2.851 3.241 3.03zM4.649 19.858a11.486 11.486 0 012.382-1.53c-.593-1.76-.927-3.81-.961-5.961H1.241c.1 2.95 1.391 5.603 3.408 7.49zM11.633 17.206v-4.839h-4.83c.034 2.047.346 3.994.902 5.664a11.49 11.49 0 013.928-.825zM8.392 4.292a12.07 12.07 0 00-.437.986c1.162.472 2.406.738 3.678.782V1.262c-1.206.179-2.345 1.239-3.24 3.03zM7.736 20.036a12.686 12.686 0 01-.451-1.015c-.736.359-1.433.803-2.076 1.326a10.736 10.736 0 004.315 2.13c-.663-.58-1.269-1.402-1.788-2.44zM11.633 11.633v-4.84a11.492 11.492 0 01-3.928-.824c-.556 1.67-.868 3.616-.901 5.664h4.829z" fill="#6DA8D6"/>
  <path d="M13.413 21.19c4.495-.687 7.885-4.638 7.885-9.19s-3.39-8.503-7.885-9.19a.367.367 0 01-.308-.411 9.715 9.715 0 00-.738-.056v4.103c.253.016.502.05.745.1l.002-.013a.367.367 0 01.451-.257A5.949 5.949 0 0117.934 12a5.948 5.948 0 01-4.369 5.724.366.366 0 01-.45-.258c-.002-.003-.002-.007-.003-.011-.243.05-.492.083-.745.1v4.102c.248-.01.494-.028.738-.056a.367.367 0 01.308-.41z" fill="#FFCC75"/>
  <path d="M12.367 1.24v1.103c.248.009.494.028.738.056V2.39c.031-.2.218-.338.419-.307a10.04 10.04 0 016.058 3.353A10.022 10.022 0 0122.032 12c0 2.409-.87 4.74-2.45 6.563a10.04 10.04 0 01-6.058 3.353.367.367 0 01-.418-.307l-.001-.008a9.69 9.69 0 01-.738.056v1.102c5.767-.194 10.4-4.946 10.4-10.76 0-5.813-4.633-10.564-10.4-10.758z" fill="#185F8D"/>
  <path d="M20.132 3.868A11.424 11.424 0 0012 .5C8.928.5 6.04 1.696 3.868 3.868A11.425 11.425 0 00.5 12c0 3.072 1.196 5.96 3.368 8.132A11.425 11.425 0 0012 23.5c3.072 0 5.96-1.196 8.132-3.368A11.424 11.424 0 0023.5 12c0-3.072-1.196-5.96-3.368-8.132zM11.633 6.06a10.758 10.758 0 01-3.678-.782c.135-.343.28-.673.437-.986.896-1.791 2.035-2.851 3.241-3.03V6.06zm0 .734v4.839h-4.83c.034-2.047.347-3.995.902-5.664 1.242.5 2.57.782 3.928.825zm0 5.573v4.839a11.493 11.493 0 00-3.928.825c-.555-1.67-.868-3.616-.901-5.664h4.829zm0 5.573v4.799c-1.206-.18-2.345-1.24-3.24-3.03a12.071 12.071 0 01-.438-.987 10.758 10.758 0 013.678-.782zM7.736 3.964c-.162.323-.312.662-.452 1.015A10.755 10.755 0 015.21 3.653a10.737 10.737 0 014.314-2.131c-.663.582-1.268 1.403-1.787 2.442zm-3.087.179c.733.61 1.533 1.122 2.382 1.529-.594 1.76-.927 3.81-.961 5.961H1.24c.1-2.95 1.391-5.603 3.408-7.49zm1.42 8.224c.035 2.151.368 4.202.962 5.961-.849.407-1.65.92-2.382 1.53a10.738 10.738 0 01-3.408-7.491H6.07zm1.215 6.654c.14.353.29.692.452 1.015.519 1.039 1.124 1.86 1.787 2.442a10.738 10.738 0 01-4.314-2.13c.643-.524 1.34-.968 2.075-1.327zm5.083 3.738V1.241C18.134 1.435 22.766 6.187 22.766 12c0 5.814-4.632 10.565-10.399 10.759z" fill="#082947"/>
  <path d="M13.413 2.81c4.495.687 7.885 4.638 7.885 9.19s-3.39 8.503-7.885 9.19a.367.367 0 00-.308.412v.007a.367.367 0 00.419.307 10.04 10.04 0 006.058-3.353A10.022 10.022 0 0022.032 12c0-2.409-.87-4.74-2.45-6.562a10.04 10.04 0 00-6.058-3.354.367.367 0 00-.418.307l-.001.008c-.026.197.11.38.308.41z" fill="#082947"/>
  <path d="M13.371 6.984A5.213 5.213 0 0117.2 12a5.213 5.213 0 01-3.829 5.016.367.367 0 00-.26.439l.003.012a.367.367 0 00.451.257A5.949 5.949 0 0017.934 12a5.949 5.949 0 00-4.369-5.724.367.367 0 00-.45.257l-.003.012a.367.367 0 00.26.44z" fill="#082947"/>
  <path d="M13.256 10.222c.577.408.922 1.073.922 1.778 0 .705-.345 1.37-.922 1.778a.367.367 0 00-.101.49l.014.022a.366.366 0 00.511.087A2.918 2.918 0 0014.912 12c0-.943-.46-1.832-1.232-2.377a.367.367 0 00-.511.087l-.014.022a.367.367 0 00.101.49z" fill="#082947"/>
</svg>
