<svg width="24" height="24" fill="none" xmlns="http://www.w3.org/2000/svg">
  <defs/>
  <path d="M9.87 7.15c.26 0 .51.045.74.126V2.155a1.318 1.318 0 00-2.634 0v6.043A2.236 2.236 0 019.87 7.15z" fill="#E3E3E3"/>
  <path d="M10.611 7.276V6.17a2.236 2.236 0 00-2.636.921v1.106a2.237 2.237 0 012.636-.922z" fill="#BDBDBD"/>
  <path d="M16.699 5.298a1.318 1.318 0 00-1.864-1.863L10.88 7.39a2.239 2.239 0 00-2.761 3.39v5.4a2.399 2.399 0 00-3.44 2.162v2.423a2.399 2.399 0 004.797 0v-9.173a2.24 2.24 0 002.56-1.63l4.663-4.664zm-8.58 15.22a1.041 1.041 0 11-2.083 0v-1.93a1.041 1.041 0 112.082 0v1.93z" fill="#E3E3E3"/>
  <path d="M13.37 18.692c.254.619.48 1.25.648 1.896a2.696 2.696 0 005.304-.716 2.706 2.706 0 00-2.597-2.654 2.689 2.689 0 00-2.119.91l-3.004-7.32c-.295.359-.699.625-1.162.746l2.93 7.138zm3.257 2.457a1.238 1.238 0 110-2.476 1.238 1.238 0 010 2.477z" fill="#E3E3E3"/>
  <path d="M11.602 10.808c-.295.359-.699.625-1.162.746l.393.957a2.238 2.238 0 001.176-.71l-.407-.993z" fill="#BDBDBD"/>
  <path d="M10.7 9.412a.809.809 0 11-1.618 0 .809.809 0 011.617 0z" fill="#636363"/>
  <path d="M7.077 17.21A1.38 1.38 0 005.7 18.588v1.93c0 .76.618 1.379 1.378 1.379a1.38 1.38 0 001.378-1.378v-1.931a1.38 1.38 0 00-1.378-1.378zm.704 3.309a.705.705 0 01-1.408 0v-1.931a.705.705 0 011.408 0v1.93zM9.89 8.266a1.147 1.147 0 000 2.291c.632 0 1.146-.514 1.146-1.145 0-.632-.514-1.146-1.145-1.146zm0 1.617a.472.472 0 11.002-.944.472.472 0 01-.001.944zM16.627 21.486c.868 0 1.575-.706 1.575-1.575 0-.868-.707-1.575-1.575-1.575-.869 0-1.575.707-1.575 1.575 0 .869.706 1.575 1.575 1.575zm0-2.476a.902.902 0 010 1.803.902.902 0 010-1.803z" fill="#000"/>
  <path d="M14.73 17.545l-2.745-6.692a2.56 2.56 0 00.35-.715l1.734-1.733a.337.337 0 10-.477-.476c-1.89 1.912-1.841 1.79-1.883 1.947-.09.346-.29.632-.536.868-.192.185-.21.208-.502.345-.081.039-.16.082-.246.108-.306.094-.566.12-.89.063a.337.337 0 00-.396.332v9.173a2.064 2.064 0 01-2.062 2.061 2.064 2.064 0 01-2.061-2.061v-2.423c0-1.523 1.598-2.513 2.956-1.858a.337.337 0 00.483-.304c-.026-5.6.065-5.436-.073-5.61-1.155-1.451.277-3.537 2.05-2.988.1.031.2.06.296.109.13.066.287.04.39-.062l3.956-3.956A.982.982 0 0116.46 5.06l-1.818 1.818a.337.337 0 00.476.476l1.818-1.817c1.036-1.037.3-2.825-1.17-2.825-.442 0-.857.172-1.17.485l-3.649 3.649V2.155c0-.913-.742-1.655-1.654-1.655-.913 0-1.655.742-1.655 1.655v5.973a2.532 2.532 0 00.142 2.766v4.803a2.739 2.739 0 00-3.44 2.644v2.424A2.739 2.739 0 007.078 23.5a2.739 2.739 0 002.736-2.735v-8.802c.2.005.247-.033.408-.056l1.24 3.02a.337.337 0 10.623-.255l-1.197-2.916c.132-.056.247-.143.367-.22.005-.003.202-.117.226-.136l2.814 6.857c.095.23.4.282.565.095a2.353 2.353 0 011.854-.797c2.063.073 3.02 2.566 1.593 4.012-1.28 1.299-3.503.711-3.962-1.063-.342-1.323-.847-2.333-1.59-4.199a.337.337 0 10-.623.256c.741 1.86 1.233 2.847 1.56 4.112a3.03 3.03 0 002.936 2.27 3.03 3.03 0 003.032-3.076c-.036-2.512-2.97-3.895-4.928-2.322zM8.314 2.155a.982.982 0 011.961 0v4.69a2.624 2.624 0 00-1.909.464c-.016.011-.036.015-.052.028V2.155z" fill="#000"/>
</svg>
