<svg width="24" height="24" fill="none" xmlns="http://www.w3.org/2000/svg">
  <defs/>
  <path d="M22.766 2.702H1.234v1.713h21.532V2.702z" fill="#98D9D5"/>
  <path d="M1.846 5.149v.734c.202 0 .367.164.367.367v11.94h19.574V6.25c0-.203.165-.367.367-.367v-.734H1.846zM17.96 16.355a.367.367 0 110-.734.367.367 0 010 .734zm1.468-1.468a.367.367 0 110-.734.367.367 0 010 .734z" fill="#F2EBD9"/>
  <path d="M19.428 14.887a.367.367 0 100-.734.367.367 0 000 .734zM17.96 16.355a.367.367 0 100-.734.367.367 0 000 .734zM23.133 5.149a.367.367 0 00.367-.367V2.335a.367.367 0 00-.367-.367h-.612V.867a.367.367 0 10-.734 0v1.101H2.213V.867a.367.367 0 10-.734 0v1.101H.867a.367.367 0 00-.367.367v2.447c0 .203.164.367.367.367h22.266zM1.234 2.702h21.532v1.713H1.234V2.702z" fill="#082947"/>
  <path d="M21.787 6.25v11.94H2.213V6.25a.367.367 0 10-.734 0v11.94H.867a.367.367 0 100 .734h10.766v1.936c-.564.16-.979.68-.979 1.294 0 .742.604 1.346 1.346 1.346.742 0 1.346-.604 1.346-1.346 0-.614-.415-1.134-.979-1.294v-1.936h10.766a.367.367 0 000-.734h-.612V6.25a.367.367 0 10-.734 0zm-9.175 15.904a.612.612 0 11-1.225-.001.612.612 0 011.225.001z" fill="#082947"/>
</svg>
