<svg width="24" height="24" fill="none" xmlns="http://www.w3.org/2000/svg">
  <defs/>
  <path d="M3.813 4.15v1.627c0 .149.121.27.27.27H6.07V4.15H3.813z" fill="#727575"/>
  <path d="M20.186 5.777V3.18a.27.27 0 00-.079-.19L18.032.916a.27.27 0 00-.19-.08H4.558a.744.744 0 00-.745.745V4.29c0 .148.121.27.27.27h.95c.148 0 .269.12.269.269v4.67a.27.27 0 01-.27.27h-.949a.27.27 0 00-.27.269v12.382c0 .41.334.744.745.744h14.884a.744.744 0 00.744-.744V8.549a.27.27 0 00-.27-.27h-.949a.27.27 0 01-.27-.27V6.316c0-.149.121-.27.27-.27h.95a.27.27 0 00.269-.27z" fill="#898989"/>
  <path d="M18.967 6.046h.95a.27.27 0 00.269-.27V3.182a.27.27 0 00-.079-.19L18.032.916a.27.27 0 00-.19-.08h-.988a.27.27 0 01.19.08L19.12 2.99c.05.05.079.119.079.19v2.596a.27.27 0 01-.27.27h-.95a.27.27 0 00-.269.269v1.693c0 .15.121.27.27.27h.95c.148 0 .269.12.269.27v13.87a.744.744 0 01-.745.744h.989a.744.744 0 00.744-.744V8.549a.27.27 0 00-.27-.27h-.949a.27.27 0 01-.27-.27V6.316c0-.149.121-.27.27-.27z" fill="#727575"/>
  <path d="M16.94 20.186H7.06a.27.27 0 01-.27-.27V3.34c0-.149.12-.27.27-.27h9.88c.148 0 .269.121.269.27v16.578a.27.27 0 01-.27.27z" fill="#AAEBF9"/>
  <path d="M17.209 6.046V3.34a.27.27 0 00-.27-.27H7.06a.27.27 0 00-.269.27v2.707h10.419z" fill="#EDE9E8"/>
  <path d="M16.94 3.07h-.989c.15 0 .27.12.27.269v16.578a.27.27 0 01-.27.27h.988a.27.27 0 00.27-.27V3.339a.27.27 0 00-.27-.27z" fill="#7BE2F6"/>
  <path d="M6.79 6.046h10.419v1.489H6.79V6.046z" fill="#FABE2C"/>
  <path d="M14.502 17.21h.95c.148 0 .269.12.269.269v.95a.27.27 0 01-.27.269h-.949a.27.27 0 01-.27-.27v-.95c0-.148.121-.269.27-.269z" fill="#FC4C1E"/>
  <path d="M15.451 17.21h-.969c.14.01.25.127.25.269v.95a.27.27 0 01-.25.268h.97a.27.27 0 00.269-.269v-.95a.27.27 0 00-.27-.269z" fill="#DB3618"/>
  <path d="M16.22 6.046h.989v1.489h-.988V6.046z" fill="#FD9E28"/>
  <path d="M16.94 3.07h-.989c.15 0 .27.12.27.269v2.707h.988V3.34a.27.27 0 00-.27-.27z" fill="#DFD7D5"/>
  <path d="M20.186 6.383c.186 0 .337-.15.337-.337V3.07a.337.337 0 00-.099-.238L18.192.6A.336.336 0 0017.953.5H4.558c-.596 0-1.081.485-1.081 1.081v4.465c0 .186.15.337.336.337h1.152v3.048H3.813a.337.337 0 00-.336.336V22.42c0 .596.485 1.081 1.08 1.081h14.885c.596 0 1.081-.485 1.081-1.081V8.279a.337.337 0 00-.337-.337h-1.152V6.383h1.152zM4.965 5.71H4.15v-.814h.815v.814zm13.733 2.907h1.151v13.803a.408.408 0 01-.407.407H4.558a.408.408 0 01-.408-.407V10.104h1.152c.186 0 .337-.15.337-.337V4.558a.337.337 0 00-.337-.337H4.15v-2.64c0-.224.183-.407.408-.407h13.256l2.035 2.035v2.5h-1.151a.337.337 0 00-.337.337V8.28c0 .186.15.337.337.337z" fill="#000"/>
  <path d="M8.615 21.675c0 .186.151.337.337.337h9.745a.337.337 0 100-.674H8.952a.337.337 0 00-.337.337zM7.605 21.338H5.302a.337.337 0 100 .674h2.303a.337.337 0 100-.674zM6.79 20.523h10.419c.186 0 .337-.15.337-.337V3.07a.337.337 0 00-.337-.336H6.79a.337.337 0 00-.337.336v17.117c0 .186.151.337.337.337zm.337-.674V7.872h9.745v11.977H7.127zm0-13.466h9.745v.815H7.127v-.815zm9.745-2.977V5.71H7.127V3.406h9.745z" fill="#000"/>
  <path d="M15.72 16.873h-1.488a.337.337 0 00-.336.336v1.489c0 .186.15.337.336.337h1.489c.186 0 .337-.151.337-.337v-1.489a.337.337 0 00-.337-.336zm-.336 1.488h-.815v-.815h.815v.815zM15.72 15.384h-1.488a.337.337 0 100 .674h1.489a.337.337 0 100-.674z" fill="#000"/>
</svg>
