<svg width="24" height="24" fill="none" xmlns="http://www.w3.org/2000/svg">
  <defs/>
  <path d="M17.496 19.601a10.372 10.372 0 01-6.24 2.075c-5.754 0-10.42-4.665-10.42-10.42C.837 5.504 5.503.839 11.257.839s10.419 4.665 10.419 10.419c0 2.34-.772 4.5-2.075 6.24" fill="#00BCE7"/>
  <path d="M11.076.838c-.15 0-.3.004-.449.01 5.546.236 9.97 4.805 9.97 10.409 0 2.34-.772 4.5-2.075 6.24L16.419 19.6a10.367 10.367 0 01-5.784 2.065 10.372 10.372 0 006.682-2.064l2.105-2.106a10.372 10.372 0 002.074-6.24C21.495 5.504 16.83.839 11.076.839z" fill="#0094D4"/>
  <g>
    <path d="M19.13 18.079l-1.444-1.443-1.052 1.052 1.443 1.443 1.053-1.052z" fill="#49484D"/>
    <path d="M13.69 18.901a5.21 5.21 0 100-10.419 5.21 5.21 0 000 10.42z" fill="#58565C"/>
    <path d="M13.69 17.414a3.721 3.721 0 100-7.442 3.721 3.721 0 000 7.442z" fill="#B6E3EE"/>
    <path d="M16.323 11.062A3.714 3.714 0 0013.243 10a3.721 3.721 0 010 7.386 3.72 3.72 0 003.08-6.324z" fill="#96D2E0"/>
    <path d="M22.973 21.25l-1.724 1.724a.27.27 0 01-.381 0l-3.303-3.302a.27.27 0 010-.381l1.724-1.724a.27.27 0 01.381 0l3.303 3.302a.27.27 0 010 .381z" fill="#985335"/>
    <path d="M19.289 17.567l-.636.635a.27.27 0 01.382 0l3.302 3.302a.27.27 0 010 .382l.635-.636a.27.27 0 000-.38l-3.302-3.303a.27.27 0 00-.381 0z" fill="#87462A"/>
  </g>
  <g fill="#000">
    <path d="M16.56 10.822a4.031 4.031 0 00-2.87-1.19 4.031 4.031 0 00-2.869 1.19 4.031 4.031 0 00-1.188 2.869c0 1.084.422 2.103 1.188 2.87a4.045 4.045 0 002.87 1.186 4.047 4.047 0 002.87-1.187 4.031 4.031 0 001.188-2.87 4.031 4.031 0 00-1.189-2.868zm-.476 5.262c-.64.639-1.49.99-2.393.99a3.362 3.362 0 01-2.393-.99 3.362 3.362 0 01-.991-2.393c0-.904.352-1.754.99-2.393a3.362 3.362 0 012.394-.991c.904 0 1.753.352 2.393.99.639.64.99 1.49.99 2.394 0 .904-.351 1.754-.99 2.393z"/>
    <path d="M23.401 20.82l-3.359-3.36a10.66 10.66 0 001.97-6.204c0-2.873-1.12-5.574-3.15-7.606A10.686 10.686 0 0011.255.5 10.686 10.686 0 003.65 3.65 10.686 10.686 0 00.5 11.256c0 2.873 1.119 5.574 3.15 7.605a10.686 10.686 0 007.606 3.15c2.245 0 4.384-.68 6.205-1.969l3.359 3.36a.337.337 0 00.476 0l2.105-2.106a.337.337 0 000-.476zm-22.22-9.227h4.532c.024 1.601.227 3.143.588 4.535H2.432a10.013 10.013 0 01-1.252-4.535zm1.251-5.21h3.869c-.361 1.393-.564 2.935-.589 4.536h-4.53-.002c.054-1.64.502-3.183 1.252-4.536zm18.9 4.536h-2.837a5.536 5.536 0 00-1.811-1.898c-.1-.92-.26-1.806-.476-2.638h3.872a10.012 10.012 0 011.252 4.536zm-1.247 5.21h-1.412a5.576 5.576 0 00.152-4.536h2.507a9.98 9.98 0 01-1.247 4.535zm-.844 1.007l-.288.288-.622-.622h1.346c-.053.08-.107.159-.162.238a.336.336 0 00-.274.096zm-8.995 0a4.878 4.878 0 010-6.89A4.857 4.857 0 0113.69 8.82c1.248 0 2.495.474 3.445 1.424 1.9 1.9 1.9 4.991 0 6.891a4.878 4.878 0 01-6.89 0zm3.445 2.099c.18 0 .358-.01.537-.026-.768 1.234-1.681 1.965-2.635 2.104v-2.488c.67.273 1.384.41 2.098.41zm2.267-10.606a5.577 5.577 0 00-4.365-.072V6.383h3.919c.192.708.342 1.462.446 2.246zm-4.365-2.92V1.2c.973.146 1.921.918 2.7 2.21.398.662.74 1.44 1.019 2.3h-3.72zm-.674-4.51v4.51H7.197c.194-.596.42-1.156.676-1.67.841-1.682 1.912-2.675 3.046-2.84zm0 5.184v2.504a5.537 5.537 0 00-2.032 2.032h-2.5c.025-1.61.235-3.155.61-4.536h3.922zm-4.533 5.21h2.17a5.576 5.576 0 00.153 4.535H6.997c-.375-1.38-.585-2.924-.61-4.535zm2.713 5.21a5.547 5.547 0 001.82 1.692v2.818c-1.134-.165-2.205-1.159-3.046-2.84a12.048 12.048 0 01-.676-1.67H9.1zm5.995 2.252a5.508 5.508 0 001.68-.753l.65.651-.288.288a.336.336 0 00-.096.274 9.975 9.975 0 01-3.499 1.564c.57-.492 1.095-1.172 1.553-2.024zm2.807-.578l-.587-.587a5.587 5.587 0 00.576-.576l.587.587-.576.576zM19.67 5.71h-3.653c-.306-.994-.693-1.891-1.148-2.648-.402-.667-.85-1.213-1.331-1.627 2.549.592 4.73 2.154 6.132 4.275zM8.962 1.437c-.628.545-1.2 1.32-1.691 2.301a12.897 12.897 0 00-.78 1.972h-3.65a10.113 10.113 0 016.121-4.273zM2.841 16.802h3.65c.218.707.478 1.37.78 1.972.49.982 1.063 1.756 1.691 2.3a10.113 10.113 0 01-6.121-4.272zm16.638 1.049l.576.576-1.628 1.628-.576-.576 1.628-1.628zm1.58 4.835l-2.156-2.154 1.629-1.629 2.155 2.155-1.629 1.628z"/>
  </g>
</svg>
