<svg width="24" height="24" fill="none" xmlns="http://www.w3.org/2000/svg">
  <defs/>
  <path d="M15.738 13.753H8.262a7.425 7.425 0 00-7.425 7.425v1.29c0 .385.311.696.696.696h20.934a.696.696 0 00.696-.696v-1.29c0-4.1-3.324-7.425-7.425-7.425z" fill="#A698A6"/>
  <path d="M15.738 13.753h-2.691c4.1 0 7.425 3.312 7.425 7.397v1.321a.695.695 0 01-.696.693h2.69c.385 0 .697-.31.697-.693v-1.32c0-4.086-3.325-7.398-7.425-7.398z" fill="#8F8290"/>
  <path d="M7.458 20.768h-3.41a.428.428 0 01-.429-.428v-1.56c0-.237.192-.428.428-.428h3.41c.237 0 .429.191.429.428v1.56a.428.428 0 01-.428.428z" fill="#F9F0F0"/>
  <path d="M7.458 18.352H7.37v1.476a.427.427 0 01-.428.426H3.619v.088c0 .235.192.427.428.427h3.41a.427.427 0 00.429-.427v-1.564a.427.427 0 00-.428-.426z" fill="#F1E8E4"/>
  <path d="M13.303 16.058h-2.65a2.178 2.178 0 01-2.178-2.178v-3.298h7.006v3.298a2.178 2.178 0 01-2.178 2.178z" fill="#FFCBBE"/>
  <path d="M13.738 10.582v3.306c0 1.198-.976 2.17-2.178 2.17h1.743a2.174 2.174 0 002.178-2.17v-3.306h-1.743z" fill="#FEAE9E"/>
  <path d="M18.019 7.872a1.244 1.244 0 00-.825-.125V5.29H6.762v2.456A1.243 1.243 0 005.43 9.552c.237.438.875 1.003 1.44 1.155a4.317 4.317 0 004.208 3.356h1.8a4.317 4.317 0 004.208-3.356c.564-.152 1.203-.717 1.44-1.155a1.238 1.238 0 00-.507-1.68z" fill="#FFCBBE"/>
  <path d="M18.019 7.872a1.243 1.243 0 00-.826-.125V5.29h-1.758v4.472c0 2.375-1.933 4.3-4.316 4.3h1.759a4.313 4.313 0 004.21-3.356c.564-.154 1.201-.718 1.437-1.155a1.238 1.238 0 00-.506-1.68z" fill="#FEAE9E"/>
  <path d="M8.979.836h5.997c1.225 0 2.217.992 2.217 2.217v2.691H6.762V3.053c0-1.225.992-2.217 2.217-2.217z" fill="#A698A6"/>
  <path d="M14.976.836h-2.348c1.224 0 2.217.989 2.217 2.209v2.7h2.348v-2.7c0-1.22-.992-2.21-2.217-2.21z" fill="#8F8290"/>
  <path d="M11.977 12.667a1.038 1.038 0 01-1.037-1.038v-.97a1.038 1.038 0 112.076 0v.97c0 .574-.465 1.038-1.039 1.038z" fill="#D58678"/>
  <path d="M12.296 9.671c.032.1.05.207.05.317v.977a1.036 1.036 0 01-1.357.985 1.038 1.038 0 002.026-.317v-.977c0-.46-.302-.85-.72-.985z" fill="#CA6D56"/>
  <path d="M6.665 6.779H17.29c.5 0 .811-.54.56-.97l-.64-1.1H6.778l-.666 1.089a.645.645 0 00.553.98z" fill="#B1ACB6"/>
  <path d="M17.85 5.81l-.64-1.1H14.86l.64 1.1c.251.43-.06.969-.56.969h2.349c.499 0 .81-.54.56-.97z" fill="#A698A6"/>
  <path d="M12.002 3.558c.44 0 .797-.355.797-.793a.795.795 0 00-.797-.793.795.795 0 00-.796.793c0 .438.357.793.796.793z" fill="#F9C301"/>
  <path d="M12.3 2.03a.795.795 0 01-1.036 1.032.796.796 0 001.535-.297.793.793 0 00-.498-.736z" fill="#E7B801"/>
  <path d="M20.503 12.918a.591.591 0 01-.593-.59V5.885a.591.591 0 011.185 0v6.441c0 .326-.265.59-.592.59z" fill="#695E67"/>
  <path d="M20.503 5.296a.59.59 0 00-.296.08.589.589 0 01.296.51v6.441c0 .219-.12.409-.296.51a.59.59 0 00.889-.51V5.886a.591.591 0 00-.593-.59z" fill="#544E56"/>
  <path d="M20.076 21.566H15.49a1.262 1.262 0 01-1.261-1.262v-7.315c0-.697.564-1.262 1.261-1.262h4.585c.696 0 1.261.565 1.261 1.262v7.315c0 .697-.565 1.262-1.261 1.262z" fill="#695E67"/>
  <path d="M20.076 11.727h-.284v5.59a2.714 2.714 0 01-2.72 2.709H14.23v.282a1.26 1.26 0 001.261 1.258h4.585a1.26 1.26 0 001.261-1.258v-7.324a1.26 1.26 0 00-1.261-1.257z" fill="#544E56"/>
  <path d="M3.282 18.778v1.564c0 .42.344.762.765.762h3.41a.765.765 0 00.766-.762v-1.564a.765.765 0 00-.765-.762h-3.41a.765.765 0 00-.766.762zm4.267 0v1.564c0 .05-.041.09-.091.09h-3.41a.091.091 0 01-.092-.09v-1.564c0-.05.041-.09.091-.09h3.41c.051 0 .092.04.092.09z" fill="#000"/>
  <path d="M4.89 19.879h.912a.336.336 0 100-.671H4.89a.336.336 0 100 .671zM11.977 9.286c-.758 0-1.375.614-1.375 1.37v.977c0 .755.617 1.37 1.375 1.37.759 0 1.375-.615 1.375-1.37v-.977c0-.756-.616-1.37-1.375-1.37zm.702 2.347a.7.7 0 01-1.403 0v-.977a.7.7 0 011.403 0v.977zM9.757 8.999a.639.639 0 10-.64-.638c0 .353.287.638.64.638zM14.258 8.999a.639.639 0 10-.64-.638c0 .353.287.638.64.638zM12.002 1.636c-.624 0-1.133.506-1.133 1.13a1.132 1.132 0 002.267 0c0-.624-.509-1.13-1.134-1.13zm0 1.587a.46.46 0 01-.459-.458.46.46 0 01.919 0 .46.46 0 01-.46.458z" fill="#000"/>
  <path d="M21.674 16.168v-3.184c0-.31-.09-.598-.243-.843l.001-.023V5.886a.929.929 0 00-1.858 0v5.505h-2.34c.053-.14.099-.281.138-.425.611-.241 1.21-.81 1.45-1.255a1.575 1.575 0 00-1.292-2.319v-.307a.973.973 0 00.613-.462.968.968 0 00-.002-.982l-.61-1.05V3.046A2.552 2.552 0 0014.975.5H8.979a2.552 2.552 0 00-2.554 2.545V4.64l-.6.982a.967.967 0 00-.018.99.971.971 0 00.618.472v.307a1.59 1.59 0 00-.648.185c-.372.199-.644.53-.766.934a1.56 1.56 0 00.122 1.2c.24.444.839 1.014 1.45 1.255a4.655 4.655 0 001.555 2.39v.063a7.737 7.737 0 00-2.814.571.335.335 0 10.256.622 7.066 7.066 0 012.566-.522 2.514 2.514 0 002.506 2.304h2.65c.202 0 .399-.024.59-.07v3.984c0 .879.718 1.593 1.599 1.593h4.584c.882 0 1.599-.714 1.599-1.593V17.29a7.044 7.044 0 011.152 3.86v1.321a.359.359 0 01-.359.358H1.533a.359.359 0 01-.36-.358v-1.32A7.053 7.053 0 014.3 15.293a.335.335 0 00.09-.466.338.338 0 00-.467-.09A7.722 7.722 0 00.5 21.15v1.321c0 .567.463 1.029 1.033 1.029h20.934c.57 0 1.033-.462 1.033-1.029v-1.32c0-1.825-.648-3.59-1.826-4.983zM20.247 5.886a.255.255 0 01.511 0v5.658a1.59 1.59 0 00-.51-.143V5.886zm-13.852.4a.303.303 0 01.005-.314l.567-.927h6.496a.336.336 0 100-.671H7.099v-1.33c0-1.032.843-1.873 1.88-1.873h5.997c1.037 0 1.88.84 1.88 1.874v1.329h-1.811a.336.336 0 100 .671h1.97l.543.933a.303.303 0 010 .31.306.306 0 01-.268.155H6.666a.305.305 0 01-.271-.158zm7.497 6.698v2.642a1.836 1.836 0 01-.59.096h-2.65a1.84 1.84 0 01-1.84-1.834v-.077a4.68 4.68 0 002.265.587h1.586a.336.336 0 100-.671h-1.586c-1.846 0-3.479-1.301-3.882-3.094a.336.336 0 00-.24-.25c-.466-.127-1.033-.627-1.229-.99a.9.9 0 01.37-1.225.9.9 0 01.602-.092.338.338 0 00.4-.33v-.632h9.758v.633a.335.335 0 00.401.33.9.9 0 01.602.09.9.9 0 01.37 1.226c-.196.363-.763.863-1.23.99a.336.336 0 00-.24.25c-.058.26-.143.515-.253.758H15.49c-.881 0-1.599.715-1.599 1.593zM21 20.308a.924.924 0 01-.925.922h-4.584a.924.924 0 01-.925-.922v-7.324c0-.508.415-.921.925-.921h4.584c.51 0 .925.413.925.921v7.324z" fill="#000"/>
</svg>
