<svg width="24" height="24" fill="none" xmlns="http://www.w3.org/2000/svg">
  <defs/>
  <path d="M11.824 11.337V6.36c0-3.01 2.45-5.46 5.46-5.46s5.46 2.45 5.46 5.46v4.978h-1.99V6.36a3.475 3.475 0 00-3.47-3.472 3.475 3.475 0 00-3.471 3.472v4.978h-1.989z" fill="#CFDCE5"/>
  <path d="M15.454 11.337H1.246v11.764h14.208V11.337z" fill="#FF6F52"/>
  <path d="M10.096 20.572l-1.032-3.033a1.906 1.906 0 10-1.428 0l-1.032 3.033h3.492z" fill="#314A5F"/>
  <path d="M17.29.5c-.893 0-1.75.196-2.548.583a.399.399 0 00.348.718 5 5 0 012.2-.503c2.79 0 5.06 2.27 5.06 5.06v4.58h-1.19v-4.58a3.875 3.875 0 00-3.87-3.87 3.874 3.874 0 00-3.87 3.87v4.58h-1.191v-4.58c0-1.48.648-2.884 1.78-3.85a.399.399 0 00-.519-.606 5.854 5.854 0 00-2.059 4.457v4.58H1.251a.399.399 0 00-.398.398v7.511a.399.399 0 10.797 0v-7.112h13.41v10.966H1.65V20.23a.399.399 0 10-.797 0v2.872c0 .22.178.399.398.399H15.46c.22 0 .399-.179.399-.399V11.337a.399.399 0 00-.399-.399h-1.242v-4.58a3.076 3.076 0 013.072-3.072 3.076 3.076 0 013.072 3.073v4.978c0 .22.179.399.4.399h1.988c.22 0 .399-.179.399-.399V6.36A5.865 5.865 0 0017.289.5z" fill="#000"/>
  <path d="M10.66 15.772a2.307 2.307 0 00-2.305-2.304 2.307 2.307 0 00-2.304 2.304c0 .815.422 1.552 1.101 1.966l-.92 2.706a.399.399 0 00.377.527h3.492a.399.399 0 00.378-.527l-.92-2.706a2.293 2.293 0 001.1-1.966zM8.92 17.17a.399.399 0 00-.229.498l.853 2.506H7.166l.853-2.506a.399.399 0 00-.228-.498 1.5 1.5 0 01-.942-1.397c0-.83.675-1.507 1.506-1.507.83 0 1.507.676 1.507 1.507a1.5 1.5 0 01-.943 1.397z" fill="#000"/>
</svg>
