<svg width="24" height="24" fill="none" xmlns="http://www.w3.org/2000/svg">
  <defs/>
  <path d="M17.948 7.34h3.667V.883H2.396V7.34h3.666" fill="#FCD577"/>
  <path d="M17.949 7.34h2.77v15.748H3.293V7.34h2.771" fill="#CFDCE5"/>
  <path d="M17.949 7.34h2.77v1.263H3.293V7.341h2.771" fill="#BAC6CC"/>
  <g fill="#4EBFED">
    <path d="M6.91 5.488a.847.847 0 00-.848.847v1.694a.847.847 0 101.695 0V6.335a.847.847 0 00-.847-.847zM17.101 5.487a.847.847 0 00-.847.847v1.694a.847.847 0 101.694 0V6.334a.847.847 0 00-.847-.847z"/>
  </g>
  <path d="M21.61.5h-3.6a.397.397 0 100 .794h3.202V6.96H18.34V6.35c0-.686-.558-1.244-1.244-1.244-.686 0-1.244.558-1.244 1.244v.609H8.149V6.35c0-.686-.558-1.244-1.244-1.244-.686 0-1.245.558-1.245 1.244v.609H2.788V1.294h13.898a.397.397 0 000-.794H2.39a.397.397 0 00-.397.397v6.46c0 .218.178.396.397.396h.498v2.462a.397.397 0 10.795 0V7.753H5.66v.291a1.246 1.246 0 002.488 0v-.29h7.704v.29c0 .686.558 1.245 1.244 1.245.686 0 1.244-.559 1.244-1.245v-.29h1.977v14.952H3.684V11.539a.397.397 0 10-.795 0v11.564c0 .22.178.397.398.397h17.427c.22 0 .397-.178.397-.397V7.753h.498c.22 0 .398-.178.398-.397V.897A.397.397 0 0021.609.5zM6.905 8.494a.45.45 0 01-.45-.45V6.35a.45.45 0 01.9 0v1.694a.45.45 0 01-.45.45zm10.641-.45a.45.45 0 01-.9 0V6.35a.45.45 0 01.9 0v1.694z" fill="#000"/>
  <path d="M7.99 17.135l-.665.29c-.51.222-.839.724-.839 1.28v.51c0 .22.178.397.397.397h4.13a.397.397 0 000-.794H7.281v-.113c0-.24.141-.456.36-.552l.667-.29a5.165 5.165 0 003.102-4.736 2.465 2.465 0 00-2.462-2.462 2.465 2.465 0 00-2.462 2.462.397.397 0 10.794 0c0-.92.749-1.668 1.668-1.668.92 0 1.668.748 1.668 1.668 0 1.74-1.03 3.313-2.625 4.008zM13.19 12.942c.218 0 .396-.178.396-.397v-.977h3.348a.397.397 0 000-.794H13.19a.397.397 0 00-.397.397v1.374c0 .219.178.397.397.397zM13.47 18.26a.397.397 0 00-.562.562 2.69 2.69 0 001.908.79 2.69 2.69 0 001.908-.79c.51-.51.79-1.187.79-1.908 0-.72-.28-1.398-.79-1.908a2.703 2.703 0 00-3.138-.494v-.644a.397.397 0 10-.794 0v1.419a.397.397 0 00.678.28 1.906 1.906 0 013.25 1.347c0 .509-.197.987-.557 1.346a1.906 1.906 0 01-2.693 0z" fill="#000"/>
</svg>
