<svg width="24" height="24" fill="none" xmlns="http://www.w3.org/2000/svg">
  <defs/>
  <path d="M15.426 18.484c0-.203.164-.367.367-.367h4.282V1.234H3.925v21.532h11.5v-4.282zm2.08-5.016h-5.703a.367.367 0 110-.734h5.703a.367.367 0 010 .734zm.367 1.101a.367.367 0 01-.367.367H9.92a.367.367 0 110-.734h7.586c.202 0 .367.164.367.367zm-.367-5.016h-.49a.367.367 0 110-.734h.49a.367.367 0 110 .734zm0-1.468h-.49a.367.367 0 110-.734h.49a.367.367 0 110 .734zM15.18 4.782a.367.367 0 11.734 0c0 .543.164.56.651.614.489.053 1.307.141 1.307 1.343a.367.367 0 11-.735 0c0-.543-.164-.56-.65-.614a2.52 2.52 0 01-.573-.11v3.783c0 .675-.604 1.223-1.346 1.223-.742 0-1.345-.549-1.345-1.223 0-.675.603-1.224 1.345-1.224.22 0 .428.05.612.135V4.782zM6.495 5.883h7.585a.367.367 0 110 .734H6.495a.367.367 0 110-.734zm0 1.468h7.585a.367.367 0 110 .734H6.495a.367.367 0 110-.734zm0 1.468h5.922a.367.367 0 110 .734H6.495a.367.367 0 110-.734zm0 3.915h.49a.367.367 0 110 .734h-.49a.367.367 0 110-.734zm0 1.468h.49a.367.367 0 110 .734h-.49a.367.367 0 110-.734zm2.324-1.336v3.783c0 .674-.603 1.223-1.345 1.223s-1.346-.549-1.346-1.223c0-.675.604-1.224 1.346-1.224.22 0 .428.05.611.135v-3.927a.367.367 0 11.734 0c0 .543.165.561.652.614.488.053 1.306.142 1.306 1.343a.367.367 0 11-.734 0c0-.543-.164-.56-.651-.613-.168-.019-.374-.041-.573-.11zm.734 3.171c0-.202.165-.367.367-.367h7.586a.367.367 0 110 .734H9.92a.367.367 0 01-.367-.367z" fill="#F2EBD9"/>
  <path d="M16.16 18.851v3.396l3.395-3.396H16.16z" fill="#FFCC75"/>
  <path d="M7.473 16.16c-.337 0-.612.22-.612.489 0 .27.275.49.612.49.337 0 .612-.22.612-.49s-.275-.49-.612-.49z" fill="#274B6D"/>
  <path d="M10.043 13.59a.367.367 0 10.734 0c0-1.201-.818-1.29-1.306-1.343-.487-.053-.652-.07-.652-.614a.367.367 0 10-.734 0v3.927a1.446 1.446 0 00-.611-.135c-.742 0-1.346.55-1.346 1.224 0 .674.604 1.223 1.346 1.223.742 0 1.345-.549 1.345-1.223v-3.783c.199.07.405.092.573.11.487.053.65.071.65.614zM8.085 16.65c0 .27-.274.49-.611.49-.338 0-.612-.22-.612-.49s.274-.49.612-.49c.337 0 .611.22.611.49z" fill="#082947"/>
  <path d="M6.495 14.936h.49a.367.367 0 100-.734h-.49a.367.367 0 100 .734zM17.505 14.202H9.92a.367.367 0 100 .734h7.585a.367.367 0 000-.734zM17.505 12.734h-5.702a.367.367 0 100 .734h5.702a.367.367 0 100-.734zM17.505 16.404a.367.367 0 000-.734H9.92a.367.367 0 100 .734h7.585zM6.495 13.468h.49a.367.367 0 100-.734h-.49a.367.367 0 100 .734z" fill="#082947"/>
  <path d="M13.957 9.798c0 .27.274.49.612.49.337 0 .611-.22.611-.49s-.274-.49-.611-.49c-.338 0-.612.22-.612.49z" fill="#274B6D"/>
  <path d="M13.224 9.798c0 .675.603 1.223 1.345 1.223s1.346-.549 1.346-1.223V6.015c.199.07.405.092.572.11.487.053.652.071.652.614a.367.367 0 10.734 0c0-1.202-.818-1.29-1.307-1.343-.487-.053-.65-.07-.65-.614a.367.367 0 10-.735 0v3.927a1.446 1.446 0 00-.612-.135c-.742 0-1.345.55-1.345 1.224zm1.957 0c0 .27-.274.49-.612.49-.337 0-.611-.22-.611-.49s.274-.49.611-.49c.338 0 .612.22.612.49z" fill="#082947"/>
  <path d="M6.495 8.085h7.585a.367.367 0 100-.734H6.495a.367.367 0 100 .734zM17.505 7.351h-.49a.367.367 0 100 .734h.49a.367.367 0 100-.734zM6.495 9.553h5.922a.367.367 0 100-.734H6.495a.367.367 0 100 .734zM17.505 8.82h-.49a.367.367 0 100 .733h.49a.367.367 0 100-.734zM6.495 6.617h7.585a.367.367 0 100-.734H6.495a.367.367 0 100 .734z" fill="#082947"/>
  <path d="M20.731 18.71a.454.454 0 00.015-.022l.005-.007a.367.367 0 00.014-.024l.002-.004a.357.357 0 00.013-.028l.002-.003a.404.404 0 00.01-.031l.001-.003a.351.351 0 00.008-.032l.002-.009.004-.026a.37.37 0 00.001-.037V.867A.367.367 0 0020.441.5H3.558a.367.367 0 00-.367.367v22.266c0 .203.165.367.367.367h12.235c.012 0 .024 0 .036-.002.01 0 .018-.002.027-.004l.009-.001a.337.337 0 00.031-.008l.003-.001a.328.328 0 00.031-.011l.003-.001a.375.375 0 00.028-.013l.005-.003a.335.335 0 00.024-.014l.006-.004a.319.319 0 00.022-.016l.007-.006a.365.365 0 00.021-.018l.006-.006 4.649-4.648.005-.006a.33.33 0 00.019-.021l.006-.008zM3.925 1.233h16.15v16.883h-4.282a.367.367 0 00-.368.367v4.282h-11.5V1.234zM16.16 18.851h3.395l-3.395 3.396V18.85z" fill="#082947"/>
</svg>
