<svg width="24" height="24" fill="none" xmlns="http://www.w3.org/2000/svg">
  <defs/>
  <path d="M13.86 1.79h-3.72v4.79h3.72V1.79z" fill="#F2F2F2"/>
  <path d="M13.86 1.79h-.898v4.79h.898V1.79z" fill="#E6E6E6"/>
  <path d="M9.023 7.758V6.315c0-.149.121-.27.27-.27h5.415c.148 0 .27.121.27.27v1.443H9.022z" fill="#FFD151"/>
  <path d="M14.707 6.045h-.898c.149 0 .27.121.27.27v1.443h.898V6.315a.27.27 0 00-.27-.27z" fill="#F79B4A"/>
  <path d="M13.86 3.069L10.14 5.3v-3.51h3.72v1.278z" fill="#FF2551"/>
  <path d="M12.962 3.608l.898-.54V1.79h-.898v1.818z" fill="#C21750"/>
  <path d="M13.963 2.324h-3.926a.27.27 0 01-.27-.27v-.948c0-.15.121-.27.27-.27h3.926c.15 0 .27.12.27.27v.949a.27.27 0 01-.27.27z" fill="#FFD151"/>
  <path d="M13.963.835h-.898c.148 0 .269.12.269.27v.949a.27.27 0 01-.27.27h.899a.27.27 0 00.27-.27v-.95a.27.27 0 00-.27-.269z" fill="#F79B4A"/>
  <path d="M18.697 15.179l-.752-6.31a1.489 1.489 0 00-1.48-1.335h-8.93c-.77 0-1.404.585-1.481 1.335l-.752 6.31v.414h13.395v-.414z" fill="#B6E3EE"/>
  <path d="M17.946 8.869a1.489 1.489 0 00-1.48-1.335h-.899c.77 0 1.404.585 1.481 1.335l.752 6.31v.414h.898v-.414l-.752-6.31z" fill="#96D2E0"/>
  <path d="M17.581 22.79l2.512-6.816a.27.27 0 00-.161-.346l-7.84-2.851a.27.27 0 00-.184 0l-7.84 2.85a.27.27 0 00-.16.347l2.51 6.816 1.157.372 2.183-.741 2.4.629 2.084-.63 2.273.742 1.066-.372z" fill="#58565C"/>
  <path d="M19.932 15.628l-7.84-2.851a.27.27 0 00-.184 0l-.425.154 7.416 2.697a.27.27 0 01.16.346l-2.51 6.816-.568.198.534.174 1.067-.372 2.51-6.816a.27.27 0 00-.16-.346z" fill="#49484D"/>
  <path d="M8.754 11.627H7.096a.27.27 0 01-.268-.303l.119-.95a.27.27 0 01.267-.235h1.54c.148 0 .27.12.27.27v.948a.27.27 0 01-.27.27zM13.591 11.627H10.41a.27.27 0 01-.27-.27v-.949c0-.149.121-.27.27-.27h3.182c.149 0 .27.121.27.27v.95a.27.27 0 01-.27.269zM16.904 11.627h-1.658a.27.27 0 01-.27-.27v-.949c0-.149.121-.27.27-.27h1.54a.27.27 0 01.267.237l.118.949a.27.27 0 01-.267.303z" fill="#00BCE7"/>
  <path d="M19.932 15.627l-7.84-2.85a.27.27 0 00-.184 0l-7.84 2.85a.27.27 0 00-.16.347l.404 1.099L12 14.232l7.688 2.84.405-1.098a.27.27 0 00-.161-.347z" fill="#FFD151"/>
  <g>
    <path d="M18.989 15.358a.27.27 0 01.16.346l-.379 1.03.918.338.405-1.098a.27.27 0 00-.16-.347l-.944-.269z" fill="#F79B4A"/>
  </g>
  <g fill="#000">
    <path d="M23.483 22.312a.337.337 0 00-.427-.213l-2.126.709-2.126-.709a.336.336 0 00-.213 0l-.451.15 2.362-6.411a.336.336 0 00-.2-.434l-1.294-.47-.727-6.102a1.82 1.82 0 00-1.816-1.634h-1.151V6.046a.337.337 0 00-.337-.337h-.78V2.662h.036c.186 0 .336-.15.336-.337V.837A.337.337 0 0014.233.5H9.767a.337.337 0 00-.337.337v1.488c0 .186.151.337.337.337h.036V5.71h-.78a.337.337 0 00-.337.337v1.152H7.535a1.82 1.82 0 00-1.816 1.634l-.727 6.102-1.293.47a.337.337 0 00-.201.434l.498 1.351v.002L5.86 22.25l-.451-.15a.336.336 0 00-.213 0l-2.126.708-2.126-.709a.337.337 0 10-.214.64l2.233.744c.07.023.144.023.213 0l2.126-.71 1.005.336 1.121.374c.07.023.144.023.213 0l2.126-.71 2.126.71h.002a.339.339 0 00.21 0h.001l2.127-.71 2.125.71c.07.023.144.023.214 0l2.126-.71 2.126.71c.069.023.144.023.213 0l2.232-.745a.337.337 0 00.214-.426zm-3.995-5.672l-7.151-2.642v-.773l6.236 2.268.004.001 1.176.428-.265.718zM10.104 1.175h3.792v.814h-3.792v-.814zm3.42 1.488v.217l-3.048 1.828V2.662h3.048zm-3.048 2.83l3.048-1.827v2.044h-3.048v-.216zm-1.116.891h5.28v.815H9.36v-.815zM7.535 7.872h8.93c.517 0 .958.337 1.102.814H6.433a1.148 1.148 0 011.102-.814zm-1.2 1.488h11.33l.634 5.316-6.184-2.248-.003-.001a.332.332 0 00-.051-.014l-.007-.001a.338.338 0 00-.108 0l-.007.001a.332.332 0 00-.05.014h-.004L5.7 14.677l.634-5.316zm-.914 6.135l.003-.001 6.24-2.269v.773L4.511 16.64l-.265-.719 1.174-.427zm11.044 7.313l-2.126-.709a.336.336 0 00-.213 0l-1.79.597v-1.908a.337.337 0 10-.673 0v1.908l-1.789-.597a.336.336 0 00-.213 0l-2.126.709-.856-.285-1.934-5.25 6.918-2.557v4.726a.337.337 0 10.674 0v-4.726l6.918 2.557-1.934 5.25-.856.285z"/>
    <path d="M9.768 16.5a.337.337 0 00-.337.337v1.096l-2.347.64-.27-.736a.337.337 0 10-.633.233l.378 1.026a.337.337 0 00.405.208l2.893-.789a.337.337 0 00.248-.325v-1.353a.337.337 0 00-.337-.337zM17.441 19.096l.378-1.026a.337.337 0 00-.632-.233l-.271.736-2.347-.64v-1.096a.337.337 0 10-.674 0v1.353c0 .152.102.285.249.325l2.893.79a.337.337 0 00.405-.209zM9.024 9.803H6.977a.337.337 0 00-.334.295l-.186 1.488a.337.337 0 00.334.379h2.233c.186 0 .337-.151.337-.337v-1.489a.337.337 0 00-.337-.336zm-.337 1.488H7.173l.102-.815h1.412v.815zM14.198 11.628v-1.489a.337.337 0 00-.337-.336H10.14a.337.337 0 00-.337.336v1.489c0 .186.15.337.337.337h3.72c.187 0 .338-.151.338-.337zm-.674-.337h-3.047v-.815h3.047v.815zM14.977 11.965h2.232a.337.337 0 00.335-.379l-.186-1.488a.337.337 0 00-.335-.295h-2.046a.337.337 0 00-.337.336v1.489c0 .186.15.337.337.337zm.336-1.489h1.413l.102.815h-1.514v-.815z"/>
  </g>
</svg>
