<svg width="24" height="24" fill="none" xmlns="http://www.w3.org/2000/svg">
  <defs/>
  <g fill="#DAE4EA">
    <path d="M8.802.837a1.699 1.699 0 100 3.398 1.699 1.699 0 000-3.398zm0 2.266a.567.567 0 110-1.135.567.567 0 010 1.135zM7.654 5.359h2.297V7.71H7.654V5.359zM8.802 19.766a1.699 1.699 0 100 3.398 1.699 1.699 0 000-3.398zm0 2.267a.567.567 0 110-1.135.567.567 0 010 1.135zM7.922 17.348h1.761v1.295H7.922v-1.295z"/>
  </g>
  <path d="M7.554 7.71h2.498v1.712H7.554V7.71z" fill="#F6F9F9"/>
  <path d="M6.978 9.422h3.65v1.155h-3.65V9.422zM6.978 16.192h3.65v1.155h-3.65v-1.155z" fill="#E28086"/>
  <path d="M8.13 10.577h1.345v5.615H8.13v-5.615z" fill="#808B95"/>
  <path d="M8.803 19.765c.199 0 .39.035.567.097v-1.22H8.235v1.22c.178-.062.369-.097.568-.097zM8.803 4.235c.199 0 .39-.035.567-.097v1.22H8.235v-1.22c.178.062.369.097.568.097z" fill="#C6D0DA"/>
  <path d="M15.197 19.765a1.699 1.699 0 100 3.398 1.699 1.699 0 000-3.398zm0 2.267a.567.567 0 110-1.135.567.567 0 010 1.135zM16.346 18.642h-2.297V16.29h2.297v2.352zM15.197.837a1.699 1.699 0 100 3.398 1.699 1.699 0 000-3.398zm0 2.266a.567.567 0 110-1.135.567.567 0 010 1.135zM16.077 6.653h-1.761V5.358h1.761v1.295z" fill="#DAE4EA"/>
  <path d="M16.445 16.29h-2.498v-1.712h2.498v1.712z" fill="#F6F9F9"/>
  <path d="M17.023 14.578h-3.651v-1.155h3.65v1.155zM17.023 7.808h-3.651V6.653h3.65v1.155z" fill="#E28086"/>
  <path d="M15.87 13.423h-1.346V7.808h1.345v5.615z" fill="#808B95"/>
  <path d="M15.197 4.235c-.199 0-.39-.035-.567-.097v1.22h1.135v-1.22a1.696 1.696 0 01-.568.097zM15.197 19.765c-.199 0-.39.035-.567.097v-1.22h1.135v1.22a1.697 1.697 0 00-.568-.097z" fill="#C6D0DA"/>
  <path d="M4.338 5.358h1.063L3.684 2.536 1.966 5.358h1.063v13.284H1.966l1.718 2.822L5.4 18.642H4.338V5.358zM19.662 5.358h-1.063l1.717-2.822 1.718 2.822h-1.063v13.284h1.063l-1.718 2.822-1.717-2.822h1.063V5.358z" fill="#80BC93"/>
  <path d="M9.707 2.536a.905.905 0 00-1.809 0 .905.905 0 001.809 0zm-1.135 0a.23.23 0 11.462 0 .23.23 0 01-.462 0zM7.898 21.464a.905.905 0 001.809 0 .905.905 0 00-1.809 0zm1.135 0a.23.23 0 11-.461 0 .23.23 0 01.461 0z" fill="#000"/>
  <path d="M10.628 9.085h-.24V7.71a.336.336 0 00-.1-.24V5.358a.337.337 0 00-.337-.337h-.244V4.36a2.038 2.038 0 001.132-1.824A2.038 2.038 0 008.803.5a2.038 2.038 0 00-2.036 2.036c0 .798.462 1.49 1.132 1.824v.66h-.245a.337.337 0 00-.336.338V7.47a.336.336 0 00-.101.24v1.375h-.24a.337.337 0 00-.336.337v1.155c0 .186.15.337.337.337h.815v.449h-.431a.337.337 0 000 .674h.431v.45h-.431a.337.337 0 100 .673h.431v.45h-.431a.337.337 0 100 .673h.431v.45h-.431a.337.337 0 000 .673h.431v.45h-.815a.337.337 0 00-.337.336v1.155c0 .186.15.337.337.337h.607v.958c0 .178.139.324.314.336v.662a2.038 2.038 0 00-1.132 1.824c0 1.123.913 2.036 2.036 2.036a2.038 2.038 0 002.036-2.036c0-.798-.462-1.49-1.132-1.823v-.663a.337.337 0 00.313-.336v-.958h.608c.186 0 .337-.151.337-.337v-1.155a.337.337 0 00-.337-.337h-.816v-.449h.432a.337.337 0 000-.674h-.432v-.45h.432a.337.337 0 100-.673h-.432v-.45h.432a.337.337 0 000-.673h-.432v-.45h.432a.337.337 0 100-.673h-.432v-.45h.816c.186 0 .337-.15.337-.336V9.422a.337.337 0 00-.337-.337zm-2.637-3.39h1.623v1.678H7.991V5.695zm-.55-3.16c0-.75.61-1.361 1.362-1.361.75 0 1.362.61 1.362 1.362 0 .75-.611 1.362-1.362 1.362A1.364 1.364 0 017.44 2.536zM8.572 4.56a2.045 2.045 0 00.461 0v.462h-.46v-.462zm-.681 3.488h1.824v1.038H7.89V8.047zm2.274 13.417c0 .751-.611 1.362-1.362 1.362a1.364 1.364 0 01-1.362-1.362c0-.75.61-1.362 1.362-1.362.75 0 1.362.611 1.362 1.362zm-1.362-2.036a2.04 2.04 0 00-.23.013v-.462h.46v.462a2.04 2.04 0 00-.23-.013zm.544-1.123H8.259v-.621h1.088v.621zm.944-1.295H7.314v-.481h2.977v.481zm-1.153-1.155h-.67v-.449h.67v.45zm0-1.123h-.67v-.45h.67v.45zm0-1.123h-.67v-.45h.67v.45zm0-1.123h-.67v-.45h.67v.45zm0-1.123h-.67v-.45h.67v.45zm1.153-1.123H7.314v-.481h2.977v.481zM14.293 21.464a.905.905 0 001.809 0 .905.905 0 00-1.809 0zm1.135 0a.23.23 0 11-.462 0 .23.23 0 01.462 0zM16.102 2.536a.905.905 0 00-1.809 0 .905.905 0 001.809 0zm-1.135 0a.23.23 0 11.461 0 .23.23 0 01-.461 0z" fill="#000"/>
  <path d="M17.022 6.316h-.608v-.958a.337.337 0 00-.313-.336V4.36a2.038 2.038 0 001.131-1.824A2.038 2.038 0 0015.196.5a2.038 2.038 0 00-2.035 2.036c0 .798.461 1.49 1.131 1.824v.662a.337.337 0 00-.313.336v.958h-.608a.337.337 0 00-.337.337v1.155c0 .186.151.337.337.337h.816v.449h-.432a.337.337 0 100 .674h.432v.449h-.432a.337.337 0 100 .674h.432v.45h-.432a.337.337 0 100 .673h.432v.45h-.432a.337.337 0 100 .673h.432v.45h-.816a.337.337 0 00-.337.336v1.155c0 .186.151.337.337.337h.24v1.375c0 .094.038.179.1.24v2.112c0 .186.15.337.337.337h.244v.661a2.038 2.038 0 00-1.131 1.824c0 1.123.913 2.036 2.035 2.036a2.038 2.038 0 002.036-2.036c0-.798-.461-1.49-1.131-1.824v-.66h.244c.186 0 .337-.152.337-.338V16.53a.336.336 0 00.1-.24v-1.375h.24c.186 0 .337-.151.337-.337v-1.155a.337.337 0 00-.337-.337h-.816v-.449h.431a.337.337 0 000-.674h-.431v-.45h.431a.337.337 0 100-.673h-.431v-.45h.431a.337.337 0 100-.673h-.431v-.45h.431a.337.337 0 100-.673h-.431v-.45h.816c.186 0 .337-.15.337-.336V6.653a.337.337 0 00-.337-.337zm-3.188-3.78c0-.751.611-1.362 1.362-1.362.751 0 1.362.61 1.362 1.362 0 .75-.61 1.362-1.362 1.362a1.364 1.364 0 01-1.362-1.362zm1.362 2.036c.078 0 .155-.005.23-.013v.462h-.46v-.462c.075.008.152.013.23.013zm-.543 1.123h1.087v.621h-1.087v-.621zm1.355 12.61h-1.623v-1.678h1.623v1.678zm.55 3.16c0 .75-.61 1.361-1.362 1.361a1.364 1.364 0 01-1.362-1.362c0-.75.611-1.362 1.362-1.362.751 0 1.362.611 1.362 1.362zm-1.131-2.024a2.041 2.041 0 00-.461 0v-.462h.46v.462zm1.258-5.2h-.658a.337.337 0 100 .674h.081v1.038h-1.824v-1.038h.17a.337.337 0 100-.674h-.746v-.481h2.977v.481zm-1.153-1.155h-.671v-.449h.671v.45zm0-1.123h-.671v-.45h.671v.45zm0-1.123h-.671v-.45h.671v.45zm0-1.123h-.671v-.45h.671v.45zm0-1.123h-.671v-.45h.671v.45zm1.153-1.123h-2.977V6.99h2.977v.481zM4.001 5.358v.568a.337.337 0 10.674 0v-.231h.726a.337.337 0 00.288-.513L3.971 2.361a.337.337 0 00-.575 0L1.678 5.182a.337.337 0 00.288.513h.726v12.61h-.726a.337.337 0 00-.288.512l1.718 2.822a.337.337 0 00.575 0l1.718-2.822a.337.337 0 00-.288-.512h-.726V7.498a.337.337 0 10-.674 0v11.144c0 .186.151.337.337.337h.464l-1.119 1.837-1.118-1.837h.464c.186 0 .337-.15.337-.337V5.358a.337.337 0 00-.337-.337h-.464l1.118-1.837L4.802 5.02h-.464a.337.337 0 00-.337.337zM22.034 18.305h-.726v-1.299a.337.337 0 10-.674 0v1.636c0 .186.15.337.337.337h.463l-1.118 1.837-1.118-1.837h.464c.186 0 .337-.15.337-.337V5.358a.337.337 0 00-.337-.337h-.464l1.118-1.837 1.119 1.837h-.464a.337.337 0 00-.337.337v10.076a.337.337 0 10.674 0v-9.74h.726a.337.337 0 00.288-.511L20.604 2.36a.337.337 0 00-.575 0L18.31 5.182a.337.337 0 00.288.513h.726v12.61h-.726a.337.337 0 00-.288.512l1.718 2.822a.337.337 0 00.575 0l1.718-2.822a.337.337 0 00-.288-.512z" fill="#000"/>
</svg>
