<svg width="24" height="24" fill="none" xmlns="http://www.w3.org/2000/svg">
  <defs/>
  <path d="M16.196 7.588l1.56 7.826-1.56 7.826H2.915V7.588h13.28z" fill="#FF755C"/>
  <path d="M21.085 7.588V23.24L18.12 22.09l.52-14.503h2.445z" fill="#FFD86C"/>
  <path d="M18.64 7.588V22.09l-2.445 1.149V7.588h2.445z" fill="#FFB14E"/>
  <path d="M21.085 23.24h-4.89l2.445-2.19 2.445 2.19z" fill="#FF755C"/>
  <path d="M21.605 7.328a.52.52 0 00-.52-.52h-2.629V4.512C18.456 2.3 16.656.5 14.444.5A3.99 3.99 0 0012 1.334 3.991 3.991 0 009.555.5a4.016 4.016 0 00-4.012 4.012v2.296H2.915a.52.52 0 00-.52.52V22.98c0 .287.232.52.52.52H21.085a.52.52 0 00.157-.024l.01-.004a.55.55 0 00.039-.015l.017-.008.03-.015.02-.012a.44.44 0 00.023-.015l.02-.015a.578.578 0 00.063-.056l.008-.01.006-.007a.393.393 0 00.032-.04l.015-.024.013-.02.012-.024.01-.022a.622.622 0 00.01-.024l.009-.023.007-.025.006-.024.005-.025a.489.489 0 00.004-.026l.002-.024.001-.028V7.328zm-1.04 14.487l-1.405-1.257v-7.993a.52.52 0 10-1.04 0v7.993l-1.404 1.257V7.848h1.403v2.636a.52.52 0 001.041 0V7.848h1.404v13.967zm-1.925-.326l1.084.97h-2.168l1.084-.97zM17.415 4.512v2.296h-3.848V4.512a3.99 3.99 0 00-.825-2.433 2.955 2.955 0 011.702-.538 2.975 2.975 0 012.971 2.97zm-5.942 2.296V4.512c0-.626.195-1.207.527-1.686.331.48.526 1.06.526 1.686v2.296h-1.053zM6.584 4.512A2.975 2.975 0 019.555 1.54c.633 0 1.22.2 1.702.538a3.991 3.991 0 00-.825 2.433v2.296H6.584V4.512zM3.435 7.848h12.24V22.46H3.435V7.85z" fill="#01121C"/>
</svg>
