<svg width="24" height="24" fill="none" xmlns="http://www.w3.org/2000/svg">
  <defs/>
  <path d="M14.142 18.663h-9.78a.92.92 0 01-.92-.92V1.756a.92.92 0 01.92-.92h9.78a.92.92 0 01.919.92v15.987a.92.92 0 01-.92.92z" fill="#695E67"/>
  <path d="M14.142.837h-.365v15.622a.92.92 0 01-.92.92H3.443v.364c0 .508.412.92.92.92h9.78a.92.92 0 00.919-.92V1.757a.92.92 0 00-.92-.92z" fill="#544E56"/>
  <path d="M12.05 14.94H6.452a.92.92 0 01-.919-.919V3.301a.92.92 0 01.92-.92h5.595a.92.92 0 01.92.92v10.72a.92.92 0 01-.92.92z" fill="#A5E4EF"/>
  <path d="M12.05 2.381h-.288v10.434a.92.92 0 01-.919.92H5.534v.286c0 .508.412.92.92.92h5.596a.92.92 0 00.919-.92V3.301a.92.92 0 00-.92-.92z" fill="#67D8E4"/>
  <path d="M17.46 17.052V9.367a2.92 2.92 0 00-2.92-2.92h-.897a.674.674 0 01-.674-.674V3.3a.919.919 0 00-.919-.918H7.531v6.585a2.92 2.92 0 002.92 2.92h.896c.373 0 .674.3.674.673v7.684a2.92 2.92 0 002.92 2.92h5.143a.474.474 0 00.474-.475v-4.49a.474.474 0 00-.474-.474h-1.951a.674.674 0 01-.674-.674z" fill="#F1E8E4"/>
  <path d="M20.084 17.725H19.3v4.235a.474.474 0 01-.474.474h-5.143c-.273 0-.538-.038-.788-.108a2.91 2.91 0 002.046.837h5.143a.474.474 0 00.474-.474v-4.49a.474.474 0 00-.474-.474z" fill="#EFE0DB"/>
  <path d="M9.282 17.5a.629.629 0 100-1.257.629.629 0 000 1.258z" fill="#000"/>
  <path d="M20.084 17.388h-1.951a.337.337 0 01-.337-.337V9.369c0-.644-.188-1.267-.543-1.8a.337.337 0 10-.561.372c.281.423.43.917.43 1.428v7.684c0 .557.453 1.01 1.01 1.01h1.952c.076 0 .137.062.137.137v4.49a.138.138 0 01-.137.137H14.94a2.586 2.586 0 01-2.582-2.582V12.56c0-.557-.454-1.01-1.01-1.01h-.898a2.586 2.586 0 01-2.582-2.583V2.718h4.182c.32 0 .582.262.582.583v2.473c0 .558.453 1.011 1.01 1.011h.897c.41 0 .802.093 1.164.276a.335.335 0 00.453-.148.337.337 0 00-.149-.453c-.197-.1-.4-.178-.61-.235V1.756c0-.693-.563-1.256-1.255-1.256h-9.78c-.693 0-1.257.563-1.257 1.256v9.576a.337.337 0 10.674 0V1.756c0-.321.261-.582.582-.582h9.78c.322 0 .583.26.583.582v4.36a3.362 3.362 0 00-.185-.005h-.896a.337.337 0 01-.337-.337V3.301c0-.693-.564-1.256-1.256-1.256H6.454c-.693 0-1.256.563-1.256 1.256v10.72c0 .693.563 1.256 1.256 1.256h3.986a.337.337 0 000-.673H6.454a.583.583 0 01-.583-.583V3.301c0-.321.261-.583.583-.583h.74v6.249a3.26 3.26 0 003.256 3.256h.897c.186 0 .337.151.337.337v5.766H4.361a.583.583 0 01-.582-.582v-4.85a.337.337 0 10-.674 0v4.85c0 .692.564 1.256 1.256 1.256h7.323v1.244A3.26 3.26 0 0014.94 23.5h5.144a.812.812 0 00.81-.811v-4.49a.812.812 0 00-.81-.81z" fill="#000"/>
  <path d="M11.675 4.325a.337.337 0 00-.337-.337H9.146a.337.337 0 100 .674h2.192c.186 0 .337-.15.337-.337zM9.146 7.417a.337.337 0 100 .674h1.096a.337.337 0 100-.674H9.146zM13.608 12.807h.98a.337.337 0 000-.674h-.98a.337.337 0 100 .674zM16.137 15.779a.337.337 0 00-.337-.337h-2.192a.337.337 0 100 .674H15.8c.186 0 .337-.151.337-.337zM13.608 19.604a.337.337 0 100 .674h1.096a.337.337 0 100-.674h-1.096z" fill="#000"/>
</svg>
