<svg width="24" height="24" fill="none" xmlns="http://www.w3.org/2000/svg">
  <defs/>
  <path d="M10.497 4.528V2.415c0-.026.021-.047.047-.047h4.655c.026 0 .047.021.047.047v2.113h1.53V2.415A1.58 1.58 0 0015.2.838h-4.655c-.87 0-1.577.707-1.577 1.577v2.113h1.53z" fill="#C8C2C9"/>
  <path d="M15.2.838h-.828c.87 0 1.577.707 1.577 1.577v2.113h.827V2.415c0-.87-.707-1.577-1.577-1.577z" fill="#B1ACB6"/>
  <path d="M5.254 17.213H20.49c.684 0 1.238-.554 1.238-1.237V5.41c0-.683-.554-1.237-1.238-1.237H5.254c-.683 0-1.237.554-1.237 1.237v10.565c0 .683.554 1.237 1.237 1.237z" fill="#E1DEE2"/>
  <path d="M20.488 4.174h-1.206v9.353a1.24 1.24 0 01-1.24 1.24H4.017v1.206c0 .685.555 1.24 1.24 1.24h15.23a1.24 1.24 0 001.241-1.24V5.413a1.24 1.24 0 00-1.24-1.24z" fill="#C8C2C9"/>
  <path d="M11.153 13.988h-.014a.765.765 0 01-.751-.779c.01-.69-.141-2.662-.965-3.5a1.172 1.172 0 00-.887-.37c-.358 0-.643.12-.896.375-.839.845-1.008 2.815-1.002 3.503a.765.765 0 01-.759.771h-.006a.765.765 0 01-.766-.759c0-.031-.004-.778.156-1.691.227-1.291.661-2.268 1.29-2.902a2.738 2.738 0 011.983-.827c.763 0 1.447.287 1.98.83 1.418 1.444 1.408 4.28 1.402 4.598a.765.765 0 01-.765.751z" fill="#13B866"/>
  <path d="M10.516 8.639a2.717 2.717 0 00-1.98-.83c-.156 0-.309.012-.458.036A2.708 2.708 0 019.6 8.64c1.418 1.444 1.407 4.28 1.401 4.598a.763.763 0 01-.306.598.76.76 0 00.444.153h.014a.765.765 0 00.765-.75c.006-.32.016-3.155-1.402-4.6z" fill="#09A657"/>
  <path d="M11.447 12.155h-5.82a1.82 1.82 0 00-1.634 1.018l-1.45 2.95c-.178.362-.27.76-.27 1.163v4.187c0 .933.756 1.69 1.69 1.69h9.148a1.69 1.69 0 001.69-1.69v-4.187c0-.403-.092-.801-.27-1.163l-1.45-2.95a1.82 1.82 0 00-1.634-1.018z" fill="#13B866"/>
  <path d="M14.53 16.123l-1.45-2.95a1.82 1.82 0 00-1.633-1.018h-.56l1.18 2.402c.178.362.27.76.27 1.163v4.187a1.69 1.69 0 01-1.69 1.69h-8.37a1.69 1.69 0 001.685 1.566h9.15a1.69 1.69 0 001.69-1.69v-4.187c0-.403-.093-.801-.271-1.163z" fill="#09A657"/>
  <path d="M20.487 3.836h-3.373V2.415A1.917 1.917 0 0015.199.5h-4.655a1.917 1.917 0 00-1.915 1.915v1.421h-.787a.338.338 0 100 .675h12.645c.498 0 .903.405.903.903v10.56a.904.904 0 01-.903.902h-4.152a.338.338 0 000 .675h4.152a1.58 1.58 0 001.578-1.578V5.413a1.58 1.58 0 00-1.578-1.577zM9.304 2.415c0-.684.557-1.24 1.24-1.24h4.655c.684 0 1.24.556 1.24 1.24v1.421h-.855V2.415a.385.385 0 00-.385-.385h-4.655a.385.385 0 00-.384.385v1.421h-.856V2.415zm5.604 1.421h-4.073v-1.13h4.073v1.13z" fill="#000"/>
  <path d="M15.15 8.805l-2.06 2.061a.338.338 0 00.477.478l2.06-2.061a.338.338 0 10-.477-.478zM14.315 12.518a.337.337 0 00.477 0l3.718-3.717a.338.338 0 00-.478-.478l-3.717 3.718a.338.338 0 000 .477zM13.383 13.024a2.145 2.145 0 00-1.201-1.08c-.135-1.127-.494-2.594-1.425-3.542a3.048 3.048 0 00-2.22-.931c-.853 0-1.622.32-2.223.927-.679.684-1.144 1.721-1.383 3.081-.027.156-.051.316-.072.478-.18.068-.35.16-.505.273V5.414c0-.498.405-.903.902-.903h1.011a.338.338 0 100-.675h-1.01a1.58 1.58 0 00-1.578 1.578v7.633l-1.44 2.927c-.199.406-.304.86-.304 1.312v4.186A2.03 2.03 0 003.962 23.5h9.15a2.03 2.03 0 002.027-2.027v-.969a.338.338 0 00-.675 0v.968c0 .746-.607 1.353-1.353 1.353H3.962a1.354 1.354 0 01-1.352-1.352v-4.187c0-.35.081-.7.236-1.014l1.45-2.95a1.473 1.473 0 011.33-.83h5.82c.57 0 1.08.318 1.331.83l1.45 2.95c.155.314.236.664.236 1.014v1.598a.338.338 0 00.676 0v-1.598a2.99 2.99 0 00-.305-1.312l-1.45-2.95zM7.11 11.818c.156-.863.425-1.519.77-1.867a.852.852 0 01.658-.274c.266 0 .46.08.645.27.34.345.603 1.002.75 1.87H7.109zm3.507 0c-.126-.807-.392-1.776-.952-2.345A1.51 1.51 0 008.537 9c-.448 0-.82.156-1.137.475-.568.573-.843 1.543-.977 2.342H5.56c.012-.074.023-.149.036-.222.215-1.222.617-2.138 1.197-2.722a2.407 2.407 0 011.744-.728c.67 0 1.27.252 1.739.729.746.76 1.07 1.957 1.209 2.943h-.869z" fill="#000"/>
  <path d="M7.907 15.913a.338.338 0 00-.478 0l-2.06 2.061a.338.338 0 00.477.478l2.06-2.061a.338.338 0 000-.478zM6.832 19.725a.337.337 0 00.238-.099l3.718-3.717a.338.338 0 00-.478-.478l-3.717 3.717a.338.338 0 00.239.577z" fill="#000"/>
</svg>
