<svg width="24" height="24" fill="none" xmlns="http://www.w3.org/2000/svg">
  <defs/>
  <g fill="#FFB14E">
    <path d="M8.829 2.216v6.32H7.11v-5.8l1.718-.52zM16.634 2.736v5.8h-1.717v-6.32l1.717.52z"/>
  </g>
  <g fill="#FF755C">
    <path d="M16.635 2.739H7.112L8.83 1.02h6.088l1.717 1.718zM3.755 7.498v10.405L12 19.464l8.245-1.561V7.498H3.755zM20.245 17.903v5.078l-5.438-2.54 5.438-2.538zM9.194 20.442l-5.44 2.539v-5.078l5.44 2.539z"/>
  </g>
  <path d="M20.245 17.902l-3.357 2.539L12 21.48l-4.888-1.04-3.357-2.539h16.49z" fill="#FFB14E"/>
  <path d="M20.245 22.98H3.755l3.357-2.54h9.776l3.357 2.54z" fill="#FFD86C"/>
  <path d="M20.245 6.977h-3.09v-4.24l-.001-.017a.585.585 0 00-.009-.082v-.003a.514.514 0 00-.019-.066l-.004-.013a.53.53 0 00-.026-.059l-.002-.004a.523.523 0 00-.037-.058l-.01-.013a.523.523 0 00-.044-.052L15.285.651A.52.52 0 0014.917.5H8.83a.52.52 0 00-.368.152L6.744 2.37a.521.521 0 00-.091.123l-.002.004a.517.517 0 00-.026.06l-.005.012a.507.507 0 00-.018.066v.003a.524.524 0 00-.01.082v4.257H3.755a.52.52 0 00-.52.52V22.992a.506.506 0 00.098.291l.007.01.005.007.027.031.012.013a.499.499 0 00.04.037l.014.01c.01.009.02.016.031.023l.02.012a.461.461 0 00.082.04l.018.006a.48.48 0 00.037.011l.017.005a.513.513 0 00.041.007l.015.002a.488.488 0 00.051.003H20.25a.494.494 0 00.052-.003l.013-.002a.512.512 0 00.043-.008l.015-.003a.516.516 0 00.039-.012l.017-.006a.569.569 0 00.034-.014l.02-.01a.604.604 0 00.03-.016l.018-.012a.512.512 0 00.032-.023l.014-.01a.539.539 0 00.04-.037l.012-.013.026-.031.006-.007.007-.01a.524.524 0 00.098-.291V7.497a.52.52 0 00-.52-.52zM4.275 18.948l1.974 1.493-1.974 1.493v-2.986zm3.012 2.013h1.437a.52.52 0 000-1.04H7.287l-1.981-1.498h13.388l-1.981 1.498h-5.908a.52.52 0 000 1.04h5.908l1.98 1.498H5.307l1.98-1.498zm10.463-.52l1.974-1.493v2.986L17.75 20.44zM9.35 6.977v-3.72h5.047v3.72H9.349zm6.088-3.72h.676v3.72h-.676v-3.72zM9.045 1.542h5.657l.676.676H8.37l.676-.676zM7.632 3.258h.677v3.719h-.677v-3.72zm-.52 4.76h12.612v9.364H4.275V8.017h2.837z" fill="#01121C"/>
</svg>
