<svg width="24" height="24" fill="none" xmlns="http://www.w3.org/2000/svg">
  <defs/>
  <path d="M15.747 7.066V5.492a.902.902 0 00-.902-.902h-.424a.902.902 0 00-.901.902v1.574" fill="#CFDCE5"/>
  <path d="M14.421 7.066V4.59a.902.902 0 00-.901.902v1.574" fill="#BAC6CC"/>
  <path d="M14.633 6.942a5.012 5.012 0 00-5.012 5.012v1.67h10.024v-1.67a5.012 5.012 0 00-5.012-5.012z" fill="#CFDCE5"/>
  <path d="M15.34 6.992a5.012 5.012 0 00-5.72 4.962v1.67h1.416v-1.67a5.013 5.013 0 014.305-4.962z" fill="#BAC6CC"/>
  <path d="M18.48 8.178a.393.393 0 10-.56.551 4.586 4.586 0 011.31 2.847h-.989a.393.393 0 100 .786h1.006v.885H10.01v-.885h6.922a.393.393 0 100-.786h-6.905a4.625 4.625 0 014.602-4.226c.839 0 1.66.227 2.374.656a.393.393 0 00.405-.674c-.4-.24-.827-.425-1.272-.554v-1.27c0-.653-.485-1.194-1.114-1.282V3.047A2.55 2.55 0 0012.474.5h-5.96a2.55 2.55 0 00-2.547 2.547v20.06a.393.393 0 10.786 0V3.047c0-.97.79-1.761 1.761-1.761h5.96c.971 0 1.761.79 1.761 1.761v1.179a1.297 1.297 0 00-1.113 1.282v1.27a5.415 5.415 0 00-3.899 5.191v1.67c0 .218.176.394.393.394H19.64a.393.393 0 00.393-.393v-1.67a5.373 5.373 0 00-1.552-3.792zm-4.572-2.67a.51.51 0 01.508-.51h.424a.51.51 0 01.51.51v1.104a5.426 5.426 0 00-1.442 0V5.508zM10.463 21.525a.393.393 0 00-.393.393v1.189a.393.393 0 10.786 0v-1.19a.393.393 0 00-.393-.392z" fill="#000"/>
  <path d="M10.463 14.557a.393.393 0 00-.393.393v5.71a.393.393 0 10.786 0v-5.71a.393.393 0 00-.393-.393zM12.546 17.595a.393.393 0 00-.393.393v5.119a.393.393 0 10.786 0v-5.119a.393.393 0 00-.393-.393zM12.546 14.557a.393.393 0 00-.393.393v1.78a.393.393 0 00.786 0v-1.78a.393.393 0 00-.393-.393zM14.628 20.32a.393.393 0 00-.393.392v2.395a.393.393 0 10.786 0v-2.395a.393.393 0 00-.393-.392zM14.628 14.557a.393.393 0 00-.393.393v4.453a.393.393 0 10.786 0V14.95a.393.393 0 00-.393-.393zM16.711 18.381a.393.393 0 00-.393.393v4.333a.393.393 0 10.786 0v-4.333a.393.393 0 00-.393-.393zM16.711 14.557a.393.393 0 00-.393.393v2.619a.393.393 0 10.786 0v-2.62a.393.393 0 00-.393-.392zM18.793 21.577a.393.393 0 00-.393.393v1.137a.393.393 0 10.786 0V21.97a.393.393 0 00-.393-.393zM18.793 14.557a.393.393 0 00-.393.393v5.762a.393.393 0 10.786 0V14.95a.393.393 0 00-.393-.393z" fill="#000"/>
</svg>
