<svg width="24" height="24" fill="none" xmlns="http://www.w3.org/2000/svg">
  <defs/>
  <path d="M12 5.674h8.406a.27.27 0 00.23-.13l.956-1.592a.27.27 0 000-.277l-.955-1.591a.27.27 0 00-.231-.13H12v3.72z" fill="#FFD151"/>
  <path d="M21.591 3.675l-.955-1.591a.27.27 0 00-.23-.13h-.9a.27.27 0 01.232.13l.954 1.591a.27.27 0 010 .277l-.954 1.591a.27.27 0 01-.231.131h.898a.27.27 0 00.231-.13l.955-1.592a.27.27 0 000-.277z" fill="#F79B4A"/>
  <path d="M12 10.884H3.594a.27.27 0 01-.23-.131l-.955-1.591a.27.27 0 010-.277l.954-1.592a.27.27 0 01.231-.13H12v3.72z" fill="#FFD151"/>
  <path d="M12 7.148h-1.617v3.736H12V7.148z" fill="#F79B4A"/>
  <path d="M12.744 22.062h-1.488V1.106c0-.148.12-.27.27-.27h.949c.149 0 .27.122.27.27v20.956z" fill="#985335"/>
  <path d="M12.475.837h-.896c.149 0 .27.12.27.27v20.955h.896V1.106a.27.27 0 00-.27-.27z" fill="#87462A"/>
  <path d="M14.233 23.163H9.768v-1.219c0-.149.12-.27.27-.27h3.925c.15 0 .27.121.27.27v1.22z" fill="#FFD151"/>
  <path d="M13.963 21.675h-.885c.149 0 .27.12.27.27v1.218h.885v-1.219a.27.27 0 00-.27-.27z" fill="#F79B4A"/>
  <g fill="#000">
    <path d="M21.963 3.64l-1.116-1.86a.337.337 0 00-.289-.164h-7.477v-.78A.337.337 0 0012.744.5h-1.488a.337.337 0 00-.337.337v5.989H3.442a.337.337 0 00-.29.163L2.037 8.85a.337.337 0 000 .348l1.117 1.86c.06.102.17.164.289.164h7.477v3.384a.337.337 0 10.674 0V2.29h.814V21.338h-.814V15.95a.337.337 0 10-.674 0v5.387H9.767a.337.337 0 00-.337.337v1.151h-.407a.337.337 0 100 .674h5.954a.337.337 0 100-.674h-.408v-1.151a.337.337 0 00-.337-.337h-1.15V6.01h7.476a.337.337 0 00.29-.163l1.116-1.86a.337.337 0 000-.348zm-8.067 19.186h-3.792v-.814h3.792v.814zM3.632 10.546l-.914-1.523.914-1.523h7.287v3.047H3.632zm7.96-9.372h.815v.442h-.814v-.442zm8.775 4.163h-7.286V2.29h7.287l.914 1.524-.915 1.523z"/>
    <path d="M15.335 2.924h-1.103a.337.337 0 00-.336.337v1.103c0 .186.15.337.336.337h1.104c.186 0 .336-.151.336-.337V3.26a.337.337 0 00-.337-.337zM15 4.027h-.43v-.43H15v.43zM18.697 2.924h-2.232a.337.337 0 100 .674h2.232a.337.337 0 100-.674zM17.209 4.03h-.744a.337.337 0 100 .674h.744a.337.337 0 100-.674zM5.66 8.133H4.559a.337.337 0 00-.337.337v1.103c0 .186.15.337.337.337H5.66c.186 0 .337-.15.337-.337V8.47a.337.337 0 00-.337-.337zm-.336 1.103h-.43v-.429h.43v.43zM9.024 8.133H6.79a.337.337 0 100 .674h2.233a.337.337 0 100-.674zM7.535 9.24h-.744a.337.337 0 100 .673h.744a.337.337 0 100-.674z"/>
  </g>
</svg>
