<svg width="24" height="24" fill="none" xmlns="http://www.w3.org/2000/svg">
  <defs/>
  <g fill-rule="evenodd" clip-rule="evenodd">
    <path d="M14.865 3.673a4.55 4.55 0 00-.84 3.413l1.932 2.952 3.293.92a4.54 4.54 0 003.018-1.799c1.504-2.03 1.066-4.905-.979-6.42-2.044-1.516-4.92-1.098-6.424.934z" fill="gray"/>
    <path d="M13.11 8.817l1.61 2.737 3.185.817 1.382-1.385-.038-.028-5.225-3.872-2.744 4.962 1.83-3.231z" fill="#E6E6E6"/>
    <path d="M8.86 17.736a1.066 1.066 0 00.222 1.487c.47.348 1.138.248 1.487-.222l.739-.999c.104-.947-.47-1.551-1.743-1.217l-.704.951z" fill="gray"/>
    <path d="M11.28 12.05l-1.67 3.02a1.797 1.797 0 00-.045 1.716 2.273 2.273 0 001.743 1.216 1.826 1.826 0 001.52-.546l2.444-2.448-1.14-2.655-2.852-.303z" fill="#E6E6E6"/>
    <path d="M13.11 8.817l-1.83 3.231v.002l3.992 2.958 2.633-2.637-4.795-3.554z" fill="#64B0D9"/>
    <path d="M20.775 8.052a4.54 4.54 0 01-3.02 1.8l.04.027 1.454 1.079a4.54 4.54 0 003.02-1.799c1.503-2.03 1.065-4.905-.98-6.42a4.662 4.662 0 00-.802-.479c1.432 1.594 1.603 4.015.288 5.792z" fill="#666"/>
    <path d="M17.27 10.405l-.859.859 1.494 1.107 1.382-1.385-.038-.028-1.455-1.079-.525.526z" fill="#C2C7CC"/>
    <path d="M15.836 11.84l-1.346 1.348-.712.713 1.494 1.107 2.633-2.637-1.494-1.107-.575.577z" fill="#4A83C9"/>
    <path d="M13.779 13.9l-2.445 2.449c-.615.614-.937.791-1.622.685.36.527.963.9 1.595.969a1.826 1.826 0 001.52-.547l2.445-2.448L13.78 13.9z" fill="#C2C7CC"/>
    <path d="M10.232 18.345a1.066 1.066 0 01-1.57.153c.034.279.178.545.42.725.47.348 1.138.248 1.487-.222l.739-.998a2.134 2.134 0 01-.68-.194l-.396.536z" fill="#666"/>
    <path d="M16.456 20.288c-.743.172-1.346.722-1.346 1.228 0 .505.603.776 1.346.604.744-.174 1.346-.723 1.346-1.229 0-.243-.138-.431-.364-.542-.246-.121-.595-.152-.982-.061zM20.563 18.813c-.744.172-1.346.722-1.346 1.228 0 .505.602.775 1.346.602.743-.172 1.345-.722 1.345-1.228 0-.27-.173-.474-.448-.578-.238-.09-.552-.105-.897-.024z" fill="#F78411"/>
    <path d="M16.57 20.39c.226.113.365.302.365.544 0 .481-.548 1.003-1.243 1.2.218.052.48.05.764-.015.744-.173 1.346-.722 1.346-1.227 0-.244-.137-.432-.364-.543-.246-.121-.595-.152-.982-.061a1.6 1.6 0 00-.104.027c.08.018.153.044.219.076zM20.592 18.88c.275.103.448.307.448.578 0 .482-.547 1.004-1.242 1.202.218.05.48.05.764-.017.743-.172 1.346-.722 1.346-1.228 0-.27-.174-.474-.449-.578-.238-.09-.552-.105-.897-.024-.036.007-.07.016-.105.026.047.01.093.024.135.041z" fill="#F74311"/>
    <path d="M7.31 7.804c-.802.316-1.383 1.03-1.299 1.594.084.564.8.767 1.603.45.8-.317 1.381-1.03 1.297-1.594-.044-.304-.27-.5-.595-.571-.28-.061-.634-.026-1.006.121zM2.972 10.133c-.801.317-1.383 1.03-1.299 1.594.084.565.802.766 1.603.45.801-.316 1.383-1.03 1.299-1.593-.04-.272-.227-.46-.498-.546-.294-.094-.688-.07-1.105.095z" fill="#64B0D9"/>
    <path d="M3.196 10.177c.27.087.455.274.496.545.084.565-.498 1.278-1.298 1.594l-.004.002c.258.03.565-.015.886-.14.8-.317 1.383-1.03 1.298-1.595-.04-.27-.226-.458-.497-.545-.293-.094-.685-.07-1.1.093.077.01.15.024.219.046zM7.433 7.822c.325.07.551.268.596.57.084.565-.496 1.278-1.297 1.594-.003.001-.004.001-.005.003.258.029.566-.014.887-.142.8-.316 1.381-1.03 1.297-1.593-.044-.304-.27-.501-.595-.571-.28-.061-.632-.027-1.002.118.041.006.08.012.12.02z" fill="#4A83C9"/>
  </g>
  <path d="M21.492 2.467a4.934 4.934 0 00-3.603-.936.34.34 0 00.089.674 4.257 4.257 0 013.11.807c1.89 1.401 2.298 4.068.907 5.946a4.182 4.182 0 01-2.659 1.642l-4.994-3.702a4.191 4.191 0 01.796-3.023c.376-.51.851-.919 1.413-1.217a.34.34 0 10-.319-.6 4.85 4.85 0 00-1.64 1.413 4.866 4.866 0 00-.92 3.55l-4.36 7.885c-.359.65-.353 1.29-.14 1.838l-.584.79c-.39.528-.355 1.242.044 1.726l-1.14 1.54a1.09 1.09 0 01-.722.433 1.088 1.088 0 01-.815-.202l-2.046-1.516a1.764 1.764 0 00-1.32-.329c-.47.07-.885.318-1.167.699L.567 21.04a.34.34 0 10.546.404l.855-1.156c.174-.235.43-.388.721-.431.292-.044.581.028.816.202l2.046 1.516a1.758 1.758 0 001.319.328c.47-.07.886-.318 1.167-.7l1.14-1.54a1.404 1.404 0 001.664-.461l.631-.85H11.515a2.16 2.16 0 001.553-.657l6.424-6.434a4.855 4.855 0 003.05-1.9c1.612-2.179 1.142-5.272-1.05-6.895zM10.297 18.799a.724.724 0 01-1.163-.86l.412-.558a2.652 2.652 0 001.182.835l-.431.583zm2.29-1.583c-.67.672-1.57.522-2.162.076-.582-.437-.968-1.243-.519-2.057l1.483-2.681 3.365 2.492-2.166 2.17zm5.285-5.292l-1.65-1.223a.34.34 0 00-.405.545l1.57 1.164-2.148 2.15-3.519-2.606 1.47-2.656 1.318.976a.34.34 0 00.404-.546l-1.391-1.03.613-1.109 4.636 3.436-.898.899zM1.828 12.49c.202.117.45.175.722.175.269 0 .56-.057.851-.172.954-.376 1.617-1.237 1.51-1.96a.978.978 0 00-.491-.713L4.385 9.8l-.527-3.54a.214.214 0 01.063-.034l3.635-1.341.362 2.432a2.42 2.42 0 00-.733.17c-.954.376-1.617 1.237-1.51 1.96.046.303.22.557.492.713.204.118.45.177.719.177.267 0 .558-.058.853-.175.953-.376 1.616-1.237 1.508-1.96a.977.977 0 00-.49-.712 1.184 1.184 0 00-.137-.067l-.394-2.649a.716.716 0 00-.333-.5.584.584 0 00-.502-.052L3.685 5.591c-.352.13-.549.425-.501.75l.491 3.302c-.26.004-.542.061-.827.174h-.001c-.954.378-1.617 1.24-1.51 1.96.046.304.22.557.491.713zM7.49 9.532c-.461.182-.81.141-.983.041a.296.296 0 01-.159-.225c-.053-.357.38-.95 1.087-1.228.231-.091.434-.126.6-.126.167 0 .297.035.383.085a.296.296 0 01.159.225c.053.357-.38.95-1.087 1.228zm-4.392.916c.462-.182.81-.14.983-.04a.297.297 0 01.16.226c.052.357-.381.949-1.088 1.227-.462.183-.812.141-.984.041a.295.295 0 01-.159-.224c-.053-.357.38-.95 1.088-1.23zM21.896 18.696a1.143 1.143 0 00-.096-.068v-2.352c0-.197-.09-.389-.242-.513a.554.554 0 00-.464-.117l-3.426.715c-.346.071-.569.319-.569.63v2.916a2.147 2.147 0 00-.719.05c-.902.209-1.608.894-1.608 1.559 0 .284.124.539.35.719.23.182.543.277.897.277.164 0 .337-.02.515-.062.902-.21 1.608-.894 1.608-1.558a.905.905 0 00-.352-.72l-.012-.01v-3.129a.182.182 0 01.028-.008l3.315-.69v2.09c-.2-.013-.413.005-.635.057-.902.209-1.608.893-1.608 1.559 0 .284.124.54.351.72.23.18.541.275.894.275.165 0 .338-.02.516-.062.902-.209 1.609-.893 1.609-1.558a.903.903 0 00-.352-.72zm-5.516 3.093c-.416.096-.71.014-.835-.085a.227.227 0 01-.094-.188c0-.305.463-.754 1.082-.897h.001c.13-.031.25-.044.355-.044.228 0 .393.06.479.128a.227.227 0 01.095.189c0 .304-.463.753-1.083.897zm4.106-1.476c-.416.097-.71.015-.835-.085a.225.225 0 01-.095-.187c0-.306.464-.754 1.083-.897.132-.031.251-.044.357-.044.228 0 .393.06.478.128a.226.226 0 01.095.187c0 .306-.463.754-1.083.898z" fill="#000"/>
</svg>
