<svg width="24" height="24" fill="none" xmlns="http://www.w3.org/2000/svg">
  <defs/>
  <path d="M16.964 21.907h-9.94a1.335 1.335 0 01-1.336-1.335V2.221c0-.737.598-1.335 1.335-1.335h9.941c.737 0 1.335.598 1.335 1.335v18.352c0 .736-.598 1.334-1.335 1.334z" fill="#415E72"/>
  <path d="M15.974 15.655c0-2.2-1.78-3.98-3.98-3.98s-3.98 1.78-3.98 3.98 1.78 3.98 3.98 3.98 3.98-1.78 3.98-3.98z" fill="#CFDCE5"/>
  <path d="M11.994 14.472a1.182 1.182 0 110 2.364 1.182 1.182 0 010-2.364z" fill="#415E72"/>
  <g fill="#CFDCE5">
    <path d="M10.877 3.29a2.498 2.498 0 110 4.997 2.498 2.498 0 010-4.997zM14.994 10.479a.966.966 0 100-1.932.966.966 0 000 1.932zM9.54 21.908H7.608v1.207H9.54v-1.207zM16.38 21.908h-1.93v1.207h1.93v-1.207z"/>
  </g>
  <path d="M18.305 5.552a.386.386 0 00.386-.386V2.221c0-.95-.772-1.721-1.72-1.721H7.028c-.949 0-1.72.772-1.72 1.72v18.352c0 .949.771 1.72 1.72 1.72h.198v.822c0 .213.173.386.386.386h1.932a.386.386 0 00.386-.386v-.821h4.138v.821c0 .213.172.386.385.386h1.932a.386.386 0 00.386-.386v-.821h.198c.949 0 1.72-.772 1.72-1.72V6.507a.386.386 0 10-.771 0v14.064a.95.95 0 01-.949.949H7.03a.95.95 0 01-.95-.949V2.221a.95.95 0 01.95-.95h9.94a.95.95 0 01.949.95v2.945c0 .213.173.386.386.386zM16 22.292v.436h-1.16v-.435H16zm-6.841 0v.436h-1.16v-.435h1.16z" fill="#000"/>
  <path d="M10.432 15.655A1.57 1.57 0 0012 17.223a1.57 1.57 0 001.568-1.568A1.57 1.57 0 0012 14.085a1.57 1.57 0 00-1.568 1.569zm2.364 0a.797.797 0 11-1.594-.002.797.797 0 011.595.002z" fill="#000"/>
  <path d="M12 20.02a4.371 4.371 0 004.048-6.007.386.386 0 00-.716.29A3.598 3.598 0 0112 19.249a3.598 3.598 0 01-3.594-3.595A3.598 3.598 0 0112 12.06c1 0 1.928.4 2.614 1.126a.386.386 0 10.56-.53A4.326 4.326 0 0012 11.288a4.371 4.371 0 00-4.366 4.366A4.371 4.371 0 0012 20.021zM9.026 4.071a.386.386 0 00-.536.104 2.888 2.888 0 002.392 4.498 2.888 2.888 0 002.884-2.885A2.888 2.888 0 009.76 3.131a.386.386 0 10.3.71 2.115 2.115 0 012.935 1.947 2.115 2.115 0 01-2.112 2.113A2.116 2.116 0 019.13 4.607a.386.386 0 00-.104-.536zM15 10.864c.745 0 1.35-.606 1.35-1.351 0-.746-.605-1.352-1.35-1.352-.746 0-1.352.606-1.352 1.352 0 .745.606 1.351 1.351 1.351zm0-1.931a.58.58 0 11-.002 1.16.58.58 0 01.001-1.16z" fill="#000"/>
  <path d="M10.881 6.174a.386.386 0 100-.772.386.386 0 000 .772z" fill="#000"/>
</svg>
