<svg width="24" height="24" fill="none" xmlns="http://www.w3.org/2000/svg">
  <defs/>
  <g fill-rule="evenodd" clip-rule="evenodd">
    <path d="M13.618 2.471L2.471 13.62c-2.175 2.174-2.175 5.735 0 7.91 2.175 2.174 5.735 2.174 7.91 0L21.528 10.38c2.175-2.174 2.175-5.735 0-7.91s-5.735-2.175-7.91 0z" fill="#E6E6E6"/>
    <path d="M9.278 12.373a1.666 1.666 0 000 2.35 1.668 1.668 0 002.35 0l3.311-3.313a1.666 1.666 0 000-2.35 1.666 1.666 0 00-2.35 0l-3.311 3.313z" fill="#64B0D9"/>
    <path d="M5.203 15.97l.748 1.393c.215.402.172.372.58.579l1.316.672.822-.125.124-.82-.673-1.318c-.207-.406-.177-.363-.579-.58l-1.393-.746-.763.182-.182.763zM16.107 7.324c.216.402.173.372.579.58l1.318.672.931-.007.013-.939-.672-1.316c-.208-.407-.178-.365-.579-.58l-1.393-.748-.762.183-.184.762.749 1.393z" fill="#F78411"/>
    <path d="M15.256 3.538l-1.347 1.345a.886.886 0 000 1.25.887.887 0 001.248 0l.2-.202.474-.472.473-.473.2-.2a.884.884 0 000-1.248.884.884 0 00-1.248 0zM17.803 8.777a.885.885 0 000 1.248.884.884 0 001.248 0l1.347-1.347a.887.887 0 000-1.248.886.886 0 00-1.25 0l-.2.2-.472.473-.473.473-.2.2z" fill="gray"/>
    <path d="M21.529 2.472c-2.175-2.175-5.736-2.175-7.91 0l-1.365 1.365c2.175-2.168 5.73-2.165 7.902.007 2.175 2.175 2.175 5.735 0 7.91l1.373-1.372c2.174-2.175 2.174-5.735 0-7.91z" fill="#C2C7CC"/>
    <path d="M5.1 13.575l-1.345 1.346a.885.885 0 000 1.249.885.885 0 001.248 0l1.145-1.145.202-.202a.887.887 0 000-1.248.888.888 0 00-1.25 0z" fill="gray"/>
    <path d="M14.483 4.31a.886.886 0 011.245.003.885.885 0 010 1.248l.103-.102.674-.673a.884.884 0 000-1.248.885.885 0 00-1.249 0l-.773.771zM18.948 7.63l-.471.473-.101.1a.883.883 0 011.246 1.252l.776-.777a.887.887 0 000-1.248.886.886 0 00-1.25 0l-.2.2z" fill="#666"/>
    <path d="M11.817 9.834a1.665 1.665 0 012.347.004 1.666 1.666 0 010 2.349l.776-.777a1.666 1.666 0 000-2.35 1.666 1.666 0 00-2.35 0l-.773.774z" fill="#4A83C9"/>
    <path d="M5.1 13.575l-.773.773h.002a.884.884 0 011.244.004.88.88 0 01.248.75.877.877 0 01-.248.498l.103-.104.472-.471.202-.202a.887.887 0 000-1.248.888.888 0 00-1.25 0z" fill="#666"/>
    <path d="M8.32 18.142l-.473.472-.2.201a.885.885 0 000 1.249.885.885 0 001.248 0l1.346-1.347a.884.884 0 000-1.248.885.885 0 00-1.248 0l-.2.2-.473.473z" fill="gray"/>
    <path d="M8.993 17.469l-.2.2-.473.473-.1.1a.884.884 0 011.245.003.884.884 0 010 1.249l.777-.777a.884.884 0 000-1.248.885.885 0 00-1.249 0z" fill="#666"/>
  </g>
  <path d="M21.77 2.23A5.892 5.892 0 0017.573.5a5.89 5.89 0 00-4.196 1.73L8.386 7.225a.34.34 0 00.481.481l4.992-4.993a5.215 5.215 0 013.715-1.532c1.407 0 2.726.544 3.714 1.532a5.215 5.215 0 011.532 3.714 5.215 5.215 0 01-1.532 3.715L10.141 21.288a5.215 5.215 0 01-3.715 1.532 5.215 5.215 0 01-3.714-1.532 5.215 5.215 0 01-1.532-3.714c0-1.408.544-2.727 1.532-3.715l4.855-4.855a.34.34 0 00-.481-.481l-4.855 4.855A5.89 5.89 0 00.5 17.574c0 1.59.615 3.08 1.73 4.195A5.892 5.892 0 006.427 23.5c1.59 0 3.08-.615 4.196-1.73l11.147-11.148A5.891 5.891 0 0023.5 6.426c0-1.59-.615-3.08-1.73-4.195z" fill="#000"/>
  <path d="M6.59 13.334a1.228 1.228 0 00-1.731 0l-1.345 1.347c-.231.23-.358.538-.358.866 0 .327.128.634.358.863.23.23.536.357.863.357.27 0 .526-.086.737-.245l.537 1 .048.09c.19.361.244.413.645.616l.945.482c-.156.209-.24.461-.24.727 0 .328.126.636.357.867.23.23.538.357.865.357h.001c.328 0 .634-.127.863-.357l1.347-1.347a1.224 1.224 0 00-1.593-1.847l-.482-.945c-.204-.4-.255-.454-.615-.645l-.09-.048-1.001-.537a1.227 1.227 0 00-.112-1.601zm-2.212 2.753a.536.536 0 01-.383-.157v-.001a.536.536 0 01-.158-.383.54.54 0 01.158-.384l1.345-1.346a.544.544 0 01.769.766L4.762 15.93a.538.538 0 01-.384.158zm5.24 1.463a.54.54 0 01.383.926l-1.347 1.347a.537.537 0 01-.382.158.539.539 0 01-.543-.543c0-.145.056-.28.158-.382l1.347-1.347a.541.541 0 01.383-.159zm-2.145-1.43c.101.055.174.093.195.115.025.027.07.115.132.238l.578 1.13-.596.595-1.13-.576a1.592 1.592 0 01-.238-.133 1.172 1.172 0 01-.114-.194c-.014-.028-.03-.059-.05-.094l-.628-1.17.588-.587 1.17.627.093.05zM16.745 3.297a1.224 1.224 0 00-1.73 0L13.67 4.642c-.23.23-.357.538-.357.866a1.216 1.216 0 00.357.865 1.221 1.221 0 001.6.111l.538 1 .048.091c.191.36.245.412.644.615l.946.483c-.156.209-.24.462-.24.728 0 .327.127.634.358.864.23.23.536.357.863.358.328 0 .636-.127.866-.358l1.346-1.346a1.226 1.226 0 000-1.73 1.226 1.226 0 00-1.593-.118l-.482-.944c-.198-.388-.245-.449-.615-.645l-.09-.047-1-.538c.158-.211.245-.467.244-.737 0-.327-.127-.634-.357-.863zM14.15 5.892a.54.54 0 01-.158-.384.54.54 0 01.158-.385l1.347-1.345a.543.543 0 01.767.767l-.2.2-.946.945-.007.009-.194.193a.544.544 0 01-.767 0zm5.623 1.62a.54.54 0 01.384.158.544.544 0 010 .768l-1.346 1.346a.537.537 0 01-.384.158.536.536 0 01-.383-.158.543.543 0 010-.767l.198-.198.002-.002.522-.523.623-.624a.54.54 0 01.384-.158zM17.63 6.084c.1.053.173.091.193.113.026.027.071.116.134.24l.576 1.128-.595.596L16.84 7.6l-.032-.016a1.61 1.61 0 01-.238-.133 1.184 1.184 0 01-.114-.195l-.05-.093-.628-1.17.588-.588 1.17.63.093.049z" fill="#000"/>
  <path d="M7.022 17.127h.008a.34.34 0 000-.68h-.008a.34.34 0 000 .68zM17.09 7.115l.008.002a.34.34 0 00.11-.671l-.008-.002a.34.34 0 10-.11.671zM9.037 12.132c-.78.78-.78 2.05 0 2.83.39.39.904.586 1.416.586.513 0 1.026-.195 1.416-.585l1.061-1.061a.34.34 0 00-.481-.481l-1.06 1.06a1.323 1.323 0 01-1.87 0 1.31 1.31 0 01-.386-.934c0-.354.137-.686.385-.934l3.313-3.312a1.323 1.323 0 011.868 0 1.323 1.323 0 010 1.868l-1.142 1.143a.34.34 0 00.48.48l1.143-1.142c.78-.78.78-2.05 0-2.83-.78-.78-2.05-.78-2.83 0l-3.313 3.312z" fill="#000"/>
</svg>
