<svg width="24" height="24" fill="none" xmlns="http://www.w3.org/2000/svg">
  <defs/>
  <path d="M12.51 23.124V8.392H4.894v14.732" fill="#CFDCE5"/>
  <path d="M19.16 23.124v-13.01h-4.746v13.01" fill="#FCD577"/>
  <g fill="#CFDCE5">
    <path d="M11.742 5.122h-6.08v3.27h6.08v-3.27zM11.212 5.122H6.19V3.991l2.511-1.355 2.511 1.355v1.131zM18.45 8.946h-3.293v1.169h3.292V8.946z"/>
  </g>
  <path d="M4.867 10.722a.376.376 0 00-.376.376v12.026a.376.376 0 00.752 0V11.098a.376.376 0 00-.376-.376z" fill="#000"/>
  <path d="M12.483 8.016h-.392V5.122a.376.376 0 00-.375-.376h-.154V3.99a.376.376 0 00-.197-.33L9.05 2.41V.876a.376.376 0 10-.752 0V2.41L5.986 3.66a.376.376 0 00-.197.331v.756h-.154a.376.376 0 00-.376.376v2.894h-.392a.376.376 0 00-.376.376v1.453a.376.376 0 10.752 0V8.768h6.865v14.356a.376.376 0 10.751 0V8.392a.376.376 0 00-.376-.376zM6.54 4.214l2.135-1.152 2.135 1.152v.532H6.54v-.532zm3.99 3.802V6.488a.376.376 0 10-.752 0v1.528H9.05V6.488a.376.376 0 10-.752 0v1.528h-.726V6.488a.376.376 0 10-.752 0v1.528h-.81V5.497h5.329v2.52h-.81zM19.133 9.738H18.8v-.792a.376.376 0 00-.376-.376h-1.27V6.237a.376.376 0 10-.752 0V8.57h-1.27a.376.376 0 00-.376.376v.792h-.368a.376.376 0 00-.375.376v13.01a.376.376 0 00.751 0v-1.137h3.995v1.137a.376.376 0 10.751 0v-13.01a.376.376 0 00-.376-.376zm-.375.752v.762h-3.995v-.762h3.995zm0 1.513v.675h-2.33a.376.376 0 000 .751h2.33v.675h-3.995v-.675h.411a.376.376 0 100-.751h-.41v-.675h3.994zm-.36 5.705h.36v.675h-3.995v-.675h2.382a.376.376 0 100-.752h-2.382v-.674h3.995v.674h-.36a.376.376 0 100 .752zm-3.635-2.178v-.674h3.995v.674h-3.995zm0 3.604h3.995v.675h-3.995v-.675zm.744-9.812h2.54v.416h-2.54v-.416zm-.744 11.913v-.675h3.995v.675h-3.995z" fill="#000"/>
  <path d="M6.09 9.37a.376.376 0 00-.376.375v.802a.376.376 0 10.751 0v-.802a.376.376 0 00-.375-.376zM7.383 9.37a.376.376 0 00-.376.375v.802a.376.376 0 10.751 0v-.802a.376.376 0 00-.375-.376zM11.26 9.37a.376.376 0 00-.375.375v.802a.376.376 0 10.751 0v-.802a.376.376 0 00-.375-.376zM9.968 9.37a.376.376 0 00-.376.375v.802a.376.376 0 10.751 0v-.802a.376.376 0 00-.375-.376zM8.676 9.37a.376.376 0 00-.376.375v.802a.376.376 0 10.751 0v-.802a.376.376 0 00-.375-.376zM6.09 13.829a.376.376 0 00-.376.376v.802a.376.376 0 00.751 0v-.802a.376.376 0 00-.375-.376zM7.383 13.829a.376.376 0 00-.376.376v.802a.376.376 0 00.751 0v-.802a.376.376 0 00-.375-.376zM11.26 13.829a.376.376 0 00-.375.376v.802a.376.376 0 10.751 0v-.802a.376.376 0 00-.375-.376zM9.968 13.829a.376.376 0 00-.376.376v.802a.376.376 0 00.751 0v-.802a.376.376 0 00-.375-.376zM8.676 13.829a.376.376 0 00-.376.376v.802a.376.376 0 00.751 0v-.802a.376.376 0 00-.375-.376zM6.09 18.289a.376.376 0 00-.376.375v.802a.376.376 0 10.751 0v-.802a.376.376 0 00-.375-.375zM7.383 18.289a.376.376 0 00-.376.375v.802a.376.376 0 10.751 0v-.802a.376.376 0 00-.375-.375zM11.26 18.289a.376.376 0 00-.375.375v.802a.376.376 0 10.751 0v-.802a.376.376 0 00-.375-.375zM9.968 18.289a.376.376 0 00-.376.375v.802a.376.376 0 10.751 0v-.802a.376.376 0 00-.375-.375zM8.676 18.289a.376.376 0 00-.376.375v.802a.376.376 0 10.751 0v-.802a.376.376 0 00-.375-.375zM6.09 20.519a.376.376 0 00-.376.375v.802a.376.376 0 10.751 0v-.802a.376.376 0 00-.375-.375zM7.383 20.519a.376.376 0 00-.376.375v.802a.376.376 0 10.751 0v-.802a.376.376 0 00-.375-.375zM11.26 20.519a.376.376 0 00-.375.375v.802a.376.376 0 10.751 0v-.802a.376.376 0 00-.375-.375zM9.968 20.519a.376.376 0 00-.376.375v.802a.376.376 0 10.751 0v-.802a.376.376 0 00-.375-.375zM8.676 20.519a.376.376 0 00-.376.375v.802a.376.376 0 10.751 0v-.802a.376.376 0 00-.375-.375zM6.09 11.6a.376.376 0 00-.376.375v.802a.376.376 0 00.751 0v-.802a.376.376 0 00-.375-.376zM7.383 11.6a.376.376 0 00-.376.375v.802a.376.376 0 00.751 0v-.802a.376.376 0 00-.375-.376zM11.26 11.6a.376.376 0 00-.375.375v.802a.376.376 0 10.751 0v-.802a.376.376 0 00-.375-.376zM9.968 11.6a.376.376 0 00-.376.375v.802a.376.376 0 00.751 0v-.802a.376.376 0 00-.375-.376zM8.676 11.6a.376.376 0 00-.376.375v.802a.376.376 0 00.751 0v-.802a.376.376 0 00-.375-.376zM6.09 16.059a.376.376 0 00-.376.376v.801a.376.376 0 10.751 0v-.801a.376.376 0 00-.375-.376zM7.383 16.059a.376.376 0 00-.376.376v.801a.376.376 0 10.751 0v-.801a.376.376 0 00-.375-.376zM11.26 16.059a.376.376 0 00-.375.376v.801a.376.376 0 10.751 0v-.801a.376.376 0 00-.375-.376zM9.968 16.059a.376.376 0 00-.376.376v.801a.376.376 0 10.751 0v-.801a.376.376 0 00-.375-.376zM8.676 16.059a.376.376 0 00-.376.376v.801a.376.376 0 10.751 0v-.801a.376.376 0 00-.375-.376z" fill="#000"/>
</svg>
