<svg width="24" height="24" fill="none" xmlns="http://www.w3.org/2000/svg">
  <defs/>
  <g fill-rule="evenodd" clip-rule="evenodd">
    <path d="M3.631 10.819c-5.414 9.429 14.471 9.006 11.303.62-.259-.073-.458-.685-.732-.722-2.436-.332-4.765-.09-7.971-.24-.497-.01-1.67-.037-2.6.342z" fill="#E6E6E6"/>
    <path d="M.84 15.31v5.321a1.05 1.05 0 001.048 1.047h20.225a1.05 1.05 0 001.048-1.047v-5.32H4.08a.45.45 0 01-.45-.45V6.419c0-.767-.627-1.395-1.395-1.395-.769 0-1.396.628-1.396 1.395v8.893z" fill="#B5722F"/>
    <path d="M5.637 10.474c.06 2.283 1.68 4.2 3.893 4.837h4.159l1.13-1.873-.784-2c-.058.564-.247.946-.664 1.366l-.033.032a3.87 3.87 0 01-1.291.812c-.892.346-1.884.395-2.576.081l-1.62-.736c-1.117-.508-1.6-1.484-1.62-2.516-.148-.003-.354-.008-.594-.003z" fill="#C2C7CC"/>
    <path d="M12 16.51c-.15 1.662 1.586 3.406 3.298 3.532h5.181c2.067 0 2.681-.43 2.681-2.391v-2.34H12.293c-.124.362-.25.711-.294 1.2z" fill="#91561A"/>
    <path d="M11.198 6.672l-.248.543 1.23.56c.132.06.262.138.388.23.212-.45-.028-1.16-.485-1.367l-.359-.163a.397.397 0 00-.526.197z" fill="#EDA93B"/>
    <path d="M10.56 7.039c-.265 4.182-2.226 3.036-2.708 5.953l1.619.737c.691.314 1.684.265 2.575-.081a3.83 3.83 0 001.325-.844c.417-.42.606-.802.664-1.365.005-.04.008-.08.012-.124.01-.149.01-.3 0-.453a4.052 4.052 0 00-.227-1.07c-.261-.735-.718-1.395-1.252-1.788a2.208 2.208 0 00-.388-.229l-1.23-.56-.39-.176z" fill="#FFDDA6"/>
    <path d="M10.56 7.037c-2.368-1.076-4.304 1.21-4.33 3.326a1.734 1.734 0 000 .113c.02 1.033.502 2.009 1.62 2.517.483-2.919 2.444-1.772 2.71-5.956z" fill="gray"/>
    <path d="M10.56 7.037c-1.662-.756-3.111.145-3.837 1.483.796-.88 1.984-1.327 3.305-.725l.39.177.04.019c.047-.284.081-.6.103-.954z" fill="#666"/>
    <path d="M10.56 7.039c-.02.344-.054.654-.097.931l1.184.538c.133.061.263.139.388.23.535.393.99 1.052 1.252 1.788.123.347.202.71.226 1.07a3.355 3.355 0 01-.01.577c-.027.25-.079.466-.165.663a.778.778 0 00.033-.032c.417-.42.606-.802.664-1.365.005-.04.008-.08.012-.124.01-.149.01-.3 0-.453a4.055 4.055 0 00-.227-1.07c-.261-.735-.718-1.394-1.251-1.788a2.222 2.222 0 00-.389-.229l-1.23-.56-.39-.176z" fill="#FCC368"/>
    <path d="M13.69 15.31c-.128 1.366.71 2.588 2.057 2.902h5.14c1.752 0 2.274-.354 2.274-1.965V9.181a.766.766 0 00-.764-.763h-5.394c-2.775 0-2.8.989-2.956 2.444.01.153.01.304 0 .453-.004.044-.006.084-.011.124.485 2.499-.234 2.677-.346 3.872z" fill="#F78411"/>
    <path d="M17.017 14.814l-.158.497-.214.674c-.086.275-.275.416-.396.341-.71-.445-1.3.505-.477.97.202.114.029.416.002.53a1.38 1.38 0 00-.028.386c.09 1.034 1.579 1.448 2.278 0 .055-.113.104-.238.149-.374l.815-2.527c.196-.607.15-1.055-.037-1.655l-.432-1.383h-1.64l-.006 1.142.192.697c.051.333.052.384-.048.702z" fill="#FFDDA6"/>
    <path d="M18.13 13.657c.186.599.233 1.047.037 1.654l-.588 1.825-.228.702c-.043.136-.093.26-.148.374-.222.46-.524.733-.836.856.517.215 1.231.022 1.656-.856.055-.113.105-.238.15-.374l.212-.66.602-1.867.001-.004v-.003c.017-.05.031-.098.044-.145.142-.532.089-.953-.082-1.5v-.003l-.431-1.383-.016.02h-.001l-.004.007c-.086.11-.193.206-.307.295-.104.08-.213.156-.322.23l.261.832z" fill="#FCC368"/>
    <path d="M14.047 10.862l1.316 1.833c.335.467.932.842 1.51.72.081-.017.163-.043.243-.082.199-.095.432-.284.616-.413.266-.188.572-.37.772-.627l.015-.02a1.56 1.56 0 00.03-1.836l-1.02-1.445a3.292 3.292 0 00-.526-.574c-1.48-1.252-3.404-.266-3.183 1.374.122.346.203.71.227 1.07z" fill="#64B0D9"/>
    <path d="M16.742 9.637l1.02 1.445a1.551 1.551 0 01.255 1.192 1.588 1.588 0 01-.28.642c.148-.104.307-.206.455-.32.115-.091.222-.189.31-.302l.001-.002.016-.018a1.556 1.556 0 00.03-1.836l-1.02-1.446a3.302 3.302 0 00-.526-.574c-1.079-.912-2.394-.636-2.941.216.628-.257 1.442-.171 2.154.43.183.156.36.345.526.573z" fill="#4A83C9"/>
  </g>
  <path d="M22.397 8.079h-1.89a.34.34 0 100 .679h1.89c.234 0 .424.19.424.424v7.065c0 .722-.107 1.118-.357 1.326-.254.21-.726.3-1.578.3h-2.368l.794-2.462c.229-.708.155-1.235-.038-1.855l-.382-1.227c.124-.203.21-.43.251-.671a1.883 1.883 0 00-.317-1.416l-1.023-1.45-.026-.034h1.428a.34.34 0 100-.68h-2.08c-.84-.655-1.763-.66-2.392-.409-.504.202-.88.563-1.087 1.014-.2-.305-.43-.577-.685-.797.05-.248.025-.525-.073-.793-.13-.353-.372-.632-.664-.764l-.36-.163a.732.732 0 00-.563-.018.73.73 0 00-.411.383l-.108.236-.08-.037H10.7c-1.006-.458-2.053-.396-2.949.172-1.035.657-1.759 1.934-1.85 3.23-.493 0-1.231.026-1.93.216v-3.93a1.736 1.736 0 00-3.471 0V20.63c0 .764.622 1.387 1.387 1.387h20.226c.765 0 1.387-.623 1.387-1.387V9.181c0-.608-.495-1.102-1.103-1.102zm-3.731 7.124l-.817 2.53c-.286.888-.843 1.168-1.268 1.05a.676.676 0 01-.496-.593l-.002-.019a.899.899 0 01.021-.265.925.925 0 01.018-.05c.032-.086.075-.203.084-.332a.53.53 0 00-.267-.522c-.146-.082-.23-.186-.229-.285 0-.061.033-.117.086-.146.07-.039.167-.023.274.044a.486.486 0 00.428.038c.21-.078.382-.284.47-.565l.372-1.17c.119-.376.118-.482.06-.857a.346.346 0 00-.008-.039l-.108-.393c.068-.034.135-.074.202-.121l.87-.613.27.862c.188.605.198.957.04 1.446zm-4.64.14c.033-.344.12-.588.22-.87.19-.533.4-1.128.232-2.428l.61.848c.357.499.936.873 1.533.885l.111.405c.042.273.04.279-.039.529l-.372 1.171a.508.508 0 01-.032.08.896.896 0 00-.82.013.846.846 0 00-.438.736c-.002.322.173.618.483.825l-.029.082c-.016.044-.031.085-.042.13l-.002.01c-.946-.39-1.515-1.333-1.414-2.416zm.959-7.044c.58-.232 1.522-.137 2.266.889l1.02 1.445c.186.265.259.588.203.91a1.207 1.207 0 01-.495.788l-.885.622c-.545.386-1.182-.075-1.456-.456l-1.261-1.757a4.407 4.407 0 00-.223-1.016c-.076-.633.248-1.191.831-1.425zm-1.49 1.59a3.496 3.496 0 01.202 1.524c-.052.48-.209.791-.567 1.152-.896.9-2.54 1.3-3.518.855l-1.377-.626c.213-.99.62-1.393 1.084-1.855.621-.616 1.32-1.31 1.54-3.392l1.18.538a1.886 1.886 0 01.339.2c.479.351.882.946 1.117 1.604zm-1.987-3.077a.055.055 0 01.032-.03.057.057 0 01.044.002l.359.163c.126.057.241.2.308.38.015.041.026.083.035.124l-.886-.403.108-.236zM6.57 10.368c.015-1.153.636-2.315 1.545-2.893a2.308 2.308 0 011.242-.372c.26 0 .543.045.847.156-.168 2.013-.749 2.589-1.363 3.198-.474.47-.962.954-1.229 2.017-.912-.604-1.049-1.555-1.042-2.106zm15.543 10.97H1.887a.709.709 0 01-.708-.707V6.418a1.057 1.057 0 012.113 0V14.862a.79.79 0 00.789.788h2.077a.34.34 0 100-.678H4.081c-.06 0-.11-.05-.11-.11v-3.805c.668-.219 1.44-.247 1.942-.245.122 1.125.76 2.018 1.798 2.49l1.62.736a2.96 2.96 0 001.218.24c1.077 0 2.288-.456 3.062-1.235.092-.092.174-.183.247-.275.022.708-.116 1.097-.252 1.477-.078.221-.159.449-.212.727H7.443a.34.34 0 000 .678h5.895c.013.616.202 1.21.547 1.702.377.536.925.93 1.56 1.13.13.493.52.836.956.956.121.034.248.051.377.051.516 0 1.067-.28 1.45-.937h2.658c.972 0 1.545-.117 1.935-.398v2.477c0 .39-.318.708-.708.708zM14.444 4.25h.767l-.954.949a.34.34 0 00.24.58h1.616a.34.34 0 000-.68h-.794l.954-.948a.34.34 0 00-.239-.58h-1.59a.34.34 0 000 .678zM17.778 2.661h.767l-.954.948a.34.34 0 00.24.58h1.616a.34.34 0 000-.678h-.793l.953-.948a.34.34 0 00-.239-.58h-1.59a.34.34 0 100 .678z" fill="#000"/>
</svg>
