<svg width="24" height="24" fill="none" xmlns="http://www.w3.org/2000/svg">
  <defs/>
  <path d="M17.953 22.419a.744.744 0 01-.744.744H6.79a.744.744 0 01-.744-.744V1.58c0-.41.333-.744.744-.744H17.21c.41 0 .744.333.744.744V22.42z" fill="#898989"/>
  <path d="M17.209.837h-.988c.41 0 .744.333.744.744V22.42a.744.744 0 01-.744.744h.988c.41 0 .744-.333.744-.744V1.58a.744.744 0 00-.744-.744z" fill="#727575"/>
  <path d="M6.046 3.07h11.907v17.86H6.046V3.07z" fill="#AAEBF9"/>
  <path d="M17.953 20.93V3.07h-.988v17.86h.988z" fill="#7BE2F6"/>
  <path d="M15.45 15.628H8.549a.27.27 0 01-.27-.27V6.967c0-.149.121-.27.27-.27h6.903c.149 0 .27.121.27.27v8.391a.27.27 0 01-.27.27z" fill="#EDE9E8"/>
  <path d="M15.451 6.697h-.988c.149 0 .27.121.27.27v8.391a.27.27 0 01-.27.27h.988a.27.27 0 00.27-.27V6.967a.27.27 0 00-.27-.27z" fill="#DFD7D5"/>
  <path d="M14.334 13.023h-4.67a.27.27 0 01-.27-.27v-4.67c0-.148.121-.27.27-.27h4.67c.15 0 .27.122.27.27v4.67a.27.27 0 01-.27.27z" fill="#AAEBF9"/>
  <path d="M14.335 7.814h-.988c.149 0 .27.12.27.27v4.67a.27.27 0 01-.27.27h.988a.27.27 0 00.27-.27v-4.67a.27.27 0 00-.27-.27z" fill="#7BE2F6"/>
  <path d="M13.32 10.181l-.948.759v2.083h1.963a.27.27 0 00.27-.27V10.94l-.948-.759a.27.27 0 00-.337 0z" fill="#5AC033"/>
  <path d="M13.616 10.155v2.599a.27.27 0 01-.27.27h.989a.27.27 0 00.27-.27v-1.815l-.948-.758a.269.269 0 00-.04-.026z" fill="#43AD2E"/>
  <path d="M9.664 13.023h4.67a.27.27 0 00.27-.27v-.027l-3.18-2.545a.27.27 0 00-.337 0l-1.692 1.354v1.219c0 .149.12.27.27.27z" fill="#74D84B"/>
  <path d="M18.29 3.07V1.58C18.29.985 17.805.5 17.21.5H6.79C6.194.5 5.71.985 5.71 1.581V22.42c0 .596.485 1.081 1.081 1.081H17.21c.596 0 1.081-.485 1.081-1.081V3.069zM6.79 1.174H17.21c.225 0 .407.183.407.407v1.152H6.383V1.58c0-.224.182-.407.407-.407zM17.21 22.826H6.79a.408.408 0 01-.407-.407v-1.152h1.895a.337.337 0 000-.673H6.383V3.406h11.233v17.188h-7.99a.337.337 0 100 .673h7.99v1.152a.408.408 0 01-.407.407z" fill="#000"/>
  <path d="M12.744 21.71h-1.488a.337.337 0 100 .674h1.488a.337.337 0 100-.674zM10.51 2.29h2.978a.337.337 0 000-.674H10.51a.337.337 0 000 .674zM8.65 2.29h.745a.337.337 0 000-.674H8.65a.337.337 0 100 .674zM16.057 15.628v-8.93a.337.337 0 00-.337-.337H8.278a.337.337 0 00-.337.336v8.931c0 .186.151.337.337.337h7.442c.186 0 .337-.151.337-.337zm-.673-.337H8.614V7.034h6.768v8.257z" fill="#000"/>
  <path d="M9.395 13.36h5.209c.186 0 .337-.15.337-.337v-5.21a.337.337 0 00-.337-.336h-5.21a.337.337 0 00-.336.337v5.21c0 .185.15.336.337.336zm.336-.674v-.99l1.524-1.218.907.726.002.001.741.593a.336.336 0 00.474-.053.337.337 0 00-.053-.473l-.415-.332.577-.462.534.427c.072.058.16.08.245.072v1.71H9.731zm4.536-4.535v2.088l-.569-.456a.337.337 0 00-.42 0l-.907.725-.905-.725a.337.337 0 00-.421 0l-1.314 1.05V8.152h4.536z" fill="#000"/>
</svg>
