<svg width="24" height="24" fill="none" xmlns="http://www.w3.org/2000/svg">
  <defs/>
  <path d="M17.953 22.419a.744.744 0 01-.744.744H6.79a.744.744 0 01-.744-.744V1.58c0-.41.333-.744.744-.744H17.21c.41 0 .744.333.744.744V22.42z" fill="#898989"/>
  <path d="M17.209.837h-.988c.41 0 .744.333.744.744V22.42a.744.744 0 01-.744.744h.988c.41 0 .744-.333.744-.744V1.58a.744.744 0 00-.744-.744z" fill="#727575"/>
  <path d="M6.046 3.07h11.907v17.86H6.046V3.07z" fill="#AAEBF9"/>
  <path d="M17.953 20.93V3.07h-.988v17.86h.988z" fill="#7BE2F6"/>
  <path d="M18.29 3.07V1.58C18.29.985 17.805.5 17.21.5H6.79C6.194.5 5.71.985 5.71 1.581V22.42c0 .596.485 1.081 1.081 1.081H17.21c.596 0 1.081-.485 1.081-1.081V3.069zM6.79 1.174H17.21c.225 0 .407.183.407.407v1.152H6.383V1.58c0-.224.182-.407.407-.407zM17.21 22.826H6.79a.408.408 0 01-.407-.407v-1.152h1.895a.337.337 0 000-.673H6.383V3.406h11.233v17.188h-7.99a.337.337 0 100 .673h7.99v1.152a.408.408 0 01-.407.407z" fill="#000"/>
  <path d="M12.744 21.71h-1.488a.337.337 0 100 .674h1.488a.337.337 0 100-.674zM10.51 2.29h2.978a.337.337 0 000-.674H10.51a.337.337 0 000 .674zM8.65 2.29h.745a.337.337 0 000-.674H8.65a.337.337 0 100 .674zM7.534 8.988c.186 0 .337-.15.337-.337V7.5h1.152a.337.337 0 100-.674H7.534a.337.337 0 00-.337.337V8.65c0 .186.151.337.337.337zM14.977 7.5h1.151V8.65a.337.337 0 00.674 0V7.163a.337.337 0 00-.337-.337h-1.488a.337.337 0 100 .674zM16.465 15.012a.337.337 0 00-.337.337V16.5h-1.151a.337.337 0 100 .674h1.488c.186 0 .337-.15.337-.337V15.35a.337.337 0 00-.337-.337zM9.023 16.5H7.87V15.35a.337.337 0 10-.674 0v1.488c0 .186.151.337.337.337h1.489a.337.337 0 100-.674zM12 13.081a1.082 1.082 0 000-2.162 1.082 1.082 0 000 2.162zm0-1.488a.408.408 0 11-.001.815.408.408 0 01.001-.815zM12 10.104c.186 0 .337-.15.337-.337v-.744a.337.337 0 10-.674 0v.744c0 .186.15.337.337.337zM8.701 11.954c0 .185.15.336.337.336h.744a.337.337 0 000-.673h-.744a.337.337 0 00-.337.336zM11.969 13.834a.337.337 0 00-.337.337v.744a.337.337 0 00.674 0v-.744a.337.337 0 00-.337-.337zM14.185 12.322h.745a.337.337 0 000-.674h-.745a.337.337 0 100 .674z" fill="#000"/>
</svg>
