<svg width="24" height="24" fill="none" xmlns="http://www.w3.org/2000/svg">
  <defs/>
  <path d="M16.824 16.465a8.558 8.558 0 10-9.657-.006v1.291h9.657v-1.285z" fill="#B6E3EE"/>
  <path d="M12 .837c-.15 0-.3.004-.448.012a8.559 8.559 0 014.376 15.616v1.285H7.167h9.657v-1.285A8.558 8.558 0 0012 .837z" fill="#96D2E0"/>
  <path d="M15.72 16.465L13.86 12l-1.598-7.03c-.063-.28-.462-.28-.526 0L10.14 12l-1.86 4.465v.483h1.488v-.483a2.233 2.233 0 012.27-2.232c1.225.02 2.195 1.045 2.195 2.269v.446h1.488v-.483z" fill="#58565C"/>
  <g fill="#49484D">
    <path d="M11.102 14.232c-1.233 0-2.233 1-2.233 2.233v.483h.899v-.483c0-1.08.765-1.98 1.783-2.188a2.238 2.238 0 00-.45-.045zM13.86 12l-1.597-7.03c-.064-.28-.462-.28-.526 0l-.186.82L12.962 12l1.86 4.465v.483h.899v-.483L13.861 12z"/>
  </g>
  <path d="M18.698 20.625v-2.671c0-.822-.667-1.489-1.489-1.489H6.79c-.822 0-1.488.667-1.488 1.489v2.671h13.396z" fill="#985335"/>
  <path d="M17.209 16.465h-.898c.822 0 1.488.667 1.488 1.489v2.671h.898v-2.671c0-.822-.666-1.489-1.488-1.489z" fill="#87462A"/>
  <path d="M4.558 22.062v-1.606c0-.15.12-.27.27-.27h14.344c.15 0 .27.12.27.27v1.606H4.558z" fill="#87462A"/>
  <path d="M19.172 20.186h-.899c.15 0 .27.12.27.27v1.606h.898v-1.606a.27.27 0 00-.27-.27z" fill="#693621"/>
  <path d="M20.186 23.163H3.813v-1.219c0-.149.121-.27.27-.27h15.833c.15 0 .27.121.27.27v1.22z" fill="#FFD151"/>
  <path d="M19.917 21.675h-.898c.148 0 .27.12.27.27v1.218h.897v-1.219a.27.27 0 00-.269-.27z" fill="#F79B4A"/>
  <path d="M13.963 19.07h-3.926a.27.27 0 01-.27-.27v-.949c0-.149.121-.27.27-.27h3.926c.15 0 .27.121.27.27v.95a.27.27 0 01-.27.269z" fill="#FFD151"/>
  <path d="M13.963 17.581h-.898c.148 0 .269.12.269.27v.949a.27.27 0 01-.27.27h.899a.27.27 0 00.27-.27v-.95a.27.27 0 00-.27-.269z" fill="#F79B4A"/>
  <g fill="#000">
    <path d="M20.93 22.826h-.407v-1.151a.337.337 0 00-.337-.337h-.407v-1.152a.337.337 0 00-.337-.337h-.407v-1.895c0-.828-.554-1.528-1.31-1.751a8.895 8.895 0 003.17-6.808C20.895 4.49 16.905.5 12 .5 7.095.5 3.105 4.49 3.105 9.395a8.897 8.897 0 003.17 6.808 1.828 1.828 0 00-1.31 1.75v1.896h-.407a.337.337 0 00-.337.337v1.152h-.407a.337.337 0 00-.337.337v1.151h-.408a.337.337 0 100 .674H20.93a.337.337 0 100-.674zM3.778 9.396c0-4.534 3.688-8.222 8.222-8.222 4.533 0 8.221 3.688 8.221 8.221a8.224 8.224 0 01-3.504 6.733h-.771l-1.58-3.791h.239a.337.337 0 100-.674h-.476l-.523-2.303h.254a.337.337 0 100-.674h-.407l-1.116-4.91v-1.45a.337.337 0 10-.674 0v1.45l-1.116 4.91h-.408a.337.337 0 100 .674h.255l-.524 2.303h-.475a.337.337 0 100 .674h.239l-1.58 3.791h-.772a8.225 8.225 0 01-3.504-6.733zm10.768 6.732A2.573 2.573 0 0012 13.896a2.573 2.573 0 00-2.547 2.232h-.669l1.58-3.791h3.272l1.58 3.791h-.67zm-.681 0h-3.73A1.899 1.899 0 0112 14.57c.93 0 1.705.673 1.865 1.558zM12 5.334l.762 3.352h-1.524L12 5.334zm.915 4.026l.523 2.303h-2.877l.524-2.303h1.83zm-8.02 11.163h2.137a.337.337 0 100-.674H5.639v-1.895c0-.635.516-1.152 1.151-1.152H17.21c.635 0 1.152.517 1.152 1.152v1.895H8.378a.337.337 0 100 .674h10.727v.815H4.895v-.815zm-.745 2.303v-.814h15.7v.814H4.15z"/>
    <path d="M9.768 19.407h4.465c.186 0 .337-.15.337-.337v-1.489a.337.337 0 00-.337-.336H9.768a.337.337 0 00-.337.336v1.489c0 .186.15.337.337.337zm.336-1.488h3.792v.814h-3.792v-.814z"/>
  </g>
</svg>
