<svg width="24" height="24" fill="none" xmlns="http://www.w3.org/2000/svg">
  <defs>
    <path d="M14.582 12.034h5.163v1.98h-5.163v-1.98z" fill="#D6694B" id="reuse-0"/>
  </defs>
  <path d="M4.253 18.09a.667.667 0 01-.657-.553l-.354-2.047h2.022l-.354 2.047a.667.667 0 01-.657.553zM19.745 18.09a.667.667 0 01-.657-.553l-.354-2.047h2.022l-.354 2.047a.667.667 0 01-.657.553z" fill="#8C3D27"/>
  <path d="M21.454 13.909H2.546V7.38c0-.813.659-1.471 1.471-1.471h15.966c.812 0 1.471.658 1.471 1.47v6.529z" fill="#C4573A"/>
  <path d="M19.982 5.91h-1.347c.812 0 1.471.658 1.471 1.47v6.529h1.348V7.38c0-.813-.659-1.471-1.472-1.471z" fill="#A74B30"/>
  <path d="M4.255 16.066v-2.052h15.49v2.052H4.255z" fill="#8C3D27"/>
  <g fill="#A74B30">
    <path d="M6.54 16.066v-2.052h1.508v2.052H6.539zM9.677 16.066v-2.052h1.509v2.052h-1.51zM12.815 16.066v-2.052h1.508v2.052h-1.508zM15.952 16.066v-2.052h1.51v2.052h-1.51zM2.546 8.325c-.944 0-1.71.764-1.71 1.706 0 .941.766 1.705 1.71 1.705v3.595c0 .406.33.735.735.735h.974v-6.035c0-.942-.765-1.706-1.709-1.706zM21.454 8.325c-.944 0-1.709.764-1.709 1.706v6.035h.974c.406 0 .735-.33.735-.735v-3.595c.944 0 1.71-.764 1.71-1.706 0-.941-.766-1.705-1.71-1.705z"/>
  </g>
  <path d="M21.454 8.325c-.24 0-.467.05-.674.138a1.706 1.706 0 01-.674 3.273v4.33h.613c.406 0 .735-.33.735-.735v-3.595c.944 0 1.71-.764 1.71-1.706 0-.941-.766-1.705-1.71-1.705z" fill="#8C3D27"/>
  <path d="M4.255 12.034h5.163v1.98H4.255v-1.98z" fill="#D6694B"/>
  <path d="M8.07 12.034h1.348v1.98H8.07v-1.98z" fill="#C4573A"/>
  <path d="M9.418 12.034h5.163v1.98H9.418v-1.98z" fill="#D6694B"/>
  <path d="M13.234 12.034h1.348v1.98h-1.348v-1.98z" fill="#C4573A"/>
  <use xlink:href="#reuse-0"/>
  <use xlink:href="#reuse-0"/>
  <use xlink:href="#reuse-0"/>
  <path d="M18.398 12.034h1.347v1.98h-1.348v-1.98z" fill="#C4573A"/>
  <path d="M5.825 8.572a.337.337 0 100-.674.337.337 0 000 .674zM8.295 8.572a.337.337 0 100-.674.337.337 0 000 .674zM10.765 8.572a.337.337 0 100-.674.337.337 0 000 .674zM13.235 8.572a.337.337 0 100-.674.337.337 0 000 .674zM15.705 8.572a.337.337 0 100-.674.337.337 0 000 .674zM18.175 8.572a.337.337 0 100-.674.337.337 0 000 .674zM7.397 10.291a.337.337 0 100-.674.337.337 0 000 .674zM9.867 10.291a.337.337 0 100-.674.337.337 0 000 .674zM12.337 10.291a.337.337 0 100-.674.337.337 0 000 .674zM14.807 10.291a.337.337 0 100-.674.337.337 0 000 .674zM17.276 10.291a.337.337 0 100-.674.337.337 0 000 .674z" fill="#000"/>
  <path d="M21.791 8.016v-.635a1.81 1.81 0 00-1.808-1.808H7.51a.337.337 0 000 .674h12.473c.625 0 1.134.508 1.134 1.134v.635a2.046 2.046 0 00-1.709 2.015v1.666H4.592V10.03c0-1.012-.74-1.854-1.71-2.015v-.635c0-.626.51-1.134 1.135-1.134h2.145a.337.337 0 000-.674H4.017A1.81 1.81 0 002.21 7.38v.635A2.046 2.046 0 00.5 10.031c0 1.011.74 1.853 1.709 2.014v.979a.337.337 0 10.674 0v-1.288a.337.337 0 00-.337-.337 1.372 1.372 0 01-1.372-1.368 1.372 1.372 0 012.744 0V15.729h-.637a.399.399 0 01-.398-.398v-.96a.337.337 0 10-.674 0v.96c0 .521.375.957.869 1.052a.336.336 0 00-.002.124l.188 1.087c.083.483.499.833.989.833s.906-.35.989-.833l.206-1.191H18.55l.206 1.191c.083.483.5.833.989.833.49 0 .906-.35.99-.833l.21-1.215c.482-.104.846-.534.846-1.048v-3.286a2.047 2.047 0 001.709-2.014c0-1.012-.74-1.854-1.709-2.015zm-2.383 7.713h-1.61v-1.378h1.61v1.378zm0-2.052h-4.49V12.37h4.49v1.307zm-4.748.674h.955v1.378h-.955v-1.378zm-.415-.674h-4.49V12.37h4.49v1.307zm-1.768.674v1.378h-.954v-1.378h.954zm-3.137 0v1.378h-.955v-1.378h.955zm-.259-1.98v1.306h-4.49V12.37h4.49zm-4.49 3.358v-1.378h1.61v1.378h-1.61zm-.013 1.75a.33.33 0 01-.65 0l-.186-1.076h1.022l-.186 1.077zm2.298-1.75v-1.378h.835v1.378h-.835zm3.138 0v-1.378h.835v1.378h-.835zm3.137 0v-1.378h.835v1.378h-.835zm3.138 0v-1.378h.835v1.378h-.835zm3.456 2.024a.33.33 0 01-.325-.273l-.186-1.077h1.022l-.186 1.077a.33.33 0 01-.325.273zm1.71-6.354a.337.337 0 00-.338.337v3.595c0 .214-.17.388-.38.397l-.021-.004a.334.334 0 00-.14.005h-.494v-5.698a1.372 1.372 0 012.744 0c0 .754-.615 1.368-1.372 1.368z" fill="#000"/>
</svg>
