<svg width="24" height="24" fill="none" xmlns="http://www.w3.org/2000/svg">
  <defs/>
  <path d="M5.032 21.675h-.949a.27.27 0 01-.27-.27v-6.8h1.489v6.8a.27.27 0 01-.27.27z" fill="#EDE9E8"/>
  <path d="M4.314 14.605v6.8a.27.27 0 01-.25.269h.969a.27.27 0 00.269-.269v-6.8h-.988z" fill="#DFD7D5"/>
  <path d="M5.777 15.35H3.339a.27.27 0 01-.27-.27v-1.444h2.977v1.444a.27.27 0 01-.27.27z" fill="#FABE2C"/>
  <path d="M5.058 13.636v1.444a.27.27 0 01-.27.27h.988a.27.27 0 00.27-.27v-1.444h-.988z" fill="#FD9E28"/>
  <path d="M7.76 13.86H1.58a.744.744 0 01-.744-.744v-3.72c0-.412.333-.745.744-.745H7.76v5.21z" fill="#898989"/>
  <path d="M3.07 9.973V8.65H1.58a.744.744 0 00-.744.744v3.721c0 .412.333.745.744.745H3.07v-1.322a.27.27 0 00-.15-.241l-.446-.223a.27.27 0 01-.149-.241v-1.156a.27.27 0 01.15-.241l.446-.223a.27.27 0 00.149-.241z" fill="#FABE2C"/>
  <path d="M2.92 12.298l-.446-.223a.27.27 0 01-.149-.241v-1.156a.27.27 0 01.15-.241l.445-.223a.27.27 0 00.15-.241V8.65H2.08v1.322a.27.27 0 01-.149.241l-.446.223a.27.27 0 00-.15.241v1.155a.27.27 0 00.15.242l.446.223a.27.27 0 01.15.24v1.323h.987v-1.322a.27.27 0 00-.149-.241z" fill="#FD9E28"/>
  <path d="M6.547 8.651H7.76v5.21H6.547V8.65z" fill="#727575"/>
  <path d="M10.54 20.038L7.535 13.86V8.65l3.012-6.19.622-.136v17.861l-.629-.148z" fill="#5E6161"/>
  <path d="M10.512 19.917V2.595c0-.149.12-.27.27-.27h8.39c.15 0 .27.121.27.27v17.322a.27.27 0 01-.27.27h-8.39a.27.27 0 01-.27-.27z" fill="#898989"/>
  <path d="M19.173 2.325h-.988c.148 0 .27.121.27.27v17.322a.27.27 0 01-.27.27h.988a.27.27 0 00.27-.27V2.595a.27.27 0 00-.27-.27z" fill="#727575"/>
  <path d="M12 18.429V4.083c0-.149.12-.27.27-.27h5.414c.149 0 .27.121.27.27V18.43a.27.27 0 01-.27.27H12.27a.27.27 0 01-.269-.27z" fill="#AAEBF9"/>
  <path d="M17.685 3.814h-.989c.15 0 .27.12.27.27v14.345a.27.27 0 01-.27.27h.989a.27.27 0 00.27-.27V4.083a.27.27 0 00-.27-.27z" fill="#7BE2F6"/>
  <path d="M4.558 10.547a.337.337 0 00-.337.337v.744a.337.337 0 10.674 0v-.744a.337.337 0 00-.337-.337zM6.047 10.547a.337.337 0 00-.337.337v.744a.337.337 0 10.674 0v-.744a.337.337 0 00-.337-.337zM23.163 10.919h-1.488a.337.337 0 100 .674h1.488a.337.337 0 100-.674zM21.176 9.732a.334.334 0 00.168-.045l1.29-.744a.337.337 0 00-.338-.584l-1.289.745a.337.337 0 00.17.628zM22.633 13.569l-1.289-.744a.337.337 0 00-.337.583l1.29.744a.334.334 0 00.46-.123.337.337 0 00-.124-.46z" fill="#000"/>
  <path d="M19.442 1.988H10.504a.408.408 0 00-.052.006l-.017.003a1.401 1.401 0 00-.032.01l-.012.004a.305.305 0 00-.046.022l-.014.008-.013.009a.285.285 0 00-.014.01.32.32 0 00-.076.084l-.008.013a.406.406 0 00-.01.018c0 .003-.002.005-.003.007L7.32 8.314H4.895v-.78a.337.337 0 10-.674 0v.78h-1.15-.002-1.488C.985 8.314.5 8.8.5 9.395v3.721c0 .597.485 1.082 1.081 1.082h1.152v1.151c0 .186.15.337.337.337h.407v5.989c0 .186.15.337.337.337h1.488c.186 0 .337-.151.337-.337v-3.536a.337.337 0 10-.674 0v3.199h-.814v-5.652h.814v1.106a.337.337 0 00.674 0v-1.106h.407a.337.337 0 00.337-.337v-1.152h.938l2.886 6.133.002.004a.327.327 0 00.02.037l.003.003a.332.332 0 00.025.033l.009.01a.4.4 0 00.025.024l.005.005a.317.317 0 00.075.046l.005.003.04.015a.343.343 0 00.041.01h.013a.301.301 0 00.038.003h8.935c.185 0 .336-.15.336-.337V2.326a.337.337 0 00-.337-.338zM6.046 13.524h-2.64v-1.152a.337.337 0 00-.186-.301l-.558-.28V10.72l.558-.28a.337.337 0 00.186-.3V8.987h3.792v4.536H6.046zm-4.872-.408v-3.72c0-.225.183-.408.407-.408h1.152v.943l-.558.28a.337.337 0 00-.187.3v1.49c0 .127.073.243.187.3l.558.28v.943H1.58a.408.408 0 01-.407-.408zm4.535 1.896H3.406v-.815H5.71v.815zm2.163-6.286l2.303-4.894V18.68l-2.303-4.894V8.726zM19.105 19.85h-8.257V2.662h8.257V19.85z" fill="#000"/>
  <path d="M12 19.035h5.954c.186 0 .337-.15.337-.337V3.814a.337.337 0 00-.337-.337H12a.337.337 0 00-.337.337v14.884c0 .186.15.337.337.337zm.337-14.884h5.28v14.21h-5.28V4.151z" fill="#000"/>
</svg>
