<svg width="24" height="24" fill="none" xmlns="http://www.w3.org/2000/svg">
  <defs/>
  <path d="M19.067 20.656a11.1 11.1 0 01-4.18 2.126c-1.91.507-3.877.5-5.737-.001l.635-2.368a8.723 8.723 0 006.944-1.088l1.163.804.324-.324.85.851zm4.085-9.124a11.158 11.158 0 00-1.52-5.142.09.09 0 01.014-.108l1.004-1.007a.204.204 0 00-.092-.341L17.517 3.59a.307.307 0 00-.376.376L18.5 9.005c.04.152.23.202.341.091l.867-.869a.09.09 0 01.144.024 8.743 8.743 0 01-.524 8.48l.802 1.161-.323.324.849.85c.368-.454.704-.94 1.003-1.456a11.095 11.095 0 001.494-6.078z" fill="#80BC93"/>
  <path d="M23.152 11.532a11.158 11.158 0 00-1.52-5.142.09.09 0 01.014-.108l1.004-1.007a.204.204 0 00-.092-.342l-1.785-.475a1.886 1.886 0 00-.384 2.104c.573 1.278.903 2.658.967 4.072a11.095 11.095 0 01-1.494 6.078 11.059 11.059 0 01-6.77 5.172 11.139 11.139 0 01-3.792.34l-.15.557c1.86.5 3.826.508 5.737 0a11.059 11.059 0 006.771-5.17 11.096 11.096 0 001.494-6.079z" fill="#69AF81"/>
  <path d="M3.1 6.062l2.96-2.96 3.414 3.414-2.96 2.96-3.413-3.414z" fill="#B9C1CB"/>
  <path d="M6.061 3.102L5.163 4l1.729 1.729c.435.435.435 1.14 0 1.575L5.618 8.578l.898.898 2.96-2.96L6.06 3.102z" fill="#A0AAB7"/>
  <path d="M10.35 5.643l-4.707 4.706.864.865a.825.825 0 001.167 0l3.54-3.54a.825.825 0 000-1.167l-.865-.864z" fill="#DAE4EA"/>
  <path d="M11.214 6.507l-.865-.864-.674.673.191.191a.825.825 0 010 1.168l-3.449 3.449.09.09a.825.825 0 001.167 0l3.54-3.54a.825.825 0 000-1.167zM11.944 8.652l-3.292 3.292a.825.825 0 000 1.167l.865.865 4.459-4.46-.865-.864a.825.825 0 00-1.167 0z" fill="#C6D0DA"/>
  <path d="M10.597 9.999l-.598.598a.825.825 0 000 1.167l.864.865 1.766-1.765-.865-.865a.825.825 0 00-1.167 0z" fill="#DAE4EA"/>
  <path d="M7.963 10.924l2.96-2.96.853.854-2.96 2.96-.853-.854z" fill="#B9C1CB"/>
  <path d="M2.003 5.453l3.45-3.45.853.854-3.45 3.45-.853-.854zM11.291 13.918l2.624-2.624 2.43 2.43-2.624 2.624-2.43-2.43z" fill="#707DD3"/>
  <path d="M13.918 11.294l-.898.898.78.78a1.063 1.063 0 010 1.504l-.975.974.898.899 2.625-2.625-2.43-2.43z" fill="#5766CB"/>
  <path d="M20.129 17.892l-2.237 2.237-1.256-.868 2.625-2.625.868 1.256zM14.026 16.043l2.014-2.013 2.911 2.912-2.013 2.013-2.912-2.912z" fill="#707DD3"/>
  <path d="M16.043 14.03l-.898.898 1.41 1.411a.852.852 0 010 1.205l-.512.513.898.898 2.014-2.013-2.912-2.912z" fill="#5766CB"/>
  <path d="M18.212 19.805l1.59-1.589 1.298 1.3-1.59 1.588-1.298-1.299z" fill="#DAE4EA"/>
  <path d="M22.15 21.126l-1.024 1.024-.689-.124-.64-1.204 1.025-1.024 1.205.639.123.689z" fill="#C6D0DA"/>
  <path d="M13.918 11.294l-2.625 2.624a.553.553 0 01-.629.108l-.81-.388 3.784-3.784.388.81a.553.553 0 01-.108.63z" fill="#B9C1CB"/>
  <path d="M6.859 20.033a.307.307 0 01-.375.376l-5.042-1.342a.204.204 0 01-.092-.342l1.004-1.007a.09.09 0 00.013-.108 11.157 11.157 0 01-1.519-5.142 11.096 11.096 0 011.72-6.45l.289.289.245-.245 1.432 1.431-.074.126a8.743 8.743 0 00-.31 8.13.09.09 0 00.143.024l.867-.869c.111-.111.3-.06.342.091l1.357 5.038zM9.113 1.218c-1.111.295-2.152.751-3.098 1.348l.292.29-.245.246 1.434 1.434a8.72 8.72 0 016.792-.928l.634-2.369a11.065 11.065 0 00-5.81-.02z" fill="#80BC93"/>
  <path d="M5.502 14.995a.204.204 0 00-.342-.09l-.867.868a.09.09 0 01-.141-.02l.91 3.382a.307.307 0 01-.375.376l-3.256-.867-.081.081a.204.204 0 00.092.342l5.041 1.342a.307.307 0 00.376-.376l-1.357-5.038z" fill="#69AF81"/>
  <path d="M22.358 20.377a.337.337 0 00-.174-.238l-.806-.428a.337.337 0 00-.035-.434l-.238-.238c.307-.4.59-.822.844-1.26a11.432 11.432 0 001.54-6.262 11.547 11.547 0 00-1.47-5.132l.87-.872a.542.542 0 00-.244-.905l-5.042-1.343a.637.637 0 00-.621.168.637.637 0 00-.166.622l1.357 5.038a.542.542 0 00.906.24l.614-.615a8.443 8.443 0 01.453 5.235.337.337 0 00.656.154 9.113 9.113 0 00-.647-6.002.426.426 0 00-.687-.116l-.704.707-1.284-4.767 4.77 1.27-.842.845a.426.426 0 00-.066.516 10.868 10.868 0 011.474 4.987c.092 2.063-.409 4.1-1.45 5.894-.224.387-.473.762-.742 1.117l-.342-.342.085-.086a.337.337 0 00.04-.43l-.677-.978.102-.171c.163-.282.312-.575.444-.873a.337.337 0 00-.616-.272 8.25 8.25 0 01-.466.9.338.338 0 00-.172.092l-.067.067-.467-.467.067-.068a.337.337 0 10-.476-.476l-.068.067-.548-.548.068-.067a.337.337 0 00-.477-.476l-.067.067-.468-.467.068-.068a.337.337 0 000-.476l-2.24-2.24a.89.89 0 00-.017-.727l-.285-.595.169-.17a.337.337 0 000-.476l-.865-.864a1.164 1.164 0 00-1.568-.07l-.38-.38.051-.051a1.164 1.164 0 000-1.644l-.864-.864a.337.337 0 00-.477 0l-.635.635-.377-.377.007-.007a.337.337 0 00-.477-.477l-.007.007-.377-.377.007-.007c.091-.09.119-.22.084-.336a8.4 8.4 0 015.862-.534c.18.05.367-.057.415-.237l.635-2.369a.337.337 0 00-.236-.411A11.447 11.447 0 009.026.893a11.517 11.517 0 00-2.96 1.246l-.375-.374a.337.337 0 00-.476 0L3.728 3.252l-.243-.244a.337.337 0 00-.477.477l.244.243-1.004 1.004-.523-.523a.52.52 0 010-.733L2.6 2.6a.337.337 0 10-.476-.477L1.25 3a1.193 1.193 0 000 1.686l.523.523-.007.007a.337.337 0 000 .476l.376.377-.09.153a11.432 11.432 0 00-1.54 6.262c.081 1.797.589 3.567 1.47 5.132l-.87.872a.542.542 0 00.244.905l5.042 1.343a.637.637 0 00.622-.168.637.637 0 00.165-.622l-1.357-5.037a.543.543 0 00-.906-.242l-.614.616a8.452 8.452 0 01-.67-3.611 8.382 8.382 0 01.824-3.336.338.338 0 00.341-.083l.007-.007.377.377-.007.007a.337.337 0 00.477.477l.006-.007.378.377-.636.635a.337.337 0 000 .476l.865.865c.227.227.524.34.822.34.297 0 .595-.113.822-.34l.051-.052.38.38c-.382.457-.36 1.14.07 1.57l.864.864a.337.337 0 00.476 0l.17-.17.595.286a.887.887 0 00.727.018l.559.558a.337.337 0 10.476-.476l-.511-.512 2.148-2.148 1.954 1.954-2.148 2.148-.298-.297a.337.337 0 10-.476.476l.536.536a.337.337 0 00.476 0l.068-.068.467.468-.067.067a.337.337 0 00.476.477l.067-.068.548.548-.067.068a.337.337 0 00.476.476l.068-.067.467.467-.067.067a.337.337 0 00-.091.167 8.383 8.383 0 01-6.435.898.337.337 0 00-.412.238l-.635 2.369a.337.337 0 00.238.412 11.34 11.34 0 002.949.388c.993 0 1.99-.129 2.962-.387a11.393 11.393 0 004.067-2l.236.236a.336.336 0 00.434.035l.428.806a.337.337 0 00.238.174l.69.123a.337.337 0 00.298-.093l1.023-1.024a.337.337 0 00.093-.298l-.123-.689zm-12.121-9.542l.598-.598a.487.487 0 01.69 0l.627.626-1.289 1.29-.626-.627a.489.489 0 010-.69zm2.636-1.945l.626.626-.87.871-.627-.626a1.16 1.16 0 00-.42-.27l.6-.601c.19-.19.5-.19.69 0zM4.777 7.26a.284.284 0 00-.01-.01l-.335-.335 2.483-2.483.377.377L4.81 7.292l-.032-.032zm1.285-3.682l.377.377L3.955 6.44l-.377-.377 2.484-2.484zm3.137-2.034a10.784 10.784 0 015.31-.064l-.46 1.719a9.087 9.087 0 00-6.498.916l-.16-.16.007-.006a.337.337 0 00-.476-.477l-.007.007-.377-.377.007-.007a.337.337 0 00.012-.463c.824-.475 1.71-.84 2.642-1.088zm-3.746.936l.377.377L2.857 5.83l-.378-.377L5.454 2.48zm-2.49 9.166a9.115 9.115 0 00.882 4.249.426.426 0 00.687.116l.704-.706L6.52 20.07 1.75 18.8l.842-.845a.426.426 0 00.066-.516 10.868 10.868 0 01-1.474-4.987 10.76 10.76 0 011.45-5.894.336.336 0 00.46-.014l.008-.007.377.377-.007.007a.337.337 0 00.476.476l.007-.006.157.156a9.037 9.037 0 00-1.148 4.098zM5.286 7.77L7.77 5.285l.377.378-2.484 2.483-.377-.377zm3.337-1.63L9 6.516 6.516 9l-.377-.378L8.622 6.14zm1.06 3.067a.337.337 0 00-.476 0l-1.77 1.77c-.19.19-.5.19-.69 0l-.627-.627 4.23-4.23.627.626c.19.191.19.5 0 .691l-.63.63a.337.337 0 00.477.475l.101-.1.377.377L8.818 11.3l-.377-.377 1.241-1.242a.337.337 0 000-.476zm-.792 3.667a.489.489 0 010-.691l.6-.6c.058.156.15.299.27.42l.627.627-.87.87-.627-.626zm1.92.85l-.382-.183 3.112-3.111.182.38a.216.216 0 01-.042.247l-2.625 2.624a.216.216 0 01-.245.042zm9.604 5.578l.214.214-1.113 1.113-.823-.823 1.113-1.113.61.61zm-2.562.391l-.693-.479 2.054-2.053.48.693-1.84 1.84zm-3.346-3.649l1.537-1.537.467.467-1.537 1.538-.467-.468zm.944.944l1.537-1.537.548.548-1.537 1.537-.548-.548zm1.024 1.024l1.537-1.537.468.467-1.538 1.538-.467-.468zM14.8 22.456a10.791 10.791 0 01-5.237.082l.46-1.72a9.063 9.063 0 006.695-1.09l.982.678a.335.335 0 00.43-.039l.085-.085.344.344a10.726 10.726 0 01-3.76 1.83zm6.21-.669l-.354-.063-.445-.84.672-.672.84.446.063.354-.775.775z" fill="#000"/>
</svg>
