<svg width="24" height="24" fill="none" xmlns="http://www.w3.org/2000/svg">
  <defs/>
  <path d="M7.433 15.018l.96 7.285c.047.351.352.61.705.598l2.578-.09a.687.687 0 00.615-.94L9.476 14.77l-2.043.25z" fill="#D3E8F1"/>
  <path d="M7.565 15.933l.059.509s2.435-.229 2.39-.303c-.044-.073-.472-1.261-.472-1.261l-2.169.546.192.509z" fill="#B1C6D3"/>
  <path d="M7.535 6.985l-1.944.957a4.215 4.215 0 003.721 7.565l1.945-.957S7.485 6.968 7.535 6.985z" fill="#6BE8C7"/>
  <g fill="#D3E8F1">
    <path d="M3.335 11.168a.093.093 0 00-.126-.045 2.045 2.045 0 00-.936 2.737l.273.555c.498 1.012 1.66 1.74 2.674 1.24L3.9 13.6l-.564-2.432zM17.471 15.628c-1.057 0-3.942-.267-6.279-1.05-.091-.03-3.48-6.684-3.45-6.78.973-3.028 3.284-5.96 3.382-6.08a.369.369 0 01.617.074l6.485 13.292a.376.376 0 01-.015.356.37.37 0 01-.304.182c-.007 0-.163.006-.436.006z"/>
  </g>
  <path d="M11.419.503a.413.413 0 00-.366.146c-.105.127-2.474 3.003-3.632 6.179l-1.847.909a4.598 4.598 0 00-2.338 2.66c-.079.231-.138.465-.18.7l-.022.01-.086.042c-.59.29-1.031.793-1.243 1.415a2.445 2.445 0 00.121 1.88l.274.555c.29.59.792 1.031 1.415 1.243a2.451 2.451 0 001.88-.121.41.41 0 00.128-.1 4.624 4.624 0 001.829.49.411.411 0 00-.038.239l.917 6.396c.03.204.204.354.409.354h.014l4.176-.144a.413.413 0 00.371-.56l-.795-2.062a.413.413 0 00-.77.297l.586 1.52-3.226.11-.865-6.028a.412.412 0 00-.046-.138 4.591 4.591 0 001.574-.453l.044-.021 1.186 3.075a.413.413 0 10.77-.297l-1.212-3.144 1.06-.522c2.56.81 5.434.901 6.592.901.3 0 .486-.006.519-.007a.413.413 0 00.355-.595l-1.33-2.702a.413.413 0 10-.74.364l1.039 2.112c-1.213-.011-3.92-.13-6.254-.883C10.396 11.725 8.58 8.06 8.169 7.19c.828-2.313 2.389-4.535 3.121-5.504l4.156 8.448a.413.413 0 10.741-.365L11.741.731a.413.413 0 00-.322-.228zM3.78 15.46a1.624 1.624 0 01-.94-.826l-.274-.555a1.624 1.624 0 01-.08-1.249c.099-.29.274-.542.505-.733.028.63.185 1.253.472 1.835a4.64 4.64 0 001.248 1.565 1.622 1.622 0 01-.931-.037zm7.086-.933l-1.085.534-.006.002a.419.419 0 00-.074.038l-.407.2a3.764 3.764 0 01-1.675.392 3.781 3.781 0 01-3.415-2.125 3.777 3.777 0 01-.188-2.904 3.778 3.778 0 011.921-2.186l1.487-.732c.032.022.067.04.106.053l.016.005.356.731c.309.63.74 1.505 1.281 2.6l1.683 3.393zM17.334 7.156a.413.413 0 00.553.189l2.794-1.375a.413.413 0 10-.365-.74l-2.793 1.374a.413.413 0 00-.189.552zM18.49 1.571a.413.413 0 00-.57.125l-1.705 2.66a.413.413 0 00.695.445l1.704-2.66a.413.413 0 00-.124-.57zM18.454 9.213a.413.413 0 00.374.449l3.15.286a.413.413 0 00.075-.822l-3.15-.286a.412.412 0 00-.45.373z" fill="#000"/>
</svg>
