<svg width="24" height="24" fill="none" xmlns="http://www.w3.org/2000/svg">
  <defs/>
  <g fill-rule="evenodd" clip-rule="evenodd">
    <path d="M12 23.16c6.148 0 11.16-5.013 11.16-11.16S18.149.84 12 .84C5.853.84.84 5.852.84 12S5.853 23.16 12 23.16z" fill="#838383"/>
    <path d="M12 2.867a9.132 9.132 0 110 18.264 9.132 9.132 0 010-18.264z" fill="#A6E7F0"/>
    <path d="M7.165 7.152L5.548 5.537a9.107 9.107 0 00-2.68 6.447H4.85c.097 0 .251-.033.286-.213.022-.116.031-.297.063-.572a6.827 6.827 0 011.966-4.047z" fill="#80D261"/>
    <path d="M18.457 5.542a9.109 9.109 0 00-6.441-2.675v2.285a6.834 6.834 0 014.82 1.985l1.622-1.595z" fill="#FFD659"/>
    <path d="M12 2.867c-2.52 0-4.8 1.021-6.452 2.67l1.617 1.615a6.834 6.834 0 014.843-2h.007V2.867H12z" fill="#4FC122"/>
    <path d="M21.131 11.984a9.1 9.1 0 00-2.674-6.442l-1.621 1.595a6.825 6.825 0 011.98 4.062c.033.275.042.456.063.572.035.18.19.213.287.213h1.965z" fill="#FE636E"/>
    <path d="M11.787 10.68a1.64 1.64 0 00-1.41 1.622 1.638 1.638 0 101.41-1.622z" fill="#ECECEC"/>
    <path d="M9.663 8.576c-.7-.693-1.75.257-1.133 1.012l1.897 2.317a1.64 1.64 0 011.36-1.225L9.664 8.576z" fill="#FE636E"/>
    <path d="M13.652 12.302a1.637 1.637 0 00-1.963-1.605 1.674 1.674 0 01.736.615 1.636 1.636 0 01-1.044 2.5 1.637 1.637 0 002.271-1.509z" fill="#CECECE"/>
    <path d="M18.457 5.542l-.911.899a11.099 11.099 0 011.528 5.532c.033.008.064.01.092.01h1.966a9.1 9.1 0 00-2.675-6.441z" fill="#FB2A39"/>
    <path d="M21.132 11.999a9.102 9.102 0 01-2.48 6.257 9.145 9.145 0 01-3.494 2.313 11.11 11.11 0 01-4.981 2.442c.593.098 1.203.15 1.823.15 6.164 0 11.161-4.998 11.161-11.162C23.161 5.836 18.164.839 12 .839c-.775 0-1.533.079-2.264.23a11.1 11.1 0 015.079 2.241 9.123 9.123 0 013.642 2.232 9.1 9.1 0 012.675 6.457z" fill="#595959"/>
    <path d="M21.132 11.984h-1.966a.416.416 0 01-.093-.01v.106a11.13 11.13 0 01-.825 4.22c.252.314.404.712.404 1.144v.812A9.102 9.102 0 0021.132 12v-.015z" fill="#6BD9E7"/>
    <path d="M9.663 8.576c-.457-.452-1.063-.205-1.257.231a.748.748 0 01.669.23l1.968 1.949a1.622 1.622 0 01.745-.306L9.663 8.576z" fill="#FB2A39"/>
    <path d="M18.457 5.542a9.123 9.123 0 00-3.643-2.232 11.196 11.196 0 012.731 3.13l.912-.898z" fill="#FFBF00"/>
    <path d="M7.21 15.612a1.838 1.838 0 00-1.831 1.832v.844A9.104 9.104 0 0012 21.131a9.115 9.115 0 006.652-2.875v-.812c0-.432-.151-.83-.403-1.143a1.83 1.83 0 00-1.429-.689H7.21z" fill="#ECECEC"/>
    <path d="M18.248 16.3a11.189 11.189 0 01-3.09 4.27 9.145 9.145 0 003.494-2.314v-.812c0-.432-.152-.83-.404-1.143z" fill="#CECECE"/>
  </g>
  <path d="M13.991 12.302a1.979 1.979 0 00-2.077-1.974L9.9 8.335c-.496-.492-1.146-.394-1.531-.043-.382.347-.54.977-.103 1.511l1.795 2.194a1.978 1.978 0 103.93.305zm-3.657-1.043L8.791 9.373c-.244-.299-.014-.535.035-.58a.457.457 0 01.29-.119c.092 0 .198.036.307.143l1.724 1.707a1.963 1.963 0 00-.813.735zm.383 1.043a1.3 1.3 0 011.297-1.297 1.3 1.3 0 011.298 1.297 1.3 1.3 0 01-1.298 1.298 1.3 1.3 0 01-1.297-1.298zM13.63 18.555h-3.165a.34.34 0 100 .679h3.164a.34.34 0 100-.679zM14.888 17.072H9.207a.34.34 0 100 .679h5.681a.34.34 0 100-.68z" fill="#000"/>
  <path d="M5.095 18.475a.34.34 0 00.08.085A9.444 9.444 0 0012 21.47a9.41 9.41 0 006.914-2.998 9.402 9.402 0 002.556-6.384.337.337 0 000-.21 9.44 9.44 0 00-2.7-6.496.34.34 0 00-.152-.15 9.44 9.44 0 00-6.598-2.704H12A9.44 9.44 0 005.35 5.261a.336.336 0 00-.079.079 9.44 9.44 0 00-2.743 6.639v.02c0 2.503.975 4.781 2.566 6.476zm.46-12.45l1.133 1.132a7.143 7.143 0 00-1.826 4.004c-.014.116-.023.213-.031.3a6.112 6.112 0 01-.02.184H3.216a8.76 8.76 0 012.34-5.62zm15.23 5.62h-1.581c-.006-.047-.012-.106-.018-.173a14.02 14.02 0 00-.032-.311 7.142 7.142 0 00-1.84-4.018l1.134-1.114a8.759 8.759 0 012.336 5.616zm-3.953-4.98a7.188 7.188 0 00-4.478-1.843V3.215a8.759 8.759 0 015.613 2.334l-1.135 1.116zm-5.157-1.844A7.186 7.186 0 007.17 6.678L6.036 5.545a8.759 8.759 0 015.64-2.331V4.82zM12 20.79a8.766 8.766 0 01-6.282-2.647v-.7c0-.823.67-1.492 1.492-1.492h3.998a.34.34 0 000-.68H7.21a2.174 2.174 0 00-2.17 2.095 8.746 8.746 0 01-1.826-5.044H4.85c.319 0 .562-.191.618-.486.017-.085.027-.185.039-.312.008-.083.016-.177.029-.286a6.469 6.469 0 011.869-3.846l.015-.018a6.512 6.512 0 014.587-1.883c1.773 0 3.394.71 4.576 1.871l.011.012a6.468 6.468 0 011.886 3.863c.013.115.022.212.03.297.011.121.02.217.036.3.057.297.3.488.62.488h1.62a8.745 8.745 0 01-1.798 5.005 2.174 2.174 0 00-2.168-2.055h-3.911a.34.34 0 000 .679h3.91c.824 0 1.493.67 1.493 1.492v.669A8.766 8.766 0 0112 20.792z" fill="#000"/>
  <path d="M20.132 3.868A11.426 11.426 0 0011.999.5c-2.444 0-4.778.756-6.75 2.187a.34.34 0 10.4.55 10.741 10.741 0 016.35-2.058c5.967 0 10.822 4.854 10.822 10.82 0 5.967-4.855 10.822-10.822 10.822-5.966 0-10.82-4.855-10.82-10.822 0-2.827 1.082-5.5 3.047-7.527A.34.34 0 103.74 4 11.433 11.433 0 00.5 12c0 3.071 1.196 5.96 3.368 8.132A11.424 11.424 0 0012 23.5c3.072 0 5.96-1.196 8.133-3.368a11.425 11.425 0 003.368-8.133c0-3.071-1.196-5.959-3.368-8.13z" fill="#000"/>
</svg>
