<svg width="24" height="24" fill="none" xmlns="http://www.w3.org/2000/svg">
  <defs/>
  <g fill-rule="evenodd" clip-rule="evenodd">
    <path d="M6.127 8.195h-4.41a.529.529 0 00-.528.529v2.754c0 .292.237.528.528.528h2.051c1.358-.202 2.561.14 2.886-1.522v-1.76a.529.529 0 00-.527-.529z" fill="#ACACAC"/>
    <path d="M12.088 8.603l.017 1.705 1.055.707.99-.773v-1.64a.789.789 0 00-.786-.785h-.49a.786.786 0 00-.786.786z" fill="#ECECEC"/>
    <path d="M16.233 6.493l1.197 3.642 1.709.799 1.395-.9c-.314-1.855-2.36-4.029-3.47-4.029h-.57c-.235 0-.35.218-.26.488z" fill="#A6E7F0"/>
    <path d="M1.79 12.006l.595 4.205.727.157.656-.377V12.006H1.789z" fill="#838383"/>
    <path d="M22.962 11.75h-10.11l-9.084.863v3.378l8.902 1.001 8.037-2.04c1.053-.882 1.932-2.037 2.255-3.202z" fill="#ECECEC"/>
    <path d="M3.768 15.99a4.896 4.896 0 00-1.383.221l-.15.053c-1.012.373-1.724 1.73-1.242 1.73h4.63l2.759-.74-1.602-1.002c-1.05-.107-2.054-.287-3.012-.261z" fill="#03BED7"/>
    <path d="M14.658 15.415c-2.984 1.364-5.233-.597-7.586.656a3.143 3.143 0 00-.292.181c-.115.08-.226.168-.333.262-.713.627-1.2 1.48-.825 1.48H22.86c.775 0 .05-2.099-2.152-3.043-1.412-.605-3.43-.736-6.05.464z" fill="#A6E7F0"/>
    <path d="M3.768 12.006H1.789l.11.78h1.107v3.275c.251-.04.504-.062.762-.07V12.006z" fill="#595959"/>
    <path d="M12.104 10.308l-5.45.176-1.839.06c-.77.025-1.047.599-1.047.861v1.208l19.194-.863c.093-.337.14-.675.132-1.007-.011-.442.01-.791-.355-.78l-2.205.072-3.104.1-3.28.107-2.046.066z" fill="#FFD659"/>
    <path d="M21.198 10.014c.364-.013.344.337.355.78.008.314-.034.635-.12.956-.003.017-.008.034-.012.05l-.006.02 1.547-.07c.093-.337.14-.675.132-1.007-.011-.442.009-.791-.355-.78l-1.54.051z" fill="#FFBF00"/>
    <path d="M21.416 11.82c-.28.993-.964 1.979-1.814 2.793.403.077.772.194 1.106.338 1.053-.881 1.931-2.036 2.255-3.2l-1.547.068z" fill="#CECECE"/>
    <path d="M19.602 14.613c-.819-.16-1.776-.163-2.873.086a5.27 5.27 0 011.731.822c1.406 1.032 1.794 2.474 1.151 2.474h3.25c.774 0 .05-2.1-2.152-3.044a5.386 5.386 0 00-1.107-.338zM20.534 10.034c-.314-1.855-2.359-4.029-3.47-4.029h-.57a.28.28 0 00-.215.09c1.144.344 2.857 2.291 3.143 3.976l1.112-.037z" fill="#6BD9E7"/>
    <path d="M12.787 7.822c.391.043.698.378.698.78v1.662l.666-.022v-1.64a.789.789 0 00-.787-.785h-.49a.647.647 0 00-.087.005z" fill="#CECECE"/>
    <path d="M5.876 8.724v1.786l.778-.026v-1.76a.529.529 0 00-.527-.529h-.778c.29 0 .527.237.527.529z" fill="#838383"/>
  </g>
  <path d="M22.41 15.665a5.227 5.227 0 00-1.097-.797c.995-.931 1.683-1.987 1.97-3.008a3.785 3.785 0 00.15-1.126l-.001-.09c-.007-.334-.014-.649-.233-.857a.629.629 0 00-.47-.163l-1.922.062c-.213-.846-.731-1.773-1.455-2.588-.798-.896-1.653-1.432-2.287-1.432h-.57a.616.616 0 00-.508.25c-.132.183-.16.432-.076.683l1.055 3.212-2.476.08V8.603c0-.62-.505-1.126-1.126-1.126h-.49a1.12 1.12 0 00-.801.335 1.106 1.106 0 00-.325.794l.014 1.373-4.769.155v-1.41a.868.868 0 00-.866-.868h-1.72a.34.34 0 100 .678h1.72c.103 0 .187.085.187.19v1.432l-1.51.049c-.938.03-1.376.734-1.376 1.2v.262H1.717a.189.189 0 01-.188-.19V8.725c0-.105.084-.19.188-.19H3.14a.34.34 0 100-.678H1.717a.868.868 0 00-.867.868v2.754c0 .4.272.736.64.837l.52 3.673c-.883.383-1.597 1.406-1.501 1.944a.473.473 0 00.484.402H22.86a.607.607 0 00.584-.387c.218-.544-.217-1.504-1.035-2.282zm-5.854-9.278a.294.294 0 01-.01-.042h.519c.806 0 2.559 1.71 3.045 3.364l-2.437.079-1.117-3.401zM12.427 8.6a.445.445 0 01.446-.443h.49c.247 0 .448.2.448.446v1.31l-1.37.044-.014-1.357zm-8.32 2.805c0-.077.133-.502.72-.522l7.273-.235h.008l.016-.001 2.021-.066H14.175l8.555-.278c.017.082.02.242.023.354l.002.094c.006.217-.017.442-.065.672l-11.372.51a.34.34 0 10.03.679l11.128-.5c-.34.835-.978 1.696-1.832 2.446a5.918 5.918 0 00-1.257-.327c-1.483-.22-3.122.075-4.87.875-1.447.662-2.72.492-3.951.328-1.187-.159-2.415-.322-3.653.338a3 3 0 00-.219.13 49.443 49.443 0 01-.751-.089c-.627-.077-1.238-.152-1.836-.163v-2.713l5.676-.255a.34.34 0 10-.03-.678l-5.646.254v-.853zm-.679 4.263c-.255.02-.51.056-.76.114l-.488-3.436h1.248v3.322zm-1.076.914c1.072-.395 2.255-.249 3.508-.095l.107.013c-.375.379-.679.808-.778 1.155H1.227c.14-.308.563-.866 1.125-1.073zm20.47 1.073H5.922c.203-.354.728-.973 1.312-1.284 1.045-.557 2.064-.422 3.243-.264 1.265.168 2.698.36 4.324-.383 2.643-1.21 4.527-.991 5.747-.474a4.653 4.653 0 011.446.956c.658.649.85 1.256.83 1.45z" fill="#000"/>
</svg>
