<svg width="24" height="24" fill="none" xmlns="http://www.w3.org/2000/svg">
  <defs/>
  <path d="M14.604 9.456a4.289 4.289 0 01-.808-1.116l-1.14 1.14a.464.464 0 000 .656l1.268 1.268a.465.465 0 00.657 0l1.139-1.14a4.294 4.294 0 01-1.116-.808z" fill="#BDBDBD"/>
  <path d="M14.755 9.6l-.99.989a.465.465 0 01-.656 0l-.453-.453 1.267 1.268a.465.465 0 00.658 0l1.139-1.14a4.26 4.26 0 01-.965-.664z" fill="#A3A3A3"/>
  <path d="M11.947 14.618c.807-2.239 1.769-3.04 1.991-3.202l-.014-.012-1.215-1.215c-.57.48-1.57 1.583-2.386 3.844-.745 2.07-2.06 2.89-4.02 2.89-4.199-.004-5.669 5.807-5.397 6.08.05.05.108.094.172.132.41.242 2.293-4.668 5.644-4.539 2.11.081 4.167-1.042 5.225-3.978z" fill="#E0E0E0"/>
  <path d="M13.328 10.807l-.619-.618.619.618zM13.924 11.404l-.583-.583c-.224.163-1.184.964-1.99 3.2-1.058 2.937-3.115 4.06-5.225 3.98-2.538-.098-4.233 2.693-5.085 3.949-.162.576-.202.985-.135 1.052.05.05.108.095.172.133.41.242 2.293-4.668 5.644-4.539 2.11.081 4.167-1.042 5.225-3.978.807-2.239 1.768-3.04 1.991-3.202l-.014-.012z" fill="#C9C9C9"/>
  <path d="M17.191 1.776c1.922-.93 4.14-1.239 5.236-.143 1.607 1.608.193 5.627-1.768 7.588-1.962 1.962-4.448 1.842-6.055.235-1.607-1.607-1.727-4.093.235-6.055.364-.364.8-.71 1.278-1.02 0 0 .526-.36 1.074-.605z" fill="#E0E0E0"/>
  <path d="M22.427 1.633a2.14 2.14 0 00-.648-.44c.83 1.863-.475 5.205-2.209 6.939s-3.878 1.841-5.463.732c.146.208.312.406.498.592 1.607 1.607 4.093 1.727 6.055-.235 1.961-1.961 3.375-5.98 1.767-7.588z" fill="#C9C9C9"/>
  <path d="M11.082 5.112c-1.012 1.011-2.294.95-3.123.12-.829-.828-.89-2.11.12-3.122 1.013-1.012 3.086-1.741 3.915-.912.829.829.1 2.902-.912 3.914z" fill="#E0E0E0"/>
  <path d="M11.994 1.198a1.19 1.19 0 00-.56-.305c.25.986-.39 2.525-1.217 3.353-.828.828-1.837.937-2.631.495.098.176.223.341.373.492.83.829 2.112.89 3.123-.121 1.012-1.012 1.741-3.085.912-3.914z" fill="#C9C9C9"/>
  <path d="M7.959 5.233a2.213 2.213 0 01-.418-.576l-.587.588a.24.24 0 000 .339l.654.653a.24.24 0 00.339 0l.587-.587a2.22 2.22 0 01-.575-.417z" fill="#BDBDBD"/>
  <path d="M5.436 9.51a2.498 2.498 0 01-1.542.437c-1.729-.066-2.7 2.466-2.912 2.341a.438.438 0 01-.088-.069c-.14-.14.618-3.137 2.784-3.136 1.01.001 1.689-.422 2.073-1.49.42-1.166.936-1.734 1.23-1.982l.627.626.008.007c-.115.083-.611.496-1.027 1.65a3.778 3.778 0 01-.567 1.057s-.27.374-.586.56zM21.85 15.981c-1.011 1.012-2.294.95-3.123.12-.828-.828-.89-2.11.122-3.122 1.011-1.012 3.084-1.74 3.913-.912.83.83.1 2.902-.912 3.914z" fill="#E0E0E0"/>
  <path d="M22.762 12.067c-.16-.16-.365-.26-.6-.314.224.988-.409 2.497-1.226 3.314-.817.817-1.81.933-2.6.511.102.188.232.365.392.524.829.83 2.11.89 3.123-.121 1.011-1.012 1.74-3.085.911-3.914z" fill="#C9C9C9"/>
  <path d="M18.727 16.102a2.215 2.215 0 01-.417-.575l-.587.587a.24.24 0 000 .34l.653.653a.24.24 0 00.339 0l.587-.588a2.215 2.215 0 01-.575-.417z" fill="#BDBDBD"/>
  <path d="M16.23 20.361a2.496 2.496 0 01-1.569.456c-1.728-.067-2.7 2.466-2.91 2.34a.452.452 0 01-.09-.068c-.14-.14.619-3.138 2.784-3.136 1.011 0 1.69-.422 2.074-1.49.42-1.166.936-1.735 1.23-1.983l.627.627.007.006c-.115.084-.61.497-1.027 1.651a3.782 3.782 0 01-.567 1.057s-.334.398-.559.54z" fill="#E0E0E0"/>
  <path d="M13.976 11.82c.325.12.636.026.841-.18l.973-.973c1.8.776 3.703.194 5.105-1.209 1.012-1.012 1.897-2.574 2.309-4.075 1.182-4.314-1.795-5.857-5.864-4.047a.336.336 0 10.273.613c1.957-.87 3.753-.901 4.575-.079 1.48 1.48.005 5.34-1.768 7.113-4.172 4.172-10.195-2.373-4.121-6.322a.336.336 0 00-.366-.563c-2.812 1.829-3.362 4.26-2.54 6.168l-.975.976a.785.785 0 00-.157.897c-.593.569-1.508 1.707-2.255 3.78-.7 1.943-1.887 2.653-3.708 2.667-3.126 0-4.693 2.967-5.223 4.243a8.595 8.595 0 00-.461 1.44c-.15.7-.108.919.291 1.155.267.157.508-.024.703-.267.686-.849 2.45-4.328 5.1-4.226 2.711.105 4.623-1.616 5.553-4.2.647-1.796 1.38-2.608 1.715-2.91zm-.256-2.93a4.618 4.618 0 001.398 1.408c.018.012.033.03.051.04-.827.797-.811.866-.918.866-.107 0-.068-.048-1.358-1.305a.129.129 0 01-.038-.091c0-.108.074-.097.865-.919zm-6.987 9.37c-2.566-.097-4.285 2.47-5.208 3.848-.093.14-.191.286-.28.412.138-.733.663-2.338 1.76-3.616.872-1.016 1.958-1.647 3.302-1.647 2.19 0 3.566-.988 4.33-3.11.693-1.922 1.519-2.97 2.06-3.495l.745.746c-.435.42-1.175 1.335-1.812 3.106-.904 2.509-2.644 3.844-4.897 3.757zM.997 12.63c.281 0 .469-.336.639-.589.42-.629 1.203-1.799 2.243-1.759a2.846 2.846 0 001.747-.496.336.336 0 10-.383-.551c-.388.269-.838.395-1.338.376-.984-.037-1.73.616-2.257 1.266.429-.796 1.128-1.484 2.031-1.458 1.19 0 1.972-.56 2.387-1.712.301-.838.65-1.34.91-1.626l.156.156c-.649.722-.804 1.534-1.097 2.078a.336.336 0 10.59.32c.333-.617.478-1.43 1.077-2.023.027.003.047.03.075.03.368 0 .49-.298.838-.6.994.372 1.969.041 2.703-.694 1.055-1.055 1.948-3.352.912-4.388-1.035-1.035-3.332-.145-4.388.912-.74.739-1.065 1.716-.695 2.703-.344.393-.679.51-.575.965-1.464 1.472-.847 3.179-2.898 3.207-1.71 0-2.558 1.6-2.843 2.289-.11.265-.198.539-.247.771-.063.294-.073.505.071.65.092.092.212.173.342.173zm7.32-10.283c.924-.925 2.797-1.553 3.438-.912.817.816-.433 4.066-2.308 4.091-1.34.022-2.588-1.722-1.13-3.18zm-.32 3.363l-.22.222-.518-.518.22-.221c.147.194.324.371.519.517zM22.998 11.83c-1.035-1.036-3.332-.145-4.389.911-.739.74-1.064 1.716-.694 2.704-.344.393-.679.51-.575.965-1.465 1.472-.847 3.178-2.898 3.207-1.71 0-2.558 1.6-2.844 2.289-.11.264-.197.538-.247.771-.078.368-.081.587.227.77.213.125.417.015.572-.176.36-.447 1.236-2.168 2.497-2.12a2.839 2.839 0 001.777-.517.336.336 0 10-.39-.546c-.393.28-.852.412-1.361.393-.985-.038-1.73.616-2.258 1.265.43-.795 1.128-1.484 2.032-1.458 1.19 0 1.971-.56 2.386-1.712.302-.837.65-1.34.911-1.626l.156.156c-.667.742-.8 1.554-1.13 2.136a.336.336 0 10.585.33c.366-.648.506-1.488 1.115-2.09.026.003.047.03.074.03.369 0 .491-.298.839-.6 2.844 1.065 5.044-3.653 3.615-5.083zm-4.233 4.75l-.22.221-.519-.518.221-.22c.144.19.32.368.518.517zm2.846-.837c-1.858 1.858-4.377-.677-2.527-2.527.928-.928 2.796-1.555 3.44-.912.638.639.017 2.51-.913 3.44z" fill="#000"/>
</svg>
