<svg width="24" height="24" fill="none" xmlns="http://www.w3.org/2000/svg">
  <defs/>
  <path d="M17.717 8.042l-3.928 1.902-9.19-1.901A2.427 2.427 0 001.73 9.928l-.843 4.075a2.427 2.427 0 001.884 2.867l9.19 1.901 2.852 3.304a.844.844 0 001.466-.38l2.631-12.722a.844.844 0 00-1.194-.931z" fill="#345863"/>
  <path d="M12.448 16.422l-9.19-1.901a2.426 2.426 0 01-1.888-2.85l-.482 2.332a2.427 2.427 0 001.884 2.867l9.19 1.901 2.852 3.304a.844.844 0 001.466-.38l.152-.735-3.984-4.538z" fill="#1E4751"/>
  <path d="M14.814 22.075l-2.851-3.304 1.826-8.827 3.928-1.902a.844.844 0 011.194.931l-2.63 12.722a.844.844 0 01-1.467.38z" fill="#EDEDED"/>
  <path d="M16.432 20.96l-3.983-4.538-.486 2.35 2.851 3.303a.844.844 0 001.466-.38l.152-.735z" fill="#D6D6D6"/>
  <path d="M7.105 12.895H4.519V2.324c0-.382.31-.693.692-.693h1.201c.383 0 .693.31.693.693v10.57z" fill="#EDEDED"/>
  <path d="M5.812 14.817a2.011 2.011 0 100-4.022 2.011 2.011 0 000 4.022z" fill="#FF9C43"/>
  <path d="M5.812 13.57a.764.764 0 100-1.528.764.764 0 000 1.528z" fill="#EDEDED"/>
  <g fill="#000">
    <path d="M23.46 10.676a.337.337 0 00-.457-.135l-3.754 2.04a.337.337 0 00.322.592l3.753-2.04a.337.337 0 00.135-.457zM18.579 17.897a.337.337 0 10-.533.413l2.616 3.377a.336.336 0 10.533-.413l-2.616-3.377zM22.115 15.829l-3.184-.669a.337.337 0 10-.139.66l3.185.668a.338.338 0 00.399-.26.337.337 0 00-.26-.4zM9.588 10.658l2.389.494a.337.337 0 00.137-.66l-2.39-.494a.337.337 0 00-.136.66zM9.041 11.527c-.037.183.08.36.262.398l2.389.494a.337.337 0 00.137-.66l-2.39-.493a.337.337 0 00-.398.261zM3.465 12.806a2.35 2.35 0 002.348 2.348 2.35 2.35 0 002.348-2.348c0-.662-.276-1.261-.718-1.689V2.324a1.03 1.03 0 00-1.03-1.03h-1.2a1.03 1.03 0 00-1.03 1.03v8.793a2.34 2.34 0 00-.718 1.689zm4.022 0c0 .923-.751 1.674-1.674 1.674a1.676 1.676 0 01-1.674-1.674c0-.923.75-1.674 1.674-1.674.923 0 1.674.75 1.674 1.674zM4.857 2.324c0-.196.16-.356.355-.356h1.202c.196 0 .355.16.355.356v8.337a2.335 2.335 0 00-1.912 0V2.324z"/>
    <path d="M5.812 11.705c-.607 0-1.101.494-1.101 1.1a1.102 1.102 0 002.202 0c0-.606-.494-1.1-1.101-1.1zm0 1.528a.428.428 0 110-.855.428.428 0 010 .855z"/>
    <path d="M18.811 7.87a1.174 1.174 0 00-1.24-.131L13.744 9.59 8.49 8.504a.337.337 0 00-.136.66l5.037 1.041-1.69 8.168-8.86-1.832a2.076 2.076 0 01-1.323-.9 2.076 2.076 0 01-.3-1.57l.843-4.075c.139-.673.6-1.234 1.234-1.502a.337.337 0 00-.263-.62 2.766 2.766 0 00-1.631 1.985l-.843 4.075c-.15.723-.008 1.461.397 2.078a2.745 2.745 0 001.75 1.188l9.078 1.878 2.777 3.217a1.173 1.173 0 001.19.372c.44-.114.769-.46.86-.904L19.242 9.04a1.174 1.174 0 00-.431-1.17zm-.23 1.035l-2.63 12.721a.498.498 0 01-.37.389.498.498 0 01-.511-.16l-2.743-3.178 1.758-8.502 3.779-1.83a.498.498 0 01.533.057c.156.121.225.31.185.503z"/>
  </g>
</svg>
