<svg width="24" height="24" fill="none" xmlns="http://www.w3.org/2000/svg">
  <defs/>
  <path d="M6.413 20.837H1.896V15.44c0-.18.146-.324.325-.324h3.868c.179 0 .324.145.324.324v5.397z" fill="#345863"/>
  <path d="M6.089 15.116H4.097v5.721h2.316V15.44a.324.324 0 00-.324-.324z" fill="#1E4751"/>
  <path d="M4.155 17.114a.568.568 0 100-1.136.568.568 0 000 1.136zM4.155 19.8a.938.938 0 100-1.875.938.938 0 000 1.876z" fill="#EDEDED"/>
  <g>
    <path d="M17.587 20.837h4.517V15.44a.324.324 0 00-.325-.324h-3.868a.324.324 0 00-.324.324v5.397z" fill="#345863"/>
    <path d="M21.78 15.115h-1.993v5.722h2.317V15.44a.324.324 0 00-.325-.325z" fill="#1E4751"/>
    <path d="M19.845 17.114a.568.568 0 100-1.136.568.568 0 000 1.136zM19.845 19.8a.938.938 0 100-1.875.938.938 0 000 1.876z" fill="#EDEDED"/>
  </g>
  <g>
    <path d="M22.683 22.404H1.317a.48.48 0 01-.48-.48v-.749a.48.48 0 01.48-.48h21.366a.48.48 0 01.48.48v.749a.48.48 0 01-.48.48z" fill="#F43B45"/>
    <path d="M22.683 20.695h-1.84v1.709h1.84a.48.48 0 00.48-.48v-.749a.48.48 0 00-.48-.48z" fill="#D82B2B"/>
    <path d="M22.564 5.233L12.183 1.627a.556.556 0 00-.365 0L1.438 5.233a.556.556 0 00-.375.526v.61c0 .307.25.556.557.556H22.38c.307 0 .556-.249.556-.556v-.61a.556.556 0 00-.373-.526z" fill="#A4D852"/>
    <path d="M22.564 5.233l-1.946-.676v.973a.467.467 0 01-.467.467H1.063v.372c0 .307.25.556.557.556H22.38a.556.556 0 00.556-.556v-.61a.556.556 0 00-.373-.526z" fill="#97C63E"/>
  </g>
  <g fill="#000">
    <path d="M4.155 17.451a.906.906 0 000-1.81.906.906 0 000 1.81zm0-1.136a.231.231 0 110 .463.231.231 0 010-.463zM4.155 20.138c.703 0 1.274-.572 1.274-1.275s-.571-1.275-1.274-1.275c-.703 0-1.275.572-1.275 1.275s.572 1.275 1.275 1.275zm0-1.876a.602.602 0 11-.002 1.203.602.602 0 01.002-1.203zM19.845 17.451a.906.906 0 000-1.81.906.906 0 000 1.81zm0-1.136a.231.231 0 110 .463.231.231 0 010-.463zM19.845 17.588c-.703 0-1.275.572-1.275 1.275s.572 1.275 1.275 1.275 1.275-.572 1.275-1.275-.572-1.275-1.275-1.275zm0 1.876a.602.602 0 11.002-1.203.602.602 0 01-.002 1.203z"/>
    <path d="M22.683 20.358h-.243V15.44a.662.662 0 00-.661-.661h-.639V7.262h1.24c.493 0 .894-.4.894-.893v-.61a.894.894 0 00-.6-.844l-4.795-1.666a.337.337 0 00-.22.637l4.794 1.665a.22.22 0 01.147.208v.61a.22.22 0 01-.22.22H1.62a.22.22 0 01-.22-.22v-.61a.22.22 0 01.147-.208l10.38-3.606a.221.221 0 01.145 0l4.31 1.497a.337.337 0 10.22-.636l-4.31-1.498a.897.897 0 00-.585 0L1.326 4.915a.894.894 0 00-.6.844v.61c0 .492.4.893.892.893h1.24v7.517h-.638a.662.662 0 00-.661.661v1.808a.337.337 0 10.674 0v-1.795h3.842v4.905H2.234v-1.76a.337.337 0 10-.674 0v1.76h-.243a.818.818 0 00-.817.817v.749c0 .45.367.817.817.817h21.366c.45 0 .817-.367.817-.817v-.749a.818.818 0 00-.817-.817zM20.466 7.262v1.424l-1.53-1.424h1.53zm-2.542 0h.022l2 1.86h-2.022v-1.86zm2.542 2.534v1.882l-2.022-1.882h2.022zm-2.542.437l2.022 1.881h-2.022v-1.881zm2.542 2.555v1.881l-2.022-1.88h2.022zm-2.542.437l1.67 1.554h-1.67v-1.554zm0 2.228h3.843v4.905h-3.843v-4.905zM6.75 7.262h10.5v13.096H6.75V7.262zm-.674 0v1.86H4.054l2-1.86h.022zm-2.542 0h1.53l-1.53 1.424V7.262zm0 2.534h2.022l-2.022 1.882V9.796zm2.542.437v1.881H4.054l2.022-1.881zm-2.542 2.555h2.022L3.534 14.67v-1.88zm.871 1.99l1.671-1.553v1.554h-1.67zm18.421 7.146a.143.143 0 01-.143.143H1.317a.143.143 0 01-.143-.143v-.749c0-.079.064-.143.143-.143h21.366c.079 0 .143.064.143.143v.749z"/>
  </g>
</svg>
