<svg width="24" height="24" fill="none" xmlns="http://www.w3.org/2000/svg">
  <defs/>
  <path d="M22.047 16.093c0-.617.5-1.116 1.116-1.116v-1.86a1.116 1.116 0 110-2.233v-1.86a1.116 1.116 0 110-2.233V4.827a.27.27 0 00-.27-.27h-2.008a1.116 1.116 0 11-2.233 0h-2.977a1.116 1.116 0 11-2.232 0h-2.931a1.116 1.116 0 11-2.233 0H5.302a1.116 1.116 0 11-2.233 0H1.106a.27.27 0 00-.27.27v1.964a1.116 1.116 0 110 2.232v1.86a1.116 1.116 0 110 2.233v1.86a1.116 1.116 0 010 2.233v1.963c0 .15.122.27.27.27H3.07a1.116 1.116 0 112.233 0H8.28a1.116 1.116 0 112.233 0h2.931a1.116 1.116 0 112.233 0h2.976a1.116 1.116 0 112.233 0h2.009a.27.27 0 00.27-.27V17.21c-.618 0-1.117-.5-1.117-1.116z" fill="#B6E3EE"/>
  <path d="M3.286 5.674c.16 0 .312-.034.45-.094a1.116 1.116 0 01-.667-1.022h-.9c0 .616.5 1.116 1.117 1.116zM13.66 5.674c.16 0 .312-.034.45-.094a1.116 1.116 0 01-.667-1.022h-.9c0 .616.5 1.116 1.117 1.116zM8.496 5.674c.16 0 .312-.034.45-.094a1.116 1.116 0 01-.667-1.022h-.9c0 .616.5 1.116 1.117 1.116zM18.87 5.674c.16 0 .311-.034.449-.094a1.116 1.116 0 01-.667-1.022h-.9c.001.616.5 1.116 1.117 1.116zM23.163 6.79V4.828a.27.27 0 00-.27-.27h-.899c.15 0 .27.122.27.27v1.72c0 .13-.094.24-.222.266a1.117 1.117 0 000 2.188.272.272 0 01.222.265v1.374c0 .131-.094.24-.222.266a1.117 1.117 0 000 2.188.272.272 0 01.222.265v1.374c0 .131-.094.24-.222.266a1.117 1.117 0 000 2.188.272.272 0 01.222.265v1.72a.27.27 0 01-.27.27h.9a.27.27 0 00.27-.27V17.21a1.116 1.116 0 110-2.232v-1.86a1.116 1.116 0 110-2.234v-1.86a1.116 1.116 0 110-2.232zM3.286 18.326c-.616 0-1.116.5-1.116 1.116h.9c0-.457.273-.849.666-1.022a1.113 1.113 0 00-.45-.094zM18.87 18.326c-.617 0-1.117.5-1.117 1.116h.9c0-.457.273-.849.666-1.022a1.113 1.113 0 00-.45-.094zM13.66 18.326c-.616 0-1.116.5-1.116 1.116h.9c0-.457.273-.849.666-1.022a1.113 1.113 0 00-.45-.094zM8.496 18.326c-.616 0-1.116.5-1.116 1.116h.9c0-.457.273-.849.666-1.022a1.113 1.113 0 00-.45-.094z" fill="#96D2E0"/>
  <path d="M20.66 17.21H3.34a.27.27 0 01-.27-.27V7.06c0-.149.121-.27.27-.27H20.66c.149 0 .27.121.27.27v9.88a.27.27 0 01-.27.27z" fill="#00BCE7"/>
  <path d="M20.66 17.21a.27.27 0 00.27-.27V15.72l-4.996-6.424a.27.27 0 00-.426 0L12 13.807v3.402h8.66z" fill="#00BA88"/>
  <path d="M8.492 9.297a.27.27 0 00-.426 0L3.07 15.72v1.219c0 .149.121.27.27.27h11.307L8.492 9.296z" fill="#00CE96"/>
  <path d="M11.173 12.744H9.135a.27.27 0 01-.19-.079l-.475-.474a.27.27 0 00-.382 0l-.474.474a.27.27 0 01-.19.08h-2.04l2.682-3.448a.27.27 0 01.426 0l2.681 3.447zM12.83 12.744h2.053a.27.27 0 00.19-.079l.475-.474a.27.27 0 01.381 0l.475.474c.05.05.119.08.19.08h2.022l-2.681-3.448a.27.27 0 00-.426.001l-2.679 3.446z" fill="#fff"/>
  <path d="M11.628 10.511a1.116 1.116 0 100-2.232 1.116 1.116 0 000 2.232z" fill="#FFD151"/>
  <g fill="#000">
    <path d="M13.081 9.395c0-.801-.652-1.453-1.453-1.453s-1.453.652-1.453 1.453c0 .802.652 1.453 1.453 1.453s1.453-.652 1.453-1.453zm-2.232 0a.78.78 0 011.558 0 .78.78 0 01-1.558 0z"/>
    <path d="M23.163 7.127c.186 0 .337-.15.337-.336V4.558a.337.337 0 00-.337-.337h-2.278a.337.337 0 00-.337.337.78.78 0 01-1.559 0 .337.337 0 00-.337-.337h-2.977a.337.337 0 00-.336.337.78.78 0 01-1.56 0 .337.337 0 00-.336-.337h-2.931a.337.337 0 00-.337.337.78.78 0 01-1.56 0 .337.337 0 00-.336-.337H5.302a.337.337 0 00-.337.337.78.78 0 01-1.559 0 .337.337 0 00-.337-.337H.837a.337.337 0 00-.337.337V6.79c0 .186.15.336.337.336a.78.78 0 010 1.56.337.337 0 00-.337.336v1.86c0 .187.15.338.337.338a.78.78 0 010 1.558.337.337 0 00-.337.337v1.86c0 .187.15.338.337.338a.78.78 0 010 1.559.337.337 0 00-.337.336v2.233c0 .186.15.337.337.337h2.232c.187 0 .337-.15.337-.337a.78.78 0 011.56 0c0 .186.15.337.336.337H8.28c.186 0 .337-.15.337-.337a.78.78 0 011.559 0c0 .186.15.337.337.337h2.93c.187 0 .338-.15.338-.337a.78.78 0 011.559 0c0 .186.15.337.337.337h2.976c.186 0 .337-.15.337-.337a.78.78 0 011.56 0c0 .186.15.337.336.337h2.278c.186 0 .337-.15.337-.337v-2.233a.337.337 0 00-.337-.337.78.78 0 010-1.558c.186 0 .337-.151.337-.337v-1.86a.337.337 0 00-.337-.338.78.78 0 010-1.559c.186 0 .337-.15.337-.336v-1.86a.337.337 0 00-.337-.338.78.78 0 010-1.559zm-.337 2.194v1.265A1.456 1.456 0 0021.71 12c0 .685.477 1.261 1.116 1.414v1.265a1.456 1.456 0 00-1.116 1.414c0 .685.477 1.262 1.116 1.414v1.598h-1.643a1.456 1.456 0 00-1.414-1.116c-.686 0-1.262.477-1.414 1.116h-2.382a1.456 1.456 0 00-1.414-1.116c-.685 0-1.261.477-1.414 1.116H10.81a1.456 1.456 0 00-1.414-1.116c-.685 0-1.261.477-1.414 1.116H5.6a1.456 1.456 0 00-1.414-1.116c-.686 0-1.262.477-1.414 1.116H1.174v-1.598a1.456 1.456 0 001.116-1.414c0-.685-.477-1.261-1.116-1.414v-1.265A1.456 1.456 0 002.29 12c0-.685-.477-1.261-1.116-1.414V9.321A1.456 1.456 0 002.29 7.907c0-.686-.477-1.262-1.116-1.414V4.895h1.598c.152.64.728 1.116 1.414 1.116.685 0 1.261-.477 1.414-1.116H7.98c.153.64.729 1.116 1.414 1.116.686 0 1.262-.477 1.414-1.116h2.336c.153.64.729 1.116 1.414 1.116.686 0 1.262-.477 1.414-1.116h2.382c.152.64.728 1.116 1.414 1.116.685 0 1.261-.477 1.413-1.116h1.644v1.598a1.456 1.456 0 00-1.116 1.414c0 .685.477 1.261 1.116 1.414z"/>
    <path d="M20.93 6.454H7.437a.337.337 0 000 .673h13.156v7.612l-4.606-5.923a.337.337 0 00-.532 0L12 13.258 8.545 8.816a.337.337 0 00-.532 0L3.406 14.74V7.127h2.685a.337.337 0 000-.673H3.069a.337.337 0 00-.337.337v10.418c0 .186.151.337.337.337H20.93c.186 0 .337-.15.337-.337V6.791a.337.337 0 00-.337-.337zm-5.21 3.118l2.206 2.835h-1.304l-.646-.645a.337.337 0 00-.477 0l-.645.645h-1.338l2.205-2.835zm-7.441 0l2.205 2.835H9.163l-.646-.645a.337.337 0 00-.476 0l-.646.645H6.074l2.205-2.835zm-4.873 7.3v-1.035L5.55 13.08h1.986c.089 0 .175-.035.238-.099l.506-.506.506.506a.337.337 0 00.238.1h1.985l2.214 2.846a.337.337 0 10.532-.414l-1.327-1.707.564-.726h2.003c.089 0 .175-.035.238-.099l.506-.506.506.506a.337.337 0 00.238.1h1.968l2.143 2.755v1.036H3.406z"/>
  </g>
</svg>
