<svg width="24" height="24" fill="none" xmlns="http://www.w3.org/2000/svg">
  <defs/>
  <path d="M13.877 14.858a2.906 2.906 0 00-.5-2.858H5.03v3.772L19.506 20l.994-2.732-6.623-2.41z" fill="#9AD7FF"/>
  <path d="M20.501 6.731L19.507 4 5.03 9.27a2.907 2.907 0 001.989 5.463l5.12-1.864a2.907 2.907 0 001.738-3.726l6.623-2.41z" fill="#4EB9FF"/>
  <path d="M6.025 12.757a.756.756 0 100-1.513.756.756 0 000 1.513z" fill="#174461"/>
  <g fill="#FFCE47">
    <path d="M19.974 1.106L2.755 7.373a1.416 1.416 0 00-.846 1.814l.391 1.075 19.88-7.235-.392-1.075a1.416 1.416 0 00-1.814-.846zM21.787 22.049l.392-1.075-19.88-7.236-.391 1.075a1.416 1.416 0 00.846 1.814l17.219 6.268a1.416 1.416 0 001.814-.846z"/>
  </g>
  <g fill="#01121C">
    <path d="M22.356 20.484l-2.182-.794 1.421-3.906a.52.52 0 00-.978-.356l-.427 1.174-5.683-2.069a3.448 3.448 0 00-.484-2.532 3.402 3.402 0 00.485-2.534l5.682-2.069.427 1.174a.52.52 0 00.978-.356L20.174 4.31l2.182-.794a.52.52 0 00.311-.667l-.391-1.075A1.938 1.938 0 0019.795.617L2.575 6.884A1.938 1.938 0 001.42 9.365l.39 1.075a.52.52 0 00.668.311l.422-.153a3.416 3.416 0 00-.002 2.803l-.42-.152a.52.52 0 00-.667.31l-.391 1.076a1.938 1.938 0 001.157 2.48l17.219 6.268a1.94 1.94 0 002.481-1.157l.391-1.075a.52.52 0 00-.311-.667zm-2.522-2.904l-.638 1.754-11.233-4.089-.416-.151 4.771-1.737c.356-.13.683-.313.97-.543.281.576.324 1.252.1 1.866a.52.52 0 00.312.667l6.134 2.233zM13.7 8.653a.52.52 0 00-.311.667c.218.599.19 1.247-.08 1.825a2.404 2.404 0 01-.347.542c-.264.31-.606.549-1 .692l-5.12 1.864a2.39 2.39 0 01-3.06-1.427 2.39 2.39 0 011.42-3.057l13.994-5.093.638 1.754L13.7 8.653zm-11.09.942l-.213-.586a.896.896 0 01.535-1.147L20.15 1.595a.896.896 0 011.147.535l.213.586L4.853 8.779l-.007.003-2.236.813zM21.298 21.87a.896.896 0 01-1.147.535L2.93 16.138a.896.896 0 01-.535-1.148l.214-.586 2.24.816h.003l16.658 6.064-.213.586z"/>
    <path d="M6.025 10.723c-.704 0-1.277.573-1.277 1.277s.573 1.277 1.277 1.277S7.3 12.704 7.3 12s-.572-1.277-1.276-1.277zm0 1.513a.236.236 0 110-.473.236.236 0 010 .473z"/>
  </g>
</svg>
