<svg width="24" height="24" fill="none" xmlns="http://www.w3.org/2000/svg">
  <defs/>
  <path d="M7.894 20.423l1.308-3.833 5.612-.157 1.403 3.99H7.894z" fill="#B1C6D3"/>
  <path d="M16.91 22.088H7.2a.668.668 0 01-.665-.666v-.333c0-.366.3-.666.666-.666h9.709c.366 0 .665.3.665.666v.333c0 .366-.3.666-.665.666z" fill="#BED8E4"/>
  <g fill="#8D93A4">
    <path d="M8.775 17.873h6.54l-.442-1.598-5.704.074-.394 1.524z"/>
    <path d="M23.14 12.776v3.738c0 .366-.3.666-.666.666H1.637a.668.668 0 01-.665-.666V2.688c0-.367.3-.666.665-.666h20.837c.366 0 .666.3.666.666V12.776z"/>
  </g>
  <path d="M12.973 10.471a.415.415 0 01-.293-.12L9.547 7.255a.416.416 0 11.584-.592l3.134 3.096a.416.416 0 01-.292.712z" fill="#FFE4A1"/>
  <g fill="#6BE8C7">
    <path d="M4.794 11.89a1.682 1.682 0 100-3.364 1.682 1.682 0 000 3.363zM8.921 7.265a1.185 1.185 0 100-2.37 1.185 1.185 0 000 2.37zM13.814 12.157a1.185 1.185 0 100-2.37 1.185 1.185 0 000 2.37z"/>
  </g>
  <path d="M23.14 14.147v2.368c0 .367-.3.666-.666.666H1.637a.668.668 0 01-.665-.666v-2.368H23.14z" fill="#BED8E4"/>
  <path d="M18.28 9.122a2.593 2.593 0 100-5.187 2.593 2.593 0 000 5.187z" fill="#6BE8C7"/>
  <path d="M.916 14.155V2.69c0-.366.3-.666.666-.666h.763v12.132H.916z" fill="#B1C6D3"/>
  <path d="M2.345 14.155v3.034h-.763a.674.674 0 01-.666-.674v-2.36h1.43z" fill="#EBF9FE"/>
  <path d="M23.255 14.155V2.69c0-.366-.3-.666-.666-.666h-.764v12.132h1.43z" fill="#707682"/>
  <path d="M21.825 14.155v3.034h.764a.674.674 0 00.666-.674v-2.36h-1.43z" fill="#B1C6D3"/>
  <path d="M23.084 10.974c.23 0 .416-.186.416-.416V2.633c0-.596-.485-1.082-1.082-1.082H1.582C.985 1.551.5 2.037.5 2.633V16.46c0 .596.485 1.082 1.082 1.082h6.785l-.826 2.41h-.395c-.597 0-1.082.485-1.082 1.081v.334c0 .596.485 1.081 1.082 1.081h9.708c.597 0 1.082-.485 1.082-1.081v-.334c0-.596-.485-1.081-1.082-1.081h-.395l-.826-2.41h6.785c.597 0 1.082-.486 1.082-1.082v-3.738a.416.416 0 00-.832 0v.89H1.332V2.633c0-.135.115-.25.25-.25h20.836c.136 0 .25.115.25.25v7.925c0 .23.186.416.416.416zm-5.98 10.06v.333c0 .135-.114.25-.25.25H7.146a.253.253 0 01-.25-.25v-.334c0-.135.114-.25.25-.25h9.708c.136 0 .25.115.25.25zm-1.525-1.082H8.421l.826-2.41h5.506l.826 2.41zm7.089-5.508v2.016c0 .135-.115.25-.25.25H1.582a.253.253 0 01-.25-.25v-2.016h21.336z" fill="#000"/>
  <path d="M20.379 8.178c.2.114.454.044.568-.155a3.149 3.149 0 10-5.886-1.559c0 .728.25 1.399.666 1.933L14.58 9.544a1.591 1.591 0 00-1.573-.04l-2.74-2.707a1.603 1.603 0 00-1.402-2.373 1.603 1.603 0 00-1.4 2.375L5.874 8.39a2.085 2.085 0 00-1.136-.335 2.1 2.1 0 00-2.097 2.097 2.1 2.1 0 002.097 2.098 2.1 2.1 0 002.098-2.098c0-.438-.135-.845-.366-1.182l1.573-1.573a1.59 1.59 0 001.647 0l2.709 2.675a1.603 1.603 0 001.36 2.445 1.603 1.603 0 001.4-2.374L16.32 8.98a3.132 3.132 0 002.504.572.416.416 0 10-.162-.816 2.319 2.319 0 01-2.768-2.273 2.319 2.319 0 012.316-2.316 2.32 2.32 0 012.014 3.462.416.416 0 00.155.568zm-15.64 3.24a1.267 1.267 0 01-1.266-1.266c0-.697.567-1.265 1.265-1.265s1.266.568 1.266 1.265c0 .698-.568 1.266-1.266 1.266zm3.358-5.393a.77.77 0 111.54.002.77.77 0 01-1.54-.002zm5.66 5.66a.77.77 0 11.003-1.539.77.77 0 01-.002 1.54z" fill="#000"/>
</svg>
