<svg width="24" height="24" fill="none" xmlns="http://www.w3.org/2000/svg">
  <defs/>
  <path d="M15.917 22.126H1.288a.459.459 0 01-.459-.46V2.334c0-.253.206-.459.46-.459h14.628c.254 0 .46.206.46.46v19.333a.459.459 0 01-.46.459z" fill="#968BC8"/>
  <path d="M15.883 1.874h-.675v18.59c0 .273-.22.494-.493.494H.83v.674c0 .273.221.494.493.494h14.56c.273 0 .494-.221.494-.494V2.368a.493.493 0 00-.493-.494z" fill="#8479BF"/>
  <path d="M20.44 18.82H8.807a2.73 2.73 0 01-2.73-2.731v-.004a2.73 2.73 0 012.73-2.73h11.631a2.73 2.73 0 012.731 2.73v.004a2.73 2.73 0 01-2.73 2.73z" fill="#FB850A"/>
  <path d="M20.438 13.354h-2.975a2.733 2.733 0 110 5.466h2.975a2.733 2.733 0 000-5.466z" fill="#FC7601"/>
  <path d="M21.167 10.672l.81-1.678a.31.31 0 00-.398-.398l-1.677.81-.612.295-.004.005-6.007 6.006 1.582 1.582 6.007-6.007.004-.004.295-.611z" fill="#F1E8E4"/>
  <path d="M21.978 8.994a.306.306 0 00-.045-.294.332.332 0 01-.055.162l-1.56 1.912-5.988 5.989.531.53 6.007-6.006.004-.004 1.106-2.289z" fill="#DFD1CB"/>
  <path d="M20.442 11.17a.447.447 0 01-.123-.396.447.447 0 01-.52-.52.447.447 0 01-.513-.548l-6.007 6.006 1.582 1.582 6.007-6.007a.447.447 0 01-.425-.117z" fill="#F3AA38"/>
  <path d="M20.442 11.17a.447.447 0 01-.123-.396.447.447 0 01-.52-.52.447.447 0 01-.513-.548l-6.007 6.006 1.582 1.582 6.007-6.007a.447.447 0 01-.425-.117z" fill="#F9C301"/>
  <path d="M14.33 16.763l.531.53 5.997-5.995-.007-.007a.446.446 0 01-.532-.517l-5.989 5.989z" fill="#E7B801"/>
  <path d="M21.564 9.85l.414-.856a.31.31 0 00-.399-.398l-.856.414.84.84z" fill="#968BC8"/>
  <path d="M21.992 8.936a.292.292 0 00.004-.029v-.016a.28.28 0 00-.017-.107l-.006-.015a.313.313 0 00-.011-.024l-.006-.012a.309.309 0 00-.022-.033.331.331 0 01-.056.162l-.585.718.271.27.414-.856a.33.33 0 00.012-.044l.003-.014z" fill="#8479BF"/>
  <path d="M12.595 9.558H4.612a.405.405 0 01-.405-.405V5.544c0-.223.181-.404.405-.404h7.983c.223 0 .404.18.404.404v3.61a.405.405 0 01-.404.404z" fill="#C0B9DF"/>
  <path d="M12.594 5.14h-.391v3.2a.422.422 0 01-.422.421H4.207v.392c0 .223.181.405.405.405h7.982A.405.405 0 0013 9.153V5.545a.405.405 0 00-.405-.405z" fill="#ABA2D5"/>
  <path d="M13.437 16.264h-1.755a.54.54 0 01-.54-.54v-3.06a.54.54 0 01.54-.539h1.755a.54.54 0 01.54.54v3.06a.54.54 0 01-.54.539z" fill="#F1E8E4"/>
  <path d="M13.437 12.125h-.832a.54.54 0 01.54.54v3.06a.54.54 0 01-.54.539h.832a.54.54 0 00.54-.54v-3.059a.54.54 0 00-.54-.54z" fill="#DFD1CB"/>
  <path d="M20.824 13.382v.488a.645.645 0 01-.645.644H9.07a.645.645 0 01-.646-.644v-.488a2.733 2.733 0 00.387 5.437h11.628a2.733 2.733 0 00.386-5.437z" fill="#FB9539"/>
  <path d="M21.783 13.709a2.733 2.733 0 01-2.38 4.076H7.777a2.72 2.72 0 01-1.344-.354 2.731 2.731 0 002.378 1.388h11.628a2.733 2.733 0 001.345-5.11z" fill="#FC7601"/>
  <path d="M.837 6.62c.186 0 .337-.15.337-.337V2.374c0-.086.07-.155.156-.155h14.55c.086 0 .156.07.156.155v8.311a.337.337 0 10.674 0v-8.31a.831.831 0 00-.83-.83H1.33a.831.831 0 00-.83.83v3.908c0 .186.151.337.337.337z" fill="#000"/>
  <path d="M4.617 4.807a.743.743 0 00-.742.742v3.606c0 .409.333.741.742.741h7.977a.743.743 0 00.742-.741V5.549a.743.743 0 00-.742-.742H4.617zm8.044.742v3.606c0 .037-.03.067-.067.067H4.617a.068.068 0 01-.068-.067V5.549c0-.037.03-.067.068-.067h7.977c.037 0 .067.03.067.067z" fill="#000"/>
  <path d="M23.496 15.935a3.078 3.078 0 00-3.064-2.92h-.822l1.49-1.489.004-.004a.335.335 0 00.066-.092l1.104-2.287a.642.642 0 00-.137-.71.642.642 0 00-.71-.138l-2.288 1.104a.337.337 0 00-.09.064l-.005.005h-.001l-3.548 3.548h-1.182v-.351a.878.878 0 00-.877-.877h-1.753a.878.878 0 00-.877.877v.351H8.812a3.077 3.077 0 00-3.068 3.068c0 .757.277 1.45.733 1.986a3.062 3.062 0 002.335 1.082h7.224v2.474c0 .086-.07.155-.156.155H1.33a.156.156 0 01-.156-.155V7.817a.337.337 0 10-.674 0v13.809c0 .457.372.83.83.83h14.55c.458 0 .83-.373.83-.83v-2.474h3.722c.553 0 1.096-.15 1.568-.43a.337.337 0 00-.345-.58 2.39 2.39 0 01-1.223.336H8.812a2.396 2.396 0 01-2.372-2.711 2.412 2.412 0 011.295-1.82c.147-.074.274-.119.354-.079 0 .542.44.982.981.982h11.104c.541 0 .981-.44.981-.982.08-.04.207.005.354.08a2.412 2.412 0 011.317 2.136c0 .38-.086.742-.256 1.078a.337.337 0 10.602.304 3.036 3.036 0 00.324-1.53zm-5.999-1.76H15.29l3.838-3.838c.01.011.02.023.032.034a.784.784 0 00.324.194.784.784 0 00.52.52.784.784 0 00.228.356l-2.735 2.734zm2.756-3.732a.109.109 0 01-.127-.127.337.337 0 00-.392-.392.11.11 0 01-.087-.021l1.322-.639.336.336-.639 1.322a.11.11 0 01-.02-.087.337.337 0 00-.393-.392zm-5.432 3.247l-.485.485h-.023v-.485h.508zm-3.34-1.025c0-.112.09-.202.202-.202h1.753c.112 0 .202.09.202.202v1.51h-2.157v-1.51zm-2.718 1.203v-.176l.05-.002h1.993v.485H9.07a.307.307 0 01-.307-.307zm11.718 0c0 .17-.138.307-.307.307H18.45l.485-.485h1.496l.05.002v.176h-.001zM10.378 6.246H6.732a.337.337 0 100 .674h3.646a.337.337 0 100-.674z" fill="#000"/>
  <path d="M10.378 7.629H6.732a.337.337 0 100 .674h3.646a.337.337 0 100-.674z" fill="#000"/>
</svg>
