<svg width="24" height="24" fill="none" xmlns="http://www.w3.org/2000/svg">
  <defs>
    <path d="M11.846 1.581v8.99a1.43 1.43 0 01.898.2V1.58A.744.744 0 0011.551.99c.179.136.295.35.295.592zM12 13.438c-.052 0-.104-.003-.154-.009v8.99a.742.742 0 01-.295.592.744.744 0 001.193-.592V13.23a1.43 1.43 0 01-.744.208z" id="reuse-1"/>
    <path d="M12 10.563c.273 0 .527.075.744.207V1.581a.744.744 0 10-1.488 0v9.189c.217-.132.472-.207.744-.207zM12 13.438a1.43 1.43 0 01-.744-.208v9.189a.744.744 0 101.488 0V13.23a1.43 1.43 0 01-.744.208z" id="reuse-0"/>
  </defs>
  <g fill="#985335">
    <use xlink:href="#reuse-0"/>
  </g>
  <g fill="#87462A">
    <use xlink:href="#reuse-1"/>
  </g>
  <g fill="#985335">
    <use xlink:href="#reuse-0"/>
  </g>
  <g fill="#87462A">
    <use xlink:href="#reuse-1"/>
  </g>
  <g fill="#985335">
    <path d="M10.984 10.983a1.43 1.43 0 01.673-.38L5.159 4.107A.744.744 0 104.107 5.16l6.497 6.497c.06-.246.187-.48.38-.673zM13.017 13.016a1.43 1.43 0 01-.673.38l6.497 6.497a.744.744 0 101.053-1.052l-6.498-6.498a1.43 1.43 0 01-.38.673z"/>
  </g>
  <g fill="#87462A">
    <path d="M4.524 4.742l6.357 6.356a1.43 1.43 0 01.776-.495L5.159 4.107a.744.744 0 00-1.263.425c.223-.03.457.04.628.21zM13.016 13.016a1.46 1.46 0 01-.115.103l6.357 6.357c.171.171.24.405.21.628a.744.744 0 00.425-1.263l-6.497-6.498c-.06.247-.187.48-.38.673z"/>
  </g>
  <g fill="#985335">
    <path d="M10.563 12c0-.272.075-.527.207-.744H1.58a.744.744 0 100 1.488h9.189a1.431 1.431 0 01-.207-.744zM13.438 12c0 .272-.076.527-.208.744h9.19a.744.744 0 000-1.488h-9.19c.132.217.208.471.208.744z"/>
  </g>
  <g fill="#87462A">
    <path d="M1.581 12.154h8.99a1.431 1.431 0 01.199-.898H1.58a.744.744 0 00-.592 1.193.742.742 0 01.592-.295zM13.438 12c0 .052-.003.103-.008.154h8.99c.241 0 .456.116.591.295a.744.744 0 00-.592-1.193H13.23c.132.217.208.471.208.744z"/>
  </g>
  <g fill="#985335">
    <path d="M10.984 13.016a1.43 1.43 0 01-.38-.673l-6.497 6.498a.744.744 0 101.052 1.052l6.498-6.497a1.43 1.43 0 01-.673-.38zM13.017 10.983c.192.193.319.427.38.673l6.497-6.497a.744.744 0 10-1.053-1.053l-6.497 6.498c.246.06.48.187.673.38z"/>
  </g>
  <g fill="#87462A">
    <path d="M4.742 19.476l6.357-6.357a1.444 1.444 0 01-.495-.776l-6.497 6.498a.744.744 0 00.425 1.263.742.742 0 01.21-.628zM13.017 10.983c.037.037.07.076.103.115l6.356-6.356a.742.742 0 01.628-.21.744.744 0 00-1.263-.425l-6.497 6.497c.246.06.48.187.673.38z"/>
  </g>
  <g>
    <path d="M12 3.814a8.186 8.186 0 100 16.372 8.186 8.186 0 000-16.372zm0 14.884a6.698 6.698 0 110-13.396 6.698 6.698 0 010 13.396z" fill="#FFD151"/>
  </g>
  <g>
    <path d="M12 9.767a2.233 2.233 0 100 4.466 2.233 2.233 0 000-4.466zm0 2.977a.744.744 0 110-1.488.744.744 0 010 1.488z" fill="#FFD151"/>
  </g>
  <g>
    <path d="M12 3.814a8.28 8.28 0 00-.382.009 8.186 8.186 0 010 16.354A8.186 8.186 0 1012 3.814z" fill="#F79B4A"/>
  </g>
  <g>
    <path d="M12 9.767c-.13 0-.258.012-.382.034a2.233 2.233 0 010 4.398A2.233 2.233 0 1012 9.767z" fill="#F79B4A"/>
  </g>
  <g fill="#000">
    <path d="M10.919 12c0 .596.485 1.081 1.081 1.081s1.081-.485 1.081-1.081-.485-1.081-1.081-1.081-1.081.485-1.081 1.081zm1.488 0a.408.408 0 11-.815-.001.408.408 0 01.815.001z"/>
    <path d="M22.419 10.919h-1.964a8.482 8.482 0 00-1.715-4.13l1.392-1.392a1.082 1.082 0 00-1.53-1.529L17.212 5.26a8.482 8.482 0 00-4.13-1.715V1.581a1.082 1.082 0 00-2.162 0v1.964a8.473 8.473 0 00-1.546.345.337.337 0 10.207.64 7.845 7.845 0 013.147-.345c3.989.368 7.122 3.732 7.122 7.815a7.883 7.883 0 01-.034.727A7.862 7.862 0 0112 19.85c-4.083 0-7.447-3.134-7.815-7.122A7.83 7.83 0 015.937 7.01L5.948 7a.337.337 0 00.047-.06 7.835 7.835 0 012.377-1.904.337.337 0 00-.311-.597c-.454.237-.88.51-1.276.816L5.397 3.868a1.074 1.074 0 00-.764-.316c-.29 0-.56.112-.765.316a1.074 1.074 0 00-.316.765c0 .289.112.56.316.764l1.387 1.387a8.491 8.491 0 00-1.71 4.135H1.581a1.082 1.082 0 000 2.162h1.964a8.482 8.482 0 001.715 4.13l-1.392 1.392a1.074 1.074 0 00-.316.764c0 .29.112.56.316.765.204.204.476.316.765.316.289 0 .56-.112.764-.316L6.79 18.74a8.482 8.482 0 004.13 1.715v1.964a1.082 1.082 0 002.162 0v-1.964a8.482 8.482 0 004.13-1.715l1.392 1.392c.204.204.475.316.764.316a1.082 1.082 0 00.764-1.846l-1.391-1.391a8.482 8.482 0 001.715-4.13h1.964a1.082 1.082 0 000-2.162zm-3.34-6.574a.404.404 0 01.576 0 .405.405 0 010 .576l-1.35 1.35a8.596 8.596 0 00-.576-.576l1.35-1.35zm-7.486-.858V1.58a.408.408 0 01.814 0v1.906a8.624 8.624 0 00-.814 0zM4.345 4.92a.405.405 0 010-.576.404.404 0 01.576 0L6.266 5.69a8.506 8.506 0 00-.576.576L4.345 4.92zM1.58 12.407a.408.408 0 010-.814h1.906a8.64 8.64 0 000 .814H1.58zm3.34 7.248a.405.405 0 01-.576 0 .404.404 0 010-.576l1.35-1.35c.183.201.375.393.576.576l-1.35 1.35zm7.486 2.764a.408.408 0 01-.814 0v-1.906a8.597 8.597 0 00.814 0v1.906zm7.248-3.34a.408.408 0 01-.576.576l-1.35-1.35c.201-.183.393-.375.576-.576l1.35 1.35zm2.764-6.672h-1.906a8.597 8.597 0 000-.814h1.906a.408.408 0 010 .814z"/>
    <path d="M7.58 6.528l-.008.01c-.38.308-.727.655-1.035 1.035l-.009.008a.338.338 0 00-.052.067 7.001 7.001 0 00-1.466 5.147 7.001 7.001 0 001.466 3.557.337.337 0 00.052.067l.01.009c.308.38.654.726 1.034 1.034l.008.01c.021.02.044.037.068.052a7.002 7.002 0 005.147 1.466 7.001 7.001 0 003.556-1.466.339.339 0 00.068-.052l.008-.01c.38-.308.727-.655 1.035-1.034l.01-.009a.337.337 0 00.051-.067 7 7 0 001.466-5.15 7.001 7.001 0 00-1.466-3.554.335.335 0 00-.052-.067l-.009-.008a7.094 7.094 0 00-1.035-1.035l-.008-.01a.333.333 0 00-.067-.051 7.002 7.002 0 00-5.15-1.466 7.001 7.001 0 00-3.554 1.466.329.329 0 00-.068.051zm9.194 1.274l-2.694 2.693a2.59 2.59 0 00-.576-.576l2.694-2.693c.204.18.396.372.576.576zm1.494 3.117H14.61l2.585-2.585c.536.757.91 1.635 1.073 2.585zm-1.073 4.747l-2.585-2.585h3.658a6.328 6.328 0 01-1.073 2.585zm-.997 1.108l-2.694-2.693c.222-.16.416-.355.576-.576l2.694 2.693c-.18.204-.372.397-.576.576zm-.532.421a6.327 6.327 0 01-2.585 1.074V14.61l2.585 2.585zm-1.13-4.788a2.567 2.567 0 000-.814h3.811a6.463 6.463 0 010 .814h-3.81zM13.082 9.39V5.731c.95.164 1.828.538 2.585 1.074L13.081 9.39zm.814 2.61c0 1.045-.85 1.896-1.895 1.896A1.898 1.898 0 0110.104 12c0-1.045.85-1.896 1.896-1.896 1.045 0 1.895.85 1.895 1.896zm-6.67 4.198l2.694-2.693c.16.221.355.415.576.576L7.8 16.774a6.418 6.418 0 01-.576-.576zm-1.494-3.117H9.39l-2.586 2.585a6.328 6.328 0 01-1.073-2.585zm1.073-4.747l2.586 2.585H5.73a6.328 6.328 0 011.074-2.585zm2.659 3.259a2.575 2.575 0 000 .814H5.652a6.403 6.403 0 010-.814h3.81zm1.456 3.017v3.659a6.327 6.327 0 01-2.586-1.074l2.585-2.585zm-.424-4.69c-.221.16-.416.354-.576.575L7.225 7.802c.18-.204.372-.397.576-.576l2.694 2.693zM8.333 6.804a6.327 6.327 0 012.585-1.074V9.39L8.334 6.805zm3.26 11.543v-3.811a2.568 2.568 0 00.814 0v3.81a6.39 6.39 0 01-.815 0zm.814-12.696v3.811a2.575 2.575 0 00-.815 0v-3.81a6.433 6.433 0 01.815 0z"/>
  </g>
</svg>
