<svg width="24" height="24" fill="none" xmlns="http://www.w3.org/2000/svg">
  <defs/>
  <path d="M14.67 4.768H9.32a8.426 8.426 0 000 16.852h5.35a8.426 8.426 0 000-16.852z" fill="#CFDCE5"/>
  <path d="M9.32 19.837a6.65 6.65 0 01-6.643-6.643 6.65 6.65 0 016.642-6.642h5.35a6.65 6.65 0 016.643 6.642 6.65 6.65 0 01-6.643 6.643H9.32z" fill="#4EBFED"/>
  <path d="M22.528 9.163a8.903 8.903 0 00-2.596-3.058.4.4 0 00-.476.64 8.101 8.101 0 012.362 2.783 7.94 7.94 0 01.884 3.666c0 4.426-3.6 8.027-8.027 8.027h-5.35c-4.426 0-8.027-3.6-8.027-8.027 0-4.426 3.6-8.027 8.027-8.027h.43v.986h-.43a7.05 7.05 0 00-7.042 7.041c0 2.014.868 3.937 2.382 5.275a.399.399 0 00.529-.598 6.25 6.25 0 01-2.113-4.677 6.25 6.25 0 016.244-6.243h.43v2.16a.399.399 0 00.797 0v-.316h3.825v1.36a8.477 8.477 0 00-.068.034c-.293.144-.546.268-1.082.268s-.79-.124-1.082-.268c-.334-.165-.713-.35-1.434-.35-.722 0-1.1.185-1.435.35-.293.144-.546.268-1.082.268s-.79-.124-1.082-.268c-.334-.165-.712-.35-1.434-.35a.399.399 0 000 .797c.536 0 .789.125 1.082.269.334.164.712.35 1.434.35s1.1-.186 1.434-.35c.293-.144.546-.269 1.083-.269.536 0 .789.125 1.082.269.334.164.712.35 1.434.35s1.1-.186 1.434-.35c.293-.144.546-.269 1.083-.269.536 0 .789.125 1.082.269.334.164.712.35 1.434.35a.399.399 0 000-.798c-.536 0-.789-.124-1.082-.268-.334-.165-.712-.35-1.434-.35-.219 0-.406.017-.57.045V6.97a6.252 6.252 0 015.745 6.223 6.25 6.25 0 01-6.244 6.244h-5.35a6.235 6.235 0 01-3.06-.802.399.399 0 10-.392.695 7.034 7.034 0 003.452.905h5.35a7.05 7.05 0 007.042-7.042c0-3.715-2.892-6.766-6.542-7.023v-.988a8.03 8.03 0 013.326.953.399.399 0 10.38-.701 8.832 8.832 0 00-3.707-1.051V3.48c0-.827-.672-1.5-1.5-1.5-.826 0-1.499.673-1.499 1.5a.399.399 0 00.798 0 .702.702 0 011.403 0v.89h-3.824v-.89a1.501 1.501 0 00-2.56-1.06 1.49 1.49 0 00-.44 1.06.399.399 0 00.799 0 .697.697 0 01.701-.702c.387 0 .702.315.702.702v.89h-.43C4.46 4.37.5 8.327.5 13.193c0 4.867 3.959 8.825 8.825 8.825h5.35c4.866 0 8.825-3.958 8.825-8.825a8.73 8.73 0 00-.972-4.03zM10.552 7.997V6.95h3.825v1.046h-3.825zm3.825-2.83v.986h-3.825v-.986h3.825z" fill="#000"/>
  <path d="M18.26 14.893c-.536 0-.79-.124-1.082-.268-.334-.164-.713-.35-1.435-.35-.722 0-1.1.186-1.434.35a.399.399 0 10.352.716c.293-.144.546-.268 1.082-.268.537 0 .79.124 1.083.268.334.164.712.35 1.434.35a.4.4 0 000-.798zM5.678 15.073c.537 0 .79.124 1.082.268.334.164.713.35 1.435.35.722 0 1.1-.186 1.434-.35.293-.144.546-.268 1.082-.268s.79.124 1.082.268c.334.164.713.35 1.434.35a.4.4 0 000-.798c-.536 0-.789-.124-1.082-.268-.333-.164-.712-.35-1.434-.35s-1.1.186-1.434.35c-.293.144-.546.268-1.082.268-.537 0-.79-.124-1.082-.268-.334-.164-.713-.35-1.435-.35a.399.399 0 100 .798zM18.26 12.675c-.536 0-.789-.124-1.082-.268-.334-.165-.712-.35-1.434-.35s-1.1.186-1.435.35c-.293.144-.546.268-1.082.268s-.79-.124-1.082-.268c-.334-.165-.713-.35-1.434-.35-.722 0-1.1.185-1.435.35l-.024.012a.4.4 0 00.351.716l.026-.012c.292-.144.545-.269 1.082-.269.536 0 .789.125 1.082.269.334.164.712.35 1.434.35s1.1-.186 1.434-.35c.293-.144.546-.269 1.083-.269.536 0 .79.125 1.082.269.334.164.712.35 1.434.35a.399.399 0 000-.798zM5.678 12.854c.537 0 .79.125 1.082.269.334.164.713.35 1.435.35a.4.4 0 000-.798c-.537 0-.79-.124-1.082-.268-.334-.164-.713-.35-1.435-.35a.399.399 0 100 .797z" fill="#000"/>
</svg>
