<svg width="24" height="24" fill="none" xmlns="http://www.w3.org/2000/svg">
  <defs/>
  <path d="M5.56 3.886h-.433a.62.62 0 01-.621-.62V1.568a.62.62 0 01.62-.62h.435a1.469 1.469 0 110 2.937z" fill="#5B9ED6"/>
  <path d="M5.562 3.265V1.57a.62.62 0 01.377-.571 1.47 1.47 0 00-.378-.05h-.434a.62.62 0 00-.621.62v1.697c0 .343.278.62.62.62h.435c.13 0 .258-.017.378-.049a.62.62 0 01-.377-.57z" fill="#487CA8"/>
  <path d="M11.378 3.886h.434a.62.62 0 00.62-.62V1.568a.62.62 0 00-.62-.62h-.434a1.469 1.469 0 100 2.937z" fill="#5B9ED6"/>
  <path d="M11.812.948h-.434a1.47 1.47 0 00-.393.054.62.62 0 01.37.567v1.696a.62.62 0 01-.37.567c.125.035.257.054.393.054h.434a.62.62 0 00.62-.62V1.568a.62.62 0 00-.62-.62z" fill="#487CA8"/>
  <path d="M19.195 10.627c-1.265.288-2.571 1.514-2.568 3.148.003 1.691 1.408 3.212 3.212 3.212 1.803 0 3.216-1.518 3.213-3.212-.004-1.461-1.06-2.785-2.569-3.148a2.99 2.99 0 00-1.288 0z" fill="#BDBDBD"/>
  <path d="M20.484 10.627a2.975 2.975 0 00-1.288 0 3.207 3.207 0 00-.232.057 3.213 3.213 0 010 6.18 3.212 3.212 0 101.52-6.238z" fill="#949494"/>
  <path d="M20.934 13.775a1.094 1.094 0 11-2.188 0 1.094 1.094 0 012.188 0z" fill="#636363"/>
  <path d="M9.126 13.202h1.445a3.171 3.171 0 003.143-2.775l.428-3.44a.91.91 0 111.806.226l-.428 3.439a4.994 4.994 0 01-4.949 4.37H9.362v1.731a.91.91 0 01-1.82 0v-1.73h-1.21a4.994 4.994 0 01-4.949-4.371l-.428-3.44a.91.91 0 011.807-.224l.428 3.439a3.171 3.171 0 003.142 2.775h2.794z" fill="#BDBDBD"/>
  <path d="M18.46 13.79c0 .795.646 1.442 1.44 1.442.795 0 1.441-.647 1.441-1.441 0-.795-.646-1.44-1.44-1.44-.795 0-1.441.645-1.441 1.44zm2.207 0a.768.768 0 01-1.533 0 .767.767 0 011.533 0z" fill="#000"/>
  <path d="M22.91 11.828a.337.337 0 00-.562.372c1.241 1.875-.033 4.495-2.465 4.495-2.525 0-3.838-3.123-2.013-4.949a2.912 2.912 0 013.654-.37.337.337 0 00.372-.562c-2.364-1.565-5.55.135-5.55 2.986a3.577 3.577 0 003.2 3.559v1.89a3.57 3.57 0 01-3.565 3.567h-3.67a3.57 3.57 0 01-3.565-3.566v-1.245c.529-.147.918-.633.918-1.209v-1.409h.884a5.377 5.377 0 005.328-4.706l.432-3.47a1.255 1.255 0 00-.76-1.313V4.015a2.024 2.024 0 00-2.021-2.022h-.764v-.525a.959.959 0 00-.958-.958h-.457c-.996 0-1.806.81-1.806 1.806v.027c0 .996.81 1.806 1.806 1.806h.457c.528 0 .958-.43.958-.958v-.524h.764a1.35 1.35 0 011.347 1.348v1.8A1.258 1.258 0 0013.816 6.9l-.432 3.47a2.863 2.863 0 01-2.836 2.506h-1.46a.337.337 0 100 .674h1.46a3.537 3.537 0 003.505-3.096l.432-3.47a.582.582 0 011.154.143l-.432 3.47a4.702 4.702 0 01-4.66 4.116h-1.22a.337.337 0 00-.337.337v1.746a.582.582 0 01-1.163 0V15.05a.337.337 0 00-.337-.337H6.27a4.702 4.702 0 01-4.66-4.115l-.432-3.47a.582.582 0 011.155-.144l.432 3.47A3.537 3.537 0 006.27 13.55h1.459a.337.337 0 000-.674h-1.46a2.863 2.863 0 01-2.836-2.505L3.001 6.9A1.255 1.255 0 001.98 5.82V4.015a1.35 1.35 0 011.348-1.348h.763v.524c0 .528.43.958.958.958h.457c.996 0 1.806-.81 1.806-1.806v-.027c0-.996-.81-1.806-1.806-1.806h-.457a.959.959 0 00-.958.958v.525h-.763a2.024 2.024 0 00-2.022 2.021v1.87A1.258 1.258 0 00.51 7.21l.432 3.47a5.377 5.377 0 005.328 4.707h.883v1.41c0 .575.39 1.06.919 1.209v1.244a4.244 4.244 0 004.24 4.24h3.669a4.244 4.244 0 004.24-4.24v-1.884a3.552 3.552 0 002.233-1.035 3.589 3.589 0 00.456-4.503zM12.09 3.19a.284.284 0 01-.284.284h-.457a1.133 1.133 0 01-1.132-1.132v-.027c0-.624.508-1.132 1.132-1.132h.457c.157 0 .284.128.284.284v1.723zM4.764 1.468c0-.156.128-.284.284-.284h.458c.624 0 1.131.508 1.131 1.132v.027c0 .624-.507 1.132-1.131 1.132h-.458a.284.284 0 01-.284-.284V1.468z" fill="#000"/>
</svg>
