<svg width="24" height="24" fill="none" xmlns="http://www.w3.org/2000/svg">
  <defs/>
  <path d="M22.569 9.014L14.23 14.23 9.015 22.57c.949.267 1.95.41 2.985.41 6.064 0 10.98-4.915 10.98-10.979 0-1.035-.143-2.037-.411-2.986z" fill="#FFEBB4"/>
  <path d="M12 1.02C5.936 1.02 1.02 5.936 1.02 12c0 5.03 3.382 9.268 7.995 10.569L22.569 9.014C21.269 4.401 17.029 1.02 12 1.02z" fill="#FF9356"/>
  <path d="M22.569 9.014L9.014 22.568c-.267-.949-.41-1.95-.41-2.986 0-6.064 4.915-10.98 10.98-10.98 1.034 0 2.035.144 2.985.412z" fill="#FFB14E"/>
  <path d="M20.132 3.868A11.425 11.425 0 0012 .5C8.928.5 6.04 1.696 3.868 3.868A11.424 11.424 0 00.5 12c0 3.072 1.196 5.96 3.368 8.132A11.424 11.424 0 0012 23.5c3.072 0 5.96-1.196 8.132-3.368A11.425 11.425 0 0023.5 12c0-3.072-1.196-5.96-3.368-8.132zM1.54 12C1.54 6.233 6.233 1.54 12 1.54c4.462 0 8.28 2.81 9.78 6.752-.72-.139-1.456-.21-2.197-.21-3.071 0-5.96 1.197-8.131 3.369a11.425 11.425 0 00-3.369 8.131c0 .741.071 1.477.21 2.198-3.943-1.5-6.752-5.317-6.752-9.78zm7.583 7.582c0-5.767 4.692-10.459 10.46-10.459.66 0 1.314.062 1.957.183L9.307 21.54a10.53 10.53 0 01-.183-1.957zM12 22.46c-.668 0-1.322-.064-1.956-.184l12.231-12.231c.12.634.184 1.287.184 1.956 0 5.767-4.692 10.46-10.459 10.46z" fill="#01121C"/>
</svg>
