<svg width="24" height="24" fill="none" xmlns="http://www.w3.org/2000/svg">
  <defs/>
  <g fill-rule="evenodd" clip-rule="evenodd">
    <path d="M2.155 13.748c-1 0-1.152.914-.937 1.787.643 2.617 2.764 4.81 5.48 5.983.315.955 8.768.995 9.118.023 2.74-1.167 4.886-3.37 5.535-6.006.215-.873.062-1.787-.938-1.787H2.155z" fill="#F78411"/>
    <path d="M8.889 13.748H4.743v1.753a1.3 1.3 0 001.407 1.291 1.796 1.796 0 001.68 1.171 1.798 1.798 0 001.79-1.792v-2.423H8.89z" fill="#FFDDA6"/>
    <path d="M15.332 21.303h-8.17a.608.608 0 00-.465.215.606.606 0 00-.146.396v.636c0 .336.275.61.61.61h8.17c.337 0 .61-.274.61-.61v-.636c0-.14-.046-.27-.125-.373a.613.613 0 00-.484-.238z" fill="#E6E6E6"/>
    <path d="M21.618 5.316c3.362-2.682-.85-6.635-3.362-3.032l-3.014 4.323.296 1.435 1.89.616 4.19-3.342z" fill="#50D960"/>
    <path d="M17.429 8.658l-2.186-2.051-.733-.688a.857.857 0 00-1.206.039.857.857 0 00.028 1.196l.01.01.915.857 1.824 1.712.913.858a.857.857 0 001.206-.038.858.858 0 00-.038-1.207l-.733-.688z" fill="#E6E6E6"/>
    <path d="M9.62 13.748H8.307v2.423a1.804 1.804 0 01-1.133 1.667c.203.081.425.125.656.125a1.798 1.798 0 001.791-1.792v-2.423z" fill="#FCC368"/>
    <path d="M20.413 13.748h-2.637c1 0 1.152.914.938 1.787-.607 2.465-2.523 4.553-5.013 5.768h1.63c.197 0 .372.094.484.238 2.741-1.167 4.886-3.37 5.535-6.006.215-.873.062-1.787-.937-1.787z" fill="#F74311"/>
    <path d="M15.331 21.303h-1.63a.612.612 0 01.61.61v.637c0 .336-.274.61-.61.61h1.63c.336 0 .61-.274.61-.61v-.636a.613.613 0 00-.61-.61z" fill="#C2C7CC"/>
    <path d="M21.618 5.316c1.967-1.569 1.34-3.573-.02-4.244.526.918.42 2.228-.957 3.327L16.45 7.74l.977.918 4.19-3.342z" fill="#2BAD3B"/>
    <path d="M17.429 8.658l-.292-.272c.145.136.359.864.038 1.207a.855.855 0 01-1.166.073l.072.067.913.858a.857.857 0 001.206-.038.858.858 0 00-.038-1.207l-.733-.688z" fill="#C2C7CC"/>
  </g>
  <path d="M23.131 2.468A2.61 2.61 0 0021.073.543c-1.136-.209-2.265.355-3.095 1.547l-2.79 4-.446-.419a1.197 1.197 0 00-1.687.055c-.304.324-.39.776-.267 1.173-1.073.376-2.978 1.597-4.325 3.197-.949 1.127-1.455 2.264-1.48 3.313H2.155c-.574 0-.893.253-1.06.465-.312.398-.385 1.017-.207 1.742.625 2.537 2.614 4.784 5.353 6.067a.945.945 0 00-.03.23v.637c0 .524.427.95.95.95h8.17c.524 0 .95-.426.95-.95v-.636a.948.948 0 00-.02-.199c.95-.438 1.82-.993 2.585-1.654a.34.34 0 00-.444-.514 10.308 10.308 0 01-2.519 1.594.944.944 0 00-.551-.177H7.16a.943.943 0 00-.52.156c-2.613-1.188-4.51-3.293-5.094-5.667-.124-.503-.093-.937.082-1.16.108-.138.28-.205.525-.205h2.249V15.5c0 .865.675 1.576 1.526 1.632a2.141 2.141 0 001.9 1.17c1.174 0 2.13-.957 2.13-2.132v-2.083h10.454c.245 0 .417.067.525.205.175.224.206.658.082 1.16-.243.989-.708 1.93-1.383 2.796a.34.34 0 00.536.417c.734-.943 1.24-1.969 1.507-3.05.178-.725.104-1.344-.208-1.742-.166-.212-.485-.465-1.06-.465h-4.245c.521-.8.89-1.61 1.051-2.305a1.196 1.196 0 001.23-.32 1.197 1.197 0 00-.055-1.686l-.447-.42 1.486-1.185a.34.34 0 00-.423-.53l-1.563 1.246-1.758-1.65 2.846-4.081c.673-.964 1.553-1.426 2.417-1.268.73.134 1.342.706 1.522 1.423.208.83-.18 1.71-1.067 2.418l-1.235.985a.34.34 0 00.424.53l1.235-.985c1.103-.88 1.577-2.014 1.301-3.113zm-7.8 19.175c.15 0 .27.121.27.27v.637c0 .15-.12.271-.27.271H7.16a.275.275 0 01-.272-.271v-.636c0-.147.125-.271.271-.271h8.17zm-6.348-11.11c1.402-1.666 3.416-2.858 4.202-3.05l.556.522c-.887.592-1.86 1.44-2.784 2.425-.933.996-1.731 2.046-2.267 2.979H7.662c.031-1.107.72-2.161 1.32-2.876zm3.58 2.876H9.481c.501-.8 1.185-1.676 1.971-2.515.937-.999 1.921-1.846 2.799-2.411l1.295 1.216c-.51.913-1.291 1.95-2.227 2.948-.24.255-.494.511-.756.762zM9.28 16.17c0 .8-.651 1.453-1.451 1.453a1.46 1.46 0 01-1.361-.95.34.34 0 00-.353-.22.957.957 0 01-1.033-.953v-1.413H9.28v2.083zm4.249-2.762c.097-.1.193-.199.286-.298.922-.984 1.705-2.01 2.24-2.934l.552.517c-.108.759-.569 1.751-1.263 2.715H13.53zm4.424-3.09a.516.516 0 01-.728.024L13.577 6.92a.516.516 0 01-.027-.73.517.517 0 01.727-.023l.743.697 2.909 2.729c.206.194.216.52.024.726z" fill="#000"/>
</svg>
