<svg width="24" height="24" fill="none" xmlns="http://www.w3.org/2000/svg">
  <defs/>
  <path d="M6.834 23.163V18.26c0-.338.275-.614.614-.614h.464l.024-.001a2.829 2.829 0 00.348.408 3.846 3.846 0 003.17 1.064c2.428-.291 4.406-1.444 5.873-3.576 1.434-2.086 1.979-4.717 1.42-7.22-.359-1.609-1.1-2.881-2.232-3.808a5.59 5.59 0 00-.157-.124s-.704-.507-1.178-.676c-1.111-.396-2.307-.514-3.447-.128-.963.326-1.747.925-2.338 1.815-.866 1.305-1.035 2.997-.384 4.432.237.522.552.945.954 1.255.21.161.359.398.414.664.053.252.045.49-.033.711a1.089 1.089 0 01-.697.676c-.191.06-.373.128-.544.204-1.03.455-1.627 1.464-1.679 2.508a2.413 2.413 0 00-2.389 2.41v4.904h1.797z" fill="#CF4842"/>
  <path d="M18.747 8.32c-.36-1.609-1.1-2.881-2.232-3.808a5.593 5.593 0 00-.158-.124s-.703-.507-1.177-.676a6.003 6.003 0 00-1.848-.362c.473.183 1.134.659 1.134.659.053.04.106.08.158.124 1.132.926 1.872 2.2 2.231 3.808.559 2.503.014 5.134-1.42 7.22-1.467 2.132-3.444 3.285-5.872 3.576a3.93 3.93 0 01-.275.023c.667.323 1.42.446 2.166.356 2.428-.291 4.406-1.444 5.872-3.576 1.435-2.086 1.98-4.717 1.42-7.22z" fill="#A83A36"/>
  <path d="M5.576.837v2.63c0 .842.29 1.668.816 2.325A3.734 3.734 0 008.48 7.098l.21.047a4.69 4.69 0 01.653-1.666.888.888 0 00-.209-.075l-.26-.059a1.914 1.914 0 01-1.502-1.878V.837H5.576z" fill="#AB3B36"/>
  <path d="M8.875 5.345a1.926 1.926 0 01-.885-.462 4.69 4.69 0 00-.456 1.86c.297.16.615.28.947.355l.21.047a4.69 4.69 0 01.653-1.666.89.89 0 00-.21-.075l-.259-.059z" fill="#8A302C"/>
  <path d="M16.732 4.251a.337.337 0 00-.427.521c1.793 1.469 2.474 3.92 2.291 6.215-.644.321-3.121 1.446-4.515.485-1.097-.756-2.383-.79-3.536-.206a1.441 1.441 0 00-.371-.447c-.915-.704-1.536-2.334-1.018-4.071.785-2.63 3.528-3.702 5.899-2.724a.337.337 0 00.257-.623c-2.109-.87-4.64-.365-6.09 1.678l-.27-.063a1.579 1.579 0 01-1.24-1.549V.837a.337.337 0 00-.673 0v2.63a2.25 2.25 0 001.765 2.207l.038.008c-.063.122-.094.257-.146.383-.064.154-.128.304-.176.462-.023.073-.063.14-.082.213a3.386 3.386 0 01-2.522-3.273V.837a.337.337 0 00-.674 0v2.63a4.047 4.047 0 003.091 3.936c-.206 1.756.494 3.23 1.43 3.95.463.357.44 1.257-.212 1.462a5.624 5.624 0 00-.58.218c-1.007.445-1.696 1.386-1.85 2.499a2.758 2.758 0 00-2.418 2.727v4.904a.337.337 0 00.674 0V18.26a2.08 2.08 0 012.055-2.073.337.337 0 00.333-.32c.05-.986.616-1.836 1.48-2.217.158-.07.33-.134.509-.19a1.43 1.43 0 00.912-.886c.071-.2.083-.419.066-.643.415-.24 1.654-.807 2.966.097 1.324.913 3.334.406 4.795-.247a8.96 8.96 0 01-1.441 3.569c-1.39 2.022-3.234 3.145-5.634 3.433-1.344.161-2.585-.453-3.204-1.332a.34.34 0 00-.306-.142H7.45a.952.952 0 00-.951.951v4.904a.337.337 0 00.674 0V18.26c0-.153.124-.277.277-.277h.32c.793 1.002 2.198 1.653 3.727 1.469 7.928-.952 10.068-11.243 5.234-15.2z" fill="#000"/>
  <g fill="#A83A36">
    <path d="M12.2 13.668a.421.421 0 11-.843 0 .421.421 0 01.843 0zM15.675 14.544a.421.421 0 11-.842 0 .421.421 0 01.842 0zM11.88 16.677a.421.421 0 11-.843 0 .421.421 0 01.842 0z"/>
  </g>
</svg>
