<svg width="24" height="24" fill="none" xmlns="http://www.w3.org/2000/svg">
  <defs/>
  <path d="M3.231 17.549h19.9c0-6.145-4.981-11.126-11.126-11.126S.879 11.403.879 17.549H3.23z" fill="#415E72"/>
  <path d="M21.56 17.549a9.555 9.555 0 10-19.11 0" fill="#CFDCE5"/>
  <path d="M13.5 13.005H10.51v4.543H13.5v-4.543z" fill="#415E72"/>
  <g fill="#FCD577">
    <path d="M18.427 13.006h-3.12v1.57h3.12v-1.57zM8.703 13.005h-3.12v1.57h3.12v-1.57z"/>
  </g>
  <path d="M20.132 9.431A11.425 11.425 0 0012 6.063c-3.072 0-5.96 1.196-8.132 3.368A11.425 11.425 0 00.5 17.563c0 .207.167.374.374.374h3.1a.374.374 0 000-.748H2.828c.197-4.89 4.236-8.807 9.173-8.807 1.64 0 3.248.437 4.652 1.264a.374.374 0 10.38-.645A9.921 9.921 0 0012 7.634c-5.35 0-9.724 4.253-9.921 9.555h-.825A10.676 10.676 0 014.397 9.96C6.428 7.93 9.128 6.811 12 6.811s5.572 1.118 7.603 3.15a10.676 10.676 0 013.143 7.228h-.824a9.876 9.876 0 00-3.77-7.42.374.374 0 10-.465.586 9.132 9.132 0 013.486 6.834H13.87v-4.17a.374.374 0 00-.374-.373h-2.992a.374.374 0 00-.374.374v4.169H5.171a.374.374 0 100 .748h17.955a.374.374 0 00.374-.374c0-3.072-1.196-5.96-3.368-8.132zm-9.254 7.758v-3.795h2.244v3.795h-2.244z" fill="#000"/>
  <path d="M18.422 14.964a.374.374 0 00.374-.374v-1.57a.374.374 0 00-.374-.374h-3.12a.374.374 0 00-.374.374v1.57c0 .207.167.374.374.374h3.12zm-2.746-1.57h2.372v.822h-2.372v-.822zM8.698 14.964a.374.374 0 00.374-.374v-1.57a.374.374 0 00-.374-.374h-3.12a.374.374 0 00-.374.374v1.57c0 .207.168.374.374.374h3.12zm-2.746-1.57h2.372v.822H5.952v-.822zM11.53 15.787a.374.374 0 100-.748.374.374 0 000 .748z" fill="#000"/>
</svg>
