<svg width="24" height="24" fill="none" xmlns="http://www.w3.org/2000/svg">
  <defs/>
  <path d="M19.187 13.487h1.474a.27.27 0 00.27-.27v-3.079H3.068v3.08c0 .149.121.27.27.27h1.473v9.652h14.375v-9.653z" fill="#58565C"/>
  <g fill="#49484D">
    <path d="M19.188 13.488h-.899v9.652h.898v-9.652zM20.032 10.14v3.079a.27.27 0 01-.27.27h.9a.27.27 0 00.269-.27v-3.08h-.899z"/>
  </g>
  <path d="M9.023 23.162v-9.53h5.954v9.53" fill="#985335"/>
  <path d="M14.977 13.631h-.899v9.531h.899v-9.53z" fill="#87462A"/>
  <path d="M15.452 12.743H8.549a.27.27 0 00-.27.27v.949c0 .149.121.27.27.27h6.903a.27.27 0 00.27-.27v-.95a.27.27 0 00-.27-.269z" fill="#FFD151"/>
  <path d="M15.451 12.743h-.898c.149 0 .27.12.27.27v.949a.27.27 0 01-.27.27h.898a.27.27 0 00.27-.27v-.95a.27.27 0 00-.27-.269z" fill="#F79B4A"/>
  <path d="M3.813 18.468h2.708a.27.27 0 00.27-.27v-4.441a.27.27 0 00-.27-.27H3.813v4.98z" fill="#00BCE7"/>
  <path d="M6.79 17.345v.853a.27.27 0 01-.27.27H3.814v-1.123H6.79z" fill="#0094D4"/>
  <path d="M17.479 18.468h2.707v-4.98h-2.707a.27.27 0 00-.27.269v4.441c0 .149.12.27.27.27z" fill="#00BCE7"/>
  <path d="M17.209 17.345v.853c0 .149.12.27.27.27h2.707v-1.123h-2.977z" fill="#0094D4"/>
  <path d="M16.94 3.812H7.06a.27.27 0 01-.27-.27V1.104c0-.148.12-.269.27-.269h9.88c.148 0 .269.12.269.27v2.437a.27.27 0 01-.27.27z" fill="#FFD151"/>
  <path d="M16.313.835v2.977h.627a.27.27 0 00.27-.27V1.104a.27.27 0 00-.27-.269h-.628zM18.469 5.672H5.53v1.295H18.47V5.672z" fill="#F79B4A"/>
  <path d="M6.046 6.967V5.57a.27.27 0 00-.27-.27H4.084a.27.27 0 00-.27.27v1.397h2.233zM17.953 6.974V5.57c0-.15.12-.27.27-.27h1.693c.149 0 .27.12.27.27v1.404h-2.233z" fill="#FFD151"/>
  <path d="M21.675 9.022L20.186 6.79H3.814L2.325 9.022v.461h19.35v-.46z" fill="#FF2551"/>
  <path d="M21.465 10.558l-2.955.682a.27.27 0 01-.121 0l-3.164-.73-3.165.73a.27.27 0 01-.12 0l-3.165-.73-3.164.73a.27.27 0 01-.122 0l-2.955-.682a.27.27 0 01-.209-.262V9.022h19.35v1.274a.27.27 0 01-.21.262z" fill="#800F35"/>
  <path d="M15.225 10.51V9.022l-1.488-2.233h-3.473L8.775 9.022v1.488l3.165.73c.04.01.081.01.12 0l3.165-.73z" fill="#B6E3EE"/>
  <path d="M12 11.254l3.225-.744V9.022h-6.45v1.488l3.225.744z" fill="#96D2E0"/>
  <path d="M7.907 20.624V19.44c0-.822-.667-1.488-1.489-1.488H3.814c-.822 0-1.489.666-1.489 1.488v1.183h5.582z" fill="#00CE96"/>
  <path d="M6.418 17.953H5.52c.822 0 1.488.666 1.488 1.488v1.183h.898V19.44c0-.822-.666-1.488-1.488-1.488z" fill="#00BA88"/>
  <path d="M21.674 20.624V19.44c0-.822-.666-1.488-1.488-1.488h-2.605c-.822 0-1.488.666-1.488 1.488v1.183h5.581z" fill="#00CE96"/>
  <path d="M20.186 17.953h-.898c.822 0 1.488.666 1.488 1.488v1.183h.899V19.44c0-.822-.666-1.488-1.489-1.488z" fill="#00BA88"/>
  <path d="M22.419 23.162h-7.442v-2.707c0-.15.12-.27.27-.27h6.902c.149 0 .27.12.27.27v2.707z" fill="#FFD151"/>
  <path d="M22.15 20.185h-.899c.149 0 .27.12.27.27v2.707h.898v-2.707a.27.27 0 00-.27-.27z" fill="#F79B4A"/>
  <path d="M9.023 23.162H1.581v-2.707c0-.15.12-.27.27-.27h6.903c.149 0 .27.12.27.27v2.707z" fill="#FFD151"/>
  <path d="M8.754 20.185h-.899c.15 0 .27.12.27.27v2.707h.898v-2.707a.27.27 0 00-.27-.27z" fill="#F79B4A"/>
  <g fill="#000">
    <path d="M23.163 22.826h-.407v-2.64a.337.337 0 00-.337-.337h-.407v-.407c0-.891-.643-1.635-1.489-1.794v-3.823h.407c.186 0 .337-.15.337-.337v-2.537l.483-.111a.337.337 0 00.262-.328V9.023v-.005l-.002-.028v-.005a.315.315 0 00-.005-.027l-.001-.005a.331.331 0 00-.007-.027l-.002-.005a.28.28 0 00-.009-.026l-.003-.008-.011-.022-.01-.017-.007-.012-1.432-2.148V5.302a.337.337 0 00-.337-.337h-2.232a.337.337 0 00-.337.337v.035h-1.56V4.151h1.152c.186 0 .337-.151.337-.337V.837A.337.337 0 0017.21.5H6.79a.337.337 0 00-.336.337v2.977c0 .186.15.337.336.337h1.152v1.186H6.383v-.035a.337.337 0 00-.337-.337H3.814a.337.337 0 00-.337.337V6.69L2.045 8.836l-.007.012-.01.016-.007.016-.007.014-.007.02-.004.01a.352.352 0 00-.006.024l-.002.009a.336.336 0 00-.004.028v.004a.338.338 0 00-.003.038v1.485c0 .157.109.293.262.328l.482.111v2.537c0 .187.151.337.337.337h.408v3.823a1.828 1.828 0 00-1.489 1.794v.407h-.407a.337.337 0 00-.337.337v2.64H.837a.337.337 0 100 .674h22.326a.337.337 0 000-.674zm-1.825-3.384v.407H16.43v-.407c0-.635.517-1.151 1.151-1.151h2.605c.635 0 1.152.516 1.152 1.151zm-3.792-1.825v-3.792h2.303v3.792h-2.303zm3.792-7.373l-2.888.666-2.888-.666V9.36h5.776v.884zM3.994 7.128h5.64l-1.04 1.558h-5.64l1.04-1.558zm9.562 0l1.04 1.558H9.404l1.039-1.558h3.112zm6.45 0l1.04 1.558h-5.64l-1.04-1.558h5.64zM9.112 9.36h5.776v.884L12 10.91l-2.888-.666V9.36zM18.29 5.64h1.558v.815h-1.558v-.815zM8.616 4.151h.85a.337.337 0 100-.674H8.28h-.001H7.128V1.174h9.744v2.303h-1.15-4.91a.337.337 0 000 .674h4.572v1.186H8.616V4.151zm9 1.86v.443H13.74 6.383V6.01h11.234zM5.71 5.64v.815H4.151v-.815h1.558zM2.662 9.36h5.776v.884l-2.888.666-2.888-.666V9.36zm.744 1.747l2.068.477c.05.012.102.012.152 0l3.149-.727 3.15.727c.049.012.1.012.15 0l3.15-.727 3.149.727a.34.34 0 00.151 0l2.068-.477v2.044H17.21a.337.337 0 00-.337.337v4.272a1.828 1.828 0 00-1.116 1.682v.407h-.442v-5.28h.407c.186 0 .337-.15.337-.337v-1.488a.337.337 0 00-.337-.337H8.279a.337.337 0 00-.337.337v1.488c0 .187.15.337.337.337h.407v5.28h-.442v-.407c0-.755-.461-1.405-1.117-1.682v-4.272a.337.337 0 00-.337-.337H3.406v-2.044zm5.954 11.72v-2.64-5.618h5.28v8.257H9.36zm-.744-8.932v-.814h6.768v.815H8.616zm-4.465-.07h2.303v3.792H4.15v-3.792zm-1.489 5.617c0-.635.517-1.151 1.152-1.151h2.604c.635 0 1.152.516 1.152 1.151v.407H2.662v-.407zm-.744 1.081h6.768v2.303H1.918v-2.303zm13.396 2.303v-2.303h6.768v2.303h-6.768z"/>
    <path d="M10.14 17.244a.337.337 0 00-.337.337v1.489a.337.337 0 10.674 0V17.58a.337.337 0 00-.337-.337z"/>
  </g>
</svg>
