<svg width="24" height="24" fill="none" xmlns="http://www.w3.org/2000/svg">
  <defs/>
  <path d="M22.616 16.83l-5.864 4.704c-.482.386-1.1.562-1.714.487l-7.902-.962-2.106.78c-1.13-1.164-.666-4.907-.666-4.907l.502-.137a1.901 1.901 0 011.062-1.832l3.39-1.655 1.742-.85a1.656 1.656 0 011.578 2.909L9.82 17.053l4.74.826c.571.099 1.158-.02 1.644-.337l4.715-3.06a1.45 1.45 0 011.697 2.347z" fill="#F1D0A5"/>
  <path d="M15.025 20.758c-3.246.422-5.484-1.482-6.838-3.273a1.909 1.909 0 01.492-2.76c3.27-2.095 4.115-2.018 4.563-1.57a1.656 1.656 0 00-2.182-.698l-1.743.851L6.57 14.65l-.642.313a1.9 1.9 0 00-1.062 1.832l-.502.137s-.465 3.743.666 4.906l2.106-.778 7.902.961a2.295 2.295 0 001.714-.487l5.863-4.703c-2.026-.55-5.403 3.593-7.59 3.927z" fill="#F1B986"/>
  <path d="M3.663 16.461a6.832 6.832 0 00-2.822.997 55.318 55.318 0 002.01 5.689 6.829 6.829 0 002.822-.997 55.324 55.324 0 00-2.01-5.689z" fill="#80A6C6"/>
  <path d="M5.673 22.15a6.822 6.822 0 01-2.822.997 55.999 55.999 0 01-.582-1.46 7.263 7.263 0 002.944-1.03c.16.495.314.993.46 1.493z" fill="#5B8EB8"/>
  <path d="M21.53 6.126a3.396 3.396 0 01-3.395 3.396H8.005a3.396 3.396 0 11.613-6.735 4.334 4.334 0 017.542.578 3.395 3.395 0 015.37 2.761z" fill="#5E6B75"/>
  <path d="M10.95 6.113s-1.088 1.679-.242 3.41H8.005a3.396 3.396 0 11.613-6.736A4.33 4.33 0 0112.227.853c-1.52 0-2.789 2.963-1.277 5.26z" fill="#4D5961"/>
  <path d="M14.932 6.292h3.32l-1.591 4.374h1.956l-3.548 6.013.95-4.743h-1.54l.453-5.644z" fill="#F1D333"/>
  <path d="M23.436 15.224a1.788 1.788 0 00-.312-.622 1.801 1.801 0 00-2.39-.405l-1.722 1.117a.341.341 0 00.371.572l1.722-1.117a1.102 1.102 0 011.48.25 1.11 1.11 0 01-.173 1.537l-.01.008-5.863 4.704c-.408.327-.94.478-1.46.415l-7.902-.962a.338.338 0 00-.16.019l-1.272.47a56.063 56.063 0 00-1.38-3.923l.592-.164a.34.34 0 00.249-.35 1.56 1.56 0 01.872-1.503l5.131-2.506a1.309 1.309 0 011.733.554 1.312 1.312 0 01-.48 1.755l-2.817 1.689a.34.34 0 00.117.628l4.74.826a2.63 2.63 0 001.887-.386l1.852-1.202a.341.341 0 00-.371-.572l-1.85 1.201c-.416.27-.913.371-1.4.287l-3.838-.668 2.03-1.218a1.993 1.993 0 00.73-2.665 1.988 1.988 0 00-2.632-.842l-5.13 2.506a2.24 2.24 0 00-1.255 1.879l-.416.115a53.757 53.757 0 00-.131-.32.34.34 0 00-.357-.208 7.2 7.2 0 00-2.96 1.046.341.341 0 00-.147.385 55.932 55.932 0 002.022 5.724.34.34 0 00.356.207 7.202 7.202 0 002.961-1.046.341.341 0 00.147-.385l-.056-.19 1.233-.456 7.82.951a2.651 2.651 0 001.969-.56l5.852-4.694a1.792 1.792 0 00.618-1.88zm-20.37 7.549a55.277 55.277 0 01-1.823-5.158 6.507 6.507 0 012.206-.78 55.28 55.28 0 011.822 5.158 6.508 6.508 0 01-2.206.78z" fill="#000"/>
  <path d="M11.397 15.276c.139 0 .28-.033.41-.103l.422-.225a.34.34 0 10-.32-.602l-.423.226a.184.184 0 01-.238-.057 2.687 2.687 0 01-.373-.862.34.34 0 00-.67.129c.005.023.112.568.477 1.112a.86.86 0 00.715.382zM3.816 21.866a.344.344 0 00.332-.266c.07-.3-.282-.528-.53-.352a.344.344 0 00-.12.4c.05.13.178.218.318.218z" fill="#000"/>
  <path d="M8.005 9.863h6.298l-.164 2.046a.34.34 0 00.34.368h1.125l-.87 4.335a.341.341 0 00.628.24l3.548-6.013a.341.341 0 00-.293-.514h-1.47l.168-.462h.82a3.741 3.741 0 003.737-3.737 3.74 3.74 0 00-3.737-3.736c-.653 0-1.283.167-1.844.487A4.695 4.695 0 0012.227.512 4.667 4.667 0 008.46 2.418a3.695 3.695 0 00-1.859.245.34.34 0 00.257.632 3.034 3.034 0 011.7-.172.341.341 0 00.344-.147 3.989 3.989 0 013.325-1.782c1.549 0 2.971.908 3.624 2.315a.34.34 0 00.508.133 3.034 3.034 0 011.776-.57 3.058 3.058 0 013.055 3.054 3.058 3.058 0 01-3.055 3.055h-.572l1.01-2.773a.34.34 0 00-.321-.457h-3.32a.34.34 0 00-.34.313l-.234 2.917H8.005A3.058 3.058 0 014.95 6.126c0-.813.316-1.578.89-2.154a.34.34 0 10-.483-.482A3.71 3.71 0 004.27 6.126a3.741 3.741 0 003.736 3.737zm9.76-3.23l-1.425 3.916a.341.341 0 00.32.458h1.36L15.8 14.77l.554-2.767a.341.341 0 00-.334-.408h-1.172l.399-4.963h2.518z" fill="#000"/>
</svg>
