<svg width="24" height="24" fill="none" xmlns="http://www.w3.org/2000/svg">
  <defs/>
  <path d="M17.01 1.257H.93v21.485h16.08V1.257z" fill="#CFDCE5"/>
  <path d="M19.666 4.973l1.73-3.715 1.73 3.715V21.67c0 .593-.481 1.073-1.074 1.073h-1.313c-.593 0-1.073-.48-1.073-1.073V4.973z" fill="#4EBFED"/>
  <path d="M23.126 19.909v1.76c0 .593-.48 1.073-1.073 1.073H20.74c-.593 0-1.073-.48-1.073-1.073v-1.76h3.459z" fill="#FF6F52"/>
  <path d="M22.08 4.973h-.643V19.91h.643V4.973z" fill="#97E1F7"/>
  <path d="M19.666 21.67c0 .592.48 1.072 1.073 1.072h.328c-.298 0-.539-.48-.539-1.073V4.973l.868-3.715-1.73 3.715V21.67z" fill="#3BA4BC"/>
  <path d="M23.126 4.973h-3.459l1.73-3.715 1.729 3.715z" fill="#FCD577"/>
  <path d="M21.067 22.742h-.327c-.593 0-1.073-.48-1.073-1.073v-1.76h.862v1.76c0 .593.241 1.073.538 1.073z" fill="#D33F22"/>
  <path d="M20.529 4.973h-.862l1.73-3.715-.868 3.715z" fill="#EAC36E"/>
  <path d="M16.984.855H.902a.402.402 0 00-.402.403v2.24a.402.402 0 00.805 0V1.66H16.58v20.68H1.305V4.838a.402.402 0 00-.805 0v17.904c0 .223.18.403.402.403h16.082c.222 0 .402-.18.402-.403V1.258a.402.402 0 00-.402-.403zM23.098 16.128c.222 0 .402-.18.402-.402V4.973a.401.401 0 00-.038-.17l-1.73-3.715a.402.402 0 00-.729 0l-1.73 3.715a.403.403 0 00-.037.17V21.67c0 .814.662 1.476 1.476 1.476h1.313c.813 0 1.475-.662 1.475-1.476v-4.603a.402.402 0 10-.805 0v2.44h-2.654V5.376h2.654v10.35c0 .222.18.402.403.402zM21.368 2.21l1.099 2.36H20.27l1.098-2.36zm1.328 18.1v1.358c0 .37-.301.671-.671.671h-1.313a.672.672 0 01-.671-.67V20.31h2.655z" fill="#000"/>
  <path d="M13.246 4.06H4.64a.402.402 0 000 .805h8.607a.402.402 0 000-.804zM14.57 8.197h-1.636a.402.402 0 000 .805h1.636a.402.402 0 100-.805zM2.913 8.6c0 .222.18.402.402.402h8.278a.402.402 0 000-.805H3.315a.402.402 0 00-.402.403zM3.315 13.168H14.57a.402.402 0 000-.804H3.315a.402.402 0 000 .804zM14.57 10.28H6.58a.402.402 0 000 .805h7.991a.402.402 0 100-.804zM3.315 11.085h1.923a.402.402 0 100-.804H3.315a.402.402 0 000 .804zM3.315 19.418H14.57a.402.402 0 000-.805H3.315a.402.402 0 000 .805zM14.57 16.53H11.89a.402.402 0 000 .805h2.681a.402.402 0 100-.805zM3.315 17.334h7.233a.402.402 0 100-.804H3.315a.402.402 0 000 .804z" fill="#000"/>
</svg>
