<svg width="24" height="24" fill="none" xmlns="http://www.w3.org/2000/svg">
  <defs/>
  <path d="M10.16 21.33h3.68v-1.69c0-.202.165-.367.368-.367v-.736H10.16v2.792z" fill="#F2EBD9"/>
  <path d="M2.677 2.671v11.93h18.646V2.671h-7.914c-.444 0-.856.222-1.103.593a.368.368 0 01-.613 0 1.322 1.322 0 00-1.103-.593H2.677zm4.446 10.704h-2.82a.368.368 0 110-.736h2.82a.368.368 0 110 .736zm2.82-1.748h-5.64a.368.368 0 110-.737h5.64a.368.368 0 010 .736zm0-1.749h-5.64a.368.368 0 110-.736h5.64a.368.368 0 010 .736zM3.934 7.762c0-.203.165-.368.368-.368h2.82a.368.368 0 110 .736h-2.82a.368.368 0 01-.368-.368zm6.01-1.38H4.301a.368.368 0 110-.736h5.641a.368.368 0 010 .736zm0-1.748H4.301a.368.368 0 110-.736h5.641a.368.368 0 010 .736zm4.112-.736h5.64a.368.368 0 110 .736h-5.64a.368.368 0 110-.736zm0 1.748h5.64a.368.368 0 110 .736h-5.64a.368.368 0 110-.736zm0 1.748h2.82a.368.368 0 110 .736h-2.82a.368.368 0 110-.736zm0 1.748h5.64a.368.368 0 110 .736h-5.64a.368.368 0 110-.736zm0 1.748h5.64a.368.368 0 110 .736h-5.64a.368.368 0 110-.736zm0 1.749h2.82a.368.368 0 110 .736h-2.82a.368.368 0 110-.736zm-2.424-8.107a.368.368 0 11.736 0v8.965a.368.368 0 11-.736 0V4.532z" fill="#fff"/>
  <path d="M1.941 4.143h-.705v10.458h.705V4.143zM22.764 4.143h-.705v10.458h.705V4.143z" fill="#F2EBD9"/>
  <path d="M22.764 15.337H1.236v1.36c0 .609.496 1.104 1.104 1.104h19.32c.609 0 1.104-.495 1.104-1.104v-1.36z" fill="#98D9D5"/>
  <path d="M23.132 3.407h-1.073V2.303a.368.368 0 00-.368-.368H13.41c-.53 0-1.032.203-1.41.558a2.055 2.055 0 00-1.41-.558H2.31a.368.368 0 00-.369.368v1.104H.868a.368.368 0 00-.368.368v12.922c0 1.014.825 1.84 1.84 1.84h7.084v2.792H7.829a.368.368 0 000 .736h8.342a.368.368 0 000-.736h-1.595v-1.688a.368.368 0 00-.736 0v1.688h-3.68v-2.792h11.5c1.015 0 1.84-.826 1.84-1.84V3.775a.368.368 0 00-.368-.368zM21.66 17.801H2.34a1.105 1.105 0 01-1.104-1.104v-1.36h21.528v1.36c0 .609-.495 1.104-1.104 1.104zM11.694 3.263a.368.368 0 00.612 0 1.322 1.322 0 011.104-.592h7.913v11.93H2.677V2.671h7.913c.444 0 .857.221 1.104.592zm11.07 11.338h-.705V4.143h.705v10.458zm-20.823 0h-.705V4.143h.705v10.458z" fill="#082947"/>
  <path d="M12 13.865a.368.368 0 00.368-.368V4.532a.368.368 0 00-.736 0v8.965c0 .204.165.368.368.368zM9.944 3.898H4.303a.368.368 0 100 .736h5.64a.368.368 0 100-.736zM9.944 5.646H4.303a.368.368 0 100 .736h5.64a.368.368 0 100-.736zM4.303 8.13h2.82a.368.368 0 100-.736h-2.82a.368.368 0 100 .736zM9.944 9.142H4.303a.368.368 0 100 .736h5.64a.368.368 0 100-.736zM9.944 10.89H4.303a.368.368 0 100 .736h5.64a.368.368 0 100-.736zM7.123 12.639h-2.82a.368.368 0 100 .736h2.82a.368.368 0 000-.736zM14.056 4.634h5.642a.368.368 0 100-.736h-5.642a.368.368 0 100 .736zM14.056 6.382h5.642a.368.368 0 100-.736h-5.642a.368.368 0 100 .736zM14.056 8.13h2.82a.368.368 0 100-.736h-2.82a.368.368 0 100 .736zM14.056 9.878h5.642a.368.368 0 100-.736h-5.642a.368.368 0 100 .736zM14.056 11.626h5.642a.368.368 0 100-.736h-5.642a.368.368 0 100 .736zM14.056 13.375h2.82a.368.368 0 100-.736h-2.82a.368.368 0 100 .736z" fill="#082947"/>
</svg>
