<svg width="24" height="24" fill="none" xmlns="http://www.w3.org/2000/svg">
  <defs/>
  <path d="M10.156.84H9.031a.582.582 0 00-.582.581v2.254H12V1.913a.551.551 0 00-.344-.511L10.362.88a.552.552 0 00-.206-.04z" fill="#FFF9F0"/>
  <path d="M13.844.84h1.125c.321 0 .582.26.582.581v2.254H12V1.913c0-.225.136-.427.345-.511L13.637.88a.552.552 0 01.207-.04z" fill="#FFF9F0"/>
  <path d="M11.655 1.402L10.364.88a.552.552 0 00-.207-.04H9.031c-.04 0-.08.004-.119.012a.553.553 0 01.092.028l1.293.522a.551.551 0 01.345.51v1.763H12V1.913a.551.551 0 00-.345-.511zM14.969.84h-1.125a.553.553 0 00-.114.012.582.582 0 01.462.57v2.253h1.358V1.421A.582.582 0 0014.97.84z" fill="#FAE8DB"/>
  <path d="M20.555 23.16H3.445a1.17 1.17 0 01-1.17-1.17V5.787c0-.647.524-1.17 1.17-1.17h17.11c.646 0 1.17.523 1.17 1.17V21.99a1.17 1.17 0 01-1.17 1.17z" fill="#DEECF1"/>
  <path d="M6.1 4.616H3.53c-.693 0-1.255.562-1.255 1.255v16.034c0 .693.562 1.255 1.255 1.255h8.366L6.1 4.616zM17.9 4.616h2.57c.693 0 1.255.562 1.255 1.255v16.034c0 .693-.562 1.255-1.255 1.255h-8.365L17.9 4.616z" fill="#FFF9F0"/>
  <path d="M20.47 4.616H19.11c.693 0 1.255.562 1.255 1.255v16.034c0 .693-.562 1.255-1.255 1.255h1.359c.693 0 1.255-.562 1.255-1.255V5.871c0-.693-.562-1.255-1.255-1.255z" fill="#FAE8DB"/>
  <path d="M4.466 4.63l.66 7.615c.01.366.31.658.675.658.46 0 .785.447.643.884L5.91 15.44a.676.676 0 00.036.506l3.536 7.214h2.415L6.1 4.616l-1.634.014z" fill="#A8D3D8"/>
  <path d="M6.1 4.616l-1.355.012 5.792 18.532h1.358L6.1 4.616z" fill="#8EBAC5"/>
  <path d="M19.52 4.63l-.66 7.615a.676.676 0 01-.676.658.676.676 0 00-.643.884l.536 1.653a.676.676 0 01-.037.506l-3.535 7.214H12.09l5.795-18.544 1.635.014z" fill="#A8D3D8"/>
  <path d="M17.885 4.616l-.004.012.28.002-.66 7.615a.676.676 0 01-.676.658.676.676 0 00-.643.884l.536 1.653a.676.676 0 01-.037.506l-3.536 7.214h1.36l3.535-7.214a.676.676 0 00.036-.506l-.535-1.653a.676.676 0 01.643-.885.676.676 0 00.676-.657l.66-7.615-1.635-.014z" fill="#8EBAC5"/>
  <path d="M11.238 4.878l-3.303.462a.316.316 0 01-.36-.313V2.956c0-.206.194-.357.393-.307l3.303.832c.14.035.238.161.238.306v.778c0 .158-.116.291-.271.313zM12.763 4.878l3.303.462c.19.026.36-.121.36-.313V2.956a.316.316 0 00-.393-.307l-3.303.832a.316.316 0 00-.239.306v.778c0 .158.116.291.272.313z" fill="#2ED1E2"/>
  <path d="M16.033 2.65l-.972.244c.004.02.006.04.006.061v2.072a.314.314 0 01-.047.166l1.046.147c.19.026.36-.121.36-.313V2.956a.316.316 0 00-.393-.307z" fill="#03BED7"/>
  <path d="M12 5.424a1.392 1.392 0 100-2.784 1.392 1.392 0 000 2.784z" fill="#2ED1E2"/>
  <path d="M12 2.64c-.247 0-.479.064-.68.177a1.392 1.392 0 010 2.43A1.392 1.392 0 1012 2.64z" fill="#03BED7"/>
  <path d="M10.754 7.723a.34.34 0 100-.68.34.34 0 000 .68zM10.754 9.874a.34.34 0 100-.679.34.34 0 000 .68zM10.754 12.025a.34.34 0 100-.679.34.34 0 000 .68zM10.754 14.177a.34.34 0 100-.68.34.34 0 000 .68zM13.392 7.723a.34.34 0 100-.679.34.34 0 000 .68zM13.392 9.874a.34.34 0 100-.679.34.34 0 000 .68zM13.392 12.025a.34.34 0 100-.679.34.34 0 000 .68zM13.392 14.177a.34.34 0 100-.68.34.34 0 000 .68z" fill="#000"/>
  <path d="M20.47 4.277h-3.705V2.956a.651.651 0 00-.253-.517.65.65 0 00-.562-.119l-.06.015v-.914A.922.922 0 0014.97.5h-1.125a.887.887 0 00-.334.065l-1.292.522a.895.895 0 00-.218.126.899.899 0 00-.218-.126L10.49.565A.887.887 0 0010.156.5H9.031a.922.922 0 00-.921.921v.914l-.06-.015a.651.651 0 00-.562.119.651.651 0 00-.253.516v1.322H3.53c-.88 0-1.594.715-1.594 1.594v4.721a.34.34 0 10.679 0v-4.72c0-.505.41-.916.915-.916h.623l.633 7.31c.02.548.464.976 1.015.976.109 0 .208.05.272.139a.333.333 0 01.048.301l-.535 1.653a1.01 1.01 0 00.054.76l3.296 6.726H3.53a.916.916 0 01-.915-.916v-9.954a.34.34 0 10-.68 0v9.954c0 .88.716 1.595 1.595 1.595h16.94c.88 0 1.595-.715 1.595-1.595V5.871c0-.879-.716-1.594-1.595-1.594zM12 2.979a1.054 1.054 0 010 2.106 1.054 1.054 0 010-2.106zm4.11 2.704a.655.655 0 00.655-.656v-.07h.658L12.34 21.221V5.73a1.73 1.73 0 00.857-.448l2.822.394c.03.004.06.006.09.006zm-.024-2.697V5l-2.47-.346a1.722 1.722 0 00.06-1.061l2.41-.607zm-3.614-1.27l1.293-.521a.21.21 0 01.079-.016h1.125c.133 0 .242.109.242.242v1.085l-1.844.464a1.734 1.734 0 00-1.027-.636v-.421a.21.21 0 01.132-.196zM8.79 1.422c0-.133.109-.242.242-.242h1.125a.21.21 0 01.08.016l1.292.522a.21.21 0 01.132.196v.42a1.734 1.734 0 00-1.027.637L8.79 2.506V1.42zm-.874 1.565l2.41.607a1.73 1.73 0 00.06 1.061L7.914 5V2.986zM7.46 5.522a.655.655 0 00.521.154l2.82-.394v-.003c.233.225.53.385.86.451v15.54L6.561 4.955h.673v.071c0 .19.082.37.225.495zM6.232 15.545l.535-1.654a1.005 1.005 0 00-.145-.91 1.005 1.005 0 00-.821-.418.335.335 0 01-.336-.327v-.01l-.63-7.27H5.85l5.583 17.865H9.693L6.25 15.796a.335.335 0 01-.018-.251zm15.153 6.36c0 .505-.41.916-.915.916h-5.42l3.295-6.726a1.01 1.01 0 00.055-.76l-.536-1.653a.333.333 0 01.048-.301.333.333 0 01.272-.139c.55 0 .994-.428 1.015-.977l.164-1.888a.34.34 0 10-.677-.059l-.164 1.898a.335.335 0 01-.337.347c-.33 0-.629.152-.822.418a1.005 1.005 0 00-.145.91l.535 1.654a.335.335 0 01-.018.251l-3.442 7.025h-1.726l5.582-17.865h1.002l-.348 4.005a.34.34 0 00.677.06l.352-4.065h.638c.505 0 .915.41.915.915v16.034z" fill="#000"/>
</svg>
