<svg width="24" height="24" fill="none" xmlns="http://www.w3.org/2000/svg">
  <defs/>
  <path d="M2.84 11.443H1.42a.584.584 0 01-.583-.583V9.659c0-.323.261-.584.584-.584h1.42v2.368zM21.116 11.443h1.42a.584.584 0 00.584-.583V9.659a.584.584 0 00-.583-.584h-1.42v2.368z" fill="#537983"/>
  <path d="M3.58 12.06l-.564 2.137-1.693.732a.578.578 0 00.459 1.06l1.526-.66.812-.351.587-2.528-1.128-.39zM20.559 12.06l.563 2.137 1.693.732a.578.578 0 01-.459 1.06l-1.526-.66-.812-.351-.587-2.528 1.128-.39z" fill="#A8D3D8"/>
  <path d="M6.388 14.923h-2.34a2.187 2.187 0 01-2.187-2.187V10.15c0-1.208.98-2.188 2.187-2.188h4.68c1.033 0 1.872.839 1.872 1.873v.876a4.211 4.211 0 01-4.212 4.21z" fill="#3E5959"/>
  <path d="M8.727 7.963H7.38c1.034 0 1.872.839 1.872 1.873v.876a4.211 4.211 0 01-4.211 4.21h1.348a4.211 4.211 0 004.21-4.21v-.876a1.872 1.872 0 00-1.872-1.873z" fill="#384949"/>
  <path d="M17.602 14.923h2.34c1.207 0 2.187-.98 2.187-2.187V10.15c0-1.208-.98-2.188-2.187-2.188h-4.679a1.872 1.872 0 00-1.872 1.873v.876a4.211 4.211 0 004.21 4.21z" fill="#3E5959"/>
  <path d="M19.941 7.963h-1.347c1.208 0 2.187.98 2.187 2.188v2.585c0 1.208-.98 2.187-2.187 2.187h1.347c1.208 0 2.188-.98 2.188-2.187V10.15c0-1.208-.98-2.188-2.188-2.188z" fill="#384949"/>
  <path d="M22.948 14.62l-.957-.414a2.51 2.51 0 00.475-1.47v-.956h.07c.508 0 .92-.413.92-.92V9.657a.922.922 0 00-.92-.92h-.504a2.523 2.523 0 00-2.09-1.112h-1.933a.337.337 0 100 .674h1.271l-1.59 1.59a.337.337 0 10.476.477l2.047-2.047a1.853 1.853 0 011.579 1.83v2.586c0 1.02-.83 1.85-1.85 1.85h-1.46l.798-.799a.337.337 0 10-.476-.476l-1.262 1.261-.01.012a3.859 3.859 0 01-1.073-.17l4.366-4.366a.337.337 0 10-.477-.477l-4.5 4.5a.336.336 0 00-.051.067 3.878 3.878 0 01-2.07-3.426v-.876c0-.847.69-1.536 1.536-1.536h1.442a.337.337 0 100-.674H4.05c-.87 0-1.637.442-2.091 1.112h-.537a.922.922 0 00-.921.92v1.202c0 .507.413.92.92.92h.105v.956c0 .57.19 1.095.51 1.518l-.846.366a.916.916 0 00.726 1.678l2.254-.974a.335.335 0 00.097-.064h2.123c.572 0 1.13-.105 1.658-.312a.337.337 0 10-.246-.627c-.45.176-.925.265-1.412.265H5.13l.799-.799a.337.337 0 10-.477-.476l-1.261 1.261-.013.014h-.13c-.321 0-.623-.082-.886-.226l4.311-4.312a.337.337 0 00-.476-.477l-4.36 4.36a1.842 1.842 0 01-.44-1.195V10.15c0-1.02.83-1.85 1.85-1.85H5.93L4.34 9.89a.337.337 0 10.476.476L6.883 8.3h1.845c.846 0 1.535.69 1.535 1.536v.876a3.868 3.868 0 01-1.38 2.965.337.337 0 00.434.515 4.54 4.54 0 001.62-3.48v-.385h2.117v.385a4.553 4.553 0 004.548 4.548h2.232c.016.01.032.02.05.027l2.338 1.011a.916.916 0 001.203-.476.916.916 0 00-.477-1.202zM1.421 11.106a.247.247 0 01-.247-.246V9.659c0-.137.11-.247.247-.247h.214c-.071.234-.11.482-.11.739v.955H1.42zm.227 4.574a.241.241 0 01-.191-.442l1.093-.473c.161.12.336.22.523.298l-1.425.617zM13.677 8.3a2.202 2.202 0 00-.615 1.353h-2.133a2.202 2.202 0 00-.615-1.353h3.363zm8.86 1.112c.135 0 .246.11.246.247v1.2c0 .137-.11.247-.247.247h-.07v-.955c0-.257-.04-.505-.11-.74h.18zm.27 6.143a.241.241 0 01-.317.125l-1.5-.649c.18-.083.349-.186.503-.307l1.188.514a.241.241 0 01.125.317z" fill="#000"/>
</svg>
