<svg width="24" height="24" fill="none" xmlns="http://www.w3.org/2000/svg">
  <defs/>
  <g fill-rule="evenodd" clip-rule="evenodd">
    <path d="M1.552 7.923a.714.714 0 00-.713.71v5.508c0 .391.32.711.712.711h1.83l2.168-3.478-2.166-3.451H1.552z" fill="#838383"/>
    <path d="M12.575 5.619H4.366a.984.984 0 00-.981.98l-.002 1.324-.002 3.047v5.053h.046l9.286.786 9.662-.781V11.35c0-.552-.452-1.004-1.004-1.004h-2.338c-.81 0-.95-.092-1.446-.78L15.6 6.81c-.41-.569-.735-1.191-1.44-1.191h-1.584z" fill="#80D261"/>
    <path d="M15.115 16.025H9.649a3 3 0 01.207 1.563h5.053c-.018-.13-.025-.124-.025-.397 0-.274.081-.806.23-1.166zM3.051 16.023a.786.786 0 00-.784.783c0 .43.352.782.784.782H5.11a3.038 3.038 0 01.207-1.566H3.05zM22.375 16.028h-2.473c.15.358.232.889.232 1.163 0 .273-.01.268-.026.398l2.267.004a.785.785 0 00.785-.782.787.787 0 00-.785-.783z" fill="#ACACAC"/>
    <path d="M22.375 11.996h-1.346a.472.472 0 00-.471.47v.357c0 .259.212.47.471.47h1.346v-1.297zM11.088 7.326c-.123 0-.226.1-.226.224v2.453c0 .123.102.224.226.224h4.327c.123 0 .219-.233.147-.334L13.893 7.55c-.071-.1-.158-.224-.452-.224h-2.353zM8.992 7.326H5.269c-.124 0-.226.1-.226.224v2.453c0 .123.102.224.226.224h3.723c.124 0 .226-.1.226-.224V7.55a.226.226 0 00-.226-.224z" fill="#A6E7F0"/>
    <path d="M17.509 14.14c-1.282 0-2.38.778-2.843 1.883a3.006 3.006 0 00-.208 1.565 3.068 3.068 0 003.05 2.653 3.067 3.067 0 003.05-2.652 3.04 3.04 0 00-.206-1.562 3.081 3.081 0 00-2.843-1.886zM7.709 14.14c-1.282 0-2.38.778-2.842 1.883-.151.36-.234.754-.234 1.168 0 1.685 1.377 3.05 3.076 3.05a3.069 3.069 0 003.05-2.653 3.025 3.025 0 00-.207-1.563l-.001-.002a3.077 3.077 0 00-2.842-1.882z" fill="#838383"/>
    <path d="M7.709 16.167c-.572 0-1.034.458-1.034 1.024a1.03 1.03 0 001.034 1.025c.57 0 1.032-.46 1.032-1.025 0-.566-.462-1.024-1.032-1.024z" fill="#ECECEC"/>
    <path d="M8.992 7.326H7.886c.08.034.137.113.137.205v2.453a.227.227 0 01-.226.225H5.18a.228.228 0 00.09.018h3.722c.124 0 .226-.1.226-.224V7.55a.226.226 0 00-.226-.224zM13.441 7.326h-1.02c.159.038.223.129.278.205l1.669 2.344c.071.1-.025.334-.149.334H11a.233.233 0 00.09.018h4.326c.123 0 .219-.233.147-.334L13.893 7.55c-.071-.1-.158-.224-.452-.224z" fill="#6BD9E7"/>
    <path d="M21.37 10.347h-1.04c.551 0 1.004.452 1.004 1.004v.645h1.041v-.645c0-.552-.452-1.004-1.004-1.004z" fill="#4FC122"/>
    <path d="M21.334 11.996h1.041v1.297h-1.041v-1.297z" fill="#6BD9E7"/>
    <path d="M22.375 16.028l-1.041-.003v.003h1.041zm-1.041-2.735v2.732l1.041.003v-2.735h-1.041z" fill="#4FC122"/>
    <path d="M17.51 16.167c-.572 0-1.034.458-1.034 1.024a1.03 1.03 0 001.033 1.025c.57 0 1.033-.46 1.033-1.025 0-.566-.463-1.024-1.033-1.024z" fill="#ECECEC"/>
    <path d="M2.298 7.923h1.085v6.93H2.298v-6.93zM19.344 14.743a3.104 3.104 0 00-2.172-.583 3.058 3.058 0 012.158 2.114 3.016 3.016 0 01.09 1.227 3.056 3.056 0 01-2.716 2.634c.257.069.527.106.805.106a3.07 3.07 0 003.05-2.65v-.002a3.015 3.015 0 00-.206-1.562s0-.002-.002-.003a3.029 3.029 0 00-1.007-1.281zM9.522 14.743a3.104 3.104 0 00-2.172-.583 3.058 3.058 0 012.158 2.114 3.018 3.018 0 01.09 1.227 3.056 3.056 0 01-2.716 2.634c.257.069.526.106.805.106a3.068 3.068 0 003.05-2.65v-.002a3.05 3.05 0 00-.206-1.562s0-.002-.002-.003a3.02 3.02 0 00-1.007-1.281z" fill="#595959"/>
  </g>
  <path d="M12.693 12.028h-1.302a.34.34 0 100 .679h1.302a.34.34 0 000-.679zM8.992 6.987H5.27a.566.566 0 00-.566.564v2.452c0 .311.254.564.566.564h3.722a.565.565 0 00.566-.564V7.551a.566.566 0 00-.566-.564zM8.88 9.888H5.383V7.666H8.88v2.222zM14.17 7.354a.673.673 0 01-.03-.05c-.054-.095-.181-.317-.47-.317h-2.58a.566.566 0 00-.567.564v2.452c0 .311.254.564.566.564h1.298a.34.34 0 000-.679h-1.185V7.666h2.363c.015.024.032.053.053.082l1.525 2.14h-1.217a.34.34 0 100 .68h1.49c.18 0 .344-.11.438-.293.103-.2.098-.42-.014-.579l-1.67-2.342zM7.71 15.828a1.37 1.37 0 00-1.374 1.364 1.37 1.37 0 001.373 1.364 1.37 1.37 0 001.372-1.364 1.37 1.37 0 00-1.372-1.364zm0 2.049a.69.69 0 01-.695-.685.69.69 0 01.694-.685.69.69 0 01.693.685.69.69 0 01-.693.685z" fill="#000"/>
  <path d="M22.715 15.742v-4.39c0-.741-.603-1.344-1.344-1.344h-2.338c-.683 0-.727-.024-1.17-.64l-1.989-2.756a14.63 14.63 0 01-.154-.22c-.361-.522-.77-1.112-1.56-1.112h-1.245v-.591c0-.7-.57-1.27-1.27-1.27H5.907c-.701 0-1.271.57-1.271 1.27v.59h-.27c-.729 0-1.321.592-1.321 1.32v.985H1.552C.973 7.584.5 8.055.5 8.634v5.507c0 .58.472 1.052 1.051 1.052h1.491v.49a1.125 1.125 0 00-1.115 1.123c0 .619.505 1.122 1.125 1.122h1.324a3.415 3.415 0 003.333 2.653 3.415 3.415 0 003.334-2.653h3.133a3.415 3.415 0 003.334 2.653 3.415 3.415 0 003.332-2.651l1.533.003h.003c.298 0 .58-.116.791-.328.214-.212.331-.494.331-.794 0-.5-.33-.924-.785-1.07zM9.115 4.098h2.529c.326 0 .592.265.592.591v.59H9.115V4.1zm-3.8.59c0-.325.266-.59.593-.59h2.528V5.28h-3.12v-.591zm-1.02 12.504v.057H3.053a.444.444 0 01-.446-.443c0-.244.2-.444.446-.444H4.398a3.362 3.362 0 00-.104.83zm5.814.34h.315a2.686 2.686 0 01-.562 1.33l-.216-.216a.34.34 0 00-.48.48l.212.211a2.737 2.737 0 01-1.33.543v-.292a.34.34 0 10-.678 0v.292a2.737 2.737 0 01-1.33-.543l.212-.21a.34.34 0 00-.48-.481l-.215.216a2.682 2.682 0 01-.562-1.33h.315a.34.34 0 000-.68h-.315c.063-.498.263-.954.561-1.33l.217.216a.338.338 0 00.48 0 .34.34 0 000-.48l-.213-.212a2.736 2.736 0 011.33-.544v.294a.34.34 0 10.679 0v-.294c.496.061.952.255 1.33.544l-.212.211a.34.34 0 00.48.48l.216-.215c.298.376.498.832.561 1.33h-.315a.34.34 0 000 .68zm3.985-.34l.002.057h-2.973l.002-.057a3.36 3.36 0 00-.104-.83h3.177a3.36 3.36 0 00-.104.83zm5.816.34h.314a2.682 2.682 0 01-.562 1.33l-.216-.216a.34.34 0 10-.48.48l.212.211a2.737 2.737 0 01-1.329.543v-.292a.34.34 0 10-.679 0v.292a2.737 2.737 0 01-1.329-.543l.211-.21a.34.34 0 00-.48-.481l-.215.216a2.682 2.682 0 01-.562-1.33h.315a.34.34 0 000-.68h-.315c.063-.498.263-.954.561-1.33l.217.216a.338.338 0 00.48 0 .34.34 0 000-.48l-.213-.212a2.736 2.736 0 011.33-.544v.294a.34.34 0 00.679 0v-.294c.497.061.952.255 1.33.543l-.212.212a.34.34 0 10.48.48l.216-.215c.298.376.498.832.56 1.33h-.314a.34.34 0 100 .68zm-2.4-3.73a3.421 3.421 0 00-3.058 1.882h-3.685a3.421 3.421 0 00-3.058-1.882 3.421 3.421 0 00-3.057 1.882H3.72l.002-3.27a.34.34 0 10-.679 0l-.001 2.1H1.55a.373.373 0 01-.372-.373v-.731h.363a.34.34 0 100-.679H1.18v-1.004h.363a.34.34 0 100-.679H1.18v-1.002h.363a.34.34 0 000-.68H1.18v-.732c0-.204.168-.371.374-.371h1.492v2.594a.34.34 0 10.679 0V6.599c0-.353.288-.64.642-.64H14.16c.413 0 .65.311 1.002.82.053.076.106.154.162.23l1.988 2.756c.538.748.761.922 1.72.922h2.34c.366 0 .664.299.664.665v.305H21.03a.812.812 0 00-.81.81v.356c0 .447.363.81.81.81h1.006v2.055l-1.468-.003a3.421 3.421 0 00-3.058-1.883zm4.526-1.466v.618H21.03a.133.133 0 01-.132-.131v-.356c0-.071.06-.131.132-.131h1.006zm.654 4.788a.431.431 0 01-.314.13l-1.453-.003.002-.06c0-.284-.036-.561-.103-.826l1.553.003c.246 0 .446.2.446.444a.44.44 0 01-.131.312z" fill="#000"/>
  <path d="M17.51 15.828a1.37 1.37 0 00-1.373 1.364 1.37 1.37 0 001.373 1.364 1.37 1.37 0 001.372-1.364 1.37 1.37 0 00-1.372-1.364zm0 2.049a.69.69 0 01-.694-.685.69.69 0 01.694-.685.69.69 0 01.693.685.69.69 0 01-.693.685z" fill="#000"/>
</svg>
