<svg width="24" height="24" fill="none" xmlns="http://www.w3.org/2000/svg">
  <defs/>
  <path d="M6.146 9.708H.836v-4.5c0-.447.363-.809.81-.809h4.5v5.309z" fill="#D77D4B"/>
  <path d="M4.448 4.399v2.136c0 .814-.66 1.475-1.475 1.475H.837v1.698h5.309V4.399H4.448z" fill="#C56D36"/>
  <path d="M6.146 15.017h-4.5a.809.809 0 01-.81-.809v-4.5h5.31v5.309z" fill="#D77D4B"/>
  <path d="M4.448 9.708v2.136c0 .814-.66 1.475-1.475 1.475H.837v.89c0 .446.362.808.808.808h4.5v-5.31H4.449z" fill="#C56D36"/>
  <path d="M6.146 4.399h5.308v5.309H6.146V4.399z" fill="#D77D4B"/>
  <path d="M9.757 4.399v2.136c0 .814-.66 1.475-1.476 1.475H6.146v1.698h5.308V4.399H9.757z" fill="#C56D36"/>
  <path d="M6.146 9.708h5.308v5.309H6.146v-5.31z" fill="#D77D4B"/>
  <g fill="#C56D36">
    <path d="M9.756 9.708v2.136c0 .815-.66 1.475-1.476 1.475H6.145v1.698h5.308V9.708H9.756zM4.447 4.399v2.136c0 .814-.66 1.475-1.475 1.475H.836v1.698h5.309V4.399H4.447zM4.447 9.708v2.136c0 .815-.66 1.475-1.475 1.475H.836v.89c0 .446.362.808.808.808h4.5V9.708H4.448z"/>
    <path d="M9.756 4.4v2.135c0 .815-.66 1.475-1.476 1.475H6.145v1.698h5.308V4.4H9.756zM9.756 9.708v2.136c0 .815-.66 1.475-1.476 1.475H6.145v1.698h5.308V9.708H9.756z"/>
  </g>
  <path d="M20.205 15.017h-9.467a.584.584 0 01-.44-.2L7.36 11.46a.584.584 0 01-.063-.68l4.38-7.43a.449.449 0 01.703-.089L13.52 4.4h6.685v10.618z" fill="#E1DEE2"/>
  <path d="M11.195 13.093L8.051 9.501l-.754 1.279a.584.584 0 00.063.68l2.939 3.357c.11.127.27.2.439.2h9.467v-1.725h-8.57a.584.584 0 01-.44-.199z" fill="#C8C2C9"/>
  <path d="M22.355 15.017H13.52V4.399h8.835c.446 0 .808.362.808.809v9a.809.809 0 01-.808.809z" fill="#FB4753"/>
  <path d="M22.355 4.399h-.86v8.022a.89.89 0 01-.89.89H13.52v1.706h8.835a.808.808 0 00.808-.808V5.207a.808.808 0 00-.808-.808z" fill="#E21F2D"/>
  <path d="M15.91 11.577c.472 1.348 2.326 2.36 2.326 2.36s1.855-1.012 2.327-2.36a.225.225 0 00-.212-.3h-4.229a.225.225 0 00-.212.3z" fill="#FDB1B9"/>
  <path d="M20.35 11.277h-1.286c.155 0 .263.154.212.3-.29.827-1.1 1.528-1.683 1.946.366.263.643.414.643.414s1.855-1.012 2.326-2.36a.225.225 0 00-.211-.3z" fill="#FC8086"/>
  <path d="M20.563 20.57c-.472-1.347-2.326-2.36-2.326-2.36s-1.855 1.013-2.327 2.36c-.05.147.057.3.212.3h4.229a.225.225 0 00.212-.3z" fill="#FDB1B9"/>
  <path d="M20.562 20.57c-.471-1.347-2.326-2.36-2.326-2.36s-.277.152-.643.415c.583.418 1.393 1.118 1.683 1.945a.225.225 0 01-.212.3h1.287a.225.225 0 00.211-.3z" fill="#FC8086"/>
  <path d="M18.237 18.733c1.205 0 2.181-1.19 2.181-2.66 0-1.468-.976-2.659-2.181-2.659s-2.181 1.191-2.181 2.66.976 2.66 2.18 2.66z" fill="#FDB1B9"/>
  <path d="M19.027 13.595c.106.312.164.654.164 1.012 0 1.47-.976 2.66-2.181 2.66-.279 0-.545-.065-.79-.18.326.966 1.106 1.646 2.017 1.646 1.205 0 2.181-1.19 2.181-2.66 0-1.128-.577-2.092-1.39-2.478z" fill="#FC8086"/>
  <path d="M23.163 12.167c.186 0 .337-.151.337-.337V5.207c0-.631-.514-1.145-1.145-1.145H13.66l-1.042-1.04a.78.78 0 00-.654-.222.78.78 0 00-.577.38l-.52.882H1.645C1.014 4.062.5 4.576.5 5.207v9.002c0 .63.514 1.144 1.145 1.144h14.148c-.048.231-.074.473-.074.72 0 1.11.509 2.079 1.263 2.597-.55.453-1.138 1.071-1.39 1.79a.564.564 0 00.53.747h4.229a.562.562 0 00.53-.748c-.251-.716-.836-1.334-1.39-1.79.754-.517 1.263-1.486 1.263-2.595 0-.249-.026-.49-.074-.72h1.675c.631 0 1.145-.514 1.145-1.145V13.4a.337.337 0 00-.673 0v.808c0 .26-.212.471-.472.471h-1.89a2.851 2.851 0 00-.974-1.202c.553-.455 1.139-1.073 1.39-1.79a.564.564 0 00-.53-.747h-4.229a.562.562 0 00-.53.747c.251.716.836 1.334 1.39 1.79-.412.283-.75.7-.973 1.202h-2.152V4.736h8.498c.26 0 .472.211.472.471v6.623c0 .186.15.337.336.337zm-2.977 8.367h-3.9c.277-.623.878-1.17 1.377-1.543a2.13 2.13 0 001.146 0c.672.503 1.153 1.042 1.377 1.543zm-3.899-8.92h3.899c-.224.5-.705 1.04-1.377 1.543a2.133 2.133 0 00-1.145 0c-.672-.503-1.153-1.043-1.377-1.543zm1.95 2.137c1.017 0 1.844 1.042 1.844 2.323 0 1.28-.827 2.323-1.845 2.323-1.017 0-1.844-1.042-1.844-2.323s.827-2.323 1.845-2.323zm-17.064.458v-4.164h.876a.337.337 0 000-.674h-.876V5.207c0-.26.212-.471.472-.471h4.164V9.37H3.626a.337.337 0 100 .674h2.183v4.635H1.645a.472.472 0 01-.472-.471zm5.31-4.164h.857l-.333.564a.919.919 0 00.1 1.073l2.624 2.998H6.482v-4.635zm4.255 4.635a.247.247 0 01-.186-.084l-2.938-3.357a.247.247 0 01-.027-.288l2.005-3.402a.337.337 0 10-.58-.342L7.737 9.371H6.482V4.736h3.987l-.7 1.187a.337.337 0 10.58.342l1.618-2.743a.11.11 0 01.082-.054.11.11 0 01.094.031l1.041 1.04V14.68h-2.446z" fill="#000"/>
</svg>
