<svg width="24" height="24" fill="none" xmlns="http://www.w3.org/2000/svg">
  <defs/>
  <path d="M2.428 20.957a.367.367 0 01.59 0c.367.496.95.792 1.56.792.612 0 1.196-.296 1.562-.791a.367.367 0 01.591 0c.365.495.947.791 1.559.791a1.93 1.93 0 001.561-.792.367.367 0 01.59.001c.365.495.948.791 1.56.791a1.95 1.95 0 001.56-.791.367.367 0 01.59 0c.372.502.94.791 1.56.791a1.95 1.95 0 001.56-.791.367.367 0 01.59 0c.367.495.95.791 1.562.791.611 0 1.194-.296 1.559-.791a.367.367 0 01.59 0c.372.502.941.791 1.561.791V19.34c-.693 0-1.36-.275-1.855-.752a2.68 2.68 0 01-1.855.752c-.694 0-1.36-.275-1.856-.753a2.685 2.685 0 01-1.856.753c-.704 0-1.36-.27-1.856-.752A2.699 2.699 0 0112 19.34a2.647 2.647 0 01-.877-.15 2.692 2.692 0 01-.977-.601 2.647 2.647 0 01-1.856.752 2.68 2.68 0 01-1.855-.753 2.7 2.7 0 01-1.857.752 2.643 2.643 0 01-.878-.15 2.7 2.7 0 01-.977-.603 2.684 2.684 0 01-1.856.753v2.409c.62 0 1.19-.289 1.561-.791z" fill="#6DA8D6"/>
  <path d="M10.753 3.083a4.037 4.037 0 00-2.465-.832A4.083 4.083 0 004.21 6.33v3.997h.734V6.329a3.34 3.34 0 015.538-2.521.367.367 0 01.035.518l-.015.015c.223.248.404.533.534.844a4.79 4.79 0 01.735-1.615 4.484 4.484 0 00-.513-.545.367.367 0 01-.505.058zM4.944 12.528H4.21v1.468h.734v-1.468zM4.944 18.57v-2.372H4.21v2.372a1.904 1.904 0 00.734 0z" fill="#98D9D5"/>
  <path d="M10.899 11.06H4.21v.734h6.689v-.734zM10.899 14.73H4.21v.734h6.689v-.734zM11.633 18.57a1.904 1.904 0 00.734 0V6.33c0-1.845 1.5-3.345 3.344-3.345 1.844 0 3.344 1.5 3.344 3.344a.367.367 0 00.734 0 4.083 4.083 0 00-4.078-4.078 4.083 4.083 0 00-4.078 4.078V18.57z" fill="#C1E8E6"/>
  <path d="M23.133 21.749c-.62 0-1.19-.288-1.56-.791a.367.367 0 00-.592 0c-.364.495-.947.791-1.559.791a1.95 1.95 0 01-1.56-.791.367.367 0 00-.59 0 1.95 1.95 0 01-1.562.791 1.924 1.924 0 01-1.559-.791.367.367 0 00-.59 0 1.95 1.95 0 01-1.561.791 1.944 1.944 0 01-1.559-.79.367.367 0 00-.59-.002 1.93 1.93 0 01-1.561.792 1.944 1.944 0 01-1.56-.79.367.367 0 00-.59-.002c-.366.496-.95.792-1.563.792a1.95 1.95 0 01-1.559-.792.367.367 0 00-.59 0c-.372.503-.94.792-1.561.792a.367.367 0 100 .734c.693 0 1.36-.276 1.856-.753a2.682 2.682 0 001.854.753c.695 0 1.362-.275 1.858-.753a2.68 2.68 0 001.855.753c.703 0 1.36-.27 1.856-.752a2.68 2.68 0 001.854.752c.693 0 1.36-.275 1.855-.752a2.642 2.642 0 001.855.752c.694 0 1.361-.276 1.857-.753a2.685 2.685 0 001.856.753 2.68 2.68 0 001.854-.753 2.685 2.685 0 001.856.753.367.367 0 000-.734zM3.7 19.19a2.643 2.643 0 001.755 0c.364-.127.7-.332.98-.602a2.68 2.68 0 001.855.752c.703 0 1.36-.27 1.856-.752A2.69 2.69 0 0012 19.34a2.648 2.648 0 00.878-.15c.363-.128.697-.332.977-.602a2.642 2.642 0 001.855.752c.694 0 1.361-.275 1.857-.753a2.685 2.685 0 001.856.753 2.68 2.68 0 001.854-.752 2.685 2.685 0 001.856.752.367.367 0 100-.734c-.62 0-1.19-.288-1.56-.791a.367.367 0 00-.592 0 1.944 1.944 0 01-1.558.791 1.95 1.95 0 01-1.561-.791.367.367 0 00-.59 0 1.95 1.95 0 01-1.561.791 1.924 1.924 0 01-1.56-.791.367.367 0 00-.59 0 1.954 1.954 0 01-.46.444V6.33c0-1.439 1.171-2.61 2.61-2.61 1.44 0 2.61 1.171 2.61 2.61a1.102 1.102 0 002.203 0 4.81 4.81 0 00-8.753-2.76 4.793 4.793 0 00-.872 2.76v3.997h-5.22V6.329A2.606 2.606 0 0110 4.361a.367.367 0 00.503-.02l.015-.015a.367.367 0 00-.036-.518 3.34 3.34 0 00-5.538 2.521v3.997H4.21V6.329A4.083 4.083 0 018.29 2.251c.898 0 1.75.288 2.465.832.157.12.38.093.504-.058l.01-.011a.367.367 0 00-.07-.515 4.764 4.764 0 00-2.91-.982 4.818 4.818 0 00-4.812 4.812v11.93c-.173-.121-.33-.27-.458-.444a.367.367 0 00-.59 0c-.372.503-.94.791-1.561.791a.367.367 0 100 .734c.693 0 1.36-.275 1.856-.753.28.27.614.475.977.603zm7.199-8.13v.734H4.21v-.734H10.9zm4.812-8.809A4.083 4.083 0 0119.79 6.33a.367.367 0 01-.735 0c0-1.844-1.5-3.344-3.344-3.344a3.348 3.348 0 00-3.344 3.344V18.57a1.904 1.904 0 01-.734 0V6.33a4.083 4.083 0 014.078-4.079zm-5.565 15.415a.367.367 0 00-.295.148 1.93 1.93 0 01-1.561.792 1.944 1.944 0 01-1.56-.79.367.367 0 00-.59-.001 1.95 1.95 0 01-.461.445v-2.062h5.22v2.061a1.94 1.94 0 01-.458-.444.367.367 0 00-.295-.149zm.753-3.67h-5.22v-1.468h5.22v1.468zm-5.955-1.468v1.468H4.21v-1.468h.734zM10.9 14.73v.734H4.21v-.734H10.9zM4.21 16.198h.734v2.372a1.912 1.912 0 01-.734 0v-2.372z" fill="#082947"/>
</svg>
