<svg width="24" height="24" fill="none" xmlns="http://www.w3.org/2000/svg">
  <defs/>
  <path d="M23.078 2.72v18.56c0 .996-.808 1.804-1.805 1.804H2.715A1.802 1.802 0 01.91 21.279V2.721c0-.997.809-1.805 1.805-1.805h18.558c.997 0 1.805.808 1.805 1.805z" fill="#BAC6CC"/>
  <path d="M21.088 20.133l-1.942 2.95H2.714c-.54 0-1.024-.236-1.355-.611l1.54-2.339h18.189z" fill="#AEB6BA"/>
  <path d="M3.396 21.095h17.197a.496.496 0 00.496-.496V3.402a.496.496 0 00-.496-.497H3.396a.496.496 0 00-.497.497v17.196c0 .275.223.497.497.497z" fill="#CFDCE5"/>
  <path d="M11.994 2.905l-1.887 18.19h1.887V2.905z" fill="#BAC6CC"/>
  <path d="M21.279.5h-3.473a.416.416 0 000 .832h3.473a1.39 1.39 0 011.389 1.389v18.558a1.39 1.39 0 01-1.389 1.389H2.721a1.39 1.39 0 01-1.389-1.389V2.721a1.39 1.39 0 011.389-1.389h13.697a.416.416 0 000-.832H2.721C1.496.5.5 1.496.5 2.72v18.56c0 1.224.996 2.22 2.22 2.22h18.56c1.224 0 2.22-.996 2.22-2.22V2.72c0-1.224-.996-2.22-2.221-2.22z" fill="#000"/>
  <path d="M6.959 21.51h13.64c.503 0 .912-.408.912-.912V3.402a.913.913 0 00-.912-.913H3.402a.913.913 0 00-.913.913v17.196c0 .504.41.913.913.913h2.17a.416.416 0 000-.832h-2.17a.08.08 0 01-.08-.08V3.401a.08.08 0 01.08-.08h8.182V6.65a.416.416 0 10.832 0V3.321H20.6a.08.08 0 01.08.08v17.197a.08.08 0 01-.08.08h-8.183V8.039a.416.416 0 00-.832 0v12.64H6.959a.416.416 0 000 .833z" fill="#000"/>
  <path d="M17.75 5.985a.416.416 0 000-.833h-2.247a.416.416 0 100 .833h2.247zM8.9 5.568a.416.416 0 00-.415-.416H6.237a.416.416 0 000 .833h2.248c.23 0 .416-.187.416-.417z" fill="#000"/>
</svg>
