<svg width="24" height="24" fill="none" xmlns="http://www.w3.org/2000/svg">
  <defs/>
  <path d="M19.905 13.015l-2.918-2.37a.59.59 0 01-.215-.4L16.4 6.504a.59.59 0 00-.867-.462L1.146 13.796a.59.59 0 00-.092.978l2.918 2.37c.122.1.2.243.215.4l.371 3.741a.59.59 0 00.867.462l14.388-7.755a.59.59 0 00.092-.977zm-5.305.076a1.347 1.347 0 110-2.695 1.347 1.347 0 010 2.695z" fill="#FB850A"/>
  <path d="M19.905 13.015l-.782-.636a.588.588 0 01-.301.623l-14.32 7.717.056.566a.59.59 0 00.867.462l14.388-7.755a.59.59 0 00.092-.977z" fill="#F16600"/>
  <path d="M20.117 12.754l-.91-.74a.336.336 0 10-.424.523l.91.739c.096.077.097.18.093.22a.251.251 0 01-.133.2L5.266 21.451a.252.252 0 01-.24 0 .251.251 0 01-.133-.199l-.37-3.741a.932.932 0 00-.339-.628l-2.918-2.37a.251.251 0 01-.092-.22.251.251 0 01.132-.2l1.088-.587a.336.336 0 10-.32-.592L.988 13.5a.924.924 0 00-.145 1.535l2.919 2.37a.256.256 0 01.092.172l.37 3.741a.924.924 0 001.362.725l14.387-7.754a.924.924 0 00.145-1.535z" fill="#000"/>
  <path d="M10.834 10.605a.336.336 0 00-.415.233l-1.858 6.607a.336.336 0 10.648.182l1.857-6.607a.336.336 0 00-.232-.415zM8 12.513a1.208 1.208 0 10-.325 2.368A1.208 1.208 0 008 12.513zm-.065 1.628a.535.535 0 11-.523-.934.535.535 0 01.523.934zM10.865 15.392a1.199 1.199 0 001.054.617 1.2 1.2 0 00.589-.155c.281-.157.484-.415.571-.725a1.208 1.208 0 00-1.752-1.379 1.208 1.208 0 00-.462 1.642zm.791-1.056a.535.535 0 11.523.933.535.535 0 01-.523-.933z" fill="#000"/>
  <path d="M22.475 2.363a2.576 2.576 0 00-3.604.508c-.727.967-.879 4.278-.905 5.098-.247.14-.666.42-.997.857l-.233-2.356a.924.924 0 00-1.361-.724L3.367 12.218a.336.336 0 10.32.592l12.007-6.472a.251.251 0 01.24 0c.035.019.12.077.133.199l.37 3.74a.932.932 0 00.338.629l.593.481a1.12 1.12 0 01-1.088.261 1.667 1.667 0 00-.015-.154l-.001-.007A1.686 1.686 0 0014.6 10.06c-.929 0-1.684.755-1.684 1.683 0 .929.755 1.684 1.684 1.684.726 0 1.347-.463 1.582-1.109a1.79 1.79 0 001.846-.664c.472-.628.584-2.596.609-3.3.864-.334 3.65-1.463 4.347-2.388a2.576 2.576 0 00-.51-3.603zM14.6 12.755a1.012 1.012 0 010-2.023c.41 0 .763.245.921.597h-.003c-.179.051-.269.234-.232.416.04.194.266.284.28.295a1.013 1.013 0 01-.966.715zm2.506-2.543v-.01a4.08 4.08 0 01.143-.509c.146-.397.435-.697.693-.899-.044.693-.133 1.47-.264 1.979l-.48-.39a.256.256 0 01-.092-.171zm5.34-4.65c-.487.647-2.595 1.584-3.793 2.063.063-1.327.27-3.705.755-4.35A1.9 1.9 0 0122.07 2.9c.406.305.669.75.74 1.253a1.89 1.89 0 01-.364 1.409z" fill="#000"/>
</svg>
