<svg width="24" height="24" fill="none" xmlns="http://www.w3.org/2000/svg">
  <defs/>
  <g fill="#353535">
    <path d="M15.356 20.642h-1.287v2.457h1.287v-2.457zM15.356.9h-1.287v11.908h1.287V.9z"/>
  </g>
  <path d="M8.268 13.434H5.927v6.444h2.341v-6.444z" fill="#EFE7E4"/>
  <path d="M8.268 18.978H5.927v.9h2.341v-.9z" fill="#D8D1D0"/>
  <path d="M5.926 12.808H.836v7.696h5.09v-7.696z" fill="#546F7A"/>
  <path d="M5.926 19.605H.836v.9h5.09v-.9z" fill="#465A65"/>
  <path d="M14.182 20.642h-1.836a2.763 2.763 0 01-1.738-.615l-.73-.592h-1.61v-5.459h1.61l.488-.528a1.99 1.99 0 011.462-.64h4.881c0 .82-.665 1.486-1.486 1.486h-1.04v6.348z" fill="#F7B081"/>
  <path d="M13.514 15.098c0-.438.355-.793.793-.793h2.97a.793.793 0 010 1.586h-2.97a.793.793 0 01-.793-.793z" fill="#FFC89F"/>
  <path d="M17.277 15.216h-2.97a.792.792 0 01-.717-.455.793.793 0 00.717 1.13h2.97a.793.793 0 00.717-1.13.792.792 0 01-.717.455z" fill="#F7B081"/>
  <path d="M13.514 18.27c0-.438.355-.793.793-.793h2.97a.793.793 0 010 1.585h-2.97a.793.793 0 01-.793-.792z" fill="#FFC89F"/>
  <path d="M17.277 18.388h-2.97a.792.792 0 01-.717-.456.793.793 0 00.717 1.13h2.97a.793.793 0 00.717-1.13.792.792 0 01-.717.456z" fill="#F7B081"/>
  <path d="M13.514 19.855c0-.438.355-.793.793-.793h2.152a.793.793 0 010 1.586h-2.152a.793.793 0 01-.793-.793z" fill="#FFC89F"/>
  <path d="M16.46 19.974h-2.154a.792.792 0 01-.716-.456.793.793 0 00.717 1.13h2.152a.793.793 0 00.717-1.13.792.792 0 01-.717.456z" fill="#F7B081"/>
  <path d="M13.514 16.684c0-.438.355-.793.793-.793h3.336a.793.793 0 010 1.586h-3.337a.793.793 0 01-.792-.793z" fill="#FFC89F"/>
  <path d="M17.643 16.802h-3.337a.792.792 0 01-.716-.456.793.793 0 00.717 1.13h3.336a.793.793 0 00.717-1.13.792.792 0 01-.717.456z" fill="#F7B081"/>
  <path d="M15.383 1.802l-.027 3.78.027 3.78 7.78-3.78-7.78-3.78z" fill="#F2464F"/>
  <path d="M15.383 8.462l-.024-3.33-.004.45.028 3.78 7.78-3.78-.926-.45-6.854 3.33z" fill="#D3333C"/>
  <path d="M13.514 19.855c0-.438.355-.793.793-.793a.793.793 0 010-1.585.793.793 0 010-1.586.793.793 0 010-1.586h-.9a.793.793 0 000 1.586.793.793 0 000 1.586.793.793 0 000 1.585.793.793 0 000 1.586h.9a.793.793 0 01-.793-.793z" fill="#DD9A76"/>
  <path d="M4.326 19.435a.48.48 0 100-.96.48.48 0 000 .96z" fill="#000"/>
  <path d="M23.31 5.278l-4.163-2.022a.337.337 0 10-.294.607l3.538 1.719-6.675 3.243-.023-3.243.023-3.243 2.245 1.09a.337.337 0 00.295-.606l-2.563-1.246V.901a.337.337 0 00-.338-.338H14.07a.337.337 0 00-.337.338v11.57h-1.904c-.647 0-1.27.272-1.71.748l-.388.42H8.605v-.205a.337.337 0 00-.337-.337H6.264v-.29a.337.337 0 00-.338-.337H.837a.337.337 0 00-.337.338v1.413a.337.337 0 00.675 0v-1.076h4.414v7.023H1.175v-4.823a.337.337 0 10-.675 0v5.16c0 .186.151.337.337.337h5.09a.337.337 0 00.337-.338v-.289h2.004a.337.337 0 00.337-.337v-.106H9.76l.637.517a3.11 3.11 0 001.95.69h1.386v2.12c0 .187.15.338.337.338h1.286a.337.337 0 00.338-.338v-2.114h.767a1.131 1.131 0 001.025-1.605 1.132 1.132 0 00.739-1.727 1.13 1.13 0 000-1.939 1.132 1.132 0 00-.947-1.746h-.648c.26-.316.418-.72.418-1.16a.337.337 0 00-.338-.338h-1.016V9.586l7.617-3.7a.337.337 0 000-.608zM7.93 19.54H6.265v-5.768H7.93v5.768zm9.714-3.312a.456.456 0 010 .911h-3.337a.456.456 0 010-.91h3.337zm-4.142-.337a.768.768 0 00-.021.023 4.18 4.18 0 00.013-.032l.008.009zm1.516 6.871h-.612v-1.777h.612v1.777zm1.441-2.451h-1.04a.34.34 0 00-.064-.006h-1.12a.456.456 0 01.072-.905h2.153a.456.456 0 010 .91zm.818-1.586H14.307a.456.456 0 010-.911h2.97a.456.456 0 010 .911zm.456-3.627a.456.456 0 01-.456.456h-2.97a.456.456 0 010-.911h2.97c.251 0 .456.204.456.455zm-2.51-1.142h-1.652a.338.338 0 00-.335.301c-.001.008-.09.779-.436 1.53-.432.936-1.052 1.41-1.843 1.41a.337.337 0 100 .675c.93 0 1.696-.478 2.238-1.388a1.13 1.13 0 00.307.993 1.126 1.126 0 000 1.585 1.126 1.126 0 00-.232 1.243h-.923a2.432 2.432 0 01-1.526-.54l-.73-.592a.338.338 0 00-.213-.075H8.605V14.314h1.273c.094 0 .184-.04.248-.109l.488-.528a1.657 1.657 0 011.214-.532h4.494a1.15 1.15 0 01-1.099.812zm-.817-1.486V1.239h.612V12.47h-.612z" fill="#000"/>
</svg>
