<svg width="24" height="24" fill="none" xmlns="http://www.w3.org/2000/svg">
  <defs/>
  <g fill-rule="evenodd" clip-rule="evenodd">
    <path d="M9.86 5.689v1.136l.996.527.997-.527V5.69a.809.809 0 00-.807-.807h-.378a.81.81 0 00-.809.807z" fill="#ECECEC"/>
    <path d="M11.046 4.882h-.378a.804.804 0 00-.255.041c.32.108.553.411.553.766v1.136h.887V5.69a.809.809 0 00-.807-.807z" fill="#CECECE"/>
    <path d="M22.291 15.017v-2.675c0-.732-.134-1.06-.976-1.23l-2.809-.5c-1.008-.171-.603-.096-1.227-.725L15.13 7.72c-.471-.476-.761-.895-1.64-.895H8.417c-.804 0-1.087.227-1.547.77l-2.008 2.08c-.671.696-.64.692-1.397.692h-.768c-.732 0-1.027.598-1.027 1.328v3.322l10.73.767 9.891-.767z" fill="#FFD659"/>
    <path d="M11.18 10.105c0 .284.289.513.641.513h3.528c.066-.003.12-.054.12-.115v-.154c0-.208-.041-.273-.35-.598L13.84 8.56c-.225-.21-.335-.388-.66-.388h-1.858c-.076 0-.137.055-.141.124v1.81zM6.622 10.503c0 .061.054.112.12.115H9.22c.353 0 .642-.23.642-.513v-1.81c-.004-.069-.066-.124-.141-.124h-.945c-.325 0-.447.167-.66.388L6.97 9.751c-.308.325-.348.39-.348.598v.154zM20.45 13.18a.48.48 0 00.478.478h1.363v-1.316h-1.363a.48.48 0 00-.479.478v.36z" fill="#A6E7F0"/>
    <path d="M5.609 15.017H1.608a.769.769 0 000 1.536H4.92a2.403 2.403 0 01.688-1.536zM14.282 15.017h-7.06c.394.4.649.94.687 1.536H16.892a2.403 2.403 0 01.688-1.536h-3.298zM22.292 15.017h-3.098c.394.4.65.94.687 1.536h2.511a.771.771 0 00.77-.769.771.771 0 00-.77-.767h-.1z" fill="#ACACAC"/>
    <path d="M16.666 15.017a2.401 2.401 0 00-.691 1.69 2.412 2.412 0 004.825 0c0-.052-.003-.103-.006-.154a2.403 2.403 0 00-.687-1.536 2.424 2.424 0 00-3.441 0z" fill="#838383"/>
    <path d="M18.386 15.802a.958.958 0 10-.001 1.916.958.958 0 00.001-1.916z" fill="#E6E6E6"/>
    <path d="M6.414 14.296c-.673 0-1.282.276-1.72.721a2.403 2.403 0 00-.692 1.69 2.412 2.412 0 102.412-2.411z" fill="#838383"/>
    <path d="M6.414 15.75a.958.958 0 100 1.915.958.958 0 000-1.915z" fill="#E6E6E6"/>
    <path d="M5.958 19.074a2.411 2.411 0 100-4.735c2.59.496 2.598 4.238 0 4.735z" fill="#595959"/>
    <path d="M1.67 11.7v1.497h1.605c.219 0 .397-.18.397-.397v-.704a.398.398 0 00-.397-.397H1.671z" fill="#FE636E"/>
    <path d="M17.93 19.074a2.412 2.412 0 002.87-2.368c0-.051-.003-.102-.006-.153a2.412 2.412 0 00-2.864-2.214c2.59.496 2.597 4.238 0 4.735z" fill="#595959"/>
    <path d="M20.408 10.95c.842.171.978.454.978 1.186v.206h.905c0-.732-.135-1.06-.976-1.23l-.907-.162z" fill="#FFBF00"/>
    <path d="M21.386 12.342v1.316h.905v-1.316h-.905z" fill="#6BD9E7"/>
    <path d="M21.386 13.658h.905v1.36h-.905v-1.36z" fill="#FFBF00"/>
    <path d="M9.012 8.295v1.81c0 .284-.29.513-.642.513h.85c.353 0 .642-.23.642-.513v-1.81c-.004-.07-.066-.124-.141-.124h-.71v.124zM15.12 9.751L13.839 8.56c-.226-.21-.335-.388-.66-.388h-.74l1.488 1.58c.308.325.347.39.347.598v.154c0 .061-.052.112-.12.115h1.195c.066-.003.12-.054.12-.115v-.154c0-.208-.041-.273-.35-.598z" fill="#6BD9E7"/>
    <path d="M3.276 11.7h-.802c.219 0 .397.179.397.396v.704a.398.398 0 01-.397.397h.802c.219 0 .397-.18.397-.397v-.704a.398.398 0 00-.397-.397z" fill="#FB2A39"/>
  </g>
  <path d="M18.386 15.463c-.716 0-1.298.581-1.298 1.296a1.299 1.299 0 002.595 0c0-.715-.582-1.296-1.297-1.296zm0 1.914a.619.619 0 110-1.234.619.619 0 010 1.234zM6.414 15.41a1.298 1.298 0 000 2.594 1.3 1.3 0 001.298-1.297c0-.715-.582-1.296-1.298-1.296zm0 1.915a.619.619 0 11.002-1.238.619.619 0 01-.002 1.238z" fill="#000"/>
  <path d="M22.63 14.704v-2.362c0-.83-.204-1.352-1.248-1.563l-.008-.002-2.811-.5-.038-.007c-.293-.05-.524-.088-.566-.115-.012-.009-.046-.053-.073-.089-.07-.09-.175-.225-.366-.418l-1.61-1.624-.54-.543-.15-.155c-.397-.413-.807-.84-1.731-.84h-1.297v-.797c0-.632-.514-1.146-1.146-1.146h-.378c-.633 0-1.148.514-1.148 1.146v.797H8.417c-.903 0-1.272.26-1.799.881L4.617 9.439l-.07.073c-.26.27-.404.42-.512.47-.092.044-.228.046-.555.046h-.783c-.843 0-1.367.639-1.367 1.667v3.018a1.109 1.109 0 00.277 2.18H3.67a2.754 2.754 0 002.745 2.564 2.754 2.754 0 002.745-2.565h2.392a.34.34 0 100-.679h-2.43a2.736 2.736 0 00-.31-.856h7.22a2.313 2.313 0 00-.35.856h-2.598a.34.34 0 100 .68h2.558a2.754 2.754 0 002.746 2.564 2.754 2.754 0 002.744-2.565h1.26a1.11 1.11 0 001.109-1.108c0-.528-.373-.97-.87-1.08zM10.2 5.689c0-.258.21-.467.469-.467h.378c.258 0 .468.21.468.467v.797h-1.315v-.797zm-8.19 6.35h1.266a.06.06 0 01.058.057v.704a.06.06 0 01-.058.057H2.009v-.818zm1.698 4.174h-2.1a.43.43 0 010-.856h2.411c-.148.262-.255.55-.31.856zm2.707 2.565a2.075 2.075 0 01-2.073-2.071c0-1.143.93-2.072 2.073-2.072 1.143 0 2.073.93 2.073 2.072s-.93 2.071-2.073 2.071zm1.859-4.1a2.74 2.74 0 00-1.858-.721 2.74 2.74 0 00-1.858.72H2.01v-1.141h1.266c.406 0 .737-.33.737-.736v-.704a.737.737 0 00-.737-.736h-1.24c.059-.346.232-.653.662-.653h.78c.838 0 .922-.062 1.56-.725l2.077-2.151a.384.384 0 00.015-.017c.416-.49.607-.65 1.288-.65h5.072c.635 0 .863.238 1.241.633l.158.162.54.543 1.61 1.625c.162.163.248.274.31.355.248.32.357.338 1.064.458l2.839.505c.497.101.645.219.686.557h-1.01a.819.819 0 00-.818.818v.36c0 .451.367.818.818.818h1.025v.68h-1.709a2.73 2.73 0 00-1.856-.722c-.696 0-1.35.255-1.859.722H8.273zM21.95 12.68v.638h-1.024a.141.141 0 01-.139-.139v-.36c0-.075.064-.139.14-.139h1.023zm-3.564 6.097a2.075 2.075 0 01-2.074-2.071 2.075 2.075 0 014.146 0c0 1.142-.93 2.071-2.072 2.071zm4.005-2.565h-1.3a2.316 2.316 0 00-.35-.856h1.649a.43.43 0 110 .856z" fill="#000"/>
  <path d="M10.708 11.637h-.337a.34.34 0 100 .679h.337a.34.34 0 100-.679zM9.66 12.582h-.338a.34.34 0 100 .68h.339a.34.34 0 000-.68zM11.757 12.582h-.338a.34.34 0 100 .68h.338a.34.34 0 000-.68zM15.35 9.503L14.07 8.31c-.036-.034-.07-.067-.101-.099-.179-.178-.382-.38-.79-.38h-1.858a.476.476 0 00-.481.463v1.81c0 .47.44.852.981.852h.495a.34.34 0 000-.679h-.495c-.184 0-.302-.102-.302-.173V8.511h1.66c.123 0 .16.031.31.182l.118.115 1.274 1.185c.166.176.221.238.24.285h-1.375a.34.34 0 100 .68h1.603l.013-.001a.458.458 0 00.446-.454v-.154c0-.352-.128-.5-.442-.831a.403.403 0 00-.015-.015zM10.201 10.105v-1.81-.02a.476.476 0 00-.48-.443h-.945c-.439 0-.655.228-.846.43l-.06.062-1.147 1.194c-.314.33-.44.478-.44.831v.154c0 .245.195.444.445.454h2.493c.54 0 .98-.382.98-.852zm-2.987-.118l1.145-1.192a9.39 9.39 0 00.064-.066c.17-.18.211-.218.353-.218h.746v1.594c0 .07-.117.173-.302.173H6.97c.017-.048.072-.11.244-.291z" fill="#000"/>
</svg>
