<svg width="24" height="24" fill="none" xmlns="http://www.w3.org/2000/svg">
  <defs/>
  <path d="M13.319 21.717H9.264a.823.823 0 01-.823-.823v-1.823h5.7v1.823a.823.823 0 01-.822.823z" fill="#E3E0E2"/>
  <path d="M12.448 19.07v1.825a.822.822 0 01-.821.822h1.693a.822.822 0 00.822-.822V19.07h-1.694z" fill="#C8C2C9"/>
  <path d="M13.367 4.5a.54.54 0 01-.23-.456 2.5 2.5 0 00-2.388-2.565A2.492 2.492 0 009.073 5.9a.722.722 0 01.243.388l.005.019a.747.747 0 01-.232.728 1.212 1.212 0 00.696 2.098.316.316 0 01.29.24v.002l1.038 4.214 1.262-5.128c.11-.45.397-.841.805-1.058a1.708 1.708 0 00.187-2.904z" fill="#F9F0F0"/>
  <path d="M13.367 4.5a.54.54 0 01-.23-.456 2.5 2.5 0 00-2.388-2.565 2.488 2.488 0 00-1.087.2 2.501 2.501 0 011.766 2.124.54.54 0 00.29.42 1.708 1.708 0 01.208 2.903 1.63 1.63 0 00-.655 1.157l-.44 4.159.282 1.148 1.262-5.129c.11-.448.397-.84.805-1.057a1.708 1.708 0 00.187-2.904z" fill="#EFE0DB"/>
  <path d="M11.085 20.448a7.3 7.3 0 01-7.3-7.3v-2.304c0-.24.194-.433.433-.433h13.734c.24 0 .433.194.433.433v2.304a7.3 7.3 0 01-7.3 7.3z" fill="#E3E0E2"/>
  <path d="M18.514 18.414h-2.542a.897.897 0 010-1.795h2.542c.738 0 1.338-.6 1.338-1.337 0-.738-.6-1.338-1.338-1.338h-1.179a.897.897 0 110-1.794h1.18a3.136 3.136 0 013.131 3.132 3.136 3.136 0 01-3.132 3.132z" fill="#C8C2C9"/>
  <path d="M17.952 10.41h-2.219c.24 0 .433.195.433.434v2.304a7.302 7.302 0 01-6.19 7.216 7.3 7.3 0 008.41-7.216v-2.304a.433.433 0 00-.434-.433z" fill="#C8C2C9"/>
  <path d="M7.127 22.25a.314.314 0 00.28-.453 3.639 3.639 0 00-6.537 0 .314.314 0 00.28.453h5.977z" fill="#13B866"/>
  <path d="M7.407 21.797a3.639 3.639 0 00-3.949-1.976 3.645 3.645 0 012.589 1.976.314.314 0 01-.28.453h1.36a.314.314 0 00.28-.453z" fill="#09A657"/>
  <path d="M10.788 17.19a.314.314 0 00-.215-.489A3.64 3.64 0 006.87 22.09c.114.203.401.217.533.025l3.386-4.924z" fill="#13B866"/>
  <path d="M10.574 16.701a3.654 3.654 0 00-1.134.012c.197.06.288.299.166.477l-2.989 4.347c.069.19.153.375.252.552.115.203.401.217.533.025l3.386-4.924a.314.314 0 00-.214-.489z" fill="#09A657"/>
  <path d="M19.24 21.704c.758-.638.676-1.982-.182-3.002-.86-1.02-2.17-1.33-2.928-.692-.758.638-.676 1.983.183 3.003s2.17 1.33 2.927.691z" fill="#A95E2C"/>
  <path d="M16.744 17.72c.451.159.898.463 1.263.897.858 1.02.94 2.364.182 3.002-.179.15-.388.248-.614.296.61.215 1.228.162 1.664-.205.758-.638.677-1.982-.182-3.003-.656-.78-1.577-1.144-2.313-.987z" fill="#9B5526"/>
  <path d="M23.176 20.39c.014-.991-1.056-1.81-2.389-1.828-1.334-.019-2.426.77-2.44 1.76-.014.991 1.056 1.81 2.39 1.828 1.333.019 2.425-.77 2.44-1.76z" fill="#A95E2C"/>
  <path d="M22.295 18.978c.13.225.202.472.198.731-.013.99-1.105 1.78-2.438 1.761a2.957 2.957 0 01-1.522-.425c.367.633 1.208 1.083 2.192 1.096 1.334.018 2.425-.77 2.439-1.761.007-.56-.332-1.065-.869-1.402z" fill="#9B5526"/>
  <path d="M20.778 18.217a3.937 3.937 0 00-.455.023 3.459 3.459 0 001.66-2.958 3.473 3.473 0 00-3.26-3.463v-.975a.77.77 0 00-.77-.77h-5.628l.377-1.532c.09-.368.322-.674.636-.84a2.042 2.042 0 001.087-1.807 2.05 2.05 0 00-.863-1.67.204.204 0 01-.089-.171 2.808 2.808 0 00-.085-.779.336.336 0 10-.652.165 2.122 2.122 0 01.065.594c-.009.292.13.569.372.74a1.37 1.37 0 01-.15 2.333c-.483.257-.838.72-.974 1.274l-.417 1.693h-1.037l-.191-.776-.002-.005a.65.65 0 00-.593-.494.874.874 0 01-.492-1.515c.297-.273.424-.678.331-1.057l-.005-.019a1.064 1.064 0 00-.357-.568 2.148 2.148 0 01-.795-1.672c0-.592.235-1.144.663-1.554a2.14 2.14 0 011.582-.6c.48.02.929.196 1.3.51a.337.337 0 00.434-.514 2.832 2.832 0 00-1.707-.667 2.807 2.807 0 00-2.076.786 2.804 2.804 0 00-.869 2.04c0 .853.38 1.653 1.043 2.193a.388.388 0 01.129.207l.005.02a.414.414 0 01-.133.4 1.547 1.547 0 00.882 2.68h.009l.149.605H7.44a.336.336 0 000 .673h10.513c.053 0 .096.043.096.097v1.306c0 .186.15.336.337.336h.128a2.799 2.799 0 012.796 2.796 2.786 2.786 0 01-2.434 2.771 3.026 3.026 0 00-1.32-.658c-.63-.128-1.212 0-1.642.363-.275.23-.465.537-.563.894a6.965 6.965 0 01-2.962 1.338.336.336 0 10.125.66c.44-.082.873-.206 1.292-.366v.611a.486.486 0 01-.486.486H9.263a.485.485 0 01-.48-.411v-.272l.153-.22c.643.188 1.309.29 1.984.305h.008a.336.336 0 00.007-.673 6.968 6.968 0 01-1.595-.22l1.725-2.51a.648.648 0 00-.442-1.012 3.953 3.953 0 00-4.086 2.053 6.917 6.917 0 01-2.415-5.273v-2.304c0-.053.043-.097.097-.097h1.539a.336.336 0 100-.673h-1.54a.77.77 0 00-.769.77v2.304a7.588 7.588 0 002.81 5.918 3.94 3.94 0 00-.18.86 3.935 3.935 0 00-1.94-.505 3.952 3.952 0 00-3.572 2.228.648.648 0 00.583.938h5.995a.645.645 0 00.534-.282l.577-.838c.2.353.579.587 1.007.587h4.057a1.16 1.16 0 001.158-1.158v-.906c.28-.14.551-.295.812-.467.066.597.334 1.2.765 1.711.622.74 1.46 1.144 2.222 1.144.347 0 .678-.084.965-.258a3.334 3.334 0 001.527.358c1.495 0 2.715-.932 2.73-2.094.017-1.175-1.204-2.147-2.721-2.167zm-16.64 1.877c.708 0 1.379.22 1.946.634.044.404.151.803.322 1.185h-5.22a3.283 3.283 0 012.952-1.82zm3.008 1.8a3.283 3.283 0 01.172-3.464 3.28 3.28 0 013.172-1.4l-3.344 4.863zM16.57 20.8c-.37-.438-.59-.953-.62-1.448-.027-.459.114-.842.397-1.08.581-.49 1.614-.253 2.352.537.02.021.042.039.065.054a2.053 2.053 0 00-.675.925l-.595-.703a.336.336 0 00-.513.435l1.059 1.25.025.027c.093.322.28.617.537.867-.621.159-1.45-.172-2.032-.864zm4.2 1.004h-.04c-1.146-.016-2.07-.682-2.059-1.486.011-.794.93-1.43 2.057-1.43h.04c1.146.016 2.07.682 2.059 1.486-.01.794-.93 1.43-2.057 1.43z" fill="#000"/>
  <path d="M21.593 19.976l-1.696-.023h-.005a.336.336 0 00-.004.673l1.696.023a.336.336 0 00.009-.673zM17.51 16.956h1.005c.922 0 1.673-.751 1.673-1.674 0-.923-.75-1.674-1.673-1.674h-.172a.336.336 0 00-.335.3 6.891 6.891 0 01-.795 2.551.337.337 0 00.296.497zm1.127-2.668a1.002 1.002 0 01-.123 1.994h-.463a7.544 7.544 0 00.586-1.994z" fill="#000"/>
</svg>
