<svg width="24" height="24" fill="none" xmlns="http://www.w3.org/2000/svg">
  <defs/>
  <g fill-rule="evenodd" clip-rule="evenodd">
    <path d="M7.514 7.019v.528c0 .675.747 1.36 1.413 1.35 0 0 .888-.972.888-1.205l-.972-1.207h-.796a.535.535 0 00-.533.534zM18.442 6.485l-.96 1.074c0 .234.874 1.342.874 1.342.668.009 1.425-.679 1.425-1.354V7.02a.536.536 0 00-.533-.534h-.806z" fill="#EDA93B"/>
    <path d="M13.406 11.18l-2.57.682c-.275.534-.64.985-1.306 1.127 1.596 4.584 7.155 4.468 8.055-.054-.548-.185-.868-.604-1.115-1.09l-3.064-.664z" fill="#FCC368"/>
    <path d="M17.585 12.935c-1.004 2.803-6.57 2.805-8.055.054a2.22 2.22 0 01-.377.045c-2.166.1-3.52.814-4.005 2.866l-.95 4.023c-.263 1.111.647 1.799 1.64 1.799h15.637c.993 0 1.903-.688 1.64-1.799l-.95-4.023c-.484-2.052-1.839-2.765-4.005-2.866a2.002 2.002 0 01-.575-.099z" fill="#64B0D9"/>
    <path d="M10.395 12.783c.403.304.844.567 1.309.77.167.074.335.139.506.194.983.324 1.72.323 2.702 0a5.14 5.14 0 00.885-.379c.14-.076.221-.246.6.032a1.626 1.626 0 00.75.3c.188-.226.336-.48.438-.764a1.602 1.602 0 01-.6-.363 2.627 2.627 0 01-.515-.728c-.489.42-1.042.763-1.626.98-.87.325-1.526.325-2.397.002a4.438 4.438 0 01-.45-.193 5.727 5.727 0 01-1.162-.772c-.158.306-.345.585-.602.795l.162.126z" fill="#EDA93B"/>
    <path d="M17.584 12.935c-.102.284-.25.54-.438.766.07.011.144.018.22.022l.045.002c2.166.101 3.52.815 4.005 2.866l.949 4.023c.085.362.046.679-.08.942.61-.267 1.016-.843.83-1.633l-.95-4.023c-.485-2.052-1.84-2.765-4.006-2.866a2.002 2.002 0 01-.575-.099z" fill="#4A83C9"/>
    <path d="M18.442 5.571c0-3.816-4.228-5.012-7.071-3.763-1.442.635-2.528 1.896-2.528 3.763 4.374.684 4.004 3.704 9.599 0z" fill="gray"/>
    <path d="M18.442 5.571c-5.748 2.187-5.408-1.129-9.6 0v2.61c0 1.227.814 2.677 1.993 3.681.357.304.75.567 1.162.772.147.072.297.137.45.193.871.323 1.526.323 2.397-.002a5.46 5.46 0 001.626-.98c1.168-1.002 1.972-2.443 1.972-3.665V5.571z" fill="#FFDDA6"/>
    <path d="M17.059 6.42v2.216c0 .988-.526 2.119-1.344 3.045a6.44 6.44 0 01-.628.62c-.339.291-.71.545-1.099.746.27-.034.55-.108.856-.222a5.46 5.46 0 001.626-.98c1.168-1.002 1.971-2.443 1.971-3.664V5.57a13.051 13.051 0 01-1.382.456v.393z" fill="#FCC368"/>
    <path d="M1.5 16.915v3.117c0 .434.186.827.483 1.103l3.395.838 3.274-.838a1.885 1.885 0 00.72-1.479v-2.741a.94.94 0 00-.936-.938h-6a.94.94 0 00-.936.938z" fill="#F78411"/>
    <path d="M1.605 21.135a.768.768 0 00-.765.765c0 .421.344.766.765.766H9.01a.768.768 0 00.743-.944.767.767 0 00-.743-.587H1.605z" fill="#E6E6E6"/>
    <path d="M7.72 17.163v2.493c0 .033-.002.065-.003.097-.002.013-.002.026-.003.04a1.885 1.885 0 01-.715 1.342h1.653a1.884 1.884 0 00.72-1.479v-2.741a.94.94 0 00-.936-.938H6.783a.94.94 0 01.936.938v.248z" fill="#F74311"/>
    <path d="M7.357 21.135a.769.769 0 01.766.765c0 .421-.345.766-.766.766h1.654a.768.768 0 00.743-.944.767.767 0 00-.743-.587H7.357z" fill="#C2C7CC"/>
    <path d="M3.357 17.617v1.144a.37.37 0 00.37.37h.744a.37.37 0 00.369-.37v-1.144a.367.367 0 00-.37-.37h-.744a.37.37 0 00-.369.37z" fill="#E6E6E6"/>
    <path d="M18.442 5.571c0-3.816-4.228-5.012-7.071-3.763a4.172 4.172 0 00-.19.09c2.699-.52 5.878.82 5.878 4.13.47-.13.93-.28 1.383-.457z" fill="#666"/>
  </g>
  <path d="M4.705 12.5a.34.34 0 10.474.487c.69-.672.407-1.226.22-1.592-.173-.338-.252-.493.124-.847a.34.34 0 00-.465-.494c-.748.703-.456 1.273-.264 1.65.171.335.242.474-.089.796zM2.656 14.042a.34.34 0 00.474.487c.69-.672.407-1.226.22-1.592-.174-.338-.253-.493.123-.846a.34.34 0 00-.465-.495c-.748.704-.456 1.274-.263 1.65.172.336.242.474-.089.796z" fill="#000"/>
  <path d="M23.445 19.846l-.95-4.024c-.257-1.084-.752-1.859-1.514-2.368-.688-.459-1.577-.7-2.802-.758h-.009c-.567-.02-.95-.25-1.273-.779.82-.765 1.451-1.737 1.729-2.701.34-.064.686-.25.965-.525.336-.332.53-.749.53-1.143V7.02a.874.874 0 00-.874-.873h-.467v-.575c0-1.567-.692-2.882-1.949-3.702-1.55-1.012-3.8-1.162-5.597-.372-1.736.764-2.731 2.249-2.731 4.074v.575h-.457a.874.874 0 00-.873.873v.528c0 .397.193.814.53 1.146.275.272.617.455.953.519.279.973.918 1.953 1.749 2.721-.251.404-.538.63-.92.718a1.848 1.848 0 01-.347.044c-1.227.057-2.118.298-2.807.758-.719.48-1.2 1.196-1.467 2.185H2.436c-.704 0-1.276.573-1.276 1.277v3.116c0 .277.064.55.183.796a1.106 1.106 0 00.262 2.178H9.01c.555 0 1.015-.41 1.093-.944h11.371c.681 0 1.308-.278 1.676-.743.324-.41.426-.92.295-1.473zM8.179 8.21c-.205-.202-.327-.45-.327-.663V7.02c0-.105.089-.194.194-.194h.457V8.18c0 .09.003.18.011.272a1.35 1.35 0 01-.335-.242zm11.068-1.385c.105 0 .194.089.194.194v.528c0 .21-.122.457-.327.66a1.374 1.374 0 01-.346.248 3.31 3.31 0 00.012-.275V6.826h.467zm-7.74-4.706c1.596-.702 3.587-.574 4.953.318.714.467 1.558 1.343 1.636 2.9-2.93 1.07-4.145.61-5.321.163-.665-.252-1.345-.51-2.285-.51-.38 0-.805.042-1.287.145.184-1.811 1.498-2.661 2.304-3.016zM9.26 8.839a2.941 2.941 0 01-.079-.658V5.837c1.58-.372 2.443-.046 3.353.3.683.258 1.415.536 2.47.536.804 0 1.797-.163 3.097-.616V8.18c0 .2-.078.65-.08.667-.343 1.48-1.736 3.079-3.296 3.66-.797.298-1.363.298-2.161.001-1.566-.581-2.965-2.186-3.304-3.67zm-.25 13.488H1.604a.426.426 0 010-.852h2.943a.34.34 0 100-.679H2.126a1.152 1.152 0 01-.287-.763v-3.117c0-.33.268-.598.597-.598h1.322v.591h-.032a.71.71 0 00-.708.709v1.144c0 .391.318.709.708.709h.745a.71.71 0 00.708-.709v-1.144a.71.71 0 00-.708-.709h-.034v-.591h3.999c.328 0 .596.268.596.598v2.741c0 .029 0 .058-.002.087l-.001.01c-.025.4-.204.77-.502 1.043H6.129a.34.34 0 000 .678H9.01a.426.426 0 010 .852zm-4.54-4.74a.03.03 0 01.03.03v1.145a.03.03 0 01-.03.03h-.744a.03.03 0 01-.03-.03v-1.144a.03.03 0 01.03-.03h.745zm18.147 3.31c-.24.305-.667.486-1.143.486h-.665l-.514-2.093a.34.34 0 10-.659.162l.474 1.93H9.986a1.112 1.112 0 00-.625-.529c.141-.22.242-.464.298-.72h.505c.922 0 1.672-.751 1.672-1.674 0-.922-.75-1.672-1.672-1.672h-.46a1.277 1.277 0 00-1.268-1.148H5.57c.469-1.506 1.537-2.169 3.593-2.265.066-.002.129-.007.19-.014.66 1.037 1.899 1.746 3.443 1.961a.34.34 0 00.094-.673c-1.233-.17-2.263-.713-2.842-1.479.406-.193.683-.495.882-.796.435.325.907.59 1.397.773.473.176.895.264 1.316.264.422 0 .844-.089 1.318-.265a5.63 5.63 0 001.41-.786c.183.285.424.558.764.75-.43.799-1.383 1.366-2.622 1.541a.34.34 0 10.095.672c1.527-.215 2.664-.932 3.174-1.985.108.019.223.032.345.036l.017.001c2.208.103 3.276.858 3.689 2.604l.95 4.024c.083.35.027.652-.167.896zM9.711 19.455v-1.988h.453a.995.995 0 010 1.988H9.71z" fill="#000"/>
  <path d="M10.924 8.354a.338.338 0 00.479-.03c.038-.043.202-.108.431-.109h.002c.232 0 .394.064.434.11a.34.34 0 00.508-.45c-.271-.306-.75-.34-.945-.339-.193 0-.67.034-.94.339a.34.34 0 00.03.48zM14.415 8.354a.338.338 0 00.479-.03c.038-.043.203-.108.432-.109.232 0 .395.064.436.11a.34.34 0 00.507-.45c-.27-.305-.747-.339-.942-.339h-.002c-.193 0-.671.034-.94.339a.34.34 0 00.03.48z" fill="#000"/>
</svg>
