<svg width="24" height="24" fill="none" xmlns="http://www.w3.org/2000/svg">
  <defs/>
  <path d="M7.901 19.683a.367.367 0 00-.367.367v1.101a.367.367 0 10.734 0V20.05a.367.367 0 00-.367-.367zM16.099 19.683a.367.367 0 00-.368.367v1.468a.367.367 0 00.734 0V20.05a.367.367 0 00-.366-.367zM1.846 7.449h5.077a.367.367 0 100-.734H1.846a.367.367 0 100 .734zM1.846 5.98h5.077a.367.367 0 100-.733H1.846a.367.367 0 100 .734z" fill="#082947"/>
  <path d="M19.83 5.98h-1.224v2.203h1.224V5.981z" fill="#F2484B"/>
  <path d="M2.702 18.215h18.596v-7.83H2.702v7.83zm1.101-7.096H16.19c.203 0 .367.165.367.367h.734c0-.203.165-.367.367-.367h2.539c.203 0 .367.165.367.367v5.628a.367.367 0 01-.367.367H3.803a.367.367 0 01-.367-.367v-5.628c0-.203.164-.367.367-.367z" fill="#FF6E1D"/>
  <path d="M16.19 11.853H4.17v4.894h15.66v-4.894h-2.172a.367.367 0 01-.367-.367h-.734a.367.367 0 01-.367.367zM22.766 8.917H1.234v.734h21.532v-.734z" fill="#FFCC75"/>
  <path d="M15.52 7.448l-.03.001a.367.367 0 01-.365-.338l-.253-3.136c-.049-.61-.608-1.126-1.22-1.126h-3.303c-.613 0-1.171.515-1.22 1.126L8.875 7.11a.367.367 0 01-.396.337l-.06.735h7.16l-.06-.735z" fill="#6DA8D6"/>
  <path d="M3.804 17.48h16.393a.367.367 0 00.367-.366v-5.628a.367.367 0 00-.367-.367H17.66a.367.367 0 100 .734h2.171v4.894H4.17v-4.894h12.02a.367.367 0 100-.734H3.805a.367.367 0 00-.367.367v5.628c0 .203.164.367.367.367zM8.875 7.111l.253-3.136c.05-.61.608-1.126 1.22-1.126h3.304c.612 0 1.17.515 1.22 1.126l.253 3.136a.367.367 0 10.732-.059l-.253-3.136c-.08-.993-.956-1.801-1.952-1.801h-3.303c-.996 0-1.872.808-1.952 1.8l-.253 3.137a.367.367 0 00.731.06z" fill="#082947"/>
  <path d="M23.133 8.183h-2.57v-2.57a.367.367 0 00-.366-.366h-.612V4.146a.367.367 0 10-.734 0v1.1h-.612a.367.367 0 00-.367.368v2.569H.867A.367.367 0 00.5 8.55v1.468c0 .203.164.367.367.367h1.101v11.133a.367.367 0 10.734 0v-2.57h18.596v2.57a.367.367 0 10.734 0V10.385h1.101a.367.367 0 00.367-.367V8.55a.367.367 0 00-.367-.367zm-.367 1.468H1.234v-.734h21.532v.734zm-1.468 8.564H2.702v-7.83h18.596v7.83zM19.83 5.98v2.202h-1.224V5.981h1.224z" fill="#082947"/>
</svg>
