<svg width="24" height="24" fill="none" xmlns="http://www.w3.org/2000/svg">
  <defs/>
  <path d="M7.99 11.593h-4.8v1.744h4.8v-1.744z" fill="#EFE7E4"/>
  <path d="M7.99 11.593h-.9v1.744h.9v-1.744z" fill="#D8D1D0"/>
  <path d="M20.81 10.663h-4.801v1.744h4.8v-1.744z" fill="#EFE7E4"/>
  <path d="M20.809 10.663h-.899v1.744h.899v-1.744z" fill="#D8D1D0"/>
  <path d="M13.04 15.708h-1.744v4.8h1.744v-4.8z" fill="#EFE7E4"/>
  <path d="M13.04 19.61h-1.744v.899h1.744v-.9z" fill="#D8D1D0"/>
  <path d="M12.703 3.468H10.96v4.8h1.744v-4.8z" fill="#EFE7E4"/>
  <path d="M12.703 7.37H10.96v.898h1.744V7.37z" fill="#D8D1D0"/>
  <path d="M10.042 3H.863v5.735H10.96V3.001h-.917z" fill="#546F7A"/>
  <path d="M8.457 7.836H.863v.899H10.96v-.899H8.457z" fill="#465A65"/>
  <path d="M21.369 15.242h1.767v5.733H13.041v-5.734h8.328z" fill="#546F7A"/>
  <path d="M16.65 20.077H13.04v.898h10.095v-.898H16.65z" fill="#465A65"/>
  <path d="M8.457 21.068v2.095H2.723v-9.826h5.734v7.731z" fill="#546F7A"/>
  <path d="M7.558 13.337v9.826h.898v-9.826h-.898z" fill="#465A65"/>
  <path d="M3.52 11.593v-1.2l-.442-.544a2.058 2.058 0 01-.458-1.295V3.624c0-.323.263-.587.586-.587h.009c.323 0 .587.264.587.587V2.596c0-.323.264-.587.587-.587h.008c.323 0 .587.264.587.587v-.7c0-.323.264-.587.587-.587h.009c.323 0 .587.264.587.587v.479c0-.323.264-.587.587-.587h.009c.322 0 .586.264.586.587V7.642 5.857a.554.554 0 011.108 0V8.94c0 .414-.173.809-.477 1.09l-.394.364v1.199H5.59" fill="#FFC89F"/>
  <path d="M15.542 2.898V.838h5.734v9.825h-5.734V2.898z" fill="#546F7A"/>
  <path d="M20.377.837v9.826h.899V.837h-.899z" fill="#465A65"/>
  <g fill="#FFC89F">
    <path d="M20.48 12.407v1.2l.44.544c.297.366.459.823.459 1.295V20.376a.589.589 0 01-.587.587h-.008a.589.589 0 01-.587-.587v1.028a.589.589 0 01-.587.587H19.6a.589.589 0 01-.587-.587v.7a.589.589 0 01-.587.587h-.008a.589.589 0 01-.587-.587v-.479a.589.589 0 01-.587.587h-.009a.589.589 0 01-.587-.587V16.358v1.785a.554.554 0 11-1.107 0V15.06c0-.414.173-.809.477-1.09l.394-.364v-1.199h4.066zM11.296 20.18h-1.2l-.544.44a2.058 2.058 0 01-1.295.458h-.916v.001H3.327a.589.589 0 01-.587-.587v-.009c0-.322.264-.587.587-.587H2.299a.589.589 0 01-.587-.586v-.01c0-.322.264-.586.587-.586h-.7a.589.589 0 01-.587-.587v-.009c0-.323.264-.587.587-.587h.479a.589.589 0 01-.587-.586v-.01c0-.322.264-.586.587-.586H7.345 5.56a.554.554 0 010-1.107h3.083c.414 0 .81.172 1.09.476l.364.394h1.199v1.997M12.703 3.797h1.2l.544-.44a2.058 2.058 0 011.295-.459H20.672c.323 0 .587.264.587.586v.01a.589.589 0 01-.587.586h1.029c.322 0 .586.264.586.587v.009a.589.589 0 01-.586.587h.7c.322 0 .586.264.586.587v.008a.589.589 0 01-.586.587h-.48c.323 0 .587.264.587.587v.009a.589.589 0 01-.587.587H16.654h1.785a.554.554 0 010 1.107h-3.083c-.414 0-.809-.173-1.09-.477l-.363-.394h-1.2V3.798z"/>
  </g>
  <path d="M23.136 18.49c.186 0 .337-.152.337-.338v-2.91a.337.337 0 00-.337-.338h-1.483a2.4 2.4 0 00-.47-.965l-.366-.452v-.743a.337.337 0 00.33-.337V11h.13c.186 0 .336-.151.336-.338V7.965h.309c.509 0 .924-.415.924-.924v-.009a.92.92 0 00-.063-.333.925.925 0 00.541-.84v-.01a.925.925 0 00-.74-.905.925.925 0 00.04-.268v-.009a.925.925 0 00-.923-.924h-.088V.837A.337.337 0 0021.276.5h-5.734a.337.337 0 00-.337.337v1.786a2.401 2.401 0 00-.97.472l-.452.365h-.743a.337.337 0 00-.337-.33h-1.407V3a.337.337 0 00-.337-.336H7.687v-.29a.925.925 0 00-.924-.923h-.01a.92.92 0 00-.332.062.925.925 0 00-.841-.541h-.009a.926.926 0 00-.905.74.922.922 0 00-.269-.04H4.39a.925.925 0 00-.924.924v.068H.863A.337.337 0 00.526 3v1.438a.337.337 0 10.675 0V3.338h1.127a.92.92 0 00-.046.286v4.774H1.202V5.563a.337.337 0 10-.675 0v3.172c0 .186.151.337.337.337H2.34c.08.36.242.7.476.99l.366.45v.744a.337.337 0 00-.33.337V13h-.13a.337.337 0 00-.337.337v2.675h-.307a.925.925 0 00-.924.924v.008c0 .118.022.23.062.333a.925.925 0 00-.541.841v.009c0 .446.318.82.74.905a.923.923 0 00-.04.269v.009c0 .509.414.924.924.924h.087v2.929c0 .186.15.337.337.337h5.734c.186 0 .337-.15.337-.337v-1.81c.353-.08.686-.241.97-.471l.452-.366h.744c.004.183.153.33.336.33h1.408v.13c0 .186.15.337.337.337h3.271v.312c0 .51.415.924.924.924h.01c.116 0 .229-.022.332-.062a.925.925 0 00.841.541h.009c.446 0 .82-.318.905-.74.085.026.175.04.269.04h.008c.51 0 .924-.414.924-.924v-.091h2.602c.186 0 .337-.151.337-.337v-1.7a.337.337 0 10-.674 0v1.363h-1.12a.918.918 0 00.038-.263v-4.014l-.001-.023v-.76h1.083v2.573c0 .186.15.337.337.337zm-2.663-6.42h-4.127V11h4.127v1.07zm.466-1.745h-5.06V9.072h2.56a.892.892 0 00.864-1.107h1.636v2.36zm0-9.15V2.6a.921.921 0 00-.267-.04h-4.014a.32.32 0 00-.024.001h-.755V1.174h5.06zm-7.899 2.96h.863a.337.337 0 00.212-.076l.544-.44c.305-.248.69-.384 1.083-.384H20.672a.25.25 0 01.25.25v.008a.25.25 0 01-.25.25h-2.754a.337.337 0 100 .674h3.783a.25.25 0 01.25.25v.009a.25.25 0 01-.25.25h-3.783a.337.337 0 100 .674h4.483a.25.25 0 01.25.25v.008a.25.25 0 01-.25.25H17.918a.337.337 0 100 .674h4.003a.25.25 0 01.25.25v.01a.25.25 0 01-.25.249h-5.267a.337.337 0 100 .674h1.785a.217.217 0 010 .433h-3.083c-.319 0-.626-.134-.842-.368l-.364-.394a.337.337 0 00-.247-.109h-.863V4.135zm0 4.133v-.067h.715l.264.286c.309.335.735.54 1.186.578v1.598c0 .186.151.337.337.337h.13v1.407c0 .186.15.337.337.337h.067v.715l-.286.264c-.333.308-.539.732-.578 1.181h-2.171a.337.337 0 00-.337.338v.13h-1.408a.337.337 0 00-.337.336v.067h-.715l-.263-.285a1.825 1.825 0 00-1.187-.579v-1.574A.337.337 0 008.457 13h-.13v-1.407a.337.337 0 00-.337-.337h-.067v-.715l.286-.264c.34-.313.546-.747.58-1.205h2.17c.186 0 .337-.15.337-.337v-.13h1.407c.186 0 .337-.15.337-.337zm-5.353-4.93h2.935v2.687a.337.337 0 10.674 0v-2.22h1.07V7.93h-1.07V7.15a.337.337 0 00-.674 0v1.249H8.794v-2.54a.892.892 0 00-1.107-.865V3.338zm-4.73 5.216v-.916a.34.34 0 000-.024v-3.99a.25.25 0 01.25-.25h.008a.25.25 0 01.25.25v2.754a.337.337 0 10.674 0V2.596a.25.25 0 01.25-.25h.009a.25.25 0 01.25.25v3.782a.337.337 0 10.674 0V1.896a.25.25 0 01.25-.25h.008a.25.25 0 01.25.25v4.482a.337.337 0 10.674 0V2.375a.25.25 0 01.25-.25h.009a.25.25 0 01.25.25v.552a.337.337 0 000 .148v4.567a.337.337 0 10.674 0V5.857a.217.217 0 01.433 0V8.94c0 .319-.134.626-.369.842l-.394.364a.337.337 0 00-.108.247v.863H3.856v-.863a.337.337 0 00-.075-.212l-.44-.544a1.726 1.726 0 01-.384-1.083zm.57 3.376h4.126V13H3.527v-1.07zm-.467 1.744h5.06v1.23H5.56a.892.892 0 00-.863 1.108H3.06v-2.338zm0 9.152v-1.45a.92.92 0 00.267.04H8.12v1.41H3.06zm7.037-2.984a.337.337 0 00-.212.075l-.545.44c-.305.248-.69.384-1.082.384H3.327a.25.25 0 01-.25-.249v-.009a.25.25 0 01.25-.25H6.08a.337.337 0 000-.674H2.724h-.001-.424a.25.25 0 01-.25-.25v-.008a.25.25 0 01.25-.25H6.08a.337.337 0 100-.674H1.6a.25.25 0 01-.25-.25v-.009a.25.25 0 01.25-.25H6.08a.337.337 0 100-.674H2.078a.25.25 0 01-.25-.25v-.009a.25.25 0 01.25-.25h5.267a.337.337 0 000-.674H5.561a.217.217 0 010-.433h3.083c.318 0 .625.135.841.369l.364.394c.064.069.154.108.248.108h.862v3.393h-.862zm3.28.797V17.745a.337.337 0 10-.674 0v2.427h-1.07V16.045h1.07v.577a.337.337 0 10.675 0v-1.044h1.827v2.565a.892.892 0 001.107.864v1.631h-2.934zm6.483.765a.25.25 0 01-.25.25h-.008a.25.25 0 01-.25-.25v-3.782a.337.337 0 10-.675 0v4.482a.25.25 0 01-.25.25h-.008a.25.25 0 01-.25-.25v-4.482a.337.337 0 10-.674 0v4.003a.25.25 0 01-.25.25h-.009a.25.25 0 01-.25-.25v-5.267a.337.337 0 10-.674 0v1.784a.217.217 0 01-.433 0v-2.9-.182c0-.319.134-.626.369-.842l.393-.364a.337.337 0 00.109-.248v-.862h3.392v.862c0 .078.027.152.076.213l.44.544c.247.305.384.69.384 1.083v4.93a.25.25 0 01-.25.25h-.008a.25.25 0 01-.25-.25v-2.754a.337.337 0 10-.674 0v3.782z" fill="#000"/>
</svg>
