<svg width="24" height="24" fill="none" xmlns="http://www.w3.org/2000/svg">
  <defs>
    <path d="M1.772 17.34l4.278-6.99 4.362 2.67-2.143 3.502" id="reuse-0"/>
  </defs>
  <path d="M12.257 9.929l2.205 3.604 4.363-2.67-4.114-6.722" fill="#546F7A"/>
  <path d="M11.567 16.78H10.01v4.281h1.556v-4.282z" fill="#EFE7E4"/>
  <path d="M11.567 20.161H10.01v.9h1.556v-.9z" fill="#D8D1D0"/>
  <path d="M10.868 11.476L7.216 9.24l-.812 1.327 3.652 2.235.812-1.328z" fill="#EFE7E4"/>
  <path d="M10.057 12.802l.812-1.327-.655-.401-.812 1.327.655.4z" fill="#D8D1D0"/>
  <path d="M18.47 11.08l-3.653 2.234.812 1.328 3.653-2.235-.812-1.327z" fill="#EFE7E4"/>
  <path d="M18.47 11.08l-.655.4.811 1.327.656-.4-.812-1.328z" fill="#D8D1D0"/>
  <path d="M7.468 9.394l.558-.913-.082-.619c-.055-.417.035-.84.254-1.198l.427-.698 1.868-3.054a.525.525 0 01.72-.173l.006.004c.246.15.324.474.174.72l.478-.783a.525.525 0 01.72-.173l.007.004c.245.15.323.474.173.72l.326-.533a.525.525 0 01.72-.173l.006.004c.246.15.324.474.174.72l-.223.364a.525.525 0 01.72-.173l.006.004c.245.15.323.474.173.72l-2.45 4.004-.002.003.83-1.357a.494.494 0 11.843.515L12.46 9.674a1.322 1.322 0 01-.87.607l-.469.094-.558.912-1.52-.93-1.574-.963z" fill="#FFC89F"/>
  <g fill="#546F7A">
    <use xlink:href="#reuse-0"/>
    <use xlink:href="#reuse-0"/>
  </g>
  <path d="M9.757 12.619l-2.464 4.026.976-.123 2.143-3.502-.655-.401z" fill="#465A65"/>
  <path d="M10.01 20.767H8.942l-.485.393a1.836 1.836 0 01-1.156.41H2.903a.525.525 0 01-.523-.524v-.007c0-.288.235-.524.523-.524h-.917a.525.525 0 01-.524-.523v-.008c0-.288.236-.524.524-.524H1.36a.525.525 0 01-.523-.523v-.008c0-.288.235-.523.523-.523h.428a.525.525 0 01-.524-.524v-.008c0-.287.236-.523.524-.523H6.487 4.895a.494.494 0 110-.988h2.75c.369 0 .721.155.972.426l.324.351h1.07v3.627z" fill="#FFC89F"/>
  <path d="M18.169 11.264l.655-.4L14.71 4.14l-.368.869 3.827 6.254z" fill="#455B66"/>
  <path d="M21.453 21.478h-9.887v-5.115h4.778" fill="#546F7A"/>
  <path d="M11.566 20.577v.9h9.887l-.9-.9h-8.987z" fill="#465A65"/>
  <path d="M15.88 14.489l.558.913-.081.619c-.056.417.034.84.253 1.198l.427.698 1.868 3.054c.15.245.474.323.72.173l.006-.004a.525.525 0 00.174-.72l.479.783c.15.245.474.323.72.173l.006-.004a.525.525 0 00.173-.72l.326.533c.15.245.474.323.72.173l.006-.004a.525.525 0 00.174-.72l-.223-.364c.15.245.474.323.72.173l.006-.004a.525.525 0 00.173-.72l-2.45-4.004-.002-.003.831 1.358a.494.494 0 00.842-.516l-1.435-2.345a1.322 1.322 0 00-.87-.607l-.469-.094-.558-.912-1.519.93-1.575.963z" fill="#FFC89F"/>
  <path d="M23.374 19.543l-1.196-1.954a.826.826 0 00.515-.583.826.826 0 00-.098-.628l-1.436-2.346a1.665 1.665 0 00-1.092-.761l-.324-.065-.305-.498.02-.012a.337.337 0 00.111-.465l-.636-1.039.068-.04a.338.338 0 00.111-.465l-1.649-2.695a.338.338 0 10-.576.353l1.473 2.406-3.786 2.317-1.902-3.107c.026-.036.052-.072.075-.11l1.435-2.346a.826.826 0 00.1-.628.826.826 0 00-.516-.584l.933-1.525 1.636 2.673a.337.337 0 10.576-.352l-1.844-3.013a.862.862 0 00-.391-.92l-.007-.004a.859.859 0 00-.26-.106.87.87 0 00-.409-.804l-.007-.005a.863.863 0 00-1.052.12.855.855 0 00-.168-.134l-.006-.004a.862.862 0 00-1.184.285l-.04.065a.856.856 0 00-.148-.114l-.006-.004a.862.862 0 00-1.184.285L8.336 5.79l-.007.013-.419.684a2.18 2.18 0 00-.3 1.42l.065.5-.321.526a.337.337 0 00-.425.131l-.636 1.04-.067-.041a.338.338 0 00-.465.111L3.88 13.25a.338.338 0 10.576.353l1.705-2.787 3.145 1.924.575.352.067.04L8.132 16.1a1.655 1.655 0 00-.487-.073h-2.75a.832.832 0 00-.816.987h-1.71l1.598-2.612a.338.338 0 00-.576-.353l-1.834 2.998a.862.862 0 00-.63.828v.008c0 .097.017.19.046.278a.862.862 0 00-.473.769v.008c0 .402.277.74.65.835a.86.86 0 00-.026.212v.007c0 .475.387.861.861.861h.077a.86.86 0 00-.02.186v.008c0 .475.386.861.86.861H7.3a2.18 2.18 0 001.368-.485l.392-.317h.616a.337.337 0 00.335.294h1.218v.078c0 .187.151.338.338.338h3.973a.338.338 0 000-.675h-3.636V16.7h4.145c.05.244.142.48.274.694l.419.686.007.012 1.864 3.047h-2.014a.338.338 0 000 .675h4.854a.336.336 0 00.227-.089.855.855 0 00.725-.08l.007-.004a.862.862 0 00.409-.805.858.858 0 00.26-.106l.008-.004a.862.862 0 00.285-1.184zm-4.557-7.247l-1.128.69-.41.251-1.538.941-.46-.75 2.368-1.45.709-.433.46.75zM8.361 8.437l-.082-.62a1.503 1.503 0 01.207-.977l.427-.697.007-.013 1.86-3.042a.188.188 0 01.256-.061l.007.004c.086.052.114.17.061.255L9.822 5.381a.338.338 0 10.576.353l1.282-2.095.479-.783a.188.188 0 01.256-.06l.006.003c.086.053.114.17.062.255l-1.761 2.878a.338.338 0 10.576.352l1.76-2.877h.001l.326-.533a.188.188 0 01.254-.062l.008.005a.185.185 0 01.083.115.185.185 0 01-.022.14l-.223.365-1.863 3.046a.338.338 0 10.576.352l1.863-3.046a.185.185 0 01.115-.083.185.185 0 01.141.022l.006.004c.086.052.114.17.062.255l-2.45 4.005-.002.003a.338.338 0 00.576.352l.83-1.357a.156.156 0 01.286.045c.005.023.01.07-.019.118l-1.435 2.345a.988.988 0 01-.648.452l-.47.093a.337.337 0 00-.221.155l-.382.625-1.231-.753-1.287-.788.382-.625a.337.337 0 00.047-.22zm1.584 3.901l-.878-.537-2.198-1.345.46-.751 3.076 1.882-.46.751zM8.941 20.43a.337.337 0 00-.213.075l-.485.393c-.266.215-.6.334-.943.334H2.903a.188.188 0 01-.186-.186v-.007c0-.101.085-.186.186-.186h2.456a.338.338 0 100-.676H1.985a.188.188 0 01-.185-.185v-.008c0-.1.085-.186.185-.186H5.36a.338.338 0 000-.675H1.361a.188.188 0 01-.186-.186v-.008c0-.1.085-.186.186-.186h3.997a.338.338 0 000-.675h-3.57a.188.188 0 01-.185-.186v-.008c0-.1.085-.185.185-.185h4.699a.338.338 0 000-.676H4.895a.156.156 0 010-.312h2.75c.154 0 .305.037.441.105l.007.004a.981.981 0 01.276.207l.324.352c.064.07.153.109.248.109h.732v2.952H8.94zm1.407.294v-3.607h.88v3.607h-.88zm1.218-4.698a.338.338 0 00-.337.337v.079H10.01a.338.338 0 00-.338.337v.023h-.585l-.224-.243a1.639 1.639 0 00-.14-.134l1.976-3.23a.337.337 0 00-.112-.463l-.067-.041.636-1.04a.338.338 0 00-.112-.464l-.02-.012.306-.498.324-.065c.18-.036.35-.101.507-.192l2.012 3.289a.337.337 0 00.464.112l.067-.041.636 1.039a.337.337 0 00.426.132l.321.525-.066.5-.006.05h-4.45zm11.17 4.125l-.007.004a.185.185 0 01-.14.021.185.185 0 01-.115-.083l-1.864-3.045a.337.337 0 10-.576.352l1.864 3.046.223.364a.188.188 0 01-.061.256l-.007.004a.185.185 0 01-.14.021.185.185 0 01-.116-.083l-.325-.531v-.001l-1.762-2.878a.338.338 0 10-.575.353l1.76 2.877a.185.185 0 01.022.14.186.186 0 01-.084.116l-.006.004a.185.185 0 01-.14.021.185.185 0 01-.116-.083l-.478-.781v-.001l-1.282-2.095a.338.338 0 00-.576.352l1.282 2.095a.188.188 0 01-.061.256l-.007.004a.185.185 0 01-.14.021.186.186 0 01-.116-.083l-1.861-3.042-.007-.012-.427-.697a1.502 1.502 0 01-.207-.978l.082-.62a.338.338 0 00-.047-.22l-.382-.624 1.85-1.132.668-.41.382.625c.05.08.13.137.222.155l.47.094a.988.988 0 01.647.451l1.436 2.346a.156.156 0 01-.267.163l-.828-1.354-.002-.004a.338.338 0 10-.576.353l.83 1.357 1.622 2.65a.189.189 0 01-.062.256z" fill="#000"/>
</svg>
