<svg width="24" height="24" fill="none" xmlns="http://www.w3.org/2000/svg">
  <defs/>
  <path d="M22.98 16.394a1.67 1.67 0 01-1.666 1.665H2.686a1.67 1.67 0 01-1.665-1.665V2.969c0-.916.749-1.665 1.665-1.665h18.629c.915 0 1.665.749 1.665 1.665v13.425z" fill="#174461"/>
  <g fill="#3B8BC0">
    <path d="M20.898 3.385H5.13v12.593h15.767V3.385zM20.326 21.006h-1.944v1.3h1.944a.65.65 0 000-1.3z"/>
  </g>
  <g fill="#174461">
    <path d="M3.544 21.462v.387l2.758.847 1.04-1.04-1.04-1.041-2.758.847zM19.415 20.745l-8.117-.08-1.041.99 1.04.992 8.118-.08v-1.822z"/>
  </g>
  <path d="M6.302 20.615v2.081l4.995-.05v-1.982l-4.995-.05z" fill="#3B8BC0"/>
  <g fill="#01121C">
    <path d="M21.353.779H2.647A2.15 2.15 0 00.5 2.926v13.55a2.15 2.15 0 002.147 2.146h18.706a2.15 2.15 0 002.147-2.147V2.925A2.15 2.15 0 0021.353.78zm1.106 15.696c0 .61-.496 1.106-1.106 1.106H2.647c-.61 0-1.106-.496-1.106-1.106V2.925c0-.61.496-1.105 1.106-1.105h18.706c.61 0 1.106.496 1.106 1.106v13.55z"/>
    <path d="M3.098 8.708a.994.994 0 000 1.985.994.994 0 000-1.985zm0 1.04a.048.048 0 110-.096.048.048 0 010 .097zM2.595 8.135h.944a.52.52 0 000-1.04h-.944a.52.52 0 000 1.04zM2.595 6.521h.944a.52.52 0 000-1.04h-.944a.52.52 0 000 1.04zM3.539 12.88h-.944a.52.52 0 000 1.04h.944a.52.52 0 000-1.04zM3.539 11.266h-.944a.52.52 0 000 1.04h.944a.52.52 0 000-1.04zM20.88 2.878H5.114a.52.52 0 00-.52.52v12.605c0 .287.233.52.52.52h15.768a.52.52 0 00.52-.52V3.398a.52.52 0 00-.52-.52zm-.52 12.605H5.634V3.919H20.36v11.564zM20.205 20.463H19.7a.52.52 0 00-.444-.258L6.16 20.081h-.003-.01a.46.46 0 00-.044.003h-.003a.525.525 0 00-.047.008l-.012.002a.547.547 0 00-.033.009l-.024.008-.014.005-2.236.854a.518.518 0 00-.22.16h-.386a.52.52 0 000 1.042h.385a.52.52 0 00.221.16l2.236.855.013.004a.592.592 0 00.026.009l.022.006.026.005.027.005.021.003a.524.524 0 00.05.002h.005l13.097-.123a.52.52 0 00.444-.259h.505a1.19 1.19 0 001.188-1.188 1.19 1.19 0 00-1.188-1.188zm-1.474 1.598l-7.027.067v-.954l7.027.067v.82zm-12.056-.934l3.988.038v.973l-3.988.037v-1.048zm-1.041.23v.588l-.769-.294.769-.293zm14.571.441h-.433v-.294h.433a.147.147 0 010 .294z"/>
  </g>
</svg>
