<svg width="24" height="24" fill="none" xmlns="http://www.w3.org/2000/svg">
  <defs/>
  <path d="M3.267 2.817V1.72c0-.321.26-.581.58-.581h1.325c.32 0 .581.26.581.58v1.036" fill="#826075"/>
  <path d="M13.864 4.47h7.733a.63.63 0 01.629.628v14.325a.63.63 0 01-.63.629h-7.732V4.469z" fill="#FFDFA1"/>
  <path d="M13.962 23.093H2.428a.585.585 0 01-.592-.575V3.223c0-.315.266-.574.592-.574h12.283c.325 0 .592.259.592.574V22.52a.585.585 0 01-.592.574h-1.284" fill="#D3E8F1"/>
  <g fill="#fff">
    <path d="M5.72 14.326h-.668a.648.648 0 01-.646-.645v-.851c0-.355.29-.646.646-.646h.668c.355 0 .646.29.646.646v.85c0 .356-.29.646-.646.646zM11.766 14.327h-.668a.648.648 0 01-.646-.646v-.85c0-.356.29-.646.646-.646h.668c.355 0 .646.29.646.645v.851c0 .355-.291.646-.646.646zM5.72 20.292h-.668a.648.648 0 01-.646-.645v-.851c0-.355.29-.646.646-.646h.668c.355 0 .646.29.646.646v.85c0 .356-.29.646-.646.646zM11.756 20.292h-.648a.658.658 0 01-.656-.655V15.79c0-.36.295-.656.656-.656h.648c.36 0 .656.295.656.656v3.847c0 .36-.295.655-.656.655z"/>
  </g>
  <g fill="#BED8E4">
    <path d="M8.75 14.327h-.668a.648.648 0 01-.645-.646v-.85c0-.356.29-.646.645-.646h.668c.355 0 .646.29.646.645v.851c0 .355-.29.646-.646.646zM5.72 17.305h-.668a.648.648 0 01-.646-.645v-.851c0-.355.29-.646.646-.646h.668c.355 0 .646.29.646.646v.85c0 .356-.29.646-.646.646z"/>
  </g>
  <path d="M8.751 17.305h-.668a.648.648 0 01-.646-.646v-.851c0-.355.291-.646.646-.646h.668c.355 0 .646.29.646.646v.851c0 .355-.29.646-.646.646z" fill="#EBF9FE"/>
  <path d="M8.751 20.292h-.668a.648.648 0 01-.646-.646v-.85c0-.356.291-.646.646-.646h.668c.355 0 .646.29.646.645v.851c0 .355-.29.646-.646.646z" fill="#BED8E4"/>
  <path d="M2.882 2.648H2.35a.586.586 0 00-.593.574v19.295c0 .316.267.575.593.575h.533V2.648z" fill="#EBF9FE"/>
  <path d="M14.715 2.648h-.593v20.444h.593a.586.586 0 00.593-.575V3.222a.586.586 0 00-.593-.574z" fill="#B1C6D3"/>
  <path d="M4.453 9.074c-.298 0-.543-.186-.543-.414V5.644c0-.227.244-.414.543-.414h7.971c.299 0 .543.187.543.414V8.66c0 .228-.244.414-.543.414h-7.97z" fill="#F5FCFF"/>
  <path d="M19.702 20.052h1.895a.63.63 0 00.63-.629V5.098a.63.63 0 00-.63-.629h-1.895v15.583z" fill="#FFEFCA"/>
  <path d="M5.955 12.063H5.09a.813.813 0 00-.812.811v.867c0 .447.365.812.812.812h.1a.393.393 0 000-.787h-.1a.027.027 0 01-.026-.025v-.867c0-.013.013-.025.026-.025h.866c.014 0 .026.012.026.025v.87a.393.393 0 00.779.106.82.82 0 00.007-.11v-.866a.813.813 0 00-.812-.811zM8.945 12.063h-.867a.813.813 0 00-.811.811v.867c0 .447.364.812.811.812h.1a.393.393 0 000-.787h-.1a.027.027 0 01-.025-.025v-.867c0-.013.012-.025.025-.025h.867c.013 0 .026.012.026.025v.87a.393.393 0 00.778.105.817.817 0 00.008-.108v-.867a.813.813 0 00-.812-.811zM11.934 12.063h-.866a.813.813 0 00-.812.811v.867c0 .447.364.812.812.812h.1a.393.393 0 000-.787h-.1a.027.027 0 01-.026-.025v-.867c0-.013.012-.025.026-.025h.866c.013 0 .026.012.026.025v.87a.393.393 0 10.778.106.8.8 0 00.008-.11v-.866a.813.813 0 00-.812-.811zM5.955 14.962H5.09a.813.813 0 00-.812.812v.866c0 .448.365.812.812.812h.1a.393.393 0 100-.786h-.1a.027.027 0 01-.026-.026v-.866c0-.013.013-.026.026-.026h.866c.014 0 .026.013.026.026v.87a.393.393 0 00.779.106.822.822 0 00.007-.11v-.866a.813.813 0 00-.812-.812zM8.945 14.962h-.867a.813.813 0 00-.811.812v.866c0 .448.364.812.811.812h.1a.393.393 0 100-.786h-.1a.027.027 0 01-.025-.026v-.866c0-.013.012-.026.025-.026h.867c.013 0 .026.013.026.026v.87a.393.393 0 10.778.105.816.816 0 00.008-.109v-.866a.813.813 0 00-.812-.812zM11.934 14.962h-.866a.813.813 0 00-.812.812v3.714c0 .448.364.812.812.812h.1a.393.393 0 100-.786h-.1a.027.027 0 01-.026-.026v-3.714c0-.013.012-.026.026-.026h.866c.013 0 .026.013.026.026v3.718a.393.393 0 10.778.106.8.8 0 00.008-.11v-3.714a.813.813 0 00-.812-.812zM5.911 17.867h-.866a.813.813 0 00-.812.812v.866c0 .448.365.812.812.812h.1a.393.393 0 100-.786h-.1a.027.027 0 01-.026-.026v-.866c0-.013.013-.026.026-.026h.866c.014 0 .026.013.026.026v.87a.393.393 0 00.779.105.81.81 0 00.007-.109v-.866a.813.813 0 00-.812-.812zM8.9 17.867h-.865a.813.813 0 00-.812.812v.866c0 .448.364.812.812.812h.1a.393.393 0 100-.786h-.1a.027.027 0 01-.026-.026v-.866c0-.013.012-.026.026-.026H8.9c.013 0 .026.013.026.026v.87a.393.393 0 00.778.105.82.82 0 00.008-.109v-.866a.813.813 0 00-.812-.812zM4.5 9.375h5.207a.393.393 0 000-.786H4.499c-.002 0-.006-.004-.006-.007V5.676c0-.003.004-.007.006-.007h7.981c.003 0 .006.004.006.007v2.906c0 .003-.003.007-.006.007h-1.112a.393.393 0 100 .786h1.112a.793.793 0 00.792-.793V5.676a.793.793 0 00-.792-.793H4.5a.793.793 0 00-.793.793v2.906c0 .437.355.793.792.793z" fill="#000"/>
  <path d="M5.656 7.986a.393.393 0 01-.393-.393V6.575a.393.393 0 11.786 0v1.018a.393.393 0 01-.393.393zM7.008 7.986a.393.393 0 01-.393-.393V6.575a.393.393 0 11.786 0v1.018a.393.393 0 01-.393.393z" fill="#000"/>
  <path d="M2.404 23.5h12.172c.564 0 1.022-.458 1.022-1.022V3.204c0-.563-.458-1.022-1.022-1.022h-8.43V.893A.393.393 0 005.753.5H3.267a.393.393 0 00-.393.393v1.29h-.47c-.564 0-1.022.458-1.022 1.021v19.274c0 .564.458 1.022 1.022 1.022zM3.66 1.286h1.7v.896h-1.7v-.896zM2.168 3.204c0-.128.108-.236.236-.236h12.172c.128 0 .236.108.236.236v19.274a.239.239 0 01-.236.236H2.404a.239.239 0 01-.236-.236V3.204zM17.106 19.659H17.1a.388.388 0 00-.078.008l-.021.005-.016.004a.392.392 0 00-.032.012l-.003.001a.371.371 0 00-.03.014c-.002 0-.004.002-.005.003l-.022.013-.012.007-.013.01a.394.394 0 00-.159.356l.001.009.005.028c.012.063.04.12.077.167l.005.006.013.015.012.013.007.006a.39.39 0 00.271.109h4.495c.564 0 1.022-.458 1.022-1.022V5.098c0-.563-.458-1.022-1.021-1.022H17.1a.393.393 0 100 .786h2.207V19.66h-2.202zm2.988-14.797h1.503c.127 0 .235.108.235.236v14.325a.239.239 0 01-.235.236h-1.503V4.862z" fill="#000"/>
</svg>
