<svg width="24" height="24" fill="none" xmlns="http://www.w3.org/2000/svg">
  <defs/>
  <path d="M13.072 5.886l5.043 5.043 5.005-5.004L18.076.882l-5.004 5.004z" fill="#4EB9FF"/>
  <path d="M13.185 4.529L1.83 15.884a2.286 2.286 0 000 3.233l3.054 3.054c.892.893 2.34.893 3.232 0l11.356-11.356-6.287-6.286z" fill="#FF4181"/>
  <path d="M8.738 17.405l5.159-5.159-2.143-2.142-5.158 5.158 2.142 2.143z" fill="#fff"/>
  <path d="M13.897 12.246l1.431-1.431-2.142-2.142-1.431 1.431 2.142 2.143z" fill="#FF80AB"/>
  <g fill="#01121C">
    <path d="M17.569 3.969l-.954.953a.52.52 0 00.736.736l.953-.954a.52.52 0 00-.735-.735z"/>
    <path d="M23.348 5.697L18.304.653a.52.52 0 00-.736 0l-3.9 3.9-.254-.253a.52.52 0 00-.736 0L1.322 15.656A2.788 2.788 0 00.5 17.64c0 .75.292 1.455.822 1.985l.295.295-.366.366c-.68.68-.68 1.785 0 2.464.679.68 1.784.68 2.463 0l.367-.366.295.295c.547.547 1.266.82 1.984.82.719 0 1.438-.273 1.985-.82L19.7 11.323a.52.52 0 000-.736l-.253-.254 3.9-3.9a.52.52 0 000-.736zM2.978 22.014a.702.702 0 01-.992-.992l.367-.366.992.992-.367.366zm4.63-.071a1.768 1.768 0 01-2.496 0l-3.054-3.054a1.754 1.754 0 01-.517-1.249c0-.471.183-.915.517-1.248L13.046 5.404l5.55 5.55L7.61 21.944zM18.712 9.597L14.403 5.29l3.533-3.533 4.308 4.307-3.533 3.533z"/>
    <path d="M12.678 8.445l-1.064 1.063-.011-.012a.52.52 0 00-.736.736l.011.012-4.79 4.79a.52.52 0 000 .736l2.142 2.143a.52.52 0 00.736 0l4.79-4.791.012.011a.52.52 0 00.736-.735l-.011-.012 1.063-1.063a.52.52 0 000-.736l-2.142-2.142a.52.52 0 00-.736 0zm-4.08 8.364l-1.406-1.407 4.422-4.422 1.407 1.406-4.423 4.423zm5.854-5.854l-.695.695-1.407-1.406.696-.696 1.406 1.407zM18.343 7.386a.519.519 0 00.736 0l.953-.954a.52.52 0 10-.736-.735l-.953.953a.52.52 0 000 .736z"/>
  </g>
</svg>
