<svg width="24" height="24" fill="none" xmlns="http://www.w3.org/2000/svg">
  <defs/>
  <path d="M14.632 16.754H9.368v4.84h5.264v-4.84z" fill="#9AD7FF"/>
  <path d="M22.98 3.44v11.845L12 16.846 1.02 15.285V3.44c0-.715.58-1.295 1.295-1.295h19.37c.715 0 1.295.58 1.295 1.295z" fill="#4EB9FF"/>
  <path d="M15.482 6.253H8.518v4.82h6.964v-4.82z" fill="#fff"/>
  <path d="M22.98 15.285v.955c0 .715-.58 1.295-1.295 1.295H2.315c-.715 0-1.294-.58-1.294-1.295v-.955H22.98z" fill="#C2E7FF"/>
  <g fill="#01121C">
    <path d="M21.685 1.625H2.315c-1 0-1.815.814-1.815 1.815v12.8c0 1 .814 1.815 1.815 1.815h6.533v3.28H6.39a.52.52 0 100 1.04h11.22a.52.52 0 100-1.04h-2.458v-3.28h6.533c1 0 1.815-.814 1.815-1.815V3.44c0-1-.814-1.815-1.815-1.815zm-19.37 1.04h19.37c.427 0 .774.348.774.775v11.324H1.541V3.44c0-.427.347-.774.774-.774zm11.797 18.67H9.888v-3.28h4.224v3.28zm7.573-4.32H2.315a.775.775 0 01-.774-.775v-.435h20.918v.435a.775.775 0 01-.774.774z"/>
    <path d="M8.517 11.646h6.965a.52.52 0 00.52-.52v-4.82a.52.52 0 00-.52-.521H8.517a.52.52 0 00-.52.52v4.82c0 .287.233.52.52.52zm.52-4.82h5.925v3.779H9.038v-3.78zM17.024 6.825h.365a.52.52 0 100-1.04h-.365a.52.52 0 100 1.04zM15.482 5.283a.52.52 0 00.52-.52v-.364a.52.52 0 00-1.04 0v.364c0 .287.233.52.52.52zM17.024 11.646h.365a.52.52 0 000-1.041h-.365a.52.52 0 000 1.04zM15.482 12.147a.52.52 0 00-.52.52v.364a.52.52 0 001.04 0v-.364a.52.52 0 00-.52-.52zM6.611 6.825h.365a.52.52 0 000-1.04H6.61a.52.52 0 000 1.04zM8.517 5.283a.52.52 0 00.52-.52v-.364a.52.52 0 00-1.04 0v.364c0 .287.233.52.52.52zM6.611 11.646h.365a.52.52 0 000-1.041H6.61a.52.52 0 000 1.04zM8.517 13.552a.52.52 0 00.52-.52v-.365a.52.52 0 00-1.04 0v.364c0 .288.233.52.52.52z"/>
  </g>
</svg>
