<svg width="24" height="24" fill="none" xmlns="http://www.w3.org/2000/svg">
  <defs/>
  <g fill-rule="evenodd" clip-rule="evenodd">
    <path d="M7.569 4.201l-.746 2.37.055 2.432c.001.042-.015.083-.025.123l5.34.346 1.902-1.514-.956-2.464-5.562-1.361c-.003.023-.001.047-.008.068z" fill="#E6E6E6"/>
    <path d="M22.855 8.225l-2.383-.365-.723.996c.21.122.92.456.998.692l1.86.286a.363.363 0 00.412-.302l.138-.896a.363.363 0 00-.302-.41zM18.494 18.062h-7.897l-1.707.968.786.903h9.739l.51-1.036-1.43-.835z" fill="gray"/>
    <path d="M17.003 6.652l-.642.99.379 1.965 2.044.315c.835.316 1.288-.174 1.514-.93l.173-1.132.003-.01a.66.66 0 00-.55-.75l-2.921-.448z" fill="#E6E6E6"/>
    <path d="M19.749 8.856a1.006 1.006 0 10.081 2.01 1.006 1.006 0 00-.081-2.01z" fill="#F78411"/>
    <path d="M4.697 9.713l-.003.015.003-.015zm.98-6.806L4.071 5.906l.625 3.807-.003.015 1.019.147a1.032 1.032 0 001.165-.872l.691-4.802.008-.068a1.033 1.033 0 00-.88-1.096L5.68 2.891c-.002.006 0 .011-.003.016z" fill="#4A83C9"/>
    <path d="M1.829 2.355L.849 9.16a.853.853 0 00.721.962l2.165.31a.852.852 0 00.96-.704c0-.005 0-.01.002-.015l.98-6.805c0-.005 0-.01.002-.017a.85.85 0 00-.723-.945L2.79 1.634a.854.854 0 00-.962.721z" fill="#A2D6F2"/>
    <path d="M16.407 9.491a2.783 2.783 0 01-1.699.875l3.786 7.696.92 1.87.927 1.886a.96.96 0 001.269.469c.478-.22.69-.79.469-1.268L16.407 9.491zM12.703 9.449L7.01 21.019a.958.958 0 00.469 1.268.96.96 0 001.268-.47l.928-1.884.92-1.871 3.824-7.772a2.788 2.788 0 01-1.717-.841z" fill="#E6E6E6"/>
    <path d="M13.139 5.494a2.79 2.79 0 103.428 4.32 2.773 2.773 0 00.738-2.007 2.762 2.762 0 00-.302-1.155 2.796 2.796 0 00-3.864-1.158z" fill="gray"/>
    <path d="M14.465 6.678a1.245 1.245 0 10.634 2.346 1.245 1.245 0 00-.634-2.346z" fill="#E6E6E6"/>
    <path d="M17.003 6.652a2.798 2.798 0 00-2.25-1.51c.62.252 1.132.72 1.437 1.316a2.756 2.756 0 01.303 1.156 2.76 2.76 0 01-.565 1.8 2.795 2.795 0 01-2.462 1.094c.238.096.492.161.754.188a2.913 2.913 0 00.647-.006 2.783 2.783 0 001.874-1.083 2.773 2.773 0 00.564-1.8 2.76 2.76 0 00-.302-1.155z" fill="#666"/>
    <path d="M15.794 10.403l5.816 11.884c.478-.22.69-.79.469-1.268L16.567 9.815c-.22.238-.481.438-.773.588zM13.222 10.394l-4.187 8.554-.079.16-1.54 3.147.064.032a.96.96 0 001.268-.47l.928-1.884.92-1.871 3.624-7.366a2.734 2.734 0 01-.998-.302z" fill="#C2C7CC"/>
    <path d="M19.856 8.914c.138.11.247.255.314.422l.021.057a1.007 1.007 0 01-.917 1.318h-.021a.99.99 0 00.576.154h.001a1.006 1.006 0 00-.06-2.01c.03.018.058.039.086.06z" fill="#F74311"/>
    <path d="M22.854 8.225l-.716-.11a.36.36 0 01.3.41l-.139.896a.361.361 0 01-.411.302l.719.11a.363.363 0 00.412-.301l.137-.895a.363.363 0 00-.302-.412z" fill="#666"/>
    <path d="M19.923 7.1l-.816-.125c.355.057.6.393.546.748l-.001.01-.175 1.133-.013.042a.998.998 0 01.285-.052c.006 0 .014 0 .021-.002a1.02 1.02 0 01.528.138l.173-1.132.003-.01a.659.659 0 00-.55-.75z" fill="#C2C7CC"/>
    <path d="M4.378 2.72l-.98 6.806-.001.016a.855.855 0 01-.961.704l1.299.186a.852.852 0 00.96-.704c0-.005 0-.01.002-.015l.98-6.805c0-.006 0-.01.002-.015v-.002a.85.85 0 00-.723-.945l-1.297-.187c.457.067.778.49.72.946v.015z" fill="#64B0D9"/>
    <path d="M18.923 18.934h-8.755l-.491.999h9.738l-.492-.999z" fill="#666"/>
    <path d="M12.101 5.24c-.814.53-1.315 2.032-1.19 3.046.056.437.16.77.437 1.131l.845.055a2.79 2.79 0 01.946-3.978l-1.038-.253z" fill="#C2C7CC"/>
  </g>
  <path d="M14.515 9.507l.066-.001a1.575 1.575 0 001.101-.51 1.587 1.587 0 10-2.751-1.01c.035.852.739 1.521 1.584 1.521zm-.667-2.199a.901.901 0 01.668-.292.908.908 0 01.667 1.52.907.907 0 01-1.335-1.228z" fill="#000"/>
  <path d="M22.906 7.89l-2.102-.323a.996.996 0 00-.829-.802l-2.757-.423a3.134 3.134 0 00-2.83-1.547h-.001a3.11 3.11 0 00-1.292.34l-1.948-.477a.34.34 0 10-.162.66l1.377.336a3.124 3.124 0 00-.75 3.44l-4.363-.282.613-4.26 1.706.418a.34.34 0 00.161-.66l-1.824-.446a1.363 1.363 0 00-.26-.627 1.358 1.358 0 00-.9-.535l-.736-.106a1.186 1.186 0 00-.223-.52 1.181 1.181 0 00-.782-.466L2.84 1.298a1.191 1.191 0 00-1.346 1.009l-.98 6.805a1.18 1.18 0 00.226.881c.191.255.47.42.782.465l2.165.31a1.193 1.193 0 001.241-.664l.738.107a1.373 1.373 0 001.413-.73l4.935.32.085.108-1.723 3.505a.34.34 0 00.61.3l1.627-3.31c.325.25.7.437 1.106.544l-5.274 10.72-.004.009a.618.618 0 01-1.122-.512l2.875-5.843a.34.34 0 00-.61-.3L6.706 20.87l-.004.008a1.298 1.298 0 001.176 1.836c.49 0 .958-.278 1.177-.75l.832-1.691h9.316l.832 1.692a1.3 1.3 0 001.717.63c.314-.144.553-.402.673-.727.12-.325.107-.677-.038-.99 0-.003-.002-.006-.003-.008l-5.35-10.874 1.459.225a1.348 1.348 0 002.286.552c.211-.228.334-.516.354-.822l1.424.219a.704.704 0 00.797-.586l.138-.897a.703.703 0 00-.586-.797zM3.783 10.097l-2.165-.311a.508.508 0 01-.336-.2.506.506 0 01-.098-.377l.98-6.806c.04-.278.3-.473.579-.433l2.165.312c.134.02.252.09.334.2.083.11.117.244.098.377l-.308 2.138-.672 4.675a.511.511 0 01-.577.425zm1.978-.558l-.682-.098.603-4.19.284-1.975.683.098c.18.026.341.122.452.27.111.148.158.329.132.51l-.691 4.802a.69.69 0 01-.78.583zm14.111-2.103a.316.316 0 01.208.127c.05.068.07.15.06.23l-.004.015-.002.02-.109.708a1.339 1.339 0 00-1.225.413 1.339 1.339 0 00-.316.583l-1.182-.181a3.106 3.106 0 00.228-2.274l2.342.36zm-5.457-1.962a2.455 2.455 0 012.55 2.348 2.43 2.43 0 01-.645 1.76 2.436 2.436 0 01-1.504.772h-.002a2.457 2.457 0 01-2.75-2.332 2.456 2.456 0 012.35-2.548zm.101 5.578c.043 0 .085 0 .128-.002l.02-.002 3.284 6.675h-6.806l3.282-6.673.092.002zm-4.295 8.542l.587-1.192h7.474l.587 1.192H10.22zm11.567 2.038a.614.614 0 01-.32.346.62.62 0 01-.818-.302l-.004-.008-.918-1.866a.328.328 0 00-.017-.035l-.903-1.834a.327.327 0 00-.018-.038l-3.425-6.96c.4-.112.772-.302 1.098-.562l5.31 10.793a.608.608 0 01.015.466zm-1.508-11.32a.667.667 0 11-.982-.904.667.667 0 01.983.905zm2.403-.832a.023.023 0 01-.025.019l-1.673-.257a1.346 1.346 0 00-.284-.37l-.036-.032.092-.593 2.045.314c.012.002.02.014.019.024l-.138.895z" fill="#000"/>
</svg>
