<svg width="24" height="24" fill="none" xmlns="http://www.w3.org/2000/svg">
  <defs/>
  <path d="M12.012.866v2.15l2.28-.833a.258.258 0 000-.485l-2.28-.832z" fill="#FF9C43"/>
  <path d="M19.803 11.113H4.197S4.036 18.566.94 22.39a.459.459 0 00.357.746h21.405c.386 0 .6-.447.358-.747-3.096-3.822-3.257-11.275-3.257-11.275z" fill="#345863"/>
  <path d="M23.06 22.389c-3.097-3.823-3.258-11.276-3.258-11.276H11.81c-.122 2.245.068 8.3 5.103 12.022h5.789c.385 0 .6-.447.358-.747z" fill="#1E4751"/>
  <path d="M14.13 11.113h5.673s.161 7.453 3.257 11.276c.243.299.028.746-.357.746h-3.47c-5.036-3.722-5.225-9.777-5.104-12.022z" fill="#FF9C43"/>
  <path d="M23.06 22.389c-3.096-3.823-3.258-11.276-3.258-11.276H17.36s.185 8.535 3.953 12.022h1.39c.385 0 .6-.447.358-.747z" fill="#EF8229"/>
  <path d="M9.87 11.113H4.198S4.036 18.566.94 22.39a.459.459 0 00.357.746h3.47c5.036-3.722 5.225-9.777 5.104-12.022z" fill="#FF9C43"/>
  <path d="M6.346 11.113C6.35 13.926 8.88 16.205 12 16.205c3.12 0 5.65-2.279 5.655-5.092H6.345z" fill="#EF8229"/>
  <path d="M4.363 13.594c-.703 0-1.273-.57-1.273-1.273v-1.208h2.546v1.208c0 .703-.57 1.273-1.273 1.273z" fill="#E02B3D"/>
  <path d="M6.909 13.594c-.703 0-1.273-.57-1.273-1.273v-1.208h2.546v1.208c0 .703-.57 1.273-1.273 1.273z" fill="#F43B45"/>
  <path d="M9.455 13.594c-.703 0-1.273-.57-1.273-1.273v-1.208h2.545v1.208c0 .703-.57 1.273-1.272 1.273z" fill="#E02B3D"/>
  <path d="M12 13.594c-.703 0-1.273-.57-1.273-1.273v-1.208h2.546v1.208c0 .703-.57 1.273-1.273 1.273z" fill="#F43B45"/>
  <path d="M14.545 13.594c-.703 0-1.272-.57-1.272-1.273v-1.208h2.545v1.208c0 .703-.57 1.273-1.273 1.273z" fill="#E02B3D"/>
  <path d="M17.091 13.594c-.703 0-1.273-.57-1.273-1.273v-1.208h2.546v1.208c0 .703-.57 1.273-1.273 1.273z" fill="#F43B45"/>
  <path d="M19.637 13.594c-.703 0-1.273-.57-1.273-1.273v-1.208h2.546v1.208c0 .703-.57 1.273-1.273 1.273z" fill="#E02B3D"/>
  <path d="M12 3.993c-2.672 3.74-8.916 7.12-8.916 7.12h17.83S14.672 7.733 12 3.993z" fill="#F43B45"/>
  <path d="M12 3.993c1.237 5.835 6.37 7.12 6.37 7.12h2.546S14.672 7.733 12 3.993z" fill="#D82B2B"/>
  <g fill="#000">
    <path d="M2.752 12.32a1.608 1.608 0 002.883.984 1.608 1.608 0 002.546.001 1.608 1.608 0 002.546 0 1.608 1.608 0 002.545 0 1.608 1.608 0 002.546 0 1.608 1.608 0 002.546 0 1.608 1.608 0 002.883-.984v-1.15a.337.337 0 00-.172-.355c-.015-.008-1.566-.851-3.424-2.138C15.26 7.02 13.43 5.37 12.348 3.899v-.648l2.06-.752a.59.59 0 00.39-.558.59.59 0 00-.39-.56l-2.275-.83a.336.336 0 00-.064-.017h-.003l-.004-.001a.333.333 0 00-.093-.001h-.007a.336.336 0 00-.149.061l-.006.004-.002.002-.003.003a.14.14 0 01-.004.003l-.002.001-.005.005a.336.336 0 00-.064.073v.001a8789537138.121 8789537138.121 0 01-.006.01l-.001.002a.334.334 0 00-.04.103v.007l-.002.007a.32.32 0 00-.004.059v2.995c-1.077 1.478-2.914 3.138-5.32 4.805a41.458 41.458 0 01-3.43 2.143.337.337 0 00-.172.355v1.15zm1.61.937a.937.937 0 01-.936-.936v-.872h1.872v.872c0 .516-.42.936-.936.936zm2.546 0a.937.937 0 01-.936-.936v-.872h1.872v.872c0 .516-.42.936-.936.936zm2.546 0a.937.937 0 01-.936-.936v-.872h1.872v.872c0 .516-.42.936-.936.936zm2.545 0a.937.937 0 01-.935-.936v-.872h1.871v.872c0 .516-.42.936-.936.936zm2.546 0a.937.937 0 01-.936-.936v-.872h1.872v.872c0 .516-.42.936-.936.936zm2.546 0a.937.937 0 01-.936-.936v-.872h1.872v.872c0 .516-.42.936-.936.936zm2.546 0a.937.937 0 01-.936-.936v-.872h1.872v.872c0 .516-.42.936-.936.936zM12.348 2.534V1.347l1.626.593-1.626.594zm-.349 2.022c2.096 2.694 5.808 5.113 7.656 6.22H4.345c1.847-1.107 5.56-3.526 7.654-6.22zM23.322 22.176c-1.635-2.018-2.424-5.118-2.798-7.364a.337.337 0 10-.664.111c.387 2.325 1.211 5.545 2.939 7.677a.116.116 0 01.014.127.118.118 0 01-.11.07h-3.359c-2.228-1.678-3.72-4.01-4.439-6.936.451-.227.873-.51 1.253-.842a.337.337 0 00-.444-.507 5.355 5.355 0 01-1.362.866c-.723.32-1.524.49-2.352.49a5.808 5.808 0 01-2.398-.511 5.363 5.363 0 01-1.287-.82.337.337 0 10-.44.51c.371.32.781.593 1.22.814-.72 2.926-2.211 5.258-4.44 6.936H1.299a.118.118 0 01-.111-.07.115.115 0 01.015-.127c1.725-2.13 2.55-5.345 2.937-7.666a.337.337 0 00-.665-.111C3.1 17.064 2.31 20.16.678 22.176a.788.788 0 00-.1.841.79.79 0 00.72.454h21.404a.79.79 0 00.72-.454.788.788 0 00-.1-.841zm-15.046-2.46a13.896 13.896 0 001.445-3.581A6.519 6.519 0 0012 16.54c.793 0 1.565-.14 2.28-.406.329 1.297.814 2.5 1.444 3.58a12.191 12.191 0 002.55 3.082H5.726a12.19 12.19 0 002.55-3.081z"/>
  </g>
</svg>
