<svg width="24" height="24" fill="none" xmlns="http://www.w3.org/2000/svg">
  <defs/>
  <path d="M5.626 2.686a.522.522 0 00-.52.52v19.253c0 .287.234.52.52.52h12.749c.286 0 .52-.233.52-.52V3.206a.522.522 0 00-.52-.52H5.625z" fill="#C2E7FF"/>
  <g fill="#01121C">
    <path d="M18.375 2.165h-1.093V1.02a.52.52 0 10-1.041 0v1.145h-2.133V1.02a.52.52 0 00-1.041 0v1.145h-2.134V1.02a.52.52 0 10-1.04 0v1.145H7.759V1.02a.52.52 0 10-1.04 0v1.145H5.625c-.574 0-1.041.467-1.041 1.04V22.46c0 .574.467 1.041 1.04 1.041h12.75c.573 0 1.04-.467 1.04-1.04V3.205c0-.574-.467-1.04-1.04-1.04zm0 20.294H5.625V3.206h1.093V4.35a.52.52 0 101.041 0V3.206h2.134V4.35a.52.52 0 101.04 0V3.206h2.134V4.35a.52.52 0 001.04 0V3.206h2.134V4.35a.52.52 0 001.04 0V3.206h1.094v19.253z"/>
    <path d="M15.773 17.048H8.227a.52.52 0 000 1.04h7.546a.52.52 0 000-1.04zM15.773 14.446H8.227a.52.52 0 000 1.04h7.546a.52.52 0 000-1.04zM15.773 11.844H8.227a.52.52 0 000 1.04h7.546a.52.52 0 000-1.04zM15.773 9.242H8.227a.52.52 0 100 1.04h7.546a.52.52 0 000-1.04z"/>
  </g>
</svg>
