<svg width="24" height="24" fill="none" xmlns="http://www.w3.org/2000/svg">
  <defs/>
  <path d="M15.813 4.168h3.023v18.926H5.174V4.168h3.022" fill="#CFDCE5"/>
  <path d="M12.005.876L9.297 4.272h1.374v3.983h2.668V4.272h1.374L12.005.876z" fill="#FF6F52"/>
  <path d="M5.169 19.621a.39.39 0 00.39-.39V4.572h2.632a.39.39 0 000-.78H5.17a.39.39 0 00-.39.39V19.23c0 .216.174.391.39.391z" fill="#000"/>
  <path d="M18.83 3.792h-3.022a.39.39 0 100 .781h2.632V22.72H5.56v-2.187a.39.39 0 00-.782 0v2.578c0 .215.175.39.39.39h13.663a.39.39 0 00.39-.39V4.183a.39.39 0 00-.39-.39z" fill="#000"/>
  <path d="M9.292 4.678h.983V8.27c0 .216.175.39.39.39h2.669a.39.39 0 00.39-.39V7.23a.39.39 0 10-.781 0v.65h-1.887V4.288a.39.39 0 00-.39-.39h-.563L12 1.516l1.897 2.38h-.563a.39.39 0 00-.391.39v1.765a.39.39 0 10.781 0V4.678h.984a.39.39 0 00.305-.634L12.305.647a.39.39 0 00-.61 0L8.986 4.044a.39.39 0 00.305.634zM7.704 9.832a.39.39 0 000 .781h.729a.39.39 0 100-.78h-.729zM16.295 9.832h-6.56a.39.39 0 000 .781h6.56a.39.39 0 100-.78zM7.704 12.66h3.931a.39.39 0 100-.782H7.704a.39.39 0 100 .781zM16.295 11.878h-3.359a.39.39 0 000 .781h3.359a.39.39 0 000-.78zM16.295 13.924H7.704a.39.39 0 000 .782h8.591a.39.39 0 100-.782zM7.704 15.97a.39.39 0 100 .782h2.265a.39.39 0 000-.781H7.704zM16.295 15.97H11.27a.39.39 0 000 .782h5.025a.39.39 0 000-.781zM16.295 20.063h-3.28a.39.39 0 000 .78h3.28a.39.39 0 100-.78z" fill="#000"/>
</svg>
