<svg width="24" height="24" fill="none" xmlns="http://www.w3.org/2000/svg">
  <defs/>
  <path d="M18.24.99H5.76v6.068h12.48V.989z" fill="#174461"/>
  <path d="M20.864 6.08H3.137c-.806 0-1.458.652-1.458 1.457v8.805h20.643V7.537c0-.805-.653-1.458-1.458-1.458z" fill="#4EB9FF"/>
  <path d="M18.24 23.01H5.76v-9.758L12 11.784l6.24 1.468v9.759z" fill="#FFCE47"/>
  <path d="M16.782 10.744H7.219c-.806 0-1.458.653-1.458 1.458v1.05H18.24v-1.05c0-.805-.653-1.458-1.458-1.458z" fill="#fff"/>
  <g fill="#01121C">
    <path d="M20.864 5.59h-2.135V.99a.49.49 0 00-.49-.49H5.761a.49.49 0 00-.49.49v4.6H3.136A1.95 1.95 0 001.19 7.537v8.805c0 .27.22.49.49.49H5.27v6.179c0 .27.22.489.49.489h12.478a.49.49 0 00.49-.49v-6.178h3.592a.49.49 0 00.49-.49V7.537a1.949 1.949 0 00-1.947-1.947zM6.25 1.478h11.5V5.59H15.61V3.452a.49.49 0 00-.978 0V5.59h-2.142V3.452a.49.49 0 10-.978 0V5.59H9.37V3.452a.49.49 0 10-.979 0V5.59H6.25V1.478zm11.5 11.285H6.25v-.56a.97.97 0 01.968-.97h9.564a.97.97 0 01.968.97v.56zm0 9.759H6.25V13.74h11.5v8.78zm4.082-6.669H18.73v-3.651a1.95 1.95 0 00-1.947-1.947H7.218a1.95 1.95 0 00-1.947 1.947v3.651H2.168V7.537a.97.97 0 01.968-.969h17.728a.97.97 0 01.968.97v8.315z"/>
    <path d="M19.847 7.927a.514.514 0 100 1.029.514.514 0 000-1.029zM17.89 7.927a.514.514 0 100 1.029.514.514 0 000-1.029zM15.907 20.082H8.093a.49.49 0 000 .978h7.814a.49.49 0 100-.978zM15.907 17.642H8.093a.49.49 0 100 .978h7.814a.49.49 0 100-.978zM15.907 15.202H12a.49.49 0 100 .979h3.907a.49.49 0 100-.979z"/>
  </g>
</svg>
