<svg width="24" height="24" fill="none" xmlns="http://www.w3.org/2000/svg">
  <defs/>
  <path d="M22.46 4.975h-2.602V2.894a.522.522 0 00-.52-.52H1.54a.522.522 0 00-.52.52v16.651c0 1.145.936 2.082 2.081 2.082h17.796a2.088 2.088 0 002.082-2.082V5.495a.522.522 0 00-.52-.52z" fill="#C2E7FF"/>
  <path d="M9.138 8.097H4.143v5.256h4.995V8.097z" fill="#4EB9FF"/>
  <g fill="#01121C">
    <path d="M9.398 17.984H4.142a.52.52 0 100 1.04h5.256a.52.52 0 100-1.04zM17.256 17.984H12a.52.52 0 100 1.04h5.256a.52.52 0 100-1.04zM17.256 4.975H4.142a.52.52 0 100 1.04h13.114a.52.52 0 000-1.04zM17.256 7.577H12a.52.52 0 100 1.04h5.256a.52.52 0 100-1.04zM17.256 10.179H12a.52.52 0 000 1.04h5.256a.52.52 0 000-1.04zM17.256 12.78H12a.52.52 0 000 1.041h5.256a.52.52 0 000-1.04zM17.256 15.382H12a.52.52 0 000 1.041h5.256a.52.52 0 000-1.04zM9.398 15.382H4.142a.52.52 0 000 1.041h5.256a.52.52 0 000-1.04zM9.398 7.577H4.142a.52.52 0 00-.52.52v5.256c0 .287.233.52.52.52h5.256a.52.52 0 00.52-.52V8.097a.52.52 0 00-.52-.52zm-.52 5.256H4.663V8.618h4.215v4.215z"/>
    <path d="M22.46 4.455h-1.562V2.894c0-.574-.467-1.041-1.04-1.041H1.54C.967 1.853.5 2.32.5 2.893v16.652a2.605 2.605 0 002.602 2.602h17.796a2.605 2.605 0 002.602-2.602V5.495c0-.573-.467-1.04-1.04-1.04zm0 15.09c0 .861-.701 1.561-1.562 1.561H3.102c-.861 0-1.561-.7-1.561-1.56V2.893h18.317v15.87c0 .718.583 1.302 1.3 1.302a.52.52 0 000-1.041.26.26 0 01-.26-.26V5.495h1.561v14.05z"/>
  </g>
</svg>
