<svg width="24" height="24" fill="none" xmlns="http://www.w3.org/2000/svg">
  <defs/>
  <path d="M14.359 14.906a.268.268 0 01-.126-.228V3.07a2.233 2.233 0 00-2.27-2.232c-1.225.02-2.195 1.045-2.195 2.27v11.571a.268.268 0 01-.126.227A4.462 4.462 0 007.536 18.8a4.479 4.479 0 004.4 4.364 4.465 4.465 0 002.423-8.257z" fill="#AAEBF9"/>
  <path d="M14.358 14.906a.268.268 0 01-.126-.228V3.07A2.233 2.233 0 0011.508.893a2.233 2.233 0 011.737 2.176v11.61c0 .092.048.178.126.227a4.466 4.466 0 01-1.863 8.23 4.465 4.465 0 002.851-8.23z" fill="#7BE2F6"/>
  <path d="M12.745 15.613V7.804a.27.27 0 00-.27-.27h-.95a.27.27 0 00-.269.27v7.81c0 .114-.072.218-.182.254a2.978 2.978 0 00-2.047 2.968 2.986 2.986 0 002.833 2.836 2.977 2.977 0 001.074-5.802.272.272 0 01-.19-.257z" fill="#FC4C1E"/>
  <path d="M12.934 15.87a.272.272 0 01-.189-.257V7.804a.27.27 0 00-.27-.27h-.949l-.02.002c.14.01.25.126.25.268v7.81c0 .117.078.22.19.256a2.978 2.978 0 01-.437 5.763 2.977 2.977 0 001.425-5.763z" fill="#DB3618"/>
  <path d="M14.57 14.64V3.07A2.572 2.572 0 0012 .5a2.572 2.572 0 00-2.57 2.57v7.847a.337.337 0 10.675 0V3.07c0-1.045.85-1.895 1.895-1.895 1.046 0 1.896.85 1.896 1.896v11.76c0 .12.064.232.168.292a4.144 4.144 0 012.065 3.576A4.133 4.133 0 0112 22.826a4.133 4.133 0 01-4.128-4.128c0-1.47.791-2.84 2.064-3.576a.337.337 0 00.169-.292v-2.565a.337.337 0 00-.674 0v2.376a4.821 4.821 0 00-2.233 4.057A4.807 4.807 0 0012 23.5a4.807 4.807 0 004.802-4.802 4.82 4.82 0 00-2.232-4.057z" fill="#000"/>
  <path d="M10.92 7.535v8.03a3.313 3.313 0 00-2.233 3.133A3.317 3.317 0 0012 22.012a3.318 3.318 0 003.314-3.314 3.313 3.313 0 00-2.232-3.134v-8.03a.337.337 0 00-.337-.336h-1.489a.337.337 0 00-.337.337zm.673 8.28V7.872h.815v7.943c0 .154.104.288.253.326a2.638 2.638 0 011.98 2.557 2.643 2.643 0 01-2.64 2.64 2.643 2.643 0 01-2.64-2.64c0-1.205.813-2.257 1.98-2.557a.337.337 0 00.252-.326zM12.744 5.64a.337.337 0 100-.675H12a.337.337 0 100 .674h.744z" fill="#000"/>
</svg>
