<svg width="24" height="24" fill="none" xmlns="http://www.w3.org/2000/svg">
  <defs/>
  <path d="M9.921 23.097a6.845 6.845 0 100-13.69 6.845 6.845 0 000 13.69z" fill="#FFEFCA"/>
  <g fill="#FBD696">
    <path d="M9.941 9.408c.124.43.309.848.556 1.242a.382.382 0 00-.054.033l-1.327.979a.375.375 0 10.445.603l1.327-.98a.382.382 0 00.047-.041 4.872 4.872 0 002.618 1.577.38.38 0 00-.015.063l-.246 1.63a.375.375 0 10.74.112l.247-1.63a.367.367 0 00.004-.066 4.892 4.892 0 001.548-.132 6.841 6.841 0 00-5.89-3.39zM8.09 16.26a.375.375 0 00-.374-.376h-4.63a6.997 6.997 0 000 .75h4.63a.375.375 0 00.375-.375zM11.989 15.884a.375.375 0 100 .75h4.658a.376.376 0 00.11-.016 7.017 7.017 0 000-.717.376.376 0 00-.11-.017h-4.658z"/>
  </g>
  <path d="M20.927 8.012l-1.63-.247a.377.377 0 00-.073-.003 4.871 4.871 0 00-.735-2.963.373.373 0 00.063-.037l1.327-.979a.375.375 0 10-.444-.603l-1.328.979a.377.377 0 00-.054.049 4.872 4.872 0 00-2.613-1.577.374.374 0 00.018-.07l.246-1.63a.375.375 0 10-.741-.112l-.246 1.63a.376.376 0 00-.004.072 4.872 4.872 0 00-2.964.731.376.376 0 00-.036-.058l-.979-1.328a.375.375 0 00-.603.445l.98 1.327c.013.019.028.035.045.05a4.873 4.873 0 00-1.58 2.616.373.373 0 00-.063-.016l-1.631-.246a.375.375 0 10-.112.741l1.63.246a.376.376 0 00.057.005h.008A4.872 4.872 0 0010.2 10a.378.378 0 00-.054.033l-1.327.979a.375.375 0 10.444.603l1.328-.98a.374.374 0 00.047-.041 4.872 4.872 0 002.618 1.577.382.382 0 00-.016.062l-.246 1.631a.375.375 0 10.741.112l.246-1.63a.387.387 0 00.004-.066 4.871 4.871 0 002.965-.737c.01.02.021.04.035.058l.979 1.327a.374.374 0 10.603-.444l-.98-1.328a.378.378 0 00-.045-.05 4.872 4.872 0 001.574-2.617.376.376 0 00.07.018l1.63.246a.375.375 0 00.112-.741zm-5.19 1.276a2.345 2.345 0 11-2.785-3.775 2.345 2.345 0 012.785 3.775z" fill="#8D93A4"/>
  <path d="M9.891 20.135a5.758 5.758 0 01-3.246-1.005.375.375 0 11.422-.62 4.998 4.998 0 005.607.028l.046-.03a.375.375 0 01.415.624l-.045.03a5.76 5.76 0 01-3.199.973z" fill="#FBD696"/>
  <path d="M9.942 23.5c3.99 0 7.236-3.246 7.236-7.237a7.28 7.28 0 00-.174-1.586.375.375 0 00-.732.163c.077.343.126.695.146 1.049h-4.407a.375.375 0 000 .749h4.407a6.495 6.495 0 01-6.476 6.112 6.495 6.495 0 01-6.476-6.112h4.271a.375.375 0 000-.75h-4.27a6.459 6.459 0 011.004-3.113 6.506 6.506 0 012.64-2.35.375.375 0 10-.327-.675 7.255 7.255 0 00-2.945 2.622 7.214 7.214 0 00-1.134 3.891c0 3.99 3.246 7.237 7.237 7.237z" fill="#000"/>
  <path d="M19.003 9.247a.375.375 0 00.47-.244c.046-.146.085-.294.118-.443l1.274.193a.375.375 0 00.112-.741l-1.275-.193a5.347 5.347 0 00-.81-3.271l1.037-.765a.375.375 0 10-.445-.603l-1.036.764a5.3 5.3 0 00-2.887-1.738l.193-1.275a.375.375 0 10-.741-.112l-.193 1.276a5.3 5.3 0 00-3.271.808l-.765-1.037a.375.375 0 00-.603.445l.764 1.036a5.275 5.275 0 00-1.74 2.887l-1.273-.192a.375.375 0 10-.112.74l1.273.193a5.275 5.275 0 00.81 3.272l-1.036.764a.375.375 0 00.445.604l1.037-.765a5.3 5.3 0 002.886 1.738l-.192 1.276a.375.375 0 10.74.112l.194-1.276a5.292 5.292 0 003.271-.808l.764 1.036a.374.374 0 10.604-.445l-.765-1.036c.253-.215.485-.453.693-.71a.375.375 0 10-.584-.47 4.578 4.578 0 01-7.242-.155 4.542 4.542 0 01-.841-3.397 4.543 4.543 0 011.807-2.998 4.578 4.578 0 016.394.966 4.59 4.59 0 01.68 4.094.375.375 0 00.245.47z" fill="#000"/>
  <path d="M14.392 4.68c-.583 0-1.141.184-1.612.531a2.702 2.702 0 00-1.075 1.783c-.109.719.07 1.436.5 2.02a2.732 2.732 0 002.191 1.106c.584 0 1.142-.183 1.613-.53a2.702 2.702 0 001.075-1.784 2.702 2.702 0 00-.5-2.02 2.732 2.732 0 00-2.192-1.106zm1.95 3.014c-.078.52-.354.98-.778 1.292a1.954 1.954 0 01-1.168.385 1.98 1.98 0 01-1.587-.801 1.958 1.958 0 01-.363-1.464c.079-.52.355-.98.779-1.292a1.955 1.955 0 011.167-.384c.625 0 1.218.3 1.588.8.313.424.441.944.363 1.464zM6.596 18.609a.375.375 0 00.1.52 5.758 5.758 0 003.245 1.005 5.76 5.76 0 003.199-.972l.045-.03a.375.375 0 10-.416-.624l-.045.03a4.998 4.998 0 01-5.607-.028.375.375 0 00-.52.099z" fill="#000"/>
</svg>
