<svg width="24" height="24" fill="none" xmlns="http://www.w3.org/2000/svg">
  <defs>
    <path d="M19.43 3.476l.696 1.411a.294.294 0 00.22.16l1.558.227c.24.035.337.331.163.501L20.94 6.873a.294.294 0 00-.085.26l.267 1.551a.294.294 0 01-.427.31l-1.393-.732a.294.294 0 00-.273 0l-1.393.732a.294.294 0 01-.426-.31l.266-1.55a.294.294 0 00-.084-.26l-1.127-1.099a.294.294 0 01.163-.501l1.557-.226a.294.294 0 00.221-.161l.696-1.411a.294.294 0 01.527 0z" fill="#F7CB4F" id="reuse-2"/>
    <path d="M12.343 1.001l.697 1.411a.294.294 0 00.22.161l1.558.226c.24.035.337.331.163.501L13.854 4.4a.293.293 0 00-.084.26l.266 1.55a.294.294 0 01-.427.31l-1.393-.732a.293.293 0 00-.273 0l-1.393.732a.294.294 0 01-.426-.31l.266-1.55a.294.294 0 00-.084-.26L9.179 3.3a.294.294 0 01.163-.5l1.557-.227a.294.294 0 00.221-.16L11.816 1a.294.294 0 01.527 0z" fill="#F7CB4F" id="reuse-1"/>
    <path d="M5.244 3.476l.696 1.411a.294.294 0 00.221.16l1.557.227c.241.035.338.331.163.501L6.754 6.873a.293.293 0 00-.084.26l.266 1.551a.294.294 0 01-.426.31l-1.393-.732a.294.294 0 00-.273 0l-1.393.732a.294.294 0 01-.426-.31l.266-1.55a.294.294 0 00-.085-.26L2.08 5.774a.294.294 0 01.163-.501L3.8 5.048a.294.294 0 00.221-.161l.697-1.411a.294.294 0 01.527 0z" fill="#F7CB4F" id="reuse-0"/>
  </defs>
  <path d="M16.164 16.123l.72-3.625c.08-.41.096-.831.029-1.243-.124-.756-.478-1.313-1.325-1.313l-.222 1.303c-.086.51-.206 1.015-.369 1.507-.404 1.225-.936 2.02-2.047 2.494-.579.248-1.008.446-1.008.446h-1.803v6.112h1.803l.818.663c.55.446 1.237.689 1.946.689h2.222v-7.033h-.764z" fill="#F7B081"/>
  <path d="M7.517 14.383H1.845v8.619h5.672v-8.619z" fill="#546F7A"/>
  <path d="M7.517 22.044H1.845v.957h5.672v-.957z" fill="#465A65"/>
  <path d="M10.139 15.085H7.517V22.3h2.622v-7.216z" fill="#EFE7E4"/>
  <path d="M10.139 21.293H7.517V22.3h2.622v-1.008z" fill="#D8D1D0"/>
  <path d="M16.014 17.042v-.189c0-.438.355-.793.793-.793h3.515c.438 0 .794.355.794.793v.19a.793.793 0 01-.794.793h-3.515a.793.793 0 01-.793-.794z" fill="#FFC89F"/>
  <path d="M20.228 17.08H16.9a.887.887 0 01-.802-.51.888.888 0 00.803 1.266h3.326a.888.888 0 00.802-1.266.887.887 0 01-.802.51z" fill="#F7B081"/>
  <path d="M16.014 20.5c0-.491.397-.889.887-.889h3.327a.888.888 0 010 1.776H16.9a.888.888 0 01-.887-.888z" fill="#FFC89F"/>
  <path d="M20.228 20.631H16.9a.887.887 0 01-.802-.51.888.888 0 00.803 1.266h3.326a.888.888 0 00.802-1.266.887.887 0 01-.802.51z" fill="#F7B081"/>
  <path d="M16.014 22.275c0-.49.397-.888.887-.888h2.411a.888.888 0 110 1.776h-2.41a.888.888 0 01-.888-.888z" fill="#FFC89F"/>
  <path d="M19.312 22.407h-2.41a.887.887 0 01-.803-.51.888.888 0 00.803 1.266h2.41a.888.888 0 00.803-1.266.887.887 0 01-.803.51z" fill="#F7B081"/>
  <path d="M16.014 18.818v-.19c0-.437.355-.792.793-.792h3.926c.438 0 .793.355.793.793v.189a.793.793 0 01-.793.793h-3.926a.793.793 0 01-.793-.793z" fill="#FFC89F"/>
  <path d="M20.638 18.856h-3.737a.887.887 0 01-.802-.51.888.888 0 00.803 1.265h3.736a.888.888 0 00.803-1.265.887.887 0 01-.803.51z" fill="#F7B081"/>
  <path d="M16.013 22.275c0-.49.398-.888.888-.888a.888.888 0 010-1.776.888.888 0 010-1.775.888.888 0 010-1.776h-1.007a.888.888 0 100 1.776.888.888 0 100 1.775.888.888 0 000 1.776.888.888 0 100 1.776H16.9a.888.888 0 01-.888-.888z" fill="#DD9A76"/>
  <use xlink:href="#reuse-0"/>
  <use xlink:href="#reuse-0"/>
  <path d="M7.881 5.775a.294.294 0 00-.162-.501l-.271-.04-1.45 1.414a.378.378 0 00-.109.334l.318 1.853.303.159a.294.294 0 00.426-.31l-.266-1.55a.294.294 0 01.085-.26L7.88 5.774z" fill="#FBAB00"/>
  <use xlink:href="#reuse-1"/>
  <use xlink:href="#reuse-1"/>
  <path d="M14.981 3.3a.294.294 0 00-.163-.5l-.27-.04-1.45 1.413a.378.378 0 00-.11.335l.319 1.852.303.16a.294.294 0 00.426-.31l-.266-1.551a.294.294 0 01.084-.26L14.981 3.3z" fill="#FBAB00"/>
  <use xlink:href="#reuse-2"/>
  <use xlink:href="#reuse-2"/>
  <path d="M22.067 5.775a.294.294 0 00-.163-.501l-.27-.04-1.45 1.414a.378.378 0 00-.11.334l.318 1.853.303.159a.294.294 0 00.427-.31l-.266-1.55a.294.294 0 01.084-.26l1.127-1.099z" fill="#FBAB00"/>
  <path d="M5.726 21.804a.537.537 0 100-1.074.537.537 0 000 1.074z" fill="#000"/>
  <path d="M21.28 17.64c.11-.173.173-.378.173-.598v-.189c0-.623-.508-1.13-1.131-1.13h-3.515c-.077 0-.151.007-.224.022l.632-3.182c.092-.466.103-.925.031-1.363-.12-.728-.504-1.596-1.658-1.596a.338.338 0 00-.333.281l-.221 1.303a10.045 10.045 0 01-.357 1.458c-.413 1.253-.934 1.895-1.86 2.29-.444.19-.804.353-.949.418h-1.392v-.27a.337.337 0 00-.337-.337H7.854v-.364a.337.337 0 00-.337-.337H1.844a.337.337 0 00-.337.337v2.003a.337.337 0 10.675 0V14.72H7.18v7.943H2.182V17.51a.337.337 0 10-.675 0v5.491c0 .187.151.338.337.338h5.673a.337.337 0 00.337-.337v-.365h2.285a.337.337 0 00.337-.337v-.158h1.346l.725.587a3.441 3.441 0 002.16.764H16.768c.044.004.087.007.132.007h2.41a1.227 1.227 0 001.089-1.788 1.227 1.227 0 00.849-1.889c.364-.188.614-.568.614-1.005v-.19c0-.424-.235-.794-.582-.988zm-.548 1.634h-3.926a.456.456 0 01-.455-.456v-.19c0-.25.204-.455.456-.455H20.732c.252 0 .456.205.456.456v.189a.456.456 0 01-.456.456zm-.41-2.877c.251 0 .456.205.456.456v.19a.456.456 0 01-.456.455h-3.515a.456.456 0 01-.456-.456v-.181a7.36 7.36 0 00.058-.23.456.456 0 01.398-.233h3.515zm-7.35 5.807l-.818-.662a.337.337 0 00-.212-.075h-1.466v-.968a.337.337 0 10-.675 0v1.464H7.854v-6.54h1.947v3.951a.337.337 0 10.675 0V16.03h1.466c.048 0 .097-.01.14-.03.005-.002.433-.2 1.001-.442 1.112-.476 1.76-1.258 2.235-2.7.16-.484.288-1.008.381-1.556l.169-.992c.396.092.614.406.712 1 .059.358.05.736-.027 1.123l-.72 3.626a4.716 4.716 0 01-.067.353c-.045.105-.074.219-.085.338-.267.954-.955 2.59-2.53 2.59a.337.337 0 100 .675c1.044 0 1.915-.54 2.54-1.565-.01.059-.015.119-.015.18v.19c0 .322.136.614.354.82a1.221 1.221 0 00.028 1.748 1.221 1.221 0 00-.255 1.431h-1.097c-.629 0-1.245-.218-1.734-.614zm6.34.621h-2.41a.551.551 0 010-1.1h2.41a.551.551 0 010 1.1zm.915-1.776h-3.325a.55.55 0 010-1.1h3.325a.551.551 0 010 1.1zM2.955 7.099l-.262 1.528a.627.627 0 00.25.618.629.629 0 00.666.048L4.98 8.57l1.372.722a.627.627 0 00.665-.048.627.627 0 00.251-.618L7.007 7.1l1.11-1.082a.627.627 0 00.16-.648.627.627 0 00-.51-.43l-1.534-.222-.686-1.39a.627.627 0 00-.566-.352.627.627 0 00-.566.351l-.686 1.391-1.535.223a.627.627 0 00-.51.43.628.628 0 00.16.647l1.11 1.082zm.894-1.717a.63.63 0 00.475-.346l.657-1.331.657 1.331a.63.63 0 00.475.346l1.47.213L6.52 6.632a.631.631 0 00-.182.558l.251 1.464-1.314-.691a.631.631 0 00-.588 0l-1.314.69.25-1.463a.631.631 0 00-.18-.558L2.378 5.595l1.47-.213zM10.053 4.624l-.262 1.528a.627.627 0 00.251.618c.196.142.45.16.665.048l1.373-.722 1.372.722a.631.631 0 00.916-.665l-.262-1.529 1.11-1.082a.627.627 0 00.16-.647.628.628 0 00-.51-.43l-1.534-.223-.686-1.39A.627.627 0 0012.08.5a.627.627 0 00-.566.352l-.687 1.39-1.534.223a.627.627 0 00-.51.43.628.628 0 00.16.647l1.11 1.082zm.894-1.717a.631.631 0 00.476-.345l.657-1.332.657 1.332c.092.186.27.315.475.345l1.47.213-1.064 1.037a.631.631 0 00-.181.559l.25 1.463-1.314-.69a.631.631 0 00-.587 0l-1.314.69.25-1.463a.631.631 0 00-.181-.559L9.478 3.12l1.47-.213zM22.462 5.37a.627.627 0 00-.51-.43l-1.534-.223-.686-1.39a.627.627 0 00-.566-.352.627.627 0 00-.567.352l-.686 1.39-1.534.223a.627.627 0 00-.51.43.627.627 0 00.16.647l1.11 1.082-.262 1.528a.627.627 0 00.251.618c.196.142.45.16.665.048l1.373-.722 1.372.722a.63.63 0 00.916-.666L21.192 7.1l1.11-1.082a.628.628 0 00.16-.647zm-1.758 1.262a.631.631 0 00-.181.558l.25 1.464-1.314-.691a.63.63 0 00-.587 0l-1.315.69.251-1.463a.631.631 0 00-.181-.558l-1.063-1.037 1.469-.213a.631.631 0 00.475-.346l.658-1.331.657 1.331c.092.187.27.316.475.346l1.47.213-1.064 1.037z" fill="#000"/>
</svg>
