<svg width="24" height="24" fill="none" xmlns="http://www.w3.org/2000/svg">
  <defs/>
  <g fill-rule="evenodd" clip-rule="evenodd">
    <path d="M18.179 2.614H2.286A1.45 1.45 0 00.84 4.059v15.882c0 .795.65 1.445 1.446 1.445h15.893a1.45 1.45 0 001.446-1.445V4.059a1.45 1.45 0 00-1.446-1.445z" fill="#E6E6E6"/>
    <path d="M18.302 16.597l-.29.31v3.034a1.45 1.45 0 01-1.446 1.445h1.613a1.45 1.45 0 001.447-1.445v-6.485l-1.324 3.141z" fill="#C2C7CC"/>
    <path d="M15.388 17.384l-.04.799c-.027.591.603.908 1.061.447l.546-.586-.523-.921-1.044.26z" fill="gray"/>
    <path d="M18.301 16.597l-1.056-1.185h-1.757l-.1 1.972 1.568.66 1.345-1.447z" fill="#FFDDA6"/>
    <path d="M19.626 5.594l-3.906 9.27-.232.548 2.814 1.185 1.324-3.14 3.195-7.579v-.001l-1.044-1.32-1.77.135-.381.902z" fill="#50D960"/>
    <path d="M22.227 3.355a1.53 1.53 0 00-2 .813l-.221.524 2.815 1.185.22-.523a1.53 1.53 0 00-.814-1.999z" fill="#F78411"/>
    <path d="M17.133 16.105l1.169.492 1.323-3.14 3.196-7.58-1.17-.493v.002l-3.195 7.578-1.323 3.141z" fill="#2BAD3B"/>
    <path d="M17.133 16.105l-.762 1.808.584.13 1.346-1.446-1.168-.492z" fill="#FCC368"/>
    <path d="M21.589 3.237a1.534 1.534 0 01.283 1.624l-.22.523 1.17.493.22-.523a1.53 1.53 0 00-.814-1.999 1.51 1.51 0 00-.64-.118z" fill="#F74311"/>
    <path d="M16.372 17.797l-.546.586a.727.727 0 01-.37.21c.194.296.62.373.954.037l.546-.586-.584-.247z" fill="#666"/>
    <path d="M18.013 4.059v5.363l1.613-3.828V4.06a1.45 1.45 0 00-1.447-1.445h-1.613c.796 0 1.447.65 1.447 1.445z" fill="#C2C7CC"/>
  </g>
  <path d="M2.623 6.298c0 .918.747 1.665 1.665 1.665.919 0 1.666-.747 1.666-1.665a1.666 1.666 0 00-3.33 0zm2.652 0a.987.987 0 01-1.973 0 .986.986 0 011.973 0zM8.88 13.35a.338.338 0 00.48 0l.872-.87.872.87a.339.339 0 10.48-.48l-.871-.87.87-.87a.34.34 0 10-.48-.48l-.87.87-.872-.87a.34.34 0 10-.48.48l.87.87-.87.87a.34.34 0 000 .48zM5.91 12c0-.918-.747-1.665-1.665-1.665-.919 0-1.666.747-1.666 1.665s.747 1.664 1.666 1.664c.918 0 1.665-.746 1.665-1.664zm-2.652 0a.988.988 0 011.973 0 .987.987 0 01-1.973 0zM2.938 19.102a.338.338 0 00.48 0l.871-.87.87.87a.338.338 0 00.48 0 .34.34 0 000-.48l-.87-.87.87-.87a.34.34 0 00-.48-.48l-.87.87-.87-.87a.34.34 0 10-.48.48l.87.87-.87.87a.34.34 0 000 .48zM17.605 6.298a1.666 1.666 0 00-3.33 0c0 .918.747 1.665 1.665 1.665s1.665-.747 1.665-1.665zm-2.652 0a.987.987 0 011.973 0 .987.987 0 01-1.973 0z" fill="#000"/>
  <path d="M23.36 4.058a1.849 1.849 0 00-1-1.015 1.852 1.852 0 00-1.429-.008c-.429.174-.77.493-.971.903a1.787 1.787 0 00-1.781-1.664h-7.002a.34.34 0 000 .68h7.002c.61 0 1.106.495 1.106 1.105v1.468l-1.378 3.27h-4.47V4.216a.34.34 0 10-.679 0v4.58H7.706v-4.58a.34.34 0 10-.679 0v4.58H2.442a.34.34 0 100 .68h4.585v5.048H2.442a.34.34 0 100 .68h4.585v4.58a.34.34 0 10.679 0v-4.58h5.052v4.58a.34.34 0 10.68 0v-4.58h1.77l-.033.076v.002a.339.339 0 00-.027.113l-.14 2.773c-.019.418.2.79.557.946a.89.89 0 00.36.076c.258 0 .516-.11.725-.32l.008-.008 1.891-2.033.007-.007.009-.011a.39.39 0 00.024-.033l.001-.003a.368.368 0 00.022-.042l.002-.004.672-1.593v4.805c0 .61-.497 1.106-1.107 1.106H2.286c-.61 0-1.107-.496-1.107-1.106V4.059c0-.61.496-1.106 1.107-1.106H9.62a.34.34 0 000-.679H2.286C1.3 2.274.5 3.074.5 4.06v15.882c0 .984.801 1.785 1.786 1.785h15.893c.984 0 1.786-.8 1.786-1.785v-6.415l1.102-2.615a.34.34 0 00-.626-.264l-1.126 2.672-.005.012-1.19 2.822-2.188-.922 4.255-10.094 2.189.921-1.423 3.373a.34.34 0 00.626.263l1.551-3.678.003-.006.22-.524c.194-.457.196-.965.007-1.428zM12.758 14.524H7.706V9.476h5.052v5.048zm3.407 3.87c-.108.107-.226.143-.327.099-.078-.034-.159-.13-.152-.293l.016-.315.674.283-.211.227zm1.557-1.672l-.854.917-1.13-.476.064-1.25 1.92.809zm-2.229-2.198h-2.056V9.476h4.184l-2.128 5.048zm7.235-9.301l-.088.21-2.19-.921.09-.212c.122-.29.352-.516.647-.636a1.179 1.179 0 011.544.65c.12.295.12.618-.003.909z" fill="#000"/>
</svg>
