<svg width="24" height="24" fill="none" xmlns="http://www.w3.org/2000/svg">
  <defs/>
  <g fill-rule="evenodd" clip-rule="evenodd">
    <path d="M5.077 9.938v.01c.004 1.204.742 1.32 1.51.813l.786-.521c.997-.66 1.79-.11 2.052.784A2.462 2.462 0 019.27 12.8h12.082c.994 0 1.808-.815 1.808-1.809V4.85c0-.996-.814-1.81-1.808-1.81H6.886c-.994 0-1.809.814-1.809 1.81v5.088z" fill="#E6E6E6"/>
    <path d="M2.346 18.354v2.324c0 .154.126.281.28.281h6.283a.282.282 0 00.281-.28v-2.136a.47.47 0 00-.47-.47H2.627a.281.281 0 00-.28.281z" fill="#64B0D9"/>
    <path d="M1.433 9.485C.838 10.72.615 11.57 1.127 13.12l1.64 4.954H8.27c.038 0 .077.005.112.014a11.413 11.413 0 00-.702-2.416c-.356-.832-.292-.89.305-1.383.443-.367.978-.85 1.284-1.487a2.462 2.462 0 00.156-1.777c-.262-.893-1.056-1.443-2.052-.784l-.787.52c-.767.507-1.506.393-1.51-.813V5.732c-1.16-.054-1.679-.319-2.3.967L1.433 9.485z" fill="#FFDDA6"/>
    <path d="M6.336 15.201c.29.679.537 1.974.7 2.872h1.235c.038 0 .076.005.112.014a11.411 11.411 0 00-.703-2.416c-.355-.832-.291-.89.306-1.383.443-.367.977-.85 1.284-1.487a2.462 2.462 0 00.155-1.777c-.22-.752-.817-1.261-1.596-1.01.108.157.194.34.252.539.023.08.042.162.056.246a2.457 2.457 0 01-.211 1.53 3.07 3.07 0 01-.283.472c-.297.412-.674.746-1.002 1.015-.596.493-.66.553-.305 1.385zM4.268 5.677l.003 4.628v.009c.003.883.376 1.218.874 1.164a.963.963 0 00.13-.021 1.86 1.86 0 00.605-.275l.348-.23c-.624.251-1.148.01-1.15-1.005V6.113 5.73c-.311-.015-.578-.044-.81-.054z" fill="#FCC368"/>
    <path d="M20.957 4.85v6.142c0 .994-.813 1.809-1.809 1.809h2.204c.994 0 1.809-.815 1.809-1.809V4.85c0-.996-.815-1.81-1.81-1.81h-2.203c.996 0 1.81.814 1.81 1.81z" fill="#C2C7CC"/>
  </g>
  <path d="M21.352 2.701h-6.673a.34.34 0 000 .68h6.673c.81 0 1.47.658 1.47 1.468v6.143c0 .81-.66 1.47-1.47 1.47H9.757c.093-.332.13-.698.081-1.099h.86a.34.34 0 000-.679H9.664c-.186-.449-.497-.793-.884-.96-.342-.148-.897-.227-1.594.233l-.786.52c-.307.203-.593.277-.748.194-.15-.08-.235-.348-.235-.733V4.849c0-.81.659-1.469 1.47-1.469h6.237a.34.34 0 100-.679H6.885A2.15 2.15 0 004.738 4.85v.52a100.88 100.88 0 01-.097-.007c-.859-.067-1.537-.12-2.17 1.19L1.127 9.337c-.646 1.34-.86 2.264-.322 3.888l.433 1.306.135.41a.34.34 0 00.645-.212l-.568-1.718c-.47-1.42-.3-2.159.288-3.38l1.345-2.786c.43-.892.68-.872 1.505-.807l.15.011v3.888c0 .836.322 1.185.593 1.331.391.21.904.13 1.443-.226l.787-.52c.244-.162.608-.323.95-.175.316.136.553.502.636.978a2.123 2.123 0 01-.192 1.35c-.259.52-.707.954-1.185 1.35-.33.272-.549.452-.623.741-.077.302.038.607.221 1.037.243.568.448 1.228.599 1.93H3.012l-.539-1.628a.34.34 0 10-.644.214l.494 1.493a.621.621 0 00-.317.541v2.324c0 .342.278.62.62.62h6.283c.342 0 .62-.278.62-.62v-2.136a.81.81 0 00-.809-.809h-.06a11.53 11.53 0 00-.667-2.195c-.07-.163-.214-.501-.188-.602.02-.075.194-.22.397-.387.324-.268.89-.737 1.27-1.409h11.88a2.15 2.15 0 002.148-2.148V4.849a2.15 2.15 0 00-2.148-2.148zM8.85 18.542v2.078H2.685v-2.208H8.72c.07 0 .13.06.13.13z" fill="#000"/>
  <path d="M7.241 8.884c.192 0 .302-.105.332-.316l.234-1.627.492 1.676c.057.178.17.267.34.267.101 0 .176-.02.224-.057a.413.413 0 00.116-.21l.492-1.676.238 1.627c.033.21.145.316.336.316a.319.319 0 00.238-.096.34.34 0 00.094-.248l-.008-.066-.381-2.262a.413.413 0 00-.154-.252.443.443 0 00-.285-.1c-.227 0-.373.11-.439.331l-.47 1.562-.464-1.562c-.071-.221-.217-.332-.439-.332a.45.45 0 00-.29.103.4.4 0 00-.152.25l-.381 2.262A.342.342 0 007 8.785a.32.32 0 00.241.099zM11.466 6.267c-.27.286-.405.65-.405 1.096 0 .451.136.82.407 1.109.272.288.617.432 1.035.432.421 0 .767-.145 1.037-.436.271-.291.406-.657.406-1.097 0-.445-.135-.812-.406-1.1a1.355 1.355 0 00-1.032-.432c-.424 0-.771.143-1.042.428zm1.583.428c.136.172.205.4.205.68s-.07.505-.207.679a.66.66 0 01-.543.26.661.661 0 01-.546-.258c-.136-.172-.205-.402-.205-.689 0-.278.07-.503.211-.674.141-.17.32-.256.54-.256.226 0 .408.086.545.258zM16.714 5.863c-.15 0-.253.073-.307.217l-.62 1.677-.618-1.677c-.057-.144-.16-.217-.307-.217a.334.334 0 00-.24.097.304.304 0 00-.1.227c0 .03.002.057.008.082.005.025.012.05.02.074l.91 2.283a.578.578 0 00.135.213c.044.035.112.053.205.053.14 0 .245-.089.316-.266l.91-2.283a.43.43 0 00.029-.156.306.306 0 00-.099-.23.336.336 0 00-.242-.094zM18.069 5.86a.316.316 0 00-.236.104.331.331 0 00-.1.235v2.353a.32.32 0 00.096.236.32.32 0 00.235.096.32.32 0 00.236-.096.316.316 0 00.096-.232V6.199a.334.334 0 00-.096-.24.31.31 0 00-.231-.1zM19.628 5.892a.318.318 0 00-.238.102.333.333 0 00-.098.238v2.279a.332.332 0 00.34.336h1.082c.088 0 .16-.029.22-.086a.282.282 0 00.088-.21.281.281 0 00-.025-.118.327.327 0 00-.066-.094.306.306 0 00-.217-.09h-.754v-.587h.66a.303.303 0 00.311-.299c0-.079-.03-.149-.09-.209a.301.301 0 00-.221-.09h-.664v-.566h.738c.079 0 .149-.03.209-.09a.323.323 0 00.086-.217.292.292 0 00-.086-.21.282.282 0 00-.21-.09h-1.065v.001zM21.218 4.9h.028a.34.34 0 100-.679h-.027a.34.34 0 100 .679zM7.14 4.56a.34.34 0 00-.339-.339h-.028a.34.34 0 000 .679h.028a.34.34 0 00.34-.34zM12.475 10.684a.34.34 0 000 .68h1.274a.34.34 0 100-.68h-1.274zM15.526 10.684a.34.34 0 000 .68H16.8a.34.34 0 100-.68h-1.274zM18.236 11.024c0 .187.152.34.34.34h1.274a.34.34 0 100-.68h-1.274a.34.34 0 00-.34.34z" fill="#000"/>
</svg>
