<svg width="24" height="24" fill="none" xmlns="http://www.w3.org/2000/svg">
  <defs/>
  <path d="M21.616 23.163H2.383a.203.203 0 01-.202-.203V1.95c0-.614.498-1.113 1.113-1.113h17.41c.616 0 1.114.499 1.114 1.114v21.01c0 .111-.09.202-.203.202z" fill="#F43B45"/>
  <path d="M20.704.837h-2.118c.503 0 .911.408.911.911v21.415h2.118c.112 0 .203-.09.203-.203V1.95c0-.614-.499-1.113-1.114-1.113z" fill="#D82B2B"/>
  <path d="M20.066 2.59H3.934v14.657h16.132V2.59z" fill="#75CFF2"/>
  <path d="M14.898 17.247H9.102v-3.175a2.898 2.898 0 015.796 0v3.175z" fill="#EDEDED"/>
  <path d="M12 11.173c-.414 0-.806.087-1.161.243a2.898 2.898 0 011.738 2.656v3.175h2.32v-3.175c0-1.601-1.297-2.899-2.898-2.899z" fill="#D6D6D6"/>
  <path d="M22.575 19.54H1.424a.426.426 0 01-.426-.427v-1.44c0-.235.19-.426.426-.426h21.151c.235 0 .426.19.426.426v1.44c0 .236-.19.426-.426.426z" fill="#AA4B21"/>
  <path d="M22.105.837H1.893a.55.55 0 00-.55.55v3.912c0 .303.247.55.55.55h20.212a.55.55 0 00.55-.55V1.387a.55.55 0 00-.55-.55z" fill="#EDEDED"/>
  <path d="M22.105.837h-1.771v5.011h1.771a.55.55 0 00.55-.55V1.388a.55.55 0 00-.55-.55z" fill="#D6D6D6"/>
  <g>
    <g fill="#000">
      <path d="M8.146 2.209c.1 0 .146.107.146.206 0 .11-.053.21-.146.21h-.52v2.039c0 .096-.117.146-.23.146-.118 0-.232-.05-.232-.146V2.625h-.523c-.093 0-.146-.096-.146-.21 0-.1.046-.206.146-.206h1.505zM8.651 2.35c0-.1.114-.142.232-.142.114 0 .23.043.23.142v2.313c0 .096-.117.146-.23.146-.118 0-.232-.05-.232-.146V2.35zM10.46 2.614c-.24 0-.374.131-.374.409v.993c0 .277.135.409.38.409.324 0 .353-.232.363-.381.007-.11.107-.146.228-.146.16 0 .235.046.235.228 0 .43-.352.704-.85.704-.449 0-.819-.22-.819-.815v-.992c0-.594.374-.815.822-.815.495 0 .847.263.847.676 0 .185-.075.228-.231.228-.132 0-.228-.04-.232-.146-.007-.11-.032-.352-.37-.352zM11.712 2.35c0-.1.114-.142.231-.142.114 0 .232.043.232.142v.972l.768-1.047a.147.147 0 01.128-.067c.117 0 .267.12.267.238a.137.137 0 01-.028.09l-.637.796.775 1.182a.138.138 0 01.025.081c0 .114-.142.232-.277.232a.18.18 0 01-.16-.09l-.67-1.013-.191.242v.697c0 .096-.118.146-.232.146-.117 0-.231-.05-.231-.146V2.35zM14.245 3.325h.54c.093 0 .146.09.146.185 0 .082-.046.178-.145.178h-.541v.715h1.007c.092 0 .146.096.146.207 0 .096-.047.199-.146.199h-1.267c-.103 0-.203-.05-.203-.146v-2.31c0-.095.1-.145.203-.145h1.267c.1 0 .146.103.146.2 0 .11-.054.206-.146.206h-1.007v.711zM17.256 2.208c.1 0 .145.107.145.206 0 .11-.053.21-.145.21h-.52v2.039c0 .096-.117.146-.231.146-.118 0-.232-.05-.232-.146V2.624h-.523c-.092 0-.146-.096-.146-.21 0-.1.047-.206.146-.206h1.506z"/>
    </g>
  </g>
  <g fill="#000">
    <path d="M21.818 20.782a.337.337 0 00-.337.337v1.707H2.518v-1.719a.337.337 0 10-.674 0v1.854c0 .297.242.539.54.539h19.232a.54.54 0 00.539-.54v-1.84a.337.337 0 00-.337-.338zM22.575 16.91h-.42V6.184a.888.888 0 00.837-.885V1.387A.888.888 0 0022.105.5H1.895a.888.888 0 00-.887.887v3.912c0 .472.371.859.837.885V16.91h-.42a.763.763 0 00-.763.763v1.44c0 .42.342.763.763.763h21.151c.42 0 .763-.342.763-.763v-1.44a.763.763 0 00-.763-.763zm-2.172 0V6.185h1.078V16.91h-1.078zm-5.168 0v-2.838a3.239 3.239 0 00-3.236-3.236 3.239 3.239 0 00-3.235 3.236v2.838H4.27V6.185H19.73V16.91h-4.494zm-5.797 0v-2.838A2.564 2.564 0 0112 11.51a2.564 2.564 0 012.562 2.562v2.838H9.438zM1.681 5.3V1.387c0-.118.095-.213.213-.213h20.212c.117 0 .212.095.212.213v3.912a.213.213 0 01-.213.212H1.895A.213.213 0 011.68 5.3zm.837.886h1.078V16.91H2.518V6.185zm20.146 12.928c0 .05-.04.09-.089.09H1.424a.089.089 0 01-.089-.09v-1.44c0-.049.04-.089.089-.089h21.151c.05 0 .09.04.09.089v1.44h-.001z"/>
  </g>
</svg>
