<svg width="24" height="24" fill="none" xmlns="http://www.w3.org/2000/svg">
  <defs/>
  <path d="M6.143 20.979c0-2.52 1-5.355 2.781-7.136l1.241-1.24a2.026 2.026 0 000-2.866l-2.26-2.261C6.775 6.348 6.142 4.556 6.142 2.96l11.75-.006c0 1.6-.636 3.395-1.767 4.526L13.87 9.737a2.026 2.026 0 000 2.865l1.24 1.241c1.782 1.781 2.783 4.617 2.783 7.136H6.143z" fill="#FFEFCA"/>
  <g fill="#FFDFA1">
    <path d="M11.074 8.828c.217.217.402.46.55.725v1.071a.393.393 0 10.787 0v-1.07c.148-.265.333-.509.55-.726L14.21 7.58a.83.83 0 00.18-.907.83.83 0 00-.768-.514h-3.207a.83.83 0 00-.768.514.83.83 0 00.18.907l1.248 1.248zM15.689 16.985c-.822-1.248-1.952-1.938-3.278-2.007v-1.031a.393.393 0 10-.787 0v1.032c-1.514.082-2.521 1.004-3.107 1.783-.752 1.001-1.09 2.128-1.09 2.8 0 .217.177.393.394.393h8.398c.143-.001.414-.103.411-.478-.002-.335-.241-1.428-.941-2.492z"/>
  </g>
  <g fill="#FFC5E5">
    <path d="M4.11 2.406h-1.6v18.837h1.6V2.406zM21.49 2.406h-1.6v18.837h1.6V2.406z"/>
  </g>
  <g fill="#FEA8D6">
    <path d="M4.11 2.406h-.852v18.837h.853V2.406zM21.51 2.406h-.853v18.837h.853V2.406z"/>
  </g>
  <g fill="#A0758E">
    <path d="M21.985 3.119H2.051a.74.74 0 01-.74-.74v-.798a.74.74 0 01.74-.739h19.934a.74.74 0 01.74.74v.797a.74.74 0 01-.74.74zM21.985 23.055H2.051a.74.74 0 01-.74-.74v-.797a.74.74 0 01.74-.74h19.934a.74.74 0 01.74.74v.798a.74.74 0 01-.74.74z"/>
  </g>
  <g fill="#826075">
    <path d="M22.725 2.063c0 .409-.331 1.055-.74 1.055H2.051c-.408 0-.74-.646-.74-1.055h21.414zM22.725 22.192a.74.74 0 01-.74.74H2.051a.74.74 0 01-.74-.74h21.414z"/>
  </g>
  <path d="M11.056 8.88c.218.218.402.462.55.726v1.071a.393.393 0 10.787 0V9.606c.149-.264.333-.508.55-.726l1.248-1.247a.83.83 0 00.18-.907.83.83 0 00-.768-.514h-3.206a.83.83 0 00-.769.514.83.83 0 00.18.906l1.248 1.248zm-.7-1.853c.01-.028.03-.028.04-.028h3.207c.01 0 .03 0 .042.028.011.028-.002.042-.01.05l-1.248 1.247c-.14.14-.27.29-.387.447a4.156 4.156 0 00-.387-.447l-1.248-1.248c-.008-.007-.021-.021-.01-.049zM12.393 14a.393.393 0 10-.786 0v1.031c-1.515.083-2.522 1.004-3.108 1.784-.752 1.001-1.089 2.128-1.089 2.8 0 .217.176.393.394.393H16.2c.144-.001.414-.104.412-.478-.002-.336-.242-1.429-.941-2.492-.822-1.249-1.952-1.939-3.278-2.007V14zm3.382 5.221H8.24c.106-.55.407-1.291.89-1.933.505-.674 1.384-1.476 2.697-1.476h.348c.894 0 1.674.337 2.319 1.003.777.802 1.155 1.867 1.282 2.406z" fill="#000"/>
  <path d="M1.294 20.436a.393.393 0 00-.394.394v2.277c0 .217.176.393.394.393h21.413a.393.393 0 00.393-.393V20.83a.393.393 0 00-.393-.393h-.806V3.563h.806a.393.393 0 00.393-.393V.893A.393.393 0 0022.707.5H1.294A.393.393 0 00.9.893V3.17c0 .217.176.393.394.393H2.1v16.873h-.806zm21.02 2.277H1.687v-1.49h20.627v1.49zM5.739 3.563c.07 1.604.728 3.101 1.87 4.243l2.26 2.261c.31.309.479.719.479 1.155 0 .436-.17.846-.478 1.155l-1.241 1.24a9.843 9.843 0 00-2.144 3.21 9.84 9.84 0 00-.751 3.61H4.487V3.563h1.252zm12.528 16.873a9.84 9.84 0 00-.751-3.61 9.84 9.84 0 00-2.144-3.209l-1.241-1.24a1.622 1.622 0 01-.478-1.155c0-.436.17-.846.478-1.155l2.256-2.256a6.378 6.378 0 001.875-4.247h1.252v16.873h-1.247zM15.83 7.255L13.575 9.51a2.404 2.404 0 00-.709 1.71c0 .647.252 1.255.709 1.712l1.24 1.24a9.042 9.042 0 012.665 6.263H6.52a9.042 9.042 0 012.665-6.262l1.241-1.241a2.404 2.404 0 00.709-1.711c0-.646-.252-1.254-.709-1.711L8.166 7.25a5.58 5.58 0 01-1.64-3.687h10.948a5.596 5.596 0 01-1.643 3.692zm5.283 13.181H20.3V3.563h.813v16.873zM1.687 1.287h20.627v1.49H1.687v-1.49zm1.2 2.277H3.7v16.873h-.813V3.563z" fill="#000"/>
</svg>
