<svg width="24" height="24" fill="none" xmlns="http://www.w3.org/2000/svg">
  <defs/>
  <path d="M12.054 20.295a8.242 8.242 0 100-16.485 8.242 8.242 0 000 16.485z" fill="#97EFFF"/>
  <path d="M12.085 15.91a3.878 3.878 0 100-7.755 3.878 3.878 0 000 7.756z" fill="#F5FCFF"/>
  <path d="M9.32 19.83a8.242 8.242 0 012.733-16.02C3.64 5.675 2.826 16.194 9.32 19.83z" fill="#B0F6FF"/>
  <path d="M13.65 20.14a8.245 8.245 0 001.612-15.682c6.97 5.148 4.367 14.162-1.612 15.682z" fill="#6EE5F4"/>
  <path d="M12 20.64c-4.764 0-8.64-3.876-8.64-8.64 0-4.765 3.876-8.641 8.64-8.641 4.765 0 8.64 3.876 8.64 8.64 0 4.765-3.875 8.641-8.64 8.641zm0-16.484c-4.325 0-7.844 3.518-7.844 7.843 0 4.326 3.519 7.844 7.844 7.844s7.844-3.518 7.844-7.844c0-4.325-3.519-7.843-7.844-7.843z" fill="#000"/>
  <path d="M11.912 23.5h-.003a11.52 11.52 0 01-5.406-1.402 11.475 11.475 0 01-5.35-6.283 11.472 11.472 0 01.207-8.176.399.399 0 01.737.303 10.676 10.676 0 00-.192 7.609 10.678 10.678 0 004.979 5.847 10.72 10.72 0 005.03 1.304.398.398 0 01-.002.797zM3.883 4.824a.398.398 0 01-.291-.67l.018-.02a.398.398 0 01.582.544l-.018.019a.397.397 0 01-.291.127zM15.905 22.788a.4.4 0 01-.363-.563.395.395 0 01.223-.208l.006-.002a.397.397 0 01.513.232.4.4 0 01-.233.513l-.006.003a.395.395 0 01-.14.025zm3.708-2.309a.4.4 0 01-.273-.688l.002-.002.036-.034a.398.398 0 11.55.577l-.041.039a.397.397 0 01-.274.108zm2.546-3.608v-.003.003a.401.401 0 01-.371-.254.394.394 0 01.007-.305l.017-.04.004-.009a.398.398 0 11.73.319 1.956 1.956 0 01-.022.052.4.4 0 01-.365.237zm.942-4.314v-.002.002h-.005a.399.399 0 01-.393-.403V12.1a.4.4 0 01.399-.395h.003a.4.4 0 01.395.396v.062a.4.4 0 01-.399.393zm-.818-4.34a.397.397 0 01-.37-.248l-.014-.037-.005-.012a.396.396 0 01.217-.52.398.398 0 01.52.217l.018.043.003.01a.399.399 0 01-.369.548zm-2.441-3.679a.395.395 0 01-.281-.116l-.038-.037a.395.395 0 01-.118-.286.395.395 0 01.398-.396c.105 0 .205.04.28.114l.035.035.006.006a.398.398 0 01-.282.68zM7.453 2.272a.4.4 0 01-.163-.762l.023-.01.03-.014a.4.4 0 01.525.204.399.399 0 01-.204.525l-.047.021-.001.001a.399.399 0 01-.163.035zm8.704-.167a.394.394 0 01-.15-.03l-.049-.02a.397.397 0 01-.222-.517.398.398 0 01.518-.222l.005.002.048.019a.396.396 0 01.22.519.397.397 0 01-.37.249zm-4.396-.806a.398.398 0 01-.398-.39V.9a.398.398 0 01.39-.397h.028L11.81.5a.395.395 0 01.286.114.395.395 0 01.007.561.397.397 0 01-.28.122h-.061z" fill="#000"/>
  <path d="M15.881 22.797a.399.399 0 01-.139-.772l.024-.009a.398.398 0 01.28.746l-.026.01a.398.398 0 01-.139.025zM15.846 16.244a.397.397 0 01-.28-.116l-3.864-3.845a.398.398 0 01-.117-.284l.017-5.386c0-.22.179-.397.398-.397h.001c.22 0 .398.18.397.4l-.016 5.22 3.746 3.727a.398.398 0 01-.282.681zM15.771 13.523a.398.398 0 01-.382-.512c.097-.327.147-.667.147-1.012 0-1.208-.608-2.32-1.625-2.975a.398.398 0 01.432-.67A4.319 4.319 0 0116.333 12c0 .422-.061.838-.18 1.24a.399.399 0 01-.382.284z" fill="#000"/>
  <path d="M12 16.332a4.337 4.337 0 01-4.332-4.333c0-1.52.774-2.9 2.071-3.696a.398.398 0 01.417.68 3.515 3.515 0 00-1.691 3.016 3.54 3.54 0 004.28 3.457.398.398 0 11.168.78 4.355 4.355 0 01-.913.096z" fill="#000"/>
</svg>
