<svg width="24" height="24" fill="none" xmlns="http://www.w3.org/2000/svg">
  <defs/>
  <path d="M18.128 3.085l.129.236a1.664 1.664 0 01-.66 2.259l-1.999 1.095c-.585.32-.948.934-.948 1.601v3.84c-1.767 1.987-3.533 1.987-5.3 0v-3.84c0-.667-.363-1.28-.948-1.601L6.403 5.58a1.664 1.664 0 01-.66-2.26l.887-1.617a1.664 1.664 0 012.363-.598l.392.254a4.813 4.813 0 005.23 0l.392-.254a1.664 1.664 0 012.363.598l.131.238.627 1.144zM9.35 20.266v1.532c0 .753.611 1.364 1.365 1.364h2.57c.754 0 1.365-.61 1.365-1.364v-1.532c-1.767-1.29-3.533-1.29-5.3 0z" fill="#F7F5F5"/>
  <g fill="#E3E2E2">
    <path d="M7.376 1.105l.392.254a4.812 4.812 0 003.423.703 4.806 4.806 0 01-1.806-.703l-.392-.254a1.663 1.663 0 00-1.713-.057c.033.018.065.037.096.057zM18.257 3.32l-.13-.235-.626-1.144-.13-.238a1.664 1.664 0 00-2.268-.655c.265.147.493.368.65.655l.131.238.627 1.144.129.236a1.664 1.664 0 01-.66 2.26l-1.999 1.094c-.585.32-.948.934-.948 1.601v3.84c-.614.691-1.228 1.141-1.842 1.352 1.153.396 2.306-.055 3.459-1.351v-3.84c0-.668.363-1.281.948-1.602l2-1.095a1.664 1.664 0 00.659-2.26zM11.191 19.389c.614.137 1.228.429 1.842.877v1.532c0 .754-.611 1.364-1.365 1.364h1.617c.754 0 1.365-.61 1.365-1.364v-1.532c-1.153-.842-2.306-1.134-3.459-.877z"/>
    <path d="M9.35 20.266v.767c1.767-1.291 3.533-1.291 5.3 0v-.766c-1.767-1.291-3.533-1.291-5.3 0zM14.65 22.266a.343.343 0 01-.096-.014 8.808 8.808 0 00-5.107 0 .337.337 0 11-.192-.646 9.474 9.474 0 015.491 0 .337.337 0 01-.096.66zM14.65 9.405a.34.34 0 01-.096-.014 8.81 8.81 0 00-5.107 0 .337.337 0 01-.192-.646 9.47 9.47 0 015.491 0 .337.337 0 01-.096.66zM14.65 11.139a.339.339 0 01-.096-.014 8.81 8.81 0 00-5.107 0 .337.337 0 11-.192-.646 9.473 9.473 0 015.491 0 .337.337 0 01-.096.66zM14.65 12.719a.34.34 0 01-.096-.014 8.81 8.81 0 00-5.107 0 .337.337 0 01-.192-.646 9.472 9.472 0 015.491 0 .337.337 0 01-.096.66z"/>
  </g>
  <path d="M3.417 14.84c.368 1.768.837 3.466 1.418 4.716.029.061.059.122.09.18.853 1.586 2.717 1.911 4.112.772 1.983-1.62 3.966-1.614 5.948.018 1.306 1.075 3.291.698 4.09-.792.032-.058.062-.117.09-.178 1.137-2.446 1.846-6.604 2.202-9.648.008-.07.014-.14.018-.208.145-2.571-3.389-3.457-4.509-1.139-3.25 6.729-6.5 6.729-9.751.002-1.12-2.317-4.65-1.441-4.51 1.128.003.072.01.144.018.217a61.39 61.39 0 00.545 3.699l.24 1.233z" fill="#CF4842"/>
  <path d="M19.165 17.54c-.028.06-.058.119-.09.177-.799 1.49-2.784 1.866-4.09.792-1.982-1.633-3.965-1.639-5.948-.018-1.395 1.139-3.26.814-4.112-.772a3.547 3.547 0 01-.09-.18c-.581-1.25-1.05-2.948-1.418-4.716l-.239-1.234c-.175-.969-.32-1.933-.438-2.83-.097.278-.144.59-.126.932.004.072.01.145.019.217.132 1.128.313 2.409.545 3.699l.24 1.233c.367 1.768.836 3.466 1.417 4.716.029.061.059.122.09.18.853 1.586 2.717 1.911 4.112.772 1.983-1.62 3.966-1.614 5.948.018 1.306 1.075 3.291.698 4.09-.791.032-.059.062-.118.09-.179 1.137-2.445 1.845-6.604 2.202-9.648.008-.07.014-.14.018-.208a2.416 2.416 0 00-.126-.94c-.383 2.928-1.062 6.56-2.094 8.78z" fill="#A83A36"/>
  <path d="M16.573 8.416c-.532 1.1-1.06 2-1.586 2.728V8.277c0-.544.296-1.044.773-1.306l1.999-1.095a2.003 2.003 0 00.793-2.716l-.129-.236a.337.337 0 00-.59.324l.128.235c.352.642.116 1.45-.526 1.802l-1.999 1.096a2.153 2.153 0 00-1.104 1.758 9.42 9.42 0 00-4.664 0A2.152 2.152 0 008.564 6.38l-2-1.096a1.327 1.327 0 01-.525-1.802l.886-1.618A1.326 1.326 0 018.81 1.39c.216.105 1.318 1.078 3.19 1.078 1.867 0 2.977-.975 3.19-1.078a1.326 1.326 0 011.885.476.337.337 0 10.59-.323 2.008 2.008 0 00-1.264-.979c-1.082-.273-1.769.423-1.97.514a4.482 4.482 0 01-4.863 0L9.176.823a2.002 2.002 0 00-2.842.719L5.448 3.16a2 2 0 00.793 2.716L8.24 6.971c.477.262.773.762.773 1.306v2.867c-.525-.727-1.054-1.627-1.585-2.726-1.28-2.65-5.308-1.634-5.15 1.293.004.079.011.158.02.238a61.98 61.98 0 00.549 3.719.337.337 0 00.663-.12 61.457 61.457 0 01-.543-3.678 3.218 3.218 0 01-.016-.196c-.119-2.197 2.908-2.954 3.87-.963 3.369 6.97 6.986 6.979 10.359-.002.969-2.007 4.136-1.245 3.853 1.161-.29 2.475-1.08 7.518-2.254 9.706-.696 1.297-2.433 1.635-3.58.691-.11-.09-.802-.566-.913-.63-1.593-.932-3.195-.92-4.878.194-.039.026-.55.389-.585.417-.61.498-1.325.697-2.016.56-.667-.133-1.23-.57-1.585-1.23a3.152 3.152 0 01-.081-.163c-.471-1.013-.906-2.414-1.292-4.165a.337.337 0 10-.658.145c.397 1.799.847 3.247 1.339 4.304.03.067.064.133.099.198.452.84 1.179 1.399 2.047 1.572.181.036.365.053.55.053.62 0 1.239-.21 1.787-.589v.866c0 .938.764 1.701 1.701 1.701h2.571c.938 0 1.702-.763 1.702-1.701v-.872A3.014 3.014 0 0019.47 19.7c1.351-2.906 2.185-8.795 2.252-9.98.164-2.928-3.869-3.954-5.15-1.303zm-2.849 4.133c-.583.48-1.161.722-1.724.722s-1.14-.243-1.724-.722c-.01-.007-.018-.017-.026-.024a5.898 5.898 0 01-.437-.417 8.762 8.762 0 014.373 0c-.145.15-.29.296-.436.417l-.026.024zm-4.037-1.992a8.778 8.778 0 014.626 0v.891a9.42 9.42 0 00-4.626 0v-.891zm4.626-1.734v1.045a9.42 9.42 0 00-4.626 0V8.823a8.778 8.778 0 014.626 0zm0 12.08a9.42 9.42 0 00-4.626 0v-.447c1.604-1.107 3.076-1.071 4.626 0v.448zm-1.028 1.923h-2.57c-.567 0-1.028-.46-1.028-1.027v-.207a8.778 8.778 0 014.626 0v.207c0 .566-.461 1.027-1.028 1.027z" fill="#000"/>
</svg>
