<svg width="24" height="24" fill="none" xmlns="http://www.w3.org/2000/svg">
  <defs/>
  <g fill="#FF6F52">
    <path d="M11.614 16.957l-.358 1.284-1.36 4.881-1.799-2.004-2.575.785 1.466-5.256.316-1.133 2.504.268 1.806 1.175zM18.529 21.903l-2.575-.784-1.798 2.004-1.362-4.881-.357-1.284 1.806-1.176 2.504-.267.316 1.133 1.466 5.255z"/>
  </g>
  <path d="M19.199 8.958c0-.822.755-1.755.514-2.497-.25-.77-1.417-1.078-1.883-1.719-.471-.646-.407-1.85-1.054-2.321-.64-.466-1.763-.036-2.533-.286-.742-.241-1.394-1.257-2.217-1.257-.823 0-1.475 1.016-2.217 1.257-.77.25-1.892-.18-2.533.286-.647.47-.583 1.675-1.053 2.321-.466.64-1.634.95-1.883 1.719-.242.742.514 1.675.514 2.497 0 .823-.756 1.755-.515 2.498.25.769 1.418 1.078 1.884 1.718.47.647.406 1.85 1.053 2.322.64.465 1.763.036 2.533.286.742.24 1.394 1.256 2.217 1.256.823 0 1.475-1.015 2.217-1.256.77-.25 1.892.18 2.533-.287.647-.47.583-1.674 1.053-2.321.466-.64 1.634-.949 1.884-1.718.24-.743-.514-1.675-.514-2.498z" fill="#FCD577"/>
  <g fill="#E25749">
    <path d="M9.809 15.782l1.806 1.175-.358 1.284c-.495-.319-.951-.827-1.448-.988-.77-.25-1.893.18-2.533-.287a1.113 1.113 0 01-.288-.319l.316-1.133 2.505.268zM17.063 16.648a1.113 1.113 0 01-.287.319c-.641.466-1.764.036-2.533.286-.497.162-.954.67-1.449.989l-.357-1.284 1.806-1.176 2.504-.267.316 1.133z"/>
  </g>
  <path d="M12.026 14.047a5.09 5.09 0 100-10.178 5.09 5.09 0 000 10.178z" fill="#CFDCE5"/>
  <path d="M16.464 6.484a.378.378 0 00-.185.502A4.716 4.716 0 0112 13.67a4.716 4.716 0 01-4.71-4.71 4.716 4.716 0 014.71-4.712c1.329 0 2.602.565 3.494 1.551a.378.378 0 00.561-.507A5.478 5.478 0 0012 3.49a5.473 5.473 0 00-5.467 5.467A5.473 5.473 0 0012 14.425a5.473 5.473 0 004.967-7.756.378.378 0 00-.502-.185z" fill="#000"/>
  <path d="M19.55 8.958c0-.29.127-.624.261-.98.203-.535.412-1.089.235-1.634-.185-.568-.715-.913-1.182-1.218-.307-.2-.597-.389-.755-.606-.162-.222-.254-.56-.35-.917-.146-.535-.31-1.141-.787-1.488-.472-.343-1.069-.315-1.647-.288-.373.018-.725.035-.991-.052-.248-.08-.513-.295-.794-.521C13.103.9 12.608.5 12 .5s-1.104.4-1.54.754c-.281.227-.546.44-.794.521-.267.087-.62.07-.992.053-.578-.028-1.175-.056-1.647.287-.476.347-.64.953-.786 1.488-.097.357-.19.695-.35.917-.159.217-.449.406-.756.606-.467.305-.997.65-1.182 1.218-.177.545.033 1.1.235 1.635.134.355.261.69.261.98 0 .289-.127.624-.26.979-.203.535-.413 1.09-.236 1.634.185.569.715.914 1.182 1.218.307.2.598.39.756.607.16.221.253.56.35.917.145.534.31 1.14.786 1.487.472.343 1.07.315 1.647.288.373-.018.725-.034.992.052.248.08.513.295.793.522.212.17.437.352.681.494l-1.45 5.2-1.337-1.491a.378.378 0 00-.392-.11l-1.915.584 1.2-4.306a.378.378 0 00-.727-.203L5.133 21.8a.378.378 0 00.474.463l2.344-.714 1.637 1.824a.378.378 0 00.646-.15l1.621-5.816a1.376 1.376 0 00.289 0l1.622 5.816a.378.378 0 00.645.15l1.637-1.824 2.345.714a.378.378 0 00.474-.463l-1.717-6.156c.342-.355.483-.87.608-1.331.097-.358.19-.696.35-.918.159-.217.449-.406.756-.606.467-.304.997-.65 1.182-1.218.177-.545-.033-1.099-.235-1.634-.134-.355-.26-.69-.26-.98zm-3.512 11.798a.378.378 0 00-.392.11l-1.337 1.49-1.45-5.199c.245-.142.47-.324.68-.494.281-.227.547-.442.795-.522.266-.086.618-.07.992-.052.388.018.785.036 1.147-.058l1.48 5.309-1.915-.584zm3.066-10.551c.163.432.318.841.223 1.134-.102.314-.478.559-.876.818-.35.228-.714.465-.954.795-.243.334-.358.755-.468 1.163-.124.455-.24.885-.502 1.075-.257.187-.698.166-1.166.144-.424-.02-.863-.041-1.261.088-.381.124-.714.393-1.035.653-.373.3-.725.585-1.065.585-.341 0-.693-.284-1.065-.585-.322-.26-.655-.53-1.036-.653a2.546 2.546 0 00-.788-.103c-.157 0-.316.007-.473.015-.467.022-.91.043-1.166-.144-.261-.19-.378-.62-.501-1.075-.111-.408-.226-.83-.47-1.163-.239-.33-.602-.567-.953-.795-.398-.26-.774-.504-.875-.818-.095-.293.06-.701.223-1.134.152-.403.31-.82.31-1.247 0-.427-.158-.844-.31-1.246-.164-.433-.318-.842-.223-1.134.101-.314.477-.559.875-.818.351-.229.714-.465.954-.795.243-.334.358-.756.469-1.164.123-.455.24-.884.501-1.074.257-.187.699-.166 1.166-.144.425.02.864.04 1.261-.088.381-.124.714-.393 1.036-.653.372-.301.724-.586 1.065-.586.34 0 .692.285 1.065.586.321.26.654.529 1.035.652.398.13.837.109 1.261.089.468-.022.91-.043 1.166.144.261.19.378.62.502 1.074.11.408.225.83.468 1.164.24.33.603.566.954.795.398.259.774.504.876.818.095.292-.06.7-.223 1.134-.153.402-.31.819-.31 1.246 0 .428.157.844.31 1.247z" fill="#000"/>
  <path d="M13.46 7.363a.378.378 0 000-.756h-2.92a.378.378 0 100 .756h2.92zM10.54 11.31h2.92a.378.378 0 000-.757h-2.92a.378.378 0 000 .756zM14.885 8.958a.378.378 0 00-.378-.378h-1.139a.378.378 0 100 .756h1.14c.208 0 .377-.169.377-.378zM9.114 8.958c0 .209.17.378.378.378h2.692a.378.378 0 000-.756H9.492a.378.378 0 00-.378.378z" fill="#000"/>
</svg>
