<svg width="24" height="24" fill="none" xmlns="http://www.w3.org/2000/svg">
  <defs/>
  <path d="M22.203 4.941v12.745H1.807V4.94c0-.697.565-1.263 1.263-1.263h17.87c.697 0 1.263.566 1.263 1.263z" fill="#CFDCE5"/>
  <path d="M20.436 5.445H3.574v10.474h16.862V5.445z" fill="#314A5F"/>
  <path d="M20.436 5.445v10.474H10.96l.05-.123L15.18 5.445h5.255z" fill="#415E72"/>
  <path d="M23.136 17.686v1.117a1.49 1.49 0 01-1.49 1.49H2.363a1.49 1.49 0 01-1.491-1.49v-1.117h22.263z" fill="#CFDCE5"/>
  <path d="M13.094 18.946h-2.178c-.59 0-1.07-.479-1.07-1.07v-.19h4.317v.19c0 .591-.479 1.07-1.069 1.07z" fill="#BAC6CC"/>
  <path d="M5.612 5.828a.369.369 0 000-.738H3.57a.369.369 0 00-.369.369v10.474c0 .204.165.369.369.369H20.43a.369.369 0 00.368-.369V5.46a.369.369 0 00-.368-.369H6.874a.369.369 0 000 .738h13.188v9.737H3.937V5.828h1.675z" fill="#000"/>
  <path d="M23.131 17.331h-.564V8.97a.369.369 0 00-.738 0v8.362H2.171V4.956c0-.494.4-.895.894-.895h17.87c.493 0 .894.401.894.895v2.75a.369.369 0 00.738 0v-2.75c0-.9-.732-1.633-1.632-1.633H3.065c-.9 0-1.632.733-1.632 1.633V17.33H.87A.369.369 0 00.5 17.7v1.157c0 1.003.816 1.82 1.82 1.82h1.153a.369.369 0 100-.738H2.32a1.084 1.084 0 01-1.083-1.082v-.789h8.248a1.44 1.44 0 001.426 1.26h2.178a1.44 1.44 0 001.426-1.26h8.248v.789c0 .597-.486 1.082-1.083 1.082H4.702a.369.369 0 100 .738H21.68c1.004 0 1.82-.817 1.82-1.82V17.7a.369.369 0 00-.369-.369zm-10.042 1.26h-2.178a.701.701 0 01-.678-.522h3.534a.702.702 0 01-.678.522z" fill="#000"/>
</svg>
