<svg width="24" height="24" fill="none" xmlns="http://www.w3.org/2000/svg">
  <defs/>
  <path d="M22.571 19.716l-8.61-8.61-2.857 2.856 8.61 8.61a2.02 2.02 0 102.857-2.856zm-.794 2.062a.897.897 0 11-1.268-1.268.897.897 0 011.268 1.268zM12.416 9.561a5.683 5.683 0 01-1.664-3.883 4.96 4.96 0 00-6.634-4.55l3.374 3.374-.632 2.36-2.359.631L1.127 4.12a4.96 4.96 0 001.23 5.25 4.94 4.94 0 003.304 1.377 5.712 5.712 0 013.892 1.664l.485.486 2.856-2.857-.478-.478z" fill="#DAE4EA"/>
  <path d="M22.571 19.716l-8.61-8.61-.899.898 7.712 7.712c.16.16.287.34.382.532a.897.897 0 010 1.792 2.014 2.014 0 01-.911.913 2.02 2.02 0 002.326-3.237zM12.417 9.561a5.684 5.684 0 01-1.665-3.883 4.942 4.942 0 00-1.45-3.388A4.952 4.952 0 004.896.92a4.935 4.935 0 012.607 1.37 4.942 4.942 0 011.451 3.388 5.683 5.683 0 001.665 3.883.676.676 0 010 .956L9.118 12.02c.151.122.296.253.435.392l.485.485 2.857-2.857-.478-.478z" fill="#C6D0DA"/>
  <path d="M1.514 22.592l-.106-.105c-.69-.69-.69-1.81 0-2.5l5.639-5.638 2.604 2.605-5.638 5.638c-.69.69-1.81.69-2.5 0z" fill="#E28086"/>
  <path d="M7.046 14.35l-.898.898.871.872c.461.46.461 1.208 0 1.669l-4.803 4.803a1.771 1.771 0 01-.352.273c.678.4 1.566.31 2.148-.273l5.639-5.638-2.605-2.605z" fill="#DD636E"/>
  <path d="M1.461 22.54a.654.654 0 010-.926l6.426-6.425.925.925-6.426 6.426a.654.654 0 01-.925 0z" fill="#808B95"/>
  <path d="M7.02 16.12c.46.46.46 1.208 0 1.669l-4.804 4.803a1.79 1.79 0 01-.132.119.65.65 0 00.302-.171l6.425-6.426-.925-.925-.898.899.032.032z" fill="#5E6B75"/>
  <path d="M7.862 12.41l3.727 3.726-1.377 1.376-3.726-3.726 1.376-1.376z" fill="#E28086"/>
  <path d="M7.861 12.412l-.673.673 2.607 2.608a.63.63 0 010 .892l-.257.256.674.674 1.376-1.376-3.727-3.727z" fill="#DD636E"/>
  <path d="M8.974 13.521l1.503 1.503-1.376 1.377-1.504-1.504 1.377-1.376z" fill="#808B95"/>
  <path d="M8.974 13.523l-.674.674 1.495 1.496.008.008.674-.674-1.503-1.504z" fill="#5E6B75"/>
  <path d="M11.485 14.342l-1.827-1.826-1.1.592 2.334 2.334.593-1.1z" fill="#808B95"/>
  <path d="M11.105 13.962l-1.067-1.066L22.096.837h1.067v1.067L11.105 13.962z" fill="#DAE4EA"/>
  <path d="M22.096.837l-.056.057c0 .646-.257 1.267-.714 1.724L10.543 13.401l.562.561L23.163 1.904V.837h-1.067z" fill="#C6D0DA"/>
  <path d="M21.76 20.494c.004.002.006.006.009.008a.896.896 0 00-1.26 1.276l-8.61-8.61 1.268-1.268 8.594 8.594zm-9.66-9.66l-1.785-1.786a.897.897 0 10-1.268 1.268l1.785 1.785 1.269-1.268z" fill="#808B95"/>
  <path d="M10.315 9.048a.895.895 0 00-.298-.198c.18.252.381.49.602.711a.676.676 0 010 .956l-.685.686.898.899 1.268-1.269-1.785-1.785z" fill="#5E6B75"/>
  <path d="M23.5 1.904V.837A.337.337 0 0023.163.5h-1.067a.337.337 0 00-.238.1l-8.963 8.963-.24-.24a5.323 5.323 0 01-1.566-3.653 5.268 5.268 0 00-.47-2.062.337.337 0 10-.614.278c.257.568.395 1.173.41 1.8a5.994 5.994 0 001.763 4.113l.24.24-.318.318-1.547-1.547a1.233 1.233 0 10-1.744 1.744l1.547 1.548-.318.317-.247-.247a6.027 6.027 0 00-4.12-1.763 4.603 4.603 0 01-3.08-1.283 4.635 4.635 0 01-1.3-4.367l2.972 2.973c.085.085.21.118.326.087l2.358-.632a.337.337 0 00.239-.238l.632-2.36a.337.337 0 00-.087-.325L4.758 1.292a4.648 4.648 0 014.417 1.352.337.337 0 00.493-.46A5.277 5.277 0 006.911.619a5.306 5.306 0 00-2.907.193.337.337 0 00-.124.555l3.236 3.237-.531 1.983-1.983.532L1.365 3.88a.337.337 0 00-.555.124 5.308 5.308 0 001.313 5.607 5.275 5.275 0 003.53 1.47 5.36 5.36 0 013.439 1.356l-.473.255-.519-.52a.337.337 0 00-.476 0L6.247 13.55a.337.337 0 000 .476l.323.323-5.4 5.4c-.82.82-.82 2.156 0 2.976l.105.105c.41.41.95.616 1.488.616.539 0 1.078-.205 1.488-.616l5.4-5.4.323.323a.337.337 0 00.476 0l1.377-1.376a.337.337 0 000-.477l-.52-.519.26-.48 7.91 7.91c.46.46 1.063.689 1.666.689.604 0 1.207-.23 1.667-.69a2.36 2.36 0 000-3.332l-8.372-8.372L23.4 2.142a.337.337 0 00.099-.238zM9.285 10.078a.56.56 0 01.792-.792l1.547 1.547-.792.792-1.547-1.547zm-.184 5.849L8.073 14.9l.9-.9 1.028 1.027-.9.9zm-1.24-3.039l.636.635-.9.9-.635-.635.9-.9zm-6.215 7.338l5.4-5.4.364.363-6.176 6.176a1.428 1.428 0 01.412-1.14zm2.129 2.128a1.428 1.428 0 01-1.14.413l4.791-4.791a.337.337 0 00-.476-.477l-4.802 4.802a.317.317 0 11-.449-.448l6.187-6.188.449.45-.288.287a.337.337 0 00.476.476l.288-.287.364.363-5.4 5.4zm6.437-5.315c-.228-.23-.408-.409-.635-.636l.9-.9.635.636-.9.9zM9.117 13.19l.48-.259 1.472 1.472-.259.48-1.693-1.693zm13.216 6.764a1.685 1.685 0 010 2.38 1.685 1.685 0 01-2.38 0l-8.372-8.372.318-.317 6.192 6.192a.336.336 0 00.476 0 .337.337 0 000-.477l-6.192-6.192.792-.792 7.595 7.595a1.226 1.226 0 00-.792.792l-.281-.282a.337.337 0 00-.477.477l1.059 1.059c.24.24.556.36.872.36.316 0 .632-.12.872-.36a1.235 1.235 0 000-1.745L13.643 11.9l.318-.318 8.372 8.372zm-.794 1.586a.56.56 0 11-.792-.793.56.56 0 01.792.793zm1.287-19.776L11.105 13.486l-.59-.59L22.236 1.174h.59v.59z" fill="#000"/>
</svg>
