<svg width="24" height="24" fill="none" xmlns="http://www.w3.org/2000/svg">
  <defs/>
  <path d="M3.074 9.126c.204.323.406.646.654.933 1.276 1.473 2.008 3.338 2.008 5.286v3.66a4.155 4.155 0 004.155 4.156v-4.976a2.109 2.109 0 014.218 0v4.976a4.155 4.155 0 004.155-4.155v-3.661c0-1.948.733-3.813 2.008-5.286a5.552 5.552 0 001.358-3.648c0-3.023-2.447-5.516-5.47-5.571a5.55 5.55 0 00-3.212.946 1.696 1.696 0 01-1.896 0A5.55 5.55 0 007.84.84C4.818.895 2.371 3.388 2.37 6.41c0 .489.063.962.18 1.413 0 0 .205.798.524 1.303z" fill="#F7F5F5"/>
  <path d="M16.16.84c-.55-.01-1.08.06-1.584.198 2.357.652 4.096 2.824 4.097 5.373 0 1.395-.511 2.67-1.358 3.648-1.275 1.473-2.008 3.338-2.008 5.286v3.66c0 1.14-.457 2.17-1.199 2.92v1.236a4.155 4.155 0 004.156-4.155v-3.661c0-1.948.732-3.813 2.008-5.286a5.552 5.552 0 001.358-3.648C21.629 3.388 19.182.895 16.16.84z" fill="#E3E2E2"/>
  <path d="M12.76 1.508c-.461.31-1.058.31-1.52 0A5.88 5.88 0 007.835.505C4.231.57 1.44 3.908 2.141 7.54a.337.337 0 00.661-.128c-.62-3.207 1.84-6.175 5.044-6.233a5.2 5.2 0 013.018.888c.69.464 1.582.464 2.272 0 3.47-2.336 8.156.192 8.158 4.346 0 1.26-.453 2.477-1.277 3.428-1.347 1.556-2.09 3.511-2.09 5.506v3.66a3.824 3.824 0 01-3.481 3.805v-4.625A2.448 2.448 0 0012 15.742a2.448 2.448 0 00-2.445 2.445v4.625a3.824 3.824 0 01-3.482-3.804v-3.661c0-1.994-.742-3.95-2.09-5.506a5.266 5.266 0 01-.615-.878.337.337 0 00-.588.329c.197.352.43.685.694.99 1.242 1.434 1.925 3.232 1.925 5.065v3.66A4.497 4.497 0 009.892 23.5c.186 0 .337-.15.337-.337v-4.976c0-.977.794-1.771 1.771-1.771.977 0 1.772.794 1.772 1.771v4.976c0 .186.151.337.337.337a4.497 4.497 0 004.492-4.492v-3.661c0-1.833.684-3.631 1.926-5.065a5.908 5.908 0 001.44-3.87c-.001-4.684-5.287-7.543-9.207-4.904z" fill="#000"/>
</svg>
