<svg width="24" height="24" fill="none" xmlns="http://www.w3.org/2000/svg">
  <defs/>
  <path d="M8.278 15.72a2.977 2.977 0 01-2.976-2.976v-1.86a1.86 1.86 0 011.86-1.86h4.119v7.289H8.266l.012-.592zM15.721 15.72a2.976 2.976 0 002.977-2.976v-1.86a1.86 1.86 0 00-1.86-1.86h-4.12v7.289h3.016l-.013-.592z" fill="#F79B4A"/>
  <path d="M9.78 18.11V12h4.466v6.11H9.78z" fill="#FECCA0"/>
  <path d="M9.78 13.637a3.705 3.705 0 002.233.744c.838 0 1.61-.277 2.232-.744V12H9.78v1.637z" fill="#E9B38A"/>
  <path d="M15.733 5.674v4.093a3.721 3.721 0 11-7.442 0V5.674M17.21 15.721a2.977 2.977 0 012.976 2.977v4.195a.27.27 0 01-.27.27H4.083a.27.27 0 01-.27-.27v-4.195A2.977 2.977 0 016.79 15.72h10.42z" fill="#FECCA0"/>
  <path d="M20.186 18.698a2.977 2.977 0 00-2.976-2.977h-.899a2.977 2.977 0 012.977 2.977v4.195a.27.27 0 01-.27.27h.899a.27.27 0 00.27-.27v-4.195z" fill="#E9B38A"/>
  <path d="M16.837 5.674v4.28c0 .616.5 1.116 1.117 1.116h.474c.149 0 .27.12.27.27v1.404a3.721 3.721 0 01-3.721-3.72V5.171h1.86v.502zM7.162 5.674v4.28c0 .616-.5 1.116-1.116 1.116H5.57a.27.27 0 00-.27.27v1.404a3.721 3.721 0 003.722-3.72V5.171H7.162v.502z" fill="#FFD151"/>
  <path d="M17.209 23.163v-7.442h-1.86a3.349 3.349 0 11-6.698 0H6.79v7.442h10.419z" fill="#00CE96"/>
  <path d="M17.21 15.72h-.899v7.443h.899v-7.442z" fill="#00BA88"/>
  <path d="M16.837 3.814A2.977 2.977 0 0013.86.837h-3.721a2.977 2.977 0 00-2.977 2.977v.64h9.675v-.64z" fill="#985335"/>
  <path d="M16.62 2.697H7.378c-.14.345-.217.722-.217 1.117v.64h9.675v-.64c0-.395-.078-.772-.218-1.117z" fill="#FFD151"/>
  <path d="M10.139 3.442a.744.744 0 100-1.489.744.744 0 000 1.489z" fill="#FF2551"/>
  <path d="M16.566 2.57A2.977 2.977 0 0013.86.838h-.898c1.259 0 2.335.781 2.77 1.885" fill="#87462A"/>
  <path d="M16.834 3.664l-.006-.075-.005-.071a2.804 2.804 0 00-.013-.101l-.005-.043a2.816 2.816 0 00-.02-.117l-.005-.023a2.817 2.817 0 00-.028-.127l-.002-.01a2.958 2.958 0 00-.037-.134v-.002a2.94 2.94 0 00-.093-.264h-.898c.14.345.217.722.217 1.117v.64h.898v-.64l-.003-.15z" fill="#F79B4A"/>
  <path d="M19.142 5.674c.171 0 .302-.157.265-.323a1.489 1.489 0 00-1.453-1.165H6.046c-.71 0-1.305.498-1.453 1.165a.269.269 0 00.264.323h14.285z" fill="#693621"/>
  <g fill="#0C0A0B">
    <path d="M20.523 18.698a3.318 3.318 0 00-2.848-3.28 3.31 3.31 0 001.36-2.674v-1.86a2.2 2.2 0 00-1.86-2.172v-2.7h2.267c.186 0 .337-.152.337-.338a1.827 1.827 0 00-1.826-1.825h-.78a3.296 3.296 0 00-.25-1.3A3.318 3.318 0 0013.86.5h-3.72a3.318 3.318 0 00-3.314 3.314l.001.035h-.78A1.827 1.827 0 004.22 5.674c0 .186.15.337.337.337h2.267v2.701a2.2 2.2 0 00-1.86 2.171v1.861a3.31 3.31 0 001.36 2.674 3.318 3.318 0 00-2.848 3.28v4.465c0 .186.15.337.336.337h1.64a.337.337 0 100-.674H4.15v-4.128a2.643 2.643 0 012.303-2.618v7.083c0 .186.151.337.337.337H20.186a.337.337 0 00.337-.337v-4.465zm-13.396-2.64H8.33A3.69 3.69 0 0012 19.407a3.69 3.69 0 003.67-3.349h1.202v6.768H7.127v-6.768zM9.36 9.023V6.011h5.28v3.012c0 .722.19 1.4.52 1.988a3.385 3.385 0 01-6.306-.027c.322-.581.506-1.25.506-1.96zm.42 7.779c.186 0 .337-.15.337-.337v-3.11a4.054 4.054 0 003.778.006v3.104a.337.337 0 10.674 0v-.407h.423A3.016 3.016 0 0112 18.733a3.016 3.016 0 01-2.993-2.675h.436v.407c0 .186.15.337.337.337zm5.941-1.418h-.37-.782v-.102a1.828 1.828 0 001.489-1.794.337.337 0 10-.674 0c0 .518-.344.957-.815 1.101v-1.67c.424-.344.78-.773 1.039-1.268a4.053 4.053 0 002.732 1.414 2.643 2.643 0 01-2.619 2.319zm2.632-4.651h-.4a.78.78 0 01-.779-.78v-.555c.631.143 1.114.678 1.18 1.335zm-1.853-.78c0 .802.652 1.454 1.454 1.454h.407v.983a3.389 3.389 0 01-3.048-3.367V6.011H16.5v3.942zm-6.36-8.78h3.72c.92 0 1.73.473 2.203 1.187h-4.897a1.083 1.083 0 00-1.027-.744c-.478 0-.885.313-1.027.744H7.937a2.64 2.64 0 012.202-1.186zm.406 1.524a.408.408 0 11-.815 0 .408.408 0 01.816 0zM7.5 3.814c0-.271.042-.533.118-.78h1.495c.142.432.549.745 1.027.745.479 0 .885-.313 1.027-.745h5.217a2.631 2.631 0 01.119.815H7.498a.339.339 0 00.001-.035zm-1.453.709h11.907c.518 0 .957.343 1.102.814h-4.078H4.944a1.153 1.153 0 011.101-.814zm2.64 1.488v3.012A3.389 3.389 0 015.64 12.39v-.983h.407c.801 0 1.453-.652 1.453-1.454V6.011h1.187zm-1.86 3.387v.555c0 .43-.35.78-.78.78h-.4a1.527 1.527 0 011.18-1.335zm-1.167 3.667a4.054 4.054 0 002.748-1.433c.258.5.613.931 1.036 1.277v1.684a1.153 1.153 0 01-.827-1.105.337.337 0 10-.674 0c0 .896.649 1.643 1.501 1.796v.1H8.279a2.643 2.643 0 01-2.62-2.319zm11.887 9.761V16.08a2.643 2.643 0 012.303 2.618v4.128h-2.303z"/>
    <path d="M13.488 7.872c.186 0 .337-.151.337-.337V6.79a.337.337 0 10-.674 0v.744c0 .186.151.337.337.337zM10.512 7.872c.186 0 .337-.151.337-.337V6.79a.337.337 0 10-.674 0v.744c0 .186.15.337.337.337z"/>
  </g>
</svg>
