<svg width="24" height="24" fill="none" xmlns="http://www.w3.org/2000/svg">
  <defs/>
  <g fill-rule="evenodd" clip-rule="evenodd">
    <path d="M4.35 3.473c-1.003-.996-2.105.268-1.182 1.187l.234.233 5.45 5.418c.567.719 1.966.566 1.989.238l.042-.595L4.35 3.473z" fill="#ECECEC"/>
    <path d="M9.698 9.957c-.33 0-.63.136-.846.354a1.19 1.19 0 00-.347.838v2.375l2.18 1.185 2.18-1.185.887-1.883-.887-1.684H9.698z" fill="#FFD659"/>
    <path d="M12.865 9.957v3.567l.691.54.726-.54.674-2.585-.674-2.453V6.744c0-.39-.32-.708-.709-.708a.711.711 0 00-.708.708v3.213z" fill="#838383"/>
    <path d="M15.966 8.486h-1.684v8.305l4.104 1.07 3.905-1.07v-3.256c0-.697-.41-1.194-1.073-1.194h-.354c-.551 0-.718-.379-1.062-.89L18.49 9.5c-.377-.56-.618-1.015-1.53-1.015h-.994z" fill="#80D261"/>
    <path d="M12.866 13.524H1.946a.308.308 0 00-.306.306v2.961h.03l5.704.733 6.909-.733v-3.267h-1.417z" fill="#ECECEC"/>
    <path d="M3.405 7.795a.876.876 0 100 1.751.876.876 0 000-1.75z" fill="#838383"/>
    <path d="M1.608 18.327h3.298a2.402 2.402 0 01.686-1.536H1.608a.77.77 0 000 1.536zM19.209 16.791c.393.4.65.94.686 1.536h2.497a.77.77 0 00.769-.767.771.771 0 00-.77-.769H19.21zM7.237 16.791c.395.4.65.94.688 1.536h8.952a2.403 2.403 0 01.688-1.536H7.237z" fill="#ACACAC"/>
    <path d="M18.387 16.07a2.412 2.412 0 11.001 4.819 2.412 2.412 0 010-4.818z" fill="#838383"/>
    <path d="M17.429 18.482a.958.958 0 101.916-.002.958.958 0 00-1.916.002z" fill="#E6E6E6"/>
    <path d="M19.343 16.791c.225.237.402.518.518.828a2.423 2.423 0 01.149.836 2.413 2.413 0 01-2.097 2.391 2.412 2.412 0 002.886-2.364 2.423 2.423 0 00-.262-1.093 2.406 2.406 0 00-2.467-1.298c.496.098.937.349 1.273.7z" fill="#595959"/>
    <path d="M12.052 9.957h.813v3.567h-.813V9.957z" fill="#FFBF00"/>
    <path d="M4.35 3.473c-.496-.493-1.015-.433-1.303-.135a.75.75 0 00-.093.117c.22.017.464.126.702.361l6.188 6.141h1.039v-.002L4.35 3.473zM12.865 13.524h1.417v3.267h-1.417v-3.267z" fill="#CECECE"/>
    <path d="M4.695 16.791a2.404 2.404 0 00-.693 1.691c0 1.331 1.08 2.41 2.412 2.41a2.41 2.41 0 10-1.72-4.1z" fill="#838383"/>
    <path d="M5.457 18.482a.958.958 0 101.915-.001.958.958 0 00-1.915.001z" fill="#E6E6E6"/>
    <path d="M7.37 16.791a2.392 2.392 0 01.665 1.536 2.413 2.413 0 01-2.093 2.52 2.411 2.411 0 10.157-4.755c.495.097.937.348 1.272.7z" fill="#595959"/>
    <path d="M21.387 15.356h.905v1.435h-.905v-1.435z" fill="#4FC122"/>
    <path d="M22.291 14.062h-1.34a.472.472 0 00-.471.47v.354c0 .259.212.47.47.47h1.341v-1.294z" fill="#A6E7F0"/>
    <path d="M21.387 14.062h.905v1.294h-.905v-1.294z" fill="#6BD9E7"/>
    <path d="M21.218 12.341h-.354a.865.865 0 01-.117-.006c.404.17.64.583.64 1.111v.616h.904v-.527c0-.697-.41-1.194-1.073-1.194z" fill="#4FC122"/>
    <path d="M15.721 9.98c-.052 0-.095.032-.098.071l.003 1.694c0 .165.152.333.396.333h2.217c.046-.001.082-.03.082-.066v-.09a.297.297 0 00-.059-.191l-1.076-1.525c-.113-.159-.231-.226-.454-.226h-1.01z" fill="#A6E7F0"/>
    <path d="M16.732 9.98h-.823c.223 0 .341.067.455.226l1.075 1.525a.29.29 0 01.06.19v.091c0 .036-.037.065-.082.066h.822c.046-.001.081-.03.081-.066v-.09a.296.296 0 00-.058-.191l-1.076-1.525c-.113-.159-.232-.226-.454-.226z" fill="#6BD9E7"/>
  </g>
  <path d="M18.387 17.185a1.3 1.3 0 00-1.298 1.297 1.299 1.299 0 002.595 0c0-.715-.582-1.297-1.297-1.297zm0 1.915a.619.619 0 110-1.238.619.619 0 010 1.238zM6.414 17.185c-.715 0-1.297.582-1.297 1.297a1.298 1.298 0 002.595 0 1.3 1.3 0 00-1.298-1.297zm0 1.915a.618.618 0 110-1.237.618.618 0 010 1.236z" fill="#000"/>
  <path d="M22.63 16.478v-2.943c0-.903-.58-1.533-1.412-1.533h-.354c-.284 0-.383-.132-.654-.55l-.126-.19-1.313-1.95-.068-.103c-.347-.522-.706-1.062-1.744-1.062h-2.337V6.744c0-.578-.47-1.048-1.048-1.048h-.001c-.578 0-1.047.47-1.047 1.048v2.874h-1.513L8.37 6.989a.34.34 0 00-.479.482l2.159 2.146h-.352c-.302 0-.583.088-.82.24L3.641 4.653l-.235-.234c-.2-.2-.284-.434-.23-.642a.438.438 0 01.302-.315c.192-.053.417.037.632.252L6.743 6.33a.34.34 0 10.478-.482l-2.63-2.616c-.39-.387-.86-.542-1.29-.426a1.118 1.118 0 00-.78.797c-.119.448.03.922.408 1.298l.134.133.002 2.47a1.217 1.217 0 00-.876 1.167c0 .551.37 1.018.876 1.165v1.31c0 .405-.415.417-.462.417-.048 0-.463-.012-.463-.416V10.6a.34.34 0 10-.679 0v.546c0 .719.574 1.095 1.142 1.095.567 0 1.141-.376 1.141-1.095V9.836c.506-.147.876-.614.876-1.165 0-.553-.37-1.02-.876-1.167L3.742 5.71l4.656 4.628a1.522 1.522 0 00-.233.811v2.035h-6.22a.647.647 0 00-.645.646v2.665a1.108 1.108 0 00.308 2.17h2.061a2.754 2.754 0 002.745 2.567 2.754 2.754 0 002.745-2.566h2.563a.34.34 0 000-.678H9.12a2.729 2.729 0 00-.311-.857h7.181c-.149.262-.255.55-.311.857h-2.402a.34.34 0 100 .678h2.363a2.754 2.754 0 002.745 2.566 2.754 2.754 0 002.745-2.566h1.26c.612 0 1.109-.496 1.109-1.106a1.11 1.11 0 00-.87-1.082zM3.942 8.67a.536.536 0 11-1.072-.003.536.536 0 011.072.003zm18.01 6.345h-1a.132.132 0 01-.132-.13v-.355c0-.07.06-.13.132-.13h1v.615zm-4.992-6.19c.674 0 .853.27 1.178.759l.071.106 1.313 1.95.12.181c.286.442.557.859 1.223.859h.354c.541 0 .734.441.734.854v.187H20.95a.81.81 0 00-.811.81v.354a.81.81 0 00.81.81h1.002v.756H20.24a2.742 2.742 0 00-1.854-.72c-.714 0-1.365.273-1.855.72h-1.91V8.826h2.337zm-3.754-2.082c0-.2.168-.37.368-.37h.001c.2 0 .369.17.369.37v6.44h-.738V6.744zm-4.36 4.405c0-.229.09-.436.238-.59l.01-.009.011-.012a.85.85 0 01.594-.242h2.828v2.888H8.844V11.15zm-.34 2.714H13.943v2.589H8.269a2.742 2.742 0 00-1.855-.72c-.713 0-1.364.273-1.854.72H1.978v-2.589h6.527zM1.179 17.56a.43.43 0 01.428-.43H4.02a2.73 2.73 0 00-.311.857h-2.1a.428.428 0 01-.43-.427zm5.235 2.993a2.074 2.074 0 01-2.073-2.07c0-1.143.93-2.073 2.073-2.073 1.143 0 2.073.93 2.073 2.072s-.93 2.07-2.073 2.07zm11.973 0a2.074 2.074 0 01-2.073-2.07c0-1.143.93-2.073 2.073-2.073 1.143 0 2.073.93 2.073 2.072s-.93 2.07-2.073 2.07zm4.005-2.566h-1.299a2.73 2.73 0 00-.311-.856h1.61a.43.43 0 110 .857z" fill="#000"/>
  <path d="M16.021 12.418H18.25a.412.412 0 00.41-.406v-.09a.639.639 0 00-.12-.387l-1.076-1.526c-.182-.255-.408-.369-.732-.369h-1.01a.429.429 0 00-.438.412l.003 1.693c0 .37.33.673.735.673zm.71-2.099c.119 0 .131.018.178.083l.943 1.337h-1.83a.102.102 0 01-.057-.013l-.002-1.407h.769z" fill="#000"/>
</svg>
