<svg width="24" height="24" fill="none" xmlns="http://www.w3.org/2000/svg">
  <defs/>
  <g fill-rule="evenodd" clip-rule="evenodd">
    <path d="M7.451 2.863H4.43c-.285 0-.548.492-.24.802.827.832 1.368 1.114 1.683 2.71.094.482.38.552.679.552h.9l1.46-2.256-1.46-1.808zM7.451 8.746H4.43c-.285 0-.548.492-.24.802.827.832 1.368 1.116 1.683 2.712.094.481.38.55.679.55h.9l1.207-2.056L7.45 8.746zM7.451 14.63H4.43c-.285 0-.548.49-.24.801.827.833 1.368 1.116 1.683 2.712.094.481.38.55.679.55h.9l1.207-2.071L7.45 14.63zM16.548 14.63l-1.123 1.743 1.123 2.32h.901c.3 0 .584-.069.68-.55.315-1.597.856-1.88 1.681-2.712.309-.31.046-.8-.238-.8h-3.024zM16.549 8.746l-1.033 2.058 1.033 2.006h.901c.299 0 .584-.069.68-.55.314-1.596.855-1.88 1.68-2.712.31-.31.047-.802-.237-.802h-3.024zM16.549 2.863L15.29 4.786l1.259 2.141h.9c.3 0 .585-.07.68-.551.315-1.597.856-1.88 1.682-2.71.308-.311.046-.803-.238-.803h-3.024z" fill="#838383"/>
    <path d="M14.764 20.718l-2.635-1.527-2.892 1.527v1.854a.59.59 0 00.589.588h4.35a.59.59 0 00.588-.588v-1.854z" fill="#FFD659"/>
    <path d="M7.451 17.78H5.79c.03.113.056.234.082.363.094.481.38.55.678.55h.901v-.913zM16.593 17.705h1.663c-.03.113-.101.31-.126.438-.096.481-.381.55-.68.55h-.901l.044-.988zM7.451 11.897H5.79c.03.114.056.233.082.363.094.481.38.55.678.55h.901v-.913zM16.549 11.897h1.66a7.51 7.51 0 00-.08.363c-.095.481-.38.55-.68.55h-.9v-.913zM7.451 6.013H5.79c.03.113.056.234.082.363.094.481.38.551.678.551h.901v-.914zM16.549 6.013h1.66a7.88 7.88 0 00-.08.363c-.095.481-.38.551-.68.551h-.9v-.914z" fill="#595959"/>
    <path d="M7.451 2.863v16.755c0 .605.496 1.1 1.1 1.1h6.898c.605 0 1.1-.495 1.1-1.1V1.939c0-.605-.495-1.099-1.1-1.099H8.552c-.605 0-1.1.494-1.1 1.099v.925z" fill="#ECECEC"/>
    <path d="M15.45.84h-1.71c.604 0 1.1.493 1.1 1.098v17.68c0 .605-.496 1.1-1.1 1.1h1.71c.605 0 1.099-.495 1.099-1.1V1.939c0-.605-.494-1.099-1.1-1.099z" fill="#CECECE"/>
    <path d="M13.74 20.718h-1.337v1.854a.59.59 0 01-.588.588h2.361a.59.59 0 00.589-.588v-1.854H13.74z" fill="#FFBF00"/>
    <path d="M11.86 4.288a1.43 1.43 0 10-.002 2.859 1.43 1.43 0 00.002-2.859z" fill="#FE636E"/>
    <path d="M11.95 10.042a1.43 1.43 0 10-.002 2.858 1.43 1.43 0 00.002-2.858z" fill="#FFD659"/>
    <path d="M12.04 15.797a1.43 1.43 0 10-.002 2.857 1.43 1.43 0 00.003-2.857z" fill="#80D261"/>
    <path d="M13.18 5.165a1.432 1.432 0 01-2.64 0 1.43 1.43 0 102.64 0z" fill="#FB2A39"/>
    <path d="M11.95 11.798a1.428 1.428 0 01-1.32-.877 1.43 1.43 0 102.64 0 1.431 1.431 0 01-1.32.877z" fill="#FFBF00"/>
    <path d="M13.36 16.675a1.428 1.428 0 01-2.638 0 1.43 1.43 0 102.638 0z" fill="#4FC122"/>
  </g>
  <path d="M17.45 13.15c.563 0 .904-.277 1.012-.824.246-1.247.615-1.6 1.225-2.183.116-.11.235-.225.365-.355a.813.813 0 00.17-.9c-.122-.292-.377-.48-.65-.48h-2.684V7.266h.561c.564 0 .905-.278 1.013-.825.246-1.246.614-1.598 1.224-2.18.116-.111.236-.226.366-.357a.813.813 0 00.17-.9c-.122-.292-.377-.48-.65-.48h-2.684v-.587A1.44 1.44 0 0015.45.5h-2.745a.34.34 0 100 .679h2.745c.42 0 .76.34.76.76v17.68c0 .42-.34.76-.76.76h-2.69a.34.34 0 000 .68h1.665v1.513a.252.252 0 01-.248.249h-4.35a.252.252 0 01-.25-.249v-1.514h1.626a.34.34 0 000-.679h-2.65a.762.762 0 01-.761-.76V1.939c0-.42.341-.76.76-.76h2.651a.34.34 0 100-.679h-2.65a1.44 1.44 0 00-1.44 1.438v.586H4.428c-.273 0-.528.19-.65.482a.812.812 0 00.17.9c.13.13.25.244.366.355.61.583.979.934 1.224 2.18.108.548.448.826 1.013.826h.56v1.14H4.429c-.273 0-.528.19-.65.482a.812.812 0 00.17.9c.13.129.249.243.365.354.61.583.98.935 1.226 2.183.107.546.447.824 1.012.824h.56v1.141H4.429c-.273 0-.528.19-.65.482a.811.811 0 00.17.898c.13.13.25.246.367.357.61.583.978.935 1.224 2.18.107.547.447.825 1.012.825h.56v.586c0 .794.647 1.44 1.44 1.44h.347v1.513c0 .512.416.928.928.928h4.35a.929.929 0 00.928-.928v-1.514h.345a1.44 1.44 0 001.44-1.44v-.585h.56c.564 0 .905-.277 1.013-.824.246-1.246.614-1.597 1.223-2.18.116-.112.237-.227.367-.358a.812.812 0 00.17-.9c-.121-.291-.376-.48-.65-.48h-2.684V13.15h.561zM6.55 6.588c-.215 0-.295-.023-.345-.277-.288-1.458-.788-1.936-1.422-2.541-.113-.108-.23-.22-.353-.343a.124.124 0 01-.038-.116.187.187 0 01.057-.108h2.663v3.385H6.55zm0 5.883c-.216 0-.296-.023-.345-.276-.288-1.459-.789-1.938-1.423-2.543-.113-.108-.23-.22-.352-.342a.124.124 0 01-.038-.116.187.187 0 01.056-.108h2.664v3.385H6.55zm0 5.883c-.216 0-.296-.023-.345-.276-.287-1.457-.788-1.936-1.421-2.54-.113-.109-.23-.221-.354-.345a.123.123 0 01-.038-.115.185.185 0 01.056-.108h2.664v3.384H6.55zm13.002-9.268a.186.186 0 01.056.108.124.124 0 01-.038.115c-.123.124-.24.236-.353.344-.633.605-1.133 1.084-1.42 2.541-.051.254-.131.277-.348.277h-.561V9.086h2.664zm0-5.883a.186.186 0 01.056.108.124.124 0 01-.038.116c-.124.124-.24.236-.354.344-.633.605-1.133 1.082-1.42 2.54-.05.254-.13.277-.347.277h-.56V3.203h2.663zm0 11.767a.185.185 0 01.056.107.124.124 0 01-.038.116c-.124.124-.241.237-.355.345-.632.605-1.132 1.083-1.419 2.54-.05.253-.13.276-.347.276h-.561V14.97h2.665z" fill="#000"/>
  <path d="M13.72 11.472a1.77 1.77 0 00-1.77-1.769c-.975 0-1.77.794-1.77 1.77a1.77 1.77 0 003.539 0zm-2.86 0c0-.6.489-1.09 1.09-1.09a1.09 1.09 0 11-1.091 1.09zM12.04 15.457c-.975 0-1.77.794-1.77 1.77a1.77 1.77 0 003.539 0 1.77 1.77 0 00-1.768-1.77zm0 2.859a1.091 1.091 0 01-1.09-1.09c0-.6.489-1.09 1.09-1.09a1.09 1.09 0 010 2.18z" fill="#000"/>
  <path d="M14.349 16.213a.34.34 0 00.311-.475 2.856 2.856 0 00-5.24 0 .34.34 0 10.623.27 2.178 2.178 0 013.994 0 .34.34 0 00.312.205zM11.95 8.266c-1.139 0-2.167.674-2.62 1.718a.34.34 0 10.624.27 2.176 2.176 0 013.993 0 .34.34 0 10.623-.27 2.855 2.855 0 00-2.62-1.718zM13.629 5.717a1.77 1.77 0 00-3.54 0c0 .975.795 1.769 1.77 1.769a1.77 1.77 0 001.77-1.77zm-2.86 0a1.091 1.091 0 012.18 0 1.091 1.091 0 01-2.18 0z" fill="#000"/>
  <path d="M11.86 2.511c-1.14 0-2.168.675-2.62 1.719a.34.34 0 00.623.27 2.176 2.176 0 013.993 0 .34.34 0 10.623-.27 2.855 2.855 0 00-2.62-1.719z" fill="#000"/>
</svg>
