<svg width="24" height="24" fill="none" xmlns="http://www.w3.org/2000/svg">
  <defs/>
  <path d="M10.14 18.699L7.611 23.03a.27.27 0 01-.233.134h-.864a.27.27 0 01-.233-.405l2.369-4.06v-.23h1.488v.23zM15.349 18.699l2.368 4.06a.27.27 0 01-.233.405h-.864a.27.27 0 01-.233-.134l-2.527-4.332v-.228h1.489v.229z" fill="#58565C"/>
  <path d="M6.046 1.582c-.822 0-1.488.666-1.488 1.488v14.884c0 .822.666 1.489 1.488 1.489h1.219a.27.27 0 00.27-.27V18.7h8.93v.474c0 .15.12.27.27.27h1.218c.822 0 1.489-.667 1.489-1.489V3.07c0-.822-.667-1.488-1.489-1.488H6.046z" fill="#00BCE7"/>
  <path d="M6.636 19.444h.629a.27.27 0 00.27-.27V18.7h-.9v.744zM17.953 1.583h-.898c.822 0 1.488.666 1.488 1.488v14.884c0 .822-.666 1.489-1.488 1.489h.898c.822 0 1.489-.667 1.489-1.489V3.071c0-.822-.667-1.488-1.489-1.488z" fill="#0094D4"/>
  <path d="M19.442 4.559H4.558v8.93h14.884V4.56z" fill="#58565C"/>
  <path d="M18.056 12.373H5.943a.27.27 0 01-.27-.27V5.946c0-.15.121-.27.27-.27h12.113c.149 0 .27.12.27.27v6.159a.27.27 0 01-.27.27z" fill="#B6E3EE"/>
  <path d="M8.279 16.094a.744.744 0 000-1.489H6.79a.744.744 0 000 1.49H8.28zM17.21 16.094a.744.744 0 000-1.489h-1.49a.744.744 0 000 1.49h1.49z" fill="#FFD151"/>
  <path d="M19.441 4.559h-.898v8.93h.898V4.56z" fill="#49484D"/>
  <path d="M9.561.838h4.876a.27.27 0 01.242.149l.269.538a.27.27 0 01.028.12v1.156a.27.27 0 01-.27.27H9.293a.27.27 0 01-.27-.27V1.646a.27.27 0 01.029-.12l.27-.54a.27.27 0 01.24-.148z" fill="#FFD151"/>
  <path d="M14.948 1.525l-.27-.538a.27.27 0 00-.24-.15h-.899a.27.27 0 01.241.15l.27.538a.27.27 0 01.028.12v1.156a.27.27 0 01-.27.27h.899a.27.27 0 00.27-.27V1.646a.268.268 0 00-.03-.12z" fill="#F79B4A"/>
  <path d="M18.056 5.675h-.899c.15 0 .27.12.27.27v6.159a.27.27 0 01-.27.27h.899a.27.27 0 00.27-.27v-6.16a.27.27 0 00-.27-.269z" fill="#96D2E0"/>
  <path d="M17.21 14.605h-.9a.744.744 0 010 1.49h.9a.744.744 0 000-1.49zM8.263 14.605h-.899a.744.744 0 010 1.49h.899a.744.744 0 000-1.49z" fill="#F79B4A"/>
  <g fill="#000">
    <path d="M17.953 1.244h-2.768l-.28-.558a.337.337 0 00-.3-.186h-5.21a.337.337 0 00-.301.186l-.28.558H6.047A1.827 1.827 0 004.221 3.07v14.884c0 1.007.819 1.826 1.825 1.826h1.489a.336.336 0 00.105-.017l-1.885 3.231a.337.337 0 00.582.34l2.507-4.298h.709l-2.31 3.958a.337.337 0 00.582.34l.554-.95h7.241l.554.95a.337.337 0 10.582-.34l-2.31-3.958h.71l2.506 4.298a.337.337 0 10.582-.34l-1.885-3.231a.336.336 0 00.106.017h1.488a1.827 1.827 0 001.826-1.826V3.07a1.827 1.827 0 00-1.826-1.825zM4.895 4.894h14.21v8.257H4.895V4.895zm0 8.931h14.21v3.047h-4.693l-.644-.966a.337.337 0 00-.28-.15h-2.977a.337.337 0 00-.28.15l-.644.966H4.894v-3.047zM9.36 1.661l.243-.487h2.06v.407a.337.337 0 00.674 0v-.407h2.06l.243.487v1.072H9.36V1.66zm-3.314.257h2.64v1.151c0 .187.15.337.337.337h5.954c.186 0 .336-.15.336-.337V1.918h2.64c.635 0 1.152.516 1.152 1.151v1.152H4.895V3.069c0-.635.516-1.151 1.151-1.151zm1.825 17.447v-.33h.193l-.193.33zm.901 2.345l.475-.815h5.505l.475.815H8.772zm5.587-1.489H9.641l.692-1.186h3.334l.692 1.186zm1.576-1.186h.193v.33l-.193-.33zm2.018.07h-1.151v-.407a.337.337 0 00-.337-.337h-8.93a.337.337 0 00-.337.337v.407H6.046a1.153 1.153 0 01-1.151-1.152v-.407h4.872a.337.337 0 00.28-.15l.644-.966h2.617l.644.966c.062.094.168.15.28.15h4.873v.407c0 .635-.517 1.152-1.152 1.152z"/>
    <path d="M18.325 5.337H5.674a.337.337 0 00-.337.337v6.698c0 .186.15.337.337.337h12.651c.186 0 .337-.15.337-.337V5.674a.337.337 0 00-.337-.337zm-.337 6.698H6.011V6.011h11.977v6.024zM6.418 3.406h1.116a.337.337 0 100-.674H6.418a.337.337 0 100 .674zM16.465 3.406h1.116a.337.337 0 100-.673h-1.116a.337.337 0 100 .673zM8.279 14.268H6.79a1.082 1.082 0 000 2.162H8.28c.596 0 1.08-.485 1.08-1.081s-.484-1.081-1.08-1.081zm0 1.488H6.79a.408.408 0 010-.815H8.28a.408.408 0 010 .815zM15.72 16.43h1.49c.595 0 1.08-.485 1.08-1.081s-.485-1.081-1.08-1.081h-1.49a1.082 1.082 0 000 2.162zm0-1.489h1.49a.408.408 0 010 .815h-1.49a.408.408 0 010-.815z"/>
  </g>
</svg>
