<svg width="24" height="24" fill="none" xmlns="http://www.w3.org/2000/svg">
  <defs/>
  <path d="M19.073 6.006c.713 0 1.27.615 1.2 1.323l-.903 9.147c-.123 1.248-1.172 1.614-2.426 1.614h-5.489c-1.253 0-2.302-.366-2.425-1.614l-.903-9.147a1.205 1.205 0 011.2-1.323h9.746z" fill="#EEEDEE"/>
  <path d="M19.073 6.006h-2.311c.712 0 1.269.615 1.2 1.323l-.904 9.147c-.123 1.248-1.172 1.614-2.425 1.614h2.31c1.254 0 2.303-.366 2.426-1.614l.903-9.147a1.205 1.205 0 00-1.2-1.323z" fill="#CCCBCC"/>
  <path d="M19.996 10.017H8.392l.637 6.459c.123 1.248 1.172 1.614 2.425 1.614h5.49c1.253 0 2.302-.366 2.425-1.614l.636-6.441-.009-.018z" fill="#5B9ED6"/>
  <path d="M19.997 10.017h-2.301l-.638 6.459c-.123 1.248-1.172 1.614-2.425 1.614h2.31c1.254 0 2.303-.366 2.426-1.614l.636-6.441-.008-.018z" fill="#487CA8"/>
  <path d="M16.07 19.951h-3.74a.97.97 0 01-.97-.97v-.89h5.68v.89a.97.97 0 01-.97.97z" fill="#5B9ED6"/>
  <path d="M15.228 18.09v.89a.97.97 0 01-.97.971h1.81a.97.97 0 00.971-.97v-.89h-1.81z" fill="#487CA8"/>
  <path d="M3.722 23.05V6.329a3.093 3.093 0 013.093-3.093h5.237a2.262 2.262 0 012.147-1.56 2.26 2.26 0 012.258 2.258v.005a.743.743 0 01-.587.732.742.742 0 01-.896-.726V3.94a.778.778 0 00-.612-.766.776.776 0 00-.937.758v.043c0 .41-.332.742-.742.742H6.815c-.89 0-1.61.72-1.61 1.61v16.723H3.721z" fill="#BDBDBD"/>
  <path d="M20.691 7.315a1.555 1.555 0 00-1.546-1.707h-4.586v-.763a.337.337 0 00-.674 0v.763H9.298c-.92 0-1.636.796-1.546 1.707l.41 4.157a.337.337 0 00.67-.066l-.105-1.072h10.99l-.091.918H17.27a.337.337 0 100 .674h2.29l-.091.918h-.83a.337.337 0 000 .674h.763l-.09.918H17.27a.337.337 0 100 .673h1.975l-.136 1.38c-.056.569-.337 1.326-2.115 1.326h-5.545c-1.778 0-2.059-.757-2.115-1.327l-.375-3.797a.337.337 0 00-.67.066l.375 3.798c.08.82.565 1.784 2.352 1.918v.588c0 .721.586 1.308 1.307 1.308h1.562v2.794a.337.337 0 10.674 0V20.37h1.561c.72 0 1.307-.587 1.307-1.308v-.588c1.787-.134 2.272-1.099 2.353-1.918l.911-9.24zm-3.938 11.746c0 .35-.284.634-.633.634h-3.797a.634.634 0 01-.633-.634v-.572h5.063v.572zM8.66 9.66l-.238-2.411a.88.88 0 01.876-.967h9.847a.88.88 0 01.876.967l-.081.82h-1.3a.337.337 0 000 .673h1.233l-.09.918H8.66z" fill="#000"/>
  <path d="M13.776 3.895V3.85c0-.272.248-.496.543-.436a.45.45 0 01.349.447c0 .68.62 1.202 1.308 1.063.5-.1.863-.55.863-1.07v-.004a2.62 2.62 0 00-2.28-2.595v-.42a.337.337 0 00-.674 0v.42a2.61 2.61 0 00-2.064 1.553H6.762a3.465 3.465 0 00-3.461 3.462v4.359a.337.337 0 10.674 0V6.27a2.79 2.79 0 012.787-2.787h5.291a.337.337 0 00.32-.233 1.94 1.94 0 011.849-1.343c1.071 0 1.943.872 1.943 1.944v.005a.413.413 0 11-.824.003c0-.956-1.098-1.47-1.826-.876-.454.37-.41.898-.413.912a.412.412 0 01-.412.412H6.762A1.966 1.966 0 004.798 6.27v16.555h-.823V11.888a.337.337 0 10-.674 0v11.275c0 .186.15.337.337.337h1.497c.186 0 .337-.15.337-.337V6.271c0-.712.579-1.29 1.29-1.29h5.928c.6 0 1.086-.488 1.086-1.086z" fill="#000"/>
</svg>
