<svg width="24" height="24" fill="none" xmlns="http://www.w3.org/2000/svg">
  <defs/>
  <path d="M21.204 5.907v15.778H2.785V5.907l9.21-3.592 9.21 3.592z" fill="#536B7C"/>
  <path d="M21.204 7.28H2.785v3.156h18.42" fill="#CFDCE5"/>
  <g fill="#FF6F52">
    <path d="M21.204 5.907v1.372H2.785V5.907l9.21-3.592 9.21 3.592zM17.655 18.81v-2.909a.84.84 0 00-.84-.84H7.174a.84.84 0 00-.839.84v2.91"/>
  </g>
  <path d="M16.431 15.062H7.457l.502-2.127c.107-.457.515-.78.985-.78h6c.47 0 .879.323.986.78l.502 2.127z" fill="#4EBFED"/>
  <path d="M16.431 15.062h-5.019l1.28-2.906h2.252c.47 0 .877.322.985.78l.502 2.126z" fill="#92DDF4"/>
  <g fill="#FCD577">
    <path d="M8.271 17.816a.867.867 0 100-1.734.867.867 0 000 1.734zM15.717 17.815a.867.867 0 100-1.734.867.867 0 000 1.734z"/>
  </g>
  <path d="M18.318 18.81H5.671v1.224h12.647v-1.223z" fill="#CFDCE5"/>
  <g fill="gray">
    <path d="M8.527 20.034H6.589v1.651h1.938v-1.65zM17.4 20.035h-1.937v1.65H17.4v-1.65z"/>
  </g>
  <path d="M23.256 6.295l-6.155-2.4a.382.382 0 00-.278.712l4.005 1.562-.001.019v.709H7.387a.382.382 0 100 .765h13.44v.813h-2.502a.382.382 0 100 .765h2.502v.814H3.173V9.24H17.05a.382.382 0 100-.765H3.173v-.813h2.94a.382.382 0 100-.765h-2.94v-.71l-.001-.018L12 2.726l3.367 1.313a.383.383 0 00.278-.713L12.139 1.96a.382.382 0 00-.278 0L.744 6.295a.382.382 0 00.278.712l1.386-.54v9.295a.382.382 0 10.765 0v-4.943h17.654v10.483h-3.039v-.885h.535a.382.382 0 00.383-.383V18.81a.382.382 0 00-.383-.382h-.28v-2.526c0-.413-.206-.779-.52-1l.284-.285h.618a.382.382 0 000-.765h-.776a.383.383 0 00-.27.112l-.654.654-.418-1.77a1.39 1.39 0 00-1.358-1.075h-6a1.39 1.39 0 00-1.358 1.075l-.398 1.687-.571-.57a.382.382 0 00-.27-.113h-.778a.382.382 0 000 .765h.619l.285.285c-.315.221-.521.587-.521 1v2.526h-.28a.382.382 0 00-.383.382v1.224c0 .212.171.383.382.383h.536v.885H3.173v-4.265a.382.382 0 10-.765 0v4.265H1.276a.382.382 0 100 .765h21.448a.382.382 0 100-.765h-1.132V6.467l1.387.54a.382.382 0 10.277-.712zm-14.92 6.728a.628.628 0 01.613-.485h6c.294 0 .546.2.613.485l.391 1.657H7.944l.391-1.657zm-2.277 6.17h2.5a.382.382 0 000-.765H6.723v-2.526c0-.252.205-.457.457-.457h9.642c.252 0 .457.205.457.457v2.526H9.835a.382.382 0 000 .765h8.106v.459H6.059v-.459zm9.026 1.224v.885h-6.17v-.885h6.17zm-8.108.885v-.885H8.15v.885H6.977zm8.873 0v-.885h1.173v.885H15.85z" fill="#000"/>
  <path d="M9.526 16.95a1.25 1.25 0 00-2.499 0 1.25 1.25 0 002.499 0zm-1.25.484a.485.485 0 11.002-.97.485.485 0 01-.001.97zM15.723 18.198c.689 0 1.25-.56 1.25-1.249a1.25 1.25 0 00-2.499 0c0 .689.56 1.25 1.249 1.25zm0-1.733a.485.485 0 11-.001.97.485.485 0 01.001-.97z" fill="#000"/>
</svg>
