<svg width="24" height="24" fill="none" xmlns="http://www.w3.org/2000/svg">
  <defs/>
  <g fill="#E6E6E6">
    <path d="M17.415 14.742c-.408.561-.871 1.124-1.387 1.64l-1.768-5.343h5.247s-.74 1.84-2.092 3.703z"/>
    <path d="M17.415 14.742c1.351-1.862 2.091-3.703 2.091-3.703H14.26l-1.968-5.945h9.337c.785 0 1.421.636 1.421 1.421v14.933c0 .785-.636 1.421-1.421 1.421H13.14l3.723-3.963-.836-2.524c.515-.515.978-1.079 1.387-1.64z"/>
  </g>
  <path d="M16.864 18.906l-3.723 3.963-1.319-3.963h5.042z" fill="#3A5BBC"/>
  <path d="M16.028 16.382l.836 2.524H2.372A1.421 1.421 0 01.95 17.484V2.552c0-.785.636-1.422 1.422-1.422h8.607l1.312 3.964 1.968 5.945 1.77 5.343z" fill="#518EF8"/>
  <path d="M7.395 13.354a3.352 3.352 0 01-3.348-3.348 3.352 3.352 0 013.348-3.348c.893 0 1.734.348 2.367.98a.45.45 0 01-.637.638 2.433 2.433 0 00-1.73-.717 2.45 2.45 0 00-2.447 2.447 2.45 2.45 0 002.447 2.447A2.451 2.451 0 009.8 10.457H7.395a.45.45 0 010-.901h2.897a.45.45 0 01.45.45 3.352 3.352 0 01-3.347 3.348z" fill="#fff"/>
  <path d="M21.628 4.644h-9.011L11.407.989a.45.45 0 00-.428-.309H2.372C1.34.68.5 1.52.5 2.552v14.933c0 1.032.84 1.871 1.872 1.871h9.126l1.216 3.656a.45.45 0 00.427.308h8.487c1.032 0 1.872-.84 1.872-1.872V6.515c0-1.032-.84-1.871-1.872-1.871zM1.401 17.484V2.553c0-.535.435-.971.97-.971h8.283l4.942 14.928.002.005.643 1.942H2.37a.972.972 0 01-.97-.971zm17.41-5.994a19.857 19.857 0 01-1.423 2.505 38.591 38.591 0 01-1-1.299.45.45 0 00-.73.53c.022.028.472.648 1.186 1.529-.206.27-.415.526-.626.766l-1.335-4.031h3.928zm-6.364 7.866h3.376l-2.493 2.655-.883-2.655zm10.152 2.092a.972.972 0 01-.97.971h-7.447l3.01-3.205a.45.45 0 00.1-.45l-.75-2.264c.3-.315.598-.66.89-1.033.707.84 1.398 1.597 2.056 2.256a.45.45 0 00.637 0 .45.45 0 000-.637 35.735 35.735 0 01-2.143-2.365 20.269 20.269 0 001.822-3.232h.964a.45.45 0 100-.9h-2.973v-.81a.45.45 0 10-.9 0v.81h-2.31l-1.67-5.045h8.713c.535 0 .971.436.971.971v14.933z" fill="#333"/>
</svg>
