<svg width="24" height="24" fill="none" xmlns="http://www.w3.org/2000/svg">
  <defs/>
  <path d="M17.209 20.49H6.79v2.404c0 .148.12.27.27.27h9.88a.27.27 0 00.269-.27V20.49z" fill="#FABE2C"/>
  <path d="M16.22 20.49v2.404a.27.27 0 01-.269.27h.988a.27.27 0 00.27-.27V20.49h-.988z" fill="#FD9E28"/>
  <path d="M18.326 6.046l-.373 14.884a.744.744 0 01-.744.745H6.79a.744.744 0 01-.744-.745L5.674 6.046v-.605h12.652v.605z" fill="#898989"/>
  <path d="M17.337 5.441v.605l-.372 14.884a.744.744 0 01-.744.745h.988c.41 0 .744-.334.744-.745l.372-14.884v-.605h-.988z" fill="#727575"/>
  <path d="M5.302 4.917V3.07c0-.411.333-.745.744-.745h11.907c.411 0 .745.334.745.744v1.86L5.302 4.917z" fill="#898989"/>
  <path d="M17.953 2.325h-.988c.41 0 .744.334.744.744v1.859h.988V3.07a.744.744 0 00-.744-.745z" fill="#727575"/>
  <path d="M18.698 6.046a.744.744 0 000-1.488H5.302a.744.744 0 100 1.488h13.396z" fill="#FABE2C"/>
  <path d="M18.697 4.558h-.988a.744.744 0 010 1.488h.988a.744.744 0 000-1.488z" fill="#FD9E28"/>
  <path d="M19.034 4.275V3.069c0-.596-.485-1.08-1.08-1.08h-3.757V.836A.337.337 0 0013.86.5h-3.72a.337.337 0 00-.338.337v1.151H6.046c-.596 0-1.081.485-1.081 1.082v1.205a1.082 1.082 0 00.337 2.108h.043l.364 14.552c.002.477.314.881.744 1.023v1.205c0 .186.151.337.337.337h10.42c.185 0 .336-.15.336-.337v-1.205c.43-.142.742-.546.744-1.023l.364-14.552h.044a1.082 1.082 0 00.336-2.108zm-8.558-3.101h3.047v.814h-3.047v-.814zm-4.43 1.488h11.907c.225 0 .408.183.408.408V4.22H5.639V3.07c0-.225.182-.408.407-.408zm11.57 18.26v.008a.408.408 0 01-.404.408H9.669a.337.337 0 100 .674h7.203v.814H7.127v-.814h1.194a.337.337 0 100-.674H6.788a.408.408 0 01-.405-.408v-.008L6.019 6.383H17.98l-.364 14.54zM18.698 5.71H5.676h-.374a.408.408 0 010-.815H18.61a.343.343 0 00.15.005.407.407 0 01-.063.81z" fill="#000"/>
  <path d="M8.995 19.035h.004a.337.337 0 00.333-.341L9.21 9.018a.337.337 0 00-.337-.333H8.87a.337.337 0 00-.333.341l.121 9.675a.337.337 0 00.337.333zM12 19.035c.186 0 .337-.151.337-.337V9.023a.337.337 0 10-.674 0v9.675c0 .186.151.337.337.337zM15 19.035h.004a.337.337 0 00.337-.333l.12-9.675a.337.337 0 00-.332-.34h-.004a.337.337 0 00-.337.332l-.121 9.675a.337.337 0 00.333.34z" fill="#000"/>
</svg>
