<svg width="24" height="24" fill="none" xmlns="http://www.w3.org/2000/svg">
  <defs/>
  <path d="M12 3.645H3.813v2.57H12v-2.57z" fill="#58565C"/>
  <path d="M6.047 18.326H1.58a.744.744 0 01-.744-.744V6.419c0-.411.333-.744.744-.744h11.907a3.721 3.721 0 013.714 3.483c.005.079.747 8.344.747 8.344a.744.744 0 01-.74.824H6.047z" fill="#58565C"/>
  <path d="M17.953 17.582a.744.744 0 01-.744.744h-.898a.744.744 0 00.74-.824s-.743-8.265-.748-8.344a3.721 3.721 0 00-3.713-3.483h.898a3.721 3.721 0 013.714 3.483c.005.079.747 8.344.747 8.344a.75.75 0 01.004.08z" fill="#49484D"/>
  <path d="M.837 13.117H12l.744 1.116h4.912l-.454-5.074a3.721 3.721 0 00-3.714-3.484H1.581a.744.744 0 00-.744.744v6.698z" fill="#FFD151"/>
  <path d="M17.756 15.35h-5.612a.27.27 0 01-.224-.12l-.584-.877a.27.27 0 00-.225-.12H.838v-1.117h11.019a.27.27 0 01.224.12l.584.877a.27.27 0 00.224.12h4.768l.1 1.116z" fill="#fff"/>
  <path d="M17.753 15.316l-.097-1.083h-.898l.1 1.116h.898l-.003-.033z" fill="#E6E6E6"/>
  <path d="M16.303 9.158c.003.045.246 2.755.454 5.075h.899l-.011-.121-.014-.152-.004-.048-.011-.126-.008-.086-.01-.103c0-.016-.002-.032-.004-.049l-.021-.242-.011-.118-.003-.039-.011-.121-.053-.584-.031-.353-.011-.122-.008-.087-.05-.55-.005-.068-.066-.737-.004-.045a127.285 127.285 0 01-.02-.217l-.029-.324-.01-.103-.008-.096-.007-.087-.012-.133-.004-.04-.005-.06v-.008l-.007-.065-.005-.058-.002-.023-.005-.063v-.002l-.001-.01-.001-.009V9.18v-.007l-.001-.005v-.003-.003l-.001-.004a3.721 3.721 0 00-3.714-3.484h-.898a3.721 3.721 0 013.713 3.484z" fill="#F79B4A"/>
  <path d="M7.265 11.628H3.34a.27.27 0 01-.27-.27V8.176c0-.148.121-.27.27-.27h3.926c.149 0 .27.122.27.27v3.182a.27.27 0 01-.27.27zM14.648 11.628H9.293a.27.27 0 01-.27-.27V8.176c0-.148.121-.27.27-.27h4.719c.128 0 .239.092.264.218l.636 3.181a.27.27 0 01-.264.323z" fill="#B6E3EE"/>
  <path d="M3.544 16.837h-.95a.27.27 0 01-.269-.27v-.949c0-.148.12-.27.27-.27h.95c.148 0 .269.122.269.27v.95a.27.27 0 01-.27.27z" fill="#FFD151"/>
  <path d="M9.024 21.303a2.977 2.977 0 100-5.954 2.977 2.977 0 000 5.954z" fill="#00BCE7"/>
  <path d="M9.023 15.349c-.152 0-.302.012-.449.034a2.977 2.977 0 010 5.886 2.977 2.977 0 10.45-5.92z" fill="#0094D4"/>
  <path d="M9.024 19.814a1.488 1.488 0 100-2.977 1.488 1.488 0 000 2.977z" fill="#FFD151"/>
  <path d="M9.023 16.837c-.156 0-.307.025-.449.07a1.489 1.489 0 010 2.838 1.488 1.488 0 10.45-2.908z" fill="#F79B4A"/>
  <path d="M14.912 11.306l-.636-3.182a.27.27 0 00-.264-.217H13.1c.128 0 .239.09.264.217L14 11.305a.27.27 0 01-.264.323h.91a.27.27 0 00.265-.322zM7.266 7.907h-.899c.15 0 .27.12.27.27v3.181a.27.27 0 01-.27.27h.899a.27.27 0 00.27-.27V8.176a.27.27 0 00-.27-.27z" fill="#96D2E0"/>
  <g>
    <path d="M13.219 2.697H2.595a.27.27 0 00-.27.27v.95c0 .148.12.269.27.269h10.624a.27.27 0 00.27-.27v-.949a.27.27 0 00-.27-.27z" fill="#FFD151"/>
    <path d="M13.219 2.698h-.899c.15 0 .27.12.27.269v.95a.27.27 0 01-.27.269h.899a.27.27 0 00.27-.27v-.949a.27.27 0 00-.27-.27z" fill="#F79B4A"/>
  </g>
  <g>
    <path d="M22.894 18.326H21.2a.27.27 0 01-.27-.27v-.95c0-.148.121-.269.27-.269h1.694c.149 0 .27.121.27.27v.95a.27.27 0 01-.27.269z" fill="#FFD151"/>
    <path d="M22.894 16.838h-.899c.149 0 .27.12.27.27v.949a.27.27 0 01-.27.27h.899a.27.27 0 00.27-.27v-.95a.27.27 0 00-.27-.27z" fill="#F79B4A"/>
  </g>
  <path d="M7.535 9.023v-.847a.27.27 0 00-.27-.27H3.34a.27.27 0 00-.27.27v.847h4.466z" fill="#58565C"/>
  <path d="M7.266 7.907h-.899c.15 0 .27.12.27.27v.846h.898v-.847a.27.27 0 00-.27-.27z" fill="#49484D"/>
  <path d="M14.456 9.023l-.18-.9a.27.27 0 00-.264-.216H9.293a.27.27 0 00-.27.27v.846h5.433z" fill="#58565C"/>
  <path d="M13.365 8.124l.18.9h.91l-.18-.9a.27.27 0 00-.263-.217H13.1c.128 0 .239.09.264.217z" fill="#49484D"/>
  <g fill="#0C0A0B">
    <path d="M2.733 9.025v2.603c0 .186.15.337.336.337h4.466c.186 0 .337-.151.337-.337V7.907a.337.337 0 00-.337-.337H3.069a.337.337 0 00-.336.337v1.118zm2.906 2.266v-.407a.337.337 0 10-.674 0v.407H3.406V9.36h3.792v1.93h-1.56zm1.559-3.047v.442H3.406v-.442h3.792zM9.023 11.965h5.954a.337.337 0 00.33-.403l-.52-2.605-.001-.003-.223-1.113a.337.337 0 00-.33-.271h-5.21a.337.337 0 00-.336.337v3.72c0 .187.15.338.336.338zm3.314-.674v-.407a.337.337 0 10-.674 0v.407H9.36V9.36h4.82l.386 1.93h-2.229zm1.62-3.047l.088.442H9.36v-.442h4.597zM3.814 15.012H2.325a.337.337 0 00-.337.337v1.488c0 .186.151.337.337.337h1.489c.186 0 .337-.15.337-.337V15.35a.337.337 0 00-.337-.337zM3.477 16.5h-.815v-.814h.815v.814zM9.024 20.15a1.827 1.827 0 001.825-1.824A1.827 1.827 0 009.024 16.5a1.827 1.827 0 00-1.826 1.826c0 1.006.819 1.825 1.826 1.825zm0-2.976a1.153 1.153 0 010 2.303 1.153 1.153 0 01-1.152-1.151c0-.635.517-1.152 1.152-1.152z"/>
    <path d="M23.163 16.5h-.78v-.07h.036a.337.337 0 100-.674h-.744a.337.337 0 100 .674h.035v.07h-.78a.337.337 0 00-.336.337v.408h-2.33l-.273-3.047c-.223-2.483-.447-4.981-.453-5.061a4.063 4.063 0 00-4.05-3.8h-1.151v-.814h1.151c.187 0 .337-.151.337-.337V2.697a.337.337 0 00-.337-.337H5.302a.337.337 0 100 .674h7.85v.815H2.662v-.815h1.294a.337.337 0 100-.674h-1.63a.337.337 0 00-.338.337v1.489c0 .186.151.337.337.337h1.152v.814H1.58C.985 5.337.5 5.822.5 6.418v11.163c0 .597.485 1.082 1.081 1.082h4.146a3.303 3.303 0 00.982 2.031 3.302 3.302 0 004.628 0 .348.348 0 00.055-.054c.51-.522.85-1.212.928-1.977h4.89c.478 0 .885-.313 1.027-.744h2.357v.407c0 .186.15.337.336.337h.78v.407a.337.337 0 10.674 0v-.407h.78c.185 0 .336-.151.336-.337v-1.489a.337.337 0 00-.337-.337zm-21.99-3.047H11.82l.644.966c.062.094.168.15.28.15h4.604l.04.443H12.18l-.644-.966a.337.337 0 00-.28-.15H1.174v-.443zm2.978-8.93h1.186v.035a.337.337 0 10.674 0v-.035H7.57v.035a.337.337 0 10.674 0v-.035h1.559v.035a.337.337 0 10.673 0v-.035h1.187v.814H4.151v-.814zM1.58 6.01h11.907a3.389 3.389 0 013.378 3.168c.003.047.219 2.46.421 4.717h-4.362l-.645-.967a.337.337 0 00-.28-.15H1.174V6.42c0-.225.183-.408.407-.408zm5.354 10.703l.008.008a.336.336 0 10.477-.476l-.009-.009c.363-.28.8-.468 1.275-.529v.013a.337.337 0 10.674 0v-.013c.476.061.913.249 1.275.53l-.008.008a.337.337 0 00.476.476l.009-.008c.28.362.468.799.529 1.275h-.013a.337.337 0 100 .674h.013a2.627 2.627 0 01-.53 1.275l-.008-.009a.337.337 0 00-.476.477l.008.008c-.362.28-.799.468-1.275.53v-.014a.337.337 0 10-.674 0v.013a2.627 2.627 0 01-1.275-.529l.009-.009a.337.337 0 00-.477-.476l-.008.009a2.626 2.626 0 01-.53-1.276h.013a.337.337 0 100-.673h-.013c.062-.476.25-.913.53-1.275zm10.274 1.275H12.32a3.303 3.303 0 00-.983-2.033 3.302 3.302 0 00-4.682.056 3.304 3.304 0 00-.928 1.977H1.58a.408.408 0 01-.407-.408V14.57h9.901l.645.966c.062.094.167.15.28.15h5.448l.166 1.846v.008a.407.407 0 01-.405.449zm5.617 0h-1.559v-.815h1.56v.815z"/>
  </g>
</svg>
