<svg width="24" height="24" fill="none" xmlns="http://www.w3.org/2000/svg">
  <defs/>
  <path d="M9.356 1.216h1.812V5.33H9.356V1.216zM12.62 1.216h1.811V5.33H12.62V1.216z" fill="#EEEBEE"/>
  <path d="M12.62 1.216h.66V5.33h-.66V1.216zM9.356 1.216h.662V5.33h-.662V1.216z" fill="#D3CED5"/>
  <path d="M7.973 4.379h8.036v4H7.973v-4z" fill="#EEEBEE"/>
  <path d="M7.973 4.379h8.036v.952H7.973V4.38z" fill="#D3CED5"/>
  <g fill="#BCD0DF">
    <path d="M9.655 6.48a.574.574 0 100-1.149.574.574 0 000 1.149zM11.99 6.48a.574.574 0 100-1.149.574.574 0 000 1.149zM14.326 6.48a.574.574 0 100-1.149.574.574 0 000 1.149z"/>
  </g>
  <path d="M20.653 11.004a41.422 41.422 0 01-.8 2.607H7.36s-.454-1.022-.64-2.607a11.124 11.124 0 01.155-3.572h10.565l.343-1.44h3.424s.499 1.088-.555 5.012z" fill="#5E6B75"/>
  <path d="M8.949 13.61H7.36s-.454-1.02-.64-2.606a11.124 11.124 0 01.155-3.572h1.587a11.124 11.124 0 00-.154 3.572c.186 1.585.64 2.607.64 2.607z" fill="#4D5961"/>
  <path d="M20.653 11.004a41.496 41.496 0 01-.8 2.607H7.36s-.454-1.022-.64-2.607h13.932z" fill="#DA4A54"/>
  <path d="M6.722 11.004c.185 1.585.64 2.607.64 2.607h1.586s-.454-1.022-.64-2.607H6.723z" fill="#D82E3D"/>
  <path d="M19.332 8.921a.726.726 0 100-1.45.726.726 0 000 1.45z" fill="#4D5961"/>
  <path d="M22.616 16.468l-5.864 4.703c-.482.386-1.1.562-1.714.488l-7.902-.962-2.106.779c-1.13-1.164-.666-4.906-.666-4.906l.502-.138a1.901 1.901 0 011.062-1.831l3.39-1.655 1.742-.851a1.656 1.656 0 011.578 2.909L9.82 16.69l4.74.826c.571.1 1.158-.02 1.644-.336l4.715-3.06a1.45 1.45 0 011.697 2.347z" fill="#F1D0A5"/>
  <path d="M15.025 20.395c-3.246.422-5.484-1.482-6.838-3.273a1.909 1.909 0 01.492-2.759c3.27-2.095 4.115-2.018 4.563-1.57a1.657 1.657 0 00-2.182-.698l-1.743.85-2.747 1.342-.642.314a1.9 1.9 0 00-1.062 1.831l-.502.138s-.465 3.742.666 4.906l2.106-.78 7.902.963a2.295 2.295 0 001.714-.488l5.864-4.703c-2.027-.55-5.404 3.593-7.59 3.927z" fill="#F1B986"/>
  <path d="M3.663 16.099a6.829 6.829 0 00-2.822.997 55.326 55.326 0 002.01 5.688 6.829 6.829 0 002.822-.997 55.336 55.336 0 00-2.01-5.688z" fill="#80A6C6"/>
  <path d="M5.673 21.787a6.822 6.822 0 01-2.822.998 55.865 55.865 0 01-.582-1.461 7.261 7.261 0 002.944-1.03c.16.495.314.993.46 1.493z" fill="#5B8EB8"/>
  <path d="M23.436 14.861a1.79 1.79 0 00-.312-.621 1.801 1.801 0 00-2.39-.406l-4.715 3.06c-.415.27-.913.372-1.4.287l-3.837-.668 2.03-1.218c.51-.305.836-.801.938-1.343h2.403a.34.34 0 000-.682H13.76a2.002 2.002 0 00-.219-.64 1.988 1.988 0 00-2.631-.842L7.876 13.27h-.283a10.152 10.152 0 01-.478-1.925h13.09c-.164.58-.361 1.22-.597 1.925h-2.091a.34.34 0 000 .682h2.335a.341.341 0 00.323-.231c2.05-6.024 1.421-7.7 1.342-7.87a.34.34 0 00-.31-.2h-3.424a.341.341 0 00-.332.263l-.28 1.177h-.82V4.72h.47a.34.34 0 000-.682h-2.049V1.216a.34.34 0 00-.34-.341h-1.813a.341.341 0 00-.34.34v2.823h-.77V1.216a.34.34 0 00-.34-.341H9.355a.34.34 0 00-.34.34v2.823H7.972a.34.34 0 00-.34.34v2.713h-.757a.34.34 0 00-.334.271c-.688 3.278.298 5.884.48 6.325l-.841.411a.34.34 0 10.3.613l4.728-2.31a1.314 1.314 0 011.733.554 1.312 1.312 0 01-.48 1.756l-2.817 1.688a.34.34 0 00.117.628l4.74.826a2.631 2.631 0 001.888-.386l4.715-3.06a1.102 1.102 0 011.48.25 1.11 1.11 0 01-.183 1.545l-5.863 4.703c-.408.327-.94.479-1.46.415l-7.902-.962a.34.34 0 00-.16.019l-1.272.47a56.045 56.045 0 00-1.38-3.922l.592-.164a.34.34 0 00.249-.351 1.56 1.56 0 01.299-1.023.341.341 0 00-.55-.404 2.244 2.244 0 00-.43 1.19l-.416.115a51.139 51.139 0 00-.132-.32.34.34 0 00-.356-.208 7.2 7.2 0 00-2.96 1.046.341.341 0 00-.147.386 55.934 55.934 0 002.022 5.723.34.34 0 00.356.208 7.2 7.2 0 002.961-1.047.341.341 0 00.147-.385l-.056-.19 1.233-.456 7.82.952a2.65 2.65 0 001.969-.56l5.852-4.695a1.792 1.792 0 00.618-1.88zM14.09 1.556V2.1h-1.13v-.543h1.13zm-1.13 1.225h1.13v1.257h-1.13V2.781zm-2.133-1.225V2.1h-1.13v-.543h1.13zm-1.13 1.225h1.13v1.257h-1.13V2.781zM8.314 4.72h7.354V7.09H8.314V4.72zM7.156 7.773H17.44a.34.34 0 00.332-.262l.28-1.177h2.892c.072.44.136 1.673-.554 4.329H7.032a10.761 10.761 0 01.124-2.89zM3.066 22.41a55.292 55.292 0 01-1.823-5.158 6.51 6.51 0 012.206-.779A55.282 55.282 0 015.27 21.63a6.51 6.51 0 01-2.206.78z" fill="#000"/>
  <path d="M11.397 14.914c.139 0 .28-.034.41-.104l.422-.225a.34.34 0 10-.32-.602l-.423.226a.184.184 0 01-.238-.057 2.686 2.686 0 01-.373-.862.34.34 0 00-.67.13c.005.022.112.567.477 1.111a.86.86 0 00.715.383zM3.816 21.503a.344.344 0 00.332-.266c.07-.3-.282-.527-.53-.352a.343.343 0 00-.12.4c.05.13.178.218.318.218zM9.656 4.99a.916.916 0 000 1.83.916.916 0 000-1.83zm0 1.15a.234.234 0 110-.468.234.234 0 010 .467zM11.991 4.99a.916.916 0 000 1.83.916.916 0 000-1.83zm0 1.15a.234.234 0 11.001-.468.234.234 0 010 .467zM14.326 4.99a.916.916 0 000 1.83.916.916 0 000-1.83zm0 1.15a.234.234 0 110-.468.234.234 0 010 .467zM19.332 9.262a1.068 1.068 0 000-2.133 1.068 1.068 0 000 2.133zm0-1.451a.385.385 0 110 .77.385.385 0 010-.77z" fill="#000"/>
</svg>
