<svg width="24" height="24" fill="none" xmlns="http://www.w3.org/2000/svg">
  <defs/>
  <path d="M13.675 16.326a2.009 2.009 0 003.532-1.616 2.493 2.493 0 002.533-4.022 2.493 2.493 0 00-.634-4.356 2.493 2.493 0 00-2.419-3.563 2.009 2.009 0 00-3.26-1.316 2.128 2.128 0 00-1.46-.577c-.565 0-1.078.22-1.46.577a2.008 2.008 0 00-3.26 1.314 2.493 2.493 0 00-2.42 3.563 2.494 2.494 0 00-.633 4.357 2.493 2.493 0 002.533 4.022 2.009 2.009 0 003.399 1.763" fill="#8DE0A8"/>
  <path d="M8.73 15.052c0-.117.01-.231.029-.343a2.493 2.493 0 01-2.533-4.022A2.493 2.493 0 016.86 6.33 2.493 2.493 0 019.28 2.768a2.01 2.01 0 01.978-1.489 2.008 2.008 0 00-3.009 1.488 2.493 2.493 0 00-2.42 3.563 2.493 2.493 0 00-.634 4.357 2.493 2.493 0 002.533 4.022 2.009 2.009 0 002.995 2.075 2.007 2.007 0 01-.993-1.732z" fill="#7BC690"/>
  <path d="M17.494 11.335l-2.798 2.798a3.486 3.486 0 00-1.021 2.465v6.526h-3.416V14.71c0-.612-.243-1.199-.676-1.631l-2.886-2.886 1.035-1.036 2.527 2.527V9.082h3.416v4.002l2.783-2.784" fill="#FCD577"/>
  <path d="M11.335 9.032h-1.063v14.092h1.063V9.032z" fill="#EAC36E"/>
  <path d="M17.704 11.662l.052.002c.415 0 .804-.162 1.097-.455a.376.376 0 10-.532-.532.8.8 0 01-1.13-1.13.376.376 0 00-.532-.533c-.281.281-.431.644-.451 1.012l-.01.008-2.141 2.142V9.192c.481-.393.789-.99.789-1.658a.376.376 0 10-.752 0 1.39 1.39 0 01-2.057 1.217.376.376 0 00-.383.012 1.035 1.035 0 01-1.585-.874.376.376 0 00-.752 0c0 .516.22.982.572 1.308v1.579L8.004 8.89a.384.384 0 00-.022-.02 1.544 1.544 0 00-.443-.922.376.376 0 10-.532.532.8.8 0 01-.767 1.34.376.376 0 00-.188.728 1.544 1.544 0 00.519.043l2.752 2.753c.365.364.566.85.566 1.365v8.414a.376.376 0 00.752 0V14.71c0-.717-.279-1.39-.786-1.897l-2.507-2.508a1.537 1.537 0 00.468-.538L10 11.95a.376.376 0 00.642-.266v-2.07a1.78 1.78 0 001.225-.11 2.146 2.146 0 001.439.085v3.495a.376.376 0 00.642.266l2.464-2.465a1.549 1.549 0 00.487.52l-2.462 2.462c-.73.73-1.131 1.7-1.131 2.731v2.676a.376.376 0 00.752 0v-2.676c0-.83.323-1.612.91-2.2l2.737-2.736zM13.68 20.254a.376.376 0 00-.375.376v2.494a.376.376 0 00.752 0V20.63a.376.376 0 00-.376-.376z" fill="#000"/>
  <path d="M9.142 16.627a1.633 1.633 0 01-2.038-1.854.376.376 0 00-.466-.428 2.119 2.119 0 01-2.652-2.048c0-.5.178-.985.501-1.367a.376.376 0 00-.064-.546c-.42-.31-.71-.759-.818-1.265a.376.376 0 10-.736.156c.12.564.406 1.075.82 1.472a2.87 2.87 0 00-.456 1.55 2.872 2.872 0 003.096 2.86 2.388 2.388 0 003.01 2.196.376.376 0 00-.197-.726zM3.188 8.26a.378.378 0 00.475-.24A2.131 2.131 0 014.96 6.685a.376.376 0 00.212-.517 2.119 2.119 0 012.055-3.025c.2.014.375-.131.399-.33a1.632 1.632 0 012.649-1.068.376.376 0 00.494-.017 1.753 1.753 0 012.404 0 .376.376 0 00.495.017 1.632 1.632 0 012.649 1.068c.024.198.2.344.4.33a2.11 2.11 0 01.843.112.376.376 0 00.247-.71A2.858 2.858 0 0017 2.388 2.387 2.387 0 0013.45.981 2.5 2.5 0 0011.973.5a2.5 2.5 0 00-1.478.48 2.387 2.387 0 00-3.55 1.408A2.873 2.873 0 004.35 6.133a2.892 2.892 0 00-1.404 1.653.376.376 0 00.241.475zM21.139 8.678a2.878 2.878 0 00-1.545-2.546c.09-.282.137-.576.137-.878 0-.757-.292-1.471-.823-2.01a.376.376 0 00-.537.527c.392.398.607.925.607 1.483 0 .32-.07.628-.207.914a.376.376 0 00.213.517 2.122 2.122 0 011.402 1.993c0 .67-.323 1.308-.864 1.706a.376.376 0 00-.064.546 2.117 2.117 0 01-2.151 3.415.376.376 0 00-.466.428 1.634 1.634 0 01-2.062 1.847.376.376 0 10-.208.723 2.386 2.386 0 003.044-2.186 2.872 2.872 0 003.096-2.86c0-.552-.16-1.09-.455-1.55a2.881 2.881 0 00.883-2.07zM11.424 16.837a.376.376 0 00-.376.376v1.705a.376.376 0 10.752 0v-1.705a.376.376 0 00-.376-.377z" fill="#000"/>
</svg>
