<svg width="24" height="24" fill="none" xmlns="http://www.w3.org/2000/svg">
  <defs/>
  <g fill="#727575">
    <path d="M12.289 2.325h-4.67a.27.27 0 01-.27-.27v-.949c0-.148.12-.27.27-.27h4.67c.148 0 .269.122.269.27v.95a.27.27 0 01-.27.27zM19.359 4.558h-4.67a.27.27 0 01-.27-.27V3.34c0-.149.12-.27.27-.27h4.67c.149 0 .27.121.27.27v.95a.27.27 0 01-.27.27zM9.209 5.396h1.488v2.789H9.21V5.396z"/>
  </g>
  <path d="M11.814 4.186a1.86 1.86 0 11-3.721 0 1.86 1.86 0 013.72 0z" fill="#FABE2C"/>
  <path d="M9.954 2.325c-.171 0-.337.024-.494.067a1.861 1.861 0 010 3.588 1.86 1.86 0 10.494-3.654z" fill="#FF9F00"/>
  <path d="M10.697 4.186a.744.744 0 11-1.488 0 .744.744 0 011.488 0z" fill="#727575"/>
  <path d="M10.428 18.698h-.95a.27.27 0 01-.269-.27v-1.693c0-.15.12-.27.27-.27h.949c.149 0 .27.12.27.27v1.694a.27.27 0 01-.27.27z" fill="#898989"/>
  <path d="M10.429 16.465h-.95l-.019.001c.14.01.25.127.25.269v1.694a.27.27 0 01-.25.268l.02.001h.949a.27.27 0 00.27-.27v-1.693a.27.27 0 00-.27-.27z" fill="#727575"/>
  <path d="M6.36 18.652l-.933-.169a.27.27 0 01-.218-.313l.301-1.667a.27.27 0 01.314-.217l.934.169a.27.27 0 01.217.313l-.3 1.667a.27.27 0 01-.314.217z" fill="#898989"/>
  <path d="M6.758 16.455l-.935-.169a.27.27 0 00-.28.128l.228.04a.27.27 0 01.218.314l-.302 1.667a.267.267 0 01-.033.09l.707.127a.27.27 0 00.313-.217l.3-1.667a.27.27 0 00-.216-.313z" fill="#727575"/>
  <path d="M13.546 18.652l.934-.169a.27.27 0 00.218-.313l-.301-1.667a.27.27 0 00-.313-.217l-.935.169a.27.27 0 00-.217.313l.301 1.667a.27.27 0 00.313.217z" fill="#898989"/>
  <path d="M14.698 18.17l-.301-1.667a.27.27 0 00-.314-.217l-.707.128a.266.266 0 01.034.09l.301 1.666a.27.27 0 01-.217.313l-.227.041a.27.27 0 00.28.128l.933-.169a.27.27 0 00.218-.313z" fill="#727575"/>
  <path d="M10.428 10.512h-.95a.27.27 0 01-.269-.27V8.541h1.488v1.701a.27.27 0 01-.27.27zM7.823 10.512h-.949a.27.27 0 01-.27-.27V8.541h1.489v1.701a.27.27 0 01-.27.27zM13.033 10.512h-.949a.27.27 0 01-.27-.27V8.541h1.489v1.701a.27.27 0 01-.27.27z" fill="#898989"/>
  <path d="M12.315 8.541v1.701a.27.27 0 01-.25.269h.969a.27.27 0 00.269-.269V8.541h-.989zM9.71 8.541v1.701a.27.27 0 01-.25.269h.969a.27.27 0 00.27-.269V8.541H9.71zM7.105 8.541v1.701a.27.27 0 01-.25.269h.969a.27.27 0 00.269-.269V8.541h-.988z" fill="#727575"/>
  <path d="M13.405 9.023H6.502a.27.27 0 01-.27-.27v-.949c0-.148.121-.27.27-.27h6.903c.149 0 .27.122.27.27v.95a.27.27 0 01-.27.27z" fill="#FABE2C"/>
  <path d="M13.405 7.535h-.988c.149 0 .27.12.27.27v.949a.27.27 0 01-.27.27h.988a.27.27 0 00.27-.27v-.95a.27.27 0 00-.27-.27z" fill="#FF9F00"/>
  <path d="M19.358 3.07h-.988c.149 0 .27.12.27.269v.95a.27.27 0 01-.27.27h.988a.27.27 0 00.27-.27v-.95a.27.27 0 00-.27-.27zM12.29.837h-.99c.15 0 .27.12.27.27v.949a.27.27 0 01-.27.27h.99a.27.27 0 00.269-.27v-.95a.27.27 0 00-.27-.27z" fill="#5E6161"/>
  <path d="M10.752 23.163H9.155a.27.27 0 01-.266-.314l.283-1.693a.27.27 0 01.266-.226h1.031a.27.27 0 01.266.226l.283 1.693a.27.27 0 01-.266.314zM6.287 23.163H4.69a.27.27 0 01-.266-.314l.282-1.693a.27.27 0 01.266-.226h1.031a.27.27 0 01.266.226l.283 1.693a.27.27 0 01-.266.314zM13.621 23.163h1.596a.27.27 0 00.266-.314l-.282-1.693a.27.27 0 00-.266-.226h-1.032a.27.27 0 00-.265.226l-.283 1.693a.27.27 0 00.266.314z" fill="#898989"/>
  <path d="M15.483 22.85l-.283-1.694a.27.27 0 00-.265-.226h-.989a.27.27 0 01.266.226l.283 1.693a.27.27 0 01-.266.314h.988a.27.27 0 00.266-.314zM11.018 22.85l-.282-1.694a.27.27 0 00-.266-.226H9.48a.27.27 0 01.266.226l.283 1.693a.27.27 0 01-.266.314h.988a.27.27 0 00.266-.314zM6.552 22.85l-.282-1.694a.27.27 0 00-.266-.226h-.988a.27.27 0 01.265.226l.283 1.693a.27.27 0 01-.266.314h.988a.27.27 0 00.266-.314z" fill="#727575"/>
  <path d="M19.628 2.733h-5.21a.337.337 0 00-.336.337v.407h-2.049a2.2 2.2 0 00-.498-.815h1.023c.186 0 .337-.15.337-.337V.837A.337.337 0 0012.558.5h-5.21a.337.337 0 00-.336.337v1.488c0 .186.15.337.337.337h1.023a2.19 2.19 0 00-.616 1.524c0 .819.45 1.534 1.117 1.912v1.1h-.536a.337.337 0 000 .674h5v.814H6.57v-.814h.42a.337.337 0 100-.674h-.757a.337.337 0 00-.337.337v1.488c0 .186.15.337.337.337h.035v1.152c0 .186.15.337.337.337h.34l-.926 5.13-.4-.072a.336.336 0 00-.392.271l-.397 2.198a.337.337 0 00.272.391l.4.073-.316 1.754h-.442a.337.337 0 00-.332.281l-.372 2.233a.337.337 0 00.332.392h2.233a.336.336 0 00.332-.392l-.372-2.233a.337.337 0 00-.332-.281H5.87l.295-1.635.4.073a.337.337 0 00.391-.272l.398-2.197a.337.337 0 00-.272-.392l-.4-.072.948-5.25h.462c.186 0 .337-.151.337-.337V9.36h.443v1.152c0 .186.15.337.336.337h.408v5.28h-.408a.337.337 0 00-.336.336v2.233c0 .186.15.337.336.337h.408v1.559h-.408a.337.337 0 00-.332.281l-.372 2.233a.337.337 0 00.332.392h2.233a.337.337 0 00.332-.392l-.372-2.233a.337.337 0 00-.332-.281h-.407v-1.56h.407c.186 0 .337-.15.337-.336v-2.233a.337.337 0 00-.337-.337h-.407v-5.28h.407c.186 0 .337-.15.337-.336V9.36h.442v1.152c0 .186.151.337.337.337h.463l.948 5.25-.4.072a.337.337 0 00-.272.392l.396 2.197a.337.337 0 00.392.271l.4-.072.296 1.635h-.362a.337.337 0 00-.333.281l-.372 2.233a.337.337 0 00.333.392h2.232a.336.336 0 00.333-.392l-.373-2.233a.337.337 0 00-.332-.281h-.441l-.317-1.755.4-.072a.338.338 0 00.272-.391l-.396-2.198a.337.337 0 00-.392-.271l-.4.072-.927-5.13h.34c.187 0 .338-.151.338-.337V9.36h.035c.186 0 .336-.15.336-.337V7.535a.337.337 0 00-.336-.337h-2.64v-1.1a2.199 2.199 0 001.116-1.912V4.15h1.93v.407c0 .186.152.337.338.337h5.21c.185 0 .336-.15.336-.337V3.07a.337.337 0 00-.337-.337zM7.686 1.173h4.536v.815H7.686v-.814zm-1.48 21.653H4.77l.26-1.559h.424l.014.001H5.947l.26 1.558zm.149-4.518l-.802-.144.277-1.534.802.145-.277 1.534zm4.317 4.518H9.235l.26-1.559h.917l.26 1.56zm-.311-4.465h-.405H9.546v-1.559h.815v1.559zm4.777 4.465H13.7l.26-1.559h.466l.014.001h.438l.26 1.558zm-.784-4.662l-.801.144-.277-1.534.4-.072.401-.072.277 1.534zm-6.598-7.99h-.814V9.36h.814v.815zm2.605 0h-.815V9.36h.815v.815zm2.605 0h-.815V9.36h.815v.815zM10.36 7.199h-.815v-.853a2.21 2.21 0 00.815 0v.853zM9.954 5.71c-.84 0-1.524-.684-1.524-1.524s.683-1.524 1.524-1.524c.84 0 1.523.684 1.523 1.524S10.794 5.71 9.954 5.71zm4.802-2.304h.814v.815h-.814v-.815zm4.535.815h-3.047v-.815h3.047v.815z" fill="#000"/>
  <path d="M9.953 3.105c-.596 0-1.08.485-1.08 1.08 0 .597.484 1.082 1.08 1.082.596 0 1.081-.485 1.081-1.081s-.485-1.081-1.08-1.081zm0 1.488a.408.408 0 11.001-.815.408.408 0 010 .815z" fill="#000"/>
</svg>
