<svg width="24" height="24" fill="none" xmlns="http://www.w3.org/2000/svg">
  <defs/>
  <path d="M2.15 15.34H1.5a.662.662 0 110-1.324h.661l-.011 1.325z" fill="#FEE25C"/>
  <path d="M6.312 9.623l-2.074 2.304H3.61c-.992 0-1.797.804-1.797 1.797v1.746c0 .308.25.557.557.557H8.57a.539.539 0 00.539-.54V9.434H6.739a.573.573 0 00-.427.19z" fill="#56449B"/>
  <path d="M8.1 11.49V9.433H6.739a.574.574 0 00-.427.19l-2.074 2.304h3.425a.437.437 0 00.437-.437z" fill="#DAF4F8"/>
  <path d="M7.572 9.433v1.563a.437.437 0 01-.437.437H4.683l-.445.494h3.425a.437.437 0 00.437-.437V9.433h-.528z" fill="#A5E4EF"/>
  <path d="M22.624 15.847H9.648a.54.54 0 01-.539-.539v-9.07a.54.54 0 01.54-.538h12.975a.54.54 0 01.539.539v9.069a.54.54 0 01-.54.54z" fill="#8479BF"/>
  <path d="M8.105 9.433v5.05a.539.539 0 01-.538.54H1.813v.447c0 .308.25.557.557.557H8.57a.539.539 0 00.539-.54V9.434H8.105z" fill="#473984"/>
  <path d="M22.624 5.7h-.466v8.604a.539.539 0 01-.538.539H9.11v.465c0 .298.24.54.538.54h12.976a.539.539 0 00.539-.54v-9.07a.539.539 0 00-.539-.538z" fill="#7060B4"/>
  <path d="M5.596 18.3a1.766 1.766 0 100-3.533 1.766 1.766 0 000 3.533zM19.305 18.3a1.766 1.766 0 100-3.533 1.766 1.766 0 000 3.533z" fill="#C8C2C9"/>
  <path d="M6.458 14.992a1.766 1.766 0 01-2.403 2.403 1.765 1.765 0 102.403-2.403z" fill="#B1ACB6"/>
  <path d="M5.596 17.064a.53.53 0 100-1.06.53.53 0 000 1.06zM19.305 17.064a.53.53 0 100-1.06.53.53 0 000 1.06z" fill="#000"/>
  <path d="M20.167 14.992a1.766 1.766 0 01-2.403 2.403 1.765 1.765 0 102.403-2.403z" fill="#B1ACB6"/>
  <path d="M18.258 13.25c-1.072 1.073-3.076 1.338-4.148.266-1.073-1.072-.807-3.076.265-4.149 1.072-1.072 2.493-.755 3.566.318 1.072 1.072 1.39 2.493.317 3.566z" fill="#FC8186"/>
  <path d="M17.419 7.795c.481.685.379 1.625.32 1.972a.14.14 0 01-.164.114c-.346-.061-1.265-.284-1.746-.97-.482-.685-.38-1.625-.32-1.971a.14.14 0 01.163-.115c.346.062 1.265.284 1.747.97z" fill="#4ACB8C"/>
  <path d="M23.163 7.49c.186 0 .337-.15.337-.336v-.915a.877.877 0 00-.876-.876H9.65a.877.877 0 00-.876.876v2.857H6.738a.912.912 0 00-.676.301L4.088 11.59H3.61c-1.162 0-2.109.934-2.132 2.09a1 1 0 00.021 1.998h.003a.894.894 0 00.868.685H3.5a2.105 2.105 0 002.096 2.273 2.105 2.105 0 002.096-2.273h.879c.258 0 .49-.113.65-.291a.87.87 0 00.428.112h7.583a2.105 2.105 0 002.074 2.453 2.105 2.105 0 002.073-2.453h1.245a.877.877 0 00.876-.876V8.704a.337.337 0 00-.674 0v6.604c0 .112-.09.202-.201.202h-1.483a2.104 2.104 0 00-1.836-1.08c-.789 0-1.477.437-1.837 1.08H9.65a.202.202 0 01-.203-.202v-9.07c0-.11.091-.201.203-.201h12.975c.112 0 .203.09.203.202v.915c0 .186.15.336.336.336zm-21.99 7.188c0-.171.135-.312.304-.324v.649a.326.326 0 01-.303-.325zm18.133.426c.788 0 1.43.642 1.43 1.43 0 .788-.642 1.43-1.43 1.43-.789 0-1.43-.642-1.43-1.43 0-.788.641-1.43 1.43-1.43zM6.738 9.77h1.025v1.72a.1.1 0 01-.1.1H4.994l1.569-1.742a.237.237 0 01.175-.078zm2.035 5.718c0 .111-.09.202-.202.202H7.522a2.103 2.103 0 00-.57-.764.337.337 0 10-.434.515 1.431 1.431 0 01-.922 2.523c-.788 0-1.43-.642-1.43-1.43 0-.675.48-1.263 1.138-1.4a.337.337 0 10-.136-.66c-.68.141-1.228.608-1.496 1.216H2.37a.22.22 0 01-.22-.22v-1.746c0-.805.655-1.46 1.46-1.46h4.052a.775.775 0 00.774-.774V9.77h.337v5.718z" fill="#000"/>
  <path d="M14.347 13.278c-.27-.27-.45-.617-.534-1.031a.337.337 0 00-.66.134c.11.538.358 1.013.718 1.373.544.544 1.274.783 2.02.783.964 0 1.954-.398 2.605-1.048.582-.583.839-1.297.741-2.064-.076-.597-.361-1.19-.83-1.732a.336.336 0 00-.28-.565c-.004-.467-.094-1.044-.433-1.527-.55-.782-1.556-1.035-1.963-1.107a.474.474 0 00-.554.389c-.052.3-.122.943.067 1.574-.404.115-.775.34-1.108.672-.413.413-.723.95-.898 1.553a.337.337 0 10.647.188c.141-.488.4-.937.728-1.265.278-.278.587-.454.922-.526.006.009.011.018.018.026.403.575 1.053.864 1.53 1.005a.336.336 0 00.555.353l.292-.292c.68.813 1.013 1.918.09 2.841-.911.91-2.713 1.225-3.673.266zm1.757-4.56c-.339-.482-.33-1.149-.291-1.518.36.088.991.306 1.33.788.338.483.33 1.15.29 1.52-.36-.09-.99-.308-1.33-.79z" fill="#000"/>
</svg>
