<svg width="24" height="24" fill="none" xmlns="http://www.w3.org/2000/svg">
  <defs/>
  <path d="M14.045 14.143H1.842v3.545h12.203v-3.545z" fill="#314A5F"/>
  <path d="M15.675 17.688h-1.63V5.485h4.251a4.166 4.166 0 014.167 4.166v8.037H20.46" fill="#FF6F52"/>
  <g fill="gray">
    <path d="M6.03 20.08a2.393 2.393 0 100-4.785 2.393 2.393 0 000 4.786zM18.068 20.081a2.393 2.393 0 100-4.785 2.393 2.393 0 000 4.785z"/>
  </g>
  <path d="M20.669 11.496V9.65a2.374 2.374 0 00-2.372-2.37H15.84v4.216h4.829z" fill="#CFDCE5"/>
  <g fill="#E6E6E6">
    <path d="M6.03 18.643a.955.955 0 100-1.91.955.955 0 000 1.91zM18.069 18.644a.955.955 0 100-1.911.955.955 0 000 1.91z"/>
  </g>
  <path d="M12.899 5.929l-2.37-.945-5.734-1.065-2.551.031-1.299 6.99 2.37.946L9.05 12.95l2.552-.03 1.298-6.991z" fill="#FCD577"/>
  <path d="M11.946 10.93l-2.551.03-5.733-1.064-2.349-.936-.368 1.98 2.37.946L9.05 12.95l2.552-.032.345-1.99z" fill="#EAC36E"/>
  <path d="M18.27 6.9h-2.457c-.209 0-.378.17-.378.38v2.37a.379.379 0 10.757 0V7.658h2.078c1.1 0 1.993.894 1.993 1.993v1.467h-4.071v-.205a.379.379 0 00-.757 0v.584c0 .209.17.378.378.378h4.829c.209 0 .378-.17.378-.378V9.65a2.753 2.753 0 00-2.75-2.75zM6.003 14.916c-1.4 0-2.56 1.044-2.745 2.393H2.194v-.313h.379a.379.379 0 100-.758h-.379v-1.716h9.352a.379.379 0 000-.757h-9.73c-.21 0-.379.17-.379.378v2.095H.879a.378.378 0 100 .758h.558v.692c0 .21.17.379.379.379h1.442a2.775 2.775 0 002.745 2.392 2.775 2.775 0 002.771-2.771 2.775 2.775 0 00-2.771-2.771zm0 4.786a2.016 2.016 0 01-2.014-2.014c0-1.11.903-2.014 2.014-2.014 1.11 0 2.014.903 2.014 2.014 0 1.11-.903 2.014-2.014 2.014z" fill="#000"/>
  <path d="M6.003 16.354c-.736 0-1.334.598-1.334 1.334 0 .736.598 1.334 1.334 1.334.736 0 1.334-.598 1.334-1.334 0-.736-.598-1.334-1.334-1.334zm0 1.91a.577.577 0 11.001-1.154.577.577 0 010 1.155zM18.042 16.354c-.736 0-1.334.598-1.334 1.334 0 .736.599 1.334 1.334 1.334.736 0 1.334-.598 1.334-1.334 0-.736-.598-1.334-1.334-1.334zm0 1.91a.578.578 0 11.002-1.154.578.578 0 01-.002 1.155zM20.642 13.242c-.209 0-.378.17-.378.378v1.137a.379.379 0 10.757 0V13.62c0-.209-.17-.378-.379-.378z" fill="#000"/>
  <path d="M23.121 16.238h-.306V9.65a4.55 4.55 0 00-4.545-4.544H14.02c-.21 0-.379.17-.379.379v8.28h-.832a.379.379 0 100 .757h.832v2.787H9.68a.379.379 0 100 .758h5.617a2.775 2.775 0 002.745 2.392c1.4 0 2.56-1.043 2.745-2.392h1.65c.209 0 .378-.17.378-.38v-.692h.306a.379.379 0 100-.757zm-5.08 3.464a2.016 2.016 0 01-2.014-2.013v-.001c0-1.111.904-2.014 2.015-2.014 1.11 0 2.014.903 2.014 2.014 0 1.11-.904 2.014-2.014 2.014zm4.017-2.393h-1.271a2.775 2.775 0 00-2.745-2.393c-1.4 0-2.56 1.044-2.745 2.393h-.9V5.863h3.873a3.792 3.792 0 013.788 3.788v6.587h-.631a.379.379 0 100 .758h.631v.313z" fill="#000"/>
  <path d="M.779 11.293l2.37.945c.023.009.047.016.071.02l5.733 1.065a.382.382 0 00.07.006h.004l2.552-.03a.379.379 0 00.367-.31l1.299-6.99a.379.379 0 00-.233-.422l-2.37-.945a.38.38 0 00-.071-.02L4.838 3.547a.363.363 0 00-.074-.006l-2.552.03a.379.379 0 00-.367.31l-1.299 6.99a.379.379 0 00.233.421zm1.753-6.968l1.78-.022-.255 1.375a.379.379 0 00.744.139l.27-1.456 4.99.926-1.004 5.402a.379.379 0 10.745.138l.988-5.32 1.653.658-1.185 6.38-1.78.021.093-.498a.379.379 0 10-.744-.138l-.108.579-4.988-.926.84-4.525a.379.379 0 10-.745-.139l-.825 4.444-1.653-.659 1.184-6.379z" fill="#000"/>
</svg>
