<svg width="24" height="24" fill="none" xmlns="http://www.w3.org/2000/svg">
  <defs/>
  <path d="M14.024 15.857H1.82v3.545h12.204v-3.545z" fill="#314A5F"/>
  <path d="M15.655 19.402h-1.63V7.199h4.25a4.166 4.166 0 014.167 4.165v8.038H20.44" fill="#FF6F52"/>
  <g fill="gray">
    <path d="M6.008 21.795a2.393 2.393 0 100-4.786 2.393 2.393 0 000 4.786zM18.047 21.795a2.393 2.393 0 100-4.785 2.393 2.393 0 000 4.785z"/>
  </g>
  <path d="M20.647 13.21v-1.846a2.374 2.374 0 00-2.372-2.37h-2.457v4.216h4.83z" fill="#CFDCE5"/>
  <g fill="#E6E6E6">
    <path d="M6.008 20.358a.955.955 0 100-1.911.955.955 0 000 1.91zM18.047 20.357a.956.956 0 100-1.91.956.956 0 000 1.91z"/>
  </g>
  <path d="M11.279 15.857H1.82V2.177h12.204v13.68H12.54" fill="#FCD577"/>
  <path d="M18.27 8.63h-2.457c-.209 0-.378.169-.378.378v2.37a.379.379 0 10.757 0V9.388h2.078c1.1 0 1.993.893 1.993 1.992v1.468h-4.071v-.206a.379.379 0 00-.757 0v.584c0 .21.17.379.378.379h4.829c.209 0 .379-.17.379-.379V11.38a2.753 2.753 0 00-2.751-2.75zM6.003 20.75c.736 0 1.334-.598 1.334-1.334 0-.735-.598-1.334-1.334-1.334-.736 0-1.334.599-1.334 1.334 0 .736.598 1.335 1.334 1.335zm0-1.91a.577.577 0 11-.001 1.155.577.577 0 01.001-1.155zM18.042 18.082c-.736 0-1.334.599-1.334 1.334 0 .736.599 1.335 1.334 1.335a1.336 1.336 0 000-2.668zm0 1.911a.577.577 0 11.001-1.155.577.577 0 010 1.155zM20.642 14.97c-.209 0-.378.17-.378.379v1.136a.379.379 0 10.757 0V15.35c0-.21-.17-.379-.379-.379z" fill="#000"/>
  <path d="M23.121 17.967h-.306v-6.588a4.55 4.55 0 00-4.545-4.544h-3.872V2.19c0-.21-.17-.379-.38-.379H1.817c-.21 0-.379.17-.379.379v15.776H.879a.379.379 0 100 .757h.558v.692c0 .21.17.38.379.38h1.442a2.775 2.775 0 002.745 2.392 2.775 2.775 0 002.772-2.772 2.775 2.775 0 00-2.772-2.771c-1.4 0-2.56 1.043-2.745 2.393H2.194v-.314h.379a.379.379 0 000-.757h-.379V16.25h9.08a.379.379 0 100-.757h-9.08V2.569H13.64v12.924h-1.104a.379.379 0 000 .757h1.104v2.788H9.68a.379.379 0 100 .757h5.617a2.775 2.775 0 002.745 2.393c1.4 0 2.56-1.043 2.745-2.393h1.65c.209 0 .378-.17.378-.379v-.692h.306a.379.379 0 000-.757zm-17.118-.565c1.11 0 2.014.904 2.014 2.014 0 1.111-.903 2.015-2.014 2.015a2.016 2.016 0 01-2.014-2.015c0-1.11.903-2.014 2.014-2.014zm12.039 4.029a2.017 2.017 0 01-2.014-2.014v-.001c0-1.11.903-2.014 2.014-2.014 1.11 0 2.014.904 2.014 2.014 0 1.111-.904 2.015-2.014 2.015zm4.016-2.393h-1.271a2.775 2.775 0 00-2.745-2.393c-1.4 0-2.56 1.043-2.745 2.393h-.9V7.592h3.873a3.792 3.792 0 013.788 3.787v6.588h-.631a.379.379 0 000 .757h.631v.314z" fill="#000"/>
  <path d="M5.202 11.35c-.209 0-.378.169-.378.378v1.393c0 .209.17.378.378.378h5.43c.21 0 .38-.17.38-.379V8.572l.477.478a.377.377 0 00.536 0 .379.379 0 000-.535L10.73 7.22V5.183c0-.21-.17-.379-.379-.379H9.09c-.209 0-.379.17-.379.379V5.2l-.526-.526a.379.379 0 00-.535 0l-3.84 3.84a.379.379 0 10.536.535l.478-.478v1.902a.379.379 0 10.757 0v-2.66l2.337-2.335 2.336 2.336v4.928H5.58v-1.014c0-.21-.17-.379-.379-.379zM9.47 5.56h.505v.902l-.505-.505V5.56z" fill="#000"/>
  <path d="M8.954 11.98c.21 0 .379-.17.379-.379V9.047c0-.209-.17-.379-.379-.379H6.881c-.21 0-.38.17-.38.38V11.6c0 .21.17.38.38.38h2.073zM7.26 9.426h1.316v1.797H7.26V9.426z" fill="#000"/>
</svg>
