<svg width="24" height="24" fill="none" xmlns="http://www.w3.org/2000/svg">
  <defs/>
  <path d="M8.626 5.233H7.088v3.265h1.538V5.233z" fill="#D6D6D6"/>
  <path d="M9.69 11.024H6.023V8.968c0-.577.468-1.045 1.045-1.045h1.577c.577 0 1.045.468 1.045 1.045v2.056z" fill="#345863"/>
  <path d="M10.264 23.163H5.45a.845.845 0 01-.845-.845V10.319c0-.467.378-.845.845-.845h4.816c.466 0 .845.378.845.845v11.999a.845.845 0 01-.845.845z" fill="#F43B45"/>
  <path d="M10.264 9.474H8.781v13.689h1.483a.845.845 0 00.846-.845V10.319a.845.845 0 00-.846-.845z" fill="#D82B2B"/>
  <g>
    <path d="M20.304 1.044c-.586.76-1.676 1.424-2.837 1.965a16.877 16.877 0 01-7.123 1.555h-6.72v1.852h6.72c2.459 0 4.894.518 7.123 1.555 1.161.54 2.25 1.204 2.837 1.964a.519.519 0 00.933-.311V1.355a.519.519 0 00-.933-.31z" fill="#FF9C43"/>
    <path d="M6.784 6.747H4.857V4.233h1.927c.168 0 .305.136.305.305V6.44a.305.305 0 01-.305.306z" fill="#EF8229"/>
    <path d="M4.834 8.14h-1.46a.611.611 0 01-.611-.61V3.45c0-.337.273-.61.61-.61h1.461c.338 0 .611.273.611.61v4.08a.611.611 0 01-.611.61z" fill="#FF9C43"/>
  </g>
  <path d="M11.11 14.662H7.358a.426.426 0 00-.426.425v3.602c0 .235.19.426.426.426h3.754v-4.453z" fill="#FFE471"/>
  <path d="M11.11 14.662H8.782v4.453h2.328v-4.453z" fill="#F2CA20"/>
  <g fill="#000">
    <path d="M6.594 15.087v3.602c0 .42.342.763.763.763h2.401a.337.337 0 100-.674H7.357a.09.09 0 01-.09-.09v-3.6c0-.05.04-.09.09-.09h2.401a.337.337 0 100-.673H7.357a.764.764 0 00-.763.762z"/>
    <path d="M20.72.5a.857.857 0 00-.682.339c-.482.623-1.394 1.25-2.712 1.864a16.649 16.649 0 01-6.981 1.524h-3a.643.643 0 00-.561-.331H5.782V3.45a.95.95 0 00-.948-.948h-1.46a.95.95 0 00-.948.948v4.08a.95.95 0 00.948.947h1.46a.95.95 0 00.948-.948v-.445h.97v.54a1.384 1.384 0 00-1.065 1.344v.169H5.45c-.652 0-1.182.53-1.182 1.182v11.999c0 .652.53 1.182 1.182 1.182h4.816c.652 0 1.182-.53 1.182-1.182V10.319c0-.652-.53-1.182-1.182-1.182h-.238v-.17c0-.652-.455-1.2-1.064-1.344v-.87h1.382c2.425 0 4.839.527 6.98 1.523 1.319.614 2.231 1.241 2.713 1.865a.857.857 0 001.537-.517V1.355A.856.856 0 0020.719.5zM5.107 7.53a.274.274 0 01-.274.273h-1.46A.274.274 0 013.1 7.53V3.45c0-.151.123-.274.274-.274h1.46c.151 0 .274.123.274.274v4.08zm.674-2.96h.97v1.839h-.97V4.57zm4.991 5.75v11.998c0 .28-.228.508-.508.508H5.449a.509.509 0 01-.508-.508V10.319c0-.28.228-.508.508-.508h4.816c.28 0 .508.228.508.508zm-1.42-1.352v.169H6.361v-.17c0-.39.317-.707.707-.707h1.578c.39 0 .707.318.707.708zM8.29 7.587h-.864v-.834h.864v.834zm12.612 2.037c0 .1-.081.182-.182.182a.188.188 0 01-.148-.077c-.548-.71-1.544-1.404-2.961-2.064a17.327 17.327 0 00-7.265-1.586h-2.92V4.9h2.92c2.522 0 5.034-.549 7.265-1.587 1.417-.66 2.413-1.354 2.961-2.064a.188.188 0 01.148-.076c.1 0 .182.081.182.181v8.269z"/>
  </g>
</svg>
