<svg width="24" height="24" fill="none" xmlns="http://www.w3.org/2000/svg">
  <defs/>
  <g fill-rule="evenodd" clip-rule="evenodd">
    <path d="M5.29 8.35c-.43 0-.78.352-.78.78V11.559l.884.66.677-.635V9.13a.783.783 0 00-.78-.78z" fill="#ECECEC"/>
    <path d="M6.07 9.13a.783.783 0 00-1.123-.7.78.78 0 01.48.72v2.408h.204c.15 0 .297.01.44.026V9.13z" fill="#CECECE"/>
    <path d="M14.074 13.113c-.507 0-1.022-.047-1.022-.87v-2.63a.795.795 0 00-.792-.793h-.791v6.345l2.005 1.239 2.007-1.24v-1.026c0-.564-.46-1.025-1.025-1.025h-.382z" fill="#ECECEC"/>
    <path d="M15.481 14.138c0-.564-.46-1.025-1.025-1.025h-.382c-.063 0-.129-.002-.192-.004.476.089.838.508.838 1.009v1.045c.255.002.508.002.761.002v-1.027z" fill="#CECECE"/>
    <path d="M17.14 17.71a2.578 2.578 0 105.155 0l-2.49-.945-2.664.946z" fill="#838383"/>
    <path d="M18.43 17.71a1.289 1.289 0 102.577 0l-1.289-.528-1.288.529z" fill="#ECECEC"/>
    <path d="M18.592 5.833l-.917-.586-.793.586c.495 1.29.857 2.69.974 4.145l1.273.834 1.047-.834a11.971 11.971 0 00-1.584-4.145z" fill="#A6E7F0"/>
    <path d="M23.038 16.409a3.567 3.567 0 00-3.07-2.254c-.455 1.412-1.358 2.664-2.827 3.556H22.608c.674 0 .62-.815.43-1.302z" fill="#FFD659"/>
    <path d="M3.256 3.712c-1.33 0-2.42 1.089-2.42 2.42v5.426l1.073 1.116 1.046-1.116V7.222c0-.764.625-1.39 1.389-1.39H20.044c1.86 0 1.639-2.12 0-2.12H3.256z" fill="#838383"/>
    <path d="M4.51 11.559H.838v5.377c0 .426.348.775.774.775h15.53c1.47-.892 2.372-2.144 2.827-3.556.421-1.309.458-2.754.209-4.177h-2.32c.053.646.057 1.303.004 1.967a11.501 11.501 0 01-.39 2.19c-.313 1.105-.94 1.03-1.99 1.03-1.337 0-2.676-.01-4.012.005-.931.01-1.532-.02-2.002-.9-.685-1.278-1.784-2.497-3.396-2.686a3.797 3.797 0 00-.44-.025h-1.12z" fill="#FE636E"/>
    <path d="M20.177 9.978a11.971 11.971 0 00-1.584-4.145h-1.106a12.023 12.023 0 011.585 4.145h1.105z" fill="#6BD9E7"/>
    <path d="M20.176 9.978h-1.105c.046.265.083.53.108.795.114 1.16.026 2.317-.317 3.382-.456 1.412-1.357 2.664-2.827 3.556h1.105c1.47-.892 2.373-2.144 2.828-3.556.421-1.309.458-2.754.208-4.177z" fill="#FB2A39"/>
    <path d="M16.882 5H4.343c-.764 0-1.389.626-1.389 1.39v.833c0-.764.625-1.39 1.39-1.39h15.7c1.152 0 1.505-.814 1.217-1.434-.168.34-.564.601-1.217.601h-3.162z" fill="#595959"/>
    <path d="M23.038 16.409a3.567 3.567 0 00-3.07-2.254l-.074.216a3.574 3.574 0 012.069 2.038c.141.36.209.903-.043 1.16a.52.52 0 01-.388.142h1.075c.675 0 .622-.815.43-1.302z" fill="#FFBF00"/>
    <path d="M20.472 11.149h-.446a.937.937 0 00-.933.934c0 .514.42.934.933.934h1.083c.514 0 .934-.42.934-.934a.937.937 0 00-.933-.934h-.638z" fill="#FFD659"/>
    <path d="M21.385 11.705c0 .514-.42.934-.934.934h-1.083c-.032 0-.063-.001-.095-.004.171.23.446.382.753.382h1.084c.513 0 .933-.42.933-.933a.937.937 0 00-.84-.93.925.925 0 01.182.551z" fill="#FFBF00"/>
    <path d="M7.97 16.1a2.922 2.922 0 00-2.646-1.672c-1.17 0-2.18.684-2.646 1.672a2.877 2.877 0 00-.2 1.88 2.917 2.917 0 002.846 2.248c1.387 0 2.547-.96 2.845-2.248a2.89 2.89 0 00-.2-1.88z" fill="#838383"/>
    <path d="M7.97 16.1a2.922 2.922 0 00-3.03-1.646 2.92 2.92 0 011.844 1.56c.182.385.275.803.275 1.228a2.906 2.906 0 01-2.536 2.875c.254.072.523.11.801.11 1.387 0 2.547-.96 2.845-2.247a2.89 2.89 0 00-.2-1.88z" fill="#595959"/>
    <path d="M6.503 17.329c0-.647-.528-1.17-1.178-1.17-.651 0-1.18.523-1.18 1.17 0 .645.529 1.17 1.18 1.17.65 0 1.178-.524 1.178-1.17z" fill="#ECECEC"/>
    <path d="M18.43 17.71h-1.29c0 .244.034.48.097.703h1.4a1.287 1.287 0 01-.208-.702z" fill="#595959"/>
    <path d="M21.007 17.71H18.43c0 .26.076.5.207.703H20.8c.132-.203.207-.444.207-.702z" fill="#CECECE"/>
    <path d="M22.295 17.71H21.006c0 .26-.075.5-.206.703h.452c0 .663-.25 1.268-.662 1.724a2.577 2.577 0 001.705-2.426z" fill="#595959"/>
  </g>
  <path d="M23.351 16.285a3.92 3.92 0 00-2.95-2.417c.045-.168.084-.34.117-.515h.592a1.272 1.272 0 000-2.542h-.483a10.85 10.85 0 00-.123-.91 12.265 12.265 0 00-1.326-3.731h.866c.499 0 .92-.137 1.216-.396.28-.245.434-.583.434-.952 0-.701-.578-1.447-1.65-1.447H3.256A2.76 2.76 0 00.5 6.132v10.804c0 .612.498 1.111 1.111 1.111h.539a3.257 3.257 0 003.174 2.517 3.256 3.256 0 003.174-2.517h3.283a.337.337 0 000-.674H8.579l.001-.045c0-1.785-1.46-3.237-3.256-3.237-1.795 0-3.256 1.452-3.256 3.237v.045h-.457a.438.438 0 01-.437-.437v-5.041H5.63c1.803 0 2.92 1.378 3.538 2.534.526.982 1.232 1.078 2.111 1.078.06 0 .12 0 .182-.002h.017l.121-.001c.122-.002.249-.003.382-.003h3.686c.947.005 1.764.008 2.127-1.276.355-1.26.496-2.567.425-3.91h1.67c.024.166.045.332.06.498a1.273 1.273 0 00-.116 2.526c-.36 1.727-1.317 3.115-2.789 4.034h-3.708a.337.337 0 000 .674h3.487a2.918 2.918 0 002.894 2.578 2.918 2.918 0 002.894-2.578c.305-.002.559-.128.714-.355.27-.397.183-1.006.025-1.407zm-18.027-1.52a2.576 2.576 0 012.582 2.563c0 1.413-1.158 2.562-2.582 2.562s-2.583-1.15-2.583-2.562c0-1.413 1.159-2.563 2.583-2.563zm-.476-3.544V9.13a.443.443 0 01.886 0v2.095c-.034-.001-.068-.003-.103-.003h-.783zm4.915 2.89c-.616-1.15-1.676-2.493-3.356-2.817V9.13a1.118 1.118 0 00-2.234 0v2.092h-.882V7.222c0-.58.473-1.053 1.053-1.053h2.63a.337.337 0 000-.673h-2.63c-.952 0-1.726.774-1.726 1.726v4H1.174v-5.09c0-1.149.934-2.083 2.082-2.083h16.788c.634 0 .976.398.976.773a.575.575 0 01-.203.444c-.172.15-.44.23-.773.23H8.53a.337.337 0 000 .673h2.602v8.663c-.676-.01-1.041-.11-1.37-.721zm2.219.716h-.176v-5.67h.454c.25 0 .455.204.455.455v2.63c0 1.207.952 1.207 1.36 1.207h.381a.69.69 0 01.689.688v.69h-3.163zm5.164-.785c-.211.748-.505.788-1.328.786v-.69c0-.752-.61-1.363-1.362-1.363h-.382c-.548 0-.686-.063-.686-.533v-2.63a1.13 1.13 0 00-1.129-1.13h-.454V6.17h4.843c.478 1.295.768 2.563.872 3.796v.012c0 .024.002.047.007.07.029.372.04.742.035 1.108l-.557-.573a.337.337 0 00-.241-.102h-1.028a.337.337 0 000 .673h.885l.892.917c-.063.67-.185 1.328-.367 1.972zm1.02-4.402a15.19 15.19 0 00-.802-3.47h1.038a11.661 11.661 0 011.365 3.47h-1.6zm1.264 2.443c0-.33.267-.598.596-.598h1.084a.598.598 0 010 1.195h-1.084a.597.597 0 01-.596-.597zm.288 7.868a2.244 2.244 0 01-2.215-1.904h.625c.155.735.81 1.289 1.59 1.289s1.435-.554 1.59-1.289h.625a2.244 2.244 0 01-2.215 1.904zm-.89-1.904h1.78a.953.953 0 01-.89.615.953.953 0 01-.89-.615zm3.942-.735c-.014.02-.042.061-.163.061h-4.414a6.636 6.636 0 002.005-2.855c1.129.17 2.104.938 2.526 2.013.117.297.137.647.046.781z" fill="#000"/>
  <path d="M5.325 18.835c.835 0 1.514-.676 1.514-1.507 0-.831-.68-1.508-1.514-1.508-.836 0-1.516.677-1.516 1.508s.68 1.507 1.516 1.507zm0-2.34c.463 0 .84.373.84.833 0 .46-.377.834-.84.834a.839.839 0 01-.843-.834c0-.46.378-.834.843-.834z" fill="#000"/>
</svg>
