<svg width="24" height="24" fill="none" xmlns="http://www.w3.org/2000/svg">
  <defs/>
  <g fill="#CFDCE5">
    <path d="M12.768 16.939H8.462a1.1 1.1 0 01-1.1-1.101v-.074a1.1 1.1 0 011.1-1.101h7.064a1.1 1.1 0 011.101 1.1v.075c0 .608-.493 1.1-1.1 1.1h-1.501M15.526 16.94a1.1 1.1 0 011.101 1.1v.074a1.1 1.1 0 01-1.1 1.101H8.461a1.1 1.1 0 01-1.1-1.1v-.075a1.1 1.1 0 011.1-1.1"/>
  </g>
  <g fill="#BAC6CC">
    <path d="M8.934 18.114v-.074a1.1 1.1 0 011.1-1.1H8.463a1.1 1.1 0 00-1.1 1.1v.074c0 .608.492 1.101 1.1 1.101h1.573c-.608 0-1.101-.493-1.101-1.1zM8.934 15.838v-.074a1.1 1.1 0 011.1-1.101H8.463a1.1 1.1 0 00-1.1 1.1v.075c0 .608.492 1.1 1.1 1.1h1.573c-.608 0-1.101-.492-1.101-1.1z"/>
  </g>
  <path d="M16.165 14.663c.29-1.386.806-2.721 1.518-3.96A6.557 6.557 0 0011.74.89c-3.45.13-6.227 2.96-6.3 6.411a6.53 6.53 0 00.88 3.424 13.188 13.188 0 011.509 3.939" fill="#FCD577"/>
  <path d="M8.206 10.724A6.53 6.53 0 017.327 7.3c.067-3.22 2.489-5.896 5.614-6.348a6.634 6.634 0 00-1.202-.063c-3.45.13-6.227 2.96-6.3 6.411a6.53 6.53 0 00.88 3.424 13.188 13.188 0 011.509 3.939h1.887a13.186 13.186 0 00-1.51-3.939z" fill="#EAC36E"/>
  <path d="M13.334 11.616h-2.679a.79.79 0 00-.79.79v2.257h4.259v-2.257a.79.79 0 00-.79-.79z" fill="#415E72"/>
  <path d="M14.948 19.214a1.1 1.1 0 011.101 1.101v.074a1.1 1.1 0 01-1.1 1.101H9.04a1.1 1.1 0 01-1.1-1.1v-.075c0-.608.492-1.1 1.1-1.1h5.907z" fill="#CFDCE5"/>
  <path d="M9.513 20.39v-.075c0-.608.493-1.1 1.101-1.1H9.041a1.1 1.1 0 00-1.1 1.1v.074a1.1 1.1 0 001.1 1.101h1.573a1.1 1.1 0 01-1.1-1.1z" fill="#BAC6CC"/>
  <path d="M9.441 21.49a2.818 2.818 0 005.108 0" fill="#415E72"/>
  <path d="M18.941 7.44a6.954 6.954 0 00-1.562-4.386.384.384 0 00-.595.486 6.184 6.184 0 01.572 6.972 13.882 13.882 0 00-1.504 3.81 1.517 1.517 0 00-.357-.043h-5.24v-1.854c0-.235.19-.425.425-.425h.15v1.57a.384.384 0 00.768 0V12h.805v1.57a.384.384 0 10.768 0V12h.15c.234 0 .425.19.425.425v.927a.384.384 0 10.768 0v-.927c0-.658-.535-1.193-1.193-1.193h-.15v-1.54l1.467-2.479a.384.384 0 10-.662-.391l-1.52 2.568a.385.385 0 00-.053.196v1.646h-.805V9.586a.385.385 0 00-.053-.196l-1.52-2.568a.384.384 0 00-.662.391l1.467 2.478v1.54h-.15c-.658 0-1.193.536-1.193 1.194v1.854h-.981c-.122 0-.24.014-.354.041a13.56 13.56 0 00-1.496-3.789 6.166 6.166 0 01.947-7.413 6.136 6.136 0 014.157-1.845 6.187 6.187 0 014.027 1.293.384.384 0 10.472-.607A6.955 6.955 0 0011.73.505 6.902 6.902 0 007.054 2.58a6.934 6.934 0 00-1.063 8.337 12.778 12.778 0 011.459 3.789 1.517 1.517 0 00.034 2.223c-.307.272-.5.669-.5 1.11v.037c0 .603.35 1.124.86 1.37a1.476 1.476 0 00-.282.87v.036c0 .84.683 1.522 1.522 1.522h.13A3.217 3.217 0 0012 23.5a3.19 3.19 0 001.742-.515.384.384 0 00-.418-.644c-.394.256-.852.39-1.323.39-.72 0-1.397-.323-1.853-.857h4.769c.84 0 1.522-.682 1.522-1.522v-.037c0-.324-.105-.624-.282-.868.509-.247.86-.768.86-1.37v-.038c0-.441-.194-.838-.5-1.11a1.518 1.518 0 00.037-2.22c.28-1.324.774-2.607 1.468-3.814.601-1.047.92-2.241.92-3.454zm-3.409 9.883c.396 0 .717.321.717.716v.037a.755.755 0 01-.754.754h-4.137a.384.384 0 100 .769h3.596c.395 0 .717.321.717.716v.037a.755.755 0 01-.754.754H9.084a.755.755 0 01-.754-.754v-.037c0-.395.322-.716.717-.716h1a.384.384 0 100-.769H8.506a.755.755 0 01-.753-.753v-.038c0-.395.321-.716.716-.716h4.306a.384.384 0 000-.769H8.505a.755.755 0 010-1.507h6.99a.755.755 0 010 1.507h-1.463a.384.384 0 000 .769h1.5z" fill="#000"/>
</svg>
