<svg width="24" height="24" fill="none" xmlns="http://www.w3.org/2000/svg">
  <defs/>
  <path d="M10.401 22.963a2.269 2.269 0 01-1.612-.667 2.287 2.287 0 01-.648-1.308.682.682 0 111.351-.18.916.916 0 001.826-.126v-9.727a.682.682 0 111.364 0v9.727a2.283 2.283 0 01-2.28 2.28z" fill="#E27D47"/>
  <path d="M.84 12.196a3.144 3.144 0 015.58 0 3.144 3.144 0 015.58 0 3.144 3.144 0 015.58 0 3.144 3.144 0 015.58 0c0-6.163-4.997-11.159-11.16-11.159S.84 6.033.84 12.197z" fill="#DA4A54"/>
  <path d="M11.928 1.038C8.88 1.115 6.42 6.082 6.42 12.196a3.143 3.143 0 00-5.58 0c0-6.138 4.958-11.12 11.088-11.158z" fill="#D82E3D"/>
  <path d="M19.532 3.506a.34.34 0 00-.447.515 10.819 10.819 0 013.68 7.093 3.474 3.474 0 00-2.395-.951c-.946 0-1.828.377-2.472 1.026-.117-2.654-.691-5.122-1.648-7.036-.541-1.083-1.176-1.928-1.872-2.512 1.3.291 2.539.822 3.659 1.576a.34.34 0 00.38-.565A11.446 11.446 0 0012.01.697h-.02a11.424 11.424 0 00-8.12 3.368A11.424 11.424 0 00.5 12.196a.34.34 0 00.643.158 2.797 2.797 0 012.488-1.51c1.049 0 2.002.579 2.487 1.51a.34.34 0 00.605 0 2.796 2.796 0 012.487-1.51c.658 0 1.277.228 1.767.626v9.212a.577.577 0 01-1.147.081 1.024 1.024 0 00-1.826-.486 1.015 1.015 0 00-.201.756 2.63 2.63 0 00.744 1.504 2.607 2.607 0 001.854.767 2.61 2.61 0 002.504-1.846.34.34 0 00-.65-.202 1.931 1.931 0 01-1.854 1.366 1.93 1.93 0 01-1.372-.567c-.3-.3-.495-.695-.55-1.112a.339.339 0 01.292-.383.342.342 0 01.383.293 1.257 1.257 0 002.505-.17v-8.4l.038.07a.341.341 0 00.605.001l.039-.071V20a.34.34 0 10.681 0v-8.53a2.798 2.798 0 011.768-.627c1.05 0 2.002.579 2.487 1.51a.34.34 0 00.605 0 2.797 2.797 0 012.488-1.51c1.048 0 2.001.579 2.487 1.51a.341.341 0 00.643-.158 11.5 11.5 0 00-3.968-8.69zm-15.9 6.657c-.91 0-1.76.349-2.397.952A10.736 10.736 0 014.35 4.547a10.746 10.746 0 015.274-2.909c-.697.585-1.332 1.431-1.874 2.515-.957 1.914-1.532 4.382-1.648 7.036a3.475 3.475 0 00-2.47-1.026zm3.154.98c.12-2.53.667-4.873 1.573-6.685.91-1.819 2.07-2.889 3.3-3.056v9.764a3.474 3.474 0 00-2.449-1.003c-.922 0-1.785.36-2.424.98zm8.004-.98c-.934 0-1.807.369-2.45 1.004V1.402c1.23.167 2.391 1.237 3.3 3.056.906 1.812 1.454 4.155 1.574 6.684a3.474 3.474 0 00-2.424-.98z" fill="#000"/>
</svg>
