<svg width="24" height="24" fill="none" xmlns="http://www.w3.org/2000/svg">
  <defs/>
  <path d="M12.072 23.162c5.935 0 10.746-4.811 10.746-10.746 0-5.935-4.81-10.746-10.746-10.746-5.935 0-10.746 4.81-10.746 10.746 0 5.934 4.811 10.746 10.746 10.746z" fill="#EBF9FE"/>
  <g fill="#BED8E4">
    <path d="M9.578 4.785V.98c0-.202.155-.365.345-.365h4.156c.19 0 .345.163.345.365v3.805a.356.356 0 01-.345.365H9.923a.356.356 0 01-.345-.365zM11.811 19.53l-2.065-2.74a.387.387 0 01-.075-.257l.594-9.43c.012-.192.162-.342.342-.342h2.942c.18 0 .33.15.342.343l.594 9.43a.386.386 0 01-.075.255l-2.066 2.741a.334.334 0 01-.266.137.334.334 0 01-.267-.137zM16.398 7.459h2.254c.21 0 .381.17.381.38v2.104c0 .21-.17.381-.381.381h-2.254a.381.381 0 01-.381-.381V7.84c0-.21.17-.381.38-.381z"/>
  </g>
  <g fill="#D3E8F1">
    <path d="M12.026 2.185l1.67-1.592h.57c.204 0 .388.147.388.345v3.736c0 .198-.184.36-.388.36H9.828a.364.364 0 01-.368-.36V.938c0-.198.165-.345.368-.345h.654l1.544 1.592zM12.047 7.977h-1.876l.063-1.008a.355.355 0 01.346-.341h2.976c.182 0 .334.149.346.341l.61 9.623a.38.38 0 01-.075.254l-2.1 2.762a.34.34 0 01-.27.135l-.02-11.766z"/>
  </g>
  <path d="M14.79.894A.393.393 0 0014.396.5h-4.74a.393.393 0 00-.394.394v4.098c0 .217.176.393.393.393h4.741a.393.393 0 00.394-.393V.894zm-.787 3.704h-3.954V1.287h3.954v3.311zM13.345 7.153l.34 5.179a.394.394 0 10.785-.051l-.363-5.547a.393.393 0 00-.393-.368h-3.377a.394.394 0 00-.392.367l-.682 10.091a.394.394 0 00.086.274l2.37 2.933a.393.393 0 00.613 0l2.37-2.933a.394.394 0 00.087-.277l-.152-1.992a.394.394 0 00-.784.06l.14 1.836-1.967 2.433-1.968-2.434.647-9.57h2.64zM15.556 10.684a.394.394 0 00.28.119h3.17a.393.393 0 00.393-.394v-3.01a.393.393 0 00-.393-.394h-.599v-1.31a.393.393 0 10-.787 0v1.31h-.48V4.823a.393.393 0 10-.788 0v2.182h-.515a.393.393 0 00-.38.498c.023.248.012 1.646-.014 2.898a.395.395 0 00.113.284zm.697-1.754a55.1 55.1 0 00.002-1.138h2.358v2.223h-2.375c.005-.284.01-.685.015-1.085z" fill="#000"/>
  <path d="M21.438 6.29a11.22 11.22 0 00-4.554-4.054.393.393 0 10-.344.708 10.434 10.434 0 014.235 3.77 10.37 10.37 0 011.63 5.594c0 5.738-4.668 10.405-10.405 10.405-5.737 0-10.404-4.668-10.404-10.405 0-2.021.58-3.982 1.678-5.668A10.426 10.426 0 017.62 2.867a.394.394 0 00-.331-.714A11.212 11.212 0 002.614 6.21 11.15 11.15 0 00.81 12.308C.809 18.48 5.829 23.5 12 23.5c6.172 0 11.192-5.02 11.192-11.192 0-2.14-.607-4.222-1.754-6.017z" fill="#000"/>
</svg>
