<svg width="24" height="24" fill="none" xmlns="http://www.w3.org/2000/svg">
  <defs/>
  <path d="M23.113 15.052V.916H.945v22.168h22.168v-6.645" fill="#CFDCE5"/>
  <path d="M18.437 6.467H5.62v16.616h12.817V6.467z" fill="#8DE0A8"/>
  <path d="M19.695 2.54H4.362v2.43h15.333V2.54z" fill="#FCD577"/>
  <path d="M4.277 12.48l-.913-2.021-.912 2.021h1.825z" fill="#FF6F52"/>
  <path d="M2.452 13.916l.912 2.022.913-2.022H2.452z" fill="#FCD577"/>
  <path d="M23.084 16.023a.416.416 0 00-.416.416v6.229h-3.843v-16.2a.416.416 0 00-.416-.417H5.591a.416.416 0 00-.417.416v16.2H1.332V4.848a.416.416 0 10-.832 0v18.237c0 .23.186.416.416.416h22.168c.23 0 .416-.186.416-.416v-6.645a.416.416 0 00-.416-.416zm-11.5 6.645H6.008V6.883h5.576v15.785zm6.408 0h-5.576V6.883h5.576v15.785z" fill="#000"/>
  <path d="M23.084.5H.916A.416.416 0 00.5.916v2.545a.416.416 0 10.832 0V1.332h21.336v13.72a.416.416 0 00.832 0V.916A.416.416 0 0023.084.5z" fill="#000"/>
  <path d="M17.418 2.54a.416.416 0 00-.416-.417H4.333a.416.416 0 00-.416.416v2.43c0 .23.186.416.416.416h15.333c.23 0 .416-.186.416-.416V2.54a.416.416 0 00-.416-.416H18.39a.416.416 0 000 .833h.86v1.597H4.75V2.956h12.253c.23 0 .416-.187.416-.417z" fill="#000"/>
  <path d="M16.295 3.755a.416.416 0 10.832 0 .416.416 0 00-.832 0zM18.698 3.755a.416.416 0 10-.832-.001.416.416 0 00.832 0zM14.725 3.755a.416.416 0 10.831 0 .416.416 0 00-.831 0zM13.154 3.755a.416.416 0 10.831 0 .416.416 0 00-.83 0zM8.442 3.755a.416.416 0 10.832 0 .416.416 0 00-.832 0zM6.873 3.755a.416.416 0 10.832 0 .416.416 0 00-.832 0zM10.013 3.755a.416.416 0 10.832-.001.416.416 0 00-.832 0zM11.584 3.755a.415.415 0 10.831 0 .415.415 0 00-.831 0zM3.335 10.042a.416.416 0 00-.38.245l-.911 2.022a.416.416 0 00.758.343l.533-1.181.533 1.18a.416.416 0 10.759-.342l-.912-2.022a.417.417 0 00-.38-.245zM2.044 14.087l.912 2.022a.416.416 0 00.759 0l.912-2.022a.416.416 0 00-.759-.342l-.533 1.18-.533-1.18a.416.416 0 00-.758.342zM5.303 3.755a.416.416 0 10.831 0 .416.416 0 00-.831 0z" fill="#000"/>
</svg>
