<svg width="24" height="24" fill="none" xmlns="http://www.w3.org/2000/svg">
  <defs/>
  <g fill-rule="evenodd" clip-rule="evenodd">
    <path d="M15.737 5.662h-1.455l-.727.76.727 1.046v.052l1.252.58 1.13-.58v-.929a.931.931 0 00-.927-.93z" fill="#9B9B9B"/>
    <path d="M16.03 7.52h-1.749v8.32l3.915.924 4.094-.924h.065v-3.262c0-.698-.409-1.196-1.073-1.196h-.354c-.552 0-.717-.38-1.062-.892l-1.311-1.954c-.377-.56-.619-1.016-1.53-1.016h-.995z" fill="#ECECEC"/>
    <path d="M1.67 4.516V15.84l5.828.81 6.784-.81V4.516a.465.465 0 00-.464-.464H2.133a.464.464 0 00-.463.464z" fill="#FFD659"/>
    <path d="M1.607 17.378h3.299a2.408 2.408 0 01.686-1.538H1.607a.77.77 0 00-.767.77.77.77 0 00.767.768zM19.208 15.84c.393.401.65.94.686 1.538h2.497a.772.772 0 00.768-.768.772.772 0 00-.768-.77h-3.183zM7.236 15.84c.395.401.65.94.688 1.538h8.952a2.41 2.41 0 01.687-1.538H7.236z" fill="#ACACAC"/>
    <path d="M4.694 15.84a2.41 2.41 0 00-.692 1.692 2.413 2.413 0 104.82-.154 2.408 2.408 0 00-.687-1.538 2.405 2.405 0 00-1.72-.723c-.674 0-1.283.277-1.72.723zM18.386 15.117a2.415 2.415 0 010 4.831 2.413 2.413 0 01-2.412-2.415 2.414 2.414 0 012.412-2.416z" fill="#838383"/>
    <path d="M13.084 4.052V15.84h1.198V4.516a.465.465 0 00-.463-.464h-.735z" fill="#FFBF00"/>
    <path d="M19.342 15.84a2.418 2.418 0 01.667 1.667c0 1.226-.914 2.24-2.097 2.395a2.416 2.416 0 10.157-4.763c.496.098.937.349 1.273.7zM7.37 15.84a2.398 2.398 0 01.665 1.538c.001.042.003.086.003.13 0 1.225-.913 2.239-2.096 2.394a2.413 2.413 0 002.624-3.463A2.403 2.403 0 006.1 15.138c.495.099.937.35 1.272.702z" fill="#595959"/>
    <path d="M20.545 13.93c0 .26.211.472.47.472h1.34v-1.296h-1.34a.471.471 0 00-.47.47v.354z" fill="#A6E7F0"/>
    <path d="M21.36 13.106h.995v1.296h-.996v-1.296z" fill="#6BD9E7"/>
    <path d="M22.355 14.402h-.996v1.438h.996v-1.438z" fill="#CECECE"/>
    <path d="M5.457 17.533a.959.959 0 101.918.002.959.959 0 00-1.918-.002zM17.427 17.533a.959.959 0 101.918.001.959.959 0 00-1.918-.001z" fill="#E6E6E6"/>
    <path d="M22.355 12.578c0-.698-.409-1.195-1.073-1.195h-.115c.125.197.192.447.192.731v.992h.996v-.528z" fill="#CECECE"/>
    <path d="M15.688 9.088l.002 1.697c0 .164.152.334.396.334h2.217c.046-.002.083-.032.083-.068v-.09a.288.288 0 00-.06-.19L17.25 9.242c-.112-.159-.23-.225-.454-.225h-1.01c-.053 0-.095.032-.098.071z" fill="#A6E7F0"/>
    <path d="M16.796 9.017h-1.107c.223 0 .342.066.454.225l1.076 1.529c.047.065.06.117.06.19v.09c0 .036-.037.066-.083.068h1.107c.046-.002.083-.032.083-.068v-.09a.288.288 0 00-.06-.19L17.25 9.242c-.112-.159-.23-.225-.454-.225z" fill="#6BD9E7"/>
  </g>
  <path d="M18.386 16.234a1.3 1.3 0 000 2.598 1.3 1.3 0 000-2.598zm0 1.918a.62.62 0 010-1.238.619.619 0 010 1.238z" fill="#000"/>
  <path d="M22.695 15.543v-2.965c0-.904-.58-1.536-1.413-1.536h-.354c-.282 0-.38-.131-.65-.546l-.129-.195-1.311-1.955c-.024-.034-.046-.068-.068-.102-.348-.523-.708-1.064-1.745-1.064h-.02v-.589c0-.7-.569-1.27-1.268-1.27h-1.115v-.805a.805.805 0 00-.803-.804H2.133a.805.805 0 00-.803.804v3.746a.34.34 0 00.68 0V4.516c0-.068.056-.124.123-.124H13.82c.067 0 .123.056.123.124V15.5H8.27a2.74 2.74 0 00-3.712 0H2.01V9.82a.34.34 0 00-.68 0v5.715a1.11 1.11 0 00.278 2.183h2.061a2.757 2.757 0 002.746 2.57 2.757 2.757 0 002.745-2.57h2.562a.34.34 0 000-.68h-2.6a2.737 2.737 0 00-.31-.858h7.178a2.738 2.738 0 00-.311.858h-2.402a.34.34 0 100 .68h2.364a2.757 2.757 0 002.745 2.57 2.757 2.757 0 002.746-2.57h1.259a1.11 1.11 0 00.304-2.175zM3.707 17.038h-2.1a.429.429 0 010-.858h2.411a2.737 2.737 0 00-.31.858zm2.708 2.57a2.076 2.076 0 010-4.15 2.076 2.076 0 010 4.15zm8.207-13.606h1.115a.59.59 0 01.588.59v.588h-1.703V6.002zm0 9.498V7.86h2.403c.673 0 .852.27 1.178.76l.07.106 1.311 1.954c.044.064.084.127.123.186.286.44.556.857 1.221.857h.354c.54 0 .733.441.733.855v.188h-1a.811.811 0 00-.81.81v.354c0 .448.363.812.81.812h1v.758h-1.773a2.74 2.74 0 00-3.712 0h-1.908zm7.393-2.054v.616h-1c-.07 0-.13-.06-.13-.132v-.354c0-.07.06-.13.13-.13h1zm-3.629 6.162a2.076 2.076 0 010-4.15 2.076 2.076 0 010 4.15zm4.005-2.57h-1.298a2.737 2.737 0 00-.31-.858h1.608a.43.43 0 010 .858z" fill="#000"/>
  <path d="M6.415 16.234a1.3 1.3 0 000 2.598 1.3 1.3 0 000-2.598zm0 1.918a.62.62 0 010-1.238.62.62 0 010 1.238zM3.82 11.29h8.22a.34.34 0 100-.68H3.82a.34.34 0 000 .68zM3.82 13.573h8.22a.34.34 0 100-.68H3.82a.34.34 0 100 .68zM3.82 9.008h8.22a.34.34 0 100-.68H3.82a.34.34 0 100 .68zM3.82 6.725h8.22a.34.34 0 100-.68H3.82a.34.34 0 100 .68zM18.313 11.459a.414.414 0 00.413-.408v-.09c0-.15-.038-.27-.123-.388L17.53 9.047c-.18-.256-.406-.37-.733-.37h-1.01a.429.429 0 00-.437.411v1.697c0 .371.331.674.737.674h2.227zm-2.227-.68a.099.099 0 01-.056-.014V9.357h.766c.12 0 .132.017.177.081l.943 1.34h-1.83z" fill="#000"/>
</svg>
