<svg width="24" height="24" fill="none" xmlns="http://www.w3.org/2000/svg">
  <defs/>
  <path d="M15.41 4.781H8.82v-.153c0-1.173.95-2.123 2.122-2.123h2.345c1.172 0 2.122.95 2.122 2.123v.153z" fill="#FFF9F0"/>
  <path d="M13.287 2.505h-1.356c1.172 0 2.122.95 2.122 2.123v.153h1.357v-.153c0-1.173-.95-2.123-2.123-2.123z" fill="#FAE8DB"/>
  <path d="M14.698 5.491h-5.1a1.42 1.42 0 01-1.418-1.42h7.938a1.42 1.42 0 01-1.42 1.42z" fill="#E9B665"/>
  <path d="M14.762 4.072a1.42 1.42 0 01-1.42 1.419H14.7a1.42 1.42 0 001.42-1.42h-1.357z" fill="#D8AA5E"/>
  <path d="M9.452 5.491h5.083V8.38H9.452V5.49z" fill="#FBCF88"/>
  <path d="M13.179 5.491h1.356V8.38h-1.356V5.49z" fill="#FBC56D"/>
  <path d="M16.109 23.161h-8.23v-.268c0-.949.77-1.718 1.72-1.718h4.791c.95 0 1.719.77 1.719 1.718v.268z" fill="#FBCF88"/>
  <path d="M14.39 21.175h-1.357c.95 0 1.719.77 1.719 1.718v.268h1.356v-.268c0-.949-.77-1.718-1.719-1.718z" fill="#E9B665"/>
  <path d="M18.684 13.293c0 3.695-2.995 8.765-6.69 8.765-3.695 0-6.69-5.07-6.69-8.765a6.69 6.69 0 1113.38 0z" fill="#FFF9F0"/>
  <path d="M11.994 6.603c-.23 0-.455.011-.679.034a6.69 6.69 0 016.012 6.656c0 3.466-2.635 8.142-6.012 8.708.224.037.45.057.679.057 3.694 0 6.69-5.07 6.69-8.765a6.69 6.69 0 00-6.69-6.69z" fill="#FAE8DB"/>
  <path d="M11.994 2.505a.833.833 0 100-1.666.833.833 0 000 1.666z" fill="#FFF9F0"/>
  <path d="M11.994 15.071a1.1 1.1 0 100-2.198 1.1 1.1 0 000 2.198z" fill="#6C7FD8"/>
  <path d="M5.592 11.347A2.212 2.212 0 008.2 7.782a6.703 6.703 0 00-2.61 3.565zM15.96 7.905a2.212 2.212 0 002.48 3.591 6.699 6.699 0 00-2.48-3.59z" fill="#BEC6ED"/>
  <path d="M15.96 7.905c-.216.21-.39.463-.506.745a6.682 6.682 0 011.63 2.846c-.085.04-.174.074-.264.104a2.21 2.21 0 001.62-.104 6.699 6.699 0 00-2.48-3.59z" fill="#A2AEE6"/>
  <path d="M6.799 15.87c-.363 0-.704.087-1.006.241.459 1.397 1.218 2.771 2.178 3.846a2.212 2.212 0 00-1.173-4.088zM17.499 15.87a2.213 2.213 0 00-1.365 3.953c.931-1.085 1.662-2.45 2.098-3.829a2.207 2.207 0 00-.733-.125z" fill="#BEC6ED"/>
  <path d="M17.5 15.87c-.238 0-.466.037-.68.106l.057.018a11.453 11.453 0 01-1.42 2.938c.147.352.382.658.678.89.93-1.084 1.662-2.45 2.098-3.828a2.209 2.209 0 00-.734-.125z" fill="#A2AEE6"/>
  <path d="M19.786 11.065c.396-.498.888-1.12 1.223-2.131.472-1.424-.03-2.248-.37-2.612a2.06 2.06 0 00-2.027-.57c-.614.16-1.132.728-1.54 1.688-.112.264-.2.52-.265.735a7.086 7.086 0 00-1.933-1.294v-1.06a1.76 1.76 0 001.583-1.75.34.34 0 00-.34-.338h-.537a2.467 2.467 0 00-2.293-1.567h-.23A1.173 1.173 0 0011.993.5a1.173 1.173 0 00-1.063 1.666A2.473 2.473 0 008.65 3.733H8.18a.34.34 0 00-.34.339 1.76 1.76 0 001.273 1.69v1.12c-.374.168-.732.37-1.068.599a.337.337 0 00-.07.048 7.083 7.083 0 00-.785.637 7.353 7.353 0 00-.262-.726c-.407-.96-.925-1.528-1.54-1.687a2.06 2.06 0 00-2.027.57c-.34.363-.841 1.187-.37 2.61.336 1.013.828 1.633 1.223 2.132.439.554.756.955.772 1.679a7.1 7.1 0 00-.021.549c0 .381.031.779.092 1.184-.216.205-.427.299-.627.28-.374-.035-.703-.446-.798-.602a.34.34 0 00-.58.35c.02.035.52.85 1.31.927a1.34 1.34 0 00.835-.208c.072.315.16.632.262.948.006.03.015.058.029.087.35 1.05.862 2.089 1.497 2.996a9.112 9.112 0 001.651 1.82 2.068 2.068 0 00-1.096 1.818v.268c0 .187.152.339.34.339h8.228a.34.34 0 00.34-.34v-.267a2.06 2.06 0 00-1.096-1.819 9.112 9.112 0 001.65-1.819 11.786 11.786 0 001.537-3.115.354.354 0 00.027-.088c.087-.28.163-.558.226-.836a1.345 1.345 0 00.846.216c.79-.077 1.29-.892 1.311-.927a.34.34 0 00-.58-.35c-.088.145-.42.566-.796.602-.205.02-.42-.078-.64-.29.059-.402.09-.796.09-1.174 0-.159-.006-.316-.016-.473a.339.339 0 00.007-.064c.012-.732.331-1.134.772-1.69zM18.782 6.41a1.383 1.383 0 011.362.376c.41.44.49 1.127.221 1.935-.297.899-.73 1.443-1.11 1.924a7.06 7.06 0 00-.508.698 7.02 7.02 0 00-1.394-2.592c.052-.211.165-.627.348-1.055.22-.516.586-1.157 1.081-1.286zm-.76 4.884a1.876 1.876 0 01-2.021-2.924 6.373 6.373 0 012.021 2.924zM11.994 1.178a.494.494 0 11-.001.989.494.494 0 010-.989zm-3.42 3.233h1.986a.34.34 0 100-.678H9.4a1.794 1.794 0 011.542-.889h2.345c.642 0 1.228.347 1.543.889h-2.913a.34.34 0 000 .678h3.807c-.142.43-.548.74-1.025.74h-5.1c-.477 0-.883-.31-1.025-.74zm1.218 1.42h4.404v.786a7.002 7.002 0 00-2.202-.353c-.77 0-1.51.124-2.202.353V5.83zm-5.046 4.813c-.381-.48-.813-1.025-1.11-1.924-.269-.808-.19-1.496.22-1.935.34-.361.861-.506 1.363-.376.495.129.861.77 1.081 1.286.18.42.292.828.345 1.043a7.024 7.024 0 00-1.384 2.535l-.016.054a7.208 7.208 0 00-.5-.683zm1.472 5.657a1.875 1.875 0 012.454 1.78c0 .553-.238 1.064-.649 1.417a9.636 9.636 0 01-.482-.632 11.062 11.062 0 01-1.323-2.565zm8.525 5.258a1.38 1.38 0 011.024 1.263H8.22c.03-.584.433-1.094.998-1.255a.336.336 0 00.059-.023c.868.559 1.788.853 2.717.853.927 0 1.845-.293 2.712-.85a.346.346 0 00.037.012zm-1.74.025V17.39a.294.294 0 01.587 0 .34.34 0 00.678 0 .972.972 0 00-1.944 0v4.315a3.8 3.8 0 01-.661 0V17.39c0-.012 0-.023-.002-.035a.972.972 0 00-1.942.035.34.34 0 00.678 0 .294.294 0 01.588 0v4.195c-1.014-.272-1.862-.917-2.508-1.58.553-.481.873-1.175.873-1.922a2.554 2.554 0 00-3.342-2.426 9.904 9.904 0 01-.21-.86h3.327a.294.294 0 010 .588.34.34 0 000 .678.972.972 0 000-1.944H5.692a7.4 7.4 0 01-.047-.661h3.48c.012 0 .024 0 .035-.002a.972.972 0 00-.035-1.942.34.34 0 100 .678.294.294 0 010 .588H5.664c.025-.319.074-.63.145-.933a2.543 2.543 0 002.191-.1.34.34 0 10-.32-.599 1.876 1.876 0 01-1.678.041 6.38 6.38 0 012.172-2.966 1.866 1.866 0 01.34 2.028.34.34 0 00.62.274c.144-.325.216-.672.216-1.03a2.54 2.54 0 00-.609-1.654 6.308 6.308 0 012.244-.818v3.3a.294.294 0 01-.588 0 .34.34 0 00-.678 0 .972.972 0 001.944 0V6.95a6.425 6.425 0 01.662 0v3.372l.001.034a.972.972 0 001.942-.034.34.34 0 00-.678 0 .294.294 0 01-.587 0v-3.3a6.312 6.312 0 012.45.947 2.527 2.527 0 00-.506 1.525 2.554 2.554 0 003.254 2.453c.059.271.1.549.123.832h-3.371a.294.294 0 010-.588.34.34 0 000-.678.972.972 0 000 1.944h3.39a7.397 7.397 0 01-.048.661h-3.342l-.035.002a.972.972 0 00.035 1.942.34.34 0 100-.678.294.294 0 010-.587h3.236c-.05.259-.113.52-.188.783a2.551 2.551 0 00-2.342 4.267c-.662.716-1.563 1.444-2.656 1.737zm3.444-2.718c-.1.144-.216.3-.345.463a1.876 1.876 0 011.692-3.097 11.07 11.07 0 01-1.347 2.634z" fill="#000"/>
  <path d="M11.994 12.534a1.44 1.44 0 00-1.438 1.438 1.44 1.44 0 001.438 1.438 1.44 1.44 0 001.438-1.438 1.44 1.44 0 00-1.438-1.438zm0 2.198a.761.761 0 010-1.52.761.761 0 010 1.52z" fill="#000"/>
</svg>
