<svg width="24" height="24" fill="none" xmlns="http://www.w3.org/2000/svg">
  <defs/>
  <path d="M21.126 9.613a3.044 3.044 0 00-3.744-2.961l-.002-.004C11.3 8.4 9.914 4.947 5.693 4.88a4.734 4.734 0 00-1.52 9.257c3.758 1.35 11.787.63 15.245-1.788a3.043 3.043 0 001.708-2.736z" fill="#56449B"/>
  <path d="M19.177 6.773a3.043 3.043 0 01-1.688 3.086c-3.458 2.418-11.487 3.138-15.246 1.789a4.711 4.711 0 01-1.168-.546 4.745 4.745 0 003.097 3.036c3.758 1.349 11.788.63 15.246-1.79a3.043 3.043 0 00-.241-5.575z" fill="#473984"/>
  <path d="M21.844 7.37c0-.795-.337-1.49-.558-1.86a.219.219 0 00-.376 0c-.22.37-.558 1.065-.558 1.86 0 .834.37 1.556.589 1.91-.22.355-.588 1.077-.588 1.91 0 .796.337 1.491.557 1.86.085.143.291.143.376 0 .221-.369.558-1.064.558-1.86 0-.833-.37-1.555-.588-1.91.219-.354.588-1.076.588-1.91z" fill="#4ACB8C"/>
  <path d="M21.844 7.37c0-.795-.338-1.49-.558-1.86a.219.219 0 00-.376 0 4.316 4.316 0 00-.102.182c.21.393.455.999.455 1.679s-.246 1.286-.455 1.679c.047.088.092.166.132.23a4.26 4.26 0 00-.132.232c.209.392.455.998.455 1.678 0 .68-.246 1.286-.455 1.679.035.067.07.128.102.182.085.142.29.142.376 0 .22-.37.558-1.065.558-1.86 0-.834-.37-1.556-.588-1.91.218-.355.588-1.077.588-1.91z" fill="#13B766"/>
  <path d="M19.132 10.034c-.796 0-1.49-.336-1.86-.557a.22.22 0 010-.376c.37-.221 1.064-.558 1.86-.558s1.49.337 1.86.558a.219.219 0 010 .376c-.37.22-1.064.557-1.86.557z" fill="#4ACB8C"/>
  <path d="M20.992 9.1c-.37-.22-1.065-.557-1.86-.557-.188 0-.369.02-.542.05a4.05 4.05 0 011.318.508.219.219 0 010 .376 4.05 4.05 0 01-1.318.507c.173.031.354.05.542.05.795 0 1.49-.336 1.86-.557a.219.219 0 000-.376z" fill="#13B766"/>
  <path d="M18.844 13.777a3.793 3.793 0 01-7.585 0c0-2.095 1.698-2.991 3.793-2.991 2.094 0 3.792.896 3.792 2.991z" fill="#FB4753"/>
  <path d="M17.516 11.357c.156.353.243.762.243 1.233a3.793 3.793 0 01-5.986 3.094 3.793 3.793 0 007.07-1.907c.001-1.154-.515-1.943-1.327-2.42z" fill="#E21F2D"/>
  <path d="M14.952 15.448a.34.34 0 00-.335.4 4.007 4.007 0 007.878 0 .34.34 0 00-.336-.4h-7.207z" fill="#FB4753"/>
  <path d="M22.16 15.448h-.744a4.007 4.007 0 01-5.652 2.538 4.007 4.007 0 006.732-2.137.34.34 0 00-.336-.401z" fill="#E21F2D"/>
  <path d="M18.556 17.447c1.48 0 2.773-.805 3.466-2H15.09a4.003 4.003 0 003.466 2z" fill="#FC8186"/>
  <path d="M21.415 15.448a3.994 3.994 0 01-.643 1.33 4.03 4.03 0 001.25-1.33h-.607z" fill="#FB4753"/>
  <path d="M4.841 16.682c-.185 0-.237.254-.067.326.388.166.875.332.96.494.452.866 1.272 1.62 2.209 1.62 1 0 1.868-.86 2.296-1.799a.452.452 0 00-.41-.64H4.84z" fill="#EFE0DB"/>
  <path d="M9.828 16.682h-.587a.449.449 0 01-.038.238c-.428.94-1.296 1.798-2.296 1.798-.05 0-.1-.003-.15-.007.355.253.758.41 1.186.41 1 0 1.868-.859 2.296-1.798a.452.452 0 00-.41-.64z" fill="#DFD1CB"/>
  <path d="M23.164 7.66a.336.336 0 00-.336.337v.202a.755.755 0 01-.755.754h-.263c.19-.416.37-.97.37-1.582 0-.887-.38-1.654-.606-2.033a.55.55 0 00-.476-.27.55.55 0 00-.476.27 4.373 4.373 0 00-.567 1.533 3.383 3.383 0 00-2.696-.559.34.34 0 00-.072.013c-3.245.935-5.107.333-6.737-.363a.336.336 0 00-.264.618c1.732.74 3.71 1.38 7.136.405a2.724 2.724 0 01.66-.08 2.71 2.71 0 011.956.837c.025.221.071.432.128.626a3.569 3.569 0 00-1.035-.161c-.887 0-1.654.38-2.032.605a.55.55 0 00-.27.477.55.55 0 00.27.476c.378.226 1.145.606 2.032.606a3.57 3.57 0 001.03-.16 3.546 3.546 0 00-.145.98c0 .102.006.202.015.301a2.7 2.7 0 01-.761.555.328.328 0 00-.045.026c-.114.08-.236.159-.363.237a2.87 2.87 0 00-.934-1.088c-.714-.505-1.708-.772-2.877-.772-1.168 0-2.162.267-2.876.772-.82.58-1.252 1.464-1.252 2.555a4.133 4.133 0 004.302 4.125 4.34 4.34 0 007.6-1.992.676.676 0 00-.666-.798H18.96c.146-.427.22-.874.22-1.335 0-.288-.03-.562-.09-.82.176-.103.343-.21.499-.318.214-.107.413-.235.598-.383.13.415.307.753.434.967.102.17.28.27.477.27a.55.55 0 00.476-.27c.226-.378.606-1.146.606-2.033 0-.604-.175-1.152-.362-1.565h.255c.787 0 1.427-.64 1.427-1.426v-.202a.336.336 0 00-.336-.337zm-6.116 9.853c.482.179.99.27 1.508.27 1.436 0 2.784-.721 3.588-1.9a3.669 3.669 0 01-7.177 0c.182.267.393.513.63.734a.336.336 0 00.458-.491 3.706 3.706 0 01-.322-.342h5.645a3.684 3.684 0 01-2.822 1.326c-.439 0-.868-.076-1.275-.227a.336.336 0 00-.233.63zm-1.958-2.401h-.138a.676.676 0 00-.665.798c.087.47.248.91.47 1.31a3.46 3.46 0 01-3.162-3.443c0-2.396 2.417-2.655 3.457-2.655 1.039 0 3.456.259 3.456 2.655 0 .465-.09.913-.267 1.335H15.09zm6.008-9.25c.185.35.41.9.41 1.509 0 .609-.223 1.157-.414 1.516a.334.334 0 00-.024-.062c-.174-.341-.382-.87-.382-1.454 0-.608.225-1.159.41-1.509zm-.493 3.445c-.346.179-.882.391-1.474.391-.608 0-1.159-.224-1.509-.41.35-.184.901-.409 1.51-.409.595 0 1.135.216 1.483.397l.03.014a.34.34 0 00-.04.017zm.493 3.392c-.185-.35-.41-.9-.41-1.509 0-.575.202-1.097.371-1.433a.334.334 0 00.03-.091c.193.358.419.91.419 1.524 0 .608-.225 1.16-.41 1.51zM9.85 15.135a.336.336 0 00-.01-.672h-.01c-2.229.068-4.195-.159-5.537-.639a4.376 4.376 0 01-3.121-4.211 4.403 4.403 0 014.516-4.397c1.278.02 2.278.368 3.168.74a.336.336 0 10.26-.62c-.952-.398-2.026-.77-3.414-.792A5.076 5.076 0 00.5 9.613c0 1.106.35 2.156 1.01 3.038a5.114 5.114 0 002.554 1.805c1.258.45 3.015.691 5.009.691.255 0 .515-.004.778-.012z" fill="#000"/>
  <path d="M15.763 11.853a.336.336 0 00-.475 0l-.236.236-.236-.236a.336.336 0 00-.475.476l.236.236-.236.236a.336.336 0 00.475.475l.236-.236.236.236a.335.335 0 00.475 0 .336.336 0 000-.475l-.236-.236.236-.236a.336.336 0 000-.476zM9.827 16.346H4.84a.501.501 0 00-.495.405.502.502 0 00.297.566c.08.035.164.069.248.103.18.073.474.193.557.26.458.864 1.35 1.777 2.495 1.777 1.25 0 2.183-1.074 2.602-1.995a.786.786 0 00-.717-1.116zm.106.838c-.364.797-1.12 1.601-1.99 1.601-.858 0-1.566-.775-1.912-1.439-.069-.132-.197-.23-.385-.328h4.181c.055 0 .085.034.098.053.013.02.03.062.008.113z" fill="#000"/>
</svg>
