<svg width="24" height="24" fill="none" xmlns="http://www.w3.org/2000/svg">
  <defs/>
  <path d="M19.42 8.3l-.046.045v14.738H4.638V8.345L4.592 8.3 12.006.886 19.42 8.3z" fill="#CFDCE5"/>
  <path d="M18.614 7.495V1.539h-3.426v2.53" fill="#FF6F52"/>
  <path d="M12.006 19.922a5.438 5.438 0 100-10.876 5.438 5.438 0 000 10.876z" fill="#415E72"/>
  <g fill="#FCD577">
    <path d="M16.367 14.422a1.76 1.76 0 01-2.473 1.609l-1.146-.507a1.276 1.276 0 00.535-1.102h3.084zM12.066 15.76v3.084a1.76 1.76 0 01-1.609-2.473l.508-1.146a1.277 1.277 0 001.101.535zM11.264 13.442a1.275 1.275 0 00-.535 1.101H7.645a1.76 1.76 0 012.473-1.609l1.146.508zM11.945 13.206V10.12a1.76 1.76 0 011.61 2.473l-.508 1.147a1.275 1.275 0 00-1.102-.535z"/>
    <path d="M11.945 13.206a1.275 1.275 0 011.34 1.277c0 .43-.212.809-.537 1.04a1.262 1.262 0 01-.742.238 1.277 1.277 0 01-.742-2.32c.194-.138.428-.224.681-.235z"/>
  </g>
  <path d="M22.705 11.039l-7.12-7.121V1.956h2.622v3.999a.402.402 0 00.803 0v-4.4a.402.402 0 00-.401-.402h-3.426a.401.401 0 00-.402.402v1.56L12.284.618a.402.402 0 00-.568 0L8.624 3.71a.402.402 0 10.568.568L12 1.469l6.967 6.968v14.26H5.033V8.437L8.268 5.2a.402.402 0 10-.567-.568L1.295 11.04a.402.402 0 10.568.568L4.23 9.24v13.858c0 .222.18.402.402.402h14.737c.222 0 .402-.18.402-.402V9.24l2.366 2.367a.4.4 0 00.568 0 .402.402 0 000-.568z" fill="#000"/>
  <path d="M8.212 10.578a.402.402 0 00-.567.032A5.83 5.83 0 006.16 14.5c0 3.22 2.62 5.839 5.84 5.839 3.22 0 5.839-2.62 5.839-5.84 0-3.22-2.62-5.84-5.84-5.84a5.8 5.8 0 00-3.392 1.087.402.402 0 00.467.653A5 5 0 0112 9.463a5.042 5.042 0 015.036 5.036A5.042 5.042 0 0112 19.535 5.042 5.042 0 016.964 14.5c0-1.24.455-2.43 1.28-3.354a.402.402 0 00-.032-.567z" fill="#000"/>
  <path d="M13.916 12.774a2.154 2.154 0 00-.165-2.055 2.154 2.154 0 00-1.811-.983.402.402 0 00-.402.402v2.746c-.107.03-.21.07-.309.122l-.954-.423a2.154 2.154 0 00-2.055.165 2.154 2.154 0 00-.983 1.812c0 .221.18.401.402.401h2.746c.03.107.071.21.122.309l-.423.954a2.155 2.155 0 00.165 2.055c.4.616 1.078.983 1.811.983.222 0 .402-.18.402-.402v-2.746c.107-.03.21-.07.31-.122l.953.422a2.161 2.161 0 003.038-1.976.402.402 0 00-.402-.401h-2.746c-.03-.107-.07-.21-.122-.31l.423-.954zm-.838-1.617c.255.392.293.863.103 1.291l-.28.634a1.685 1.685 0 00-.56-.227v-2.257c.3.09.558.283.737.559zm-4.42 2.264a1.336 1.336 0 011.291-.103l.634.28c-.108.171-.185.36-.227.56H8.099c.09-.3.284-.558.56-.737zm2.264 4.42a1.337 1.337 0 01-.103-1.292l.28-.633c.171.108.36.186.56.227V18.4c-.3-.09-.558-.283-.737-.559zm1.12-2.466h-.008l-.034.001a.88.88 0 01-.877-.877.878.878 0 011.592-.508.866.866 0 01.162.508.88.88 0 01-.368.714.862.862 0 01-.466.162zm3.3.202a1.336 1.336 0 01-1.291.103l-.634-.28c.109-.171.186-.36.228-.56H15.9c-.09.3-.284.558-.56.737z" fill="#000"/>
</svg>
