<svg width="24" height="24" fill="none" xmlns="http://www.w3.org/2000/svg">
  <defs/>
  <g fill="#345863">
    <path d="M5.836 23.131l-.545-.233a.415.415 0 01-.218-.544l2.427-5.68 1.308.558-2.427 5.68a.415.415 0 01-.545.22zM12.776 23.131l.545-.233a.415.415 0 00.218-.544l-2.427-5.68-1.308.558 2.427 5.68c.09.211.334.31.545.22z"/>
  </g>
  <path d="M12.607 17.58H6.118a.92.92 0 01-.92-.92V14.74h8.33v1.922a.92.92 0 01-.92.92z" fill="#676A75"/>
  <g>
    <path d="M20.61 15.367l-3.644-2.344V10.19l3.645-2.344a.573.573 0 01.883.483v6.556a.573.573 0 01-.883.482z" fill="#F43B45"/>
    <path d="M17.055 14.76h-1.656V8.454h1.656c.316 0 .572.256.572.572v5.162a.572.572 0 01-.572.572z" fill="#D6D6D6"/>
    <path d="M15.42 16.159H3.348a.842.842 0 01-.841-.842V7.894c0-.464.377-.841.841-.841h12.074c.464 0 .841.376.841.841v7.423a.842.842 0 01-.841.842z" fill="#345863"/>
    <path d="M15.42 7.054h-1.485v9.106h1.486a.842.842 0 00.841-.842V7.895a.842.842 0 00-.841-.841z" fill="#1E4751"/>
    <g>
      <path d="M12.473 7.845a2.634 2.634 0 100-5.268 2.634 2.634 0 000 5.268z" fill="#EDEDED"/>
      <path d="M12.473 2.577c-.42 0-.815.098-1.166.272a2.633 2.633 0 010 4.724 2.634 2.634 0 101.166-4.996z" fill="#D6D6D6"/>
      <path d="M12.472 6.008a.797.797 0 11.002-1.595.797.797 0 01-.002 1.595z" fill="#F43B45"/>
      <path d="M6.397 7.844a3.503 3.503 0 100-7.006 3.503 3.503 0 000 7.006z" fill="#EDEDED"/>
      <path d="M6.396.839c-.407 0-.799.07-1.163.198a3.504 3.504 0 010 6.61A3.503 3.503 0 106.396.84z" fill="#D6D6D6"/>
      <path d="M6.396 5.289a.948.948 0 010-1.894.948.948 0 010 1.894z" fill="#F43B45"/>
    </g>
  </g>
  <g fill="#000">
    <path d="M4.345 10.203h2.514a.337.337 0 100-.674H4.345a.337.337 0 100 .674zM4.345 11.667h2.514a.337.337 0 100-.674H4.345a.337.337 0 100 .674zM12.472 4.075a1.135 1.135 0 000 2.267 1.135 1.135 0 000-2.267zm0 1.594a.46.46 0 11.001-.92.46.46 0 010 .92zM6.396 3.056c-.708 0-1.284.576-1.284 1.284 0 .708.576 1.284 1.284 1.284.708 0 1.284-.576 1.284-1.284 0-.708-.576-1.284-1.284-1.284zm0 1.894a.61.61 0 11.001-1.221.61.61 0 010 1.22z"/>
    <path d="M21.357 7.528a.91.91 0 00-.928.033l-2.466 1.586v-.123a.91.91 0 00-.908-.909h-.456v-.222a1.18 1.18 0 00-1.178-1.178h-.389a2.974 2.974 0 00-2.56-4.477c-.957 0-1.81.455-2.353 1.16A3.847 3.847 0 006.396.5a3.844 3.844 0 00-3.84 3.84c0 .896.309 1.72.825 2.375h-.034A1.18 1.18 0 002.17 7.893v.572a.337.337 0 10.674 0v-.572c0-.278.226-.504.504-.504h.717a3.82 3.82 0 002.332.79 3.82 3.82 0 002.332-.79h1.728a2.96 2.96 0 002.016.79c.778 0 1.487-.3 2.017-.79h.932c.278 0 .504.226.504.504v4.091a.337.337 0 10.674 0V8.79h.456c.13 0 .235.105.235.235v5.162c0 .13-.106.235-.235.235h-.456v-1.089a.337.337 0 10-.674 0v1.984a.505.505 0 01-.504.505H3.347a.505.505 0 01-.504-.505V9.811a.337.337 0 10-.674 0v5.505c0 .65.529 1.179 1.178 1.179h1.514v.164c0 .693.564 1.257 1.257 1.257h.484L4.763 22.22a.747.747 0 00-.006.575.747.747 0 00.402.411l.545.233a.753.753 0 00.987-.396l2.191-5.127h.849l2.191 5.128a.753.753 0 00.987.395l.545-.233a.753.753 0 00.396-.986l-1.84-4.304h.598c.692 0 1.256-.564 1.256-1.257v-.164h1.557a1.18 1.18 0 001.178-1.179v-.221h.456a.91.91 0 00.908-.91v-.122l2.466 1.586a.909.909 0 001.402-.766V8.327a.91.91 0 00-.474-.8zM9.704 6.288c.058.148.128.291.208.427h-.5c.106-.135.204-.278.292-.427zM3.23 4.34a3.17 3.17 0 013.166-3.166A3.17 3.17 0 019.562 4.34a3.17 3.17 0 01-3.166 3.166A3.17 3.17 0 013.23 4.34zm9.242 3.166a2.3 2.3 0 01-2.297-2.297 2.3 2.3 0 012.297-2.297A2.3 2.3 0 0114.77 5.21a2.3 2.3 0 01-2.297 2.297zm-6.4 15.273a.078.078 0 01-.103.04l-.545-.232a.076.076 0 01-.042-.043.077.077 0 010-.06l1.953-4.568h.814l-2.078 4.863zm7.158-.294a.078.078 0 01-.04.102l-.546.233a.078.078 0 01-.102-.041l-2.078-4.863h.814l1.952 4.569zm-.04-5.826a.584.584 0 01-.582.583h-6.49a.584.584 0 01-.583-.583v-.164h7.655v.164zm7.967-1.776a.232.232 0 01-.123.208.231.231 0 01-.24-.01l-2.83-1.819V9.948l2.83-1.82a.231.231 0 01.24-.009c.037.02.123.081.123.208v6.556z"/>
  </g>
</svg>
