<svg width="24" height="24" fill="none" xmlns="http://www.w3.org/2000/svg">
  <defs/>
  <path d="M21.32 1.817c-.002 0-.433.432-.433.432l.864.864.431-.431.433-.433-.864-.864-.432.432z" fill="#FF6E1D"/>
  <path d="M21.065 3.464l-.53-.53-1.271 1.217.585.585 1.216-1.272z" fill="#F2484B"/>
  <path d="M13.984 10.866l2.343-2.45c.002 0 3.014-3.15 3.014-3.15l-.607-.608-3.15 3.013-5.69 5.444.991.99 2.086-2.18a.366.366 0 01.518-.011l.507-.53a.366.366 0 01-.012-.518z" fill="#274B6D"/>
  <path d="M16.531 9.264l-2.017 2.109a.365.365 0 01-.519.011l-.507.53c.147.14.152.372.012.518l-2.345 2.45a.367.367 0 01-.26.114h-.005a.367.367 0 01-.259-.107l-1.52-1.521a.367.367 0 01.005-.524l5.62-5.376a4.684 4.684 0 00-4.928.258 4.622 4.622 0 01-1.317 3.801 4.605 4.605 0 01-4.94 1.033 5.654 5.654 0 00-1.283 7.826l2.766-3.456a.367.367 0 01.545-.03l1.52 1.52a.367.367 0 01-.03.546l-3.456 2.766a5.654 5.654 0 007.826-1.284 4.605 4.605 0 011.033-4.94 4.622 4.622 0 013.801-1.317 4.684 4.684 0 00.258-4.927zm-10.87 5.88a1.133 1.133 0 01-.493.123.949.949 0 01-.672-.292.367.367 0 11.519-.518c.073.073.139.117.328.026.216-.103.474-.335.723-.558.288-.259.586-.526.896-.675.584-.28.98-.014 1.164.17a.367.367 0 01-.519.518c-.073-.073-.139-.117-.328-.027-.216.104-.474.335-.723.56-.288.258-.586.525-.896.673zm1.425.249a.367.367 0 01.518-.519l1.52 1.521a.367.367 0 01-.518.519l-1.52-1.521zm3.663 1.645c-.149.31-.416.607-.674.895-.224.25-.456.508-.56.723-.09.19-.045.256.028.328a.366.366 0 11-.519.519c-.184-.184-.45-.58-.17-1.164.15-.31.417-.608.675-.895.224-.25.455-.508.559-.724.09-.189.046-.255-.027-.328a.367.367 0 11.518-.518c.184.183.45.579.17 1.164z" fill="#FF6E1D"/>
  <path d="M3.031 21.258l3.261-2.609-.942-.942-2.609 3.261a5.92 5.92 0 00.29.29z" fill="#274B6D"/>
  <path d="M7.608 13.938a.367.367 0 00.518-.518c-.184-.184-.579-.45-1.164-.17-.31.15-.607.416-.895.675-.25.223-.508.455-.723.558-.19.091-.256.047-.329-.026a.367.367 0 10-.518.518.949.949 0 00.671.292c.145 0 .31-.035.493-.122.31-.15.608-.416.895-.675.25-.224.508-.455.723-.558.19-.091.256-.047.329.026zM10.062 15.874a.367.367 0 000 .518c.072.073.117.14.026.329-.103.215-.335.473-.558.723-.259.287-.526.585-.675.895-.28.585-.014.98.17 1.164a.365.365 0 00.518 0 .366.366 0 000-.518c-.073-.073-.117-.14-.026-.329.103-.215.335-.473.558-.723.259-.288.526-.585.674-.895.281-.585.015-.98-.169-1.164a.367.367 0 00-.518 0z" fill="#082947"/>
  <path d="M9.125 16.914a.367.367 0 000-.519l-1.52-1.52a.367.367 0 00-.52.518l1.522 1.52a.366.366 0 00.518 0z" fill="#F2EBD9"/>
  <path d="M23.392 1.99L22.01.607a.367.367 0 00-.519 0l-.432.432-.086-.086a.367.367 0 00-.518.518l.086.087-.432.432a.367.367 0 00-.075.41l-.583.557-.783-.783a.367.367 0 10-.518.518l.772.772-3.635 3.477a5.331 5.331 0 00-2.943-.79A5.33 5.33 0 009.19 7.27a.366.366 0 00-.137.35 3.887 3.887 0 01-1.08 3.388 3.9 3.9 0 01-4.318.8.367.367 0 00-.355.032 6.387 6.387 0 00-1.321 9.37l.004.005A6.36 6.36 0 006.876 23.5a6.359 6.359 0 005.283-2.8.367.367 0 00.031-.355 3.9 3.9 0 01.801-4.318 3.887 3.887 0 013.387-1.08.367.367 0 00.35-.137 5.33 5.33 0 001.121-3.155 5.33 5.33 0 00-.79-2.942l3.849-4.023.772.772a.366.366 0 00.518 0 .366.366 0 000-.519l-.783-.783.185-.194a.367.367 0 00.41-.075l.432-.432.086.086a.366.366 0 00.519 0 .367.367 0 000-.518l-.087-.087.432-.432a.367.367 0 000-.518zm-1.209.69c0 .002-.432.433-.432.433l-.864-.864.431-.432.433-.432.864.864-.432.432zm-9.71 12.829a4.58 4.58 0 00-1.28 2.453 4.603 4.603 0 00.246 2.487 5.654 5.654 0 01-7.826 1.283l3.457-2.766a.366.366 0 00.03-.546L5.58 16.9a.367.367 0 00-.546.03l-2.766 3.457A5.654 5.654 0 013.55 12.56a4.604 4.604 0 004.94-1.033 4.622 4.622 0 001.317-3.801 4.684 4.684 0 014.928-.258l-5.62 5.376a.367.367 0 00-.005.524l1.52 1.52a.367.367 0 00.26.108h.004a.366.366 0 00.26-.113l2.345-2.45a.367.367 0 00-.53-.508l-2.085 2.18-.99-.99 5.688-5.443 3.15-3.014.608.608-3.012 3.15c-.002 0-2.345 2.45-2.345 2.45a.366.366 0 10.53.507l2.018-2.11a4.684 4.684 0 01-.258 4.928 4.622 4.622 0 00-3.802 1.318zM5.35 17.708l.942.941-3.26 2.61a5.68 5.68 0 01-.29-.29l2.608-3.261zM20.535 2.935l.53.53-1.217 1.271-.585-.585 1.272-1.216z" fill="#082947"/>
</svg>
