<svg width="24" height="24" fill="none" xmlns="http://www.w3.org/2000/svg">
  <defs/>
  <path d="M22.097 18.752H1.903a1.066 1.066 0 01-1.066-1.066V6.314c0-.588.477-1.066 1.066-1.066h20.194c.589 0 1.066.478 1.066 1.066v11.372c0 .588-.477 1.066-1.066 1.066z" fill="#FFF9F0"/>
  <path d="M22.097 5.248h-1.348c.589 0 1.066.478 1.066 1.066v11.372c0 .588-.477 1.066-1.066 1.066h1.348c.588 0 1.066-.478 1.066-1.066V6.314c0-.588-.477-1.066-1.066-1.066z" fill="#FAE8DB"/>
  <path d="M19.873 12.714h-8.425a.952.952 0 110-1.904h8.425a.952.952 0 010 1.904z" fill="#FAC600"/>
  <path d="M19.873 12.714h-8.425a.952.952 0 110-1.904h8.425a.952.952 0 010 1.904z" fill="#D5DAF3"/>
  <path d="M15.182 11.762c0 .526.426.952.952.952h3.738a.952.952 0 100-1.904h-3.738a.952.952 0 00-.952.952z" fill="#4F66D0"/>
  <path d="M19.872 10.81h-1.348a.952.952 0 110 1.904h1.348a.952.952 0 000-1.904z" fill="#314DC9"/>
  <path d="M5.671 12.833a2.591 2.591 0 110-5.182 2.591 2.591 0 010 5.182z" fill="#FBC56D"/>
  <path d="M5.67 7.65c-.232 0-.458.032-.673.09a2.592 2.592 0 010 5.004 2.59 2.59 0 10.674-5.093z" fill="#E9B665"/>
  <g fill="#FED402">
    <path d="M11.306 16.323a.81.81 0 100-1.62.81.81 0 000 1.62zM14.372 16.323a.81.81 0 100-1.62.81.81 0 000 1.62zM17.44 16.323a.81.81 0 100-1.62.81.81 0 000 1.62zM20.506 16.323a.81.81 0 100-1.62.81.81 0 000 1.62z"/>
  </g>
  <path d="M11.448 13.051h8.425a1.291 1.291 0 001.29-1.29 1.29 1.29 0 00-1.29-1.288h-8.425a1.29 1.29 0 000 2.578zm8.425-1.904a.616.616 0 010 1.23h-3.739a.616.616 0 010-1.23h3.739zm-8.425 0h3.554a1.281 1.281 0 000 1.23h-3.554a.616.616 0 010-1.23zM4.468 14.7l-.383 1.412L3.7 14.7c-.013-.045-.056-.121-.2-.121-.146 0-.35.091-.35.24 0 .015.003.03.007.045l.573 1.87c.037.116.176.191.355.191.18 0 .32-.075.356-.19l.57-1.87c.003-.015.007-.03.007-.045 0-.15-.204-.241-.35-.241-.144 0-.187.076-.2.122zM5.535 14.768v1.947c0 .113.117.192.284.192.167 0 .284-.079.284-.192v-1.947c0-.115-.112-.19-.284-.19s-.284.075-.284.19zM6.994 14.579c-.127 0-.223.08-.223.189v1.947c0 .113.117.192.284.192.167 0 .284-.079.284-.192v-.616h.258c.507 0 .798-.276.798-.756v-.015c0-.483-.272-.75-.767-.75h-.634zm.603 1.062H7.34v-.556h.258c.155 0 .23.085.23.261v.034c0 .176-.075.261-.23.261z" fill="#000"/>
  <path d="M14.374 18.415H1.904a.73.73 0 01-.73-.73V6.316a.73.73 0 01.729-.73h4.11a.337.337 0 000-.674h-4.11C1.13 4.911.5 5.541.5 6.315v11.37c0 .774.63 1.404 1.403 1.404h12.471a.337.337 0 000-.674zM22.097 4.911H7.36a.337.337 0 000 .674h14.737a.73.73 0 01.73.73v11.37a.73.73 0 01-.73.73h-6.374a.337.337 0 000 .674h6.374c.774 0 1.403-.63 1.403-1.403V6.314c0-.773-.629-1.403-1.403-1.403z" fill="#000"/>
  <path d="M20.949 7.314H10.496a.337.337 0 100 .674H20.95a.337.337 0 100-.674zM10.496 9.45h7.1a.337.337 0 100-.674h-7.1a.337.337 0 100 .674zM11.306 16.66a1.148 1.148 0 000-2.293 1.148 1.148 0 000 2.292zm0-1.62a.473.473 0 11-.001.947.473.473 0 010-.947zM14.372 14.366a1.148 1.148 0 000 2.293c.632 0 1.147-.514 1.147-1.146 0-.633-.515-1.147-1.147-1.147zm0 1.62a.473.473 0 11.001-.947.473.473 0 010 .947zM16.292 15.513a1.148 1.148 0 002.293 0 1.148 1.148 0 00-2.293 0zm1.62 0a.473.473 0 11-.947-.001.473.473 0 01.946 0zM19.358 15.513a1.148 1.148 0 002.293 0c0-.632-.514-1.147-1.146-1.147-.632 0-1.147.514-1.147 1.147zm1.62 0a.473.473 0 11-.947-.001.473.473 0 01.947 0zM8.498 7.532a.337.337 0 00-.476 0L7.553 8a2.915 2.915 0 00-1.882-.687 2.931 2.931 0 00-2.928 2.928c0 .716.259 1.372.687 1.882l-.352.352a.337.337 0 10.476.476l.366-.365a2.913 2.913 0 001.751.583A2.931 2.931 0 008.6 10.242c0-.656-.217-1.263-.583-1.752l.482-.482a.337.337 0 000-.476zm-5.081 2.71A2.257 2.257 0 015.67 7.988c.53 0 1.018.184 1.403.491L3.91 11.645a2.243 2.243 0 01-.492-1.403zm4.509 0a2.257 2.257 0 01-2.255 2.254c-.47 0-.907-.145-1.268-.392l3.13-3.13c.248.36.393.798.393 1.268z" fill="#000"/>
</svg>
