<svg width="24" height="24" fill="none" xmlns="http://www.w3.org/2000/svg">
  <defs/>
  <path d="M13.896 23.163H3.111a1.462 1.462 0 01-1.462-1.462V2.3c0-.807.655-1.462 1.462-1.462h10.785c.808 0 1.462.655 1.462 1.462V21.7c0 .808-.654 1.462-1.462 1.462z" fill="#F6E266"/>
  <path d="M13.896.837h-.448c.073.173.113.364.113.564v15.887a4.976 4.976 0 01-4.976 4.977H1.762c.22.527.741.898 1.35.898h10.784c.807 0 1.462-.654 1.462-1.462V2.3c0-.807-.655-1.462-1.462-1.462z" fill="#F1D333"/>
  <path d="M3.226 21.982a.345.345 0 01-.345-.345v-19.2c0-.191.154-.346.345-.346h10.555c.19 0 .345.155.345.345v19.2c0 .192-.155.346-.345.346H3.226z" fill="#808B95"/>
  <path d="M13.78 2.091h-1.45V15.99a5.094 5.094 0 01-5.095 5.095H2.88v.553c0 .19.154.345.345.345h10.555c.19 0 .345-.154.345-.345v-19.2a.345.345 0 00-.345-.346z" fill="#5E6B75"/>
  <path d="M12.172 3.596v3.056H4.835V3.596h7.337z" fill="#D5D8F1"/>
  <path d="M10.376 3.596v1.192a.965.965 0 01-.966.966H4.836v.898h7.336V3.596h-1.796z" fill="#BEC3EA"/>
  <path d="M6.255 17.118l-.83-.83a.302.302 0 010-.427l4.9-4.902a.302.302 0 01.428 0l.83.83a.302.302 0 010 .428l-4.901 4.901a.302.302 0 01-.427 0z" fill="#B9C1CB"/>
  <path d="M11.583 11.79l-.83-.83a.302.302 0 00-.428 0l-.46.46.37.37a.302.302 0 010 .427l-4.441 4.441.46.46c.118.118.31.118.427 0l4.902-4.901a.302.302 0 000-.427z" fill="#A0AAB7"/>
  <path d="M10.328 10.958a3.58 3.58 0 00-4.904 4.904l4.904-4.904zM11.585 12.216L6.68 17.12a3.58 3.58 0 004.904-4.904z" fill="#B9C1CB"/>
  <path d="M11.585 12.216l-.85.85v.074a3.58 3.58 0 01-3.654 3.58l-.4.4a3.58 3.58 0 004.904-4.904zM4.925 14.114a3.56 3.56 0 00.498 1.748l4.904-4.904a3.562 3.562 0 00-1.748-.498l-3.654 3.654z" fill="#A0AAB7"/>
  <path d="M6.395 9.625h-1.56V7.906H7.12v.995c0 .4-.324.724-.724.724z" fill="#707DD3"/>
  <path d="M10.613 9.625h1.559V7.906H9.889v.995c0 .4.324.724.724.724z" fill="#E28086"/>
  <path d="M5.556 20.78a.752.752 0 100-1.504.752.752 0 000 1.504z" fill="#80BC93"/>
  <path d="M8.504 20.78a.752.752 0 100-1.504.752.752 0 000 1.504z" fill="#707DD3"/>
  <path d="M11.451 20.78a.752.752 0 100-1.504.752.752 0 000 1.504z" fill="#DD636E"/>
  <path d="M18.462 11.589h-1.288l-.189-3.794V5.349h1.666v2.446l-.19 3.794z" fill="#E28086"/>
  <path d="M18.38 3.702h-1.123l-.272 1.647h1.666l-.272-1.647z" fill="#DD636E"/>
  <path d="M21.778 16.19H20.49l-.19-3.794V9.95h1.666v2.446l-.19 3.794z" fill="#707DD3"/>
  <path d="M21.695 8.304h-1.122l-.271 1.646h1.665l-.271-1.646z" fill="#5766CB"/>
  <path d="M4.836 6.99h7.336c.186 0 .337-.152.337-.338V3.596a.337.337 0 00-.337-.337H4.836a.337.337 0 00-.337.337v3.056c0 .186.15.337.337.337zm.337-3.057h6.662v2.382H5.173V3.933zM11.822 11.551l-.83-.83a.64.64 0 00-.666-.15 3.916 3.916 0 00-5.738 3.468c0 .636.154 1.261.448 1.82a.64.64 0 00.15.667l.83.83a.637.637 0 00.667.15c.559.295 1.185.45 1.821.45a.337.337 0 100-.675c-.433 0-.86-.086-1.256-.252l4.246-4.246a3.246 3.246 0 01-1.606 4.19.337.337 0 00.288.608 3.916 3.916 0 001.796-5.364.64.64 0 00-.15-.666zm-3.318-.755c.434 0 .86.087 1.256.253l-4.246 4.246a3.246 3.246 0 012.99-4.499zm-2.816 5.278l4.852-4.852.78.781-4.851 4.852-.781-.78zM6.395 9.962c.585 0 1.061-.476 1.061-1.061v-.995a.337.337 0 00-.337-.336H4.836a.337.337 0 00-.337.336v1.719c0 .186.15.337.337.337h1.56zM5.173 8.243h1.61v.658a.387.387 0 01-.388.387H5.173V8.243zM12.172 7.57H9.889a.337.337 0 00-.337.336v.995c0 .585.476 1.06 1.06 1.06h1.56c.186 0 .337-.15.337-.336V7.906a.337.337 0 00-.337-.336zm-.337 1.718h-1.222a.387.387 0 01-.387-.387v-.658h1.61v1.045z" fill="#000"/>
  <path d="M9.036 4.787h-.784a.337.337 0 100 .674h.784a.337.337 0 100-.674zM10.941 4.787h-.784a.337.337 0 100 .674h.784a.337.337 0 100-.674zM5.556 21.117a1.09 1.09 0 000-2.178 1.09 1.09 0 000 2.178zm0-1.504a.416.416 0 11-.001.831.416.416 0 010-.831z" fill="#000"/>
  <path d="M22.351 9.613h-.098l-.225-1.364a.337.337 0 00-.332-.282h-.225V5.438a.337.337 0 10-.674 0v2.529h-.224a.337.337 0 00-.332.282l-.225 1.364h-.098a.337.337 0 000 .674h.047v2.126l.073 1.467a.337.337 0 10.673-.033l-.072-1.46v-2.1h.991v2.1l-.173 3.466h-.646l-.015-.316a.336.336 0 10-.674.034l.032.636c.01.179.157.32.337.32h.306v5.41a.89.89 0 01-.888.89h-4.61c.121-.152.219-.323.287-.508h1.007c.861 0 1.562-.701 1.562-1.563v-8.83h.307c.18 0 .327-.141.336-.32l.19-3.811v-2.11h.047a.337.337 0 100-.673h-.098l-.225-1.364a.337.337 0 00-.333-.283h-.224V.837a.337.337 0 00-.674 0v2.528h-.224a.337.337 0 00-.332.282L16.7 5.013H16.6a.337.337 0 100 .674h.048v2.126l.189 3.793c.009.18.157.32.336.32h.307v8.831a.89.89 0 01-.889.889h-.897V2.299A1.8 1.8 0 0013.896.5H3.111c-.991 0-1.799.807-1.799 1.799v19.402c0 .992.808 1.799 1.8 1.799h16.797c.861 0 1.562-.701 1.562-1.563v-5.41h.307c.18 0 .328-.141.336-.32l.19-3.81v-2.11h.047a.337.337 0 100-.674zM17.543 4.04h.55l.16.973h-.87l.16-.973zm-.22 1.647h.99v2.1l-.172 3.466h-.646l-.172-3.465V5.686zM1.986 21.7V2.299c0-.62.505-1.125 1.125-1.125h10.785c.62 0 1.125.505 1.125 1.125v19.346h-.558V2.436a.683.683 0 00-.682-.682H3.227a.683.683 0 00-.683.682v.673a.337.337 0 10.674 0v-.673c0-.004.004-.008.009-.008H13.78c.005 0 .008.004.008.008v19.2a.881.881 0 01-.504-.251l-.863-.863a1.09 1.09 0 00-.97-1.583 1.09 1.09 0 10.494 2.06l.646.646h-1.995l-1.123-1.123a1.09 1.09 0 00-.97-1.583A1.09 1.09 0 108.998 21l.646.646H3.227a.008.008 0 01-.009-.008V4.68a.337.337 0 10-.674 0v16.956c0 .376.306.682.683.682h7.091l.507.507H3.111c-.62 0-1.125-.505-1.125-1.125zm9.465-1.258a.416.416 0 11.002-.83.416.416 0 01-.002.83zm-2.947 0a.416.416 0 110-.83.416.416 0 010 .83zm3.643 2.383c-.505 0-.717-.38-.876-.507h3.565a1.125 1.125 0 01-.94.507h-1.75zm8.552-13.213l.16-.973h.55l.161.973h-.871z" fill="#000"/>
  <path d="M12.913 18.76a.337.337 0 100-.673.337.337 0 000 .674zM12.913 17.663a.337.337 0 100-.674.337.337 0 000 .674zM12.913 16.566a.337.337 0 100-.674.337.337 0 000 .674z" fill="#000"/>
</svg>
