<svg width="24" height="24" fill="none" xmlns="http://www.w3.org/2000/svg">
  <defs/>
  <path d="M.838 7.422v9.155c0 1.15.932 2.083 2.082 2.083h18.16c1.15 0 2.083-.932 2.083-2.082V7.421c0-1.15-.933-2.082-2.083-2.082H2.92c-1.15 0-2.082.932-2.082 2.082zm2.477 5.685a1.107 1.107 0 110-2.214 1.107 1.107 0 010 2.214z" fill="#FDDE2E"/>
  <path d="M21.08 5.34h-.166v8.989c0 1.15-.932 2.082-2.082 2.082H.838v.166c0 1.15.932 2.083 2.082 2.083h18.16c1.15 0 2.083-.932 2.083-2.082V7.421c0-1.15-.933-2.082-2.083-2.082z" fill="#F9C301"/>
  <path d="M23.162 8.342h-4.807a.873.873 0 00-.874.873v5.555c0 .482.391.873.874.873h4.807V8.342z" fill="#F9F0F0"/>
  <path d="M23.162 15.643V8.342h-2.248v5.987c0 .498-.176.956-.468 1.314h2.716z" fill="#F1E8E4"/>
  <path d="M21.08 5.002H6.857a.337.337 0 100 .675H21.08c.963 0 1.745.783 1.745 1.745v.582h-4.47c-.667 0-1.21.543-1.21 1.211v5.555c0 .667.543 1.21 1.21 1.21h4.47v.598c0 .533-.239 1.03-.656 1.363a.337.337 0 10.422.527c.578-.462.91-1.151.91-1.89V7.422a2.423 2.423 0 00-2.42-2.42zm-2.725 10.304a.537.537 0 01-.536-.536V9.215c0-.296.24-.536.536-.536h4.47v6.627h-4.47zM1.87 12c0 .796.648 1.444 1.445 1.444.796 0 1.444-.648 1.444-1.444 0-.796-.648-1.444-1.444-1.444-.797 0-1.445.648-1.445 1.444zm2.214 0a.77.77 0 11-1.54-.002.77.77 0 011.54.002z" fill="#000"/>
  <path d="M20.839 18.323H2.92a1.747 1.747 0 01-1.745-1.745V7.422c0-.962.783-1.745 1.745-1.745h2.376a.337.337 0 100-.675H2.92A2.423 2.423 0 00.5 7.422v9.156a2.423 2.423 0 002.42 2.42h17.919a.337.337 0 100-.675zM21.634 13.824h-2.395a.337.337 0 100 .675h2.395a.337.337 0 100-.675zM19.177 13.074h2.395a.337.337 0 100-.675h-2.395a.338.338 0 000 .675zM19.177 11.65h2.395a.337.337 0 100-.676h-2.395a.337.337 0 100 .675zM19.177 10.224h2.395a.338.338 0 000-.675h-2.395a.337.337 0 100 .675z" fill="#000"/>
  <path d="M15.458 8.465a.338.338 0 00-.478 0l-6.495 6.496a.338.338 0 10.477.477l6.496-6.495a.338.338 0 000-.478zM9.838 8.396c-.829 0-1.503.674-1.503 1.502 0 .83.674 1.503 1.503 1.503.828 0 1.503-.674 1.503-1.503 0-.828-.675-1.502-1.503-1.502zm0 2.33a.829.829 0 010-1.655.829.829 0 010 1.655zM14.055 12.491c-.83 0-1.503.674-1.503 1.503 0 .829.674 1.503 1.503 1.503.828 0 1.502-.674 1.502-1.503 0-.829-.674-1.503-1.502-1.503zm0 2.33a.829.829 0 010-1.655.829.829 0 010 1.656z" fill="#000"/>
</svg>
