<svg width="24" height="24" fill="none" xmlns="http://www.w3.org/2000/svg">
  <defs/>
  <g fill-rule="evenodd" clip-rule="evenodd">
    <path d="M12.8 17.874l-.775-.551-.825.55v2.394l.819.64.781-.64v-2.393z" fill="#838383"/>
    <path d="M12 17.874h.8v2.393H12v-2.393z" fill="#595959"/>
    <path d="M20.314 17.874l-.774-.551-.825.55v2.394l.823.74.776-.74v-2.393z" fill="#838383"/>
    <path d="M19.515 17.874h.8v2.393h-.8v-2.393z" fill="#595959"/>
    <path d="M5.286 17.874l-.776-.551-.824.55v2.394l.799.69.8-.69v-2.393z" fill="#838383"/>
    <path d="M19.635 1.85c-.76 0-1.447.31-1.941.812a2.72 2.72 0 001.941 4.624 2.72 2.72 0 001.94-4.624 2.708 2.708 0 00-1.94-.812zM19.789 20.267H1.742a.54.54 0 00-.539.54v.803c0 .297.242.54.539.54h20.286a.54.54 0 00.539-.54v-.803a.54.54 0 00-.539-.54H19.79z" fill="#ECECEC"/>
    <path d="M6.448 10.25H2.523c-.396 0-.72.36-.72.8v4.932l2.798 1.062 2.566-1.062V11.05c0-.44-.324-.8-.719-.8z" fill="#A6E7F0"/>
    <path d="M4.484 17.874h.801v2.393h-.8v-2.393z" fill="#595959"/>
    <path d="M6.418 10.25H5.353c.394.003.715.363.715.8v4.932h1.099V11.05a.827.827 0 00-.32-.663.661.661 0 00-.4-.137h-.029z" fill="#6BD9E7"/>
    <path d="M13.961 10.25h-3.923c-.396 0-.72.36-.72.8v4.932l2.797 1.062 2.566-1.062V11.05c0-.44-.324-.8-.72-.8z" fill="#A6E7F0"/>
    <path d="M13.934 10.25h-1.066c.393.003.716.363.716.8v4.932h1.097V11.05a.826.826 0 00-.318-.663.662.662 0 00-.401-.137h-.028z" fill="#6BD9E7"/>
    <path d="M21.477 10.25h-3.924c-.396 0-.719.36-.719.8v4.932l2.797 1.062 2.565-1.062V11.05c0-.44-.323-.8-.72-.8z" fill="#A6E7F0"/>
    <path d="M21.447 10.25h-1.064c.393.003.715.363.715.8v4.932h1.098V11.05a.826.826 0 00-.319-.663.665.665 0 00-.4-.137H21.446z" fill="#6BD9E7"/>
    <path d="M1.438 15.982h21.125a.6.6 0 01.598.598v.696a.6.6 0 01-.598.598H1.438a.599.599 0 01-.598-.598v-.696c0-.33.268-.597.598-.597z" fill="#03BED7"/>
    <path d="M22.563 15.982h-1.459a.597.597 0 01.593.598v.696a.6.6 0 01-.598.598h1.464a.601.601 0 00.598-.598v-.696a.601.601 0 00-.598-.597z" fill="#0099B1"/>
    <path d="M22.028 20.267H20.583c.297 0 .54.243.54.54v.803c0 .297-.243.54-.54.54h1.445a.54.54 0 00.539-.54v-.803a.54.54 0 00-.539-.54zM21.576 2.662a2.708 2.708 0 00-2.22-.798 2.724 2.724 0 011.832 2.397 2.722 2.722 0 01-2.438 2.88 2.72 2.72 0 002.826-4.478z" fill="#CECECE"/>
  </g>
  <path d="M22.562 15.643h-.027v-4.645c0-.6-.488-1.087-1.088-1.087h-3.865c-.6 0-1.088.488-1.088 1.087v4.645H15.02v-4.645c0-.6-.487-1.087-1.087-1.087h-3.866c-.6 0-1.088.488-1.088 1.087v4.645H7.506v-4.645c0-.6-.488-1.087-1.088-1.087H2.552c-.6 0-1.088.488-1.088 1.087v4.645h-.026a.939.939 0 00-.938.938v.695c0 .517.42.938.938.938h1.907v1.714H1.741a.88.88 0 00-.878.879v.804a.88.88 0 00.878.878h9.41a.34.34 0 100-.678h-9.41a.202.202 0 01-.2-.2v-.804c0-.108.092-.2.2-.2h20.287c.107 0 .199.092.199.2v.804c0 .108-.092.2-.2.2h-9.32a.34.34 0 100 .678h9.32a.88.88 0 00.878-.878v-.804a.88.88 0 00-.878-.879h-1.374v-1.715h1.91c.516 0 .937-.42.937-.937v-.695a.938.938 0 00-.938-.938zm-5.39-4.645a.41.41 0 01.41-.408h3.865a.41.41 0 01.41.408v4.645h-4.684v-4.645zm-7.514 0a.41.41 0 01.409-.408h3.866c.225 0 .408.183.408.408v4.645H9.658v-4.645zm-7.515 0a.41.41 0 01.409-.408h3.866a.41.41 0 01.41.408v4.645H2.142v-4.645zm1.881 7.216h.922v1.714h-.922v-1.715zm8.437 0v1.714h-.922v-1.715h.922zm5.914 0v1.714H13.14v-1.715h5.235zm1.6 1.714h-.92v-1.715h.92v1.715zm2.846-2.652a.259.259 0 01-.259.259H9.148a.34.34 0 100 .679h1.712v1.714H5.625v-1.714h1.888a.34.34 0 100-.68H1.438a.259.259 0 01-.259-.258v-.695c0-.143.116-.259.259-.259h21.124c.143 0 .26.116.26.259v.695zM19.635 7.627a3.03 3.03 0 002.23-.965 3.033 3.033 0 00.825-2.288 3.045 3.045 0 00-.872-1.949 3.033 3.033 0 00-2.183-.915c-.828 0-1.604.325-2.183.915a3.05 3.05 0 00-.872 1.948 3.03 3.03 0 00.822 2.288 3.033 3.033 0 002.233.966zm-2.378-3.21a2.372 2.372 0 01.679-1.516 2.365 2.365 0 011.7-.712 2.36 2.36 0 011.698.712c.402.407.642.945.678 1.515a2.361 2.361 0 01-.641 1.782c-.455.483-1.071.75-1.736.75a2.36 2.36 0 01-1.738-.752 2.358 2.358 0 01-.64-1.78z" fill="#000"/>
  <path d="M19.026 5.18h.74a.34.34 0 00.34-.339v-1.48a.34.34 0 10-.679 0V4.5h-.401a.34.34 0 100 .68z" fill="#000"/>
</svg>
