<svg width="24" height="24" fill="none" xmlns="http://www.w3.org/2000/svg">
  <defs/>
  <path d="M21.424 6.51v10.98L12 22.98 10.44 10.439 21.424 6.51z" fill="#FFB14E"/>
  <path d="M12 10.439v12.54l-9.423-5.49V6.51L12 10.44z" fill="#FF9356"/>
  <path d="M16.712 3.765L14.02 8.108l-6.73 1.147L2.577 6.51 12 1.02l4.712 2.745z" fill="#FFB14E"/>
  <path d="M21.423 6.51L12 12 7.288 9.255l9.424-5.49 4.711 2.745z" fill="#FFD86C"/>
  <g fill="#01121C">
    <path d="M21.944 6.501a.52.52 0 00-.004-.05c0-.005 0-.01-.002-.015a.529.529 0 00-.012-.06l-.002-.008a.532.532 0 00-.046-.11l-.006-.011a.504.504 0 00-.035-.053l-.003-.003a.524.524 0 00-.037-.043l-.012-.011a.557.557 0 00-.037-.033l-.012-.01a.498.498 0 00-.05-.033L12.262.57a.52.52 0 00-.524 0L2.316 6.06a.518.518 0 00-.05.034l-.013.01a.51.51 0 00-.085.085l-.003.004a.521.521 0 00-.035.053l-.006.01a.522.522 0 00-.022.045l-.007.015a.537.537 0 00-.017.051l-.002.008a.53.53 0 00-.013.06l-.001.015a.515.515 0 00-.004.05V17.49a.52.52 0 00.258.45l9.423 5.49a.524.524 0 00.121.05l.016.004a.497.497 0 00.047.01l.016.002a.533.533 0 00.124 0l.017-.002a.49.49 0 00.047-.01l.015-.004a.524.524 0 00.058-.02h.001a.515.515 0 00.058-.029c.001 0 .003 0 .004-.002l9.424-5.49a.52.52 0 00.258-.45V6.51v-.009zM12 11.398L8.322 9.255l8.39-4.887L20.39 6.51 12 11.398zm0-9.775l3.678 2.142-8.39 4.888L3.612 6.51 12 1.623zm8.903 15.568l-8.382 4.883v-2.112a.52.52 0 00-1.041 0v2.112l-8.383-4.883V7.416l3.936 2.292L11.48 12.3v5.581a.52.52 0 101.04 0V12.3l8.383-4.884v9.775z"/>
    <path d="M15.31 13.399a.52.52 0 00.712.188l1.903-1.11a.52.52 0 10-.524-.899l-1.903 1.11a.52.52 0 00-.188.71z"/>
  </g>
</svg>
