<svg width="24" height="24" fill="none" xmlns="http://www.w3.org/2000/svg">
  <defs/>
  <path fill-rule="evenodd" clip-rule="evenodd" d="M11.743 18.645c-.85 0-2.856.848-2.856 2.425v.004c-1.321.08-2.367.745-2.367 2.086h16.16c0-1.341-1.048-2.006-2.368-2.086v-.004c0-1.483-1.569-2.457-2.927-2.424-1.76-2.94-5.388-1.334-5.642 0z" fill="#B5722F"/>
  <path fill-rule="evenodd" clip-rule="evenodd" d="M3.549 1.748L1.303 5.174a2.019 2.019 0 00.58 2.787l1.969 1.29.384-.585.367-.559-1.968-1.29a.65.65 0 01-.186-.893l2.246-3.426a.65.65 0 01.892-.186l1.968 1.291.75-1.146-1.968-1.29a2.02 2.02 0 00-2.788.581zM13.516 9.515l-3.139 2.325-.065 2.56 6.054-2.051.637-1.486-.856-1.585-2.631.237z" fill="#64B0D9"/>
  <path fill-rule="evenodd" clip-rule="evenodd" d="M16.148 9.278l.218 3.07c.285.278.64.482 1.033.586.645.098.76-.25.738-.501l-.148-1.744-.147-1.743c-.022-.252-.192-.575-.814-.37a2.32 2.32 0 00-.88.702zM9.933 14.979L5.421 13.04 2.23 9.929l.379-.578L5.81 4.465l1.026-1.566c.354-.54 1.039-.723 1.522-.406l.922.605.517-.788a.946.946 0 011.305-.271l4.327 2.836c.433.284.555.87.271 1.305-1.922 2.933-3.844 5.866-5.768 8.799z" fill="#E6E6E6"/>
  <path fill-rule="evenodd" clip-rule="evenodd" d="M1.032 10.937l8.331 5.46c.196.13.463.074.591-.122l.354-.54a.428.428 0 00-.123-.592l-.251-.164-3.896-2.554L2.23 9.93l-.374-.246a.43.43 0 00-.592.122l-.354.54a.43.43 0 00.123.592z" fill="#64B0D9"/>
  <path d="M9.596 16.472a.425.425 0 01-.236-.07l-8.33-5.46a.434.434 0 01-.126-.6l.354-.54a.434.434 0 01.6-.123l.373.245 3.81 2.497 4.146 2.718c.2.13.255.398.125.599l-.354.54a.43.43 0 01-.362.194zm-8.561-5.54l8.33 5.46a.419.419 0 00.584-.12l.354-.54a.423.423 0 00-.122-.585l-.25-.164-3.896-2.553-4.183-2.743a.424.424 0 00-.585.121l-.354.54a.424.424 0 00.122.585z" fill="#64B0D9"/>
  <g fill-rule="evenodd" clip-rule="evenodd">
    <path d="M10.804 7.16l-.088 1.69a1.807 1.807 0 01-.289.85c-.567.865-1.761 1.084-2.668.49-.906-.594-1.181-1.776-.615-2.642.172-.262.403-.466.666-.605l1.505-.76c.37-.175 0 0 .785-.381.353-.14.725.044.73.54l-.026.818z" fill="#64B0D9"/>
    <path d="M16.907 20.216c-.947-.116-1.828.673-1.325 1.303l.002.003c.446.553 1.336.218 1.542-.986.023-.188-.045-.29-.219-.32zM13.56 19.847c-.93-.215-1.889.476-1.456 1.156l.001.002c.385.597 1.305.36 1.639-.817.042-.185-.014-.292-.185-.341z" fill="#50D960"/>
    <path d="M15.184 6.968l.517-.788a.946.946 0 00-.27-1.305l-1.023-.671c.431.285.552.87.269 1.303l-5.769 8.8 1.025.672.38-.578.803-1.226 2.4-3.66 1.668-2.547z" fill="#C2C7CC"/>
    <path d="M9.933 14.979l-.773-.507h.002l.771.507zm.25.164l-.25-.164-.771-.507c.194.13.25.395.12.59l-.353.54a.428.428 0 01-.591.124l1.025.67c.196.13.462.075.59-.121l.354-.54a.428.428 0 00-.123-.592zM10.716 8.845l.088-1.685.027-.817c-.003-.241-.092-.408-.223-.5a.535.535 0 00-.508-.041l-.05.025-.002.018-.023.699-.088 1.688a1.792 1.792 0 01-.29.852c-.51.777-1.529 1.033-2.388.642.135.177.303.334.5.464.907.594 2.1.375 2.668-.49.172-.263.267-.555.29-.85v-.005zM16.366 12.347l-.219-3.069-2.631.237-.005.006 1.693-.151.235 3.292.927-.315z" fill="#4A83C9"/>
    <path d="M22.679 23.16c0-1.341-1.048-2.006-2.368-2.086v-.004c0-1.296-1.198-2.204-2.407-2.39.154.392.235.8.235 1.222 0 1.24-.71 2.377-1.889 3.259h6.429z" fill="#8A541E"/>
  </g>
  <path d="M7.573 10.473a2.352 2.352 0 001.709.353 2.155 2.155 0 001.43-.94 2.15 2.15 0 00.344-1.017l.096-1.684v-.01l.01-.255.026-.613v-.024a.864.864 0 00-.384-.719c-.246-.158-.556-.172-.873-.039l-.014.007-.74.35-.006.003-1.512.755-.007.003A2.142 2.142 0 006.57 9.048a2.333 2.333 0 001.004 1.425zm-.145-2.739a1.46 1.46 0 01.537-.488l1.506-.752.729-.345c.1-.04.186-.046.236-.014.042.027.07.086.073.158l-.025.593-.01.264-.096 1.676a1.469 1.469 0 01-1.219 1.332 1.66 1.66 0 01-1.214-.252 1.657 1.657 0 01-.715-1.012 1.482 1.482 0 01.198-1.16z" fill="#000"/>
  <path d="M9.596 16.806c.25 0 .495-.121.642-.345l.354-.54a.767.767 0 00-.19-1.038l.13-.2 5.755-1.95a2.674 2.674 0 001.06.537c.092.014.178.02.26.02.265 0 .478-.073.635-.22a.796.796 0 00.233-.666l-.147-1.744-.148-1.743c-.023-.268-.145-.487-.343-.618-.233-.154-.541-.17-.915-.046a2.684 2.684 0 00-.947.7l-1.791.16 1.285-1.96.517-.788a1.284 1.284 0 00-.37-1.774L11.29 1.754a1.283 1.283 0 00-1.775.37l-.33.504-.638-.419-.038-.023-.017-.013L6.523.884A2.334 2.334 0 004.754.551a2.337 2.337 0 00-1.489 1.011L1.019 4.988a2.333 2.333 0 00-.333 1.768 2.336 2.336 0 001.011 1.488l.86.564-.426.65-.09-.058a.761.761 0 00-.577-.11.761.761 0 00-.485.33l-.355.54a.769.769 0 00.222 1.06l8.33 5.46c.13.086.276.126.42.126zm7.556-7.914c.187-.059.283-.044.311-.026.02.013.036.057.04.109l.148 1.742.148 1.745c.004.051-.004.097-.022.113-.024.023-.116.053-.31.026a1.998 1.998 0 01-.772-.412l-.19-2.66-.01-.14c.182-.21.407-.38.657-.497zm-1.319.755l.176 2.463-4.872 1.652 2.572-3.924 2.124-.19zM2.07 7.677a1.66 1.66 0 01-.719-1.059 1.659 1.659 0 01.236-1.258l2.246-3.426c.244-.372.62-.627 1.06-.719a1.66 1.66 0 011.258.237l1.053.69a1.59 1.59 0 00-.566.454l-.866-.568a.986.986 0 00-1.361.284L2.166 5.737a.975.975 0 00-.14.74c.055.259.205.48.423.623l.859.564-.378.577-.86-.564zM6.26 3.16l-.602.918L3.68 7.096l-.86-.564a.301.301 0 01-.129-.194.3.3 0 01.042-.228l2.246-3.426a.307.307 0 01.422-.088l.86.564zM1.192 10.53l.354-.54a.087.087 0 01.056-.037.087.087 0 01.066.013l.37.242.005.004a.164.164 0 01.005.003l3.175 2.08a.34.34 0 10.372-.567L2.699 9.83l1.36-2.074c0-.002.002-.003.003-.005l2.082-3.176.977-1.49c.252-.386.725-.524 1.053-.31l.921.606a.34.34 0 00.47-.098l.518-.788a.603.603 0 01.834-.174l4.327 2.837a.604.604 0 01.174.835l-2.182 3.328-.006.007-3.201 4.885-.002.003-.191.292-3.011-1.974a.34.34 0 00-.373.567l3.292 2.159.003.002.002.001.25.164a.09.09 0 01.025.121l-.354.54a.087.087 0 01-.055.036.088.088 0 01-.066-.012l-8.33-5.46a.09.09 0 01-.027-.122zM23.16 22.821h-.163c-.144-1.124-1.017-1.885-2.366-2.058-.07-.552-.333-1.06-.769-1.487-.589-.574-1.45-.936-2.289-.968-.483-.737-1.112-1.236-1.87-1.486a3.617 3.617 0 00-1.654-.131.34.34 0 00.097.672 2.941 2.941 0 011.345.104c.654.215 1.193.67 1.602 1.354a.338.338 0 00.3.165 2.854 2.854 0 011.995.776c.266.26.584.698.584 1.312 0 .18.14.328.319.339.565.034 1.816.244 2.02 1.408H6.888c.204-1.164 1.455-1.374 2.02-1.408a.343.343 0 00.318-.343c0-1.368 1.87-2.085 2.516-2.085a.34.34 0 00.334-.276c.057-.3.385-.654.856-.926a.34.34 0 00-.34-.588c-.543.314-.932.714-1.105 1.128-.463.06-1.1.27-1.68.662-.706.475-1.136 1.096-1.237 1.778-1.35.171-2.224.933-2.369 2.058h-.163a.34.34 0 100 .679H23.16a.34.34 0 000-.679z" fill="#000"/>
  <path d="M11.844 20.097a.936.936 0 00-.033 1.077l.009.015a.986.986 0 00.99.46c.562-.084 1.045-.608 1.26-1.369a.432.432 0 00.005-.017c.081-.358-.08-.643-.421-.742a.27.27 0 00-.018-.005c-.688-.159-1.442.085-1.792.581zm.866.88c-.13.02-.235-.03-.314-.148a.429.429 0 00-.006-.009c-.074-.116-.072-.218.008-.33.158-.224.566-.398 1-.329-.174.551-.476.785-.688.816zM16.097 22.12c.084 0 .17-.01.256-.033.55-.143.974-.715 1.108-1.494a.45.45 0 00.002-.016c.045-.367-.146-.634-.497-.695a.248.248 0 00-.018-.003c-.701-.086-1.425.237-1.722.768a.937.937 0 00.103 1.1c.2.242.476.373.768.373zm-.278-1.142c.134-.239.52-.455.96-.433-.114.567-.39.831-.597.885-.13.034-.242-.007-.334-.121l-.007-.009c-.08-.105-.087-.205-.022-.322z" fill="#000"/>
</svg>
