<svg width="24" height="24" fill="none" xmlns="http://www.w3.org/2000/svg">
  <defs/>
  <path d="M9.86 2.99v1.224h12.295a.612.612 0 000-1.223H9.859z" fill="#FFCC75"/>
  <path d="M9.125 2.99h-3.67v1.224h3.67V2.991z" fill="#98D9D5"/>
  <path d="M2.335 4.704c.354 0 1.316-.152 2.386-.41V2.91c-1.07-.258-2.032-.41-2.386-.41a1.102 1.102 0 000 2.202z" fill="#274B6D"/>
  <path d="M2.335 5.438c.499 0 1.67-.205 2.798-.49h17.021c.742 0 1.346-.603 1.346-1.345s-.604-1.346-1.346-1.346H5.134c-1.13-.284-2.3-.49-2.799-.49A1.837 1.837 0 00.5 3.603c0 1.011.823 1.835 1.835 1.835zm0-2.937c.353 0 1.315.152 2.386.41v1.383c-1.07.258-2.033.41-2.386.41a1.102 1.102 0 010-2.203zm20.431 1.102a.612.612 0 01-.612.611H9.86V2.991h12.295c.338 0 .612.274.612.612zM9.125 2.99v1.223h-3.67V2.991h3.67z" fill="#082947"/>
  <path d="M21.665 6.906H2.335c-.607 0-1.1.494-1.1 1.1v12.391c0 .608.493 1.102 1.1 1.102h19.33c.607 0 1.101-.494 1.101-1.102V8.007c0-.607-.494-1.101-1.1-1.101zM5.07 20.765a3.101 3.101 0 01-3.098-3.098 3.101 3.101 0 014.619-2.698c.176.1.238.323.139.5l-.013.02c.2.152.379.33.53.53l.02-.012c.177-.1.401-.038.5.139a3.099 3.099 0 01-2.697 4.619zm0-6.93a3.101 3.101 0 01-3.098-3.098A3.101 3.101 0 015.069 7.64a3.101 3.101 0 013.097 3.097 3.101 3.101 0 01-3.097 3.098zM12 20.765a3.101 3.101 0 01-3.097-3.098A3.101 3.101 0 0112 14.569a3.101 3.101 0 013.098 3.098A3.101 3.101 0 0112 20.765zm0-6.93a3.101 3.101 0 01-3.097-3.098A3.101 3.101 0 0112 7.64a3.101 3.101 0 013.098 3.097A3.101 3.101 0 0112 13.835zm6.932 6.93a3.101 3.101 0 01-3.098-3.098 3.101 3.101 0 013.098-3.098 3.101 3.101 0 013.098 3.098 3.101 3.101 0 01-3.098 3.098zm0-6.93a3.101 3.101 0 01-3.098-3.098 3.101 3.101 0 013.098-3.097 3.101 3.101 0 013.098 3.097 3.101 3.101 0 01-3.098 3.098z" fill="#F2EBD9"/>
  <path d="M5.068 8.374a2.366 2.366 0 00-2.364 2.363 2.366 2.366 0 002.364 2.364 2.366 2.366 0 002.363-2.364 2.366 2.366 0 00-2.363-2.363z" fill="#F2484B"/>
  <path d="M12 8.374a2.366 2.366 0 00-2.363 2.363A2.366 2.366 0 0012 13.101a2.366 2.366 0 002.364-2.364A2.366 2.366 0 0012 8.374z" fill="#FF6E1D"/>
  <path d="M18.932 8.374a2.366 2.366 0 00-2.364 2.363 2.366 2.366 0 002.364 2.364 2.366 2.366 0 002.364-2.364 2.366 2.366 0 00-2.364-2.363z" fill="#FFCC75"/>
  <path d="M6.715 15.49a.367.367 0 01-.487.118 2.363 2.363 0 10.899.899.367.367 0 01.118-.487c-.151-.2-.33-.38-.53-.53z" fill="#185F8D"/>
  <path d="M12 15.303a2.366 2.366 0 00-2.363 2.364A2.366 2.366 0 0012 20.03a2.366 2.366 0 002.364-2.363A2.366 2.366 0 0012 15.303z" fill="#6DA8D6"/>
  <path d="M18.932 15.303a2.366 2.366 0 00-2.364 2.364 2.366 2.366 0 002.364 2.363 2.366 2.366 0 002.364-2.363 2.366 2.366 0 00-2.364-2.364z" fill="#98D9D5"/>
  <path d="M21.665 6.172H2.335A1.837 1.837 0 00.5 8.007v12.39c0 1.012.823 1.836 1.835 1.836h19.33a1.837 1.837 0 001.835-1.835V8.007a1.837 1.837 0 00-1.835-1.835zm1.101 14.226c0 .607-.494 1.1-1.101 1.1H2.335a1.102 1.102 0 01-1.101-1.1V8.007c0-.607.494-1.101 1.101-1.101h19.33c.607 0 1.101.494 1.101 1.1v12.392z" fill="#082947"/>
  <path d="M5.068 7.64a3.101 3.101 0 00-3.097 3.097 3.101 3.101 0 003.097 3.098 3.101 3.101 0 003.098-3.098A3.101 3.101 0 005.068 7.64zm0 5.461a2.366 2.366 0 01-2.363-2.364 2.366 2.366 0 012.363-2.363 2.366 2.366 0 012.364 2.363 2.366 2.366 0 01-2.364 2.364zM12 7.64a3.101 3.101 0 00-3.098 3.097A3.101 3.101 0 0012 13.835a3.101 3.101 0 003.098-3.098A3.101 3.101 0 0012 7.64zm0 5.461a2.366 2.366 0 01-2.364-2.364A2.366 2.366 0 0112 8.374a2.366 2.366 0 012.364 2.363A2.366 2.366 0 0112 13.101zM18.932 7.64a3.101 3.101 0 00-3.098 3.097 3.101 3.101 0 003.098 3.098 3.101 3.101 0 003.097-3.098 3.101 3.101 0 00-3.097-3.097zm0 5.461a2.366 2.366 0 01-2.364-2.364 2.366 2.366 0 012.364-2.363 2.366 2.366 0 012.363 2.363 2.366 2.366 0 01-2.363 2.364zM12 14.57a3.101 3.101 0 00-3.098 3.097A3.101 3.101 0 0012 20.765a3.101 3.101 0 003.098-3.098A3.101 3.101 0 0012 14.569zm0 5.46a2.366 2.366 0 01-2.364-2.363A2.366 2.366 0 0112 15.303a2.366 2.366 0 012.364 2.364A2.366 2.366 0 0112 20.03zM18.932 14.57a3.101 3.101 0 00-3.098 3.097 3.101 3.101 0 003.098 3.098 3.101 3.101 0 003.097-3.098 3.101 3.101 0 00-3.097-3.098zm0 5.46a2.366 2.366 0 01-2.364-2.363 2.366 2.366 0 012.364-2.364 2.366 2.366 0 012.363 2.364 2.366 2.366 0 01-2.363 2.363zM7.267 16.007a.367.367 0 00-.14.5 2.363 2.363 0 11-.899-.9c.17.097.383.043.488-.118l.013-.02c.1-.177.037-.4-.14-.5a3.099 3.099 0 00-4.618 2.698 3.101 3.101 0 003.097 3.098 3.101 3.101 0 002.699-4.62.367.367 0 00-.5-.138z" fill="#082947"/>
</svg>
