<svg width="24" height="24" fill="none" xmlns="http://www.w3.org/2000/svg">
  <defs/>
  <path d="M19.674 5.495l-7.377 7.806 4.074 7.805h6.609l-3.306-15.61z" fill="#174461"/>
  <path d="M4.326 5.495l-.882 4.163L11.12 10.7l7.675-1.04.882-4.164H4.326z" fill="#FF4181"/>
  <path d="M1.02 21.106h15.351l2.424-11.448H3.445L1.02 21.106z" fill="#FFC0D5"/>
  <path d="M23.489 20.713L20.183 5.13l-.002-.007-.006-.023a.484.484 0 00-.01-.031l-.007-.02a.47.47 0 00-.014-.033l-.008-.017a.557.557 0 00-.018-.033l-.01-.014a.496.496 0 00-.023-.032l-.007-.01-.003-.004a.563.563 0 00-.029-.031l-.009-.01a.515.515 0 00-.04-.035l-.015-.01a.498.498 0 00-.029-.02l-.02-.013a.518.518 0 00-.13-.053l-.021-.005a.535.535 0 00-.035-.006c-.007 0-.013-.002-.02-.003a.49.49 0 00-.043-.002H14.087a1.54 1.54 0 012.449-.647.52.52 0 10.678-.79 2.578 2.578 0 00-4.205 1.436H7.022a1.54 1.54 0 012.449-.646.52.52 0 10.678-.79 2.579 2.579 0 00-4.205 1.437H4.326a.52.52 0 00-.509.412l-.882 4.16-.001.004L.51 20.713a.52.52 0 00.51.629h15.347a.52.52 0 00.51-.413l2.796-13.184L22.337 20.3H17.93a.52.52 0 000 1.04h5.05a.52.52 0 00.51-.628zM4.748 5.757h1.196a2.583 2.583 0 002.525 2.058.52.52 0 000-1.04 1.54 1.54 0 01-1.447-1.018h5.987a2.583 2.583 0 002.525 2.058.52.52 0 000-1.04 1.54 1.54 0 01-1.447-1.018h4.945l-.662 3.119H4.086l.662-3.119zm11.198 14.544H1.664L3.865 9.917H18.15L15.946 20.3z" fill="#01121C"/>
</svg>
