<svg width="24" height="24" fill="none" xmlns="http://www.w3.org/2000/svg">
  <defs/>
  <g fill-rule="evenodd" clip-rule="evenodd">
    <path d="M17.338 6.127v-.46a.467.467 0 00-.465-.465h-.694l-.715 1.214c0 .184.651.89.651.89.58.003 1.223-.593 1.223-1.179zM8.041 5.202h-.693a.467.467 0 00-.465.465v.46c0 .586.643 1.182 1.223 1.18-.043-.194.804-.697 1.064-1.176L8.04 5.202z" fill="#EDA93B"/>
    <path d="M.839 17.667v1.77a.448.448 0 00.44.423h.768l.762-1.301-.762-1.316H1.28a.447.447 0 00-.44.424z" fill="#E6E6E6"/>
    <path d="M.839 18.559v.85c0 .248.198.451.44.451h.768V18.56H.84z" fill="#A5ACB3"/>
    <path d="M23.159 17.757v1.768a.447.447 0 01-.44.424h-.769l-.761-1.3.761-1.316h.768c.234 0 .427.189.44.424z" fill="#E6E6E6"/>
    <path d="M23.16 18.649v.849a.448.448 0 01-.442.45h-.768v-1.3h1.21z" fill="#A5ACB3"/>
    <path d="M4.655 19.345l-.597.608.597.701a1.882 1.882 0 002.579-.77c.034-.518-.57-.539-.979-.539l-.92-.645-.68.645z" fill="#FCC368"/>
    <path d="M7.452 10.945c-2.053.382-2.29 1.7-2.798 3.754L3.938 16.5l.716 1.287 1.301.738 1.484-.71 1.47-3.54-1.457-3.33z" fill="#FFDDA6"/>
    <path d="M16.75 19.858a1.885 1.885 0 002.593.796l.502-.839-.502-.47-.792-.61-.829.61c-.183.25-.548.423-.972.513z" fill="#FCC368"/>
    <path d="M9.542 18.39c-.296.518-1.264.697-2.09.576v1.62c0 .745.298 1.155 1.05 1.431 1.496.548 5.22.563 6.994 0 .763-.243 1.05-.686 1.05-1.431v-1.648c-.811.118-1.759-.052-2.074-.549h-4.93z" fill="#64B0D9"/>
    <path d="M4.654 17.787l-.716.756.716.802h1.6l.635-.786-.741-.772H4.654z" fill="#E6E6E6"/>
    <path d="M16.547 10.945l-1.083 3.546 1.13 3.262 1.256.686 1.493-.653.55-1.286-.55-1.8c-.508-2.055-.745-3.373-2.796-3.755z" fill="#FFDDA6"/>
    <path d="M8.512 10.84c-.125.865.444 2.72 3.601 2.567 3.157-.156 3.593-1.634 3.593-2.56-.038 0-.076-.003-.116-.005-.647-.002-1.206-.248-1.499-.68l-1.952-1.18-2.164 1.068c-.255.476-.807.76-1.463.79z" fill="#FCC368"/>
    <path d="M7.452 10.945v6.406c0 2.66 9.068 2.548 9.095-.028v-6.378a7.12 7.12 0 00-.841-.098c-.306.89-1.793 1.555-3.593 1.555s-3.296-.675-3.601-1.562l-.171.005c-.33.018-.624.051-.889.1z" fill="#64B0D9"/>
    <path d="M8.106 7.307c.21.983.926 2.035 1.869 2.743a4.42 4.42 0 001.121.623c.74.275 1.295.274 2.033-.002.337-.125.66-.299.962-.51 1.019-.705 1.802-1.819 2.025-2.854.04-.194.064-.387.064-.572V4.523l-4.07-1.474-4.068 1.474v2.212c0 .185.022.378.064.572z" fill="#FFDDA6"/>
    <path d="M10.184 1.333c-1.221.537-2.142 1.607-2.142 3.19 3.553-.959 3.265 1.852 8.138 0 0-3.237-3.585-4.25-5.996-3.19z" fill="gray"/>
    <path d="M17.85 17.787l-.671.747.543.811h1.62l.861-.766-.86-.792H17.85z" fill="#E6E6E6"/>
    <path d="M19.343 17.787v4.646c0 .351.288.638.638.638h1.332c.35 0 .637-.287.637-.638V14.7a.64.64 0 00-.637-.638h-1.332a.64.64 0 00-.638.638v3.088z" fill="gray"/>
    <path d="M14.366 17.787H9.631l-.86.772.771.786h4.93l.579-.786-.685-.772z" fill="#E6E6E6"/>
    <path d="M14.365 17.787c-.005.166-.022.465-.018.763.004.325.032.648.125.795.315.498 1.262.667 2.074.549a2.54 2.54 0 00.203-.036c.424-.09.789-.264.972-.513a.616.616 0 00.129-.375V17.41c0-.155-.022-.785-1.304-.567l-1.455.246c-.649.11-.72.49-.726.697zM6.148 17.787v1.211c0 .128.039.244.107.347.175.262.546.444.979.538.072.016.143.028.218.039.826.12 1.794-.057 2.09-.577a.678.678 0 00.09-.347v-1.096c0-.028 0-.068-.002-.115-.013-.211-.104-.563-.724-.669l-1.454-.246c-1.282-.217-1.304.412-1.304.568v.347z" fill="#FCC368"/>
    <path d="M2.048 14.7v7.733c0 .351.288.638.638.638h1.332a.64.64 0 00.637-.638V14.7a.64.64 0 00-.637-.638H2.686a.64.64 0 00-.638.638z" fill="gray"/>
    <path d="M11.565.964c1.67.195 3.19 1.223 3.395 3.118.015.141.023.29.023.44v.394c.361-.098.758-.228 1.196-.393 0-2.657-2.416-3.816-4.614-3.559z" fill="#666"/>
    <path d="M14.984 5.444v1.291c0 .185-.022.378-.064.572-.183.853-.746 1.757-1.507 2.445a5.243 5.243 0 01-.516.41 4.41 4.41 0 01-.962.51 3.733 3.733 0 01-.421.13c.547.134 1.022.09 1.615-.13.337-.127.66-.3.962-.51 1.019-.706 1.802-1.82 2.025-2.855.04-.194.064-.387.064-.572V4.523a13.03 13.03 0 01-1.196.393v.528z" fill="#FCC368"/>
    <path d="M12.82 10.773c.288.29 1.27.997 2.02.997.439-.254.745-.57.865-.922l-.115-.006c-.648-.002-1.206-.248-1.5-.68-.301.21-.625.383-.961.51-.107.04-.21.073-.31.1z" fill="#EDA93B"/>
    <path d="M15.705 10.848c-.12.351-.426.668-.864.922.037 0 .08.005.118.007a7.194 7.194 0 01.84.097 3.827 3.827 0 01.747.21v-1.139a7.076 7.076 0 00-.84-.098z" fill="#4A83C9"/>
    <path d="M16.547 10.945v1.138c2.088.832 2.05 3.807 2.05 5.704h.746v-3.088c-.507-2.054-.745-3.372-2.796-3.754z" fill="#FCC368"/>
    <path d="M6.148 18.998c0 .128.039.244.107.347.175.262.546.444.979.538.072.016.143.028.218.039.826.12 1.794-.057 2.09-.577a.683.683 0 00.09-.347v-.779a.685.685 0 01-.09.347.965.965 0 01-.405.367c-.44.23-1.098.295-1.685.21a2.892 2.892 0 01-.218-.04 2.28 2.28 0 01-.61-.217 1.063 1.063 0 01-.369-.32.624.624 0 01-.107-.346v.778zM14.473 19.345c.314.498 1.262.667 2.074.549a2.55 2.55 0 00.203-.036c.424-.09.789-.264.972-.513a.617.617 0 00.129-.375v-.779a.633.633 0 01-.128.375c-.08.108-.195.203-.333.282-.18.103-.4.18-.64.23a3.307 3.307 0 01-.203.037c-.601.087-1.277.017-1.715-.227l-.016-.01a.975.975 0 01-.343-.312c-.057-.09-.09-.25-.107-.437-.004-.034-.006-.072-.009-.109-.005.154-.011.342-.009.53.002.123.007.245.018.36.003.037.008.074.012.109a.895.895 0 00.095.326z" fill="#CF973C"/>
    <path d="M2.048 21.31v1.123c0 .351.288.638.638.638h1.332a.64.64 0 00.637-.638V21.31a.64.64 0 01-.637.638H2.686a.64.64 0 01-.638-.638zM19.343 21.31v1.123c0 .351.288.638.638.638h1.332c.35 0 .637-.287.637-.638V21.31c0 .351-.286.638-.637.638h-1.332a.64.64 0 01-.638-.638z" fill="#666"/>
    <path d="M4.654 18.566v.779h1.6a.619.619 0 01-.106-.347v-.432H4.654zM9.633 18.566v.432a.682.682 0 01-.091.347h4.93v-.003a.89.89 0 01-.094-.323c-.004-.035-.01-.072-.012-.11a4.762 4.762 0 01-.018-.343H9.633zM17.85 18.566v.404c0 .14-.046.264-.128.375h1.62v-.779H17.85z" fill="#A5ACB3"/>
  </g>
  <path d="M22.719 16.993h-.429V14.7a.978.978 0 00-.976-.978h-1.332a.97.97 0 00-.497.136c-.228-.9-.457-1.63-.922-2.197-.444-.543-1.06-.879-1.935-1.044a7.133 7.133 0 00-1.036-.113c-.397-.002-.747-.11-.995-.298.854-.689 1.521-1.643 1.791-2.59.289-.063.58-.223.815-.455.302-.298.475-.675.475-1.033v-.46a.805.805 0 00-.805-.804h-.354v-.34c0-1.347-.595-2.477-1.676-3.183-1.329-.867-3.255-.995-4.795-.318-1.49.655-2.345 1.931-2.345 3.5v.34h-.354a.805.805 0 00-.805.805v.46c0 .358.173.735.476 1.033.235.232.525.392.814.456.257.904.877 1.815 1.676 2.495-.227.226-.58.367-.997.388h-.007l-.083.003-.1.004a7.455 7.455 0 00-.867.093h-.003a.339.339 0 00-.126.024c-.86.17-1.466.51-1.904 1.053-.456.566-.683 1.29-.909 2.181a.97.97 0 00-.496-.136H2.686a.979.979 0 00-.978.978v2.205H1.28c-.43 0-.78.354-.78.79v1.715c0 .436.35.79.78.79h.428v2.234c0 .539.44.977.978.977h1.332a.978.978 0 00.977-.977v-1.28a2.221 2.221 0 002.119-.549c.005.876.398 1.41 1.271 1.732.803.294 2.152.44 3.53.44 1.37 0 2.768-.145 3.685-.435.871-.278 1.28-.83 1.287-1.735a2.215 2.215 0 002.117.548v1.28c0 .538.438.976.978.976h1.332a.978.978 0 00.976-.977v-2.145h.429a.787.787 0 00.781-.79v-1.714c0-.436-.35-.79-.781-.79zm-6.2-10.258V5.542h.355c.068 0 .125.057.125.125v.46c0 .175-.102.38-.273.55a1.144 1.144 0 01-.21.163l.003-.105zm-9.022-.058c-.172-.17-.274-.375-.274-.55v-.46c0-.068.058-.125.126-.125h.354v1.193l.003.105a1.153 1.153 0 01-.21-.163zM1.709 19.52H1.28c-.055 0-.101-.052-.101-.112v-1.715c0-.06.046-.112.101-.112h.428v1.939zm2.607 1.128v1.784a.302.302 0 01-.298.298H2.686a.299.299 0 01-.298-.298V14.7c0-.162.136-.299.298-.299h1.332c.162 0 .298.137.298.3v5.95zm14.688-1.644h-.815l.001-.035v-.844h.814v.88zM10.321 1.643c1.339-.588 3.007-.481 4.151.266.59.384 1.285 1.105 1.362 2.38-2.437.884-3.41.515-4.44.124-.568-.215-1.15-.435-1.953-.435-.308 0-.648.032-1.033.11.18-1.463 1.251-2.154 1.913-2.445zM8.453 7.31v-.007a.337.337 0 00-.03-.134 2.392 2.392 0 01-.041-.433V4.788c1.296-.3 1.983-.039 2.772.26.584.222 1.21.46 2.112.46.673-.001 1.499-.133 2.575-.502v1.729c0 .14-.015.283-.042.428a.338.338 0 00-.032.14v.01c-.294 1.23-1.456 2.556-2.756 3.04-.664.247-1.134.248-1.796.002C9.91 9.87 8.747 8.543 8.453 7.309zm1.604 3.211c.293.193.603.353.921.471.408.152.77.227 1.133.227.364 0 .728-.076 1.137-.228.267-.1.528-.23.778-.382.277.272.654.455 1.091.532-.492.496-1.558.922-3.003.922-1.433 0-2.552-.446-3.043-.964.4-.105.742-.304.986-.578zm-5.062 4.22l.052-.212c.42-1.716.674-2.746 2.066-3.154v2.15a.34.34 0 00.68 0v-2.29c.156-.02.325-.036.505-.046.507.926 2.019 1.554 3.816 1.554 1.787 0 3.29-.621 3.802-1.538.101.009.198.02.292.032v2.288a.34.34 0 10.679 0v-2.15c1.392.41 1.646 1.443 2.065 3.154l.052.212v2.707h-.814v-.036a.872.872 0 00-.304-.694c-.23-.195-.56-.278-1-.254v-1.37a.34.34 0 10-.678 0v1.464l-1.173.198c-.368.063-.791.237-.947.692H9.901c-.163-.433-.577-.602-.938-.663l-1.17-.199v-1.493a.34.34 0 10-.68 0v1.4c-.44-.025-.768.059-.999.253a.873.873 0 00-.304.695v.007h-.815V14.74zm11.049 4.85c-.389 0-.755-.072-1.004-.198-.334-.168-.334-.36-.334-.422v-1.118c-.001-.157-.003-.352.443-.427l1.455-.247c.583-.099.784.007.844.057.045.039.064.09.064.176v1.559c0 .33-.686.62-1.468.62zm-2.016-.585H9.973v-.879h4.054v.844l.001.035zm-9.033-.879h.815v.879h-.815v-.879zm.572 2.424c-.197 0-.392-.038-.572-.11v-.756h1.102a1.6 1.6 0 00.475.334c.038.018.077.035.117.051-.288.303-.69.48-1.122.48zm.922-1.552V17.44c0-.087.018-.138.064-.176.041-.035.153-.098.417-.098.113 0 .252.011.426.04l1.453.247c.361.062.43.2.443.334a1.55 1.55 0 01.003.094v1.117c0 .031-.001.094-.042.17l-.01.018a.663.663 0 01-.283.234c-.249.126-.615.198-1.004.198-.782 0-1.467-.29-1.467-.62zm9.719 1.588c0 .627-.213.916-.814 1.108-1.665.527-5.338.53-6.775.005-.618-.228-.827-.509-.827-1.113v-.292c.054.002.11.003.164.003.499 0 .964-.096 1.31-.27.185-.094.335-.21.45-.343h4.593c.11.122.253.227.425.314.346.175.811.271 1.31.271.055 0 .11-.001.164-.003v.32zm2.224-.036c-.442 0-.851-.186-1.14-.501.047-.019.092-.038.136-.06.18-.085.33-.188.448-.305h1.128v.756c-.18.072-.375.11-.573.11zm3.18 1.883a.298.298 0 01-.298.298h-1.332a.299.299 0 01-.3-.298v-1.781-5.953c0-.162.138-.299.3-.299h1.332c.164 0 .297.134.297.3v7.733zm1.21-2.935c0 .06-.048.111-.103.111h-.429v-1.937h.429c.055 0 .102.052.102.112v1.714z" fill="#000"/>
  <path d="M10.546 7.068a.34.34 0 00.34-.34v-.382a.34.34 0 10-.68 0v.383c0 .187.152.34.34.34zM13.721 7.068a.34.34 0 00.34-.34v-.382a.34.34 0 00-.68 0v.383c0 .187.153.34.34.34z" fill="#000"/>
</svg>
