<svg width="24" height="24" fill="none" xmlns="http://www.w3.org/2000/svg">
  <defs/>
  <path d="M2.264 21.803c0 .751.609 1.36 1.36 1.36h16.753c.75 0 1.36-.609 1.36-1.36V4.035a1.36 1.36 0 00-1.36-1.36h-1.908l-.636-.732A3.21 3.21 0 0015.41.837H8.59a3.21 3.21 0 00-2.423 1.106l-.636.732H3.624a1.36 1.36 0 00-1.36 1.36v17.768z" fill="#5A67AD"/>
  <path d="M20.377 2.675h-.319v17.45a1.36 1.36 0 01-1.36 1.36H2.264v.318c0 .751.609 1.36 1.36 1.36h16.753c.75 0 1.36-.609 1.36-1.36V4.035a1.36 1.36 0 00-1.36-1.36z" fill="#4F5996"/>
  <path d="M8.318 6.564a.833.833 0 01-.833-.833V3.957c0-.46.373-.833.833-.833h7.364c.46 0 .833.373.833.833v1.774c0 .46-.373.833-.834.833H8.319z" fill="#ADDFF5"/>
  <path d="M15.682 3.124h-2.415c.46 0 .833.373.833.833V5.73c0 .46-.373.833-.833.833h2.415c.46 0 .833-.373.833-.833V3.957a.833.833 0 00-.833-.833z" fill="#9CCADE"/>
  <path d="M11.663 10.087v9.359a.337.337 0 10.674 0v-9.359a.337.337 0 00-.674 0zM15.681 6.228h-1.3a.337.337 0 100 .673h1.3c.646 0 1.17-.524 1.17-1.17V3.957c0-.645-.524-1.17-1.17-1.17H8.319c-.645 0-1.17.525-1.17 1.17v1.774c0 .646.525 1.17 1.17 1.17h4.356a.337.337 0 000-.673H8.318a.497.497 0 01-.496-.497V3.957c0-.273.223-.496.496-.496h7.364c.273 0 .496.223.496.496v1.774a.497.497 0 01-.497.497z" fill="#000"/>
  <path d="M20.377 2.338h-1.754C18.335 2.096 17.46.5 15.409.5H8.591C6.535.5 5.666 2.095 5.378 2.338H3.624c-.936 0-1.697.761-1.697 1.697V9.35a.337.337 0 00.674 0V4.035c0-.564.458-1.023 1.023-1.023H5.53c.098 0 .19-.043.255-.116l.635-.732a2.871 2.871 0 012.17-.99h6.819c.832 0 1.623.36 2.17.99l.634.732a.337.337 0 00.255.116h1.908c.564 0 1.023.458 1.023 1.022v17.77c0 .563-.46 1.022-1.023 1.022h-2.694v-2.055a.337.337 0 00-.674 0v2.055H6.99v-2.055a.337.337 0 00-.673 0v2.055H3.624A1.024 1.024 0 012.6 21.803V11.266a.337.337 0 10-.674 0v10.537c0 .936.761 1.697 1.697 1.697h16.753c.935 0 1.696-.761 1.696-1.697V4.035c0-.936-.76-1.697-1.696-1.697z" fill="#000"/>
</svg>
