<svg width="24" height="24" fill="none" xmlns="http://www.w3.org/2000/svg">
  <defs/>
  <path d="M12.576 17.24a5.817 5.817 0 11-11.633 0 5.817 5.817 0 0111.633 0z" fill="#636363"/>
  <path d="M9.345 17.24a2.585 2.585 0 11-5.17 0 2.585 2.585 0 015.17 0z" fill="#D5D8E0"/>
  <path d="M6.759 14.656h-.017a2.585 2.585 0 01-1.48 4.692 2.585 2.585 0 101.496-4.692z" fill="#B3B6BD"/>
  <path d="M6.76 11.424a5.87 5.87 0 00-.9.07 5.818 5.818 0 010 11.494 5.817 5.817 0 10.899-11.564z" fill="#424242"/>
  <path d="M21.179 20.594a2.464 2.464 0 11-4.927 0 2.464 2.464 0 014.927 0z" fill="#636363"/>
  <path d="M18.715 18.13c-.294 0-.576.052-.838.147a2.464 2.464 0 010 4.633 2.464 2.464 0 10.838-4.78z" fill="#424242"/>
  <path d="M2.609 3.698l-1.317-.931a.78.78 0 01.867-1.295l1.316.93-.866 1.296z" fill="#BDBDBD"/>
  <path d="M18.715 14.725v1.41H12.47A5.818 5.818 0 004.232 12V8.781h9.777a4.706 4.706 0 014.7 4.45l.006 1.494z" fill="#5B9ED6"/>
  <path d="M13.956 16.135a7.282 7.282 0 00-9.724-5.724V12a5.818 5.818 0 018.238 4.135h1.486z" fill="#4E87B8"/>
  <path d="M18.652 7.147h-3.101V5.38h3.101a.884.884 0 110 1.768z" fill="#BDBDBD"/>
  <path d="M23.163 20.138h-1.58a2.829 2.829 0 00-2.466-2.466v-3.121a.337.337 0 00-.674 0v1.086h-5.696c-.85-3.548-4.68-5.718-8.251-4.35v-2.4h9.532a4.412 4.412 0 014.408 4.173.337.337 0 10.673-.037 5.086 5.086 0 00-5.08-4.81V6.6h1.219v.555c0 .186.15.337.337.337h3.14c.673 0 1.22-.548 1.22-1.221v-.017c0-.673-.547-1.221-1.22-1.221h-3.14a.337.337 0 00-.337.337v.555H4.496v-2.25a.337.337 0 00-.15-.28l-.972-.65.3-.449a.337.337 0 00-.085-.462C1.8.57 2.368.967 2.252.89A1.125 1.125 0 00.998 2.755c1.321.895 1.34 1.039 1.583.994.214-.04.252-.227.418-.442l.822.55v7.738A6.215 6.215 0 00.5 17.09a6.216 6.216 0 006.21 6.21c3.712 0 6.628-3.263 6.16-6.989h5.573v1.361a2.828 2.828 0 00-2.487 2.803A2.827 2.827 0 0018.78 23.3a2.827 2.827 0 002.803-2.486h1.58a.337.337 0 000-.675zm-7.241-14.43h2.802c.302 0 .547.245.547.547v.017a.547.547 0 01-.547.547h-2.802v-1.11zM2.432 2.943c-1.408-.995-.965-.686-1.054-.746a.45.45 0 01.497-.749l1.057.748-.5.747zM13.355 6.6v1.612h-8.86V6.6h8.86zM6.709 22.625a5.541 5.541 0 01-5.535-5.535 5.542 5.542 0 015.535-5.535 5.537 5.537 0 015.535 5.535 5.541 5.541 0 01-5.535 5.535zm12.07 0a2.152 2.152 0 01-2.15-2.15c0-1.185.965-2.15 2.15-2.15 1.186 0 2.15.965 2.15 2.15 0 1.186-.964 2.15-2.15 2.15z" fill="#000"/>
  <path d="M7.567 14.399a.337.337 0 10-.205.642 2.142 2.142 0 011.498 2.05c0 1.184-.965 2.149-2.15 2.149a2.152 2.152 0 01-2.15-2.15c0-.94.602-1.764 1.497-2.049a.337.337 0 10-.204-.642 2.814 2.814 0 00-1.967 2.691 2.827 2.827 0 002.824 2.824 2.827 2.827 0 002.824-2.824c0-1.235-.79-2.317-1.967-2.691z" fill="#000"/>
</svg>
