<svg width="24" height="24" fill="none" xmlns="http://www.w3.org/2000/svg">
  <defs/>
  <path d="M20.805 8.868l-9.907 4.653 2.092 4.456 9.908-4.653-2.093-4.456z" fill="#8DE0A8"/>
  <path d="M17.843 4.82L8.805 9.065l2.092 4.456 9.039-4.245-2.093-4.456z" fill="#4EBFED"/>
  <path d="M14.596.906L6.712 4.609l2.093 4.456 7.884-3.703L14.596.906z" fill="#FF6F52"/>
  <path d="M12.188 23.095a3.012 3.012 0 100-6.024 3.012 3.012 0 000 6.024z" fill="#415E72"/>
  <path d="M12.187 21.366a1.284 1.284 0 100-2.567 1.284 1.284 0 000 2.567z" fill="#CFDCE5"/>
  <path d="M20.806 8.868l-11.594.848 1.685 3.806" fill="#3BA4BC"/>
  <path d="M16.689 5.362l-9.226.848 1.341 2.855" fill="#E25749"/>
  <path d="M13.539 20.137a.406.406 0 00-.52.244.879.879 0 11-.239-.951.406.406 0 10.543-.604 1.687 1.687 0 00-1.848-.273 1.691 1.691 0 00-.81 2.248 1.691 1.691 0 003.117-.145.405.405 0 00-.243-.52z" fill="#000"/>
  <path d="M22.086 14.988l-6.994 3.285a3.423 3.423 0 00-3.974-1.433L3.966 1.614A.406.406 0 003.6 1.38H1.095a.406.406 0 000 .811h2.247l7.042 14.992A3.422 3.422 0 009.1 21.536a3.422 3.422 0 004.546 1.64 3.396 3.396 0 001.762-1.933c.264-.73.27-1.51.029-2.236l5.369-2.522.394.839a.406.406 0 10.734-.345l-.394-.839.891-.418a.406.406 0 10-.345-.734zm-7.441 5.98a2.589 2.589 0 01-1.344 1.474 2.61 2.61 0 01-3.467-1.251 2.61 2.61 0 012.358-3.716 2.609 2.609 0 012.36 1.5c.296.63.329 1.337.093 1.992z" fill="#000"/>
  <path d="M15.094 17.398a.406.406 0 00.172-.038l4.141-1.945a.406.406 0 10-.345-.735l-4.141 1.945a.406.406 0 00.173.773z" fill="#000"/>
  <path d="M23.272 13.151L21.18 8.695a.405.405 0 00-.54-.195l-9.54 4.482L9.35 9.26l1.73-.812a.406.406 0 00-.345-.735l-1.73.813-1.748-3.722 7.15-3.359 1.749 3.722-4.11 1.93a.406.406 0 10.345.735l5.264-2.473 1.391 2.962a.406.406 0 10.734-.345l-1.563-3.329a.406.406 0 00-.54-.194l-.787.37-1.92-4.09a.406.406 0 00-.54-.194L6.545 4.242a.406.406 0 00-.195.54l5.245 11.166a.406.406 0 10.735-.345l-.887-1.887 9.174-4.309 1.748 3.722-1.992.936a.406.406 0 10.345.734l2.36-1.108a.406.406 0 00.194-.54z" fill="#000"/>
</svg>
