<svg width="24" height="24" fill="none" xmlns="http://www.w3.org/2000/svg">
  <defs/>
  <path d="M17.727 13.715a.745.745 0 01-.748.748H7.011a.748.748 0 01-.747-.748 1.585 1.585 0 011.588-1.588h8.288a1.588 1.588 0 011.587 1.588z" fill="#536B7C"/>
  <g fill="#CFDCE5">
    <path d="M16.253 21.217H7.738c0-.945.767-1.712 1.713-1.712h5.09c.945 0 1.712.767 1.712 1.712z"/>
    <path d="M12.583 14.464h-1.175v5.041h1.175v-5.041z"/>
  </g>
  <path d="M12.582 14.463h-1.175v1.644h1.175v-1.644z" fill="#BAC6CC"/>
  <path d="M12.89 10.005H11.1v2.123h1.79v-2.123z" fill="#CFDCE5"/>
  <g fill="#415E72">
    <path d="M9.065 23.123a.953.953 0 100-1.906.953.953 0 000 1.906zM14.925 23.123a.953.953 0 100-1.906.953.953 0 000 1.906z"/>
  </g>
  <path d="M12.42.877h-.85A4.352 4.352 0 007.22 5.229v2.887a1.89 1.89 0 001.89 1.89h5.773a1.89 1.89 0 001.89-1.89V5.229A4.352 4.352 0 0012.42.877z" fill="#536B7C"/>
  <path d="M8.426 8.116V5.229A4.351 4.351 0 0112.599.882a4.375 4.375 0 00-.18-.005h-.848a4.352 4.352 0 00-4.352 4.352v2.887a1.89 1.89 0 001.89 1.89h1.206a1.89 1.89 0 01-1.89-1.89z" fill="#415E72"/>
  <path d="M5.387 8.99H4.8c-.37 0-.67.299-.67.669v.624h1.926V9.66c0-.37-.3-.67-.67-.67z" fill="#CFDCE5"/>
  <path d="M17.727 13.715a.745.745 0 01-.748.748H7.011a.748.748 0 01-.747-.748c0-.084.006-.166.019-.247h11.425c.012.08.019.163.019.247z" fill="#415E72"/>
  <path d="M18.603 8.99h.587c.37 0 .67.299.67.669v.624h-1.926V9.66c0-.37.3-.67.67-.67z" fill="#CFDCE5"/>
  <path d="M12.89 10.005H11.1v1.062h1.79v-1.062z" fill="#BAC6CC"/>
  <path d="M13.584 7.258a.377.377 0 100-.755.377.377 0 000 .755zM10.416 7.258a.377.377 0 100-.755.377.377 0 000 .755zM13.584 4.542a.377.377 0 100-.754.377.377 0 000 .754zM10.416 4.542a.377.377 0 100-.754.377.377 0 000 .754z" fill="#000"/>
  <path d="M19.195 8.612h-.586c-.578 0-1.047.468-1.047 1.047v.624c0 .209.169.377.377.377h.567v2.79c0 .285-.19.528-.45.608a1.12 1.12 0 00.053-.342 1.967 1.967 0 00-1.964-1.965h-2.872v-1.369h1.615a2.266 2.266 0 002.266-2.266V5.229c0-.896-.246-1.753-.715-2.501a.376.376 0 10-.642.395c.395.63.603 1.351.603 2.106v2.887c0 .835-.677 1.512-1.512 1.512H9.114A1.514 1.514 0 017.6 8.116V5.229a3.975 3.975 0 013.975-3.975h.85c.911 0 1.803.317 2.508.892a.377.377 0 00.477-.584A4.74 4.74 0 0012.425.5h-.85a4.729 4.729 0 00-4.728 4.729v2.887a2.27 2.27 0 002.267 2.266h1.615v1.369H7.856a1.966 1.966 0 00-1.964 1.965c0 .119.019.234.053.342a.639.639 0 01-.45-.609V10.66h.567a.377.377 0 00.377-.377V9.66c0-.579-.469-1.047-1.047-1.047h-.586c-.579 0-1.047.468-1.047 1.047v.624c0 .209.169.377.377.377h.605v2.79c0 .767.624 1.39 1.391 1.39h6.079v4.287h-.42v-3.646a.386.386 0 00-.329-.386.377.377 0 00-.426.374v3.658h-1.58a2.092 2.092 0 00-2.09 2.092c0 .208.17.375.377.375h.129a1.328 1.328 0 001.058 1.899 1.332 1.332 0 001.34-1.899h3.462a1.332 1.332 0 102.52.743 1.329 1.329 0 00-.122-.743h.128a.376.376 0 00.377-.372 2.093 2.093 0 00-.694-1.56.377.377 0 00-.504.56c.186.168.32.382.39.618H8.174a1.338 1.338 0 011.282-.959h5.077a.386.386 0 00.387-.328.377.377 0 00-.374-.426h-1.58V14.84h4.903c.767 0 1.391-.623 1.391-1.39v-2.79h.605a.377.377 0 00.377-.377V9.66c0-.579-.469-1.047-1.047-1.047zM4.513 9.906v-.247c0-.162.131-.293.293-.293h.586c.161 0 .293.131.293.293v.247H4.513zM14.93 21.594a.576.576 0 110 1.153.576.576 0 010-1.153zm-5.86 0a.576.576 0 110 1.153.576.576 0 010-1.153zm2.413-11.212h1.035v1.369h-1.035v-1.369zm5.502 3.704H7.017a.37.37 0 01-.37-.37c0-.668.542-1.21 1.21-1.21h8.288c.667 0 1.21.542 1.21 1.21a.37.37 0 01-.37.37zm2.503-4.18h-1.172v-.247c0-.162.131-.293.293-.293h.586c.162 0 .293.131.293.293v.247z" fill="#000"/>
</svg>
