<svg width="24" height="24" fill="none" xmlns="http://www.w3.org/2000/svg">
  <defs/>
  <path d="M14.6 17.122a6.647 6.647 0 10-9.4-9.4 6.647 6.647 0 009.4 9.4z" fill="#808B95"/>
  <path d="M12.042 6.126a6.648 6.648 0 01-5.884 11.79 6.648 6.648 0 105.884-11.79z" fill="#5E6B75"/>
  <path d="M9.902 16.757a4.335 4.335 0 100-8.67 4.335 4.335 0 000 8.67z" fill="#F6F9F9"/>
  <path d="M10.991 8.226c1 .795 1.641 2.02 1.641 3.394a4.34 4.34 0 01-5.423 4.196c.74.589 1.677.941 2.694.941a4.34 4.34 0 004.334-4.335 4.343 4.343 0 00-3.246-4.196z" fill="#E7ECF1"/>
  <path d="M9.903 12.96a.538.538 0 100-1.076.538.538 0 000 1.077z" fill="#707DD3"/>
  <g fill="#5E6B75">
    <path d="M9.38 10.67V9.133c-.829.132-1.557.57-2.065 1.195l1.33.767c.147.085.33.086.477 0l.02-.013a.474.474 0 00.238-.412zM11.161 11.095l1.329-.767a3.332 3.332 0 00-2.065-1.194v1.536c0 .17.09.328.238.412l.02.012c.147.087.33.086.478 0zM8.361 12.424v-.003a.483.483 0 00-.238-.422l-1.33-.768a3.314 3.314 0 000 2.386l1.33-.768a.483.483 0 00.238-.425zM13.013 11.23l-1.33.769a.484.484 0 00-.239.422v.006c0 .173.088.335.239.422l1.33.768a3.315 3.315 0 000-2.386zM8.644 13.753l-1.329.767a3.332 3.332 0 002.065 1.194v-1.536a.474.474 0 00-.258-.425.475.475 0 00-.478 0zM10.425 14.178v1.536a3.332 3.332 0 002.065-1.194l-1.329-.767a.475.475 0 00-.478 0l-.02.012a.474.474 0 00-.238.413z"/>
  </g>
  <path d="M21.841 13.529h-5.383a6.653 6.653 0 01-5.58 5.47c.122.035.25.055.382.055H21.84c.75 0 1.358-.608 1.358-1.357v-2.81c0-.75-.608-1.358-1.358-1.358zM21.841 2.478H11.26c-.75 0-1.358.608-1.358 1.358v1.938c1.976 0 3.75.862 4.967 2.23h6.972c.75 0 1.358-.608 1.358-1.358v-2.81c0-.75-.608-1.358-1.358-1.358z" fill="#808B95"/>
  <path d="M21.841 8.004H14.87a6.623 6.623 0 011.59 5.525h5.382c.75 0 1.358-.608 1.358-1.358v-2.81c0-.75-.608-1.357-1.358-1.357z" fill="#808B95"/>
  <path d="M21.841 13.529h-.366c.076.17.118.357.118.555v2.81c0 .75-.607 1.357-1.357 1.357h-7.135a6.603 6.603 0 01-2.222.748c.12.035.248.055.38.055h10.582c.75 0 1.358-.608 1.358-1.357v-2.81c0-.75-.608-1.358-1.358-1.358zM21.842 2.478h-.366c.076.17.118.358.118.555v2.81c0 .75-.608 1.358-1.357 1.358h-6.22c.308.242.593.51.853.803h6.972c.75 0 1.357-.608 1.357-1.358v-2.81c0-.75-.607-1.358-1.357-1.358z" fill="#5E6B75"/>
  <path d="M21.842 8.004h-.366c.076.17.118.357.118.555v2.81c0 .75-.608 1.357-1.357 1.357h-3.693c-.012.272-.041.54-.085.803h5.383c.75 0 1.357-.608 1.357-1.358v-2.81c0-.75-.607-1.357-1.357-1.357z" fill="#5E6B75"/>
  <path d="M9.602 17.82a.3.3 0 00.3.3 5.695 5.695 0 005.699-5.698 5.66 5.66 0 00-1.67-4.029.3.3 0 10-.425.426 5.063 5.063 0 011.492 3.603 5.093 5.093 0 01-5.095 5.096.3.3 0 00-.301.302zM9.903 6.725a5.66 5.66 0 00-4.029 1.668 5.66 5.66 0 00-1.669 4.03 5.66 5.66 0 001.669 4.028.3.3 0 00.426 0 .3.3 0 000-.425 5.062 5.062 0 01-1.493-3.604c0-1.36.53-2.64 1.493-3.603a5.063 5.063 0 013.603-1.492.301.301 0 000-.602z" fill="#000"/>
  <path d="M9.902 7.787a4.641 4.641 0 00-4.635 4.635 4.641 4.641 0 004.635 4.636 4.594 4.594 0 002.767-.918.3.3 0 10-.36-.482c-.7.522-1.532.798-2.407.798a4.038 4.038 0 01-4.033-4.034A4.038 4.038 0 019.902 8.39a4.038 4.038 0 014.034 4.034c0 .806-.238 1.584-.688 2.25a.301.301 0 00.499.338 4.608 4.608 0 00.791-2.588 4.641 4.641 0 00-4.636-4.636z" fill="#000"/>
  <path d="M10.742 12.422a.84.84 0 00-1.679 0 .84.84 0 001.68 0zm-1.077 0a.238.238 0 11.476.001.238.238 0 01-.476 0zM7.165 10.587l1.329.767c.24.138.539.14.781-.002l.016-.01a.776.776 0 00.39-.674V9.132a.301.301 0 00-.347-.297 3.628 3.628 0 00-2.252 1.301.301.301 0 00.083.45zM9.08 9.506v1.162a.173.173 0 01-.086.151l-.024.014a.174.174 0 01-.175 0l-1.005-.58c.362-.354.805-.61 1.29-.747zM10.53 11.352c.238.14.537.143.78.002l1.33-.767a.301.301 0 00.083-.45 3.627 3.627 0 00-2.252-1.302.3.3 0 00-.348.297v1.536c0 .28.15.538.39.675l.016.01zm.195-1.846c.485.136.927.393 1.29.746l-1.005.58a.174.174 0 01-.175.001l-.024-.014a.173.173 0 01-.086-.15V9.505zM6.693 10.946a.3.3 0 00-.18.175 3.609 3.609 0 000 2.602.3.3 0 00.43.153l1.33-.768c.24-.139.39-.4.39-.683v-.005a.787.787 0 00-.39-.683l-1.33-.768a.3.3 0 00-.25-.023zm1.28 1.312a.182.182 0 01.087.162v.006c0 .069-.032.13-.088.161l-1.006.581a3.009 3.009 0 010-1.491l1.006.58zM13.113 13.9a.301.301 0 00.18-.177 3.609 3.609 0 000-2.602.3.3 0 00-.43-.152l-1.33.768c-.24.139-.39.4-.39.684v.004c0 .283.15.544.39.683l1.33.768a.301.301 0 00.25.023zm-1.28-1.313a.181.181 0 01-.088-.16v-.008c0-.069.033-.13.089-.161l1.006-.581a3.012 3.012 0 010 1.491l-1.006-.581zM9.334 16.01a.298.298 0 00.242-.068.301.301 0 00.106-.23v-1.535c0-.28-.15-.538-.39-.675l-.017-.01a.777.777 0 00-.781-.001l-1.329.767a.3.3 0 00-.083.45 3.627 3.627 0 002.252 1.302zm-.54-1.998a.174.174 0 01.176 0l.024.013c.053.03.086.088.086.152v1.162a3.023 3.023 0 01-1.29-.747l1.005-.58zM10.229 15.942a.302.302 0 00.242.068 3.628 3.628 0 002.252-1.302.301.301 0 00-.083-.45l-1.33-.767a.777.777 0 00-.78.002l-.017.01a.776.776 0 00-.39.674v1.536c0 .088.039.171.106.229zm.496-1.765c0-.064.033-.121.086-.152l.024-.014a.177.177 0 01.175 0l1.005.581c-.363.354-.806.61-1.29.747v-1.162z" fill="#000"/>
  <path d="M21.841 2.177H11.26A1.66 1.66 0 009.6 3.836V5.48a6.922 6.922 0 00-1.935.36.301.301 0 10.194.57 6.354 6.354 0 018.3 7.074 6.363 6.363 0 01-5.322 5.217h-.007a6.354 6.354 0 01-7.276-6.28 6.346 6.346 0 013.069-5.435.301.301 0 00-.311-.515 6.948 6.948 0 00-3.36 5.951 6.957 6.957 0 007.908 6.884c.131.032.265.049.399.049H21.84a1.66 1.66 0 001.659-1.659v-2.81c0-.56-.28-1.057-.707-1.357.427-.3.707-.797.707-1.358v-2.81c0-.56-.28-1.057-.707-1.357.427-.3.707-.797.707-1.358v-2.81a1.66 1.66 0 00-1.659-1.659zm1.057 8.288h-3.46a.3.3 0 100 .602h3.46v.602H16.81a6.968 6.968 0 00-.092-.602h1.314a.3.3 0 100-.602H16.57a6.889 6.889 0 00-.208-.602h6.535v.602zm-7.955 6.737c.18-.191.35-.392.51-.602h7.445v.602h-7.955zm5.134 1.551l-.949-.95h.908l.95.95h-.909zm-1.759 0l-.949-.95h.908l.95.95h-.909zm-1.759 0l-.949-.95h.908l.95.95h-.909zm-1.759 0l-.755-.755c.085-.063.168-.128.25-.194h.464l.95.949H14.8zm1.383-3.357h6.715v.602h-7.039c.118-.195.226-.396.324-.602zm2.094-8.65l.957.957h-.908l-.957-.957h.908zm.065 2.515l-.956-.956h.907l.957.956h-.908zm-1.824-2.515l.957.957h-.908l-.957-.957h.908zm.016 1.559l.957.956h-1.4a6.968 6.968 0 00-.594-.956h1.037zm.835 6.489l.964-.964h.908l-.964.964h-.908zm.017-1.566l.956-.957h.908l-.957.957h-.907zm-.553-.3a6.963 6.963 0 00.017-.657h.641l-.658.658zm-.125.902h.774l-.964.964h-.083c.113-.312.205-.634.273-.964zm4.18.964l.963-.964c.547.005.996.428 1.043.964h-2.007zm-.852 0h-.908l.964-.964H21l-.964.964zm-.891-1.566l.956-.957h.908l-.957.957h-.907zM20.1 9.26l-.956-.956h.907l.957.956h-.908zm.077-1.558h-.093l-.957-.957h.908l.957.957h-.815zm.71-.957h2.005c-.05.535-.501.955-1.05.957l-.956-.957zm-8.008-.602a6.893 6.893 0 00-1.998-.602h12.016v.602H12.88zm10.018-1.806v.602H10.203v-.602h12.695zM13.957 2.78L13 3.736h-.908l.957-.957h.908zm1.758 0l-.956.957h-.908l.957-.957h.908zm1.76 0l-.957.957h-.908l.957-.957h.908zm1.759 0l-.957.957h-.908l.957-.957h.908zm1.759 0l-.957.957h-.908l.957-.957h.908zm1.9.957h-2.006l.957-.957c.548.002.999.422 1.05.957zM11.26 2.78h.938l-.957.957h-1.033c.05-.536.503-.957 1.052-.957zm2.647 3.967h.852l.957.957h-.718a7.005 7.005 0 00-1.091-.957zm-.368 11.596l.41.411h-1.181c.266-.12.523-.258.77-.41zm8.302.411h-.005l-.949-.95h2.005c-.053.533-.504.95-1.05.95zm-.937-5.525l.956-.957h1.033c-.05.536-.503.957-1.052.957h-.937zm1.99-3.967H21.86l-.956-.956h.937c.55 0 1.002.42 1.052.956z" fill="#000"/>
</svg>
