<svg width="24" height="24" fill="none" xmlns="http://www.w3.org/2000/svg">
  <defs/>
  <path d="M10.587 5.551v4.026H4.833V3.823h4.026c.955 0 1.728.774 1.728 1.728z" fill="#FCD577"/>
  <path d="M10.587 5.551v2.335H7.18V3.823h1.678c.955 0 1.729.774 1.729 1.728z" fill="#CFDCE5"/>
  <path d="M8.027 23.13H2.864V21.16h8.707v1.969h-2.36" fill="#FCD577"/>
  <path d="M22.145 5.043H10.87a2.102 2.102 0 00-2.036-1.59h-.146L7.533.726a.37.37 0 00-.682 0L5.698 3.453h-.89a.37.37 0 00-.37.37v1.22H1.854a.37.37 0 00-.37.37v2.953c0 .204.165.37.37.37h2.582v.841c0 .205.166.37.37.37h.539v10.844H2.839a.37.37 0 00-.37.37v1.969c0 .204.165.37.37.37H8a.37.37 0 100-.74H3.21V21.53h7.966v1.228H9.186a.37.37 0 100 .741h2.36a.37.37 0 00.37-.37V21.16a.37.37 0 00-.37-.37H9.039V9.947h1.523a.37.37 0 00.37-.37v-.84h9.026v3.358h-.222a.37.37 0 000 .741h.222v.943c0 .205.166.37.37.37a.671.671 0 11-.67.671.37.37 0 00-.74 0c0 .778.632 1.412 1.41 1.412.779 0 1.412-.633 1.412-1.412 0-.65-.442-1.199-1.041-1.362v-.622h.222a.37.37 0 000-.74h-.222v-3.36h1.447a.37.37 0 00.37-.37V5.413a.37.37 0 00-.37-.37zm-.37 2.429l-1.688-1.689h1.688v1.689zm-4.641.524l2.059-2.06 2.059 2.06h-4.118zm-6.202-.524V5.783h1.688l-1.688 1.689zM13.4 6.05l1.945 1.945h-3.89L13.4 6.05zm.78-.267H18.3l-2.059 2.06-2.059-2.06zM7.192 1.821l.69 1.632h-1.38l.69-1.632zM4.437 7.47L2.75 5.784h1.688v1.689zM2.225 6.308l1.688 1.689H2.225V6.307zm6.073 11.007L6.24 15.256l2.058-2.06v4.118zm-.153.894l-2.059 2.06V16.15l2.06 2.058zm-2.059-3.846v-3.89l1.946 1.944-1.946 1.946zm.524 6.429l1.688-1.689v1.689H6.61zm1.688-9.155L6.61 9.947h1.688v1.689zm1.893-2.43H5.178V4.194h1.606V5.21a.37.37 0 00.74 0V4.193H8.834c.749 0 1.358.61 1.358 1.359v1.964H7.525V6.418a.37.37 0 10-.74 0v1.468c0 .205.165.37.37.37h3.036v.95z" fill="#000"/>
</svg>
