<svg width="24" height="24" fill="none" xmlns="http://www.w3.org/2000/svg">
  <defs/>
  <g fill-rule="evenodd" clip-rule="evenodd">
    <path d="M9.004 2.078v4.893c0 1.46.657 2.774 1.69 3.661.05.044.737.725.79.766 1.679 1.092 2.564 1.539 5.226.138 1.892-.655 3.26-2.458 3.26-4.565V2.078c0-.68-.558-1.238-1.24-1.238h-8.488c-.681 0-1.238.557-1.238 1.238z" fill="#E6E6E6"/>
    <path d="M9.004 6.971c0 1.46.657 2.774 1.69 3.661.05.044.738.725.79.766l.558-.428c.352-.247.479-.345.929-.412.695-.102 1.504.115 1.873 1.23l.045.19c.217-.269.547-.442.917-.442h.905c1.891-.655 3.26-2.458 3.26-4.565V4.054c-3.764-1.983-7.44 2.59-10.967-.228V6.97z" fill="#F78411"/>
    <path d="M18.17 6.971c0 2.032-.912 3.89-2.675 4.607.1-.026.204-.042.311-.042h.905c1.891-.655 3.26-2.458 3.26-4.565V4.054a4.407 4.407 0 00-1.802-.506V6.97z" fill="#F74311"/>
    <path d="M18.17 2.078v1.47a4.407 4.407 0 011.8.506V2.078c0-.68-.558-1.238-1.24-1.238h-1.8c.683 0 1.24.557 1.24 1.238zM13.027 13.08l-1.114 4.346 1.114 3.503 1.42.915 1.698-.915h.15c-.955 0-1.348-.89-1.09-1.536.147-.368.504-.657 1.09-.657h.416c1.031 0-1.374-1.052-1.03-1.753.173-.35 1.544-.61 1.03-.61-.647 0-1.176-.665-1.176-1.311 0-2.13-2.508-1.998-2.508-1.982z" fill="#C2C7CC"/>
    <path d="M15.391 18.736c-1.614 0-1.498 2.193 0 2.193h1.285c1.497 0 1.613-2.193 0-2.193l-.469-.346-.4.346h-.416z" fill="#FFDDA6"/>
    <path d="M15.806 16.373c-1.545 0-1.545 2.363 0 2.363h1.933c1.544 0 1.544-2.363 0-2.363h-1.933z" fill="#FFDDA6"/>
    <path d="M15.892 17.822c-.621 0-.993-.382-1.114-.839-.346.7-.003 1.753 1.028 1.753h1.933c.923 0 1.295-.846 1.113-1.526-.172.35-.515.612-1.029.612h-1.931zM14.302 19.392c-.258.647.135 1.537 1.09 1.537h1.284c.944 0 1.34-.873 1.097-1.517-.15.393-.52.71-1.09.71h-1.285c-.08 0-.157-.006-.23-.019a1.086 1.086 0 01-.866-.71z" fill="#FCC368"/>
    <path d="M14.897 14.32a1.169 1.169 0 00-.266.742c0 .646.529 1.31 1.176 1.31l1.093.572.84-.571c.646 0 1.175-.665 1.175-1.311 0-.647-.529-1.175-1.176-1.175H15.34l.005.024c.073.219-.125.369-.448.408z" fill="#FFDDA6"/>
    <path d="M14.89 11.978c-.404.836-.11 1.42.45 1.909l1.311.812 1.088-.812c.517-.387 1.176-.53 1.176-1.176 0-.646-.53-1.175-1.176-1.175h-1.933a1.186 1.186 0 00-.917.442z" fill="#FFDDA6"/>
    <path d="M14.63 15.062c0 .646.53 1.31 1.177 1.31h1.932c.647 0 1.176-.664 1.176-1.31 0-.12-.019-.237-.052-.347-.199.41-.59.73-1.039.73h-1.933c-.521 0-.967-.432-1.12-.939-.089.165-.14.355-.14.556zM14.89 11.978l.45 1.909h2.4c.646 0 1.175-.53 1.175-1.176 0-.165-.034-.322-.097-.464a1.18 1.18 0 01-1.134.864h-1.573c-1.04-.078-1.169-1.08-1.221-1.133z" fill="#FCC368"/>
    <path d="M11.484 11.398l-.456.35c-.476.366-.958.725-1.423 1.103-.335.271-.608.476-1.089.476H7.84l-.814 2.809.814 3.077h.693c.691 0 .735.01 1.214.532.634.688 1.044 1.184 2.759 1.184h.521v-6.946c0-.146-.003-.192.05-.163.022.013.054.037.099.073.093.073.193.14.285.186.396.198.847.24 1.205.25.082.003.16 0 .231-.01.323-.04.521-.19.448-.408l-.456-1.933-.045-.19c-.368-1.115-1.178-1.332-1.873-1.23-.45.067-.577.165-.929.412l-.558.428z" fill="#FFDDA6"/>
    <path d="M7.84 17.273v1.94h.693c.691 0 .735.01 1.214.532.634.688 1.044 1.184 2.759 1.184h.521v-1.94c-1.714 0-2.125-.496-2.757-1.185-.48-.521-.523-.531-1.215-.531H7.84zM13.461 14.079c.396.198.847.24 1.206.25.082.003.159 0 .23-.01.204-.024.358-.093.426-.195.04-.06.05-.132.023-.213l-.005-.024-.108-.455a.694.694 0 01-.237.092 1.89 1.89 0 01-.099.017 1.559 1.559 0 01-.23.009c-.359-.01-.81-.053-1.206-.251a1.745 1.745 0 01-.285-.184c-.02-.017-.037-.03-.053-.041a.352.352 0 00-.046-.032c-.033-.02-.043-.008-.047.037-.003.028-.003.069-.003.125v.71c.002-.091.007-.118.05-.094.022.013.054.037.099.073.093.073.193.14.285.186z" fill="#FCC368"/>
    <path d="M13.027 20.929h-.522c-.614 0-1.116.502-1.116 1.115v.664c0 .25.202.452.452.452h5.5a.454.454 0 00.452-.452v-.664a1.12 1.12 0 00-1.117-1.115h-3.65z" fill="#E6E6E6"/>
    <path d="M16.144 20.929h-.595.595zm1.649 1.115c0-.612-.501-1.114-1.113-1.115h-1.13a1.12 1.12 0 011.11 1.115v.664a.454.454 0 01-.452.452h1.133a.454.454 0 00.452-.452v-.664z" fill="#C2C7CC"/>
    <path d="M4.03 13.136v6.267c0 .356.29.646.646.646h2.517c.356 0 .647-.29.647-.646v-6.266a.648.648 0 00-.647-.647H4.676a.648.648 0 00-.647.646z" fill="#64B0D9"/>
    <path d="M4.676 17.92a.647.647 0 01-.647-.644v2.127c0 .356.291.646.647.646h2.517c.356 0 .647-.29.647-.646v-2.13c0 .355-.291.646-.647.646H4.676z" fill="#4A83C9"/>
  </g>
  <path d="M18.73.5h-8.487a1.58 1.58 0 00-1.579 1.578v4.893c0 1.502.658 2.93 1.807 3.918a33.42 33.42 0 01.492.48l-.142.11-.367.28c-.35.267-.714.544-1.063.828-.315.255-.511.4-.875.4H8.17a.988.988 0 00-.976-.838H4.676a.988.988 0 00-.987.987v2.384a.34.34 0 00.68 0v-2.384c0-.169.138-.306.307-.306h2.517c.17 0 .307.137.307.306v6.267a.307.307 0 01-.307.306H4.676a.307.307 0 01-.306-.306v-2.041a.34.34 0 10-.68 0v2.04c0 .545.442.987.986.987h2.517a.989.989 0 00.976-.836h.364c.298 0 .458.002.552.043.09.039.195.143.412.379l.048.052c.475.517.875.952 1.799 1.14a1.447 1.447 0 00-.295.877v.664c0 .437.355.792.792.792h5.5a.793.793 0 00.792-.792v-.664a1.45 1.45 0 00-.496-1.093c.358-.286.546-.726.546-1.15 0-.269-.072-.524-.205-.741.356-.05.659-.209.887-.47a1.57 1.57 0 00.373-1.036c0-.46-.19-.923-.562-1.216.349-.308.58-.775.58-1.277 0-.473-.22-.897-.56-1.175a1.513 1.513 0 00-.634-2.655 5.173 5.173 0 002.249-4.26v-.366a.34.34 0 10-.68 0v.366a4.498 4.498 0 01-2.98 4.225h-.844c-.268 0-.524.07-.75.2-.401-.892-1.165-1.318-2.136-1.175-.512.076-.698.207-1.036.444l-.038.027a.493.493 0 00-.011.008l-.327.251a99.15 99.15 0 01-.245-.24 13.08 13.08 0 00-.349-.337 4.487 4.487 0 01-1.57-3.403V4.477c.77.465 1.545.635 2.318.635 1.053 0 2.104-.315 3.135-.624 1.664-.498 3.24-.97 4.833-.224v.812a.34.34 0 00.68 0V4.051 2.079C20.31 1.207 19.6.5 18.73.5zm-1.277 22.208c0 .06-.051.112-.112.112h-5.5a.112.112 0 01-.112-.112v-.664c0-.428.349-.775.777-.775h4.17c.429 0 .777.347.777.775v.664zm-2.583-6.37c-.067.054-.13.114-.189.18a1.57 1.57 0 00-.373 1.036c0 .359.116.72.343 1a1.366 1.366 0 00-.385.276c-.246.255-.382.6-.382.972 0 .27.077.547.225.787h-.742V14.41c.331.153.683.215.981.24-.038.134-.057.272-.057.41 0 .503.23.97.58 1.278zm1.806 4.25h-1.284c-.569 0-.828-.407-.828-.786a.71.71 0 01.191-.498c.144-.15.364-.228.637-.228h1.284c.272 0 .492.078.636.227a.709.709 0 01.19.499c0 .378-.258.787-.826.787zm1.063-2.193h-1.932c-.566 0-.819-.422-.819-.841s.253-.841.819-.841h1.932c.566 0 .819.422.819.841s-.253.841-.819.841zm-1.932-6.519h1.932c.461 0 .836.375.836.835 0 .46-.375.835-.836.835h-2.13l-.346-1.467a.83.83 0 01.544-.203zm-.713 2.754c.219-.052.389-.15.494-.294a.586.586 0 00.064-.11h2.087c.461 0 .836.375.836.835 0 .49-.414.971-.836.971h-1.932c-.422 0-.836-.48-.836-.97a.82.82 0 01.123-.432zm-2.85-3.386l.032-.022c.308-.217.391-.275.744-.328.737-.108 1.24.224 1.497.987l.488 2.066a.863.863 0 01-.329.042c-.288-.008-.712-.04-1.063-.215a1.462 1.462 0 01-.23-.15c-.11-.088-.277-.219-.487-.117-.21.103-.209.313-.209.452v6.63h-.182c-1.52 0-1.874-.385-2.459-1.022l-.049-.053c-.534-.581-.67-.641-1.464-.641H8.18v-5.206h.336c.623 0 .984-.293 1.303-.552.341-.277.7-.55 1.047-.815l.369-.282 1.009-.774zm7.386-7.72c-1.725-.676-3.401-.174-5.027.313-1.838.55-3.577 1.07-5.259-.179v-1.58a.9.9 0 01.899-.898h8.488a.9.9 0 01.9.898v1.446z" fill="#000"/>
</svg>
