<svg width="24" height="24" fill="none" xmlns="http://www.w3.org/2000/svg">
  <defs/>
  <path d="M13.419 7.855V2.58h-2.837v5.275a.999.999 0 01-.672.95 2.319 2.319 0 00-1.58 2.199V22.29c0 .48.39.87.87.87h5.6c.48 0 .87-.39.87-.87V11.004c0-1.023-.661-1.89-1.58-2.198a.999.999 0 01-.671-.95z" fill="#3E5959"/>
  <path d="M14.09 8.806a.999.999 0 01-.671-.95V2.58h-1.356v5.275c0 .427.267.815.672.95a2.319 2.319 0 011.58 2.199V22.29c0 .48-.39.87-.87.87H14.8c.48 0 .87-.39.87-.87V11.004c0-1.023-.661-1.89-1.58-2.198z" fill="#384949"/>
  <path d="M13.542 2.58h-3.084a.455.455 0 01-.455-.455v-.831c0-.252.204-.455.455-.455h3.084c.251 0 .455.204.455.455v.83a.455.455 0 01-.455.456z" fill="#FD5426"/>
  <path d="M13.542.839h-1.355c.25 0 .454.204.454.455v.83a.455.455 0 01-.454.456h1.355a.455.455 0 00.455-.455v-.831a.455.455 0 00-.455-.455z" fill="#D73D24"/>
  <path d="M8.33 13.163h7.34v5.27H8.33v-5.27z" fill="#FFF9F0"/>
  <path d="M14.315 13.163h1.356v5.27h-1.356v-5.27z" fill="#FAE8DB"/>
  <path d="M10.582 2.58h2.837v4.264h-2.837V2.58z" fill="#FAC600"/>
  <path d="M12.063 2.58h1.356v4.264h-1.356V2.58z" fill="#E8B800"/>
  <path d="M10.582 2.58h2.837v2.783h-2.837V2.58z" fill="#FD5426"/>
  <path d="M12.063 2.58h1.356v2.783h-1.356V2.58z" fill="#D73D24"/>
  <path d="M12 19.546a1.113 1.113 0 100-2.226 1.113 1.113 0 000 2.226z" fill="#FD5426"/>
  <path d="M14.198 8.484a.658.658 0 01-.44-.629V2.888a.795.795 0 00.578-.763v-.831A.795.795 0 0013.542.5h-3.084a.795.795 0 00-.794.794v.83c0 .364.245.67.579.764v4.967c0 .288-.177.54-.441.63a2.655 2.655 0 00-1.81 2.519V22.29c0 .666.542 1.209 1.208 1.209h1.91a.339.339 0 000-.678H9.2a.532.532 0 01-.531-.531v-3.519h1.92A1.454 1.454 0 0012 19.885c.695 0 1.277-.49 1.419-1.142v.029h1.912v3.519a.532.532 0 01-.531.531h-2.335a.339.339 0 100 .678H14.8a1.21 1.21 0 001.21-1.21V11.005a2.655 2.655 0 00-1.812-2.52zM13.08 6.505h-2.16v-.804h2.16v.804zm0-1.481h-2.16V2.919h2.16v2.105zm-2.738-3.73c0-.064.052-.116.116-.116h3.084c.064 0 .116.052.116.116v.83a.116.116 0 01-.116.117h-3.084a.116.116 0 01-.116-.116v-.831zM12 19.208a.775.775 0 11.002-1.551.775.775 0 01-.002 1.55zm1.419-1.114v.03A1.455 1.455 0 0012 16.98c-.684 0-1.259.475-1.412 1.113H8.67v-4.592h.373a.339.339 0 100-.678h-.373v-1.82c0-.852.542-1.606 1.349-1.877.54-.181.902-.692.902-1.272v-.672h2.16v.672c0 .58.363 1.09.903 1.272a1.978 1.978 0 011.349 1.877v1.82h-4.935a.339.339 0 000 .678h4.934v4.592H13.42z" fill="#000"/>
  <path d="M13.754 14.264h-3.356a.339.339 0 100 .678h3.356a.339.339 0 100-.678zM13.005 15.623h-1.86a.339.339 0 000 .678h1.86a.339.339 0 000-.678z" fill="#000"/>
</svg>
