<svg width="24" height="24" fill="none" xmlns="http://www.w3.org/2000/svg">
  <defs/>
  <path d="M22.584 14.341H1.47c0-4.944 3.398-9.093 7.987-10.24a10.3 10.3 0 011.043-.207h3.056c5.106.74 9.028 5.135 9.028 10.447z" fill="#FF6F52"/>
  <g fill="#E25749">
    <path d="M15.979 14.342h-9.99a3.467 3.467 0 003.467-3.467V4.101c.342-.086.69-.155 1.044-.206h2.008a.681.681 0 01.004.073v6.907a3.467 3.467 0 003.467 3.467z"/>
    <path d="M12.876 3.894H10.5c-5.107.74-9.03 5.136-9.03 10.447h2.376c0-5.311 3.923-9.707 9.03-10.447z"/>
  </g>
  <path d="M13.555 10.874V3.968a.638.638 0 00-.639-.638h-1.778a.638.638 0 00-.639.638v6.906a3.467 3.467 0 01-3.467 3.467H.918v3.077h22.218v-3.076H17.02a3.467 3.467 0 01-3.466-3.468z" fill="#FF6F52"/>
  <path d="M4.847 14.342H.918v3.076h3.929v-3.076z" fill="#E25749"/>
  <path d="M18.551 17.418c-.05 1-1.71 3.002-1.71 3.002a49.752 49.752 0 01-9.985 0s-1.66-2.002-1.71-3.002h13.405z" fill="#FF6F52"/>
  <path d="M7.849 20.51a48.592 48.592 0 01-.993-.09s-1.66-2.002-1.71-3.002h2.292c-.411 1.107.41 3.092.41 3.092z" fill="#E25749"/>
  <path d="M23.109 13.95h-.168a10.946 10.946 0 00-9.114-10.405 1.03 1.03 0 00-.938-.606h-1.778c-.417 0-.776.25-.938.607-.672.113-1.334.289-1.972.524a.391.391 0 10.272.734 10.11 10.11 0 011.608-.447v6.517a3.08 3.08 0 01-3.075 3.076H1.842a10.18 10.18 0 015.233-8.504.391.391 0 10-.38-.684A10.963 10.963 0 001.06 13.95H.89a.391.391 0 00-.391.392v3.076c0 .216.175.391.391.391h3.902c.305 1.113 1.575 2.668 1.734 2.86.066.08.16.13.262.14a50.17 50.17 0 0010.065 0 .39.39 0 00.261-.14c.16-.192 1.43-1.747 1.735-2.86h4.259a.391.391 0 00.391-.391v-3.076a.391.391 0 00-.391-.392zm-.391 3.077h-5.286a.391.391 0 000 .782h.599c-.254.662-.923 1.623-1.417 2.237-3.181.31-6.404.31-9.585 0-.495-.614-1.164-1.575-1.417-2.237h10.405a.391.391 0 100-.782H1.282v-2.294h5.723a3.863 3.863 0 003.859-3.859V3.968c0-.136.11-.247.247-.247h1.778c.137 0 .248.11.248.247v2.184a.391.391 0 10.782 0V4.356a10.166 10.166 0 018.24 9.594h-5.164a3.08 3.08 0 01-3.076-3.075V7.566a.391.391 0 10-.782 0v3.307a3.862 3.862 0 003.858 3.859h5.723v2.294z" fill="#000"/>
  <path d="M20.572 12.094a.391.391 0 100-.782.391.391 0 000 .782zM20.572 13.473a.391.391 0 100-.783.391.391 0 000 .783zM3.428 12.094a.391.391 0 100-.782.391.391 0 000 .782zM3.428 13.473a.391.391 0 100-.783.391.391 0 000 .783z" fill="#000"/>
</svg>
