<svg width="24" height="24" fill="none" xmlns="http://www.w3.org/2000/svg">
  <defs/>
  <path d="M17.653 14.645l1.187 8.459H5.148l1.187-8.459h11.318z" fill="#CFDCE5"/>
  <path d="M17.643 14.645H6.346c0-1.185.86-2.195 2.03-2.386l.059-.01a2.067 2.067 0 001.735-2.04V2.721c0-.504.204-.96.535-1.29a1.824 1.824 0 013.114 1.29v7.488c0 1.014.735 1.878 1.735 2.04l.06.01a2.412 2.412 0 012.029 2.386zm-5-11.775a.649.649 0 10-1.297 0 .649.649 0 001.298 0z" fill="#8DE0A8"/>
  <path d="M10.176 5.026a.397.397 0 00.396-.397V2.721c0-.382.149-.74.419-1.01a1.43 1.43 0 012.437 1.01v7.488c0 1.215.87 2.237 2.066 2.431l.062.01a2.023 2.023 0 011.656 1.599h-2.22a.396.396 0 100 .792h2.322l.61 4.351a.396.396 0 10.786-.11l-.659-4.692a.393.393 0 00-.008-.044 2.815 2.815 0 00-2.358-2.678l-.062-.01a1.663 1.663 0 01-1.402-1.649V2.721C14.22 1.496 13.225.5 12 .5c-.595 0-1.152.231-1.57.65-.42.42-.652.977-.652 1.57v1.91c0 .218.178.396.397.396z" fill="#000"/>
  <path d="M19.238 23.048l-.335-2.39a.397.397 0 00-.785.11l.272 1.939H5.61l1.076-7.666h6.984a.396.396 0 100-.793H6.787c.16-.814.808-1.46 1.66-1.598l.057-.01a2.453 2.453 0 002.068-2.43V6.002a.397.397 0 00-.793 0v4.206c0 .824-.59 1.517-1.405 1.65l-.057.009a2.802 2.802 0 00-2.36 2.68.407.407 0 00-.009.042l-1.186 8.458a.396.396 0 00.392.452h13.692a.397.397 0 00.392-.452zM12 1.824a1.047 1.047 0 101.046 1.046c0-.577-.47-1.046-1.046-1.046zm0 1.298a.253.253 0 110-.505.253.253 0 010 .505z" fill="#000"/>
</svg>
