<svg width="24" height="24" fill="none" xmlns="http://www.w3.org/2000/svg">
  <defs/>
  <path d="M17.098 5.596a8.186 8.186 0 11-2.612-1.397l2.612 1.397z" fill="#00BCE7"/>
  <path d="M3.813 12c0 1.648.488 3.182 1.325 4.466h3.856a.744.744 0 100-1.489H6.418a.744.744 0 110-1.488h1.86a.744.744 0 100-1.489h-.743a.744.744 0 010-1.488h2.976a.744.744 0 100-1.488H7.535a.744.744 0 110-1.489h1.488a.744.744 0 100-1.488H6.382A8.164 8.164 0 003.813 12z" fill="#00CE96"/>
  <path d="M16.919 5.596l-2.612-1.397a8.181 8.181 0 00-2.936-.372 8.16 8.16 0 012.038.372l2.611 1.397a8.186 8.186 0 01-4.65 14.579A8.186 8.186 0 0016.92 5.595z" fill="#0094D4"/>
  <path d="M17.21 5.03a1.489 1.489 0 10-2.764.77l1.041 1.803a.27.27 0 00.467 0L16.996 5.8c.135-.224.213-.487.213-.768z" fill="#FF2551"/>
  <path d="M15.721 5.59a.558.558 0 100-1.117.558.558 0 000 1.116z" fill="#fff"/>
  <path d="M20.186 12a8.147 8.147 0 00-1.325-4.465h-4.628a.744.744 0 000 1.489h1.44a.744.744 0 010 1.488h-1.861a.744.744 0 100 1.489h3.397a.744.744 0 110 1.488h-3.72a.744.744 0 100 1.488h2.232a.744.744 0 010 1.489h-1.488a.744.744 0 000 1.488h3.385a8.164 8.164 0 002.568-5.953z" fill="#00CE96"/>
  <path d="M20.002 11.736a8.039 8.039 0 00-.01-.209c0-.011 0-.022-.002-.034a8.605 8.605 0 00-.013-.184l-.004-.047a7.796 7.796 0 00-.02-.2l-.007-.053a8.695 8.695 0 00-.022-.17l-.006-.043a8.028 8.028 0 00-.074-.423l-.013-.064c-.01-.05-.022-.1-.034-.151l-.017-.075a8.032 8.032 0 00-.043-.17l-.02-.076a7.303 7.303 0 00-.033-.114l-.024-.085a8.008 8.008 0 00-.049-.155l-.03-.094a9.408 9.408 0 00-.16-.43l-.025-.064a7.928 7.928 0 00-.154-.35l-.005-.011a8.358 8.358 0 00-.113-.232l-.018-.035a8.048 8.048 0 00-.425-.732h-.898a8.147 8.147 0 011.325 4.466 8.162 8.162 0 01-2.569 5.953h.899c.494-.466.93-.992 1.295-1.568l.007-.01.099-.16.014-.025c.03-.05.059-.099.087-.15l.02-.034.078-.141.023-.044.07-.135.025-.05.064-.132.026-.056.058-.127.027-.061a7.73 7.73 0 00.128-.314c.01-.023.018-.046.027-.07l.044-.121.026-.073a8.496 8.496 0 00.102-.315l.023-.08a7.656 7.656 0 00.086-.317l.02-.084.027-.117.018-.086.024-.118.016-.087c.008-.04.014-.079.02-.118l.016-.089.017-.12.012-.088.015-.12.01-.09.011-.123.008-.088.009-.13.005-.083.005-.143.003-.07a8.12 8.12 0 00-.001-.48z" fill="#00BA88"/>
  <g fill="#000">
    <path d="M23.401 11.39a.337.337 0 00-.476 0l-.178.178a10.678 10.678 0 00-3.142-7.173 10.678 10.678 0 00-7.08-3.138l-.659-.658a.337.337 0 00-.476.476l.178.178a10.679 10.679 0 00-7.174 3.142 10.678 10.678 0 00-3.137 7.08l-.658.659a.337.337 0 00.476.476l.178-.178a10.68 10.68 0 003.141 7.174 10.678 10.678 0 007.082 3.137l.658.658a.336.336 0 00.476 0 .337.337 0 000-.476l-.178-.178a10.679 10.679 0 007.173-3.141 10.679 10.679 0 003.138-7.082l.658-.658a.337.337 0 000-.476zM12.451 22.07l.16-.158a.337.337 0 00-.477-.477l-.633.634c-5.179-.254-9.342-4.433-9.572-9.618l.158.158a.336.336 0 00.476 0 .337.337 0 000-.476L1.93 11.5c.254-5.179 4.433-9.342 9.618-9.572l-.158.158a.337.337 0 00.476.477l.633-.634c5.179.254 9.342 4.433 9.572 9.618l-.158-.158a.337.337 0 10-.477.476l.634.633c-.254 5.179-4.433 9.343-9.618 9.572z"/>
    <path d="M17.489 5.48a1.827 1.827 0 00-1.768-2.275c-.538 0-1.022.234-1.356.605A8.528 8.528 0 0012 3.477c-.803 0-1.598.111-2.363.332a.337.337 0 00.187.647A7.862 7.862 0 0112 4.151c.68 0 1.353.087 2.004.258a1.818 1.818 0 00.152 1.561l.709 1.228h-.633c-.596 0-1.08.485-1.08 1.081s.484 1.081 1.08 1.081h1.44a.408.408 0 010 .815h-1.86a1.082 1.082 0 000 2.162h3.397a.408.408 0 010 .814h-3.72a1.082 1.082 0 000 2.163h2.232a.408.408 0 010 .814h-1.489a1.082 1.082 0 000 2.162h2.457a7.84 7.84 0 01-10.894-1.488h3.199a1.082 1.082 0 000-2.162H6.418a.408.408 0 010-.815h1.86a1.082 1.082 0 000-2.162h-.743a.408.408 0 010-.815h2.976c.596 0 1.081-.485 1.081-1.08 0-.597-.485-1.082-1.08-1.082H7.534a.408.408 0 010-.814h1.488c.596 0 1.081-.485 1.081-1.081 0-.597-.485-1.082-1.081-1.082H7.3c.376-.28.781-.529 1.213-.743a.337.337 0 10-.3-.604 8.536 8.536 0 00-2.073 1.45A8.498 8.498 0 003.477 12c0 1.696.498 3.278 1.356 4.608.013.03.031.057.053.08A8.522 8.522 0 0012 20.524c4.7 0 8.523-3.823 8.523-8.523a8.483 8.483 0 00-3.034-6.52zm-10.98.903h2.514a.408.408 0 010 .815H7.534a1.082 1.082 0 000 2.162h2.977a.408.408 0 010 .815H7.534c-.596 0-1.08.485-1.08 1.08 0 .597.484 1.082 1.08 1.082h.745a.408.408 0 010 .814h-1.86a1.082 1.082 0 000 2.163h2.575a.408.408 0 010 .814H5.327A7.802 7.802 0 014.15 12c0-2.163.868-4.166 2.358-5.617zm11.702.815h-1.634l.622-1.078c.374.33.712.691 1.012 1.078zm-3.477-1.573a1.153 1.153 0 01.986-1.746 1.153 1.153 0 01.987 1.746l-.003.005-.983 1.703-.983-1.703-.004-.005zm2.743 11.992h-3.245a.408.408 0 010-.815h1.489a1.082 1.082 0 000-2.162h-2.233a.408.408 0 010-.815h3.721a1.082 1.082 0 000-2.162h-3.398a.408.408 0 010-.814h1.86c.597 0 1.082-.485 1.082-1.081 0-.597-.485-1.081-1.081-1.081h-1.44a.408.408 0 010-.815h1.022l.175.304a.337.337 0 00.583 0l.176-.304h2.491A7.819 7.819 0 0119.85 12c0 2.2-.91 4.19-2.372 5.617z"/>
    <path d="M16.616 5.03a.896.896 0 00-1.79 0 .896.896 0 001.79 0zm-.895.221a.221.221 0 110-.443.221.221 0 010 .443z"/>
  </g>
</svg>
