<svg width="24" height="24" fill="none" xmlns="http://www.w3.org/2000/svg">
  <defs/>
  <path d="M9.413 16.045a6.036 6.036 0 100-12.073 6.036 6.036 0 000 12.073z" fill="#FFCE47"/>
  <path d="M9.413 14.484a4.475 4.475 0 100-8.95 4.475 4.475 0 000 8.95z" fill="#FFEBB4"/>
  <path d="M9.413 12.923a2.914 2.914 0 100-5.828 2.914 2.914 0 000 5.828z" fill="#FFC0D5"/>
  <path d="M21.513 6.706h-1.185s-1.444 4.637-1.901 6.222c-.152.528-.632.796-1.136.577L2.51 7.103c-.504-.218-.916.053-.916.602v12.01H22.51V7.705c0-.55-.449-.999-.998-.999z" fill="#FF4181"/>
  <path d="M23 19.352V8.358a.52.52 0 00-.02-1.04h-.072c-.213-.583-.773-1-1.429-1h-1.178-.035a.581.581 0 00-.062.007l-.017.004a.547.547 0 00-.08.023l-.01.003-4.448 1.786a6.571 6.571 0 00-6.24-4.533 6.544 6.544 0 00-5.831 3.554l-.933-.404c-.404-.175-.82-.155-1.14.056-.32.21-.505.584-.505 1.024v11.514a.52.52 0 00.02 1.04h21.96a.52.52 0 00.02-1.04zM19.47 7.729a401.29 401.29 0 00-1.583 5.198c-.036.124-.104.218-.187.257-.069.033-.15.029-.244-.012l-1.864-.807a6.59 6.59 0 00.3-3.2l3.578-1.436zM9.41 4.649a5.526 5.526 0 015.225 7.301l-.424-.183a5.065 5.065 0 00-6.539-6.352.52.52 0 10.357.978 4.023 4.023 0 015.222 4.959l-.426-.185A3.563 3.563 0 009.41 6.609c-1.28 0-2.433.673-3.066 1.75l-.424-.183c.245-.428.568-.81.953-1.124a.52.52 0 00-.658-.807c-.513.419-.94.936-1.254 1.515l-.424-.183a5.506 5.506 0 014.873-2.928zm2.45 6.1L7.309 8.778a2.507 2.507 0 012.1-1.128 2.521 2.521 0 012.451 3.099zM2.076 7.684c.008-.004.06-.012.156.03l14.81 6.413c.37.16.76.16 1.102-.002.359-.169.623-.492.743-.91.376-1.304 1.437-4.729 1.788-5.857h.804a.48.48 0 01.48.48v11.513H2.041V7.839c0-.105.028-.15.035-.155z" fill="#01121C"/>
</svg>
