<svg width="24" height="24" fill="none" xmlns="http://www.w3.org/2000/svg">
  <defs/>
  <path d="M6.54 9.315h3v7.848h-3V9.315z" fill="#E28086"/>
  <path d="M.837 9.62H6.54v7.239H.837v-7.24z" fill="#707DD3"/>
  <path d="M7.742 9.315v5.913c0 .572-.464 1.036-1.036 1.036H6.54v.899h3V9.315H7.741z" fill="#DD636E"/>
  <path d="M4.743 9.62v5.304c0 .572-.464 1.036-1.036 1.036H.837v.899H6.54v-7.24H4.743z" fill="#5766CB"/>
  <path d="M17.724 21.59a1.575 1.575 0 003.15 0v-2.905h-3.15v2.904zM23.163 4.333A3.865 3.865 0 0020.946.837v3.719l-1.648.951-1.648-.951V.837a3.865 3.865 0 00-2.216 3.57 3.85 3.85 0 001.063 2.58 4.453 4.453 0 011.226 2.985h3.15A4.429 4.429 0 0122.095 7a3.85 3.85 0 001.068-2.667z" fill="#DAE4EA"/>
  <path d="M19.076 18.685v2.006c0 .746-.52 1.371-1.218 1.533a1.574 1.574 0 003.015-.635v-2.904h-1.797zM20.947.837v.845c.268.526.419 1.122.419 1.753a3.851 3.851 0 01-1.068 2.667 4.433 4.433 0 00-1.147 3.87h1.722A4.428 4.428 0 0122.095 7 3.865 3.865 0 0020.946.837z" fill="#C6D0DA"/>
  <path d="M21.777 12.15h-.393a1.09 1.09 0 100-2.178h-3.66a4.432 4.432 0 00-.619-2.179h-1.159a5.424 5.424 0 00-3.568 1.332 2.053 2.053 0 01-1.348.494H9.54v7.24h1.49c.494 0 .975.17 1.348.493a5.424 5.424 0 003.568 1.332h4.927a1.09 1.09 0 000-2.178h.593a1.09 1.09 0 000-2.178h.311a1.09 1.09 0 100-2.178z" fill="#F1D0A5"/>
  <path d="M22.866 13.239a1.09 1.09 0 00-1.089-1.09h-.393a1.09 1.09 0 000-2.177h-.725c.011.061.017.125.017.19v4.815a2.809 2.809 0 01-2.808 2.809h-3.719a5.45 5.45 0 01-1.493-.207 5.422 5.422 0 003.29 1.105h4.927a1.09 1.09 0 000-2.178h.592a1.09 1.09 0 100-2.178h.312c.602 0 1.09-.488 1.09-1.09z" fill="#F1B986"/>
  <path d="M23.203 13.239c0-.537-.299-1.006-.738-1.249a1.428 1.428 0 00-1.08-2.355h-.154c.093-.9.48-1.743 1.108-2.402a4.183 4.183 0 001.161-2.9c0-1.618-.946-3.11-2.41-3.8a.337.337 0 00-.48.304V4.36l-1.311.757-1.312-.757V.837a.337.337 0 00-.48-.305 4.212 4.212 0 00-2.41 3.882c.009.43.083.853.22 1.258a.337.337 0 10.638-.216 3.485 3.485 0 01-.184-1.055 3.538 3.538 0 011.542-2.984v3.139c0 .12.065.231.169.292l1.648.951c.104.06.233.06.337 0l1.648-.951a.337.337 0 00.169-.292V1.417a3.548 3.548 0 011.542 2.916c0 .911-.346 1.776-.974 2.435a4.752 4.752 0 00-1.298 2.867h-2.51a4.786 4.786 0 00-1.303-2.88.337.337 0 10-.488.464c.072.077.142.156.208.237h-.515a5.78 5.78 0 00-3.79 1.415 1.715 1.715 0 01-1.126.411H9.874a.337.337 0 00-.335-.304h-3a.337.337 0 00-.335.304H.837A.337.337 0 00.5 9.62v7.24c0 .186.15.336.337.336h5.367c.017.171.16.305.336.305h2.999a.337.337 0 00.335-.304h1.156c.421 0 .821.146 1.127.41a5.78 5.78 0 003.789 1.415h1.44v2.568c0 1.054.859 1.911 1.913 1.911a1.914 1.914 0 001.91-1.911v-2.608a1.429 1.429 0 001.09-1.386c0-.322-.107-.62-.289-.86a1.428 1.428 0 00.508-2.278c.41-.251.685-.703.685-1.218zM6.54 12.368a.337.337 0 00-.337.337v3.817h-5.03V9.956h5.03v1.177a.337.337 0 10.674 0v-1.48h2.325v7.173H6.877v-4.121a.337.337 0 00-.337-.337zm15.237 1.623H19.17a.337.337 0 100 .674h2.295a.753.753 0 010 1.504H19.17a.337.337 0 100 .674h1.703a.753.753 0 010 1.505h-.678a.337.337 0 100 .673h.341v2.568c0 .682-.555 1.237-1.237 1.237a1.239 1.239 0 01-1.238-1.237V19.02h.562a.337.337 0 100-.674h-2.677c-1.23 0-2.42-.443-3.348-1.249a2.388 2.388 0 00-1.568-.576H9.876V9.956h1.154c.583 0 1.14-.205 1.568-.576a5.106 5.106 0 013.348-1.25h.963c.247.467.404.977.457 1.505h-.411a.337.337 0 100 .674h4.429a.753.753 0 010 1.504H19.17a.337.337 0 100 .674h2.607a.753.753 0 010 1.504z" fill="#000"/>
  <path d="M19.299 22.007c.186 0 .337-.15.337-.337v-.896a.337.337 0 10-.674 0v.896c0 .186.15.337.337.337z" fill="#000"/>
</svg>
