<svg width="24" height="24" fill="none" xmlns="http://www.w3.org/2000/svg">
  <defs/>
  <path d="M7.613 19.73h7.575v3.432H7.613V19.73z" fill="#FEDF30"/>
  <path d="M9.05 20.835h1.503v2.32H9.05v-2.32zM12.247 20.835h1.504v2.32h-1.504v-2.32z" fill="#E8B800"/>
  <path d="M15.94 20.835H6.865l-.45-4.279h9.976l-.451 4.28z" fill="#E8B800"/>
  <path d="M15.038 16.556l-.451 4.28h1.353l.45-4.28h-1.352z" fill="#D7AA02"/>
  <path d="M7.613.838h7.575V4.27H7.613V.838z" fill="#FEDF30"/>
  <g fill="#E8B800">
    <path d="M9.05.845h1.504v2.32H9.051V.844zM12.247.845h1.504v2.32h-1.504V.844z"/>
    <path d="M16.273 6.324l-.333-3.16H6.865L6.52 6.447"/>
    <path d="M6.52 6.447l-.106.996h9.977l-.118-1.119"/>
  </g>
  <path d="M15.94 3.165h-1.353l.45 4.279h1.354l-.451-4.28z" fill="#D7AA02"/>
  <path d="M18.602 11.25h1.173v2.014h-1.172V11.25z" fill="#FEF0AE"/>
  <path d="M11.402 19.201a7.201 7.201 0 100-14.403 7.201 7.201 0 000 14.403z" fill="#FAC600"/>
  <path d="M11.408 17.553a5.553 5.553 0 100-11.106 5.553 5.553 0 000 11.106z" fill="#FEDF30"/>
  <path d="M11.408 6.447c-.23 0-.455.014-.677.04a5.554 5.554 0 010 11.025 5.553 5.553 0 10.676-11.065z" fill="#FAC600"/>
  <path d="M13.693 11.394h1.448v1.212h-1.448v-1.212z" fill="#FFF9F0"/>
  <path d="M15.142 11.056h-1.448a.338.338 0 00-.339.338v1.212c0 .187.152.338.339.338h1.448a.338.338 0 00.338-.338v-1.212a.338.338 0 00-.338-.338zm-.339 1.212h-.771v-.536h.771v.536z" fill="#000"/>
  <path d="M19.775 10.913h-.913a7.473 7.473 0 00-.492-1.79.342.342 0 00-.054-.127 7.572 7.572 0 00-1.676-2.413l-.364-3.454a.338.338 0 00-.336-.303h-.414V.838A.338.338 0 0015.188.5H7.613a.338.338 0 00-.338.338v1.988h-.41a.338.338 0 00-.336.303L6.17 6.528a.345.345 0 00-.001.038 7.505 7.505 0 00-2.26 4.587.338.338 0 00.672.075 6.875 6.875 0 01.337-1.488l.91.37A5.866 5.866 0 005.517 12c0 .696.121 1.365.344 1.986l-.903.382a6.838 6.838 0 01-.396-1.79.338.338 0 10-.674.056 7.511 7.511 0 002.277 4.79l.364 3.447a.338.338 0 00.336.303h.41v1.988c0 .187.151.338.338.338h7.575a.338.338 0 00.338-.338v-1.988h.414c.173 0 .318-.131.336-.303l.364-3.449c.157-.152.31-.311.454-.478a.338.338 0 10-.51-.444 6.864 6.864 0 01-11.362-1.51l.904-.382c.28.565.649 1.08 1.087 1.524a.328.328 0 00.063.063 5.872 5.872 0 004.132 1.696 5.872 5.872 0 004.132-1.696.333.333 0 00.063-.063 5.918 5.918 0 001.13-1.614l.898.364c-.09.196-.19.388-.3.574a.338.338 0 10.585.342c.173-.296.324-.603.454-.918a.333.333 0 00.046-.114 7.54 7.54 0 00.352-1.164h1.007a.338.338 0 00.338-.338V11.25a.338.338 0 00-.338-.338zM7.95 21.173h.761v1.65h-.76v-1.65zm3.958 0v1.65h-1.017v-1.65h1.017zm1.503 1.643h-.827v-1.642h.827v1.642zm-3.196 0h-.827v-1.642h.827v1.642zm4.634.008h-.761v-1.65h.76v1.65zm1.043-4.769l-.258 2.442H7.17l-.258-2.44a7.537 7.537 0 008.98-.002zM14.85 2.826h-.761v-1.65h.76v1.65zm-3.958 0v-1.65h1.017v1.65h-1.017zM9.39 1.184h.827v1.642h-.827V1.184zm3.196 0h.827v1.642h-.827V1.184zm-4.634-.008h.761v1.65h-.76v-1.65zM7.17 3.503h8.466l.258 2.445a7.5 7.5 0 00-4.492-1.488c-1.674 0-3.23.546-4.488 1.477l.256-2.434zM5.17 9.113a6.858 6.858 0 016.231-3.976 6.872 6.872 0 016.18 3.878l-.892.377a5.918 5.918 0 00-1.086-1.524.347.347 0 00-.063-.063 5.872 5.872 0 00-4.132-1.696 5.872 5.872 0 00-4.132 1.696.337.337 0 00-.063.063 5.917 5.917 0 00-1.13 1.614l-.913-.37zm10.155 6.326l-.319-.32a.338.338 0 10-.478.48l.319.318a5.194 5.194 0 01-3.1 1.287v-.454a.338.338 0 00-.677 0v.454a5.194 5.194 0 01-3.1-1.287l.318-.319a.338.338 0 10-.478-.478l-.319.319a5.193 5.193 0 01-1.287-3.1h.499a.338.338 0 000-.677h-.499a5.193 5.193 0 011.287-3.1l.319.318a.337.337 0 00.478 0 .338.338 0 000-.478l-.319-.319a5.193 5.193 0 013.1-1.287v.454a.338.338 0 00.677 0v-.454a5.194 5.194 0 013.1 1.287l-.318.319a.338.338 0 00.478.478l.319-.319a5.193 5.193 0 011.287 3.1h-.499a.338.338 0 100 .677h.499a5.193 5.193 0 01-1.287 3.1zm1.663-1.548c.202-.594.311-1.23.311-1.891 0-.697-.122-1.365-.344-1.986l.89-.377a6.878 6.878 0 01.039 4.617l-.896-.363zm2.449-.966h-.496V11.59h.496v1.336z" fill="#000"/>
  <path d="M11.408 8.367a.338.338 0 00-.338.338v2.957H9.827a.338.338 0 100 .676h1.581a.338.338 0 00.338-.338V8.705a.338.338 0 00-.338-.338z" fill="#000"/>
</svg>
