<svg width="24" height="24" fill="none" xmlns="http://www.w3.org/2000/svg">
  <defs/>
  <path d="M21.21 1.54v20.92c0 .285-.233.52-.52.52H8.723L7.162 12l1.56-10.98h11.969c.286 0 .52.235.52.52z" fill="#FF755C"/>
  <path d="M8.722 1.02v21.96H4.975a.522.522 0 01-.52-.52V1.54c0-.286.234-.52.52-.52h3.747z" fill="#FFC0D5"/>
  <path d="M20.69.5H4.975c-.573 0-1.04.467-1.04 1.04v2.004H2.79a.52.52 0 000 1.04h1.145v2.134H2.79a.52.52 0 000 1.041h1.145v2.134H2.79a.52.52 0 100 1.04h1.145v2.134H2.79a.52.52 0 100 1.04h1.145v2.134H2.79a.52.52 0 100 1.04h1.145v2.134H2.79a.52.52 0 000 1.041h1.145v2.003c0 .574.467 1.041 1.04 1.041H20.69c.574 0 1.041-.467 1.041-1.04V1.54c0-.573-.467-1.04-1.04-1.04zm0 21.96H9.242V8.93a.52.52 0 00-1.04 0v13.53H4.975v-2.004H6.12a.52.52 0 000-1.04H4.975v-2.134H6.12a.52.52 0 000-1.041H4.975v-2.133H6.12a.52.52 0 000-1.041H4.975v-2.134H6.12a.52.52 0 100-1.04H4.975V7.758H6.12a.52.52 0 000-1.04H4.975V4.584H6.12a.52.52 0 000-1.04H4.975V1.54h3.227v5.614a.52.52 0 001.04 0V1.541H20.69v20.918z" fill="#01121C"/>
</svg>
