<svg width="24" height="24" fill="none" xmlns="http://www.w3.org/2000/svg">
  <defs/>
  <path d="M9.081 6.65l2.92-.991 2.918.992c-.5 2.834.081 5.858 1.863 8.402a11.21 11.21 0 00-3.294 7.951h-2.976a11.21 11.21 0 00-3.293-7.951A11.207 11.207 0 009.08 6.65z" fill="#FFB14E"/>
  <path d="M15.354 4.17l-.435 2.48H9.081l-.435-2.48L12 2.684l3.354 1.488z" fill="#FFCE47"/>
  <path d="M7.098.996l.557 3.175h8.691l.557-3.175H7.098z" fill="#3B8BC0"/>
  <g fill="#01121C">
    <path d="M12.993 15.053a.993.993 0 00-1.984 0c0 .366.2.686.496.858v7.093a.496.496 0 10.992 0v-7.093a.992.992 0 00.496-.858z"/>
    <path d="M15.77 4.667h.576c.241 0 .447-.173.489-.41l.557-3.175a.496.496 0 00-.977-.172l-.485 2.765H8.07L7.586.91a.496.496 0 10-.977.172l.557 3.175c.042.237.248.41.489.41h.575l.363 2.07a10.678 10.678 0 01-1.78 8.031.496.496 0 00.055.636 10.678 10.678 0 013.148 7.6.496.496 0 00.992 0c0-2.999-1.117-5.826-3.153-8.007a11.648 11.648 0 001.803-7.85h4.685a11.648 11.648 0 001.803 7.85 11.658 11.658 0 00-3.154 8.007.496.496 0 00.992 0c0-2.871 1.118-5.57 3.148-7.6a.496.496 0 00.056-.636 10.678 10.678 0 01-1.78-8.032l.363-2.07zm-1.006 0l-.261 1.488H9.498l-.26-1.488h5.526z"/>
  </g>
</svg>
