<svg width="24" height="24" fill="none" xmlns="http://www.w3.org/2000/svg">
  <defs/>
  <path d="M18.06 3.25C17.116 4.402 14.76 5.22 12 5.22S6.883 4.402 5.94 3.25H1.044V7.7L2.132 12l-1.088 4.3v4.45H5.94c.943-1.152 3.3-1.968 6.06-1.968s5.116.816 6.06 1.968h4.895V3.25H18.06z" fill="#FF4181"/>
  <path d="M19.21 13.69L10.127 12.6l-9.083 1.088v2.61h14.212a4.3 4.3 0 003.954-2.61z" fill="#C2E7FF"/>
  <path d="M19.556 12a4.3 4.3 0 00-4.3-4.3H1.044v5.99h18.167c.221-.52.345-1.09.345-1.69z" fill="#4EB9FF"/>
  <path d="M10.3 11.691a.996.996 0 100-1.992.996.996 0 000 1.992z" fill="#174461"/>
  <g fill="#01121C">
    <path d="M10.3 9.154c-.85 0-1.54.691-1.54 1.541s.69 1.54 1.54 1.54c.85 0 1.54-.69 1.54-1.54 0-.85-.69-1.54-1.54-1.54zm0 1.993a.453.453 0 11.001-.905.453.453 0 010 .905z"/>
    <path d="M22.956 2.706H18.06a.544.544 0 00-.421.2C16.773 3.962 14.507 4.673 12 4.673s-4.773-.71-5.639-1.769a.544.544 0 00-.42-.199H1.043c-.3 0-.544.244-.544.544v17.5c0 .3.244.544.544.544H5.94a.544.544 0 00.421-.2c.866-1.057 3.133-1.768 5.639-1.768 2.507 0 4.773.71 5.639 1.769.103.126.258.2.42.2h4.897c.3 0 .544-.245.544-.545V3.25c0-.3-.244-.544-.544-.544zM1.589 14.234h16.684a3.752 3.752 0 01-3.017 1.521H1.588v-1.521zm17.243-1.089H1.588v-4.9h13.668a3.76 3.76 0 013.576 4.9zm3.58 7.06h-4.109c-1.163-1.202-3.591-1.968-6.303-1.968-2.712 0-5.14.766-6.303 1.969H1.588v-3.362h13.668A4.85 4.85 0 0020.1 12a4.85 4.85 0 00-4.844-4.844H1.588V3.794h4.109C6.86 4.997 9.288 5.763 12 5.763c2.712 0 5.14-.766 6.303-1.969h4.108v16.412z"/>
  </g>
</svg>
