<svg width="24" height="24" fill="none" xmlns="http://www.w3.org/2000/svg">
  <defs/>
  <g fill-rule="evenodd" clip-rule="evenodd">
    <path d="M2.11 3.12v17.76c0 .463.379.843.843.843h1.734V2.277H2.953a.845.845 0 00-.844.843z" fill="#64B0D9"/>
    <path d="M17.847 2.277H4.687v19.446h13.16c.465 0 .844-.38.844-.843V3.12a.845.845 0 00-.844-.843z" fill="#E6E6E6"/>
    <path d="M16.32 15.23l-.35 2.117a.5.5 0 00.123.434c.153.159.415.194.654.002l1.634-1.397-.521-1.63-1.54.474z" fill="#FCC368"/>
    <path d="M22.559 6.547a1.186 1.186 0 00-1.61.451l-.216.383.422 1.576 1.64-.419.214-.382a1.184 1.184 0 00-.45-1.609z" fill="#64B0D9"/>
    <path d="M20.733 7.381l-2.042 3.63-2.372 4.219 2.062 1.156.31-.553 4.103-7.293v-.002l-2.06-1.157z" fill="#F78411"/>
    <path d="M17.144 3.12v10.642l1.547-2.75V3.12a.845.845 0 00-.844-.843H16.3c.465 0 .844.379.844.843zM18.38 16.386l-1.236 1.058v3.436c0 .463-.38.843-.844.843h1.547c.464 0 .844-.38.844-.843v-5.047l-.31.553z" fill="#C2C7CC"/>
    <path d="M17.678 15.991l.703.395.31-.553 4.103-7.293v-.002l-.703-.394v.001l-4.413 7.846z" fill="#F74311"/>
    <path d="M21.966 6.397c.534.208.553.988.342 1.364l-.216.383.702.394.215-.382a1.185 1.185 0 00-.45-1.609 1.185 1.185 0 00-.593-.15z" fill="#4A83C9"/>
    <path d="M17.678 15.991l-1.633 1.4a.565.565 0 01-.083.055c.001.136.05.252.131.335.153.159.415.194.654.002l.397-.34 1.237-1.057-.703-.395z" fill="#EDA93B"/>
    <path d="M3.54 2.277h1.147v19.446H3.54V2.277z" fill="#4A83C9"/>
  </g>
  <path d="M23.444 7.171a1.51 1.51 0 00-.72-.92 1.524 1.524 0 00-2.07.58l-.216.383-.001.001-1.406 2.501V3.12c0-.652-.531-1.182-1.184-1.182h-5.685a.34.34 0 100 .678h5.685c.278 0 .505.226.505.504v7.804l-2.329 4.14-.002.005a1.019 1.019 0 00-.022.049l-.005.014a.59.59 0 00-.008.034l-.002.009-.35 2.119a.916.916 0 00-.011.148H7.129a.34.34 0 000 .679h8.843c.014.01.029.018.043.027.122.07.255.106.39.106a.89.89 0 00.563-.213l1.384-1.183v4.022a.505.505 0 01-.505.504H5.027V2.616h5.491a.34.34 0 000-.678H2.953c-.652 0-1.183.53-1.183 1.182v1.364C.935 4.57.5 5.107.5 5.637c0 .327.164.64.449.857.217.165.497.272.821.315v1.854C.935 8.751.5 9.287.5 9.817c0 .327.164.64.449.856.217.166.497.273.821.316v1.853C.935 12.93.5 13.465.5 13.995c0 .328.164.64.449.857.217.165.497.272.821.316v1.77c-.772.116-1.174.631-1.174 1.14 0 .328.163.64.449.857.195.15.441.25.725.3v1.645c0 .652.53 1.183 1.183 1.183h14.894c.653 0 1.184-.531 1.184-1.183v-4.957l1.318-2.345a.34.34 0 00-.592-.333L18.4 15.661a.25.25 0 00-.01.016l-.138.247-1.47-.824 4.082-7.256 1.469.824-1.91 3.395a.34.34 0 00.592.332l2.071-3.681.005-.008.215-.384a1.51 1.51 0 00.139-1.15zM1.36 5.953c-.117-.089-.181-.2-.181-.316 0-.203.203-.408.591-.469v.954a.967.967 0 01-.41-.169zm0 4.18c-.117-.089-.181-.201-.181-.316 0-.203.203-.408.591-.469v.954a.97.97 0 01-.41-.169zm0 4.179c-.117-.089-.181-.201-.181-.316 0-.204.203-.408.591-.47v.954a.968.968 0 01-.41-.168zm.096 4.083c-.117-.089-.181-.201-.181-.317 0-.185.17-.372.495-.45v.914a.9.9 0 01-.314-.147zm.993 2.485v-1.607h.773a.34.34 0 000-.68H2.45V15.19h.676a.34.34 0 000-.679H2.45v-3.5h.676a.34.34 0 000-.678H2.45V6.83h.676a.34.34 0 000-.68H2.45v-3.03c0-.279.226-.505.505-.505h1.394v18.768H2.954a.505.505 0 01-.505-.504zm15.341-4.436l-1.258 1.077a.271.271 0 01-.081.045.34.34 0 00-.149-.104.231.231 0 01.002-.06l.271-1.64 1.215.682zm3.406-9.192l.05-.087a.844.844 0 011.146-.322c.196.11.337.291.397.51a.837.837 0 01-.076.637l-.049.087-1.468-.825z" fill="#000"/>
  <path d="M16.488 5.688H7.129a.34.34 0 000 .679h9.359a.34.34 0 100-.68zM16.488 8.626H7.129a.34.34 0 000 .68h9.359a.34.34 0 100-.68zM16.827 11.905a.34.34 0 00-.34-.34H7.13a.34.34 0 000 .68h9.359a.34.34 0 00.34-.34zM7.13 14.503a.34.34 0 000 .679h7.458a.34.34 0 100-.68H7.13z" fill="#000"/>
</svg>
