<svg width="24" height="24" fill="none" xmlns="http://www.w3.org/2000/svg">
  <defs/>
  <path d="M12.895 17.819h-1.79v5.42h1.79v-5.42z" fill="#FF755C"/>
  <path d="M18.582 18.86l-2.855-4.708h2.197l-2.855-4.708h2.197L12 .76 6.734 9.444h2.197l-2.855 4.708h2.197L5.418 18.86h13.164z" fill="#85C250"/>
  <g fill="#01121C">
    <path d="M19.035 19.375a.52.52 0 00-.008-.525l-2.376-3.918h1.273a.52.52 0 00.445-.79l-2.376-3.918h1.272a.52.52 0 00.445-.79L12.445.751a.52.52 0 00-.89 0L6.289 9.434a.52.52 0 00.445.79h1.273L5.63 14.142a.52.52 0 00.445.79h1.273L4.973 18.85a.52.52 0 00.445.79h5.167v3.34a.52.52 0 001.04 0v-3.34h.75v3.34a.52.52 0 001.04 0v-3.34h5.167a.52.52 0 00.453-.265zm-12.693-.776l2.376-3.917a.52.52 0 00-.445-.79H7l2.376-3.918a.52.52 0 00-.445-.79H7.658L12 2.023l4.341 7.16H15.07a.52.52 0 00-.445.79L17 13.89h-1.273a.52.52 0 00-.445.79l2.376 3.918H6.342z"/>
    <path d="M14.456 21.622a.52.52 0 00-.52.52v.838a.52.52 0 001.04 0v-.838a.52.52 0 00-.52-.52zM16.017 21.622a.52.52 0 00-.52.52v.838a.52.52 0 001.04 0v-.838a.52.52 0 00-.52-.52zM17.578 21.622a.52.52 0 00-.52.52v.838a.52.52 0 001.04 0v-.838a.52.52 0 00-.52-.52zM19.139 21.622a.52.52 0 00-.52.52v.838a.52.52 0 001.04 0v-.838a.52.52 0 00-.52-.52zM20.7 21.622a.52.52 0 00-.52.52v.838a.52.52 0 001.04 0v-.838a.52.52 0 00-.52-.52zM22.26 21.622a.52.52 0 00-.52.52v.838a.52.52 0 001.041 0v-.838a.52.52 0 00-.52-.52zM9.544 21.622a.52.52 0 00-.52.52v.838a.52.52 0 101.04 0v-.838a.52.52 0 00-.52-.52zM7.982 21.622a.52.52 0 00-.52.52v.838a.52.52 0 001.04 0v-.838a.52.52 0 00-.52-.52zM6.422 21.622a.52.52 0 00-.52.52v.838a.52.52 0 101.04 0v-.838a.52.52 0 00-.52-.52zM4.86 21.622a.52.52 0 00-.52.52v.838a.52.52 0 001.04 0v-.838a.52.52 0 00-.52-.52zM3.3 21.622a.52.52 0 00-.52.52v.838a.52.52 0 101.04 0v-.838a.52.52 0 00-.52-.52zM1.738 21.622a.52.52 0 00-.52.52v.838a.52.52 0 001.04 0v-.838a.52.52 0 00-.52-.52z"/>
  </g>
</svg>
