<svg width="24" height="24" fill="none" xmlns="http://www.w3.org/2000/svg">
  <defs/>
  <path d="M6.97 2.988H4.275a.501.501 0 01-.109-.99l2.804-.91v1.9z" fill="#FE93D3"/>
  <path d="M5.67 1.51v1.478h1.3v-1.9l-1.3.422z" fill="#FE73C5"/>
  <path d="M21.222 10.081L17.42 7.13a9.766 9.766 0 00-5.988-2.051H3.18a.705.705 0 00-.58 1.105l.679.983a.705.705 0 00.35.267l1.87.641a3.23 3.23 0 012.168 2.783l7.634 3.113 5.921-3.89z" fill="#DEECF1"/>
  <path d="M17.42 7.13a9.766 9.766 0 00-5.988-2.051h-1.3c2.168 0 4.274.721 5.987 2.05l3.804 2.952-5.424 3.563.802.327 5.921-3.89L17.42 7.13z" fill="#A8D3D8"/>
  <path d="M20.939 17.825H2.997a.384.384 0 01-.384-.384l-1.435-4.118a.722.722 0 01.01-.516.892.892 0 01.6-.518.872.872 0 00.083-.025l2.252-.819a33.653 33.653 0 0115.92-1.734l1.808.24c.036.004.07.005.106.006.124.005.241.034.347.084.372.175.56.597.47.998l-1.451 6.402a.384.384 0 01-.384.384z" fill="#FFF9F0"/>
  <path d="M22.304 10.041a.886.886 0 00-.346-.084 1.119 1.119 0 01-.106-.007l-1.808-.24a33.647 33.647 0 00-5.087-.284c1.263.024 2.528.118 3.787.285l1.808.24c.035.004.07.005.106.006.124.005.24.034.347.084.372.175.56.597.47.998l-1.452 6.402a.384.384 0 01-.383.384h1.3a.384.384 0 00.383-.384l1.451-6.402a.884.884 0 00-.47-.998z" fill="#FAE8DB"/>
  <path d="M17.42 7.13a9.764 9.764 0 00-1.188-.79h-4.413a.539.539 0 00-.539.539v.246c0 .402.325.727.727.727h6.343l-.93-.722z" fill="#2ED1E2"/>
  <path d="M17.42 7.13a9.764 9.764 0 00-1.189-.79h-1.3c.413.233.81.496 1.188.79l.93.722h1.3l-.93-.722z" fill="#02C7DD"/>
  <path d="M23.111 18a1.287 1.287 0 00-1.063-1.254c-1.254-.222-1.595-.812-3.402-.812-2.226 0-2.226.896-4.452.896s-2.226-.896-4.453-.896c-2.226 0-2.226.896-4.452.896-1.459 0-1.962-.385-2.762-.65a1.286 1.286 0 00-1.69 1.22v5.512h22.326l-.052-4.913z" fill="#2ED1E2"/>
  <path d="M12.846 16.92c.25 0 .473-.012.674-.032-1.58-.16-1.803-.864-3.779-.864-.25 0-.473.011-.674.031 1.58.16 1.804.864 3.779.864zM23.11 18.089a1.287 1.287 0 00-1.062-1.253c-1.255-.222-1.595-.812-3.402-.812-.251 0-.474.011-.675.031 1.245.125 1.649.59 2.73.781.609.108 1.056.634 1.062 1.253l.052 4.912h1.348l-.052-4.912z" fill="#03BED7"/>
  <path d="M23.448 17.996a1.625 1.625 0 00-1.341-1.581 4.044 4.044 0 01-.197-.04l1.192-5.262a1.225 1.225 0 00-.654-1.376c-.15-.071-.312-.11-.478-.116-.025-.001-.054-.002-.074-.005l-.874-.115-.012-.011-3.384-2.627a10.153 10.153 0 00-6.194-2.121H9.794a.337.337 0 000 .674h1.638c1.117 0 2.225.202 3.267.587h-2.88a.877.877 0 00-.876.876v.246c0 .587.477 1.064 1.063 1.064h6.228l1.469 1.14a34.045 34.045 0 00-7.286-.095c-1.544.146-3.078.4-4.588.755a3.544 3.544 0 00-2.221-2.232l-1.869-.642a.365.365 0 01-.183-.139l-.679-.983a.362.362 0 01-.023-.38.362.362 0 01.326-.197h5.315a.337.337 0 000-.674H7.307V1.088a.337.337 0 00-.44-.32l-2.79.904a.84.84 0 00.199 1.653h2.357v1.417H3.18c-.389 0-.742.214-.922.558-.181.343-.156.756.065 1.075l.679.984c.127.184.307.32.519.393l1.868.642a2.874 2.874 0 011.783 1.756c-.76.195-1.513.416-2.257.663a.337.337 0 00.212.64 33.368 33.368 0 017.353-1.548c2.5-.237 5.03-.19 7.519.14l1.808.24c.053.006.102.008.139.01.075.002.147.02.215.051a.547.547 0 01.284.618l-.354 1.562a1.254 1.254 0 00-.121-.01c-.025-.001-.054-.002-.074-.005l-1.809-.24c-5.4-.715-10.96-.109-16.08 1.753l-1.977.719-.533-1.53a.384.384 0 01.002-.276.558.558 0 01.373-.322c.036-.009.074-.02.114-.034l1.918-.697a.337.337 0 10-.23-.634l-1.918.698a.66.66 0 01-.051.014c-.37.095-.679.362-.827.714-.1.236-.105.505-.018.758l.836 2.399c-.184.05-.361.135-.523.252A1.606 1.606 0 00.5 17.4v5.51c0 .187.15.337.337.337h22.326a.337.337 0 00.337-.34l-.052-4.912zM4.275 2.65a.165.165 0 01-.035-.325.323.323 0 00.03-.008l2.363-.766v1.1H4.275zm7.732 4.864a.39.39 0 01-.39-.39V6.88c0-.112.09-.202.202-.202h4.32c.373.214.732.454 1.074.719l.153.119h-5.36zm-7.77 7.142A33.452 33.452 0 0120 12.94l1.808.239c.05.007.098.009.134.01l-.677 2.985c-.089-.034-.177-.069-.266-.105-.577-.232-1.173-.472-2.352-.472-1.178 0-1.775.24-2.352.472-.541.218-1.052.424-2.1.424s-1.56-.206-2.1-.424c-.578-.232-1.174-.472-2.353-.472-1.178 0-1.774.24-2.351.472-.542.218-1.053.424-2.1.424-1.049 0-1.56-.206-2.101-.424a9.203 9.203 0 00-.556-.21 1.667 1.667 0 00-.234-.058l-.147-.422 1.986-.722zm-3.063 7.918V17.4a.94.94 0 01.394-.77.938.938 0 01.853-.132c.18.06.343.126.516.195.577.232 1.174.473 2.352.473 1.179 0 1.775-.24 2.352-.473.541-.218 1.053-.423 2.1-.423 1.048 0 1.56.205 2.1.423.578.232 1.174.473 2.353.473 1.178 0 1.775-.24 2.352-.473.541-.218 1.052-.423 2.1-.423s1.56.205 2.1.423c.358.144.727.293 1.243.384.45.08.78.469.785.925l.049 4.572H1.173z" fill="#000"/>
</svg>
