<svg width="24" height="24" fill="none" xmlns="http://www.w3.org/2000/svg">
  <defs/>
  <path d="M3.523 18.851h16.954V1.234H3.523v17.617zm.734-16.516c0-.203.165-.367.368-.367h14.75c.203 0 .368.164.368.367V17.75a.367.367 0 01-.367.367H4.624a.367.367 0 01-.367-.367V2.335z" fill="#F2EBD9"/>
  <path d="M6.347 16.573l-.008-.006a.367.367 0 01-.054-.516A7.32 7.32 0 0112 13.321a7.32 7.32 0 015.715 2.73.367.367 0 01-.055.516l-.008.006c.187.257.356.528.507.81h.85V2.703H4.99v14.68h.85c.15-.282.32-.553.506-.81zM12 3.926a4.336 4.336 0 014.33 4.33A4.336 4.336 0 0112 12.587a4.336 4.336 0 01-4.331-4.33 4.336 4.336 0 014.33-4.331z" fill="#98D9D5"/>
  <path d="M9.84 16.644a.367.367 0 01-.422-.302 2.645 2.645 0 01-.037-.434v-1.315a6.61 6.61 0 00-2.526 1.92.367.367 0 01-.508.06 6.99 6.99 0 00-.507.81h4.46a2.245 2.245 0 01-.43-.746.388.388 0 01-.03.007zM17.43 16.649a.366.366 0 01-.286-.136 6.611 6.611 0 00-2.526-1.92v1.316c0 .145-.012.29-.036.433a.367.367 0 01-.453.295c-.094.277-.241.53-.429.746h4.46a6.996 6.996 0 00-.508-.81.366.366 0 01-.222.076z" fill="#6DA8D6"/>
  <path d="M13.858 16.221a1.9 1.9 0 00.026-.312v-1.581a6.623 6.623 0 00-1.517-.263v.113a.367.367 0 01-.734 0v-.113a6.622 6.622 0 00-1.517.263v1.58c0 .106.008.211.025.313a.367.367 0 01-.27.416c.094.277.24.53.428.746h3.4c.189-.216.335-.469.43-.746a.367.367 0 01-.271-.416zm-1.491.06a.367.367 0 11-.734 0v-.635a.367.367 0 11.734 0v.636z" fill="#fff"/>
  <path d="M12 11.853a3.6 3.6 0 003.597-3.597A3.6 3.6 0 0012 4.66a3.6 3.6 0 00-3.597 3.596A3.6 3.6 0 0012 11.853zm-.925-3.698c.191-.068.4.032.469.223a.485.485 0 00.912 0 .367.367 0 01.692.246 1.22 1.22 0 01-1.148.81 1.22 1.22 0 01-1.148-.81.367.367 0 01.223-.469z" fill="#F2EBD9"/>
  <path d="M20.843 20.808H3.156a.367.367 0 100 .735h17.687a.367.367 0 100-.735zM12 22.766H3.156a.367.367 0 100 .734H12a.367.367 0 100-.734zM12 12.587a4.336 4.336 0 004.33-4.33A4.336 4.336 0 0012 3.925a4.336 4.336 0 00-4.331 4.33 4.336 4.336 0 004.33 4.331zm0-7.927a3.6 3.6 0 013.597 3.596A3.6 3.6 0 0112 11.853a3.6 3.6 0 01-3.597-3.597A3.6 3.6 0 0112 4.66zM6.856 16.513a6.61 6.61 0 012.526-1.92v1.316c0 .145.012.29.035.433a.367.367 0 00.725-.12 1.899 1.899 0 01-.026-.313v-1.581a6.61 6.61 0 011.517-.262v.112a.367.367 0 10.734 0v-.113c.52.029 1.028.118 1.517.263v1.58a1.9 1.9 0 01-.026.314.367.367 0 00.724.12 2.64 2.64 0 00.036-.433v-1.316a6.61 6.61 0 012.526 1.92.366.366 0 00.508.06l.008-.006a.367.367 0 00.055-.516A7.32 7.32 0 0012 13.321a7.32 7.32 0 00-5.715 2.73.367.367 0 00.054.516l.008.006c.158.12.383.095.508-.06z" fill="#082947"/>
  <path d="M12 9.434a1.22 1.22 0 001.147-.81.367.367 0 00-.691-.246.485.485 0 01-.913 0 .367.367 0 00-.692.246c.173.485.634.81 1.148.81z" fill="#082947"/>
  <path d="M20.843.5H3.156a.367.367 0 00-.367.367v18.351c0 .203.164.367.367.367h17.687a.367.367 0 00.367-.367V.867A.367.367 0 0020.843.5zm-.367 18.351H3.523V1.234h16.953v17.617z" fill="#082947"/>
  <path d="M4.624 18.117h14.751a.367.367 0 00.367-.367V2.335a.367.367 0 00-.367-.367H4.624a.367.367 0 00-.367.367V17.75c0 .203.164.367.367.367zM4.99 2.702h14.017v14.681H4.991V2.703z" fill="#082947"/>
  <path d="M12 15.279a.367.367 0 00-.367.367v.636a.367.367 0 10.734 0v-.636a.367.367 0 00-.367-.367z" fill="#082947"/>
</svg>
