<svg width="24" height="24" fill="none" xmlns="http://www.w3.org/2000/svg">
  <defs/>
  <path d="M2.702 2.728v15h7.892c.53 0 1.03.203 1.406.557a2.05 2.05 0 011.406-.556h7.892V2.728h-7.892c-.443 0-.854.22-1.1.59a.367.367 0 01-.612 0 1.319 1.319 0 00-1.1-.59H2.702zM17.2 3.829c0-.203.164-.367.367-.367h2.63c.203 0 .367.164.367.367v2.729a.367.367 0 01-.367.367h-2.63a.367.367 0 01-.367-.367V3.829zm.367 3.83h2.63a.367.367 0 110 .734h-2.63a.367.367 0 010-.734zm0 1.468h1.315a.367.367 0 010 .734h-1.316a.367.367 0 010-.734zm-.367 1.835c0-.202.164-.367.367-.367h2.63c.203 0 .367.165.367.367v2.73a.367.367 0 01-.367.366h-2.63a.367.367 0 01-.367-.367v-2.729zm.367 3.83h2.63a.367.367 0 110 .735h-2.63a.367.367 0 010-.735zm0 1.469h1.315a.367.367 0 110 .733h-1.316a.367.367 0 110-.733zM13.1 3.829c0-.203.164-.367.367-.367h2.63c.203 0 .367.164.367.367v2.729a.367.367 0 01-.367.367h-2.63a.367.367 0 01-.367-.367V3.829zm.367 3.83h2.63a.367.367 0 110 .734h-2.63a.367.367 0 010-.734zm0 1.468h1.315a.367.367 0 010 .734h-1.315a.367.367 0 010-.734zm-.367 1.835c0-.202.164-.367.367-.367h2.63c.203 0 .367.165.367.367v2.73a.367.367 0 01-.367.366h-2.63a.367.367 0 01-.367-.367v-2.729zm.367 3.83h2.63a.367.367 0 110 .735h-2.63a.367.367 0 010-.735zm0 1.469h1.315a.367.367 0 110 .733h-1.315a.367.367 0 110-.733zM11.633 4.584a.367.367 0 11.734 0v12.373a.367.367 0 11-.734 0V4.584zm-6.515 12.41H3.803a.367.367 0 110-.733h1.315a.367.367 0 110 .733zm1.316-1.467h-2.63a.367.367 0 010-.735h2.63a.367.367 0 110 .735zM6.8 13.69a.367.367 0 01-.367.367h-2.63a.367.367 0 01-.368-.367v-2.729c0-.202.165-.367.367-.367h2.63c.203 0 .368.165.368.367v2.73zM3.436 9.494c0-.203.165-.367.367-.367h1.315a.367.367 0 110 .734H3.803a.367.367 0 01-.367-.367zm2.998-1.1h-2.63a.367.367 0 010-.735h2.63a.367.367 0 010 .734zM6.8 6.557a.367.367 0 01-.367.367h-2.63a.367.367 0 01-.368-.367V3.829c0-.203.165-.367.367-.367h2.63c.203 0 .368.164.368.367v2.729zm2.416 10.436H7.902a.367.367 0 110-.733h1.315a.367.367 0 110 .733zm1.315-1.467h-2.63a.367.367 0 010-.735h2.63a.367.367 0 110 .735zm.367-1.836a.367.367 0 01-.367.367h-2.63a.367.367 0 01-.367-.367v-2.729c0-.202.164-.367.367-.367h2.63c.203 0 .367.165.367.367v2.73zM7.535 9.494c0-.203.164-.367.367-.367h1.315a.367.367 0 010 .734H7.902a.367.367 0 01-.367-.367zm2.997-1.1h-2.63a.367.367 0 110-.735h2.63a.367.367 0 110 .734zm.367-4.565v2.729a.367.367 0 01-.367.367h-2.63a.367.367 0 01-.367-.367V3.829c0-.203.164-.367.367-.367h2.63c.203 0 .367.164.367.367z" fill="#fff"/>
  <path d="M10.594 19.197c.372 0 .729.1 1.039.282v-.51a1.318 1.318 0 00-1.04-.506H2.336v.734h8.259zM13.406 18.463c-.408 0-.79.187-1.039.506v.51c.31-.182.667-.282 1.04-.282h8.258v-.734h-8.259z" fill="#C1E8E6"/>
  <path d="M19.83 4.196h-1.896v1.995h1.896V4.196zM15.731 4.196h-1.896v1.995h1.896V4.196zM19.83 11.33h-1.896v1.994h1.896V11.33zM15.731 11.33h-1.896v1.994h1.896V11.33zM10.165 11.33H8.269v1.994h1.896V11.33zM6.066 11.33H4.17v1.994h1.896V11.33zM10.165 4.196H8.269v1.995h1.896V4.196zM6.066 4.196H4.17v1.995h1.896V4.196z" fill="#F2EBD9"/>
  <path d="M22.032 18.096a.367.367 0 01-.367.367v.734a.367.367 0 110 .734h-8.259c-.443 0-.854.22-1.1.59a.385.385 0 01-.026.034l-.007.008a.384.384 0 01-.021.022l-.01.009a.355.355 0 01-.024.019l-.009.006a.368.368 0 01-.073.04l-.01.003a.392.392 0 01-.03.01l-.011.003a.353.353 0 01-.03.005l-.012.002a.368.368 0 01-.085 0l-.011-.002a.358.358 0 01-.031-.005l-.012-.003a.387.387 0 01-.03-.01l-.01-.003a.35.35 0 01-.073-.04l-.008-.006a.4.4 0 01-.024-.019l-.01-.01a.42.42 0 01-.02-.02l-.009-.01a.355.355 0 01-.025-.032 1.32 1.32 0 00-1.1-.591h-8.26a.367.367 0 110-.734v-.734a.367.367 0 01-.367-.367V5.664h-.734v15h9.36c.188 0 .363.09.474.24l.315.368h1.235l.315-.367c.11-.151.286-.24.473-.24h9.36v-15h-.734v12.43z" fill="#6DA8D6"/>
  <path d="M12 17.324a.367.367 0 00.367-.367V4.584a.367.367 0 00-.734 0v12.373c0 .203.164.367.367.367z" fill="#082947"/>
  <path d="M23.133 4.93h-1.101V2.36a.367.367 0 00-.367-.366h-8.259c-.53 0-1.03.202-1.406.556a2.05 2.05 0 00-1.406-.556H2.335a.367.367 0 00-.367.367V4.93H.867a.367.367 0 00-.367.367v15.735c0 .202.164.367.367.367h9.657l.41.479c.07.081.172.128.28.128h1.573a.367.367 0 00.278-.128l.411-.48h9.657a.367.367 0 00.367-.366V5.297a.367.367 0 00-.367-.367zm-.367 15.735h-9.36a.586.586 0 00-.473.24l-.315.367h-1.236l-.315-.367a.587.587 0 00-.473-.24h-9.36v-15h.734v12.43c0 .203.164.368.367.368h8.259c.408 0 .79.187 1.039.506v.51a2.052 2.052 0 00-1.04-.282H2.336a.367.367 0 000 .734h8.259c.443 0 .854.22 1.1.59a.384.384 0 00.026.034l.008.008a.383.383 0 00.055.05l.008.006a.37.37 0 00.073.04l.01.003.03.01.011.002c.01.003.02.005.031.006l.011.002a.351.351 0 00.085 0l.012-.002a.349.349 0 00.03-.006l.012-.002a.393.393 0 00.03-.01l.01-.004a.343.343 0 00.073-.039l.008-.006a.426.426 0 00.063-.058.357.357 0 00.025-.034 1.32 1.32 0 011.101-.59h8.259a.367.367 0 100-.734h-8.259c-.372 0-.729.1-1.039.282v-.51c.25-.319.63-.507 1.039-.507h8.259a.367.367 0 00.367-.366V5.664h.734v15zM11.694 3.319a.367.367 0 00.612 0c.246-.37.657-.591 1.1-.591h7.892v15h-7.892c-.53 0-1.03.203-1.406.557a2.05 2.05 0 00-1.406-.556H2.702V2.728h7.892c.443 0 .854.22 1.1.59z" fill="#082947"/>
  <path d="M7.901 3.462a.367.367 0 00-.367.367v2.729c0 .203.165.367.367.367h2.63a.367.367 0 00.367-.367V3.829a.367.367 0 00-.367-.367h-2.63zm2.264 2.729H8.268V4.196h1.896v1.995zM6.434 3.462h-2.63a.367.367 0 00-.367.367v2.729c0 .203.164.367.367.367h2.63a.367.367 0 00.367-.367V3.829a.367.367 0 00-.367-.367zM6.067 6.19H4.17V4.196h1.896v1.995zM10.531 10.595h-2.63a.367.367 0 00-.367.367v2.73c0 .202.165.366.367.366h2.63a.367.367 0 00.367-.367v-2.729a.367.367 0 00-.367-.367zm-.367 2.73H8.268v-1.996h1.896v1.995zM6.434 10.595h-2.63a.367.367 0 00-.367.367v2.73c0 .202.164.366.367.366h2.63a.367.367 0 00.367-.367v-2.729a.367.367 0 00-.367-.367zm-.367 2.73H4.17v-1.996h1.896v1.995zM10.531 7.659h-2.63a.367.367 0 000 .734h2.63a.367.367 0 000-.734zM6.434 7.659h-2.63a.367.367 0 000 .734h2.63a.367.367 0 100-.734zM10.531 14.792h-2.63a.367.367 0 100 .734h2.63a.367.367 0 100-.734zM6.434 14.792h-2.63a.367.367 0 100 .734h2.63a.367.367 0 100-.734zM7.901 9.861h1.315a.367.367 0 000-.734H7.901a.367.367 0 000 .734zM3.804 9.861h1.315a.367.367 0 000-.734H3.804a.367.367 0 000 .734zM9.216 16.26H7.901a.367.367 0 100 .734h1.315a.367.367 0 100-.733zM5.119 16.26H3.804a.367.367 0 100 .734h1.315a.367.367 0 100-.733zM17.566 6.925h2.63a.367.367 0 00.368-.367V3.829a.367.367 0 00-.367-.367h-2.63a.367.367 0 00-.368.367v2.729c0 .203.164.367.367.367zm.367-2.729h1.896v1.995h-1.896V4.196zM13.468 6.925h2.63a.367.367 0 00.367-.367V3.829a.367.367 0 00-.367-.367h-2.63a.367.367 0 00-.367.367v2.729c0 .203.164.367.367.367zm.367-2.729h1.896v1.995h-1.896V4.196zM17.566 14.058h2.63a.367.367 0 00.368-.367v-2.729a.367.367 0 00-.367-.367h-2.63a.367.367 0 00-.368.367v2.73c0 .202.164.366.367.366zm.367-2.729h1.896v1.995h-1.896V11.33zM13.468 14.058h2.63a.367.367 0 00.367-.367v-2.729a.367.367 0 00-.367-.367h-2.63a.367.367 0 00-.367.367v2.73c0 .202.164.366.367.366zm.367-2.729h1.896v1.995h-1.896V11.33zM17.566 8.393h2.63a.367.367 0 000-.734h-2.63a.367.367 0 000 .734zM13.468 8.393h2.63a.367.367 0 100-.734h-2.63a.367.367 0 000 .734zM17.566 15.526h2.63a.367.367 0 100-.734h-2.63a.367.367 0 100 .734zM13.468 15.526h2.63a.367.367 0 100-.734h-2.63a.367.367 0 100 .734zM17.566 9.861h1.315a.367.367 0 000-.734h-1.315a.367.367 0 000 .734zM13.468 9.861h1.315a.367.367 0 000-.734h-1.315a.367.367 0 000 .734zM17.566 16.994h1.315a.367.367 0 100-.733h-1.315a.367.367 0 100 .733zM13.468 16.994h1.315a.367.367 0 100-.733h-1.315a.367.367 0 100 .733z" fill="#082947"/>
</svg>
