<svg width="24" height="24" fill="none" xmlns="http://www.w3.org/2000/svg">
  <defs/>
  <g fill-rule="evenodd" clip-rule="evenodd">
    <path d="M6.122 15.807c-.162.25-1.596 2.5-1.78 1.976-.278-.792-1.343-1.002-1.944-.648-.851.5-.254 2.243.605 2.243h2l3.197-.237c2.34-2.634 2.446-5.648.44-9.023-1.7.001-2.364 1-2.363 3.486v.386c0 .83.125 1.388-.155 1.817zM18.999 19.383h2c.859 0 1.456-1.741.604-2.243-.601-.353-1.666-.143-1.945.65-.184.523-1.617-1.727-1.779-1.977-.28-.43-.155-.986-.155-1.816v-.387c0-2.488-.662-3.485-2.363-3.486l.002.001c-2.506 3.547-1.838 9.243 3.636 9.258z" fill="#FFDDA6"/>
    <path d="M7.962 12.06c-.005.45.036.954.238 1.371.042.087.09.171.148.249.084.114.18.21.293.279.685.561 2.115.772 3.192.473.204-.057.137-.055.34 0 1.095.294 2.542.033 3.188-.473a1.2 1.2 0 00.44-.521c.2-.423.244-.963.239-1.378-.022-.66-.22-1.456-.68-1.942H8.642c-.349.368-.564.942-.646 1.541-.017.134-.029.268-.033.401z" fill="#64B0D9"/>
    <path d="M8.2 12.486v4.952l4.102 1.595 3.5-1.595v-4.947a1.19 1.19 0 01-.441.52c-.646.508-2.093.768-3.188.474-.204-.053-.136-.056-.34 0-1.077.3-2.507.088-3.192-.474a1.047 1.047 0 01-.293-.278 1.564 1.564 0 01-.148-.247z" fill="#64B0D9"/>
    <path d="M6.364 18.467l6.15 2.837 5.124-2.837-1.837-1.029h-7.6l-1.837 1.029z" fill="#0F941E"/>
    <path d="M7.962 12.06c-.005.45.036.954.238 1.371.1.207.244.405.441.528.685.561 2.115.772 3.192.473.204-.057.137-.055.34 0 1.095.294 2.542.033 3.188-.473a1.2 1.2 0 00.44-.521c.2-.423.244-.963.239-1.378a4.022 4.022 0 00-.036-.416 2.571 2.571 0 01-.203.739 1.199 1.199 0 01-.44.52c-.646.507-2.093.767-3.188.474-.203-.055-.136-.057-.34 0-1.077.299-2.507.088-3.192-.474a1.069 1.069 0 01-.293-.279 1.581 1.581 0 01-.148-.248 2.376 2.376 0 01-.203-.723l-.002.007c-.017.133-.029.267-.033.4z" fill="#4A83C9"/>
    <path d="M12.515 20.026c-3.87 0-4.862 3.134-3.921 3.134h1.735c.321-1.474 1.055-2.511 2.186-3.134z" fill="#FFDDA6"/>
    <path d="M5.003 19.378c-.96 1.34-.583 3.782 2.184 3.782h1.407c-.941 0 .05-3.134 3.92-3.134-1.853-1.152-4.593-1.894-6.15-1.56-.368.132-1.04.472-1.356.904l-.003.004c0 .002 0 .003-.002.004z" fill="#50D960"/>
    <path d="M12.514 20.026c-1.13.623-1.864 1.66-2.185 3.134h6.744c2.2 0 2.68-2.533 1.942-3.782h-.017c-.313-.436-.992-.78-1.36-.911-2.024-.148-3.961.88-5.124 1.56z" fill="#50D960"/>
    <path d="M4.57 20.405c-.241 1.285.467 2.758 2.615 2.758h1.408c-.344 0-.43-.418-.213-.947H7.185c-1.626 0-2.427-.843-2.616-1.811z" fill="#0F941E"/>
    <path d="M8.38 22.216c-.216.53-.131.947.213.947h1.736c.074-.339.17-.654.287-.947H8.38z" fill="#FCC368"/>
    <path d="M10.616 22.213a5.967 5.967 0 00-.287.947h6.744c1.78 0 2.435-1.66 2.227-2.956-.162 1.038-.864 2.01-2.227 2.01h-6.457z" fill="#0F941E"/>
    <path d="M2.05 17.565c-.251.703.267 1.813.953 1.813h2l.002-.004.003-.003c.272-.375.81-.68 1.19-.84l-1.174.087H3.025c-.463 0-.85-.506-.975-1.053zM17.733 18.502c.382.153.978.475 1.266.876h.017c0 .002 0 .004.002.005h1.98c.661 0 1.167-1.028.978-1.732-.142.514-.514.973-.955.973h-2a6.675 6.675 0 01-1.288-.122z" fill="#FCC368"/>
    <path d="M18.642 7.616c-1.492-.877-.734-3.463-1.155-4.532-.48-1.225-1.934-.728-2.432-.728l-.705 2.307.844 2.816c.882 1.39 2.441 1.265 3.409.878.479-.192.555-.438.04-.74z" fill="#B5722F"/>
    <path d="M13.644 10.118v-1.79l-1.639-.643-1.648.631v1.802a1.644 1.644 0 103.287 0z" fill="#FCC368"/>
    <path d="M15.194 7.479c.36-.508.585-1.099.585-1.742l.005-1.2-3.66-2.29-3.839 1.605a3.125 3.125 0 00-.05.538L8.23 5.897c0 1.24 1.057 2.31 2.127 2.908.61.343 1.225.53 1.648.507.517-.03 1.095-.204 1.639-.495.597-.32 1.155-.778 1.55-1.338z" fill="#FFDDA6"/>
    <path d="M10.996 3.351c1.252 1.219 2.369 1.52 4.788 1.185V4.39c.003-.76-.279-1.46-.73-2.033-.73-.927-1.902-1.524-3.038-1.516-1.719.01-3.421 1.322-3.73 3.012 1.688.772 1.793-1.393 2.71-.5z" fill="#B5722F"/>
    <path d="M15.785 4.389c.002-.76-.28-1.46-.73-2.033-.73-.927-1.902-1.524-3.038-1.516a3.61 3.61 0 00-.918.126c1.046.081 2.092.654 2.763 1.507.293.372.514.797.633 1.256a3.153 3.153 0 01.098.776l-.002.149c.362-.017.757-.056 1.194-.118V4.39z" fill="#8A541E"/>
    <path d="M15.78 5.737l.004-1.2c-.436.06-.831.1-1.193.117l-.002.805-.003.395c0 .643-.225 1.234-.585 1.742-.165.234-.358.45-.572.648a4.844 4.844 0 01-1.818 1.039c.143.025.275.035.394.029.517-.03 1.095-.204 1.639-.495.597-.32 1.155-.778 1.55-1.338.36-.508.585-1.099.585-1.742z" fill="#FCC368"/>
    <path d="M18.642 7.616c-1.492-.877-.734-3.463-1.155-4.532-.254-.65-.784-.815-1.298-.828.184.144.342.347.454.63.479 1.22-.386 4.169 1.316 5.168.24.141.367.271.398.39.085-.026.167-.056.246-.087.479-.192.555-.438.04-.74z" fill="#8A541E"/>
    <path d="M13.644 9.565v-.748c-.544.291-1.122.466-1.639.495-.423.023-1.038-.164-1.648-.507v.73l.017.01c.61.341 1.225.53 1.648.505.257-.014.53-.065.804-.147.195-.059.135.159.134.215v.13c0 .68-.411 1.263-.998 1.512a1.644 1.644 0 001.682-1.642v-.553z" fill="#EDA93B"/>
  </g>
  <path d="M21.774 16.847c-.415-.243-.984-.28-1.486-.096a1.576 1.576 0 00-.821.653c-.193-.194-.58-.655-1.281-1.74l-.023-.036c-.15-.23-.136-.567-.116-1.035.008-.177.016-.378.016-.596v-.387c0-1.347-.191-2.257-.602-2.865-.425-.63-1.09-.943-2.03-.959a.329.329 0 00-.071-.008h-1.377v-.763c.256-.15.502-.323.73-.517.172-.147.33-.302.473-.463.587.668 1.363.917 2.119.917.503 0 .999-.11 1.424-.28.142-.057.575-.231.605-.626.03-.4-.384-.643-.52-.723-.813-.477-.823-1.673-.833-2.728-.005-.621-.01-1.208-.179-1.635-.487-1.244-1.797-1.065-2.427-.978l-.172.022a4.177 4.177 0 00-.22-.238C14.186.972 13.087.5 12.038.5h-.024c-1.007.007-2.037.422-2.826 1.14-.83.755-1.289 1.732-1.292 2.749L7.89 5.897c0 1.049.639 1.874 1.175 2.382.289.273.614.518.951.723v.776H8.64c-2.383.002-2.704 1.935-2.703 3.825v.387c0 .218.009.42.016.597.02.468.034.806-.116 1.034l-.001.002-.014.022c-.653 1.015-1.067 1.532-1.288 1.754a1.575 1.575 0 00-.822-.655c-.503-.183-1.072-.145-1.486.098-.5.294-.7.94-.509 1.643.162.594.633 1.233 1.286 1.233h1.42c-.32.746-.324 1.614.024 2.326.265.544.974 1.456 2.739 1.456h6.393c.34-.3.133-.68-.164-.68h-2.65c.336-1.154.963-1.973 1.911-2.496h.002l.004-.003.003-.002c1.314-.766 3.05-1.628 4.865-1.517.347.129.924.433 1.172.78a.353.353 0 00.041.046c.338.647.309 1.614-.078 2.292-.235.411-.705.9-1.612.9h-2.32c-.341.3-.134.68.163.68h2.157c.962 0 1.744-.442 2.202-1.243.424-.744.513-1.732.26-2.534h1.462c.653 0 1.124-.638 1.286-1.23.191-.705-.008-1.35-.51-1.646zm-9.256 2.785c-1.448-.858-3.274-1.438-4.757-1.56l.527-.295 3.007.002h.163c.341-.3.134-.68-.163-.68H8.54v-2.792c.544.386 1.387.601 2.228.601a4.366 4.366 0 001.229-.17l.005-.001.084.023c1.1.296 2.575.09 3.376-.456V17.1h-2.773c-.34.299-.133.678.163.678h2.852l.701.394c-1.49.198-2.867.878-3.886 1.46zm3.13-17c.693-.084 1.273-.06 1.523.576.121.31.126.836.131 1.393.01 1.174.024 2.636 1.168 3.308.053.031.092.058.121.08a1.188 1.188 0 01-.115.053c-.322.129-1.915.68-2.872-.567a3.29 3.29 0 00.514-1.737l.005-1.18V4.39a3.516 3.516 0 00-.475-1.76zm-3.63-1.453h.02c.873 0 1.793.398 2.465 1.068.57.568.9 1.27.938 1.992-2.09.255-3.064-.017-4.208-1.13-.66-.643-1.161-.16-1.46.129-.302.29-.568.545-1.086.402.4-1.35 1.81-2.45 3.331-2.46zM9.533 7.786C9.093 7.37 8.57 6.704 8.57 5.9l.005-1.508.002-.08c.849.202 1.35-.28 1.666-.584.118-.113.239-.23.315-.253.055-.016.168.088.201.12 1.016.989 1.965 1.41 3.436 1.41.378 0 .791-.029 1.248-.082l-.004.815c0 1.83-2.078 3.16-3.453 3.236a.867.867 0 01-.053.001c-.561 0-1.61-.44-2.4-1.188zm3.77 1.564v.967a.98.98 0 01-.41.799c-1.054.75-2.197.007-2.197-.998v-.764c.442.19.873.3 1.235.3.031 0 .062-.002.092-.003a4.091 4.091 0 001.28-.301zm-5.002 2.717a3.61 3.61 0 01.03-.362c.069-.505.236-.95.465-1.248h1.25A1.986 1.986 0 0012 12.101c.978 0 1.793-.712 1.955-1.644h1.25c.338.436.478 1.103.495 1.61.003.33-.025.833-.195 1.206a.855.855 0 01-.354.418c-.533.42-1.852.692-2.89.413l-.072-.02a.544.544 0 00-.384.003l-.062.018c-.977.271-2.317.077-2.906-.425a.689.689 0 01-.214-.2c-.223-.307-.328-.77-.321-1.413zm-5.929 6.24c-.082-.303-.08-.716.198-.88a.976.976 0 01.489-.118c.14 0 .286.024.42.073.155.057.432.199.543.513.06.17.195.283.363.303.264.032.546-.126 1.21-1.021.215-.29.454-.636.711-1.03h.744c.34-.3.133-.68-.163-.68h-.28c.05-.277.038-.58.024-.908-.007-.18-.015-.365-.015-.569v-.387c0-1.187.158-2 .485-2.484a1.39 1.39 0 01.865-.59 3.767 3.767 0 00-.308 1.086 4.23 4.23 0 00-.036.436v.005c-.005.39.019.919.219 1.403.006.016.012.031.02.047v3.733l-1.64.918c-.358.131-.992.445-1.381.882H3.003c-.242 0-.519-.322-.63-.732zm2.685 3.44c-.323-.662-.23-1.542.22-2.17v-.001c.253-.352.834-.656 1.178-.781 1.183-.245 3.202.184 4.9.989-1.092.19-1.835.631-2.3 1.016-.688.568-1.132 1.329-1.132 1.938 0 .029 0 .056.003.083h-.74c-1.326 0-1.89-.584-2.13-1.075zm5.004 1.074H8.61c-.023-.081-.015-.328.187-.69.375-.674 1.218-1.384 2.549-1.653-.607.604-1.037 1.387-1.285 2.343zm11.566-4.508c-.111.41-.388.73-.63.73H19.16c-.378-.422-.99-.732-1.355-.87a.32.32 0 00-.051-.025l-1.614-.904V13.51c.194-.455.243-.996.238-1.452v-.008a3.94 3.94 0 00-.342-1.512c.382.095.659.286.862.587.327.485.486 1.298.486 2.486v.387c0 .204-.008.389-.015.568-.014.33-.026.631.024.91h-.443c-.34.298-.133.678.163.678h.581c.151.233.43.655.724 1.048.655.88.934 1.034 1.197 1.003a.439.439 0 00.363-.302c.11-.315.387-.457.543-.514.307-.112.673-.094.909.045.278.163.28.576.197.88z" fill="#000"/>
  <path d="M10.95 5.74c-.112.1-.612.101-.724 0-.2-.202-.594-.1-.6.313.194.403.755.442.958.442h.002c.207 0 .768-.039.963-.442-.006-.413-.399-.516-.6-.313zM13.356 6.495h.004c.209 0 .766-.039.964-.441-.006-.413-.399-.517-.6-.314-.11.1-.611.101-.724 0-.2-.202-.594-.1-.6.313.194.402.753.442.956.442z" fill="#000"/>
</svg>
