<svg width="24" height="24" fill="none" xmlns="http://www.w3.org/2000/svg">
  <defs/>
  <path d="M15.29 12.042l-5.67 3.274V8.768l5.67 3.274z" fill="#F2F2F2"/>
  <path d="M23.08 7.437v9.126a2.95 2.95 0 01-2.95 2.95H3.87a2.95 2.95 0 01-2.95-2.95V7.437a2.95 2.95 0 012.95-2.95h16.26a2.95 2.95 0 012.95 2.95zM9.62 15.316l5.67-3.274-5.67-3.274v6.548z" fill="#F14336"/>
  <g fill="#333">
    <path d="M20.13 19.932H3.87a3.373 3.373 0 01-3.37-3.37V7.438a3.373 3.373 0 013.37-3.37h16.26a3.373 3.373 0 013.37 3.37v9.126a3.373 3.373 0 01-3.37 3.37zM3.87 4.907a2.533 2.533 0 00-2.53 2.53v9.126a2.533 2.533 0 002.53 2.53h16.26a2.533 2.533 0 002.53-2.53V7.437a2.533 2.533 0 00-2.53-2.53H3.87z"/>
    <path d="M9.619 15.736a.42.42 0 01-.42-.42V8.768a.42.42 0 01.63-.363l5.67 3.274a.42.42 0 010 .726l-5.67 3.274a.418.418 0 01-.21.057zm.42-6.24v5.093l4.41-2.547-4.41-2.547z"/>
  </g>
</svg>
