<svg width="24" height="24" fill="none" xmlns="http://www.w3.org/2000/svg">
  <defs/>
  <g fill-rule="evenodd" clip-rule="evenodd">
    <path d="M3.3 11.617l-1.399-1.442 1.4-1.442c1.16-2.348 5.088-4.076 9.755-4.076 5.58 0 10.105 2.47 10.105 5.518 0 3.047-4.525 5.517-10.105 5.517-4.667 0-8.594-1.727-9.755-4.075z" fill="#FE636E"/>
    <path d="M23.161 10.175c0-1.567-4.525-2.835-10.105-2.835-4.667 0-8.594.888-9.755 2.094v1.482c1.16 1.207 5.088 2.095 9.755 2.095 5.58 0 10.105-1.27 10.105-2.835z" fill="#FFD659"/>
    <path d="M18.244 12.609c-1.777.85-4.107 1.367-6.658 1.367-3.428 0-6.458-.933-8.285-2.36.704 1.424 2.425 2.621 4.713 3.341 1.483.468 3.205.735 5.043.735 1.835 0 3.558-.267 5.042-.735 3.025-.953 5.062-2.737 5.062-4.782 0 1.033-1.97 1.938-4.917 2.434z" fill="#FB2A39"/>
    <path d="M21.681 8.697c-.122 1.559-1.427 2.949-3.437 3.912 2.946-.496 4.917-1.4 4.917-2.434 0-.541-.541-1.048-1.48-1.478z" fill="#FFBF00"/>
    <path d="M23.16 10.175c0-1.175-.671-2.264-1.817-3.16a3.244 3.244 0 01.338 1.682c.939.43 1.48.937 1.48 1.479z" fill="#FB2A39"/>
    <path d="M2.07 6.494c-.676 0-1.23.553-1.23 1.229v5.294c0 .676.554 1.229 1.23 1.229.677 0 1.23-.553 1.23-1.229V7.723c0-.676-.553-1.229-1.23-1.229z" fill="#ECECEC"/>
    <path d="M3.301 7.723a1.234 1.234 0 00-1.703-1.135c.444.186.758.626.758 1.135v5.294c0 .509-.314.95-.758 1.135A1.234 1.234 0 003.3 13.017V7.723z" fill="#CECECE"/>
    <path d="M13.056 15.692c-1.837 0-3.56-.267-5.042-.735l.287 2.55 4.717.532 4.793-.532.288-2.55c-1.484.468-3.207.735-5.043.735z" fill="#ECECEC"/>
    <path d="M17.812 17.508h-9.51l.037.328c.099.888.48 1.506 1.394 1.506h6.646c.916 0 1.295-.618 1.396-1.506l.037-.328z" fill="#FE636E"/>
    <path d="M17.811 17.508h-1.448l-.018.162-.02.166c-.099.888-.48 1.506-1.393 1.506h1.447c.915 0 1.295-.618 1.395-1.506l.037-.328z" fill="#FB2A39"/>
    <path d="M18.1 14.957c-.126.04-1.493.422-1.493.385-1.104.227-2.302.35-3.55.35-1.838 0-3.56-.267-5.043-.735l.098.874c1.45.44 3.12.69 4.897.69a17.99 17.99 0 003.02-.25c.544-.093.467.052.407.585l-.073.651h1.448l.288-2.55z" fill="#CECECE"/>
  </g>
  <path d="M20.363 5.976c-1.957-1.069-4.552-1.658-7.307-1.658-2.311 0-4.498.41-6.325 1.185-1.338.567-2.387 1.289-3.095 2.12A1.57 1.57 0 00.5 7.723v5.294a1.57 1.57 0 003.14 0v-.286c.707.83 1.755 1.55 3.09 2.116.314.133.638.254.97.365l.3 2.66c.168 1.495 1.034 1.809 1.732 1.809h6.647c.697 0 1.563-.314 1.732-1.808l.024-.206a.338.338 0 00.028-.248l.248-2.206a11.97 11.97 0 001.952-.84c2.023-1.104 3.137-2.595 3.137-4.198 0-1.604-1.114-3.096-3.137-4.2zm-13.367.152c1.744-.74 3.839-1.13 6.06-1.13 2.643 0 5.123.558 6.982 1.574 1.12.612 1.927 1.34 2.374 2.129-.46-.281-1.063-.538-1.803-.765-1.727-.53-4.068-.857-6.592-.923a.34.34 0 10-.018.679c2.465.064 4.742.382 6.411.893 1.51.463 2.411 1.057 2.411 1.59 0 .444-.713 1.118-2.712 1.679-1.88.527-4.384.818-7.053.818-2.242 0-4.359-.203-6.12-.587-1.572-.343-2.732-.806-3.296-1.313V9.578c1.136-1.02 4.6-1.792 8.54-1.888a.34.34 0 10-.016-.679c-3.732.091-6.89.735-8.46 1.686.575-1.002 1.733-1.908 3.292-2.57zm-4.035 6.89a.892.892 0 01-1.782 0V7.723a.89.89 0 011.782 0V13.017zm14.547 4.15h-3.82a.34.34 0 100 .68h3.742c-.13 1.021-.629 1.155-1.051 1.155H9.732c-.422 0-.921-.134-1.05-1.156h3.558a.34.34 0 100-.678H8.604l-.196-1.74c1.43.396 3.008.603 4.648.603 1.64 0 3.222-.208 4.648-.602l-.196 1.739zm2.53-3.39a11.444 11.444 0 01-2.07.866c-1.476.463-3.158.71-4.912.71-1.766 0-3.452-.249-4.946-.722a12.587 12.587 0 01-1.114-.409c-1.558-.66-2.717-1.568-3.291-2.569 1.702 1.033 5.264 1.697 9.351 1.697 2.729 0 5.299-.3 7.237-.843.885-.249 1.594-.536 2.118-.856-.448.788-1.253 1.516-2.373 2.127z" fill="#000"/>
</svg>
