<svg xmlns="http://www.w3.org/2000/svg" width="24" height="24" fill="currentColor" viewBox="0 0 24 24">
  <path d="M10 3.586L18.414 12 10 20.414v-4.58c-2.044-.225-4.124.704-6.293 2.873L2 20.414V18c0-6.15 2.739-9.587 8-9.965v-4.45zm2 4.828V10h-1c-4.022 0-6.25 1.81-6.84 5.682 2.314-1.68 4.687-2.25 7.082-1.652l.758.19v1.366L15.586 12 12 8.414zm2-4.828v3L19.414 12 14 17.414v3L22.414 12 14 3.586z"/>
  <mask id="a" width="21" height="18" x="2" y="3" maskUnits="userSpaceOnUse">
    <path d="M10 3.586L18.414 12 10 20.414v-4.58c-2.044-.225-4.124.704-6.293 2.873L2 20.414V18c0-6.15 2.739-9.587 8-9.965v-4.45zm2 4.828V10h-1c-4.022 0-6.25 1.81-6.84 5.682 2.314-1.68 4.687-2.25 7.082-1.652l.758.19v1.366L15.586 12 12 8.414zm2-4.828v3L19.414 12 14 17.414v3L22.414 12 14 3.586z"/>
  </mask>
</svg>
