<svg xmlns="http://www.w3.org/2000/svg" width="24" height="24" fill="currentColor" viewBox="0 0 24 24">
  <path d="M19.628 12c2.093 3.422 2.618 6.724.857 8.485-1.76 1.761-5.063 1.236-8.485-.857-3.422 2.093-6.724 2.618-8.485.857-1.761-1.76-1.236-5.063.857-8.485-2.093-3.422-2.618-6.724-.857-8.485 1.76-1.761 5.063-1.236 8.485.857 3.422-2.093 6.724-2.618 8.485-.857 1.761 1.76 1.236 5.063-.857 8.485zM9.172 9.172A22.037 22.037 0 0112 6.774c.943.668 1.902 1.471 2.828 2.398.927.926 1.73 1.885 2.398 2.828a22.048 22.048 0 01-2.398 2.828A22.048 22.048 0 0112 17.226a22.037 22.037 0 01-2.828-2.398A22.048 22.048 0 016.774 12a22.037 22.037 0 012.398-2.828zM4.929 4.929c.861-.862 2.891-.561 5.242.704-.819.63-1.63 1.34-2.414 2.124a24.756 24.756 0 00-2.124 2.414C4.368 7.82 4.067 5.79 4.93 4.929zm11.314 2.828a24.76 24.76 0 012.124 2.414c1.265-2.35 1.566-4.38.704-5.242-.861-.862-2.892-.561-5.242.704.819.63 1.63 1.34 2.414 2.124zm0 8.486a24.742 24.742 0 002.124-2.414c1.265 2.35 1.566 4.38.704 5.242-.861.861-2.892.561-5.242-.704.819-.63 1.63-1.34 2.414-2.124zm-10.61-2.414c.63.819 1.34 1.63 2.124 2.414a24.76 24.76 0 002.414 2.124c-2.35 1.265-4.38 1.566-5.242.704-.862-.861-.561-2.892.704-5.242zM13 12a1 1 0 10-2 0 1 1 0 002 0z"/>
</svg>
