<svg xmlns="http://www.w3.org/2000/svg" width="24" height="24" fill="currentColor" viewBox="0 0 24 24">
  <path d="M3 14c0 4.898 3.76 9 9 9s9-4.102 9-9c0-2.2-.74-4.811-2.112-7.46C16.934 2.765 15.202 1 12.5 1h-1C8.771 1 6.59 3.201 5.086 6.595 3.632 9.874 3 11.985 3 14zm16 0c0 3.83-2.906 7-7 7-4.094 0-7-3.17-7-7 0-1.664.566-3.553 1.914-6.595C8.132 4.658 9.774 3 11.5 3h1c1.702 0 2.975 1.298 4.612 4.46C18.346 9.843 19 12.15 19 14zm-7 3.75a4 4 0 01-4-4C8 11.451 9.822 9 12 9s4 2.451 4 4.75a4 4 0 01-4 4zm2-4a2 2 0 11-4 0c0-1.301 1.077-2.75 2-2.75s2 1.449 2 2.75z"/>
</svg>
