<svg xmlns="http://www.w3.org/2000/svg" width="24" height="24" fill="currentColor" viewBox="0 0 24 24">
  <path d="M13 5.07a7.06 7.06 0 00-2 0V3.056a9.097 9.097 0 012 0V5.07zM7 12a5 5 0 1010 0 5 5 0 00-10 0zm8 0a3 3 0 11-6 0 3 3 0 016 0zm-2 8.945V18.93a7.062 7.062 0 01-2 0v2.016a9.098 9.098 0 002 0zM18.93 11h2.015a9.098 9.098 0 010 2H18.93a7.062 7.062 0 000-2zM5 12c0-.34.024-.673.07-1H3.056a9.097 9.097 0 000 2H5.07A7.06 7.06 0 015 12zm11.192-5.606l1.426-1.426c.522.418.996.892 1.414 1.414l-1.426 1.426a7.04 7.04 0 00-1.414-1.414zM4.968 6.382l1.426 1.426a7.04 7.04 0 011.414-1.414L6.382 4.968a9.054 9.054 0 00-1.414 1.414zm12.638 9.81l1.426 1.426a9.058 9.058 0 01-1.414 1.414l-1.426-1.426a7.04 7.04 0 001.414-1.414zm-11.224 2.84l1.426-1.426a7.04 7.04 0 01-1.414-1.414l-1.426 1.426c.418.522.892.996 1.414 1.414z"/>
</svg>
