<svg xmlns="http://www.w3.org/2000/svg" width="24" height="24" fill="currentColor" viewBox="0 0 24 24">
  <path d="M4.408 4.04l1.478 1.355A8.976 8.976 0 003 12c0 2.61 1.111 4.96 2.886 6.604L4.408 19.96A10.968 10.968 0 011 12C1 8.87 2.308 6.044 4.408 4.04zM9 12a3 3 0 106 0 3 3 0 00-6 0zm4 0a1 1 0 11-2 0 1 1 0 012 0zM8.852 8.114L7.367 6.752A6.983 6.983 0 005 12c0 2.089.915 3.964 2.367 5.247l1.485-1.362A4.99 4.99 0 017 12a4.99 4.99 0 011.852-3.886zm10.74-4.074A10.969 10.969 0 0123 12c0 3.131-1.308 5.956-3.408 7.96l-1.478-1.355A8.975 8.975 0 0021 12c0-2.61-1.111-4.96-2.886-6.605l1.478-1.355zM19 12c0-2.09-.915-3.965-2.367-5.247l-1.485 1.362A4.99 4.99 0 0117 12a4.99 4.99 0 01-1.852 3.885l1.485 1.362A6.983 6.983 0 0019 12z"/>
</svg>
