<svg xmlns="http://www.w3.org/2000/svg" width="24" height="24" fill="currentColor" viewBox="0 0 24 24">
  <path d="M3.891 2.567l1.475 1.351A8.968 8.968 0 003 10c0 2.344.897 4.48 2.366 6.081L3.89 17.433A10.96 10.96 0 011 10a10.96 10.96 0 012.891-7.433zm16.218 0A10.96 10.96 0 0123 10a10.96 10.96 0 01-2.891 7.433l-1.475-1.351A8.968 8.968 0 0021 10c0-2.345-.897-4.48-2.366-6.082l1.475-1.351zM8.72 22l.666-2h5.226l.666 2h2.108l-3.286-9.859a3 3 0 10-4.202 0L6.613 22H8.72zm1.333-4l.667-2h2.558l.667 2h-3.892zm2.559-4l-.338-1.012a3.052 3.052 0 01-.55 0L11.387 14h1.226zM13 10a1 1 0 11-2 0 1 1 0 012 0zm6 0a6.975 6.975 0 00-1.84-4.73L15.686 6.62A4.982 4.982 0 0117 10a4.982 4.982 0 01-1.314 3.379l1.474 1.351A6.975 6.975 0 0019 10zM8.314 6.621L6.84 5.27A6.975 6.975 0 005 10c0 1.823.697 3.484 1.84 4.73l1.474-1.352A4.982 4.982 0 017 10c0-1.303.498-2.49 1.314-3.379z"/>
</svg>
