<svg xmlns="http://www.w3.org/2000/svg" width="24" height="24" fill="currentColor" viewBox="0 0 24 24">
  <path d="M2 5a3 3 0 106 0 3 3 0 00-6 0zm4 0a1 1 0 11-2 0 1 1 0 012 0zm6 3a3 3 0 110-6 3 3 0 010 6zm1-3a1 1 0 11-2 0 1 1 0 012 0zm6 3a3 3 0 110-6 3 3 0 010 6zm1-3a1 1 0 11-2 0 1 1 0 012 0zM5 15a3 3 0 110-6 3 3 0 010 6zm1-3a1 1 0 11-2 0 1 1 0 012 0zm6 3a3 3 0 110-6 3 3 0 010 6zm1-3a1 1 0 11-2 0 1 1 0 012 0zm6 3a3 3 0 110-6 3 3 0 010 6zm1-3a1 1 0 11-2 0 1 1 0 012 0zm-8 10a3 3 0 110-6 3 3 0 010 6zm1-3a1 1 0 11-2 0 1 1 0 012 0z"/>
</svg>
