<svg xmlns="http://www.w3.org/2000/svg" width="24" height="24" fill="currentColor" viewBox="0 0 24 24">
  <path d="M11.18 10.009c-1.794-.2-4.107.6-5.703 2.199-1.994 1.996-1.928 4.478-.05 6.36 1.878 1.88 4.355 1.946 6.348-.05 1.576-1.58 2.374-3.858 2.202-5.645-.078-.81-.356-1.52-.853-2.017-.482-.483-1.164-.76-1.945-.847zm4.001.241l1.813-1.816.682.452c.589.39 1.38.315 1.887-.192a1.505 1.505 0 00-.848-2.55l-.743-.106-.106-.745a1.498 1.498 0 00-2.546-.85 1.506 1.506 0 00-.191 1.891l.451.683-1.805 1.808a4.561 4.561 0 011.406 1.425zm-3.47-2.19l1.373-1.376a3.513 3.513 0 01.822-3.657 3.496 3.496 0 015.772 1.301 3.51 3.51 0 011.299 5.782 3.498 3.498 0 01-3.65.825l-1.401 1.403c.373 2.498-.675 5.526-2.741 7.596-2.791 2.796-6.53 2.697-9.173.05-2.642-2.647-2.74-6.393.05-9.189 2.085-2.088 5.143-3.138 7.649-2.735z"/>
</svg>
