<svg xmlns="http://www.w3.org/2000/svg" width="24" height="24" fill="currentColor" viewBox="0 0 24 24">
  <path d="M22 10.5c0 2.498-2.12 4.5-4.706 4.5H13v1.17A3.009 3.009 0 0114.83 18H20v2h-5.17a3.001 3.001 0 01-5.66 0H4v-2h5.17A3.008 3.008 0 0111 16.17V15H7.235C4.356 15 2 12.775 2 10c0-2.344 1.692-4.326 3.997-4.86C7.18 3.22 9.471 2 12 2c2.98 0 5.593 1.694 6.493 4.147C20.517 6.655 22 8.416 22 10.5zM13 19a1 1 0 11-2 0 1 1 0 012 0zm4.607-10.984C18.974 8.161 20 9.238 20 10.5c0 1.367-1.2 2.5-2.706 2.5H7.235C5.436 13 4 11.644 4 10c0-1.486 1.18-2.759 2.773-2.97l.527-.07.237-.476C8.27 5.007 10.014 4 12 4c2.346 0 4.311 1.4 4.738 3.247l.16.694.709.075z"/>
</svg>
