<svg xmlns="http://www.w3.org/2000/svg" width="24" height="24" fill="currentColor" viewBox="0 0 24 24">
  <path d="M13 19v-1.07a6.999 6.999 0 004.781-2.982C20.495 14.574 22 12.223 22 9V6a2 2 0 00-2-2h-1.268A2 2 0 0017 3H7a2 2 0 00-1.732 1H4a2 2 0 00-2 2v3c0 3.223 1.505 5.574 4.219 5.948A6.999 6.999 0 0011 17.929V19h-1a2 2 0 00-2 2h8a2 2 0 00-2-2h-1zM4 6h1v5c0 .458.044.905.128 1.338C4.39 11.675 4 10.531 4 9V6zm15 0v5c0 .458-.044.905-.128 1.338C19.61 11.675 20 10.531 20 9V6h-1zM7 11V5h10v6a5 5 0 01-10 0z"/>
</svg>
