<svg xmlns="http://www.w3.org/2000/svg" width="24" height="24" fill="currentColor" viewBox="0 0 24 24">
  <path d="M5 8c.615 0 1.187-.185 1.663-.503L8.667 9l-2.004 1.503a3 3 0 101.2 1.6l2.47-1.853L16.4 14.8l1.2-1.6L12 9l5.6-4.2-1.2-1.6-6.067 4.55-2.47-1.852A3 3 0 105 8zm14 2h-2V8h2v2zm1 3h2v-2h-2v2zm0 1v2h2v-2h-2zm0 8v-2h2v2h-2zm0-5v2h2v-2h-2zm-3 5v-2h2v2h-2zm-3-2v2h2v-2h-2zm-6 2v-2h2v2H8zm3-2v2h2v-2h-2zm-6 2v-2h2v2H5zm0-5v2h2v-2H5zm11-9h-2v2h2V8zm6 2h-2V8h2v2zM5 14a1 1 0 100-2 1 1 0 000 2zm1-9a1 1 0 11-2 0 1 1 0 012 0z"/>
</svg>
