<svg xmlns="http://www.w3.org/2000/svg" width="24" height="24" fill="currentColor" viewBox="0 0 24 24">
  <path d="M23 19a3.001 3.001 0 00-2-2.83V7.83A3.001 3.001 0 1017.17 4H6.83A3.001 3.001 0 103 7.83v8.34A3.001 3.001 0 106.83 20h10.34A3.001 3.001 0 0023 19zM19 7.83v8.34A3.009 3.009 0 0017.17 18H6.83A3.008 3.008 0 005 16.17V7.83A3.008 3.008 0 006.83 6h10.34A3.008 3.008 0 0019 7.83zM4 6a1 1 0 100-2 1 1 0 000 2zm17-1a1 1 0 11-2 0 1 1 0 012 0zM4 20a1 1 0 100-2 1 1 0 000 2zm17-1a1 1 0 11-2 0 1 1 0 012 0z"/>
</svg>
