<svg xmlns="http://www.w3.org/2000/svg" width="24" height="24" fill="currentColor" viewBox="0 0 24 24">
  <path d="M15.414 1H5a2 2 0 00-2 2v18a2 2 0 002 2h14a2 2 0 002-2V6.586L15.414 1zM5 3h8v4a2 2 0 002 2h4v12H5V3zm10 4V3.414L18.586 7H15zm-7 6v2h8v-2H8z"/>
  <mask id="a" width="18" height="22" x="3" y="1" maskUnits="userSpaceOnUse">
    <path d="M15.414 1H5a2 2 0 00-2 2v18a2 2 0 002 2h14a2 2 0 002-2V6.586L15.414 1zM5 3h8v4a2 2 0 002 2h4v12H5V3zm10 4V3.414L18.586 7H15zm-7 6v2h8v-2H8z"/>
  </mask>
</svg>
