<svg xmlns="http://www.w3.org/2000/svg" width="24" height="24" fill="currentColor" viewBox="0 0 24 24">
  <path d="M11.176 11.53c.546-.767.485-1.575.106-3.028-.749-2.873-.45-4.448 2.133-6.313l1.26-.91.306 1.525c.324 1.62.856 2.623 2.223 4.55l.108.154C19.281 10.285 20 11.96 20 15c0 3.688-3.729 7-8 7-4.272 0-8-3.311-8-7 0-.069 0-.067-.012-.371-.09-2.357.346-4.202 2.11-6.193.372-.42.795-.825 1.272-1.212l1.052-.855.506 1.258c.374.928.812 1.659 1.307 2.195.419.453.73 1.024.94 1.708zM7.594 9.762c-1.357 1.533-1.68 2.899-1.607 4.79.013.352.013.34.013.448 0 2.528 2.784 5 6 5s6-2.473 6-5c0-2.542-.568-3.865-2.32-6.335l-.108-.154c-1.063-1.5-1.697-2.543-2.117-3.71-.684.82-.644 1.636-.237 3.197.749 2.873.45 4.448-2.133 6.313l-1.473 1.063-.11-1.813c-.07-1.159-.333-1.945-.737-2.383a7.889 7.889 0 01-1.081-1.515l-.09.099z"/>
</svg>
