<svg xmlns="http://www.w3.org/2000/svg" width="24" height="24" fill="currentColor" viewBox="0 0 24 24">
  <path d="M21 5a2 2 0 012 2v12a2 2 0 01-2 2H3a2 2 0 01-2-2V5a2 2 0 012-2h6c1.12 0 1.833.475 2.549 1.379l.122.156a25.92 25.92 0 00.27.342c.088.107.1.123.06.123H21zm0 14V7h-9.005c-.718-.004-1.186-.34-1.69-.963l-.236-.303a23.264 23.264 0 00-.087-.113C9.607 5.15 9.384 5 9 5H3v14h18zm-4.941-8.24C15.396 9.145 13.839 8 12 8c-1.453 0-2.76.723-3.566 1.862C7.01 10.358 6 11.735 6 13.333 6 15.341 7.593 17 9.6 17h5.2c1.786 0 3.2-1.473 3.2-3.25 0-1.33-.793-2.491-1.941-2.99zM14.8 15H9.6c-.884 0-1.6-.746-1.6-1.667 0-.92.716-1.666 1.6-1.666.045 0 .09.002.135.005C10.063 10.698 10.953 10 12 10c1.325 0 2.4 1.12 2.4 2.5l-.001.072c.125-.047.26-.072.401-.072.663 0 1.2.56 1.2 1.25S15.463 15 14.8 15z"/>
</svg>
