<svg xmlns="http://www.w3.org/2000/svg" width="24" height="24" fill="currentColor" viewBox="0 0 24 24">
  <path d="M19 5a2 2 0 012 2v1a2 2 0 012 2l-.024.217-1.98 8.91A2 2 0 0119 21H3a2 2 0 01-2-2V5a2 2 0 012-2h6c1.12 0 1.833.475 2.549 1.379l.122.156a25.92 25.92 0 00.27.342c.088.107.1.123.06.123H19zm0 2v1H5c-1.167 0-1.69.621-1.97 1.76L3 9.891V5h6c.384 0 .607.149.982.621l.087.113c.08.103.191.246.237.303.503.623.97.96 1.689.963H19zm0 12H3.024l1.952-8.783c.024-.096.045-.167.06-.217h15.94l-1.952 8.783L19 19z"/>
</svg>
