<svg xmlns="http://www.w3.org/2000/svg" width="24" height="24" fill="currentColor" viewBox="0 0 24 24">
  <path d="M23 7a2 2 0 00-2-2h-8.998c.04 0 .027-.016-.06-.123a12.995 12.995 0 01-.271-.342l-.122-.156C10.833 3.475 10.12 3 9 3H3a2 2 0 00-2 2v14a2 2 0 002 2h18a2 2 0 002-2V7zm-2 0v12H3V5h6c.384 0 .607.149.982.621l.087.113c.08.103.191.246.237.303.503.623.97.96 1.689.963H21zm-9 6.14V8.131l4.555 3.037-1.11 1.664L14 11.868V15.5c0 1.453-1.395 2.5-3 2.5s-3-1.047-3-2.5S9.395 13 11 13c.347 0 .684.049 1 .14zM11 16c.605 0 1-.297 1-.5s-.395-.5-1-.5-1 .297-1 .5.395.5 1 .5z"/>
</svg>
