<svg xmlns="http://www.w3.org/2000/svg" width="24" height="24" fill="currentColor" viewBox="0 0 24 24">
  <path d="M18.587 14.373l1.527 1.527a8.94 8.94 0 00.831-2.9H23v-2h-2.055A9.004 9.004 0 0013 3.055V1h-2v2.055a8.94 8.94 0 00-2.9.831l1.527 1.527a7 7 0 018.96 8.96zM13 20.945a8.958 8.958 0 004.618-1.913l3.675 3.675 1.414-1.414-20-20-1.414 1.414 3.675 3.675A8.957 8.957 0 003.055 11H1v2h2.055A9.004 9.004 0 0011 20.945V23h2v-2.055zM5 12c0-1.572.518-3.024 1.394-4.192l2.16 2.16a4 4 0 005.478 5.478l2.16 2.16A7 7 0 015 12zm5.068-.518a2 2 0 002.45 2.45l-2.45-2.45z"/>
</svg>
