<svg xmlns="http://www.w3.org/2000/svg" width="24" height="24" fill="currentColor" viewBox="0 0 24 24">
  <path d="M10 11.847l10-1.666v4.286A4.451 4.451 0 0018 14c-2.173 0-4 1.523-4 3.5s1.827 3.5 4 3.5 4-1.523 4-3.5V1.82L8 4.153v11.314A4.451 4.451 0 006 15c-2.173 0-4 1.523-4 3.5S3.827 22 6 22s4-1.523 4-3.5v-6.653zM8 18.5c0 .784-.86 1.5-2 1.5-1.14 0-2-.716-2-1.5S4.86 17 6 17c1.14 0 2 .716 2 1.5zm10 .5c1.14 0 2-.716 2-1.5s-.86-1.5-2-1.5c-1.14 0-2 .716-2 1.5s.86 1.5 2 1.5zm-8-9.18V5.847L20 4.18v3.973L10 9.82z"/>
</svg>
