<svg xmlns="http://www.w3.org/2000/svg" width="24" height="24" fill="currentColor" viewBox="0 0 24 24">
  <path d="M19 12c0-3.58-.854-6.87-2.286-9.36l-1.797.895c1.27 2.16 2.077 5.14 2.077 8.464 0 3.325-.806 6.306-2.077 8.464l1.797.896C18.146 18.87 19 15.58 19 12zm-4.012 0c0-2.832-.735-5.45-1.977-7.515l-1.8.897c1.096 1.756 1.771 4.065 1.771 6.617 0 2.553-.675 4.862-1.77 6.617l1.799.897c1.242-2.064 1.977-4.683 1.977-7.514zM9.368 6.3c1.015 1.62 1.608 3.585 1.608 5.698 0 2.113-.593 4.08-1.607 5.699l-1.804-.9C8.446 15.466 8.97 13.806 8.97 12c0-1.806-.524-3.465-1.405-4.799l1.804-.899zm-2.404 5.698c0-1.43-.42-2.767-1.155-3.923L4 8.977c.61.89.958 1.925.958 3.022A5.326 5.326 0 014 15.022l1.809.901A7.273 7.273 0 006.964 12z"/>
</svg>
