<svg xmlns="http://www.w3.org/2000/svg" width="24" height="24" fill="currentColor" viewBox="0 0 24 24">
  <path d="M19.81 10.257c.95-1.021 1.383-1.906 1.139-2.43-.245-.525-1.202-.761-2.596-.69a7.966 7.966 0 011.457 3.12zM16.434 5.34a8.001 8.001 0 00-12.386 5.775c-2.4 2.059-3.595 4.222-2.812 5.904.784 1.68 3.21 2.156 6.33 1.64a8.001 8.001 0 0012.386-5.777c2.399-2.057 3.593-4.22 2.81-5.9-.784-1.681-3.21-2.157-6.328-1.642zM8.052 16.518a6 6 0 119.947-4.639c-1.271.98-2.887 1.98-4.732 2.84-1.845.86-3.648 1.455-5.215 1.799zm2.69 1.35a29.845 29.845 0 003.37-1.336 29.856 29.856 0 003.192-1.725 6 6 0 01-6.562 3.06zm-5.095-1.005c-1.395.072-2.353-.165-2.598-.69-.244-.524.19-1.41 1.14-2.432a7.966 7.966 0 001.458 3.122z"/>
</svg>
