<svg xmlns="http://www.w3.org/2000/svg" width="24" height="24" fill="currentColor" viewBox="0 0 24 24">
  <path d="M20 6h-4V4.059C16 2.934 15.118 2 14 2H4c-1.118 0-2 .934-2 2.059V19.94C2 21.066 2.882 22 4 22h10c1.118 0 2-.934 2-2.059V18h4a2 2 0 002-2V8a2 2 0 00-2-2zm-4 5h4v5h-4v-5zm-2 8.941V4.06c0-.02-.003-.034-.004-.043C13.993 4.004 13.993 4 14 4H4c.007 0 .007.004.004.016-.001.009-.004.023-.004.043V19.94c0 .02.003.034.004.043.003.012.003.016-.004.016h10c-.007 0-.007-.004-.004-.016.001-.009.004-.023.004-.043zM5 17v2h2v-2H5zm3 2v-2h2v2H8zm3-2v2h2v-2h-2zm-6-1v-2h2v2H5zm3-2v2h2v-2H8zm3 2v-2h2v2h-2zm2-3V5H5v8h8zM7 7v4h4V7H7zm13 1v1h-4V8h4z"/>
</svg>
