<svg xmlns="http://www.w3.org/2000/svg" width="24" height="24" fill="currentColor" viewBox="0 0 24 24">
  <path d="M12 1c-2.091 0-4.17.7-5.512 1.273l1.521 1.522C9.216 3.368 10.721 3 12 3c2.26 0 4.414.68 5.89 1.664a44.372 44.372 0 001.12.705 1249.318 1249.318 0 01-.004 6.432l-.004 1.954-.002 1.03 1.693 1.693c.204-.492.307-.985.307-1.478l.004-2.205C21.01 9.837 21.02 5.217 21 5c0-.768-.295-.946-1.11-1.44-.247-.15-.541-.328-.89-.56-1.5-1-4.005-2-7-2zM3.07 4.485L1.293 2.707l1.414-1.414 20 20-1.414 1.414-3.178-3.178C16.641 20.686 14.603 21.843 12 23c-6-2.673-9-5.34-9-8V5c0-.21.022-.375.07-.515zm13.624 13.623L5 6.414V15c0 1.509 2.23 3.569 7 5.802 2.007-.937 3.564-1.844 4.694-2.694z"/>
</svg>
