<svg xmlns="http://www.w3.org/2000/svg" width="24" height="24" fill="currentColor" viewBox="0 0 24 24">
  <path d="M17.586 8h-.577c-2.02.019-2.84.882-4.16 3.764l-.301.657C10.776 16.248 8.964 17.939 5 18H3v-2h1.985c3.013-.046 4.264-1.213 5.748-4.42l.298-.65C12.644 7.41 13.956 6.029 17 6h.586l-1.293-1.293 1.414-1.414L21.414 7l-3.707 3.707-1.414-1.414L17.586 8zm0 10H17c-1.933-.018-3.168-.582-4.225-1.893.393-.564.761-1.19 1.116-1.879.84 1.312 1.671 1.759 3.118 1.772h.577l-1.293-1.293 1.414-1.414L21.414 17l-3.707 3.707-1.414-1.414L17.586 18zM4.985 8c2.037.031 3.269.575 4.312 1.915.328-.705.653-1.343.99-1.916C8.997 6.666 7.39 6.037 5 6H3v2h1.985z"/>
</svg>
