<svg xmlns="http://www.w3.org/2000/svg" width="24" height="24" fill="currentColor" viewBox="0 0 24 24">
  <path d="M5.927 18.073l1.684 4.522L12 20.59l4.389 2.006 1.684-4.522 4.522-1.684L20.59 12l2.006-4.389-4.522-1.684-1.684-4.522L12 3.41 7.611 1.405 5.927 5.927 1.405 7.61 3.41 12l-2.006 4.389 4.522 1.684zm9.338 1.81L12 18.39l-3.265 1.492-1.253-3.364-3.364-1.253L5.61 12 4.118 8.735l3.364-1.253 1.253-3.364L12 5.61l3.265-1.492 1.253 3.364 3.364 1.253L18.39 12l1.492 3.265-3.364 1.253-1.253 3.364zM12 17a5 5 0 110-10 5 5 0 010 10zm3-5a3 3 0 11-6 0 3 3 0 016 0z"/>
</svg>
