<svg xmlns="http://www.w3.org/2000/svg" width="24" height="24" fill="currentColor" viewBox="0 0 24 24">
  <path d="M2.707 1.293L1.293 2.707 5.586 7H3a2 2 0 00-2 2v6a2 2 0 002 2h3.764L14 20.618v-5.204l7.293 7.293 1.414-1.414-20-20zM12 13.414l-4-4v5.968l4 2v-3.968zm0-6.796v1.168l2 2V3.382L9.73 5.517l1.492 1.49.778-.389zm4.962 6.13l1.703 1.703A9.062 9.062 0 0019 12c0-2.41-.935-4.588-2.425-6.06l-1.578 1.262C16.207 8.292 17 10.026 17 12c0 .253-.013.503-.038.747zm3.292 3.292l1.518 1.518C22.554 15.922 23 14.02 23 12c0-3.432-1.286-6.52-3.32-8.543l-1.577 1.26C19.85 6.347 21 8.987 21 12c0 1.458-.27 2.829-.746 4.04zM6 9H3v6h3V9z"/>
</svg>
