<svg xmlns="http://www.w3.org/2000/svg" width="24" height="24" fill="currentColor" viewBox="0 0 24 24">
  <path d="M8 8.618l4-2v10.764l-4-2V8.618zM6.764 7L14 3.382v17.236L6.764 17H3a2 2 0 01-2-2V9a2 2 0 012-2h3.764zM6 9H3v6h3V9zm13.68-5.543C21.713 5.48 23 8.568 23 12c0 3.432-1.286 6.52-3.32 8.543l-1.577-1.26C19.85 17.652 21 15.012 21 12c0-3.012-1.151-5.654-2.897-7.283l1.576-1.26zM19 12c0-2.41-.935-4.588-2.425-6.06l-1.578 1.262C16.207 8.292 17 10.026 17 12c0 1.974-.793 3.708-2.003 4.798l1.578 1.262C18.065 16.588 19 14.41 19 12z"/>
</svg>
