<svg xmlns="http://www.w3.org/2000/svg" width="24" height="24" fill="currentColor" viewBox="0 0 24 24">
  <path d="M2.707 1.293L1.293 2.707l3.99 3.991A14.004 14.004 0 002 9.176l1.414 1.414.075-.075a11.982 11.982 0 013.28-2.331L8.246 9.66a9.965 9.965 0 00-3.492 2.269l1.414 1.414a7.964 7.964 0 013.669-2.093l1.754 1.755a5.979 5.979 0 00-4.009 1.752l1.415 1.415a4 4 0 015.656 0l.053-.053 6.588 6.588 1.414-1.414-20-20zm10.62 7.82l4.192 4.192 1.376-1.376a9.956 9.956 0 00-5.568-2.816zM9.444 5.229l1.793 1.794c3.279-.201 6.625.938 9.147 3.417l1.414-1.414A13.984 13.984 0 009.444 5.229zm3.794 12.357a2 2 0 00-2.828 0L11.824 19l1.414-1.414z"/>
</svg>
