<svg width="24" height="24" viewBox="0 0 24 24" fill="none" xmlns="http://www.w3.org/2000/svg">
<path fill-rule="evenodd" clip-rule="evenodd" d="M12 2C17.52 2 22 6.48 22 12C22 17.52 17.52 22 12 22C6.48 22 2 17.52 2 12C2 6.48 6.48 2 12 2ZM12 4C7.58457 4 4 7.58457 4 12C4 16.4154 7.58457 20 12 20C16.4154 20 20 16.4154 20 12C20 7.58457 16.4154 4 12 4ZM12 18C10.0315 18 8.21641 17.1828 7 15.818C7.61313 14.8878 9.85816 14 12 14C14.1418 14 16.3869 14.8878 17 15.818C15.7836 17.1828 13.9685 18 12 18ZM12 7C13.66 7 15 8.34 15 10C15 11.66 13.66 13 12 13C10.34 13 9 11.66 9 10C9 8.34 10.34 7 12 7Z" fill="#31303D"/>
</svg>
