<svg width="24" height="24" viewBox="0 0 24 24" fill="none" xmlns="http://www.w3.org/2000/svg">
<path fill-rule="evenodd" clip-rule="evenodd" d="M6.04874 18.7516C5.65792 18.4069 5.29745 18.0289 4.9717 17.6221C4.68799 17.2679 4.43129 16.8926 4.20403 16.4997C3.99585 16.1397 3.81278 15.7655 3.65634 15.3796C3.44884 14.8677 3.69555 14.2846 4.20738 14.0771C4.7192 13.8696 5.30233 14.1163 5.50982 14.6282C5.63133 14.9279 5.77357 15.2186 5.93538 15.4984C6.11216 15.8041 6.31193 16.0961 6.53279 16.3719C6.7865 16.6887 7.0673 16.9832 7.37173 17.2517C7.78592 17.6171 7.82552 18.249 7.46018 18.6632C7.09484 19.0773 6.46292 19.1169 6.04874 18.7516ZM8.82826 8.99905C8.93822 9.10901 9 9.25815 9 9.41366C9 9.73749 8.73749 10 8.41366 10H3.58634C3.26251 10 3 9.73749 3 9.41366V4.58634C3 4.43083 3.06178 4.2817 3.17174 4.17174C3.40072 3.94275 3.77197 3.94275 4.00095 4.17174L5.55082 5.72161C7.21826 4.00786 9.52431 3 12 3C16.9706 3 21 7.02944 21 12C21 16.9706 16.9706 21 12 21C11.2335 21 10.4787 20.9039 9.74889 20.7159C9.21407 20.5781 8.8922 20.0329 9.02997 19.4981C9.16775 18.9633 9.713 18.6414 10.2478 18.7792C10.815 18.9253 11.4021 19 12 19C15.866 19 19 15.866 19 12C19 8.13401 15.866 5 12 5C10.0645 5 8.26393 5.79072 6.96521 7.13599L8.82826 8.99905Z" fill="#31303D"/>
</svg>
