<svg width="24" height="24" viewBox="0 0 24 24" fill="none" xmlns="http://www.w3.org/2000/svg">
<path fill-rule="evenodd" clip-rule="evenodd" d="M20.2 10H21C21.5523 10 22 10.4477 22 11V13C22 13.5523 21.5523 14 21 14H20.2C20.0895 14 20 13.9105 20 13.8V10.2C20 10.0895 20.0895 10 20.2 10ZM4 7H17C18.1046 7 19 7.89543 19 9V15C19 16.1046 18.1046 17 17 17H4C2.89543 17 2 16.1046 2 15V9C2 7.89543 2.89543 7 4 7ZM4 9.4V14.6C4 14.8209 4.17909 15 4.4 15H16.6C16.8209 15 17 14.8209 17 14.6V9.4C17 9.17909 16.8209 9 16.6 9H4.4C4.17909 9 4 9.17909 4 9.4ZM5.4 10H6.6C6.82091 10 7 10.1791 7 10.4V13.6C7 13.8209 6.82091 14 6.6 14H5.4C5.17909 14 5 13.8209 5 13.6V10.4C5 10.1791 5.17909 10 5.4 10Z" fill="#31303D"/>
</svg>
