<svg width="24" height="24" viewBox="0 0 24 24" fill="none" xmlns="http://www.w3.org/2000/svg">
<path fill-rule="evenodd" clip-rule="evenodd" d="M11.7071 3.29289L15.7071 7.29289C16.0976 7.68342 16.0976 8.31658 15.7071 8.70711L13.7071 10.7071C13.3166 11.0976 12.6834 11.0976 12.2929 10.7071C11.9024 10.3166 11.9024 9.68342 12.2929 9.29289L13.5858 8L12 6.41421V8C12 8.55228 11.5523 9 11 9C10.4477 9 10 8.55228 10 8V4C10 3.44772 10.4477 3 11 3C11.2761 3 11.5261 3.11193 11.7071 3.29289ZM12 17.5858L13.5858 16L12 14.4142V17.5858ZM11.7071 20.7071C11.5261 20.8881 11.2761 21 11 21C10.4477 21 10 20.5523 10 20V14.4142L7.70711 16.7071C7.31658 17.0976 6.68342 17.0976 6.29289 16.7071C5.90237 16.3166 5.90237 15.6834 6.29289 15.2929L9.58579 12L6.29289 8.70711C5.90237 8.31658 5.90237 7.68342 6.29289 7.29289C6.68342 6.90237 7.31658 6.90237 7.70711 7.29289L17.7071 17.2929C18.0976 17.6834 18.0976 18.3166 17.7071 18.7071C17.3166 19.0976 16.6834 19.0976 16.2929 18.7071L15 17.4142L11.7071 20.7071Z" fill="#31303D"/>
</svg>
