<svg width="24" height="24" viewBox="0 0 24 24" fill="none" xmlns="http://www.w3.org/2000/svg">
<path fill-rule="evenodd" clip-rule="evenodd" d="M19 15C19 14.4477 19.4477 14 20 14C20.5523 14 21 14.4477 21 15V18C21 19.6569 19.6569 21 18 21H15C14.4477 21 14 20.5523 14 20C14 19.4477 14.4477 19 15 19H18C18.5523 19 19 18.5523 19 18V15ZM11 19C11.5523 19 12 19.4477 12 20C12 20.5523 11.5523 21 11 21H6C4.34315 21 3 19.6569 3 18V6C3 4.34315 4.34315 3 6 3H18C19.6569 3 21 4.34315 21 6V11C21 11.5523 20.5523 12 20 12C19.4477 12 19 11.5523 19 11V6C19 5.44772 18.5523 5 18 5H6C5.44772 5 5 5.44772 5 6V18C5 18.5523 5.44772 19 6 19H11Z" fill="#31303D"/>
</svg>
