<svg width="24" height="24" viewBox="0 0 24 24" fill="none" xmlns="http://www.w3.org/2000/svg">
<path fill-rule="evenodd" clip-rule="evenodd" d="M18.3333 10.1111C18.3333 10.602 17.9354 11 17.4444 11C16.9535 11 16.5556 10.602 16.5556 10.1111C16.5556 8.63835 15.3616 7.44444 13.8889 7.44444C13.398 7.44444 13 7.04647 13 6.55556C13 6.06464 13.398 5.66667 13.8889 5.66667C16.3435 5.66667 18.3333 7.65651 18.3333 10.1111ZM9.73891 10.222L13.778 14.2611L14.4512 13.5879C15.5666 12.4725 17.3749 12.4725 18.4903 13.5879L19.1635 14.2611C20.2788 15.3765 20.2788 17.1848 19.1635 18.3002L18.4903 18.9734C18.4534 19.0102 18.4154 19.0453 18.3764 19.0785C18.3673 19.0933 18.3563 19.1073 18.3434 19.1202L17.7559 19.7078C16.1336 21.3301 13.6128 21.4397 12.1257 19.9525C10.3423 18.6588 8.87356 17.4348 7.71936 16.2806C6.77922 15.3405 5.55525 13.8717 4.04745 11.8743C2.5603 10.3872 2.6699 7.86644 4.29225 6.24409L4.87975 5.65658C4.89266 5.64368 4.9067 5.63269 4.92149 5.62363C4.95471 5.58459 4.98975 5.54658 5.02663 5.50971L5.69981 4.83652C6.81518 3.72116 8.62354 3.72116 9.73891 4.83652L10.4121 5.50971C11.5275 6.62507 11.5275 8.43344 10.4121 9.54881L9.73891 10.222ZM21 10.1111C21 10.602 20.602 11 20.1111 11C19.6202 11 19.2222 10.602 19.2222 10.1111C19.2222 7.16559 16.8344 4.77778 13.8889 4.77778C13.398 4.77778 13 4.37981 13 3.88889C13 3.39797 13.398 3 13.8889 3C17.8162 3 21 6.18375 21 10.1111ZM8.39254 8.87562L9.06573 8.20244C9.43752 7.83065 9.43752 7.22786 9.06573 6.85607L8.39254 6.18289C8.02075 5.8111 7.41797 5.8111 7.04618 6.18289L6.37299 6.85607L5.56862 7.66307C4.69004 8.53903 4.72064 9.8548 5.39382 10.528L5.48739 10.6216L5.56712 10.7272C7.02639 12.6603 8.1997 14.0682 9.06573 14.9343C10.1431 16.0116 11.5429 17.1665 13.2501 18.405L13.3656 18.4997L13.472 18.6062C14.1452 19.2794 15.461 19.31 16.3277 18.4399L17.1423 17.6253L17.8171 16.9538C18.1889 16.582 18.1889 15.9792 17.8171 15.6075L17.1439 14.9343C16.7721 14.5625 16.1693 14.5625 15.7976 14.9343L15.1244 15.6075C14.3808 16.351 13.1752 16.351 12.4316 15.6075L8.39254 11.5684C7.64897 10.8248 7.64897 9.6192 8.39254 8.87562Z" fill="#31303D"/>
</svg>
