<svg width="24" height="24" viewBox="0 0 24 24" fill="none" xmlns="http://www.w3.org/2000/svg">
<path fill-rule="evenodd" clip-rule="evenodd" d="M7.6 19H10.4C10.7314 19 11 19.2686 11 19.6V20.4C11 20.7314 10.7314 21 10.4 21H7.6C7.26863 21 7 20.7314 7 20.4V19.6C7 19.2686 7.26863 19 7.6 19ZM12 20.4V19.6C12 19.2686 12.2686 19 12.6 19H13.8C13.9105 19 14 18.9105 14 18.8V17C14 14.7909 12.2091 13 10 13H8C5.79086 13 4 14.7909 4 17V18.8C4 18.9105 4.08954 19 4.2 19H5.4C5.73137 19 6 19.2686 6 19.6V20.4C6 20.7314 5.73137 21 5.4 21H2.6C2.26863 21 2 20.7314 2 20.4V17C2 14.5857 3.42594 12.5045 5.48156 11.5525C4.5667 10.6464 4 9.38939 4 8C4 5.23858 6.23858 3 9 3C11.7614 3 14 5.23858 14 8C14 9.38939 13.4333 10.6464 12.5184 11.5525C14.5741 12.5045 16 14.5857 16 17V20.4C16 20.7314 15.7314 21 15.4 21H12.6C12.2686 21 12 20.7314 12 20.4ZM9 11C10.6569 11 12 9.65685 12 8C12 6.34315 10.6569 5 9 5C7.34315 5 6 6.34315 6 8C6 9.65685 7.34315 11 9 11ZM22 8.4C22 8.73137 21.7697 9 21.4857 9H16.5143C16.2303 9 16 8.73137 16 8.4V7.6C16 7.26863 16.2303 7 16.5143 7H21.4857C21.7697 7 22 7.26863 22 7.6V8.4Z" fill="#31303D"/>
</svg>
