<svg width="24" height="24" viewBox="0 0 24 24" fill="none" xmlns="http://www.w3.org/2000/svg">
<path fill-rule="evenodd" clip-rule="evenodd" d="M10.6 19H13.4C13.7314 19 14 19.2686 14 19.6V20.4C14 20.7314 13.7314 21 13.4 21H10.6C10.2686 21 10 20.7314 10 20.4V19.6C10 19.2686 10.2686 19 10.6 19ZM15 20.4V19.6C15 19.2686 15.2686 19 15.6 19H16.8C16.9105 19 17 18.9105 17 18.8V17C17 14.7909 15.2091 13 13 13H11C8.79086 13 7 14.7909 7 17V18.8C7 18.9105 7.08954 19 7.2 19H8.4C8.73137 19 9 19.2686 9 19.6V20.4C9 20.7314 8.73137 21 8.4 21H5.6C5.26863 21 5 20.7314 5 20.4V17C5 14.5857 6.42594 12.5045 8.48156 11.5525C7.5667 10.6464 7 9.38939 7 8C7 5.23858 9.23858 3 12 3C14.7614 3 17 5.23858 17 8C17 9.38939 16.4333 10.6464 15.5184 11.5525C17.5741 12.5045 19 14.5857 19 17V20.4C19 20.7314 18.7314 21 18.4 21H15.6C15.2686 21 15 20.7314 15 20.4ZM12 11C13.6569 11 15 9.65685 15 8C15 6.34315 13.6569 5 12 5C10.3431 5 9 6.34315 9 8C9 9.65685 10.3431 11 12 11Z" fill="#31303D"/>
</svg>
