<svg width="24" height="24" viewBox="0 0 24 24" fill="none" xmlns="http://www.w3.org/2000/svg">
<path fill-rule="evenodd" clip-rule="evenodd" d="M12.6647 8.31013L14.6498 3C15.7143 3.37722 16.2632 4.5232 15.8757 5.55962L13.8125 11.0786C13.7739 11.1821 13.6586 11.2346 13.5552 11.1959C13.5009 11.1757 13.4581 11.1329 13.4379 11.0786L12.6647 9.01046C12.5803 8.78465 12.5803 8.53594 12.6647 8.31013ZM10.9086 13.0076L8.12426 5.55962C7.73681 4.5232 8.28567 3.37722 9.35018 3L13.8544 15.0485C14.2167 14.6906 14.6645 14.4035 15.1818 14.2202C17.0447 13.5601 19.1045 14.4952 19.7825 16.309C20.4606 18.1227 19.5001 20.1281 17.6372 20.7883C15.7743 21.4484 13.7145 20.5133 13.0364 18.6995L12 15.9271L10.9636 18.6995C10.2855 20.5133 8.2257 21.4484 6.36282 20.7883C4.49993 20.1281 3.53942 18.1227 4.21745 16.309C4.89549 14.4952 6.95531 13.5601 8.8182 14.2202C9.33553 14.4035 9.78327 14.6906 10.1456 15.0485L10.9086 13.0076ZM7.06435 18.9117C7.86273 19.1946 8.74551 18.7938 9.0361 18.0165C9.32669 17.2392 8.91504 16.3797 8.11666 16.0968C7.31828 15.8139 6.4355 16.2147 6.14491 16.992C5.85433 17.7693 6.26597 18.6288 7.06435 18.9117ZM16.9356 18.9117C17.734 18.6288 18.1457 17.7693 17.8551 16.992C17.5645 16.2147 16.6817 15.8139 15.8833 16.0968C15.085 16.3797 14.6733 17.2392 14.9639 18.0165C15.2545 18.7938 16.1373 19.1946 16.9356 18.9117Z" fill="#31303D"/>
</svg>
