<svg width="24" height="24" viewBox="0 0 24 24" fill="none" xmlns="http://www.w3.org/2000/svg">
<path fill-rule="evenodd" clip-rule="evenodd" d="M14.6871 12.0227C15.5347 14.1019 16.2256 16.2446 16.7528 18.4358C18.7227 16.9786 20 14.6384 20 12C20 10.1906 19.3993 8.52147 18.3864 7.18121C16.9911 8.33722 15.4605 9.30286 13.8311 10.0587C14.1319 10.706 14.4173 11.3608 14.6871 12.0227C14.5839 11.7695 14.4784 11.5173 14.3706 11.2662C15.2273 11.0902 16.1073 11 17 11C17.1792 11 17.358 11.0036 17.5364 11.0109C18.3635 11.0445 19.1786 11.1558 19.9733 11.3418C19.991 11.5589 20 11.7784 20 12C20 12.4709 19.9593 12.9323 19.8813 13.3809C19.095 13.1682 18.2827 13.0429 17.4552 13.0092C17.3039 13.0031 17.1521 13 17 13C16.3676 13 15.7433 13.0533 15.1319 13.1578C14.9888 12.7774 14.8405 12.399 14.6871 12.0227ZM12.8351 12.7777C12.5651 12.1153 12.2787 11.4603 11.9762 10.8133C9.76803 11.5902 7.41579 12 5 12C4.6657 12 4.33231 11.9922 4.00003 11.9766C4.00001 11.9844 4 11.9922 4 12C4 16.4183 7.58172 20 12 20C13.036 20 14.0261 19.8031 14.9347 19.4446C14.4171 17.1629 13.7144 14.9346 12.8351 12.7777C12.9568 13.0762 13.0751 13.3761 13.19 13.6773C12.6049 13.8934 12.0386 14.1595 11.4964 14.4735C11.3444 14.5615 11.1946 14.6531 11.047 14.7483C10.8895 14.8499 10.7347 14.9554 10.5826 15.0649C9.29178 15.9937 8.21584 17.1912 7.4321 18.5685C6.87114 18.1777 6.3626 17.7168 5.91916 17.1986C6.82162 15.7312 8.01031 14.4519 9.4144 13.4415C9.59406 13.3122 9.77699 13.1875 9.96301 13.0675C10.1374 12.9551 10.3145 12.8468 10.4941 12.7427C11.1155 12.3829 11.7638 12.0762 12.4332 11.825C12.571 12.1408 12.7049 12.4584 12.8351 12.7777ZM4.25573 9.9857C4.50315 9.99523 4.75127 10 5 10C7.10183 10 9.14963 9.65759 11.0794 9.00686C10.3143 7.55278 9.46607 6.14336 8.53896 4.78538C6.44146 5.79343 4.85135 7.68924 4.25573 9.9857ZM16.986 5.74339C15.6185 4.65224 13.8854 4 12 4C11.4922 4 10.9955 4.04731 10.514 4.13776C11.3981 5.46913 12.2106 6.84633 12.9478 8.2637C14.3889 7.59945 15.7451 6.75394 16.986 5.74339ZM12 22C6.47715 22 2 17.5228 2 12C2 6.47715 6.47715 2 12 2C17.5228 2 22 6.47715 22 12C22 17.5228 17.5228 22 12 22Z" fill="#31303D"/>
</svg>
