<svg width="24" height="24" viewBox="0 0 24 24" fill="none" xmlns="http://www.w3.org/2000/svg">
<path fill-rule="evenodd" clip-rule="evenodd" d="M19.1139 3.10953L21.8905 5.88613C22.0365 6.03217 22.0365 6.26896 21.8905 6.415L21.0972 7.20831C20.9511 7.35436 20.7143 7.35436 20.5683 7.20831L17.7917 4.43172C17.6456 4.28568 17.6456 4.04889 17.7917 3.90285L18.585 3.10953C18.731 2.96349 18.9678 2.96349 19.1139 3.10953ZM20 10.8571C20 10.3049 20.4477 9.85714 21 9.85714C21.5523 9.85714 22 10.3049 22 10.8571V18C22 19.6569 20.6569 21 19 21H5C3.34315 21 2 19.6569 2 18V6C2 4.34315 3.34315 3 5 3H14.25C14.8023 3 15.25 3.44772 15.25 4C15.25 4.55228 14.8023 5 14.25 5H5C4.44772 5 4 5.44772 4 6V18C4 18.5523 4.44772 19 5 19H19C19.5523 19 20 18.5523 20 18V10.8571ZM17.2628 5.22503L19.775 7.73719C19.994 7.95625 19.994 8.31143 19.775 8.5305L11.721 16.5844C11.6282 16.6772 11.5058 16.7346 11.3751 16.7464L8.61174 16.9977C8.30321 17.0257 8.03035 16.7983 8.0023 16.4898C7.99923 16.456 7.99923 16.422 8.0023 16.3882L8.25352 13.6249C8.2654 13.4942 8.32272 13.3718 8.41552 13.279L16.4695 5.22503C16.6886 5.00597 17.0437 5.00597 17.2628 5.22503ZM10.7818 14.8793L17.395 8.26606C17.468 8.19304 17.468 8.07465 17.395 8.00163L16.9984 7.60497C16.9253 7.53195 16.8069 7.53195 16.7339 7.60497L10.1207 14.2182C10.0897 14.2491 10.0706 14.2899 10.0667 14.3335L10.027 14.7698C10.0177 14.8727 10.0934 14.9636 10.1963 14.973C10.2076 14.974 10.2189 14.974 10.2301 14.973L10.6665 14.9333C10.71 14.9293 10.7508 14.9102 10.7818 14.8793Z" fill="#31303D"/>
</svg>
