<svg width="24" height="24" viewBox="0 0 24 24" fill="none" xmlns="http://www.w3.org/2000/svg">
<path fill-rule="evenodd" clip-rule="evenodd" d="M5.4 6H18.6C18.8209 6 19 6.17909 19 6.4V20C19 21.1046 18.1046 22 17 22H7C5.89543 22 5 21.1046 5 20V6.4C5 6.17909 5.17909 6 5.4 6ZM10.625 11.2788L12 12.6538L13.375 11.2788C13.7468 10.9071 14.3495 10.9071 14.7212 11.2788C15.0929 11.6505 15.0929 12.2532 14.7212 12.625L13.3462 14L14.7212 15.375C15.0929 15.7468 15.0929 16.3495 14.7212 16.7212C14.3495 17.0929 13.7468 17.0929 13.375 16.7212L12 15.3462L10.625 16.7212C10.2532 17.0929 9.65053 17.0929 9.2788 16.7212C8.90707 16.3495 8.90707 15.7468 9.2788 15.375L10.6538 14L9.2788 12.625C8.90707 12.2532 8.90707 11.6505 9.2788 11.2788C9.65053 10.9071 10.2532 10.9071 10.625 11.2788ZM7 8.4V19.6C7 19.8209 7.17909 20 7.4 20H16.6C16.8209 20 17 19.8209 17 19.6V8.4C17 8.17909 16.8209 8 16.6 8H7.4C7.17909 8 7 8.17909 7 8.4ZM7 2.6C7 2.26863 7.26863 2 7.6 2H16.4C16.7314 2 17 2.26863 17 2.6C17 2.82091 17.1791 3 17.4 3H19C19.5523 3 20 3.44772 20 4C20 4.55228 19.5523 5 19 5H5C4.44772 5 4 4.55228 4 4C4 3.44772 4.44772 3 5 3H6.6C6.82091 3 7 2.82091 7 2.6Z" fill="#31303D"/>
</svg>
