<svg width="24" height="24" viewBox="0 0 24 24" fill="none" xmlns="http://www.w3.org/2000/svg">
<path fill-rule="evenodd" clip-rule="evenodd" d="M20 10C20.5523 10 21 10.4477 21 11V13C21 13.5523 20.5523 14 20 14C19.4477 14 19 13.5523 19 13V11C19 10.4477 19.4477 10 20 10ZM18.9956 8L18.997 5.79422C18.9971 5.68376 18.9076 5.59414 18.7971 5.59404C18.7573 5.594 18.7185 5.60583 18.6854 5.62802L7.16111 13.3705C7.06942 13.4321 7.04503 13.5563 7.10663 13.648C7.1305 13.6835 7.16515 13.7105 7.20547 13.7248L10.2988 14.8278C10.4475 14.8809 10.6134 14.8415 10.7225 14.7273L17.0577 8.0911C17.1506 7.9793 17.3106 7.96897 17.4151 8.06805C17.508 8.15617 17.5271 8.30348 17.4602 8.41561L13.1937 15.6838L12.5589 18.1124C12.5449 18.1658 12.5769 18.2204 12.6304 18.2344C12.6666 18.2439 12.705 18.2323 12.7301 18.2044L14.2546 16.5062C14.3631 16.3854 14.5339 16.3421 14.6868 16.3968L15.6981 16.7579L18.7189 17.8367C18.8229 17.8739 18.9374 17.8196 18.9745 17.7156C18.9822 17.6941 18.9861 17.6714 18.9862 17.6485L18.9877 16C18.988 15.4479 19.4356 15.0006 19.9877 15.0006L19.9877 14.9993C20.54 14.9993 20.9877 15.447 20.9877 15.9993C20.9877 15.9995 20.9877 15.9998 20.9877 16L20.9839 20.1601C20.9837 20.3029 20.9246 20.437 20.8244 20.5213C20.7559 20.579 20.6738 20.6088 20.5906 20.6083C20.5522 20.608 20.5135 20.6013 20.4758 20.5878L15.0255 18.6414L12.124 21.8733C12.0491 21.9568 11.95 22.0006 11.8493 22C11.798 21.9997 11.7462 21.9878 11.697 21.9637C11.6184 21.9253 11.5555 21.8592 11.5054 21.7643L8.9894 16.4858L3.27748 14.446C3.12874 14.3929 3.02098 14.2442 3.00272 14.0668C2.98446 13.8893 3.05921 13.7168 3.19323 13.6268L20.4076 2.06153C20.5291 1.9799 20.6798 1.97946 20.8022 2.0604C20.9246 2.1413 21.0001 2.29117 21 2.45297L20.9949 8C20.9945 8.55198 20.5469 8.99923 19.9949 8.99923V9.00063C19.4427 9.00063 18.9949 8.55291 18.9949 8.00063C18.9949 8.00042 18.9949 8.00021 18.9949 8H18.9956Z" fill="#31303D"/>
</svg>
