<svg width="24" height="24" viewBox="0 0 24 24" fill="none" xmlns="http://www.w3.org/2000/svg">
<path fill-rule="evenodd" clip-rule="evenodd" d="M2 18V5C2 3.89543 2.89543 3 4 3H7.57884C8.36803 3 9.12544 3.31098 9.68694 3.86555L10.3185 4.48926C10.5056 4.67412 10.7581 4.77778 11.0212 4.77778H19C20.6569 4.77778 22 6.12092 22 7.77778V18C22 19.6569 20.6569 21 19 21H5C3.34315 21 2 19.6569 2 18ZM20 10V7.77778C20 7.22549 19.5523 6.77778 19 6.77778H11.0212C10.232 6.77778 9.47456 6.4668 8.91306 5.91223L8.28154 5.28852C8.09438 5.10366 7.84191 5 7.57884 5H4V10H12C12.5523 10 13 10.4477 13 11C13 11.5523 12.5523 12 12 12H4V18C4 18.5523 4.44772 19 5 19H19C19.5523 19 20 18.5523 20 18V12H16C15.4477 12 15 11.5523 15 11C15 10.4477 15.4477 10 16 10H20Z" fill="#31303D"/>
</svg>
