<svg width="24" height="24" viewBox="0 0 24 24" fill="none" xmlns="http://www.w3.org/2000/svg">
<path fill-rule="evenodd" clip-rule="evenodd" d="M10.6 19H13.4C13.7314 19 14 19.2686 14 19.6V20.4C14 20.7314 13.7314 21 13.4 21H10.6C10.2686 21 10 20.7314 10 20.4V19.6C10 19.2686 10.2686 19 10.6 19ZM15 20.4V19.6C15 19.2686 15.2686 19 15.6 19H19.0005C19.5528 19 20.0005 18.5523 20.0005 18V14.4C20.0005 14.1791 19.8214 14 19.6005 14H17.4005C17.1796 14 17.0005 14.1791 17.0005 14.4V15C17.0005 16.1046 16.1051 17 15.0005 17H9.00053C7.89596 17 7.00053 16.1046 7.00053 15V14.4C7.00053 14.1791 6.82144 14 6.60053 14H4.40053C4.17961 14 4.00053 14.1791 4.00053 14.4V18C4.00053 18.5523 4.44824 19 5.00053 19H8.4C8.73137 19 9 19.2686 9 19.6V20.4C9 20.7314 8.73137 21 8.4 21H5.00053C3.34367 21 2.00053 19.6569 2.00053 18V12C2.00053 11.7997 2.2738 10.5521 2.82035 8.25722C3.12408 7.4979 3.85949 7 4.6773 7H6.00027C6.55255 7 7.00027 7.44772 7.00027 8C7.00027 8.55228 6.55255 9 6.00027 9H5.16918C4.88318 9 4.63693 9.20188 4.58084 9.48233L4.12515 11.7608C4.10348 11.8691 4.17373 11.9745 4.28204 11.9961C4.29065 11.9978 5.33014 11.9991 7.40053 12C8.28418 12 9.00053 12.7163 9.00053 13.6V14.6C9.00053 14.8209 9.17961 15 9.40053 15H14.6005C14.8214 15 15.0005 14.8209 15.0005 14.6V13.6C15.0005 12.7163 15.7169 12 16.6005 12H19.6793C19.7897 12 19.8793 11.9105 19.8793 11.8C19.8793 11.7912 19.7261 11.0187 19.4197 9.48233C19.3636 9.20188 19.1174 9 18.8314 9H18.0003C17.448 9 17.0003 8.55228 17.0003 8C17.0003 7.44772 17.448 7 18.0003 7H19.3232C20.141 7 20.8765 7.4979 21.1802 8.25722C21.7271 10.5537 22.0005 11.8013 22.0005 12V18C22.0005 19.6569 20.6574 21 19.0005 21H15.6C15.2686 21 15 20.7314 15 20.4ZM11.0417 6.07129L9.55652 7.87683C9.20056 8.26982 8.62345 8.26982 8.26749 7.87683C7.91154 7.48384 7.91154 6.84667 8.26749 6.45367L10.7115 3.58949C11.4234 2.8035 12.5776 2.8035 13.2896 3.58949L15.7336 6.45367C16.0895 6.84667 16.0895 7.48384 15.7336 7.87683C15.3776 8.26982 14.8005 8.26982 14.4445 7.87683L12.9594 6.07129V12C12.9594 12.5523 12.5301 13 12.0005 13C11.471 13 11.0417 12.5523 11.0417 12V6.07129Z" fill="#31303D"/>
</svg>
