<svg width="24" height="24" viewBox="0 0 24 24" fill="none" xmlns="http://www.w3.org/2000/svg">
<path fill-rule="evenodd" clip-rule="evenodd" d="M10.6 19H13.4C13.7314 19 14 19.2686 14 19.6V20.4C14 20.7314 13.7314 21 13.4 21H10.6C10.2686 21 10 20.7314 10 20.4V19.6C10 19.2686 10.2686 19 10.6 19ZM15.6 19H19C19.5523 19 20 18.5523 20 18V14.4C20 14.1791 19.8209 14 19.6 14H17.4C17.1791 14 17 14.1791 17 14.4V15C17 16.1046 16.1046 17 15 17H9C7.89543 17 7 16.1046 7 15V14.4C7 14.1791 6.82091 14 6.6 14H4.4C4.17909 14 4 14.1791 4 14.4V18C4 18.5523 4.44772 19 5 19H8.4C8.73137 19 9 19.2686 9 19.6V20.4C9 20.7314 8.73137 21 8.4 21H5C3.34315 21 2 19.6569 2 18V12C2 11.7997 2.27327 10.5521 2.81982 8.25722C3.12355 7.4979 3.85897 7 4.67678 7H5.99974C6.55203 7 6.99974 7.44772 6.99974 8C6.99974 8.55228 6.55203 9 5.99974 9H5.16866C4.88265 9 4.6364 9.20188 4.58031 9.48233L4.12462 11.7608C4.10296 11.8691 4.1732 11.9745 4.28151 11.9961C4.29012 11.9978 5.32962 11.9991 7.4 12C8.28366 12 9 12.7163 9 13.6V14.6C9 14.8209 9.17909 15 9.4 15H14.6C14.8209 15 15 14.8209 15 14.6V13.6C15 12.7163 15.7163 12 16.6 12H19.6787C19.7892 12 19.8787 11.9105 19.8787 11.8C19.8787 11.7912 19.7256 11.0187 19.4192 9.48233C19.3631 9.20188 19.1168 9 18.8308 9H17.9997C17.4475 9 16.9997 8.55228 16.9997 8C16.9997 7.44772 17.4475 7 17.9997 7H19.3227C20.1405 7 20.8759 7.4979 21.1797 8.25722C21.7266 10.5537 22 11.8013 22 12V18C22 19.6569 20.6569 21 19 21H15.6C15.2686 21 15 20.7314 15 20.4V19.6C15 19.2686 15.2686 19 15.6 19ZM11.0411 9.92871V4C11.0411 3.44772 11.4704 3 12 3C12.5296 3 12.9589 3.44772 12.9589 4V9.92871L14.444 8.12317C14.8 7.73018 15.3771 7.73018 15.733 8.12317C16.089 8.51616 16.089 9.15333 15.733 9.54632L13.289 12.4105C12.5771 13.1965 11.4229 13.1965 10.711 12.4105L8.26697 9.54632C7.91101 9.15333 7.91101 8.51616 8.26697 8.12317C8.62292 7.73018 9.20004 7.73018 9.55599 8.12317L11.0411 9.92871Z" fill="#31303D"/>
</svg>
