<svg width="24" height="24" viewBox="0 0 24 24" fill="none" xmlns="http://www.w3.org/2000/svg">
<path fill-rule="evenodd" clip-rule="evenodd" d="M7 2H13.9012C14.7149 2 15.4937 2.33052 16.059 2.91578L19.1578 6.12396C19.698 6.68329 20 7.43055 20 8.20819V19C20 20.6569 18.6569 22 17 22H7C5.34315 22 4 20.6569 4 19V5C4 3.34315 5.34315 2 7 2ZM7 4C6.44772 4 6 4.44772 6 5V19C6 19.5523 6.44772 20 7 20H17C17.5523 20 18 19.5523 18 19V8.20819C18 7.94897 17.8993 7.69989 17.7193 7.51344L14.6204 4.30526C14.432 4.11017 14.1724 4 13.9012 4H7ZM13.5026 5.08624L16.9138 8.49738C17.0287 8.61236 17.0287 8.79878 16.9138 8.91376C16.8585 8.96898 16.7837 9 16.7056 9H13.2944C13.1318 9 13 8.86818 13 8.70557V5.29443C13 5.13182 13.1318 5 13.2944 5C13.3725 5 13.4474 5.03102 13.5026 5.08624ZM8 14H16C16.5523 14 17 14.4477 17 15C17 15.5523 16.5523 16 16 16H8C7.44772 16 7 15.5523 7 15C7 14.4477 7.44772 14 8 14ZM8 17H16C16.5523 17 17 17.4477 17 18C17 18.5523 16.5523 19 16 19H8C7.44772 19 7 18.5523 7 18C7 17.4477 7.44772 17 8 17Z" fill="#31303D"/>
</svg>
