<svg width="24" height="24" viewBox="0 0 24 24" fill="none" xmlns="http://www.w3.org/2000/svg">
<path fill-rule="evenodd" clip-rule="evenodd" d="M10.6 19H13.4C13.7314 19 14 19.2686 14 19.6V20.4C14 20.7314 13.7314 21 13.4 21H10.6C10.2686 21 10 20.7314 10 20.4V19.6C10 19.2686 10.2686 19 10.6 19ZM15.6 19H19.0005C19.5528 19 20.0005 18.5523 20.0005 18V14.4C20.0005 14.1791 19.8214 14 19.6005 14H17.4005C17.1796 14 17.0005 14.1791 17.0005 14.4V15C17.0005 16.1046 16.1051 17 15.0005 17H9.00052C7.89595 17 7.00052 16.1046 7.00052 15V14.4C7.00052 14.1791 6.82143 14 6.60052 14H4.40052C4.17961 14 4.00052 14.1791 4.00052 14.4V18C4.00052 18.5523 4.44823 19 5.00052 19H8.39999C8.73137 19 9 19.2686 9 19.6V20.4C9 20.7314 8.73137 21 8.39999 21H5.00052C3.34366 21 2.00052 19.6569 2.00052 18V12C2.00052 11.7997 2.27379 10.5521 2.82034 8.25722C3.12407 7.4979 3.85949 7 4.67729 7H19.3232C20.141 7 20.8765 7.4979 21.1802 8.25722C21.7271 10.5537 22.0005 11.8013 22.0005 12V18C22.0005 19.6569 20.6574 21 19.0005 21H15.6C15.2686 21 15 20.7314 15 20.4V19.6C15 19.2686 15.2686 19 15.6 19ZM18.8313 9H5.16918C4.88317 9 4.63692 9.20188 4.58083 9.48233L4.12514 11.7608C4.10348 11.8691 4.17372 11.9745 4.28203 11.9961C4.29064 11.9978 5.33014 11.9991 7.40052 12C8.28417 12 9.00052 12.7163 9.00052 13.6V14.6C9.00052 14.8209 9.1796 15 9.40052 15H14.6005C14.8214 15 15.0005 14.8209 15.0005 14.6V13.6C15.0005 12.7163 15.7169 12 16.6005 12H19.6793C19.7897 12 19.8793 11.9105 19.8793 11.8C19.8793 11.7868 19.878 11.7737 19.8754 11.7608L19.4197 9.48233C19.3636 9.20188 19.1174 9 18.8313 9Z" fill="#31303D"/>
</svg>
