<svg width="24" height="24" viewBox="0 0 24 24" fill="none" xmlns="http://www.w3.org/2000/svg">
<path fill-rule="evenodd" clip-rule="evenodd" d="M21 10C21.5523 10 22 10.4477 22 11V13C22 13.5523 21.5523 14 21 14C20.4477 14 20 13.5523 20 13V11C20 10.4477 20.4477 10 21 10ZM21 9C20.4477 9 20 8.55228 20 8V6.92434L12.7484 11.9999L20 17.0757V16C20 15.4477 20.4477 15 21 15C21.5523 15 22 15.4477 22 16V19C22 19.5523 21.5523 20 21 20C20.7916 20 20.5884 19.9311 20.4188 19.81L14 15.3172V19C14 19.5523 13.5523 20 13 20C12.7916 20 12.5884 19.9311 12.4188 19.81L4 13.9173V19C4 19.5523 3.55228 20 3 20C2.44772 20 2 19.5523 2 19V5C2 4.44772 2.44772 4 3 4C3.27614 4 3.52614 4.11193 3.70711 4.29289C3.88807 4.47386 4 4.72386 4 5V10.0827L12.4188 4.19C12.5946 4.06438 12.7973 4.0002 12.9982 4C13.3105 3.9997 13.6184 4.14645 13.8137 4.41998C13.9349 4.58958 14 4.79158 14 5V8.68279L20.4188 4.19C20.5946 4.06438 20.7973 4.0002 20.9982 4C21.3105 3.9997 21.6184 4.14645 21.8137 4.41998C21.9349 4.58958 22 4.79158 22 5V8C22 8.55228 21.5523 9 21 9ZM12 10.0827V6.92434L4.74843 11.9999L12 17.0757V13.9173L10.44 12.8254C10.1571 12.6319 10.0004 12.3189 10 12.0003C9.99977 11.8054 10.0617 11.6084 10.18 11.4355C10.25 11.3331 10.3376 11.2446 10.44 11.1746L12 10.0827Z" fill="#31303D"/>
</svg>
