<svg width="24" height="24" viewBox="0 0 24 24" fill="none" xmlns="http://www.w3.org/2000/svg">
<path d="M12.7051 5.16955C12.1715 5.31195 11.6235 4.99482 11.4811 4.46121C11.3387 3.92759 11.6558 3.37958 12.1894 3.23718C12.4118 3.17783 12.637 3.1295 12.8641 3.09232C13.6981 2.95579 14.5513 2.97078 15.38 3.13673C15.5269 3.16615 15.6729 3.20027 15.8176 3.23907C16.2314 3.34994 16.6344 3.49867 17.0217 3.68395C17.7317 4.02364 18.3825 4.48305 18.9497 5.05025C19.5183 5.61878 19.9785 6.27132 20.3184 6.9833C20.5668 7.50349 20.7491 8.05168 20.8624 8.61541C21.0291 9.44516 21.0445 10.2996 20.9079 11.1348C20.8707 11.3619 20.8224 11.5871 20.7631 11.8095C20.6208 12.3431 20.0728 12.6603 19.5392 12.518C19.0056 12.3757 18.6883 11.8277 18.8307 11.2941C18.873 11.1352 18.9075 10.9743 18.9341 10.812C19.0318 10.2145 19.0208 9.60289 18.9016 9.00942C18.8207 8.60688 18.6906 8.21582 18.5136 7.845C18.2712 7.33734 17.9429 6.87179 17.5355 6.46447C17.1292 6.05809 16.6648 5.73033 16.1585 5.48811C15.8825 5.35607 15.5951 5.25001 15.2999 5.1709C15.1966 5.14319 15.0923 5.11882 14.9873 5.09779C14.3946 4.9791 13.7838 4.96837 13.1872 5.06605C13.0249 5.09262 12.864 5.12716 12.7051 5.16955ZM9.79119 15.5945L8.17855 17.2071L10.2988 19.3274C10.6814 19.71 10.6814 20.3304 10.2988 20.713C9.91617 21.0957 9.29578 21.0957 8.91315 20.713L6.79289 18.5928L4.67264 20.713C4.29 21.0957 3.66962 21.0957 3.28698 20.713C2.90434 20.3304 2.90434 19.71 3.28698 19.3274L5.40723 17.2071L3.28698 15.0869C2.90434 14.7042 2.90434 14.0838 3.28698 13.7012C3.66962 13.3186 4.29 13.3186 4.67264 13.7012L6.79289 15.8214L8.40553 14.2088C6.33681 11.4662 6.55172 7.54879 9.05025 5.05025C9.44078 4.65973 10.0739 4.65973 10.4645 5.05025C10.855 5.44078 10.855 6.07394 10.4645 6.46447C8.51184 8.41709 8.51184 11.5829 10.4645 13.5355C12.4171 15.4882 15.5829 15.4882 17.5355 13.5355C17.9261 13.145 18.5592 13.145 18.9497 13.5355C19.3403 13.9261 19.3403 14.5592 18.9497 14.9497C16.4512 17.4483 12.5338 17.6632 9.79119 15.5945Z" fill="#31303D"/>
</svg>
