<svg width="24" height="24" viewBox="0 0 24 24" fill="none" xmlns="http://www.w3.org/2000/svg">
<path fill-rule="evenodd" clip-rule="evenodd" d="M10.4 3H13.6C13.8209 3 14 3.17909 14 3.4V4.6C14 4.82091 13.8209 5 13.6 5H10.4C10.1791 5 10 4.82091 10 4.6V3.4C10 3.17909 10.1791 3 10.4 3ZM9 3.4V4.6C9 4.82091 8.82091 5 8.6 5H7.94926C7.72834 5 7.54926 5.17909 7.54926 5.4C7.54926 5.47897 7.57263 5.55617 7.61644 5.62188L10.3282 9.68953C10.7662 10.3466 11 11.1186 11 11.9083V16.7639C11 17.1427 11.214 17.489 11.5528 17.6584L12.7106 18.2372C12.8094 18.2866 12.9295 18.2466 12.9789 18.1478C12.9928 18.12 13 18.0894 13 18.0584V11.9083C13 11.1186 13.2338 10.3466 13.6718 9.68953L16.3836 5.62188C16.5061 5.43807 16.4564 5.18972 16.2726 5.06718C16.2069 5.02338 16.1297 5 16.0507 5H15.4C15.1791 5 15 4.82091 15 4.6V3.4C15 3.17909 15.1791 3 15.4 3H18C18.5523 3 19 3.44772 19 4V5C19 5.19742 18.9416 5.39043 18.8321 5.5547L15.3359 10.7989C15.1169 11.1275 15 11.5135 15 11.9083V20C15 20.5523 14.5523 21 14 21C13.8448 21 13.6916 20.9639 13.5528 20.8944L9.55279 18.8944C9.214 18.725 9 18.3788 9 18V11.9083C9 11.5135 8.88312 11.1275 8.6641 10.7989L5.16795 5.5547C5.05844 5.39043 5 5.19742 5 5V4C5 3.44772 5.44772 3 6 3H8.6C8.82091 3 9 3.17909 9 3.4Z" fill="#31303D"/>
</svg>
