<svg width="24" height="24" viewBox="0 0 24 24" fill="none" xmlns="http://www.w3.org/2000/svg">
<path fill-rule="evenodd" clip-rule="evenodd" d="M16.1626 9.22496L16.8563 9.91872L20.3251 6.44992C20.7083 6.06677 21.3295 6.06677 21.7126 6.44992C22.0958 6.83308 22.0958 7.45429 21.7126 7.83744L16.8563 12.6938C15.5614 13.9887 13.5866 14.1895 12.0808 13.2962C12.0561 13.3279 12.0291 13.3584 12 13.3875L5.20458 20.1829C5.12647 20.261 4.99984 20.261 4.92174 20.1829L3.81706 19.0783C3.73895 19.0002 3.73895 18.8735 3.81706 18.7954L10.6125 12C10.6416 11.9709 10.6721 11.9439 10.7038 11.9192C9.81048 10.4134 10.0113 8.43864 11.3062 7.14368L16.1626 2.28736C16.5457 1.90421 17.1669 1.90421 17.5501 2.28736C17.9332 2.67052 17.9332 3.29173 17.5501 3.67488L14.0813 7.14368L14.775 7.83744L18.2438 4.36864C18.627 3.98549 19.2482 3.98549 19.6314 4.36864C20.0145 4.7518 20.0145 5.37301 19.6314 5.75616L16.1626 9.22496ZM3.67488 21.7126C3.29173 22.0958 2.67052 22.0958 2.28736 21.7126C1.90421 21.3295 1.90421 20.7083 2.28736 20.3251L2.79542 19.8171C2.87353 19.739 3.00016 19.739 3.07826 19.8171L4.18294 20.9217C4.26105 20.9998 4.26105 21.1265 4.18294 21.2046L3.67488 21.7126ZM12.6938 8.5312C11.9275 9.29751 11.9275 10.5399 12.6938 11.3062C13.4601 12.0725 14.7025 12.0725 15.4688 11.3062L12.6938 8.5312Z" fill="#31303D"/>
</svg>
