<svg width="24" height="24" viewBox="0 0 24 24" fill="none" xmlns="http://www.w3.org/2000/svg">
<path fill-rule="evenodd" clip-rule="evenodd" d="M17.9513 18.7516C17.5371 19.1169 16.9052 19.0773 16.5398 18.6632C16.1745 18.249 16.2141 17.6171 16.6283 17.2517C16.9327 16.9832 17.2135 16.6887 17.4672 16.3719C17.6881 16.0961 17.8878 15.8041 18.0646 15.4984C18.2264 15.2186 18.3687 14.9279 18.4902 14.6282C18.6977 14.1163 19.2808 13.8696 19.7926 14.0771C20.3044 14.2846 20.5512 14.8677 20.3437 15.3796C20.1872 15.7655 20.0041 16.1397 19.796 16.4997C19.5687 16.8926 19.312 17.2679 19.0283 17.6221C18.7025 18.0289 18.3421 18.4069 17.9513 18.7516ZM12 5C8.13401 5 5 8.13401 5 12C5 15.866 8.13401 19 12 19C12.5979 19 13.185 18.9253 13.7522 18.7792C14.287 18.6414 14.8323 18.9633 14.97 19.4981C15.1078 20.0329 14.7859 20.5781 14.2511 20.7159C13.5213 20.9039 12.7665 21 12 21C7.02944 21 3 16.9706 3 12C3 7.02944 7.02944 3 12 3C14.4757 3 16.7817 4.00786 18.4492 5.72161L19.9991 4.17174C20.228 3.94275 20.5993 3.94275 20.8283 4.17174C20.9382 4.2817 21 4.43083 21 4.58634V9.41366C21 9.73749 20.7375 10 20.4137 10H15.5863C15.2625 10 15 9.73749 15 9.41366C15 9.25815 15.0618 9.10901 15.1717 8.99905L17.0348 7.13599C15.7361 5.79072 13.9355 5 12 5Z" fill="#31303D"/>
</svg>
