<svg width="24" height="24" viewBox="0 0 24 24" fill="none" xmlns="http://www.w3.org/2000/svg">
<path fill-rule="evenodd" clip-rule="evenodd" d="M9.6 19H14.4C14.7314 19 15 19.2686 15 19.6V20.4C15 20.7314 14.7314 21 14.4 21H9.6C9.26863 21 9 20.7314 9 20.4V19.6C9 19.2686 9.26863 19 9.6 19ZM16 17C16 15.3431 14.6569 14 13 14H11C9.34315 14 8 15.3431 8 17V21C6.89543 21 6 20.1046 6 19H4C2.89543 19 2 18.1046 2 17V15C2 13.0679 3.09584 11.3918 4.69987 10.5593C3.95524 9.75644 3.5 8.68138 3.5 7.5C3.5 5.01472 5.51472 3 8 3C9.53224 3 10.9257 3.77313 11.747 5.00699C11.8308 5.00235 11.9151 5 12 5C12.0849 5 12.1692 5.00235 12.253 5.00699C13.0745 3.77282 14.4681 3 16 3C18.4853 3 20.5 5.01472 20.5 7.5C20.5 8.68138 20.0448 9.75644 19.3001 10.5593C20.9042 11.3918 22 13.0679 22 15V17C22 18.1046 21.1046 19 20 19H18C18 20.1046 17.1046 21 16 21V17ZM18 17H20V15C20 13.3431 18.6569 12 17 12H15.7422C15.6096 12.1981 15.4617 12.3851 15.3001 12.5593C16.9042 13.3918 18 15.0679 18 17ZM18.5 7.5C18.5 6.11929 17.3807 5 16 5C15.3647 5 14.7725 5.23889 14.3231 5.64522C15.6277 6.43315 16.5 7.86471 16.5 9.5C16.5 9.65341 16.4923 9.80502 16.4773 9.95448C17.6297 9.73168 18.5 8.71747 18.5 7.5ZM14.4429 10.0336C14.4805 9.85966 14.5 9.6821 14.5 9.5C14.5 8.11929 13.3807 7 12 7C10.6193 7 9.5 8.11929 9.5 9.5C9.5 10.8807 10.6193 12 12 12C13.1976 12 14.1985 11.1579 14.4429 10.0336ZM6 17C6 15.0679 7.09584 13.3918 8.69987 12.5593C8.53832 12.3851 8.39039 12.1981 8.25777 12H7C5.34315 12 4 13.3431 4 15V17H6ZM8 5C6.61929 5 5.5 6.11929 5.5 7.5C5.5 8.71747 6.37027 9.73168 7.52267 9.95448C7.50768 9.80502 7.5 9.65341 7.5 9.5C7.5 7.86471 8.37227 6.43315 9.67693 5.64522C9.22755 5.23896 8.6354 5 8 5Z" fill="#31303D"/>
</svg>
