<svg width="24" height="24" viewBox="0 0 24 24" fill="none" xmlns="http://www.w3.org/2000/svg">
<path fill-rule="evenodd" clip-rule="evenodd" d="M5 3H19C20.6569 3 22 4.34315 22 6V18C22 19.6569 20.6569 21 19 21H5C3.34315 21 2 19.6569 2 18V6C2 4.34315 3.34315 3 5 3ZM20 17.3431L17.7782 15.1213C16.9971 14.3403 15.7308 14.3403 14.9497 15.1213L14.3211 15.75L17.5711 19H19C19.5523 19 20 18.5523 20 18V17.3431ZM16 11C14.8954 11 14 10.1046 14 9C14 7.89543 14.8954 7 16 7C17.1046 7 18 7.89543 18 9C18 10.1046 17.1046 11 16 11ZM20 14.5147V6C20 5.44772 19.5523 5 19 5H5C4.44772 5 4 5.44772 4 6V11.4497L4.18198 11.2678C5.74408 9.70567 8.27674 9.70567 9.83883 11.2678L12.9069 14.3358L13.5355 13.7071C15.0976 12.145 17.6303 12.145 19.1924 13.7071L20 14.5147ZM14.7426 19L8.42462 12.682C7.64357 11.9009 6.37724 11.9009 5.59619 12.682L4 14.2782V18C4 18.5523 4.44772 19 5 19H14.7426Z" fill="#31303D"/>
</svg>
