<svg width="24" height="24" viewBox="0 0 24 24" fill="none" xmlns="http://www.w3.org/2000/svg">
<path fill-rule="evenodd" clip-rule="evenodd" d="M15.6157 8.38426C16.0151 8.78364 16.0151 9.43117 15.6157 9.83056L9.83056 15.6157C9.43117 16.0151 8.78364 16.0151 8.38426 15.6157C7.98488 15.2164 7.98488 14.5688 8.38426 14.1694L14.1694 8.38426C14.5688 7.98488 15.2164 7.98488 15.6157 8.38426ZM11.2769 9.83056C10.4781 9.03179 10.4781 7.73673 11.2769 6.93796L15.6157 2.59908C16.4145 1.80031 17.7096 1.80031 18.5083 2.59908L21.4009 5.49167C22.1997 6.29043 22.1997 7.58549 21.4009 8.38426L17.062 12.7231C16.2633 13.5219 14.9682 13.5219 14.1694 12.7231L19.6654 7.22722C19.8251 7.06747 19.8251 6.80846 19.6654 6.6487L17.3513 4.33463C17.1915 4.17488 16.9325 4.17488 16.7728 4.33463L11.2769 9.83056ZM9.83056 11.2769L4.33463 16.7728C4.17488 16.9325 4.17488 17.1915 4.33463 17.3513L6.6487 19.6654C6.80846 19.8251 7.06747 19.8251 7.22722 19.6654L12.7231 14.1694C13.5219 14.9682 13.5219 16.2633 12.7231 17.062L8.38426 21.4009C7.58549 22.1997 6.29043 22.1997 5.49167 21.4009L2.59908 18.5083C1.80031 17.7096 1.80031 16.4145 2.59908 15.6157L6.93796 11.2769C7.73673 10.4781 9.03179 10.4781 9.83056 11.2769Z" fill="#31303D"/>
</svg>
