<svg width="24" height="24" viewBox="0 0 24 24" fill="none" xmlns="http://www.w3.org/2000/svg">
<path fill-rule="evenodd" clip-rule="evenodd" d="M4.02964 9.35982C4.03916 9.21796 4.05001 9.09807 4.06219 9.00017C4.51503 5.35979 7.41757 2 12 2C16.5831 2 19.4858 5.36074 19.938 9.00171C19.9501 9.09925 19.9609 9.21862 19.9704 9.35984L19.9704 9.35984C19.9926 9.69046 19.7425 9.97647 19.4119 9.99865C19.3985 9.99955 19.3851 10 19.3717 10L18.7521 9.99999C18.3394 9.99999 17.9945 9.68611 17.9556 9.27528C17.9457 9.1704 17.9348 9.07989 17.9229 9.00376C17.4789 6.17619 15.1591 4 12 4C8.84069 4 6.52072 6.17651 6.07705 9.00439C6.06513 9.08037 6.05422 9.17068 6.04433 9.27532L6.04429 9.27531C6.00546 9.68613 5.66053 10 5.24788 10L4.62829 10C4.29692 10 4.02829 9.73137 4.02829 9.4C4.02829 9.3866 4.02874 9.3732 4.02964 9.35982ZM6.32724 12.6041C6.36787 12.7649 6.40457 12.8977 6.43732 13.0025C6.92745 14.571 7.81182 15.8909 9 17C9.70939 17.6622 10.4825 18.2411 11.2363 18.6253C11.4947 18.757 11.8003 18.9272 12 19C12.1962 18.9301 12.5095 18.7585 12.76 18.63C13.52 18.24 14.2912 17.6619 15 17C16.1948 15.8843 17.0803 14.5757 17.5686 13.0029C17.601 12.8985 17.6373 12.7661 17.6774 12.6058L17.6774 12.6058C17.7665 12.2497 18.0864 12 18.4535 12L19.0915 12C19.4228 12 19.6914 12.2687 19.6914 12.6C19.6914 12.6459 19.6862 12.6917 19.6757 12.7364C19.652 12.8382 19.63 12.9261 19.6099 12.9999C18.6151 16.6516 15.9261 18.8548 14 20C16.8793 20.14 19 20.5482 19 21C19 21.5523 15.866 22 12 22C8.13401 22 5 21.5523 5 21C5 20.5632 7.11999 20.1362 10 20C8.07002 18.8582 5.38335 16.6548 4.38961 13.0013C4.36942 12.9271 4.34737 12.8387 4.32348 12.736L4.3235 12.736C4.24836 12.4133 4.44907 12.0908 4.7718 12.0156C4.8164 12.0052 4.86205 12 4.90785 12H5.55161C5.91797 12 6.23751 12.2489 6.32724 12.6041ZM12 14C9.79086 14 8 12.2091 8 10C8 7.79086 9.79086 6 12 6C14.2091 6 16 7.79086 16 10C16 12.2091 14.2091 14 12 14ZM12 12C13.1046 12 14 11.1046 14 10C14 8.89543 13.1046 8 12 8C10.8954 8 10 8.89543 10 10C10 11.1046 10.8954 12 12 12Z" fill="#31303D"/>
</svg>
