<svg width="24" height="24" viewBox="0 0 24 24" fill="none" xmlns="http://www.w3.org/2000/svg">
<path d="M11.2949 18.8305C11.8285 18.688 12.3765 19.0052 12.5189 19.5388C12.6613 20.0724 12.3442 20.6204 11.8106 20.7628C11.5882 20.8222 11.363 20.8705 11.1359 20.9077C10.3019 21.0442 9.44868 21.0292 8.61997 20.8633C8.47306 20.8339 8.32711 20.7997 8.18235 20.7609C7.76864 20.6501 7.36562 20.5013 6.97835 20.3161C6.26829 19.9764 5.61746 19.517 5.05025 18.9497C4.48173 18.3812 4.02151 17.7287 3.68158 17.0167C3.43322 16.4965 3.25092 15.9483 3.13764 15.3846C2.97091 14.5548 2.95555 13.7004 3.09214 12.8652C3.12928 12.6381 3.17757 12.4129 3.23688 12.1905C3.37919 11.6569 3.92715 11.3397 4.46079 11.482C4.99442 11.6243 5.31165 12.1723 5.16934 12.7059C5.12697 12.8648 5.09246 13.0257 5.06592 13.188C4.9682 13.7855 4.97919 14.3971 5.09845 14.9906C5.17934 15.3931 5.30938 15.7842 5.48643 16.155C5.7288 16.6627 6.05715 17.1282 6.46447 17.5355C6.87084 17.9419 7.33518 18.2697 7.84148 18.5119C8.11749 18.6439 8.40486 18.75 8.70006 18.8291C8.80344 18.8568 8.90771 18.8812 9.01268 18.9022C9.60541 19.0209 10.2161 19.0316 10.8128 18.934C10.9751 18.9074 11.136 18.8728 11.2949 18.8305ZM14.1764 8.38123L17.5332 5H15C14.4392 5 14 4.56079 14 4C14 3.43921 14.4392 3 15 3L19.9846 3C20.5454 3 21 3.45461 21 4.0154L21 9C21 9.56079 20.5608 10 20 10C19.4392 10 19 9.56079 19 9V6.46683L15.6188 9.82361C17.6615 12.5646 17.4385 16.461 14.9497 18.9497C14.5592 19.3403 13.9261 19.3403 13.5355 18.9497C13.145 18.5592 13.145 17.9261 13.5355 17.5355C15.4882 15.5829 15.4882 12.4171 13.5355 10.4645C11.5829 8.51184 8.41709 8.51184 6.46447 10.4645C6.07394 10.855 5.44078 10.855 5.05025 10.4645C4.65973 10.0739 4.65973 9.44078 5.05025 9.05025C7.53896 6.56154 11.4354 6.33853 14.1764 8.38123Z" fill="#31303D"/>
</svg>
