<svg width="24" height="24" viewBox="0 0 24 24" fill="none" xmlns="http://www.w3.org/2000/svg">
<path fill-rule="evenodd" clip-rule="evenodd" d="M5.66667 5H18.34C19.9003 5 21.2004 6.19599 21.33 7.75086L21.99 15.7509C22.1276 17.402 20.9011 18.852 19.25 18.9896C19.1671 18.9965 19.0832 19 19 19H5C3.34315 19 2 17.6569 2 16C2 15.9168 2.00346 15.8337 2.01036 15.7509L2.67703 7.75086C2.8066 6.19599 4.1064 5 5.66667 5ZM8.25242 7H5.66667C5.14658 7 4.71331 7.39866 4.67012 7.91695L4.32987 12H6.96416C7.4888 12 7.92424 11.5946 7.96162 11.0712L8.25242 7ZM10.2575 7L10.1147 9H19.4207L19.33 7.91695C19.2868 7.39866 18.8601 7 18.34 7H10.2575ZM9.41219 17L6.41219 14H4.1632L4.00345 15.917C4.00115 15.9446 4 15.9723 4 16C4 16.5523 4.44772 17 5 17H9.41219ZM13.9004 11H9.97181L9.95654 11.2137C9.89011 12.1437 9.40464 12.9496 8.69273 13.4521L12.2406 17H19C19.0277 17 19.0624 16.9988 19.09 16.9965C19.6404 16.9507 20.0459 16.4673 20 15.917L19.5882 11H15.9063L16.3678 16.9965L14.3619 17L13.9004 11Z" fill="#31303D"/>
</svg>
