<svg width="24" height="24" viewBox="0 0 24 24" fill="none" xmlns="http://www.w3.org/2000/svg">
<path fill-rule="evenodd" clip-rule="evenodd" d="M14 13H20.6C20.8209 13 21 13.1791 21 13.4V19C21 20.1046 20.1046 21 19 21H13.4C13.1791 21 13 20.8209 13 20.6V14C13 13.4477 13.4477 13 14 13ZM15 15.4V18.6C15 18.8209 15.1791 19 15.4 19H18.6C18.8209 19 19 18.8209 19 18.6V15.4C19 15.1791 18.8209 15 18.6 15H15.4C15.1791 15 15 15.1791 15 15.4ZM5 3H10.6C10.8209 3 11 3.17909 11 3.4V10C11 10.5523 10.5523 11 10 11H3.4C3.17909 11 3 10.8209 3 10.6V5C3 3.89543 3.89543 3 5 3ZM5.4 9H8.6C8.82091 9 9 8.82091 9 8.6V5.4C9 5.17909 8.82091 5 8.6 5H5.4C5.17909 5 5 5.17909 5 5.4V8.6C5 8.82091 5.17909 9 5.4 9ZM3.4 13H10C10.5523 13 11 13.4477 11 14V20.6C11 20.8209 10.8209 21 10.6 21H5C3.89543 21 3 20.1046 3 19V13.4C3 13.1791 3.17909 13 3.4 13ZM5 15.4V18.6C5 18.8209 5.17909 19 5.4 19H8.6C8.82091 19 9 18.8209 9 18.6V15.4C9 15.1791 8.82091 15 8.6 15H5.4C5.17909 15 5 15.1791 5 15.4ZM13.4 3H19C20.1046 3 21 3.89543 21 5V10.6C21 10.8209 20.8209 11 20.6 11H14C13.4477 11 13 10.5523 13 10V3.4C13 3.17909 13.1791 3 13.4 3ZM15 5.4V8.6C15 8.82091 15.1791 9 15.4 9H18.6C18.8209 9 19 8.82091 19 8.6V5.4C19 5.17909 18.8209 5 18.6 5H15.4C15.1791 5 15 5.17909 15 5.4Z" fill="#31303D"/>
</svg>
