<svg width="24" height="24" viewBox="0 0 24 24" fill="none" xmlns="http://www.w3.org/2000/svg">
<path fill-rule="evenodd" clip-rule="evenodd" d="M6 19.4V16.874C4.27477 16.4299 3 14.8638 3 13V9C3 6.79086 4.79086 5 7 5H17C19.2091 5 21 6.79086 21 9V13C21 15.2091 19.2091 17 17 17H12.277L6.9087 19.91C6.62455 20.0805 6.25599 19.9942 6.0855 19.71C6.02955 19.6168 6 19.5088 6 19.4ZM7 7C5.89543 7 5 7.89543 5 9V13C5 14.1046 5.89543 15 7 15H7.4C7.73137 15 8 15.2686 8 15.6V16.8806C8 16.991 8.08954 17.0806 8.2 17.0806C8.23625 17.0806 8.27182 17.0707 8.3029 17.0521L11.723 15H17C18.1046 15 19 14.1046 19 13V9C19 7.89543 18.1046 7 17 7H7ZM12 10C12.5523 10 13 10.4477 13 11C13 11.5523 12.5523 12 12 12C11.4477 12 11 11.5523 11 11C11 10.4477 11.4477 10 12 10ZM9 10C9.55228 10 10 10.4477 10 11C10 11.5523 9.55228 12 9 12C8.44772 12 8 11.5523 8 11C8 10.4477 8.44772 10 9 10ZM15 10C15.5523 10 16 10.4477 16 11C16 11.5523 15.5523 12 15 12C14.4477 12 14 11.5523 14 11C14 10.4477 14.4477 10 15 10Z" fill="#31303D"/>
</svg>
