<svg width="24" height="24" viewBox="0 0 24 24" fill="none" xmlns="http://www.w3.org/2000/svg">
<path fill-rule="evenodd" clip-rule="evenodd" d="M13 7C13.5523 7 14 7.44772 14 8C14 8.55228 13.5523 9 13 9C12.4477 9 12 8.55228 12 8C12 7.44772 12.4477 7 13 7ZM6 15H9C9.55228 15 10 15.4477 10 16C10 16.5523 9.55228 17 9 17H6C5.44772 17 5 16.5523 5 16C5 15.4477 5.44772 15 6 15ZM21 19C21.5523 19 22 19.4477 22 20C22 20.5523 21.5523 21 21 21C20.4477 21 20 20.5523 20 20C20 19.4477 20.4477 19 21 19ZM3 3H14C14.5523 3 15 3.44772 15 4C15 4.55228 14.5523 5 14 5H3C2.44772 5 2 4.55228 2 4C2 3.44772 2.44772 3 3 3ZM17 3H21C21.5523 3 22 3.44772 22 4C22 4.55228 21.5523 5 21 5H17C16.4477 5 16 4.55228 16 4C16 3.44772 16.4477 3 17 3ZM3 7H10C10.5523 7 11 7.44772 11 8C11 8.55228 10.5523 9 10 9H3C2.44772 9 2 8.55228 2 8C2 7.44772 2.44772 7 3 7ZM3 11H11C11.5523 11 12 11.4477 12 12C12 12.5523 11.5523 13 11 13H3C2.44772 13 2 12.5523 2 12C2 11.4477 2.44772 11 3 11ZM3 15C3.55228 15 4 15.4477 4 16C4 16.5523 3.55228 17 3 17C2.44772 17 2 16.5523 2 16C2 15.4477 2.44772 15 3 15ZM3 19H9C9.55228 19 10 19.4477 10 20C10 20.5523 9.55228 21 9 21H3C2.44772 21 2 20.5523 2 20C2 19.4477 2.44772 19 3 19ZM18 10.27V18C18 19.6569 16.6569 21 15 21C13.3431 21 12 19.6569 12 18C12 16.3431 13.3431 15 15 15C15.3506 15 15.6872 15.0602 16 15.1707V7.59998C16 7.2686 16.2686 7 16.6 7C16.6645 7 16.7286 7.00964 16.7897 7.03003L21.5897 8.63C21.8347 8.71167 22 8.94175 22 9.20001V9.94C22 10.2714 21.7314 10.54 21.4 10.54C21.3355 10.54 21.2714 10.5304 21.2103 10.51L18.7897 9.70001C18.4754 9.59522 18.1356 9.76565 18.0308 10.08C18.0104 10.1412 18 10.2055 18 10.27ZM15 19C15.5523 19 16 18.5523 16 18C16 17.4477 15.5523 17 15 17C14.4477 17 14 17.4477 14 18C14 18.5523 14.4477 19 15 19Z" fill="#31303D"/>
</svg>
