<svg width="24" height="24" viewBox="0 0 24 24" fill="none" xmlns="http://www.w3.org/2000/svg">
<path fill-rule="evenodd" clip-rule="evenodd" d="M2 14.4V13.6C2 13.2686 2.26863 13 2.6 13H4C4.55228 13 5 12.5523 5 12V9.6C5 9.26863 5.26863 9 5.6 9H6.4C6.73137 9 7 9.26863 7 9.6V12C7 13.6569 5.65685 15 4 15H2.6C2.26863 15 2 14.7314 2 14.4ZM6.4 8H5.6C5.26863 8 5 7.73137 5 7.4V6C5 4.34315 6.34315 3 8 3C9.65685 3 11 4.34315 11 6V18C11 18.5523 11.4477 19 12 19C12.5523 19 13 18.5523 13 18V10C13 8.34315 14.3431 7 16 7C17.6569 7 19 8.34315 19 10V12C19 12.5523 19.4477 13 20 13H21.4C21.7314 13 22 13.2686 22 13.6V14.4C22 14.7314 21.7314 15 21.4 15H20C18.3431 15 17 13.6569 17 12V10C17 9.44772 16.5523 9 16 9C15.4477 9 15 9.44772 15 10V18C15 19.6569 13.6569 21 12 21C10.3431 21 9 19.6569 9 18V6C9 5.44772 8.55228 5 8 5C7.44772 5 7 5.44772 7 6V7.4C7 7.73137 6.73137 8 6.4 8Z" fill="#31303D"/>
</svg>
