<svg width="24" height="24" viewBox="0 0 24 24" fill="none" xmlns="http://www.w3.org/2000/svg">
<path fill-rule="evenodd" clip-rule="evenodd" d="M7 10C7.55228 10 8 10.4477 8 11V13C8 13.5523 7.55228 14 7 14C6.44772 14 6 13.5523 6 13V11C6 10.4477 6.44772 10 7 10ZM7 15C7.55228 15 8 15.4477 8 16V16.6916C8 16.7326 8.01262 16.7727 8.03615 16.8063C8.09949 16.8968 8.2242 16.9188 8.31469 16.8555L15.0175 12.1638C15.0366 12.1504 15.0532 12.1338 15.0666 12.1146C15.13 12.0241 15.108 11.8994 15.0175 11.8361L8.31468 7.1446C8.28107 7.12107 8.24103 7.10845 8.2 7.10845C8.08954 7.10845 8 7.19799 8 7.30845V8C8 8.55228 7.55228 9 7 9C6.44772 9 6 8.55228 6 8V5C6 4.79158 6.06512 4.58958 6.18627 4.41998C6.38165 4.14645 6.68948 3.9997 7.00182 4C7.20266 4.0002 7.40536 4.06438 7.58124 4.19L16 10.0827V5C16 4.44772 16.4477 4 17 4C17.5523 4 18 4.44772 18 5V19C18 19.5523 17.5523 20 17 20C16.4477 20 16 19.5523 16 19V13.9173L7.58124 19.81C7.41164 19.9311 7.20842 20 7 20C6.44772 20 6 19.5523 6 19V16C6 15.4477 6.44772 15 7 15Z" fill="#31303D"/>
</svg>
