<svg width="24" height="24" viewBox="0 0 24 24" fill="none" xmlns="http://www.w3.org/2000/svg">
<path fill-rule="evenodd" clip-rule="evenodd" d="M16 14C16.5523 14 17 14.4477 17 15V20C17 20.5523 16.5523 21 16 21C15.4477 21 15 20.5523 15 20V15C15 14.4477 15.4477 14 16 14ZM17 5.4V12C17 12.5523 16.5523 13 16 13C15.4477 13 15 12.5523 15 12V5.4C15 5.17909 14.8209 5 14.6 5H13.4C13.1791 5 13 5.17909 13 5.4V20C13 20.5523 12.5523 21 12 21C11.4477 21 11 20.5523 11 20V13H9C6.23858 13 4 10.7614 4 8C4 5.23858 6.23858 3 9 3H19C19.5523 3 20 3.44772 20 4C20 4.55228 19.5523 5 19 5H17.4C17.1791 5 17 5.17909 17 5.4ZM10.6 5H9C7.34315 5 6 6.34315 6 8C6 9.65685 7.34315 11 9 11H10.6C10.8209 11 11 10.8209 11 10.6V5.4C11 5.17909 10.8209 5 10.6 5Z" fill="#31303D"/>
</svg>
