<svg width="24" height="24" viewBox="0 0 24 24" fill="none" xmlns="http://www.w3.org/2000/svg">
<path fill-rule="evenodd" clip-rule="evenodd" d="M7.17071 4C7.58254 2.83481 8.69378 2 10 2H12C13.3062 2 14.4175 2.83481 14.8293 4H16C17.1046 4 18 4.89543 18 6V9C19.1046 9 20 9.89543 20 11V20C20 21.1046 19.1046 22 18 22H10C8.89543 22 8 21.1046 8 20H6C4.89543 20 4 19.1046 4 18V6C4 4.89543 4.89543 4 6 4H7.17071ZM7.17071 6H6.4C6.17909 6 6 6.17909 6 6.4V17.6C6 17.8209 6.17909 18 6.4 18H8V11C8 9.89543 8.89543 9 10 9H16V6.4C16 6.17909 15.8209 6 15.6 6H14.8293C14.4175 7.16519 13.3062 8 12 8H10C8.69378 8 7.58254 7.16519 7.17071 6ZM10 4C9.44772 4 9 4.44772 9 5C9 5.55228 9.44772 6 10 6H12C12.5523 6 13 5.55228 13 5C13 4.44772 12.5523 4 12 4H10ZM10 11.4V19.6C10 19.8209 10.1791 20 10.4 20H17.6C17.8209 20 18 19.8209 18 19.6V11.4C18 11.1791 17.8209 11 17.6 11H10.4C10.1791 11 10 11.1791 10 11.4ZM12 16H16C16.5523 16 17 16.4477 17 17C17 17.5523 16.5523 18 16 18H12C11.4477 18 11 17.5523 11 17C11 16.4477 11.4477 16 12 16ZM12 13H16C16.5523 13 17 13.4477 17 14C17 14.5523 16.5523 15 16 15H12C11.4477 15 11 14.5523 11 14C11 13.4477 11.4477 13 12 13Z" fill="#31303D"/>
</svg>
