<svg width="24" height="24" viewBox="0 0 24 24" fill="none" xmlns="http://www.w3.org/2000/svg">
<path fill-rule="evenodd" clip-rule="evenodd" d="M11 15V18C11 18.5523 10.5523 19 10 19C9.44772 19 9 18.5523 9 18V11C9 9.89543 9.89543 9 11 9H12.6C13.9255 9 15 10.0745 15 11.4V12.6C15 13.9255 13.9255 15 12.6 15H11ZM17.7977 7.40193C18.0521 7.80544 18.2133 8.27487 18.2503 8.78126L18.9814 18.7813C19.1022 20.4337 17.8606 21.8712 16.2081 21.992C16.1353 21.9973 16.0624 22 15.9894 22H8.01054C6.35369 22 5.01054 20.6569 5.01054 19C5.01054 18.927 5.0132 18.8541 5.01853 18.7813L5.74959 8.78126C5.78662 8.27485 5.94788 7.80541 6.20223 7.40189C5.47229 6.85467 5 5.98249 5 5C5 3.34315 6.34315 2 8 2H9.4C9.73137 2 10 2.26863 10 2.6V4.4C10 4.73137 9.73137 5 9.4 5H8.6C8.26863 5 8 4.73137 8 4.4V4C7.44772 4 7 4.44772 7 5C7 5.55228 7.44772 6 8 6H16C16.5523 6 17 5.55228 17 5C17 4.44772 16.5523 4 16 4V4.4C16 4.73137 15.7314 5 15.4 5H14.6C14.2686 5 14 4.73137 14 4.4V2.6C14 2.26863 14.2686 2 14.6 2H15H16C17.6569 2 19 3.34315 19 5C19 5.98252 18.5277 6.85472 17.7977 7.40193ZM15.2583 8H8.74161C8.21761 8 7.78248 8.40449 7.74427 8.92709L7.0132 18.9271C7.01143 18.9514 7.01054 18.9757 7.01054 19C7.01054 19.5523 7.45826 20 8.01054 20H15.9894C16.0137 20 16.038 19.9991 16.0623 19.9973C16.6131 19.9571 17.027 19.4779 16.9867 18.9271L16.2557 8.92709C16.2174 8.40449 15.7823 8 15.2583 8ZM11.6 2H12.4C12.7314 2 13 2.26863 13 2.6V4.4C13 4.73137 12.7314 5 12.4 5H11.6C11.2686 5 11 4.73137 11 4.4V2.6C11 2.26863 11.2686 2 11.6 2ZM12.6 13C12.8209 13 13 12.8209 13 12.6V11.4C13 11.1791 12.8209 11 12.6 11H11V13H12.6Z" fill="#31303D"/>
</svg>
