<svg width="24" height="24" viewBox="0 0 24 24" fill="none" xmlns="http://www.w3.org/2000/svg">
<path fill-rule="evenodd" clip-rule="evenodd" d="M19.8221 7.07706L18.9488 7.95038C18.7926 8.10659 18.5394 8.10659 18.3831 7.95038L16.0496 5.61686C15.8934 5.46065 15.8934 5.20738 16.0496 5.05117L16.9229 4.17786C17.0791 4.02165 17.3324 4.02165 17.4886 4.17786L19.8221 6.51138C19.9784 6.66759 19.9784 6.92086 19.8221 7.07706ZM21.2364 7.92559L21.8212 8.51042C22.0596 8.74884 22.0596 9.1354 21.8212 9.37382L18.3676 12.8274C18.1292 13.0658 17.7426 13.0658 17.5042 12.8274L16.6408 11.964C16.5613 11.8846 16.4325 11.8846 16.353 11.964L15.9848 12.3322C15.8609 12.4561 15.8302 12.6453 15.9086 12.802L17.0196 15.024C17.1371 15.2591 17.091 15.543 16.9052 15.7288L14.0506 18.5834C13.8122 18.8219 13.4256 18.8219 13.1872 18.5834L10.0214 15.4176L3.61782 21.8212C3.3794 22.0596 2.99284 22.0596 2.75442 21.8212L2.17882 21.2456C1.94039 21.0072 1.94039 20.6206 2.17882 20.3822L8.58237 13.9786L5.41657 10.8128C5.17815 10.5744 5.17815 10.1878 5.41657 9.94942L8.27122 7.09477C8.45704 6.90896 8.74091 6.86289 8.97595 6.98041L11.198 8.09143C11.3547 8.16978 11.5439 8.13907 11.6678 8.01519L12.036 7.64702C12.1154 7.56755 12.1154 7.43869 12.036 7.35922L11.1726 6.49582C10.9342 6.2574 10.9342 5.87084 11.1726 5.63242L14.6262 2.17882C14.8646 1.94039 15.2512 1.94039 15.4896 2.17882L16.0747 2.76335C16.309 2.99767 16.309 3.37757 16.0747 3.61188C16.0746 3.61198 16.0745 3.61208 16.0744 3.61217L13.9067 5.77632C13.7477 5.93527 13.7477 6.19297 13.9067 6.35192L14.7701 7.21532C14.929 7.37427 14.929 7.63197 14.7701 7.79092L11.7482 10.8128C11.5892 10.9718 11.3315 10.9718 11.1726 10.8128L10.3016 9.94184C10.2707 9.91091 10.2349 9.88517 10.1958 9.8656L9.24659 9.39099C9.08989 9.31264 8.90064 9.34335 8.77676 9.46723L8.15067 10.0933C7.99172 10.2523 7.99172 10.51 8.15067 10.6689L13.3311 15.8493C13.49 16.0083 13.7477 16.0083 13.9067 15.8493L14.5328 15.2232C14.6566 15.0994 14.6874 14.9101 14.609 14.7534L14.1344 13.8042C14.1148 13.7651 14.0891 13.7293 14.0582 13.6984L13.1872 12.8274C13.0282 12.6685 13.0282 12.4108 13.1872 12.2518L16.2091 9.22992C16.368 9.07097 16.6257 9.07097 16.7847 9.22992L17.6481 10.0933C17.807 10.2523 18.0647 10.2523 18.2237 10.0933L20.3878 7.92559C20.622 7.69112 21.0019 7.69085 21.2364 7.92501C21.2365 7.9251 21.2366 7.9252 21.2366 7.9253L21.2364 7.92559Z" fill="#31303D"/>
</svg>
