<svg width="24" height="24" viewBox="0 0 24 24" fill="none" xmlns="http://www.w3.org/2000/svg">
<path fill-rule="evenodd" clip-rule="evenodd" d="M4.22643 18.2911C3.87876 17.862 3.94479 17.2322 4.37391 16.8846C4.80303 16.5369 5.43274 16.6029 5.78041 17.032C6.13549 17.4703 6.53594 17.8703 6.97457 18.2249C7.40406 18.5722 7.47075 19.2018 7.12354 19.6313C6.77632 20.0608 6.14668 20.1275 5.71719 19.7803C5.16959 19.3376 4.66972 18.8382 4.22643 18.2911ZM8.02411 20.2798L8.02348 20.2779L10.0681 11.7622C10.2086 11.2138 10.7474 10.8883 11.2715 11.0353C11.7957 11.1822 12.1067 11.7459 11.9663 12.2943L11.2851 14.9442C11.5189 14.9812 11.7578 15 12 15C14.2313 15 16 13.4081 16 11.5C16 9.59187 14.2313 8 12 8C9.76874 8 8 9.59187 8 11.5C8 11.8914 8.07327 12.273 8.21554 12.6351C8.41753 13.1491 8.16457 13.7295 7.65055 13.9315C7.13653 14.1335 6.55609 13.8805 6.3541 13.3665C6.12088 12.773 6 12.1435 6 11.5C6 8.43757 8.70841 6 12 6C15.2916 6 18 8.43757 18 11.5C18 14.5624 15.2916 17 12 17C11.5886 17 11.1822 16.962 10.7857 16.8873L10.0472 19.7602C10.6795 19.9188 11.3339 20 12 20C16.4183 20 20 16.4183 20 12C20 7.58172 16.4183 4 12 4C7.58172 4 4 7.58172 4 12C4 12.9208 4.15518 13.8189 4.45525 14.6676C4.63935 15.1883 4.36649 15.7596 3.8458 15.9437C3.3251 16.1278 2.75375 15.855 2.56964 15.3343C2.19413 14.2722 2 13.1487 2 12C2 6.47715 6.47715 2 12 2C17.5228 2 22 6.47715 22 12C22 17.5228 17.5228 22 12 22C10.8526 22 9.7302 21.8063 8.66916 21.4316C8.18953 21.2622 7.92001 20.7642 8.02411 20.2798Z" fill="#31303D"/>
</svg>
