<svg width="24" height="24" viewBox="0 0 24 24" fill="none" xmlns="http://www.w3.org/2000/svg">
<path fill-rule="evenodd" clip-rule="evenodd" d="M7 10C7.55228 10 8 10.4477 8 11V13C8 13.5523 7.55228 14 7 14C6.44772 14 6 13.5523 6 13V11C6 10.4477 6.44772 10 7 10ZM7 15C7.55228 15 8 15.4477 8 16V16.6915C8 16.802 8.08954 16.8916 8.2 16.8916C8.24103 16.8916 8.28107 16.8789 8.31468 16.8554L15.0175 12.1639C15.108 12.1006 15.13 11.9759 15.0666 11.8854C15.0532 11.8662 15.0366 11.8496 15.0175 11.8362L8.31469 7.14463C8.22419 7.08129 8.09949 7.1033 8.03615 7.19379C8.01262 7.22741 8 7.26745 8 7.30848V8C8 8.55228 7.55228 9 7 9C6.44772 9 6 8.55228 6 8V5C6 4.79158 6.06512 4.58958 6.18627 4.41998C6.38165 4.14645 6.68948 3.9997 7.00182 4C7.20266 4.0002 7.40536 4.06438 7.58124 4.19L17.56 11.1746C17.6624 11.2446 17.75 11.3331 17.82 11.4355C17.9383 11.6084 18.0002 11.8054 18 12.0003C17.9996 12.3189 17.8429 12.6319 17.56 12.8254L7.58124 19.81C7.41164 19.9311 7.20842 20 7 20C6.44772 20 6 19.5523 6 19V16C6 15.4477 6.44772 15 7 15Z" fill="#31303D"/>
</svg>
