<svg width="24" height="24" viewBox="0 0 24 24" fill="none" xmlns="http://www.w3.org/2000/svg">
<path fill-rule="evenodd" clip-rule="evenodd" d="M17 10C17.5523 10 18 10.4477 18 11V13C18 13.5523 17.5523 14 17 14C16.4477 14 16 13.5523 16 13V11C16 10.4477 16.4477 10 17 10ZM17 9C16.4477 9 16 8.55228 16 8V7.30845C16 7.19799 15.9105 7.10845 15.8 7.10845C15.759 7.10845 15.7189 7.12107 15.6853 7.1446L8.98253 11.8361C8.89203 11.8994 8.87002 12.0241 8.93336 12.1146C8.94675 12.1338 8.96339 12.1504 8.98252 12.1638L15.6853 16.8555C15.7758 16.9188 15.9005 16.8968 15.9639 16.8063C15.9874 16.7727 16 16.7326 16 16.6916V16C16 15.4477 16.4477 15 17 15C17.5523 15 18 15.4477 18 16V19C18 19.5523 17.5523 20 17 20C16.7916 20 16.5884 19.9311 16.4188 19.81L8 13.9173V19C8 19.5523 7.55228 20 7 20C6.44772 20 6 19.5523 6 19V5C6 4.44772 6.44772 4 7 4C7.55228 4 8 4.44772 8 5V10.0827L16.4188 4.19C16.5946 4.06438 16.7973 4.0002 16.9982 4C17.3105 3.9997 17.6184 4.14645 17.8137 4.41998C17.9349 4.58958 18 4.79158 18 5V8C18 8.55228 17.5523 9 17 9Z" fill="#31303D"/>
</svg>
