<svg width="24" height="24" viewBox="0 0 24 24" fill="none" xmlns="http://www.w3.org/2000/svg">
<path fill-rule="evenodd" clip-rule="evenodd" d="M15.8898 21.215C15.381 21.43 14.7944 21.1918 14.5794 20.6831C14.3644 20.1744 14.6025 19.5877 15.1113 19.3727C15.2618 19.3091 15.4103 19.2409 15.5565 19.1682C17.1185 18.3915 18.3915 17.1185 19.1682 15.5566C19.2408 15.4106 19.3089 15.2624 19.3724 15.1122C19.5874 14.6035 20.1741 14.3654 20.6828 14.5804C21.1915 14.7955 21.4296 15.3822 21.2145 15.8909C21.135 16.0789 21.0498 16.2644 20.959 16.4471C19.9883 18.3992 18.3992 19.9883 16.447 20.959C16.264 21.05 16.0782 21.1354 15.8898 21.215ZM19.0069 4.86557C19.0283 4.88638 19.0496 4.9075 19.0711 4.92893C19.4008 5.25862 19.6745 5.57201 19.8981 5.8657C21.2155 7.55942 22 9.68809 22 12C22 12.5523 21.5523 13 21 13C20.4477 13 20 12.5523 20 12C20 10.1513 19.3729 8.44904 18.3199 7.09436L7.09436 18.3199C8.44904 19.3729 10.1513 20 12 20C12.5523 20 13 20.4477 13 21C13 21.5523 12.5523 22 12 22C6.47715 22 2 17.5228 2 12C2 6.47715 6.47715 2 12 2C14.729 2 17.2027 3.09316 19.007 4.86547L19.0069 4.86557ZM5.68014 16.9056L16.9056 5.68014C15.551 4.62708 13.8487 4 12 4C7.58172 4 4 7.58172 4 12C4 13.8487 4.62708 15.551 5.68014 16.9056Z" fill="#31303D"/>
</svg>
