<svg width="24" height="24" viewBox="0 0 24 24" fill="none" xmlns="http://www.w3.org/2000/svg">
<path fill-rule="evenodd" clip-rule="evenodd" d="M17.7977 7.40193C18.0521 7.80544 18.2133 8.27487 18.2503 8.78126L18.9814 18.7813C19.1022 20.4337 17.8606 21.8712 16.2081 21.992C16.1353 21.9973 16.0624 22 15.9894 22H8.01054C6.35369 22 5.01054 20.6569 5.01054 19C5.01054 18.927 5.0132 18.8541 5.01853 18.7813L5.74959 8.78126C5.78662 8.27485 5.94788 7.80541 6.20223 7.40189C5.47229 6.85467 5 5.98249 5 5C5 3.34315 6.34315 2 8 2H9.4C9.73137 2 10 2.26863 10 2.6V4.4C10 4.73137 9.73137 5 9.4 5H8.6C8.26863 5 8 4.73137 8 4.4V4C7.44772 4 7 4.44772 7 5C7 5.55228 7.44772 6 8 6H16C16.5523 6 17 5.55228 17 5C17 4.44772 16.5523 4 16 4V4.4C16 4.73137 15.7314 5 15.4 5H14.6C14.2686 5 14 4.73137 14 4.4V2.6C14 2.26863 14.2686 2 14.6 2H15H16C17.6569 2 19 3.34315 19 5C19 5.98252 18.5277 6.85472 17.7977 7.40193ZM15.2583 8H8.74161C8.21761 8 7.78248 8.40449 7.74427 8.92709L7.0132 18.9271C7.01143 18.9514 7.01054 18.9757 7.01054 19C7.01054 19.5523 7.45826 20 8.01054 20H15.9894C16.0137 20 16.038 19.9991 16.0623 19.9973C16.6131 19.9571 17.027 19.4779 16.9867 18.9271L16.2557 8.92709C16.2174 8.40449 15.7823 8 15.2583 8ZM11.6 2H12.4C12.7314 2 13 2.26863 13 2.6V4.4C13 4.73137 12.7314 5 12.4 5H11.6C11.2686 5 11 4.73137 11 4.4V2.6C11 2.26863 11.2686 2 11.6 2ZM9.02986 16.6425C8.89591 16.1067 9.22167 15.5638 9.75746 15.4299C10.2933 15.2959 10.8362 15.6217 10.9701 16.1575L10.9821 16.2052C11.0989 16.6723 11.5185 17 12 17C12.5523 17 13 16.5523 13 16C13 15.4477 12.5523 15 12 15C10.3431 15 9 13.6569 9 12C9 10.3431 10.3431 9 12 9C13.3992 9 14.6188 9.95227 14.9582 11.3097L14.9701 11.3575C15.1041 11.8933 14.7783 12.4362 14.2425 12.5701C13.7067 12.7041 13.1638 12.3783 13.0299 11.8425L13.0179 11.7948C12.9011 11.3277 12.4815 11 12 11C11.4477 11 11 11.4477 11 12C11 12.5523 11.4477 13 12 13C13.6569 13 15 14.3431 15 16C15 17.6569 13.6569 19 12 19C10.6008 19 9.38116 18.0477 9.0418 16.6903L9.02986 16.6425Z" fill="#31303D"/>
</svg>
