<svg width="24" height="24" viewBox="0 0 24 24" fill="none" xmlns="http://www.w3.org/2000/svg">
<path fill-rule="evenodd" clip-rule="evenodd" d="M5 3H19C20.1046 3 21 3.89543 21 5V19C21 20.1046 20.1046 21 19 21H5C3.89543 21 3 20.1046 3 19V5C3 3.89543 3.89543 3 5 3ZM13.6 6H14.4C14.7314 6 15 6.26863 15 6.6V9.4C15 9.73137 14.7314 10 14.4 10H13.6C13.2686 10 13 9.73137 13 9.4V6.6C13 6.26863 13.2686 6 13.6 6ZM5 5V19H19V5H5ZM8 5V11H16V5H18V12C18 12.5523 17.5523 13 17 13H7C6.44772 13 6 12.5523 6 12V5H8ZM6 5H8H6ZM16 5H18H16ZM16 19V16H8V19H6V15C6 14.4477 6.44772 14 7 14H17C17.5523 14 18 14.4477 18 15V19H16ZM18 19H16H18ZM8 19H6H8Z" fill="#31303D"/>
</svg>
