<svg width="24" height="24" viewBox="0 0 24 24" fill="none" xmlns="http://www.w3.org/2000/svg">
<path d="M14.8093 15.5872C15.5397 14.6229 16.6971 14 18 14C20.2091 14 22 15.7909 22 18C22 20.2091 20.2091 22 18 22C15.7909 22 14 20.2091 14 18C14 17.8076 14.0136 17.6184 14.0398 17.4333L9.19066 15.4128C8.46032 16.3771 7.30291 17 6 17C3.79086 17 2 15.2091 2 13C2 10.7909 3.79086 9 6 9C7.05564 9 8.01577 9.40893 8.73062 10.077L13.1947 7.23625C13.0683 6.84694 13 6.43144 13 6C13 3.79086 14.7909 2 17 2C19.2091 2 21 3.79086 21 6C21 8.20914 19.2091 10 17 10C15.9444 10 14.9842 9.59107 14.2694 8.92298L9.8053 11.7638C9.93169 12.1531 10 12.5686 10 13C10 13.1924 9.98642 13.3816 9.96016 13.5667L14.8093 15.5872ZM17 8C18.1046 8 19 7.10457 19 6C19 4.89543 18.1046 4 17 4C15.8954 4 15 4.89543 15 6C15 7.10457 15.8954 8 17 8ZM6 15C7.10457 15 8 14.1046 8 13C8 11.8954 7.10457 11 6 11C4.89543 11 4 11.8954 4 13C4 14.1046 4.89543 15 6 15ZM18 20C19.1046 20 20 19.1046 20 18C20 16.8954 19.1046 16 18 16C16.8954 16 16 16.8954 16 18C16 19.1046 16.8954 20 18 20Z" fill="#31303D"/>
</svg>
