<svg width="24" height="24" viewBox="0 0 24 24" fill="none" xmlns="http://www.w3.org/2000/svg">
<path fill-rule="evenodd" clip-rule="evenodd" d="M4.74583 21.7005C4.34645 22.0998 3.69892 22.0998 3.29954 21.7005C2.90015 21.3011 2.90015 20.6535 3.29954 20.2542L3.76603 19.7877C3.84414 19.7096 3.97077 19.7096 4.04888 19.7877L5.21233 20.9511C5.29043 21.0292 5.29043 21.1559 5.21233 21.234L4.74583 21.7005ZM9.98865 13.5651L9.21554 12.7881C7.59482 11.1593 7.59482 8.51847 9.21554 6.88967L12.2121 3.87813C13.7968 2.28555 16.0967 1.64533 18.2709 2.19158L19.4277 2.48222C20.5395 2.76156 21.2155 3.8938 20.9376 5.01115C20.8463 5.37784 20.6577 5.71271 20.3917 5.97997L12.8451 13.5642C12.8048 13.6287 12.7566 13.6897 12.7005 13.7458L6.23397 20.2123C6.15586 20.2904 6.02923 20.2904 5.95112 20.2123L4.78767 19.0489C4.70957 18.9708 4.70957 18.8441 4.78767 18.766L9.98865 13.5651ZM10.6828 11.3135L11.4165 12.0508L18.9244 4.50537L17.7676 4.21472C16.3006 3.84613 14.7487 4.27813 13.6794 5.35274L10.6828 8.36427C9.87247 9.17867 9.87247 10.4991 10.6828 11.3135Z" fill="#31303D"/>
</svg>
