<svg width="24" height="24" viewBox="0 0 24 24" fill="none" xmlns="http://www.w3.org/2000/svg">
<path d="M19 14V17C19 18.1046 18.1046 19 17 19H14C13.4477 19 13 18.5523 13 18C13 17.4477 13.4477 17 14 17H16.4C16.7314 17 17 16.7314 17 16.4V14C17 13.4477 17.4477 13 18 13C18.5523 13 19 13.4477 19 14ZM18 12C17.4477 12 17 11.5523 17 11V7.6C17 7.26863 16.7314 7 16.4 7H7.6C7.26863 7 7 7.26863 7 7.6V16.4C7 16.7314 7.26863 17 7.6 17H11C11.5523 17 12 17.4477 12 18C12 18.5523 11.5523 19 11 19H7C5.89543 19 5 18.1046 5 17V7C5 5.89543 5.89543 5 7 5H17C18.1046 5 19 5.89543 19 7V11C19 11.5523 18.5523 12 18 12Z" fill="#31303D"/>
</svg>
