<svg width="24" height="24" viewBox="0 0 24 24" fill="none" xmlns="http://www.w3.org/2000/svg">
<path fill-rule="evenodd" clip-rule="evenodd" d="M4.5 14C3.11929 14 2 12.8807 2 11.5V6.50001C2 5.1193 3.11929 4.00001 4.5 4.00001H6C6.55228 4.00001 7 4.44772 7 5.00001V13C7 13.5523 6.55228 14 6 14H4.5ZM5 6.00001H4.5C4.22386 6.00001 4 6.22387 4 6.50001V11.5C4 11.7762 4.22386 12 4.5 12H5V6.00001ZM9 15C8.35971 14.3597 8 13.4913 8 12.5858L7.99999 6C7.99999 4.89543 8.89542 4 9.99999 4L17.7679 4.00001C19.0927 4.00001 20.2607 4.86901 20.6414 6.13796L21.87 10.15C21.9532 10.4275 22 10.7104 22 11C22 12.6437 20.6437 14 19 14H18C16.8954 14 16 14.8954 16 16V16.68C16 18.1226 14.957 19.3529 13.534 19.59L11.1644 19.99C11.1101 19.9991 11.0551 20 11 20C10.4477 20 10 19.5523 10 19V17.4142C10 16.5087 9.64029 15.6403 9 15ZM12 17.59C12 17.6007 12.0009 17.6114 12.0026 17.622C12.0203 17.7282 12.1207 17.8 12.2269 17.7824L13.2052 17.62C13.6638 17.5436 14 17.145 14 16.68V16C14 13.7909 15.7909 12 18 12H19C19.5391 12 20 11.563 20 11.0239C20 10.9289 19.9772 10.8344 19.95 10.7434L18.7257 6.71266C18.5988 6.28967 18.2095 6.00001 17.7679 6.00001L10.4 6C10.1791 6 9.99999 6.17909 9.99999 6.4L10 12.5858C10 12.9609 10.149 13.3206 10.4142 13.5858C11.4296 14.6012 12 16.1541 12 17.59Z" fill="#31303D"/>
</svg>
