<svg width="24" height="24" viewBox="0 0 24 24" fill="none" xmlns="http://www.w3.org/2000/svg">
<path fill-rule="evenodd" clip-rule="evenodd" d="M9 20C9.55228 20 10 20.4477 10 21C10 21.5523 9.55228 22 9 22H8C4.68629 22 2 19.3137 2 16V15C2 14.4477 2.44772 14 3 14C3.55228 14 4 14.4477 4 15V16C4 18.2091 5.79086 20 8 20H9ZM4 12C4 12.5523 3.55228 13 3 13C2.44772 13 2 12.5523 2 12V8C2 4.68629 4.68629 2 8 2H16C19.3137 2 22 4.68629 22 8V16C22 19.3137 19.3137 22 16 22H12C11.4477 22 11 21.5523 11 21C11 20.4477 11.4477 20 12 20H16C18.2091 20 20 18.2091 20 16V8C20 5.79086 18.2091 4 16 4H8C5.79086 4 4 5.79086 4 8V12ZM14 7C14 8.10457 14.8954 9 16 9H16.6C16.8209 9 17 9.17909 17 9.4V10.6C17 10.8209 16.8209 11 16.6 11H16C15.2714 11 14.5883 10.8052 14 10.4649V14.5C14 16.433 12.433 18 10.5 18C8.567 18 7 16.433 7 14.5C7 12.567 8.567 11 10.5 11H10.6C10.8209 11 11 11.1791 11 11.4V12.6C11 12.8209 10.8209 13 10.6 13H10.5C9.67157 13 9 13.6716 9 14.5C9 15.3284 9.67157 16 10.5 16C11.3284 16 12 15.3284 12 14.5V6.4C12 6.17909 12.1791 6 12.4 6H13.6C13.8209 6 14 6.17909 14 6.4V7Z" fill="#31303D"/>
</svg>
