<svg width="24" height="24" viewBox="0 0 24 24" fill="none" xmlns="http://www.w3.org/2000/svg">
<path fill-rule="evenodd" clip-rule="evenodd" d="M6.5 13H17.5C19.9853 13 22 15.0147 22 17.5C22 19.9853 19.9853 22 17.5 22H6.5C4.01472 22 2 19.9853 2 17.5C2 15.0147 4.01472 13 6.5 13ZM17.5 2C19.9853 2 22 4.01472 22 6.5C22 8.98528 19.9853 11 17.5 11H6.5C4.01472 11 2 8.98528 2 6.5C2 4.01472 4.01472 2 6.5 2H17.5ZM17.5 19C16.6716 19 16 18.3284 16 17.5C16 16.6716 16.6716 16 17.5 16C18.3284 16 19 16.6716 19 17.5C19 18.3284 18.3284 19 17.5 19ZM6.5 15C5.11929 15 4 16.1193 4 17.5C4 18.8807 5.11929 20 6.5 20H17.5C18.8807 20 20 18.8807 20 17.5C20 16.1193 18.8807 15 17.5 15H6.5ZM17.5 4H6.5C5.11929 4 4 5.11929 4 6.5C4 7.88071 5.11929 9 6.5 9H17.5C18.8807 9 20 7.88071 20 6.5C20 5.11929 18.8807 4 17.5 4ZM6.5 8C5.67157 8 5 7.32843 5 6.5C5 5.67157 5.67157 5 6.5 5C7.32843 5 8 5.67157 8 6.5C8 7.32843 7.32843 8 6.5 8Z" fill="#31303D"/>
</svg>
