<svg width="24" height="24" viewBox="0 0 24 24" fill="none" xmlns="http://www.w3.org/2000/svg">
<path fill-rule="evenodd" clip-rule="evenodd" d="M4.78006 9.13456C5.33196 9.15525 5.76259 9.61942 5.7419 10.1713C5.72122 10.7232 5.25704 11.1538 4.70515 11.1332C3.92422 11.1039 3.17151 10.8829 2.50165 10.4957C2.0235 10.2193 1.85992 9.60765 2.13631 9.12949C2.41269 8.65133 3.02436 8.48776 3.50251 8.76414C3.89289 8.98979 4.32829 9.11763 4.78006 9.13456ZM5.80442 12.686C6.33444 12.5307 6.88995 12.8346 7.04519 13.3646C7.20043 13.8946 6.89662 14.4501 6.3666 14.6054C5.95157 14.7269 5.51932 14.7874 5.0727 14.7874C4.75897 14.7874 4.45222 14.7572 4.15341 14.6965C3.61218 14.5866 3.26256 14.0587 3.3725 13.5175C3.48245 12.9762 4.01033 12.6266 4.55156 12.7366C4.7179 12.7703 4.89129 12.7874 5.0727 12.7874C5.3313 12.7874 5.57426 12.7534 5.80442 12.686ZM20.3554 8.98297C20.203 9.07953 20.0314 9.18121 19.9936 9.40538C19.7938 15.7294 14.9301 21 8 21C6.19823 21 3.68206 20.3605 2.46915 19.3687C2.18902 19.1396 2 18.876 2 18.4303C2 17.7934 2.50758 17.252 3.16713 17.252C4.11452 17.252 6.05266 16.3075 7.36456 15.2278C7.79101 14.8769 8.42121 14.9381 8.77215 15.3646C9.12309 15.791 9.06189 16.4212 8.63544 16.7722C7.7423 17.5072 6.64389 18.1786 5.58539 18.6369C6.39591 18.8604 7.29073 19 8 19C13.9208 19 18 14.4442 18 9C18 8.52272 18.1136 8.27807 18.8403 7.74341C18.5492 7.45219 18.2927 7.17732 18.0708 6.9188C17.9244 6.74828 17.364 6.06432 17.2551 5.94275C16.7084 5.33238 16.0054 5 15.2308 5C13.6863 5 12.4073 6.32644 12.3825 7.98997L12.396 8.11721C12.4896 9.00206 11.8483 9.79531 10.9634 9.88899C10.8402 9.90203 10.7159 9.90082 10.593 9.88537C7.50384 9.49723 5.15715 8.11717 3.21058 5.61385C2.87156 5.17787 2.95016 4.5496 3.38615 4.21058C3.82213 3.87156 4.4504 3.95016 4.78942 4.38615C6.31814 6.35211 8.06371 7.44324 10.3861 7.83409C10.4897 5.15804 12.6109 3 15.2308 3C16.5904 3 17.8288 3.58549 18.7449 4.60843C18.8894 4.76972 19.4684 5.47642 19.5882 5.61593C19.9519 6.03954 20.1953 6.35597 20.4849 6.48425C20.7746 6.61254 21.6439 6.55178 21.8928 7.04484C22.1416 7.5379 21.9436 8.13931 21.4505 8.38813C20.8042 8.71427 20.688 8.77228 20.3554 8.98297Z" fill="#31303D"/>
</svg>
