<svg width="24" height="24" viewBox="0 0 24 24" fill="none" xmlns="http://www.w3.org/2000/svg">
<path fill-rule="evenodd" clip-rule="evenodd" d="M6.1048 13.0786C6.54663 13.41 6.63617 14.0368 6.3048 14.4786C5.97343 14.9204 5.34663 15.01 4.9048 14.6786L2.40006 12.8001C1.95823 12.4687 1.86869 11.8419 2.20006 11.4001C2.25691 11.3243 2.32425 11.2569 2.40006 11.2001L4.90177 9.32378C5.34359 8.99241 5.97039 9.08195 6.30177 9.52378C6.63314 9.96561 6.54359 10.5924 6.10177 10.9238L4.88006 11.8401C4.79169 11.9063 4.77378 12.0317 4.84006 12.1201C4.85143 12.1352 4.8649 12.1487 4.88006 12.1601L6.1048 13.0786ZM12.0001 9H15C18.866 9 22 12.134 22 16V16.7084C22 16.9952 21.8768 17.2683 21.6617 17.4581C21.2477 17.8236 20.6157 17.7842 20.2503 17.3701C18.9287 15.8728 17.036 15 15 15H12.0001V18.0001C12.0001 18.5523 11.5523 19.0001 11.0001 19.0001C10.7837 19.0001 10.5732 18.9299 10.4001 18.8001L7.40333 16.5525C6.9615 16.2211 6.87196 15.5943 7.20333 15.1525C7.5347 14.7107 8.1615 14.6211 8.60333 14.9525L9.68006 15.7601C9.76842 15.8263 9.89378 15.8084 9.96006 15.7201C9.98602 15.6854 10.0001 15.6433 10.0001 15.6001V8.40006C10.0001 8.2896 9.91052 8.20006 9.80006 8.20006C9.75679 8.20006 9.71468 8.21409 9.68006 8.24006L8.60316 9.04773C8.16133 9.3791 7.53453 9.28956 7.20316 8.84773C6.87179 8.4059 6.96133 7.7791 7.40316 7.44773L10.4001 5.20006C10.8419 4.86869 11.4687 4.95823 11.8001 5.40006C11.9299 5.57315 12.0001 5.78369 12.0001 6.00006V9ZM12.0001 13H15C16.6984 13 18.3211 13.4736 19.7151 14.3322C19.0283 12.3908 17.1766 11 15 11H12.0001V13Z" fill="#31303D"/>
</svg>
