<svg width="24" height="24" viewBox="0 0 24 24" fill="none" xmlns="http://www.w3.org/2000/svg">
<path fill-rule="evenodd" clip-rule="evenodd" d="M19.397 19.5595C19.0272 19.9293 18.4341 19.9357 18.0723 19.5739L16.3913 17.8929C16.0295 17.5311 16.0359 16.938 16.4057 16.5682C16.7755 16.1984 17.3686 16.1919 17.7305 16.5538L19.4114 18.2347C19.7733 18.5966 19.7668 19.1897 19.397 19.5595ZM14.9139 21.9999C14.3966 22.0056 13.9818 21.5907 13.9874 21.0734L14.0042 19.5254C14.0099 19.008 14.4338 18.5841 14.9512 18.5785C15.4685 18.5728 15.8833 18.9877 15.8777 19.505L15.8609 21.053C15.8552 21.5704 15.4313 21.9943 14.9139 21.9999ZM21.9999 14.9139C21.9943 15.4313 21.5704 15.8552 21.053 15.8609L19.505 15.8777C18.9877 15.8833 18.5728 15.4685 18.5785 14.9512C18.5841 14.4338 19.008 14.0099 19.5254 14.0042L21.0734 13.9874C21.5907 13.9818 22.0056 14.3966 21.9999 14.9139ZM4.44053 4.603C4.81033 4.2332 5.40344 4.22675 5.76528 4.58859L7.44624 6.26954C7.80808 6.63138 7.80163 7.22449 7.43183 7.59429C7.06203 7.96409 6.46892 7.97055 6.10708 7.60871L4.42612 5.92775C4.06428 5.56591 4.07073 4.9728 4.44053 4.603ZM2.00006 9.08606C2.00569 8.56871 2.42964 8.14476 2.94699 8.13913L4.49499 8.12229C5.01234 8.11666 5.42717 8.53149 5.42154 9.04884C5.41591 9.56618 4.99196 9.99014 4.47461 9.99577L2.9266 10.0126C2.40926 10.0182 1.99443 9.60341 2.00006 9.08606ZM9.08606 2.00006C9.60341 1.99443 10.0182 2.40926 10.0126 2.9266L9.99577 4.47461C9.99014 4.99196 9.56618 5.41591 9.04884 5.42154C8.53149 5.42717 8.11666 5.01234 8.12229 4.49499L8.13913 2.94699C8.14476 2.42964 8.56871 2.00569 9.08606 2.00006ZM11.2769 9.83056C10.4781 9.03179 10.4781 7.73673 11.2769 6.93796L15.6157 2.59908C16.4145 1.80031 17.7096 1.80031 18.5083 2.59908L21.4009 5.49167C22.1997 6.29043 22.1997 7.58549 21.4009 8.38426L17.062 12.7231C16.2633 13.5219 14.9682 13.5219 14.1694 12.7231L19.6654 7.22722C19.8251 7.06747 19.8251 6.80846 19.6654 6.6487L17.3513 4.33463C17.1915 4.17488 16.9325 4.17488 16.7728 4.33463L11.2769 9.83056ZM9.83056 11.2769L4.33463 16.7728C4.17488 16.9325 4.17488 17.1915 4.33463 17.3513L6.6487 19.6654C6.80846 19.8251 7.06747 19.8251 7.22722 19.6654L12.7231 14.1694C13.5219 14.9682 13.5219 16.2633 12.7231 17.062L8.38426 21.4009C7.58549 22.1997 6.29043 22.1997 5.49167 21.4009L2.59908 18.5083C1.80031 17.7096 1.80031 16.4145 2.59908 15.6157L6.93796 11.2769C7.73673 10.4781 9.03179 10.4781 9.83056 11.2769Z" fill="#31303D"/>
</svg>
