<svg width="24" height="24" viewBox="0 0 24 24" fill="none" xmlns="http://www.w3.org/2000/svg">
<path fill-rule="evenodd" clip-rule="evenodd" d="M7.4 11H20.6C20.8209 11 21 11.1791 21 11.4V12.6C21 12.8209 20.8209 13 20.6 13H7.4C7.17909 13 7 12.8209 7 12.6V11.4C7 11.1791 7.17909 11 7.4 11ZM7.4 5H20.6C20.8209 5 21 5.17909 21 5.4V6.6C21 6.82091 20.8209 7 20.6 7H7.4C7.17909 7 7 6.82091 7 6.6V5.4C7 5.17909 7.17909 5 7.4 5ZM7.4 17H20.6C20.8209 17 21 17.1791 21 17.4V18.6C21 18.8209 20.8209 19 20.6 19H7.4C7.17909 19 7 18.8209 7 18.6V17.4C7 17.1791 7.17909 17 7.4 17ZM3.4 5H4.6C4.82091 5 5 5.17909 5 5.4V6.6C5 6.82091 4.82091 7 4.6 7H3.4C3.17909 7 3 6.82091 3 6.6V5.4C3 5.17909 3.17909 5 3.4 5ZM3.4 11H4.6C4.82091 11 5 11.1791 5 11.4V12.6C5 12.8209 4.82091 13 4.6 13H3.4C3.17909 13 3 12.8209 3 12.6V11.4C3 11.1791 3.17909 11 3.4 11ZM3.4 17H4.6C4.82091 17 5 17.1791 5 17.4V18.6C5 18.8209 4.82091 19 4.6 19H3.4C3.17909 19 3 18.8209 3 18.6V17.4C3 17.1791 3.17909 17 3.4 17Z" fill="#31303D"/>
</svg>
