<svg width="24" height="24" viewBox="0 0 24 24" fill="none" xmlns="http://www.w3.org/2000/svg">
<path fill-rule="evenodd" clip-rule="evenodd" d="M9 7C9.55228 7 10 7.44772 10 8C10 8.55228 9.55228 9 9 9C8.44772 9 8 8.55228 8 8C8 7.44772 8.44772 7 9 7ZM6 15H11C11.5523 15 12 15.4477 12 16C12 16.5523 11.5523 17 11 17H6C5.44772 17 5 16.5523 5 16C5 15.4477 5.44772 15 6 15ZM21 19C21.5523 19 22 19.4477 22 20C22 20.5523 21.5523 21 21 21C20.4477 21 20 20.5523 20 20C20 19.4477 20.4477 19 21 19ZM3 3H14C14.5523 3 15 3.44772 15 4C15 4.55228 14.5523 5 14 5H3C2.44772 5 2 4.55228 2 4C2 3.44772 2.44772 3 3 3ZM17 3H21C21.5523 3 22 3.44772 22 4C22 4.55228 21.5523 5 21 5H17C16.4477 5 16 4.55228 16 4C16 3.44772 16.4477 3 17 3ZM3 7H6C6.55228 7 7 7.44772 7 8C7 8.55228 6.55228 9 6 9H3C2.44772 9 2 8.55228 2 8C2 7.44772 2.44772 7 3 7ZM12 7H21C21.5523 7 22 7.44772 22 8C22 8.55228 21.5523 9 21 9H12C11.4477 9 11 8.55228 11 8C11 7.44772 11.4477 7 12 7ZM3 11H11C11.5523 11 12 11.4477 12 12C12 12.5523 11.5523 13 11 13H3C2.44772 13 2 12.5523 2 12C2 11.4477 2.44772 11 3 11ZM3 15C3.55228 15 4 15.4477 4 16C4 16.5523 3.55228 17 3 17C2.44772 17 2 16.5523 2 16C2 15.4477 2.44772 15 3 15ZM3 19H11C11.5523 19 12 19.4477 12 20C12 20.5523 11.5523 21 11 21H3C2.44772 21 2 20.5523 2 20C2 19.4477 2.44772 19 3 19ZM14.9296 11.09L21.7164 15.4912C21.9016 15.6055 22.0009 15.8023 22 16.0032C21.9995 16.111 21.971 16.2199 21.9089 16.318C21.86 16.3953 21.7947 16.4605 21.7164 16.5088L14.9296 20.91C14.6451 21.0856 14.2702 21.001 14.0924 20.72C14.032 20.6246 14 20.5125 14 20.4V11.6C14 11.2686 14.272 11 14.6076 11C14.7215 11 14.8331 11.0304 14.9296 11.09ZM16 14.536V17.4643C16 17.5747 16.0895 17.6643 16.2 17.6643C16.2386 17.6643 16.2764 17.6531 16.3088 17.6321L18.5667 16.168C18.6594 16.1079 18.6858 15.9841 18.6257 15.8914C18.6104 15.8678 18.5903 15.8477 18.5668 15.8324L16.3088 14.3682C16.2161 14.3081 16.0923 14.3345 16.0322 14.4271C16.0112 14.4595 16 14.4973 16 14.536Z" fill="#31303D"/>
</svg>
