<svg width="24" height="24" viewBox="0 0 24 24" fill="none" xmlns="http://www.w3.org/2000/svg">
<path fill-rule="evenodd" clip-rule="evenodd" d="M8 7C8.55228 7 9 7.44772 9 8C9 8.55228 8.55228 9 8 9C7.44772 9 7 8.55228 7 8C7 7.44772 7.44772 7 8 7ZM18 13C18.5523 13 19 13.4477 19 14C19 14.5523 18.5523 15 18 15C17.4477 15 17 14.5523 17 14C17 13.4477 17.4477 13 18 13ZM13 13C13.5523 13 14 13.4477 14 14C14 14.5523 13.5523 15 13 15C12.4477 15 12 14.5523 12 14C12 13.4477 12.4477 13 13 13ZM12 7C12.5523 7 13 7.44772 13 8C13 8.55228 12.5523 9 12 9C11.4477 9 11 8.55228 11 8C11 7.44772 11.4477 7 12 7ZM9.48712 16.5434C9.28454 16.5307 9.08134 16.5116 8.87778 16.486L5.76756 17.8623C5.55681 17.952 5.32863 18 5.1 18C4.62552 18 4.1706 17.7988 3.85615 17.4507C3.37266 16.9277 3.26253 16.1586 3.57304 15.5178L4.12929 14.3709C2.77741 13.1326 2 11.4959 2 9.77778C2 5.99229 5.62552 3 10 3C14.2331 3 17.7649 5.80201 17.9887 9.41332C20.3267 10.224 22 12.1454 22 14.4444C22 15.7818 21.4096 17.0528 20.3824 18.0321L20.739 18.7519C21.0276 19.335 20.9249 20.0372 20.4853 20.5026C20.1911 20.8215 19.7787 21 19.35 21C19.1438 21 18.9384 20.9577 18.7357 20.8731L16.3518 19.8403C13.3429 20.1883 10.5747 18.7676 9.48712 16.5434ZM9.00016 14.4845C9.00005 14.4712 9 14.4578 9 14.4444C9 11.3886 11.9562 9 15.5 9C15.6415 9 15.782 9.00381 15.9215 9.01131C15.4593 6.77239 13.0092 5 10 5C6.65439 5 4 7.19078 4 9.77778C4 11.0913 4.70736 12.3745 5.96243 13.2903C6.35316 13.5754 6.48384 14.0993 6.27276 14.5345L5.70634 15.7024L8.32971 14.5414C8.50533 14.4637 8.69961 14.4382 8.88934 14.468C8.9263 14.4738 8.96325 14.4793 9.00016 14.4845ZM17.8615 17.4489L18.5542 16.9541C19.4834 16.2903 20 15.3728 20 14.4444C20 12.5983 18.0219 11 15.5 11C12.9781 11 11 12.5983 11 14.4444C11 16.553 13.4749 18.2641 16.3426 17.8238L16.6275 17.7801L16.892 17.8946L18.4077 18.5514L17.8615 17.4489Z" fill="#31303D"/>
</svg>
