<svg width="24" height="24" viewBox="0 0 24 24" fill="none" xmlns="http://www.w3.org/2000/svg">
<path fill-rule="evenodd" clip-rule="evenodd" d="M19 9C19 9.55228 18.5523 10 18 10C17.4477 10 17 9.55228 17 9C17 7.89543 16.1046 7 15 7C14.4477 7 14 6.55228 14 6C14 5.44772 14.4477 5 15 5C17.2091 5 19 6.79086 19 9ZM22 9C22 9.55228 21.5523 10 21 10C20.4477 10 20 9.55228 20 9C20 6.23858 17.7614 4 15 4C14.4477 4 14 3.55228 14 3C14 2.44772 14.4477 2 15 2C18.866 2 22 5.13401 22 9ZM7.58198 19.6864C7.22791 19.412 7 18.9826 7 18.5C7 17.6716 7.67157 17 8.5 17C9.32843 17 10 17.6716 10 18.5C10 19.0929 9.65605 19.6054 9.15681 19.8489C9.16851 19.849 9.18023 19.849 9.19195 19.849C11.4804 19.849 12.0635 18.5123 11.9762 17.6231C11.881 16.6544 10.3006 15.8232 8.32374 16.0198C6.60675 16.1902 5.08983 16.9376 5.08983 17.9246C5.08983 18.6642 6.10837 19.376 7.58198 19.6864ZM8.12754 14.0518C11.0636 13.7598 13.7246 15.1594 13.9477 17.4301C13.984 17.8 13.9524 18.16 13.8613 18.5046C15.0904 17.5896 15.8667 16.3434 15.8667 15.178C15.8667 14.3639 15.3852 13.7855 14.6299 13.495C13.8583 13.2082 13.4247 12.618 13.7306 11.6708C13.8696 11.2392 13.9044 10.9167 13.871 10.7163C13.6928 10.6903 13.4338 10.6921 13.1229 10.7235C12.842 10.7519 12.5345 10.8024 12.2177 10.8687C12.0327 10.9074 11.8567 10.9489 11.6954 10.9905C11.6484 11.0026 11.6169 11.0109 11.5726 11.023C11.5567 11.0297 11.5371 11.0375 11.5012 11.0519C11.4004 11.0903 11.2963 11.1208 11.1821 11.1399C10.2553 11.2952 9.53739 10.5138 9.79253 9.53641C9.97525 8.81151 9.94171 8.32214 9.82154 8.17382C9.81243 8.16257 9.80341 8.15851 9.72367 8.15673C9.53972 8.15261 9.26364 8.22509 8.92891 8.3863C8.11175 8.77984 7.14744 9.59717 6.26538 10.6849C4.88645 12.3867 4.13333 14.1229 4.13333 15.5223C4.13333 15.6135 4.13709 15.704 4.14449 15.7937C5.06956 14.8623 6.50713 14.2127 8.12754 14.0518ZM18 15.178C18 18.609 14.2267 22 9.73474 22C5.6535 22 2 19.2404 2 15.5223C2 13.5753 2.94538 11.3959 4.60702 9.34517C6.98791 6.40908 9.97209 4.97191 11.4804 6.8347C11.8873 7.33692 12.0648 7.98309 12.0517 8.73032C12.3435 8.67563 12.6305 8.63266 12.908 8.6046C14.2269 8.47128 15.1765 8.63282 15.6793 9.51893C16.0383 10.1516 16.0964 10.9047 15.9171 11.7451C17.1562 12.407 18 13.6065 18 15.178Z" fill="#31303D"/>
</svg>
