<svg width="24" height="24" viewBox="0 0 24 24" fill="none" xmlns="http://www.w3.org/2000/svg">
<path d="M16.4247 18.1821C14.9163 19.3231 13.0372 20 11 20C6.02944 20 2 15.9706 2 11C2 6.02944 6.02944 2 11 2C15.9706 2 20 6.02944 20 11C20 13.0372 19.3231 14.9163 18.1821 16.4247L21.636 19.8787C22.1213 20.364 22.1213 21.1508 21.636 21.636C21.1508 22.1213 20.364 22.1213 19.8787 21.636L16.4247 18.182L16.4247 18.1821ZM11 18C14.866 18 18 14.866 18 11C18 7.13401 14.866 4 11 4C7.13401 4 4 7.13401 4 11C4 14.866 7.13401 18 11 18ZM10 10V8C10 7.44772 10.4477 7 11 7C11.5523 7 12 7.44772 12 8V10H14C14.5523 10 15 10.4477 15 11C15 11.5523 14.5523 12 14 12H12V14C12 14.5523 11.5523 15 11 15C10.4477 15 10 14.5523 10 14V12H8C7.44772 12 7 11.5523 7 11C7 10.4477 7.44772 10 8 10H10Z" fill="#31303D"/>
</svg>
