<svg width="96" height="96" viewBox="0 0 96 96" fill="none" xmlns="http://www.w3.org/2000/svg">
<path d="M28 58H38V68C38 69.9778 37.4135 71.9112 36.3147 73.5557C35.2159 75.2002 33.6541 76.4819 31.8268 77.2388C29.9996 77.9957 27.9889 78.1937 26.0491 77.8079C24.1093 77.422 22.3275 76.4696 20.9289 75.0711C19.5304 73.6725 18.578 71.8907 18.1922 69.9509C17.8063 68.0111 18.0043 66.0004 18.7612 64.1732C19.5181 62.3459 20.7998 60.7841 22.4443 59.6853C24.0888 58.5865 26.0222 58 28 58ZM38 38V58H58V38H38ZM68 58H58V68C58 69.9778 58.5865 71.9112 59.6853 73.5557C60.7841 75.2002 62.3459 76.4819 64.1732 77.2388C66.0004 77.9957 68.0111 78.1937 69.9509 77.8079C71.8907 77.422 73.6725 76.4696 75.0711 75.0711C76.4696 73.6725 77.422 71.8907 77.8079 69.9509C78.1937 68.0111 77.9957 66.0004 77.2388 64.1732C76.4819 62.3459 75.2002 60.7841 73.5557 59.6853C71.9112 58.5865 69.9778 58 68 58ZM78 28C78 25.3478 76.9464 22.8043 75.0711 20.9289C73.1957 19.0536 70.6522 18 68 18C65.3478 18 62.8043 19.0536 60.9289 20.9289C59.0536 22.8043 58 25.3478 58 28V38H68C70.6522 38 73.1957 36.9464 75.0711 35.0711C76.9464 33.1957 78 30.6522 78 28V28ZM28 18C25.3478 18 22.8043 19.0536 20.9289 20.9289C19.0536 22.8043 18 25.3478 18 28C18 30.6522 19.0536 33.1957 20.9289 35.0711C22.8043 36.9464 25.3478 38 28 38H38V28C38 25.3478 36.9464 22.8043 35.0711 20.9289C33.1957 19.0536 30.6522 18 28 18V18Z" fill="url(#paint0_linear)"/>
<path d="M68 55H61V41H68C70.5712 41 73.0846 40.2376 75.2224 38.8091C77.3603 37.3806 79.0265 35.3503 80.0104 32.9749C80.9944 30.5994 81.2518 27.9856 80.7502 25.4638C80.2486 22.9421 79.0105 20.6257 77.1924 18.8076C75.3743 16.9895 73.0579 15.7514 70.5362 15.2498C68.0144 14.7482 65.4006 15.0056 63.0251 15.9896C60.6497 16.9735 58.6194 18.6397 57.1909 20.7776C55.7624 22.9154 55 25.4288 55 28V35H41V28C41 25.4288 40.2376 22.9154 38.8091 20.7776C37.3807 18.6397 35.3503 16.9735 32.9749 15.9896C30.5995 15.0056 27.9856 14.7482 25.4638 15.2498C22.9421 15.7514 20.6257 16.9895 18.8076 18.8076C16.9895 20.6257 15.7514 22.9421 15.2498 25.4638C14.7482 27.9856 15.0056 30.5994 15.9896 32.9749C16.9735 35.3503 18.6398 37.3806 20.7776 38.8091C22.9154 40.2376 25.4288 41 28 41H35V55H28C25.4288 55 22.9154 55.7624 20.7776 57.1909C18.6398 58.6194 16.9735 60.6497 15.9896 63.0251C15.0056 65.4006 14.7482 68.0144 15.2498 70.5362C15.7514 73.0579 16.9895 75.3743 18.8076 77.1924C20.6257 79.0105 22.9421 80.2486 25.4638 80.7502C27.9856 81.2518 30.5995 80.9944 32.9749 80.0104C35.3503 79.0265 37.3807 77.3603 38.8091 75.2224C40.2376 73.0846 41 70.5712 41 68V61H55V68C55 70.5712 55.7624 73.0846 57.1909 75.2224C58.6194 77.3603 60.6497 79.0265 63.0251 80.0104C65.4006 80.9944 68.0144 81.2518 70.5362 80.7502C73.0579 80.2486 75.3743 79.0105 77.1924 77.1924C79.0105 75.3743 80.2486 73.0579 80.7502 70.5362C81.2518 68.0144 80.9944 65.4006 80.0104 63.0251C79.0265 60.6497 77.3603 58.6194 75.2224 57.1909C73.0846 55.7624 70.5712 55 68 55V55ZM61 28C61 26.6155 61.4106 25.2621 62.1797 24.111C62.9489 22.9599 64.0421 22.0627 65.3212 21.5328C66.6003 21.003 68.0078 20.8644 69.3656 21.1345C70.7235 21.4046 71.9708 22.0713 72.9498 23.0503C73.9287 24.0292 74.5954 25.2765 74.8655 26.6344C75.1356 27.9922 74.997 29.3997 74.4672 30.6788C73.9373 31.9579 73.0401 33.0511 71.889 33.8203C70.7379 34.5895 69.3845 35 68 35H61V28ZM35 68C35 69.3845 34.5895 70.7378 33.8203 71.889C33.0511 73.0401 31.9579 73.9373 30.6788 74.4672C29.3997 74.997 27.9922 75.1356 26.6344 74.8655C25.2765 74.5954 24.0292 73.9287 23.0503 72.9497C22.0713 71.9708 21.4046 70.7235 21.1345 69.3656C20.8644 68.0078 21.003 66.6003 21.5328 65.3212C22.0627 64.0421 22.9599 62.9489 24.111 62.1797C25.2622 61.4105 26.6155 61 28 61H35V68ZM35 35H28C26.6155 35 25.2622 34.5895 24.111 33.8203C22.9599 33.0511 22.0627 31.9579 21.5328 30.6788C21.003 29.3997 20.8644 27.9922 21.1345 26.6344C21.4046 25.2765 22.0713 24.0292 23.0503 23.0503C24.0292 22.0713 25.2765 21.4046 26.6344 21.1345C27.9922 20.8644 29.3997 21.003 30.6788 21.5328C31.9579 22.0627 33.0511 22.9599 33.8203 24.111C34.5895 25.2621 35 26.6155 35 28V35ZM55 55H41V41H55V55ZM68 75C66.1435 75 64.363 74.2625 63.0503 72.9497C61.7375 71.637 61 69.8565 61 68V61H68C69.8565 61 71.637 61.7375 72.9498 63.0503C74.2625 64.363 75 66.1435 75 68C75 69.8565 74.2625 71.637 72.9498 72.9497C71.637 74.2625 69.8565 75 68 75Z" fill="url(#paint1_linear)"/>
<defs>
<linearGradient id="paint0_linear" x1="20.93" y1="20.93" x2="75.07" y2="75.07" gradientUnits="userSpaceOnUse">
<stop stop-color="#F2F2F2"/>
<stop offset="0.25" stop-color="#EFEFEF"/>
<stop offset="0.45" stop-color="#E5E5E5"/>
<stop offset="0.64" stop-color="#D4D4D4"/>
<stop offset="0.81" stop-color="#BCBCBC"/>
<stop offset="0.98" stop-color="#9E9E9E"/>
<stop offset="1" stop-color="#999999"/>
</linearGradient>
<linearGradient id="paint1_linear" x1="18.81" y1="18.81" x2="77.19" y2="77.19" gradientUnits="userSpaceOnUse">
<stop stop-color="#666666"/>
<stop offset="1" stop-color="#333333"/>
</linearGradient>
</defs>
</svg>
