<svg width="96" height="96" viewBox="0 0 96 96" fill="none" xmlns="http://www.w3.org/2000/svg">
<path d="M30 61.66C28.4852 61.651 27.0298 61.0693 25.9261 60.0318C24.8224 58.9942 24.1519 57.5776 24.0494 56.0662C23.9469 54.5548 24.4198 53.0606 25.3733 51.8835C26.3268 50.7064 27.6903 49.9335 29.19 49.72L33.44 49.15L34.27 44.93C34.9491 41.5225 36.8709 38.4893 39.662 36.42C42.4531 34.3507 45.9139 33.3932 49.3717 33.7336C52.8294 34.074 56.0371 35.688 58.371 38.2619C60.705 40.8358 61.9984 44.1855 62 47.66V53.66H68C69.0609 53.66 70.0783 54.0814 70.8284 54.8316C71.5786 55.5817 72 56.5991 72 57.66C72 58.7209 71.5786 59.7383 70.8284 60.4884C70.0783 61.2386 69.0609 61.66 68 61.66H30Z" fill="url(#paint0_linear)"/>
<path d="M67.9999 70.66H29.9999C26.3812 70.6562 22.8859 69.3444 20.1583 66.9663C17.4307 64.5882 15.6547 61.3043 15.1578 57.7198C14.6608 54.1354 15.4765 50.4921 17.4543 47.4617C19.4321 44.4313 22.4387 42.2181 25.9199 41.23C27.4078 36.1384 30.6098 31.7175 34.9837 28.7163C39.3575 25.7151 44.6343 24.3179 49.9203 24.7616C55.2063 25.2052 60.1764 27.4623 63.9888 31.1506C67.8013 34.8389 70.2216 39.7316 70.8399 45C73.9378 45.7222 76.6634 47.5552 78.5006 50.152C80.3379 52.7487 81.1593 55.9289 80.8094 59.0906C80.4595 62.2522 78.9625 65.1759 76.6019 67.308C74.2412 69.4401 71.1808 70.6327 67.9999 70.66V70.66ZM47.9999 30.66C44.0652 30.6615 40.2527 32.028 37.2128 34.5263C34.1729 37.0246 32.0938 40.5001 31.3299 44.36L30.9099 46.46L28.7899 46.75C26.5408 47.0702 24.4958 48.2291 23.0656 49.9942C21.6353 51.7594 20.9256 54.0001 21.0787 56.2668C21.2318 58.5336 22.2366 60.6585 23.8912 62.2152C25.5459 63.7719 27.7281 64.6453 29.9999 64.66H67.9999C69.8565 64.66 71.6369 63.9225 72.9497 62.6098C74.2624 61.297 74.9999 59.5165 74.9999 57.66C74.9999 55.8035 74.2624 54.023 72.9497 52.7103C71.6369 51.3975 69.8565 50.66 67.9999 50.66H64.9999V47.66C64.9999 43.1513 63.2089 38.8273 60.0208 35.6392C56.8326 32.4511 52.5086 30.66 47.9999 30.66V30.66Z" fill="url(#paint1_linear)"/>
<defs>
<linearGradient id="paint0_linear" x1="34.43" y1="41.43" x2="62.15" y2="69.16" gradientUnits="userSpaceOnUse">
<stop stop-color="#A5E4F1"/>
<stop offset="0.25" stop-color="#A2E1EF"/>
<stop offset="0.46" stop-color="#98D8E9"/>
<stop offset="0.64" stop-color="#87C8DF"/>
<stop offset="0.82" stop-color="#6FB1D0"/>
<stop offset="0.98" stop-color="#5194BD"/>
<stop offset="1" stop-color="#4D91BB"/>
</linearGradient>
<linearGradient id="paint1_linear" x1="28.0699" y1="35.07" x2="68.52" y2="75.52" gradientUnits="userSpaceOnUse">
<stop stop-color="#666666"/>
<stop offset="1" stop-color="#333333"/>
</linearGradient>
</defs>
</svg>
