<svg width="96" height="96" viewBox="0 0 96 96" fill="none" xmlns="http://www.w3.org/2000/svg">
<path d="M30.0001 61.66C28.4853 61.651 27.03 61.0693 25.9262 60.0318C24.8225 58.9942 24.1521 57.5776 24.0495 56.0662C23.947 54.5548 24.42 53.0606 25.3734 51.8835C26.3269 50.7064 27.6904 49.9335 29.1901 49.72L33.4401 49.15L34.2701 44.93C34.9492 41.5225 36.8711 38.4893 39.6621 36.42C42.4532 34.3507 45.914 33.3932 49.3718 33.7336C52.8295 34.074 56.0372 35.688 58.3711 38.2619C60.7051 40.8358 61.9986 44.1855 62.0001 47.66V53.66H68.0001C69.061 53.66 70.0784 54.0814 70.8285 54.8316C71.5787 55.5817 72.0001 56.5991 72.0001 57.66C72.0001 58.7209 71.5787 59.7383 70.8285 60.4884C70.0784 61.2386 69.061 61.66 68.0001 61.66H30.0001Z" fill="url(#paint0_linear)"/>
<path d="M59.1301 54.89L48.0001 43.76L36.8701 54.89L41.1101 59.13L45.0001 55.24V71H51.0001V55.24L54.8901 59.13L59.1301 54.89Z" fill="url(#paint1_linear)"/>
<path d="M70.8401 45.31C70.2153 40.0438 67.79 35.1553 63.9747 31.4721C60.1593 27.7888 55.1884 25.5372 49.9035 25.0984C44.6186 24.6595 39.3444 26.0604 34.9738 29.0639C30.6032 32.0674 27.4048 36.489 25.9201 41.58C22.4471 42.5748 19.4499 44.7896 17.4791 47.8173C15.5084 50.845 14.6965 54.4822 15.1928 58.0606C15.689 61.6389 17.46 64.918 20.1803 67.2951C22.9006 69.6723 26.3875 70.9878 30.0001 71H38.0001V65H30.0001C27.7282 64.9853 25.546 64.1119 23.8913 62.5552C22.2367 60.9985 21.2319 58.8735 21.0788 56.6068C20.9257 54.3401 21.6354 52.0994 23.0657 50.3342C24.496 48.5691 26.5409 47.4102 28.7901 47.09L30.9101 46.81L31.3301 44.7C32.1567 40.566 34.4899 36.8865 37.8768 34.376C41.2636 31.8655 45.4625 30.703 49.6583 31.1142C53.8541 31.5255 57.7474 33.4811 60.5824 36.6014C63.4174 39.7217 64.9918 43.7841 65.0001 48V51H68.0001C69.8566 51 71.637 51.7375 72.9498 53.0503C74.2626 54.363 75.0001 56.1435 75.0001 58C75.0001 59.8565 74.2626 61.637 72.9498 62.9498C71.637 64.2625 69.8566 65 68.0001 65H58.0001V71H68.0001C71.2036 71.0044 74.2961 69.8258 76.684 67.6903C79.072 65.5547 80.5874 62.6126 80.9394 59.4284C81.2914 56.2443 80.4552 53.0422 78.5914 50.4366C76.7276 47.831 73.9673 46.0054 70.8401 45.31V45.31Z" fill="url(#paint2_linear)"/>
<defs>
<linearGradient id="paint0_linear" x1="34.4301" y1="41.43" x2="62.1501" y2="69.16" gradientUnits="userSpaceOnUse">
<stop stop-color="#C2E085"/>
<stop offset="0.2" stop-color="#BFDF85"/>
<stop offset="0.35" stop-color="#B5DB87"/>
<stop offset="0.5" stop-color="#A4D589"/>
<stop offset="0.63" stop-color="#8CCC8D"/>
<stop offset="0.76" stop-color="#6DC191"/>
<stop offset="0.89" stop-color="#48B396"/>
<stop offset="1" stop-color="#1FA49C"/>
</linearGradient>
<linearGradient id="paint1_linear" x1="40.4401" y1="51.32" x2="55.5601" y2="66.44" gradientUnits="userSpaceOnUse">
<stop stop-color="#666666"/>
<stop offset="1" stop-color="#333333"/>
</linearGradient>
<linearGradient id="paint2_linear" x1="1866.76" y1="1653.65" x2="3611.91" y2="4156.78" gradientUnits="userSpaceOnUse">
<stop stop-color="#666666"/>
<stop offset="1" stop-color="#333333"/>
</linearGradient>
</defs>
</svg>
