<svg width="96" height="96" viewBox="0 0 96 96" fill="none" xmlns="http://www.w3.org/2000/svg">
<path d="M72 72V24L24 24V72H72Z" fill="url(#paint0_linear)"/>
<path d="M15 15V81H81V15H15ZM75 75H21V21H75V75Z" fill="url(#paint1_linear)"/>
<path d="M53.6 39.8H63.6V35.8H69V29.8H63.6V25.8H53.6V29.8H27V35.8H53.6V39.8Z" fill="url(#paint2_linear)"/>
<path d="M32.4 55H42.4V51H69V45H42.4V41H32.4V45H27V51H32.4V55Z" fill="url(#paint3_linear)"/>
<path d="M53.6 70.2H63.6V66.2H69V60.2H63.6V56.2H53.6V60.2H27V66.2H53.6V70.2Z" fill="url(#paint4_linear)"/>
<defs>
<linearGradient id="paint0_linear" x1="24" y1="24" x2="72" y2="72" gradientUnits="userSpaceOnUse">
<stop stop-color="#C2E085"/>
<stop offset="0.2" stop-color="#BFDF85"/>
<stop offset="0.35" stop-color="#B5DB87"/>
<stop offset="0.5" stop-color="#A4D589"/>
<stop offset="0.63" stop-color="#8CCC8D"/>
<stop offset="0.76" stop-color="#6DC191"/>
<stop offset="0.89" stop-color="#48B396"/>
<stop offset="1" stop-color="#1FA49C"/>
</linearGradient>
<linearGradient id="paint1_linear" x1="15" y1="15" x2="81" y2="81" gradientUnits="userSpaceOnUse">
<stop stop-color="#666666"/>
<stop offset="1" stop-color="#333333"/>
</linearGradient>
<linearGradient id="paint2_linear" x1="1539" y1="317" x2="1740.6" y2="921.8" gradientUnits="userSpaceOnUse">
<stop stop-color="#666666"/>
<stop offset="1" stop-color="#333333"/>
</linearGradient>
<linearGradient id="paint3_linear" x1="1539" y1="545" x2="1740.6" y2="1149.8" gradientUnits="userSpaceOnUse">
<stop stop-color="#666666"/>
<stop offset="1" stop-color="#333333"/>
</linearGradient>
<linearGradient id="paint4_linear" x1="1539" y1="773" x2="1740.6" y2="1377.8" gradientUnits="userSpaceOnUse">
<stop stop-color="#666666"/>
<stop offset="1" stop-color="#333333"/>
</linearGradient>
</defs>
</svg>
