<svg width="96" height="96" viewBox="0 0 96 96" fill="none" xmlns="http://www.w3.org/2000/svg">
<path d="M62 72V24H34V72H62Z" fill="url(#paint0_linear)"/>
<path d="M71 81H25V15H71V81ZM31 75H65V21H31V75Z" fill="url(#paint1_linear)"/>
<path d="M50.83 62.83C50.2704 63.389 49.5577 63.7695 48.7819 63.9235C48.0061 64.0774 47.202 63.998 46.4714 63.6951C45.7407 63.3922 45.1163 62.8795 44.677 62.2218C44.2376 61.5641 44.0031 60.7909 44.0031 60C44.0031 59.2091 44.2376 58.4359 44.677 57.7782C45.1163 57.1205 45.7407 56.6078 46.4714 56.3049C47.202 56.002 48.0061 55.9226 48.7819 56.0765C49.5577 56.2305 50.2704 56.611 50.83 57.17C51.2019 57.5415 51.4969 57.9826 51.6982 58.4682C51.8995 58.9538 52.0031 59.4743 52.0031 60C52.0031 60.5257 51.8995 61.0462 51.6982 61.5318C51.4969 62.0174 51.2019 62.4585 50.83 62.83ZM58 28H38V34H58V28ZM58 39H38V45H58V39Z" fill="url(#paint2_linear)"/>
<defs>
<linearGradient id="paint0_linear" x1="29" y1="29" x2="67" y2="67" gradientUnits="userSpaceOnUse">
<stop stop-color="#A5E4F1"/>
<stop offset="0.25" stop-color="#A2E1EF"/>
<stop offset="0.46" stop-color="#98D8E9"/>
<stop offset="0.64" stop-color="#87C8DF"/>
<stop offset="0.82" stop-color="#6FB1D0"/>
<stop offset="0.98" stop-color="#5194BD"/>
<stop offset="1" stop-color="#4D91BB"/>
</linearGradient>
<linearGradient id="paint1_linear" x1="25" y1="48" x2="71" y2="48" gradientUnits="userSpaceOnUse">
<stop stop-color="#666666"/>
<stop offset="1" stop-color="#333333"/>
</linearGradient>
<linearGradient id="paint2_linear" x1="798" y1="1684" x2="1198" y2="1684" gradientUnits="userSpaceOnUse">
<stop stop-color="#666666"/>
<stop offset="1" stop-color="#333333"/>
</linearGradient>
</defs>
</svg>
