<svg width="96" height="96" viewBox="0 0 96 96" fill="none" xmlns="http://www.w3.org/2000/svg">
<path d="M48 72C61.2548 72 72 61.2548 72 48C72 34.7452 61.2548 24 48 24C34.7452 24 24 34.7452 24 48C24 61.2548 34.7452 72 48 72Z" fill="url(#paint0_linear)"/>
<path d="M60 31.76L48 43.76L36 31.76L31.76 36L43.76 48L31.76 60L36 64.24L48 52.24L60 64.24L64.24 60L52.24 48L64.24 36L60 31.76Z" fill="url(#paint1_linear)"/>
<path d="M48 13C41.0777 13 34.3108 15.0527 28.5551 18.8986C22.7993 22.7444 18.3133 28.2107 15.6642 34.6061C13.0152 41.0015 12.322 48.0388 13.6725 54.8282C15.023 61.6175 18.3564 67.8539 23.2513 72.7487C28.1461 77.6436 34.3825 80.977 41.1719 82.3275C47.9612 83.678 54.9985 82.9849 61.3939 80.3358C67.7894 77.6867 73.2556 73.2007 77.1014 67.445C80.9473 61.6892 83 54.9223 83 48C83 38.7174 79.3125 29.815 72.7488 23.2513C66.185 16.6875 57.2826 13 48 13V13ZM48 77C42.2644 77 36.6575 75.2992 31.8885 72.1126C27.1195 68.9261 23.4025 64.3969 21.2075 59.0978C19.0126 53.7988 18.4383 47.9678 19.5572 42.3424C20.6762 36.7169 23.4382 31.5496 27.4939 27.4939C31.5496 23.4382 36.7169 20.6762 42.3424 19.5572C47.9678 18.4383 53.7988 19.0126 59.0978 21.2075C64.3969 23.4024 68.9261 27.1194 72.1126 31.8885C75.2992 36.6575 77 42.2643 77 48C77 55.6913 73.9447 63.0675 68.5061 68.5061C63.0676 73.9447 55.6913 77 48 77V77Z" fill="url(#paint2_linear)"/>
<defs>
<linearGradient id="paint0_linear" x1="31.04" y1="31.04" x2="64.96" y2="64.96" gradientUnits="userSpaceOnUse">
<stop stop-color="#E88F8D"/>
<stop offset="0.22" stop-color="#E58D8C"/>
<stop offset="0.39" stop-color="#DB878A"/>
<stop offset="0.55" stop-color="#CA7D87"/>
<stop offset="0.7" stop-color="#B26F82"/>
<stop offset="0.84" stop-color="#935C7B"/>
<stop offset="0.98" stop-color="#6E4674"/>
<stop offset="1" stop-color="#674272"/>
</linearGradient>
<linearGradient id="paint1_linear" x1="33.88" y1="33.88" x2="62.12" y2="62.12" gradientUnits="userSpaceOnUse">
<stop stop-color="#666666"/>
<stop offset="1" stop-color="#333333"/>
</linearGradient>
<linearGradient id="paint2_linear" x1="1641.2" y1="1641.2" x2="5104.8" y2="5104.8" gradientUnits="userSpaceOnUse">
<stop stop-color="#666666"/>
<stop offset="1" stop-color="#333333"/>
</linearGradient>
</defs>
</svg>
