<svg width="96" height="96" viewBox="0 0 96 96" fill="none" xmlns="http://www.w3.org/2000/svg">
<path d="M48 76C63.464 76 76 63.464 76 48C76 32.536 63.464 20 48 20C32.536 20 20 32.536 20 48C20 63.464 32.536 76 48 76Z" fill="url(#paint0_linear)"/>
<path d="M33.14 70.76V20H27.14V70.76L18.12 61.74L13.88 65.98L30.14 82.24L46.41 65.98L42.16 61.74L33.14 70.76Z" fill="url(#paint1_linear)"/>
<path d="M82.12 29.95L65.86 13.69L49.59 29.95L53.84 34.19L62.86 25.17V75.93H68.86V25.17L77.88 34.19L82.12 29.95Z" fill="url(#paint2_linear)"/>
<defs>
<linearGradient id="paint0_linear" x1="28.21" y1="28.21" x2="67.79" y2="67.79" gradientUnits="userSpaceOnUse">
<stop stop-color="#A5E4F1"/>
<stop offset="0.25" stop-color="#A2E1EF"/>
<stop offset="0.46" stop-color="#98D8E9"/>
<stop offset="0.64" stop-color="#87C8DF"/>
<stop offset="0.82" stop-color="#6FB1D0"/>
<stop offset="0.98" stop-color="#5194BD"/>
<stop offset="1" stop-color="#4D91BB"/>
</linearGradient>
<linearGradient id="paint1_linear" x1="13.83" y1="33.31" x2="46.45" y2="65.93" gradientUnits="userSpaceOnUse">
<stop stop-color="#666666"/>
<stop offset="1" stop-color="#333333"/>
</linearGradient>
<linearGradient id="paint2_linear" x1="1661.45" y1="1880.89" x2="3328.36" y2="2752.11" gradientUnits="userSpaceOnUse">
<stop stop-color="#666666"/>
<stop offset="1" stop-color="#333333"/>
</linearGradient>
</defs>
</svg>
