<svg width="96" height="96" viewBox="0 0 96 96" fill="none" xmlns="http://www.w3.org/2000/svg">
<path d="M48 76C63.464 76 76 63.464 76 48C76 32.536 63.464 20 48 20C32.536 20 20 32.536 20 48C20 63.464 32.536 76 48 76Z" fill="url(#paint0_linear)"/>
<path d="M42.16 61.74L46.41 66L30.14 82.24L13.88 66L18.12 61.76L27.12 70.76V20H33.12V70.76L42.16 61.74ZM82.12 30L65.86 13.69L49.59 30L53.84 34.24L62.84 25.24V75.93H68.84V25.17L77.84 34.17L82.12 30Z" fill="url(#paint1_linear)"/>
<path d="M22.1223 17.8771L17.8796 22.1197L73.8825 78.1226L78.1251 73.8799L22.1223 17.8771Z" fill="url(#paint2_linear)"/>
<defs>
<linearGradient id="paint0_linear" x1="28.21" y1="28.21" x2="67.79" y2="67.79" gradientUnits="userSpaceOnUse">
<stop stop-color="#FAFAFA"/>
<stop offset="0.29" stop-color="#F7F7F7"/>
<stop offset="0.53" stop-color="#EDEDED"/>
<stop offset="0.75" stop-color="#DCDCDC"/>
<stop offset="0.95" stop-color="#C4C4C4"/>
<stop offset="1" stop-color="#BDBDBD"/>
</linearGradient>
<linearGradient id="paint1_linear" x1="23.59" y1="23.55" x2="72.41" y2="72.38" gradientUnits="userSpaceOnUse">
<stop stop-color="#CCCCCC"/>
<stop offset="1" stop-color="#999999"/>
</linearGradient>
<linearGradient id="paint2_linear" x1="20.004" y1="20.0017" x2="76.004" y2="76.0017" gradientUnits="userSpaceOnUse">
<stop stop-color="#E88F8D"/>
<stop offset="0.22" stop-color="#E58D8C"/>
<stop offset="0.39" stop-color="#DB878A"/>
<stop offset="0.55" stop-color="#CA7D87"/>
<stop offset="0.7" stop-color="#B26F82"/>
<stop offset="0.84" stop-color="#935C7B"/>
<stop offset="0.98" stop-color="#6E4674"/>
<stop offset="1" stop-color="#674272"/>
</linearGradient>
</defs>
</svg>
