<svg width="96" height="96" viewBox="0 0 96 96" fill="none" xmlns="http://www.w3.org/2000/svg">
<path d="M48 85C56.2843 85 63 78.2843 63 70C63 61.7157 56.2843 55 48 55C39.7157 55 33 61.7157 33 70C33 78.2843 39.7157 85 48 85Z" fill="url(#paint0_linear)"/>
<path d="M75 65V82H21V65H27V76H69V65H75ZM74.19 45L70 40.77L51 59.72V17H45V59.72L26.05 40.77L21.81 45L48 71.21L74.19 45Z" fill="url(#paint1_linear)"/>
<defs>
<linearGradient id="paint0_linear" x1="37.39" y1="59.39" x2="58.61" y2="80.61" gradientUnits="userSpaceOnUse">
<stop stop-color="#A5E4F1"/>
<stop offset="0.25" stop-color="#A2E1EF"/>
<stop offset="0.46" stop-color="#98D8E9"/>
<stop offset="0.64" stop-color="#87C8DF"/>
<stop offset="0.82" stop-color="#6FB1D0"/>
<stop offset="0.98" stop-color="#5194BD"/>
<stop offset="1" stop-color="#4D91BB"/>
</linearGradient>
<linearGradient id="paint1_linear" x1="24.23" y1="37.73" x2="71.77" y2="85.27" gradientUnits="userSpaceOnUse">
<stop stop-color="#666666"/>
<stop offset="1" stop-color="#333333"/>
</linearGradient>
</defs>
</svg>
