<svg width="96" height="96" viewBox="0 0 96 96" fill="none" xmlns="http://www.w3.org/2000/svg">
<path d="M28 28L38 46V78H58V46L68 28V18H28V28Z" fill="url(#paint0_linear)"/>
<path d="M25 15V28.78L35 46.78V81H61V46.78L71 28.78V15H25ZM65 21V25H31V21H65ZM55 45.22V75H41V45.22L33.1 31H62.9L55 45.22Z" fill="url(#paint1_linear)"/>
<path d="M51 48H45V56H51V48Z" fill="url(#paint2_linear)"/>
<defs>
<linearGradient id="paint0_linear" x1="25.5" y1="20.5" x2="70.5" y2="65.5" gradientUnits="userSpaceOnUse">
<stop stop-color="#A5E4F1"/>
<stop offset="0.25" stop-color="#A2E1EF"/>
<stop offset="0.46" stop-color="#98D8E9"/>
<stop offset="0.64" stop-color="#87C8DF"/>
<stop offset="0.82" stop-color="#6FB1D0"/>
<stop offset="0.98" stop-color="#5194BD"/>
<stop offset="1" stop-color="#4D91BB"/>
</linearGradient>
<linearGradient id="paint1_linear" x1="22.5" y1="17.5" x2="73.5" y2="68.5" gradientUnits="userSpaceOnUse">
<stop stop-color="#666666"/>
<stop offset="1" stop-color="#333333"/>
</linearGradient>
<linearGradient id="paint2_linear" x1="312" y1="436" x2="365.76" y2="476.32" gradientUnits="userSpaceOnUse">
<stop stop-color="#666666"/>
<stop offset="1" stop-color="#333333"/>
</linearGradient>
</defs>
</svg>
