<svg width="96" height="96" viewBox="0 0 96 96" fill="none" xmlns="http://www.w3.org/2000/svg">
<path d="M48 24C43.2532 24 38.6131 25.4076 34.6663 28.0447C30.7195 30.6819 27.6434 34.4302 25.8269 38.8156C24.0104 43.201 23.5351 48.0266 24.4611 52.6822C25.3872 57.3377 27.673 61.6141 31.0294 64.9706C34.3859 68.327 38.6623 70.6128 43.3178 71.5388C47.9734 72.4649 52.799 71.9896 57.1844 70.1731C61.5698 68.3566 65.3181 65.2805 67.9553 61.3337C70.5924 57.3869 72 52.7468 72 48C72 41.6348 69.4714 35.5303 64.9706 31.0294C60.4697 26.5286 54.3652 24 48 24ZM48 60C45.6266 60 43.3065 59.2962 41.3332 57.9776C39.3598 56.6591 37.8217 54.7849 36.9134 52.5922C36.0052 50.3995 35.7675 47.9867 36.2306 45.6589C36.6936 43.3311 37.8365 41.1929 39.5147 39.5147C41.1929 37.8365 43.3311 36.6936 45.6589 36.2306C47.9867 35.7676 50.3995 36.0052 52.5922 36.9134C54.7849 37.8217 56.6591 39.3598 57.9776 41.3332C59.2962 43.3065 60 45.6266 60 48C60 51.1826 58.7357 54.2348 56.4853 56.4853C54.2348 58.7357 51.1826 60 48 60Z" fill="url(#paint0_linear)"/>
<path d="M48 13C41.0777 13 34.3108 15.0527 28.555 18.8986C22.7993 22.7444 18.3133 28.2107 15.6642 34.6061C13.0151 41.0015 12.322 48.0388 13.6725 54.8282C15.023 61.6175 18.3564 67.8539 23.2513 72.7487C28.1461 77.6436 34.3825 80.977 41.1718 82.3275C47.9612 83.678 54.9985 82.9849 61.3939 80.3358C67.7893 77.6867 73.2556 73.2007 77.1014 67.445C80.9473 61.6892 83 54.9223 83 48C83 38.7174 79.3125 29.815 72.7487 23.2513C66.185 16.6875 57.2826 13 48 13V13ZM70.51 66.26L29.74 25.49C34.8975 21.2881 41.3475 18.9957 48 19C72.4 19 85.82 47.43 70.51 66.26ZM25.51 29.74L66.26 70.51C61.1025 74.7119 54.6525 77.0043 48 77C23.6 77 10.18 48.57 25.49 29.74H25.51Z" fill="url(#paint1_linear)"/>
<defs>
<linearGradient id="paint0_linear" x1="31.04" y1="31.04" x2="64.96" y2="64.96" gradientUnits="userSpaceOnUse">
<stop stop-color="#E88F8D"/>
<stop offset="0.22" stop-color="#E58D8C"/>
<stop offset="0.39" stop-color="#DB878A"/>
<stop offset="0.55" stop-color="#CA7D87"/>
<stop offset="0.7" stop-color="#B26F82"/>
<stop offset="0.84" stop-color="#935C7B"/>
<stop offset="0.98" stop-color="#6E4674"/>
<stop offset="1" stop-color="#674272"/>
</linearGradient>
<linearGradient id="paint1_linear" x1="23.26" y1="23.26" x2="72.74" y2="72.74" gradientUnits="userSpaceOnUse">
<stop stop-color="#666666"/>
<stop offset="1" stop-color="#333333"/>
</linearGradient>
</defs>
</svg>
