<svg width="96" height="96" viewBox="0 0 96 96" fill="none" xmlns="http://www.w3.org/2000/svg">
<path d="M44 62.91C42.729 62.5681 41.5085 62.0604 40.37 61.4L36.73 59.31L34.6 55.67C33.9363 54.5189 33.4286 53.2848 33.09 52L32 48L33.09 44C33.4319 42.729 33.9396 41.5085 34.6 40.37L36.69 36.73L40.33 34.64C41.479 33.9625 42.7132 33.4412 44 33.09L48 32L52 33.09C53.271 33.4319 54.4915 33.9396 55.63 34.6L59.27 36.69L61.36 40.33C62.0375 41.479 62.5588 42.7132 62.91 44L64 48L62.91 52C62.5681 53.271 62.0604 54.4915 61.4 55.63L59.31 59.27L55.67 61.4C54.5189 62.0637 53.2848 62.5714 52 62.91L48 64L44 62.91Z" fill="url(#paint0_linear)"/>
<path d="M48 55C51.866 55 55 51.866 55 48C55 44.134 51.866 41 48 41C44.134 41 41 44.134 41 48C41 51.866 44.134 55 48 55Z" fill="white"/>
<path d="M54.46 81H41.54L39.65 71.57C38.8292 71.2805 38.0247 70.9466 37.24 70.57L29.24 75.91L20.1 66.77L25.44 58.77C25.0634 57.9853 24.7295 57.1808 24.44 56.36L15 54.46V41.54L24.43 39.65C24.7195 38.8292 25.0534 38.0247 25.43 37.24L20.09 29.24L29.22 20.11L37.22 25.45C38.0047 25.0734 38.8092 24.7395 39.63 24.45L41.54 15H54.46L56.35 24.43C57.1708 24.7195 57.9753 25.0534 58.76 25.43L66.76 20.09L75.89 29.22L70.55 37.22C70.9266 38.0047 71.2605 38.8092 71.55 39.63L81 41.54V54.46L71.57 56.35C71.2805 57.1708 70.9466 57.9753 70.57 58.76L75.91 66.76L66.77 75.9L58.77 70.56C57.9853 70.9366 57.1808 71.2705 56.36 71.56L54.46 81ZM46.46 75H49.54L51.18 66.82C53.9899 66.2385 56.664 65.1289 59.06 63.55L66 68.18L68.18 66L63.55 59.06C65.1339 56.6666 66.2439 53.9916 66.82 51.18L75 49.54V46.46L66.82 44.82C66.2385 42.0101 65.1289 39.336 63.55 36.94L68.18 30L66 27.82L59.06 32.45C56.6666 30.8661 53.9916 29.7561 51.18 29.18L49.54 21H46.46L44.82 29.18C42.0101 29.7615 39.336 30.8711 36.94 32.45L30 27.82L27.82 30L32.45 36.94C30.8661 39.3334 29.7561 42.0084 29.18 44.82L21 46.46V49.54L29.18 51.18C29.7615 53.9899 30.8711 56.664 32.45 59.06L27.82 66L30 68.18L36.94 63.55C39.3334 65.1339 42.0084 66.2439 44.82 66.82L46.46 75Z" fill="url(#paint1_linear)"/>
<defs>
<linearGradient id="paint0_linear" x1="36.69" y1="36.69" x2="59.31" y2="59.31" gradientUnits="userSpaceOnUse">
<stop stop-color="#A5E4F1"/>
<stop offset="0.25" stop-color="#A2E1EF"/>
<stop offset="0.46" stop-color="#98D8E9"/>
<stop offset="0.64" stop-color="#87C8DF"/>
<stop offset="0.82" stop-color="#6FB1D0"/>
<stop offset="0.98" stop-color="#5194BD"/>
<stop offset="1" stop-color="#4D91BB"/>
</linearGradient>
<linearGradient id="paint1_linear" x1="24.67" y1="24.67" x2="71.33" y2="71.33" gradientUnits="userSpaceOnUse">
<stop stop-color="#666666"/>
<stop offset="1" stop-color="#333333"/>
</linearGradient>
</defs>
</svg>
