<svg width="96" height="96" viewBox="0 0 96 96" fill="none" xmlns="http://www.w3.org/2000/svg">
<path d="M28 48H18V68H28V48Z" fill="url(#paint0_linear)"/>
<path d="M78 48H68V68H78V48Z" fill="url(#paint1_linear)"/>
<path d="M81 48C81 39.2479 77.5232 30.8542 71.3345 24.6655C65.1458 18.4768 56.7521 15 48 15C39.2479 15 30.8542 18.4768 24.6655 24.6655C18.4768 30.8542 15 39.2479 15 48V71H31V45H21.17C21.9136 38.4047 25.0604 32.3144 30.0094 27.8921C34.9584 23.4697 41.363 21.0251 48 21.0251C54.637 21.0251 61.0416 23.4697 65.9906 27.8921C70.9396 32.3144 74.0864 38.4047 74.83 45H65V71H70V75H45V81H76V71H81V48ZM25 51V65H21V51H25ZM71 51H75V65H71V51Z" fill="url(#paint2_linear)"/>
<defs>
<linearGradient id="paint0_linear" x1="15.5" y1="50.5" x2="30.5" y2="65.5" gradientUnits="userSpaceOnUse">
<stop stop-color="#E88F8D"/>
<stop offset="0.22" stop-color="#E58D8C"/>
<stop offset="0.39" stop-color="#DB878A"/>
<stop offset="0.55" stop-color="#CA7D87"/>
<stop offset="0.7" stop-color="#B26F82"/>
<stop offset="0.84" stop-color="#935C7B"/>
<stop offset="0.98" stop-color="#6E4674"/>
<stop offset="1" stop-color="#674272"/>
</linearGradient>
<linearGradient id="paint1_linear" x1="723" y1="48" x2="1244.97" y2="1187.63" gradientUnits="userSpaceOnUse">
<stop stop-color="#E88F8D"/>
<stop offset="0.22" stop-color="#E58D8C"/>
<stop offset="0.39" stop-color="#DB878A"/>
<stop offset="0.55" stop-color="#CA7D87"/>
<stop offset="0.7" stop-color="#B26F82"/>
<stop offset="0.84" stop-color="#935C7B"/>
<stop offset="0.98" stop-color="#6E4674"/>
<stop offset="1" stop-color="#674272"/>
</linearGradient>
<linearGradient id="paint2_linear" x1="15" y1="48" x2="81" y2="48" gradientUnits="userSpaceOnUse">
<stop stop-color="#666666"/>
<stop offset="1" stop-color="#333333"/>
</linearGradient>
</defs>
</svg>
