<svg width="96" height="96" viewBox="0 0 96 96" fill="none" xmlns="http://www.w3.org/2000/svg">
<path d="M28.8 44.92C27.0044 43.1245 25.9957 40.6892 25.9957 38.15C25.9957 35.6108 27.0044 33.1755 28.8 31.38C30.5955 29.5845 33.0307 28.5758 35.57 28.5758C38.1092 28.5758 40.5444 29.5845 42.34 31.38L48 37L53.66 31.35C55.4594 29.5545 57.8985 28.5473 60.4406 28.5502C62.9826 28.553 65.4194 29.5655 67.215 31.365C69.0105 33.1645 70.0176 35.6035 70.0148 38.1456C70.012 40.6877 68.9994 43.1245 67.2 44.92L48 64.11L28.8 44.92Z" fill="url(#paint0_linear)"/>
<path d="M47.9999 79.67L20.9999 52.67C17.3051 48.9838 15.1497 44.0309 14.9703 38.8147C14.7909 33.5986 16.6011 28.5093 20.034 24.578C23.4669 20.6467 28.2659 18.1673 33.4586 17.6422C38.6513 17.1171 43.8495 18.5855 47.9999 21.75C52.1493 18.5505 57.3633 17.055 62.5778 17.5688C67.7922 18.0826 72.6141 20.5669 76.0592 24.5148C79.5043 28.4626 81.313 33.5764 81.1162 38.8124C80.9193 44.0484 78.7318 49.012 74.9999 52.69L47.9999 79.67ZM25.2699 27.84C23.9151 29.1924 22.8402 30.7986 22.1068 32.5669C21.3734 34.3352 20.9959 36.2307 20.9959 38.145C20.9959 40.0593 21.3734 41.9548 22.1068 43.7231C22.8402 45.4913 23.9151 47.0976 25.2699 48.45L47.9999 71.18L70.7299 48.45C73.463 45.7169 74.9984 42.0101 74.9984 38.145C74.9984 34.2799 73.463 30.5731 70.7299 27.84C67.9969 25.1069 64.2901 23.5715 60.4249 23.5715C56.5598 23.5715 52.853 25.1069 50.1199 27.84L47.9999 30L45.8799 27.88C43.1513 25.1432 39.4478 23.6017 35.5832 23.5942C31.7186 23.5867 28.0091 25.1138 25.2699 27.84V27.84Z" fill="url(#paint1_linear)"/>
<defs>
<linearGradient id="paint0_linear" x1="35.02" y1="25.16" x2="60.98" y2="51.13" gradientUnits="userSpaceOnUse">
<stop stop-color="#E88F8D"/>
<stop offset="0.22" stop-color="#E58D8C"/>
<stop offset="0.39" stop-color="#DB878A"/>
<stop offset="0.55" stop-color="#CA7D87"/>
<stop offset="0.7" stop-color="#B26F82"/>
<stop offset="0.84" stop-color="#935C7B"/>
<stop offset="0.98" stop-color="#6E4674"/>
<stop offset="1" stop-color="#674272"/>
</linearGradient>
<linearGradient id="paint1_linear" x1="27.2399" y1="17.39" x2="68.7599" y2="58.91" gradientUnits="userSpaceOnUse">
<stop stop-color="#666666"/>
<stop offset="1" stop-color="#333333"/>
</linearGradient>
</defs>
</svg>
