<svg width="96" height="96" viewBox="0 0 96 96" fill="none" xmlns="http://www.w3.org/2000/svg">
<path d="M48.11 29.91C41.8949 29.9086 35.7991 31.6158 30.4888 34.845C25.1786 38.0743 20.8582 42.7012 18 48.22C20.9207 53.6591 25.2705 58.1979 30.5804 61.3472C35.8904 64.4966 41.9592 66.137 48.1327 66.0917C54.3062 66.0465 60.3502 64.3172 65.6134 61.0903C70.8766 57.8634 75.1594 53.2613 78 47.78C75.1001 42.3763 70.7887 37.8605 65.525 34.7135C60.2614 31.5666 54.2426 29.9065 48.11 29.91V29.91ZM53.66 53.66C52.5408 54.7779 51.1153 55.539 49.5637 55.8469C48.0121 56.1549 46.4041 55.9959 44.9428 55.3902C43.4815 54.7844 42.2326 53.759 41.3539 52.4436C40.4753 51.1282 40.0063 49.5819 40.0063 48C40.0063 46.4181 40.4753 44.8718 41.3539 43.5564C42.2326 42.241 43.4815 41.2156 44.9428 40.6098C46.4041 40.004 48.0121 39.8451 49.5637 40.1531C51.1153 40.461 52.5408 41.2221 53.66 42.34C54.4038 43.083 54.9939 43.9653 55.3965 44.9365C55.7991 45.9077 56.0063 46.9487 56.0063 48C56.0063 49.0513 55.7991 50.0923 55.3965 51.0635C54.9939 52.0347 54.4038 52.917 53.66 53.66V53.66Z" fill="url(#paint0_linear)"/>
<path d="M14.61 48.24C29.36 19.85 66.29 19.69 81.39 47.76C66.64 76.15 29.71 76.31 14.61 48.24ZM21.44 48.19C33.56 68.19 62.71 68.03 74.56 47.81C62.44 27.82 33.29 28 21.44 48.19V48.19Z" fill="url(#paint1_linear)"/>
<path d="M48 59C45.4552 58.9992 42.9893 58.116 41.0226 56.5009C39.0559 54.8858 37.7101 52.6388 37.2144 50.1427C36.7187 47.6466 37.1038 45.0558 38.3041 42.8118C39.5044 40.5678 41.4456 38.8093 43.797 37.8361C46.1485 36.8629 48.7646 36.7351 51.1997 37.4745C53.6347 38.2139 55.7381 39.7748 57.1514 41.8911C58.5647 44.0074 59.2005 46.5483 58.9504 49.0809C58.7004 51.6134 57.5799 53.9809 55.78 55.78C54.7609 56.8049 53.5484 57.6173 52.2129 58.17C50.8774 58.7228 49.4454 59.0049 48 59V59ZM48 43C47.0111 43 46.0444 43.2932 45.2222 43.8427C44.3999 44.3921 43.7591 45.173 43.3806 46.0866C43.0022 47.0002 42.9032 48.0056 43.0961 48.9755C43.289 49.9454 43.7652 50.8363 44.4645 51.5355C45.1638 52.2348 46.0547 52.711 47.0246 52.9039C47.9945 53.0969 48.9998 52.9978 49.9134 52.6194C50.8271 52.241 51.608 51.6001 52.1574 50.7779C52.7068 49.9556 53 48.9889 53 48C53 46.6739 52.4732 45.4022 51.5356 44.4645C50.5979 43.5268 49.3261 43 48 43V43Z" fill="url(#paint2_linear)"/>
<path d="M22.1223 17.8771L17.8796 22.1197L73.8825 78.1226L78.1251 73.8799L22.1223 17.8771Z" fill="url(#paint3_linear)"/>
<defs>
<linearGradient id="paint0_linear" x1="31.99" y1="31.99" x2="64.01" y2="64.01" gradientUnits="userSpaceOnUse">
<stop stop-color="#FAFAFA"/>
<stop offset="0.29" stop-color="#F7F7F7"/>
<stop offset="0.53" stop-color="#EDEDED"/>
<stop offset="0.75" stop-color="#DCDCDC"/>
<stop offset="0.95" stop-color="#C4C4C4"/>
<stop offset="1" stop-color="#BDBDBD"/>
</linearGradient>
<linearGradient id="paint1_linear" x1="29.98" y1="29.98" x2="66.02" y2="66.02" gradientUnits="userSpaceOnUse">
<stop stop-color="#CCCCCC"/>
<stop offset="1" stop-color="#999999"/>
</linearGradient>
<linearGradient id="paint2_linear" x1="921.845" y1="921.843" x2="1264.17" y2="1264.16" gradientUnits="userSpaceOnUse">
<stop stop-color="#CCCCCC"/>
<stop offset="1" stop-color="#999999"/>
</linearGradient>
<linearGradient id="paint3_linear" x1="20.004" y1="20.0017" x2="76.004" y2="76.0017" gradientUnits="userSpaceOnUse">
<stop stop-color="#E88F8D"/>
<stop offset="0.22" stop-color="#E58D8C"/>
<stop offset="0.39" stop-color="#DB878A"/>
<stop offset="0.55" stop-color="#CA7D87"/>
<stop offset="0.7" stop-color="#B26F82"/>
<stop offset="0.84" stop-color="#935C7B"/>
<stop offset="0.98" stop-color="#6E4674"/>
<stop offset="1" stop-color="#674272"/>
</linearGradient>
</defs>
</svg>
