<svg width="96" height="96" viewBox="0 0 96 96" fill="none" xmlns="http://www.w3.org/2000/svg">
<path d="M32.39 73.61L48 58L63.61 73.61C69.1978 70.2053 73.5192 65.0671 75.9156 58.9784C78.312 52.8897 78.6521 46.1844 76.884 39.8845C75.1158 33.5846 71.3365 28.0355 66.1219 24.083C60.9072 20.1304 54.5433 17.9911 48 17.9911C41.4567 17.9911 35.0928 20.1304 29.8782 24.083C24.6635 28.0355 20.8842 33.5846 19.116 39.8845C17.3479 46.1844 17.688 52.8897 20.0844 58.9784C22.4809 65.0671 26.8022 70.2053 32.39 73.61V73.61Z" fill="url(#paint0_linear)"/>
<path d="M52.24 52.24C51.4012 53.0799 50.3321 53.6521 49.168 53.8842C48.0039 54.1163 46.7972 53.9979 45.7004 53.544C44.6036 53.0901 43.6661 52.3211 43.0064 51.3342C42.3468 50.3473 41.9947 49.187 41.9947 48C41.9947 46.813 42.3468 45.6527 43.0064 44.6658C43.6661 43.6789 44.6036 42.9099 45.7004 42.456C46.7972 42.0021 48.0039 41.8837 49.168 42.1158C50.3321 42.348 51.4012 42.9201 52.24 43.76C53.3636 44.885 53.9947 46.41 53.9947 48C53.9947 49.59 53.3636 51.115 52.24 52.24V52.24ZM62.14 33.86C58.368 30.2168 53.3159 28.201 48.072 28.2465C42.8281 28.2921 37.8118 30.3955 34.1036 34.1036C30.3955 37.8118 28.2921 42.828 28.2465 48.072C28.201 53.3159 30.2169 58.368 33.86 62.14L38.1 57.9C36.1422 55.942 34.809 53.4474 34.2689 50.7318C33.7288 48.0161 34.0062 45.2012 35.0658 42.6431C36.1255 40.085 37.9199 37.8986 40.2222 36.3603C42.5244 34.8221 45.2311 34.001 48 34.001C50.7689 34.001 53.4756 34.8221 55.7779 36.3603C58.0801 37.8986 59.8745 40.085 60.9342 42.6431C61.9939 45.2012 62.2712 48.0161 61.7311 50.7318C61.191 53.4474 59.8578 55.942 57.9 57.9L62.14 62.14C65.8894 58.3894 67.9957 53.3033 67.9957 48C67.9957 42.6967 65.8894 37.6106 62.14 33.86V33.86ZM71.33 24.67C65.1018 18.6823 56.7738 15.376 48.1346 15.4611C39.4954 15.5461 31.2341 19.0158 25.125 25.1249C19.0158 31.2341 15.5461 39.4954 15.4611 48.1346C15.376 56.7738 18.6824 65.1018 24.67 71.33L28.91 67.09C25.1335 63.3142 22.5614 58.5033 21.5192 53.2656C20.477 48.028 21.0114 42.5989 23.0548 37.665C25.0982 32.7311 28.5588 28.514 32.9991 25.5469C37.4393 22.5799 42.6597 20.9962 48 20.9962C53.3403 20.9962 58.5607 22.5799 63.001 25.5469C67.4412 28.514 70.9019 32.7311 72.9453 37.665C74.9887 42.5989 75.5231 48.028 74.4808 53.2656C73.4386 58.5033 70.8666 63.3142 67.09 67.09L71.33 71.33C77.516 65.1417 80.991 56.7499 80.991 48C80.991 39.2501 77.516 30.8583 71.33 24.67V24.67Z" fill="url(#paint1_linear)"/>
<path d="M22.1223 17.8771L17.8796 22.1197L73.8825 78.1226L78.1251 73.8799L22.1223 17.8771Z" fill="url(#paint2_linear)"/>
<defs>
<linearGradient id="paint0_linear" x1="26.8" y1="26.8" x2="69.2" y2="69.2" gradientUnits="userSpaceOnUse">
<stop stop-color="#FAFAFA"/>
<stop offset="0.29" stop-color="#F7F7F7"/>
<stop offset="0.53" stop-color="#EDEDED"/>
<stop offset="0.75" stop-color="#DCDCDC"/>
<stop offset="0.95" stop-color="#C4C4C4"/>
<stop offset="1" stop-color="#BDBDBD"/>
</linearGradient>
<linearGradient id="paint1_linear" x1="15.02" y1="43.18" x2="80.98" y2="43.18" gradientUnits="userSpaceOnUse">
<stop stop-color="#CCCCCC"/>
<stop offset="1" stop-color="#999999"/>
</linearGradient>
<linearGradient id="paint2_linear" x1="20.004" y1="20.0017" x2="76.004" y2="76.0017" gradientUnits="userSpaceOnUse">
<stop stop-color="#E88F8D"/>
<stop offset="0.22" stop-color="#E58D8C"/>
<stop offset="0.39" stop-color="#DB878A"/>
<stop offset="0.55" stop-color="#CA7D87"/>
<stop offset="0.7" stop-color="#B26F82"/>
<stop offset="0.84" stop-color="#935C7B"/>
<stop offset="0.98" stop-color="#6E4674"/>
<stop offset="1" stop-color="#674272"/>
</linearGradient>
</defs>
</svg>
