<svg width="96" height="96" viewBox="0 0 96 96" fill="none" xmlns="http://www.w3.org/2000/svg">
<path d="M34 58C31.3478 58 28.8043 56.9464 26.9289 55.0711C25.0536 53.1957 24 50.6522 24 48C24 45.3478 25.0536 42.8043 26.9289 40.9289C28.8043 39.0536 31.3478 38 34 38H62C64.6522 38 67.1957 39.0536 69.0711 40.9289C70.9464 42.8043 72 45.3478 72 48C72 50.6522 70.9464 53.1957 69.0711 55.0711C67.1957 56.9464 64.6522 58 62 58H34Z" fill="url(#paint0_linear)"/>
<path d="M62 29H34C28.9609 29 24.1282 31.0018 20.565 34.565C17.0018 38.1282 15 42.9609 15 48C15 53.0391 17.0018 57.8718 20.565 61.435C24.1282 64.9982 28.9609 67 34 67H62C67.0391 67 71.8718 64.9982 75.435 61.435C78.9982 57.8718 81 53.0391 81 48C81 42.9609 78.9982 38.1282 75.435 34.565C71.8718 31.0018 67.0391 29 62 29V29ZM62 61H34C30.5522 61 27.2456 59.6304 24.8076 57.1924C22.3696 54.7544 21 51.4478 21 48C21 44.5522 22.3696 41.2456 24.8076 38.8076C27.2456 36.3696 30.5522 35 34 35H62C65.4478 35 68.7544 36.3696 71.1924 38.8076C73.6304 41.2456 75 44.5522 75 48C75 51.4478 73.6304 54.7544 71.1924 57.1924C68.7544 59.6304 65.4478 61 62 61V61Z" fill="url(#paint1_linear)"/>
<path d="M38 45H42V51H38V55H32V51H28V45H32V41H38V45ZM63 45H68V51H63V56H57V51H52V45H57V40H63V45ZM57.33 45.33V50.67H62.67V45.33H57.33Z" fill="url(#paint2_linear)"/>
<defs>
<linearGradient id="paint0_linear" x1="33.93" y1="33.93" x2="62.07" y2="62.07" gradientUnits="userSpaceOnUse">
<stop stop-color="#FFDA75"/>
<stop offset="0.28" stop-color="#FFD773"/>
<stop offset="0.51" stop-color="#FDCD6E"/>
<stop offset="0.71" stop-color="#FBBC66"/>
<stop offset="0.91" stop-color="#F8A459"/>
<stop offset="1" stop-color="#F69652"/>
</linearGradient>
<linearGradient id="paint1_linear" x1="15" y1="48" x2="81" y2="48" gradientUnits="userSpaceOnUse">
<stop stop-color="#666666"/>
<stop offset="1" stop-color="#333333"/>
</linearGradient>
<linearGradient id="paint2_linear" x1="1148" y1="40" x2="2748" y2="40" gradientUnits="userSpaceOnUse">
<stop stop-color="#666666"/>
<stop offset="1" stop-color="#333333"/>
</linearGradient>
</defs>
</svg>
