<svg width="96" height="96" viewBox="0 0 96 96" fill="none" xmlns="http://www.w3.org/2000/svg">
<path d="M34 64C31.3478 64 28.8043 62.9464 26.9289 61.0711C25.0536 59.1957 24 56.6522 24 54C24 51.3478 25.0536 48.8043 26.9289 46.9289C28.8043 45.0536 31.3478 44 34 44H62C64.6522 44 67.1957 45.0536 69.0711 46.9289C70.9464 48.8043 72 51.3478 72 54C72 56.6522 70.9464 59.1957 69.0711 61.0711C67.1957 62.9464 64.6522 64 62 64H34Z" fill="url(#paint0_linear)"/>
<path d="M62 35H51V26C51 24.6739 51.5268 23.4021 52.4645 22.4645C53.4021 21.5268 54.6739 21 56 21C57.3261 21 58.5979 21.5268 59.5355 22.4645C60.4732 23.4021 61 24.6739 61 26C61 27.8565 61.7375 29.637 63.0503 30.9497C64.363 32.2625 66.1435 33 68 33C69.8565 33 71.637 32.2625 72.9497 30.9497C74.2625 29.637 75 27.8565 75 26V20H69V26C69 26.2652 68.8946 26.5196 68.7071 26.7071C68.5196 26.8946 68.2652 27 68 27C67.7348 27 67.4804 26.8946 67.2929 26.7071C67.1054 26.5196 67 26.2652 67 26C67 23.0826 65.8411 20.2847 63.7782 18.2218C61.7153 16.1589 58.9174 15 56 15C53.0826 15 50.2847 16.1589 48.2218 18.2218C46.1589 20.2847 45 23.0826 45 26V35H34C28.9609 35 24.1282 37.0018 20.565 40.565C17.0018 44.1282 15 48.9609 15 54C15 59.0391 17.0018 63.8718 20.565 67.435C24.1282 70.9982 28.9609 73 34 73H62C67.0391 73 71.8718 70.9982 75.435 67.435C78.9982 63.8718 81 59.0391 81 54C81 48.9609 78.9982 44.1282 75.435 40.565C71.8718 37.0018 67.0391 35 62 35V35ZM62 67H34C30.5522 67 27.2456 65.6304 24.8076 63.1924C22.3696 60.7544 21 57.4478 21 54C21 50.5522 22.3696 47.2456 24.8076 44.8076C27.2456 42.3696 30.5522 41 34 41H62C65.4478 41 68.7544 42.3696 71.1924 44.8076C73.6304 47.2456 75 50.5522 75 54C75 57.4478 73.6304 60.7544 71.1924 63.1924C68.7544 65.6304 65.4478 67 62 67V67Z" fill="url(#paint1_linear)"/>
<path d="M38 51H42V57H38V61H32V57H28V51H32V47H38V51ZM63 51H68V57H63V62H57V57H52V51H57V46H63V51ZM57.33 51.33V56.67H62.67V51.33H57.33Z" fill="url(#paint2_linear)"/>
<defs>
<linearGradient id="paint0_linear" x1="33.93" y1="39.93" x2="62.07" y2="68.07" gradientUnits="userSpaceOnUse">
<stop stop-color="#C2E085"/>
<stop offset="0.2" stop-color="#BFDF85"/>
<stop offset="0.35" stop-color="#B5DB87"/>
<stop offset="0.5" stop-color="#A4D589"/>
<stop offset="0.63" stop-color="#8CCC8D"/>
<stop offset="0.76" stop-color="#6DC191"/>
<stop offset="0.89" stop-color="#48B396"/>
<stop offset="1" stop-color="#1FA49C"/>
</linearGradient>
<linearGradient id="paint1_linear" x1="15" y1="44" x2="81" y2="44" gradientUnits="userSpaceOnUse">
<stop stop-color="#666666"/>
<stop offset="1" stop-color="#333333"/>
</linearGradient>
<linearGradient id="paint2_linear" x1="1148" y1="910" x2="2748" y2="910" gradientUnits="userSpaceOnUse">
<stop stop-color="#666666"/>
<stop offset="1" stop-color="#333333"/>
</linearGradient>
</defs>
</svg>
