<svg width="96" height="96" viewBox="0 0 96 96" fill="none" xmlns="http://www.w3.org/2000/svg">
<path d="M78 38H18V78H78V38Z" fill="url(#paint0_linear)"/>
<path d="M51 35V26C51 24.6739 51.5268 23.4021 52.4645 22.4645C53.4021 21.5268 54.6739 21 56 21C57.3261 21 58.5979 21.5268 59.5355 22.4645C60.4732 23.4021 61 24.6739 61 26C61 27.8565 61.7375 29.637 63.0503 30.9497C64.363 32.2625 66.1435 33 68 33C69.8565 33 71.637 32.2625 72.9497 30.9497C74.2625 29.637 75 27.8565 75 26V20H69V26C69 26.2652 68.8946 26.5196 68.7071 26.7071C68.5196 26.8946 68.2652 27 68 27C67.7348 27 67.4804 26.8946 67.2929 26.7071C67.1054 26.5196 67 26.2652 67 26C67 23.0826 65.8411 20.2847 63.7782 18.2218C61.7153 16.1589 58.9174 15 56 15C53.0826 15 50.2847 16.1589 48.2218 18.2218C46.1589 20.2847 45 23.0826 45 26V35H15V81H81V35H51ZM75 75H21V41H75V75Z" fill="url(#paint1_linear)"/>
<path d="M36 65H60V71H36V65ZM31 55H25V61H31V55ZM41 55H35V61H41V55ZM51 55H45V61H51V55ZM61 55H55V61H61V55ZM71 55H65V61H71V55ZM31 45H25V51H31V45ZM41 45H35V51H41V45ZM51 45H45V51H51V45ZM61 45H55V51H61V45ZM71 45H65V51H71V45Z" fill="url(#paint2_linear)"/>
<defs>
<linearGradient id="paint0_linear" x1="23" y1="33" x2="73" y2="83" gradientUnits="userSpaceOnUse">
<stop stop-color="#FAFAFA"/>
<stop offset="0.29" stop-color="#F7F7F7"/>
<stop offset="0.53" stop-color="#EDEDED"/>
<stop offset="0.75" stop-color="#DCDCDC"/>
<stop offset="0.95" stop-color="#C4C4C4"/>
<stop offset="1" stop-color="#BDBDBD"/>
</linearGradient>
<linearGradient id="paint1_linear" x1="15" y1="48" x2="81" y2="48" gradientUnits="userSpaceOnUse">
<stop stop-color="#666666"/>
<stop offset="1" stop-color="#333333"/>
</linearGradient>
<linearGradient id="paint2_linear" x1="1175" y1="1553" x2="3291" y2="1553" gradientUnits="userSpaceOnUse">
<stop stop-color="#666666"/>
<stop offset="1" stop-color="#333333"/>
</linearGradient>
</defs>
</svg>
