<svg width="96" height="96" viewBox="0 0 96 96" fill="none" xmlns="http://www.w3.org/2000/svg">
<path d="M48 60C54.6274 60 60 54.6274 60 48C60 41.3726 54.6274 36 48 36C41.3726 36 36 41.3726 36 48C36 54.6274 41.3726 60 48 60Z" fill="url(#paint0_linear)"/>
<path d="M58.61 37.39C56.5118 35.2932 53.839 33.8655 50.9296 33.2875C48.0201 32.7095 45.0046 33.0071 42.2643 34.1427C39.524 35.2783 37.1819 37.2009 35.5341 39.6675C33.8863 42.134 33.0068 45.0337 33.0068 48C33.0068 50.9663 33.8863 53.866 35.5341 56.3326C37.1819 58.7991 39.524 60.7217 42.2643 61.8573C45.0046 62.9929 48.0201 63.2905 50.9296 62.7125C53.839 62.1345 56.5118 60.7068 58.61 58.61V58.61C60.0039 57.217 61.1096 55.563 61.864 53.7425C62.6185 51.922 63.0068 49.9706 63.0068 48C63.0068 46.0294 62.6185 44.078 61.864 42.2575C61.1096 40.437 60.0039 38.783 58.61 37.39ZM54.36 54.39C53.1018 55.6498 51.4981 56.5081 49.752 56.8563C48.0059 57.2044 46.1957 57.0269 44.5505 56.346C42.9053 55.6651 41.499 54.5116 40.5096 53.0313C39.5202 51.551 38.9921 49.8105 38.9921 48.03C38.9921 46.2495 39.5202 44.509 40.5096 43.0287C41.499 41.5484 42.9053 40.3949 44.5505 39.714C46.1957 39.0332 48.0059 38.8556 49.752 39.2038C51.4981 39.5519 53.1018 40.4102 54.36 41.67C56.0362 43.3563 56.9771 45.6373 56.9771 48.015C56.9771 50.3927 56.0362 52.6737 54.36 54.36V54.39Z" fill="url(#paint1_linear)"/>
<path d="M51 28H45V16H51V28ZM45 80H51V68H45V80ZM68 45V51H80V45H68ZM28 45H16V51H28V45ZM72.75 27.49L68.51 23.25L60 31.74L64.26 36L72.75 27.49ZM23.25 68.49L27.49 72.73L36 64.26L31.74 60L23.25 68.49ZM60 64.26L68.49 72.75L72.73 68.51L64.26 60L60 64.26ZM36 31.74L27.51 23.25L23.27 27.49L31.74 36L36 31.74Z" fill="url(#paint2_linear)"/>
<defs>
<linearGradient id="paint0_linear" x1="39.51" y1="39.51" x2="56.49" y2="56.49" gradientUnits="userSpaceOnUse">
<stop stop-color="#A5E4F1"/>
<stop offset="0.25" stop-color="#A2E1EF"/>
<stop offset="0.46" stop-color="#98D8E9"/>
<stop offset="0.64" stop-color="#87C8DF"/>
<stop offset="0.82" stop-color="#6FB1D0"/>
<stop offset="0.98" stop-color="#5194BD"/>
<stop offset="1" stop-color="#4D91BB"/>
</linearGradient>
<linearGradient id="paint1_linear" x1="37.39" y1="37.39" x2="58.61" y2="58.61" gradientUnits="userSpaceOnUse">
<stop stop-color="#666666"/>
<stop offset="1" stop-color="#333333"/>
</linearGradient>
<linearGradient id="paint2_linear" x1="1639.68" y1="1639.68" x2="4536.32" y2="4536.32" gradientUnits="userSpaceOnUse">
<stop stop-color="#666666"/>
<stop offset="1" stop-color="#333333"/>
</linearGradient>
</defs>
</svg>
