<svg width="96" height="96" viewBox="0 0 96 96" fill="none" xmlns="http://www.w3.org/2000/svg">
<path d="M30.43 60.43C26.9542 56.9548 24.587 52.527 23.6278 47.7064C22.6686 42.8859 23.1604 37.8891 25.0411 33.3481C26.9218 28.8071 30.1069 24.9258 34.1936 22.1951C38.2802 19.4643 43.0849 18.0068 48 18.0068C52.915 18.0068 57.7197 19.4643 61.8064 22.1951C65.893 24.9258 69.0781 28.8071 70.9588 33.3481C72.8395 37.8891 73.3314 42.8859 72.3722 47.7064C71.4129 52.527 69.0458 56.9548 65.57 60.43L48 78L30.43 60.43Z" fill="white"/>
<path d="M67.69 23.16C62.4548 17.9944 55.3889 15.1093 48.0343 15.1343C40.6797 15.1594 33.6336 18.0926 28.4338 23.2937C23.2339 28.4949 20.3025 35.5418 20.2793 42.8963C20.2561 50.2509 23.143 57.3161 28.31 62.55L48 82.24L67.69 62.55C70.2791 59.9651 72.3331 56.8952 73.7346 53.5157C75.1361 50.1362 75.8574 46.5135 75.8574 42.855C75.8574 39.1964 75.1361 35.5738 73.7346 32.1943C72.3331 28.8148 70.2791 25.7448 67.69 23.16V23.16ZM63.45 58.31L48 73.76L32.55 58.31C29.4941 55.2542 27.413 51.361 26.5699 47.1224C25.7267 42.8839 26.1594 38.4906 27.8131 34.498C29.4669 30.5054 32.2675 27.0928 35.8607 24.6919C39.4539 22.2909 43.6784 21.0094 48 21.0094C52.3215 21.0094 56.546 22.2909 60.1393 24.6919C63.7325 27.0928 66.5331 30.5054 68.1868 34.498C69.8406 38.4906 70.2732 42.8839 69.4301 47.1224C68.5869 51.361 66.5058 55.2542 63.45 58.31V58.31Z" fill="url(#paint0_linear)"/>
<path d="M61.33 29.52C57.7946 25.9847 52.9997 23.9985 48 23.9985C43.0002 23.9985 38.2053 25.9847 34.67 29.52C31.1346 33.0553 29.1485 37.8503 29.1485 42.85C29.1485 47.8497 31.1346 52.6447 34.67 56.18L48 69.51L61.33 56.18C64.8632 52.6436 66.8479 47.849 66.8479 42.85C66.8479 37.851 64.8632 33.0564 61.33 29.52V29.52ZM53.66 48.69C52.5408 49.8079 51.1153 50.569 49.5637 50.8769C48.0121 51.1849 46.404 51.0259 44.9427 50.4202C43.4814 49.8144 42.2325 48.789 41.3539 47.4736C40.4752 46.1582 40.0063 44.6119 40.0063 43.03C40.0063 41.4481 40.4752 39.9018 41.3539 38.5864C42.2325 37.271 43.4814 36.2456 44.9427 35.6398C46.404 35.0341 48.0121 34.8751 49.5637 35.1831C51.1153 35.491 52.5408 36.2521 53.66 37.37C54.4038 38.113 54.9938 38.9953 55.3964 39.9665C55.799 40.9377 56.0063 41.9787 56.0063 43.03C56.0063 44.0813 55.799 45.1223 55.3964 46.0935C54.9938 47.0647 54.4038 47.947 53.66 48.69V48.69Z" fill="url(#paint1_linear)"/>
<defs>
<linearGradient id="paint0_linear" x1="28.31" y1="23.16" x2="67.69" y2="62.55" gradientUnits="userSpaceOnUse">
<stop stop-color="#666666"/>
<stop offset="1" stop-color="#333333"/>
</linearGradient>
<linearGradient id="paint1_linear" x1="34.67" y1="29.52" x2="61.33" y2="56.18" gradientUnits="userSpaceOnUse">
<stop stop-color="#E88F8D"/>
<stop offset="0.22" stop-color="#E58D8C"/>
<stop offset="0.39" stop-color="#DB878A"/>
<stop offset="0.55" stop-color="#CA7D87"/>
<stop offset="0.7" stop-color="#B26F82"/>
<stop offset="0.84" stop-color="#935C7B"/>
<stop offset="0.98" stop-color="#6E4674"/>
<stop offset="1" stop-color="#674272"/>
</linearGradient>
</defs>
</svg>
