<svg width="96" height="96" viewBox="0 0 96 96" fill="none" xmlns="http://www.w3.org/2000/svg">
<path d="M67 73V23L29 23V73H67Z" fill="url(#paint0_linear)"/>
<path d="M58.24 51L74.12 66.88L69.88 71.12L54 55.24V61H48V45H64V51H58.24ZM32 25V31H64V25H32ZM32 51H43V45H32V51ZM32 71H56V65H32V71Z" fill="url(#paint1_linear)"/>
<path d="M21 15V81H64V75H27V61H43V55H27V41H69V56H75V15H21ZM27 35V21H69V35H27Z" fill="url(#paint2_linear)"/>
<defs>
<linearGradient id="paint0_linear" x1="26" y1="26" x2="70" y2="70" gradientUnits="userSpaceOnUse">
<stop stop-color="#F2F2F2"/>
<stop offset="0.25" stop-color="#EFEFEF"/>
<stop offset="0.45" stop-color="#E5E5E5"/>
<stop offset="0.64" stop-color="#D4D4D4"/>
<stop offset="0.81" stop-color="#BCBCBC"/>
<stop offset="0.98" stop-color="#9E9E9E"/>
<stop offset="1" stop-color="#999999"/>
</linearGradient>
<linearGradient id="paint1_linear" x1="28.5" y1="28.5" x2="70.5" y2="70.5" gradientUnits="userSpaceOnUse">
<stop stop-color="#666666"/>
<stop offset="1" stop-color="#333333"/>
</linearGradient>
<linearGradient id="paint2_linear" x1="993" y1="1203" x2="4518.77" y2="4087.72" gradientUnits="userSpaceOnUse">
<stop stop-color="#666666"/>
<stop offset="1" stop-color="#333333"/>
</linearGradient>
</defs>
</svg>
