<svg width="96" height="96" viewBox="0 0 96 96" fill="none" xmlns="http://www.w3.org/2000/svg">
<path d="M48 51C47.2044 51 46.4413 50.6839 45.8787 50.1213C45.3161 49.5587 45 48.7956 45 48V27C45 26.2044 45.3161 25.4413 45.8787 24.8787C46.4413 24.3161 47.2044 24 48 24C48.7956 24 49.5587 24.3161 50.1213 24.8787C50.6839 25.4413 51 26.2044 51 27V48C51 48.7956 50.6839 49.5587 50.1213 50.1213C49.5587 50.6839 48.7956 51 48 51Z" fill="url(#paint0_linear)"/>
<path d="M71 48H65C65 52.5087 63.2089 56.8327 60.0208 60.0208C56.8327 63.2089 52.5087 65 48 65C43.4913 65 39.1673 63.2089 35.9792 60.0208C32.7911 56.8327 31 52.5087 31 48H25C25.0009 53.5798 27.03 58.9689 30.7095 63.1636C34.389 67.3582 39.4679 70.0722 45 70.8V78H51V70.8C56.5321 70.0722 61.611 67.3582 65.2905 63.1636C68.97 58.9689 70.9991 53.5798 71 48Z" fill="url(#paint1_linear)"/>
<path d="M48 60C51.1826 60 54.2348 58.7357 56.4853 56.4853C58.7357 54.2348 60 51.1826 60 48V27C60 23.8174 58.7357 20.7652 56.4853 18.5147C54.2348 16.2643 51.1826 15 48 15C44.8174 15 41.7652 16.2643 39.5147 18.5147C37.2643 20.7652 36 23.8174 36 27V48C36 51.1826 37.2643 54.2348 39.5147 56.4853C41.7652 58.7357 44.8174 60 48 60ZM42 27C42 25.4087 42.6321 23.8826 43.7574 22.7574C44.8826 21.6321 46.4087 21 48 21C49.5913 21 51.1174 21.6321 52.2426 22.7574C53.3679 23.8826 54 25.4087 54 27V48C54 49.5913 53.3679 51.1174 52.2426 52.2426C51.1174 53.3679 49.5913 54 48 54C46.4087 54 44.8826 53.3679 43.7574 52.2426C42.6321 51.1174 42 49.5913 42 48V27Z" fill="url(#paint2_linear)"/>
<path d="M26.1176 18.8757L21.875 23.1183L77.8779 79.1212L82.1205 74.8786L26.1176 18.8757Z" fill="url(#paint3_linear)"/>
<defs>
<linearGradient id="paint0_linear" x1="40.63" y1="30.13" x2="55.37" y2="44.87" gradientUnits="userSpaceOnUse">
<stop stop-color="#FAFAFA"/>
<stop offset="0.29" stop-color="#F7F7F7"/>
<stop offset="0.53" stop-color="#EDEDED"/>
<stop offset="0.75" stop-color="#DCDCDC"/>
<stop offset="0.95" stop-color="#C4C4C4"/>
<stop offset="1" stop-color="#BDBDBD"/>
</linearGradient>
<linearGradient id="paint1_linear" x1="34" y1="39" x2="62" y2="67" gradientUnits="userSpaceOnUse">
<stop stop-color="#CCCCCC"/>
<stop offset="1" stop-color="#999999"/>
</linearGradient>
<linearGradient id="paint2_linear" x1="858.48" y1="1084.65" x2="1884.67" y2="1631.95" gradientUnits="userSpaceOnUse">
<stop stop-color="#CCCCCC"/>
<stop offset="1" stop-color="#999999"/>
</linearGradient>
<linearGradient id="paint3_linear" x1="23.9969" y1="20.9963" x2="79.9969" y2="76.9963" gradientUnits="userSpaceOnUse">
<stop stop-color="#E88F8D"/>
<stop offset="0.22" stop-color="#E58D8C"/>
<stop offset="0.39" stop-color="#DB878A"/>
<stop offset="0.55" stop-color="#CA7D87"/>
<stop offset="0.7" stop-color="#B26F82"/>
<stop offset="0.84" stop-color="#935C7B"/>
<stop offset="0.98" stop-color="#6E4674"/>
<stop offset="1" stop-color="#674272"/>
</linearGradient>
</defs>
</svg>
