<svg width="96" height="96" viewBox="0 0 96 96" fill="none" xmlns="http://www.w3.org/2000/svg">
<path d="M48 72C61.2548 72 72 61.2548 72 48C72 34.7452 61.2548 24 48 24C34.7452 24 24 34.7452 24 48C24 61.2548 34.7452 72 48 72Z" fill="url(#paint0_linear)"/>
<path d="M65.4 45H30.6V51H65.4V45Z" fill="url(#paint1_linear)"/>
<path d="M48 83C41.0776 83 34.3107 80.9473 28.555 77.1014C22.7993 73.2556 18.3133 67.7893 15.6642 61.3939C13.0151 54.9985 12.322 47.9612 13.6725 41.1718C15.023 34.3825 18.3564 28.1461 23.2512 23.2512C28.1461 18.3564 34.3825 15.023 41.1718 13.6725C47.9612 12.322 54.9985 13.0151 61.3939 15.6642C67.7893 18.3133 73.2556 22.7993 77.1014 28.555C80.9473 34.3107 83 41.0776 83 48C83 57.2826 79.3125 66.185 72.7487 72.7487C66.185 79.3125 57.2826 83 48 83V83ZM48 19C42.2643 19 36.6575 20.7008 31.8884 23.8874C27.1194 27.0739 23.4024 31.6031 21.2075 36.9022C19.0125 42.2012 18.4382 48.0322 19.5572 53.6576C20.6762 59.2831 23.4382 64.4504 27.4939 68.5061C31.5496 72.5618 36.7169 75.3238 42.3424 76.4428C47.9678 77.5617 53.7987 76.9874 59.0978 74.7925C64.3969 72.5975 68.926 68.8805 72.1126 64.1115C75.2992 59.3425 77 53.7356 77 48C77 40.3087 73.9446 32.9324 68.5061 27.4939C63.0675 22.0553 55.6913 19 48 19V19Z" fill="url(#paint2_linear)"/>
<defs>
<linearGradient id="paint0_linear" x1="31.04" y1="31.04" x2="64.96" y2="64.96" gradientUnits="userSpaceOnUse">
<stop stop-color="#FFDA75"/>
<stop offset="0.28" stop-color="#FFD773"/>
<stop offset="0.51" stop-color="#FDCD6E"/>
<stop offset="0.71" stop-color="#FBBC66"/>
<stop offset="0.91" stop-color="#F8A459"/>
<stop offset="1" stop-color="#F69652"/>
</linearGradient>
<linearGradient id="paint1_linear" x1="37.8" y1="37.8" x2="58.2" y2="58.2" gradientUnits="userSpaceOnUse">
<stop stop-color="#666666"/>
<stop offset="1" stop-color="#333333"/>
</linearGradient>
<linearGradient id="paint2_linear" x1="1641.2" y1="1641.2" x2="5104.8" y2="5104.8" gradientUnits="userSpaceOnUse">
<stop stop-color="#666666"/>
<stop offset="1" stop-color="#333333"/>
</linearGradient>
</defs>
</svg>
