<svg width="96" height="96" viewBox="0 0 96 96" fill="none" xmlns="http://www.w3.org/2000/svg">
<path d="M48 74C44.9959 73.9974 42.1156 72.8028 39.9914 70.6786C37.8672 68.5544 36.6727 65.6741 36.67 62.67V45.33C36.67 42.3251 37.8637 39.4433 39.9885 37.3185C42.1133 35.1937 44.9951 34 48 34C51.0049 34 53.8867 35.1937 56.0115 37.3185C58.1363 39.4433 59.33 42.3251 59.33 45.33V62.67C59.3274 65.6741 58.1328 68.5544 56.0086 70.6786C53.8844 72.8028 51.0041 73.9974 48 74Z" fill="url(#paint0_linear)"/>
<path d="M69 18V24C69 24.2652 68.8947 24.5196 68.7071 24.7071C68.5196 24.8946 68.2652 25 68 25C67.7348 25 67.4804 24.8946 67.2929 24.7071C67.1054 24.5196 67 24.2652 67 24C67 21.0826 65.8411 18.2847 63.7782 16.2218C61.7153 14.1589 58.9174 13 56 13C53.0826 13 50.2847 14.1589 48.2218 16.2218C46.1589 18.2847 45 21.0826 45 24V25.25C40.186 25.9682 35.7894 28.3898 32.6093 32.0745C29.4292 35.7593 27.6766 40.4627 27.67 45.33V62.67C27.67 65.3398 28.1959 67.9834 29.2175 70.45C30.2392 72.9165 31.7367 75.1577 33.6245 77.0455C35.5123 78.9333 37.7535 80.4308 40.2201 81.4525C42.6866 82.4741 45.3302 83 48 83C50.6698 83 53.3134 82.4741 55.78 81.4525C58.2465 80.4308 60.4877 78.9333 62.3755 77.0455C64.2633 75.1577 65.7608 72.9165 66.7825 70.45C67.8042 67.9834 68.33 65.3398 68.33 62.67V45.33C68.3234 40.4627 66.5708 35.7593 63.3907 32.0745C60.2106 28.3898 55.814 25.9682 51 25.25V24C51 22.6739 51.5268 21.4021 52.4645 20.4645C53.4022 19.5268 54.6739 19 56 19C57.3261 19 58.5979 19.5268 59.5355 20.4645C60.4732 21.4021 61 22.6739 61 24C61 25.8565 61.7375 27.637 63.0503 28.9497C64.363 30.2625 66.1435 31 68 31C69.8565 31 71.637 30.2625 72.9498 28.9497C74.2625 27.637 75 25.8565 75 24V18H69ZM45 31.32V45.8H33.67C33.5686 42.4428 34.6464 39.1561 36.7162 36.5109C38.786 33.8657 41.717 32.029 45 31.32V31.32ZM48 77C44.2011 76.9947 40.5593 75.4832 37.873 72.797C35.1868 70.1107 33.6753 66.4689 33.67 62.67V51.8H62.33V62.67C62.3247 66.4689 60.8133 70.1107 58.127 72.797C55.4408 75.4832 51.7989 76.9947 48 77ZM62.33 45.8H51V31.32C54.2831 32.029 57.2141 33.8657 59.2838 36.5109C61.3536 39.1561 62.4314 42.4428 62.33 45.8V45.8Z" fill="url(#paint1_linear)"/>
<defs>
<linearGradient id="paint0_linear" x1="35.66" y1="41.66" x2="60.34" y2="66.34" gradientUnits="userSpaceOnUse">
<stop stop-color="#F2F2F2"/>
<stop offset="0.25" stop-color="#EFEFEF"/>
<stop offset="0.45" stop-color="#E5E5E5"/>
<stop offset="0.64" stop-color="#D4D4D4"/>
<stop offset="0.81" stop-color="#BCBCBC"/>
<stop offset="0.98" stop-color="#9E9E9E"/>
<stop offset="1" stop-color="#999999"/>
</linearGradient>
<linearGradient id="paint1_linear" x1="27.67" y1="48" x2="75" y2="48" gradientUnits="userSpaceOnUse">
<stop stop-color="#666666"/>
<stop offset="1" stop-color="#333333"/>
</linearGradient>
</defs>
</svg>
