<svg width="96" height="96" viewBox="0 0 96 96" fill="none" xmlns="http://www.w3.org/2000/svg">
<path d="M48 26C43.6488 26 39.3953 27.2903 35.7775 29.7077C32.1596 32.1251 29.3398 35.561 27.6747 39.581C26.0095 43.6009 25.5739 48.0244 26.4227 52.292C27.2716 56.5596 29.3669 60.4796 32.4437 63.5564C35.5204 66.6331 39.4404 68.7284 43.708 69.5773C47.9756 70.4262 52.3991 69.9905 56.419 68.3253C60.439 66.6602 63.8749 63.8404 66.2923 60.2225C68.7097 56.6047 70 52.3512 70 48C70 42.1652 67.6822 36.5694 63.5564 32.4436C59.4306 28.3178 53.8348 26 48 26ZM48 60C45.6266 60 43.3066 59.2962 41.3332 57.9776C39.3598 56.6591 37.8217 54.7849 36.9135 52.5922C36.0052 50.3995 35.7676 47.9867 36.2306 45.6589C36.6936 43.3311 37.8365 41.1929 39.5147 39.5147C41.193 37.8365 43.3312 36.6936 45.6589 36.2306C47.9867 35.7676 50.3995 36.0052 52.5922 36.9134C54.7849 37.8217 56.6591 39.3598 57.9776 41.3332C59.2962 43.3065 60 45.6266 60 48C60 51.1826 58.7357 54.2348 56.4853 56.4853C54.2349 58.7357 51.1826 60 48 60Z" fill="url(#paint0_linear)"/>
<path d="M48 81C40.4166 81.0026 33.0636 78.3933 27.1781 73.611C21.2926 68.8287 17.2338 62.1653 15.6846 54.7417C14.1353 47.3182 15.1901 39.5875 18.6715 32.8504C22.1529 26.1133 27.8485 20.7808 34.8 17.75L37.2 23.25C31.5149 25.7312 26.8575 30.0943 24.0109 35.6055C21.1643 41.1168 20.3022 47.4401 21.5696 53.5123C22.8369 59.5844 26.1564 65.035 30.9698 68.9475C35.7832 72.8601 41.7971 74.9959 48 74.9959C54.203 74.9959 60.2168 72.8601 65.0303 68.9475C69.8437 65.035 73.1632 59.5844 74.4305 53.5123C75.6978 47.4401 74.8357 41.1168 71.9892 35.6055C69.1426 30.0943 64.4852 25.7312 58.8 23.25L61.2 17.75C68.1516 20.7808 73.8471 26.1133 77.3286 32.8504C80.81 39.5875 81.8648 47.3182 80.3155 54.7417C78.7663 62.1653 74.7075 68.8287 68.822 73.611C62.9365 78.3933 55.5835 81.0026 48 81V81Z" fill="url(#paint1_linear)"/>
<path d="M51 15H45V51H51V15Z" fill="url(#paint2_linear)"/>
<defs>
<linearGradient id="paint0_linear" x1="32.45" y1="32.45" x2="63.55" y2="63.55" gradientUnits="userSpaceOnUse">
<stop stop-color="#E88F8D"/>
<stop offset="0.22" stop-color="#E58D8C"/>
<stop offset="0.39" stop-color="#DB878A"/>
<stop offset="0.55" stop-color="#CA7D87"/>
<stop offset="0.7" stop-color="#B26F82"/>
<stop offset="0.84" stop-color="#935C7B"/>
<stop offset="0.98" stop-color="#6E4674"/>
<stop offset="1" stop-color="#674272"/>
</linearGradient>
<linearGradient id="paint1_linear" x1="24.67" y1="24.66" x2="71.33" y2="71.32" gradientUnits="userSpaceOnUse">
<stop stop-color="#666666"/>
<stop offset="1" stop-color="#333333"/>
</linearGradient>
<linearGradient id="paint2_linear" x1="270" y1="825" x2="515.189" y2="865.865" gradientUnits="userSpaceOnUse">
<stop stop-color="#666666"/>
<stop offset="1" stop-color="#333333"/>
</linearGradient>
</defs>
</svg>
