<svg width="96" height="96" viewBox="0 0 96 96" fill="none" xmlns="http://www.w3.org/2000/svg">
<path d="M48 66C57.9411 66 66 57.9411 66 48C66 38.0589 57.9411 30 48 30C38.0589 30 30 38.0589 30 48C30 57.9411 38.0589 66 48 66Z" fill="url(#paint0_linear)"/>
<path d="M48 69C43.1741 69.0017 38.495 67.3412 34.7497 64.2979C31.0044 61.2546 28.4215 57.0143 27.4356 52.2902C26.4497 47.5661 27.121 42.6466 29.3364 38.3593C31.5518 34.0721 35.1763 30.6787 39.6 28.75L42 34.25C27.17 40.73 31.81 63 48 63C64.19 63 68.83 40.73 54 34.25L56.4 28.75C60.8237 30.6787 64.4482 34.0721 66.6636 38.3593C68.8791 42.6466 69.5503 47.5661 68.5644 52.2902C67.5785 57.0143 64.9956 61.2546 61.2503 64.2979C57.505 67.3412 52.8259 69.0017 48 69ZM51 27H45V51H51V27Z" fill="url(#paint1_linear)"/>
<path d="M48 83C41.0777 83 34.3108 80.9473 28.5551 77.1014C22.7993 73.2556 18.3133 67.7893 15.6642 61.3939C13.0152 54.9985 12.322 47.9612 13.6725 41.1718C15.023 34.3825 18.3564 28.1461 23.2513 23.2512C28.1461 18.3564 34.3825 15.023 41.1719 13.6725C47.9612 12.322 54.9985 13.0151 61.3939 15.6642C67.7894 18.3133 73.2556 22.7993 77.1014 28.555C80.9473 34.3107 83 41.0776 83 48C83 57.2826 79.3125 66.185 72.7488 72.7487C66.185 79.3125 57.2826 83 48 83V83ZM48 19C42.2644 19 36.6575 20.7008 31.8885 23.8874C27.1195 27.0739 23.4025 31.6031 21.2075 36.9022C19.0126 42.2012 18.4383 48.0322 19.5572 53.6576C20.6762 59.2831 23.4382 64.4504 27.4939 68.5061C31.5496 72.5618 36.7169 75.3238 42.3424 76.4428C47.9678 77.5617 53.7988 76.9874 59.0978 74.7925C64.3969 72.5975 68.9261 68.8805 72.1126 64.1115C75.2992 59.3425 77 53.7356 77 48C77 40.3087 73.9447 32.9324 68.5061 27.4939C63.0676 22.0553 55.6913 19 48 19V19Z" fill="url(#paint2_linear)"/>
<defs>
<linearGradient id="paint0_linear" x1="35.28" y1="35.28" x2="60.72" y2="60.72" gradientUnits="userSpaceOnUse">
<stop stop-color="#E88F8D"/>
<stop offset="0.22" stop-color="#E58D8C"/>
<stop offset="0.39" stop-color="#DB878A"/>
<stop offset="0.55" stop-color="#CA7D87"/>
<stop offset="0.7" stop-color="#B26F82"/>
<stop offset="0.84" stop-color="#935C7B"/>
<stop offset="0.98" stop-color="#6E4674"/>
<stop offset="1" stop-color="#674272"/>
</linearGradient>
<linearGradient id="paint1_linear" x1="33.15" y1="33.15" x2="62.85" y2="62.84" gradientUnits="userSpaceOnUse">
<stop stop-color="#666666"/>
<stop offset="1" stop-color="#333333"/>
</linearGradient>
<linearGradient id="paint2_linear" x1="1641.2" y1="1641.2" x2="5104.8" y2="5104.8" gradientUnits="userSpaceOnUse">
<stop stop-color="#666666"/>
<stop offset="1" stop-color="#333333"/>
</linearGradient>
</defs>
</svg>
