<svg width="96" height="96" viewBox="0 0 96 96" fill="none" xmlns="http://www.w3.org/2000/svg">
<path d="M71 42H25V56H71V42Z" fill="url(#paint0_linear)"/>
<path d="M34 36V24H62V36H34ZM62 72V62H34V72H62Z" fill="url(#paint1_linear)"/>
<path d="M81 33H71V15H25V33H15V71H25V81H71V71H81V33ZM31 21H65V33H31V21ZM65 75H31V65H65V75ZM75 65H71V59H25V65H21V39H75V65ZM58 52H52V46H58V52ZM67 46H61V52H67V46Z" fill="url(#paint2_linear)"/>
<defs>
<linearGradient id="paint0_linear" x1="33" y1="34" x2="63" y2="64" gradientUnits="userSpaceOnUse">
<stop stop-color="#A5E4F1"/>
<stop offset="0.25" stop-color="#A2E1EF"/>
<stop offset="0.46" stop-color="#98D8E9"/>
<stop offset="0.64" stop-color="#87C8DF"/>
<stop offset="0.82" stop-color="#6FB1D0"/>
<stop offset="0.98" stop-color="#5194BD"/>
<stop offset="1" stop-color="#4D91BB"/>
</linearGradient>
<linearGradient id="paint1_linear" x1="29" y1="29" x2="67" y2="67" gradientUnits="userSpaceOnUse">
<stop stop-color="#F2F2F2"/>
<stop offset="0.25" stop-color="#EFEFEF"/>
<stop offset="0.45" stop-color="#E5E5E5"/>
<stop offset="0.64" stop-color="#D4D4D4"/>
<stop offset="0.81" stop-color="#BCBCBC"/>
<stop offset="0.98" stop-color="#9E9E9E"/>
<stop offset="1" stop-color="#999999"/>
</linearGradient>
<linearGradient id="paint2_linear" x1="15" y1="48" x2="81" y2="48" gradientUnits="userSpaceOnUse">
<stop stop-color="#666666"/>
<stop offset="1" stop-color="#333333"/>
</linearGradient>
</defs>
</svg>
