<svg width="96" height="96" viewBox="0 0 96 96" fill="none" xmlns="http://www.w3.org/2000/svg">
<path d="M48 65C57.3888 65 65 57.3888 65 48C65 38.6112 57.3888 31 48 31C38.6112 31 31 38.6112 31 48C31 57.3888 38.6112 65 48 65Z" fill="url(#paint0_linear)"/>
<path d="M51 39H45V27H51V39ZM51 57H45V69H51V57ZM69 45H57V51H69V45ZM39 45H27V51H39V45ZM65 35.27L60.73 31L52.24 39.49L56.49 43.73L65 35.27ZM43.76 56.48L39.51 52.24L31 60.73L35.27 65L43.76 56.48ZM65 60.73L56.52 52.24L52.27 56.48L60.73 65L65 60.73ZM43.76 39.52L35.27 31L31 35.27L39.48 43.76L43.76 39.52Z" fill="url(#paint1_linear)"/>
<path d="M48 83C41.0777 83 34.3108 80.9473 28.5551 77.1014C22.7993 73.2556 18.3133 67.7894 15.6642 61.3939C13.0152 54.9985 12.322 47.9612 13.6725 41.1719C15.023 34.3825 18.3564 28.1461 23.2513 23.2513C28.1461 18.3564 34.3825 15.023 41.1719 13.6725C47.9612 12.322 54.9985 13.0152 61.3939 15.6642C67.7894 18.3133 73.2556 22.7993 77.1014 28.5551C80.9473 34.3108 83 41.0777 83 48C83 57.2826 79.3125 66.185 72.7488 72.7488C66.185 79.3125 57.2826 83 48 83V83ZM48 19C42.2644 19 36.6575 20.7008 31.8885 23.8874C27.1195 27.074 23.4025 31.6031 21.2075 36.9022C19.0126 42.2013 18.4383 48.0322 19.5572 53.6576C20.6762 59.2831 23.4382 64.4504 27.4939 68.5061C31.5496 72.5618 36.7169 75.3238 42.3424 76.4428C47.9678 77.5618 53.7988 76.9875 59.0978 74.7925C64.3969 72.5976 68.9261 68.8806 72.1126 64.1115C75.2992 59.3425 77 53.7357 77 48C77 40.3087 73.9447 32.9325 68.5061 27.4939C63.0676 22.0554 55.6913 19 48 19V19Z" fill="url(#paint2_linear)"/>
<defs>
<linearGradient id="paint0_linear" x1="35.98" y1="35.98" x2="60.02" y2="60.02" gradientUnits="userSpaceOnUse">
<stop stop-color="#C2E085"/>
<stop offset="0.2" stop-color="#BFDF85"/>
<stop offset="0.35" stop-color="#B5DB87"/>
<stop offset="0.5" stop-color="#A4D589"/>
<stop offset="0.63" stop-color="#8CCC8D"/>
<stop offset="0.76" stop-color="#6DC191"/>
<stop offset="0.89" stop-color="#48B396"/>
<stop offset="1" stop-color="#1FA49C"/>
</linearGradient>
<linearGradient id="paint1_linear" x1="33.15" y1="33.15" x2="62.85" y2="62.85" gradientUnits="userSpaceOnUse">
<stop stop-color="#666666"/>
<stop offset="1" stop-color="#333333"/>
</linearGradient>
<linearGradient id="paint2_linear" x1="1641.2" y1="1641.2" x2="5104.8" y2="5104.8" gradientUnits="userSpaceOnUse">
<stop stop-color="#666666"/>
<stop offset="1" stop-color="#333333"/>
</linearGradient>
</defs>
</svg>
