<svg width="96" height="96" viewBox="0 0 96 96" fill="none" xmlns="http://www.w3.org/2000/svg">
<path d="M48 21C42.6599 21 37.4397 22.5835 32.9996 25.5503C28.5595 28.5171 25.0988 32.7339 23.0553 37.6675C21.0117 42.6012 20.477 48.0299 21.5188 53.2674C22.5606 58.5049 25.1321 63.3159 28.9081 67.0919C32.6841 70.8679 37.4951 73.4394 42.7326 74.4812C47.9701 75.523 53.3989 74.9883 58.3325 72.9447C63.2661 70.9012 67.4829 67.4405 70.4497 63.0004C73.4165 58.5603 75 53.3401 75 48C75 40.8392 72.1554 33.9716 67.0919 28.9081C62.0284 23.8446 55.1609 21 48 21ZM48 60C45.6266 60 43.3066 59.2962 41.3332 57.9776C39.3598 56.6591 37.8217 54.7849 36.9135 52.5922C36.0052 50.3995 35.7676 47.9867 36.2306 45.6589C36.6936 43.3311 37.8365 41.1929 39.5147 39.5147C41.193 37.8365 43.3312 36.6936 45.6589 36.2306C47.9867 35.7676 50.3995 36.0052 52.5922 36.9134C54.7849 37.8217 56.6591 39.3598 57.9776 41.3332C59.2962 43.3065 60 45.6266 60 48C60 51.1826 58.7357 54.2348 56.4853 56.4853C54.2349 58.7357 51.1826 60 48 60Z" fill="url(#paint0_linear)"/>
<path d="M51 31H45V15H51V31ZM51 65H45V81H51V65ZM81 45H65V51H81V45ZM31 45H15V51H31V45ZM73.46 26.79L69.21 22.54L57.9 33.86L62.14 38.1L73.46 26.79ZM38.1 62.14L33.86 57.9L22.54 69.21L26.79 73.46L38.1 62.14ZM73.46 69.21L62.14 57.9L57.9 62.14L69.21 73.46L73.46 69.21ZM38.1 33.86L26.79 22.54L22.54 26.79L33.86 38.1L38.1 33.86Z" fill="url(#paint1_linear)"/>
<defs>
<linearGradient id="paint0_linear" x1="28.91" y1="28.91" x2="67.09" y2="67.09" gradientUnits="userSpaceOnUse">
<stop stop-color="#C2E085"/>
<stop offset="0.2" stop-color="#BFDF85"/>
<stop offset="0.35" stop-color="#B5DB87"/>
<stop offset="0.5" stop-color="#A4D589"/>
<stop offset="0.63" stop-color="#8CCC8D"/>
<stop offset="0.76" stop-color="#6DC191"/>
<stop offset="0.89" stop-color="#48B396"/>
<stop offset="1" stop-color="#1FA49C"/>
</linearGradient>
<linearGradient id="paint1_linear" x1="24.67" y1="24.67" x2="71.33" y2="71.33" gradientUnits="userSpaceOnUse">
<stop stop-color="#666666"/>
<stop offset="1" stop-color="#333333"/>
</linearGradient>
</defs>
</svg>
