<svg width="96" height="96" viewBox="0 0 96 96" fill="none" xmlns="http://www.w3.org/2000/svg">
<path d="M48 68C59.0457 68 68 59.0457 68 48C68 36.9543 59.0457 28 48 28C36.9543 28 28 36.9543 28 48C28 59.0457 36.9543 68 48 68Z" fill="url(#paint0_linear)"/>
<path d="M48 83C41.0777 83 34.3108 80.9473 28.5551 77.1014C22.7993 73.2556 18.3133 67.7894 15.6642 61.3939C13.0152 54.9985 12.322 47.9612 13.6725 41.1719C15.023 34.3825 18.3564 28.1461 23.2513 23.2513C28.1461 18.3564 34.3825 15.023 41.1719 13.6725C47.9612 12.322 54.9985 13.0152 61.3939 15.6642C67.7894 18.3133 73.2556 22.7993 77.1014 28.5551C80.9473 34.3108 83 41.0777 83 48C83 57.2826 79.3125 66.185 72.7488 72.7488C66.185 79.3125 57.2826 83 48 83V83ZM48 19C42.2644 19 36.6575 20.7008 31.8885 23.8874C27.1195 27.074 23.4025 31.6031 21.2075 36.9022C19.0126 42.2013 18.4383 48.0322 19.5572 53.6576C20.6762 59.2831 23.4382 64.4504 27.4939 68.5061C31.5496 72.5618 36.7169 75.3238 42.3424 76.4428C47.9678 77.5618 53.7988 76.9875 59.0978 74.7925C64.3969 72.5976 68.9261 68.8806 72.1126 64.1115C75.2992 59.3425 77 53.7357 77 48C77 40.3087 73.9447 32.9325 68.5061 27.4939C63.0676 22.0554 55.6913 19 48 19V19Z" fill="url(#paint1_linear)"/>
<path d="M48.0001 71C44.6209 70.9991 41.2834 70.2537 38.2251 68.8167C35.1667 67.3797 32.4625 65.2865 30.3049 62.6858C28.1472 60.0852 26.5891 57.0411 25.7414 53.77C24.8937 50.4989 24.7771 47.0812 25.4001 43.76L31.2701 43.64C31.6809 45.4397 32.5665 47.0964 33.8348 48.4378C35.1031 49.7792 36.7076 50.7562 38.4815 51.2672C40.2554 51.7782 42.1338 51.8045 43.9213 51.3434C45.7088 50.8823 47.34 49.9506 48.6454 48.6453C49.9507 47.34 50.8824 45.7087 51.3435 43.9212C51.8046 42.1337 51.7783 40.2553 51.2673 38.4814C50.7563 36.7075 49.7793 35.103 48.4379 33.8347C47.0965 32.5665 45.4398 31.6808 43.6401 31.27L43.7601 25.4C46.9069 24.8053 50.1432 24.8744 53.2618 25.6028C56.3804 26.3311 59.3125 27.7028 61.8704 29.6298C64.4283 31.5568 66.5555 33.9968 68.1159 36.7935C69.6763 39.5901 70.6355 42.6818 70.932 45.8706C71.2285 49.0594 70.8558 52.2749 69.8378 55.3113C68.8197 58.3477 67.1788 61.1381 65.0201 63.5037C62.8614 65.8693 60.2324 67.758 57.3015 69.0488C54.3707 70.3397 51.2026 71.0043 48.0001 71ZM32.5701 55.14C33.7201 57.6233 35.4527 59.7923 37.6206 61.4626C39.7885 63.1329 42.3276 64.2551 45.0221 64.7339C47.7166 65.2127 50.4869 65.0339 53.0975 64.2126C55.7081 63.3914 58.0818 61.9521 60.017 60.0169C61.9521 58.0817 63.3915 55.708 64.2127 53.0974C65.0339 50.4868 65.2128 47.7165 64.734 45.022C64.2552 42.3275 63.133 39.7884 61.4627 37.6205C59.7924 35.4526 57.6234 33.72 55.1401 32.57C64.4201 47.22 47.2401 64.43 32.5701 55.14Z" fill="url(#paint2_linear)"/>
<defs>
<linearGradient id="paint0_linear" x1="33.86" y1="33.86" x2="62.14" y2="62.14" gradientUnits="userSpaceOnUse">
<stop stop-color="#FFDA75"/>
<stop offset="0.28" stop-color="#FFD773"/>
<stop offset="0.51" stop-color="#FDCD6E"/>
<stop offset="0.71" stop-color="#FBBC66"/>
<stop offset="0.91" stop-color="#F8A459"/>
<stop offset="1" stop-color="#F69652"/>
</linearGradient>
<linearGradient id="paint1_linear" x1="23.26" y1="23.26" x2="72.74" y2="72.74" gradientUnits="userSpaceOnUse">
<stop stop-color="#666666"/>
<stop offset="1" stop-color="#333333"/>
</linearGradient>
<linearGradient id="paint2_linear" x1="1616.55" y1="1615.68" x2="2981.83" y2="2981.7" gradientUnits="userSpaceOnUse">
<stop stop-color="#666666"/>
<stop offset="1" stop-color="#333333"/>
</linearGradient>
</defs>
</svg>
