<svg width="96" height="96" viewBox="0 0 96 96" fill="none" xmlns="http://www.w3.org/2000/svg">
<path d="M48 70C43.3942 70.0048 38.9044 68.556 35.17 65.86C36.1 66 37 66 38 66C41.6771 66 45.3181 65.2757 48.7152 63.8686C52.1123 62.4615 55.199 60.399 57.799 57.799C60.3991 55.1989 62.4615 52.1122 63.8687 48.7151C65.2758 45.318 66 41.677 66 38C66 37 66 36.1 65.86 35.17C68.2194 38.4565 69.6269 42.3299 69.9277 46.3644C70.2284 50.3989 69.4109 54.4383 67.5649 58.0383C65.7189 61.6383 62.9159 64.6595 59.4642 66.7699C56.0125 68.8802 52.0458 69.9979 48 70V70Z" fill="url(#paint0_linear)"/>
<path d="M48.0001 81C43.1517 80.9992 38.3631 79.9302 33.9748 77.8689C29.5865 75.8076 25.7063 72.8046 22.6102 69.0736C19.5141 65.3426 17.2781 60.9752 16.0613 56.2821C14.8445 51.5889 14.6768 46.6853 15.5701 41.92L21.4401 41.8C22.1168 44.7613 23.5746 47.4872 25.6619 49.6942C27.7492 51.9011 30.3897 53.5084 33.3088 54.349C36.2278 55.1895 39.3188 55.2326 42.2601 54.4736C45.2015 53.7147 47.8857 52.1815 50.0337 50.0336C52.1816 47.8856 53.7148 45.2014 54.4737 42.2601C55.2326 39.3187 55.1896 36.2278 54.3491 33.3087C53.5085 30.3897 51.9012 27.7491 49.6942 25.6618C47.4873 23.5745 44.7614 22.1167 41.8001 21.44L41.9201 15.57C46.434 14.72 51.0758 14.8216 55.5482 15.8685C60.0206 16.9154 64.2252 18.8845 67.893 21.6496C71.5607 24.4148 74.6108 27.9152 76.8481 31.9269C79.0853 35.9385 80.4604 40.3731 80.8854 44.9467C81.3104 49.5203 80.7759 54.1323 79.3162 58.4874C77.8564 62.8426 75.5035 66.8451 72.4081 70.2388C69.3126 73.6324 65.5428 76.3424 61.3398 78.1955C57.1369 80.0485 52.5934 81.0037 48.0001 81V81ZM21.7401 54.31C22.8632 58.9746 25.209 63.2557 28.536 66.7127C31.8631 70.1697 36.0513 72.6777 40.6695 73.9785C45.2877 75.2794 50.1692 75.3261 54.8115 74.1139C59.4537 72.9017 63.6892 70.4744 67.0818 67.0817C70.4745 63.6891 72.9018 59.4537 74.114 54.8114C75.3262 50.1691 75.2795 45.2877 73.9786 40.6694C72.6778 36.0512 70.1698 31.863 66.7128 28.536C63.2558 25.2089 58.9747 22.8631 54.3101 21.74C58.6291 26.059 61.0555 31.9169 61.0555 38.025C61.0555 44.133 58.6291 49.9909 54.3101 54.31C49.991 58.629 44.1331 61.0555 38.0251 61.0555C31.917 61.0555 26.0591 58.629 21.7401 54.31V54.31Z" fill="url(#paint1_linear)"/>
<defs>
<linearGradient id="paint0_linear" x1="50.51" y1="50.51" x2="63.55" y2="63.55" gradientUnits="userSpaceOnUse">
<stop stop-color="#FFDA75"/>
<stop offset="0.28" stop-color="#FFD773"/>
<stop offset="0.51" stop-color="#FDCD6E"/>
<stop offset="0.71" stop-color="#FBBC66"/>
<stop offset="0.91" stop-color="#F8A459"/>
<stop offset="1" stop-color="#F69652"/>
</linearGradient>
<linearGradient id="paint1_linear" x1="28.7401" y1="28.74" x2="71.3201" y2="71.32" gradientUnits="userSpaceOnUse">
<stop stop-color="#666666"/>
<stop offset="1" stop-color="#333333"/>
</linearGradient>
</defs>
</svg>
