<svg width="96" height="96" viewBox="0 0 96 96" fill="none" xmlns="http://www.w3.org/2000/svg">
<path d="M48 48C51.0014 53.1964 55.9439 56.9878 61.7404 58.5406C67.537 60.0933 73.7129 59.2802 78.91 56.28V56.28C80.3642 50.8544 80.3646 45.1415 78.9111 39.7157C77.4577 34.2899 74.6016 29.3422 70.63 25.37V25.37C70.63 31.3718 68.2458 37.1279 64.0018 41.3718C59.7579 45.6158 54.0018 48 48 48Z" fill="url(#paint0_linear)"/>
<path d="M48 80C50.7992 80.0015 53.5864 79.635 56.29 78.91C53.7152 77.4256 51.4582 75.4484 49.6479 73.0913C47.8376 70.7342 46.5096 68.0435 45.7397 65.1729C44.9698 62.3023 44.7732 59.3081 45.161 56.3615C45.5488 53.4149 46.5135 50.5736 48 48C41.9981 48 36.2421 50.3842 31.9982 54.6282C27.7542 58.8721 25.37 64.6281 25.37 70.63C28.3387 73.6057 31.8662 75.9654 35.7499 77.5735C39.6335 79.1815 43.7966 80.0061 48 80V80Z" fill="url(#paint1_linear)"/>
<path d="M78.91 56.28C73.7129 59.2802 67.537 60.0933 61.7405 58.5406C55.9439 56.9878 51.0015 53.1964 48 48C44.9998 53.1971 44.1867 59.373 45.7394 65.1695C47.2922 70.9661 51.0837 75.9086 56.28 78.91V78.91C61.7066 77.4563 66.6548 74.5997 70.6273 70.6272C74.5997 66.6548 77.4564 61.7066 78.91 56.28Z" fill="url(#paint2_linear)"/>
<path d="M39.72 17.09C34.2934 18.5436 29.3452 21.4003 25.3728 25.3727C21.4003 29.3452 18.5437 34.2934 17.09 39.72V39.72C22.2871 36.7198 28.463 35.9066 34.2595 37.4594C40.0561 39.0121 44.9986 42.8036 48 48C51.0002 42.8029 51.8133 36.6269 50.2606 30.8304C48.7078 25.0339 44.9164 20.0914 39.72 17.09V17.09Z" fill="url(#paint3_linear)"/>
<path d="M17.09 39.72C15.6358 45.1456 15.6354 50.8585 17.0889 56.2843C18.5423 61.7101 21.3984 66.6578 25.37 70.63C25.37 64.6281 27.7542 58.8721 31.9982 54.6282C36.2421 50.3842 41.9982 48 48 48C44.9986 42.8036 40.0561 39.0122 34.2596 37.4594C28.463 35.9067 22.2871 36.7198 17.09 39.72V39.72Z" fill="url(#paint4_linear)"/>
<path d="M48 16C45.2041 15.9978 42.4201 16.3643 39.72 17.09V17.09C44.9164 20.0914 48.7078 25.0339 50.2606 30.8304C51.8133 36.627 51.0002 42.8029 48 48C54.0018 48 59.7579 45.6157 64.0018 41.3718C68.2458 37.1279 70.63 31.3718 70.63 25.37V25.37C67.6613 22.3942 64.1338 20.0345 60.2501 18.4265C56.3665 16.8185 52.2034 15.9938 48 16V16Z" fill="url(#paint5_linear)"/>
<path d="M48 13C41.0776 13 34.3107 15.0527 28.555 18.8986C22.7993 22.7444 18.3133 28.2107 15.6642 34.6061C13.0151 41.0015 12.322 48.0388 13.6725 54.8282C15.023 61.6175 18.3564 67.8539 23.2512 72.7487C28.1461 77.6436 34.3825 80.977 41.1718 82.3275C47.9612 83.678 54.9985 82.9849 61.3939 80.3358C67.7893 77.6867 73.2556 73.2007 77.1014 67.445C80.9473 61.6892 83 54.9223 83 48C83 38.7174 79.3125 29.815 72.7487 23.2513C66.185 16.6875 57.2826 13 48 13V13ZM76.32 54.25C72.6081 56.1073 68.4012 56.7344 64.309 56.0404C60.2168 55.3464 56.4519 53.3673 53.56 50.39C58.0191 49.3843 62.1297 47.2088 65.4691 44.0874C68.8085 40.9659 71.2561 37.0112 72.56 32.63C76.6122 39.06 77.9634 46.8294 76.32 54.25V54.25ZM67.56 26.61C67.2954 30.7437 65.73 34.6878 63.0879 37.8778C60.4457 41.0678 56.8621 43.3403 52.85 44.37C54.2203 40.0032 54.4006 35.3498 53.3722 30.8901C52.3439 26.4304 50.1441 22.3258 47 19C54.5882 18.7292 61.9767 21.464 67.56 26.61V26.61ZM39.25 20.35C42.6928 22.6523 45.3202 25.9835 46.7569 29.868C48.1936 33.7524 48.3662 37.9916 47.25 41.98C44.159 38.6167 40.2259 36.14 35.8572 34.8056C31.4885 33.4713 26.8427 33.3278 22.4 34.39C25.9739 27.6942 32.0192 22.657 39.25 20.35V20.35ZM19.69 41.75C23.4004 39.8935 27.6056 39.2668 31.696 39.9609C35.7865 40.6549 39.5496 42.6335 42.44 45.61C37.9809 46.6157 33.8702 48.7912 30.5308 51.9126C27.1914 55.0341 24.7439 58.9888 23.44 63.37C19.386 56.9405 18.0381 49.1692 19.69 41.75ZM28.44 69.39C28.7045 65.2563 30.2699 61.3122 32.9121 58.1222C35.5543 54.9322 39.1379 52.6597 43.15 51.63C41.7797 55.9968 41.5994 60.6502 42.6277 65.1099C43.6561 69.5696 45.8558 73.6742 49 77C41.4118 77.2708 34.0232 74.536 28.44 69.39V69.39ZM56.75 75.65C53.3072 73.3477 50.6798 70.0165 49.2431 66.132C47.8064 62.2476 47.6338 58.0084 48.75 54.02C51.8383 57.3867 55.7716 59.8652 60.1415 61.1981C64.5114 62.5311 69.1584 62.6698 73.6 61.6C70.0298 68.301 63.9835 73.3425 56.75 75.65Z" fill="url(#paint6_linear)"/>
<defs>
<linearGradient id="paint0_linear" x1="52.24" y1="53.83" x2="79.96" y2="37.83" gradientUnits="userSpaceOnUse">
<stop stop-color="#E88F8D"/>
<stop offset="0.22" stop-color="#E58D8C"/>
<stop offset="0.39" stop-color="#DB878A"/>
<stop offset="0.55" stop-color="#CA7D87"/>
<stop offset="0.7" stop-color="#B26F82"/>
<stop offset="0.84" stop-color="#935C7B"/>
<stop offset="0.98" stop-color="#6E4674"/>
<stop offset="1" stop-color="#674272"/>
</linearGradient>
<linearGradient id="paint1_linear" x1="52.45" y1="51.6" x2="37" y2="78.37" gradientUnits="userSpaceOnUse">
<stop stop-color="#A5E4F1"/>
<stop offset="0.25" stop-color="#A2E1EF"/>
<stop offset="0.46" stop-color="#98D8E9"/>
<stop offset="0.64" stop-color="#87C8DF"/>
<stop offset="0.82" stop-color="#6FB1D0"/>
<stop offset="0.98" stop-color="#5194BD"/>
<stop offset="1" stop-color="#4D91BB"/>
</linearGradient>
<linearGradient id="paint2_linear" x1="48.5" y1="49.05" x2="72.5" y2="73.05" gradientUnits="userSpaceOnUse">
<stop stop-color="#CE93D8"/>
<stop offset="0.23" stop-color="#CC90D7"/>
<stop offset="0.41" stop-color="#C586D2"/>
<stop offset="0.57" stop-color="#B875CA"/>
<stop offset="0.73" stop-color="#A75DBF"/>
<stop offset="0.88" stop-color="#923FB1"/>
<stop offset="1" stop-color="#7B1FA2"/>
</linearGradient>
<linearGradient id="paint3_linear" x1="41.95" y1="48.83" x2="26.49" y2="22.05" gradientUnits="userSpaceOnUse">
<stop stop-color="#FFDA75"/>
<stop offset="0.28" stop-color="#FFD773"/>
<stop offset="0.51" stop-color="#FDCD6E"/>
<stop offset="0.71" stop-color="#FBBC66"/>
<stop offset="0.91" stop-color="#F8A459"/>
<stop offset="1" stop-color="#F69652"/>
</linearGradient>
<linearGradient id="paint4_linear" x1="40.91" y1="41.4" x2="15.57" y2="59.14" gradientUnits="userSpaceOnUse">
<stop stop-color="#C2E085"/>
<stop offset="0.2" stop-color="#BFDF85"/>
<stop offset="0.35" stop-color="#B5DB87"/>
<stop offset="0.5" stop-color="#A4D589"/>
<stop offset="0.63" stop-color="#8CCC8D"/>
<stop offset="0.76" stop-color="#6DC191"/>
<stop offset="0.89" stop-color="#48B396"/>
<stop offset="1" stop-color="#1FA49C"/>
</linearGradient>
<linearGradient id="paint5_linear" x1="45.29" y1="41.38" x2="61.3" y2="13.66" gradientUnits="userSpaceOnUse">
<stop stop-color="#FFCA28"/>
<stop offset="0.22" stop-color="#FEC727"/>
<stop offset="0.4" stop-color="#FCBD24"/>
<stop offset="0.56" stop-color="#F9AC1E"/>
<stop offset="0.71" stop-color="#F49416"/>
<stop offset="0.86" stop-color="#EE760C"/>
<stop offset="1" stop-color="#E65100"/>
</linearGradient>
<linearGradient id="paint6_linear" x1="23.26" y1="23.26" x2="72.74" y2="72.74" gradientUnits="userSpaceOnUse">
<stop stop-color="#666666"/>
<stop offset="1" stop-color="#333333"/>
</linearGradient>
</defs>
</svg>
