<svg width="96" height="96" viewBox="0 0 96 96" fill="none" xmlns="http://www.w3.org/2000/svg">
<path d="M26 45C26 39.1652 28.3178 33.5695 32.4436 29.4437C36.5694 25.3179 42.1652 23 48 23C53.8348 23 59.4306 25.3179 63.5564 29.4437C67.6822 33.5695 70 39.1652 70 45H26Z" fill="url(#paint0_linear)"/>
<path d="M34 73C38.4183 73 42 69.4183 42 65C42 60.5817 38.4183 57 34 57C29.5817 57 26 60.5817 26 65C26 69.4183 29.5817 73 34 73Z" fill="url(#paint1_linear)"/>
<path d="M62 73C66.4183 73 70 69.4183 70 65C70 60.5817 66.4183 57 62 57C57.5817 57 54 60.5817 54 65C54 69.4183 57.5817 73 62 73Z" fill="url(#paint2_linear)"/>
<path d="M72.81 42C72.0597 35.9487 69.1236 30.3803 64.5543 26.3426C59.9851 22.3049 54.0976 20.0764 48 20.0764C41.9024 20.0764 36.0149 22.3049 31.4457 26.3426C26.8764 30.3803 23.9403 35.9487 23.19 42H15V48H81V42H72.81ZM48 26C52.5154 26.0052 56.8814 27.6183 60.3154 30.5502C63.7494 33.4821 66.027 37.5412 66.74 42H29.26C29.973 37.5412 32.2506 33.4821 35.6846 30.5502C39.1186 27.6183 43.4846 26.0052 48 26V26Z" fill="url(#paint3_linear)"/>
<path d="M62 54C59.6079 54.0029 57.2819 54.7854 55.3746 56.229C53.4672 57.6726 52.0824 59.6986 51.43 62H44.57C43.8459 59.4456 42.2224 57.2394 39.999 55.7883C37.7755 54.3372 35.1023 53.7392 32.4726 54.1048C29.8428 54.4703 27.434 55.7746 25.6907 57.7771C23.9473 59.7796 22.987 62.345 22.987 65C22.987 67.6551 23.9473 70.2205 25.6907 72.223C27.434 74.2254 29.8428 75.5298 32.4726 75.8953C35.1023 76.2608 37.7755 75.6629 39.999 74.2118C42.2224 72.7607 43.8459 70.5544 44.57 68H51.43C51.9883 69.9693 53.0849 71.7438 54.5966 73.1239C56.1084 74.504 57.9752 75.4349 59.9871 75.8118C61.999 76.1888 64.0762 75.997 65.985 75.2579C67.8938 74.5188 69.5585 73.2617 70.7919 71.6281C72.0253 69.9945 72.7784 68.0491 72.9665 66.0109C73.1546 63.9726 72.7702 61.9223 71.8566 60.0906C70.9431 58.2588 69.5365 56.7183 67.7952 55.6423C66.0539 54.5664 64.0469 53.9976 62 54V54ZM34 70C33.0111 70 32.0444 69.7068 31.2222 69.1574C30.3999 68.608 29.759 67.8271 29.3806 66.9134C29.0022 65.9998 28.9032 64.9945 29.0961 64.0246C29.289 63.0547 29.7652 62.1638 30.4645 61.4645C31.1637 60.7652 32.0546 60.289 33.0246 60.0961C33.9945 59.9032 34.9998 60.0022 35.9134 60.3806C36.8271 60.7591 37.6079 61.3999 38.1574 62.2222C38.7068 63.0444 39 64.0111 39 65C39 66.3261 38.4732 67.5979 37.5355 68.5356C36.5979 69.4732 35.3261 70 34 70ZM62 70C61.0111 70 60.0444 69.7068 59.2222 69.1574C58.3999 68.608 57.759 67.8271 57.3806 66.9134C57.0022 65.9998 56.9032 64.9945 57.0961 64.0246C57.289 63.0547 57.7652 62.1638 58.4645 61.4645C59.1637 60.7652 60.0546 60.289 61.0246 60.0961C61.9945 59.9032 62.9998 60.0022 63.9134 60.3806C64.8271 60.7591 65.6079 61.3999 66.1574 62.2222C66.7068 63.0444 67 64.0111 67 65C67 66.3261 66.4732 67.5979 65.5355 68.5356C64.5979 69.4732 63.3261 70 62 70Z" fill="url(#paint4_linear)"/>
<defs>
<linearGradient id="paint0_linear" x1="34.72" y1="27.17" x2="61.28" y2="53.72" gradientUnits="userSpaceOnUse">
<stop stop-color="#F2F2F2"/>
<stop offset="0.25" stop-color="#EFEFEF"/>
<stop offset="0.45" stop-color="#E5E5E5"/>
<stop offset="0.64" stop-color="#D4D4D4"/>
<stop offset="0.81" stop-color="#BCBCBC"/>
<stop offset="0.98" stop-color="#9E9E9E"/>
<stop offset="1" stop-color="#999999"/>
</linearGradient>
<linearGradient id="paint1_linear" x1="479.44" y1="1006.44" x2="660.56" y2="1187.56" gradientUnits="userSpaceOnUse">
<stop stop-color="#F2F2F2"/>
<stop offset="0.25" stop-color="#EFEFEF"/>
<stop offset="0.45" stop-color="#E5E5E5"/>
<stop offset="0.64" stop-color="#D4D4D4"/>
<stop offset="0.81" stop-color="#BCBCBC"/>
<stop offset="0.98" stop-color="#9E9E9E"/>
<stop offset="1" stop-color="#999999"/>
</linearGradient>
<linearGradient id="paint2_linear" x1="955.44" y1="1006.44" x2="1136.56" y2="1187.56" gradientUnits="userSpaceOnUse">
<stop stop-color="#F2F2F2"/>
<stop offset="0.25" stop-color="#EFEFEF"/>
<stop offset="0.45" stop-color="#E5E5E5"/>
<stop offset="0.64" stop-color="#D4D4D4"/>
<stop offset="0.81" stop-color="#BCBCBC"/>
<stop offset="0.98" stop-color="#9E9E9E"/>
<stop offset="1" stop-color="#999999"/>
</linearGradient>
<linearGradient id="paint3_linear" x1="30" y1="27" x2="66" y2="63" gradientUnits="userSpaceOnUse">
<stop stop-color="#666666"/>
<stop offset="1" stop-color="#333333"/>
</linearGradient>
<linearGradient id="paint4_linear" x1="1685.35" y1="1159.06" x2="2164.32" y2="2248.19" gradientUnits="userSpaceOnUse">
<stop stop-color="#666666"/>
<stop offset="1" stop-color="#333333"/>
</linearGradient>
</defs>
</svg>
