<svg width="96" height="96" viewBox="0 0 96 96" fill="none" xmlns="http://www.w3.org/2000/svg">
<path d="M78 18H18V78H78V18Z" fill="url(#paint0_linear)"/>
<path d="M60.83 44.33C65.8945 44.33 70 40.2267 70 35.165C70 30.1033 65.8945 26 60.83 26L35.17 26C30.1055 26 26 30.1033 26 35.165C26 40.2267 30.1055 44.33 35.17 44.33H60.83Z" fill="url(#paint1_linear)"/>
<path d="M60.83 37.17C61.9345 37.17 62.83 36.2746 62.83 35.17C62.83 34.0654 61.9345 33.17 60.83 33.17C59.7254 33.17 58.83 34.0654 58.83 35.17C58.83 36.2746 59.7254 37.17 60.83 37.17Z" fill="url(#paint2_linear)"/>
<path d="M35.17 51.67C30.1055 51.67 26 55.7733 26 60.835C26 65.8967 30.1055 70 35.17 70H60.83C65.8945 70 70 65.8967 70 60.835C70 55.7733 65.8945 51.67 60.83 51.67H35.17Z" fill="url(#paint3_linear)"/>
<path d="M35.17 62.83C36.2746 62.83 37.17 61.9346 37.17 60.83C37.17 59.7254 36.2746 58.83 35.17 58.83C34.0655 58.83 33.17 59.7254 33.17 60.83C33.17 61.9346 34.0655 62.83 35.17 62.83Z" fill="url(#paint4_linear)"/>
<path d="M81 81H15V15H81V81ZM21 75H75V21H21V75Z" fill="url(#paint5_linear)"/>
<path d="M60.8299 47.33H35.1699C33.5431 47.3766 31.9234 47.0965 30.4067 46.5061C28.89 45.9158 27.5071 45.0272 26.3399 43.8929C25.1726 42.7587 24.2448 41.4019 23.6112 39.9027C22.9776 38.4036 22.6511 36.7925 22.6511 35.165C22.6511 33.5374 22.9776 31.9264 23.6112 30.4273C24.2448 28.9281 25.1726 27.5713 26.3399 26.4371C27.5071 25.3028 28.89 24.4142 30.4067 23.8239C31.9234 23.2335 33.5431 22.9533 35.1699 23H60.8299C62.4568 22.9533 64.0765 23.2335 65.5932 23.8239C67.1099 24.4142 68.4928 25.3028 69.66 26.4371C70.8273 27.5713 71.7551 28.9281 72.3887 30.4273C73.0223 31.9264 73.3488 33.5374 73.3488 35.165C73.3488 36.7925 73.0223 38.4036 72.3887 39.9027C71.7551 41.4019 70.8273 42.7587 69.66 43.8929C68.4928 45.0272 67.1099 45.9158 65.5932 46.5061C64.0765 47.0965 62.4568 47.3766 60.8299 47.33V47.33ZM35.1699 29C34.3395 28.9665 33.5108 29.1012 32.7336 29.396C31.9565 29.6907 31.2469 30.1394 30.6475 30.7152C30.048 31.291 29.5711 31.9819 29.2453 32.7466C28.9195 33.5112 28.7516 34.3338 28.7516 35.165C28.7516 35.9962 28.9195 36.8188 29.2453 37.5834C29.5711 38.3481 30.048 39.039 30.6475 39.6148C31.2469 40.1906 31.9565 40.6393 32.7336 40.934C33.5108 41.2288 34.3395 41.3635 35.1699 41.33H60.8299C61.6604 41.3635 62.4891 41.2288 63.2663 40.934C64.0434 40.6393 64.753 40.1906 65.3524 39.6148C65.9519 39.039 66.4288 38.3481 66.7546 37.5834C67.0804 36.8188 67.2483 35.9962 67.2483 35.165C67.2483 34.3338 67.0804 33.5112 66.7546 32.7466C66.4288 31.9819 65.9519 31.291 65.3524 30.7152C64.753 30.1394 64.0434 29.6907 63.2663 29.396C62.4891 29.1012 61.6604 28.9665 60.8299 29H35.1699Z" fill="url(#paint6_linear)"/>
<path d="M60.83 39.17C60.0388 39.17 59.2655 38.9354 58.6077 38.4959C57.9499 38.0563 57.4372 37.4316 57.1344 36.7007C56.8317 35.9698 56.7525 35.1655 56.9068 34.3896C57.0612 33.6137 57.4421 32.901 58.0015 32.3416C58.5609 31.7821 59.2737 31.4012 60.0496 31.2468C60.8255 31.0925 61.6298 31.1717 62.3607 31.4745C63.0916 31.7772 63.7163 32.2899 64.1558 32.9477C64.5954 33.6055 64.83 34.3789 64.83 35.17C64.83 36.2308 64.4085 37.2483 63.6584 37.9984C62.9082 38.7486 61.8908 39.17 60.83 39.17Z" fill="url(#paint7_linear)"/>
<path d="M60.8299 73H35.1699C33.5431 73.0466 31.9234 72.7665 30.4067 72.1761C28.89 71.5858 27.5071 70.6972 26.3399 69.5629C25.1726 68.4287 24.2448 67.0719 23.6112 65.5727C22.9776 64.0735 22.6511 62.4625 22.6511 60.835C22.6511 59.2074 22.9776 57.5964 23.6112 56.0973C24.2448 54.5981 25.1726 53.2413 26.3399 52.107C27.5071 50.9728 28.89 50.0842 30.4067 49.4938C31.9234 48.9035 33.5431 48.6233 35.1699 48.67H60.8299C62.4568 48.6233 64.0765 48.9035 65.5932 49.4938C67.1099 50.0842 68.4928 50.9728 69.66 52.107C70.8273 53.2413 71.7551 54.5981 72.3887 56.0973C73.0223 57.5964 73.3488 59.2074 73.3488 60.835C73.3488 62.4625 73.0223 64.0735 72.3887 65.5727C71.7551 67.0719 70.8273 68.4287 69.66 69.5629C68.4928 70.6972 67.1099 71.5858 65.5932 72.1761C64.0765 72.7665 62.4568 73.0466 60.8299 73V73ZM35.1699 54.67C34.3395 54.6365 33.5108 54.7712 32.7336 55.066C31.9565 55.3607 31.2469 55.8094 30.6475 56.3852C30.048 56.961 29.5711 57.6519 29.2453 58.4166C28.9195 59.1812 28.7516 60.0038 28.7516 60.835C28.7516 61.6661 28.9195 62.4887 29.2453 63.2534C29.5711 64.018 30.048 64.709 30.6475 65.2848C31.2469 65.8605 31.9565 66.3093 32.7336 66.604C33.5108 66.8988 34.3395 67.0334 35.1699 67H60.8299C61.6604 67.0334 62.4891 66.8988 63.2663 66.604C64.0434 66.3093 64.753 65.8605 65.3524 65.2848C65.9519 64.709 66.4288 64.018 66.7546 63.2534C67.0804 62.4887 67.2483 61.6661 67.2483 60.835C67.2483 60.0038 67.0804 59.1812 66.7546 58.4166C66.4288 57.6519 65.9519 56.961 65.3524 56.3852C64.753 55.8094 64.0434 55.3607 63.2663 55.066C62.4891 54.7712 61.6604 54.6365 60.8299 54.67H35.1699Z" fill="url(#paint8_linear)"/>
<path d="M35.17 64.83C34.3789 64.83 33.6056 64.5954 32.9478 64.1559C32.29 63.7164 31.7773 63.0917 31.4745 62.3608C31.1718 61.6298 31.0926 60.8256 31.2469 60.0497C31.4012 59.2737 31.7822 58.561 32.3416 58.0016C32.901 57.4422 33.6138 57.0612 34.3897 56.9069C35.1656 56.7525 35.9699 56.8318 36.7008 57.1345C37.4317 57.4373 38.0564 57.9499 38.4959 58.6077C38.9355 59.2655 39.17 60.0389 39.17 60.83C39.17 61.8909 38.7486 62.9083 37.9985 63.6584C37.2483 64.4086 36.2309 64.83 35.17 64.83Z" fill="url(#paint9_linear)"/>
<defs>
<linearGradient id="paint0_linear" x1="18" y1="18" x2="78" y2="78" gradientUnits="userSpaceOnUse">
<stop stop-color="#FAFAFA"/>
<stop offset="0.29" stop-color="#F7F7F7"/>
<stop offset="0.53" stop-color="#EDEDED"/>
<stop offset="0.75" stop-color="#DCDCDC"/>
<stop offset="0.95" stop-color="#C4C4C4"/>
<stop offset="1" stop-color="#BDBDBD"/>
</linearGradient>
<linearGradient id="paint1_linear" x1="35.1" y1="22.27" x2="60.9" y2="48.07" gradientUnits="userSpaceOnUse">
<stop stop-color="#A5E4F1"/>
<stop offset="0.25" stop-color="#A2E1EF"/>
<stop offset="0.46" stop-color="#98D8E9"/>
<stop offset="0.64" stop-color="#87C8DF"/>
<stop offset="0.82" stop-color="#6FB1D0"/>
<stop offset="0.98" stop-color="#5194BD"/>
<stop offset="1" stop-color="#4D91BB"/>
</linearGradient>
<linearGradient id="paint2_linear" x1="296.51" y1="168.17" x2="307.83" y2="179.49" gradientUnits="userSpaceOnUse">
<stop stop-color="#FAFAFA"/>
<stop offset="0.29" stop-color="#F7F7F7"/>
<stop offset="0.53" stop-color="#EDEDED"/>
<stop offset="0.75" stop-color="#DCDCDC"/>
<stop offset="0.95" stop-color="#C4C4C4"/>
<stop offset="1" stop-color="#BDBDBD"/>
</linearGradient>
<linearGradient id="paint3_linear" x1="35.1" y1="47.93" x2="60.9" y2="73.73" gradientUnits="userSpaceOnUse">
<stop stop-color="#E88F8D"/>
<stop offset="0.22" stop-color="#E58D8C"/>
<stop offset="0.39" stop-color="#DB878A"/>
<stop offset="0.55" stop-color="#CA7D87"/>
<stop offset="0.7" stop-color="#B26F82"/>
<stop offset="0.84" stop-color="#935C7B"/>
<stop offset="0.98" stop-color="#6E4674"/>
<stop offset="1" stop-color="#674272"/>
</linearGradient>
<linearGradient id="paint4_linear" x1="168.17" y1="296.51" x2="179.49" y2="307.83" gradientUnits="userSpaceOnUse">
<stop stop-color="#FAFAFA"/>
<stop offset="0.29" stop-color="#F7F7F7"/>
<stop offset="0.53" stop-color="#EDEDED"/>
<stop offset="0.75" stop-color="#DCDCDC"/>
<stop offset="0.95" stop-color="#C4C4C4"/>
<stop offset="1" stop-color="#BDBDBD"/>
</linearGradient>
<linearGradient id="paint5_linear" x1="15" y1="15" x2="81" y2="81" gradientUnits="userSpaceOnUse">
<stop stop-color="#666666"/>
<stop offset="1" stop-color="#333333"/>
</linearGradient>
<linearGradient id="paint6_linear" x1="1694.66" y1="513.446" x2="2265.34" y2="1701.72" gradientUnits="userSpaceOnUse">
<stop stop-color="#666666"/>
<stop offset="1" stop-color="#333333"/>
</linearGradient>
<linearGradient id="paint7_linear" x1="520.91" y1="289.89" x2="566.11" y2="335.09" gradientUnits="userSpaceOnUse">
<stop stop-color="#FAFAFA"/>
<stop offset="0.29" stop-color="#F7F7F7"/>
<stop offset="0.53" stop-color="#EDEDED"/>
<stop offset="0.75" stop-color="#DCDCDC"/>
<stop offset="0.95" stop-color="#C4C4C4"/>
<stop offset="1" stop-color="#BDBDBD"/>
</linearGradient>
<linearGradient id="paint8_linear" x1="1694.66" y1="1163.92" x2="2265.34" y2="2352.2" gradientUnits="userSpaceOnUse">
<stop stop-color="#666666"/>
<stop offset="1" stop-color="#333333"/>
</linearGradient>
<linearGradient id="paint9_linear" x1="289.89" y1="520.91" x2="335.09" y2="566.11" gradientUnits="userSpaceOnUse">
<stop stop-color="#FAFAFA"/>
<stop offset="0.29" stop-color="#F7F7F7"/>
<stop offset="0.53" stop-color="#EDEDED"/>
<stop offset="0.75" stop-color="#DCDCDC"/>
<stop offset="0.95" stop-color="#C4C4C4"/>
<stop offset="1" stop-color="#BDBDBD"/>
</linearGradient>
</defs>
</svg>
