<svg width="96" height="96" viewBox="0 0 96 96" fill="none" xmlns="http://www.w3.org/2000/svg">
<path d="M78 18H18V78H78V18Z" fill="url(#paint0_linear)"/>
<path d="M60.83 44.33C65.8945 44.33 70 40.2267 70 35.165C70 30.1033 65.8945 26 60.83 26L35.17 26C30.1055 26 26 30.1033 26 35.165C26 40.2267 30.1055 44.33 35.17 44.33H60.83Z" fill="url(#paint1_linear)"/>
<path d="M60.83 44.34C65.8945 44.34 70 40.2344 70 35.17C70 30.1055 65.8945 26 60.83 26C55.7656 26 51.66 30.1055 51.66 35.17C51.66 40.2344 55.7656 44.34 60.83 44.34Z" fill="url(#paint2_linear)"/>
<path d="M35.17 51.67C30.1055 51.67 26 55.7733 26 60.835C26 65.8967 30.1055 70 35.17 70H60.83C65.8945 70 70 65.8967 70 60.835C70 55.7733 65.8945 51.67 60.83 51.67H35.17Z" fill="url(#paint3_linear)"/>
<path d="M35.17 70C40.2344 70 44.34 65.8944 44.34 60.83C44.34 55.7655 40.2344 51.66 35.17 51.66C30.1055 51.66 26 55.7655 26 60.83C26 65.8944 30.1055 70 35.17 70Z" fill="url(#paint4_linear)"/>
<path d="M35.1699 47.33H60.8299C62.4568 47.3766 64.0765 47.0965 65.5932 46.5061C67.1099 45.9158 68.4928 45.0272 69.66 43.8929C70.8273 42.7587 71.7551 41.4019 72.3887 39.9027C73.0223 38.4036 73.3488 36.7925 73.3488 35.165C73.3488 33.5374 73.0223 31.9264 72.3887 30.4273C71.7551 28.9281 70.8273 27.5713 69.66 26.4371C68.4928 25.3028 67.1099 24.4142 65.5932 23.8239C64.0765 23.2335 62.4568 22.9533 60.8299 23H35.1699C33.5431 22.9533 31.9234 23.2335 30.4067 23.8239C28.89 24.4142 27.5071 25.3028 26.3399 26.4371C25.1726 27.5713 24.2448 28.9281 23.6112 30.4273C22.9776 31.9264 22.6511 33.5374 22.6511 35.165C22.6511 36.7925 22.9776 38.4036 23.6112 39.9027C24.2448 41.4019 25.1726 42.7587 26.3399 43.8929C27.5071 45.0272 28.89 45.9158 30.4067 46.5061C31.9234 47.0965 33.5431 47.3766 35.1699 47.33V47.33ZM66.9999 35.17C66.9999 36.3903 66.6381 37.5832 65.9601 38.5979C65.2821 39.6125 64.3185 40.4033 63.1911 40.8703C62.0637 41.3373 60.8231 41.4595 59.6262 41.2214C58.4294 40.9834 57.33 40.3957 56.4671 39.5328C55.6042 38.67 55.0166 37.5706 54.7785 36.3737C54.5404 35.1768 54.6626 33.9363 55.1296 32.8088C55.5966 31.6814 56.3874 30.7178 57.4021 30.0398C58.4167 29.3619 59.6096 29 60.8299 29C62.4663 29 64.0357 29.65 65.1928 30.8071C66.3499 31.9642 66.9999 33.5336 66.9999 35.17ZM35.1699 29H50.3599C49.2506 30.8651 48.6651 32.9949 48.6651 35.165C48.6651 37.3351 49.2506 39.4649 50.3599 41.33H35.1699C34.3395 41.3635 33.5108 41.2288 32.7336 40.934C31.9565 40.6393 31.2469 40.1906 30.6475 39.6148C30.048 39.039 29.5711 38.3481 29.2453 37.5834C28.9195 36.8188 28.7516 35.9962 28.7516 35.165C28.7516 34.3338 28.9195 33.5112 29.2453 32.7466C29.5711 31.9819 30.048 31.291 30.6475 30.7152C31.2469 30.1394 31.9565 29.6907 32.7336 29.396C33.5108 29.1012 34.3395 28.9665 35.1699 29ZM35.1699 73H60.8299C62.4568 73.0466 64.0765 72.7665 65.5932 72.1761C67.1099 71.5858 68.4928 70.6972 69.66 69.5629C70.8273 68.4287 71.7551 67.0719 72.3887 65.5727C73.0223 64.0736 73.3488 62.4625 73.3488 60.835C73.3488 59.2074 73.0223 57.5964 72.3887 56.0973C71.7551 54.5981 70.8273 53.2413 69.66 52.1071C68.4928 50.9728 67.1099 50.0842 65.5932 49.4939C64.0765 48.9035 62.4568 48.6233 60.8299 48.67H35.1699C33.5431 48.6233 31.9234 48.9035 30.4067 49.4939C28.89 50.0842 27.5071 50.9728 26.3399 52.1071C25.1726 53.2413 24.2448 54.5981 23.6112 56.0973C22.9776 57.5964 22.6511 59.2074 22.6511 60.835C22.6511 62.4625 22.9776 64.0736 23.6112 65.5727C24.2448 67.0719 25.1726 68.4287 26.3399 69.5629C27.5071 70.6972 28.89 71.5858 30.4067 72.1761C31.9234 72.7665 33.5431 73.0466 35.1699 73V73ZM66.9999 60.83C66.9973 62.4656 66.3464 64.0334 65.1899 65.1899C64.0333 66.3464 62.4655 66.9974 60.8299 67H45.6399C46.7493 65.1349 47.3348 63.0051 47.3348 60.835C47.3348 58.6649 46.7493 56.5351 45.6399 54.67H60.8299C62.4646 54.67 64.0324 55.3187 65.1893 56.4736C66.3461 57.6285 66.9973 59.1953 66.9999 60.83V60.83ZM35.1699 54.67C36.3907 54.67 37.584 55.0321 38.5988 55.7105C39.6137 56.3889 40.4045 57.3532 40.8712 58.4812C41.3379 59.6092 41.4595 60.8503 41.2206 62.0474C40.9818 63.2445 40.3931 64.3439 39.5292 65.2064C38.6654 66.0689 37.565 66.6557 36.3675 66.8927C35.17 67.1296 33.9291 67.006 32.8018 66.5375C31.6746 66.0689 30.7117 65.2766 30.0349 64.2606C29.3581 63.2446 28.998 62.0507 28.9999 60.83C28.9999 60.0202 29.1596 59.2184 29.4698 58.4704C29.78 57.7223 30.2346 57.0428 30.8077 56.4707C31.3808 55.8985 32.061 55.445 32.8095 55.136C33.5581 54.827 34.3602 54.6687 35.1699 54.67V54.67Z" fill="url(#paint5_linear)"/>
<path d="M15 15V81H81V15H15ZM75 75H21V21H75V75Z" fill="url(#paint6_linear)"/>
<defs>
<linearGradient id="paint0_linear" x1="18" y1="18" x2="78" y2="78" gradientUnits="userSpaceOnUse">
<stop stop-color="#FAFAFA"/>
<stop offset="0.29" stop-color="#F7F7F7"/>
<stop offset="0.53" stop-color="#EDEDED"/>
<stop offset="0.75" stop-color="#DCDCDC"/>
<stop offset="0.95" stop-color="#C4C4C4"/>
<stop offset="1" stop-color="#BDBDBD"/>
</linearGradient>
<linearGradient id="paint1_linear" x1="682.213" y1="993.05" x2="1488.17" y2="1328.8" gradientUnits="userSpaceOnUse">
<stop stop-color="#FAFAFA"/>
<stop offset="0.29" stop-color="#F7F7F7"/>
<stop offset="0.53" stop-color="#EDEDED"/>
<stop offset="0.75" stop-color="#DCDCDC"/>
<stop offset="0.95" stop-color="#C4C4C4"/>
<stop offset="1" stop-color="#BDBDBD"/>
</linearGradient>
<linearGradient id="paint2_linear" x1="54.35" y1="28.68" x2="67.32" y2="41.65" gradientUnits="userSpaceOnUse">
<stop stop-color="#A5E4F1"/>
<stop offset="0.25" stop-color="#A2E1EF"/>
<stop offset="0.46" stop-color="#98D8E9"/>
<stop offset="0.64" stop-color="#87C8DF"/>
<stop offset="0.82" stop-color="#6FB1D0"/>
<stop offset="0.98" stop-color="#5194BD"/>
<stop offset="1" stop-color="#4D91BB"/>
</linearGradient>
<linearGradient id="paint3_linear" x1="682.213" y1="2147.75" x2="1488.17" y2="2483.5" gradientUnits="userSpaceOnUse">
<stop stop-color="#FAFAFA"/>
<stop offset="0.29" stop-color="#F7F7F7"/>
<stop offset="0.53" stop-color="#EDEDED"/>
<stop offset="0.75" stop-color="#DCDCDC"/>
<stop offset="0.95" stop-color="#C4C4C4"/>
<stop offset="1" stop-color="#BDBDBD"/>
</linearGradient>
<linearGradient id="paint4_linear" x1="28.68" y1="54.35" x2="41.65" y2="67.32" gradientUnits="userSpaceOnUse">
<stop stop-color="#E88F8D"/>
<stop offset="0.22" stop-color="#E58D8C"/>
<stop offset="0.39" stop-color="#DB878A"/>
<stop offset="0.55" stop-color="#CA7D87"/>
<stop offset="0.7" stop-color="#B26F82"/>
<stop offset="0.84" stop-color="#935C7B"/>
<stop offset="0.98" stop-color="#6E4674"/>
<stop offset="1" stop-color="#674272"/>
</linearGradient>
<linearGradient id="paint5_linear" x1="26.5699" y1="26.57" x2="69.4299" y2="69.43" gradientUnits="userSpaceOnUse">
<stop stop-color="#666666"/>
<stop offset="1" stop-color="#333333"/>
</linearGradient>
<linearGradient id="paint6_linear" x1="1005" y1="1005" x2="5361" y2="5361" gradientUnits="userSpaceOnUse">
<stop stop-color="#666666"/>
<stop offset="1" stop-color="#333333"/>
</linearGradient>
</defs>
</svg>
