<svg width="96" height="96" viewBox="0 0 96 96" fill="none" xmlns="http://www.w3.org/2000/svg">
<path d="M62 64C70.8366 64 78 56.8366 78 48C78 39.1634 70.8366 32 62 32H34C25.1634 32 18 39.1634 18 48C18 56.8366 25.1634 64 34 64H62Z" fill="url(#paint0_linear)"/>
<path d="M62 56C66.4183 56 70 52.4183 70 48C70 43.5817 66.4183 40 62 40C57.5817 40 54 43.5817 54 48C54 52.4183 57.5817 56 62 56Z" fill="url(#paint1_linear)"/>
<path d="M62 67H34C28.9609 67 24.1282 64.9982 20.565 61.435C17.0018 57.8718 15 53.0391 15 48C15 42.9609 17.0018 38.1282 20.565 34.565C24.1282 31.0018 28.9609 29 34 29H62C67.0391 29 71.8718 31.0018 75.435 34.565C78.9982 38.1282 81 42.9609 81 48C81 53.0391 78.9982 57.8718 75.435 61.435C71.8718 64.9982 67.0391 67 62 67V67ZM34 35C30.5522 35 27.2456 36.3696 24.8076 38.8076C22.3696 41.2456 21 44.5522 21 48C21 51.4478 22.3696 54.7544 24.8076 57.1924C27.2456 59.6304 30.5522 61 34 61H62C65.4478 61 68.7544 59.6304 71.1924 57.1924C73.6304 54.7544 75 51.4478 75 48C75 44.5522 73.6304 41.2456 71.1924 38.8076C68.7544 36.3696 65.4478 35 62 35H34Z" fill="url(#paint2_linear)"/>
<path d="M62 59C59.8244 59 57.6977 58.3549 55.8887 57.1462C54.0798 55.9375 52.6699 54.2195 51.8373 52.2095C51.0048 50.1995 50.7869 47.9878 51.2114 45.854C51.6358 43.7202 52.6835 41.7602 54.2218 40.2218C55.7602 38.6835 57.7202 37.6358 59.854 37.2114C61.9878 36.7869 64.1995 37.0048 66.2095 37.8373C68.2195 38.6699 69.9375 40.0798 71.1462 41.8887C72.3549 43.6977 73 45.8244 73 48C73 50.9174 71.8411 53.7153 69.7782 55.7782C67.7153 57.8411 64.9174 59 62 59ZM62 43C61.0111 43 60.0444 43.2932 59.2222 43.8427C58.3999 44.3921 57.759 45.173 57.3806 46.0866C57.0022 47.0002 56.9032 48.0056 57.0961 48.9755C57.289 49.9454 57.7652 50.8363 58.4645 51.5355C59.1637 52.2348 60.0546 52.711 61.0246 52.9039C61.9945 53.0969 62.9998 52.9978 63.9134 52.6194C64.8271 52.241 65.6079 51.6001 66.1574 50.7779C66.7068 49.9556 67 48.9889 67 48C67 46.6739 66.4732 45.4022 65.5355 44.4645C64.5979 43.5268 63.3261 43 62 43V43Z" fill="url(#paint3_linear)"/>
<defs>
<linearGradient id="paint0_linear" x1="29.69" y1="29.69" x2="66.31" y2="66.31" gradientUnits="userSpaceOnUse">
<stop stop-color="#FAFAFA"/>
<stop offset="0.29" stop-color="#F7F7F7"/>
<stop offset="0.53" stop-color="#EDEDED"/>
<stop offset="0.75" stop-color="#DCDCDC"/>
<stop offset="0.95" stop-color="#C4C4C4"/>
<stop offset="1" stop-color="#BDBDBD"/>
</linearGradient>
<linearGradient id="paint1_linear" x1="56.34" y1="42.34" x2="67.66" y2="53.66" gradientUnits="userSpaceOnUse">
<stop stop-color="#A5E4F1"/>
<stop offset="0.25" stop-color="#A2E1EF"/>
<stop offset="0.46" stop-color="#98D8E9"/>
<stop offset="0.64" stop-color="#87C8DF"/>
<stop offset="0.82" stop-color="#6FB1D0"/>
<stop offset="0.98" stop-color="#5194BD"/>
<stop offset="1" stop-color="#4D91BB"/>
</linearGradient>
<linearGradient id="paint2_linear" x1="27.57" y1="27.57" x2="68.43" y2="68.43" gradientUnits="userSpaceOnUse">
<stop stop-color="#666666"/>
<stop offset="1" stop-color="#333333"/>
</linearGradient>
<linearGradient id="paint3_linear" x1="1244.06" y1="922.06" x2="1585.94" y2="1263.94" gradientUnits="userSpaceOnUse">
<stop stop-color="#666666"/>
<stop offset="1" stop-color="#333333"/>
</linearGradient>
</defs>
</svg>
