<svg width="96" height="96" viewBox="0 0 96 96" fill="none" xmlns="http://www.w3.org/2000/svg">
<path d="M65.5 43C72.4036 43 78 37.4036 78 30.5C78 23.5964 72.4036 18 65.5 18L30.5 18C23.5964 18 18 23.5964 18 30.5C18 37.4036 23.5964 43 30.5 43H65.5Z" fill="url(#paint0_linear)"/>
<path d="M30.5 53C23.5964 53 18 58.5964 18 65.5C18 72.4036 23.5964 78 30.5 78H65.5C72.4036 78 78 72.4036 78 65.5C78 58.5964 72.4036 53 65.5 53H30.5Z" fill="url(#paint1_linear)"/>
<path d="M30.5 46H65.5C69.6109 46 73.5533 44.367 76.4602 41.4602C79.367 38.5533 81 34.6109 81 30.5C81 26.3891 79.367 22.4467 76.4602 19.5398C73.5533 16.633 69.6109 15 65.5 15H30.5C26.3891 15 22.4467 16.633 19.5398 19.5398C16.633 22.4467 15 26.3891 15 30.5C15 34.6109 16.633 38.5533 19.5398 41.4602C22.4467 44.367 26.3891 46 30.5 46V46ZM30.5 21H65.5C68.0196 21 70.4359 22.0009 72.2175 23.7825C73.9991 25.5641 75 27.9804 75 30.5C75 33.0196 73.9991 35.4359 72.2175 37.2175C70.4359 38.9991 68.0196 40 65.5 40H30.5C27.9804 40 25.5641 38.9991 23.7825 37.2175C22.0009 35.4359 21 33.0196 21 30.5C21 27.9804 22.0009 25.5641 23.7825 23.7825C25.5641 22.0009 27.9804 21 30.5 21V21Z" fill="url(#paint2_linear)"/>
<path d="M65.5 36.5C68.8137 36.5 71.5 33.8137 71.5 30.5C71.5 27.1863 68.8137 24.5 65.5 24.5C62.1863 24.5 59.5 27.1863 59.5 30.5C59.5 33.8137 62.1863 36.5 65.5 36.5Z" fill="url(#paint3_linear)"/>
<path d="M65.5 50H30.5C26.3891 50 22.4467 51.633 19.5398 54.5398C16.633 57.4467 15 61.3891 15 65.5C15 69.6109 16.633 73.5533 19.5398 76.4602C22.4467 79.367 26.3891 81 30.5 81H65.5C69.6109 81 73.5533 79.367 76.4602 76.4602C79.367 73.5533 81 69.6109 81 65.5C81 61.3891 79.367 57.4467 76.4602 54.5398C73.5533 51.633 69.6109 50 65.5 50ZM65.5 75H30.5C27.9804 75 25.5641 73.9991 23.7825 72.2175C22.0009 70.4359 21 68.0196 21 65.5C21 62.9804 22.0009 60.5641 23.7825 58.7825C25.5641 57.0009 27.9804 56 30.5 56H65.5C68.0196 56 70.4359 57.0009 72.2175 58.7825C73.9991 60.5641 75 62.9804 75 65.5C75 68.0196 73.9991 70.4359 72.2175 72.2175C70.4359 73.9991 68.0196 75 65.5 75V75Z" fill="url(#paint4_linear)"/>
<path d="M30.5 71.5C33.8137 71.5 36.5 68.8137 36.5 65.5C36.5 62.1863 33.8137 59.5 30.5 59.5C27.1863 59.5 24.5 62.1863 24.5 65.5C24.5 68.8137 27.1863 71.5 30.5 71.5Z" fill="url(#paint5_linear)"/>
<defs>
<linearGradient id="paint0_linear" x1="30.41" y1="12.91" x2="65.59" y2="48.09" gradientUnits="userSpaceOnUse">
<stop stop-color="#A5E4F1"/>
<stop offset="0.25" stop-color="#A2E1EF"/>
<stop offset="0.46" stop-color="#98D8E9"/>
<stop offset="0.64" stop-color="#87C8DF"/>
<stop offset="0.82" stop-color="#6FB1D0"/>
<stop offset="0.98" stop-color="#5194BD"/>
<stop offset="1" stop-color="#4D91BB"/>
</linearGradient>
<linearGradient id="paint1_linear" x1="30.41" y1="47.91" x2="65.59" y2="83.09" gradientUnits="userSpaceOnUse">
<stop stop-color="#E88F8D"/>
<stop offset="0.22" stop-color="#E58D8C"/>
<stop offset="0.39" stop-color="#DB878A"/>
<stop offset="0.55" stop-color="#CA7D87"/>
<stop offset="0.7" stop-color="#B26F82"/>
<stop offset="0.84" stop-color="#935C7B"/>
<stop offset="0.98" stop-color="#6E4674"/>
<stop offset="1" stop-color="#674272"/>
</linearGradient>
<linearGradient id="paint2_linear" x1="28.29" y1="10.79" x2="67.71" y2="50.21" gradientUnits="userSpaceOnUse">
<stop stop-color="#666666"/>
<stop offset="1" stop-color="#333333"/>
</linearGradient>
<linearGradient id="paint3_linear" x1="61.26" y1="26.26" x2="69.74" y2="34.74" gradientUnits="userSpaceOnUse">
<stop stop-color="#FAFAFA"/>
<stop offset="0.29" stop-color="#F7F7F7"/>
<stop offset="0.53" stop-color="#EDEDED"/>
<stop offset="0.75" stop-color="#DCDCDC"/>
<stop offset="0.95" stop-color="#C4C4C4"/>
<stop offset="1" stop-color="#BDBDBD"/>
</linearGradient>
<linearGradient id="paint4_linear" x1="1882.14" y1="1469.49" x2="2822.62" y2="3471.79" gradientUnits="userSpaceOnUse">
<stop stop-color="#666666"/>
<stop offset="1" stop-color="#333333"/>
</linearGradient>
<linearGradient id="paint5_linear" x1="339.62" y1="794.62" x2="441.38" y2="896.38" gradientUnits="userSpaceOnUse">
<stop stop-color="#FAFAFA"/>
<stop offset="0.29" stop-color="#F7F7F7"/>
<stop offset="0.53" stop-color="#EDEDED"/>
<stop offset="0.75" stop-color="#DCDCDC"/>
<stop offset="0.95" stop-color="#C4C4C4"/>
<stop offset="1" stop-color="#BDBDBD"/>
</linearGradient>
</defs>
</svg>
