<svg width="96" height="96" viewBox="0 0 96 96" fill="none" xmlns="http://www.w3.org/2000/svg">
<path d="M49.44 26.82C46.9307 24.3132 43.6595 22.7112 40.1406 22.266C36.6217 21.8207 33.0546 22.5573 30 24.36L42.37 36.72L36.72 42.37L24.36 30C22.6623 32.8977 21.9196 36.2562 22.2369 39.5996C22.5542 42.943 23.9155 46.1018 26.128 48.6284C28.3405 51.155 31.2919 52.9214 34.5641 53.6773C37.8364 54.4332 41.2635 54.1403 44.36 52.84L65.36 73.84L73.85 65.35L52.85 44.35C54.0886 41.42 54.4257 38.1874 53.8183 35.065C53.2109 31.9425 51.6866 29.072 49.44 26.82Z" fill="url(#paint0_linear)"/>
<path d="M44.37 52.86C41.0871 54.2374 37.44 54.4871 34 53.57L22.14 65.37L30.63 73.86L48 56.49L44.37 52.86Z" fill="url(#paint1_linear)"/>
<path d="M56.49 43.76L63.15 37.09L65.28 39.21L75.18 29.31L66.69 20.82L56.79 30.72L58.91 32.85L56.91 34.85C56.3811 31.8186 55.1238 28.961 53.2462 26.523C51.3687 24.0849 48.9271 22.1394 46.1314 20.8537C43.3356 19.5679 40.2694 18.9805 37.1965 19.1419C34.1235 19.3032 31.1357 20.2085 28.49 21.78L27.9 26.48L38.13 36.72L36.72 38.13L26.48 27.9L21.78 28.49C20.5038 30.6539 19.6695 33.0495 19.3252 35.538C18.9809 38.0265 19.1336 40.5586 19.7744 42.9878C20.4151 45.4169 21.5313 47.6948 23.0582 49.6898C24.5851 51.6847 26.4925 53.357 28.67 54.61L20 63.25V67.49L28.51 76H32.75L48 60.73L63.25 76H67.49L76 67.49V63.25L56.49 43.76ZM30.63 69.62L26.38 65.37L34.9 56.86C37.8025 57.3592 40.7815 57.1743 43.6 56.32L43.76 56.49L30.63 69.62ZM65.37 69.62L50.12 54.36L46.49 50.74L43.2 50.09H43.14C42.83 50.22 42.52 50.33 42.21 50.44H42.1C39.7101 51.2004 37.1523 51.2594 34.73 50.61V50.61C31.5134 49.7289 28.7585 47.6453 27.035 44.7902C25.3115 41.935 24.7512 38.5266 25.47 35.27L34.6 44.5H38.84L44.5 38.84V34.6L35.34 25.44C37.6677 24.9314 40.0905 25.0723 42.3436 25.8473C44.5967 26.6223 46.5934 28.0016 48.1157 29.8346C49.638 31.6675 50.6273 33.8836 50.9755 36.2407C51.3236 38.5978 51.0173 41.0052 50.09 43.2L50.74 46.49L69.62 65.37L65.37 69.62Z" fill="url(#paint2_linear)"/>
<defs>
<linearGradient id="paint0_linear" x1="27.19" y1="27.19" x2="69.61" y2="69.61" gradientUnits="userSpaceOnUse">
<stop stop-color="#A5E4F1"/>
<stop offset="0.25" stop-color="#A2E1EF"/>
<stop offset="0.46" stop-color="#98D8E9"/>
<stop offset="0.64" stop-color="#87C8DF"/>
<stop offset="0.82" stop-color="#6FB1D0"/>
<stop offset="0.98" stop-color="#5194BD"/>
<stop offset="1" stop-color="#4D91BB"/>
</linearGradient>
<linearGradient id="paint1_linear" x1="30.83" y1="56.69" x2="39.31" y2="65.17" gradientUnits="userSpaceOnUse">
<stop stop-color="#E88F8D"/>
<stop offset="0.22" stop-color="#E58D8C"/>
<stop offset="0.39" stop-color="#DB878A"/>
<stop offset="0.55" stop-color="#CA7D87"/>
<stop offset="0.7" stop-color="#B26F82"/>
<stop offset="0.84" stop-color="#935C7B"/>
<stop offset="0.98" stop-color="#6E4674"/>
<stop offset="1" stop-color="#674272"/>
</linearGradient>
<linearGradient id="paint2_linear" x1="24.73" y1="25.54" x2="71.33" y2="72.14" gradientUnits="userSpaceOnUse">
<stop stop-color="#666666"/>
<stop offset="1" stop-color="#333333"/>
</linearGradient>
</defs>
</svg>
