<svg width="96" height="96" viewBox="0 0 96 96" fill="none" xmlns="http://www.w3.org/2000/svg">
<path d="M72.58 49.68C75.4849 46.7695 77.341 42.9767 77.8568 38.897C78.3726 34.8174 77.519 30.682 75.43 27.14L61.09 41.47L54.53 34.91L68.86 20.57C65.4974 18.5874 61.5951 17.7161 57.7086 18.0801C53.8221 18.4441 50.1495 20.0249 47.2135 22.5975C44.2776 25.17 42.2281 28.6031 41.3566 32.4082C40.4852 36.2132 40.8363 40.1961 42.36 43.79L18 68.16L27.84 78L52.21 53.64C55.6141 55.0812 59.3707 55.4742 62.9994 54.7688C66.628 54.0633 69.9638 52.2915 72.58 49.68V49.68Z" fill="url(#paint0_linear)"/>
<path d="M78 25.61L73.3 25.01L61.09 37.23L58.77 34.91L71 22.69L70.4 17.99C66.6491 15.7762 62.3152 14.7515 57.9701 15.0511C53.625 15.3507 49.4727 16.9604 46.0611 19.668C42.6496 22.3756 40.1389 26.0539 38.8605 30.2175C37.582 34.381 37.5958 38.8344 38.9 42.99L15.9 65.99V70.24L25.74 80.08H30L53 57.08C57.1556 58.3842 61.609 58.398 65.7726 57.1195C69.9362 55.8411 73.6144 53.3305 76.322 49.9189C79.0296 46.5073 80.6393 42.355 80.9389 38.0099C81.2385 33.6648 80.2138 29.3309 78 25.58V25.61ZM70.45 47.61C68.261 49.8073 65.4631 51.2973 62.4182 51.8874C59.3733 52.4775 56.2214 52.1405 53.37 50.92L50.08 51.56L27.84 73.76L22.24 68.16L44.49 45.91L45.13 42.62C43.9968 39.9279 43.6452 36.971 44.1156 34.0883C44.5859 31.2055 45.8592 28.5137 47.7894 26.3215C49.7196 24.1293 52.2285 22.5255 55.0285 21.6939C57.8285 20.8624 60.8061 20.8367 63.62 21.62L52.41 32.79V37L59 43.59H63.24L74.43 32.38C75.1724 35.0351 75.196 37.8398 74.4985 40.507C73.8009 43.1743 72.4072 45.6083 70.46 47.56L70.45 47.61Z" fill="url(#paint1_linear)"/>
<defs>
<linearGradient id="paint0_linear" x1="34.41" y1="35.34" x2="60.66" y2="61.59" gradientUnits="userSpaceOnUse">
<stop stop-color="#A5E4F1"/>
<stop offset="0.25" stop-color="#A2E1EF"/>
<stop offset="0.46" stop-color="#98D8E9"/>
<stop offset="0.64" stop-color="#87C8DF"/>
<stop offset="0.82" stop-color="#6FB1D0"/>
<stop offset="0.98" stop-color="#5194BD"/>
<stop offset="1" stop-color="#4D91BB"/>
</linearGradient>
<linearGradient id="paint1_linear" x1="32.25" y1="33.25" x2="62.75" y2="63.75" gradientUnits="userSpaceOnUse">
<stop stop-color="#666666"/>
<stop offset="1" stop-color="#333333"/>
</linearGradient>
</defs>
</svg>
