<svg width="96" height="96" viewBox="0 0 96 96" fill="none" xmlns="http://www.w3.org/2000/svg">
<path d="M66 71V34H30V71H66Z" fill="url(#paint0_linear)"/>
<path d="M81 25H61V15H35V25H15V31H21V81H75V31H81V25ZM41 21H55V25H41V21ZM69 75H27V31H69V75Z" fill="url(#paint1_linear)"/>
<path d="M56 38H62V68H56V38ZM45 68H51V38H45V68ZM34 68H40V38H34V68Z" fill="url(#paint2_linear)"/>
<defs>
<linearGradient id="paint0_linear" x1="29.75" y1="34.25" x2="66.25" y2="70.75" gradientUnits="userSpaceOnUse">
<stop stop-color="#A5E4F1"/>
<stop offset="0.25" stop-color="#A2E1EF"/>
<stop offset="0.46" stop-color="#98D8E9"/>
<stop offset="0.64" stop-color="#87C8DF"/>
<stop offset="0.82" stop-color="#6FB1D0"/>
<stop offset="0.98" stop-color="#5194BD"/>
<stop offset="1" stop-color="#4D91BB"/>
</linearGradient>
<linearGradient id="paint1_linear" x1="19" y1="21" x2="77" y2="79" gradientUnits="userSpaceOnUse">
<stop stop-color="#666666"/>
<stop offset="1" stop-color="#333333"/>
</linearGradient>
<linearGradient id="paint2_linear" x1="972" y1="1193" x2="1839.93" y2="2003.07" gradientUnits="userSpaceOnUse">
<stop stop-color="#666666"/>
<stop offset="1" stop-color="#333333"/>
</linearGradient>
</defs>
</svg>
