<svg width="96" height="96" viewBox="0 0 96 96" fill="none" xmlns="http://www.w3.org/2000/svg">
<path d="M48 76C63.464 76 76 63.464 76 48C76 32.536 63.464 20 48 20C32.536 20 20 32.536 20 48C20 63.464 32.536 76 48 76Z" fill="url(#paint0_linear)"/>
<path d="M70 33H56V47H60V51H51V31H59L48 12L37 31H45V57H37V54.23C45.12 50.93 42.74 38.82 34 38.82C25.26 38.82 22.9 50.94 31 54.23V63H45V65.59C36.88 68.89 39.26 81 48 81C56.74 81 59.1 68.88 51 65.59V57H66V47H70V33Z" fill="url(#paint1_linear)"/>
<defs>
<linearGradient id="paint0_linear" x1="28.2" y1="28.2" x2="67.8" y2="67.8" gradientUnits="userSpaceOnUse">
<stop stop-color="#A5E4F1"/>
<stop offset="0.25" stop-color="#A2E1EF"/>
<stop offset="0.46" stop-color="#98D8E9"/>
<stop offset="0.64" stop-color="#87C8DF"/>
<stop offset="0.82" stop-color="#6FB1D0"/>
<stop offset="0.98" stop-color="#5194BD"/>
<stop offset="1" stop-color="#4D91BB"/>
</linearGradient>
<linearGradient id="paint1_linear" x1="30.16" y1="29.84" x2="66.34" y2="66.03" gradientUnits="userSpaceOnUse">
<stop stop-color="#666666"/>
<stop offset="1" stop-color="#333333"/>
</linearGradient>
</defs>
</svg>
