<svg width="96" height="96" viewBox="0 0 96 96" fill="none" xmlns="http://www.w3.org/2000/svg">
<path d="M48 80C65.6731 80 80 65.6731 80 48C80 30.3269 65.6731 16 48 16C30.3269 16 16 30.3269 16 48C16 65.6731 30.3269 80 48 80Z" fill="url(#paint0_linear)"/>
<path d="M48 72C61.2548 72 72 61.2548 72 48C72 34.7452 61.2548 24 48 24C34.7452 24 24 34.7452 24 48C24 61.2548 34.7452 72 48 72Z" fill="url(#paint1_linear)"/>
<path d="M47.9999 13C17.5899 13 1.68995 49.32 22.2399 71.67V71.74C29.7099 79 37.1999 83 47.9999 83C58.7999 83 66.5799 78.72 73.7899 71.74V71.67C94.3499 49.28 78.3699 13 47.9999 13ZM47.9999 19C72.0599 19 85.6399 46.77 70.9199 65.74C68.4954 61.8461 65.1187 58.6341 61.1086 56.4071C57.0984 54.1801 52.587 53.0114 47.9999 53.0114C43.4129 53.0114 38.9015 54.1801 34.8913 56.4071C30.8812 58.6341 27.5045 61.8461 25.0799 65.74C10.3299 46.73 23.9999 19 47.9999 19ZM29.4099 70.23C31.1905 66.8412 33.8636 64.0036 37.1401 62.0239C40.4165 60.0443 44.1718 58.9979 47.9999 58.9979C51.8281 58.9979 55.5833 60.0443 58.8598 62.0239C62.1363 64.0036 64.8093 66.8412 66.5899 70.23C61.3814 74.6007 54.7994 76.9965 47.9999 76.9965C41.2005 76.9965 34.6185 74.6007 29.4099 70.23V70.23Z" fill="url(#paint2_linear)"/>
<path d="M48 51C50.5712 51 53.0846 50.2376 55.2224 48.8091C57.3603 47.3807 59.0265 45.3503 60.0104 42.9749C60.9944 40.5995 61.2518 37.9856 60.7502 35.4638C60.2486 32.9421 59.0105 30.6257 57.1924 28.8076C55.3743 26.9895 53.0579 25.7514 50.5362 25.2498C48.0144 24.7482 45.4006 25.0056 43.0251 25.9896C40.6497 26.9735 38.6194 28.6398 37.1909 30.7776C35.7624 32.9154 35 35.4288 35 38C35 41.4478 36.3696 44.7544 38.8076 47.1924C41.2456 49.6304 44.5522 51 48 51V51ZM48 31C49.3845 31 50.7378 31.4105 51.889 32.1797C53.0401 32.9489 53.9373 34.0421 54.4672 35.3212C54.997 36.6003 55.1356 38.0078 54.8655 39.3656C54.5954 40.7235 53.9287 41.9708 52.9497 42.9498C51.9708 43.9287 50.7235 44.5954 49.3656 44.8655C48.0078 45.1356 46.6003 44.997 45.3212 44.4672C44.0421 43.9373 42.9489 43.0401 42.1797 41.889C41.4105 40.7379 41 39.3845 41 38C41 36.1435 41.7375 34.363 43.0503 33.0503C44.363 31.7375 46.1435 31 48 31V31Z" fill="url(#paint3_linear)"/>
<defs>
<linearGradient id="paint0_linear" x1="25.37" y1="25.37" x2="70.63" y2="70.63" gradientUnits="userSpaceOnUse">
<stop stop-color="#A5E4F1"/>
<stop offset="0.25" stop-color="#A2E1EF"/>
<stop offset="0.46" stop-color="#98D8E9"/>
<stop offset="0.64" stop-color="#87C8DF"/>
<stop offset="0.82" stop-color="#6FB1D0"/>
<stop offset="0.98" stop-color="#5194BD"/>
<stop offset="1" stop-color="#4D91BB"/>
</linearGradient>
<linearGradient id="paint1_linear" x1="1513.92" y1="1513.92" x2="3142.08" y2="3142.08" gradientUnits="userSpaceOnUse">
<stop stop-color="#A5E4F1"/>
<stop offset="0.25" stop-color="#A2E1EF"/>
<stop offset="0.46" stop-color="#98D8E9"/>
<stop offset="0.64" stop-color="#87C8DF"/>
<stop offset="0.82" stop-color="#6FB1D0"/>
<stop offset="0.98" stop-color="#5194BD"/>
<stop offset="1" stop-color="#4D91BB"/>
</linearGradient>
<linearGradient id="paint2_linear" x1="23.2399" y1="23.24" x2="72.7599" y2="72.77" gradientUnits="userSpaceOnUse">
<stop stop-color="#666666"/>
<stop offset="1" stop-color="#333333"/>
</linearGradient>
<linearGradient id="paint3_linear" x1="1044.06" y1="774.06" x2="1521.94" y2="1251.94" gradientUnits="userSpaceOnUse">
<stop stop-color="#666666"/>
<stop offset="1" stop-color="#333333"/>
</linearGradient>
</defs>
</svg>
