<svg width="96" height="96" viewBox="0 0 96 96" fill="none" xmlns="http://www.w3.org/2000/svg">
<path d="M48 54C41.6348 54 35.5303 56.5286 31.0294 61.0294C26.5286 65.5303 24 71.6348 24 78V81H72V78C72 71.6348 69.4714 65.5303 64.9706 61.0294C60.4697 56.5286 54.3652 54 48 54Z" fill="url(#paint0_linear)"/>
<path d="M48 46C55.732 46 62 39.732 62 32C62 24.268 55.732 18 48 18C40.268 18 34 24.268 34 32C34 39.732 40.268 46 48 46Z" fill="url(#paint1_linear)"/>
<path d="M75 78V81H69V78C69 72.4305 66.7875 67.089 62.8492 63.1508C58.911 59.2125 53.5695 57 48 57C42.4305 57 37.089 59.2125 33.1508 63.1508C29.2125 67.089 27 72.4305 27 78V81H21V78C21 70.8392 23.8446 63.9716 28.9081 58.9081C33.9716 53.8446 40.8392 51 48 51C55.1608 51 62.0284 53.8446 67.0919 58.9081C72.1554 63.9716 75 70.8392 75 78V78ZM31 32C31 28.6377 31.997 25.3509 33.865 22.5553C35.733 19.7597 38.388 17.5807 41.4944 16.2941C44.6007 15.0074 48.0189 14.6707 51.3165 15.3267C54.6142 15.9826 57.6433 17.6017 60.0208 19.9792C62.3983 22.3567 64.0174 25.3858 64.6733 28.6835C65.3293 31.9811 64.9926 35.3993 63.706 38.5056C62.4193 41.612 60.2403 44.267 57.4447 46.135C54.6491 48.003 51.3623 49 48 49C43.4913 49 39.1673 47.2089 35.9792 44.0208C32.7911 40.8327 31 36.5087 31 32V32ZM37 32C37 34.1756 37.6451 36.3023 38.8538 38.1113C40.0625 39.9202 41.7805 41.3301 43.7905 42.1627C45.8005 42.9952 48.0122 43.2131 50.146 42.7886C52.2798 42.3642 54.2398 41.3166 55.7782 39.7782C57.3166 38.2398 58.3642 36.2798 58.7886 34.146C59.2131 32.0122 58.9952 29.8005 58.1627 27.7905C57.3301 25.7805 55.9202 24.0625 54.1113 22.8538C52.3023 21.6451 50.1756 21 48 21C45.0826 21 42.2847 22.1589 40.2218 24.2218C38.1589 26.2847 37 29.0826 37 32V32Z" fill="url(#paint2_linear)"/>
<defs>
<linearGradient id="paint0_linear" x1="32.76" y1="59.29" x2="63.24" y2="89.76" gradientUnits="userSpaceOnUse">
<stop stop-color="#A5E4F1"/>
<stop offset="0.25" stop-color="#A2E1EF"/>
<stop offset="0.46" stop-color="#98D8E9"/>
<stop offset="0.64" stop-color="#87C8DF"/>
<stop offset="0.82" stop-color="#6FB1D0"/>
<stop offset="0.98" stop-color="#5194BD"/>
<stop offset="1" stop-color="#4D91BB"/>
</linearGradient>
<linearGradient id="paint1_linear" x1="1100.8" y1="636.8" x2="1655.2" y2="1191.2" gradientUnits="userSpaceOnUse">
<stop stop-color="#A5E4F1"/>
<stop offset="0.25" stop-color="#A2E1EF"/>
<stop offset="0.46" stop-color="#98D8E9"/>
<stop offset="0.64" stop-color="#87C8DF"/>
<stop offset="0.82" stop-color="#6FB1D0"/>
<stop offset="0.98" stop-color="#5194BD"/>
<stop offset="1" stop-color="#4D91BB"/>
</linearGradient>
<linearGradient id="paint2_linear" x1="22.99" y1="32.98" x2="73.01" y2="82.99" gradientUnits="userSpaceOnUse">
<stop stop-color="#666666"/>
<stop offset="1" stop-color="#333333"/>
</linearGradient>
</defs>
</svg>
