<svg width="96" height="96" viewBox="0 0 96 96" fill="none" xmlns="http://www.w3.org/2000/svg">
<path d="M48 66C61.2548 66 72 55.2548 72 42C72 28.7452 61.2548 18 48 18C34.7452 18 24 28.7452 24 42C24 55.2548 34.7452 66 48 66Z" fill="url(#paint0_linear)"/>
<path d="M48 54C54.6274 54 60 48.6274 60 42C60 35.3726 54.6274 30 48 30C41.3726 30 36 35.3726 36 42C36 48.6274 41.3726 54 48 54Z" fill="url(#paint1_linear)"/>
<path d="M63 42C63 39.0333 62.1203 36.1332 60.4721 33.6665C58.8238 31.1997 56.4811 29.2771 53.7403 28.1418C50.9994 27.0065 47.9834 26.7094 45.0737 27.2882C42.1639 27.867 39.4912 29.2956 37.3934 31.3934C35.2956 33.4912 33.867 36.1639 33.2882 39.0737C32.7094 41.9834 33.0065 44.9994 34.1418 47.7403C35.2771 50.4811 37.1997 52.8238 39.6665 54.4721C42.1332 56.1203 45.0333 57 48 57C51.9783 57 55.7936 55.4197 58.6066 52.6066C61.4197 49.7936 63 45.9783 63 42ZM39 42C39 40.22 39.5278 38.4799 40.5168 36.9999C41.5057 35.5198 42.9113 34.3663 44.5559 33.6851C46.2004 33.0039 48.01 32.8257 49.7558 33.1729C51.5017 33.5202 53.1053 34.3774 54.364 35.636C55.6226 36.8947 56.4798 38.4984 56.8271 40.2442C57.1743 41.99 56.9961 43.7996 56.3149 45.4442C55.6337 47.0887 54.4802 48.4943 53.0001 49.4832C51.5201 50.4722 49.78 51 48 51C45.6131 51 43.3239 50.0518 41.636 48.364C39.9482 46.6761 39 44.387 39 42ZM48 46C47.2089 46 46.4355 45.7654 45.7777 45.3259C45.1199 44.8864 44.6072 44.2616 44.3045 43.5307C44.0017 42.7998 43.9225 41.9956 44.0769 41.2196C44.2312 40.4437 44.6122 39.731 45.1716 39.1716C45.731 38.6122 46.4437 38.2312 47.2196 38.0769C47.9956 37.9225 48.7998 38.0017 49.5307 38.3045C50.2616 38.6072 50.8864 39.1199 51.3259 39.7777C51.7654 40.4355 52 41.2089 52 42C52 43.0609 51.5786 44.0783 50.8284 44.8284C50.0783 45.5786 49.0609 46 48 46Z" fill="url(#paint2_linear)"/>
<path d="M51 68.83C57.8581 68.0633 64.1622 64.6997 68.6178 59.4301C73.0734 54.1605 75.3422 47.3849 74.9582 40.4949C74.5742 33.6048 71.5667 27.1232 66.5532 22.3813C61.5397 17.6395 54.9008 14.9972 48 14.9972C41.0993 14.9972 34.4604 17.6395 29.4469 22.3813C24.4334 27.1232 21.4258 33.6048 21.0419 40.4949C20.6579 47.3849 22.9267 54.1605 27.3822 59.4301C31.8378 64.6997 38.142 68.0633 45 68.83V75H28V81H68V75H51V68.83ZM27 42C27 37.8466 28.2317 33.7865 30.5392 30.333C32.8467 26.8796 36.1264 24.188 39.9637 22.5985C43.8009 21.0091 48.0233 20.5932 52.0969 21.4035C56.1705 22.2138 59.9124 24.2139 62.8493 27.1508C65.7862 30.0877 67.7862 33.8295 68.5965 37.9031C69.4068 41.9767 68.9909 46.1991 67.4015 50.0364C65.8121 53.8736 63.1204 57.1534 59.667 59.4609C56.2136 61.7684 52.1534 63 48 63C42.4305 63 37.0891 60.7875 33.1508 56.8493C29.2125 52.911 27 47.5696 27 42Z" fill="url(#paint3_linear)"/>
<defs>
<linearGradient id="paint0_linear" x1="31.03" y1="25.03" x2="64.97" y2="58.97" gradientUnits="userSpaceOnUse">
<stop stop-color="#F2F2F2"/>
<stop offset="0.25" stop-color="#EFEFEF"/>
<stop offset="0.45" stop-color="#E5E5E5"/>
<stop offset="0.64" stop-color="#D4D4D4"/>
<stop offset="0.81" stop-color="#BCBCBC"/>
<stop offset="0.98" stop-color="#9E9E9E"/>
<stop offset="1" stop-color="#999999"/>
</linearGradient>
<linearGradient id="paint1_linear" x1="39.51" y1="33.51" x2="56.49" y2="50.49" gradientUnits="userSpaceOnUse">
<stop stop-color="#A5E4F1"/>
<stop offset="0.25" stop-color="#A2E1EF"/>
<stop offset="0.46" stop-color="#98D8E9"/>
<stop offset="0.64" stop-color="#87C8DF"/>
<stop offset="0.82" stop-color="#6FB1D0"/>
<stop offset="0.98" stop-color="#5194BD"/>
<stop offset="1" stop-color="#4D91BB"/>
</linearGradient>
<linearGradient id="paint2_linear" x1="33" y1="42" x2="63" y2="42" gradientUnits="userSpaceOnUse">
<stop stop-color="#666666"/>
<stop offset="1" stop-color="#333333"/>
</linearGradient>
<linearGradient id="paint3_linear" x1="1155" y1="3183.13" x2="4071" y2="3183.13" gradientUnits="userSpaceOnUse">
<stop stop-color="#666666"/>
<stop offset="1" stop-color="#333333"/>
</linearGradient>
</defs>
</svg>
