<svg xmlns="http://www.w3.org/2000/svg" width="1152" height="700" fill="none" viewBox="0 0 1152 700">
  <g class="analytics">
    <path fill="#fff" d="M0 0h1152v700H0z"/>
    <path fill="url(#paint0_linear)" d="M0 0h1152v700H0z"/>
    <g class="Group">
      <rect width="708.986" height="444.596" x="181" y="115" fill="#E8E8E8" class="Rectangle" rx="11.838"/>
      <path fill="#000" fill-opacity=".06" d="M181 115l28.529 62.522 134.756 305.932 545.701 76.142H181V115z" class="Rectangle_2"/>
      <rect width="669.525" height="28.938" x="198.1" y="134.731" fill="#F8F8F8" class="Rectangle 2" rx="14.469"/>
      <rect width="153.899" height="345.943" x="198.1" y="184.714" fill="#fff" class="Rectangle 3" rx="7.659"/>
      <rect width="495.895" height="346.36" x="371.729" y="184.714" fill="#fff" class="Rectangle 3.1" rx="7.668"/>
      <rect width="495.895" height="346.36" x="371.729" y="184.714" fill="#fff" class="Rectangle 3.2" rx="7.668"/>
      <circle cx="212.569" cy="149.199" r="5.261" fill="#C4C4C4" class="Ellipse"/>
      <circle cx="229.668" cy="149.199" r="5.261" fill="#C4C4C4" class="Ellipse_2"/>
      <circle cx="246.768" cy="149.199" r="5.261" fill="#C4C4C4" class="Ellipse_3"/>
      <rect width="306.482" height="167.052" x="398.036" y="218.915" fill="#000" fill-opacity=".04" class="Rectangle 4" rx="14.469"/>
      <path stroke="#C8C8C8" stroke-width="2.428" d="M415.305 338.381l23.066-21.853 27.316 6.071 18.21-22.46 43.097-20.638 21.853 26.708 52.809-22.459 31.565 32.778 34.599-16.389 12.141-20.638" class="Vector"/>
      <rect width="169.683" height="18.415" x="398.036" y="412.276" fill="#000" fill-opacity=".04" class="Rectangle 4.1" rx="9.208"/>
      <rect width="306.482" height="10.523" x="398.036" y="442.529" fill="#000" fill-opacity=".04" class="Rectangle 4.2" rx="5.261"/>
      <rect width="306.482" height="10.523" x="398.036" y="464.889" fill="#000" fill-opacity=".04" class="Rectangle 4.3" rx="5.261"/>
      <rect width="306.482" height="10.523" x="398.036" y="487.25" fill="#000" fill-opacity=".04" class="Rectangle 4.4" rx="5.261"/>
      <rect width="127.591" height="43.407" x="211.254" y="218.915" fill="#C4C4C4" fill-opacity=".25" class="Rectangle 5" rx="21.704"/>
      <g class="Group 2">
        <circle cx="438.371" cy="317.743" r="4.856" fill="#C6C6C6" class="Ellipse_4"/>
        <circle cx="466.294" cy="322.598" r="4.856" fill="#C6C6C6" class="Ellipse_5"/>
        <circle cx="483.29" cy="300.745" r="4.856" fill="#C6C6C6" class="Ellipse_6"/>
        <circle cx="525.781" cy="280.107" r="4.856" fill="#C6C6C6" class="Ellipse_7"/>
        <circle cx="548.847" cy="305.602" r="4.856" fill="#C6C6C6" class="Ellipse_8"/>
        <circle cx="601.05" cy="284.964" r="4.856" fill="#C6C6C6" class="Ellipse_9"/>
        <circle cx="632.614" cy="315.314" r="4.856" fill="#C6C6C6" class="Ellipse_10"/>
        <circle cx="667.821" cy="299.531" r="4.856" fill="#C6C6C6" class="Ellipse_11"/>
      </g>
    </g>
    <g class="Group 3.1">
      <path fill="#1612ED" fill-rule="evenodd" d="M740.016 470.595c81.873-21.938 130.46-106.093 108.522-187.966-21.937-81.873-106.093-130.46-187.966-108.523-81.873 21.938-130.46 106.093-108.522 187.966 21.938 81.874 106.093 130.461 187.966 108.523zm-20.462-76.365c-39.698 10.638-80.503-12.921-91.14-52.619s12.922-80.503 52.62-91.14c39.698-10.637 80.503 12.921 91.14 52.619 10.637 39.699-12.921 80.503-52.62 91.14zm-434.356-63.682c.382-1.108.59-2.297.59-3.535 0-5.986-4.852-10.838-10.838-10.838-5.985 0-10.837 4.852-10.837 10.838 0 2.561.888 4.914 2.373 6.769L232.39 372.35l-.002.002-24.819 27.965 2.615 2.321 24.821-27.968.002-.002 34.074-38.543a10.787 10.787 0 005.869 1.725c3.468 0 6.555-1.628 8.539-4.162l63.773 54.662a10.806 10.806 0 00-.644 3.688c0 5.986 4.852 10.838 10.838 10.838 5.985 0 10.837-4.852 10.837-10.838 0-2.788-1.053-5.33-2.782-7.25l31.651-48.582a10.786 10.786 0 005.741 1.644c4.406 0 8.197-2.628 9.892-6.403l65.98 26.763c.226 5.785 4.988 10.406 10.829 10.406 5.985 0 10.837-4.852 10.837-10.838 0-2.779-1.046-5.314-2.766-7.232l19.625-30.988-2.953-1.87-19.413 30.652a10.786 10.786 0 00-5.33-1.399c-4.888 0-9.021 3.236-10.371 7.682l-65.54-26.584c.032-.338.048-.68.048-1.026 0-5.986-4.852-10.838-10.838-10.838-5.985 0-10.837 4.852-10.837 10.838 0 2.602.917 4.99 2.445 6.858l-31.741 48.72a10.794 10.794 0 00-5.314-1.39 10.817 10.817 0 00-8.445 4.044l-63.813-54.697zm115.258 42.962h32.862v153.824h-32.862V373.51zm-42.651 55.236h32.862v98.587h-32.862v-98.587zm-9.789-19.576h-32.862v118.164h32.862V409.17zm-75.513-19.578h32.862v137.742h-32.862V389.592z" class="Union" clip-rule="evenodd"/>
      <g class="Group 2_2">
        <path fill="#fff" fill-opacity=".33" d="M853.765 316.735a153.476 153.476 0 00-198.142-140.56l23.075 75.616a74.413 74.413 0 0196.074 68.154l78.993-3.21z" class="Ellipse 2.1"/>
        <path fill="#fff" fill-opacity=".58" d="M655.638 175.169a153.471 153.471 0 00-87.307 224.945 153.466 153.466 0 0067.613 61.125l33.212-71.744a74.407 74.407 0 01-32.784-29.638 74.412 74.412 0 0142.333-109.07l-23.067-75.618z" class="Ellipse 2.2"/>
        <path fill="#fff" fill-opacity=".44" d="M635.515 461.505a153.474 153.474 0 00107.046 7.747l-22.224-75.87a74.417 74.417 0 01-51.904-3.757l-32.918 71.88z" class="Ellipse 2.3"/>
        <path stroke="#fff" stroke-opacity=".19" stroke-width="3.496" d="M209 402.093l24.821-27.968 42.652-48.244 80.757 69.22 45.098-69.22 87.05 35.309 26.569-41.952" class="Vector_2"/>
      </g>
    </g>
    <circle cx="274.838" cy="327.838" r="10.838" fill="#000" fill-opacity=".01" class="Ellipse_12"/>
    <path fill="#000" fill-opacity=".01" d="M368.783 391.5c0 5.985-4.852 10.837-10.838 10.837-5.985 0-10.837-4.852-10.837-10.837 0-5.986 4.852-10.838 10.837-10.838 5.986 0 10.838 4.852 10.838 10.838z" class="Ellipse_13"/>
    <circle cx="402.838" cy="327.838" r="10.838" fill="#000" fill-opacity=".01" class="Ellipse_14"/>
    <circle cx="489.838" cy="357.838" r="10.838" fill="#000" fill-opacity=".01" class="Ellipse_15"/>
    <g class="Group_2">
      <path fill="#FFB3A9" fill-rule="evenodd" d="M888.869 305.087l-1.852-14.813c-8.94 2.013-11.39-11.743-6.295-31.743 1.746-6.854 13.967-4.762 19.786 0 5.305 4.34 3.577 16.591 2.428 24.735-.112.791-.218 1.544-.311 2.246-1.058 7.936-1.588 8.201-1.588 8.201l-.529 11.374h-11.639zm-43.478 20.522c3.174-2.91 11.074-14.769 11.074-14.769s10.72-8.509 15.963-7.407c5.632 1.184 3.648 12.879 3.648 12.879l-5.318 5.999c-23.231 34.366-38.556 26.474-41.201 15.893-2.645-10.581-2.418-50.951-2.418-50.951s-4.093-15.527-1.058-17.459c2.91-1.851 6.349 6.349 6.349 6.349s2.116-10.317 3.174 0c.342 3.328-.529 11.11-.529 11.11s7.142 41.266 10.316 38.356zm20.632 67.612c2.023-11.157 1.814-17.415 0-28.569l44.504-6.585c0 5.583-.137 9.979-.263 14.024-.224 7.19-.414 13.268.263 22.918l-44.504-1.788zm13.337 167.671l-6.613-61.899h13.676l-.176-.87 17.439-1.411s4.431 42.052 6.385 60.919c.248 2.396.724 5.141 1.186 7.804.986 5.687 1.907 10.999.404 11.733-.983.481-2.383.629-4.479.852-2.609.278-6.297.67-11.603 1.959a57.842 57.842 0 01-7.61 1.322c-3.48.846-8.751 1.885-15.222 2.87-13.226 2.012-14.131.575-11.904-1.059.662-.484 1.433-1.058 2.29-1.695 4.287-3.184 10.716-7.96 16.227-11.266v-9.259zm13.158 9.957c2.327-1.556 4.607-3.103 6.557-4.518l-1.048-9.789-4.863-24.117c-.842 10.501-1.486 21.23-1.371 28.467.039 2.493.303 5.348.555 8.086.058.632.116 1.257.17 1.871z" class="Union_2" clip-rule="evenodd"/>
      <path fill="#FF8744" fill-rule="evenodd" d="M866.744 335.597v37.977c16.755 5.011 24.769 3.648 38.245 1.355 2.534-.431 5.26-.894 8.274-1.355-1.581-12.808-1.251-25.75-.962-37.087.378-14.821.686-26.9-3.437-32.353-8.2-10.846-35.464-13.943-57.684 11.186l15.564 20.277zm6.003 248.573c6.461-.983 11.726-2.02 15.206-2.865 2.32-.24 4.934-.67 7.627-1.324 5.306-1.289 8.994-1.681 11.603-1.959 2.096-.223 3.495-.371 4.478-.852 2.207-1.078 1.486-16.93-1.398-13.634-3.207 3.666-4.127 3.494-6.271 3.093-1.129-.211-2.597-.485-4.916-.296-1.898 1.377-4.108 2.878-6.368 4.392-.269-2.976-.715-5.417-.915-5.093-4.092 6.642-6.95 5.89-10.263 5.018-.698-.184-1.416-.373-2.17-.499-5.511 3.306-11.94 8.082-16.226 11.266-.858.637-1.629 1.21-2.291 1.695-2.227 1.633-1.322 3.071 11.904 1.058z" class="Union_3" clip-rule="evenodd"/>
      <path fill="#000" fill-opacity=".03" d="M860.843 583.113c3.968-2.91 11.904-8.994 18.517-12.962 4.333.726 7.479 3.523 12.433-4.518.469-.762 2.292 13.688 0 14.57-2.293.882-9.312 2.487-19.046 3.968-13.226 2.013-14.131.575-11.904-1.058z" class="Vector 5.3"/>
      <path fill="#1E4278" d="M894.351 267.421c-2.389-2.645-6.349-6.084-12.536-6.084-6.187 0-9.846-8.041-4.923-16.136 6.878-8.993 15.395 1.693 23.014 0 9.523-2.116 12.433 14.549 22.22 13.756 9.787-.794 13.226 4.761 19.839 13.49 6.614 8.73 15.078 1.588 23.543 8.73s6.084 25.394 0 29.362 0 19.046-12.961 19.046c-15.982 0-23.014-2.117-30.421-10.846-5.643-3.35-5.819-12.168-14.284-8.2-5.177 2.427-16.401-14.814-13.491-27.511 2.909-12.698 3.877-11.313 0-15.607z" class="Vector 3"/>
      <path fill="#1F7C77" fill-rule="evenodd" d="M866.288 392.729c14.856-2.026 28.931-1.886 44.695 0 0 0 2.707 13.563 0 23.716a165 165 0 01-.314 1.16c-2.437 29.969-6.527 71.812-6.527 71.812l5.473 58.834-14.391-1.556.252 4.748-22.803-2.28-15.051-80.269 8.666-76.165z" class="Union_4" clip-rule="evenodd"/>
      <path fill="#000" fill-opacity=".12" d="M910.071 391.361c-15.764-1.886-28.927-.659-43.783 1.367l-8.666 76.622 15.051 80.268 22.803 1.824-2.736-76.62s16.954-37.319 18.243-58.834c.628-10.49-.912-24.627-.912-24.627z" class="Vector_3"/>
    </g>
  </g>
  <defs>
    <linearGradient id="paint0_linear" x1="576" x2="576" y1="0" y2="700" class="paint0_linear" gradientUnits="userSpaceOnUse">
      <stop stop-color="#fff"/>
      <stop offset="1" stop-color="#fff" stop-opacity="0"/>
    </linearGradient>
  </defs>
</svg>
