<svg xmlns="http://www.w3.org/2000/svg" width="1155" height="700" fill="none" viewBox="0 0 1155 700">
  <g class="automate">
    <path fill="#fff" d="M0 0h1155v700H0z"/>
    <g class="Group 18.1">
      <path stroke="#00488A" stroke-linecap="round" stroke-width="4" d="M205 477h744" class="Vector"/>
      <g class="Group 14">
        <g class="Group 10">
          <rect width="353" height="336" x="265" y="181" fill="#0AB1BB" class="Rectangle" rx="34"/>
          <rect width="307" height="53" x="288" y="383" fill="#000" fill-opacity=".04" class="Rectangle_2" rx="11"/>
          <rect width="307" height="54" x="285" y="204" fill="#000" fill-opacity=".04" class="Rectangle_3" rx="11"/>
          <rect width="307" height="207" x="288" y="211" fill="#fff" class="Rectangle_4" rx="13"/>
        </g>
        <path fill="#000" fill-opacity=".04" d="M278.491 469.936L265.5 211.5V485c0 17.121 13.879 31 31 31H434l-134.689-22.666c-11.571-1.947-20.231-11.68-20.82-23.398z" class="Vector_2"/>
        <path fill="#000" fill-opacity=".04" d="M604.509 470.436L617.5 212v273.5c0 17.121-13.879 31-31 31H449l134.689-22.666c11.571-1.947 20.231-11.68 20.82-23.398z" class="Vector_3"/>
        <g class="Group 13">
          <rect width="197" height="6" x="343" y="343" fill="#C4C4C4" class="Rectangle_5" rx="3"/>
          <g class="Group 11">
            <rect width="40" height="40" x="373" y="297" fill="#F1B49A" class="Rectangle 2" rx="8"/>
            <rect width="40" height="40" x="422" y="297" fill="#F1B49A" class="Rectangle 2.1" rx="8"/>
            <rect width="40" height="40" x="471" y="297" fill="#F1B49A" class="Rectangle 2.2" rx="8"/>
          </g>
          <g class="Group 12">
            <rect width="17" height="17" x="364" y="354" fill="#E3E3E3" class="Rectangle 2_2" rx="8.5"/>
            <rect width="17" height="17" x="387" y="354" fill="#E3E3E3" class="Rectangle 2.1_2" rx="8.5"/>
            <rect width="17" height="17" x="410" y="354" fill="#E3E3E3" class="Rectangle 2.2_2" rx="8.5"/>
            <rect width="17" height="17" x="433" y="354" fill="#E3E3E3" class="Rectangle 2.3" rx="8.5"/>
            <rect width="17" height="17" x="456" y="354" fill="#E3E3E3" class="Rectangle 2.4" rx="8.5"/>
            <rect width="17" height="17" x="479" y="354" fill="#E3E3E3" class="Rectangle 2.5" rx="8.5"/>
            <rect width="17" height="17" x="502" y="354" fill="#E3E3E3" class="Rectangle 2.6" rx="8.5"/>
          </g>
        </g>
      </g>
      <g class="Group 17">
        <g class="bot">
          <g class="Group">
            <path fill="#2F70EE" fill-rule="evenodd" d="M827.372 555.949l49.266-3.449c44.5-10.5 42.5-29 20.952-47.5l-104-85s-20.813 3.13-35 4.5c-19.825 1.915-55 0-55 0l1.246 1h-54.698l-112.048 98c-11.452 14 0 33 0 33h288.5c.258-.175.519-.359.782-.551z" class="Union" clip-rule="evenodd"/>
            <path fill="#000" fill-opacity=".07" d="M556.31 521.609l92.248-80.194a18.004 18.004 0 0111.81-4.415h35.064a18 18 0 0111.777 4.387l92.734 80.224a15.026 15.026 0 015.195 11.364c0 8.298-6.727 15.025-15.026 15.025H566.178c-8.306 0-15.04-6.734-15.04-15.04 0-4.354 1.887-8.495 5.172-11.351z" class="Vector 5"/>
            <path fill="#000" fill-opacity=".06" d="M880.638 552l-55 5c19.5-12.5 5.5-28.5-3.048-37l-119-95.5s35.175 1.915 55 0c14.187-1.37 35-4.5 35-4.5l104 85c25.548 22.5 17.048 35.5-16.952 47z" class="Vector 3.1"/>
            <path stroke="#000" stroke-linecap="round" stroke-opacity=".17" d="M734.638 447.5l82-9m-55.5 29.5l81-8.5m-59.5 27l81-8.5m-44.5 38l78.5-9.5m-62 34l76-11.5" class="Vector 4"/>
            <path fill="#000" fill-opacity=".06" d="M823 519l-107.5-86 86-8.5L823 519z" class="Vector 6"/>
          </g>
          <path fill="#000" fill-opacity=".06" d="M650.5 433L535 534c-2.4-1.6 1-7.333 3-10l103.5-91h9z" class="Vector 2"/>
          <g class="Group 4">
            <path fill="#3072F3" d="M679.638 320.5l-43.5-48 8-10.5h125.5l5.5 10.5-44 48h-51.5z" class="Vector 6_2"/>
            <path fill="#000" fill-opacity=".02" d="M727.5 262L691 320h10.5l45-47-6.5-11h-12.5z" class="Vector 10"/>
            <path fill="#000" fill-opacity=".23" d="M731.638 320h-30.5l45-47.5-6.5-10.5h30l5.5 10.5-43.5 47.5z" class="Vector 8"/>
            <path fill="#000" fill-opacity=".06" d="M746.638 272.5l-6.5-10.5h29.5l5.5 10.5h-28.5z" class="Vector 9"/>
            <g class="Group 2">
              <circle cx="703.138" cy="284.5" r="4" fill="#fff" class="Ellipse"/>
            </g>
            <path stroke="#fff" stroke-linecap="round" stroke-width="2" d="M680 297c2.5 3.5 11 5.5 17.5 0" class="Vector 7"/>
            <g class="Group_2">
              <circle cx="673.138" cy="284.5" r="4" fill="#fff" class="Ellipse_2"/>
            </g>
            <rect width="81" height="12" x="660.138" y="317.5" fill="#1E2D67" class="Rectangle_6" rx="6"/>
          </g>
          <g class="Group 5">
            <g class="Group 3.1">
              <path fill="#0988FC" d="M562.638 435.833c0-30.5 36.833-67.666 57.5-82 0 0 3-4.499 0-7.5-3-3-8.5 0-8.5 0-45.5 39.5-54 65.5-58.5 86 2.8 4.8 6.166 4.167 9.5 3.5z" class="Vector 4_2"/>
              <path fill="#000" fill-opacity=".11" d="M606.5 362c-32.5 24-47 57.5-47 76h3c-.167-12.667 8.7-45 45.5-73l-1.5-3z" class="Vector 6_3"/>
              <path stroke="#000" d="M610.971 360.5c-.333-2-2.4-6.1-8-6.5" class="Vector 5_2"/>
              <path stroke="#000" d="M600.471 370.5c-.333-2-2.4-6.1-8-6.5" class="Vector 5.1"/>
              <path stroke="#000" d="M588.471 382.5c-.333-2-2.4-6.1-8-6.5" class="Vector 5.2"/>
              <path stroke="#000" d="M577.471 397.5c-.333-2-2.4-6.1-8-6.5" class="Vector 5.3"/>
              <path stroke="#000" d="M568.471 411.5c-.333-2-2-5.5-7.5-4.5" class="Vector 5.4"/>
              <path stroke="#000" d="M563.471 424.676c-.333-2-2-5.5-7.5-4.5" class="Vector 5.5"/>
              <path fill="#00488A" d="M535.213 443.295a17.501 17.501 0 0122.463-10.387 17.5 17.5 0 0110.387 22.464l-5.875-2.16a11.238 11.238 0 10-21.1-7.757l-5.875-2.16z" class="Ellipse 2"/>
            </g>
            <g class="Group 2_2">
              <path fill="#00488A" d="M600.138 433.5v-108h166.5l44 4.5-4 95.5-40 8h-166.5z" class="Vector_4"/>
              <path fill="#000" fill-opacity=".08" d="M769.138 433V326l41.5 4-4 95-37.5 8z" class="Vector 8_2"/>
              <path fill="#000" fill-opacity=".11" d="M800.5 421.5l9-85.5-3 89.5L781 430l19.5-8.5z" class="Vector 9_2"/>
              <path fill="#000" fill-opacity=".06" d="M785 429l-10-102.5h-6V433l16-4z" class="Vector 10_2"/>
            </g>
            <path fill="#000" fill-opacity=".06" d="M756.5 432.5L767 325h2v107.5h-12.5z" class="Vector 2_2"/>
            <path fill="#000" fill-opacity=".09" d="M600 350.5V433h90l-71.66-5.867a16 16 0 01-14.666-14.995L600 350.5z" class="Vector_5"/>
            <g class="Group 3">
              <path fill="#0988FC" d="M843.971 444.333c0-30.5-36.833-67.666-57.5-82 0 0-3-4.499 0-7.5 3-3 8.5 0 8.5 0 45.5 39.5 54 65.5 58.5 86-2.8 4.8-6.167 4.167-9.5 3.5z" class="Vector 4_3"/>
              <path fill="#000" fill-opacity=".09" d="M847 443c-2.4-39.6-42-73.167-61.5-85-1.2 0-.5 3.333 0 5 48.8 34.4 59.333 69 58.5 82l3-2z" class="Vector 6_4"/>
              <path stroke="#000" d="M795.638 369c.333-2 2.4-6.1 8-6.5" class="Vector 5_3"/>
              <path stroke="#000" d="M806.138 379c.333-2 2.4-6.1 8-6.5" class="Vector 5.1_2"/>
              <path stroke="#000" d="M818.138 391c.333-2 2.4-6.1 8-6.5" class="Vector 5.2_2"/>
              <path stroke="#000" d="M829.138 406c.333-2 2.4-6.1 8-6.5" class="Vector 5.3_2"/>
              <path stroke="#000" d="M838.138 420c.333-2 2-5.5 7.5-4.5" class="Vector 5.4_2"/>
              <path stroke="#000" d="M843.138 433.176c.333-2 2-5.5 7.5-4.5" class="Vector 5.5_2"/>
              <path fill="#00488A" d="M871.396 451.795a17.5 17.5 0 10-32.85 12.077l5.875-2.16a11.24 11.24 0 1121.1-7.757l5.875-2.16z" class="Ellipse 2_2"/>
            </g>
          </g>
          <g class="Group 6">
            <rect width="104" height="63" x="629" y="345" fill="#3072F3" class="Rectangle_7" rx="8"/>
            <path stroke="#fff" stroke-linecap="round" stroke-width="1.208" d="M645 379.064h18.633l4.861-11.342 2.431 20.253 2.43-13.772 4.051 3.24 1.62-19.443 4.051 29.975 2.43-10.532h7.292l1.62-7.291 1.62 12.962 2.431-17.823 2.43 12.152h12.962" class="Vector_6"/>
          </g>
          <path fill="#000" fill-opacity=".06" d="M726.641 408H703.5s8.383-14.255 10.5-25.5c2.662-14.139-3-37.5-3-37.5h13.783c5.055 0 9.118 4.161 8.998 9.214l-1.142 47.929a6 6 0 01-5.998 5.857z" class="Vector 2_3"/>
          <path fill="#000" fill-opacity=".05" d="M629.436 400.929L629 353c3.2 42.4 19.5 54.5 26.5 54.5l-18.93.364a7 7 0 01-7.134-6.935z" class="Vector_7"/>
          <g class="Group 15">
            <circle cx="666.371" cy="400.371" r="2.371" fill="#fff" class="Ellipse_3"/>
            <circle cx="674.5" cy="400.371" r="2.371" fill="#EDD06C" class="Ellipse_4"/>
            <circle cx="682.629" cy="400.371" r="2.371" fill="#F995C5" class="Ellipse_5"/>
          </g>
          <g class="Group 15_2">
            <circle cx="571" cy="524" r="4" fill="#000" fill-opacity=".15" class="Ellipse_6"/>
            <circle cx="588" cy="509" r="4" fill="#000" fill-opacity=".15" class="Ellipse_7"/>
            <circle cx="605" cy="494" r="4" fill="#000" fill-opacity=".15" class="Ellipse_8"/>
            <circle cx="622" cy="479" r="4" fill="#000" fill-opacity=".15" class="Ellipse_9"/>
            <circle cx="639" cy="464" r="4" fill="#000" fill-opacity=".15" class="Ellipse_10"/>
          </g>
          <g class="Group 15.1">
            <circle r="4" fill="#000" fill-opacity=".15" class="Ellipse_11" transform="matrix(-1 0 0 1 781 524)"/>
            <circle r="4" fill="#000" fill-opacity=".15" class="Ellipse_12" transform="matrix(-1 0 0 1 764 509)"/>
            <circle r="4" fill="#000" fill-opacity=".15" class="Ellipse_13" transform="matrix(-1 0 0 1 747 494)"/>
            <circle r="4" fill="#000" fill-opacity=".15" class="Ellipse_14" transform="matrix(-1 0 0 1 730 479)"/>
            <circle r="4" fill="#000" fill-opacity=".15" class="Ellipse_15" transform="matrix(-1 0 0 1 713 464)"/>
          </g>
        </g>
        <g class="Group 16">
          <path fill="#F9F4F4" fill-rule="evenodd" d="M716.632 204a2.633 2.633 0 00-2.632 2.632v25.667a2.633 2.633 0 002.632 2.633h10.14l6.972 8.555 6.02-8.555h48.604a2.633 2.633 0 002.632-2.633v-25.667a2.633 2.633 0 00-2.632-2.632h-71.736z" class="Union_2" clip-rule="evenodd"/>
          <g class="Group 15_3">
            <circle cx="734.731" cy="218.808" r="4.278" fill="#C4C4C4" fill-opacity=".39" class="Ellipse_16"/>
            <circle cx="750.526" cy="218.808" r="4.278" fill="#C4C4C4" fill-opacity=".39" class="Ellipse_17"/>
            <circle cx="766.32" cy="218.808" r="4.278" fill="#C4C4C4" fill-opacity=".39" class="Ellipse_18"/>
          </g>
        </g>
        <g class="Group 16.1">
          <path fill="#F9F4F4" fill-rule="evenodd" d="M704.368 142a2.633 2.633 0 012.632 2.632v25.667a2.633 2.633 0 01-2.632 2.633h-10.14l-6.972 8.555-6.02-8.555h-48.604a2.633 2.633 0 01-2.632-2.633v-25.667a2.633 2.633 0 012.632-2.632h71.736z" class="Union_3" clip-rule="evenodd"/>
          <g class="Group 15_4">
            <circle r="4.278" fill="#C4C4C4" fill-opacity=".39" class="Ellipse_19" transform="matrix(-1 0 0 1 682.269 156.808)"/>
            <circle r="4.278" fill="#C4C4C4" fill-opacity=".39" class="Ellipse_20" transform="matrix(-1 0 0 1 666.474 156.808)"/>
            <circle r="4.278" fill="#C4C4C4" fill-opacity=".39" class="Ellipse_21" transform="matrix(-1 0 0 1 650.679 156.808)"/>
          </g>
        </g>
        <g class="Group 15.2">
          <circle cx="296.371" cy="451.371" r="2.371" fill="#fff" class="Ellipse_22"/>
          <circle cx="304.5" cy="451.371" r="2.371" fill="#EDD06C" class="Ellipse_23"/>
          <circle cx="312.629" cy="451.371" r="2.371" fill="#F995C5" class="Ellipse_24"/>
        </g>
      </g>
    </g>
  </g>
</svg>
