<svg xmlns="http://www.w3.org/2000/svg" width="1155" height="700" fill="none" viewBox="0 0 1155 700">
  <g class="avatarone_man">
    <path fill="#fff" d="M0 0h1155v700H0z"/>
    <g class="Group 3.1">
      <circle cx="577" cy="350" r="225" fill="#FCD7CB" class="Ellipse"/>
      <g class="Group 2">
        <path fill="#C16D6D" fill-rule="evenodd" d="M629.478 342.946c.015-.799.022-1.594.022-2.383 0-36.45-15.706-73-50.5-73s-55 36.55-55 73c0 .648.006 1.299.019 1.954-2.696-3.511-6.406-6.944-10.004-5.689-1.74.606-3.177 5-3 8.5.173 3.429 4.903 32.876 20.521 36.32 2.658 7.204 5.992 14.048 9.964 20.098v35.817l-69.5 20c-11.333 1.667-34.2 11.6-35 38v22l286 4s3-50.147-18.5-56.5c-44-13-94.5-27.5-94.5-27.5v-28.928c6.314-8.276 11.032-18.884 14.244-30.201 15.805-3.2 20.582-32.924 20.756-36.371.177-3.5-1.261-7.893-3-8.499-4.928-1.719-10.067 5.357-12.522 9.382z" class="Union" clip-rule="evenodd"/>
        <path fill="#000" fill-opacity=".05" d="M542 451l-.5-14.5V402h.5s1.063 12.511 2 20.5c.849 7.241 1.196 10.403 2.5 18.5 1.483 9.207 8 22.5 8 22.5L542 451z" class="Vector 5"/>
        <path fill="#000" fill-opacity=".05" d="M633.544 346.301l-2.703 1.953a.998.998 0 00-.403.662l-2.87 19.132c-.043.287.041.579.229.799l.944 1.101c.604.704 1.759.277 1.759-.651V364l.975-11.696a.997.997 0 01.215-.542l3.221-4.025c.727-.909-.423-2.117-1.367-1.436z" class="Vector 6"/>
        <path fill="#000" fill-opacity=".05" d="M517.956 348.301l2.703 1.953a.998.998 0 01.403.662l2.87 19.132c.043.287-.041.579-.229.799l-.944 1.101c-.604.704-1.759.277-1.759-.651V366l-.975-11.696a.997.997 0 00-.215-.542l-3.221-4.025c-.727-.909.423-2.117 1.367-1.436z" class="Vector 6.1"/>
        <path fill="#000" fill-opacity=".03" d="M610 410c-3.534 46-25 46.667-36 60.5 28.4 12 36.333-21.167 36-34V410z" class="Vector 5_2"/>
        <path fill="#fff" fill-opacity=".07" d="M629.5 340.563c0 36.451-15.706 85-50.5 85s-55-48.549-55-85c0-36.45 20.206-73 55-73s50.5 36.55 50.5 73z" class="Ellipse_2"/>
        <path fill="#FBA78C" d="M541.5 437.563s2.662 10.737 7 16c7.403 8.983 15.86 11.354 27.5 11.5 12.001.151 21.452-1.785 28.5-11.5 3.88-5.347 5.5-16 5.5-16s50.5 14.5 94.5 27.5c21.5 6.353 18.5 56.5 18.5 56.5s-65.185 63.226-156 52.937C465.5 563 437 524 437 524v-28.437c.8-26.4 23.667-36.333 35-38l69.5-20z" class="Vector 5.2"/>
        <path fill="#000" fill-opacity=".03" d="M723 521.5L690.5 546s15.573-21.776 17.5-38c2.128-17.92-10.5-45-10.5-45 25.2 4 27.5 40.667 25.5 58.5z" class="Vector 5_3"/>
        <path fill="#000" fill-opacity=".02" d="M453.5 464c-18.4 8.4-18.833 45.667-16.5 62 0 0 8.828 7.056 15 11.5 6.88 4.954 19 11 19 11s-44.5-68.787 31.5-84.5c15.356-3.175 61.5 0 61.5 0-14-2.8-21.5-18-22.5-26-21.5 5.167-69.6 17.6-88 26z" class="Vector 5_4"/>
        <path stroke="#000" stroke-linecap="round" stroke-width="3" d="M590.5 329.064c6.167-.167 17.2-.701 22 6.499" class="Vector"/>
        <path stroke="#000" stroke-linecap="round" stroke-width="3" d="M566 329.643c-6.167-.167-17.2-.7-22 6.5" class="Vector_2"/>
        <g class="Group">
          <ellipse cx="592.5" cy="350.063" fill="#000" class="Ellipse 2" rx="5.5" ry="6.5"/>
          <ellipse cx="593" cy="350.109" fill="#fff" class="Ellipse 2.1" rx="3" ry="3.545"/>
        </g>
        <g class="Group_2">
          <ellipse cx="563.5" cy="350.063" fill="#000" class="Ellipse 2_2" rx="5.5" ry="6.5"/>
          <ellipse cx="564" cy="350.109" fill="#fff" class="Ellipse 2.1_2" rx="3" ry="3.545"/>
        </g>
        <path stroke="#000" d="M574 358.063l-1 22.5c2.167.834 7.3 2 10.5 0" class="Vector 2"/>
        <path stroke="#000" stroke-linecap="round" stroke-width="2" d="M561.5 394.563c6.5 2.667 22.4 6 34-2" class="Vector 3"/>
        <path fill="#090D31" d="M528.5 317.563c-2 6.937-2.166 30.167-3 42.5-14-28-15.166-69-14-86 17.6-55.6 63.667-30.833 84.5-11.5 67.2-5.6 50.667 51.667 34 81-3.5 20.437-3.5-2.7-3.5-11.5s-6-20-9-24.5c-6.4-.8-13.666-10.333-16.5-15h-50c-5.5 1.5-5.64-1-5.5 2.5.5 12.5-15.326 16.695-17 22.5z" class="Vector 4"/>
        <path fill="#fff" fill-opacity=".12" d="M610 272c7.5 1 30.5 0 25.5 22.5-2.198-15-14.3-17.3-25.5-22.5z" class="Vector 6_2"/>
        <path fill="#fff" fill-opacity=".11" d="M534 250.951c11.272-6.64 33.5 0 33.5 0s-19.053.1-29 6c-11.253 6.676-20.5 26.5-20.5 26.5s3.811-25.32 16-32.5z" class="Vector 5_5"/>
      </g>
    </g>
  </g>
</svg>
