<svg xmlns="http://www.w3.org/2000/svg" width="1155" height="700" fill="none" viewBox="0 0 1155 700">
  <g class="avatarthree_man">
    <path fill="#fff" d="M0 0h1155v700H0z"/>
    <g class="Group 8.2">
      <circle cx="577" cy="350" r="225" fill="#B9F6F2" class="Ellipse"/>
      <g class="Group 4">
        <g class="Group 2.1">
          <path fill="#D5645D" fill-rule="evenodd" d="M627.67 337.777c-.052-.687-.109-1.377-.17-2.07C627.5 299.256 611.794 267 577 267s-55 32.256-55 68.707c0 .642.002 1.288.007 1.937-2.696-3.505-6.4-6.926-9.992-5.673-1.74.607-3.177 5-3 8.5.159 3.151 4.165 28.266 16.929 34.995 2.621 11.001 6.854 21.235 13.556 29.177v28.064l-69.5 20c-11.333 1.666-34.2 11.6-35 38v22l280 4.793s9-50.941-12.5-57.293c-44-13-94.5-27.5-94.5-27.5V408.68c8.873-8.391 15.09-20.874 18.086-36.486 12.752-6.741 16.755-31.837 16.914-34.987.177-3.5-1.261-7.893-3-8.5-4.803-1.675-9.806 5.004-12.33 9.07z" class="Union" clip-rule="evenodd"/>
          <path fill="#616060" fill-opacity=".04" d="M552.5 443c1.517-15.425-13-37.5-13-37.5V433l-1.5 4.5 10 21.5s3.865-9.54 4.5-16z" class="Vector 5"/>
          <path fill="#616060" fill-opacity=".04" d="M583 461c7.2-.8 19-30 24-47l1-5v23.5l3.5 36.5-46 4.5L583 461z" class="Vector 6"/>
          <path fill="#fff" fill-opacity=".07" d="M627.5 335.707c4.5 50.936-15.706 85-50.5 85-48 0-55-48.549-55-85S542.206 265 577 265s50.5 34.256 50.5 70.707z" class="Ellipse_2"/>
          <path fill="#24A8A8" d="M539.5 432.707s2.662 10.737 7 16c7.403 8.983 15.86 11.354 27.5 11.5 12.001.15 21.452-1.786 28.5-11.5 3.88-5.348 5.5-16 5.5-16s50.5 14.5 94.5 27.5C724 466.559 720 524 720 524s-53 50-146 50c-100.18 0-139-50-139-50v-33.293c.8-26.4 23.667-36.334 35-38l69.5-20z" class="Vector 5.2"/>
          <path fill="#000" fill-opacity=".03" d="M689.5 471.5l-71-35s73.5 21 88 25.5 14 62 14 62l-18 12-13-64.5z" class="Vector 6_2"/>
          <path fill="#000" fill-opacity=".02" d="M551 454l-105 79.5-10.5-8.5s-7.736-52.341 16-65c15-8 88-27 88-27 .4 6 7.833 16.5 11.5 21z" class="Vector 6_3"/>
          <path stroke="#000" stroke-linecap="round" stroke-width="3" d="M588.5 325.079c6.167-.166 17.2-.7 22 6.5" class="Vector"/>
          <path stroke="#000" stroke-linecap="round" stroke-width="3" d="M564 325.658c-6.167-.166-17.2-.7-22 6.5" class="Vector_2"/>
          <g class="Group">
            <ellipse cx="590.5" cy="345.207" fill="#000" class="Ellipse 2" rx="5.5" ry="6.5"/>
            <ellipse cx="591" cy="345.252" fill="#fff" class="Ellipse 2.1" rx="3" ry="3.545"/>
          </g>
          <g class="Group_2">
            <ellipse cx="561.5" cy="345.207" fill="#000" class="Ellipse 2_2" rx="5.5" ry="6.5"/>
            <ellipse cx="562" cy="345.252" fill="#fff" class="Ellipse 2.1_2" rx="3" ry="3.545"/>
          </g>
          <path stroke="#000" d="M576 353l-5 22.707c2.167.833 7.3 2 10.5 0" class="Vector 2"/>
          <path stroke="#000" d="M559.5 389.707c10 3.293 22.5 4.793 35-2.207" class="Vector 3"/>
          <path fill="#fff" fill-opacity=".08" d="M623.5 247.703c-10.966-7.593-34.5 0-34.5 0s28.849-20.93 41-9c8.389 8.236 2.5 30 2.5 30s-1.664-15.921-9-21z" class="Vector 5_2"/>
        </g>
      </g>
      <path fill="#091840" d="M618.591 296.185c-2 4.4 9.128 52.666 9.962 65 0-28 12.129-53.211-4.462-82.707-13.5-24-43.5-20-63.05-17.734-49.45 5.731-45.541 62.256-35.962 97.5 1.167-.167 2.474-16.259 2.474-25.059s2.538-32.5 5.538-37c6.4-.8 17.5-11.921 30 2.436s55.5-2.436 55.5-2.436z" class="Vector 4"/>
    </g>
  </g>
</svg>
