<svg xmlns="http://www.w3.org/2000/svg" width="1155" height="700" fill="none" viewBox="0 0 1155 700">
  <g class="basketballsgrowth">
    <path fill="#fff" d="M0 0h1155v700H0z"/>
    <g class="Group 6">
      <path fill="#fff" fill-opacity=".16" d="M760.402 488.461c133.555-129.478 203.624-356.103 16.271-422.174-142.319-50.19-144.306 196.74-346.334 139.018-90.236-25.782-143.767 157.335-84.16 283.156 77.207 162.972 284.746 125.525 414.223 0z" class="Vector"/>
      <g class="Group 5">
        <g class="Group 3">
          <g class="Group 3_2">
            <ellipse cx="525.598" cy="85.463" fill="#FF986B" class="Ellipse" rx="27.569" ry="29.463"/>
            <path fill="#F88B5D" d="M545.092 64.63c2.953 3.155 5.196 6.986 6.561 11.203a31.378 31.378 0 011.318 13.141c-.498 4.43-1.931 8.683-4.191 12.435-2.259 3.752-5.287 6.907-8.855 9.226-3.567 2.319-7.581 3.742-11.738 4.161a25.941 25.941 0 01-12.259-1.741c-3.91-1.565-7.436-4.059-10.313-7.294-2.877-3.234-5.028-7.125-6.292-11.378l26.275-8.92 19.494-20.833z" class="Ellipse_2"/>
            <g class="Group 3_3">
              <path stroke="#000" stroke-width="1.003" d="M500.535 96.351c11.111 1.42 35.74-2.707 45.364-30.577" class="Vector 17"/>
              <path stroke="#000" stroke-width="1.003" d="M507.553 111.64c11.111 1.42 35.74-2.707 45.364-30.576" class="Vector 17.1"/>
              <path stroke="#000" stroke-width="1.003" d="M548.405 101.615c-11.111 1.42-35.739-2.707-45.363-30.576" class="Vector 17.2"/>
            </g>
          </g>
          <path fill="#C64F4F" fill-rule="evenodd" d="M517.077 317.405s-40.101-56.893-54.637-99.499c-3.368-9.872-4.232-16.241-2.757-26.567 1.425-9.975 11.203-28.097 20.466-45.262 8.658-16.045 16.865-31.255 17.379-38.197.459-6.198-.061-14.026-.504-20.69-.524-7.888-.94-14.147.504-14.147 2.369 0 3.746 6.64 5.334 14.3 1.604 7.734 3.422 16.508 6.696 20.537 3.502 4.31 10.737 4.099 15.897 3.948 2.83-.083 5.036-.147 5.657.563.672.768-1.652 1.631-4.981 2.869-4.854 1.805-11.846 4.405-14.819 8.66-12.782 18.296-21.554 72.682-21.554 72.682s7.12 24.811 15.79 38.597c5.965 9.485 18.045 22.306 18.045 22.306 4.094 11.278 8.522 39.048-6.516 59.9zm26.817-74.185l-4.762 18.546-2.255 6.015 27.318 24.812 15.038-30.827h-6.767c-6.817-4.411-6.517-9.648-5.514-11.716 3.033.375 4.817.235 6.517.102.498-.039.99-.077 1.503-.102 7.82-9.022 5.013-31.893 1.754-42.42-35.288-11.027-36.591 19.132-32.832 35.59zm-1.559 277.166c-7.852-.576-20.451-5.728-33.028-23.531 0 0-15.216 6.413-25.564 7.519-32.832 3.508-68.922 0-68.922 0-.504 1.314-1.625 3.219-2.893 5.376-2.523 4.288-5.629 9.568-5.629 13.17 0 0 35.178 1.022 56.141 3.258 6.911.737 12.539 1.959 17.933 3.129 7.884 1.711 15.269 3.314 25.426 3.137 2.878-.05 5.589-.037 8.158-.024h.003c4.515.022 8.593.042 12.379-.288-1.897 1.536-3.706 3.091-5.252 4.573-2.905 2.782-4.842 5.291-6.769 7.788-1.995 2.584-3.979 5.154-7.016 8.001-11.012 10.325-32.581 20.802-32.581 20.802l6.767 19.048s90.477-53.384 98.747-63.91c5.063-6.444 4.261-21.053 4.261-21.053-10.526 1.003-26.817.752-30.577-3.509l-11.584 16.514zm101.309-244.335l-48.12-10.777s5.263 22.557 6.265 35.088c0 0 37.255 4.943 58.647-3.509 20.301-8.02 71.429-39.599 71.429-39.599s13.785.752 19.549-1.754c1.707-.742-.121-1.262-2.629-1.976-2.452-.698-5.554-1.581-6.644-3.037-3.165-4.23 6.701-8.984 13.182-12.106 4.311-2.077 7.124-3.433 3.61-3.433-2.757 0-31.579 12.532-31.579 12.532l-83.71 28.571z" class="Union" clip-rule="evenodd"/>
          <path fill="#000" fill-opacity=".04" d="M574.971 526.429c-12.782 12.281-75.439 48.121-75.439 48.121 0 2.205 1.838 4.595 2.757 5.514 0 0 65.163-37.845 78.447-52.131 3.551-3.819 4.01-18.797 4.01-18.797l-7.77 2.005s2.337 11.116-2.005 15.288z" class="Vector 12"/>
          <path fill="#000" fill-opacity=".05" d="M555.673 245.475c1.805 1.404 8.271 3.592 11.279 4.511-1.805 5.414 2.924 9.942 5.513 11.529v4.762h-5.513c-6.617 0-10.276-13.868-11.279-20.802z" class="Vector 12_2"/>
          <path fill="#000" fill-opacity=".05" d="M482.74 197.605c.31-3.333 2.256-8.271 2.256-8.271s4.174-15.768 7.769-25.564c3.941-10.738 11.78-26.817 11.78-26.817l-8.522 26.817-6.265 33.835 9.022 25.564s-17.132-13.829-16.04-25.564z" class="Vector 17_2"/>
          <path fill="#000" fill-opacity=".08" d="M517.076 316.904c4.411 1.403 8.522-19.131 10.025-29.574 0 0-19.754-11.755-30.326-21.805-19.685-18.714-36.591-59.148-36.591-59.148 0 20.251 37.928 82.122 56.892 110.527z" class="Vector 12_3"/>
          <path fill="#000" fill-opacity=".11" d="M651.413 295.851c-19.14 3.192-49.624-2.506-49.624-2.506v6.767c12.782 2.005 31.169 1.558 41.353 1.002 13.785-.752 41.855-16.04 54.136-23.559 0 0-26.844 15.124-45.865 18.296z" class="Vector 12_4"/>
          <path fill="#12123C" d="M593.017 185.575c3.508 20.301-27.068 24.812-32.331 26.817-.585 4.678-1.404 14.937 0 18.546h-2.507s-1.504-8.772-3.258-8.772c-8.271 0-2.256 13.284-2.256 13.284l-7.017 10.276-2.256 2.005c-9.022-21.053-5.764-35.59-2.757-41.856 2.406-5.012 16.959-13.116 23.058-13.533 15.288-6.767 25.815-27.068 29.324-6.767z" class="Vector 12_5"/>
          <path fill="#25148B" d="M503.793 395.1c19.048-27.068 16.04-62.49 13.033-76.943 14.235-23.66 9.858-50.293 6.265-60.903l15.539 4.261c29.274 29.473 34.587 12.281 33.584 0 7.018 0 16.793.752 23.309 3.509 3.759 1.59 6.85 31.078 6.516 42.606 0 11.429-7.853 42.691-11.779 56.893-4.211 37.093-7.101 45.865-8.02 45.614-46.517-28.271-69.926-22.556-78.447-15.037z" class="Vector_2"/>
          <path fill="#000" fill-opacity=".09" d="M517.327 317.907c4.01-7.602 9.273-17.293 9.273-40.852 0-14.549 8.521-2.758 9.273 2.506 0 0-3.535 26.282 11.529 38.346 8.48 6.791 10.35 6.375 18.296 13.785 19.282 17.98-38.597 55.389-38.597 55.389-6.291.898-19.216 3.252-21.656 5.606-.375.483-.462.534-.148.158.044-.053.093-.106.148-.158 2.622-3.379 19.337-27.858 11.882-74.78z" class="Vector 16"/>
          <path fill="#000" fill-opacity=".04" d="M462.44 526.178c-20.963-2.236-56.141-3.258-56.141-3.258 0-5.413 7.017-14.62 8.521-18.546 0 0 36.091 3.509 68.923 0 10.347-1.106 25.564-7.519 25.564-7.519 15.439 21.855 30.911 24.645 37.594 23.308 0 0-3.09 5.715-5.514 7.269-9.774 6.265-20.321 4.746-35.589 5.012-17.106.298-26.347-4.451-43.358-6.266z" class="Vector 4.1"/>
          <path fill="#000" fill-opacity=".07" d="M495.523 507.883c-7.62 3.609-41.772 3.508-57.896 3.007l1.254-5.012c46.867 3.007 65.414-6.517 70.677-9.023l2.255 4.01c-2.255.835-8.671 3.409-16.29 7.018z" class="Vector 15"/>
          <path fill="#E7E2EE" d="M505.547 463.522c-15.438-40.101-6.432-63.827 0-70.678 21.254-12.832 59.817 5.347 76.442 16.041 3.008 14.436 3.091 73.183 2.757 100.752-7.218 4.612-23.372-.752-30.547-4.01-2.439 6.094-4.858 10.979-6.797 14.286-13.834 7.419-31.161-12.448-38.095-23.308l-3.76-33.083z" class="Vector 2"/>
          <path fill="#000" fill-opacity=".03" d="M565.197 438.96c0 21.453-19.048 63.242-28.572 81.454 4.211 2.205 8.94.418 10.777-.752 11.028-14.637 21.053-61.153 17.795-80.702z" class="Vector 14"/>
          <path fill="#000" fill-opacity=".08" d="M518.83 444.223l-6.015 56.642-3.509-4.01-3.759-33.334-4.511-14.285c-9.424-32.281-.919-51.212 4.511-56.642 5.614-3.008 11.195-3.425 13.283-3.258-6.416 15.037-2.673 42.857 0 54.887z" class="Vector 13"/>
          <path fill="#3A2C70" d="M435.121 524.173c-1.203-3.809 2.172-13.784 4.01-18.296l-23.81-1.754c-3.007 2.206-7.268 13.45-9.022 18.797l28.822 1.253z" class="Vector 5"/>
          <path fill="#fff" fill-rule="evenodd" d="M428.344 505.197l-5.263 17.795-.481-.142 5.264-17.795.48.142zm5.514.501l-5.263 17.795-.481-.142 5.263-17.795.481.142zm-18.296 17.795l5.263-17.795-.48-.142-5.263 17.795.48.142z" class="Union_2" clip-rule="evenodd"/>
          <path fill="#3A2C70" d="M481.738 592.595l20.802-12.03s-3.556-5.389-5.012-9.023c-1.609-4.014-2.006-10.025-2.006-10.025l-21.052 11.78 7.268 19.298z" class="Vector 6"/>
          <g class="Group">
            <path stroke="#fff" stroke-width=".501" d="M487.753 566.28l8.521 17.795" class="Vector 12_6"/>
            <path stroke="#fff" stroke-width=".501" d="M483.993 568.285l8.522 17.795" class="Vector 12.1"/>
            <path stroke="#fff" stroke-width=".501" d="M480.234 570.29l8.521 17.795" class="Vector 12.2"/>
          </g>
          <path fill="#144B8B" d="M378.98 523.171l17.544-32.331 2.256-3.008 16.541 16.542c-2.005 3.007-4.762 12.03-8.772 18.797 0 0-31.807 31.328-36.09 31.328-11.529 0-7.77-4.762-7.77-4.762l16.291-26.566z" class="Vector 7"/>
          <path fill="#144B8B" d="M449.908 582.068l25.063-8.02 4.999 14.036 1.517 4.26-15.539 46.868s-6.05 6.123-9.774 4.26c-2.005-1.002-4.511-19.298-4.511-19.298l-1.755-42.106z" class="Vector 8"/>
          <path fill="#000" fill-opacity=".06" d="M479.984 587.833l-28.321 36.592 3.508 17.794c2.807 4.01 8.188-.334 10.527-3.007l15.789-47.118-1.503-4.261z" class="Vector 11"/>
          <path fill="#000" fill-opacity=".1" d="M565.448 438.709c6.817 19.248 2.84 54.971 0 70.427-.802 0-7.853-2.674-11.279-4.01 8.823-18.447 13.284-51.379 11.279-66.417z" class="Vector 12_7"/>
          <g class="Group 2">
            <rect width="15.038" height="2.506" x="469.813" y="596.855" fill="#fff" class="Rectangle" rx="1.253" transform="rotate(20 469.813 596.855)"/>
            <rect width="15.038" height="2.506" x="466.806" y="602.871" fill="#fff" class="Rectangle_2" rx="1.253" transform="rotate(20 466.806 602.871)"/>
            <rect width="15.038" height="2.506" x="464.801" y="608.886" fill="#fff" class="Rectangle_3" rx="1.253" transform="rotate(20 464.801 608.886)"/>
          </g>
          <g class="Group 2.1">
            <rect width="15.038" height="2.506" x="390.047" y="523.064" fill="#fff" class="Rectangle_4" rx="1.253" transform="rotate(31 390.047 523.064)"/>
            <rect width="15.038" height="2.506" x="385.947" y="528.394" fill="#fff" class="Rectangle_5" rx="1.253" transform="rotate(31 385.947 528.394)"/>
            <rect width="15.038" height="2.506" x="382.831" y="533.918" fill="#fff" class="Rectangle_6" rx="1.253" transform="rotate(31 382.831 533.918)"/>
          </g>
        </g>
        <g class="Group 4">
          <rect width="184.462" height="87.219" x="618.832" y="81.063" fill="#FF89D0" class="Rectangle_7" rx="15.038"/>
          <path fill="#FF93D4" d="M645.398 97.103h157.896v56.642c0 8.029-6.508 14.537-14.537 14.537H645.398V97.103z" class="Rectangle_8"/>
          <rect width="41.103" height="41.103" x="636.375" y="104.121" fill="#fff" fill-opacity=".28" class="Rectangle 2" rx="10.025"/>
          <path stroke="#fff" stroke-linecap="round" stroke-width="2.506" d="M687.503 141.465l8.021 6.015 14.035-16.041 9.273 4.762 15.288-15.288 10.276 5.765 13.785-16.291 12.28 10.526 17.544-19.298" class="Vector_3"/>
          <path stroke="#fff" stroke-linecap="round" stroke-opacity=".28" stroke-width=".501" d="M687.503 136.953l8.021 6.015 14.035-16.04 9.273 4.762 15.288-15.288 10.276 5.764 13.785-16.29 12.28 10.526 17.544-19.299" class="Vector_4"/>
        </g>
      </g>
    </g>
  </g>
</svg>
