<svg xmlns="http://www.w3.org/2000/svg" width="1155" height="700" fill="none" viewBox="0 0 1155 700">
  <g clip-path="url(#clip0)">
    <path fill="#fff" d="M0 0h1155v700H0z"/>
    <g class="Group">
      <g class="book">
        <g class="Union">
          <path fill="#4D5EFF" fill-rule="evenodd" d="M555.377 399.602L744.78 509.177l.002-29.993 25.952 15.008.018-304.452L582.326 81.858l.091 30.174-23.487-13.407 23.363-12.485-.074-4.471-27.46 15.854.618 302.079z" clip-rule="evenodd"/>
          <path fill="#000" d="M744.78 509.177l-.108.188.326.188v-.376h-.218zM555.377 399.602h-.217v.125l.108.063.109-.188zm189.405 79.582l.109-.188-.326-.188v.376h.217zm25.952 15.008l-.109.188.326.189v-.377h-.217zm.018-304.452h.217v-.126l-.109-.062-.108.188zM582.326 81.858l.108-.189-.326-.187.001.376h.217zm.091 30.174l-.107.189.326.186-.001-.375h-.218zM558.93 98.625l-.102-.191-.347.185.342.195.107-.189zm23.363-12.485l.102.192.117-.063-.002-.133-.217.004zm-.074-4.471l.217-.004-.006-.369-.319.184.108.189zm-27.46 15.854l-.108-.188-.109.062v.126h.217zm190.13 411.466L555.486 399.414l-.218.376 189.404 109.575.217-.376zm-.324-29.805l-.002 29.993h.435l.001-29.993h-.434zm.109.188l25.951 15.008.218-.376-25.952-15.008-.217.376zm26.277 14.82l.018-304.452h-.434l-.018 304.452h.434zm-.091-304.64L582.434 81.669l-.216.377L770.644 189.93l.216-.377zM582.109 81.858l.091 30.175.435-.001-.092-30.175-.434.001zm-23.286 16.956l23.487 13.407.215-.377-23.487-13.407-.215.377zm23.368-12.865l-23.363 12.485.205.383 23.362-12.485-.204-.383zm-.189-4.277l.074 4.472.434-.008-.074-4.471-.434.007zm-27.134 16.039l27.46-15.854-.217-.376-27.46 15.854.217.376zm.726 301.89l-.618-302.079-.434.001.618 302.079.434-.001z"/>
        </g>
        <path stroke="#fff" stroke-width=".869" d="M591.828 358.494l112.03 65.472 1.167-173.458-112.464-66.225-.733 174.211z" class="Vector"/>
        <path stroke="#fff" stroke-width=".995" d="M584.174 366.082l128.298 74.98 1.337-198.647-128.796-75.842-.839 199.509z" class="Vector_2"/>
        <g class="paper">
          <g class="paper_2">
            <path fill="#FBECEC" stroke="#000" stroke-opacity=".1" stroke-width=".434" d="M766.785 489.951l-22.57 13.03.396-298.15 22.57-13.031-.396 298.151z" class="Vector 2"/>
            <path fill="#FBECEC" stroke="#000" stroke-opacity=".1" stroke-width=".434" d="M580.239 84.315l-23.51 13.574 187.695 107.05 22.57-13.03L580.239 84.315z" class="Vector 2.1"/>
          </g>
          <g class="Group 2">
            <path stroke="#000" stroke-opacity=".12" stroke-width=".869" d="M748.843 495.796l.792-281.828" class="Vector_3"/>
            <path stroke="#000" stroke-opacity=".12" stroke-width=".869" d="M752.793 493.515l.793-281.828" class="Vector_4"/>
            <path stroke="#000" stroke-opacity=".12" stroke-width=".869" d="M756.741 491.235l.793-281.828" class="Vector_5"/>
            <path stroke="#000" stroke-opacity=".12" stroke-width=".869" d="M760.692 488.955l.792-281.828" class="Vector_6"/>
          </g>
          <path fill="#FD82AE" d="M784.717 492.895c-8.587-14.985-24.541-55.815-34.531-78.619v-16.94l6.949 16.94c4.127 13.9 30.273 70.438 47.502 101.857l-9.556-9.339-.374 10.642c-4.995-11.293.761-5.779-9.99-24.541z" class="Vector_7"/>
          <g class="Group 2.1">
            <path stroke="#000" stroke-opacity=".12" stroke-width=".869" d="M567.573 95.39L750.019 198.7" class="Vector_8"/>
            <path stroke="#000" stroke-opacity=".12" stroke-width=".869" d="M570.538 93.677l182.447 103.31" class="Vector_9"/>
            <path stroke="#000" stroke-opacity=".12" stroke-width=".869" d="M573.506 91.964l182.447 103.31" class="Vector_10"/>
            <path stroke="#000" stroke-opacity=".12" stroke-width=".869" d="M576.472 90.251l182.446 103.31" class="Vector_11"/>
          </g>
        </g>
      </g>
      <g class="book_2">
        <path fill="#4C5EFF" fill-rule="evenodd" d="M461.094 341.549l-181.515 122.2 26.959 13.151-24.867 16.747 273.632 133.479 179.565-122.064-27.164-13.146 22.348-15.234.98 26.472 4.051 1.893-2.212-31.63-271.777-131.868z" class="Union_2" clip-rule="evenodd"/>
        <path stroke="#fff" stroke-width=".869" d="M482.063 392.333l-107.957 71.991 155.392 77.088 108.823-72.051-156.258-77.028z" class="Vector_12"/>
        <path stroke="#fff" stroke-width=".995" d="M478.598 382.125L354.964 464.57l177.957 88.283 124.626-82.514-178.949-88.214z" class="Vector_13"/>
        <g class="paper_3">
          <g class="paper_4">
            <path fill="#FBECEC" stroke="#000" stroke-opacity=".15" stroke-width=".434" d="M287.212 491.954l-1.818-25.998 267.802 131.057 1.818 25.998-267.802-131.057z" class="Vector 2_2"/>
            <path fill="#FBECEC" stroke="#000" stroke-opacity=".15" stroke-width=".434" d="M733.573 502.107l-1.894-27.082-178.497 121.772L555 622.795l178.573-120.688z" class="Vector 2.1_2"/>
          </g>
          <g class="Group 2_2">
            <path stroke="#000" stroke-opacity=".12" stroke-width=".869" d="M289.825 473.266l252.958 124.257" class="Vector_14"/>
            <path stroke="#000" stroke-opacity=".12" stroke-width=".869" d="M290.141 477.814l252.958 124.258" class="Vector_15"/>
            <path stroke="#000" stroke-opacity=".12" stroke-width=".869" d="M290.458 482.365l252.958 124.257" class="Vector_16"/>
            <path stroke="#000" stroke-opacity=".12" stroke-width=".869" d="M290.777 486.914l252.958 124.258" class="Vector_17"/>
          </g>
          <g class="Group 2.1_2">
            <path stroke="#000" stroke-opacity=".12" stroke-width=".869" d="M729.171 485.866L556.337 604.56" class="Vector_18"/>
            <path stroke="#000" stroke-opacity=".12" stroke-width=".869" d="M729.409 489.284L556.576 607.978" class="Vector_19"/>
            <path stroke="#000" stroke-opacity=".12" stroke-width=".869" d="M729.648 492.7L556.814 611.394" class="Vector_20"/>
            <path stroke="#000" stroke-opacity=".12" stroke-width=".869" d="M729.887 496.117L557.053 614.811" class="Vector_21"/>
          </g>
        </g>
      </g>
      <g class="book_3">
        <path fill="#FFC24D" fill-rule="evenodd" d="M478.929 300.257L289.332 409.498l25.975 14.999-25.974 14.971L552.987 591.71l187.642-109.241-26.179-15.009 23.355-13.637-.869 26.475 3.91 2.172v-31.708L478.929 300.257z" class="Union_3" clip-rule="evenodd"/>
        <path stroke="#fff" stroke-width=".869" d="M496.303 352.38l-112.715 64.285 149.636 87.74 113.584-64.285-150.505-87.74z" class="Vector_22"/>
        <path stroke="#fff" stroke-width=".995" d="M493.559 341.955l-129.083 73.62 171.365 100.481 130.078-73.62-172.36-100.481z" class="Vector_23"/>
        <g class="paper_5">
          <g class="paper_6">
            <path fill="#FBECEC" stroke="#000" stroke-opacity=".08" stroke-width=".434" d="M294.98 438.165v-26.061l258.007 149.418v26.062L294.98 438.165z" class="Vector 2_3"/>
            <path fill="#FBECEC" stroke="#000" stroke-opacity=".08" stroke-width=".434" d="M739.545 479.429v-27.147L552.989 561.305v26.062l186.556-107.938z" class="Vector 2.1_3"/>
          </g>
          <g class="Group 2_3">
            <path stroke="#000" stroke-opacity=".12" stroke-width=".869" d="M298.889 419.704l243.674 141.6" class="Vector_24"/>
            <path stroke="#000" stroke-opacity=".12" stroke-width=".869" d="M298.889 424.266l243.674 141.6" class="Vector_25"/>
            <path stroke="#000" stroke-opacity=".12" stroke-width=".869" d="M298.889 428.827l243.674 141.6" class="Vector_26"/>
            <path stroke="#000" stroke-opacity=".12" stroke-width=".869" d="M298.889 433.387l243.674 141.6" class="Vector_27"/>
          </g>
          <g class="Group 2.1_3">
            <path stroke="#000" stroke-opacity=".12" stroke-width=".869" d="M736.286 462.924L555.594 569.273" class="Vector_28"/>
            <path stroke="#000" stroke-opacity=".12" stroke-width=".869" d="M736.286 466.349L555.594 572.698" class="Vector_29"/>
            <path stroke="#000" stroke-opacity=".12" stroke-width=".869" d="M736.286 469.774L555.594 576.123" class="Vector_30"/>
            <path stroke="#000" stroke-opacity=".12" stroke-width=".869" d="M736.286 473.199L555.594 579.547" class="Vector_31"/>
          </g>
        </g>
        <path fill="#FF7D61" d="M637.036 633.626c-25.452-24.19-40.848-40.559-61.027-73.189l8.904-4.343s28.885 38.549 30.84 42.567c1.954 4.017 32.359 33.011 32.359 33.011l15.42 9.773-15.42-4.778 5.864 9.99-16.94-13.031z" class="Vector 2_4"/>
      </g>
      <g class="man">
        <g class="Vector 2_5">
          <path fill="#fff" d="M397.558 498.132c1.758-12.416 17.032-27.221 17.032-27.221s46.599-43.283 33.781 9.655c-3.809 15.731-13.461 24.52-13.461 24.52l-.932 26.697-5.643-.197s-9.458-17.849-7.449-29.38c1.063-6.104 3.935-13.118 3.935-13.118l-10.664 12.883-3.327 26.831-4.775-.167s-10.23-18.259-8.497-30.503z"/>
          <path fill="url(#paint0_linear)" d="M397.558 498.132c1.758-12.416 17.032-27.221 17.032-27.221s46.599-43.283 33.781 9.655c-3.809 15.731-13.461 24.52-13.461 24.52l-.932 26.697-5.643-.197s-9.458-17.849-7.449-29.38c1.063-6.104 3.935-13.118 3.935-13.118l-10.664 12.883-3.327 26.831-4.775-.167s-10.23-18.259-8.497-30.503z"/>
        </g>
        <path fill="#5135FF" d="M414.353 471.555s5.81-23.266 6.25-35.855c0 0-5.785 9.286-7.625 12.99-3.175 6.389-6.159 14.562-6.159 14.562l-9.55-.334s3.049-11.741 4.205-14.63c3.695-9.226 6.552-19.487 14.576-25.351 2.899-2.118 6.927-5.437 11.305-6.342 7.477-1.545 7.292-2.341 14.759.516 7.466 2.857 17.232 10.598 17.232 10.598s15.401 18 13.375 33.932c-1.308 10.286-7.144 24.09-7.144 24.09l-8.247-.288s3.098-15.989 3.453-24.218c.583-13.491-11.253-26.253-10.761-21.673.492 4.581 2.872 23.57-1.394 39.937-20.721-2.265-34.275-7.934-34.275-7.934z" class="Vector_32"/>
        <g class="Vector 4">
          <path fill="#FFC7C7" d="M399.34 465.816s-.789 1.571-1.984.8c-1.59-1.027 1.58-3.556 1.58-3.556l7.448.177-.129 3.69s-.205 1.201-1.054 2.469c-1.37 2.043-4.17 1.772-5.644-.197-.927-1.239-.217-3.383-.217-3.383z"/>
          <path fill="url(#paint1_linear)" d="M399.34 465.816s-.789 1.571-1.984.8c-1.59-1.027 1.58-3.556 1.58-3.556l7.448.177-.129 3.69s-.205 1.201-1.054 2.469c-1.37 2.043-4.17 1.772-5.644-.197-.927-1.239-.217-3.383-.217-3.383z"/>
        </g>
        <g class="Vector 3">
          <path fill="#FFC7C7" d="M453.667 490.748c.015-.434 5.181-5.251 5.181-5.251l6.294.219s4.459 9.23 3.132 9.889c-1.747.868-3.223.648-4.992-.175-2.495-1.16-4.578-5.81-4.578-5.81s-5.12 3.493-5.037 1.128z"/>
          <path fill="url(#paint2_linear)" d="M453.667 490.748c.015-.434 5.181-5.251 5.181-5.251l6.294.219s4.459 9.23 3.132 9.889c-1.747.868-3.223.648-4.992-.175-2.495-1.16-4.578-5.81-4.578-5.81s-5.12 3.493-5.037 1.128z"/>
        </g>
        <path fill="#000" d="M398.125 537.92c-.022-4.347 5.453-8.864 7.93-9.284l4.775.166c-.752 9.101-12.677 14.552-12.705 9.118z" class="Vector 2_6"/>
        <path fill="#000" d="M421.506 540.476c-.022-4.347 4.352-8.468 6.829-8.889l5.644.197c.115 9.132-12.446 14.126-12.473 8.692z" class="Vector 2.1_4"/>
        <g class="Vector 5">
          <path fill="#FFC7C7" d="M431.461 417.173l.669-6.714 8.233.723-.266 7.596c-3.415.944-5.342 1.932-8.636-1.605z"/>
          <path fill="url(#paint3_linear)" d="M431.461 417.173l.669-6.714 8.233.723-.266 7.596c-3.415.944-5.342 1.932-8.636-1.605z"/>
        </g>
        <g class="Ellipse">
          <path fill="#FFC7C7" d="M444.608 407.854c-.201 5.754-7.095 10.183-11.65 10.024-4.555-.159-5.218-6.156-5.017-11.91.201-5.754 4.228-8.979 8.783-8.82 4.556.159 8.085 4.952 7.884 10.706z"/>
          <path fill="url(#paint4_linear)" d="M444.608 407.854c-.201 5.754-7.095 10.183-11.65 10.024-4.555-.159-5.218-6.156-5.017-11.91.201-5.754 4.228-8.979 8.783-8.82 4.556.159 8.085 4.952 7.884 10.706z"/>
        </g>
        <path fill="#000" d="M429.41 401.238l-1.368-4.394c16.384-2.47 15.682 4.242 16.896 7.762 1.445 4.187-2.156 7.82-3.147 9.234l-.868-.03 1.103-6.698-2.014 1.668-.618-7.193-9.984-.349z" class="Vector 6"/>
      </g>
    </g>
  </g>
  <defs>
    <linearGradient id="paint0_linear" x1="382.683" x2="512.161" y1="484.872" y2="526.574" class="paint0_linear" gradientUnits="userSpaceOnUse">
      <stop stop-color="#CADCF0"/>
      <stop offset="1" stop-color="#fff" stop-opacity="0"/>
    </linearGradient>
    <linearGradient id="paint1_linear" x1="401.654" x2="405.997" y1="461.768" y2="474.306" class="paint1_linear" gradientUnits="userSpaceOnUse">
      <stop stop-color="#FFA2A2"/>
      <stop offset="1" stop-color="#fff" stop-opacity="0"/>
    </linearGradient>
    <linearGradient id="paint2_linear" x1="461.348" x2="460.985" y1="485.584" y2="495.985" class="paint2_linear" gradientUnits="userSpaceOnUse">
      <stop stop-color="#FAA3A3"/>
      <stop offset="1" stop-color="#fff" stop-opacity="0"/>
    </linearGradient>
    <linearGradient id="paint3_linear" x1="437.556" x2="434.257" y1="410.649" y2="424.224" class="paint3_linear" gradientUnits="userSpaceOnUse">
      <stop stop-color="#FF9595"/>
      <stop offset="1" stop-color="#fff" stop-opacity="0"/>
    </linearGradient>
    <linearGradient id="paint4_linear" x1="418.416" x2="443.087" y1="417.37" y2="395.414" class="paint4_linear" gradientUnits="userSpaceOnUse">
      <stop stop-color="#FF8080"/>
      <stop offset="1" stop-color="#fff" stop-opacity="0"/>
    </linearGradient>
    <clipPath id="clip0" class="clip0">
      <path fill="#fff" d="M0 0h1155v700H0z"/>
    </clipPath>
  </defs>
</svg>
