<svg xmlns="http://www.w3.org/2000/svg" width="1152" height="700" fill="none" viewBox="0 0 1152 700">
  <g class="bug_fixing">
    <path fill="#fff" d="M0 0h1152v700H0z"/>
    <path fill="#ECE6E6" d="M775.223 416.48c-75.616 49.115-241.052 50.114-315.068 73.725-99.521 31.746 0 70.576-53.011 97.599-83.947 42.794 285.061 110.194 561.121 5.772 276.055-104.421-98.521-238.489-193.042-177.096z" class="Vector"/>
    <path fill="#B7CFFD" d="M787.081 446.363c5.041 13.226 8.775 23.162-.175 36.395-3.813-12.275-9.433-31.314-13.946-48.681-11.508-11.039-34.833-34.67-36.069-40.879 6.466 6.249 21.621 18.449 30.519 17.261-1.388-7.021-2.098-12.485-1.73-15.237 2.513 1.172 7.865 6.844 12.17 20.443 9.744 7.492 28.624 25.322 26.197 36.709l2.771 1.008c-3.065-15.304-15.675-50.336-41.594-68.029 6.892.248 23.14 4.917 33.005 21.608 9.864 16.692 13.178 32.232 13.601 37.916.299-9.073-1.298-31.334-10.074-47.798-10.97-20.58-13.826-28.192-56.926-45.125 13.184-2.819 41.981-4.632 51.687 10.668 12.133 19.125 20.788 48.565 19.014 73.898 4.657-29.187 18.209-90.027 35.155-99.887.127 3.072-.98 13.603-6.427 31.152-5.447 17.549-16.191 44.606-20.882 55.94 6.003-11.483 20.891-35.968 32.423-42.038 11.531-6.071 53.29-27.874 72.729-38.016-9.352 13.186-35.117 42.874-63.367 56.133-28.25 13.258-35.587 25.863-35.724 30.508 22.795-7.878 73.531-22.763 94.117-19.279-18.473 6.946-62.747 21.804-92.064 25.66-4.104.907-13.182 4.406-16.667 11.151 16.678-5.2 54.426-13.188 71.992-3.542-14.496 2.968-46.287 8.825-57.481 8.508-13.992-.396-26.947 8.35-24.25 8.705 2.697.355 49.168-11.533 80.739-2.55-21.3 6.386-67.161 17.94-80.209 13.072-1.46-1.157-5.208-2.584-8.525.967-3.316 3.551.211-3.992 2.389-8.207-2.691-6.088-8.938-18.298-12.398-18.434z" class="plant"/>
    <g class="screw gun">
      <path fill="#4B5361" d="M400.198 354.155c.951.823 9.949-.687 14.329-1.544a62.63 62.63 0 01-.848-2.912c-4.795 1.052-14.671 3.427-13.481 4.456z" class="Vector 4"/>
      <g class="Vector 4.2">
        <path fill="#C4C4C4" d="M456.782 384.891c-2.25-.283-3.164-3.43-3.34-4.968 2.489-.375 5.022-.899 7.159-1.606.403 3.987-1.005 6.927-3.819 6.574zM415.332 355.286c.907 3.279 5.126 1.886 7.548.888l-.805-4.413-.644-3.529-.905-4.963c-1.531.367-3.245 1.227-6.216 1.777-1.418.263-1.248 2.241-.63 4.653.238.93.542 1.925.848 2.911.285.919.57 1.831.804 2.676z"/>
      </g>
      <path fill="#FFCB56" d="M444.531 358.186l-20.655 3.45-.996-5.46-.806-4.414-.643-3.529-.906-4.963-.815-4.468 28.853-5.717 1.753 8.793c14.886 9.233 16.431 26.682 15.724 32.308-.226 1.794-2.443 3.142-5.44 4.132-2.137.707-4.67 1.232-7.159 1.607-2.778.418-5.501.65-7.558.741l4.629-5.353c-5.678-4.494-6.353-13.291-5.981-17.127z" class="color 1"/>
    </g>
    <g class="phone">
      <path fill="#F0EFEC" d="M787.11 427.711l42.255 90.033c1.656 4.956 1.657 9.086 2.485 20.65 1.989 18.502-16.294 24.78-25.684 25.606H342.198C323.64 564 319 540.321 319 528.482c6.904-30.286 22.038-93.668 27.341-104.901 5.302-11.234 26.512-13.491 36.454-13.216 123.173-.275 372.335-.661 383.602 0 11.268.661 18.504 11.839 20.713 17.346z" class="Vector 3.2"/>
      <path fill="#4B5361" d="M766.396 416.973c8.617 1.321 12.428 15.418 13.256 22.302-11.875-4.406-38.276-5.452-48.881 25.606-13.257 38.821-37.283 74.1-89.48 74.269-133.959.485-276.114.616-286.666-.756-15.245-1.982-19.056-14.592-19.056-20.65 4.695-24.229 15.079-75.33 19.056-85.903 3.977-10.573 20.436-14.317 28.169-14.868 124.277-.551 374.986-1.322 383.602 0z" class="Vector 3.3"/>
      <path fill="#EE7E79" d="M794.566 492.964c1.989 5.948 12.428 6.884 17.399 6.608 2.209 4.406 7.457 15.859 10.771 26.432 3.314 10.573-11.876 12.665-19.885 12.39-44.035.254-101.987.54-161.559.756 52.196-.169 76.223-35.448 89.479-74.269 10.605-31.058 37.007-30.012 48.882-25.606-14.913 3.304 12.428 46.255 14.913 53.689z" class="color 2"/>
    </g>
    <g class="hole">
      <g class="person">
        <path fill="#E6EDFC" fill-rule="evenodd" d="M476.696 474.5l-45.878-303.441 11.654.914 5.134 38.641 1.043 7.333.683 4.804 79.981 21.583-18.241-85.992 11.156 1.019 67.298 306.903L578 463.5l-9.138-32.723-90.655-4.994 9.018 51.693-10.529-2.976zm70.065-147.912l-14.857-70.04-81.026-22.925 10.716 75.347 85.167 17.618zm-83.765-7.757l85.933 17.977 17.977 84.746-90.21-6.39-13.7-96.333z" class="ladder" clip-rule="evenodd"/>
        <g class="hammer">
          <path fill="#4B5361" d="M485.208 285.336l7.184-1.568c-2.728-1.834-2.184-5.174-1.571-6.615l-.896-4.106-7.413 1.682 1.125 3.992c1.91 1.101 1.843 4.869 1.571 6.615z" class="Vector 11"/>
          <path fill="#DAE4FA" d="M494.071 291.75l-1.679-7.982-7.185 1.569c-.283 4.595 2.818 14.527 17.484 17.498l.917-1.592c-3.073-.846-9.284-3.931-9.537-9.493z" class="Vector 11.4"/>
          <path fill="#DAE4FA" d="M499.552 289.036c-.906-1.371-1.126-3.613-1.122-4.562-1.483.26-4.765.483-6.037-.706l1.68 7.982c.8-.68 3.016-2.176 5.479-2.714z" class="Vector 11.3"/>
          <path fill="#4B5361" d="M498.429 284.473l22.477-4.595c-.233 1.283.448 2.92 1.226 4.227l-22.58 4.931c-.907-1.371-1.127-3.613-1.123-4.563z" class="Vector 11.2"/>
          <path fill="#EE7E79" d="M561.013 277.639c1.721-3.412-.884-7.524-1.793-8.211l-37.752 9.319a2.154 2.154 0 00-.562 1.132c-.234 1.282.447 2.919 1.225 4.227.345.579.709 1.094 1.021 1.484l37.861-7.951z" class="color 2_2"/>
        </g>
        <g class="construction worker">
          <path fill="#EDC7C5" d="M623.083 287.609c-14.778-8.154-30.066 1.529-30.831 1.784-4.586 2.803-5.096 8.408-6.879 10.191-.806.806-6.37 4.332-7.389 5.096-1.02.765-.51 1.784.254 2.294.765.509.51.764-.254 2.293-.612 1.223-.255 2.888 0 3.567-2.039 0-1.529 1.784-1.529 2.548s-2.548 2.548-4.077 5.606c-1.529 3.057 9.428 7.898 12.485 11.72 2.446 3.058 22.083 1.274 31.595 0 .765-1.698 2.345-5.707 2.548-8.153.255-3.058 7.39-5.351 10.192-8.409 2.803-3.057 8.664-20.383-6.115-28.537z" class="Vector 5"/>
          <g class="Vector 6">
            <path fill="#EDC7C5" d="M588.339 338.765c-1.631.408-16.138-.849-20.129 3.567-6.625-5.606-16.817-49.176-18.091-49.941-.972-.583-2.176-3.839-2.727-5.612l-.076.007c-2.803.254-7.644-10.702-9.937-12.486-2.294-1.783-3.568-6.37-3.568-7.644s1.529-3.058 4.077 0 3.822-1.019 8.663 0c4.842 1.019 7.644 11.211 9.173 14.269s34.653 57.33 32.615 57.84zM523.11 398.388c-1.835-1.63 4.331-17.156 7.644-24.715-6.2-1.274-20.69-3.822-29.047-3.822-10.447 0-22.678-11.721-22.678-12.995 0-1.274-1.528-8.409-2.293-10.957-.764-2.548.765-10.447-3.822-9.682-4.586.764-1.529 12.74-3.058 13.759-1.528 1.019-7.389-2.038-10.956-1.019-3.567 1.019-2.293 2.803-2.803 4.332-2.548 1.783.765 4.841-1.274 6.37-1.63 1.223-1.189 3.397-.764 4.331-.425 1.019-1.019 3.618 0 5.861 1.274 2.802 5.605.509 8.408 3.057 2.803 2.548 8.154 1.274 11.976 3.822 3.567 6.625 50.96 23.697 48.667 21.658z"/>
          </g>
          <path fill="#E6EDFC" d="M609.998 329.338c11.975-.255 6.115 3.567 9.173 6.88 3.057 3.312 15.288 14.778 17.836 24.206 2.548 9.427 14.778 47.392 14.778 50.705 0 3.312 3.058 55.546 1.529 56.566-1.529 1.019-75.676 2.293-77.46 0-1.783-2.294-2.548-17.327-4.841-22.932-2.293-5.606-11.975-42.552-10.701-51.98-9.088 4.332-29.302 12.333-37.456 9.683-8.154-2.65-8.493-3.313-7.644-3.313.085-8.493 1.733-25.989 7.644-28.028 7.389-2.548 4.332 3.313 15.798 0 11.466-3.312 16.816-10.447 20.893-11.975 4.077-1.529 4.841-13.505 6.115-16.562.816-2.447 1.189-3.058 1.274-3.058l.765-.243a404.767 404.767 0 0110.205-3.069c.851-3.07-1.5-16.005 0-12.005 1.2 3.2 17.316 3.216 25.649 5.824 2.492-.409 4.693-.662 6.443-.699z" class="Vector 7"/>
          <path fill="#B0A2A2" d="M570.758 387.432c-4.892 2.447-10.192 5.606-12.231 6.88 0 3.312 6.37 43.061 10.192 49.686s4.332 18.6 4.587 19.874c.255 1.274 6.115.51 8.153.51 10.702.51 70.325 9.682 73.128 3.312 2.803-6.37-.509-56.311-1.529-60.897-1.019-4.586-11.72-42.552-14.268-48.412-2.548-5.86-8.707-22.293-19.664-27.389-10.956-5.096-21.912-2.293-17.071-1.784 4.841.51 10.49 12.866 19.918 16.943 18.091 16.052 9.173 33.633 3.312 42.806-5.86 9.173-20.384 17.072-36.182 14.524-12.638-2.039-17.496-11.551-18.345-16.053z" class="Vector 9"/>
          <path fill="#FFCB56" d="M594.454 293.173c-1.835 0-9.088-5.946-12.485-8.918 0-1.427 5.775-.255 8.663.509.595-.509 2.038-1.528 3.058-1.528 1.274 0 .764-1.529 9.172-6.625 8.409-5.096 21.658-4.332 32.87 7.644 11.211 11.975 3.312 27.263 2.038 29.047-1.274 1.783-1.274 2.293-1.019 4.077.255 1.783-2.293 1.528-1.019 3.312 1.274 1.784 1.019 2.803-1.274 2.803-1.835 0-16.902-12.91-24.206-19.365-5.861-16.052-13.505-10.956-15.798-10.956z" class="color 1_2"/>
        </g>
      </g>
    </g>
    <path fill="#EE7E79" d="M498.5 577l14.5-55.5c2 2 8.167 3.167 11 3.5l-15 55-10.5-3z" class="color 2_3"/>
    <path fill="#E6EDFC" d="M513.001 521.5c2 2 8.166 3.167 11 3.5 24-6.8 16-22.167 9-29l-4 15-7.5 3.5-4-8 3-13c-20 7.6-13.334 21.833-7.5 28z" class="Vector 6.1"/>
    <path fill="#EE7E79" d="M477.5 580.5l-18-32.5 3-1.778 1.5-.889 5.5-3.259L473 540l18 32.5-13.5 8z" class="color 2_4"/>
    <path fill="#E6EDFC" d="M467 538.5l2.5 3.574-5.5 3.259-1.5-4.064-12-19.269c-2.833.167-8.9-.1-10.5-2.5-1.6-2.4-13.333-29-19-42l12-7.5 27.5 39c-.667 2.667-2.2 8.3-3 9.5l9.5 20z" class="Vector 5.1"/>
    <path fill="#FFCB56" fill-rule="evenodd" d="M451.5 570.5v21H546v-21h-94.5zm94.5-35V529h-94.5v6.5H546z" class="color 1_3" clip-rule="evenodd"/>
  </g>
</svg>
