<svg xmlns="http://www.w3.org/2000/svg" width="1152" height="700" fill="none" viewBox="0 0 1152 700">
  <g class="calendar">
    <path fill="#fff" d="M0 0h1152v700H0z"/>
    <path fill="#ECE6E6" d="M549.223 365.48c-75.616 49.115-241.052 50.114-315.068 73.725-99.521 31.746 0 70.576-53.011 97.599-83.947 42.794 285.061 110.194 561.121 5.772 276.055-104.421-98.521-238.489-193.042-177.096z" class="Vector"/>
    <path fill="#EE7E79" d="M404 153h124v31H404z" class="Rectangle"/>
    <g class="calendar_2">
      <path fill="#EAEFFB" d="M363 603V242h408.194L811.5 543.5 771.194 603H363z" class="Vector_2"/>
      <path fill="#7D8CA6" d="M771.194 296.822V603l40.306-59.5L771.194 242v54.822z" class="Vector_3"/>
      <g class="Vector_4">
        <path fill="#7D8CA6" d="M406.524 267c0 4.418-3.699 8-8.262 8-4.563 0-8.262-3.582-8.262-8s3.699-8 8.262-8c4.563 0 8.262 3.582 8.262 8zM447.833 267c0 4.418-3.699 8-8.262 8-4.562 0-8.261-3.582-8.261-8s3.699-8 8.261-8c4.563 0 8.262 3.582 8.262 8zM489.143 267c0 4.418-3.699 8-8.262 8-4.563 0-8.262-3.582-8.262-8s3.699-8 8.262-8c4.563 0 8.262 3.582 8.262 8zM530.452 267c0 4.418-3.699 8-8.262 8-4.562 0-8.261-3.582-8.261-8s3.699-8 8.261-8c4.563 0 8.262 3.582 8.262 8zM571.762 267c0 4.418-3.699 8-8.262 8-4.563 0-8.262-3.582-8.262-8s3.699-8 8.262-8c4.563 0 8.262 3.582 8.262 8zM613.071 267c0 4.418-3.699 8-8.261 8-4.563 0-8.262-3.582-8.262-8s3.699-8 8.262-8c4.562 0 8.261 3.582 8.261 8zM654.381 267c0 4.418-3.699 8-8.262 8-4.563 0-8.262-3.582-8.262-8s3.699-8 8.262-8c4.563 0 8.262 3.582 8.262 8zM695.69 267c0 4.418-3.699 8-8.261 8-4.563 0-8.262-3.582-8.262-8s3.699-8 8.262-8c4.562 0 8.261 3.582 8.261 8zM737 267c0 4.418-3.699 8-8.262 8-4.563 0-8.262-3.582-8.262-8s3.699-8 8.262-8c4.563 0 8.262 3.582 8.262 8z"/>
      </g>
      <g class="Vector_5">
        <path fill="#7D8CA6" d="M396 232h6.202v25H396v-25zM435.282 232h6.203v25h-6.203v-25zM476.632 232h6.202v25h-6.202v-25zM517.982 232h6.202v25h-6.202v-25zM559.331 232h6.203v25h-6.203v-25zM600.681 232h6.202v25h-6.202v-25zM642.031 232h6.202v25h-6.202v-25zM685.448 232h6.202v25h-6.202v-25zM726.798 232H733v25h-6.202v-25z"/>
      </g>
      <path stroke="#8DB5FA" d="M382 335.465h366m-366 57.737h366m-366 58.767h366m-366 60.829h366m-366 50.52h366M416.119 320v266m58.932 0V320m62.034 0v266m61 0V320m62.034 0v266m56.864-266v266" class="Vector 2"/>
      <path fill="#C4C4C4" d="M526 521h215v31H526z" class="Rectangle_2"/>
      <path fill="#fff" d="M547 379h87v87h-87z" class="Rectangle 2"/>
      <path fill="#EE7E79" d="M547 348h87v20h-87z" class="Rectangle 2.1"/>
      <path fill="#FFCB56" d="M448.74 556L429 536.415l7.273-7.215 12.467 12.369L501.727 489l7.273 7.215L448.74 556z" class="Vector 3"/>
    </g>
    <g class="girl">
      <path fill="#4B5361" d="M326 203.298c5.556-.538 19.035-3.872 28.499-12.905 20.81-12.282 31.046-43.411 35.106-66.139.693-33.338-29.191-21.509-35.106-13.443-5.915 8.066-3.764 18.282-5.915 29.037-1.721 8.603-15.773 18.64-22.584 22.583 12.905 19.358 5.377 35.31 0 40.867z" class="Vector 8"/>
      <g class="Vector 3_2">
        <path fill="#EDC7C5" d="M378.695 125.865c.861-8.173-2.15-10.929-4.301-13.976-12.475-5.162-13.443 3.225-13.443 10.75-1.613-2.151-5.055-5.485-5.915-1.613-.86 3.871 1.434 6.631 2.689 7.528v15.593c3.871 6.883 9.499 5.736 11.829 4.302v-10.754c5.915.537 8.066-1.613 9.141-11.83zM435.155 167.81c-1.72 3.012-10.037 6.274-13.98 7.528-.861 1.291 1.792 4.84 3.226 6.453 3.047-2.151 9.894-6.13 12.905-4.84 3.764 1.613 6.453-.537 5.377-1.613-1.075-1.075-5.915 0-3.226-1.613s8.604-6.683 5.377-8.066c-3.764-1.613-7.528-1.613-9.679 2.151z"/>
      </g>
      <g class="Vector 7">
        <path fill="#C4B7B6" d="M539.472 210.287c-1.29 10.755-11.292 14.16-16.131 14.519l-2.151 12.367c8.603 3.226 25.81 5.27 25.81-12.367 0-22.047-5.915-27.962-7.528-14.519zM426.552 326.433h14.518v14.518c0 3.227 18.283 22.584 0 20.971-14.625-1.29-15.772-24.197-14.518-35.489z"/>
      </g>
      <path fill="#9F9F9F" d="M528.18 216.742l-136.042-2.689 3.764 18.282 132.278 16.67v-32.263z" class="Vector 6"/>
      <path fill="#737373" d="M348.584 223.193c1.721 0 27.602-7.528 40.328-11.292 19.358 2.151 81.195 32.8 73.667 52.158-6.022 15.486-6.453 51.979-5.915 68.29l-37.64-3.227c-2.581-7.743 6.811-51.979 11.83-73.129-88.723 15.594-84.421-32.8-82.27-32.8z" class="Vector 5"/>
      <path fill="#E2E1E1" d="M357.725 144.15c1.291 1.721 9.858.717 13.981 0 11.184 6.453 13.622 28.499 13.443 38.716 4.301-3.872 27.244-9.141 38.177-11.292 4.302 2.151 5.019 8.424 4.84 11.292l-40.329 15.056 3.764 16.131c-3.871 7.313-30.649 9.5-43.555 9.679 2.51-9.32 6.668-29.897 3.227-37.64-4.302-9.679 4.839-44.093 6.452-41.942z" class="Vector 4"/>
    </g>
    <g class="plant">
      <path fill="#FFEEC7" d="M313.359 324.739c-7.752 2.434-13.654 16.145-15.636 22.696-1.327 2.176-4.292 5.128-5.536-.466-1.554-6.993-8.183-14.842-12.831-15.663-.998 5.062-1.747 15.634 3.248 17.428 6.244 2.241 12.621 13.071 5.597 9.906-7.023-3.165-9.675-12.395-25.681-10.742 1.334 4.972 7.215 16.218 20.064 21.418 16.062 6.5 13.185 16.55 4.602 11.538-8.583-5.013-16.417-13.821-31.535-12.523 1.306 6.543 6.36 20.177 16.124 22.373 12.205 2.744 31.751 9.967 28.339 14.825-3.411 4.859-24.332-11.486-34.162-11.886-7.863-.32-13.307.165-15.046.447 1.448 6.555 8.248 20.165 23.86 22.167 19.516 2.503 37.538 7.454 31.89 13.41-5.648 5.956-18.869-10.168-35.157-10.255-13.031-.069-15.581 1.688-15.227 2.576 1.687 5.431 9.665 16.596 28.088 17.806 23.03 1.513 31.649 6.099 28.201 11.384-3.447 5.284-19.043-13.185-45.489-4.694 2.68 5.515 11.112 16.718 23.404 17.412 15.365.866 37.717 5.324 34.09 12.737-3.627 7.413-20.716-8.608-36.332-6.494-12.493 1.691-12.493 2.377-10.932 2.509.728 4.921 5.329 15.115 17.904 16.519 15.719 1.754 44.992 5.509 42.889 15.195-2.103 9.685-13.872-3.314-24.266-7.192-8.315-3.103-20.852-1.902-26.082-.913 2.668 5.657 10.566 17.101 20.814 17.622 12.81.651 42.575 8.736 42.073 14.697-.503 5.961-13.698-.298-21.183-3.073-7.485-2.775-18.659-7.577-29.237-4.18.539 5.477 5.363 16.748 20.352 18.011 18.735 1.58 34.988 2.093 34.342 9.757-.647 7.665-6.916-4.442-21.609-3.108-11.754 1.067-17.415 3.106-18.776 3.991 1.924 4.308 8.362 12.713 18.725 11.871 12.954-1.052 32.294-1.565 30.868 5.176-1.426 6.741-13.056-2.816-20.013-1.687-5.565.903-12.209 2.401-14.836 3.037 1.061 4.378 8.484 12.294 29.694 8.936 3.88-.244 11.313.096 10.004 3.417-1.637 4.15-16.571-1.826-21.542 1.185.636 2.627 3.648 7.598 10.604 6.469 6.957-1.129 16.545 3.825 20.47 6.443.186-1.985 1.137-6.765 3.445-10.001 1.063-3.425 3.371-7.546 7.292-10.535 9.624-7.336 10.701-20.111 7.72-20.362-2.98-.251-10.732 15.391-14.102 14.678-3.371-.713 2.103-9.686 8.249-16.458 4.916-5.417 5.116-18.294 4.601-24.055-2.96 2.895-9.272 10.282-10.84 16.668l-.114.465c-1.899 7.745-3.28 13.375-7.35 11.77-4.15-1.636 2.996-15.185 9.891-25.753 5.516-8.455 3.878-22.258 2.37-28.103-2.191 2.245-7.354 7.87-10.481 12.41-3.909 5.674-5.381 23.132-9.388 19.792s6.443-20.469 14.087-34.834c6.115-11.492 1.857-23.715-1.037-28.39-2.746 2.055-8.219 7.969-8.141 15.18.097 9.014-6.597 32.464-12.235 28.129-5.638-4.335 9.115-31.823 12.604-42.678 2.79-8.685-1.543-18.999-4.059-23.071-3.693 3.12-6.751 8.865-9.136 16.812-2.386 7.947-6.453 30.761-13.189 24.189-6.736-6.572 9.362-29.658 16.256-40.226 5.516-8.455 2.743-22.354.667-28.247-3.16 1.878-12.682 13.083-14.605 20.639-1.924 7.557-8.331 27.601-12.866 20.357-4.536-7.244 12.696-28.519 18.739-39.159 4.835-8.512 2.767-22.638 1.128-28.637-12.04 10.564-15.99 21.809-16.528 28.196-.539 6.387-7.834 26.785-11.769 22.594-3.935-4.192 5.848-28.668 14.692-36.928 7.076-6.607 7.627-20.941 7.018-27.282-1.775.708-17.473 13.965-17.904 19.074-.431 5.11-3.242 13.021-8.146 20.326-4.905 7.306-7.475-13.066 8.577-25.435 12.842-9.896 13.89-27.418 12.809-34.942-25.43 21.87-11.983 25.148-25.301 35.604-13.318 10.455-5.561-10.332 6.797-19.582 9.887-7.4 12.256-24.983 12.204-32.849-10.717-.046-18.796 24.574-26.681 31.628-7.885 7.054-8.475-6.289 4.452-17.207 10.343-8.734 11.71-23.599 11.102-29.94-7.88 1.909-12.785 9.214-18.192 22.481-5.407 13.267-10.224 4.284-3.863-5.043 5.089-7.461 6.18-17.347 6.089-21.357z" class="Vector 3_3"/>
      <path fill="#FFCB56" d="M328.234 463.649c36.38 66.963 45.532 105.901 50.263 131.172.186-1.985 1.137-6.765 3.445-10.001 1.063-3.425 3.371-7.546 7.292-10.535 9.624-7.336 10.701-20.111 7.72-20.362-2.98-.251-10.732 15.391-14.102 14.678-3.371-.713 2.103-9.686 8.249-16.458 4.916-5.417 5.116-18.294 4.601-24.055-2.96 2.895-9.272 10.282-10.84 16.668l-.114.465c-1.899 7.745-3.28 13.375-7.35 11.77-4.15-1.636 2.996-15.185 9.891-25.753 5.516-8.455 3.878-22.258 2.37-28.103-2.191 2.245-7.354 7.87-10.481 12.41-3.909 5.674-5.381 23.132-9.388 19.792s6.443-20.469 14.087-34.834c6.115-11.492 1.857-23.715-1.037-28.39-2.746 2.055-8.219 7.969-8.141 15.18.097 9.014-6.597 32.464-12.235 28.129-5.638-4.335 9.115-31.823 12.604-42.678 2.79-8.685-1.543-18.999-4.059-23.071-3.693 3.12-6.751 8.865-9.136 16.812-2.386 7.947-6.453 30.761-13.189 24.189-6.736-6.572 9.362-29.658 16.256-40.226 5.516-8.455 2.743-22.354.667-28.247-3.16 1.878-12.682 13.083-14.605 20.639-1.924 7.557-8.331 27.601-12.866 20.357-4.536-7.244 12.696-28.519 18.739-39.159 4.835-8.512 2.767-22.638 1.128-28.637-12.04 10.564-15.99 21.809-16.528 28.196-.539 6.387-7.834 26.785-11.769 22.594-3.935-4.192 5.848-28.668 14.692-36.928 7.076-6.607 7.627-20.941 7.018-27.282-1.775.708-17.473 13.965-17.904 19.074-.431 5.11-3.242 13.021-8.146 20.326-4.905 7.306-7.475-13.066 8.577-25.435 12.842-9.896 13.89-27.418 12.809-34.942-25.43 21.87-11.983 25.148-25.301 35.604-13.318 10.455-5.561-10.332 6.797-19.582 9.887-7.4 12.256-24.983 12.204-32.849-10.717-.046-18.796 24.574-26.681 31.628-7.885 7.054-8.475-6.289 4.452-17.207 10.343-8.734 11.71-23.599 11.102-29.94-7.88 1.909-12.785 9.214-18.192 22.481-5.407 13.267-10.224 4.284-3.863-5.043 5.089-7.461 6.18-17.347 6.089-21.357-7.752 2.434-13.654 16.145-15.636 22.696-1.956 16.417 1.408 62.643 30.511 116.214z" class="Vector 3.1"/>
    </g>
  </g>
</svg>
