<svg xmlns="http://www.w3.org/2000/svg" width="1155" height="700" fill="none" viewBox="0 0 1155 700">
  <g clip-path="url(#clip0)">
    <path fill="#fff" d="M0 0h1155v700H0z"/>
    <g class="Group 18.1">
      <g class="Group 14.1">
        <path fill="#B5E5FF" d="M593.5 177L327 502.5h524.5L593.5 177z" class="Vector 2"/>
        <path fill="#000" fill-opacity=".04" d="M722 500L591 177l263 323H722z" class="Vector 3"/>
      </g>
      <g class="Group 14">
        <path fill="#ACE2FF" d="M370.5 219L104 544.5h524.5L370.5 219z" class="Vector 2_2"/>
        <path fill="#000" fill-opacity=".04" d="M499 542L368 219l263 323H499z" class="Vector 3_2"/>
      </g>
      <g class="Group 15.2">
        <g class="Group 12.1">
          <g class="Group 11.3">
            <g class="Group 10">
              <path fill="#2A7E98" d="M345.843 541.666l-30.747-136.165L289 541.666h56.843z" class="Vector 2_3"/>
              <path fill="#fff" fill-opacity=".04" d="M294.167 541.665L315.096 405.5 289 541.665h5.167z" class="Vector 2.1"/>
              <path fill="#000" fill-opacity=".04" d="M338.091 541.665L315.096 405.5l30.618 136.165h-7.623z" class="Vector 2.2"/>
            </g>
            <path stroke="#000" stroke-linecap="round" stroke-width=".775" d="M315.484 545.321v-14.249m0-96.891v15.89m0 41.728l-7.623-11.627m7.623 11.627v-20.412m0 20.412v22.22m0-42.632l6.976-8.914m-6.976 8.914v-21.316m0 0l-4.91-6.46m4.91 70.408l11.239-10.335m-11.239 10.335v17.053m0 0l-7.623-13.436" class="Vector 3_3"/>
          </g>
          <g class="Group 11.4">
            <g class="Group 10_2">
              <path fill="#1A6076" d="M378.185 541.371l-34.811-154.164-29.546 154.164h64.357z" class="Vector 2_4"/>
              <path fill="#fff" fill-opacity=".04" d="M319.679 541.37l23.695-154.163-29.546 154.163h5.851z" class="Vector 2.1_2"/>
              <path fill="#000" fill-opacity=".04" d="M369.409 541.37l-26.035-154.163 34.664 154.163h-8.629z" class="Vector 2.2_2"/>
            </g>
            <path stroke="#000" stroke-linecap="round" stroke-width=".878" d="M343.812 545.322v-15.945m0-109.699v17.991m0 47.244l-8.629-13.164m8.629 13.164v-23.11m0 23.11v25.157m0-48.267l7.899-10.093m-7.899 10.093v-24.134m0 0l-5.558-7.313m5.558 79.714l12.725-11.701m-12.725 11.701v19.307m0 0l-8.629-15.211" class="Vector 3_4"/>
          </g>
          <g class="Group 11.5">
            <g class="Group 10_3">
              <path fill="#0F4E5B" d="M417.713 541.074l-38.875-172.162-32.995 172.162h71.87z" class="Vector 2_5"/>
              <path fill="#fff" fill-opacity=".04" d="M352.377 541.074l26.461-172.162-32.995 172.162h6.534z" class="Vector 2.1_3"/>
              <path fill="#000" fill-opacity=".04" d="M407.913 541.074l-29.075-172.162 38.712 172.162h-9.637z" class="Vector 2.2_3"/>
            </g>
            <path stroke="#000" stroke-linecap="round" stroke-width=".98" d="M379.328 545.811V527.68m0-122.506v20.091m0 52.759l-9.637-14.701m9.637 14.701v-25.808m0 25.808v28.095m0-53.903l8.82-11.27m-8.82 11.27v-26.951m0 0l-6.207-8.167m6.207 89.021l14.211-13.067m-14.211 13.067v21.561m0 0l-9.637-16.987" class="Vector 3_5"/>
          </g>
          <g class="Group 11.2">
            <g class="Group 10_4">
              <path fill="#2A7E98" d="M398.439 542.318l30.747-136.165 26.096 136.165h-56.843z" class="Vector 2_6"/>
              <path fill="#fff" fill-opacity=".04" d="M450.114 542.318l-20.928-136.164 26.096 136.164h-5.168z" class="Vector 2.1_4"/>
              <path fill="#000" fill-opacity=".04" d="M406.19 542.318l22.996-136.164-30.618 136.164h7.622z" class="Vector 2.2_4"/>
            </g>
            <path stroke="#000" stroke-linecap="round" stroke-width=".775" d="M428.798 545.974v-14.249m0-96.891v15.89m0 41.728l7.622-11.627m-7.622 11.627V472.04m0 20.412v22.22m0-42.632l-6.976-8.914m6.976 8.914v-21.316m0 0l4.909-6.459m-4.909 70.407l-11.239-10.335m11.239 10.335v17.053m0 0l7.622-13.435" class="Vector 3_6"/>
          </g>
          <g class="Group 11.1">
            <g class="Group 10_5">
              <path fill="#1A6076" d="M366.097 542.024l34.811-154.163 29.546 154.163h-64.357z" class="Vector 2_7"/>
              <path fill="#fff" fill-opacity=".04" d="M424.603 542.024l-23.695-154.163 29.546 154.163h-5.851z" class="Vector 2.1_5"/>
              <path fill="#000" fill-opacity=".04" d="M374.873 542.024l26.035-154.163-34.665 154.163h8.63z" class="Vector 2.2_5"/>
            </g>
            <path stroke="#000" stroke-linecap="round" stroke-width=".878" d="M400.469 545.976v-15.945m0-109.698v17.99m0 47.244l8.63-13.164m-8.63 13.164v-23.11m0 23.11v25.157m0-48.267l-7.898-10.092m7.898 10.092v-24.134m0 0l5.559-7.313m-5.559 79.714l-12.725-11.701m12.725 11.701v19.307m0 0l8.63-15.211" class="Vector 3_7"/>
          </g>
          <g class="Group 11">
            <g class="Group 10_6">
              <path fill="#0F4E5B" d="M326.569 541.727l38.875-172.162 32.995 172.162h-71.87z" class="Vector 2_8"/>
              <path fill="#fff" fill-opacity=".04" d="M391.905 541.728l-26.461-172.162 32.995 172.162h-6.534z" class="Vector 2.1_6"/>
              <path fill="#000" fill-opacity=".04" d="M336.369 541.728l29.075-172.162-38.712 172.162h9.637z" class="Vector 2.2_6"/>
            </g>
            <path stroke="#000" stroke-linecap="round" stroke-width=".98" d="M364.954 546.464v-18.131m0-122.506v20.091m0 52.76l9.637-14.701m-9.637 14.701V452.87m0 25.808v28.094m0-53.902l-8.821-11.271m8.821 11.271v-26.952m0 0l6.207-8.167m-6.207 89.021l-14.211-13.067m14.211 13.067v21.561m0 0l9.637-16.987" class="Vector 3_8"/>
          </g>
        </g>
        <g class="Group 12">
          <g class="Group 11.3_2">
            <g class="Group 10_7">
              <path fill="#2A7E98" d="M435.945 540.818l-40.191-177.99-34.112 177.99h74.303z" class="Vector 2_9"/>
              <path fill="#fff" fill-opacity=".04" d="M368.397 540.817l27.357-177.99-34.112 177.99h6.755z" class="Vector 2.1_7"/>
              <path fill="#000" fill-opacity=".04" d="M425.813 540.817l-30.059-177.99 40.022 177.99h-9.963z" class="Vector 2.2_7"/>
            </g>
            <path stroke="#000" stroke-linecap="round" stroke-width="1.013" d="M396.26 545.596V526.97m0-126.653v20.771m0 54.545l-9.963-15.198m9.963 15.198v-26.682m0 26.682v29.046m0-55.728l9.119-11.652m-9.119 11.652v-27.863m0 0l-6.417-8.444m6.417 92.035l14.692-13.51m-14.692 13.51v22.291m0 0l-9.963-17.563" class="Vector 3_9"/>
          </g>
          <g class="Group 11.4_2">
            <g class="Group 10_8">
              <path fill="#1A6076" d="M478.221 540.431l-45.504-201.517-38.621 201.517h84.125z" class="Vector 2_10"/>
              <path fill="#fff" fill-opacity=".04" d="M401.744 540.43l30.973-201.517-38.621 201.517h7.648z" class="Vector 2.1_8"/>
              <path fill="#000" fill-opacity=".04" d="M466.749 540.43l-34.032-201.517L478.03 540.43h-11.281z" class="Vector 2.2_8"/>
            </g>
            <path stroke="#000" stroke-linecap="round" stroke-width="1.147" d="M433.291 545.596v-20.842m0-143.395v23.517m0 61.755l-11.281-17.207m11.281 17.207v-30.208m0 30.208v32.886m0-63.094l10.324-13.192m-10.324 13.192v-31.547m0 0l-7.266-9.56m7.266 104.201l16.633-15.296m-16.633 15.296v25.237m0 0L422.01 504.87" class="Vector 3_10"/>
          </g>
          <g class="Group 11.5_2">
            <g class="Group 10_9">
              <path fill="#0F4E5B" d="M529.892 540.045L479.075 315l-43.13 225.045h93.947z" class="Vector 2_11"/>
              <path fill="#fff" fill-opacity=".04" d="M444.486 540.045L479.075 315l-43.13 225.045h8.541z" class="Vector 2.1_9"/>
              <path fill="#000" fill-opacity=".04" d="M517.081 540.045L479.075 315l50.603 225.045h-12.597z" class="Vector 2.2_9"/>
            </g>
            <path stroke="#000" stroke-linecap="round" stroke-width="1.281" d="M479.716 546.237v-23.7m0-160.136v26.262m0 68.966l-12.598-19.217m12.598 19.217v-33.736m0 33.736v36.724m0-70.46l11.53-14.732m-11.53 14.732v-35.23m0 0l-8.114-10.675m8.114 116.365l18.576-17.081m-18.576 17.081v28.184m0 0l-12.598-22.205" class="Vector 3_11"/>
          </g>
          <g class="Group 11.2_2">
            <g class="Group 10_10">
              <path fill="#2A7E98" d="M504.697 541.671l40.191-177.99L579 541.671h-74.303z" class="Vector 2_12"/>
              <path fill="#fff" fill-opacity=".04" d="M572.245 541.671l-27.357-177.99L579 541.671h-6.755z" class="Vector 2.1_10"/>
              <path fill="#000" fill-opacity=".04" d="M514.829 541.671l30.059-177.99-40.022 177.99h9.963z" class="Vector 2.2_10"/>
            </g>
            <path stroke="#000" stroke-linecap="round" stroke-width="1.013" d="M544.381 546.449v-18.626m0-126.653v20.771m0 54.545l9.964-15.198m-9.964 15.198v-26.681m0 26.681v29.046m0-55.727l-9.119-11.652m9.119 11.652v-27.864m0 0l6.418-8.444m-6.418 92.035l-14.691-13.51m14.691 13.51v22.291m0 0l9.964-17.563" class="Vector 3_12"/>
          </g>
          <g class="Group 11.1_2">
            <g class="Group 10_11">
              <path fill="#1A6076" d="M462.421 541.285l45.504-201.517 38.621 201.517h-84.125z" class="Vector 2_13"/>
              <path fill="#fff" fill-opacity=".04" d="M538.898 541.285l-30.973-201.518 38.621 201.518h-7.648z" class="Vector 2.1_11"/>
              <path fill="#000" fill-opacity=".04" d="M473.892 541.285l34.033-201.518-45.313 201.518h11.28z" class="Vector 2.2_11"/>
            </g>
            <path stroke="#000" stroke-linecap="round" stroke-width="1.147" d="M507.351 546.451v-20.843m0-143.394v23.517m0 61.755l11.281-17.207m-11.281 17.207v-30.209m0 30.209v32.885m0-63.094l-10.324-13.192m10.324 13.192v-31.546m0 0l7.266-9.56m-7.266 104.2l-16.633-15.295m16.633 15.295v25.237m0 0l11.281-19.884" class="Vector 3_13"/>
          </g>
          <g class="Group 11_2">
            <g class="Group 10_12">
              <path fill="#0F4E5B" d="M410.75 540.897l50.817-225.044 43.13 225.044H410.75z" class="Vector 2_14"/>
              <path fill="#fff" fill-opacity=".04" d="M496.156 540.898l-34.589-225.044 43.13 225.044h-8.541z" class="Vector 2.1_12"/>
              <path fill="#000" fill-opacity=".04" d="M423.561 540.898l38.006-225.044-50.603 225.044h12.597z" class="Vector 2.2_12"/>
            </g>
            <path stroke="#000" stroke-linecap="round" stroke-width="1.281" d="M460.926 547.09v-23.7m0-160.136v26.262m0 68.965l12.598-19.216m-12.598 19.216v-33.735m0 33.735v36.725m0-70.46l-11.53-14.733m11.53 14.733v-35.23m0 0l8.114-10.676m-8.114 116.366l-18.576-17.081m18.576 17.081v28.184m0 0l12.598-22.206" class="Vector 3_14"/>
          </g>
        </g>
      </g>
      <g class="Group 13">
        <path fill="#419ACB" d="M591.662 543.35c0-4.511-.732-8.978-2.156-13.145-1.423-4.168-3.509-7.955-6.139-11.144-2.63-3.19-5.752-5.72-9.188-7.446-3.436-1.727-7.119-2.615-10.838-2.615-3.719 0-7.402.888-10.838 2.615-3.436 1.726-6.558 4.256-9.188 7.446-2.63 3.189-4.716 6.976-6.139 11.144-1.423 4.167-2.156 8.634-2.156 13.145h56.642z" class="Ellipse"/>
        <path fill="#368FC0" d="M604 543.429c0-2.79-.548-5.554-1.612-8.132a21.253 21.253 0 00-4.589-6.894 21.16 21.16 0 00-6.868-4.606 21.105 21.105 0 00-23.072 4.606 21.27 21.27 0 00-4.589 6.894 21.319 21.319 0 00-1.611 8.132H604z" class="Ellipse_2"/>
        <path fill="#3682AD" d="M563.341 543.591c0-2.79-.547-5.554-1.611-8.132a21.256 21.256 0 00-4.59-6.894 21.157 21.157 0 00-6.868-4.607 21.095 21.095 0 00-16.203 0 21.168 21.168 0 00-6.868 4.607 21.237 21.237 0 00-4.589 6.894 21.32 21.32 0 00-1.612 8.132h42.341z" class="Ellipse_3"/>
      </g>
      <g class="Group 15">
        <g class="Group 12.1_2">
          <g class="Group 11.3_3">
            <g class="Group 10_13">
              <path fill="#2A7E98" d="M659.161 532.404l-54.178-239.931L559 532.404h100.161z" class="Vector 2_15"/>
              <path fill="#fff" fill-opacity=".04" d="M568.106 532.402l36.877-239.931L559 532.402h9.106z" class="Vector 2.1_13"/>
              <path fill="#000" fill-opacity=".04" d="M645.503 532.402l-40.52-239.931 53.951 239.931h-13.431z" class="Vector 2.2_13"/>
            </g>
            <path stroke="#000" stroke-linecap="round" stroke-width="1.366" d="M605.666 538.845v-25.108m0-170.729v27.999m0 73.528l-13.431-20.488m13.431 20.488v-35.967m0 35.967v39.154m0-75.121l12.293-15.707m-12.293 15.707v-37.561m0 0l-8.65-11.382m8.65 124.064l19.805-18.212m-19.805 18.212v30.048m0 0l-13.431-23.675" class="Vector 3_15"/>
          </g>
          <g class="Group 11.4_3">
            <g class="Group 10_14">
              <path fill="#1A6076" d="M716.149 531.882L654.81 260.236l-52.062 271.646h113.401z" class="Vector 2_16"/>
              <path fill="#fff" fill-opacity=".04" d="M613.057 531.882l41.753-271.646-52.062 271.646h10.309z" class="Vector 2.1_14"/>
              <path fill="#000" fill-opacity=".04" d="M700.685 531.882L654.81 260.236l61.081 271.646h-15.206z" class="Vector 2.2_14"/>
            </g>
            <path stroke="#000" stroke-linecap="round" stroke-width="1.546" d="M655.583 538.844v-28.095m0-193.297v31.701m0 83.246l-15.206-23.196m15.206 23.196v-40.721m0 40.721v44.329m0-85.05l13.917-17.783m-13.917 17.783v-42.525m0 0l-9.794-12.887m9.794 140.462l22.422-20.618m-22.422 20.618v34.021m0 0l-15.206-26.804" class="Vector 3_16"/>
          </g>
          <g class="Group 11.5_3">
            <g class="Group 10_15">
              <path fill="#0F4E5B" d="M785.802 531.362L717.301 228l-58.14 303.362h126.641z" class="Vector 2_17"/>
              <path fill="#fff" fill-opacity=".04" d="M670.674 531.361L717.301 228l-58.14 303.361h11.513z" class="Vector 2.1_15"/>
              <path fill="#000" fill-opacity=".04" d="M768.532 531.361L717.301 228l68.213 303.361h-16.982z" class="Vector 2.2_15"/>
            </g>
            <path stroke="#000" stroke-linecap="round" stroke-width="1.727" d="M718.164 539.708V507.76m0-215.864v35.402m0 92.965l-16.981-25.904m16.981 25.904v-45.475m0 45.475v49.505m0-94.98l15.542-19.86m-15.542 19.86v-47.49m0 0l-10.937-14.391m10.937 156.861l25.04-23.026m-25.04 23.026v37.992m0 0l-16.981-29.933" class="Vector 3_17"/>
          </g>
          <g class="Group 11.2_3">
            <g class="Group 10_16">
              <path fill="#2A7E98" d="M751.839 533.554l54.178-239.932L852 533.554H751.839z" class="Vector 2_18"/>
              <path fill="#fff" fill-opacity=".04" d="M842.894 533.554l-36.877-239.931L852 533.554h-9.106z" class="Vector 2.1_16"/>
              <path fill="#000" fill-opacity=".04" d="M765.497 533.554l40.52-239.931-53.951 239.931h13.431z" class="Vector 2.2_16"/>
            </g>
            <path stroke="#000" stroke-linecap="round" stroke-width="1.366" d="M805.334 539.996v-25.107m0-170.73v28m0 73.527l13.431-20.487m-13.431 20.487v-35.967m0 35.967v39.154m0-75.121l-12.293-15.707m12.293 15.707v-37.56m0 0l8.65-11.382m-8.65 124.063l-19.805-18.211m19.805 18.211v30.049m0 0l13.431-23.675" class="Vector 3_18"/>
          </g>
          <g class="Group 11.1_3">
            <g class="Group 10_17">
              <path fill="#1A6076" d="M694.851 533.034l61.339-271.646 52.061 271.646h-113.4z" class="Vector 2_19"/>
              <path fill="#fff" fill-opacity=".04" d="M797.942 533.034L756.19 261.388l52.061 271.646h-10.309z" class="Vector 2.1_17"/>
              <path fill="#000" fill-opacity=".04" d="M710.314 533.034l45.876-271.646-61.082 271.646h15.206z" class="Vector 2.2_17"/>
            </g>
            <path stroke="#000" stroke-linecap="round" stroke-width="1.546" d="M755.417 539.997v-28.096m0-193.297v31.701m0 83.246l15.206-23.195m-15.206 23.195V392.83m0 40.721v44.33m0-85.051l-13.918-17.783m13.918 17.783v-42.525m0 0l9.794-12.887m-9.794 140.463l-22.423-20.619m22.423 20.619v34.02m0 0l15.206-26.804" class="Vector 3_19"/>
          </g>
          <g class="Group 11_3">
            <g class="Group 10_18">
              <path fill="#0F4E5B" d="M625.198 532.513l68.501-303.361 58.14 303.361H625.198z" class="Vector 2_20"/>
              <path fill="#fff" fill-opacity=".04" d="M740.326 532.515l-46.627-303.362 58.14 303.362h-11.513z" class="Vector 2.1_18"/>
              <path fill="#000" fill-opacity=".04" d="M642.468 532.515l51.231-303.362-68.213 303.362h16.982z" class="Vector 2.2_18"/>
            </g>
            <path stroke="#000" stroke-linecap="round" stroke-width="1.727" d="M692.836 540.86v-31.948m0-215.864v35.402m0 92.965l16.981-25.904m-16.981 25.904V375.94m0 45.475v49.505m0-94.98l-15.542-19.86m15.542 19.86v-47.49m0 0l10.937-14.391M692.836 470.92l-25.04-23.025m25.04 23.025v37.992m0 0l16.981-29.933" class="Vector 3_20"/>
          </g>
        </g>
        <g class="Group 12_2">
          <g class="Group 11.3_4">
            <g class="Group 10_19">
              <path fill="#2A7E98" d="M817.927 530.906l-70.82-313.63L687 530.906h130.927z" class="Vector 2_21"/>
              <path fill="#fff" fill-opacity=".04" d="M698.902 530.906l48.205-313.63L687 530.906h11.902z" class="Vector 2.1_19"/>
              <path fill="#000" fill-opacity=".04" d="M800.073 530.906l-52.966-313.63 70.523 313.63h-17.557z" class="Vector 2.2_19"/>
            </g>
            <path stroke="#000" stroke-linecap="round" stroke-width="1.785" d="M748 539.327v-32.82m0-223.172v36.6m0 96.113l-17.556-26.781M748 416.048v-47.015m0 47.015v51.181m0-98.196l16.068-20.532M748 369.033v-49.098m0 0l-11.307-14.878M748 467.229l25.888-23.805M748 467.229v39.278m0 0l-17.556-30.947" class="Vector 3_21"/>
          </g>
          <g class="Group 11.4_4">
            <g class="Group 10_20">
              <path fill="#1A6076" d="M892.42 530.225l-80.181-355.087-68.052 355.087H892.42z" class="Vector 2_22"/>
              <path fill="#fff" fill-opacity=".04" d="M757.663 530.226l54.577-355.088-68.053 355.088h13.476z" class="Vector 2.1_20"/>
              <path fill="#000" fill-opacity=".04" d="M872.207 530.226L812.24 175.138l79.844 355.088h-19.877z" class="Vector 2.2_20"/>
            </g>
            <path stroke="#000" stroke-linecap="round" stroke-width="2.021" d="M813.25 539.327v-36.726m0-252.671v41.438m0 108.817l-19.877-30.32m19.877 30.32v-53.229m0 53.229v57.946m0-111.175l18.193-23.246m-18.193 23.246v-55.588m0 0l-12.802-16.845m12.802 183.608l29.31-26.952m-29.31 26.952v44.47m0 0l-19.877-35.037" class="Vector 3_22"/>
          </g>
          <g class="Group 11.5_4">
            <g class="Group 10_21">
              <path fill="#0F4E5B" d="M983.468 529.544L893.925 133l-75.998 396.544h165.541z" class="Vector 2_23"/>
              <path fill="#fff" fill-opacity=".04" d="M832.976 529.544L893.925 133l-75.998 396.544h15.049z" class="Vector 2.1_21"/>
              <path fill="#000" fill-opacity=".04" d="M960.894 529.544L893.925 133l89.166 396.544h-22.197z" class="Vector 2.2_21"/>
            </g>
            <path stroke="#000" stroke-linecap="round" stroke-width="2.257" d="M895.054 540.455v-41.762m0-282.171v46.276m0 121.522l-22.197-33.86m22.197 33.86v-59.444m0 59.444v64.711m0-124.155l20.316-25.96m-20.316 25.96v-62.078m0 0l-14.297-18.811m14.297 205.044l32.732-30.098m-32.732 30.098v49.662m0 0l-22.197-39.127" class="Vector 3_23"/>
          </g>
          <g class="Group 11.2_4">
            <g class="Group 10_22">
              <path fill="#2A7E98" d="M939.073 532.411l70.817-313.63 60.11 313.63H939.073z" class="Vector 2_24"/>
              <path fill="#fff" fill-opacity=".04" d="M1058.1 532.411l-48.21-313.63 60.11 313.63h-11.9z" class="Vector 2.1_22"/>
              <path fill="#000" fill-opacity=".04" d="M956.927 532.411l52.963-313.63-70.52 313.63h17.557z" class="Vector 2.2_22"/>
            </g>
            <path stroke="#000" stroke-linecap="round" stroke-width="1.785" d="M1009 540.832v-32.82m0-223.172v36.6m0 96.113l17.56-26.781M1009 417.553v-47.015m0 47.015v51.18m0-98.195l-16.069-20.532M1009 370.538V321.44m0 0l11.31-14.878M1009 468.733l-25.888-23.805M1009 468.733v39.279m0 0l17.56-30.947" class="Vector 3_24"/>
          </g>
          <g class="Group 11.1_4">
            <g class="Group 10_23">
              <path fill="#1A6076" d="M864.58 531.73l80.181-355.087 68.049 355.087H864.58z" class="Vector 2_25"/>
              <path fill="#fff" fill-opacity=".04" d="M999.337 531.731L944.76 176.643l68.05 355.088h-13.473z" class="Vector 2.1_23"/>
              <path fill="#000" fill-opacity=".04" d="M884.793 531.731l59.967-355.088-79.844 355.088h19.877z" class="Vector 2.2_23"/>
            </g>
            <path stroke="#000" stroke-linecap="round" stroke-width="2.021" d="M943.75 540.832v-36.726m0-252.671v41.438m0 108.817l19.877-30.321M943.75 401.69v-53.229m0 53.229v57.946m0-111.175l-18.193-23.246m18.193 23.246v-55.588m0 0l12.802-16.845M943.75 459.636l-29.31-26.952m29.31 26.952v44.47m0 0l19.877-35.037" class="Vector 3_25"/>
          </g>
          <g class="Group 11_4">
            <g class="Group 10_24">
              <path fill="#0F4E5B" d="M773.532 531.049l89.543-396.544 75.998 396.544H773.532z" class="Vector 2_26"/>
              <path fill="#fff" fill-opacity=".04" d="M924.024 531.049l-60.949-396.544 75.998 396.544h-15.049z" class="Vector 2.1_24"/>
              <path fill="#000" fill-opacity=".04" d="M796.106 531.049l66.969-396.544-89.166 396.544h22.197z" class="Vector 2.2_24"/>
            </g>
            <path stroke="#000" stroke-linecap="round" stroke-width="2.257" d="M861.946 541.96v-41.762m0-282.171v46.276m0 121.522l22.197-33.861m-22.197 33.861v-59.444m0 59.444v64.711m0-124.155l-20.316-25.96m20.316 25.96v-62.078m0 0l14.297-18.811m-14.297 205.044l-32.732-30.098m32.732 30.098v49.662m0 0l22.197-39.127" class="Vector 3_26"/>
          </g>
        </g>
      </g>
      <g class="Group 15.1">
        <g class="Group 12.1_3">
          <g class="Group 11.3_5">
            <g class="Group 10_25">
              <path fill="#2A7E98" d="M152.035 546.309l-36.26-160.58L85 546.309h67.035z" class="Vector 2_27"/>
              <path fill="#fff" fill-opacity=".04" d="M91.094 546.308l24.681-160.58L85 546.308h6.094z" class="Vector 2.1_25"/>
              <path fill="#000" fill-opacity=".04" d="M142.894 546.308l-27.119-160.58 36.108 160.58h-8.989z" class="Vector 2.2_25"/>
            </g>
            <path stroke="#000" stroke-linecap="round" stroke-width=".914" d="M116.233 550.62v-16.804m0-114.265v18.739m0 49.21l-8.989-13.711m8.989 13.711v-24.072m0 24.072v26.205m0-50.277l8.227-10.512m-8.227 10.512V438.29m0 0l-5.79-7.617m5.79 83.032l13.254-12.188m-13.254 12.188v20.111m0 0l-8.989-15.845" class="Vector 3_27"/>
          </g>
          <g class="Group 11.4_5">
            <g class="Group 10_26">
              <path fill="#1A6076" d="M190.176 545.96l-41.053-181.806L114.28 545.96h75.896z" class="Vector 2_28"/>
              <path fill="#fff" fill-opacity=".04" d="M121.18 545.96l27.943-181.806L114.28 545.96h6.9z" class="Vector 2.1_26"/>
              <path fill="#000" fill-opacity=".04" d="M179.827 545.96l-30.704-181.806 40.881 181.806h-10.177z" class="Vector 2.2_26"/>
            </g>
            <path stroke="#000" stroke-linecap="round" stroke-width="1.035" d="M149.641 550.621v-18.804m0-129.369v21.216m0 55.715l-10.177-15.524m10.177 15.524v-27.253m0 27.253v29.669m0-56.922l9.314-11.902m-9.314 11.902v-28.462m0 0l-6.555-8.624m6.555 94.008l15.006-13.799m-15.006 13.799v22.769m0 0l-10.177-17.939" class="Vector 3_28"/>
          </g>
          <g class="Group 11.5_5">
            <g class="Group 10_27">
              <path fill="#0F4E5B" d="M236.793 545.612L190.947 342.58l-38.912 203.032h84.758z" class="Vector 2_29"/>
              <path fill="#fff" fill-opacity=".04" d="M159.74 545.612l31.207-203.033-38.912 203.033h7.705z" class="Vector 2.1_27"/>
              <path fill="#000" fill-opacity=".04" d="M225.235 545.612l-34.288-203.033L236.6 545.612h-11.365z" class="Vector 2.2_27"/>
            </g>
            <path stroke="#000" stroke-linecap="round" stroke-width="1.156" d="M191.525 551.198v-21.382m0-144.473v23.694m0 62.219l-11.366-17.337m11.366 17.337v-30.435m0 30.435v33.133m0-63.568l10.402-13.292m-10.402 13.292v-31.784m0 0l-7.32-9.632m7.32 104.984l16.758-15.411m-16.758 15.411v25.427m0 0l-11.366-20.034" class="Vector 3_29"/>
          </g>
          <g class="Group 11.2_5">
            <g class="Group 10_28">
              <path fill="#2A7E98" d="M214.062 547.078l36.261-160.58 30.775 160.58h-67.036z" class="Vector 2_30"/>
              <path fill="#fff" fill-opacity=".04" d="M275.004 547.078l-24.681-160.58 30.775 160.58h-6.094z" class="Vector 2.1_28"/>
              <path fill="#000" fill-opacity=".04" d="M223.204 547.078l27.119-160.58-36.108 160.58h8.989z" class="Vector 2.2_28"/>
            </g>
            <path stroke="#000" stroke-linecap="round" stroke-width=".914" d="M249.866 551.39v-16.804m0-114.265v18.739m0 49.211l8.988-13.712m-8.988 13.712v-24.072m0 24.072v26.204m0-50.276l-8.228-10.513m8.228 10.513V439.06m0 0l5.789-7.617m-5.789 83.032l-13.255-12.188m13.255 12.188v20.111m0 0l8.988-15.845" class="Vector 3_30"/>
          </g>
          <g class="Group 11.1_5">
            <g class="Group 10_29">
              <path fill="#1A6076" d="M175.922 546.732l41.053-181.806 34.843 181.806h-75.896z" class="Vector 2_31"/>
              <path fill="#fff" fill-opacity=".04" d="M244.918 546.732l-27.943-181.806 34.843 181.806h-6.9z" class="Vector 2.1_29"/>
              <path fill="#000" fill-opacity=".04" d="M186.271 546.732l30.704-181.806-40.881 181.806h10.177z" class="Vector 2.2_29"/>
            </g>
            <path stroke="#000" stroke-linecap="round" stroke-width="1.035" d="M216.457 551.392v-18.803m0-129.369v21.216m0 55.715l10.177-15.524m-10.177 15.524v-27.254m0 27.254v29.669m0-56.923l-9.314-11.902m9.314 11.902v-28.461m0 0l6.555-8.624m-6.555 94.008l-15.007-13.8m15.007 13.8v22.769m0 0l10.177-17.94" class="Vector 3_31"/>
          </g>
          <g class="Group 11_5">
            <g class="Group 10_30">
              <path fill="#0F4E5B" d="M129.305 546.382l45.846-203.032 38.911 203.032h-84.757z" class="Vector 2_32"/>
              <path fill="#fff" fill-opacity=".04" d="M206.357 546.384l-31.206-203.033 38.911 203.033h-7.705z" class="Vector 2.1_30"/>
              <path fill="#000" fill-opacity=".04" d="M140.863 546.384l34.288-203.033-45.653 203.033h11.365z" class="Vector 2.2_30"/>
            </g>
            <path stroke="#000" stroke-linecap="round" stroke-width="1.156" d="M174.573 551.969v-21.382m0-144.473v23.694m0 62.219l11.365-17.336m-11.365 17.336v-30.435m0 30.435v33.133m0-63.568L164.171 428.3m10.402 13.292v-31.784m0 0l7.32-9.632m-7.32 104.984l-16.759-15.411m16.759 15.411v25.427m0 0l11.365-20.033" class="Vector 3_32"/>
          </g>
        </g>
        <g class="Group 12_3">
          <g class="Group 11.3_6">
            <g class="Group 10_31">
              <path fill="#2A7E98" d="M258.294 545.309l-47.398-209.905-40.229 209.905h87.627z" class="Vector 2_33"/>
              <path fill="#fff" fill-opacity=".04" d="M178.634 545.309l32.262-209.906-40.229 209.906h7.967z" class="Vector 2.1_31"/>
              <path fill="#000" fill-opacity=".04" d="M246.345 545.309l-35.449-209.906 47.199 209.906h-11.75z" class="Vector 2.2_31"/>
            </g>
            <path stroke="#000" stroke-linecap="round" stroke-width="1.195" d="M211.493 550.944v-21.966m0-149.363v24.496m0 64.325l-11.749-17.923m11.749 17.923V436.97m0 31.466v34.254m0-65.72l10.755-13.741m-10.755 13.741v-32.859m0 0l-7.567-9.958m7.567 108.537l17.327-15.932m-17.327 15.932v26.288m0 0l-11.749-20.711" class="Vector 3_33"/>
          </g>
          <g class="Group 11.4_6">
            <g class="Group 10_32">
              <path fill="#1A6076" d="M308.15 544.853l-53.663-237.652-45.546 237.652h99.209z" class="Vector 2_34"/>
              <path fill="#fff" fill-opacity=".04" d="M217.96 544.853l36.527-237.651-45.546 237.651h9.019z" class="Vector 2.1_32"/>
              <path fill="#000" fill-opacity=".04" d="M294.622 544.853l-40.135-237.651 53.438 237.651h-13.303z" class="Vector 2.2_32"/>
            </g>
            <path stroke="#000" stroke-linecap="round" stroke-width="1.353" d="M255.164 550.945v-24.58m0-169.106v27.733m0 72.829l-13.303-20.293m13.303 20.293v-35.625m0 35.625v38.781m0-74.406l12.175-15.558m-12.175 15.558v-37.204m0 0l-8.568-11.274m8.568 122.884l19.616-18.038m-19.616 18.038v29.763m0 0l-13.303-23.449" class="Vector 3_34"/>
          </g>
          <g class="Group 11.5_6">
            <g class="Group 10_33">
              <path fill="#0F4E5B" d="M369.086 544.398L309.157 279l-50.863 265.398h110.792z" class="Vector 2_35"/>
              <path fill="#fff" fill-opacity=".04" d="M268.366 544.397L309.157 279l-50.863 265.397h10.072z" class="Vector 2.1_33"/>
              <path fill="#000" fill-opacity=".04" d="M353.978 544.397L309.157 279l59.677 265.397h-14.856z" class="Vector 2.2_33"/>
            </g>
            <path stroke="#000" stroke-linecap="round" stroke-width="1.511" d="M309.913 551.7v-27.95m0-188.85v30.971m0 81.332l-14.856-22.662m14.856 22.662v-39.785m0 39.785v43.309m0-83.094l13.597-17.374m-13.597 17.374v-41.547m0 0l-9.568-12.59m9.568 137.231l21.907-20.144m-21.907 20.144v33.238m0 0l-14.856-26.187" class="Vector 3_35"/>
          </g>
          <g class="Group 11.2_6">
            <g class="Group 10_34">
              <path fill="#2A7E98" d="M339.374 546.314l47.397-209.905L427 546.314h-87.626z" class="Vector 2_36"/>
              <path fill="#fff" fill-opacity=".04" d="M419.034 546.314l-32.263-209.905L427 546.314h-7.966z" class="Vector 2.1_34"/>
              <path fill="#000" fill-opacity=".04" d="M351.323 546.314l35.448-209.905-47.198 209.905h11.75z" class="Vector 2.2_34"/>
            </g>
            <path stroke="#000" stroke-linecap="round" stroke-width="1.195" d="M386.174 551.95v-21.966m0-149.363v24.495m0 64.326l11.75-17.923m-11.75 17.923v-31.466m0 31.466v34.254m0-65.72l-10.754-13.741m10.754 13.741v-32.86m0 0l7.568-9.957m-7.568 108.537l-17.326-15.932m17.326 15.932v26.288m0 0l11.75-20.712" class="Vector 3_36"/>
          </g>
          <g class="Group 11.1_6">
            <g class="Group 10_35">
              <path fill="#1A6076" d="M289.517 545.86l53.663-237.651 45.546 237.651h-99.209z" class="Vector 2_37"/>
              <path fill="#fff" fill-opacity=".04" d="M379.707 545.861L343.18 308.209l45.546 237.652h-9.019z" class="Vector 2.1_35"/>
              <path fill="#000" fill-opacity=".04" d="M303.046 545.861l40.134-237.652-53.438 237.652h13.304z" class="Vector 2.2_35"/>
            </g>
            <path stroke="#000" stroke-linecap="round" stroke-width="1.353" d="M342.504 551.953v-24.58m0-169.107V386m0 72.828l13.303-20.293m-13.303 20.293v-35.625m0 35.625v38.782m0-74.407l-12.176-15.558m12.176 15.558V386m0 0l8.568-11.274m-8.568 122.884l-19.617-18.038m19.617 18.038v29.763m0 0l13.303-23.45" class="Vector 3_37"/>
          </g>
          <g class="Group 11_6">
            <g class="Group 10_36">
              <path fill="#0F4E5B" d="M228.582 545.403l59.928-265.398 50.864 265.398H228.582z" class="Vector 2_38"/>
              <path fill="#fff" fill-opacity=".04" d="M329.302 545.404L288.51 280.006l50.864 265.398h-10.072z" class="Vector 2.1_36"/>
              <path fill="#000" fill-opacity=".04" d="M243.69 545.404l44.82-265.398-59.677 265.398h14.857z" class="Vector 2.2_36"/>
            </g>
            <path stroke="#000" stroke-linecap="round" stroke-width="1.511" d="M287.755 552.706v-27.95m0-188.85v30.972m0 81.331l14.856-22.662m-14.856 22.662v-39.784m0 39.784v43.31m0-83.094l-13.598-17.374m13.598 17.374v-41.547m0 0l9.568-12.59m-9.568 137.231l-21.907-20.144m21.907 20.144v33.237m0 0l14.856-26.187" class="Vector 3_38"/>
          </g>
        </g>
      </g>
      <g class="Group 13_2">
        <path fill="#419ACB" d="M756.014 543.5c0-10.598-1.722-21.092-5.065-30.883-3.344-9.791-8.245-18.688-14.424-26.181-6.178-7.494-13.513-13.439-21.586-17.494-8.073-4.056-16.725-6.143-25.463-6.143-8.737 0-17.39 2.087-25.462 6.143-8.073 4.055-15.408 10-21.587 17.494-6.178 7.493-11.079 16.39-14.423 26.181-3.344 9.791-5.065 20.285-5.065 30.883h133.075z" class="Ellipse_4"/>
        <path fill="#368FC0" d="M785 543.688a50.079 50.079 0 00-3.786-19.106 49.931 49.931 0 00-10.782-16.197 49.737 49.737 0 00-16.136-10.823 49.577 49.577 0 00-38.068 0 49.715 49.715 0 00-16.136 10.823 49.915 49.915 0 00-10.782 16.197 50.079 50.079 0 00-3.786 19.106H785z" class="Ellipse_5"/>
        <path fill="#3682AD" d="M689.476 544.068a50.079 50.079 0 00-3.786-19.106 49.926 49.926 0 00-10.782-16.197 49.715 49.715 0 00-16.136-10.823 49.573 49.573 0 00-38.068 0 49.737 49.737 0 00-16.136 10.823 49.942 49.942 0 00-10.782 16.197A50.098 50.098 0 00590 544.068h99.476z" class="Ellipse_6"/>
      </g>
      <g class="Group 13_3">
        <path fill="#419ACB" d="M1041.01 543.701c0-10.598-1.72-21.092-5.06-30.883-3.35-9.791-8.25-18.687-14.42-26.181-6.18-7.494-13.52-13.438-21.591-17.494-8.073-4.056-16.725-6.143-25.463-6.143-8.737 0-17.39 2.087-25.462 6.143-8.073 4.056-15.408 10-21.587 17.494-6.178 7.494-11.079 16.39-14.423 26.181-3.344 9.791-5.065 20.285-5.065 30.883H1041.01z" class="Ellipse_7"/>
        <path fill="#368FC0" d="M1070 543.889c0-6.557-1.29-13.049-3.79-19.106a49.92 49.92 0 00-10.78-16.197 49.764 49.764 0 00-16.13-10.823 49.632 49.632 0 00-19.04-3.8c-6.53 0-13 1.291-19.03 3.8a49.702 49.702 0 00-16.138 10.823 49.926 49.926 0 00-10.782 16.197 50.079 50.079 0 00-3.786 19.106H1070z" class="Ellipse_8"/>
        <path fill="#3682AD" d="M974.476 544.269a50.083 50.083 0 00-3.786-19.106 49.926 49.926 0 00-10.782-16.197 49.715 49.715 0 00-16.136-10.823 49.573 49.573 0 00-38.068 0 49.737 49.737 0 00-16.136 10.823 49.942 49.942 0 00-10.782 16.197A50.102 50.102 0 00875 544.269h99.476z" class="Ellipse_9"/>
      </g>
      <g class="Group 13_4">
        <path fill="#3684B0" d="M904.014 543.701c0-10.598-1.722-21.092-5.065-30.883-3.344-9.791-8.245-18.687-14.424-26.181-6.178-7.494-13.513-13.438-21.586-17.494-8.073-4.056-16.725-6.143-25.463-6.143-8.737 0-17.39 2.087-25.462 6.143-8.073 4.056-15.408 10-21.587 17.494-6.178 7.494-11.079 16.39-14.423 26.181-3.344 9.791-5.065 20.285-5.065 30.883h133.075z" class="Ellipse_10"/>
        <path fill="#368FC0" d="M933 543.889a50.079 50.079 0 00-3.786-19.106 49.942 49.942 0 00-10.782-16.197 49.737 49.737 0 00-16.136-10.823 49.577 49.577 0 00-38.068 0 49.715 49.715 0 00-16.136 10.823 49.926 49.926 0 00-10.782 16.197 50.079 50.079 0 00-3.786 19.106H933z" class="Ellipse_11"/>
        <path fill="#327AA2" d="M837.476 544.269a50.083 50.083 0 00-3.786-19.106 49.926 49.926 0 00-10.782-16.197 49.715 49.715 0 00-16.136-10.823 49.573 49.573 0 00-38.068 0 49.737 49.737 0 00-16.136 10.823 49.942 49.942 0 00-10.782 16.197A50.102 50.102 0 00738 544.269h99.476z" class="Ellipse_12"/>
      </g>
      <g class="Group 14_2">
        <path fill="#F8B22C" d="M364.811 237.25L203 586.904c71.294 23.534 273.008 19.9 318 0L364.811 237.25z" class="Vector 2_39"/>
        <path fill="#000" fill-opacity=".09" d="M365.436 238.499L226.741 591.485 203 586.487l162.436-347.988z" class="Vector 11"/>
        <path fill="#000" fill-opacity=".1" d="M306.084 565.246l2.499-15.619h26.865l-3.124 15.619h-26.24z" class="Vector 10"/>
        <path fill="#000" fill-opacity=".03" d="M421.039 601.481c-28.725.693-35.223 5.047-49.355 0l-8.122-361.108 57.477 361.108z" class="Vector 9"/>
        <path stroke="#000" stroke-dasharray="8.65 8.65" stroke-linecap="round" stroke-opacity=".21" stroke-width="1.73" d="M271.098 597.733l93.713-356.11" class="Vector 6"/>
        <path fill="#000" fill-opacity=".57" d="M382.929 318.468l39.36 282.389c0 2.499 48.731-2.499 66.848-5.623l-61.225-163.061-44.983-113.705z" class="Vector 4"/>
        <path fill="#fff" fill-opacity=".07" d="M519.75 586.487L364.187 236c21.866 98.711 124.95 359.234 124.95 359.234s26.24-4.998 30.613-8.747z" class="Vector 5"/>
      </g>
      <g class="man">
        <g class="Group 3">
          <path stroke="#464646" stroke-linecap="round" stroke-width="2.632" d="M753.237 369.889l-.062 67.9-.157 171.595" class="Vector 4_2"/>
          <path stroke="#464646" stroke-linecap="round" stroke-width="2.632" d="M753.237 312.866v41.451" class="Vector 4.1"/>
        </g>
        <g class="Group 5">
          <g class="Group 2">
            <g class="Group">
              <path fill="#FF4588" fill-rule="evenodd" d="M926.736 299.329c4.428-1.599 7.617-6.095 7.617-11.39 0-6.635-5.008-12.013-11.185-12.013-1.835 0-3.567.474-5.095 1.316h-70.789c-9.299 9.474-1.535 18.276 3.509 21.493l-3.948 137.732h63.822l27.853-17.546-11.784-119.592z" class="Union" clip-rule="evenodd"/>
            </g>
            <path fill="#000" fill-opacity=".04" d="M911.147 298.954h-60.093l-3.51 137.074h63.603V298.954z" class="Vector 21"/>
            <ellipse cx="923.428" cy="287.939" fill="#000" fill-opacity=".08" class="Ellipse 2.1" rx="11.185" ry="12.014"/>
            <path fill="#000" fill-opacity=".12" d="M911.147 436.247V298.734h15.791L939 418.701l-27.853 17.546z" class="Vector 20"/>
          </g>
          <path fill="#FAB6B6" d="M844.912 514.105l-2.193-28.95c6.141 4.167 19.885 1.462 26.538 0l-1.316 16.449-2.851 86.192h-16.23l-3.948-73.691z" class="Vector 3_39"/>
          <path fill="#fff" fill-opacity=".03" d="M852.589 588.987v-99.132l-4.825-1.097-4.606 1.097 5.922 99.132h3.509z" class="Vector 21_2"/>
          <path fill="#000" fill-opacity=".1" d="M862.458 507.307l1.754-17.765 4.825-.877-1.316 18.642-2.412 80.489h-3.728l.877-80.489z" class="Vector 8"/>
          <path fill="#FAB6B6" d="M888.776 506.429l-2.851-18.642c6.667 1.579 19.739 2.193 25.441 1.535v12.501l3.728 87.289h-15.791l-10.527-82.683z" class="Vector 3_40"/>
          <path fill="#FAB6B6" d="M818.598 366.284l8.992-26.318 15.572 10.308s-4.167 36.407-15.572 38.6c-11.404 2.193-42.913-12.501-62.286-19.519h-12.063l-5.702-3.071s-2.239-6.356-1.316-10.307c.849-3.634 7.018-7.896 7.018-7.896l12.063 7.896 53.294 10.307z" class="Vector 3_41"/>
          <path fill="#000" fill-opacity=".11" d="M818.814 369.136c8.935-6.598 11.185-25.221 11.185-25.221l-2.851-2.194-8.334 24.564-37.504-6.799s33.995 12.242 37.504 9.65z" class="Vector 9_2"/>
          <path fill="#000" fill-opacity=".07" d="M825.832 383.612c12.282-5.333 14.475-32.679 14.475-32.679l3.947 1.755c-3.158 8.772-5.921 28.292-13.597 34.652-5.483 3.509-15.499.658-19.52-.877 0 0 8.633-.219 14.695-2.851z" class="Vector 20_2"/>
          <path fill="#FAB6B6" fill-rule="evenodd" d="M884.551 280.071c3.704-3.938 6.199-9.537 6.199-14.892 0-9.69-5.315-18.642-14.036-18.642s-16.23 5.662-16.23 15.352c0 7.674.688 16.81 7.073 21.151l-1.809 9.772-6.36.878-1.536 6.14 3.729 5.045 27.195-1.535 1.097-9.65c-1.525 0-3.151-5.845-4.596-11.038-.248-.891-.49-1.762-.726-2.581z" class="Union_2" clip-rule="evenodd"/>
          <path fill="#000" fill-opacity=".06" d="M885.706 296.102s-2.247-7.667-1.974-10.965c.086-1.039.231-1.885.438-2.632.175-.629.439-2.193.439-2.193.219 1.754 2.413 8.772 4.386 13.159l-3.289 2.631z" class="Vector 20_3"/>
          <path fill="#000" fill-opacity=".03" d="M867.502 283.163l-1.754 9.65 2.412 1.097h2.632s-.233-3.603.877-5.483c1.177-1.993 5.703-3.509 5.703-3.509-5.045 1.096-8.846-.731-9.87-1.755z" class="Vector 4_3"/>
          <path fill="#000" fill-opacity=".07" d="M890.75 265.179c0 9.69-8.166 20.177-16.887 20.177-12.282-1.755-13.379-13.777-13.379-23.467s7.509-15.352 16.23-15.352 14.036 8.952 14.036 18.642z" class="Ellipse_13"/>
          <path fill="#221243" d="M839.649 396.77l.877-46.276-17.107-10.966c4.387-36.67 27.123-46.13 37.942-46.276 5.44 7.895 19.958 7.237 27.415 0 34.916 2.281 41.744 37.357 40.793 54.61h-17.764v51.54c-10.528 7.369-52.49.439-72.156-2.632z" class="Vector"/>
          <path fill="#000" fill-opacity=".06" d="M843.597 323.518l-3.071 27.195-6.36-4.606 9.431-22.589z" class="Vector 18"/>
          <path fill="#fff" fill-opacity=".03" d="M839.868 395.454c22.283-5.439 33.263-66.453 35.968-96.28-9.299 0-13.524-3.948-14.475-5.922-10.308 1.316-15.133 4.606-18.203 7.237v26.538c-2.632 6.316-3.29 48.25-3.29 68.427z" class="Vector 11_2"/>
          <path fill="#000" fill-opacity=".05" d="M898.207 380.54l5.702-16.01 8.115 14.695v16.229c0 .351-10.966 2.047-16.449 2.851l2.632-17.765z" class="Vector 9_3"/>
          <path fill="#FF4588" d="M841.184 360.583c2.983-1.579 15.133-39.478 14.037-66.454l5.921-.877c.526 52.11-12.72 72.156-20.835 78.954V361.46l.877-.877z" class="Vector 6_2"/>
          <path fill="#FF4588" d="M911.386 361.021c-2.983-1.579-14.495-39.696-13.399-66.672l-7.237-1.097c-.526 52.11 13.398 72.594 21.513 79.393v-10.746l-.877-.878z" class="Vector 6.1"/>
          <path fill="#FAB6B6" d="M920.139 389.094c11.404 2.281 10.015-26.538 7.895-41.232h-16.018v5.264c-3.886-7.553-8.629-17.488-11.616-23.906l-1.535-9.211s-.22-12.282-3.729-11.624c-.46.086 0 10.75-2.632 11.624-1.625.539-3.436-1.426-4.386 0-.877 1.316 7.018 16.631 7.018 16.631 9.299 35.267 18.715 47.994 25.003 52.454z" class="Vector 2_40"/>
          <path fill="#000" fill-opacity=".06" d="M919.919 368.04l-3.509-20.397h-4.606v5.264l-8.772-17.765 1.316 7.457 15.571 25.441z" class="Vector 8_2"/>
          <path fill="#121111" stroke="#000" stroke-width=".439" d="M881.977 262.986c-.545-1.635-.877-5.483-.877-5.483l5.483-9.211c3.158 3.684 3.728 8.699 3.509 10.746 2.106 9.826-2.851 18.131-5.483 21.055l-.219-.219 2.412-7.896s1.097-5.044-.219-5.921c-1.939-1.293-3.728 6.14-3.728 6.14h-.878s1.219-5.555 0-9.211z" class="Vector 5_2"/>
          <path fill="#1F50FF" d="M890.311 259.038c-3.333 1.93-6.579 0-16.668 0 0 0-24.484 1.221-26.099 0-5.337-4.036 14.037-3.509 14.037-3.509 1.628-4.739 5.64-11.529 15.933-11.529 13.894 0 12.797 15.038 12.797 15.038z" class="Vector 3_42"/>
          <path fill="#000" fill-opacity=".06" d="M890.092 259.133c-1.053 1.228-7.018.511-9.869 0 0 0 3.037-4.168 3.07-7.238.034-3.149-3.07-7.457-3.07-7.457 9.474 2.106 10.527 10.674 9.869 14.695z" class="Vector 20_4"/>
          <path fill="#000" fill-opacity=".1" d="M872.547 258.819c-7.194-.526-10.162-2.558-10.747-3.509-13.159 0-15.572 1.755-15.133 2.632.176 2.807 17.326 1.755 25.88.877z" class="Vector 19"/>
          <path fill="#1F50FF" d="M917.287 488.664c-4.561 6.141-31.143 4.386-44.521 0 0 0-14.25 2.412-21.713 2.412-12.062 0-15.133-2.412-15.133-2.412v-44.302c0-24.125 3.729-48.689 3.729-48.689 20.835 4.262 53.952 5.702 72.375 0 2.839 11.577 4.374 63.106 5.253 92.629l.01.362z" class="Vector 3_43"/>
          <path fill="#000" fill-opacity=".04" d="M835.701 488.445l3.509 1.535s12.303-39.568 15.835-66.49c1.233-9.396 9.007-24.768 9.007-24.768l-24.184-3.268c-4.386 18.862-4.167 64.699-4.167 92.991z" class="Vector 15"/>
          <path fill="#000" fill-opacity=".08" d="M875.836 489.103l-3.289-57.461v56.584l3.289.877z" class="Vector 14"/>
          <path fill="#000" fill-opacity=".06" d="M895.136 491.954v-92.772l16.23-3.509c2.983 1.93 5.483 62.652 6.36 92.772-4.211 3.509-16.814 3.801-22.59 3.509z" class="Vector 12"/>
          <path fill="#000" fill-opacity=".06" d="M905.664 491.954c1.579 0 1.754 1.097 5.921-.877-1.228 3.685 2.193 66.234 3.509 97.377h-1.316c-5.409-32.02-9.693-96.5-8.114-96.5z" class="Vector 7"/>
          <path fill="#000" fill-opacity=".08" d="M912.024 315.622c-5.461 9.839-3.071 29.608-3.071 29.608-.205 1.404 1.962 5.117 3.071 6.799v-4.606h16.887c2.632-15.44-5.921-32.897-10.308-39.258 0 0-4.675 4.027-6.579 7.457z" class="Vector 10_2"/>
          <path fill="#000" fill-opacity=".05" d="M864.432 489.103l8.334-57.023v55.707l-8.334 1.316z" class="Vector 13"/>
          <path stroke="#000" stroke-opacity=".08" stroke-width=".439" d="M872.766 488.006V432.08" class="Vector 16"/>
          <path stroke="#000" stroke-width=".439" d="M905.252 402.692s-.297 5.112 1.096 7.895c1.52 3.035 6.36 5.922 6.36 5.922" class="Vector 17"/>
          <g class="Group 4">
            <path fill="#1411A8" d="M821.446 606.219c3.509-3.29 27.634-18.861 27.634-18.861h16.448v24.125h-44.082s-1.5-3.858 0-5.264z" class="Vector 7_2"/>
            <path fill="#000" fill-opacity=".27" d="M841.842 611.045v-4.386l20.397-18.862h3.509v23.248h-23.906z" class="Vector 20_5"/>
            <path fill="#000" fill-opacity=".14" d="M841.623 606.439h-20.177l27.634-18.862h13.378l-20.835 18.862z" class="Vector 20_6"/>
            <rect width="19.3" height="1.316" x="828.025" y="597.008" fill="#FFA5A5" class="Rectangle" rx=".658"/>
            <rect width="19.3" height="1.316" x="831.534" y="593.499" fill="#FFA5A5" class="Rectangle_2" rx=".658"/>
            <rect width="19.3" height="1.316" x="835.043" y="589.99" fill="#FFA5A5" class="Rectangle_3" rx=".658"/>
          </g>
          <g class="Group 4.1">
            <path fill="#1411A8" d="M871.678 605.781c3.509-3.29 27.634-18.861 27.634-18.861h16.449v24.125h-44.083s-1.5-3.858 0-5.264z" class="Vector 7_3"/>
            <path fill="#000" fill-opacity=".27" d="M892.074 610.606v-4.387l20.397-18.861h3.509v23.248h-23.906z" class="Vector 20_7"/>
            <path fill="#000" fill-opacity=".14" d="M891.855 606.001h-20.177l27.634-18.862h13.378l-20.835 18.862z" class="Vector 20_8"/>
            <rect width="19.3" height="1.316" x="878.257" y="596.57" fill="#FFA5A5" class="Rectangle_4" rx=".658"/>
            <rect width="19.3" height="1.316" x="881.766" y="593.061" fill="#FFA5A5" class="Rectangle_5" rx=".658"/>
            <rect width="19.3" height="1.316" x="885.275" y="589.552" fill="#FFA5A5" class="Rectangle_6" rx=".658"/>
          </g>
        </g>
      </g>
      <g class="Group 17">
        <g class="Group 16">
          <path fill="#5D626F" d="M649 578.5l-32 56 5.5 5L655 584l-6-5.5z" class="Vector_2"/>
          <path fill="#545967" d="M638 581.5l32 56-5.5 5L632 587l6-5.5z" class="Vector_3"/>
          <path fill="#474B55" d="M643.5 578.5l33.5 55-5.5 5L639 583l4.5-4.5z" class="Vector_4"/>
          <path fill="#3B3E43" d="M653 592.5L628 634l5.5 5 23.5-43-4-3.5z" class="Vector_5"/>
        </g>
        <path fill="#FE9B7C" d="M641 612.5c-9.667-.5-27.6-5.1-22-19.5 5.322-13.684.83-21.228-2.49-23.66L616 569c.166.099.336.213.51.34l9.99 6.66c2.167-6.167 2-15.403 2-22 0-6.5 3.5-14.667 5-18 2.333 5 1 9.5 2.5 18 1.833-2 3 2.5 8.5-1.5 2.287-1.664-6 7.5 0 12 4.5 2.667 6.259-4.741 11 0 4.5 4.5 1.5-12.667 3.5-15 2.5 7.5 7 22.9 5 24.5-2 1.6 2.167 5.667 4.5 7.5 2.333.5-2.761-5.5 3.5-5.5 3 0 .833-10 3-11.5 5.833 18.333 7.2 53.6-34 48z" class="Vector_6"/>
        <path fill="#FECA7C" d="M645.899 604.972c-4.987-.258-14.241-2.632-11.351-10.062 2.746-7.06.428-10.953-1.285-12.208l-.263-.175c.085.051.173.11.263.175l5.155 3.437c1.118-3.182 1.032-7.948 1.032-11.352 0-3.353 1.806-7.567 2.58-9.287 1.203 2.58.515 4.902 1.289 9.287.946-1.031 1.548 1.29 4.386-.773 1.18-.859-3.096 3.869 0 6.191 2.322 1.376 3.229-2.446 5.676 0 2.322 2.322.774-6.535 1.806-7.739 1.29 3.869 3.612 11.815 2.58 12.641-1.032.825 1.118 2.924 2.322 3.87 1.203.258-1.425-2.838 1.805-2.838 1.548 0 .43-5.16 1.548-5.934 3.01 9.46 3.715 27.656-17.543 24.767z" class="Vector_7"/>
      </g>
    </g>
  </g>
  <defs>
    <clipPath id="clip0" class="clip0">
      <path fill="#fff" d="M0 0h1155v700H0z"/>
    </clipPath>
  </defs>
</svg>
