<svg xmlns="http://www.w3.org/2000/svg" width="1152" height="700" fill="none" viewBox="0 0 1152 700">
  <g class="catch">
    <path fill="#fff" d="M0 0h1152v700H0z"/>
    <g class="Group 8">
      <g class="Group 6">
        <path stroke="#fff" stroke-width="2.852" d="M287.543 227.703l69.87 9.031-69.87 19.487 69.87 15.21-69.87 23.29 69.87 33.271-69.87 21.864 69.87 24.716-69.87 20.914 69.87 26.141-69.87 27.093 69.87 22.339-69.87 18.062 69.87 18.061-69.87 17.587" class="Vector 2"/>
        <path fill="#FF7D58" d="M355.511 212.018h4.753v331.763h-4.753z" class="Rectangle"/>
        <path fill="#FF7D58" d="M283.265 205.363h4.753v331.763h-4.753z" class="Rectangle_2"/>
      </g>
      <path fill="#5866E5" d="M372.622 205.363H269.956v8.556h102.666l66.768 7.205v-7.205l-66.768-8.556z" class="Rectangle_3"/>
      <path fill="#FF7D58" d="M372.785 212.757H270.368v4.088h102.417l66.606 4.279 1.255-2.092-67.861-6.275z" class="Rectangle_4"/>
      <g class="stand">
        <path stroke="#fff" stroke-width="2.852" d="M480.516 282.838l207.232 67.018-207.232 67.018 207.232 59.413-207.232 48.957 207.232-139.74-207.232-21.864 207.232-67.018" class="Vector 2_2"/>
        <path fill="#FF7D58" d="M475.288 221.524h6.654v322.257h-6.654z" class="Rectangle_5"/>
        <path fill="#000" d="M478.14 221.524h3.802v322.257h-3.802z"/>
        <path fill="#FF7D58" d="M685.373 259.548l6.654-18.061v302.294h-6.654V259.548z" class="Rectangle_7"/>
        <path fill="#000" d="M688.225 259.548l3.802-18.061v302.294h-3.802V259.548z"/>
      </g>
      <g class="ramp">
        <path fill="#FF7D58" d="M623.107 295.672c-46.613 4.376-113.598-36.123-113.598-36.123-23.194-14.45-32.003-29.786-35.647-36.599l-37.549-1.901v-7.605l41.351 1.426c5.324 10.267 20.438 24.241 33.271 35.173 0 0 62.189 37.726 108.37 34.697 48.888-3.207 87.456-61.79 87.456-61.79h13.784s-43.937 67.699-97.438 72.722z" class="Vector"/>
        <mask id="a" width="285" height="84" x="436" y="213" class="mask0" maskUnits="userSpaceOnUse">
          <path fill="#C4C4C4" d="M623.107 295.672c-46.613 4.376-113.598-36.123-113.598-36.123-23.194-14.45-32.003-29.786-35.647-36.599l-37.549-1.901v-7.605l41.351 1.426c5.324 10.267 20.438 24.241 33.271 35.173 0 0 62.189 37.726 108.37 34.697 48.888-3.207 87.456-61.79 87.456-61.79h13.784s-43.937 67.699-97.438 72.722z" class="Vector_2"/>
        </mask>
        <g mask="url(#a)">
          <path fill="#5866E6" d="M622.817 293.185c-46.613 4.376-113.598-36.123-113.598-36.123-23.194-14.449-32.003-29.786-35.647-36.599l-37.549-1.901v-7.605l41.351 1.426c5.323 10.267 20.438 24.241 33.271 35.173 0 0 62.189 37.726 108.37 34.697 48.888-3.207 87.456-61.79 87.456-61.79h13.784s-43.937 67.699-97.438 72.722z" class="Vector_3"/>
          <path stroke="#fff" stroke-width=".951" d="M435.362 221.049l12.358-11.407 2.377 17.586 24.24-17.586-3.802 17.586 19.963-6.179-9.982 25.191 23.765-9.981-6.654 23.29 27.568-18.062-10.457 31.37 25.191-16.16-4.277 26.617 22.814-21.864-2.376 29.944 17.111-21.389 7.129 28.519 11.883-25.667 18.061 28.043 6.655-28.043 20.438 25.667v-30.42l26.617 19.488-4.278-32.796 27.568 18.061-9.982-34.697 27.568 16.636-11.407-33.747 27.092 17.111-7.605-28.518" class="Vector_4"/>
        </g>
      </g>
      <g class="Group 8_2">
        <path fill="#FF7D58" d="M900.438 237.022h6.654v307.047h-6.654z" class="Rectangle 3"/>
        <path fill="#141313" d="M907.133 237.021h-2.51v307.086h2.51z"/>
      </g>
      <g class="funnel">
        <path fill="#fff" d="M969.171 155.602c-63.442-8.06-99.014-6.854-162.457 0l12.074 17.014h140.504l9.879-17.014z" class="Vector 4"/>
        <path fill="#5866E6" fill-rule="evenodd" d="M912.397 262.94c.091 10.464 2.371 24.898 13.416 30.421 8.782 4.391 18.112 7.135 18.112 7.135s36.772 3.842 31.833 34.028c-1.926 11.767-9.47 13.926-16.734 16.004-7.442 2.129-14.589 4.174-15.099 16.378-.59 14.121 8.095 17.099 17.195 20.22 8.842 3.031 18.075 6.198 19.577 19.845 6.586 59.824-96.596 54.336-96.596 54.336h-94.95l8.233-30.187h79.582s59.005-2.039 60.373-27.99c.664-12.605-11.512-15.348-23.872-18.133-12.267-2.764-24.714-5.569-24.975-18.091-.266-12.748 10.526-14.474 21.271-16.193 10.757-1.721 21.467-3.434 20.99-16.189-.496-13.241-13.89-15.812-27.187-18.364-13.349-2.562-26.6-5.105-26.6-18.408v-36.639l-71.349-105.511c73.37 6.033 108.824 5.634 164.652 0L912.397 262.94z" class="Union" clip-rule="evenodd"/>
      </g>
      <g class="Group 2">
        <path fill="#5866E5" d="M731.003 481.039h39.926v4.753h-39.926z" class="Rectangle 2"/>
        <path fill="#394293" d="M749.063 485.793h6.654v29.469h-6.654z" class="Rectangle 2.1"/>
        <g class="Group">
          <path fill="#5866E5" d="M726.249 515.261h51.333v28.518h-51.333z" class="Rectangle 2.2"/>
          <mask id="b" width="52" height="29" x="726" y="515" class="mask1" maskUnits="userSpaceOnUse">
            <path fill="#5866E5" d="M726.249 515.261h51.333v28.518h-51.333z" class="Rectangle 2.3"/>
          </mask>
          <g mask="url(#b)">
            <path stroke="#fff" stroke-width=".951" d="M717.218 532.846h16.16v15.685h2.852v-19.012h-18.062v-3.327h20.438v22.339" class="Vector_5"/>
            <path stroke="#fff" stroke-width=".951" d="M790.415 519.538h-16.16v-15.685h-2.852v19.012h18.061v3.327h-20.438v-22.339" class="Vector_6"/>
          </g>
        </g>
        <path stroke="#fff" stroke-width=".475" d="M759.282 529.52c0 3.529-3.07 6.417-6.892 6.417-3.822 0-6.892-2.888-6.892-6.417 0-3.528 3.07-6.416 6.892-6.416 3.822 0 6.892 2.888 6.892 6.416z" class="Ellipse"/>
        <path fill="#FFF7F7" d="M751.915 529.996l.747-5.228.747 5.228h-1.494z" class="Vector 2_3"/>
      </g>
      <g class="Group 3">
        <ellipse cx="456.751" cy="189.401" fill="#FF9D9D" class="Ellipse_2" rx="24.241" ry="24.914"/>
        <path fill="#020202" d="M454.396 188.055c0 16.177 5.518 24.996-.001 24.996-13.387 0-23.037-12.44-21.058-27.991.749-5.89 3.11-12.158 15.268-20.074 13.387 0 10.167-4.202 5.791 23.069z"/>
        <path stroke="#fff" stroke-width=".673" d="M435.315 177.426s10.35 7.609 24.803 6.926c12.731-.602 18.456-5.795 18.456-5.795" class="Vector_7"/>
        <path stroke="#fff" stroke-width=".673" d="M439.274 172.054s6.391 5.238 20.845 4.554c12.731-.602 14.78-3.423 14.78-3.423" class="Vector_8"/>
        <path stroke="#fff" stroke-width=".673" d="M432.488 186.474s13.177 10.344 27.631 9.661c12.73-.602 20.717-8.248 20.717-8.248" class="Vector_9"/>
        <path stroke="#fff" stroke-width=".673" d="M434.75 200.045s10.915 8.557 25.368 7.874c12.731-.603 17.608-5.894 17.608-5.894" class="Vector_10"/>
        <path stroke="#fff" stroke-width=".673" d="M432.771 193.542s12.894 9.337 27.348 8.653c12.731-.602 20.435-8.653 20.435-8.653" class="Vector_11"/>
      </g>
      <path stroke="#000" stroke-width=".951" d="M751.916 513.361c-36.01 6.125-52.199 23.378-87.931 28.518-37.135 5.343-60.084-5.842-96.012-3.327-42.052 2.944-66.854 12.961-107.894 3.327-24.161-5.671-51.83.013-58.938-23.765-2.605-8.714 0-23.29 0-23.29" class="Vector_12"/>
      <path fill="#FF7D58" d="M398.289 500.052h1.901v43.728h-1.901z" class="Rectangle 4"/>
      <g class="Group 5">
        <path fill="#5866E5" d="M392.109 502.429v-83.654h15.685v83.654c-5.655 2.753-9.064 2.912-15.685 0z" class="Vector 2_4"/>
        <mask id="c" width="16" height="87" x="392" y="418" class="mask2" maskUnits="userSpaceOnUse">
          <path fill="#5866E5" d="M392.109 502.429v-83.654h15.685v83.654c-5.655 2.753-9.064 2.912-15.685 0z" class="Vector 2.1"/>
        </mask>
        <g mask="url(#c)">
          <circle cx="393.536" cy="429.706" r=".951" fill="#fff" class="Ellipse_4"/>
          <circle cx="401.14" cy="437.312" r=".951" fill="#fff" class="Ellipse_5"/>
          <circle cx="395.437" cy="447.769" r=".951" fill="#fff" class="Ellipse_6"/>
          <circle r=".951" fill="#fff" class="Ellipse_7" transform="matrix(-1 0 0 1 404.943 462.977)"/>
          <circle r=".951" fill="#fff" class="Ellipse_8" transform="matrix(-1 0 0 1 397.338 470.583)"/>
          <circle r=".951" fill="#fff" class="Ellipse_9" transform="matrix(-1 0 0 1 403.042 481.039)"/>
          <path fill="#161616" d="M404.942 506.394V419.25h16.161v87.144c-5.827 2.868-9.339 3.034-16.161 0z"/>
        </g>
      </g>
      <g class="Group 4">
        <path fill="#EA6F4C" d="M386.406 419.726l12.358-26.617 13.784 26.617c-10.202 4.671-15.936 4.713-26.142 0z" class="Vector 3"/>
        <mask id="d" width="27" height="31" x="386" y="393" class="mask3" maskUnits="userSpaceOnUse">
          <path fill="#EA6F4C" d="M386.406 419.726l12.358-26.617 13.784 26.617c-10.202 4.671-15.936 4.713-26.142 0z" class="Vector 3.1"/>
        </mask>
        <g mask="url(#d)">
          <path fill="#000" d="M405.894 422.103l-8.081-32.796 20.914 29.944c-10.202 4.672-2.628 7.565-12.833 2.852z"/>
          <path stroke="#fff" stroke-width=".951" d="M388.308 399.288c7.941 4.943 12.641 5.801 21.388 4.278-8.186 4.66-12.878 5.562-21.388 3.802 9.557 5.68 15.12 6.214 25.191 5.228-10.461 3.003-16.646 3.715-28.519 2.377 11.948 5.252 18.596 6.212 30.42 6.654" class="Vector 4_2"/>
        </g>
      </g>
      <g class="Group 7">
        <path stroke="#383838" stroke-width="1.901" d="M280.413 208.215l-3.391 19.261M221 545.682l4.602-26.142m87.132-311.325l-3.5 19.261M250.469 550.91l4.231-23.29m0 0l-29.098-8.08m29.098 8.08l3.887-21.389m-32.985 13.309l3.599-20.438m0 0l29.386 7.129m-29.386-7.129l2.928-16.636m26.458 23.765l3.627-19.962m0 0l-30.085-3.803m30.085 3.803l4.231-23.29m-34.316 19.487l4.017-22.815m0 0l30.299 3.328m-30.299-3.328l3.096-17.586m27.203 20.914l3.8-20.914m0 0h-31.003m31.003 0l3.386-18.636m-34.389 18.636l3.682-20.913m0 0l30.707 2.277m-30.707-2.277l4.017-22.815m26.69 25.092l4.559-25.092m0 0h-31.249m31.249 0l3.886-21.389m-35.135 21.389l4.351-24.716m0 0l30.784 3.327m-30.784-3.327l3.515-19.962m27.269 23.289l4.232-23.289m0 0h-31.501m31.501 0l4.836-26.618m-36.337 26.618l4.686-26.618m0 0h31.651m-31.651 0l4.351-24.715m27.3 24.715l4.491-24.715m0 0h-31.791m31.791 0l3.109-17.111m-34.9 17.111l3.013-17.111m0 0h31.887m-31.887 0l3.598-20.438m28.289 20.438l3.713-20.438m0 0h-32.002m32.002 0l3.278-18.041m-35.28 18.041l3.176-18.041m0 0h32.104m-32.104 0l3.391-19.26m28.713 19.26l3.499-19.26m0 0h-32.212" class="ladder"/>
        <g class="man">
          <g class="worker-3">
            <g class="Group 3_2">
              <path fill="#EA5B33" d="M239.269 393.105l-3.509-20.024 14.914 1.205s2.664 8.301 1.548 17.686c-1.219 10.248-10.948 24.051-10.948 24.051l-7.473.653 5.468-23.571z" class="Vector 3_2"/>
              <path fill="#000" d="M233.358 418.775l.951-4.278 7.737 1.303 8.04 6.242-16.728-3.267z" class="Vector 4.1"/>
            </g>
            <path fill="#EA5B33" d="M257.787 400.298l-14.003-25.006 20.004 1.501s5.569 18.004 5.001 23.505c-.745 7.22-6.251 17.503-6.251 17.503h-7.251l2.5-17.503z" class="Vector 2_5"/>
            <path fill="#000" stroke="#000" stroke-width=".5" d="M255.287 422.802v-4.75h7.502l9.002 4.75h-16.504z" class="Vector 4_3"/>
            <g class="Group 2.1">
              <path fill="#fff" stroke="#000" stroke-width=".5" d="M266.93 325.477c-.516-.808-1.55 2.847-1.55 2.847l1.375 1.105 2.736-2.362s.243-1.767-.669-1.762c-.679.004-1.608 1.102-1.608 1.102s-.079-.61-.284-.93z" class="Vector 3_3"/>
              <path fill="#5866E5" stroke="#000" stroke-width=".5" d="M241.958 337.689l.27-5.338 12.065 1.566 10.58-6.116 2.387 2.152-10.787 11.095-14.515-3.359z" class="Vector 2_6"/>
            </g>
            <path fill="#fff" stroke="#000" stroke-width=".5" d="M244.535 322.782V328.033h5.251v-5.251h-5.251z" class="Vector 2_7"/>
            <path fill="#5866E5" d="M233.782 376.794s-1.217-41.238 3.001-46.51c8.001-10.002 17.753-1.25 17.753-1.25 7.002 7.751 8.71 17.818 9.252 47.76h-30.006z" class="Vector_13"/>
            <g class="Group 2_2">
              <path fill="#fff" stroke="#000" stroke-width=".5" d="M291.544 332.785c-.75-1-3.501 3.501-3.501 3.501l1.5 2.25s4.283-.232 5.001-2.25c.463-1.301.819-3.092-.5-3.501-1.088-.337-2.5 1.501-2.5 1.501s.351-1.032 0-1.501z" class="Vector 3_4"/>
              <path fill="#5866E5" d="M250.035 339.536c-2.171-2.368-2.251-8.502 2.75-7.752 2.128.319 16.754 7.752 16.754 7.752l18.004-4.251 2.5 4.251s-15.003 11.621-20.504 11.502c-5.501-.119-16.753-8.502-19.504-11.502z" class="Vector 2_8"/>
            </g>
            <path fill="#fff" stroke="#000" stroke-width=".5" d="M243.284 322.782c-.559-1.119-1.219-2.724-2-5.751-.782-3.027.104-8.11 4.75-6.252 2.501 1 4.193 3.017 5.252 5.502 1.377 3.234 1.734 6.501-1.001 6.501-2.734 0-6.251 1.5-7.001 0z" class="Vector 2_9"/>
            <path fill="#000" stroke="#000" stroke-width=".5" d="M243.533 323.532l-4.501-8.252.5-2 .5-3.251 9.252-2-2.5 4.251-4.251 1.75v3.251l2 5.751-1 .5z" class="Vector 3_5"/>
          </g>
        </g>
      </g>
    </g>
  </g>
</svg>
