<svg xmlns="http://www.w3.org/2000/svg" width="1152" height="700" fill="none" viewBox="0 0 1152 700">
  <g clip-path="url(#clip0)">
    <path fill="#fff" d="M0 0h1152v700H0z"/>
    <g class="Group 15">
      <path fill="#EDEEF3" d="M709.309 383.29L317 289.243l157.998-73.088L835.6 289.243 709.309 383.29z" class="Vector"/>
      <g class="Group 14">
        <g class="Group 11">
          <path fill="#256E7E" d="M707.159 281.719l15.585-137.576 70.938 12.36-17.197 137.577-69.326-12.361z" class="Vector 6.1"/>
          <g class="Group 9">
            <path stroke="#F9A7A7" stroke-linecap="round" stroke-width="1.075" d="M728.118 163.489l32.782 4.837" class="Line"/>
            <path stroke="#F9A7A7" stroke-linecap="round" stroke-width="1.075" d="M727.668 167.789l12.092 2.039 12.092 2.039" class="Line_2"/>
            <path stroke="#F9A7A7" stroke-linecap="round" stroke-width="1.075" d="M727.602 171.013l11.285 1.687 11.286 1.688" class="Line_3"/>
            <path stroke="#F9A7A7" stroke-linecap="round" stroke-width="1.075" d="M726.593 178.537l12.092 2.039 12.092 2.039" class="Line_4"/>
            <path stroke="#F9A7A7" stroke-linecap="round" stroke-width="1.075" d="M726.527 181.761l11.286 1.688 11.285 1.687" class="Line_5"/>
            <path stroke="#F9A7A7" stroke-linecap="round" stroke-width="1.075" d="M725.518 184.986l12.092 2.039 12.092 2.04" class="Line_6"/>
            <path stroke="#F9A7A7" stroke-linecap="round" stroke-width="1.075" d="M725.452 188.21l11.286 1.687 11.285 1.687" class="Line_7"/>
            <path stroke="#F9A7A7" stroke-linecap="round" stroke-width="1.075" d="M724.377 193.584l11.286 1.687 5.891 1" class="Line_8"/>
            <path stroke="#F9A7A7" stroke-linecap="round" stroke-width="1.075" d="M723.369 196.809l12.092 2.039 16.303 2.797" class="Line_9"/>
            <path stroke="#F9A7A7" stroke-linecap="round" stroke-width="1.075" d="M723.303 200.033l11.285 1.687 11.286 1.688" class="Line_10"/>
          </g>
        </g>
        <g class="Group 13">
          <path fill="#256E7E" d="M491.121 236.577L506.705 99l211.74 27.408-17.735 152.624-209.589-42.455z" class="Vector 6"/>
          <g class="Group 12">
            <g class="Group 9.1">
              <path stroke="#F9A7A7" stroke-linecap="round" stroke-width="1.075" d="M517.475 128.021l32.782 4.837" class="Line_11"/>
              <path stroke="#F9A7A7" stroke-linecap="round" stroke-width="1.075" d="M517.025 132.32l12.092 2.04 12.091 2.039" class="Line_12"/>
              <path stroke="#F9A7A7" stroke-linecap="round" stroke-width="1.075" d="M516.959 135.545l11.285 1.687 11.286 1.687" class="Line_13"/>
              <path stroke="#F9A7A7" stroke-linecap="round" stroke-width="1.075" d="M515.95 143.068l12.092 2.04 12.092 2.039" class="Line_14"/>
              <path stroke="#F9A7A7" stroke-linecap="round" stroke-width="1.075" d="M515.884 146.293l11.286 1.687 11.285 1.688" class="Line_15"/>
              <path stroke="#F9A7A7" stroke-linecap="round" stroke-width="1.075" d="M514.876 149.517l12.091 2.04 12.092 2.039" class="Line_16"/>
              <path stroke="#F9A7A7" stroke-linecap="round" stroke-width="1.075" d="M514.809 152.741l11.286 1.688 11.285 1.687" class="Line_17"/>
              <path stroke="#F9A7A7" stroke-linecap="round" stroke-width="1.075" d="M513.734 158.116l11.286 1.687 5.891 1" class="Line_18"/>
              <path stroke="#F9A7A7" stroke-linecap="round" stroke-width="1.075" d="M512.726 161.34l12.092 2.04 16.303 2.797" class="Line_19"/>
              <path stroke="#F9A7A7" stroke-linecap="round" stroke-width="1.075" d="M512.66 164.564l11.285 1.688 11.286 1.687" class="Line_20"/>
            </g>
            <g class="Group 9.2">
              <path stroke="#F9A7A7" stroke-linecap="round" stroke-width="1.075" d="M511.026 175.312l32.782 4.837" class="Line_21"/>
              <path stroke="#F9A7A7" stroke-linecap="round" stroke-width="1.075" d="M510.576 179.611l12.092 2.04 12.091 2.039" class="Line_22"/>
              <path stroke="#F9A7A7" stroke-linecap="round" stroke-width="1.075" d="M510.51 182.836l11.285 1.687 11.286 1.687" class="Line_23"/>
              <path stroke="#F9A7A7" stroke-linecap="round" stroke-width="1.075" d="M509.501 190.359l12.092 2.04 12.092 2.039" class="Line_24"/>
              <path stroke="#F9A7A7" stroke-linecap="round" stroke-width="1.075" d="M509.435 193.584l11.285 1.688 11.286 1.687" class="Line_25"/>
              <path stroke="#F9A7A7" stroke-linecap="round" stroke-width="1.075" d="M508.426 196.808l12.092 2.04 12.092 2.039" class="Line_26"/>
              <path stroke="#F9A7A7" stroke-linecap="round" stroke-width="1.075" d="M508.36 200.033l11.286 1.687 11.285 1.687" class="Line_27"/>
              <path stroke="#F9A7A7" stroke-linecap="round" stroke-width="1.075" d="M507.285 205.407l11.286 1.687 5.89 1" class="Line_28"/>
              <path stroke="#F9A7A7" stroke-linecap="round" stroke-width="1.075" d="M506.277 208.632l12.091 2.039 16.304 2.797" class="Line_29"/>
              <path stroke="#F9A7A7" stroke-linecap="round" stroke-width="1.075" d="M506.21 211.856l11.286 1.687 11.285 1.687" class="Line_30"/>
            </g>
            <g class="Group 9.3">
              <path stroke="#A7F4F9" stroke-linecap="round" stroke-width="1.075" d="M598.087 140.919l32.782 4.836" class="Line_31"/>
              <path stroke="#A7F4F9" stroke-linecap="round" stroke-width="1.075" d="M597.637 145.218l12.091 2.039 12.092 2.04" class="Line_32"/>
              <path stroke="#A7F4F9" stroke-linecap="round" stroke-width="1.075" d="M597.57 148.442l11.286 1.687 11.285 1.688" class="Line_33"/>
              <path stroke="#A7F4F9" stroke-linecap="round" stroke-width="1.075" d="M596.562 155.966l12.092 2.039 12.091 2.04" class="Line_34"/>
              <path stroke="#A7F4F9" stroke-linecap="round" stroke-width="1.075" d="M596.495 159.19l11.286 1.688 11.286 1.687" class="Line_35"/>
              <path stroke="#A7F4F9" stroke-linecap="round" stroke-width="1.075" d="M595.487 162.415l12.092 2.039 12.091 2.04" class="Line_36"/>
              <path stroke="#A7F4F9" stroke-linecap="round" stroke-width="1.075" d="M595.421 165.639l11.285 1.687 11.286 1.688" class="Line_37"/>
              <path stroke="#A7F4F9" stroke-linecap="round" stroke-width="1.075" d="M594.346 171.013l11.285 1.688 5.891.999" class="Line_38"/>
              <path stroke="#A7F4F9" stroke-linecap="round" stroke-width="1.075" d="M593.337 174.238l12.092 2.039 16.304 2.798" class="Line_39"/>
              <path stroke="#A7F4F9" stroke-linecap="round" stroke-width="1.075" d="M593.271 177.462l11.285 1.687 11.286 1.688" class="Line_40"/>
            </g>
            <g class="Group 9.4">
              <path stroke="#A7F4F9" stroke-linecap="round" stroke-width="1.075" d="M591.637 188.21l32.782 4.837" class="Line_41"/>
              <path stroke="#A7F4F9" stroke-linecap="round" stroke-width="1.075" d="M591.187 192.51l12.092 2.039 12.092 2.04" class="Line_42"/>
              <path stroke="#A7F4F9" stroke-linecap="round" stroke-width="1.075" d="M591.121 195.734l11.286 1.687 11.285 1.688" class="Line_43"/>
              <path stroke="#A7F4F9" stroke-linecap="round" stroke-width="1.075" d="M590.113 203.258l12.091 2.039 12.092 2.04" class="Line_44"/>
              <path stroke="#A7F4F9" stroke-linecap="round" stroke-width="1.075" d="M590.046 206.483l11.286 1.687 11.285 1.687" class="Line_45"/>
              <path stroke="#A7F4F9" stroke-linecap="round" stroke-width="1.075" d="M589.038 209.707l12.091 2.039 12.092 2.04" class="Line_46"/>
              <path stroke="#A7F4F9" stroke-linecap="round" stroke-width="1.075" d="M588.971 212.931l11.286 1.687 11.286 1.688" class="Line_47"/>
              <path stroke="#A7F4F9" stroke-linecap="round" stroke-width="1.075" d="M587.897 218.305l11.285 1.688 5.891.999" class="Line_48"/>
              <path stroke="#A7F4F9" stroke-linecap="round" stroke-width="1.075" d="M586.888 221.53l12.092 2.039 16.303 2.798" class="Line_49"/>
              <path stroke="#A7F4F9" stroke-linecap="round" stroke-width="1.075" d="M586.822 224.754l11.285 1.687 11.286 1.688" class="Line_50"/>
            </g>
          </g>
        </g>
      </g>
      <g class="Group 10">
        <g class="Group 8.1">
          <g class="Group 7">
            <ellipse cx="444.804" cy="588.974" fill="#F3F3F3" class="Ellipse" rx="26.478" ry="6.998"/>
          </g>
          <path fill="#DCEEFF" d="M421.918 596.162c-4.16-3.594-3.593-6.62-3.593-6.62 20.804 11.537 51.633 4.539 53.146-.946l-1.703 6.431c-11.499 10.289-43.689 4.728-47.85 1.135z" class="Vector 2"/>
        </g>
        <path fill="#DCEEFF" d="M440.687 498.954h11.194v89.918c-4.469 3.553-6.725 2.918-11.194 0v-89.918z" class="Rectangle"/>
        <g class="Group 8">
          <g class="Group 7_2">
            <ellipse cx="442.553" cy="481.696" fill="#E8E7E7" class="Ellipse_2" rx="65.299" ry="17.258"/>
          </g>
          <path fill="#DCEEFF" d="M386.116 499.421c-10.261-8.862-8.862-16.325-8.862-16.325 51.306 28.451 127.332 11.194 131.064-2.332l-4.198 15.858c-28.358 25.373-107.743 11.661-118.004 2.799z" class="Vector 2_2"/>
        </g>
      </g>
      <g class="Group 4">
        <path fill="#fff" d="M637.833 315.576l-124.141-29.02 26.333-31.169 118.23 26.87 1.075 4.299-18.81 30.633-2.687-1.613z" class="Vector 7"/>
        <g class="Group 4_2">
          <g class="Group 3">
            <g class="Group 2">
              <path fill="#EFEFEF" d="M536.263 266.134l3.225-3.762 5.374 1.075-2.687 4.299-5.912-1.612z" class="Vector 8"/>
              <path fill="#EFEFEF" d="M543.787 268.283l2.15-4.299 5.374 1.612-2.15 4.299-5.374-1.612z" class="Vector 8.1"/>
              <path fill="#EFEFEF" d="M551.311 270.433l3.224-3.762 5.374 1.075-2.687 4.299-5.911-1.612z" class="Vector 8.2"/>
              <path fill="#EFEFEF" d="M558.834 272.583l2.15-4.3 5.374 1.613-2.149 4.299-5.375-1.612z" class="Vector 8.3"/>
            </g>
            <g class="Group 2.1">
              <path fill="#EFEFEF" d="M530.889 272.583l3.224-3.762 5.375 1.075-2.688 4.299-5.911-1.612z" class="Vector 8_2"/>
              <path fill="#EFEFEF" d="M538.413 274.733l2.15-4.3 5.374 1.612-2.15 4.3-5.374-1.612z" class="Vector 8.1_2"/>
              <path fill="#EFEFEF" d="M545.937 276.882l3.224-3.762 5.374 1.075-2.687 4.299-5.911-1.612z" class="Vector 8.2_2"/>
              <path fill="#EFEFEF" d="M553.46 279.032l2.15-4.299 5.374 1.612-2.15 4.299-5.374-1.612z" class="Vector 8.3_2"/>
            </g>
            <g class="Group 2.2">
              <path fill="#EFEFEF" d="M525.515 279.033l3.224-3.762 5.374 1.075-2.687 4.299-5.911-1.612z" class="Vector 8_3"/>
              <path fill="#EFEFEF" d="M533.039 281.182l2.149-4.299 5.375 1.612-2.15 4.299-5.374-1.612z" class="Vector 8.1_3"/>
              <path fill="#EFEFEF" d="M540.563 283.331l3.224-3.761 5.374 1.074-2.687 4.3-5.911-1.613z" class="Vector 8.2_3"/>
              <path fill="#EFEFEF" d="M548.086 285.481l2.15-4.299 5.374 1.612-2.15 4.299-5.374-1.612z" class="Vector 8.3_3"/>
            </g>
          </g>
          <g class="Group 3.1">
            <g class="Group 2_2">
              <path fill="#EFEFEF" d="M568.508 273.658l3.224-3.762 5.374 1.075-2.687 4.299-5.911-1.612z" class="Vector 8_4"/>
              <path fill="#EFEFEF" d="M576.031 275.807l2.15-4.299 5.374 1.612-2.15 4.3-5.374-1.613z" class="Vector 8.1_4"/>
              <path fill="#EFEFEF" d="M583.555 277.957l3.224-3.761 5.375 1.074-2.688 4.3-5.911-1.613z" class="Vector 8.2_4"/>
              <path fill="#EFEFEF" d="M591.079 280.107l2.149-4.3 5.374 1.613-2.149 4.299-5.374-1.612z" class="Vector 8.3_4"/>
            </g>
            <g class="Group 2.1_2">
              <path fill="#EFEFEF" d="M563.133 280.107l3.225-3.762 5.374 1.075-2.687 4.299-5.912-1.612z" class="Vector 8_5"/>
              <path fill="#EFEFEF" d="M570.657 282.257l2.15-4.3 5.374 1.613-2.15 4.299-5.374-1.612z" class="Vector 8.1_5"/>
              <path fill="#EFEFEF" d="M578.181 284.406l3.225-3.762 5.374 1.075-2.687 4.3-5.912-1.613z" class="Vector 8.2_5"/>
              <path fill="#EFEFEF" d="M585.705 286.556l2.149-4.299 5.374 1.612-2.149 4.299-5.374-1.612z" class="Vector 8.3_5"/>
            </g>
            <g class="Group 2.2_2">
              <path fill="#EFEFEF" d="M557.759 286.556l3.225-3.762 5.374 1.075-2.687 4.3-5.912-1.613z" class="Vector 8_6"/>
              <path fill="#EFEFEF" d="M565.283 288.706l2.15-4.3 5.374 1.613-2.15 4.299-5.374-1.612z" class="Vector 8.1_6"/>
              <path fill="#EFEFEF" d="M572.807 290.855l3.224-3.762 5.374 1.075-2.687 4.299-5.911-1.612z" class="Vector 8.2_6"/>
              <path fill="#EFEFEF" d="M580.331 293.005l2.149-4.3 5.374 1.613-2.149 4.299-5.374-1.612z" class="Vector 8.3_6"/>
            </g>
          </g>
          <g class="Group 3.2">
            <g class="Group 2_3">
              <path fill="#EFEFEF" d="M600.752 283.331l3.225-3.762 5.374 1.074-2.687 4.3-5.912-1.612z" class="Vector 8_7"/>
              <path fill="#EFEFEF" d="M608.276 285.479l2.15-4.299 5.374 1.612-2.15 4.3-5.374-1.613z" class="Vector 8.1_7"/>
              <path fill="#EFEFEF" d="M615.8 287.629l3.224-3.762 5.374 1.075-2.687 4.3-5.911-1.613z" class="Vector 8.2_7"/>
              <path fill="#EFEFEF" d="M623.323 289.779l2.15-4.3 5.374 1.613-2.149 4.299-5.375-1.612z" class="Vector 8.3_7"/>
            </g>
            <g class="Group 2.1_3">
              <path fill="#EFEFEF" d="M595.378 289.78l3.225-3.762 5.374 1.075-2.687 4.299-5.912-1.612z" class="Vector 8_8"/>
              <path fill="#EFEFEF" d="M602.902 291.929l2.15-4.299 5.374 1.612-2.15 4.299-5.374-1.612z" class="Vector 8.1_8"/>
              <path fill="#EFEFEF" d="M610.426 294.079l3.224-3.762 5.374 1.075-2.687 4.299-5.911-1.612z" class="Vector 8.2_8"/>
              <path fill="#EFEFEF" d="M617.949 296.228l2.15-4.299 5.374 1.612-2.149 4.3-5.375-1.613z" class="Vector 8.3_8"/>
            </g>
            <g class="Group 2.2_3">
              <path fill="#EFEFEF" d="M590.004 296.229l3.224-3.762 5.374 1.075-2.687 4.299-5.911-1.612z" class="Vector 8_9"/>
              <path fill="#EFEFEF" d="M597.528 298.379l2.149-4.3 5.375 1.613-2.15 4.299-5.374-1.612z" class="Vector 8.1_9"/>
              <path fill="#EFEFEF" d="M605.052 300.528l3.224-3.762 5.374 1.075-2.687 4.3-5.911-1.613z" class="Vector 8.2_9"/>
              <path fill="#EFEFEF" d="M612.575 302.678l2.15-4.299 5.374 1.612-2.15 4.299-5.374-1.612z" class="Vector 8.3_9"/>
            </g>
          </g>
        </g>
      </g>
      <g class="Group 6">
        <g class="Group">
          <path fill="#FFB9B9" d="M466.516 187.136l-5.912 22.571-22.033-15.585 4.299-19.884 23.646 12.898z" class="Vector 5"/>
          <path fill="#EFC2C2" d="M481.563 187.135c.681-5.053-3.074-41.526-3.074-41.526-41.703-27.945-42.068 16.089-39.381 37.227 0 0 39.919 23.108 42.455 4.299z" class="Vector 6_2"/>
        </g>
        <path fill="#000" d="M528.202 575.682l-1.075-15.048c10.748 0 17.735-4.837 19.884-6.986 0 0 19.279-3.353 28.022 4.299 3.685 3.225-46.831 17.735-46.831 17.735z" class="Vector 2_3"/>
        <path fill="#EFC2C2" d="M687.391 282.256l-13.436 9.673 5.912 12.361 19.884-2.15 4.299-11.823-4.299-5.911-12.36-2.15z" class="Vector 5_2"/>
        <path fill="#484848" fill-rule="evenodd" d="M436.958 191.434c-28.304 21.855-82.439 96.841-72.55 221.95 125.109 49.442 160.327 8.419 162.297-18.272v-43.53c.106-.524.21-1.054.312-1.589 5.945 1.852 12.418 2.619 19.456 2.058 73.204-5.843 133.394-46.218 133.394-46.218 2.397-12.073-1.745-14.996-18.272-13.904l-125.754 13.904c-9.127-39.061-27.289-100.963-52.855-99.909-12.254-7.636-27.406-12.82-46.028-14.49z" class="Union" clip-rule="evenodd"/>
        <path fill="#000" fill-opacity=".03" d="M535.841 305.833c-10.748-46.002-34.029-123.683-67.176-92.903-7.524 6.987 4.604 144.964 77.808 139.121 73.204-5.843 133.394-46.218 133.394-46.218 2.397-12.073-1.744-14.996-18.272-13.904l-125.754 13.904z" class="Vector 2.1"/>
        <path fill="#343434" d="M558.412 563.859l3.647-102.108c-6.326 2.407-1.589.66-7.524 2.687 0 0-2.871 90.506-8.061 94.585-7.524 5.911-19.884 1.612-19.884 1.612l-11.286-83.836C387.4 509.005 362.55 443.136 364.292 406.398c33.678 7.523 101.461 9.034 159.189-9.135 46.101-14.511 76.196-4.484 88.557 4.298 12.36 8.783-6.871 151.013-6.871 151.013-9.888 18.917-35.29 15.406-46.755 11.285z" class="Vector 3"/>
        <path fill="#000" fill-opacity=".22" d="M553.997 463.901l-38.156 12.897 10.748 83.836s12.79 3.465 19.347-1.075c6.987-4.836 8.061-95.658 8.061-95.658z" class="Vector 6_3"/>
        <path fill="#000" stroke="#000" stroke-width="1.075" d="M559.652 595.028c-2.58-10.318-2.15-27.15 0-33.957-1.347 6.066 47.746-3.57 46.052-9.035 0 0 63.032 0 44.605 14.509-18.427 14.51-57.338 22.572-90.657 28.483z" class="Vector 4"/>
        <path fill="#000" stroke="#000" stroke-width="1.075" d="M456.842 190.897s-13.941.159-18.272-6.987c-3.077-5.076-2.692-9.111-2.687-15.047.007-8.356-.353-15.837 3.762-23.109 2.927-5.173 10.211-11.285 10.211-11.285h17.734l23.646 6.449v1.612l-16.66 6.986-3.224 14.51s-1.387-4.54-3.762-4.836c-2.65-.332-4.26 2.228-4.837 4.836-.648 2.934 3.225 6.987 3.225 6.987l-5.374 19.884h-3.762z" class="Vector 5_3"/>
      </g>
    </g>
  </g>
  <defs>
    <clipPath id="clip0" class="clip0">
      <path fill="#fff" d="M0 0h1152v700H0z"/>
    </clipPath>
  </defs>
</svg>
