<svg xmlns="http://www.w3.org/2000/svg" width="1152" height="700" fill="none" viewBox="0 0 1152 700">
  <g class="communicate">
    <path fill="#fff" d="M0 0h1152v700H0z"/>
    <g class="Group 15">
      <g class="Group 13">
        <g class="Group 12">
          <path stroke="#4D4ADA" stroke-width="3.262" d="M587.395 181.315l-43.061-137.99" class="Vector 3"/>
          <path stroke="#4D4ADA" stroke-width="3.262" d="M606.641 180.99L649.702 43" class="Vector 3.1"/>
        </g>
        <path fill="#193170" fill-rule="evenodd" d="M400.966 174.139c-6.882 0-12.58 5.345-13.021 12.212l-18.588 289.485c-.468 7.3 5.154 13.559 12.462 13.873l51.601 2.218 15.659 96.507h317.082l13.502-81.624 35.641 1.531a13.047 13.047 0 0013.431-10.891l51.353-308.117c1.326-7.954-4.808-15.194-12.871-15.194H400.966z" class="Union" clip-rule="evenodd"/>
        <path fill="#000" fill-opacity=".19" d="M449.079 587.781l-15.985-98.517c137.242 17.82 213.091 18.539 347.421 11.743l-14.354 86.774H449.079z" class="Vector 3.1_2"/>
        <path fill="#2357DD" d="M426.244 228.943c20.551-37.841 309.829-47.555 336.655-26.75 114.828 89.057 68.884 215.977 22.835 256.629-37.15 32.796-336.125 16.964-375.24-17.512-39.114-34.476.725-184.702 15.75-212.367z" class="Rectangle"/>
        <path fill="#fff" d="M540.959 288.887c-54.11-42.11-76.611-2.602-81.104 22.717-4.493 25.319 2.409 42.155 6.774 64.826 2.261 11.737.532 19.495-2.87 30.954l-3.904 13.147s-5.883 14.907-9.145 19.474c-3.262 4.567-3.262 16.311-3.262 16.311 40.76 9.248 54.018 9.576 93.511 14.68 1.018-7.438-11.232-28.726-24.458-50.465 0-13.892-1.033-7.226 0-32.085 0 0 24.458 3.267 24.458-7.583 0-6.174 4.714-26.857 4.714-26.857s8.322 1.531 6.637-2.006c-1.543-3.242-3.55-8.644-3.55-8.644s-.463-4.476-2.178-8.44c-1.603-3.707.496-15.781 0-19.79-2.845-22.998-5.623-26.239-5.623-26.239z" class="Vector"/>
        <path fill="#fff" d="M639.748 293.759c54.11-42.11 76.611-2.602 81.104 22.717 4.493 25.319-2.409 42.156-6.774 64.827-2.261 11.737-.532 19.495 2.87 30.953l3.904 13.147s5.883 14.908 9.145 19.475c3.262 4.567 3.869 27.749 3.869 27.749-41.43 5.872-83.512 3.914-94.603 3.914-1.018-7.437 11.717-29.399 24.943-51.138 0-13.892 1.032-7.226 0-32.085 0 0-24.458 3.267-24.458-7.583 0-6.174-4.714-26.857-4.714-26.857s-8.322 1.531-6.637-2.006c1.543-3.241 3.55-8.644 3.55-8.644s.463-4.476 2.178-8.44c1.603-3.707-.496-15.781 0-19.789 2.844-22.998 5.623-26.24 5.623-26.24z" class="Vector_2"/>
        <path fill="#222F9E" d="M651.353 303.071c-15.435-8.026-18.935-9.4-14.459-19.072 7.1-24.696 56.541-14.867 59.733-13.274 24.746 12.347 16.709 22.594 26.548 39.359 10.007 17.051 5.044 4.718 5.044 24.938 0 20.219 21.195 21.83 32.926 35.721 11.73 13.891 10.241 22.167 10.187 42.731-.033 12.789-19.559 5.027-20.177 28.488-.494 18.769-29.117 1.294-42.082-9.46-12.713-10.545-13.175-38.303-17.126-38.673-4.939-.463-12.916-15.523-11.372-32.656 1.543-17.132 3.346-25.071-11.009-30.936-14.354-5.865 1.081-17.133-18.213-27.166z" class="Vector 2"/>
        <path stroke="#fff" stroke-opacity=".54" stroke-width=".652" d="M660.141 292.229c10.765 1.958 32.882 11.353 35.231 33.274 2.936 27.402 2.284 57.741 12.396 56.762 8.09-.783 22.074 17.072 28.055 26.097" class="Vector 4"/>
        <path stroke="#fff" stroke-opacity=".54" stroke-width=".652" d="M691.131 298.753c10.765 1.958 14.289 21.139 16.637 43.061 2.936 27.402 8.156 33.274 18.268 32.295 8.091-.783 22.727 25.228 28.708 34.253" class="Vector 4.1"/>
        <path stroke="#fff" stroke-opacity=".54" stroke-width=".652" d="M714.945 338.552s10.439 10.199 10.439 19.247c0 3.915 17.812 12.788 26.424 26.097" class="Vector 5"/>
        <g class="Group 11.2">
          <path fill="#F9F9F9" d="M746.448 257.897h-37.353c-6.138 0-11.113-4.975-11.113-11.113v-1.08c0-6.734 5.459-12.194 12.194-12.194h36.272c6.734 0 12.193 5.46 12.193 12.194 0 6.734-5.459 12.193-12.193 12.193z" class="Vector 4_2"/>
          <g class="Group 10">
            <rect width="31.179" height="13.362" x="713.108" y="239.067" fill="#F2F2F2" class="Rectangle 2" rx="6.681"/>
            <circle cx="721.571" cy="245.748" r="1.782" fill="#C4C4C4" class="Ellipse"/>
            <circle cx="728.698" cy="245.748" r="1.782" fill="#C4C4C4" class="Ellipse_2"/>
            <circle cx="735.824" cy="245.748" r="1.782" fill="#C4C4C4" class="Ellipse_3"/>
          </g>
          <path fill="#F9F9F9" d="M712.754 260.996l-2.058-2.691a.926.926 0 01.736-1.488h3.72a.926.926 0 01.788 1.412l-1.662 2.691a.926.926 0 01-1.524.076z" class="Vector 5_2"/>
        </g>
        <path fill="#FFF7F7" fill-opacity=".1" d="M833.688 326.808L409.281 274.94l-5.546 25.119 429.953 44.039v-17.29z" class="Vector 3_2"/>
        <g class="Group 11.3">
          <path fill="#F9F9F9" d="M470.733 257.245H508.085c6.138 0 11.113-4.975 11.113-11.113v-1.08c0-6.735-5.459-12.194-12.193-12.194h-36.272c-6.735 0-12.194 5.459-12.194 12.194 0 6.734 5.459 12.193 12.194 12.193z" class="Vector 4_3"/>
          <g class="Group 10_2">
            <rect width="31.179" height="13.362" fill="#F2F2F2" class="Rectangle 2_2" rx="6.681" transform="matrix(-1 0 0 1 504.072 238.415)"/>
            <circle r="1.782" fill="#C4C4C4" class="Ellipse_4" transform="matrix(-1 0 0 1 495.609 245.096)"/>
            <circle r="1.782" fill="#C4C4C4" class="Ellipse_5" transform="matrix(-1 0 0 1 488.483 245.096)"/>
            <circle r="1.782" fill="#C4C4C4" class="Ellipse_6" transform="matrix(-1 0 0 1 481.357 245.096)"/>
          </g>
          <path fill="#F9F9F9" d="M504.426 260.344l2.058-2.691a.926.926 0 00-.736-1.488h-3.72a.926.926 0 00-.788 1.413l1.662 2.691a.926.926 0 001.524.075z" class="Vector 5_3"/>
        </g>
        <path stroke="#fff" stroke-dasharray="2.53 2.53" stroke-width="2.036" d="M546.908 366.691s4.822 12.084 11.422 12.502c7.019.445 6.071-11.108 12.965-12.502 8.9-1.799 10.737 14.463 19.602 12.502 6.742-1.491 12.503-12.502 12.503-12.502" class="Vector 2_2"/>
        <path stroke="#fff" stroke-dasharray="2.53 2.53" stroke-width="2.036" d="M634.37 381.613s-5.47 14.914-12.07 15.332c-7.02.445-7.977-5.318-14.871-6.711-8.9-1.799-10.737 14.463-19.602 12.502-6.742-1.491-12.503-12.502-12.503-12.502" class="Vector 2.1"/>
        <circle cx="500.295" cy="538.196" r="15.658" fill="#070707" fill-opacity=".33" class="Ellipse_7"/>
        <circle cx="499.968" cy="537.87" r="10.765" fill="#000" fill-opacity=".33" class="Ellipse_8"/>
      </g>
      <path stroke="#9AB6FF" stroke-dasharray="9.79 9.79" stroke-width="4.567" d="M382.052 287.662l-83.185 40.125c-58.284 34.47-152.017 103.214-60.676 102.431 114.176-.978 339.618-112.394 424.407-76.334 198.666 84.49 335.351-45.997 346.772-114.176 9.13-54.543-82.754-46.866-129.838-36.21" class="Vector_3"/>
      <g class="Group 14">
        <path fill="#F1F1F1" d="M251.208 416.449l-7.852-29.304 91.354 6.93-83.502 22.374z" class="Vector 2_3"/>
        <path fill="#E7E7E7" d="M251.208 416.45l-18.644-21.685 102.146-.689-83.502 22.374z" class="Vector 2.1_2"/>
      </g>
    </g>
  </g>
</svg>
