<svg xmlns="http://www.w3.org/2000/svg" width="800" height="600" fill="none" viewBox="0 0 800 600">
  <g class="compositions_made_from_angle">
    <path fill="#fff" d="M0 0h800v600H0z"/>
    <path fill="#185BFF" fill-rule="evenodd" d="M150.001 467.422c0 11.291 9.154 20.444 20.444 20.444h-10.169c-11.291 0-20.444-9.153-20.444-20.444v-322.9c0-11.291 9.153-20.444 20.444-20.444h10.167c-11.29.002-20.442 9.154-20.442 20.444v322.9zm20.506-343.344c-11.291 0-20.444 9.153-20.444 20.444v322.9c0 11.291 9.153 20.444 20.444 20.444h463.875c11.291 0 20.444-9.153 20.444-20.444v-322.9c0-11.291-9.153-20.444-20.444-20.444H170.507z" class="Primary" clip-rule="evenodd"/>
    <path stroke="#8BADFF" stroke-width=".924" d="M68.606 546.405h168.17" class="Vector 19"/>
    <path stroke="#8BADFF" stroke-width=".924" d="M68.606 540.218h168.17" class="Vector 19.1"/>
    <path stroke="#8BADFF" stroke-width=".924" d="M68.606 534.03h168.17" class="Vector 19.2"/>
    <circle cx="243.989" cy="102.99" r="27.371" stroke="#00257E" stroke-dasharray="2.03 2.03" stroke-width=".924" class="Ellipse 2.2"/>
    <circle cx="148.222" cy="540.217" r="10.988" stroke="#00257E" stroke-dasharray="2.03 2.03" stroke-width=".924" class="Ellipse 2.3"/>
    <g class="Group 9">
      <rect width="550.578" height="62.948" x="127.125" y="446.416" stroke="#185BFF" stroke-width=".924" class="Rectangle 4" rx="18.278"/>
    </g>
    <g class="Group 4.2">
      <path fill="#185BFF" fill-rule="evenodd" d="M670.88 484.877a4.782 4.782 0 000 6.762l1.275 1.275-.007.006 6.762 6.762.006-.007.007.007 6.762-6.762-.007-.006 1.275-1.275a4.782 4.782 0 00-6.762-6.762l-1.275 1.275-1.274-1.275a4.782 4.782 0 00-6.762 0z" class="Union" clip-rule="evenodd"/>
    </g>
    <path fill="#5AE8AD" d="M678.211 419.84c-3.544 4.138-9.515.319-9.515.319s.967-2.338 2.829-5.322c1.489-2.386 8.736-2.109 12.286-.887-.389.239-2.055 1.752-5.6 5.89z" class="Vector 12.3"/>
    <g class="Group 28">
      <circle cx="638.612" cy="507.731" r="10.306" stroke="#E9E9E9" stroke-width=".924" class="Ellipse 2.2_2"/>
      <circle cx="638.612" cy="507.731" r="8.049" fill="#E9E9E9" fill-opacity=".4" class="Ellipse 2.3_2"/>
    </g>
    <circle cx="353.099" cy="509.827" r="3.937" fill="#185BFF" class="Ellipse 2.5"/>
    <path fill="#185BFF" d="M32.928 311.623h1.645v11.391h-1.645z" class="Rectangle 15"/>
    <path fill="#185BFF" d="M39.446 316.496v1.645h-11.39v-1.645z" class="Rectangle 15.1"/>
    <path stroke="#8BADFF" stroke-width=".924" d="M730.729 497.677v5.219c0 14.805-12.002 26.807-26.807 26.807H604.71" class="Vector 19.1_2"/>
    <path stroke="#A4D3FF" stroke-width=".852" d="M505.682 559.082l-4.703-4.623c-4.537-4.459-11.838-4.41-16.337.088v0c-4.506 4.506-11.83 4.524-16.337.017v0c-4.506-4.506-11.813-4.506-16.319 0v0c-4.506 4.507-11.813 4.507-16.319 0v0c-4.507-4.506-11.813-4.506-16.32 0v0c-4.506 4.507-11.813 4.507-16.319 0v0c-4.507-4.506-11.813-4.506-16.319 0v0c-4.507 4.507-11.813 4.507-16.32 0v0c-4.506-4.506-11.813-4.506-16.319 0v0c-4.507 4.507-11.813 4.507-16.32 0v0c-4.506-4.506-11.812-4.506-16.319 0l-.21.21c-4.455 4.455-11.619 4.64-16.297.419l-5.778-5.212" class="Vector 7.1"/>
    <path stroke="#A4D3FF" stroke-linecap="round" stroke-width=".924" d="M559.38 226.07l4.537-4.598c3.963-4.015 10.438-4.036 14.427-.047l1.892 1.893c3.971 3.97 10.409 3.97 14.38 0l1.94-1.94c3.971-3.971 10.409-3.971 14.379 0l1.94 1.94c3.971 3.97 10.409 3.97 14.38 0l.419-.419c.366-.367.705-.762 1.011-1.18l1.877-2.561" class="Vector 7.3"/>
    <path stroke="#A4D3FF" stroke-linecap="round" stroke-width=".924" d="M270.267 388.091l4.537-4.598c3.963-4.015 10.437-4.036 14.427-.047l1.892 1.893c3.971 3.97 10.409 3.97 14.38 0l1.94-1.94c3.97-3.971 10.408-3.971 14.379 0l1.94 1.94c3.971 3.97 10.409 3.97 14.38 0l.418-.419c.367-.367.705-.762 1.012-1.18l1.876-2.561" class="Vector 7.4"/>
    <path stroke="#0035B7" stroke-linecap="round" stroke-width=".924" d="M278.032 243.467l4.598 4.537c4.015 3.963 4.036 10.438.047 14.427l-1.892 1.892c-3.971 3.971-3.971 10.409 0 14.38l1.939 1.94c3.971 3.971 3.971 10.409 0 14.379l-1.939 1.94c-3.971 3.971-3.971 10.409 0 14.38l.418.418c.367.367.762.706 1.18 1.012l2.561 1.877" class="Vector 7.5"/>
    <path stroke="#0035B7" stroke-linecap="round" stroke-width=".924" d="M626.538 420.172l4.598 4.538c4.015 3.963 4.036 10.437.047 14.426l-1.893 1.893c-3.97 3.971-3.97 10.409 0 14.38l1.94 1.939c3.971 3.971 3.971 10.409 0 14.38l-1.94 1.94c-3.97 3.97-3.97 10.408 0 14.379l.419.419c.367.367.761.705 1.18 1.012l2.56 1.876" class="Vector 7.6"/>
    <circle cx="604.711" cy="529.289" r="3.937" fill="#185BFF" class="Ellipse 2.4"/>
    <circle cx="333.399" cy="84.251" r="3.937" fill="#185BFF" class="Ellipse 2.6"/>
    <g class="Group 32">
      <path stroke="#B5DBFF" stroke-width=".852" d="M599.836 61.818l-1.74-1.847c-4.397-4.665-11.78-4.774-16.313-.241v0c-4.439 4.44-11.698 4.38-16.137-.06v0c-4.507-4.507-11.874-4.568-16.381-.061v0c-4.506 4.506-11.812 4.506-16.319 0v0c-4.506-4.507-11.813-4.507-16.319 0v0c-4.507 4.506-11.813 4.506-16.32 0v0c-4.506-4.507-11.813-4.507-16.319 0v0c-4.506 4.506-11.813 4.506-16.319 0v0c-4.507-4.507-11.813-4.507-16.32 0v0c-4.506 4.506-11.813 4.506-16.319 0v0c-4.507-4.507-11.813-4.507-16.319 0l-.435.434a12.154 12.154 0 01-16.227.864l-.594-.479" class="Vector 7.2"/>
      <path fill="#B5DBFF" d="M406.703 61.804a3.936 3.936 0 11-7.872.001 3.936 3.936 0 017.872 0z" class="Ellipse 2.6_2"/>
      <circle cx="599.836" cy="62.18" r="3.937" fill="#B5DBFF" class="Ellipse 2.7"/>
    </g>
    <g class="Group 33">
      <path fill="#185BFF" d="M179.924 77.732h1.645v11.391h-1.645z" class="Rectangle 15_2"/>
      <path fill="#185BFF" d="M186.442 82.606v1.645H175.05v-1.645z" class="Rectangle 15.1_2"/>
    </g>
    <g class="Group 33.2">
      <path fill="#185BFF" d="M742.7 263.188h1.645v11.391H742.7z" class="Rectangle 15_3"/>
      <path fill="#185BFF" d="M749.219 268.061v1.645h-11.391v-1.645z" class="Rectangle 15.1_3"/>
    </g>
    <circle cx="257.324" cy="430.653" r="20.085" stroke="#00257E" stroke-opacity=".2" stroke-width=".924" class="Ellipse 2"/>
    <path fill="#fff" fill-opacity=".06" d="M303.574 124.079h114.362v149.42a6.47 6.47 0 01-6.471 6.47h-101.42a6.47 6.47 0 01-6.471-6.47v-149.42z" class="Rectangle 13.8"/>
    <circle cx="257.324" cy="430.653" r="14.898" stroke="#00257E" stroke-opacity=".2" stroke-width=".924" class="Ellipse 2.1"/>
    <path fill="#000" fill-opacity=".23" d="M258.357 124.079v343.344c0 11.291-9.153 20.444-20.444 20.444h-67.468c-11.291 0-20.444-9.153-20.444-20.444v-322.9c0-11.291 9.153-20.444 20.444-20.444h87.912z" class="Rectangle 3.7"/>
    <path fill="#000" fill-opacity=".51" fill-rule="evenodd" d="M170.445 487.866c-11.29 0-20.444-9.153-20.444-20.444v-322.9c0-11.29 9.152-20.442 20.442-20.444h-10.167c-11.291 0-20.444 9.153-20.444 20.444v322.9c0 11.291 9.153 20.444 20.444 20.444h10.169z" class="Subtract" clip-rule="evenodd"/>
    <rect width="177.998" height="265.574" x="432.395" y="205.115" fill="#fff" fill-opacity=".06" class="Rectangle 13.6" rx="6.471"/>
    <rect width="87.213" height="153.675" x="160.573" y="316.237" fill="#fff" fill-opacity=".28" class="Rectangle 13.4" rx="6.471"/>
    <g class="p">
      <ellipse cx="203.677" cy="450.608" fill="#001956" fill-opacity=".5" class="Ellipse 6" rx="24.776" ry="1.793"/>
      <g class="Group 8">
        <g class="Group 8_2">
          <g class="Group">
            <path fill="#00257E" d="M185.252 444.636c-5.011 0-9.089-4.434-9.089-9.883v-91.122c0-5.45 4.078-9.883 9.089-9.883h37.854c5.012 0 9.09 4.433 9.09 9.883v91.122c0 5.449-4.078 9.883-9.09 9.883h-37.854z" class="Vector"/>
            <path fill="#E6E6E6" d="M223.106 442.03h-37.854c-3.626 0-6.565-3.197-6.565-7.139v-91.122c0-3.943 2.939-7.139 6.565-7.139h37.854c3.626 0 6.565 3.196 6.565 7.139v91.122c0 3.942-2.939 7.139-6.565 7.139z" class="Vector_2"/>
            <path fill="#fff" d="M223.865 442.03h-39.371c-2.534 0-4.588-2.234-4.588-4.989v-95.423c0-2.755 2.054-4.988 4.588-4.988h39.371c2.534 0 4.588 2.233 4.588 4.988v95.423c0 2.755-2.054 4.989-4.588 4.989z" class="Vector_3"/>
            <path fill="#E6E6E6" d="M209.591 438.727h-10.823c-.363 0-.657-.32-.657-.714 0-.394.294-.714.657-.714h10.823c.363 0 .657.32.657.714 0 .394-.294.714-.657.714z" class="Vector_4"/>
            <g class="Group_2">
              <path fill="#0035B7" d="M216.72 344.457h-25.082c-1.71 0-3.097-1.508-3.097-3.368v-4.459h31.276v4.459c0 1.86-1.387 3.368-3.097 3.368z" class="Vector_5"/>
              <path fill="#FFF170" d="M211.504 341.037c.421 0 .762-.371.762-.828 0-.457-.341-.828-.762-.828-.42 0-.761.371-.761.828 0 .457.341.828.761.828z" class="Vector_6"/>
              <path fill="#FFF170" d="M215.951 341.037c.42 0 .761-.371.761-.828 0-.457-.341-.828-.761-.828-.421 0-.762.371-.762.828 0 .457.341.828.762.828z" class="Vector_7"/>
            </g>
          </g>
          <rect width="27.441" height="13.923" x="198.665" y="349.121" fill="#0035B7" class="Rectangle 5" rx="6.072"/>
          <rect width="27.441" height="13.923" x="198.665" y="378.725" fill="#0035B7" class="Rectangle 5.2" rx="6.072"/>
          <rect width="27.441" height="7.624" x="182.807" y="367.072" fill="#185BFF" class="Rectangle 5.1" rx="3.812"/>
          <rect width="27.441" height="13.923" x="182.807" y="396.677" fill="#185BFF" class="Rectangle 5.3" rx="6.072"/>
          <rect width="27.441" height="7.624" x="198.665" y="416.118" fill="#0035B7" class="Rectangle 5.4" rx="3.812"/>
        </g>
      </g>
    </g>
    <rect width="87.213" height="153.675" x="160.573" y="144.55" fill="#fff" fill-opacity=".28" class="Rectangle 13.5" rx="6.471"/>
    <path fill="#00257E" d="M185.251 266.327c-5.011 0-9.089-3.924-9.089-8.746v-80.639c0-4.823 4.078-8.746 9.089-8.746h37.855c5.011 0 9.089 3.923 9.089 8.746v80.639c0 4.822-4.078 8.746-9.089 8.746h-37.855z" class="Vector_8"/>
    <path fill="#E6E6E6" d="M223.106 264.02h-37.854c-3.626 0-6.565-2.828-6.565-6.317v-80.639c0-3.489 2.939-6.317 6.565-6.317h37.854c3.626 0 6.565 2.828 6.565 6.317v80.639c0 3.489-2.939 6.317-6.565 6.317z" class="Vector_9"/>
    <path fill="#fff" d="M223.865 264.02h-39.371c-2.534 0-4.588-1.976-4.588-4.414v-84.445c0-2.438 2.054-4.414 4.588-4.414h39.371c2.534 0 4.588 1.976 4.588 4.414v84.445c0 2.438-2.054 4.414-4.588 4.414z" class="Vector_10"/>
    <path fill="#E6E6E6" d="M209.592 261.098h-10.824a.645.645 0 01-.657-.632c0-.349.294-.632.657-.632h10.824c.362 0 .656.283.656.632a.645.645 0 01-.656.632z" class="Vector_11"/>
    <g class="Group_3">
      <path fill="#F2F2F2" d="M216.72 177.673h-25.082c-1.71 0-3.097-1.334-3.097-2.98a3.946 3.946 0 013.946-3.946h23.384a3.946 3.946 0 013.946 3.946c0 1.646-1.387 2.98-3.097 2.98z" class="Vector_12"/>
      <path fill="#185BFF" d="M211.504 174.647c.421 0 .762-.328.762-.733 0-.404-.341-.732-.762-.732-.42 0-.761.328-.761.732 0 .405.341.733.761.733z" class="Vector_13"/>
      <path fill="#185BFF" d="M215.951 174.647c.42 0 .761-.328.761-.733 0-.404-.341-.732-.761-.732-.421 0-.762.328-.762.732 0 .405.341.733.762.733z" class="Vector_14"/>
    </g>
    <g class="Group_4">
      <g class="Group_5">
        <path fill="#185BFF" d="M188.176 219.839h-2.406c-1.109 0-2.008-.865-2.008-1.933v-2.314c0-1.068.899-1.933 2.008-1.933h2.406c1.109 0 2.008.865 2.008 1.933v2.314c0 1.068-.899 1.933-2.008 1.933z" class="Vector_15"/>
        <path fill="#185BFF" d="M222.588 219.839h-2.406c-1.109 0-2.008-.865-2.008-1.933v-2.315c0-1.067.899-1.932 2.008-1.932h2.406c1.109 0 2.009.865 2.009 1.932v2.315c0 1.068-.9 1.933-2.009 1.933z" class="Vector_16"/>
        <path fill="#185BFF" d="M214.147 219.839h-2.406c-1.109 0-2.009-.865-2.009-1.933v-2.315c0-1.067.9-1.932 2.009-1.932h2.406c1.109 0 2.008.865 2.008 1.932v2.315c0 1.068-.899 1.933-2.008 1.933z" class="Vector_17"/>
      </g>
      <g class="Group_6">
        <path fill="#185BFF" d="M221.82 211.716h-35.282c-1.533 0-2.776-1.196-2.776-2.672v-17.662c0-1.475 1.243-2.671 2.776-2.671h35.282c1.534 0 2.777 1.196 2.777 2.671v17.662c0 1.476-1.243 2.672-2.777 2.672z" class="Vector_18"/>
      </g>
      <g class="Group_7">
        <path fill="#185BFF" d="M221.821 246.447h-35.282a2.777 2.777 0 01-2.776-2.779v-18.371a2.777 2.777 0 012.776-2.778h35.282a2.777 2.777 0 012.777 2.778v18.371a2.778 2.778 0 01-2.777 2.779z" class="Vector_19"/>
      </g>
    </g>
    <ellipse cx="204.18" cy="272.673" fill="#001956" fill-opacity=".5" class="Ellipse 6.1" rx="26.33" ry="1.906"/>
    <path fill="#fff" d="M237.326 487.619a.462.462 0 000 .924v-.924zm21.127-363.559v343.574h.925V124.06h-.925zm-19.984 363.559h-1.143v.924h1.143v-.924zm19.984-19.985c0 11.038-8.947 19.985-19.984 19.985v.924c11.548 0 20.909-9.361 20.909-20.909h-.925z" class="Vector 16"/>
    <g class="Group 25">
      <g class="Group 24">
        <g class="Group 3">
          <g class="Group 2">
            <path fill="#0035B7" d="M313.454 271.146h10.277v1.341h-10.277z" class="Rectangle 14"/>
            <g class="Group_8">
              <path fill="#0035B7" d="M313.222 272.487v-4.615h1.341v4.615z" class="Rectangle 14.2"/>
              <path fill="#0035B7" d="M322.622 272.487v-4.615h1.341v4.615z" class="Rectangle 14.3"/>
            </g>
          </g>
          <path fill="#0035B7" d="M316.509 264.864a.654.654 0 00-.924.924l.924-.924zm2.083 3.008l-.461.461.461.462.462-.462-.462-.461zm3.007-2.084a.654.654 0 00-.923-.924l.923.924zm-6.014 0l2.546 2.545.923-.923-2.545-2.546-.924.924zm3.469 2.545l2.545-2.545-.923-.924-2.545 2.546.923.923z" class="Vector 17"/>
        </g>
      </g>
      <path stroke="#0035B7" stroke-linecap="round" stroke-width="1.306" d="M318.615 267.655v-5.194" class="Vector 17_2"/>
    </g>
    <path fill="#fff" fill-opacity=".06" d="M432.395 130.55a6.47 6.47 0 016.47-6.471h165.057a6.47 6.47 0 016.471 6.471v55.4a6.47 6.47 0 01-6.471 6.471H438.865a6.47 6.47 0 01-6.47-6.471v-55.4z" class="Rectangle 13.6_2"/>
    <g class="Group 25_2">
      <g class="Group 24_2">
        <g class="Group 3_2">
          <g class="Group 2_2">
            <path fill="#0035B7" d="M441.447 461.953h10.277v1.341h-10.277z" class="Rectangle 14_2"/>
            <g class="Group_9">
              <path fill="#0035B7" d="M441.215 463.293v-4.615h1.341v4.615z" class="Rectangle 14.2_2"/>
              <path fill="#0035B7" d="M450.615 463.293v-4.615h1.341v4.615z" class="Rectangle 14.3_2"/>
            </g>
          </g>
          <path fill="#0035B7" d="M444.502 455.671a.654.654 0 00-.924.924l.924-.924zm2.083 3.007l-.461.462.461.462.462-.462-.462-.462zm3.007-2.083a.654.654 0 00-.923-.924l.923.924zm-6.014 0l2.546 2.545.923-.923-2.545-2.546-.924.924zm3.469 2.545l2.545-2.545-.923-.924-2.545 2.546.923.923z" class="Vector 17_3"/>
        </g>
      </g>
      <path stroke="#0035B7" stroke-linecap="round" stroke-width="1.306" d="M446.608 458.462v-5.194" class="Vector 17_4"/>
    </g>
    <g class="Group 25_3">
      <g class="Group 24_3">
        <g class="Group 3_3">
          <g class="Group 2_3">
            <path fill="#0035B7" d="M441.447 183.865h10.277v1.341h-10.277z" class="Rectangle 14_3"/>
            <g class="Group_10">
              <path fill="#0035B7" d="M441.215 185.205v-4.615h1.341v4.615z" class="Rectangle 14.2_3"/>
              <path fill="#0035B7" d="M450.615 185.205v-4.615h1.341v4.615z" class="Rectangle 14.3_3"/>
            </g>
          </g>
          <path fill="#0035B7" d="M444.502 177.583a.654.654 0 00-.924.923l.924-.923zm2.083 3.007l-.461.462.461.461.462-.461-.462-.462zm3.007-2.084a.652.652 0 10-.923-.923l.923.923zm-6.014 0l2.546 2.546.923-.924-2.545-2.545-.924.923zm3.469 2.546l2.545-2.546-.923-.923-2.545 2.545.923.924z" class="Vector 17_5"/>
        </g>
      </g>
      <path stroke="#0035B7" stroke-linecap="round" stroke-width="1.306" d="M446.608 180.373v-5.194" class="Vector 17_6"/>
    </g>
    <g class="Group 25_4">
      <g class="Group 24_4">
        <g class="Group 3_4">
          <g class="Group 2_4">
            <path fill="#00257E" d="M167.004 461.177h10.277v1.341h-10.277z" class="Rectangle 14_4"/>
            <g class="Group_11">
              <path fill="#00257E" d="M166.771 462.517v-4.615h1.341v4.615z" class="Rectangle 14.2_4"/>
              <path fill="#00257E" d="M176.172 462.517v-4.615h1.341v4.615z" class="Rectangle 14.3_4"/>
            </g>
          </g>
          <path fill="#00257E" d="M170.058 454.895a.652.652 0 10-.923.924l.923-.924zm2.084 3.007l-.462.462.462.462.462-.462-.462-.462zm3.007-2.083a.654.654 0 00-.923-.924l.923.924zm-6.014 0l2.545 2.545.924-.923-2.546-2.546-.923.924zm3.469 2.545l2.545-2.545-.923-.924-2.546 2.546.924.923z" class="Vector 17_7"/>
        </g>
      </g>
      <path stroke="#00257E" stroke-linecap="round" stroke-width="1.306" d="M172.165 457.685v-5.193" class="Vector 17_8"/>
    </g>
    <g class="Group 25_5">
      <g class="Group 24_5">
        <g class="Group 3_5">
          <g class="Group 2_5">
            <path fill="#00257E" d="M167.004 289.402h10.277v1.341h-10.277z" class="Rectangle 14_5"/>
            <g class="Group_12">
              <path fill="#00257E" d="M166.771 290.742v-4.615h1.341v4.615z" class="Rectangle 14.2_5"/>
              <path fill="#00257E" d="M176.172 290.742v-4.615h1.341v4.615z" class="Rectangle 14.3_5"/>
            </g>
          </g>
          <path fill="#00257E" d="M170.058 283.121a.652.652 0 10-.923.923l.923-.923zm2.084 3.007l-.462.461.462.462.462-.462-.462-.461zm3.007-2.084a.652.652 0 10-.923-.923l.923.923zm-6.014 0l2.545 2.545.924-.923-2.546-2.545-.923.923zm3.469 2.545l2.545-2.545-.923-.923-2.546 2.545.924.923z" class="Vector 17_9"/>
        </g>
      </g>
      <path stroke="#00257E" stroke-linecap="round" stroke-width="1.306" d="M172.165 285.91v-5.193" class="Vector 17_10"/>
    </g>
    <rect width="557.616" height="48.794" x="121.192" y="112.381" fill="#fff" fill-opacity=".7" stroke="#0035B7" stroke-width=".924" class="Rectangle 12" rx="8.781"/>
    <g class="Group 29">
      <rect width="21.29" height="3.996" x="618.262" y="126.354" fill="#0035B7" class="Rectangle 14_6" rx="1.849"/>
      <rect width="21.29" height="3.996" x="618.262" y="133.061" fill="#0035B7" class="Rectangle 14.1" rx="1.849"/>
      <rect width="21.29" height="3.996" x="618.262" y="139.767" fill="#0035B7" class="Rectangle 14.2_6" rx="1.849"/>
    </g>
    <circle cx="407.215" cy="131.81" r="1.816" fill="#0035B7" fill-opacity=".3" class="Ellipse 3"/>
    <circle cx="399.962" cy="131.81" r="1.816" fill="#0035B7" fill-opacity=".3" class="Ellipse 3.1"/>
    <circle cx="392.71" cy="131.811" r="1.816" fill="#0035B7" fill-opacity=".3" class="Ellipse 3.2"/>
    <circle cx="281.486" cy="216.343" r="1.816" fill="#0035B7" fill-opacity=".3" class="Ellipse 3_2" transform="rotate(90 281.486 216.343)"/>
    <circle cx="281.486" cy="209.091" r="1.816" fill="#0035B7" fill-opacity=".3" class="Ellipse 3.1_2" transform="rotate(90 281.486 209.091)"/>
    <circle cx="281.486" cy="201.838" r="1.816" fill="#0035B7" fill-opacity=".3" class="Ellipse 3.2_2" transform="rotate(90 281.486 201.838)"/>
    <rect width="114.361" height="172.47" x="301.98" y="297.442" fill="#fff" fill-opacity=".06" class="Rectangle 13.3" rx="6.471"/>
    <ellipse cx="359.236" cy="451.201" fill="#0035B7" fill-opacity=".5" class="Ellipse 6.2" rx="31.561" ry="2.013"/>
    <rect width="5.555" height="15.78" x="386.233" y="344.691" fill="#fff" class="Rectangle 9.3" rx="1.54"/>
    <rect width="5.555" height="15.78" x="326.685" y="364.167" fill="#fff" class="Rectangle 9.16" rx="1.54"/>
    <rect width="5.555" height="15.78" x="326.685" y="344.691" fill="#fff" class="Rectangle 9.17" rx="1.54"/>
    <g class="Group 25_6">
      <g class="Group 24_6">
        <g class="Group 3_6">
          <g class="Group 2_6">
            <path fill="#0035B7" d="M313.454 461.177h10.277v1.341h-10.277z" class="Rectangle 14_7"/>
            <g class="Group_13">
              <path fill="#0035B7" d="M313.222 462.517v-4.615h1.341v4.615z" class="Rectangle 14.2_7"/>
              <path fill="#0035B7" d="M322.622 462.517v-4.615h1.341v4.615z" class="Rectangle 14.3_6"/>
            </g>
          </g>
          <path fill="#0035B7" d="M316.509 454.895a.654.654 0 00-.924.923l.924-.923zm2.083 3.007l-.461.462.461.461.462-.461-.462-.462zm3.007-2.084a.652.652 0 10-.923-.923l.923.923zm-6.014 0l2.546 2.546.923-.924-2.545-2.545-.924.923zm3.469 2.546l2.545-2.546-.923-.923-2.545 2.545.923.924z" class="Vector 17_11"/>
        </g>
      </g>
      <path stroke="#0035B7" stroke-linecap="round" stroke-width="1.306" d="M318.615 457.685v-5.193" class="Vector 17_12"/>
    </g>
    <g class="Group 30.1">
      <circle cx="407.214" cy="308.009" r="1.816" fill="#0035B7" fill-opacity=".3" class="Ellipse 3_3"/>
      <circle cx="399.961" cy="308.009" r="1.816" fill="#0035B7" fill-opacity=".3" class="Ellipse 3.1_3"/>
      <circle cx="392.709" cy="308.009" r="1.816" fill="#0035B7" fill-opacity=".3" class="Ellipse 3.2_3"/>
    </g>
    <circle cx="599.202" cy="214.527" r="1.816" fill="#0035B7" fill-opacity=".3" class="Ellipse 3_4"/>
    <circle cx="591.949" cy="214.527" r="1.816" fill="#0035B7" fill-opacity=".3" class="Ellipse 3.1_4"/>
    <circle cx="584.697" cy="214.528" r="1.816" fill="#0035B7" fill-opacity=".3" class="Ellipse 3.2_4"/>
    <path fill="#0035B7" fill-opacity=".5" d="M578.935 440.042c0 .933-25.762 1.689-57.541 1.689-31.779 0-57.541-.756-57.541-1.689 0-.932 25.762-1.688 57.541-1.688 31.779 0 57.541.756 57.541 1.688z" class="Ellipse 6.3"/>
    <rect width="6.58" height="18.692" x="475.413" y="247.454" fill="#FBFAFF" class="Rectangle 9.2" rx="2.144" transform="rotate(-90 475.413 247.454)"/>
    <rect width="185.68" height="130.424" x="586.127" y="242.076" fill="#0035B7" class="Rectangle 3.1" rx="17.154" transform="rotate(90 586.127 242.076)"/>
    <rect width="176.449" height="115.395" x="578.612" y="246.692" fill="#fff" class="Rectangle 3.4" rx="16.288" transform="rotate(90 578.612 246.692)"/>
    <rect width="179.601" height="120.398" x="581.113" y="245.116" stroke="#8A8A8A" stroke-width=".636" class="Rectangle 3.6" opacity=".4" rx="15.969" transform="rotate(90 581.113 245.116)"/>
    <g class="Rectangle 11.5">
      <path fill="#185BFF" d="M516.543 284.809a3.102 3.102 0 013.102-3.103h45.768a3.102 3.102 0 013.102 3.103v52.96a3.102 3.102 0 01-3.102 3.103h-45.768a3.102 3.102 0 01-3.102-3.103v-52.96zM475.189 353.068a3.103 3.103 0 013.103-3.103h87.121a3.102 3.102 0 013.102 3.103v52.961a3.102 3.102 0 01-3.102 3.102h-87.121a3.102 3.102 0 01-3.103-3.102v-52.961z"/>
    </g>
    <rect width="94.243" height="9.871" x="474.272" y="256.579" fill="#185BFF" class="Rectangle 11.4" rx="3.102"/>
    <path fill="#fff" fill-opacity=".4" d="M482.902 358.708h77.903v3.525h-77.903z" class="Rectangle 14_8"/>
    <path fill="#fff" fill-opacity=".4" d="M482.902 370.664h36.797v3.525h-36.797z" class="Rectangle 14.1_2"/>
    <path fill="#fff" fill-opacity=".4" d="M482.902 377.557h36.797v3.525h-36.797z" class="Rectangle 14.2_8"/>
    <path fill="#fff" fill-opacity=".4" d="M482.902 384.45h36.797v3.525h-36.797z" class="Rectangle 14.3_7"/>
    <path fill="#fff" fill-opacity=".4" d="M482.902 391.343h36.797v3.525h-36.797z" class="Rectangle 14.4"/>
    <path fill="#fff" fill-opacity=".4" d="M524.008 291.578h36.797v3.525h-36.797z" class="Rectangle 14.6"/>
    <path fill="#fff" fill-opacity=".4" d="M524.008 303.533h36.797v3.525h-36.797z" class="Rectangle 14.7"/>
    <path fill="#fff" fill-opacity=".4" d="M524.008 310.426h36.797v3.525h-36.797z" class="Rectangle 14.8"/>
    <path fill="#fff" fill-opacity=".4" d="M524.008 317.319h36.797v3.525h-36.797z" class="Rectangle 14.9"/>
    <path fill="#fff" fill-opacity=".4" d="M524.008 324.212h36.797v3.525h-36.797z" class="Rectangle 14.10"/>
    <path fill="#fff" fill-opacity=".4" d="M524.008 370.664h36.797v24.204h-36.797z" class="Rectangle 14.5"/>
    <path fill="#0035B7" d="M322.377 174.69a3.14 3.14 0 013.14-3.139h70.476a3.139 3.139 0 013.139 3.139v51.952h-76.755V174.69z" class="Rectangle 14_9"/>
    <path fill="#2061FF" d="M324.858 224.352h71.791v2.29h-71.791v-2.29z" class="Rectangle 14.6_2"/>
    <g class="Rectangle 12_2">
      <path fill="#0035B7" d="M356.351 224.351l-6.294-14.868-3.205-7.571-4.681 13.216-17.208-35.38v44.603h31.388z"/>
      <path fill="#0035B7" fill-rule="evenodd" d="M396.687 203.151l-10.325-14.317-13.578 13.605 3.116 7.458-7.09 14.454h27.877v-21.2z" clip-rule="evenodd"/>
      <path fill="#0035B7" d="M367.502 189.797l-5.358 16.604-5.793 17.95h12.459l3.974-21.912-5.282-12.642z"/>
      <path fill="#0035B7" d="M368.81 224.351l7.09-14.454-3.116-7.458-3.974 21.912zM356.351 224.351l5.793-17.95-1.525-3.25-4.268 8.811-4.13-5.92-2.164 3.441 6.294 14.868z"/>
    </g>
    <path fill="#000" fill-opacity=".17" d="M324.858 175.864h71.791v3.58h-71.791v-3.58z" class="Rectangle 14.4_2"/>
    <rect width="63.438" height="5.668" x="329.035" y="217.182" fill="#7099FF" fill-opacity=".9" class="Rectangle 14.5_2" rx="2.093"/>
    <path fill="#0035B7" d="M312.751 228.661c-1.071-.427-.765-2.019.388-2.019h95.014c1.161 0 1.459 1.61.374 2.024l-9.838 3.762a1.037 1.037 0 01-.374.069h-75.743c-.132 0-.264-.025-.387-.074l-9.434-3.762z" class="Rectangle 10"/>
    <circle cx="335.933" cy="220.016" r="1.618" fill="#0035B7" fill-opacity=".2" class="Ellipse 6_2"/>
    <circle cx="341.448" cy="220.016" r="1.618" fill="#0035B7" fill-opacity=".2" class="Ellipse 6.1_2"/>
    <circle cx="346.964" cy="220.016" r="1.618" fill="#0035B7" fill-opacity=".2" class="Ellipse 6.2_2"/>
    <circle cx="352.48" cy="220.016" r="1.618" fill="#0035B7" fill-opacity=".2" class="Ellipse 6.3_2"/>
    <circle cx="357.996" cy="220.016" r="1.618" fill="#0035B7" fill-opacity=".2" class="Ellipse 6.4"/>
    <circle cx="363.512" cy="220.016" r="1.618" fill="#0035B7" fill-opacity=".2" class="Ellipse 6.5"/>
    <circle cx="369.028" cy="220.016" r="1.618" fill="#0035B7" fill-opacity=".2" class="Ellipse 6.6"/>
    <circle cx="374.543" cy="220.016" r="1.618" fill="#0035B7" fill-opacity=".2" class="Ellipse 6.7"/>
    <circle cx="380.06" cy="220.016" r="1.618" fill="#0035B7" fill-opacity=".2" class="Ellipse 6.8"/>
    <circle cx="385.575" cy="220.016" r="1.618" fill="#0035B7" fill-opacity=".2" class="Ellipse 6.9"/>
    <path fill="#5AE8AD" fill-rule="evenodd" d="M116.444 79.986a4.689 4.689 0 10-1.038.413c1.213.787 2.635 1.97 4.136 3.572 2.449 2.613 5.077 6.302 7.308 11.083 4.46 9.556 7.338 23.475 4.039 41.874-2.989 16.67-13.186 28.694-24.684 39.797a128.976 128.976 0 00-17.18-10.698c3.14 3.464 5.3 10.541 6.968 20.239l-1.349 1.251c-7.983 7.429-15.66 14.996-21.058 23.877-4.079-6.285-7.51-13.331-9.8-21.512a4.689 4.689 0 10-.8.566c2.364 8.304 5.895 15.456 10.074 21.826-4.784 8.178-7.62 17.481-7.012 28.797 1.102 20.514 11.183 33.997 22.9 46.65 2.169 2.342 4.392 4.655 6.625 6.977v.001h.001v.001c4.784 4.976 9.613 9.999 14.05 15.46 2.578 15.016 5.898 29.863 10.325 43.804a34.708 34.708 0 01-1.567 1.838c-10.371-8.781-21.827-13.641-25.295-12.117 0 0 5.211 10.563 10.287 24.74-11.372 8.686-23.952 18.937-28.267 36.861-2 8.306.393 16.498 5.532 24.257 5.136 7.755 13.039 15.115 22.142 21.797.667.489 1.34.975 2.019 1.457 8.002 20.571 15.47 36.394 36.78 36.394 20.188 0 43.061-.698 59.524-1.325h-40.828c-11.291 0-20.444-9.153-20.444-20.444V213.544c-8.738-13.916-19.435-26.173-32.874-36.258 11.5-11.118 21.813-23.308 24.841-40.195 3.331-18.578.433-32.692-4.111-42.428-2.271-4.866-4.953-8.637-7.472-11.325-1.321-1.408-2.606-2.528-3.772-3.352zm521.588 407.685h-.812c9.948-1.382 17.606-9.921 17.606-20.249v-64.607l5.402-1.962a221.764 221.764 0 00-.065-3.116c-1.242.897-2.507 1.808-3.795 2.735l-.042.031-.008.005-1.492 1.075V289.111c7.932-13.001 17.445-21.766 32.557-35.688l.002-.001c5.556-5.119 11.869-10.936 19.139-17.916 6.037 55.374-22.821 94.447-22.821 94.447s22.546-12.335 45.531-27.543c-18.126 56.619-35.208 70.855-68.165 94.673.035 1.156.061 2.301.079 3.436l59.518-21.619a6175.592 6175.592 0 00-10.141 23.1l-.001.003c-29.389 67.211-32.841 75.105-72.492 85.668zm30.569-246.604c-3.724 14.361-8.507 28.567-13.775 42.993V144.522l-.001-.139v-.1l-.002-.083a304.486 304.486 0 0112.171-22.204c13.542 44.285 11.164 81.5 1.972 117.651 16.297-12.071 29.497-36.273 37.156-59.996 3.855-11.941 6.296-23.731 7.023-33.746.643-8.858-.06-16.256-2.249-21.151-3.974 1.1-11.077 1.067-10.644-7.257.448-8.619.186-12.172 0-12.872 5.41 2.472 16.006 8.507 15.111 12.872-.744 3.627-2.292 5.091-3.246 5.993-.214.203-.398.377-.537.541 2.418 5.122 3.147 12.858 2.487 21.941-.733 10.104-3.193 21.967-7.065 33.963-7.738 23.969-21.159 48.583-37.863 60.731l-.32.236-.218.165zM95.274 188.194l.903-.838c1.958 11.865 3.234 27.45 4.675 45.042.276 3.378.559 6.831.854 10.345-1.647-1.651-3.334-3.305-5.04-4.978l-.006-.007-.003-.003-.002-.001v-.001c-7.766-7.614-15.927-15.616-22.507-25.503 5.33-8.911 13.025-16.518 21.126-24.056zm-28.303 52.828c-.587-10.919 2.086-19.93 6.66-27.889 6.616 9.839 14.754 17.815 22.434 25.342l.001.001.003.002c1.96 1.921 3.89 3.813 5.757 5.699 1.704 20.171 3.827 42.308 7.487 64.151-4.192-5.036-8.683-9.706-13.11-14.31-2.224-2.313-4.431-4.608-6.577-6.925-11.673-12.606-21.57-25.886-22.655-46.071zm52.113 115.382c.416-.457.817-.919 1.202-1.387.383 1.188.774 2.369 1.174 3.542a72.2 72.2 0 00-2.376-2.155zm-43.078 49.099c4.207-17.476 16.395-27.518 27.694-36.162 2.835 8.012 5.591 17.109 7.334 26.073 1.87 9.616 5.1 17.412 8.147 23.144-7.639-5.63-20.63-11.299-37.791-13.349 10.512 14.073 16.446 29.499 21.734 43.246l.004.011c.357.927.71 1.846 1.062 2.757-.289-.209-.576-.419-.862-.629-9.06-6.649-16.866-13.934-21.918-21.561-5.05-7.624-7.325-15.553-5.404-23.53zm611.351-218.99c.442 8.619 11.624 9.607 11.624 9.607s2.855-5.62 3.407-11.163c.441-4.434-10.72-9.346-16.356-11.247.257.676.883 4.184 1.325 12.803zm-13.901 307.714l-1.308-1.307.007-.006-1.275-1.275-.013-.013a4.782 4.782 0 016.775-6.749l1.275 1.275 1.274-1.275a4.782 4.782 0 016.762 6.762l-1.275 1.275.007.006-.003.003-5.452 5.451-1.307 1.308-.006-.007-.007.007-1.307-1.308-4.147-4.147zm5.461 8.063l-.007.006-1.307-1.307-6.762-6.762-1.307-1.307.006-.007a6.63 6.63 0 019.377-9.376 6.63 6.63 0 019.343.033 6.63 6.63 0 01.033 9.344l.006.006-1.307 1.307-6.762 6.762-1.307 1.307-.006-.006zm-82.155-318.954l-.003.003-2.786-2.786.003-.002-.525-.526a1.969 1.969 0 112.786-2.785l.525.525.525-.525a1.969 1.969 0 112.786 2.785l-.526.526.003.002-2.786 2.786-.002-.003zm-4.096-2.783l.006-.006a2.895 2.895 0 014.09-4.082 2.894 2.894 0 014.089 4.082l.006.006-4.093 4.093-.002-.002-.003.002-4.093-4.093zm-190.204 90.065l-.003.002-2.786-2.786.003-.002-.525-.525a1.969 1.969 0 112.786-2.786l.525.525.525-.525a1.97 1.97 0 012.786 2.786l-.525.525.002.002-2.786 2.786-.002-.002zm-4.096-2.784l.007-.006a2.895 2.895 0 014.089-4.082 2.895 2.895 0 014.089 4.082l.006.006-4.093 4.094-.002-.003-.003.003-4.093-4.094zm-20.082 46.307c6.806 0 12.324 5.517 12.324 12.323v105.71c0 6.806-5.518 12.324-12.324 12.324h-37.92c-6.806 0-12.323-5.518-12.323-12.324v-105.71c0-6.806 5.517-12.323 12.323-12.323h37.92zm20.089 143.718l-.007.007 4.093 4.093.003-.003.002.003 4.093-4.093-.006-.007a2.895 2.895 0 00-4.089-4.082 2.894 2.894 0 00-4.089 4.082zm198.386 3.568l.003-.003.002.003 2.786-2.786-.002-.003.525-.525a1.97 1.97 0 00-2.786-2.785l-.525.525-.525-.525a1.969 1.969 0 10-2.786 2.785l.525.525-.003.003 2.786 2.786zm-4.086-2.793l-.007.007 4.093 4.093.003-.002.002.002 4.093-4.093-.006-.007a2.894 2.894 0 00-4.089-4.081 2.895 2.895 0 00-4.089 4.081zm-115.25-176.927a3.102 3.102 0 00-3.103 3.102v3.667a3.102 3.102 0 003.103 3.102h29.75a3.102 3.102 0 003.102-3.102v-3.667a3.102 3.102 0 00-3.102-3.102h-29.75zm0 16.43a3.102 3.102 0 00-3.103 3.102v3.666a3.103 3.103 0 003.103 3.103h29.75a3.102 3.102 0 003.102-3.103v-3.666a3.102 3.102 0 00-3.102-3.102h-29.75zm-3.103 19.534a3.103 3.103 0 013.103-3.103h29.75a3.102 3.102 0 013.102 3.103v3.666a3.102 3.102 0 01-3.102 3.102h-29.75a3.102 3.102 0 01-3.103-3.102v-3.666zM477.423 331a3.102 3.102 0 00-3.103 3.102v3.667a3.102 3.102 0 003.103 3.102h29.75a3.102 3.102 0 003.102-3.102v-3.667a3.102 3.102 0 00-3.102-3.102h-29.75zM368.809 226.643h-16.11v1.592h16.11v-1.592zm27.84-50.78h-71.791v48.488h.105v-44.603l17.208 35.38 4.681-13.216 3.205 7.571 2.164-3.441 4.13 5.92 4.268-8.811 1.525 3.25 5.358-16.603 5.281 12.641 13.579-13.605 10.287 14.265v-27.236zm-210.368 8.963h35.797c1.391 0 2.519-1.085 2.519-2.424v-.361c0-1.339-1.128-2.424-2.519-2.424h-35.797c-1.392 0-2.519 1.085-2.519 2.424v.361c0 1.339 1.127 2.424 2.519 2.424zm2.085 64.942h.243a3.09 3.09 0 110 6.18h-.243a3.09 3.09 0 010-6.18zm10.704 0h-.243a3.09 3.09 0 100 6.18h.243a3.09 3.09 0 000-6.18zm10.219 0h.243a3.09 3.09 0 010 6.18h-.243a3.09 3.09 0 010-6.18zm10.703 0h-.243a3.09 3.09 0 000 6.18h.243a3.09 3.09 0 000-6.18zm16.784 39.106l-.002.002-2.786-2.786.003-.002-.526-.525a1.97 1.97 0 012.786-2.786l.525.525.525-.525a1.969 1.969 0 112.786 2.786l-.525.525.003.002-2.786 2.786-.003-.002zm-4.095-2.784l.006-.006a2.895 2.895 0 014.089-4.082 2.895 2.895 0 014.09 4.082l.006.006-4.093 4.093-.003-.002-.002.002-4.093-4.093zm4.093 174.562l.002-.003.003.003 2.786-2.786-.003-.003.525-.525a1.97 1.97 0 00-2.786-2.786l-.525.525-.525-.525a1.97 1.97 0 00-2.786 2.786l.525.525-.002.003 2.786 2.786zm-4.087-2.793l-.006.007 4.093 4.093.002-.003.003.003 4.093-4.093-.007-.007a2.895 2.895 0 00-4.089-4.082 2.895 2.895 0 00-4.089 4.082zm354.398-166.137c0 .745-.381 1.402-.958 1.786v-17.977c.577.384.958 1.041.958 1.787v14.404zm0 22.082c0 .745-.381 1.402-.958 1.786v-17.977c.577.384.958 1.041.958 1.787v14.404z" class="Secondary" clip-rule="evenodd"/>
    <circle cx="339.457" cy="186.531" r="5.889" fill="#0035B7" class="Ellipse 3_5"/>
    <path fill="#000" fill-opacity=".29" fill-rule="evenodd" d="M387.893 430.263V328.374c0-6.522-5.287-11.81-11.81-11.81h-6.18v2.67a2.054 2.054 0 01-2.054 2.054h-17.051a2.054 2.054 0 01-2.053-2.054v-2.67h-6.179c-6.523 0-11.81 5.288-11.81 11.81v101.889c0 6.523 5.287 11.81 11.81 11.81h33.517c6.523 0 11.81-5.287 11.81-11.81zm-39.148-114.212h-6.179c-6.806 0-12.324 5.517-12.324 12.323v101.889c0 6.806 5.518 12.324 12.324 12.324h33.517c6.806 0 12.324-5.518 12.324-12.324V328.374c0-6.806-5.518-12.323-12.324-12.323h-27.338zm15.168 114.797a4.589 4.589 0 11-9.178 0 4.589 4.589 0 019.178 0z" class="Union_2" clip-rule="evenodd"/>
    <g class="element">
      <circle cx="656.171" cy="317.319" r="36.249" stroke="#E9E9E9" stroke-width=".924" class="Ellipse 2_2"/>
      <circle cx="656.171" cy="317.319" r="27.444" fill="#fff" fill-opacity=".6" class="Ellipse 2.1_2"/>
    </g>
  </g>
</svg>
