<svg xmlns="http://www.w3.org/2000/svg" width="1152" height="700" fill="none" viewBox="0 0 1152 700">
  <g class="congrats">
    <path fill="#fff" d="M0 0h1152v700H0z"/>
    <g class="Group 2">
      <path fill="#000" d="M664.674 579.189c-3.485-4.557-30.829-15.548-30.829-15.548h-15.281l-1.34 21.446h47.45s1.462-3.985 0-5.898z" class="Vector 2.1"/>
      <path fill="#000" d="M531.016 580.798c3.485-4.558 30.447-16.889 30.447-16.889h16.085l3.331 21.446-49.863 1.608s-1.462-4.253 0-6.165z" class="Vector 2"/>
      <path fill="#FF78A1" d="M560.927 564.445l-9.651-169.694h82.837v169.694h-15.817l-23.859-136.452-16.889 136.452h-16.621z" class="Vector 2_2"/>
      <path fill="#FFCDC6" d="M498.458 201.364c6.529.062-12.6 14.469-12.6 14.469l-13.094 3.265s-12.333-31.737-6.81-27.312c3.084 2.47 7.278 7.026 7.278 7.026s-2.563-11.559-1.587-13.183c3.244-5.4 5.749 12.146 5.749 12.146s.953-17.419 2.293-18.312c3.217-2.145 3.217 17.157 3.217 17.157s2.954-9.115 4.187-13.143c1.72-5.623 3.237 21.848 3.237 21.848s4.598-3.995 8.13-3.961z" class="Vector 5"/>
      <path fill="#FFCDC6" d="M669.094 181.651c-6.32 1.639 16.798 10.88 16.798 10.88h12.423s4.289-33.667 0-28.037c-2.394 3.142-5.362 8.578-5.362 8.578s1.341-14.208 0-15.548c-4.454-4.454-4.289 15.548-4.289 15.548S684.353 155 683.549 155c-4.022 0 0 18.072 0 18.072s-4.064-8.069-7.753-11.527c-4.289-4.021 2.145 21.982 2.145 21.982s-5.428-2.763-8.847-1.876z" class="Vector 5.1"/>
      <path fill="#5A57FF" d="M533 269c6.502 5.779 26.29 3.065 41 0 24-5 39.872 8.649 64.5-5.072C663.5 250 683 193 683 193h17s-1.451 50.018-17 70.928c-25.322 34.055-48.619 55.572-48.619 55.572v75.519c-34.381 7.481-48.604 11.997-84.177 0V311C541 305.056 526 305 509.5 286c-15.644-18.014-38.5-68-38.5-68l17-6.5c5.361 26.272 35.349 48.921 45 57.5z" class="Vector"/>
      <path fill="#131D42" d="M563.374 248.698c1.911 2.241 6.408 0 6.408 0s-1.869 5.072-1.114 9.064c.755 3.991 27.027-2.198 27.027-2.198s5.492 2.093 7.523 0c2.202-2.269-3.597-5.997-1.114-7.965 2.147-1.701 4.446 2.197 6.965 1.099 4.092-1.782-2.076-7.914.836-11.261 1.063-1.221 2.598-1.041 3.344-2.472 1.586-3.042-5.851-6.592-5.851-6.592s3.575-4.384 2.507-7.141c-1.552-4.008-8.284 3.233-11.145 0-2.894-3.269 8.638-10.986 1.672-10.986-4.364 0-6.453 2.176-10.588 3.57l-3.622-6.866c-1.415-2.682-3.01 9.295-8.081 10.437-3.245.731-6.119-4.076-8.359-1.648-1.756 1.905 1.7 4.637 0 6.592-1.983 2.28-5.518-1.988-7.801 0-2.884 2.51 1.92 5.856 1.393 9.613-.449 3.196-4.935 5.042-3.065 7.69 1.317 1.866 5.572 1.923 5.572 1.923s-4.433 4.882-2.507 7.141z" class="Vector 5_2"/>
      <path fill="#FFBEBE" d="M597.922 270.362c-6.977 2.739-11.265 2.957-19.838 0v-16.353h17.694l2.144 16.353z" class="Vector 3"/>
      <path fill="#FFD2D2" d="M577.012 257.546c-8.109-5.956-5.362-25.199-5.362-25.199 9.437-20.803 23.145-11.043 29.221-3.269 0 0 5.546 22.946-2.949 29.757-4.319 3.463-3.856 4.359-9.382 4.021-4.528-.277-7.873-2.624-11.528-5.31z" class="Vector 4"/>
      <path fill="#131D42" d="M591.22 225.861c-1.197-2.209-5.54 1.584-7.238-.268l-2.949-2.949s-1.228 2.025-2.413 1.877c-1.028-.129-1.61-.875-1.876-1.877-.508-1.909 4.289-2.681 4.289-2.681 8.579-5.093 20.374 3.754 21.714 9.383 0 0-.691-.804-2.68-.804-2.513 0-7.65 3.014-8.847.804-.648-1.196.648-2.288 0-3.485z" class="Vector 6"/>
      <g class="Group">
        <path fill="#F88" d="M540.285 136.859l6.97-9.383 3.217 2.413-5.898 10.991-4.289-4.021z" class="Vector 6_2"/>
        <path fill="#60FFD9" d="M602.748 134.982l-6.97-9.382-3.217 2.412 5.897 10.992 4.29-4.022z" class="Vector 6.1"/>
        <path fill="#60FFD9" d="M525.005 172.514l-6.97-9.383-3.217 2.413 5.898 10.991 4.289-4.021z" class="Vector 6.2"/>
        <path fill="#F88" d="M592.561 167.349l-3.302-4.444-1.524 1.143 2.794 5.206 2.032-1.905z" class="Vector 6.3"/>
      </g>
      <g class="Group_2">
        <path fill="#A9A7FC" d="M610.254 163.776l4.462-6.007 2.06 1.545-3.776 7.037-2.746-2.575z" class="Vector 6_3"/>
        <path fill="#A9A7FC" d="M628.572 187.903l-4.463-6.007-2.059 1.545 3.776 7.037 2.746-2.575z" class="Vector 6.1_2"/>
        <path fill="#FFF742" d="M645.192 155.198l-4.462-6.008-2.06 1.545 3.776 7.037 2.746-2.574z" class="Vector 6.2_2"/>
        <path fill="#FFF742" d="M658.917 172.946l-2.114-2.845-.975.731 1.788 3.334 1.301-1.22z" class="Vector 6.3_2"/>
      </g>
      <g class="Group_3">
        <path fill="#ED7DFF" d="M503.243 203.045l4.463-6.007 2.059 1.544-3.776 7.037-2.746-2.574z" class="Vector 6_4"/>
        <path fill="#4987CF" d="M543.234 201.844l-4.462-6.008-2.06 1.545 3.776 7.037 2.746-2.574z" class="Vector 6.1_3"/>
        <path fill="#4987CF" d="M493.459 225.872l-4.462-6.007-2.06 1.545 3.776 7.037 2.746-2.575z" class="Vector 6.2_3"/>
        <path fill="#ED7DFF" d="M536.712 222.567l-2.114-2.846-.976.732 1.789 3.333 1.301-1.219z" class="Vector 6.3_3"/>
      </g>
      <g class="Group_4">
        <path fill="#FFDD2B" d="M483.405 125.302l4.463-6.007 2.059 1.545-3.776 7.037-2.746-2.575z" class="Vector 6_5"/>
        <path fill="#86A1FF" d="M523.396 124.101l-4.463-6.008-2.059 1.545 3.776 7.037 2.746-2.574z" class="Vector 6.1_4"/>
        <path fill="#86A1FF" d="M473.622 148.129l-4.463-6.007-2.06 1.545 3.776 7.037 2.747-2.575z" class="Vector 6.2_4"/>
        <path fill="#86A1FF" d="M516.874 144.824l-2.114-2.846-.975.732 1.788 3.333 1.301-1.219z" class="Vector 6.3_4"/>
      </g>
      <path fill="#000" fill-rule="evenodd" d="M586.127 241.409c0 2.692-2.066 4.826-4.558 4.826-2.491 0-4.557-2.134-4.557-4.826 0-2.691 2.066-4.825 4.557-4.825 2.492 0 4.558 2.134 4.558 4.825zm.505.593c-.28 2.682-2.44 4.769-5.063 4.769-2.813 0-5.093-2.4-5.093-5.362 0-.093.002-.187.007-.279l-.142.243-6.434-3.753.27-.463 6.326 3.69c.267-2.697 2.434-4.799 5.066-4.799 2.813 0 5.094 2.4 5.094 5.361l-.001.056h2.682v-.056c0-2.961 2.28-5.361 5.093-5.361 2.368 0 4.358 1.7 4.929 4.005l3.173-3.906.417.338-3.464 4.263c.025.217.039.437.039.661 0 2.962-2.281 5.362-5.094 5.362-2.623 0-4.783-2.087-5.063-4.769h-2.742zm7.805 4.233c2.491 0 4.557-2.134 4.557-4.826 0-2.691-2.066-4.825-4.557-4.825-2.491 0-4.557 2.134-4.557 4.825 0 2.692 2.066 4.826 4.557 4.826z" class="Union" clip-rule="evenodd"/>
    </g>
  </g>
</svg>
