<svg xmlns="http://www.w3.org/2000/svg" width="1152" height="700" fill="none" viewBox="0 0 1152 700">
  <g class="congratulations1">
    <path fill="#fff" d="M0 0h1152v700H0z"/>
    <g class="trophy">
      <path fill="#8C7D5C" d="M543.718 367.523c-11.749-7.818-4.896-16.94 0-20.523h96.926c7.832 8.6 3.263 17.265 0 20.523h-96.926z" class="Vector 8.5"/>
      <g class="color 1">
        <path fill="#FFCB56" d="M543.718 367.523c-11.749-7.818-4.896-16.94 0-20.523h96.926c7.832 8.6 3.263 17.265 0 20.523.147 4.735.144 9.294.005 13.682-.904 28.667-7.601 50.033-16.291 65.477-2.696 4.791-5.583 9.012-8.549 12.704-6.078 7.568-12.485 12.915-18.244 16.395-3.191 1.929-4.839 1.331-7.466 2.174-1.819-.549-4.915.752-6.599 0-8.035-3.589-14.563-9.413-19.835-16.646-2.164-2.968-4.116-6.173-5.874-9.559-11.315-21.784-14.599-51.025-14.496-72.5.02-4.253.173-8.202.423-11.727z"/>
        <path fill="#FFCB56" d="M582.5 477.955c1.684.752 4.78-.549 6.599 0 2.627-.843 4.275-.245 7.466-2.174-3.065 32.719 4.241 41.086 8.531 41.264H611.251v5.864h15.665c3.916 0 4.895 4.561 4.895 6.841V562h-83.219v-32.25c0-4.691 3.263-6.515 4.895-6.841h14.686v-5.864h5.874c9.399-3.127 9.551-27.363 8.453-39.09z"/>
      </g>
      <path fill="#FADB96" fill-rule="evenodd" d="M543.718 367.523a178.93 178.93 0 00-.423 11.727c-8.875-3.257-27.407-7.427-30.54 1.955-14.882 43.782 23.823 65.273 45.036 70.546 1.758 3.385 3.711 6.59 5.874 9.559-69.146-7.85-69.512-65.446-60.701-86.946 7.049-17.2 30.107-11.727 40.754-6.841zm96.926 0c7.302-4.561 24.256-10.945 33.654 0 11.749 13.682 28.902 82.091-58.488 91.864 2.965-3.693 5.853-7.914 8.549-12.705 60.693-9.773 53.856-62.545 43.086-69.386-8.616-5.473-21.453.326-26.795 3.909.138-4.388.141-8.947-.006-13.682z" class="Vector 8.6" clip-rule="evenodd"/>
    </g>
    <path fill="#1C76A9" d="M574.015 224.411c2.748-.214 8.834-1.922 11.19-7.046 2.356-5.124 7.461-8.754 9.718-9.928l2.356-53.164c3.043-.961 9.365-2.306 10.308 0 1.177 2.883 5.681 47.622.969 55.949 1.276.64 2.891 7.373 3.534 9.623.883 3.092 1.709 13.677 7.502 23.225 7.602 12.528 12.074 22.418 11.78 29.784-3.338 1.281-9.414 3.824-10.828 7.923-3.534 2.306-12.841 2.883-17.054 2.883.34 1.77.628 3.395.857 4.804-16.197 4.163-30.332.96-28.565 0 1.766-.961-1.767-19.771-5.301-29.785-2.117-5.998-7.363-12.49-7.657-16.654H550.75c-7.068 0-34.75-20.176-34.75-24.66 0-3.587 4.319-5.765 6.479-6.405 8.049 6.298 25.562 18.959 31.216 19.215 5.654.257 11.387-3.736 13.546-5.764h6.774z" class="Secondary"/>
    <path fill="#780165" fill-rule="evenodd" d="M492.5 138c1.5 3.667 4.9 11.2 6.5 12l-21 9c.5 8.5.6 26.1-3 28.5-3.333-.833-10.5-2.4-12.5-2 1.5-7.333 5.3-23.2 8.5-28 4-6 13.5-17 21.5-19.5zM714 187.5l6.5-11.5h12l-5 11.5H714zm-270.5 41l4.5 12 9.5 2.5-4-18.5-10 4zm136.131 60.868c11.998-2.463 37.472-8.419 43.385-12.533 2.475 7.844 4.745 13.332 6.608 17.835v.001c1.928 4.66 3.419 8.265 4.247 12.332 1.629 7.997 2.211 20.766 2.129 21.141 0 9.356-3.916 13.249-10.413 14.177-1.813.259-4.832.887-8.373 1.623-9.636 2.003-23.131 4.809-26.656 3.163-4.113-1.075-2.357-7.09-.964-9.962-7.07 7.713-39.207 4.178-41.135.643-1.543-2.828.642-10.177 1.928-13.498 6.749.429 20.953 1.028 23.781 0 2.828-1.028 4.821-22.71 5.463-34.922zm33.998 33.701v-.001l-.001-.002-.002-.007A1998.986 1998.986 0 00606.5 305.5c-1.047 4.559-5.475 12.331-9.424 19.261-1.483 2.605-2.9 5.09-4.043 7.242 8.467-2.003 21.603-6.423 20.913-8.144l-.317-.79zM418 276l4.5 10.5 14.5-7-3.5-10L418 276zm324.5-25.675c-6-.4-8.833-10.166-9.5-15 3.5-1 10.5-2.4 10.5 0s2 8 3 10.5c4.167-2.667 13.1-8.1 15.5-8.5 3-.5 15.5-2 21.5 3.5 4.8 4.4 5 14.5 4.5 19l-7.5-2.5c0-4.8-5-12.333-7.5-15.5-4.8 0-13.667 5.667-17.5 8.5-1.833.167-7 .4-13 0zm-21.75 34.891l2.25 5.838-5 1.946-2-9 4.75 1.216zM699.205 335c-.739-1.778-2.416-5.43-3.205-5.818l10.356-4.364c-.246-4.121-.296-12.654 1.48-13.818 1.643.404 5.178 1.164 6.164.97-.74 3.555-2.614 11.248-4.192 13.575-1.972 2.91-6.657 8.243-10.603 9.455zM364 187.036l4 7c1.6-2.4 12-2.333 17-2 1.6 3.2-.667 15.333-2 21 2 0 7.167 3 9.5 4.5 2-2 5-27.5-4.5-33.5-7.6-4.8-19.167 0-24 3zM676 165.5l5.5 10.5 11.5-2 4.5-10-21.5 1.5zm-257 170v-16l15 5-5.5 14-9.5-3zm303.512-119.843l-9.403-.106-4.098-5.93 13.762-1.861-.261 7.897zm-34.767 28.975l8.368.482.612-12.317-7.773.084-1.207 11.751zm-21.891 10.658l-11.038 3.997-4.442-5.805 8.284-7.291 7.196 9.099z" class="Primary" clip-rule="evenodd"/>
    <g class="man">
      <path fill="#A4C3FE" d="M539.139 317.863c2.828-.257 7.82 3.321 9.962 5.142-2.313 1.8-3.32 9.962-3.535 13.819-3.535.964-12.855 15.104-13.497 17.675-.514 2.057-3.428.857-4.821 0-1.607-7.713 8.356-36.315 11.891-36.636z" class="Vector 3"/>
      <path fill="#A4C3FE" d="M579.485 328.481c2.828-.257 7.82 3.321 9.962 5.142-2.314 1.8-3.321 9.963-3.535 13.819-3.535.964-12.855 15.105-13.498 17.676-.514 2.056-3.428.857-4.82 0-1.607-7.713 8.356-36.315 11.891-36.637z" class="Vector 3.1"/>
      <path fill="#EDC7C5" d="M585.894 221.762c-2.707 10.135-10.412 7.902-13.893 4.238-.508-1.524-1.624-7.438-2.286-8.649-.829-1.512 2.527-7.702-1.704-7.351-4.232.351-5.059-3.2-2.583-4.065 2.476-.864 2.404-2.791-.18-4.817-2.585-2.025.872-12.767 2.763-13.802 1.89-1.036 3.547 1.989 6.095 3.052 2.548 1.062 6.78.71 8.121.467 1.074-.194.406 2.236-.062 3.475 2.494 1.69 6.836 4.19 2.494 9.94-5.208 6.898-1.121 14.706 1.235 17.512z" class="Vector 3_2"/>
      <path fill="#4B5361" d="M573.009 212.597c.857 2.283-3.88 4.583-6.356 5.448a14.933 14.933 0 01-8.744-1.289c-3.926-1.855-6.745-5.102-8.372-7.525-2.657-3.952 1.026-3.511 1.854-1.998.829 1.512 1.404-3.719.09-7.915-1.315-4.195 1.358-10.084 4.005-11.533 2.647-1.45 1.954-4.511 3.358-8.23 1.404-3.718 1.989-3.547 4.195-1.315 2.207 2.233.306-2.133 2.953-3.583 2.647-1.45 4.511 1.953 6.033 6.527 1.522 4.574-5.761 11.021-6.202 14.703-.441 3.683 3.008 8.184 3.629 9.319.621 1.134-4.61.558-3.952 2.656.657 2.098 6.437 1.881 7.509 4.735z" class="Vector 6"/>
      <path fill="#C4C4C4" d="M585.205 217.365c-2.356 5.124-11.956 6.921-14.705 7.135 0 8.327 14.705 20.408 21.773 26.813 4.877 4.42 9.083 21.232 11.217 32.347 4.213 0 13.52-.577 17.054-2.883-3.337-11.209-11.249-35.677-16.197-43.876-6.184-10.248-9.424-15.052-15.902-15.052l-3.24-4.484z" class="Vector"/>
    </g>
    <g class="trophy_2">
      <path fill="#8C7D5C" d="M572.513 141.503c-2.891.814-3.415-1.557-3.315-2.844l13.432-15.656c2.474-.073 3.241 1.865 3.315 2.844l-13.432 15.656z" class="Vector 8.5_2"/>
      <g class="color 1_2">
        <path fill="#FFCB56" d="M572.512 141.503c-2.891.814-3.415-1.557-3.315-2.844l13.432-15.656c2.474-.074 3.241 1.865 3.315 2.844a45.76 45.76 0 012.21 1.895c4.506 4.118 7.029 8.161 8.319 11.705.4 1.099.682 2.151.867 3.141.38 2.031.356 3.807.12 5.219-.13.783-.455.966-.683 1.507-.341.218-.56.899-.915 1.066-1.693.801-3.538 1.048-5.437.898a15.894 15.894 0 01-2.358-.376c-5.087-1.192-10.265-4.713-13.72-7.706a37.894 37.894 0 01-1.835-1.693z"/>
        <path fill="#FFCB56" d="M595.724 150.542c.355-.168.574-.848.914-1.066.228-.541.553-.724.684-1.507 4.86 5.029 7.224 5.008 7.847 4.34l.039-.045.814-.949.947.813 2.171-2.531c.543-.632 1.415-.158 1.784.158l5.209 4.469-11.533 13.442-5.209-4.469c-.758-.65-.6-1.43-.426-1.739l2.035-2.372-.947-.813.814-.949c.797-1.951-3.097-5.334-5.143-6.782z"/>
      </g>
      <path fill="#FADB96" fill-rule="evenodd" d="M572.513 141.503a37.972 37.972 0 001.836 1.694c-1.756.982-4.998 3.398-3.917 5.204 5.01 8.471 13.845 5.197 17.636 2.501.791.185 1.579.314 2.358.376-10.85 10.081-20.204 2.159-22.456-2.244-1.801-3.522 2.278-6.488 4.543-7.531zm13.432-15.656c.275-1.811 1.593-5.435 4.664-5.436 3.838-.002 17.265 6.708 6.733 22.178a19.88 19.88 0 00-.868-3.142c6.833-11.157-2.639-17.366-5.237-16.575-2.077.634-2.92 3.511-3.081 4.87a47.463 47.463 0 00-2.211-1.895z" class="Vector 8.6_2" clip-rule="evenodd"/>
    </g>
    <g class="trophy_3">
      <path fill="#8C7D5C" d="M508.617 182.064c-2.539-1.605-1.126-3.58-.102-4.367l20.623-.482c1.709 1.791.78 3.658.102 4.367l-20.623.482z" class="Vector 8.5_3"/>
      <g class="color 1_3">
        <path fill="#FFCB56" d="M508.617 182.063c-2.539-1.605-1.126-3.58-.102-4.366l20.622-.482c1.71 1.791.781 3.657.102 4.366a46.92 46.92 0 01.07 2.911c-.05 6.104-1.369 10.684-3.141 14.013a19.82 19.82 0 01-1.756 2.745c-1.255 1.641-2.592 2.81-3.8 3.579-.67.427-1.023.307-1.578.5-.39-.108-1.042.184-1.404.033-1.727-.724-3.145-1.931-4.303-3.443a15.866 15.866 0 01-1.297-2.005c-2.516-4.579-3.36-10.784-3.445-15.354a37.755 37.755 0 01.032-2.497z"/>
        <path fill="#FFCB56" d="M517.417 205.367c.362.151 1.015-.141 1.404-.033.555-.193.909-.073 1.578-.5-.489 6.977 1.107 8.721 2.02 8.738l.06-.002 1.25-.029.029 1.248 3.333-.078c.833-.02 1.064.946 1.076 1.431l.16 6.862-17.706.413-.161-6.861c-.023-.998.662-1.403 1.008-1.48l3.124-.073-.029-1.248 1.25-.029c1.984-.712 1.896-5.87 1.604-8.359z"/>
      </g>
      <path fill="#FADB96" fill-rule="evenodd" d="M508.617 182.064a37.746 37.746 0 00-.032 2.497c-1.904-.649-5.868-1.444-6.488.568-2.949 9.389 5.393 13.77 9.933 14.786.391.712.822 1.384 1.297 2.005-14.751-1.327-15.115-13.58-13.347-18.198 1.414-3.694 6.347-2.645 8.637-1.658zm20.623-.482c1.531-1.006 5.106-2.449 7.16-.167 2.568 2.853 6.558 17.323-11.988 19.836a19.88 19.88 0 001.756-2.745c12.865-2.381 11.148-13.576 8.823-14.978-1.861-1.121-4.563.176-5.682.965a47.691 47.691 0 00-.069-2.911z" class="Vector 8.6_3" clip-rule="evenodd"/>
    </g>
    <g class="confetti" opacity=".5">
      <path fill="#EE7E79" d="M448 240.5l-4.5-12 10-4 4 18.5-9.5-2.5z" class="color 2"/>
      <path fill="#EE7E79" d="M714 187.5l6.5-11.5h12l-5 11.5H714z" class="color 2_2"/>
      <path fill="#EE7E79" d="M422.5 286.5L418 276l15.5-6.5 3.5 10-14.5 7z" class="color 2_3"/>
      <path fill="#EE7E79" d="M742.5 250.325c-6-.4-8.833-10.167-9.5-15 3.5-1 10.5-2.4 10.5 0s2 8 3 10.5c4.167-2.667 13.1-8.1 15.5-8.5 3-.5 15.5-2 21.5 3.5 4.8 4.4 5 14.5 4.5 19l-7.5-2.5c0-4.8-5-12.333-7.5-15.5-4.8 0-13.667 5.667-17.5 8.5-1.833.167-7 .4-13 0z" class="color 2_4"/>
      <path fill="#EE7E79" d="M499 150c-1.6-.8-5-8.333-6.5-12-8 2.5-17.5 13.5-21.5 19.5-3.2 4.8-7 20.667-8.5 28 2-.4 9.167 1.167 12.5 2 3.6-2.4 3.5-20 3-28.5l21-9z" class="color 2_5"/>
      <path fill="#EE7E79" d="M720.75 285.216l2.25 5.838-5 1.946-2-9 4.75 1.216z" class="color 2_6"/>
      <path fill="#EE7E79" d="M696 329.182c.789.388 2.466 4.04 3.205 5.818 3.946-1.212 8.631-6.545 10.603-9.455 1.578-2.327 3.452-10.02 4.192-13.575-.986.194-4.521-.566-6.164-.97-1.776 1.164-1.726 9.697-1.48 13.818L696 329.182z" class="color 2_7"/>
      <path fill="#EE7E79" d="M364 187.036l4 7c1.6-2.4 12-2.333 17-2 1.6 3.2-.667 15.333-2 21 2 0 7.167 3 9.5 4.5 2-2 5-27.5-4.5-33.5-7.6-4.8-19.167 0-24 3z" class="color 2_8"/>
      <path fill="#EE7E79" d="M681.5 176l-5.5-10.5 21.5-1.5-4.5 10-11.5 2z" class="color 2_9"/>
      <path fill="#EE7E79" d="M419 335.5v-16l15 5-5.5 14-9.5-3z" class="color 2_10"/>
      <path fill="#EE7E79" d="M713.11 215.551l9.402.106.262-7.897-13.762 1.861 4.098 5.93z" class="color 2_11"/>
      <path fill="#EE7E79" d="M687.746 244.632l8.368.482.612-12.317-7.773.084-1.207 11.751z" class="color 2_12"/>
      <path fill="#EE7E79" d="M654.816 259.287l11.038-3.997-7.197-9.099-8.284 7.291 4.443 5.805z" class="color 2_13"/>
    </g>
  </g>
</svg>
