<svg xmlns="http://www.w3.org/2000/svg" width="1155" height="700" fill="none" viewBox="0 0 1155 700">
  <g class="connected">
    <path fill="#fff" d="M0 0h1155v700H0z"/>
    <g class="Group 10.1">
      <circle cx="589" cy="353" r="299" stroke="#000" stroke-dasharray="5 20" stroke-width="2" class="Ellipse"/>
      <g class="Group 9">
        <path stroke="#000" stroke-dasharray="5 20" stroke-width="2" d="M318.5 459.5c77.667-3.667 290.1-63.4 518.5-273m-457-69c135.333-.833 410 87.8 426 449" class="Vector"/>
        <g class="Group 3.1">
          <circle cx="307.5" cy="462.5" r="69.5" fill="#FCD7CB" class="Ellipse_2"/>
          <g class="Group 2">
            <path fill="#C16D6D" fill-rule="evenodd" d="M323.709 460.32c.005-.247.007-.492.007-.736 0-11.259-4.851-22.549-15.599-22.549-10.747 0-16.989 11.29-16.989 22.549 0 .2.002.401.006.603-.833-1.084-1.979-2.144-3.09-1.756-.537.187-.981 1.544-.926 2.625.053 1.059 1.514 10.155 6.338 11.219.821 2.225 1.851 4.339 3.078 6.208v11.064l-21.468 6.178c-3.501.514-10.564 3.583-10.811 11.737v6.796l88.342 1.236s.927-15.491-5.714-17.453a4681.795 4681.795 0 00-29.19-8.494v-8.936c1.95-2.557 3.407-5.833 4.399-9.329 4.882-.988 6.358-10.17 6.412-11.234.054-1.081-.39-2.438-.927-2.626-1.522-.531-3.109 1.655-3.868 2.898z" class="Union" clip-rule="evenodd"/>
            <path fill="#000" fill-opacity=".05" d="M296.689 493.696l-.155-4.479V478.56h.155s.328 3.865.617 6.333c.263 2.236.37 3.213.773 5.714.458 2.844 2.471 6.95 2.471 6.95l-3.861-3.861z" class="Vector 5"/>
            <path fill="#000" fill-opacity=".05" d="M324.966 461.356l-.835.603a.306.306 0 00-.125.205l-.886 5.909a.304.304 0 00.071.247l.291.34a.308.308 0 00.543-.201v-1.636l.301-3.613a.31.31 0 01.067-.167l.995-1.244c.224-.28-.131-.654-.422-.443z" class="Vector 6"/>
            <path fill="#000" fill-opacity=".05" d="M289.261 461.974l.835.603a.313.313 0 01.125.205l.886 5.909a.311.311 0 01-.071.247l-.291.34a.31.31 0 01-.544-.201v-1.636l-.301-3.613a.31.31 0 00-.066-.167l-.995-1.244c-.225-.281.13-.654.422-.443z" class="Vector 6.1"/>
            <path fill="#000" fill-opacity=".03" d="M317.693 481.031c-1.092 14.209-7.722 14.415-11.12 18.688 8.773 3.707 11.223-6.538 11.12-10.502v-8.186z" class="Vector 5_2"/>
            <path fill="#fff" fill-opacity=".07" d="M323.716 459.584c0 11.259-4.852 26.255-15.599 26.255-10.748 0-16.989-14.996-16.989-26.255 0-11.259 6.241-22.549 16.989-22.549 10.747 0 15.599 11.29 15.599 22.549z" class="Ellipse_3"/>
            <path fill="#FBA78C" d="M296.534 489.546s.822 3.316 2.162 4.942c2.287 2.775 4.899 3.507 8.494 3.552 3.707.047 6.627-.551 8.804-3.552 1.198-1.652 1.699-4.942 1.699-4.942s15.599 4.479 29.19 8.494c6.641 1.962 5.714 17.453 5.714 17.453s-20.135 19.529-48.187 16.351c-31.352-3.552-40.155-15.599-40.155-15.599v-8.784c.247-8.154 7.31-11.223 10.811-11.737l21.468-6.178z" class="Vector 5.2"/>
            <path fill="#000" fill-opacity=".03" d="M352.597 515.473l-10.038 7.567s4.81-6.726 5.405-11.737c.657-5.536-3.243-13.9-3.243-13.9 7.784 1.235 8.494 12.561 7.876 18.07z" class="Vector 5_3"/>
            <path fill="#000" fill-opacity=".02" d="M269.352 497.712c-5.684 2.595-5.818 14.106-5.097 19.151 0 0 2.727 2.18 4.634 3.552 2.125 1.53 5.868 3.398 5.868 3.398s-13.745-21.247 9.73-26.101c4.744-.981 18.997 0 18.997 0-4.324-.865-6.641-5.56-6.95-8.031-6.641 1.596-21.499 5.436-27.182 8.031z" class="Vector 5_4"/>
            <path stroke="#000" stroke-linecap="round" stroke-width=".927" d="M311.669 456.031c1.905-.052 5.313-.216 6.796 2.008" class="Vector_2"/>
            <path stroke="#000" stroke-linecap="round" stroke-width=".927" d="M304.102 456.21c-1.905-.051-5.313-.216-6.796 2.008" class="Vector_3"/>
            <g class="Group">
              <ellipse cx="312.288" cy="462.517" fill="#000" class="Ellipse 2" rx="1.699" ry="2.008"/>
              <ellipse cx="312.442" cy="462.53" fill="#fff" class="Ellipse 2.1" rx=".927" ry="1.095"/>
            </g>
            <g class="Group_2">
              <ellipse cx="303.331" cy="462.517" fill="#000" class="Ellipse 2_2" rx="1.699" ry="2.008"/>
              <ellipse cx="303.485" cy="462.53" fill="#fff" class="Ellipse 2.1_2" rx=".927" ry="1.095"/>
            </g>
            <path stroke="#000" stroke-width=".309" d="M306.573 464.989l-.309 6.95c.669.257 2.255.618 3.243 0" class="Vector 2"/>
            <path stroke="#000" stroke-linecap="round" stroke-width=".618" d="M302.712 476.264c2.008.823 6.919 1.853 10.502-.618" class="Vector 3"/>
            <path fill="#090D31" d="M292.519 452.479c-.618 2.143-.669 9.318-.927 13.128-4.324-8.649-4.685-21.314-4.324-26.565 5.436-17.174 19.666-9.524 26.101-3.552 20.757-1.73 15.65 15.959 10.502 25.02-1.081 6.313-1.081-.834-1.081-3.552s-1.853-6.178-2.78-7.568c-1.977-.247-4.222-3.192-5.097-4.633h-15.444c-1.699.463-1.742-.309-1.699.772.154 3.861-4.734 5.157-5.251 6.95z" class="Vector 4"/>
            <path fill="#fff" fill-opacity=".12" d="M317.693 438.406c2.317.308 9.421 0 7.877 6.95-.679-4.634-4.417-5.344-7.877-6.95z" class="Vector 6_2"/>
            <path fill="#fff" fill-opacity=".11" d="M294.218 431.903c3.481-2.051 10.347 0 10.347 0s-5.885.031-8.957 1.854c-3.476 2.062-6.333 8.185-6.333 8.185s1.178-7.821 4.943-10.039z" class="Vector 5_5"/>
          </g>
        </g>
        <g class="Group 8.2">
          <circle cx="825.5" cy="160.5" r="59.5" fill="#B9F6F2" class="Ellipse_4"/>
          <g class="Group 4">
            <g class="Group 2.1">
              <path fill="#D5645D" fill-rule="evenodd" d="M838.899 157.268a55.08 55.08 0 00-.045-.548c0-9.639-4.154-18.169-13.355-18.169s-14.544 8.53-14.544 18.169l.001.513c-.712-.927-1.692-1.832-2.642-1.5-.46.16-.84 1.322-.793 2.248.042.833 1.101 7.475 4.477 9.254.693 2.909 1.812 5.615 3.585 7.715v7.421l-18.379 5.289c-2.997.441-9.044 3.068-9.256 10.049v5.818l74.045 1.267s2.38-13.471-3.306-15.15a3985.7 3985.7 0 00-24.99-7.273v-6.354c2.346-2.219 3.99-5.52 4.783-9.648 3.372-1.782 4.431-8.419 4.473-9.252.047-.926-.333-2.088-.793-2.248-1.271-.443-2.594 1.324-3.261 2.399z" class="Union_2" clip-rule="evenodd"/>
              <path fill="#616060" fill-opacity=".04" d="M819.021 185.093c.401-4.079-3.438-9.917-3.438-9.917v7.272l-.396 1.19 2.644 5.686s1.022-2.523 1.19-4.231z" class="Vector 5_6"/>
              <path fill="#616060" fill-opacity=".04" d="M827.086 189.853c1.904-.212 5.024-7.933 6.346-12.429l.265-1.322v6.214l.925 9.652-12.164 1.19 4.628-3.305z" class="Vector 6_3"/>
              <path fill="#fff" fill-opacity=".07" d="M838.854 156.72c1.19 13.47-4.153 22.478-13.354 22.478-12.694 0-14.545-12.839-14.545-22.478 0-9.639 5.343-18.698 14.545-18.698 9.201 0 13.354 9.059 13.354 18.698z" class="Ellipse_5"/>
              <path fill="#24A8A8" d="M815.583 182.37s.704 2.84 1.851 4.231c1.958 2.376 4.194 3.003 7.272 3.042 3.174.039 5.673-.473 7.537-3.042 1.026-1.414 1.454-4.231 1.454-4.231s13.355 3.835 24.99 7.273c5.686 1.679 4.628 16.869 4.628 16.869s-14.016 13.223-38.609 13.223c-26.492 0-36.758-13.223-36.758-13.223v-8.804c.212-6.981 6.259-9.608 9.256-10.049l18.379-5.289z" class="Vector 5.2_2"/>
              <path fill="#000" fill-opacity=".03" d="M855.249 192.63l-18.775-9.256s19.436 5.553 23.271 6.743c3.834 1.19 3.702 16.396 3.702 16.396l-4.76 3.173-3.438-17.056z" class="Vector 6_4"/>
              <path fill="#000" fill-opacity=".02" d="M818.624 188.002l-27.767 21.023-2.777-2.248s-2.045-13.841 4.231-17.189c3.967-2.115 23.271-7.14 23.271-7.14.106 1.587 2.072 4.364 3.042 5.554z" class="Vector 6_5"/>
              <path stroke="#000" stroke-linecap="round" stroke-width=".793" d="M828.54 153.91c1.631-.044 4.548-.186 5.818 1.718" class="Vector_4"/>
              <path stroke="#000" stroke-linecap="round" stroke-width=".793" d="M822.062 154.063c-1.631-.044-4.549-.185-5.818 1.719" class="Vector_5"/>
              <g class="Group_3">
                <ellipse cx="829.07" cy="159.232" fill="#000" class="Ellipse 2_3" rx="1.454" ry="1.719"/>
                <ellipse cx="829.201" cy="159.245" fill="#fff" class="Ellipse 2.1_3" rx=".793" ry=".938"/>
              </g>
              <g class="Group_4">
                <ellipse cx="821.401" cy="159.232" fill="#000" class="Ellipse 2_4" rx="1.454" ry="1.719"/>
                <ellipse cx="821.534" cy="159.245" fill="#fff" class="Ellipse 2.1_4" rx=".793" ry=".938"/>
              </g>
              <path stroke="#000" stroke-width=".264" d="M825.235 161.293l-1.322 6.004c.573.221 1.931.529 2.777 0" class="Vector 2_2"/>
              <path stroke="#000" stroke-width=".264" d="M820.871 171c2.645.871 5.95 1.267 9.256-.584" class="Vector 3_2"/>
              <path fill="#fff" fill-opacity=".08" d="M837.796 133.448c-2.9-2.008-9.123 0-9.123 0s7.629-5.535 10.842-2.38c2.219 2.178.661 7.933.661 7.933s-.44-4.21-2.38-5.553z" class="Vector 5_7"/>
            </g>
          </g>
          <path fill="#091840" d="M836.498 146.269c-.529 1.163 2.414 13.927 2.635 17.189 0-7.405 3.207-14.072-1.18-21.872-3.57-6.346-11.504-5.288-16.673-4.689-13.077 1.515-12.044 16.463-9.51 25.783.308-.044.654-4.3.654-6.627s.671-8.594 1.464-9.784c1.693-.212 4.628-3.152 7.933.644 3.306 3.797 14.677-.644 14.677-.644z" class="Vector 4_2"/>
        </g>
        <g class="Group 8.2_2">
          <circle cx="795" cy="570" r="55" fill="#DCE0FD" class="Ellipse_6"/>
          <g class="Group 4_2">
            <g class="Group 2.1_2">
              <path fill="#FAC0BC" fill-rule="evenodd" d="M807.386 567.012c-.013-.168-.026-.337-.041-.506 0-8.911-3.84-14.718-12.345-14.718s-13.444 5.807-13.444 14.718l.001.473c-.659-.857-1.564-1.693-2.442-1.386-.425.148-.777 1.222-.733 2.077.039.771 1.018 6.91 4.138 8.555.64 2.689 1.675 5.19 3.314 7.132v6.86l-16.989 4.889c-2.771.407-8.36 2.836-8.556 9.289v5.378l68.445 1.171s2.2-12.452-3.056-14.005c-10.756-3.177-23.1-6.722-23.1-6.722v-5.874c2.169-2.051 3.688-5.102 4.421-8.918 3.117-1.647 4.095-7.782 4.134-8.552.044-.856-.308-1.93-.733-2.078-1.174-.409-2.397 1.223-3.014 2.217z" class="Union_3" clip-rule="evenodd"/>
              <path fill="#616060" fill-opacity=".04" d="M789.01 592.732c.371-3.771-3.178-9.167-3.178-9.167v6.723l-.366 1.1 2.444 5.255s.945-2.332 1.1-3.911z" class="Vector 5_8"/>
              <path fill="#616060" fill-opacity=".04" d="M796.466 597.133c1.76-.196 4.645-7.333 5.867-11.489l.244-1.222v5.744l.856 8.923-11.245 1.1 4.278-3.056z" class="Vector 6_6"/>
              <path fill="#fff" fill-opacity=".07" d="M807.344 566.505c1.1 12.451-3.84 20.778-12.345 20.778-11.733 0-13.444-11.868-13.444-20.778 0-8.91 4.939-14.717 13.444-14.717s12.345 5.807 12.345 14.717z" class="Ellipse_7"/>
              <path fill="#FB3564" d="M785.833 590.217s.65 2.624 1.711 3.911c1.809 2.196 3.877 2.775 6.722 2.811 2.933.037 5.244-.437 6.967-2.811.948-1.307 1.344-3.911 1.344-3.911s12.344 3.544 23.1 6.722c5.256 1.553 4.278 15.594 4.278 15.594s-12.956 12.222-35.689 12.222c-24.489 0-33.978-12.222-33.978-12.222v-8.139c.196-6.453 5.785-8.881 8.556-9.288l16.989-4.889z" class="Vector 5.2_3"/>
              <path fill="#000" fill-opacity=".03" d="M822.5 599.699l-17.355-8.555s17.966 5.133 21.511 6.233c3.544 1.1 3.422 15.156 3.422 15.156l-4.4 2.933-3.178-15.767z" class="Vector 6_7"/>
              <path fill="#000" fill-opacity=".02" d="M788.644 595.421l-25.667 19.433-2.566-2.078s-1.891-12.794 3.911-15.889c3.666-1.955 21.511-6.6 21.511-6.6.098 1.467 1.915 4.034 2.811 5.134z" class="Vector 6_8"/>
              <path stroke="#000" stroke-linecap="round" stroke-width=".733" d="M797.811 563.907c1.507-.04 4.204-.171 5.377 1.589" class="Vector_6"/>
              <path stroke="#000" stroke-linecap="round" stroke-width=".733" d="M791.822 564.049c-1.507-.041-4.204-.171-5.378 1.589" class="Vector_7"/>
              <g class="Group_5">
                <ellipse cx="798.3" cy="568.829" fill="#000" class="Ellipse 2_5" rx="1.344" ry="1.589"/>
                <ellipse cx="798.423" cy="568.839" fill="#fff" class="Ellipse 2.1_5" rx=".733" ry=".867"/>
              </g>
              <g class="Group_6">
                <ellipse cx="791.211" cy="568.829" fill="#000" class="Ellipse 2_6" rx="1.344" ry="1.589"/>
                <ellipse cx="791.334" cy="568.839" fill="#fff" class="Ellipse 2.1_6" rx=".733" ry=".867"/>
              </g>
              <path stroke="#000" stroke-width=".244" d="M794.755 570.732l-1.222 5.551c.53.203 1.785.489 2.567 0" class="Vector 2_3"/>
              <path stroke="#000" stroke-width=".244" d="M790.722 579.705c2.444.805 5.5 1.172 8.555-.539" class="Vector 3_3"/>
              <path fill="#fff" fill-opacity=".08" d="M806.367 544.993c-2.681-1.856-8.433 0-8.433 0s7.052-5.116 10.022-2.2c2.05 2.013.611 7.333.611 7.333s-.407-3.892-2.2-5.133z" class="Vector 5_9"/>
            </g>
          </g>
        </g>
        <g class="Group 6.2">
          <circle cx="608.5" cy="341.5" r="46.5" fill="#FED3D3" class="Ellipse_8"/>
          <g class="Group 4_3">
            <g class="Group 2.1_3">
              <path fill="#FBA19B" fill-rule="evenodd" d="M618.972 338.975c-.011-.142-.022-.285-.035-.428 0-7.533-3.246-15.087-10.437-15.087-7.191 0-11.366 7.554-11.366 15.087l.001.4c-.557-.724-1.323-1.431-2.065-1.172-.359.125-.657 1.033-.62 1.757.033.651.861 5.841 3.499 7.232.541 2.273 1.416 4.388 2.801 6.03v5.8l-14.363 4.134c-2.343.344-7.068 2.397-7.234 7.853v4.547l59.107.826s.62-10.364-3.823-11.676c-9.094-2.687-19.53-5.684-19.53-5.684v-4.966c1.833-1.734 3.118-4.314 3.738-7.54 2.635-1.393 3.462-6.58 3.495-7.231.037-.723-.26-1.631-.62-1.756-.992-.347-2.026 1.034-2.548 1.874z" class="Union_4" clip-rule="evenodd"/>
              <path fill="#fff" fill-opacity=".08" d="M618.937 338.547c.93 10.527-3.246 17.567-10.437 17.567-9.92 0-11.366-10.034-11.366-17.567 0-7.533 4.176-15.087 11.366-15.087 7.191 0 10.437 7.554 10.437 15.087z" class="Ellipse_9"/>
              <path fill="#FB8CB4" d="M600.75 358.594s.55 2.219 1.447 3.307c1.53 1.856 3.277 2.346 5.683 2.377 2.48.031 4.433-.369 5.89-2.377.802-1.105 1.137-3.307 1.137-3.307s10.436 2.997 19.53 5.684c4.443 1.312 3.616 13.184 3.616 13.184s-10.953 10.333-30.173 10.333c-20.704 0-28.727-10.333-28.727-10.333v-6.881c.166-5.456 4.891-7.509 7.234-7.853l14.363-4.134z" class="Vector 5.2_4"/>
              <path stroke="#000" stroke-linecap="round" stroke-width=".413" d="M610.876 336.171c1.274-.035 3.555-.145 4.547 1.343" class="Vector_8"/>
              <path stroke="#000" stroke-linecap="round" stroke-width=".413" d="M605.813 336.29c-1.274-.035-3.554-.145-4.546 1.343" class="Vector_9"/>
              <g class="Group_7">
                <ellipse cx="611.29" cy="340.511" fill="#000" class="Ellipse 2_7" rx="1.137" ry="1.343"/>
                <ellipse cx="611.393" cy="340.52" fill="#fff" class="Ellipse 2.1_7" rx=".62" ry=".733"/>
              </g>
              <g class="Group_8">
                <ellipse cx="605.297" cy="340.511" fill="#000" class="Ellipse 2_8" rx="1.137" ry="1.343"/>
                <ellipse cx="605.4" cy="340.52" fill="#fff" class="Ellipse 2.1_8" rx=".62" ry=".733"/>
              </g>
              <path stroke="#000" stroke-width=".207" d="M607.466 342.163l-.206 4.65c.448.173 1.508.414 2.17 0" class="Vector 2_4"/>
              <path fill="#EA7B7B" d="M612.116 349.25c-2.79.991-5.373 1.034-7.233.456 0 0 .723 2.541 3.41 2.541 2.376 0 3.823-2.997 3.823-2.997z" class="Vector 3_4"/>
            </g>
            <path fill="#0D286E" fill-rule="evenodd" d="M610.219 320.274a4.34 4.34 0 10-4.046.115c-14.905 2.201-20.398 22.208-8.419 30.928h.723c1.819-1.488 1.447-10.368 1.24-14.983 3.061.284 6.368-4.698 8.151-7.385.287-.433.535-.807.736-1.089 4.027 0 5.012 2.108 5.782 3.756.495 1.058.901 1.928 1.968 1.928l1.136 15.706h1.034c9.956-6.261 10.125-25.878-8.305-28.976z" class="Union_5" clip-rule="evenodd"/>
          </g>
        </g>
        <g class="Group 3.1_2">
          <circle cx="388.5" cy="125.5" r="50.5" fill="#FABBDA" class="Ellipse_10"/>
          <g class="Group 2_2">
            <path fill="#F6A49D" fill-rule="evenodd" d="M400.278 123.917c.003-.18.005-.358.005-.535 0-8.181-3.525-16.384-11.335-16.384-7.809 0-12.344 8.203-12.344 16.384 0 .145.001.291.004.438-.605-.788-1.438-1.559-2.245-1.277-.391.136-.713 1.122-.674 1.908.039.77 1.101 7.379 4.606 8.152.596 1.617 1.345 3.153 2.237 4.511v8.04l-15.599 4.489c-2.544.374-7.676 2.603-7.856 8.529v4.937l64.191.898s.674-11.255-4.152-12.681c-9.876-2.918-21.21-6.172-21.21-6.172v-6.493c1.417-1.858 2.476-4.239 3.197-6.779 3.547-.719 4.619-7.39 4.658-8.163.04-.786-.283-1.772-.673-1.908-1.106-.386-2.259 1.202-2.81 2.106z" class="Union_6" clip-rule="evenodd"/>
            <path fill="#fff" fill-opacity=".07" d="M400.283 123.381c0 8.181-3.525 19.078-11.334 19.078-7.809 0-12.345-10.897-12.345-19.078s4.536-16.384 12.345-16.384c7.809 0 11.334 8.203 11.334 16.384z" class="Ellipse_11"/>
            <path fill="#A28CFB" d="M380.533 145.152s.597 2.41 1.571 3.591c1.661 2.017 3.559 2.549 6.172 2.582 2.693.033 4.815-.401 6.397-2.582.87-1.2 1.234-3.591 1.234-3.591s11.334 3.255 21.21 6.173c4.826 1.425 4.152 12.681 4.152 12.681s-14.589 13.789-35.013 11.881c-22.893-2.138-29.178-11.881-29.178-11.881v-5.836c.18-5.925 5.312-8.155 7.856-8.529l15.599-4.489z" class="Vector 5.2_5"/>
            <path stroke="#000" stroke-linecap="round" stroke-width=".449" d="M391.53 120.801c1.384-.038 3.861-.157 4.938 1.459" class="Vector_10"/>
            <path stroke="#000" stroke-linecap="round" stroke-width=".449" d="M386.031 120.93c-1.384-.037-3.86-.157-4.938 1.459" class="Vector_11"/>
            <g class="Group_9">
              <ellipse cx="391.98" cy="125.515" fill="#000" class="Ellipse 2_9" rx="1.234" ry="1.459"/>
              <ellipse cx="392.091" cy="125.525" fill="#fff" class="Ellipse 2.1_9" rx=".673" ry=".796"/>
            </g>
            <g class="Group_10">
              <ellipse cx="385.47" cy="125.515" fill="#000" class="Ellipse 2_10" rx="1.234" ry="1.459"/>
              <ellipse cx="385.583" cy="125.525" fill="#fff" class="Ellipse 2.1_10" rx=".673" ry=".796"/>
            </g>
            <path stroke="#000" stroke-width=".224" d="M387.827 127.31l-.224 5.05c.486.187 1.638.449 2.356 0" class="Vector 2_5"/>
            <path stroke="#000" stroke-width=".224" d="M385.021 135.502c1.459.599 5.028 1.347 7.632-.449" class="Vector 3_5"/>
            <path fill="#000" d="M377.615 118.22c-.563.927-.262 6.195-.449 8.963-.449 2.343 2.693 8.641 3.591 10.212v7.744l-12.906 3.591s-.458-5.91 0-9.651c.559-4.554 3.384-6.739 3.143-11.321-.133-2.516-.645-3.768-.786-6.284-.299-5.341 3.367-10.787 3.367-10.787 5.499-12.345 14.514-9.151 19.19-4.812 2.244-.94 7.159-1.675 8.865 2.904 1.122 2.763.704 9.186 2.132 11.783 1.235 2.244.337 3.367 1.908 5.611 1.571 2.245-1.031 3.448-1.122 5.723-.17 4.249 3.203 6.091 3.591 10.325.224 2.444-.898 6.509-.898 6.509l-11.446-3.704v-6.284c1.459-3.395 2.581-7.294 3.815-12.008.529-2.02-1.234-3.285-1.234-5.26 0-1.975-.225-5.738-.898-6.748-.786-2.117-2.955-1.07-3.591-2.117 0 0-2.775-2.344-5.05-2.371-2.358-.029-2.581 3.366-2.581 3.366-.898 2.02-2.806 2.357-3.591 2.357-2.808 0-3.816.224-5.05 2.259z" class="Vector 4_3"/>
          </g>
        </g>
      </g>
    </g>
  </g>
</svg>
