<svg xmlns="http://www.w3.org/2000/svg" width="1152" height="700" fill="none" viewBox="0 0 1152 700">
  <g class="creativity">
    <path fill="#fff" d="M0 0h1152v700H0z"/>
    <path fill="#5F75AB" fill-rule="evenodd" d="M397 123h347v276H397V123z" class="Primary" clip-rule="evenodd"/>
    <g class="board" opacity=".5">
      <path fill="#DAE4FA" d="M397 123h347v276H397z" class="Rectangle"/>
      <path fill="#000" fill-opacity=".1" d="M397 123h347v276H397z" class="Color"/>
      <circle cx="413" cy="136" r="6" fill="#7D8CA6" class="Ellipse"/>
      <circle cx="431" cy="136" r="6" fill="#7D8CA6" class="Ellipse_2"/>
      <circle cx="449" cy="136" r="6" fill="#7D8CA6" class="Ellipse_3"/>
    </g>
    <g class="Board">
      <path fill="#fff" d="M482 317.5V199h191v118.5H482zM482 183.5V173h116.5v10.5H482zM482 348v-9.5h173.5v9.5H482z"/>
    </g>
    <path fill="#FFCB56" fill-rule="evenodd" d="M714.375 263.979l11.299-.124L792 604.724l-12.729-4.159-15.322-80.658-76.098 8.526L703.335 619l-11.299-2.731L630 261.124l11.299-.124 11.39 60.989 73.89 2.799-12.204-60.809zm13.735 72.005l-73.864-2.803 15.259 86.506 75.007-4.293-16.402-79.41zm-41.816 181.257l-15.232-86.362 74.981-4.289 16.376 82.12-76.125 8.531z" class="ladder" clip-rule="evenodd"/>
    <g class="girl">
      <path fill="#4B5361" d="M806.544 319.55c-11.442.749-19.797-14.663-22.544-22.463 8.242-7.019 1.939-18.016 5.333-16.612s22.786-6.084 28.119 7.019c8.183-1.165 24.648.406 25.048 16.006.5 19.5-5 41.5 6 43.5-5.333 2.483-17.1 3.96-21.5-10-4.4-13.96-6.439-28.15-6.908-33.5-.614 8.406-4.732 15.473-13.548 16.05z" class="color 2"/>
      <g class="Vector 17">
        <path fill="#8A6564" d="M715.074 511.961c-6.468 0-7.588-2.961-9.074-2.961-1.11 2.428-1.5 4.5-4 5.5-1.325.53-18.549-2.539-16.885.986C686.779 519.01 697 521.5 703 522.5l12.074 1.5c2.426-1.5.792-8.279 0-12.039zM806.376 497.395c-1.522 3.947-6.341 4.464-8.56 4.229v8.458c0 4.464-20.923 16.211-8.797 14.802 12.126-1.41 23.538-18.796 23.538-21.381 0-2.067-4.121-4.934-6.181-6.108z"/>
      </g>
      <path fill="#C4C4C4" d="M712.843 449.605c1.311-10.142 16.5-52.235 24.75-71.961 10.662 0 29.827 9.411 40.457 14.856-1.587 12.782-2.344 46.744 0 51.5 3.449 7 19.197 32.669 28.796 48.213 0 0-1.149 5.012-4.347 8.287-3.197 3.275-11.36 7.336-11.36 7.336-8.25-16.57-29.684-49.323-33.08-58.231-4.06-10.652-7.48-25.241-7.56-33.605-11.613 14.392-22.663 69.27-26.233 94.913 0 0-6.36.338-9.767 0-4.97-.492-11.413-3.077-11.413-3.077 3.252-15.149 8.413-47.836 9.757-58.231z" class="Pant"/>
    </g>
    <g class="brush">
      <path fill="#BFBFBF" d="M741.509 246.13l-17.382-30.19-13.723 11.893-6.404-9.148 30.19-26.531 7.319 7.319-12.808 11.893L747 241l-5.491 5.13z" class="Vector 5"/>
    </g>
    <path fill="#C4B7B6" fill-rule="evenodd" d="M816 444.565v27c2.833 1.666 11.5 4 23.5 0v-27c-10-30-19.833-12.5-23.5 0zm21.5.631c-4.856 1.367-13.048 2.612-19.5.252 3.5-14.384 13.1-22.946 19.5-.252z" class="bucket" clip-rule="evenodd"/>
    <path fill="#798CEE" fill-rule="evenodd" d="M709.489 209.534c3.964 1.525 12.808 3.111 16.467-2.744 3.66-5.855 12.503-5.489 16.467-4.574.61-2.744.549-8.781-4.574-10.977-5.123-2.196-21.041 11.282-28.36 18.295zM673 197H482v24c5.333 26 24.2 74.8 57 62 15.703-6.128 30.159-19.077 43.48-31.009 21.461-19.224 39.978-35.81 56.02-16.991 20.8 24.4 31.667 29.5 34.5 29v-67zm104.217 117.425c11.786 8.21 36.688 27.307 42.004 38.02-2.769 5.34-8.781 16.02-10.679 16.02-1.899 0-11.233-7.173-15.663-10.76l-12.103 37.063c-13.606.239-41.909-3.587-46.276-20.803l22.308-50.932-8.306-16.26 16.137-10.043 12.578 17.695zm60.343 128.687c-1.6 1.2-8.667 1.833-12 2-2 7.501 2 13.5 2 9.999 0-3.5 4-2.5 4.5 3.501.5 6.001 8.5 3 10 0s-2.5-17-4.5-15.5z" class="Secondary" clip-rule="evenodd"/>
    <g class="Body Parts">
      <path fill="#EDC7C5" d="M792.936 286c-2.289 0-7.867 7.654-9.297 9.951-2.206 3.089 0 10.693 0 14.733 0 3.231-2.066 5.306-3.099 5.94-5.531 12.166 5.959 12.515 12.396 11.168 0-1.584-1.198-2.225.953-8.554 1.611-4.738 2.384-5.941 5.483-5.941 3.099 0 7.151-2.326 8.105-4.465.763-1.711-.954-2.614-1.907-2.851-.954.158-2.67-.333-1.907-3.564.953-4.04-.239-9.526-3.576-9.526S795.796 286 792.936 286zM764.33 299.991c-.954 3.231-7.629 6.742-10.33 8.009-7.5-7-13.747-59.235-16.607-62.8-2.861-3.564-5.529-17.692-4.576-17.93.954-.238 4.291-.95 5.244 1.663.954 2.614 4.291 7.228 4.291 5.089 0-3.138 1.669-5.514 2.384-3.138.572 1.901.762 10.752.285 11.94.795 2.139 1.412 6.949 3.576 16.059C751 269 759.483 290.169 764.33 299.991zM807.477 364.5c.953-3.232 6.595-9.065 9.297-10.332 15.971 16.832 11.78 48.067 14.64 51.631 2.861 3.565 4.529 19.693 3.576 19.931-.954.238-5.037 0-5.99-2.614-.954-2.614-3.545-7.277-3.545-5.138 0 2.138-1.669 4.514-2.384 2.138-.572-1.901.238-10.752.715-11.94-.795-2.139-6.172-24.333-9.286-33.676-1-3-5-7.5-7.023-10z"/>
    </g>
  </g>
</svg>
