<svg xmlns="http://www.w3.org/2000/svg" width="1152" height="700" fill="none" viewBox="0 0 1152 700">
  <g class="dark_mode_one">
    <path fill="#fff" d="M0 0h1152v700H0z"/>
    <path fill="#B7CFFD" d="M329.768 535.84c1.715 14.049 3.05 24.58 17.141 32.106-2.356-12.636-6.272-32.097-10.387-49.563 5.025-15.134 14.623-46.92 12.818-52.987-2.801 8.543-10.51 26.407-18.933 29.509-2.05-6.857-3.973-12.021-5.583-14.283-1.674 2.21-3.761 9.724-1.221 23.761-5.12 11.173-13.495 35.755-6.035 44.692l-1.98 2.185c-4.432-14.966-9.631-51.834 5.033-79.578-5.979 3.435-18.17 15.149-19.103 34.515-.933 19.366 3.39 34.656 5.668 39.88-4.499-7.884-13.477-28.317-13.4-46.973.096-23.321-.931-31.387 29.283-66.479-12.976 3.661-39.29 15.498-40.733 33.559-1.804 22.578 4.283 52.654 17.677 74.23-17.743-23.639-58.124-71.121-77.713-71.931 1.321 2.777 7.215 11.573 20.224 24.551 13.008 12.978 35.138 31.892 44.577 39.727-10.668-7.355-35.263-22.06-48.295-22.046-13.032.014-60.14.223-82.065.325 14.425 7.297 51.069 21.527 82.241 20.067 31.173-1.459 43.544 6.264 45.834 10.308-23.837 3.672-75.654 14.189-92.235 26.878 19.579-2.478 65.67-10.004 93.398-20.277 4.052-1.113 13.714-2.256 19.944 2.083-17.177 3.185-54.289 13.74-65.322 30.47 14.206-4.141 45.055-13.8 54.807-19.305 12.19-6.881 27.729-5.194 25.51-3.621-2.22 1.573-48.867 12.75-72.596 35.43 21.818-4.294 67.77-15.481 77.038-25.877.751-1.705 3.4-4.716 7.99-3.123 4.591 1.592-2.05-3.432-5.944-6.143-.461-6.641-.635-20.354 2.362-22.09z" class="plant"/>
    <g class="plant_2">
      <path fill="#B6C7E5" d="M883.965 276.679c9.506.203 20.614 13.682 24.98 20.395 2.201 2.011 6.497 4.36 6.068-2.332-.537-8.364 4.348-19.348 9.302-21.788 2.775 5.362 7.068 16.996 2.042 20.642-6.284 4.558-9.912 18.808-3.055 12.959 6.858-5.85 6.825-17.086 25.349-20.456.125 6.023-2.811 20.578-15.551 30.617-15.924 12.549-9.41 22.901-1.403 14.467 8.007-8.435 13.933-20.89 31.344-24.368.669 7.778-.558 24.748-10.812 30.403-12.817 7.069-32.421 21.567-27.001 25.912 5.42 4.345 23.59-20.851 34.503-24.51 8.731-2.927 15.007-4.161 17.053-4.412.513 7.838-2.684 25.351-19.572 32.699-21.11 9.185-39.744 20.632-31.452 25.48 8.291 4.848 17.881-17.586 36.154-23.002 14.619-4.333 18.058-3.191 17.95-2.078-.122 6.653-5.44 21.803-25.746 29.179-25.382 9.22-33.568 17.187-27.969 21.999 5.599 4.812 17.092-21.032 49.579-20.127-1.21 7.071-7.027 22.413-20.611 27.206-16.981 5.991-40.641 18.298-34.145 25.443 6.496 7.145 20.465-16.436 38.702-19.16 14.59-2.18 14.814-1.409 13.103-.751.789 5.768-1.052 18.724-14.724 24.407-17.089 7.104-48.754 20.881-43.228 31.078 5.526 10.196 14.505-8.253 24.917-16.005 8.33-6.201 22.809-8.945 29.008-9.542-1.151 7.227-6.288 22.664-17.632 26.596-14.181 4.915-44.986 23.718-42.474 30.252 2.511 6.534 15.293-4.807 22.797-10.369 7.504-5.562 18.491-14.606 31.486-14.244 1.183 6.33-.558 20.569-16.986 26.883-20.535 7.893-38.63 13.776-35.401 22.177 3.229 8.401 6.32-7.25 23.265-10.548 13.556-2.639 20.582-2.197 22.401-1.647-.756 5.469-5.245 17.015-17.164 19.453-14.898 3.048-36.797 8.787-32.994 15.895 3.804 7.109 13.751-7.427 21.936-8.431 6.548-.802 14.503-1.289 17.661-1.431.239 5.265-5.517 16.583-30.445 19.736-4.44.993-12.68 3.803-10.125 7.106 3.194 4.129 18.022-7.463 24.591-5.702.143 3.159-1.617 9.728-9.802 10.731-8.185 1.003-17.341 9.7-20.896 13.924-.858-2.17-3.487-7.231-7.137-10.113-2.313-3.501-6.252-7.378-11.633-9.456-13.209-5.101-18.591-19.102-15.324-20.358 3.267-1.255 17.085 13.789 20.639 11.887 3.554-1.901-5.527-10.196-14.643-15.798-7.293-4.482-11.722-18.885-13.025-25.527 4.271 2.287 13.775 8.526 17.622 15.189l.28.486c4.664 8.081 8.054 13.957 12.102 10.825 4.13-3.194-8.324-16.084-19.522-25.707-8.959-7.699-11.626-23.744-11.84-30.803 3.195 1.807 10.833 6.442 15.829 10.521 6.245 5.099 13.6 24.234 17.011 19.174 3.412-5.061-13.923-20.896-27.203-34.54-10.623-10.916-9.83-26.041-8.105-32.239 3.757 1.413 11.838 6.271 14.104 14.399 2.834 10.159 18.013 34.322 22.933 27.61 4.919-6.711-20.634-32.779-28.098-43.837-5.972-8.847-4.47-21.851-2.973-27.248 5.168 2.299 10.48 7.757 15.755 15.907s17.295 32.456 22.718 22.872c5.423-9.584-20.203-30.267-31.401-39.89-8.959-7.698-10.381-24.221-9.973-31.52 4.164 1.077 18.521 10.558 23.15 18.421 4.629 7.862 18.373 28.291 21.104 18.671 2.73-9.62-23.579-27.898-33.843-37.88-8.212-7.985-10.501-24.532-10.619-31.808 16.978 7.938 25.089 19.283 27.779 26.284 2.691 7.001 17.548 27.538 20.601 21.543 3.052-5.994-15.932-30.301-28.567-36.694-10.107-5.114-15.407-21.04-16.793-28.363 2.225.216 24.193 9.985 26.345 15.586 2.153 5.6 7.895 13.571 15.791 20.178 7.896 6.607 4.132-17.122-17.943-25.779-17.661-6.925-24.561-26.271-25.803-35.078 35.715 16.27 21.677 24.344 40.055 31.743 18.378 7.399 2.875-13.425-14.032-19.783-13.525-5.086-21.928-24.069-24.439-32.924 12.027-3.551 29.145 21.474 40.308 26.825 11.163 5.351 7.469-9.834-10.622-17.88-14.473-6.436-20.864-22.692-22.25-30.015 9.477-.429 17.373 6.178 27.781 19.319 10.407 13.141 12.887 1.475 2.693-6.928-8.154-6.722-12.608-17.473-13.815-22.008z" class="Vector 3"/>
      <path fill="#DAE4FA" d="M912.61 437.616c-19.009 87.119-16.579 133.859-13.642 163.799-.858-2.17-3.487-7.231-7.137-10.113-2.313-3.501-6.252-7.378-11.633-9.456-13.209-5.101-18.591-19.102-15.324-20.358 3.267-1.255 17.085 13.789 20.639 11.887 3.554-1.901-5.527-10.196-14.643-15.798-7.293-4.482-11.722-18.885-13.025-25.527 4.271 2.287 13.775 8.526 17.622 15.189l.28.486c4.664 8.081 8.054 13.957 12.102 10.825 4.13-3.194-8.324-16.084-19.522-25.707-8.959-7.699-11.626-23.744-11.84-30.803 3.195 1.807 10.833 6.442 15.829 10.521 6.245 5.099 13.6 24.234 17.011 19.174 3.412-5.061-13.923-20.896-27.203-34.54-10.623-10.916-9.83-26.041-8.105-32.239 3.757 1.413 11.838 6.271 14.104 14.399 2.834 10.159 18.013 34.322 22.933 27.61 4.919-6.711-20.634-32.779-28.098-43.837-5.972-8.847-4.47-21.851-2.973-27.248 5.168 2.299 10.48 7.757 15.755 15.907s17.295 32.456 22.718 22.872c5.423-9.584-20.203-30.267-31.401-39.89-8.959-7.698-10.381-24.221-9.973-31.52 4.164 1.077 18.521 10.558 23.15 18.421 4.629 7.862 18.373 28.291 21.104 18.671 2.73-9.62-23.579-27.898-33.843-37.88-8.212-7.985-10.501-24.532-10.619-31.808 16.978 7.938 25.089 19.283 27.779 26.284 2.691 7.001 17.548 27.538 20.601 21.543 3.052-5.994-15.932-30.301-28.567-36.694-10.107-5.114-15.407-21.04-16.793-28.363 2.225.216 24.193 9.985 26.345 15.586 2.153 5.6 7.895 13.571 15.791 20.178 7.896 6.607 4.132-17.122-17.943-25.779-17.661-6.925-24.561-26.271-25.803-35.078 35.715 16.27 21.677 24.344 40.055 31.743 18.378 7.399 2.875-13.425-14.032-19.783-13.525-5.086-21.928-24.069-24.439-32.924 12.027-3.551 29.145 21.474 40.308 26.825 11.163 5.351 7.469-9.834-10.622-17.88-14.473-6.436-20.864-22.692-22.25-30.015 9.477-.429 17.373 6.178 27.781 19.319 10.407 13.141 12.887 1.475 2.693-6.928-8.154-6.722-12.608-17.473-13.815-22.008 9.506.203 20.614 13.682 24.98 20.395 7.559 17.808 18.873 70.846 3.665 140.542z" class="Vector 3.1"/>
    </g>
    <circle cx="576" cy="350" r="314" fill="#FFEEC7" class="color 1"/>
    <path fill="#4B5361" d="M797.029 573.029C740.287 629.266 662.2 664 576 664c-173.417 0-314-140.582-314-314 0-86.2 34.734-164.287 90.971-221.029l444.058 444.058z" class="Subtract"/>
    <g class="mac">
      <path fill="#FFEEC7" d="M628.764 466.297a2.977 2.977 0 00-.177-.637c.067.201.126.415.177.637.741 4.632-9.403 10.808-14.808 13.42l-69.647 40.997c-3.707 1.953-12.993 4.686-20.484 0-7.492-4.685-28.712-20.694-38.386-28.112l-2.583 1.484c12.876 9.852 39.33 29.791 42.139 30.728 3.512 1.171 12.876 1.757 19.314-1.171 5.15-2.343 57.551-33.775 83.108-49.198 1.294-.781 2.001-5.261 1.347-8.148z" class="color 1_2"/>
      <path fill="#6F7D94" d="M628.588 465.66c-1.873-4.685-35.116-19.102-51.503-25.725a643265.682 643265.682 0 00-91.645 52.667c9.674 7.418 30.894 23.427 38.385 28.112 7.492 4.686 16.778 1.953 20.485 0l69.646-40.997c5.658-2.734 16.505-9.371 14.632-14.057z" class="Vector"/>
      <path fill="#60759B" d="M721.06 357.309c5.151-2.811 5.268-7.028 4.682-8.785.03-12.91.062-27.855.093-43.926L355.268 520.714v31.041c.147 3.077 1.457 8.198 5.268 9.771 1.267.523 2.812.654 4.682.186 32.541-18.71 74.276-42.702 117.638-67.626l2.584-1.484c30.701-17.646 62.14-35.714 91.644-52.667 77.296-44.413 141.311-81.171 143.976-82.626z" class="Vector_2"/>
      <path fill="#B6C7E5" d="M360.267 561.928c-3.81-1.573-5.121-6.694-5.267-9.77v-31.041l247-144.052 31.656 30.618c-17.48 10.04-36.709 21.087-56.84 32.654a841798.008 841798.008 0 00-91.645 52.667l-2.583 1.485a1194694.27 1194694.27 0 00-117.639 67.625c-1.87.468-3.414.337-4.682-.186z" class="color 2"/>
      <path fill="#B6C7E5" d="M369.314 281.756L715.793 81.453c1.839-.23 4.803.014 7.023 1.692-1.366-2.69-5.268-7.263-9.95-4.035-4.682 3.228-238.398 137.614-354.672 204.403-2.731 2.929-8.193 10.777-8.193 18.742v249.5c.195 2.609 2.575 8.216 10.534 9.771-3.81-1.573-5.121-6.694-5.267-9.771V304.598c0-11.245 9.364-19.914 14.046-22.842z" class="color 2_2"/>
      <path fill="#FFEEC7" d="M355.266 304.598c0-11.245 9.365-19.913 14.047-22.842l86.931-50.256-2.245-3.045a277368.959 277368.959 0 01-95.806 55.058c-2.731 2.929-8.194 10.777-8.194 18.742v249.5c.195 2.609 2.575 8.216 10.535 9.771-3.81-1.573-5.121-6.694-5.268-9.771V304.598z" class="color 1_3"/>
      <path fill="#4B5361" d="M369.314 281.756L715.792 81.453c1.839-.23 4.803.014 7.023 1.692 1.548 1.17 2.734 3.035 2.926 5.922.396 5.942.262 127.582.093 215.531L355.267 520.714V304.598c0-11.245 9.365-19.914 14.047-22.842z" class="Vector_3"/>
      <path fill="#fff" d="M355 305.218c0-11.245 9.364-19.913 14.046-22.841l87.454-50.558 145.639 145.383L355 521.335V305.218z" class="light"/>
    </g>
    <g class="stuff on mac">
      <g class="dots">
        <circle cx="371" cy="298" r="3" fill="#4B5361" class="Ellipse"/>
        <circle cx="381" cy="292" r="3" fill="#4B5361" class="Ellipse_2"/>
        <circle cx="391" cy="286" r="3" fill="#4B5361" class="Ellipse_3"/>
      </g>
      <path fill="#fff" d="M603 275l-20 12v3l20-12v-3z" class="Rectangle 2.6"/>
      <path fill="#fff" d="M604 282l-14 9v3l14-9v-3z" class="Rectangle 2.7"/>
      <path fill="#fff" d="M603 296l-20 12v3l20-12v-3z" class="Rectangle 2.8"/>
      <path fill="#fff" d="M604 303l-14 9v3l14-9v-3z" class="Rectangle 2.9"/>
      <path fill="#fff" d="M603 317l-20 12v3l20-12v-3z" class="Rectangle 2.10"/>
      <path fill="#fff" d="M604 324l-14 9v3l14-9v-3z" class="Rectangle 2.11"/>
      <path fill="#fff" d="M658 248l-20 12v3l20-12v-3z" class="Rectangle 2.12"/>
      <path fill="#fff" d="M659 255l-14 9v3l14-9v-3z" class="Rectangle 2.13"/>
      <path fill="#fff" d="M658 269l-20 12v3l20-12v-3z" class="Rectangle 2.14"/>
      <path fill="#fff" d="M659 276l-14 9v3l14-9v-3z" class="Rectangle 2.15"/>
      <g class="color 1_4">
        <path fill="#FFEEC7" d="M625 260l-13 7.966V281l13-7.241V260z" class="color 1_5"/>
        <path fill="#FFEEC7" d="M625 281l-13 7.966V302l13-7.241V281z" class="color 1_6"/>
        <path fill="#FFEEC7" d="M625 302l-13 7.966V323l13-7.241V302z" class="color 1_7"/>
        <path fill="#FFEEC7" d="M680 233l-13 7.966V254l13-7.241V233z" class="color 1_8"/>
        <path fill="#FFEEC7" d="M680 254l-13 7.966V275l13-7.241V254z" class="color 1_9"/>
        <path fill="#FFEEC7" d="M680 275l-13 7.966V296l13-7.241V275z" class="color 1_10"/>
      </g>
      <path fill="#fff" d="M658 290l-20 12v3l20-12v-3z" class="Rectangle 2.16"/>
      <path fill="#fff" d="M659 297l-14 9v3l14-9v-3z" class="Rectangle 2.17"/>
      <g class="Vector 5.1">
        <path stroke="#fff" d="M576 209.13V230l129-75.13V134l-129 75.13zM705 186.174v-14.609l-129 73.044v12.521l129-70.956z"/>
      </g>
      <g class="bar charts">
        <g class="Group">
          <path fill="#F0EFEC" d="M500.346 401.122L495 403.413V278.5l5.346-2.291V401.122z" class="Vector 2"/>
          <path fill="#F0EFEC" d="M514.092 388.903l-5.346 2.291v-74.08l5.346-2.291v74.08z" class="Vector 2.1"/>
        </g>
        <g class="Group_2">
          <path fill="#B6C7E5" d="M500.346 401.122L495 403.413v-48.878l5.346-2.291v48.878z" class="Vector 2_2"/>
          <path fill="#B6C7E5" d="M514.092 388.902l-5.346 2.291v-24.438l5.346-2.292v24.439z" class="Vector 2.1_2"/>
          <path fill="#B6C7E5" d="M541.586 364.463l-5.346 2.292v-48.878l5.346-2.291v48.877z" class="Vector 2.3"/>
          <path fill="#B6C7E5" d="M527.84 376.683l-5.346 2.291v-63.388l5.346-2.291v63.388z" class="Vector 2.2"/>
        </g>
      </g>
      <g class="pie chart">
        <path fill="#6B81AC" d="M469.162 394.829c1.196-5.675 1.839-11.502 1.839-17.338 0-7.027-.293-13.353-.966-18.99l-44.732 28.897 43.859 7.431z" class="Ellipse_4"/>
        <path fill="#A4C3FE" d="M463.967 411.341l-38.664-23.943 43.859 7.431a89.558 89.558 0 01-5.195 16.512z" class="Ellipse_5"/>
        <path fill="#B6C7E5" d="M434.122 323c-2.965 0-5.914.423-8.819 1.221v63.177l44.732-28.896C467.171 334.512 457.427 323 434.122 323z" class="color 2_3"/>
        <path fill="#FFEEC7" d="M378 399.783c0 36.934 9.702 51.188 38.483 51.188 19.658 0 37.897-17.051 47.483-39.629l-38.664-23.943v-63.177C399.998 331.178 378 366.653 378 399.783z" class="color 1_11"/>
      </g>
    </g>
    <g class="mouse">
      <path fill="#B6C7E5" d="M827.703 513.066c2.349-3.258.979-6.787 0-8.144C814.192 482.235 778.36 477 768.373 477c-9.104 0-31.879 15.955-25.148 17.451 4.789 5.119 38.341 21.135 54.519 28.504 5.287 6.98 27.022-5.817 29.959-9.889z" class="color 2_4"/>
      <path fill="#4B5361" d="M746.051 494.451c14.098-1.745 46.406 21.523 51.693 28.504-16.178-7.369-49.731-23.385-54.519-28.504.652.145 1.581.154 2.826 0z" class="Vector 3.1_2"/>
    </g>
    <path stroke="#fff" stroke-width="3" d="M354.061 127.939l444 444" class="Line"/>
  </g>
</svg>
