<svg xmlns="http://www.w3.org/2000/svg" width="1152" height="700" fill="none" viewBox="0 0 1152 700">
  <g class="designing">
    <path fill="#fff" d="M0 0h1152v700H0z"/>
    <path fill="#ECE6E6" d="M429.714 219.501c75.6 93.6 241 95.505 315 140.5 99.5 60.5 0 134.5 53 186 83.929 81.554-285 210-561 11s98.5-454.5 193-337.5z" class="Vector"/>
    <g class="plant">
      <path fill="#FFEEC7" d="M360.629 318.906c-7.817 2.218-14.096 15.761-16.258 22.255-1.386 2.138-4.432 5.007-5.52-.619-1.361-7.033-7.77-15.062-12.394-16.011-1.138 5.032-2.178 15.58 2.765 17.51 6.179 2.414 12.255 13.415 5.322 10.057-6.933-3.358-9.33-12.657-25.376-11.447 1.197 5.007 6.765 16.411 19.466 21.964 15.876 6.942 12.722 16.908 4.281 11.661-8.441-5.248-16.029-14.269-31.177-13.389 1.125 6.576 5.801 20.345 15.5 22.809 12.124 3.081 31.463 10.841 27.919 15.603-3.544 4.762-24.006-12.154-33.821-12.825-7.851-.537-13.307-.203-15.053.031 1.267 6.592 7.688 20.384 23.239 22.818 19.439 3.041 37.318 8.487 31.507 14.285-5.811 5.798-18.581-10.685-34.861-11.222-13.023-.429-15.621 1.257-15.291 2.154 1.535 5.476 9.202 16.857 27.585 18.576 22.979 2.148 31.468 6.971 27.876 12.158-3.592 5.187-18.672-13.706-45.343-5.948 2.527 5.586 10.647 17.018 22.915 18.051 15.335 1.291 37.555 6.364 33.725 13.674-3.83 7.31-20.47-9.177-36.139-7.495-12.535 1.345-12.554 2.031-10.997 2.206.592 4.94 4.91 15.257 17.441 17.007 15.665 2.188 44.823 6.75 42.453 16.374-2.37 9.624-13.775-3.696-24.058-7.86-8.226-3.331-20.792-2.476-26.047-1.633 2.511 5.729 10.089 17.386 20.319 18.19 12.787 1.005 42.318 9.909 41.651 15.854-.667 5.945-13.684-.675-21.09-3.656-7.405-2.981-18.442-8.09-29.11-4.987.387 5.49 4.898 16.89 19.846 18.567 18.685 2.097 34.917 3.058 34.059 10.702-.857 7.644-6.79-4.632-21.514-3.704-11.779.742-17.494 2.623-18.88 3.471 1.805 4.359 8.008 12.939 18.391 12.384 12.977-.694 32.325-.673 30.713 6.026-1.611 6.699-12.973-3.176-19.958-2.239-5.588.749-12.272 2.063-14.915 2.626.939 4.405 8.141 12.523 29.435 9.753 3.886-.137 11.307.409 9.906 3.692-1.75 4.103-16.514-2.284-21.566.59.563 2.643 3.436 7.695 10.421 6.759 6.986-.936 16.434 4.281 20.284 7.006.242-1.979 1.324-6.731 3.72-9.902 1.158-3.395 3.579-7.45 7.581-10.33 9.822-7.067 11.252-19.807 8.279-20.141-2.972-.333-11.153 15.089-14.502 14.283-3.349-.806 2.37-9.624 8.7-16.224 5.065-5.279 5.62-18.146 5.265-23.919-3.039 2.812-9.553 10.022-11.297 16.363l-.127.462c-2.112 7.689-3.648 13.279-7.672 11.562-4.104-1.75 3.414-15.097 10.599-25.47 5.747-8.299 4.491-22.143 3.145-28.027-2.252 2.184-7.568 7.664-10.82 12.116-4.064 5.563-6.018 22.974-9.931 19.525-3.913-3.449 7.006-20.284 15.044-34.432 6.43-11.318 2.511-23.654-.252-28.408-2.802 1.979-8.437 7.739-8.558 14.95-.151 9.013-7.491 32.269-13.007 27.78-5.517-4.489 9.991-31.559 13.778-42.314 3.029-8.604-1.017-19.034-3.42-23.173-3.778 3.016-6.993 8.675-9.597 16.553-2.604 7.877-7.301 30.57-13.853 23.815-6.551-6.755 10.178-29.388 17.362-39.761 5.748-8.3 3.359-22.27 1.447-28.218-3.211 1.79-13.038 12.727-15.17 20.228-2.132 7.5-9.09 27.359-13.424 19.993-4.333-7.366 13.48-28.157 19.815-38.626 5.068-8.375 3.391-22.553 1.919-28.595-12.328 10.227-16.587 21.359-17.302 27.729-.715 6.369-8.57 26.558-12.388 22.259-3.817-4.298 6.638-28.495 15.707-36.507 7.255-6.41 8.202-20.723 7.768-27.078-1.793.659-17.852 13.477-18.424 18.572-.571 5.096-3.6 12.926-8.704 20.093-5.105 7.168-7.111-13.267 9.276-25.188 13.11-9.537 14.643-27.024 13.77-34.575-26.024 21.159-12.674 24.808-26.275 34.891-13.602 10.084-5.274-10.482 7.335-19.387 10.088-7.124 12.941-24.634 13.107-32.499-10.711-.342-19.468 24.046-27.545 30.879-8.077 6.834-8.298-6.521 4.926-17.077 10.58-8.445 12.358-23.266 11.924-29.622-7.929 1.691-13.034 8.858-18.805 21.97-5.771 13.112-10.339 4-3.722-5.148 5.293-7.318 6.656-17.169 6.677-21.18z" class="Vector 3"/>
      <path fill="#FFCB56" d="M371.66 458.173c34.516 67.943 42.59 107.119 46.62 132.511.242-1.979 1.324-6.731 3.72-9.902 1.158-3.395 3.579-7.45 7.581-10.33 9.822-7.067 11.252-19.807 8.279-20.141-2.972-.333-11.153 15.089-14.502 14.283-3.349-.806 2.37-9.624 8.7-16.224 5.065-5.279 5.62-18.146 5.265-23.919-3.039 2.812-9.553 10.022-11.297 16.363l-.127.462c-2.112 7.689-3.648 13.279-7.672 11.562-4.104-1.75 3.414-15.097 10.599-25.47 5.747-8.299 4.491-22.143 3.145-28.027-2.252 2.184-7.568 7.664-10.82 12.116-4.064 5.563-6.018 22.974-9.931 19.525-3.913-3.449 7.006-20.284 15.044-34.432 6.43-11.318 2.511-23.654-.252-28.408-2.802 1.979-8.437 7.739-8.558 14.95-.151 9.013-7.491 32.269-13.007 27.78-5.517-4.489 9.991-31.559 13.778-42.314 3.029-8.604-1.017-19.034-3.42-23.173-3.778 3.016-6.993 8.675-9.597 16.553-2.604 7.877-7.301 30.57-13.852 23.815-6.552-6.755 10.177-29.388 17.361-39.761 5.748-8.3 3.359-22.27 1.447-28.218-3.211 1.79-13.038 12.727-15.17 20.228-2.132 7.5-9.09 27.359-13.424 19.993-4.333-7.366 13.48-28.157 19.815-38.626 5.068-8.375 3.391-22.553 1.919-28.595-12.328 10.227-16.587 21.359-17.302 27.729-.715 6.369-8.57 26.558-12.388 22.259-3.817-4.298 6.638-28.495 15.707-36.507 7.255-6.41 8.202-20.723 7.768-27.078-1.793.659-17.852 13.477-18.424 18.572-.571 5.096-3.6 12.926-8.704 20.093-5.105 7.168-7.111-13.267 9.276-25.188 13.11-9.537 14.643-27.024 13.77-34.575-26.024 21.159-12.674 24.808-26.275 34.891-13.602 10.084-5.274-10.482 7.335-19.387 10.088-7.124 12.941-24.634 13.107-32.499-10.711-.342-19.468 24.046-27.545 30.879-8.077 6.834-8.298-6.521 4.926-17.077 10.58-8.445 12.358-23.266 11.924-29.622-7.929 1.691-13.033 8.858-18.805 21.97-5.771 13.112-10.339 4-3.722-5.148 5.293-7.318 6.656-17.169 6.677-21.18-7.817 2.218-14.096 15.761-16.258 22.255-2.409 16.357-.323 62.658 27.289 117.012z" class="Vector 3.1"/>
    </g>
    <g class="girl">
      <g class="Vector 4">
        <path fill="#EDC7C5" d="M504.046 266.123c-9.861-8.217-14.381-21.913-15.408-27.734 18.49-27.734 48.278-14.381 45.197 13.353-1.139 10.247-3.82 16.288-7.37 19.313.06 2.122 1.617 7.188 7.37 10.475 7.19 4.109 20.543 4.109 29.788 8.218 9.245 4.108 30.816 93.474 31.843 99.637 1.027 6.163-4.109 14.381-11.299 7.191-7.19-7.191-24.653-71.904-33.897-65.741-9.245 6.163-67.795-12.326-66.768-6.163 1.027 6.163-18.489 40.061-14.38 40.061 4.108 0 80.12 7.19 90.392 7.19 10.272 0 18.49 17.462 18.49 24.653 0 7.19-14.381-3.082-18.49-7.191-4.108-4.109-94.501 1.027-108.882-6.163s11.299-71.903 14.381-81.148c3.081-9.245 5.136-12.326 26.707-12.326 17.256 0 20.201-12.462 19.516-18.693-2.409-1.272-4.837-2.971-7.19-4.932zM593.412 462.316c0 13.148 24.652 76.012 36.979 105.801 2.026 4.93 8.376 2.054 11.299 0-6.506-33.213-19.722-101.898-20.544-110.937-1.027-11.299-27.734-11.299-27.734 5.136zM685.859 565.035c0 4.93-8.218 2.054-12.326 0-13.97-13.148-36.637-73.958-46.224-102.719 0-11.505 13.011-8.218 19.517-5.136 13.011 33.897 39.033 102.924 39.033 107.855z"/>
      </g>
      <path fill="#EE7E79" d="M487.612 343.161c-4.931-11.504-9.588-41.772-11.3-55.468 0-4.931 7.533-2.054 11.3 0 6.163 28.761 24.652 30.816 43.142 30.816 14.791 0 19.174-22.599 19.516-33.898h8.218c-.343 8.56-.822 27.324 0 33.898 1.027 8.217 23.625 83.202 40.06 89.365 13.148 4.931 40.403 35.61 52.387 50.333-10.272 4.793-34.103 15.613-47.251 20.544-13.148 4.93-17.804-2.055-18.489-6.164-15.408-24.652-68.822-10.272-86.284-23.625-17.463-13.354-6.163-31.843 4.108-50.332 10.272-18.49-9.244-41.088-15.407-55.469z" class="color 2"/>
      <g class="Vector 7">
        <path fill="#C4C4C4" d="M630.391 576.334c-3.287-2.466-1.369-14.039 0-19.517 16.435 0 39.033 11.299 39.033 15.408s-34.924 7.19-39.033 4.109zM673.533 572.225c-2.465-3.287-1.027-9.587 0-12.326 13.354-5.007 44.169 8.217 42.115 12.326-2.054 4.109-39.033 4.109-42.115 0z"/>
      </g>
      <path fill="#4B5361" d="M516.373 232.225c-4.109 3.287-16.778 4.793-22.598 5.136 8.217 12.327 2.054 25.678-4.109 15.407-6.163-10.272-3.082-22.598 4.109-31.843 2.533-3.257 7.106-4.984 12.326-5.316-2.054-1.994-5.547-7.216-3.082-12.147 3.082-6.163 11.299-10.272 13.354-5.136 2.054 5.136 10.272 5.317 8.217 11.3-1.643 4.787-3.52 7.473-4.253 8.218 5.104 1.932 9.677 5.054 12.471 9.244 6.467 9.701 2.861 26.16.135 33.538.714-2.014 1.919-7.084 1.919-14.021 0-9.244-13.353-18.489-18.489-14.38z" class="Vector 6"/>
    </g>
    <g class="table">
      <path fill="#C4C4C4" d="M389 389.03V373h374v16.03h-19.139v18.434H417.708V389.03H389z" class="Vector 3_2"/>
      <path fill="#4B5361" d="M389 389.03V373h374v16.03H389z" class="Vector 3.2"/>
      <path fill="#4B5361" d="M417.707 587l23.126-179.535h280.699L750.24 587h-9.569l-28.708-179.535h-12.759L678.47 587h-9.569l20.734-179.535H472.73L503.033 587h-9.569l-28.708-179.535h-14.354L428.074 587h-10.367z" class="Vector 3.1_2"/>
    </g>
    <g class="computer">
      <path fill="#F6F6F6" fill-opacity=".7" d="M526 213h224v136H526z" class="Rectangle 2"/>
      <path fill="#F1F1F1" d="M615 349h43v24h-43z" class="Rectangle 3"/>
    </g>
    <g class="chair">
      <g class="Vector 4_2">
        <path fill="#F1F1F1" d="M573.8 588l-29.644-133h8.177L583 588h-9.2zM514.511 455h-9.2L491 588h10.222l13.289-133z"/>
      </g>
      <path fill="#7D8CA6" d="M498 445h66v14h-66z" class="Rectangle 4"/>
    </g>
    <g class="postit3">
      <path fill="#7D8CA6" d="M705.027 196.477l64.19 2.707c1.856-9.59-3.609-42.278-6.574-57.423l-57.616-2.127v56.843z" class="Vector 6.1"/>
      <path fill="#DAE4FA" d="M700 195.316v-60.323l64.19 1.933c2.32 23.782-.387 50.269-9.861 56.456-7.579 4.95-39.377 3.352-54.329 1.934z" class="color 1"/>
      <path fill="#EE7E79" d="M732.482 135.96a3.48 3.48 0 111.16-.198l-.387 1.938-.773-1.74z" class="color 2_2"/>
      <ellipse cx="738.295" cy="138.111" fill="#C4B7B6" class="Ellipse 2.10" rx="3.48" ry="1.74" transform="rotate(22.157 738.295 138.111)"/>
    </g>
    <g class="post it 4">
      <path fill="#7D8CA6" d="M889.843 173.836c-7.27 4.64-38.862.386-53.749-2.32 1.546-7.425.644-37.509 0-51.623h57.809c1.353 10.441 5.027 48.142-4.06 53.943z" class="Vector 7.2"/>
      <path fill="#DAE4FA" d="M833 175.19v-58.97h61.87c.837 12.503 2.01 38.089 0 40.409-2.514 2.9-12.954 15.66-19.335 18.561H833z" class="color 1_2"/>
      <path fill="#C4C4C4" d="M875.535 175.189c6.38-2.9 16.821-15.661 19.334-18.561-6.032.928-11.407.387-13.34 0 0 7.27-3.996 15.403-5.994 18.561z" class="Vector 4.3"/>
      <path fill="#EE7E79" d="M866.062 117.96a3.48 3.48 0 111.16-.198l-.386 1.938-.774-1.74z" class="color 2_3"/>
      <ellipse cx="871.874" cy="120.111" fill="#C4B7B6" class="Ellipse 2.11" rx="3.48" ry="1.74" transform="rotate(22.157 871.874 120.111)"/>
    </g>
    <g class="post it 6">
      <path fill="#7D8CA6" d="M853.024 309.257c-6.651 3.402-41.955 1.417-58.776 0l-3.094-51.623 52.009-5.607c6.497 5.259 9.281 40.344 9.861 57.23z" class="Vector 8.2"/>
      <path fill="#DAE4FA" d="M790.574 312.736L784 254.734l60.323-7.154c5.877 25.831 5.8 49.173 5.027 57.616-6.187 4.176-41.762 6.767-58.776 7.54z" class="color 1_3"/>
      <path fill="#EE7E79" d="M813.195 253.96a3.48 3.48 0 111.16-.198l-.387 1.938-.773-1.74z" class="color 2_4"/>
      <ellipse cx="819.008" cy="256.111" fill="#C4B7B6" class="Ellipse 2.14" rx="3.48" ry="1.74" transform="rotate(22.157 819.008 256.111)"/>
    </g>
    <g class="post it 1">
      <path fill="#7D8CA6" d="M428.622 296.29c-13.405 4.826-49.525.522-65.909-2.234 4.29-6.971 1.787-48.035 0-67.696l64.345 4.692 1.564 65.238z" class="Vector 6.3"/>
      <path fill="#DAE4FA" d="M354 286.46c5.183-8.401 6.181-46.248 6.032-64.122l69.037 4.915c-.745 17.427-2.547 53.979-3.798 60.77-.579 3.144-1.117 3.505-1.564 2.595-12.154 2.076-51.535-1.907-69.707-4.158z" class="color 1_4"/>
      <path fill="#EE7E79" d="M393.545 229.488a4.022 4.022 0 111.341-.228l-.447 2.239-.894-2.011z" class="color 2_5"/>
      <ellipse cx="400.263" cy="231.974" fill="#C4B7B6" class="Ellipse 2.8" rx="4.022" ry="2.011" transform="rotate(22.157 400.263 231.974)"/>
      <path stroke="#8A6564" d="M368.129 237.585h50.387v3.468h-50.387z" class="Rectangle"/>
      <path stroke="#8A6564" d="M368.129 247.862h50.387v3.468h-50.387z" class="Rectangle_2"/>
      <path fill="#C4C4C4" d="M367.629 258.981h10.277v12.511h-10.277z" class="Rectangle_3"/>
      <path fill="#C4C4C4" d="M386.396 258.981h10.277v12.511h-10.277z" class="Rectangle_4"/>
      <path fill="#C4C4C4" d="M405.164 258.981h10.277v12.511h-10.277z" class="Rectangle_5"/>
      <path fill="#C4C4C4" d="M422.59 284.673L354 286.461c18.172 2.251 57.553 6.234 69.707 4.158-.519-1.056-.917-3.825-1.117-5.946z" class="Vector_2"/>
    </g>
    <g class="post it 8">
      <path fill="#7D8CA6" d="M921.39 328.703c-3.248-2.938-35.769-4.189-51.623-4.447l-2.9-56.069 56.843 2.707c4.331 13.611.258 44.211-2.32 57.809z" class="Vector 9.1"/>
      <path fill="#DAE4FA" d="M863 326.383l1.16-61.483 60.71 1.16c-.258 13.921-1.161 42.381-2.707 44.856-1.934 3.093-4.254 11.793-10.247 15.467H863z" class="color 1_5"/>
      <path fill="#EE7E79" d="M895.675 268.96a3.48 3.48 0 111.161-.198l-.387 1.938-.774-1.74z" class="color 2_6"/>
      <ellipse cx="901.487" cy="271.111" fill="#C4B7B6" class="Ellipse 2.12" rx="3.48" ry="1.74" transform="rotate(22.157 901.487 271.111)"/>
      <path stroke="#8A6564" d="M873.748 276.807h43.469v2.867h-43.469z" class="Rectangle_6"/>
      <path stroke="#8A6564" d="M873.748 285.701h43.469v2.867h-43.469z" class="Rectangle_7"/>
      <path fill="#C4C4C4" d="M873.248 295.255h8.894v10.827h-8.894z" class="Rectangle_8"/>
      <path fill="#C4C4C4" d="M889.488 295.255h8.894v10.827h-8.894z" class="Rectangle_9"/>
      <path fill="#C4C4C4" d="M905.729 295.255h8.894v10.827h-8.894z" class="Rectangle_10"/>
    </g>
    <g class="post it 7">
      <path fill="#7D8CA6" d="M930.19 252.251c-25.676-9.126-51.429-3.03-61.096 1.16 2.475-3.094 1.031-41.247 0-59.937l54.329 2.321c3.403 7.269 5.929 40.666 6.767 56.456z" class="Vector 8.1"/>
      <path fill="#DAE4FA" d="M926.903 246.257c-5.414 2.474-42.858 2.062-60.903 1.546 2.629-4.331 1.096-41.375 0-59.356h59.936c.773 4.64.967 40.473.967 57.81z" class="color 1_6"/>
      <path fill="#EE7E79" d="M900.029 190.96a3.48 3.48 0 111.16-.198l-.387 1.938-.773-1.74z" class="color 2_7"/>
      <ellipse cx="905.84" cy="193.111" fill="#C4B7B6" class="Ellipse 2.13" rx="3.48" ry="1.74" transform="rotate(22.157 905.84 193.111)"/>
      <path fill="#C4C4C4" d="M879.146 200.24h8.894v10.827h-8.894z" class="Rectangle_11"/>
      <path stroke="#8A6564" d="M895.115 204.608h24.908v2.093h-24.908z" class="Rectangle_12"/>
      <path fill="#C4C4C4" d="M903.508 220.735h17.401v20.494h-17.401z" class="Rectangle_13"/>
    </g>
    <g class="postit 2">
      <path fill="#7D8CA6" d="M480.276 198.93c-15.371 1.43-49.897 9.086-65.238 12.735 3.396-9.116-3.65-46.844-7.597-64.568l58.983-11.171c1.966 5.54 10.054 44.311 13.852 63.004z" class="Vector 6.2"/>
      <path fill="#DAE4FA" d="M407.664 205.186L395.6 140.394 465.977 129c1.966 4.468 6.032 43.418 7.82 62.334-3.039-2.323-45.355 8.267-66.133 13.852z" class="color 1_7"/>
      <path fill="#EE7E79" d="M432.91 137.267a4.022 4.022 0 111.341-.229l-.447 2.239-.894-2.01z" class="color 2_8"/>
      <ellipse cx="439.628" cy="139.751" fill="#C4B7B6" class="Ellipse 2.9" rx="4.022" ry="2.011" transform="rotate(22.157 439.628 139.751)"/>
      <path stroke="#8A6564" d="M412.963 152.458l47.73-9.47.245 1.233-47.73 9.47z" class="Rectangle_14"/>
      <path stroke="#8A6564" d="M413.838 158.496l47.73-9.47.245 1.233-47.73 9.47z" class="Rectangle_15"/>
      <path stroke="#8A6564" d="M415.625 165.198l47.73-9.47.245 1.233-47.73 9.47z" class="Rectangle_16"/>
    </g>
    <g class="post it 5">
      <path fill="#7D8CA6" d="M847.417 247.376l-60.13-12.18 9.087-55.103 53.749 8.314-2.706 58.969z" class="Vector 7.1"/>
      <path fill="#DAE4FA" d="M784 233.456L793.86 177l59.357 9.087-9.861 56.456L784 233.456z" class="color 1_8"/>
      <path fill="#EE7E79" d="M823.248 185.313a3.48 3.48 0 111.16-.198l-.387 1.938-.773-1.74z" class="color 2_9"/>
      <ellipse cx="829.061" cy="187.464" fill="#C4B7B6" class="Ellipse 2.15" rx="3.48" ry="1.74" transform="rotate(22.157 829.061 187.464)"/>
      <path stroke="#8A6564" stroke-width=".976" d="M799.081 198.963l41.98 1.275-.03.975-41.98-1.274z" class="Rectangle_17"/>
      <path stroke="#8A6564" stroke-width=".976" d="M798.647 204.224l41.98 1.275-.03.975-41.98-1.274z" class="Rectangle_18"/>
      <path stroke="#8A6564" stroke-width=".976" d="M798.852 210.224l41.98 1.275-.03.975-41.98-1.274z" class="Rectangle_19"/>
    </g>
    <g class="plant_2">
      <g class="Vector 5">
        <path fill="#FFCB56" d="M776.195 552.017c-8.526-4.263-26.492-15.712-30.146-27.405 7.917 4.872 25.03 17.174 30.146 27.405zM780.763 549.277c-14.617-15.53-44.032-48.051-44.763-53.898 9.135 1.523 30.877 14.434 44.763 53.898-3.35-15.53-12.79-50.061-23.752-63.947 6.395 2.436 20.098 9.684 23.752 19.184 3.654 9.501 1.522 33.801 0 44.763z"/>
      </g>
      <path fill="#8A6564" d="M799.033 552.931c-.609 8.831-3.655 27.041-10.963 29.233-9.135 2.741-14.616-1.827-14.616-5.481 0-2.923-1.827-17.053-2.741-23.752-.913-.913-2.375-3.288-.913-5.481 8.831.609 27.04 1.462 29.233 0 2.74-1.827 1.827 4.954 0 5.481z" class="Vector 3_3"/>
      <g class="Vector 4_3">
        <path fill="#FADB96" d="M785.331 551.104c-9.44-16.139-28.319-50.609-28.319-59.379 11.267 7.004 32.704 28.685 28.319 59.379zM828.267 532.833c-29.233.731-36.541 12.485-36.541 18.271-.604-3.621-.665-6.97-.283-10.049-5.996-14.616-14.882-46.772-2.458-58.465a35.042 35.042 0 012.458-2.11c-2.647-11.782-2.275-37.172 20.38-44.48-5.786 6.09-16.809 20.098-14.616 27.406 2.74-5.481 10.231-15.53 18.27-11.876-4.872 2.446-14.616 8.976-14.616 15.53 3.958-3.959 14.982-10.414 27.406-4.568-9.44 1.199-28.137 5.428-27.406 12.76 12.99-4.762 26.015-.924 27.406 1.857-10.847-.305-33.397 1.827-36.824 12.789 10.752-5.177 35.727-12.789 49.613-1.827-17.357.304-52.071 4.567-52.071 19.184 17.052-7.004 57.369-18.088 82.217-6.395-26.681-1.218-79.986 5.116-79.759 40.195 2.508-20.224 24.138-28.75 36.824-25.578 11.693 2.923 33.495 3.654 42.935 3.654-2.131 4.263-13.703 12.972-42.935 13.702z"/>
      </g>
    </g>
  </g>
</svg>
