<svg xmlns="http://www.w3.org/2000/svg" width="1152" height="700" fill="none" viewBox="0 0 1152 700">
  <g class="design">
    <path fill="#fff" d="M0 0h1152v700H0z"/>
    <g class="Group 15.1">
      <path fill="#EDEEF3" d="M727.582 388.344L280 281.047l180.259-83.385 411.408 83.385-144.085 107.297z" class="Vector"/>
      <g class="Group 14">
        <g class="Group 11">
          <path fill="#256E7E" d="M725.129 272.463l17.781-156.96 80.933 14.102-19.62 156.96-79.094-14.102z" class="Vector 6.1"/>
        </g>
        <g class="Group 13">
          <path fill="#256E7E" d="M478.653 220.96L496.433 64l241.572 31.27-20.233 174.127-239.119-48.437z" class="Vector 6"/>
        </g>
      </g>
      <path fill="#F9F9F9" d="M528.316 196.205l11.879-84.688 108.064 17.244-11.496 89.67-108.447-22.226z" class="Vector 2"/>
      <path fill="#ECECEC" d="M570.266 150.565l1.978-10.879a3.066 3.066 0 013.422-2.491l11.24 1.499a3.066 3.066 0 012.624 3.51l-1.731 11.129a3.066 3.066 0 01-3.49 2.56l-11.488-1.749a3.065 3.065 0 01-2.555-3.579z" class="Vector 4"/>
      <path fill="#ECECEC" d="M590.193 153.631l1.978-10.88a3.066 3.066 0 013.422-2.49l11.24 1.499a3.066 3.066 0 012.624 3.51l-1.731 11.129a3.066 3.066 0 01-3.491 2.559l-11.487-1.748a3.066 3.066 0 01-2.555-3.579z" class="Vector 4.1"/>
      <path fill="#ECECEC" d="M610.12 156.697l1.978-10.88a3.066 3.066 0 013.421-2.491l11.24 1.499a3.065 3.065 0 012.624 3.51l-1.731 11.129a3.065 3.065 0 01-3.49 2.56l-11.487-1.748a3.066 3.066 0 01-2.555-3.579z" class="Vector 4.2"/>
      <path stroke="#1A3DF2" stroke-dasharray="2.3 2.3" stroke-width=".307" d="M565.87 175.129l3.066-16.861 35.638 5.748-1.916 17.628-36.788-6.515z" class="Vector 4.3"/>
      <path fill="#ECECEC" d="M541.413 182.18l7.495-48.376a3.066 3.066 0 013.594-2.544l12.324 2.311a3.066 3.066 0 012.458 3.524l-8.171 48.344a3.065 3.065 0 01-3.611 2.498l-11.648-2.279a3.065 3.065 0 01-2.441-3.478z" class="Vector 3"/>
      <g class="Group 10">
        <g class="Group 8.1">
          <g class="Group 7">
            <ellipse cx="425.81" cy="623.008" fill="#F3F3F3" class="Ellipse" rx="30.209" ry="7.984"/>
          </g>
          <path fill="#DCEEFF" d="M399.701 631.208c-4.747-4.1-4.1-7.553-4.1-7.553 23.735 13.163 58.907 5.179 60.633-1.079l-1.942 7.337c-13.119 11.738-49.844 5.394-54.591 1.295z" class="Vector 2_2"/>
        </g>
        <path fill="#DCEEFF" d="M421.114 520.304h12.771v102.587c-5.099 4.054-7.673 3.33-12.771 0V520.304z" class="Rectangle"/>
        <g class="Group 8">
          <g class="Group 7_2">
            <ellipse cx="423.243" cy="500.616" fill="#E8E7E7" class="Ellipse_2" rx="74.499" ry="19.689"/>
          </g>
          <path fill="#DCEEFF" d="M358.854 520.837c-11.707-10.111-10.111-18.625-10.111-18.625 58.535 32.46 145.273 12.771 149.53-2.66l-4.789 18.092c-32.354 28.948-122.923 13.303-134.63 3.193z" class="Vector 2_3"/>
        </g>
      </g>
      <g class="Group 4">
        <path fill="#fff" d="M646.036 311.09l-141.632-33.108 30.043-35.562 134.888 30.657 1.226 4.905-21.459 34.948-3.066-1.84z" class="Vector 7"/>
        <g class="Group 4_2">
          <g class="Group 3">
            <g class="Group 2">
              <path fill="#EFEFEF" d="M530.156 254.683l3.679-4.292 6.131 1.226-3.066 4.905-6.744-1.839z" class="Vector 8"/>
              <path fill="#EFEFEF" d="M538.74 257.135l2.452-4.905 6.131 1.84-2.452 4.905-6.131-1.84z" class="Vector 8.1"/>
              <path fill="#EFEFEF" d="M547.323 259.588l3.679-4.292 6.131 1.226-3.065 4.905-6.745-1.839z" class="Vector 8.2"/>
              <path fill="#EFEFEF" d="M555.907 262.041l2.452-4.905 6.132 1.839-2.453 4.905-6.131-1.839z" class="Vector 8.3"/>
            </g>
            <g class="Group 2.1">
              <path fill="#EFEFEF" d="M524.025 262.04l3.678-4.291 6.132 1.226-3.066 4.905-6.744-1.84z" class="Vector 8_2"/>
              <path fill="#EFEFEF" d="M532.609 264.493l2.452-4.905 6.131 1.839-2.452 4.905-6.131-1.839z" class="Vector 8.1_2"/>
              <path fill="#EFEFEF" d="M541.192 266.945l3.679-4.292 6.131 1.226-3.065 4.905-6.745-1.839z" class="Vector 8.2_2"/>
              <path fill="#EFEFEF" d="M549.776 269.397l2.453-4.905 6.131 1.84-2.453 4.905-6.131-1.84z" class="Vector 8.3_2"/>
            </g>
            <g class="Group 2.2">
              <path fill="#EFEFEF" d="M517.893 269.398l3.679-4.292 6.131 1.226-3.065 4.905-6.745-1.839z" class="Vector 8_3"/>
              <path fill="#EFEFEF" d="M526.477 271.85l2.453-4.905 6.131 1.839-2.452 4.905-6.132-1.839z" class="Vector 8.1_3"/>
              <path fill="#EFEFEF" d="M535.061 274.303l3.679-4.292 6.131 1.226-3.066 4.905-6.744-1.839z" class="Vector 8.2_3"/>
              <path fill="#EFEFEF" d="M543.645 276.755l2.452-4.905 6.132 1.839-2.453 4.905-6.131-1.839z" class="Vector 8.3_3"/>
            </g>
          </g>
          <g class="Group 3.1">
            <g class="Group 2_2">
              <path fill="#EFEFEF" d="M566.943 263.267l3.679-4.292 6.131 1.226-3.065 4.905-6.745-1.839z" class="Vector 8_4"/>
              <path fill="#EFEFEF" d="M575.527 265.719l2.453-4.905 6.131 1.839-2.452 4.905-6.132-1.839z" class="Vector 8.1_4"/>
              <path fill="#EFEFEF" d="M584.111 268.171l3.679-4.292 6.131 1.227-3.066 4.905-6.744-1.84z" class="Vector 8.2_4"/>
              <path fill="#EFEFEF" d="M592.695 270.624l2.452-4.905 6.132 1.839-2.453 4.905-6.131-1.839z" class="Vector 8.3_4"/>
            </g>
            <g class="Group 2.1_2">
              <path fill="#EFEFEF" d="M560.812 270.624l3.679-4.292 6.131 1.227-3.065 4.905-6.745-1.84z" class="Vector 8_5"/>
              <path fill="#EFEFEF" d="M569.396 273.077l2.452-4.905 6.132 1.839-2.453 4.905-6.131-1.839z" class="Vector 8.1_5"/>
              <path fill="#EFEFEF" d="M577.98 275.529l3.679-4.291 6.131 1.226-3.066 4.905-6.744-1.84z" class="Vector 8.2_5"/>
              <path fill="#EFEFEF" d="M586.563 277.982l2.453-4.905 6.131 1.839-2.452 4.905-6.132-1.839z" class="Vector 8.3_5"/>
            </g>
            <g class="Group 2.2_2">
              <path fill="#EFEFEF" d="M554.681 277.981l3.679-4.292 6.131 1.227-3.066 4.905-6.744-1.84z" class="Vector 8_6"/>
              <path fill="#EFEFEF" d="M563.265 280.434l2.452-4.905 6.132 1.839-2.453 4.905-6.131-1.839z" class="Vector 8.1_6"/>
              <path fill="#EFEFEF" d="M571.849 282.886l3.678-4.292 6.132 1.227-3.066 4.905-6.744-1.84z" class="Vector 8.2_6"/>
              <path fill="#EFEFEF" d="M580.432 285.338l2.453-4.905 6.131 1.84-2.452 4.905-6.132-1.84z" class="Vector 8.3_6"/>
            </g>
          </g>
          <g class="Group 3.2">
            <g class="Group 2_3">
              <path fill="#EFEFEF" d="M603.731 274.303l3.678-4.292 6.132 1.226-3.066 4.905-6.744-1.839z" class="Vector 8_7"/>
              <path fill="#EFEFEF" d="M612.315 276.755l2.452-4.905 6.131 1.839-2.452 4.905-6.131-1.839z" class="Vector 8.1_7"/>
              <path fill="#EFEFEF" d="M620.898 279.207l3.679-4.292 6.131 1.226-3.065 4.905-6.745-1.839z" class="Vector 8.2_7"/>
              <path fill="#EFEFEF" d="M629.482 281.66l2.453-4.905 6.131 1.839-2.453 4.905-6.131-1.839z" class="Vector 8.3_7"/>
            </g>
            <g class="Group 2.1_3">
              <path fill="#EFEFEF" d="M597.6 281.66l3.678-4.292 6.132 1.227-3.066 4.905-6.744-1.84z" class="Vector 8_8"/>
              <path fill="#EFEFEF" d="M606.184 284.113l2.452-4.905 6.131 1.839-2.452 4.905-6.131-1.839z" class="Vector 8.1_8"/>
              <path fill="#EFEFEF" d="M614.767 286.565l3.679-4.292 6.131 1.227-3.065 4.905-6.745-1.84z" class="Vector 8.2_8"/>
              <path fill="#EFEFEF" d="M623.351 289.018l2.452-4.905 6.132 1.839-2.453 4.905-6.131-1.839z" class="Vector 8.3_8"/>
            </g>
            <g class="Group 2.2_3">
              <path fill="#EFEFEF" d="M591.468 289.018l3.679-4.292 6.131 1.226-3.065 4.905-6.745-1.839z" class="Vector 8_9"/>
              <path fill="#EFEFEF" d="M600.052 291.47l2.453-4.905 6.131 1.84-2.453 4.905-6.131-1.84z" class="Vector 8.1_9"/>
              <path fill="#EFEFEF" d="M608.636 293.923l3.678-4.292 6.132 1.226-3.066 4.905-6.744-1.839z" class="Vector 8.2_9"/>
              <path fill="#EFEFEF" d="M617.219 296.375l2.453-4.905 6.131 1.84-2.452 4.905-6.132-1.84z" class="Vector 8.3_9"/>
            </g>
          </g>
        </g>
      </g>
      <g class="Group 6">
        <g class="Group">
          <path fill="#FFB9B9" d="M450.581 164.554l-6.744 25.751-25.138-17.781 4.905-22.685 26.977 14.715z" class="Vector 5"/>
          <path fill="#EFC2C2" d="M467.748 164.553c.778-5.765-3.506-47.377-3.506-47.377-47.579-31.882-47.996 18.357-44.93 42.473 0 0 45.543 26.363 48.436 4.904z" class="Vector 6_2"/>
        </g>
        <path fill="#000" d="M520.958 607.842l-1.226-17.167c12.263 0 20.233-5.519 22.686-7.971 0 0 21.994-3.825 31.97 4.904 4.204 3.68-53.43 20.234-53.43 20.234z" class="Vector 2_4"/>
        <path fill="#EFC2C2" d="M702.576 273.076l-15.329 11.036 6.745 14.102 22.685-2.453 4.905-13.488-4.905-6.745-14.101-2.452z" class="Vector 5_2"/>
        <path fill="#496FF4" fill-rule="evenodd" d="M416.859 169.457c-32.291 24.934-94.054 110.486-82.772 253.221 142.736 56.408 182.916 9.606 185.164-20.846v-49.663c.12-.598.239-1.203.356-1.813 6.783 2.113 14.168 2.989 22.197 2.348 83.518-6.667 152.187-52.729 152.187-52.729 2.736-13.775-1.989-17.109-20.846-15.864l-143.471 15.864c-10.413-44.565-31.134-115.188-60.302-113.986-13.981-8.712-31.268-14.626-52.513-16.532z" class="Union" clip-rule="evenodd"/>
        <path fill="#000" fill-opacity=".03" d="M529.674 299.975c-12.263-52.484-38.823-141.11-76.641-105.993-8.583 7.971 5.253 165.388 88.771 158.722 83.518-6.667 152.188-52.729 152.188-52.729 2.735-13.774-1.99-17.109-20.847-15.864l-143.471 15.864z" class="Vector 2.1"/>
        <path fill="#FF97CF" d="M555.426 594.354l4.159-116.494c-7.216 2.746-1.812.752-8.584 3.065 0 0-3.275 103.258-9.196 107.911-8.584 6.744-22.686 1.839-22.686 1.839l-12.876-95.648c-145.924 36.745-174.275-38.405-172.288-80.32 38.423 8.584 115.757 10.308 181.617-10.422 52.597-16.554 86.932-5.115 101.034 4.905 14.102 10.02-7.839 172.289-7.839 172.289-11.281 21.582-40.261 17.576-53.341 12.875z" class="Vector 3_2"/>
        <path fill="#000" fill-opacity=".22" d="M550.388 480.312l-43.532 14.715 12.263 95.648s14.591 3.953 22.072-1.226c7.971-5.519 9.197-109.137 9.197-109.137z" class="Vector 6_3"/>
        <path fill="#000" stroke="#000" stroke-width="1.226" d="M556.84 629.915c-2.943-11.772-2.453-30.976 0-38.742-1.538 6.921 54.473-4.073 52.54-10.308 0 0 71.913 0 50.89 16.554-21.024 16.553-65.417 25.751-103.43 32.496z" class="Vector 4_2"/>
        <path fill="#000" stroke="#000" stroke-width="1.226" d="M449.968 247.554c-11.784 14.566-48.15 4.704-53.091-3.448-3.51-5.792 4.593-39.212 4.599-45.985.007-9.532 18.449-80.779 18.449-80.779s5.548-9.917 11.649-12.876c7.109-3.448 12.454-1.383 20.233 0 6.307 1.121 13.25-.832 15.58 5.135 1.099 2.816 1.431 5.078 0 7.741-1.616 3.004-7.609 4.292-7.609 4.292l-3.679 16.554s-1.583-5.18-4.292-5.518c-3.024-.378-4.861 2.542-5.518 5.518-.74 3.347 3.679 7.971 3.679 7.971l-3.679 23.988s8.639 71.276 3.679 77.407z" class="Vector 5_3"/>
      </g>
    </g>
  </g>
</svg>
