<svg xmlns="http://www.w3.org/2000/svg" width="1152" height="700" fill="none" viewBox="0 0 1152 700">
  <g class="designing1">
    <path fill="#fff" d="M0 0h1152v700H0z"/>
    <path stroke="#000" d="M417.708 389.03H389V373h374v16.03h-19.139m-326.153 0v18.434h23.126m-23.126-18.434h326.153m0 0v18.434h-22.328m-280.699 0L417.708 587h10.367l22.328-179.536m-9.569 0h9.569m0 0h14.354m0 0L493.465 587h9.569l-30.303-179.536m-7.974 0h7.974m0 0h216.904m0 0L668.902 587h9.569l20.734-179.536m-9.57 0h9.57m0 0h12.759m0 0L740.672 587h9.569l-28.708-179.536m-9.569 0h9.569" class="Vector 3"/>
    <g class="Group">
      <path stroke="#000" d="M506.101 215.609c-5.22.332-9.793 2.059-12.326 5.316-7.191 9.245-10.272 21.571-4.109 31.843 6.163 10.271 12.326-3.08 4.109-15.407 5.82-.343 18.489-1.849 22.598-5.136 5.136-4.109 18.489 5.136 18.489 14.38 0 7.396-1.369 12.669-2.054 14.381 2.739-7.191 6.574-24.037 0-33.898-2.794-4.19-7.367-7.312-12.471-9.244m-14.236-2.235c-2.054-1.994-5.547-7.216-3.082-12.147 3.082-6.163 11.299-10.272 13.354-5.136 2.054 5.136 10.272 5.317 8.217 11.3-1.643 4.787-3.52 7.473-4.253 8.218m-14.236-2.235c4.561-.29 9.616.485 14.236 2.235" class="Vector 6"/>
      <path stroke="#000" d="M511.236 271.055c-2.409-1.273-4.837-2.971-7.19-4.932-9.861-8.218-14.381-21.914-15.408-27.734 18.49-27.735 48.278-14.381 45.197 13.353-1.139 10.247-3.82 16.287-7.37 19.313m-15.229 0c.685 6.231-2.26 18.692-19.516 18.692-21.571 0-23.626 3.082-26.707 12.327-3.082 9.244-28.762 73.957-14.381 81.148 14.381 7.19 104.774 2.054 108.882 6.163 4.109 4.109 18.49 14.381 18.49 7.19 0-7.19-8.218-24.652-18.49-24.652-10.272 0-86.284-7.191-90.392-7.191-4.109 0 15.407-33.897 14.38-40.06-1.027-6.163 57.523 12.326 66.768 6.163 9.244-6.163 26.707 58.55 33.897 65.74 7.19 7.191 12.326-1.027 11.299-7.19-1.027-6.163-22.598-95.529-31.843-99.638-9.245-4.108-22.598-4.108-29.788-8.217-5.753-3.287-7.31-8.353-7.37-10.475m-15.229 0c5.55 2.93 11.005 3.6 15.229 0m103.926 297.061c-12.327-29.788-36.979-92.653-36.979-105.801 0-16.435 26.707-16.435 27.734-5.136.822 9.04 14.038 77.725 20.544 110.937-2.923 2.055-9.273 4.931-11.299 0zm43.142-3.081c4.108 2.054 12.326 4.93 12.326 0 0-4.931-26.022-73.958-39.033-107.856-6.506-3.081-19.517-6.368-19.517 5.136 9.587 28.762 32.254 89.572 46.224 102.72z" class="Vector 4"/>
      <path stroke="#000" d="M487.612 343.161c-4.931-11.504-9.588-41.772-11.3-55.468 0-4.931 7.533-2.054 11.3 0 6.163 28.761 24.652 30.816 43.142 30.816 14.791 0 19.174-22.599 19.516-33.898h8.218c-.343 8.56-.822 27.324 0 33.898 1.027 8.217 23.625 83.202 40.06 89.365 13.148 4.931 40.403 35.61 52.387 50.333-10.272 4.793-34.103 15.613-47.251 20.544-13.148 4.93-17.804-2.055-18.489-6.164-15.408-24.652-68.822-10.272-86.284-23.625-17.463-13.354-6.163-31.843 4.108-50.332 10.272-18.49-9.244-41.088-15.407-55.469z" class="Vector 5"/>
      <g class="Vector 7">
        <path stroke="#000" d="M630.391 576.334c-3.287-2.466-1.369-14.039 0-19.517 16.435 0 39.033 11.299 39.033 15.408s-34.924 7.19-39.033 4.109zM673.533 572.225c-2.465-3.287-1.027-9.587 0-12.326 13.354-5.007 44.169 8.217 42.115 12.326-2.054 4.109-39.033 4.109-42.115 0z"/>
      </g>
    </g>
    <path stroke="#000" d="M520.5 223.5h223v135h-223z" class="Rectangle 2"/>
    <path stroke="#000" d="M609.5 326.5h42v56h-42z" class="Rectangle 3"/>
    <path stroke="#000" d="M498.5 445.5h65v13h-65z" class="Rectangle 4"/>
    <g class="Vector 4_2">
      <path stroke="#000" d="M573.8 588l-29.644-133h8.177L583 588h-9.2zM514.511 455h-9.2L491 588h10.222l13.289-133z"/>
    </g>
    <g class="post it 3">
      <path stroke="#000" d="M690.691 203.823l59.903 2.526c1.733-8.949-3.368-39.454-6.134-53.588l-53.769-1.985v53.047z" class="Vector 6.1"/>
      <path stroke="#000" d="M686 202.74v-56.294l59.903 1.804c2.165 22.193-.361 46.912-9.202 52.686-7.073 4.619-36.748 3.128-50.701 1.804z" class="Vector 3.1"/>
      <path stroke="#000" d="M716.769 147.145l-.132-.297h-.325a2.748 2.748 0 11.916-.156l-.268.095-.056.278-.052.266-.083-.186z" class="Ellipse"/>
    </g>
    <ellipse cx="989.598" cy="150.765" fill="#C4C4C4" class="Ellipse 2.10" rx="4.184" ry="2.092" transform="rotate(22.157 989.598 150.765)"/>
    <g class="post it 4">
      <path stroke="#000" d="M811.236 302.732c-6.784 4.33-36.267.36-50.16-2.166 1.444-6.928.602-35.003 0-48.175h53.949c1.263 9.744 4.691 44.928-3.789 50.341z" class="Vector 7.2"/>
      <path stroke="#000" d="M815.927 286.674c1.877-2.166.782-26.043 0-37.71h-57.738v55.031h39.695m18.043-17.321c-2.345 2.706-12.089 14.615-18.043 17.321m18.043-17.321c-5.629.866-10.645.361-12.449 0 0 6.784-3.729 14.374-5.594 17.321" class="Vector 4.1"/>
      <path stroke="#000" d="M789.5 250.384l-.132-.297h-.325a2.747 2.747 0 11.916-.156l-.268.095-.056.279-.053.265-.082-.186z" class="Ellipse_2"/>
      <ellipse cx="794.468" cy="252.595" fill="#C4C4C4" class="Ellipse 2.11" rx="3.248" ry="1.624" transform="rotate(22.157 794.468 252.595)"/>
    </g>
    <g class="post it 6">
      <path stroke="#000" d="M887.031 181.099c-6.207 3.176-39.154 1.323-54.851 0l-2.887-48.175 48.536-5.232c6.062 4.907 8.661 37.65 9.202 53.407z" class="Vector 8.2"/>
      <path stroke="#000" d="M828.752 184.347l-6.135-54.13 56.295-6.676c5.485 24.106 5.413 45.89 4.691 53.769-5.774 3.897-38.973 6.315-54.851 7.037z" class="Vector 5.2"/>
      <path stroke="#000" d="M850.32 129.292l-.132-.296h-.325a2.748 2.748 0 11.916-.157l-.268.095-.056.279-.053.265-.082-.186z" class="Ellipse_3"/>
      <ellipse cx="855.286" cy="131.503" fill="#C4C4C4" class="Ellipse 2.14" rx="3.248" ry="1.624" transform="rotate(22.157 855.286 131.503)"/>
    </g>
    <g class="post it 1">
      <path stroke="#000" d="M427.636 272.869c-13.947 5.021-51.526.543-68.572-2.324 4.463-7.253 1.86-49.976 0-70.431l66.945 4.881 1.627 67.874z" class="Vector 6.3"/>
      <path stroke="#000" d="M350 262.642c5.393-8.74 6.431-48.117 6.276-66.712l71.826 5.114c-.775 18.13-2.65 56.158-3.952 63.225-.602 3.27-1.162 3.646-1.627 2.699M350 262.642l71.361-1.86c.208 2.206.622 5.087 1.162 6.186M350 262.642c18.906 2.342 59.878 6.486 72.523 4.326" class="Vector"/>
      <path stroke="#000" d="M391.6 203.165l-.132-.297h-.325a3.684 3.684 0 111.228-.209l-.268.094-.056.279-.157.787-.29-.654z" class="Ellipse_4"/>
      <ellipse cx="398.131" cy="205.954" fill="#C4C4C4" class="Ellipse 2.8" rx="4.184" ry="2.092" transform="rotate(22.157 398.131 205.954)"/>
      <path stroke="#000" d="M364.68 211.771h52.462v3.649H364.68z" class="Rectangle"/>
      <path stroke="#000" d="M364.68 222.464h52.462v3.649H364.68z" class="Rectangle_2"/>
      <path stroke="#000" d="M364.68 234.551h9.692v12.017h-9.692z" class="Rectangle_3"/>
      <path stroke="#000" d="M384.205 234.551h9.692v12.017h-9.692z" class="Rectangle_4"/>
      <path stroke="#000" d="M403.73 234.551h9.692v12.017h-9.692z" class="Rectangle_5"/>
    </g>
    <g class="post it 8">
      <path stroke="#000" d="M884.87 324.195c-3.031-2.743-33.38-3.91-48.175-4.15l-2.707-52.325 53.047 2.526c4.042 12.702.241 41.258-2.165 53.949z" class="Vector 9.1"/>
      <path stroke="#000" d="M885.591 307.594c1.443-2.309 2.285-28.869 2.526-41.86l-56.656-1.083-1.082 57.378h45.649m9.563-14.435c-1.805 2.887-3.97 11.006-9.563 14.435m9.563-14.435c-2.598 3.753-6.375 5.774-7.939 6.315.577 2.454-.842 6.436-1.624 8.12" class="Vector 5.3"/>
      <path stroke="#000" d="M861.328 268.238l-.132-.297h-.325a2.748 2.748 0 11.916-.156l-.268.094-.056.279-.053.265-.082-.185z" class="Ellipse_5"/>
      <ellipse cx="866.296" cy="270.449" fill="#C4C4C4" class="Ellipse 2.12" rx="3.248" ry="1.624" transform="rotate(22.157 866.296 270.449)"/>
      <path stroke="#000" d="M840.441 275.798h40.499v2.609h-40.499z" class="Rectangle_6"/>
      <path stroke="#000" d="M840.441 284.097h40.499v2.609h-40.499z" class="Rectangle_7"/>
      <path stroke="#000" d="M840.441 293.479h7.3v9.104h-7.3z" class="Rectangle_8"/>
      <path stroke="#000" d="M855.598 293.479h7.3v9.104h-7.3z" class="Rectangle_9"/>
      <path stroke="#000" d="M870.754 293.479h7.3v9.104h-7.3z" class="Rectangle_10"/>
    </g>
    <g class="post it 7">
      <path stroke="#000" d="M887.954 258.105c-23.962-8.516-47.995-2.827-57.016 1.083 2.309-2.887.962-38.492 0-55.934l50.701 2.165c3.175 6.784 5.533 37.951 6.315 52.686z" class="Vector 8.1"/>
      <path stroke="#000" d="M884.887 252.512c-5.053 2.31-39.996 1.925-56.836 1.444 2.454-4.042 1.022-38.613 0-55.393h55.933c.722 4.331.903 37.77.903 53.949z" class="Vector 5.1"/>
      <path stroke="#000" d="M860.263 200.706l-.132-.297h-.325a2.748 2.748 0 11.916-.157l-.268.095-.055.279-.053.265-.083-.185z" class="Ellipse_6"/>
      <ellipse cx="865.231" cy="202.916" fill="#C4C4C4" class="Ellipse 2.13" rx="3.248" ry="1.624" transform="rotate(22.157 865.231 202.916)"/>
      <path stroke="#000" d="M840.82 210.069h7.3v9.104h-7.3z" class="Rectangle_11"/>
      <path stroke="#000" d="M855.254 213.679h23.178v1.887h-23.178z" class="Rectangle_12"/>
      <path stroke="#000" d="M863.555 229.196h15.239v18.126h-15.239z" class="Rectangle_13"/>
    </g>
    <g class="post it 2">
      <path stroke="#000" d="M498.098 197.755c-15.993 1.488-51.913 9.453-67.875 13.25 3.534-9.484-3.796-48.736-7.903-67.177l61.366-11.622c2.045 5.764 10.46 46.102 14.412 65.549z" class="Vector 6.2"/>
      <path stroke="#000" d="M422.552 204.264L410 136.855 483.22 125c2.046 4.649 6.276 45.172 8.136 64.852-3.161-2.417-47.187 8.601-68.804 14.412z" class="Vector 2.1"/>
      <path stroke="#000" d="M449.276 133.397l-.132-.297h-.325a3.684 3.684 0 111.228-.209l-.268.095-.056.279-.157.786-.29-.654z" class="Ellipse_7"/>
      <ellipse cx="455.807" cy="136.186" fill="#C4C4C4" class="Ellipse 2.9" rx="4.184" ry="2.092" transform="rotate(22.157 455.807 136.186)"/>
      <path stroke="#000" d="M428.041 149.391l49.698-9.86.263 1.322-49.699 9.86z" class="Rectangle_14"/>
      <path stroke="#000" d="M428.951 155.671l49.698-9.86.263 1.322-49.699 9.86z" class="Rectangle_15"/>
      <path stroke="#000" d="M430.81 162.644l49.698-9.86.263 1.322-49.699 9.86z" class="Rectangle_16"/>
    </g>
    <g class="post it 5">
      <path stroke="#000" d="M810.384 237.579l-56.114-11.368 8.48-51.422 50.16 7.758-2.526 55.032z" class="Vector 7.1"/>
      <path stroke="#000" d="M751.203 224.588l9.202-52.686 55.392 8.481-9.202 52.685-55.392-8.48z" class="Vector 4.2"/>
      <path stroke="#000" d="M788.287 179.458l-.132-.297h-.325a2.748 2.748 0 11.916-.156l-.268.094-.056.279-.053.265-.082-.185z" class="Ellipse_8"/>
      <ellipse cx="793.255" cy="181.668" fill="#C4C4C4" class="Ellipse 2.15" rx="3.248" ry="1.624" transform="rotate(22.157 793.255 181.668)"/>
      <path stroke="#000" stroke-width=".911" d="M765.276 192.4l39.176 1.19-.028.91-39.176-1.19z" class="Rectangle_17"/>
      <path stroke="#000" stroke-width=".911" d="M764.871 197.308l39.176 1.19-.028.91-39.176-1.19z" class="Rectangle_18"/>
      <path stroke="#000" stroke-width=".911" d="M765.065 202.906l39.176 1.19-.028.91-39.176-1.19z" class="Rectangle_19"/>
    </g>
  </g>
</svg>
