<svg xmlns="http://www.w3.org/2000/svg" width="1152" height="700" fill="none" viewBox="0 0 1152 700">
  <g class="designing2">
    <path fill="#fff" d="M0 0h1152v700H0z"/>
    <g class="chair">
      <g class="Vector 4">
        <path fill="#F1F1F1" d="M573.8 588l-29.644-133h8.177L583 588h-9.2zM514.511 455h-9.2L491 588h10.222l13.289-133z"/>
      </g>
      <path fill="#7D8CA6" d="M498 445h66v14h-66z" class="Rectangle 4"/>
    </g>
    <g class="Body Parts">
      <path fill="#EDC7C5" d="M505.757 266.021c-9.861-8.218-14.381-21.914-15.408-27.735 18.489-27.734 48.278-14.38 45.196 13.354-1.138 10.247-3.819 16.287-7.369 19.313.06 2.122 1.617 7.188 7.369 10.475 7.191 4.108 20.544 4.108 29.789 8.217 9.245 4.109 30.816 93.474 31.843 99.638 1.027 6.163-4.109 14.38-11.299 7.19-7.19-7.19-24.653-71.903-33.897-65.74-9.245 6.163-67.795-12.327-66.768-6.163 1.027 6.163-18.489 40.06-14.381 40.06 4.109 0 80.121 7.19 90.393 7.19 10.272 0 18.49 17.463 18.49 24.653 0 7.19-14.381-3.082-18.49-7.19-4.108-4.109-94.501 1.027-108.882-6.164-14.381-7.19 11.299-71.903 14.381-81.148 3.081-9.244 5.136-12.326 26.707-12.326 17.256 0 20.201-12.462 19.516-18.692-2.409-1.273-4.837-2.972-7.19-4.932zM589.123 462.213c0 13.148 6.377 85.787 11.979 105.801C603 579.5 620.5 584.435 629.5 581c2.426-.926-15.742-14.127-14.5-15-6.506-33.213 2.679-99.883 1.857-108.923-1.027-11.299-27.734-11.299-27.734 5.136zM647 449c4 41 2.5 86.5 5.826 101 3.327 14.5 15.06 24.053 12.174 23.5-9.5-.5-19.5-4.5-23-16-8.299-27.269-13-66-21.5-97 0-11.505 19.994-14.582 26.5-11.5z"/>
    </g>
    <path fill="#6BA5E9" fill-rule="evenodd" d="M477 290c1.712 13.696 5.68 41.657 10.611 53.161 1.477 3.447 3.721 7.365 6.138 11.586 7.668 13.39 17.08 29.824 9.269 43.883-10.272 18.489-16.227 30.292-4.108 50.332C504.5 458.207 565.736 464 579 464c7.086 0 7.916 5.313 8.673 10.159.311 1.993.61 3.907 1.327 5.341 2.747 5.493 21.04-1.571 37.214-9 6.638-3.049 12.919-6.159 17.622-8.488 2.611-1.293 4.735-2.345 6.164-3.012-.203-2.231-.229-4.196-.254-5.997-.096-7.078-.158-11.64-10.746-20.003-8.233-6.502-27.155-15.024-39.452-20.562-4.998-2.251-8.902-4.009-10.548-4.938-33.673-19.005-31.1-38.951-28.611-58.247 1.358-10.528 2.692-20.863-1.902-30.744-2.104-4.525-1.233-15.251-.529-23.928.231-2.844.444-5.468.529-7.581l-7.987-1c-.342 11.299-4.956 32.509-19.747 32.509-18.49 0-36.59-.248-42.753-29.009-4 .5-7 .5-11 .5zm163.894 264.281c-1.106 2.939-3.779 10.038-1.394 13.219 3.082 4.108 30 13.315 29.5 8.908-.5-4.408-5.5-8.908-7.5-8.908-.974 0-1.829.592-2.623 1.143-.838.58-1.607 1.114-2.377.857 0 0-8.222-5.463-10.5-8.5-1.408-1.877-2.265-3.204-2.934-4.238-.756-1.17-1.27-1.966-2.066-2.762l-.106.281zm-41.353 16.594c-1.244 4.118-2.323 7.694.274 9.641 4.109 3.082 17.185 3.892 26.033 3.892 2.054 0 21.652-1.908 2.152-8-2.127-.665-8.5 2.592-8.5 2.592s-8.5-4-11.5-6c-1.543-1.029-3.012-2.244-4.252-3.269v-.001c-1.52-1.257-2.697-2.23-3.248-2.23-.287 1.149-.629 2.281-.959 3.375z" class="Secondary" clip-rule="evenodd"/>
    <g class="girl">
      <path fill="#EE7E79" d="M487.611 343.161C482.68 331.657 478.712 303.696 477 290c4 0 7 0 11-.5 6.163 28.761 24.263 29.009 42.753 29.009 14.791 0 19.405-21.21 19.747-32.509l7.987 1c-.343 8.56-2.793 25.501 0 31.509C571.5 346.5 536.953 378.126 589 407.5c5.696 3.214 38.421 16.355 50 25.5 13.283 10.491 10 15 11 26-10.272 4.794-56.5 29.5-61 20.5-2.46-4.919 0-15.5-10-15.5-13.264 0-74.5-5.793-80.09-15.038-12.119-20.04-6.164-31.843 4.108-50.332 10.272-18.49-9.244-41.088-15.407-55.469z" class="Dress" opacity=".2"/>
      <g class="Vector 7.1" opacity=".2">
        <path fill="#D07878" d="M599.815 580.516c-3.287-2.465-.684-7.538.685-13.016 1 0 4.067 3.211 7.5 5.5 3 2 11.5 6 11.5 6s6.374-3.257 8.5-2.592c19.5 6.092-.098 8-2.151 8-8.849 0-21.925-.81-26.034-3.892zM639.5 567.5c-2.465-3.287.473-10.761 1.5-13.5 1.5 1.5 2 3 5 7 2.278 3.037 10.5 8.5 10.5 8.5 1.5.5 3-2 5-2s7 4.5 7.5 8.908c.5 4.407-26.418-4.8-29.5-8.908z"/>
      </g>
      <path fill="#4B5361" d="M516.371 232.225c-4.109 3.287-16.778 4.793-22.598 5.136 8.217 12.327 2.054 25.678-4.109 15.407-6.163-10.272-3.082-22.598 4.109-31.843 2.533-3.257 7.106-4.984 12.326-5.316-2.054-1.994-5.547-7.216-3.082-12.147 3.082-6.163 11.299-10.272 13.354-5.136 2.054 5.136 10.272 5.317 8.217 11.3-1.643 4.787-3.52 7.473-4.253 8.218 5.104 1.932 9.678 5.054 12.471 9.244 6.467 9.701 2.861 26.16.135 33.538.714-2.014 1.919-7.084 1.919-14.021 0-9.244-13.353-18.489-18.489-14.38z" class="Vector 6"/>
      <path fill="#EDC7C5" d="M532.882 384.653c-4.108-4.109-72.501 5.027-86.882-2.164L464.489 364c4.109 0 58.121 3.19 68.393 3.19 10.272 0 18.49 17.463 18.49 24.653 0 7.19-14.381-3.082-18.49-7.19z" class="Vector 4.1"/>
    </g>
    <g class="table">
      <path fill="#C4C4C4" d="M389 389.03V373h374v16.03h-19.139v18.434H417.708V389.03H389z" class="Vector 3"/>
      <path fill="#4B5361" d="M389 389.03V373h374v16.03H389z" class="Vector 3.2"/>
      <path fill="#4B5361" d="M417 586.536L440.126 407h280.699l28.708 179.536h-9.569L711.256 407h-12.759l-20.734 179.536h-9.569L688.928 407H472.023l30.303 179.536h-9.569L464.049 407h-14.354l-22.328 179.536H417z" class="Vector 3.1"/>
    </g>
    <g class="computer">
      <path fill="#F1F1F1" fill-opacity=".7" d="M526 213h224v136H526z" class="Rectangle 2"/>
      <path fill="#F1F1F1" d="M615 349h43v24h-43z" class="Rectangle 3"/>
    </g>
    <g class="Shadow">
      <path fill="#7D8CA6" d="M480.276 198.93c-15.371 1.43-49.897 9.086-65.238 12.735 3.396-9.115-3.65-46.844-7.597-64.568l58.983-11.171c1.966 5.541 10.054 44.311 13.852 63.004z" class="Vector 6.2"/>
      <path fill="#7D8CA6" d="M428.622 296.29c-13.405 4.826-49.525.521-65.909-2.234 4.29-6.971 1.787-48.036 0-67.697l64.345 4.692 1.564 65.239z" class="Vector 6.3"/>
      <path fill="#7D8CA6" d="M705.027 196.477l64.19 2.707c1.856-9.59-3.609-42.277-6.574-57.422l-57.616-2.127v56.842z" class="Vector 6.1"/>
      <path fill="#7D8CA6" d="M889.843 173.836c-7.27 4.64-38.862.387-53.749-2.32 1.546-7.424.644-37.508 0-51.622h57.809c1.353 10.44 5.027 48.142-4.06 53.942z" class="Vector 7.2"/>
      <path fill="#7D8CA6" d="M930.19 252.251c-25.676-9.126-51.429-3.029-61.096 1.16 2.475-3.094 1.031-41.247 0-59.936l54.329 2.32c3.403 7.269 5.929 40.666 6.767 56.456z" class="Vector 8.1"/>
      <path fill="#7D8CA6" d="M853.022 309.257c-6.651 3.402-41.955 1.418-58.776 0l-3.094-51.623 52.009-5.607c6.497 5.259 9.281 40.344 9.861 57.23z" class="Vector 8.2"/>
      <path fill="#7D8CA6" d="M921.39 328.704c-3.248-2.939-35.769-4.189-51.623-4.447l-2.9-56.069 56.843 2.706c4.331 13.612.258 44.211-2.32 57.81z" class="Vector 9.1"/>
      <path fill="#7D8CA6" d="M847.417 247.376l-60.13-12.181 9.087-55.102 53.749 8.313-2.706 58.97z" class="Vector 7.1_2" opacity=".2"/>
    </g>
    <path fill="#DF7F7F" fill-rule="evenodd" d="M833 175.19v-58.97h61.87c.837 12.503 2.01 38.089 0 40.409-.244.281-.563.655-.944 1.104h-.001c-3.556 4.179-12.628 14.837-18.39 17.456v.001H833zm-133 20.126v-60.323l64.19 1.933c2.32 23.782-.387 50.269-9.861 56.456-7.579 4.95-39.377 3.352-54.329 1.934zm90.574 117.42L784 254.734l60.323-7.154c5.877 25.831 5.8 49.173 5.027 57.616-6.187 4.176-41.762 6.767-58.776 7.54zm-430.542-90.398c.149 17.874-.849 55.721-6.032 64.122 18.172 2.251 57.553 6.234 69.707 4.158.447.91.985.549 1.564-2.595 1.251-6.791 3.053-43.343 3.798-60.77l-69.037-4.915zM863 326.383l1.16-61.483 60.71 1.16c-.258 13.921-1.161 42.381-2.707 44.856-.508.812-1.043 2.011-1.663 3.405l-.002.004-.001.001v.002c-1.743 3.911-4.165 9.348-8.581 12.055H863zm3-78.58c18.045.516 55.489.928 60.903-1.546 0-17.337-.194-53.17-.967-57.81H866c1.096 17.981 2.629 55.025 0 59.356zm-458.335-42.617L395.6 140.394 465.978 129c1.966 4.468 6.032 43.418 7.82 62.334-3.039-2.323-45.355 8.267-66.133 13.852zM793.86 177L784 233.456l59.356 9.087 9.861-56.456L793.86 177z" class="Primary" clip-rule="evenodd"/>
    <g class="Post it">
      <g class="postit3">
        <path fill="#DAE4FA" d="M700 195.316v-60.323l64.19 1.933c2.32 23.782-.387 50.269-9.861 56.456-7.579 4.95-39.377 3.352-54.329 1.934z" class="color 1" opacity=".2"/>
        <path fill="#EE7E79" d="M732.482 135.96a3.48 3.48 0 111.16-.198l-.387 1.938-.773-1.74z" class="color 2"/>
        <ellipse cx="738.295" cy="138.111" fill="#C4B7B6" class="Ellipse 2.10" rx="3.48" ry="1.74" transform="rotate(22.157 738.295 138.111)"/>
      </g>
      <g class="post it 4">
        <path fill="#DAE4FA" d="M833 175.19v-58.97h61.87c.837 12.503 2.01 38.089 0 40.409-2.514 2.9-12.954 15.66-19.335 18.561H833z" class="color 1_2" opacity=".2"/>
        <path fill="#C4C4C4" d="M875.535 175.189c6.38-2.9 16.821-15.661 19.334-18.561-6.032.928-11.407.387-13.34 0 0 7.27-3.996 15.403-5.994 18.561z" class="Vector 4.3"/>
        <path fill="#EE7E79" d="M866.062 117.96a3.48 3.48 0 111.16-.198l-.386 1.938-.774-1.74z" class="color 2_2"/>
        <ellipse cx="871.874" cy="120.111" fill="#C4B7B6" class="Ellipse 2.11" rx="3.48" ry="1.74" transform="rotate(22.157 871.874 120.111)"/>
      </g>
      <g class="post it 6">
        <path fill="#DAE4FA" d="M790.574 312.736L784 254.734l60.323-7.154c5.877 25.831 5.8 49.173 5.027 57.616-6.187 4.176-41.762 6.767-58.776 7.54z" class="color 1_3" opacity=".2"/>
        <path fill="#EE7E79" d="M813.195 253.96a3.48 3.48 0 111.16-.198l-.387 1.938-.773-1.74z" class="color 2_3"/>
        <ellipse cx="819.008" cy="256.111" fill="#C4B7B6" class="Ellipse 2.14" rx="3.48" ry="1.74" transform="rotate(22.157 819.008 256.111)"/>
      </g>
      <g class="post it 1">
        <path fill="#DAE4FA" d="M354 286.46c5.183-8.401 6.181-46.248 6.032-64.122l69.037 4.915c-.745 17.427-2.547 53.979-3.798 60.77-.579 3.144-1.117 3.505-1.564 2.595-12.154 2.076-51.535-1.907-69.707-4.158z" class="color 1_4" opacity=".2"/>
        <path fill="#EE7E79" d="M393.545 229.488a4.022 4.022 0 111.341-.228l-.447 2.239-.894-2.011z" class="color 2_4"/>
        <ellipse cx="400.263" cy="231.974" fill="#C4B7B6" class="Ellipse 2.8" rx="4.022" ry="2.011" transform="rotate(22.157 400.263 231.974)"/>
        <path stroke="#8A6564" d="M368.129 237.585h50.387v3.468h-50.387z" class="Rectangle"/>
        <path stroke="#8A6564" d="M368.129 247.862h50.387v3.468h-50.387z" class="Rectangle_2"/>
        <path fill="#C4C4C4" d="M367.629 258.981h10.277v12.511h-10.277z" class="Rectangle_3"/>
        <path fill="#C4C4C4" d="M386.396 258.981h10.277v12.511h-10.277z" class="Rectangle_4"/>
        <path fill="#C4C4C4" d="M405.164 258.981h10.277v12.511h-10.277z" class="Rectangle_5"/>
        <path fill="#C4C4C4" d="M422.59 284.673L354 286.461c18.172 2.251 57.553 6.234 69.707 4.158-.519-1.056-.917-3.825-1.117-5.946z" class="Vector"/>
      </g>
      <g class="post it 8">
        <path fill="#DAE4FA" d="M863 326.383l1.16-61.483 60.71 1.16c-.258 13.921-1.161 42.381-2.707 44.856-1.934 3.093-4.254 11.793-10.247 15.467H863z" class="color 1_5" opacity=".2"/>
        <path fill="#EE7E79" d="M895.675 268.96a3.48 3.48 0 111.161-.198l-.387 1.938-.774-1.74z" class="color 2_5"/>
        <ellipse cx="901.487" cy="271.111" fill="#C4B7B6" class="Ellipse 2.12" rx="3.48" ry="1.74" transform="rotate(22.157 901.487 271.111)"/>
        <path stroke="#8A6564" d="M873.748 276.807h43.469v2.867h-43.469z" class="Rectangle_6"/>
        <path stroke="#8A6564" d="M873.748 285.701h43.469v2.867h-43.469z" class="Rectangle_7"/>
        <path fill="#C4C4C4" d="M873.248 295.255h8.894v10.827h-8.894z" class="Rectangle_8"/>
        <path fill="#C4C4C4" d="M889.488 295.255h8.894v10.827h-8.894z" class="Rectangle_9"/>
        <path fill="#C4C4C4" d="M905.729 295.255h8.894v10.827h-8.894z" class="Rectangle_10"/>
      </g>
      <g class="post it 7">
        <path fill="#DAE4FA" d="M926.903 246.257c-5.414 2.474-42.858 2.062-60.903 1.546 2.629-4.331 1.096-41.375 0-59.356h59.936c.773 4.64.967 40.473.967 57.81z" class="color 1_6" opacity=".2"/>
        <path fill="#EE7E79" d="M900.029 190.96a3.48 3.48 0 111.16-.198l-.387 1.938-.773-1.74z" class="color 2_6"/>
        <ellipse cx="905.84" cy="193.111" fill="#C4B7B6" class="Ellipse 2.13" rx="3.48" ry="1.74" transform="rotate(22.157 905.84 193.111)"/>
        <path fill="#C4C4C4" d="M879.146 200.24h8.894v10.827h-8.894z" class="Rectangle_11"/>
        <path stroke="#8A6564" d="M895.115 204.608h24.908v2.093h-24.908z" class="Rectangle_12"/>
        <path fill="#C4C4C4" d="M903.508 220.735h17.401v20.494h-17.401z" class="Rectangle_13"/>
      </g>
      <g class="postit 2">
        <path fill="#DAE4FA" d="M407.664 205.186L395.6 140.394 465.977 129c1.966 4.468 6.032 43.418 7.82 62.334-3.039-2.323-45.355 8.267-66.133 13.852z" class="color 1_7" opacity=".2"/>
        <path fill="#EE7E79" d="M432.91 137.267a4.022 4.022 0 111.341-.229l-.447 2.239-.894-2.01z" class="color 2_7"/>
        <ellipse cx="439.628" cy="139.751" fill="#C4B7B6" class="Ellipse 2.9" rx="4.022" ry="2.011" transform="rotate(22.157 439.628 139.751)"/>
        <path stroke="#8A6564" d="M412.963 152.458l47.73-9.47.245 1.233-47.73 9.47z" class="Rectangle_14"/>
        <path stroke="#8A6564" d="M413.838 158.496l47.73-9.47.245 1.233-47.73 9.47z" class="Rectangle_15"/>
        <path stroke="#8A6564" d="M415.625 165.198l47.73-9.47.245 1.233-47.73 9.47z" class="Rectangle_16"/>
      </g>
      <g class="post it 5">
        <path fill="#DAE4FA" d="M784 233.456L793.86 177l59.357 9.087-9.861 56.456L784 233.456z" class="color 1_8" opacity=".2"/>
        <path fill="#EE7E79" d="M823.248 185.313a3.48 3.48 0 111.16-.198l-.387 1.938-.773-1.74z" class="color 2_8"/>
        <ellipse cx="829.061" cy="187.464" fill="#C4B7B6" class="Ellipse 2.15" rx="3.48" ry="1.74" transform="rotate(22.157 829.061 187.464)"/>
        <path stroke="#8A6564" stroke-width=".976" d="M799.081 198.963l41.98 1.275-.03.975-41.98-1.274z" class="Rectangle_17"/>
        <path stroke="#8A6564" stroke-width=".976" d="M798.647 204.224l41.98 1.275-.03.975-41.98-1.274z" class="Rectangle_18"/>
        <path stroke="#8A6564" stroke-width=".976" d="M798.852 210.224l41.98 1.275-.03.975-41.98-1.274z" class="Rectangle_19"/>
      </g>
    </g>
  </g>
</svg>
