<svg xmlns="http://www.w3.org/2000/svg" width="1152" height="700" fill="none" viewBox="0 0 1152 700">
  <g clip-path="url(#clip0)">
    <path fill="#fff" d="M0 0h1152v700H0z"/>
    <path fill="#ECE6E6" d="M246.288 305.878c24.257 160.639 229.306 260.889 303.918 260.269 143.306-1.19-93.365-73.656 224.355-126.192C1092.28 387.418 610.478 7.711 511.917 135.354c-64.028 82.921-295.949-30.274-265.629 170.524z" class="Vector"/>
    <path fill="#71809A" d="M580.362 541.656c-7.527-8.402-13.2-14.678-25.839-13.188 7.301 7.187 18.733 18.126 29.386 27.67 3.617 12.178 11.839 37.319 15.785 40.464-2.065-6.858-5.174-22.04-1.085-27.899 4.466 3.55 8.077 6.05 10.16 6.797.087-2.206-1.976-8.067-10.036-16.086-1.749-9.632-7.485-29.508-16.435-31.956l.297-2.329c9.72 7.766 29.927 29.499 32.997 54.303 2.34-4.965 4.964-18.166-3.256-31.248-8.221-13.083-18.017-21.111-21.888-23.489 6.534 3.107 21.717 12.379 30.174 24.608 10.57 15.287 14.919 20.092 11.179 56.77 6.809-8.294 18.604-27.998 11.311-40.46-9.116-15.578-26.806-32.468-45.395-40.479 22.371 7.382 70.405 20.051 83.573 11.671-2.129-1.214-9.991-4.283-24.408-6.849-14.417-2.566-37.5-4.864-47.239-5.692 10.323-.045 33.098-1.619 41.606-7.555 8.509-5.936 39.192-27.498 53.47-37.537-12.752 1.792-43.181 9.157-62.883 24.288-19.702 15.132-31.306 15.71-34.646 14.108 13.899-13.241 42.96-43.682 48.007-59.517-11.662 10.525-38.345 36.406-51.777 55.731-2.14 2.571-7.932 7.712-13.98 7.71 9.77-9.894 29.205-33.672 28.786-49.625-7.394 9.168-23.145 29.511-27.007 37.545-4.827 10.042-15.749 16.006-15.016 13.968.732-2.037 26.114-30.558 31.276-56.174-12.297 12.73-37.219 40.941-38.534 51.951.286 1.456-.072 4.628-3.797 5.675-3.725 1.047 2.904 1.311 6.685 1.312 3.329 4.131 9.695 13.015 8.529 15.512z" class="Vector 3.2"/>
    <g class="Group">
      <g class="plant">
        <path fill="#EE7E79" d="M398.371 150.293c-7.047 2.682-11.759 15.708-13.234 21.886-1.109 2.088-3.693 4.986-5.153-.127-1.826-6.392-8.398-13.298-12.749-13.802-.646 4.744-.757 14.579 3.969 15.965 5.907 1.732 12.411 11.413 5.731 8.868-6.681-2.545-9.647-10.948-24.383-8.536 1.51 4.533 7.578 14.626 19.767 18.735 15.237 5.137 13.126 14.604 4.899 10.435-8.227-4.17-15.969-11.898-29.903-9.863 1.571 5.989 7.004 18.341 16.17 19.836 11.457 1.87 29.961 7.484 27.069 12.173-2.893 4.688-23.173-9.3-32.301-9.129-7.302.137-12.318.886-13.914 1.243 1.703 5.992 8.752 18.225 23.325 19.22 18.216 1.243 35.184 4.836 30.28 10.665-4.904 5.828-18.04-8.379-33.133-7.562-12.075.653-14.34 2.422-13.963 3.225 1.861 4.938 9.867 14.841 27 14.947 21.417.132 29.653 3.906 26.751 8.991-2.902 5.084-18.367-11.164-42.397-1.841 2.786 4.961 11.215 14.874 22.639 14.839 14.281-.044 35.233 2.854 32.282 9.921-2.952 7.067-19.665-6.833-34.014-4.014-11.48 2.255-11.443 2.891-9.989 2.927.946 4.518 5.77 13.708 17.496 14.315 14.658.759 41.982 2.624 40.567 11.712-1.415 9.089-13.033-2.305-22.875-5.325-7.873-2.416-19.421-.612-24.211.592 2.783 5.093 10.73 15.259 20.251 15.177 11.903-.103 39.921 5.746 39.784 11.296-.137 5.55-12.705.48-19.791-1.679-7.087-2.158-17.702-5.991-27.314-2.261.801 5.044 5.891 15.218 19.845 15.563 17.443.431 32.526.011 32.35 7.146-.176 7.136-6.651-3.734-20.188-1.689-10.83 1.637-15.962 3.837-17.174 4.733 2.02 3.884 8.447 11.315 18.001 9.964 11.941-1.688 29.829-3.229 28.88 3.094-.95 6.323-12.25-1.889-18.632-.461-5.106 1.144-11.178 2.898-13.576 3.632 1.223 3.997 8.536 10.92 27.998 6.641 3.581-.44 10.486-.534 9.456 2.614-1.287 3.935-15.451-.778-19.89 2.285.734 2.398 3.798 6.837 10.18 5.408 6.382-1.429 15.537 2.632 19.317 4.841.063-1.849.68-6.33 2.64-9.455.796-3.231 2.707-7.176 6.174-10.16 8.511-7.327 8.805-19.219 6.03-19.288-2.775-.068-9.094 14.849-12.255 14.374-3.161-.475 1.415-9.088 6.735-15.7 4.255-5.29 3.731-17.229 2.937-22.537-2.583 2.845-8.023 10.035-9.123 16.037l-.081.438c-1.332 7.278-2.301 12.57-6.16 11.308-3.935-1.287 1.939-14.232 7.744-24.402 4.643-8.136 2.365-20.832.646-26.164-1.905 2.201-6.378 7.697-9.025 12.074-3.308 5.472-3.71 21.725-7.606 18.852-3.895-2.873 4.841-19.317 11.13-33.045 5.031-10.982.413-22.071-2.525-26.242-2.43 2.056-7.175 7.835-6.705 14.511.587 8.344-4.322 30.436-9.784 26.731-5.461-3.705 6.691-29.981 9.324-40.229 2.107-8.199-2.476-17.514-5.03-21.147-3.25 3.093-5.766 8.584-7.538 16.076-1.771 7.493-4.282 28.851-10.884 23.135-6.602-5.717 7.038-27.99 12.842-38.159 4.644-8.136 1.309-20.859-.939-26.203-2.824 1.913-11.026 12.817-12.392 19.923-1.366 7.106-6.196 26.027-10.797 19.567-4.6-6.461 10.19-27.118 15.202-37.308 4.009-8.151 1.315-21.123-.533-26.589-10.571 10.448-13.611 21.083-13.758 27.029-.147 5.947-5.78 25.244-9.656 21.578-3.876-3.665 3.837-26.878 11.575-35.017 6.19-6.511 5.911-19.819 4.997-25.659-1.605.753-15.416 13.899-15.534 18.656-.117 4.757-2.286 12.24-6.426 19.277-4.141 7.038-7.645-11.692 6.544-24.034 11.35-9.874 11.356-26.164 9.94-33.074-22.351 21.66-9.715 23.956-21.476 34.375-11.76 10.42-5.721-9.264 5.218-18.514 8.751-7.4 9.976-23.818 9.495-31.102-9.93.548-16.058 23.8-22.974 30.769-6.915 6.969-8.197-5.359 3.177-16.185 9.099-8.66 9.547-22.506 8.634-28.346-7.195 2.202-11.335 9.24-15.613 21.827-4.278 12.588-9.235 4.532-3.856-4.458 4.303-7.193 4.768-16.41 4.463-20.12z" class="Vector 3"/>
        <path fill="#EDC7C5" d="M419.805 278.152c37.39 60.026 48.014 95.592 53.789 118.741.063-1.849.68-6.33 2.64-9.455.796-3.231 2.707-7.176 6.174-10.16 8.511-7.327 8.805-19.219 6.03-19.288-2.775-.068-9.094 14.849-12.255 14.374-3.161-.475 1.415-9.088 6.735-15.7 4.255-5.29 3.731-17.229 2.937-22.537-2.583 2.845-8.023 10.035-9.123 16.037l-.081.438c-1.332 7.278-2.301 12.57-6.16 11.308-3.935-1.287 1.939-14.232 7.744-24.402 4.643-8.136 2.365-20.832.646-26.164-1.905 2.201-6.378 7.697-9.025 12.074-3.308 5.472-3.71 21.725-7.606 18.852-3.895-2.873 4.841-19.317 11.13-33.045 5.031-10.982.413-22.071-2.525-26.242-2.43 2.056-7.175 7.835-6.705 14.511.587 8.344-4.322 30.436-9.784 26.731-5.461-3.705 6.691-29.981 9.324-40.229 2.107-8.199-2.476-17.514-5.03-21.147-3.25 3.093-5.766 8.584-7.538 16.076-1.771 7.493-4.282 28.851-10.884 23.135-6.602-5.717 7.038-27.99 12.842-38.159 4.644-8.136 1.309-20.859-.939-26.203-2.824 1.913-11.026 12.817-12.392 19.923-1.366 7.106-6.196 26.027-10.797 19.567-4.6-6.461 10.19-27.118 15.202-37.308 4.009-8.151 1.315-21.123-.533-26.589-10.571 10.448-13.611 21.083-13.758 27.029-.147 5.947-5.78 25.244-9.656 21.578-3.876-3.665 3.837-26.878 11.575-35.017 6.19-6.511 5.911-19.819 4.997-25.659-1.605.753-15.416 13.899-15.534 18.656-.117 4.757-2.286 12.24-6.426 19.277-4.141 7.038-7.645-11.692 6.544-24.034 11.35-9.874 11.356-26.164 9.94-33.074-22.351 21.66-9.715 23.956-21.476 34.375-11.76 10.42-5.721-9.264 5.218-18.514 8.751-7.4 9.976-23.818 9.495-31.102-9.93.548-16.058 23.8-22.974 30.769-6.915 6.969-8.197-5.359 3.177-16.185 9.099-8.66 9.547-22.506 8.634-28.346-7.195 2.202-11.335 9.24-15.613 21.827-4.278 12.588-9.235 4.532-3.856-4.458 4.303-7.193 4.768-16.41 4.463-20.12-7.047 2.682-11.759 15.708-13.234 21.886-.907 15.315 4.756 57.951 34.668 105.973z" class="Vector 3.1"/>
      </g>
      <path fill="#FFEEC7" d="M836.002 375.657l-152.185 91.008-219.959-136.513 136.006-80.301 236.138 125.806z" class="color 1"/>
      <g class="mac">
        <path fill="#4B5361" d="M456.426 327.896v-165.87c0-7.632 8.204-12.451 14.87-8.734l212.628 118.562a10 10 0 015.13 8.734v179.573c0 3.343-3.617 5.434-6.513 3.765L461.434 336.561a9.999 9.999 0 01-5.008-8.665z" class="Vector 2"/>
        <path fill="#fff" d="M462.857 326.625V159.697c0-1.534 1.657-2.497 2.99-1.737l215.229 122.611a2.001 2.001 0 011.01 1.738v168.506c0 1.539-1.667 2.502-3 1.732l-215.228-124.19a2 2 0 01-1.001-1.732z" class="Vector_2"/>
        <path fill="#DAE4FA" d="M446.777 336.356c1.875-1.072 4.405-1.781 6.519-2.205 2.02-.406 4.088.077 5.873 1.105l222.474 128.153c.595.343 1.12.675 1.325 1.33.637 2.038-.87 4.097-2.712 5.177-42.35 24.83-122.856 72.132-127.885 75.484-4.401 2.934-8.07 3.202-9.934 2.882-.534-.091-1.022-.338-1.492-.608l-82.376-47.299c-.714.179-2.465.429-3.752 0-1.286-.429-34.483-20.19-50.921-30.017-1.429-.893-4.288-3.001-4.288-4.288-25.192-14.651-76.649-44.596-80.937-47.169-2.099-1.259-2.828-2.827-2.879-4.288a5.496 5.496 0 01.336-2.031c.438-1.222 1.485-2.037 2.61-2.684 42.523-24.427 125.077-71.85 128.039-73.542z" class="color 2"/>
        <path fill="#FFEEC7" d="M407.65 468.214a15.069 15.069 0 00-1.996-1.047c-3.27-1.411-4.777 1.303-1.757 3.192 16.438 9.826 49.635 29.587 50.921 30.016.073.024.146.046.221.066 2.024.539 3.517-1.904 2.188-3.523-.257-.313-.433-.391-.785-.592-15.189-8.681-45.401-25.992-48.792-28.112z" class="Vector 2.2"/>
        <path fill="#A4C3FE" d="M394.637 463.179c-26.421-15.368-71.944-41.864-75.966-44.278-1.137-.682-3.744-.317-3.577.998.397 3.129 1.978 6.006 3.22 7.66.229.306.513.544.844.735 73.418 42.26 219.926 126.434 222.493 127.29 2.212.737 6.695-.057 9.498-.749a8.706 8.706 0 002.314-.963l124.751-73.112a10.001 10.001 0 004.944-8.628v-3.918c-41.452 24.299-125.641 73.755-130.787 77.186-4.401 2.934-8.07 3.202-9.934 2.882-.534-.091-1.022-.338-1.492-.607l-79.085-45.411c-2.111-1.212-4.733-1.119-7.043-1.889-1.286-.429-34.483-20.19-50.921-30.017a18.538 18.538 0 01-.382-.246c-2.972-1.962-5.799-5.143-8.877-6.933z" class="Vector 2.1"/>
        <path fill="#fff" d="M408.072 448.695l31.85-18.937a3.997 3.997 0 014.07-.011l68.841 40.438c2.609 1.532 2.638 5.295.052 6.867l-31.892 19.393a4 4 0 01-4.122.021l-68.798-40.894c-2.608-1.55-2.608-5.326-.001-6.877z" class="Vector 3_2"/>
      </g>
      <path fill="#E2E8F2" d="M594.107 361.619V256.565c0-.47.507-.766.917-.536l.917.516 75.92 42.705a3 3 0 011.529 2.615v105.186c0 .61-.657.992-1.187.691l-76.578-43.515a3 3 0 01-1.518-2.608z" class="Vector 4.1"/>
      <path fill="#E2E8F2" d="M492.174 283.031v-63.503a.715.715 0 011.068-.622l1.068.606 51.465 32.112a3 3 0 011.411 2.545v63.65a.885.885 0 01-1.357.749l-52.257-33.001a3 3 0 01-1.398-2.536z" class="Vector 4.3"/>
      <g class="small window">
        <path fill="#4B5361" d="M473.658 294.02v-63.577c0-.55.594-.896 1.072-.625 1.183-1.111 2.772-1.73 3.997-2.035.853-.212 1.764.069 2.485.572 4.759 3.32 24.117 16.289 49.263 30.815 1.43 1.072 4.288 3.752 4.288 5.896v58.241c0 .796-.312 1.577-.911 2.1-1.179 1.032-3.041 2.473-4.985 3.445a.887.887 0 01-1.36.75l-52.448-33.043a3.001 3.001 0 01-1.401-2.539z" class="Vector 4.2"/>
        <path fill="#FFEEC7" d="M475.802 230.425l51.651 32.153a2.998 2.998 0 011.415 2.546v63.728c1.943-.972 3.805-2.413 4.985-3.445.599-.523.911-1.304.911-2.1v-58.241c0-2.144-2.859-4.824-4.288-5.896-25.147-14.526-44.504-27.495-49.264-30.815-.721-.503-1.632-.784-2.485-.572-.912.228-2.028.629-3.026 1.278-.513.334-.431 1.063.101 1.364z" class="Vector 4.3_2"/>
        <ellipse cx="479.017" cy="238.266" fill="#fff" class="Ellipse" rx="1.072" ry="1.608"/>
        <ellipse cx="482.234" cy="240.41" fill="#fff" class="Ellipse_2" rx="1.072" ry="1.608"/>
        <ellipse cx="485.451" cy="242.554" fill="#fff" class="Ellipse_3" rx="1.072" ry="1.608"/>
        <path fill="#FFEEC7" d="M483.307 246.306l35.912 21.976v13.973l-35.912-21.2v-14.749z" class="Rectangle"/>
        <path fill="#FFEEC7" d="M483.307 274.178l11.792 8.004v13.973l-11.792-7.227v-14.75z" class="Rectangle_2"/>
        <path fill="#FFEEC7" d="M504.746 287.043l11.792 8.003v13.973l-11.792-7.227v-14.749z" class="Rectangle_3"/>
        <path fill="#fff" d="M483.307 264.53l34.84 20.905v3.216l-34.84-20.905v-3.216z" class="Rectangle 2.6"/>
        <path fill="#fff" d="M483.307 291.331l11.256 6.968v3.216l-11.256-6.968v-3.216z" class="Rectangle 2.7"/>
        <path fill="#fff" d="M504.746 304.195l11.256 6.968v3.216l-11.256-6.968v-3.216z" class="Rectangle 2.8"/>
      </g>
      <g class="big window">
        <path fill="#4B5361" d="M565.854 363.915V258.347c0-.469.506-.764.914-.533 1.676-.935 5.121-2.713 5.486-2.347.366.366 49.532 28.804 74.069 42.978 1.219.914 3.657 3.2 3.657 5.029v101.195c0 .796-.312 1.541-.915 2.06-1.01.869-2.53 2.026-4.114 2.818 0 .611-.66.994-1.191.69l-76.397-43.718a3.002 3.002 0 01-1.509-2.604z" class="Vector 4"/>
        <path fill="#FFEEC7" d="M567.682 258.332l75.747 42.909a3 3 0 011.522 2.61v105.696c1.583-.792 3.104-1.949 4.114-2.818.603-.519.915-1.264.915-2.06V303.474c0-1.829-2.439-4.115-3.658-5.029-24.537-14.174-73.702-42.612-74.068-42.978-.307-.307-2.785.897-4.564 1.845a.581.581 0 00-.008 1.02z" class="Vector 4.1_2"/>
        <ellipse cx="569.512" cy="262.783" fill="#fff" class="Ellipse_4" rx=".914" ry="1.372"/>
        <ellipse cx="572.254" cy="264.611" fill="#fff" class="Ellipse_5" rx=".914" ry="1.372"/>
        <ellipse cx="574.998" cy="266.44" fill="#fff" class="Ellipse_6" rx=".914" ry="1.372"/>
        <path fill="#FFEEC7" d="M577.74 311.704l11.888 7.284v11.919l-11.888-6.622v-12.581z" class="Rectangle_4"/>
        <path fill="#fff" d="M597.857 325.42l18.289 10.973v2.743l-18.289-10.973v-2.743z" class="Rectangle 2"/>
        <path fill="#fff" d="M596.943 331.821l12.802 8.23v2.743l-12.802-8.23v-2.743z" class="Rectangle 2.1"/>
        <path fill="#FFEEC7" d="M577.74 330.907l11.888 7.284v11.919l-11.888-6.622v-12.581z" class="Rectangle_5"/>
        <path fill="#fff" d="M597.857 344.623l18.289 10.973v2.743l-18.289-10.973v-2.743z" class="Rectangle 2.2"/>
        <path fill="#fff" d="M596.943 351.024l12.802 8.23v2.743l-12.802-8.23v-2.743z" class="Rectangle 2.3"/>
        <path fill="#FFEEC7" d="M577.74 350.11l11.888 7.283v11.919l-11.888-6.621V350.11z" class="Rectangle_6"/>
        <path fill="#fff" d="M597.857 363.826l18.289 10.973v2.743l-18.289-10.973v-2.743z" class="Rectangle 2.4"/>
        <path fill="#fff" d="M596.943 370.227l12.802 8.23v2.743l-12.802-8.23v-2.743z" class="Rectangle 2.5"/>
        <g class="Vector 5">
          <path fill="#fff" d="M633.52 305.74v18.024l-55.78-32.442v-18.024l55.78 32.442zM577.74 304.839v-6.308l55.78 31.541v5.407l-55.78-30.64z"/>
        </g>
      </g>
      <path stroke="#fff" d="M406.418 386.573l191.735 114.071" class="Vector 5_2"/>
      <path stroke="#fff" d="M420.172 375.247l191.735 114.879" class="Vector 5.1"/>
      <path stroke="#fff" d="M437.969 363.921L630.513 478.8" class="Vector 5.2"/>
      <path stroke="#fff" d="M450.914 352.595l191.735 114.879" class="Vector 5.3"/>
    </g>
  </g>
  <defs>
    <clipPath id="clip0" class="clip0">
      <path fill="#fff" d="M0 0h1152v700H0z"/>
    </clipPath>
  </defs>
</svg>
