<svg xmlns="http://www.w3.org/2000/svg" width="1152" height="700" fill="none" viewBox="0 0 1152 700">
  <g class="desktop_altone">
    <path fill="#fff" d="M0 0h1152v700H0z"/>
    <path fill="#C4C4C4" d="M590 308.344v-59.195a.67.67 0 011-.583l1 .567 48.085 29.933a3 3 0 011.415 2.547v59.334a.828.828 0 01-1.269.7l-48.83-30.764a3.001 3.001 0 01-1.401-2.539z" class="Vector 4.3"/>
    <path fill="#C4C4C4" d="M680 379.177V274.049c0-.469.505-.764.913-.533l.914.516 75.648 42.732a3 3 0 011.525 2.612v105.258a.793.793 0 01-1.186.689l-76.301-43.54a3 3 0 01-1.513-2.606z" class="Vector 4.1"/>
    <path stroke="#000" d="M565.926 341.345V185.941c0-1.534 1.656-2.497 2.99-1.738l200.5 114.222a2 2 0 011.01 1.737v156.875c0 1.539-1.666 2.502-3 1.732l-200.5-115.692a1.999 1.999 0 01-1-1.732z" class="Vector"/>
    <path stroke="#000" d="M559.924 348V189.026c0-7.632 8.205-12.451 14.87-8.734l197 109.848a9.998 9.998 0 015.13 8.734v167.114c0 3.118-3.374 5.068-6.076 3.512v0M559.924 348c-1.833.167-6.2.9-9 2.5-2.76 1.577-79.623 45.73-119.322 68.536-1.126.647-2.183 1.462-2.593 2.694a5.068 5.068 0 00-.27 1.77M559.924 348l210.924 121.5m-263.924 2c-23.5-13.667-71.5-41.6-75.5-44-1.958-1.175-2.638-2.637-2.685-4m78.185 48c1.167-.167 4.3 0 7.5 2 3.114 1.946 30.474 17.625 44.843 25.838.771.441 1.509.965 1.952 1.735.375.655.705 1.508.705 2.427m-55-32c0 1.2 2.667 3.167 4 4 15.334 9.167 46.3 27.6 47.5 28 1.2.4 2.834.167 3.5 0m0 0l76.794 44.095c.47.269.959.517 1.494.603 1.755.283 5.149.01 9.212-2.698 4.8-3.2 83.334-49.333 122-72m0 0c.116-1 .163-3.2-.576-4m.576 4v3.27a9.997 9.997 0 01-4.944 8.627L650.516 553.36a8.631 8.631 0 01-2.315.962c-2.62.64-6.735 1.358-8.777.678-2.382-.794-137.636-78.5-206.467-118.118-1.037-.597-1.947-1.339-2.582-2.353-1.667-2.661-3.398-7.092-1.636-11.029" class="Vector 2"/>
    <path stroke="#000" d="M515.209 455.061l29.185-17.353a4.001 4.001 0 014.07-.011l63.691 37.413c2.609 1.533 2.638 5.295.053 6.867l-29.227 17.773a4.002 4.002 0 01-4.123.021l-63.648-37.833c-2.609-1.55-2.609-5.326-.001-6.877z" class="Vector 3"/>
    <g class="Group">
      <path stroke="#000" d="M571 258.12l1 .566 48.085 29.933a3 3 0 011.415 2.547V350.5M571 258.12v0a.67.67 0 00-1 .583v59.195a3 3 0 001.401 2.538l48.83 30.765a.828.828 0 001.269-.701v0M571 258.12c1.074-1.01 2.509-1.583 3.639-1.875.851-.22 1.756.057 2.478.559 4.557 3.174 22.548 15.217 45.883 28.696 1.333 1 4 3.5 4 5.5v54.244c0 .796-.312 1.576-.913 2.098-1.103.958-2.808 2.269-4.587 3.158" class="Vector 4.2"/>
      <ellipse cx="575" cy="266" fill="#C4C4C4" class="Ellipse" rx="1" ry="1.5"/>
      <ellipse cx="578" cy="268" fill="#C4C4C4" class="Ellipse_2" rx="1" ry="1.5"/>
      <ellipse cx="581" cy="270" fill="#C4C4C4" class="Ellipse_3" rx="1" ry="1.5"/>
      <path stroke="#000" d="M579.5 286.973v-12.581L612 294.28v11.879l-32.5-19.186z" class="Rectangle"/>
      <path stroke="#000" d="M579.5 312.979v-12.535l10 6.786v11.877l-10-6.128z" class="Rectangle_2"/>
      <path stroke="#000" d="M599.5 324.979v-12.535l10 6.786v11.877l-10-6.128z" class="Rectangle_3"/>
      <path stroke="#000" d="M579.5 293.217v-1.834l31.5 18.9v1.834l-31.5-18.9z" class="Rectangle 2.6"/>
      <path stroke="#000" d="M579.5 318.221v-1.823l9.5 5.881v1.823l-9.5-5.881z" class="Rectangle 2.7"/>
      <path stroke="#000" d="M599.5 330.221v-1.823l9.5 5.881v1.823l-9.5-5.881z" class="Rectangle 2.8"/>
    </g>
    <g class="Group 2">
      <path stroke="#000" d="M651.912 274.389l.912.516 75.525 42.783a3.001 3.001 0 011.521 2.611v105.387m-77.958-151.297v0a.61.61 0 00-.912.531v105.26a3 3 0 001.51 2.604l76.173 43.59a.793.793 0 001.187-.688v0m-77.958-151.297c1.671-.932 5.106-2.705 5.471-2.34.364.364 49.388 28.721 73.855 42.854 1.215.912 3.647 3.191 3.647 5.015v100.9c0 .796-.312 1.541-.915 2.06-1.008.867-2.522 2.019-4.1 2.808" class="Vector 4"/>
      <ellipse cx="654.646" cy="279.343" fill="#C4C4C4" class="Ellipse_4" rx=".912" ry="1.368"/>
      <ellipse cx="657.384" cy="281.167" fill="#C4C4C4" class="Ellipse_5" rx=".912" ry="1.368"/>
      <ellipse cx="660.119" cy="282.99" fill="#C4C4C4" class="Ellipse_6" rx=".912" ry="1.368"/>
      <path stroke="#000" d="M663.352 340.375v-11.358l10.853 6.65v10.754l-10.853-6.046z" class="Rectangle_4"/>
      <path stroke="#000" d="M683.414 344.253v-1.569l17.236 10.342v1.569l-17.236-10.342z" class="Rectangle 2"/>
      <path stroke="#000" d="M682.5 350.646v-1.547l11.765 7.564v1.546l-11.765-7.563z" class="Rectangle 2.1"/>
      <path stroke="#000" d="M663.352 359.523v-11.359l10.853 6.651v10.753l-10.853-6.045z" class="Rectangle_5"/>
      <path stroke="#000" d="M683.414 363.401v-1.569l17.236 10.341v1.569l-17.236-10.341z" class="Rectangle 2.2"/>
      <path stroke="#000" d="M682.5 369.793v-1.546l11.765 7.563v1.547l-11.765-7.564z" class="Rectangle 2.3"/>
      <path stroke="#000" d="M663.352 378.67v-11.358l10.853 6.65v10.754l-10.853-6.046z" class="Rectangle_6"/>
      <path stroke="#000" d="M683.414 382.548v-1.569l17.236 10.342v1.569l-17.236-10.342z" class="Rectangle 2.4"/>
      <path stroke="#000" d="M682.5 388.941v-1.546l11.765 7.563v1.546l-11.765-7.563z" class="Rectangle 2.5"/>
      <g class="Vector 5">
        <path stroke="#000" d="M718.471 322.178v17.971L662.852 307.8v-17.971l55.619 32.349zM662.852 321.279v-6.29l55.619 31.45v5.392l-55.619-30.552z"/>
      </g>
    </g>
  </g>
</svg>
