<svg xmlns="http://www.w3.org/2000/svg" width="1152" height="700" fill="none" viewBox="0 0 1152 700">
  <g class="devices_alttwo">
    <path fill="#fff" d="M0 0h1152v700H0z"/>
    <path fill="#ECE6E6" d="M649.141 102.501c-75.6 93.6-241 95.505-315 140.5-99.5 60.5 0 134.5-53 186-83.929 81.554 285 210 561 11 275.999-199-98.5-454.5-193-337.5z" class="Vector"/>
    <g class="plant">
      <g class="Vector 5">
        <path fill="#EDC7C5" d="M888.343 488.945c-13.224-6.612-41.09-24.37-46.757-42.506 12.28 7.556 38.823 26.637 46.757 42.506zM895.428 484.695c-22.671-24.087-68.294-74.529-69.428-83.597 14.169 2.362 47.891 22.387 69.428 83.597-5.195-24.087-19.837-77.646-36.839-99.183 9.918 3.779 31.171 15.019 36.839 29.755 5.667 14.736 2.361 52.425 0 69.428z"/>
      </g>
      <g class="Vector 4">
        <path fill="#EE7E79" d="M902.514 487.529c-14.642-25.032-43.924-78.496-43.924-92.098 17.475 10.862 50.725 44.49 43.924 92.098zM969.108 459.191c-45.341 1.133-56.676 19.364-56.676 28.338-.936-5.616-1.031-10.811-.439-15.586-9.3-22.671-23.082-72.545-3.812-90.681a54.831 54.831 0 013.812-3.273c-4.104-18.273-3.528-57.654 31.61-68.989-8.973 9.446-26.07 31.172-22.67 42.507 4.251-8.502 15.869-24.087 28.338-18.42-7.557 3.794-22.67 13.922-22.67 24.087 6.14-6.139 23.237-16.152 42.507-7.084-14.642 1.859-43.641 8.419-42.507 19.791 20.148-7.386 40.35-1.433 42.507 2.879-16.823-.472-51.799 2.834-57.115 19.837 16.677-8.029 55.414-19.837 76.951-2.834-26.921.472-80.763 7.084-80.763 29.755 26.449-10.863 88.981-28.055 127.519-9.919-41.381-1.889-124.058 7.935-123.707 62.344 3.89-31.368 37.439-44.592 57.115-39.673 18.136 4.534 51.952 5.667 66.592 5.667-3.3 6.612-21.25 20.12-66.592 21.254z"/>
      </g>
      <path fill="#8A6564" d="M923.765 490.363c-.944 13.696-5.667 41.94-17.002 45.34-14.169 4.251-22.671-2.833-22.671-8.501 0-4.534-2.834-26.449-4.25-36.839-1.417-1.417-3.684-5.101-1.417-8.502 13.696.945 41.94 2.268 45.34 0 4.251-2.833 2.834 7.684 0 8.502z" class="Vector 3"/>
    </g>
    <path fill="#8A6564" d="M568.857 176.126c13.71-3.517 24.004-6.107 36.143 4.278-12.627 2.405-32.178 5.842-49.943 8.368-12.267 10.189-38.377 30.7-44.686 31.228 6.938-5.719 20.77-19.402 20.593-28.377-7.133.587-12.643.676-15.335 0 1.448-2.364 7.687-7.043 21.685-9.787 8.543-8.836 28.389-25.585 39.429-21.89l1.314-2.64c-15.552 1.32-51.783 9.899-72.286 33.657 1.024-6.819 7.495-22.438 25.193-30.357 17.697-7.919 33.512-9.459 39.207-9.239-8.981-1.32-31.28-2.244-48.628 4.62-21.686 8.579-29.572 10.558-51.257 51.474-1.315-13.418.131-42.235 16.428-50.155 20.372-9.899 50.6-15.178 75.572-10.559-28.476-7.919-87.4-28.245-95.286-46.195 3.067.22 13.406 2.508 30.229 9.899 16.822 7.391 42.495 21.118 53.228 27.057-10.733-7.259-33.383-24.813-38.114-36.956-4.732-12.143-21.686-56.094-29.572-76.552 12.048 10.779 38.64 39.728 48.629 69.293 9.989 29.565 21.686 38.276 26.286 38.936-5.257-23.538-14.326-75.628-8.543-95.69 4.819 19.138 14.588 64.805 15.114 94.37.438 4.18 2.892 13.595 9.2 17.818-3.286-17.158-6.966-55.566 4.6-71.932 1.314 14.738 3.549 46.987 1.972 58.074-1.972 13.858 5.257 27.717 5.914 25.077.657-2.64-5.914-50.155 6.571-80.512 3.943 21.884 10.252 68.756 3.943 81.172-1.314 1.32-3.154 4.884 0 8.579 3.154 3.696-3.943-.66-7.886-3.299-6.352 1.987-19.188 6.818-19.714 10.24z" class="Vector 3.2"/>
    <g class="Group">
      <g class="mac">
        <path fill="#FFCB56" d="M671.764 443.297a2.977 2.977 0 00-.177-.637c.067.201.126.415.177.637.741 4.632-9.403 10.808-14.808 13.42l-69.647 40.997c-3.707 1.953-12.993 4.686-20.484 0-7.492-4.685-28.712-20.694-38.386-28.112l-2.583 1.484c12.876 9.852 39.33 29.791 42.139 30.728 3.512 1.171 12.876 1.757 19.314-1.171 5.15-2.343 57.551-33.775 83.108-49.198 1.294-.781 2.001-5.261 1.347-8.148z" class="Vector_2"/>
        <path fill="#6F7D94" d="M671.588 442.66c-1.873-4.685-35.116-19.102-51.503-25.725a643265.682 643265.682 0 00-91.645 52.667c9.674 7.418 30.894 23.427 38.385 28.112 7.492 4.686 16.778 1.953 20.485 0l69.646-40.997c5.658-2.734 16.505-9.371 14.632-14.057z" class="Vector_3"/>
        <path fill="#B6C7E5" d="M764.06 334.309c5.151-2.811 5.268-7.028 4.682-8.785.03-12.91.062-27.855.093-43.926L398.268 497.714v31.041c.147 3.077 1.457 8.198 5.268 9.771 1.267.523 2.812.654 4.682.186 32.541-18.71 74.276-42.702 117.638-67.626l2.584-1.484c30.701-17.646 62.14-35.714 91.644-52.667 77.296-44.413 141.311-81.171 143.976-82.626z" class="Vector_4"/>
        <path fill="#FFCB56" d="M412.314 258.756L758.793 58.453c1.839-.23 4.803.014 7.023 1.692-1.366-2.69-5.268-7.263-9.95-4.035-4.682 3.228-238.398 137.614-354.672 204.403-2.731 2.929-8.193 10.777-8.193 18.742v249.5c.195 2.609 2.575 8.216 10.534 9.771-3.81-1.573-5.121-6.694-5.267-9.771V281.598c0-11.245 9.364-19.914 14.046-22.842z" class="Vector_5"/>
        <path fill="#4B5361" d="M412.314 258.756L758.792 58.453c1.839-.23 4.803.014 7.023 1.692 1.548 1.17 2.734 3.035 2.926 5.922.396 5.942.262 127.582.093 215.531L398.267 497.714V281.598c0-11.245 9.365-19.914 14.047-22.842z" class="Vector_6"/>
      </g>
      <g class="stuff on mac">
        <circle cx="414" cy="275" r="3" fill="#fff" class="Ellipse"/>
        <circle cx="424" cy="269" r="3" fill="#fff" class="Ellipse_2"/>
        <circle cx="434" cy="263" r="3" fill="#fff" class="Ellipse_3"/>
        <path fill="#ECEBEA" d="M668 237l-13 7.966V258l13-7.241V237z" class="Rectangle"/>
        <path fill="#fff" d="M646 252l-20 12v3l20-12v-3z" class="Rectangle 2.6"/>
        <path fill="#fff" d="M647 259l-14 9v3l14-9v-3z" class="Rectangle 2.7"/>
        <path fill="#ECEBEA" d="M668 258l-13 7.966V279l13-7.241V258z" class="Rectangle_2"/>
        <path fill="#fff" d="M646 273l-20 12v3l20-12v-3z" class="Rectangle 2.8"/>
        <path fill="#fff" d="M647 280l-14 9v3l14-9v-3z" class="Rectangle 2.9"/>
        <path fill="#ECEBEA" d="M668 279l-13 7.966V300l13-7.241V279z" class="Rectangle_3"/>
        <path fill="#fff" d="M646 294l-20 12v3l20-12v-3z" class="Rectangle 2.10"/>
        <path fill="#fff" d="M647 301l-14 9v3l14-9v-3z" class="Rectangle 2.11"/>
        <path fill="#ECEBEA" d="M723 210l-13 7.966V231l13-7.241V210z" class="Rectangle_4"/>
        <path fill="#fff" d="M701 225l-20 12v3l20-12v-3z" class="Rectangle 2.12"/>
        <path fill="#fff" d="M702 232l-14 9v3l14-9v-3z" class="Rectangle 2.13"/>
        <path fill="#ECEBEA" d="M723 231l-13 7.966V252l13-7.241V231z" class="Rectangle_5"/>
        <path fill="#fff" d="M701 246l-20 12v3l20-12v-3z" class="Rectangle 2.14"/>
        <path fill="#fff" d="M702 253l-14 9v3l14-9v-3z" class="Rectangle 2.15"/>
        <path fill="#ECEBEA" d="M723 252l-13 7.966V273l13-7.241V252z" class="Rectangle_6"/>
        <path fill="#fff" d="M701 267l-20 12v3l20-12v-3z" class="Rectangle 2.16"/>
        <path fill="#fff" d="M702 274l-14 9v3l14-9v-3z" class="Rectangle 2.17"/>
        <g class="Vector 5.1">
          <path stroke="#fff" d="M619 186.13V207l129-75.13V111l-129 75.13zM748 163.174v-14.609l-129 73.044v12.521l129-70.956z"/>
        </g>
        <g class="bar charts">
          <g class="Group_2">
            <path fill="#F0EFEC" d="M453.346 432.122L448 434.413V302.291l5.346-2.291v132.122z" class="Vector 2"/>
            <path fill="#F0EFEC" d="M467.092 419.902l-5.346 2.292v-74.08l5.346-2.291v74.079z" class="Vector 2.1"/>
            <path fill="#F0EFEC" d="M494.586 395.464l-5.346 2.291v-90.882l5.346-2.291v90.882z" class="Vector 2.3"/>
            <path fill="#F0EFEC" d="M480.84 407.683l-5.346 2.291V302.291L480.84 300V407.683z" class="Vector 2.2"/>
          </g>
          <g class="Group_3">
            <path fill="#B7CFFD" d="M453.346 432.122L448 434.413v-48.877l5.346-2.292v48.878z" class="Vector 2_2"/>
            <path fill="#B7CFFD" d="M467.092 419.903l-5.346 2.291v-24.439l5.346-2.291v24.439z" class="Vector 2.1_2"/>
            <path fill="#B7CFFD" d="M494.586 395.464l-5.346 2.291v-48.878l5.346-2.291v48.878z" class="Vector 2.3_2"/>
            <path fill="#B7CFFD" d="M480.84 407.683l-5.346 2.291v-63.388l5.346-2.291v63.388z" class="Vector 2.2_2"/>
          </g>
        </g>
        <g class="pie chart">
          <path fill="#6B81AC" d="M603.162 310.829c1.196-5.675 1.839-11.501 1.839-17.338 0-7.027-.293-13.353-.966-18.989l-44.732 28.896 43.859 7.431z" class="Ellipse_4"/>
          <path fill="#B6C7E5" d="M597.967 327.341l-38.664-23.943 43.859 7.431a89.558 89.558 0 01-5.195 16.512z" class="Ellipse_5"/>
          <path fill="#B7CFFD" d="M568.122 239c-2.965 0-5.914.423-8.819 1.221v63.177l44.732-28.896C601.171 250.512 591.427 239 568.122 239z" class="Ellipse_6"/>
          <path fill="#fff" d="M512 315.783c0 36.934 9.702 51.188 38.483 51.188 19.658 0 37.897-17.051 47.483-39.63l-38.664-23.943v-63.177C533.998 247.178 512 282.653 512 315.783z" class="Ellipse_7"/>
        </g>
      </g>
      <g class="phone">
        <path fill="#FFCB56" d="M744.704 267.937v102c0 3.428 1.363 5.04 2.94 5.69-6.116-.138-7.645-3.851-7.645-5.69V265.592c0-6.565 3.529-10.16 5.293-11.137 14.897-8.598 45.043-25.911 46.454-26.38 1.412-.469 3.879 1.368 4.936 2.345-1.578-.79-3.657-.464-4.936 0-12.936 7.621-39.633 23.331-42.926 25.207-3.293 1.876-4.116 8.988-4.116 12.31z" class="Vector 2.3_3"/>
        <path fill="#B7CFFD" d="M792.923 351.178c6.116-4.22 7.253-11.528 7.057-14.655-.196-32.241-.706-97.896-1.176-102.586-.192-1.908-1.039-2.975-2.122-3.517-1.578-.79-3.656-.464-4.935 0-12.937 7.621-39.633 23.331-42.926 25.207-3.293 1.876-4.117 8.988-4.117 12.31v102c0 3.428 1.364 5.04 2.94 5.69 1.228.506 2.585.429 3.529.172 11.368-6.448 35.635-20.4 41.75-24.621z" class="Vector 2.2_3"/>
        <path fill="#71809A" d="M794.099 335.351c1.412-1.407 1.373-2.931 1.177-3.517v-92.621c0-1.407-1.177-1.368-1.765-1.172-13.916 8.011-42.103 24.269-43.514 25.207-1.411.938-1.764 3.517-1.764 4.689v90.276c0 2.814 1.96 2.736 2.94 2.345 13.721-7.816 41.515-23.8 42.926-25.207z" class="Vector 2.1_3"/>
      </g>
      <g class="ipad">
        <path fill="#FFCB56" d="M419.778 464.918c6.11-4.22 7.246-11.527 7.05-14.653-.195-32.237.47-153.64 0-158.329-.191-1.908-1.037-2.975-2.119-3.516-1.056-.977-3.521-2.814-4.931-2.345-1.409.469-91.432 54.044-106.316 62.64-1.762.977-5.287 4.572-5.287 11.136 0 6.565-1.175 128.046-1.175 160.087 0 1.839 1.527 5.551 7.637 5.689 1.227.506 2.582.429 3.525.172 11.359-6.447 95.507-56.661 101.616-60.881z" class="Vector 2.1_4"/>
        <path fill="#A4C3FE" d="M419.778 464.918c6.11-4.22 7.246-11.527 7.05-14.653-.195-32.237.47-153.64 0-158.329-.191-1.908-1.037-2.975-2.119-3.516-1.576-.79-3.653-.464-4.931 0-12.924 7.619-99.501 59.592-102.791 61.467-3.29 1.876-4.112 8.988-4.112 12.309 0 31.455-1.175 151.646-1.175 157.742 0 3.427 1.362 5.039 2.937 5.689 1.227.506 2.582.429 3.525.172 11.359-6.447 95.507-56.661 101.616-60.881z" class="Vector 2.3_4"/>
        <path fill="#71809A" d="M420.953 449.092c1.41-1.406 1.371-2.93 1.175-3.516 0-30.283 1.175-146.958 1.175-148.364 0-1.407-1.175-1.368-1.763-1.173-13.904 8.011-101.968 60.53-103.378 61.468-1.41.938-1.763 3.517-1.763 4.689 0 28.915-1.175 143.206-1.175 146.02 0 2.813 1.959 2.735 2.938 2.344 13.708-7.815 101.381-60.061 102.791-61.468z" class="Vector 2.2_4"/>
      </g>
      <g class="mouse">
        <path fill="#B7CFFD" d="M828.703 446.066c2.349-3.258.979-6.787 0-8.144C815.192 415.235 779.36 410 769.373 410c-9.104 0-31.879 15.955-25.148 17.451 4.789 5.119 38.341 21.135 54.519 28.504 5.287 6.98 27.022-5.817 29.959-9.889z" class="Vector 3_2"/>
        <path fill="#4B5361" d="M747.051 427.451c14.098-1.745 46.406 21.523 51.693 28.504-16.178-7.369-49.731-23.385-54.519-28.504.652.145 1.581.154 2.826 0z" class="Vector 3.1"/>
      </g>
      <g class="stuff on iphone">
        <path fill="#ECEBEA" d="M786 291l-7 5.31V305l7-4.828V291z" class="Rectangle_7"/>
        <path stroke="#fff" d="M771.5 299.517v-.634l-11 6.6v.634l11-6.6z" class="Rectangle 2"/>
        <path stroke="#fff" d="M771.5 307.468v-.582l-11 6.646v.582l11-6.646z" class="Rectangle 2.1"/>
        <path stroke="#fff" d="M771.5 315.517v-.634l-11 6.6v.634l11-6.6z" class="Rectangle 2.6_2"/>
        <path stroke="#fff" d="M771.5 319.468v-.582l-11 6.646v.582l11-6.646z" class="Rectangle 2.7_2"/>
        <path stroke="#fff" d="M771.5 327.517v-.634l-11 6.6v.634l11-6.6z" class="Rectangle 2.8_2"/>
        <path stroke="#fff" d="M771.5 331.468v-.582l-11 6.646v.582l11-6.646z" class="Rectangle 2.9_2"/>
        <path fill="#ECEBEA" d="M786 305l-7 4.931V318l7-4.483V305z" class="Rectangle_8"/>
        <path fill="#ECEBEA" d="M786 318l-7 5.31V332l7-4.828V318z" class="Rectangle_9"/>
        <g class="Vector 5_2">
          <path stroke="#fff" stroke-width=".5" d="M753 278.435v12.464l38-22.435V256l-38 22.435zM791 277.812v-4.363l-38 21.812V299l38-21.188z"/>
        </g>
      </g>
      <g class="stuff on ipad">
        <g class="Group_4">
          <path stroke="#fff" stroke-width=".5" d="M365.281 359.525l-.72.407-34.19 21.284a3 3 0 00-1.415 2.547v42.211m36.325-66.449v0a.482.482 0 01.719.419v42.114a2.999 2.999 0 01-1.401 2.538l-34.73 21.882a.596.596 0 01-.913-.504v0m36.325-66.449c-.659-.619-1.505-1.01-2.244-1.242-.838-.263-1.757.021-2.48.52-3.741 2.584-16.403 11.014-32.68 20.416-.959.72-2.877 2.518-2.877 3.957v38.668c0 .795.312 1.574.922 2.085.788.658 1.89 1.473 3.034 2.045" class="Vector 4.2"/>
          <path fill="#ECEBEA" d="M359.525 370.588l-24.096 14.745v9.376l24.096-14.225v-9.896z" class="Rectangle_10"/>
          <path stroke="#fff" stroke-width=".8" d="M359.125 398.962v-8.918l-7.112 4.827v8.45l7.112-4.359z" class="Rectangle_11"/>
          <path stroke="#fff" stroke-width=".8" d="M344.741 407.594v-8.918l-7.113 4.827v8.449l7.113-4.358z" class="Rectangle_12"/>
          <path stroke="#fff" stroke-width=".5" d="M359.275 384.832v-1.575l-22.877 13.727v1.574l22.877-13.726z" class="Rectangle 2.6_3"/>
          <path stroke="#fff" stroke-width=".5" d="M359.275 402.817v-1.57l-7.052 4.366v1.57l7.052-4.366z" class="Rectangle 2.7_3"/>
          <path stroke="#fff" stroke-width=".5" d="M344.891 411.449v-1.57l-7.053 4.366v1.569l7.053-4.365z" class="Rectangle 2.8_3"/>
        </g>
        <g class="Group_5">
          <path stroke="#fff" stroke-width=".5" d="M416.281 331.525l-.72.407-34.19 21.284a3 3 0 00-1.415 2.547v42.211m36.325-66.449v0a.482.482 0 01.719.419v42.114a2.999 2.999 0 01-1.401 2.538l-34.73 21.882a.596.596 0 01-.913-.504v0m36.325-66.449c-.659-.619-1.505-1.01-2.244-1.242-.838-.263-1.757.021-2.48.52-3.741 2.584-16.403 11.014-32.68 20.416-.959.72-2.877 2.518-2.877 3.957v38.668c0 .795.312 1.574.922 2.085.788.658 1.89 1.473 3.034 2.045" class="Vector 4.2_2"/>
          <path fill="#ECEBEA" d="M410.525 342.588l-24.096 14.745v9.376l24.096-14.225v-9.896z" class="Rectangle_13"/>
          <path stroke="#fff" stroke-width=".8" d="M410.125 370.962v-8.918l-7.112 4.827v8.45l7.112-4.359z" class="Rectangle_14"/>
          <path stroke="#fff" stroke-width=".8" d="M395.741 379.594v-8.918l-7.113 4.827v8.449l7.113-4.358z" class="Rectangle_15"/>
          <path stroke="#fff" stroke-width=".5" d="M410.275 356.832v-1.575l-22.877 13.727v1.574l22.877-13.726z" class="Rectangle 2.6_4"/>
          <path stroke="#fff" stroke-width=".5" d="M410.275 374.817v-1.57l-7.052 4.366v1.57l7.052-4.366z" class="Rectangle 2.7_4"/>
          <path stroke="#fff" stroke-width=".5" d="M395.891 383.449v-1.57l-7.053 4.366v1.569l7.053-4.365z" class="Rectangle 2.8_4"/>
        </g>
        <g class="Group_6">
          <path stroke="#fff" stroke-width=".5" d="M365.281 420.525l-.72.407-34.19 21.284a3 3 0 00-1.415 2.547v42.211m36.325-66.449v0a.482.482 0 01.719.419v42.114a2.999 2.999 0 01-1.401 2.538l-34.73 21.882a.596.596 0 01-.913-.504v0m36.325-66.449c-.659-.619-1.505-1.01-2.244-1.242-.838-.263-1.757.021-2.48.52-3.741 2.584-16.403 11.014-32.68 20.416-.959.72-2.877 2.518-2.877 3.957v38.668c0 .795.312 1.574.922 2.085.788.658 1.89 1.473 3.034 2.045" class="Vector 4.2_3"/>
          <path fill="#ECEBEA" d="M359.525 431.588l-24.096 14.745v9.376l24.096-14.225v-9.896z" class="Rectangle_16"/>
          <path stroke="#fff" stroke-width=".8" d="M359.125 459.962v-8.918l-7.112 4.827v8.45l7.112-4.359z" class="Rectangle_17"/>
          <path stroke="#fff" stroke-width=".8" d="M344.741 468.594v-8.918l-7.113 4.827v8.449l7.113-4.358z" class="Rectangle_18"/>
          <path stroke="#fff" stroke-width=".5" d="M359.275 445.832v-1.575l-22.877 13.727v1.574l22.877-13.726z" class="Rectangle 2.6_5"/>
          <path stroke="#fff" stroke-width=".5" d="M359.275 463.817v-1.57l-7.052 4.366v1.57l7.052-4.366z" class="Rectangle 2.7_5"/>
          <path stroke="#fff" stroke-width=".5" d="M344.891 472.449v-1.57l-7.053 4.366v1.569l7.053-4.365z" class="Rectangle 2.8_5"/>
        </g>
        <g class="Group_7">
          <path stroke="#fff" stroke-width=".5" d="M416.281 390.525l-.72.407-34.19 21.284a3 3 0 00-1.415 2.547v42.211m36.325-66.449v0a.482.482 0 01.719.419v42.114a2.999 2.999 0 01-1.401 2.538l-34.73 21.882a.596.596 0 01-.913-.504v0m36.325-66.449c-.659-.619-1.505-1.01-2.244-1.242-.838-.263-1.757.021-2.48.52-3.741 2.584-16.403 11.014-32.68 20.416-.959.72-2.877 2.518-2.877 3.957v38.668c0 .795.312 1.574.922 2.085.788.658 1.89 1.473 3.034 2.045" class="Vector 4.2_4"/>
          <path fill="#ECEBEA" d="M410.525 401.588l-24.096 14.745v9.376l24.096-14.225v-9.896z" class="Rectangle_19"/>
          <path stroke="#fff" stroke-width=".8" d="M410.125 429.962v-8.918l-7.112 4.827v8.45l7.112-4.359z" class="Rectangle_20"/>
          <path stroke="#fff" stroke-width=".8" d="M395.741 438.594v-8.918l-7.113 4.827v8.449l7.113-4.358z" class="Rectangle_21"/>
          <path stroke="#fff" stroke-width=".5" d="M410.275 415.832v-1.575l-22.877 13.727v1.574l22.877-13.726z" class="Rectangle 2.6_6"/>
          <path stroke="#fff" stroke-width=".5" d="M410.275 433.817v-1.57l-7.052 4.366v1.57l7.052-4.366z" class="Rectangle 2.7_6"/>
          <path stroke="#fff" stroke-width=".5" d="M395.891 442.449v-1.57l-7.053 4.366v1.569l7.053-4.365z" class="Rectangle 2.8_6"/>
        </g>
        <ellipse cx="324.5" cy="364" fill="#fff" class="Ellipse_8" rx="1.5" ry="2"/>
        <ellipse cx="329.5" cy="361" fill="#fff" class="Ellipse_9" rx="1.5" ry="2"/>
        <ellipse cx="334.5" cy="358" fill="#fff" class="Ellipse_10" rx="1.5" ry="2"/>
      </g>
    </g>
  </g>
</svg>
