<svg xmlns="http://www.w3.org/2000/svg" width="1152" height="700" fill="none" viewBox="0 0 1152 700">
  <g class="devices">
    <path fill="#fff" d="M0 0h1152v700H0z"/>
    <path fill="#3A3A3A" fill-rule="evenodd" d="M768.742 66.067c-.193-2.887-1.379-4.753-2.927-5.922-1.365-2.69-5.267-7.263-9.949-4.035-4.682 3.228-238.399 137.614-354.672 204.403-2.731 2.929-8.194 10.777-8.194 18.742v249.5c.195 2.609 2.575 8.216 10.535 9.771 1.268.523 2.812.654 4.682.186 32.542-18.71 74.276-42.702 117.639-67.626 12.876 9.852 39.33 29.791 42.139 30.728 3.512 1.171 12.876 1.757 19.314-1.171 5.15-2.343 57.551-33.775 83.108-49.198 1.294-.781 2.001-5.261 1.346-8.148v-.001a2.954 2.954 0 00-.175-.635l-.001-.001c-1.873-4.685-35.116-19.102-51.503-25.725 77.295-44.413 141.31-81.171 143.975-82.626 5.151-2.811 5.268-7.028 4.683-8.785.03-12.91.062-27.855.093-43.926.168-87.949.302-209.589-.093-215.531zm101.961 423.999c2.349-3.258.979-6.787 0-8.144C857.192 459.235 821.36 454 811.373 454c-9.104 0-31.879 15.955-25.148 17.451 4.789 5.119 38.341 21.135 54.519 28.504 5.287 6.98 27.022-5.817 29.959-9.889z" class="Primary" clip-rule="evenodd"/>
    <g class="mouse" opacity=".8">
      <path fill="#B7CFFD" d="M870.703 490.066c2.349-3.258.979-6.787 0-8.144C857.192 459.235 821.36 454 811.373 454c-9.104 0-31.879 15.955-25.148 17.451 4.789 5.119 38.341 21.135 54.519 28.504 5.287 6.98 27.022-5.817 29.959-9.889z" class="Vector 3"/>
      <path fill="#4B5361" d="M789.052 471.451C803.15 469.706 835.713 493.02 841 500c-16.178-7.368-49.986-23.43-54.774-28.549.652.145 1.581.154 2.826 0z" class="Vector 3.1"/>
    </g>
    <g class="mac" opacity=".3">
      <path fill="#FFCB56" d="M671.764 443.297a2.977 2.977 0 00-.177-.637c.067.201.126.415.177.637.741 4.632-9.403 10.808-14.808 13.42l-69.647 40.997c-3.707 1.953-12.993 4.686-20.484 0-7.492-4.685-28.712-20.694-38.386-28.112l-2.583 1.484c12.876 9.852 39.33 29.791 42.139 30.728 3.512 1.171 12.876 1.757 19.314-1.171 5.15-2.343 57.551-33.775 83.108-49.198 1.294-.781 2.001-5.261 1.347-8.148z" class="color 2"/>
      <path fill="#000" d="M671.588 442.66c-1.873-4.685-35.116-19.102-51.503-25.725a643265.682 643265.682 0 00-91.645 52.667c9.674 7.418 30.894 23.427 38.385 28.112 7.492 4.686 16.778 1.953 20.485 0l69.646-40.997c5.658-2.734 16.505-9.371 14.632-14.057z" class="Vector"/>
      <path fill="#B7CFFD" d="M764.06 334.309c5.151-2.811 5.268-7.028 4.682-8.785.03-12.91.062-27.855.093-43.926L398.268 497.714v31.041c.147 3.077 1.457 8.198 5.268 9.771 1.267.523 2.812.654 4.682.186 32.541-18.71 74.276-42.702 117.638-67.626l2.584-1.484c30.701-17.646 62.14-35.714 91.644-52.667 77.296-44.413 141.311-81.171 143.976-82.626z" class="color 1"/>
      <path fill="#FFCB56" d="M412.314 258.756L758.793 58.453c1.839-.23 4.803.014 7.023 1.692-1.366-2.69-5.268-7.263-9.95-4.035-4.682 3.228-238.398 137.614-354.672 204.403-2.731 2.929-8.193 10.777-8.193 18.742v249.5c.195 2.609 2.575 8.216 10.534 9.771-3.81-1.573-5.121-6.694-5.267-9.771V281.598c0-11.245 9.364-19.914 14.046-22.842z" class="color2"/>
      <path fill="#4B5361" d="M412.046 258.377L758.524 58.073c1.84-.23 4.803.015 7.024 1.692 1.547 1.17 2.734 3.035 2.926 5.922.396 5.943.262 127.583.093 215.531L398 497.335V281.218c0-11.245 9.364-19.913 14.046-22.841z" class="Vector_2"/>
    </g>
    <g class="stuff on mac" opacity=".8">
      <circle cx="414" cy="275" r="3" fill="#fff" class="Ellipse"/>
      <circle cx="424" cy="269" r="3" fill="#fff" class="Ellipse_2"/>
      <circle cx="434" cy="263" r="3" fill="#fff" class="Ellipse_3"/>
      <path fill="#ECEBEA" d="M668 237l-13 7.966V258l13-7.241V237z" class="Rectangle"/>
      <path fill="#fff" d="M646 252l-20 12v3l20-12v-3z" class="Rectangle 2.6"/>
      <path fill="#fff" d="M647 259l-14 9v3l14-9v-3z" class="Rectangle 2.7"/>
      <path fill="#ECEBEA" d="M668 258l-13 7.966V279l13-7.241V258z" class="Rectangle_2"/>
      <path fill="#fff" d="M646 273l-20 12v3l20-12v-3z" class="Rectangle 2.8"/>
      <path fill="#fff" d="M647 280l-14 9v3l14-9v-3z" class="Rectangle 2.9"/>
      <path fill="#ECEBEA" d="M668 279l-13 7.966V300l13-7.241V279z" class="Rectangle_3"/>
      <path fill="#fff" d="M646 294l-20 12v3l20-12v-3z" class="Rectangle 2.10"/>
      <path fill="#fff" d="M647 301l-14 9v3l14-9v-3z" class="Rectangle 2.11"/>
      <path fill="#ECEBEA" d="M723 210l-13 7.966V231l13-7.241V210z" class="Rectangle_4"/>
      <path fill="#fff" d="M701 225l-20 12v3l20-12v-3z" class="Rectangle 2.12"/>
      <path fill="#fff" d="M702 232l-14 9v3l14-9v-3z" class="Rectangle 2.13"/>
      <path fill="#ECEBEA" d="M723 231l-13 7.966V252l13-7.241V231z" class="Rectangle_5"/>
      <path fill="#fff" d="M701 246l-20 12v3l20-12v-3z" class="Rectangle 2.14"/>
      <path fill="#fff" d="M702 253l-14 9v3l14-9v-3z" class="Rectangle 2.15"/>
      <path fill="#ECEBEA" d="M723 252l-13 7.966V273l13-7.241V252z" class="Rectangle_6"/>
      <path fill="#fff" d="M701 267l-20 12v3l20-12v-3z" class="Rectangle 2.16"/>
      <path fill="#fff" d="M702 274l-14 9v3l14-9v-3z" class="Rectangle 2.17"/>
      <g class="Vector 5.1">
        <path stroke="#fff" d="M619 186.13V207l129-75.13V111l-129 75.13zM748 163.174v-14.609l-129 73.044v12.521l129-70.956z"/>
      </g>
      <g class="bar charts">
        <g class="Group">
          <path fill="#F0EFEC" d="M453.346 432.122L448 434.413V302.291l5.346-2.291v132.122z" class="Vector 2"/>
          <path fill="#F0EFEC" d="M467.092 419.902l-5.346 2.292v-74.08l5.346-2.291v74.079z" class="Vector 2.1"/>
          <path fill="#F0EFEC" d="M494.586 395.464l-5.346 2.291v-90.882l5.346-2.291v90.882z" class="Vector 2.3"/>
          <path fill="#F0EFEC" d="M480.84 407.683l-5.346 2.291V302.291L480.84 300V407.683z" class="Vector 2.2"/>
        </g>
        <g class="Group_2">
          <path fill="url(#paint0_linear)" d="M453.346 432.122L448 434.413v-48.877l5.346-2.292v48.878z" class="Vector 2_2"/>
          <path fill="url(#paint1_linear)" d="M467.092 419.903l-5.346 2.291v-24.439l5.346-2.291v24.439z" class="Vector 2.1_2"/>
          <path fill="url(#paint2_linear)" d="M494.586 395.464l-5.346 2.291v-48.878l5.346-2.291v48.878z" class="Vector 2.3_2"/>
          <path fill="url(#paint3_linear)" d="M480.84 407.683l-5.346 2.291v-63.388l5.346-2.291v63.388z" class="Vector 2.2_2"/>
        </g>
      </g>
      <g class="pie chart">
        <path fill="url(#paint4_linear)" d="M603.162 310.829c1.196-5.675 1.839-11.501 1.839-17.338 0-7.027-.293-13.353-.966-18.989l-44.732 28.896 43.859 7.431z" class="Ellipse_4"/>
        <path fill="#B6C7E5" d="M597.967 327.341l-38.664-23.943 43.859 7.431a89.558 89.558 0 01-5.195 16.512z" class="Ellipse_5"/>
        <path fill="url(#paint5_linear)" d="M568.122 239c-2.965 0-5.914.423-8.819 1.221v63.177l44.732-28.896C601.171 250.512 591.427 239 568.122 239z" class="Ellipse_6"/>
        <path fill="#fff" d="M512 315.783c0 36.934 9.702 51.188 38.483 51.188 19.658 0 37.897-17.051 47.483-39.63l-38.664-23.943v-63.177C533.998 247.178 512 282.653 512 315.783z" class="Ellipse_7"/>
      </g>
    </g>
    <path fill="#3B82FF" fill-rule="evenodd" d="M751.173 375.799c-.944.257-2.301.334-3.528-.172-6.116-.138-7.645-3.851-7.645-5.69V265.592c0-6.565 3.528-10.16 5.292-11.137 14.897-8.598 45.044-25.911 46.455-26.38 1.411-.469 3.878 1.368 4.935 2.345 1.083.542 1.93 1.609 2.122 3.517.47 4.69.98 70.345 1.176 102.586.196 3.127-.941 10.435-7.057 14.655-6.115 4.221-30.382 18.173-41.75 24.621zm-331.395 89.119c6.11-4.22 7.246-11.527 7.05-14.653-.079-13.019-.017-40.581.053-69.125l.014-5.718.019-7.555c.093-37.689.165-73.428-.086-75.931-.191-1.908-1.037-2.975-2.119-3.516-1.056-.977-3.521-2.814-4.931-2.345-.798.266-30.017 17.564-57.913 34.078-21.362 12.647-41.948 24.834-48.403 28.562-1.762.977-5.287 4.572-5.287 11.136 0 2.046-.114 15.249-.271 33.427-.347 40.16-.904 104.603-.904 126.66 0 1.839 1.527 5.551 7.637 5.689 1.227.506 2.582.429 3.525.172 11.359-6.447 95.507-56.661 101.616-60.881z" class="Secondary" clip-rule="evenodd"/>
    <g class="phone" opacity=".5">
      <path fill="#FFCB56" d="M744.704 267.937v102c0 3.428 1.363 5.04 2.94 5.69-6.116-.138-7.645-3.851-7.645-5.69V265.592c0-6.565 3.529-10.16 5.293-11.137 14.897-8.598 45.043-25.911 46.454-26.38 1.412-.469 3.879 1.368 4.936 2.345-1.578-.79-3.657-.464-4.936 0-12.936 7.621-39.633 23.331-42.926 25.207-3.293 1.876-4.116 8.988-4.116 12.31z" class="color 2_2"/>
      <path fill="#B7CFFD" d="M792.923 351.178c6.116-4.22 7.253-11.528 7.057-14.655-.196-32.241-.706-97.896-1.176-102.586-.192-1.908-1.039-2.975-2.122-3.517-1.578-.79-3.656-.464-4.935 0-12.937 7.621-39.633 23.331-42.926 25.207-3.293 1.876-4.117 8.988-4.117 12.31v102c0 3.428 1.364 5.04 2.94 5.69 1.228.506 2.585.429 3.529.172 11.368-6.448 35.635-20.4 41.75-24.621z" class="color 1_2"/>
      <path fill="#71809A" d="M794.099 335.351c1.412-1.407 1.373-2.931 1.177-3.517v-92.621c0-1.407-1.177-1.368-1.765-1.172-13.916 8.011-42.103 24.269-43.514 25.207-1.411.938-1.764 3.517-1.764 4.689v90.276c0 2.814 1.96 2.736 2.94 2.345 13.721-7.816 41.515-23.8 42.926-25.207z" class="Vector 2.1_3"/>
    </g>
    <g class="ipad" opacity=".5">
      <path fill="#FFCB56" d="M419.778 464.918c6.11-4.22 7.246-11.527 7.05-14.653-.195-32.237.47-153.64 0-158.329-.191-1.908-1.037-2.975-2.119-3.516-1.056-.977-3.521-2.814-4.931-2.345-1.409.469-91.432 54.044-106.316 62.64-1.762.977-5.287 4.572-5.287 11.136 0 6.565-1.175 128.046-1.175 160.087 0 1.839 1.527 5.551 7.637 5.689 1.227.506 2.582.429 3.525.172 11.359-6.447 95.507-56.661 101.616-60.881z" class="color 2_3"/>
      <path fill="#B7CFFD" d="M419.778 464.918c6.11-4.22 7.246-11.527 7.05-14.653-.195-32.237.47-153.64 0-158.329-.191-1.908-1.037-2.975-2.119-3.516-1.576-.79-3.653-.464-4.931 0-12.924 7.619-99.501 59.592-102.791 61.467-3.29 1.876-4.112 8.988-4.112 12.309 0 31.455-1.175 151.646-1.175 157.742 0 3.427 1.362 5.039 2.937 5.689 1.227.506 2.582.429 3.525.172 11.359-6.447 95.507-56.661 101.616-60.881z" class="color 1_3"/>
      <path fill="#71809A" d="M420.953 449.092c1.41-1.406 1.371-2.93 1.175-3.516 0-30.283 1.175-146.958 1.175-148.364 0-1.407-1.175-1.368-1.763-1.173-13.904 8.011-101.968 60.53-103.378 61.468-1.41.938-1.763 3.517-1.763 4.689 0 28.915-1.175 143.206-1.175 146.02 0 2.813 1.959 2.735 2.938 2.344 13.708-7.815 101.381-60.061 102.791-61.468z" class="Vector 2.2_3"/>
    </g>
    <g class="stuff on iphone">
      <path fill="#ECEBEA" d="M786 291l-7 5.31V305l7-4.828V291z" class="Rectangle_7"/>
      <path stroke="#fff" d="M771.5 299.517v-.634l-11 6.6v.634l11-6.6z" class="Rectangle 2"/>
      <path stroke="#fff" d="M771.5 307.468v-.582l-11 6.646v.582l11-6.646z" class="Rectangle 2.1"/>
      <path stroke="#fff" d="M771.5 315.517v-.634l-11 6.6v.634l11-6.6z" class="Rectangle 2.6_2"/>
      <path stroke="#fff" d="M771.5 319.468v-.582l-11 6.646v.582l11-6.646z" class="Rectangle 2.7_2"/>
      <path stroke="#fff" d="M771.5 327.517v-.634l-11 6.6v.634l11-6.6z" class="Rectangle 2.8_2"/>
      <path stroke="#fff" d="M771.5 331.468v-.582l-11 6.646v.582l11-6.646z" class="Rectangle 2.9_2"/>
      <path fill="#ECEBEA" d="M786 305l-7 4.931V318l7-4.483V305z" class="Rectangle_8"/>
      <path fill="#ECEBEA" d="M786 318l-7 5.31V332l7-4.828V318z" class="Rectangle_9"/>
      <g class="Vector 5">
        <path stroke="#fff" stroke-width=".5" d="M753 278.435v12.464l38-22.435V256l-38 22.435zM791 277.812v-4.363l-38 21.812V299l38-21.188z"/>
      </g>
    </g>
    <g class="stuff on ipad">
      <g class="Group_3">
        <path stroke="#fff" stroke-width=".5" d="M365.281 359.525l-.72.407-34.19 21.284a3 3 0 00-1.415 2.547v42.211m36.325-66.449v0a.482.482 0 01.719.419v42.114a2.999 2.999 0 01-1.401 2.538l-34.73 21.882a.596.596 0 01-.913-.504v0m36.325-66.449c-.659-.619-1.505-1.01-2.244-1.242-.838-.263-1.757.021-2.48.52-3.741 2.584-16.403 11.014-32.68 20.416-.959.72-2.877 2.518-2.877 3.957v38.668c0 .795.312 1.574.922 2.085.788.658 1.89 1.473 3.034 2.045" class="Vector 4.2"/>
        <path fill="#ECEBEA" d="M359.525 370.588l-24.096 14.745v9.376l24.096-14.225v-9.896z" class="Rectangle_10"/>
        <path stroke="#fff" stroke-width=".8" d="M359.125 398.962v-8.918l-7.112 4.827v8.45l7.112-4.359z" class="Rectangle_11"/>
        <path stroke="#fff" stroke-width=".8" d="M344.741 407.594v-8.918l-7.113 4.827v8.449l7.113-4.358z" class="Rectangle_12"/>
        <path stroke="#fff" stroke-width=".5" d="M359.275 384.832v-1.575l-22.877 13.727v1.574l22.877-13.726z" class="Rectangle 2.6_3"/>
        <path stroke="#fff" stroke-width=".5" d="M359.275 402.817v-1.57l-7.052 4.366v1.57l7.052-4.366z" class="Rectangle 2.7_3"/>
        <path stroke="#fff" stroke-width=".5" d="M344.891 411.449v-1.57l-7.053 4.366v1.569l7.053-4.365z" class="Rectangle 2.8_3"/>
      </g>
      <g class="Group_4">
        <path stroke="#fff" stroke-width=".5" d="M416.281 331.525l-.72.407-34.19 21.284a3 3 0 00-1.415 2.547v42.211m36.325-66.449v0a.482.482 0 01.719.419v42.114a2.999 2.999 0 01-1.401 2.538l-34.73 21.882a.596.596 0 01-.913-.504v0m36.325-66.449c-.659-.619-1.505-1.01-2.244-1.242-.838-.263-1.757.021-2.48.52-3.741 2.584-16.403 11.014-32.68 20.416-.959.72-2.877 2.518-2.877 3.957v38.668c0 .795.312 1.574.922 2.085.788.658 1.89 1.473 3.034 2.045" class="Vector 4.2_2"/>
        <path fill="#ECEBEA" d="M410.525 342.588l-24.096 14.745v9.376l24.096-14.225v-9.896z" class="Rectangle_13"/>
        <path stroke="#fff" stroke-width=".8" d="M410.125 370.962v-8.918l-7.112 4.827v8.45l7.112-4.359z" class="Rectangle_14"/>
        <path stroke="#fff" stroke-width=".8" d="M395.741 379.594v-8.918l-7.113 4.827v8.449l7.113-4.358z" class="Rectangle_15"/>
        <path stroke="#fff" stroke-width=".5" d="M410.275 356.832v-1.575l-22.877 13.727v1.574l22.877-13.726z" class="Rectangle 2.6_4"/>
        <path stroke="#fff" stroke-width=".5" d="M410.275 374.817v-1.57l-7.052 4.366v1.57l7.052-4.366z" class="Rectangle 2.7_4"/>
        <path stroke="#fff" stroke-width=".5" d="M395.891 383.449v-1.57l-7.053 4.366v1.569l7.053-4.365z" class="Rectangle 2.8_4"/>
      </g>
      <g class="Group_5">
        <path stroke="#fff" stroke-width=".5" d="M365.281 420.525l-.72.407-34.19 21.284a3 3 0 00-1.415 2.547v42.211m36.325-66.449v0a.482.482 0 01.719.419v42.114a2.999 2.999 0 01-1.401 2.538l-34.73 21.882a.596.596 0 01-.913-.504v0m36.325-66.449c-.659-.619-1.505-1.01-2.244-1.242-.838-.263-1.757.021-2.48.52-3.741 2.584-16.403 11.014-32.68 20.416-.959.72-2.877 2.518-2.877 3.957v38.668c0 .795.312 1.574.922 2.085.788.658 1.89 1.473 3.034 2.045" class="Vector 4.2_3"/>
        <path fill="#ECEBEA" d="M359.525 431.588l-24.096 14.745v9.376l24.096-14.225v-9.896z" class="Rectangle_16"/>
        <path stroke="#fff" stroke-width=".8" d="M359.125 459.962v-8.918l-7.112 4.827v8.45l7.112-4.359z" class="Rectangle_17"/>
        <path stroke="#fff" stroke-width=".8" d="M344.741 468.594v-8.918l-7.113 4.827v8.449l7.113-4.358z" class="Rectangle_18"/>
        <path stroke="#fff" stroke-width=".5" d="M359.275 445.832v-1.575l-22.877 13.727v1.574l22.877-13.726z" class="Rectangle 2.6_5"/>
        <path stroke="#fff" stroke-width=".5" d="M359.275 463.817v-1.57l-7.052 4.366v1.57l7.052-4.366z" class="Rectangle 2.7_5"/>
        <path stroke="#fff" stroke-width=".5" d="M344.891 472.449v-1.57l-7.053 4.366v1.569l7.053-4.365z" class="Rectangle 2.8_5"/>
      </g>
      <g class="Group_6">
        <path stroke="#fff" stroke-width=".5" d="M416.281 390.525l-.72.407-34.19 21.284a3 3 0 00-1.415 2.547v42.211m36.325-66.449v0a.482.482 0 01.719.419v42.114a2.999 2.999 0 01-1.401 2.538l-34.73 21.882a.596.596 0 01-.913-.504v0m36.325-66.449c-.659-.619-1.505-1.01-2.244-1.242-.838-.263-1.757.021-2.48.52-3.741 2.584-16.403 11.014-32.68 20.416-.959.72-2.877 2.518-2.877 3.957v38.668c0 .795.312 1.574.922 2.085.788.658 1.89 1.473 3.034 2.045" class="Vector 4.2_4"/>
        <path fill="#ECEBEA" d="M410.525 401.588l-24.096 14.745v9.376l24.096-14.225v-9.896z" class="Rectangle_19"/>
        <path stroke="#fff" stroke-width=".8" d="M410.125 429.962v-8.918l-7.112 4.827v8.45l7.112-4.359z" class="Rectangle_20"/>
        <path stroke="#fff" stroke-width=".8" d="M395.741 438.594v-8.918l-7.113 4.827v8.449l7.113-4.358z" class="Rectangle_21"/>
        <path stroke="#fff" stroke-width=".5" d="M410.275 415.832v-1.575l-22.877 13.727v1.574l22.877-13.726z" class="Rectangle 2.6_6"/>
        <path stroke="#fff" stroke-width=".5" d="M410.275 433.817v-1.57l-7.052 4.366v1.57l7.052-4.366z" class="Rectangle 2.7_6"/>
        <path stroke="#fff" stroke-width=".5" d="M395.891 442.449v-1.57l-7.053 4.366v1.569l7.053-4.365z" class="Rectangle 2.8_6"/>
      </g>
      <ellipse cx="324.5" cy="364" fill="#fff" class="Ellipse_8" rx="1.5" ry="2"/>
      <ellipse cx="329.5" cy="361" fill="#fff" class="Ellipse_9" rx="1.5" ry="2"/>
      <ellipse cx="334.5" cy="358" fill="#fff" class="Ellipse_10" rx="1.5" ry="2"/>
    </g>
  </g>
  <defs>
    <linearGradient id="paint0_linear" x1="450.673" x2="450.673" y1="383.244" y2="434.413" class="paint0_linear" gradientUnits="userSpaceOnUse">
      <stop stop-color="#B7CFFD" stop-opacity="0"/>
      <stop offset=".635" stop-color="#B7CFFD"/>
      <stop offset="1" stop-color="#B7CFFD"/>
    </linearGradient>
    <linearGradient id="paint1_linear" x1="464.419" x2="464.419" y1="395.464" y2="422.194" class="paint1_linear" gradientUnits="userSpaceOnUse">
      <stop stop-color="#B7CFFD" stop-opacity="0"/>
      <stop offset=".635" stop-color="#B7CFFD"/>
      <stop offset="1" stop-color="#B7CFFD"/>
    </linearGradient>
    <linearGradient id="paint2_linear" x1="491.913" x2="491.913" y1="346.586" y2="397.755" class="paint2_linear" gradientUnits="userSpaceOnUse">
      <stop stop-color="#B7CFFD" stop-opacity="0"/>
      <stop offset=".635" stop-color="#B7CFFD"/>
      <stop offset="1" stop-color="#B7CFFD"/>
    </linearGradient>
    <linearGradient id="paint3_linear" x1="478.167" x2="478.167" y1="344.295" y2="409.974" class="paint3_linear" gradientUnits="userSpaceOnUse">
      <stop stop-color="#B7CFFD" stop-opacity="0"/>
      <stop offset=".635" stop-color="#B7CFFD"/>
      <stop offset="1" stop-color="#B7CFFD"/>
    </linearGradient>
    <linearGradient id="paint4_linear" x1="601.775" x2="549.991" y1="292.737" y2="305.299" class="paint4_linear" gradientUnits="userSpaceOnUse">
      <stop stop-color="#6B81AC"/>
      <stop offset="1" stop-color="#6B81AC" stop-opacity="0"/>
    </linearGradient>
    <linearGradient id="paint5_linear" x1="581.669" x2="548.47" y1="239" y2="324.765" class="paint5_linear" gradientUnits="userSpaceOnUse">
      <stop stop-color="#B7CFFD"/>
      <stop offset="1" stop-color="#B7CFFD" stop-opacity="0"/>
    </linearGradient>
  </defs>
</svg>
