<svg xmlns="http://www.w3.org/2000/svg" width="1152" height="700" fill="none" viewBox="0 0 1152 700">
  <g clip-path="url(#clip0)">
    <path fill="#fff" d="M0 0h1152v700H0z"/>
    <path fill="url(#paint0_linear)" d="M0 0h1152v700H0z"/>
    <g class="Group 2.1">
      <g class="man">
        <path fill="#EB6244" fill-rule="evenodd" d="M749.555 388.264c0 4.825-2.971 11.088-7.031 13.114v4.446c-3.923 2.813-6.123 2.415-10.045 0l1.004-2.344 1.329-3.542c-2.952-2.549-5.012-6.986-5.012-10.857 0-5.836 4.682-11.384 10.045-11.384 5.363 0 9.71 4.731 9.71 10.567zm-20.089 195.734l-.67 8.706h4.353l2.009-8.706h-5.692z" class="Union" clip-rule="evenodd"/>
        <path fill="#fff" fill-opacity=".11" d="M749.556 388.264c0 5.836-4.348 13.777-9.711 13.777-5.362 0-10.045-7.123-10.045-12.959 0-5.836 4.683-11.385 10.045-11.385 5.363 0 9.711 4.731 9.711 10.567z" class="Ellipse"/>
        <path fill="#4E5870" d="M726.452 587.973h9.71s14.182-32.352 18.751-49.177c5.496-20.239 6.697-58.931 6.697-58.931h-56.253L700 587.973h12.389l15.737-83.039s6.007 17.516 5.692 33.862c-.317 16.442-7.366 49.177-7.366 49.177z" class="Vector 3"/>
        <path fill="#000" fill-opacity=".13" d="M731.475 587.972h4.687s14.182-32.352 18.751-49.177c5.496-20.239 6.697-58.931 6.697-58.931l-11.05-1.339s1.228 36.59 0 54.243c-1.632 23.468-19.085 55.204-19.085 55.204z" class="Vector 3.1"/>
        <path fill="#000" fill-opacity=".13" d="M726.787 587.638h1.674s12.407-29.031 11.719-48.508c-.444-12.559-.812-16.509-5.692-25.447-2.064-3.78-6.378-8.995-6.378-8.995s4.717 6.807 5.692 24.108c1.355 24.062-7.015 58.842-7.015 58.842z" class="Vector 3.2"/>
        <path fill="#49494B" fill-rule="evenodd" d="M758.074 412.045c-3.826-3.886-15.55-6.85-15.55-6.85s-6.697 3.197-10.045 0c-.726.168-1.746.304-2.923.46-1.931.257-4.285.57-6.459 1.175-8.285 2.305-14.063 10.038-14.063 15.399 0 26.451-4.012 59.308-4.012 59.308 4.739.745 9.073 1.82 13.235 2.852 12.971 3.217 24.278 6.021 41.009-2.852 5.574 1.301 4.962-6.317 3.312-20.678 5.959-1.094 9.856-3.345 9.411-7.448-3.782-34.913-11.862-40.501-13.915-41.366z" class="Union_2" clip-rule="evenodd"/>
        <path fill="#000" fill-opacity=".14" d="M771.989 453.413c-4.352-40.181-14.398-41.52-14.398-41.52s1.005 4.353 1.005 14.733c0 8.659 1.004 20.764 1.004 20.764l-44.198 3.679-1.339 7.036s59.596 10.72 57.926-4.692z" class="Vector 2.1"/>
        <path fill="#343148" d="M729.131 390.421c-.804 1.071 1.116 3.28 2.009 3.726.335-1.562 1.272-5.558 1.004-6.362-.268-.803.335-2.567 1.005-3.683 2.951-1.135-3.214-5.033 13.728-.335.67.335 1.138.335 3.014.335 4.352 0 1.782-2.211 5.022-3.056 3.683-.962.464-6.008-1.674-6.697-4.018-1.296-6.362 1.339-8.371 2.678-2.009 1.34-6.027-.669-8.371-.669-2.344 0-4.353 3.683-6.697 4.688-1.875.803-1.227 6.585-.669 9.375z" class="Vector 5"/>
        <g class="Group">
          <path fill="#31719F" d="M735.778 592.042c-3.153.911-7.288-.44-8.199 0-.911.441-.456 5.922-.456 5.922l21.41.456s.27-1.973 0-3.189c-1.215-5.466-12.755-3.189-12.755-3.189z" class="Vector 6"/>
          <path stroke="#2D4654" stroke-width=".911" d="M727.123 597.492l21.41.455" class="Vector 7"/>
          <path fill="#2D4654" d="M728.945 596.217l1.367-1.913h-1.367v1.913z" class="Vector 8"/>
          <path fill="#2D4654" d="M730.768 596.217l1.366-1.913h-1.366v1.913z" class="Vector 8.1"/>
          <path fill="#2D4654" d="M732.59 596.217l1.366-1.913h-1.366v1.913z" class="Vector 8.2"/>
        </g>
      </g>
      <path fill="#4C2FFF" fill-rule="evenodd" d="M735.639 257.996H492.913v30.057h7.94v310.212h229.115V288.053h5.671v-30.057z" class="Union_3" clip-rule="evenodd"/>
      <path fill="#000" fill-opacity=".15" d="M500.965 288.232l68.604 212.957 160.075 97.189H500.965V288.232z" class="Rectangle"/>
      <path fill="#000" fill-opacity=".26" d="M492.913 257.996h242.726v30.057H492.913z" class="Rectangle 4.1"/>
      <g class="Group_2">
        <path fill="#fff" fill-opacity=".17" d="M532.611 302.23h165.598v91.306H532.611z" class="Rectangle 2"/>
        <path fill="#000" fill-opacity=".26" d="M532.611 302.23h165.598v13.611H532.611z" class="Rectangle 2.2"/>
        <rect width="54.443" height="6.238" x="588.189" y="343.062" fill="#000" fill-opacity=".26" class="Rectangle 2.1" rx="3.119"/>
      </g>
      <g class="Group 2">
        <path fill="#FFE6A3" d="M431.381 411.684h217.206v141.212H431.381z" class="Rectangle 2.1_2"/>
        <path fill="#FFF3D2" d="M392.25 425.295h249.531v141.212H392.25z" class="Rectangle 2_2"/>
        <path fill="#000" fill-opacity=".04" d="M392.25 425.295l25.461 41.949 12.506 58.956 211.564 40.307H392.25V425.295z" class="Rectangle 2.2_2"/>
        <path fill="#F8B792" fill-rule="evenodd" d="M659.645 443.16l-122.78-.851-9.641 15.451h.011H380.624l3.686 140.507h267.679l6.207-139.795h.032l1.417-15.312z" class="Union_4" clip-rule="evenodd"/>
        <path fill="#000" fill-opacity=".08" d="M380.624 457.759l35.658 108.818h139.709l95.998 31.688H384.31l-3.686-140.506z" class="Rectangle 2.1_3"/>
        <rect width="87.903" height="6.805" x="417.77" y="500.721" fill="#000" fill-opacity=".16" class="Rectangle 3" rx="3.403"/>
        <rect width="71.457" height="5.671" x="417.77" y="512.631" fill="#000" fill-opacity=".16" class="Rectangle 3.1" rx="2.836"/>
      </g>
      <path fill="#EDEDED" d="M467.735 141.02l-6.789-23.583 40.733-11.434v27.156l-33.944 7.861z" class="Vector 2.1_2"/>
      <path fill="#DFDFDF" d="M460.946 142.806l-5.003-28.585 42.878-8.218 2.858 27.87-40.733 8.933z" class="Vector 2"/>
      <g class="Group_3">
        <path fill="#FF8989" fill-rule="evenodd" d="M529.218 149.6l-1.398-11.182c-6.748 1.52-8.597-8.863-4.752-23.96 1.318-5.174 10.543-3.594 14.936 0 4.003 3.276 2.699 12.523 1.832 18.671-.084.597-.164 1.165-.235 1.695-.799 5.991-1.198 6.19-1.198 6.19l-.399 8.586h-8.786zm-34.304 23.484c2.396-2.196 7.788-10.183 7.788-10.183s4.03-7.421 7.987-6.589c4.251.893 3.993 10.383 3.993 10.383l-2.232 9.235c-18.97 21.964-27.719 9.534-29.716 1.547-1.996-7.987-1.597-33.345-1.597-33.345s-3.09-11.72-.799-13.178c2.197-1.398 4.793 4.792 4.793 4.792s1.597-7.788 2.396 0c.258 2.512-.4 8.386-.4 8.386s5.392 31.149 7.787 28.952zm12.54 53.091l11.442-23.157c.218 4.076-.086 7.843-1.02 12.994l29.951 1.598c-.207-2.957-.509-5.436-.783-7.682-.779-6.402-1.33-10.924 1.183-19.274l-24.553 3.069 9.777-18.843-15.974-5.79-6.497 27.701-5.583 17.043-4.114 9.108c-.315.631-.908 1.485-1.568 2.433-1.801 2.591-4.094 5.887-2.545 7.264 2.116 1.88 8.031-1.273 9.696-2.938 1.176 1.763 4.114 2.938 2.645 0-.136-.273-.356-.582-.609-.938-.48-.676-1.079-1.518-1.448-2.588zm-32.005 44.295l-11.131 32.857-2.843 6.384c-2.632.321-5.472 1.025-8.181 1.696-3.238.802-6.287 1.557-8.567 1.557-2.084 0-4.267 4.384 7.884 4.384 5.086 0 9.065 1.412 11.663 2.335h.001c1.198.425 2.103.746 2.688.777 1.491.077 4.634-7.68 6.969-13.442.565-1.394 1.082-2.67 1.517-3.691 1.933-4.535 4.232-9.345 6.414-13.704l3.378 31.618v6.988c-4.159 2.496-9.012 6.101-12.248 8.504v.001c-.647.48-1.229.913-1.729 1.279-1.681 1.233-.998 2.318 8.986.799 7.348-1.118 12.645-2.33 14.376-2.995 1.159-.446.806-4.278.419-8.473-.19-2.067-.389-4.222-.419-6.103-.228-14.316 3.483-46.724 3.483-46.724h-8.824l-13.836-4.047z" class="Union_5" clip-rule="evenodd"/>
        <path fill="#4655D8" d="M443.105 312.854c1.469-.587 16.454-2.644 16.454-2.644s-2.156 1.683-1.469 2.644c1.469 2.057 12.929.882 12.929.882l-2.351 7.64s-25.563-3.82-26.445-4.702c-1.083-1.082-.54-3.251.882-3.82z" class="Vector 4"/>
        <path fill="#fff" fill-opacity=".09" d="M485.241 321.238l-4.992-46.723h17.86s-3.711 32.408-3.483 46.723c.09 5.701 1.73 13.911 0 14.577-1.731.665-7.029 1.876-14.377 2.995-9.983 1.519-10.666.434-8.985-.799 2.995-2.196 8.985-6.789 13.977-9.784v-6.989z" class="Vector 5.2"/>
        <path fill="#4655D8" d="M468.962 341.355c-1.175-4.702 11.459-10.285 11.459-10.285s4.522 1.377 6.171.882c2.938-.882 6.17-2.351 6.17-2.351l2.645-2.35c2.449 1.273 3.457 9.041 0 9.99-14.986 4.114-25.27 8.815-26.445 4.114z" class="Vector 4_2"/>
        <path fill="#3353C6" d="M478.341 230.987c20.972-8.239 39.735-16.573 39.735-16.573l29.666 1.398c3.48 27.754 4.079 43.928-38.452 43.928l-5.391 19.568h-45.325s-2.596-39.535 19.767-48.321z" class="Vector 2_2"/>
        <path stroke="#fff" stroke-width=".399" d="M471.966 279.507s-6.207-26.541 7.408-36.609c13.728-10.151 25.027-5.491 35.439-16.016 3.853-3.895 6.607-11.669 6.607-11.669m-39.844 63.836s-2.202-18.533 3.604-27.685c9.151-14.424 29.091-3.947 38.042-18.533 4.39-7.155 7.008-17.618 7.008-17.618m-35.239 63.836s-2.403-13.499 0-21.278c3.745-12.127 14.802-5.756 28.231-10.526 14.816-5.262 14.015-32.032 14.015-32.032" class="Vector 4_3"/>
        <path fill="#FFD6B9" d="M514.681 200.837v-21.964l-15.574-15.974c16.772-18.968 36.54-22.363 42.73-14.176 5.493 7.265 7.787 17.77 7.787 50.117-14.376 2.197-19.917 6.491-34.943 1.997z" class="Vector"/>
        <path fill="#1E4278" d="M534.579 120.525c-1.803-1.997-4.792-4.593-9.462-4.593s-7.433-6.069-3.716-12.18c5.191-6.788 11.621 1.278 17.371 0 7.188-1.597 9.385 10.983 16.773 10.384 7.388-.599 9.983 3.594 14.975 10.183 4.992 6.589 11.381 1.198 17.771 6.589 6.389 5.391 4.592 19.169 0 22.164-4.593 2.995 0 14.376-9.784 14.376-12.063 0-17.372-1.598-22.962-8.187-4.26-2.529-4.393-9.185-10.783-6.189-3.907 1.832-12.379-11.182-10.183-20.767 2.196-9.584 2.926-8.539 0-11.78z" class="Vector 3_2"/>
      </g>
      <path stroke="#E1E1E1" stroke-width="3.276" d="M273 598.378h606" class="Vector 2.1_3"/>
    </g>
  </g>
  <defs>
    <linearGradient id="paint0_linear" x1="576" x2="576" y1="0" y2="700" class="paint0_linear" gradientUnits="userSpaceOnUse">
      <stop stop-color="#fff"/>
      <stop offset="1" stop-color="#fff" stop-opacity="0"/>
    </linearGradient>
    <clipPath id="clip0" class="clip0">
      <path fill="#fff" d="M0 0h1152v700H0z"/>
    </clipPath>
  </defs>
</svg>
