<svg xmlns="http://www.w3.org/2000/svg" width="1152" height="700" fill="none" viewBox="0 0 1152 700">
  <g class="downloads_two">
    <path fill="#fff" d="M0 0h1152v700H0z"/>
    <path stroke="#000" d="M401.13 390.74L358.991 606m42.139-215.26l178.823-14.763 5.665-21.972 80.382-4.12M401.13 390.74l-6.02-4.12M358.991 606l264.516-42.571L666 349.885M358.991 606h-7.082M666 349.885l-2.833-3.777-60.906 3.016M351.909 606l-5.666-3.776L308 339.929M351.909 606l-36.827-266.071M351.909 606l7.082-35.964M395.11 386.62l179.531-14.763 5.312-21.629 22.308-1.104M395.11 386.62l-36.119 183.416M395.11 386.62h-10.977M308 339.929h7.082m-7.082 0l28.328-2.747 14.873-26.092 61.26-3.09 19.83 19.912 166.783-12.016v3.09m-283.992 20.943h25.85l13.102-25.749 56.656-3.09 20.184 20.256 168.2-12.36m0 0l3.187 30.138m-243.27 220.912l-34.702-199.552 6.02 5.15m28.682 194.402l-28.682-194.402m28.682 194.402l-19.476-200.925m19.476 200.925l-9.561-194.402m9.561 194.402l-2.479-197.149m2.479 197.149l6.728-190.626m-6.728 190.626l14.164-192.342m-14.164 192.342l25.142-183.416m-53.824-10.986l9.206-6.523m0 0l9.915 6.523m0 0l7.082-2.747m0 0l9.207 6.523m0 0l7.436-1.716m0 0l10.978 8.926" class="Vector"/>
    <g class="Vector 11.1">
      <path fill="#C4C4C4" d="M718.879 316.477c-21.085 3.696-39.007-21.92-45.332-35.19l38.23-11.757c6.506-12.649 19.093-39.618 17.389-46.306-2.129-8.359 36.804-11.478 55.619-7.6 15.051 3.102 55.9-9.189 74.443-15.723-8.558 10.855-25.341 40.208-24.007 70.781-29.995 13.725-95.256 42.099-116.342 45.795z"/>
      <path stroke="#000" d="M835.221 270.682c-29.995 13.725-95.256 42.099-116.342 45.795-21.085 3.696-39.007-21.92-45.332-35.19l38.23-11.757m123.444 1.152c-8.705-.882-25.758-8.442-24.341-31.628l-99.103 30.476m123.444 1.152c-1.334-30.573 15.449-59.926 24.007-70.781-18.543 6.534-59.392 18.825-74.443 15.723-18.815-3.878-57.748-.759-55.619 7.6 1.704 6.688-10.883 33.657-17.389 46.306"/>
    </g>
    <g class="Vector 6.1">
      <path fill="#C4C4C4" d="M546.879 259.236c-12.119 15.613-9.673 53.449-6.936 70.415-8.533 4.784-40.273 3.646-98.966-39.177l-13.439 25.72c-15.355 3.922-32.559-9.934-34.514-18.036-1.565-6.481 21.327-56.209 32.968-80.263 3.316-2.102 13.517-6.506 27.796-7.303 17.849-.998 45.081 19.427 58.448 25.231 10.693 4.644 35.336-.315 46.321-3.376 1.157 2.424.442 11.175-11.678 26.789z"/>
      <path stroke="#000" d="M393.024 298.158c-1.565-6.481 21.327-56.209 32.968-80.263 3.316-2.102 13.517-6.506 27.796-7.303 17.849-.998 45.081 19.427 58.448 25.231 10.693 4.644 35.336-.315 46.321-3.376 1.157 2.424.442 11.175-11.678 26.789-12.119 15.613-9.673 53.449-6.936 70.415-8.533 4.784-40.273 3.646-98.966-39.177m-47.953 7.684c1.955 8.102 19.159 21.958 34.514 18.036l13.439-25.72m-47.953 7.684c13.222-25.303 37.478-15.665 47.953-7.684"/>
    </g>
    <g class="Vector 12">
      <path fill="#C4C4C4" d="M671.057 250.351c-11.417 3.926-31.994 11.941-39 17.101-4.728 3.482-16.338 9.033-35.614 4.653-9.287-2.11-20.354-6.526-33.288-14.589-17.975-11.205-32.543-32.49-43.007-53.08-8.06-15.862-13.685-31.312-16.555-41.423 21.001-4.246 65.037-11.942 73.171-8.751 10.168 3.99 29.023 44.313 41.126 58.976 9.683 11.731 39.479 29.63 53.167 37.113z"/>
      <path stroke="#000" d="M520.148 204.436c-8.06-15.862-13.685-31.312-16.555-41.423 21.001-4.246 65.037-11.942 73.171-8.751 10.168 3.99 29.023 44.313 41.126 58.976 9.683 11.731 39.479 29.63 53.167 37.113-11.417 3.926-31.994 11.941-39 17.101-4.728 3.482-16.338 9.033-35.614 4.653m-76.295-67.669c10.464 20.59 25.032 41.875 43.007 53.08 12.934 8.063 24.001 12.479 33.288 14.589m-76.295-67.669c15.154 11.662 52.91 33.824 82.703 29.175-4.061 10.045-11.027 31.807-6.408 38.494"/>
    </g>
    <g class="Vector 6.2">
      <path fill="#C4C4C4" d="M755.531 155.797c12.119 15.614 9.674 53.45 6.936 70.416 8.533 4.783 40.273 3.645 98.966-39.178l13.439 25.72c15.356 3.923 32.559-9.934 34.514-18.035 1.565-6.481-21.326-56.209-32.967-80.264-3.316-2.102-13.518-6.505-27.797-7.303-17.849-.997-45.081 19.427-58.447 25.232-10.693 4.643-35.337-.316-46.321-3.376-1.158 2.424-.443 11.175 11.677 26.788z"/>
      <path stroke="#000" d="M909.386 194.72c1.565-6.481-21.326-56.209-32.967-80.264-3.316-2.102-13.518-6.505-27.797-7.303-17.849-.997-45.081 19.427-58.447 25.232-10.693 4.643-35.337-.316-46.321-3.376-1.158 2.424-.443 11.175 11.677 26.788 12.119 15.614 9.673 53.45 6.936 70.416 8.533 4.783 40.273 3.645 98.966-39.178m47.953 7.685c-1.955 8.101-19.158 21.958-34.514 18.035l-13.439-25.72m47.953 7.685c-13.221-25.303-37.478-15.666-47.953-7.685"/>
    </g>
    <g class="Vector 12.1">
      <path fill="#C4C4C4" d="M642.58 162.548c11.416 3.927 31.994 11.942 39 17.101 4.728 3.482 16.338 9.033 35.614 4.654 9.287-2.11 20.354-6.526 33.288-14.589 17.975-11.206 32.543-32.49 43.006-53.08 8.061-15.862 13.686-31.312 16.555-41.423-21.001-4.247-65.037-11.942-73.171-8.75-10.167 3.989-29.022 44.312-41.125 58.975-9.683 11.731-39.479 29.629-53.167 37.112z"/>
      <path stroke="#000" d="M793.488 116.634c8.061-15.862 13.686-31.312 16.555-41.423-21.001-4.247-65.037-11.942-73.171-8.75-10.167 3.989-29.022 44.312-41.125 58.975-9.683 11.731-39.479 29.629-53.167 37.112 11.417 3.927 31.994 11.942 39 17.101 4.728 3.482 16.338 9.033 35.614 4.654m76.294-67.669c-10.463 20.59-25.031 41.874-43.006 53.08-12.934 8.063-24.001 12.479-33.288 14.589m76.294-67.669c-15.154 11.662-52.91 33.823-82.702 29.175 4.061 10.045 11.027 31.807 6.408 38.494"/>
    </g>
    <path fill="#C4C4C4" d="M496 510.613v-11.606l16.647 19.585V433h9.967v83.684L537 494.655v15.958l-19.421 29.014L496 510.613z" class="Vector 13.1"/>
    <g class="Group">
      <g class="Vector 7">
        <path stroke="#000" d="M934.987 584.788c0-4-6.666-3.333-10-2.5-2.5 3.333-6.9 10.4-4.5 12 9 2.5 11 16 15.5 21s10 2.5 6 0-7-25.5-7-30.5zM823.987 638.288c1.6-2.8.667-13.833 0-19-4.166 1-12.9 3.4-14.5 5-2 2-2.5 4.5-10.5 7.5s-22.5 3-22 4.5 5.5 5 9 5 36 .5 38-3z"/>
      </g>
      <path stroke="#000" d="M759.988 346.288c4.5-3 9.5 0 13.5 0s10.935-2 11 2.5c.333 2 .5 6.3-1.5 7.5-2.5 1.5-2.5 3.5-6 2.5s-7 3.5-5 6.5 3.5 4 3 6.5-13 8-18.5-1.5c-4.814-8.315-1.968-18.161 1.834-22.5m1.666-1.5c-2-3.167-7.1-8.8-11.5-6-5.5 3.5-13 10.5-17.5 6 2.166 3.666 8.3 9.9 15.5 5.5 7.2-4.4 10.89-4.5 11.834-4m1.666-1.5c-.562.374-1.123.881-1.666 1.5" class="Vector 6"/>
      <g class="Vector 5">
        <path stroke="#000" d="M704.988 310.788c0 3.2 1.667 13.333 2.5 18-.833 3-3.5 8.2-7.5 5-5-4-7-15-5.5-21s10.5-6 10.5-2zM899.488 333.288c-1.6 2-5 11.833-6.5 16.5-1 2.333-1.1 6.3 6.5 3.5 9.5-3.5 12-18 12-20s-10-2.5-12 0zM785.488 375.288c-3.6 2-1.5 8.166 0 11 0 1.2-6.333.833-9.5.5-.833-1.834-3.2-7.3-6-14.5-3.5-9 1-12 2.5-14.5s8.5-2 10-2 1.5 1.5 3 3.5c1.2 1.6 4.5 3.333 6 4-.833.666-2.2 2.3-1 3.5 1.5 3-.5 6-5 8.5z"/>
      </g>
      <path stroke="#000" d="M845.488 469.788c2 5.333 3.7 19.7-5.5 34.5-2.033 3.27-4.128 6.416-6.176 9.5m11.676-44c-5.6-3.2-33 6.333-46 11.5-2.333 7.666-7.6 26.6-10 41-3 18-1 37 6 55.5 5.6 14.8 10.667 38.833 12.5 49 11.2.4 17-6.5 18.5-10 0-10-2.5-35.5-7-57.5-3.704-18.111 4.79-31.139 14.324-45.5m11.676-44c0-2 1.1-6.5 5.5-8.5 5.5-2.5 10.5 29.5 15 43s50 75.5 59.5 75.5c-1.666 5.5-5.8 16.6-9 17-4 .5-58.5-37.5-69-56-8.4-14.8-12.617-24.167-13.676-27" class="Vector 4"/>
      <path stroke="#000" d="M905.488 355.788l-12.5-9c-13.166 5.333-43.2 17.8-58 25-18.5 9-56.5 14-60 11.5s-9.5-1.5-11.5-2.5-48-52.5-55-52.5-10 5.5-8.5 12 43.5 56 59.5 69 5.5 15 6 22 10 10.5 13 21.5 15.5 13.5 15.5 22 16 12 30 10 29.5-22.5 29.5-27-5.5-2-9.5-8.5-5-11-9-18-11-10.5-11-15.5-13-15 11-22c19.2-5.6 55-27.667 70.5-38z" class="Vector 3"/>
    </g>
  </g>
</svg>
