<svg xmlns="http://www.w3.org/2000/svg" width="1152" height="700" fill="none" viewBox="0 0 1152 700">
  <g class="downloads">
    <path fill="#fff" d="M0 0h1152v700H0z"/>
    <path fill="#ECE6E6" d="M408 163.5c97.683 29.252 159.163-51.492 225.847-65.897C1045.26 8.729 956.453 564.82 861.383 610.528c-95.069 45.706-127.06-60.942-278.901-45.706-151.841 15.235-292.952 21.072-408.664-140.674C82.5 296.5 233.738 111.316 408 163.5z" class="Vector 4"/>
    <g class="plant">
      <g class="Vector 5">
        <path fill="#B6C7E5" d="M955.343 534.945c-13.224-6.612-41.09-24.37-46.757-42.506 12.28 7.556 38.823 26.637 46.757 42.506zM962.428 530.695c-22.671-24.087-68.294-74.529-69.428-83.597 14.169 2.362 47.891 22.387 69.428 83.597-5.195-24.087-19.837-77.646-36.839-99.183 9.918 3.779 31.171 15.019 36.839 29.755 5.667 14.736 2.361 52.425 0 69.428z"/>
      </g>
      <g class="Vector 4_2">
        <path fill="#B6C7E5" d="M969.512 533.529c-14.642-25.032-43.924-78.496-43.924-92.098 17.475 10.862 50.725 44.49 43.924 92.098zM1036.11 505.191c-45.345 1.133-56.68 19.364-56.68 28.338-.936-5.616-1.031-10.811-.439-15.586-9.3-22.671-23.082-72.545-3.812-90.681a54.831 54.831 0 013.812-3.273c-4.104-18.273-3.528-57.654 31.609-68.989-8.97 9.446-26.069 31.172-22.669 42.507 4.251-8.502 15.869-24.087 28.339-18.42-7.56 3.794-22.671 13.922-22.671 24.087 6.14-6.139 23.241-16.152 42.511-7.084-14.65 1.859-43.645 8.419-42.511 19.791 20.151-7.386 40.351-1.433 42.511 2.879-16.83-.472-51.803 2.834-57.119 19.837 16.677-8.029 55.419-19.837 76.949-2.834-26.92.472-80.761 7.084-80.761 29.755 26.451-10.863 88.981-28.055 127.521-9.919-41.38-1.889-124.06 7.935-123.709 62.344 3.89-31.368 37.439-44.592 57.119-39.673 18.13 4.534 51.95 5.667 66.59 5.667-3.31 6.612-21.25 20.12-66.59 21.254z"/>
      </g>
      <path fill="#8A6564" d="M990.765 536.363c-.944 13.696-5.667 41.94-17.002 45.34-14.169 4.251-22.671-2.833-22.671-8.501 0-4.534-2.834-26.449-4.25-36.839-1.417-1.417-3.684-5.101-1.417-8.502 13.696.945 41.94 2.268 45.34 0 4.251-2.833 2.834 7.684 0 8.502z" class="Vector 3"/>
    </g>
    <g class="Group">
      <path fill="#8BB3FE" d="M620.338 491.365c-15.081 3.9-26.377 6.877-32.553 23.338 13.446-4.395 34.113-11.477 52.574-18.489 17.238 3.297 53.304 9.18 59.663 6.335-9.726-1.823-30.328-7.654-34.93-16.397 7.186-3.226 12.542-6.07 14.778-8.153-2.653-1.508-11.152-2.7-26.101 2.099-12.93-3.974-40.958-9.562-49.632-.131l-2.67-1.845c15.689-6.997 55.162-17.992 87.55-5.999-4.611-6.027-19.151-17.637-40.415-15.859-21.264 1.778-37.322 8.702-42.693 11.942 7.952-6.047 28.949-18.793 49.315-21.402 25.458-3.263 34.11-5.547 76.76 22.351-5.868-13.63-22.582-40.63-42.496-39.596-24.894 1.291-56.83 12.275-78.437 30.003 23.23-22.771 69.204-73.685 67.26-95.174-2.838 1.842-11.585 9.543-23.866 25.61-12.282 16.066-29.722 42.942-36.907 54.372 6.483-12.702 18.976-41.659 17.079-55.876-1.896-14.216-8.926-65.583-12.203-89.489-5.879 16.792-16.113 58.826-10.02 92.626 6.093 33.8-.547 48.413-4.629 51.495-7.448-25.477-26.404-80.494-42.642-96.751 5.531 21.004 20.396 70.204 35.608 98.973 1.8 4.26 4.441 14.637.608 22.061-5.956-18.281-22.83-57.248-42.676-66.87 6.569 14.901 21.561 47.164 28.975 57.009 9.268 12.307 9.671 29.504 7.634 27.31-2.037-2.194-20.966-51.475-49.137-74.089 7.835 23.184 26.676 71.704 39.356 80.315 1.968.573 5.636 3.029 4.561 8.267-1.075 5.238 3.449-2.732 5.845-7.372 7.178-1.462 22.115-3.632 24.441-.614z" class="Vector 3.1"/>
      <path fill="#DAE4FA" fill-opacity=".26" d="M132.643 457.226L308.22 599.054l267.948-48.467-178.727-126.522-264.798 33.161z" class="Vector 3.1_2"/>
      <g class="folder">
        <path fill="#DAE4FA" d="M576.259 550.321l-267.598 43.068h-7.165L264.24 324.217h26.151l13.255-26.049 57.317-3.126 20.419 20.492 170.16-12.504 3.224 30.489 61.615-3.051 2.866 3.821-42.988 216.032z" class="Vector"/>
        <path fill="#A4C3FE" d="M351.291 375.62l-42.63 217.768h-7.164l-5.732-3.82-38.689-265.351 28.659-2.779 15.045-26.396 61.974-3.126 20.061 20.144 168.727-12.156v3.126l-170.16 12.504-20.419-20.492-57.317 3.126-13.254 26.049h-26.151l37.256 269.171 7.164-36.383 36.54-185.553 181.623-14.935 5.374-21.881 22.568-1.117 61.616-3.051 2.866 3.821-81.319 4.168-5.731 22.228-180.907 14.935z" class="Vector_2"/>
        <path fill="#F5D5D4" d="M345.201 371.452l-36.54 185.553-35.106-201.877 6.09 5.21 9.314-6.599 10.03 6.599 7.165-2.779 9.314 6.599 7.523-1.736 11.105 9.03h11.105z" class="Vector_3"/>
        <path fill="#EE7E79" d="M308.661 557.005l-35.106-201.877 6.09 5.21 29.016 196.667-19.702-203.266 10.03 6.599 9.672 196.667-2.507-199.446 9.314 6.599-6.807 192.847 14.33-194.583 11.105 9.03-25.435 185.553z" class="Vector_4"/>
        <path fill="#fff" d="M442.209 495.141v-11.782l24.645 19.882v-86.892h14.756v84.956l21.298-22.364v16.2l-28.752 29.455-31.947-29.455z" class="Vector 13.1"/>
      </g>
      <g class="paper">
        <g class="Group 2">
          <path fill="#FFCB56" d="M740.281 269.219c-21.331 3.739-39.461-22.176-45.86-35.6l38.675-11.894c6.582-12.796 19.316-40.08 17.592-46.845-2.154-8.457 37.233-11.612 56.267-7.689 15.227 3.139 56.552-9.297 75.311-15.907-8.658 10.982-25.636 40.677-24.288 71.606-30.344 13.885-96.365 42.59-117.697 46.329z" class="Vector 11.1"/>
          <path fill="#FFEEC7" d="M833.112 190.982c-1.434 23.456 15.819 31.104 24.625 31.996-1.349-30.929 15.629-60.624 24.287-71.605-18.759 6.609-60.084 19.045-75.311 15.906-19.034-3.923-58.421-.768-56.267 7.689 1.724 6.765-11.009 34.049-17.592 46.845l100.258-30.831z" class="Vector 11.2"/>
        </g>
        <path fill="#FFEEC7" d="M499.75 279.003c-12.26 15.795-9.786 54.072-7.016 71.236-8.633 4.839-40.743 3.688-100.119-39.634l-13.597 26.02c-15.534 3.968-32.938-10.05-34.916-18.246-1.582-6.556 21.575-56.864 33.352-81.198 3.355-2.127 13.675-6.582 28.121-7.389 18.057-1.009 45.606 19.653 59.128 25.526 10.818 4.697 35.748-.32 46.861-3.415 1.171 2.452.447 11.305-11.814 27.1z" class="Vector 6.1"/>
        <path fill="#FFCB56" d="M379.018 336.713c-15.535 3.969-32.939-10.05-34.917-18.245 13.376-25.598 37.915-15.849 48.513-7.774l-13.596 26.019z" class="Vector 6.3"/>
        <path fill="#FFEEC7" d="M625.377 270.015c-11.55 3.972-32.367 12.08-39.455 17.3-4.783 3.523-16.528 9.138-36.029 4.708-9.395-2.135-20.591-6.602-33.676-14.759-18.184-11.336-32.922-32.869-43.507-53.698-8.155-16.048-13.845-31.677-16.748-41.906 21.245-4.296 65.795-12.082 74.023-8.853 10.286 4.036 29.361 44.829 41.605 59.663 9.796 11.867 39.939 29.975 53.787 37.545z" class="Vector 12"/>
        <path fill="#FFCB56" d="M515.793 277.464c-18.184-11.337-32.922-32.869-43.507-53.699 15.33 11.798 53.526 34.218 83.666 29.515-4.108 10.162-11.156 32.177-6.483 38.942-9.395-2.134-20.591-6.601-33.676-14.758z" class="Vector 12.2"/>
        <g class="Group_2">
          <path fill="#FFEEC7" d="M644.494 257.847c12.26 15.795 9.786 54.072 7.016 71.236 8.633 4.839 40.743 3.687 100.12-39.634l13.596 26.019c15.534 3.969 32.938-10.05 34.916-18.245 1.583-6.557-21.575-56.865-33.352-81.199-3.355-2.126-13.675-6.581-28.121-7.388-18.057-1.009-45.606 19.653-59.128 25.525-10.817 4.698-35.748-.319-46.861-3.415-1.17 2.452-.447 11.305 11.814 27.101z" class="Vector 6.2"/>
          <path fill="#FFCB56" d="M764.645 314.988c15.534 3.969 32.938-10.049 34.916-18.245-13.376-25.598-37.915-15.848-48.513-7.774l13.597 26.019z" class="Vector 6.4"/>
        </g>
        <path fill="#FFEEC7" d="M596.565 181.189c11.55 3.972 32.367 12.081 39.454 17.3 4.783 3.523 16.529 9.139 36.029 4.708 9.396-2.135 20.592-6.602 33.676-14.759 18.185-11.336 32.923-32.869 43.508-53.698 8.155-16.047 13.845-31.677 16.748-41.906-21.246-4.296-65.795-12.081-74.024-8.853-10.286 4.036-29.36 44.83-41.605 59.664-9.795 11.867-39.939 29.974-53.786 37.544z" class="Vector 12.1"/>
        <path fill="#FFCB56" d="M705.771 188.438c18.185-11.336 32.922-32.869 43.508-53.698-15.331 11.798-53.527 34.217-83.666 29.515 4.108 10.162 11.155 32.177 6.482 38.942 9.396-2.135 20.592-6.602 33.676-14.759z" class="Vector 12.3"/>
      </g>
      <g class="woman">
        <g class="Vector 7">
          <path fill="#4B5361" d="M891.37 571.929c0-4.046-6.744-3.372-10.116-2.529-2.53 3.372-6.981 10.521-4.553 12.14 9.105 2.529 11.128 16.186 15.681 21.245 4.552 5.058 10.116 2.529 6.07 0-4.047-2.53-7.082-25.798-7.082-30.856zM779.077 626.053c1.618-2.833.674-13.995 0-19.222-4.216 1.012-13.051 3.44-14.669 5.058-2.024 2.024-2.529 4.553-10.623 7.588-8.093 3.035-22.762 3.035-22.256 4.552.506 1.518 5.564 5.058 9.105 5.058 3.541 0 36.419.506 38.443-3.034z"/>
        </g>
        <g class="Vector 5_2">
          <path fill="#EDC7C5" d="M658.689 294.736c0 3.238 1.687 13.489 2.53 18.21-.843 3.035-3.541 8.296-7.588 5.058-5.058-4.046-7.081-15.175-5.564-21.244 1.518-6.07 10.622-6.07 10.622-2.024zM855.456 317.498c-1.619 2.024-5.058 11.972-6.576 16.693-1.012 2.36-1.113 6.373 6.576 3.54 9.611-3.54 12.14-18.209 12.14-20.233 0-2.023-10.117-2.529-12.14 0z"/>
        </g>
        <path fill="#EDC7C5" d="M729.199 359.988c3.642 2.023 1.517 8.262 0 11.128 0 1.214 6.407.843 9.611.506.843-1.855 3.237-7.385 6.069-14.669 3.541-9.105-1.011-12.14-2.529-14.669-1.517-2.529-8.599-2.023-10.116-2.023-1.518 0-1.518 1.517-3.035 3.54-1.214 1.619-4.553 3.372-6.07 4.047.843.674 2.226 2.327 1.012 3.541-1.518 3.035.505 6.07 5.058 8.599z" class="Vector 5.1"/>
        <path fill="#EE7E79" d="M781.604 604.302c0-10.117-2.529-35.914-7.081-58.17-3.748-18.322 4.845-31.502 14.49-46.03 1.072 2.866 5.338 12.342 13.836 27.314 10.622 18.716 65.757 57.159 69.804 56.653 3.237-.405 7.419-11.634 9.105-17.198-9.611 0-55.641-62.723-60.194-76.38-4.552-13.657-9.61-46.03-15.174-43.501-4.452 2.023-5.564 6.576-5.564 8.599-5.666-3.237-33.385 6.407-46.536 11.634-2.361 7.756-7.689 26.91-10.117 41.478-3.035 18.21-1.012 37.431 6.07 56.146 5.665 14.973 10.791 39.286 12.646 49.571 11.33.405 17.198-6.575 18.715-10.116z" class="Vector 4_3"/>
        <path fill="#B6C7E5" d="M861.525 340.26l-12.645-9.104c-13.32 5.395-43.704 18.007-58.676 25.291-18.716 9.105-57.158 14.163-60.699 11.634-3.541-2.529-9.611-1.518-11.634-2.529-2.024-1.012-48.56-53.112-55.641-53.112-7.082 0-10.117 5.564-8.599 12.14 1.517 6.576 44.007 56.652 60.193 69.804 16.187 13.151 5.564 15.175 6.07 22.256.506 7.082 10.117 10.622 13.152 21.751 3.034 11.128 15.68 13.657 15.68 22.256s16.187 12.14 30.35 10.117c14.163-2.024 29.843-22.763 29.843-27.315 0-4.553-5.564-2.023-9.61-8.599-4.047-6.576-5.058-11.128-9.105-18.21-4.047-7.081-11.128-10.622-11.128-15.68 0-5.059-13.152-15.175 11.128-22.257 19.424-5.665 55.641-27.989 71.321-38.443z" class="Vector 3_2"/>
        <path fill="#4B5361" d="M732.253 344.276c-2.023-1.214-1.855-5.564-1.518-7.587.065-4.552 7.082-2.529 11.128-2.529 4.047 0 9.105-3.035 13.658 0 2.023-3.204 7.182-8.903 11.634-6.07 5.564 3.541 13.151 10.622 17.704 6.07-2.192 3.709-8.397 10.015-15.681 5.564-7.284-4.451-11.017-4.552-11.972-4.047 3.846 4.39 6.725 14.351 1.856 22.763-5.565 9.61-18.21 4.046-18.716 1.517-.506-2.529 1.012-3.541 3.035-6.576 2.023-3.035-1.518-7.587-5.058-6.575-3.541 1.011-3.541-1.012-6.07-2.53z" class="Vector 6"/>
      </g>
    </g>
  </g>
</svg>
