<svg xmlns="http://www.w3.org/2000/svg" width="805" height="605" fill="none" viewBox="0 0 805 605">
  <g class="female_on_couch">
    <path fill="#fff" d="M4 0h800v600H4z"/>
    <path fill="#fff" d="M66.28 41.77h316.908v163.012H66.28z" class="Rectangle"/>
    <path fill="#FEE7C6" d="M117.74 125.589c-27.77-10.231-45.673-1.421-51.154 4.263v61.173H380.208v-65.436c-22.126-6.09-70.081 4.676-90.541 1.492-40.998-6.38-137.216 11.296-171.927-1.492z" class="Vector 8.1"/>
    <path fill="#FFEFD8" fill-rule="evenodd" d="M69.578 48.308h310.313v49.164h-17.78v-9.453h-13.106v9.453h-35.5v.043l-23.477 32.244h18.764v31.416c-7.497.438-14.131.492-19.126-.286-10.623-1.653-24.954-1.691-40.962-1.062v-14.86c3.846-2.835 11.235-9.253 11.235-16.717 0-10.088-13.502-27.828-13.502-27.828s-14.04 17.74-14.04 27.828c0 7.194 7.138 13.416 11.235 16.395v15.4c-9.46.438-19.41 1.067-29.458 1.703-2.895.183-5.799.366-8.702.546V134.66c6.075-4.394 18.767-15.066 18.767-27.533 0-16.39-21.933-45.208-21.933-45.208s-22.808 28.818-22.808 45.208c0 11.994 12.215 22.326 18.766 27.006v28.597c-14.057.827-27.898 1.475-40.438 1.439v-19.201c3.849-2.835 11.246-9.253 11.246-16.718 0-10.089-13.513-27.828-13.513-27.828s-14.051 17.739-14.051 27.828c0 7.195 7.146 13.418 11.246 16.396v19.469c-14.232-.272-26.482-1.574-35.015-4.718a85.184 85.184 0 00-6.139-2.007v-22.73c6.074-4.394 18.767-15.066 18.767-27.533 0-16.39-21.934-45.209-21.934-45.209s-22.808 28.819-22.808 45.209c0 11.994 12.215 22.326 18.767 27.005v21.58c-16.797-3.021-28.682 1.231-34.814 5.46V48.308zm310.313 111.004v-27.77h-1.743v27.352c.597.129 1.178.268 1.743.418zM61.039 39.769H388.43v167.272H61.039V39.77zm743.445 413.623H0V467h804.484v-13.608zm0 151.608V467H4v138h800.484zM4 358v-58h296v58H4zm515.335-215.759H508v10h11.335v39.305H804v-49.305H519.335z" class="Primary" clip-rule="evenodd"/>
    <path fill="#000" fill-opacity=".1" d="M0 453.369h804.484v13.608H0z" class="Rectangle_2"/>
    <path fill="#000" fill-opacity=".1" d="M4 300h296v10H4z" class="Rectangle_3"/>
    <g class="Group 15">
      <path fill="#F6F0DA" d="M254.65 492.712h11.062v26.206H254.65z" class="Rectangle 2.2"/>
      <path fill="#F6F0DA" d="M674.991 492.712h11.062v26.206h-11.062z" class="Rectangle 2.3"/>
    </g>
    <path fill="#000" fill-opacity=".07" d="M758.898 535.017c0 1.984-127.429 2.702-284.931 2.702-157.501 0-297.415-1.97-297.415-3.954 0-.93 30.784-15.529 79.728-16.082 55.4-.627 117.945 0 201.568 0 80.518 0 162.551-.903 214.343 0 49.519.863 86.707 16.365 86.707 17.334z" class="Ellipse 3.3"/>
    <g class="Group 15_2">
      <path fill="#F1D67B" d="M232.077 507.712h13.294v26.206h-13.294z" class="Rectangle 2"/>
      <path fill="#F1D67B" d="M695.332 507.712h13.294v26.206h-13.294z" class="Rectangle 2.1"/>
    </g>
    <rect width="473.481" height="234.184" x="233.885" y="268.304" fill="#FBE59B" class="Rectangle 3" rx="85.902"/>
    <g class="Group 12">
      <path stroke="#D69962" stroke-linecap="round" stroke-width="16.953" d="M665.161 343.338l-33.954 44.549-34.116-7.551" class="Vector 10.2"/>
      <path fill="#DEDEDE" d="M674.29 349.697c3.512-5.042 2.273-11.976-2.769-15.488-5.041-3.513-11.976-2.273-15.488 2.768l18.257 12.72zm-18.257-12.72l-16.701 23.972 18.256 12.719 16.702-23.971-18.257-12.72z" class="Vector 10.3"/>
    </g>
    <rect width="461.417" height="89.992" x="233.166" y="422.722" fill="#FFF1C1" class="Rectangle_4" rx="3.068"/>
    <g class="Group 15_3">
      <path fill="#515151" fill-rule="evenodd" d="M575.032 377.771a2.514 2.514 0 01-3.307-1.309l-.721-1.667-2.511.219a2.515 2.515 0 01-4.699 1.777l-26.325-60.821c-2.217-5.123 10.207-1.791 11.702 1.663l27.17 56.832a2.515 2.515 0 01-1.309 3.306z" class="Union" clip-rule="evenodd"/>
      <g class="Group 10">
        <rect width="71.302" height="9.008" x="563.624" y="374.07" fill="#3F3F3F" class="Rectangle 6" rx="4.504"/>
      </g>
      <path fill="#3F3F3F" fill-rule="evenodd" d="M540.314 313.355c-1.282-.089-2.331.101-2.817.677-.067.101-.13.204-.189.306-.17.404-.138.941.161 1.632l26.325 60.821a2.514 2.514 0 004.755-.421c-8.744-20.369-25.357-58.508-28.235-63.015z" class="Intersect" clip-rule="evenodd"/>
    </g>
    <g class="Group">
      <path fill="#FFF1C1" d="M674.198 405.337c0-14.12 11.447-25.566 25.566-25.566h26.589c14.119 0 25.566 11.446 25.566 25.566v97.151c0 5.648-4.579 10.226-10.227 10.226h-67.494V405.337z" class="Rectangle 2.1_2"/>
      <path fill="#FFF1C1" d="M188.785 405.338c0-14.12 11.446-25.566 25.566-25.566h26.589c14.119 0 25.566 11.446 25.566 25.566v107.376h-67.494c-5.648 0-10.227-4.578-10.227-10.226v-97.15z" class="Rectangle 2.2_2"/>
    </g>
    <path fill="#FDE183" fill-rule="evenodd" d="M554.615 268.304c-1.379 6.312-26.107 6.063-51.959 5.802-5.201-.052-10.447-.105-15.558-.105l-.982.073c-38.016 2.841-41.71 3.117-58.491-4.507 0-.426.067-.847.2-1.263h126.79z" class="Intersect_2" clip-rule="evenodd"/>
    <ellipse cx="490.818" cy="430.854" fill="#FBE8A8" class="Ellipse 3" rx="147.2" ry="3.592"/>
    <ellipse cx="432.353" cy="445.848" fill="#FBE8A8" class="Ellipse 3.1" rx="41.239" ry="3.264"/>
    <path fill="#FBE8A8" d="M648.165 431.389c.163 1.977-25.035 5.671-56.281 8.25-38.237 3.156-92.13-2.364-20.818-8.25 31.246-2.579 76.935-1.977 77.099 0z" class="Ellipse 3.2"/>
    <path stroke="#D69962" stroke-linecap="round" stroke-width="13.994" d="M438.689 418.796l-56.795-1.431" class="Vector 3.2"/>
    <path fill="#515151" d="M386.34 424.293s-8.392-5.219-5-13.711c-15.945-10.305-34.58-31.677-38.659-29.248-4.078 2.429 20.842 42.391 27.352 51.069 6.59 1.208 16.307-8.11 16.307-8.11z" class="Rectangle 7.3"/>
    <path stroke="#FFF3D6" stroke-linecap="round" stroke-width="3.498" d="M371.335 413.333l4.278-15.306" class="Vector 8.2"/>
    <path stroke="#FFF3D6" stroke-linecap="round" stroke-width="3.498" d="M364.558 404.252l4.277-15.306" class="Vector 8.3"/>
    <g class="Group 7">
      <path fill="#FFB877" d="M696.301 284.255l-37.635-3.286s3.514 20.244 1.807 36.499c15.93 8.35 36.376-14.602 36.376-14.602l-.548-18.611z" class="Union_2"/>
      <path stroke="#4F7793" stroke-linecap="round" stroke-width="1.453" d="M661.293 295.73c-.373 4.059-4.102 6.02-3.543 7.057.56 1.038 3.685 1.867 3.685 1.867" class="Vector 2"/>
      <path fill="#FFB877" d="M705.832 335.993c-3.694-6.897-14.07-15.316-12.854-34.002l-10.668 10.622c-2.617 2.13-6.153-.932-4.244.792 1.909 1.724-1.508 23.885-4.392 26.437l10.253-1.905c5.029 1.026 25.6 4.953 21.905-1.944z" class="Vector 2_2"/>
      <path fill="#4F7793" d="M685.358 313.936l-6.714 2.746s-.968 9.334-1.322 11.353c0 0 6.361-10.581 8.036-14.099z" class="Vector"/>
      <path stroke="#4F7793" stroke-width="1.453" d="M665.925 307.337c-.258 1.002-1.808 3.198-5.022 3.125" class="Vector 5"/>
    </g>
    <path fill="#DEDEDE" d="M678.922 332.464c-2.795-1.101-11.468-.459-15.455 0l1.164 5.504 6.246 2.011c3.846-2.046 10.839-6.414 8.045-7.515z" class="Vector 18"/>
    <path fill="#515151" d="M585.656 397.251c8.283-.131 15.105 6.477 15.236 14.761.131 8.283-6.477 15.104-14.761 15.236l-177.996 2.82c-8.283.131-15.105-6.477-15.236-14.76-.131-8.284 6.478-15.105 14.761-15.236l177.996-2.821z" class="Rectangle 7.2"/>
    <path fill="#D69962" d="M576.721 372.95c6.465-4.063 13.827-6.609 20.641-1.287 4.319 3.373-4.265 12.397-4.265 12.397s-3.298-.302-8.489.014c-5.191.316-5.923 3.29-12.57.398-6.646-2.893-1.782-7.458 4.683-11.522z" class="Vector 2.3"/>
    <path fill="#FFB877" fill-rule="evenodd" d="M471.774 407.595a6.56 6.56 0 00-9.27-.409l-13.281 14.535c-4.395 4.333-7.509 10.821-5.062 13.495 2.447 2.673 9.854-2.469 12.528-4.916l14.676-13.434a6.562 6.562 0 00.409-9.271z" class="Vector 3.2 (Stroke)" clip-rule="evenodd"/>
    <path fill="#F8F8F8" d="M611.494 433.619c-3.689 0 3.675-34.468-2.293-49.814 11.169 1.705 14.599 0 19.518 0 5.708 0 10.615-5.303 13.94-19.626 3.325-14.323 11.713-27.286 29.054-31.14 9.451-2.1 20.579-1.851 26.973 8.38 6.395 10.231-12.878 42.748-20.295 57.838-7.418 15.09-29.565 34.362-66.897 34.362z" class="Vector 14"/>
    <path fill="#559ED2" d="M648.51 360.557l3.794 3.258-4.719 1.657.925-4.915z" class="Polygon"/>
    <path fill="#559ED2" d="M634.968 405.365l3.794 3.259-4.719 1.656.925-4.915z" class="Polygon_2"/>
    <path fill="#559ED2" d="M662.362 376.808l-.9 4.919-3.81-3.239 4.71-1.68z" class="Polygon_3"/>
    <path fill="#559ED2" d="M668.834 345.702l.294 3.213-2.93-1.352 2.636-1.861z" class="Polygon_4"/>
    <path fill="#559ED2" d="M620.945 418.569l.294 3.213-2.93-1.352 2.636-1.861z" class="Polygon_5"/>
    <path fill="#559ED2" d="M665.072 408.898l.295 3.214-2.93-1.352 2.635-1.862z" class="Polygon_6"/>
    <g class="Group 9.1">
      <path stroke="#4F7793" stroke-linecap="round" d="M645.106 384.406l4.058-.705" class="Vector 9.2"/>
      <path stroke="#4F7793" stroke-linecap="round" d="M644.754 382.377l4.057-.705" class="Vector 9.3"/>
    </g>
    <g class="Group 9.6">
      <path stroke="#4F7793" stroke-linecap="round" d="M652.818 347.915l3.034-.527" class="Vector 9.2_2"/>
      <path stroke="#4F7793" stroke-linecap="round" d="M652.555 346.397l3.034-.526" class="Vector 9.3_2"/>
    </g>
    <g class="Group 9.5">
      <path stroke="#4F7793" stroke-linecap="round" d="M664.292 359.29l3.162 2.201" class="Vector 9.2_3"/>
      <path stroke="#4F7793" stroke-linecap="round" d="M665.393 357.709l3.161 2.201" class="Vector 9.3_3"/>
    </g>
    <g class="Group 9.2">
      <path stroke="#4F7793" stroke-linecap="round" d="M635.112 424.278l2.721-3.091" class="Vector 9.2_4"/>
      <path stroke="#4F7793" stroke-linecap="round" d="M633.567 422.918l2.721-3.091" class="Vector 9.3_4"/>
    </g>
    <path fill="#F8F8F8" d="M675.768 326.157c.395 2.501-3.456 7.295-5.43 9.379 13.821-4.87 24.846 6.198 28.63 12.341 1.448-2.501.604-17.277 0-24.353-.493 4.114-14.479-.164-18.922-.987-4.443-.823-4.772.494-4.278 3.62z" class="Vector 15"/>
    <g class="Group 14">
      <path fill="#383838" d="M431.089 261.067s-.965-1.337-4.085-.445c1.044-2.536 4.085-5.2 6.165-5.2l2.823 8.097c-5.126 1.114-6.699.653-8.32 1.114.514-3.472 3.417-3.566 3.417-3.566z" class="Vector 17.1"/>
      <path fill="#0D0D0D" d="M436.407 232.28l2.965 18.182 11.414-6.183-14.379-11.999z" class="Vector 2_3"/>
      <path fill="#BBB" d="M435.369 263.99c-3.14-.484-10.492 2.531-6.667 6.095h15.394c-1.359-1.861-5.588-5.612-8.727-6.095z" class="Vector 6.1"/>
      <path fill="#3F3F3F" d="M468.379 256.856c0 14.997 26.224 12.727 49.493 12.727 11.663 0 16.968 2.903 25.254-9.597 2.837-4.279 1.702-18.217-11.22-24.432-21.076-10.135-66.732 7.596-63.527 21.302z" class="Ellipse"/>
      <path fill="#515151" d="M431.466 260.556c0 10.803 16.31 9.478 33.072 9.478 16.762 0 20.67 1.325 20.67-9.478 0-10.803-7.542-19.813-24.304-19.813-16.761 0-29.438 9.01-29.438 19.813z" class="Ellipse_2"/>
      <path stroke="#3F3F3F" stroke-linecap="round" stroke-width="6" d="M537.065 256.619c8.367 1.77 18.647 2.518 17.562 7.477-1.356 6.2-7.451 1.402-9.988 6.342-3.681 7.168 7.293 6.499 2.537 19.499" class="Vector_2"/>
      <path fill="#3F3F3F" d="M471.849 229.02s1.715 19.425 0 20.161c-1.716.737-.933-4.59-12.934-5.168l12.934-14.993z" class="Vector 2.1"/>
      <path fill="#0D0D0D" d="M441.023 256.805a.5.5 0 00-.997-.077l.997.077zm3.618 6.16a.5.5 0 10-.068-.997l.068.997zm-4.615-6.237c-.081 1.055.032 2.638.669 3.95.322.663.787 1.275 1.447 1.703.665.431 1.494.653 2.499.584l-.068-.997c-.813.055-1.422-.124-1.887-.426-.471-.305-.828-.758-1.092-1.3-.533-1.099-.644-2.489-.571-3.437l-.997-.077z" class="Vector 3"/>
      <path fill="#0D0D0D" d="M439.983 256.805a.5.5 0 01.997-.077l-.997.077zm-3.618 6.16a.5.5 0 11.068-.997l-.068.997zm4.615-6.237c.081 1.055-.032 2.638-.669 3.95-.322.663-.787 1.275-1.447 1.703-.665.431-1.494.653-2.499.584l.068-.997c.812.055 1.422-.124 1.887-.426.471-.305.828-.758 1.092-1.3.533-1.099.644-2.489.571-3.437l.997-.077z" class="Vector 3.1"/>
      <path fill="#0D0D0D" d="M440.447 258.846c-1.256 0 .241-.986-2.731-2.12-.924-.64.832-2.116 3.425-2.116 2.402 0 4.291 1.911 2.897 2.116-2.237.33-2.341 2.12-3.591 2.12z" class="Vector 4"/>
      <path stroke="#0D0D0D" stroke-linecap="round" d="M448.931 254.53c.973.679 2.944 1.35 5.202 0" class="Vector 5_2"/>
      <path stroke="#0D0D0D" stroke-linecap="round" d="M431.675 253.443c.973.678 2.944 1.35 5.202 0" class="Vector 5.1"/>
      <path fill="#C8C8C8" d="M480.591 264.567c-2.683-.412-5.702 2.469-3.278 4.452 3.161 2.586 9.504.711 10.831 0-1.161-1.59-4.871-4.039-7.553-4.452z" class="Vector 6"/>
      <path fill="#515151" d="M537.737 269.368c-3.313 2.301-21.569 1.132-27.692.079l-5.321-4.565c4.907-.077 15.229-.46 17.254-1.38 2.024-.92-5.54-6.293-5.472-11.14.139-9.98 16.042-18.588 23.992-8.811 3.971 4.883 4.24 8.793 3.971 13.969-.498 2.723-3.42 9.548-6.732 11.848z" class="Vector 7"/>
      <path fill="#C8C8C8" d="M503.972 263.897c-3.139-.483-7.132 4.283-4.609 5.733 0 0 3.078.321 5.057.357 2.673.049 6.835-.357 6.835-.357 0-1.999-4.143-5.25-7.283-5.733z" class="Vector 6.2"/>
      <g class="Group 3.1">
        <circle r=".254" fill="#0D0D0D" class="Ellipse 2.4" transform="scale(-1 1) rotate(-9.259 1377.409 2883.992)"/>
        <circle r=".254" fill="#0D0D0D" class="Ellipse 2.2" transform="scale(-1 1) rotate(-9.259 1380.099 2868.354)"/>
        <circle r=".254" fill="#0D0D0D" class="Ellipse 2" transform="scale(-1 1) rotate(-9.259 1371.245 2868.24)"/>
        <circle r=".254" fill="#0D0D0D" class="Ellipse 2.7" transform="scale(-1 1) rotate(-9.259 1371.19 2877.198)"/>
        <circle r=".254" fill="#0D0D0D" class="Ellipse 2.1" transform="scale(-1 1) rotate(-9.259 1379.38 2859.495)"/>
        <circle r=".254" fill="#0D0D0D" class="Ellipse 2.3" transform="scale(-1 1) rotate(-9.259 1389.536 2872.543)"/>
        <circle r=".254" fill="#0D0D0D" class="Ellipse 2.6" transform="scale(-1 1) rotate(-9.259 1387.963 2863.185)"/>
        <circle r=".254" fill="#0D0D0D" class="Ellipse 2.5" transform="scale(-1 1) rotate(-9.259 1387.299 2883.978)"/>
      </g>
      <g class="Group 4">
        <path stroke="#A6A6A6" stroke-linecap="round" stroke-width=".2" d="M443.442 259.473c6.912-1.03 20.261 1.376 27.601 5.546" class="Vector 8.1_2"/>
        <path stroke="#A6A6A6" stroke-linecap="round" stroke-width=".2" d="M443.442 259.379c6.68-2.055 20.238-1.679 28.121 1.343" class="Vector 8.2_2"/>
      </g>
      <g class="Group 3">
        <circle cx="434.986" cy="258.867" r=".254" fill="#0D0D0D" class="Ellipse 2.4_2"/>
        <circle cx="437.467" cy="259.504" r=".254" fill="#0D0D0D" class="Ellipse 2.2_2"/>
        <circle cx="437.601" cy="258.081" r=".254" fill="#0D0D0D" class="Ellipse 2_2"/>
        <circle cx="436.162" cy="257.956" r=".254" fill="#0D0D0D" class="Ellipse 2.7_2"/>
        <circle cx="438.903" cy="259.504" r=".254" fill="#0D0D0D" class="Ellipse 2.1_2"/>
        <circle cx="436.67" cy="260.968" r=".254" fill="#0D0D0D" class="Ellipse 2.3_2"/>
        <circle cx="438.196" cy="260.836" r=".254" fill="#0D0D0D" class="Ellipse 2.6_2"/>
        <circle cx="434.861" cy="260.459" r=".254" fill="#0D0D0D" class="Ellipse 2.5_2"/>
      </g>
      <g class="Group 4.1">
        <path stroke="#A6A6A6" stroke-linecap="round" stroke-width=".2" d="M437.468 259.574c-6.913-1.03-20.262 1.375-27.602 5.545" class="Vector 8.1_3"/>
        <path stroke="#A6A6A6" stroke-linecap="round" stroke-width=".2" d="M437.467 259.48c-6.68-2.056-20.238-1.679-28.121 1.342" class="Vector 8.2_3"/>
      </g>
      <path fill="#000" d="M458.374 257.052a.501.501 0 00.177.984l-.177-.984zm6.703 5.515l-.111.488.792.18-.196-.788-.485.12zm-7.18 0l-.074-.494-1.491.222 1.328.713.237-.441zm5.29 6.35l-.206.456.706.318v-.774h-.5zm-8.356-1.837a.5.5 0 10.266.964l-.266-.964zm10.356-5c-1.491-.339-3.343-.335-4.793-.254a32.723 32.723 0 00-2.556.245l-.011.001-.003.001h-.001l.074.494.073.495h.001l.001-.001.009-.001.035-.005.138-.019a33.556 33.556 0 012.296-.212c1.429-.08 3.166-.076 4.516.231l.221-.975zm-7.29.487l-.237.441.002.001.01.005.04.022.16.092a15.934 15.934 0 012.342 1.676c1.31 1.137 2.473 2.595 2.473 4.113h1c0-1.991-1.482-3.709-2.817-4.868a17.023 17.023 0 00-2.494-1.785c-.075-.044-.135-.077-.176-.1a3.015 3.015 0 00-.048-.027l-.013-.007-.004-.002-.001-.001h-.001l-.236.44zm5.495 5.894c-1.488-.671-4.603-2.474-8.561-1.381l.266.964c3.543-.978 6.3.614 7.884 1.329l.411-.912zm-4.841-10.425c1.37-.246 2.713.267 3.816 1.195 1.107.929 1.921 2.235 2.224 3.457l.971-.241c-.358-1.44-1.294-2.925-2.551-3.982-1.26-1.058-2.894-1.726-4.637-1.413l.177.984z" class="Vector 17"/>
    </g>
    <path fill="#EEEDED" d="M697.337 355.624c3.186-5.965.934-13.383-5.031-16.57-5.965-3.186-13.384-.934-16.57 5.031l21.601 11.539zm-21.601-11.539l-15.151 28.363 21.601 11.538 15.151-28.362-21.601-11.539z" class="Vector 10.1"/>
    <g class="Group 9.4">
      <path stroke="#4F7793" stroke-linecap="round" d="M683.554 334.385l3.103-.538" class="Vector 9.2_5"/>
      <path stroke="#4F7793" stroke-linecap="round" d="M683.284 332.833l3.104-.538" class="Vector 9.3_5"/>
    </g>
    <g class="Group 9.7">
      <path stroke="#4F7793" stroke-linecap="round" d="M670.501 367.277l-.341 3.131" class="Vector 9.2_6"/>
      <path stroke="#4F7793" stroke-linecap="round" d="M672.066 367.447l-.341 3.132" class="Vector 9.3_6"/>
    </g>
    <g class="Group 9.8">
      <path stroke="#4F7793" stroke-linecap="round" d="M684.033 363.268l1.51 2.764" class="Vector 9.2_7"/>
      <path stroke="#4F7793" stroke-linecap="round" d="M685.416 362.513l1.51 2.764" class="Vector 9.3_7"/>
    </g>
    <g class="Group 9.9">
      <path stroke="#4F7793" stroke-linecap="round" d="M686.16 345.946l-3.047.797" class="Vector 9.2_8"/>
      <path stroke="#4F7793" stroke-linecap="round" d="M686.559 347.47l-3.048.797" class="Vector 9.3_8"/>
    </g>
    <path fill="#559ED2" d="M691.515 345.364l3.059 2.711-3.877 1.294.818-4.005z" class="Polygon_7"/>
    <path fill="#559ED2" d="M683.36 373.052l.294 3.213-2.93-1.352 2.636-1.861z" class="Polygon_8"/>
    <path fill="#559ED2" d="M680.344 354.336l.294 3.213-2.93-1.351 2.636-1.862z" class="Polygon_9"/>
    <path fill="#559ED2" d="M670.835 336.926l-2.501 2.039-.516-3.185 3.017 1.146z" class="Polygon_10"/>
    <path fill="#559ED2" d="M696.238 330.15l-2.501 2.039-.515-3.185 3.016 1.146z" class="Polygon_11"/>
    <path fill="#559ED2" d="M679.478 327.685l-2.485.4.897-2.352 1.588 1.952z" class="Polygon_12"/>
    <g class="Group 13">
      <path fill="#C9B46C" d="M362.557 338.582l3.855 7.997 7.996 3.854-7.996 3.855-3.855 7.997-3.855-7.997-7.996-3.855 7.996-3.854 3.855-7.997z" class="Star"/>
      <path fill="#C9B46C" d="M470.626 338.582l3.854 7.997 7.997 3.854-7.997 3.855-3.854 7.997-3.855-7.997-7.997-3.855 7.997-3.854 3.855-7.997z" class="Star_2"/>
      <path fill="#C9B46C" d="M578.693 338.583l3.855 7.996 7.996 3.855-7.996 3.855-3.855 7.996-3.855-7.996-7.996-3.855 7.996-3.855 3.855-7.996z" class="Star_3"/>
    </g>
    <path fill="#8ED0FF" fill-rule="evenodd" d="M227.06 22.324l.75.801 15.571 16.644h-2.739L227.1 25.293 214.258 39.77h-2.674l14.748-16.624.728-.821zm426.218 56.114h-53.169l-10.086 63.803h53.169l2.001-12.655 5.495 12.655h10.98l-13.545-31.193 5.155-32.61zM9.378 231.524h8.984V300H9.378v-68.476zm18.957 0h-8.983V300h8.983v-68.476zm.99 0h8.984V300h-8.984v-68.476zM94.748 300v-8.984h68.475V300H94.748zm-4.624-17.968v8.984h68.475v-8.984H90.124zm11.358 0v-8.984h68.476v8.984h-68.476zm-48.93-32.063l-6 2.44L65.906 300l6-2.44-19.353-47.591zm-14.243 2.29l7.162-1.098 7.324 47.74L45.633 300l-7.324-47.741zM692.43 78.438h80.463l-5.575 35.267 12.391 28.536h-10.98l-4.341-9.998-1.581 9.998h-80.462l10.085-63.803zm-11.553 211.743c-18.678-2.317-26.871 0-26.871 0s-4.923-33.871 25.369-26.035c11.789-6.32 40.089-.238 36.66 24.906-2.875 21.085 3.889 25.257 10.234 29.17 3.112 1.919 6.124 3.777 7.848 7.538 2.358 5.146 3.316 13.525 4.244 21.64 1.133 9.906 2.22 19.417 5.756 22.17 7.764 6.044 12.05 22.519 7.764 22.519-1.59 0-5.24-1.647-9.831-3.718-7.782-3.512-18.269-8.245-26.015-8.245-4.196 0-8.147.834-11.684 1.581-6.875 1.451-12.188 2.572-14.703-3.402-2.134-5.068.388-11.187 3.144-17.87 2.164-5.248 4.471-10.844 4.78-16.553.709-13.126-3.371-19.82-7.686-26.896-4.073-6.682-8.354-13.705-9.009-26.805zm-129.163 75.623c6.628 3.689 13.274 7.387 19.578 10.71.268.488.608 1.002 1.022 1.546 3.554 4.66 8.13 5.492 11.07 6.026l.157.029.175.032c2.627.483 4.596 1.551 6.517 2.593 2.802 1.52 5.5 2.983 9.981 2.493l11.153 5.516c.627 7.936.018 17.109-.476 24.551-.323 4.87-.597 8.999-.443 11.553h-16.257c-11.785 0-68.588-43.978-71.72-46.409l-.192-.125-50.232 42.073a14.967 14.967 0 01-11.82 3.34c.678 4.705 1.315 13.075-1.994 16.522-11.028.664-57.986.623-57.762-4.206.125-2.688 8.507-4.932 18.968-7.733h.001c8.335-2.232 17.991-4.818 25.841-8.262 3.172 4.565 7.674 3.796 10.787 2.435a14.946 14.946 0 01-5.152-3.964c-5.32-6.351-4.483-15.812 1.867-21.131l58.758-49.214c5.479-4.589 13.272-4.597 18.724-.435l3.049 1.976c5.908 3.134 12.135 6.598 18.378 10.072l.014.008.007.004h.001z" class="Secondary" clip-rule="evenodd"/>
    <path fill="#fff" fill-opacity=".8" fill-rule="evenodd" d="M646.844 84.928h-42.352l-8.034 50.822h4.858a1.988 1.988 0 01-.164-1.17c.799-4.959 3.953-8.852 7.553-11.382 2.959-2.081 6.441-3.394 9.531-3.547l.459-2.264c-4.304-1.412-7.086-5.765-6.383-10.392.023-.15.049-.298.078-.445a73.062 73.062 0 00-3.758-.051c-1.688-3.369 3.069-12.51 14.939-12.767 9.496-.204 13.335 11.057 12.754 17.23-.791 1.078-2.931 2.457-5.727.487a9.458 9.458 0 01-7.906 6.356l-.48 2.367c3.975 1.298 6.579 4.703 8.253 7.834 1.528 2.856 2.527 5.998 3.08 7.735l.003.009h5.262l8.034-50.822zM629.34 135.75c-.545-1.673-1.28-3.76-2.402-5.857a19.65 19.65 0 00-1.317-2.143 7.138 7.138 0 01-.15 1.252l-1.306 6.218c-.038.18-.082.357-.133.53h5.308zm-18.991 0l1.265-9.658.008-.036a18.45 18.45 0 00-.617.414c-2.978 2.094-5.321 5.132-5.904 8.747a2.005 2.005 0 01-.165.533h5.413z" class="Subtract" clip-rule="evenodd"/>
    <path fill="#000" fill-opacity=".18" fill-rule="evenodd" d="M551.713 365.804c6.629 3.689 13.275 7.387 19.578 10.711.269.487.608 1.001 1.022 1.544 3.555 4.661 8.131 5.493 11.071 6.027l.332.061c2.626.483 4.596 1.551 6.517 2.593 2.802 1.52 5.5 2.983 9.98 2.493l11.153 5.516c.628 7.936.019 17.11-.475 24.551-.323 4.87-.597 8.999-.443 11.553h-16.257c-11.786 0-68.589-43.978-71.72-46.409l-.193-.125-50.232 42.073a14.965 14.965 0 01-11.82 3.34c.679 4.705 1.315 13.075-1.993 16.522-11.028.664-57.987.623-57.762-4.206.124-2.688 8.506-4.932 18.968-7.733 8.335-2.232 17.991-4.818 25.842-8.262 3.171 4.565 7.674 3.796 10.787 2.435a14.95 14.95 0 01-5.153-3.964c-5.319-6.351-4.483-15.812 1.868-21.131l58.758-49.214c5.479-4.589 13.272-4.597 18.724-.435l3.049 1.976c5.915 3.138 12.149 6.606 18.399 10.084z" class="Union_3" clip-rule="evenodd"/>
    <path fill="#B2B2B2" d="M453.69 226.024a.5.5 0 00-.324.946l.324-.946zm4.086 1.928l.298.401.763-.566-.899-.308-.162.473zm-4.248 3.153l-.298-.402-.763.567.899.308.162-.473zm4.086 1.928a.5.5 0 00.324-.946l-.324.946zm-4.248-6.063l4.248 1.455.324-.946-4.248-1.455-.324.946zm4.112.58l-4.248 3.153.596.803 4.248-3.153-.596-.803zm-4.112 4.028l4.248 1.455.324-.946-4.248-1.455-.324.946z" class="Vector 23"/>
    <path fill="#C8C8C8" d="M458.168 214.735a.5.5 0 00-.575.818l.575-.818zm2.341 2.256l.174.469.891-.331-.778-.547-.287.409zm-3.547 1.319l-.175-.469-.89.331.777.547.288-.409zm2.34 2.256a.5.5 0 00.575-.818l-.575.818zm-1.709-5.013l2.628 1.847.575-.818-2.628-1.847-.575.818zm2.741.97l-3.547 1.318.349.937 3.547-1.318-.349-.937zm-3.66 2.196l2.628 1.847.575-.818-2.628-1.847-.575.818z" class="Vector 23.1"/>
    <path fill="#C8C8C8" d="M469.529 214.445a.5.5 0 10-.575.818l.575-.818zm2.34 2.256l.174.468.891-.331-.778-.546-.287.409zm-3.547 1.318l-.174-.468-.891.331.778.546.287-.409zm2.34 2.256a.5.5 0 10.575-.818l-.575.818zm-1.708-5.012l2.627 1.847.575-.818-2.627-1.847-.575.818zm2.741.969l-3.547 1.319.348.937 3.547-1.319-.348-.937zm-3.66 2.196l2.627 1.847.575-.818-2.627-1.847-.575.818z" class="Vector 23.2"/>
    <path fill="#D9D9D9" d="M463.871 201.352a.5.5 0 10-.575.818l.575-.818zm1.951 1.982l.174.468.891-.331-.777-.546-.288.409zm-3.021 1.123l-.174-.469-.891.331.778.547.287-.409zm1.951 1.982a.499.499 0 10.575-.818l-.575.818zm-1.456-4.269l2.239 1.573.575-.818-2.239-1.573-.575.818zm2.352.695l-3.021 1.123.348.937 3.021-1.123-.348-.937zm-3.134 2.001l2.238 1.573.575-.818-2.238-1.573-.575.818z" class="Vector 23.3"/>
    <path fill="#D9D9D9" d="M454.846 190.615a.5.5 0 00-.575.819l.575-.819zm1.951 1.983l.174.468.891-.331-.778-.546-.287.409zm-3.021 1.123l-.175-.469-.89.331.777.547.288-.409zm1.95 1.982a.5.5 0 00.575-.818l-.575.818zm-1.455-4.269l2.238 1.573.575-.818-2.238-1.574-.575.819zm2.352.695l-3.022 1.123.349.937 3.021-1.123-.348-.937zm-3.135 2.001l2.238 1.573.575-.818-2.238-1.573-.575.818z" class="Vector 23.4"/>
    <path fill="#D9D9D9" d="M476.728 203.162a.5.5 0 10-.575.818l.575-.818zm1.951 1.982l.174.469.891-.332-.778-.546-.287.409zm-3.021 1.123l-.175-.469-.891.331.778.547.288-.409zm1.95 1.982a.501.501 0 00.575-.818l-.575.818zm-1.455-4.269l2.238 1.573.575-.818-2.238-1.573-.575.818zm2.352.695l-3.022 1.123.349.938 3.021-1.123-.348-.938zm-3.135 2.001l2.238 1.573.575-.818-2.238-1.573-.575.818z" class="Vector 23.5"/>
    <path fill="#000" fill-opacity=".1" d="M508 142.241h296v10H508z" class="Rectangle_5"/>
    <path stroke="#000" stroke-opacity=".1" stroke-width="8.539" d="M65.308 44.039H384.16v158.733H65.308z" class="Rectangle_6"/>
    <path fill="#fff" fill-opacity=".8" fill-rule="evenodd" d="M765.29 84.928h-68.477l-8.034 50.822h68.477l8.034-50.822zm-45.302 17.428s.274 3.098.304 5.466c.567.21 1.084.46 1.553.744 5.46-3.765 16.331-6.452 22.301-3.582 2.484 1.195 3.885 3.099 4.546 4.95.417.943.536 1.855.537 2.865.791.15 1.587.315 2.291.524.738.218 1.52.521 2.097 1.008.303.256.584.592.752 1.024.172.443.195.91.094 1.368-.187.858-.566 1.328-1.23 1.741-.589.367-1.27.63-1.664.667l-.157.015c-.38.036-.576.054-.755.119-.113.041-.21.095-.316.302-.24.467-.177.634-.143.725l.001.001c.035.093.102.214.232.398.064.091.134.186.219.298l.017.023c.077.103.165.22.253.342.388.541.834 1.267.998 2.287.163 1.012.031 2.189-.497 3.633a1.207 1.207 0 01-2.267-.83c.429-1.171.462-1.921.382-2.419-.079-.49-.286-.858-.577-1.264-.071-.1-.144-.197-.225-.304l-.014-.018c-.082-.11-.174-.233-.263-.359a4.218 4.218 0 01-.514-.929c-.317-.834-.248-1.715.251-2.687.404-.786.996-1.236 1.646-1.47.493-.178 1.027-.224 1.368-.253l.082-.008.049-.004c.415-.04.538-.083.593-.118.01-.005.025-.015.048-.052.028-.043.148-.347.192-.546.031-.139-.476-.222-.892-.291a4.517 4.517 0 01-.444-.085c-.588-.174-1.287-.321-2.063-.468-.499 1.239-1.352 2.771-2.282 3.417-1.255.871-7.841.505-10.661.106-.132.012-1.711.161-2.74.142a26.574 26.574 0 01-1.736-.114c-1.753-.008-3.442-.055-4.985-.195-.661.272-2.38.713-3.596.252-.921.114-2.141.102-3.741.088h-.001c-.606-.006-1.265-.012-1.983-.012-.671 0-1.34.005-2.002.011h-.003c-2.31.018-4.52.035-6.364-.175.055.065.104.127.146.185h-6.192c-1.135-1.058.177-1.995 1.45-2.336l-.024-.046c-.4.047-.711.065-.972.08-.349.02-.607.034-.868.109.206-1.397 1.374-1.434 1.374-1.434s-.388-.538-1.643-.18c.039-.094.084-.189.136-.284-.462.064-.934.142-1.406.233-2.057.4-4.133 1.06-5.604 1.895a.04.04 0 01-.055-.015.04.04 0 01.016-.055c1.481-.841 3.566-1.503 5.627-1.904.495-.096.988-.177 1.472-.241.112-.19.246-.377.396-.553a24.773 24.773 0 00-1.846.009c-2.093.087-4.244.428-5.824 1.034a.041.041 0 01-.052-.024.04.04 0 01.023-.052c1.591-.609 3.752-.952 5.85-1.038a25.061 25.061 0 011.917-.007c.452-.509 1.025-.919 1.524-1.048.473-1.235 1.372-2.36 2.597-3.29l-.989-6.06 4.923 4.108c1.487-.451 3.152-.704 4.931-.704.112 0 .222.001.332.003l4.07-4.718z" class="Subtract_2" clip-rule="evenodd"/>
    <path fill="#FFB877" fill-rule="evenodd" d="M608.584 379.179c-4.392-9.919-14.128-11.622-23.808-11.115-9.795.514-18.109 2.592-12.462 9.996 3.691 4.839 8.484 5.55 11.402 6.087 6.457 1.188 8.945 5.913 16.498 5.086l52.49 25.963a10.331 10.331 0 0012.662-4.833l14.741-27.596-16.458-8.791-11.33 21.21-43.735-16.007z" class="Union_4" clip-rule="evenodd"/>
    <path stroke="#FFFAEE" stroke-linecap="round" stroke-width="3.029" d="M438.974 436.333l-9.505-9.947" class="Vector 8.2_4"/>
    <path stroke="#FFFAEE" stroke-linecap="round" stroke-width="3.029" d="M429.22 437.365l-9.504-9.947" class="Vector 8.3_2"/>
    <g class="Group 9.3">
      <path stroke="#4F7793" stroke-linecap="round" d="M615.746 404.112l3.643.496" class="Vector 9.2_9"/>
      <path stroke="#4F7793" stroke-linecap="round" d="M615.994 402.29l3.643.496" class="Vector 9.3_9"/>
    </g>
  </g>
</svg>
