<svg xmlns="http://www.w3.org/2000/svg" width="1152" height="700" fill="none" viewBox="0 0 1152 700">
  <g class="food">
    <path fill="#fff" d="M0 0h1152v700H0z"/>
    <g class="Group 4.1">
      <ellipse cx="608.5" cy="348.657" fill="#FABC60" class="Ellipse" rx="243.5" ry="241.501"/>
      <path fill="#fff" fill-opacity=".37" d="M503.843 158.569c-8.111-36.764 24.018-53.952 33.586-90.363 5.347-20.347-1.625-35.798 10.796-52.778C577.43-24.5 691.263 20.24 703.361 68.206c9.377 37.176-86.697 52.938-78.368 90.363 8.691 39.05 73.984 26.208 78.368 65.973 3.202 29.043-30.202 39.153-30.387 68.372-.228 35.928 44.781 80.367 44.781 80.367l-137.144-7.197s-56.054-37.099-56.376-73.17c-.278-31.089 42.623-37.336 40.783-68.372-2.079-35.075-53.605-31.662-61.175-65.973z" class="Vector"/>
      <g class="Group 3">
        <g class="Group">
          <path fill="#3A9679" d="M520.012 519.618l25.987-31.626c3.914-12.323 1.25-28.548 5.357-43L560 385.501h13l14.635 44.336s3.622 5.627 7.152 5.82c3.53.193 2.578.778 8.013-.199 2.053-.855 1.238.41 3.941-.847 19.549-9.089 61.444-26.569 79.133-46.914l14.133-15.452L708.41 369l-7.169 17.352-21.741 35.84-28.998 20.329-14.024 11.626-16.687 21.537s-11.845 12.775-17.272 20.583c-12.436 17.895-21.06 34.149-21.06 34.149l-20.711 37.155-30.75 66.188-12.886 23.89c-26.112 0-69.451-24.234-58.964-57.739l61.864-80.292z" class="Vector_2"/>
          <path fill="#000" fill-opacity=".08" d="M557 437c2.155-17.873 3-49 3-49l-8 53.5s-2.197 9.673-2.5 12.5l-2 30-2 5 3 1s6.148-33.493 8.5-53z" class="Vector 7"/>
          <path fill="#000" fill-opacity=".11" d="M525.497 529.799c-6.492 10.2-46.212 66.655-65.26 93.608-5.6-5.29-4.125-18.102-3.251-23.396C489.383 557.893 511.649 529.557 545 489l3.5 1-2.464 3.886c-4.307 10.411-14.046 25.712-20.538 35.912l-.001.001z" class="Vector 6"/>
          <path fill="#000" fill-opacity=".22" d="M662.062 425.308c-10.274 6.494-25.671 27.843-25.671 27.843 31.866-25.876 39.497-30.446 54.959-54.497l8.352-12.777s-20.043 28.307-37.64 39.431z" class="Vector 3"/>
          <path fill="#000" fill-opacity=".14" d="M612.804 441.414c-6.752 4.983-17.902 7.942-17.902 7.942s-15.363 2.244-12.424-10.059C584.193 432.118 584.5 420 584.5 420l2.5 8c4.035 11.693 15.153 8.407 22.071 5.457l35.639-17.171c1.016 6.141-25.153 20.144-31.906 25.128z" class="Union"/>
        </g>
        <g class="Group 2">
          <g class="Group_2">
            <path fill="#E6E6E6" fill-rule="evenodd" d="M629.781 227.907a3.198 3.198 0 00-3.198 3.198v.8c0 .816.305 1.56.807 2.125a128.091 128.091 0 00-43.585 8.564c-16.138 6.219-30.934 15.645-43.542 27.739-12.608 12.093-22.781 26.618-29.939 42.744a138.25 138.25 0 00-11.779 51.243l131.069 4.577 131.069 4.577a138.244 138.244 0 00-8.176-51.939c-6.015-16.587-15.151-31.786-26.885-44.729-11.733-12.944-25.835-23.379-41.501-30.709a127.977 127.977 0 00-49.799-12.014l-.581-.019a3.19 3.19 0 00.838-2.159v-.8a3.198 3.198 0 00-3.198-3.198h-1.6z" class="Union_2" clip-rule="evenodd"/>
            <path fill="#000" fill-opacity=".1" d="M582.511 369.049l-83.166-4.398c0-87.564 80.5-126.615 110.754-128.747-40.783 34.386-38.384 98.359-27.588 133.145z" class="Vector 7_2"/>
            <path fill="#fff" fill-opacity=".5" d="M687.357 259.894c20.259 10.529 57.977 41.582 57.977 88.363-8.797-18.392-25.99-65.013-57.977-88.363z" class="Vector 6_2"/>
          </g>
          <path fill="#DDD" d="M449.291 382.403l-46.622-23.578c-2.292-1.16-1.405-4.624 1.162-4.539l414.174 13.659c2.471.082 3.218 3.395 1.022 4.529l-40.042 20.678c-.364.188-.77.279-1.179.266L450.295 382.66a2.39 2.39 0 01-1.004-.257z" class="Vector 2"/>
        </g>
      </g>
    </g>
    <path fill="#000" fill-opacity=".29" d="M698.5 390.5l-19 31.5-32.928 23.098L662.5 432l6.423-6 8-8 5.077-6 5.5-7.5 9-14h2z" class="Vector_3"/>
  </g>
</svg>
