<svg xmlns="http://www.w3.org/2000/svg" width="1155" height="700" fill="none" viewBox="0 0 1155 700">
  <g class="four_four">
    <path fill="#fff" d="M0 0h1155v700H0z"/>
    <g class="Group 2">
      <g class="Group 2.1">
        <g class="Group">
          <path fill="#FF9FE4" fill-rule="evenodd" d="M570.157 283.292c-2.9.356-5.897.536-8.985.536-27.766 0-48.181-14.498-57.488-39.916v13.647h-17.286v22.363h-57.062v-22.363H360v-33.301c12.5-24.512 26.758-47.949 51.172-85.254h75.226v86.816h12.829c-.754-5.261-1.141-10.833-1.141-16.699 0-46.875 24.707-74.121 63.086-74.121 3.093 0 6.098.176 9.006.525a75.416 75.416 0 018.994-.525c38.379 0 62.988 27.148 62.988 74.023 0 2.709-.082 5.356-.246 7.94 11.647-22.015 25.397-44.364 47.383-77.959h75.226v86.816h17.286v31.739h-17.286v22.363h-57.062v-22.363h-69.336v-18.443c-8.415 28.317-29.529 44.712-58.953 44.712-3.098 0-6.105-.18-9.015-.536zm.007-113.751c-7.431 5.132-11.891 17.764-11.891 39.58 0 21.744 4.46 34.729 11.891 40.051 7.403-5.322 11.809-18.307 11.809-40.051 0-21.816-4.406-34.448-11.809-39.58zm-139.656 23.412c-6.415 10.416-12.341 20.957-18.621 33.356v1.171h18.621v-34.527zm259.504 34.527h18.621v-34.527c-6.415 10.416-12.341 20.957-18.621 33.356v1.171z" class="Union" clip-rule="evenodd"/>
          <g class="404">
            <path fill="#000" fill-opacity=".12" d="M429.336 279.922h39.062v-22.363h17.286V225.82h-17.286v-86.816h-57.226C386.758 176.309 372.5 199.746 360 224.258v33.301h69.336v22.363zm-35.449-53.613c11.425-22.559 21.679-38.965 35.84-59.668h.781v60.839h-36.621v-1.171zM561.172 283.828c38.672 0 62.988-28.32 62.988-74.805 0-46.875-24.609-74.023-62.988-74.023s-63.086 27.246-63.086 74.121c0 46.582 24.414 74.707 63.086 74.707zm0-31.836c-12.695 0-20.899-13.379-20.899-42.871 0-29.59 8.204-42.285 20.899-42.285s20.801 12.695 20.801 42.285c0 29.492-8.106 42.871-20.801 42.871zM707.461 279.922h39.062v-22.363h17.286V225.82h-17.286v-86.816h-57.226c-24.414 37.305-38.672 60.742-51.172 85.254v33.301h69.336v22.363zm-35.449-53.613c11.426-22.559 21.679-38.965 35.84-59.668h.781v60.839h-36.621v-1.171z"/>
          </g>
        </g>
      </g>
      <g class="Group_2">
        <g class="bot">
          <g class="bot_2">
            <path fill="#2F70EE" fill-rule="evenodd" d="M708.372 580.949l49.266-3.449c44.5-10.5 42.5-29 20.952-47.5l-104-85s-20.813 3.13-35 4.5c-19.825 1.915-55 0-55 0l1.246 1h-54.698l-112.048 98c-11.452 14 0 33 0 33h288.5c.258-.175.519-.359.782-.551z" class="Union_2" clip-rule="evenodd"/>
            <path fill="#000" fill-opacity=".07" d="M437.31 546.609l92.248-80.194a18.004 18.004 0 0111.81-4.415h35.064a18 18 0 0111.777 4.387l92.734 80.224a15.026 15.026 0 015.195 11.364c0 8.298-6.727 15.025-15.026 15.025H447.178c-8.306 0-15.04-6.734-15.04-15.04 0-4.354 1.887-8.495 5.172-11.351z" class="Vector 5"/>
            <path fill="#000" fill-opacity=".06" d="M761.638 577l-55 5c19.5-12.5 5.5-28.5-3.048-37l-119-95.5s35.175 1.915 55 0c14.187-1.37 35-4.5 35-4.5l104 85c25.548 22.5 17.048 35.5-16.952 47z" class="Vector 3.1"/>
            <path stroke="#000" stroke-linecap="round" stroke-opacity=".17" d="M615.638 472.5l82-9m-55.5 29.5l81-8.5m-59.5 27l81-8.5m-44.5 38l78.5-9.5m-62 34l76-11.5" class="Vector 4"/>
            <path fill="#000" fill-opacity=".06" d="M704 544l-107.5-86 86-8.5L704 544z" class="Vector 6"/>
            <path fill="#000" fill-opacity=".06" d="M531.5 458L416 559c-2.4-1.6 1-7.333 3-10l103.5-91h9z" class="Vector 2"/>
            <path fill="#3072F3" d="M560.638 345.5l-43.5-48 8-10.5h125.5l5.5 10.5-44 48h-51.5z" class="Vector 6_2"/>
            <path fill="#000" fill-opacity=".02" d="M608.5 287L572 345h10.5l45-47-6.5-11h-12.5z" class="Vector 10"/>
            <path fill="#000" fill-opacity=".23" d="M612.638 345h-30.5l45-47.5-6.5-10.5h30l5.5 10.5-43.5 47.5z" class="Vector 8"/>
            <path fill="#000" fill-opacity=".06" d="M627.638 297.5l-6.5-10.5h29.5l5.5 10.5h-28.5z" class="Vector 9"/>
            <g class="Group 2_2">
              <circle cx="584.138" cy="309.5" r="4" fill="#fff" class="Ellipse"/>
            </g>
            <path stroke="#fff" stroke-linecap="round" stroke-width="2" d="M561 322c2.5 3.5 11 5.5 17.5 0" class="Vector 7"/>
            <g class="Group_3">
              <circle cx="554.138" cy="309.5" r="4" fill="#fff" class="Ellipse_2"/>
            </g>
            <rect width="81" height="12" x="541.138" y="342.5" fill="#1E2D67" class="Rectangle" rx="6"/>
            <g class="Group 3.1">
              <path fill="#0988FC" d="M443.5 299c0 30.5 36.833 67.667 57.5 82 0 0 3 4.5 0 7.5s-8.5 0-8.5 0c-45.5-39.5-54-65.5-58.5-86 2.8-4.8 6.166-4.167 9.5-3.5z" class="Vector 4_2"/>
              <path fill="#000" fill-opacity=".11" d="M487.362 372.833c-32.5-24-47-57.5-47-76h3c-.167 12.667 8.7 45 45.5 73l-1.5 3z" class="Vector 6_3"/>
              <path stroke="#000" d="M491.833 374.333c-.333 2-2.4 6.1-8 6.5" class="Vector 5_2"/>
              <path stroke="#000" d="M481.333 364.333c-.333 2-2.4 6.1-8 6.5" class="Vector 5.1"/>
              <path stroke="#000" d="M469.333 352.333c-.333 2-2.4 6.1-8 6.5" class="Vector 5.2"/>
              <path stroke="#000" d="M458.333 337.333c-.333 2-2.4 6.1-8 6.5" class="Vector 5.3"/>
              <path stroke="#000" d="M449.333 323.334c-.333 2-2 5.499-7.5 4.5" class="Vector 5.4"/>
              <path stroke="#000" d="M444.333 310.158c-.333 2-2 5.499-7.5 4.5" class="Vector 5.5"/>
              <path fill="#00488A" d="M426.611 269.021a17.5 17.5 0 1022.368 10.59l-5.894 2.106a11.242 11.242 0 11-14.368-6.802l-2.106-5.894z" class="Ellipse 2"/>
            </g>
            <path fill="#00488A" d="M481.138 458.5v-108h166.5l44 4.5-4 95.5-40 8h-166.5z" class="Vector"/>
            <path fill="#000" fill-opacity=".08" d="M650.138 458V351l41.5 4-4 95-37.5 8z" class="Vector 8_2"/>
            <path fill="#000" fill-opacity=".11" d="M681.5 446.5l9-85.5-3 89.5L662 455l19.5-8.5z" class="Vector 9_2"/>
            <path fill="#000" fill-opacity=".06" d="M666 454l-10-102.5h-6V458l16-4z" class="Vector 10_2"/>
            <path fill="#000" fill-opacity=".06" d="M637.5 457.5L648 350h2v107.5h-12.5z" class="Vector 2_2"/>
            <path fill="#000" fill-opacity=".09" d="M481 375.5V458h90l-71.66-5.867a16 16 0 01-14.666-14.995L481 375.5z" class="Vector_2"/>
            <g class="Group 3">
              <path fill="#0988FC" d="M731.134 288c0 30.5-36.834 67.667-57.5 82 0 0-3 4.5 0 7.5 2.999 3 8.5 0 8.5 0 45.5-39.5 54-65.5 58.5-86-2.8-4.8-6.167-4.167-9.5-3.5z" class="Vector 4_3"/>
              <path fill="#000" fill-opacity=".09" d="M734.163 289.333c-2.4 39.6-42 73.167-61.5 85-1.2 0-.5-3.333 0-5 48.8-34.4 59.333-69 58.5-82l3 2z" class="Vector 6_4"/>
              <path stroke="#000" d="M682.8 363.333c.334 2 2.4 6.1 8 6.5" class="Vector 5_3"/>
              <path stroke="#000" d="M693.3 353.333c.334 2 2.4 6.1 8 6.5" class="Vector 5.1_2"/>
              <path stroke="#000" d="M705.3 341.333c.334 2 2.4 6.1 8 6.5" class="Vector 5.2_2"/>
              <path stroke="#000" d="M716.3 326.333c.334 2 2.4 6.1 8 6.5" class="Vector 5.3_2"/>
              <path stroke="#000" d="M725.3 312.334c.334 2 2 5.499 7.5 4.5" class="Vector 5.4_2"/>
              <path stroke="#000" d="M730.3 299.158c.334 2 2 5.499 7.5 4.5" class="Vector 5.5_2"/>
              <path fill="#00488A" d="M758.559 280.539a17.501 17.501 0 01-32.85-12.078l5.875 2.16a11.24 11.24 0 1021.1 7.758l5.875 2.16z" class="Ellipse 2_2"/>
            </g>
            <g class="Group 6">
              <rect width="104" height="63" x="510" y="370" fill="#30F3D0" class="Rectangle_2" rx="8"/>
            </g>
            <path fill="#000" fill-opacity=".06" d="M607.641 433H584.5s8.383-14.255 10.5-25.5c2.662-14.139-3-37.5-3-37.5h13.783c5.055 0 9.118 4.161 8.998 9.214l-1.142 47.929a6 6 0 01-5.998 5.857z" class="Vector 2_3"/>
            <path fill="#000" fill-opacity=".05" d="M510.436 425.929L510 378c3.2 42.4 19.5 54.5 26.5 54.5l-18.93.364a7 7 0 01-7.134-6.935z" class="Vector_3"/>
            <g class="Group 15">
              <circle cx="547.371" cy="425.371" r="2.371" fill="#fff" class="Ellipse_3"/>
              <circle cx="555.5" cy="425.371" r="2.371" fill="#EDD06C" class="Ellipse_4"/>
              <circle cx="563.629" cy="425.371" r="2.371" fill="#F995C5" class="Ellipse_5"/>
            </g>
            <g class="Group 15_2">
              <circle cx="452" cy="549" r="4" fill="#000" fill-opacity=".15" class="Ellipse_6"/>
              <circle cx="469" cy="534" r="4" fill="#000" fill-opacity=".15" class="Ellipse_7"/>
              <circle cx="486" cy="519" r="4" fill="#000" fill-opacity=".15" class="Ellipse_8"/>
              <circle cx="503" cy="504" r="4" fill="#000" fill-opacity=".15" class="Ellipse_9"/>
              <circle cx="520" cy="489" r="4" fill="#000" fill-opacity=".15" class="Ellipse_10"/>
            </g>
            <g class="Group 15.1">
              <circle r="4" fill="#000" fill-opacity=".15" class="Ellipse_11" transform="matrix(-1 0 0 1 662 549)"/>
              <circle r="4" fill="#000" fill-opacity=".15" class="Ellipse_12" transform="matrix(-1 0 0 1 645 534)"/>
              <circle r="4" fill="#000" fill-opacity=".15" class="Ellipse_13" transform="matrix(-1 0 0 1 628 519)"/>
              <circle r="4" fill="#000" fill-opacity=".15" class="Ellipse_14" transform="matrix(-1 0 0 1 611 504)"/>
              <circle r="4" fill="#000" fill-opacity=".15" class="Ellipse_15" transform="matrix(-1 0 0 1 594 489)"/>
            </g>
          </g>
        </g>
      </g>
    </g>
  </g>
</svg>
