<svg xmlns="http://www.w3.org/2000/svg" width="1152" height="700" fill="none" viewBox="0 0 1152 700">
  <g class="four_four1">
    <path fill="#fff" d="M0 0h1152v700H0z"/>
    <g class="4">
      <path stroke="#000" d="M463.578 500.552L500 485.079V497.5L463.578 515m0-14.448l-79.383-29.657m79.383 29.657V515m-79.383-44.105L289.871 507m94.324-36.105v14.184M289.871 507L175 454.776v16.119L289.871 524m0-17v17m0 0l94.324-38.921m0 0L463.578 515M342.17 454.776l-81.25-32.881V434L326 460.756l16.17-5.98z" class="shade"/>
      <path stroke="#000" d="M219.828 440.592L175 454.776 289.871 507l94.324-36.105 79.383 29.658L500 485.079l-71.911-27.724 24.282-11.605-37.357-14.829-30.819 9.671L300.144 409l-39.224 12.895 81.25 32.881-52.299 19.342-70.043-33.526z" class="4_2"/>
    </g>
    <g class="4_3">
      <path stroke="#000" d="M927.578 307.552L964 292.079V304.5L927.578 322m0-14.448l-79.383-29.657m79.383 29.657V322m-79.383-44.105L753.871 314m94.324-36.105v14.184M753.871 314L639 261.776v16.119L753.871 331m0-17v17m0 0l94.324-38.921m0 0L927.578 322M806.17 261.776l-81.25-32.881V241L790 267.756l16.17-5.98z" class="shade_2"/>
      <path stroke="#000" d="M683.828 247.592L639 261.776 753.871 314l94.324-36.105 79.383 29.658L964 292.079l-71.911-27.724 24.282-11.605-37.357-14.829-30.819 9.671L764.144 216l-39.224 12.895 81.25 32.881-52.299 19.342-70.043-33.526z" class="4_4"/>
    </g>
    <g class="hole">
      <g class="zero">
        <path stroke="#000" d="M564.089 435L357 368.288V384l207.089 69.5m0-18.5L758 373.712V390l-193.911 63.5m0-18.5v18.5" class="zero_2"/>
        <path stroke="#000" d="M564.089 435L357 368.288 564.089 307 758 373.712 564.089 435z" class="zero_3"/>
      </g>
      <mask id="a" width="401" height="409" x="357" y="26" class="mask0" maskUnits="userSpaceOnUse">
        <path fill="#EE7E79" d="M564.089 435L357 368.288 485 26l273 347.712L564.089 435z" class="Vector 2.1"/>
      </mask>
      <g class="person" mask="url(#a)">
        <path stroke="#000" d="M542.903 228.548l-2.59-12.213m2.59 12.213l14.858 70.04m-14.858-70.04l-81.025-22.925m78.435 10.712l-18.242-85.993 11.156 1.019 70.903 334.251-11.526-2.765-12.742-60.07m-39.549-186.442l-79.981-21.584m97.429 103.837l-85.167-17.618m85.167 17.618l2.168 10.22m-87.335-27.838l1.402 9.861m-1.402-9.861l-10.716-75.347m12.118 85.208l85.933 17.977m-85.933-17.977l13.7 96.333m72.233-78.356l17.976 84.746m1.957 9.223l-90.655-4.994m90.655 4.994l-1.957-9.223m-88.698 4.229l12.729 89.507-10.529-2.976-49.589-341.255 11.654.914 5.134 38.642 1.042 7.332.684 4.804m28.875 203.032l-1.511-10.619m0 0l90.209 6.39M461.878 205.623l-1.546-10.872" class="ladder"/>
        <g class="hammer">
          <path stroke="#000" d="M494.637 250.721c1.91 1.101 1.843 4.869 1.571 6.615l7.184-1.568c-2.728-1.834-2.184-5.174-1.571-6.615m-7.184 1.568l7.184-1.568m-7.184 1.568l-1.125-3.992 7.413-1.682.896 4.106" class="Vector 11"/>
          <path stroke="#000" d="M505.071 263.75l-1.679-7.982-7.185 1.569c-.283 4.595 2.818 14.527 17.484 17.498l.917-1.592c-3.073-.846-9.284-3.931-9.537-9.493z" class="Vector 11.4"/>
          <path stroke="#000" d="M510.552 261.036c-.906-1.371-1.126-3.613-1.122-4.562-1.483.26-4.765.483-6.037-.706l1.68 7.982c.8-.68 3.016-2.176 5.479-2.714z" class="Vector 11.3"/>
          <path stroke="#000" d="M509.429 256.473l22.477-4.595c-.233 1.283.448 2.92 1.226 4.227l-22.58 4.931c-.907-1.371-1.127-3.613-1.123-4.563z" class="Vector 11.2"/>
          <path stroke="#000" d="M572.013 249.639c1.721-3.412-.884-7.524-1.793-8.211l-37.752 9.319a2.154 2.154 0 00-.562 1.132c-.234 1.282.447 2.919 1.225 4.227.345.579.709 1.094 1.021 1.484l37.861-7.951z" class="Vector 11.1"/>
        </g>
        <g class="construction worker">
          <path stroke="#000" d="M634.083 259.609c-14.778-8.154-30.066 1.529-30.831 1.784-4.586 2.803-5.096 8.408-6.879 10.191-.806.806-6.37 4.332-7.389 5.096-1.02.765-.51 1.784.254 2.294.765.509.51.764-.254 2.293-.612 1.223-.255 2.888 0 3.567-2.039 0-1.529 1.784-1.529 2.548s-2.548 2.548-4.077 5.606c-1.529 3.057 9.428 7.898 12.485 11.72 2.446 3.058 22.083 1.274 31.595 0 .765-1.698 2.345-5.707 2.548-8.153.255-3.058 7.39-5.351 10.192-8.409 2.803-3.057 8.664-20.383-6.115-28.537z" class="Vector 5"/>
          <path stroke="#000" d="M579.21 314.332c3.991-4.416 18.498-3.159 20.129-3.567 2.038-.51-31.086-54.782-32.615-57.84-1.529-3.058-4.331-13.25-9.173-14.269-4.841-1.019-6.115 3.058-8.663 0s-4.077-1.274-4.077 0 1.274 5.861 3.568 7.644c2.293 1.784 7.134 12.74 9.937 12.486 2.242-.204.934-.255 0-.255.509 1.698 1.783 5.249 2.803 5.86 1.274.765 11.466 44.335 18.091 49.941zm-37.456 31.341c-3.313 7.559-9.479 23.085-7.644 24.715 2.293 2.039-45.1-15.033-48.667-21.658-3.822-2.548-9.173-1.274-11.976-3.822-2.803-2.548-7.134-.255-8.408-3.057-1.019-2.243-.425-4.842 0-5.861-.425-.934-.866-3.108.764-4.331 2.039-1.529-1.274-4.587 1.274-6.37.51-1.529-.764-3.313 2.803-4.332 3.567-1.019 9.428 2.038 10.956 1.019 1.529-1.019-1.528-12.995 3.058-13.759 4.587-.765 3.058 7.134 3.822 9.682.765 2.548 2.293 9.683 2.293 10.957 0 1.274 12.231 12.995 22.678 12.995 8.357 0 22.847 2.548 29.047 3.822z" class="Vector 6"/>
          <path stroke="#000" d="M614.555 302.037c2.492-.409 4.693-.662 6.443-.699 11.975-.255 6.115 3.567 9.173 6.88 3.057 3.312 15.288 14.778 17.836 24.206 2.548 9.427 14.778 47.392 14.778 50.705 0 3.312 3.058 55.546 1.529 56.566-1.529 1.019-75.676 2.293-77.46 0-1.783-2.294-2.548-17.327-4.841-22.932-2.293-5.606-11.975-42.552-10.701-51.98-9.088 4.332-29.302 12.333-37.456 9.683-8.154-2.65-8.493-3.313-7.644-3.313.085-8.493 1.733-25.989 7.644-28.028 7.389-2.548 4.332 3.313 15.798 0 11.466-3.312 16.816-10.447 20.893-11.975 4.077-1.529 4.841-13.505 6.115-16.562.816-2.447 1.189-3.058 1.274-3.058l.765-.243a404.767 404.767 0 0110.205-3.069m25.649-6.181c-8.333-2.608-24.449-2.624-25.649-5.824-1.5-4 .851 8.935 0 12.005m25.649-6.181c-7.381 1.211-17.317 3.79-25.649 6.181" class="Vector 7"/>
          <path stroke="#000" d="M581.758 359.432c-4.892 2.447-10.192 5.606-12.231 6.88 0 3.312 6.37 43.061 10.192 49.686s4.332 18.6 4.587 19.874c.255 1.274 6.115.51 8.153.51 10.702.51 70.325 9.682 73.128 3.312 2.803-6.37-.509-56.311-1.529-60.897-1.019-4.586-11.72-42.552-14.268-48.412-2.548-5.86-8.707-22.293-19.664-27.389-10.956-5.096-21.912-2.293-17.071-1.784 4.841.51 10.49 12.866 19.918 16.943 18.091 16.052 9.173 33.633 3.312 42.806-5.86 9.173-20.384 17.072-36.182 14.524-12.638-2.039-17.496-11.551-18.345-16.053z" class="Vector 9"/>
          <path stroke="#000" d="M605.454 265.173c-1.835 0-9.088-5.946-12.485-8.918 0-1.427 5.775-.255 8.663.509.595-.509 2.038-1.528 3.058-1.528 1.274 0 .764-1.529 9.172-6.625 8.409-5.096 21.658-4.332 32.87 7.644 11.211 11.975 3.312 27.263 2.038 29.047-1.274 1.783-1.274 2.293-1.019 4.077.255 1.783-2.293 1.528-1.019 3.312 1.274 1.784 1.019 2.803-1.274 2.803-1.835 0-16.902-12.91-24.206-19.365-5.861-16.052-13.505-10.956-15.798-10.956z" class="Vector 8"/>
        </g>
      </g>
    </g>
  </g>
</svg>
