<svg xmlns="http://www.w3.org/2000/svg" width="1152" height="700" fill="none" viewBox="0 0 1152 700">
  <g class="frame_five_one">
    <path fill="#fff" d="M0 0h1152v700H0z"/>
    <g class="Group 9">
      <path fill="#18357E" stroke="#000" d="M847 546.782c40-51.5 4-222 60.5-201 37 31.5-11 170-60.5 201z" class="Vector"/>
      <path fill="#fff" stroke="#000" d="M850 545.5c62.357-51.5 60.5-209 117.5-182 39 18.474-53 152.5-117.5 182z" class="Vector_2"/>
      <path fill="#18357E" stroke="#000" d="M863 539.5c48-45 79.5-154 122.5-123 24.97 17.999-41.5 86.5-122.5 123z" class="Vector_3"/>
    </g>
    <g class="Group 9.1">
      <path fill="#18357E" stroke="#000" d="M347.828 546.782c-40-51.5-4-222-60.5-201-37 31.5 11 170 60.5 201z" class="Vector_4"/>
      <path fill="#fff" stroke="#000" d="M344.828 545.5c-62.357-51.5-60.5-209-117.5-182-39 18.474 53 152.5 117.5 182z" class="Vector_5"/>
      <path fill="#18357E" stroke="#000" d="M331.828 539.5c-48-45-79.5-154-122.5-123-24.966 17.999 41.5 86.5 122.5 123z" class="Vector_6"/>
    </g>
    <path stroke="#000" stroke-linecap="round" stroke-width="3" d="M229 545h739" class="Vector_7"/>
    <g class="Group 8">
      <rect width="559" height="343" x="318.5" y="203.5" fill="#fff" stroke="#000" class="Rectangle" rx="30.5"/>
      <path fill="#000" fill-opacity=".01" stroke="#000" d="M344.754 204.25L598 418.345 851.246 204.25H344.754z" class="Polygon"/>
    </g>
    <path stroke="#fff" stroke-dasharray="10 10" stroke-width="3" d="M725.501 176c-5-28.5 3.838-56.255 73.5-39.5 78.999 19 75-18 111-55.5 28.8-30 71.5-23.5 93.499-11" class="Vector 2"/>
    <path stroke="#fff" stroke-dasharray="10 10" stroke-width="3" d="M756.5 186.5c12.5-22.517 21.497-39.272 91.159-22.517 78.999 19 75-18 111-55.5 28.8-30 71.501-23.5 93.501-11" class="Vector 2.1"/>
    <g class="Group 6.1">
      <g class="Group 5.1">
        <path fill="#fff" stroke="#000" stroke-width=".603" d="M766.512 234.932l-5.709-36.048-60.055 6.458 5.898 37.239 59.866-7.649z" class="Vector_8"/>
        <path fill="#000" fill-opacity=".1" d="M760.563 228.718l-14.642 1.4.263 3.721 14.694-1.696-.315-3.425z" class="Rectangle_2"/>
        <path fill="#000" fill-opacity=".1" d="M759.671 223.354l-14.642 1.399.263 3.722 14.694-1.697-.315-3.424z" class="Rectangle_3"/>
      </g>
      <g class="Group">
        <path fill="#fff" stroke="#000" stroke-width="1.207" d="M536.463 579.832l3.922-15.986 2.714-17.796 18.701 5.429-15.383 28.353h-9.954z" class="Vector 3"/>
        <path fill="#fff" stroke="#000" stroke-width="1.207" d="M450.499 523.729l-19.605 28.655 9.35 4.223 21.717-21.718-11.462-11.16z" class="Vector 3_2"/>
        <path fill="#fff" stroke="#000" stroke-width="1.207" d="M428.388 409.412c-6.756 1.207 8.044-18.399 16.288-28.353l5.22-6.033 7.239-15.684 8.748 3.619s-5.988 10.598-6.636 18.098c-.213 2.465 0 6.334 0 6.334-1.609 5.631-3.35 16.469-6.728 17.193-3.378.724-1.408-5.932 0-9.35-5.228 4.222-17.374 12.97-24.131 14.176z" class="Vector 2_2"/>
        <g class="Vector 4">
          <path fill="#fff" d="M565.584 249.093c0 8.041-5.291 19.251-5.291 19.251l-2.193 5.848 22.592 6.727c.325-1.3-2.956-8.482-1.397-12.575.65-3.124 2.469-6.192 2.859-7.122 5.354 1.546 8.772 4.685 12.427-3.878 3.655-8.563 11.453-43.096-7.31-41.39-21.443 1.949-21.687 25.098-21.687 33.139z"/>
          <path stroke="#000" stroke-width="1.207" d="M574.844 254.698c2.924 2.646 4.293 4.87 5.848 6.057.508.176.995.332 1.462.467m0 0c5.354 1.546 8.772 4.685 12.427-3.878 3.655-8.563 11.453-43.096-7.31-41.39-21.443 1.949-21.687 25.098-21.687 33.139 0 8.041-5.291 19.251-5.291 19.251l-2.193 5.848 22.592 6.727c.325-1.3-2.956-8.482-1.397-12.575.65-3.124 2.469-6.192 2.859-7.122z"/>
        </g>
        <path fill="#fff" stroke="#000" stroke-width="1.207" d="M493.029 462.499l3.318-70.581 47.959 22.019s2.376 41.197-13.272 61.833c-20.812 27.449-76.613 73.899-76.613 73.899l-15.082-15.986c2.896-11.1 37-52.081 53.69-71.184z" class="Vector 2_3"/>
        <path fill="#fff" stroke="#000" stroke-width="1.207" d="M550.037 486.629c-27.75-31.369-48.562-75.005-55.5-92.901v-16.892l68.771-10.858 8.144 33.481s16.288 66.056 16.288 87.17c0 29.064-26.845 77.217-26.845 77.217h-23.527l12.669-77.217z" class="Vector 2_4"/>
        <path fill="#fff" stroke="#000" stroke-width="1.207" d="M730.109 226.625c-1.931 2.172-6.033 15.081-10.859 21.114l-23.225 22.321 4.826 9.954 14.78-13.272 14.478-12.669c5.731-2.111 10.557-3.921 12.97-6.334 1.93-1.93 5.603-5.127 6.032-10.858.43-5.731 4.223-8.144 0-10.256-5.456-2.728-21.415 14.177-19.002 10.256 2.413-3.921 2.413-12.97 0-10.256z" class="Vector 2_5"/>
        <path fill="#18357E" fill-rule="evenodd" d="M591.141 203.714c7.742 4.436 14.992 13.438 2.727 24.137-16.083 14.031-16.428 14.981-18.404 20.437a81.988 81.988 0 01-1.579 4.093c-1.867 4.444-2.536 6.755-3.243 9.2-.659 2.276-1.351 4.667-3.075 9.004 3.68 1.645 6.444 1.077 9.424.465 1.644-.337 3.354-.688 5.32-.688 0 0 11.16-2.112 17.796 0 2.448.778 6.727 3.933 11.976 7.803 8.979 6.619 20.799 15.334 31.157 17.835 15.205 3.672 64.365-44.243 69.601-50.356.037.422.392 1.03.91 1.917v.001h.001c1.963 3.361 6.273 10.741 4.593 27.324-16.489 16.087-53.75 48.803-70.882 50.975-13.975 1.772-23.197.075-30.769-1.318-4.031-.741-7.594-1.397-11.158-1.397-7.234 0-13.268 16.211-17.571 27.774-1.797 4.828-3.292 8.845-4.447 10.533-3.922 5.731-6.335 14.177-6.033 26.845.302 12.669-4.826 14.478-11.16 11.462-2.993-1.425-5.851-.695-8.925.089-3.431.876-7.131 1.82-11.586-.089-4.192-1.796-4.52-3.073-4.856-4.382-.342-1.329-.692-2.692-5.098-4.667-6.998-3.137-31.269 1.307-42.529 3.921-8.649-7.001 5.225-39.249 16.728-61.24-.882.26-1.941.408-3.24.408-3.355 0-5.007-2.266-6.64-4.785-5.519 2.833-11.105 6.091-14.691 8.308L469.2 372.915c-6.756 1.689-18.298-4.725-23.225-8.144l20.812-49.467c2.136-2.204 4.881-4.664 8.084-7.279.126-1.909.088-3.861-.41-5.801-1.03-4.007-2.829-6.961-4.501-9.706-2.542-4.175-4.791-7.866-3.589-14.041 1.352-6.949 6.537-9.283 12.082-11.78 4.545-2.046 9.332-4.202 12.448-9.097 2.678-4.207 3.412-8.332 4.124-12.329.854-4.8 1.676-9.416 5.792-13.766 6.375-6.738 13.944-5.528 22.561-4.152 5.994.958 12.495 1.997 19.453.498 6.635-1.429 11.558-6.55 16.623-11.82 7.885-8.203 16.116-16.766 31.687-12.317zm121.7 41.93c.416-.486.554-.708.377-.619-.29.145-.402.342-.377.619zM536.179 574.705c-10.399 11.709-7.395 16.131-2.732 18.399l39.229 9.049c6.527-4.052-1.564-9.117-8.851-13.678-2.478-1.552-4.863-3.045-6.549-4.42-5.731-4.675-9.124-4.675-12.025-4.675-2.902 0-5.31 0-9.072-4.675zm-111.142-10.066c-4.033-3.258-5.966-8.242 6.801-17.313 2.613 5.402 4.96 5.944 7.787 6.596 2.827.653 6.133 1.416 10.666 7.261 1.333 1.719 3.321 3.71 5.387 5.779 6.074 6.085 12.818 12.84 5.547 15.319l-36.188-17.642z" class="Union" clip-rule="evenodd"/>
        <path fill="#000" fill-opacity=".33" d="M593.868 227.851c12.265-10.699 5.015-19.701-2.727-24.137-25.573-7.307-31.347 20.484-48.31 24.137-16.962 3.654-31.205-7.771-42.014 3.654-7.543 7.972-4.022 16.836-9.916 26.095-6.918 10.867-22.069 8.233-24.53 20.877-1.992 10.235 5.495 13.647 8.09 23.747 2.026 7.887-3.55 15.959 3.131 20.615 5.267 3.671 10.409-2.2 16.44 0 6.179 2.255 6.21 10.961 12.787 10.961 10.888 0 4.886-10.334 19.5-10.961 14.614-.626 5.565-20.615 16.512-20.615 13.57 0 15.412-10.575 20.094-20.877 9.134-20.093 6.276-17.815 10.96-28.966 4.08-9.712.591-7.613 19.983-24.53z" class="Vector 2.2"/>
      </g>
    </g>
  </g>
</svg>
