<svg xmlns="http://www.w3.org/2000/svg" width="1152" height="700" fill="none" viewBox="0 0 1152 700">
  <g class="frame_five">
    <path fill="#fff" d="M0 0h1152v700H0z"/>
    <g class="Group 9">
      <path fill="#18357E" stroke="#000" d="M847 546.782c40-51.5 4-222 60.5-201 37 31.5-11 170-60.5 201z" class="Vector"/>
      <path fill="#fff" stroke="#000" d="M850 545.5c62.357-51.5 60.5-209 117.5-182 39 18.474-53 152.5-117.5 182z" class="Vector_2"/>
      <path fill="#18357E" stroke="#000" d="M863 539.5c48-45 79.5-154 122.5-123 24.97 17.999-41.5 86.5-122.5 123z" class="Vector_3"/>
    </g>
    <g class="Group 9.1">
      <path fill="#18357E" stroke="#000" d="M347.828 546.782c-40-51.5-4-222-60.5-201-37 31.5 11 170 60.5 201z" class="Vector_4"/>
      <path fill="#fff" stroke="#000" d="M344.828 545.5c-62.357-51.5-60.5-209-117.5-182-39 18.474 53 152.5 117.5 182z" class="Vector_5"/>
      <path fill="#18357E" stroke="#000" d="M331.828 539.5c-48-45-79.5-154-122.5-123-24.966 17.999 41.5 86.5 122.5 123z" class="Vector_6"/>
    </g>
    <path stroke="#000" stroke-linecap="round" stroke-width="3" d="M229 545h739" class="Vector_7"/>
    <g class="Group 8">
      <rect width="559" height="343" x="318.5" y="203.5" fill="#fff" stroke="#000" class="Rectangle" rx="30.5"/>
      <path fill="#000" fill-opacity=".01" stroke="#000" d="M344.754 204.25L598 418.345 851.246 204.25H344.754z" class="Polygon"/>
    </g>
    <g class="Group 7.1">
      <g class="Group">
        <path fill="#fff" stroke="#000" stroke-width="1.237" d="M509.378 579.224l4.021-16.394 2.784-18.249 19.177 5.568-15.775 29.075h-10.207z" class="Vector 3"/>
        <path fill="#fff" stroke="#000" stroke-width="1.237" d="M421.225 521.692l-20.105 29.385 9.589 4.33 22.27-22.27-11.754-11.445z" class="Vector 3_2"/>
        <path fill="#fff" stroke="#000" stroke-width="1.237" d="M398.551 404.464c-6.929 1.237 8.248-18.868 16.702-29.075l5.353-6.186 7.424-16.084 8.97 3.712s-6.14 10.868-6.805 18.558c-.219 2.528 0 6.496 0 6.496-1.65 5.774-3.435 16.888-6.9 17.63-3.464.743-1.443-6.083 0-9.588-5.361 4.33-17.816 13.3-24.744 14.537z" class="Vector 2"/>
        <g class="Vector 4">
          <path fill="#fff" d="M539.239 240.064c0 8.246-5.426 19.74-5.426 19.74l-2.249 5.997 23.168 6.899c.333-1.333-3.032-8.698-1.432-12.896.666-3.203 2.531-6.349 2.931-7.303 5.49 1.586 8.996 4.805 12.744-3.976 3.748-8.781 11.744-44.194-7.497-42.444-21.989 1.999-22.239 25.737-22.239 33.983z"/>
          <path stroke="#000" stroke-width="1.237" d="M548.735 245.811c2.998 2.714 4.402 4.994 5.997 6.212.521.18 1.02.34 1.499.478m0 0c5.49 1.586 8.996 4.805 12.744-3.976 3.748-8.781 11.744-44.194-7.497-42.444-21.989 1.999-22.239 25.737-22.239 33.983 0 8.246-5.426 19.74-5.426 19.74l-2.249 5.997 23.168 6.899c.333-1.333-3.032-8.698-1.432-12.896.666-3.203 2.531-6.349 2.931-7.303z"/>
        </g>
        <path fill="#fff" stroke="#000" stroke-width="1.237" d="M464.838 458.902l3.402-72.378 49.18 22.58s2.436 42.246-13.61 63.408c-21.342 28.147-78.564 75.78-78.564 75.78l-15.465-16.393c2.969-11.382 37.942-53.407 55.057-72.997z" class="Vector 2_2"/>
        <path fill="#fff" stroke="#000" stroke-width="1.237" d="M523.296 483.647c-28.456-32.168-49.798-76.914-56.912-95.266v-17.322l70.522-11.135 8.351 34.333s16.703 67.739 16.703 89.39c0 29.805-27.528 79.183-27.528 79.183h-24.126l12.99-79.183z" class="Vector 2_3"/>
        <path fill="#fff" stroke="#000" stroke-width="1.237" d="M707.953 217.024c-1.979 2.227-6.186 15.465-11.135 21.651l-23.817 22.889 4.949 10.207 15.156-13.609 14.847-12.991c5.877-2.165 10.826-4.022 13.3-6.496 1.98-1.979 5.746-5.258 6.187-11.135.44-5.876 4.33-8.351 0-10.516-5.595-2.798-21.961 14.537-19.487 10.516 2.475-4.021 2.475-13.3 0-10.516z" class="Vector 2_4"/>
        <path fill="#18357E" fill-rule="evenodd" d="M537.49 240.814c1.499 2.748 4.298 4.947 5.497 2.748.556-1.019.734-3.547.929-6.314.331-4.699.71-10.085 3.069-9.928 2.322.155 3.589 2.514 4.573 4.347.605 1.127 1.103 2.055 1.674 2.15.506.084.5-1.542.49-3.829-.019-4.484-.048-11.508 3.758-13.163 2.467-1.072 5.946-.948 9.193-.832 4.319.154 8.228.294 8.798-2.416.437-2.075 2.31-2.772 4.55-3.606 2.886-1.075 6.379-2.375 8.194-7.139 3.998-10.495-11.494-13.493-14.243-7.496-2.749 5.997-16.242 7.496-19.49 7.496-3.249 0-10.354 4.126-12.744 11.495-2.999 9.245-6.247 19.74-4.248 26.487zm-49.455 75.188c-11.959 20.93-33.281 64.893-22.888 73.306 11.547-2.68 36.436-7.237 43.612-4.021 4.518 2.026 4.877 3.423 5.227 4.786.345 1.343.682 2.651 4.98 4.494 4.569 1.958 8.363.989 11.882.091 3.151-.805 6.082-1.553 9.151-.091 6.496 3.093 11.754 1.237 11.445-11.754-.31-12.991 2.165-21.652 6.186-27.528 1.184-1.732 2.718-5.851 4.56-10.802 4.413-11.857 10.601-28.481 18.019-28.481 3.654 0 7.308.673 11.442 1.433 7.764 1.428 17.221 3.168 31.552 1.351 17.569-2.227 55.779-35.776 72.687-52.273 1.722-17.005-2.697-24.573-4.71-28.019-.532-.911-.896-1.534-.934-1.968.426-.498.568-.725.386-.634-.297.148-.412.351-.386.634-5.369 6.27-55.781 55.405-71.373 51.639-10.622-2.565-22.743-11.501-31.951-18.29-5.382-3.968-9.77-7.203-12.28-8.001-6.805-2.166-18.249 0-18.249 0-2.016 0-3.77.36-5.456.706-4.524.929-8.564 1.759-15.887-4.727-10.825-9.589-77.945 30.312-97.122 50.108l-21.343 50.726c5.052 3.506 16.889 10.083 23.817 8.351l16.703-36.498c7.835-4.846 24.992-14.538 30.93-14.538zm19.877 277.664c-5.139-1.37-9.027-5.233-.851-19.055 4.701 3.97 7.126 3.498 10.046 2.931 2.921-.568 6.337-1.232 13.02 2.353 1.966 1.054 4.66 2.091 7.458 3.167 8.228 3.166 17.363 6.681 11.585 12.037l-41.258-1.433zM402.088 545.89c-13.091 9.301-11.11 14.412-6.973 17.754l37.108 18.09c7.457-2.542.541-9.469-5.688-15.708-2.118-2.122-4.157-4.164-5.524-5.927-4.648-5.993-8.038-6.776-10.937-7.445-2.899-.669-5.306-1.225-7.986-6.764z" class="Union" clip-rule="evenodd"/>
      </g>
      <g class="Group 5">
        <path fill="#fff" stroke="#000" stroke-width=".619" d="M689.659 217.415l9.604-27.893a4 4 0 014.894-2.54l51.804 14.989a4 4 0 012.67 5.145l-9.955 28.911a4 4 0 01-4.97 2.517l-51.453-16.008a3.998 3.998 0 01-2.594-5.121z" class="Vector_8"/>
        <path fill="#000" fill-opacity=".1" d="M695.431 216.096l14.538 4.021-.928 3.711-14.538-4.33.928-3.402z" class="Rectangle_2"/>
        <path fill="#000" fill-opacity=".1" d="M697.287 210.838l14.538 4.021-.928 3.712-14.538-4.331.928-3.402z" class="Rectangle_3"/>
      </g>
    </g>
    <path stroke="#fff" stroke-dasharray="10 10" stroke-width="3" d="M725.501 176c-5-28.5 3.838-56.255 73.5-39.5 78.999 19 75-18 111-55.5 28.8-30 71.5-23.5 93.499-11" class="Vector 2_5"/>
    <path stroke="#fff" stroke-dasharray="10 10" stroke-width="3" d="M756.5 186.5c12.5-22.517 21.497-39.272 91.159-22.517 78.999 19 75-18 111-55.5 28.8-30 71.501-23.5 93.501-11" class="Vector 2.1"/>
  </g>
</svg>
