<svg xmlns="http://www.w3.org/2000/svg" width="1152" height="700" fill="none" viewBox="0 0 1152 700">
  <g class="goals_charts">
    <path fill="#fff" d="M0 0h1152v700H0z"/>
    <path fill="#ECE6E6" d="M362.309 209.51C355.909 105.91 439.667 44.5 515 45.5c343.5 27 366.058 225.718 351.31 362.509-20.001 185.5-126.501-23-141.501 156.501-15.099 180.685-337.5 105.499-388.5 51.499-75-79.411 64-114.5-24-175.5s58-101.499 50-230.999z" class="Vector"/>
    <g class="Group 3.1">
      <path fill="#B6C7E5" d="M291.836 139.876c-9.385 1.524-18.51 16.417-21.899 23.673-1.9 2.298-5.827 5.221-6.333-1.465-.633-8.357-6.998-18.554-12.244-20.281-2.002 5.695-4.634 17.814.851 20.725 6.856 3.639 12.432 17.246 4.827 12.407-7.605-4.838-9.135-15.97-27.948-16.73.715 5.982 5.647 19.987 19.66 28.156 17.515 10.211 12.505 21.369 3.402 14.131-9.103-7.238-16.704-18.748-34.43-19.77.421 7.796 3.997 24.43 14.937 28.603 13.677 5.217 35.107 16.847 30.344 21.903-4.762 5.057-26.261-17.366-37.578-19.471-9.053-1.684-15.439-2.032-17.5-1.996.583 7.833 6.185 24.731 23.931 29.658 22.183 6.158 42.228 14.901 34.692 20.856-7.536 5.954-20.154-14.927-39.004-17.748-15.079-2.257-18.325-.647-18.064.439 1.046 6.572 8.421 20.835 29.556 25.313 26.417 5.599 35.633 12.35 30.758 17.894-4.875 5.544-19.852-18.45-51.898-13.033 2.182 6.834 10.077 21.217 24.197 24.073 17.649 3.57 42.791 12.466 37.353 20.445-5.439 7.98-22.554-13.429-40.992-13.589-14.751-.128-14.866.667-13.08 1.08.022 5.821 3.647 18.395 17.976 22.121 17.912 4.657 51.186 13.894 47.132 24.76-4.053 10.866-15.512-6.154-26.901-12.382-9.112-4.982-23.832-5.684-30.053-5.413 2.144 6.997 9.379 21.569 21.161 23.884 14.726 2.894 47.848 17.229 46.27 24.048-1.578 6.82-15.814-2.632-24.018-7.096-8.205-4.464-20.344-11.891-33.162-9.725-.291 6.434 3.414 20.292 20.561 24.259 21.434 4.959 40.171 8.267 38.142 17.036-2.028 8.768-7.267-6.301-24.506-7.21-13.79-.727-20.687.689-22.411 1.487 1.508 5.31 7.561 16.119 19.703 16.876 15.178.945 37.662 3.581 34.885 11.149-2.778 7.569-14.651-5.442-22.896-5.297-6.596.117-14.541.742-17.689 1.04.497 5.247 7.771 15.655 32.896 15.309 4.534.364 13.086 2.001 11.015 5.627-2.589 4.533-18.886-4.882-25.146-2.225.298 3.148 2.956 9.408 11.201 9.263 8.245-.145 18.522 7.193 22.63 10.881.547-2.268 2.446-7.646 5.66-11.008 1.803-3.788 5.165-8.176 10.204-10.982 12.371-6.889 15.752-21.503 12.342-22.292-3.41-.789-14.999 16.032-18.783 14.643-3.785-1.389 4.053-10.866 12.302-17.682 6.598-5.453 8.98-20.333 9.346-27.091-3.911 2.859-12.455 10.36-15.337 17.493l-.21.52c-3.494 8.652-6.033 14.942-10.478 12.404-4.534-2.588 6.006-17.086 15.756-28.174 7.8-8.87 8.208-25.129 7.438-32.15-2.912 2.234-9.831 7.887-14.211 12.621-5.475 5.919-10.095 25.891-14.178 21.354-4.082-4.537 10.881-22.63 22.132-37.989 9.001-12.287 6.111-27.155 3.541-33.052-3.524 1.922-10.85 7.856-11.964 16.22-1.392 10.456-13.062 36.495-18.867 30.534-5.806-5.962 15.872-35.332 21.725-47.321 4.682-9.592 1.386-22.261-.847-27.396-4.799 2.995-9.299 9.139-13.389 17.944-4.09 8.804-12.611 34.546-19.315 25.81-6.703-8.735 15.796-32.783 25.546-43.871 7.8-8.87 6.91-25.43 5.489-32.601-3.973 1.646-16.871 13.032-20.361 21.463-3.49 8.43-14.258 30.573-18.301 21.426-4.042-9.146 19.468-30.907 28.244-42.22 7.02-9.051 6.984-25.756 6.089-32.977-15.708 10.223-22.161 22.587-23.852 29.894-1.69 7.307-13.545 29.711-17.402 24.2-3.857-5.511 11.56-32.224 23.183-40.312 9.297-6.471 12.33-22.979 12.683-30.424-2.173.523-22.568 13.254-23.92 19.1-1.352 5.845-5.929 14.537-12.829 22.179-6.9 7.641-6.475-16.381 14.181-28.025 16.525-9.315 20.666-29.433 20.671-38.327-33.103 21.081-18.079 27.123-35.248 37.008-17.17 9.884-4.715-12.895 11.142-21.543 12.686-6.919 18.366-26.886 19.62-36.005-12.404-1.843-25.873 25.32-36.183 32.173-10.309 6.852-8.764-8.7 8.031-19.184 13.436-8.387 17.503-25.374 17.857-32.819-9.445.894-16.345 8.535-24.822 22.997-8.478 14.461-12.557 3.253-3.632-6.486 7.14-7.791 10.054-19.057 10.619-23.717z" class="Vector 3"/>
      <path fill="#DAE4FA" d="M285.862 303.233c30.947 83.628 35.044 130.251 36.302 160.308.547-2.268 2.446-7.646 5.66-11.008 1.803-3.788 5.165-8.176 10.204-10.982 12.371-6.889 15.752-21.503 12.342-22.292-3.41-.789-14.999 16.032-18.783 14.643-3.785-1.389 4.053-10.866 12.302-17.682 6.598-5.453 8.98-20.333 9.346-27.091-3.911 2.859-12.455 10.36-15.337 17.493l-.21.52c-3.494 8.652-6.033 14.942-10.478 12.404-4.534-2.588 6.006-17.086 15.756-28.174 7.8-8.87 8.208-25.129 7.438-32.15-2.912 2.234-9.831 7.887-14.211 12.621-5.475 5.919-10.095 25.891-14.178 21.354-4.082-4.537 10.881-22.63 22.132-37.989 9.001-12.287 6.111-27.155 3.541-33.052-3.524 1.922-10.85 7.856-11.964 16.22-1.392 10.456-13.062 36.495-18.867 30.534-5.806-5.962 15.872-35.332 21.725-47.321 4.682-9.592 1.386-22.261-.847-27.396-4.799 2.995-9.299 9.139-13.389 17.944-4.09 8.804-12.611 34.546-19.315 25.81-6.703-8.735 15.796-32.783 25.546-43.871 7.8-8.87 6.91-25.43 5.489-32.601-3.973 1.646-16.871 13.032-20.361 21.463-3.49 8.43-14.258 30.573-18.301 21.426-4.042-9.146 19.468-30.907 28.244-42.22 7.02-9.051 6.984-25.756 6.089-32.977-15.708 10.223-22.161 22.587-23.852 29.894-1.69 7.307-13.545 29.711-17.402 24.2-3.857-5.511 11.56-32.224 23.183-40.312 9.297-6.471 12.33-22.979 12.683-30.424-2.173.523-22.568 13.254-23.92 19.1-1.352 5.845-5.929 14.537-12.829 22.179-6.9 7.641-6.475-16.381 14.181-28.025 16.525-9.315 20.666-29.433 20.671-38.327-33.103 21.081-18.079 27.123-35.248 37.008-17.17 9.884-4.715-12.895 11.142-21.543 12.686-6.919 18.366-26.886 19.62-36.005-12.404-1.843-25.873 25.32-36.183 32.173-10.309 6.852-8.764-8.7 8.031-19.184 13.436-8.387 17.503-25.374 17.857-32.819-9.445.894-16.345 8.535-24.822 22.997-8.478 14.461-12.557 3.253-3.632-6.486 7.14-7.791 10.054-19.057 10.619-23.717-9.385 1.524-18.51 16.417-21.899 23.673-5.007 18.686-8.832 72.783 15.925 139.684z" class="Vector 3.1"/>
    </g>
    <path fill="#B7CFFD" d="M317.644 555.126c13.71-3.517 24.004-6.107 36.143 4.278-12.627 2.405-32.177 5.842-49.943 8.368-12.266 10.189-38.377 30.7-44.685 31.228 6.937-5.719 20.769-19.402 20.592-28.377-7.133.587-12.642.676-15.335 0 1.448-2.364 7.687-7.043 21.685-9.787 8.543-8.836 28.389-25.585 39.429-21.89l1.314-2.64c-15.552 1.32-51.783 9.899-72.285 33.657 1.023-6.819 7.494-22.438 25.192-30.357 17.697-7.919 33.512-9.459 39.208-9.239-8.981-1.32-31.28-2.244-48.629 4.62-21.686 8.579-29.571 10.558-51.257 51.474-1.314-13.418.131-42.235 16.428-50.155 20.372-9.899 50.6-15.178 75.572-10.559-28.476-7.919-87.4-28.245-95.286-46.195 3.067.22 13.406 2.508 30.229 9.899 16.823 7.391 42.495 21.118 53.228 27.057-10.733-7.259-33.383-24.813-38.114-36.956-4.731-12.143-21.686-56.094-29.571-76.552 12.047 10.779 38.64 39.728 48.628 69.293 9.989 29.565 21.686 38.276 26.286 38.936-5.257-23.538-14.326-75.628-8.543-95.69 4.819 19.138 14.589 64.805 15.114 94.37.438 4.18 2.892 13.595 9.2 17.818-3.285-17.158-6.965-55.566 4.6-71.932 1.315 14.738 3.549 46.987 1.972 58.074-1.972 13.858 5.257 27.717 5.914 25.077.657-2.64-5.914-50.155 6.571-80.512 3.943 21.884 10.252 68.756 3.943 81.172-1.314 1.32-3.154 4.884 0 8.579 3.155 3.696-3.943-.66-7.885-3.299-6.353 1.987-19.189 6.818-19.715 10.24z" class="Vector 3.1_2"/>
    <g class="Mask Group">
      <g class="Group">
        <g class="board">
          <path fill="#B6C7E5" d="M449 428.64L819.351 656 835 637.707V291.44L467.257 68 449 71.92v356.72z" class="Vector_2"/>
          <path fill="#4B5361" d="M819.352 656V296.667L449 71.92v356.72L819.352 656z" class="color 1"/>
        </g>
        <g class="pie chart">
          <path fill="#6B81AC" d="M613.419 426.658c-2.224-10.243-3.42-20.761-3.42-31.297 0-12.684.546-24.102 1.797-34.277l83.212 52.161-81.589 13.413z" class="Ellipse"/>
          <path fill="#B6C7E5" d="M623.083 456.464l71.925-43.219-81.589 13.413a158.378 158.378 0 009.664 29.806z" class="Ellipse_2"/>
          <path fill="#B7CFFD" d="M678.603 297c5.514 0 11 .763 16.405 2.205v114.04l-83.212-52.161C617.124 317.78 635.25 297 678.603 297z" class="Ellipse_3"/>
          <path fill="#fff" d="M783 435.6c0 66.67-18.048 92.4-71.586 92.4-36.57 0-70.497-30.778-88.33-71.535l71.925-43.22v-114.04C742.079 311.762 783 375.797 783 435.6z" class="Ellipse_4"/>
        </g>
        <g class="bar charts">
          <g class="Group_2">
            <path fill="#F0EFEC" d="M559.206 456.2l9.149 3.922V233.998l-9.149-3.921V456.2z" class="Vector 2"/>
            <path fill="#F0EFEC" d="M535.679 435.287l9.149 3.921V312.422l-9.149-3.921v126.786z" class="Vector 2.1"/>
            <path fill="#F0EFEC" d="M488.624 393.461l9.149 3.921V241.84l-9.149-3.921v155.542z" class="Vector 2.3"/>
            <path fill="#F0EFEC" d="M512.151 414.374l9.15 3.921V233.998l-9.15-3.921v184.297z" class="Vector 2.2"/>
          </g>
          <g class="Group_3">
            <path fill="#B7CFFD" d="M559.206 456.2l9.149 3.922v-83.653l-9.149-3.921V456.2z" class="Vector 2_2"/>
            <path fill="#B7CFFD" d="M535.679 435.287l9.149 3.922v-41.827l-9.149-3.921v41.826z" class="Vector 2.1_2"/>
            <path fill="#B7CFFD" d="M488.624 393.461l9.149 3.921V313.73l-9.149-3.922v83.653z" class="Vector 2.3_2"/>
            <path fill="#B7CFFD" d="M512.151 414.374l9.15 3.921V309.808l-9.15-3.921v108.487z" class="Vector 2.2_2"/>
          </g>
        </g>
        <g class="floating">
          <path fill="#B7CFFD" d="M504 233v-78.082L318 43v75.48L504 233z" class="Vector_3"/>
          <path fill="#fff" d="M448 157v-11.108L329 74v8.494L448 157z" class="Vector_4"/>
          <path fill="#fff" d="M446 177v-6.882L325 98v4.26L446 177z" class="Vector_5"/>
          <ellipse fill="#FFCB56" class="Ellipse 2" rx="19" ry="20.5" transform="matrix(-1 0 0 1 472 179.5)"/>
        </g>
        <g class="tick box">
          <path fill="#fff" stroke="#6B81AC" stroke-width="3" d="M644 208v-48.868L606 138v47.547L644 208z" class="Vector 2_3"/>
          <path fill="#FFCB56" d="M618.87 188L633 176.505 629 168l-10.13 8.505L575.536 97 568 101.789 618.87 188z" class="Vector 3_2"/>
        </g>
        <g class="man">
          <path fill="#4B5361" d="M343.384 370.501c0 2.487 3.627 1.036 5.44 0 1.814-2.073 5.596-7.15 6.218-10.881.777-4.663-3.109-3.886-1.555-6.217 1.555-2.332 6.289-5.854 5.512-14.403-.777-8.549-3.957-6.158-6.289-6.158-2.331 0 0 3.886-5.44 3.886s-3.886 3.886-3.886 7.772-3.776-3.109-6.885 0-7.615 5.261-3.5 8.903c3.5 3.097 3 4.097 6.499 9.326 2.629 3.929 3.886 4.663 3.886 7.772z" class="Vector 8"/>
          <g class="Vector 7">
            <path fill="#8A6564" d="M428.875 334.75c-3.73 8.083-26.424 24.093-37.305 31.088-4.352 8.704 1.814 11.917 5.441 12.435 28.756-13.213 34.196-38.86 38.082-39.637 3.886-.777 6.994-6.995 6.994-10.88 0-3.886 3.109-6.218 4.664-12.435 1.554-6.218-4.664-6.218-4.664-3.886 0 2.331-8.549 13.212-13.212 23.315zM316.183 424.904c-1.243-3.109 4.145-11.14 6.995-14.767 7.461 0 13.989 9.845 16.321 14.767-.259 3.109-1.555 9.326-4.663 9.326-3.886 0-17.098-5.44-18.653-9.326zM363.592 364.283c0 3.109-3.627 8.549-5.441 10.881-.777 1.041-10.88 0-10.88-2.332 0-2.331 7.772-12.435 5.44-14.766-2.332-2.332-3.886-4.663-3.109-6.995.622-1.865 2.332-1.813 3.109-1.554 0-6.218 1.554-7.254 2.332-6.995 5.44 1.554 8.549 17.875 8.549 21.761z"/>
          </g>
          <path fill="#4B5361" d="M380.691 616.755c-3.109-3.731-.778-10.881.777-13.99 5.44 6.218 5.44 0 10.88 0 5.441 0 17.098 4.663 17.098 6.995s-24.87 11.658-28.755 6.995z" class="Vector 6"/>
          <path fill="#4B5361" d="M337.167 602.765c-3.73-3.108-1.554-8.549 0-10.88 4.663 6.217 4.663 2.331 12.435-1.554 6.218-3.109 8.808-1.296 9.326 0-.777 5.44-17.098 16.32-21.761 12.434z" class="Vector 5"/>
          <path fill="#CDD6E6" d="M326.287 469.98c-3.108-8.082.26-19.947 2.332-24.87.918-2.487 27.843 2.073 41.191 4.664 10.103 6.217 37.305 73.055 40.414 76.164 2.487 2.487-8.29 52.33-13.99 76.941-5.596 1.866-13.73-1.813-17.098-3.886-1.243-6.217 5.181-47.149 8.549-66.838-6.839-6.839-19.429-26.165-24.87-34.973 6.218 10.103 5.441 29.533 5.441 38.859 0 7.461-10.881 39.896-16.321 55.18-6.218 3.109-13.472.26-16.321-1.554 0-5.44 10.88-48.963 11.657-61.398.778-12.435-17.098-48.185-20.984-58.289z" class="Vector 4"/>
          <path fill="url(#paint0_linear)" d="M324.733 400.034c0-13.057 15.544-23.575 23.316-27.202 7.975-4.663 13.989 6.218 22.538 0 6.839-4.974 18.393-9.844 23.316-11.657l4.663 22.538-12.435 12.435c0 11.658-6.995 42.745-15.544 52.071-6.839 7.461-30.828 1.037-41.968-3.108 4.461-15.615 3.765-22.871 1.825-27.979l-12.706-6.218 6.995-10.88z" class="color 2"/>
        </g>
        <g class="plant">
          <g class="Vector 5_2">
            <path fill="#FFCB56" d="M668.195 624.018c-8.526-4.264-26.492-15.713-30.146-27.406 7.917 4.872 25.03 17.174 30.146 27.406zM672.763 621.277c-14.617-15.53-44.032-48.051-44.763-53.898 9.135 1.523 30.877 14.434 44.763 53.898-3.35-15.53-12.79-50.061-23.752-63.947 6.395 2.436 20.098 9.684 23.752 19.184 3.654 9.501 1.522 33.801 0 44.763z"/>
          </g>
          <path fill="#8A6564" d="M691.033 624.931c-.609 8.831-3.655 27.04-10.963 29.233-9.135 2.741-14.616-1.827-14.616-5.481 0-2.923-1.827-17.053-2.741-23.752-.913-.913-2.375-3.289-.913-5.481 8.831.609 27.04 1.462 29.233 0 2.74-1.827 1.827 4.954 0 5.481z" class="Vector 3_3"/>
          <g class="Vector 4_2">
            <path fill="#FADB96" d="M677.331 623.104c-9.44-16.139-28.319-50.609-28.319-59.379 11.267 7.004 32.704 28.685 28.319 59.379zM720.267 604.833c-29.233.731-36.541 12.485-36.541 18.271-.604-3.621-.665-6.97-.283-10.049-5.996-14.616-14.882-46.772-2.458-58.465a35.042 35.042 0 012.458-2.11c-2.647-11.782-2.275-37.172 20.38-44.48-5.786 6.09-16.809 20.098-14.616 27.406 2.74-5.481 10.231-15.53 18.27-11.876-4.872 2.446-14.616 8.976-14.616 15.53 3.958-3.959 14.982-10.414 27.406-4.568-9.44 1.199-28.137 5.428-27.406 12.76 12.99-4.762 26.015-.924 27.406 1.857-10.847-.305-33.397 1.827-36.824 12.789 10.752-5.177 35.727-12.789 49.613-1.827-17.357.304-52.071 4.567-52.071 19.184 17.052-7.004 57.369-18.088 82.217-6.395-26.681-1.218-79.986 5.116-79.759 40.195 2.508-20.224 24.138-28.75 36.824-25.578 11.693 2.923 33.495 3.654 42.935 3.654-2.131 4.263-13.703 12.972-42.935 13.702z"/>
          </g>
        </g>
      </g>
    </g>
  </g>
  <defs>
    <linearGradient id="paint0_linear" x1="358.152" x2="358.001" y1="361.175" y2="489" class="paint0_linear" gradientUnits="userSpaceOnUse">
      <stop stop-color="#EE7E79"/>
      <stop offset="1" stop-color="#EE7E79"/>
    </linearGradient>
  </defs>
</svg>
