<svg xmlns="http://www.w3.org/2000/svg" width="1152" height="700" fill="none" viewBox="0 0 1152 700">
  <g class="goalss_charts">
    <path fill="#fff" d="M0 0h1152v700H0z"/>
    <g class="Body Parts">
      <path fill="#8A6564" d="M428.875 334.75c-3.73 8.083-26.424 24.093-37.305 31.088-4.352 8.704 1.814 11.917 5.441 12.435 28.756-13.213 34.196-38.86 38.082-39.637 3.886-.777 6.994-6.995 6.994-10.88 0-3.886 3.109-6.218 4.664-12.435 1.554-6.218-4.664-6.218-4.664-3.886 0 2.331-8.549 13.212-13.212 23.315zM316.183 424.904c-1.243-3.109 4.145-11.14 6.995-14.767 7.461 0 13.989 9.845 16.321 14.767-.259 3.109-1.555 9.326-4.663 9.326-3.886 0-17.098-5.44-18.653-9.326zM363.592 364.283c0 3.109-3.627 8.549-5.441 10.881-.777 1.041-10.88 0-10.88-2.332 0-2.331 7.772-12.435 5.44-14.766-2.332-2.332-3.886-4.663-3.109-6.995.622-1.865 2.332-1.813 3.109-1.554 0-6.218 1.554-7.254 2.332-6.995 5.44 1.554 8.549 17.875 8.549 21.761z"/>
    </g>
    <path fill="#2BFFB2" fill-rule="evenodd" d="M449.001 121.824L318.001 43v75.48l131 80.656V428.64L819.352 656l15.649-18.293V291.44l-191-116.051v-16.257l-38-21.132v14.3l-.484-.294L575.537 97l-7.536 4.789 25.224 42.748L467.257 68l-18.256 3.92v49.904zM348.049 372.832c-7.772 3.627-23.316 14.145-23.316 27.202l-6.995 10.88 12.706 6.218c1.94 5.108 2.636 12.364-1.825 27.979 11.14 4.145 35.129 12.85 41.968 5.389 8.549-9.326 15.544-42.694 15.544-54.352l12.435-12.435-4.663-22.538c-4.923 1.813-16.477 6.683-23.316 11.657-4.495 3.27-8.29 1.812-12.037.372-3.379-1.299-6.72-2.583-10.501-.372z" class="Primary" clip-rule="evenodd"/>
    <g class="board">
      <path fill="#fff" fill-opacity=".1" d="M449 428.64L819.351 656 835 637.707V291.44L467.257 68 449 71.92v356.72z" class="Vector"/>
      <path fill="#000" fill-opacity=".2" d="M819.352 656V296.667L449 71.92v356.72L819.352 656z" class="color 1"/>
    </g>
    <g class="pie chart">
      <path fill="#6B81AC" fill-opacity=".5" d="M613.419 426.658c-2.224-10.243-3.42-20.761-3.42-31.297 0-12.684.546-24.102 1.797-34.277l83.212 52.161-81.589 13.413z" class="Ellipse"/>
      <path fill="#B6C7E5" fill-opacity=".5" d="M623.083 456.464l71.925-43.219-81.589 13.413a158.378 158.378 0 009.664 29.806z" class="Ellipse_2"/>
      <path fill="#B7CFFD" fill-opacity=".5" d="M678.603 297c5.514 0 11 .763 16.405 2.205v114.04l-83.212-52.161C617.124 317.78 635.25 297 678.603 297z" class="Ellipse_3"/>
      <path fill="#fff" fill-opacity=".5" d="M783 435.6c0 66.67-18.048 92.4-71.586 92.4-36.57 0-70.497-30.778-88.33-71.535l71.925-43.22v-114.04C742.079 311.762 783 375.797 783 435.6z" class="Ellipse_4"/>
    </g>
    <g class="bar charts">
      <g class="Group">
        <path fill="#F0EFEC" fill-opacity=".5" d="M559.206 456.2l9.149 3.922V233.998l-9.149-3.921V456.2z" class="Vector 2"/>
        <path fill="#F0EFEC" fill-opacity=".5" d="M535.679 435.287l9.149 3.921V312.422l-9.149-3.921v126.786z" class="Vector 2.1"/>
        <path fill="#F0EFEC" fill-opacity=".5" d="M488.624 393.461l9.149 3.921V241.84l-9.149-3.921v155.542z" class="Vector 2.3"/>
        <path fill="#F0EFEC" fill-opacity=".5" d="M512.151 414.374l9.15 3.921V233.998l-9.15-3.921v184.297z" class="Vector 2.2"/>
      </g>
      <g class="Group_2">
        <path fill="#B7CFFD" d="M559.206 456.2l9.149 3.922v-83.653l-9.149-3.921V456.2z" class="Vector 2_2"/>
        <path fill="#B7CFFD" d="M535.679 435.287l9.149 3.922v-41.827l-9.149-3.921v41.826z" class="Vector 2.1_2"/>
        <path fill="#B7CFFD" d="M488.624 393.461l9.149 3.921V313.73l-9.149-3.922v83.653z" class="Vector 2.3_2"/>
        <path fill="#B7CFFD" d="M512.151 414.374l9.15 3.921V309.808l-9.15-3.921v108.487z" class="Vector 2.2_2"/>
      </g>
    </g>
    <g class="floating">
      <path fill="#B7CFFD" d="M504 233v-78.082L318 43v75.48L504 233z" class="Vector_2"/>
      <path fill="#fff" d="M448 157v-9.108L329 74v8.494L448 157z" class="Vector_3"/>
      <path fill="#fff" d="M448 177v-6.882L328 96v6.261L448 177z" class="Vector_4"/>
      <ellipse fill="#FFCB56" class="Ellipse 2" rx="19" ry="20.5" transform="matrix(-1 0 0 1 472 179.5)"/>
    </g>
    <g class="tick box">
      <path fill="#fff" stroke="#6B81AC" stroke-width="3" d="M644 208v-48.868L606 138v47.547L644 208z" class="Vector 2_3"/>
      <path fill="#FFCB56" d="M618.87 188L633 176.505 629 168l-10.13 8.505L575.536 97 568 101.789 618.87 188z" class="Vector 3"/>
    </g>
    <g class="man">
      <path fill="#4B5361" d="M343.384 370.501c0 2.487 3.627 1.036 5.44 0 1.814-2.073 5.596-7.15 6.218-10.881.777-4.663-3.109-3.886-1.555-6.217 1.555-2.332 6.289-5.854 5.512-14.403-.777-8.549-3.957-6.158-6.289-6.158-2.331 0 0 3.886-5.44 3.886s-5.771 1.886-5.771 5.772-1.891-1.109-5 2-7.615 5.261-3.5 8.903c3.5 3.097 3 4.097 6.499 9.326 2.629 3.929 3.886 4.663 3.886 7.772z" class="Vector 8"/>
      <path fill="#4B5361" d="M380.689 616.755c-3.109-3.731-.778-10.881.777-13.99 5.44 6.218 5.44 0 10.88 0 5.441 0 17.098 4.663 17.098 6.995s-24.869 11.658-28.755 6.995z" class="Vector 6"/>
      <path fill="#4B5361" d="M337.167 602.765c-3.73-3.108-1.554-8.549 0-10.88 4.663 6.217 4.663 2.331 12.435-1.554 6.218-3.109 8.808-1.296 9.326 0-.777 5.44-17.098 16.32-21.761 12.434z" class="Vector 5"/>
    </g>
    <path fill="#DBA85C" fill-rule="evenodd" d="M328.619 445.111c-2.072 4.922-5.44 16.787-2.332 24.87.923 2.397 2.632 6.238 4.693 10.869v.001c6.626 14.886 16.884 37.934 16.291 47.419-.435 6.966-4.042 23.691-7.13 38.01-2.423 11.239-4.527 20.995-4.527 23.387 2.849 1.814 10.103 4.663 16.321 1.555 5.44-15.285 16.321-47.72 16.321-55.181 0-.862.006-1.811.013-2.831v-.001c.07-10.009.189-26.858-5.454-36.027 5.441 8.808 18.031 28.134 24.87 34.974-3.368 19.688-9.792 60.62-8.549 66.838 3.368 2.072 11.502 5.751 17.098 3.886 5.7-24.611 14.899-73.544 13.99-76.942-1.723-6.438-30.311-69.947-40.414-76.164-13.348-2.591-40.273-7.15-41.191-4.663zm383.939 163.883c-14.966-15.97-42.846-46.925-43.557-52.615 9.038 1.506 30.415 14.16 44.316 52.647l.174.007a290.493 290.493 0 00-2.279-9.449c-9.569-17.258-21.2-39.975-21.2-46.859 2.038 1.267 4.409 3.014 6.899 5.208-2.196-4.574-4.511-8.578-6.899-11.603 6.394 2.436 20.097 9.684 23.751 19.184 1.696 4.409 2.146 12.005 1.989 19.975 2.46 7.042 3.725 14.991 2.921 23.712 2 .047 3.933.068 5.683.05-.235-2.544-.193-4.942.087-7.196 2.508-20.224 24.138-28.75 36.824-25.578 11.693 2.923 33.496 3.654 42.935 3.654-2.131 4.263-13.702 12.972-42.935 13.703-24.962.624-33.938 9.285-36.028 15.405 3.452-.062 6.049-.292 6.795-.789 2.74-1.827 1.827 4.954 0 5.481-.31 1.821-.766 4.371-1.263 7.145-1.158 6.472-2.534 14.157-2.77 16.607-.016.159-.03.315-.043.467-.287 3.195-.435 4.85-10.457 4.85-10.5 0-11.046-1.663-11.046-5.317 0-2.923-1.827-17.052-2.74-23.752-.809-.808-2.048-2.763-1.306-4.723-8.988-5.531-20.514-14.49-23.359-23.596 6.823 4.199 20.475 13.915 27.393 23.07 1.891.11 3.976.219 6.115.312zm11.885-6.939c-5.996-14.616-14.882-46.772-2.458-58.465a35.272 35.272 0 012.458-2.11c-2.646-11.782-2.275-37.172 20.38-44.48-5.785 6.09-16.808 20.098-14.616 27.406 2.741-5.481 10.231-15.53 18.27-11.876-4.872 2.446-14.616 8.976-14.616 15.53 3.959-3.959 14.982-10.414 27.406-4.568-9.44 1.199-28.137 5.428-27.406 12.76 12.991-4.762 26.016-.924 27.406 1.857-10.847-.305-33.396 1.827-36.824 12.789 10.752-5.177 35.728-12.789 49.613-1.827-17.357.304-52.071 4.568-52.071 19.184 17.053-7.004 57.37-18.088 82.217-6.395-26.68-1.218-79.986 5.116-79.759 40.195zm-7.829 7.09a592.78 592.78 0 01-2.225-3.893 201.8 201.8 0 01-.46 3.798c.894.035 1.792.067 2.685.095z" class="Secondary" clip-rule="evenodd"/>
    <g class="plant">
      <g class="Vector 5_2" opacity=".5">
        <path fill="#FFCB56" d="M709.195 613.018c-8.526-4.264-26.492-15.713-30.146-27.406 7.917 4.872 25.03 17.174 30.146 27.406zM713.763 610.277c-14.617-15.53-44.032-48.051-44.763-53.898 9.135 1.523 30.877 14.434 44.763 53.898-3.35-15.53-12.79-50.061-23.752-63.947 6.395 2.436 20.098 9.684 23.752 19.184 3.654 9.501 1.522 33.801 0 44.763z"/>
      </g>
      <g class="Vector 4" opacity=".6">
        <path fill="#FADB96" d="M718.331 612.104c-9.44-16.139-28.319-50.609-28.319-59.379 11.267 7.004 32.704 28.685 28.319 59.379zM761.267 593.833c-29.233.731-36.541 12.485-36.541 18.271-.604-3.621-.665-6.97-.283-10.049-5.996-14.616-14.882-46.772-2.458-58.465a35.042 35.042 0 012.458-2.11c-2.647-11.782-2.275-37.172 20.38-44.48-5.786 6.09-16.809 20.098-14.616 27.406 2.74-5.481 10.231-15.53 18.27-11.876-4.872 2.446-14.616 8.976-14.616 15.53 3.958-3.959 14.982-10.414 27.406-4.568-9.44 1.199-28.137 5.428-27.406 12.76 12.99-4.762 26.015-.924 27.406 1.857-10.847-.305-33.397 1.827-36.824 12.789 10.752-5.177 35.727-12.789 49.613-1.827-17.357.304-52.071 4.567-52.071 19.184 17.052-7.004 57.369-18.088 82.217-6.395-26.681-1.218-79.986 5.116-79.759 40.195 2.508-20.224 24.138-28.75 36.824-25.578 11.693 2.923 33.495 3.654 42.935 3.654-2.131 4.263-13.703 12.972-42.935 13.702z"/>
      </g>
      <path fill="#8A6564" d="M717.499 643c-10.5 0-11.045-1.663-11.045-5.317 0-2.923-1.827-17.052-2.741-23.752-.913-.913-2.375-3.288-.913-5.481 8.831.609 27.04 1.462 29.233 0 2.74-1.827 1.827 4.954 0 5.481-1.034 6.069-3.696 20.252-4.034 23.752-.337 3.5 0 5.317-10.5 5.317z" class="Vector 3.1"/>
    </g>
  </g>
</svg>
