<svg xmlns="http://www.w3.org/2000/svg" width="801" height="600" fill="none" viewBox="0 0 801 600">
  <g class="guy_and_girl_working_together">
    <path fill="#fff" d="M1 0h800v600H1z"/>
    <path fill="#FFFBF8" d="M801 .161H1v309.7h800V.161z" class="Vector"/>
    <path fill="#FFEFDC" fill-rule="evenodd" d="M.932 0h156.6v66.784h236.1V0h213.2v66.784h59.495v13.2h-59.495v25.441h59.537v13.2h-59.537V505h-213.2v-55.8h-102.9v22.9h-133.2V169.2h30V144h21.1v-25.375h-51.1V505H.932V0zm256.2 118.625V144h-35.3v-25.375h35.3zm-99.6-13.2h51.1V79.984h-51.1v25.441zm236.1-25.441h-171.8v25.441h35.3V93.7h136.5V79.984zM724.869 134.8h-59.437v17.8h-58.5l-.1 6.508V449.2h118.037v48.839h76.1v-414.8h-76.1V134.8z" class="Secondary 1" clip-rule="evenodd"/>
    <path fill="#000" fill-opacity=".12" fill-rule="evenodd" d="M257.031 93.64h136.6v355.501h-103v-280h-29.7v-25.2h-3.9v-50.3z" class="Subtract" clip-rule="evenodd"/>
    <path fill="#000" fill-opacity=".02" fill-rule="evenodd" d="M187.329 143.972h73.5v25.199h29.7v302.9h-133.1v-302.9h29.9v-25.199z" class="Union" clip-rule="evenodd"/>
    <path fill="#000" fill-opacity=".12" d="M666.431 118.325v-13.2h-59.679v13.2h59.679z" class="Vector_2"/>
    <path fill="#000" fill-opacity=".12" d="M666.427 79.683v-13.2h-59.679v13.2h59.679z" class="Vector_3"/>
    <path fill="#000" fill-opacity=".12" fill-rule="evenodd" d="M393.613 79.967v-13.2H157.428v13.2h51.265v25.476h-51.265v13.2h51.265v25.328h13.2v-25.328h171.72v-13.2h-171.72V79.967h171.72z" class="Union_2" clip-rule="evenodd"/>
    <path fill="#000" fill-opacity=".12" fill-rule="evenodd" d="M724.9 134.856h-60.4v17.8h-57.752l.134 296.6H724.9v-314.4zm-103.419 76.35h18.3v14.8h-18.3v-14.8zm23.8 0h18.3v14.8h-18.3v-14.8zm42.2 0h-18.3v14.8h18.3v-14.8zm5.6 0h18.3v14.8h-18.3v-14.8zm-53.3 47h-18.3v14.8h18.3v-14.8zm5.5 0h18.3v14.8h-18.3v-14.8zm42.2 0h-18.3v14.8h18.3v-14.8zm5.6 0h18.3v14.8h-18.3v-14.8zm-53.3 26.5h-18.3v14.8h18.3v-14.8zm5.5 0h18.3v14.8h-18.3v-14.8zm42.2 0h-18.3v14.8h18.3v-14.8zm5.6 0h18.3v14.8h-18.3v-14.8zm-53.3 46.9h-18.3v14.8h18.3v-14.8zm5.5 0h18.3v14.8h-18.3v-14.8zm42.2 0h-18.3v14.8h18.3v-14.8zm5.6 0h18.3v14.8h-18.3v-14.8zm-53.3 26.5h-18.3v14.8h18.3v-14.8zm5.5 0h18.3v14.8h-18.3v-14.8zm42.2 0h-18.3v14.8h18.3v-14.8zm5.6 0h18.3v14.8h-18.3v-14.8z" class="Subtract_2" clip-rule="evenodd"/>
    <path fill="#000" fill-opacity=".12" fill-rule="evenodd" d="M461.881 29.675h-26.4v21.3h26.4v-21.3zm-25.6 82.4h3.8v98.5h-3.8v-98.5zm14.1 0h-3.8v98.5h3.8v-98.5zm6.6 0h3.8v98.5h-3.8v-98.5zm14.1 0h-3.8v98.5h3.8v-98.5zm6.6 0h3.8v98.5h-3.8v-98.5zm14.1 0h-3.8v98.5h3.8v-98.5zm6.6 0h3.8v98.5h-3.8v-98.5zm14.1 0h-3.8v98.5h3.8v-98.5zm6.5 0h3.8v98.5h-3.8v-98.5zm14.2 0h-3.8v98.5h3.8v-98.5zm6.5 0h3.8v98.5h-3.8v-98.5zm14.2 0h-3.8v98.5h3.8v-98.5zm10.3 0h-3.8v98.5h3.8v-98.5zm0 273.4h-3.8v98.5h3.8v-98.5zm-14.1 0h3.8v98.5h-3.8v-98.5zm-6.6 0h-3.8v98.5h3.8v-98.5zm-14.1 0h3.8v98.5h-3.8v-98.5zm-6.6 0h-3.8v98.5h3.8v-98.5zm-14.1 0h3.8v98.5h-3.8v-98.5zm-6.5 0h-3.8v98.5h3.8v-98.5zm-14.2 0h3.8v98.5h-3.8v-98.5zm-6.5 0h-3.8v98.5h3.8v-98.5zm-14.2 0h3.8v98.5h-3.8v-98.5zm-6.5 0h-3.8v98.5h3.8v-98.5zm-14.2 0h3.8v98.5h-3.8v-98.5zm-6.5 0h-3.8v98.5h3.8v-98.5zm-3.8-31.1h128v3.8h-128v-3.8zm128-10.3h-128v3.8h128v-3.8zm-128-10.4h128v3.8h-128v-3.8zm128-10.3h-128v3.8h128v-3.8zm-128-10.3h128v3.8h-128v-3.8zm128-10.4h-128v3.8h128v-3.8zm-128-10.3h128v3.8h-128v-3.8zm128-10.4h-128v3.8h128v-3.8zm-128-10.3h128v3.8h-128v-3.8zm128-10.4h-128v3.8h128v-3.8zm-128-10.3h128v3.8h-128v-3.8zm128-10.4h-128v3.8h128v-3.8zm-128-10.3h128v3.8h-128v-3.8zm33.6-200.6h26.4v21.3h-26.4v-21.3zm60.8 0h-26.4v21.3h26.4v-21.3zm7.9 0h26.4v21.3h-26.4v-21.3zm-76.7 38.1h-26.4v21.3h26.4v-21.3zm8 0h26.4v21.3h-26.4v-21.3zm60.8 0h-26.4v21.3h26.4v-21.3zm7.9 0h26.4v21.3h-26.4v-21.3z" class="Union_3" clip-rule="evenodd"/>
    <path fill="#000" fill-opacity=".06" fill-rule="evenodd" d="M23.032 45.475h43.7v9.2h-43.7v-9.2zm0 27.5h43.7v9.2h-43.7v-9.2zm43.7 27.5h-43.7v9.2h43.7v-9.2zm-43.7 27.4h43.7v9.2h-43.7v-9.2zm43.7 27.5h-43.7v9.2h43.7v-9.2zm-43.7 27.399h43.7v9.2h-43.7v-9.2zm43.7 27.5h-43.7v9.2h43.7v-9.2zm-43.7 27.4h43.7v9.2h-43.7v-9.2zm43.7 27.5h-43.7v9.2h43.7v-9.2zm-43.7 27.4h43.7v9.2h-43.7v-9.2zm43.7 27.5h-43.7v9.2h43.7v-9.2zm25-274.6h43.7v9.2h-43.7v-9.2zm43.7 27.5h-43.7v9.2h43.7v-9.2zm-43.7 27.501h43.7v9.2h-43.7v-9.2zm43.7 27.4h-43.7v9.2h43.7v-9.2zm-43.7 27.5h43.7v9.2h-43.7v-9.2zm43.7 27.399h-43.7v9.2h43.7v-9.2zm-43.7 27.5h43.7v9.2h-43.7v-9.2zm43.6 79.8h-3.7v39.2h3.7v-39.2zm-13.7 0h3.7v39.2h-3.7v-39.2zm-6.2 0h-3.7v39.2h3.7v-39.2zm-13.6 0h3.7v39.2h-3.7v-39.2zm-6.3 0h-3.7v39.2h3.7v-39.2zm36.1-52.4h3.7v36.7h-3.7v-36.7zm-6.3 0h-3.7v36.7h3.7v-36.7zm-13.6 0h3.7v36.7h-3.7v-36.7zm-6.2 0h-3.7v36.7h3.7v-36.7zm-13.7 0h3.7v36.7h-3.7v-36.7zm43.6 119.801h-112.4v126.5h112.4v-126.5zM86.03 390.829l6.667-2.442 2.218 6.052a17.984 17.984 0 016.973.291l2.74-5.909 6.441 2.987-2.737 5.902a17.982 17.982 0 014.785 5.204l6.086-2.229 2.442 6.666-6.094 2.233a18.008 18.008 0 01-.29 6.978l5.909 2.74-2.987 6.441-5.902-2.737a17.993 17.993 0 01-5.164 4.76l2.231 6.09-6.666 2.443-2.229-6.082a18.009 18.009 0 01-7.024-.282l-2.699 5.819-6.44-2.987 2.695-5.813a18 18 0 01-4.763-5.167l-6.046 2.215-2.443-6.667 6.04-2.213a17.994 17.994 0 01.307-7.117l-5.8-2.691 2.986-6.441 5.83 2.704a18.008 18.008 0 015.148-4.706l-2.214-6.042zm6.117 33.387c-6.563-3.043-9.416-10.832-6.373-17.395 3.044-6.564 10.832-9.417 17.396-6.373 6.563 3.043 9.417 10.832 6.373 17.395-3.044 6.564-10.832 9.417-17.396 6.373zm-42.44 18.552c-5.032-3.5-6.275-10.417-2.775-15.45 3.5-5.033 10.417-6.276 15.45-2.776 5.033 3.5 6.276 10.417 2.776 15.45-3.5 5.033-10.417 6.276-15.45 2.776zm-9.242-23.748l4.391 3.054a16.004 16.004 0 015.332-3.417l-.953-5.301 6.102-1.096.952 5.296a15.99 15.99 0 016.158 1.324l3.061-4.402 5.09 3.54-3.043 4.376a16.006 16.006 0 013.49 5.409l5.295-.952 1.097 6.102-5.293.952a16.006 16.006 0 01-1.364 6.245l4.385 3.049-3.54 5.091-4.391-3.054a16.014 16.014 0 01-5.341 3.421l.935 5.202-6.102 1.097-.935-5.202a16.001 16.001 0 01-6.241-1.364l-3.05 4.385-5.09-3.54 3.054-4.391a16.015 16.015 0 01-3.42-5.336l-5.304.953-1.097-6.102 5.302-.953c.031-2.115.478-4.241 1.365-6.246l-4.385-3.05 3.54-5.09z" class="Subtract_3" clip-rule="evenodd"/>
    <path fill="#000" fill-opacity=".03" fill-rule="evenodd" d="M724.9 83.398H801v414.8h-76.1v-414.8zm23.23 48.688h-2.35v166.8h2.35v-166.8zm4.157 0h2.35v166.8h-2.35v-166.8zm8.675 0h-2.349v166.8h2.349v-166.8zm3.976 0h2.35v166.8h-2.35v-166.8zm8.857 0h-2.35v166.8h2.35v-166.8zm6.325 0h-2.349v166.8h2.349v-166.8zm-21.021 175.373H743.98v34.724h15.119v-34.724zm8.078 0h15.119v34.724h-15.119v-34.724zm-8.078 43.296H743.98v34.724h15.119v-34.724zm8.078 0h15.119v34.724h-15.119v-34.724zm-8.078 43.296H743.98v34.724h15.119v-34.724zm8.078 0h15.119v34.724h-15.119v-34.724zm-8.078 43.297H743.98v34.724h15.119v-34.724zm8.078 0h15.119v34.724h-15.119v-34.724z" class="Subtract_4" clip-rule="evenodd"/>
    <path fill="#000" fill-opacity=".12" fill-rule="evenodd" d="M178.394 210.983h-1.3v219.001h1.3V210.983zm2.2 0h1.3v219.001h-1.3V210.983zm4.9 0h-1.3v219.001h1.3V210.983zm2.2 0h1.3v219.001h-1.3V210.983zm4.8 0h-1.3v219.001h1.3V210.983zm2.3 0h1.3v219.001h-1.3V210.983zm4.8 0h-1.3v219.001h1.3V210.983zm2.3 0h1.3v219.001h-1.3V210.983zm4.8 0h-1.3v219.001h1.3V210.983zm2.2 0h1.3v219.001h-1.3V210.983zm4.9 0h-1.3v219.001h1.3V210.983zm2.2 0h1.3v219.001h-1.3V210.983zm3.5 0h1.3v219.001h-1.3V210.983zm45.9 0h1.3v219.001h-1.3V210.983zm-2.3 0h-1.3v219.001h1.3V210.983zm-4.8 0h1.3v219.001h-1.3V210.983zm-2.2 0h-1.3v219.001h1.3V210.983zm-4.9 0h1.3v219.001h-1.3V210.983zm-2.2 0h-1.3v219.001h1.3V210.983zm-4.8 0h1.3v219.001h-1.3V210.983zm-2.3 0h-1.3v219.001h1.3V210.983zm-4.8 0h1.3v219.001h-1.3V210.983zm-2.3 0h-1.3v219.001h1.3V210.983zm-4.8 0h1.3v219.001h-1.3V210.983zm-2.2 0h-1.3v219.001h1.3V210.983zm-4.9 0h1.3v219.001h-1.3V210.983z" class="Union_4" clip-rule="evenodd"/>
    <path fill="#D69962" d="M535.622 308.5c-1.651 4.33 9.608 10.605 15.444 13.201l5.058-1.073.712-8.857-1.011-11.599c-6.046.972-18.552 3.998-20.203 8.328z" class="Vector 9"/>
    <path fill="#FFB877" d="M676.641 303.511l-42.146-5.496s-5.828 26.103-9.44 45.743c18.618 11.674 48.364-9.387 48.364-9.387l3.222-30.86z" class="Union_5"/>
    <path stroke="#174B88" stroke-linecap="round" stroke-width="1.788" d="M631.256 314.995c-1.918 4.596-6.981 5.521-6.708 6.935.274 1.414 3.615 3.522 3.615 3.522" class="Vector 2"/>
    <path fill="#FFB877" d="M669.453 369.667c-2.561-9.21-5.788-30.695-3.052-37.31l-14.126 4.543c-3.689 1.839-10.614 6.159-8.799 8.725 1.815 2.566-6.924 18.47-8.776 21.428l12.733.469c5.72 2.568 24.581 11.355 22.02 2.145z" class="Vector 2_2"/>
    <path fill="#174B88" d="M652.61 345.474s-6.733.939-9.055 1.357c.229 1.771-4.127 11.101-5.089 13.414 0 0 11.206-11.025 14.144-14.771z" class="Vector_4"/>
    <path stroke="#174B88" stroke-width="1.788" d="M633.468 331.524c-.515 1.113-2.805 3.348-6.579 2.593" class="Vector 5"/>
    <path fill="#D69962" fill-rule="evenodd" d="M627.972 374.071c.888-5.608-2.937-10.874-8.544-11.762l-32.924-5.218-21.214-48.482c-5.077-12.247-19.419-1.319-14.342 10.928l20.971 56.059 44.291 7.019c5.607.888 10.873-2.937 11.762-8.544z" class="Vector 2.1 (Stroke)" clip-rule="evenodd"/>
    <path stroke="#FFB877" stroke-linecap="round" stroke-width="21.453" d="M642.091 389.905l-47.19 39.432-54.479-25.249" class="Vector 2_3"/>
    <path fill="#F1D67B" d="M467.749 110.235h45.462v12.992h-45.462z" class="Rectangle 2"/>
    <path fill="#181818" fill-opacity=".2" fill-rule="evenodd" d="M691.896 550.423c38.601-.994 64.344-2.779 64.344-4.817 0-3.12-60.343-5.648-134.78-5.648-52.085 0-97.269 1.238-119.709 3.05-32.88-.205-68.231-.317-105.047-.317-175.335 0-317.473 2.529-317.473 5.649s142.138 5.648 317.473 5.648c133.992 0 248.596-1.476 295.192-3.565z" class="Union_6" clip-rule="evenodd"/>
    <path fill="#727272" fill-rule="evenodd" d="M425.724 291.535H413.15v10.899a32.523 32.523 0 00-11.961 4.958l-7.709-7.709-8.892 8.891 7.709 7.709a32.526 32.526 0 00-4.957 11.962h-10.9v12.574h10.9a32.503 32.503 0 004.958 11.962l-7.709 7.709 8.891 8.891 7.709-7.709a32.523 32.523 0 0011.961 4.958v10.899h12.574V366.63a32.526 32.526 0 0011.962-4.957l7.709 7.709 8.891-8.892-7.709-7.708a32.515 32.515 0 004.958-11.963h10.899v-12.574h-10.899a32.526 32.526 0 00-4.957-11.962l7.708-7.709-8.891-8.891-7.709 7.709a32.52 32.52 0 00-11.962-4.958v-10.899zm16.582 42.997c0 12.63-10.238 22.869-22.868 22.869-12.63 0-22.869-10.239-22.869-22.869 0-12.63 10.239-22.868 22.869-22.868 12.63 0 22.868 10.238 22.868 22.868zm-22.868 17.601c9.72 0 17.601-7.88 17.601-17.601 0-9.72-7.881-17.6-17.601-17.6-9.721 0-17.601 7.88-17.601 17.6 0 9.721 7.88 17.601 17.601 17.601z" class="Union_7" clip-rule="evenodd"/>
    <path fill="#181818" fill-rule="evenodd" d="M311.363 120.727h216.15v194.578l47.764-55.186-10.734-9.747a2.119 2.119 0 01-.145-2.992l9.611-10.585a2.119 2.119 0 012.993-.145l10.408 9.45 1.081-1.249a4.706 4.706 0 017.116 6.16l-1.227 1.418 4.128 3.748c3.789 3.44 4.072 9.301.632 13.091-3.441 3.789-9.302 4.072-13.091.631l-3.802-3.452-49.375 57.047a4.71 4.71 0 01-5.359 1.27V548.34H133.312v-60.069h61.16v-30.099h61.16v-30.094h55.731V120.727zm289.206 271.066l7.121-39.875 32.317 6.677c1.579-.431 3.065-.842 4.466-1.23 17.288-4.78 21.618-5.977 28.425 2.592 33.028 41.579 29.489 116.762 28.698 128.872l-72.3-12.967 2.514-47.515-12.069 9.387-16.539-35.76s1.358-3.307 6.557-10.826l-9.19.645zm73.712 137.02a23.84 23.84 0 00-4.28-6.152 33.838 33.838 0 008.398-1.816c-2.139 2.421-3.449 5.82-4.118 7.968zm43.86 3.861c2.101-.323 3.46-.837 3.788-1.63 1.165-2.821-18.392-10.801-33.114-16.146a33.998 33.998 0 01-6.305 4.175c7.244 2.26 24.556 8.451 35.631 13.601z" class="Primary" clip-rule="evenodd"/>
    <path fill="#fff" fill-opacity=".21" d="M311.365 405.802h216.15V548.34h-216.15z" class="Rectangle"/>
    <path fill="#fff" fill-opacity=".09" fill-rule="evenodd" d="M564.567 250.401a2.118 2.118 0 01-.144-2.992l9.611-10.586a2.118 2.118 0 012.992-.144l10.408 9.45 1.081-1.249a4.707 4.707 0 017.117 6.159l-1.228 1.419 4.128 3.748a9.267 9.267 0 01-12.459 13.722l-3.802-3.452-49.375 57.047a4.706 4.706 0 11-7.116-6.159l49.521-57.217-10.734-9.746z" class="Union_8" clip-rule="evenodd"/>
    <path fill="#D69962" d="M567.636 290.628s.255 15.551-3.819 17.662c-3.198-2.07-9.092-7.052-7.089-10.423 2.504-4.213 3.843-6.146-.632-10.478-3.581-3.465-2.641-7.557-1.794-8.59 1.584-.227 13.334 11.829 13.334 11.829z" class="Vector 7"/>
    <path fill="#D69962" fill-rule="evenodd" d="M233.417 174.72a9.386 9.386 0 017.55-10.918l28.76-15.145 37.345-39.855 4.075 12.031-28.481 37.933-38.332 23.504c-5.1.93-9.987-2.451-10.917-7.55z" class="Vector 2.1 (Stroke)_2" clip-rule="evenodd"/>
    <path fill="#E3E0E0" d="M270.466 176.396l-16.315-21.754c-14.918 2.176-27.97 11.007-32.631 15.15l15.15 27.581 33.796-20.977z" class="Vector 10"/>
    <path stroke="#D69962" stroke-linecap="round" stroke-width="11.621" d="M652.234 527.95l33.873-1.189" class="Vector 3.1"/>
    <g class="Group 2">
      <path fill="#DEDEDE" d="M318.514 274.297h7.151v13.745h-7.151z" class="Rectangle 2_2"/>
      <path fill="#DEDEDE" d="M318.514 295.193h7.151v13.745h-7.151z" class="Rectangle 2.1"/>
      <path fill="#DEDEDE" d="M318.514 316.089h7.151v13.745h-7.151z" class="Rectangle 2.2"/>
      <path fill="#DEDEDE" d="M332.816 274.297h7.151v13.745h-7.151z" class="Rectangle 2.3"/>
      <path fill="#DEDEDE" d="M332.816 295.193h7.151v13.745h-7.151z" class="Rectangle 2.4"/>
      <path fill="#DEDEDE" d="M332.816 316.089h7.151v13.745h-7.151z" class="Rectangle 2.5"/>
    </g>
    <path fill="#F1D67B" d="M332.259 373.954v7.151h-13.745v-7.151z" class="Rectangle 2.6"/>
    <g class="Group 3">
      <path fill="#F1D67B" d="M497.628 452.042v7.151H341.247v-7.151z" class="Rectangle 2.8"/>
      <path fill="#F1D67B" d="M497.628 466.345v7.151H341.247v-7.151z" class="Rectangle 2.9"/>
      <path fill="#F1D67B" d="M497.628 480.647v7.151H341.247v-7.151z" class="Rectangle 2.10"/>
      <path fill="#F1D67B" d="M497.628 494.949v7.151H341.247v-7.151z" class="Rectangle 2.11"/>
    </g>
    <path fill="#F8F8F8" d="M497.628 213.207v7.151H341.247v-7.151z" class="Rectangle 2.8_2"/>
    <path stroke="#FFB877" stroke-linecap="round" stroke-width="11.621" d="M652.339 537.576l37.934-1.386" class="Vector 3"/>
    <path fill="#F8F8F8" d="M497.628 227.509v7.151H341.247v-7.151z" class="Rectangle 2.9_2"/>
    <path fill="#F8F8F8" d="M497.628 241.812v7.151H341.247v-7.151z" class="Rectangle 2.10_2"/>
    <circle cx="508.962" cy="274.665" r="4.249" fill="#F1D67B" class="Ellipse 2"/>
    <circle cx="477.665" cy="274.665" r="4.249" fill="#DEDEDE" class="Ellipse 2.2"/>
    <path fill="#fff" fill-opacity=".13" d="M472.323 372.21h40.887v23.196h-40.887z" class="Rectangle 3.1"/>
    <g class="Group 4">
      <path fill="#F1D67B" d="M361.776 154.068l12.08 6.975v13.95l-12.08 6.975-12.081-6.975v-13.95l12.081-6.975z" class="Polygon"/>
      <path fill="#F8F8F8" d="M419.437 154.068l12.081 6.975v13.95l-12.081 6.975-12.081-6.975v-13.95l12.081-6.975z" class="Polygon_2"/>
      <path fill="#F8F8F8" d="M477.099 154.068l12.081 6.975v13.95l-12.081 6.975-12.081-6.975v-13.95l12.081-6.975z" class="Polygon_3"/>
    </g>
    <path fill="#FFB877" d="M538.517 371.461c5.132 11.752 7.03 24.979 3.616 37.496-2.284 8.377-8.343 3.202-14.616.512.117-18.529-.202-33.87-.086-52.289 1.557-.136 5.954 2.53 11.086 14.281z" class="Vector 2_4"/>
    <path fill="#D69962" d="M337.909 110.487c-8.814-4.771-18.753-6.586-28.182-3.531-6.312 2.045-2.395 8.008-.401 13.771h39.27c.11-1.426-1.874-5.47-10.687-10.24z" class="Vector 2.7"/>
    <path fill="#D69962" d="M566.312 293.493c.664 2.242.583 12.932-.128 16.917l-14.999-5.73 5.794-14.144c2.834.051 8.668.714 9.333 2.957z" class="Vector 8"/>
    <path stroke="#D69962" stroke-linecap="round" stroke-width="11.621" d="M213.192 420.431l-5.577 24.112" class="Vector 3.1_2"/>
    <path stroke="#FFB877" stroke-linecap="round" stroke-width="11.621" d="M271.037 390.064l-6.652 23.283" class="Vector 3.1_3"/>
    <path fill="#FFB877" d="M216.973 104.775l40.855 1.819s-6.646 21.225-7.124 38.912c-18.281 6.697-36.962-20.837-36.962-20.837l3.231-19.894z" class="Union_9"/>
    <path stroke="#4F7793" stroke-linecap="round" stroke-width="1.584" d="M252.912 122.061c-.176 4.409 3.547 7.043 2.799 8.077-.748 1.034-4.219 1.48-4.219 1.48" class="Vector 2_5"/>
    <path fill="#7ABDED" fill-rule="evenodd" d="M226.923 88.204c.555-1.384.859-2.834.842-4.263-.071-6.104-9.536-10.36-15.64-10.288-6.104.071-13.744 7.892-13.672 13.996.044 3.82 3.25 8.823 7.915 10.497-.599.045-1.235.072-1.91.08-10.635.125-5.881 24.751-1.183 26.752 1.603.683 3.284 2.475 5.023 4.329 3.36 3.581 6.938 7.395 10.593 3.903 3.263-3.118 2.097-8.836 1.188-13.29-.636-3.119-1.146-5.618.08-6.171 1.793-.81 4.289.544 7.016 2.022 1.8.976 3.7 2.006 5.565 2.505 3.751 1.003 4.66-1.239 4.645-2.485l22.479 3.476c2.783-12.435 3.123-36.647-17.788-34.01-7.04.89-11.888 1.915-15.153 2.947zm-32.621 188.388l55.56-2.311c.183.681.363 1.503.541 2.431 1.752.333 3.532.703 5.321 1.114 8.034 1.848 17.514 4.81 25.366 9.854 7.964 5.116 16.752 14.183 16.752 28.096 0 13.518-2.442 31.655-4.685 45.651a714.493 714.493 0 01-3.152 18.124 598.36 598.36 0 01-1.34 6.935l-.08.4-.031.153s-.001.002-15.681-3.204l15.68 3.206c-1.829 8.948-10.566 14.719-19.514 12.89-8.948-1.83-14.718-10.566-12.89-19.513v-.003l.02-.097.044-.217.025-.125a600.423 600.423 0 001.258-6.512c.82-4.38 1.912-10.463 3.003-17.271 2.174-13.562 4.158-28.921 4.265-39.538-.284-.26-.765-.644-1.549-1.147-3.131-2.012-8.295-3.928-14.906-5.449-3.463-.797-6.98-1.409-10.283-1.878a55.21 55.21 0 01-4.07.643c.325 3.203.679 6.821 1.034 10.671 1.225 13.323 2.507 29.996 2.507 41.906 0 12.412-2.125 27.912-4.102 39.787a514.626 514.626 0 01-2.767 15.181 438.502 438.502 0 01-.917 4.512l-.262 1.238-.045.21-.027.123-.028.13s-.001.002-15.298-2.889l15.297 2.891c-1.721 7.87-9.979 12.953-18.445 11.354-8.466-1.6-13.934-9.278-12.214-17.148l.016-.075.06-.276a409.426 409.426 0 001.093-5.334c.715-3.608 1.667-8.65 2.619-14.365 1.941-11.655 3.734-25.298 3.734-35.339 0-10.544-1.169-26.117-2.394-39.427a1147.079 1147.079 0 00-2.212-21.705l-.058-.51c-3.647-3.251-6.133-7.663-6.573-13.796l-.672-9.371zm70.82 40.47c-.01.001-.059-.055-.118-.166.099.11.128.166.118.166zm5.618 92.712c-4.857 6.663-12.717 0-12.717 0s-3.238 13.17.844 17.622c9.749.81 51.319 1.72 51.218-2.559-.057-2.381-8.693-4.906-17.897-7.597l1.261.369c-7.334-2.144-15.829-4.627-22.709-7.835zm-69.547 30.135s7.86 6.663 12.717 0c6.88 3.208 15.375 5.692 22.709 7.836 9.205 2.69 16.58 4.846 16.636 7.228.101 4.279-41.469 3.368-51.218 2.558-4.082-4.452-.844-17.622-.844-17.622zM545.375 249.65h-17.86v16.004h17.86V249.65zm-52.061 29.263a4.248 4.248 0 100-8.496 4.248 4.248 0 000 8.496zm165.801 29.567l-10.528-1.042c-9.563-1.397-14.805-5.577-14.805-5.577-2.786-7.986-8.125-27.37-.01-32.022 1.789-1.026 3.462-1.104 5.003-.516.917-1.838 2.001-3.35 3.283-4.368 9.239-7.339 17.235-3.323 23.764 4.139 2.404-3.575 5.263-5.921 8.281-4.743 6.05 2.36 8.383 22.977 8.325 35.127.281.951.353 1.565.141 1.706 3.855-.523 10.729.58 7.39 9.185-4.173 10.757-6.701 26.315-7.854 35.026-1.059 8.009-11.359 2.887-15.04 1.057l-.468-.232a20.597 20.597 0 00-.337-.162c-2.608-1.226-8.552-4.265-5.643-9.379 1.074-1.888 3.242-3.85 5.42-5.822 3.722-3.37 7.473-6.766 5.843-9.86-2.584-4.904-7.848-1.532-9.789 2.838l-7.138-2.637c2.729-3.903 5.716-9.935 4.162-12.718zm-24.314 167.856l-5.794-1.093v.435c-4.918-.395-9.758-.377-15.109-.146-11.365.491-23.537 1.788-34.026 5.115-9.943 3.153-22.866 9.591-28.458 23.572-3.377 8.443-2.823 18.034 3.049 26.004 4.781 6.488 11.602 9.793 16.395 11.587 9.916 3.713 22.61 5.041 33.341 5.573 11.271.559 22.664.318 31.102-.045 4.253-.183 7.829-.4 10.358-.572 1.266-.086 2.273-.162 2.976-.217.352-.027.628-.05.822-.066l.229-.019.097-.008c.003 0 .006-.001-1.639-18.967l1.645 18.966c10.575-.917 18.403-10.233 17.486-20.808a19.408 19.408 0 00-.465-2.86h.239a33.93 33.93 0 0011.35-1.942c-3.359 3.801-4.672 10.011-4.672 10.011s6.966 3.449 9.102 11.413c6.125-.419 13.458-.389 20.421-.361 12.453.051 23.721.097 24.768-2.44 1.564-3.787-34.212-16.871-45.508-20.395 10.987-5.627 18.508-17.062 18.508-30.254l-58.823-11.089a95.89 95.89 0 00-7.394-1.394zm-48.316 43.235l-.013.013-.006.006.006-.006.007-.007.006-.006zm-3.225-14.234a.132.132 0 00.033.022l.098.053a2.03 2.03 0 00-.088-.054c-.013-.007-.023-.013-.031-.016l-.009-.005h-.003zM253.063 161.454l-1.414-3.925-2.692 3.187 4.106.738zm-45.269-2.415l1.788 4.965-5.194-.933 3.406-4.032zm34.91 24.053l-1.789-4.964-3.405 4.031 5.194.933zm-47.926 2.166l4.516-2.73-4.623-2.546.107 5.276zm1.084 23.019l5.269 5.418-7.327 1.853 2.058-7.271zm16.393 42.943l6.262 4.231-6.796 3.308.534-7.539zm-16.546-8.706l1.789 4.965-5.194-.933 3.405-4.032zm55.867-17.293l-1.789-4.965-3.405 4.031 5.194.934zm-53.407 43.921l1.789 4.965-5.194-.933 3.405-4.032zm28.053-24.282l2.957-2.77 1.544 4.135-4.501-1.365zm16.467 9.911l5.104 1.343-3.715 3.748-1.389-5.091zm9.551-76.496l1.414 3.924-4.106-.737 2.692-3.187zm-39.268 47.71l1.651-.935.594 2.256-2.245-1.321zm9.012-30.489l-3.86-3.758 5.185-1.464-1.325 5.222zm16.084 19.802l3.698-3.765-5.11-1.319 1.412 5.084zm-16.168-8.537l-3.697 3.765-1.412-5.085 5.109 1.32zm-.649-32.955l1.257-5.125-5.067 1.473 3.81 3.652zm111.008 221.602v-7.152h-13.745v7.152h13.745z" class="Union_10" clip-rule="evenodd"/>
    <path fill="#FFB877" d="M204.854 163.553c3.912-7.512 15.308-11.926 13.755-32.138l11.409 6.533c2.86 2.272 6.123 4.146 4.079 6.037-2.045 1.89 4.553 20.422 5.615 23.326l-11.122-1.932c-5.431 1.175-27.648 5.686-23.736-1.826z" class="Vector 2_6"/>
    <path fill="#4F7793" d="M227.035 140.871s5.367 2.099 7.303 2.887c-.524 1.494 1.166 10.091 1.575 12.272 0 0-7.019-11.373-8.878-15.159z" class="Vector_5"/>
    <path stroke="#4F7793" stroke-width="1.584" d="M246.295 133.861c.132 1.113 1.478 3.693 4.937 4.077" class="Vector 5_2"/>
    <path fill="#000" fill-opacity=".33" fill-rule="evenodd" d="M201.548 299.759l.057.509a1145.665 1145.665 0 012.213 21.706c1.224 13.31 2.393 28.883 2.393 39.427 0 10.041-1.793 23.683-3.733 35.338a488.668 488.668 0 01-2.619 14.366 409.426 409.426 0 01-1.094 5.334l-.059.275-.016.076-.001.001c-1.72 7.87 3.748 15.547 12.214 17.146 8.467 1.6 16.725-3.483 18.446-11.354l-15.33-2.896c15.33 2.896 15.33 2.895 15.33 2.894l.029-.129.071-.333a393.565 393.565 0 001.179-5.75 511.464 511.464 0 002.768-15.181c1.977-11.875 4.102-27.375 4.102-39.787 0-11.91-1.282-28.583-2.508-41.906-.354-3.851-.708-7.468-1.033-10.671-3.391.405-6.807.459-9.862-.127-8.084-1.55-16.771-3.788-22.547-8.938zm-.354 140.15s7.86 6.663 12.717 0c6.88 3.208 15.375 5.691 22.709 7.835 9.204 2.691 16.579 4.847 16.635 7.229.101 4.279-41.469 3.368-51.217 2.558-4.082-4.452-.844-17.622-.844-17.622z" class="Subtract_5" clip-rule="evenodd"/>
    <path fill="#F8F8F8" d="M242.713 163.101c-7.144-4.61-36.528-8.25-36.528-8.25s-13.002 9.4-13.803 24.443c-1.622 30.437-5.603 83.378-5.476 97.605l67.705-2.815-2.652-67.397c-2.145-28.737-9.246-43.586-9.246-43.586z" class="Vector 2.6"/>
    <path fill="#fff" d="M239.223 156.882c-5.715-5.739-18.158-5.766-28.921-8.4-1.819-.448-7.801 9.323-4.422 7.95 3.38-1.372 35.871 9.851 35.769 8.269-.101-1.583 3.011-2.359-2.426-7.819z" class="Vector 9.1"/>
    <path fill="#559ED2" d="M216.227 193.101l1.789 4.965-5.194-.933 3.405-4.032z" class="Polygon_4"/>
    <path fill="#FFB877" d="M308.149 227.188c-2.8.119-11.52 9.349-14.162 11.24l16.409 2.387s.656-5.011 1.971-6.674c1.086-1.373 4.178-3.723 4.178-3.723s5.269 2.983 7.988-1.161c0 0-6.449-3.655-7.174-3.521-2.846.527-6.244 1.326-9.21 1.452z" class="Vector 6"/>
    <path fill="#D69962" d="M330.513 239.854c.701-1.168-4.642-5.876-7.402-8.083l-4.285 3.019-2.532 9.058c4.447-.844 13.518-2.825 14.219-3.994z" class="Vector 12"/>
    <g class="Group 10">
      <path stroke="#4F7793" stroke-linecap="round" stroke-width=".894" d="M205.808 235.678l3.955 2.183" class="Vector 9_2"/>
      <path stroke="#4F7793" stroke-linecap="round" stroke-width=".894" d="M206.899 233.7l3.956 2.183" class="Vector 9.1_2"/>
    </g>
    <g class="Group 9">
      <path stroke="#4F7793" stroke-linecap="round" stroke-width=".894" d="M221.944 268.585l4.452-.773" class="Vector 9.2"/>
      <path stroke="#4F7793" stroke-linecap="round" stroke-width=".894" d="M221.559 266.359l4.451-.772" class="Vector 9.3"/>
    </g>
    <g class="Group 9.10">
      <path stroke="#4F7793" stroke-linecap="round" stroke-width=".894" d="M243.979 270.838l4.451-.773" class="Vector 9.2_2"/>
      <path stroke="#4F7793" stroke-linecap="round" stroke-width=".894" d="M243.593 268.612l4.451-.772" class="Vector 9.3_2"/>
    </g>
    <g class="Group 9.9">
      <path stroke="#4F7793" stroke-linecap="round" stroke-width=".894" d="M241.9 198.841l3.588 2.745" class="Vector 9.2_3"/>
      <path stroke="#4F7793" stroke-linecap="round" stroke-width=".894" d="M243.273 197.047l3.588 2.745" class="Vector 9.3_3"/>
    </g>
    <g class="Group 9.7">
      <path stroke="#4F7793" stroke-linecap="round" stroke-width=".894" d="M192.995 227.178l4.452-.773" class="Vector 9.2_4"/>
      <path stroke="#4F7793" stroke-linecap="round" stroke-width=".894" d="M192.609 224.953l4.452-.773" class="Vector 9.3_4"/>
    </g>
    <g class="Group 9.8">
      <path stroke="#4F7793" stroke-linecap="round" stroke-width=".894" d="M237.61 229.959l4.452-.773" class="Vector 9.2_5"/>
      <path stroke="#4F7793" stroke-linecap="round" stroke-width=".894" d="M237.225 227.733l4.451-.773" class="Vector 9.3_5"/>
    </g>
    <g class="Group 9.1">
      <path stroke="#4F7793" stroke-linecap="round" stroke-width=".894" d="M218.836 210.113l4.451-.773" class="Vector 9.2_6"/>
      <path stroke="#4F7793" stroke-linecap="round" stroke-width=".894" d="M218.45 207.887l4.452-.773" class="Vector 9.3_6"/>
    </g>
    <g class="Group 9.3">
      <path stroke="#3F6580" stroke-linecap="round" stroke-width=".894" d="M256.15 170.428l2.207 2.008" class="Vector 9.2_7"/>
      <path stroke="#3F6580" stroke-linecap="round" stroke-width=".894" d="M257.154 169.325l2.207 2.008" class="Vector 9.3_7"/>
    </g>
    <path fill="#FFB877" fill-rule="evenodd" d="M205.575 178.862l17.587-6.566 22.592 60.519 52.565 5.8c10.333.94 4.474 16.613-4.861 15.764l-61.161-3.938-26.722-71.579z" class="Vector 11 (Stroke)" clip-rule="evenodd"/>
    <g class="Group 9.6">
      <path stroke="#4F7793" stroke-linecap="round" stroke-width=".894" d="M196.659 194.53l3.342 3.041" class="Vector 9.2_8"/>
      <path stroke="#4F7793" stroke-linecap="round" stroke-width=".894" d="M198.18 192.86l3.341 3.041" class="Vector 9.3_8"/>
    </g>
    <g class="Group 9.4">
      <path stroke="#4F7793" stroke-linecap="round" stroke-width=".894" d="M194.214 259.128l4.451-.773" class="Vector 9.2_9"/>
      <path stroke="#4F7793" stroke-linecap="round" stroke-width=".894" d="M193.828 256.902l4.452-.772" class="Vector 9.3_9"/>
    </g>
    <path fill="#F3F2F2" d="M232.895 175.056c-2.136-8.117-10.447-12.965-18.563-10.829-8.116 2.136-12.965 10.447-10.829 18.563l29.392-7.734zm-29.392 7.734l13.009 49.437 29.392-7.734-13.009-49.437-29.392 7.734z" class="Vector 10_2"/>
    <g class="Group 9.5">
      <path stroke="#4F7793" stroke-linecap="round" stroke-width=".894" d="M220.294 216.732l-1.291 4.33" class="Vector 9.2_10"/>
      <path stroke="#4F7793" stroke-linecap="round" stroke-width=".894" d="M222.459 217.377l-1.29 4.33" class="Vector 9.3_10"/>
    </g>
    <g class="Group 9.11">
      <path stroke="#4F7793" stroke-linecap="round" stroke-width=".894" d="M227.726 182.393l-1.291 4.33" class="Vector 9.2_11"/>
      <path stroke="#4F7793" stroke-linecap="round" stroke-width=".894" d="M229.891 183.039l-1.291 4.329" class="Vector 9.3_11"/>
    </g>
    <g class="Group 9.9_2">
      <path stroke="#4F7793" stroke-linecap="round" stroke-width=".894" d="M229.118 197.393l.565 4.483" class="Vector 9.2_12"/>
      <path stroke="#4F7793" stroke-linecap="round" stroke-width=".894" d="M231.359 197.111l.565 4.483" class="Vector 9.3_12"/>
    </g>
    <g class="Group 9.10_2">
      <path stroke="#4F7793" stroke-linecap="round" stroke-width=".894" d="M209.886 178.093l.564 4.482" class="Vector 9.2_13"/>
      <path stroke="#4F7793" stroke-linecap="round" stroke-width=".894" d="M212.127 177.811l.564 4.483" class="Vector 9.3_13"/>
    </g>
    <g class="Group 2_2">
      <g class="Group">
        <path fill="#2A71C4" fill-rule="evenodd" d="M357.553 144.217a2 2 0 012.648 1.015l3.178 7.182a2 2 0 01-1.006 2.632l-10.538 4.757a2 2 0 00-1.176 1.747l-.459 12.196a2 2 0 00.874 1.73l9.39 6.385a1.999 1.999 0 002.131.074l9.746-5.676c.607-.354.984-.999.993-1.701l.163-11.918a2.001 2.001 0 012.085-1.971l7.928.336a2 2 0 011.915 1.975l.222 19.258a1.999 1.999 0 01-1.073 1.795l-25.213 13.189a2.002 2.002 0 01-2.052-.119l-20.724-14.092a2.001 2.001 0 01-.857-1.928l3.843-27.76a2 2 0 011.161-1.551l16.821-7.555z" class="Vector (Stroke)" clip-rule="evenodd"/>
        <path fill="#2A71C4" fill-rule="evenodd" d="M253.913 296.628a1.999 1.999 0 001.917 2.089l7.847.316a2 2 0 002.078-1.903l.55-11.549a2.004 2.004 0 011.193-1.736l11.173-4.91a1.998 1.998 0 011.93.177l9.39 6.385c.637.433.968 1.193.853 1.955l-1.697 11.15a1.999 1.999 0 01-1.216 1.549l-11.024 4.533a2 2 0 00-1.066 2.663l3.226 7.249a2 2 0 002.541 1.055l17.991-6.873a1.998 1.998 0 001.275-1.657l2.997-28.297a2 2 0 00-.865-1.864l-20.724-14.093a2 2 0 00-2.107-.087l-24.405 13.778a1.999 1.999 0 00-1.014 1.65l-.843 18.42z" class="Vector (Stroke)_2" clip-rule="evenodd"/>
      </g>
      <path fill="#2A71C4" fill-rule="evenodd" d="M283.26 269.811l60.853-88.093 12.503 8.637-60.853 88.093-12.503-8.637z" class="Vector 2 (Stroke)" clip-rule="evenodd"/>
      <rect width="7.114" height="86.493" x="340.839" y="193.021" fill="#1B569B" class="Rectangle_2" rx="3.557" transform="rotate(34.216 340.839 193.021)"/>
    </g>
    <path fill="#FFB877" d="M292.73 238.008l-3.122 15.453c8.515 2.318 19.221 5.748 27.926 0 2.57-1.697 11.641-6.136 13.243-11.26 1.419-4.54-2.425-5.364-6.504-5.205-10.655.415-16.542-5.006-22.287-3.875-8.767 5.326-9.256 4.887-9.256 4.887z" class="Vector 2.3"/>
    <path fill="#fff" fill-opacity=".22" d="M607.742 351.859l-7.121 39.876 9.23-.666s10.354-14.183 13.106-18.048c2.753-3.864 8.153-11.381 8.153-11.381l8.152-3.282-31.52-6.499z" class="Vector_6"/>
    <path fill="#fff" fill-opacity=".13" d="M311.362 120.727h216.15v142.538h-216.15z" class="Rectangle_3"/>
    <path fill="#fff" fill-opacity=".07" fill-rule="evenodd" d="M254.739 428.078h56.551V548.34h-56.551v-.001h-61.16v.001h-61.16v-60.069h61.16v-30.1h61.16v-30.093z" class="Union_11" clip-rule="evenodd"/>
    <path fill="#fff" fill-opacity=".56" fill-rule="evenodd" d="M413.449 291.63h12.574v10.9a32.502 32.502 0 0111.962 4.957l7.709-7.709 8.891 8.891-7.709 7.709a32.51 32.51 0 014.958 11.962h10.899v12.574h-10.899a32.532 32.532 0 01-4.958 11.963l7.709 7.709-8.891 8.891-7.709-7.709a32.526 32.526 0 01-11.962 4.957v10.899h-12.574v-10.899a32.51 32.51 0 01-11.962-4.958l-7.709 7.71-8.891-8.892 7.709-7.709a32.502 32.502 0 01-4.957-11.962h-10.9V328.34h10.9a32.509 32.509 0 014.957-11.962l-7.709-7.708 8.891-8.892 7.709 7.709a32.509 32.509 0 0111.962-4.957v-10.9zm6.287 65.866c12.63 0 22.869-10.239 22.869-22.869 0-12.63-10.239-22.868-22.869-22.868-12.63 0-22.868 10.238-22.868 22.868 0 12.63 10.238 22.869 22.868 22.869z" class="Union_12" clip-rule="evenodd"/>
    <circle cx="419.737" cy="334.628" r="17.601" fill="#fff" fill-opacity=".24" class="Ellipse 3.2"/>
    <path fill="#D69962" d="M551.285 281.529c10.346 9.997 5.585 3.701 10.642 17.491 1.664 4.537-13.721 13.964-13.721 13.964-12.176-1.156-16.635-9.35-16.635-9.35s13.273-28.33 19.714-22.105z" class="Vector 2.3_2"/>
    <path stroke="#474646" stroke-linecap="round" stroke-width=".894" d="M666.808 522.787c-36.856 0-61.936-.988-93.989-11.091" class="Vector 3_2"/>
    <path stroke="#F1D67B" stroke-linecap="round" stroke-width="2.682" d="M276.115 419.001l8.614-8.614" class="Vector 8.2"/>
    <path fill="#000" fill-opacity=".26" fill-rule="evenodd" d="M253.063 161.454l-1.414-3.925-2.692 3.187 4.106.738zm-45.269-2.415l1.788 4.965-5.194-.933 3.406-4.032zm34.91 24.053l-1.789-4.964-3.405 4.031 5.194.933zm-47.926 2.166l4.516-2.73-4.623-2.546.107 5.276zm1.084 23.019l5.269 5.418-7.327 1.853 2.058-7.271zm16.393 42.943l6.262 4.231-6.796 3.308.534-7.539zm-16.546-8.706l1.789 4.965-5.194-.933 3.405-4.032zm55.867-17.293l-1.789-4.965-3.405 4.031 5.194.934zm-53.407 43.921l1.789 4.965-5.194-.933 3.405-4.032zm28.053-24.282l2.957-2.77 1.544 4.135-4.501-1.365zm16.467 9.911l5.104 1.343-3.715 3.748-1.389-5.091zm9.551-76.496l1.414 3.924-4.106-.737 2.692-3.187zm-39.268 47.71l1.651-.935.594 2.256-2.245-1.321zm9.012-30.489l-3.86-3.758 5.185-1.464-1.325 5.222zm16.084 19.802l3.698-3.765-5.11-1.319 1.412 5.084zm-16.168-8.537l-3.697 3.765-1.412-5.085 5.109 1.32zm-.649-32.955l1.257-5.125-5.067 1.473 3.81 3.652z" class="Union_13" clip-rule="evenodd"/>
    <path stroke="#F1D67B" stroke-linecap="round" stroke-width="2.682" d="M284.729 420.112l8.615-8.614" class="Vector 8.3"/>
    <path stroke="#F1D67B" stroke-linecap="round" stroke-width="2.682" d="M219.286 449.137l8.614-8.614" class="Vector 8.2_2"/>
    <path stroke="#F1D67B" stroke-linecap="round" stroke-width="2.682" d="M227.899 450.248l8.615-8.614" class="Vector 8.3_2"/>
  </g>
</svg>
