<svg xmlns="http://www.w3.org/2000/svg" width="802" height="600" fill="none" viewBox="0 0 802 600">
  <g class="guy_and_girl_with_phone">
    <path fill="#fff" d="M1 0h800v600H1z"/>
    <path fill="#ACCEFF" fill-rule="evenodd" d="M791.411 163.199c0 48.5-35.2 88.7-81.4 96.6-1.224.204-2.458.388-3.7.549v61.147c12.024 2.868 14.361 23.146 13.769 34.639 2-12.7 17.377-32.543 39.877-31.643 27.5.8 32.643 31.643 13.771 52.943 18.25-3.412 25.202 10.475 27.576 25.332v31.153l-.018-.001v9.582H585.073l-.001.135-.002.127h-34.413l-.019-.262h-21.44l-.002.261h-15.501l-.015-.261h-61.094v-.001H325.01v.001h-13.86v-.001h-10.101l-5.285.001h-12.098l-.014-.118h-4.212l-.003.117H264.99l-.001-.094-.003-.063-.002-.043h-.438a1.632 1.632 0 01-.025.083h-13.038l-.008-.083h-71.349l.027.035.025.03.017.018.005.006a.131.131 0 01.011.012l-179.894.965v-20.88C13.203 401.195 43.87 379.8 77.011 379.8c1.512 0 3.048.074 4.6.218V259.775c-45.328-8.611-79.6-48.441-79.6-96.275 0-54.124 43.876-98 98-98s98 43.876 98 98c0 51.6-39.88 93.886-90.5 97.717v105.569a12.483 12.483 0 012.6-1.887c8.883-4.826 19.967-2.461 27.23-.911 3.122.666 5.538 1.182 6.77.911 1.351-.296 1.334-3.739 1.312-8.323-.045-9.334-.112-23.399 11.288-25.277 16.719-2.812 22.696 10 28.087 21.558 1.509 3.236 2.973 6.374 4.613 9.042 1.217 1.902 2.492 3.572 3.957 4.879a33.163 33.163 0 013.743-4.479c2.3-2.3 4.9-4.2 7.8-5.7 16-8 23.5 14.9 25.3 27.3-.4-11.8 3.8-36.3 24.4-39.6 23.87-3.819 44.457 11.688 39.22 37.73.169.671.352 1.408.544 2.206 4.336-4.245 11.245-7.884 18.928-5.153-2.348-.886-4.626-1.173-6.784-1.024 1.621-5.808 3.749-10.878 6.538-14.699 0 0 .5 3.4 1 8.9l.031.24.07-.24c1.1-3.5 2.399-6.5 4-9.1 0 0 1.249 5.802 2.568 14.707a52.89 52.89 0 00-1.919 4.259l.277.214c1.385-3.47 2.991-6.574 4.852-9.198l-.065-.466a34.466 34.466 0 00-1.654 2.495c1-2.973 2.203-5.652 3.64-7.911 0 0 .774 3.588 1.732 9.465a54.484 54.484 0 00-2.28 5.944l.053.577.036.282.024-.084.023-.078.035-.12c1.292-4.111 2.819-7.635 4.698-10.689l.094.449c.951-2.725 2.079-5.178 3.385-7.246 0 0 1.1 5.1 2.3 13.1l.043.277.029-.141.028-.136c1.2-5.7 3-10.8 5.4-14.7 0 0 1.3 5.7 2.5 14.6l.042.279.043-.206.015-.073c1.2-5.7 3-10.7 5.4-14.6 0 0 1.781 8.013 3.263 19.677a73.153 73.153 0 00-1.728 6.545l.093.616.05.325.026-.126.041-.199c1.41-6.695 3.524-12.685 6.343-17.266 0 0 .046.201.129.586 1.303-3.48 2.943-6.578 4.984-9.158 0 0 1.215 4.114 2.655 10.776-2.104 4.049-3.744 8.901-4.919 14.303l.087.641.05.328.024-.118.044-.21c1.409-6.694 3.523-12.567 6.342-17.148 0 0 .612 2.75 1.448 7.441 1.297-5.667 3.246-10.706 6.052-14.671v24.829c-1.236 4.638-2.079 9.683-2.612 14.954.056.577.11 1.158.163 1.744.519-5.86 1.404-11.468 2.766-16.582V268.49c-47.4-6.282-83.975-46.856-83.975-95.973V172.22c0-50.385 38.53-91.878 87.729-96.422 2.964-.297 6.026-.396 9.089-.396 53.447 0 96.818 43.371 96.818 96.818V172.517c0 49.15-36.626 89.747-84.073 95.986v97.747c.263-.373.534-.737.812-1.091 0 0 1.7 5.8 3.4 14.6l.113.584.086-.484c1.4-8 3.9-15.1 7.9-20.1 0 0 2.169 7.491 4.157 18.461 1.501-6.303 3.785-11.913 7.043-16.061 0 0 1.485 5.101 3.116 13.119-4.351 5.78-7.139 13.627-8.762 22.451l.176.903c1.644-9.397 4.581-17.736 9.279-23.726 0 0 .463 1.581 1.167 4.376 1.771-9.093 3.49-14.999 3.49-14.999 2.07 2.635 3.747 5.86 5.079 9.478-2.717 5.12-4.587 11.319-5.786 18.072l.043.221.06.304.021.111.053.271.101-.568c1.645-9.397 4.581-17.736 9.279-23.609 0 0 .127.438.35 1.261 1.137-4.958 2-7.941 2-7.941 4 5 6.5 12.1 7.9 20.1l.086.484.066-.338.048-.246c1.7-8.8 3.4-14.6 3.4-14.6 4 5.1 6.5 12.2 7.9 20.2 1.7-8.8 3.4-14.6 3.4-14.6 4.101 5.148 6.603 12.428 7.972 20.644a223.767 223.767 0 00-.727 3.773c.065.263.13.527.193.792 1.797-9.914 3.741-16.99 4.103-18.277l-.096-.125c1.575-7.595 2.955-12.407 2.955-12.407 4.3 5.3 6.8 12.9 8.1 21.5 2.1-12.7 4.7-21.5 4.7-21.5 5.3 6.7 7.9 16.9 8.9 28.2 1.5-16.6 4.3-29.2 4.3-29.2 2.4 3.9 4.2 8.9 5.4 14.6l.032.153.026.126.042-.279c1.2-8.9 2.5-14.6 2.5-14.6 2.4 3.9 4.2 9 5.4 14.7l.04.189.018.088.042-.277c1.2-8 2.3-13.1 2.3-13.1 2.4 3.8 4.2 8.9 5.4 14.6l.03.143.029.142.041-.285c1.2-8 2.3-13.1 2.3-13.1 2.1 3.3 3.7 7.5 4.9 12.2 1.4-9.8 2.8-16.3 2.8-16.3 1.6 2.6 2.9 5.6 4 9.1l.033.113.037.127.03-.24c.5-5.5 1-8.9 1-8.9 4.471 6.123 7.241 15.456 8.954 25.889.04-.655.082-1.3.126-1.933-6.9-26.487-6.143-31.982 9.74-40.055 9.387-4.791 20.963-2.496 28.614-.98 3.37.668 5.977 1.185 7.302.88 1.426-.297 1.409-3.74 1.386-8.324-.048-9.333-.119-23.399 11.924-25.277 17.604-2.777 23.925 10.009 29.639 21.567 3.132 6.335 6.082 12.301 10.607 15.134 11.563 7.208 16.761 15.564 18.037 24.234-13.007 1.241-19.748 10.025-22.642 20.145-20.156 1.774-42.629 5.657-64.939 10.461l.03.178c22.404-4.833 44.983-8.741 65.226-10.523 3.598-12.582 13.145-23.099 33.284-19.622v-.766c-11.258-11.496-9.417-29.417 0-41.848v-74.3c-47.961-6.364-85-47.451-85-97.144 0-51 39-93 88.8-97.6 3-.3 6.1-.4 9.2-.4 54.1 0 98 43.9 98 98zM576.17 382.01c-.07-.251-.108-.381-.108-.381-4.98 6.251-7.953 15.178-9.522 25.228l.176 1.05c1.508-10.289 4.448-19.465 9.454-25.897zm-15.268 0a50.938 50.938 0 00-.109-.381c-4.636 5.819-7.532 13.957-9.176 23.162l.151 1.078c1.588-9.459 4.461-17.855 9.134-23.859zm-14.107-2.289a46.385 46.385 0 00-.105-.433c-4.469 6.59-6.942 16.309-8.083 27.144-.095.894-.19 1.787-.285 2.793a155.043 155.043 0 00-.331 5.15c.063 1.175.117 2.359.162 3.548l.022-.006c.085-2.898.236-5.767.464-8.576.095-1.005.19-1.899.285-2.793 1.123-10.663 3.535-20.244 7.871-26.827zm-16.341.229c-.082-.156-.165-.31-.249-.463 0 0-1.416 7.019-2.832 17.668a493.625 493.625 0 00-1.143 9.285c.062.417.125.839.187 1.266.424-3.768.849-7.262 1.273-10.434 1.233-9.269 2.465-15.787 2.764-17.322zm-8.507 5.148a46.385 46.385 0 00-.105-.433c-2.454 3.619-4.306 8.18-5.666 13.352.055.236.11.473.163.711 1.335-5.266 3.167-9.923 5.608-13.63zm-12.325-2.831a20.534 20.534 0 00-.253-.376s-1.702 6.755-3.405 17.004c-.701 4.192-1.402 8.967-2.103 14.208-.065.502-.13 1.007-.193 1.516.027.738.049 1.479.066 2.221.141-1.227.289-2.434.444-3.621.701-5.241 1.402-10.016 2.103-14.208 1.508-9.079 3.017-15.416 3.341-16.744zm-16.89-7.147l-.255-.331s-1.997 6.813-3.994 17.149a287.654 287.654 0 00-2.043 11.718c.052.407.101.816.148 1.227a289.442 289.442 0 012.212-12.829c1.791-9.269 3.582-15.705 3.932-16.934zm-26.086 7.102c-.085-.111-.17-.222-.256-.331 0 0-4.49 15.422-6.435 34.799l.086.871.029.269.049.451.046-.43.032-.29c1.774-18.391 5.898-33.388 6.449-35.339zm-13.323.054l-.109-.385c-2.77 3.525-4.836 8.104-6.317 13.268l.128.791c1.456-5.308 3.514-10.032 6.298-13.674zm-39.138-.528l-.109-.381c-5.324 6.683-8.354 16.426-9.827 27.331l.161 1.209.007.059c1.395-11.226 4.388-21.306 9.768-28.218zm-66.02-5.786l-.098-.468c-2.749 4.352-4.828 10.156-6.236 16.649l.093.616.048.334.034-.163.035-.171c1.373-6.521 3.414-12.373 6.124-16.797zm-9.162 1.76l-.098-.466c-2.355 3.701-4.175 8.367-5.562 13.587l.124.859c1.367-5.356 3.177-10.159 5.536-13.98zM801.198 455.2H.983v26.4h800.215v-26.4zm-505.802-72.298c2.172-1.836 4.832-3.435 7.815-4.268-.631-5.862-1.254-9.475-1.254-9.475-2.856 3.515-4.988 8.267-6.561 13.743z" class="Secondary" clip-rule="evenodd"/>
    <path fill="#DDEBFF" fill-rule="evenodd" d="M319.271 131.857v2.139a8 8 0 008 8h77.655a8 8 0 008-8v-2.139h27.616c9.389 0 17 7.612 17 17v318.344c0 9.389-7.611 17-17 17H291.655c-9.389 0-17-7.611-17-17V148.857c0-9.388 7.611-17 17-17h27.616zm60.353 324.858c0 7.47-6.056 13.526-13.525 13.526-7.47 0-13.526-6.056-13.526-13.526 0-7.469 6.056-13.525 13.526-13.525 7.469 0 13.525 6.056 13.525 13.525z" class="Subtract" clip-rule="evenodd"/>
    <path fill="#000" fill-opacity=".06" fill-rule="evenodd" d="M669.452 376.618c-1.276-8.67-6.474-17.026-18.037-24.234-4.525-2.833-7.475-8.799-10.607-15.134-5.714-11.558-12.035-24.344-29.639-21.567-12.043 1.878-11.972 15.944-11.924 25.277.023 4.584.04 8.027-1.386 8.324-1.325.305-3.933-.212-7.302-.88-7.651-1.516-19.227-3.811-28.614.98-15.883 8.073-16.64 13.568-9.74 40.055a228.18 228.18 0 00-.126 1.934c-1.713-10.434-4.484-19.767-8.954-25.89 0 0-.5 3.4-1 8.9l-.03.24-.037-.127-.033-.113c-1.1-3.5-2.4-6.5-4-9.1 0 0-1.4 6.5-2.8 16.3-1.2-4.7-2.8-8.9-4.9-12.2 0 0-1.1 5.1-2.3 13.1l-.041.285-.029-.142-.03-.143c-1.2-5.7-3-10.8-5.4-14.6 0 0-1.1 5.1-2.3 13.1l-.042.277-.018-.088-.04-.189c-1.2-5.7-3-10.8-5.4-14.7 0 0-1.3 5.7-2.5 14.6l-.042.279-.026-.126-.032-.153c-1.2-5.7-3-10.7-5.4-14.6 0 0-2.8 12.6-4.3 29.2-1-11.3-3.6-21.5-8.9-28.2 0 0-2.6 8.8-4.7 21.5-1.3-8.6-3.8-16.2-8.1-21.5 0 0-1.38 4.812-2.955 12.407 3.912 4.996 6.368 12.023 7.751 19.928a78.93 78.93 0 01.752 5.149 287.986 287.986 0 012.212-12.829c1.997-10.336 3.994-17.149 3.994-17.149 4.698 5.991 7.634 14.33 9.279 23.726.822 4.581 1.292 9.397 1.526 14.33.06 1.286.105 2.579.135 3.878.141-1.226.289-2.434.444-3.62.701-5.241 1.402-10.016 2.103-14.208 1.703-10.249 3.405-17.004 3.405-17.004 3.024 4.414 5.179 10.172 6.653 16.721 1.373-5.417 3.272-10.19 5.82-13.947 0 0 1.617 6.479 3.233 16.309.342 2.063.683 4.273 1.025 6.615.424-3.767.849-7.261 1.273-10.434 1.416-10.649 2.832-17.668 2.832-17.668 3.914 7.14 6.08 17.668 7.079 29.407.083.968.167 1.936.25 3.025.127 1.939.227 3.905.302 5.888l.022-.006c.085-2.899.236-5.768.464-8.576.095-1.006.19-1.899.285-2.793 1.141-10.835 3.614-20.554 8.083-27.144 0 0 1.617 6.479 3.233 16.309a394.88 394.88 0 011.528 10.156c1.611-9.599 4.546-18.103 9.342-24.124 0 0 1.997 6.812 3.993 17.148.538 2.765 1.076 5.78 1.613 9.014 1.529-10.431 4.529-19.718 9.663-26.162 0 0 1.996 6.812 3.993 17.148.51 2.62 1.019 5.466 1.528 8.509 22.405-4.833 44.984-8.741 65.227-10.523 2.894-10.12 9.635-18.904 22.642-20.145zm-195.157 16.909c-1.369-8.216-3.871-15.496-7.972-20.644 0 0-1.7 5.8-3.4 14.6-1.4-8-3.9-15.1-7.9-20.2 0 0-1.7 5.8-3.4 14.6l-.048.246-.066.338-.086-.484c-1.4-8-3.9-15.1-7.9-20.1 0 0-.931 3.216-2.132 8.518.879 3.309 2.7 10.585 4.398 20.01.309 1.731.618 3.544.919 5.422 1.492-5.438 3.616-10.264 6.506-13.942 0 0 4.607 15.824 6.51 35.553l.033.305.017.156.028.26.042-.394.036-.327c1.903-19.729 6.51-35.553 6.51-35.553 3.264 4.154 5.551 9.773 7.054 16.085.282-1.557.568-3.043.851-4.449zm-36.893-19.766c-1.332-3.618-3.009-6.843-5.079-9.478 0 0-1.802 6.189-3.616 15.649a238.711 238.711 0 012.635 12.006l.071.362.063.324.101-.569c1.197-6.839 3.078-13.118 5.825-18.294zm-10.429 1.517c-1.631-8.018-3.116-13.119-3.116-13.119-3.258 4.148-5.542 9.758-7.043 16.061-1.988-10.97-4.157-18.461-4.157-18.461-4 5-6.5 12.1-7.9 20.1l-.086.484-.113-.584c-1.7-8.8-3.4-14.6-3.4-14.6a27.11 27.11 0 00-1.129 1.55v19.807a279.755 279.755 0 014.064 23.275l.007.059c1.413-11.37 4.465-21.565 9.976-28.483 0 0 1.997 6.812 3.994 17.148 1.6-9.143 4.424-17.286 8.903-23.237zm-52.532-8.777c-2.928 4.137-4.923 9.443-6.217 15.413a319.91 319.91 0 013.451 25.998c.519-5.86 1.404-11.468 2.766-16.582v-24.829zm-9.128 9.434c-1.44-6.662-2.655-10.776-2.655-10.776-2.139 2.704-3.838 5.977-5.17 9.663.495 2.372 1.619 8.099 2.676 15.941l.05.328.043-.211.025-.117c1.182-5.613 2.859-10.648 5.031-14.828zm-12.593 7.901c-1.482-11.664-3.263-19.677-3.263-19.677-2.4 3.9-4.2 8.9-5.4 14.6l-.058.279-.042-.279c-1.2-8.9-2.5-14.6-2.5-14.6-2.4 3.9-4.2 9-5.4 14.7l-.028.136-.029.141-.043-.277c-1.2-8-2.3-13.1-2.3-13.1-1.391 2.203-2.58 4.842-3.568 7.782.507 2.503 1.784 9.105 3.061 18.044 1.409-5.52 3.288-10.453 5.755-14.329 0 0 1.292 5.99 2.702 15.387l.048.334.069-.334c1.409-6.695 3.524-12.686 6.343-17.149 0 0 1.292 5.99 2.701 15.387l.05.324.067-.324a73.752 73.752 0 011.835-7.045zm-25.131-7.112c-.958-5.877-1.732-9.465-1.732-9.465-1.437 2.259-2.64 4.938-3.64 7.911a34.466 34.466 0 011.654-2.495s.587 3.994 1.174 10.454l.036.281.02-.07.029-.098.033-.113c.727-2.314 1.529-4.442 2.426-6.405zm-6.863 1.142c-1.319-8.905-2.569-14.707-2.569-14.707-1.6 2.6-2.9 5.6-4 9.1l-.069.24-.031-.24c-.5-5.5-1-8.9-1-8.9-2.789 3.821-4.917 8.891-6.538 14.699 3.801-.262 7.977.828 12.248 4.165a53.515 53.515 0 011.959-4.357zm-17.515.768c-2.983.833-5.643 2.432-7.815 4.268 1.573-5.476 3.705-10.228 6.561-13.743 0 0 .623 3.613 1.254 9.475z" class="Subtract_2" clip-rule="evenodd"/>
    <path fill="#000" fill-opacity=".05" d="M107.511 355.275V366.3c-4.081 4.789-6.224 9.919-6.224 9.919l-2.01 6.773s-9.9-3.647-17.666-3.052v-11.465c6.1.7 12.5 2.4 18.9 4.9.8-7.7 3-14.3 7-18.1z" class="Vector"/>
    <path fill="#000" fill-opacity=".05" fill-rule="evenodd" d="M68.311 194.7c-19-35.5 6.9-94.8 27.5-129.2-52.2 2.2-93.9 45.2-93.9 98.1 0 47.846 34.338 87.714 79.7 96.292v10.32c5.9 1.1 12.1 1.699 18.5 1.8 2.5 0 5-.1 7.5-.3v-10.407a93.693 93.693 0 0012.5-1.805c-.972-3.502-5.918-8.517-12.629-15.322l-.571-.578c-11.1-11.2-26.9-27.2-38.6-48.9z" class="Union" clip-rule="evenodd"/>
    <path fill="#000" fill-opacity=".05" fill-rule="evenodd" d="M706.321 260.347c1.239-.161 2.47-.344 3.69-.547-2.4-2.6-5.4-5.7-8.9-9.2-12.1-12.2-29.2-29.5-41.9-53.1-19.2-35.8 3.7-93.9 25-131.9-49.8 4.6-88.8 46.6-88.8 97.6 0 49.702 37.054 90.796 85.028 97.148v10.377c9.384 1.732 17.219 1.388 25.882.066v-10.444z" class="Union_2" clip-rule="evenodd"/>
    <path fill="#000" fill-opacity=".05" fill-rule="evenodd" d="M99.418 383.031c-3.471-1.348-6.782-1.798-10.193-2.642-3.5 20.1 3.986 51.81 5.786 59.81.3 1.3 1.243 3.393 1.243 3.393l15.672-.112-5.058.026s-.757-1.907-1.057-3.207c-1.676-7.541-8.73-37.22-6.393-57.268z" class="Subtract_3" clip-rule="evenodd"/>
    <path fill="#000" fill-opacity=".05" fill-rule="evenodd" d="M193.364 366.784c-1.421-1.292-2.664-2.928-3.852-4.784l-.4.4c-13.2 13.1-14.6 37.399 1.8 47.6-35.6 0-29.8 21.6-22.1 32.9l8.265.068c-.047-.05-.101-.104-.165-.169-7.7-11.3-13.5-32.9 22.1-32.9-14.762-9.125-15.117-29.535-5.648-43.115z" class="Subtract_4" clip-rule="evenodd"/>
    <path fill="#000" fill-opacity=".05" fill-rule="evenodd" d="M400.319 268.486c1.29-.165 2.571-.354 3.841-.566-2.371-2.569-5.335-5.631-8.793-9.089-11.954-12.053-28.847-29.144-41.394-52.46-18.969-35.368 3.655-92.767 24.698-130.309-49.199 4.545-87.729 46.038-87.729 96.423 0 52.084 41.186 94.599 92.748 96.734a74.702 74.702 0 01-8.991-.754v10.436c9.289 1.732 17.044 1.389 25.62.066v-10.481z" class="Union_3" clip-rule="evenodd"/>
    <ellipse cx="142.029" cy="525.875" fill="#DDEBFF" class="Ellipse" rx="81.019" ry="3.809"/>
    <ellipse cx="677.153" cy="525.875" fill="#DDEBFF" class="Ellipse_2" rx="81.019" ry="3.809"/>
    <ellipse cx="406.133" cy="525.875" fill="#DDEBFF" class="Ellipse_3" rx="166.272" ry="3.809"/>
    <path fill="#D69962" d="M269.409 176.641c1.784-3.068.198-14.733-1.808-13.228-1.134.851-2.972 6.479-6.379 10.28-6.018 4.513-10.482 8.637-9.761 12.721l16.14 1.618c.008-2.774.38-8.936 1.808-11.391z" class="Vector 10"/>
    <path fill="#D69962" d="M285.663 190.668c-7.971 7.813-17.599 12.406-32.313 10.53-7.931-1.01-1.513-15.691-1.513-15.691s9.484-3.221 16.948-5.659c7.465-2.438 7.819-4.089 18.566-2.92 10.747 1.17 6.284 5.926-1.688 13.74z" class="Vector 2.4"/>
    <path fill="#FFB877" d="M126.553 129.388l45.704 2.035s-7.435 23.744-7.969 43.53c-20.451 7.493-41.349-23.31-41.349-23.31l3.614-22.255z" class="Union_4"/>
    <path stroke="#4F7793" stroke-linecap="round" stroke-width="1.772" d="M166.758 148.726c-.197 4.932 3.968 7.879 3.131 9.035-.836 1.157-4.72 1.656-4.72 1.656" class="Vector 2"/>
    <path fill="#FFB877" d="M112.995 195.143c4.376-8.404 17.126-13.342 15.388-35.953l12.763 7.308c3.2 2.542 6.85 4.639 4.563 6.754-2.287 2.114 5.093 22.846 6.281 26.095l-12.442-2.161c-6.075 1.314-30.929 6.36-26.553-2.043z" class="Vector 2_2"/>
    <path fill="#4F7793" d="M137.81 169.768s6.003 2.348 8.169 3.23c-.586 1.671 1.305 11.289 1.762 13.729 0 0-7.852-12.723-9.931-16.959z" class="Vector_2"/>
    <path stroke="#4F7793" stroke-width="1.772" d="M159.341 161.952c.151 1.244 1.664 4.126 5.535 4.547" class="Vector 5"/>
    <path fill="#FFB877" d="M688.288 109.971l-43.627 3.978s.026 27.567.822 48.134c21.357 7.542 46.524-20.348 46.524-20.348l-3.719-31.764z" class="Union_5"/>
    <path stroke="#174B88" stroke-linecap="round" stroke-width="1.843" d="M645.232 131.757c-.891 5.055-5.776 7.127-5.182 8.487.595 1.361 4.43 2.728 4.43 2.728" class="Vector 2_3"/>
    <path fill="#FFB877" d="M695.978 178.127c-4.652-8.685-12.743-29.565-11.483-36.835l-13.183 7.754c-3.295 2.682-9.285 8.588-6.882 10.76 2.404 2.171-2.798 20.136-3.993 23.529l12.911-2.399c6.333 1.293 27.283 5.876 22.63-2.809z" class="Vector 2_4"/>
    <path fill="#174B88" d="M673.583 157.595s-6.56 2.463-8.801 3.406c.629 1.731-1.647 12.096-2.093 14.639 0 0 8.784-13.615 10.894-18.045z" class="Vector_3"/>
    <path stroke="#174B88" stroke-width="1.843" d="M651.186 147.924c-.267 1.236-2.066 4-6.032 4.092" class="Vector 5_2"/>
    <g class="Group 8.1">
      <path stroke="#D69962" stroke-linecap="round" stroke-width="13" d="M707.347 472.718l3.357 32.68" class="Vector 3"/>
    </g>
    <path stroke="#FFB877" stroke-linecap="round" stroke-width="13" d="M667.351 480.582l-.001 32.831" class="Vector 3_2"/>
    <path stroke="#FDF5E0" stroke-linecap="round" stroke-width="3" d="M142.181 513.721l9.636-9.637" class="Vector 8.2"/>
    <path stroke="#FDF5E0" stroke-linecap="round" stroke-width="3" d="M151.817 514.964l9.637-9.637" class="Vector 8.3"/>
    <path stroke="#FFB877" stroke-linecap="round" stroke-width="13" d="M129.132 483.858l.536 26.768" class="Vector 3.1"/>
    <path stroke="#FFB877" stroke-linecap="round" stroke-width="13" d="M142.727 483.858l.536 26.768" class="Vector 3.1_2"/>
    <path fill="#DDEBFF" fill-rule="evenodd" d="M319.271 131.857v2.139a8 8 0 008 8h77.655a8 8 0 008-8v-2.139h27.616c9.389 0 17 7.612 17 17v318.344c0 9.389-7.611 17-17 17H291.655c-9.389 0-17-7.611-17-17V148.857c0-9.388 7.611-17 17-17h27.616zm60.353 324.858c0 7.47-6.056 13.526-13.525 13.526-7.47 0-13.526-6.056-13.526-13.526 0-7.469 6.056-13.525 13.526-13.525 7.469 0 13.525 6.056 13.525 13.525z" class="Subtract_5" clip-rule="evenodd" opacity=".3"/>
    <path fill="#D69962" d="M549.347 173.037c-3.274-3.43-11.238-1.429-14.811 0l16.37 11.303c.844-2.338 1.715-7.873-1.559-11.303z" class="Vector 5_3"/>
    <path stroke="#D69962" stroke-linecap="round" stroke-width="24" d="M656.489 214.613l-52.553 26.888-67.825-55.478" class="Vector 4"/>
    <path fill="#18C99E" d="M687.148 219.387c8.924-5.52 11.685-17.229 6.165-26.153-5.52-8.925-17.229-11.685-26.153-6.165l19.988 32.318zm-19.988-32.318l-42.723 26.422 19.989 32.319 42.722-26.423-19.988-32.318z" class="Vector 3.1_3"/>
    <path fill="#fff" d="M153.196 190.456c-6.393-6.42-21.884-7.055-33.925-10.001-2.035-.502-6.878 8.683-3.098 7.148 3.781-1.535 36.442 15.658 36.328 13.888-.113-1.771 6.778-4.927.695-11.035z" class="Vector 9.1"/>
    <path fill="#fff" d="M153.357 193.391c-5.97-6.815-21.389-8.438-33.216-12.148-2-.63-7.42 8.226-3.549 6.935 3.871-1.29 35.774 15.583 35.774 13.808 0-1.774 6.671-2.111.991-8.595z" class="Vector 9"/>
    <path fill="#F8F8F8" d="M195.606 242.724l7.548-38.861s-14.611.258-47.807-9.226c-7.991-5.157-40.863-9.229-40.863-9.229s-14.545 10.516-15.442 27.344c-1.814 34.049-4.158 94.414-4.015 110.33l74.025-3.285-3.36-80.987 29.914 3.914z" class="Vector 2_5"/>
    <path fill="#D69962" fill-rule="evenodd" d="M192.706 202.948c7.111.974 10.449.915 10.449.915l-3.608 18.572 61.016-22.968-6.636-14.714-61.221 18.195z" class="Subtract_6" clip-rule="evenodd"/>
    <path fill="#559ED2" d="M121.275 293.216l7.005 4.734-7.602 3.7.597-8.434z" class="Polygon"/>
    <path fill="#559ED2" d="M146.074 280.321l1.921 8.234-8.091-2.453 6.17-5.781z" class="Polygon_2"/>
    <path fill="#559ED2" d="M102.937 245.175l5.894 6.061-8.196 2.074 2.302-8.135z" class="Polygon_3"/>
    <path fill="#559ED2" d="M153.113 220.033l-7.941 2.9 1.459-8.328 6.482 5.428z" class="Polygon_4"/>
    <path fill="#559ED2" d="M180.18 228.124l3.751 7.577-8.437-.54 4.686-7.037z" class="Polygon_5"/>
    <path fill="#559ED2" d="M177.688 206.547l2.001 5.554-5.811-1.044 3.81-4.51z" class="Polygon_6"/>
    <path fill="#559ED2" d="M125.718 228.198l2.001 5.554-5.81-1.044 3.809-4.51z" class="Polygon_7"/>
    <path fill="#559ED2" d="M106.776 216.37l-5.052 3.054-.119-5.902 5.171 2.848z" class="Polygon_8"/>
    <path fill="#559ED2" d="M159.338 229.346l2.001 5.554-5.81-1.044 3.809-4.51z" class="Polygon_9"/>
    <path fill="#559ED2" d="M102.765 283.477l2.001 5.554-5.81-1.044 3.809-4.51z" class="Polygon_10"/>
    <path fill="#559ED2" d="M105.517 313.265l2.001 5.554-5.811-1.044 3.81-4.51z" class="Polygon_11"/>
    <g class="Group 10">
      <path stroke="#4F7793" stroke-linecap="round" d="M114.062 275.828l4.426 2.442" class="Vector 9_2"/>
      <path stroke="#4F7793" stroke-linecap="round" d="M115.283 273.616l4.425 2.442" class="Vector 9.1_2"/>
    </g>
    <g class="Group 9">
      <path stroke="#4F7793" stroke-linecap="round" d="M132.114 312.642l4.98-.865" class="Vector 9.2"/>
      <path stroke="#4F7793" stroke-linecap="round" d="M131.683 310.152l4.979-.865" class="Vector 9.3"/>
    </g>
    <g class="Group 9.7">
      <path stroke="#4F7793" stroke-linecap="round" d="M96.814 266.32l4.98-.864" class="Vector 9.2_2"/>
      <path stroke="#4F7793" stroke-linecap="round" d="M96.383 263.831l4.98-.865" class="Vector 9.3_2"/>
    </g>
    <g class="Group 9.8">
      <path stroke="#4F7793" stroke-linecap="round" d="M149.64 269.431l4.979-.865" class="Vector 9.2_3"/>
      <path stroke="#4F7793" stroke-linecap="round" d="M149.208 266.941l4.98-.865" class="Vector 9.3_3"/>
    </g>
    <g class="Group 9.1">
      <path stroke="#4F7793" stroke-linecap="round" d="M128.637 247.229l4.979-.865" class="Vector 9.2_4"/>
      <path stroke="#4F7793" stroke-linecap="round" d="M128.205 244.739l4.98-.865" class="Vector 9.3_4"/>
    </g>
    <g class="Group 9.3">
      <path stroke="#4F7793" stroke-linecap="round" d="M188.092 226.994l3.738 3.401" class="Vector 9.2_5"/>
      <path stroke="#4F7793" stroke-linecap="round" d="M189.793 225.125l3.738 3.401" class="Vector 9.3_5"/>
    </g>
    <g class="Group 9.5">
      <path stroke="#4F7793" stroke-linecap="round" d="M159.091 212.196l3.738 3.401" class="Vector 9.2_6"/>
      <path stroke="#4F7793" stroke-linecap="round" d="M160.792 210.327l3.738 3.401" class="Vector 9.3_6"/>
    </g>
    <g class="Group 9.6">
      <path stroke="#4F7793" stroke-linecap="round" d="M103.827 229.797l3.738 3.402" class="Vector 9.2_7"/>
      <path stroke="#4F7793" stroke-linecap="round" d="M105.528 227.928l3.739 3.402" class="Vector 9.3_7"/>
    </g>
    <g class="Group 9.2">
      <path stroke="#4F7793" stroke-linecap="round" d="M135.189 202.973l4.98-.865" class="Vector 9.2_8"/>
      <path stroke="#4F7793" stroke-linecap="round" d="M134.758 200.483l4.98-.865" class="Vector 9.3_8"/>
    </g>
    <g class="Group 9.4">
      <path stroke="#4F7793" stroke-linecap="round" d="M95.61 302.35l4.979-.865" class="Vector 9.2_9"/>
      <path stroke="#4F7793" stroke-linecap="round" d="M95.178 299.86l4.979-.865" class="Vector 9.3_9"/>
    </g>
    <path fill="#559ED2" d="M155.322 297.188l5.709 1.502-4.155 4.193-1.554-5.695z" class="Polygon_12"/>
    <path fill="#559ED2" d="M154.941 249.73l2.001 5.554-5.811-1.044 3.81-4.51z" class="Polygon_13"/>
    <path fill="#559ED2" d="M124.54 209.634l-7.286-4.288 7.357-4.166-.071 8.454z" class="Polygon_14"/>
    <path fill="#559ED2" d="M129.363 269.274l-7.286-4.289 7.357-4.166-.071 8.455z" class="Polygon_15"/>
    <path fill="#559ED2" d="M196.392 208.117l1.582 4.39-4.593-.825 3.011-3.565z" class="Polygon_16"/>
    <path fill="#32B394" d="M639.3 235.953l17.827 18.559 8.792-24.176-7.57-15.874-19.049 21.491z" class="Vector_4"/>
    <path fill="#fff" fill-opacity=".81" fill-rule="evenodd" d="M268.328 177.82c-11.046 0-20 8.955-20 20v200.667c0 11.046 8.954 20 20 20h327.455c11.046 0 20-8.954 20-20V197.82c0-11.045-8.954-20-20-20H268.328zm136.871 37.591a1.115 1.115 0 001.576 0l3.228-3.227a5.597 5.597 0 00-7.914-7.914l-8.538 8.539a1.118 1.118 0 101.583 1.582l8.524-8.524a3.361 3.361 0 114.754 4.755l-3.213 3.213a1.115 1.115 0 000 1.576zm-22.277 8.027a1.092 1.092 0 00-.147.18l-.607.607-.005.006-4.076 10.784a.934.934 0 001.205 1.204l10.784-4.075.005-.005 1.324-1.324.27-.271-.016-.016 11.544-11.545a1.12 1.12 0 00-1.583-1.583l-11.544 11.545-4.748-4.748 6.23-6.23a1.12 1.12 0 00-1.583-1.583l-7.053 7.054zm-2.112 10.059l3.083-7.546 4.465 4.465-7.548 3.081zm-54.808-28.459c0-.03.001-.061.004-.091a.871.871 0 01.867-.955h5.256a.871.871 0 01.868.955c.002.03.003.061.003.091v5.754a1.049 1.049 0 01-2.099 0v-5.056h-2.8v1.569a1.049 1.049 0 01-2.099 0v-2.267zm-10.499 17.785c0-.771.625-1.395 1.395-1.395h7.709c.77 0 1.395.624 1.395 1.395v11.157a1.048 1.048 0 11-2.095 0v-3.834h-.005v-5.929a.697.697 0 00-.697-.697h-4.904a.697.697 0 00-.698.697v9.829a1.051 1.051 0 01-2.1-.07v-11.153zm-11.521-5.73a1.443 1.443 0 101.619 2.391l14.174-9.6a1.746 1.746 0 011.955 0l14.188 9.609a1.444 1.444 0 001.619-2.391l-15.807-10.705c-.59-.4-1.365-.4-1.955 0l-15.793 10.696zm26.919 18.663v.317a.699.699 0 01-.698.698h-18.901a.698.698 0 01-.698-.698v-15.432a1.052 1.052 0 00-2.099.095v16.732c0 .77.624 1.395 1.394 1.395h21.706c.771 0 1.395-.625 1.395-1.395v-6.276a1.046 1.046 0 10-2.093 0v4.567l-.006-.003zm0-15.026a1.049 1.049 0 012.099 0v6.625a1.05 1.05 0 01-2.099 0v-6.625zm133.43 7.988c6.74 0 12.204-5.464 12.204-12.204 0-6.741-5.464-12.205-12.204-12.205-6.741 0-12.205 5.464-12.205 12.205 0 6.74 5.464 12.204 12.205 12.204zm-.001-2.093c5.585 0 10.112-4.527 10.112-10.112S469.915 206.4 464.33 206.4s-10.113 4.528-10.113 10.113 4.528 10.112 10.113 10.112zm-6.261-13.161c-.194.39.01.831.412.999.479.201 1.048-.063 1.309-.513.194-.336.473-.738.863-1.15 1.043-1.098 2.571-1.4 3.545-1.475.5-.038.931-.442.931-.944 0-.446-.342-.812-.788-.79-1.162.06-3.373.404-4.997 2.06a7.614 7.614 0 00-1.275 1.813zm15.34 14.593a1.744 1.744 0 112.466-2.464l.789.789a3.484 3.484 0 013.373.901l5.307 5.308a3.49 3.49 0 01-4.936 4.935l-5.307-5.308a3.488 3.488 0 01-.901-3.37l-.791-.791zm2.906.415a1.745 1.745 0 00-.003 2.465l5.329 5.35a1.746 1.746 0 002.473-2.463l-5.33-5.35a1.745 1.745 0 00-2.469-.002zm65.535 9.664c.681.971 2.1.956 2.784-.012 1.115-1.577 2.6-3.687 3.267-4.673.231-.341.513-.768.755-1.138a1.065 1.065 0 00-.262-1.443 1.07 1.07 0 00-1.51.249l-.636.907a127.234 127.234 0 01-2.309 3.46.838.838 0 01-1.388 0c-2.284-3.301-9.419-14.003-9.419-18.858 0-5.779 4.528-10.465 10.113-10.465s10.113 4.686 10.113 10.465c0 2.559-1.981 6.74-4.19 10.607l-.314.645a1.09 1.09 0 00.345 1.362c.518.371 1.242.22 1.566-.329.226-.385.467-.797.627-1.081 2.705-4.788 4.058-8.522 4.058-11.204 0-6.975-5.464-12.63-12.205-12.63s-12.205 5.655-12.205 12.63c0 5.508 7.608 16.939 10.81 21.508zm6.626-21.507c0 2.99-2.342 5.413-5.231 5.413s-5.231-2.423-5.231-5.413c0-2.989 2.342-5.413 5.231-5.413.649 0 1.27.122 1.843.346.566.22.643.969.221 1.405l-.15.154c-.28.288-.69.396-1.093.373a3.009 3.009 0 00-.821-.113c-1.733 0-3.138 1.454-3.138 3.248 0 1.794 1.405 3.248 3.138 3.248 1.733 0 3.138-1.454 3.138-3.248 0-.329-.047-.647-.135-.946-.012-.366.087-.733.342-.993.509-.519 1.424-.404 1.639.29a5.6 5.6 0 01.247 1.649zM390.4 234.146a1.121 1.121 0 100 2.243h12.71a1.122 1.122 0 100-2.243H390.4zm15.701 1.121c0-.619.502-1.121 1.121-1.121h3.365a1.121 1.121 0 010 2.243h-3.365a1.121 1.121 0 01-1.121-1.122z" class="Subtract_7" clip-rule="evenodd"/>
    <path fill="#43FDD0" d="M655.546 186.126c12.779-17.626 29.747-15.289 42.169-8.34 14.908 8.34 15.922 38.545 16.692 47.032 6.058 66.774 2.94 93.518 2.94 93.518l-77.529 2.251s-8.977-100.386 15.728-134.461z" class="Vector 2_6"/>
    <path fill="#FFB877" d="M287.597 193.073c-3.063.667-4.782 7.581-7.331 10.172l12.42 4.417s-.238-5.649.893-7.734c.934-1.721 3.891-4.904 3.891-4.904s6.38 2.279 8.582-2.81c0 0-7.808-2.793-8.582-2.506-3.036 1.127-6.627 2.658-9.873 3.365z" class="Vector 6"/>
    <g class="Group 16">
      <path fill="#000" fill-opacity=".39" d="M423.438 147.857h17.714v2.432h-17.714z" class="Rectangle 2"/>
      <path fill="#000" fill-opacity=".39" d="M423.438 154.947h17.714v2.432h-17.714z" class="Rectangle 2.1"/>
      <path fill="#000" fill-opacity=".39" d="M423.438 162.036h17.714v2.432h-17.714z" class="Rectangle 2.2"/>
    </g>
    <rect width="132.214" height="81.841" x="291.706" y="274.276" fill="#000" fill-opacity=".06" class="Rectangle 3.4" rx="6"/>
    <g class="Group 14">
      <rect width="101.115" height="5.206" x="307.256" y="284.492" fill="#000" fill-opacity=".19" class="Rectangle 2_2" rx="2.603"/>
      <rect width="47.641" height="5.206" x="307.256" y="297.699" fill="#000" fill-opacity=".19" class="Rectangle 2.1_2" rx="2.603"/>
      <rect width="101.115" height="5.206" x="307.256" y="310.905" fill="#000" fill-opacity=".19" class="Rectangle 2.2_2" rx="2.603"/>
      <rect width="101.115" height="5.206" x="307.256" y="324.112" fill="#000" fill-opacity=".19" class="Rectangle 2.3" rx="2.603"/>
      <rect width="47.641" height="5.206" x="307.256" y="337.318" fill="#000" fill-opacity=".19" class="Rectangle 2.4" rx="2.603"/>
    </g>
    <path fill="#28DDB1" d="M695.068 206.021c3.501-9.892-1.68-20.75-11.572-24.251-9.892-3.501-20.75 1.68-24.25 11.573l35.822 12.678zm-35.822-12.678l-16.76 47.354 35.823 12.678 16.759-47.354-35.822-12.678z" class="Vector 3_3"/>
    <path stroke="#2A71C4" stroke-linecap="round" d="M496.104 418.487H363.736m-38.188 0h-57.593c-11.046 0-20-8.954-20-20v-22.694" class="Vector 5_4"/>
    <path fill="#2A71C4" fill-rule="evenodd" d="M671.782 118.921l-10.823 1.327c-9.934.751-16.148-2.27-16.148-2.27-4.603-7.404-14.344-25.695-7.232-32.204 1.568-1.435 3.233-1.89 4.916-1.647.507-2.055 1.256-3.82 2.316-5.133 8.126-10.07 17.735-6.895 26.407.005 2.797-5.124 6.538-9.196 10.245-8.63 6.776 1.033 10.542 6.624 12.054 32.804.457 1.209.569 2.276.208 3.122 1.889-4.418 12.451-3.623 11.034 5.785-1.772 11.759-.806 27.977 0 36.997.805 9.021-14.417 6.67-17.316 6.026-2.9-.644-9.563-2.361-7.791-8.16.654-2.14 2.391-4.603 4.137-7.077v-.001c2.984-4.228 5.991-8.49 3.654-11.234-3.705-4.349-8.239.23-9.206 5.062l-7.773-1.042c1.864-4.541 3.509-11.281 1.318-13.73zM138.626 106.08c.019 1.599-.322 3.222-.942 4.77 3.653-1.154 9.076-2.302 16.952-3.296 23.393-2.951 23.013 24.134 19.899 38.046l-25.147-3.889c.016 1.394-1 3.902-5.197 2.78-2.086-.558-4.211-1.71-6.225-2.802-3.051-1.654-5.843-3.168-7.849-2.262-1.371.619-.801 3.415-.089 6.904 1.016 4.983 2.321 11.379-1.329 14.866-4.089 3.907-8.092-.359-11.851-4.366-1.946-2.074-3.826-4.078-5.619-4.842-5.255-2.239-10.574-29.788 1.323-29.927.756-.009 1.467-.04 2.137-.09-5.219-1.873-8.805-7.471-8.855-11.743-.08-6.828 8.467-15.578 15.296-15.658 6.828-.08 17.416 4.68 17.496 11.509zm146.585 16.85c-9.388 0-17 7.611-17 17v335.478c0 9.389 7.612 17 17 17h161.774c9.389 0 17-7.611 17-17V228.714l.054.001.097.002.09.001h.104c6.741 0 12.205-5.464 12.205-12.204 0-6.741-5.464-12.205-12.205-12.205h-.097l-.07.001-.178.003V139.93c0-9.389-7.611-17-17-17H285.211zm172.33 83.44v-57.513c0-9.388-7.611-17-17-17h-27.615v2.139a8 8 0 01-8 8H327.27a8 8 0 01-8-8v-2.139h-27.615c-9.389 0-17 7.612-17 17v318.344c0 9.389 7.611 17 17 17h148.886c9.389 0 17-7.611 17-17V226.658a12.196 12.196 0 01-5.416-10.144c0-4.228 2.15-7.954 5.416-10.144zm0 17.639a10.088 10.088 0 01-3.324-7.496c0-2.973 1.282-5.646 3.324-7.496v14.992zm6.529 2.613l.045.001.119.002h.095c5.585 0 10.113-4.527 10.113-10.112 0-5.586-4.528-10.113-10.113-10.113a16.579 16.579 0 00-.344.006v3.211c.127-.012.246-.02.356-.026.446-.022.788.344.788.79 0 .502-.431.906-.932.944l-.113.01-.099.009v15.276h.013l.072.002zm-84.446 230.093c0 7.47-6.056 13.526-13.526 13.526s-13.525-6.056-13.525-13.526c0-7.469 6.055-13.525 13.525-13.525 7.47 0 13.526 6.056 13.526 13.525zm25.575-241.304a1.115 1.115 0 001.576 0l3.227-3.227a5.596 5.596 0 10-7.913-7.914l-8.538 8.539a1.118 1.118 0 101.582 1.582l8.524-8.524a3.362 3.362 0 014.755 4.755l-3.213 3.213a1.115 1.115 0 000 1.576zm-22.277 8.027a1.092 1.092 0 00-.147.18l-.607.607-.006.006-4.075 10.784a.934.934 0 001.205 1.204l10.784-4.075.005-.005 1.323-1.324.271-.271-.017-.016 11.545-11.545a1.12 1.12 0 00-1.583-1.583l-11.544 11.545-4.748-4.748 6.23-6.23a1.12 1.12 0 00-1.583-1.583l-7.053 7.054zm-2.112 10.059l3.083-7.546 4.465 4.465-7.548 3.081zm-54.807-28.515l.002-.035a.872.872 0 01.868-.955h5.255c.482 0 .872.39.872.872l-.001.039c0 .015-.001.03-.003.044.003.03.004.061.004.091v5.754a1.049 1.049 0 01-2.099 0v-5.056h-2.8v1.569a1.049 1.049 0 01-2.1 0v-2.267l.002-.056zm-10.5 17.841c0-.771.625-1.395 1.395-1.395h7.709c.77 0 1.395.624 1.395 1.395v11.157a1.047 1.047 0 11-2.095 0v-3.834h-.005v-5.929a.697.697 0 00-.698-.697H318.3a.697.697 0 00-.697.697v9.829a1.051 1.051 0 01-2.1-.07v-11.153zm-11.522-5.73a1.443 1.443 0 101.619 2.391l14.175-9.6a1.746 1.746 0 011.955 0l14.188 9.609a1.444 1.444 0 001.619-2.391l-15.807-10.705c-.591-.4-1.365-.4-1.955 0l-15.794 10.696zm26.92 18.663v.317a.699.699 0 01-.698.698h-18.902a.698.698 0 01-.697-.698v-15.432a1.052 1.052 0 00-2.1.095v16.732c0 .77.625 1.395 1.395 1.395h21.706c.771 0 1.395-.625 1.395-1.395v-6.276a1.047 1.047 0 00-2.093 0v4.567l-.006-.003zm0-15.026a1.049 1.049 0 012.099 0v6.625a1.05 1.05 0 01-2.099 0v-6.625zm142.508 7.327a1.743 1.743 0 112.466-2.464l.788.789a3.485 3.485 0 013.374.901l5.307 5.308a3.49 3.49 0 01-4.936 4.935l-5.307-5.308a3.486 3.486 0 01-.902-3.37l-.79-.791zm2.906.415a1.745 1.745 0 00-.003 2.465l5.329 5.35a1.745 1.745 0 002.472-2.463l-5.329-5.35a1.745 1.745 0 00-2.469-.002zm65.535 9.664c.681.971 2.099.956 2.784-.012 1.114-1.577 2.6-3.687 3.266-4.673.231-.341.513-.768.756-1.138a1.065 1.065 0 00-.262-1.443 1.072 1.072 0 00-1.511.249l-.635.907a127.234 127.234 0 01-2.309 3.46.839.839 0 01-1.389 0c-2.283-3.301-9.418-14.003-9.418-18.858 0-5.779 4.528-10.465 10.113-10.465s10.112 4.686 10.112 10.465c0 2.559-1.981 6.74-4.189 10.607l-.314.645a1.089 1.089 0 00.345 1.362c.518.371 1.242.22 1.565-.329.227-.385.468-.797.628-1.081 2.705-4.788 4.058-8.522 4.058-11.204 0-6.975-5.465-12.63-12.205-12.63-6.741 0-12.205 5.655-12.205 12.63 0 5.508 7.607 16.939 10.81 21.508zm6.625-21.507c0 2.99-2.341 5.413-5.23 5.413-2.889 0-5.231-2.423-5.231-5.413 0-2.989 2.342-5.413 5.231-5.413.649 0 1.27.122 1.843.346.566.22.643.969.22 1.405l-.149.154c-.28.288-.69.396-1.093.373a3.009 3.009 0 00-.821-.113c-1.733 0-3.139 1.454-3.139 3.248 0 1.794 1.406 3.248 3.139 3.248 1.733 0 3.138-1.454 3.138-3.248 0-.329-.047-.647-.135-.946-.012-.366.087-.733.342-.993.509-.519 1.424-.404 1.638.29.161.52.247 1.074.247 1.649zM390.4 234.146a1.121 1.121 0 100 2.243h12.71a1.121 1.121 0 000-2.243H390.4zm15.701 1.121c0-.619.502-1.121 1.121-1.121h3.365a1.121 1.121 0 010 2.243h-3.365a1.121 1.121 0 01-1.121-1.122zm237.751 90.918a323.69 323.69 0 01-.111-5.712l69.352-2.014-.913 8.069a23.936 23.936 0 01-3.79 10.485c.333 4.771.762 11.133 1.191 18.133.9 14.69 1.838 32.736 1.838 44.64 0 9.447 2.65 26.935 5.676 43.383a912.888 912.888 0 005.345 26.722l.141.649.225 1.033.095.427.022.103.005.023.001.004c2.102 9.434-3.842 18.785-13.276 20.886-9.434 2.102-18.785-3.842-20.886-13.276l17.081-3.805a14199.017 14199.017 0 01-17.082 3.803l-.001-.003-.002-.011-.008-.035-.028-.128-.105-.478a569.591 569.591 0 01-.771-3.562c-.138 12.031-9.934 21.742-21.999 21.742-12.15 0-22-9.85-22-22h43.944v-.001l-21.944.001-22-.001V326.185zm32.372 188.741c-.201-4.928-1.332-9.529-1.332-9.529s-8.793 7.454-14.226 0c-7.697 3.589-17.201 6.367-25.405 8.765-10.297 3.011-18.547 5.422-18.61 8.087-.107 4.521 41.379 3.863 55.169 3.013 14.494 1.131 38.293.464 45.695-.15 6.492-4.349 0-19.714 0-19.714s-7.849 7.454-13.282 0c-7.697 3.588-17.201 6.367-25.405 8.765l-2.604.763zM102.906 322.224l60.645-2.188-1.001 28.903c-.02 4.312-.045 10.048-.071 16.499-.055 14.022-.11 31.395-.11 44.867 0 14.092-.873 32.114-1.721 46.359a1612.323 1612.323 0 01-1.563 23.364l-.055.738-.054.712-.03.382-.007.101-.003.027v.01l-12.783-.997 12.783.998c-.796 10.187-9.699 17.799-19.885 17.003a18.477 18.477 0 01-5.427-1.26c-1.831.341-3.935.453-6.351.264-9.636-.753-16.837-9.174-16.084-18.81l.036-.464.104-1.388a1594.338 1594.338 0 001.526-22.818c.841-14.13 1.658-31.259 1.658-44.22 0-11.967-2.307-29.69-4.829-45.232a745.534 745.534 0 00-4.174-23.307 23.98 23.98 0 01-2.604-10.873v-8.67zm72.26 191.938c-8.204-2.398-17.708-5.176-25.405-8.765-5.433 7.454-14.226 0-14.226 0s-.25 1.015-.535 2.602c-4.781 4.915-13.059-2.601-13.059-2.601s-3.623 14.733.944 19.714c5.395.448 19.504.923 32.37.71 17.173.251 38.598-.322 38.521-3.573-.063-2.665-8.313-5.076-18.61-8.087z" class="Primary" clip-rule="evenodd"/>
    <path fill="#A4A4A4" fill-opacity=".15" fill-rule="evenodd" d="M291.706 198.579a6 6 0 016-6h46.107a6 6 0 016 6v45.698a6 6 0 01-6 6h-46.107a6 6 0 01-6-6v-45.698zm74.107 0a6 6 0 016-6h46.107a6 6 0 016 6v45.698a6 6 0 01-6 6h-46.107a6 6 0 01-6-6v-45.698zm80.379-6a6 6 0 00-6 6v45.698a6 6 0 006 6h46.107a6 6 0 006-6v-45.698a6 6 0 00-6-6h-46.107zm68 6a6 6 0 016-6h46.107a6 6 0 016 6v45.698a6 6 0 01-6 6h-46.107a6 6 0 01-6-6v-45.698zM405.2 215.411c.435.435 1.14.435 1.576 0l3.227-3.227a5.597 5.597 0 00-7.914-7.914l-8.538 8.539a1.118 1.118 0 101.583 1.582l8.524-8.524a3.361 3.361 0 114.754 4.755l-3.212 3.213a1.113 1.113 0 000 1.576zm-22.278 8.027a1.037 1.037 0 00-.146.18l-.608.607-.005.006-4.075 10.784a.934.934 0 001.204 1.204l10.784-4.075.005-.005 1.324-1.324.271-.271-.017-.016 11.544-11.545a1.12 1.12 0 00-1.582-1.583l-11.545 11.545-4.748-4.748 6.23-6.23a1.12 1.12 0 00-1.583-1.583l-7.053 7.054zm-2.112 10.059l3.083-7.546 4.465 4.465-7.548 3.081zm-54.808-28.459c0-.03.001-.061.004-.091a.871.871 0 01.868-.955h5.255a.872.872 0 01.868.955c.002.03.004.061.004.091v5.754c0 .578-.472 1.046-1.05 1.046-.578 0-1.05-.468-1.05-1.046v-5.056h-2.799v1.569a1.05 1.05 0 01-2.1 0v-2.267zm-10.498 17.785c0-.771.624-1.395 1.395-1.395h7.708c.77 0 1.395.624 1.395 1.395v11.157a1.048 1.048 0 11-2.095 0v-3.834h-.005v-5.929a.697.697 0 00-.697-.697h-4.904a.698.698 0 00-.698.697v9.829a1.05 1.05 0 01-2.099-.07v-11.153zm-11.522-5.73a1.443 1.443 0 101.619 2.391l14.174-9.6a1.746 1.746 0 011.955 0l14.188 9.609a1.444 1.444 0 101.619-2.391l-15.807-10.705c-.59-.4-1.364-.4-1.955 0l-15.793 10.696zm26.919 18.663v.317a.698.698 0 01-.697.698h-18.902a.699.699 0 01-.698-.698v-15.432a1.051 1.051 0 00-2.099.095v16.732c0 .77.624 1.395 1.395 1.395h21.706c.77 0 1.395-.625 1.395-1.395v-6.276a1.047 1.047 0 00-2.094 0v4.567l-.006-.003zm0-15.026c0-.578.472-1.046 1.05-1.046.578 0 1.05.468 1.05 1.046v6.625a1.05 1.05 0 01-2.1 0v-6.625zm133.43 7.988c6.74 0 12.205-5.464 12.205-12.204 0-6.741-5.465-12.205-12.205-12.205-6.741 0-12.205 5.464-12.205 12.205 0 6.74 5.464 12.204 12.205 12.204zm-.001-2.093c5.585 0 10.113-4.527 10.113-10.112S469.915 206.4 464.33 206.4s-10.113 4.528-10.113 10.113 4.528 10.112 10.113 10.112zm-6.261-13.161c-.193.39.011.831.412.999.479.201 1.049-.063 1.309-.513.194-.336.473-.738.863-1.15 1.043-1.098 2.571-1.4 3.545-1.475.501-.038.931-.442.931-.944 0-.446-.342-.812-.788-.79-1.162.06-3.373.404-4.997 2.06a7.614 7.614 0 00-1.275 1.813zm15.34 14.593a1.743 1.743 0 012.466-2.464l.789.789a3.483 3.483 0 013.373.901l5.307 5.308a3.489 3.489 0 01-.002 4.933 3.489 3.489 0 01-4.933.002l-5.308-5.308a3.488 3.488 0 01-.901-3.37l-.791-.791zm2.906.415a1.745 1.745 0 00-.003 2.465l5.33 5.35a1.745 1.745 0 002.472-2.463l-5.33-5.35a1.745 1.745 0 00-2.469-.002zm65.536 9.664c.68.971 2.099.956 2.783-.012 1.115-1.577 2.6-3.687 3.267-4.673.231-.341.513-.768.755-1.138a1.065 1.065 0 00-.262-1.443 1.07 1.07 0 00-1.51.249l-.635.907a129.234 129.234 0 01-2.31 3.46.838.838 0 01-1.388 0c-2.284-3.301-9.418-14.003-9.418-18.858 0-5.779 4.527-10.465 10.112-10.465s10.113 4.686 10.113 10.465c0 2.559-1.981 6.74-4.19 10.607l-.314.645a1.09 1.09 0 00.345 1.362c.518.371 1.242.22 1.566-.329.226-.385.468-.797.628-1.081 2.705-4.788 4.057-8.522 4.057-11.204 0-6.975-5.464-12.63-12.205-12.63-6.74 0-12.205 5.655-12.205 12.63 0 5.508 7.608 16.939 10.811 21.508zm6.625-21.507c0 2.99-2.342 5.413-5.231 5.413s-5.23-2.423-5.23-5.413c0-2.989 2.341-5.413 5.23-5.413.649 0 1.27.122 1.844.346.565.22.643.969.22 1.405l-.15.154c-.28.288-.689.396-1.092.373a3.021 3.021 0 00-.822-.113c-1.733 0-3.138 1.454-3.138 3.248 0 1.794 1.405 3.248 3.138 3.248 1.734 0 3.139-1.454 3.139-3.248 0-.329-.048-.647-.136-.946-.012-.366.087-.733.342-.993.509-.519 1.425-.404 1.639.29a5.6 5.6 0 01.247 1.649zM390.4 234.146a1.121 1.121 0 000 2.243h12.71a1.122 1.122 0 100-2.243H390.4zm15.701 1.121c0-.619.502-1.121 1.122-1.121h3.364a1.121 1.121 0 110 2.243h-3.364c-.62 0-1.122-.502-1.122-1.122z" class="Subtract_8" clip-rule="evenodd"/>
    <path stroke="#2A71C4" stroke-linecap="round" d="M534.557 418.43h81.227" class="Vector 6_2"/>
    <path fill="#FFB877" fill-rule="evenodd" d="M516.222 181.763c-.657-2.668-.33-5.197 3.148-5.197-.542-2.247.775-5.036 4.494-3.951 0-6.121 5.356-4.907 5.356-4.907s0-6.793 6.267-3.694c3.974 5.019 5.99 5.813 8.765 10.311 3.326 5.39 2.565 10.366-4.076 6.65 4.649 3.716.837 9.088-3.075 6.15 4.141 4.22-.507 8.049-4.362 4.22 1.039 2.4 0 4.739-3.119 3.223-3.036-1.476-12.009-10.209-13.398-12.805z" class="Intersect" clip-rule="evenodd"/>
    <path stroke="#FFFAEE" stroke-linecap="round" stroke-width="3" d="M155.775 515.721l9.637-9.637" class="Vector 8.2_2"/>
    <path stroke="#FFFAEE" stroke-linecap="round" stroke-width="3" d="M165.412 516.964l9.637-9.637" class="Vector 8.3_2"/>
    <g class="Group">
      <path fill="#000" fill-opacity=".1" fill-rule="evenodd" d="M303.982 217.093a1.443 1.443 0 101.619 2.391l14.174-9.599c.591-.4 1.365-.4 1.956 0l14.187 9.608a1.444 1.444 0 101.619-2.391l-15.806-10.704c-.591-.4-1.365-.4-1.956 0l-15.793 10.695zm26.919 18.663v.317a.697.697 0 01-.697.698h-18.902a.697.697 0 01-.697-.698v-15.432a1.052 1.052 0 00-2.1.095v16.732c0 .771.624 1.395 1.395 1.395h21.706c.77 0 1.395-.624 1.395-1.395v-6.276a1.047 1.047 0 00-2.094 0v4.567l-.006-.003zm0-15.026c0-.578.472-1.046 1.05-1.046.578 0 1.05.468 1.05 1.046v6.626a1.05 1.05 0 01-2.1 0v-6.626z" class="Vector_5" clip-rule="evenodd"/>
      <path fill="#000" fill-opacity=".1" fill-rule="evenodd" d="M326.002 205.038c0-.03.001-.061.004-.091a.872.872 0 01.868-.955h5.255a.872.872 0 01.868.955c.003.03.004.061.004.091v5.754c0 .578-.472 1.046-1.05 1.046-.578 0-1.05-.468-1.05-1.046v-5.056h-2.799v1.569c0 .578-.472 1.046-1.05 1.046-.578 0-1.05-.468-1.05-1.046v-2.267zm-10.498 17.785c0-.771.624-1.395 1.395-1.395h7.708c.771 0 1.395.624 1.395 1.395v11.157a1.048 1.048 0 11-2.094 0v-3.834h-.006v-5.929a.697.697 0 00-.697-.697h-4.904a.697.697 0 00-.697.697v9.829a1.052 1.052 0 01-2.1-.069v-11.154z" class="Vector_6" clip-rule="evenodd"/>
    </g>
    <g class="Group_2">
      <path fill="#000" fill-opacity=".1" fill-rule="evenodd" d="M476.536 216.514c0 6.74-5.464 12.204-12.205 12.204s-12.205-5.464-12.205-12.204c0-6.741 5.464-12.205 12.205-12.205s12.205 5.464 12.205 12.205zm-2.093-.001c0 5.585-4.528 10.112-10.113 10.112s-10.113-4.527-10.113-10.112 4.528-10.113 10.113-10.113 10.113 4.528 10.113 10.113z" class="Vector_7" clip-rule="evenodd"/>
      <path fill="#000" fill-opacity=".1" fill-rule="evenodd" d="M458.069 213.464c-.194.39.01.831.412.999.479.201 1.048-.063 1.309-.513.194-.336.473-.738.863-1.15 1.043-1.098 2.571-1.4 3.545-1.475.5-.038.931-.442.931-.944 0-.446-.342-.812-.788-.79-1.162.06-3.373.404-4.997 2.06a7.614 7.614 0 00-1.275 1.813zm15.34 14.593a1.743 1.743 0 012.466-2.464l.789.789a3.484 3.484 0 013.373.901l5.307 5.308a3.489 3.489 0 01-.002 4.933 3.489 3.489 0 01-4.933.002l-5.308-5.308a3.488 3.488 0 01-.901-3.37l-.791-.791zm2.906.415a1.744 1.744 0 00-.003 2.464l5.33 5.351a1.745 1.745 0 002.472-2.463l-5.33-5.35a1.744 1.744 0 00-2.469-.002z" class="Vector_8" clip-rule="evenodd"/>
    </g>
    <g class="Group_3">
      <path fill="#000" fill-opacity=".1" fill-rule="evenodd" d="M544.634 238.124c-.684.968-2.103.983-2.784.012-3.202-4.569-10.81-16-10.81-21.508 0-6.975 5.464-12.63 12.205-12.63s12.205 5.655 12.205 12.63c0 2.682-1.353 6.416-4.058 11.204-.16.284-.401.696-.627 1.081-.324.549-1.048.7-1.566.329a1.09 1.09 0 01-.345-1.362l.314-.645c2.209-3.867 4.19-8.048 4.19-10.607 0-5.779-4.528-10.465-10.113-10.465s-10.113 4.686-10.113 10.465c0 4.855 7.135 15.557 9.419 18.858a.838.838 0 001.388 0c.547-.79 1.371-2.004 2.309-3.46l.636-.907a1.07 1.07 0 011.51-.249c.457.336.573.969.262 1.443-.242.37-.524.797-.755 1.138-.667.986-2.152 3.096-3.267 4.673z" class="Vector_9" clip-rule="evenodd"/>
      <path fill="#000" fill-opacity=".1" fill-rule="evenodd" d="M548.476 216.629c0 2.989-2.342 5.413-5.231 5.413s-5.23-2.424-5.23-5.413c0-2.99 2.341-5.413 5.23-5.413.649 0 1.27.122 1.844.346.565.22.643.969.22 1.405l-.15.154c-.28.288-.689.395-1.092.373a3.016 3.016 0 00-.822-.113c-1.733 0-3.138 1.454-3.138 3.248 0 1.794 1.405 3.248 3.138 3.248 1.734 0 3.139-1.454 3.139-3.248 0-.329-.048-.647-.136-.946-.012-.366.087-.733.342-.993.509-.519 1.425-.404 1.639.29a5.6 5.6 0 01.247 1.649z" class="Vector_10" clip-rule="evenodd"/>
    </g>
    <g class="Group_4">
      <path fill="#000" fill-opacity=".1" fill-rule="evenodd" d="M384.086 225.476l-3.276 8.021 8.022-3.275.99-.989 1.582 1.582-1.328 1.329-10.784 4.075a.935.935 0 01-1.205-1.205l4.075-10.784 1.329-1.328 1.585 1.585-.99.989zm5.192 9.791c0-.619.502-1.122 1.121-1.122h12.711a1.122 1.122 0 010 2.243h-12.711a1.121 1.121 0 01-1.121-1.121zm17.944-1.122a1.122 1.122 0 100 2.243h3.364a1.121 1.121 0 100-2.243h-3.364z" class="Vector_11" clip-rule="evenodd"/>
      <path fill="#000" fill-opacity=".1" fill-rule="evenodd" d="M405.199 215.411c.435.435 1.14.435 1.576 0l3.227-3.227a5.597 5.597 0 00-7.914-7.914l-8.538 8.539a1.118 1.118 0 101.583 1.582l8.524-8.524a3.361 3.361 0 114.754 4.755l-3.212 3.213a1.113 1.113 0 000 1.576zm-22.278 8.027a1.037 1.037 0 00-.146.18l-.608.607.595.596a1.111 1.111 0 00.359.358l5.972 5.972a1.109 1.109 0 00.358.359l.629.629 1.595-1.595-.017-.016 11.544-11.545a1.12 1.12 0 00-1.582-1.583l-11.545 11.545-4.748-4.748 6.23-6.23a1.12 1.12 0 00-1.583-1.583l-7.053 7.054z" class="Vector_12" clip-rule="evenodd"/>
    </g>
    <g class="Group 17">
      <rect width="58.107" height="23.611" x="291.706" y="380.118" fill="#000" fill-opacity=".06" class="Rectangle 3.6" rx="6"/>
      <rect width="58.107" height="23.611" x="365.813" y="380.118" fill="#000" fill-opacity=".06" class="Rectangle 3.7" rx="6"/>
      <rect width="58.107" height="23.611" x="440.191" y="380.118" fill="#000" fill-opacity=".06" class="Rectangle 3.8" rx="6"/>
      <rect width="58.107" height="23.611" x="514.191" y="380.118" fill="#000" fill-opacity=".06" class="Rectangle 3.9" rx="6"/>
    </g>
    <path fill="#FFB877" fill-rule="evenodd" d="M196.878 236.175l4.577-23.561 21.422 4.399 52.356-11.458c1.072-.673 3.39-2.389 8.361-6.732 2.857-1.097 6.023-.624 9.774-.062 4.278.64 9.319 1.394 15.533.062 4.466-.957 8.86-.784 8.166 4.491-.647 4.913-6.986 10.285-10.593 13.342-.765.648-1.407 1.192-1.846 1.606-5.938 5.596-13.24 5.861-20.202 6.114-2.032.074-4.035.147-5.966.35l-55.242 16.858-26.34-5.409z" class="Subtract_9" clip-rule="evenodd"/>
    <rect width="132.214" height="81.841" x="440.191" y="274.276" fill="#000" fill-opacity=".06" class="Rectangle 3.5" rx="6"/>
    <g class="Group 15">
      <g class="Group 14.1">
        <rect width="101.115" height="5.206" x="455.741" y="284.492" fill="#000" fill-opacity=".19" class="Rectangle 2_3" rx="2.603"/>
        <rect width="47.641" height="5.206" x="455.741" y="297.699" fill="#000" fill-opacity=".19" class="Rectangle 2.1_3" rx="2.603"/>
        <rect width="101.115" height="5.206" x="455.741" y="310.905" fill="#000" fill-opacity=".19" class="Rectangle 2.2_3" rx="2.603"/>
        <rect width="101.115" height="5.206" x="455.741" y="324.112" fill="#000" fill-opacity=".19" class="Rectangle 2.3_2" rx="2.603"/>
        <rect width="47.641" height="5.206" x="455.741" y="337.318" fill="#000" fill-opacity=".19" class="Rectangle 2.4_2" rx="2.603"/>
      </g>
    </g>
    <path fill="#D69962" fill-rule="evenodd" d="M575.727 289.801a64.8 64.8 0 00-3.691-.207s-11.234 10.196-11.08 11.63c.595.524 2.386 1.127 4.465.586 2.855-2.672 5.075-4.447 7.243-5.784.363-2.604 1.189-5.762 2.75-6.165.093-.024.198-.044.313-.06z" class="Subtract_10" clip-rule="evenodd"/>
    <path fill="#FFB877" fill-rule="evenodd" d="M639.301 261.043l9.084-18.258 22.808 8.072-14.518 29.222-57.53 23.408c.117.264.179.412.179.412-4.263 9.312-16.211 18.696-16.211 18.696s-24.769-13.981-18.956-19.584c3.483-3.357 6.03-5.457 8.507-6.985.363-2.604 1.189-5.762 2.75-6.165 1.569-.404 6.449.332 10.242 1.043.801-.255 1.648-.526 2.546-.818 12.461-6.536 40.801-21.633 51.099-29.043z" class="Union_6" clip-rule="evenodd"/>
    <path fill="#FFD177" fill-rule="evenodd" d="M591.024 324.724l6.813-7.522c0-.173-1.716-1.65-4.766-4.139-2.568 2.94-5.262 5.481-7.2 7.198l5.153 4.463zm-26.013-22.529c2.799-2.647 4.989-4.448 7.082-5.808-23.686-18.617-58.776-45.832-83.444-64.963-9.54-7.398-17.521-13.588-22.681-17.604l-1.421 1.366 100.464 87.009z" class="Subtract_11" clip-rule="evenodd"/>
    <path fill="#000" fill-opacity=".29" fill-rule="evenodd" d="M687.795 475.263l.056-.001V347.979l2.708-.252a23.994 23.994 0 0017.83-10.714c.333 4.771.762 11.133 1.191 18.133.901 14.69 1.838 32.736 1.838 44.639 0 9.448 2.65 26.936 5.676 43.383a911.766 911.766 0 005.712 28.405l.094.427.022.103.006.023v.003c2.102 9.434-3.842 18.785-13.276 20.887-9.433 2.101-18.785-3.843-20.886-13.276l17.081-3.805c-17.081 3.805-17.081 3.804-17.082 3.803v-.004l-.003-.01-.007-.035-.029-.128-.105-.479a513.023 513.023 0 01-.771-3.562l.001-.257h-.056zm-15.972 49.999c14.495 1.131 38.29.464 45.691-.151 6.492-4.348 0-19.713 0-19.713s-7.848 7.453-13.282 0c-7.697 3.588-17.201 6.366-25.405 8.765l-2.604.762c.159 3.892-.261 7.989-2.276 10.186-.604.05-1.316.101-2.124.151zM105.51 341.768a748.936 748.936 0 014.173 23.306c2.523 15.541 4.829 33.265 4.829 45.232 0 12.96-.816 30.089-1.658 44.219a1592.716 1592.716 0 01-1.525 22.818l-.105 1.388-.036.465c-.753 9.635 6.448 18.057 16.084 18.81 2.416.188 4.519.077 6.35-.264-7.321-2.924-12.221-10.351-11.575-18.624v-.005l.002-.02.007-.086.027-.352.105-1.386a1596.601 1596.601 0 001.524-22.803c.841-14.127 1.656-31.231 1.656-44.16 0-13.549.056-30.983.111-45.013l.033-8.103-9.625-4.974a23.996 23.996 0 01-10.377-10.448zm29.668 165.955c-5.434 5.772-13.238-2.326-13.238-2.326s-3.623 14.734.944 19.714c2.81.234 7.983.474 14.114.622-3.227-3.954-2.409-13.565-1.82-18.01z" class="Subtract_12" clip-rule="evenodd"/>
  </g>
</svg>
