<svg xmlns="http://www.w3.org/2000/svg" width="1152" height="700" fill="none" viewBox="0 0 1152 700">
  <g class="launch">
    <path fill="#fff" d="M0 0h1152v700H0z"/>
    <path fill="#ECE6E6" d="M534.413 352.538c-3.957-63.502 47.824-101.144 94.397-100.531 212.36 16.55 226.306 138.356 217.188 222.203-12.365 113.703-78.205-14.098-87.479 95.927-9.334 110.752-208.651 64.667-240.18 31.567-46.367-48.676 39.566-70.183-14.838-107.573-54.403-37.391 35.857-62.215 30.912-141.593z" class="Vector"/>
    <path fill="#fff" d="M645.261 585.872c5.703 20.302 9.928 35.55-.157 54.817-4.317-18.778-10.68-47.88-15.791-74.382-12.998-17.491-39.345-54.836-40.747-64.283 7.303 9.898 24.418 29.411 34.458 28.287-1.574-10.682-2.381-18.967-1.968-23.085 2.836 1.955 8.882 10.899 13.755 31.709 11.004 12.015 32.329 40.289 29.602 57.262l3.128 1.726c-3.475-23.286-17.744-77.006-47.011-105.599 7.777.889 26.118 9.138 37.268 35.022 11.15 25.884 14.906 49.544 15.39 58.138.327-13.646-1.499-47.302-11.42-72.761-12.402-31.825-15.633-43.507-64.289-72.24 14.876-3.261 47.369-3.84 58.339 19.936 13.713 29.72 23.511 74.72 21.537 112.753 5.224-43.624 20.449-134.268 39.562-147.855.147 4.638-1.091 20.42-7.218 46.451-6.128 26.031-18.222 65.989-23.504 82.714 6.761-16.851 23.535-52.624 36.541-60.908 13.007-8.283 60.106-38.006 82.03-51.832-10.538 19.166-39.581 61.964-71.445 79.826-31.864 17.863-40.129 36.304-40.279 43.291 25.714-10.163 82.951-28.794 106.185-22.006-20.838 9.083-70.783 28.155-103.862 31.773-4.629 1.059-14.87 5.652-18.795 15.552 18.815-6.586 61.403-15.797 81.236.049-16.355 3.387-52.223 9.833-64.856 8.519-15.79-1.643-30.4 10.563-27.356 11.3 3.044.737 55.471-13.697 91.108 2.196-24.029 8.027-75.769 22.004-90.498 13.695-1.649-1.853-5.88-4.282-9.619.82-3.738 5.101.234-5.999 2.688-12.187-3.044-9.372-10.107-28.233-14.012-28.698z" class="plant"/>
    <g class="Group 2">
      <path fill="#DAE4FA" d="M571.933 316c-21.834 1.167-52.4 20.5 0 88.5 22-27.333 52.8-83.3 0-88.5z" class="Vector 2"/>
      <path fill="#FFCB56" d="M571.932 316c-11 1-26.4 13.6 0 56 11.334-16.833 27.2-51.6 0-56z" class="color 2"/>
      <g class="Vector_2">
        <path fill="#C4C4C4" d="M465 259c0-18.8 38.519-52.5 57.779-67-2.62 26.732-.381 59.938 10.009 100.5H465V259zM679 259c-.4-20-40.177-53-60.015-67 3.38 35.017-1.522 72.441-8.034 100.5H679c.167-2.833.4-13.5 0-33.5z"/>
      </g>
      <path fill="#DAE4FA" d="M640 262.5c-16.8 1.2-17.334 26.5-15.5 39H657c1.333-13.5-.2-40.2-17-39z" class="Vector 2_2"/>
      <path fill="#DAE4FA" d="M502.22 263.039c-16.8 1.2-17.333 26.5-15.5 39h32.5c1.334-13.5-.2-40.2-17-39z" class="Vector 2.1"/>
      <path fill="#C4C4C4" d="M606.501 309.5h-69a457.036 457.036 0 01-4.712-17h78.163a300.849 300.849 0 01-4.451 17z" class="Vector_3"/>
      <path fill="#4B5361" d="M532.789 292.5c-10.39-40.562-12.629-73.768-10.009-100.5 1.911-19.497 6.407-35.55 12.21-48.5h72.212c6.458 14.652 10.122 31.285 11.784 48.5 3.38 35.017-1.522 72.441-8.034 100.5h-78.163z" class="Vector_4"/>
      <path fill="#EE7E79" d="M534.988 143.5c10.269-22.914 24.631-36.116 36.011-41.5 16.902 9.469 28.526 24.086 36.201 41.5h-72.212z" class="color 1"/>
      <circle cx="572" cy="194" r="28" fill="#C4C4C4" class="Ellipse"/>
      <circle cx="572" cy="194" r="15" fill="#DAE4FA" class="Ellipse_2"/>
    </g>
    <g class="Group">
      <path fill="#DAE4FA" d="M461 406h229.986v148.378H461z" class="Rectangle"/>
      <path fill="#fff" d="M474.189 417.541h203.608v119.527H474.189z" class="Rectangle_2"/>
      <path fill="#C4C4C4" d="M548 554.378h51.108v24.73H548z" class="Rectangle 2"/>
      <path fill="#C4C4C4" d="M536 579h75v10h-75z" class="Rectangle 2.1"/>
    </g>
    <path fill="#88B1FF" d="M653 498H496c6.026-7.623 21.277-5.294 28.149-3.176-3.04-5.823-6.978-18.739 1.586-23.821 8.563-5.082 17.312-2.117 20.616 0 13.004-8.575 24.184.662 28.149 6.352 2.537-13.975 16.652-12.969 23.391-10.719.397-4.764 6.344-14.69 21.013-10.719 11.735 3.176 12.026 16.939 10.705 23.423 10.783 2.541 8.986 11.381 6.739 15.484H653V498z" class="Vector 2_3"/>
    <g class="Group 2.1">
      <path fill="#4B5361" d="M669.461 363.5c-12.071 11.846-33.755 3.365-43.087-2.356-4.289-2.355 1.676-5.552-2.347-11.609-4.024-6.058 2.347-12.957 5.364-16.322 2.415-2.692 2.124-11.105 1.677-14.975-1.118-2.188 1.719-12.044 8.157-12.717 8.047-.842 14.476 3.967 14.476 7.669 0 3.701 2.18 10.095 8.383 18.172 6.203 8.077 4.862 8.077 3.856 15.144-1.006 7.067 9.221 10.264 3.521 16.994z" class="Vector 9"/>
      <g class="Vector 12">
        <path fill="#8A6564" d="M641.057 476.928c.541-4.171-.9-7.007-1.689-7.904-1.351 1.749-5.743 1.289-7.77.841-5.068 2.354-14.967 7.433-14.021 8.913.946 1.48 16.048-.617 23.48-1.85zM684.471 461.288c-.27 1.883-4.617 4.036-6.757 4.877-2.534 5.045-7.602 14.664-6.926 14.799.845.168 19.426-11.94 19.426-14.799s-5.405-7.231-5.743-4.877zM639.368 334.067c-7.162-2.556-6.363-10.819-5.068-14.63 1.859.84 5.068-1.682 6.757-1.682 1.69 0 2.703 3.195 4.223 5.045 1.521 1.85 5.406 2.186 4.224 3.7-.946 1.211-3.21 4.316-4.224 5.718.564 1.513 1.622 4.977 1.352 6.726-.27 1.749-4.955.729-7.264 0v-4.877zM650.01 287.821c0 3.363 3.154 4.54 4.73 4.708 1.295-.392 3.886-1.379 3.886-2.186 0-1.009-.845-2.522-1.521-1.682-.676.841-4.054 1.178-4.392.505-.338-.673-2.703-3.027-2.703-1.345zM631.091 292.529c-1.216 0-3.773-1.457-4.899-2.186 2.196-6.222 4.561-4.372 4.561-2.859 0 1.514 1.351 1.177 2.196 1.177.845 0 2.365-1.177 2.365 0 0 1.178-2.703 3.868-4.223 3.868z"/>
      </g>
      <path fill="#C3B7B6" d="M657.23 376.62c-1.481-1.213-18.455.505-26.757 1.516l-3.03 90.962h13.968l2.188-74.623c2.412 7.693 7.236 24.055 7.236 27.963 0 3.908 14.585 32.735 21.878 46.66l11.948-7.075c-5.777-12.746-17.771-39.316-19.521-43.628-2.188-5.39-6.058-40.259-7.91-41.775z" class="Vector 11"/>
      <path fill="#EE7E79" d="M646.206 336.387c-4.159 3.502-7.099 1.459-8.049 0-4.528-5.611-13.785-17.204-14.59-18.685-1.006-1.852 6.54-22.558 6.54-23.737 0-.943-3.242-2.076-4.863-2.525-2.851 7.239-8.687 22.625-9.224 26.262-.536 3.636 9.727 19.696 14.926 27.271l-2.18 31.985c4.695 6.733 22.863 1.571 31.36-1.852-1.286-9.595-3.589-29.056-2.516-30.133 1.342-1.347 12.242-24.746 12.242-27.271 0-2.526-9.559-25.757-10.229-26.262-.537-.404-4.249 1.515-6.038 2.525 2.739 7.632 8.218 23.433 8.218 25.588 0 2.155-7.603 12.121-11.404 16.834h-4.193z" class="color 1_2"/>
    </g>
    <g class="Group 2.1_2">
      <path fill="#FFCB56" d="M404.35 446.935c7.702.504 13.326-9.871 15.175-15.121-5.548-4.725-1.305-12.128-3.59-11.183-2.284.945-15.338-4.095-18.928 4.725-3.59 8.82-2.285 20.949 7.343 21.579z" class="color 2_2"/>
      <g class="Vector 17">
        <path fill="#4B5361" d="M465.924 579.15c4.353 0 5.655-1.687 5.762-2.531.747 1.634 2.432 4.903 3.201 4.903.96 0 12.324-2.372 11.203 0-1.12 2.372-10.563 5.219-12.164 4.112-1.28-.886-2.027.369-2.24 1.107h-5.762c-1.281 0-.534-5.061 0-7.591zM404.463 569.344c1.025 2.657 4.268 3.005 5.762 2.847v5.693c0 3.005 14.085 10.913 5.922 9.964-8.162-.949-15.845-12.652-15.845-14.392 0-1.392 2.774-3.321 4.161-4.112z"/>
      </g>
      <path fill="#EE7E79" d="M467.424 534.482c0-6.883-11.107-35.162-16.66-48.44-7.177 0-23.283 7.329-30.438 10.994 1.068 8.605 3.204 26.706 3.204 30.276 0 3.569-12.923 25.389-19.384 35.852l10.573 10.517c5.554-11.154 17.782-34.61 22.268-39.199 4.485-4.589 5.713-16.996 5.767-22.627 7.817 9.688 14.578 46.635 16.981 63.897l14.257-2.071c-2.189-10.198-6.568-32.315-6.568-39.199z" class="color 1_3"/>
      <path fill="#C3B7B6" d="M395.817 469.078c3.579-7.211 20.342-20.067 28.276-25.593l8.467-11.911 10.862 6.76-5.591 10.946 15.017 34.285c-2.94 11.589-21.992 14.164-31.151 14.003l-8.148-24.949c-2.982 2.415-9.265 7.243-10.543 7.243-1.278 0-5.325-7.189-7.189-10.784z" class="Vector 15"/>
      <g class="Vector 14">
        <path fill="#EDC7C5" d="M414.955 426.41c1.541 0 3.851 3.093 4.814 4.639 1.485 2.08 0 7.198 0 9.917 0 2.176 1.391 3.572 2.086 3.999 3.723 8.19-4.011 8.424-8.344 7.518 0-1.067-.128-3.711-.642-5.758-.642-2.56-1.605-3.999-3.691-3.999s-4.814-2.24-5.456-3.679c-.513-1.152.642-1.76 1.284-1.92.642.107 1.797-.224 1.284-2.399-.642-2.719 1.605-3.679 3.851-3.679 2.247 0 2.889-4.639 4.814-4.639zM432.767 433.768c.642 2.176 4.44 4.426 6.258 5.279 6.259-3.679 9.949-41.108 11.875-43.507 1.926-2.4 3.049-7.198 2.407-7.358-.642-.16-2.888-.64-3.53 1.119-.642 1.76-2.889 3.519-2.889 2.08 0-1.44-1.123-3.039-1.604-1.44-.386 1.28.16 3.199.481 3.999-.535 1.44-1.765 5.886-2.407 12.156-.642 6.271-7.328 21.061-10.591 27.672zM403.722 475.516c-.641-2.175-4.439-4.425-6.258-5.278-6.258 3.679-9.949 41.108-11.874 43.507-1.926 2.399-3.049 7.198-2.407 7.358.641.16 2.888.64 3.53-1.12.642-1.759 2.888-3.519 2.888-2.079 0 1.439 1.124 3.039 1.605 1.439.385-1.279-.16-3.199-.481-3.998.534-1.44 1.765-5.887 2.407-12.157.641-6.27 7.328-21.06 10.59-27.672z"/>
      </g>
    </g>
    <g class="confetti">
      <path fill="#FFCB56" d="M444 208.5l-4.5-12 10-4 4 18.5-9.5-2.5z" class="color 2_3"/>
      <path fill="#FFCB56" d="M710 155.5l6.5-11.5h12l-5 11.5H710z" class="color 2_4"/>
      <path fill="#FFCB56" d="M418.5 254.5L414 244l15.5-6.5 3.5 10-14.5 7z" class="color 2_5"/>
      <path fill="#FFCB56" d="M738.5 218.325c-6-.4-8.833-10.167-9.5-15 3.5-1 10.5-2.4 10.5 0s2 8 3 10.5c4.167-2.667 13.1-8.1 15.5-8.5 3-.5 15.5-2 21.5 3.5 4.8 4.4 5 14.5 4.5 19l-7.5-2.5c0-4.8-5-12.333-7.5-15.5-4.8 0-13.667 5.667-17.5 8.5-1.833.167-7 .4-13 0z" class="color 2_6"/>
      <path fill="#FFCB56" d="M495 118c-1.6-.8-5-8.333-6.5-12-8 2.5-17.5 13.5-21.5 19.5-3.2 4.8-7 20.667-8.5 28 2-.4 9.167 1.167 12.5 2 3.6-2.4 3.5-20 3-28.5l21-9z" class="color 2_7"/>
      <path fill="#FFCB56" d="M716.75 253.216l2.25 5.838-5 1.946-2-9 4.75 1.216z" class="color 2_8"/>
      <path fill="#FFCB56" d="M692 297.182c.789.388 2.466 4.04 3.205 5.818 3.946-1.212 8.631-6.545 10.603-9.455 1.578-2.327 3.452-10.02 4.192-13.575-.986.194-4.521-.566-6.164-.97-1.776 1.164-1.726 9.697-1.48 13.818L692 297.182z" class="color 2_9"/>
      <path fill="#FFCB56" d="M360 155.036l4 7c1.6-2.4 12-2.333 17-2 1.6 3.2-.667 15.333-2 21 2 0 7.167 3 9.5 4.5 2-2 5-27.5-4.5-33.5-7.6-4.8-19.167 0-24 3z" class="color 2_10"/>
      <path fill="#FFCB56" d="M677.5 144l-5.5-10.5 21.5-1.5-4.5 10-11.5 2z" class="color 2_11"/>
      <path fill="#FFCB56" d="M415 303.5v-16l15 5-5.5 14-9.5-3z" class="color 2_12"/>
      <path fill="#FFCB56" d="M709.11 183.551l9.402.106.262-7.897-13.762 1.861 4.098 5.93z" class="color 2_13"/>
      <path fill="#FFCB56" d="M683.746 212.632l8.368.482.612-12.317-7.773.084-1.207 11.751z" class="color 2_14"/>
      <path fill="#FFCB56" d="M650.816 227.287l11.038-3.997-7.197-9.099-8.284 7.291 4.443 5.805z" class="color 2_15"/>
    </g>
  </g>
</svg>
