<svg xmlns="http://www.w3.org/2000/svg" width="1155" height="700" fill="none" viewBox="0 0 1155 700">
  <g class="leave_feedback_man">
    <path fill="#fff" d="M0 0h1155v700H0z"/>
    <g class="Group 11">
      <rect width="245" height="486" x="285" y="150" fill="#E7ECEF" class="Rectangle 4" rx="22"/>
      <g class="Group 10">
        <rect width="105" height="101" x="299" y="222" fill="#fff" fill-opacity=".75" class="Rectangle 5" rx="10"/>
        <g class="Group 8">
          <rect width="105" height="6" x="299" y="337" fill="#fff" class="Rectangle 6" rx="3"/>
          <rect width="76" height="6" x="299" y="346" fill="#fff" class="Rectangle 6.1" rx="3"/>
        </g>
      </g>
      <g class="Group 10_2">
        <rect width="105" height="101" x="414" y="222" fill="#fff" fill-opacity=".75" class="Rectangle 5_2" rx="10"/>
        <g class="Group 8_2">
          <rect width="105" height="6" x="414" y="337" fill="#fff" class="Rectangle 6_2" rx="3"/>
          <rect width="76" height="6" x="414" y="346" fill="#fff" class="Rectangle 6.1_2" rx="3"/>
        </g>
      </g>
      <g class="Group 10_3">
        <rect width="105" height="101" x="299" y="376" fill="#fff" fill-opacity=".75" class="Rectangle 5_3" rx="10"/>
        <g class="Group 8_3">
          <rect width="105" height="6" x="299" y="491" fill="#fff" class="Rectangle 6_3" rx="3"/>
          <rect width="76" height="6" x="299" y="500" fill="#fff" class="Rectangle 6.1_3" rx="3"/>
        </g>
      </g>
      <g class="Group 10_4">
        <rect width="105" height="101" x="414" y="376" fill="#fff" fill-opacity=".75" class="Rectangle 5_4" rx="10"/>
        <g class="Group 8_4">
          <rect width="105" height="6" x="414" y="491" fill="#fff" class="Rectangle 6_4" rx="3"/>
          <rect width="76" height="6" x="414" y="500" fill="#fff" class="Rectangle 6.1_4" rx="3"/>
        </g>
      </g>
      <rect width="115" height="38" x="299" y="530" fill="#fff" class="Rectangle 5_5" rx="8"/>
      <rect width="99" height="38" x="420" y="530" fill="#fff" fill-opacity=".41" class="Rectangle 5.1" rx="8"/>
    </g>
    <g class="Group 7">
      <g class="Group 6">
        <path fill="#FFA9A4" fill-rule="evenodd" d="M543 233.5V262h20.5l-1.5-7-1.5-7-1.688-7.596c16.334 2.398 13.897-17.514 9.688-31.404-6.8-14.8-23.5-12.5-27.5-2-3.41 7.247-.884 16.191 1.071 23.112.338 1.196.659 2.332.929 3.388zm99.5 36c-3.342-2.673-1.914 6.099-.674 13.724.245 1.502.482 2.959.674 4.276l-7.5 22 11.5 8.5 4.5-15 3-7.5c.445-.381.754-.849 1.055-1.305.488-.74.955-1.447 1.945-1.695 2-.5 11.5-11 8-16.5-2.8-4.4-10.5-7.667-12.5-6.5.115-1.26.303-2.657.496-4.09.649-4.822 1.354-10.06-.496-11.91-2.4-2.4-5.5 12.833-6 22.5-.868 0-.982-.621-1.161-1.585-.233-1.259-.574-3.103-2.839-4.915zM476 438l1.5 5c3.5 6.5 7 13 10 10 0 0-9.796-16.371-3.5-16.5 1.09-.023 1.646 1.114 2.231 2.309.642 1.31 1.318 2.691 2.769 2.691 2 0-1.5-14.5-1.5-14.5v-15H476v26z" class="Union" clip-rule="evenodd"/>
        <path fill="#000" fill-opacity=".07" d="M550 257l-5.5-25.5-1.5 1.5v27l7 3.5V257z" class="Vector 12"/>
        <path fill="#FFC98A" d="M504.5 262l37-8c11.2 6.8 19.667 2.833 22.5 0l36 16c.4 4.8 12.167 40.667 18.5 59 3.549-10.758 9.504-28.453 13.209-38.5l-1.709-2 2.5-8 2.5 2.5c.4 2 13.833 18.167 20.5 26l2.5 3-2.5 5.5-2.583-2c-13.287 31.627-24.917 64.691-39.417 60-17-5.5-23-32.5-28-51.5 3.908 15.778 2.702 38.364 2.028 50.974l-.028.526c-14 6-57.833 2.5-78 0v-50c-4.8 8.8-10.667 52.667-13.5 81l-1.5 13-28 2L464 409h2.5c0-45 22.167-113.833 38-147z" class="Vector"/>
        <path fill="#000" fill-opacity=".06" d="M581 307l-2 70h9c2-4.4.167-35-1.5-50 3.6 15.6 10 35 17 41.5l5 4.5-2.5-8s-5-18.5-18-42.5c-2.121-3.915-7-15.5-7-15.5z" class="Vector 11"/>
        <path fill="#000" fill-opacity=".06" d="M488 409.5l8-3.5c4-43 9.333-67.667 13.5-79.5V375l7.5 3-3.5-81-7 14.5c-9.5 16.5-15.833 72.167-18.5 98z" class="Vector 10"/>
        <path fill="#393939" fill-rule="evenodd" d="M542 597v39h-73v-5h.383c-.98-4.339-1.959-12.692 8.618-17.5 4.472-2.033 9.073-2.079 13.68-2.124 6.722-.066 13.456-.133 19.819-6.376.706-.693 1.44-1.291 2.141-1.863 2.068-1.688 3.859-3.15 3.859-6.137v-11.5H542V597z" class="Union_2" clip-rule="evenodd"/>
        <path fill="#000" fill-opacity=".23" d="M469 631h73v5h-73z" class="Rectangle"/>
        <path fill="#393939" d="M565 632v-46h24.5v11.5c0 4 3.212 5.265 6 8 10.724 10.522 22.5 3.5 33.499 8.5 11 5 9.501 13.833 8.501 18H565z" class="Union_3"/>
        <path fill="#000" fill-opacity=".87" d="M638 631.5h-73v5h73z" class="Rectangle_2"/>
        <path fill="#10787E" d="M503.821 589c-5.448-34.942 1.918-154.252 6.679-214 5.035.733 17.871 1.915 22.5 2.384 11.6-87.766-.5-117.355-4-120.884l5-1c9.6 7.6 9.5 84.756 4.5 121.884 14.883 1.195 20.353 1.107 30 .465 3-38.117 8.4-115.349 6-119.349l6 2.5c-2 37.525-4.4 113.214-6 116.384 7.499-.67 10.916-1.511 14-2.384l7 98 3.301 116H602l-3 7h-39l-2.5-7h2.11l-9.11-163.5-3.836 163.5H550l-3.5 7h-41l-3.5-7h1.821z" class="Vector 3"/>
        <path fill="#000" fill-opacity=".13" d="M593 548l-9-171.5 4-2c3.2 8.4 9.5 128 9.5 188.5l-4.5-15z" class="Vector 9"/>
        <path fill="#000" fill-opacity=".13" d="M516.5 425.5L511 375c-2 8.5-10.5 105-8 214.5l3 6.5h21l-10.5-170.5z" class="Vector 7"/>
        <path fill="#0D293E" d="M534.5 195.5c-10.911 14.184.956 29.407 8.078 36.377H545c-1.364-2.727-3-6.376-3-10.377s2.833-2.258 4.5-1.5c-1.5-6-5.028-16.481 4-15.399 7.5.899 12.5-2.5 15 0 0 0 5 2.105 9-2.601 4-4.706 1.152-12.06-4-16-5.092-15.275-15.647-3.978-21.103 3.145-3.273-1.455-11.412 4.385-14.897 6.355z" class="Vector 4"/>
        <path fill="#000" fill-opacity=".13" d="M550.5 426l9.5 163h-2.5l2.5 7h10.5l1.5-7-8.5-79-6-41.5-7-42.5z" class="Vector 8"/>
      </g>
      <g class="Group 7_2">
        <path stroke="#000" stroke-dasharray="5 5" stroke-width="2" d="M593.5 129.5s5.287 28.319 19.5 34c12.163 4.862 21.507-12.284 33-6 15.295 8.363 3.5 44.5 3.5 44.5" class="Vector 5"/>
        <path stroke="#000" stroke-dasharray="5 5" stroke-width="2" d="M686 127s-2.713 31.819 11.5 37.5c12.163 4.862 29.007-14.284 40.5-8 15.295 8.363 4 43 4 43" class="Vector 5.1"/>
        <g class="Group 2">
          <rect width="167" height="74" x="638" y="189" fill="#F7F7F7" class="Rectangle_3" rx="8"/>
          <rect width="141" height="6" x="650" y="203" fill="#E3E3E3" class="Rectangle 2" rx="3"/>
          <rect width="79" height="6" x="650" y="215" fill="#E3E3E3" class="Rectangle 2.1" rx="3"/>
          <rect width="49" height="18" x="650" y="234" fill="#18ABB3" class="Rectangle 3" rx="9"/>
        </g>
        <g class="Group 4">
          <circle cx="589.5" cy="113.5" r="37.5" fill="#F8C5B5" class="Ellipse"/>
          <g class="Group 3">
            <path fill="#F54D4D" d="M589.5 127.5c20.5 0 26 13 26 13s-4.894 4.457-9.5 6.5c-6.134 2.721-11 3.5-18 3.5s-7.5-.5-13.5-2.5-12-9-12-9 4.944-11.5 27-11.5z" class="Vector 6.1"/>
            <g class="Group">
              <path fill="#B58383" d="M602.5 103H584v26.5c3.685 3.351 5.764 3.965 9.5 1.5l-1-9.5c10 2.4 10.5-11.333 10-18.5z" class="Vector 5_2"/>
              <path fill="#000" stroke="#000" stroke-width=".527" d="M580.55 98.312c-6.328 8.226-1.18 17.145 2.951 21.188l1.999.5c-.791-1.582-.5-6.18-.5-8.5 0-2.32 2.229-.972 3.196-.532-1.406-1.055-3.86-5.206 1.055-7.119C594 102 599.5 106 602.434 106l3.566-4c5.695-2.742-.577-6.15-3.566-8.434-2.953-8.86-10.019-2.813-13.183 1.318-1.899-.844-6.68 2.285-8.701 3.428z" class="Vector 4.1"/>
            </g>
          </g>
        </g>
        <g class="Group 5">
          <circle cx="691.5" cy="93.5" r="37.5" fill="#F8C5B5" class="Ellipse_2"/>
          <g class="Group 2_2">
            <path fill="#504DF5" d="M691.5 107.5c20.5 0 26 13 26 13s-4.894 4.457-9.5 6.5c-6.134 2.721-11 3.5-18 3.5s-7.5-.5-13.5-2.5-12-9-12-9 4.944-11.5 27-11.5z" class="Vector 6.2"/>
            <g class="Group_2">
              <path fill="#F3F3F3" d="M704.5 83H686v26.5c3.685 3.351 5.764 3.965 9.5 1.5l-1-9.5c10 2.4 10.5-11.333 10-18.5z" class="Vector 5_3"/>
              <path fill="#000" stroke="#000" stroke-width=".527" d="M682.55 78.312c-6.328 8.226-1.18 17.145 2.951 21.188l1.999.5c-.791-1.582-.5-6.18-.5-8.5 0-2.32 2.229-.972 3.196-.532-1.406-1.055-3.86-5.207 1.055-7.12C696 82 701.5 86 704.434 86L708 82c5.695-2.742-.577-6.15-3.566-8.434-2.953-8.86-10.019-2.813-13.183 1.318-1.899-.844-6.68 2.285-8.701 3.428z" class="Vector 4.1_2"/>
            </g>
          </g>
        </g>
      </g>
    </g>
    <g class="Group 2_3">
      <rect width="121" height="51" x="404" y="293" fill="#F8F8F8" class="Rectangle 4_2" rx="9"/>
      <g class="Star">
        <path fill="#FFAF36" d="M425.049 311.927c.299-.921 1.603-.921 1.902 0l1.07 3.292a1 1 0 00.951.691h3.461c.969 0 1.371 1.239.588 1.809l-2.801 2.034a1 1 0 00-.363 1.118l1.07 3.292c.299.921-.755 1.688-1.539 1.118l-2.8-2.034a1 1 0 00-1.176 0l-2.8 2.034c-.784.57-1.838-.197-1.539-1.118l1.07-3.292a1 1 0 00-.363-1.118l-2.801-2.034c-.783-.57-.381-1.809.588-1.809h3.461a1 1 0 00.951-.691l1.07-3.292z" class="Star_2"/>
      </g>
      <g class="Star_3">
        <path fill="#FFAF36" d="M452.049 311.927c.299-.921 1.603-.921 1.902 0l1.07 3.292a1 1 0 00.951.691h3.461c.969 0 1.371 1.239.588 1.809l-2.801 2.034a1 1 0 00-.363 1.118l1.07 3.292c.299.921-.755 1.688-1.539 1.118l-2.8-2.034a1 1 0 00-1.176 0l-2.8 2.034c-.784.57-1.838-.197-1.539-1.118l1.07-3.292a1 1 0 00-.363-1.118l-2.801-2.034c-.783-.57-.381-1.809.588-1.809h3.461a1 1 0 00.951-.691l1.07-3.292z" class="Star_4"/>
      </g>
      <g class="Star_5">
        <path fill="#FFAF36" d="M479.049 311.927c.299-.921 1.603-.921 1.902 0l1.07 3.292a1 1 0 00.951.691h3.461c.969 0 1.371 1.239.588 1.809l-2.801 2.034a1 1 0 00-.363 1.118l1.07 3.292c.299.921-.755 1.688-1.539 1.118l-2.8-2.034a1 1 0 00-1.176 0l-2.8 2.034c-.784.57-1.838-.197-1.539-1.118l1.07-3.292a1 1 0 00-.363-1.118l-2.801-2.034c-.783-.57-.381-1.809.588-1.809h3.461a1 1 0 00.951-.691l1.07-3.292z" class="Star_6"/>
      </g>
      <g class="Star_7">
        <path fill="#FFAF36" d="M506.049 311.927c.299-.921 1.603-.921 1.902 0l1.07 3.292a1 1 0 00.951.691h3.461c.969 0 1.371 1.239.588 1.809l-2.801 2.034a1 1 0 00-.363 1.118l1.07 3.292c.299.921-.755 1.688-1.539 1.118l-2.8-2.034a1 1 0 00-1.176 0l-2.8 2.034c-.784.57-1.838-.197-1.539-1.118l1.07-3.292a1 1 0 00-.363-1.118l-2.801-2.034c-.783-.57-.381-1.809.588-1.809h3.461a1 1 0 00.951-.691l1.07-3.292z" class="Star_8"/>
      </g>
    </g>
    <path stroke="#000" stroke-opacity=".24" stroke-width="3" d="M236 636h537.5" class="Vector_2"/>
    <g class="Group 6.2">
      <g class="Group 5_2">
        <path fill="#2D5F8C" d="M266.285 551.635c-10.483 39.604 20.772 75.325 38.439 77.46 38.438-85.031-51.252-161.326-45.428-147.348 4.66 11.182 14.008 43.372 6.989 69.888z" class="Vector 5_4"/>
        <path fill="#000" fill-opacity=".13" d="M303.559 627.931c-4.618-40.795-19.651-126.832-43.056-147.399 27.65 23.699 74.038 85.434 43.056 147.399z" class="Vector 6"/>
      </g>
      <g class="Group 4_2">
        <path fill="#3A7EBB" d="M321.032 547.559c-27.024 33.081-22.52 68.918-16.89 82.702 57.659-19.22 30.284-121.141 30.284-110.075 0 8.853-8.929 21.937-13.394 27.373z" class="Vector 3_2"/>
        <path fill="#000" fill-opacity=".08" d="M306.471 629.096c12.425-24.073 35.527-79.091 28.538-106.581 8.542 27.179 14.793 86.546-28.538 106.581z" class="Vector 7_2"/>
      </g>
      <g class="Group 3_2">
        <path fill="#539FE3" d="M258.714 606.964c5.241 19.802 35.332 24.267 45.427 23.879 10.717-35.876-43.68-55.329-68.141-59.988 10.716 10.716 22.131 31.45 22.714 36.109z" class="Vector 4_2"/>
        <path fill="#000" fill-opacity=".11" d="M304.142 629.096c-15.92-17.667-51.718-54.048-67.559-58.241 30.867 25.044 10.483 58.241 67.559 58.241z" class="Vector 8_2"/>
      </g>
    </g>
  </g>
</svg>
