<svg xmlns="http://www.w3.org/2000/svg" width="1152" height="700" fill="none" viewBox="0 0 1152 700">
  <g class="log_in">
    <path fill="#fff" d="M0 0h1152v700H0z"/>
    <path fill="#ECE6E6" d="M727.833 532.589c-74.942-64.76-238.902-66.078-312.258-97.21-98.635-41.858-.001-93.058-52.539-128.69-83.199-56.426 282.52-145.295 556.118-7.61 273.596 137.684-97.643 314.46-191.321 233.51z" class="Vector"/>
    <g class="Group">
      <g class="phone">
        <path fill="#7D8CA6" d="M721.919 232.891v352.174c0 11.835-4.707 17.4-10.151 19.644 21.115-.476 26.394-13.295 26.394-19.644v-360.27c0-22.669-12.182-35.082-18.273-38.456-51.435-29.685-155.521-89.46-160.394-91.08-4.873-1.618-13.39 4.723-17.04 8.097 5.448-2.727 12.625-1.601 17.04 0 44.666 26.311 136.842 80.554 148.212 87.031 11.37 6.477 14.212 31.035 14.212 42.504z" class="color 2"/>
        <path fill="#B6C7E5" d="M555.434 520.291c-21.115-14.573-25.04-39.805-24.364-50.6.677-111.319 2.437-338.006 4.061-354.198.661-6.589 3.586-10.273 7.324-12.144 5.448-2.726 12.625-1.6 17.04 0 44.666 26.312 136.842 80.555 148.212 87.032 11.37 6.477 14.212 31.034 14.212 42.504v352.174c0 11.835-4.707 17.4-10.152 19.644-4.238 1.747-8.923 1.481-12.181.595-39.253-22.263-123.037-70.434-144.152-85.007z" class="Vector 2.2"/>
        <path fill="#fff" d="M551.375 465.647c-4.873-4.857-4.738-10.119-4.061-12.143V133.713c0-4.857 4.061-4.722 6.091-4.048 48.05 27.662 145.37 83.794 150.242 87.032 4.873 3.238 6.091 12.144 6.091 16.192v311.694c0 9.715-6.767 9.445-10.151 8.096-47.374-26.987-143.34-82.174-148.212-87.032z" class="Vector 2.1"/>
      </g>
      <g class="stuff on iphone">
        <path fill="#EDF3FF" d="M571.053 307.86v-29.178l114.629 66.068v27.026L571.053 307.86z" class="Vector 5"/>
        <path fill="#EDF3FF" d="M570.361 354.09v-29.178l114.629 66.067v27.026L570.361 354.09z" class="Vector 5.1"/>
        <path fill="#7D8CA6" d="M593.15 427.287v-29.178l49.375 29.177v27.026l-49.375-27.025z" class="color 2_2"/>
      </g>
    </g>
    <path fill="#EE7E79" d="M660 247.737c0 16.871-4.418 26.428-25.15 22.31-15.634-7.208-26.17-25.742-29.229-38.784C602.562 218.22 601.85 199 621.935 199 642.019 199 660 230.867 660 247.737z" class="color 1"/>
    <path fill="#fff" d="M640 233.246c0 5.623-1.42 8.809-8.084 7.436-5.025-2.402-8.412-8.58-9.395-12.928-.983-4.347-1.212-10.754 5.244-10.754C634.22 217 640 227.622 640 233.246z" class="Ellipse 3.1"/>
    <path fill="#fff" d="M648 269.433c0-9.15-9.633-26.433-20.392-26.433-9.059 0-10.22 7.389-9.383 13.946 4.102 5.695 14.275 17.054 29.762 13.598.009-.363.013-.734.013-1.111z" class="Ellipse 3.2"/>
    <g class="standing">
      <path fill="#4B5361" d="M506.614 327.124c-15.423-2.04-19.844 12.406-20.127 19.883-18.717 6.324-13.391 23.104-8.389 30.703-5.722 3.374-14.848 13.644-5.572 27.728 11.595 17.606 48.337 7.227 56.163-14.615 6.261-17.474-1.018-29.052-5.44-32.657.881-9.497-1.213-29.003-16.635-31.042z" class="Vector 8"/>
      <g class="Vector 7">
        <path fill="#4B5361" d="M468.318 576.151c-.482-4.1 4.399-5.295 6.9-5.38 1.452 1.169 5.292 4.593 9.035 8.947 4.678 5.441 10.812 18.106 9.26 19.359-1.551 1.254-24.593-17.801-25.195-22.926zM556.071 589.652c-1.758-2.096-1.566-5.877-1.25-7.506 4.306-.717 9.438-3.728 11.465-5.144 5.557.65 17.258 2.151 19.605 2.955 2.347.803 2.304 3.266 1.99 4.396l-31.81 5.299z"/>
      </g>
      <path fill="#C4B7B6" d="M538.223 435.915c-6.344-5.223-30.427 2.452-41.676 6.942 4.723 16.685 14.644 52.914 16.548 64.346 1.904 11.431-24.231 43.199-37.537 57.654 4.108 7.621 14.669 13.003 19.436 14.741 12.485-18.876 37.841-57.047 39.387-58.723 1.545-1.675 1.551-14.523 1.361-20.737l12.394 74.406c6.575 2.956 18.522-1.398 23.674-3.944l-33.587-134.685z" class="Vector 6"/>
      <path fill="#DAE4FA" d="M510.221 366.298c-3.144 1.742-10.482 2.254-13.758 2.292-1.829.643-6.149 2.192-8.802 3.243-3.316 1.314-11.045 17.067-12.024 21.798-.783 3.785 5.903 8.66 9.345 10.625l6.016-4.809 6.873 45.805c4.253-7.205 27.321-10.303 38.322-10.952-4.857-16.025-14.212-48.034-12.771-47.868 1.442.166 7.782.734 10.771.998 2.815-3.718 1.192-12.55.029-16.501-6.69-2.269-20.857-6.372-24.001-4.631z" class="Vector 5_2"/>
      <g class="Vector 4">
        <path fill="#EDC7C5" d="M518.164 354.209c.03-8.064-5.686-16.961-8.547-20.402 2.424 6.312-5.901 16.093-10.367 20.195.829 1.541 1.982 5.714-.037 10.079-2.524 5.457-2.161 6.105-.219 7.461 1.942 1.355 11.69-1.948 9.748-3.303-1.554-1.084-.635-2.282-1.179-5.549 3.521.533 10.571-.418 10.601-8.481zM533.741 385.154c-3.129-1.713-2.484-7.798-1.77-10.625 8.123.001 24.913-.087 27.086-.449 2.717-.452 10.495-28.431 10.745-29.98.249-1.55.412-12.767.617-14.58.206-1.812 2.347-1.152 2.347.372 0 1.219.192 4.708.288 6.301 1.441.014 4.446.783 4.94 3.748.494 2.966-2.017 5.162-3.335 5.889-1.839 11.82-6.117 35.813-8.521 37.229-2.404 1.417-22.6 1.987-32.397 2.095zM485.125 401.126c-.494-2.966-5.475-5.438-7.904-6.303-2.113 3.061-6.71 9.702-8.192 11.778-1.482 2.075-19.498-4.795-28.321-8.489-1.276-1.565-13.667-7.375-14.243-7.786-.576-.412-1.235.205-1.07 1.194.131.79 3.622 3.46 5.351 4.696-.563 1.194-1.392 4.143-.206 6.383 1.186 2.241 6.12 1.182 8.439.372 6.82 3.859 21.974 12.137 28.033 14.378 6.06 2.242 14.6-9.881 18.113-16.223z"/>
      </g>
    </g>
    <g class="Group 2.3">
      <path fill="#7D8CA6" d="M368 330.774V276.62L497 199v52.349l-129 79.425z" class="color 2_3"/>
      <path fill="#EDF3FF" d="M406.838 278.064v-7.704l82.532-49.86v5.891l-82.532 51.673z" class="Vector_2"/>
      <path fill="#EDF3FF" d="M408.227 291.935v-4.773l83.919-50.017v2.955l-83.919 51.835z" class="Vector_3"/>
      <ellipse cx="390.193" cy="293.67" fill="#EE7E79" class="color 1_2" rx="13.177" ry="14.218"/>
    </g>
    <g class="plant">
      <path fill="#FFEEC7" d="M763.976 312.739c7.752 2.434 13.654 16.145 15.636 22.696 1.327 2.176 4.292 5.128 5.536-.466 1.554-6.993 8.183-14.842 12.83-15.662.999 5.061 1.748 15.633-3.247 17.427-6.244 2.241-12.621 13.071-5.597 9.906 7.023-3.165 9.675-12.394 25.681-10.742-1.334 4.972-7.215 16.218-20.064 21.418-16.062 6.5-13.185 16.55-4.602 11.538 8.583-5.012 16.417-13.821 31.535-12.523-1.306 6.543-6.36 20.177-16.124 22.373-12.205 2.744-31.751 9.967-28.34 14.826 3.412 4.858 24.333-11.486 34.163-11.886 7.863-.32 13.307.164 15.046.446-1.448 6.555-8.248 20.165-23.861 22.167-19.515 2.503-37.537 7.454-31.889 13.41s18.869-10.168 35.157-10.255c13.031-.069 15.581 1.688 15.227 2.576-1.687 5.431-9.665 16.596-28.088 17.806-23.03 1.513-31.649 6.099-28.201 11.384 3.447 5.284 19.043-13.185 45.489-4.694-2.68 5.515-11.112 16.718-23.404 17.412-15.365.866-37.717 5.324-34.09 12.737 3.627 7.414 20.716-8.608 36.332-6.494 12.493 1.691 12.493 2.377 10.932 2.509-.728 4.922-5.329 15.115-17.904 16.519-15.719 1.754-44.992 5.509-42.889 15.195 2.103 9.686 13.872-3.314 24.266-7.192 8.315-3.103 20.852-1.902 26.082-.913-2.668 5.657-10.566 17.101-20.814 17.622-12.81.651-42.575 8.736-42.073 14.697.503 5.961 13.698-.297 21.183-3.073 7.485-2.775 18.659-7.577 29.237-4.18-.539 5.477-5.363 16.748-20.352 18.011-18.735 1.58-34.988 2.093-34.342 9.757.647 7.665 6.916-4.442 21.609-3.108 11.754 1.067 17.415 3.106 18.776 3.992-1.924 4.307-8.362 12.712-18.725 11.87-12.954-1.051-32.294-1.565-30.868 5.176 1.426 6.741 13.056-2.816 20.012-1.687 5.566.903 12.21 2.401 14.837 3.037-1.061 4.378-8.484 12.294-29.694 8.936-3.88-.244-11.313.097-10.004 3.417 1.637 4.15 16.571-1.826 21.542 1.185-.636 2.627-3.648 7.598-10.604 6.469-6.957-1.129-16.545 3.825-20.47 6.443-.186-1.985-1.137-6.765-3.445-10.001-1.063-3.425-3.371-7.546-7.292-10.535-9.624-7.336-10.701-20.11-7.72-20.362 2.98-.251 10.732 15.391 14.102 14.678 3.371-.713-2.103-9.686-8.249-16.458-4.916-5.417-5.116-18.294-4.601-24.055 2.96 2.895 9.272 10.282 10.84 16.668l.114.465c1.899 7.745 3.28 13.375 7.35 11.77 4.15-1.636-2.996-15.185-9.891-25.753-5.516-8.455-3.878-22.258-2.37-28.103 2.191 2.245 7.354 7.871 10.481 12.41 3.909 5.674 5.381 23.132 9.388 19.792 4.007-3.339-6.443-20.469-14.087-34.834-6.115-11.492-1.857-23.715 1.037-28.39 2.746 2.055 8.219 7.969 8.141 15.18-.097 9.014 6.597 32.464 12.235 28.129 5.638-4.335-9.116-31.823-12.604-42.678-2.791-8.685 1.543-18.999 4.059-23.071 3.693 3.12 6.751 8.866 9.136 16.812 2.385 7.947 6.453 30.761 13.189 24.189 6.736-6.571-9.362-29.657-16.256-40.226-5.516-8.454-2.743-22.354-.667-28.247 3.16 1.878 12.682 13.083 14.605 20.639 1.924 7.557 8.331 27.601 12.866 20.357 4.536-7.244-12.696-28.519-18.739-39.159-4.835-8.512-2.767-22.638-1.129-28.636 12.041 10.563 15.991 21.808 16.529 28.195.539 6.387 7.834 26.785 11.769 22.594 3.935-4.191-5.848-28.668-14.693-36.927-7.075-6.608-7.626-20.942-7.017-27.283 1.775.708 17.473 13.965 17.904 19.074.431 5.11 3.242 13.021 8.146 20.326 4.905 7.306 7.475-13.066-8.577-25.435-12.842-9.896-13.89-27.418-12.809-34.942 25.429 21.87 11.983 25.148 25.301 35.604 13.318 10.455 5.561-10.332-6.797-19.582-9.887-7.4-12.256-24.983-12.204-32.849 10.717-.046 18.796 24.574 26.681 31.628 7.885 7.054 8.475-6.289-4.452-17.207-10.343-8.733-11.711-23.599-11.102-29.94 7.88 1.909 12.785 9.215 18.192 22.481 5.407 13.267 10.224 4.284 3.863-5.043-5.089-7.461-6.18-17.347-6.089-21.357z" class="Vector 3"/>
      <path fill="#FFCB56" d="M749.101 451.649c-36.38 66.963-45.532 105.901-50.263 131.172-.186-1.985-1.137-6.765-3.445-10.001-1.063-3.425-3.371-7.546-7.292-10.535-9.624-7.336-10.701-20.11-7.72-20.362 2.98-.251 10.732 15.391 14.102 14.678 3.371-.713-2.103-9.686-8.249-16.458-4.916-5.417-5.116-18.294-4.601-24.055 2.96 2.895 9.272 10.282 10.84 16.668l.114.465c1.899 7.745 3.28 13.375 7.35 11.77 4.15-1.636-2.996-15.185-9.891-25.753-5.516-8.455-3.878-22.258-2.37-28.103 2.191 2.245 7.354 7.871 10.481 12.41 3.909 5.674 5.381 23.132 9.388 19.792 4.007-3.339-6.443-20.469-14.087-34.834-6.115-11.492-1.857-23.715 1.037-28.39 2.746 2.055 8.219 7.969 8.141 15.18-.097 9.014 6.597 32.464 12.235 28.129 5.638-4.335-9.116-31.823-12.604-42.678-2.791-8.685 1.543-18.999 4.059-23.071 3.693 3.12 6.751 8.866 9.136 16.812 2.385 7.947 6.453 30.761 13.189 24.189 6.736-6.571-9.362-29.657-16.256-40.226-5.516-8.454-2.743-22.354-.667-28.247 3.16 1.878 12.682 13.083 14.605 20.639 1.924 7.557 8.331 27.601 12.866 20.357 4.536-7.244-12.696-28.519-18.739-39.159-4.835-8.512-2.767-22.638-1.129-28.636 12.041 10.563 15.991 21.808 16.529 28.195.539 6.387 7.834 26.785 11.769 22.594 3.935-4.191-5.848-28.668-14.693-36.927-7.075-6.608-7.626-20.942-7.017-27.283 1.775.708 17.473 13.965 17.904 19.074.431 5.11 3.242 13.021 8.146 20.326 4.905 7.306 7.475-13.066-8.577-25.435-12.842-9.896-13.89-27.418-12.809-34.942 25.429 21.87 11.983 25.148 25.301 35.604 13.318 10.455 5.561-10.332-6.797-19.582-9.887-7.4-12.256-24.983-12.204-32.849 10.717-.046 18.796 24.574 26.681 31.628 7.885 7.054 8.475-6.289-4.452-17.207-10.343-8.733-11.711-23.599-11.102-29.94 7.88 1.909 12.785 9.215 18.192 22.481 5.407 13.267 10.224 4.284 3.863-5.043-5.089-7.461-6.18-17.347-6.089-21.357 7.752 2.434 13.654 16.145 15.636 22.696 1.956 16.417-1.408 62.643-30.511 116.214z" class="Vector 3.1"/>
    </g>
  </g>
</svg>
