<svg xmlns="http://www.w3.org/2000/svg" width="800" height="600" fill="none" viewBox="0 0 800 600">
  <g class="male_two_on_couch">
    <path fill="#fff" d="M0 0h800v600H0z"/>
    <path fill="#F4F2E3" d="M130.736 213.94c9.275 34.615 44.856 55.158 79.471 45.882l293.397-78.615c35.477-9.506 56.53-45.971 47.024-81.448l-4.781-17.844c-2.789-10.408-13.487-16.585-23.896-13.796l-363.215 97.323c-21.124 5.66-33.66 27.373-28 48.498z" class="Rectangle"/>
    <path fill="#EFF0E1" fill-rule="evenodd" d="M680.38 168.486C665.883 85.099 586.306 29.429 503.003 44.397L204.512 98.032C95.712 117.58 23.662 222.01 44.009 330.664l9.37 50.037c16.272 86.89 102.724 141.831 188.301 119.666l338.797-87.749c76.954-19.931 125.727-95.588 112.111-173.906l-12.208-70.226z" class="Primary" clip-rule="evenodd"/>
    <path fill="#fff" fill-opacity=".28" d="M130.736 213.94c9.275 34.616 44.856 55.158 79.471 45.883l293.397-78.616c35.477-9.505 56.53-45.971 47.024-81.447l-4.781-17.844c-2.789-10.409-13.487-16.586-23.896-13.797l-363.215 97.324c-21.124 5.66-33.66 27.373-28 48.497z" class="Rectangle_2"/>
    <path fill="#000" fill-opacity=".06" fill-rule="evenodd" d="M206.748 260.651c-33.496 7.064-67.045-13.248-76.012-46.711-5.363-20.017 5.613-40.564 24.753-47.478-.934.151-1.868.351-2.801.601l-17.157 4.597c-24.411 6.541-38.897 31.632-32.356 56.042L144.38 381.48c1.689 6.305 8.17 10.047 14.474 8.357 42.516-11.392 67.747-55.093 56.355-97.609l-8.461-31.577z" class="Subtract" clip-rule="evenodd"/>
    <path fill="#000" fill-opacity=".06" fill-rule="evenodd" d="M623 253.234c1.689 6.305-2.052 12.785-8.357 14.474-42.516 11.393-86.217-13.838-97.609-56.354l-8.488-31.676c32.461-11.429 51.138-46.123 42.082-79.919l-4.781-17.843c-2.789-10.409-13.488-16.586-23.896-13.797l-13.518 3.622.163-.044 17.157-4.597c24.411-6.54 49.502 7.945 56.042 32.356L623 253.234z" class="Subtract_2" clip-rule="evenodd"/>
    <path fill="#fff" fill-opacity=".49" fill-rule="evenodd" d="M499.022 60.407c79.271-14.528 154.306 35.66 167.253 111.87l10.903 64.182c12.159 71.577-34.914 141.333-108.203 160.342l-322.664 83.691c-81.502 21.139-163.075-28.314-177.673-107.714l-8.406-45.723c-18.255-99.287 51.212-195.619 154.745-214.593l284.045-52.056zm115.621 207.301c6.305-1.689 10.047-8.169 8.357-14.474L581.796 99.456c-6.541-24.41-31.632-38.897-56.042-32.356l-17.158 4.597-.219.06-349.641 93.686a39.978 39.978 0 00-3.244 1.018c-.935.151-1.87.351-2.804.601l-17.158 4.598c-24.41 6.54-38.896 31.631-32.355 56.042l41.204 153.778c1.69 6.305 8.17 10.046 14.475 8.357 10.138-2.717 19.293-7.27 27.203-13.206 3.374 9.309 13.374 14.645 23.116 12.035l361.307-96.812c9.743-2.61 15.734-12.232 14.002-21.981 9.818 1.186 20.024.552 30.161-2.165z" class="Subtract_3" clip-rule="evenodd"/>
    <g class="Group 22">
      <path fill="#000" d="M418.472 296.733a.25.25 0 10-.487-.115l.487.115zm-14.497 18.859a.25.25 0 10.199.459l-.199-.459zm14.01-18.974c-.566 2.392-1.951 6.223-4.259 9.916-2.309 3.694-5.527 7.227-9.751 9.058l.199.459c4.352-1.887 7.638-5.511 9.976-9.252 2.339-3.742 3.744-7.625 4.322-10.066l-.487-.115z" class="Vector 2"/>
      <path fill="#000" d="M418.47 295.676a.25.25 0 00-.141-.324.249.249 0 00-.324.141l.465.183zm-14.801 14.025a.25.25 0 00.14.48l-.14-.48zm14.336-14.208c-.741 1.882-2.352 4.863-4.77 7.662-2.418 2.799-5.629 5.398-9.566 6.546l.14.48c4.06-1.184 7.348-3.856 9.805-6.699 2.456-2.843 4.096-5.874 4.856-7.806l-.465-.183z" class="Vector 2.1"/>
    </g>
    <path fill="#444" d="M415.919 308.406c2.4 1.652 6.649 2.303 7.688.963-1.526-3.913-5.981-14.225-5.32-12.499.662 1.726-2.093 3.018-3.554 3.448-.546 1.003 1.266 1.718 2.24 1.951.137.748-1.008 1.331-1.599 1.53a2.3 2.3 0 001.872 2.287c.229.774-.789 1.869-1.327 2.32z" class="Vector"/>
    <path fill="#3B3B3B" d="M507.167 255.964c.824-2.795.119-7.035-1.478-7.605-3.243 2.668-11.655 10.113-10.221 8.947 1.434-1.166 3.52 1.05 4.383 2.304 1.123.206 1.239-1.738 1.157-2.736.668-.364 1.579.544 1.951 1.043a2.3 2.3 0 001.591-2.491c.664-.459 2.022.168 2.617.538z" class="Vector_2"/>
    <g class="Group 21">
      <g class="Group 20">
        <rect width="7.916" height="32.776" fill="#3B3B3B" class="Rectangle_3" rx="3.958" transform="scale(-1 1) rotate(-78.364 -42.662 415.39)"/>
        <path fill="#3C3C3C" d="M495.92 281.217c-8.71 21.632-31.461 32.85-50.816 25.057-19.354-7.793-23.701-33.398-12.836-50.686 12.699-20.207 23.05-30.541 42.405-22.748 19.354 7.794 29.957 26.746 21.247 48.377z" class="Ellipse"/>
        <path fill="#444" d="M417.839 291.786c1.13-1.74 6.391-5.526 7.691-5.308 1.249 4.961-6.869 14.634-6.869 14.634s-2.234-7.152-.822-9.326z" class="Vector 3"/>
        <path fill="#3B3B3B" d="M508.842 236.986l-3.496-.179 3.496.179zm-49.11-26.794a3.499 3.499 0 102.454 6.555l-2.454-6.555zm35.344 47.598c7.099-2.334 16.692-9.515 17.261-20.624l-6.991-.359c-.361 7.047-6.784 12.469-12.456 14.334l2.186 6.649zm17.261-20.624c.611-11.904-8.522-20.458-18.901-24.982-10.474-4.564-23.652-5.755-33.704-1.992l2.454 6.555c7.981-2.987 19.245-2.158 28.453 1.855 9.303 4.054 15.096 10.633 14.707 18.205l6.991.359z" class="Vector_3"/>
        <path fill="#444" d="M460.536 308.749c-4.919 12.918-13.822 16.078-26.07 11.414-12.247-4.664-18.589-17.682-15.273-26.03 4.452-11.21 17.508-12.943 29.756-8.279 12.247 4.664 16.146 10.923 11.587 22.895z" class="Ellipse 2"/>
        <path fill="#575757" d="M456.506 280.701c-4.037.883-13.32 6.219-17.456 8.777 3.727 3.796 11.942 10.767 14.99 8.276 3.048-2.491 2.914-12.407 2.466-17.053z" class="Vector 2_2"/>
        <path fill="#575757" d="M431.165 314.39c-.55 4.095 6.416 14.497 7.407 19.259 4.841-2.205 8.48-13.728 8.48-13.728s-11.367-4.365-15.887-5.531z" class="Vector 2.1_2"/>
        <path fill="#111" d="M416.497 291.253c-.614 1.158.221 3.139.754 4.093.807 1.443 3.972-5.534 4.01-6.519.01-.259-4.038 1.055-4.764 2.426z" class="Vector 3_2"/>
        <rect width="7.916" height="32.776" x="442.401" y="264.867" fill="#3B3B3B" class="Rectangle_4" rx="3.958" transform="rotate(70.667 442.401 264.867)"/>
        <rect width="7.916" height="32.776" x="462.776" y="229.801" fill="#3B3B3B" class="Rectangle_5" rx="3.958" transform="rotate(70.667 462.776 229.801)"/>
      </g>
    </g>
    <g class="Group 22.1">
      <path fill="#000" d="M424.084 288.692a.25.25 0 11-.266-.423l.266.423zm13.157-19.816a.25.25 0 01.499.039l-.499-.039zm-13.423 19.393c2.08-1.31 5.258-3.859 8.006-7.237 2.749-3.379 5.051-7.567 5.417-12.156l.499.039c-.378 4.728-2.744 9.01-5.528 12.433-2.785 3.423-6.005 6.008-8.128 7.344l-.266-.423z" class="Vector 2_3"/>
      <path fill="#000" d="M423.083 289.033a.25.25 0 11-.323-.381l.323.381zm8.485-18.541a.25.25 0 01.5-.023l-.5.023zm-8.808 18.16c1.541-1.309 3.841-3.798 5.708-6.991 1.866-3.193 3.287-7.073 3.1-11.169l.5-.023c.192 4.225-1.273 8.2-3.169 11.444-1.896 3.244-4.233 5.776-5.816 7.12l-.323-.381z" class="Vector 2.1_3"/>
    </g>
    <path fill="#444" d="M434.283 284.651c.545-1.606-4.716-3.238-4.716-3.238s.072 1.88-.701 2.116c-.421-.452-2.989-1.436-2.989-1.436s.407 4.32-.011 3.564c-1.364-2.468-4.117-1.961-4.117-1.961s1.448 4.417.873 6.104c-.763.463-1.059.726-.603.625.297-.066.489-.292.603-.625 2.255-1.368 8.593-4.488 11.661-5.149z" class="Vector_4"/>
    <path stroke="#000" stroke-linejoin="bevel" d="M429.195 288.877c-1.731-.397-4.075 1.045-3.943 2.782" class="Vector 2_4"/>
    <path stroke="#000" d="M422.239 298.774c-1.613 1.269-1.65 3.705-.403 4.842" class="Vector 2.1_4"/>
    <path fill="#575757" d="M415.466 290.208c.208 1.127-1.834 2.449-2.961 2.656a2.076 2.076 0 11-.752-4.083c1.127-.208 3.506.299 3.713 1.427z" class="Ellipse_2"/>
    <path fill="#F58F49" d="M297.267 399.277c2.485 9.272 12.015 14.775 21.288 12.29l.523-.14a8.69 8.69 0 006.145-10.644l-3.719-13.881-25.707 6.888 1.47 5.487z" class="Rectangle 7"/>
    <path fill="#F58F49" d="M390.241 401.389c3.879 8.695-.156 18.878-8.937 22.555-4.59 1.922-9.841-.503-11.354-5.243l-8.705-27.269 22.855-3.808 6.141 13.765z" class="Rectangle 7.1"/>
    <g class="Group 3.1">
      <path fill="#2784CF" d="M374.077 399.48c29.578-3.093 19.739-41.745 18.339-61.442-1.864-12.472-13.69-8.903-26.287-8.314-15.505.726-37.83 4.018-34.769 19.229 4.579 22.753 20.77 52.822 42.717 50.527z" class="Rectangle 3.1"/>
    </g>
    <g class="Group 3.2">
      <path fill="#2784CF" d="M313.585 395.726c22.9-6.136 20.516-28.029 17.927-46.206-1.17-16.393-15.638-14.859-31.043-9.135l-12.35 4.589c-12.724 4.728-23.009 10.114-16.833 22.201 8.394 17.128 19.826 34.572 42.299 28.551z" class="Rectangle 3.1_2"/>
    </g>
    <g class="Group 3">
      <rect width="62.721" height="121.047" fill="#2E90DF" class="Rectangle 3" rx="31.36" transform="scale(1 -1) rotate(15 1642.799 860.578)"/>
      <rect width="62.721" height="121.047" fill="#2E90DF" class="Rectangle 3.1_3" rx="31.36" transform="scale(1 -1) rotate(15 1611.48 1098.498)"/>
    </g>
    <path fill="#F3EDED" d="M278.107 359.255l102.852-27.559-12.861-47.998-102.851 27.559 12.86 47.998z" class="Rectangle 3_2"/>
    <path fill="#C5C5C5" d="M278.518 382.998l115.51-30.95-13.025-20.364-103.141 27.637.656 23.677z" class="Rectangle 4"/>
    <path fill="#F3EDED" d="M282.801 379.878l105.958-28.391-11.949-18.679-94.611 25.351.602 21.719z" class="Rectangle 4.1"/>
    <path fill="#fff" d="M290.907 377.706l89.744-24.047-10.957-18.945-80.133 21.472 1.346 21.52z" class="Rectangle 4.2"/>
    <path fill="#FBF5F5" d="M294.506 370.153l79.252-21.236-7.127-13.382-73.202 19.614 1.077 15.004z" class="Rectangle 4.4"/>
    <path fill="#FBF5F5" d="M290.638 374.065l88.148-23.619-1.983-3.45-86.463 23.168.298 3.901z" class="Rectangle 4.3"/>
    <path fill="#fff" d="M279.604 387.331l115.533-30.957-1.227-4.58-115.533 30.958z" class="Rectangle 5"/>
    <g class="Group 6">
      <rect width="4.845" height="3.755" fill="#E7E7E7" class="Rectangle 6" rx="1.877" transform="scale(1 -1) rotate(15 1478.3 937.459)"/>
      <rect width="4.845" height="3.755" fill="#E7E7E7" class="Rectangle 6.2" rx="1.877" transform="scale(1 -1) rotate(15 1471.464 989.425)"/>
      <rect width="4.845" height="3.755" fill="#E7E7E7" class="Rectangle 6.4" rx="1.877" transform="scale(1 -1) rotate(15 1464.624 1041.393)"/>
      <rect width="4.845" height="3.755" fill="#E7E7E7" class="Rectangle 6.6" rx="1.877" transform="scale(1 -1) rotate(15 1457.78 1093.356)"/>
      <rect width="4.845" height="3.755" fill="#E7E7E7" class="Rectangle 6.8" rx="1.877" transform="scale(1 -1) rotate(15 1450.94 1145.32)"/>
      <rect width="4.845" height="3.755" fill="#E7E7E7" class="Rectangle 6.10" rx="1.877" transform="scale(1 -1) rotate(15 1444.096 1197.287)"/>
    </g>
    <g class="Group 6.1">
      <rect width="4.845" height="3.755" fill="#E7E7E7" class="Rectangle 6_2" rx="1.877" transform="scale(1 -1) rotate(15 1442.89 932.794)"/>
      <rect width="4.845" height="3.755" fill="#E7E7E7" class="Rectangle 6.2_2" rx="1.877" transform="scale(1 -1) rotate(15 1436.046 984.761)"/>
      <rect width="4.845" height="3.755" fill="#E7E7E7" class="Rectangle 6.4_2" rx="1.877" transform="scale(1 -1) rotate(15 1429.205 1036.725)"/>
      <rect width="4.845" height="3.755" fill="#E7E7E7" class="Rectangle 6.6_2" rx="1.877" transform="scale(1 -1) rotate(15 1422.366 1088.692)"/>
      <rect width="4.845" height="3.755" fill="#E7E7E7" class="Rectangle 6.8_2" rx="1.877" transform="scale(1 -1) rotate(15 1415.522 1140.655)"/>
      <rect width="4.845" height="3.755" fill="#E7E7E7" class="Rectangle 6.10_2" rx="1.877" transform="scale(1 -1) rotate(15 1408.682 1192.622)"/>
    </g>
    <g class="Group 6.2">
      <rect width="4.845" height="3.755" fill="#E7E7E7" class="Rectangle 6_3" rx="1.877" transform="scale(1 -1) rotate(15 1407.468 928.134)"/>
      <rect width="4.845" height="3.755" fill="#E7E7E7" class="Rectangle 6.2_3" rx="1.877" transform="scale(1 -1) rotate(15 1400.632 980.1)"/>
      <rect width="4.845" height="3.755" fill="#E7E7E7" class="Rectangle 6.4_3" rx="1.877" transform="scale(1 -1) rotate(15 1393.787 1032.06)"/>
      <rect width="4.845" height="3.755" fill="#E7E7E7" class="Rectangle 6.6_3" rx="1.877" transform="scale(1 -1) rotate(15 1386.947 1084.028)"/>
      <rect width="4.845" height="3.755" fill="#E7E7E7" class="Rectangle 6.8_3" rx="1.877" transform="scale(1 -1) rotate(15 1380.108 1135.995)"/>
      <rect width="4.845" height="3.755" fill="#E7E7E7" class="Rectangle 6.10_3" rx="1.877" transform="scale(1 -1) rotate(15 1373.264 1187.962)"/>
    </g>
    <path fill="#E7E7E7" d="M300.531 321.635l42.2-11.307-3.931-14.669-42.2 11.307z" class="Rectangle 6_4"/>
    <path fill="#F1D19D" d="M245.317 261.69c6.686 24.951 32.333 39.758 57.284 33.073l27.829-7.457c23.921-6.41 38.117-30.998 31.707-54.919a6.78 6.78 0 00-8.306-4.795l-105.083 28.157a4.851 4.851 0 00-3.431 5.941z" class="Rectangle 2.1"/>
    <g class="Group 13">
      <g class="Group 4">
        <path fill="#FADCAC" d="M366.08 294.638l-23.215-77.903 45.22-2.495 18.557 75.764-40.562 4.634z" class="Rectangle 2.2"/>
      </g>
      <g class="Group 4.2">
        <path fill="#FADCAC" d="M274.342 321.786l-19.66-81.423-42.697 16.719 23.352 75.155 39.005-10.451z" class="Rectangle 2.2_2"/>
      </g>
    </g>
    <path fill="#66B6E0" fill-rule="evenodd" d="M298.157 278.22c15.417-2.764 27.595-6.734 43.313-15.372a2.652 2.652 0 012.21-.162c-16.495 9.192-29.924 13.99-42.791 16.524-12.844 2.53-25.186 2.812-29.014 2.375-.428-.049-.64-.349-.474-.671.166-.321.647-.542 1.075-.493 3.55.406 13.011.294 25.681-2.201z" class="Vector 9 (Stroke).1" clip-rule="evenodd"/>
    <path fill="#F1D19D" d="M210.004 272.801c2.768 10.332 14.722 16.107 26.698 12.897l144.402-38.692c11.977-3.209 19.441-14.187 16.673-24.519l-.218-.813c-13.102-48.896-202.887-6.093-187.773 50.313l.218.814z" class="Rectangle 2"/>
    <g class="Group 5">
      <path fill="#F5B73C" d="M323.421 281.282s-3.574 3.887-13.055 4.279c-5.648.234-13.537-.81-20.214-5.804-10.654-7.969-10.907-14.855-10.791-23.175-.991-3.697 39.981-3.448 61.542-7.575.127 5.997-1.786 16.678-6.368 23.732-2.142 3.297-11.114 8.543-11.114 8.543z" class="Vector_5"/>
      <path fill="#D08E0D" d="M314.905 287.458c-2.08.359-5.087-1.756-7.65-6.321 0 0-.136-3.871 4.58-5.135 3.844-1.029 6.405 2.768 6.405 2.768.226 4.229-1.256 8.329-3.335 8.688z" class="Vector 2_5"/>
    </g>
    <g class="Group 12">
      <g class="Group 8">
        <path fill="#EBEBEB" fill-opacity=".7" stroke="#2A7BBC" stroke-width="1.256" d="M308.739 281.305l-.002-.002.002.002zm-.448.211c.141-.112.238-.206.302-.28a2.225 2.225 0 00-.402-.093c-.514-.078-1.269-.084-2.229-.009-1.91.152-4.507.62-7.329 1.376-2.822.757-5.305 1.649-7.035 2.473-.87.415-1.52.798-1.926 1.122a2.324 2.324 0 00-.302.281c.092.032.224.066.402.093.514.077 1.269.084 2.229.008 1.91-.151 4.506-.619 7.329-1.376 2.822-.756 5.305-1.648 7.035-2.472.869-.415 1.52-.798 1.926-1.123zm-19.013 5.003l.001-.002-.001.002zm-.054-.202l.002.002-.002-.002zm19.46-5.212l.001-.003-.001.003z" class="Ellipse 3"/>
      </g>
      <g class="Group 8.1">
        <path fill="#EBEBEB" fill-opacity=".7" stroke="#2A7BBC" stroke-width="1.256" d="M336.714 273.809l-.002-.002.002.002zm-.449.212c.141-.113.238-.207.302-.281a2.183 2.183 0 00-.402-.093c-.513-.077-1.268-.084-2.229-.008-1.91.151-4.506.619-7.328 1.376-2.823.756-5.306 1.648-7.035 2.472-.87.415-1.52.798-1.926 1.122a2.324 2.324 0 00-.302.281c.092.033.223.066.402.093.513.077 1.268.084 2.229.008 1.91-.151 4.506-.619 7.328-1.376 2.823-.756 5.306-1.648 7.035-2.472.87-.415 1.521-.798 1.926-1.122zm-19.013 5.003l.001-.003-.001.003zm-.054-.203l.003.002-.003-.002zm19.461-5.212l.001-.002-.001.002z" class="Ellipse 3_2"/>
      </g>
    </g>
    <path stroke="#FBFBF6" stroke-linecap="round" stroke-width="1.448" d="M291.724 281.674c2.494-1.634 7.916-2.689 11.524-2.387" class="Vector_6"/>
    <path fill="#D08E0D" d="M272.58 261.994a3.145 3.145 0 006.095-1.549l-4.172-16.415a3.144 3.144 0 10-6.094 1.549l4.171 16.415z" class="Rectangle 7_2"/>
    <path fill="#521F20" fill-opacity=".2" d="M240.783 298.37c.196-1.278 1.321-4.288.061-4.482-1.261-.193-4.005 2.163-4.201 3.441-.196 1.277-.904 4.733.357 4.927 1.261.194 3.587-2.609 3.783-3.886z" class="Ellipse 3.2"/>
    <path fill="#521F20" fill-opacity=".2" d="M388.298 250.553c-.672-.574-1.904-2.447-2.694-1.52-.791.926-.82 3.854-.148 4.428.672.574 2.398 2.265 3.189 1.339.79-.926.325-3.673-.347-4.247z" class="Ellipse 3.3"/>
    <ellipse fill="#FE5959" class="Ellipse 4" rx="1.346" ry=".49" transform="scale(1 -1) rotate(15 1569.061 929.586)"/>
    <ellipse fill="#FEBC59" class="Ellipse 4.1" rx="1.346" ry=".49" transform="scale(1 -1) rotate(15 1567.17 943.953)"/>
    <ellipse fill="#8EFE59" class="Ellipse 4.2" rx="1.346" ry=".49" transform="scale(1 -1) rotate(15 1565.279 958.32)"/>
    <path stroke="#2784CF" d="M555.312 477.473c-5.306-4.4-18.478-10.778-28.72-1.086-12.803 12.114-15.796 19.586-23.202 16.888" class="Vector 2_6"/>
    <g class="Group 24">
      <path stroke="#D08E0D" d="M566.521 353.058c.364-3.473 2.769-10.043 9.48-8.539 8.388 1.879 38.356 2.385 40.605-13.548 1.798-12.747 12.455-16.831 17.558-17.28" class="Vector_7"/>
      <circle cx="559.522" cy="366.298" r="20.297" fill="#F5B73C" class="Ellipse_3" transform="rotate(-12.454 559.522 366.298)"/>
      <path fill="#D08E0D" fill-rule="evenodd" d="M564.948 362.117c-.111 1.25-.3 2.543-.579 3.876a31.606 31.606 0 013.32 2.179c.326-1.337.561-2.636.718-3.892a31.904 31.904 0 00-3.459-2.163zm-.963-.5a32.027 32.027 0 01-.534 3.872 34.854 34.854 0 00-6.321-2.57c-8.056-2.406-14.072-.116-17.899 2.721-.013.419-.013.839 0 1.261 3.57-2.876 9.492-5.449 17.613-3.023 2.38.711 4.503 1.61 6.387 2.627a34.52 34.52 0 01-.904 3.188c-3.117 9.313-10.024 12.347-14.609 13.116.385.275.779.537 1.182.784 4.82-1.083 11.332-4.49 14.376-13.583a36.21 36.21 0 00.862-2.995 30.333 30.333 0 013.278 2.207 37.408 37.408 0 01-.717 2.299c-3.107 8.956-9.543 12.499-14.447 13.729.545.21 1.1.396 1.664.559 4.926-1.598 10.773-5.444 13.728-13.96.228-.656.433-1.305.619-1.947a28.517 28.517 0 012.859 2.74c-.094.295-.193.591-.296.888-2.662 7.671-7.764 11.37-12.256 13.047.854.04 1.716.025 2.584-.046 4.089-2.084 8.267-5.902 10.616-12.673.039-.112.078-.225.115-.337 1.667 2.004 2.788 3.943 3.454 5.497.239-.296.468-.599.689-.908-.782-1.676-2.016-3.678-3.784-5.71.399-1.315.711-2.599.947-3.848 2.247 2.496 3.679 4.971 4.458 6.88.2-.397.387-.801.561-1.21-.945-2.03-2.504-4.487-4.807-6.914.181-1.196.292-2.357.345-3.481 2.995 3.267 4.589 6.523 5.141 8.544l.004-.001c.179-.568.333-1.145.461-1.729-.909-2.278-2.689-5.292-5.571-8.229.015-5.38-1.316-9.809-2.824-12.883a20.753 20.753 0 00-1.699-1.041c1.628 2.722 3.346 7.22 3.51 12.939a31.489 31.489 0 00-3.146-2.562c-.217-4.8-1.489-8.755-2.89-11.542a20.124 20.124 0 00-1.384-.472c1.438 2.535 2.889 6.428 3.231 11.301a33.9 33.9 0 00-3.681-2.091c-.449-4.188-1.706-7.59-2.988-9.925a20.305 20.305 0 00-1.213-.106c1.261 2.104 2.602 5.386 3.135 9.533a37.166 37.166 0 00-4.961-1.804c-6.747-1.936-12.189-.807-16.222 1.256-.376.561-.723 1.14-1.041 1.736 3.945-2.457 9.653-4.135 16.987-2.031a36.003 36.003 0 015.362 2 29.8 29.8 0 01.089 3.814 36.982 36.982 0 00-5.907-2.245c-7.868-2.257-13.96-.347-18.115 2.351-.14.482-.263.97-.368 1.463 3.947-2.871 10.078-5.185 18.207-2.853a35.836 35.836 0 016.12 2.367zm5.671-1.489c1.16.87 2.198 1.777 3.122 2.692a32.158 32.158 0 01-.26 3.593 31.397 31.397 0 00-3.05-2.596c.136-1.274.194-2.505.188-3.689zm-4.654-2.898a32.445 32.445 0 013.641 2.169 31.634 31.634 0 01-.114 3.743 33.3 33.3 0 00-3.503-2.116c.072-1.32.058-2.587-.024-3.796zm4.323 7.735a35.618 35.618 0 01-.774 3.88 29.408 29.408 0 012.906 2.688c.381-1.333.67-2.631.88-3.89a30.11 30.11 0 00-3.012-2.678z" class="Intersect" clip-rule="evenodd"/>
    </g>
    <path fill="#7BCFF1" fill-rule="evenodd" d="M355.242 257.856c-4.767-28.473-26.178-64.515-59.335-55.631-19.556 5.24-25.328 25.882-24.689 40.832 2.39 4.834 2.698 6.02 3.397 8.711.211.813.457 1.762.808 2.991 1.116 3.917 4.872 14.196 4.872 14.196l3.658-.98s-.255 7.589 20.209 8.863c18.63 1.159 53.703-3.314 51.08-18.982zm17.846 35.982c-.484 9.475.215 22.047.378 24.245.24 3.243 8.476-11.005 8.476-11.005s-.801 18.657.282 22.16c.497 1.606 13.137-6.848 17.144-14.706 1.231-2.414-.111-13.659-2.388-23.424l-23.892 2.73zm-106.215 29.95l-23.238 6.226c3.014 10.288 8.548 22.941 11.119 24.532 7.501 4.641 22.692 5.315 22.284 3.684-.89-3.557-9.351-17.818-9.351-17.818s12.532 6.636 11.056 3.739c-.978-1.918-6.645-12.555-11.87-20.363zm301.7 176.954c11.129-2.458 18.157-13.472 15.7-24.6-2.458-11.129-13.472-18.157-24.6-15.7-11.129 2.458-18.157 13.472-15.7 24.6 2.458 11.129 13.472 18.157 24.6 15.7z" class="Secondary" clip-rule="evenodd"/>
    <path fill="#2E90DF" fill-rule="evenodd" d="M569.899 476.493a33.422 33.422 0 01-.584 3.905 31.768 31.768 0 013.345 2.195c.329-1.347.566-2.656.724-3.922a32.185 32.185 0 00-3.485-2.178zm-.97-.504a32.334 32.334 0 01-.538 3.901 35.15 35.15 0 00-6.369-2.589c-8.117-2.424-14.179-.117-18.035 2.742-.013.421-.013.845 0 1.27 3.597-2.898 9.564-5.491 17.746-3.046a33.96 33.96 0 016.436 2.647 35.225 35.225 0 01-.911 3.212c-3.141 9.383-10.1 12.441-14.72 13.215.388.277.785.541 1.191.79 4.856-1.091 11.418-4.524 14.485-13.686.343-1.024.631-2.031.869-3.018a30.437 30.437 0 013.302 2.224c-.21.761-.45 1.533-.722 2.317-3.131 9.024-9.616 12.593-14.557 13.833a20.6 20.6 0 001.676.563c4.964-1.61 10.856-5.486 13.833-14.066.229-.661.437-1.315.623-1.962a28.74 28.74 0 012.881 2.761c-.095.297-.194.595-.298.895-2.682 7.729-7.825 11.457-12.35 13.146.86.04 1.729.026 2.603-.046 4.121-2.1 8.332-5.947 10.699-12.77l.116-.339c1.678 2.018 2.808 3.972 3.48 5.539.24-.299.471-.604.694-.915-.788-1.689-2.031-3.707-3.813-5.754.402-1.325.717-2.619.954-3.878 2.264 2.515 3.707 5.009 4.492 6.933.202-.4.39-.807.566-1.219-.953-2.045-2.524-4.521-4.845-6.967.183-1.204.295-2.374.348-3.506 3.018 3.291 4.624 6.572 5.18 8.609l.005-.002c.18-.572.335-1.153.464-1.742-.916-2.295-2.709-5.332-5.614-8.292.016-5.419-1.325-9.882-2.844-12.979a20.794 20.794 0 00-1.712-1.049c1.641 2.742 3.371 7.274 3.536 13.036a31.852 31.852 0 00-3.17-2.581c-.219-4.836-1.5-8.821-2.911-11.629a19.907 19.907 0 00-1.395-.475c1.45 2.553 2.911 6.476 3.255 11.386a33.895 33.895 0 00-3.709-2.107c-.452-4.22-1.719-7.648-3.01-10a19.798 19.798 0 00-1.222-.107c1.271 2.12 2.622 5.426 3.159 9.605a37.545 37.545 0 00-4.999-1.818c-6.798-1.95-12.281-.813-16.345 1.265-.378.566-.728 1.15-1.048 1.75 3.974-2.476 9.725-4.167 17.115-2.047a36.36 36.36 0 015.403 2.016 30.05 30.05 0 01.089 3.842 37.208 37.208 0 00-5.952-2.262c-7.927-2.274-14.065-.35-18.252 2.368-.141.486-.265.978-.37 1.475 3.977-2.892 10.154-5.224 18.344-2.874a35.957 35.957 0 016.167 2.385zm5.713-1.501a30.368 30.368 0 013.146 2.713 32.437 32.437 0 01-.262 3.62 31.393 31.393 0 00-3.074-2.616c.138-1.283.197-2.524.19-3.717zm-4.689-2.919a32.506 32.506 0 013.668 2.185 32.087 32.087 0 01-.114 3.77 33.604 33.604 0 00-3.53-2.131 31.12 31.12 0 00-.024-3.824zm4.356 7.793a35.724 35.724 0 01-.78 3.909 29.862 29.862 0 012.928 2.708c.384-1.343.675-2.651.886-3.919a30.096 30.096 0 00-3.034-2.698z" class="Intersect_2" clip-rule="evenodd"/>
    <g class="Group">
      <path stroke="#2A7BBC" stroke-linecap="round" stroke-width=".872" d="M254.09 346.722c1.843 4.376 3.577 8.207 5.385 11.633" class="Vector 2_7"/>
      <path stroke="#2A7BBC" stroke-linecap="round" stroke-width=".872" d="M258.647 346.395c1.002 2.235 5.158 11.15 6.454 13.542" class="Vector 2.1_5"/>
      <path stroke="#2A7BBC" stroke-linecap="round" stroke-width=".872" d="M263.534 345.172c2.141 4.459 6.716 13.102 8.428 15.88" class="Vector 2.2"/>
    </g>
    <g class="Group_2">
      <path stroke="#2A7BBC" stroke-linecap="round" stroke-width=".872" d="M395.879 307.499c.693 4.696 1.197 8.872 1.428 12.739" class="Vector 2_8"/>
      <path stroke="#2A7BBC" stroke-linecap="round" stroke-width=".872" d="M391.814 309.582c.302 2.43 1.37 12.208 1.504 14.925" class="Vector 2.1_6"/>
      <path stroke="#2A7BBC" stroke-linecap="round" stroke-width=".872" d="M387 311.07c.482 4.923 1.052 14.685 1.029 17.948" class="Vector 2.2_2"/>
    </g>
  </g>
</svg>
