<svg xmlns="http://www.w3.org/2000/svg" width="1155" height="700" fill="none" viewBox="0 0 1155 700">
  <g class="man_reading">
    <path fill="#fff" d="M0 0h1155v700H0z"/>
    <g class="Group 8.1">
      <path fill="#1F31D6" fill-rule="evenodd" d="M436.616 382.609a2.609 2.609 0 012.609-2.609h208.732a2.609 2.609 0 012.609 2.609v31.31a2.608 2.608 0 01-2.599 2.609h6.079a2.609 2.609 0 012.609 2.609v31.31a2.609 2.609 0 01-2.609 2.609h-6.08a2.609 2.609 0 012.6 2.609v31.31a2.609 2.609 0 01-2.593 2.609h6.072a2.61 2.61 0 012.61 2.609v43.486a2.61 2.61 0 01-2.61 2.609h-6.072a2.61 2.61 0 012.593 2.609v31.31a2.609 2.609 0 01-2.609 2.609h-244.39a2.609 2.609 0 01-2.609-2.609v-31.31a2.609 2.609 0 012.609-2.609h27.816a2.609 2.609 0 01-2.594-2.609v-43.486a2.61 2.61 0 012.594-2.609h-34.774a2.609 2.609 0 01-2.609-2.609v-31.31a2.609 2.609 0 012.609-2.609h26.953a2.609 2.609 0 01-2.6-2.609v-31.31a2.609 2.609 0 012.609-2.609h15.644a2.609 2.609 0 01-2.599-2.609v-31.31z" class="Union" clip-rule="evenodd"/>
      <g class="Group 7">
        <rect width="249.608" height="36.528" x="400.958" y="538.288" fill="#fff" fill-opacity=".08" class="Rectangle" rx="2.609"/>
        <rect width="256.566" height="36.528" x="394" y="453.056" fill="#000" fill-opacity=".19" class="Rectangle_2" rx="2.609"/>
        <rect width="213.95" height="36.528" x="436.616" y="380" fill="#fff" fill-opacity=".08" class="Rectangle_3" rx="2.609"/>
        <path stroke="#000" stroke-width="3" d="M295 572.857h541.5" class="Vector"/>
        <path fill="#121212" fill-opacity=".08" d="M436.615 391.342a2.608 2.608 0 013.038-2.573l41.318 6.886 169.594 20.873H439.224a2.609 2.609 0 01-2.609-2.609v-22.577z" class="Rectangle_4"/>
        <path fill="#000" fill-opacity=".06" d="M420.962 419.924a2.609 2.609 0 013.281-2.521l68.275 18.207c.13.034.263.059.397.073l163.74 17.373H423.571a2.609 2.609 0 01-2.609-2.609v-30.523z" class="Rectangle_5"/>
        <path fill="#000" fill-opacity=".09" d="M394 464.337a2.61 2.61 0 013.322-2.51l34.7 9.858c.163.047.331.077.5.091l218.044 17.808H396.609a2.609 2.609 0 01-2.609-2.609v-22.638z" class="Rectangle_6"/>
        <path fill="#000" fill-opacity=".09" d="M428.789 489.584l53.488 20.438 174.378 28.266H428.789v-48.704z" class="Rectangle_7"/>
        <path fill="#000" fill-opacity=".04" d="M400.958 541.956a2.609 2.609 0 013.465-2.464l37.564 13.048c.188.065.382.109.58.13l207.999 22.146H403.567a2.609 2.609 0 01-2.609-2.609v-30.251z" class="Rectangle_8"/>
      </g>
    </g>
    <g class="Group 3.1">
      <g class="man">
        <g class="book">
          <path fill="#DDDFE9" fill-rule="evenodd" d="M734.5 232.819l7.282-10.85 11.107 25.457-1.613 2.084-29.968 40.189-6.781-4.872-19.444-14.647 33.381-42.336 6.036 4.975z" class="Union_2" clip-rule="evenodd"/>
          <path fill="#E2FAFF" d="M732.784 231.56l3.566-4.175 3.661-1.477 12.202 20.835-.674.024-18.755-15.207z" class="Vector 6"/>
          <path fill="#000" fill-opacity=".12" d="M736.35 227.385l15.189 19.382.674-.024-12.202-20.835-3.661 1.477z" class="Vector 7"/>
          <path fill="#fff" fill-opacity=".09" d="M728.593 227.513l-33.282 42.335 27.033 20.318 29.9-42.555-23.651-20.098z" class="Vector 5"/>
        </g>
        <g class="Group">
          <path fill="#FFFDFD" stroke="#000" stroke-width=".674" d="M688.062 488.697l-10.603-100.806 37.727-1.318-2.266 51.005-4.648 50.413c-7.884 6.009-10.254 5.754-20.21.706z" class="Vector 4"/>
          <path fill="#FFFDFD" stroke="#000" stroke-width=".674" d="M734.76 367.678c-19.215-17.136-63.746-25.878-83.609-28.108l-58.673 19.587c-.068 4.499.929 15.009 5.457 21.056 4.528 6.047 75.596 14.335 110.564 17.723 1.379 8.586 29.185 59.912 35.301 83.756 7.854 2.761 11.894-.64 21.323-7.49.905-12.712-15.383-79.954-30.363-106.524z" class="Vector 3"/>
          <g class="Union_3">
            <path fill="#fff" fill-rule="evenodd" d="M616.581 213.708c4.482.66 8.606.613 10.413-1.195 4.888-4.892 9.858-17.072 2.152-44.593-10.215-2.791-31.616-3.347-35.501 16.754-.791 6.323-.579 20.12 6.597 24.726-.574 6.091-2.027 19.227-3.242 23.047-1.52 4.774 19.88 9.159 20.283 1.388l-.043-.277c-.729-4.62-1.947-12.336-.659-19.85zm56.713 103.545s27.731-7.49 60.533-34.46c7.241-5.953 15.426-17.417 6.444-19.913-4.235-1.176-14.294 8.702-14.294 8.702s1.112-14.793-2.536-9.584c-1.16 1.657-8.038 18.142-8.038 18.142l-44.08 16.759 1.971 20.354z" clip-rule="evenodd"/>
            <path fill="#000" d="M626.994 212.513l.422.422-.422-.422zm-10.413 1.195l.086-.59-.576-.085-.098.574.588.101zm12.565-45.788l.574-.16-.091-.326-.326-.089-.157.575zm-35.501 16.754l-.585-.113-.004.019-.003.02.592.074zm6.597 24.726l.593.056.034-.361-.305-.197-.322.502zM597 232.447l.568.181-.568-.181zm20.283 1.388l.596.031.003-.062-.01-.061-.589.092zm-.043-.277l.589-.093-.589.093zm116.587 49.235l-.379-.46.379.46zm-60.533 34.46l-.594.057.068.702.681-.184-.155-.575zm66.977-54.373l-.16.575.16-.575zm-14.294 8.702l-.595-.045-.119 1.581 1.131-1.111-.417-.425zm-2.536-9.584l.489.342-.489-.342zm-8.038 18.142l.212.557.239-.091.099-.236-.55-.23zm-44.08 16.759l-.212-.558-.425.162.044.453.593-.057zm-44.751-84.807c-.752.753-2.06 1.198-3.832 1.35-1.752.149-3.853.003-6.073-.324l-.173 1.18c2.263.333 4.465.493 6.347.332 1.863-.159 3.521-.641 4.575-1.695l-.844-.843zm2-44.011c7.684 27.442 2.66 39.346-2 44.011l.844.843c5.115-5.121 10.032-17.576 2.304-45.175l-1.148.321zm-34.342 16.706c1.893-9.795 8.021-14.527 14.955-16.501 6.977-1.986 14.765-1.167 19.804.21l.314-1.151c-5.176-1.414-13.196-2.269-20.445-.206-7.292 2.076-13.807 7.115-15.798 17.422l1.17.226zm6.334 24.111c-3.37-2.162-5.177-6.547-6.021-11.321-.839-4.745-.696-9.713-.306-12.829l-1.184-.148c-.401 3.207-.548 8.298.316 13.185.858 4.857 2.745 9.674 6.551 12.117l.644-1.004zm-2.996 23.73c.627-1.972 1.3-6.269 1.884-10.776a380.9 380.9 0 001.383-12.396l-1.187-.112c-.287 3.04-.792 7.84-1.378 12.354-.589 4.539-1.25 8.72-1.839 10.568l1.137.362zm19.12 1.177c-.082 1.581-1.205 2.619-3.128 3.192-1.926.573-4.497.613-7.058.258-2.556-.354-5.029-1.091-6.75-2.01-.864-.462-1.496-.947-1.865-1.417-.358-.457-.432-.846-.319-1.2l-1.137-.362c-.267.839-.005 1.632.518 2.298.513.654 1.306 1.233 2.241 1.733 1.877 1.003 4.495 1.772 7.149 2.139 2.649.367 5.409.344 7.561-.296 2.156-.642 3.859-1.969 3.979-4.274l-1.191-.061zm-.037-.154l.043.277 1.178-.185-.043-.278-1.178.186zm-.658-20.044c-1.306 7.624-.07 15.433.658 20.044l1.178-.186c-.731-4.628-1.929-12.252-.661-19.656l-1.175-.202zm117.455 68.726c-16.358 13.449-31.449 22.039-42.444 27.265-5.498 2.613-9.971 4.385-13.067 5.502a87.709 87.709 0 01-3.566 1.209 42.732 42.732 0 01-1.158.347l-.057.016-.014.004-.003.001h-.001l.156.576.156.575h.001l.005-.002.016-.004a89.518 89.518 0 004.87-1.6c3.129-1.13 7.638-2.916 13.174-5.547 11.07-5.261 26.246-13.901 42.69-27.421l-.758-.921zm6.663-18.878c2.096.582 3.065 1.638 3.382 2.898.333 1.321-.008 3.021-.901 4.935-1.778 3.814-5.564 8.101-9.144 11.045l.758.921c3.661-3.01 7.588-7.431 9.467-11.462.936-2.007 1.409-4.014.977-5.73-.448-1.778-1.824-3.091-4.22-3.756l-.319 1.149zm-14.134 8.127l.417.425h.001l.001-.001.005-.005.021-.02.083-.081a65.253 65.253 0 011.508-1.4 64.042 64.042 0 013.884-3.236c1.51-1.151 3.129-2.25 4.618-2.986.744-.368 1.44-.637 2.06-.781.625-.144 1.136-.153 1.536-.042l.319-1.149c-.659-.183-1.387-.141-2.124.03-.74.171-1.525.48-2.319.873-1.588.785-3.278 1.936-4.813 3.107a65.426 65.426 0 00-3.958 3.297 65.07 65.07 0 00-1.539 1.429l-.087.084-.023.022a.017.017 0 01-.006.006l-.001.001-.001.001.418.426zm-2.047-9.242c.448-.64.729-.822.836-.853.022-.007.006 0-.01-.009 0 0 .011.006.032.027.022.022.05.057.083.109.143.229.28.641.389 1.236.107.579.178 1.273.222 2.021.087 1.497.063 3.161.016 4.459a74.309 74.309 0 01-.113 2.167l-.002.03-.001.008v.002l.595.045.594.044v-.001-.002l.001-.008.002-.033.009-.125.03-.466c.023-.398.053-.96.076-1.618.048-1.313.074-3.02-.017-4.571a18.087 18.087 0 00-.239-2.169c-.116-.63-.285-1.225-.551-1.651a1.516 1.516 0 00-.579-.563 1.153 1.153 0 00-.874-.076c-.53.156-1.012.651-1.476 1.313l.977.684zm-8.527 17.8l.55.23v-.001l.001-.002.004-.009a18.059 18.059 0 01.072-.173l.22-.526.795-1.889a889.74 889.74 0 012.49-5.844 352.318 352.318 0 012.704-6.148c.403-.886.764-1.66 1.059-2.262.303-.617.518-1.013.632-1.176l-.977-.684c-.176.252-.43.733-.725 1.335a88.83 88.83 0 00-1.075 2.294 370.012 370.012 0 00-2.714 6.169 887.764 887.764 0 00-3.288 7.744l-.221.526-.058.139-.014.035-.004.009-.001.003.55.23zm-43.868 17.316l44.08-16.759-.424-1.114-44.08 16.758.424 1.115zm2.352 19.739l-1.971-20.354-1.186.115 1.97 20.354 1.187-.115z"/>
          </g>
          <path fill="#1E2884" fill-rule="evenodd" d="M635.173 172.299c-4.885 6.916-11.849 8.382-16.604 7.423-5.843-.181-5.348 7.328-4.97 13.074.076 1.159.148 2.246.162 3.184 0 0-11.657-9.711-8.778.307 2.88 10.017-.565 16.238-6.072 13.058-1.752-1.011-4.757-5.112-6.559-8.422-.144-.265-.314-.561-.502-.889-2.164-3.776-6.785-11.838-3.424-26.103 2.729-11.583 16.412-11.871 26.482-12.083 1.057-.022 2.074-.043 3.035-.077 2.997-.104 5.995-1.797 9.026-3.507 4.142-2.337 8.343-4.709 12.684-3.108 6.965 2.57 3.911 6.404-.696 12.189-1.206 1.513-2.518 3.161-3.784 4.954zm108.013 307.348c3.491 13.031 8.643 32.198 10.166 34.088.232.287.446.604.667.932 1.797 2.661 4.089 6.058 20.636.685 0 0 12.592-3.486 19.059-4.713 8.711-1.653 21.266-7.021 14.422-11.97-1.997-1.444-6.582-1.597-11.905-1.775-6.666-.222-14.489-.483-19.83-3.369-12.347-6.67-10.893-23.905-10.893-23.905-3.731 2.536-16.054 9.808-22.322 10.027zm-54.655 29.673c-.125 2.607-.245 5.117-.143 8.032.203 5.813 21.188 5.012 26.233 4.819l.015-.001.069-.002.494-.019c.711-.024 2.111.026 3.902.091 7.528.273 21.968.797 21.29-2.994-.337-1.891-3.874-3.288-8.455-5.097-6.788-2.682-15.871-6.27-20.242-13.714-4.464-7.605-4.524-13.224-3.53-15.687-3.683.526-13.008 1.647-20.848 1.921 1.765 11.167 1.48 17.125 1.215 22.651zm-84.405-289.856c-14.194-.854-29.045 37.437-22.698 103.318 1.812 51.874 5.13 54.186 15.521 58.14 15.899-.555 52.332-27.602 67.199-39.701l-12.242-18.678c11.347.408 21.214-.94 21.214-.94.998-.11 2.441-.153 4.127-.203 5.88-.176 14.722-.44 17.988-3.942 4.551-4.88-1.159-20.307-4.706-28.502l-18.491 1.658s-10.442.364-15.867-.458c-12.02-1.822-27.967-47.588-27.967-47.588-.33-9.432-11.278-23.551-24.078-23.104z" class="Union_4" clip-rule="evenodd"/>
          <path fill="#fff" d="M756.876 520.523l-1.684-4.604c13.684-.478 42.401-9.628 54.905-14.381 2.236 6.605-34.549 15.409-53.221 18.985z" class="Vector 2"/>
          <path fill="#fff" d="M688.395 521.243l-.116-3.337c6.077 1.793 37.516 1.753 52.267 1.516l-.747 2.533c-5.604 2.2-36.743.447-51.404-.712z" class="Vector 2_2"/>
          <path stroke="#fff" stroke-opacity=".16" stroke-width=".674" d="M607.08 255.784s.222 38.895 14.463 56.828c5.789 7.29 18.839 9.516 30.363 9.931 11.347.408 21.214-.94 21.214-.94 4.48-.493 17.913.361 22.114-4.144" class="Vector_2"/>
        </g>
      </g>
    </g>
  </g>
</svg>
