<svg xmlns="http://www.w3.org/2000/svg" width="1155" height="700" fill="none" viewBox="0 0 1155 700">
  <g class="man_shopping_vone">
    <path fill="#fff" d="M0 0h1155v700H0z"/>
    <g class="Group 4.1">
      <path fill="#BEBEBE" fill-opacity=".07" d="M616.227 179.963c-18.205-113.426 140.032-91.021 221.426-65.64 31.507 8.618 16.629 28.006 0 65.64s60.389 45.51 94.522 77.018c34.133 31.507-21.005 48.136-56.888 103.274-35.884 55.137 69.141 68.265 94.521 85.769 25.381 17.505-48.136 37.634-94.521 43.761-46.386 6.126 8.752 25.38 56.888 51.637 38.509 21.004-35.884 71.766-77.893 94.521h-538.25l-58.638-163.662c-28.882-92.772 77.893-35.009 126.029-35.009 48.136 0 46.385-8.752 14.878-103.273-31.507-94.522 93.647-83.145 169.789-84.895 60.915-1.4 57.472-46.678 48.137-69.141z" class="Vector 23"/>
      <g class="bag">
        <path fill="#F9CFC9" d="M539.582 125.634a62.734 62.734 0 00-4.597-23.586 61.731 61.731 0 00-13.091-19.996 60.322 60.322 0 00-19.591-13.36A59.335 59.335 0 00479.193 64a59.331 59.331 0 00-23.11 4.692 60.326 60.326 0 00-19.592 13.36 61.728 61.728 0 00-13.09 19.996 62.734 62.734 0 00-4.597 23.586h6.07c0-7.28 1.405-14.489 4.135-21.215a55.51 55.51 0 0111.774-17.986 54.255 54.255 0 0117.623-12.018 53.366 53.366 0 0120.787-4.22 53.373 53.373 0 0120.787 4.22 54.263 54.263 0 0117.622 12.018 55.53 55.53 0 0111.775 17.986 56.427 56.427 0 014.135 21.215h6.07z" class="Ellipse"/>
        <path fill="#FFD6C0" d="M261.268 635.509l32.382-523.371h354.457l21.005 523.371H261.268z" class="Vector 22"/>
        <path fill="#fff" fill-opacity=".09" d="M621.852 222.411l27.131-84.895 21.88 497.115h-49.011v-412.22z" class="Vector 23_2"/>
        <path fill="#fff" fill-opacity=".04" d="M261.268 635.507l26.256-439.352 16.629 126.029 17.504 313.323h-60.389z" class="Vector 22.1"/>
      </g>
      <g class="Group">
        <g class="Group 9.3">
          <g class="Group 8.1">
            <path fill="#FF9E80" d="M317.425 559.652c22.857 12.645-9.524 55.116-28.571 74.772h-34.65c-24.62-11.247-70.03-35.623-54.711-43.161 19.149-9.423-10.638-20.061-19.149-44.073-8.51-24.012 25.228-23.404 49.544-23.404 24.316 0 5.167-31.61 30.699-38.905 25.531-7.295 16.717 20.973 16.717 38.905 0 17.933 11.55 20.061 40.121 35.866z" class="Vector"/>
            <path fill="#fff" fill-opacity=".13" d="M252.598 527.086c6.447 10.747 10.886 70.494 19.801 106.157h-10.03c1.52-4.863-29.483-20.668-39.513-27.051-10.03-6.383 1.216-17.326 5.167-19.149 3.951-1.824-33.13-18.845-27.355-40.729 4.284-16.235 26.705 19.157 32.826 3.039 3.884-10.228 14.544-29.865 19.104-22.267z" class="Vector 3"/>
            <path stroke="#FBFBFB" stroke-linecap="round" stroke-width="1.367" d="M274.831 633.853c-1.868-5.165-4.176-12.198-6.533-20.365m-3.193-109.115c-6.991 10.03-.606 15.155-4.557 33.392-4.442 20.502-1.142 41.856 4.557 64.021m0 0c-12.969-17.477-29.483-33.586-56.231-49.999m56.231 49.999a412.93 412.93 0 003.193 11.702m0 0c7.345-10.435 25.013-32.583 36.928-37.689" class="Vector 2"/>
          </g>
          <g class="Group 8">
            <path fill="#17A0B3" d="M237.351 545.249c-27.36 15.136 11.4 65.976 34.201 89.504h41.477c29.471-13.462 83.827-42.642 65.49-51.665-22.921-11.279 12.734-24.013 22.922-52.756 10.187-28.743-30.199-28.015-59.305-28.015-29.107 0-6.185-37.839-36.747-46.571-30.563-8.732-20.011 25.105-20.011 46.571 0 21.466-13.826 24.013-48.027 42.932z" class="Vector_2"/>
            <path fill="#fff" fill-opacity=".13" d="M314.954 506.268c-7.718 12.863-13.031 84.383-23.704 127.072h12.007c-1.819-5.821 35.292-24.74 47.298-32.381 12.007-7.64-19.015-8.782-19.015-18.557 0-15.227 52.488-26.923 45.575-53.118-5.128-19.433-31.966 22.931-39.294 3.638-4.649-12.243-17.41-35.75-22.867-26.654z" class="Vector 3_2"/>
            <path stroke="#FBFBFB" stroke-linecap="round" stroke-width="1.637" d="M288.338 634.067c2.237-6.182 4.998-14.601 7.821-24.377m3.822-130.613c8.368 12.006.725 18.14 5.454 39.97 5.318 24.542 1.367 50.103-5.454 76.636m0 0c15.523-20.921 35.292-40.204 67.309-59.851m-67.309 59.851a495.029 495.029 0 01-3.822 14.007m0 0c-8.792-12.491-29.942-39.003-44.204-45.115" class="Vector 2_2"/>
          </g>
        </g>
        <g class="floor">
          <path fill="#F7B3A4" d="M733.202 614.454c-1.166-1.749-2.187-21.864-2.187-32.068-4.372 2.187-13.847 3.158-18.949 2.916 1.701 8.988 6.122 27.694 7.288 27.694 1.167 0 7.531.972 13.848 1.458z" class="Vector 6"/>
          <path fill="#000" fill-opacity=".07" d="M723.727 612.997l-3.644-22.592c-2.186-1.944-6.559-4.228-6.559-.729 0 3.498 3.644 16.762 5.83 23.321h4.373z" class="Vector 10"/>
          <path fill="#FA5C5C" d="M718.626 636.319c-2.915-6.996-1.215-18.949 0-24.05h18.22s24.598 16.762 39.355 16.762c4.373 0 1.458 7.288 1.458 7.288h-59.033z" class="Vector 7"/>
          <path stroke="#fff" stroke-linecap="round" stroke-width="1.75" d="M748.754 624.127h7.002m-1.751 2.626h9.628m-18.38-6.127h5.252" class="Vector 12"/>
          <path fill="#F7B3A4" d="M650.846 572.914l14.576-21.865 13.119 13.848-16.763 17.491-10.932-9.474z" class="Vector 8"/>
          <path fill="#000" fill-opacity=".08" d="M673.44 553.963l-19.677 21.135h-3.644l17.491-26.237 5.83 5.102z" class="Vector 11"/>
          <path fill="#FA5C5C" d="M638.457 587.488l13.118-16.763 13.119 13.847s3.92 10.603 7.288 18.949c3.667 9.09 14.576 17.492 10.932 25.508-1.111 2.445-5.831 3.644-5.831 3.644l-38.626-45.185z" class="Vector 9"/>
          <path stroke="#fff" stroke-linecap="round" stroke-width="1.75" d="M665.61 593.493l4.376 3.501m-5.251.875l7.877 5.251m-7.002 0l8.752 6.127" class="Vector 13"/>
        </g>
        <path fill="#1965AB" fill-rule="evenodd" d="M664.737 239.912s-4.376-5.497-4.376-9.627c0-4.13.875-9.627 4.376-9.627 4.748 0 10.502 6.126 10.502 6.126l16.629 9.628c-.875 19.254-2.976 35.008-11.377 35.008-5.503 0-10.679-1.126-14.253-1.904-1.883-.409-3.321-.722-4.127-.722-3.209-4.293-2.975-15.378 2.626-28.882zm69.924 244.817c5.83-16.034-20.407-75.067-22.593-78.711-11.661 13.993-56.847 8.502-77.253 3.644l-1.458 9.474c-2.915 18.658 29.881 76.282 46.643 102.762l-21.135 31.338 18.949 19.678c4.036-5.713 12.825-18.197 18.324-26.237l14.472 45.186c8.848 2.212 20.799-5.017 26.153-8.255l.813-.491-23.39-63.406c9.907-15.209 18.285-28.961 20.475-34.982z" class="Union" clip-rule="evenodd"/>
        <path fill="#F7AF9F" fill-rule="evenodd" d="M682.285 271.22c2.606-3.199 4.733-8.743 6.081-18.18l-2.625-8.752s-2.34-3.501-9.628-3.501c-9.543 0-11.377-1.75-11.377-1.75-4.78 11.153-9.523 26.854-.468 34.024l-1.03 9.786-.729 5.831 10.932 11.66 13.847-8.016c-.243-.851-.789-1.944-1.366-3.098-.577-1.154-1.184-2.368-1.549-3.462-.472-1.416-1.683-9.433-2.088-14.542z" class="Union_2" clip-rule="evenodd"/>
        <path fill="#fff" fill-opacity=".06" d="M688.366 253.04c-3.5 24.506-12.253 22.755-21.005 21.88-13.083-5.89-7.876-23.63-2.625-35.883 0 0 1.834 1.75 11.377 1.75 7.288 0 10.503 3.501 10.503 3.501l1.75 8.752z" class="Vector 11.1"/>
        <path fill="#000" fill-opacity=".04" d="M682.185 285.422s-.486-11.565 0-12.779c.729 6.559 1.457 14.576 3.644 16.034-.729 2.915-10.932 5.101-10.203 4.372.583-.583 6.559-7.627 6.559-7.627z" class="Vector 19"/>
        <path fill="#2A2626" d="M780.147 316.327l-14.202 22.593a1.458 1.458 0 001.234 2.233h12.513c.543 0 1.041-.302 1.292-.783l8.337-15.979 3.318-6.636c.485-.97-.22-2.11-1.304-2.11h-9.954c-.502 0-.968.258-1.234.682z" class="Vector 15"/>
        <path fill="#F7B3A4" d="M767.456 340.425l-27.695 13.847c-1.166 3.498 1.458 13.119 2.916 17.491l32.796-24.779c10.203-7.288 15.305-22.593 13.118-22.593-1.749 0-14.819 10.689-21.135 16.034z" class="Vector 4"/>
        <path fill="#fff" fill-opacity=".06" d="M746.13 358.065l-2.626-5.252 23.631-12.252-21.005 17.504z" class="Vector 22_2"/>
        <path stroke="#000" stroke-linecap="round" stroke-opacity=".07" stroke-width="1.458" d="M663.237 548.133l34.983-52.474L680 443.185" class="Vector 19_2"/>
        <path fill="#000" fill-opacity=".04" d="M698.948 495.655l-18.949 25.509c-8.745-13.993-34.253-58.305-41.541-80.169 0 0 24.674-1.26 37.169 6.559 17.696 11.075 23.321 48.101 23.321 48.101z" class="Vector 19_3"/>
        <path fill="#000" fill-opacity=".07" d="M651.576 412.573c1.749 34.4 21.621 83.813 31.338 104.219l-2.915 4.373-4.373-5.83c-48.101-84.542-43.485-89.643-40.813-102.762h16.763z" class="Vector 19_4"/>
        <path fill="#FF4E16" fill-rule="evenodd" d="M662.508 285.033l-20.407 3.644-.001.001c-8.26 5.346-26.674 27.841-34.253 75.066 6.316 15.305 21.281 48.976 30.61 61.22l13.847-10.203-.062-.165.791-.565c36.732 6.414 55.147-2.672 59.762-8.017-1.906-2.541-3.465-11.832-4.608-21.885l.235.021 34.983-9.474c7.288-13.847 3.644-24.051-2.186-25.508l-28.424 3.644c-3.216-24.655-8.287-45.234-15.271-57.182-4.241-7.94-8.975-11.834-12.659-8.457-10.312 12.604-17.723 3.532-22.126-1.858l-.231-.282z" class="Union_3" clip-rule="evenodd"/>
        <path fill="#070707" fill-opacity=".06" d="M636.271 414.031c-2.332-.583-19.921-34.253-28.423-51.016 1.166 8.163 19.677 45.915 30.609 61.949l4.373-3.644c-1.214-2.187-4.227-6.705-6.559-7.289z" class="Vector 20"/>
        <path stroke="#000" stroke-opacity=".06" stroke-width="1.458" d="M642.101 288.678c-8.259 5.345-26.674 27.84-34.253 75.067 6.316 15.305 21.281 48.976 30.609 61.22l13.848-10.204-20.407-53.931 16.034-43" class="Vector_3"/>
        <path fill="#F7B3A4" d="M640.645 430.065l-.729-6.56 10.932-8.016 5.831 8.016c-.584 4.082-6.56 11.418-9.475 14.576l-6.559-8.016z" class="Vector 12_2"/>
        <path fill="#000" fill-opacity=".06" d="M646.475 427.15l-6.559-2.916.729 5.831 6.559 8.017 2.186-3.644-2.915-7.288z" class="Vector 19_5"/>
        <path stroke="#fff" stroke-linecap="round" stroke-opacity=".13" stroke-width=".729" d="M645.017 441.727c3.401-3.401 10.786-11.953 13.119-18.949" class="Vector 12_3"/>
        <path fill="#FDCFC1" d="M731.745 395.083l15.305-8.017 41.542-1.458 19.678 72.152-37.634 12.33-14.112 2.246-24.779-77.253z" class="Vector 13_2"/>
        <path fill="#000" fill-opacity=".08" d="M770.635 470.09l-14.003 2.625-25.616-77.633 16.762-7.288 22.857 82.296z" class="Vector 21"/>
        <path stroke="#000" stroke-width="1.458" d="M747.05 387.795c.243-12.876 1.02-38.627 2.186-38.627l-17.491 45.915m24.779-34.254l32.068 24.779m-36.44-20.406l12.389 20.406" class="Vector 14"/>
        <path stroke="#000" stroke-opacity=".03" stroke-width="1.458" d="M708.423 384.148c-1.701-26.48-2.187-52.474-12.39-77.253" class="Vector 15_2"/>
        <path fill="#fff" fill-opacity=".03" d="M681.457 567.809l-3.644-4.373s38.828-45.238 51.016-84.542c3.842-12.389-25.508-67.779-25.508-67.779 6.559-1.457 3.887-.728 9.475-4.372 7.774 21.621 23.321 66.904 23.321 75.067 0 8.162-36.44 60.733-54.66 85.999z" class="Vector 16"/>
        <path fill="#000" fill-opacity=".04" d="M690.931 505.135l-9.474-54.661 16.033 44.457-6.559 10.204z" class="Vector 17"/>
        <path fill="#000" fill-opacity=".06" d="M724.457 580.928l-15.305-53.931 5.101-6.56 22.593 56.118-12.389 4.373z" class="Vector 18"/>
        <path fill="#000" fill-opacity=".03" d="M706.237 359.374c-1.749 13.41 3.158 36.683 5.83 46.643-9.912 8.746-33.525 9.718-43.728 8.746 0 0 10.932-6.559 16.034-11.661 5.101-5.102 14.576-11.661 16.762-36.44 1.119-12.685-2.186-46.158-3.644-59.033 3.644 10.932 10.495 38.335 8.746 51.745z" class="Vector 20_2"/>
      </g>
      <path stroke="#CCC" stroke-width="3.501" d="M215.757 634.63h590.762" class="Vector 22_3"/>
      <g class="Group 3">
        <path fill="#F3F3F3" d="M938.675 285.519H796.568c-1.262 0-2.427.68-3.048 1.778l-4.724 8.357c-1.241 2.196-4.325 2.398-5.843.385l-6.878-9.126a3.501 3.501 0 00-2.796-1.394h-25.398a3.5 3.5 0 01-3.501-3.501V165.523a3.5 3.5 0 013.501-3.501h190.794a3.501 3.501 0 013.501 3.501v116.495a3.501 3.501 0 01-3.501 3.501z" class="Vector 28"/>
        <g class="Group 2">
          <path fill="#fff" fill-opacity=".97" d="M753.132 177.774h47.261v89.271h-47.261z" class="Rectangle"/>
          <rect width="33.258" height="10.502" x="760.133" y="249.543" fill="#1999AB" class="Rectangle 2" rx="1.75"/>
          <path fill="#DFF8F9" d="M760.133 214.534h33.258v29.757h-33.258z" class="Rectangle 2.1"/>
          <path fill="#DFF8F9" d="M760.133 186.528h33.258v22.755h-33.258z" class="Rectangle 2.2"/>
          <circle cx="776.762" cy="229.412" r="7.877" fill="#FF9E80" class="Ellipse_2"/>
        </g>
        <rect width="106.775" height="43.76" x="805.645" y="177.774" fill="#fff" class="Rectangle_2" rx="1.75"/>
        <rect width="33.258" height="42.01" x="805.645" y="225.037" fill="#fff" class="Rectangle_3" rx="1.75"/>
        <rect width="33.258" height="42.01" x="842.402" y="225.037" fill="#fff" class="Rectangle_4" rx="1.75"/>
        <rect width="33.258" height="42.01" x="879.162" y="225.037" fill="#fff" class="Rectangle_5" rx="1.75"/>
      </g>
    </g>
  </g>
</svg>
