<svg xmlns="http://www.w3.org/2000/svg" width="1155" height="700" fill="none" viewBox="0 0 1155 700">
  <g class="man_browsing_web">
    <path fill="#fff" d="M0 0h1155v700H0z"/>
    <g class="Group 4.1">
      <g class="Group 4">
        <rect width="265.912" height="560.965" x="356.847" y="69.821" fill="#F0F6F9" class="Rectangle" rx="25.498"/>
        <g class="Group 4_2">
          <rect width="81.959" height="134.777" x="384.166" y="148.139" fill="#000" fill-opacity=".06" class="Rectangle 2" rx="12.749"/>
          <rect width="81.959" height="134.777" x="480.696" y="148.139" fill="#000" fill-opacity=".06" class="Rectangle 2.1" rx="12.749"/>
          <rect width="224.022" height="134.777" x="384.166" y="299.308" fill="#000" fill-opacity=".06" class="Rectangle 2.2" rx="12.749"/>
          <rect width="50.997" height="50.997" x="400.558" y="324.807" fill="#000" fill-opacity=".06" class="Rectangle 2.5" rx="2.862"/>
          <rect width="129.313" height="9.107" x="460.661" y="324.807" fill="#000" fill-opacity=".06" class="Rectangle 2.6" rx="2.862"/>
          <rect width="83.781" height="9.107" x="462.482" y="341.199" fill="#000" fill-opacity=".06" class="Rectangle 2.7" rx="2.862"/>
          <rect width="149.348" height="134.777" x="382.345" y="446.834" fill="#000" fill-opacity=".06" class="Rectangle 2.3" rx="12.749"/>
          <rect width="61.925" height="134.777" x="546.264" y="446.834" fill="#000" fill-opacity=".06" class="Rectangle 2.4" rx="12.749"/>
          <rect width="36.426" height="36.426" x="559.013" y="459.584" fill="#000" fill-opacity=".06" class="Rectangle 2.8" rx="7.5"/>
          <rect width="36.426" height="36.426" x="559.013" y="503.295" fill="#000" fill-opacity=".06" class="Rectangle 2.9" rx="7.5"/>
        </g>
      </g>
      <g class="Group">
        <g class="Group 9.3">
          <g class="Group 8.1">
            <path fill="#FF9E80" d="M353.355 554.593c23.783 13.157-9.91 57.349-29.729 77.8h-36.054c-25.617-11.701-72.867-37.066-56.927-44.909 19.924-9.804-11.069-20.873-19.924-45.858-8.856-24.985 26.249-24.352 51.55-24.352s5.377-32.891 31.943-40.481c26.566-7.591 17.394 21.822 17.394 40.481 0 18.66 12.018 20.873 41.747 37.319z" class="Vector"/>
            <path fill="#fff" fill-opacity=".13" d="M285.9 520.706c6.709 11.182 11.327 73.35 20.604 110.458h-10.437c1.582-5.06-30.677-21.506-41.114-28.148-10.436-6.641 1.265-18.027 5.377-19.925 4.111-1.897-34.473-19.608-28.464-42.378 4.458-16.893 27.787 19.932 34.156 3.162 4.042-10.642 15.134-31.076 19.878-23.169z" class="Vector 3"/>
            <path stroke="#FBFBFB" stroke-linecap="round" stroke-width="1.423" d="M309.035 631.799c-1.944-5.373-4.345-12.692-6.798-21.189m-3.322-113.536c-7.274 10.437-.631 15.769-4.742 34.744-4.622 21.333-1.188 43.553 4.742 66.616m0 0c-13.494-18.185-30.678-34.947-58.509-52.025m58.509 52.025a429.322 429.322 0 003.322 12.176m0 0c7.642-10.858 26.027-33.903 38.424-39.217" class="Vector 2"/>
          </g>
          <g class="Group 8">
            <path fill="#17A0B3" d="M270.039 539.606c-28.468 15.749 11.862 68.648 35.586 93.129h43.158c30.664-14.007 87.223-44.369 68.143-53.758-23.85-11.736 13.25-24.986 23.85-54.893 10.6-29.907-31.422-29.15-61.707-29.15-30.286 0-6.436-39.371-38.236-48.457-31.8-9.086-20.822 26.121-20.822 48.457 0 22.336-14.386 24.986-49.972 44.672z" class="Vector_2"/>
            <path fill="#fff" fill-opacity=".13" d="M350.784 499.047c-8.031 13.385-13.559 87.802-24.664 132.221h12.493c-1.893-6.057 36.722-25.743 49.215-33.693 12.493-7.95-19.786-9.138-19.786-19.309 0-15.843 54.614-28.013 47.421-55.27-5.336-20.221-33.261 23.86-40.885 3.785-4.839-12.739-18.116-37.198-23.794-27.734z" class="Vector 3_2"/>
            <path stroke="#FBFBFB" stroke-linecap="round" stroke-width="1.703" d="M323.09 632.023c2.328-6.432 5.201-15.193 8.138-25.364m3.977-135.905c8.707 12.493.754 18.876 5.675 41.59 5.533 25.536 1.422 52.133-5.675 79.74m0 0c16.152-21.768 36.721-41.832 70.036-62.275m-70.036 62.275a517.737 517.737 0 01-3.977 14.575m0 0c-9.148-12.997-31.155-40.583-45.995-46.943" class="Vector 2_2"/>
          </g>
        </g>
        <g class="floor">
          <path fill="#F7B3A4" d="M726.574 608.276c-1.213-1.82-6.375-21.203-8.441-31.85-4.55 2.275-14.408 3.286-19.716 3.033 1.769 9.353 9.944 28.817 9.944 28.817s11.641-.506 18.213 0z" class="Vector 6"/>
          <path fill="#000" fill-opacity=".07" d="M710.551 608.277l-3.791-23.508c-2.275-2.023-6.825-4.399-6.825-.759s6.152 17.442 8.427 24.267h2.189z" class="Vector 10"/>
          <g class="Group_2">
            <path fill="#FA5C5C" d="M708.215 632.132c-3.033-7.28-1.264-19.717 0-25.025h18.958s25.595 17.441 40.95 17.441c4.55 0 1.517 7.584 1.517 7.584h-61.425z" class="Vector 7"/>
            <path stroke="#fff" stroke-linecap="round" stroke-width="1.821" d="M739.566 619.447h7.286m-1.822 2.732h10.018m-19.124-6.374h5.464" class="Vector 12"/>
          </g>
          <path fill="#F7B3A4" d="M634.717 566.571l15.167-22.75 13.65 14.408-17.442 18.2-11.375-9.858z" class="Vector 8"/>
          <path fill="#000" fill-opacity=".08" d="M658.227 546.852l-20.475 21.992h-3.792l18.2-27.3 6.067 5.308z" class="Vector 11"/>
          <path fill="#FA5C5C" d="M621.826 581.734l13.65-17.441 13.65 14.408s4.079 11.032 7.583 19.717c3.815 9.458 15.166 18.199 11.375 26.541-1.156 2.544-6.067 3.792-6.067 3.792l-40.191-47.017z" class="Vector 9"/>
          <path stroke="#fff" stroke-linecap="round" stroke-width="1.821" d="M650.08 587.983l4.553 3.642m-5.464.911l8.196 5.464m-7.285 0l9.106 6.375" class="Vector 13"/>
        </g>
        <path fill="#124E85" fill-rule="evenodd" d="M649.169 220.078s-4.553-5.72-4.553-10.018c0-4.297.91-10.017 4.553-10.017 4.941 0 10.928 6.375 10.928 6.375l17.302 10.017c-.91 20.035-3.096 36.426-11.838 36.426-5.725 0-11.112-1.171-14.83-1.98-1.96-.426-3.456-.752-4.294-.752-3.339-4.466-3.096-16.001 2.732-30.051zm72.756 254.732c6.067-16.684-21.233-78.108-23.508-81.9-12.133 14.56-59.15 8.847-80.383 3.792l-1.516 9.858c-3.034 19.413 28.816 80.108 46.258 107.661l-19.717 31.872 19.717 20.474c1.772-2.508 4.12-5.542 6.672-8.84 3.496-4.517 7.375-9.53 10.683-14.365l16.769 42.922c9.207 2.302 21.641-5.22 27.212-8.589.303-.184.586-.355.847-.511l-24.338-65.975c10.308-15.825 19.026-30.134 21.304-36.399z" class="Union" clip-rule="evenodd"/>
        <path fill="#F7AF9F" fill-rule="evenodd" d="M667.429 252.654c2.711-3.328 4.924-9.096 6.327-18.916l-2.732-9.107s-2.434-3.642-10.017-3.642c-9.93 0-11.839-1.822-11.839-1.822-4.973 11.605-9.908 27.941-.487 35.402l-1.072 10.18-.758 6.066 11.375 12.133 14.408-8.341c-.253-.885-.821-2.022-1.422-3.223-.6-1.201-1.232-2.465-1.611-3.602-.492-1.474-1.751-9.811-2.172-15.128z" class="Union_2" clip-rule="evenodd"/>
        <path fill="#fff" fill-opacity=".06" d="M673.756 233.738c-3.642 25.498-12.749 23.677-21.856 22.766-13.613-6.128-8.195-24.587-2.732-37.337 0 0 1.909 1.822 11.839 1.822 7.583 0 10.928 3.642 10.928 3.642l1.821 9.107z" class="Vector 11.1"/>
        <path fill="#000" fill-opacity=".04" d="M667.325 267.433s-.506-12.033 0-13.297c.758 6.825 1.516 15.167 3.791 16.684-.758 3.033-11.375 5.308-10.616 4.55.606-.607 6.825-7.937 6.825-7.937z" class="Vector 19"/>
        <path fill="#2A2626" d="M769.254 299.588l-14.776 23.508a1.517 1.517 0 001.284 2.324h13.019c.565 0 1.083-.315 1.345-.816l8.674-16.626 3.453-6.905a1.517 1.517 0 00-1.357-2.195h-10.358c-.521 0-1.006.268-1.284.71z" class="Vector 15"/>
        <path fill="#F7B3A4" d="M756.049 324.663l-28.816 14.408c-1.214 3.64 1.516 13.65 3.033 18.2l34.125-25.783c10.616-7.584 15.925-23.509 13.65-23.509-1.82 0-15.42 11.123-21.992 16.684z" class="Vector 4"/>
        <path fill="#fff" fill-opacity=".06" d="M733.859 343.017l-2.732-5.463 24.588-12.75-21.856 18.213z" class="Vector 22"/>
        <path stroke="#000" stroke-linecap="round" stroke-opacity=".07" stroke-width="1.517" d="M647.608 540.786l36.4-54.6-18.958-54.6" class="Vector 19_2"/>
        <path fill="#000" fill-opacity=".04" d="M684.767 486.183l-19.717 26.542c-9.099-14.56-35.641-60.666-43.224-83.416 0 0 25.674-1.312 38.675 6.825 18.413 11.523 24.266 50.049 24.266 50.049z" class="Vector 19_3"/>
        <path fill="#000" fill-opacity=".07" d="M635.476 399.734c1.82 35.793 22.497 87.208 32.608 108.441l-5.256 6.045-4.553-6.045c-50.05-87.966-43.021-94.791-40.241-108.441h17.442z" class="Vector 19_4"/>
        <path fill="#6A46FA" fill-rule="evenodd" d="M646.85 267.028l-21.233 3.791-.001.002c-8.595 5.562-27.754 28.969-35.64 78.107 6.572 15.925 22.143 50.96 31.849 63.699l14.409-10.616-.065-.171.823-.588c38.22 6.673 57.38-2.781 62.183-8.342-1.983-2.644-3.606-12.311-4.795-22.771l.245.023 36.4-9.859c7.584-14.408 3.792-25.025-2.275-26.541l-29.575 3.791c-3.346-25.653-8.622-47.064-15.889-59.497-4.413-8.263-9.339-12.316-13.173-8.802-10.73 13.115-18.441 3.676-23.022-1.932l-.241-.294z" class="Union_3" clip-rule="evenodd"/>
        <path fill="#070707" fill-opacity=".06" d="M619.55 401.251c-2.427-.606-20.728-35.641-29.575-53.083 1.213 8.494 20.475 47.775 31.85 64.458l4.55-3.791c-1.264-2.275-4.398-6.977-6.825-7.584z" class="Vector 20"/>
        <path stroke="#000" stroke-opacity=".06" stroke-width="1.517" d="M625.617 270.82c-8.595 5.561-27.755 28.968-35.642 78.108 6.572 15.925 22.143 50.96 31.85 63.7l14.408-10.617L615 345.895l16.683-44.742" class="Vector_3"/>
        <path fill="#F7B3A4" d="M624.101 417.934l-.758-6.825 11.375-8.341 6.066 8.341c-.606 4.247-6.825 11.881-9.858 15.167l-6.825-8.342z" class="Vector 12_2"/>
        <path fill="#000" fill-opacity=".06" d="M630.168 414.902l-6.825-3.033.758 6.067 6.825 8.341 2.275-3.791-3.033-7.584z" class="Vector 19_5"/>
        <path stroke="#fff" stroke-linecap="round" stroke-opacity=".13" stroke-width=".758" d="M628.65 430.069c3.539-3.539 11.224-12.437 13.65-19.717" class="Vector 12_3"/>
        <path stroke="#000" stroke-opacity=".03" stroke-width="1.517" d="M694.625 370.16c-1.77-27.553-2.275-54.6-12.892-80.383" class="Vector 15_2"/>
        <path fill="#fff" fill-opacity=".03" d="M666.567 561.259l-3.792-4.55s40.402-47.07 53.083-87.966c3.998-12.891-26.541-70.525-26.541-70.525 6.825-1.516 4.044-.758 9.858-4.55 8.089 22.498 24.267 69.615 24.267 78.108 0 8.494-37.917 63.195-56.875 89.483z" class="Vector 16"/>
        <path fill="#000" fill-opacity=".04" d="M676.426 496.046l-9.859-56.875 16.684 46.258-6.825 10.617z" class="Vector 17"/>
        <path fill="#000" fill-opacity=".06" d="M711.309 574.91l-15.925-56.117 5.308-6.824L724.2 570.36l-12.891 4.55z" class="Vector 18"/>
        <path fill="#000" fill-opacity=".03" d="M692.351 344.379c-1.82 13.953 3.286 38.169 6.066 48.533-10.313 9.1-34.883 10.111-45.5 9.1 0 0 11.375-6.825 16.684-12.133 5.308-5.309 15.166-12.134 17.441-37.917 1.165-13.198-2.275-48.027-3.791-61.425 3.791 11.375 10.92 39.889 9.1 53.842z" class="Vector 20_2"/>
      </g>
      <path stroke="#000" stroke-width="3.643" d="M182 630.786h614.694" class="Vector 22_2"/>
      <g class="Group 3">
        <path fill="#F3F3F3" d="M934.204 267.531H786.34a3.643 3.643 0 00-3.171 1.85l-4.915 8.696c-1.291 2.284-4.501 2.495-6.08.4l-7.157-9.496a3.642 3.642 0 00-2.909-1.45h-26.427a3.643 3.643 0 01-3.643-3.643V142.674a3.643 3.643 0 013.643-3.643h198.523a3.643 3.643 0 013.643 3.643v121.214a3.643 3.643 0 01-3.643 3.643z" class="Vector 28"/>
        <g class="Group 2">
          <path fill="#fff" fill-opacity=".97" d="M741.144 155.422h49.175v92.887h-49.175z" class="Rectangle_2"/>
          <rect width="34.605" height="10.928" x="748.429" y="230.097" fill="#1999AB" class="Rectangle 2_2" rx="1.821"/>
          <path fill="#DFF8F9" d="M748.429 193.67h34.605v30.962h-34.605z" class="Rectangle 2.1_2"/>
          <path fill="#DFF8F9" d="M748.429 164.529h34.605v23.677h-34.605z" class="Rectangle 2.2_2"/>
          <circle cx="765.732" cy="209.152" r="8.196" fill="#FF9E80" class="Ellipse"/>
        </g>
        <rect width="111.1" height="45.533" x="795.783" y="155.422" fill="#fff" class="Rectangle_3" rx="1.821"/>
        <rect width="34.605" height="43.712" x="795.783" y="204.598" fill="#fff" class="Rectangle_4" rx="1.821"/>
        <rect width="34.605" height="43.712" x="834.031" y="204.598" fill="#fff" class="Rectangle_5" rx="1.821"/>
        <rect width="34.605" height="43.712" x="872.279" y="204.598" fill="#fff" class="Rectangle_6" rx="1.821"/>
      </g>
    </g>
  </g>
</svg>
