<svg xmlns="http://www.w3.org/2000/svg" width="1155" height="700" fill="none" viewBox="0 0 1155 700">
  <g class="man_order_food">
    <path fill="#fff" d="M0 0h1155v700H0z"/>
    <g class="Group 10.1">
      <g class="Group 8">
        <path fill="#CDCAFD" fill-opacity=".12" d="M298.17 606.739h531.394c59.379 0 149.454-62.399 134.861-189.209-10.834-94.139-76.489-37.741-82.024-112.719-5.535-74.979 2.013-155.493-100.139-149.958-102.153 5.535-128.32 14.09-253.62-46.296-125.3-60.385-200.279 69.444-219.904 142.913-19.626 73.469-62.399 51.831-91.082 115.739-28.683 63.908 51.831 46.799-14.09 125.3-52.737 62.801 41.096 102.32 94.604 114.23z" class="Vector 20"/>
        <path fill="#999DF9" fill-opacity=".07" d="M414.1 605.657H817.933c45.125 0 113.578-47.42 102.488-143.789-8.233-71.542-58.128-28.682-62.334-85.662-4.207-56.98 1.529-118.167-76.102-113.96-77.63 4.206-97.516 10.707-192.738-35.183S437.045 279.837 422.13 335.67c-14.914 55.833-47.419 39.389-69.217 87.956-21.798 48.567 39.389 35.565-10.708 95.222-40.077 47.726 31.231 77.758 71.895 86.809z" class="Vector 20.1"/>
        <path fill="#999DF9" fill-opacity=".07" d="M477.659 603.775H760.874c31.647 0 79.654-33.257 71.876-100.842-5.774-50.173-40.766-20.115-43.716-60.076-2.95-39.961 1.073-82.872-53.371-79.922-54.443 2.95-68.39 7.509-135.17-24.674-66.781-32.184-106.742 37.011-117.202 76.167-10.46 39.157-33.256 27.625-48.543 61.685-15.288 34.061 27.624 24.943-7.51 66.781-28.107 33.471 21.903 54.533 50.421 60.881z" class="Vector 20.2"/>
      </g>
      <g class="Group 9">
        <path fill="#7674F1" d="M627.775 362.176c-20.934 9.259-29.436 62.681-28.43 84.823l31.199 14.593 12.077 145.428h151.214s-9.696-43.093-13.333-70.449c-4.015-30.195-12.834-102.939-12.834-102.939l12.581 41.264s14.484-.724 22.644-5.032c8.667-4.576 17.613-16.606 17.613-16.606-15.853-86.333-63.991-96.502-96.867-103.38-45.491 22.544-65.586 9.394-69.947 0l-25.917 12.298z" class="Vector"/>
        <path fill="#F9B2B2" fill-rule="evenodd" d="M664.26 333.177c-10.897-6.49-18.27-25.788-8.808-65.607 9.561-26.67 57.62-23.871 60.639 6.825 2.024 20.577-3.323 35.026-10.999 44.72l-1.078 26.234 20.128 4.529-4.529 2.012s-18.235 10.666-31.199 11.574c-1.373.097-2.708.211-4.01.323-8.867.761-16.156 1.386-23.164-4.852-.682-.607-1.542-1.282-2.438-1.986-3.38-2.655-7.274-5.713-4.103-7.071 3.522-1.51 9.561-7.045 9.561-7.045v-9.656zm-64.162 113.538l-9.561 37.741-40.507-89.289c-1.45-6.738-.691-12.017-.001-16.819.628-4.366 1.199-8.337.001-12.65-.921-3.315-14.846-28.18-23.401-37.238s8.051 29.186 8.051 29.186l-15.096 15.6 12.077 21.921c.747 3.505 1.599 7.72 2.558 12.468v.002c9.6 47.515 29.979 148.384 63.866 124.791 20.313-14.143 24.429-32.2 30.873-60.468.74-3.245 1.51-6.625 2.339-10.149l-31.199-15.096zm185.938 27.456l4.529 38.748-80.011 94.604 38.748-1.51 41.263-35.508 29.052-31.978a27.169 27.169 0 006.84-21.729l-7.208-56.214v-5.818s-10 11.137-16.86 14.593c-5.945 2.996-16.353 4.812-16.353 4.812z" class="Union" clip-rule="evenodd"/>
        <g class="Group 7">
          <path fill="#000" fill-opacity=".03" d="M664.509 340.537v-7.045c12.883 8.052 28.516-2.013 34.722-8.051v8.051c-1.845 3.355-7.85 10.769-17.109 13.587-9.259 2.818-15.6-1.174-17.613-3.522v-3.02z" class="Vector_2"/>
          <path fill="#000" fill-opacity=".04" d="M664.509 343.054l-10.065 7.548c-.805 4.831 10.4 10.735 16.103 13.084 0 0 4.577-.611 6.542-2.516 1.453-1.409 2.516-4.529 2.516-4.529-.671-.168-9.963-1.611-13.587-2.013-3.623-.403-3.019-6.039-1.509-11.574z" class="Vector 24"/>
          <path fill="#000" fill-opacity=".04" d="M699.733 325.441l5.032-6.038-1.006 26.167 11.574 2.516s-16.606 10.699-16.606 4.026c0-4.026 1.006-26.671 1.006-26.671z" class="Vector 21"/>
          <path fill="#000" fill-opacity=".06" d="M536.693 409.981l-4.529-13.587s5.113 26.772 9.058 43.78c3.758 16.204 10.567 41.263 10.567 41.263v-10.064l-6.038-23.148-9.058-38.244z" class="Vector 19"/>
          <path fill="#fff" fill-opacity=".1" d="M594.059 488.484l17.612-36.232-11.574-5.032-9.561 37.741-1.509 4.529s.966 5.583 2.516 4.026c1.549-1.558 2.516-5.032 2.516-5.032z" class="Vector 16"/>
          <path fill="#fff" fill-opacity=".08" d="M793.835 471.374l-8.052 2.516 5.032 38.748-68.94 81.017s65.921-51.328 76.992-81.017c2.988-8.016-5.032-41.264-5.032-41.264z" class="Vector 13"/>
          <path fill="#000" fill-opacity=".06" d="M626.768 405.956l4.528 55.354-10.567-4.026 6.039-51.328z" class="Vector 6"/>
          <path fill="#fff" fill-opacity=".07" d="M656.457 266.062c-13.587 50.322 2.266 69.726 17.362 69.726 11.406 1.342 47.005-13.255 42.27-61.392-3.019-30.696-50.071-35.004-59.632-8.334z" class="Vector 5.1"/>
          <path fill="#1B1472" d="M695.961 298.048c-5.032 9.844-2.769-26.167-2.769-26.167l2.769-5.315 19.625 5.315c4.779 23.871-4.111 41.316-9.311 45.006V303.3c1.342-6.709-1.458-9.982-2.263-12.8-.805-2.818-3.019-2.296-8.051 7.548z" class="Vector 8"/>
        </g>
        <path fill="#7674F1" fill-rule="evenodd" d="M695.081 274.122c8.625.2 16.599-.487 22.015-2.744 3.02-18.619-10.567-33.212-35.225-30.696-7.714.788-14.459 5.817-19.236 11.7-3.586-.882-7.27-1.325-10.956-1.131-17.839.939-13.922 5.69-8.773 11.935 1.474 1.788 3.049 3.699 4.244 5.677l27.253 3.469c4.469.619 9.175 1.141 13.838 1.466l5.708.601 1.132-.277z" class="Union_2" clip-rule="evenodd"/>
        <path fill="#fff" fill-opacity=".12" d="M651.679 251.25c-22.947 1.208-9.579 8.553-4.212 17.443l27.36 3.692 19.122 2.013 3.522-.86s-22.846-23.496-45.792-22.288z" class="Vector 7.1"/>
        <path fill="#fff" fill-opacity=".13" d="M636.832 462.316c-2.569-21.16-9.057-51.831-9.057-51.831l10.064 136.371s4.508-16.515 3.019-28.18c-3.019-23.651-1.442-35.087-4.026-56.36z" class="Vector 9"/>
        <path fill="#000" fill-opacity=".05" d="M789.81 472.884l-21.638-38.748 12.58 40.761 9.058-2.013z" class="Vector 10"/>
        <path fill="#000" fill-opacity=".08" d="M769.682 538.299l-2.013-103.662 11.574 92.088-9.561 11.574z" class="Vector 11"/>
        <path fill="#000" fill-opacity=".04" d="M793.332 600.701l-6.038-27.677-7.548 7.548v20.129h13.586z" class="Vector 12"/>
        <path fill="#000" fill-opacity=".05" d="M820.506 521.19c3.877-23.599-6.542-60.889-6.542-60.889l5.032-5.032 7.548 65.921c.806 8.454-8.051 19.29-12.58 23.651 0 0 4.988-14.195 6.542-23.651z" class="Vector 14"/>
        <path fill="#000" fill-opacity=".04" d="M756.094 595.668l-6.038 10.064 37.741-33.212 21.135-22.645-10.568 6.542-42.27 39.251z" class="Vector 15"/>
        <path fill="#000" fill-opacity=".06" d="M630.795 461.811c-5.033 43.78-22.142 62.902-30.193 68.437 0 0 12.957-19.368 18.115-33.212 5.195-13.942 9.058-36.734 9.058-36.734l3.02 1.509z" class="Vector 17"/>
        <path fill="#000" fill-opacity=".03" d="M590.537 531.256c-19.726-1.61-36.064-43.947-41.767-64.914 9.259 47.905 27.677 68.437 35.728 69.443 6.039 1.61 11.91-2.348 14.09-4.529h-8.051z" class="Vector 18"/>
        <path fill="#fff" fill-opacity=".16" d="M564.874 439.67c-5.881-15.449-13.084-40.257-13.084-40.257l38.748 85.043-1.51 5.032s-15.918-28.18-24.154-49.818z" class="Vector 20_2"/>
        <path fill="#000" fill-opacity=".08" d="M763.14 377.271c-3.02-4.529-39.754-20.967-38.244-27.174 61.895 10.065 81.017 48.98 85.546 68.437-20.129-26.167-27.677-24.154-47.302-41.263z" class="Vector 22"/>
        <path fill="#000" fill-opacity=".06" d="M630.29 367.209c-11.675 7.648-25.328 55.521-30.696 78.501 2.013-56.763 18.283-78.334 25.664-82.024l27.173-13.083 3.523 4.025c-3.69 1.007-13.989 4.932-25.664 12.581z" class="Vector 23"/>
      </g>
      <g class="Group 6">
        <rect width="146.938" height="186.189" x="418.943" y="274.618" fill="#fff" fill-opacity=".61" class="Rectangle" rx="15.096"/>
        <g class="Group 4">
          <g class="Group 2">
            <rect width="55.353" height="55.353" x="433.031" y="306.824" fill="#CCF0F5" class="Rectangle 2" rx="3.019"/>
            <g class="Group">
              <path fill="#E49F78" d="M475.302 329.47c0-3.07-1.484-6.014-4.127-8.184-2.642-2.171-6.226-3.39-9.963-3.39-3.737 0-7.321 1.219-9.963 3.39-2.642 2.17-4.127 5.114-4.127 8.184h28.18z" class="Ellipse"/>
              <path fill="#E49F78" d="M475.301 340.039c0 2.669-1.485 5.229-4.127 7.117-2.642 1.887-6.226 2.947-9.963 2.947-3.737 0-7.321-1.06-9.963-2.947-2.643-1.888-4.127-4.448-4.127-7.117h28.18z" class="Ellipse_2"/>
              <rect width="28.18" height="4.026" x="447.121" y="332.993" fill="#836F6F" class="Rectangle 3" rx="1.006"/>
              <rect width="28.18" height="1.006" x="447.121" y="330.982" fill="#F9CB70" class="Rectangle 3.1" rx=".503"/>
            </g>
          </g>
          <g class="Group 2.2">
            <rect width="55.353" height="55.353" x="496.436" y="306.826" fill="#FAE5DA" class="Rectangle 2_2" rx="3.019"/>
            <g class="Group_2">
              <path fill="#F3B18B" d="M538.706 329.472c0-3.07-1.485-6.014-4.127-8.184-2.642-2.171-6.226-3.39-9.963-3.39-3.737 0-7.321 1.219-9.963 3.39-2.643 2.17-4.127 5.114-4.127 8.184h28.18z" class="Ellipse_3"/>
              <path fill="#F3B18B" d="M538.705 340.038c0 2.669-1.484 5.229-4.127 7.116-2.642 1.888-6.226 2.948-9.963 2.948-3.737 0-7.32-1.06-9.963-2.948-2.642-1.887-4.127-4.447-4.127-7.116h28.18z" class="Ellipse_4"/>
              <rect width="28.18" height="4.026" x="510.525" y="332.994" fill="#EB6F3B" class="Rectangle 3_2" rx="1.006"/>
              <rect width="28.18" height="1.006" x="510.525" y="330.981" fill="#F9CB70" class="Rectangle 3.1_2" rx=".503"/>
              <rect width="28.18" height="1.006" x="510.525" y="338.024" fill="#F98970" class="Rectangle 3.2" rx=".503"/>
            </g>
          </g>
        </g>
        <g class="Group 4.1">
          <g class="Group 2_2">
            <rect width="55.353" height="55.353" x="433.033" y="373.247" fill="#F9CEE8" class="Rectangle 2_3" rx="3.019"/>
            <g class="Group_3">
              <path fill="#E49F78" d="M475.303 395.892c0-3.07-1.485-6.014-4.127-8.184-2.643-2.171-6.227-3.39-9.963-3.39-3.737 0-7.321 1.219-9.964 3.39-2.642 2.17-4.126 5.114-4.126 8.184h28.18z" class="Ellipse_5"/>
              <path fill="#E49F78" d="M475.302 406.459c0 2.669-1.484 5.229-4.127 7.117-2.642 1.887-6.226 2.947-9.963 2.947-3.737 0-7.32-1.06-9.963-2.947-2.642-1.888-4.127-4.448-4.127-7.117h28.18z" class="Ellipse_6"/>
              <rect width="28.18" height="4.026" x="447.122" y="399.413" fill="#836F6F" class="Rectangle 3_3" rx="1.006"/>
              <rect width="28.18" height="1.006" x="447.122" y="397.402" fill="#F9CB70" class="Rectangle 3.1_3" rx=".503"/>
            </g>
          </g>
          <g class="Group 2.2_2">
            <rect width="55.353" height="55.353" x="496.438" y="373.247" fill="#CCF0F5" class="Rectangle 2_4" rx="3.019"/>
            <g class="Group_4">
              <path fill="#F3B18B" d="M538.707 395.89c0-3.07-1.485-6.014-4.127-8.184-2.642-2.171-6.226-3.39-9.963-3.39-3.737 0-7.321 1.219-9.963 3.39-2.643 2.17-4.127 5.114-4.127 8.184h28.18z" class="Ellipse_7"/>
              <path fill="#F3B18B" d="M538.707 406.457c0 2.669-1.485 5.229-4.127 7.116-2.642 1.888-6.226 2.948-9.963 2.948-3.737 0-7.321-1.06-9.963-2.948-2.643-1.887-4.127-4.447-4.127-7.116h28.18z" class="Ellipse_8"/>
              <rect width="28.18" height="4.026" x="510.527" y="399.413" fill="#EB6F3B" class="Rectangle 3_4" rx="1.006"/>
              <rect width="28.18" height="1.006" x="510.527" y="397.399" fill="#F9CB70" class="Rectangle 3.1_4" rx=".503"/>
              <rect width="28.18" height="1.006" x="510.527" y="404.443" fill="#F98970" class="Rectangle 3.2_2" rx=".503"/>
            </g>
          </g>
        </g>
        <g class="Group 5">
          <rect width="146.938" height="42.27" x="418.941" y="468.857" fill="#6182F8" class="Rectangle 2_5" rx="8.051"/>
          <rect width="65.418" height="8.219" x="467.25" y="485.294" fill="#fff" fill-opacity=".58" class="Rectangle 3_5" rx="4.11"/>
          <rect width="17.109" height="8.219" x="447.12" y="485.294" fill="#fff" fill-opacity=".58" class="Rectangle 3.1_5" rx="4.11"/>
        </g>
      </g>
      <circle cx="622.24" cy="228.323" r="11.368" stroke="#fff" stroke-width="1.419" class="Ellipse_9"/>
      <circle cx="528.642" cy="207.188" r="3.789" stroke="#fff" stroke-width=".474" class="Ellipse_10"/>
      <circle cx="601.104" cy="325.946" r="8.525" stroke="#fff" stroke-width="1.066" class="Ellipse_11"/>
      <circle cx="440.076" cy="253.482" r="6.631" stroke="#fff" stroke-width=".829" class="Ellipse_12"/>
      <path stroke="#fff" stroke-width="1.006" d="M527.241 260.527l10.459-18.115 10.459 18.115h-20.918z" class="Polygon"/>
      <path stroke="#fff" stroke-width=".465" d="M616.406 294.514l4.828-8.362 4.827 8.362h-9.655z" class="Polygon_2"/>
      <path stroke="#fff" stroke-width=".465" d="M719.062 238.153l4.827-8.361 4.827 8.361h-9.654z" class="Polygon_3"/>
    </g>
  </g>
</svg>
