<svg xmlns="http://www.w3.org/2000/svg" width="1155" height="700" fill="none" viewBox="0 0 1155 700">
  <g class="man_water_plants">
    <path fill="#fff" d="M0 0h1155v700H0z"/>
    <g class="Group 5.1">
      <g class="Group 5">
        <path fill="#FFEFED" d="M341.676 622.78h531.857s77.19-254.327-18.294-447.08c-15.276-30.838-35.664-53.174-72.283-71.391-56.62-28.167-105.503-40.951-161.52-11.6-41.679 21.838-40.001 63.309-76.298 93.253-58.307 48.102-172.528-4.694-180.26 70.498-2.163 21.032 10.976 32.605 8.031 53.542-7.761 55.179-99.209 26.49-119.132 78.529-16.546 43.22 47.564 69.516 16.509 117.348-31.055 47.831 34.654 97.864 71.39 116.901z" class="Vector 22"/>
        <path stroke="#fff" stroke-dasharray="12.49 12.49" stroke-width="2.677" d="M423.231 622.196h450.748s44.173-342.535-12.493-388.493c-23.381-18.962-56.22-7.585-76.107-37.003-29.068-42.996-86.585-33.608-132.556-9.52-34.205 17.922-32.828 51.956-62.616 76.53-47.851 39.477-141.589-3.852-147.935 57.856-1.775 17.261 9.008 26.758 6.591 43.941-6.369 45.284-81.418 21.74-97.768 64.447-13.58 35.469 39.034 57.05 13.548 96.304-25.486 39.254 28.44 80.315 58.588 95.938z" class="Vector 22.1"/>
        <path stroke="#fff" stroke-dasharray="12.49 12.49" stroke-width="2.677" d="M503.952 621.599H827.13s86.56-252.254 16.509-319.628c-17.05-16.398-7.847-28.081-33.018-40.603-38.92-19.362-81.966-38.023-120.471-17.848-28.65 15.011-30.378 57.5-55.327 78.083-40.08 33.065-109.607-3.492-114.922 48.193-1.487 14.458 7.545 22.412 5.521 36.804-5.335 37.93-68.195 18.209-81.89 53.98-11.374 29.708 32.695 47.784 11.348 80.663-21.347 32.878 23.821 67.27 49.072 80.356z" class="Vector 22.2"/>
      </g>
      <path fill="#2A69C8" d="M825.345 588.869s2.231-82.991 0-128.056c-.552-11.144-3.57-31.233-3.57-31.233l-127.164 4.016-4.015 152.596 67.374 1.338 67.375 1.339z" class="Vector 7"/>
      <g class="Group 5_2">
        <path stroke="#000" stroke-dasharray="8.92 8.92" stroke-opacity=".1" stroke-width=".892" d="M820.437 442.52v136.087" class="Vector 22_2"/>
        <path fill="#000" fill-opacity=".03" d="M759.308 579.054l-2.231-67.821-8.477 67.821h10.708z" class="Vector 20"/>
        <path fill="#000" fill-opacity=".04" d="M802.142 595.562l-4.015-127.163s-.678-23.799 0-27.218c2.038-10.279 24.986-4.461 24.986-4.461l2.231 21.416v131.626l-23.202 5.8z" class="Vector 19"/>
        <path stroke="#000" stroke-opacity=".13" stroke-width=".892" d="M758.862 576.378l-1.785-60.682v-39.264" class="Vector 19_2"/>
        <path fill="#FF3636" fill-opacity=".04" d="M759.755 243.521c-5.416-2.937-3.57-16.955-3.57-16.955 3.57 9.37 5.354 12.939 12.047 15.617 0 0-5.261 3.083-8.477 1.338z" class="Vector 22_3"/>
      </g>
      <path fill="#FFBCBC" d="M721.828 245.304l-11.154 3.57-13.386 5.354 52.204 34.357 41.942-37.926-10.709-4.016s-15.616-3.569-19.632-9.816c-4.441-6.908-7.139-18.294-7.139-18.294-12.136 11.78-28.259 8.775-34.803 5.801 0 0 3.151 7.787 4.016 12.493.699 3.805-1.339 8.477-1.339 8.477z" class="Vector 4"/>
      <path fill="#FF2929" fill-opacity=".04" d="M748.154 227.457c-.714 8.924-17.847 15.617-26.325 17.848 1.785-4.462 2.231-8.032 0-13.386 2.142.714 18.443-2.528 26.325-4.462z" class="Vector 22_4"/>
      <path fill="#FFBCBC" d="M662.933 372.022l4.908-44.173 25.432-3.569v59.343l-58.45 75.852h-28.11l56.22-87.453z" class="Vector 3"/>
      <path fill="#fff" fill-opacity=".1" d="M666.501 373.36l4.462-40.603h-3.124l-4.461 39.265-36.142 55.327 2.677 2.677 36.588-56.666z" class="Vector 18"/>
      <path fill="#FF2D2D" fill-opacity=".05" d="M684.349 377.823l-58.897 81.206h9.816l57.112-74.514-.892-19.186-7.139 12.494z" class="Vector 18_2"/>
      <path fill="#FF99BE" d="M684.349 433.149v-27.218s-.3 3.354 0-14.278c.325-19.168 0-58.897 0-58.897H658.47c11.601-82.098 41.049-83.288 61.574-87.006 9.816 20.524 36.587 8.18 46.849-4.016 67.821 11.601 76.001 69.308 73.622 93.699l-29.003 5.355 3.57 50.865 4.462 14.278c0 8.032 13.385 32.126 0 36.588-17.402 5.8-135.195 3.569-135.195-9.37z" class="Vector"/>
      <path fill="#000" fill-opacity=".04" d="M670.07 286.354c9.816-33.018 36.142-39.711 49.973-40.604l5.355 7.586-8.032-1.339c-20.971 2.231-41.495 23.797-47.296 34.357z" class="Vector 22_5"/>
      <path fill="#000" fill-opacity=".03" d="M808.389 444.305c-48.634-14.724-109.762-5.859-123.148-135.195v124.933c23.559 11.066 91.766 13.237 123.148 10.262z" class="Vector 21"/>
      <path fill="#000" fill-opacity=".01" d="M831.145 336.772c.714-41.049-30.043-76.298-45.511-88.791 49.259 15.349 57.409 64.697 55.327 87.453l-9.816 1.338z" class="Vector 16"/>
      <path fill="#000" fill-opacity=".02" d="M800.804 377.822v-35.695l-11.601 42.388 11.601-6.693z" class="Vector 13"/>
      <path fill="#000" fill-opacity=".04" d="M684.795 332.757h-25.879s14.391-5.545 20.078-12.939c3.848-5.002 5.308-12.924 5.801-19.649v-12.477s.503 5.616 0 12.477v32.588z" class="Vector 12"/>
      <g class="Group 5_3">
        <path fill="#7A87FF" fill-rule="evenodd" d="M632.145 544.251l66.928-38.372-12.939-22.549 27.217-27.87-24.986-41.942-31.519 16.063-1.945-3.569-20.079 11.212-16.063-23.706c-24.272 10.709-31.828 38.373-32.571 50.866l9.494 13.832-85.346 9.816s-5.801-9.816-12.047-4.702c-5.823 4.766-15.171 12.287-15.171 12.287l27.218 15.617v-13.386l77.636-7.585 19.187 7.585 24.986 46.403zm73.621-88.791l-22.419 22.756-23.584-43.281 26.371-14.724 19.632 35.249z" class="Vector 6" clip-rule="evenodd"/>
        <path fill="#000" fill-opacity=".07" d="M671.856 521.05l-28.11-87.899-57.112 31.233 23.202 37.48 22.309 42.388 39.711-23.202z" class="Vector 20_2"/>
        <path fill="#000" fill-opacity=".12" d="M660.701 442.074l.893-3.124 21.417 39.711h-2.678l-19.632-36.587z" class="Vector 10"/>
        <path fill="#000" fill-opacity=".08" d="M621.436 444.752l-34.802 19.186c2.141-26.771 18.294-42.834 27.663-48.188l7.139 29.002z" class="Vector 9"/>
        <path fill="#000" fill-opacity=".09" d="M516.136 493.834l-5.355 4.015 72.729-7.139-8.031-2.677-59.343 5.801z" class="Vector 8"/>
        <path fill="#000" fill-opacity=".06" d="M615.189 484.015c-4.323-8.503-26.325 6.248-26.325 6.248l18.294 7.584 24.987 46.404 27.663-15.616s-31.233-18.295-44.619-44.62z" class="Vector 7_2"/>
        <path fill="#000" fill-opacity=".13" d="M699.073 505.88l-22.756 12.94s7.83-9.277 9.817-16.509c1.984-7.225 0-19.186 0-19.186l12.939 22.755z" class="Vector 11"/>
      </g>
      <path fill="#FFBCBC" d="M801.25 377.376v-34.803l37.48-6.693s-2.678 41.496-7.139 53.543c-8.741 23.598-118.687 56.219-118.687 56.219l-10.262 13.832s-9.019-2.585-12.047-7.139c-3.111-4.679-1.785-14.278-1.785-14.278l3.124-1.338 9.37-3.57 2.677-1.338 97.269-54.435z" class="Vector 2"/>
      <path fill="#FF7575" fill-opacity=".09" d="M805.712 379.607c-3.458 14.697-101.284 51.758-101.284 51.758l96.823-53.543v-36.141h6.246s0 30.341-1.785 37.926z" class="Vector 17"/>
      <path fill="#A56652" d="M283.226 576.822h601.461l-10.708 46.404h-531.41s-22.716-11.601-35.249-21.863c-10.392-8.509-24.094-24.541-24.094-24.541z" class="Rectangle"/>
      <path fill="#000" fill-opacity=".06" d="M884.687 576.822H282.779l12.494 12.494h585.845l3.569-12.494z" class="Rectangle_2"/>
      <g class="Group">
        <g class="bush">
          <path fill="#237873" d="M462.593 549.826c-18.918 2.499-24.243 16.509-24.54 23.202v4.016h121.809c2.082-5.801 3.748-18.383-6.246-22.31-12.494-4.908-12.048-17.401-26.326-31.233s-13.831 26.325-24.54 26.325c-10.708 0-1.339-24.986-16.509-20.525-15.17 4.462 0 17.402-23.648 20.525z" class="Vector 7_3"/>
          <path fill="#fff" fill-opacity=".06" d="M470.625 559.42c-11.779 2.142-21.566 12.494-24.986 17.402h97.269c-2.38 0 1.784-13.832-7.139-8.478-7.27 4.362-8.087-16.246-12.94-17.401-9.37-2.231-12.047 14.724-22.309 10.709-2.661-1.042-7.99-21.659-14.724-16.51-7.586 5.801-.447 11.601-15.171 14.278z" class="Vector 8_2"/>
        </g>
        <g class="bush_2">
          <path fill="#205350" d="M385.849 549.827c-18.918 2.499-24.243 16.509-24.54 23.202v4.016h121.809c2.082-5.8 3.748-18.383-6.247-22.309-12.493-4.909-12.047-17.402-26.325-31.234-14.278-13.832-13.832 26.325-24.54 26.325-10.709 0-1.339-24.986-16.509-20.524s0 17.401-23.648 20.524z" class="Vector 7_4"/>
          <path fill="#fff" fill-opacity=".06" d="M393.88 559.421c-11.779 2.142-21.566 12.493-24.986 17.401h97.269c-2.38 0 1.784-13.831-7.139-8.477-7.27 4.362-8.087-16.246-12.94-17.401-9.37-2.231-12.047 14.724-22.309 10.708-2.661-1.041-7.99-21.659-14.724-16.509-7.586 5.801-.447 11.601-15.171 14.278z" class="Vector 8_3"/>
        </g>
      </g>
      <g class="Group_2">
        <g class="bush_3">
          <path fill="#237873" d="M779.387 550.72c-18.918 2.498-24.243 16.509-24.54 23.201v4.016h121.809c2.082-5.8 3.748-18.383-6.247-22.309-12.493-4.908-12.047-17.402-26.325-31.234-14.278-13.832-13.831 26.326-24.54 26.326s-1.339-24.987-16.509-20.525 0 17.401-23.648 20.525z" class="Vector 7_5"/>
          <path fill="#fff" fill-opacity=".06" d="M787.419 560.313c-11.779 2.142-21.566 12.493-24.986 17.402h97.269c-2.38 0 1.784-13.832-7.139-8.478-7.27 4.362-8.087-16.246-12.94-17.401-9.37-2.231-12.047 14.724-22.309 10.708-2.661-1.041-7.99-21.659-14.724-16.509-7.586 5.801-.447 11.601-15.171 14.278z" class="Vector 8_4"/>
        </g>
        <g class="bush_4">
          <path fill="#205350" d="M702.643 550.721c-18.918 2.499-24.243 16.509-24.54 23.202v4.016h121.809c2.082-5.801 3.748-18.383-6.247-22.31-12.493-4.908-12.047-17.402-26.325-31.233-14.278-13.832-13.832 26.325-24.54 26.325-10.709 0-1.339-24.987-16.509-20.525-15.171 4.462 0 17.402-23.648 20.525z" class="Vector 7_6"/>
          <path fill="#fff" fill-opacity=".06" d="M710.674 560.315c-11.779 2.142-21.566 12.493-24.986 17.401h97.269c-2.38 0 1.784-13.831-7.139-8.477-7.27 4.362-8.087-16.246-12.94-17.401-9.37-2.231-12.047 14.724-22.309 10.708-2.661-1.041-7.99-21.659-14.725-16.509-7.585 5.801-.446 11.601-15.17 14.278z" class="Vector 8_5"/>
        </g>
      </g>
      <g class="Group_3">
        <g class="bush_5">
          <path fill="#25615D" d="M535.54 550.225c-18.918 2.498-24.243 16.509-24.54 23.201v4.016h121.809c2.083-5.8 3.748-18.383-6.246-22.309-12.493-4.908-12.047-17.402-26.325-31.234-14.278-13.832-13.832 26.326-24.541 26.326-10.708 0-1.338-24.987-16.509-20.525-15.17 4.462 0 17.401-23.648 20.525z" class="Vector 7_7"/>
          <path fill="#fff" fill-opacity=".06" d="M543.572 559.818c-11.78 2.142-21.566 12.494-24.987 17.402h97.269c-2.38 0 1.785-13.832-7.139-8.478-7.269 4.362-8.087-16.246-12.939-17.401-9.37-2.231-12.048 14.724-22.31 10.708-2.661-1.041-7.99-21.658-14.724-16.509-7.585 5.801-.446 11.601-15.17 14.278z" class="Vector 8_6"/>
        </g>
      </g>
      <path fill="#000" fill-opacity=".01" d="M773.587 445.643l6.693-23.648 18.293-7.585 18.74-11.601 2.231 7.139 5.801 18.294v8.477s-1.741 3.184-3.57 4.462c-2.217 1.549-6.693 1.785-6.693 1.785s-12.768 1.259-20.97 1.785c-8.007.512-20.525.892-20.525.892z" class="Vector 14"/>
      <path fill="#000" fill-opacity=".08" d="M792.772 310.447l.031.202c.317 2.076 3.218 19.546 11.57 25.231 3.964 2.697 9.37 4.462 9.37 4.462l-16.062 3.123-4.878-32.816a14.404 14.404 0 01-.031-.202z" class="Vector 18_3"/>
      <g class="Group 4">
        <path fill="#FFC1C1" d="M759.913 205.917c.892 17.847-18.479 27.663-33.018 27.663-14.539 0-20.079-21.322-20.079-38.818s10.894-31.233 25.433-31.233 27.664 24.892 27.664 42.388z" class="Ellipse"/>
        <path fill="#231753" d="M749.493 195.331c-.375-6.865-2.677-17.401-2.677-17.401-7.496 3.212-21.706 7.016-30.183 6.57-8.478-.445-16.063-5.44-16.063-5.44-17.402-8.925-7.042-52.583 8.031-32.486 14.724 19.632 20.376-5.057 27.218 8.923 26.414-3.212 27.663 34.357 27.663 34.357s-1.942 26.894-9.816 32.572c0 0 5.355-20.971 2.677-29.003-5.216-1.427-3.439 4.053-5.512 11.278l-1.338.446s.209-5.988 0-9.816z" class="Vector 5"/>
        <g class="Group 5_4">
          <path fill="#FFAFAF" d="M753.062 205.594v-9.529c2.677-4.908 5.354-3.009 5.8.56.357 2.856-1.339 8.523-5.8 8.969z" class="Vector 22_6"/>
          <path stroke="#FF0707" stroke-linecap="round" stroke-opacity=".12" stroke-width=".268" d="M754.4 203.811c.305-.761.404-1.82.394-2.9a21.896 21.896 0 00-.394-3.793c.149-.446.714-1.338 1.785-1.338m.446 3.123c-.148.892-.535 2.766-.892 3.123" class="Vector 23"/>
        </g>
        <g class="Group 3">
          <path stroke="#000" stroke-linecap="round" stroke-width=".892" d="M720.647 222.427c2.083.595 7.05.893 10.263-2.677" class="Vector 22_7"/>
          <g class="Group 2">
            <ellipse cx="730.91" cy="201.457" fill="#fff" class="Ellipse 3" rx="2.231" ry="3.123"/>
            <circle cx="730.463" cy="202.794" r=".892" fill="#000" class="Ellipse 2"/>
          </g>
          <g class="Group 2.1">
            <ellipse cx="719.309" cy="201.457" fill="#fff" class="Ellipse 3_2" rx="2.231" ry="3.123"/>
            <circle cx="718.863" cy="202.794" r=".892" fill="#000" class="Ellipse 2_2"/>
          </g>
          <path stroke="#FF1A1A" stroke-linecap="round" stroke-opacity=".18" stroke-width=".357" d="M727.341 215.289s-4.462 1.394-4.462 0c0-1.784.863-4.07 1.338-6.693.379-2.085.893-5.354.893-5.354" class="Vector 23_2"/>
          <path stroke="#000" stroke-linecap="round" stroke-width=".892" d="M729.125 195.656c1.041-.743 3.659-1.784 5.8 0" class="Vector 24"/>
          <path stroke="#000" stroke-linecap="round" stroke-width=".892" d="M715.293 195.749c1.041-.744 3.659-1.785 5.8 0" class="Vector 24.1"/>
          <ellipse cx="734.479" cy="213.505" fill="#FF6565" fill-opacity=".13" class="Ellipse 2_3" rx="4.016" ry="1.785"/>
          <ellipse cx="715.739" cy="213.505" fill="#FF6565" fill-opacity=".13" class="Ellipse 2.1" rx="4.016" ry="1.785"/>
        </g>
      </g>
    </g>
    <g class="bush_6">
      <path fill="#1C514E" d="M620.54 551.224c-18.918 2.499-24.243 16.509-24.54 23.202v4.016h121.809c2.083-5.8 3.748-18.383-6.246-22.309-12.493-4.909-12.047-17.402-26.325-31.234-14.278-13.832-13.832 26.325-24.541 26.325-10.708 0-1.338-24.986-16.509-20.524-15.17 4.462 0 17.401-23.648 20.524z" class="Vector 7_8"/>
      <path fill="#fff" fill-opacity=".06" d="M628.572 560.819c-11.78 2.142-21.566 12.493-24.987 17.401h97.269c-2.38 0 1.785-13.831-7.139-8.477-7.269 4.361-8.087-16.246-12.939-17.402-9.37-2.231-12.048 14.725-22.31 10.709-2.661-1.041-7.99-21.659-14.724-16.509-7.585 5.8-.446 11.601-15.17 14.278z" class="Vector 8_7"/>
    </g>
  </g>
</svg>
