<svg xmlns="http://www.w3.org/2000/svg" width="1152" height="700" fill="none" viewBox="0 0 1152 700">
  <g class="mobile">
    <path fill="#fff" d="M0 0h1152v700H0z"/>
    <path fill="#71AFF9" fill-rule="evenodd" d="M371 355.5c2.5 1.383 33.055 19.167 76.065 44.2 72.66 42.289 180.868 105.269 249.426 144.823 14.694 8.477 25.471 9.505 42.621.158 8.792-4.792 39.55-22.771 69.043-40.011l.001-.001.021-.012c7.996-4.674 15.899-9.294 23.245-13.581l.006-.004.002-.001.042-.024.006-.004c18.39-10.732 36.138-21.089 49.022-28.543 9-5.206 8.5-25-3-31.5L552 232.882c-11.5-6.882-28-14.13-56.249 2C473.923 247.346 412.38 283.429 376 305.5c-22.5 13.65-21.461 40.897-5 50z" class="Primary" clip-rule="evenodd"/>
    <g class="phone">
      <path fill="#000" fill-opacity=".22" d="M371 355.5c6.725 3.72 216.351 126.056 325.491 189.023 14.694 8.477 25.471 9.505 42.621.158 11.178-6.092 57.862-33.501 92.31-53.605l.006-.004.002-.001c18.407-10.742 36.174-21.111 49.07-28.571 9-5.206 8.5-25-3-31.5L552 232.882c-11.5-6.882-28-14.13-56.249 2C473.923 247.346 412.38 283.429 376 305.5c-22.5 13.65-21.461 40.897-5 50z" class="Vector"/>
      <path fill="#fff" d="M870.04 428.736c4.501 2.499 3.5 9-1.706 12.204l-143.982 82.762c-7.639 4.391-16.954 4.483-24.618.136-97.502-55.295-296.497-172.978-314.694-183.602-18.999-11.094-11.499-25.001-4.582-29.931 5.73-4.084 15.059-9.683 21.648-13.48 2.262-1.303 5.038-1.15 7.335.089 9.604 5.179 14.115 2.429 21.639-2.158l.05-.031c25.411-15.49 54.847-33.489 60.411-36.989 5.563-3.5-1.23-8.2-1.965-9.594-1.395-2.641-1.188-4.822 3.465-7.406 4.203-2.336 11.5-6 20.5-10.854 6.355-3.428 22.943-5.181 36 2.854l320.499 196z" class="Vector_2" opacity=".9"/>
    </g>
    <g class="blue box">
      <path fill="#DAE4FA" d="M725.358 521L575 433.586 709.736 352 864 441.356 725.358 521z" class="Vector 2"/>
      <g class="Vector 2.2">
        <path stroke="#6B81AC" d="M753.635 411.4L734 400l19.365-11.7L773 399.7l-19.365 11.7zM641.5 460l89-54 2.5 1.5-89 54-2.5-1.5zM654.167 467.2L652 466l88-54.5 2.5 1.5-88.333 54.2z"/>
      </g>
      <g class="Vector 2.5">
        <path stroke="#6B81AC" d="M784.635 429.4L765 418l19.365-11.7L804 417.7l-19.365 11.7zM672.5 478l89-54 2.5 1.5-89 54-2.5-1.5zM685.167 485.2L683 484l88-54.5 2.5 1.5-88.333 54.2z"/>
      </g>
      <g class="Vector 2.6">
        <path stroke="#6B81AC" d="M817.635 448.4L798 437l19.365-11.7L837 436.7l-19.365 11.7zM705.5 497l89-54 2.5 1.5-89 54-2.5-1.5zM718.167 504.2L716 503l88-54.5 2.5 1.5-88.333 54.2z"/>
      </g>
    </g>
    <path fill="#008615" fill-rule="evenodd" d="M571.697 267.573l-.262-.16-.261.162-92.437 57.125-.716.442.731.417 15.564 8.875.259.148.254-.158 91.436-57.125.687-.429-.692-.422-14.563-8.875zm-91.718 57.535l91.459-56.521 13.61 8.293-90.496 56.538-14.573-8.31zM475 346.517c0-8.018-10.969-14.517-24.5-14.517s-24.5 6.499-24.5 14.517v9.898c2.869 3.739 11.786 11.086 24.5 10.558 12.714-.528 20.527-5.279 24.5-10.558v-9.898zm146.697-48.944l-.259-.157-.259.155-93.436 56.125-.733.44.742.423 15.564 8.875.256.146.251-.153 92.436-56.125.703-.426-.702-.428-14.563-8.875zm-78.141 64.847l-14.566-8.306 92.445-55.53 13.603 8.29-91.482 55.546zM499.5 359c13.531 0 24.5 6.499 24.5 14.517v9.898c-3.973 5.279-11.786 10.03-24.5 10.558-12.714.528-21.631-6.819-24.5-10.558v-9.898c0-8.018 10.969-14.517 24.5-14.517zm168.933-33.584l.259.155 16.564 9.875.724.431-.726.429-93.436 55.125-.259.152-.256-.156-14.563-8.875-.698-.425.696-.428 91.437-56.125.258-.158zm.007 1.168l-90.482 55.539 13.61 8.294 92.452-54.544-15.58-9.289zM573 405.517c0-8.018-10.969-14.517-24.5-14.517s-24.5 6.499-24.5 14.517v9.898c2.869 3.739 11.786 11.086 24.5 10.558 12.714-.528 20.527-5.279 24.5-10.558v-9.898zm47 12.083l31.256 19.4L788 359.4 754.791 340 620 417.6z" class="Secondary" clip-rule="evenodd"/>
    <g class="Group">
      <path stroke="#000" stroke-opacity=".5" d="M494.564 334L479 325.125 571.436 268 586 276.875 494.564 334z" class="color 1" opacity=".5"/>
      <g class="button1" opacity=".5">
        <g class="Ellipse">
          <path fill="#000" fill-opacity=".5" d="M475 346.517c0 8.018-10.969 14.517-24.5 14.517s-24.5-6.499-24.5-14.517C426 338.5 436.969 332 450.5 332s24.5 6.5 24.5 14.517z"/>
          <path fill="#000" fill-opacity=".5" d="M475 346.517c0 8.018-10.969 14.517-24.5 14.517s-24.5-6.499-24.5-14.517v9.898c2.869 3.739 11.786 11.086 24.5 10.558 12.714-.528 20.527-5.279 24.5-10.558v-9.898z"/>
        </g>
        <path fill="#fff" fill-opacity=".5" d="M475 346.517c0 8.018-10.969 14.517-24.5 14.517s-24.5-6.499-24.5-14.517C426 338.5 436.969 332 450.5 332s24.5 6.5 24.5 14.517z" class="Ellipse_2"/>
      </g>
      <path stroke="#000" stroke-opacity=".5" d="M543.564 363L528 354.125 621.436 298 636 306.875 543.564 363z" class="color 1_2" opacity=".5"/>
      <g class="button 2" opacity=".5">
        <g class="Ellipse_3">
          <path fill="#000" fill-opacity=".5" d="M524 373.517c0 8.018-10.969 14.517-24.5 14.517s-24.5-6.499-24.5-14.517C475 365.5 485.969 359 499.5 359s24.5 6.5 24.5 14.517z"/>
          <path fill="#000" fill-opacity=".5" d="M524 373.517c0 8.018-10.969 14.517-24.5 14.517s-24.5-6.499-24.5-14.517v9.898c2.869 3.739 11.786 11.086 24.5 10.558 12.714-.528 20.527-5.279 24.5-10.558v-9.898z"/>
        </g>
        <path fill="#fff" fill-opacity=".5" d="M524 373.517c0 8.018-10.969 14.517-24.5 14.517s-24.5-6.499-24.5-14.517C475 365.5 485.969 359 499.5 359s24.5 6.5 24.5 14.517z" class="Ellipse_4"/>
      </g>
      <path stroke="#000" stroke-opacity=".5" d="M591.564 391L577 382.125 668.436 326 685 335.875 591.564 391z" class="color 1_3" opacity=".5"/>
      <g class="button 3" opacity=".5">
        <g class="Ellipse_5">
          <path fill="#000" fill-opacity=".5" d="M573 405.517c0 8.018-10.969 14.517-24.5 14.517s-24.5-6.499-24.5-14.517C524 397.5 534.969 391 548.5 391s24.5 6.5 24.5 14.517z"/>
          <path fill="#000" fill-opacity=".5" d="M573 405.517c0 8.018-10.969 14.517-24.5 14.517s-24.5-6.499-24.5-14.517v9.898c2.869 3.739 11.786 11.086 24.5 10.558 12.714-.528 20.527-5.279 24.5-10.558v-9.898z"/>
        </g>
        <path fill="#fff" fill-opacity=".5" d="M573 405.517c0 8.018-10.969 14.517-24.5 14.517s-24.5-6.499-24.5-14.517C524 397.5 534.969 391 548.5 391s24.5 6.5 24.5 14.517z" class="Ellipse_6"/>
      </g>
      <g class="tick box">
        <path fill="#fff" d="M754 372.5L732.5 360l23-14 21.955 13L754 372.5z" class="Vector 2_2"/>
        <path fill="#FFCB56" d="M756.727 364L745 360.154v-5.769l9.773 3.846L784.091 314l3.909 1.923L756.727 364z" class="Vector 2_3"/>
        <g class="Vector 2_4">
          <path stroke="#fff" d="M637.5 420l87.86-53 2.64 1.5-88.06 52.968L637.5 420zM649 427l87.5-53.5 2.5 1.5-87.5 53.5-2.5-1.5z"/>
        </g>
      </g>
    </g>
  </g>
</svg>
