<svg xmlns="http://www.w3.org/2000/svg" width="1152" height="700" fill="none" viewBox="0 0 1152 700">
  <g class="notification">
    <path fill="#fff" d="M0 0h1152v700H0z"/>
    <path fill="#ECE6E6" d="M693.573 379.373c76.4 42.128 96.109 109.265 73.382 145.11-119.777 153.651-269.326 77.796-363.426 10.998-127.607-90.583 53.503-50.887-71.248-136.443-125.575-86.122 22.702-208.584 76.45-209.581 79.04-1.466 63.674 80.79 133.267 65.029 69.593-15.762 56.075 72.227 151.575 124.887z" class="Vector"/>
    <g class="plant">
      <path fill="#EE7E79" d="M543.154 218.451c-5.25.988-10.166 9.482-11.967 13.605-1.035 1.318-3.2 3.015-3.578-.734-.473-4.685-4.192-10.323-7.163-11.219-1.044 3.227-2.352 10.071.769 11.629 3.903 1.947 7.227 9.512 2.887 6.901-4.34-2.61-5.356-8.842-15.934-9.003.485 3.349 3.453 11.147 11.439 15.538 9.982 5.489 7.325 11.827 2.11 7.889-5.215-3.937-9.647-10.295-19.618-10.619.346 4.372 2.589 13.666 8.794 15.856 7.755 2.737 19.956 8.968 17.352 11.876-2.603 2.907-14.995-9.385-21.382-10.408-5.109-.819-8.701-.924-9.858-.875.438 4.392 3.822 13.804 13.86 16.322 12.547 3.146 23.929 7.775 19.78 11.226-4.149 3.451-11.531-8.101-22.158-9.42-8.502-1.055-10.303-.105-10.141.502.68 3.676 5.024 11.584 16.958 13.802 14.918 2.773 20.19 6.435 17.529 9.618-2.66 3.182-11.411-10.084-29.335-6.59 1.323 3.808 5.96 11.776 13.931 13.181 9.964 1.757 24.212 6.4 21.269 10.958-2.942 4.559-12.857-7.225-23.217-7.056-8.287.136-8.341.584-7.332.791.095 3.27 2.308 10.282 10.41 12.172 10.126 2.364 28.946 7.084 26.823 13.245-2.124 6.16-8.8-3.239-15.286-6.576-5.188-2.67-13.466-2.858-16.957-2.618 1.303 3.9 5.573 11.984 12.223 13.118 8.313 1.418 27.119 9.003 26.329 12.856-.79 3.853-8.92-1.255-13.592-3.647-4.671-2.392-11.594-6.393-18.763-4.996-.073 3.618 2.203 11.35 11.891 13.337 12.109 2.483 22.68 4.078 21.664 9.032-1.016 4.954-4.171-3.437-13.867-3.705-7.756-.214-11.61.678-12.567 1.151.922 2.962 4.474 8.948 11.305 9.202 8.538.317 21.205 1.481 19.752 5.771-1.454 4.291-8.306-2.85-12.935-2.653-3.704.159-8.158.622-9.922.834.353 2.94 4.586 8.683 18.693 8.135 2.553.141 7.379.94 6.267 3.006-1.39 2.583-10.677-2.476-14.156-.896.212 1.765 1.793 5.243 6.422 5.046 4.629-.198 10.505 3.779 12.864 5.793.276-1.282 1.267-4.329 3.025-6.263.959-2.153 2.786-4.665 5.577-6.313 6.852-4.043 8.545-12.3 6.619-12.695-1.927-.395-8.2 9.217-10.345 8.49-2.145-.727 2.124-6.161 6.661-10.106 3.63-3.156 4.758-11.547 4.869-15.348-2.157 1.661-6.851 5.994-8.369 10.042l-.111.295c-1.84 4.909-3.178 8.478-5.711 7.115-2.583-1.391 3.133-9.682 8.454-16.048 4.256-5.092 4.257-14.231 3.725-18.164-1.604 1.296-5.411 4.569-7.804 7.29-2.992 3.402-5.307 14.685-7.664 12.194-2.357-2.491 5.793-12.864 11.897-21.65 4.883-7.029 3.05-15.339 1.524-18.616-1.953 1.13-5.984 4.566-6.492 9.28-.635 5.893-6.823 20.684-10.168 17.417-3.345-3.268 8.418-20.07 11.537-26.887 2.495-5.453.465-12.523-.862-15.376-2.653 1.75-5.095 5.264-7.268 10.267-2.173 5.004-6.597 19.583-10.486 14.77-3.888-4.812 8.411-18.637 13.732-25.002 4.256-5.092 3.523-14.382 2.624-18.39-2.209.981-9.293 7.558-11.135 12.343-1.841 4.784-7.578 17.374-9.977 12.293-2.4-5.081 10.499-17.635 15.269-24.113 3.816-5.183 3.561-14.565 2.956-18.609-8.679 5.963-12.13 12.999-12.976 17.127-.847 4.128-7.19 16.88-9.435 13.839-2.244-3.042 6.04-18.263 12.455-22.97 5.131-3.766 6.602-13.081 6.696-17.268-1.214.324-12.49 7.762-13.168 11.065-.677 3.303-3.125 8.249-6.893 12.639-3.769 4.389-3.868-9.11 7.571-15.942 9.151-5.465 11.193-16.823 11.071-21.819-18.298 12.307-9.773 15.49-19.278 21.283-9.505 5.794-2.83-7.176 5.955-12.257 7.029-4.065 9.938-15.361 10.514-20.5-6.993-.861-14.176 14.586-19.871 18.581-5.695 3.994-5.046-4.763 4.241-10.889 7.429-4.9 9.474-14.499 9.568-18.686-5.293.635-9.061 5.024-13.619 13.267-4.558 8.242-7.007 2.004-2.131-3.592 3.9-4.477 5.379-10.846 5.63-13.471z" class="Vector 3"/>
      <path fill="#EDC7C5" d="M542.099 310.293c18.561 46.539 21.519 72.669 22.648 89.535.276-1.282 1.267-4.329 3.025-6.263.959-2.153 2.786-4.665 5.577-6.313 6.852-4.043 8.545-12.3 6.619-12.695-1.927-.395-8.2 9.217-10.345 8.49-2.145-.727 2.124-6.161 6.661-10.106 3.63-3.156 4.758-11.547 4.869-15.348-2.157 1.661-6.851 5.994-8.369 10.042l-.111.295c-1.84 4.909-3.178 8.478-5.711 7.115-2.583-1.391 3.133-9.682 8.454-16.048 4.256-5.092 4.257-14.231 3.725-18.164-1.604 1.296-5.411 4.569-7.804 7.29-2.992 3.402-5.307 14.685-7.664 12.194-2.357-2.491 5.793-12.864 11.897-21.65 4.883-7.029 3.05-15.339 1.524-18.616-1.953 1.13-5.984 4.566-6.492 9.28-.635 5.893-6.823 20.684-10.168 17.417-3.345-3.268 8.418-20.07 11.537-26.887 2.495-5.453.465-12.523-.862-15.376-2.653 1.75-5.095 5.264-7.268 10.267-2.173 5.004-6.597 19.583-10.486 14.77-3.888-4.812 8.411-18.637 13.732-25.002 4.256-5.092 3.523-14.382 2.624-18.39-2.209.981-9.293 7.558-11.135 12.343-1.841 4.784-7.578 17.374-9.977 12.293-2.4-5.081 10.499-17.635 15.269-24.113 3.816-5.183 3.561-14.565 2.956-18.609-8.679 5.963-12.13 12.999-12.976 17.127-.847 4.128-7.19 16.88-9.435 13.839-2.244-3.042 6.04-18.263 12.455-22.97 5.131-3.766 6.602-13.081 6.696-17.268-1.214.324-12.49 7.762-13.168 11.065-.677 3.303-3.125 8.249-6.893 12.639-3.769 4.389-3.868-9.11 7.571-15.942 9.151-5.465 11.193-16.823 11.071-21.819-18.298 12.307-9.773 15.49-19.278 21.283-9.505 5.794-2.83-7.176 5.955-12.257 7.029-4.065 9.938-15.361 10.514-20.5-6.993-.861-14.176 14.586-19.871 18.581-5.695 3.994-5.046-4.763 4.241-10.889 7.429-4.9 9.474-14.499 9.568-18.686-5.293.635-9.061 5.024-13.619 13.267-4.558 8.242-7.007 2.004-2.131-3.592 3.9-4.477 5.379-10.846 5.63-13.471-5.25.988-10.166 9.482-11.967 13.605-2.55 10.567-3.936 41.007 10.912 78.237z" class="Vector 3.1"/>
    </g>
    <g class="text bubble">
      <path fill="#EDF3FF" d="M458 291.517H297c-3.6 0-4.833-3.666-5-5.5v-114c0-5.2 9.667-6.166 14.5-6h192c5.6 0 7.333 4.334 7.5 6.5v112.5c0 4-3.333 6-5 6.5h-19.5l1.5 13c-12-.4-21.667-8.833-25-13z" class="Vector 3_2"/>
      <path fill="#B6C7E5" d="M301.5 174.017c0-5.2 3.333-7.5 5-8-4.833-.166-14.5.8-14.5 6v114c.167 1.834 1.4 5.5 5 5.5h9.5c-3.6 0-4.833-3.666-5-5.5v-112z" class="Vector 3.1_2"/>
      <circle cx="332.5" cy="197.018" r="19.5" fill="#FFCB56" class="color 1"/>
      <path fill="#B6C7E5" d="M357 178.518h62v14h-62z" class="Rectangle"/>
      <path fill="#B6C7E5" d="M357 203.518h129v7H357z" class="Rectangle_2"/>
      <path fill="#B6C7E5" d="M357 220.518h129v7H357z" class="Rectangle_3"/>
      <path fill="#B6C7E5" d="M357 235.518h129v7H357z" class="Rectangle_4"/>
      <path fill="#B6C7E5" d="M357 249.518h129v7H357z" class="Rectangle_5"/>
      <path fill="#B6C7E5" d="M357 264.518h47v7h-47z" class="Rectangle_6"/>
      <path fill="#B6C7E5" d="M424 178.518h62v14h-62z" class="Rectangle_7"/>
    </g>
    <g class="Group 2">
      <path fill="#EDF3FF" d="M598 350h161c3.6 0 4.833-3.667 5-5.5v-75.483c0-5.2-9.667-6.166-14.5-6h-192c-5.6 0-7.333 4.334-7.5 6.5V343.5c0 4 3.333 6 5 6.5h19.5l-1.5 13c12-.4 21.667-8.833 25-13z" class="Vector 3.1_3"/>
      <path fill="#B6C7E5" d="M754.5 271.017c0-5.2-3.333-7.5-5-8 4.833-.166 14.5.8 14.5 6V344.5c-.167 1.833-1.4 5.5-5 5.5h-9.5c3.6 0 4.833-3.667 5-5.5v-73.483z" class="Vector 3.2"/>
      <circle r="19.5" fill="#FFCB56" class="color 1_2" transform="matrix(-1 0 0 1 723.5 293.5)"/>
      <path fill="#B6C7E5" d="M693 305H564v7h129z" class="Rectangle_8"/>
      <path fill="#B6C7E5" d="M693 322H564v7h129z" class="Rectangle_9"/>
      <path fill="#B6C7E5" d="M693 280h-62v14h62z" class="Rectangle_10"/>
      <path fill="#B6C7E5" d="M626 280h-62v14h62z" class="Rectangle_11"/>
    </g>
    <g class="Group 2_2">
      <g class="phone">
        <path fill="#fff" d="M579.9 554.788c-14.741 9.064-31.656 6.609-38.27 4.249-66.839-37.568-194.769-109.68-230.563-130.581l-3.31-3.968c-2.362-2.833-5.669-9.631 0-14.163 7.087-5.666 17.009-11.331 18.427-11.331 1.417 0 4.252 8.498 18.426 0s52.444-28.326 52.444-33.991c0-5.665-5.669-5.665 2.835-9.914s24.096-13.604 38.27-8.218c1.053.383 2.003.766 2.835 1.136 75.122 45.322 226.502 136.815 231.037 140.215 1.532 1.148 2.245 2.651 2.444 4.249.391 3.131-1.192 6.622-2.444 8.497-24.568 14.163-77.39 44.756-92.131 53.82z" class="Vector_2"/>
        <path fill="#EDF3FF" d="M541.63 559.036c-75.595-42.489-229.336-129.167-239.542-135.965-5.39-3.591-7.327-7.077-7.607-9.915-.771 4.722-1.181 15.013 3.355 18.412 4.536 3.4 164.419 95.837 243.794 141.631 7.56 1.417 25.797 2.55 38.27-4.249 12.474-6.798 69.454-39.656 96.384-55.236 1.63-4.757 3.549-15.665-1.808-21.244.39 3.131-1.193 6.622-2.444 8.498-24.568 14.163-77.391 44.755-92.132 53.819-14.741 9.065-31.655 6.61-38.27 4.249z" class="Vector_3"/>
        <path fill="#B6C7E5" d="M296.419 407.49c26.458-16.051 83.344-50.421 99.219-59.485 13.776-7.866 31.396-4.924 41.371-1.54.385.124.768.259 1.151.404-.371-.135-.755-.27-1.151-.404-13.86-4.48-28.844 4.488-37.119 8.622-8.504 4.249-2.835 4.249-2.835 9.914s-38.27 25.494-52.444 33.992c-14.174 8.497-17.009 0-18.426 0-1.417 0-11.339 5.665-18.426 11.33-5.67 4.532-2.363 11.33 0 14.163l3.332 3.969-9.002-5.385c-5.391-3.591-7.328-7.077-7.607-9.914-.25-2.535.823-4.552 1.937-5.666z" class="Vector_4"/>
        <path stroke="#B7CFFD" d="M294.481 413.156c-.249-2.535.823-4.552 1.938-5.666 26.458-16.051 83.343-50.421 99.218-59.485 14.324-8.179 32.801-4.673 42.523-1.136m-143.679 66.287c.28 2.837 2.217 6.323 7.607 9.914 1.182.787 4.29 2.646 8.98 5.385m-16.587-15.299c-.771 4.721-1.181 15.012 3.355 18.412 4.536 3.399 164.419 95.836 243.794 141.63 7.56 1.417 25.797 2.55 38.27-4.249 12.474-6.798 69.454-39.656 96.384-55.236 1.63-4.757 3.549-15.665-1.808-21.244m0 0c.39 3.131-1.193 6.622-2.444 8.498-24.568 14.163-77.391 44.755-92.132 53.819-14.741 9.065-31.655 6.61-38.27 4.249-66.838-37.567-194.769-109.68-230.562-130.58m363.408 64.014c-.199-1.597-.912-3.101-2.444-4.249-4.536-3.399-155.915-94.893-231.038-140.215a44.536 44.536 0 00-2.834-1.136m0 0c-14.174-5.385-29.766 3.969-38.27 8.218-8.505 4.249-2.835 4.249-2.835 9.914s-38.27 25.494-52.444 33.992c-14.174 8.497-17.009 0-18.427 0-1.417 0-11.339 5.665-18.426 11.33-5.669 4.532-2.362 11.33 0 14.163l3.31 3.969m39.212-40.793l19.844-12.747m8.505-8.498l4.252 4.249m232.455 172.79l11.339-7.082" class="Vector_5"/>
      </g>
      <path fill="#EDF3FF" d="M562.625 556.091l-109.352-63.574 97.991-59.335 112.191 64.986-100.83 57.923z" class="Vector 2.6"/>
      <path stroke="#EE7E79" d="M394.774 418.638l-11.319-5.727 66.499-40.091 11.319 5.727-66.499 40.091z" class="color 2"/>
      <path fill="#EE7E79" d="M508.732 495.002L486 480.893l98.03-56.437 24.152 14.109-99.45 56.437z" class="color 2_2"/>
      <path fill="#fff" d="M579.488 449.91l-14.215-9.819 15.637-9.818 15.636 9.818-17.058 9.819z" class="Vector 2.9"/>
      <path fill="#FFCB56" d="M581.074 444.092l-8.529-2.797v-4.196l7.107 2.797 21.323-32.167 2.843 1.398-22.744 34.965z" class="color 1_3"/>
      <g class="Vector 2.11">
        <path stroke="#fff" d="M500.545 481.301l62.08-37.209 1.411 1.431-62.08 37.209-1.411-1.431zM507.599 487.025l62.08-37.208 1.411 1.431-62.08 37.208-1.411-1.431z"/>
      </g>
      <g class="Vector 2.12">
        <path stroke="#6B81AC" d="M629.007 506.928l-12.675-8.509 14.083-8.51 12.676 8.51-14.084 8.509zM554.363 539.546l59.152-36.873 1.408 1.418-59.151 36.873-1.409-1.418zM561.405 546.637l-1.408-1.418 59.151-36.873 1.409 1.418-59.152 36.873z"/>
      </g>
      <g class="Vector 2.13">
        <path stroke="#6B81AC" d="M606.462 492.383l-12.675-8.509 14.083-8.509 12.676 8.509-14.084 8.509zM531.818 525.001l59.152-36.873 1.408 1.419-59.151 36.872-1.409-1.418zM538.86 532.092l-1.408-1.418 59.151-36.873 1.409 1.418-59.152 36.873z"/>
      </g>
      <g class="Vector 2.14">
        <path stroke="#6B81AC" d="M581.007 475.655l-12.675-8.509 14.083-8.509 12.676 8.509-14.084 8.509zM506.363 508.273l59.152-36.872 1.408 1.418-59.151 36.873-1.409-1.419zM513.405 515.364l-1.408-1.418 59.151-36.873 1.409 1.419-59.152 36.872z"/>
      </g>
      <g class="button1">
        <g class="Ellipse">
          <path fill="#B6C7E5" d="M380.545 429.195c0 5.831-7.978 10.558-17.819 10.558-9.84 0-17.818-4.727-17.818-10.558 0-5.831 7.978-10.558 17.818-10.558 9.841 0 17.819 4.727 17.819 10.558z"/>
          <path fill="#B6C7E5" d="M380.545 429.195c0 5.831-7.978 10.558-17.819 10.558-9.84 0-17.818-4.727-17.818-10.558v7.199c2.087 2.719 8.572 8.062 17.818 7.678 9.247-.384 14.929-3.839 17.819-7.678v-7.199z"/>
        </g>
        <path fill="#FFCB56" d="M380.545 429.195c0 5.831-7.978 10.558-17.819 10.558-9.84 0-17.818-4.727-17.818-10.558 0-5.831 7.978-10.558 17.818-10.558 9.841 0 17.819 4.727 17.819 10.558z" class="color 1_4"/>
      </g>
      <path stroke="#EE7E79" d="M430.411 438.274l-11.319-5.727 66.499-40.091 11.319 5.727-66.499 40.091z" class="color 2_3"/>
      <g class="button 2.1">
        <g class="Ellipse_2">
          <path fill="#B6C7E5" d="M416.181 448.831c0 5.831-7.977 10.558-17.818 10.558-9.841 0-17.818-4.727-17.818-10.558 0-5.831 7.977-10.558 17.818-10.558 9.841 0 17.818 4.727 17.818 10.558z"/>
          <path fill="#B6C7E5" d="M416.181 448.831c0 5.831-7.977 10.558-17.818 10.558-9.841 0-17.818-4.727-17.818-10.558v7.199c2.087 2.719 8.572 8.062 17.818 7.678 9.246-.384 14.929-3.839 17.818-7.678v-7.199z"/>
        </g>
        <path fill="#FFCB56" d="M416.181 448.831c0 5.831-7.977 10.558-17.818 10.558-9.841 0-17.818-4.727-17.818-10.558 0-5.831 7.977-10.558 17.818-10.558 9.841 0 17.818 4.727 17.818 10.558z" class="color 1_5"/>
      </g>
      <path stroke="#EE7E79" d="M466.046 461.547l-11.319-5.728 66.499-40.09 11.319 5.727-66.499 40.091z" class="color 2_4"/>
      <g class="Ellipse_3">
        <path fill="#B6C7E5" d="M451.818 472.104c0 5.83-7.977 10.557-17.818 10.557-9.841 0-17.818-4.727-17.818-10.557 0-5.831 7.977-10.558 17.818-10.558 9.841 0 17.818 4.727 17.818 10.558z"/>
        <path fill="#B6C7E5" d="M451.818 472.104c0 5.83-7.977 10.557-17.818 10.557-9.841 0-17.818-4.727-17.818-10.557v7.198c2.086 2.72 8.572 8.062 17.818 7.679 9.246-.384 14.929-3.84 17.818-7.679v-7.198z"/>
      </g>
      <path fill="#FFCB56" d="M451.818 472.104c0 5.83-7.977 10.557-17.818 10.557-9.841 0-17.818-4.727-17.818-10.557 0-5.831 7.977-10.558 17.818-10.558 9.841 0 17.818 4.727 17.818 10.558z" class="color 1_6"/>
    </g>
    <g class="woman">
      <g class="Vector 7">
        <path fill="#4B5361" d="M866.903 537.103c0-2.704-4.506-2.253-6.76-1.69-1.69 2.254-4.664 7.031-3.042 8.112 6.084 1.69 7.436 10.816 10.478 14.196 3.042 3.38 6.76 1.69 4.056 0-2.704-1.69-4.732-17.238-4.732-20.618zM791.869 573.268c1.082-1.892.451-9.351 0-12.843-2.816.676-8.72 2.298-9.801 3.38-1.352 1.352-1.69 3.041-7.098 5.069-5.408 2.028-15.21 2.028-14.872 3.042.338 1.014 3.718 3.38 6.084 3.38 2.366 0 24.335.338 25.687-2.028z"/>
      </g>
      <g class="Vector 5">
        <path fill="#EDC7C5" d="M711.428 351.884c0 2.164 1.126 9.014 1.69 12.168-.564 2.028-2.366 5.543-5.07 3.38-3.38-2.704-4.732-10.14-3.718-14.196 1.014-4.055 7.098-4.055 7.098-1.352zM842.906 367.094c-1.082 1.352-3.38 7.999-4.394 11.154-.676 1.577-.744 4.258 4.394 2.366 6.422-2.366 8.112-12.168 8.112-13.52 0-1.352-6.76-1.69-8.112 0z"/>
      </g>
      <path fill="#EDC7C5" d="M758.542 395.485c2.434 1.352 1.014 5.52 0 7.435 0 .812 4.281.564 6.422.338.563-1.239 2.163-4.934 4.056-9.801 2.366-6.084-.676-8.112-1.69-9.802-1.014-1.69-5.746-1.352-6.76-1.352-1.014 0-1.014 1.014-2.028 2.366-.811 1.081-3.042 2.253-4.056 2.704.564.45 1.487 1.555.676 2.366-1.014 2.028.338 4.056 3.38 5.746z" class="Vector 5.1"/>
      <path fill="#EE7E79" d="M793.558 558.734c0-6.76-1.689-23.998-4.731-38.869-2.505-12.243 3.237-21.049 9.682-30.757.716 1.915 3.567 8.247 9.245 18.251 7.098 12.506 43.939 38.193 46.643 37.855 2.163-.27 4.957-7.774 6.083-11.492-6.421 0-37.178-41.91-40.22-51.036-3.042-9.126-6.422-30.757-10.14-29.067-2.974 1.352-3.718 4.394-3.718 5.746-3.785-2.163-22.307 4.281-31.095 7.773-1.577 5.183-5.137 17.982-6.76 27.716-2.028 12.167-.676 25.011 4.056 37.516 3.786 10.005 7.211 26.251 8.45 33.123 7.571.271 11.492-4.393 12.505-6.759z" class="color 2_5"/>
      <path fill="#B6C7E5" d="M846.961 382.303l-8.45-6.084c-8.9 3.606-29.202 12.033-39.207 16.9-12.505 6.084-38.192 9.464-40.558 7.774-2.366-1.69-6.422-1.014-7.774-1.69-1.352-.676-32.447-35.489-37.179-35.489-4.732 0-6.76 3.718-5.746 8.111 1.014 4.394 29.405 37.855 40.221 46.643 10.816 8.788 3.718 10.14 4.056 14.872.338 4.731 6.76 7.097 8.788 14.533 2.027 7.436 10.477 9.126 10.477 14.872s10.816 8.111 20.28 6.76c9.463-1.352 19.941-15.21 19.941-18.252 0-3.042-3.718-1.352-6.422-5.746-2.704-4.394-3.38-7.436-6.084-12.167-2.704-4.732-7.435-7.098-7.435-10.478s-8.788-10.14 7.435-14.872c12.979-3.785 37.179-18.702 47.657-25.687z" class="Vector 3_3"/>
      <path fill="#4B5361" d="M760.581 384.987c-1.352-.811-1.239-3.718-1.014-5.07.044-3.042 4.732-1.69 7.436-1.69 2.704 0 6.084-2.028 9.126 0 1.352-2.14 4.799-5.948 7.774-4.056 3.717 2.366 8.787 7.098 11.829 4.056-1.464 2.479-5.61 6.692-10.477 3.718s-7.362-3.042-8-2.704c2.57 2.933 4.494 9.589 1.24 15.21-3.718 6.422-12.168 2.704-12.506 1.014-.338-1.69.676-2.366 2.028-4.394 1.352-2.028-1.014-5.07-3.38-4.394-2.366.676-2.366-.676-4.056-1.69z" class="Vector 6"/>
    </g>
    <g class="plant_2">
      <g class="Vector 5_2">
        <path fill="#EDC7C5" d="M436.539 557.834c-6.902-3.451-21.446-12.72-24.404-22.186 6.409 3.944 20.263 13.903 24.404 22.186zM440.236 555.615c-11.832-12.571-35.644-38.898-36.236-43.631 7.395 1.232 24.996 11.684 36.236 43.631-2.711-12.571-10.353-40.525-19.227-51.766 5.177 1.972 16.269 7.839 19.227 15.53 2.958 7.691 1.233 27.362 0 36.236z"/>
      </g>
      <g class="Vector 4">
        <path fill="#EE7E79" d="M437.232 555.106c1.393-15.071 5.213-46.657 9.346-52.429 4.115 9.92 8.006 34.293-9.346 52.429zM474.102 563.317c-19.585-13.297-29.935-9.005-32.661-5.197 1.309-2.668 2.847-4.901 4.549-6.747 2.943-12.447 12.25-37.799 25.938-39.639a28.618 28.618 0 012.612-.231c3.811-9.001 16.022-25.538 34.377-19.67-6.678 1.282-20.535 5.306-22.536 11.149 4.387-2.316 14.053-5.399 17.622.795-4.359-.687-13.851-.981-16.939 3.332 4.471-.74 14.769.207 20.19 9.91-6.778-3.66-21.077-9.688-24.051-4.518 10.794 2.989 17.558 11.653 17.162 14.139-6.995-5.313-22.841-14.538-30.264-8.938 9.517 1.66 29.543 8.421 33.515 22.18-11.567-7.98-36.424-21.535-43.313-11.914 14.524 3.427 46.284 15.133 57.127 34.54-16.986-13.376-55.056-34.331-71.44-11.135 11.183-12.129 29.438-7.546 36.292.52 6.319 7.435 20.324 18.191 26.537 22.64-3.412 1.802-15.132 2.08-34.717-11.216z"/>
      </g>
      <path fill="#8A6564" d="M455.026 558.574c-.493 7.148-2.958 21.889-8.874 23.664-7.395 2.219-11.833-1.479-11.833-4.437 0-2.366-1.479-13.804-2.218-19.227-.74-.74-1.923-2.663-.74-4.437 7.149.493 21.89 1.183 23.665 0 2.218-1.479 1.479 4.01 0 4.437z" class="Vector 3_4"/>
    </g>
  </g>
</svg>
