<svg xmlns="http://www.w3.org/2000/svg" width="1152" height="700" fill="none" viewBox="0 0 1152 700">
  <g class="offline">
    <path fill="#fff" d="M0 0h1152v700H0z"/>
    <path fill="#ECE6E6" d="M548.688 151.675c-77.13 96.105-31.905 267.792 5.118 311.365 71.108 83.689-5.065-92.444 180.25 67.682C919.37 690.847 893.018 214 773.804 221.051c-77.445 4.581-128.704-189.506-225.116-69.376z" class="Vector"/>
    <g class="plant">
      <path fill="#FFEEC7" d="M860.523 258.467c7.507 3.11 12.173 17.29 13.567 23.991 1.129 2.284 3.822 5.487 5.555.025 2.167-6.828 9.464-14.059 14.167-14.466.546 5.131.357 15.727-4.777 17.072-6.418 1.68-13.728 11.903-6.452 9.372 7.276-2.531 10.734-11.49 26.532-8.428-1.769 4.835-8.622 15.516-21.881 19.559-16.574 5.054-14.598 15.318-5.605 11.085 8.992-4.233 17.575-12.313 32.52-9.683-1.881 6.402-8.122 19.535-18.041 20.858-12.4 1.654-32.509 7.119-29.54 12.26 2.968 5.142 25.253-9.288 35.079-8.816 7.861.377 13.241 1.341 14.949 1.776-2.023 6.401-10.001 19.356-25.729 19.969-19.66.766-38.05 4.103-32.951 10.535 5.099 6.433 19.695-8.458 35.927-7.103 12.986 1.083 15.37 3.06 14.939 3.913-2.161 5.26-11.095 15.675-29.554 15.251-23.073-.531-32.063 3.275-29.097 8.843 2.966 5.569 20.135-11.447 45.726-.65-3.157 5.256-12.548 15.67-24.853 15.273-15.381-.497-38.04 1.966-35.084 9.671 2.957 7.705 21.397-6.741 36.765-3.254 12.294 2.79 12.234 3.473 10.667 3.466-1.161 4.838-6.646 14.585-19.296 14.87-15.812.357-45.303 1.506-44.065 11.34 1.238 9.834 14.111-2.073 24.807-5.016 8.557-2.355 20.939-.049 26.061 1.398-3.158 5.399-12.037 16.099-22.291 15.711-12.818-.484-43.182 4.935-43.209 10.917-.026 5.983 13.671.916 21.372-1.186 7.701-2.102 19.256-5.896 29.492-1.577-1.021 5.408-6.824 16.207-21.866 16.14-18.801-.084-35.036-1.012-35.07 6.68-.035 7.692 7.282-3.813 21.799-1.184 11.613 2.103 17.072 4.634 18.349 5.637-2.297 4.121-9.454 11.923-19.702 10.168-12.81-2.194-32.029-4.417-31.205 2.424.824 6.841 13.254-1.65 20.083.09 5.464 1.392 11.95 3.472 14.51 4.338-1.444 4.267-9.538 11.495-30.368 6.274-3.843-.587-11.277-.905-10.267 2.518 1.263 4.278 16.667-.353 21.352 3.086-.866 2.561-4.305 7.246-11.135 5.506-6.829-1.74-16.818 2.346-20.959 4.606-.01-1.994-.534-6.839-2.547-10.267-.756-3.505-2.69-7.814-6.331-11.138-8.937-8.159-8.88-20.979-5.888-20.965 2.991.013 9.328 16.28 12.748 15.868 3.42-.412-1.238-9.834-6.76-17.124-4.418-5.831-3.478-18.675-2.455-24.368 2.692 3.146 8.326 11.062 9.322 17.562l.073.474c1.207 7.882 2.084 13.612 6.279 12.374 4.279-1.263-1.64-15.391-7.573-26.528-4.746-8.909-1.893-22.514.127-28.202 1.983 2.43 6.628 8.49 9.341 13.289 3.392 5.997 3.313 23.517 7.6 20.545 4.286-2.972-4.607-20.959-10.95-35.944-5.074-11.988.249-23.786 3.545-28.187 2.554 2.29 7.482 8.665 6.766 15.841-.894 8.97 3.699 32.92 9.699 29.101 5.999-3.819-6.265-32.504-8.779-43.626-2.011-8.897 3.218-18.788 6.084-22.621 3.403 3.434 5.94 9.428 7.613 17.555 1.673 8.126 3.706 31.211 10.997 25.261 7.291-5.95-6.701-30.37-12.634-41.507-4.746-8.909-.753-22.509 1.836-28.195 2.982 2.15 11.474 14.153 12.722 21.85 1.247 7.698 5.856 28.23 11.014 21.416 5.159-6.814-10.123-29.531-15.201-40.664-4.063-8.906-.753-22.794 1.41-28.624 11.058 11.587 13.998 23.138 13.969 29.548-.029 6.409 5.433 27.373 9.723 23.546 4.29-3.827-3.288-29.073-11.367-38.083-6.463-7.207-5.744-21.534-4.576-27.796 1.705.862 16.169 15.456 16.146 20.584-.023 5.128 2.077 13.256 6.316 20.967 4.239 7.711 8.602-12.354-6.293-26.095-11.916-10.993-11.41-28.539-9.668-35.938 23.395 24.035 9.712 26.11 22.052 37.703 12.341 11.593 6.454-9.8-5.038-20.107-9.193-8.246-9.997-25.969-9.249-33.8 10.679.903 16.548 26.141 23.778 33.865 7.23 7.724 8.998-5.515-2.913-17.533-9.529-9.615-9.576-24.543-8.408-30.805 7.68 2.599 11.919 10.309 16.131 24.003 4.211 13.693 9.805 5.171 4.294-4.682-4.409-7.882-4.621-17.826-4.176-21.812z" class="Vector 3"/>
      <path fill="#FFCB56" d="M833.416 395.516c-42.162 63.482-54.724 101.457-61.672 126.21-.01-1.994-.534-6.839-2.547-10.267-.756-3.505-2.69-7.814-6.331-11.138-8.937-8.159-8.88-20.979-5.888-20.965 2.991.013 9.328 16.28 12.748 15.868 3.42-.412-1.238-9.834-6.76-17.124-4.418-5.831-3.478-18.675-2.455-24.368 2.692 3.146 8.326 11.062 9.322 17.562l.073.474c1.207 7.882 2.084 13.612 6.279 12.374 4.279-1.263-1.64-15.391-7.573-26.528-4.746-8.909-1.893-22.514.127-28.202 1.983 2.43 6.628 8.49 9.341 13.289 3.392 5.997 3.313 23.517 7.6 20.545 4.286-2.972-4.607-20.959-10.95-35.944-5.074-11.988.249-23.786 3.545-28.187 2.554 2.29 7.482 8.665 6.766 15.841-.894 8.97 3.699 32.92 9.699 29.101 5.999-3.819-6.265-32.504-8.779-43.626-2.011-8.897 3.218-18.788 6.084-22.621 3.403 3.434 5.94 9.428 7.613 17.555 1.673 8.126 3.706 31.211 10.997 25.261 7.291-5.95-6.701-30.37-12.634-41.507-4.746-8.909-.753-22.509 1.836-28.195 2.982 2.15 11.474 14.153 12.722 21.85 1.247 7.698 5.856 28.23 11.014 21.416 5.159-6.814-10.123-29.531-15.201-40.664-4.063-8.906-.753-22.794 1.41-28.624 11.058 11.587 13.998 23.138 13.969 29.548-.029 6.409 5.433 27.373 9.723 23.546 4.29-3.827-3.288-29.073-11.367-38.083-6.463-7.207-5.744-21.534-4.576-27.796 1.705.862 16.169 15.456 16.146 20.584-.023 5.128 2.077 13.256 6.316 20.967 4.239 7.711 8.602-12.354-6.293-26.095-11.916-10.993-11.41-28.539-9.668-35.938 23.395 24.035 9.712 26.11 22.052 37.703 12.341 11.593 6.454-9.8-5.038-20.107-9.193-8.246-9.997-25.969-9.249-33.8 10.679.903 16.548 26.141 23.778 33.865 7.23 7.724 8.998-5.515-2.913-17.533-9.529-9.615-9.576-24.543-8.408-30.805 7.68 2.599 11.919 10.309 16.131 24.003 4.211 13.693 9.805 5.171 4.294-4.682-4.409-7.882-4.621-17.826-4.176-21.812 7.507 3.11 12.173 17.29 13.567 23.991.496 16.525-6.945 62.272-40.674 113.058z" class="Vector 3.1"/>
    </g>
    <g class="Group">
      <path fill="#EDF3FF" d="M632 503.625c100.516 0 182-5.82 182-13s-81.484-13-182-13-182 5.82-182 13 81.484 13 182 13z" class="color 1"/>
      <path fill="#4B5361" d="M807.5 218h-351a6.5 6.5 0 00-6.5 6.5v208a6.5 6.5 0 006.5 6.5h351a6.5 6.5 0 006.5-6.5v-208a6.5 6.5 0 00-6.5-6.5z" class="screen background 01"/>
      <path fill="#EE7E79" fill-rule="evenodd" d="M624.958 328.884c-5.971 1.232-11.138 4.989-14.46 10.662-.641 1.167-1.924 1.834-3.207 1.667-.962-.167-1.924-.667-2.726-1.667-1.122-1.5-1.283-3.666-.321-5.166 5.933-10.001 16.035-15.334 27.259-14.167a49.86 49.86 0 011.709.271l15.023-15.286c-5.205-2.803-10.853-4.576-16.732-5.152-15.874-1.5-30.305 6-38.643 20.333-1.123 2-3.848 2.334-5.612.5-1.443-1.5-1.604-4-.642-5.666 9.782-16.501 26.458-25.334 44.897-23.501 7.869.755 15.464 3.505 22.371 7.748l7.614-7.748c1.283-1.333 3.528-1.5 5.131-.166 1.924 1.833 2.085 4.666.481 6.333l-61.092 62.168c-.801 1-1.764 1.166-2.726 1.166-.962-.166-1.924-.666-2.725-1.5-1.444-1.833-1.444-4.5 0-6l24.401-24.829zm6.542 17.663c4.804.484 8.806 5.162 8.806 10.325 0 5.324-4.002 9.196-8.806 8.712-4.804-.484-8.806-5.163-8.806-10.325 0-5.163 4.002-9.196 8.806-8.712zm20.826-3.712c1.297 2.388 4.38 3.025 6.164.955 1.135-1.115 1.135-3.185.324-4.618-2.595-4.617-6.002-8.598-10.057-11.782h-.162l-5.353 5.095v.159c3.569 2.548 6.813 6.051 9.084 10.191zm24.067-18.748c-2.781-5.232-6.215-10.125-10.141-14.344h-.163l-5.234 5.231v.169c3.598 3.712 6.542 8.1 9.159 12.825a4.298 4.298 0 003.271 2.363c.818 0 1.636-.169 2.29-.675 1.636-1.013 1.799-3.544.818-5.569z" class="color 2" clip-rule="evenodd"/>
      <path fill="#DAE4FA" fill-opacity=".2" fill-rule="evenodd" d="M704.125 218H814v221H624.5l79.625-221z" class="flare 01" clip-rule="evenodd"/>
    </g>
    <g class="girl sitting">
      <g class="chair">
        <path fill="#4B5361" d="M368.968 531.073v-34.458h7.708v34.458c14.871 0 26.448 8.464 30.377 12.695h-69.369c9.068-8.342 24.634-11.939 31.284-12.695z" class="Vector 10"/>
        <path fill="#B7CFFD" d="M334.51 475.305c-6.529-15.959 1.209-56.523 5.894-74.81 2.72-5.441 8.614-6.71 10.428 31.738 2.267 48.06 85.692 13.602 60.755 48.966-24.937 35.365-68.916 14.056-77.077-5.894z" class="color 1_2"/>
      </g>
      <path fill="#C3B7B6" d="M506.971 544.03l-16.323-12.695c0-7.617 6.348-10.73 9.522-11.335 3.022 1.814 10.609 4.716 16.775 1.814 6.167-2.902 11.638-1.209 13.602 0l-23.576 22.216z" class="Vector 11"/>
      <path fill="#EE7E79" d="M351.853 465.578L380.25 447c17.81 1.359 54.7 4.44 59.781 5.89 5.082 1.45 49.196 38.968 70.617 57.545-4.608 5.287-15.02 16.675-19.802 19.937-5.978 4.078-12.33.453-19.803-10.421-20.55-28.546-23.539-22.656-37.363-37.155-70.543 6.162-83.944-8.911-81.827-17.218z" class="color 2_2"/>
      <g class="Vector 7">
        <path fill="#8A6564" d="M380.303 374.198c-2.902.725-6.952-1.814-8.614-3.174-.454-3.174 4.987-20.856 9.974-29.018 4.988-8.161 13.149-4.08 14.056-2.72.725 1.088.302 4.987 0 6.801 1.209 2.418 3.355 7.254 2.267 7.254-1.361 0-2.721.454-2.267 1.361.453.906.906 3.173 0 5.894-1.814 4.987-9.068.453-10.882 1.813-1.451 1.088-3.627 8.313-4.534 11.789zM483.678 417.27c-.726-1.45-16.02-5.44-23.577-7.254-1.36-.33-2.72 4.534-2.267 6.348.453 1.813 6.348 2.267 11.788 4.08 5.441 1.814 14.962-1.36 14.056-3.174z"/>
      </g>
      <path fill="#4B5361" d="M387.558 332.032c3.476-.302 8.614 1.541 8.614 5.894 0 5.441-2.72 4.534-5.894 5.894-3.174 1.36-9.521 8.614-11.335 10.881-1.814 2.267-4.534 4.988-8.161 0-1.209 4.685-5.26 15.235-11.788 19.95-6.529 4.715-15.114 4.685-18.59 4.08 1.209-1.209 5.622-5.259 13.602-11.788 9.975-8.161 1.285-19.39 6.801-27.204 5.441-7.707 12.393-5.934 18.136-4.987 2.756-1.401 4.374-1.972 8.615-2.72z" class="Vector 8"/>
      <path fill="#EDF3FF" d="M389.371 446.288c-4.715 7.617-28.261 17.682-39.445 21.763 2.267-14.811 6.801-47.969 6.801-62.116 0-17.682-.907-37.178 17.229-38.085 18.136-.907 39.445 27.657 43.526 29.471 3.264 1.451 31.587 6.347 45.34 8.614l-3.174 14.963c-8.766-1.663-29.018-5.441-39.899-7.255-10.882-1.813-21.461-8.614-25.39-11.788 0 1.36-2.721 8.614-4.988 15.869-5.078 12.332-2.116 24.181 0 28.564z" class="color 1_3"/>
      <path fill="#E2E1E1" d="M472.796 546.035h-46.247c-.151-20.705-.453-68.009-.453-91.586 0-23.577 12.393-30.378 18.589-30.831h120.604v6.348h-78.892c-11.969 0-14.055 10.579-13.601 15.868v100.201z" class="table"/>
      <path fill="#fff" d="M556.22 421.804h-87.052v-3.173h35.365l11.788-29.018h52.594l-12.695 29.018v3.173z" class="laptop"/>
    </g>
    <path fill="#FFCB56" d="M424.071 543.287c-6.854-1.741-12.001-3.022-18.071 2.117 6.313 1.19 16.089 2.891 24.971 4.141 6.134 5.043 19.189 15.194 22.343 15.455-3.469-2.831-10.384-9.602-10.296-14.044 3.567.291 6.321.335 7.668 0-.725-1.17-3.844-3.485-10.843-4.843-4.272-4.373-14.194-12.662-19.714-10.834l-.658-1.306c7.777.653 25.892 4.899 36.143 16.657-.511-3.375-3.747-11.105-12.596-15.024-8.849-3.919-16.756-4.681-19.604-4.572 4.491-.653 15.64-1.111 24.315 2.286 10.842 4.246 14.785 5.225 25.628 25.475.657-6.641-.066-20.903-8.214-24.822-10.186-4.899-25.3-7.512-37.786-5.226 14.238-3.919 43.7-13.978 47.643-22.861-1.533.108-6.703 1.241-15.114 4.899-8.412 3.657-21.248 10.451-26.615 13.39 5.367-3.593 16.692-12.28 19.058-18.289 2.365-6.01 10.842-27.761 14.785-37.886-6.024 5.334-19.32 19.661-24.314 34.293-4.994 14.632-10.843 18.943-13.143 19.269 2.629-11.648 7.163-37.428 4.272-47.357-2.41 9.472-7.295 32.072-7.558 46.704-.219 2.069-1.445 6.728-4.6 8.818 1.643-8.491 3.483-27.499-2.3-35.599-.657 7.294-1.774 23.254-.985 28.741.985 6.858-2.629 13.717-2.957 12.41-.329-1.306 2.957-24.821-3.286-39.845-1.972 10.831-5.126 34.027-1.972 40.172.658.653 1.578 2.417 0 4.246-1.577 1.829 1.972-.327 3.943-1.633 3.176.983 9.595 3.374 9.857 5.068z" class="plant_2"/>
  </g>
</svg>
