<svg xmlns="http://www.w3.org/2000/svg" width="800" height="600" fill="none" viewBox="0 0 800 600">
  <g clip-path="url(#clip0)">
    <path fill="#fff" d="M0 0h800v600H0z"/>
    <path fill="#DFD8C4" d="M127.158 534.4c1.245-.394 15.729-.027 17.034-.081 130.245-5.504 199.962-10.628 262.666-10.276 72.444.406 135.528 6.792 271.778 6.797.297 0 .607.036.895.108 4.039 1.01 15.216 6.608 11.059 6.843-148.349 8.432-199.346 8.166-285.163 7.517-60.334-.457-137.155.882-280.251-3.673-4.895-.156-3.365-5.542 1.982-7.235z" class="Vector"/>
    <path fill="#DFD8C4" d="M558.301 558.783c1.152.216 2.294 1.05 1.155 1.325-1.002.242-2.973.433-6.698.433h-15.071c-4.44 0-7.238-3.332-2.824-3.807.84-.091 1.825-.142 2.98-.142 7.834 0 16.773 1.503 20.458 2.191z" class="Ellipse"/>
    <path fill="#DFD8C4" d="M504.004 557.916c-.001 1.214-1.687 2.624-21.523 2.61-16.056-.011-34.803-.662-41.365-.91-1.601-.06-3.7-1.047-2.166-1.508 1.592-.479 5.399-.893 13.824-.887 19.836.014 51.231-.518 51.23.695z" class="Ellipse_2"/>
    <path fill="#DFD8C4" d="M245.281 556.055c0 2.075-.862 4.486-11.025 4.486-5.705 0-12.076-.526-16.564-.986-3.756-.385-6.491-3.655-2.775-4.325 1.048-.19 2.395-.303 4.121-.303 10.161 0 26.243-.947 26.243 1.128z" class="Vector_2"/>
    <path fill="#DFAC61" d="M781.261 502.916H25.194v14.48h756.067v-14.48z" class="Vector_3"/>
    <path fill="#DBE9FF" fill-rule="evenodd" d="M689.776 256.451l-8.659 190.937h71.125l-8.76-186.435c30.817 1.165 52.582-1.254 56.518-8.438v198.656H397.588l3.78-3.954h45.108c.404.112.829.171 1.265.171h66.361c1.492 0 2.872-.68 3.747-1.89 7.125-9.856 39.482-55.091 36.295-59.519-2.105-2.927-11.524 1.377-20.134 5.311h-.001l-.001.001c-6.019 2.75-11.641 5.319-14.093 5.111-2.844-.242.263-9.704 3.881-20.723 3.961-12.063 8.536-25.992 6.585-31.734-2.322-6.835-13.853.515-23.656 6.764-5.955 3.796-11.273 7.186-13.503 6.745-2.681-.532-2.139-8.213-1.55-16.573v-.001c.708-10.049 1.485-21.078-3.183-21.839-6.065-.99-14.512 26.004-18.709 39.416-1.719 5.495-2.725 8.71-2.562 6.786.038-.439.082-.918.128-1.431.66-7.222 1.924-21.067-5.494-21.698-4.52-.385-8.705 15.899-11.484 31.191l-1.081-113.407 20.671-9.079 1.439-.632.242-.313 10.916-14.186-2.078-1.968-12.481 10.731-18.855.206-.509-53.369c9.623 1.629 18.857 4.883 27.574 10.101 40.198 24.065 136.321 45.771 213.57 55.062zm-313.42-54.248c-31.949 12.26-64.671 31.886-94.771 49.939-17.382 10.425-33.889 20.326-48.869 27.981-18.585 9.498-36.183 11.29-52.896 8.511l-13.533 16.325 6.609 146.212h163.17l-21.273-12.179c-8.191-4.69-7.369-16.759 1.382-20.296l1.028-.416c8.352-3.376 9.596-14.687 2.175-19.796l-10.038-6.911c-7.967-5.486-5.814-17.794 3.542-20.25l1.026-.269c8.172-2.146 11.19-12.169 5.562-18.47l-9.854-11.031c-6.596-7.385 1.195-16.417 8.988-19.651 13.565-5.628 14.482-25.936 14.851-34.099l.016-.364c.528-11.594 16.248-14.702 21.15-4.182a636.785 636.785 0 012.009 6.844v.002l.002.004c5.037 17.421 6.955 24.054 23.999 24.875 9.524-2.133 17.096 7.991 12.358 16.523l-5.955 10.724c-4.175 7.52 1.231 16.516 9.431 16.794l2.409-142.527-.927 1.441-21.591-15.734zM104.864 451.171l5.176-195.462c-1.524-1.007-3.04-2.013-4.547-3.014-16.328-10.839-31.688-21.036-46.237-25.743C21.332 214.682 3.95 251.152 0 270.92v180.251h104.864z" class="Subtract" clip-rule="evenodd"/>
    <path fill="#FFD28D" fill-rule="evenodd" d="M447.788 50.583l-8.189 16.182c-5.06-4.897-11.024-9.889-16.255-14.044l3.57-18.285 16.307-9.647.731-.433.055-.467 1.102-9.468-3.373 8-13.134 3.368 1.599-8.196.294-1.503-.412-.73L421.968.987l-2.633 1.122 4.307 14.338-11.708 27.58a197.596 197.596 0 00-1.762-1.272L400.869.022h-10.388l2.772 39.56s25.076 29.93 34.24 51.101l-17.895 35.36-15.1-9.18L412.999 91.1l.912-1.27-.053-.794-1.098-16.47-2.859-.127-2.316 14.768-25.702 21.85.439.405-.827-.503 7.033-17.665L384.443.022h-9.037l-5.181 79.665s-6.175 7.714-9.828 16.447l-4.897-2.978-12.461-24.636 6.774-34.042 16.379-9.69.731-.432.055-.467 1.102-9.469-3.373 8-13.167 3.377 1.632-8.204.294-1.503-.412-.73L344.939.987l-2.633 1.122 4.307 14.338L332.964 48.6 308.392.015h-10.344l32.915 77.403-31.193-6.596-9.286-11.742-2.428 1.515 5.953 12.42-12.942 10.987-8.493-1.817 8.393 4.519.414.223.774-.352 18.113-8.236 38.391 17.178 3.844 9.039 57.188 63.585-.324 19.202-36.38-20.524-2.968-22.605-.221-1.682-.772-.642-18.645-15.511-1.991 2.055 15.144 17.065.484 16.259-17.743-10.01-40.292-60.172-2.46 1.33 29.371 69.323.62 1.463 1.545 1.126-9.616.837-12.133-8.733-1.919 2.123 10.943 12.357.528.596 1.545.244 26.606 4.202 35.344 25.758c-31.949 12.26-64.671 31.886-94.771 49.939h-.001c-17.382 10.426-33.889 20.326-48.869 27.981-18.585 9.498-36.183 11.29-52.896 8.511l2.55-3.076 9.214-33.586-3.864-1.784-12.186 27.642-10.218 5.652-3.464-76.638 75.345-30.829 2.511-1.028.922-1.232 43.675-58.399-2.006-1.819-51.827 47.262-14.033 3.919-1.844-11.33 8.982-11.12-1.95-1.97-12.539 9.918-.51.403-.424 1.713-3.91 15.791-31.204 8.713 57.293-53.002 26.739-18.334 1.25-.857.213-.74 4.424-15.364-2.562-1.057-6.974 12.688-17.552 6.559 6.073-44.79 14.512-16.58 18.351-.148.823-.006.273-.365 5.53-7.394-6.718 5.06-12.639-3.569 5.327-6.085.977-1.117.01-.811.195-15.986-2.751-.341-3.367 14.103-17.827 13.361L250.342.01h-11.853L217.077 97.87l-11.67 9.637-8.352-13.77 2.385-14.281-2.667-.757L190.73 93.5l-.291.714.45 1.447 5.902 18.96-29.89 24.681 16.719-46.625c11.837-18.023 37.567-38.14 37.567-38.14l3.068-47.33-8.66 3.441-5.859 37.608s-16.34 11.051-24.469 21.417l-1.704-7.85 13.966-18.8 3.329-43.05H195.4l-7.644 38.59-8.049 5.5-7.911-36.446-4.044.294 1.837 73.23-9.865 14.021c-5.349-7.534-12.981-16.32-19.086-23.028l2.175-11.14 15.794-9.344.709-.42.053-.452 1.068-9.17-3.268 7.748-12.721 3.263 1.549-7.938.285-1.457-.399-.706-7.861-13.922-2.55 1.087 4.172 13.887-8.031 18.92c-.628-.65-.977-1.006-.977-1.006L124.738-.025h-9.704l-1.122 15.346L93.436-.025h-6.214l.025 2.024.01.81.977 1.118 5.326 6.085-12.639 3.568-6.717-5.06 5.53 7.394.273.365.823.007 18.35.147 13.522 15.448-2.493 34.097s24.362 38.704 28.719 58.743l-9.727 13.825-39.344-21.05 5.914-9.89.342-2.957 17.38-10.282.709-.419.053-.453 1.068-9.17-3.268 7.748-14.93 3.83 6.981-60.306-6.439.682-5.864 25.63-10.093-9.553-1.49-29.306-3.005-.485-7.478 35.784 19.075 16.634L83.78 96.98s-6.143 5.561-9.806 12.018l-4.924-2.634-22.87-28.973.242-19.382 13.862-12.025.622-.54-.03-.455-.594-9.213-1.824 8.209-11.93 5.491.1-8.085.02-1.484-.52-.624-10.23-12.286-2.313 1.527 6.595 12.913-4.961 22.067-24.018-30.427L18.556-.118H7.944L.077 17.695v32.737l8.012 4.311L26.45 90.552 3.431 77.242.077 67.634v15.198l39.117 32.574 9.699 18.914 44.97 34.756-29.642-8.277-51.827-47.262-2.005 1.819 43.674 58.399.922 1.232 1.713.701-8.85 3.014-13.433-5.404-1.313 2.441 13.153 9.088.634.439 1.51-.129 25.996-2.208 37.169 15.209-1.524 57.571c-1.507-.996-3.006-1.991-4.497-2.981l-.05-.033c-16.328-10.839-31.688-21.036-46.236-25.743C21.333 214.682 3.95 251.152 0 270.92v180.251h104.864l-.219 8.267h68.625l-.374-8.267h163.17l20.497 11.735a11.304 11.304 0 006.871 1.425l20.067-2.238a11.313 11.313 0 006.919-3.424l7.168-7.498H800V252.515c-3.936 7.184-25.701 9.603-56.518 8.438l-3.013-64.129 34.315-25.008 23.742 1.76 1.388.082v-6.451l-1.038.45-12.881-4.011 10.402-7.581 2.013-1.467.551-1.3.953-2.25v-26.261l-12.85 19.191-47.81 26.974-.507-10.797 17.816-21.171 23.577 1.748 1.388.082.572-.418 11.85-8.658-1.264-2.209-12.196 5.284-16.177-5.037 23.285-27.668 6.392-21.852 5.963-4.173V62.465l-.861.346.861-2.941v-43.4l-31.066 64.21c-.377-.501-.596-.775-.596-.775l-4.861-74.74-7.516-2.042-3.898 87.102 3.527 8.86-9.353 6.661-22.533-19.155-2.059-13.131-1.719.076c7.585-15.093 16.522-29.291 16.522-29.291L744.992.074h-10.389l-16.954 40.045s-.32.326-.896.923l-7.373-17.37 3.83-12.748-2.341-.997-7.216 12.78-.367.648.261 1.338 1.423 7.286-11.678-2.995-3-7.113.981 8.419.048.416.651.384 14.499 8.578 1.996 10.227c-4.434 4.873-9.746 10.94-14.203 16.686l-6.354-12.555-3.716-54.094h-6.341l-11.758 54.167c-8.654-7.295-17.215-13.292-17.215-13.292L640.862-.021h-5.048l2.554 46.593s7.792 5.749 16.731 13.709l1.577 9.446-7.667 12.64-10.714-8.846L614.118-.053h-7.732l14.221 81.946-5.783-1.946-2.188-24.182-.14-1.547-.654-.588-15.461-13.912-1.844 1.753 12.131 14.956-3.669 19.54-10.859-3.654-14.411-36.654 5.406-9.992-2.365-1.612-8.878 10.526 3.002-21.627 18.283-11.61-.741-1.397-.599-1.131-2.608 1.13-18.852 8.175-.908.394-.702 1.599-11.299 25.73-10.85-.367L551.021.02h-12.816l-15.263 62.02-33.164 18.183-3.407-5.617 2.463-14.744-2.754-.782-6.239 15.282-.301.736.465 1.494 2.391 7.68L461.68 95.63l5.901-20.968c14.28-16.495 35.924-32.463 35.924-32.463l2.74-42.248h-9.303l-5.258 35.764s-9.628 6.745-19.361 14.95L461.319-.027h-10.054l-3.477 50.61zm28.418 150.806c-8.717-5.218-17.951-8.472-27.574-10.101l-.067-7.087 75.795-31.014 2.593-1.061.951-1.272 8.862-11.849 21.503-1.172 1.765-.096.548-.498 12.217-11.1-1.678-2.318-12.865 7.287-12.646-3.929 27.385-36.618-2.07-1.878-53.508 48.796-14.488 4.045-1.904-11.697 9.273-11.48-2.013-2.034-12.946 10.239-.527.417-.438 1.768-4.036 16.303-42.035 11.737-.125-13.168.051-.183 64.848-40.862 20.948 6.758 1.511.488.824-.513 12.697-7.895-1.048-2.148-12.547 4.601-12.35-7.614 17.315-10.91 4.571-36.81 27.206-5.698 1.86-.39.553-1.023 1.303-2.408 11.277 36.575.313 1.016 1.268.685 37.284 20.131 49.85 47.818-25.836-7.214-3.589-14.496-.389-1.572-.468-.37-11.511-9.105-1.79 1.809 8.245 10.208-1.693 10.4-12.934-3.611-30.207-28.119-1.936 1.559 22.58 38.129.786 1.326 2.655 1.087 49.567 20.521-12.985 8.186-11.383-5.709-1.386 2.134 11.347 9.309.973.797 1.842-.606 25.444-8.375 10.192 4.219-1.993 43.956-25.098-.611-10.969-9.688-1.871 1.725 9.537 12.742.211.281 1.267.577-8.726 1.813-16.096-11.982-1.669 1.921 15.164 15.333.628.635 1.506.067 29.161 1.303 6.187 2.816-.899 19.829c-77.248-9.291-173.371-30.997-213.57-55.062zm259.347-88.069l-16.709-23.267-.812-1.13.047-.706.853-12.776c-3.962 8.05-7.42 16.194-8.829 22.435l12.488 24.675 12.962-9.231zm-53.09-3.329l-25.544-21.092 5.418-17.406.413-1.328-.267-.655-1.584-3.88c3.708 3.552 7.373 7.345 10.548 11.142l11.016 33.219z" class="Primary" clip-rule="evenodd"/>
    <path fill="#6100FF" fill-opacity=".2" fill-rule="evenodd" d="M689.776 256.451l-8.659 190.937h71.125l-8.76-186.435c30.817 1.165 52.582-1.254 56.518-8.438v198.656H397.588l3.78-3.954h45.108c.404.112.829.171 1.265.171h66.361c1.492 0 2.872-.68 3.747-1.89 7.125-9.856 39.482-55.091 36.295-59.519-2.105-2.927-11.524 1.377-20.134 5.311h-.001l-.001.001c-6.019 2.75-11.641 5.319-14.093 5.111-2.844-.242.263-9.704 3.881-20.723 3.961-12.063 8.536-25.992 6.585-31.734-2.322-6.835-13.853.515-23.656 6.764-5.955 3.796-11.273 7.186-13.503 6.745-2.681-.532-2.139-8.213-1.55-16.573v-.001c.708-10.049 1.485-21.078-3.183-21.839-6.065-.99-14.512 26.004-18.709 39.416-1.719 5.495-2.725 8.71-2.562 6.786.038-.439.082-.918.128-1.431.66-7.222 1.924-21.067-5.494-21.698-4.52-.385-8.705 15.899-11.484 31.191l-1.081-113.407 20.671-9.079 1.439-.632.242-.313 10.916-14.186-2.078-1.968-12.481 10.731-18.855.206-.509-53.369c9.623 1.629 18.857 4.883 27.574 10.101 40.198 24.065 136.321 45.771 213.57 55.062zm-313.42-54.248c-31.949 12.26-64.671 31.886-94.771 49.939-17.382 10.425-33.889 20.326-48.869 27.981-18.585 9.498-36.183 11.29-52.896 8.511l-13.533 16.325 6.609 146.212h163.17l-21.273-12.179c-8.191-4.69-7.369-16.759 1.382-20.296l1.028-.416c8.352-3.376 9.596-14.687 2.175-19.796l-10.038-6.911c-7.967-5.486-5.814-17.794 3.542-20.25l1.026-.269c8.172-2.146 11.19-12.169 5.562-18.47l-9.854-11.031c-6.596-7.385 1.195-16.417 8.988-19.651 13.565-5.628 14.482-25.936 14.851-34.099l.016-.364c.528-11.594 16.248-14.702 21.15-4.182a636.785 636.785 0 012.009 6.844v.002l.002.004c5.037 17.421 6.955 24.054 23.999 24.875 9.524-2.133 17.096 7.991 12.358 16.523l-5.955 10.724c-4.175 7.52 1.231 16.516 9.431 16.794l2.409-142.527-.927 1.441-21.591-15.734zM104.864 451.171l5.176-195.462c-1.524-1.007-3.04-2.013-4.547-3.014-16.328-10.839-31.688-21.036-46.237-25.743C21.332 214.682 3.95 251.152 0 270.92v180.251h104.864z" class="Subtract_2" clip-rule="evenodd"/>
    <g class="Group">
      <path fill="#A893BD" d="M776.857 454.409l-9.287-66.947c-.186-1.338-2.11-1.366-2.334-.034l-12.033 48.694-11.257-32.738c-.293-1.245-2.08-1.201-2.31.058l-7.306 32.495-12.247-49.137c-.204-1.349-2.153-1.335-2.338.017l-9.233 67.592-7.292-89.156c-.114-1.399-2.138-1.466-2.345-.078l-12.211 73.533-8.158-43.344c-.158-1.311-2.021-1.414-2.322-.128l-13.852 59.173-19.72-98.942c-.269-1.349-2.237-1.226-2.336.146l-7.509 71.462-11.019-51.524c-.195-1.346-2.136-1.35-2.336-.005l-11.756 78.863-15.885-105.489c-.212-1.404-2.265-1.309-2.347.108l-6.144 107.107v7.879h193.577v-7.879" class="Vector_4"/>
      <path fill="#A893BD" d="M585.887 454.409l-9.288-66.947c-.186-1.338-2.109-1.366-2.334-.034l-11.283 66.981-12.006-51.025c-.293-1.245-2.081-1.201-2.311.058l-9.919 33.788-9.634-50.43c-.204-1.349-2.153-1.335-2.337.017l-9.234 67.592-7.292-89.156c-.114-1.399-2.138-1.466-2.344-.078l-13.269 89.234-7.101-59.045c-.157-1.311-2.02-1.414-2.321-.128l-13.853 59.173-19.72-98.942c-.269-1.349-2.236-1.226-2.336.146l-7.721 84.388-10.807-64.45c-.194-1.346-2.136-1.35-2.336-.005l-11.756 78.863L400.8 348.92c-.212-1.404-2.265-1.309-2.346.108l-6.144 107.107v7.879h193.577v-7.879" class="Vector_5"/>
      <path fill="#A893BD" d="M394.915 454.409l-9.288-66.947c-.185-1.338-2.109-1.366-2.334-.034l-11.656 57.252-11.633-41.296c-.293-1.245-2.08-1.201-2.311.058l-8.653 40.253-10.9-56.895c-.204-1.349-2.152-1.335-2.337.017l-10.047 57.643-6.478-79.207c-.115-1.399-2.139-1.466-2.345-.078l-14.345 80.285-6.024-50.096c-.158-1.311-2.021-1.414-2.322-.128l-15.845 49.177-17.728-88.946c-.269-1.349-2.236-1.226-2.335.146l-7.13 98.796-11.398-78.858c-.195-1.346-2.136-1.35-2.337-.005l-11.756 78.863-15.885-105.489c-.211-1.404-2.265-1.309-2.346.108l-6.144 107.107v7.879h193.577v-9.605z" class="Vector_6"/>
      <path fill="#A893BD" d="M203.943 454.409l-9.288-66.947c-.185-1.338-2.109-1.366-2.333-.034l-12.703 60.948-10.587-44.992c-.293-1.245-2.08-1.2-2.31.058l-9.973 36.559-9.58-53.201c-.204-1.348-2.153-1.334-2.338.017l-9.824 60.369-6.701-81.933c-.114-1.399-2.138-1.465-2.345-.077l-14.737 77.023-5.632-46.835c-.158-1.311-2.021-1.414-2.322-.128l-16.087 47.962-17.485-87.731c-.27-1.349-2.237-1.226-2.336.146l-7.13 98.796-11.398-78.858c-.195-1.346-2.136-1.35-2.336-.005L34.74 454.409 18.857 348.92c-.212-1.403-2.265-1.309-2.347.108l-6.144 107.108v7.879h193.577v-7.879" class="Vector_7"/>
    </g>
    <path fill="#995B4D" fill-rule="evenodd" d="M600.731 446.52l7.907-56.993c.196-1.408 2.22-1.438 2.456-.036l13.366 64.13 11.139-47.341c.309-1.31 2.189-1.263 2.432.061l10.493 38.468 10.081-55.979c.214-1.419 2.265-1.404 2.459.018l10.337 63.52 7.051-86.21c.12-1.472 2.25-1.542 2.467-.081l15.507 81.045 5.926-49.281c.166-1.379 2.126-1.487 2.443-.134l16.926 50.466 18.399-92.312c.283-1.419 2.354-1.29 2.458.154l7.502 103.954 11.993-82.975c.205-1.416 2.248-1.421 2.459-.006l12.37 82.981 16.714-110.997c.222-1.476 2.383-1.377 2.469.114l3.973 69.266v44.008h.102v19.614H-.009V462.36H.03v-31.152l5.782-41.681c.196-1.408 2.22-1.437 2.456-.036l12.661 51.237 11.844-34.448c.309-1.31 2.19-1.263 2.432.061l7.687 34.192 12.887-51.702c.214-1.419 2.264-1.405 2.459.017l9.716 71.122 7.672-93.811c.12-1.472 2.25-1.543 2.467-.082l12.85 77.372 8.583-45.607c.166-1.38 2.126-1.488 2.443-.135l14.575 62.263 20.75-104.108c.283-1.42 2.354-1.291 2.458.153l7.901 75.193 11.594-54.214c.205-1.416 2.248-1.42 2.459-.005l12.37 82.981 16.714-110.997c.222-1.477 2.383-1.377 2.469.114l5.589 97.433 7.907-56.993c.195-1.408 2.219-1.438 2.455-.036l11.873 70.478 12.633-53.689c.308-1.31 2.189-1.263 2.431.061l10.437 35.552 10.137-53.063c.215-1.419 2.265-1.404 2.459.018l9.716 71.121 7.672-93.811c.121-1.472 2.25-1.542 2.467-.081l13.962 93.892 7.471-62.128c.166-1.379 2.126-1.487 2.443-.134l14.576 62.262 20.75-104.108c.283-1.419 2.353-1.29 2.457.154l8.125 88.794 11.371-67.815c.204-1.416 2.247-1.421 2.458-.006l12.37 82.981 16.714-110.997c.223-1.476 2.383-1.377 2.469.114l5.589 97.434 7.907-56.993c.195-1.408 2.219-1.438 2.455-.036l12.265 60.242 12.241-43.453c.308-1.31 2.189-1.263 2.431.061l9.105 42.355 11.469-59.866c.215-1.419 2.265-1.404 2.459.018l10.572 60.653 6.817-83.343c.12-1.472 2.249-1.542 2.467-.081l15.094 84.475 6.338-52.711c.166-1.379 2.127-1.487 2.443-.134l16.672 51.745 18.654-93.591c.283-1.419 2.353-1.29 2.457.154l7.502 103.954 11.994-82.975c.205-1.416 2.247-1.421 2.458-.006l12.37 82.981 16.715-110.997c.222-1.476 2.383-1.377 2.468.114l5.589 97.434z" class="Union" clip-rule="evenodd"/>
    <path fill="#DFAC61" d="M115.218 468.962c4.941 6.526-4.871 32.247-10.395 44.293-15.424 1.313-46.356 2.94-46.695-1.051-.425-4.991-28.647-35.944-26.196-39.351 2.452-3.407 19.371 7.489 23.454 7.142 4.083-.348-9.73-28.415-7.172-35.943 2.558-7.528 21.418 10.057 25.462 9.256 4.044-.802-2.616-25.365 3.243-26.321 5.859-.955 14.96 36.195 14.575 31.658-.387-4.536-1.767-15.385 3.677-15.849 4.355-.37 8.255 21.839 9.661 32.99 1.403-4.993 5.444-13.348 10.386-6.824z" class="Vector_8"/>
    <path fill="#A893BD" d="M783.864 375.124h-71.448v145.575h71.448V375.124z" class="Vector_9"/>
    <path fill="#E3E0E0" d="M576.502 243.835c-8.676-1.075-4.913 9.565-6.882 16.38l-41.103-2.303-3.977-21.734c6.194-2.836 42.21-3.67 58.071-2.101.688 1.824 2.568 10.833-6.109 9.758z" class="Vector 14"/>
    <path fill="#F9B679" fill-rule="evenodd" d="M243.029 236.088c2.547-5.358 5.953-6.519 11.311-3.972l51.216 19.912c15.75-5.456 31.845-5.726 48.709-11.656 5.203-.789 17.835.135 22.763 1.295 5.775 1.359-.412 4.587-1.77 10.361-1.359 5.775-7.142 9.354-12.916 7.996.024.006-.154-.036-.596-.066a17.528 17.528 0 00-1.755-.014c-1.507.051-3.422-6.75-5.726-6.402-18.668 2.833-35.886 17.376-53.523 23.739l-47.64-16.746c-5.357-2.546-12.62-19.09-10.073-24.447z" class="Vector_10" clip-rule="evenodd"/>
    <path fill="#A97C08" d="M174.999 221.363h-28.761v170.708h28.761V221.363z" class="Vector_11"/>
    <path fill="#559ED2" d="M253.004 227.695c-9.487-3.304-19.855 1.709-23.159 11.196-3.302 9.487 1.71 19.856 11.197 23.159l11.962-34.355zm-11.962 34.355l40.153 13.981 11.962-34.356-40.153-13.98-11.962 34.355z" class="Vector_12"/>
    <path fill="#A97C08" d="M660.217 221.363h-28.761v170.708h28.761V221.363z" class="Vector_13"/>
    <path fill="#FFE0A4" d="M705.677 322.943H100.778v19.483h604.899v-19.483z" class="Vector_14"/>
    <path stroke="#F9B679" stroke-linecap="round" stroke-width="20.525" d="M572.887 248.766h-62.821a.957.957 0 01-.715-1.594l34.454-38.628" class="Vector 3.3"/>
    <path fill="#FFE0A4" d="M705.677 288.143H100.778v19.483h604.899v-19.483z" class="Vector_15"/>
    <path fill="#E3E0E0" d="M535.705 234.076c7.938-.806 25.779 2.184 25.779 2.184-3.29 7.359-2.794 8.084-5.726 22.654l-29.954-1.246c-4.335-7.356-2.241-12.55 9.901-23.592z" class="Vector 14.2"/>
    <path fill="#FFE0A4" d="M705.677 253.343H100.778v19.483h604.899v-19.483z" class="Vector_16"/>
    <path fill="#A97C08" d="M148.859 417.121h-20.411v119.681h20.411V417.121z" class="Vector_17"/>
    <path fill="#A97C08" d="M678.007 417.121h-20.41v119.681h20.41V417.121z" class="Vector_18"/>
    <path fill="#FFE0A4" d="M705.676 379.318H100.777v43.451h604.899v-43.451z" class="Vector_19"/>
    <path fill="#F9B679" d="M394.792 246.354c-12.064-5.36-25.67-7.399-38.578-3.966-8.639 2.297-10.856 2.333-8.126 8.807l12.256 4.019s41.823 1.73 43.689 0c1.867-1.729 2.823-3.501-9.241-8.86z" class="Vector_20"/>
    <g class="Group_2">
      <path fill="#CFA844" d="M160.619 265.912a2.828 2.828 0 100-5.656 2.828 2.828 0 000 5.656z" class="Vector_21"/>
      <path fill="#CFA844" d="M160.619 300.712a2.828 2.828 0 100-5.656 2.828 2.828 0 000 5.656z" class="Vector_22"/>
      <path fill="#CFA844" d="M160.619 335.512a2.828 2.828 0 100-5.656 2.828 2.828 0 000 5.656z" class="Vector_23"/>
    </g>
    <g class="Group_3">
      <path fill="#A97C08" d="M645.836 265.912a2.828 2.828 0 10.002-5.656 2.828 2.828 0 00-.002 5.656z" class="Vector_24"/>
      <path fill="#A97C08" d="M645.836 300.712a2.828 2.828 0 10.002-5.656 2.828 2.828 0 00-.002 5.656z" class="Vector_25"/>
      <path fill="#A97C08" d="M645.836 335.512a2.828 2.828 0 10.002-5.656 2.828 2.828 0 00-.002 5.656z" class="Vector_26"/>
    </g>
    <path fill="#FFB877" fill-rule="evenodd" d="M489.698 474.773c-3.466-.171-6.411 2.519-6.579 6.008l-2.122 23.095c-.067 5.949 5.08 8.372 8.545 8.543 3.466.171 5.036-8.375 5.204-11.864l.922-19.155c.168-3.489-2.505-6.456-5.97-6.627z" class="Vector 3.2 (Stroke)" clip-rule="evenodd"/>
    <path fill="#F8F8F8" d="M553.862 259.727c2.601-16.404 5.937-26.9 21.928-31.388 10.734-3.012 21.766-5.184 26.109-3.013 15.642 7.822 42.572 62.161 28.583 125.311h-81.118c0-29.957-.206-61.246 4.498-90.91z" class="Rectangle 2"/>
    <path stroke="#FFB877" stroke-linecap="round" stroke-width="12.445" d="M547.771 484.336l2.914 31.296" class="Vector 3.2"/>
    <path fill="#F8F8F8" d="M595.115 302.34s46.362-21.273 38.002 50.447c-17.522 0-89.06-6.58-89.06-6.58-1.001-35.292 51.058-43.867 51.058-43.867z" class="Rectangle 2.1"/>
    <g class="Group 7">
      <path fill="#FFCC9C" d="M577.085 171.997l-46.695 2.117s7.616 24.254 8.179 44.469c20.901 7.638 42.227-23.851 42.227-23.851l-3.711-22.735z" class="Union_2"/>
      <path stroke="#3E3E3E" stroke-linecap="round" stroke-width="1.797" d="M536.023 191.788c.206 5.039-4.047 8.053-3.192 9.234.856 1.181 4.825 1.688 4.825 1.688" class="Vector 2"/>
      <path fill="#FFCC9C" d="M597.225 233.895c-5.657-7.855-19.757-16.486-21.318-39.604l-11.349 14.771c-2.862 3.039-7.698-.138-5.076 1.665 2.623 1.802 5.069 28.228 1.949 31.828l9.246-2.699c6.335.438 32.206 1.893 26.548-5.961z" class="Vector 2_2"/>
      <path fill="#3E3E3E" d="M568.513 210.186l-7.786 4.465s2.064 11.08 1.96 13.614c0 0 4.345-13.491 5.826-18.079z" class="Vector_27"/>
      <path stroke="#3E3E3E" stroke-width="1.797" d="M543.6 205.274c-.152 1.271-1.69 4.22-5.644 4.66" class="Vector 5"/>
    </g>
    <g class="Group 10">
      <path stroke="#4F7793" stroke-linecap="round" stroke-width=".856" d="M551.386 316.47l3.787 2.089" class="Vector 9"/>
      <path stroke="#4F7793" stroke-linecap="round" stroke-width=".856" d="M552.431 314.576l3.787 2.09" class="Vector 9.1"/>
    </g>
    <path fill="#559ED2" d="M605.816 307.845l5.995 4.05-6.505 3.167.51-7.217z" class="Polygon"/>
    <path fill="#559ED2" d="M559.137 274.571l-6.235-3.67 6.296-3.564-.061 7.234z" class="Polygon_2"/>
    <path fill="#559ED2" d="M543.848 251.351l-4.685-3.274 5.178-2.42-.493 5.694z" class="Polygon_3"/>
    <path fill="#559ED2" d="M549.327 241.429l1.19-5.59 4.247 3.825-5.437 1.765z" class="Polygon_4"/>
    <g class="Group 9.6">
      <path stroke="#4F7793" stroke-linecap="round" stroke-width=".856" d="M619.005 299.374l3.199 2.911" class="Vector 9.2"/>
      <path stroke="#4F7793" stroke-linecap="round" stroke-width=".856" d="M620.46 297.774l3.199 2.911" class="Vector 9.3"/>
    </g>
    <g class="Group 9.2">
      <path stroke="#4F7793" stroke-linecap="round" stroke-width=".856" d="M535.673 241.333l4.306-.406" class="Vector 9.2_2"/>
      <path stroke="#4F7793" stroke-linecap="round" stroke-width=".856" d="M535.471 239.18l4.306-.406" class="Vector 9.3_2"/>
    </g>
    <g class="Group 9.3">
      <path stroke="#3F6580" stroke-linecap="round" stroke-width=".856" d="M553.118 286.523l3.224 2.933" class="Vector 9.2_3"/>
      <path stroke="#3F6580" stroke-linecap="round" stroke-width=".856" d="M554.585 284.91l3.224 2.934" class="Vector 9.3_3"/>
    </g>
    <g class="Group 9.10">
      <path stroke="#3F6580" stroke-linecap="round" stroke-width=".856" d="M571.274 274.388l3.224 2.934" class="Vector 9.2_4"/>
      <path stroke="#3F6580" stroke-linecap="round" stroke-width=".856" d="M572.741 272.776l3.224 2.934" class="Vector 9.3_4"/>
    </g>
    <g class="Group 9.9">
      <path stroke="#3F6580" stroke-linecap="round" stroke-width=".856" d="M558.723 251.269l3.224 2.934" class="Vector 9.2_5"/>
      <path stroke="#3F6580" stroke-linecap="round" stroke-width=".856" d="M560.189 249.657l3.224 2.934" class="Vector 9.3_5"/>
    </g>
    <path fill="#559ED2" d="M561.747 298.052l5.043 5.187-7.014 1.775 1.971-6.962z" class="Polygon_5"/>
    <path fill="#559ED2" d="M571.62 322.837l-.349 7.227-6.084-3.916 6.433-3.311z" class="Polygon_6"/>
    <path fill="#FFB877" fill-rule="evenodd" d="M580.902 264.71l-2.77 59.722-60.235 10.58c-5.17 0-2.119 6.988 6.104 12.115l64.146-2.154a11.698 11.698 0 0010.382-10.235l9.591-48.606c3.047-25.314-25.513-35.588-27.218-21.422z" class="Vector 3.4 (Stroke)" clip-rule="evenodd"/>
    <g class="Group 14">
      <g class="Group 13">
        <path fill="#F3F2F2" d="M575.554 259.327c.787-10.467 9.91-18.314 20.377-17.527 10.467.787 18.314 9.91 17.527 20.377l-37.904-2.85zm37.904 2.85l-2.822 37.54-37.905-2.85 2.823-37.54 37.904 2.85z" class="Vector 10"/>
        <path fill="#559ED2" d="M574.55 289.416l5.433 3.747.529-6.579-5.962 2.832z" class="Polygon_7"/>
        <path fill="#559ED2" d="M597.814 278.848l5.433 3.748.529-6.579-5.962 2.831z" class="Polygon_8"/>
        <g class="Group 9.5">
          <path stroke="#4F7793" stroke-linecap="round" stroke-width="1.118" d="M602.149 290.711l2.611 5.012" class="Vector 9.2_6"/>
          <path stroke="#4F7793" stroke-linecap="round" stroke-width="1.118" d="M599.644 292.017l2.61 5.011" class="Vector 9.3_6"/>
        </g>
        <g class="Group 9.11">
          <path stroke="#4F7793" stroke-linecap="round" stroke-width="1.118" d="M591.76 267.503l2.61 5.011" class="Vector 9.2_7"/>
          <path stroke="#4F7793" stroke-linecap="round" stroke-width="1.118" d="M589.254 268.808l2.611 5.011" class="Vector 9.3_7"/>
        </g>
        <g class="Group 9.10_2">
          <path stroke="#4F7793" stroke-linecap="round" stroke-width="1.118" d="M596.842 245.762l.369 5.639" class="Vector 9.2_8"/>
          <path stroke="#4F7793" stroke-linecap="round" stroke-width="1.118" d="M594.022 245.947l.369 5.639" class="Vector 9.3_8"/>
        </g>
      </g>
      <path fill="#559ED2" d="M579.412 256.031l2.758 5.996 3.814-5.387-6.572-.609z" class="Polygon_9"/>
    </g>
    <g class="Group 9.7">
      <path stroke="#4F7793" stroke-linecap="round" stroke-width=".856" d="M615.476 327.093l2.401 3.597" class="Vector 9.2_9"/>
      <path stroke="#4F7793" stroke-linecap="round" stroke-width=".856" d="M617.273 325.892l2.402 3.597" class="Vector 9.3_9"/>
    </g>
    <path fill="#559ED2" d="M629.953 315.095l1.712 4.753-4.972-.893 3.26-3.86z" class="Polygon_10"/>
    <path fill="#559ED2" d="M573.294 246.618l1.712 4.753-4.972-.893 3.26-3.86z" class="Polygon_11"/>
    <path fill="#FFB877" d="M487.129 342.148c9.971-8.651 25.727-12.622 36.638-4.918 4.09 2.887 6.761 4.478 4.736 7.776-3.634 5.915-16.264 4.178-27.12 2.349-7.16-1.207-25.402 4.464-14.254-5.207z" class="Vector 2.11"/>
    <path fill="#fff" d="M590.406 227.405c-8.542-2.444-19.304 2.948-31.023 6.177-1.982.543-3.081 13.834-.577 10.713 2.504-3.12 37.658-3.381 36.715-4.843-.943-1.462 3.012-9.722-5.115-12.047z" class="Vector 9_2"/>
    <ellipse cx="450.066" cy="381.024" fill="#2A71C4" fill-opacity=".2" class="Ellipse 2" rx="14.092" ry="1.064"/>
    <ellipse cx="367.049" cy="381.024" fill="#2A71C4" fill-opacity=".2" class="Ellipse 2.1" rx="14.092" ry="1.064"/>
    <g class="Group 17.3">
      <circle cx="545.254" cy="82.77" r="13.604" fill="#43FDD0" class="Ellipse 3" transform="rotate(26.4 545.254 82.77)"/>
      <path fill="#099F7B" d="M539.649 82.93a.719.719 0 00-1.411.268l1.411-.268zm10.32 4.81a.717.717 0 10-1.109-.912l1.109.912zm-11.731-4.541c.286 1.503 1.692 4.791 5.142 5.894l.437-1.368c-2.747-.878-3.933-3.56-4.168-4.795l-1.411.268zm5.142 5.894c3.395 1.085 5.766-.352 6.589-1.353l-1.109-.912c-.472.574-2.24 1.792-5.043.897l-.437 1.368z" class="Vector 20"/>
      <circle cx="541.273" cy="77.167" r="1.44" fill="#099F7B" class="Ellipse 4" transform="rotate(26.4 541.273 77.167)"/>
      <circle cx="551.09" cy="80.433" r="1.44" fill="#099F7B" class="Ellipse 4.1" transform="rotate(26.4 551.09 80.433)"/>
    </g>
    <g class="Group 17.4">
      <circle cx="261.689" cy="88.452" r="14.568" fill="#43FDD0" class="Ellipse 3_2" transform="rotate(18.527 261.689 88.452)"/>
      <path fill="#099F7B" d="M255.483 90.323a.925.925 0 10-1.754.593l1.754-.593zm11.639 3.72a.926.926 0 00-1.579-.968l1.579.969zm-13.393-3.127c.534 1.58 2.54 4.925 6.441 5.602l.317-1.824c-2.963-.515-4.583-3.124-5.004-4.37l-1.754.592zm6.441 5.602c3.828.665 6.194-1.24 6.952-2.474l-1.579-.97c-.384.627-2.019 2.147-5.056 1.62l-.317 1.824z" class="Vector 20_2"/>
      <circle cx="256.644" cy="83.094" r="1.542" fill="#099F7B" class="Ellipse 4_2" transform="rotate(18.527 256.644 83.094)"/>
      <circle cx="267.536" cy="85.117" r="1.542" fill="#099F7B" class="Ellipse 4.1_2" transform="rotate(18.527 267.536 85.117)"/>
    </g>
    <path fill="#43FDD0" d="M149.527 245.314c17.738-18.544 89.267-24.551 98.943-19.713 9.675 4.838 9.586 130.568 9.586 130.568s-127.309 23.667-110.709-6.791c18.545-40.313-15.558-85.52 2.18-104.064z" class="Vector_28"/>
    <path fill="#559ED2" d="M149.527 245.314c17.738-18.544 89.267-24.551 98.943-19.713 9.675 4.837 9.586 130.568 9.586 130.568s-127.309 23.666-110.709-6.791c18.545-40.314-15.558-85.52 2.18-104.064z" class="Vector_29"/>
    <path stroke="#FFB877" stroke-linecap="round" stroke-width="12.445" d="M223.54 483.908l-.668 31.424" class="Vector_30"/>
    <path fill="#559ED2" d="M150.445 360.837c2.838 1.727 15.48 1.166 22.153-2.934 6.723-4.131 34.773-9.288 34.773-9.288l-18.946-30.248-12.711 2.506s-26.252 22.823-25.269 39.964z" class="Vector_31"/>
    <path fill="#FFB877" fill-rule="evenodd" d="M156.783 249.225c5.933 0 10.742 4.809 10.742 10.741v70.157l69.117-21.473c5.666-1.761 11.686 1.405 13.445 7.071 1.76 5.665-2.173 6.68-7.838 8.44l-78.555 29.647c-8.761 2.723-12.501-2.315-17.652-12.999-5.15-10.686-5.15-70.163-5.15-70.163 0-5.932 9.959-21.421 15.891-21.421z" class="Vector_32" clip-rule="evenodd"/>
    <path fill="#FFB877" d="M182.504 157.68l51.644-1.991s4.169 32.253 6.369 56.436c-23.835 12.075-57.526-16.719-57.526-16.719l-.487-37.726z" class="Vector_33"/>
    <path stroke="#3E3E3E" stroke-linecap="round" stroke-width="1.818" d="M236.192 176.607c1.814 5.778 7.843 7.458 7.356 9.14-.489 1.682-4.768 3.866-4.768 3.866" class="Vector_34"/>
    <path fill="#FFB877" d="M181.78 236.499c6.746-9.465 11.523-28.341 11.139-37.037l22.085 6.705c3.455 3.632 11.671 2.994 8.532 5.174-3.139 2.18-1.837 32.432-.947 36.581l-14.748-4.743c-7.605.563-32.808 2.785-26.061-6.68z" class="Vector_35"/>
    <path fill="#3E3E3E" d="M206.531 210.054s5.647 2.431 8.686 3.357c3.038.926 7.17 1.274 7.17 1.274s-.829 9.65-.829 12.9c0 0-11.883-12.67-15.027-17.531z" class="Vector_36"/>
    <path stroke="#3E3E3E" stroke-width="1.818" d="M231.684 196.369c.5 1.404 3.026 4.363 7.679 3.868" class="Vector_37"/>
    <path stroke="#FFB877" stroke-linecap="round" stroke-width="12.445" d="M238.538 338.551l-31.73 4.487" class="Vector_38"/>
    <path fill="#559ED2" d="M204.748 241.452c-18.967-.475-20.541-6.031-20.51-10.774-6.747 2.47-10.208 13.311-9.542 20.446l12.257 8.856c8.111 2.351 24.985 7.093 27.596 7.249 2.61.156 13.298-11.09 18.316-16.732l-10.762-20.928c1.35 4.111 1.612 12.358-17.355 11.883z" class="Vector_39"/>
    <path fill="#559ED2" d="M175.231 259.749c0-10.045-8.143-18.189-18.189-18.189-10.045 0-18.189 8.144-18.189 18.189h36.378zm-36.378 0v40.539h36.378v-40.539h-36.378z" class="Vector_40"/>
    <path fill="#F9B679" d="M362.898 261.273c-5.028-1.077-12.489-7.975-19.462-9.841l16.02-3.925h15.113c-.199 1.446-.808 4.788-1.646 6.584-1.047 2.244 9.427 3.891 10.026 7.182.599 3.293-13.767 1.347-20.051 0z" class="Vector_41"/>
    <path fill="#FFB877" d="M245.169 303c-5.14-.137-11.079 7.281-13.022 9.582l6.436 2.987 14.688 3.559c.147-1.453.342-4.844-.05-6.787-.489-2.428 9.128 4.263 10.486 1.205 1.357-3.059-12.113-10.375-18.538-10.546z" class="Vector_42"/>
    <path fill="#F8F8F8" d="M633.472 359.822l-65.309-11.547 37.348-5.837h28.453l-.492 17.384z" class="Vector 21"/>
    <path fill="#559ED2" d="M610.025 341.165l1.713 4.753-4.973-.894 3.26-3.859z" class="Polygon_12"/>
    <g class="Group 9">
      <g class="Group_4">
        <path stroke="#4F7793" stroke-linecap="round" stroke-width=".856" d="M624.104 344.565l4.262-.74" class="Vector 9.2_10"/>
        <path stroke="#4F7793" stroke-linecap="round" stroke-width=".856" d="M623.734 342.433l4.262-.739" class="Vector 9.3_10"/>
      </g>
    </g>
    <path fill="#3E3E3E" fill-rule="evenodd" d="M127.885 100.744c2.564 7.001-1.032 14.754-8.032 17.319-7.001 2.564-14.754-1.032-17.319-8.033-2.564-7 1.032-14.754 8.033-17.318 7-2.564 14.754 1.032 17.318 8.032zm515.189 33.909c-3.471 6.598-11.633 9.133-18.231 5.662-6.598-3.471-9.133-11.633-5.663-18.231 3.471-6.598 11.633-9.133 18.232-5.663 6.598 3.471 9.133 11.633 5.662 18.232zM216.04 163.459l-12.864.097c-2.189 3.198.761 10.833 3.633 15.862l-8.934 2.403c-1.867-5.507-7.869-10.173-11.541-4.52-2.316 3.566 1.85 8.093 5.984 12.585 2.42 2.629 4.828 5.246 5.919 7.651 2.957 6.515-4.577 9.537-7.871 10.733-3.294 1.195-20.744 6.264-21.176-4.412-.432-10.676-1.771-29.796-5.635-43.283-3.091-10.79 9.145-13.329 12.028-8.449-.552-.933-.583-2.199-.233-3.684-2.218-30.857 1.336-37.971 9.106-40.213 4.25-1.226 9.248 2.968 13.3 8.537 9.094-9.393 19.852-14.571 30.892-4.028 1.44 1.374 2.585 3.324 3.492 5.652 1.931-.541 3.949-.262 6.001 1.178 9.311 6.532.703 29.413-3.555 38.776 0 0-6.81 4.481-18.546 5.115zm311.222 24.282s5.303-4.112 28.589-4.322c2.943 15.96 9.341 23.874 15.428 31.404 6.447 7.975 12.545 15.518 13.818 31.732.527 6.707-.142 10.404-.649 13.202-.704 3.889-1.094 6.042 2.483 12.134 2.942 5.012 8.31 5.239 14.07 5.484 6.279.266 13.025.552 17.605 7.077 9.201 13.107 30.606 17.911 20.207-10.922-2.63-7.294-3.64-16.254-4.641-25.127-1.284-11.394-2.552-22.645-7.213-30.043-2.685-4.263-5.767-6.842-8.865-9.436-6.469-5.415-13.012-10.892-16.171-31.875-4.674-31.048-38.74-34.992-52.166-25.315-35.034 0-22.495 36.007-22.495 36.007zm41.946 160.72h.001l63.071 11.15c.212.851.374 1.725.481 2.618 1.406 11.664-6.911 22.258-18.574 23.664l-48.986 5.902V475.6c0 10.161-8.237 18.399-18.398 18.399-10.162 0-18.399-8.238-18.399-18.399v-92.331l-18.394.773-4.318 91.342c-.48 10.15-9.097 17.99-19.247 17.51-10.15-.48-17.99-9.097-17.51-19.247l5.101-107.886c.323-6.838 4.34-12.627 10.03-15.53a18.577 18.577 0 019.168-2.854l27.065-1.137.101.065.164.103h25.696c3.826.347 12.28 1.106 22.562 1.984l.386.069zm-25.805 159.396c5.153 7.165 13.023.752 13.023.752s8.979 5.548 4.984 33.464c-1.348 9.423-12.675 14.457-20.731 14.457-13.536 0-6.548-20.018-1.292-35.077 1.985-5.689 3.724-10.67 4.016-13.596zM309.673 309.05a18.666 18.666 0 019.961 1.19c3.598 1.156 6.851 3.598 9.263 7.238 5.613 8.471 4.545 20.22-3.926 25.833l-57.185 37.891c-2.831 1.875-7.553 4.203-11.787 4.994l-11.333.497c.518 15.211.608 33.186.281 49.133.23 18.514-.399 35.475-3.394 47.676-1.461 5.95-8.977 9.252-13.008 10.058-1.765.353-5.425.287-7.197-.023-4.454-.778-13.403-4.783-13.557-11.968-.134-6.273-.646-15.414-1.234-25.915v-.002c-1.117-19.943-2.508-44.797-2.11-64.255-15.209-.379-34.52-4.251-40.357-7.357-5.052-2.688-11.53-7.561-13.044-13.357-.555-2.129-.772-5.773-.455-9.763l.153.075c.167.086.34.167.518.245 2.141-3.889 10.395-6.163 19.4-7.54-3.213-1.518-5.748-4.31-6.852-7.838-4.308-13.763-2.695-19.355 9.038-19.355 5.992 0 9.853 1.675 14.246 3.581 5.792 2.514 12.508 5.427 26.248 5.427-6.619 5.838.733 12.824.733 12.824s-1.309 1.005-4.288 2.238l14.659-.925c-2.065-4.957-4.298-12.34-2.35-17.923 1.245-3.58 4.212-6.414 10.052-7.4l77.525-15.279zm-93.308 197.756s7.64 7.181 12.989.16c.983 13.705 4.481 19.834 7.498 25.12 2.288 4.009 4.3 7.534 4.728 13.511.84 11.702-4.623 13.711-18.659 10.399-5.337-1.26-9.285-5.775-9.912-11.223-3.221-28.016 3.356-37.967 3.356-37.967zm144.719-178.88c0-1.058.858-1.915 1.915-1.915h8.098c1.058 0 1.915.857 1.915 1.915v3.736a10.48 10.48 0 014.529 8.635v33.811c0 1.361-.142 2.455-.436 3.332.02.027.03.055.03.083 0 .055-.041.11-.118.163a6.254 6.254 0 01-.058.145c.115.065.176.131.176.2 0 .087-.1.172-.287.254.187.081.287.166.287.254 0 .087-.1.172-.287.254.187.081.287.166.287.254 0 .087-.1.173-.287.254.187.081.287.166.287.254s-.1.173-.287.254c.187.081.287.167.287.254 0 .59-4.516 1.069-10.087 1.069-5.57 0-10.086-.479-10.086-1.069 0-.087.099-.173.286-.254-.187-.081-.286-.166-.286-.254s.099-.173.286-.254c-.187-.081-.286-.167-.286-.254 0-.088.099-.173.286-.254-.187-.082-.286-.167-.286-.254 0-.088.099-.173.286-.254-.187-.082-.286-.167-.286-.254 0-.088.099-.173.286-.254-.187-.082-.286-.167-.286-.254 0-.057.041-.112.12-.166a2.959 2.959 0 01-.051-.131l-.056-.157a.128.128 0 01-.011-.031c-.27-.804-.409-1.77-.409-2.93v-33.811c0-3.58 1.793-6.742 4.529-8.635v-3.736zm81.96 16.404a1.915 1.915 0 00-1.915 1.915v3.756c0 .166.022.328.061.482a10.45 10.45 0 00-1.618 5.601v18.023c0 1.161.14 2.127.41 2.93l.002.009.002.008.006.015c.034.098.069.194.107.288-.079.054-.12.109-.12.165 0 .088.1.173.287.254-.187.082-.287.167-.287.254 0 .088.1.173.287.254-.187.082-.287.167-.287.254 0 .088.1.173.287.254-.187.082-.287.167-.287.254 0 .088.1.173.287.254-.187.082-.287.167-.287.255 0 .087.1.172.287.254-.187.081-.287.166-.287.254 0 .59 4.516 1.068 10.087 1.068 5.57 0 10.086-.478 10.086-1.068 0-.088-.099-.173-.287-.254.188-.082.287-.167.287-.254 0-.088-.099-.173-.287-.255.188-.081.287-.166.287-.254 0-.087-.099-.172-.287-.254.188-.081.287-.166.287-.254 0-.087-.099-.172-.287-.254.188-.081.287-.166.287-.254 0-.068-.06-.135-.176-.2l.019-.046.02-.05.019-.048c.078-.053.118-.108.118-.164a.141.141 0 00-.029-.082c.293-.878.436-1.972.436-3.333v-18.023c0-2.06-.593-3.981-1.618-5.601.04-.154.061-.316.061-.482v-3.756a1.915 1.915 0 00-1.915-1.915h-14.043zm37.924 157.18c8.065 7.005 14.522-.569 14.522-.569s7.95 15.708 4.135 22.532c-2.839.916-7.185 2.674-12.218 4.71l-.002.001-.002.001c-16.25 6.575-39.664 16.049-42.716 9.462-3.148-6.792 10.389-16.805 24.759-27.435h.001c3.884-2.873 7.828-5.791 11.521-8.702zm240.175-138.627h53.992v6.075h9.672v11.898h-73.336v-11.898h9.672v-6.075zm-8.728 30.153h-6.739v5.977h6.739v-5.977zm10.648 109.61l1.148-51.817-1.148-51.817h4.591l-1.148 51.817 1.148 51.817h-4.591zm27.372 0H745.844l1.147-51.817-1.147-51.816 2.295-.001 2.296.001-1.148 51.816 1.148 51.817zm19.337-51.817l-1.148 51.817h4.592l-1.148-51.817 1.148-51.816-2.296-.001-2.296.001 1.148 51.816zm14.091-57.793h12.955v5.977h-12.955v-5.977z" class="Secondary" clip-rule="evenodd"/>
    <path fill="#fff" fill-opacity=".19" fill-rule="evenodd" d="M243.464 347.66c27.437-.077 77.611-11.967 86.677-26.911-3.37-7.965-11.555-13.049-20.468-11.699l-77.525 15.279c-5.839.986-8.807 3.82-10.052 7.4 2.556 9.306 11.335 15.959 21.368 15.931zm-22.116 32.365c-3.732 28.422-5.226 102.932 6.69 108.065 7.553 3.253 11.66-3.952 14.03-12.134 3.848-13.287 4.136-94.708.544-117.893-7.038-2.594-18.252-.973-21.264 21.962z" class="Primary_2" clip-rule="evenodd"/>
    <path fill="#000" fill-opacity=".37" fill-rule="evenodd" d="M221.348 380.025c-3.732 28.422-5.226 102.932 6.69 108.065 7.552 3.253 11.66-3.952 14.03-12.134 1.514-5.228 2.477-21.003 2.869-39.628.227 18.288-.405 35.039-3.384 47.174-1.461 5.95-8.977 9.252-13.008 10.058-1.765.353-5.425.287-7.197-.023-4.454-.778-13.403-4.783-13.557-11.968-.134-6.274-.646-15.414-1.234-25.917-1.107-19.78-2.486-44.391-2.12-63.777-2.751-.273-31.705-3.236-40.347-7.835-5.052-2.688-11.53-7.561-13.044-13.357-.555-2.129-.772-5.773-.455-9.763l.153.075c4.991-5.16 16.553-7.064 29.277-8.455a901.11 901.11 0 003.707-.415c7.557-.857 15.876-1.8 23.039-1.547 12.687.449 22.502 2.138 26.795 4.366a2.16 2.16 0 00-.086.022 80.91 80.91 0 017.187 2.521c-7.002-1.567-16.569 1.624-19.315 22.538zm21.442-20.743c.071.515.14 1.054.208 1.615l.006-.46a2.995 2.995 0 00-.214-1.155z" class="Subtract_3" clip-rule="evenodd"/>
    <path fill="#000" fill-opacity=".18" fill-rule="evenodd" d="M568.823 348.392c-14.102-1.204-24.766-2.185-24.766-2.185a34.654 34.654 0 01-.014-.964l-50.809 2.134a18.577 18.577 0 00-9.167 2.854c-5.691 2.903-9.707 8.692-10.031 15.53l-5.1 107.886c-.48 10.15 7.359 18.767 17.509 19.247 10.15.48 18.767-7.36 19.247-17.51l4.319-91.342 18.393-.773V371.56c0-7.073 3.991-13.213 9.844-16.293a21.17 21.17 0 0110.543-4.346l20.418-2.46-.386-.069zM480.968 501.51c8.065 7.005 14.523-.569 14.523-.569s7.95 15.708 4.135 22.532c-2.84.916-7.186 2.674-12.22 4.711l-.002.001h-.001c-16.249 6.575-39.663 16.049-42.716 9.462-3.147-6.792 10.389-16.805 24.76-27.435 3.884-2.873 7.828-5.791 11.521-8.702z" class="Subtract_4" clip-rule="evenodd"/>
    <path fill="#000" fill-opacity=".47" d="M225.014 351.478c9.154 2.989 18.202 2.825 27.391 2.565 23.378-.662 42.406-8.811 64.158-16.954 9.001-3.37 13.584-16.159 13.584-16.159l-1.767-4.065c4.654 4.713 7.022 19.501-3.408 26.446l-57.186 37.891c-2.83 1.875-7.553 4.203-11.786 4.994l-11.284.496-2.339-28.311-11.153-4.338-6.21-2.565zm30.982-3.818l-.044.003.044-.003z" class="Vector_43"/>
    <path fill="#FFB877" d="M263.019 315.92c-8.125-10.405-20.214-4.553-33.122-1.12-8.639 2.297-7.291 5.447-4.562 11.923 6.324-3.483 11.604-6.087 19.743 3.347 4.743 5.498 27.024-2.519 17.941-14.15z" class="Vector_44"/>
    <path fill="#43FDD0" d="M625.272 129.143a.958.958 0 00-1.889.314l1.889-.314zm10.07 5.211a.958.958 0 00-1.45-1.25l1.45 1.25zm-11.959-4.897c.257 1.544 1.609 4.943 5.126 6.158l.625-1.81c-2.586-.893-3.665-3.478-3.862-4.662l-1.889.314zm5.126 6.158c3.442 1.19 5.931-.215 6.833-1.261l-1.45-1.25c-.42.487-2.099 1.62-4.758.701l-.625 1.81z" class="Vector 20_3"/>
    <circle cx="627.309" cy="122.717" r="1.429" fill="#43FDD0" class="Ellipse 4_3" transform="rotate(27.746 627.309 122.717)"/>
    <circle cx="636.971" cy="126.185" r="1.429" fill="#43FDD0" class="Ellipse 4.1_3" transform="rotate(27.746 636.971 126.185)"/>
    <path fill="#43FDD0" d="M111.856 110.249a.957.957 0 10-1.034 1.611l1.034-1.611zm10.621-3.971a.957.957 0 10-1.9.237l1.9-.237zm-11.655 5.582c1.317.846 4.745 2.123 8.005.331l-.922-1.678c-2.397 1.318-5.038.384-6.049-.264l-1.034 1.611zm8.005.331c3.193-1.755 3.821-4.543 3.65-5.913l-1.9.237c.079.638-.207 2.643-2.672 3.998l.922 1.678z" class="Vector 20_4"/>
    <circle cx="108.458" cy="104.428" r="1.429" fill="#43FDD0" class="Ellipse 4_4" transform="rotate(-20.118 108.458 104.428)"/>
    <circle cx="117.512" cy="99.589" r="1.429" fill="#43FDD0" class="Ellipse 4.1_4" transform="rotate(-20.118 117.512 99.59)"/>
    <path stroke="#FFE0A4" stroke-linecap="round" stroke-width="2.899" d="M477.494 516.563l-11.2-7.021" class="Vector 8.2"/>
    <path stroke="#FFE0A4" stroke-linecap="round" stroke-width="2.899" d="M468.697 519.853l-11.2-7.021" class="Vector 8.3"/>
    <path stroke="#FFE0A4" stroke-linecap="round" stroke-width="2.899" d="M538.867 519.223l18.447-.072" class="Vector 6"/>
    <path stroke="#FFE0A4" stroke-linecap="round" stroke-width="2.899" d="M533.622 527.575h21.023" class="Vector 6.1"/>
    <g class="Group_5">
      <path fill="#FFD18D" fill-rule="evenodd" d="M65.994 542.181c-.192-2.251-6.046-17.429-12.187-25.34-7.465-9.616-15.354-19.777-14.009-21.647 1.443-2.004 7.897.944 13.796 3.64 4.125 1.885 7.978 3.645 9.658 3.502 1.95-.165-.18-6.649-2.66-14.198-2.713-8.266-5.848-17.81-4.511-21.745 1.59-4.683 9.492.353 16.21 4.636 4.08 2.6 7.723 4.923 9.251 4.62 1.837-.364 1.466-5.627 1.062-11.355-.485-6.887-1.017-14.444 2.182-14.965 4.155-.678 9.943 17.82 12.82 27.01.268.86 1.98 7.112 1.665 3.664-.323-3.548-.86-9.428.737-12.631.051-.356.126-.683.227-.979 1.591-4.683 9.492.353 16.209 4.636 4.081 2.6 7.724 4.923 9.252 4.62 1.837-.364 1.466-5.627 1.062-11.355-.484-6.887-1.017-14.444 2.181-14.965 4.157-.678 9.945 17.82 12.82 27.01 1.177 3.763 1.867 5.966 1.755 4.647l-.088-.983c-.452-4.949-1.317-14.432 3.765-14.864 4.355-.372 8.255 21.838 9.661 32.989 1.403-4.994 5.444-13.349 10.386-6.824 4.941 6.525-4.871 38.832-10.395 50.877h-90.85z" class="Vector_45" clip-rule="evenodd"/>
      <path fill="#FFD18D" d="M745.093 473.061c6.691 8.835-6.445 52.648-10.606 65.863-.656 2.084-3.595 3.257-5.779 3.257h-71.787c-1.614 0-4.705-.895-5.652-2.204-7.708-10.663-41.112-55.985-37.665-60.774 3.87-5.38 30.583 11.823 37.028 11.275 6.446-.549-15.359-44.861-11.321-56.746 4.038-11.886 33.813 15.878 40.197 14.613 6.385-1.265-4.13-40.045 5.12-41.554 9.249-1.509 23.619 57.142 23.01 49.98-.61-7.161-2.789-24.289 5.805-25.02 6.875-.585 13.034 34.477 15.254 52.083 2.214-7.884 8.594-21.075 16.396-10.773z" class="Vector_46"/>
    </g>
    <path fill="#F6DCFF" fill-opacity=".17" fill-rule="evenodd" d="M0 0v26.91L11.886 0H0zm22.523 0l-7.328 33.077 24.017 30.427 4.961-22.067-6.595-12.913 2.314-1.527 10.23 12.286.519.623-.019 1.484-.1 8.086 11.93-5.491 1.824-8.21.594 9.214.03.455-.622.54-13.863 12.025-.24 19.382 22.868 28.973 4.924 2.634c3.663-6.457 9.806-12.019 9.806-12.019l5.033-21.996L73.73 58.349l7.477-35.784 3.005.485 1.49 29.306 10.094 9.554 5.864-25.631 6.439-.682-6.981 60.305 14.93-3.829 3.267-7.748-1.068 9.17-.052.453-.709.42-17.38 10.281-.343 2.957-5.913 9.89 39.343 21.05 9.727-13.825c-4.357-20.039-28.718-58.743-28.718-58.743l2.492-34.097-13.521-15.448-18.35-.147-.824-.007-.273-.365-5.53-7.394 6.718 5.06 12.639-3.568-5.327-6.086-.977-1.116-.01-.812L91.216 0H22.523zm74.94 0l20.443 15.32L119.026 0H97.463zm31.271 0l5.896 61.484s.348.355.976 1.006l8.032-18.92-4.172-13.887 2.55-1.087 7.86 13.922.399.706-.284 1.457-1.55 7.938 12.721-3.263 3.268-7.749-1.068 9.171-.053.453-.708.42-15.795 9.343-2.174 11.14c6.104 6.708 13.737 15.494 19.086 23.028l9.865-14.022-1.837-73.229 4.043-.294 7.912 36.446 8.049-5.5L199.388 0h-70.654zm76.116 0l-3.328 43.022-13.966 18.8 1.704 7.851c8.129-10.366 24.47-21.417 24.47-21.417l5.858-37.608 8.661-3.441-3.069 47.33s-25.73 20.117-37.567 38.14L170.895 139.3l29.889-24.68-5.901-18.96-.451-1.447.292-.714 6.043-14.801 2.666.757-2.385 14.28 8.353 13.771 11.67-9.637L242.485 0H204.85zm49.486 0l-5.703 42.061 17.828-13.36 3.367-14.104 2.751.34-.195 15.987-.01.81-.978 1.118-5.326 6.085 12.639 3.568 6.717-5.059-5.529 7.394-.273.365-.824.006-18.35.147-14.512 16.58-6.073 44.791 17.552-6.559 6.973-12.688 2.562 1.057-4.423 15.363-.214.741-1.249.857-26.74 18.334-57.293 53.002 31.205-8.713 3.909-15.791.425-1.713.509-.403 12.54-9.918 1.95 1.97-8.982 11.12 1.844 11.33 14.033-3.919 51.827-47.262 2.005 1.819-43.675 58.399-.921 1.232-2.511 1.028-75.345 30.829 3.464 76.638 10.217-5.652 12.186-27.642 3.864 1.784-9.214 33.586-2.549 3.076c16.712 2.779 34.311.987 52.896-8.511 14.043-7.176 29.429-16.327 45.62-26.033l3.226-1.934.022-.014h.001c30.101-18.053 62.822-37.679 94.771-49.939l-35.344-25.758-26.606-4.202-1.545-.244-.528-.596-10.942-12.357 1.919-2.123 12.132 8.733 9.617-.837-1.545-1.126-.62-1.463-29.371-69.324 2.459-1.329 40.292 60.172 17.743 10.01-.483-16.259-15.144-17.065 1.991-2.056 18.645 15.512.771.642.221 1.682 2.969 22.605 36.379 20.524.325-19.202-57.189-63.585-3.844-9.039-38.39-17.178-18.114 8.236-.774.352-.414-.223-8.393-4.52 8.494 1.818 12.942-10.987-5.953-12.42 2.428-1.515 9.285 11.742 31.193 6.596L302.035 0h-47.699zm58.041 0l24.58 48.6 13.65-32.154-4.308-14.337 2.633-1.122 8.116 14.373.411.73-.293 1.503-1.632 8.204L368.7 22.42l3.374-8-1.103 9.469-.054.467-.732.433-16.379 9.69-6.773 34.041 12.46 24.636 4.898 2.978c3.652-8.733 9.827-16.447 9.827-16.447L379.401 0h-67.024zm76.059 0l4.085 91.294-7.033 17.665.828.503-.44-.405 25.702-21.85 2.316-14.768 2.859.127 1.099 16.47.053.794-.913 1.27-18.501 25.763 15.1 9.18 17.896-35.36c-9.165-21.17-34.241-51.102-34.241-51.102L394.473 0h-6.037zm16.422 0l9.307 42.755s.641.455 1.762 1.273l11.709-27.582-4.307-14.337 2.632-1.122 8.116 14.373.411.73-.293 1.503-1.6 8.196 13.134-3.369 3.374-8L448 23.89l-.054.467-.732.433-16.307 9.647-3.569 18.285c5.231 4.155 11.194 9.147 16.254 14.044l8.19-16.182L455.257 0h-50.399zm60.46 0l10.998 50.665c9.733-8.204 19.361-14.95 19.361-14.95L500.928 0h-35.61zm44.917 0l-2.736 42.2s-21.644 15.968-35.924 32.463l-5.901 20.968 20.715-11.359-2.39-7.679-.465-1.494.301-.736 6.239-15.282 2.753.782-2.462 14.744 3.407 5.617 33.163-18.184L542.203 0h-31.968zm44.782 0l-4.405 35.477 10.849.368 11.3-25.731.702-1.6.908-.393L593.099 0h-38.082zm41.441 0l.713 1.344-18.283 11.61-3.003 21.626 8.878-10.525 2.365 1.612-5.406 9.992 14.411 36.654 10.859 3.655 3.669-19.541-12.131-14.956 1.845-1.753 15.46 13.911.654.59.14 1.546 2.189 24.182 5.783 1.946L610.389 0h-13.931zm21.671 0l24.16 73.52 10.714 8.848 7.667-12.641-1.578-9.447c-8.939-7.96-16.73-13.708-16.73-13.708L639.809 0h-21.68zm26.73 0l8.014 40.807s8.561 5.997 17.215 13.292L681.832 0h-36.973zm43.333 0l3.711 54.026 6.355 12.555c4.457-5.747 9.769-11.813 14.203-16.686l-1.997-10.227-14.499-8.578-.65-.384-.049-.416-.98-8.419 3 7.113 11.678 2.995-1.423-7.286-.261-1.338.366-.648 7.216-12.78 2.341.997-3.83 12.749 7.374 17.37c.576-.598.896-.924.896-.924L738.627 0h-50.435zM749 0l-8.605 44.245s-8.937 14.198-16.522 29.29l1.719-.076 2.059 13.131 22.532 19.156 9.354-6.661-3.527-8.86 3.898-87.102 7.515 2.043 4.861 74.739s.22.274.596.774l31.114-64.308V0H749zm54.994 59.706l-.908 3.105.908-.365v-2.74zm0 16.344l-6.011 4.206-6.392 21.852-23.284 27.668 16.177 5.037 12.196-5.284 1.264 2.209-11.851 8.658-.571.417-1.389-.081-23.576-1.748-17.817 21.171.507 10.797 47.81-26.974 12.937-19.319v-48.61zm0 74.795l-1.039 2.453-.551 1.3-2.013 1.467-10.403 7.581 12.881 4.011 1.125-.487v-16.325zm0 22.75l-.086.063-1.389-.082-23.741-1.76-34.315 25.008 3.013 64.129c30.817 1.165 52.582-1.254 56.518-8.438v-78.92zm-800 97.325c3.703-18.533 19.212-51.745 52.384-45.713l53.109 27.488.009.006c1.504.999 3.017 2.003 4.537 3.008l1.525-57.571-37.17-15.209-25.996 2.208-1.51.129-.634-.439-13.152-9.088 1.313-2.441 13.432 5.404 8.85-3.014-1.713-.701-.921-1.232-43.675-58.399 2.006-1.819 51.826 47.262 29.642 8.277-44.97-34.756-9.698-18.914L2.942 81.893l-1.09-1.052-.088-.766L0 64.627v382.59h3.994V270.92zm52.384-45.713l50.059 25.464c-15.195-10.068-29.548-19.306-43.187-23.719a53.263 53.263 0 00-6.872-1.745zM0 64.179V48.241l12.083 6.502 18.36 35.809-23.018-13.31-4.773-13.67L0 64.18zm0-27.173l3.792 1.569L0 31.179v5.827zM480.199 201.39c-8.716-5.218-17.95-8.472-27.573-10.101l-.068-7.087 75.796-31.014 2.592-1.061.951-1.272 8.862-11.849 21.504-1.172 1.764-.096.549-.498 12.216-11.1-1.677-2.318-12.866 7.287-12.645-3.929 27.385-36.618-2.071-1.878-53.508 48.795-14.488 4.046-1.904-11.697 9.274-11.48-2.014-2.034-12.946 10.239-.526.417-.438 1.768-4.036 16.302-42.035 11.738-.126-13.168.052-.183 64.848-40.862 20.948 6.758 1.51.488.825-.513 12.697-7.895-1.049-2.148-12.547 4.601-12.35-7.614 17.316-10.91 4.571-36.81 27.206-5.699 1.86-.39.553-1.022 1.303-2.408 11.276 36.575.313 1.016 1.268.685 37.285 20.131 49.849 47.818-25.835-7.214-3.589-14.496-.39-1.572-.468-.371-11.511-9.104-1.79 1.808 8.246 10.209-1.693 10.4-12.934-3.611-30.208-28.119-1.936 1.559 22.581 38.129.785 1.326 2.655 1.086 49.567 20.522-12.985 8.186-11.383-5.709-1.385 2.134 11.347 9.308.972.798 1.842-.606 25.444-8.375 10.193 4.219-1.994 43.955-25.097-.61-10.97-9.688-1.87 1.725 9.537 12.741.21.282 1.268.577-8.726 1.813-16.097-11.982-1.669 1.921 15.165 15.333.627.634 1.507.068 29.16 1.302 6.188 2.817-.9 19.829c-77.248-9.291-173.371-30.997-213.57-55.062zm259.347-88.069l-16.709-23.268-.811-1.13.047-.705.852-12.776c-3.962 8.05-7.42 16.194-8.829 22.435l12.488 24.675 12.962-9.231zm-53.089-3.329l-25.545-21.092 5.418-17.406.414-1.328-.268-.655-1.584-3.88c3.709 3.552 7.374 7.345 10.548 11.142l11.017 33.219z" class="Subtract_5" clip-rule="evenodd"/>
  </g>
  <defs>
    <clipPath id="clip0" class="clip0">
      <path fill="#fff" d="M0 0h800v600H0z"/>
    </clipPath>
  </defs>
</svg>
