<svg xmlns="http://www.w3.org/2000/svg" width="800" height="600" fill="none" viewBox="0 0 800 600">
  <g clip-path="url(#clip0)">
    <path fill="#fff" d="M0 0h800v600H0z"/>
    <path fill="#CEE2FF" fill-rule="evenodd" d="M465.798 61.164c-4.756 0-9.28.995-13.374 2.789-5.126-11.834-16.91-20.113-30.628-20.113-9.769 0-18.557 4.199-24.659 10.89-6.035-4.903-13.835-7.859-22.352-7.859-11.872 0-22.349 5.742-28.598 14.497-4.703-2.295-10.023-3.588-15.657-3.588-19.147 0-34.669 14.937-34.669 33.362v.105c-9.582 5.936-15.929 16.291-15.929 28.073 0 7.788 2.773 14.952 7.421 20.629-6.74 6.086-10.951 14.736-10.951 24.332 0 11.835 6.404 22.231 16.06 28.153a32.237 32.237 0 00-4.411 16.298c0 18.045 14.888 32.744 33.489 33.343 2.165 5.659 5.878 10.597 10.645 14.339-17.03 8.106-33.828 17.017-49.88 25.532h-.001c-17.358 9.208-33.843 17.953-48.801 24.714-18.729 8.466-36.455 10-53.281 7.449l2.196-2.649 8.138-29.664-3.412-1.576-10.764 24.415-9.024 4.992-2.383-52.732c4.678-2.496 8.651-5.897 11.597-9.925 5.196 2.54 11.189 3.987 17.57 3.987 19.455 0 35.302-13.457 35.947-30.27 13.742-4.408 23.543-15.916 23.543-29.418 0-6.199-2.066-11.978-5.631-16.842 3.565-4.864 5.631-10.642 5.631-16.841 0-17.308-16.103-31.338-35.968-31.338-.303 0-.606.003-.908.01.594-2.26.908-4.614.908-7.031 0-5.32-1.521-10.33-4.206-14.719-1.817-11.289-11.605-19.912-23.407-19.912-.201 0-.4.003-.599.007.392-1.71.599-3.49.599-5.318 0-13.095-10.616-23.71-23.71-23.71a23.638 23.638 0 00-16.777 6.955c-3.19-9.327-12.031-16.033-22.439-16.033-11.702 0-21.423 8.476-23.359 19.624a23.668 23.668 0 00-8.232-1.468c-13.095 0-23.71 10.615-23.71 23.71 0 3.38.707 6.595 1.982 9.505a23.666 23.666 0 00-4.079 2.269c-17.712 1.951-31.41 15.126-31.41 31.089 0 4.467 1.074 8.717 3.007 12.563-12.758 4.815-21.683 15.884-21.683 28.769 0 10.731 6.19 20.202 15.629 25.85-2.474 4.251-3.868 9.06-3.868 14.152 0 17.307 16.103 31.338 35.967 31.338h.113c6.4 8.661 17.563 14.398 30.265 14.398 8.135 0 15.64-2.354 21.666-6.322l-.991 37.424c-4.046-2.314-8.033-4.655-11.964-6.963-16.305-9.574-31.644-18.58-46.172-22.737-37.872-10.838-55.23 21.373-59.175 38.834v159.204h112.853l-.193 7.301h60.612l-.33-7.301h144.117l18.104 10.365a9.98 9.98 0 006.069 1.258l17.723-1.976a9.993 9.993 0 006.111-3.025l6.332-6.622H800V282.275c-6.161 9.945-56.055 9.553-115.939 2.836 6.998-2.699 12.904-7.038 17.013-12.429 5.777 2.71 12.44 4.255 19.535 4.255 21.629 0 39.247-14.358 39.965-32.296 15.277-4.702 26.174-16.979 26.174-31.385 0-6.613-2.297-12.778-6.26-17.968 3.963-5.189 6.26-11.354 6.26-17.967 0-18.199-17.391-33.002-39.035-33.425a28.374 28.374 0 001.944-10.357c0-15.711-12.737-28.448-28.449-28.448l-.362.002-.331-.103c.454-2.018.693-4.117.693-6.272 0-15.712-12.736-28.448-28.448-28.448-7.862 0-14.98 3.19-20.129 8.345-3.827-11.19-14.436-19.237-26.924-19.237-14.039 0-25.704 10.17-28.027 23.545a28.393 28.393 0 00-9.877-1.761c-15.711 0-28.448 12.736-28.448 28.448 0 2.306.274 4.549.793 6.696-18.645 2.838-32.781 16.485-32.781 32.892 0 4.766 1.193 9.3 3.342 13.403-14.183 5.137-24.106 16.946-24.106 30.693 0 11.448 6.882 21.552 17.376 27.578-2.75 4.536-4.301 9.666-4.301 15.099 0 11.422 6.85 21.505 17.302 27.536-33.458-7.858-62.437-16.916-80.325-26.388a82.19 82.19 0 00-6.217-2.964 33.51 33.51 0 00.65-7.478c2.406.551 4.911.842 7.484.842 18.425 0 33.362-14.936 33.362-33.362 0-9.22-3.741-17.567-9.787-23.605 13.124-4.489 22.56-16.93 22.56-31.575 0-16.465-11.927-30.143-27.612-32.868a33.291 33.291 0 002.065-11.583c0-18.425-14.936-33.362-33.362-33.362zm170.567 217.565l.582.09.02-.45c-.199.122-.4.242-.602.36zM294.01 350.864c1.853-3.166 5.294-5.875 8.736-7.303 2.598-1.078 4.671-2.766 6.327-4.822-1.656 2.056-3.729 3.743-6.327 4.821-3.442 1.429-6.883 4.137-8.736 7.304zm22.625-41.221c3.029-7.259 14.133-8.345 17.921-.215.653 2.163 1.235 4.178 1.777 6.051v-.001c-.542-1.873-1.124-3.887-1.777-6.05-3.788-8.131-14.892-7.044-17.921.215zm24.391 19.358c2.905 5.537 7.095 7.995 16.504 8.448 4.173-.935 7.922.795 10.129 3.696-2.207-2.901-5.956-4.631-10.129-3.696-9.409-.453-13.599-2.912-16.504-8.448zm22.159 32.513l5.259-9.471m52.845 102.2zm0 0h-45.443 45.443zm-48.785-45.147z" class="Secondary" clip-rule="evenodd"/>
    <g class="Group 2">
      <path fill="#fff" fill-opacity=".31" fill-rule="evenodd" d="M332.185 256.414c-17.03 8.106-33.829 17.017-49.881 25.532-17.358 9.208-33.843 17.953-48.801 24.714-18.729 8.466-36.455 10-53.281 7.449l-12.008 14.487 5.837 129.14h144.117l-18.789-10.757c-7.234-4.143-6.508-14.803 1.221-17.927l.908-.367c7.377-2.982 8.475-12.972 1.921-17.484l-8.866-6.105c-7.037-4.845-5.136-15.716 3.128-17.885l.907-.238c7.217-1.895 9.883-10.748 4.912-16.313l-8.703-9.743c-5.826-6.522 1.055-14.5 7.939-17.357 11.98-4.97 12.79-22.907 13.116-30.117l.014-.321c.466-10.24 14.351-12.986 18.68-3.694.653 2.163 1.235 4.177 1.777 6.05 4.449 15.387 6.143 21.245 21.197 21.971 8.411-1.885 15.099 7.057 10.914 14.593l-5.259 9.472c-3.938 7.093 1.776 15.673 9.839 14.773l.034-.003 1.966-116.295a34.67 34.67 0 01-2.307-1.3c-5.381 3.307-11.774 5.223-18.632 5.223-8.306 0-15.93-2.811-21.9-7.498zm40.322 201.322H800V282.275c-6.161 9.945-56.055 9.553-115.939 2.836l-.114.044 7.904 168.222h-62.82l7.916-174.558-.583-.09c-6.491 3.804-14.396 6.037-22.925 6.037-14.122 0-26.534-6.121-33.649-15.362h-.124c-8.424 0-16.239-2.177-22.685-5.896-33.459-7.859-62.438-16.917-80.326-26.389a82.19 82.19 0 00-6.217-2.964c-2.909 14.415-15.111 25.462-30.084 26.624l-.283 1.537-.117.634-.97.816-19.361 15.777 1.666 174.7h-45.443l-3.339 3.493zm-258.545 0l4.458-168.338c-4.046-2.314-8.033-4.655-11.964-6.963-16.305-9.574-31.644-18.58-46.172-22.737-37.872-10.838-55.23 21.373-59.175 38.834v159.204h112.853zm319.542-197.121l-13.996 6.862-.111-11.562c.137-.085.274-.17.409-.257a33.176 33.176 0 0013.698 4.957zm-60.956 145.898a9.853 9.853 0 00-.044 2.583l.044-2.583z" class="Subtract" clip-rule="evenodd"/>
      <path fill="#80B2FF" d="M635.51 457.065l-7.698-55.487c-.154-1.109-1.748-1.132-1.934-.028l-9.973 40.358-9.33-27.133c-.243-1.032-1.724-.995-1.915.048l-6.055 26.932-10.151-40.725c-.169-1.118-1.784-1.106-1.937.014l-7.653 56.021-6.043-73.893c-.095-1.16-1.772-1.215-1.943-.065l-10.121 60.945-6.762-35.924c-.13-1.087-1.675-1.172-1.924-.106l-11.481 49.043-16.344-82.004c-.223-1.118-1.854-1.016-1.936.121l-6.224 59.228-9.132-42.703c-.162-1.116-1.771-1.119-1.937-.005l-9.743 65.363-13.166-87.43c-.175-1.164-1.877-1.085-1.944.089l-5.093 88.772v6.53H635.51v-6.53" class="Vector"/>
      <path fill="#80B2FF" d="M608.897 457.065l7.697-55.487c.154-1.109 1.749-1.132 1.935-.028l9.973 40.358 9.329-27.133c.243-1.032 1.724-.995 1.915.048l6.056 26.932 10.15-40.725c.169-1.118 1.784-1.106 1.937.014l7.653 56.021 6.044-73.893c.094-1.16 1.772-1.215 1.943-.065l10.121 60.945 6.761-35.924c.131-1.087 1.675-1.172 1.924-.106l11.481 49.043 16.345-82.004c.222-1.118 1.853-1.016 1.935.121l6.224 59.228 9.133-42.703c.161-1.116 1.77-1.119 1.936-.005l9.744 65.363 13.165-87.43c.175-1.164 1.877-1.085 1.945.089l5.092 88.772v6.53H608.897v-6.53" class="Vector_2"/>
      <path fill="#80B2FF" d="M775.72 464.589l7.698-55.486c.154-1.109 1.748-1.132 1.934-.028l9.974 40.358 4.664-13.567-.111 36.626s-15.649.058-24.159.058v-6.53" class="Vector_3"/>
      <path fill="#80B2FF" d="M477.23 457.065l-7.698-55.487c-.153-1.109-1.748-1.132-1.934-.028l-9.352 55.515-9.95-42.29c-.243-1.032-1.724-.995-1.915.048l-8.221 28.004-7.985-41.797c-.169-1.118-1.784-1.106-1.937.014l-7.653 56.021-6.044-73.893c-.094-1.16-1.772-1.215-1.943-.065l-10.997 73.958-5.885-48.937c-.131-1.087-1.675-1.172-1.924-.106l-11.481 49.043-16.345-82.004c-.223-1.118-1.853-1.016-1.935.121l-6.4 69.941-8.957-53.416c-.161-1.116-1.77-1.119-1.936-.005l-9.744 65.363-13.165-87.43c-.175-1.164-1.877-1.085-1.945.089l-5.092 88.772v6.53H477.23v-6.53" class="Vector_4"/>
      <path fill="#80B2FF" d="M318.952 457.065l-7.698-55.487c-.154-1.109-1.748-1.132-1.934-.028l-9.661 47.452-9.642-34.227c-.242-1.032-1.724-.995-1.915.048l-7.171 33.362-9.034-47.155c-.169-1.118-1.784-1.106-1.938.014l-8.327 47.775-5.369-65.647c-.095-1.16-1.772-1.215-1.943-.065l-11.889 66.54-4.993-41.519c-.131-1.087-1.675-1.172-1.925-.106l-13.132 40.758-14.693-73.719c-.223-1.118-1.854-1.016-1.936.121l-5.909 81.883-9.447-65.358c-.161-1.116-1.77-1.119-1.936-.005l-9.744 65.363-13.166-87.43c-.175-1.164-1.877-1.085-1.944.089l-5.092 88.772v6.53h160.438v-7.961z" class="Vector_5"/>
      <path fill="#80B2FF" d="M160.673 457.065l-7.698-55.487c-.154-1.109-1.748-1.132-1.934-.028l-10.529 50.514-8.774-37.289c-.243-1.032-1.724-.995-1.915.048l-8.266 30.3-7.94-44.093c-.169-1.118-1.784-1.106-1.937.014l-8.143 50.034-5.553-67.906c-.095-1.16-1.772-1.215-1.943-.065l-12.215 63.838-4.668-38.817c-.13-1.087-1.674-1.172-1.924-.106l-13.333 39.751-14.492-72.712c-.223-1.118-1.854-1.016-1.936.121l-5.909 81.883-9.447-65.358c-.162-1.116-1.77-1.119-1.937-.005l-9.743 65.363-13.166-87.43c-.175-1.164-1.877-1.085-1.944.089L.234 458.496v6.53h160.439v-6.53" class="Vector_6"/>
      <g class="Group">
        <path fill="#C7DDFF" fill-rule="evenodd" d="M655.802 445.726l5.887-42.436c.162-1.167 1.84-1.192 2.035-.03l11.078 53.152 9.233-39.237c.255-1.086 1.814-1.047 2.015.05l8.697 31.883 8.355-46.395c.177-1.176 1.877-1.164 2.038.014l8.568 52.647 5.843-71.452c.1-1.22 1.865-1.278 2.045-.068l12.852 67.171 4.912-40.844c.137-1.143 1.762-1.233 2.024-.112l14.029 41.827 15.249-76.508c.235-1.177 1.951-1.07 2.037.127l6.218 86.158 9.94-68.77c.17-1.174 1.863-1.178 2.038-.005l9.301 68.775v8.377H800v9.86H16.521l-2.339.164h-27.119l1.297-16.895v-1.506l8.1-58.383c.162-1.167 1.84-1.192 2.035-.03l10.494 42.465 9.816-28.55c.256-1.086 1.814-1.047 2.015.05l6.372 28.339 10.68-42.851c.178-1.176 1.877-1.164 2.038.014l8.053 58.946 6.359-77.751c.1-1.22 1.865-1.278 2.045-.068l10.649 64.127 7.114-37.8c.138-1.143 1.763-1.233 2.025-.112l12.08 51.604 17.198-86.285c.235-1.177 1.951-1.07 2.037.127l6.549 62.32 9.609-44.933c.17-1.173 1.863-1.177 2.037-.004l10.253 68.775 13.853-91.995c.184-1.224 1.975-1.141 2.046.095l4.632 80.753 6.553-47.236c.162-1.167 1.84-1.192 2.036-.03l9.84 58.413 10.47-44.498c.255-1.086 1.814-1.047 2.015.05l8.65 29.467 8.402-43.979c.178-1.176 1.877-1.164 2.038.014l8.053 58.946 6.359-77.751c.099-1.22 1.864-1.278 2.044-.068l11.572 77.819 6.192-51.492c.137-1.143 1.762-1.233 2.025-.112l12.08 51.604 17.198-86.285c.234-1.177 1.95-1.07 2.036.127l6.734 73.593 9.425-56.205c.169-1.174 1.862-1.178 2.037-.005l10.252 68.775 13.853-91.995c.185-1.224 1.976-1.141 2.046.095l4.633 80.753 6.553-47.236c.162-1.167 1.84-1.192 2.035-.03l10.165 49.929 10.146-36.014c.255-1.086 1.814-1.047 2.015.05l7.546 35.105 9.506-49.617c.177-1.177 1.877-1.164 2.038.014l8.762 50.27 5.649-69.075c.1-1.22 1.865-1.278 2.045-.068l12.51 70.014 5.254-43.687c.137-1.143 1.762-1.233 2.024-.112l13.818 42.887 15.46-77.568c.235-1.177 1.951-1.07 2.037.127l6.218 86.158 9.94-68.771c.17-1.173 1.863-1.177 2.038-.004l10.252 68.775 13.853-91.995c.184-1.224 1.975-1.141 2.046.095l4.632 80.753 6.554-47.236c.162-1.167 1.839-1.192 2.035-.03l11.078 53.152 9.232-39.237c.256-1.086 1.815-1.047 2.015.05l8.698 31.883 8.354-46.395c.178-1.176 1.877-1.164 2.038.014l8.568 52.647 5.844-71.452c.1-1.22 1.865-1.278 2.045-.068l12.852 67.171 4.911-40.844c.138-1.143 1.763-1.233 2.025-.112l14.029 41.827 15.249-76.508c.235-1.177 1.951-1.07 2.037.127l6.217 86.158 9.941-68.77c.17-1.174 1.863-1.178 2.037-.005l10.253 68.775 13.853-91.995c.184-1.224 1.975-1.141 2.046.095l4.357 75.953z" class="Union" clip-rule="evenodd"/>
      </g>
    </g>
    <path fill="#8FBCFF" d="M800 489.171H0v14.883h800v-14.883z" class="Vector_7"/>
    <path fill="#8FBCFF" d="M159.943 459.386c4.364 5.764-4.302 28.482-9.181 39.121-13.623 1.16-40.943 2.597-41.243-.929-.375-4.407-25.302-31.746-23.137-34.755 2.166-3.01 17.11 6.614 20.716 6.308 3.606-.308-8.594-25.097-6.335-31.746 2.26-6.65 18.917 8.882 22.489 8.175 3.572-.708-2.31-22.403 2.864-23.248 5.175-.844 13.214 31.969 12.873 27.962-.341-4.007-1.56-13.589 3.248-13.998 3.846-.328 7.291 19.289 8.533 29.137 1.239-4.41 4.808-11.789 9.173-6.027z" class="Vector_8"/>
    <g class="Group 4">
      <path fill="#8FBCFF" d="M757.391 416.082h-63.106v128.577h63.106V416.082z" class="Vector_9"/>
      <path fill="#2A71C4" d="M758.224 410.636h-64.773v10.508h64.773v-10.508z" class="Vector_10"/>
      <path fill="#2A71C4" d="M749.682 405.271h-47.688v10.508h47.688v-10.508z" class="Vector_11"/>
      <g class="Group 3">
        <g class="Group 2_2">
          <g class="Group_2">
            <path fill="#679EE7" d="M705.717 437.182l2.028 91.532h-4.056l2.028-91.532z" class="Polygon"/>
          </g>
          <g class="Group_3">
            <path fill="#679EE7" d="M725.838 437.182l2.028 91.533h-4.055l2.027-91.533z" class="Polygon_2"/>
          </g>
          <g class="Group_4">
            <path fill="#679EE7" d="M745.958 437.182l2.028 91.533h-4.055l2.027-91.533z" class="Polygon_3"/>
          </g>
        </g>
        <g class="Group 2.1">
          <g class="Group_5">
            <path fill="#679EE7" d="M705.717 528.714l2.028-91.533h-4.056l2.028 91.533z" class="Polygon_4"/>
          </g>
          <g class="Group_6">
            <path fill="#679EE7" d="M725.838 528.714l2.028-91.532h-4.055l2.027 91.532z" class="Polygon_5"/>
          </g>
          <g class="Group_7">
            <path fill="#679EE7" d="M745.958 528.714l2.028-91.532h-4.055l2.027 91.532z" class="Polygon_6"/>
          </g>
        </g>
      </g>
      <path fill="#679EE7" d="M682.843 431.903h11.442v5.279h-11.442z" class="Rectangle"/>
      <path fill="#679EE7" d="M757.391 431.903h11.442v5.279h-11.442z" class="Rectangle_2"/>
    </g>
    <path fill="#2A71C4" fill-opacity=".2" d="M180.767 546.719c1.051-.333 13.269-.023 14.369-.069 109.866-4.642 168.675-8.965 221.569-8.668 61.108.343 114.322 5.729 229.254 5.733.25 0 .512.031.755.092 3.407.852 12.835 5.574 9.328 5.772-125.137 7.113-168.155 6.888-240.545 6.341-50.894-.386-115.695.744-236.402-3.099-4.129-.131-2.838-4.675 1.672-6.102z" class="Vector_12"/>
    <path fill="#E3E0E0" d="M559.804 301.616c-7.319-.907-4.144 8.068-5.805 13.817l-34.672-1.942-3.355-18.334c5.225-2.392 35.606-3.095 48.985-1.772.58 1.538 2.166 9.138-5.153 8.231z" class="Vector 14"/>
    <path fill="#D69962" fill-rule="evenodd" d="M278.508 295.081c2.149-4.519 5.022-5.499 9.542-3.35l43.202 16.797c13.286-4.602 26.863-4.831 41.088-9.833 4.388-.665 15.044.114 19.201 1.093 4.871 1.146-.347 3.869-1.493 8.74a9.06 9.06 0 01-10.895 6.744c.02.005-.129-.03-.503-.055-.361-.025-.85-.034-1.48-.012-1.272.043-2.887-5.694-4.83-5.4-15.747 2.389-30.271 14.657-45.148 20.024l-40.186-14.125c-4.519-2.148-10.646-16.104-8.498-20.623z" class="Vector_13" clip-rule="evenodd"/>
    <path fill="#CFA844" d="M221.123 282.661h-24.261v143.997h24.261V282.661z" class="Vector_14"/>
    <path fill="#28DDB1" d="M286.923 288.002c-8.003-2.787-16.749 1.441-19.535 9.444-2.787 8.003 1.442 16.749 9.445 19.535l10.09-28.979zm-10.09 28.979l33.87 11.794 10.09-28.981-33.87-11.792-10.09 28.979z" class="Vector_15"/>
    <path fill="#CFA844" d="M630.421 282.661H606.16v143.997h24.261V282.661z" class="Vector_16"/>
    <path fill="#F3D483" d="M668.768 368.347H158.515v16.435h510.253v-16.435z" class="Vector_17"/>
    <path stroke="#D69962" stroke-linecap="round" stroke-width="17.314" d="M556.754 305.776h-52.992a.807.807 0 01-.602-1.345l29.062-32.584" class="Vector 3.3"/>
    <path fill="#F3D483" d="M668.768 338.992H158.515v16.434h510.253v-16.434z" class="Vector_18"/>
    <path fill="#E3E0E0" d="M525.39 293.384c6.696-.68 21.745 1.843 21.745 1.843-2.775 6.206-2.357 6.818-4.83 19.109l-25.267-1.051c-3.657-6.205-1.891-10.587 8.352-19.901z" class="Vector 14.2"/>
    <path fill="#F3D483" d="M668.768 309.636H158.515v16.435h510.253v-16.435z" class="Vector_19"/>
    <path fill="#CFA844" d="M199.073 447.79h-17.218v100.955h17.218V447.79z" class="Vector_20"/>
    <path fill="#CFA844" d="M645.427 447.79H628.21v100.955h17.217V447.79z" class="Vector_21"/>
    <path fill="#F3D483" d="M668.767 415.901H158.514v36.652h510.253v-36.652z" class="Vector_22"/>
    <path fill="#D69962" d="M406.526 303.741c-10.177-4.521-21.653-6.241-32.542-3.345-7.287 1.938-9.157 1.968-6.855 7.429l10.339 3.39s35.279 1.459 36.854 0c1.574-1.459 2.381-2.953-7.796-7.474z" class="Vector_23"/>
    <g class="Group_8">
      <path fill="#CFA844" d="M208.992 320.239a2.386 2.386 0 100-4.771 2.386 2.386 0 000 4.771z" class="Vector_24"/>
      <path fill="#CFA844" d="M208.992 349.594a2.386 2.386 0 100-4.771 2.386 2.386 0 000 4.771z" class="Vector_25"/>
      <path fill="#CFA844" d="M208.992 378.95a2.386 2.386 0 100-4.773 2.386 2.386 0 000 4.773z" class="Vector_26"/>
    </g>
    <g class="Group_9">
      <path fill="#CFA844" d="M618.29 320.239a2.386 2.386 0 100-4.771 2.386 2.386 0 000 4.771z" class="Vector_27"/>
      <path fill="#CFA844" d="M618.29 349.594a2.386 2.386 0 100-4.771 2.386 2.386 0 000 4.771z" class="Vector_28"/>
      <path fill="#CFA844" d="M618.29 378.95a2.386 2.386 0 100-4.773 2.386 2.386 0 000 4.773z" class="Vector_29"/>
    </g>
    <path fill="#FFB877" fill-rule="evenodd" d="M486.582 496.422c-2.923-.145-5.408 2.124-5.55 5.067l-1.789 19.482c-.057 5.018 4.285 7.062 7.208 7.207 2.923.144 4.247-7.065 4.389-10.008l.778-16.158c.142-2.943-2.113-5.446-5.036-5.59z" class="Vector 3.2 (Stroke)" clip-rule="evenodd"/>
    <g class="Group_10">
      <path fill="#174B88" d="M491.469 518.495s-5.447 6.39-12.25.48c-14.641 11.544-33.977 23.206-30.605 30.484 3.373 7.277 36.215-8.689 46.343-11.957 3.218-5.756-3.488-19.007-3.488-19.007z" class="Rectangle 7.3"/>
      <path stroke="#B7D0F3" stroke-linecap="round" stroke-width="2.446" d="M476.288 531.674l-9.447-5.922" class="Vector 8.2"/>
      <path stroke="#B7D0F3" stroke-linecap="round" stroke-width="2.446" d="M468.868 534.448l-9.447-5.922" class="Vector 8.3"/>
    </g>
    <path fill="#F8F8F8" d="M540.707 315.022c2.194-13.837 5.008-22.691 18.497-26.476 9.054-2.541 18.36-4.374 22.024-2.542 13.194 6.598 35.911 52.435 24.111 105.704h-68.427c0-25.269-.174-51.663 3.795-76.686z" class="Rectangle 2"/>
    <path stroke="#FFB877" stroke-linecap="round" stroke-width="10.498" d="M535.569 504.489l2.458 26.399" class="Vector 3.2"/>
    <path fill="#F8F8F8" d="M575.505 350.968s39.108-17.945 32.056 42.553c-14.781 0-75.125-5.55-75.125-5.55-.845-29.77 43.069-37.003 43.069-37.003z" class="Rectangle 2.1"/>
    <g class="Group 7">
      <path fill="#FFB877" d="M560.296 241.019l-39.389 1.786s6.425 20.459 6.899 37.511c17.631 6.443 35.62-20.119 35.62-20.119l-3.13-19.178z" class="Union_2"/>
      <path stroke="#4F7793" stroke-linecap="round" stroke-width="1.516" d="M525.659 257.714c.173 4.251-3.414 6.793-2.692 7.789.722.996 4.069 1.424 4.069 1.424" class="Vector 2"/>
      <path fill="#FFB877" d="M577.285 293.232c-4.773-6.626-16.667-13.907-17.983-33.407l-9.573 12.46c-2.414 2.564-6.494-.117-4.282 1.404 2.213 1.521 4.276 23.812 1.644 26.849l7.799-2.277c5.344.369 27.167 1.597 22.395-5.029z" class="Vector 2_2"/>
      <path fill="#4F7793" d="M553.064 273.234L546.497 277s1.741 9.346 1.653 11.484l4.914-15.25z" class="Vector_30"/>
      <path stroke="#4F7793" stroke-width="1.516" d="M532.05 269.089c-.128 1.073-1.426 3.56-4.76 3.931" class="Vector 5"/>
    </g>
    <g class="Group 10">
      <path stroke="#4F7793" stroke-linecap="round" stroke-width=".722" d="M538.618 362.885l3.195 1.763" class="Vector 9"/>
      <path stroke="#4F7793" stroke-linecap="round" stroke-width=".722" d="M539.5 361.289l3.194 1.762" class="Vector 9.1"/>
    </g>
    <path fill="#559ED2" d="M584.532 355.611l5.057 3.416-5.487 2.671.43-6.087z" class="Polygon_7"/>
    <path fill="#559ED2" d="M545.156 327.544l-5.259-3.096 5.311-3.007-.052 6.103z" class="Polygon_8"/>
    <path fill="#559ED2" d="M532.26 307.957l-3.953-2.762 4.368-2.042-.415 4.804z" class="Polygon_9"/>
    <path fill="#559ED2" d="M536.881 299.588l1.003-4.716 3.583 3.227-4.586 1.489z" class="Polygon_10"/>
    <g class="Group 9.6">
      <path stroke="#4F7793" stroke-linecap="round" stroke-width=".722" d="M595.657 348.466l2.699 2.456" class="Vector 9.2"/>
      <path stroke="#4F7793" stroke-linecap="round" stroke-width=".722" d="M596.885 347.117l2.698 2.455" class="Vector 9.3"/>
    </g>
    <g class="Group 9.2">
      <path stroke="#4F7793" stroke-linecap="round" stroke-width=".722" d="M525.363 299.506l3.633-.342" class="Vector 9.2_2"/>
      <path stroke="#4F7793" stroke-linecap="round" stroke-width=".722" d="M525.192 297.69l3.633-.342" class="Vector 9.3_2"/>
    </g>
    <g class="Group 9.3">
      <path stroke="#3F6580" stroke-linecap="round" stroke-width=".722" d="M540.078 337.626l2.72 2.475" class="Vector 9.2_3"/>
      <path stroke="#3F6580" stroke-linecap="round" stroke-width=".722" d="M541.315 336.266l2.72 2.474" class="Vector 9.3_3"/>
    </g>
    <g class="Group 9.10">
      <path stroke="#3F6580" stroke-linecap="round" stroke-width=".722" d="M555.395 327.39l2.719 2.474" class="Vector 9.2_4"/>
      <path stroke="#3F6580" stroke-linecap="round" stroke-width=".722" d="M556.632 326.029l2.719 2.475" class="Vector 9.3_4"/>
    </g>
    <g class="Group 9.9">
      <path stroke="#3F6580" stroke-linecap="round" stroke-width=".722" d="M544.806 307.889l2.719 2.474" class="Vector 9.2_5"/>
      <path stroke="#3F6580" stroke-linecap="round" stroke-width=".722" d="M546.043 306.528l2.72 2.475" class="Vector 9.3_5"/>
    </g>
    <path fill="#559ED2" d="M547.358 347.351l4.255 4.376-5.917 1.496 1.662-5.872z" class="Polygon_11"/>
    <path fill="#559ED2" d="M555.687 368.258l-.295 6.096-5.132-3.303 5.427-2.793z" class="Polygon_12"/>
    <path fill="#FFB877" fill-rule="evenodd" d="M563.515 319.225l-2.336 50.377-50.81 8.925c-4.361 0-1.788 5.894 5.148 10.219l54.11-1.816a9.87 9.87 0 008.758-8.634l8.09-41.001c2.571-21.353-21.521-30.02-22.96-18.07z" class="Vector 3.4 (Stroke)" clip-rule="evenodd"/>
    <g class="Group 14">
      <g class="Group 13">
        <path fill="#F3F2F2" d="M559.005 314.685c.664-8.829 8.36-15.448 17.189-14.785 8.829.664 15.449 8.36 14.785 17.189l-31.974-2.404zm31.974 2.404l-2.381 31.667-31.973-2.404 2.38-31.667 31.974 2.404z" class="Vector 10"/>
        <path fill="#559ED2" d="M558.158 340.066l4.583 3.161.446-5.549-5.029 2.388z" class="Polygon_13"/>
        <path fill="#559ED2" d="M577.782 331.151l4.583 3.162.446-5.55-5.029 2.388z" class="Polygon_14"/>
        <g class="Group 9.5">
          <path stroke="#4F7793" stroke-linecap="round" stroke-width=".943" d="M581.439 341.159l2.203 4.227" class="Vector 9.2_6"/>
          <path stroke="#4F7793" stroke-linecap="round" stroke-width=".943" d="M579.326 342.26l2.202 4.228" class="Vector 9.3_6"/>
        </g>
        <g class="Group 9.11">
          <path stroke="#4F7793" stroke-linecap="round" stroke-width=".943" d="M572.675 321.581l2.202 4.227" class="Vector 9.2_7"/>
          <path stroke="#4F7793" stroke-linecap="round" stroke-width=".943" d="M570.562 322.682l2.202 4.227" class="Vector 9.3_7"/>
        </g>
        <g class="Group 9.10_2">
          <path stroke="#4F7793" stroke-linecap="round" stroke-width=".943" d="M576.963 303.242l.311 4.757" class="Vector 9.2_8"/>
          <path stroke="#4F7793" stroke-linecap="round" stroke-width=".943" d="M574.585 303.399l.311 4.756" class="Vector 9.3_8"/>
        </g>
      </g>
      <path fill="#559ED2" d="M562.259 311.904l2.327 5.058 3.217-4.544-5.544-.514z" class="Polygon_15"/>
    </g>
    <g class="Group 9.7">
      <path stroke="#4F7793" stroke-linecap="round" stroke-width=".722" d="M592.68 371.846l2.025 3.035" class="Vector 9.2_9"/>
      <path stroke="#4F7793" stroke-linecap="round" stroke-width=".722" d="M594.196 370.833l2.026 3.035" class="Vector 9.3_9"/>
    </g>
    <path fill="#559ED2" d="M604.891 361.727l1.445 4.009-4.194-.754 2.749-3.255z" class="Polygon_16"/>
    <path fill="#559ED2" d="M557.097 303.965l1.445 4.009-4.194-.753 2.749-3.256z" class="Polygon_17"/>
    <path fill="#FFB877" d="M484.415 384.547c8.411-7.297 21.702-10.647 30.906-4.149 3.45 2.435 5.703 3.778 3.994 6.559-3.065 4.99-13.719 3.525-22.876 1.982-6.04-1.018-21.427 3.766-12.024-4.392z" class="Vector 2.11"/>
    <path fill="#fff" d="M571.533 287.757c-7.206-2.062-16.284 2.487-26.169 5.21-1.672.458-2.599 11.67-.487 9.037 2.113-2.632 31.766-2.851 30.97-4.085-.795-1.233 2.541-8.201-4.314-10.162z" class="Vector 9_2"/>
    <ellipse cx="453.151" cy="417.34" fill="#2A71C4" fill-opacity=".2" class="Ellipse 2" rx="11.887" ry=".898"/>
    <ellipse cx="383.123" cy="417.34" fill="#2A71C4" fill-opacity=".2" class="Ellipse 2.1" rx="11.887" ry=".898"/>
    <g class="Group 17.3">
      <circle cx="533.446" cy="165.752" r="11.475" fill="#43FDD0" class="Ellipse 3" transform="rotate(26.4 533.446 165.752)"/>
      <path fill="#099F7B" d="M528.717 165.887a.605.605 0 10-1.19.227l1.19-.227zm8.706 4.057a.606.606 0 00-.936-.769l.936.769zm-9.896-3.83c.242 1.268 1.428 4.042 4.338 4.972l.369-1.154c-2.317-.741-3.318-3.004-3.517-4.045l-1.19.227zm4.338 4.972c2.864.915 4.864-.297 5.558-1.142l-.936-.769c-.398.484-1.889 1.512-4.253.757l-.369 1.154z" class="Vector 20"/>
      <circle cx="530.088" cy="161.026" r="1.215" fill="#099F7B" class="Ellipse 4" transform="rotate(26.4 530.088 161.026)"/>
      <circle cx="538.368" cy="163.782" r="1.215" fill="#099F7B" class="Ellipse 4.1" transform="rotate(26.4 538.368 163.782)"/>
    </g>
    <g class="Group 17.4">
      <circle cx="294.249" cy="170.545" r="12.289" fill="#43FDD0" class="Ellipse 3_2" transform="rotate(18.527 294.249 170.545)"/>
      <path fill="#099F7B" d="M289.015 172.124a.782.782 0 00-1.48.5l1.48-.5zm9.817 3.139a.781.781 0 10-1.331-.818l1.331.818zm-11.297-2.639c.45 1.334 2.142 4.155 5.433 4.726l.267-1.539c-2.499-.434-3.865-2.635-4.22-3.687l-1.48.5zm5.433 4.726c3.229.56 5.225-1.046 5.864-2.087l-1.331-.818c-.325.529-1.704 1.811-4.266 1.366l-.267 1.539z" class="Vector 20_2"/>
      <circle cx="289.994" cy="166.025" r="1.301" fill="#099F7B" class="Ellipse 4_2" transform="rotate(18.527 289.994 166.025)"/>
      <circle cx="299.181" cy="167.732" r="1.301" fill="#099F7B" class="Ellipse 4.1_2" transform="rotate(18.527 299.181 167.732)"/>
    </g>
    <path fill="#43FDD0" d="M199.636 302.864c14.963-15.643 75.3-20.71 83.462-16.629 8.161 4.081 8.086 110.139 8.086 110.139s-107.39 19.964-93.386-5.729c15.643-34.005-13.124-72.138 1.838-87.781z" class="Vector_31"/>
    <path stroke="#FFB877" stroke-linecap="round" stroke-width="10.498" d="M262.07 504.127l-.564 26.507" class="Vector_32"/>
    <path fill="#43FDD0" d="M200.41 400.311c2.394 1.457 13.059.984 18.687-2.474 5.672-3.485 29.333-7.835 29.333-7.835l-15.982-25.515-10.722 2.113s-22.145 19.252-21.316 33.711z" class="Vector_33"/>
    <path fill="#FFB877" fill-rule="evenodd" d="M205.757 306.164a9.06 9.06 0 019.06 9.06v59.18l58.304-18.114a9.06 9.06 0 0111.341 5.965c1.484 4.779-1.833 5.635-6.611 7.119l-66.264 25.009c-7.391 2.297-10.546-1.953-14.891-10.966-4.344-9.013-4.344-59.184-4.344-59.184 0-5.004 8.4-18.069 13.405-18.069z" class="Vector_34" clip-rule="evenodd"/>
    <path fill="#FFB877" d="M227.453 235.113l43.564-1.68s3.516 27.207 5.373 47.606c-20.107 10.186-48.526-14.103-48.526-14.103l-.411-31.823z" class="Vector_35"/>
    <path stroke="#174B88" stroke-linecap="round" stroke-width="1.533" d="M272.741 251.079c1.53 4.874 6.616 6.291 6.205 7.71-.412 1.419-4.022 3.261-4.022 3.261" class="Vector_36"/>
    <path fill="#FFB877" d="M228.621 303.359c3.476-9.168 8.777-30.813 6.6-37.825l14.005 5.958c3.597 2.223 10.267 7.282 8.173 9.733-2.093 2.452 5.35 19.513 6.965 22.707l-13.05-.708c-6.083 2.089-26.169 9.303-22.693.135z" class="Vector_37"/>
    <path fill="#174B88" d="M248.083 280.218s6.79 1.589 9.123 2.232c-.398 1.788 3.179 11.724 3.946 14.177 0 0-10.417-12.308-13.069-16.409z" class="Vector_38"/>
    <path stroke="#174B88" stroke-width="1.533" d="M268.938 267.749c.423 1.184 2.553 3.68 6.479 3.262" class="Vector_39"/>
    <path stroke="#FFB877" stroke-linecap="round" stroke-width="10.498" d="M274.719 381.513l-26.765 3.785" class="Vector_40"/>
    <path fill="#43FDD0" d="M248.421 302.477c-15.576 3.678-21.454-3.154-22.445-7.03-4.976 3.462-2.073 15.684 0 21.363l11.898 4.597c7.121.18 21.904.432 24.067 0 2.164-.433 8.473-11.898 11.358-17.577l-11.358-15.143c1.983 3.065 2.055 10.113-13.52 13.79z" class="Vector_41"/>
    <path fill="#0B55AC" fill-rule="evenodd" d="M174.605 195.522c5.905-2.163 8.939-8.703 6.776-14.608-2.163-5.905-8.704-8.939-14.609-6.776-5.905 2.163-8.938 8.704-6.775 14.609 2.163 5.905 8.703 8.938 14.608 6.775zm425.977 18.771c5.566 2.928 12.451.789 15.379-4.776 2.928-5.566.789-12.451-4.777-15.379-5.565-2.928-12.451-.789-15.378 4.776-2.928 5.566-.789 12.451 4.776 15.379zm-355.69 27.53l10.851-.081c9.899-.535 15.644-4.315 15.644-4.315 3.592-7.898 10.853-27.199 2.999-32.709-1.732-1.214-3.434-1.45-5.063-.994-.764-1.963-1.73-3.608-2.945-4.768-9.312-8.892-18.388-4.525-26.059 3.398-3.418-4.697-7.633-8.235-11.219-7.2-6.554 1.89-9.551 7.891-7.68 33.92-.296 1.253-.27 2.321.196 3.108-2.432-4.117-12.754-1.975-10.146 7.126 3.259 11.377 4.389 27.506 4.753 36.511.364 9.006 15.084 4.73 17.863 3.722 2.778-1.008 9.133-3.558 6.64-9.053-.921-2.029-2.952-4.236-4.993-6.454-3.487-3.789-7.002-7.608-5.048-10.616 3.097-4.769 8.16-.833 9.735 3.812l7.536-2.027c-2.422-4.242-4.911-10.682-3.064-13.38zm297.493 8.83c-19.643.177-24.116 3.645-24.116 3.645s-10.577-30.372 18.975-30.372c11.326-8.163 40.062-4.836 44.005 21.353 2.664 17.701 8.183 22.321 13.64 26.889 2.614 2.187 5.213 4.363 7.478 7.958 3.932 6.242 5.002 15.732 6.085 25.343.844 7.485 1.696 15.043 3.915 21.195 8.772 24.323-9.285 20.27-17.045 9.214-3.864-5.504-9.555-5.746-14.851-5.97-4.859-.206-9.387-.398-11.869-4.626-3.017-5.139-2.688-6.955-2.094-10.236.427-2.36.992-5.478.548-11.136-1.075-13.677-6.219-20.04-11.657-26.767-5.134-6.351-10.531-13.027-13.014-26.49zM587.3 385.817c9.839-1.185 18.776 5.83 19.962 15.668 1.185 9.839-5.83 18.776-15.669 19.962l-41.32 4.979v70.692c0 8.571-6.949 15.52-15.52 15.52-8.572 0-15.52-6.949-15.52-15.52v-77.885l-15.516.652-3.643 77.05c-.405 8.562-7.674 15.175-16.236 14.77-8.562-.404-15.174-7.673-14.769-16.235l4.302-91.005c.273-5.769 3.661-10.652 8.461-13.101a15.68 15.68 0 017.733-2.407c6.49-.273 13.289-.337 20.157-.402 8.43-.079 16.964-.16 25.154-.628 8.135.892 16.521 1.748 18.629 1.962l33.795-4.072zm-44.43 139.145s-6.638 5.41-10.985-.635c-.246 2.469-1.713 6.67-3.388 11.469v.001c-4.434 12.702-10.328 29.588 1.09 29.588 6.796 0 16.35-4.247 17.488-12.195 3.37-23.548-4.205-28.228-4.205-28.228zm-278.267-153.81c-1.538.924-2.597 2.127-3.288 3.505a9.026 9.026 0 00-.464 1.101c-1.643 4.709.241 10.938 1.983 15.118l-10.81.683-.5-.06-.539-.062c2.148-.937 3.1-1.668 3.1-1.668s-6.202-5.893-.618-10.817c-11.591 0-17.255-2.458-22.141-4.578-3.706-1.608-6.963-3.022-12.018-3.022-8.919 0-10.905 3.832-8.549 13.089-9.895-.629-11.35 18.397-9.841 24.176 1.277 4.89 6.742 9 11.003 11.267 4.924 2.62 21.214 5.887 34.043 6.206-.336 16.414.838 37.378 1.78 54.201.496 8.859.928 16.57 1.041 21.862.129 6.06 7.678 9.439 11.435 10.096 1.495.261 4.583.316 6.071.019 3.4-.68 9.741-3.466 10.973-8.485.821-3.343 1.18-6.795 1.189-10.346 1.777-13.054 2.28-46.532 1.436-71.315l9.561-.419c3.571-.668 7.554-2.631 9.942-4.213l48.238-31.963c7.145-4.734 8.046-14.645 3.312-21.79-2.034-3.069-4.776-5.128-7.809-6.104a15.738 15.738 0 00-8.407-1.006l-65.396 12.889c-1.927.325-3.483.889-4.727 1.636zm2.371 152.425c-4.513 5.921-10.957-.135-10.957-.135s-5.548 8.393-2.831 32.025c.529 4.596 3.859 8.405 8.361 9.468 11.84 2.793 16.448 1.099 15.74-8.772-.362-5.042-2.058-8.015-3.989-11.397-2.545-4.459-5.495-9.629-6.324-21.189zm112.734-152.643c-.892 0-1.615.723-1.615 1.615v3.151a8.84 8.84 0 00-3.821 7.284v28.521c0 .978.118 1.793.345 2.471l.003.013a4.88 4.88 0 00.096.257c-.066.046-.101.092-.101.14 0 .073.084.145.242.214-.158.069-.242.14-.242.214 0 .074.084.146.242.215-.158.068-.242.14-.242.214 0 .074.084.146.242.214-.158.069-.242.141-.242.215 0 .073.084.145.242.214-.158.068-.242.14-.242.214 0 .074.084.146.242.214-.158.069-.242.141-.242.215 0 .498 3.809.901 8.508.901 4.699 0 8.509-.403 8.509-.901 0-.074-.084-.146-.242-.215.158-.068.242-.14.242-.214 0-.074-.084-.146-.242-.214.158-.069.242-.141.242-.214 0-.074-.084-.146-.242-.215.158-.068.242-.14.242-.214 0-.074-.084-.146-.242-.214.158-.069.242-.141.242-.215 0-.057-.051-.114-.149-.168l.018-.043.019-.048.012-.031c.066-.045.1-.091.1-.138a.11.11 0 00-.015-.054l-.006-.01-.004-.006c.247-.74.368-1.663.368-2.811v-28.521a8.84 8.84 0 00-3.821-7.284v-3.151c0-.892-.723-1.615-1.615-1.615h-6.831zm65.905 17.068c0-.892.724-1.615 1.616-1.615h11.845c.892 0 1.616.723 1.616 1.615v3.168c0 .14-.018.277-.052.406a8.81 8.81 0 011.365 4.725v15.203c0 1.149-.12 2.072-.368 2.812a.122.122 0 01.025.07c0 .047-.034.093-.1.138l-.016.041-.02.05-.013.031c.098.054.149.111.149.168 0 .074-.084.146-.242.214.158.069.242.141.242.215 0 .074-.084.145-.242.214.158.069.242.141.242.214 0 .074-.084.146-.242.215.158.068.242.14.242.214 0 .074-.084.146-.242.214.158.069.242.141.242.215 0 .497-3.809.901-8.508.901-4.699 0-8.509-.404-8.509-.901 0-.074.084-.146.242-.215-.158-.068-.242-.14-.242-.214 0-.074.084-.146.242-.214-.158-.069-.242-.141-.242-.215 0-.073.084-.145.242-.214-.158-.069-.242-.14-.242-.214 0-.074.084-.146.242-.215-.158-.068-.242-.14-.242-.214 0-.074.084-.145.242-.214-.158-.069-.242-.141-.242-.214 0-.048.035-.095.102-.14a4.321 4.321 0 01-.1-.271c-.227-.677-.345-1.492-.345-2.471v-15.203a8.82 8.82 0 011.365-4.725 1.596 1.596 0 01-.052-.406v-3.168z" class="Union_3" clip-rule="evenodd"/>
    <path fill="#fff" fill-opacity=".15" fill-rule="evenodd" d="M174.605 195.522c5.905-2.163 8.939-8.703 6.776-14.608-2.163-5.905-8.704-8.939-14.609-6.776-5.905 2.163-8.938 8.704-6.775 14.609 2.163 5.905 8.703 8.938 14.608 6.775zm425.977 18.771c5.566 2.928 12.451.789 15.379-4.776 2.928-5.566.789-12.451-4.777-15.379-5.565-2.928-12.451-.789-15.378 4.776-2.928 5.566-.789 12.451 4.776 15.379zm-355.69 27.53l10.851-.081c9.899-.535 15.644-4.315 15.644-4.315 3.592-7.898 10.853-27.199 2.999-32.709-1.732-1.214-3.434-1.45-5.063-.994-.764-1.963-1.73-3.608-2.945-4.768-9.312-8.892-18.388-4.525-26.059 3.398-3.418-4.697-7.633-8.235-11.219-7.201-6.554 1.891-9.551 7.892-7.68 33.921-.296 1.253-.27 2.321.196 3.108-2.432-4.117-12.754-1.975-10.146 7.126 3.259 11.377 4.389 27.506 4.753 36.511.364 9.006 15.084 4.73 17.863 3.722 2.778-1.008 9.133-3.558 6.64-9.053-.921-2.029-2.952-4.236-4.993-6.454-3.487-3.789-7.002-7.608-5.048-10.616 3.097-4.769 8.16-.833 9.735 3.812l7.536-2.027c-2.422-4.242-4.911-10.682-3.064-13.38zm297.493 8.83c-19.643.177-24.116 3.645-24.116 3.645s-10.577-30.372 18.975-30.372c11.326-8.163 40.062-4.836 44.005 21.353 2.664 17.701 8.183 22.321 13.64 26.889 2.614 2.187 5.213 4.363 7.478 7.958 3.932 6.242 5.002 15.732 6.085 25.343.844 7.485 1.696 15.043 3.915 21.195 8.772 24.323-9.285 20.27-17.045 9.214-3.864-5.504-9.555-5.746-14.851-5.97-4.859-.206-9.387-.398-11.869-4.626-3.017-5.139-2.688-6.955-2.094-10.236.427-2.36.992-5.478.548-11.136-1.075-13.677-6.219-20.04-11.657-26.767-5.134-6.351-10.531-13.027-13.014-26.49zM587.3 385.817c9.839-1.185 18.776 5.83 19.962 15.668 1.185 9.839-5.83 18.776-15.669 19.962l-41.32 4.979v70.692c0 8.571-6.949 15.52-15.52 15.52-8.572 0-15.52-6.949-15.52-15.52v-87.761c0-5.966 3.366-11.146 8.303-13.744a17.859 17.859 0 018.893-3.666l50.871-6.13zm-44.43 139.145s-6.638 5.41-10.985-.635c-.246 2.469-1.713 6.67-3.388 11.469v.001c-4.434 12.702-10.328 29.588 1.09 29.588 6.796 0 16.35-4.247 17.488-12.195 3.37-23.548-4.205-28.228-4.205-28.228zM278.876 389.196c23.144-.065 65.467-10.095 73.115-22.701-2.843-6.718-9.747-11.006-17.265-9.868l-65.396 12.889c-4.926.831-7.429 3.222-8.479 6.242 2.156 7.849 9.562 13.462 18.025 13.438zm-11.902 134.381c-4.513 5.921-10.957-.135-10.957-.135s-5.548 8.393-2.831 32.025c.529 4.596 3.859 8.405 8.361 9.468 11.84 2.793 16.448 1.099 15.74-8.772-.362-5.042-2.058-8.015-3.989-11.397-2.545-4.459-5.495-9.629-6.324-21.189zm-1.111-15.924c-10.051-4.329-8.791-67.181-5.643-91.156 2.541-19.346 12-20.714 17.937-18.526 3.03 19.558 2.787 88.239-.459 99.447-1.999 6.902-5.464 12.98-11.835 10.235zm-12.396-128.701c-5.584 4.924.618 10.817.618 10.817s-8.593 6.593-32.359 5.573c-4.621-.198-8.659-3.248-10.041-7.663-3.634-11.61-2.273-16.327 7.623-16.327 5.055 0 8.312 1.414 12.018 3.022 4.886 2.12 10.55 4.578 22.141 4.578zm126.241-8.018c-.892 0-1.615.723-1.615 1.615v3.151a8.84 8.84 0 00-3.821 7.284v28.521c0 .978.118 1.793.345 2.471a4.88 4.88 0 00.099.27c-.066.046-.101.092-.101.14 0 .073.084.145.242.214-.158.069-.242.14-.242.214 0 .074.084.146.242.215-.158.068-.242.14-.242.214 0 .074.084.146.242.214-.158.069-.242.141-.242.215 0 .073.084.145.242.214-.158.068-.242.14-.242.214 0 .074.084.146.242.214-.158.069-.242.141-.242.215 0 .498 3.809.901 8.508.901 4.699 0 8.509-.403 8.509-.901 0-.074-.084-.146-.242-.215.158-.068.242-.14.242-.214 0-.074-.084-.146-.242-.214.158-.069.242-.141.242-.214 0-.074-.084-.146-.242-.215.158-.068.242-.14.242-.214 0-.074-.084-.146-.242-.214.158-.069.242-.141.242-.215 0-.057-.051-.114-.149-.168a4.43 4.43 0 00.049-.122c.066-.045.1-.091.1-.138a.11.11 0 00-.015-.054l-.01-.016c.247-.74.368-1.663.368-2.811v-28.521a8.84 8.84 0 00-3.821-7.284v-3.151c0-.892-.723-1.615-1.615-1.615h-6.831zm65.905 17.068c0-.892.724-1.615 1.616-1.615h11.845c.892 0 1.616.723 1.616 1.615v3.168c0 .14-.018.277-.052.406a8.81 8.81 0 011.365 4.725v15.203c0 1.149-.12 2.072-.368 2.812a.122.122 0 01.025.07c0 .047-.034.093-.1.138l-.016.041-.02.05-.013.031c.098.054.149.111.149.168 0 .074-.084.146-.242.214.158.069.242.141.242.215 0 .074-.084.145-.242.214.158.069.242.141.242.214 0 .074-.084.146-.242.215.158.068.242.14.242.214 0 .074-.084.146-.242.214.158.069.242.141.242.215 0 .497-3.809.901-8.508.901-4.699 0-8.509-.404-8.509-.901 0-.074.084-.146.242-.215-.158-.068-.242-.14-.242-.214 0-.074.084-.146.242-.214-.158-.069-.242-.141-.242-.215 0-.073.084-.145.242-.214-.158-.069-.242-.14-.242-.214 0-.074.084-.146.242-.215-.158-.068-.242-.14-.242-.214 0-.074.084-.145.242-.214-.158-.069-.242-.141-.242-.214 0-.048.035-.095.102-.14a4.321 4.321 0 01-.1-.271c-.227-.677-.345-1.492-.345-2.471v-15.203a8.82 8.82 0 011.365-4.725 1.596 1.596 0 01-.052-.406v-3.168z" class="Primary" clip-rule="evenodd"/>
    <path fill="#43FDD0" d="M221.319 315.041c0-8.473-6.869-15.343-15.344-15.343-8.473 0-15.343 6.87-15.343 15.343h30.687zm-30.687 0v34.196h30.687v-34.196h-30.687z" class="Vector_42"/>
    <path fill="#D69962" d="M379.621 316.326c-4.241-.909-10.535-6.728-16.417-8.302l13.514-3.311h12.748c-.168 1.221-.681 4.04-1.388 5.555-.884 1.893 7.952 3.282 8.457 6.058.505 2.777-11.613 1.136-16.914 0z" class="Vector_43"/>
    <path fill="#FFB877" d="M280.314 351.524c-4.335-.116-9.345 6.142-10.984 8.082l5.428 2.52 12.391 3.002c.123-1.226.288-4.086-.042-5.724-.413-2.049 7.7 3.596 8.845 1.015 1.144-2.58-10.218-8.751-15.638-8.895z" class="Vector_44"/>
    <path fill="#FFB877" d="M295.37 362.423c-6.853-8.777-17.051-3.841-27.939-.945-7.288 1.937-6.15 4.595-3.849 10.057 5.335-2.938 9.789-5.134 16.654 2.823 4.001 4.638 22.796-2.124 15.134-11.935z" class="Vector_45"/>
    <path fill="#114480" d="M600.944 204.87a.807.807 0 10-1.593.265l1.593-.265zm8.495 4.396a.808.808 0 00-1.224-1.054l1.224 1.054zm-10.088-4.131c.217 1.302 1.358 4.169 4.324 5.195l.527-1.527c-2.181-.754-3.092-2.934-3.258-3.933l-1.593.265zm4.324 5.195c2.904 1.003 5.003-.182 5.764-1.064l-1.224-1.054c-.354.41-1.77 1.366-4.013.591l-.527 1.527z" class="Vector 20_3"/>
    <circle cx="602.662" cy="199.449" r="1.205" fill="#114480" class="Ellipse 4_3" transform="rotate(27.746 602.662 199.449)"/>
    <circle cx="610.812" cy="202.374" r="1.205" fill="#114480" class="Ellipse 4.1_3" transform="rotate(27.746 610.812 202.374)"/>
    <path fill="#114480" d="M167.86 188.932a.808.808 0 00-.873 1.359l.873-1.359zm8.958-3.35a.807.807 0 10-1.602.2l1.602-.2zm-9.831 4.709c1.111.713 4.003 1.791 6.753.279l-.778-1.415c-2.022 1.111-4.25.324-5.102-.223l-.873 1.359zm6.753.279c2.692-1.48 3.222-3.832 3.078-4.988l-1.602.2c.067.538-.175 2.229-2.254 3.373l.778 1.415z" class="Vector 20_4"/>
    <circle cx="164.992" cy="184.021" r="1.205" fill="#114480" class="Ellipse 4_4" transform="rotate(-20.118 164.992 184.021)"/>
    <circle cx="172.63" cy="179.94" r="1.205" fill="#114480" class="Ellipse 4.1_4" transform="rotate(-20.118 172.63 179.94)"/>
    <path stroke="#DDEBFF" stroke-linecap="round" stroke-width="2.446" d="M528.059 533.917l15.56-.061" class="Vector 6"/>
    <path stroke="#DDEBFF" stroke-linecap="round" stroke-width="2.446" d="M523.634 540.962h17.733" class="Vector 6.1"/>
    <path fill="#F8F8F8" d="M607.861 399.455l-55.09-9.74 31.503-4.923h24.002l-.415 14.663z" class="Vector 21"/>
    <path fill="#559ED2" d="M588.083 383.718l1.444 4.009-4.194-.754 2.75-3.255z" class="Polygon_18"/>
    <g class="Group 9">
      <g class="Group_11">
        <path stroke="#4F7793" stroke-linecap="round" stroke-width=".722" d="M599.959 386.585l3.595-.624" class="Vector 9.2_10"/>
        <path stroke="#4F7793" stroke-linecap="round" stroke-width=".722" d="M599.646 384.787l3.595-.624" class="Vector 9.3_10"/>
      </g>
    </g>
    <g class="Group_12">
      <path fill="#DBE9FF" fill-rule="evenodd" d="M110.57 556.415c-.19-2.23-5.988-17.262-12.07-25.097-7.393-9.523-15.206-19.588-13.874-21.439 1.429-1.986 7.821.935 13.664 3.604 4.085 1.867 7.901 3.611 9.565 3.469 1.93-.164-.178-6.585-2.634-14.062-2.688-8.186-5.793-17.639-4.469-21.536 1.576-4.638 9.401.349 16.054 4.591 4.041 2.576 7.65 4.877 9.163 4.576 1.819-.36 1.452-5.573 1.052-11.246-.48-6.82-1.007-14.305 2.161-14.821 4.115-.672 9.848 17.649 12.696 26.75.266.853 1.963 7.044 1.65 3.63-.32-3.515-.851-9.338.729-12.511.051-.352.126-.676.226-.969 1.576-4.638 9.4.349 16.053 4.591 4.042 2.576 7.65 4.877 9.164 4.576 1.819-.36 1.452-5.573 1.051-11.246-.48-6.82-1.007-14.305 2.16-14.821 4.117-.672 9.849 17.649 12.697 26.75 1.166 3.728 1.849 5.909 1.738 4.603-.025-.298-.056-.624-.087-.973-.448-4.902-1.304-14.294 3.729-14.722 4.313-.368 8.176 21.628 9.569 32.673 1.389-4.946 5.391-13.221 10.285-6.759 4.895 6.462-4.823 38.46-10.295 50.389H110.57z" class="Vector_46" clip-rule="evenodd"/>
      <path fill="#DBE9FF" d="M706.291 496.999c5.752 7.594-5.54 45.257-9.117 56.616-.564 1.792-3.09 2.8-4.967 2.8h-61.709c-1.388 0-4.045-.77-4.858-1.895-6.626-9.165-35.34-48.124-32.377-52.242 3.326-4.624 26.288 10.164 31.829 9.692 5.541-.471-13.203-38.562-9.732-48.778 3.471-10.218 29.066 13.648 34.554 12.561 5.489-1.088-3.55-34.423 4.401-35.72 7.951-1.297 20.303 49.119 19.78 42.963-.525-6.156-2.398-20.879 4.989-21.508 5.911-.503 11.205 29.637 13.113 44.771 1.904-6.777 7.388-18.116 14.094-9.26z" class="Vector_47"/>
    </g>
  </g>
  <defs>
    <clipPath id="clip0" class="clip0">
      <path fill="#fff" d="M0 0h800v600H0z"/>
    </clipPath>
  </defs>
</svg>
