<svg xmlns="http://www.w3.org/2000/svg" width="800" height="600" fill="none" viewBox="0 0 800 600">
  <g class="person_computer_female">
    <path fill="#fff" d="M0 0h800v600H0z"/>
    <path fill="#8ED0FF" d="M613.825 334.356l50.385-90.089h19.003l19.866 90.089h-89.254z" class="Vector 6" opacity=".2"/>
    <path fill="#8ED0FF" fill-opacity=".3" d="M639.796 334.356l30.024-90.089h7.047l5.821 90.089h-42.892z" class="Vector 6.1"/>
    <path fill="#8ED0FF" d="M684.715 311.92h4.478v7.475h-4.478z" class="Rectangle 9"/>
    <path fill="#FFEDD1" fill-rule="evenodd" d="M61.127 37.262H530.56v12.52h-35.202v290.871c-4.954 0-11.666-3.68-14.824-7.497-2.481-2.997-5.823-4.835-9.499-4.835-3.677 0-7.018 1.837-9.499 4.835-3.158 3.817-9.871 7.497-14.824 7.497h-6.795c-4.953 0-11.666-3.68-14.824-7.497-2.481-2.998-5.823-4.835-9.499-4.835-4.575 0-8.632 2.845-11.156 7.232-1.615 2.807-4.31 5.1-7.549 5.1a7.062 7.062 0 01-7.062-7.062V49.782h-73.198v283.809c0 3.9-3.161 7.062-7.062 7.062-3.238 0-5.933-2.293-7.548-5.1-2.524-4.387-6.581-7.232-11.156-7.232-3.676 0-7.018 1.837-9.499 4.835-3.158 3.817-9.87 7.497-14.824 7.497h-6.795c-4.954 0-11.666-3.68-14.824-7.497-2.481-2.998-5.823-4.835-9.499-4.835s-7.018 1.837-9.499 4.835c-3.158 3.817-9.871 7.497-14.824 7.497h-6.796c-4.953 0-11.666-3.68-14.824-7.497-2.48-2.997-5.822-4.835-9.499-4.835-3.676 0-7.018 1.837-9.498 4.835-3.158 3.817-9.871 7.497-14.824 7.497h-6.795c-4.954 0-11.666-3.68-14.824-7.497-2.481-2.998-5.823-4.835-9.499-4.835-4.575 0-8.632 2.845-11.156 7.232-1.615 2.807-4.31 5.1-7.549 5.1a7.062 7.062 0 01-7.062-7.062V49.782H61.128v-12.52zM778.23 492.233H28.368v77.384H778.23v-77.384z" class="Secondary" clip-rule="evenodd"/>
    <path fill="#8ED0FF" d="M551.509 268.495h6.362v56.914h-6.362z" class="Rectangle 2.2"/>
    <rect width="196.287" height="116.018" x="434.996" y="147.978" fill="#E8F6FF" class="Rectangle" rx="17.367"/>
    <path fill="#fff" d="M453.594 163.791c0-5.523 4.477-10 10-10h139.815c5.523 0 10 4.477 10 10v100.205H453.594V163.791z" class="Rectangle 6"/>
    <g class="Group 6">
      <rect width="51.657" height="8.975" x="546.744" y="184.47" fill="#E8F6FF" class="Rectangle 3" rx="4.487"/>
      <rect width="51.657" height="8.975" x="546.744" y="199.376" fill="#E8F6FF" class="Rectangle 3.1" rx="4.487"/>
      <g class="Group 4">
        <g class="Group">
          <circle cx="556.211" cy="220.018" r="4.487" fill="#E8F6FF" class="Ellipse 2"/>
          <circle cx="572.573" cy="220.018" r="4.487" fill="#E8F6FF" class="Ellipse 2.1"/>
          <circle cx="588.936" cy="220.018" r="4.487" fill="#E8F6FF" class="Ellipse 2.2"/>
        </g>
      </g>
      <rect width="136.064" height="8.975" x="465.032" y="159.985" fill="#E8F6FF" class="Rectangle 4" rx="4.487"/>
      <path fill="#E8F6FF" d="M462.877 187.252a6.947 6.947 0 016.947-6.947h62.587a6.946 6.946 0 016.946 6.947v76.744h-76.48v-76.744z" class="Rectangle_2"/>
      <g class="Group 5">
        <path fill="#E8F6FF" d="M552.959 234.075h2.293v-2.39h-2.293z" class="Rectangle 2"/>
        <path fill="#E8F6FF" d="M560.347 234.075h2.293v-2.39h-2.293z" class="Rectangle 2.1"/>
        <path fill="#E8F6FF" d="M567.733 234.075h2.293v-2.39h-2.293z" class="Rectangle 2.2_2"/>
        <path fill="#E8F6FF" d="M575.121 234.075h2.293v-2.39h-2.293z" class="Rectangle 2.3"/>
        <path fill="#E8F6FF" d="M582.509 234.075h2.293v-2.39h-2.293z" class="Rectangle 2.4"/>
        <path fill="#E8F6FF" d="M589.896 234.075h2.293v-2.39h-2.293z" class="Rectangle 2.5"/>
      </g>
      <g class="Group 5.1">
        <path fill="#E8F6FF" d="M552.959 240.158h2.293v-2.39h-2.293z" class="Rectangle 2_2"/>
        <path fill="#E8F6FF" d="M560.347 240.158h2.293v-2.39h-2.293z" class="Rectangle 2.1_2"/>
        <path fill="#E8F6FF" d="M567.733 240.158h2.293v-2.39h-2.293z" class="Rectangle 2.2_3"/>
        <path fill="#E8F6FF" d="M575.121 240.158h2.293v-2.39h-2.293z" class="Rectangle 2.3_2"/>
        <path fill="#E8F6FF" d="M582.509 240.158h2.293v-2.39h-2.293z" class="Rectangle 2.4_2"/>
        <path fill="#E8F6FF" d="M589.896 240.158h2.293v-2.39h-2.293z" class="Rectangle 2.5_2"/>
      </g>
      <g class="Group 5.2">
        <path fill="#E8F6FF" d="M552.959 246.16h2.293v-2.39h-2.293z" class="Rectangle 2_3"/>
        <path fill="#E8F6FF" d="M560.347 246.16h2.293v-2.39h-2.293z" class="Rectangle 2.1_3"/>
        <path fill="#E8F6FF" d="M567.733 246.16h2.293v-2.39h-2.293z" class="Rectangle 2.2_4"/>
        <path fill="#E8F6FF" d="M575.121 246.16h2.293v-2.39h-2.293z" class="Rectangle 2.3_3"/>
        <path fill="#E8F6FF" d="M582.509 246.16h2.293v-2.39h-2.293z" class="Rectangle 2.4_3"/>
        <path fill="#E8F6FF" d="M589.896 246.16h2.293v-2.39h-2.293z" class="Rectangle 2.5_3"/>
      </g>
    </g>
    <path fill="#CFA844" d="M365.968 351.817h30.954v29.351h-30.954z" class="Rectangle 3.10"/>
    <path stroke="#D69962" stroke-linecap="round" stroke-width="12" d="M349.854 486.598l2.655 48.646" class="Vector 3.1"/>
    <path fill="#FFB877" d="M251.332 186.93l51.555 2.901s-8.705 26.7-9.57 49.023C270.138 247.04 246.959 212 246.959 212l4.373-25.07z" class="Union"/>
    <path fill="#F3D483" fill-rule="evenodd" d="M658.698 227.981h76.794v14.526h-2.796l-19.977 76.887h15.88a6.895 6.895 0 01.015 13.788h18.047c8 0 14.485 6.485 14.485 14.485 0 7.882-6.295 14.293-14.131 14.481v19.019H730.44v167.35h-29.351v-167.35H651.56v167.35h-29.35v-167.35h-18.279v-19.015h-94.88v19.015h-16.575v155.027h-29.802V381.167h-49.078v155.027H383.794V381.167h-17.827v-19.015h-19.961c-8 0-14.485-6.485-14.485-14.485 0-8 6.485-14.485 14.485-14.485h326.989a6.895 6.895 0 01.015-13.788h30.419l19.978-76.887h-35.856v4.556h-29.653v-4.527H658.711v-.029h-.013v-14.526zM170.635 427.058c0-3.273.925-6.33 2.528-8.925l-40.372-150.672c-2.431-9.07 2.952-18.392 12.022-20.823a16.929 16.929 0 0110.916.718h61.07c10.789 0 20.128 7.5 22.458 18.034l31.987 144.666h58.801c9.39 0 17.002 7.612 17.002 17.002 0 6.385-3.52 11.948-8.725 14.855v108.74H317.6V444.06h-34.969v106.593h-37.813V444.06h-34.969v106.593h-20.722V444.06h-2.315c-8.934 0-16.177-7.242-16.177-16.177 0-.136.002-.272.005-.407a19.341 19.341 0 01-.005-.418z" class="Primary" clip-rule="evenodd"/>
    <path fill="#000" fill-opacity=".18" fill-rule="evenodd" d="M346.007 333.182c-8 0-14.486 6.485-14.486 14.485 0 8 6.486 14.485 14.486 14.485h19.96v19.015h17.828v155.027h13.126V362.152h207.01v19.015h18.279v167.35h13.127v-186.41c7.46-.588 13.331-6.829 13.331-14.44 0-8-6.485-14.485-14.485-14.485H346.007zm368.209 47.984v167.351h-13.127V381.166h13.127zm-238.415.001v155.027h-13.127V381.167h13.127z" class="Union_2" clip-rule="evenodd"/>
    <path stroke="#FFB877" stroke-linecap="round" stroke-width="13" d="M396.533 494.256l16.046 44.491" class="Vector 3"/>
    <path stroke="#4F7793" stroke-linecap="round" stroke-width="2" d="M296.451 209.286c-.287 5.564 4.375 8.945 3.415 10.239-.96 1.294-5.35 1.806-5.35 1.806" class="Vector 2"/>
    <path fill="#000" fill-opacity=".18" fill-rule="evenodd" d="M189.127 444.06h-2.315c-8.934 0-16.177-7.242-16.177-16.176 0-3.33 1.006-6.424 2.73-8.996l-40.574-151.426c-2.431-9.07 2.952-18.393 12.022-20.824 9.07-2.43 18.393 2.953 20.823 12.023l41.009 153.046h80.096c8.934 0 16.177 7.242 16.177 16.177 0 8.934-7.243 16.176-16.177 16.176h-15.564v106.593h-9.268V444.06h-7.823v106.593h-9.268V444.06h-46.423v106.593h-9.268V444.06zm137.741 106.593V444.029H317.6v106.624h9.268zM195.41 278.919l-4.3-6.6-2.4 6.6-5.5 3.5 6.6 3.7 4.3 6.6 2.3-6.6 5.6-3.5-6.6-3.7zm29.5-6.2l3.8 5.9 5.8 3.2-4.9 3.1-2.1 5.9-3.8-5.9-5.8-3.2 4.9-3.2 2.1-5.8zm-16.7 52.7l-4.3-6.6-2.3 6.6-5.6 3.6 6.6 3.6 4.3 6.6 2.4-6.5 5.5-3.6-6.6-3.7zm29.5-6.2l3.8 5.9 5.9 3.2-5 3.2-2.1 5.8-3.7-5.9-5.9-3.2 4.9-3.1 2.1-5.9zm-16.6 52.8l-4.3-6.7-2.4 6.6-5.6 3.6 6.7 3.6 4.3 6.7 2.3-6.6 5.6-3.6-6.6-3.6zm29.5-6.2l3.8 5.8 5.8 3.3-4.9 3.1-2.1 5.8-3.8-5.8-5.9-3.3 5-3.1 2.1-5.8z" class="Union_3" clip-rule="evenodd"/>
    <path fill="#FFB877" d="M235.161 260.961c5.05-9.426 19.504-14.83 17.842-40.372l14.308 8.417c3.577 2.91 7.668 5.325 5.059 7.682-2.609 2.356 5.447 25.851 6.745 29.534l-14.014-2.604c-6.873 1.403-34.99 6.77-29.94-2.657z" class="Vector 2_2"/>
    <path fill="#4F7793" d="M263.502 232.651s6.744 2.73 9.177 3.754c-.683 1.878 1.323 12.757 1.807 15.517 0 0-8.694-14.462-10.984-19.271z" class="Vector"/>
    <path stroke="#4F7793" stroke-width="2" d="M287.942 224.105c.146 1.407 1.795 4.69 6.154 5.243" class="Vector 5"/>
    <path stroke="#D69962" stroke-linecap="round" stroke-width="23" d="M281.56 309.702l28.401 33.25 55.291-24.853" class="Vector 2.1"/>
    <path fill="#fff" d="M277.694 257.939c-5.97-6.815-21.389-8.439-33.217-12.148-1.999-.631-7.419 8.225-3.548 6.935 3.871-1.29 35.773 15.582 35.773 13.808 0-1.774 6.672-2.111.992-8.595z" class="Vector 9"/>
    <path stroke="#FFB877" stroke-linecap="round" stroke-width="24" d="M297.646 302.975l28.401 33.251 51.954-23.553" class="Vector 2_3"/>
    <path fill="#BEBEBE" d="M301.945 319.175l-17.827 18.56-8.792-24.177 7.571-15.874 19.048 21.491z" class="Vector_2"/>
    <path fill="#FFB877" d="M412.285 307.604c-12.081-8.295-25.705-11.451-38.63-6.139-8.651 3.556-3.282 13.924-.549 23.944h20.095c-3.005-2.404-3.511-6.758 4.963-6.217 2.058.132 8.035 4.264 9.613 6.217h19.158c.15-2.479-2.57-9.511-14.65-17.805z" class="Vector 2_4"/>
    <path fill="#F8F8F8" d="M222.79 399.047c-8.591-30.486-28.906-81.943 12.76-142.695 8.05-11.739 32.152 1.491 59.132 17.103 30.02 33.649 33.312 39.582 33.312 39.582l-26.466 20.311-14.72-17.422 7.874 56.69-71.892 26.431z" class="Vector 2_5"/>
    <g class="Group 10">
      <path stroke="#4F7793" stroke-linecap="round" d="M238.399 340.376l4.426 2.442" class="Vector 9_2"/>
      <path stroke="#4F7793" stroke-linecap="round" d="M239.62 338.163l4.425 2.442" class="Vector 9.1"/>
    </g>
    <g class="Group 9">
      <path stroke="#4F7793" stroke-linecap="round" d="M256.451 377.189l4.98-.864" class="Vector 9.2"/>
      <path stroke="#4F7793" stroke-linecap="round" d="M256.02 374.699l4.979-.864" class="Vector 9.3"/>
    </g>
    <g class="Group 9.7">
      <path stroke="#4F7793" stroke-linecap="round" d="M214.428 328.004l4.979-.864" class="Vector 9.2_2"/>
      <path stroke="#4F7793" stroke-linecap="round" d="M213.996 325.514l4.98-.864" class="Vector 9.3_2"/>
    </g>
    <g class="Group 9.8">
      <path stroke="#4F7793" stroke-linecap="round" d="M273.977 333.978l4.979-.864" class="Vector 9.2_3"/>
      <path stroke="#4F7793" stroke-linecap="round" d="M273.545 331.488l4.98-.864" class="Vector 9.3_3"/>
    </g>
    <g class="Group 9.1">
      <path stroke="#4F7793" stroke-linecap="round" d="M252.974 311.776l4.979-.864" class="Vector 9.2_4"/>
      <path stroke="#4F7793" stroke-linecap="round" d="M252.542 309.286l4.98-.864" class="Vector 9.3_4"/>
    </g>
    <g class="Group 9.3">
      <path stroke="#4F7793" stroke-linecap="round" d="M302.876 309.953l3.738 3.402" class="Vector 9.2_5"/>
      <path stroke="#4F7793" stroke-linecap="round" d="M304.577 308.084l3.738 3.402" class="Vector 9.3_5"/>
    </g>
    <g class="Group 9.5">
      <path stroke="#4F7793" stroke-linecap="round" d="M283.428 276.743l3.738 3.402" class="Vector 9.2_6"/>
      <path stroke="#4F7793" stroke-linecap="round" d="M285.129 274.874l3.738 3.402" class="Vector 9.3_6"/>
    </g>
    <g class="Group 9.6">
      <path stroke="#4F7793" stroke-linecap="round" d="M228.164 294.345l3.738 3.401" class="Vector 9.2_7"/>
      <path stroke="#4F7793" stroke-linecap="round" d="M229.865 292.475l3.738 3.402" class="Vector 9.3_7"/>
    </g>
    <g class="Group 9.2">
      <path stroke="#4F7793" stroke-linecap="round" d="M259.526 267.52l4.98-.864" class="Vector 9.2_8"/>
      <path stroke="#4F7793" stroke-linecap="round" d="M259.095 265.03l4.979-.864" class="Vector 9.3_8"/>
    </g>
    <g class="Group 9.4">
      <path stroke="#4F7793" stroke-linecap="round" d="M219.946 366.897l4.98-.865" class="Vector 9.2_9"/>
      <path stroke="#4F7793" stroke-linecap="round" d="M219.515 364.407l4.979-.864" class="Vector 9.3_9"/>
    </g>
    <path fill="#559ED2" fill-rule="evenodd" d="M429.654 159.223c0-9.592 7.776-17.368 17.367-17.368h182.915c8.28 0 14.992 7.776 14.992 17.368v92.648c0 9.592-6.712 17.368-14.992 17.368h-7.085a17.525 17.525 0 01-3.196.293H557.87v55.877h35.553v7.773H361.17l17.707-7.773h139.618v-55.877h-71.474c-9.591 0-17.367-7.776-17.367-17.367v-92.942zm22.709-11.245c-9.592 0-17.367 7.776-17.367 17.367v81.284c0 9.591 7.775 17.367 17.367 17.367h161.552c9.592 0 17.368-7.776 17.368-17.367v-81.284c0-9.591-7.776-17.367-17.367-17.367H452.363zm-187.098 12.807c0 1.805-.406 3.632-1.126 5.371 4.137-1.254 10.274-2.479 19.175-3.496 26.44-3.022 25.653 27.542 21.955 43.202l-28.329-4.722c0 1.574-1.181 4.391-5.902 3.069-2.347-.657-4.731-1.986-6.989-3.244-3.421-1.907-6.553-3.653-8.828-2.658-1.556.681-.949 3.844-.192 7.791 1.081 5.637 2.469 12.873-1.697 16.761-4.666 4.355-9.127-.513-13.316-5.084-2.169-2.367-4.264-4.654-6.278-5.539-5.902-2.597-11.54-33.759 1.889-33.759.853 0 1.656-.025 2.413-.073-5.865-2.182-9.838-8.548-9.838-13.37 0-7.707 9.761-17.469 17.469-17.469 7.708 0 19.594 5.512 19.594 13.22zM241.59 269.893l7.286 4.289.071-8.454-7.357 4.165zm-15.53 14.079l5.052-3.055-5.171-2.848.119 5.903zm51.39.609l-7.942 2.9 1.46-8.328 6.482 5.428zm-5.119 68.521l-1.921-8.233-6.169 5.78 8.09 2.453zm-19.715 9.394l-7.005-4.733-.597 8.433 7.602-3.7zm55.652-62.248l-3.751-7.577-4.686 7.037 8.437.54zm-9.678 16.566l2.001 5.554-5.811-1.044 3.81-4.51zm22.917-4.304l-1.582-4.391-3.011 3.566 4.593.825zm-71.452-19.764l2.001 5.554-5.811-1.044 3.81-4.51zm33.62 1.147l2.001 5.554-5.81-1.044 3.809-4.51zm-54.573 59.685l-2.001-5.554-3.809 4.51 5.81 1.044zm.751 24.235l2.001 5.554-5.81-1.044 3.809-4.51zm55.514-14.576l-5.709-1.502 1.554 5.695 4.155-4.193zm-6.09-48.96l2.001 5.554-5.811-1.044 3.81-4.51zM253.7 333.821l-7.286-4.289 7.357-4.165-.071 8.454zm-28.455 64.324c2.918 8.287 10.814 14.186 20.046 14.186 21.047 0 45.909.026 66.931 1.631.912.069 1.811.142 2.698.217l9.703 4.563c.933 1.934 1.963 4.783 2.982 8.603 2.038 7.631 3.556 17.284 4.642 27.172 1.075 9.776 1.672 19.252 1.999 26.324-.754 10.496 1.806 30.938 18.084 28.729 9.664-.115 17.406-8.043 17.291-17.707l-.412-12.641c-.093-2.01-.207-4.214-.346-6.569 3.698 10.856 6.953 21.724 9.333 31.245 2.746 10.984 13.876 17.662 24.86 14.916 10.984-2.746 17.662-13.876 14.916-24.86-4.392-17.566-11.239-38.557-18.553-56.949-3.663-9.212-7.546-18.031-11.416-25.593-3.68-7.191-8.017-14.589-12.848-19.957-4.202-4.669-9.372-7.564-13.623-9.435-4.44-1.953-9.277-3.392-14.046-4.502-9.521-2.217-20.745-3.567-32.143-4.437-6.687-.511-13.683-.872-20.753-1.128l.092.663-69.437 25.529zm178.054 135.497s8.793 7.453 14.226 0c7.697 3.588 17.2 6.366 25.405 8.765 10.297 3.01 18.547 5.422 18.61 8.086.113 4.787-46.391 3.768-57.297 2.863-4.566-4.981-.944-19.714-.944-19.714zm-44.705-1.861c-4.918 6.108-12.348 2.033-12.348 2.033s-2.874 11.182.801 15.597c9.224 1.213 49.568 3.018 49.667-1.052.055-2.263-7.287-4.793-16.293-7.897h-.001c-7.186-2.477-15.432-5.318-21.826-8.681zM227.273 309.722l5.894 6.062-8.196 2.073 2.302-8.135z" class="Union_4" clip-rule="evenodd"/>
    <path fill="#000" fill-opacity=".18" fill-rule="evenodd" d="M673.233 227.98h-14.53v14.522h-.814v4.56h29.655v-4.56h-14.311V227.98zm35.454 91.542l20.059-77.064h-5.295l-20.025 76.935h-30.425a6.893 6.893 0 100 13.787h34.35a6.895 6.895 0 001.336-13.658z" class="Union_5" clip-rule="evenodd"/>
    <path fill="#fff" fill-opacity=".11" fill-rule="evenodd" d="M264.139 166.156c.72-1.739 1.126-3.566 1.126-5.371 0-7.708-11.887-13.22-19.594-13.22-7.708 0-17.47 9.762-17.47 17.469 0 4.822 3.974 11.188 9.839 13.37-.757.048-1.56.073-2.413.073-13.429 0-7.791 31.162-1.889 33.759 2.014.885 4.109 3.172 6.278 5.539 4.189 4.571 8.65 9.439 13.316 5.084 4.394-4.101 2.902-11.409 1.757-17.014-.782-3.832-1.402-6.867.132-7.538 2.275-.995 5.407.751 8.828 2.658 2.258 1.258 4.642 2.587 6.989 3.244 4.721 1.322 5.902-1.495 5.902-3.069l28.329 4.722c3.698-15.66 4.485-46.224-21.955-43.202-8.902 1.017-15.038 2.242-19.175 3.496z" class="Union_6" clip-rule="evenodd"/>
    <path fill="#000" fill-opacity=".05" d="M61.13 37.262h469.432v12.521H61.13z" class="Rectangle 2.1_4"/>
    <path fill="#000" fill-opacity=".24" d="M346.246 533.815s7.43 4.074 12.348-2.034c14.409 7.578 38.219 12.509 38.12 16.579-.099 4.069-40.443 2.264-49.667 1.051-3.675-4.415-.801-15.596-.801-15.596z" class="Rectangle 7.1"/>
    <path stroke="#FFFAEE" stroke-linecap="round" stroke-width="3" d="M360.749 540.414l9.637-9.637" class="Vector 8"/>
    <path stroke="#FFFAEE" stroke-linecap="round" stroke-width="3" d="M370.386 541.657l9.636-9.637" class="Vector 8.1"/>
    <path stroke="#FFFAEE" stroke-linecap="round" stroke-width="3" d="M423.539 543.964l9.637-9.636" class="Vector 8.2"/>
    <path fill="#fff" fill-opacity=".58" fill-rule="evenodd" d="M622.851 269.239h7.085c8.28 0 14.992-7.776 14.992-17.368v-92.648c0-9.592-6.712-17.368-14.992-17.368h-11.958c8.279 0 20.027 7.776 20.027 17.368v92.942c0 8.5-8.796 15.574-15.758 17.074h.604z" class="Intersect" clip-rule="evenodd"/>
    <path stroke="#FFFAEE" stroke-linecap="round" stroke-width="3" d="M433.176 545.207l9.636-9.637" class="Vector 8.3"/>
    <path fill="#fff" fill-opacity=".58" d="M584.265 325.409h9.192v7.773h-9.192z" class="Rectangle 7"/>
    <path fill="#fff" fill-opacity=".58" d="M474.056 325.409h27.062v7.773h-27.062z" class="Rectangle 7.2"/>
    <path fill="#fff" fill-opacity=".58" d="M551.724 269.53h6.146v55.879h-6.146z" class="Rectangle 7.1_2"/>
    <path fill="#000" fill-opacity=".24" fill-rule="evenodd" d="M314.92 414.179c9.362.79 17.271 1.874 23.27 3.271 3.276.763 5.485 1.507 6.827 2.097.124.055.234.105.33.151 1.289 1.69 3.405 5.012 6.159 10.393 3.11 6.077 6.467 13.644 9.815 22.064a439.675 439.675 0 017.542 20.498c.139 2.356.253 4.559.346 6.569l.412 12.641c.115 9.665-7.626 17.592-17.291 17.707-16.277 2.209-18.838-18.232-18.083-28.729-.328-7.072-.925-16.548-1.999-26.324-1.087-9.888-2.605-19.541-4.642-27.172-1.02-3.819-2.05-6.669-2.983-8.603l-9.703-4.563zm30.99 5.815l-.039-.025a.483.483 0 01.039.025z" class="Subtract" clip-rule="evenodd"/>
  </g>
</svg>
