<svg xmlns="http://www.w3.org/2000/svg" width="800" height="600" fill="none" viewBox="0 0 800 600">
  <g class="person_editing_shapes_female">
    <path fill="#fff" d="M0 0h800v600H0z"/>
    <path fill="#F5F8FF" d="M740.901 151.976c0 104.098-241.05 365.327-345.149 365.327-104.098 0-336.652-153.967-336.652-258.065 0-104.099 149.362-199.057 259.999-215.817 110.637-16.76 421.802 4.456 421.802 108.555z" class="Ellipse 3"/>
    <path fill="#F5F8FF" d="M299.317 191.406h459.099v26.55H299.317zM521.591 241.956h236.825v26.55H521.591zM485.06 292.506h273.356v26.55H485.06z" style="mix-blend-mode:multiply"/>
    <g class="Group 5">
      <path fill="#F5F8FF" d="M70.534 345.785h236.825v26.55H70.534zM70.534 388.335h236.825v26.55H70.534zM70.534 430.885h236.825v26.55H70.534z" style="mix-blend-mode:multiply"/>
      <path fill="#F5F8FF" d="M75.858 479.438h37.865v37.865H75.858z" class="Rectangle 4_2"/>
      <path fill="#F5F8FF" d="M137.723 479.438h37.865v37.865h-37.865z" class="Rectangle 4.6"/>
      <path fill="#F5F8FF" d="M199.588 479.438h37.865v37.865h-37.865z" class="Rectangle 4.7"/>
      <path fill="#F5F8FF" d="M261.452 479.438h37.865v37.865h-37.865z" class="Rectangle 4.8"/>
    </g>
    <g class="Group 4">
      <path fill="#FCE38A" d="M109.092 239.702c-2.964 8.19 12.522 59.079 23.345 72.865 3.617-2.95 30.545-8.025 34.276-16.971 4.663-11.182-4.727-63.139-6.035-69.65-1.308-6.511-14.387 24.448-14.387 24.448s-3.102-38.01-6.185-44.833c-1.414-3.129-24.886 17.203-31.014 34.141z" class="Vector 2"/>
      <path stroke="#E4C453" stroke-linecap="round" stroke-width="1.781" d="M117.942 253.071c-2.594-9.341-4.673-17.674-6.119-25.452" class="Vector 2_2"/>
      <path stroke="#E4C453" stroke-linecap="round" stroke-width="1.781" d="M125.654 247.821c-1.228-4.848-5.87-24.391-6.828-29.865" class="Vector 2.1"/>
      <path stroke="#E4C453" stroke-linecap="round" stroke-width="1.781" d="M135.029 243.585c-2.223-9.852-5.851-29.49-6.631-36.108" class="Vector 2.2"/>
    </g>
    <g class="Group 3">
      <path fill="#FCE38A" d="M644.936 274.69c6.235 6.08 14.466 58.633 10.73 75.758-4.54-1.08-30.99 6.083-38.245-.344-9.069-8.034-21.704-47.847-23.218-53.716-1.66-6.43 21.907 4.132 21.907 4.132s-13.766-35.565-13.964-43.05c-.091-3.431 29.894 4.643 42.79 17.22z" class="Vector 2.3"/>
      <path stroke="#E4C453" stroke-linecap="round" stroke-width="1.781" d="M642.794 290.58c-1.735-9.539-3.494-17.946-5.581-25.577" class="Vector 2.4"/>
      <path stroke="#E4C453" stroke-linecap="round" stroke-width="1.781" d="M633.565 289.213c-1.007-4.898-5.343-24.511-6.864-29.856" class="Vector 2.5"/>
      <path stroke="#E4C453" stroke-linecap="round" stroke-width="1.781" d="M623.282 289.485c-2.292-9.837-7.581-29.094-9.763-35.391" class="Vector 2.6"/>
    </g>
    <path fill="#F26578" fill-rule="evenodd" d="M432.86 252.613c4.457-2.503 7.698-6.4 8.68-12.074 2.561-14.786-6.752-27.044-21.538-29.605-14.786-2.56-37.9 4.084-40.46 18.87-1.046 6.037.758 10.998 4.266 14.929.161.046.321.098.48.157l7.037 2.611c1.241.46 2.534.763 3.85.902l26.322 2.769 9.41.99a8.03 8.03 0 011.953.451zm-55.774 2.147c-20.708 6.3-40.916 22.876-40.916 42.333 0 2.452-.159 4.674-.31 6.801-.586 8.219-1.072 15.025 8.071 28.209 11.247 7.563 36.637.651 78.665-28.528 9.688 8.57 14.14 14.558 16.781 18.111 2.674 3.596 3.493 4.697 6.011 3.457 4.539-2.236 5.185-16.217 5.185-28.05 0-11.638-6.917-22.245-16.826-30.239a7.82 7.82 0 01-7.115.102l-9.696-4.777a20.82 20.82 0 00-7.025-2.03l-28.494-2.997a6.267 6.267 0 01-4.331-2.392zm-99.604 141.791c46.058 20.364 93.08 22.375 109.159 19.902 40.737-6.267 70.428-1.066 97.473 3.672l.003.001c4.138.724 8.214 1.438 12.258 2.099 27.194 4.441 59.741 8.14 114.728.715.094-2.093.115-4.49.044-7.202-.519-19.605-5.613-47.077-13.07-75.698l72.403-18.866c7.926 30.417 14.716 64.41 15.461 92.584.363 13.707-.56 29.544-5.794 43.678-5.637 15.22-18.683 33.436-43.337 37.345-45.474 7.209-79.647 8.2-107.645 6.498-9.276 15.396-20.522 33.304-31.46 48.8C472.217 586.186 401.599 579 363.599 573c-33.637-5.311-73.467-32.731-91.849-98.433a305.333 305.333 0 01-24.523-9.586c-60.064-26.556-120.917-77.848-139.49-168.79l73.308-14.971c12.461 61.018 52.052 95.706 96.437 115.331z" class="Primary" clip-rule="evenodd"/>
    <path fill="#5283FF" fill-rule="evenodd" d="M392.617 63.15c-17.709 0-32.066 14.357-32.066 32.066v14.765c0 17.709 14.357 32.066 32.066 32.066h14.765c17.709 0 32.066-14.357 32.066-32.066V95.216c0-17.71-14.357-32.066-32.066-32.066h-14.765zm-238.098 65.034l58.678-21.892 21.891 58.678-58.678 21.892-21.891-58.678zm509.152 41.428c0 28.806-23.352 52.158-52.158 52.158s-52.158-23.352-52.158-52.158 23.352-52.158 52.158-52.158 52.158 23.352 52.158 52.158z" class="Union" clip-rule="evenodd"/>
    <path stroke="#BBADBE" stroke-linecap="round" d="M455.383 361.964c117.18 64.731 192.201 11.618 293.447 21.909" class="Vector 7"/>
    <path fill="#BBADBE" d="M335.857 172.552a.499.499 0 10-.037-.999l.037.999zm-82.091 14.785c13.482-4.408 48.794-13.54 82.091-14.785l-.037-.999c-33.42 1.249-68.828 10.408-82.365 14.833l.311.951z" class="Vector 6"/>
    <path stroke="#BBADBE" d="M717.644 80.373c17.666 2.15 53.042 12.005 53.221 34.216.179 22.211-4.354 40.595-6.643 47.01" class="Vector 7_2"/>
    <path stroke="#BBADBE" d="M91.615 126.792c12.493-15.9 52.642-54.686 113.29-82.625" class="Vector 8"/>
    <path fill="#FCE38A" fill-rule="evenodd" d="M407.758 524.966c46.072 3.615 83.39-1.185 133.172-22.429 2.404-1.026 5.202-.531 7.079 1.289-52.605 23.061-94.085 30.228-132.796 28.179-38.644-2.046-74.7-13.294-85.619-19.053a2.5 2.5 0 012.332-4.423c10.125 5.341 37.713 14.419 75.832 16.437z" class="Vector 9 (Stroke)" clip-rule="evenodd"/>
    <path fill="#FCE38A" fill-rule="evenodd" d="M345.9 466.177c44.698 11.737 82.275 13.639 135.038 1.571 2.548-.583 5.213.401 6.738 2.525-55.864 13.355-97.957 13.044-135.69 4.155-37.667-8.875-71.153-26.345-80.876-33.952a2.5 2.5 0 013.081-3.938c9.016 7.053 34.554 20.885 71.709 29.639z" class="Vector 9 (Stroke).1" clip-rule="evenodd"/>
    <path fill="#FDE8E8" d="M565.629 442.57a6.274 6.274 0 01-6.273 6.273c-3.465 0-5.27-1.736-5.27-5.201 0-3.464.675-7.891 4.14-7.891 3.464 0 7.403 3.354 7.403 6.819z" class="Ellipse 3_2"/>
    <path fill="#FDE8E8" d="M174.649 388.124c1.395 3.171 6.418 10.177 3.247 11.571-3.172 1.395-11.987-2.771-13.381-5.943-1.395-3.171-5.631-11.629-2.459-13.024 3.172-1.395 11.199 4.224 12.593 7.396z" class="Ellipse 3.2"/>
    <path fill="#FDE8E8" d="M349.409 541.586c0 3.465-2.809 4.71-6.273 4.71-3.465 0-6.274-1.245-6.274-4.71a6.274 6.274 0 0112.547 0z" class="Ellipse 3.1"/>
    <path fill="#265ADE" fill-rule="evenodd" d="M406.887 97.507h-13.774v13.773h13.774V97.507zm-209.915 40.211l-12.905 4.811 4.811 12.906 12.906-4.811-4.812-12.906zm412.02 22.487l11.929 6.887-6.887 11.928-11.928-6.887 6.886-11.928zm-459.623 92.648c5.627 0 10.189-4.561 10.189-10.189 0-5.627-4.562-10.188-10.189-10.188s-10.189 4.561-10.189 10.188c0 5.628 4.562 10.189 10.189 10.189zm268.333 130.171c7.693-7.074 14.055-16.764 18.397-26.882.286.156.586.28.9.372 4.559 1.324 10.364-4.867 12.966-13.827 2.56-8.819 1.064-17.033-3.33-18.552-.379.444-.794.785-1.248 1.008-2.517 1.241-3.336.139-6.01-3.457-2.642-3.553-7.093-9.54-16.782-18.111-42.028 29.179-67.418 36.091-78.664 28.529a72.232 72.232 0 01-3.383-5.328c-1.968 3.437-2.245 9.515-.388 15.911 2.602 8.96 8.407 15.151 12.965 13.827a4.56 4.56 0 001.315-.627c5.348 10.17 12.772 19.826 21.246 27.076-1.133 20.092-5.616 36.238-5.73 36.645a3.85 3.85 0 01-.238.007c0 16.142 11.714 29.228 25.873 29.228s25.637-13.086 25.637-29.228c0-1.187-.067-2.225-.197-3.131-.317-4.115-1.149-13.344-3.329-33.46zm11.234 23.076a.5.5 0 01.5.5c0 10.005-1.249 21.597-5.871 31.086-4.637 9.519-12.671 16.919-26.167 18.465-8.526.977-17.148-2.575-24.313-10.496-7.16-7.915-12.878-20.2-15.66-36.755a.5.5 0 01.986-.166c2.76 16.425 8.418 28.514 15.416 36.25 6.993 7.731 15.312 11.107 23.457 10.174 13.11-1.502 20.873-8.653 25.382-17.91 4.524-9.288 5.77-20.699 5.77-30.648a.5.5 0 01.5-.5zM617.14 287.637c0 5.627-4.562 10.189-10.189 10.189s-10.189-4.562-10.189-10.189 4.562-10.189 10.189-10.189 10.189 4.562 10.189 10.189zM388.643 106.502c-1.427.033-2.88.078-4.356.136l-.138-3.56c1.494-.059 2.965-.105 4.411-.138l.083 3.562zm24.584.844c-1.511-.14-3.007-.265-4.489-.374l.261-3.553c1.506.11 3.026.237 4.559.38l-.331 3.547zm-36.98-.289c-1.431.092-2.88.194-4.347.307l-.272-3.553c1.481-.113 2.944-.217 4.389-.31l.23 3.556zm-12.351 1.003c-1.445.14-2.906.288-4.38.446l-.379-3.543c1.486-.159 2.958-.309 4.416-.45l.343 3.547zm61.523.724a274.72 274.72 0 00-4.384-.583l.442-3.536c1.469.184 2.949.381 4.439.591l-.497 3.528zm-73.841.637c-1.466.181-2.944.37-4.434.567l-.467-3.533c1.5-.198 2.988-.388 4.465-.57l.436 3.536zm86.067 1.341a320.223 320.223 0 00-4.289-.749l.591-3.514c1.436.241 2.881.494 4.334.758l-.636 3.505zm-98.364.322c-1.475.216-2.96.439-4.454.669l-.543-3.521c1.503-.232 2.997-.456 4.48-.674l.517 3.526zm110.608 2.12a385.515 385.515 0 00-4.397-.926l.713-3.491a388.2 388.2 0 014.438.935l-.754 3.482zm-122.893-.192c-1.458.244-2.923.494-4.396.75l-.611-3.51c1.481-.258 2.954-.509 4.42-.754l.587 3.514zm134.884 2.973a479.324 479.324 0 00-4.315-1.043l.819-3.467c1.444.341 2.895.692 4.35 1.051l-.854 3.459zm-147.155-.805a682.85 682.85 0 00-4.349.822l-.673-3.499a785.43 785.43 0 014.37-.826l.652 3.503zm-12.252 2.387c-1.432.292-2.869.589-4.31.891l-.731-3.487c1.448-.304 2.891-.602 4.33-.895l.711 3.491zm171.418 1.55a478.603 478.603 0 00-4.23-1.14l.913-3.445c1.415.375 2.835.758 4.259 1.149l-.942 3.436zm-183.554 1.023c-1.451.32-2.906.645-4.365.975l-.787-3.475c1.466-.331 2.928-.658 4.386-.979l.766 3.479zm195.529 2.412c-1.436-.43-2.869-.852-4.298-1.267l.994-3.422c1.438.418 2.88.843 4.325 1.275l-1.021 3.414zm-207.65.358c-1.442.342-2.886.688-4.333 1.038l-.84-3.462c1.454-.353 2.904-.7 4.353-1.043l.82 3.467zm219.451 3.308c-1.408-.453-2.814-.9-4.216-1.34l1.067-3.4c1.411.444 2.825.893 4.241 1.349l-1.092 3.391zm-231.553-.347c-1.431.362-2.863.728-4.297 1.098l-.892-3.449c1.441-.372 2.879-.74 4.316-1.103l.873 3.454zm243.367 4.28a647.96 647.96 0 00-4.19-1.424l1.135-3.377c1.402.471 2.806.948 4.212 1.431l-1.157 3.37zm-255.422-1.137c-1.426.383-2.852.77-4.28 1.162l-.942-3.436c1.433-.393 2.866-.782 4.298-1.167l.924 3.441zm-11.979 3.315c-1.426.406-2.853.816-4.279 1.231l-.995-3.421c1.433-.417 2.866-.829 4.298-1.237l.976 3.427zm279.089 1.955a680.479 680.479 0 00-4.181-1.505l1.197-3.356c1.399.499 2.8 1.003 4.202 1.513l-1.218 3.348zm-291.035 1.545c-1.418.427-2.835.859-4.251 1.294l-1.047-3.406a835.79 835.79 0 014.27-1.299l1.028 3.411zm302.673 2.802a696.54 696.54 0 00-4.132-1.569l1.255-3.335c1.384.521 2.768 1.047 4.152 1.577l-1.275 3.327zm-314.561.881c-1.413.45-2.824.904-4.233 1.361l-1.1-3.388c1.415-.46 2.833-.916 4.252-1.368l1.081 3.395zm326.13 3.66a754.665 754.665 0 00-4.13-1.646l1.31-3.314c1.383.547 2.766 1.098 4.149 1.654l-1.329 3.306zm-337.954.21c-1.404.472-2.805.948-4.204 1.427l-1.156-3.37c1.406-.482 2.814-.96 4.224-1.434l1.136 3.377zm349.44 4.51a860.674 860.674 0 00-4.093-1.706l1.362-3.292a774.33 774.33 0 014.111 1.713l-1.38 3.285zm11.415 4.9a861.963 861.963 0 00-4.069-1.771l1.412-3.271c1.364.589 2.727 1.182 4.087 1.778l-1.43 3.264zm-384.304-1.077a781.514 781.514 0 00-4.161 1.578l-1.274-3.327c1.39-.532 2.784-1.061 4.183-1.586l1.252 3.335zm395.65 6.151a870.556 870.556 0 00-4.039-1.83l1.461-3.249c1.355.609 2.707 1.222 4.057 1.838l-1.479 3.241zm-407.232-1.677a604.922 604.922 0 00-4.14 1.663l-1.34-3.302a656.569 656.569 0 014.164-1.672l1.316 3.311zm-11.533 4.72a561.681 561.681 0 00-4.056 1.729l-1.41-3.273a588.908 588.908 0 014.082-1.739l1.384 3.283zm430.028 2.199a787.653 787.653 0 00-4.033-1.9l1.51-3.227c1.354.633 2.704 1.269 4.051 1.908l-1.528 3.219zm-441.438 2.761a485.134 485.134 0 00-4.034 1.83l-1.486-3.238a545.452 545.452 0 014.062-1.843l1.458 3.251zm452.614 2.647a771.356 771.356 0 00-3.971-1.945l1.559-3.204c1.334.649 2.663 1.3 3.988 1.954l-1.576 3.195zm-463.872 2.568a468.728 468.728 0 00-4.014 1.946l-1.57-3.199c1.34-.657 2.688-1.311 4.045-1.96l1.539 3.213zm-11.098 5.502c-1.335.685-2.66 1.375-3.973 2.068l-1.663-3.152a440.668 440.668 0 014.008-2.086l1.628 3.17zm497.04 3.247a740.388 740.388 0 00-3.881-2.055l1.657-3.153c1.306.686 2.606 1.374 3.9 2.063l-1.676 3.145zm-508.028 2.616a343.15 343.15 0 00-3.828 2.154l-1.767-3.093c1.277-.73 2.565-1.455 3.866-2.177l1.729 3.116zm519.001 3.35a698.565 698.565 0 00-3.884-2.139l1.709-3.126c1.308.715 2.61 1.432 3.904 2.15l-1.729 3.115zm-529.757 2.874a314.961 314.961 0 00-3.731 2.292l-1.887-3.022c1.244-.777 2.502-1.55 3.775-2.319l1.843 3.049zm540.549 3.239a663.38 663.38 0 00-3.907-2.242l1.764-3.096c1.317.75 2.626 1.501 3.927 2.254l-1.784 3.084zm-551.02 3.398c-1.23.82-2.444 1.643-3.639 2.469l-2.027-2.93a255.08 255.08 0 013.69-2.504l1.976 2.965zm561.68 2.904a632.755 632.755 0 00-3.758-2.254l1.821-3.062c1.269.755 2.529 1.511 3.78 2.267l-1.843 3.049zm10.612 6.569c-1.245-.79-2.501-1.58-3.769-2.37l1.884-3.024c1.276.795 2.54 1.59 3.794 2.385l-1.909 3.009zm-582.41-2.355c-1.19.887-2.36 1.778-3.508 2.673l-2.19-2.81c1.168-.911 2.359-1.818 3.57-2.72l2.129 2.857zm592.778 9.103a491.308 491.308 0 00-3.759-2.488l1.953-2.98c1.276.836 2.538 1.672 3.786 2.507l-1.98 2.961zm-602.438-1.418a159.283 159.283 0 00-3.32 2.908l-2.385-2.647a163.332 163.332 0 013.393-2.973l2.311 2.712zm612.596 8.413a407.652 407.652 0 00-3.547-2.491l2.032-2.926c1.208.839 2.4 1.676 3.578 2.512l-2.063 2.905zm-621.642-.053a122.058 122.058 0 00-3.038 3.174l-2.618-2.416a126.01 126.01 0 013.125-3.266l2.53 2.508zm631.701 7.448a346.141 346.141 0 00-3.517-2.647l2.124-2.86c1.204.894 2.389 1.786 3.554 2.675l-2.161 2.832zm-639.874 1.71a91.354 91.354 0 00-2.62 3.464l-2.893-2.08a94.903 94.903 0 012.722-3.599l2.79 2.215zm649.582 6.017a272.36 272.36 0 00-3.467-2.839l2.234-2.775c1.196.963 2.368 1.922 3.514 2.877l-2.281 2.737zm-656.47 4.04a66.621 66.621 0 00-2.013 3.763l-3.195-1.578a70.325 70.325 0 012.12-3.963l3.087 1.778zm665.734 4.119a191.034 191.034 0 00-3.363-3.073l2.373-2.658a197.453 197.453 0 013.425 3.13l-2.435 2.601zm8.64 8.752a128.08 128.08 0 00-3.126-3.342l2.559-2.479a130.707 130.707 0 013.214 3.436l-2.647 2.385zm-679.377-1.898a50.793 50.793 0 00-1.194 4.125l-3.462-.843c.36-1.479.787-2.95 1.278-4.414l3.378 1.132zm97.043 8.068c.546-1.373 1.073-2.76 1.581-4.16l3.349 1.214a144.748 144.748 0 01-1.62 4.264l-3.31-1.318zm589.89 3.399a69.677 69.677 0 00-2.609-3.64l2.831-2.164a72.83 72.83 0 012.742 3.827l-2.964 1.977zm-689.33.256a43.881 43.881 0 00-.102 4.271l-3.561.089a47.51 47.51 0 01.11-4.618l3.553.258zm94.327 7.694a136.82 136.82 0 001.942-3.997l3.23 1.504a140.209 140.209 0 01-1.993 4.102l-3.179-1.609zm600.177 2.526a28.931 28.931 0 00-1.406-3.782l3.252-1.458a32.63 32.63 0 011.576 4.249l-3.422.991zM43.348 272.27c.28 1.396.63 2.797 1.05 4.203l-3.413 1.021a50.33 50.33 0 01-1.13-4.523l3.493-.701zm87.434 6.622c.787-1.24 1.558-2.504 2.313-3.792l3.074 1.8a128.099 128.099 0 01-2.379 3.902l-3.008-1.91zm605.809 2.595a12.116 12.116 0 001.16-3.7l3.525.517a15.694 15.694 0 01-1.5 4.78l-3.185-1.597zM47.15 283.642a59.563 59.563 0 002 3.883l-3.105 1.745a62.911 62.911 0 01-2.121-4.115l3.226-1.513zm76.424 5.35a105.445 105.445 0 002.701-3.51l2.868 2.114a109.85 109.85 0 01-2.792 3.628l-2.777-2.232zm604.956-.094a25.51 25.51 0 003.344-2.063l2.113 2.869a29.018 29.018 0 01-3.811 2.354l-1.646-3.16zm-109.528 1.247a785.7 785.7 0 004.438.611l-.476 3.531c-1.47-.198-2.956-.403-4.457-.613l.495-3.529zm98.2 2.701a63.71 63.71 0 004.238-1.127l1.038 3.409a67.855 67.855 0 01-4.473 1.189l-.803-3.471zm-86.01-1.083c1.407.175 2.799.344 4.175.507l-.419 3.538a729.009 729.009 0 01-4.197-.51l.441-3.535zm12.326 1.421c1.53.162 3.04.315 4.529.461l-.346 3.546a589.388 589.388 0 01-4.557-.464l.374-3.543zm-590.17.884c.438.609.892 1.219 1.36 1.83.459.6.921 1.182 1.386 1.747l-2.753 2.263a69.384 69.384 0 01-1.462-1.844 82.154 82.154 0 01-1.422-1.912l2.89-2.084zm651.87.716c1.515-.161 2.973-.341 4.375-.541l.503 3.527c-1.447.207-2.948.392-4.503.557l-.375-3.543zm-49.328-.43c1.416.117 2.811.226 4.187.328l-.263 3.553a465.173 465.173 0 01-4.217-.331l.293-3.55zm-540.672 3.734a82.519 82.519 0 003.125-3.112l2.579 2.459a87.328 87.328 0 01-3.258 3.244l-2.446-2.591zm553.021-2.881c1.532.083 3.036.156 4.512.218l-.15 3.56c-1.491-.063-3.01-.136-4.555-.22l.193-3.558zm24.782.385c1.455-.047 2.871-.108 4.249-.183l.193 3.558c-1.405.076-2.847.139-4.327.186l-.115-3.561zm-12.564.07c1.475.027 2.919.042 4.331.046l-.01 3.563c-1.432-.004-2.893-.02-4.386-.047l.065-3.562zm-574.853 10.05a60.576 60.576 0 003.587-2.513l2.146 2.844a63.907 63.907 0 01-3.797 2.66l-1.936-2.991zm-44.136-2.378a43.974 43.974 0 003.337 2.755l-2.128 2.859a47.768 47.768 0 01-3.607-2.979l2.398-2.635zm33.242 7.694a42.27 42.27 0 004.028-1.561l1.453 3.253a45.486 45.486 0 01-4.37 1.693l-1.111-3.385zm-23.283-.993c1.322.602 2.65 1.1 3.983 1.501l-1.025 3.412a34.972 34.972 0 01-4.434-1.67l1.476-3.243zm11.505 2.75c1.413.052 2.831.005 4.252-.137l.355 3.546a34.73 34.73 0 01-4.739.151l.132-3.56z" class="Secondary" clip-rule="evenodd"/>
    <path fill="#fff" fill-opacity=".29" fill-rule="evenodd" d="M442.504 325.27c-.874-.553-1.757-1.741-3.127-3.584-2.642-3.553-7.094-9.54-16.782-18.111-39.216 27.227-63.945 35.067-76.216 29.85 4.278 24.223 25.484 53.688 48.591 60.681 26.56-2.384 47.4-40.22 47.4-65.493 0-1.14.05-2.255.134-3.343zm-38.033 26.691l-7.835-21.256-6.671 21.256s2.846 3.304 7.369 3.18c4.523-.123 7.137-3.18 7.137-3.18zm-7.242 23.236c-3.17.175-6.379-.796-8.687-3.285l1.459-1.353c1.829 1.972 4.417 2.8 7.118 2.651 2.71-.15 5.466-1.285 7.514-3.146l1.339 1.472c-2.39 2.172-5.581 3.486-8.743 3.661z" class="Subtract" clip-rule="evenodd"/>
    <path fill="#9F3367" d="M376.798 247.323a6.346 6.346 0 017.49-2.433l7.037 2.61a15.77 15.77 0 003.85.902l26.322 2.769 9.41.99c6.703.705 9.435 8.993 4.466 13.546a7.823 7.823 0 01-8.742 1.25l-9.695-4.778a20.844 20.844 0 00-7.025-2.03l-28.494-2.997c-4.744-.499-7.263-5.858-4.619-9.829z" class="Rectangle 2"/>
    <g class="Group">
      <g class="Rectangle 3">
        <path fill="#fff" fill-opacity=".392" d="M370.246 316.954h9.695l-21.907 28.013-5.796-6.68 18.008-21.333zM383.771 325.909l2.554 2.653-18.557 22.881-3.545-2.547 19.548-22.987z"/>
      </g>
      <g class="Rectangle 3.1">
        <path fill="#fff" fill-opacity=".392" d="M421.431 315.637l8.451 2.607-21.368 26.529-5.09-7.803 18.007-21.333zM434.957 324.593l2.554 2.652-18.557 22.881-3.546-2.547 19.549-22.986z"/>
      </g>
      <circle cx="369.717" cy="332.882" r="17.43" stroke="#EFF4FF" stroke-width="3.966" class="Ellipse 3_3"/>
      <circle cx="420.507" cy="332.882" r="17.43" stroke="#EFF4FF" stroke-width="3.966" class="Ellipse 3.1_2"/>
    </g>
    <path fill="#000" fill-opacity=".13" fill-rule="evenodd" d="M436.099 356.142c4.031-9.391 6.321-19.151 6.321-27.529 0-1.407.076-2.776.199-4.104 1.3-.616 2.595-.793 3.803-.442 4.559 1.324 6.145 9.66 3.543 18.62-2.602 8.96-8.406 15.151-12.965 13.827a4.489 4.489 0 01-.901-.372zm-90.439-32.205c-.009.343-.014.691-.014 1.045 0 9.475 3.302 20.461 8.795 30.905-.406.279-.845.49-1.315.627-4.559 1.324-10.363-4.867-12.965-13.827-2.602-8.96-1.016-17.296 3.543-18.62a4.647 4.647 0 011.956-.13z" class="Subtract_2" clip-rule="evenodd"/>
    <path fill="#BBADBE" d="M344.669 322.544a.991.991 0 101.954.341l-1.954-.341zm23.978-15.68a.991.991 0 10-.271-1.964l.271 1.964zm-22.024 16.021c.736-4.222 6.088-13.822 22.024-16.021l-.271-1.964c-16.74 2.31-22.814 12.523-23.707 17.644l1.954.341z" class="Vector 2_3"/>
    <path fill="#BBADBE" d="M442.684 313.28a.991.991 0 11-1.947.377l1.947-.377zm-24.267-15.228a.992.992 0 11.234-1.97l-.234 1.97zm22.32 15.605c-.815-4.207-6.346-13.705-22.32-15.605l.234-1.97c16.78 1.997 23.044 12.095 24.033 17.198l-1.947.377z" class="Vector 2.1_2"/>
    <path fill="#000" fill-opacity=".13" fill-rule="evenodd" d="M404.472 351.961l-7.835-21.256-6.671 21.256s2.846 3.303 7.369 3.18c4.523-.123 7.137-3.18 7.137-3.18zm-7.242 23.236c-3.17.175-6.379-.796-8.687-3.285l1.459-1.353c1.829 1.972 4.417 2.8 7.118 2.651 2.709-.15 5.465-1.285 7.514-3.146l1.338 1.472c-2.39 2.172-5.581 3.486-8.742 3.661z" class="Intersect" clip-rule="evenodd"/>
  </g>
</svg>
