<svg xmlns="http://www.w3.org/2000/svg" width="801" height="601" fill="none" viewBox="0 0 801 601">
  <g clip-path="url(#clip0)">
    <path fill="#fff" d="M0 0h801v601H0z"/>
    <path fill="#E3E8F5" d="M759 317.7c.4 5.2.2 12.9.2 20.7-5-.2-8.4 2.6-10.6 5.7 0-1.5 0-3.4-.1-5.7-.1-5.7-1.1-10.4-1.9-14.5 1.5-1.9 2.7-4 3.6-6.3h5.1c1.2.1 2.4.1 3.7.1z" class="Vector"/>
    <path fill="#E3E8F5" d="M758.999 317.7h-8.8c.8-2 1.4-4.1 1.6-6.2 2.5-.5 5.1-.8 5.9.4.7.9 1.1 3 1.3 5.8z" class="Vector_2"/>
    <path fill="#E3E8F5" d="M754.501 190.3c2.6 0 5.1 1.7 7.3 4.6-8.9 12.2-18.9 25.2-29.5 37.8.8-2.4 1.6-4.7 2.3-7.1 6.3-18.9 11.9-35.2 19.9-35.3z" class="Vector_3"/>
    <path fill="#E3E8F5" d="M746.6 265.2c9.1-3.7 14.5-6.6 14.5-6.6s-.7 2.7-2.2 7.2c-.1-.1-.1-.2-.2-.3-.4-.6-.8-1.2-1.3-1.7s-1.1-.8-1.8-.9c-.7 0-1.3.3-1.9.8-.5.4-.9 1-1.3 1.6-.4.6-.9 1.1-1.3 1.6-.5.4-1 .7-1.6.7-.4 0-.8-.1-1.1-.2-.7-.7-1.2-1.5-1.8-2.2z" class="Vector_4"/>
    <path fill="#E3E8F5" d="M752 280.8c0-4.5-1.2-8.8-3.4-12.6.2.1.5.1.7.1.8 0 1.4-.4 2-.9.5-.5 1-1.1 1.4-1.7.4-.6.8-1.1 1.3-1.5.4-.4.9-.6 1.5-.6s1 .3 1.5.7c.5.4.8 1 1.3 1.6.1.2.3.4.4.6-1.5 4.2-3.6 9.7-6.6 16v-1.7h-.1z" class="Vector_5"/>
    <path fill="#fff" d="M745.8 317.5c0 1.2.1 2.4.3 3.7-5 7.6-14.3 12.7-24.9 12.7h-13.1c9.2-5.6 17-12.6 23.5-20 4.4 2.2 9.4 3.2 14.2 3.6z" class="Vector_6"/>
    <path fill="#E3E8F5" d="M752 282.9v-.4c3-6.3 5.2-11.8 6.6-16 .3.4.6.8.9 1.1.5.5 1.1.9 1.9.9.8 0 1.5-.3 2.1-.8.6-.5 1.1-1.1 1.6-1.7.5-.6 1-1.2 1.5-1.6.5-.4 1-.6 1.6-.6.6 0 1.1.3 1.5.8.5.5.9 1.1 1.3 1.7l.1.1c.4.6.8 1.2 1.2 1.6.5.5 1 .9 1.7.9.6 0 1.4-.2 2.2-1.1.8-.8 1.7-2.3 2.8-4.6l-.5-.2c-1 2.3-1.9 3.7-2.7 4.5-.7.8-1.3.9-1.8.9s-.9-.3-1.3-.7c-.4-.4-.8-1-1.2-1.6v-.1c-.4-.6-.8-1.3-1.3-1.8s-1.1-.9-1.9-1c-.8-.1-1.5.3-2 .7-.6.5-1.1 1.1-1.6 1.7-.5.6-1 1.2-1.5 1.6-.5.4-1.1.7-1.7.6-.6 0-1.1-.3-1.5-.7-.4-.4-.7-.9-1.1-1.4 1.5-4.5 2.2-7.2 2.2-7.2s-5.4 2.8-14.5 6.6c-4.7-6.1-12.2-10.4-20.7-11.6 2-7 4.2-14 6.4-20.9 10.6-12.6 20.6-25.6 29.5-37.8 4.8 6.1 8.9 17.4 12.9 28.4 8 22.1 26.3 73.1 6 88.9-6 4.7-14.5 5.4-21.7 5.5-.2-2.8-.6-4.9-1.2-5.8-.8-1.2-3.4-.9-5.9-.4.1-1 .2-2 .2-3.1v-7.5c.3-.3.5-.6.7-.9.4-.6.8-1.1 1.3-1.5.4-.4.9-.6 1.5-.6s1 .3 1.5.7c.5.4.8 1 1.3 1.6.4.6.8 1.2 1.3 1.7s1.1.9 1.9.9c.8.1 1.5-.3 2.1-.8.6-.5 1.1-1.1 1.6-1.7.5-.6 1-1.2 1.5-1.6.5-.4 1-.7 1.6-.6.6 0 1.1.3 1.5.8.5.5.9 1.1 1.3 1.7l.1.1c.4.6.8 1.2 1.2 1.7.5.5 1 .9 1.7.9.6 0 1.4-.2 2.2-1.1.8-.9 1.7-2.3 2.8-4.6l-.5-.2c-1 2.3-1.9 3.7-2.7 4.5-.7.8-1.3.9-1.8.9s-.9-.3-1.3-.7c-.4-.4-.8-1-1.2-1.6v-.1c-.4-.6-.8-1.3-1.3-1.8s-1.1-.9-1.9-1c-.8 0-1.5.3-2 .7-.6.5-1.1 1.1-1.6 1.7-.5.6-1 1.2-1.5 1.6-.5.4-1.1.7-1.7.6-.6 0-1.1-.3-1.5-.7-.5-.4-.9-1-1.3-1.6-.4-.6-.8-1.2-1.3-1.7s-1.1-.8-1.8-.8-1.3.3-1.9.8c-.5.4-.9 1-1.3 1.6-.1.1-.2.3-.3.4v-16.3c.3-.3.5-.6.7-.9.4-.6.8-1.1 1.3-1.5.4-.4.9-.6 1.5-.6s1 .3 1.5.7c.5.4.8 1 1.3 1.6.4.6.8 1.2 1.3 1.7s1.1.9 1.9.9c.8 0 1.5-.3 2.1-.8.6-.5 1.1-1.1 1.6-1.7.5-.6 1-1.2 1.5-1.6.5-.4 1-.7 1.6-.6.6 0 1.1.3 1.5.8.5.5.9 1.1 1.3 1.7l.1.1c.4.6.8 1.2 1.2 1.6.5.5 1 .9 1.7.9.6 0 1.4-.2 2.2-1.1.8-.8 1.7-2.3 2.8-4.6l-.5-.2c-1 2.3-1.9 3.7-2.7 4.5-.7.8-1.3.9-1.8.9s-.9-.3-1.3-.7c-.4-.4-.8-1-1.2-1.6v-.1c-.4-.6-.8-1.3-1.3-1.8s-1.1-.9-1.9-1c-.8-.1-1.5.3-2 .7-.6.5-1.1 1.1-1.6 1.7-.5.6-1 1.2-1.5 1.6-.5.4-1.1.7-1.7.6-.6 0-1.1-.3-1.5-.8-.5-.4-.9-1-1.3-1.6-.4-.6-.8-1.2-1.3-1.7s-1.1-.8-1.8-.8-1.3.3-1.9.8c-.5.4-.9 1-1.3 1.6-.6.1-.7.2-.8.4zm-2.7-44.8c-.7 0-1.2-.2-1.7-.6-.5-.4-1-.9-1.5-1.5s-1-1.2-1.6-1.6c-.6-.5-1.3-.8-2.2-.8v.6c.7 0 1.3.2 1.8.6.5.4 1 1 1.5 1.5.5.6 1 1.1 1.6 1.6.6.4 1.3.7 2.1.7s1.4-.4 2-.9c.5-.5 1-1.1 1.4-1.7.4-.6.8-1.1 1.3-1.5.4-.4.9-.6 1.5-.6s1 .3 1.5.7c.5.4.8 1 1.3 1.6.4.6.8 1.2 1.3 1.7s1.1.9 1.9.9c.8 0 1.5-.3 2.1-.8.6-.5 1.1-1.1 1.6-1.7.5-.6 1-1.2 1.5-1.6.5-.4 1-.7 1.6-.6v-.6c-.8-.1-1.5.3-2 .7-.6.5-1.1 1.1-1.6 1.7-.5.6-1 1.2-1.5 1.6-.5.4-1.1.7-1.7.6-.6 0-1.1-.3-1.5-.7-.5-.4-.9-1-1.3-1.6-.4-.6-.8-1.2-1.3-1.7s-1.1-.8-1.8-.8-1.3.3-1.9.8c-.5.4-.9 1-1.3 1.6-.4.6-.9 1.2-1.3 1.6-.6.5-1.1.8-1.8.8zm-7 9.5c.7 0 1.3.2 1.8.6.5.4 1 1 1.5 1.5.5.6 1 1.1 1.6 1.6.6.4 1.3.7 2.1.7.8-.1 1.4-.4 2-.9.5-.5 1-1.1 1.4-1.7.4-.6.8-1.1 1.3-1.5.4-.4.9-.6 1.5-.6s1 .3 1.5.7c.5.4.8 1 1.3 1.6.4.6.8 1.2 1.3 1.7s1.1.9 1.9.9c.8 0 1.5-.3 2.1-.8.6-.5 1.1-1.1 1.6-1.7.5-.6 1-1.2 1.5-1.6.5-.4 1-.6 1.6-.6.6 0 1.1.3 1.5.8.5.5.9 1.1 1.3 1.7l.1.1c.4.6.8 1.2 1.2 1.7.5.5 1 .9 1.7.9v-.6c-.5 0-.9-.3-1.3-.7-.4-.4-.8-1-1.2-1.6v-.1c-.4-.6-.8-1.3-1.3-1.8s-1.1-.9-1.9-.9c-.8-.1-1.5.3-2 .7-.6.5-1.1 1.1-1.6 1.7-.5.6-1 1.2-1.5 1.6-.5.4-1.1.7-1.7.6-.6 0-1.1-.3-1.5-.7-.5-.4-.9-1-1.3-1.6-.4-.6-.8-1.2-1.3-1.7s-1.1-.8-1.8-.9c-.7 0-1.3.3-1.9.8-.5.4-.9 1-1.3 1.6v.1c-.4.6-.9 1.1-1.3 1.6-.5.4-1 .7-1.6.7-.7 0-1.2-.2-1.7-.6-.5-.4-1-.9-1.5-1.5s-1-1.2-1.6-1.6c-.6-.4-1.3-.8-2.2-.8-1.6 0-2.7 1.3-3.7 2.4-.5.6-.9 1.1-1.5 1.5-.5.4-1 .6-1.7.6v.6c.8 0 1.4-.3 2-.7.6-.4 1.1-1 1.5-1.5.8-1.2 1.8-2.3 3.1-2.3z" class="Vector_7"/>
    <path fill="#EAEAEA" d="M733.2 283.6c.7.7 1.5 1.2 2.3 1.2.6 0 1.1-.2 1.7-.6.6-.4 1-.9 1.5-1.5 1-1.1 2-2.3 3.7-2.4.8 0 1.5.3 2.2.8.6.5 1.1 1 1.6 1.6.5.6 1 1.1 1.5 1.5.5.4 1.1.6 1.7.6.3 0 .5-.1.7-.1v-3.8c0-5.5-2-10.7-5.4-14.8-.6-.7-1.2-1.4-1.9-2.1h-.4c-1.3 0-2.3 1.1-3.3 2.2-.5.5-1 1.1-1.5 1.5-.6.4-1.2.7-2 .7-1 0-1.9-.6-2.7-1.4-.7-.8-1.3-1.7-1.8-2.6l.5-.3c.5.8 1 1.8 1.7 2.5s1.5 1.2 2.3 1.2c.6 0 1.1-.2 1.7-.6.5-.4 1-.9 1.5-1.5.9-1 2-2.3 3.5-2.3-4.4-4.1-10.3-6.9-16.9-7.7-1.7 6.4-3.2 12.6-4.2 18.6-.4 2.2-.7 4.4-.9 6.6h9.4v4.7h-9.8c-.4 7 .3 13.3 2.5 18.4h7.2v4.7h-4.4c.8 1 1.7 2 2.8 2.9 1.2 1 2.4 1.8 3.8 2.5 4.3 2.3 9.4 3.2 14.1 3.6 0 1.2.1 2.4.3 3.7.8-1.1 1.4-2.3 2-3.6.8-1.8 1.4-3.7 1.7-5.7.2-1.1.3-2.3.3-3.5v-6c-.2.1-.4.1-.7.1-.8 0-1.5-.3-2.1-.7-.6-.4-1.1-1-1.6-1.6-.5-.6-1-1.1-1.5-1.5-.3-.2-.5-.3-.8-.5-.3-.1-.7-.2-1-.2-1.3 0-2.3 1-3.3 2.2-.5.5-1 1.1-1.5 1.5-.6.4-1.2.7-2 .7-1 0-1.9-.6-2.7-1.4-.7-.8-1.3-1.7-1.8-2.6l.5-.3c.5.8 1 1.8 1.7 2.5s1.5 1.2 2.3 1.2c.6 0 1.1-.2 1.7-.6.5-.4 1-.9 1.5-1.5 1-1.1 2-2.3 3.7-2.4.5 0 .9.1 1.3.3.3.1.6.3.8.5.6.5 1.1 1.1 1.6 1.6.5.6 1 1.1 1.5 1.5.5.4 1.1.6 1.7.6.3 0 .5-.1.7-.2v-16.6c-.2.1-.4.1-.7.1-.8 0-1.5-.3-2.1-.7-.6-.4-1.1-1-1.6-1.6-.5-.6-1-1.1-1.5-1.5-.5-.4-1.1-.7-1.8-.6-1.3 0-2.3 1.1-3.3 2.2-.5.5-1 1.1-1.5 1.5-.6.4-1.2.7-2 .7-1 0-1.9-.6-2.7-1.4-.7-.8-1.3-1.7-1.8-2.6l.5-.3c.2.9.8 1.9 1.5 2.6z" class="Vector_8"/>
    <path fill="#fff" d="M727.901 311.4c1.2 1 2.4 1.8 3.8 2.5-6.5 7.4-14.3 14.4-23.5 20h-23.2c0-8.1.2-16.2-.2-21.6 6.2-.1 13.3-.6 19-3.8h21.4c.7 1.1 1.6 2 2.7 2.9z" class="Vector_9"/>
    <path fill="#fff" d="M721.2 255.3c1.4 0 2.8.1 4.1.3-1.7 6.4-3.2 12.6-4.2 18.6-1.9.6-3.8 1.1-5.7 1.6-.5-6.6-1.7-13.5-3.3-20.4h9.1v-.1z" class="Vector_10"/>
    <path fill="#fff" d="M722.3 303.8h-12.8c3.8-4.6 5.6-11 6-18.4h4.3c-.4 7.1.3 13.3 2.5 18.4z" class="Vector_11"/>
    <path fill="#fff" d="M721.1 274.1c-.4 2.2-.7 4.4-.9 6.6h-4.6c0-1.6-.1-3.3-.2-5 1.9-.5 3.8-1.1 5.7-1.6z" class="Vector_12"/>
    <path fill="#fff" d="M714.6 62.6c2.6 0 4.7 2.1 4.7 4.7s-2.1 4.7-4.7 4.7-4.7-2.1-4.7-4.7 2.1-4.7 4.7-4.7z" class="Vector_13"/>
    <path fill="#fff" d="M683.1 83.1h28.7s-5.3 11.9-15 11.9-13.7-11.9-13.7-11.9z" class="Vector_14"/>
    <path fill="#fff" d="M708.8 416.5V444c0 1.2-.1 2.4-.3 3.6H470l-1.9-10.9 12.4-12.1-17.1-2.5-7.7-15.5-7.6 15.5-17.1 2.5 12.4 12.1-1.9 10.9h-33.8c-.2-1.2-.3-2.4-.3-3.6v-27.6c0-14.1 11.4-25.5 25.5-25.5h191.9c-.2 2.7.5 5.6 2.3 7.5 3.6 3.7 13.3 5.2 13.3 5.2l53.6-.5.1.1 10.8-.1c2.5 3.9 3.9 8.5 3.9 13.4zm-24.7 27.7v-4.8h-91.8v4.8h91.8zm0-11.6v-4.8h-91.8v4.8h91.8zm0-11.6v-4.7h-91.8v4.7h91.8zm-98.4 23.2v-4.8h-37.8v4.8h37.8zm0-11.6v-4.8h-37.8v4.8h37.8zm0-11.6v-4.7h-37.8v4.7h37.8zm-44.4 23.2v-4.8h-37.8v4.8h37.8zm0-11.6v-4.8h-37.8v4.8h37.8zm0-11.6v-4.7h-37.8v4.7h37.8zM495 443.4v-4.8h-6v4.8h6zm0-11.5v-4.8h-6v4.8h6zm0-11.6v-4.8h-6v4.8h6z" class="Vector_15"/>
    <path fill="#fff" d="M708.499 447.6c-1.7 12.4-12.4 22-25.3 22h-250.2c-12.9 0-23.5-9.5-25.3-22h33.8l-1.1 6.2 11.8-6.2h7.1l11.8 6.2-1.1-6.2h238.5z" class="Vector_16"/>
    <path fill="#fff" d="M704.999 403s0 .1.1.1l-10.8.1c0-.1-.1-.1-.1-.1l10.8-.1z" class="Vector_17"/>
    <path fill="#EAEAEA" d="M685.3 391c-.7-.1-1.3-.1-2-.1h-58.4c-.2 2.7.5 5.6 2.3 7.5 3.6 3.7 13.3 5.2 13.3 5.2l53.6-.5 10.9-.1c-4.2-6.7-11.4-11.3-19.7-12z" class="Vector_18"/>
    <path fill="#fff" d="M682.001 62.6c2.6 0 4.7 2.1 4.7 4.7s-2.1 4.7-4.7 4.7-4.7-2.1-4.7-4.7 2.1-4.7 4.7-4.7z" class="Vector_19"/>
    <g class="Group">
      <path fill="#BDCDF4" d="M700.5 217.9c-5.9-16.3-12.1-33.1-20.3-33-8 .1-13.6 16.4-19.9 35.3-3.5 10.6-7.3 22-10.2 33h61.4c-3.3-13.8-8-26.9-11-35.3z" class="Vector_20"/>
      <path fill="#BDCDF4" d="M685.199 343.8c-.1-2.5-.2-5.2-.2-7.9h-10.6c.1 4.7.1 7 .1 10 0 2.5-.1 5.6-.1 10.9 0 1.6-.1 3.2-.2 4.8 2.1 4.1 2.5 7.7 3 7.6.5-.1-.6-3.9.8-8.1.2-.4 1.8-4.9 6-6.6.7-.3 1.5-.5 2.3-.6-.1-.6-.1-1.2-.2-1.9-.6-2.4-.8-5.3-.9-8.2z" class="Vector_21"/>
    </g>
    <g class="Group_2">
      <path fill="#EAEAEA" d="M684.2 308.5h-26.8c4.9 2.5 10.7 3.4 16 3.7-.2 5.8.7 13 .8 20.8v.9h10.6c0-8.1.2-16.2-.2-21.6 6.2-.1 13.3-.7 19-3.8h-19.4z" class="Vector_22"/>
      <path fill="#EAEAEA" d="M692.2 280.7h23.4c0-1.6-.1-3.3-.2-5-.5-6.6-1.7-13.5-3.3-20.4h-62.4c-2.3 9-3.9 17.6-4.2 25.4h46.7z" class="Vector_23"/>
      <path fill="#EAEAEA" d="M677.8 285.4h-32.4c.1 2.4.3 4.7.7 6.8h52.8v4.8h-51.7c.4 1.2.9 2.3 1.5 3.3 0 .1.1.2.1.3.7 1.2 1.4 2.3 2.3 3.3h58.1c3.8-4.6 5.6-11 6-18.4h-37.4v-.1z" class="Vector_24"/>
    </g>
    <path fill="#fff" d="M571.6 255.3h78.1c-2.3 9-3.9 17.6-4.2 25.4h-49.7v2.9c-8.7-8.1-16.4-17.9-24.2-28.3z" class="Vector_25"/>
    <path fill="#fff" d="M647.5 297c.4 1.2.9 2.3 1.5 3.3-8.8 2.5-17.3 2.9-25.1.3-3.1-1-6.1-2.2-8.9-3.6h32.5z" class="Vector_26"/>
    <path fill="#fff" d="M646.2 292.2h-39.4c-3.1-2.1-6-4.3-8.8-6.8h47.5c0 2.4.3 4.7.7 6.8z" class="Vector_27"/>
    <path fill="#fff" d="M623.8 300.9c7.9 2.6 16.4 2.2 25.3-.4.7 1.2 1.4 2.3 2.3 3.3h-55.5v4.7h61.6c4.9 2.5 10.7 3.4 16 3.7-.2 5.8.7 13 .8 20.8v.9h-67.4c-13.2-6.6-25.5-15.3-37.2-25.4h18.8v-4.7h-24.2c-2.4-2.2-4.9-4.5-7.2-6.8h31.4v-4.8h-36.2c-2.2-2.2-4.4-4.5-6.6-6.8h42.8v-4.8h-47.2c-7.6-8.3-15-16.9-22.3-25.4h52.4c7.9 10.6 15.7 20.5 24.5 28.5v1.6h1.8c2.8 2.5 5.7 4.8 8.7 6.8h-10.5v4.8h18.5c2.9 1.6 6.1 3 9.4 4z" class="Vector_28"/>
    <path fill="#fff" d="M617 163.2c1.3 1.4 3 2.4 4.8 2.5 1.4 0 2.6-.5 3.6-1.3s1.9-1.8 2.7-2.8v-.1c1.8-2.1 3.5-3.9 5.9-3.9.5 0 .9 0 1.3.2v14.9c0 14.1-11.4 25.5-25.5 25.5h-86.6c-5.1-4.3-10.6-8.3-16.6-11.9-9.3-5.6-19.8-10.2-31.8-13.4h128.6v-4.8h-163c-3.3-.1-6.6-.1-10.1 0h-23.9v1.8c-7.2.8-14.4 1.9-21.4 3.1 4.4-3.1 7.2-8.3 7.2-14.1 0-9.6-7.8-17.3-17.3-17.3-9.6 0-17.3 7.8-17.3 17.3 0 8.2 5.7 15 13.3 16.8-11.6 2.5-22.9 5.5-33.9 8.8-1.9-3.6-2.9-7.6-2.9-11.9V145c0-14.1 11.4-25.5 25.5-25.5h250.3c14.1 0 25.5 11.4 25.5 25.5v11.6c-.4-.1-.9-.2-1.4-.1-2.9.1-4.9 2.3-6.6 4.2-.9 1-1.7 2-2.6 2.7-.9.7-1.8 1.1-2.9 1.1-1.5 0-2.9-.9-4.1-2.2-1.2-1.3-2.3-2.9-3.1-4.4l-.9.5c.8 1.6 1.9 3.4 3.2 4.8zm-13.6-1.9v-4.8H406.5v4.8h196.9zm0-11.5V145H406.5v4.8h196.9z" class="Vector_29"/>
    <path fill="#fff" d="M623.799 300.6c7.8 2.6 16.3 2.2 25.1-.3 0 .1.1.2.1.3-8.9 2.6-17.4 2.9-25.3.4-3.3-1.1-6.5-2.4-9.5-3.9h.6c3 1.3 5.9 2.5 9 3.5z" class="Vector_30"/>
    <path fill="#fff" d="M606.8 333.9H439.9c-15.9 0-28.8-11.5-28.8-25.5v-27.6c0-14.1 12.9-25.5 28.8-25.5H519c7.3 8.5 14.7 17.1 22.3 25.4h-39.4v4.8h43.8c2.2 2.3 4.4 4.6 6.6 6.8h-50.4v4.8h55.2c2.4 2.3 4.8 4.6 7.2 6.8h-62.5v4.7h67.8c11.7 10 24 18.7 37.2 25.3zm-111.3-25.4v-4.7H490v4.7h5.5zm0-11.5v-4.8H490v4.8h5.5zm0-11.6v-4.8H490v4.8h5.5zm-14.1-7.9l-.2-.4-.2-.5-.9.5h-46.6l-1-.5-.2.5-.2.4.2.1v34.6h48.9v-34.6l.2-.1z" class="Vector_31"/>
    <path fill="#fff" d="M606.8 292.2h-.5c-3-2.1-5.9-4.3-8.7-6.8h.3c2.9 2.5 5.8 4.8 8.9 6.8z" class="Vector_32"/>
    <path fill="#fff" d="M595.801 283.5v.3c-8.8-8.1-16.6-18-24.5-28.5h.2c7.9 10.4 15.6 20.2 24.3 28.2z" class="Vector_33"/>
    <g class="Group_3">
      <path fill="#B3BEE2" d="M684.9 335.9c0 2.7.1 5.3.2 7.9 7.1-1.9 13.6-4.6 19.5-7.9h-19.7z" class="Vector_34"/>
      <path fill="#B3BEE2" d="M611 335.9c9.1 4.1 18.6 7.3 28.6 9.1 12.8 2.3 24.3 2.5 34.7 1 0-3 0-5.4-.1-10H611v-.1z" class="Vector_35"/>
      <path fill="#B3BEE2" d="M525.3 200.3H469c16.2 14.9 31.9 33.8 48.3 53h52.6c-13.2-17.8-26.5-37.2-44.6-53z" class="Vector_36"/>
    </g>
    <path fill="#fff" d="M522.901 198.3h-56.1c-13.1-11.8-26.6-20.9-41-25.4h39.9c12.2 2.2 26.2 6.3 41 13.7 5.8 3.6 11.2 7.5 16.2 11.7z" class="Vector_37"/>
    <path fill="#fff" d="M506.6 186.6c-14.8-7.4-28.8-11.6-41-13.7h9.1c12 3.2 22.5 7.8 31.8 13.4 6 3.6 11.5 7.6 16.6 11.9h-.4c-4.8-4.1-10.2-8-16.1-11.6.1 0 .1 0 0 0z" class="Vector_38"/>
    <path fill="#fff" d="M481.199 277l.2.5-.2.1v-.6z" class="Vector_39"/>
    <path fill="#fff" d="M481 276.6l.2.4h-1.1l.9-.4z" class="Vector_40"/>
    <path fill="#fff" d="M465.3 296.5a2.2 2.2 0 100-4.4 2.2 2.2 0 000 4.4z" class="Vector_41"/>
    <path fill="#fff" d="M466.8 198.3H359.7c-9.8 0-18.3-5.5-22.6-13.7 10.9-3.3 22.2-6.3 33.9-8.8 1.3.3 2.7.5 4.1.5 3.8 0 7.3-1.2 10.1-3.3 7-1.2 14.1-2.3 21.4-3.1v3h19.3c14.3 4.5 27.8 13.6 40.9 25.4z" class="Vector_42"/>
    <path fill="#fff" d="M463.8 425.8c1.2 0 2.2 1 2.2 2.2 0 1.2-1 2.2-2.2 2.2-1.2 0-2.2-1-2.2-2.2 0-1.2 1-2.2 2.2-2.2z" class="Vector_43"/>
    <path fill="#fff" d="M450.5 301.7h13.4s-1.9 4.8-6.7 4.8c-4.5 0-6.7-4.8-6.7-4.8z" class="Vector_44"/>
    <path fill="#fff" d="M449.1 435.4h13.4s-2.5 5.5-7 5.5c-4.5.1-6.4-5.5-6.4-5.5z" class="Vector_45"/>
    <path fill="#fff" d="M459.299 447.6h-7.1l3.6-1.9 3.5 1.9z" class="Vector_46"/>
    <path fill="#fff" d="M457.201 289.4l-24.9-11.8v-.6h1.2l23.7 11.3 22.9-11.3h1.1v.6l-24 11.8z" class="Vector_47"/>
    <path fill="#fff" d="M450.001 296.5a2.2 2.2 0 100-4.4 2.2 2.2 0 000 4.4z" class="Vector_48"/>
    <path fill="#fff" d="M448.6 430.2a2.2 2.2 0 100-4.4 2.2 2.2 0 000 4.4z" class="Vector_49"/>
    <path fill="#fff" d="M440.5 168.2h-10.1c3.4-.1 6.8-.1 10.1 0z" class="Vector_50"/>
    <path fill="#fff" d="M433.501 277h-1.2l.2-.4 1 .4z" class="Vector_51"/>
    <path fill="#fff" d="M432.3 277v.6l-.2-.1.2-.5z" class="Vector_52"/>
    <path fill="#ED9A4D" d="M385.4 500.5l-2.3-9.9h1.2l2.7 9.3c-.2.1-.4.1-.6.2-.2.1-.4.2-.7.3-.2 0-.2 0-.3.1z" class="Vector_53"/>
    <path fill="#F6BF8D" d="M382.999 490.6l2.3 9.9-3.6-9.9h1.3z" class="Vector_54"/>
    <path fill="#fff" d="M383.001 157.3a2.2 2.2 0 100-4.4 2.2 2.2 0 000 4.4z" class="Vector_55"/>
    <path fill="#F6BF8D" d="M383.301 516.8c.2-.2.4-.3.6-.5-.2.2-.4.4-.6.5z" class="Vector_56"/>
    <path fill="#F6BF8D" d="M382 486l1.1 4.6h-1.3c-1.7-.1-3.4-.3-5.2-.6 1.4-.7 2.8-1.7 4.1-2.8.2-.1.4-.3.6-.5.2-.2.4-.3.6-.5-.1-.1 0-.2.1-.2z" class="Vector_57"/>
    <path fill="#F6BF8D" d="M381.899 486l-.2.2.2-.2z" class="Vector_58"/>
    <path fill="#fff" d="M368.301 162.5h13.4s-2.5 5.6-7 5.6-6.4-5.6-6.4-5.6z" class="Vector_59"/>
    <path fill="#F6BF8D" d="M380.6 487.2c.2-.2.4-.3.6-.5-.2.2-.4.3-.6.5z" class="Vector_60"/>
    <path fill="#F6BF8D" d="M381.3 486.4c.2-.1.4-.3.6-.5l-.2.2c-.2.2-.4.3-.6.5-.2.2-.4.3-.6.5-1.3 1.1-2.7 2-4.1 2.8-.6.3-1.2.6-1.9.9 3-1.3 5.4-3 6.8-4.4z" class="Vector_61"/>
    <path fill="#F6BF8D" d="M380.801 517.4c.1 0 .2.1.3.1-.1 0-.2 0-.3-.1z" class="Vector_62"/>
    <path fill="#F6BF8D" d="M379.9 517.1c.1.1.2.1.3.2-.1-.1-.2-.2-.3-.2z" class="Vector_63"/>
    <path fill="#F6BF8D" d="M379.4 516.7c.1.1.2.1.3.2-.2-.1-.2-.1-.3-.2z" class="Vector_64"/>
    <path fill="#F6BF8D" d="M379 516.5c.1.1.2.1.3.2 0-.1-.2-.1-.3-.2z" class="Vector_65"/>
    <path fill="#F6BF8D" d="M377.801 515.5c.4.3.8.7 1.2 1-.4-.3-.8-.6-1.2-1z" class="Vector_66"/>
    <path fill="#F6BF8D" d="M377.199 515c.2.2.4.3.6.5-.2-.1-.4-.3-.6-.5z" class="Vector_67"/>
    <path fill="#F6BF8D" d="M376.5 514.4c.1.1.3.2.4.4-.1-.1-.3-.2-.4-.4z" class="Vector_68"/>
    <path fill="#F6BF8D" d="M374.801 513.1c.4.3.9.7 1.3 1.1-.4-.4-.8-.8-1.3-1.1z" class="Vector_69"/>
    <path fill="#F6BF8D" d="M374.801 513c-.2-.1-.4-.3-.5-.4.2.2.3.3.5.4z" class="Vector_70"/>
    <path fill="#F6BF8D" d="M373.199 511.9c.3.2.7.4 1 .7-.3-.3-.6-.5-1-.7z" class="Vector_71"/>
    <path fill="#F6BF8D" d="M373.199 511.9c-.2-.1-.3-.2-.5-.3.1.1.3.2.5.3z" class="Vector_72"/>
    <path fill="#ED9A4D" d="M367.1 493.8l5.4 17.7-.3-.1c-.1 0-.1 0-.2-.1H371.7c-.3 0-.5.1-.7.2-.1 0-.1.1-.2.2-.4.4-.6 1.3-.7 2.5-.8-.7-1.6-1.3-2.3-1.8l-.7-18.6z" class="Vector_73"/>
    <path fill="#fff" d="M367.8 152.9c1.2 0 2.2 1 2.2 2.2 0 1.2-1 2.2-2.2 2.2-1.2 0-2.2-1-2.2-2.2 0-1.2 1-2.2 2.2-2.2z" class="Vector_74"/>
    <path fill="#F6BF8D" d="M383.3 516.8c-.7.5-1.3.8-2 .8h-.3c-.1 0-.2-.1-.3-.1-.2 0-.4-.1-.5-.2-.1 0-.2-.1-.3-.2-.1 0-.2-.1-.3-.2-.1-.1-.2-.1-.3-.2-.1-.1-.2-.1-.3-.2-.4-.3-.8-.6-1.2-1-.2-.2-.4-.3-.6-.5l-.3-.3-.4-.4-.3-.3c-.4-.4-.9-.8-1.3-1.1-.2-.2-.4-.3-.5-.4-.4-.3-.7-.5-1-.7h-.1c-.2-.1-.3-.2-.5-.3-.1 0-.2-.1-.3-.1l-5.4-17.7-.5-1.5c2.8.3 5.5-.4 7.9-1.4.1 0 .1-.1.2-.1.6-.3 1.2-.5 1.9-.9 1.8.3 3.6.6 5.2.6l3.6 9.9c-1.1.5-2.1 1-2.7 1.4-.1.1-.2.1-.3.2-.3.1-.4.2-.4.2l6.5 7.1s-2.2 4.7-4.6 7c-.2.3-.4.5-.6.6z" class="Vector_75"/>
    <path fill="#F6BF8D" d="M305.6 318.8c-.1-.1-.3-.1-.4-.1-1.6-.6-2.3-4.3-3.8-5.9 1.9 1.5 3.4 3.6 4.2 6z" class="Vector_76"/>
    <path fill="#F6BF8D" d="M300.599 312.1c-1.8-.7-7.2-.2-8.8-1-.8-.4-1.5-.8-2.1-1.3v-.1h3.5c2.7.1 5.3.9 7.4 2.4z" class="Vector_77"/>
    <path fill="#F6BF8D" d="M289.7 300.4s2.8.6 6.3.5c1.6 0 8.5 4.1 11.7 6.7 4.1 3.4 2.5 10.9 2.2 11.3-.2.3-1.3.8-4.3-.2-.8-2.4-2.3-4.5-4.2-6.1-.2-.3-.5-.5-.8-.6-2.1-1.5-4.7-2.3-7.4-2.3h-3.5l-2.1-9.3c1-.2 2.1 0 2.1 0z" class="Vector_78"/>
    <path fill="#F6BF8D" d="M287.501 300.5l2.1 9.3h-.1c-3-2.3-4.8-5.5-4.7-6.6.2-1.8 1.5-2.5 2.7-2.7z" class="Vector_79"/>
    <path fill="#F6BF8D" d="M289.599 309.8h-37.3l-1.6-5.9c7.2-7.6 10.3-19 10.8-32.1l.9 29 25-.4c-1.2.2-2.4.9-2.6 2.8 0 1.1 1.8 4.3 4.8 6.6z" class="Vector_80"/>
    <path fill="#F6BF8D" d="M289.4 324.8c-.9.5-2.5 1.1-5.3 1.4-1.7.2-3.6-1.1-5.5-2.1h6.5c1.6 0 3 .2 4.3.7z" class="Vector_81"/>
    <path fill="#F6BF8D" d="M249.6 324.1h21.6c-3.4 1.6-7.9 4.1-9.7 4.1-4.9-.1-9.4-2.2-11.9-4.1z" class="Vector_82"/>
    <path fill="#F6BF8D" d="M262.301 184.3c.7 1.7-.1 3.7-1.9 4.3-1.5-.9-2.6-3-3.1-5.7.6-3.1 1.2-6.2 1.7-9l3.3 10.4z" class="Vector_83"/>
    <path fill="#E3E8F5" d="M261.5 269.9c0 .6 0 1.3-.1 1.9v-.6l.1-1.3h-.1.1z" class="Vector_84"/>
    <path fill="#F6BF8D" d="M261.5 271.3v.5c-.5 13.1-3.6 24.5-10.8 32.1l-.1-.3 4.9-31.1 6-1.2z" class="Vector_85"/>
    <path fill="#F6BF8D" d="M261.4 269.9l-5 .4 5-.4z" class="Vector_86"/>
    <path fill="#F6BF8D" d="M260.5 188.5c-.1.1-.3.1-.4.1l-4.1.8c.5-2.2 1-4.4 1.4-6.6.4 2.7 1.5 4.8 3.1 5.7z" class="Vector_87"/>
    <path fill="#F6BF8D" d="M259.1 173.8c-.5 2.9-1.1 6-1.7 9-.3-1.6-.3-3.4-.1-5.2.2-1.9.7-3.6 1.4-5.1l.4 1.3z" class="Vector_88"/>
    <path fill="#F6BF8D" d="M256.6 178.6l1.5-8 .6 1.9c-.7 1.5-1.2 3.2-1.4 5.1-.2 1.9-.2 3.6.1 5.2-.5 2.3-.9 4.5-1.4 6.6l-1.4.3 2-11.1z" class="Vector_89"/>
    <path fill="#F6BF8D" d="M256.201 177.5c.7-5.9-1.3-11-4.6-11.4-3.3-.4-6.5 4-7.3 9.9-.3 2.7-.1 5.3.6 7.3l-1.7.6c-1.8-5.3-3.6-10.1-5-14.2-.3-.9-.6-1.7-.9-2.6.3-.8.6-1.5.8-2.2.2-.4.3-.8.5-1.1.2-.4.3-.7.5-.9.1-.1.2-.3.3-.4 0-.1.1-.1.1-.2l.2-.2.3-.3c.1-.1.2-.1.3-.2.2-.1.3-.2.5-.3.3-.2.7-.3 1.1-.5.1-.1.3-.1.4-.1.4-.1.8-.3 1.3-.4.3-.1.6-.2.9-.2 1-.2 2.1-.4 3.3-.6 3.8-.5 9.6-1.1 13.8-1.3-.1.5-.8 5.7-2 12.5-.3.5-.6 1.1-.9 1.7l-.6-1.9-1.5 8-.6-.1c.1-.2.1-.6.2-.9z" class="Vector_90"/>
    <path fill="#E3E8F5" d="M256.101 227.6c-1.8-1.9-3.8-3.1-5-3.6l-5.3-2.6c2.6-1.2 5.2-2.5 7.8-3.7 1 3.3 1.8 6.6 2.5 9.9z" class="Vector_91"/>
    <path fill="#F6BF8D" d="M248.899 187.4c3.1.4 6.2-3.5 7.1-8.9l.6.1-2 11.1 1.4-.3c-.4 1.6-.7 3.1-1.1 4.5h-.1c-.2-.2-.6-.1-.7.2 0 0-1.1 1.8-4.5 1.1-2.6-.5-3.3-2.9-3.3-3.1-.1-.2-.2-.3-.4-.4-.9-2.8-1.8-5.4-2.7-8l1.7-.6c.8 2.5 2.2 4.1 4 4.3z" class="Vector_92"/>
    <path fill="#F6BF8D" d="M254.401 270.5l-7.6 33.5 7.6-33.5z" class="Vector_93"/>
    <path fill="#F6BF8D" d="M251 196.4c1.9 0 3-.7 3.5-1.3-1.4 5.3-2.9 9.4-4.3 10.6-1.1-3.7-2.2-7.3-3.3-10.7.6.5 1.4 1 2.4 1.2.7.2 1.2.2 1.7.2z" class="Vector_94"/>
    <path fill="#F6BF8D" d="M252.3 315.6l-1.2 8.1h-2c-.7-.6-1.2-1.1-1.3-1.6-1.8-4.7 4.5-6.5 4.5-6.5z" class="Vector_95"/>
    <path fill="#F6BF8D" d="M271.2 324.1h-21.6c-.2-.1-.3-.3-.5-.4h2l1.2-8.1s4-1 8.4-3.1c2-1 13.4.1 19.1 1.5 7.3 1.8 10.7 8.9 10.6 9.7 0 .2-.3.6-1.1 1.1-1.3-.5-2.8-.7-4.3-.7h-6.5c-1.3-.7-2.6-1.2-3.9-1.2-.7.1-1.9.5-3.4 1.2z" class="Vector_96"/>
    <path fill="#F6BF8D" d="M250.501 315.4c0-.1-.1-.2-.1-.2l1.9.4s-6.3 1.8-4.5 6.5c.2.4.6 1 1.3 1.6h-35c-.1-3.1-.2-5.9-.3-8.3 6-.1 12.6-.5 18.9-2l17.8 2z" class="Vector_97"/>
    <path fill="#F6BF8D" d="M239.7 208.9c0-.3 0-.7-.1-1.1 0 .4 0 .8.1 1.1z" class="Vector_98"/>
    <path fill="#F6BF8D" d="M239.6 207.9c0-.3-.1-.6-.1-1 0 .3.1.7.1 1z" class="Vector_99"/>
    <path fill="#F6BF8D" d="M239.6 212.2c0 .4-.1.7-.1 1.1.1-.4.1-.8.1-1.1z" class="Vector_100"/>
    <path fill="#F6BF8D" d="M239.4 214.7c0-.2 0-.5.1-.7 0 .4-.1.8-.1 1.2v-.5z" class="Vector_101"/>
    <path fill="#F6BF8D" d="M239.299 205.1l-2.1-.6c-.4-.1-.7-.2-1-.3-1.1-.4-2.2-.8-3.2-1.1-.3-.1-.5-.2-.8-.3-.3-.1-.6-.2-.9-.4-3.8-1.5-6.8-3-7.4-3.7-.6-.6-1.1-1.8-1.6-3.1l.2-.2c3.8-5.4-1.7-11.3-3.8-16.7.7-.4 1.5-.7 2.4-1 5.9-1.6 12.1 2.3 13.8 8.8 1.2 4.7 3.4 12.2 4.4 18.6z" class="Vector_102"/>
    <path fill="#E3E8F5" d="M239.1 218c.1-.9.2-1.9.3-2.7 0-.4.1-.8.1-1.2 0-.3.1-.5.1-.7 0-.4.1-.8.1-1.1.1-.6.1-1.1.1-1.8v-1-.5c0-.3 0-.7-.1-1.1 0-.3-.1-.6-.1-1-.1-.5-.1-1-.2-1.5v-.3c4.4 1.3 8.6 1.9 10.6 1 .1-.1.3-.2.4-.3 1.2 3.9 2.3 7.9 3.4 12-2.6 1.2-5.3 2.5-7.8 3.7l-6.8-3.4-.1-.1z" class="Vector_103"/>
    <path fill="#F6BF8D" d="M239.1 218.1c-.2 2.2-.5 4.6-.8 6.8v.2c-2.6 1.3-5.2 2.5-7.8 3.8-2.9-2.4-7-5.4-12.4-8.6h-.1c-.1-.1-.3-.2-.5-.3-1.6-.9-4.4-2.4-4.4-4.4v-.2c1.9-1.4 2.6-2.7 3-3.9-1.1.1-2.2.3-3.5.6 1.7-2.6 2.4-5.5 2.6-6.7 0-.8.1-1.9.1-3.2 1.3-.8 3.7-2.7 4-4.2 1.1-.7 2.1-1.5 2.8-2.4.4 1.3.9 2.5 1.6 3.1.6.6 3.6 2.2 7.4 3.7 3.5 4.4 7.3 10.1 7.5 13.6.1.9.2 1.6.4 2 .1 0 .1 0 .1.1z" class="Vector_104"/>
    <path fill="#F6BF8D" d="M238.201 225.1c0 .2-.1.3-.1.4-.1.8-.3 1.6-.4 2.3v.1c-.2 1-.5 2-.8 2.8-.1.3-.2.5-.3.8 0 .1-.1.2-.2.4-.1.1-.1.2-.2.3-.3.5-.6.9-.9 1.2 0 0-1.7-1.8-5-4.5 2.7-1.3 5.3-2.5 7.9-3.8z" class="Vector_105"/>
    <path fill="#E3E8F5" d="M233.1 180.7l.2.2-.2-.2z" class="Vector_106"/>
    <path fill="#E3E8F5" d="M233 180.6c.1.1.1.1 0 0 .1.1.1.1 0 0z" class="Vector_107"/>
    <path fill="#F6BF8D" d="M234.801 186.4c-1.7-6.4-7.9-10.4-13.8-8.8-.9.2-1.7.6-2.4 1-.5-1.2-.8-2.4-.8-3.5v-.2c0-.5.1-.9.2-1.3.1-.2.1-.4.2-.6 1.7-4.6 7.9.6 11.9 4.4.2.1.3.3.4.4l.4.4c1 1 1.8 1.9 2.2 2.3l.1.1.2.2s.4-1.8 1-4.2c.1-.3.2-.7.3-1 .1-.5.3-1 .4-1.5.5-1.6 1-3.4 1.5-5.1.2-.5.3-1 .5-1.5.1-.2.1-.4.2-.6.3.9.6 1.7.9 2.6 1.5 4.1 3.2 8.8 5 14.2.9 2.5 1.8 5.2 2.7 8h-.2c-.3.1-.4.3-.4.6 0 .1.4 1.5 1.6 2.6 1.1 3.4 2.2 7 3.3 10.7-.1.1-.3.2-.4.3-2 .9-6.2.3-10.6-1-.9-6.2-3.1-13.7-4.4-18.5z" class="Vector_108"/>
    <path fill="#F6BF8D" d="M213.4 311.3l19.4 2.2c-6.3 1.5-12.9 1.9-18.9 2-.1-1.6-.3-3-.5-4.2z" class="Vector_109"/>
    <path fill="#E3E8F5" d="M233.001 180.6c-.4-.4-1.2-1.3-2.2-2.3 1.1 1 1.8 1.9 2.2 2.3z" class="Vector_110"/>
    <path fill="#E3E8F5" d="M230.4 177.9c-.1-.2-.3-.3-.4-.4.2.1.3.3.4.4z" class="Vector_111"/>
    <path fill="#E3E8F5" d="M218.1 173c-.1.2-.1.4-.2.6.1-.2.2-.4.2-.6z" class="Vector_112"/>
    <path fill="#E3E8F5" d="M218.001 173.6c-.1.4-.1.8-.2 1.3 0-.5.1-.9.2-1.3z" class="Vector_113"/>
    <path fill="#E3E8F5" d="M214.7 366.7c-.2-.1-.5-.2-.7-.3.2.1.5.2.7.3z" class="Vector_114"/>
    <path fill="#F6BF8D" d="M214.2 323.7h-19.7c-.1-.8-.3-1.6-.4-2.4V315c5.1.4 10 .4 14 .4h5.7c.3 2.5.3 5.2.4 8.3z" class="Vector_115"/>
    <path fill="#F6BF8D" d="M213.4 311.3c.2 1.2.3 2.6.4 4.1h-5.7c-4 0-8.9 0-14-.4v-5.3h18l.1 1.3 1.2.3z" class="Vector_116"/>
    <path fill="#E3E8F5" d="M212.999 366c-.3-.1-.5-.2-.8-.3.3 0 .5.1.8.3z" class="Vector_117"/>
    <path fill="#F6BF8D" d="M194.9 307.2c3.2.1 14.7-4 17-.8l.1 3.4h-18v-.2-.2c.3-.7.6-1.5.9-2.2z" class="Vector_118"/>
    <path fill="#F6BF8D" d="M194.099 309.4c-.1-6.1-4.8-11.1-10.9-11.6l-2-18.1 29.7 4.2v-.9l1.1 23.4c-2.4-3.2-13.9.9-17 .8-.4.7-.7 1.5-.9 2.2z" class="Vector_119"/>
    <path fill="#F6BF8D" d="M194.599 323.7h-.4v-2.4c.1.8.2 1.6.4 2.4z" class="Vector_120"/>
    <path fill="#F6BF8D" d="M194.1 321.3v2.4c-4.6-.4-8.4-4-8.9-8.7l-.1-1.1c2.8.5 5.6.9 8.4 1.1 0 2 .3 4.1.6 6.3z" class="Vector_121"/>
    <path fill="#F6BF8D" d="M194.1 315.1v6.3c-.4-2.2-.6-4.3-.6-6.3.2-.1.4-.1.6 0z" class="Vector_122"/>
    <path fill="#F6BF8D" d="M194.1 309.8v5.3c-.2 0-.4 0-.6-.1 0-1.8.1-3.5.5-5.2h.1z" class="Vector_123"/>
    <path fill="#F6BF8D" d="M194.1 309.6v.2h-.1c0-.1.1-.2.1-.4v.2z" class="Vector_124"/>
    <path fill="#F6BF8D" d="M194.099 309.4c0 .1-.1.2-.1.4h-2.6c-2.4 0-4.7.7-6.6 1.8l-1.6-13.8c6.1.5 10.8 5.5 10.9 11.6z" class="Vector_125"/>
    <path fill="#F6BF8D" d="M191.5 309.8h2.6c-.4 1.7-.6 3.4-.5 5.2-2.8-.2-5.6-.6-8.4-1.1l-.3-2.3c1.9-1.1 4.2-1.8 6.6-1.8z" class="Vector_126"/>
    <path fill="#E3E8F5" d="M181.1 278l.1.4v1.2h.1l2 18.1c-.3 0-.7-.1-1-.1h-1.1l-1.8-19.8 1.7.2z" class="Vector_127"/>
    <path fill="#E3E8F5" d="M180.6 245.9l-.4 6c-1 .4-2 .8-3 1.1l-.4-5c.5-.6.9-1.4.9-2.3v-4.1c0-2-1.6-3.6-3.6-3.6h-16.6c4.5-21.1 12.1-43.8 19-64.6 9.7-29.2 18.3-54.3 30.6-54.5 6.4-.1 12.1 6.6 17.3 16.5-10.4 2.3-13.6 10.6-13.6 10.6s-12.1-1.8-13.3 7.4c-2.4 18.8 10.4 48.5 10.4 48.5s3.8-.5 7.6-2v2.2c-.1 1.3-.1 2.4-.1 3.2-.3 1.1-1 4.1-2.6 6.7-2.4.6-5.3 1.5-9.1 2.8-5.9 2-20.2 14.4-21.2 19.9-.1.1-.1.2-.2.4l-.1.1c-.1.3-.2.5-.3.8l-.3.9c-.2.6-.4 1.2-.5 1.9l-.5 7.1z" class="Vector_128"/>
    <path fill="#E3E8F5" d="M180.099 251.9l-1.3 19.5-1.6-18.3c.9-.4 1.9-.8 2.9-1.2z" class="Vector_129"/>
    <path fill="#E3E8F5" d="M166.201 256.8l3.7 41c-3.2.1-6.1 1.5-8.1 3.6-7.8-9.8-9.5-24.5-7.9-41.6 3.9-.7 8-1.7 12.3-3z" class="Vector_130"/>
    <path fill="#E3E8F5" d="M165.6 249.3l.7 7.5c-4.3 1.3-8.4 2.3-12.4 3 .3-3.4.8-6.9 1.4-10.5h10.3z" class="Vector_131"/>
    <path fill="#E3E8F5" d="M146.501 249.3c.3 3.9.5 7.7.5 11.3-2.4.2-4.6.2-6.8 0-2.9-.2-5.9-.5-8.9-1 1.5-1.7 3.1-4.3 4.7-8l-.9-.4v-1.9h11.4z" class="Vector_132"/>
    <path fill="#E3E8F5" d="M145.2 238h-17.6c-2 0-3.6 1.6-3.6 3.6v4.1c0 2 1.6 3.5 3.6 3.5h7.4v1.9c-1.7 3.9-3.4 6.7-5 8.2-2.1-.3-4.2-.7-6.3-1.1-.3-.5-.7-1-1.1-1.6-1.5-2.4-3.1-4.8-5.8-5-2.4-.2-4.2 1.6-5.8 3.6-5.1-1.4-10.2-2.9-15.4-4.7-18.2-6-36.8-13.8-52.6-21.1 4.5-21 12-43.6 18.9-64.4 9.7-29.2 18.3-54.3 30.6-54.5 12.6-.2 22.2 25.8 31.2 50.8 6.1 17.4 17.2 48.1 21.5 76.7zm-9.3-15.5l-.9-.4c-2.8 6.4-5.5 9.8-7.9 9.6-1.8-.1-3.1-2-4.5-4.1-1.5-2.4-3.1-4.9-5.8-5-2.7-.2-4.6 2.1-6.5 4.3-1.8 2.2-3.4 4.2-5.8 4.1-2.2-.1-3.6-2.1-5-4.3-1.5-2.2-3.1-4.5-5.7-4.5s-4.2 2.1-5.7 4.2c-1.5 2-3 4.1-5.4 4.2-2.4.1-4-1.8-5.8-3.8-1.8-2.1-3.8-4.3-6.7-4.3h-.1c-2.9.1-4.8 2.2-6.6 4.3-1.7 1.9-3.3 3.8-5.6 3.7-2.4-.1-4.9-2.3-7.2-6.6l-.9.5c2.5 4.7 5.3 7.1 8.1 7.1 2.7.1 4.5-2 6.3-4.1 1.8-2 3.4-3.9 5.9-4 2.5-.1 4.2 1.9 6 3.9 1.8 2.1 3.8 4.3 6.6 4.1 2.8-.2 4.5-2.4 6.1-4.6 1.5-2 2.9-3.8 4.9-3.8 2.1 0 3.4 2 4.9 4.1 1.5 2.2 3.1 4.5 5.8 4.7 2.8.1 4.7-2.2 6.6-4.4 1.8-2.1 3.4-4.1 5.6-4 2.2.2 3.7 2.4 5.1 4.6 1.4 2.2 2.9 4.5 5.3 4.6h.1c2.9.1 5.8-3.2 8.8-10.1zm-8.9-18.9v-1c-1.8-.1-3.1-2-4.5-4.1-1.5-2.4-3.1-4.8-5.8-5-2.7-.2-4.6 2.1-6.5 4.3-1.8 2.2-3.4 4.2-5.8 4.1-2.2-.1-3.6-2.1-5-4.3-1.5-2.2-3.1-4.5-5.7-4.5-2.5 0-4.2 2.1-5.7 4.2-1.5 2-3 4.1-5.4 4.2-2.4.1-4-1.8-5.8-3.8-1.9-2.1-3.8-4.3-6.8-4.3-2.9.1-4.8 2.2-6.6 4.3-1.7 1.9-3.3 3.8-5.6 3.7v1c2.7.1 4.5-2 6.3-4.1 1.8-2 3.4-3.9 5.9-4 2.6-.1 4.2 1.9 6 3.9 1.8 2.1 3.8 4.3 6.6 4.1 2.8-.2 4.5-2.4 6.1-4.6 1.5-2 2.9-3.9 4.9-3.8 2.1 0 3.4 2 4.9 4.1 1.5 2.2 3.1 4.6 5.8 4.7 2.8.1 4.7-2.2 6.6-4.4 1.8-2.1 3.4-4.1 5.6-4 2.2.1 3.7 2.4 5.1 4.6 1.6 2.3 3.1 4.6 5.4 4.7zm-10.3-33.2l.1-1c-2.7-.2-4.6 2.1-6.5 4.3-1.8 2.2-3.4 4.2-5.8 4.1-2.2-.1-3.6-2.1-5-4.3-1.5-2.2-3.1-4.5-5.7-4.5-2.6-.1-4.2 2.1-5.7 4.2-1.5 2-3 4.1-5.4 4.2-2.4.1-4-1.8-5.8-3.8-1.9-2.1-3.8-4.3-6.8-4.3v1c2.5-.1 4.2 1.9 6 3.9 1.8 2.1 3.8 4.3 6.6 4.1 2.8-.2 4.5-2.4 6.1-4.6 1.5-1.9 2.8-3.8 4.8-3.8h.1c2.1 0 3.4 2 4.9 4.1 1.5 2.2 3.1 4.5 5.8 4.7h.3c2.7 0 4.5-2.3 6.3-4.4 1.8-2.1 3.5-4.1 5.7-3.9zm-5.6-17l-.8-.6c-1.7 2.1-3.4 4.2-5.8 4.1-2.2-.1-3.6-2.1-5-4.3-1.5-2.2-3.1-4.5-5.7-4.5-2.6-.1-4.2 2.1-5.7 4.2-1.5 2-3 4.1-5.4 4.2-2.1.1-3.7-1.4-5.1-3l-.7.7c1.5 1.7 3.4 3.5 5.9 3.3 2.8-.2 4.5-2.4 6.1-4.6 1.5-2 2.9-3.8 4.9-3.8 2.1 0 3.4 2 4.9 4.1 1.5 2.2 3.1 4.6 5.8 4.7h.3c2.6-.1 4.5-2.3 6.3-4.5z" class="Vector_133"/>
    <path fill="#F25CA2" fill-rule="evenodd" d="M244 72.299c0 .4-.1.7-.2 1-1.4 5.8-3.7 10.7-3.7 10.7H111.8c.3-8 44.5-47.5 80.8-39.9 33.5 7.2 18.5 23.2 15.9 25.7 2.3-2.2 16.1-14.2 29.3-13.5 8 .5 7.9 8.7 6.2 16zm225 128H359.7c-10.7 0-20-6.1-24.5-15-1.9-3.8-3-8-3-12.5v-27.6c0-15.2 12.3-27.5 27.5-27.5h250.2c15.2 0 27.5 12.3 27.5 27.5v27.6c0 15.2-12.3 27.5-27.5 27.5H469zm-109.3-80.6c-14.1 0-25.5 11.4-25.5 25.5v27.4c0 4.3 1 8.4 2.9 11.9 4.3 8.2 12.8 13.7 22.6 13.7H610c14.1 0 25.5-11.4 25.5-25.5v-27.5c0-14.1-11.4-25.5-25.5-25.5H359.7zm11.2 56.103c1.3.3 2.7.5 4.1.5 3.8 0 7.3-1.2 10.1-3.3 4.4-3.1 7.2-8.3 7.2-14.1 0-9.6-7.8-17.3-17.3-17.3s-17.3 7.8-17.3 17.3c0 8.2 5.6 15.1 13.2 16.9zm12.1-22.9c1.2 0 2.2 1 2.2 2.2 0 1.2-1 2.2-2.2 2.2-1.2 0-2.2-1-2.2-2.2 0-1.2 1-2.2 2.2-2.2zm-1.3 9.6s-2.5 5.6-7 5.6-6.4-5.6-6.4-5.6h13.4zm-13.9-9.6c1.2 0 2.2 1 2.2 2.2 0 1.2-1 2.2-2.2 2.2-1.2 0-2.2-1-2.2-2.2 0-1.2 1-2.2 2.2-2.2zm228 130.897V280.699H729.5v4.7H595.8v-1.6zm51.7 13.2h51.6v-4.8H595.8v4.8h51.7zm10 11.502h-61.7v-4.7h133.7v4.7h-72zm113.8 58.9c.3-.9 6.5-15.5 15.3-10.3 19.947 20.696-7.903 43.41-11.439 46.293l-.001.001c-.239.195-.366.299-.36.306l-6.5-.1-51.3-.6-9.6.1c2.1 3.9 3.4 8.5 3.4 13.3v27.6c0 1.2 0 2.4-.2 3.6-1.8 13.6-13.3 24-27.3 24H433c-14 0-25.5-10.5-27.3-24-.1-1.2-.2-2.4-.2-3.6v-27.5c0-15.2 12.3-27.5 27.5-27.5H683.3c.6 0 1.3 0 1.9.1 9.2.6 17.2 5.8 21.7 13.3 9.7-10.9 11.6-21.9 7.9-25.6-3.1-3-10.4-1.7-17.4 1.7.15-.2.275-.425.4-.65.125-.225.25-.45.4-.65.4-.6.7-1.2 1-1.9l.144-.379.015-.038.04-.103.041-.107.006-.015.004-.008v-.001l.001-.001c.21-.541.405-1.045.549-1.548.05-.3.125-.575.2-.85.075-.275.15-.55.2-.85.3-1.2.4-2.4.4-3.5v-.8c-.1-.2-.1-.5-.1-.8 0-.165-.03-.3-.057-.421h-.001a1.302 1.302 0 01-.042-.279c0-.2 0-.4-.1-.7 10.4-8 23.1 2.1 23.7 2.6a3.416 3.416 0 00-.095-.109c-1.178-1.341-11.03-12.549 1.595-19.391 13.4-7.3 19.6 2.9 19.6 2.9s1-3.5 3.4-6.8c2.2-3.1 5.6-5.9 10.6-5.7 1 0 2.1.2 3.2.5 12.6 3.4 9 27.3 8.8 28.5zm-62.8 80.2c.2-1.2.3-2.4.3-3.6h-.1v-27.6c0-4.9-1.3-9.4-3.7-13.3-.1 0-.1-.1-.1-.1-4.2-6.7-11.4-11.4-19.7-12-.6-.1-1.3-.1-2-.1H432.9c-14.1 0-25.5 11.4-25.5 25.5v27.6c0 1.2.1 2.4.3 3.6 1.8 12.5 12.4 22 25.3 22h250.2c12.9 0 23.6-9.6 25.3-22zm-120-155.402h-86.6v4.8h86.6v-4.8zm-47.2-11.5h47.2v4.7h-86.6v-4.7h39.4zm-39.4 27.802h86.6v-4.7h-86.6v4.7zm-11.9-4.7h5.5v4.7H490v-4.7zm5.5-11.602H490v4.8h5.5v-4.8zm-5.5-11.5h5.5v4.8H490v-4.8zm-26.6 141.5l-7.6-15.5-7.7 15.5-17.1 2.5 12.4 12.1-1.9 10.9-1.1 6.2 11.8-6.2 3.6-1.9 3.5 1.9 11.8 6.2-1.1-6.2-1.9-10.9 12.4-12.1-17.1-2.5zm.4 3.6c1.2 0 2.2 1 2.2 2.2 0 1.2-1 2.2-2.2 2.2-1.2 0-2.2-1-2.2-2.2 0-1.2 1-2.2 2.2-2.2zm-15.2 0c1.2 0 2.2 1 2.2 2.2 0 1.2-1 2.2-2.2 2.2-1.2 0-2.2-1-2.2-2.2 0-1.2 1-2.2 2.2-2.2zm6.9 15.2c-4.5 0-6.4-5.5-6.4-5.5h13.398a1.527 1.527 0 00-.07.125c-.438.821-2.87 5.375-6.928 5.375zm-14.9-73.097c-1.4-.1-2.5-.7-3.4-1.6-.9-.9-1.7-2-2.3-3.1l-.22-.304-.02-.027c-.702-.969-1.341-1.85-2.06-2.569-.8-.7-1.6-1.2-2.6-1.2s-1.8.4-2.6 1.1c-.615.538-1.171 1.254-1.759 2.011-.177.227-.356.458-.541.689-.7 1.1-1.5 2.1-2.5 3-1 .9-2.2 1.5-3.6 1.6-1.5 0-2.7-.5-3.8-1.3-.837-.586-1.604-1.452-2.359-2.305a55.059 55.059 0 00-.745-.833l-.252-.283h-.001v-.001c-.758-.852-1.435-1.613-2.243-2.178-.9-.7-2-1.1-3.2-1.1-2.39 0-4.086 1.884-5.878 3.875l-.022.025v.1c-.8 1-1.7 2-2.7 2.8-1 .8-2.2 1.3-3.6 1.3-1.9-.1-3.5-1.1-4.8-2.5-1.4-1.3-2.5-3.1-3.3-4.6l.9-.5c.8 1.5 1.9 3.1 3.1 4.4 1.2 1.3 2.6 2.2 4.1 2.2 1.1 0 2-.4 2.9-1.1.706-.549 1.35-1.283 2.03-2.056.186-.213.376-.429.57-.644l.299-.317.014-.015c1.71-1.816 3.554-3.774 6.287-3.868 1.6-.1 2.8.5 3.9 1.3.924.672 1.707 1.556 2.468 2.414.144.163.288.326.432.486.159.177.316.354.47.529.72.815 1.407 1.595 2.23 2.171 1 .7 1.9 1.1 3.1 1 1.1 0 2-.5 2.9-1.3.667-.519 1.224-1.257 1.793-2.012.199-.264.4-.529.607-.788l.1-.1.097-.122.056-.071.074-.094.288-.37c.602-.773 1.182-1.519 1.885-2.143.9-.9 2-1.4 3.3-1.4 1.3 0 2.4.6 3.3 1.5.815.724 1.549 1.778 2.2 2.713l.008.011.09.129.102.147.068.093.171.236c.703.97 1.342 1.851 2.061 2.571.9.7 1.7 1.2 2.8 1.3 1.1.1 2.1-.3 3-1.1.9-.7 1.8-1.8 2.7-2.9.9-1.1 1.8-2.2 2.8-3 1-.8 2.2-1.4 3.6-1.3 1.3.1 2.4.8 3.3 1.7.9.9 1.7 2.1 2.4 3.2l.1.1c.7 1.1 1.4 2.1 2.1 2.9.8.8 1.5 1.3 2.4 1.3.8.1 1.9-.2 3.2-1.6 1.4-1.4 3-3.8 4.8-8l.9.4c-1.9 4.2-3.5 6.8-5 8.3-1.5 1.5-2.8 1.9-3.9 1.9-1.3 0-2.3-.7-3.1-1.6-.621-.699-1.181-1.517-1.728-2.316l-.003-.004a61.16 61.16 0 00-.469-.68l-.1-.2c-.194-.267-.382-.534-.567-.796l-.001-.002c-.578-.819-1.126-1.597-1.732-2.202-.8-.8-1.7-1.3-2.7-1.4-1-.1-2 .3-2.9 1.1-.9.7-1.8 1.8-2.7 2.9-.9 1.1-1.9 2.3-2.9 3.1-1.1.8-2.3 1.4-3.7 1.3zm-58.923 82.388a95.337 95.337 0 00-.477-1.888c0-.059-.004-.113-.008-.169-.016-.232-.034-.487.208-1.131-3.3-13.4-7.8-28.7-11.9-41.9-.05-.2-.125-.4-.2-.6-.075-.2-.15-.4-.2-.6-.7-2.2-1.4-4.4-2-6.5a6.097 6.097 0 00-.085-.297 17.916 17.916 0 00-.115-.353 9.312 9.312 0 01-.2-.65c-.15-.4-.275-.8-.4-1.199v-.001c-.125-.4-.25-.8-.4-1.2-.3-.7-.5-1.4-.7-2.099v-.001c-.056-.056-.081-.144-.109-.245l-.001-.003-.016-.057c-.01-.031-.02-.064-.032-.097a1.031 1.031 0 00-.042-.098c-.2-.7-.4-1.4-.6-2-.05-.2-.125-.425-.2-.65-.075-.225-.15-.45-.2-.65-.3-.7-.5-1.4-.7-2.1-.15-.4-.275-.775-.4-1.15-.125-.375-.25-.75-.4-1.15-.05-.2-.125-.4-.2-.6-.075-.2-.15-.4-.2-.6-.044-.132-.068-.244-.091-.345a1.44 1.44 0 00-.109-.355 619.49 619.49 0 00-1.409-4.167l-.002-.005c-.307-.901-.575-1.688-.789-2.328-.044-.132-.068-.244-.091-.345a1.44 1.44 0 00-.109-.355c-.4-1.1-.6-1.7-.6-1.7-1.8-6.1-4.6-10.5-7.8-13.7-2.6-2.6-5.5-4.4-8.5-5.6-.43-.123-.861-.284-1.268-.436-.255-.095-.501-.187-.732-.264l-.165-.05-.184-.056-.211-.064c-.785-.24-1.53-.468-2.34-.63-.3-.05-.625-.125-.95-.2-.325-.075-.65-.15-.95-.2-1.6-.3-3-.5-4.4-.6h-.7c-.2-.1-.5-.1-.7-.1-.569 0-1.235-.065-1.999-.139h-.003a51.745 51.745 0 00-1.898-.161c-.2 0-.4-.025-.6-.05-.2-.025-.4-.05-.6-.05-.2 0-.425-.025-.65-.05-.225-.025-.45-.05-.65-.05-.2-.1-.4-.1-.6-.1h-.2c-1.2-.1-2.5-.2-3.9-.3-.239 0-.477-.023-.727-.047a8.962 8.962 0 00-.873-.053 70.927 70.927 0 01-2.069-.18h-.001a66.17 66.17 0 00-2.63-.22c-.25 0-.525-.025-.8-.05s-.55-.05-.8-.05l-3.9-.3-3.6-.3h-.4c-1-.1-2-.175-3-.25h-.004c-.999-.075-1.997-.15-2.996-.25h-.2l-4.2-.3c.7-.5 1.3-1 1.9-1.6.1-.1.2-.225.3-.35.1-.125.2-.25.3-.35.2-.2.4-.4.6-.7 20.9-.5 41 .2 51.7 3.7 15.5 5.1 31.5 60.1 39.6 98.9 3.7 18 5.8 32.5 5.3 37-.5 3.9-3.7 5.6-8.1 5.9h-1.2l-1.1-4.6.3-.3c.7-.7 1.399-1.499 2.099-2.299l.001-.001.1-.1.9-1.2c1.3-1.7 1.2-6.2.3-12.5v-.2c-.4-2.5-.9-5.2-1.5-8.2-.5-2.1-1-4.3-1.5-6.6-.042-.21-.102-.438-.164-.675l-.001-.002-.001-.005v-.001a11.512 11.512 0 01-.234-1.017c-.228-.798-.423-1.595-.623-2.412zM432.4 522.1l-17.8-6-5.7 6.4-3-2.7 4.6-5.1-5.3-1.8-5.3 6-3-2.7 4.2-4.7-6.7-2.3s-1.8-10.2-4.3-10.2c-.8 0-1.9.3-3.1.8l-.062.028-.025.01-.017.006-.022.007c-.058.02-.116.034-.174.049-.1.025-.2.05-.3.1-.2.1-.4.2-.7.3-.05 0-.1.025-.15.05-.05.025-.1.05-.15.05-1.1.5-2.1 1-2.7 1.4-.05.05-.1.075-.15.1-.05.025-.1.05-.15.1-.3.1-.4.2-.4.2l6.5 7.1s-2.2 4.7-4.6 7c-.2.2-.4.4-.6.5-.7.5-1.3.8-2 .8h-.3c-.1 0-.2 0-.3-.1-.2 0-.4-.1-.6-.2-.1 0-.2-.1-.3-.2-.1 0-.2-.1-.3-.2-.1 0-.2-.1-.3-.2a.523.523 0 00-.15-.1.667.667 0 01-.086-.048l-.014-.01a.371.371 0 01-.05-.042c-.4-.3-.8-.6-1.2-1-.1-.1-.2-.175-.3-.25-.1-.075-.2-.15-.3-.25l-.3-.3c-.03-.03-.07-.061-.113-.094-.099-.076-.217-.167-.287-.306l-.3-.3c-.2-.2-.425-.375-.65-.55-.225-.175-.45-.35-.65-.55-.2-.1-.4-.3-.5-.4-.4-.3-.7-.5-1-.7h-.1c-.1-.05-.175-.1-.25-.15l-.057-.038c-.03-.019-.06-.039-.093-.058l-.04-.023-.06-.031c-.05 0-.1-.025-.15-.05-.05-.025-.1-.05-.15-.05l-.3-.1h-.5c-.3 0-.5.1-.7.2l-.2.2c-.6.6-.8 2-.7 3.8 0 .3 0 .6.1 1 .087 1.038.248 2.077.42 3.18v.005l.001.004.004.028.049.317.026.166c.05.35.125.7.2 1.05.075.35.15.7.2 1.05 0 .1.025.175.05.25.025.075.05.15.05.25.054.162.079.325.106.503.023.151.048.314.094.497.05.15.075.3.1.45.025.15.05.3.1.45.05.15.075.275.1.4.025.125.05.25.1.4.153.458.247.858.328 1.2l.037.157.035.143c0 .05.025.125.05.2.025.075.05.15.05.2v.2h61.7c1.6-1.9.8-4.8-1.5-5.5zM256.2 227.601c-1.8-1.9-3.8-3.1-5-3.6l-5.3-2.6-6.8-3.4c-.2 2.2-.5 4.6-.8 6.8v.2c0 .1 0 .3-.1.4a19.39 19.39 0 01-.224 1.312c-.067.343-.131.676-.176.988v.1c-.2 1-.5 2-.8 2.8-.05.15-.1.275-.15.4-.05.125-.1.25-.15.4 0 .062-.038.123-.091.209-.033.053-.071.114-.109.191-.05.05-.075.1-.1.15-.025.05-.05.1-.1.15-.3.5-.6 1-.9 1.2 0 0-1.6-1.8-5-4.5-2.9-2.4-7-5.4-12.4-8.6h-.1c-.1-.1-.3-.2-.5-.3-1.6-.9-4.4-2.5-4.4-4.5v-.2c1.9-1.4 2.6-2.7 3-3.9-1.1.1-2.2.3-3.5.6-2.5.6-5.3 1.5-9.1 2.8-5.8 2-20.2 14.4-21.2 19.9-.062.062-.085.123-.118.209-.02.053-.044.114-.082.191 0 0 0 .1-.1.1-.05.15-.1.275-.15.4-.05.125-.1.25-.15.4l-.3.9c-.1.3-.175.6-.25.9-.075.3-.15.6-.25.9l-.5 7.2-.4 6-1.3 19.5-.4 6.4 1 .1 1.7.1 1.3.1h.6l27.9 2v2.8l1.1 23.4.1 3.4.1 1.3 1.3.1 19.4 2.2 17.7 2c0-.1 0-.2-.1-.2V315c-.6-1.8-1.2-3.599-1.8-5.299h-.1l-.9-3.1-.7-2.4-.1-.4 7.6-33.4.9-.1 1.1-.1 5.1-.5h.1l2.9-.3-4.3-35c-.7-2.7-2.3-5.1-3.9-6.8zM228 426.4H170.3c-6.6 0-11.9-5.3-11.9-11.9v-23.7c-5-3.5-19.6-12-32.5-4.3l10.4 17.3 11 18.3 15.1 25 33.4.4 2.3-1.5 26.9-17.5 3-2.1zm-2.3 6.798l10.4-6.8h12.1c-.438.995-.859 1.973-1.271 2.93l-.001.001c-.624 1.448-1.226 2.845-1.828 4.169-3.2 7.3-5.9 12.8-6.6 14.1-.2.2-.2.3-.2.3l-28.5-.3-6-.1 2-1.3 19.9-13zm-27.8-78.697l16.4-2.1 17.1-2.1H194.9l.3 4.5 2.7-.3zm-1 42.799h-2.5v-22.8c.3 0 .6.1.9.2.064.449.118.897.171 1.343.114.944.225 1.874.429 2.757.2 1 .4 1.899.6 2.799v.201c.2.9.5 1.7.8 2.5v.1c.1.2.175.375.25.55.075.175.15.35.25.55v.1c.1 0 .1.1.1.1.044.088.068.175.091.255.028.101.053.189.109.245l.3.6c.1.4.3.7.5 1 .1.15.225.325.35.5.125.175.25.35.35.5.1.15.225.3.35.45.125.15.25.3.35.45 0 .05.025.075.05.1.025.025.05.05.05.1.1.15.225.275.35.4.125.125.25.25.35.4.5.5 1.1 1.1 1.7 1.6.15.1.3.225.45.35.15.125.3.25.45.35.218.217.488.382.734.533.093.057.184.112.266.167.3.2.6.4 1 .6.3.2.7.4 1.099.6h.001c.2.1.4.175.6.25.2.075.4.15.6.25.288.058.542.148.783.234.177.063.347.124.517.166 1.3.4 2.7.8 4.2 1 .5.1 1 .2 1.5.2.5.1 1 .2 1.6.2.239 0 .5.023.773.047h.002c.299.026.612.053.925.053h-21.4zm-38.5-7.298v-17.4c-1.9.3-3.7.6-5.5 1-1.2 6.6 3 13.2 5.5 16.4zm-34.3 2l7.5 12.5 14 22.8 11.8 19.6-8.2-.1-35.1.5c-.062 0-.085-.039-.118-.091a.544.544 0 00-.082-.109c-14.4-16.5 7.6-21.3 7.6-21.3s-16.7-20 0-35.9c.15-.15.3-.275.45-.4.15-.125.3-.25.45-.4l1.7 2.9z" class="Primary" clip-rule="evenodd"/>
    <path fill="#E3E8F5" d="M129.999 259.4c-1 .9-1.9 1.4-2.8 1.4h-.1c-1.3 0-2.4-1.1-3.4-2.5 2.1.4 4.2.8 6.3 1.1z" class="Vector_134"/>
    <path fill="#E3E8F5" d="M121.8 257.2c.2.3.3.5.5.8-3.3-.7-6.8-1.5-10.3-2.4 1.4-1.7 2.9-3 4.7-2.9 2.2.1 3.7 2.3 5.1 4.5z" class="Vector_135"/>
    <path fill="#032CA6" d="M447.401 566.2c-11.9-1.6-7.4-4.4-38.4-4.4s-40.5 3.3-66.5 4.4c-42.2 1.7-108.1 0-108.1 0l-14.7-.5c-12.8 6.6-27.1 10.7-42.2 11.5-1.8.1-3.6.1-5.5.1-17.9 0-34.7-4.5-49.5-12.6-6.5.2-13.4.4-20.4.7-29.9 1.2-60.6 2.9-63.3 5.2 0 0 26.4 4.2 58.2 7 22.5 2 47.7 3.4 68.1 2.2 4.4-.3 8.5-.5 12.5-.8 20.4-1.3 35.9-2.6 59.5-3.5 53.5-2.1 89.1 7.1 145.9 0 49.1-6.2 116.7-5 121.9-4.9-3.5-.1-33.4-1.1-57.5-4.4z" class="Vector_136"/>
    <path fill="#E3E8F5" d="M97.4 298.1c1 1.5 1.6 4.6 1.9 9h-5.7c-3.4 0-7.4 0-11.7-.2.1-4.8.8-9 2.3-12.4 3.2.1 11 .3 13.2 3.6z" class="Vector_137"/>
    <path fill="#E3E8F5" d="M95.5 250.6c5.199 1.7 10.399 3.3 15.399 4.7-.2.2-.4.5-.6.7-1.8 2.2-3.4 4.2-5.8 4.1-2.2-.1-3.6-2.1-5-4.3-1.2-1.8-2.5-3.6-4.3-4.3l.3-.9z" class="Vector_138"/>
    <path fill="#E3E8F5" d="M88.9 284c1.5-2 2.9-3.8 4.9-3.8 2.1 0 3.4 2 4.9 4.1 1.501 2.2 3.101 4.6 5.801 4.7 2.8.2 4.7-2.2 6.6-4.4 1.8-2.1 3.4-4.1 5.6-4 2.2.1 3.7 2.4 5.1 4.6 1.4 2.2 2.9 4.5 5.3 4.6h.1c2.9 0 5.7-3.4 8.8-10.2l-.9-.4c-2.8 6.3-5.5 9.6-7.8 9.6h-.1c-1.8-.1-3.1-2-4.5-4.1-1.5-2.4-3.1-4.9-5.8-5-2.7-.2-4.6 2.1-6.5 4.3-1.8 2.2-3.4 4.2-5.8 4.1-2.2-.1-3.6-2.1-5-4.3-1.5-2.2-3.1-4.5-5.7-4.5-2.5 0-4.2 2.1-5.7 4.2-1.5 2-3 4.1-5.4 4.2-2.4.2-4-1.8-5.8-3.8-1.9-2.1-3.8-4.3-6.8-4.3-2.9.1-4.8 2.2-6.6 4.3-1.7 1.9-3.3 3.8-5.6 3.7-2.4-.1-4.9-2.3-7.2-6.6l-.9.5c2.5 4.7 5.3 7.1 8.1 7.1 2.7.1 4.5-2 6.3-4.1 1.8-2 3.4-3.9 5.9-4 2.6-.1 4.2 1.9 6 3.9 1.8 2.1 3.8 4.3 6.6 4.1 2.8 0 4.5-2.3 6.1-4.5zm-46.1-54.6c15.8 7.3 34.4 15.1 52.6 21.1l-.3.9c-.4-.2-.9-.2-1.4-.3-2.6-.1-4.2 2.1-5.7 4.2-1.5 2-3 4.1-5.4 4.2-2.4.1-4-1.8-5.8-3.8-1.9-2.1-3.8-4.3-6.8-4.3-2.9.1-4.8 2.2-6.6 4.3-1.7 1.9-3.3 3.8-5.6 3.7-2.4-.1-4.9-2.3-7.2-6.6l-.9.5c2.5 4.7 5.3 7.1 8.1 7.1 2.7.1 4.5-2 6.3-4 1.8-2 3.4-3.9 5.9-4 2.6-.1 4.2 1.9 6 3.9 1.8 2.1 3.8 4.2 6.6 4.1 2.8-.2 4.5-2.4 6.1-4.6 1.5-2 2.9-3.9 4.9-3.8 2.1 0 3.4 2 4.9 4.1 1.501 2.2 3.101 4.6 5.801 4.7 2.8.2 4.7-2.2 6.6-4.4.3-.4.6-.7.9-1.1 3.5.9 6.9 1.8 10.3 2.4 1.3 2 2.7 3.8 4.8 3.8h.1c1.3 0 2.7-.7 4-2.2 3.1.5 6.1.8 8.9 1 2.2.1 4.5.1 6.8 0-.1 16.2-4 30.1-14.2 38-9.3 7.2-22.4 8.4-33.5 8.5-.3-4.3-.9-7.5-1.9-9-2.3-3.3-10-3.5-13.2-3.6-1.5 3.4-2.1 7.6-2.3 12.4C71.2 306 59.4 304 51 297c-14.9-12.4-14.5-38.3-8.2-67.6z" class="Vector_139"/>
    <path fill="#E3E8F5" d="M87.5 394.9c-.8.1-1.4-5.5-4.7-11.7.2-2.5.3-5 .3-7.5.2-19.6.3-18.9 0-36.7-.2-12.1-1.6-23.1-1.3-32.1 4.3.2 8.3.2 11.7.2h5.7c1.1 14.9-.8 43.2 1.8 61.3.1 1 .3 2 .4 2.9-1.2.2-2.3.5-3.5.9-6.4 2.7-9 9.6-9.2 10.2-2.2 6.5-.4 12.4-1.2 12.5z" class="Vector_140"/>
    <path fill="#0B9ED9" fill-rule="evenodd" d="M255.3 81.298c-2.8.2-4.8-2-6.6-4.1-1.5-1.8-3-3.4-4.8-3.7.05-.15.075-.325.1-.5.025-.175.05-.35.1-.5 2.2.5 3.8 2.3 5.4 4.1l.219.244c1.712 1.908 3.278 3.652 5.581 3.556 2.327-.096 3.808-2.074 5.263-4.018l.137-.182c1.5-2.1 3.1-4.2 5.7-4.2s4.2 2.3 5.7 4.5 2.9 4.2 5.1 4.3c2.3.1 4-1.9 5.8-4.1l.161-.187c1.847-2.14 3.715-4.307 6.339-4.113 2.7.1 4.3 2.6 5.8 5 1.4 2.1 2.7 4 4.5 4.1 2.4.1 5.1-3.2 7.9-9.6l.9.4c-3.1 6.9-5.9 10.2-8.8 10.2h-.1c-2.4-.1-3.9-2.4-5.3-4.6-1.4-2.2-2.9-4.4-5.1-4.6-2.1-.095-3.653 1.722-5.355 3.714l-.245.286-.161.187c-1.847 2.141-3.718 4.31-6.439 4.213-2.7-.2-4.3-2.5-5.8-4.7l-.246-.344c-1.399-1.969-2.67-3.756-4.654-3.756-2.053 0-3.341 1.72-4.798 3.664l-.102.136c-1.7 2.2-3.4 4.4-6.2 4.6zm274.9.002c-8.413-.495-17.021 7.041-18.749 8.554l-.051.046c1.7-1.6 11.3-11.9-10.1-16.4-23.3-4.9-51.6 20.3-51.8 25.5h82.1s7.9-17.2-1.4-17.7zM406.5 145h196.9v4.8H406.5V145zm233.6 16.501c.9 1.1 1.8 2.1 2.9 2.9 1.1.8 2.3 1.3 3.8 1.3 1.4-.1 2.6-.7 3.5-1.6 1-.9 1.8-2 2.5-3a52.936 52.936 0 00.54-.688v-.001c.588-.757 1.144-1.473 1.76-2.011.8-.7 1.6-1.1 2.6-1.1s1.8.5 2.6 1.2c.719.719 1.357 1.6 2.06 2.57l.015.019.225.311c.7 1.1 1.5 2.2 2.4 3.1.9.9 2 1.5 3.4 1.6 1.4.1 2.7-.5 3.7-1.3s2-2 2.9-3.1v-.001c.9-1.1 1.8-2.199 2.7-2.899.9-.8 1.9-1.2 2.9-1.1 1 .1 1.9.6 2.7 1.4.605.605 1.154 1.383 1.731 2.202.186.263.374.531.569.798l.1.2c.7 1.1 1.4 2.1 2.2 3 .8.9 1.8 1.6 3.1 1.6 1.1 0 2.4-.4 3.9-1.9s3.1-4.1 5-8.3l-.9-.4c-1.8 4.2-3.4 6.6-4.8 8-1.3 1.4-2.4 1.7-3.2 1.6-.9 0-1.7-.5-2.4-1.3s-1.4-1.8-2.1-2.9l-.1-.1c-.7-1.1-1.5-2.3-2.4-3.2-.9-.9-2-1.6-3.4-1.7-1.4-.1-2.6.5-3.6 1.3s-1.9 1.899-2.8 2.999v.001h-.001c-.9 1.1-1.8 2.2-2.699 2.9-.9.8-1.9 1.2-3 1.1-1.1 0-1.9-.5-2.8-1.3-.72-.719-1.358-1.6-2.061-2.57l-.014-.02-.087-.12-.138-.19a175.94 175.94 0 01-.263-.377c-.634-.912-1.336-1.922-2.037-2.623-.9-.9-2-1.5-3.3-1.5-1.3 0-2.4.5-3.3 1.4-.703.624-1.283 1.37-1.884 2.143l-.001.001-.006.007a65.03 65.03 0 01-.509.649l-.1.1a32.21 32.21 0 00-.605.786l-.002.002c-.569.755-1.127 1.493-1.793 2.012-.9.8-1.8 1.3-3 1.3-1.2.1-2.2-.3-3.1-1-.823-.576-1.511-1.355-2.23-2.17a71.81 71.81 0 00-.47-.53c-.9-1-1.9-2.1-2.9-2.9-.1-.05-.175-.1-.25-.15-.075-.05-.15-.1-.25-.15v1.2c1 .6 1.9 1.5 2.7 2.5zm104 73.3c.333.266.666.622 1 .978.166.177.333.355.5.522.5.6 1 1.1 1.6 1.6.6.4 1.3.7 2.1.7s1.4-.4 2-.9c.5-.5 1-1.1 1.4-1.7.4-.6.8-1.1 1.3-1.5.4-.4.9-.6 1.5-.6s1 .3 1.5.7c.315.252.551.584.808.946.15.211.307.432.492.654.4.6.8 1.2 1.3 1.7s1.1.9 1.9.9c.8 0 1.5-.3 2.1-.8.6-.5 1.1-1.1 1.6-1.7.5-.6 1-1.2 1.5-1.6.5-.4 1-.6 1.6-.6v-.6c-.8 0-1.5.3-2 .7-.6.5-1.1 1.1-1.6 1.7-.5.6-1 1.2-1.5 1.6-.5.4-1.1.7-1.7.6-.6 0-1.1-.3-1.5-.7-.5-.4-.9-1-1.3-1.6l-.001-.001c-.4-.6-.799-1.199-1.299-1.699-.5-.5-1.1-.8-1.8-.8s-1.3.3-1.9.8c-.5.4-.9 1-1.3 1.6-.4.6-.9 1.2-1.3 1.6-.5.4-1 .7-1.6.7-.7 0-1.2-.2-1.7-.6-.5-.4-1-.9-1.5-1.5s-1-1.2-1.6-1.6c-.6-.5-1.3-.8-2.2-.8v.6c.5.1 1.1.3 1.6.7zm15.5 49.898c.5.5 1.1.9 1.9.9.8 0 1.5-.3 2.1-.8.6-.5 1.1-1.1 1.6-1.7.5-.6 1-1.2 1.5-1.6.5-.4 1-.7 1.6-.6.6 0 1.1.3 1.5.8.5.5.9 1.1 1.3 1.7l.1.1c.4.6.8 1.2 1.2 1.6.5.5 1 .9 1.7.9.6 0 1.4-.2 2.2-1.1.8-.8 1.7-2.3 2.8-4.6l-.5-.2c-1 2.3-1.9 3.7-2.7 4.5-.7.8-1.3.9-1.8.9s-.9-.3-1.3-.7c-.4-.4-.8-1-1.2-1.6v-.1l-.109-.164-.156-.242c-.316-.492-.645-1.004-1.035-1.394-.5-.5-1.1-.9-1.9-1-.8-.1-1.5.3-2 .7-.6.5-1.1 1.1-1.6 1.7-.5.6-1 1.2-1.5 1.6-.5.4-1.1.7-1.7.6-.6 0-1.1-.3-1.5-.8-.5-.4-.9-1-1.3-1.6-.4-.6-.8-1.2-1.3-1.7s-1.1-.8-1.8-.8-1.3.3-1.9.8c-.5.4-.9 1-1.3 1.6-.1.1-.2.2-.3.4v-2c0-4.5-1.2-8.8-3.4-12.6.1 0 .225.025.35.05.125.025.25.05.35.05.8 0 1.4-.4 2-.9.5-.5 1-1.1 1.4-1.7.4-.6.8-1.1 1.3-1.5.4-.4.9-.6 1.5-.6s1 .3 1.5.7c.315.253.551.585.808.946.15.211.307.433.492.654l.032.06.027.044.022.033c.037.054.078.109.119.163.075.1.15.2.2.3l.001.001c.299.4.599.8.899 1.099.5.5 1.1.9 1.9.9.8 0 1.5-.3 2.1-.8.6-.5 1.1-1.1 1.6-1.7.5-.6 1-1.2 1.5-1.6.5-.4 1-.6 1.6-.6.6 0 1.1.3 1.5.8.5.5.9 1.1 1.3 1.7l.1.1c.4.6.8 1.2 1.2 1.6.5.5 1 .9 1.7.9.6 0 1.4-.2 2.2-1.1.8-.8 1.7-2.3 2.8-4.6l-.5-.2c-1 2.3-1.9 3.7-2.7 4.5-.7.8-1.3.9-1.8.9s-.9-.3-1.3-.7c-.4-.4-.8-1-1.2-1.6v-.1c-.088-.131-.176-.268-.265-.406-.316-.491-.645-1.004-1.035-1.394-.5-.5-1.1-.9-1.9-.9-.8-.1-1.5.3-2 .7-.6.5-1.1 1.1-1.599 1.699l-.001.001c-.5.6-1 1.2-1.5 1.6-.5.4-1.1.7-1.7.6-.6 0-1.1-.3-1.5-.7-.254-.253-.467-.546-.691-.854a14.622 14.622 0 00-.409-.546c-.05-.05-.075-.1-.1-.15a.523.523 0 00-.1-.15c-.4-.6-.8-1.2-1.3-1.7s-1.1-.8-1.8-.9c-.7 0-1.3.3-1.9.8-.5.4-.9 1-1.3 1.6-.4.6-.9 1.2-1.3 1.6-.5.4-1 .7-1.6.7-.4 0-.8-.1-1.1-.2-.5-.8-1-1.6-1.6-2.3-4.7-6.1-12.2-10.4-20.7-11.6-1.5-.2-3.1-.3-4.6-.3H440.5c-17 0-30.8 12.3-30.8 27.5v27.6c0 15.2 13.8 27.5 30.8 27.5h280.6c10.5 0 19.9-4.8 25.4-12 1.5-1.9 2.7-4 3.6-6.3.8-2 1.4-4.1 1.6-6.2.1-1 .2-2 .2-3.1v-7.5c.299-.3.499-.599.699-.899l.001-.001c.4-.6.8-1.1 1.3-1.5.4-.4.9-.6 1.5-.6s1 .3 1.5.7c.315.253.551.585.808.946.15.211.307.433.492.654.4.6.8 1.2 1.3 1.7s1.1.8 1.9.9c.8 0 1.5-.3 2.1-.8.6-.5 1.1-1.1 1.6-1.7.5-.6 1-1.2 1.5-1.6.5-.4 1-.7 1.6-.6.6 0 1.1.3 1.5.8.5.5.9 1.1 1.3 1.7l.1.1c.4.6.8 1.2 1.2 1.7.5.5 1 .9 1.7.9.6 0 1.4-.2 2.2-1.1.8-.9 1.7-2.3 2.8-4.6l-.5-.2c-1 2.3-1.9 3.7-2.7 4.5-.7.8-1.3.9-1.8.9s-.9-.3-1.3-.7c-.4-.4-.8-1-1.2-1.6v-.1l-.03-.044-.034-.052-.027-.041-.145-.225-.005-.008-.006-.008-.011-.017-.007-.011c-.316-.492-.645-1.004-1.035-1.394-.5-.5-1.1-.9-1.9-1-.8 0-1.5.3-2 .7-.486.324-.906.844-1.313 1.348l-.132.163-.155.189c-.5.6-1 1.2-1.5 1.6-.5.4-1.1.7-1.7.6-.6 0-1.1-.3-1.5-.7-.5-.4-.9-1-1.3-1.6-.4-.6-.8-1.2-1.3-1.7s-1.1-.8-1.8-.8-1.3.3-1.9.8c-.5.4-.9 1-1.3 1.6-.05.05-.1.125-.15.2-.05.075-.1.15-.15.2v-16.3c.3-.3.5-.6.7-.9.4-.6.8-1.1 1.3-1.5.4-.4.9-.6 1.5-.6s1 .3 1.5.7c.315.253.551.585.808.946l.062.088c.087.121.176.245.272.37.051.065.103.131.158.196.2.6.7 1.2 1.2 1.7zm-9.6 0c-.2.1-.5.1-.7.1-.7 0-1.2-.2-1.7-.6-.5-.4-1-.9-1.5-1.5s-1-1.2-1.6-1.6c-.6-.5-1.3-.8-2.2-.8-1.527 0-2.598 1.183-3.561 2.247l-.139.153-.084.1c-.462.556-.85 1.023-1.416 1.4-.6.4-1 .6-1.7.6-.8 0-1.6-.5-2.3-1.2-.7-.7-1.3-1.6-1.7-2.5l-.5.3.138.223.012.018c.468.754 1.018 1.638 1.65 2.359.7.8 1.6 1.4 2.7 1.4.8 0 1.4-.3 2-.7.6-.4 1.1-1 1.5-1.5l.187-.207c.928-1.027 1.801-1.993 3.113-1.993.7 0 1.3.2 1.8.6.333.267.666.622 1 .978l.258.275c.081.084.161.167.242.247.5.6 1 1.1 1.6 1.6.6.5 1.3.7 2.1.7H749.221l.012-.001.032-.002.046-.005c.075-.009.156-.025.238-.042h.002a4.67 4.67 0 01.209-.038c.05-.007.097-.012.14-.012v16.6c-.1.05-.225.075-.35.1-.125.025-.25.05-.35.1-.7 0-1.2-.2-1.7-.6-.5-.4-1-.9-1.5-1.5s-1-1.2-1.6-1.6c-.15-.1-.275-.175-.4-.25a10.714 10.714 0 01-.4-.25c-.4-.2-.9-.3-1.3-.3-1.527 0-2.598 1.183-3.561 2.247l-.139.153-.084.1c-.462.556-.85 1.023-1.416 1.4-.5.4-1 .6-1.7.6-.8 0-1.6-.5-2.3-1.2-.7-.7-1.3-1.6-1.7-2.5l-.5.3.15.241c.468.754 1.018 1.638 1.65 2.359.7.8 1.6 1.4 2.7 1.4.8 0 1.4-.3 2-.7.6-.4 1.1-1 1.5-1.5l.183-.202.002-.002.002-.003c.928-1.027 1.801-1.993 3.113-1.993.4 0 .7.1 1 .2.21.07.371.19.552.324.077.057.158.117.248.176.333.267.666.622 1 .978l.276.293c.074.078.149.155.224.229v.001c.5.6 1 1.199 1.6 1.599.6.4 1.3.7 2.1.7.2 0 .5 0 .7-.1v6c0 1.2-.1 2.4-.3 3.5-.3 2-.9 3.9-1.7 5.7-.5 1.2-1.2 2.4-2 3.6-5 7.6-14.3 12.7-24.9 12.7H439.9c-15.9 0-28.8-11.5-28.8-25.5v-27.6c0-14.1 12.9-25.5 28.8-25.5h281.3c1.4 0 2.8.1 4.1.3 6.6.8 12.5 3.6 16.9 7.7-1.5.1-2.6 1.3-3.5 2.3-.5.6-1 1.1-1.5 1.5-.5.4-1 .6-1.7.6-.8 0-1.6-.5-2.3-1.2-.7-.7-1.3-1.6-1.7-2.5l-.5.3.068.11.082.131c.468.754 1.018 1.638 1.65 2.359.7.8 1.6 1.4 2.7 1.4.8 0 1.4-.3 2-.7.6-.4 1.1-1 1.5-1.5l.185-.204.002-.003c.928-1.027 1.8-1.993 3.113-1.993h.4c.695.695 1.29 1.39 1.886 2.085l.001.001.001.001.001.001.001.001v.001l.001.001.001.001.001.001.001.001.001.001.001.001.001.001.001.001.001.001.001.001c3.4 4.2 5.4 9.3 5.4 14.8v3.6zm-7.7-37.098c-1.3 0-2.3 1-3.3 2.2h-.001l-.001.001c-.499.6-.999 1.199-1.298 1.599-.6.4-1.2.7-2 .7v-.6c.7 0 1.1-.2 1.7-.6.566-.378.954-.845 1.416-1.4l.084-.1.139-.154c.963-1.063 2.034-2.246 3.561-2.246.9 0 1.6.3 2.2.8.6.4 1.1 1 1.6 1.6.166.166.333.344.5.522.333.356.666.711 1 .978.5.4 1 .6 1.7.6.6 0 1.1-.3 1.6-.7.057-.072.116-.143.177-.215.087-.103.176-.206.267-.311h.001l.001-.001c.29-.334.593-.682.854-1.073.4-.6.8-1.2 1.3-1.6.6-.5 1.2-.8 1.9-.8s1.3.3 1.8.8c.499.5.899 1.099 1.299 1.699l.001.001c.4.6.8 1.2 1.3 1.6.4.4.9.7 1.5.7.6.1 1.2-.2 1.7-.6.5-.4 1-1 1.5-1.6.5-.6 1-1.2 1.6-1.7.5-.4 1.2-.8 2-.7.8.1 1.4.5 1.9 1 .39.39.719.902 1.035 1.393l.003.005c.088.137.175.272.262.402v.101c.4.599.8 1.199 1.2 1.599.4.4.8.7 1.3.7v.5c-.7 0-1.2-.4-1.7-.9-.4-.5-.8-1.099-1.199-1.699l-.001-.001-.1-.1c-.073-.108-.145-.22-.218-.332-.33-.511-.673-1.04-1.082-1.368-.4-.5-.9-.8-1.5-.8s-1.1.2-1.6.6c-.5.4-1 1-1.5 1.6-.5.6-1 1.2-1.6 1.7-.6.5-1.3.8-2.1.8s-1.4-.4-1.9-.9-.9-1.1-1.3-1.7c-.185-.222-.342-.443-.492-.654-.257-.362-.493-.694-.808-.946-.5-.4-.9-.7-1.5-.7s-1.1.2-1.5.6c-.5.4-.9.9-1.3 1.5s-.9 1.2-1.4 1.7c-.6.5-1.2.8-2 .9-.8 0-1.5-.3-2.1-.7-.6-.5-1.1-1-1.6-1.6-.167-.167-.334-.345-.501-.522-.333-.356-.666-.712-.999-.978-.5-.4-1.1-.6-1.8-.6zm-44.9 130.801c.21-.281.371-.562.552-.877.077-.134.158-.274.248-.423.302-.453.547-.963.778-1.444.075-.156.148-.309.222-.456.3-.7.6-1.4.8-2.2.2-.6.3-1.1.4-1.7l.042-.257c.185-1.101.358-2.129.358-3.243v-.8c0-.3 0-.6-.1-.8 0-.2 0-.4-.1-.7 0-.165-.031-.3-.058-.421v-.002a1.94 1.94 0 01-.036-.185.722.722 0 01-.006-.092c-.4-2.3-1.4-4.4-2.9-6.1-2.6-3-7.2-5.3-11.5-4.8-.8.1-1.5.3-2.3.6-3.858 1.653-5.522 5.499-5.923 6.426-.036.082-.061.141-.077.174-.978 2.738-.809 5.306-.711 6.79.053.792.085 1.275-.089 1.31-.22.043-.419-.623-.752-1.732-.426-1.42-1.069-3.565-2.248-5.868-.6-1.1-1.3-2.2-2.1-3.3-1.4-1.9-4.6-5.9-9.6-6.3-4.7-.3-10.9 2.6-11.8 8.1-.5 3.4 1.3 6.3 2.7 8-1.5-1.2-3.8-2.6-6.8-2.5-5.3.2-10 4.8-9.6 8.3.251 2.58 3.235 4.368 5.314 5.613 1.224.734 2.134 1.279 1.986 1.687-.158.354-.95.197-2.169-.044-1.88-.372-4.777-.945-7.931-.156-1.1.3-6.8 1.9-8.6 7.3-.05.1-.075.2-.1.3-.025.1-.05.2-.1.3h58.1c.6 0 1.3 0 1.9.1 9.2.6 17.2 5.8 21.7 13.3 9.7-10.9 11.7-21.8 7.9-25.6-3.1-3-10.4-1.7-17.4 1.7zm-105.1 60.996h91.8v4.8h-91.8v-4.8zm91.8-11.5h-91.8v4.8h91.8v-4.8zm-91.8-11.597h91.8v4.7h-91.8v-4.7zm33.2-251.899c-1 .8-2.2 1.3-3.6 1.3-1.9-.1-3.5-1.2-4.8-2.6-1.4-1.3-2.5-3.1-3.3-4.6l.9-.5c.8 1.5 1.9 3.1 3.1 4.4 1.2 1.3 2.6 2.2 4.1 2.2 1.1 0 2-.4 2.9-1.1.705-.549 1.349-1.282 2.028-2.055v-.001h.001l.003-.004c.186-.212.375-.426.568-.64 1.7-1.9 3.7-4.1 6.6-4.2.5 0 1 .1 1.4.2v1c-.4-.2-.8-.2-1.3-.2-2.391 0-4.086 1.884-5.878 3.875l-.022.025v.1c-.8 1-1.7 2-2.7 2.8zm-22.1-7.8H406.5v4.8h196.9v-4.8zm-17.7 282.796h-37.8v4.8h37.8v-4.8zm-37.8-11.5h37.8v4.8h-37.8v-4.8zm37.8-11.597h-37.8v4.7h37.8v-4.7zm-82.2 23.097h37.8v4.8h-37.8v-4.8zm37.8-11.5h-37.8v4.8h37.8v-4.8zm-37.8-11.597h37.8v4.7h-37.8v-4.7zM489 438.699h5.9v4.8H489v-4.8zm5.9-11.597H489v4.8h5.9v-4.8zM489 415.5h5.9v4.8H489v-4.8zm-56.7-137.898v34.6h48.9v-34.6l-24 11.8-24.9-11.8zm15.5 16.7c0-1.2 1-2.2 2.2-2.2 1.2 0 2.2 1 2.2 2.2 0 1.2-1 2.2-2.2 2.2-1.2 0-2.2-1-2.2-2.2zm9.4 12.2c-4.5 0-6.7-4.8-6.7-4.8h13.4s-1.8 4.8-6.7 4.8zm8.1-14.4c1.2 0 2.2 1 2.2 2.2 0 1.2-1 2.2-2.2 2.2-1.2 0-2.2-1-2.2-2.2-.1-1.2.9-2.2 2.2-2.2zM433.5 277h46.6l-22.9 11.3-23.7-11.3zm32.2-104.101h137.7v-4.7H406.5v4.7h59.2zM384.1 461.1c.6 2.9 1.1 5.7 1.5 8.2 0 .1 0 .2-.5.2.9 6.3.9 10.8-.3 12.5l-.9 1.2-.1.1-.001.001c-.7.799-1.4 1.599-2.099 2.299l-.3.3c-.048.048-.096.09-.144.129-.052.043-.104.082-.156.121h-.001c-.1.075-.199.15-.299.25l.2-.2c-3.4.8-11.2 2-15.8 1-2.5-.6-11-18.6-20.1-39.6-6.3-14.7-12.9-30.7-18-43.4 0-.1 0-.2-.1-.3-.6-1.7-1.2-3.2-1.8-4.6 0 0-.1-.1-.1-.2a26.066 26.066 0 00-.555-1.487l.155.387a16.825 16.825 0 00-.046-.131l-.045-.118-.034-.089-.025-.062c-.05-.125-.1-.25-.15-.4h-67.1c-.1 0-.1-.1-.1-.1-.1-.3-.2-.6-.4-.9v-.1c-.1-.3-.3-.7-.5-1-.25-.35-.475-.725-.7-1.1-.225-.375-.45-.75-.7-1.1-.1-.1-.175-.225-.25-.35-.075-.125-.15-.25-.25-.35-.145-.202-.29-.413-.437-.628-.361-.526-.737-1.074-1.163-1.572-.2-.25-.425-.5-.65-.75-.225-.25-.45-.5-.65-.75-.15-.15-.3-.324-.45-.499V388l-.001-.001c-.15-.175-.3-.349-.449-.499-.2-.3-.4-.5-.7-.8-2.7-2.9-5.9-5.6-9.4-8.2-.2-.15-.375-.275-.55-.4l-.275-.197a23.097 23.097 0 01-.275-.203c-3.8-2.8-7.8-5.4-12-7.9s-8.8-4.9-13.2-6.8c-6.3-2.8-12.4-4.9-16.6-5.8-.974-.266-1.869-.374-2.617-.465h-.001l-.267-.033.085-1.502 2.7-.3 16.4-2 17.1-2.1H286c.089 0 .179-.02.278-.042l.001-.001a1.84 1.84 0 01.421-.057c.4 0 .8-.1 1.2-.2a.74.74 0 00.25-.05c.075-.025.15-.05.25-.05.05 0 .1-.025.15-.05.05-.025.1-.05.15-.05l.018-.009.025-.012.013-.006.018-.008a1.87 1.87 0 01.176-.065c.075-.025.15-.05.25-.1.1 0 .2-.1.2-.1.05-.05.125-.075.2-.1.075-.025.15-.05.2-.1.054-.027.115-.054.18-.081l.081-.033.087-.036h.003c.124-.05.249-.1.349-.15.1-.05.225-.125.35-.2.125-.075.25-.15.35-.2l.044-.022.01-.004a.465.465 0 01.033-.014c.038-.017.072-.03.103-.042h.001c.085-.033.147-.056.209-.118.1-.05.2-.125.3-.2.1-.075.2-.15.3-.2l4.2.3h.2c.998.1 1.997.175 2.996.25h.007c.999.075 1.998.15 2.997.25h.4l3.6.3 3.9.3c.313 0 .6.027.873.053.249.024.488.047.727.047.836.052 1.673.132 2.495.21l.003.001h.007l.003.001h.002c.745.071 1.479.141 2.19.188.25 0 .525.025.8.05s.55.05.8.05c1.4.1 2.7.2 3.9.3h.2c.2.1.4.1.6.1.2 0 .425.025.65.05.225.025.45.05.65.05.199 0 .399.025.599.05H325c.2.025.4.05.6.05 1.6.1 2.9.2 3.9.3.3.1.5.1.7.1h.7c1.4.1 2.9.3 4.4.6l.226.037c.545.089 1.148.188 1.674.363.9.2 1.9.5 2.9.8.7.2 1.4.4 2 .7 2.9 1.2 5.9 3 8.5 5.6 3.3 3.2 6 7.6 7.8 13.7 0 0 .2.6.6 1.7.05.1.075.225.1.35.025.125.05.25.1.35.173.521.383 1.125.62 1.81v.001a210.51 210.51 0 011.58 4.689c0 .3.1.5.199.7h.001c.05.2.125.4.199.6h.001v.001c.075.2.15.399.2.599.17.398.309.829.452 1.274v.002l.001.001.001.006.002.004c.107.332.216.673.344 1.013.099.35.224.699.349 1.049l.001.001c.125.35.25.7.35 1.05l.049.201v.001c.086.358.183.763.351 1.098.1.35.199.675.299.999.1.326.201.651.301 1.001.056.056.08.144.109.245.022.08.047.167.091.255.099.35.224.699.349 1.049l.001.001c.125.35.25.7.35 1.05.15.4.275.8.4 1.2v.002h.001v.001c.124.399.249.798.399 1.197.05.2.125.425.2.65.075.225.15.45.2.65.599 2.099 1.299 4.297 1.998 6.496l.002.004c.05.2.125.4.2.6.075.2.15.4.2.6 4 13.2 8.5 28.4 11.9 41.9.05.15.075.275.1.4.015.076.03.152.051.234a67.798 67.798 0 011.149 4.466c.042.212.102.442.166.682v.001c.085.326.176.672.234 1.017.6 2.3 1.1 4.5 1.5 6.6zM194.529 359.9h-.029l.2-3.2.015.002c-.062 1.086-.124 2.144-.186 3.198zm0 0l-.029.5c-.1-.05-.225-.075-.35-.1-.125-.025-.25-.05-.35-.1-7.2-1.6-14.6-2.4-22.2-2.4-4.6 0-9.1.3-13.5.9-15.9 2.1-30.8 7.8-43.7 16.4-4.7 3.1-9.2 6.6-13.4 10.5-9.7 8.9-17.8 19.6-23.8 31.5-4.8 9.6-8.3 19.9-10.3 30.9-1.1 6.4-1.7 13-1.7 19.8 0 42.2 23.1 78.9 56.9 97.3 14.8 8 31.6 12.6 49.5 12.6 1.8 0 3.7 0 5.5-.1 15.1-.8 29.4-4.8 42.2-11.5 34.9-18 58.8-55.3 58.8-98.3 0-6.8-.6-13.4-1.7-19.8-.8-4.8-2-9.5-3.5-14.1-.7-2.4-1.6-4.8-2.5-7.1-.1-.3-.2-.6-.4-.9-3.8-9.6-9-18.6-15.2-26.6l-.001-.001c-.4-.5-.8-.999-1.199-1.599-.181-.216-.348-.433-.512-.644-.29-.376-.569-.736-.888-1.056l-.001-.001c-.3-.399-.6-.799-.899-1.099-.1-.1-.175-.2-.25-.3-.075-.1-.15-.2-.25-.3l-.2-.2c-.4-.5-.8-1-1.3-1.5l-.3-.3c-.05-.05-.1-.125-.15-.2l-.013-.019-.025-.037-.04-.056a.68.68 0 00-.072-.088h-.001c-.2-.2-.399-.4-.599-.7-.1-.15-.225-.275-.35-.4-.125-.125-.25-.25-.35-.4-.3-.3-.6-.6-.9-1l-.3-.3c-.1-.1-.3-.3-.4-.5h-.001c-.6-.6-1.199-1.2-1.799-1.7h-.001c-.4-.4-.799-.8-1.199-1.1-.1-.1-.225-.2-.35-.3-.125-.1-.25-.2-.35-.3-.2-.15-.375-.325-.55-.5h-.001a5.312 5.312 0 00-.549-.5l-.3-.3c-.15-.15-.3-.275-.45-.4-.15-.125-.3-.25-.45-.4-.1-.1-.2-.175-.3-.25-.1-.075-.2-.15-.3-.25-.15-.15-.3-.275-.45-.4-.15-.125-.3-.25-.45-.4-.05-.05-.125-.1-.2-.15h-.001c-.075-.05-.149-.1-.199-.15a2.088 2.088 0 00-.134-.122l-.075-.062c-.121-.099-.227-.187-.291-.316a.979.979 0 01-.25-.2c-.075-.075-.15-.15-.25-.2-.141-.106-.282-.224-.427-.345l-.001-.001c-.267-.223-.549-.46-.872-.654-.3-.2-.6-.4-.9-.7-.1-.1-.2-.2-.3-.2-.1-.1-.2-.175-.3-.25h-.001c-.1-.075-.2-.15-.299-.25-.15-.1-.3-.225-.45-.35-.15-.125-.3-.25-.45-.35l-.9-.6-1.8-1.2c-.04-.039-.064-.063-.084-.078-.01-.006-.018-.011-.028-.014-.021-.008-.046-.008-.088-.008l-1.8-1.2-.1-.1-.9-.6c-.3-.2-.6-.4-.8-.5-.1-.05-.175-.1-.25-.15-.075-.05-.15-.1-.25-.15-.15-.05-.275-.125-.4-.2-.125-.075-.25-.15-.4-.2-.3-.2-.6-.4-.9-.5-.05-.05-.1-.075-.15-.1-.05-.025-.1-.05-.15-.1a23.27 23.27 0 00-.7-.4h-.001a22.09 22.09 0 01-.699-.4c-.05-.05-.1-.075-.15-.1-.05-.025-.1-.05-.15-.1 0 0-.1 0-.1-.1h-.001c-.4-.2-.8-.4-1.099-.6-.1 0-.2-.1-.2-.1-.1-.05-.175-.1-.25-.15-.075-.05-.15-.1-.25-.15-.25-.1-.475-.225-.7-.35-.225-.125-.45-.25-.7-.35l-1.2-.6c-.095-.047-.195-.094-.298-.143l-.005-.002-.002-.002h-.002c-.33-.156-.691-.326-.993-.553 0 0-.1-.1-.2-.1-.2-.1-.4-.2-.5-.3-.15-.1-.325-.175-.5-.25h-.001a3.06 3.06 0 01-.499-.25.289.289 0 01-.12-.035l-.03-.015c-.05-.025-.1-.05-.15-.05-.1-.05-.225-.1-.35-.15-.125-.05-.25-.1-.35-.15-.243-.161-.55-.258-.817-.341l-.004-.002a6.458 6.458 0 01-.179-.057c-.15-.05-.275-.1-.4-.15a6.92 6.92 0 00-.4-.15.503.503 0 00-.2-.1c-.075-.025-.15-.05-.2-.1l-1.5-.6c-.15-.05-.3-.125-.45-.2-.15-.075-.3-.15-.45-.2-.25-.1-.525-.2-.8-.3-.275-.1-.55-.2-.8-.3-.05 0-.075-.025-.1-.05-.025-.025-.05-.05-.1-.05-.25-.1-.525-.2-.8-.3-.275-.1-.55-.2-.8-.3a6.92 6.92 0 01-.4-.15 6.92 6.92 0 00-.4-.15c-.25-.1-.475-.175-.7-.25-.225-.075-.45-.15-.7-.25-.25-.1-.525-.175-.8-.25-.275-.075-.55-.15-.8-.25-.1-.05-.2-.075-.3-.1-.1-.025-.2-.05-.3-.1h-.2l-.003-.001a48.753 48.753 0 01-1.997-.599h-.1c-.1-.05-.2-.075-.3-.1-.1-.025-.2-.05-.3-.1-.1-.05-.225-.075-.35-.1-.125-.025-.25-.05-.35-.1-.2-.05-.375-.1-.55-.15-.175-.05-.35-.1-.55-.15-.33-.11-.69-.19-1.064-.272a16.077 16.077 0 01-.936-.228h-.071zm1.071 18.8c-.3-1.3-.5-2.6-.6-4.1-.3-.1-.6-.2-1.3 0-7.1-1.8-14.5-2.8-22.2-2.8-4.6 0-9.1.3-13.5 1l-.675.112c-1.596.264-3.249.538-4.825.888-10 2.2-19.5 6-28 11.3l1 1.6 10.4 17.3 11 18.3 15.1 25 .3.5 6.2 10.2c-1.4.5-2.7 1.3-3.7 2.3l-7.6-12.5-.3-.6-11.8-19.6-13.8-23-7.5-12.5-1.7-2.9-1.1-1.8c-8.2 5.7-15.5 12.6-21.6 20.5-6.8 8.9-12.1 19.1-15.6 30.1-1 3.1-1.8 6.3-2.5 9.6v.1c-1.3 6.4-2 13-2 19.8 0 17.4 4.5 33.7 12.4 47.8l70.4-45.9c.2 1.5.9 2.9 1.7 4.1l-70 45.6c16 25.8 43.4 43.1 74.8 44.2h3a89 89 0 0047.2-13.5l-43.9-72.9c1.4-.5 2.7-1.3 3.7-2.4l43.9 72.9c25-17.1 41.5-46.6 41.5-79.9 0-6.8-.7-13.4-2-19.8-1-4.8-2.3-9.5-4-14.1h-.001v-.003h-.001v-.001c-.899-2.399-1.799-4.797-2.898-7.096-.1-.3-.2-.6-.4-.9-1.3-2.9-2.9-5.8-4.5-8.5l-14.4 9.4-10.4 6.8-19.9 13-2 1.3-.1.1-23 15c-.6-1.4-1.6-2.5-2.8-3.4l17.9-11.7.2-.1 2.3-1.5 26.9-17.5 3.1-2.1 19.9-13.2c-3.9-5.8-8.3-11.2-13.3-16H218c-.314 0-.628-.027-.927-.053a9.15 9.15 0 00-.773-.047 7.766 7.766 0 00-.8-.1 7.766 7.766 0 01-.8-.1c-.5 0-1-.1-1.5-.2-1.5-.3-2.9-.6-4.2-1-.5-.1-.9-.2-1.3-.4-.2-.1-.4-.175-.6-.25-.2-.075-.4-.15-.6-.25-.3-.2-.699-.399-1.099-.599l-.001-.001c-.15-.1-.325-.2-.5-.3-.175-.1-.35-.2-.5-.3-.15-.1-.325-.225-.5-.35-.175-.125-.35-.25-.5-.35-.3-.2-.6-.4-.9-.7-.6-.5-1.2-1-1.7-1.6-.3-.3-.5-.5-.7-.8 0-.05-.025-.075-.05-.1-.025-.025-.05-.05-.05-.1-.3-.3-.5-.6-.7-.9-.3-.3-.5-.6-.7-1-.1-.15-.175-.325-.25-.5a3.111 3.111 0 00-.25-.5l-.3-.6c-.022-.043-.038-.081-.053-.116-.019-.048-.033-.091-.047-.134a1.724 1.724 0 00-.1-.25c-.1 0-.1-.1-.1-.1v-.1c-.2-.3-.4-.7-.5-1.1v-.1c-.3-.8-.6-1.6-.8-2.5v-.2c-.2-.9-.4-1.8-.6-2.8zm176.482 148.232l-.021-.089-.034-.141a13.157 13.157 0 00-.362-1.313 3.567 3.567 0 01-.049-.207l-.008-.041-.008-.039c-.025-.125-.05-.25-.1-.4-.05-.15-.075-.3-.1-.45-.025-.15-.05-.3-.1-.45a2.966 2.966 0 01-.106-.501v-.002h-.001a5.403 5.403 0 00-.093-.497c0-.1-.025-.175-.05-.25a.74.74 0 01-.05-.25c-.05-.35-.125-.7-.2-1.05-.075-.35-.15-.7-.2-1.05l-.048-.31-.033-.209c-.171-1.104-.333-2.142-.419-3.181 0-.2 0-.5-.1-.7v-1.6c-.8-.7-1.6-1.3-2.4-1.8-1.3-.9-2.4-1.3-3.1-.6-1.853 1.764.652 11.931 1.406 14.991.101.409.17.691.194.809h6.1v-.2l-.001-.022-.001-.023a3.355 3.355 0 00-.003-.031l-.005-.031-.006-.026c-.004-.018-.01-.036-.015-.052-.01-.031-.022-.058-.032-.084l-.001-.001a.764.764 0 01-.021-.055l-.007-.022-.003-.01a.218.218 0 01-.005-.043l-.018-.07zM215.4 199.899a1.91 1.91 0 01.191-.082c.085-.033.147-.056.209-.118.05 0 .1-.025.15-.05.05-.025.1-.05.15-.05.673-.306 1.384-.687 2.063-1.051l.002-.002.003-.001.002-.001c.428-.229.844-.452 1.23-.645 1.1-.7 2.1-1.5 2.8-2.4.038-.038.061-.076.082-.109.032-.053.056-.091.118-.091 2.821-4.01.515-8.295-1.719-12.447-.775-1.44-1.541-2.863-2.081-4.253-.5-1.2-.8-2.4-.8-3.5v-.2c0-.331.068-.663.149-1.051l.016-.077.035-.172c0-.2.1-.4.2-.6 1.7-4.6 7.9.5 11.9 4.4l.4.4.4.4a67.165 67.165 0 011.564 1.631l.002.002.002.002c.262.281.477.51.632.665l.1.1.2.2s.4-1.8 1-4.2c.05-.15.1-.325.15-.5.05-.175.1-.35.15-.5.05-.25.125-.5.199-.75h.001c.075-.25.15-.5.2-.75.333-1.067.666-2.222 1-3.378a266.1 266.1 0 01.5-1.722c.1-.25.175-.5.25-.75.075-.25.15-.5.25-.75.05-.1.075-.2.1-.3.025-.1.05-.2.1-.3.083-.222.166-.437.247-.645l.002-.004v-.002c.211-.541.407-1.045.551-1.549.083-.167.149-.334.212-.494.089-.223.171-.431.288-.606l.031-.063.023-.047.018-.039.028-.059.043-.092c.117-.254.21-.454.357-.6.05-.05.1-.125.15-.2.05-.075.1-.15.15-.2 0-.05.025-.075.05-.1.025-.025.05-.05.05-.1l.2-.2.3-.3c.05-.05.1-.075.15-.1.05-.025.1-.05.15-.1.1-.05.175-.1.25-.15.075-.05.15-.1.25-.15.174-.117.383-.199.606-.287.16-.063.327-.13.494-.213.05 0 .125-.025.2-.05.075-.025.15-.05.2-.05.169-.042.339-.103.517-.166.24-.086.495-.176.783-.234.15-.05.3-.075.45-.1.15-.025.3-.05.45-.1 1-.2 2.1-.4 3.3-.6 2-.8 5.8-3.3 6.6-8.3.8-5-13.8-13-21.2-16.3 5.7.9 10.5 2.5 14.5 4.3-3.1-1.6-6.8-2.9-11-3.8-5-1-9.1-1-12.5-.2-10.4 2.3-13.6 10.6-13.6 10.6s-12.1-1.9-13.3 7.4c-2.4 18.8 10.5 48.5 10.5 48.5s3.7-.1 7.6-1.6zm-91.3 45.799v-4.1c0-2 1.6-3.6 3.5-3.5h46.5c1.9 0 3.5 1.5 3.5 3.5v4.1c0 .9-.4 1.7-.9 2.3-.7.7-1.6 1.2-2.7 1.2h-46.4c-1.9 0-3.5-1.5-3.5-3.5zm-41.3-88.299c2.8-.2 4.5-2.4 6.1-4.6 1.5-2 2.9-3.8 4.9-3.8 1.984 0 3.255 1.787 4.654 3.756v.001l.008.01.118.166.12.167c1.5 2.2 3.1 4.5 5.8 4.7h.3c2.548 0 4.294-2.048 5.996-4.044l.304-.356-.8-.6c-1.7 2.1-3.4 4.2-5.8 4-2.2-.1-3.6-2.1-5.1-4.3-1.5-2.2-3.1-4.5-5.7-4.5-2.6-.1-4.2 2.1-5.7 4.2l-.137.182c-1.455 1.944-2.936 3.921-5.263 4.018-2.1.1-3.7-1.4-5.1-3l-.7.7c1.5 1.7 3.4 3.5 6 3.3zm-.1 21.003c-2.8.2-4.8-2-6.6-4.1-1.8-2.1-3.5-4-6.2-4.1v-1c2.914 0 4.79 2.076 6.637 4.12l.163.18.219.244c1.712 1.907 3.278 3.652 5.58 3.556 2.328-.097 3.809-2.075 5.264-4.018l.137-.182c1.5-2.1 3.1-4.3 5.7-4.2 2.6 0 4.2 2.3 5.7 4.5s2.9 4.2 5.1 4.3c2.3.1 4-1.9 5.8-4.1l.161-.188c1.847-2.141 3.715-4.307 6.339-4.112l-.1 1c-2.1-.096-3.653 1.722-5.355 3.713l-.245.287-.155.188c-1.749 2.141-3.523 4.312-6.145 4.312h-.3c-2.7-.2-4.3-2.5-5.8-4.7-.083-.115-.164-.23-.245-.345-1.4-1.969-2.67-3.755-4.655-3.755h-.1c-1.953 0-3.238 1.715-4.693 3.657l-.107.143c-1.6 2.2-3.3 4.4-6.1 4.6zm-18.5 20l.225-.252c1.71-1.905 3.28-3.653 5.675-3.748 2.43-.094 3.987 1.648 5.65 3.51l.002.001.003.004.345.385c1.8 2.1 3.8 4.3 6.6 4.1 2.8-.2 4.5-2.4 6.1-4.6l.053-.071c1.48-1.974 2.87-3.828 4.847-3.729 1.984 0 3.255 1.786 4.654 3.755l.246.345c1.5 2.2 3.1 4.5 5.8 4.7 2.721.097 4.592-2.073 6.439-4.214l.161-.186.245-.287c1.702-1.992 3.255-3.809 5.355-3.713 2.2.2 3.7 2.4 5.1 4.6 1.4 2.2 2.9 4.5 5.3 4.6v-1c-1.8-.1-3.1-2-4.5-4.1-1.5-2.4-3.1-4.8-5.8-5-2.624-.195-4.492 1.971-6.339 4.112l-.161.188c-1.8 2.2-3.5 4.2-5.8 4.1-2.2-.1-3.6-2.1-5.1-4.3-1.5-2.2-3.1-4.5-5.7-4.5-2.5 0-4.2 2.1-5.7 4.2l-.137.181c-1.455 1.944-2.936 3.922-5.263 4.019-2.239.186-3.78-1.541-5.439-3.396l-.361-.404-.163-.18c-1.846-2.044-3.723-4.12-6.637-4.12-2.9.1-4.8 2.2-6.6 4.3l-.197.22c-1.628 1.824-3.192 3.576-5.403 3.48v1c2.9.1 4.7-1.9 6.5-4zm-.164 29.379c-1.746 1.943-3.518 3.915-6.136 3.818-2.9-.1-5.6-2.5-8.2-7.1l.9-.5c2.3 4.3 4.8 6.5 7.2 6.6 2.21.096 3.775-1.656 5.403-3.479l.197-.221c1.8-2.1 3.7-4.2 6.6-4.3h.1c2.815 0 4.687 2.073 6.532 4.115l.168.185.219.244c1.712 1.908 3.278 3.652 5.58 3.556 2.328-.097 3.809-2.074 5.264-4.018l.137-.182c1.5-2.1 3.1-4.2 5.7-4.2s4.2 2.3 5.7 4.5 2.9 4.2 5.1 4.3c2.3.1 4-1.9 5.8-4.1l.161-.187c1.847-2.141 3.715-4.307 6.339-4.113 2.7.1 4.3 2.6 5.8 5 1.4 2.1 2.7 4 4.5 4.1 2.4.2 5.1-3.2 7.9-9.6l.9.4c-3.1 6.8-5.9 10.2-8.8 10.2h-.1c-2.4-.1-3.9-2.4-5.3-4.6-1.4-2.2-2.9-4.4-5.1-4.6-2.1-.095-3.653 1.722-5.355 3.713l-.245.287-.297.345c-1.803 2.098-3.649 4.245-6.303 4.055-2.7-.2-4.3-2.5-5.8-4.7l-.245-.344c-1.4-1.969-2.67-3.756-4.655-3.756-2 0-3.4 1.8-4.9 3.8-1.6 2.2-3.3 4.4-6.1 4.6-2.8.2-4.8-2-6.6-4.1l-.194-.215c-1.73-1.926-3.396-3.781-5.806-3.685-2.395.096-3.965 1.844-5.675 3.749l-.225.251-.164.182zM57.9 260.699c2.7.1 4.5-2 6.3-4.1l.225-.251c1.71-1.905 3.28-3.653 5.675-3.749 2.43-.093 3.987 1.649 5.65 3.511h.001l.349.389c1.8 2.1 3.8 4.2 6.6 4.1 2.8-.2 4.5-2.4 6.1-4.6 1.5-2 2.9-3.8 4.9-3.8 1.984 0 3.255 1.787 4.654 3.756l.246.344c1.5 2.2 3.1 4.5 5.8 4.7 2.654.19 4.5-1.957 6.303-4.055l.155-.18.142-.165c.15-.2.3-.375.45-.55.15-.175.3-.35.45-.55 1.4-1.7 2.9-3 4.7-2.9 2.2.2 3.7 2.4 5.1 4.6.099.15.174.275.249.4h.001c.075.125.15.25.25.4 1.3 2 2.7 3.8 4.8 3.8h.1c1.3 0 2.7-.7 4-2.2 1.5-1.7 3.1-4.4 4.7-8l-.9-.4c-1.7 3.9-3.4 6.7-5 8.2-1 .9-1.9 1.4-2.8 1.4h-.1c-1.4 0-2.4-1.1-3.4-2.5-.175-.291-.384-.582-.606-.893h-.001v-.001c-.16-.223-.327-.455-.493-.706-1.5-2.4-3.1-4.8-5.8-5-2.4-.2-4.2 1.6-5.9 3.6-.1.1-.2.225-.3.35-.1.125-.2.25-.3.35-1.8 2.2-3.5 4.2-5.8 4.1-2.2-.1-3.6-2.1-5.1-4.3-1.2-1.8-2.5-3.6-4.3-4.3-.4-.1-.9-.2-1.4-.3-2.6 0-4.2 2.1-5.7 4.2l-.137.182c-1.455 1.944-2.936 3.921-5.263 4.018-2.303.096-3.869-1.648-5.581-3.556l-.22-.244-.162-.179c-1.846-2.044-3.723-4.121-6.637-4.121-2.9.1-4.8 2.2-6.6 4.3l-.197.221c-1.628 1.823-3.192 3.575-5.403 3.479-2.4-.1-4.9-2.3-7.2-6.6l-.9.5c2.7 4.8 5.4 7.2 8.3 7.3zm17.85 23.411c-1.663-1.862-3.22-3.604-5.65-3.511-2.247.09-3.767 1.633-5.503 3.397l-.597.603-.164.182c-1.746 1.943-3.518 3.915-6.136 3.818-2.8 0-5.6-2.4-8.1-7.1l.9-.5c2.3 4.3 4.8 6.5 7.2 6.6 2.21.096 3.775-1.656 5.403-3.479l.197-.221c1.8-2.1 3.7-4.2 6.6-4.3 2.914 0 4.79 2.077 6.638 4.121l.162.179.361.404c1.658 1.856 3.2 3.583 5.439 3.396 2.327-.097 3.808-2.074 5.263-4.018l.137-.182c1.5-2.1 3.2-4.2 5.7-4.2 2.6 0 4.2 2.3 5.7 4.5s2.9 4.2 5.1 4.3c2.3.1 4-1.9 5.8-4.1l.161-.187c1.847-2.141 3.715-4.307 6.339-4.113 2.7.2 4.3 2.6 5.8 5 1.4 2.1 2.7 4 4.5 4.1h.1c2.4 0 5.1-3.3 7.9-9.6l.9.4c-3.1 6.8-5.9 10.2-8.8 10.2h-.1c-2.4-.1-3.9-2.4-5.3-4.6-1.4-2.2-2.9-4.4-5.1-4.6-2.1-.095-3.653 1.722-5.355 3.713l-.245.287-.297.345c-1.803 2.098-3.649 4.245-6.303 4.055-2.7-.2-4.3-2.5-5.8-4.7l-.245-.344c-1.4-1.969-2.67-3.756-4.655-3.756-2 0-3.4 1.8-4.9 3.8-1.6 2.2-3.3 4.4-6.1 4.6-2.8.2-4.8-2-6.6-4.1l-.35-.389z" class="Secondary" clip-rule="evenodd"/>
    <g class="Group_4">
      <path fill="#07038C" d="M408.9 522.5l5.7-6.4 2.3-2.6c.7-.8.7-2.1-.2-2.8-.9-.7-2.1-.7-2.8.2l-3.4 3.9-4.6 5.1 3 2.6z" class="Vector_141"/>
      <path fill="#07038C" d="M405.2 512.9l2.7-3c.7-.8.7-2.1-.2-2.8-.8-.7-2.1-.7-2.8.2l-3.8 4.3-4.2 4.7 3 2.7 5.3-6.1z" class="Vector_142"/>
      <path fill="#07038C" d="M434.3 527.5h-73.9L328 447.6l-9-22.1h-1.6c4.3-1.8 7.3-6.1 7.3-11v-5.2c0-6.5-5.2-11.8-11.6-11.9h-55.4s0-.1-.1-.1c-.1-.3-.3-.6-.4-.9v-.1c-.2-.3-.4-.7-.5-1-.4-.8-.9-1.5-1.4-2.2-.2-.2-.3-.5-.5-.7-.5-.7-1.1-1.5-1.6-2.2-.4-.5-.8-1-1.3-1.5-.3-.3-.6-.7-.9-1-.2-.3-.5-.5-.7-.8-2.8-2.9-6-5.7-9.4-8.2-.4-.3-.7-.6-1.1-.8-3.8-2.8-7.9-5.4-12-7.9s-8.7-4.8-13.2-6.8c-6.3-2.8-12.4-4.9-16.6-5.8-1.1-.3-2.1-.4-2.9-.5l-.2 3.2h.1c.7.2 1.3.3 2 .5.4.1.7.2 1.1.3.4.1.9.2 1.3.3h.1c.7.2 1.4.4 2 .6h.2c.2.1.4.1.6.2.5.2 1.1.3 1.6.5s1 .3 1.4.5c.3.1.5.2.8.3.5.2 1.1.4 1.6.6.1 0 .1.1.2.1.5.2 1.1.4 1.6.6.3.1.6.2.9.4l1.5.6c.1 0 .3.1.4.2.3.1.5.2.8.3.3.1.7.3 1 .4.3.1.5.2.7.3.1 0 .2.1.3.1.4.1.7.3 1 .5.2.1.3.2.5.3.1 0 .1 0 .2.1.5.2.9.4 1.3.7l1.2.6c.5.2.9.5 1.4.7.2.1.3.2.5.3.1 0 .2.1.2.1.4.2.8.4 1.1.6 0 0 .1 0 .1.1.1 0 .2.1.3.2.5.3.9.5 1.4.8.1.1.2.1.3.2.3.2.6.3.9.5.3.1.5.3.8.4.1.1.3.2.5.3.3.2.6.3.8.5l.9.6s.1 0 .1.1l1.8 1.2c.1 0 .1.1.2.1l1.8 1.2.9.6c.3.2.6.5.9.7.2.2.4.3.6.5.1.1.2.1.3.2.3.2.6.4.9.7.4.3.8.7 1.3 1 .2.1.3.3.5.4.2.1.4.3.5.5.1.1.3.2.4.3.5.4 1 .8 1.5 1.3.3.3.6.5.9.8l.3.3c.4.3.7.7 1.1 1 .2.2.5.4.7.6.4.4.8.7 1.2 1.1.6.6 1.2 1.1 1.8 1.7.1.2.3.3.4.5l.3.3c.3.3.6.6.9 1 .3.3.5.5.7.8.2.2.4.4.6.7.2.2.4.4.6.7.4.5.9 1 1.3 1.5l.2.2c.2.2.3.4.5.6.3.4.6.7.9 1.1.5.6.9 1.1 1.4 1.7.4.5.8 1 1.2 1.6 6.2 8 11.4 17 15.2 26.6.1.3.3.6.4.9.9 2.3 1.7 4.7 2.5 7.1h40.4l5.7 14.1 35.2 86.5V546h79.8c5 0 9-4 9-9-.1-5.4-4.1-9.5-9.1-9.5z" class="Vector_143"/>
      <path fill="#07038C" d="M325.2 398.2l17.3 49.4 5.7 16.3c2.5 8.2 8 24.3 14.4 27.3 1.4.6 2.7 1 4.1 1.1 2.8.3 5.5-.4 7.9-1.4.1 0 .1 0 .2-.1 2.9-1.3 5.3-3 6.6-4.4l.2-.2c-3.3.8-11.2 2-15.8 1-2.5-.6-11-18.6-20.1-39.6-6.3-14.6-12.9-30.7-18-43.4 0-.1-.1-.2-.1-.3-.6-1.6-1.2-3.1-1.8-4.6 0-.1-.1-.2-.1-.2-.2-.5-.4-1-.6-1.6l.1.7z" class="Vector_144"/>
      <path fill="#07038C" d="M259.599 170.8c-.3.5-.7 1.1-.9 1.7l.4 1.3 3.3 10.4c.7 1.7-.2 3.7-1.9 4.3.4.3.9.4 1.4.5 3.3.4 6.5-4 7.3-9.9.7-5.9-1.3-11-4.6-11.4-1.9-.2-3.7 1-5 3.1z" class="Vector_145"/>
      <path fill="#07038C" d="M254.399 151.4c-.8 4.9-4.6 7.5-6.6 8.3 3.8-.5 9.5-1 13.8-1.3 1.5-.1 2.9-.1 3.9-.1-1-4.6-5.8-13.1-17.6-18.7-.1 0-.1-.1-.2-.1-4-1.9-8.8-3.4-14.5-4.3 7.4 3.2 22 11.2 21.2 16.2z" class="Vector_146"/>
      <path fill="#07038C" d="M256.199 177.5c.7-5.9-1.3-11-4.6-11.4-3.3-.4-6.5 4-7.3 10-.3 2.7-.1 5.3.6 7.3.8 2.3 2.2 3.9 4 4.2 3.1.4 6.1-3.5 7.1-8.9.1-.5.1-.9.2-1.2z" class="Vector_147"/>
      <path fill="#07038C" d="M255 425.5c-1.4-2.9-2.9-5.7-4.5-8.5l-14.4 9.4h12c-1 2.5-2.1 4.9-3.1 7.1h13.3c-.9-2.4-1.8-4.8-2.9-7.1-.1-.3-.2-.6-.4-.9z" class="Vector_148"/>
      <path fill="#07038C" d="M234.9 397.3h-40.8v-23c-7.1-1.8-14.6-2.8-22.2-2.8-4.6 0-9.1.3-13.5 1v42c0 6.6 5.3 11.9 11.9 11.9h57.9l20.1-13.1c-4-5.8-8.5-11.2-13.4-16z" class="Vector_149"/>
      <path fill="#07038C" d="M254.101 194.1s-1.1 1.8-4.5 1.1c-2.7-.5-3.3-3-3.3-3.1 0-.2-.2-.3-.4-.4h-.2c-.3.1-.4.3-.4.6 0 .1.4 1.5 1.6 2.6.6.5 1.4 1 2.4 1.2.6.1 1.1.2 1.6.2 1.9 0 3-.7 3.5-1.3.3-.3.4-.5.4-.5.1-.2.1-.5-.1-.6-.1-.1-.4 0-.6.2z" class="Vector_150"/>
      <path fill="#07038C" d="M239.101 218c.1-.9.2-1.9.3-2.7v-.5c0-.2 0-.5.1-.7 0-.3 0-.5.1-.7 0-.4.1-.8.1-1.1.1-.6.1-1.1.1-1.8v-1-.5c0-.3 0-.7-.1-1 0-.3-.1-.7-.1-1 0-.5-.1-1-.2-1.5v-.3l-2.1-.6c-.3-.1-.7-.2-1-.3-1.1-.4-2.2-.8-3.2-1.1-.3-.1-.5-.2-.8-.3-.3-.1-.6-.2-1-.4 3.5 4.4 7.3 10.1 7.5 13.6 0 .8.1 1.4.3 1.9z" class="Vector_151"/>
      <path fill="#07038C" d="M219.4 198c-.9.4-2.1 1.2-3.3 1.7-.1 0-.2.1-.3.1-.1 0-.2.1-.3.1v2.2c1.2-.8 3.6-2.7 3.9-4.1z" class="Vector_152"/>
      <path fill="#07038C" d="M210.9 283.9V280.2l-27.9-2-.6-.1-1.3-.1v1.7h.1l29.7 4.2z" class="Vector_153"/>
      <path fill="#07038C" d="M194.1 359.9v-9.6h92.2c.3 0 .5 0 .7-.1.4-.1.8-.1 1.2-.2.2 0 .3-.1.5-.1.1 0 .2-.1.3-.1.2 0 .3-.1.5-.2.1 0 .1 0 .2-.1.2 0 .3-.1.4-.2.3-.1.5-.2.7-.3.2-.1.5-.2.7-.4.1-.1.3-.1.4-.2.2-.1.4-.2.6-.4.7-.5 1.3-1 1.9-1.6.2-.2.4-.5.6-.7.2-.2.4-.5.6-.7 1.6-2.2 2.6-4.9 2.6-7.9 0-.7-.1-1.4-.2-2.1 1.6-.7 3.1-1.6 4.3-2.9 2.4-2.4 3.8-5.6 3.8-9.3 0-1.4-.2-2.8-.7-4.1-.1 0-.3-.1-.4-.1-1.6-.6-2.3-4.3-3.8-5.9-.3-.2-.5-.4-.8-.6-1.7-.7-7.1-.2-8.8-.9-.8-.4-1.5-.8-2.1-1.3h-37.4l-1.6-5.9-.1-.3 4.9-31.2 6-1.2V269.9l-5.1.5-1.1.1-.9.1-7.6 33.4.1.4.7 2.4.9 3.1h.1c.6 1.8 1.2 3.6 1.8 5.3l1.9.4s4-1 8.5-3.2c2-1 13.4.1 19.1 1.5 7.3 1.8 10.7 8.9 10.6 9.7 0 .2-.3.6-1.1 1.1-.9.5-2.5 1.1-5.3 1.4-1.7.2-3.6-1.1-5.5-2.1-1.3-.7-2.6-1.2-3.9-1.2-.8 0-2 .5-3.5 1.2-3.4 1.6-7.9 4.1-9.7 4.1-4.9 0-9.5-2.2-11.9-4.1-.2-.1-.3-.3-.5-.4H193.8c-4.6-.4-8.4-4-8.9-8.7l-.1-1.1-.3-2.3-1.6-13.8h-2.1l-1.8-19.8-1-.1.4-6.4-1.6-18.3-.5-5c-.6.8-1.6 1.2-2.7 1.2h-8.5l.7 7.5 3.7 41c-3.2.1-6.1 1.5-8.1 3.6-2.1 2.1-3.3 5-3.3 8.3v48.7c4.4-.6 8.9-.9 13.5-.9 7.9 0 15.4.8 22.5 2.4z" class="Vector_154"/>
      <path fill="#07038C" d="M177.7 459.3c-1.6-1.2-3.6-1.9-5.8-1.9-1.1 0-2.1.2-3.1.5-1.4.5-2.7 1.3-3.7 2.3-1.8 1.8-3 4.4-3 7.3 0 .6.1 1.3.2 1.9.3 1.5.9 2.9 1.7 4.1 1.8 2.5 4.6 4.1 7.9 4.1 1.2 0 2.3-.2 3.3-.6 1.4-.5 2.6-1.4 3.7-2.4 1.7-1.8 2.8-4.3 2.8-7.1 0-1.7-.4-3.4-1.2-4.8-.7-1.4-1.6-2.6-2.8-3.4z" class="Vector_155"/>
      <path fill="#07038C" d="M99.7 407.8c-6.8 8.9-12.2 19-15.6 30.1-1 3.1-1.8 6.4-2.5 9.6l32.3-.3c-14.4-16.5 7.6-21.3 7.6-21.3s-16.7-20 0-35.9c.3-.3.6-.5.9-.8l-1.1-1.8c-8.2 5.5-15.5 12.4-21.6 20.4z" class="Vector_156"/>
      <path fill="#07038C" d="M101.3 385.2c4.2-3.8 8.7-7.3 13.4-10.5-3.8-2.5-8.6-4.1-13.2-3.5-1.2.2-2.3.5-3.5.9-6.4 2.7-9 9.6-9.2 10.2-2.3 6.5-.5 12.4-1.3 12.5-.8.2-1.4-5.5-4.7-11.7-.9-1.7-1.9-3.4-3.3-5.1-2.2-2.9-7.1-9.2-14.8-9.7-7.2-.5-16.8 4.1-18.1 12.5-.9 5.3 1.9 9.8 4.2 12.3-2.3-1.9-5.9-4.1-10.5-3.9-8.1.2-15.4 7.4-14.8 12.8.6 6.3 11.9 9.6 11.2 11.2-.5 1.3-7.6-2.3-15.6-.3-1.7.5-10.5 3-13.3 11.2-1.7 5.1-1 11.7 2.8 15.6 4.4 4.5 14.7 7 18.8 7.8 1.1.2 1.7.3 1.7.3l34.5-.3h1.5c1.9-10.9 5.4-21.3 10.3-30.9 6.1-11.8 14.2-22.5 23.9-31.4z" class="Vector_157"/>
    </g>
    <g class="Group_5">
      <path fill="#EFF2FA" d="M780.7 312.2c-6 4.7-14.5 5.4-21.7 5.5.4 5.2.2 12.9.2 20.7 1 0 2.1.2 3.2.5 12.6 3.4 9 27.3 8.8 28.5.4-.9 6.6-15.4 15.3-10.3 21.4 22.1-11.8 46.5-11.8 46.5l-6.5-.1-51.2-.5-9.6.1c2.2 4 3.4 8.5 3.4 13.3V444c0 1.2-.1 2.4-.2 3.6h89.9V136.9s-15.6 26.3-38.6 58c4.8 6.1 8.9 17.4 12.9 28.4 7.9 22 26.3 73.1 5.9 88.9z" class="Vector_158"/>
      <path fill="#EFF2FA" d="M721.201 335.9h-16.5c-5.9 3.3-12.4 6-19.5 7.9.1 3 .4 5.8.7 8.3.1.6.2 1.3.2 1.9 4.3-.6 8.9 1.8 11.5 4.8 1.5 1.7 2.5 3.8 2.9 6.1 10.4-7.9 23.1 2.2 23.7 2.6-.5-.6-11.6-12.3 1.5-19.5 13.4-7.3 19.6 2.9 19.6 2.9s1-3.5 3.4-6.8c0-1.5 0-3.4-.1-5.7-.1-5.7-1.1-10.4-1.9-14.5-5.6 7.3-15 12-25.5 12z" class="Vector_159"/>
      <path fill="#EFF2FA" d="M698.101 124.2c27 0 48.8-21.8 48.8-48.8 0-27-21.8-48.8-48.8-48.8-27 0-48.8 21.8-48.8 48.8 0 27 21.9 48.8 48.8 48.8zm16.5-61.6c2.6 0 4.7 2.1 4.7 4.7s-2.1 4.7-4.7 4.7-4.7-2.1-4.7-4.7 2.1-4.7 4.7-4.7zm-2.8 20.5s-5.3 11.9-15 11.9-13.8-11.9-13.8-11.9h28.8zm-29.8-20.5c2.6 0 4.7 2.1 4.7 4.7s-2.1 4.7-4.7 4.7-4.7-2.1-4.7-4.7 2.1-4.7 4.7-4.7z" class="Vector_160"/>
      <path fill="#EFF2FA" d="M725.801 253.6c2-7 4.2-14 6.4-20.9-5.9 7.1-12.1 14-18.4 20.6h7.3c1.7 0 3.2.1 4.7.3z" class="Vector_161"/>
      <path fill="#EFF2FA" d="M694.2 507.4c.9-.9 1.5-2.2 1.5-3.6 0-2.8-2.3-5.1-5.1-5.1h-265c-1.4 0-2.7.6-3.6 1.5-.9.9-1.5 2.2-1.5 3.6 0 2.8 2.3 5.1 5.1 5.1h265c1.4 0 2.7-.5 3.6-1.5z" class="Vector_162"/>
      <path fill="#EFF2FA" d="M433.001 388.9h192.2c.1-.2.1-.4.2-.6 1.8-5.4 7.5-7 8.6-7.3 5.2-1.4 9.7 1 10.1.2.4-1.1-6.9-3.2-7.3-7.3-.4-3.5 4.3-8.1 9.6-8.3 3-.1 5.4 1.3 6.8 2.5-1.4-1.7-3.3-4.6-2.7-8 .9-5.5 7.1-8.5 11.8-8.1 5 .3 8.2 4.4 9.6 6.3.9 1.1 1.6 2.2 2.1 3.3.1-1.6.2-3.2.2-4.8.1-5.3.1-8.3.1-10.9-10.4 1.5-21.9 1.3-34.7-1-10-1.8-19.5-4.9-28.6-9.1h-171.1c-17 0-30.8-12.3-30.8-27.5v-27.6c0-15.2 13.8-27.5 30.8-27.5h77.4c-16.3-19.2-32.1-38.1-48.3-53h-109.3c-10.7 0-20-6.1-24.5-15.1-29.8 9.2-57 21-81.5 32.5.9 3.3 1.7 6.6 2.5 9.9 1.7 1.7 3.2 4.1 4 7l4.3 35-2.9.3v1.9l.9 29 25-.4c1.1-.2 2.2 0 2.2 0s2.8.6 6.3.5c1.6 0 8.5 4.1 11.7 6.7 4.1 3.4 2.5 10.9 2.2 11.3-.2.3-1.3.8-4.3-.2.4 1.3.7 2.7.7 4.1 0 3.6-1.5 6.9-3.8 9.3-1.2 1.2-2.7 2.2-4.3 2.9.1.7.2 1.4.2 2.1 0 3-1 5.7-2.6 7.9 20.9-.5 41 .2 51.7 3.7 15.5 5.1 31.5 60 39.6 98.9h18.8c-.2-1.2-.2-2.4-.2-3.6v-27.6c-.2-15 12.1-27.4 27.3-27.4zm-32.7-25.4c-.9 1-1.8 2-2.8 2.8-1 .8-2.2 1.3-3.6 1.3-1.9-.1-3.5-1.1-4.8-2.5-1.3-1.4-2.4-3.1-3.3-4.6l.9-.5c.8 1.5 1.8 3.1 3.1 4.4 1.3 1.3 2.6 2.2 4.1 2.2 1.1 0 2-.4 2.9-1.1.9-.7 1.8-1.6 2.6-2.7 1.7-2 3.7-4.2 6.6-4.2 1.5 0 2.8.5 3.9 1.3s2 1.9 2.9 2.9c.9 1 1.8 2 2.7 2.7.9.7 1.9 1.1 3.1 1 1.1-.1 2.1-.6 2.9-1.3.9-.8 1.6-1.8 2.4-2.8l.1-.1c.7-1 1.5-2 2.4-2.8.9-.8 2-1.4 3.3-1.4 1.3 0 2.4.7 3.3 1.5.9.8 1.6 1.9 2.4 3 .8 1.1 1.5 2.1 2.3 2.9.8.8 1.7 1.3 2.8 1.3 1.1.1 2.1-.4 3-1.1 1-.8 1.8-1.8 2.7-2.9.9-1.1 1.8-2.2 2.8-3 1-.8 2.2-1.4 3.6-1.3 1.4.1 2.5.8 3.3 1.7.9.9 1.7 2.1 2.4 3.2l.1.1c.7 1.1 1.4 2.1 2.1 2.9.8.8 1.5 1.3 2.4 1.3.8 0 1.8-.3 3.2-1.6 1.3-1.4 3-3.8 4.8-8l.9.4c-1.9 4.2-3.5 6.8-5 8.3-1.5 1.5-2.8 2-3.9 1.9-1.3 0-2.3-.7-3.1-1.6-.8-.8-1.5-1.9-2.2-3l-.1-.2c-.7-1.1-1.4-2.2-2.3-3-.8-.8-1.7-1.3-2.7-1.4-1.1-.1-2 .3-2.9 1.1-.9.8-1.8 1.8-2.7 2.9-.9 1.1-1.8 2.2-2.9 3.1-1.1.8-2.3 1.4-3.7 1.3-1.4-.1-2.5-.7-3.4-1.6-.9-.9-1.7-2-2.4-3.1-.8-1.1-1.5-2.1-2.3-2.9-.8-.8-1.6-1.2-2.6-1.2s-1.8.4-2.6 1.1c-.8.7-1.5 1.7-2.3 2.7-.8 1-1.6 2.1-2.5 3-1 .9-2.1 1.5-3.6 1.6-1.5.1-2.7-.4-3.8-1.3-1-.8-1.9-1.8-2.8-2.8-.9-1-1.8-2-2.8-2.8-1-.7-2-1.2-3.2-1.1-2.2.1-3.9 1.9-5.7 4z" class="Vector_163"/>
      <path fill="#EFF2FA" d="M569.901 253.3h.2c-13.1-17.8-26.5-37.2-44.5-53h-.3c18.1 15.8 31.4 35.2 44.6 53z" class="Vector_164"/>
      <path fill="#EFF2FA" d="M325.1 398.1c-.1-.3-.2-.5-.3-.8h-11.7c6.5.2 11.6 5.4 11.6 11.9v5.2c0 5-3 9.2-7.3 11h1.6l9 22.1h14.4l-17.3-49.4z" class="Vector_165"/>
      <path fill="#EFF2FA" d="M327.501 403.9c-.6-1.6-1.2-3.2-1.8-4.6.5 1.5 1.1 3 1.8 4.6z" class="Vector_166"/>
      <path fill="#EFF2FA" d="M273.201 433.5c1.5 4.6 2.6 9.3 3.5 14.1h42.7l-5.7-14.1h-40.5z" class="Vector_167"/>
      <path fill="#EFF2FA" d="M301.4 312.7c-.2-.3-.5-.5-.8-.6.2.2.5.4.8.6z" class="Vector_168"/>
      <path fill="#EFF2FA" d="M245 433.5c-3.3 7.4-6 12.8-6.6 14.1h24c-1-4.8-2.3-9.6-4-14.1H245z" class="Vector_169"/>
      <path fill="#EFF2FA" d="M249.6 392.3c-.2-.2-.4-.4-.6-.7.1.1.2.3.3.4.2.1.2.2.3.3z" class="Vector_170"/>
      <path fill="#EFF2FA" d="M124.9 582.9c-23.9.3-28.9-2.1-28-5.3-31.8-2.8-58.2-7-58.2-7 2.7-2.3 33.4-4 63.3-5.2l-.6-.3c-12-5.7-74.6 2.9-69.4-4.6 5.2-7.5 31.5-8 18.9-11.5-10.1-2.8-37.9-1.1-50.5 0v51.6h236.9c-19.5-6.1-69.3-18.2-112.4-17.7z" class="Vector_171"/>
      <path fill="#EFF2FA" d="M215.001 366.8c-.1 0-.2-.1-.3-.1.1.1.2.1.3.1z" class="Vector_172"/>
      <path fill="#EFF2FA" d="M203.7 447.5l-.1.1h6.1l-6-.1z" class="Vector_173"/>
      <path fill="#EFF2FA" d="M195.6 447.6l.2-.1-33.4-.4.3.5h32.9z" class="Vector_174"/>
      <path fill="#EFF2FA" d="M195.201 354.8l-.2-4.5h2.9-3.7v9.6c.2 0 .5.1.7.2 0-1.7.1-3.5.3-5.3z" class="Vector_175"/>
      <path fill="#EFF2FA" d="M101.1 368.4c.1 1 .3 2 .3 2.9 4.6-.6 9.4.9 13.2 3.5 12.9-8.5 27.8-14.3 43.7-16.4v-48.7c0-3.2 1.3-6.1 3.3-8.3-7.8-9.8-9.5-24.5-7.9-41.6-2.4.4-4.7.7-6.9.8-.1 16.2-4 30.1-14.2 38-9.3 7.2-22.4 8.3-33.5 8.5 1.3 14.9-.6 43.2 2 61.3z" class="Vector_176"/>
      <path fill="#EFF2FA" d="M158.4 390c-2.5-3.2-6.7-9.8-5.5-16.4-10 2.2-19.4 6.1-28 11.3l1 1.6c12.9-7.8 27.5.8 32.5 4.3v-.8z" class="Vector_177"/>
      <path fill="#EFF2FA" d="M114 447.4c-.1-.1-.1-.2-.2-.2l-32.3.3v.1h76.1l-.3-.6-8.2-.1-35.1.5z" class="Vector_178"/>
      <path fill="#EFF2FA" d="M10.7 439.9c-3.8-3.9-4.6-10.5-2.8-15.6 2.8-8.3 11.5-10.8 13.3-11.2 8-2.1 15 1.6 15.6.3.7-1.6-10.6-5-11.2-11.2-.5-5.4 6.7-12.5 14.8-12.8 4.6-.1 8.3 2.1 10.5 3.9-2.2-2.6-5-7-4.2-12.3 1.3-8.4 10.9-13 18.1-12.5 7.7.5 12.6 6.8 14.8 9.7 1.3 1.7 2.4 3.4 3.3 5.1.2-2.5.3-5 .3-7.5.2-19.6.4-18.9 0-36.7C83 327 81.6 316 81.9 307c-10.4-.6-22.2-2.6-30.6-9.6-15.3-12.8-14.8-38.7-8.5-67.9C18.4 218.3.4 208.3.4 208.3v239.3h29c-4-.8-14.3-3.2-18.7-7.7z" class="Vector_179"/>
      <path fill="#EFF2FA" d="M750.5 549.4c-12.6 3.4 13.8 4 18.9 11.5 5.2 7.5-57.4-1.1-69.4 4.6-12 5.7 30.4 18.4-23.5 17.8-43.1-.5-92.9 11.7-112.4 17.8H801v-51.6c-12.6-1.3-40.4-2.9-50.5-.1z" class="Vector_180"/>
    </g>
  </g>
  <defs>
    <clipPath id="clip0" class="clip0">
      <path fill="#fff" d="M0 0h801v601H0z"/>
    </clipPath>
  </defs>
</svg>
