<svg xmlns="http://www.w3.org/2000/svg" width="800" height="600" fill="none" viewBox="0 0 800 600">
  <g class="perspective_one">
    <path fill="#fff" d="M0 0h800v600H0z"/>
    <path fill="#B398FF" d="M0 0h800v600H0z" class="Rectangle"/>
    <path fill="#000" fill-opacity=".54" fill-rule="evenodd" d="M246.06 183.544c-7.159-3.172-20.413-5.247-27.416-6.344-2.019-.316-3.518-.551-4.203-.707-4.003-.817 4.677 11.199 4.677 11.199s-22.36-4.413-26.976-4.224c-.824.103-.597 2.438.512 5.713 4.601.31 14.033 1.265 16.647 1.613a.5.5 0 01-.132.992c-2.527-.337-11.457-1.243-16.15-1.577a44.613 44.613 0 001.555 3.647c4.582.305 14.074 1.266 16.699 1.616a.5.5 0 01-.132.991c-2.511-.334-11.339-1.23-16.056-1.569a47.421 47.421 0 003.204 5.403c3.608.057 8.086.376 12.967.856a.5.5 0 01-.098.995c-4.545-.447-8.716-.751-12.148-.836a35.717 35.717 0 003.066 3.658c3.285 3.467 32.964 7.668 39.963 8.616l4.021-30.042z" class="Subtract" clip-rule="evenodd"/>
    <path fill="#000" fill-opacity=".07" fill-rule="evenodd" d="M800 272.541c0-11.021-8.935-19.955-19.956-19.955H474.903c-8.307 0-15.041 6.734-15.041 15.041s-6.734 15.041-15.041 15.041h-88.266c-22.092 0-40 17.909-40 40v7.179c0 22.092 17.908 40 40 40h261.462c21.36 0 38.675-17.315 38.675-38.675 0-21.36 17.316-38.676 38.676-38.676h84.676c11.021 0 19.956-8.934 19.956-19.955z" class="Union" clip-rule="evenodd"/>
    <path fill="#F2FFF4" d="M282.646 362.632c4.8-2.3 14.1-3.4 20.9-2.3l1.8.3c6.7 1 8.3 3.8 3.5 6.1l-123 60c-4.8 2.3-14.1 3.4-20.8 2.3l-1.8-.3c-6.7-1-8.3-3.8-3.5-6.1l122.9-60z" class="Vector"/>
    <path fill="#4D4D4F" d="M262.446 348.233c11-1.6 23.4-1.9 33.5-.3l405.7 62.6c10.1 1.6 15.8 4.6 16.4 8-1.3-1.9-5-3.6-11-4.5l-424.9-65.5c-5.9-1-13-1-19.7-.3z" class="Vector_2"/>
    <path fill="#4D4D4F" d="M115.346 429.832l424.9 65.5c6 .9 13 .9 19.7.2-11 1.7-23.4 1.9-33.5.3l-405.7-62.6c-10.1-1.6-15.8-4.6-16.4-8 1.3 2 5 3.7 11 4.6z" class="Vector_3"/>
    <path fill="#DEDEDE" d="M709.747 406.132l-405.8-62.6c-24.3-3.7-58 .1-75.2 8.5l-130.1 63.5c-17.2 8.4-11.5 18.3 12.8 22l405.7 62.5c24.3 3.7 58-.1 75.3-8.5l130.1-63.5c17.2-8.3 11.4-18.2-12.8-21.9zm3.7 18.9l-2.6 1.3-130.1 63.5-2.6 1.3c-4.5 2.2-11.1 3.7-18.2 4.5-11 1.7-23.4 1.9-33.5.3l-405.7-62.6c-10.1-1.6-15.8-4.6-16.4-8-1.4-2.1.1-4.4 4.5-6.6l13.9-6.8 107.5-52.4 13.9-6.8c4.5-2.2 11.2-3.8 18.3-4.5 11-1.6 23.4-1.9 33.5-.3l405.7 62.6c10.1 1.6 15.8 4.6 16.4 8 1.3 2-.1 4.3-4.6 6.5z" class="Vector_4"/>
    <path fill="#F7F7F7" fill-rule="evenodd" d="M153.532 75.897H32.62c-17.673 0-32 14.326-32 31.999v149.396c0 17.673 14.327 32 32 32h15.136c17.673 0 32 14.327 32 32v29.239c0 17.674 14.327 32 32 32h54.505l62.485-30.498c17.2-8.4 50.9-12.2 75.2-8.5l50.816 7.839c.007-.279.011-.559.011-.841v-77.817c0-17.673-14.327-32-32-32H217.532c-17.673 0-32-14.327-32-32V107.896c0-17.673-14.327-32-32-32zm9.377 60.835c0-8.356-6.464-15.608-15.766-18.761-.472-13.086-14.346-23.649-31.531-23.649-11.036 0-20.81 4.415-26.329 11.036l-.4-.036c-1.579-.145-3.045-.279-4.645-.279-9.617 0-18.13 3.311-23.964 8.513-2.68-.788-5.675-1.103-8.67-1.103-14.663 0-26.645 9.144-26.645 20.495l137.95 3.784z" class="Subtract_2" clip-rule="evenodd"/>
    <path fill="#4D4D4F" d="M122.746 411.932l107.5-52.4 19.9 3.1c8.3 1.3 10.2 4.6 4.3 7.5l-86.2 42c-5.9 2.9-17.4 4.2-25.7 2.9l-19.8-3.1zm113.9-42.9c1.4-.7 1-1.5-1.1-1.8-2-.3-4.9 0-6.3.7-1.5.7-1 1.5 1.1 1.8 2 .3 4.8 0 6.3-.7zm-15.3 7.4c1.4-.7 1-1.5-1.1-1.8-2-.3-4.9 0-6.3.7-1.4.7-1 1.5 1.1 1.8 2 .3 4.8 0 6.3-.7z" class="Vector_5"/>
    <path fill="#F2FFF4" d="M230.347 369.733c2 .3 4.9 0 6.3-.7 1.4-.7 1-1.5-1.1-1.8-2-.3-4.9 0-6.3.7-1.5.6-1 1.5 1.1 1.8z" class="Vector_6"/>
    <path fill="#F2FFF4" d="M213.946 375.332c1.4-.7 4.3-1 6.3-.7 2 .3 2.5 1.1 1.1 1.8s-4.3 1-6.3.7c-2.1-.3-2.5-1.1-1.1-1.8z" class="Vector_7"/>
    <path fill="#fff" d="M732.546 420.032c-.1-.8-.1-1.6-.2-2.3.2 2.3-1.3 4.2-2.8 5.7-1.2 1.1-2.5 2.1-3.9 2.9-.8.5-15.5 7.7-19.4 9.6-5.7 2.8-11.4 5.5-17.1 8.3l-20.4 9.9c-7.1 3.5-14.3 7-21.4 10.4-6.8 3.3-13.6 6.6-20.4 10-5.8 2.8-11.6 5.7-17.4 8.5-4.1 2-8.1 4-12.2 6-1.2.6-2.3 1.1-3.5 1.7-.3.1-1.3.4-1.5.7v.1-.1c-.5.3-1.1.5-1.6.8-8.1 3.6-17 5.6-25.8 7-8.6 1.4-17.3 2.1-26 2.1-7.7.1-15.3-.4-22.9-1.6-2.3-.4-4.6-.7-6.9-1.1-4.1-.6-8.3-1.3-12.4-1.9-5.8-.9-11.5-1.8-17.3-2.7-7.2-1.1-14.3-2.2-21.5-3.3-8.3-1.3-16.6-2.6-24.9-3.8-9.3-1.4-18.5-2.9-27.8-4.3-9.9-1.5-19.8-3.1-29.7-4.6-10.4-1.6-20.8-3.2-31.3-4.8-10.6-1.6-21.1-3.3-31.7-4.9-10.6-1.6-21.2-3.3-31.8-4.9-10.3-1.6-20.7-3.2-31-4.8-9.8-1.5-19.7-3-29.5-4.6-9.2-1.4-18.4-2.8-27.5-4.2-8.2-1.3-16.4-2.5-24.5-3.8-7-1.1-14.1-2.2-21.1-3.3-5.6-.9-11.2-1.7-16.8-2.6-4-.6-7.9-1.2-11.9-1.8-2.1-.3-12.3-2-14.1-2.5-3.3-.8-6.6-1.8-9.6-3.4-2.6-1.399-5.8-3.6-6-6.899.3 3.399.5 6.799.7 10.299.2 2.4.3 4.801.5 7.1.1 1.201.2 2.3.7 3.3 1.1 2 3.2 3.5 5.1 4.5 3.3 1.8 7 2.901 10.6 3.7 2.2.5 4.5.901 6.8 1.3 1.9.3 3.7.6 5.6.9 3.8.6 7.7 1.201 11.5 1.8 5.5.9 11 1.7 16.6 2.6 7 1.101 14.1 2.2 21.1 3.3 8.2 1.3 16.4 2.5 24.6 3.8 9.2 1.4 18.4 2.8 27.7 4.3 10 1.5 19.9 3.1 29.9 4.6 10.4 1.6 20.9 3.2 31.3 4.8 10.7 1.7 21.4 3.3 32.2 5 10.7 1.7 21.5 3.3 32.2 5 10.5 1.6 21 3.2 31.4 4.8 10.1 1.6 20.1 3.1 30.2 4.7 9.3 1.4 18.6 2.9 27.9 4.3 8.4 1.3 16.7 2.6 25.1 3.9 7.2 1.1 14.3 2.2 21.5 3.3 5.7.9 11.4 1.8 17.1 2.6 4.1.6 8.1 1.3 12.2 1.9 2.1.3 12.4 1.8 13.4 1.9 8.4.8 16.9.8 25.4.3 7.1-.5 17.122-.982 22.6-2.5 18.176-5.035 62.9-27.5 69-30.5 6.6-3.2 13.3-6.5 19.9-9.7 6.5-3.2 13.1-6.4 19.6-9.6l17.7-8.7 14.1-6.9 8.7-4.2c3.6-1.7 7.3-3.5 9.9-6.5 1.2-1.3 2.1-3 2-4.8-.2-5.2-.6-10.7-1-16.1z" class="Vector_8"/>
    <path fill="#3C474E" d="M445.077 379.476c.194-1.643-2.237-3.146-6.93-3.844l-88.9-13.7c-7.4-1.1-17.7 0-23 2.6l-121.3 59.1c-2.12 1.001-3.086 2.095-3.03 3.121-.01.089-.005.176 0 .264-.01.089-.005.177 0 .265-.01.088-.005.176 0 .264-.01.089-.005.176 0 .264-.01.089-.005.176 0 .264-.01.089-.005.177 0 .265-.01.089-.005.176 0 .264-.01.089-.005.176 0 .264-.01.089-.005.177 0 .265-.01.088-.005.176 0 .264-.01.089-.005.176 0 .264-.01.089-.005.176 0 .264-.01.089-.005.177 0 .265-.01.088-.005.176 0 .264-.01.089-.005.176 0 .264-.01.089-.005.177 0 .264-.01.089-.005.177 0 .265-.01.089-.005.176 0 .264-.01.089-.005.176 0 .264-.01.089-.005.177 0 .265-.195 1.643 2.236 3.146 6.93 3.843l88.9 13.7c7.4 1.1 17.7 0 23-2.6l121.3-59.1c2.12-1 3.086-2.094 3.03-3.12.01-.089.004-.176 0-.264.01-.089.004-.177 0-.265.01-.088.004-.176 0-.264.01-.089.004-.176 0-.264.01-.089.004-.177 0-.265.01-.088.004-.176 0-.264.01-.089.004-.176 0-.264.01-.089.004-.176 0-.264.01-.089.004-.177 0-.265.01-.088.004-.176 0-.264.01-.089.004-.176 0-.264.01-.089.004-.177 0-.264.01-.089.004-.177 0-.265.01-.089.004-.176 0-.264.01-.089.004-.176 0-.264.01-.089.004-.177 0-.265.01-.088.004-.176 0-.264.01-.089.004-.176 0-.264.01-.089.004-.177 0-.264.01-.089.004-.177 0-.265z" class="Vector_9"/>
    <path fill="#F2FFF4" d="M326.247 364.096c5.3-2.6 15.6-3.7 23-2.6l88.9 13.7c7.4 1.1 9.2 4.2 3.9 6.7l-121.3 59.1c-5.3 2.6-15.6 3.7-23 2.6l-88.9-13.7c-7.4-1.1-9.2-4.2-3.9-6.7l121.3-59.1z" class="Vector_10"/>
    <path fill="#3C474E" d="M369.343 443.001c.148-1.196-1.582-2.263-4.997-2.769l-11.6-1.8c-5.3-.8-12.8 0-16.6 1.9l-8.3 4c-1.525.763-2.232 1.573-2.198 2.322-.008.064-.003.127 0 .19-.008.065-.003.128 0 .191-.008.064-.003.127 0 .19-.008.064-.003.127 0 .19-.008.065-.003.128 0 .191-.008.064-.003.127 0 .19-.008.064-.003.127 0 .19-.008.065-.003.128 0 .191-.008.064-.003.127 0 .19-.008.064-.003.127 0 .19-.008.065-.003.127 0 .191-.008.064-.003.127 0 .19-.008.064-.003.127 0 .19-.008.064-.003.127 0 .191-.008.064-.003.127 0 .19-.008.064-.003.127 0 .19-.008.064-.003.127 0 .191-.008.064-.003.127 0 .19-.008.064-.003.127 0 .19-.008.064-.003.127 0 .191-.008.064-.003.127 0 .19-.008.064-.003.127 0 .19-.008.064-.003.127 0 .191-.008.064-.003.127 0 .19-.008.064-.003.127 0 .19-.008.064-.003.127 0 .191-.008.064-.003.127 0 .19-.008.064-.003.127 0 .19-.008.064-.003.127 0 .191-.008.064-.003.127 0 .19-.147 1.196 1.582 2.262 4.998 2.768l11.6 1.8c5.3.8 12.8 0 16.6-1.9l8.3-4c1.525-.762 2.231-1.572 2.197-2.321.008-.065.003-.127 0-.191.008-.064.003-.127 0-.19.008-.064.003-.127 0-.19.008-.064.003-.127 0-.191.008-.064.003-.127 0-.19.008-.064.003-.127 0-.19.008-.064.003-.127 0-.191.008-.064.003-.127 0-.19.008-.064.003-.127 0-.19.008-.064.003-.127 0-.191.008-.064.003-.127 0-.19.008-.064.003-.127 0-.19.008-.064.003-.127 0-.191.008-.064.003-.127 0-.19.008-.064.003-.127 0-.19.008-.064.003-.127 0-.191.008-.064.003-.127 0-.19.008-.064.003-.127 0-.19.008-.064.003-.127 0-.191.008-.064.003-.127 0-.19.008-.064.003-.127 0-.19.008-.064.003-.127 0-.191.008-.064.003-.127 0-.19.008-.064.003-.127 0-.19.008-.064.003-.127 0-.191.008-.064.003-.127 0-.19.008-.064.003-.127 0-.19.008-.064.003-.127 0-.191.008-.064.003-.127 0-.19.008-.064.003-.127 0-.19z" class="Vector_11"/>
    <g class="Group">
      <g class="Group_2">
        <path fill="#F2FFF4" d="M336.147 440.332c3.8-1.9 11.3-2.7 16.6-1.9l11.6 1.8c5.4.8 6.6 3 2.8 4.9l-8.3 4c-3.8 1.9-11.3 2.7-16.6 1.9l-11.6-1.8c-5.4-.8-6.6-3-2.8-4.9l8.3-4z" class="Vector_12"/>
      </g>
    </g>
    <path fill="#3C474E" d="M488.694 384.901c.147-1.196-1.582-2.263-4.998-2.769l-11.6-1.8c-5.3-.8-12.8 0-16.6 1.9l-8.3 4c-1.525.763-2.231 1.573-2.197 2.322-.008.064-.003.127 0 .19-.008.064-.003.127 0 .191-.008.064-.003.127 0 .19-.008.064-.003.127 0 .19-.008.064-.003.127 0 .191-.008.064-.003.127 0 .19-.008.064-.003.127 0 .19-.008.064-.003.127 0 .191-.008.064-.003.127 0 .19-.008.064-.003.127 0 .19-.008.064-.003.127 0 .191-.008.064-.003.127 0 .19-.008.064-.003.127 0 .19-.008.064-.003.127 0 .191-.008.064-.003.127 0 .19-.008.064-.003.127 0 .19-.008.064-.003.127 0 .191-.008.064-.003.127 0 .19-.008.064-.003.127 0 .19-.008.064-.003.127 0 .191-.008.064-.003.127 0 .19-.008.064-.003.127 0 .19-.008.064-.003.127 0 .191-.008.064-.003.127 0 .19-.008.064-.003.127 0 .19-.008.064-.003.127 0 .191-.008.064-.003.127 0 .19-.008.064-.003.127 0 .19-.008.064-.003.127 0 .191-.008.064-.003.127 0 .19-.148 1.196 1.582 2.262 4.997 2.768l11.6 1.8c5.3.8 12.8 0 16.6-1.9l8.3-4c1.526-.762 2.232-1.572 2.198-2.322.008-.064.003-.127 0-.19.008-.064.003-.127 0-.19.008-.064.003-.127 0-.19.008-.065.003-.128 0-.191.008-.064.003-.127 0-.19.008-.064.003-.127 0-.19.008-.065.003-.127 0-.191.008-.064.003-.127 0-.19.008-.064.003-.127 0-.19.008-.064.003-.128 0-.191.008-.064.003-.127 0-.19.008-.064.003-.127 0-.19.008-.065.003-.127 0-.191.008-.064.003-.127 0-.19.008-.064.003-.127 0-.19.008-.064.003-.127 0-.191.008-.064.003-.127 0-.19.008-.064.003-.127 0-.19.008-.064.003-.127 0-.191.008-.064.003-.127 0-.19.008-.064.003-.127 0-.19.008-.064.003-.127 0-.191.008-.064.003-.127 0-.19.008-.064.003-.127 0-.19.008-.064.003-.127 0-.191.008-.064.003-.127 0-.19.008-.064.003-.127 0-.19.008-.064.003-.127 0-.191.008-.064.003-.127 0-.19.008-.064.003-.127 0-.19z" class="Vector_13"/>
    <g class="Group_3">
      <g class="Group_4">
        <path fill="#F2FFF4" d="M455.496 382.232c3.8-1.9 11.3-2.7 16.6-1.9l11.6 1.8c5.4.8 6.6 3 2.8 4.9l-8.3 4c-3.8 1.9-11.3 2.7-16.6 1.9l-11.6-1.8c-5.4-.8-6.6-3-2.8-4.9l8.3-4z" class="Vector_14"/>
      </g>
    </g>
    <path fill="#3C474E" d="M459.944 399.101c.147-1.196-1.582-2.263-4.998-2.769l-11.6-1.8c-5.3-.8-12.8 0-16.6 1.9l-8.3 4c-1.525.763-2.231 1.573-2.197 2.322-.008.064-.003.127 0 .191-.008.064-.003.127 0 .19-.008.064-.003.127 0 .19-.008.064-.003.127 0 .191-.008.064-.003.127 0 .19-.008.064-.003.127 0 .19-.008.064-.003.127 0 .191-.008.064-.003.127 0 .19-.008.064-.003.127 0 .19-.008.064-.003.127 0 .191-.008.064-.003.127 0 .19-.008.064-.003.127 0 .19-.008.064-.003.127 0 .191-.008.064-.003.127 0 .19-.008.064-.003.127 0 .19-.008.064-.003.127 0 .19-.008.065-.003.128 0 .191-.008.064-.003.127 0 .19-.008.064-.003.127 0 .19-.008.065-.003.128 0 .191-.008.064-.003.127 0 .19-.008.064-.003.127 0 .19-.008.065-.003.128 0 .191-.008.064-.003.127 0 .19-.008.064-.003.127 0 .19-.008.064-.003.127 0 .191-.008.064-.003.127 0 .19-.008.064-.003.127 0 .19-.008.064-.003.127 0 .191-.008.064-.003.127 0 .19-.148 1.196 1.582 2.263 4.997 2.768l11.6 1.8c5.3.801 12.8 0 16.6-1.899l8.3-4c1.526-.763 2.232-1.573 2.198-2.322.008-.064.003-.127 0-.191.008-.064.003-.127 0-.19.008-.064.003-.127 0-.19.008-.064.003-.127 0-.191.008-.064.003-.127 0-.19.008-.064.003-.127 0-.19.008-.064.003-.127 0-.191.008-.064.003-.127 0-.19.008-.064.003-.127 0-.19.008-.064.003-.127 0-.191.008-.064.003-.127 0-.19.008-.064.003-.127 0-.19.008-.064.003-.127 0-.191.008-.064.003-.127 0-.19.008-.064.003-.127 0-.19.008-.064.003-.127 0-.191.008-.064.003-.127 0-.19.008-.064.003-.127 0-.19.008-.064.003-.127 0-.19.008-.065.003-.128 0-.191.008-.064.003-.127 0-.19.008-.064.003-.127 0-.19.008-.065.003-.127 0-.191.008-.064.003-.127 0-.19.008-.064.003-.127 0-.19.008-.065.003-.128 0-.191.008-.064.003-.127 0-.19.008-.064.003-.127 0-.19.008-.065.003-.127 0-.191.008-.064.003-.127 0-.19z" class="Vector_15"/>
    <g class="Group_5">
      <g class="Group_6">
        <path fill="#F2FFF4" d="M426.746 396.432c3.8-1.9 11.3-2.7 16.6-1.9l11.6 1.8c5.4.8 6.6 3 2.8 4.9l-8.3 4c-3.8 1.9-11.3 2.7-16.6 1.9l-11.6-1.8c-5.4-.8-6.6-3-2.8-4.9l8.3-4z" class="Vector_16"/>
      </g>
    </g>
    <path fill="#3C474E" d="M508.471 463.801c.148-1.196-1.582-2.262-4.997-2.768l-11.6-1.8c-5.3-.8-12.8 0-16.6 1.9l-8.3 4c-1.525.762-2.232 1.572-2.198 2.321-.008.065-.003.128 0 .191-.008.064-.003.127 0 .19-.008.064-.003.127 0 .19-.008.065-.003.128 0 .191-.008.064-.003.127 0 .19-.008.064-.003.127 0 .19-.008.064-.003.127 0 .191-.008.064-.003.127 0 .19-.008.064-.003.127 0 .19-.008.064-.003.127 0 .191-.008.064-.003.127 0 .19-.008.064-.003.127 0 .19-.008.064-.003.127 0 .191-.008.064-.003.127 0 .19-.008.064-.003.127 0 .19-.008.064-.003.127 0 .191-.008.064-.003.127 0 .19-.008.064-.003.127 0 .19-.008.064-.003.127 0 .191-.008.064-.003.127 0 .19-.008.064-.003.127 0 .19-.008.064-.003.127 0 .191-.008.064-.003.127 0 .19-.008.064-.003.127 0 .19-.008.064-.003.127 0 .191-.008.064-.003.127 0 .19-.008.064-.003.127 0 .19-.008.064-.003.127 0 .191-.008.064-.003.127 0 .19-.008.064-.003.127 0 .19-.147 1.196 1.582 2.263 4.998 2.769l11.6 1.8c5.3.8 12.8 0 16.6-1.9l8.3-4c1.525-.763 2.231-1.573 2.197-2.322.008-.064.003-.127 0-.19.008-.065.003-.128 0-.191.008-.064.003-.127 0-.19.008-.064.003-.127 0-.19.008-.065.003-.128 0-.191.008-.064.003-.127 0-.19.008-.064.003-.127 0-.19.008-.065.003-.128 0-.191.008-.064.003-.127 0-.19.008-.064.003-.127 0-.19.008-.065.003-.127 0-.191.008-.064.003-.127 0-.19.008-.064.003-.127 0-.19.008-.064.003-.127 0-.191.008-.064.003-.127 0-.19.008-.064.003-.127 0-.19.008-.064.003-.127 0-.191.008-.064.003-.127 0-.19.008-.064.003-.127 0-.19.008-.064.003-.127 0-.191.008-.064.003-.127 0-.19.008-.064.003-.127 0-.19.008-.064.003-.127 0-.191.008-.064.003-.127 0-.19.008-.064.003-.127 0-.19.008-.064.003-.127 0-.191.008-.064.003-.127 0-.19.008-.064.003-.127 0-.19.008-.064.003-.127 0-.191.008-.064.003-.127 0-.19z" class="Vector_17"/>
    <g class="Group_7">
      <g class="Group_8">
        <path fill="#F2FFF4" d="M475.274 461.133c3.8-1.9 11.3-2.7 16.6-1.9l11.6 1.8c5.4.8 6.6 3 2.8 4.9l-8.3 4c-3.8 1.9-11.3 2.7-16.6 1.9l-11.6-1.8c-5.4-.8-6.6-3-2.8-4.9l8.3-4z" class="Vector_18"/>
      </g>
    </g>
    <path fill="#3C474E" d="M626.643 406.101c.148-1.196-1.582-2.263-4.997-2.769l-11.6-1.8c-5.3-.8-12.8 0-16.6 1.9l-8.3 4c-1.526.763-2.232 1.573-2.198 2.322-.008.064-.003.127 0 .191-.008.064-.003.127 0 .19-.008.064-.003.127 0 .19-.008.064-.003.127 0 .191-.008.064-.003.127 0 .19-.008.064-.003.127 0 .19-.008.064-.003.127 0 .191-.008.064-.003.127 0 .19-.008.064-.003.127 0 .19-.008.064-.003.127 0 .191-.008.064-.003.127 0 .19-.008.064-.003.127 0 .19-.008.064-.003.127 0 .191-.008.064-.003.127 0 .19-.008.064-.003.127 0 .19-.008.064-.003.127 0 .19-.008.065-.003.128 0 .191-.008.064-.003.127 0 .19-.008.064-.003.127 0 .19-.008.065-.003.128 0 .191-.008.064-.003.127 0 .19-.008.064-.003.127 0 .19-.008.065-.003.128 0 .191-.008.064-.003.127 0 .19-.008.064-.003.127 0 .19-.008.064-.003.127 0 .191-.008.064-.003.127 0 .19-.008.064-.003.127 0 .19-.008.064-.003.127 0 .191-.008.064-.003.127 0 .19-.147 1.196 1.582 2.263 4.998 2.768l11.6 1.8c5.3.801 12.8 0 16.6-1.899l8.3-4c1.525-.763 2.231-1.573 2.197-2.322.008-.064.003-.127 0-.191.008-.064.003-.127 0-.19.008-.064.003-.127 0-.19.008-.064.003-.127 0-.191.008-.064.003-.127 0-.19.008-.064.003-.127 0-.19.008-.064.003-.127 0-.191.008-.064.003-.127 0-.19.008-.064.003-.127 0-.19.008-.064.003-.127 0-.191.008-.064.003-.127 0-.19.008-.064.003-.127 0-.19.008-.064.003-.127 0-.191.008-.064.003-.127 0-.19.008-.064.003-.127 0-.19.008-.064.003-.127 0-.191.008-.064.003-.127 0-.19.008-.064.003-.127 0-.19.008-.064.003-.127 0-.19.008-.065.003-.128 0-.191.008-.064.003-.127 0-.19.008-.064.003-.127 0-.19.008-.065.003-.127 0-.191.008-.064.003-.127 0-.19.008-.064.003-.127 0-.19.008-.065.003-.128 0-.191.008-.064.003-.127 0-.19.008-.064.003-.127 0-.19.008-.065.003-.127 0-.191.008-.064.003-.127 0-.19z" class="Vector_19"/>
    <g class="Group_9">
      <g class="Group_10">
        <path fill="#F2FFF4" d="M593.446 403.432c3.8-1.9 11.3-2.7 16.6-1.9l11.6 1.8c5.4.8 6.6 3 2.8 4.9l-8.3 4c-3.8 1.9-11.3 2.7-16.6 1.9l-11.6-1.8c-5.4-.8-6.6-3-2.8-4.9l8.3-4z" class="Vector_20"/>
      </g>
    </g>
    <path fill="#3C474E" d="M597.994 420.551c.147-1.196-1.582-2.263-4.998-2.769l-11.6-1.8c-5.3-.8-12.8 0-16.6 1.9l-8.3 4c-1.525.763-2.231 1.573-2.197 2.322-.008.064-.003.127 0 .19-.008.064-.003.127 0 .191-.008.064-.003.127 0 .19-.008.064-.003.127 0 .19-.008.064-.003.127 0 .191-.008.064-.003.127 0 .19-.008.064-.003.127 0 .19-.008.064-.003.127 0 .191-.008.064-.003.127 0 .19-.008.064-.003.127 0 .19-.008.064-.003.127 0 .191-.008.064-.003.127 0 .19-.008.064-.003.127 0 .19-.008.064-.003.127 0 .191-.008.064-.003.127 0 .19-.008.064-.003.127 0 .19-.008.064-.003.127 0 .19-.008.065-.003.128 0 .191-.008.064-.003.127 0 .19-.008.064-.003.127 0 .19-.008.065-.003.128 0 .191-.008.064-.003.127 0 .19-.008.064-.003.127 0 .19-.008.065-.003.128 0 .191-.008.064-.003.127 0 .19-.008.064-.003.127 0 .19-.008.065-.003.127 0 .191-.008.064-.003.127 0 .19-.008.064-.003.127 0 .19-.008.064-.003.127 0 .191-.148 1.196 1.582 2.262 4.997 2.768l11.6 1.8c5.3.8 12.8 0 16.6-1.9l8.3-4c1.525-.762 2.232-1.572 2.198-2.322.008-.064.003-.127 0-.19.008-.064.003-.127 0-.19.008-.064.003-.127 0-.191.008-.064.003-.127 0-.19.008-.064.003-.127 0-.19.008-.064.003-.127 0-.191.008-.064.003-.127 0-.19.008-.064.003-.127 0-.19.008-.064.003-.127 0-.191.008-.064.003-.127 0-.19.008-.064.003-.127 0-.19.008-.064.003-.127 0-.191.008-.064.003-.127 0-.19.008-.064.003-.127 0-.19.008-.064.003-.127 0-.19.008-.065.003-.128 0-.191.008-.064.003-.127 0-.19.008-.064.003-.127 0-.19.008-.065.003-.127 0-.191.008-.064.003-.127 0-.19.008-.064.003-.127 0-.19.008-.064.003-.128 0-.191.008-.064.003-.127 0-.19.008-.064.003-.127 0-.19.008-.065.003-.127 0-.191.008-.064.003-.127 0-.19.008-.064.003-.127 0-.19.008-.064.003-.127 0-.191.008-.064.003-.127 0-.19.008-.064.003-.127 0-.19z" class="Vector_21"/>
    <g class="Group_11">
      <g class="Group_12">
        <path fill="#F2FFF4" d="M564.796 417.882c3.8-1.9 11.3-2.7 16.6-1.9l11.6 1.8c5.4.8 6.6 3 2.8 4.9l-8.3 4c-3.8 1.9-11.3 2.7-16.6 1.9l-11.6-1.8c-5.4-.8-6.6-3-2.8-4.9l8.3-4z" class="Vector_22"/>
      </g>
    </g>
    <path fill="#3C474E" d="M585.75 398.887l.396-.193-67.4-10.4c-7.4-1.1-17.7 0-23 2.6l-121.3 59.2c-2.115.998-3.081 2.09-3.03 3.113-.01.086-.004.17 0 .255-.01.085-.004.169 0 .254-.01.085-.004.169 0 .254-.01.085-.004.17 0 .254-.01.086-.004.17 0 .254-.01.086-.004.17 0 .255-.01.085-.004.169 0 .254-.01.085-.004.169 0 .254-.01.085-.004.169 0 .254-.01.085-.004.17 0 .254-.01.086-.004.17 0 .254-.01.086-.004.17 0 .255-.01.085-.004.169 0 .254-.01.085-.004.169 0 .254-.01.085-.004.17 0 .254-.01.086-.004.17 0 .254-.01.086-.004.17 0 .255-.01.085-.004.169 0 .254-.01.085-.004.169 0 .254-.01.085-.004.17 0 .254-.192 1.642 2.239 3.144 6.93 3.841l67.4 10.4 140.4-68.5-.396-.061.396-.193-.396-.061.396-.193-.396-.061.396-.193-.396-.061.396-.194-.396-.061.396-.193-.396-.061.396-.193-.396-.061.396-.193-.396-.061.396-.193-.396-.061.396-.194-.396-.061.396-.193-.396-.061.396-.193-.396-.061.396-.193-.396-.061.396-.193-.396-.061.396-.194-.396-.061.396-.193-.396-.061.396-.193-.396-.061.396-.193-.396-.061.396-.193-.396-.061.396-.194-.396-.061.396-.193-.396-.061z" class="Vector_23"/>
    <path fill="#F2FFF4" d="M495.747 390.633c5.3-2.6 15.6-3.7 23-2.6l67.4 10.4-140.4 68.5-67.4-10.4c-7.4-1.1-9.2-4.2-3.9-6.7l121.3-59.2z" class="Vector_24"/>
    <path fill="#3C474E" d="M668.946 414.532l-22.1 10.8-31.1-4.8.4 5.7 31.1 4.8 22-10.7-.3-5.8z" class="Vector_25"/>
    <g class="Group_13">
      <path fill="#F2FFF4" d="M637.846 409.732l31.1 4.8-22.1 10.8-31.1-4.8 22.1-10.8z" class="Vector_26"/>
    </g>
    <path fill="#3C474E" d="M632.946 432.132l-22.1 10.7-31.1-4.7.4 5.7 31.1 4.8 22.1-10.8-.4-5.7z" class="Vector_27"/>
    <g class="Group_14">
      <path fill="#F2FFF4" d="M601.846 427.333l31.1 4.8-22.1 10.7-31.1-4.7 22.1-10.8z" class="Vector_28"/>
    </g>
    <path fill="#3C474E" d="M597.046 449.632l-22.1 10.8-31.1-4.8.4 5.7 31.1 4.8 22-10.8-.3-5.7z" class="Vector_29"/>
    <g class="Group_15">
      <path fill="#F2FFF4" d="M565.946 444.833l31.1 4.8-22.1 10.8-31.1-4.8 22.1-10.8z" class="Vector_30"/>
    </g>
    <path fill="#3C474E" d="M561.047 467.232l-22.1 10.7-31.1-4.8.4 5.7 31.1 4.8 22.1-10.7-.4-5.7z" class="Vector_31"/>
    <g class="Group_16">
      <path fill="#F2FFF4" d="M529.946 462.433l31.1 4.8-22.1 10.7-31.1-4.8 22.1-10.7z" class="Vector_32"/>
    </g>
    <path fill="#000" fill-opacity=".1" d="M319.576 407.975c-8.356-3-12.231-4.026-6.328-5.756 3.155-1.018 26.874-8.004 36.645-11.424 5.58-1.953 32.219.797 22.68 6.892-10.992 7.023-30.671 18.304-52.997 10.288z" class="Vector 2.2"/>
    <path fill="#000" fill-opacity=".1" d="M500.613 421.583c-8.356-3-12.231-4.026-6.328-5.756 3.156-1.018 26.874-8.004 36.645-11.424 5.58-1.953 32.219.797 22.68 6.892-10.992 7.022-30.671 18.304-52.997 10.288z" class="Vector 2.3"/>
    <path fill="#096DF8" d="M366.446 387.832c-.108-.031-.213-.065-.32-.097l.02-.003c-.2-3.6-.5-7.1-.8-10.9-.36-3.867-.477-8.139-.497-12.233a1.508 1.508 0 00-1.367-1.496c-7.383-.694-14.766-1.251-22.149-2.023a1.5 1.5 0 00-1.628 1.194c-2.099 10.571-7.579 11.992-17.859 15.258a5.54 5.54 0 00-.695.274 47.831 47.831 0 00-4.505-.374c-8.9-.3-12.6 20.9-7.4 22 17.039 3.588 22.66 3.005 36.155-.759.091-.026.177-.058.262-.1 1.375-.677 14.278-6.876 20.783-10.741z" class="Vector_33"/>
    <path stroke="#F2FFF4" stroke-linecap="round" stroke-miterlimit="10" stroke-width="4" d="M333.646 371.332c6-.2 10 2.3 14 6.5" class="Vector_34"/>
    <path stroke="#F2FFF4" stroke-linecap="round" stroke-miterlimit="10" stroke-width="4" d="M320.946 374.732c6.8-.5 12.2 3 16.6 7.8" class="Vector_35"/>
    <g class="Group_17">
      <path fill="#223039" d="M474.614 263.432l4.918 33.472s-36.685 6.228-37.286 6.228c-7.799-.2-65-1.4-65-1.4v.1c-.5 2.3-8.1 38.7-10.1 58.9l-.4 3.7c0 .3-.1.7-.1 1l-.1.5c0 .5-.1 1-.1 1.5-.1.6-.1 1.1-.2 1.6l-.3 3.1v.4l-3.8-.6-27-4.6c.3-.7 7.3-101.1 15.2-103.9 8.6-3 123.568-.4 124.268 0z" class="Vector_36"/>
    </g>
    <path fill="#A3D3EC" d="M414.246 104.032c0 3.7 1.8 17.5 7.8 23.8 2.4 2.9 1.1-17.5-.9-25.3-2-7.8-6.9-2.2-6.9 1.5z" class="Vector_37"/>
    <path fill="#06080A" d="M445.046 298.332c-.9 1.6-1.8 3.2-2.6 4.8-7.8-.2-65-1.4-65-1.4v.1c-.5 2.3-8.1 38.7-10.1 58.9l-.4 3.7c0 .3-.1.7-.1 1l-.1.5c0 .5-.1 1-.1 1.5-.1.6-.1 1.1-.2 1.6l-.3 3.1v.4l-3.8-.6 9.5-71-5.2-7.4 8.9 4.3-9.2-16.8 16.7 17s59.8-7.1 65.4-10.2c.3-.1.5-.2.6-.2 1.5-.3-.9 5-4 10.7z" class="Vector_38"/>
    <path fill="#096DF8" d="M526.646 364.532c-2.8-3.4-3.3 6.1-7.4 3.9-5.8 15.9-8.9 5.3-21.6 8.6 22.2.6 14 6.6 10.5 18.1-.045.342-.304 1.056-.665 1.955-2.847.629-5.418 1.122-7.435 1.245-4 .3-11.4 9.6-7.5 13 8.838 7.794 26.236 7.008 35.367-1.566 2.355-1.801 4.19-4.261 5.033-7.434 2.8-10.4 5-21.6 5.7-24.8 1.1-5.7-6.2-9.8-12-13z" class="Vector_39"/>
    <path stroke="#F2FFF4" stroke-linecap="round" stroke-miterlimit="10" stroke-width="4" d="M507.246 387.433l21.5.8" class="Vector_40"/>
    <path stroke="#F2FFF4" stroke-linecap="round" stroke-miterlimit="10" stroke-width="4" d="M504.047 394.532s10.8.9 15.9 1.9" class="Vector_41"/>
    <g class="Group_18">
      <path stroke="#223039" stroke-linecap="round" stroke-miterlimit="10" d="M703.847 200.534c6.403-.201 11.946-.439 17.147-1.081" class="Vector_42"/>
      <path stroke="#223039" stroke-linecap="round" stroke-miterlimit="10" d="M705.621 194.752c3.245-.172 16.429-1.03 19.964-1.516" class="Vector_43"/>
      <path stroke="#223039" stroke-linecap="round" stroke-miterlimit="10" d="M706.455 188.1c6.578-.487 19.595-2.036 23.908-2.83" class="Vector_44"/>
    </g>
    <path fill="#223039" fill-rule="evenodd" d="M192.406 194.252a.5.5 0 01.515-.484c3.326.101 15.345 1.303 18.351 1.704a.5.5 0 11-.132.991c-2.993-.399-14.974-1.596-18.249-1.696a.5.5 0 01-.485-.515z" class="Vector (Stroke)" clip-rule="evenodd"/>
    <path fill="#223039" fill-rule="evenodd" d="M190.436 189.575a.5.5 0 01.515-.485c3.325.101 15.344 1.303 18.351 1.704a.5.5 0 01-.133.991c-2.993-.399-14.974-1.596-18.249-1.695a.5.5 0 01-.484-.515z" class="Vector (Stroke)_2" clip-rule="evenodd"/>
    <path fill="#223039" fill-rule="evenodd" d="M195.745 200.304c3.932-.1 9.406.248 15.511.849a.5.5 0 01-.098.995c-6.096-.6-11.52-.943-15.387-.844a.5.5 0 01-.026-1z" class="Vector (Stroke)_3" clip-rule="evenodd"/>
    <path fill="#000" fill-opacity=".13" fill-rule="evenodd" d="M678.039 205.304c14.058 1.013 31.378.221 34.482-2.108 9.451-7.264 17.654-25.793 15.274-26.072-4.875-.532-29.266 4.849-29.266 4.849s16.805-14.146 12.524-13.725l-.85.108c-5.694.72-28.517 3.606-39.224 7.374l7.06 29.574z" class="Subtract_3" clip-rule="evenodd"/>
    <path fill="#521F20" fill-opacity=".2" d="M593.646 191.032c-.5 1.5-1.799 2.4-2.7 2.1-.9-.3-1.099-1.3-.5-2.7.5-1.5 1.5-3.3 2.401-3 .899.3 1.399 2.1.799 3.6z" class="Vector_45"/>
    <path fill="#000" fill-opacity=".21" fill-rule="evenodd" d="M435.97 152.61c.125.357.249.707.371 1.05 2.086 5.892 3.531 9.973 2.205 16.473-3.5 17.2 27.7 10.3 28.8-.4.607-5.645-.776-9.374-2.717-14.609-.636-1.716-1.332-3.593-2.037-5.753a15.364 15.364 0 01-2.546 2.762c-3.1 2.6-6 4.2-9.5 4.6-4.2.5-8.4-.3-12-2.4-.698-.523-1.592-1.099-2.576-1.723z" class="Subtract_4" clip-rule="evenodd"/>
    <path fill="#000" fill-opacity=".43" fill-rule="evenodd" d="M435.809 152.507c.159.428.308.836.437 1.226.167.501.334.967.494 1.412.223.622.432 1.205.606 1.788 8.1 3.9 12.8 1.1 15.1-.4.189-.063.338-.165.472-.257l.049-.034c-.78.23-1.583.395-2.421.491-4.2.5-8.4-.3-12-2.4-.735-.552-1.69-1.163-2.737-1.826z" class="Subtract_5" clip-rule="evenodd"/>
    <path fill="#000" fill-opacity=".03" fill-rule="evenodd" d="M435.809 152.508c.159.427.308.835.437 1.225.167.501.334.967.494 1.413.223.622.432 1.205.606 1.787 8.1 3.9 12.8 1.1 15.1-.4.189-.063.338-.165.472-.257l.049-.034c-.78.231-1.583.395-2.421.491-4.2.5-8.4-.3-12-2.4-.735-.551-1.69-1.162-2.737-1.825z" class="Subtract_6" clip-rule="evenodd"/>
    <path fill="#fff" fill-opacity=".392" d="M432.146 122.332l4.6-.6-8.7 14.5-3.1-2.8 7.2-11.1z" class="Vector_46"/>
    <path fill="#fff" fill-opacity=".392" d="M439.046 125.732l1.4 1.1-7.4 11.9-1.8-1 7.8-12z" class="Vector_47"/>
    <path fill="#fff" fill-opacity=".392" d="M457.046 117.833l4.1.7-8.5 13.7-2.9-3.4 7.3-11z" class="Vector_48"/>
    <path fill="#fff" fill-opacity=".392" d="M463.946 121.333l1.4 1.1-7.4 11.9-1.8-1 7.8-12z" class="Vector_49"/>
    <path fill="#fff" fill-opacity=".28" stroke="#223039" stroke-width="2.031" d="M433.882 137.998a8.2 8.2 0 007.118-9.156 8.199 8.199 0 00-9.155-7.118 8.2 8.2 0 102.037 16.274z" class="Vector_50"/>
    <path fill="#fff" fill-opacity=".28" stroke="#223039" stroke-width="2.031" d="M458.681 134.197a8.2 8.2 0 10-2.036-16.274 8.2 8.2 0 002.036 16.274z" class="Vector_51"/>
    <path fill="#000" fill-opacity=".21" fill-rule="evenodd" d="M445.746 128.232l5.2 9.9s-1.1 1.7-3.3 2c-2.3.3-3.9-1.1-3.9-1.1l2-10.8zm-1.989 17.665c-.293-.168-.661-.152-.85.131-.2.3-.2.7.1.9 1.6 1.4 3.7 1.7 5.7 1.4 2-.4 3.8-1.4 5.1-3 .2-.3.2-.7-.1-.9-.279-.185-.644-.199-.855.041l-.045-.041c-1.1 1.3-2.7 2.2-4.4 2.5-1.6.3-3.3 0-4.6-1.1l-.05.069z" class="Union_2" clip-rule="evenodd"/>
    <path fill="#000" fill-opacity=".21" fill-rule="evenodd" d="M421.258 126.945a2.231 2.231 0 00-.899.179l-.114.053c.167.395 1.854 4.394 2.614 6.769l.17.492c.933 2.713 1.882 5.468 3.088 7.536.078-.01.156-.025.232-.043-1.063-3.371-2.405-8.477-3.746-13.818-.106.02-.198.02-.256.02l-.095-.103a1.107 1.107 0 01-.206-.199 15.035 15.035 0 01-.685-.773l-.103-.113z" class="Subtract_7" clip-rule="evenodd"/>
    <path fill="#096DF8" fill-rule="evenodd" d="M422.63 111.568c.55 4.929.838 10.232.663 13.47-.005 1.697-.134 2.839-.447 2.995-.2.1-.4.1-.5.1l-.094-.103a1.077 1.077 0 01-.206-.199 15.542 15.542 0 01-.686-.773l-.114-.125c-.002 0-.007-.011-.013-.032-4.069-5.046-5.989-13.6-6.676-18.962-7.775-8.804-10.443-46.143-1.211-47.407l1.458-.279c14.617-2.8 29.232-5.6 40.942-14.02 13.198 11.345 12.279 29.123 11.585 42.53-.179 3.471-.344 6.649-.244 9.346 1.404 4.017 3.451 17.089.259 24.923-.965 2.896-4.583-9.35-6.43-18.415-9.422 4.313-27.181 8.649-38.286 6.951z" class="Union_3" clip-rule="evenodd"/>
    <path fill="#FBFBF6" d="M420.046 121.532c-.2.5.1 1.1.6 1.3.5.2 1.1-.1 1.3-.6l-1.9-.7zm13-4.7c.6 0 1.1-.4 1.1-1s-.4-1.1-1-1.1l-.1 2.1zm-11.1 5.3c.6-1.8 3.7-5.8 11.1-5.3l.1-2c-8.3-.5-12.2 4-13.1 6.7l1.9.6z" class="Vector_52"/>
    <path fill="#FBFBF6" d="M467.346 114.632c.4.6.3 1.4-.3 1.8-.6.4-1.4.3-1.8-.3l2.1-1.5zm-11.6.2c-.6.4-1.4.1-1.7-.5-.4-.6-.1-1.4.5-1.7l1.2 2.2zm9.5 1.3c-.6-.7-1.7-1.8-3.3-2.3-1.6-.5-3.7-.5-6.2 1l-1.3-2.2c3.1-1.8 5.9-1.9 8.2-1.2 2.2.7 3.8 2.1 4.7 3.2l-2.1 1.5z" class="Vector_53"/>
    <g class="Group_19">
      <path fill="#223039" d="M531.777 372.373c-.05.1-.1.21-.16.31-.04.069-.08.139-.13.21-.1.179-.2.35-.3.52-.24.43-.5.87-.77 1.289-.16.271-.33.531-.5.791-.14.23-.3.459-.45.69-.34.5-.68 1-1.04 1.49-.45.62-.92 1.23-1.39 1.82-.27.33-.54.65-.81.97l-.05.049c-.28.321-.56.641-.85.94-.25.271-.5.521-.75.771-.63.61-1.25 1.17-1.87 1.64-.09.079-.19.149-.28.22-.08.06-.16.12-.24.169a10.635 10.635 0 01-1.2.75c-.14.081-.28.151-.42.221-.39.19-.77.34-1.15.44-.09.029-.19.05-.28.07a1.77 1.77 0 01-.2.04c-.13.03-.26.049-.39.06-.34.04-.71.06-1.09.08-.66.02-1.37.029-2.13 0-6.37-.221-15.42-2.07-20.24-4.11-.3-.101-.49-.2-.79-.301-.11-.05-.22-.089-.33-.139-.59-.24-70.79-16.88-88.89-22.481-5.81-1.769-13.09-8.36-12.5-16.63.59-8.259 8.07-16.719 12.6-20.759 12.39-11.01 34.82-26.26 55.87-35.7 15.36-6.85 34.12-8.06 51.46-8.75.1 0 .19-.01.29-.01 1.96-.1 3.83-.1 5.7-.2 1.77 21.65-3.05 35.419-14.06 41.81-7.38 4.33-22.83 7.97-38.76 13.869-4.06 1.481-8.21 3.13-12.2 4.971-.26.11-.53.23-.79.35.19.04.38.08.58.119 3.68.771 9.43 1.811 16.24 3.021 3.54.69 7.28 1.38 11.22 2.17 1.88.39 3.77.78 5.65 1.22.48.12.95.23 1.43.35 5.89 1.39 11.93 2.93 17.51 4.75.76.25 1.52.5 2.26.76 1.88.65 3.72 1.32 5.49 2.039.59.231 1.18.471 1.75.721 2.12.899 4.12 1.839 5.98 2.85.81.429 1.59.87 2.34 1.33l.3.18c.44.27.87.55 1.28.82.03.02.06.04.08.05.23.16.46.31.68.47.49.34.97.69 1.42 1.05.22.17.43.34.64.51a24.959 24.959 0 011.88 1.71c.24.24.48.49.7.74.13.14.25.28.37.42.13.149.26.3.37.45 2 2.509 2.35 5.95.92 8.81z" class="Vector_54"/>
    </g>
    <path fill="#06080A" d="M532.576 370.843c-.25.51-.52 1.02-.8 1.53-.09.18-.19.35-.29.52-.1.18-.2.35-.3.52-.24.43-.5.87-.77 1.29-.16.27-.33.53-.5.79-.14.23-.3.46-.45.69-.34.5-.68 1-1.04 1.49-.45.62-.92 1.23-1.39 1.82-.27.33-.54.65-.81.97l-.05.05c-.28.32-.56.64-.85.94-.25.27-.5.52-.75.77-.63.61-1.25 1.17-1.87 1.64-.09.08-.19.15-.28.22-.08.06-.16.12-.24.17-.16.11-.32.22-.47.32-.25.16-.49.3-.73.43-.14.08-.28.15-.42.22-.39.19-.77.34-1.15.44-.09.03-.19.05-.28.07-.07.02-.13.03-.2.04-.13.03-.26.05-.39.06-.34.04-.71.06-1.09.08-.66.02-1.37.03-2.13 0-6.37-.22-15.42-2.07-20.24-4.11-.3-.1-.49-.2-.79-.3-.11-.05-.22-.09-.33-.14 10.7-2.38 31.59-9.69 32.38-15.93.7-5.2-16.5-12.4-28.8-16.8-.27-.1-.53-.19-.79-.29h-.01c-8.75-1.31-19.26-3.37-31.86-6.52-9.1-2.2-21.5-.6-21.5-.6l4.3-4.3-14.3 5.4 5.1-5-8.9-1.5 7.6-.9-5.7-2.3s11.37.13 21.34-.13c22.16-5.27 44.33-15.78 51.22-23.35 10.64-11.52 8.53-23.9 8.46-32.1 0-.67.01-1.3.04-1.91 2-.1 3.9-.1 5.8-.2l.15 1.9c1.77 21.65-3.05 35.42-14.06 41.81-7.38 4.33-22.83 7.97-38.76 13.87-4.06 1.48-8.21 3.13-12.2 4.97-.26.11-.53.23-.79.35.19.04.38.08.58.12 3.68.77 9.43 1.81 16.24 3.02 3.54.69 7.28 1.38 11.22 2.17 1.88.39 3.77.78 5.65 1.22.48.12.95.23 1.43.35 5.89 1.39 11.93 2.93 17.51 4.75.76.25 1.52.5 2.26.76 1.88.65 3.72 1.32 5.49 2.04.59.23 1.18.47 1.75.72 2.12.9 4.12 1.84 5.98 2.85.81.43 1.59.87 2.34 1.33l.3.18c.44.27.87.55 1.28.82.03.02.06.04.08.05.23.16.46.31.68.47.49.34.97.69 1.42 1.05.22.17.43.34.64.51.5.41.97.83 1.42 1.26.16.15.31.3.46.45.24.24.48.49.7.74.13.14.25.28.37.42.13.15.26.3.37.45.69.84 1.26 1.71 1.73 2.61.75 1.45.72 3.2-.01 4.67z" class="Vector_55"/>
    <path stroke="#F2FFF4" stroke-linecap="round" stroke-miterlimit="10" d="M370.981 289.495s6.349 6.98 6.466 12.237c.117 5.258-12.121 57.577-11.3 70.801" class="Vector_56"/>
    <path stroke="#096DF8" stroke-linecap="round" stroke-miterlimit="10" d="M66.599 166.326c7.7-12.6 25.9-12.6 33.6 0 7.7 12.6 25.9 12.6 33.6 0 7.7-12.6 25.9-12.6 33.6 0 7.7 12.6 25.9 12.6 33.6 0 7.7-12.6 25.9-12.6 33.6 0 3.8 6.2 10.1 9.3 16.5 9.4" class="Vector_57"/>
    <path fill="#FDBC2C" fill-rule="evenodd" d="M439.008 163.955c.13 1.881.007 3.878-.462 6.178-3.5 17.2 27.7 10.3 28.8-.4.246-2.29.165-4.265-.148-6.153l.808.024c22.689.69 45.107 3.361 58.369 6.169 38.22 8.031 78.776 15.501 143.211.119l9.52 39.88c-72.958 17.416-120.399 8.69-161.176.122l-.016-.004-.017-.003a108.89 108.89 0 00-1.4-.287c-1.353 15.37 1.214 34.437 2.906 47.009v.001c.902 6.7 1.556 11.555 1.236 13.023-1.071 5.1-4.498 8.1-10.066 8.9l-68.214 5.8c-5.569.8-11.673 1.6-14.243-3-1.222-2.146-1.395-4.98-1.59-8.159-.231-3.784-.492-8.057-2.586-12.241-1.291-2.604-1.138-5.324-.981-8.104.168-2.986.34-6.041-1.268-9.096-1.821-3.5-8.139-16.3-9.424-20.1a360.795 360.795 0 00-4.49-11.774c-8.253 2.719-20.721 6.727-32.382 10.434a3750.482 3750.482 0 01-23.136 7.284 785.358 785.358 0 01-7.723 2.363c-.953.284-1.836.542-2.548.739-.331.092-.797.218-1.282.335a23.35 23.35 0 01-1.238.265c-.27.05-.797.143-1.461.219l-.036.004c-.371.044-2.251.264-4.589.005l-.228-.026-.228-.03-91.9-12.3 5.439-40.638 87.686 11.736a976.42 976.42 0 005.96-1.831 3673.238 3673.238 0 0022.861-7.197c17.23-5.479 34.847-11.179 39.034-12.679 10.528-3.8 23.599-5.749 37.002-6.587zm52.563 243.616c-.308 1.489-.08 2.841.975 3.761 8.838 7.794 26.236 7.007 35.368-1.566 2.354-1.802 4.189-4.262 5.032-7.434 2.288-8.498 4.175-17.529 5.171-22.295v-.002c.223-1.066.401-1.918.529-2.503.345-1.789-.137-3.421-1.141-4.916l.041-.083c.033.263.464.794 1.007 1.464 1.113 1.372 2.696 3.325 2.293 4.736-.689 2.578-1.055 5.768-1.453 9.237-.93 8.102-2.035 17.731-7.847 24.663-8.3 9.9-25.6 14.2-38.4 2.3-1.424-1.329-3.118-3.469-1.575-7.362zm-183.884-9.446c.381.704.898 1.168 1.559 1.308 17.039 3.587 22.66 3.004 36.155-.76.092-.025.177-.057.262-.099l.732-.357c1.832-.891 6.36-3.093 10.977-5.465 2.91-1.389 5.78-2.892 9.174-4.92-.051.51.08.89.208 1.259.122.355.241.7.192 1.141a3.359 3.359 0 00-.073.589c-.027.458-.043.722-.927 1.311-5.996 3.83-10.674 5.927-17.152 8.832h-.001a841.954 841.954 0 00-4.147 1.868c-8.8 4-22.8 3.2-33.5 1.7-1.124-.187-4.003-3.885-3.459-6.407z" class="Secondary" clip-rule="evenodd"/>
    <g class="Group 2">
      <path fill="#521F20" fill-opacity=".2" d="M310.346 196.332c-.5 1.5-1.8 2.4-2.7 2.1-.9-.3-1.1-1.3-.5-2.7.5-1.5 1.5-3.3 2.4-3 .9.3 1.4 2.1.8 3.6z" class="Vector_58"/>
      <path fill="#521F20" fill-opacity=".2" d="M398.346 181.732c0 1.6-1.3 2.1-2.9 2.1-1.6 0-2.9-.6-2.9-2.1 0-1.6 1.3-2.9 2.9-2.9 1.6 0 2.9 1.4 2.9 2.9z" class="Vector_59"/>
      <path fill="#fff" fill-rule="evenodd" d="M443.446 228.933c17.5 1.6 31.7-.5 50.6-10.2.9-.5 2-.2 2.7.6-20 10.5-35.8 13.8-50.5 12.8-14.7-.9-28.4-6.1-32.6-8.7-.5-.3-.6-1-.4-1.5.2-.6.8-.8 1.3-.5 3.9 2.5 14.4 6.6 28.9 7.5z" class="Vector_60" clip-rule="evenodd"/>
      <path fill="#fff" fill-rule="evenodd" d="M443.646 208.133c17.6 0 31.6-3.5 49.8-14.9.9-.6.9 2.1 1.6 2.8-19.3 12.3-33.7 14.6-48.4 15-14.7.4-28.7-3.4-33-5.6-.5-.2-.7-.9-.5-1.5.2-.6.8-.8 1.2-.6 4.1 2.1 14.8 5.3 29.3 4.8z" class="Vector_61" clip-rule="evenodd"/>
      <path fill="#521F20" fill-opacity=".2" d="M502.846 174.333c1.6 0 5.4-.7 5.4.8 0 1.6-3.4 4.4-5 4.4s-5.9.1-5.9-1.4c0-1.6 3.9-3.8 5.5-3.8z" class="Vector_62"/>
    </g>
  </g>
</svg>
