<svg xmlns="http://www.w3.org/2000/svg" width="1155" height="700" fill="none" viewBox="0 0 1155 700">
  <g class="search">
    <path fill="#fff" d="M0 0h1155v700H0z"/>
    <path stroke="#000" stroke-linecap="round" stroke-width="2.677" d="M204 592.441h736.149" class="Line"/>
    <g class="ui">
      <rect width="579.662" height="372.162" x="274.108" y="218.721" fill="#F9F9F9" class="Rectangle" rx="18.742"/>
      <g class="Group 4">
        <g class="Group 3">
          <rect width="96.387" height="72.031" x="431.866" y="430.145" fill="#000" fill-opacity=".04" class="Rectangle 2" rx="9.328"/>
          <rect width="96.387" height="5.627" x="431.866" y="506.678" fill="#000" fill-opacity=".04" class="Rectangle 2.1" rx="2.814"/>
          <rect width="61.149" height="5.627" x="431.866" y="516.808" fill="#000" fill-opacity=".04" class="Rectangle 2.2" rx="2.814"/>
        </g>
        <g class="Group 3.1">
          <rect width="96.387" height="72.031" x="553.69" y="430.145" fill="#000" fill-opacity=".04" class="Rectangle 2_2" rx="9.328"/>
          <rect width="96.387" height="5.627" x="553.689" y="506.678" fill="#000" fill-opacity=".04" class="Rectangle 2.1_2" rx="2.814"/>
          <rect width="61.149" height="5.627" x="553.689" y="516.808" fill="#000" fill-opacity=".04" class="Rectangle 2.2_2" rx="2.814"/>
        </g>
        <g class="Group 3.2">
          <rect width="96.387" height="72.031" x="675.513" y="430.146" fill="#000" fill-opacity=".04" class="Rectangle 2_3" rx="9.328"/>
          <rect width="96.387" height="5.627" x="675.512" y="506.679" fill="#000" fill-opacity=".04" class="Rectangle 2.1_3" rx="2.814"/>
          <rect width="61.149" height="5.627" x="675.512" y="516.808" fill="#000" fill-opacity=".04" class="Rectangle 2.2_3" rx="2.814"/>
        </g>
        <rect width="92.371" height="10.176" x="314.268" y="345.836" fill="#000" fill-opacity=".03" class="Rectangle 2_4" rx="5.088"/>
        <rect width="92.371" height="10.176" x="314.268" y="367.642" fill="#000" fill-opacity=".03" class="Rectangle 2.1_4" rx="5.088"/>
        <rect width="92.371" height="10.176" x="314.268" y="389.449" fill="#000" fill-opacity=".03" class="Rectangle 2.2_4" rx="5.088"/>
        <rect width="92.371" height="10.176" x="314.268" y="411.255" fill="#000" fill-opacity=".03" class="Rectangle 2.3" rx="5.088"/>
        <rect width="251.678" height="26.168" x="432.074" y="278.963" fill="#000" fill-opacity=".06" class="Rectangle 3" rx="4.016"/>
      </g>
      <circle cx="314.938" cy="246.164" r="6.024" fill="#000" fill-opacity=".26" class="Ellipse"/>
      <circle cx="339.035" cy="246.164" r="6.024" fill="#141414" fill-opacity=".09" class="Ellipse_2"/>
      <circle cx="363.132" cy="246.164" r="6.024" fill="#000" fill-opacity=".26" class="Ellipse_3"/>
      <rect width="339.042" height="78.152" x="433.015" y="333.604" fill="#000" fill-opacity=".05" class="Rectangle_2" rx="8.045"/>
    </g>
    <g class="Group 9">
      <path fill="#fff" d="M478 385.5L465.5 372l28-21.5 10.5 15-26 20z" class="Vector 4"/>
      <path stroke="#000" stroke-linecap="round" stroke-opacity=".11" d="M474 373l10.5-8.5" class="Vector 5"/>
      <path stroke="#000" stroke-linecap="round" stroke-opacity=".11" d="M476 375.5l7.5-6" class="Vector 5.1"/>
    </g>
    <g class="Group 8">
      <path stroke="#000" stroke-dasharray="10 10" stroke-width="2" d="M463.5 370.5S315 356 304.5 288" class="Vector 2"/>
      <path stroke="#000" stroke-dasharray="10 10" stroke-width="2" d="M499 350.5s84.054-8.812 99-95.5c7.5-43.5 97-38 97-38" class="Vector 3"/>
    </g>
    <g class="search_2">
      <g class="Union">
        <mask id="a" fill="#fff" class="path-27-inside-1">
          <path fill-rule="evenodd" d="M570.121 444.432c24.143-21.353 39.365-52.564 39.365-87.329 0-64.366-52.179-116.545-116.545-116.545s-116.545 52.179-116.545 116.545 52.179 116.545 116.545 116.545c19.425 0 37.739-4.752 53.845-13.157.313.481.659.949 1.037 1.4l69.028 82.265c5.024 5.987 13.95 6.768 19.938 1.744 5.987-5.024 6.768-13.951 1.744-19.938l-68.412-81.53zm-77.18 11.406c-54.53 0-98.735-44.205-98.735-98.735s44.205-98.735 98.735-98.735 98.735 44.205 98.735 98.735-44.205 98.735-98.735 98.735z" clip-rule="evenodd"/>
        </mask>
        <path fill="#404FD0" fill-rule="evenodd" d="M570.121 444.432c24.143-21.353 39.365-52.564 39.365-87.329 0-64.366-52.179-116.545-116.545-116.545s-116.545 52.179-116.545 116.545 52.179 116.545 116.545 116.545c19.425 0 37.739-4.752 53.845-13.157.313.481.659.949 1.037 1.4l69.028 82.265c5.024 5.987 13.95 6.768 19.938 1.744 5.987-5.024 6.768-13.951 1.744-19.938l-68.412-81.53zm-77.18 11.406c-54.53 0-98.735-44.205-98.735-98.735s44.205-98.735 98.735-98.735 98.735 44.205 98.735 98.735-44.205 98.735-98.735 98.735z" clip-rule="evenodd"/>
        <path fill="#000" d="M570.121 444.432l-.551-.624-.608.538.521.621.638-.535zm-23.335 16.059l.698-.454-.412-.634-.671.35.385.738zm1.037 1.4l-.637.536.637-.536zm69.028 82.265l.638-.536-.638.536zm19.938 1.744l-.535-.638.535.638zm1.744-19.938l-.638.535.638-.535zm-29.879-168.859c0 34.517-15.113 65.503-39.084 86.705l1.103 1.247c24.314-21.504 39.646-52.938 39.646-87.952h-1.665zM492.941 241.39c63.906 0 115.713 51.806 115.713 115.713h1.665c0-64.826-52.552-117.378-117.378-117.378v1.665zM377.228 357.103c0-63.907 51.806-115.713 115.713-115.713v-1.665c-64.826 0-117.378 52.552-117.378 117.378h1.665zm115.713 115.713c-63.907 0-115.713-51.807-115.713-115.713h-1.665c0 64.826 52.552 117.378 117.378 117.378v-1.665zm53.46-13.063c-15.99 8.344-34.173 13.063-53.46 13.063v1.665c19.562 0 38.009-4.786 54.23-13.252l-.77-1.476zm2.06 1.603a13.4 13.4 0 01-.977-1.319l-1.396.907c.331.51.697 1.005 1.098 1.483l1.275-1.071zm69.028 82.264l-69.028-82.264-1.275 1.071 69.027 82.264 1.276-1.071zm18.765 1.642c-5.635 4.729-14.037 3.994-18.765-1.642l-1.276 1.071c5.32 6.339 14.771 7.166 21.111 1.847l-1.07-1.276zm1.641-18.765c4.729 5.635 3.994 14.037-1.641 18.765l1.07 1.276c6.339-5.32 7.166-14.771 1.847-21.111l-1.276 1.07zm-68.412-81.53l68.412 81.53 1.276-1.07-68.412-81.53-1.276 1.07zm-176.11-87.864c0 54.99 44.578 99.568 99.568 99.568v-1.665c-54.07 0-97.903-43.833-97.903-97.903h-1.665zm99.568-99.568c-54.99 0-99.568 44.578-99.568 99.568h1.665c0-54.07 43.833-97.903 97.903-97.903v-1.665zm99.567 99.568c0-54.99-44.577-99.568-99.567-99.568v1.665c54.07 0 97.903 43.833 97.903 97.903h1.664zm-99.567 99.568c54.99 0 99.567-44.578 99.567-99.568h-1.664c0 54.07-43.833 97.903-97.903 97.903v1.665z" mask="url(#a)"/>
      </g>
      <path fill="#000" fill-opacity=".12" d="M425.79 272.977c-3.068-3.844-8.698-4.497-12.297-1.144a116.552 116.552 0 00-23.342 140.198 116.548 116.548 0 00129.526 58.509c4.787-1.128 7.373-6.171 5.883-10.858-1.491-4.687-6.494-7.236-11.296-6.174a98.738 98.738 0 01-108.405-49.871 98.736 98.736 0 0118.786-117.839c3.552-3.402 4.213-8.978 1.145-12.821z" class="Ellipse 2.1"/>
      <path fill="#000" fill-opacity=".12" d="M606.426 372.273a2.022 2.022 0 002.286-1.763 116.547 116.547 0 00-33.972-96.423 116.53 116.53 0 00-45.671-27.788 116.53 116.53 0 00-51.242-4.757 2.022 2.022 0 00-1.73 2.312 2.08 2.08 0 002.333 1.745 112.439 112.439 0 01120.889 75.073 112.433 112.433 0 015.327 49.294 2.081 2.081 0 001.78 2.307z" class="Ellipse 2.2"/>
      <path fill="#BFF4FF" fill-opacity=".12" stroke="#000" stroke-width=".99" d="M591.7 356.871c0 54.673-44.1 98.991-98.496 98.991-54.395 0-98.495-44.318-98.495-98.991s44.1-98.99 98.495-98.99c54.396 0 98.496 44.317 98.496 98.99z" class="Ellipse 2"/>
      <path fill="#000" fill-opacity=".13" d="M570.052 481.335c-2.607-2.786-22.986-20.687-22.986-20.687l70.97 83.777a12.643 12.643 0 0013.5 3.869l6.324-2.023s-34.479-29.308-67.808-64.936z" class="Vector"/>
    </g>
    <g class="woman">
      <g class="Group">
        <g class="Union_2">
          <path fill="#fff" fill-rule="evenodd" d="M395.654 409.447c1.017 4.076-.249 10.427-.249 10.427l-.372 3.242 12.302.554c0-.234-.288-.752-.662-1.422-.741-1.332-1.817-3.264-1.635-4.776-.051-1.288.257-2.647.436-3.438.053-.232.094-.415.112-.533.473.017.925.063 1.354.106 2.212.221 3.81.38 4.456-3.642.77-4.803.358-23.293-8.937-20.057-10.623 3.698-7.821 15.463-6.805 19.539zm-44.608 82.174c-2.921 6.088-7.945 17.896-4.673 16.431 3.272-1.466 8.323-7.435 10.44-10.236-.282 1.911-.439 5.534 1.182 4.74 1.27-.622 1.245-4.265 1.225-7.283-.005-.834-.01-1.621.012-2.283 0 0-.597-1.934-.8-3.21-.62-3.884 1.076-10.013 1.076-10.013l-4.891-.729-1.688 8.866-1.883 3.717zm20.983 71.583l-8.268 20.903 6.549.935 8.939-17.63-7.22-4.208zm50.631 21.371l.001-12.396-.873-9.364 10.165.389-4.107 21.371h-5.186zm52.733-203.525c.296-1.789.537-3.246.819-3.785.88-1.681 2.024 2.906 1.296 5.199-.248.781.28.067 1.206-1.186 1.793-2.425 5.079-6.871 7.13-6.414 1.524.339 1.435 1.146 1.293 2.442-.082.752-.183 1.669.003 2.756.47 2.745-.75 4.738-1.516 5.988l-.169.279c-.918 1.528-3.136 3.055-5.774 4.85l-5.738 8.251-5.814 8.595-3.705-4.435 8.952-14.25c1.009-2.198 1.574-5.615 2.017-8.29z" clip-rule="evenodd"/>
          <path fill="#000" d="M395.405 419.874l-.309-.062-.002.013-.002.013.313.036zm-.372 3.242l-.313-.036-.039.335.338.015.014-.314zm12.302.554l-.014.315.329.015v-.33h-.315zm-.662-1.422l-.275.153.275-.153zm-1.635-4.776l.312.038.003-.025-.001-.025-.314.012zm.436-3.438l-.307-.07.307.07zm.112-.533l.012-.315-.28-.01-.043.277.311.048zm1.354.106l.031-.314-.031.314zm4.456-3.642l-.311-.05.311.05zm-8.937-20.057l.104.298-.104-.298zm-56.086 118.144l.129.287-.129-.287zm4.673-16.431l-.281-.142-.003.006.284.136zm5.767 6.195l.312.046-.564-.236.252.19zm1.182 4.74l.138.283-.138-.283zm1.225-7.283l.316-.002-.316.002zm.012-2.283l.315.011.002-.053-.016-.051-.301.093zm-.8-3.21l.311-.05-.311.05zm1.076-10.013l.304.084.095-.343-.353-.052-.046.311zm-4.891-.729l.046-.312-.299-.044-.057.297.31.059zm-1.688 8.866l.282.142.02-.04.008-.044-.31-.058zm10.832 96.203l-.293-.116-.146.371.395.057.044-.312zm8.268-20.903l.158-.273-.317-.184-.134.341.293.116zm-1.719 21.838l-.044.312.223.032.102-.201-.281-.143zm8.939-17.63l.281.143.135-.265-.257-.15-.159.272zm43.412 4.767h.315v-.015l-.002-.014-.313.029zm-.001 12.396h-.315v.315h.315v-.315zm-.872-21.76l.012-.315-.36-.013.034.358.314-.03zm10.165.389l.31.059.069-.36-.367-.014-.012.315zm-4.107 21.371v.315h.26l.049-.256-.309-.059zm48.366-207.31l-.279-.146.279.146zm-.819 3.785l-.311-.052.311.052zm2.115 1.414l-.3-.096.3.096zm1.206-1.186l-.254-.187.254.187zm7.13-6.414l.069-.308-.069.308zm1.293 2.442l.313.034-.313-.034zm.003 2.756l-.31.053.31-.053zm-1.516 5.988l.269.164-.269-.164zm-.169.279l-.27-.163.27.163zm-5.774 4.85l-.177-.261-.049.033-.033.048.259.18zm-5.738 8.251l-.259-.18-.002.003.261.177zm-5.814 8.595l-.242.202.268.322.235-.347-.261-.177zm-3.705-4.435l-.267-.168-.121.194.146.176.242-.202zm8.952-14.25l.267.168.011-.018.009-.018-.287-.132zm-77.971 30.534l.309.061.001-.001v-.004a.106.106 0 00.003-.014l.011-.056.039-.211c.033-.184.079-.45.131-.782.103-.665.23-1.593.326-2.65.19-2.104.257-4.754-.265-6.846l-.611.153c.494 1.984.437 4.547.248 6.637a41.289 41.289 0 01-.45 3.376l-.037.206-.01.052-.003.013-.001.004.309.062zm-.059 3.277l.372-3.241-.626-.072-.372 3.242.626.071zm12.003.204l-12.302-.554-.028.629 12.302.555.028-.63zm-.951-.954c.188.338.349.626.463.86.057.116.099.212.126.288a.717.717 0 01.027.09c.006.023.006.032.006.031h.63c0-.113-.033-.231-.069-.333a3.555 3.555 0 00-.154-.353c-.123-.252-.293-.557-.478-.89l-.551.307zm-1.673-4.966c-.101.836.147 1.757.492 2.611.348.859.812 1.692 1.181 2.355l.551-.307c-.372-.668-.817-1.467-1.147-2.285-.333-.823-.533-1.624-.452-2.299l-.625-.075zm.442-3.471c-.178.786-.497 2.185-.444 3.521l.629-.025c-.048-1.24.249-2.561.43-3.357l-.615-.139zm.108-.511a9.03 9.03 0 01-.108.511l.615.139c.051-.226.096-.422.116-.554l-.623-.096zm1.696-.16a21.582 21.582 0 00-1.373-.107l-.023.63c.461.017.903.061 1.333.104l.063-.627zm4.114-3.378c-.32 1.99-.86 2.828-1.487 3.189-.318.183-.69.262-1.131.277-.445.016-.938-.032-1.496-.088l-.063.627c.548.055 1.085.109 1.582.091.5-.017.984-.109 1.422-.361.887-.51 1.469-1.603 1.795-3.635l-.622-.1zm-8.522-19.709c1.116-.389 2.079-.445 2.91-.255.832.19 1.556.63 2.188 1.272 1.273 1.292 2.155 3.383 2.735 5.773 1.158 4.775 1.068 10.556.689 12.919l.622.1c.391-2.44.481-8.305-.699-13.167-.588-2.428-1.504-4.653-2.898-6.068-.702-.712-1.529-1.223-2.496-1.443-.967-.221-2.051-.147-3.258.274l.207.595zm-6.603 19.165c-.508-2.039-1.447-5.947-.955-9.795.245-1.919.845-3.81 2.022-5.444 1.175-1.63 2.937-3.021 5.536-3.926l-.207-.595c-2.713.944-4.584 2.41-5.84 4.153-1.254 1.74-1.882 3.738-2.137 5.732-.508 3.978.462 7.991.97 10.028l.611-.153zm-49.716 98.393c-.18.081-.3.101-.373.097-.062-.003-.093-.023-.119-.052-.035-.039-.076-.118-.103-.265a2.439 2.439 0 01-.023-.567c.054-.949.453-2.441 1.059-4.206 1.206-3.513 3.187-7.974 4.645-11.014l-.568-.272c-1.463 3.048-3.455 7.535-4.673 11.081-.606 1.765-1.033 3.331-1.092 4.375a3.06 3.06 0 00.032.718c.039.208.112.409.248.565a.779.779 0 00.561.266c.21.011.435-.048.664-.151l-.258-.575zm10.317-10.138a67.882 67.882 0 01-4.762 5.591c-1.938 2.027-3.981 3.842-5.555 4.547l.258.575c1.699-.761 3.817-2.662 5.752-4.686a68.518 68.518 0 004.81-5.647l-.503-.38zm1.295 4.647c-.163.079-.269.087-.334.075-.061-.011-.123-.045-.191-.128-.149-.184-.265-.545-.328-1.058-.123-1.004-.018-2.355.122-3.3l-.624-.092c-.142.966-.257 2.382-.124 3.468.066.532.196 1.048.465 1.379.141.175.33.309.569.352.236.042.48-.011.722-.13l-.277-.566zm1.049-6.998c.01 1.514.021 3.16-.127 4.503-.074.673-.186 1.251-.349 1.693-.166.449-.365.7-.573.802l.277.566c.427-.209.701-.647.887-1.15.189-.511.308-1.148.385-1.842.152-1.387.14-3.072.131-4.576l-.631.004zm.012-2.295c-.023.669-.017 1.463-.012 2.295l.631-.004a59.264 59.264 0 01.011-2.27l-.63-.021zm-.797-3.151c.105.656.309 1.472.484 2.117a47.028 47.028 0 00.3 1.05l.02.064.005.017.001.005.001.001.301-.093.301-.093v-.001l-.001-.004-.005-.016-.019-.062a39.326 39.326 0 01-.296-1.033c-.174-.641-.37-1.43-.469-2.051l-.623.099zm1.388-10.062l-.304-.084v.002l-.001.003-.004.014-.014.054-.054.204a43.846 43.846 0 00-.704 3.304c-.347 2.023-.625 4.569-.307 6.565l.623-.099c-.301-1.887-.04-4.347.305-6.359a41.9 41.9 0 01.693-3.254l.053-.198.013-.051.004-.013v-.003h.001v-.001l-.304-.084zm-4.938-.417l4.892.729.092-.623-4.891-.73-.093.624zm-1.331 8.612l1.687-8.865-.619-.118-1.687 8.866.619.117zm-1.912 3.802l1.884-3.718-.563-.285-1.883 3.718.562.285zm12.728 92.458l8.267-20.902-.586-.232-8.268 20.903.587.231zm6.3.508l-6.549-.935-.089.624 6.549.935.089-.624zm8.613-17.46l-8.939 17.63.562.285 8.939-17.63-.562-.285zm-7.098-3.794l7.22 4.209.318-.545-7.221-4.209-.317.545zm50.476 8.703l-.001 12.396h.63l.001-12.396h-.63zm-.872-9.334l.873 9.363.627-.058-.873-9.364-.627.059zm10.491.044L421.8 562.5l-.024.63 10.165.389.024-.63zm-3.81 21.745l4.108-21.371-.619-.119-4.108 21.371.619.119zm-5.495.256h5.186v-.63h-5.186v.63zm53.273-207.771c-.166.316-.303.859-.434 1.507-.134.662-.269 1.48-.417 2.372l.622.103a72.8 72.8 0 01.412-2.35c.134-.662.258-1.116.375-1.34l-.558-.292zm1.875 5.44c.389-1.223.273-3.008-.039-4.261a5.763 5.763 0 00-.279-.855 2.082 2.082 0 00-.374-.615c-.147-.153-.374-.295-.649-.22-.245.066-.413.28-.534.511l.558.292c.099-.189.159-.2.142-.195-.047.013-.046-.028.027.048.072.075.16.215.251.427.089.208.173.465.246.76.298 1.193.39 2.848.051 3.917l.6.191zm.652-1.468c-.469.635-.82 1.108-1.022 1.33a.717.717 0 01-.088.087c-.006.005.013-.011.051-.023a.286.286 0 01.258.053c.089.072.1.164.102.177.003.023 0 .032.002.018a1.14 1.14 0 01.045-.174l-.6-.191a1.731 1.731 0 00-.069.276.515.515 0 00-.004.144.345.345 0 00.447.301.454.454 0 00.141-.073c.061-.044.123-.107.18-.17.231-.253.607-.762 1.064-1.381l-.507-.374zm7.453-6.535c-.635-.141-1.315.104-1.963.509-.656.41-1.336 1.02-1.995 1.707-1.319 1.375-2.6 3.109-3.495 4.319l.507.374c.899-1.215 2.157-2.916 3.443-4.257.643-.671 1.281-1.238 1.874-1.609.601-.376 1.101-.515 1.492-.428l.137-.615zm1.537 2.784c.036-.32.07-.629.074-.909a2.23 2.23 0 00-.113-.814c-.204-.549-.685-.88-1.498-1.061l-.137.615c.71.159.946.401 1.044.665.056.15.078.339.074.584a9.627 9.627 0 01-.07.852l.626.068zm.001 2.669c-.178-1.039-.083-1.917-.001-2.669l-.626-.068c-.083.752-.188 1.709.006 2.843l.621-.106zm-1.558 6.205c.767-1.251 2.049-3.334 1.558-6.205l-.621.106c.448 2.62-.71 4.522-1.474 5.77l.537.329zm-.168.277l.168-.277-.537-.329-.171.281.54.325zm-5.867 4.948c1.317-.896 2.541-1.733 3.551-2.539 1.007-.803 1.827-1.596 2.316-2.409l-.54-.325c-.43.715-1.178 1.45-2.169 2.241-.988.789-2.191 1.612-3.512 2.511l.354.521zm-5.656 8.171l5.738-8.251-.518-.36-5.738 8.251.518.36zm-5.812 8.592l5.814-8.595-.522-.354-5.815 8.596.523.353zm-4.208-4.41l3.705 4.435.483-.404-3.704-4.435-.484.404zm8.927-14.62l-8.952 14.25.534.335 8.952-14.249-.534-.336zm1.973-8.174c-.445 2.691-1.005 6.06-1.992 8.211l.573.263c1.03-2.246 1.601-5.712 2.041-8.371l-.622-.103z"/>
        </g>
        <path fill="#fff" stroke="#000" stroke-width=".63" d="M385.85 526.791l-7.238-36.197 27.092 5.101s6.411 20.582 1.088 33.02c-7.081 16.544-29.496 47.142-29.496 47.142l-9.665-6.198c.065-5.992 12.173-31.075 18.219-42.868z" class="Vector 2_2"/>
        <path fill="#fff" stroke="#000" stroke-width=".63" d="M417.795 531.818c-18.031-12.394-34.095-31.882-39.874-40.077l-2.134-8.562 33.487-14.196 8.36 15.942s16.604 31.425 19.273 42.128c3.673 14.733-3.849 42.534-3.849 42.534l-11.926 2.973-3.337-40.742z" class="Vector 2_3"/>
        <path fill="#253093" fill-rule="evenodd" d="M402.875 383.215c4.485 1.27 9.298 4.917 4.433 11.89-6.379 9.145-6.434 9.67-6.746 12.686-.065.62-.14 1.346-.283 2.274-.385 2.488-.432 3.744-.482 5.073a44.697 44.697 0 01-.42 4.953c2.073.369 3.403-.268 4.836-.955.791-.379 1.613-.773 2.61-1.021 0 0 5.39-2.481 9.02-2.25 1.34.086 3.907 1.144 7.057 2.442 5.388 2.221 12.481 5.144 18.047 5.103 8.172-.06 27.035-30.561 28.916-34.322.073.21.329.473.705.858 1.42 1.455 4.537 4.651 5.782 13.269-6.326 10.239-21.078 31.532-29.488 34.798-6.86 2.664-11.749 2.97-15.763 3.221-2.137.133-4.026.251-5.832.702-3.668.914-4.677 9.894-5.397 16.299-.301 2.674-.551 4.899-.923 5.901-1.264 3.401-1.419 7.987.334 14.37 1.754 6.383-.616 7.949-4.208 7.22-1.697-.344-3.054.387-4.512 1.173-1.629.878-3.385 1.824-5.885 1.42-2.352-.381-2.679-.987-3.015-1.608-.341-.63-.691-1.277-3.174-1.721-3.944-.706-15.685 4.614-21.062 7.362-5.269-2.455-2.312-20.556.739-33.157-.414.244-.932.452-1.591.616-1.7.424-2.824-.515-3.97-1.585a118.706 118.706 0 00-6.397 6.068l-3.758 20.1c-3.211 1.71-9.872-.083-12.802-1.193l4.298-27.705c.804-1.387 1.885-2.981 3.178-4.711-.178-.984-.444-1.969-.942-2.89-1.028-1.9-2.313-3.17-3.508-4.351-1.816-1.795-3.422-3.382-3.594-6.664-.192-3.693 2.141-5.531 4.636-7.497 2.045-1.612 4.199-3.31 5.16-6.185.826-2.471.677-4.655.532-6.771-.173-2.541-.34-4.984 1.197-7.71 2.379-4.221 6.369-4.564 10.911-4.955 3.159-.272 6.586-.567 9.924-2.207 3.182-1.562 5.03-4.781 6.932-8.092 2.96-5.155 6.05-10.536 14.505-10.248zm66.988 5.873c.15-.298.192-.428.113-.361-.128.11-.16.224-.113.361zm-48.283 192.45c-3.135 6.684-.974 9.926-.974 9.926h23.232c2.895-2.98-2.459-4.903-6.914-6.504-1.312-.471-2.546-.915-3.468-1.349-3.496-1.645-5.216-1.216-6.687-.85-1.47.367-2.691.671-5.189-1.223zm-60.625 9.99s-1.362-3.012 1.84-10.329c4.862 4.322 8.919 1.037 8.919 1.037s17.672 6.376 13.152 9.292h-23.911z" class="Union_3" clip-rule="evenodd"/>
        <path fill="#000" fill-opacity=".04" d="M414.897 461.222c.699-9.719.611-20.811 9.77-24.135 3.797-1.378 4.207.154 6.896 0 10.002-.574 24.709-6.896 24.709-6.896s-4.095 4.805-7.47 6.896c-3.082 1.909-5.135 2.448-8.62 3.448-5.646 1.619-10.918 0-14.941 1.724-4.052 1.736-3.719 6.597-4.597 10.918-.543 2.675-.643 4.213-1.149 6.896-.767 4.066-1.761 6.205-1.724 10.343.031 3.433 1.724 8.62 1.724 8.62s-3.645-4.554-4.598-8.045c-1.006-3.68-.274-5.964 0-9.769z" class="Vector 3_2"/>
        <path fill="#142C6B" d="M407.308 395.105c4.865-6.973.052-10.62-4.433-11.891-13.886-.471-13.301 14.346-21.437 18.341-8.137 3.996-16.8.005-20.835 7.162-2.816 4.995.089 9.043-1.729 14.481-2.133 6.382-10.146 6.962-9.796 13.682.284 5.44 4.511 6.224 7.102 11.015 2.024 3.742.218 8.538 4.193 10.054 3.134 1.196 4.998-2.431 8.334-2.077 3.416.361 4.533 4.77 7.866 3.939 5.52-1.376 1.171-5.856 8.5-8.02 7.328-2.164.215-11.153 5.764-12.537 6.879-1.715 6.475-7.308 7.547-13.121 2.09-11.34.93-9.824 1.895-16.068.84-5.439-.663-3.934 7.029-14.96z" class="Vector 2.2"/>
      </g>
    </g>
    <g class="Group 6">
      <g class="Group 3_2">
        <path fill="#253093" d="M263.765 548.569v-91.944s18.388 56.89 25.284 87.921c2.693 12.118-8.045 31.606-8.045 31.606s-17.239-14.823-17.239-27.583z" class="Vector 2_4"/>
        <path fill="#000" fill-opacity=".05" d="M273.533 504.895l-4.022-29.307 16.09 55.741-12.068-26.434z" class="Vector 4_2"/>
        <path fill="#000" fill-opacity=".18" d="M263.764 506.045c1.379 8.275 13.409 47.313 19.538 65.51l-2.298 4.022c-10.344-7.47-15.516-17.814-17.24-25.284v-44.248z" class="Vector 4_3"/>
        <path stroke="#000" stroke-width=".575" d="M283.302 591.667l-18.963-133.318" class="Vector_2"/>
      </g>
      <g class="Group 4_2">
        <path fill="#3544C2" d="M294.516 572.129c-3.42-8.776-6.156-43.36 10.259-111.482 10.449 32.679 23.026 100.726-10.259 111.482z" class="Vector 4_4"/>
        <path fill="#000" fill-opacity=".11" d="M299.967 490.529c3.448 20.688-2.069 54.132-8.045 61.488-1.724-16.091 3.448-50.569 8.045-61.488z" class="Vector 4_5"/>
        <path fill="#000" fill-opacity=".18" d="M294.22 574.428c5.747-18.772 13.792-45.397 20.688-64.361 2.873 19.347 1.723 57.465-20.688 64.361z" class="Vector 4_6"/>
        <path stroke="#000" stroke-width=".575" d="M284.451 592.242c7.854-11.302 23.331-43.788 22.411-83.324-.467-20.113-2.107-50.761-2.298-46.547" class="Vector 3_3"/>
      </g>
      <g class="Group 5">
        <g class="Group_2">
          <path fill="#202A8A" d="M251.122 562.935c5.057 15.171 20.304 20.879 33.33 28.732 0 0-9.557-22.964-20.113-33.904-12.507-12.961-39.651-23.56-39.651-23.56s21.377 13.561 26.434 28.732z" class="Vector 5_2"/>
          <path stroke="#fff" stroke-width=".345" d="M284.452 591.668c-15.516-18.581-40.226-48.845-55.167-55.167" class="Vector 4_7"/>
        </g>
        <g class="Group 2">
          <path fill="#3544C2" d="M246.525 575.577c14.897-1.333 37.352 16.09 37.352 16.09s-24.029-7.309-37.352-7.97c-9.438-.467-24.135 4.522-24.135 4.522s13.838-11.72 24.135-12.642z" class="Vector 6"/>
          <path stroke="#fff" stroke-width=".23" d="M223.539 587.645s15.147-8.851 25.859-9.194c13.705-.439 32.755 12.642 32.755 12.642" class="Vector 4_8"/>
        </g>
      </g>
      <g class="Group 5.1">
        <g class="Group_3">
          <path fill="#1C2473" d="M317.206 562.935c-5.057 15.171-20.304 20.879-33.329 28.732 0 0 9.556-22.964 20.112-33.904 12.508-12.961 39.651-23.56 39.651-23.56s-21.377 13.561-26.434 28.732z" class="Vector 5_3"/>
          <path stroke="#fff" stroke-width=".345" d="M283.876 591.668c15.516-18.581 40.226-48.845 55.167-55.167" class="Vector 4_9"/>
        </g>
        <g class="Group 2_2">
          <path fill="#3544C2" d="M321.803 575.577c-14.897-1.333-37.352 16.09-37.352 16.09s24.03-7.309 37.352-7.97c9.438-.467 24.136 4.522 24.136 4.522s-13.839-11.72-24.136-12.642z" class="Vector 6_2"/>
          <path stroke="#fff" stroke-width=".23" d="M344.789 587.645s-15.147-8.851-25.859-9.194c-13.705-.439-32.755 12.642-32.755 12.642" class="Vector 4_10"/>
        </g>
      </g>
    </g>
    <g class="Group 6.2">
      <g class="Group 3_3">
        <path fill="#253093" d="M796.809 558.465V490s13.693 42.363 18.828 65.47c2.006 9.024-5.991 23.535-5.991 23.535s-12.836-11.038-12.837-20.54z" class="Vector 2_5"/>
        <path fill="#000" fill-opacity=".05" d="M804.083 525.944l-2.995-21.823 11.982 41.507-8.987-19.684z" class="Vector 4_11"/>
        <path fill="#000" fill-opacity=".18" d="M796.809 526.8c1.027 6.162 9.985 35.231 14.549 48.782l-1.711 2.995c-7.703-5.563-11.554-13.265-12.838-18.828V526.8z" class="Vector 4_12"/>
        <path stroke="#000" stroke-width=".428" d="M811.358 590.558l-14.121-99.274" class="Vector_3"/>
      </g>
      <g class="Group 4_3">
        <path fill="#3544C2" d="M819.708 576.01c-2.546-6.536-4.583-32.288 7.64-83.014 7.78 24.334 17.146 75.004-7.64 83.014z" class="Vector 4_13"/>
        <path fill="#000" fill-opacity=".11" d="M823.768 515.247c2.567 15.404-1.541 40.309-5.991 45.786-1.283-11.982 2.567-37.656 5.991-45.786z" class="Vector 4_14"/>
        <path fill="#000" fill-opacity=".18" d="M819.488 577.722c4.279-13.979 10.27-33.805 15.405-47.926 2.139 14.406 1.283 42.791-15.405 47.926z" class="Vector 4_15"/>
        <path stroke="#000" stroke-width=".428" d="M812.214 590.987c5.848-8.416 17.373-32.607 16.688-62.047-.348-14.977-1.569-37.799-1.712-34.661" class="Vector 3_4"/>
      </g>
      <g class="Group 5_2">
        <g class="Group_4">
          <path fill="#202A8A" d="M787.396 569.163c3.765 11.297 15.119 15.547 24.818 21.395 0 0-7.116-17.1-14.976-25.246-9.314-9.652-29.526-17.544-29.526-17.544s15.918 10.098 19.684 21.395z" class="Vector 5_4"/>
          <path stroke="#fff" stroke-width=".257" d="M812.214 590.559c-11.554-13.836-29.954-36.373-41.079-41.08" class="Vector 4_16"/>
        </g>
        <g class="Group 2_3">
          <path fill="#3544C2" d="M783.972 578.577c11.093-.993 27.814 11.982 27.814 11.982s-17.893-5.444-27.814-5.935c-7.028-.348-17.972 3.367-17.972 3.367s10.305-8.728 17.972-9.414z" class="Vector 6_3"/>
          <path stroke="#fff" stroke-width=".171" d="M766.856 587.564s11.279-6.591 19.256-6.847c10.205-.327 24.391 9.414 24.391 9.414" class="Vector 4_17"/>
        </g>
      </g>
      <g class="Group 5.1_2">
        <g class="Group_5">
          <path fill="#1C2473" d="M836.604 569.163c-3.765 11.297-15.119 15.547-24.818 21.395 0 0 7.116-17.1 14.977-25.246 9.313-9.652 29.525-17.544 29.525-17.544s-15.918 10.098-19.684 21.395z" class="Vector 5_5"/>
          <path stroke="#fff" stroke-width=".257" d="M811.785 590.559c11.554-13.836 29.954-36.373 41.08-41.08" class="Vector 4_18"/>
        </g>
        <g class="Group 2_4">
          <path fill="#3544C2" d="M840.028 578.577c-11.093-.993-27.814 11.982-27.814 11.982s17.893-5.444 27.814-5.935c7.028-.348 17.972 3.367 17.972 3.367s-10.305-8.728-17.972-9.414z" class="Vector 6_4"/>
          <path stroke="#fff" stroke-width=".171" d="M857.144 587.564s-11.279-6.591-19.256-6.847c-10.205-.327-24.391 9.414-24.391 9.414" class="Vector 4_19"/>
        </g>
      </g>
    </g>
    <g class="Group 14">
      <rect width="196" height="106" x="619" y="151" fill="#fff" class="Rectangle_3" rx="19"/>
      <g class="Group 13">
        <g class="Group 11">
          <rect width="121" height="6" x="638" y="171" fill="#000" fill-opacity=".06" class="Rectangle 2_5" rx="3"/>
          <g class="Group 10">
            <rect width="146" height="3" x="638" y="183" fill="#000" fill-opacity=".08" class="Rectangle 2.1_5" rx="1.5"/>
            <rect width="146" height="3" x="638" y="189" fill="#000" fill-opacity=".08" class="Rectangle 2.2_5" rx="1.5"/>
            <rect width="121" height="3" x="638" y="195" fill="#000" fill-opacity=".08" class="Rectangle 2.3_2" rx="1.5"/>
          </g>
        </g>
        <g class="Group 12">
          <rect width="38" height="33" x="638" y="208" fill="#000" fill-opacity=".04" class="Rectangle 2_6" rx="5"/>
          <rect width="38" height="33" x="683" y="208" fill="#000" fill-opacity=".04" class="Rectangle 2.1_6" rx="5"/>
          <rect width="38" height="33" x="728" y="208" fill="#000" fill-opacity=".04" class="Rectangle 2.2_6" rx="5"/>
        </g>
      </g>
    </g>
    <g class="Group 14.1">
      <rect width="196" height="106" x="203" y="208" fill="#fff" class="Rectangle_4" rx="19"/>
      <g class="Group 13_2">
        <g class="Group 11_2">
          <rect width="121" height="6" x="222" y="228" fill="#000" fill-opacity=".06" class="Rectangle 2_7" rx="3"/>
          <g class="Group 10_2">
            <rect width="146" height="3" x="222" y="240" fill="#000" fill-opacity=".08" class="Rectangle 2.1_7" rx="1.5"/>
            <rect width="146" height="3" x="222" y="246" fill="#000" fill-opacity=".08" class="Rectangle 2.2_7" rx="1.5"/>
            <rect width="121" height="3" x="222" y="252" fill="#000" fill-opacity=".08" class="Rectangle 2.3_3" rx="1.5"/>
          </g>
        </g>
        <g class="Group 12_2">
          <rect width="38" height="33" x="222" y="265" fill="#000" fill-opacity=".04" class="Rectangle 2_8" rx="5"/>
          <rect width="38" height="33" x="267" y="265" fill="#000" fill-opacity=".04" class="Rectangle 2.1_8" rx="5"/>
          <rect width="38" height="33" x="312" y="265" fill="#000" fill-opacity=".04" class="Rectangle 2.2_8" rx="5"/>
        </g>
      </g>
    </g>
  </g>
</svg>
