<svg xmlns="http://www.w3.org/2000/svg" width="1155" height="700" fill="none" viewBox="0 0 1155 700">
  <g clip-path="url(#clip0)">
    <path fill="#fff" d="M0 0h1155v700H0z"/>
    <g class="Group 4">
      <path fill="#FCD23D" d="M381.732 162.731c44.676-10.257 5.017-58.459 55.528-78.944 36.317-14.728 64.168 19.764 98.01.001 45.828-26.762 72.943-20.613 94.144 20.485 18.251 35.376 38.957 44.538 70.916 63.556 60.312 35.89 154.186-36.836 177.288 29.437 10.478 30.056-10.034 49.708-6.021 81.285 6.292 49.503 67.73 67.192 54.859 115.405-5.316 19.914-19.178 26.326-26.76 45.493-10.563 26.7 13.347 58.562-11.708 72.588-15.616 8.741-28.224-3.23-45.827 0-46.857 8.596-47.15 73.511-94.666 76.936-37.435 2.698-51.255-33.86-88.644-37.13-37.067-3.242-57.887 33.07-92.993 20.739-20.658-7.256-23.1-29.441-44.489-34.119-21.915-4.794-33.711 16.917-55.863 13.38-26.139-4.174-29.848-31.142-54.859-39.806-38.46-13.324-68.984 35.17-103.363 13.38-22.679-14.375-17.932-39.097-37.13-57.87-13.605-13.303-30.238-11.651-39.806-28.098-18.784-32.287 28.701-51.308 39.806-86.972 7.212-23.162 16.204-16.311-25.088-73.926-41.292-57.616 91.989-105.563 136.666-115.82z" class="Vector 13"/>
      <path fill="#fff" fill-opacity=".16" d="M400.131 187.485c44.676-10.258 5.352-51.769 55.863-72.254 36.317-14.728 49.45 8.806 83.292-10.957 45.827-26.762 68.928-41.098 90.13-.001 18.25 35.377 38.957 44.539 70.915 63.557 60.313 35.89 154.187-36.836 177.289 29.436 10.478 30.057-10.035 49.709-6.021 81.285 6.292 49.503 67.73 67.192 54.859 115.405-5.316 19.915-19.179 26.327-26.761 45.493-10.562 26.701 13.348 58.563-11.707 72.588-15.617 8.742-28.225-3.229-45.828 0-46.857 8.596-47.15 73.512-94.665 76.937-37.435 2.698-51.255-33.86-88.645-37.13-37.066-3.242-57.887 33.07-92.993 20.739-20.658-7.256-23.099-29.441-44.489-34.12-21.915-4.793-33.71 16.917-55.863 13.381-26.138-4.174-29.847-31.142-54.859-39.807-38.46-13.323-66.121 38.1-100.499 16.309-22.68-14.375.465-43.779-18.732-62.552-13.605-13.304-11.694-18.676-21.262-35.124-18.783-32.286 9.219-47.165 21.262-75.598 9.045-21.357 29.249-18.905-12.043-76.521-41.292-57.615 76.081-80.809 120.757-91.066z" class="Vector 13.1"/>
      <path fill="#fff" fill-opacity=".16" d="M456.132 190.381c44.677-10.257 5.353-51.769 55.863-72.254 36.317-14.728 57.594 18.631 83.292-10.957 20.601-23.719 22.306 6.869 55.724 38.834 30.775 29.437 71.965 36.579 105.036 44.377 49.172 11.595 73.591-50.063 118.415 7.138 12.402 15.826-11.707 29.638-7.694 61.214 6.292 49.503.335 36.127 34.12 73.592 13.804 15.307 34.294 29.002 26.712 48.169-10.562 26.7-15.673 37.13-26.712 53.073-10.188 14.714 8.697 75.043-14.384 75.043-47.639 0-40.097-12.114-74.595 20.739-27.716 26.394-32.523 60.471-69.912 57.201-37.066-3.242-46.179-25.134-81.285-37.465-20.658-7.256-70.6 31.073-91.989 26.394-21.915-4.794-13.975-29.213-36.127-32.75-26.138-4.173-51.452-25.455-76.464-34.119-38.46-13.324-74.336 28.114-108.714 6.323-22.679-14.375 19.198-27.47 0-46.243-13.604-13.304-11.693-18.676-21.261-35.123-18.784-32.287 9.218-47.166 21.261-75.599 9.046-21.356 29.249-18.905-12.043-76.52-41.292-57.616 76.081-80.81 120.757-91.067z" class="Vector 13.2"/>
    </g>
    <path fill="#fff" fill-rule="evenodd" d="M629.602 181.797a8.03 8.03 0 00-8.028 8.029v144.473a8.028 8.028 0 008.028 8.028h12.191l15.546 20.144a2.676 2.676 0 004.171.083l16.929-20.227h157.22a8.028 8.028 0 008.028-8.028V189.826a8.03 8.03 0 00-8.028-8.029H629.602z" class="Union" clip-rule="evenodd"/>
    <g class="Group 7">
      <g class="Group 2">
        <rect width="78.944" height="110.154" x="592.342" y="202.476" fill="#F97D7D" class="Rectangle" rx="8.262"/>
        <rect width="42.226" height="12.851" x="592.342" y="319.056" fill="#4051E5" class="Rectangle 2" rx="2.676"/>
        <circle cx="631.814" cy="249.292" r="20.195" fill="#fff" class="Ellipse"/>
        <rect width="29.374" height="44.062" x="630.895" y="256.635" fill="#EC4035" class="Rectangle 3" rx="3.672"/>
      </g>
      <g class="Group 2_2">
        <rect width="34.476" height="48.107" x="770.801" y="234.28" fill="#5A57F7" class="Rectangle_2" rx="3.608"/>
        <rect width="18.441" height="5.612" x="770.801" y="285.193" fill="#4051E5" class="Rectangle 2_2" rx="1.169"/>
        <circle cx="788.039" cy="254.726" r="8.82" fill="#fff" class="Ellipse_2"/>
        <rect width="12.828" height="19.243" x="787.638" y="257.933" fill="#EC4035" class="Rectangle 3_2" rx="1.604"/>
      </g>
      <g class="Group 2_3">
        <rect width="41.928" height="58.505" x="685.989" y="213.666" fill="#D1CAFD" class="Rectangle_3" rx="4.388"/>
        <rect width="22.427" height="6.826" x="685.989" y="275.584" fill="#4051E5" class="Rectangle 2_3" rx="1.421"/>
        <circle cx="706.954" cy="238.531" r="10.726" fill="#fff" class="Ellipse_3"/>
        <rect width="15.601" height="23.402" x="706.465" y="242.431" fill="#EC4035" class="Rectangle 3_3" rx="1.95"/>
      </g>
    </g>
    <g class="Group 8">
      <path fill="#FB4470" fill-rule="evenodd" d="M646.994 503.886c-5.234-1.79-14.425-5.691-14.203-10.956.145-3.448 4.014-1.003 4.014-1.003l12.377 1.003 6.818 8.766 133.007 21.675v71.585l-66.566 37.464-138.486-31.109-6.356-69.912 5.062-2.007h-12.422s-3.966-1.977-4.348-4.348c-.462-2.864 4.348-6.022 4.348-6.022l10.537 3.68 9.974 3.483 56.244-22.299z" class="Union_2" clip-rule="evenodd"/>
      <path fill="#fff" fill-opacity=".06" d="M653.531 503.635l-69.912 28.099 52.183 10.37 19.736-10.37-2.007-28.099z" class="Vector 4"/>
      <path fill="#000" fill-opacity=".1" d="M584.624 601.311l-6.69-70.581 144.507 27.764v73.926l-137.817-31.109z" class="Vector 2"/>
      <path fill="#fff" fill-opacity=".06" d="M789.008 523.037l-65.898 36.126v72.923l65.898-37.13v-71.919z" class="Vector 3"/>
      <path fill="#000" fill-opacity=".04" d="M743.179 547.79l-86.971-16.391-19.402 10.37 85.634 16.056 20.739-10.035z" class="Vector 5"/>
    </g>
    <g class="Group 6">
      <path stroke="#000" stroke-width=".669" d="M504.238 484.867c-23.862 3.679-69.912-4.817-63.222-68.24-11.596 28.991-15.187 83.226 63.222 68.24z" class="Vector 5_2"/>
      <path fill="#0D1453" d="M447.036 269.779c3.377-23.081 21.297-28.544 36.796-31.109 15.521-2.676 13.38-2.006 20.404 8.029 7.025 10.034 11.135 8.828 16.392 16.725 5.681 8.535 17.89 8.179 18.732 18.398.55 6.674-10.258 14.16-6.021 16.056 4.237 1.896 12.644 7.493 12.377 14.718-.268 7.226-11.931 12.154-17.729 13.715s5.352 7.694 5.352 7.694 2.369 9.29 0 14.384c-5.426 11.664-34.789 7.024-34.789 7.024-9.032 7.694-37.465-2.341-43.151 3.011-5.687 5.352-43.486 30.774-47.5 30.774-3.212 0-8.028-5.798-10.035-8.697 0 0-6.245-9.005-5.687-15.387.453-5.181 4.902-6.901 5.687-12.042 1.171-7.682-6.604-11.351-5.687-19.067 1.727-14.538 33.253-3.098 33.785-17.729.387-10.645-8.128-8.03-5.687-18.398 2.493-10.584 23.383-5.018 26.761-28.099z" class="Vector 2_2"/>
      <path fill="#FBC2C2" fill-rule="evenodd" d="M474.258 317.964c-10.651-10.783-11.95-27.906-10.495-37.146 9.366-33.451 35.903-17.172 45.493-2.342 7.687 27.225.653 44.942-7.886 48.749-.304 2.725-.216 6.164 1.195 9.456l31.109 6.69 6.021 9.032s-27.441 15.65-46.831 16.725c-22.987 1.274-56.531-16.725-56.531-16.725l2.007-4.349s30.774-6.355 34.454-11.373c2.565-3.497 2.238-11.981 1.464-18.717z" class="Union_3" clip-rule="evenodd"/>
      <path fill="#FC3636" fill-opacity=".05" d="M496.545 327.314c1.338.335 3.457 0 4.683 0 0 1.874.892 7.025 1.338 9.366l11.373 2.342c-4.125 1.004-8.956.831-11.373 1.004-4.683.334-7.059-12.971-6.021-12.712z" class="Vector 12"/>
      <path fill="#FB6666" fill-opacity=".13" d="M500.223 327.649c-34.455 0-38.692-32.671-36.462-46.832 9.366-33.451 35.904-17.171 45.493-2.342 7.694 28.769 0 46.498-9.031 49.174z" class="Vector 2.1"/>
      <path fill="#0D1453" d="M500.225 273.124c-7.493-2.141-13.158-10.035-14.384-14.384 21.408 4.55 29.102 21.409 26.76 32.113-1.672-2.788-4.883-15.588-12.376-17.729z" class="Vector 2_3"/>
      <path fill="#0D1453" d="M469.448 291.856c0-20.405 16.28-25.311 17.06-33.116-32.782 0-34.121 40.476-24.754 55.528 0 0 7.694-2.007 7.694-22.412z" class="Vector 2_4"/>
      <path fill="#6764F9" d="M399.871 458.106c-9.366-95.535 40.475-120.757 60.212-118.081 23.75 7.36 37.866 18.198 60.88 0 42.482 0 47.833 84.966 50.175 90.317 2.342 5.352 35.124 25.757 35.124 25.757 2.199 14.4-.271 21.087-12.042 31.109-21.073-6.82-10.706-3.011-42.188-19.063.054 9.44.374 18.349.374 24.75 0 15.499 6.356 52.518 2.676 62.887-3.68 10.37-52.183 11.039-81.954-3.345-29.772-14.383-48.65 15.954-62.553 3.345-12.096-10.969 4.458-32.43 4.683-46.496.189-11.841 0-16.391 0-16.391-10.399-12.52-13.844-25.993-15.387-34.789z" class="Vector"/>
      <path fill="#000" fill-opacity=".1" d="M430.981 351.064c-19.76 24.419-31.109 54.86-26.091 123.433-9.701-18.732-12.712-94.665 26.091-123.433z" class="Vector 11"/>
      <path fill="#fff" fill-opacity=".02" d="M492.53 390.202c-25.377-3.981-52.406-30.44-52.518-45.493 29.771-18.063 45.159 22.412 80.282-4.348 33.785-1.338 44.489 52.517 49.172 79.613-2.564-3.234-2.303-7.357-5.686-16.057-4.683-12.043-6.356-35.793-13.381-36.127-7.024-.335-40.809 25.088-57.869 22.412z" class="Vector 10.1"/>
      <path fill="#000" fill-opacity=".04" d="M413.586 518.652c2.007-8.697 2.007-25.423 2.007-25.423 15.722 15.053 25.757 22.412 62.553 34.12-7.025-1.561-27.363-1.672-45.828-1.672-23.081 0-24.418 14.757-24.419 9.031 0-4.683 3.679-7.359 5.687-16.056z" class="Vector 7"/>
      <path fill="#000" fill-opacity=".09" d="M555.751 428.67c-3.679 8.363-3.679 27.541-3.679 39.137l3.679 1.673s-2.684-17.06 2.007-37.13c4.692-20.071-7.969-37.131-15.052-43.152 13.112 19.803 14.16 34.566 13.045 39.472z" class="Vector 6"/>
      <path fill="#fff" fill-opacity=".03" d="M447.706 463.793c10.845 14.912 59.877 21.743 59.877 21.743s-46.42 7.17-64.895-14.384c-16.056-18.732-1.672-54.525-1.672-54.525s-4.156 32.253 6.69 47.166z" class="Vector 5_3"/>
      <path fill="#000" fill-opacity=".15" d="M594.22 486.874c-2.787-7.47-4.281-24.084 12.043-30.774 1.561 5.798 1.338 20.07-12.043 30.774z" class="Vector 4_2"/>
      <path fill="#9D4AF1" fill-opacity=".12" d="M471.457 282.156c2.341-9.366 12.711-17.06 14.049-21.408 0 0-22.839 10.875-26.426 26.091-2.464 10.452 3.045 17.162 1.338 27.764-2.062 12.81-17.729 28.099-17.729 28.099s13.046-5.018 20.739-1.673c2.148.934 9.701-3.345 9.701-3.345s.681-3.345 1.338-6.355c.949-4.347 1.004-12.377 1.004-12.377s-2.509-2.237-4.014-4.349c-1.9-2.666-4.349-7.359-4.349-7.359 2.007-2.676 2.007-15.722 4.349-25.088z" class="Vector 9"/>
      <path fill="#030303" fill-opacity=".16" d="M511.932 532.032c-5.91-8.028-13.514-28.232 3.345-44.824 2.565 12.6 5.486 39.205-3.345 44.824z" class="Vector 3_2"/>
      <path fill="#EAAFAF" d="M551.736 508.617l-41.479-15.053c-5.018 6.356-7.359 15.722-4.349 24.084l53.522 4.349s4.812.874 6.69 2.676c3.548 3.407 2.749 4.882 6.763 5.885 5.08-2.018 6.428-4.422 5.018-9.366 0 0-3.389-5.623-7.433-7.223-2.55-1.009-9.031-1.338-9.031-1.338l-9.701-4.014z" class="Vector 2_5"/>
      <path fill="#EAAFAF" d="M639.044 476.504l-34.788-19.735c-11.234 6.355-12.572 18.397-11.234 24.084l53.716 11.039s5.829-.362 8.028 2.007c3.63 3.912-5.018 7.253-5.018 12.711 0 1.673 9.037-3.099 11.179-8.028 1.666-3.834 1.867-9.032 1.867-9.032l-5.687-7.359-6.021-2.676-12.042-3.011z" class="Vector 2.1_2"/>
      <path fill="#F94545" fill-opacity=".14" d="M643.058 491.223l-49.842-10.37c-1.003-3.345-.669-7.694 0-8.697l49.842 19.067z" class="Vector 13_2"/>
      <path fill="#FE3636" fill-opacity=".08" d="M559.432 521.997s-2.999-.784-4.683-1.003c-15.388-2.007-24.754-5.018-40.476-7.025-4.458-.569-9.365-6.69-9.365-6.69-.67 3.01-.335 6.69 1.337 10.37l53.187 4.348z" class="Vector 12_2"/>
      <path fill="#fff" fill-opacity=".07" d="M545.382 509.955c-13.715-5.687-39.137-8.697-39.137-8.697l2.341-5.352 2.007-2.342 50.845 19.067s-12.315-1.125-16.056-2.676z" class="Vector 15"/>
      <path fill="#fff" fill-opacity=".05" d="M452.723 286.17c3.679-22.412 9.366-21.409 21.743-27.095-16.332 9.7-18.733 18.063-19.736 27.095-.803 7.225-17.319 12.276-16.057 21.743 1.338 10.035-.223 11.93-4.683 14.384 8.363-5.353-.626-11.472 3.011-19.736 3.572-8.119 14.049-10.647 15.722-16.391z" class="Vector 14"/>
      <path stroke="#000" stroke-opacity=".06" stroke-width=".669" d="M514.942 486.874s-49.507-7.025-64.895-21.743c-13.766-13.168-9.031-48.504-9.031-48.504" class="Vector 16"/>
    </g>
    <g class="Group 5">
      <path stroke="#fff" stroke-width="1.338" d="M531.073 240.844v-7.298h6.69v7.298h-6.69z" class="Vector 17"/>
      <path stroke="#fff" stroke-width=".405" d="M424.031 231.783v-7.299h6.69v7.299h-6.69z" class="Vector 17.1"/>
      <path stroke="#fff" stroke-width=".669" d="M507.99 203.745l5.687-11.039 6.355 11.039H507.99z" class="Vector 18"/>
      <path stroke="#fff" stroke-width=".669" d="M398.607 264.29l3.68-12.376 7.025 9.7-10.705 2.676z" class="Vector 19"/>
      <path stroke="#fff" stroke-width=".669" d="M561.847 282.019v-8.362h8.697v8.362h-8.697z" class="Vector 20"/>
      <path stroke="#fff" stroke-width=".669" d="M582.585 248.903v8.363m-3.679-4.014h7.693" class="Vector 21"/>
      <path stroke="#fff" stroke-width="1.338" d="M470.526 198.393v8.362m-3.68-4.014h7.694" class="Vector 21.1"/>
    </g>
  </g>
  <defs>
    <clipPath id="clip0" class="clip0">
      <path fill="#fff" d="M0 0h1155v700H0z"/>
    </clipPath>
  </defs>
</svg>
