<svg xmlns="http://www.w3.org/2000/svg" width="1152" height="700" fill="none" viewBox="0 0 1152 700">
  <g class="sotrage">
    <path fill="#fff" d="M0 0h1152v700H0z"/>
    <g class="drawer">
      <path stroke="#000" d="M702.5 529V213m0 316H814V225c0-6.627-5.373-12-12-12h-99.5m0 316H493V213h209.5" class="Vector"/>
      <path stroke="#000" d="M702.5 213v316H493V213h209.5z" class="Vector_2"/>
      <g class="Vector 2">
        <path stroke="#000" d="M446 368.5v-123h170.5v123H446zM516 508.5V384h166v124.5H516z"/>
      </g>
      <path stroke="#000" d="M616.5 263v105.5H686V263h-69.5z" class="Vector 2.1"/>
      <path stroke="#000" d="M557 441v-17h82.5v17H557z" class="handle"/>
    </g>
    <g class="man">
      <g class="Vector 9">
        <path stroke="#000" d="M366.068 573.794c.698-2.525.291-5.786 0-7.101-.873-.789-11.342-1.578-11.342.789s-2.618 17.358 0 18.147c2.617.789 6.98.789 6.98 0s3.49-.789 6.981-1.578c3.49-.789 14.833-6.312 15.705-8.679.873-2.367-.872-5.523-3.49-5.523-2.094 0-10.762 2.63-14.834 3.945zM403.588 582.473c.291 1.315.698 4.576 0 7.101 4.072-1.315 12.739-3.945 14.834-3.945 2.617 0 4.362 3.156 3.49 5.523-.873 2.367-12.216 7.89-15.706 8.679-3.49.788-6.98.788-6.98 1.577 0 .789-4.363.789-6.981 0-2.617-.789 0-15.779 0-18.146 0-2.367 10.47-1.578 11.343-.789z"/>
      </g>
      <path stroke="#000" d="M363.451 457.813c4.188-.631 29.667 3.945 41.882 6.312 2.792 9.468 1.164 84.421 0 120.714-2.094 1.263-10.761.526-14.833 0-1.745-5.523-3.49-82.054-3.49-85.21 0-3.156-3.49-8.679-5.236-2.367-1.396 5.05-9.888 49.969-13.96 71.798-2.094 1.262-10.18.526-13.961 0-2.094-9.468 5.526-78.11 9.598-111.247z" class="Vector 8"/>
      <g class="Vector 6">
        <path stroke="#000" d="M403.588 359.194c0-1.894-4.072-6.049-6.108-7.89-14.834-2.367-13.088 11.046-13.088 18.935 0 7.89-4.363 10.257-3.49 13.413.698 2.525 11.343 5.26 16.578 6.312-1.163-5.26-2.792-15.622 0-14.991 3.49.789 6.108-.789 7.853-4.734 1.745-3.944-1.745-8.678-1.745-11.045zM435 434.936c0-5.05-8.725-15.78-13.088-20.514-5.236 0-12.216 5.523-12.216 7.101 0 1.578 12.216 13.413 12.216 17.358 0 3.945-13.961 17.357-18.324 20.513-4.363 3.156 0 15.78 1.745 21.303 1.745 5.523 4.363-2.367 4.363-12.624 0-10.257 8.726-11.835 12.216-14.991 3.49-3.156 13.088-11.834 13.088-18.146zM360.833 421.523c-3.49-1.262-1.454-6.312 0-8.679 0-1.578-6.98-6.312-8.725-1.578-1.745 4.734-1.745 14.991 0 18.147 1.745 3.156 13.088 0 18.323 0 5.236 0 0-5.523 0-7.89s-5.235 1.578-9.598 0z"/>
      </g>
      <path stroke="#000" d="M362.578 415.21c-6.282 0-13.67-5.26-16.578-7.89 0-8.679 11.343-19.725 12.216-24.458.872-4.734 13.96-3.156 20.941-3.156 5.584 0 18.614 7.363 24.431 11.045 3.2 1.841 11.274 5.461 14.834 8.679 4.362 3.945 9.307 14.728 11.343 20.514-2.094 6.312-13.089 7.89-18.324 7.89 0 3.156-2.618 7.101-2.618 12.623 0 5.523-1.745 8.679-5.235 11.835-3.49 3.156-2.617 13.413-7.853 12.624-5.235-.789-33.157-2.367-34.029-7.89-.698-4.418.291-29.718.872-41.816zm0 0c.873-1.315 2.618-4.418 2.618-6.312 0-1.893-.582-10.257-.873-14.202" class="Vector 7"/>
      <path stroke="#000" d="M400.971 353.669c.698-2.525-.873-5.786-1.746-7.101-2.617-3.945-13.088-3.945-17.45-3.156-4.363.789-2.618 6.312-6.108 10.257-3.49 3.945-2.618 10.257-.873 14.202 1.745 3.945 10.471 4.734 13.961 5.523 3.49.789 6.108-6.312 3.49-7.101-2.617-.789-.872-3.945-.872-6.312 0-2.367 3.49-1.578 6.108-1.578 2.617 0 2.617-1.578 3.49-4.734z" class="Vector 10"/>
    </g>
    <g class="woman">
      <path stroke="#000" d="M533.18 271.83C523.09 203.523 580.189 157.215 610 142.6v8.077c-7.338 3.692-27.518 25.384-36.69 35.769 3.439 1.538 12.612 6 21.785 11.538 9.172 5.539 8.408 55.385 6.879 79.616l-11.466-5.77c5.504-11.077-2.293-33.846-6.879-43.846v39.231l-50.449 4.615z" class="Vector 4"/>
      <path stroke="#000" d="M615.345 171.184c-6.417-9.196-16.252-4.521-20.367-1.034-12.469-6.879-18.803 4.116-20.412 10.474-4.579-1.402-14.481-1.261-17.46 10.525-3.724 14.731 19.67 29.226 35.095 22.764 12.34-5.17 14.958-14.674 14.724-18.78 5.481-4.151 14.837-14.754 8.42-23.949z" class="Vector 8.1"/>
      <g class="Vector 4.1">
        <path stroke="#000" d="M606.558 190.506c4.304-3.907 6.256-11.275 6.694-14.471-2.178 4.36-11.43 4.689-15.784 4.309-.417 1.19-2.076 3.834-5.38 4.883-4.13 1.313-4.299 1.821-4.075 3.513.224 1.693 6.723 5.271 6.499 3.579-.179-1.354.905-1.448 2.378-3.327 1.429 2.132 5.365 5.42 9.668 1.514zM611.5 149.1v-6.5c4.5 0 13.1.5 11.5 2.5-1.6 2-8.334 3.5-11.5 4z"/>
      </g>
    </g>
    <g class="paper">
      <path stroke="#000" d="M225.902 143.049c-3.34-5.543-9.993-5.389-12.902-4.62 7.893-8.621 20.997-4.106 26.562-.77-.758-15.012 5.692-19.246 17.076-32.334 11.384-13.088 26.942-6.929 20.871-6.544-6.071.385-13.661 11.548-10.625 11.548h7.21c-14.268 8.315-16.57 19.631-15.938 24.251 16.393-11.702 27.069-2.823 30.357 3.079-9.992-1.283-28.308-1.386-21.629 8.469 6.679 9.854 23.527 11.547 31.116 11.163-58.058 18.861-67.924-7.314-72.098-14.242z" class="Vector 9_2"/>
      <path stroke="#000" d="M272.904 217.793c-4.34-4.808-9.994-5.408-12.904-4.635 7.894-8.652 21.001-4.121 26.568-.773-3.382-8.299-3.6-12.192 10.052-21.486 14.335-9.758 33.974-7.888 27.902-7.502-6.073.386-13.664 11.588-10.627 11.588h7.211l-.137.08c-14.148 8.272-16.434 9.609-15.804 14.229 16.396-11.743 27.546 5.666 30.835 11.589-9.995-1.288-28.785-9.889-22.105 0s12.49 10.422 20.081 10.036c-58.07 18.927-53.918-5.201-61.072-13.126z" class="Vector 9.1"/>
      <path stroke="#000" d="M357 200.636c4.054-4.412 12.617-12.102 14.441-7.564 2.281 5.673-1.52 4.917 6.461 0 7.981-4.916 20.902-11.345 28.502-5.672 7.601 5.672 12.162 11.724 11.782 1.89-.381-9.833 27.742 10.59 27.742 13.994s-1.9-6.43 0-6.43-34.203-36.685-61.566-32.525c-14.441 2.647 0 .756 3.801 4.916 3.8 4.161-31.163 14.751-31.163 31.391z" class="Vector 9_3"/>
      <path stroke="#000" d="M323.305 123.093c2.443 1.046 7.33 3.542 7.33 5.157 0 2.017-5.553-2.691-9.551 11.658-3.999 14.35-3.554 13.453-1.777 12.78 1.777-.672 8.44-9.865 8.663-6.278.222 3.588 2.665-1.569 6.441-5.605 3.776-4.036 2.888 2.915 2.888 3.812 0 .897-1.333-4.484 6.664-7.399 7.996-2.915 24.211 2.466 25.544 5.381 1.333 2.915.444-2.466 3.332-1.794 2.887.673-33.763-27.577-49.534-17.712z" class="Vector 9_4"/>
      <path stroke="#000" d="M441.3 216.958c-2.55 3.782-18.596 8.929-26.3 11.03 50.474 0 59.772 11.031 72.258 15.233 9.989 3.362 16.737 22.587 18.862 31.779 5.844-14.707 5.047-54.102-2.125-61.981-5.739-6.304-11.601-16.109-13.815-20.223-7.261-1.751-21.783-4.885-21.783-3.414 0 1.838 6.375 9.454 21.783 23.637 12.327 11.345 14.346 32.391 13.815 41.495-9.298-32.304-59.507-42.284-62.695-37.556z" class="Vector 7_2"/>
      <path stroke="#000" d="M491 119c-15.91 15.104-11.165 37.41-6.804 46.676-19.26-3.357-33.146 6.817-37.682 12.324.209-7.552-7.589-15.209-11.514-18.093 5.024-4.615 26.866-3.147 37.159-1.836-7.955-6.083-10.118-22.114-10.206-29.369L491 119z" class="Vector 8_2"/>
    </g>
  </g>
</svg>
