<svg xmlns="http://www.w3.org/2000/svg" width="1152" height="700" fill="none" viewBox="0 0 1152 700">
  <g class="tasks">
    <path fill="#fff" d="M0 0h1152v700H0z"/>
    <g class="Group 4.2">
      <rect width="205.833" height="203.467" x="610.167" y="111.167" fill="#000" fill-opacity=".06" class="Rectangle" rx="11.829"/>
      <g class="Group 3">
        <rect width="144.32" height="5.915" x="658.668" y="140.741" fill="#fff" class="Rectangle_2" rx="2.957"/>
        <rect width="79.258" height="5.915" x="658.668" y="152.57" fill="#fff" class="Rectangle_3" rx="2.957"/>
        <rect width="22.476" height="22.476" x="625.545" y="138.375" fill="#fff" class="Rectangle 2" rx="3.549"/>
      </g>
      <g class="Group 3.1">
        <rect width="144.32" height="5.915" x="658.668" y="183.327" fill="#fff" class="Rectangle_4" rx="2.957"/>
        <rect width="79.258" height="5.915" x="658.668" y="195.156" fill="#fff" class="Rectangle_5" rx="2.957"/>
        <rect width="22.476" height="22.476" x="625.545" y="180.961" fill="#fff" class="Rectangle 2_2" rx="3.549"/>
      </g>
      <g class="Group 3.2">
        <rect width="144.32" height="5.915" x="658.668" y="225.913" fill="#fff" class="Rectangle_6" rx="2.957"/>
        <rect width="79.258" height="5.915" x="658.668" y="237.742" fill="#fff" class="Rectangle_7" rx="2.957"/>
        <rect width="22.476" height="22.476" x="625.545" y="223.547" fill="#fff" class="Rectangle 2_3" rx="3.549"/>
      </g>
      <g class="Group 3.3">
        <rect width="144.32" height="5.915" x="658.668" y="268.499" fill="#fff" class="Rectangle_8" rx="2.957"/>
        <rect width="79.258" height="5.915" x="658.668" y="280.328" fill="#fff" class="Rectangle_9" rx="2.957"/>
        <rect width="22.476" height="22.476" x="625.545" y="266.133" fill="#fff" class="Rectangle 2_4" rx="3.549"/>
      </g>
      <path stroke="#297A70" stroke-width="3.549" d="M630.277 151.387l5.915 4.732 8.872-13.013" class="Vector"/>
      <path stroke="#297A70" stroke-width="3.549" d="M630.277 193.973l5.915 4.732 8.872-13.012" class="Vector_2"/>
    </g>
    <g class="Group 4.3">
      <rect width="205.833" height="203.467" x="356.833" y="156.167" fill="#000" fill-opacity=".06" class="Rectangle_10" rx="11.829"/>
      <g class="Group 3_2">
        <rect width="144.32" height="5.915" x="405.334" y="185.741" fill="#fff" class="Rectangle_11" rx="2.957"/>
        <rect width="79.258" height="5.915" x="405.334" y="197.57" fill="#fff" class="Rectangle_12" rx="2.957"/>
        <rect width="22.476" height="22.476" x="372.212" y="183.375" fill="#fff" class="Rectangle 2_5" rx="3.549"/>
      </g>
      <g class="Group 3.1_2">
        <rect width="144.32" height="5.915" x="405.334" y="228.327" fill="#fff" class="Rectangle_13" rx="2.957"/>
        <rect width="79.258" height="5.915" x="405.334" y="240.156" fill="#fff" class="Rectangle_14" rx="2.957"/>
        <rect width="22.476" height="22.476" x="372.212" y="225.961" fill="#fff" class="Rectangle 2_6" rx="3.549"/>
      </g>
      <g class="Group 3.2_2">
        <rect width="144.32" height="5.915" x="405.334" y="270.913" fill="#fff" class="Rectangle_15" rx="2.957"/>
        <rect width="79.258" height="5.915" x="405.334" y="282.742" fill="#fff" class="Rectangle_16" rx="2.957"/>
        <rect width="22.476" height="22.476" x="372.212" y="268.547" fill="#fff" class="Rectangle 2_7" rx="3.549"/>
      </g>
      <g class="Group 3.3_2">
        <rect width="144.32" height="5.915" x="405.334" y="313.499" fill="#fff" class="Rectangle_17" rx="2.957"/>
        <rect width="79.258" height="5.915" x="405.334" y="325.328" fill="#fff" class="Rectangle_18" rx="2.957"/>
        <rect width="22.476" height="22.476" x="372.212" y="311.133" fill="#fff" class="Rectangle 2_8" rx="3.549"/>
      </g>
      <path stroke="#297A70" stroke-width="3.549" d="M376.943 196.387l5.915 4.732 8.872-13.013" class="Vector_3"/>
      <path stroke="#297A70" stroke-width="3.549" d="M376.943 238.973l5.915 4.732 8.872-13.012" class="Vector_4"/>
      <path stroke="#297A70" stroke-width="3.549" d="M376 280.281l5.915 4.732L390.787 272" class="Vector_5"/>
      <path stroke="#297A70" stroke-width="3.549" d="M375.057 321.588l5.914 4.732 8.872-13.013" class="Vector_6"/>
    </g>
    <g class="Group 2.1">
      <path fill="#A36A6A" fill-rule="evenodd" d="M548.386 126.539s-.331-16.471-2.498-26.44c-1.401-6.444-5.851-6.3-11.189-6.127-.891.029-1.806.059-2.735.059-18.203 0-33.974 12.083-26.005 39.01 1.136 3.837 3.153 6.542 5.433 8.448l2.984 19.769v8.683h22.274v-7.551l-1.752-16.346h2.129c6.353 0 11.099-13.003 11.359-19.505zm91.286 91.963s16.667-32.942 16.667-27.084c0 8.75-3.334 14.584-3.334 14.584l9.167 7.916c.833 5.834-7.083 11.25-12.083 14.167l-7.917 8.75-10.833-4.167 8.333-14.166zm-63.75 387.5l-1.667-22.917h13.75v22.917h-12.083zm-75.417-22.917l1.667 22.917h12.083v-22.917h-13.75z" class="Union" clip-rule="evenodd"/>
      <path fill="#CD7373" fill-rule="evenodd" d="M545.888 100.099c2.167 9.969 2.498 26.44 2.498 26.44-.26 6.502-5.006 19.505-11.359 19.505h-2.129l1.752 16.346v7.551h-22.274v-8.683l-2.984-19.769c-2.28-1.906-4.297-4.611-5.433-8.448-7.969-26.927 7.802-39.01 26.005-39.01.929 0 1.844-.03 2.735-.059 5.338-.173 9.788-.317 11.189 6.127zm110.451 91.319c0-5.858-16.667 27.084-16.667 27.084l-8.333 14.166 10.833 4.167 7.917-8.75c5-2.917 12.916-8.333 12.083-14.167l-9.167-7.916s3.334-5.834 3.334-14.584zM500.505 583.085l1.667 22.917h12.083v-22.917h-13.75z" class="Union_2" clip-rule="evenodd"/>
      <path fill="#000" fill-opacity=".22" d="M575.922 606.418l-1.25-23.333h5l.833 23.333h-4.583z" class="Vector 5"/>
      <path fill="#000" fill-opacity=".22" d="M502.589 609.752l-1.667-23.334h5.417l.833 23.334h-4.583z" class="Vector 5.1"/>
      <path fill="#3FADCF" d="M490.922 458.085c-5.417-92.5-4.167-133.333-4.167-133.333s31.258 3.927 45.834 3.333c21 1.018 36.25-16.25 36.25-16.25l15.416 146.25s5.495 78.498 10.495 132.916c-3.75 5-20.911 5.417-25.494 0l-22.084-132.916-19.167-73.333v73.333l-6.666 132.916c-11.003 6.212-16.088 6.148-26.25 0l-4.167-132.916z" class="Vector 4"/>
      <path fill="#000" fill-opacity=".12" d="M510.505 379.335c-.61-21.609-23.75-50-23.75-50 0 27.5 2.5 150 8.334 257.916 0 0 16.616-5.894 15.416-13.75-12.083-79.166 2.084-120.416 0-194.166z" class="Vector 7"/>
      <path fill="#FF6969" fill-rule="evenodd" d="M470.954 176.224l32.051-21.889c12.857-4.286 19.454-2.833 26.807-1.214 1.941.427 3.935.866 6.11 1.214l33.463 16.731a7.355 7.355 0 013.453 3.6c10.957 24.832 28.579 75.919 28.579 75.919l33.672-32.084c10.416 0 16.388 8.75 16.666 16.25-5.666 15.667-50.338 59.728-60.755 52.5-18.848-13.078-24.742-42.963-29.361-66.382v-.002c-.385-1.949-.76-3.853-1.134-5.699 0 0 4.732 43.342 7.917 64.583 2.423 16.161 0 34.584 0 34.584-7.917 21.832-65.417 19.332-81.667 11.25l-6.25-38.334c-27.765-45.494-20.885-71.92-15.152-93.94 1.175-4.515 2.303-8.845 3.073-13.116.29-1.606 1.18-3.051 2.528-3.971zm103.347 446.027l-.506-1.243c-2.905-7.115-3.091-7.57.506-16.257 0 0 4.503 1.221 7.454 1.25 3.137.031 7.935-1.25 7.935-1.25 6.538 3.614 14.764 5.587 20.862 7.049 3.321.797 6.011 1.442 7.453 2.118 11.718 5.497-11.588 9.749-18.216 8.333h-25.488zm-75.012-1.412c.181.443.374.913.576 1.412h25.488c.44 0 .95.004 1.513.009 7.636.059 25.212.195 16.703-8.342-1.287-1.291-6.028-2.527-11.704-4.007-5.415-1.411-11.681-3.045-16.611-5.16 0 0-4.798 1.281-7.935 1.25-2.951-.029-7.454-1.25-7.454-1.25-3.633 8.618-3.422 9.134-.576 16.088z" class="Union_3" clip-rule="evenodd"/>
      <path stroke="#000" stroke-linecap="round" stroke-opacity=".29" stroke-width=".833" d="M480.922 287.668s-1.343-23.098-1.667-37.916c-.319-14.642 0-37.5 0-37.5" class="Vector 6"/>
      <path fill="#000" stroke="#000" stroke-width=".762" d="M529.672 140.585l-7.005 5.165c-3.776.492-7.084 0-7.084 0l-5.078-2.414s-13.176-28.593-11.27-36.218c1.906-7.625 2.531-11.122 7.625-16.012 5.809-5.576 18.333-6.243 18.333-6.243s32.275-15.75 33.549-2.668c.633 6.5-1.861 9.906-6.862 14.106-6.422 5.392-21.35 3.43-21.35 3.43s6.38 17.802 0 23.936c-4.505 4.332-.858 16.918-.858 16.918z" class="Vector 5_2"/>
      <g class="Group 2">
        <path stroke="#000" stroke-width=".833" d="M574.255 621.835c14.723 1.111 44.834 1.917 45.834-3.75" class="Vector 8"/>
        <path fill="#000" fill-opacity=".22" d="M612.25 615.333l-20.417-4.583v-5l4.584 2.083c7.5 2.5 10 2.917 19.583 5.417l-3.75 2.083z" class="Vector 9"/>
      </g>
      <g class="Group">
        <path stroke="#000" stroke-width=".833" d="M499.672 621.835c14.722 1.111 44.833 1.917 45.833-3.75" class="Vector 8.1"/>
        <path fill="#000" fill-opacity=".22" d="M537.25 615.333l-20.417-4.583v-5.417l2.917 1.25c9.167 2.5 11.667 2.917 21.25 5.834l-3.75 2.916z" class="Vector 9.1"/>
      </g>
      <path fill="#000" fill-opacity=".21" d="M556.339 469.752c-3.041-28.586-28.75-86.667-28.75-86.667l20 76.667 20 120.833s4.721 1.729 6.666 0c11.25-10-13.75-71.667-17.916-110.833z" class="Vector 8_2"/>
    </g>
    <g class="Group 10.1">
      <g class="Group 9">
        <g class="Group 8.2">
          <path fill="#4671A4" d="M414.804 589.528c-24.635-31.497-60.309-110.766-5.919-175.861 18.856 33.316 46.438 115.132 5.919 175.861z" class="Vector 3"/>
          <path fill="#0D0D0D" fill-opacity=".12" d="M414.804 589.528c-8.236-46.467-21.44-146.753-5.672-175.434 18.735 33.765 46.638 116.268 5.672 175.434z" class="Vector 4_2"/>
        </g>
        <g class="Group 8">
          <path fill="#3675A3" d="M409.75 607.833c-4.722-33.472 2.667-106.583 70-131.25-.278 32.361-14.667 103.917-70 131.25z" class="Vector 3_2"/>
          <path fill="#0D0D0D" fill-opacity=".12" d="M409.75 607.833c13.611-37.5 46.333-116.5 70-130.833-.556 32.639-15 104.833-70 130.833z" class="Vector 4_3"/>
        </g>
        <g class="Group 8.1">
          <path fill="#3A91C2" d="M410.974 608.723c3.54-25.092-1.999-79.899-52.474-98.39.208 24.259 10.995 77.9 52.474 98.39z" class="Vector 3_3"/>
          <path fill="#0D0D0D" fill-opacity=".12" d="M410.974 608.722c-10.203-28.111-34.733-87.332-52.474-98.076.416 24.467 11.244 78.586 52.474 98.076z" class="Vector 4_4"/>
        </g>
      </g>
      <g class="Group 7">
        <path fill="#C7E1FF" d="M438.917 596.167H366l13.333 26.25h74.584L466 596.167h-27.083z" class="Vector_7"/>
        <path fill="#000" fill-opacity=".07" d="M429.75 622.417l9.167-26.25H466l-12.083 26.25H429.75z" class="Vector 2"/>
      </g>
    </g>
  </g>
</svg>
