<svg xmlns="http://www.w3.org/2000/svg" width="1152" height="700" fill="none" viewBox="0 0 1152 700">
  <g class="task">
    <path fill="#fff" d="M0 0h1152v700H0z"/>
    <path fill="#ECE6E6" d="M489.254 137.494c155.73 62.254 336.603-52.628 456.464 19.792 119.862 105.706-122.565 170.479-122.565 291.478 0 105.26-539.826 227.605-628.595 16.643-88.769-210.961 100.035-405.73 294.696-327.913z" class="Vector 10"/>
    <path fill="#FFCB56" d="M868.143 453.126c-13.71-3.517-24.004-6.107-36.143 4.278 12.627 2.405 32.178 5.842 49.943 8.368 12.267 10.189 38.377 30.7 44.686 31.228-6.938-5.719-20.77-19.402-20.593-28.377 7.133.587 12.643.676 15.335 0-1.448-2.364-7.687-7.043-21.685-9.787-8.543-8.836-28.389-25.585-39.429-21.89l-1.314-2.64c15.552 1.32 51.783 9.899 72.286 33.657-1.024-6.819-7.495-22.438-25.193-30.357-17.697-7.919-33.512-9.459-39.207-9.239 8.981-1.32 31.28-2.244 48.628 4.62 21.686 8.579 29.572 10.558 51.257 51.474 1.315-13.418-.131-42.235-16.428-50.155-20.372-9.899-50.6-15.178-75.572-10.559 28.476-7.919 87.4-28.245 95.286-46.195-3.067.22-13.406 2.508-30.229 9.899-16.822 7.391-42.495 21.118-53.228 27.057 10.733-7.259 33.383-24.813 38.114-36.956 4.732-12.143 21.686-56.094 29.572-76.552-12.048 10.779-38.64 39.728-48.629 69.293-9.989 29.565-21.686 38.276-26.286 38.936 5.257-23.538 14.326-75.628 8.543-95.69-4.819 19.138-14.588 64.805-15.114 94.37-.438 4.18-2.892 13.595-9.2 17.818 3.286-17.158 6.966-55.566-4.6-71.932-1.314 14.738-3.549 46.987-1.972 58.074 1.972 13.858-5.257 27.717-5.914 25.077-.657-2.64 5.914-50.155-6.571-80.512-3.943 21.884-10.252 68.756-3.943 81.172 1.314 1.32 3.154 4.884 0 8.579-3.154 3.696 3.943-.66 7.886-3.299 6.352 1.987 19.188 6.818 19.714 10.24z" class="plant"/>
    <g class="plant_2">
      <path fill="#FFEEC7" d="M160.991 176.36c-9.147 2.596-16.493 18.443-19.023 26.041-1.622 2.502-5.186 5.858-6.459-.725-1.593-8.229-9.092-17.623-14.502-18.734-1.331 5.889-2.549 18.23 3.236 20.489 7.23 2.824 14.339 15.697 6.226 11.768-8.112-3.93-10.916-14.81-29.691-13.395 1.4 5.859 7.915 19.202 22.776 25.7 18.576 8.122 14.886 19.784 5.01 13.644-9.877-6.14-18.756-16.696-36.481-15.666 1.317 7.695 6.788 23.806 18.137 26.689 14.186 3.605 36.815 12.685 32.668 18.257-4.148 5.572-28.09-14.221-39.574-15.007-9.187-.628-15.57-.237-17.613.036 1.482 7.714 8.996 23.852 27.192 26.699 22.745 3.559 43.665 9.932 36.866 16.716-6.799 6.784-21.742-12.503-40.79-13.131-15.24-.503-18.278 1.471-17.893 2.52 1.797 6.407 10.767 19.724 32.277 21.735 26.888 2.514 36.82 8.157 32.617 14.226-4.203 6.07-21.848-16.036-53.054-6.959 2.956 6.537 12.457 19.913 26.811 21.121 17.944 1.511 43.944 7.447 39.462 16.001-4.482 8.553-23.952-10.738-42.285-8.771-14.667 1.575-14.69 2.377-12.869 2.582.694 5.78 5.745 17.852 20.409 19.9 18.328 2.559 52.446 7.897 49.673 19.158-2.773 11.261-16.118-4.324-28.15-9.196-9.626-3.898-24.329-2.898-30.477-1.911 2.937 6.703 11.805 20.344 23.775 21.284 14.962 1.176 49.516 11.594 48.735 18.551-.781 6.956-16.012-.791-24.677-4.279s-21.579-9.465-34.062-5.835c.453 6.424 5.732 19.763 23.223 21.726 21.862 2.453 40.856 3.578 39.852 12.522-1.004 8.944-7.946-5.42-25.174-4.334-13.783.868-20.47 3.069-22.091 4.061 2.111 5.101 9.37 15.14 21.519 14.49 15.185-.811 37.823-.787 35.937 7.052-1.886 7.839-15.18-3.716-23.353-2.621-6.539.877-14.359 2.414-17.451 3.073 1.098 5.155 9.525 14.654 34.442 11.412 4.546-.16 13.229.479 11.59 4.32-2.048 4.801-19.322-2.672-25.234.69.659 3.093 4.021 9.005 12.194 7.909 8.173-1.095 19.228 5.009 23.734 8.198.282-2.316 1.548-7.876 4.352-11.587 1.355-3.971 4.188-8.717 8.87-12.086 11.494-8.27 13.167-23.176 9.688-23.567-3.478-.39-13.05 17.655-16.969 16.712-3.919-.943 2.774-11.261 10.181-18.983 5.925-6.178 6.575-21.232 6.159-27.987-3.556 3.29-11.177 11.726-13.217 19.145l-.149.541c-2.472 8.996-4.269 15.537-8.977 13.529-4.802-2.048 3.995-17.665 12.401-29.803 6.725-9.711 5.255-25.909 3.68-32.794-2.635 2.555-8.856 8.968-12.66 14.177-4.756 6.51-7.042 26.882-11.62 22.846-4.579-4.036 8.197-23.734 17.602-40.288 7.524-13.244 2.938-27.678-.295-33.24-3.278 2.315-9.871 9.055-10.013 17.492-.177 10.546-8.765 37.758-15.22 32.506-6.454-5.253 11.691-36.927 16.122-49.511 3.545-10.068-1.19-22.272-4.001-27.116-4.421 3.529-8.183 10.151-11.23 19.369-3.047 9.218-8.542 35.77-16.209 27.866-7.666-7.904 11.909-34.386 20.315-46.525 6.725-9.71 3.931-26.057 1.693-33.017-3.757 2.094-15.256 14.892-17.75 23.668-2.495 8.777-10.637 32.014-15.707 23.395-5.071-8.619 15.772-32.947 23.185-45.197 5.929-9.8 3.967-26.389 2.245-33.458-14.425 11.966-19.408 24.992-20.245 32.445-.836 7.453-10.028 31.075-14.495 26.046-4.467-5.03 7.767-33.342 18.379-42.717 8.489-7.5 9.597-24.248 9.09-31.684-2.099.771-20.889 15.769-21.558 21.731-.669 5.963-4.213 15.125-10.186 23.511-5.972 8.387-8.32-15.524 10.855-29.473 15.34-11.159 17.133-31.62 16.112-40.456-30.451 24.759-14.83 29.028-30.745 40.826-15.915 11.799-6.171-12.264 8.583-22.684 11.804-8.336 15.143-28.824 15.337-38.027-12.534-.4-22.78 28.135-32.231 36.131-9.45 7.996-9.709-7.63 5.765-19.982 12.379-9.881 14.459-27.224 13.952-34.66-9.279 1.978-15.251 10.364-22.004 25.707-6.753 15.342-12.097 4.68-4.356-6.024 6.194-8.562 7.789-20.09 7.813-24.783z" class="Vector 3"/>
      <path fill="#FFCB56" d="M173.899 339.316c40.387 79.5 49.834 125.339 54.55 155.05.282-2.316 1.548-7.876 4.352-11.587 1.355-3.971 4.188-8.717 8.87-12.086 11.494-8.27 13.167-23.176 9.688-23.567-3.478-.39-13.05 17.655-16.969 16.712-3.919-.943 2.774-11.261 10.181-18.983 5.925-6.178 6.575-21.232 6.159-27.987-3.556 3.29-11.177 11.726-13.217 19.145l-.149.541c-2.472 8.996-4.269 15.537-8.977 13.529-4.802-2.048 3.995-17.665 12.401-29.803 6.725-9.711 5.255-25.909 3.68-32.794-2.635 2.555-8.856 8.968-12.66 14.177-4.756 6.51-7.042 26.882-11.62 22.846-4.579-4.036 8.197-23.734 17.602-40.288 7.524-13.244 2.938-27.678-.295-33.24-3.278 2.315-9.871 9.055-10.013 17.492-.177 10.546-8.765 37.758-15.22 32.506-6.454-5.253 11.691-36.927 16.122-49.511 3.545-10.068-1.19-22.272-4.001-27.116-4.421 3.529-8.183 10.151-11.23 19.369-3.047 9.218-8.542 35.77-16.209 27.866-7.666-7.904 11.909-34.386 20.315-46.525 6.725-9.71 3.931-26.057 1.693-33.017-3.757 2.094-15.256 14.892-17.75 23.668-2.495 8.777-10.637 32.014-15.707 23.395-5.071-8.619 15.772-32.947 23.185-45.197 5.929-9.8 3.967-26.389 2.245-33.458-14.425 11.966-19.408 24.992-20.245 32.445-.836 7.453-10.028 31.075-14.495 26.046-4.467-5.03 7.767-33.342 18.379-42.717 8.489-7.5 9.597-24.248 9.09-31.684-2.099.771-20.889 15.769-21.558 21.731-.669 5.963-4.213 15.125-10.186 23.511-5.972 8.387-8.32-15.524 10.855-29.473 15.34-11.159 17.133-31.62 16.112-40.456-30.451 24.759-14.83 29.028-30.745 40.826-15.915 11.799-6.171-12.264 8.583-22.684 11.804-8.336 15.143-28.824 15.337-38.027-12.534-.4-22.78 28.135-32.231 36.131-9.45 7.996-9.709-7.63 5.765-19.982 12.379-9.881 14.459-27.224 13.952-34.66-9.279 1.978-15.251 10.364-22.004 25.707-6.753 15.342-12.097 4.68-4.356-6.024 6.194-8.562 7.789-20.09 7.813-24.783-9.147 2.596-16.493 18.443-19.023 26.041-2.818 19.139-.378 73.315 31.931 136.915z" class="Vector 3.1"/>
    </g>
    <g class="Mask Group">
      <g class="Group">
        <g class="post it notes">
          <g class="post it 3">
            <path fill="#7D8CA6" d="M631 323.5l166 7c4.8-24.8-9.333-109.333-17-148.5l-149-5.5v147z" class="Vector 6.1"/>
            <path fill="#F1F1F1" d="M618 320.5v-156l166 5c6 61.5-1 130-25.5 146-19.6 12.8-101.833 8.667-140.5 5z" class="Vector 3.1_2"/>
            <path fill="#EE7E79" d="M702 167a9 9 0 01-9-9 9 9 0 019-9 9 9 0 019 9 9.003 9.003 0 01-6 8.488l-1 5.012-2-4.5z" class="color 2"/>
            <ellipse cx="717.033" cy="172.562" fill="#C4B7B6" class="Ellipse 2.10" rx="9" ry="4.5" transform="rotate(22.157 717.033 172.562)"/>
          </g>
          <g class="post it 4">
            <path fill="#7D8CA6" d="M941 311.5c-18.8 12-100.5 1-139-6 4-19.2 1.667-97 0-133.5h149.5c3.5 27 13 124.5-10.5 139.5z" class="Vector 7.2"/>
            <path fill="#DAE4FA" d="M794 315V162.5h160c2.167 32.333 5.2 98.5 0 104.5-6.5 7.5-33.5 40.5-50 48H794z" class="color 1"/>
            <path fill="#EE7E79" d="M879.5 167a9 9 0 01-9-9 9 9 0 019-9 9 9 0 019 9 9.003 9.003 0 01-6 8.488l-1 5.012-2-4.5z" class="color 2_2"/>
            <ellipse cx="894.533" cy="172.562" fill="#C4B7B6" class="Ellipse 2.11" rx="9" ry="4.5" transform="rotate(22.157 894.533 172.562)"/>
            <path fill="#A4C3FE" d="M904 315c16.5-7.5 43.5-40.5 50-48-15.6 2.4-29.5 1-34.5 0 0 18.8-10.333 39.833-15.5 48z" class="Vector 4.3"/>
          </g>
          <g class="post it 6">
            <path fill="#7D8CA6" d="M637 488.5c-17.2 8.8-108.5 3.667-152 0L477 355l134.5-14.5c16.8 13.6 24 104.333 25.5 148z" class="Vector 8.2"/>
            <path fill="#EDF3FF" d="M475.5 497.5l-17-150 156-18.5c15.2 66.8 15 127.167 13 149-16 10.8-108 17.5-152 19.5z" class="Vector 5.2"/>
            <path fill="#EE7E79" d="M534 345.5a9 9 0 01-9-9 9 9 0 019-9 9 9 0 019 9 9.003 9.003 0 01-6 8.488L536 350l-2-4.5z" class="color 2_3"/>
            <ellipse cx="549.033" cy="351.062" fill="#C4B7B6" class="Ellipse 2.14" rx="9" ry="4.5" transform="rotate(22.157 549.033 351.062)"/>
          </g>
          <g class="post it 1">
            <path fill="#7D8CA6" d="M452.5 323c-30 10.8-110.833 1.167-147.5-5 9.6-15.6 4-107.5 0-151.5L449 177l3.5 146z" class="Vector 6.3"/>
            <path fill="#DAE4FA" d="M285.5 301c11.6-18.8 13.833-103.5 13.5-143.5l154.5 11c-1.667 39-5.7 120.8-8.5 136-1.296 7.034-2.499 7.843-3.5 5.807-27.2 4.646-115.333-4.269-156-9.307z" class="color 1_2"/>
            <path fill="#A4C3FE" d="M439 297l-153.5 4c40.667 5.038 128.8 13.953 156 9.307-1.162-2.364-2.052-8.562-2.5-13.307z" class="Vector"/>
            <path fill="#EE7E79" d="M374 173.5a9 9 0 01-9-9 9 9 0 019-9 9 9 0 019 9 9.003 9.003 0 01-6 8.488L376 178l-2-4.5z" class="color 2_4"/>
            <ellipse cx="389.033" cy="179.062" fill="#C4B7B6" class="Ellipse 2.8" rx="9" ry="4.5" transform="rotate(22.157 389.033 179.062)"/>
            <path stroke="#8A6564" d="M316.5 191h114v9h-114z" class="Rectangle"/>
            <path stroke="#8A6564" d="M316.5 214h114v9h-114z" class="Rectangle_2"/>
            <path fill="url(#paint0_linear)" d="M316 239.5h23v28h-23z" class="Rectangle_3"/>
            <path fill="url(#paint1_linear)" d="M358 239.5h23v28h-23z" class="Rectangle_4"/>
            <path fill="url(#paint2_linear)" d="M400 239.5h23v28h-23z" class="Rectangle_5"/>
          </g>
          <g class="post it 8">
            <path fill="#7D8CA6" d="M920.5 549c-8.4-7.6-92.5-10.833-133.5-11.5l-7.5-145 147 7c11.2 35.2.667 114.333-6 149.5z" class="Vector 9.1"/>
            <path fill="#EDF3FF" d="M769.5 543l3-159 157 3c-.667 36-3 109.6-7 116-5 8-11 30.5-26.5 40H769.5z" class="Vector 5.3"/>
            <path fill="#A4C3FE" d="M896 543c15.5-9.5 21.5-32 26.5-40-7.2 10.4-17.667 16-22 17.5 1.6 6.8-2.333 17.833-4.5 22.5z" class="Vector 5.4"/>
            <path fill="#EE7E79" d="M854 394.5a9 9 0 01-9-9 9 9 0 019-9 9 9 0 019 9 9.003 9.003 0 01-6 8.488L856 399l-2-4.5z" class="color 2_5"/>
            <ellipse cx="869.033" cy="400.062" fill="#C4B7B6" class="Ellipse 2.12" rx="9" ry="4.5" transform="rotate(22.157 869.033 400.062)"/>
            <path stroke="#8A6564" d="M796.5 414h114v9h-114z" class="Rectangle_6"/>
            <path stroke="#8A6564" d="M796.5 437h114v9h-114z" class="Rectangle_7"/>
            <path fill="url(#paint3_linear)" d="M796 462.5h23v28h-23z" class="Rectangle_8"/>
            <path fill="url(#paint4_linear)" d="M838 462.5h23v28h-23z" class="Rectangle_9"/>
            <path fill="url(#paint5_linear)" d="M880 462.5h23v28h-23z" class="Rectangle_10"/>
          </g>
          <g class="post it 7">
            <path fill="#7D8CA6" d="M777 527c-66.4-23.6-133-7.833-158 3 6.4-8 2.667-106.667 0-155l140.5 6c8.8 18.8 15.333 105.167 17.5 146z" class="Vector 8.1"/>
            <path fill="#DAE4FA" d="M768.5 511.5c-14 6.4-110.833 5.333-157.5 4 6.8-11.2 2.833-107 0-153.5h155c2 12 2.5 104.667 2.5 149.5z" class="color 1_3"/>
            <path fill="#EE7E79" d="M699 368.5a9 9 0 01-9-9 9 9 0 019-9 9 9 0 019 9 9.003 9.003 0 01-6 8.488L701 373l-2-4.5z" class="color 2_6"/>
            <ellipse cx="714.033" cy="374.062" fill="#C4B7B6" class="Ellipse 2.13" rx="9" ry="4.5" transform="rotate(22.157 714.033 374.062)"/>
            <path fill="url(#paint6_linear)" d="M645 392.5h23v28h-23z" class="Rectangle_11"/>
            <path stroke="#8A6564" d="M685.5 403h66v7h-66z" class="Rectangle_12"/>
            <path fill="url(#paint7_linear)" d="M708 445.5h45v53h-45z" class="Rectangle_13"/>
          </g>
          <g class="post it 2">
            <path fill="#7D8CA6" d="M624.5 287.5c-34.4 3.2-111.667 20.333-146 28.5 7.6-20.4-8.167-104.833-17-144.5l132-25c4.4 12.4 22.5 99.167 31 141z" class="Vector 6.2"/>
            <path fill="#EDF3FF" d="M462 301.5l-27-145L592.5 131c4.4 10 13.5 97.167 17.5 139.5-6.8-5.2-101.5 18.5-148 31z" class="Vector 2.1"/>
            <path fill="#EE7E79" d="M518.5 149.5a9 9 0 01-9-9 9 9 0 019-9 9 9 0 019 9 9.003 9.003 0 01-6 8.488l-1 5.012-2-4.5z" class="color 2_7"/>
            <ellipse cx="533.533" cy="155.062" fill="#C4B7B6" class="Ellipse 2.9" rx="9" ry="4.5" transform="rotate(22.157 533.533 155.062)"/>
            <path stroke="#8A6564" d="M473.131 183.013l108.031-21.433.789 3.972-108.032 21.434z" class="Rectangle_14"/>
            <path stroke="#8A6564" d="M475.088 196.521l108.031-21.433.789 3.972-108.032 21.434z" class="Rectangle_15"/>
            <path stroke="#8A6564" d="M479.088 211.521l108.031-21.433.789 3.972-108.032 21.434z" class="Rectangle_16"/>
          </g>
          <g class="post it 5">
            <path fill="#7D8CA6" d="M462.5 532L307 500.5 330.5 358l139 21.5-7 152.5z" class="Vector 7.1"/>
            <path fill="#F1F1F1" d="M298.5 496L324 350l153.5 23.5-25.5 146L298.5 496z" class="Vector 4.2"/>
            <path fill="#EE7E79" d="M400 371.5a9 9 0 01-9-9 9 9 0 019-9 9 9 0 019 9 9.003 9.003 0 01-6 8.488L402 376l-2-4.5z" class="color 2_8"/>
            <ellipse cx="415.033" cy="377.062" fill="#C4B7B6" class="Ellipse 2.15" rx="9" ry="4.5" transform="rotate(22.157 415.033 377.062)"/>
            <path stroke="#8A6564" d="M336.76 406.015l110.086 3.343-.123 4.048-110.086-3.343z" class="Rectangle_17"/>
            <path stroke="#8A6564" d="M335.637 419.617l110.086 3.343-.123 4.048-110.086-3.343z" class="Rectangle_18"/>
            <path stroke="#8A6564" d="M336.172 435.133l110.086 3.343-.123 4.048-110.086-3.343z" class="Rectangle_19"/>
          </g>
        </g>
        <g class="man">
          <path fill="#4B5361" d="M231.384 336.501c0 2.487 3.627 1.036 5.44 0 1.814-2.073 5.596-7.15 6.218-10.881.777-4.663-3.109-3.886-1.555-6.217 1.555-2.332 6.289-5.854 5.512-14.403-.777-8.549-3.957-6.158-6.289-6.158-2.331 0 0 3.886-5.44 3.886s-3.886 3.886-3.886 7.772-3.776-3.109-6.885 0-7.615 5.261-3.5 8.903c3.5 3.097 3 4.097 6.499 9.326 2.629 3.929 3.886 4.663 3.886 7.772z" class="Vector 8"/>
          <g class="Vector 7">
            <path fill="#8A6564" d="M316.875 300.75c-3.73 8.083-26.424 24.093-37.305 31.088-4.352 8.704 1.814 11.917 5.441 12.435 28.756-13.213 34.196-38.86 38.082-39.637 3.886-.777 6.994-6.995 6.994-10.88 0-3.886 3.109-6.218 4.664-12.435 1.554-6.218-4.664-6.218-4.664-3.886 0 2.331-8.549 13.212-13.212 23.315zM204.183 390.904c-1.243-3.109 4.145-11.14 6.995-14.767 7.461 0 13.989 9.845 16.321 14.767-.259 3.109-1.555 9.326-4.663 9.326-3.886 0-17.098-5.44-18.653-9.326zM251.592 330.283c0 3.109-3.627 8.549-5.441 10.881-.777 1.041-10.88 0-10.88-2.332 0-2.331 7.772-12.435 5.44-14.766-2.332-2.332-3.886-4.663-3.109-6.995.622-1.865 2.332-1.813 3.109-1.554 0-6.218 1.554-7.254 2.332-6.995 5.44 1.554 8.549 17.875 8.549 21.761z"/>
          </g>
          <path fill="#4B5361" d="M268.691 582.755c-3.109-3.731-.778-10.881.777-13.99 5.44 6.218 5.44 0 10.88 0 5.441 0 17.098 4.663 17.098 6.995s-24.87 11.658-28.755 6.995z" class="Vector 6"/>
          <path fill="#4B5361" d="M225.167 568.765c-3.73-3.108-1.554-8.549 0-10.88 4.663 6.217 4.663 2.331 12.435-1.554 6.218-3.109 8.808-1.296 9.326 0-.777 5.44-17.098 16.32-21.761 12.434z" class="Vector 5"/>
          <path fill="url(#paint8_linear)" d="M214.287 435.981c-3.108-8.083.26-19.948 2.332-24.87.918-2.487 27.843 2.072 41.191 4.663 10.103 6.217 37.305 73.055 40.414 76.164 2.487 2.487-8.29 52.33-13.99 76.941-5.596 1.866-13.73-1.813-17.098-3.886-1.243-6.217 5.181-47.149 8.549-66.838-6.839-6.839-19.429-26.165-24.87-34.973 6.218 10.103 5.441 29.533 5.441 38.859 0 7.461-10.881 39.896-16.321 55.181-6.218 3.108-13.472.259-16.321-1.555 0-5.44 10.88-48.963 11.657-61.397.778-12.435-17.098-48.186-20.984-58.289z" class="Vector 4"/>
          <path fill="url(#paint9_linear)" d="M212.733 366.034c0-13.057 15.544-23.575 23.316-27.202 7.975-4.663 13.989 6.218 22.538 0 6.839-4.974 18.393-9.844 23.316-11.657l4.663 22.538-12.435 12.435c0 11.658-6.995 42.745-15.544 52.071-6.839 7.461-30.828 1.037-41.968-3.108 4.461-15.615 3.765-22.871 1.825-27.979l-12.706-6.218 6.995-10.88z" class="color 2_9"/>
        </g>
        <g class="plant_3">
          <g class="Vector 5_2">
            <path fill="#FFCB56" d="M809.195 593.017c-8.526-4.263-26.492-15.712-30.146-27.405 7.917 4.872 25.03 17.174 30.146 27.405zM813.763 590.277c-14.617-15.53-44.032-48.051-44.763-53.898 9.135 1.523 30.877 14.434 44.763 53.898-3.35-15.53-12.79-50.061-23.752-63.947 6.395 2.436 20.098 9.684 23.752 19.184 3.654 9.501 1.522 33.801 0 44.763z"/>
          </g>
          <path fill="#8A6564" d="M832.033 593.931c-.609 8.831-3.655 27.041-10.963 29.233-9.135 2.741-14.616-1.827-14.616-5.481 0-2.923-1.827-17.053-2.741-23.752-.913-.913-2.375-3.288-.913-5.481 8.831.609 27.04 1.462 29.233 0 2.74-1.827 1.827 4.954 0 5.481z" class="Vector 3_2"/>
          <g class="Vector 4_2">
            <path fill="#FADB96" d="M818.331 592.104c-9.44-16.139-28.319-50.609-28.319-59.379 11.267 7.004 32.704 28.685 28.319 59.379zM861.267 573.833c-29.233.731-36.541 12.485-36.541 18.271-.604-3.621-.665-6.97-.283-10.049-5.996-14.616-14.882-46.772-2.458-58.465a35.042 35.042 0 012.458-2.11c-2.647-11.782-2.275-37.172 20.38-44.48-5.786 6.09-16.809 20.098-14.616 27.406 2.74-5.481 10.231-15.53 18.27-11.876-4.872 2.446-14.616 8.976-14.616 15.53 3.958-3.959 14.982-10.414 27.406-4.568-9.44 1.199-28.137 5.428-27.406 12.76 12.99-4.762 26.015-.924 27.406 1.857-10.847-.305-33.397 1.827-36.824 12.789 10.752-5.177 35.727-12.789 49.613-1.827-17.357.304-52.071 4.567-52.071 19.184 17.052-7.004 57.369-18.088 82.217-6.395-26.681-1.218-79.986 5.116-79.759 40.195 2.508-20.224 24.138-28.75 36.824-25.578 11.693 2.923 33.495 3.654 42.935 3.654-2.131 4.263-13.703 12.972-42.935 13.702z"/>
          </g>
        </g>
      </g>
    </g>
  </g>
  <defs>
    <linearGradient id="paint0_linear" x1="327.5" x2="327.5" y1="239.5" y2="267.5" class="paint0_linear" gradientUnits="userSpaceOnUse">
      <stop stop-color="#FFCB56"/>
      <stop offset="1" stop-color="#FADB96" stop-opacity="0"/>
    </linearGradient>
    <linearGradient id="paint1_linear" x1="369.5" x2="369.5" y1="239.5" y2="267.5" class="paint1_linear" gradientUnits="userSpaceOnUse">
      <stop stop-color="#FFCB56"/>
      <stop offset="1" stop-color="#FADB96" stop-opacity="0"/>
    </linearGradient>
    <linearGradient id="paint2_linear" x1="411.5" x2="411.5" y1="239.5" y2="267.5" class="paint2_linear" gradientUnits="userSpaceOnUse">
      <stop stop-color="#FFCB56"/>
      <stop offset="1" stop-color="#FADB96" stop-opacity="0"/>
    </linearGradient>
    <linearGradient id="paint3_linear" x1="807.5" x2="807.5" y1="462.5" y2="490.5" class="paint3_linear" gradientUnits="userSpaceOnUse">
      <stop stop-color="#FFCB56"/>
      <stop offset="1" stop-color="#FADB96" stop-opacity="0"/>
    </linearGradient>
    <linearGradient id="paint4_linear" x1="849.5" x2="849.5" y1="462.5" y2="490.5" class="paint4_linear" gradientUnits="userSpaceOnUse">
      <stop stop-color="#FFCB56"/>
      <stop offset="1" stop-color="#FADB96" stop-opacity="0"/>
    </linearGradient>
    <linearGradient id="paint5_linear" x1="891.5" x2="891.5" y1="462.5" y2="490.5" class="paint5_linear" gradientUnits="userSpaceOnUse">
      <stop stop-color="#FFCB56"/>
      <stop offset="1" stop-color="#FADB96" stop-opacity="0"/>
    </linearGradient>
    <linearGradient id="paint6_linear" x1="656.5" x2="656.5" y1="392.5" y2="420.5" class="paint6_linear" gradientUnits="userSpaceOnUse">
      <stop stop-color="#FFCB56"/>
      <stop offset="1" stop-color="#FADB96" stop-opacity="0"/>
    </linearGradient>
    <linearGradient id="paint7_linear" x1="730.5" x2="730.5" y1="445.5" y2="498.5" class="paint7_linear" gradientUnits="userSpaceOnUse">
      <stop stop-color="#FFCB56"/>
      <stop offset="1" stop-color="#FADB96" stop-opacity="0"/>
    </linearGradient>
    <linearGradient id="paint8_linear" x1="255.809" x2="256.001" y1="410.392" y2="593.5" class="paint8_linear" gradientUnits="userSpaceOnUse">
      <stop stop-color="#CDD6E6"/>
      <stop offset="1" stop-color="#CDD6E6" stop-opacity="0"/>
    </linearGradient>
    <linearGradient id="paint9_linear" x1="246.152" x2="246.001" y1="327.175" y2="455" class="paint9_linear" gradientUnits="userSpaceOnUse">
      <stop stop-color="#EE7E79"/>
      <stop offset="1" stop-color="#EE7E79"/>
    </linearGradient>
  </defs>
</svg>
