<svg xmlns="http://www.w3.org/2000/svg" width="1152" height="700" fill="none" viewBox="0 0 1152 700">
  <g class="teamwork">
    <path fill="#fff" d="M0 0h1152v700H0z"/>
    <g class="Group 21">
      <rect width="332" height="234.924" x="411" y="61" fill="#fff" class="Rectangle" rx="19.336"/>
      <rect width="67.674" height="180.926" x="428.955" y="94.147" fill="#000" fill-opacity=".05" class="Rectangle_2" rx="11.049"/>
      <rect width="218.216" height="117.395" x="506.297" y="94.147" fill="#000" fill-opacity=".05" class="Rectangle_3" rx="8.287"/>
      <rect width="218.216" height="56.626" x="506.297" y="218.447" fill="#000" fill-opacity=".05" class="Rectangle_4" rx="8.287"/>
      <g class="Group 19">
        <circle cx="432.407" cy="74.12" r="3.453" fill="#000" fill-opacity=".13" class="Ellipse"/>
        <circle cx="444.838" cy="74.12" r="3.453" fill="#000" fill-opacity=".13" class="Ellipse_2"/>
        <circle cx="457.267" cy="74.12" r="3.453" fill="#000" fill-opacity=".13" class="Ellipse_3"/>
      </g>
      <g class="Group 20">
        <path fill="#000" fill-opacity=".16" d="M527 154.849h13.811v41.19H527z" class="Rectangle 2"/>
        <path fill="#000" fill-opacity=".16" d="M544.955 137h13.811v59.039h-13.811z" class="Rectangle 2.1"/>
        <path fill="#000" fill-opacity=".16" d="M562.909 150.73h13.811v45.309h-13.811z" class="Rectangle 2.2"/>
        <path fill="#000" fill-opacity=".16" d="M580.863 143.865h13.811v52.174h-13.811z" class="Rectangle 2.3"/>
        <path fill="#000" fill-opacity=".16" d="M598.818 167.206h13.811v28.833h-13.811z" class="Rectangle 2.4"/>
        <path fill="#000" fill-opacity=".16" d="M616.772 167.206h13.811v28.833h-13.811z" class="Rectangle 2.5"/>
        <path fill="#000" fill-opacity=".16" d="M634.727 154.849h13.811v41.19h-13.811z" class="Rectangle 2.6"/>
      </g>
      <rect width="52.482" height="84.248" x="665.125" y="112.101" fill="#000" fill-opacity=".06" class="Rectangle 2_2" rx="6.906"/>
    </g>
    <g class="Group 11.2">
      <g class="Group 9.1">
        <g class="Group 8.2">
          <path fill="#4671A4" d="M290.008 508.052c-12.194-15.591-29.853-54.83-2.929-87.052 9.333 16.492 22.986 56.991 2.929 87.052z" class="Vector 3"/>
          <path fill="#0D0D0D" fill-opacity=".12" d="M290.008 508.052c-4.077-23.001-10.613-72.643-2.808-86.84 9.275 16.714 23.087 57.553 2.808 86.84z" class="Vector 4"/>
        </g>
        <g class="Group 8">
          <path fill="#3675A3" d="M287.507 517.113c-2.338-16.569 1.32-52.759 34.65-64.969-.137 16.019-7.26 51.439-34.65 64.969z" class="Vector 3_2"/>
          <path fill="#0D0D0D" fill-opacity=".12" d="M287.507 517.114c6.737-18.563 22.935-57.668 34.65-64.763-.275 16.156-7.425 51.892-34.65 64.763z" class="Vector 4_2"/>
        </g>
        <g class="Group 8.1">
          <path fill="#3A91C2" d="M288.112 517.553c1.753-12.42-.989-39.55-25.975-48.703.103 12.008 5.443 38.56 25.975 48.703z" class="Vector 3_3"/>
          <path fill="#0D0D0D" fill-opacity=".12" d="M288.112 517.553c-5.05-13.915-17.193-43.23-25.975-48.549.207 12.112 5.566 38.901 25.975 48.549z" class="Vector 4_3"/>
        </g>
      </g>
      <path fill="#C7E1FF" d="M277.812 581.463l-10.725-72.394h45.169l-5.775 72.394h-28.669z" class="Vector"/>
      <path fill="#000" fill-opacity=".13" d="M298.025 581.463l-2.062-72.394h16.294l-5.775 72.394h-8.457z" class="Vector_2"/>
    </g>
    <g class="counch">
      <path fill="#1F5A9F" fill-rule="evenodd" d="M351 427a6 6 0 016-6h286a6 6 0 016 6v23.528a5.979 5.979 0 014-1.528h23a6 6 0 016 6v112a1 1 0 01-1 1h1v12H317v-12h.803l-.013-.022A1 1 0 01317 567V456a6 6 0 016-6h22a6 6 0 016 6v-29z" class="Union" clip-rule="evenodd"/>
      <path fill="#000" fill-opacity=".19" d="M665 449h11a6 6 0 016 6v113h-10l-7-119z" class="Rectangle 2.5_2"/>
      <path fill="#000" fill-opacity=".12" d="M345 450h-22a6 6 0 00-6 6v112h19l9-118z" class="Rectangle 2.6_2"/>
      <path fill="#000" fill-opacity=".54" d="M317 568h365v12H317z" class="Rectangle_5"/>
      <path fill="#000" fill-opacity=".08" d="M350 437v55h145l-32-11.5L350 437z" class="Vector 2"/>
      <path fill="#000" fill-opacity=".08" d="M649 460v34H501l77.5-18 70.5-16z" class="Vector 2.12"/>
      <path stroke="#000" d="M368.5 446v1" class="Vector 2_2"/>
      <path stroke="#000" d="M390 460v1" class="Vector 2.1"/>
      <path stroke="#000" d="M411.5 474v1" class="Vector 2.2"/>
      <path stroke="#000" d="M428 445v1" class="Vector 2.3"/>
      <path stroke="#000" d="M449.5 459v1" class="Vector 2.4"/>
      <path stroke="#000" d="M471 473v1" class="Vector 2.5"/>
      <path stroke="#000" d="M506 444v1" class="Vector 2.6"/>
      <path stroke="#000" d="M527.5 458v1" class="Vector 2.7"/>
      <path stroke="#000" d="M549 472v1" class="Vector 2.8"/>
      <path stroke="#000" d="M582 448v1" class="Vector 2.9"/>
      <path stroke="#000" d="M603.5 462v1" class="Vector 2.10"/>
      <path stroke="#000" d="M625 476v1" class="Vector 2.11"/>
      <path stroke="#000" stroke-opacity=".13" d="M501 532V421" class="Vector 2_3"/>
      <path stroke="#000" stroke-linecap="round" stroke-opacity=".22" d="M350 456v111.5" class="Vector_3"/>
      <path stroke="#000" stroke-linecap="round" stroke-opacity=".19" d="M649 567.5v-117" class="Vector_4"/>
      <g class="Rectangle_6">
        <path fill="#F46161" fill-opacity=".06" d="M501 500a8 8 0 018-8h132a8 8 0 018 8v32H501v-32z"/>
        <path stroke="#000" stroke-opacity=".24" d="M501.5 500a7.5 7.5 0 017.5-7.5h132a7.5 7.5 0 017.5 7.5v31.5h-147V500z"/>
      </g>
      <g class="Rectangle_7">
        <path fill="#F46161" fill-opacity=".06" d="M350 500a8 8 0 018-8h135a8 8 0 018 8v32H350v-32z"/>
        <path stroke="#000" stroke-opacity=".24" d="M350.5 500a7.5 7.5 0 017.5-7.5h135a7.5 7.5 0 017.5 7.5v31.5h-150V500z"/>
      </g>
    </g>
    <g class="Group 17.1">
      <path fill="#212468" fill-rule="evenodd" d="M361.366 491.122c1.918-12.225 29.374-19.946 29.374-19.946s21.224-4.772 34.895-5.282c18.374-.685 47.06 1.46 47.06 1.46 8.481 5.32 12.693 10.044 14.107 15.689 8.415.464 13.697.784 13.697.784l2.948 15.919-17.506 1.018c.717 15.683.05 30.837-.745 48.912-.412 9.364-.859 19.513-1.165 30.924h-12.116c-3.686-21.478-6.754-38.056-9.153-51.015-2.155-11.643-3.769-20.363-4.803-27.09l-65.479 3.704-6.436.374c-6.364-.47-11.358-1.594-15.145-3.129-3.302-1.264-6.218-3.076-7.965-5.674-1.525-2.134-1.991-4.434-1.568-6.648z" class="Union_2" clip-rule="evenodd"/>
      <path fill="#106773" d="M409.495 330.673c7.711-3.855 8.169-12.575 13.493-12.392 14.32-1.927 15.697 6.609 19.001 8.537 3.305 1.928.826 9.914 4.957 11.015 4.131 1.102-4.681 13.493 0 12.667 3.745-.661 5.783 4.865 6.334 7.711-.735 3.763-.661 12.832 5.507 19.001 7.711 7.71-19.827 3.58-21.754 11.29-1.928 7.711-14.045-1.377-14.045-4.406s-17.348 0-29.465 0c-9.693 0-4.957-6.425-1.377-9.638 3.029-1.928 8.151-7.876 4.406-16.247-3.745-8.372 3.213-12.851 7.16-14.044 2.203.275-4.531-8.337 5.783-13.494z" class="Vector 8"/>
      <path fill="#fff" fill-opacity=".03" d="M385.769 506.572c-34.147-2.203-28.206-22.637-10.753-27.913l125.39 5.203 2.948 15.92-117.585 6.79z" class="Vector 7"/>
      <g class="Group 16">
        <path fill="#FFB6B1" fill-rule="evenodd" d="M431.177 362.031c3.609-3.517 6.032-9.813 6.032-15.984 0-9.268-2.432-12.201-9.172-12.201-.958 5.033-4.7 5.734-8.172 6.383-3.407.638-6.555 1.227-6.555 5.818 0 6.395 2.36 12.923 6.038 16.356.128.992.143 1.981-.05 2.84-.125.557-.369 1.196-.628 1.785l-4.479-.076s-10.304.087-15.242 3.713c-2.451 1.8-3.998 3.158-6.326 5.436-3.645 3.567-8.363 10.03-8.363 10.03l55.46 3.175L467.5 385s-9.113-11.313-15.5-14.335c-6.157-2.914-17.562-3.367-17.562-3.367l-2.664-.046c-.239-.652-.477-1.389-.592-2.009-.179-.967-.145-2.097-.005-3.212zm-44.276 84.056l17.606 13.645 3.962-6.162-14.526-16.286-7.042 8.803z" class="Union_3" clip-rule="evenodd"/>
        <g class="Group 13">
          <path fill="#000" fill-opacity=".03" d="M437.21 346.047c0 9.267-5.464 18.814-12.204 18.814s-11.695-9.547-11.695-18.814c0-9.268 12.827-2.227 14.727-12.201 6.74 0 9.172 2.933 9.172 12.201z" class="Ellipse 2.1"/>
          <g class="Vector 9">
            <path fill="#4945F7" d="M400.546 437.724l-.211-3.9-4.631-5.343 1.321-18.487 1.32-12.953s2.526 9.411 3.081 15.594c.741 8.252-1.091 21.189-1.091 21.189l1.091 1.259-1.127 5.282v27.29c15.701 4.81 23.07 7.154 27.519 7.095 4.899-.066 17.241-1.284 36.991-7.095l-1.094-5.722 3.295-9.243-12.765-14.966 4.155-4.556s-2.216-6.552-3.274-10.85c-2.933-11.907-2.201-28.558-2.201-28.558l3.521 9.191 5.722 22.889-3.768 7.328-4.155 4.556 12.765 14.966s8.247-12.964 10.564-24.209c2.746-13.325-10.564-43.981-10.564-43.981s-19.773.88-31.01-2.5c-11.219-3.374-26.211-14.702-26.211-14.702-8.613 0-13.685 1.777-17.606 5.722-5.429 5.462-5.282 5.282-7.923 9.244-2.641 3.961-2.217 8.946-3.081 14.777-1.751 11.81-7.17 28.973-4.842 40.683 3.181 15.999 13.205 19.807 13.205 19.807l10.757-17.166 1.127-5.282-.88 2.641z"/>
            <path fill="#4945F7" d="M400.546 437.724l.88-2.641-1.091-1.259.211 3.9z"/>
          </g>
        </g>
      </g>
      <g class="Group 15">
        <rect width="63.887" height="36.9" x="397.465" y="438.604" fill="#696969" class="Rectangle_8" rx="4.402"/>
        <path fill="#FFF2F2" fill-opacity=".36" d="M436.017 458.706c0-1.972-.725-3.863-2.016-5.257-1.291-1.395-3.042-2.178-4.868-2.178-1.826 0-3.577.783-4.868 2.178-1.291 1.394-2.016 3.285-2.016 5.257h13.768z" class="Ellipse 3"/>
      </g>
      <g class="Group 14">
        <path fill="#318677" d="M486.359 586.035l-18.726-.001c-1.322-1.762-.734-5.713 1.102-8.008 10.188-9.913 19 .849 17.624 8.009z" class="Vector 9_2"/>
        <path fill="#fff" d="M475.619 581.055c-2.466-.705-3.58-5.507-3.58-5.507l-1.652 1.101 4.682 7.16h4.406l2.203-8.261-1.653-.826s.747 5.451-1.652 6.333c-1.009.372-1.72.296-2.754 0z" class="Vector 10"/>
        <path fill="#FFC6C6" d="M466.807 583.809h19.827v2.203h-19.827z" class="Rectangle 2_3"/>
      </g>
      <g class="Group 14.1">
        <path fill="#318677" d="M506 482.064v18.725c-1.763 1.322-5.713.735-8.008-1.101-9.914-10.189.848-19.001 8.008-17.624z" class="Vector 9_3"/>
        <path fill="#fff" d="M501.021 492.803c-.706 2.466-5.507 3.58-5.507 3.58l1.101 1.652 7.16-4.681v-4.406l-8.261-2.203-.826 1.652s5.45-.747 6.333 1.652c.372 1.01.296 1.72 0 2.754z" class="Vector 10_2"/>
        <path fill="#FFC6C6" d="M503.775 501.615v-19.827h2.203v19.827z" class="Rectangle 2_4"/>
      </g>
    </g>
    <g class="man">
      <g class="Group 18">
        <path fill="#FFBEBE" fill-rule="evenodd" d="M613 199.228c0-2.548 15.95 17.089 15.95 17.089l10.538 7.406-3.987 7.12-8.669-5.944-6.427-2.885-4.301-1.138-1.881-2.762a3.419 3.419 0 01-.115-3.666l2.555-4.311a2.933 2.933 0 00-.025-3.002c-1.332-2.215-3.638-6.286-3.638-7.907zm155.141 354.256v12.035h8.005l-1.277-23.569h-10.093l3.365 11.534zm-52.923.57v9.611h9.611l-.961-21.146h-8.65v11.535zm24.954-304.759c0 5.381-2.933 10.95-7.004 14.808v10.917c-5.468 4.822-12.531 2.009-15.379 0v-6.983c-4.883-2.647-6.455-9.84-6.455-17.635 0-18.893 4.381-18.85 11.952-18.775.489.005.991.01 1.507.01 8.493 0 15.379 8.048 15.379 17.658zm61.004 131.624s4.551 4.676 5.811 8.492c1.423 4.31.894 8.94.447 10.728-.331 1.322-1.94 1.935-3.129 1.34-.894-.447-2.235-6.704-2.235-6.704l-3.129-4.023-.893 3.129-.894 3.576c0 1.341-1.788 1.341-1.788 0l-.447-4.023.447-8.94-2.682-7.151 5.364-4.023 3.128 7.599z" class="Union_4" clip-rule="evenodd"/>
        <path fill="#000" fill-opacity=".06" d="M621.046 218.22c2.235 2.681 12.962 4.916 12.962 4.916l-3.576 3.576-9.386-4.47-4.917-1.341s3.516-4.362 4.917-2.681z" class="Vector 9_4"/>
        <path fill="#010101" fill-opacity=".07" d="M800.73 385.835l-3.576-8.045 2.682-.447c.149.745.089 2.771 4.022 6.704 3.934 3.934 4.917 11.622 3.576 16.091l-6.704-14.303z" class="Vector 8_2"/>
      </g>
      <path fill="#1B7777" d="M711.728 555.162l-7.992-71.439-5.811-96.1v-13.148h60.016s5.802 18.445 8.139 30.58c4.003 20.792 3.361 66.6 3.361 66.6l9.134 83.507H766.08l-22.563-74.121-10.728-57.66-4.195 60.342v72.881l-16.866-1.442z" class="Vector 2_4"/>
      <path fill="#000" fill-opacity=".09" d="M717.592 555.239l-9.386-172.979-10.281-2.235 5.811 105.039 8.492 70.175h5.364z" class="Vector 2_5"/>
      <path fill="#000" fill-opacity=".12" d="M754.244 469.419l-7.598-87.607 11.621-3.128c10.727 16.091 11.919 68.685 11.174 92.97l9.387 82.691h-4.917l-19.667-84.926z" class="Vector 2_6"/>
      <path fill="#fff" fill-opacity=".08" fill-rule="evenodd" d="M756.747 420.26l-1.788-39.334.358-.016 1.787 39.33 4.022 46.924 12.068 86.709-.354.049-12.068-86.713-.002-.009h.001l-4.023-46.933-.001-.007zm8.493-4.909l-5.808-33.956.352-.06 5.811 33.97.002.015v49.617l12.961 88.488-.354.051-12.962-88.501-.002-.012V415.351zm-18.326-31.292l2.235 34.417v.001l3.576 49.167v.009l.002.008 14.75 87.607.353-.059-14.749-87.599-3.575-49.157v-.002l-2.235-34.415-.357.023zm-6.258 37.543l-1.788-37.099.358-.018 1.787 37.096 4.022 46.471 10.278 49.604-.35.073-10.28-49.614-.003-.011v-.01l-4.023-46.486-.001-.006zm-8.045-40.228l1.788 37.099h-.001l.002.013 4.916 40.228.355-.044-4.915-40.221-1.788-37.092-.357.017zm-7.599 46.482l-1.341-46.486.358-.01 1.34 46.478 4.469 38.879-.355.041-4.47-38.887-.001-.008v-.007zm-11.174-42.906l1.788 37.099v.008l4.47 46.039 8.046 80.009.356-.036-8.046-80.008v-.001l-4.469-46.033-1.788-37.095-.357.018zm-3.129 48.276l-3.129-49.168.357-.022 3.129 49.165v.002l2.681 37.093.001.004 10.279 85.364-.355.043-10.28-85.372-.001-.009-2.682-37.099v-.001zm-10.28-49.168l3.128 49.168.001.001 2.681 37.099.001.009 10.281 85.372.355-.043-10.28-85.364v-.004l-2.682-37.093v-.002l-3.128-49.165-.357.022z" class="Union_5" clip-rule="evenodd"/>
      <path fill="#FFD850" d="M759.6 376.684c-20.106 4.682-45.137 4.235-61.675 0 0 0-4.47-27.126-4.47-36.44 0-9.314-2.235-42.91-2.235-42.91l-26.818-21.007-37.546-43.804c-3.505-7.42 5.992-13.321 8.493-16.985l33.97 33.523s21.076 17.088 31.649 20.932c3.502 1.274 9.701 1.774 16.813 2.028 2.94 5.2 11.108 5.33 15.38.346 12.101.263 23.39 5.38 26.439 8.429 10.352 10.353 32.637 51.402 32.637 51.402l10.136 44.486c-4.615 4.177-10.022 4.987-15.86 2.348l-12.602-37.239s-6.994-15.123-15.644-31.943c-.44-.855-.525 19.265 0 33.076.608 16.031 1.333 33.758 1.333 33.758z" class="Vector_5"/>
      <path fill="#000" fill-opacity=".02" d="M682.728 283.925c-16.985-10.28-36.034-34.864-34.864-31.735 3.868 10.341 16.538 24.137 16.538 24.137l27.265 21.901c0 6.258 0 54.531 6.258 76.433 0 0 3.751-.597 3.576-2.235-2.682-25.03-3.576-38.099-3.576-62.576 0-4.47-1.516-5.251-1.788-8.94-.346-4.687 2.943-7.063 0-10.727-2.842-3.538-9.526-3.908-13.409-6.258z" class="Vector 2_7"/>
      <path fill="#000" fill-opacity=".05" d="M787.32 338.009l-20.114-47.826 24.584 41.121 10.727 45.145-4.917 2.682-10.28-41.122z" class="Vector 2_8"/>
      <path fill="#000" fill-opacity=".04" d="M752.903 321.918s.28 7.956 1.341 10.727l2.235 25.478v18.326h3.129l-1.341-33.076V309.85l11.174 22.795s1.644-12.257-5.81-18.773c-2.939-2.568-3.251-10.871-7.152-10.727-7.669.284-3.576 18.773-3.576 18.773z" class="Vector 2_9"/>
      <g class="Group 19_2">
        <path fill="#fff" fill-rule="evenodd" d="M711.419 378.853c-3.863-20.292-9.178-71.837-2.78-107.733l-1.76-.314c-6.393 35.872-1.195 87.044 2.676 107.812-3.913-.523-7.818-1.234-11.63-2.169v4.023l.644.097c14.839 2.251 39.893 6.051 61.039-1.438v-2.682c-2.714.754-6.486 1.498-10.99 2.095-3.873-20.989-9.6-69.099-3.327-104.295l-1.76-.314c-6.32 35.457-.575 83.718 3.31 104.833-9.785 1.162-22.579 1.608-35.422.085z" class="Union_6" clip-rule="evenodd"/>
        <path stroke="#142A7B" stroke-width=".894" d="M721.615 382.26v-1.788c0-.247.2-.447.447-.447h6.257c.494 0 .894.4.894.894v1.341c0 .493-.4.894-.894.894h-5.81a.894.894 0 01-.894-.894z" class="Vector 2_10"/>
      </g>
      <g class="Group">
        <path fill="#301667" fill-rule="evenodd" d="M717.478 237.069c-3.378.279-10.304.851-11.507-3.461-2.325-8.332-1.822-12.015 2.503-9.131 2.186 1.457 3.845 1.521 5.174 1.572.776.03 1.439.055 2.029.35 2.563-1.281 8.555-3.075 12.015 0 2.541 2.259 4.413 2.013 5.915 1.815 1.055-.139 1.927-.254 2.72.539.675.676 1.531 1.239 2.336 1.768 1.485.977 2.797 1.84 2.485 3.087-.328 1.314-.207 4.199-.098 6.814.05 1.212.098 2.366.098 3.279 0 2.211-1.52 13.732-5.267 17.536-.216 3.657-1.676 16.115-11.584 16.877-9.545.735-10.144-1.46-11.703-7.168-.115-.422-.236-.863-.366-1.324-1.14-4.046-.894-16.538-.894-16.538 2.831-1.639 9.674-2.924 15.644 1.341 2.799 1.999 5.121-.771 5.367-4.471l-.003.001.007-.066c.024-.416.023-.842-.007-1.275l.141-.07.753-7.528-5.544-2.602c-2.431 0-2.822-.084-5.261-.606-.937-.2-2.174-.465-3.945-.815-.28.016-.621.044-1.008.076zm16.737 11.243l1.647 11.535c.896-3.54 2.658-11.12 1.844-13.021-.895-2.087-2.473-.486-3.491 1.486z" class="Union_7" clip-rule="evenodd"/>
        <path fill="#000" fill-opacity=".15" d="M725.191 269.622c3.575.358 6.704-12.962 8.939-19.667 6.705 35.758-18.406 28.425-19.667 24.137-2.235-7.599 6.258-4.917 10.728-4.47z" class="Vector 2_11"/>
      </g>
      <path fill="#2D8D76" d="M715.189 275.199l5.963 4.265 7.485-3.393-1.044 8.535-6.441-5.142-7.006 4.269 1.043-8.534z" class="Vector 2_12"/>
      <path fill="#030303" fill-opacity=".21" d="M728.319 276.773l-5.363 4.023 4.469 3.576.894-7.599z" class="Vector 2_13"/>
      <path fill="#353535" d="M693.008 574.012c9.111-2.514 22.284-11.802 22.284-11.802 3.68 1.234 5.744 1.315 9.425 0l2.827 18.85H689.53s1.113-6.396 3.478-7.048z" class="Vector_6"/>
      <path fill="#353535" d="M745.305 574.459c9.111-2.514 22.139-11.935 22.139-11.935 4.457 1.486 6.663 1.443 10.163 0l2.827 18.85h-38.015s.52-6.263 2.886-6.915z" class="Vector_7"/>
    </g>
    <path stroke="#000" d="M218 581h615" class="floor"/>
  </g>
</svg>
