<svg xmlns="http://www.w3.org/2000/svg" width="800" height="600" fill="none" viewBox="0 0 800 600">
  <g class="tech_color_one">
    <path fill="#fff" d="M0 0h800v600H0z"/>
    <path fill="#FFD06F" fill-rule="evenodd" d="M591.306 368.829l-.186.502c-.629 1.704-1.219 3.3-1.633 4.757-.457 1.606-.683 2.981-.542 4.097.136 1.081.614 1.916 1.615 2.504 1.335.783 3.774 1.346 7.126 1.714 3.195.351 7.154.52 11.618.568v-1.439l-24.245-67.177a3 3 0 00-2.822-1.982h-28.122c-2.079 0-3.528 2.063-2.822 4.018l24.066 66.682h19.804c-2.208-.359-3.963-.85-5.109-1.521-1.298-.761-1.931-1.888-2.102-3.242-.166-1.322.107-2.856.573-4.495.429-1.509 1.039-3.157 1.671-4.868l.172-.464c.695-1.886 1.405-3.848 1.947-5.832 1.085-3.978 1.467-7.947-.232-11.44-1.539-3.163-4.84-6.041-11.16-8.157a5.108 5.108 0 01-1.504.212c-8.042 0-11.157-4.218-12.131-10.375-.736-4.643.411-11.86 5.52-11.86 4.703 0 8.232 3.218 10.429 9.201 1.741 4.742 1.702 10.157-1.068 12.198 5.89 2.14 9.199 5.027 10.813 8.343 1.861 3.824 1.403 8.09.297 12.141-.554 2.031-1.278 4.031-1.973 5.915z" class="Vector" clip-rule="evenodd"/>
    <path fill="#FFD06F" fill-rule="evenodd" d="M685.157 241.166H463.245v113.643h221.912V241.166zm-79.426 218.643h-68.683v80.22h68.683v-80.22zm-537.3-52.229h86.749v122.888H68.43V407.58zm134.089-95.666h-28.19v71.154h28.19v-71.154zm42.21 71.155h16.39l5.9-51.538h-28.19l5.9 51.538z" class="Secondary" clip-rule="evenodd"/>
    <path fill="#fff" d="M675.9 383.069h-27.56c9.19-.26 17.99-.41 25.17-.12.82.03 1.62.07 2.39.12z" class="Vector_2"/>
    <path fill="#72CBAB" d="M563.01 348.85l.35.96a7.573 7.573 0 01-2.17.04c-2.53-.32-4.28-1.68-5.06-3.95-1.14-3.32-.03-8.19 1.55-11.82l.5 1.4c-1.25 3.24-2.07 7.26-1.1 10.1.65 1.9 2.08 3.01 4.23 3.28.57.07 1.14.06 1.7-.01z" class="Vector_3"/>
    <path fill="#FFF7EF" d="M552.02 445.53l-.1.12-10.74-.32 2.36 6.32h-.02l-2.51-6.42 11.01.3z" class="Vector_4"/>
    <path fill="#FFF7EF" d="M551.92 445.65l-5.22 6h-3.16l-2.36-6.32 10.74.32z" class="Vector_5"/>
    <path fill="#82D0B4" d="M524.97 104.16v13.02c0 .67-.45 1.24-1.06 1.43v-15.87c.61.18 1.06.75 1.06 1.42z" class="Vector_6"/>
    <path fill="#82D0B4" d="M523.91 102.74v15.87a1.471 1.471 0 01-1-.04v-15.8c.17-.07.36-.11.56-.11.15 0 .3.02.44.08z" class="Vector_7"/>
    <path fill="#82D0B4" d="M522.91 102.77v15.8c-.29-.12-.54-.32-.7-.59v-14.62c.16-.27.41-.47.7-.59z" class="Vector_8"/>
    <path fill="#fff" d="M523.91 181.82v-63.21c.61-.19 1.06-.76 1.06-1.43v-13.02c0-.67-.45-1.24-1.06-1.42V85.32h-1v17.45c-.29.12-.54.32-.7.59V78.51c0-2.76-2.24-5-5-5h-98.76a2.047 2.047 0 00-1.99-1.59c-.96 0-1.78.68-1.99 1.59h-5.86a2.047 2.047 0 00-1.99-1.59c-.97 0-1.78.68-1.99 1.59h-5.86a2.047 2.047 0 00-1.99-1.59c-.97 0-1.78.68-1.99 1.59h-6.99v-2.08c0-2.21 1.8-4 4-4h136.62c2.21 0 4 1.79 4 4v115.31c0 2.21-1.79 4-4 4h-6.21v-72.76c.16.27.41.47.7.59v63.25h1z" class="Vector_9"/>
    <path fill="#fff" d="M522.21 117.98v72.76H391.8c-2.2 0-4-1.79-4-4V73.51h6.99a2.042 2.042 0 001.99 2.5 2.042 2.042 0 001.99-2.5h5.86a2.042 2.042 0 001.99 2.5 2.042 2.042 0 001.99-2.5h5.86a2.049 2.049 0 001.99 2.5 2.042 2.042 0 001.99-2.5h98.76c2.76 0 5 2.24 5 5v24.85c-.16.23-.24.5-.24.8v13.02c0 .3.08.57.24.8zm-14.65-5.9v-1h-40.32v1h40.32zm0-31.5v-1h-94.9v1h94.9zM493 169.27v-2.71c0-1.1-.9-2-2-2h-21.77c-1.1 0-2 .9-2 2v2.71a2 2 0 002 2H491a2 2 0 002-2zm0-13.84v-1h-25.76v1H493zm0-7.65v-1h-25.76v1H493zm0-7.65v-1h-25.76v1H493zm0-7.65v-1h-25.76v1H493zm-36.42 44.59c0-.27-.23-.5-.5-.5h-8.7a5.006 5.006 0 002.83-4.5v-69.43c0-2.76-2.25-5-5-5h-30.09c-2.76 0-5 2.24-5 5v69.43c0 1.98 1.15 3.69 2.82 4.5h-8.69c-.28 0-.5.23-.5.5 0 .28.22.5.5.5h51.83c.27 0 .5-.22.5-.5z" class="Vector_10"/>
    <path fill="#82D0B4" d="M522.21 103.359v14.62c-.16-.23-.24-.5-.24-.8v-13.02c0-.3.08-.57.24-.8z" class="Vector_11"/>
    <path fill="#fff" d="M524.74 230.039h-12.72c.01-1.11.92-2 2.019-2H530.4c1.12 0 2.019.9 2.019 2.02a2.02 2.02 0 01-2.019 2.02h-3.231a2.47 2.47 0 00-2.429-2.04z" class="Vector_12"/>
    <path fill="#fff" d="M512.02 230.039h12.72c1.21 0 2.229.88 2.429 2.04h-13.13c-1.11 0-2.019-.91-2.019-2.02v-.02z" class="Vector_13"/>
    <path fill="#23AD7B" d="M507.56 79.58h-94.9v1h94.9v-1z" class="Vector_14"/>
    <path fill="#fff" d="M499.59 455.431c-15.8-11.26-31.41-21.63-45.75-30.05 14.53 8.38 30.14 18.8 45.75 30.05z" class="Vector_15"/>
    <path fill="#424B56" d="M493 166.561v2.71a2 2 0 01-2 2h-21.77a2 2 0 01-2-2v-2.71c0-1.1.9-2 2-2H491c1.1 0 2 .9 2 2z" class="Vector_16"/>
    <path fill="#fff" d="M490.21 216.27h29.53c1.12 0 2.07.74 2.37 1.77h-29.9a2.02 2.02 0 01-2-1.77z" class="Vector_17"/>
    <path fill="#fff" d="M519.74 216.27h-29.53c-.01-.08-.02-.16-.02-.25 0-1.12.91-2.02 2.02-2.02h38.19a2.02 2.02 0 010 4.04h-8.29a2.463 2.463 0 00-2.37-1.77z" class="Vector_18"/>
    <path fill="#69C7A5" d="M483.06 380.15h-2.45v2.92h2.45v-2.92z" class="Vector_19"/>
    <g class="Group">
      <path fill="#28323F" d="M689.979 386.321c.651.85 1.101 2.18 1.351 3.97.189 1.41.25 3.07.19 4.959a45.3 45.3 0 01-.06 1.6c-.291 5.13-1.291 11.64-2.7 19.06-2.83 14.86-7.26 33.17-10.89 51.13-.03.17-.07.34-.1.51h1.019c.021-.1.041-.21.06-.31 3.611-17.87 8.071-36.31 10.891-51.14 1.41-7.43 2.419-14 2.72-19.19.03-.569.049-1.119.059-1.659h.001c.06-1.92 0-3.63-.2-5.09-.26-1.87-.74-3.39-1.54-4.44l-.801.6z" class="Vector_20"/>
      <path fill="#28323F" d="M709.72 512.141c-.21-6.66-1.63-13.51-3.01-19.02-.7-2.75-1.39-5.18-1.92-7.08-.26-.93-.47-1.74-.64-2.4v-.001c0-.01-.01-.03-.01-.04-.16-.67-.26-1.15-.29-1.45-.1-1.2-.42-2.09-.91-2.74v.001c-.05-.07-.11-.14-.17-.21-.53-.59-1.19-.88-1.87-.99v-.001c-.08-.02-.17-.03-.25-.04v.001a.51.51 0 00-.55.45c-.02.27.18.52.45.55v-.001c.1.01.2.02.3.05a4.74 4.74 0 010 .001c.44.09.85.3 1.18.66.16.18.31.4.43.68.2.42.34.96.4 1.669.03.39.15.94.31 1.62.17.67.4 1.5.66 2.46.07.26.15.53.23.81.06-.23.09-.47.09-.72v.001c0 .25-.03.49-.09.72.49 1.76 1.08 3.88 1.68 6.25 1.38 5.48 2.78 12.24 2.98 18.8.21 6.56-.79 12.84-4.12 17.42-3.31 4.54-8.98 7.5-18.38 7.31l-.02 1c.3.01.59.01.88.01 9.12 0 14.89-3.01 18.33-7.74 3.52-4.84 4.52-11.38 4.31-18.03z" class="Vector_21"/>
      <path fill="#28323F" d="M676.07 476.348l-.001.002v.01c-.15.76-.28 1.52-.42 2.28.02.84.23 1.63.6 2.33.38-2.15.77-4.329 1.19-6.528.43-2.28.88-4.58 1.35-6.89h-1.02a443.275 443.275 0 00-1.699 8.796z" class="Vector_22"/>
      <path fill="#28323F" d="M686.219 536.901c-4.57-.101-7.73-2.19-9.84-5.861-2.14-3.699-3.2-9.009-3.44-15.5-.28-7.499.53-16.479 1.96-26.189v.001c.4-2.741.86-5.541 1.35-8.381a5.23 5.23 0 01-.6-2.33c-.63 3.52-1.21 6.99-1.71 10.38v-.001c-1.46 9.82-2.29 18.94-2 26.561.25 6.549 1.32 12.049 3.57 15.959 2.28 3.95 5.75 6.26 10.69 6.361l.02-1z" class="Vector_23"/>
      <path fill="#28323F" d="M653.539 341.54h-1.469l-1.05 2.59h1.47l1.049-2.59z" class="Vector_24"/>
      <path fill="#28323F" d="M652.49 344.131h-1.47l-2.44 6.04h1.47l2.44-6.04z" class="Vector_25"/>
      <path fill="#28323F" d="M651.06 341.54h-1.47l-1.05 2.59h1.47l1.05-2.59z" class="Vector_26"/>
      <path fill="#28323F" d="M650.01 344.131h-1.47l-2.44 6.04h1.47l2.44-6.04z" class="Vector_27"/>
      <path fill="#28323F" d="M646.06 344.13h1.47l1.05-2.59h-1.47l-1.05 2.59z" class="Vector_28"/>
      <path fill="#28323F" d="M647.53 344.131h-1.47l-2.44 6.04h1.47l2.44-6.04z" class="Vector_29"/>
      <path fill="#28323F" d="M643.569 344.13h1.48l1.05-2.59h-1.48l-1.05 2.59z" class="Vector_30"/>
      <path fill="#28323F" d="M641.13 350.171h1.48l2.44-6.04h-1.48l-2.44 6.04z" class="Vector_31"/>
      <path fill="#28323F" d="M675.9 383.071h.014c3.374.19 6.289.49 8.616.949 1.44.28 2.63.621 3.56 1.01.93.4 1.55.83 1.89 1.291l.8-.601c-.49-.659-1.3-1.18-2.31-1.61-.97-.42-2.18-.76-3.6-1.04h-.005l-.145-.029c-2.94-.579-6.76-.91-11.17-1.09-8.82-.35-20.06-.05-31.43.31-11.38.37-22.88.8-32.27.72h-.02v-.001c-2.29-.02-4.45-.07-6.45-.16-.18.15-.41.25-.67.25h-7.57c.76.13 1.58.23 2.44.33 3.37.37 7.56.541 12.26.58 9.41.081 20.95-.349 32.32-.719 2.059-.07 4.108-.13 6.148-.19h.032c9.19-.26 17.99-.41 25.17-.12.82.03 1.62.071 2.39.12z" class="Vector_32"/>
      <path fill="#28323F" d="M591.54 244.379h87.37c1.91 0 3.45 1.31 3.87 3.01-.35-2.47-2.29-5.45-4.4-5.45H488.84c-1.93 0-3.59 1.35-3.98 3.241 0 0-21.23 101.989-21.58 103.909-.35 1.92 1.96 3.96 3.42 4.48 1.12.4 2.05.91 3.56 1.13a3.994 3.994 0 01-2.8-4.66l21.32-102.479a3.993 3.993 0 013.91-3.181h98.85z" class="Vector_33"/>
      <path fill="#28323F" d="M602.71 383.07c.26 0 .49-.1.67-.25-2.09-.09-4-.23-5.69-.42-3.36-.36-5.79-.93-7.13-1.71-.22-.13-.41-.27-.58-.419h-1.32c.33.5.79.93 1.39 1.28l.001-.001c1.14.67 2.889 1.16 5.089 1.52h7.57z" class="Vector_34"/>
      <path fill="#28323F" d="M589.979 380.269c-.609-.54-.929-1.24-1.029-2.08-.15-1.12.08-2.49.54-4.1.45-1.6 1.119-3.37 1.82-5.26.69-1.88 1.409-3.88 1.97-5.91.699-2.57 1.139-5.22.889-7.8-.01-.08-.019-.17-.029-.26h-.001c0-.079-.02-.169-.03-.259a12.38 12.38 0 00-1.13-3.829c-1.219-2.5-3.409-4.76-6.949-6.64h-2.301c.231.1.461.2.68.31 4.101 1.91 6.45 4.25 7.671 6.77.529 1.09.86 2.22 1.019 3.391h.001c.02.089.03.169.03.258.02.08.03.17.039.259.25 2.42-.159 4.97-.849 7.53-.55 1.99-1.26 3.95-1.95 5.83-.701 1.88-1.38 3.69-1.84 5.34-.47 1.63-.741 3.17-.58 4.49.089.73.32 1.39.709 1.96h1.32z" class="Vector_35"/>
      <path fill="#28323F" d="M584.41 344.131h1.62c-.51-.27-1.05-.54-1.62-.79-.7-.31-1.45-.62-2.24-.91 1.48-1.09 2.18-3.16 2.24-5.57.01-.23.01-.48 0-.729v-.001c0-.23-.01-.47-.04-.71h-3.53v-.001h3.53c-.11-1.69-.51-3.48-1.13-5.19-2.2-5.98-5.73-9.2-10.43-9.2-5.11 0-6.26 7.22-5.52 11.86.73 4.66 2.7 8.21 7.09 9.66.84-.52 1.65-.94 2.42-1.17l.29.95h-.001l-.289-.948c-.77.23-1.58.65-2.42 1.17.43.14.88.26 1.36.36l.003-.002c1.089.24 2.308.36 3.677.36.52 0 .99-.07 1.42-.2.019 0 .048-.001.068-.02l.002.001c1.01.34 1.96.7 2.82 1.08h.68zm-3.57-2.15c-.53-.17-1.07-.34-1.64-.5l-.27.959.27-.96c.57.16 1.11.33 1.64.5v.001z" class="Vector_36"/>
      <path fill="#28323F" d="M565.109 354.68l-1.75-4.869c-.41.07-.81.1-1.22.1-.32 0-.63-.02-.95-.059-2.53-.321-4.28-1.681-5.06-3.951-1.14-3.32-.03-8.19 1.55-11.82l-6.39-17.69c-.09-.26-.15-.51-.17-.76L539.21 354.75h-.001l-.02.06h25.97l-.05-.13z" class="Vector_37"/>
      <path fill="#28323F" d="M562.52 443.141l-3.21 2.64-3.888 3.239-.002-.001 3.713-3.092.177-.146.176-.146 3.034-2.496.02-.01-.03-.02-.001.002-5.009-3.97-.02.07-3.63 12.44h1.8l1.03-.94-1.46-1.57h.001l1.459 1.568 1.398-1.288h.002l5.75-5.26-1.29-1.03-.02.01z" class="Vector_38"/>
      <path fill="#28323F" d="M557.08 345.58c.65 1.9 2.08 3.01 4.23 3.28.57.07 1.14.06 1.7-.01l-4.83-13.37c-1.25 3.24-2.07 7.26-1.1 10.1z" class="Vector_39"/>
      <path fill="#28323F" d="M487.16 350.17h1.48l3.49-8.63h-1.48l-3.49 8.63z" class="Vector_40"/>
      <path fill="#28323F" d="M488.17 341.54l-3.49 8.63h1.47l3.5-8.63h-1.48z" class="Vector_41"/>
      <path fill="#28323F" d="M485.69 341.54l-3.49 8.63h1.47l3.49-8.63h-1.47z" class="Vector_42"/>
      <path fill="#28323F" d="M483.21 341.54l-3.49 8.63h1.47l3.49-8.63h-1.47z" class="Vector_43"/>
    </g>
    <path fill="#EADED9" d="M446.26 537.92h-94.19c13.04-1.11 31.72-11.69 40.05-19.34h8.56c7.06 8.13 31.31 15.65 45.58 19.34z" class="Vector_44"/>
    <path fill="#82D0B4" d="M438.84 99.48h-17.36v.16h17.36v-.16z" class="Vector_45"/>
    <path fill="#fff" d="M436 204c-.93 0-1.72-.64-1.94-1.51h85.68c1.02 0 1.9.62 2.27 1.51H436z" class="Vector_46"/>
    <path fill="#5E666F" d="M435.52 170.539c.46 0 .84.38.84.84 0 .47-.38.84-.84.84H424.8a.83.83 0 01-.83-.84c0-.46.37-.84.83-.84h10.72z" class="Vector_47"/>
    <path fill="#424B56" d="M424.8 172.221h10.72c.46 0 .84-.37.84-.84 0-.46-.38-.84-.84-.84H424.8c-.46 0-.83.38-.83.84 0 .47.37.84.83.84zm4.01-55.1h2.71c1.1 0 2-.9 2-2v-1.89c0-1.1-.9-2-2-2h-2.71a2 2 0 00-2 2v1.89a2 2 0 002 2zm4.71 22.47c0-1.1-.9-2-2-2h-2.71a2 2 0 00-2 2v1.88c0 1.11.89 2 2 2h2.71a2 2 0 002-2v-1.88zm-2-4.9c1.1 0 2-.9 2-2v-1.88a2 2 0 00-2-2h-2.71c-1.11 0-2 .89-2 2v1.88a2 2 0 002 2h2.71zm0-8.79a2 2 0 002-2v-1.88c0-1.1-.9-2-2-2h-2.71a2 2 0 00-2 2v1.88c0 1.11.89 2 2 2h2.71zm13.69 49.17h-30.09c-1.66 0-3-1.34-3-3v-69.43c0-1.65 1.34-3 3-3h6.36v1.19a2 2 0 002 2h13.36c1.11 0 2-.89 2-2v-1.19h6.37c1.65 0 3 1.35 3 3v69.43c0 1.66-1.35 3-3 3zm-26.11-57.95h2.71c1.1 0 2-.9 2-2v-1.89c0-1.1-.9-2-2-2h-2.71a2 2 0 00-2 2v1.89a2 2 0 002 2zm0 20.47a2 2 0 00-2 2v1.88c0 1.11.89 2 2 2h2.71a2 2 0 002-2v-1.88c0-1.1-.9-2-2-2h-2.71zm0-2.9h2.71c1.1 0 2-.9 2-2v-1.88a2 2 0 00-2-2h-2.71c-1.11 0-2 .89-2 2v1.88a2 2 0 002 2zm24.13-3.88a2 2 0 00-2-2h-2.71c-1.11 0-2 .89-2 2v1.88a2 2 0 002 2h2.71c1.1 0 2-.9 2-2v-1.88zm-2-4.91a2 2 0 002-2v-1.88c0-1.1-.9-2-2-2h-2.71a2 2 0 00-2 2v1.88c0 1.11.89 2 2 2h2.71zm0-8.78c1.1 0 2-.9 2-2v-1.89c0-1.1-.9-2-2-2h-2.71a2 2 0 00-2 2v1.89a2 2 0 002 2h2.71zm-22.13 8.78h2.71a2 2 0 002-2v-1.88c0-1.1-.9-2-2-2h-2.71a2 2 0 00-2 2v1.88c0 1.11.89 2 2 2z" class="Vector_48"/>
    <path fill="#fff" d="M519.74 202.491h-85.68a1.7 1.7 0 01-.07-.51c0-1.11.9-2.02 2.01-2.02h94.4a2.02 2.02 0 010 4.04h-8.39a2.456 2.456 0 00-2.27-1.51z" class="Vector_49"/>
    <path fill="#82D0B4" d="M421.48 99.64h17.36v1.191c0 1.11-.89 2-2 2h-13.36a2 2 0 01-2-2v-1.19z" class="Vector_50"/>
    <path fill="#424B56" d="M418.45 73.51h-3.98c.21-.91 1.03-1.59 1.99-1.59.97 0 1.78.68 1.99 1.59z" class="Vector_51"/>
    <path fill="#424B56" d="M418.5 73.97c0 1.12-.91 2.04-2.04 2.04a2.049 2.049 0 01-1.99-2.5h3.98c.03.15.05.3.05.46z" class="Vector_52"/>
    <path fill="#82D0B4" d="M415.12 176.071c-2.21 0-4-1.79-4-4v-69.43a4 4 0 014-4h30.09a4 4 0 014 4v69.43c0 2.21-1.79 4-4 4h-30.09zm0-76.43c-1.66 0-3 1.35-3 3v69.43c0 1.66 1.34 3 3 3h30.09c1.65 0 3-1.34 3-3v-69.43c0-1.65-1.35-3-3-3h-6.37v-.16h-17.36v.16h-6.36z" class="Vector_53"/>
    <path fill="#82D0B4" d="M411.12 172.071c0 2.21 1.79 4 4 4h30.09c2.21 0 4-1.79 4-4v-69.43a4 4 0 00-4-4h-30.09a4 4 0 00-4 4v69.43zm-1-69.43c0-2.76 2.24-5 5-5h30.09c2.75 0 5 2.24 5 5v69.43c0 1.98-1.16 3.69-2.83 4.5h-34.44a4.997 4.997 0 01-2.82-4.5v-69.43z" class="Vector_54"/>
    <path fill="#424B56" d="M408.61 73.51h-3.98c.21-.91 1.02-1.59 1.99-1.59s1.78.68 1.99 1.59z" class="Vector_55"/>
    <path fill="#424B56" d="M406.62 76.01a2.042 2.042 0 01-1.99-2.5h3.98a2.042 2.042 0 01-1.99 2.5z" class="Vector_56"/>
    <path fill="#EADED9" d="M400.48 453.949h-8.19v13.25h8.19v-13.25z" class="Vector_57"/>
    <path fill="#EADED9" d="M400.48 452.391h-8.19v1.56h8.19v-1.56z" class="Vector_58"/>
    <path fill="#424B56" d="M398.77 73.51h-3.98c.21-.91 1.02-1.59 1.99-1.59s1.78.68 1.99 1.59z" class="Vector_59"/>
    <path fill="#FFF6DE" d="M269.7 295.7c2.34-4.34-8.72-9.05-8.24-12.57.3-2.22 2.06-5.97 2.17-6.2-.34.28-7.76 6.34-4.87 9.53 3.71 4.09 6.21 9.68 3.68 13.92-1.38 2.31-4.03 6.74-4.19 7.02.21-.11 7.23-3.89 11.45-11.7zm260.7-96.74H436c-1.66 0-3.01 1.35-3.01 3.02 0 .17.01.34.05.51h-4.77c-.69 0-1.3.28-1.75.72-.44.45-.72 1.07-.72 1.75 0 1.37 1.1 2.47 2.47 2.47h91.47c.68 0 1.3-.28 1.74-.72.44-.44.72-1.04.73-1.71h8.19c1.67 0 3.02-1.36 3.02-3.02 0-1.67-1.35-3.02-3.02-3.02zm-149.81-.14h136.62c2.76 0 5-2.24 5-5v-2.08h6.21c2.76 0 5-2.24 5-5V71.43c0-2.76-2.24-5-5-5H391.8c-2.76 0-5 2.24-5 5v2.08h-6.21c-2.76 0-5 2.24-5 5v115.31c0 2.76 2.24 5 5 5zm108.6 17.2c0 .08 0 .17.02.25h-1.75c-.68 0-1.3.28-1.74.72-.45.45-.73 1.06-.73 1.75 0 1.36 1.11 2.47 2.47 2.47h32.28c.68 0 1.3-.28 1.74-.72.38-.38.64-.89.71-1.45h8.21c1.67 0 3.02-1.36 3.02-3.02 0-1.67-1.35-3.02-3.02-3.02h-38.19c-1.66 0-3.02 1.35-3.02 3.02zm76.08 139.1H402.84l-4.72-21.01c.01.01.03.01.04.01.04 0 .07 0 .11-.01.27-.06.44-.33.38-.6l-11.36-51.84a.503.503 0 00-.6-.38.49.49 0 00-.36.32l-7.93-35.29a8 8 0 00-7.8-6.25h-50.66l-1.56-7.3 32.17.34c1.82.02 3.25-1.43 3.3-3.16h.21c2.1.03 3.67-1.9 3.24-3.96l-8.2-38.35a3.28 3.28 0 00-3.17-2.59l-76.14-.8a3.263 3.263 0 00-3.3 3.16h-.2c-2.1-.02-3.68 1.91-3.24 3.96l8.19 38.35a3.27 3.27 0 003.17 2.59l29.02.3 1.59 7.46h-30.14c-2.77 0-5.16 1.39-6.59 3.46a8.003 8.003 0 00-5.14 9.3l22.98 102.29h-21.16l1.02-7.59h-.85l1.44-12.72h1.48l-.85-4.15h-28.15l-1.27 4.15h1.48l1.44 12.72h-.85l.91 7.59h-37.65v-10.99h13.91v-8.71h-9.63v-4.26c.28 0 .5-.23.5-.5V259.2h18.35c.27 0 .5-.22.5-.5s-.23-.5-.5-.5H207.9V138.71h18.35c.27 0 .5-.23.5-.5 0-.28-.23-.5-.5-.5H207.9v-51.5c0-.27-.22-.5-.5-.5V41.44c0-8.84-7.16-16-16-16H58.74c-8.84 0-16 7.16-16 16v44.27c-.28 0-.5.23-.5.5v51.5H24.95c-.27 0-.5.22-.5.5 0 .27.23.5.5.5h17.29V258.2H24.95c-.27 0-.5.22-.5.5s.23.5.5.5h17.29v71.46c0 .27.22.5.5.5v4.26h-10.7v8.71h141.51v10.99h-68.09v-5.29H50.24v5.29H0V0h800v355.12H599.77l-.09-.26h57.91c1.9 0 3.53-1.33 3.92-3.19l1.57-7.54h102.75v-8.71h-9.63v-26.65c.27 0 .5-.22.5-.5V259.2h18.35c.27 0 .5-.22.5-.5s-.23-.5-.5-.5H756.7V138.71h18.35c.27 0 .5-.23.5-.5 0-.28-.23-.5-.5-.5H756.7V63.83c0-.28-.23-.5-.5-.5v-16.3c0-8.83-7.17-16-16-16H607.54c-8.84 0-16 7.17-16 16v16.3c-.28 0-.5.22-.5.5v73.88h-17.29c-.27 0-.5.22-.5.5 0 .27.23.5.5.5h17.29v57.35h-20.45v12.37h-17.9v12.38h38.35v21.13h-102.2c-1.93 0-3.59 1.35-3.98 3.24 0 0-21.23 101.99-21.58 103.91-.35 1.92 1.96 3.96 3.42 4.48 1.12.4 2.05.91 3.56 1.13.35.11.72.16 1.11.16h93.81l.09.26zm-31.85-125.06c0-1.67-1.35-3.02-3.02-3.02h-16.36c-1.65 0-3.01 1.34-3.02 3h-2.72c-.68 0-1.3.27-1.74.72-.45.45-.73 1.07-.73 1.75 0 1.36 1.11 2.47 2.47 2.47h16.44c.68 0 1.3-.28 1.74-.73.32-.31.55-.72.66-1.17h3.26c1.67 0 3.02-1.36 3.02-3.02zM334.61 107.83V95.46h-17.9V83.09h-55.22v12.37h17.9v12.37h55.22zm-81.14 199.48c3.31-5.21 6.92-9.17 3.49-15.42-3.43-6.25-13.83-8.19-14.39-13.31-.36-3.31.91-9.47.91-9.47s-8.83 11.54-3.53 15.1c6.63 4.45 13.97 9.47 12.46 13.35-1.52 3.89-14.2 9.15-8.01 17.05 20.01 25.46 4.06.6 9.07-7.3z" class="Vector_60"/>
    <path fill="#424B56" d="M398.82 73.97c0 1.12-.91 2.04-2.04 2.04a2.042 2.042 0 01-1.99-2.5h3.98c.03.15.05.3.05.46z" class="Vector_61"/>
    <path fill="#EADED9" d="M391.44 452.391c0-.28-.22-.5-.5-.5-.27 0-.5.22-.5.5v1.56h-77.27c-1.15 0-2.18-1.28-2.86-3.3 2.87-1.99 5.72-3.94 8.56-5.85h162.84c0 5.05-1.67 9.15-3.72 9.15h-77.51v-1.56h-8.19v1.56h-.85v-1.56z" class="Vector_62"/>
    <path fill="#69C7A5" d="M391.59 380.15h-2.45v2.92h2.45v-2.92z" class="Vector_63"/>
    <path fill="#EADED9" d="M391.44 452.391v1.56h-1v-1.56c0-.28.23-.5.5-.5.28 0 .5.22.5.5z" class="Vector_64"/>
    <g class="Group_2">
      <path fill="#565E68" d="M574.35 380.27h-33.2c-.55 0-1 .45-1 1v.8c0 .56.45 1 1 1h34.21l-1.01-2.8z" class="Vector_65"/>
      <path fill="#565E68" d="M498.26 377.34H373.95c-.06 0-.11 0-.17.01a2.798 2.798 0 00-2.64 2.8H501l.001-.001h.059v-.039-.001-.029a2.803 2.803 0 00-2.8-2.74z" class="Vector_66"/>
      <path fill="#565E68" d="M328.96 377.34c-6.71 0-12.18 2.55-12.44 5.73-.02.08-.02.17-.02.25h24.92c0-.08 0-.17-.02-.25-.26-3.18-5.73-5.73-12.44-5.73z" class="Vector_67"/>
    </g>
    <path fill="#5C646E" d="M319.94 240.069h-14.92l-1.59-7.46 14.95.16 1.56 7.3z" class="Vector_68"/>
    <path fill="#FFF5EA" d="M261.46 283.13c-.479 3.52 10.581 8.23 8.241 12.57-4.22 7.81-11.241 11.59-11.451 11.7.16-.28 2.81-4.71 4.19-7.02 2.53-4.24.03-9.83-3.679-13.92-2.891-3.19 4.529-9.25 4.869-9.53-.11.23-1.869 3.98-2.17 6.2z" class="Vector_69"/>
    <path fill="#FFF5EA" d="M260.85 355.119c.15.83.15 1.7.01 2.57-.64 3.94-4.05 6.74-7.92 6.74-.43 0-.86-.03-1.3-.1-4.38-.71-7.36-4.83-6.65-9.21h15.86z" class="Vector_70"/>
    <path fill="#FFF5EA" d="M260.85 355.119h-15.86v-.01c.64-3.94 4.05-6.74 7.92-6.74.43 0 .86.03 1.3.1 3.51.57 6.11 3.33 6.64 6.65z" class="Vector_71"/>
    <path fill="#FFF5EA" d="M256.96 291.889c3.43 6.25-.18 10.21-3.49 15.42-5.01 7.9 10.94 32.76-9.07 7.3-6.19-7.9 6.49-13.16 8.01-17.05 1.51-3.88-5.83-8.9-12.46-13.35-5.3-3.56 3.53-15.1 3.53-15.1s-1.27 6.16-.91 9.47c.56 5.12 10.96 7.06 14.39 13.31z" class="Vector_72"/>
    <path fill="#202020" d="M201.61 333.33l-.18 2.09h-4.82l.22-2.51 4.78.42z" class="Vector_73"/>
    <path fill="#202020" d="M201.43 335.42l-.01.05h-4.81v-.05h4.82z" class="Vector_74"/>
    <path fill="#202020" d="M196.88 343.171c-.1 0-.2.03-.29.08h-.67l.69-7.78h4.81l-.68 7.78h-3.57a.603.603 0 00-.29-.08z" class="Vector_75"/>
    <path fill="#7DCFB1" d="M190.96 335.471l.01 7.77c-.01 0-.01 0-.02.01h-3.58l-.01-7.78h3.6z" class="Vector_76"/>
    <path fill="#7DCFB1" d="M190.96 335.42h-3.6v.05h3.6v-.05z" class="Vector_77"/>
    <path fill="#7DCFB1" d="M190.96 330.301h-3.6v5.12h3.6v-5.12z" class="Vector_78"/>
    <path fill="#5A626C" d="M189.18 326.26l1.78 3.5-3.62-.03 1.84-3.47z" class="Vector_79"/>
    <path fill="#7DCFB1" d="M182.06 335.471l.07 7.78h-1.38l-1.12-7.78h2.43z" class="Vector_80"/>
    <path fill="#7DCFB1" d="M182.06 335.42v.05h-2.43l-.01-.05h2.44z" class="Vector_81"/>
    <path fill="#7DCFB1" d="M182.01 330.231l.05 5.19h-2.44l-1.12-7.78 3-.5.51 3.09z" class="Vector_82"/>
    <path fill="#5A626C" d="M178.25 325.949l.84-2.5 2.33 3.15-3 .47-.16-1.12h-.01z" class="Vector_83"/>
    <path fill="#7DCFB1" d="M176.2 336.871l.92 6.38h-2.44l-2.81-7.78h3.82l.51 1.4z" class="Vector_84"/>
    <path fill="#7DCFB1" d="M175.67 335.42l.02.05h-3.82l-.02-.05h3.82z" class="Vector_85"/>
    <path fill="#7DCFB1" d="M174.66 332.619l1.01 2.8h-3.82l-.57-1.57 3.38-1.23z" class="Vector_86"/>
    <path fill="#5A626C" d="M174.48 332.11l-3.41 1.2.55-3.88 2.86 2.68z" class="Vector_87"/>
    <g class="Group_3">
      <path fill="#0D0D0D" d="M695.66 482.261h3.65c-.66-.03-1.26-.25-1.77-.62-.55.37-1.19.59-1.88.62z" class="Vector_88"/>
      <path fill="#0D0D0D" d="M695.34 474.67v.02l-1.59 5.249 1.59-5.25a3.792 3.792 0 00-3.68 3.79c0 2.09 1.7 3.79 3.8 3.79.063 0 .118-.002.179-.009h.021a3.63 3.63 0 001.88-.62c-.97-.67-1.61-1.84-1.61-3.16 0-1.33.64-2.5 1.61-3.17.52-.37 1.13-.6 1.79-.62v-.02h-3.99z" class="Vector_89"/>
      <path fill="#0D0D0D" d="M202.521 344.131H173.73v36.538a.6.6 0 001.2 0v-8.039h10.071v-.001h.309l.001.001h3.679v.001h.151l-.27-.749-.001-.002.271.75H202.521v.001h-.601v8.04c0 .33.26.6.601.6v-.002a.6.6 0 00.599-.6v-36.538h-.599zm-27.591.31h4.44v1.188l1.17 3.25h.031v-4.438H185.001v3.948l.08.49h1.13v-4.438h4.43v4.438h.32l.01-.38v.001l-.01.38h.01v-.001h.87v-4.438h4.44v4.438h1.199v-4.438H201.92v4.438h.601v.002H185.081l-.08-.49v.49h-4.461l-1.17-3.25v3.25H174.93v-4.44zm26.99 5.64v4.439H197.48v-4.439H201.92zm-5.639 0v4.439h-4.44v-4.439H196.281zm-5.64 0v4.439h-4.43v-4.439h4.43zm-5.64 0v4.439h-4.43V350.079h.409v.002h4.021zm-10.071 0h4.44v4.439h-4.44v-4.439zm-.599 10.078h.599v-4.44h27.591v.002h-.601v4.439H197.48v-4.439h-1.199v4.439H191.841v-4.439h-1.2v4.439h-4.43v-4.439h-1.21v4.439h-4.43v-4.439h-1.201v4.439H174.331v-.001zm22.55 4.23a.6.6 0 00.599-.6v-2.429h4.44v4.429h-10.079v-4.429H196.281v2.429c0 .33.269.6.6.6zm-6.24-3.029v4.429H186.211v-4.429h4.43zm-5.64 0v4.429h-4.43v-4.429H185.001zm-5.631 0v4.429h-4.44v-4.429h4.44zm22.55 5.63v4.44H191.841v-4.44h-1.2v4.44h-4.43v-4.44h-1.21v4.439h.149l.001.001h-4.58V366.99h-1.201v4.44H174.331v-.001h.599v-4.44h27.591v.001h-.601zm1 4.44h-.399v-.001h.399v.001zm0-11.27h-.399v-.001h.399v.001z" class="Vector_90"/>
      <path fill="#0D0D0D" d="M202.92 343.25h-.11a.599.599 0 00-.289-.08c-.11 0-.211.03-.3.08h-5.051a.6.6 0 00-.29-.08c-.099 0-.2.03-.289.08H191.531a.606.606 0 00-.291-.08c-.05 0-.1.01-.139.02v-.001a.29.29 0 00-.13.05v.001c-.01 0-.01 0-.02.01h-5.05a.614.614 0 00-.3-.08c-.101 0-.2.03-.291.08h-5.05a.602.602 0 00-.289-.08c-.101 0-.2.03-.291.08h-5.06a.599.599 0 00-.289-.08.602.602 0 00-.601.6V344.13h1.2v-.001h.07v.001H203.12v-.36c0-.18-.08-.34-.2-.44v-.08zm-27.99.521a.56.56 0 00-.229-.459v-.002c.14.1.229.27.229.46v.001zm16.171-.521h-.13v-.001h.13v.001z" class="Vector_91"/>
      <path fill="#0D0D0D" d="M190.641 372.631V377c0 .2.1.39.26.49.02.02.05.04.08.04.08.05.17.07.26.07.33 0 .6-.27.6-.6v-4.369h-1.2z" class="Vector_92"/>
      <path fill="#0D0D0D" d="M185.311 372.631h-.31v.588l.06-.01v.002l-.06.01v7.449c0 .33.27.6.6.6.34 0 .61-.27.61-.6V372.631h-.9zm.07.201l.29 1.748-.29-1.749v.001z" class="Vector_93"/>
      <path fill="#0D0D0D" d="M179.37 376.051c0 .33.27.6.6.6.33 0 .6-.27.6-.6v-3.42h-1.2v3.42z" class="Vector_94"/>
    </g>
    <path fill="#fff" d="M137.53 460.41v1.64h-16.21c.21-.53.5-1.07.88-1.64h15.33z" class="Vector_95"/>
    <path fill="#fff" d="M137.53 441.73v1.64h-16.21c.21-.52.5-1.07.88-1.64h15.33z" class="Vector_96"/>
    <path fill="#fff" d="M137.53 465.4v4.62h-.01v-1.26h-14.66c-.44-.57-.81-1.11-1.09-1.64h15.75v-1.72h.01z" class="Vector_97"/>
    <path fill="#fff" d="M137.53 463.77v1.63H121.04c-.14-.55-.19-1.09-.14-1.63h16.63z" class="Vector_98"/>
    <path fill="#fff" d="M137.53 446.73v4.62h-.01v-1.26h-14.65c-.44-.57-.81-1.11-1.1-1.64h15.75v-1.72h.01z" class="Vector_99"/>
    <path fill="#fff" d="M137.53 445.09v1.64H121.04c-.14-.55-.19-1.09-.14-1.64h16.63z" class="Vector_100"/>
    <path fill="#5CC29D" d="M112.61 437.6h13.11c-.86.87-1.6 1.66-2.22 2.41h-10.89v-2.41z" class="Vector_101"/>
    <path fill="#5CC29D" d="M112.61 456.279h13.11c-.86.87-1.6 1.66-2.22 2.41h-10.89v-2.41z" class="Vector_102"/>
    <path fill="#FFF8F0" d="M740.2 31.03H607.54c-8.84 0-16 7.17-16 16v16.3c.27 0 .5.22.5.5v73.879h81.86V34.199c0-.28.22-.5.5-.5s.5.22.5.5v103.51h80.8v-73.88c0-.28.22-.5.5-.5v-16.3c0-8.83-7.17-16-16-16zm-5.17 49.82l-29.71 52.629c-.1.16-.27.26-.44.26a.59.59 0 01-.25-.07.503.503 0 01-.19-.68l29.72-52.64c.13-.24.44-.32.68-.19.24.14.32.45.19.69zm0-17.09l-29.71 52.629a.524.524 0 01-.69.19.505.505 0 01-.19-.68l29.72-52.63c.13-.25.44-.33.68-.19.24.13.32.44.19.68z" class="Vector_103"/>
    <path fill="#FFF8F0" d="M680.96 258.199h74.74v-119.49h-80.8v103.23h3.48c2.11 0 4.05 2.98 4.4 5.45.16.57.18 1.18.05 1.8l-1.87 9.01z" class="Vector_104"/>
    <path fill="#FFF8F0" d="M755.7 308.269v-49.07h-74.95l-5.85 28.11v48.11h81.3v-26.65c-.28 0-.5-.22-.5-.5zm-20.67-27.27l-29.71 52.64a.524.524 0 01-.69.19.505.505 0 01-.19-.68l29.72-52.64c.13-.24.44-.32.68-.19.24.14.32.44.19.68zm0-17.09l-29.71 52.64a.524.524 0 01-.69.19.505.505 0 01-.19-.68l29.72-52.64c.13-.24.44-.32.68-.19.24.14.32.44.19.68z" class="Vector_105"/>
    <path fill="#FFF8F0" d="M701.15 467.549h-22.36c-.47 2.31-.92 4.61-1.35 6.89.96-.89 2.24-1.42 3.65-1.42a5.45 5.45 0 11-4.84 7.95c-.49 2.84-.95 5.64-1.35 8.38.17.04.34.05.51.05h25.74c1.4 0 2.59-.97 2.91-2.28-.08-.28-.16-.55-.23-.81-.26-.96-.49-1.79-.66-2.46-.16-.68-.28-1.23-.31-1.62-.06-.71-.2-1.25-.4-1.67-.63 1.03-1.72 1.71-2.97 1.71-.04 0-.09 0-.13-.01a5.365 5.365 0 01-3.9 1.66 5.45 5.45 0 110-10.9c1.54 0 2.93.64 3.91 1.67.04-.01.08-.01.12-.01 1.97 0 3.56 1.7 3.56 3.8 0 .32-.04.63-.11.93.49.65.81 1.54.91 2.74.03.3.13.78.29 1.45 0 .01.01.03.01.04v-13.09c0-1.66-1.35-3-3-3z" class="Vector_106"/>
    <path fill="#FFF8F0" d="M675.64 478.469c0-.75.15-1.46.43-2.11v-.01c.53-2.91 1.1-5.85 1.7-8.8h-2.36c-1.66 0-3 1.34-3 3v15.85c0 1.12.62 2.1 1.53 2.62.5-3.39 1.08-6.86 1.71-10.38-.01-.06-.01-.11-.01-.17z" class="Vector_107"/>
    <path fill="#FFF8F0" d="M673.9 292.109l-9.01 43.31h9.01v-43.31z" class="Vector_108"/>
    <path fill="#FFF8F0" d="M673.9 138.709h-81.86V241.939h81.86v-103.23z" class="Vector_109"/>
    <path fill="#FFF8F0" d="M414.68 407.849c-1.69-.52-3.32-.96-4.89-1.32-1.65-.38-3.22-.66-4.72-.85a38.81 38.81 0 00-4.22-.24c-1.35 0-2.76.09-4.24.27-.25.02-.51.06-.77.1-15.75 2.36-39.49 14.72-65.74 31.6h81.23c.94 0 1.84-.16 2.67-.46 3.68-1.3 6.05-5.21 5.13-9.29l-4.45-19.81z" class="Vector_110"/>
    <path fill="#FFF8F0" d="M328.96 377.34c6.71 0 12.18 2.55 12.44 5.73h27.43c.4-.86 2.67-5.73 4.67-5.73l.28.01c.06-.01.11-.01.17-.01h33.88l-4.99-22.22-4.72-21.01a.498.498 0 01-.45-.38l-11.36-51.84a.5.5 0 01.02-.27v-.01l-7.93-35.29a8 8 0 00-7.8-6.25h-95.72c-2.77 0-5.16 1.39-6.59 3.46-1.21 1.75-1.73 4-1.22 6.3l23.65 105.29 1.84 8.21s0-.01.01 0c.09.06.15.16.18.28l4.33 19.46h19.44c.26-3.18 5.73-5.73 12.44-5.73z" class="Vector_111"/>
    <path fill="#FFF8F0" d="M407.49 396.29c1.55.29 3.17.69 4.86 1.18l-.5-2.22H299.8l4.66 20.95c.01.04.01.07.01.11v.01l3.33 14.84a8.012 8.012 0 007.81 6.25h3.28c33.66-24.07 64.58-41.82 82.04-41.82 2.01 0 4.21.24 6.56.7z" class="Vector_112"/>
    <path fill="#FFF8F0" d="M277.92 229.16l24.82.26 14.95.15 36.16.38h.21c2.1.03 3.67-1.9 3.24-3.96l-8.2-38.35a3.28 3.28 0 00-3.17-2.59l-76.14-.8a3.263 3.263 0 00-3.3 3.16c-.02.27 0 .54.06.81l8.2 38.35a3.28 3.28 0 003.17 2.59z" class="Vector_113"/>
    <path fill="#FFF8F0" d="M191.4 25.44H58.74c-8.84 0-16 7.16-16 16v44.27c.28 0 .5.23.5.5v51.499h81.86V34.199c0-.28.22-.5.5-.5s.5.22.5.5v103.51h80.8v-51.5c0-.27.22-.5.5-.5V41.44c0-8.84-7.16-16-16-16zm-5.17 55.41l-29.71 52.629c-.09.16-.26.26-.44.26-.08 0-.17-.03-.24-.07a.494.494 0 01-.19-.68l29.71-52.64c.13-.24.44-.32.68-.19.24.14.33.45.19.69zm0-17.09l-29.71 52.629a.5.5 0 01-.44.25c-.08 0-.17-.02-.24-.06a.497.497 0 01-.19-.68l29.71-52.63c.13-.25.44-.33.68-.19.24.13.33.44.19.68z" class="Vector_114"/>
    <path fill="#FFF8F0" d="M206.9 138.709h-80.8v119.49h80.8v-119.49z" class="Vector_115"/>
    <path fill="#FFF8F0" d="M206.9 330.659v-71.46h-80.8v76.22h45.75l-.57-1.57 3.38-1.23 1.01 2.8h.32l-1.29-8.96 3.55-.51.84-2.5 2.33 3.15-3 .47.08.57 3-.5.51 3.09-.1-11.03 4.8-.05.15 16.27h.5v-5.12h3.6v5.12h.33l.23-9.65 3.6.09-.23 9.56h1.72l.22-2.51 4.78.42-.18 2.09h5.97v-4.26c-.28 0-.5-.23-.5-.5zm-35.83 2.65l.55-3.88 2.86 2.68-3.41 1.2zm3.51-7.48l1.31-3.69 2.27 3.19-3.58.5zm7.34-7.41l2.42-6.04 2.41 6.04h-4.83zm5.42 11.31l1.84-3.47 1.78 3.5-3.62-.03zm4.18-4.53l1.92-3.42 1.7 3.54-3.62-.12zm5.37 6.94l2.75-3.39 2.09 3.83-4.84-.44z" class="Vector_116"/>
    <path fill="#FFF8F0" d="M43.24 330.659c0 .27-.22.5-.5.5v4.26h82.36v-76.22H43.24v71.46z" class="Vector_117"/>
    <path fill="#FFF8F0" d="M43.24 258.199h81.86v-119.49H43.24v119.49zm19.6-31.16l29.72-52.63c.13-.24.44-.33.68-.19.24.13.32.44.19.68l-29.71 52.63c-.1.17-.27.26-.44.26-.08 0-.17-.02-.25-.07a.503.503 0 01-.19-.68zm0 17.09l29.72-52.63c.13-.24.44-.33.68-.19.24.13.32.44.19.68l-29.71 52.63c-.1.17-.27.26-.44.26-.08 0-.17-.02-.25-.07a.503.503 0 01-.19-.68z" class="Vector_118"/>
    <path fill="#5CC29D" d="M124.34 451.811H83.35v-.01h40.98l.01.01z" class="Vector_119"/>
    <path fill="#fff" d="M122.87 450.089H82c-.39-.56-.7-1.1-.93-1.64h40.7c.29.53.66 1.07 1.1 1.64z" class="Vector_120"/>
    <path fill="#fff" d="M122.86 468.759H81.99c-.39-.56-.7-1.1-.93-1.64h40.71c.28.53.65 1.07 1.09 1.64z" class="Vector_121"/>
    <path fill="#fff" d="M82.01 441.73h40.19c-.38.57-.67 1.12-.88 1.64H81.08c.23-.53.54-1.08.93-1.64z" class="Vector_122"/>
    <path fill="#fff" d="M82.01 460.41h40.19c-.38.57-.67 1.11-.88 1.64H81.08c.23-.53.54-1.08.93-1.64z" class="Vector_123"/>
    <path fill="#fff" d="M121.04 446.73H80.55c-.08-.55-.07-1.1.01-1.64h40.34c-.05.55 0 1.09.14 1.64z" class="Vector_124"/>
    <path fill="#fff" d="M121.04 465.4H80.55c-.08-.55-.07-1.09.01-1.63h40.34c-.05.54 0 1.08.14 1.63z" class="Vector_125"/>
    <g class="Group_4">
      <path fill="#26303D" d="M501.061 380.08v.03l.04-.03h-.04z" class="Vector_126"/>
      <path fill="#26303D" d="M483.06 383.07h-2.45v-2.92H391.59v2.92h-2.45v-2.92h-18c0-1.49 1.16-2.72 2.64-2.8l-.28-.01c-2 0-4.27 4.87-4.67 5.73l-.05.13h127.94l.18-.13 4.1-2.92h-17.94v2.92z" class="Vector_127"/>
      <path fill="#26303D" d="M124.33 470.48H83.35c.41.47.87.949 1.38 1.459h-.001c-.51-.51-.97-.989-1.379-1.459-.14-.15-.28-.31-.4-.46-.36-.43-.68-.85-.96-1.26h-3.87V471.939 468.76h-2.1v-.001h2.1V465.4h-2.1v-.001h2.1v-3.348h-2.09v-.002h2.09v-5.77h-5.83v16.61h13.439l.001.001h55.15v-2.41h-16.55z" class="Vector_128"/>
      <path fill="#26303D" d="M83.35 451.811c.42.47.87.949 1.38 1.449h-.001c-.51-.5-.96-.979-1.379-1.449v-.01h-5.23v1.459-8.17h-2.09v-.001h2.09V437.6h-5.83v16.61h13.439l.001.001h55.15v-2.4H83.35z" class="Vector_129"/>
      <path fill="#26303D" d="M112.61 458.689v-2.41H85.73c-.91.85-1.7 1.65-2.37 2.41h29.25z" class="Vector_130"/>
      <path fill="#26303D" d="M83.36 440.01h29.25v-2.41H85.73c-.91.85-1.7 1.65-2.37 2.41z" class="Vector_131"/>
      <path fill="#26303D" d="M78.12 463.77v4.989h3.87c-.39-.56-.7-1.1-.93-1.64a6.348 6.348 0 01-.51-1.719c-.08-.55-.07-1.089.01-1.629.08-.57.25-1.13.52-1.72h-2.96v1.719z" class="Vector_132"/>
      <path fill="#26303D" d="M78.12 462.05h2.96c.23-.53.54-1.08.93-1.64H78.12v1.64z" class="Vector_133"/>
      <path fill="#26303D" d="M82.96 451.35c-.36-.43-.69-.85-.96-1.26h-3.88v1.71h5.23c-.14-.15-.27-.3-.39-.45z" class="Vector_134"/>
      <path fill="#26303D" d="M79.26 450.089H82c-.39-.56-.7-1.1-.93-1.64-.27-.58-.44-1.15-.52-1.719-.08-.55-.07-1.1.01-1.64h-2.44v4.999h1.14z" class="Vector_135"/>
      <path fill="#26303D" d="M79.26 445.089h1.3c.08-.57.25-1.13.52-1.719.23-.53.54-1.08.93-1.64.38-.56.83-1.13 1.35-1.72.67-.76 1.46-1.56 2.37-2.41H78.12V445.089h1.14z" class="Vector_136"/>
      <path fill="#26303D" d="M79.01 456.279h-.89v4.13H82.01c.38-.56.83-1.13 1.35-1.72.67-.76 1.46-1.56 2.37-2.41h-6.72z" class="Vector_137"/>
    </g>
    <path fill="#202020" d="M91.19 491.75l-.14 1.67H88.4a.337.337 0 00-.17-.05c-.07 0-.13.02-.18.05h-.02l.16-1.92 3 .25z" class="Vector_138"/>
    <g class="Group_5">
      <path fill="#49515C" d="M699.49 474.68a.54.54 0 00-.12.01v-.001a.03.03 0 00-.04 0c-.66.02-1.27.25-1.79.62 1.03.67 1.71 1.84 1.71 3.17v.001a3.777 3.777 0 00-1.71-3.169c-.97.67-1.61 1.84-1.61 3.17 0 1.32.64 2.49 1.61 3.16l.001-.001a3.23 3.23 0 001.769.619c.02.01.03.01.05 0 .07-.07.14-.14.19-.21.7-.78 1.16-1.75 1.3-2.83-.1-.03-.2-.04-.3-.05a.518.518 0 01-.45-.55.51.51 0 01.55-.45c.08.01.17.02.25.04v.001c.68.11 1.34.4 1.87.99.06.07.12.14.17.21.07-.3.11-.61.11-.93 0-2.1-1.59-3.8-3.56-3.8z" class="Vector_139"/>
      <path fill="#49515C" d="M700.849 479.221c-.14 1.08-.6 2.05-1.3 2.83-.05.07-.12.14-.19.21.04.01.09.01.13.01 1.25 0 2.34-.68 2.97-1.71-.12-.28-.27-.5-.43-.68a2.16 2.16 0 00-1.18-.66z" class="Vector_140"/>
      <path fill="#49515C" d="M239.06 330.66l-1.27 4.15h30.27l-.85-4.15h-28.15z" class="Vector_141"/>
      <path fill="#49515C" d="M191.289 335.42l-.01.05h3.61v-.05l.23-9.56-3.6-.09-.23 9.65z" class="Vector_142"/>
      <path fill="#49515C" d="M191.1 343.191a.59.59 0 01.14-.02c.1 0 .2.03.29.08h3.17l.19-7.78h-3.61l-.18 7.72z" class="Vector_143"/>
      <path fill="#49515C" d="M182.87 335.471h-.81l.07 7.78H185.31c.09-.05.19-.08.29-.08.11 0 .21.03.3.08h1.03l-.07-7.78h-3.99z" class="Vector_144"/>
      <path fill="#49515C" d="M182.06 335.47H186.86v-.05l-.15-16.27-4.8.05.1 11.03.05 5.19v.05z" class="Vector_145"/>
      <path fill="#49515C" d="M179.22 335.471H176l.2 1.4.001.002.919 6.376h1.389l.001.002h1.17c.09-.05.19-.08.29-.08.1 0 .2.03.29.08h.49l-1.12-7.78h-.41z" class="Vector_146"/>
      <path fill="#49515C" d="M175.99 335.42l.01.05H179.63l-.01-.05-1.12-7.779-.549.09-.001-.002.55-.09-.08-.57-.16-1.12h-.01l-3.55.51 1.29 8.96h3.23v.001h-3.23z" class="Vector_147"/>
      <path fill="#49515C" d="M84.71 493.37c.06 0 .12.02.16.05h2.1l.15-6.34-2.25-.06-.16 6.35z" class="Vector_148"/>
      <path fill="#49515C" d="M78.86 482.911l.09 10.51h2.04a.345.345 0 01.36 0h.6l-.09-10.54-3 .03z" class="Vector_149"/>
      <path fill="#49515C" d="M74.34 487.461l.86 5.96h2.26c0-.01.01 0 .01 0v-.01l-.9-6.27-2.23.32z" class="Vector_150"/>
    </g>
    <path fill="#FF8366" fill-rule="evenodd" d="M380.59 198.82h136.62c2.76 0 5-2.24 5-5v-2.08h6.21c2.76 0 5-2.24 5-5V71.43c0-2.76-2.24-5-5-5H391.8c-2.76 0-5 2.24-5 5v2.08h-6.21c-2.76 0-5 2.24-5 5v115.31c0 2.76 2.24 5 5 5zm7.21-125.31v-2.08c0-2.21 1.8-4 4-4h136.62c2.21 0 4 1.79 4 4v115.31c0 2.21-1.79 4-4 4H391.8c-2.2 0-4-1.79-4-4V73.51zm136.11 11.81v17.42c-.14-.06-.29-.08-.44-.08-.2 0-.39.04-.56.11V85.32h1zm0 33.29a1.471 1.471 0 01-1-.04v63.25h1v-63.21zm67.13 77.451v24.75h-38.35v-12.38h17.9v-12.37h20.45zM105.46 362.21h-17.9v12.37H32.33v-12.37h17.91V349.83h55.22V362.21zM530.4 227.039h-16.36c-1.65 0-3.01 1.34-3.02 3h-2.72c-.68 0-1.3.27-1.74.72-.45.45-.73 1.07-.73 1.75 0 1.36 1.11 2.47 2.47 2.47h16.44c.68 0 1.3-.28 1.74-.73.32-.31.55-.72.66-1.17h3.26c1.67 0 3.02-1.36 3.02-3.02 0-1.67-1.35-3.02-3.02-3.02zm0 5.04h-16.36c-1.11 0-2.02-.91-2.02-2.02v-.02c.01-1.11.92-2 2.02-2h16.36a2.02 2.02 0 010 4.04zM467.24 111.08h40.32v1h-40.32v-1zM493 154.43h-25.76v1H493v-1zm-25.76-7.651H493v1h-25.76v-1zm25.76-7.65h-25.76v1H493v-1zm-25.76-7.649H493v1h-25.76v-1zM530.4 213h-38.19a3.024 3.024 0 00-3.019 3.1v.017l.001.021c.002.045.007.09.018.132h-1.75c-.68 0-1.3.28-1.74.72-.45.45-.73 1.06-.73 1.75 0 1.36 1.11 2.47 2.47 2.47h32.28c.68 0 1.3-.28 1.74-.72.38-.38.64-.89.71-1.45h8.21c1.67 0 3.02-1.36 3.02-3.02 0-1.67-1.35-3.02-3.02-3.02zm0 5.04h-38.19a2.02 2.02 0 01-2-1.77l-.004-.031-.004-.037-.003-.023a1.603 1.603 0 01-.009-.159c0-1.12.91-2.02 2.02-2.02h38.19a2.02 2.02 0 010 4.04zm-89.17-83.349h-2.71a2 2 0 01-2-2v-1.88c0-1.11.89-2 2-2h2.71a2 2 0 012 2v1.88c0 1.1-.9 2-2 2zm-2.71-8.791h2.71a2 2 0 002-2v-1.88c0-1.101-.9-2-2-2h-2.71c-1.11 0-2 .899-2 2v1.88c0 1.11.89 2 2 2zm2.71-8.78h-2.71a2 2 0 01-2-2v-1.89a2 2 0 012-2h2.71c1.1 0 2 .9 2 2v1.89c0 1.1-.9 2-2 2zm-12.42 26.35h2.71a2 2 0 002-2v-1.88c0-1.1-.9-2-2-2h-2.71a2 2 0 00-2 2v1.88c0 1.11.89 2 2 2zm2.71-8.779h-2.71a2 2 0 01-2-2v-1.88c0-1.11.89-2 2-2h2.71a2 2 0 012 2v1.88c0 1.1-.9 2-2 2zm-2.71-8.791h2.71a2 2 0 002-2v-1.88c0-1.101-.9-2-2-2h-2.71c-1.11 0-2 .899-2 2v1.88c0 1.11.89 2 2 2zm2.71-8.78h-2.71a2 2 0 01-2-2v-1.89a2 2 0 012-2h2.71c1.1 0 2 .9 2 2v1.89c0 1.1-.9 2-2 2zm98.88 81.839H436c-1.66 0-3.01 1.35-3.01 3.02 0 .17.01.34.05.51h-4.77c-.69 0-1.3.28-1.75.72-.44.45-.72 1.07-.72 1.75 0 1.37 1.1 2.47 2.47 2.47h91.47c.68 0 1.3-.28 1.74-.72.44-.44.72-1.04.73-1.71h8.19c1.67 0 3.02-1.36 3.02-3.02 0-1.67-1.35-3.02-3.02-3.02zm0 5.04H436c-.93 0-1.72-.64-1.94-1.51a1.7 1.7 0 01-.07-.51c0-1.11.9-2.02 2.01-2.02h94.4a2.02 2.02 0 010 4.04zM421.81 143.47h-2.71c-1.11 0-2-.89-2-2v-1.88a2 2 0 012-2h2.71c1.1 0 2 .9 2 2v1.88a2 2 0 01-2 2zm-2.71-8.779h2.71c1.1 0 2-.9 2-2v-1.88a2 2 0 00-2-2h-2.71c-1.11 0-2 .89-2 2v1.88a2 2 0 002 2zm2.71-8.791h-2.71c-1.11 0-2-.89-2-2v-1.88c0-1.101.89-2 2-2h2.71c1.1 0 2 .899 2 2v1.88a2 2 0 01-2 2zm-2.71-8.78h2.71c1.1 0 2-.9 2-2v-1.89c0-1.1-.9-2-2-2h-2.71a2 2 0 00-2 2v1.89a2 2 0 002 2zm36.98 60.45h-51.83c-.28 0-.5-.22-.5-.5 0-.27.22-.5.5-.5h51.83c.27 0 .5.23.5.5 0 .28-.23.5-.5.5zm-121.47-69.74h-55.22V95.46h-17.9V83.09h55.22v12.37h17.9v12.37zm-92.62 257.449h21.62l1.36-10.16 1.02-7.59H239.86l.91 7.59 1.22 10.16zm3-10.16v-.01c.64-3.94 4.05-6.74 7.92-6.74.43 0 .86.03 1.3.1 3.51.57 6.11 3.33 6.64 6.65.15.83.15 1.7.01 2.57-.64 3.94-4.05 6.74-7.92 6.74-.43 0-.86-.03-1.3-.1-4.38-.71-7.36-4.83-6.65-9.21zM674.9 335.42H765.83v8.71H663.08l.64-3.07 1.17-5.64h10.01zm-82.69 116.23H532.51v13.36h77.76v-13.36h-18.06zm-389.4-108.4a.603.603 0 00-.29-.08.61.61 0 00-.3.08h-1.48l.68-7.78.01-.05H217.03v8.71h-13.91v-.36c0-.18-.08-.34-.2-.44v-.08h-.11zm-6.2-7.78v-.05h-1.72v.05l-.19 7.78h1.22l.69-7.78zm-5.33 0l-.18 7.72c-.05.01-.09.02-.13.05l-.01-7.77v-.05h.33l-.01.05zm-3.91 7.78l-.01-7.78v-.05h-.5v.05l.07 7.78h.44zM176 335.47l.2 1.4-.51-1.4-.02-.05h.32l.01.05zm-2.45 8.38h.18v-.08c0-.33.27-.6.6-.6.1 0 .2.03.29.08h.06l-2.81-7.78-.02-.05H32.04v8.71h141.51v-.28zm-70.58 173.73h48.66v1.44h-48.66v-1.44zm48.66-2.16h-48.66v1.43h48.66v-1.43zm-48.66-2.16h48.66v1.43h-48.66v-1.43zm48.66-2.17h-48.66v1.43h48.66v-1.43zm-48.66-2.16h48.66v1.43h-48.66v-1.43zm48.66-2.17h-48.66v1.43h48.66v-1.43zm-48.66-2.16h48.66v1.43h-48.66v-1.43zm48.66-2.17h-48.66v1.43h48.66v-1.43zm-48.66-2.16h48.66v1.43h-48.66v-1.43zm48.65-2.17h-48.65v1.44h48.65v-1.44zm-48.65-2.161h48.65v1.43h-48.65v-1.43zm48.65-2.16h-48.65v1.43h48.65v-1.43zm-48.65-2.17h48.65v1.43h-48.65v-1.43zm48.65-8.66h-48.66v1.44h48.66v-1.44zm-50.22 6.5h48.65v1.43H101.4v-1.43zm50.22-2.17h-48.66v1.43h48.66v-1.43zm-50.82-2.16h48.66v1.43H100.8v-1.43zm-9.42 12.58H88.6v2.78H91.38v-2.78zm-.39-3.529h.39v2.78H88.6v-2.78h2.39zm-1.04-5.279l-1.72 2.12 3.03.27-1.31-2.39zM88.6 504.01v-2.78H91.38v2.78H88.6zm-1.81 4.279h-1.72v2.78h6.31v-2.78h-4.59zm.29-3.529h.77v1.53a.376.376 0 00.75 0v-1.53H91.38v2.78H85.07v-2.78H87.08zm.36-4.281h.41v-2.78H85.07v2.78h2.37zm-2.57-13.81l1.21-2.14 1.06 2.21-2.27-.07zm.2 7.501v2.78H87.85v-2.78h-2.78zm1.64 9.84h-1.64v-2.78H87.85v2.78h-1.14zm-2.39.75h-2.78v2.78H84.32v-2.78zm-2.3-3.53h2.3v2.78H81.54v-2.78h.48zm2.3-3.531H81.54v2.78h2.78v-2.78zm-2.33-.749h-.45v-2.78h2.78v2.78h-2.33zm-.45 14.119h2.78V508.289H81.54v2.78zm-2.68-28.648l1.51-3.78 1.52 3.78h-3.03zm1.16 28.648h.77v-2.78H78.01v2.78H80.02zm.77-3.529H78.01v-2.78H80.79v2.78zm-1.74-3.53h1.74v-2.78h-2.78v2.78h1.04zm1.74-9.84v2.78H78.01v-2.78H80.79zm-1.77 6.309h1.77v-2.78H78.01v2.78h1.01zm-4.53 7.81h2.77v2.78h-2.77v-2.78zm2.77-3.529h-2.77v2.78h2.77v-2.78zm-.94-3.53h.94v2.78h-2.77v-2.78h1.83zm.94-3.531h-2.77v2.78h2.77v-2.78zm-1.95-3.529h1.95v2.78h-2.77v-2.78h.82zm-.23-9.42l-.82 2.31 2.25-.31-1.43-2zm16.3 32.099c0 .21.17.37.37.37v1.29H73.62v-24.71h.12v23.05c0 .21.16.37.37.37s.38-.16.38-.37v-5.03h2.77v2.14c0 .2.17.37.38.37s.37-.17.37-.37v-2.14H80.79v5.03c0 .21.17.37.38.37s.37-.16.37-.37v-5.03H84.32v2.73c0 .21.17.38.38.38.2 0 .37-.17.37-.38v-2.73H91.38v5.03zm607.99-42.159a5.376 5.376 0 00-3.91-1.67 5.45 5.45 0 100 10.899c1.53 0 2.92-.63 3.9-1.659-.02.01-.03.01-.05 0h-3.65l-.023.002a.153.153 0 01-.03.003l-.041.003c-.035.002-.069.002-.106.002a3.79 3.79 0 01-.12-7.58v-.021h3.99v.021a.03.03 0 01.04 0zm-14.5-91.62h21.48c3.31 0 6 2.69 6 6v.18c0 3.32-2.69 6-6 6h-13.83c.06-1.92 0-3.63-.2-5.09-.26-1.87-.74-3.39-1.54-4.44-.49-.66-1.3-1.18-2.31-1.61-.97-.42-2.18-.76-3.6-1.04zm6.46 7.219c-.25-1.79-.7-3.12-1.35-3.97-.34-.46-.96-.89-1.89-1.29-.93-.39-2.12-.73-3.56-1.01-2.33-.46-5.25-.76-8.63-.95h-27.56l-.198.006-.019.001c-1.978.058-3.966.116-5.963.183l-2.242.074-1.514.05h-.004c-10.126.335-20.186.668-28.56.596-4.7-.04-8.89-.21-12.26-.58-.86-.1-1.68-.2-2.44-.33H496.9l-.18.13H368.78l.006-.014.013-.033.031-.083H341.4c.02.08.02.17.02.25H316.5c0-.08 0-.17.02-.25h-20.46l-4.29-19.24c-.06-.27.11-.54.38-.6.15-.03.3.01.41.1l-1.84-8.21-23.65-105.29c-.51-2.3.01-4.55 1.22-6.3a8.003 8.003 0 00-5.14 9.3l22.98 102.29 6.28 27.95H93.65c-3.31 0-6 2.69-6 6v.18c0 3.32 2.69 6 6 6H203.8c0-.27.23-.5.5-.5h75.88c.28 0 .5.23.5.5h14.47l8.74 38.91a7.992 7.992 0 007.8 6.25h3.04c1.39-1.01 2.78-2.01 4.16-3h-3.28c-3.74 0-6.99-2.6-7.81-6.25l-3.33-14.84c0 .23-.16.43-.39.48-.03.01-.07.01-.11.01-.23 0-.43-.16-.48-.39l-4.72-21.17h334.28c0-.27.23-.5.5-.5h39.79c.27 0 .5.23.5.5h17.68c.06-1.89 0-3.55-.19-4.96zm-13.89 84.151a5.33 5.33 0 013.65-1.42 5.45 5.45 0 11-4.84 7.949c.38-2.149.77-4.329 1.19-6.529zm-1.79 4.199c.047-.252.092-.504.137-.757.092-.507.183-1.015.283-1.523a5.306 5.306 0 00-.428 2.206.667.667 0 00.008.074zm-350.17-38.23c1.55-1.02 3.09-2.02 4.62-3h81.23c.94 0 1.84-.16 2.67-.46a7.977 7.977 0 01-6.59 3.46h-81.93zM263.05 191.37l8.19 38.35a3.27 3.27 0 003.17 2.59l29.02.3 14.95.16 32.17.34c1.82.02 3.25-1.43 3.3-3.16l-36.16-.38-14.95-.15-24.82-.26a3.28 3.28 0 01-3.17-2.59l-8.2-38.35c-.06-.27-.08-.54-.06-.81h-.2c-2.1-.02-3.68 1.91-3.24 3.96zM68.43 404.9h90.55v6.78h-.03v61.57h.03v4.03h-.03v42.67h.03v17.13H64.66V404.9h3.77zm0 115.05h86.75v-42.67H68.43v42.67zm0-46.7h86.75v-61.57H68.43v61.57z" class="Primary" clip-rule="evenodd"/>
    <g class="Group_6">
      <path fill="#313A47" d="M775.05 258.199H756.7V138.711h18.35c.27 0 .5-.23.5-.5 0-.28-.23-.5-.5-.5H573.75c-.27 0-.5.22-.5.5 0 .27.23.5.5.5h17.29v82.099h1v-82.099h81.86v103.23h1v-103.23h80.8v119.488h-74.74l-.21 1h74.95v49.07c0 .28.22.5.5.5.27 0 .5-.22.5-.5v-49.07h18.35c.27 0 .5-.22.5-.5s-.23-.5-.5-.5z" class="Vector_151"/>
      <path fill="#313A47" d="M761.12 539.529H38.88c-.27 0-.5.22-.5.5s.23.5.5.5h722.24c.27 0 .5-.22.5-.5s-.23-.5-.5-.5z" class="Vector_152"/>
      <path fill="#313A47" d="M756.7 137.71V63.83c0-.28-.23-.5-.5-.5-.28 0-.5.22-.5.5v73.88h1z" class="Vector_153"/>
      <path fill="#313A47" d="M704.63 116.58a.524.524 0 00.69-.19l29.71-52.63c.13-.24.05-.55-.19-.68a.486.486 0 00-.68.19l-29.72 52.63c-.13.24-.05.54.19.68z" class="Vector_154"/>
      <path fill="#313A47" d="M704.63 133.67c.08.04.17.07.25.07.17 0 .34-.1.44-.26l29.71-52.63c.13-.24.05-.55-.19-.69a.503.503 0 00-.68.19l-29.72 52.64c-.13.24-.05.55.19.68z" class="Vector_155"/>
      <path fill="#313A47" d="M704.63 316.74a.524.524 0 00.69-.19l29.71-52.64c.13-.24.05-.54-.19-.68a.503.503 0 00-.68.19l-29.72 52.64c-.13.24-.05.54.19.68z" class="Vector_156"/>
      <path fill="#313A47" d="M704.63 333.83a.524.524 0 00.69-.19L735.03 281c.13-.24.05-.54-.19-.68a.503.503 0 00-.68.19l-29.72 52.64c-.13.24-.05.54.19.68z" class="Vector_157"/>
      <path fill="#313A47" d="M673.9 292.111v43.31h1v-48.11l-1 4.8z" class="Vector_158"/>
      <path fill="#313A47" d="M674.9 34.2c0-.28-.22-.5-.5-.5s-.5.22-.5.5v103.509h1V34.199z" class="Vector_159"/>
      <path fill="#313A47" d="M673.34 395.75c.27 0 .5-.22.5-.5 0-.27-.23-.5-.5-.5h-39.79c-.27 0-.5.23-.5.5 0 .28.23.5.5.5h39.79z" class="Vector_160"/>
      <path fill="#313A47" d="M602.65 537.831c-.1-.09-.19-.18-.29-.27 0 .1-.03.19-.1.27h.39z" class="Vector_161"/>
      <path fill="#313A47" d="M592.04 220.811h-1v21.13h1v-21.13z" class="Vector_162"/>
      <path fill="#313A47" d="M592.04 137.71V63.83c0-.28-.23-.5-.5-.5-.28 0-.5.22-.5.5v73.88h1z" class="Vector_163"/>
      <path fill="#313A47" d="M400.391 479.779c-.27 0-.5.22-.5.5v29.24c0 .28.23.5.5.5.28 0 .5-.22.5-.5v-29.24c0-.28-.22-.5-.5-.5z" class="Vector_164"/>
      <path fill="#313A47" d="M398.12 334.109c.01.01.03.01.04.01.04 0 .07 0 .11-.01.27-.06.44-.33.38-.6l-11.36-51.84a.503.503 0 00-.6-.38.49.49 0 00-.36.32v.01a.5.5 0 00-.02.27l11.36 51.84c.06.22.24.37.45.38z" class="Vector_165"/>
      <path fill="#313A47" d="M339.55 537.309c-.27 0-.5.23-.5.5 0 .28.23.5.5.5 16.97 0 51.89-15.97 51.89-25.86v-58.5h-1v58.5c0 8.6-33.29 24.86-50.89 24.86z" class="Vector_166"/>
      <path fill="#313A47" d="M303.971 416.81c.039 0 .079 0 .11-.01.229-.05.39-.25.39-.48v-.01c0-.04 0-.07-.01-.11l-4.661-20.95h-1.029l4.719 21.17c.051.23.25.39.481.39z" class="Vector_167"/>
      <path fill="#313A47" d="M297.08 383.07l-4.33-19.46a.46.46 0 00-.18-.28l4.43 19.74h.08z" class="Vector_168"/>
      <path fill="#313A47" d="M296.06 383.071h.94l-4.43-19.74c-.01-.01-.01 0-.01 0a.494.494 0 00-.41-.1c-.27.06-.44.33-.38.6l4.29 19.24z" class="Vector_169"/>
      <path fill="#313A47" d="M203.8 395.25c0 .28.23.5.5.5h75.88c.28 0 .5-.22.5-.5 0-.27-.22-.5-.5-.5H204.3c-.27 0-.5.23-.5.5z" class="Vector_170"/>
      <path fill="#313A47" d="M220.511 517.03c-8.11 7.21-15.58 14.01-22.16 20.13 6.95-6.06 14.9-12.84 23.56-20.03l-.018.015a1289.603 1289.603 0 00-23.542 20.016.7.7 0 00-.13.17.565.565 0 000-.001.455.455 0 000-.001c.02-.06.06-.11.11-.16.01-.01.01-.01.02-.01 6.58-6.12 14.05-12.92 22.16-20.13-8.93 7.85-16.79 14.97-23.16 20.89h1.007l.003.002h.001c.09.079.209.119.319.119.06 0 .12-.01.18-.04a.365.365 0 00.128-.079h.002l.001-.001h.229c11.11-9.7 26.71-22.94 44.52-37.33.56-.45 1.13-.9 1.7-1.36 20.48-16.35 43.049-33.5 64.869-48.58l.001.001c2.87-1.99 5.72-3.94 8.56-5.85h-9.42v-.001h9.42c2.22-1.49 4.42-2.95 6.61-4.39a446.126 446.126 0 014.618-2.999h.002c26.25-16.88 49.99-29.24 65.74-31.6-16.34 2.27-40.33 14.76-66.409 31.599h-.001c26.08-16.84 50.07-29.33 66.41-31.6.26-.04.52-.08.77-.1 1.48-.18 2.89-.27 4.24-.27s2.76.08 4.22.24c1.5.19 3.07.47 4.72.85 1.57.36 3.2.8 4.89 1.32 17.22 5.28 40.63 18.62 65.68 35.44 18.61 12.5 38.13 26.91 56.69 41.35 24.16 18.8 46.71 37.66 63.54 52.44.27.23.54.47.8.7.05.04.1.09.15.129.04.041.09.07.14.091.06.03.12.039.18.039.14 0 .28-.06.38-.169.01-.011.02-.03.02-.04.07-.08.1-.17.1-.27a.45.45 0 00-.04-.23.657.657 0 00-.12-.17c-.03-.03-.06-.05-.09-.08h-.002a760.716 760.716 0 00-4.301-3.754l-.017-.016c1.48 1.28 2.92 2.54 4.32 3.77-17.07-16.02-40.23-36.7-65.06-57.26v.001c-44.73-37.06-94.89-73.78-124.7-82.35v-.002c-1.69-.49-3.31-.89-4.86-1.18l.13.56c1.549.32 3.179.74 4.869 1.25v.001c-1.69-.51-3.319-.93-4.869-1.25l-.13-.56c-2.35-.46-4.55-.7-6.56-.7-17.46 0-48.38 17.75-82.04 41.82-1.38.99-2.77 1.99-4.16 3-32.37 23.48-66.85 52.31-94.08 76.49-.04.05-.09.09-.14.13zm233.441-91.584c14.457 8.346 29.979 18.705 45.505 29.89-15.714-11.195-31.236-21.505-45.505-29.89zm124.611 91.449l.018.015c.03.03.07.06.11.09 8.02 7.18 15.42 13.96 21.95 20.08h-.001a1320.44 1320.44 0 00-21.949-20.079 1477.34 1477.34 0 00-41.64-33.62v-.002a1477.141 1477.141 0 0141.512 33.516zm-41.512-35.785v.001c-44.59-37.01-94.67-73.79-124.46-82.56v-.001c29.79 8.77 79.87 45.55 124.46 82.56zM414.43 406.75l.001.001.19.829h-.001l-.189-.829c-1.69-.51-3.32-.94-4.88-1.28v-.001c1.559.34 3.189.77 4.879 1.28zm-104.969 38.72v.001c-30.284 22.395-61.926 48.928-87.383 71.515a.115.115 0 00-.017.014c25.46-22.59 57.11-49.13 87.4-71.53z" class="Vector_171"/>
      <path fill="#313A47" d="M198.331 537.17c-.05.05-.09.1-.11.16a.7.7 0 01.13-.17c-.01 0-.01 0-.02.01z" class="Vector_172"/>
      <path fill="#313A47" d="M155.84 116.58c.07.04.16.06.24.06a.5.5 0 00.44-.25l29.71-52.63c.14-.24.05-.55-.19-.68a.486.486 0 00-.68.19l-29.71 52.63c-.14.24-.05.54.19.68z" class="Vector_173"/>
      <path fill="#313A47" d="M155.84 133.67c.07.04.16.07.24.07.18 0 .35-.1.44-.26l29.71-52.63c.14-.24.05-.55-.19-.69a.503.503 0 00-.68.19l-29.71 52.64c-.14.24-.05.55.19.68z" class="Vector_174"/>
      <path fill="#313A47" d="M126.101 34.2c0-.28-.22-.5-.5-.5s-.5.22-.5.5v103.509h1V34.199z" class="Vector_175"/>
      <path fill="#313A47" d="M93.24 174.221a.494.494 0 00-.68.19l-29.72 52.63c-.13.24-.05.55.19.68.08.05.17.07.25.07.17 0 .34-.09.44-.26l29.71-52.63c.13-.24.05-.55-.19-.68z" class="Vector_176"/>
      <path fill="#313A47" d="M93.24 191.311a.494.494 0 00-.68.19l-29.72 52.63c-.13.24-.05.55.19.68.08.05.17.07.25.07.17 0 .34-.09.44-.26l29.71-52.63c.13-.24.05-.55-.19-.68z" class="Vector_177"/>
      <path fill="#313A47" d="M42.24 330.659c0 .27.22.5.5.5s.5-.23.5-.5v-71.46h81.86v76.22h1v-76.22h80.8v71.46c0 .27.22.5.5.5s.5-.23.5-.5v-71.46h18.35c.27 0 .5-.22.5-.5s-.23-.5-.5-.5H207.9V138.711h18.35c.27 0 .5-.23.5-.5 0-.28-.23-.5-.5-.5H207.9v-51.5c0-.27-.22-.5-.5-.5s-.5.23-.5.5v51.5H43.24v-51.5c0-.27-.22-.5-.5-.5s-.5.23-.5.5v51.5H24.95c-.27 0-.5.22-.5.5 0 .27.23.5.5.5h17.29v119.488H24.95c-.27 0-.5.22-.5.5s.23.5.5.5h17.29v71.46zm83.86-191.948h80.8v119.488h-80.8V138.711zm-82.86 0h81.86v119.488H43.24V138.711z" class="Vector_178"/>
    </g>
    <path fill="#fff" fill-opacity=".2" fill-rule="evenodd" d="M551.293 316.391c-.706-1.955.743-4.018 2.822-4.018h28.122a3 3 0 012.822 1.982l24.766 68.622c-4.68-.04-8.819-.209-12.139-.574-3.352-.368-5.791-.931-7.126-1.714-1.001-.588-1.479-1.423-1.615-2.504-.141-1.116.085-2.491.542-4.097.414-1.457 1.004-3.053 1.633-4.757l.186-.502c.695-1.884 1.419-3.884 1.973-5.915 1.106-4.051 1.564-8.317-.297-12.141-1.614-3.316-4.923-6.203-10.813-8.343 2.77-2.041 2.809-7.456 1.068-12.198-2.197-5.983-5.726-9.201-10.429-9.201-5.109 0-6.256 7.217-5.52 11.86.974 6.157 4.089 10.375 12.131 10.375.55 0 1.051-.073 1.504-.212 6.32 2.116 9.621 4.994 11.16 8.157 1.699 3.493 1.317 7.462.232 11.44-.542 1.984-1.252 3.946-1.947 5.832l-.172.464c-.632 1.711-1.242 3.359-1.671 4.868-.466 1.639-.739 3.173-.573 4.495.171 1.354.804 2.481 2.102 3.242 1.146.671 2.901 1.162 5.109 1.521h-19.804l-24.066-66.682z" class="Vector_179" clip-rule="evenodd"/>
    <path fill="#000" fill-opacity=".1" d="M605.731 465.012h-68.683v5.538h68.683v-5.538z" class="Vector_180"/>
    <path fill="#000" fill-opacity=".23" fill-rule="evenodd" d="M589.083 451.65H592.211l2.363-8.594-11.301-3.035 5.81 11.629zm-16.667 0l.032-.06.289.043-.19-.229 1.486-2.815-3.066.897-6.562-7.963-8.987 7.497 11.31 1.707-3.156.923h8.844z" class="Vector_181" clip-rule="evenodd"/>
    <path fill="#fff" fill-opacity=".19" fill-rule="evenodd" d="M316.714 83.084h-55.228v12.374h55.228V83.084zm253.878 112.975h55.228v12.374h-17.902v12.373H552.69v-12.374h17.902v-12.373zM105.464 349.834H50.236v12.373H32.333v12.374h55.228v-12.373h17.903v-12.374zM279.388 95.459h55.228v12.374h-55.228V95.459z" class="Vector_182" clip-rule="evenodd"/>
  </g>
</svg>
