<svg xmlns="http://www.w3.org/2000/svg" width="1152" height="700" fill="none" viewBox="0 0 1152 700">
  <g class="to_do_list">
    <path fill="#fff" d="M0 0h1152v700H0z"/>
    <path fill="#FFCB56" d="M798.631 239.056l-27.321-16.564 3.467-12.936 22.381 15.24 100.653-79.331 8.722 6.959-107.902 86.632z" class="check"/>
    <path fill="#535F9D" fill-rule="evenodd" d="M302.86 402L245 366l249.523-144L556 258 302.86 402zM340 425l57.86 36L651 317l-61.477-36L340 425zm151.86 97L434 486l249.523-144L745 378 491.86 522zm286.49-138.407c17.87-4.705 41.419 4.303 44.205 6.585 2.15 1.761 5.59 27.532 8.572 49.865 1.846 13.831 3.516 26.344 4.595 31.02 1.132 4.906 8.566 19.569 16.746 35.705 6.044 11.922 12.495 24.648 17.114 34.835l-22.476 13.308c-13.718-26.194-34.897-66.918-37.578-74.423-2.473-6.923-9.546-33.88-12.367-48.928 0 0-4.42 37.781-5.36 60.194-1.3 30.968 0 76.505 0 76.505h-26.275v-81.207s-3.165-81.827 5.3-98.756c1.354-2.709 7.524-4.703 7.524-4.703z" class="Primary" clip-rule="evenodd"/>
    <g class="check list">
      <path fill="#EE7E79" d="M302.86 402L245 366l249.523-144L556 258 302.86 402z" class="color 1" opacity=".2"/>
      <path fill="#EE7E79" d="M397.86 461L340 425l249.523-144L651 317 397.86 461z" class="color 1.1" opacity=".2"/>
      <path fill="#EE7E79" d="M491.86 522L434 486l249.523-144L745 378 491.86 522z" class="color 1.2" opacity=".2"/>
    </g>
    <path fill="#FFCB56" d="M498.545 267L477 259.846v-10.731l17.955 7.154L548.818 174l7.182 3.577L498.545 267z" class="Vector 2.2"/>
    <g class="Girl">
      <path fill="#4B5361" d="M844.561 369.621c-22.706 22.282-63.494 6.33-81.049-4.431-8.068-4.432 3.153-10.445-4.416-21.839-7.568-11.395 4.416-24.372 10.092-30.702 4.541-5.064 3.995-20.89 3.154-28.17-2.103-4.115 3.233-22.656 15.343-23.922 15.138-1.582 27.232 7.463 27.232 14.427 0 6.963 4.099 18.99 15.768 34.183 11.669 15.192 9.146 15.192 7.253 28.486-1.892 13.294 17.346 19.307 6.623 31.968z" class="Hair"/>
      <g class="Body Part">
        <path fill="#EDC7C5" d="M790.659 582.85c1.017-7.846-1.694-13.181-3.177-14.868-2.542 3.29-10.804 2.425-14.617 1.581-9.533 4.429-28.153 13.983-26.374 16.766 1.779 2.784 30.187-1.16 44.168-3.479zM864.799 545.906c-.509 3.543-8.686 7.592-12.711 9.174-4.766 9.49-15.425 19.44-13.028 27.838.445 1.557 36.542-22.461 36.542-27.838 0-5.378-10.168-13.603-10.803-9.174zM787.482 314.12c-13.473-4.808-11.969-20.351-9.533-27.522 3.495 1.582 9.533-3.163 12.71-3.163 3.178 0 5.084 6.01 7.944 9.49 2.86 3.48 10.168 4.113 7.944 6.96-1.779 2.277-6.037 8.119-7.944 10.755 1.059 2.847 3.051 9.364 2.542 12.654-.508 3.29-9.321 1.371-13.663 0v-9.174zM807.5 227.127c0 4.745 5.932 8.541 8.898 8.857 2.436-.738 7.308-2.594 7.308-4.112 0-1.898-6.747-10.756-5.854-6.289.941 4.702 1.277 4.711-1.454 3.125-3.37-1.957-8.898-4.301-8.898-1.581zM771.912 235.984c-2.288 0-7.097-2.742-9.215-4.112 5.307-10.991 11.678-10.78 7.188-4.744-1.881 2.528 1.782 2.812 3.762 1.58 2.542-1.581 7.525-2.214 7.525 0 0 2.215-6.401 7.276-9.26 7.276z"/>
      </g>
    </g>
    <path fill="#78ECC9" fill-rule="evenodd" d="M497.372 281.153l-41.37-24.019 40.801-24.652 41.37 24.02-40.801 24.651zm-225.261 91.396l176.517-102.774 5.268 3.16L277.379 375.71l-5.268-3.161zm20.389 12.642l5.5 3.309 175.911-103.976-5.267-3.161L292.5 385.191zm298.872-45.038l-41.37-24.019 40.801-24.652 41.37 24.02-40.801 24.651zm-224.261 89.396l175.517-100.774 5.268 3.161L372.379 432.71l-5.268-3.161zm20.389 12.642l5 3.309 175.411-101.976-5.267-3.161L387.5 442.191zm256.502-64.057l41.37 24.019 40.801-24.651-41.37-24.02-40.801 24.652zm-7.374 12.641L464.111 491.549l5.268 3.161 172.517-100.774-5.268-3.161zM489.5 507.5l-5-3.309 172.144-101.828 5.267 3.161L489.5 507.5zm296.179-188.881c1.787 2.744 7.318 6.586 15.142 0h7.886c7.151-8.867 21.451-27.613 21.451-31.666 0-4.054-10.305-33.777-15.457-48.133 3.365-1.9 10.347-5.51 11.356-4.75 1.262.95 20.012 46.957 20.012 51.707s-21.274 46.459-23.797 48.992c-2.019 2.026 2.313 38.632 4.732 56.682-15.983 6.439-50.158 16.15-58.991 3.483l4.101-60.165c-9.779-14.25-29.085-44.459-28.075-51.299 1.009-6.84 11.987-35.783 17.35-49.4 3.049.845 9.148 2.977 9.148 4.75 0 .728-1.53 5.415-3.518 11.506-4.069 12.463-10.056 30.804-8.785 33.144 1.371 2.523 12.963 22.106 21.997 33.344.49.609 1.727.804 2.915.99 1.095.172 2.148.337 2.533.815z" class="Secondary" clip-rule="evenodd"/>
  </g>
</svg>
