<svg xmlns="http://www.w3.org/2000/svg" width="1155" height="700" fill="none" viewBox="0 0 1155 700">
  <g class="upload">
    <path fill="#fff" d="M0 0h1155v700H0z"/>
    <path stroke="#000" stroke-width="2" d="M261 545h632" class="Vector"/>
    <g class="Group 5">
      <rect width="153" height="194" x="682.5" y="350.5" fill="#fff" stroke="#000" class="Rectangle" rx="11.5"/>
      <g class="Group">
        <path fill="#17157C" stroke="#fff" stroke-width="1.139" d="M719 420.17V384h21.429l7.007 9.054v27.116H719z" class="Vector 2"/>
        <path fill="#17157C" stroke="#fff" stroke-width="1.139" d="M740.338 393.008l.091-8.963 7.052 8.963h-7.143z" class="Vector 3"/>
      </g>
      <g class="Group_2">
        <path fill="#17157C" stroke="#fff" stroke-width="1.139" d="M784 420.17V384h21.429l7.007 9.054v27.116H784z" class="Vector 2_2"/>
        <path fill="#17157C" stroke="#fff" stroke-width="1.139" d="M805.338 393.008l.091-8.963 7.052 8.963h-7.143z" class="Vector 3_2"/>
      </g>
      <g class="Group_3">
        <path fill="#17157C" stroke="#fff" stroke-width="1.139" d="M719 471.919v-36.17h21.429l7.007 9.054v27.116H719z" class="Vector 2_3"/>
        <path fill="#17157C" stroke="#fff" stroke-width="1.139" d="M740.338 444.757l.091-8.963 7.052 8.963h-7.143z" class="Vector 3_3"/>
      </g>
      <g class="Group_4">
        <path fill="#17157C" stroke="#fff" stroke-width="1.139" d="M784 471.919v-36.17h21.429l7.007 9.054v27.116H784z" class="Vector 2_4"/>
        <path fill="#17157C" stroke="#fff" stroke-width="1.139" d="M805.338 444.757l.091-8.963 7.052 8.963h-7.143z" class="Vector 3_4"/>
      </g>
      <g class="Group_5">
        <path fill="#17157C" stroke="#fff" stroke-width="1.139" d="M719 523.668v-36.17h21.429l7.007 9.054v27.116H719z" class="Vector 2_5"/>
        <path fill="#17157C" stroke="#fff" stroke-width="1.139" d="M740.338 496.506l.091-8.963 7.052 8.963h-7.143z" class="Vector 3_5"/>
      </g>
      <g class="Group_6">
        <path fill="#17157C" stroke="#fff" stroke-width="1.139" d="M784 523.668v-36.17h21.429l7.007 9.054v27.116H784z" class="Vector 2_6"/>
        <path fill="#17157C" stroke="#fff" stroke-width="1.139" d="M805.338 496.506l.091-8.963 7.052 8.963h-7.143z" class="Vector 3_6"/>
      </g>
      <path fill="#000" fill-opacity=".05" d="M711 350l30.5 195h-44l3.5-195h10z" class="Vector_2"/>
    </g>
    <g class="Group_7">
      <path fill="#17157C" d="M397 534.5V159c0-6.075 4.925-11 11-11h219.103a11 11 0 018.7 4.268l71.396 92.259a10.996 10.996 0 012.301 6.732V534.5c0 6.075-4.925 11-11 11H408c-6.075 0-11-4.925-11-11z" class="Vector 2_7"/>
      <path fill="#fff" fill-opacity=".18" d="M631.5 247l1-98.5L710 247h-78.5z" class="Vector 3_7"/>
    </g>
    <rect width="255" height="155" x="426" y="296" fill="#fff" fill-opacity=".05" stroke="#fff" stroke-dasharray="10 10" stroke-width="2" class="Rectangle 2" rx="10"/>
    <g class="Group 2">
      <rect width="101.543" height="100.543" x="501.229" y="329.229" fill="#fff" stroke="#000" stroke-width=".457" class="Rectangle 2_2" rx="4.771"/>
      <path stroke="#000" stroke-width=".457" d="M508.229 337.229h86.543v72.543h-86.543z" class="Rectangle 3"/>
      <path fill="#4C3DFA" d="M534 359.5l-25.5 31V410H595v-14l-61-36.5z" class="Vector_3"/>
      <path fill="#000" fill-opacity=".21" d="M534 359.5l-25.5 31V410H595v-14l-61-36.5z" class="Vector_4"/>
      <path fill="#4C3DFA" d="M578 363l17 27.5V410h-86.5v-14l34.75-16.5L578 363z" class="Vector_5"/>
      <circle cx="561" cy="352" r="4.5" stroke="#000" class="Ellipse"/>
    </g>
    <rect width="257" height="36" x="425" y="479" fill="#fff" class="Rectangle 3_2" rx="4"/>
    <g class="Group 3">
      <circle cx="552.5" cy="99.5" r="31.5" fill="#fff" stroke="#17157C" stroke-width="2" class="Ellipse_2"/>
      <path stroke="#17157C" stroke-linecap="round" stroke-width="3.281" d="M552.5 114.547V86m0 0L542 98.14M552.5 86L563 98.14" class="Vector 2_8"/>
    </g>
    <rect width="64" height="6" x="529" y="493" fill="#000" fill-opacity=".11" class="Rectangle 4" rx="3"/>
    <g class="Group 4">
      <rect width="70" height="5" x="425" y="197" fill="#fff" fill-opacity=".11" class="Rectangle 4.2" rx="2.5"/>
      <rect width="55" height="5" x="425" y="207" fill="#fff" fill-opacity=".11" class="Rectangle 4.3" rx="2.5"/>
    </g>
    <rect width="18" height="6" x="509" y="493" fill="#000" fill-opacity=".11" class="Rectangle 4.1" rx="3"/>
    <g class="Group 7.2">
      <g class="Group_8">
        <path fill="#fff" stroke="#000" stroke-width=".565" d="M345.585 535.885l1.836-7.484 1.271-8.331 8.755 2.541-7.202 13.274h-4.66z" class="Vector 3_8"/>
        <path fill="#fff" stroke="#000" stroke-width=".565" d="M305.342 509.62l-9.178 13.415 4.377 1.977 10.167-10.167-5.366-5.225z" class="Vector 3_9"/>
        <path fill="#fff" stroke="#000" stroke-width=".565" d="M294.991 456.103c-3.163.565 3.766-8.613 7.625-13.273l2.444-2.824 3.389-7.343 4.095 1.695s-2.803 4.961-3.107 8.472c-.1 1.154 0 2.965 0 2.965-.753 2.636-1.568 7.71-3.149 8.049-1.582.339-.659-2.777 0-4.377-2.448 1.977-8.134 6.072-11.297 6.636z" class="Vector 2_9"/>
        <g class="Vector 4">
          <path fill="#fff" d="M359.219 381.051c0 3.764-2.477 9.012-2.477 9.012l-1.027 2.738 10.576 3.149c.152-.609-1.384-3.971-.654-5.887.305-1.462 1.156-2.899 1.339-3.334 2.506.724 4.106 2.193 5.817-1.815 1.712-4.009 5.362-20.176-3.422-19.377-10.038.912-10.152 11.749-10.152 15.514z"/>
          <path stroke="#000" stroke-width=".565" d="M363.553 383.675c1.369 1.239 2.01 2.28 2.738 2.835.238.083.466.156.685.219m0 0c2.506.724 4.106 2.193 5.817-1.815 1.712-4.009 5.362-20.176-3.422-19.377-10.038.912-10.152 11.749-10.152 15.514 0 3.764-2.477 9.012-2.477 9.012l-1.027 2.738 10.576 3.149c.152-.609-1.384-3.971-.654-5.887.305-1.462 1.156-2.899 1.339-3.334z"/>
        </g>
        <path fill="#fff" stroke="#000" stroke-width=".565" d="M325.252 480.956l1.554-33.043 22.451 10.308s1.112 19.287-6.213 28.948c-9.743 12.849-35.866 34.595-35.866 34.595l-7.06-7.484c1.355-5.196 17.321-24.381 25.134-33.324z" class="Vector 2_10"/>
        <path fill="#fff" stroke="#000" stroke-width=".565" d="M351.94 492.252c-12.991-14.685-22.734-35.113-25.982-43.491v-7.908l32.195-5.083 3.812 15.674s7.626 30.924 7.626 40.808c0 13.606-12.568 36.149-12.568 36.149h-11.014l5.931-36.149z" class="Vector 2_11"/>
        <path fill="#fff" stroke="#000" stroke-width=".565" d="M436.239 370.533c-.903 1.016-2.824 7.06-5.083 9.884l-10.873 10.45 2.259 4.659 6.92-6.213 6.777-5.93c2.683-.989 4.943-1.836 6.072-2.966.904-.904 2.623-2.4 2.824-5.083.202-2.683 1.977-3.813 0-4.801-2.554-1.277-10.025 6.637-8.896 4.801 1.13-1.836 1.13-6.072 0-4.801z" class="Vector 2_12"/>
        <path fill="#18357E" fill-rule="evenodd" d="M358.419 381.393c.685 1.255 1.962 2.259 2.51 1.255.254-.465.335-1.619.424-2.883.151-2.145.324-4.604 1.401-4.532 1.06.071 1.638 1.148 2.088 1.985.276.514.503.938.764.981.231.039.228-.704.224-1.748-.009-2.047-.022-5.253 1.715-6.009 1.126-.489 2.715-.433 4.197-.38 1.972.071 3.756.134 4.017-1.103.199-.947 1.054-1.265 2.077-1.646 1.317-.491 2.912-1.084 3.74-3.259 1.826-4.791-5.247-6.16-6.502-3.422-1.255 2.737-7.415 3.422-8.898 3.422-1.483 0-4.726 1.884-5.817 5.247-1.369 4.221-2.852 9.012-1.94 12.092zm-22.576 34.326c-5.46 9.555-15.194 29.625-10.45 33.465 5.272-1.223 16.635-3.304 19.91-1.835 2.063.924 2.227 1.562 2.387 2.184.157.613.311 1.211 2.273 2.052 2.086.894 3.818.452 5.424.042 1.439-.368 2.777-.709 4.178-.042 2.966 1.412 5.366.565 5.225-5.366-.141-5.931.988-9.884 2.824-12.567.541-.791 1.241-2.671 2.082-4.931 2.015-5.413 4.839-13.002 8.226-13.002 1.668 0 3.336.306 5.223.654 3.545.652 7.862 1.446 14.405.616 8.02-1.016 25.464-16.332 33.183-23.863.786-7.763-1.232-11.218-2.151-12.792-.242-.416-.409-.7-.426-.898.195-.227.26-.331.176-.29-.135.068-.187.161-.176.29-2.451 2.862-25.465 25.293-32.583 23.574-4.849-1.171-10.383-5.25-14.586-8.349-2.458-1.812-4.461-3.289-5.607-3.653-3.106-.989-8.331 0-8.331 0-.92 0-1.721.164-2.491.322-2.065.424-3.909.803-7.252-2.158-4.942-4.377-35.584 13.838-44.339 22.875l-9.743 23.158c2.307 1.6 7.71 4.603 10.873 3.813l7.625-16.663c3.577-2.212 11.409-6.636 14.121-6.636zm8.33 126.379c-2.183-1.062-3.589-3.132 1.279-8.614 1.761 2.189 2.889 2.189 4.247 2.189s2.947 0 5.63 2.189c.789.643 1.906 1.342 3.066 2.069 3.411 2.135 7.199 4.506 4.143 6.403l-18.365-4.236zm-47.568-21.431c-5.976 4.246-5.072 6.58-3.183 8.105l16.941 8.259c3.404-1.161.247-4.323-2.597-7.171-.967-.969-1.898-1.901-2.522-2.706-2.122-2.736-3.67-3.093-4.993-3.399-1.323-.305-2.422-.559-3.646-3.088z" class="Union" clip-rule="evenodd"/>
      </g>
      <g class="Group 2.1">
        <rect width="26.785" height="26.521" x="435.014" y="350.079" fill="#fff" stroke="#000" stroke-width=".121" class="Rectangle 2_3" rx="1.259" transform="rotate(22 435.014 350.079)"/>
        <path fill="#fff" stroke="#000" stroke-width=".121" d="M435.936 352.727l21.166 8.552-7.169 17.742-21.165-8.551z" class="Rectangle 3_3"/>
        <path fill="#4C3DFA" d="M440.037 360.721l-9.299 5.062-1.927 4.769 21.155 8.548 1.384-3.425-11.313-14.954z" class="Vector_6"/>
        <path fill="#6256F8" d="M450.453 365.925l1.44 8.405-1.926 4.769-21.156-8.547 1.383-3.424 10.13-.602 10.129-.601z" class="Vector_7"/>
        <circle cx="447.382" cy="361.554" r="1.319" fill="#F0EFEF" class="Ellipse_3" transform="rotate(22 447.382 361.554)"/>
      </g>
    </g>
  </g>
</svg>
