<svg xmlns="http://www.w3.org/2000/svg" width="1155" height="700" fill="none" viewBox="0 0 1155 700">
  <g class="woman_browsing">
    <path fill="#fff" d="M0 0h1155v700H0z"/>
    <g class="Group 4.1">
      <g class="Group 4.1_2">
        <rect width="254.804" height="537.533" x="359.562" y="82" fill="#F6F0F9" class="Rectangle" rx="24.433"/>
        <g class="Group 4">
          <rect width="78.536" height="129.147" x="385.74" y="157.044" fill="#000" fill-opacity=".06" class="Rectangle 2" rx="12.217"/>
          <rect width="78.536" height="129.147" x="478.238" y="157.044" fill="#000" fill-opacity=".06" class="Rectangle 2.1" rx="12.217"/>
          <rect width="214.664" height="129.147" x="385.74" y="301.899" fill="#000" fill-opacity=".06" class="Rectangle 2.2" rx="12.217"/>
          <rect width="48.867" height="48.867" x="401.448" y="326.333" fill="#000" fill-opacity=".06" class="Rectangle 2.5" rx="2.742"/>
          <rect width="123.912" height="8.726" x="459.04" y="326.333" fill="#000" fill-opacity=".06" class="Rectangle 2.6" rx="2.742"/>
          <rect width="80.281" height="8.726" x="460.785" y="342.04" fill="#000" fill-opacity=".06" class="Rectangle 2.7" rx="2.742"/>
          <rect width="143.109" height="129.147" x="383.995" y="443.263" fill="#000" fill-opacity=".06" class="Rectangle 2.3" rx="12.217"/>
          <rect width="59.338" height="129.147" x="541.066" y="443.263" fill="#000" fill-opacity=".06" class="Rectangle 2.4" rx="12.217"/>
          <rect width="34.905" height="34.905" x="553.283" y="455.479" fill="#000" fill-opacity=".06" class="Rectangle 2.8" rx="7.186"/>
          <rect width="34.905" height="34.905" x="553.283" y="497.365" fill="#000" fill-opacity=".06" class="Rectangle 2.9" rx="7.186"/>
        </g>
      </g>
      <g class="Group">
        <g class="Group 9.3">
          <g class="Group 8.1">
            <path fill="#FF9E80" d="M385.883 547.76c22.79 12.607-9.495 54.953-28.486 74.551h-34.548c-24.547-11.213-69.823-35.518-54.549-43.034 19.092-9.394-10.607-20.001-19.093-43.942C240.722 511.394 274.361 512 298.605 512c24.244 0 5.151-31.517 30.608-38.79 25.456-7.274 16.668 20.91 16.668 38.79s11.516 20.001 40.002 35.76z" class="Vector"/>
            <path fill="#fff" fill-opacity=".13" d="M321.246 515.288c6.429 10.715 10.854 70.286 19.744 105.844h-10.001c1.515-4.849-29.396-20.608-39.397-26.972-10-6.364 1.213-17.274 5.152-19.092 3.94-1.818-33.032-18.789-27.274-40.609 4.271-16.186 26.626 19.101 32.729 3.031 3.873-10.198 14.502-29.778 19.047-22.202z" class="Vector 3"/>
            <path stroke="#FBFBFB" stroke-linecap="round" stroke-width="1.363" d="M343.414 621.742c-1.863-5.149-4.163-12.162-6.514-20.304m-3.183-108.793c-6.971 10.001-.604 15.11-4.544 33.293-4.429 20.442-1.138 41.733 4.544 63.833m0 0c-12.931-17.426-29.396-33.487-56.065-49.852m56.065 49.852a409.9 409.9 0 003.183 11.667m0 0c7.323-10.405 24.94-32.487 36.819-37.578" class="Vector 2"/>
          </g>
          <g class="Group 8">
            <path fill="#17A0B3" d="M306.048 533.4c-27.28 15.091 11.366 65.78 34.099 89.239h41.355c29.383-13.422 83.58-42.516 65.297-51.512-22.854-11.246 12.696-23.943 22.853-52.601 10.158-28.658-30.109-27.932-59.129-27.932-29.021 0-6.167-37.727-36.639-46.433-30.472-8.706-19.952 25.03-19.952 46.433s-13.785 23.942-47.884 42.806z" class="Vector_2"/>
            <path fill="#fff" fill-opacity=".13" d="M383.42 494.533c-7.695 12.826-12.992 84.134-23.633 126.697h11.971c-1.814-5.804 35.188-24.667 47.159-32.285 11.971-7.618-18.959-8.757-18.959-18.502 0-15.182 52.333-26.844 45.44-52.962-5.113-19.376-31.872 22.863-39.178 3.627-4.636-12.206-17.358-35.644-22.8-26.575z" class="Vector 3_2"/>
            <path stroke="#FBFBFB" stroke-linecap="round" stroke-width="1.632" d="M356.883 621.955c2.23-6.164 4.984-14.558 7.798-24.305m3.811-130.228c8.343 11.971.723 18.087 5.438 39.853 5.302 24.469 1.363 49.955-5.438 76.409m0 0c15.477-20.859 35.187-40.085 67.11-59.674m-67.11 59.674a493.033 493.033 0 01-3.811 13.966m0 0c-8.766-12.454-29.853-38.887-44.074-44.982" class="Vector 2_2"/>
          </g>
        </g>
        <g class="floor">
          <path fill="#F7B3A4" d="M714.918 600.655c-1.163-1.744-2.18-21.8-2.18-31.973-4.36 2.18-13.807 3.149-18.893 2.907 1.695 8.962 6.104 27.613 7.266 27.613 1.163 0 7.509.968 13.807 1.453z" class="Vector 6"/>
          <path fill="#000" fill-opacity=".07" d="M705.471 599.202l-3.633-22.526c-2.18-1.938-6.54-4.215-6.54-.727s3.634 16.713 5.814 23.253h4.359z" class="Vector 10"/>
          <path fill="#FA5C5C" d="M700.386 622.457c-2.907-6.976-1.211-18.893 0-23.98h18.166s24.526 16.713 39.239 16.713c4.36 0 1.454 7.267 1.454 7.267h-58.859z" class="Vector 7"/>
          <path stroke="#fff" stroke-linecap="round" stroke-width="1.745" d="M730.425 610.3h6.981m-1.745 2.617h9.599m-18.325-6.108h5.235" class="Vector 12"/>
          <path fill="#F7B3A4" d="M632.807 559.239l14.533-21.8 13.079 13.806-16.713 17.44-10.899-9.446z" class="Vector 8"/>
          <path fill="#000" fill-opacity=".08" d="M655.333 540.344l-19.619 21.073h-3.633l17.439-26.16 5.813 5.087z" class="Vector 11"/>
          <path fill="#FA5C5C" d="M620.453 573.768l13.08-16.713 13.08 13.806s3.909 10.571 7.266 18.893c3.656 9.063 14.533 17.44 10.9 25.433-1.108 2.437-5.813 3.633-5.813 3.633l-38.513-45.052z" class="Vector 9"/>
          <path stroke="#fff" stroke-linecap="round" stroke-width="1.745" d="M647.526 579.757l4.364 3.49m-5.236.873l7.853 5.236m-6.981 0l8.727 6.108" class="Vector 13"/>
        </g>
        <path fill="#146172" fill-rule="evenodd" d="M644.706 218.146c-.558.566-1.131 1.147-1.727 1.743-1.148 1.148-2.297 2.126-3.384 3.052-4.414 3.761-7.812 6.655-6.062 16.567-.278.74-.867 1.574-1.532 2.516-1.077 1.524-2.353 3.331-2.828 5.477-.556 2.508.208 4.443.989 6.418.708 1.792 1.429 3.618 1.191 5.936-.3 2.908-2.156 5.305-3.834 7.471-1.746 2.255-3.299 4.26-2.706 6.335.481 1.686.324 4.089.164 6.55-.324 4.966-.663 10.163 4.196 10.163 3.18 0 3.855 1.392 4.643 3.018 1.014 2.09 2.216 4.567 9.163 4.975 6.306.371 12.422-.394 17.576-1.039 4.943-.618 9-1.126 11.49-.414 1.768.505 3.572 1.594 5.435 2.719 3.495 2.111 7.201 4.349 11.278 3.094 9.447-2.907 18.893-13.806 15.26-18.166-1.634-1.961-2.68-2.158-3.072-2.773-.48-.752.019-2.129 1.619-8.127 2.906-10.9-1.454-13.08-5.087-13.806-3.633-.727-5.813-11.627-3.633-16.713 2.18-5.087-2.18-11.627-5.087-13.807-.934-.7-1.042-3.051-1.17-5.798-.268-5.805-.619-13.381-9.003-10.915-3.23.95-5.026-1.086-6.921-3.234-2.257-2.56-4.657-5.281-9.792-3.306-8.478 3.261-12.274 7.107-17.166 12.064zm71.664 253.166c5.814-15.987-20.346-74.846-22.526-78.479-11.626 13.952-56.679 8.478-77.025 3.633l-1.453 9.447c-2.907 18.602 29.792 76.056 46.505 102.458l-21.072 31.246 18.893 19.62c4.024-5.697 12.786-18.144 18.27-26.16l14.429 45.052c8.821 2.206 20.737-5.001 26.075-8.23l.811-.489-23.321-63.219c9.878-15.165 18.231-28.876 20.414-34.879z" class="Union" clip-rule="evenodd"/>
        <path fill="#F7AF9F" fill-rule="evenodd" d="M664.181 258.812c4.35-4.187 7.558-11.95 7.865-25.116v-7.267s-4.36-5.086-11.627-5.086c-9.515 0-11.626 2.481-11.626 2.481-8.067 10.586-12.669 27.194-2.554 35.946l-1.08 10.261-.726 5.813 10.9 11.626 13.806-7.993c-.242-.848-.787-1.938-1.363-3.088-.575-1.151-1.18-2.362-1.544-3.452-.459-1.378-1.62-9.022-2.051-14.125z" class="Union_2" clip-rule="evenodd"/>
        <path fill="#000" fill-opacity=".08" d="M661.145 267.847s2.422-6.782 2.907-7.993c.726 6.54 1.453 14.533 3.633 15.986-.727 2.907-10.9 5.087-10.173 4.36.581-.581 3.633-12.353 3.633-12.353z" class="Vector 19"/>
        <path fill="#fff" fill-opacity=".05" d="M672.046 233.696c-.582 24.997-11.627 30.519-21.073 29.066-15.991-7.31-11.299-26.971-2.18-38.938 0 0 2.111-2.481 11.626-2.481 7.267 0 11.627 5.086 11.627 5.086v7.267z" class="Vector 11.1"/>
        <path fill="#2A2626" d="M761.724 303.409l-14.159 22.526a1.453 1.453 0 001.23 2.227h12.475c.542 0 1.038-.301 1.289-.781l8.312-15.932 3.309-6.617a1.453 1.453 0 00-1.3-2.103h-9.926c-.499 0-.964.257-1.23.68z" class="Vector 15"/>
        <path fill="#F7B3A4" d="M749.069 327.434l-27.613 13.806c-1.162 3.488 1.454 13.08 2.907 17.44l32.699-24.707c10.173-7.266 15.26-22.526 13.08-22.526-1.744 0-14.775 10.658-21.073 15.987z" class="Vector 4"/>
        <path fill="#fff" fill-opacity=".06" d="M727.807 345.023l-2.618-5.235 23.561-12.217-20.943 17.452z" class="Vector 22"/>
        <path stroke="#000" stroke-linecap="round" stroke-opacity=".07" stroke-width="1.453" d="M645.158 534.53l34.88-52.319-18.167-52.319" class="Vector 19_2"/>
        <path fill="#000" fill-opacity=".04" d="M680.765 482.21l-18.893 25.433c-8.72-13.952-34.153-58.133-41.419-79.932 0 0 24.601-1.257 37.059 6.54 17.644 11.042 23.253 47.959 23.253 47.959z" class="Vector 19_3"/>
        <path fill="#000" fill-opacity=".07" d="M633.532 399.372c1.743 34.298 21.557 83.565 31.246 103.911l-2.907 4.36-4.36-5.813c-47.959-84.292-43.357-89.378-40.693-102.458h16.714z" class="Vector 19_4"/>
        <path fill="#FFBC39" fill-rule="evenodd" d="M644.432 272.206l-20.346 3.633-.001.002c-8.236 5.33-26.595 27.759-34.152 74.844 6.298 15.26 21.218 48.831 30.52 61.039l13.806-10.173-.062-.164.789-.563c36.623 6.394 54.983-2.665 59.585-7.994-1.9-2.533-3.455-11.798-4.595-21.821l.235.021 34.88-9.446c7.266-13.807 3.633-23.98-2.18-25.433l-28.34 3.633c-3.207-24.585-8.264-45.105-15.228-57.017-4.228-7.913-8.947-11.794-12.619-8.427-10.282 12.566-17.671 3.522-22.061-1.852l-.231-.282z" class="Union_3" clip-rule="evenodd"/>
        <path fill="#070707" fill-opacity=".06" d="M618.273 400.824c-2.325-.581-19.862-34.152-28.339-50.866 1.162 8.139 19.619 45.78 30.519 61.766l4.36-3.633c-1.211-2.18-4.215-6.685-6.54-7.267z" class="Vector 20"/>
        <path stroke="#000" stroke-opacity=".06" stroke-width="1.453" d="M624.086 275.84c-8.235 5.329-26.595 27.759-34.152 74.846 6.297 15.259 21.218 48.831 30.519 61.039l13.806-10.174-20.346-53.772 15.986-42.872" class="Vector_3"/>
        <path fill="#F7B3A4" d="M622.633 416.812l-.727-6.54 10.9-7.993 5.813 7.993c-.581 4.069-6.54 11.384-9.446 14.533l-6.54-7.993z" class="Vector 12_2"/>
        <path fill="#000" fill-opacity=".06" d="M628.446 413.904l-6.54-2.907.727 5.813 6.54 7.993 2.18-3.633-2.907-7.266z" class="Vector 19_5"/>
        <path stroke="#fff" stroke-linecap="round" stroke-opacity=".13" stroke-width=".727" d="M626.993 428.44c3.391-3.391 10.754-11.917 13.079-18.893" class="Vector 12_3"/>
        <path stroke="#000" stroke-opacity=".03" stroke-width="1.453" d="M690.211 371.032c-1.695-26.402-2.179-52.319-12.353-77.026" class="Vector 15_2"/>
        <path fill="#fff" fill-opacity=".03" d="M663.325 554.149l-3.634-4.36s38.714-45.104 50.866-84.292c3.831-12.353-25.433-67.579-25.433-67.579 6.54-1.453 3.876-.726 9.447-4.36 7.751 21.558 23.253 66.707 23.253 74.846 0 8.138-36.333 60.554-54.499 85.745z" class="Vector 16"/>
        <path fill="#000" fill-opacity=".04" d="M672.772 491.659l-9.447-54.499 15.987 44.326-6.54 10.173z" class="Vector 17"/>
        <path fill="#000" fill-opacity=".06" d="M706.199 567.229l-15.26-53.772 5.087-6.54 22.526 55.952-12.353 4.36z" class="Vector 18"/>
        <path fill="#000" fill-opacity=".03" d="M688.032 346.328c-1.744 13.371 3.148 36.575 5.813 46.506-9.883 8.72-33.426 9.689-43.599 8.72 0 0 10.899-6.54 15.986-11.627 5.087-5.086 14.533-11.626 16.713-36.332 1.116-12.647-2.18-46.022-3.633-58.859 3.633 10.9 10.464 38.222 8.72 51.592z" class="Vector 20_2"/>
      </g>
      <path stroke="#000" stroke-width="3.49" d="M199 620.768h589.017" class="Vector 22_2"/>
      <g class="Group 3">
        <path fill="#F3F3F3" d="M919.783 272.687H778.095a3.49 3.49 0 00-3.038 1.772l-4.71 8.333c-1.238 2.188-4.313 2.391-5.826.383l-6.858-9.099a3.491 3.491 0 00-2.788-1.389h-25.323a3.49 3.49 0 01-3.49-3.491V153.045a3.49 3.49 0 013.49-3.491h190.231a3.49 3.49 0 013.49 3.491v116.151a3.49 3.49 0 01-3.49 3.491z" class="Vector 28"/>
        <g class="Group 2">
          <path fill="#fff" fill-opacity=".97" d="M734.787 165.261h47.121v89.007h-47.121z" class="Rectangle_2"/>
          <rect width="33.16" height="10.471" x="741.768" y="236.814" fill="#1999AB" class="Rectangle 2_2" rx="1.745"/>
          <path fill="#DFF8F9" d="M741.768 201.911h33.16v29.669h-33.16z" class="Rectangle 2.1_2"/>
          <path fill="#DFF8F9" d="M741.768 173.987h33.16v22.688h-33.16z" class="Rectangle 2.2_2"/>
          <circle cx="758.349" cy="216.744" r="7.854" fill="#FF9E80" class="Ellipse"/>
        </g>
        <rect width="106.459" height="43.631" x="787.145" y="165.261" fill="#fff" class="Rectangle_3" rx="1.745"/>
        <rect width="33.16" height="41.886" x="787.145" y="212.383" fill="#fff" class="Rectangle_4" rx="1.745"/>
        <rect width="33.16" height="41.886" x="823.794" y="212.383" fill="#fff" class="Rectangle_5" rx="1.745"/>
        <rect width="33.16" height="41.886" x="860.445" y="212.383" fill="#fff" class="Rectangle_6" rx="1.745"/>
      </g>
    </g>
  </g>
</svg>
