<svg xmlns="http://www.w3.org/2000/svg" width="1155" height="700" fill="none" viewBox="0 0 1155 700">
  <g class="woman_reading">
    <path fill="#fff" d="M0 0h1155v700H0z"/>
    <g class="Group 8">
      <path fill="#1F31D6" fill-rule="evenodd" d="M416.616 392.752a2.609 2.609 0 012.609-2.609h208.732a2.609 2.609 0 012.609 2.609v31.31a2.608 2.608 0 01-2.599 2.609h6.079a2.609 2.609 0 012.609 2.609v31.31a2.609 2.609 0 01-2.609 2.609h-6.08a2.609 2.609 0 012.6 2.609v31.31a2.609 2.609 0 01-2.593 2.609h6.072a2.61 2.61 0 012.61 2.609v43.486a2.61 2.61 0 01-2.61 2.609h-6.072a2.61 2.61 0 012.593 2.609v31.31a2.609 2.609 0 01-2.609 2.609h-244.39a2.609 2.609 0 01-2.609-2.609v-31.31a2.609 2.609 0 012.609-2.609h27.816a2.609 2.609 0 01-2.594-2.609v-43.486a2.61 2.61 0 012.594-2.609h-34.774a2.609 2.609 0 01-2.609-2.609v-31.31a2.609 2.609 0 012.609-2.609h26.953a2.609 2.609 0 01-2.6-2.609v-31.31a2.609 2.609 0 012.609-2.609h15.644a2.609 2.609 0 01-2.599-2.609v-31.31z" class="Union" clip-rule="evenodd"/>
      <g class="Group 7">
        <rect width="249.608" height="36.528" x="380.958" y="548.431" fill="#fff" fill-opacity=".08" class="Rectangle" rx="2.609"/>
        <rect width="256.566" height="36.528" x="374" y="463.199" fill="#000" fill-opacity=".19" class="Rectangle_2" rx="2.609"/>
        <rect width="213.95" height="36.528" x="416.616" y="390.143" fill="#fff" fill-opacity=".08" class="Rectangle_3" rx="2.609"/>
        <path stroke="#000" stroke-width="3" d="M275 583h541.5" class="Vector"/>
        <path fill="#121212" fill-opacity=".08" d="M416.615 401.485a2.609 2.609 0 013.038-2.573l41.318 6.886 169.594 20.873H419.224a2.609 2.609 0 01-2.609-2.609v-22.577z" class="Rectangle_4"/>
        <path fill="#000" fill-opacity=".06" d="M400.962 430.067a2.609 2.609 0 013.281-2.521l68.275 18.207c.13.034.263.059.397.073l163.74 17.373H403.571a2.609 2.609 0 01-2.609-2.609v-30.523z" class="Rectangle_5"/>
        <path fill="#000" fill-opacity=".09" d="M374 474.48a2.61 2.61 0 013.322-2.51l34.7 9.858c.163.047.331.077.5.091l218.044 17.808H376.609a2.609 2.609 0 01-2.609-2.609V474.48z" class="Rectangle_6"/>
        <path fill="#000" fill-opacity=".09" d="M408.789 499.727l53.488 20.438 174.378 28.266H408.789v-48.704z" class="Rectangle_7"/>
        <path fill="#000" fill-opacity=".04" d="M380.958 552.1a2.609 2.609 0 013.465-2.465l37.564 13.048c.188.066.382.109.58.13l207.999 22.146H383.567a2.609 2.609 0 01-2.609-2.609V552.1z" class="Rectangle_8"/>
      </g>
    </g>
    <g class="book">
      <path fill="#D4DAFA" fill-rule="evenodd" d="M719.514 238.005l7.484-10.351 9.982 25.249-1.626 1.957-30.668 38.265-6.459-4.991-18.497-14.973 34.057-40.222 5.727 5.066z" class="Union_2" clip-rule="evenodd"/>
      <path fill="#E2FAFF" d="M717.881 236.717l3.627-3.957 3.627-1.319 11.21 20.772h-.659l-17.805-15.496z" class="Vector 6"/>
      <path fill="#000" fill-opacity=".12" d="M721.508 232.76l14.177 19.453h.66l-11.21-20.772-3.627 1.319z" class="Vector 7"/>
      <path fill="#fff" fill-opacity=".09" d="M713.925 232.62l-33.96 40.225 25.717 20.772 30.663-40.555-22.42-20.442z" class="Vector 5"/>
    </g>
    <g class="Union_3">
      <path fill="#FFFCFB" fill-rule="evenodd" d="M607.062 236.484c3.882.71 7.474.795 9.101-.724l.008-.008c4.408-4.113 13.673-12.761 2.799-40.769-8.807-2.74-26.999-1.853-30.992 15.528-.88 5.48-1.115 17.498 4.991 21.726-.685 5.284-2.348 16.676-3.523 19.964-1.468 4.11 15.267 7.927 15.854 1.174a97.741 97.741 0 00-.144-1.117c-.532-4.029-1.306-9.885 1.906-15.774zm32.711 106.615s44.627-27.01 71.931-51.966c6.027-5.508 11.401-18.274 10.487-21.018-1.751-5.252-15.772 11.623-15.772 11.623s.294-12.918-2.642-8.22c-.934 1.493-6.166 16.147-6.166 16.147l-46.975 23.194-12.33.881-6.753 23.781 8.22 5.578zm72.257 149.419c1.202 6.867 2.203 12.59 2.904 13.524.325.434.473.972.626 1.526.674 2.445 1.43 5.19 17.87.53 0 0 11.067-2.652 16.735-3.524 7.633-1.174 19.897-7.653 12.918-9.982-4.191-1.398-9.636-1.997-14.989-2.585-6.896-.758-13.638-1.499-17.351-3.912-9.189-5.973-9.938-37.542-9.938-37.542l-17.322 4.404 5.285 20.552c1.183 5.126 2.288 11.443 3.262 17.009zm-53.76 14.699c0-2.291.148-5.097.314-8.277.41-7.821.939-17.9-.313-28.129l1.761-16.147 16.441 2.055c0 3.817-.511 9.809-1.451 11.923-.939 2.114-3.824 13.189 1.451 26.047 5.707 6.278 13.625 9.189 19.415 11.317 4.246 1.561 7.347 2.702 7.596 4.44.474 3.321-12.081 2.426-18.626 1.96-1.557-.111-2.773-.198-3.394-.198l-.503.001c-4.398.015-22.691.074-22.691-4.992z" clip-rule="evenodd"/>
      <path fill="#000" d="M616.163 235.76l.398.427-.398-.427zm-9.101.724l.105-.574-.415-.076-.202.37.512.28zm9.109-.732l-.398-.426.398.426zm2.799-40.769l.544-.211-.102-.263-.268-.083-.174.557zm-30.992 15.528l-.568-.131-.005.019-.003.019.576.093zm4.991 21.726l.579.075.046-.353-.292-.202-.333.48zm-3.523 19.964l.55.196-.55-.196zm15.854 1.174l.582.051.005-.061-.007-.06-.58.07zm-.144-1.117l-.578.077.578-.077zm106.548 38.875l.393.431-.393-.431zm-71.931 51.966l-.327.483.309.21.321-.194-.303-.499zm82.418-72.984l.554-.184-.554.184zm-15.772 11.623l-.583-.013-.038 1.674 1.07-1.288-.449-.373zm-2.642-8.22l-.495-.309.495.309zm-6.166 16.147l.259.523.211-.104.08-.223-.55-.196zm-46.975 23.194l.042.582.114-.008.103-.051-.259-.523zm-12.33.881l-.042-.582-.408.029-.112.394.562.159zm-6.753 23.781l-.561-.159-.116.405.349.237.328-.483zm83.381 168.521l.466-.35-.466.35zm-2.904-13.524l.575-.1-.575.1zm3.53 15.05l-.563.155.563-.155zm17.87.53l-.136-.568-.012.003-.011.003.159.562zm16.735-3.524l-.089-.576.089.576zm12.918-9.982l-.185.554.185-.554zm-14.989-2.585l.064-.58-.032-.003h-.032v.583zm0 0l-.064.58.032.004h.032v-.584zm-17.351-3.912l-.318.489.318-.489zm-9.938-37.542l.584-.013-.018-.733-.709.181.143.565zm-17.322 4.404l-.143-.565-.567.144.145.567.565-.146zm5.285 20.552l.569-.131-.002-.008-.002-.007-.565.146zm-50.184 23.431l.583.031-.583-.031zm-.314 8.277h-.583.583zm.001-36.406l-.581-.063-.007.067.008.067.58-.071zm1.761-16.147l.073-.579-.589-.074-.064.59.58.063zm16.441 2.055h.584v-.515l-.511-.064-.073.579zm-1.451 11.923l.533.237-.533-.237zm1.451 26.047l-.539.222.039.095.069.076.431-.393zm19.415 11.317l-.201.548.201-.548zm7.596 4.44l-.578.083.578-.083zm-18.626 1.96l.042-.582-.021-.002h-.021v.584zm0 0l-.042.582.021.001h.021v-.583zm-3.897-.197l-.002-.583.002.583zm-65.196-276.876c-.661.617-1.794.964-3.336 1.042-1.523.077-3.342-.114-5.262-.465l-.21 1.147c1.962.36 3.88.567 5.531.484 1.63-.083 3.107-.453 4.073-1.354l-.796-.854zm.008-.007l-.008.007.796.854.009-.008-.797-.853zm2.653-40.132c5.412 13.94 5.778 22.976 4.308 28.996-1.465 6.003-4.775 9.096-6.961 11.136l.797.853c2.221-2.073 5.748-5.361 7.298-11.712 1.547-6.335 1.108-15.627-4.354-29.695l-1.088.422zm-29.879 15.448c1.945-8.466 7.324-12.89 13.307-14.887 6.016-2.008 12.64-1.554 16.943-.215l.347-1.114c-4.504-1.402-11.381-1.874-17.66.222-6.313 2.107-12.026 6.817-14.074 15.732l1.137.262zm4.755 21.115c-2.845-1.969-4.282-5.818-4.871-9.995-.584-4.148-.31-8.463.123-11.158l-1.152-.186c-.447 2.785-.731 7.22-.126 11.507.6 4.259 2.099 8.533 5.361 10.792l.665-.96zm-3.306 20.64c.608-1.703 1.325-5.43 1.971-9.334.65-3.928 1.238-8.104 1.581-10.751l-1.157-.15a332.874 332.874 0 01-1.575 10.71c-.651 3.935-1.353 7.548-1.919 9.133l1.099.392zm14.723.928c-.12 1.376-1.038 2.255-2.53 2.739-1.51.489-3.511.525-5.498.221-1.984-.304-3.878-.936-5.167-1.716-.647-.392-1.102-.797-1.354-1.181-.241-.366-.283-.685-.174-.991l-1.099-.392c-.258.722-.098 1.422.297 2.024.385.585 1.001 1.1 1.725 1.538 1.455.881 3.506 1.552 5.595 1.872 2.087.319 4.288.301 6.035-.265 1.765-.572 3.159-1.747 3.333-3.748l-1.163-.101zm-.141-.99c.051.391.1.76.143 1.111l1.159-.141c-.044-.358-.094-.734-.145-1.123l-1.157.153zm1.972-16.131c-3.313 6.073-2.504 12.107-1.972 16.131l1.157-.153c-.533-4.034-1.273-9.714 1.839-15.419l-1.024-.559zm104.76 54.499c-13.62 12.448-31.575 25.421-46.138 35.289a726.213 726.213 0 01-18.311 12.004 613.018 613.018 0 01-5.423 3.398 298.403 298.403 0 01-1.839 1.128l-.096.059-.024.014a.02.02 0 01-.006.004l-.001.001.301.499.303.499.002-.001.006-.004a.322.322 0 00.025-.015l.097-.058.38-.232c.334-.205.828-.508 1.465-.902a575.276 575.276 0 005.434-3.404 725.646 725.646 0 0018.342-12.024c14.576-9.877 32.586-22.887 46.27-35.394l-.787-.861zm10.327-20.403c.074.22.102.616.033 1.214-.066.581-.216 1.294-.446 2.11-.459 1.631-1.22 3.625-2.202 5.715-1.968 4.193-4.78 8.684-7.712 11.364l.787.861c3.095-2.829 5.985-7.476 7.982-11.729 1.001-2.133 1.788-4.188 2.268-5.895.24-.853.407-1.63.483-2.293.074-.648.07-1.25-.085-1.716l-1.108.369zm-15.218 11.438l.449.373.002-.002.007-.009.03-.035.116-.139.445-.523c.384-.448.936-1.084 1.604-1.83 1.337-1.495 3.133-3.428 4.98-5.194 1.858-1.777 3.727-3.347 5.213-4.15.755-.408 1.323-.569 1.702-.54a.653.653 0 01.386.14c.096.08.201.22.284.471l1.108-.369c-.136-.406-.345-.75-.647-1a1.815 1.815 0 00-1.044-.406c-.723-.054-1.538.242-2.344.677-1.634.884-3.599 2.548-5.465 4.333-1.877 1.796-3.696 3.754-5.043 5.26-.674.753-1.231 1.395-1.62 1.849-.195.227-.347.407-.451.53l-.119.142a.872.872 0 00-.039.046l-.002.003h-.001l.449.373zm-2.148-7.911c.36-.576.587-.73.656-.754.004-.002-.026.005-.056-.009-.013-.006.018.004.079.091.128.182.263.525.385 1.035.119.496.212 1.093.284 1.741.144 1.295.198 2.742.217 3.872a57.173 57.173 0 01.002 1.783l-.002.104v.035l.583.013.583.013v-.002l.001-.008v-.028l.002-.11.004-.407c.003-.347.003-.838-.007-1.412-.018-1.145-.074-2.634-.223-3.982a15.85 15.85 0 00-.309-1.883c-.13-.545-.306-1.065-.564-1.433a1.4 1.4 0 00-.555-.486 1.072 1.072 0 00-.812-.028c-.476.168-.883.638-1.257 1.237l.989.618zm-6.66 15.838l.55.196.001-.002a.03.03 0 01.002-.008l.012-.031.044-.123.167-.467.605-1.679a729.914 729.914 0 011.899-5.197 314.614 314.614 0 012.072-5.47c.31-.789.588-1.478.817-2.014.236-.552.403-.901.491-1.043l-.989-.618c-.145.231-.346.666-.575 1.202a78.365 78.365 0 00-.831 2.047 309.723 309.723 0 00-2.079 5.491 737.32 737.32 0 00-2.676 7.355l-.044.123-.011.031a.027.027 0 00-.003.008l-.001.002v.001l.549.196zm-46.716 23.717l46.975-23.194-.517-1.046-46.975 23.194.517 1.046zm-12.548.94l12.331-.881-.083-1.164-12.331.881.083 1.164zm-6.233 23.358l6.753-23.781-1.123-.318-6.752 23.781 1.122.318zm7.987 4.936l-8.22-5.578-.656.966 8.221 5.578.655-.966zM715.4 505.692c-.035-.047-.104-.173-.196-.421a10.687 10.687 0 01-.288-.924 48.641 48.641 0 01-.674-2.958c-.487-2.396-1.036-5.535-1.637-8.971l-1.15.201c.601 3.43 1.153 6.587 1.643 9.002.245 1.207.476 2.239.692 3.033.108.397.215.742.32 1.025.101.27.217.527.357.713l.933-.7zm.722 1.721c-.146-.531-.318-1.183-.722-1.721l-.933.7c.247.33.371.755.53 1.331l1.125-.31zm17.149.123c-8.227 2.332-12.406 2.77-14.587 2.387-1.058-.186-1.589-.556-1.904-.95-.336-.42-.484-.931-.658-1.56l-1.125.31c.164.594.363 1.342.872 1.979.53.663 1.342 1.147 2.613 1.37 2.475.435 6.894-.085 15.107-2.413l-.318-1.123zm16.805-3.538c-2.855.439-7.056 1.324-10.53 2.095a483.31 483.31 0 00-6.126 1.407l-.094.022a.207.207 0 01-.024.006l-.006.002h-.002l.136.568.136.567.002-.001.006-.001a.272.272 0 00.023-.006l.094-.022.36-.085a429.619 429.619 0 015.748-1.317c3.475-.772 7.642-1.649 10.454-2.082l-.177-1.153zm12.822-8.852c.825.275 1.272.584 1.489.857.189.24.23.487.136.798-.104.345-.38.769-.861 1.252-.475.476-1.112.974-1.878 1.475-3.078 2.012-7.973 3.895-11.708 4.47l.177 1.153c3.899-.6 8.952-2.543 12.17-4.646.808-.529 1.516-1.077 2.065-1.629.543-.545.969-1.13 1.153-1.738.193-.642.108-1.293-.339-1.858-.419-.531-1.115-.934-2.035-1.241l-.369 1.107zm-14.867-2.559c5.372.591 10.748 1.184 14.867 2.559l.369-1.107c-4.262-1.423-9.776-2.026-15.109-2.612l-.127 1.16zm.063.004v-1.167 1.167zm-17.669-4.007c1.954 1.27 4.659 2.076 7.689 2.661 3.04.587 6.474.964 9.916 1.342l.128-1.16c-3.454-.379-6.839-.752-9.823-1.328-2.993-.578-5.515-1.35-7.274-2.493l-.636.978zm-9.62-38.031l-.583.015v.006l.001.017.002.07.008.268a140.965 140.965 0 00.251 4.691c.214 3.063.596 7.213 1.268 11.553.67 4.337 1.632 8.884 3.012 12.733 1.371 3.822 3.194 7.075 5.661 8.678l.636-.978c-2.127-1.383-3.844-4.316-5.198-8.094-1.345-3.749-2.293-8.214-2.958-12.517-.665-4.298-1.044-8.414-1.257-11.456a143.266 143.266 0 01-.21-3.643c-.019-.435-.031-.775-.039-1.006l-.008-.262-.002-.067v-.016-.004-.001l-.584.013zm-17.178 4.97l17.322-4.404-.287-1.131-17.322 4.404.287 1.131zm5.706 19.84l-5.284-20.551-1.131.291 5.285 20.551 1.13-.291zm3.272 17.055c-.973-5.562-2.081-11.896-3.268-17.04l-1.137.262c1.178 5.108 2.281 11.408 3.255 16.979l1.15-.201zm-54.603 6.492c-.167 3.174-.315 5.997-.315 8.307h1.167c0-2.273.146-5.061.313-8.246l-1.165-.061zm-.311-28.028c1.246 10.171.721 20.202.311 28.028l1.165.061c.41-7.816.942-17.945-.317-28.23l-1.159.141zm1.761-16.281l-1.762 16.147 1.161.127 1.761-16.148-1.16-.126zm17.094 1.539l-16.441-2.055-.145 1.158 16.441 2.055.145-1.158zm-.991 12.739c.512-1.151.881-3.264 1.125-5.496.248-2.26.377-4.734.377-6.664h-1.167c0 1.887-.127 4.318-.37 6.537-.246 2.246-.603 4.186-1.031 5.149l1.066.474zm1.458 25.589c-5.207-12.693-2.341-23.601-1.458-25.589l-1.066-.474c-.996 2.24-3.899 13.481 1.445 26.506l1.079-.443zm19.076 10.991c-5.806-2.135-13.587-5.005-19.184-11.162l-.863.785c5.816 6.398 13.87 9.349 19.645 11.472l.402-1.095zm7.972 4.905c-.086-.604-.416-1.113-.868-1.547-.449-.43-1.047-.814-1.738-1.175-1.378-.719-3.257-1.408-5.366-2.183l-.402 1.095c2.136.786 3.932 1.447 5.228 2.123.646.337 1.135.662 1.47.983.332.318.483.603.521.869l1.155-.165zm-19.244 2.624c3.265.232 8.072.576 12.006.441 1.959-.067 3.754-.253 5.044-.653.642-.199 1.217-.467 1.621-.848.429-.404.663-.936.573-1.564l-1.155.165c.029.202-.026.369-.218.549-.217.204-.596.407-1.167.584-1.134.351-2.799.535-4.738.601-3.861.132-8.603-.206-11.883-.439l-.083 1.164zm.041.001v-1.167 1.167zm-3.394-.198c.594 0 1.782.085 3.352.197l.083-1.164c-1.542-.11-2.788-.2-3.435-.2v1.167zm-.501.002l.501-.002v-1.167l-.505.002.004 1.167zm-23.276-5.576c0 .831.382 1.528.976 2.093.585.555 1.393 1.002 2.319 1.369 1.855.735 4.339 1.209 6.915 1.519 5.163.621 10.869.602 13.066.595l-.004-1.167c-2.202.007-7.84.025-12.923-.587-2.547-.306-4.911-.767-6.624-1.445-.857-.34-1.512-.719-1.945-1.13-.423-.402-.613-.811-.613-1.247h-1.167z"/>
    </g>
    <path fill="#000" fill-opacity=".04" d="M597.541 225.975c-.792 7.913 2.088 23.739 3.627 30.663l-12.2 1.979-2.308-40.884 9.232-3.627 1.649 11.869z" class="Vector 3"/>
    <path fill="#000" fill-opacity=".08" d="M658.536 503.939c-.66-9.562.439-23.647-.33-32.989 1.429 1.319 3.627 10.141 3.627 12.529 0 7.913.989 17.338 1.978 19.783 3.297 8.153 12.969 6.594 19.453 8.573h-10.551c-5.275-.33-13.619.194-14.177-7.896z" class="Vector 3_2"/>
    <path fill="#838282" fill-opacity=".07" d="M642.051 334.121v7.253l17.474-10.88 17.145-11.87 14.508-10.55 6.924-5.605 6.594-5.276 4.286-3.627-7.913 3.627-12.529 7.913-46.489 29.015z" class="Vector 3_3"/>
    <path fill="#fff" stroke="#000" stroke-width="1.167" d="M644.471 466.408l8.221-72.224 37.873 5.285-2.936 40.809-4.404 28.185c-17.615 7.927-30.24 2.642-38.754-2.055z" class="Vector 4"/>
    <path fill="#fff" stroke="#000" stroke-width="1.167" d="M703.189 378.33c-16.206-15.502-54.706-24.466-71.93-27.011l-51.672 15.267c-.196 3.915.352 13.094 4.11 18.496 3.758 5.403 65.374 14.778 95.712 18.79.939 7.516 10.373 51.281 14.973 72.224 15.032 3.054 35.622-7.535 44.039-13.212 1.174-11.039-22.998-60.969-35.232-84.554z" class="Vector 3_4"/>
    <path fill="#0F3083" fill-rule="evenodd" d="M616.004 177.179c7.488 4.29 14.5 12.998 2.637 23.346-15.556 13.571-15.889 14.49-17.801 19.767-.394 1.086-.854 2.356-1.527 3.959-1.806 4.299-2.453 6.534-3.137 8.898-.868 2.999-1.796 6.205-5.224 14.091a26.298 26.298 0 013.022-1.907c11.156 0 20.258 12.624 20.258 20.845 0 3.603 2.763 8.051 5.867 13.049 3.979 6.406 8.519 13.715 8.519 21.301 0 8.543 5.403 7.923 11.009 7.28 3.257-.374 6.581-.755 8.955.647 5.167 3.054 2.936 31.708-8.221 41.69-.454.978-1.75 2.53-3.348 4.441-2.879 3.444-6.734 8.056-8.395 12.588-2.723 7.424-11.703 6.922-17.798 6.58-1.136-.063-2.171-.121-3.047-.121-4.463 0-6.753 5.285-7.34 7.927-2.153 2.936-8.69 7.868-17.616 4.11-8.925-3.758-6.459-37.384-4.11-53.727-8.941-26.243-8.396-46.055-4.033-60.198-1.556.463-3.337.716-5.397.716-4.923 0-5.666 4.178-6.471 8.711-.927 5.218-1.937 10.904-9.5 11.228-7.539.324-9.406 3.318-11.104 6.042-1.486 2.383-2.843 4.56-7.757 4.56-3.443 0-5.032-2.467-6.712-5.076-1.424-2.211-2.914-4.525-5.656-5.526-2.712-.989-5.237-.291-7.676.382-2.807.775-5.499 1.519-8.226-.382-3.941-2.747-3.472-6.723-2.951-11.138.333-2.823.687-5.826-.077-8.801-.996-3.876-2.736-6.733-4.353-9.388-2.46-4.038-4.634-7.609-3.472-13.581 1.308-6.721 6.323-8.979 11.686-11.394 4.396-1.979 9.026-4.064 12.04-8.799 2.59-4.069 3.301-8.059 3.989-11.925.826-4.643 1.621-9.107 5.603-13.315 6.165-6.517 13.486-5.347 21.821-4.015 5.797.926 12.085 1.931 18.816.481 6.417-1.382 11.178-6.336 16.078-11.433 7.627-7.934 15.588-16.217 30.649-11.913zm88.759 334.326c5.839-5.251-26.257-15.462-26.257-15.462-3.297 1.319-5.937 8.311-7.585 17.213 7.877 2.334 28.003 3.501 33.842-1.751zm60.388-11.086c-3.894 4.384-20.845 7.385-33.547 8.454-.66-12.524 5.276-18.957 7.585-18.957l18.38 2.042s9.226 1.725 9.044 4.085c-.099 1.28-1.462 4.376-1.462 4.376z" class="Union_4" clip-rule="evenodd"/>
    <path fill="#000" fill-opacity=".22" d="M618.641 200.525c11.863-10.348 4.851-19.056-2.637-23.346-24.736-7.068-30.321 19.812-46.727 23.346-16.407 3.534-30.183-7.516-40.637 3.534-7.297 7.711-3.891 16.285-9.592 25.24-6.691 10.511-21.346 7.963-23.726 20.193-1.927 9.899 5.315 13.2 7.825 22.969 1.959 7.628-3.433 15.436 3.028 19.939 5.095 3.551 10.068-2.128 15.902 0 5.976 2.181 6.006 10.602 12.368 10.602 10.531 0 4.726-9.996 18.861-10.602 14.134-.605 5.382-19.939 15.971-19.939 13.125 0 14.906-10.229 19.435-20.193 8.834-19.435 6.07-17.232 10.601-28.017 3.946-9.394.571-7.363 19.328-23.726z" class="Vector 2.1"/>
    <path stroke="#fff" stroke-opacity=".19" stroke-width=".587" d="M640.361 350.146s-12.369 2.11-16.441 0c-5.145-2.666-3.333-8.534-6.753-13.212-4.07-5.566-9.163-6.254-12.918-12.037-4.425-6.817-.293-16.246-5.872-19.965-5.578-3.718-15.501-13.094-10.569-20.845" class="Vector_2"/>
    <g class="Group 6.4">
      <g class="Group 3">
        <path fill="#253093" d="M360.375 540.944V449s18.389 56.89 25.285 87.921c2.693 12.118-8.046 31.606-8.046 31.606s-17.238-14.823-17.239-27.583z" class="Vector 2"/>
        <path fill="#000" fill-opacity=".05" d="M370.144 497.27l-4.023-29.307 16.09 55.741-12.067-26.434z" class="Vector 4_2"/>
        <path fill="#000" fill-opacity=".18" d="M360.375 498.42c1.379 8.275 13.408 47.312 19.538 65.51l-2.299 4.022c-10.344-7.47-15.516-17.814-17.239-25.284V498.42z" class="Vector 4_3"/>
        <path stroke="#000" stroke-width=".575" d="M379.913 584.042l-18.964-133.318" class="Vector_3"/>
      </g>
      <g class="Group 4">
        <path fill="#3544C2" d="M391.126 564.504c-3.42-8.776-6.156-43.36 10.259-111.482 10.449 32.679 23.026 100.726-10.259 111.482z" class="Vector 4_4"/>
        <path fill="#000" fill-opacity=".11" d="M396.577 482.904c3.448 20.687-2.068 54.132-8.045 61.487-1.723-16.09 3.448-50.569 8.045-61.487z" class="Vector 4_5"/>
        <path fill="#000" fill-opacity=".18" d="M390.831 566.803c5.746-18.772 13.791-45.397 20.687-64.361 2.873 19.347 1.724 57.465-20.687 64.361z" class="Vector 4_6"/>
        <path stroke="#000" stroke-width=".575" d="M381.062 584.617c7.853-11.302 23.33-43.788 22.411-83.324-.468-20.113-2.107-50.761-2.299-46.547" class="Vector 3_5"/>
      </g>
      <g class="Group 5">
        <g class="Group">
          <path fill="#202A8A" d="M347.733 555.31c5.057 15.17 20.304 20.879 33.329 28.732 0 0-9.556-22.965-20.112-33.904-12.508-12.961-39.651-23.561-39.651-23.561s21.377 13.562 26.434 28.733z" class="Vector 5_2"/>
          <path stroke="#fff" stroke-width=".345" d="M381.062 584.042c-15.515-18.58-40.225-48.845-55.166-55.166" class="Vector 4_7"/>
        </g>
        <g class="Group 2">
          <path fill="#3544C2" d="M343.135 567.952c14.898-1.333 37.352 16.09 37.352 16.09s-24.029-7.31-37.352-7.97c-9.438-.468-24.135 4.522-24.135 4.522s13.839-11.721 24.135-12.642z" class="Vector 6_2"/>
          <path stroke="#fff" stroke-width=".23" d="M320.149 580.02s15.147-8.851 25.86-9.194c13.704-.439 32.755 12.642 32.755 12.642" class="Vector 4_8"/>
        </g>
      </g>
      <g class="Group 5.1">
        <g class="Group_2">
          <path fill="#1C2473" d="M413.816 555.31c-5.057 15.17-20.304 20.879-33.329 28.732 0 0 9.556-22.965 20.112-33.904 12.508-12.961 39.651-23.561 39.651-23.561s-21.377 13.562-26.434 28.733z" class="Vector 5_3"/>
          <path stroke="#fff" stroke-width=".345" d="M380.487 584.042c15.515-18.58 40.225-48.845 55.166-55.166" class="Vector 4_9"/>
        </g>
        <g class="Group 2_2">
          <path fill="#3544C2" d="M418.414 567.952c-14.898-1.333-37.352 16.09-37.352 16.09s24.029-7.31 37.352-7.97c9.437-.468 24.135 4.522 24.135 4.522s-13.839-11.721-24.135-12.642z" class="Vector 6_3"/>
          <path stroke="#fff" stroke-width=".23" d="M441.399 580.02s-15.147-8.851-25.859-9.194c-13.705-.439-32.755 12.642-32.755 12.642" class="Vector 4_10"/>
        </g>
      </g>
    </g>
  </g>
</svg>
