<svg xmlns="http://www.w3.org/2000/svg" width="1155" height="700" fill="none" viewBox="0 0 1155 700">
  <g class="woman_shopping_vone">
    <path fill="#fff" d="M0 0h1155v700H0z"/>
    <g class="Group 4.1">
      <g class="bag">
        <path fill="#2936B1" fill-rule="evenodd" d="M552.929 95.462H670.52l22.456 559.533H256.952l34.62-559.533h135.369a66.895 66.895 0 013.347-10.785 66.008 66.008 0 0113.995-21.378 64.488 64.488 0 0120.945-14.283A63.435 63.435 0 01489.935 44a63.435 63.435 0 0124.707 5.016A64.488 64.488 0 01535.587 63.3a65.992 65.992 0 0113.995 21.377 66.796 66.796 0 013.347 10.785zm-119.318 0a60.082 60.082 0 012.673-8.25 59.348 59.348 0 0112.588-19.229 57.998 57.998 0 0118.84-12.848 57.055 57.055 0 0122.223-4.512 57.052 57.052 0 0122.223 4.512 57.998 57.998 0 0118.84 12.848 59.367 59.367 0 0112.589 19.228 60.077 60.077 0 012.672 8.25H433.611z" class="Union" clip-rule="evenodd"/>
        <path fill="#000" fill-opacity=".03" d="M642.45 213.355l29.006-90.76 23.392 531.463H642.45V213.355z" class="Vector 23"/>
        <path fill="#000" fill-opacity=".04" d="M256.952 654.997l28.07-469.709L302.8 320.025l18.713 334.972h-64.561z" class="Vector 22.1"/>
      </g>
      <g class="Group">
        <g class="Group 9.3">
          <g class="Group 8.1">
            <path fill="#26B4C8" d="M316.989 573.902c24.437 13.518-10.181 58.924-30.545 79.937H249.4c-26.321-12.023-74.869-38.084-58.491-46.143 20.472-10.073-11.374-21.447-20.472-47.118-9.099-25.671 26.971-25.02 52.967-25.02s5.524-33.795 32.82-41.594c27.295-7.799 17.872 22.422 17.872 41.594s12.348 21.446 42.893 38.344z" class="Vector"/>
            <path fill="#fff" fill-opacity=".13" d="M247.681 539.084c6.893 11.489 11.638 75.364 21.17 113.492h-10.723c1.624-5.199-31.52-22.097-42.244-28.921-10.723-6.824 1.3-18.522 5.524-20.472 4.225-1.95-35.419-20.147-29.245-43.543 4.58-17.356 28.55 20.48 35.095 3.249 4.152-10.934 15.549-31.929 20.423-23.805z" class="Vector 3"/>
            <path stroke="#FBFBFB" stroke-linecap="round" stroke-width="1.462" d="M271.451 653.23c-1.997-5.521-4.464-13.041-6.985-21.771m-3.413-116.655c-7.474 10.724-.648 16.202-4.872 35.699-4.749 21.919-1.22 44.749 4.872 68.445m0 0c-13.865-18.684-31.52-35.906-60.116-53.454m60.116 53.454a442.932 442.932 0 003.413 12.511m0 0c7.853-11.157 26.742-34.835 39.48-40.294" class="Vector 2"/>
          </g>
          <g class="Group 8">
            <path fill="#17A0B3" d="M231.384 558.504c-29.251 16.181 12.188 70.534 36.563 95.687h44.344c31.506-14.392 89.619-45.588 70.015-55.234-24.506-12.058 13.614-25.672 24.505-56.401 10.891-30.729-32.285-29.951-63.403-29.951-31.117 0-6.612-40.453-39.286-49.788-32.674-9.336-21.393 26.839-21.393 49.788 0 22.95-14.782 25.672-51.345 45.899z" class="Vector_2"/>
            <path fill="#fff" fill-opacity=".13" d="M314.347 516.831c-8.251 13.753-13.931 90.214-25.341 135.853h12.836c-1.944-6.223 37.731-26.45 50.567-34.619 12.836-8.168-20.329-9.389-20.329-19.839 0-16.279 56.115-28.783 48.724-56.788-5.483-20.776-34.176 24.515-42.009 3.889-4.971-13.089-18.613-38.22-24.448-28.496z" class="Vector 3_2"/>
            <path stroke="#FBFBFB" stroke-linecap="round" stroke-width="1.75" d="M285.891 653.459c2.392-6.609 5.344-15.61 8.362-26.061m4.086-139.638c8.946 12.836.775 19.394 5.831 42.732 5.685 26.237 1.461 53.565-5.831 81.931m0 0c16.596-22.366 37.73-42.981 71.96-63.986m-71.96 63.986a529.786 529.786 0 01-4.086 14.975m0 0c-9.4-13.354-32.011-41.697-47.259-48.232" class="Vector 2_2"/>
          </g>
        </g>
        <g class="floor">
          <path fill="#F7B3A4" d="M761.497 632.487c-1.247-1.87-2.337-23.375-2.337-34.283-4.675 2.338-14.805 3.376-20.259 3.117 1.818 9.609 6.545 29.608 7.792 29.608 1.247 0 8.051 1.039 14.804 1.558z" class="Vector 6"/>
          <path fill="#000" fill-opacity=".07" d="M751.368 630.931l-3.896-24.154c-2.338-2.078-7.013-4.519-7.013-.779s3.896 17.921 6.234 24.933h4.675z" class="Vector 10"/>
          <path fill="#FA5C5C" d="M745.915 655.864c-3.116-7.48-1.298-20.259 0-25.713h19.479s26.298 17.921 42.075 17.921c4.675 0 1.558 7.792 1.558 7.792h-63.112z" class="Vector 7"/>
          <path stroke="#fff" stroke-linecap="round" stroke-width="1.871" d="M778.125 642.828h7.485m-1.871 2.807h10.292m-19.649-6.55h5.614" class="Vector 12"/>
          <path fill="#F7B3A4" d="M673.45 588.078l15.583-23.375 14.025 14.804-17.92 18.7-11.688-10.129z" class="Vector 8"/>
          <path fill="#000" fill-opacity=".08" d="M697.607 567.817l-21.038 22.596h-3.896l18.7-28.05 6.234 5.454z" class="Vector 11"/>
          <path fill="#FA5C5C" d="M660.206 603.658l14.024-17.921 14.025 14.804s4.192 11.335 7.792 20.258c3.92 9.718 15.583 18.7 11.687 27.271-1.187 2.613-6.233 3.896-6.233 3.896l-41.295-48.308z" class="Vector 9"/>
          <path stroke="#fff" stroke-linecap="round" stroke-width="1.871" d="M689.235 610.08l4.679 3.743m-5.614.935l8.421 5.614m-7.486 0l9.357 6.55" class="Vector 13"/>
        </g>
        <path fill="#146172" fill-rule="evenodd" d="M686.213 222.339c-.599.607-1.213 1.229-1.852 1.868-1.232 1.232-2.463 2.281-3.629 3.273-4.733 4.032-8.376 7.136-6.5 17.764-.298.794-.93 1.688-1.643 2.698-1.154 1.635-2.523 3.572-3.032 5.873-.596 2.689.224 4.764 1.06 6.882.759 1.921 1.533 3.879 1.277 6.364-.321 3.119-2.311 5.688-4.11 8.012-1.873 2.417-3.538 4.567-2.902 6.792.516 1.808.348 4.385.176 7.024-.347 5.324-.711 10.897 4.499 10.897 3.409 0 4.133 1.492 4.979 3.236 1.087 2.24 2.375 4.896 9.825 5.335 6.761.397 13.319-.423 18.846-1.114 5.299-.663 9.65-1.208 12.32-.445 1.896.542 3.83 1.71 5.828 2.916 3.748 2.264 7.721 4.663 12.093 3.318 10.129-3.117 20.258-14.805 16.362-19.479-1.752-2.103-2.873-2.314-3.294-2.973-.515-.807.021-2.283 1.736-8.715 3.117-11.687-1.558-14.025-5.454-14.804-3.896-.779-6.234-12.467-3.896-17.921 2.337-5.454-2.338-12.466-5.454-14.804-1.001-.751-1.118-3.271-1.254-6.217-.288-6.224-.664-14.348-9.654-11.703-3.464 1.018-5.389-1.165-7.421-3.469-2.421-2.745-4.994-5.662-10.5-3.544-9.091 3.497-13.161 7.621-18.406 12.936zm76.842 271.459c6.234-17.142-21.816-80.254-24.154-84.15-12.466 14.96-60.774 9.09-82.591 3.896l-1.558 10.129c-3.117 19.947 31.946 81.552 49.866 109.862l-22.595 33.504 20.258 21.037c4.315-6.107 13.71-19.454 19.59-28.05l15.472 48.308c9.459 2.365 22.235-5.363 27.959-8.825l.87-.525-25.007-67.787c10.592-16.26 19.549-30.962 21.89-37.399z" class="Union_2" clip-rule="evenodd"/>
        <path fill="#F7AF9F" fill-rule="evenodd" d="M707.094 265.944c4.662-4.49 8.102-12.814 8.431-26.93v-7.791s-4.675-5.454-12.467-5.454c-10.203 0-12.467 2.66-12.467 2.66-8.65 11.352-13.585 29.161-2.736 38.545l-1.158 10.999-.779 6.233 11.688 12.466 14.804-8.57c-.26-.909-.844-2.078-1.461-3.312-.617-1.233-1.266-2.532-1.656-3.701-.493-1.478-1.737-9.674-2.199-15.145z" class="Union_3" clip-rule="evenodd"/>
        <path fill="#000" fill-opacity=".08" d="M703.837 275.631s2.597-7.272 3.117-8.57c.779 7.012 1.558 15.583 3.895 17.141-.779 3.117-11.687 5.454-10.908 4.675.624-.623 3.896-13.246 3.896-13.246z" class="Vector 19"/>
        <path fill="#fff" fill-opacity=".05" d="M715.525 239.014c-.624 26.803-12.467 32.725-22.596 31.167-17.146-7.838-12.116-28.921-2.338-41.752 0 0 2.264-2.66 12.467-2.66 7.792 0 12.467 5.454 12.467 5.454v7.791z" class="Vector 11.1"/>
        <path fill="#2A2626" d="M811.683 313.762l-15.182 24.154c-.653 1.037.093 2.387 1.319 2.387h13.377a1.56 1.56 0 001.382-.837l8.912-17.083 3.548-7.095a1.558 1.558 0 00-1.394-2.255h-10.642c-.536 0-1.035.275-1.32.729z" class="Vector 15"/>
        <path fill="#F7B3A4" d="M798.115 339.523l-29.608 14.804c-1.247 3.74 1.558 14.025 3.117 18.7l35.062-26.491c10.908-7.792 16.362-24.154 14.025-24.154-1.87 0-15.843 11.427-22.596 17.141z" class="Vector 4"/>
        <path fill="#fff" fill-opacity=".06" d="M775.316 358.385l-2.807-5.614 25.263-13.099-22.456 18.713z" class="Vector 22"/>
        <path stroke="#000" stroke-linecap="round" stroke-opacity=".07" stroke-width="1.558" d="M686.697 561.586l37.4-56.1-19.48-56.1" class="Vector 19_2"/>
        <path fill="#000" fill-opacity=".04" d="M724.876 505.483l-20.259 27.271c-9.35-14.96-36.62-62.333-44.412-85.708 0 0 26.38-1.347 39.737 7.013 18.919 11.84 24.934 51.424 24.934 51.424z" class="Vector 19_3"/>
        <path fill="#000" fill-opacity=".07" d="M674.229 416.659c1.87 36.777 23.115 89.604 33.504 111.42l-3.117 4.675-4.675-6.233c-51.424-90.383-46.49-95.837-43.633-109.862h17.921z" class="Vector 19_4"/>
        <path fill="#FA4C76" fill-rule="evenodd" d="M664.1 284.204c-8.831 5.715-28.517 29.765-36.62 80.254 6.753 16.362 22.752 52.359 32.725 65.449l14.804-10.908-.066-.175.845-.604c39.269 6.857 58.956-2.857 63.891-8.571-2.038-2.717-3.705-12.65-4.927-23.398l.252.023 37.4-10.129c7.791-14.804 3.896-25.713-2.338-27.271l-30.387 3.896c-3.439-26.365-8.863-48.37-16.332-61.142-4.533-8.482-9.591-12.641-13.528-9.032-11.025 13.475-18.948 3.777-23.655-1.986l-.247-.302-21.816 3.896h-.001z" class="Union_4" clip-rule="evenodd"/>
        <path fill="#070707" fill-opacity=".06" d="M657.867 418.219c-2.493-.623-21.297-36.62-30.387-54.541 1.247 8.727 21.037 49.087 32.725 66.229l4.675-3.896c-1.299-2.337-4.519-7.168-7.013-7.792z" class="Vector 20"/>
        <path stroke="#000" stroke-opacity=".06" stroke-width="1.558" d="M664.101 284.203c-8.831 5.714-28.518 29.764-36.621 80.254 6.753 16.362 22.752 52.359 32.725 65.449l14.804-10.908-21.817-57.658 17.142-45.97" class="Vector_3"/>
        <path fill="#F7B3A4" d="M662.542 435.36l-.779-7.012 11.687-8.571 6.233 8.571c-.623 4.363-7.012 12.207-10.129 15.583l-7.012-8.571z" class="Vector 12_2"/>
        <path fill="#000" fill-opacity=".06" d="M668.775 432.243l-7.012-3.117.779 6.233 7.012 8.571 2.338-3.896-3.117-7.791z" class="Vector 19_5"/>
        <path stroke="#fff" stroke-linecap="round" stroke-opacity=".13" stroke-width=".779" d="M667.217 447.829c3.636-3.636 11.532-12.779 14.025-20.259" class="Vector 12_3"/>
        <path fill="#FDCFC1" d="M759.937 397.961l16.362-8.571 44.413-1.558 21.037 77.137-40.234 13.182-15.086 2.401-26.492-82.591z" class="Vector 13_2"/>
        <path fill="#000" fill-opacity=".08" d="M801.515 478.149l-14.97 2.807-27.387-82.997 17.921-7.792 24.436 87.982z" class="Vector 21"/>
        <path stroke="#000" stroke-width="1.558" d="M776.299 390.171c.26-13.765 1.091-41.296 2.338-41.296l-18.7 49.088m26.492-36.621l34.283 26.492m-38.958-21.817l13.245 21.817" class="Vector 14"/>
        <path stroke="#000" stroke-opacity=".03" stroke-width="1.558" d="M735.003 386.27c-1.818-28.309-2.337-56.099-13.246-82.591" class="Vector 15_2"/>
        <path fill="#fff" fill-opacity=".03" d="M706.175 582.623l-3.896-4.675s41.512-48.364 54.542-90.383c4.107-13.246-27.271-72.462-27.271-72.462 7.012-1.558 4.155-.779 10.129-4.675 8.311 23.115 24.933 71.527 24.933 80.254 0 8.726-38.958 64.93-58.437 91.941z" class="Vector 16"/>
        <path fill="#000" fill-opacity=".04" d="M716.305 515.617l-10.129-58.437 17.141 47.529-7.012 10.908z" class="Vector 17"/>
        <path fill="#000" fill-opacity=".06" d="M752.148 596.65l-16.363-57.658 5.454-7.013 24.154 59.996-13.245 4.675z" class="Vector 18"/>
        <path fill="#000" fill-opacity=".03" d="M732.668 359.782c-1.87 14.336 3.376 39.218 6.233 49.866-10.597 9.35-35.841 10.389-46.75 9.35 0 0 11.688-7.012 17.142-12.467 5.454-5.454 15.583-12.466 17.921-38.958 1.196-13.561-2.338-49.347-3.896-63.112 3.896 11.688 11.22 40.984 9.35 55.321z" class="Vector 20_2"/>
      </g>
      <path stroke="#000" stroke-width="3.743" d="M208.298 654.058h631.58" class="Vector 22_2"/>
      <g class="Group 3">
        <path fill="#F3F3F3" d="M981.165 280.826H829.239c-1.35 0-2.595.727-3.259 1.901l-5.05 8.935c-1.327 2.347-4.624 2.564-6.247.411l-7.353-9.757a3.745 3.745 0 00-2.989-1.49h-27.153a3.742 3.742 0 01-3.743-3.742V152.539a3.743 3.743 0 013.743-3.743h203.977a3.742 3.742 0 013.742 3.743v124.545a3.742 3.742 0 01-3.742 3.742z" class="Vector 28"/>
        <g class="Group 2">
          <path fill="#fff" fill-opacity=".97" d="M782.801 165.637h50.526v95.439h-50.526z" class="Rectangle"/>
          <rect width="35.556" height="11.228" x="790.288" y="242.364" fill="#1999AB" class="Rectangle 2" rx="1.871"/>
          <path fill="#DFF8F9" d="M790.288 204.935h35.556v31.813h-35.556z" class="Rectangle 2.1"/>
          <path fill="#DFF8F9" d="M790.288 174.995h35.556v24.328h-35.556z" class="Rectangle 2.2"/>
          <circle cx="808.065" cy="220.843" r="8.421" fill="#FF9E80" class="Ellipse"/>
        </g>
        <rect width="114.152" height="46.784" x="838.943" y="165.637" fill="#fff" class="Rectangle_2" rx="1.871"/>
        <rect width="35.556" height="44.912" x="838.943" y="216.163" fill="#fff" class="Rectangle_3" rx="1.871"/>
        <rect width="35.556" height="44.912" x="878.241" y="216.163" fill="#fff" class="Rectangle_4" rx="1.871"/>
        <rect width="35.556" height="44.912" x="917.539" y="216.163" fill="#fff" class="Rectangle_5" rx="1.871"/>
      </g>
    </g>
  </g>
</svg>
