<svg xmlns="http://www.w3.org/2000/svg" width="860" height="600" fill="none" viewBox="0 0 860 600">
  <g class="woman_listening_to_feedback">
    <path fill="#fff" d="M42 0h800v600H42z"/>
    <g class="Group 9.5">
      <g class="Group 8">
        <circle cx="21.285" cy="430.974" r="20.744" fill="#E8E8E8" fill-opacity=".07" class="Ellipse 3.2"/>
      </g>
      <g class="Group 8.1">
        <circle cx="86.773" cy="430.974" r="20.744" fill="#E8E8E8" fill-opacity=".07" class="Ellipse 3.2_2"/>
      </g>
      <g class="Group 8.2">
        <circle cx="152.259" cy="430.974" r="20.744" fill="#E8E8E8" fill-opacity=".07" class="Ellipse 3.2_3"/>
      </g>
      <g class="Group 8.3">
        <circle cx="217.746" cy="430.974" r="20.744" fill="#E8E8E8" fill-opacity=".07" class="Ellipse 3.2_4"/>
      </g>
      <g class="Group 8.4">
        <circle cx="283.234" cy="430.974" r="20.744" fill="#E8E8E8" fill-opacity=".07" class="Ellipse 3.2_5"/>
      </g>
      <g class="Group 8.5">
        <circle cx="348.72" cy="430.974" r="20.744" fill="#E8E8E8" fill-opacity=".07" class="Ellipse 3.2_6"/>
      </g>
      <g class="Group 8.6">
        <circle cx="414.207" cy="430.974" r="20.744" fill="#E8E8E8" fill-opacity=".07" class="Ellipse 3.2_7"/>
      </g>
      <g class="Group 8.7">
        <circle cx="479.694" cy="430.974" r="20.744" fill="#E8E8E8" fill-opacity=".07" class="Ellipse 3.2_8"/>
      </g>
      <g class="Group 8.8">
        <circle cx="545.181" cy="430.974" r="20.744" fill="#E8E8E8" fill-opacity=".07" class="Ellipse 3.2_9"/>
      </g>
      <g class="Group 8.9">
        <circle cx="610.667" cy="430.974" r="20.744" fill="#E8E8E8" fill-opacity=".07" class="Ellipse 3.2_10"/>
      </g>
      <g class="Group 8.10">
        <circle cx="676.155" cy="430.974" r="20.744" fill="#E8E8E8" fill-opacity=".07" class="Ellipse 3.2_11"/>
      </g>
      <g class="Group 8.11">
        <circle cx="741.642" cy="430.974" r="20.744" fill="#E8E8E8" fill-opacity=".07" class="Ellipse 3.2_12"/>
      </g>
      <g class="Group 8.12">
        <circle cx="807.128" cy="430.974" r="20.744" fill="#E8E8E8" fill-opacity=".07" class="Ellipse 3.2_13"/>
      </g>
    </g>
    <g class="Group 9.7">
      <g class="Group 8_2">
        <circle cx="53.285" cy="496.46" r="20.744" fill="#E8E8E8" fill-opacity=".07" class="Ellipse 3.2_14"/>
      </g>
      <g class="Group 8.1_2">
        <circle cx="118.773" cy="496.46" r="20.744" fill="#E8E8E8" fill-opacity=".07" class="Ellipse 3.2_15"/>
      </g>
      <g class="Group 8.2_2">
        <circle cx="184.259" cy="496.46" r="20.744" fill="#E8E8E8" fill-opacity=".07" class="Ellipse 3.2_16"/>
      </g>
      <g class="Group 8.3_2">
        <circle cx="249.746" cy="496.46" r="20.744" fill="#E8E8E8" fill-opacity=".07" class="Ellipse 3.2_17"/>
      </g>
      <g class="Group 8.4_2">
        <circle cx="315.234" cy="496.46" r="20.744" fill="#E8E8E8" fill-opacity=".07" class="Ellipse 3.2_18"/>
      </g>
      <g class="Group 8.5_2">
        <circle cx="380.72" cy="496.46" r="20.744" fill="#E8E8E8" fill-opacity=".07" class="Ellipse 3.2_19"/>
      </g>
      <g class="Group 8.6_2">
        <circle cx="446.207" cy="496.46" r="20.744" fill="#E8E8E8" fill-opacity=".07" class="Ellipse 3.2_20"/>
      </g>
      <g class="Group 8.7_2">
        <circle cx="511.694" cy="496.46" r="20.744" fill="#E8E8E8" fill-opacity=".07" class="Ellipse 3.2_21"/>
      </g>
      <g class="Group 8.8_2">
        <circle cx="577.181" cy="496.46" r="20.744" fill="#E8E8E8" fill-opacity=".07" class="Ellipse 3.2_22"/>
      </g>
      <g class="Group 8.9_2">
        <circle cx="642.667" cy="496.46" r="20.744" fill="#E8E8E8" fill-opacity=".07" class="Ellipse 3.2_23"/>
      </g>
      <g class="Group 8.10_2">
        <circle cx="708.155" cy="496.46" r="20.744" fill="#E8E8E8" fill-opacity=".07" class="Ellipse 3.2_24"/>
      </g>
      <g class="Group 8.11_2">
        <circle cx="773.642" cy="496.46" r="20.744" fill="#E8E8E8" fill-opacity=".07" class="Ellipse 3.2_25"/>
      </g>
      <g class="Group 8.12_2">
        <circle cx="839.128" cy="496.46" r="20.744" fill="#E8E8E8" fill-opacity=".07" class="Ellipse 3.2_26"/>
      </g>
    </g>
    <g class="Group 9.6">
      <g class="Group 8_3">
        <circle cx="53.285" cy="365.487" r="20.744" fill="#E8E8E8" fill-opacity=".07" class="Ellipse 3.2_27"/>
      </g>
      <g class="Group 8.1_3">
        <circle cx="118.773" cy="365.487" r="20.744" fill="#E8E8E8" fill-opacity=".07" class="Ellipse 3.2_28"/>
      </g>
      <g class="Group 8.2_3">
        <circle cx="184.259" cy="365.487" r="20.744" fill="#E8E8E8" fill-opacity=".07" class="Ellipse 3.2_29"/>
      </g>
      <g class="Group 8.3_3">
        <circle cx="249.746" cy="365.487" r="20.744" fill="#E8E8E8" fill-opacity=".07" class="Ellipse 3.2_30"/>
      </g>
      <g class="Group 8.4_3">
        <circle cx="315.234" cy="365.487" r="20.744" fill="#E8E8E8" fill-opacity=".07" class="Ellipse 3.2_31"/>
      </g>
      <g class="Group 8.5_3">
        <circle cx="380.72" cy="365.487" r="20.744" fill="#E8E8E8" fill-opacity=".07" class="Ellipse 3.2_32"/>
      </g>
      <g class="Group 8.6_3">
        <circle cx="446.207" cy="365.487" r="20.744" fill="#E8E8E8" fill-opacity=".07" class="Ellipse 3.2_33"/>
      </g>
      <g class="Group 8.7_3">
        <circle cx="511.694" cy="365.487" r="20.744" fill="#E8E8E8" fill-opacity=".07" class="Ellipse 3.2_34"/>
      </g>
      <g class="Group 8.8_3">
        <circle cx="577.181" cy="365.487" r="20.744" fill="#E8E8E8" fill-opacity=".07" class="Ellipse 3.2_35"/>
      </g>
      <g class="Group 8.9_3">
        <circle cx="642.667" cy="365.487" r="20.744" fill="#E8E8E8" fill-opacity=".07" class="Ellipse 3.2_36"/>
      </g>
      <g class="Group 8.10_3">
        <circle cx="708.155" cy="365.487" r="20.744" fill="#E8E8E8" fill-opacity=".07" class="Ellipse 3.2_37"/>
      </g>
      <g class="Group 8.11_3">
        <circle cx="773.642" cy="365.487" r="20.744" fill="#E8E8E8" fill-opacity=".07" class="Ellipse 3.2_38"/>
      </g>
      <g class="Group 8.12_3">
        <circle cx="839.128" cy="365.487" r="20.744" fill="#E8E8E8" fill-opacity=".07" class="Ellipse 3.2_39"/>
      </g>
    </g>
    <g class="Group 9.4">
      <g class="Group 8_4">
        <circle cx="21.285" cy="300" r="20.744" fill="#E8E8E8" fill-opacity=".07" class="Ellipse 3.2_40"/>
      </g>
      <g class="Group 8.1_4">
        <circle cx="86.773" cy="300" r="20.744" fill="#E8E8E8" fill-opacity=".07" class="Ellipse 3.2_41"/>
      </g>
      <g class="Group 8.2_4">
        <circle cx="152.259" cy="300" r="20.744" fill="#E8E8E8" fill-opacity=".07" class="Ellipse 3.2_42"/>
      </g>
      <g class="Group 8.3_4">
        <circle cx="217.746" cy="300" r="20.744" fill="#E8E8E8" fill-opacity=".07" class="Ellipse 3.2_43"/>
      </g>
      <g class="Group 8.4_4">
        <circle cx="283.234" cy="300" r="20.744" fill="#E8E8E8" fill-opacity=".07" class="Ellipse 3.2_44"/>
      </g>
      <g class="Group 8.5_4">
        <circle cx="348.72" cy="300" r="20.744" fill="#E8E8E8" fill-opacity=".07" class="Ellipse 3.2_45"/>
      </g>
      <g class="Group 8.6_4">
        <circle cx="414.207" cy="300" r="20.744" fill="#E8E8E8" fill-opacity=".07" class="Ellipse 3.2_46"/>
      </g>
      <g class="Group 8.7_4">
        <circle cx="479.694" cy="300" r="20.744" fill="#E8E8E8" fill-opacity=".07" class="Ellipse 3.2_47"/>
      </g>
      <g class="Group 8.8_4">
        <circle cx="545.181" cy="300" r="20.744" fill="#E8E8E8" fill-opacity=".07" class="Ellipse 3.2_48"/>
      </g>
      <g class="Group 8.9_4">
        <circle cx="610.667" cy="300" r="20.744" fill="#E8E8E8" fill-opacity=".07" class="Ellipse 3.2_49"/>
      </g>
      <g class="Group 8.10_4">
        <circle cx="676.155" cy="300" r="20.744" fill="#E8E8E8" fill-opacity=".07" class="Ellipse 3.2_50"/>
      </g>
      <g class="Group 8.11_4">
        <circle cx="741.642" cy="300" r="20.744" fill="#E8E8E8" fill-opacity=".07" class="Ellipse 3.2_51"/>
      </g>
      <g class="Group 8.12_4">
        <circle cx="807.128" cy="300" r="20.744" fill="#E8E8E8" fill-opacity=".07" class="Ellipse 3.2_52"/>
      </g>
    </g>
    <g class="Group 9.8">
      <g class="Group 8_5">
        <circle cx="21.285" cy="561.947" r="20.744" fill="#E8E8E8" fill-opacity=".07" class="Ellipse 3.2_53"/>
      </g>
      <g class="Group 8.1_5">
        <circle cx="86.773" cy="561.947" r="20.744" fill="#E8E8E8" fill-opacity=".07" class="Ellipse 3.2_54"/>
      </g>
      <g class="Group 8.2_5">
        <circle cx="152.259" cy="561.947" r="20.744" fill="#E8E8E8" fill-opacity=".07" class="Ellipse 3.2_55"/>
      </g>
      <g class="Group 8.3_5">
        <circle cx="217.746" cy="561.947" r="20.744" fill="#E8E8E8" fill-opacity=".07" class="Ellipse 3.2_56"/>
      </g>
      <g class="Group 8.4_5">
        <circle cx="283.234" cy="561.947" r="20.744" fill="#E8E8E8" fill-opacity=".07" class="Ellipse 3.2_57"/>
      </g>
      <g class="Group 8.5_5">
        <circle cx="348.72" cy="561.947" r="20.744" fill="#E8E8E8" fill-opacity=".07" class="Ellipse 3.2_58"/>
      </g>
      <g class="Group 8.6_5">
        <circle cx="414.207" cy="561.947" r="20.744" fill="#E8E8E8" fill-opacity=".07" class="Ellipse 3.2_59"/>
      </g>
      <g class="Group 8.7_5">
        <circle cx="479.694" cy="561.947" r="20.744" fill="#E8E8E8" fill-opacity=".07" class="Ellipse 3.2_60"/>
      </g>
      <g class="Group 8.8_5">
        <circle cx="545.181" cy="561.947" r="20.744" fill="#E8E8E8" fill-opacity=".07" class="Ellipse 3.2_61"/>
      </g>
      <g class="Group 8.9_5">
        <circle cx="610.667" cy="561.947" r="20.744" fill="#E8E8E8" fill-opacity=".07" class="Ellipse 3.2_62"/>
      </g>
      <g class="Group 8.10_5">
        <circle cx="676.155" cy="561.947" r="20.744" fill="#E8E8E8" fill-opacity=".07" class="Ellipse 3.2_63"/>
      </g>
      <g class="Group 8.11_5">
        <circle cx="741.642" cy="561.947" r="20.744" fill="#E8E8E8" fill-opacity=".07" class="Ellipse 3.2_64"/>
      </g>
      <g class="Group 8.12_5">
        <circle cx="807.128" cy="561.947" r="20.744" fill="#E8E8E8" fill-opacity=".07" class="Ellipse 3.2_65"/>
      </g>
    </g>
    <g class="Group 9.2">
      <g class="Group 8_6">
        <circle cx="21.285" cy="169.026" r="20.744" fill="#E8E8E8" fill-opacity=".07" class="Ellipse 3.2_66"/>
      </g>
      <g class="Group 8.1_6">
        <circle cx="86.773" cy="169.026" r="20.744" fill="#E8E8E8" fill-opacity=".07" class="Ellipse 3.2_67"/>
      </g>
      <g class="Group 8.2_6">
        <circle cx="152.259" cy="169.026" r="20.744" fill="#E8E8E8" fill-opacity=".07" class="Ellipse 3.2_68"/>
      </g>
      <g class="Group 8.3_6">
        <circle cx="217.746" cy="169.026" r="20.744" fill="#E8E8E8" fill-opacity=".07" class="Ellipse 3.2_69"/>
      </g>
      <g class="Group 8.4_6">
        <circle cx="283.234" cy="169.026" r="20.744" fill="#E8E8E8" fill-opacity=".07" class="Ellipse 3.2_70"/>
      </g>
      <g class="Group 8.5_6">
        <circle cx="348.72" cy="169.026" r="20.744" fill="#E8E8E8" fill-opacity=".07" class="Ellipse 3.2_71"/>
      </g>
      <g class="Group 8.6_6">
        <circle cx="414.207" cy="169.026" r="20.744" fill="#E8E8E8" fill-opacity=".07" class="Ellipse 3.2_72"/>
      </g>
      <g class="Group 8.7_6">
        <circle cx="479.694" cy="169.026" r="20.744" fill="#E8E8E8" fill-opacity=".07" class="Ellipse 3.2_73"/>
      </g>
      <g class="Group 8.8_6">
        <circle cx="545.181" cy="169.026" r="20.744" fill="#E8E8E8" fill-opacity=".07" class="Ellipse 3.2_74"/>
      </g>
      <g class="Group 8.9_6">
        <circle cx="610.667" cy="169.026" r="20.744" fill="#E8E8E8" fill-opacity=".07" class="Ellipse 3.2_75"/>
      </g>
      <g class="Group 8.10_6">
        <circle cx="676.155" cy="169.026" r="20.744" fill="#E8E8E8" fill-opacity=".07" class="Ellipse 3.2_76"/>
      </g>
      <g class="Group 8.11_6">
        <circle cx="741.642" cy="169.026" r="20.744" fill="#E8E8E8" fill-opacity=".07" class="Ellipse 3.2_77"/>
      </g>
      <g class="Group 8.12_6">
        <circle cx="807.128" cy="169.026" r="20.744" fill="#E8E8E8" fill-opacity=".07" class="Ellipse 3.2_78"/>
      </g>
    </g>
    <g class="Group 9.1">
      <g class="Group 8_7">
        <circle cx="53.285" cy="103.54" r="20.744" fill="#E8E8E8" fill-opacity=".07" class="Ellipse 3.2_79"/>
      </g>
      <g class="Group 8.1_7">
        <circle cx="118.773" cy="103.54" r="20.744" fill="#E8E8E8" fill-opacity=".07" class="Ellipse 3.2_80"/>
      </g>
      <g class="Group 8.2_7">
        <circle cx="184.259" cy="103.54" r="20.744" fill="#E8E8E8" fill-opacity=".07" class="Ellipse 3.2_81"/>
      </g>
      <g class="Group 8.3_7">
        <circle cx="249.746" cy="103.54" r="20.744" fill="#E8E8E8" fill-opacity=".07" class="Ellipse 3.2_82"/>
      </g>
      <g class="Group 8.4_7">
        <circle cx="315.234" cy="103.54" r="20.744" fill="#E8E8E8" fill-opacity=".07" class="Ellipse 3.2_83"/>
      </g>
      <g class="Group 8.5_7">
        <circle cx="380.72" cy="103.54" r="20.744" fill="#E8E8E8" fill-opacity=".07" class="Ellipse 3.2_84"/>
      </g>
      <g class="Group 8.6_7">
        <circle cx="446.207" cy="103.54" r="20.744" fill="#E8E8E8" fill-opacity=".07" class="Ellipse 3.2_85"/>
      </g>
      <g class="Group 8.7_7">
        <circle cx="511.694" cy="103.54" r="20.744" fill="#E8E8E8" fill-opacity=".07" class="Ellipse 3.2_86"/>
      </g>
      <g class="Group 8.8_7">
        <circle cx="577.181" cy="103.54" r="20.744" fill="#E8E8E8" fill-opacity=".07" class="Ellipse 3.2_87"/>
      </g>
      <g class="Group 8.9_7">
        <circle cx="642.667" cy="103.54" r="20.744" fill="#E8E8E8" fill-opacity=".07" class="Ellipse 3.2_88"/>
      </g>
      <g class="Group 8.10_7">
        <circle cx="708.155" cy="103.54" r="20.744" fill="#E8E8E8" fill-opacity=".07" class="Ellipse 3.2_89"/>
      </g>
      <g class="Group 8.11_7">
        <circle cx="773.642" cy="103.54" r="20.744" fill="#E8E8E8" fill-opacity=".07" class="Ellipse 3.2_90"/>
      </g>
      <g class="Group 8.12_7">
        <circle cx="839.128" cy="103.54" r="20.744" fill="#E8E8E8" fill-opacity=".07" class="Ellipse 3.2_91"/>
      </g>
    </g>
    <g class="Group 9.3">
      <g class="Group 8_8">
        <circle cx="53.285" cy="234.513" r="20.744" fill="#E8E8E8" fill-opacity=".07" class="Ellipse 3.2_92"/>
      </g>
      <g class="Group 8.1_8">
        <circle cx="118.773" cy="234.513" r="20.744" fill="#E8E8E8" fill-opacity=".07" class="Ellipse 3.2_93"/>
      </g>
      <g class="Group 8.2_8">
        <circle cx="184.259" cy="234.513" r="20.744" fill="#E8E8E8" fill-opacity=".07" class="Ellipse 3.2_94"/>
      </g>
      <g class="Group 8.3_8">
        <circle cx="249.746" cy="234.513" r="20.744" fill="#E8E8E8" fill-opacity=".07" class="Ellipse 3.2_95"/>
      </g>
      <g class="Group 8.4_8">
        <circle cx="315.234" cy="234.513" r="20.744" fill="#E8E8E8" fill-opacity=".07" class="Ellipse 3.2_96"/>
      </g>
      <g class="Group 8.5_8">
        <circle cx="380.72" cy="234.513" r="20.744" fill="#E8E8E8" fill-opacity=".07" class="Ellipse 3.2_97"/>
      </g>
      <g class="Group 8.6_8">
        <circle cx="446.207" cy="234.513" r="20.744" fill="#E8E8E8" fill-opacity=".07" class="Ellipse 3.2_98"/>
      </g>
      <g class="Group 8.7_8">
        <circle cx="511.694" cy="234.513" r="20.744" fill="#E8E8E8" fill-opacity=".07" class="Ellipse 3.2_99"/>
      </g>
      <g class="Group 8.8_8">
        <circle cx="577.181" cy="234.513" r="20.744" fill="#E8E8E8" fill-opacity=".07" class="Ellipse 3.2_100"/>
      </g>
      <g class="Group 8.9_8">
        <circle cx="642.667" cy="234.513" r="20.744" fill="#E8E8E8" fill-opacity=".07" class="Ellipse 3.2_101"/>
      </g>
      <g class="Group 8.10_8">
        <circle cx="708.155" cy="234.513" r="20.744" fill="#E8E8E8" fill-opacity=".07" class="Ellipse 3.2_102"/>
      </g>
      <g class="Group 8.11_8">
        <circle cx="773.642" cy="234.513" r="20.744" fill="#E8E8E8" fill-opacity=".07" class="Ellipse 3.2_103"/>
      </g>
      <g class="Group 8.12_8">
        <circle cx="839.128" cy="234.513" r="20.744" fill="#E8E8E8" fill-opacity=".07" class="Ellipse 3.2_104"/>
      </g>
    </g>
    <path fill="#FAA241" fill-rule="evenodd" d="M297.16 188.107c-3.594 6.794-8.794 16.626-28.679 24.526-22.823 9.067-64.12 0-64.12 0s-1.803 2.692-4.126 7.324c-3.945-4.87-9.082-9.354-15.907-10.033-11.896-1.183-24.601 6.02-26.433 15.441-1.832 9.422 9.081 21.63 21.46 24.339 3.833.839 7.869.289 11.573-.791-1.365 9.462-1.17 19.987 2.302 30.57 3.919 11.945 10.535 24.769 16.972 35.735h35.696c31.553 0 58.233-20.858 67.005-49.538 2.309-.821 4.406-2.147 6.681-4.119 2.712-2.35-.186-8.833-3.628-16.517v-35.841c-2.11-1.36-6.828-6.55-17.265-23.894-.503.855-.999 1.793-1.531 2.798zM612.624 387.38c21.141-1.563 38.701 2.166 49.815 19.369 12.553 19.431 3.66 41.795-6.491 65.072-8.501 19.492-17.524 40.182-14.309 62.284 14.551-5.426 27.172-3.622 41.837-1.527 3.259.466 6.62.946 10.124 1.365v15.944l-88.352 10.42v-38.444h-37.32c-70.626 0-103.619-64.969-116.267-99.958-.243-2.506-.738-5.196-1.549-8.085a.536.536 0 10-1.034.29c.126.45.245.895.355 1.335-3.047-9.29-4.331-15.256-4.331-15.256L442 383.59c2.989-3.193 5.365-6.706 7.224-10.423.488-.649.912-1.282 1.241-1.886 7.774 15.752 24.27 30.889 55.939 31.335 21.791.307 44.012-4.217 64.874-8.464h.002c7.662-1.56 15.14-3.083 22.346-4.315 6.731-.969 13.061-1.858 18.998-2.457zm10.197 17.241c3.009-1.777 8.044-3.912 13.335-4.533 5.288-.621 10.746.276 14.741 4.442 10.204 10.638 9.557 25.423 6.087 33.231-1.718 3.865-5.002 7.257-8.6 9.137-3.607 1.884-7.405 2.197-10.271.15-2.98-2.129-5.075-5.501-6.07-8.809-.497-1.651-.714-3.267-.638-4.683.076-1.421.443-2.603 1.075-3.429a.537.537 0 00-.854-.653c-.805 1.053-1.211 2.468-1.294 4.025-.083 1.561.156 3.302.682 5.05 1.049 3.489 3.265 7.08 6.474 9.373 3.324 2.374 7.594 1.913 11.393-.072 3.807-1.988 7.265-5.559 9.084-9.652 3.604-8.108 4.283-23.387-6.292-34.412-4.316-4.499-10.169-5.408-15.643-4.765-5.471.642-10.648 2.84-13.755 4.674a.537.537 0 10.546.926zm11.294 9.138a.537.537 0 10-.992.413c.768 1.843 1.67 2.827 2.737 3.235 1.04.398 2.113.193 3.044-.007l.193-.042.026-.005c.893-.194 1.675-.364 2.445-.231.776.135 1.607.6 2.457 1.944.852 1.346.895 2.277.652 2.986-.259.755-.878 1.38-1.626 2.037l-.085.074-.227.197-.001.001-.004.003c-.266.23-.539.466-.784.701-.348.332-.681.699-.915 1.113-.24.423-.379.901-.327 1.442.052.533.285 1.073.698 1.636a.537.537 0 10.866-.636c-.336-.457-.467-.817-.495-1.104-.027-.28.04-.539.192-.809.159-.279.404-.56.724-.866.226-.216.468-.425.726-.649h.001v-.001l.003-.002.121-.104.216-.189c.742-.652 1.572-1.442 1.933-2.496.378-1.1.213-2.372-.76-3.909-.974-1.54-2.043-2.23-3.182-2.427-.988-.172-1.976.045-2.827.232l-.167.037-.079.017c-.957.206-1.729.323-2.434.054-.677-.26-1.416-.934-2.129-2.645zm-99.065 54.084a.538.538 0 00-.952.498c1.264 2.418 1.881 4.674 1.881 6.91 0 2.236-.617 4.491-1.881 6.909-2.236 4.279-7.009 5.949-12.106 5.917-5.093-.032-10.318-1.772-13.222-4.08a.537.537 0 10-.669.841c3.13 2.488 8.603 4.28 13.885 4.314 5.279.033 10.558-1.699 13.064-6.494 1.326-2.537 2.003-4.962 2.003-7.407 0-2.445-.677-4.871-2.003-7.408zm-46.574-43.536a4.41 4.41 0 11-8.82-.002 4.41 4.41 0 018.82.002zm9.728-14.137c-4.257-5.144-10.198-5.386-12.59-4.879a.536.536 0 11-.223-1.051c2.67-.566 9.062-.287 13.641 5.245a.539.539 0 01-.828.685zm-328.988-72.912v-4.105l28.153 4.634-28.153-.529zm47.264-11.783l.747 1.169v-1.007l-.747-.162zm0 0a334.803 334.803 0 01-6.278-10.256h7.025v10.256h-.747zm269.13-53.498c-1.889-6.032-9.326-9.073-16.611-6.791l5.898 18.832 5.439 17.365 1.925 6.148c2.849 9.096 12.532 14.16 21.628 11.311l17.066-5.345c8.446-2.646 13.148-11.637 10.503-20.083l-5.338-17.043a8.012 8.012 0 00-10.041-5.251l-27.992 8.767-2.477-7.91zm-159.083 95.101c1.703-5.437 8.407-8.178 14.973-6.121l-10.219 32.625-1.735 5.541c-2.568 8.198-11.295 12.762-19.494 10.195L294.67 404.5c-7.613-2.385-11.851-10.489-9.467-18.101l4.812-15.362a7.222 7.222 0 019.05-4.733l25.23 7.902 2.232-7.128z" class="Union" clip-rule="evenodd"/>
    <path fill="#55B7AE" fill-rule="evenodd" d="M445.575 46.705l.629-15.129-13.416 7.02 12.787 8.109zm-363.87.386l14.422-4.61-11.203-10.186-3.22 14.795zm714.824-11.05l-.879 15.116-12.652-8.319 13.531-6.797zM233.754 86.185l12.437 8.636-13.698 6.453 1.261-15.09zm-5.435 256.696l-30.95-5.094-45.804-.861-2.117 19.961a56.443 56.443 0 00-8.507 3.478c-27.246 10.424-32.292 29.897-37.205 57.622l-16.102 81.405 42.345-5.101a155.57 155.57 0 002.19 6.973l89.915-5.415c1.224-2.866 1.934-7.352 2.209-12.92l50.833-6.123c0-34.544-17.909-63.718-40.349-90.176a86.535 86.535 0 00-9.009-9.133l9.675-38.995-10.4-.195a215.351 215.351 0 003.276 4.574zm561.883-14.468l.879-15.116-13.53 6.797 12.651 8.319zm-84.58-173.684l10.671 10.742-14.639 3.87 3.968-14.612zM465.695 291.653l10.558-3.307 4.083 13.036 1.926 6.148a17.181 17.181 0 005.876 8.468l-13.494 4.226a4.932 4.932 0 01-6.18-3.231l-6.001-19.161a4.93 4.93 0 013.232-6.179zM329.547 399.122a15.49 15.49 0 01-5.295 7.632l12.161 3.809a4.444 4.444 0 005.57-2.913l5.409-17.27a4.443 4.443 0 00-2.913-5.569l-9.516-2.981-3.681 11.752-1.735 5.54zm153.229-152.777c86.042 0 118.407-28.412 118.407-76.612 0-78.945-53.012-87.274-118.407-87.274-65.394 0-122.717 7.697-118.406 87.274 0 17.46 4.247 32.323 13.753 44.18l-33.556 54.991 62.77-34.158c18.309 7.58 43.078 11.599 75.439 11.599zm109.993 315.299l106.679-12.619v34.297H592.769v-21.678z" class="Union_2" clip-rule="evenodd"/>
    <g class="Group 9">
      <g class="Group 8_9">
        <circle cx="21.285" cy="38.053" r="20.744" fill="#E8E8E8" fill-opacity=".07" class="Ellipse 3.2_105"/>
      </g>
      <g class="Group 8.1_9">
        <circle cx="86.773" cy="38.053" r="20.744" fill="#E8E8E8" fill-opacity=".07" class="Ellipse 3.2_106"/>
      </g>
      <g class="Group 8.2_9">
        <circle cx="152.259" cy="38.053" r="20.744" fill="#E8E8E8" fill-opacity=".07" class="Ellipse 3.2_107"/>
      </g>
      <g class="Group 8.3_9">
        <circle cx="217.746" cy="38.053" r="20.744" fill="#E8E8E8" fill-opacity=".07" class="Ellipse 3.2_108"/>
      </g>
      <g class="Group 8.4_9">
        <circle cx="283.234" cy="38.053" r="20.744" fill="#E8E8E8" fill-opacity=".07" class="Ellipse 3.2_109"/>
      </g>
      <g class="Group 8.5_9">
        <circle cx="348.72" cy="38.053" r="20.744" fill="#E8E8E8" fill-opacity=".07" class="Ellipse 3.2_110"/>
      </g>
      <g class="Group 8.6_9">
        <circle cx="414.207" cy="38.053" r="20.744" fill="#E8E8E8" fill-opacity=".07" class="Ellipse 3.2_111"/>
      </g>
      <g class="Group 8.7_9">
        <circle cx="479.694" cy="38.053" r="20.744" fill="#E8E8E8" fill-opacity=".07" class="Ellipse 3.2_112"/>
      </g>
      <g class="Group 8.8_9">
        <circle cx="545.181" cy="38.053" r="20.744" fill="#E8E8E8" fill-opacity=".07" class="Ellipse 3.2_113"/>
      </g>
      <g class="Group 8.9_9">
        <circle cx="610.667" cy="38.053" r="20.744" fill="#E8E8E8" fill-opacity=".07" class="Ellipse 3.2_114"/>
      </g>
      <g class="Group 8.10_9">
        <circle cx="676.155" cy="38.053" r="20.744" fill="#E8E8E8" fill-opacity=".07" class="Ellipse 3.2_115"/>
      </g>
      <g class="Group 8.11_9">
        <circle cx="741.642" cy="38.053" r="20.744" fill="#E8E8E8" fill-opacity=".07" class="Ellipse 3.2_116"/>
      </g>
      <g class="Group 8.12_9">
        <circle cx="807.128" cy="38.053" r="20.744" fill="#E8E8E8" fill-opacity=".07" class="Ellipse 3.2_117"/>
      </g>
    </g>
    <rect width="14.516" height="11.061" x="488.307" y="202.563" fill="#FAFFFE" class="Rectangle 3.3" rx="5.53" transform="rotate(90 488.307 202.563)"/>
    <path fill="#FAFFFE" fill-rule="evenodd" d="M507.807 163.122a27.935 27.935 0 003.023-12.68c0-15.493-12.56-28.053-28.054-28.053-15.493 0-28.053 12.56-28.053 28.053 0 4.221.932 8.223 2.601 11.814 2.5 6.494 6.968 14.076 13.34 19.467v20.997h11.998v-22.722h-4.149l-.055-.521a61.225 61.225 0 00-.291-2.048c-.069-.456-.145-.96-.224-1.497-.236-1.604-.491-3.475-.63-5.134-.616-7.352-1.775-13.133-4.244-18.406a37.148 37.148 0 00-2.806-4.953c-.64.127-1.237.207-1.712.249l-.101-1.16.12-.011c.286-.028.614-.071.965-.129a47.179 47.179 0 00-2.725-3.44.582.582 0 01.059-.823.581.581 0 01.821.058 47.464 47.464 0 013.09 3.948 11.89 11.89 0 001.175-.354l.031-.012c.16-.058.314-.12.462-.184a7.033 7.033 0 01-1.01-3.168 3.492 3.492 0 01.071-1.003c.008-.032.017-.065.028-.1.074-.246.228-.563.56-.711a1.6 1.6 0 01.298-.098c.712-.157 1.536.167 2.104.723.087.086.17.177.247.275.542.685.823 1.673.542 2.877-.149.639-.571 1.14-1.072 1.527a3.136 3.136 0 00.597.416c.577.306 1.296.442 2.2.265a9.694 9.694 0 003.931-1.767 4.236 4.236 0 01-.631-1.168 3.904 3.904 0 01.101-2.834c.305-.706.815-1.299 1.426-1.592.041-.02.084-.039.126-.056.3-.121.631-.173.969-.113l.072.015c.362.081.686.286.95.594.07.081.133.166.189.252.393.607.453 1.331.293 2.042-.181.803-.647 1.629-1.295 2.388a8.673 8.673 0 01-.502.541l.064.05a5.756 5.756 0 00.849.531c1.714.873 3.351.52 4.645-.354-.872-1.69-.766-3.116-.119-4.133.47-.738 1.212-1.204 1.933-1.281.364-.039.75.019 1.081.231.34.217.568.563.658.99.02.096.034.194.042.294.057.697-.171 1.477-.545 2.196a7.366 7.366 0 01-1.53 1.979l.151.21a12.404 12.404 0 001.465 1.617c.13.121.258.24.386.355.631-.923 1.309-1.71 2.036-2.32a.582.582 0 11.749.893c-.66.554-1.293 1.295-1.894 2.19a17.63 17.63 0 002.315 1.603l-.579 1.01a18.619 18.619 0 01-2.355-1.616c-.463.803-.904 1.7-1.32 2.675h-.001l-.089.212c-1.13 2.702-2.044 5.92-2.704 9.251-1.323 6.682-1.604 13.702-.631 17.813l.17.716h-4.757v22.722h11.998v-20.997c5.992-5.07 10.467-12.262 13.147-18.601zm-16.717-14.554c-.192-.17-.385-.347-.579-.531a12.867 12.867 0 01-1.704-1.93c-1.665 1.103-3.902 1.551-6.197.166a6.633 6.633 0 01-.857-.609 10.837 10.837 0 01-4.516 2.062c-1.322.26-2.426-.001-3.301-.575a4.509 4.509 0 01-.669-.539l-.086-.086a9.152 9.152 0 01-.829.345c-.288.105-.584.198-.881.282 4.437 6.776 6.192 13.872 7.002 23.547.136 1.622.387 3.463.622 5.063l.216 1.444v.003l.001.001c.096.637.18 1.195.239 1.623h3.111v-.339.339h3.301c-.84-4.396-.491-11.201.775-17.591.671-3.385 1.604-6.682 2.771-9.474a26.212 26.212 0 011.581-3.201zm-17.625-3.557a5.851 5.851 0 01-.864-2.662 2.384 2.384 0 01.038-.66.553.553 0 01.015-.051.61.61 0 01.091-.009c.234-.007.6.095.939.427.05.049.098.102.144.16.321.402.529 1.027.326 1.895-.068.293-.282.593-.677.891l-.012.009zm15.654-.658a6.178 6.178 0 001.098-1.48c.369-.71.479-1.322.397-1.713-.032-.152-.095-.216-.146-.249a.507.507 0 00-.33-.054c-.331.035-.773.275-1.074.748v.001c-.337.529-.534 1.457.055 2.747zm-7.235-.357a7.33 7.33 0 00.478-.531c.506-.622.821-1.235.941-1.764.125-.556.03-.978-.229-1.28-.128-.149-.247-.203-.343-.22a.637.637 0 00-.387.071c-.323.156-.685.543-.902 1.105a2.74 2.74 0 00.007 1.986c.088.227.212.459.378.691l.057-.058z" class="Subtract" clip-rule="evenodd"/>
    <rect width="33.196" height="8.127" x="466.179" y="200.771" fill="#F7F7F7" class="Rectangle 3" rx="4.064"/>
    <rect width="33.196" height="8.127" x="466.179" y="192.644" fill="#F7F7F7" class="Rectangle 3.1" rx="4.064"/>
    <rect width="33.196" height="8.127" x="466.179" y="184.517" fill="#F7F7F7" class="Rectangle 3.2" rx="4.064"/>
    <path fill="#000" fill-opacity=".13" fill-rule="evenodd" d="M341.501 360.956c-6.566-2.056-13.27.684-14.973 6.121l-2.232 7.128-25.23-7.902a7.223 7.223 0 00-9.051 4.733l-4.811 15.362c-2.384 7.612 1.854 15.717 9.467 18.101l15.382 4.818c8.198 2.567 16.926-1.997 19.494-10.195l1.735-5.541 10.219-32.625z" class="Union_3" clip-rule="evenodd"/>
    <path fill="#090909" fill-opacity=".14" fill-rule="evenodd" d="M324.251 406.754a15.483 15.483 0 005.295-7.631l1.735-5.541h.001l3.68-11.752 9.517 2.981a4.444 4.444 0 012.912 5.57l-5.409 17.27a4.445 4.445 0 01-5.569 2.913l-12.162-3.81z" class="Subtract_2" clip-rule="evenodd"/>
    <path fill="#000" fill-opacity=".28" d="M319.584 261.561c4.837-4.192-8.169-21.528-10.282-35.376-2.112 4.46 0 17.252 2.582 26.992 2.003 7.556-8.808 13.423-13.539 13.118l-.442-.049c.141.023.288.039.442.049 10.539 1.164 15.276.435 21.239-4.734z" class="Vector 5.1"/>
    <path fill="#000" fill-opacity=".28" d="M281.741 292.271c-7.893-1.68-8.887-9.516-8.397-13.225l24.56 4.199c-2.1 3.708-8.271 10.705-16.163 9.026z" class="Vector 10"/>
    <path fill="#fff" fill-opacity=".26" d="M132.169 501.263l89.915-5.414c6.584-15.423-1.712-77.696-12.446-103.359-8.738-20.89-32.543-29.656-53.321-20.658-45.111 19.537-36.378 93.586-24.148 129.431z" class="Vector 14.1"/>
    <path fill="#46130C" fill-rule="evenodd" d="M565.821 119.291c4.456 24.327 19.817 43.287 36.07 63.35h.001c14.948 18.452 30.653 37.838 39.326 63.189 6.787 19.839 21.121 37.938 33.774 53.913 14.641 18.486 27.029 34.127 22.863 46.328a77.495 77.495 0 00-3.645.115l-249.73-.239v.036h-22.236c-17.801 0-32.232 14.431-32.232 32.232v22.434c35.618.482 52.891-12.832 60.27-29.743 7.697 15.886 24.202 31.26 56.122 31.71 22.64.319 39.667-3.227 57.737-6.99l.005-.001c2.355-.49 4.727-.984 7.132-1.474 39.07-7.954 75.054-12.335 91.161 12.598 12.553 19.431 3.66 41.795-6.491 65.071-8.501 19.492-17.524 40.182-14.309 62.284 14.551-5.426 27.172-3.622 41.838-1.526 16.108 2.302 34.684 4.956 60.991-1.231-8.965-8.894-6.125-35.347-2.878-65.581 4.649-43.299 10.131-94.353-17.037-112.698 8.393-25.129-2.186-69.272-18.9-92.384-32.877-89.255-86.716-129.042-139.832-141.393zm70.335 280.797c-5.291.621-10.326 2.756-13.335 4.532a.536.536 0 11-.546-.925c3.107-1.834 8.285-4.032 13.756-4.675 5.473-.642 11.326.266 15.642 4.766 10.575 11.025 9.896 26.303 6.293 34.411-1.82 4.093-5.278 7.664-9.085 9.653-3.799 1.984-8.068 2.445-11.392.071-3.21-2.292-5.425-5.884-6.475-9.373-.526-1.748-.765-3.489-.682-5.05.083-1.556.49-2.972 1.295-4.025a.538.538 0 01.853.653c-.631.826-.999 2.008-1.075 3.429-.075 1.416.141 3.032.638 4.684.995 3.308 3.09 6.68 6.07 8.808 2.866 2.047 6.665 1.734 10.271-.15 3.599-1.879 6.882-5.272 8.6-9.136 3.47-7.809 4.118-22.594-6.086-33.232-3.996-4.165-9.454-5.062-14.742-4.441zm-2.743 13.381a.536.536 0 01.702.289c.713 1.711 1.452 2.386 2.13 2.645.704.27 1.477.152 2.434-.054l.078-.017.167-.036c.852-.187 1.84-.404 2.828-.233 1.139.198 2.207.888 3.182 2.428.972 1.537 1.137 2.808.76 3.909-.362 1.053-1.192 1.844-1.934 2.496l-.113.099-.103.089-.12.104-.003.003h-.001v.001l-.002.001c-.258.223-.5.432-.725.648-.319.305-.565.586-.723.865-.153.27-.219.53-.192.809.028.287.159.648.494 1.104a.537.537 0 11-.866.636c-.413-.562-.646-1.103-.698-1.636a2.403 2.403 0 01.327-1.442c.234-.414.568-.78.916-1.113.244-.234.517-.47.783-.7l.004-.003.001-.001.227-.197.085-.074c.748-.658 1.368-1.283 1.627-2.038.243-.708.2-1.639-.652-2.986-.85-1.344-1.681-1.809-2.458-1.943-.769-.134-1.552.036-2.444.23l-.032.007-.187.04c-.932.201-2.005.405-3.045.007-1.066-.408-1.968-1.391-2.736-3.235a.536.536 0 01.289-.702zm-183.3.351a.538.538 0 00-1.035.29c3.742 13.33.588 22.254-2.796 28.475-.85 1.562-1.715 2.955-2.498 4.214l-.017.027c-.772 1.241-1.472 2.368-1.978 3.381s-.852 1.977-.85 2.883c.002.946.383 1.773 1.201 2.482 3.584 3.106 7.325 5.528 11.565 6.658 4.251 1.133 8.957.956 14.446-1.055a.537.537 0 00-.37-1.009c-5.309 1.945-9.788 2.094-13.799 1.025-4.022-1.071-7.619-3.38-11.138-6.431-.603-.522-.829-1.062-.831-1.672-.001-.65.252-1.43.737-2.401.483-.965 1.159-2.055 1.946-3.32.782-1.258 1.663-2.676 2.53-4.269 3.482-6.401 6.722-15.615 2.887-29.278zm84.212 53.796a.537.537 0 01.725.227c1.326 2.537 2.004 4.962 2.004 7.407 0 2.445-.678 4.871-2.004 7.408-2.506 4.794-7.785 6.526-13.064 6.493-5.281-.033-10.755-1.826-13.885-4.314a.538.538 0 01.669-.841c2.904 2.308 8.129 4.048 13.223 4.081 5.096.032 9.869-1.639 12.105-5.917 1.264-2.418 1.881-4.674 1.881-6.91 0-2.236-.617-4.491-1.881-6.909a.537.537 0 01.227-.725zm-50.259-38.9a4.41 4.41 0 100-8.82 4.41 4.41 0 000 8.82zm-61.556-4.535a4.41 4.41 0 11-8.821-.001 4.41 4.41 0 018.821.001zm63.104-18.89c2.393-.508 8.333-.265 12.591 4.879a.537.537 0 00.827-.685c-4.578-5.533-10.971-5.812-13.641-5.245a.538.538 0 00.223 1.051zm-78.068 7.508c4.257-5.144 10.198-5.387 12.591-4.879a.538.538 0 00.223-1.051c-2.67-.567-9.063-.288-13.641 5.245a.537.537 0 00.827.685zM190.151 260.815c-.07-4.096.227-8.086.778-11.902-3.704 1.08-7.741 1.629-11.573.79-12.379-2.709-23.292-14.917-21.46-24.338 1.832-9.422 14.536-16.625 26.432-15.441 6.826.679 11.963 5.162 15.907 10.032 2.323-4.631 4.126-7.324 4.126-7.324s41.297 9.067 64.121 0c19.884-7.899 25.085-17.731 28.679-24.526v-.001c.532-1.004 1.027-1.942 1.531-2.797 10.436 17.345 15.155 22.535 17.265 23.894v.001c1.435.924 1.663.077 1.663.077s5.188-26.894 0-38.999c-16.414-38.3-143.578-24.893-182.06-14.223-16.523 4.581-18.033 37.812-19.666 73.741-1.671 36.773-3.471 76.372-21.627 90.971l35.894 6.973 11.851-21.34v22.273l86.307 14.205s-25.543-34.303-35.088-63.398c-2.072-6.314-2.977-12.608-3.08-18.668zm94.941-43.389a.5.5 0 00-.17-.986c-6.024 1.039-10.104 5.608-11.406 7.778a.5.5 0 00.857.515c1.212-2.02 5.078-6.334 10.719-7.307zm8.288 22.47a7.808 7.808 0 00-15.616 0h15.616zm42.891 0a7.808 7.808 0 00-15.617 0h15.617zm-9.732-23.048a.5.5 0 00.407.578c5.642.973 9.507 5.287 10.719 7.307a.5.5 0 00.858-.515c-1.303-2.17-5.382-6.739-11.407-7.778a.5.5 0 00-.577.408zM188.416 222a.5.5 0 10-.653.757c.418.361 1.241 1.353 1.655 2.498.36.996.389 2.021-.329 2.882-2.891-2.495-7.226-1.531-8.657 1.881-.942 2.246-.098 4.733 1.463 6.479 1.56 1.747 3.957 2.892 6.311 2.329a.501.501 0 00-.233-.973c-1.89.452-3.934-.457-5.333-2.022-1.398-1.566-2.03-3.651-1.286-5.426 1.205-2.873 4.995-3.656 7.394-1.218l.333.339.356-.316c1.454-1.293 1.407-2.949.921-4.295-.478-1.325-1.409-2.455-1.942-2.915zm27.002 308.922l-100.081-3.634-26.734 20.719 126.815-17.085zM200.977 366.62a.5.5 0 00-.428.904c8.204 3.887 14.99 12.343 20.321 23.589 5.324 11.235 9.164 25.19 11.512 39.969 4.697 29.571 3.402 62.325-3.823 83.034a.5.5 0 10.945.329c7.297-20.918 8.578-53.852 3.866-83.52-2.358-14.841-6.219-28.894-11.597-40.24-5.372-11.336-12.29-20.035-20.796-24.065z" class="Union_4" clip-rule="evenodd"/>
    <path fill="#000" fill-opacity=".15" fill-rule="evenodd" d="M197.369 337.787l30.95 5.094s-1.24-1.666-3.276-4.574l10.4.195-9.675 38.996c-8-7.004-17.219-12.584-27.043-16.832-15.664-6.774-33.321-8.838-49.277-3.779l2.117-19.961 45.804.861z" class="Subtract_3" clip-rule="evenodd"/>
    <path fill="#000" fill-opacity=".28" fill-rule="evenodd" d="M216.481 325.475a334.803 334.803 0 01-6.278-10.256h7.025v10.256h-.747z" class="Subtract_4" clip-rule="evenodd"/>
    <path fill="#000" fill-opacity=".17" fill-rule="evenodd" d="M641.034 521.887a65.653 65.653 0 00.605 12.217c7.262-2.708 14.044-3.615 20.839-3.584l-57.216 21.188v3.453-33.274h35.772z" class="Subtract_5" clip-rule="evenodd"/>
  </g>
</svg>
