<svg xmlns="http://www.w3.org/2000/svg" width="802" height="600" fill="none" viewBox="0 0 802 600">
  <g class="adventure_two">
    <path fill="#fff" d="M1 0h800v600H1z"/>
    <path fill="#F7F2C9" d="M1 0h800v600H1z" class="Rectangle 2"/>
    <path fill="#FBFAD8" d="M638.556 99.526c-25.499-23.498-47.42-42.342-59.768-50.656-52.261-35.185-38.553 18.88-75.393 34.327s-83.104 29.178-79.677 58.356c3.427 29.178-30.539 64.616-34.822 64.616-4.284 0-25.865-13.033-33.64-39.975-7.775-26.943-58.157-65.833-76.149-82.997-17.991-17.163-40.549-73.113-57.684-61.099-17.135 12.015-44.109 74-62.1 70.567-17.992-3.433-33.991-3.522-46.842 29.947C99.63 156.081.993 173.487.993 173.487v104.908l220.43-11.068 148.851 5.744s262.808-3.435 430.477-5.678c0-64.552.09-165.277.09-165.277l-91.832 20.496c-11.966-8.242-39.637-25.77-54.594-29.947-4.665-1.302-10.178 1.616-15.859 6.86z" class="Vector 3.2" opacity=".91"/>
    <path fill="#FDFCED" d="M556.424 88.106h144.735c17.69.894 53.123 2.144 53.338 0 .268-2.68-42.717-11.016-42.717-11.016s-5.569-27.748-43.642-33.187c-16.687-2.384-54.149 6.825-51.14 29.998-2.323-1.251-9.166-4.235-17.958-6.165-8.791-1.93-13.49 7.952-14.741 13.133-1.966.715-7.719 1.716-15.01 0-7.29-1.715-11.614 4.11-12.865 7.237z" class="Vector 4.1" opacity=".6"/>
    <path fill="#FDFCED" d="M90.953 179.002h111.33c13.607.687 40.863 1.649 41.028 0 .206-2.062-32.858-8.474-32.858-8.474s-4.284-21.343-33.569-25.527c-12.836-1.834-41.652 5.249-39.337 23.074-1.787-.962-7.051-3.257-13.813-4.742-6.762-1.484-10.377 6.117-11.339 10.102-1.512.55-5.938 1.32-11.546 0-5.607-1.319-8.934 3.162-9.896 5.567z" class="Vector 4.2"/>
    <path fill="#D3CEA5" fill-rule="evenodd" d="M232.875 225.896c-.232-1.362-.454-3.165-.691-5.089-.672-5.454-1.464-11.88-2.939-11.984-.706-.05-1.376 2.908-1.967 6.877-1.11-6.061-2.604-13.679-3.004-13.679-.466 0-2.542 9.22-3.707 14.395l-.001.003v.001l-.208.921c-.234-1.366-.459-3.186-.698-5.129v-.003l-.001-.001v-.003c-.672-5.454-1.464-11.88-2.939-11.984-1.555-.109-2.939 14.394-3.677 22.122-.187 1.964-.333 3.49-.429 4.228-.77-2.133-1.081-3.748-1.299-4.884-.198-1.028-.32-1.664-.639-1.937-1.036-5.909-3.232-17.729-3.73-17.729-.466 0-2.542 9.22-3.708 14.395v.004c-.388 1.721-.674 2.993-.767 3.33-.094.338-.514 1.109-1.077 2.143-1.69 3.103-4.673 8.579-4.021 11.871.094.474.163 1.241.224 2.239l-.042.05c-1.332-4.344-3.295-10.621-3.769-10.621-.126 0-.351.502-.636 1.336-1.032-5.501-2.213-11.29-2.561-11.29-.4 0-1.99 6.808-3.168 12.007-.393-.55-.77-1.061-1.103-1.511l-.003-.003v-.001c-.631-.852-1.101-1.487-1.205-1.766-.104-.277-.425-1.326-.858-2.743l-.001-.001v-.002c-1.304-4.263-3.626-11.857-4.148-11.857-.556 0-3.014 9.735-4.173 14.603-.356.226-.493.749-.714 1.596-.313 1.196-.794 3.038-2.303 5.592l-.296-.969c-1.304-4.263-3.627-11.858-4.148-11.858-.424 0-1.948 5.641-3.164 10.482-.162-.828-.29-1.352-.572-1.594-1.036-5.909-3.232-17.728-3.73-17.728-.466 0-2.541 9.215-3.707 14.391v.002l-.001.002v.003c-.388 1.72-.674 2.993-.767 3.33-.094.338-.514 1.109-1.077 2.143l-.002.004-.347.638c-.873-2.655-1.661-4.806-1.939-4.806-.45 0-2.145 6.375-3.389 11.387-.785-1.223-1.633-2.369-2.3-3.271-.631-.852-1.1-1.487-1.205-1.766-.104-.277-.424-1.326-.858-2.743v-.001l-.001-.002c-1.303-4.262-3.626-11.857-4.148-11.857-.518 0-2.684 8.443-3.916 13.535-.978-5.147-2.028-10.193-2.353-10.193-.317 0-1.377 4.257-2.39 8.61-1.505-4.932-3.304-10.566-3.791-10.566-.663 0-3.594 11.819-4.977 17.729-.425.273-.589.909-.852 1.937-.388 1.51-.993 3.867-2.968 7.163-.493.824-.82 1.982-1.006 3.39-1.362-4.392-2.798-8.725-3.225-8.725-.396 0-1.598 4.205-2.798 8.853-.737-3.671-1.405-6.6-1.653-6.6-.46 0-2.487 8.975-3.661 14.185-.045-.051-.084-.077-.117-.077-.328 0-1.209 2.885-2.184 6.517-.378.698-.793 1.48-1.204 2.307-.097-.334-.209-.569-.372-.709-1.036-5.909-3.232-17.728-3.729-17.728-.467 0-2.543 9.22-3.708 14.395-.388 1.722-.675 2.996-.768 3.333-.039.14-.133.353-.27.629-.215-.471-.384-.74-.49-.74-.221 0-.695 1.315-1.28 3.288.464-5.452.379-10.151-.624-12.384-1.48-3.296-1.933-5.653-2.224-7.164-.198-1.027-.32-1.663-.639-1.936-1.036-5.91-3.232-17.729-3.73-17.729-.466 0-2.542 9.22-3.707 14.395v.002c-.388 1.721-.675 2.994-.768 3.332-.093.337-.513 1.108-1.077 2.143-.772 1.418-1.814 3.331-2.656 5.305-1.08-5.822-2.41-12.486-2.784-12.486-.466 0-2.542 9.219-3.707 14.394v.001a605.31 605.31 0 01-.52 2.293c-.545-1.51-.979-2.497-1.183-2.497-.12 0-.312.383-.556 1.045-.125-.506-.384-1.657-.718-3.139v-.003c-1.166-5.176-3.242-14.393-3.708-14.393-.39 0-1.824 7.264-2.924 13.25-1.576-5.209-3.715-12.082-4.252-12.082-.48 0-2.148 6.19-3.557 11.851-.843-3.522-1.628-6.502-1.893-6.502-.305 0-1.248 4.441-2.171 9.239-1.327-4.261-2.695-8.353-3.11-8.353-.23 0-.736 1.431-1.355 3.546-1.191-5.279-2.999-13.162-3.43-13.162-.364 0-1.638 6.331-2.701 12.043-.444-1.176-.793-1.914-.969-1.914a.074.074 0 00-.036.01c-.352-.671-.69-1.294-.99-1.842-.563-1.034-.983-1.805-1.076-2.143-.093-.337-.38-1.612-.768-3.334-1.165-5.175-3.242-14.394-3.708-14.394-.357 0-1.588 6.082-2.638 11.702-1.286-4.113-2.582-7.951-2.983-7.951-.46 0-2.01 5.683-3.38 11.138l-.53-1.765c-1.556-5.175-4.326-14.395-4.949-14.395-.647 0-3.447 11.228-4.87 17.269-1.32-4.24-2.677-8.293-3.09-8.293-.293 0-1.028 2.303-1.876 5.385-.742-2.172-1.354-3.71-1.608-3.71-.307 0-.86 2.341-1.61 5.525-.877 3.713-3.368 12.204-3.368 12.204v37.795c6.735-5.491 25.327-14.671 46.78-8.131 26.959 8.219 41.61 8.219 58.021 8.219 5.782 0 12.436-5.684 20.425-12.507 14.687-12.544 33.883-28.94 60.454-20.955 25.258 7.59 51.182 16.96 70.661 24h.001c12.16 4.395 21.808 7.882 27.214 9.462 5.425 1.585 37.534-5.739 76.65-14.661 31.021-7.076 66.448-15.157 96.467-20.596-.136-.436-.253-.69-.345-.701a.05.05 0 00-.031.005c-.228-.604-.45-1.165-.645-1.66-.369-.933-.644-1.628-.688-1.923-.043-.295-.154-1.401-.302-2.897-.447-4.494-1.244-12.502-1.638-12.551-.245-.03-1.391 3.262-2.6 6.982-.094-2.086-.365-3.781-.858-4.879-1.48-3.296-1.933-5.653-2.224-7.163-.197-1.027-.32-1.663-.638-1.937-1.037-5.909-3.233-17.728-3.73-17.728-.216 0-.779 1.982-1.436 4.623-.064-.326-.101-.506-.101-.506s-1.288 2.856-2.702 6.082c-1.019-5.408-2.162-10.985-2.504-10.985-.466 0-2.542 9.219-3.707 14.394l-.003.012c-.195.866-.364 1.618-.496 2.194-2.597-6.626-9.336-21.56-9.336-21.56s-1.56 7.661-2.753 15.73a674.776 674.776 0 00-3.259-7.357s-1.444 7.089-2.137 13.013c-.597-1.994-.864-3.536-1.058-4.658-.198-1.143-.32-1.85-.639-2.154-1.036-6.572-3.233-19.715-3.73-19.715-.466 0-2.542 10.253-3.708 16.008l-.002.012c-.387 1.909-.673 3.321-.765 3.695-.094.375-.513 1.232-1.077 2.382v.001c-.282.576-.6 1.225-.931 1.924-1.754-4.332-5.405-12.424-5.405-12.424s-2.736 13.428-2.485 18.764c-.772-.834-1.74-1.699-2.953-2.599-.476-1.406-.92-3.462-1.4-5.678-1.179-5.454-2.569-11.88-5.156-11.984-2.73-.11-5.158 14.394-6.452 22.122v.002c-.431 2.575-.736 4.397-.885 4.675-.084.159-.315.731-.646 1.605l-.197-.33-.023-.038c-.512-.853-.892-1.488-.977-1.766-.084-.278-.258-2.101-.504-4.677-.738-7.728-2.121-22.232-3.677-22.122-1.475.104-2.266 6.528-2.939 11.982v.002c-.273 2.216-.526 4.272-.798 5.678a18.434 18.434 0 00-1.633 2.505 1.787 1.787 0 00-.092-.038c-.978-5.141-2.026-10.177-2.351-10.177-.466 0-2.542 9.22-3.708 14.395l-.002.012-.279 1.238c-.589-3.934-1.255-6.859-1.957-6.809l-.008.001-.014.001c-.768-7.182-1.813-14.908-2.95-14.828-1.475.104-2.267 6.528-2.939 11.982v.002c-.273 2.216-.527 4.272-.798 5.678-.154.2-.3.398-.44.595-.793-2.005-1.746-3.383-2.955-3.431-1.889-.075-3.637 6.598-4.976 13.307l-.08-.058a19.725 19.725 0 01-.339-1.099c-.766-7.11-1.8-14.657-2.924-14.578-.282.02-.54.272-.776.704-.645-1.414-1.392-2.4-2.287-2.636-1.113-6.218-2.961-15.938-3.412-15.938-.466 0-2.543 9.22-3.708 14.395l-.002.012c-.387 1.716-.673 2.986-.766 3.322a.924.924 0 01-.02.066c-.584-4.256-1.315-8.097-2.452-8.178-1.546-.109-2.923 14.215-3.663 21.978-1.171-5.293-2.576-11.197-5.102-11.297-1.337-.053-2.604 3.275-3.704 7.604l-.005-.033v-.002c-.672-5.454-1.464-11.878-2.939-11.982-.86-.061-1.667 4.348-2.342 9.608-.508-1.601-.749-2.856-.929-3.789-.197-1.028-.319-1.663-.638-1.937-1.036-5.909-3.233-17.728-3.73-17.728-.466 0-2.543 9.219-3.708 14.394l-.002.012-.155.687c-.212-.761-.449-1.22-.719-1.247-.489-.049-.954 2.848-1.365 6.755-.924 1.709-2.079 3.925-2.854 6.081-.563-3.894-1.27-7.228-2.329-7.303-1.438-.101-2.728 12.274-3.498 20.252-.226-1.22-.448-2.682-.682-4.221-.83-5.455-1.807-11.88-3.627-11.984-1.224-.07-2.361 5.802-3.261 12.071-.111-.839-.222-1.743-.337-2.674v-.005l-.001-.001c-.672-5.454-1.464-11.879-2.938-11.983-.999-.07-1.927 5.88-2.658 12.195a32.17 32.17 0 01-.771-3.277c-.198-1.028-.32-1.664-.639-1.937-1.036-5.909-3.233-17.728-3.73-17.728-.27 0-1.079 3.087-1.938 6.692-.157-.137-.315-.215-.474-.225-1.313-.087-2.896 4.593-4.176 9.429-.063-.807-.079-1.635-.096-2.492v-.001l-.001-.003c-.061-3.111-.13-6.612-2.448-10.919-.189-1.405-.367-3.459-.558-5.673v-.006c-.471-5.454-1.026-11.879-2.059-11.984-1.089-.109-2.058 14.394-2.574 22.122l-.005.074-.016.228-.054.812a50.558 50.558 0 01-.242-1.201c-.197-1.027-.32-1.663-.638-1.936-1.036-5.91-3.233-17.729-3.73-17.729-.262 0-1.03 2.902-1.86 6.363-.271-2.357-1.019-4.965-3.323-7.965-.271-1.406-.525-3.462-.798-5.678-.672-5.455-1.464-11.88-2.939-11.984-1.555-.11-2.939 14.393-3.677 22.122v.002l-.002.027-.001.005-.002.021c-.085.896-.162 1.699-.229 2.376-.581-2.655-1.181-4.483-1.757-4.597-.909-.179-1.674 3.811-2.729 9.314l-.001.003c-.525 2.738-1.122 5.851-1.844 9.011zm225.539 28.828c1.463-.264 2.914-.522 4.349-.773-.415-3.939-.895-7.958-1.174-7.992-.283-.035-1.776 4.383-3.175 8.765zm14.906-2.531c.536-.085 1.069-.168 1.599-.25-.231-.922-.43-1.498-.569-1.515-.15-.018-.526.664-1.03 1.765zm6.692-1.01l.801-.114c-.104-.548-.198-.872-.277-.882-.082-.01-.268.359-.524.996zm17.324-2.051c1.031-.088 2.041-.168 3.027-.237-.231-2.95-.476-5.244-.675-5.268-.229-.028-1.244 2.527-2.352 5.505zm33.43 4.451c27.342 10.575 55.994 20.871 80.343 28.294 26.96 8.219 100.22 5.87 118.389 0 1.649-.533 5.163-1.808 9.791-3.487 19.372-7.031 58.272-21.147 61.711-17.575v.915c.014-.752.014-1.205.014-1.205v-15.34s-10.806 7.382-12.777 15.34c-.719-3.081-5.105-11.22-5.105-11.22s-4.81 6.218-6.001 11.22c-.215-4.139-.473-7.721-.709-7.75-.231-.028-1.293 2.856-2.452 6.203-.957-3.675-3.409-11.56-3.409-11.56s-4.391 13.106-4.056 16.636c.042.45 0 .942-.107 1.463a10.301 10.301 0 00-.257-.251c-.543-2.622-3.707-12.796-3.707-12.796s-3.244 9.683-3.943 14.645c-.37-.418-.786-.848-1.253-1.293-.256-1.238-.418-3.022-.593-4.944-.43-4.732-.937-10.307-3.113-10.664-2.295-.376-5.854 11.628-7.75 18.025l-.004.012-.001.004c-.37 1.246-.676 2.279-.897 2.963.129-6.491.115-14.169-.927-14.223-1.022-.053-2.096 3.465-3.071 7.221-.416-4.056-1.068-8.012-2.89-8.311-2.084-.342-5.211 9.527-7.188 16.134-.119-.376-.262-.587-.432-.596l-.018-.001c.097-6.149.016-12.787-.953-12.838-1.001-.052-2.054 3.332-3.014 7.005-.064-.608-.124-1.249-.187-1.906v-.007l-.001-.006v-.004l-.001-.004v-.004c-.449-4.735-.977-10.312-3.194-10.674-2.126-.347-5.293 9.542-7.291 16.146-.151-1.034-.363-1.658-.658-1.673-.591-.031-1.2 1.135-1.797 2.851-.067-.634-.13-1.305-.195-1.993l-.001-.003v-.005c-.139-1.468-.286-3.018-.489-4.468-.307-5.28-.789-12.115-1.133-12.157-.258-.032-1.51 3.204-2.77 6.636-.923 1.072-1.94 3.287-2.93 5.896-.11-2.773-.401-4.976-1.172-5.127-1.295-.252-3.946 11.71-5.379 18.193-.439-4.594-1.013-9.73-3.137-10.077-.806-.132-1.761 1.207-2.746 3.28-.042-1.122-.043-2.534-.043-4.033V266.419c-.001-4.679-.003-10.191-1.239-10.433-.847-.165-2.274 4.896-3.561 10.231l-.032-.083-.029-.076c-.015-1.207.049-2.959.117-4.848V261.201c.169-4.659.368-10.146-.494-10.342-.347-.078-.9 1.643-1.52 4.162-.218-2.679-.444-4.691-.63-4.714-.394-.048-3.107 7.529-4.63 11.781-.506 1.415-.881 2.461-.995 2.737-.114.275-.548.883-1.132 1.699l-.001.001-.002.002c-.258.36-.544.761-.846 1.192.141-4.185.201-8.43-.555-8.601-.508-.115-1.457 3.621-2.412 8.072-.183-.963-.452-1.584-.849-1.662-.783-.153-2.061 4.156-3.266 9.021-.4-1.114-1.03-2.316-2.003-3.633-.137-1.224-.188-2.994-.242-4.901-.134-4.696-.292-10.228-1.819-10.505-1.086-.197-2.78 5.227-4.251 10.756-.171-.58-.396-.941-.693-.999-.836-.163-2.238 4.769-3.513 10.03-.199-1.19-.262-2.131-.311-2.85-.06-.888-.098-1.438-.339-1.703-.261-5.101-.889-15.318-1.309-15.37-.224-.027-1.196 2.404-2.272 5.289-.237-4.839-.798-10.73-2.125-10.983-.887-.169-2.244 2.259-3.567 5.278.021-.968.062-2.087.104-3.259l.001-.027v-.007c.169-4.658.368-10.146-.494-10.341-.909-.206-3.235 11.95-4.474 18.428l-.179.932a41.062 41.062 0 01-.079-1.035l-.001-.004c-.06-.889-.097-1.439-.338-1.703-.262-5.102-.89-15.319-1.31-15.37-.221-.027-1.172 2.345-2.233 5.184.016-2.02-.345-4.302-1.981-7.076-.083-1.182-.083-2.88-.084-4.719V235.797c-.001-4.679-.003-10.191-1.238-10.432-1.304-.255-3.98 11.858-5.406 18.313l-.001.003-.001.003-.004.017-.007.035-.022.099-.416 1.873c-.215-2.303-.533-3.911-1.008-4.067-.749-.246-1.81 3.046-3.273 7.585v.002l-.001.001c-.728 2.26-1.556 4.83-2.496 7.427-.054-1.111-.054-2.554-.055-4.102V252.281c-.001-4.679-.003-10.191-1.238-10.432-.592-.116-1.466 2.315-2.377 5.608-.308-5.239-.78-11.831-1.117-11.873-.394-.048-3.107 7.528-4.629 11.78l-.001.003-.014.038-.004.01-.253.709c-.057-1.11-.057-2.557-.058-4.113V243.71c-.001-4.679-.003-10.191-1.238-10.432-1.303-.254-3.98 11.858-5.406 18.313-.363 1.64-.644 2.915-.802 3.529-.43-1.883-.524-3.28-.591-4.263-.06-.889-.097-1.439-.338-1.703-.262-5.102-.89-15.319-1.31-15.37-.394-.049-3.104 7.519-4.627 11.772l-.002.006v.001l-.002.005c-.506 1.413-.88 2.458-.994 2.733-.114.276-.548.882-1.131 1.697l-.002.003c-1.75 2.446-4.84 6.764-4.631 9.614.03.41.009 1.066-.044 1.916l-.04.037c-.674-3.809-1.681-9.318-2.082-9.368-.106-.013-.348.389-.676 1.064-.301-4.757-.697-9.772-.991-9.808-.339-.042-2.389 5.547-3.926 9.818-.275-.507-.542-.979-.777-1.395-.444-.786-.775-1.371-.834-1.617-.06-.246-.222-1.166-.441-2.41-.659-3.738-1.832-10.398-2.273-10.452-.471-.058-3.559 7.914-5.044 11.908-.325.153-.495.581-.77 1.274-.388.979-.986 2.485-2.527 4.487l-.15-.85c-.659-3.738-1.832-10.398-2.273-10.452-.358-.044-2.233 4.564-3.763 8.529-.051-.716-.105-1.173-.318-1.406-.261-5.102-.889-15.319-1.31-15.37-.394-.049-3.107 7.529-4.629 11.781-.507 1.414-.881 2.461-.995 2.736-.114.276-.548.882-1.131 1.697l-.002.003-.18.252-.182.254c-.461-2.335-.904-4.235-1.138-4.264-.381-.047-2.476 5.165-4.048 9.272-.537-1.116-1.134-2.172-1.604-3.004-.444-.786-.775-1.371-.834-1.617-.06-.246-.222-1.166-.441-2.411l-.001-.002v-.004l-.001-.002c-.659-3.739-1.831-10.389-2.271-10.443-.438-.054-3.147 6.856-4.716 11.032-.292-4.451-.656-8.826-.93-8.859-.268-.033-1.607 3.454-2.915 7.028-.759-4.324-1.694-9.272-2.105-9.323-.541-.066-4.01 8.947-5.854 13.937zM801 285.057v1.85c.017-.648.017-1.267 0-1.85zm-276.671 23.054l-2.304-.903c-7.751-3.045-26.498-1.55-50.263 2.264l-.089-.611c23.807-3.824 42.591-5.327 50.352-2.278.855.336 1.712.672 2.571 1.007-.087.175-.176.349-.267.521zm-58.013 1.635l-.368.063.251.118.117-.181z" class="Subtract" clip-rule="evenodd"/>
    <path fill="#F1EAB0" fill-rule="evenodd" d="M232.097 219.749c.237 1.924.46 3.727.692 5.089.722-3.16 1.319-6.273 1.844-9.012v-.003c1.055-5.502 1.82-9.492 2.729-9.313.576.114 1.177 1.942 1.757 4.597.067-.677.144-1.48.23-2.376l.002-.021v-.005l.003-.028v-.002c.737-7.728 2.121-22.231 3.677-22.121 1.474.104 2.266 6.529 2.939 11.984.273 2.216.526 4.272.798 5.678 2.304 2.999 3.051 5.607 3.323 7.965.829-3.461 1.598-6.363 1.859-6.363.498 0 2.694 11.819 3.73 17.728.319.274.441.91.639 1.937.068.353.145.753.242 1.2l.054-.811.015-.228.005-.074c.517-7.728 1.486-22.231 2.575-22.122 1.033.104 1.587 6.53 2.058 11.984v.005l.001.001c.191 2.214.368 4.268.558 5.673 2.317 4.307 2.386 7.808 2.448 10.919v.004c.017.857.033 1.685.096 2.491 1.281-4.835 2.864-9.515 4.177-9.429.159.011.317.089.473.226.86-3.605 1.669-6.693 1.939-6.693.497 0 2.693 11.819 3.729 17.729.319.273.441.909.639 1.937.16.831.369 1.918.771 3.277.732-6.315 1.66-12.265 2.658-12.195 1.475.104 2.267 6.528 2.939 11.983v.001l.001.004v.007c.115.929.226 1.831.336 2.668.9-6.269 2.038-12.141 3.262-12.071 1.82.104 2.797 6.529 3.626 11.984.234 1.539.456 3.001.683 4.221.769-7.978 2.06-20.353 3.497-20.252 1.059.075 1.766 3.409 2.33 7.303.774-2.156 1.929-4.372 2.854-6.082.41-3.907.875-6.803 1.364-6.754.27.027.508.486.719 1.247l.155-.687.003-.012c1.165-5.175 3.241-14.395 3.708-14.395.497 0 2.693 11.82 3.729 17.729.319.273.441.909.639 1.937.179.933.421 2.188.928 3.789.675-5.261 1.483-9.669 2.343-9.608 1.475.104 2.266 6.528 2.939 11.982v.001l.004.034c1.101-4.329 2.367-7.657 3.705-7.604 2.526.1 3.931 6.004 5.101 11.297.741-7.763 2.117-22.087 3.663-21.978 1.138.08 1.869 3.922 2.452 8.178l.021-.066c.093-.337.379-1.606.765-3.323l.003-.011c1.165-5.175 3.241-14.395 3.708-14.395.451 0 2.299 9.72 3.412 15.938.894.236 1.642 1.222 2.287 2.636.236-.432.493-.684.776-.704 1.123-.079 2.158 7.468 2.923 14.578.112.398.225.767.339 1.099l.08.058c1.34-6.709 3.087-13.382 4.976-13.307 1.21.048 2.162 1.426 2.955 3.431.14-.197.287-.395.44-.595.272-1.406.525-3.462.798-5.678l.001-.002c.672-5.454 1.464-11.878 2.938-11.982 1.137-.081 2.183 7.646 2.951 14.828l.013-.001.009-.001c.701-.05 1.368 2.874 1.956 6.809l.279-1.239.003-.011c1.165-5.175 3.241-14.395 3.708-14.395.324 0 1.373 5.036 2.35 10.177.031.011.062.024.092.038.432-.805.968-1.638 1.634-2.505.271-1.406.524-3.462.798-5.678v-.002c.672-5.454 1.464-11.878 2.939-11.982 1.555-.11 2.939 14.394 3.676 22.122.246 2.576.42 4.399.505 4.677.084.278.465.913.976 1.766l.023.038.198.33c.33-.874.561-1.446.646-1.605.148-.278.453-2.1.884-4.676l.001-.001c1.294-7.728 3.722-22.232 6.451-22.122 2.588.104 3.977 6.53 5.157 11.984.479 2.216.924 4.272 1.4 5.678 1.213.9 2.18 1.765 2.953 2.598-.251-5.335 2.484-18.763 2.484-18.763s3.651 8.092 5.405 12.424c.331-.699.649-1.348.931-1.924l.001-.001c.563-1.15.983-2.007 1.076-2.382.093-.374.379-1.786.765-3.695l.003-.012c1.165-5.755 3.241-16.008 3.708-16.008.497 0 2.693 13.143 3.729 19.715.319.304.441 1.011.639 2.154.194 1.122.461 2.664 1.058 4.657.694-5.923 2.138-13.012 2.138-13.012s1.646 3.648 3.259 7.357c1.192-8.069 2.753-15.73 2.753-15.73s6.738 14.934 9.335 21.56c.132-.576.301-1.328.496-2.194l.003-.012c1.165-5.175 3.241-14.395 3.708-14.395.341 0 1.485 5.578 2.503 10.986a690.342 690.342 0 012.703-6.082l.028.138.073.368c.657-2.642 1.219-4.623 1.435-4.623.498 0 2.694 11.819 3.73 17.728.319.274.441.909.639 1.937.29 1.51.744 3.867 2.224 7.163.493 1.098.764 2.792.857 4.879 1.21-3.72 2.356-7.012 2.6-6.982.395.049 1.191 8.056 1.638 12.551.149 1.496.259 2.602.303 2.897.043.295.318.99.687 1.923.195.495.417 1.056.645 1.659a.074.074 0 01.032-.005c.091.012.209.266.344.701l.635-.114c1.399-4.382 2.891-8.8 3.174-8.765.279.034.759 4.053 1.175 7.992 3.615-.631 7.14-1.22 10.556-1.758.505-1.101.881-1.783 1.031-1.765.139.017.337.593.569 1.515a495.02 495.02 0 015.092-.76c.256-.637.442-1.006.525-.996.078.009.172.333.276.882 5.958-.845 11.503-1.505 16.523-1.937 1.109-2.979 2.124-5.533 2.353-5.505.199.024.443 2.317.674 5.268 9.867-.692 17.416-.387 21.663 1.281 2.894 1.137 5.809 2.274 8.74 3.407 1.844-4.99 5.313-14.004 5.854-13.937.411.051 1.346 4.998 2.106 9.322 1.308-3.573 2.646-7.06 2.914-7.028.275.034.638 4.409.93 8.86 1.57-4.176 4.278-11.086 4.716-11.032.441.054 1.613 6.704 2.272 10.443v.002l.001.004v.002l.003.017c.218 1.236.379 2.149.438 2.394.059.246.39.831.835 1.617.47.832 1.067 1.888 1.603 3.004 1.573-4.107 3.668-9.319 4.048-9.272.235.029.677 1.929 1.139 4.264l.181-.254.181-.253.002-.002c.582-.815 1.016-1.421 1.13-1.697.114-.275.487-1.317.992-2.727l.003-.009c1.523-4.252 4.236-11.83 4.63-11.781.42.051 1.048 10.268 1.31 15.37.213.233.267.69.318 1.406 1.53-3.965 3.404-8.573 3.762-8.529.441.054 1.615 6.714 2.274 10.452l.086.491.064.359c1.54-2.002 2.138-3.509 2.527-4.487.275-.693.445-1.121.769-1.274 1.486-3.994 4.574-11.966 5.044-11.909.441.055 1.615 6.715 2.273 10.453.22 1.244.382 2.164.441 2.41.059.245.39.831.834 1.617.236.416.503.888.778 1.395 1.536-4.271 3.587-9.86 3.925-9.818.295.036.691 5.051.991 9.808.328-.675.57-1.077.677-1.064.401.05 1.407 5.559 2.082 9.368l.04-.038c.052-.849.074-1.505.044-1.915-.21-2.85 2.88-7.168 4.631-9.614l.002-.003c.583-.815 1.017-1.421 1.131-1.697.113-.275.487-1.32.993-2.733l.002-.005.001-.002.001-.005c1.524-4.253 4.233-11.821 4.627-11.772.42.051 1.049 10.268 1.31 15.37.241.264.278.814.339 1.703.066.983.161 2.38.59 4.263.158-.613.439-1.885.801-3.521l.001-.008c1.427-6.455 4.103-18.568 5.406-18.313 1.236.241 1.238 5.753 1.239 10.432V242.952c0 1.556.001 3.004.057 4.113l.254-.708.004-.01.013-.038.001-.003.001-.001c1.522-4.253 4.234-11.827 4.628-11.779.338.042.809 6.634 1.117 11.872.912-3.292 1.786-5.723 2.377-5.607 1.235.241 1.237 5.752 1.239 10.43V251.503c0 1.546.001 2.986.055 4.095.939-2.597 1.767-5.167 2.496-7.427v-.003c1.463-4.54 2.524-7.831 3.274-7.585.475.156.792 1.763 1.007 4.067.121-.537.261-1.169.416-1.873l.022-.099.008-.036.004-.016v-.003l.001-.003c1.426-6.455 4.103-18.568 5.406-18.313 1.235.241 1.237 5.753 1.239 10.432V234.908c0 1.837.001 3.533.084 4.713 1.635 2.775 1.996 5.057 1.98 7.077 1.061-2.839 2.012-5.211 2.233-5.184.421.051 1.049 10.268 1.31 15.37.241.264.279.814.339 1.703v.006c.021.304.044.648.079 1.033l.179-.933.001-.003c1.239-6.478 3.565-18.63 4.474-18.424.862.195.663 5.683.494 10.341v.007l-.001.027a228.403 228.403 0 00-.104 3.259c1.322-3.019 2.679-5.447 3.566-5.278 1.327.253 1.888 6.144 2.125 10.982 1.077-2.884 2.048-5.315 2.272-5.288.42.052 1.048 10.268 1.31 15.37.241.264.278.815.338 1.703v.003c.049.719.113 1.658.312 2.847 1.274-5.261 2.676-10.193 3.513-10.03.296.058.521.419.693.999 1.47-5.529 3.165-10.953 4.25-10.756 1.527.277 1.685 5.809 1.819 10.505.055 1.907.106 3.677.242 4.901.973 1.317 1.604 2.519 2.004 3.633 1.205-4.865 2.483-9.174 3.265-9.021.397.078.667.699.85 1.661.955-4.45 1.904-8.186 2.411-8.071.757.171.696 4.416.556 8.601.299-.428.584-.826.841-1.185l.005-.007.002-.002v-.002c.584-.815 1.019-1.423 1.133-1.698.113-.275.487-1.318.991-2.728l.004-.009c1.522-4.252 4.235-11.829 4.629-11.781.186.023.413 2.035.63 4.714.621-2.519 1.174-4.24 1.521-4.162.862.195.663 5.683.494 10.342V260.152l-.001.008c-.068 1.886-.131 3.635-.117 4.84l.03.076.031.083c1.287-5.336 2.715-10.396 3.562-10.231 1.235.241 1.237 5.753 1.238 10.433V265.421c.001 1.497.001 2.905.043 4.024.985-2.073 1.94-3.412 2.746-3.28 2.124.347 2.698 5.483 3.137 10.077 1.433-6.483 4.085-18.446 5.38-18.193.771.151 1.061 2.354 1.171 5.127.99-2.609 2.008-4.824 2.93-5.896 1.261-3.432 2.512-6.668 2.77-6.636.344.042.826 6.877 1.134 12.157.202 1.45.349 3 .488 4.468l.001.002v.006c.065.688.129 1.359.196 1.993.597-1.716 1.206-2.882 1.797-2.851.294.015.507.639.657 1.673 1.999-6.604 5.165-16.493 7.291-16.146 2.217.362 2.746 5.939 3.194 10.674l.001.002v.005l.001.005v.006l.001.006c.062.658.123 1.299.187 1.907.96-3.673 2.012-7.057 3.014-7.005.969.051 1.049 6.689.952 12.838l.019.001c.17.009.312.22.432.596 1.977-6.607 5.104-16.476 7.188-16.134 1.822.299 2.473 4.254 2.89 8.311.975-3.756 2.049-7.274 3.07-7.221 1.043.054 1.057 7.732.928 14.223.221-.684.527-1.717.896-2.963l.002-.004.003-.012c1.897-6.397 5.456-18.401 7.751-18.025 2.176.357 2.683 5.932 3.112 10.664l.001.002c.174 1.922.337 3.704.593 4.942.467.445.883.875 1.253 1.293.698-4.962 3.943-14.645 3.943-14.645s3.164 10.174 3.706 12.795l.171.165.087.087c.107-.521.149-1.013.106-1.463-.334-3.53 4.057-16.636 4.057-16.636s2.452 7.885 3.409 11.56c1.158-3.347 2.22-6.231 2.451-6.203.236.029.494 3.611.709 7.75 1.192-5.002 6.002-11.22 6.002-11.22s4.386 8.139 5.104 11.22c1.972-7.958 12.777-15.34 12.777-15.34v15.34s0 .453-.014 1.205v23.327c.391 12.801 0 28.608 0 65.831h.014V600H.913V289.038l.108-.088v-37.795s2.49-8.491 3.367-12.204c.751-3.184 1.304-5.525 1.61-5.525.254 0 .867 1.538 1.608 3.71.849-3.082 1.584-5.385 1.877-5.385.412 0 1.77 4.053 3.09 8.293 1.422-6.041 4.223-17.269 4.87-17.269.622 0 3.393 9.22 4.948 14.395l.531 1.765c1.369-5.455 2.919-11.138 3.38-11.138.4 0 1.696 3.838 2.983 7.951 1.05-5.62 2.28-11.703 2.638-11.703.466 0 2.542 9.22 3.707 14.395.388 1.722.675 2.997.768 3.334.094.338.513 1.109 1.077 2.143.299.548.638 1.171.99 1.842a.073.073 0 01.036-.01c.176 0 .524.738.968 1.914 1.063-5.712 2.337-12.043 2.701-12.043.432 0 2.24 7.883 3.43 13.162.62-2.115 1.125-3.546 1.356-3.546.414 0 1.782 4.092 3.11 8.353.922-4.798 1.865-9.239 2.17-9.239.265 0 1.05 2.98 1.893 6.502 1.41-5.661 3.077-11.851 3.558-11.851.537 0 2.676 6.873 4.25 12.082 1.102-5.986 2.536-13.25 2.926-13.25.466 0 2.542 9.217 3.707 14.393v.003l.001.001c.334 1.482.593 2.632.718 3.138.243-.663.436-1.045.556-1.045.203 0 .637.987 1.183 2.497.135-.589.313-1.378.519-2.293v-.001c1.165-5.175 3.241-14.394 3.708-14.394.373 0 1.704 6.664 2.783 12.486.842-1.974 1.884-3.887 2.657-5.305.563-1.035.983-1.806 1.077-2.143.093-.338.38-1.611.767-3.333v-.001c1.166-5.175 3.242-14.395 3.708-14.395.498 0 2.694 11.819 3.73 17.729.319.273.441.909.639 1.936.29 1.511.744 3.868 2.224 7.164 1.002 2.233 1.088 6.932.624 12.384.584-1.973 1.058-3.288 1.28-3.288.106 0 .275.268.49.74a4.09 4.09 0 00.27-.629c.093-.337.38-1.611.767-3.333 1.165-5.175 3.242-14.395 3.708-14.395.497 0 2.694 11.819 3.73 17.728.163.14.275.375.371.709.412-.827.827-1.609 1.204-2.307.975-3.632 1.856-6.517 2.184-6.517.034 0 .073.026.118.077 1.173-5.21 3.2-14.186 3.66-14.186.248 0 .917 2.93 1.654 6.601 1.199-4.648 2.402-8.853 2.798-8.853.426 0 1.863 4.333 3.225 8.725.185-1.408.512-2.567 1.005-3.39 1.975-3.296 2.58-5.653 2.968-7.163.264-1.028.427-1.664.852-1.937 1.383-5.91 4.314-17.729 4.978-17.729.486 0 2.285 5.634 3.79 10.566 1.013-4.353 2.073-8.611 2.39-8.611.325 0 1.376 5.047 2.354 10.194 1.231-5.092 3.398-13.535 3.916-13.535.522 0 2.844 7.594 4.148 11.857v.002l.001.001c.433 1.417.754 2.466.858 2.743.104.279.574.914 1.204 1.766.668.902 1.515 2.047 2.3 3.271 1.245-5.012 2.94-11.387 3.39-11.387.278 0 1.065 2.151 1.938 4.806l.346-.635.001-.003.002-.004c.564-1.034.984-1.805 1.077-2.143.093-.337.38-1.61.767-3.33l.001-.004v-.001l.001-.003c1.165-5.175 3.24-14.39 3.707-14.39.497 0 2.693 11.819 3.729 17.728.282.242.41.766.573 1.594 1.215-4.841 2.74-10.482 3.163-10.482.522 0 2.844 7.595 4.148 11.858l.297.969c1.509-2.554 1.99-4.396 2.302-5.592.222-.847.358-1.371.715-1.596 1.159-4.868 3.616-14.604 4.172-14.604.522 0 2.845 7.595 4.148 11.858l.001.002v.001c.434 1.417.754 2.466.858 2.743.105.278.574.913 1.205 1.766l.001.001.002.003c.333.45.711.961 1.103 1.511 1.179-5.199 2.768-12.008 3.169-12.008.348 0 1.528 5.79 2.561 11.291.285-.834.509-1.336.636-1.336.474 0 2.437 6.277 3.769 10.621l.041-.05c-.061-.998-.129-1.765-.223-2.239-.653-3.292 2.33-8.768 4.02-11.871.564-1.034.984-1.805 1.077-2.143.093-.337.38-1.609.767-3.33v-.001l.001-.003c1.165-5.175 3.241-14.395 3.708-14.395.497 0 2.693 11.819 3.729 17.729.319.273.442.909.639 1.937.219 1.136.529 2.751 1.3 4.884.096-.738.241-2.264.429-4.228.737-7.728 2.121-22.232 3.677-22.122 1.474.104 2.266 6.53 2.939 11.984v.007l.001.001c.239 1.943.463 3.762.698 5.128l.207-.921.001-.001v-.003c1.165-5.175 3.242-14.395 3.708-14.395.399 0 1.893 7.617 3.003 13.679.591-3.969 1.261-6.927 1.967-6.877 1.475.104 2.267 6.53 2.939 11.984z" class="Primary" clip-rule="evenodd"/>
    <path fill="#E7E0AE" fill-rule="evenodd" d="M1 289.881c6.642-5.479 25.319-14.794 46.886-8.219 26.96 8.219 41.612 8.219 58.022 8.219 5.782 0 12.437-5.684 20.425-12.507 14.687-12.544 33.883-28.939 60.455-20.955 25.257 7.59 51.182 16.96 70.661 24 12.16 4.395 21.808 7.883 27.214 9.462 5.426 1.585 37.535-5.739 76.65-14.661 62.292-14.209 142.352-32.471 160.713-25.258 29.89 11.741 62.124 23.482 89.084 31.7 26.96 8.219 100.22 5.87 118.388 0 1.65-.533 5.163-1.808 9.791-3.487 19.373-7.031 58.272-21.147 61.711-17.575v56.406c-3.39-3.522-7.129-.862-11.323 2.12-2.331 1.658-4.802 3.415-7.432 4.267-10.482 3.394-19.344 5.628-27.958 7.8-8.101 2.043-15.983 4.031-24.789 6.876-18.168 5.869-91.428 8.218-118.388 0-26.96-8.219-56.151-19.28-86.041-31.021-15.335 0-101.464 10.369-163.756 24.578-39.115 8.922-71.224 16.247-76.65 14.661-5.406-1.579-15.054-5.066-27.213-9.461h-.001c-19.479-7.041-45.404-16.411-70.661-24-26.572-7.985-45.768 8.41-60.455 20.954-7.988 6.824-14.643 12.507-20.425 12.507-16.41 0-31.062 0-58.022-8.218C26.32 331.494 7.642 340.808 1 346.287v-56.406z" class="Subtract_2" clip-rule="evenodd"/>
    <g class="Ellipse 2">
      <path fill="#606060" fill-opacity=".1" d="M460.985 496.886c0 3.663-10.069 11.331-32.05 11.331-21.98 0-27.953-5.892-27.953-9.555 0-3.663 27.613-10.293 49.593-10.293 21.981 0 10.41 4.854 10.41 8.517zM508.538 511.928c-21.981 0-39.8-2.969-39.8-6.633 0-3.663 17.819-13.898 39.8-13.898 15.6 0 15.576 20.531 0 20.531z"/>
    </g>
    <path fill="#606060" fill-opacity=".1" d="M261.501 440.822c1.247-1.15 2.989-1.802 4.813-1.802h423.579c29.897 0-5.833 27.96-15.909 37.174-1.247 1.15-10.211 0-12.035 0H238.37c-5.772 0-8.758-5.954-4.813-9.594l27.944-25.778z" class="Rectangle 2.1"/>
    <path fill="#D69962" fill-rule="evenodd" d="M467.338 205.766c-5.178-2.872-11.788-3.308-14.66 1.87-8.462 22.172-6.429 37.159-11.687 62.178l-37.601 44.853 13.46 6.183 42.846-35.003 19.639-66.397c2.872-5.177-6.82-10.812-11.997-13.684z" class="Vector" clip-rule="evenodd"/>
    <path fill="#474747" d="M687.634 356.745h-22.533v96.905h22.533v-96.905z" class="Vector_2"/>
    <path fill="#474747" d="M310.274 345.6h-32.173v108.049h32.173V345.6z" class="Vector_3"/>
    <path fill="#2F2F2F" d="M310.274 358.348h-32.173v12.168h32.173v-12.168z" class="Vector_4"/>
    <path fill="#2F2F2F" d="M687.634 344.577h-32.173v12.168h32.173v-12.168z" class="Vector_5"/>
    <path fill="#474747" d="M665.1 374.469h-32.173v91.928H665.1v-91.928z" class="Vector_6"/>
    <path fill="#474747" d="M283.873 358.347H251.7v108.049h32.173V358.347z" class="Vector_7"/>
    <path fill="#C4AEA0" d="M691.5 326.6l-26.4 20.1H271.3v-14.9l6.8-5.2h413.4z" class="Vector_8"/>
    <path fill="#C4AEA0" d="M665.101 346.7l26.4-20.1v15.6l-26.4 20.1v-15.6z" class="Vector_9"/>
    <path fill="#C4AEA0" d="M278.1 326.6v15.6l-6 4.5-.5.5-19.9 15.1v-15.6l19.6-14.9 6.8-5.2z" class="Vector_10"/>
    <path fill="#C4AEA0" d="M665.1 346.7H251.7v15.6h413.4v-15.6z" class="Vector_11"/>
    <path fill="#474747" fill-rule="evenodd" d="M675.267 339.629l-411.406-2.196 1.922-1.467 410.951 2.204v15.274l-1.467 1.118v-14.933z" class="Vector (Stroke)" clip-rule="evenodd"/>
    <path fill="#474747" fill-rule="evenodd" d="M686.167 330.73l-410.605-2.196 1.921-1.467 410.151 2.204v15.941l-1.467 1.129V330.73z" class="Vector (Stroke)_2" clip-rule="evenodd"/>
    <path fill="#F2825D" fill-rule="evenodd" d="M511.367 470.61c1.894 1.137 3.207 10.962 2.049 15.904-1.98 8.447-.546 14.888-6.343 22.247-2.58 3.276-5.757 2.868-9.727 2.868-6.393 0-12.982-2.516-15.817-4.217-1.895-1.137-2.621-6.708-1.484-8.603 1.136-1.894 3.705.606 5.6 1.743 1.25.75 4.854 2.2 10.603 1.455 25.37-3.29 5.966-11.493 12.611-22.567 1.136-1.894.613-9.966 2.508-8.83z" class="Vector 2 (Stroke).1" clip-rule="evenodd"/>
    <path fill="#F2825D" fill-rule="evenodd" d="M455.302 484.122c2.164 1.254 3.873 7.147 2.574 9.237-1.392 2.241-3.741 3.906-5.962 5.14-2.333 1.295-5.091 2.42-7.92 3.371-5.658 1.903-13.269 3.426-18.284 4.054-8.557 1.071-13.579-1.06-16.819-2.938-2.164-1.254-1.901-7.362-.602-9.452 1.299-2.091 3.141.629 5.306 1.883 1.428.828 5.547 2.428 12.115 1.605 4.438-.555 10.256-1.8 15.277-3.488 2.511-.845 4.698-1.759 6.37-2.688 1.783-.99 2.498-1.734 2.681-2.029 1.299-2.09 3.099-5.949 5.264-4.695z" class="Vector 2 (Stroke)" clip-rule="evenodd"/>
    <path stroke="#FFB877" stroke-linecap="round" stroke-width="12.2" d="M434.843 440.005l11.56 30.462" class="Vector_12"/>
    <path stroke="#FFB877" stroke-linecap="round" stroke-width="10.2" d="M511.685 443.831l-6.812 30.62" class="Vector_13"/>
    <path fill="#FFB877" d="M516.11 106.239l-45.998 4.65s.314 29.09 1.367 50.786c22.615 7.737 48.884-21.955 48.884-21.955l-4.253-33.481z" class="Vector_14"/>
    <path stroke="#474747" stroke-linecap="round" stroke-width="1.335" d="M470.899 129.672c-.888 5.345-6.021 7.582-5.38 9.011.641 1.43 4.703 2.833 4.703 2.833" class="Vector_15"/>
    <path stroke="#474747" stroke-width="1.335" d="M477.354 146.627c-.269 1.307-2.138 4.242-6.322 4.38" class="Vector_16"/>
    <path fill="#ADFBE8" d="M496.578 186.313c15.267 3.445 21.214-3.009 25.956-14.864 4.877 3.243 24.344 15.239 22.312 20.558l-34.407 13.188c-6.98.169-21.47.405-23.59 0-2.121-.406-8.305-11.146-11.132-16.465l11.132-9.842s-5.538 3.98 9.729 7.425z" class="Vector_17"/>
    <path fill="#606060" fill-rule="evenodd" d="M498.785 115.853l-11.408 1.512c-10.475.896-17.064-2.228-17.064-2.228-4.935-7.765-15.402-26.966-7.965-33.909 1.639-1.53 3.392-2.028 5.17-1.789.514-2.174 1.286-4.044 2.391-5.44 8.47-10.71 18.644-7.46 27.867-.269 2.898-5.436 6.804-9.772 10.722-9.214 11.436 1.63 16.831 29.344 13.311 37.785 1.949-4.682 13.103-3.951 11.705 5.99-1.748 12.428-.56 29.533.384 39.043.943 9.511-15.145 7.188-18.212 6.539-3.065-.65-10.115-2.392-8.305-8.53.668-2.266 2.476-4.884 4.293-7.513 3.104-4.493 6.233-9.021 3.738-11.892-3.955-4.552-8.692.327-9.662 5.437l-8.213-1.019c1.919-4.812 3.585-11.941 1.248-14.503zm6.836 226.736a24.441 24.441 0 004.41 7.442l-18.386 84.955c-2.395 11.065 4.635 21.977 15.7 24.372 11.066 2.395 21.978-4.634 24.372-15.7l22.302-103.051c.592-2.735.609-5.462.13-8.052.14-6.754-3.289-15.787-9.196-25.705-4.866-11.561-17.41-17.792-29.494-14.873-4.736 1.143-11.357 1.732-17.636 1.932-2.965.094-5.545.094-7.363.07-.905-.012-1.608-.029-2.061-.043-.227-.006-.39-.012-.484-.015l-.082-.003-.004-.001h-.004l-.508-.022h-.533l-17.532.001h-1.92l-1.896.299-41.797 6.591c-1.18.187-2.328.454-3.437.797-.706.022-1.416.081-2.131.178-11.218 1.525-19.077 11.855-17.553 23.074l15.178 111.702c1.525 11.218 11.855 19.077 23.074 17.553 11.218-1.525 19.077-11.855 17.553-23.074l-11.411-83.979 26.261-4.141 15.153-.001.623.02c.698.021 1.673.044 2.872.06 2.388.031 5.716.031 9.559-.091 1.889-.06 3.993-.152 6.241-.295zm6.055 124.804c-4.461 2.444-6.663 1.636-10.202-2.517 0 0-2.799 3.555-3.673 5.577-1.126 2.606-3.106 6.752-4.353 8.638-2.271 3.438-4.381 5.801-6.295 7.944-3.1 3.471-5.684 6.364-7.6 12.312-.001 5.985 8.448 9.021 15.538 9.457 5.002.307 11.069 0 12.354-3.473 9.773-26.393 4.231-37.938 4.231-37.938zm-72.884.435l12.872-1.431c1.587-.138 7.084 21.032 6.638 23.985-.364 2.405-9.259 5.682-15.432 7.906-6.268 3.074-16.763 6.381-30.384 3.978-9.553-1.685-3.866-12.893 1.416-17.914 3.144-2.989 6.335-4.935 9.791-4.422 4.562.141 13.551-3.282 15.514-5.589.811-.952.349-1.893-.151-2.913-.529-1.076-1.1-2.241-.264-3.6z" class="Secondary" clip-rule="evenodd"/>
    <path fill="#000" fill-opacity=".18" fill-rule="evenodd" d="M526.287 316.834c-9.83 3.449-10.7 13.688-16.37 33.066a24.408 24.408 0 01-4.297-7.31c-2.248.143-4.352.235-6.241.295-3.842.122-7.171.122-9.559.091a186.932 186.932 0 01-3.495-.08h-15.153l-26.25 4.163s-1.111-12.45-4.171-30.659c-2.639-15.706-20.985-15.178-20.985-15.178l47.565-7.325 19.985-.001.508.022H487.833l.081.003.484.016c.453.014 1.156.031 2.061.043 1.818.024 4.398.024 7.363-.07 6.279-.2 12.901-.789 17.637-1.933 11.292-2.727 23.718 3.451 28.441 12.673 7.419 11.156 10.912 24.056 10.197 27.743-3.63-12.989-19.055-18.632-27.81-15.559z" class="Union" clip-rule="evenodd"/>
    <path fill="#ADFBE8" d="M533.022 197.245c0-10.026-10.027-21.371 0-21.371 10.025 0 36.307 11.345 36.307 21.371h-36.307zm36.307 0v40.459h-36.307v-40.459h36.307z" class="Vector_18"/>
    <path stroke="#F2825D" stroke-linecap="round" stroke-width="3" d="M492.897 483.877l14.352 2.915" class="Vector 2"/>
    <path stroke="#F2825D" stroke-linecap="round" stroke-width="3" d="M497.633 476.133l10.587 2.46" class="Vector 2.2"/>
    <path fill="#606060" fill-opacity=".1" d="M57.37 502.732c.98-.845 2.348-1.324 3.78-1.324h332.693c4.533 0 6.879 4.373 3.78 7.046l-21.948 18.932c-.979.844-2.348 1.324-3.78 1.324H39.202c-4.533 0-6.879-4.373-3.78-7.046l21.948-18.932z" class="Rectangle 2_2"/>
    <path fill="#F2825D" d="M90.275 283.422H80.202c-.792 0-1.358-.566-1.358-1.358v-5.432c0-.793.566-1.359 1.358-1.359h10.073c.792 0 1.358.566 1.358 1.359v5.432c0 .792-.68 1.358-1.358 1.358z" class="Vector_19"/>
    <path fill="#F2825D" d="M342.884 283.422h10.072c.792 0 1.358-.566 1.358-1.358v-5.432c0-.793-.566-1.359-1.358-1.359h-10.072c-.793 0-1.359.566-1.359 1.359v5.432c0 .792.566 1.358 1.359 1.358z" class="Vector_20"/>
    <path stroke="#445A6F" stroke-miterlimit="10" stroke-width="2.881" d="M184.323 277.31l11.544-21.956" class="Vector_21"/>
    <path stroke="#445A6F" stroke-miterlimit="10" stroke-width="2.881" d="M259.02 255.354l-11.544 21.956" class="Vector_22"/>
    <rect width="10.802" height="13.489" x="64.951" y="503.709" fill="#3F4F69" class="Rectangle" rx="2.264"/>
    <rect width="10.802" height="13.489" x="357.292" y="503.709" fill="#3F4F69" class="Rectangle_2" rx="2.264"/>
    <path fill="#F2825D" d="M95.48 286.478H75.11c-.566 0-.906-.453-.906-.906v-6.338c0-.565.453-.905.906-.905H95.48c.566 0 .906.453.906.905v6.338c0 .453-.453.906-.906.906z" class="Vector_23"/>
    <path fill="#C5D4BF" d="M116.418 277.424v4.187c0 .227-.566.34-1.471.453-1.585.113-4.075.227-7.017.227h-3.622c-2.49 0-4.64 0-5.998-.227-1.132-.113-1.811-.226-1.811-.453v-4.187c0-.226.792-.453 2.037-.566 1.585-.226 4.075-.339 6.791-.339h2.829c3.735.113 6.791.339 8.036.679.113 0 .226.113.226.226z" class="Vector_24"/>
    <path fill="#F2825D" d="M123.548 281.839v4.187c0 .226-.905.34-2.603.453-2.603.113-7.017.226-12.11.226H102.724c-4.3 0-7.922 0-10.3-.226-2.036-.113-3.168-.227-3.168-.453v-4.187c0-.227 1.245-.453 3.395-.566 2.716-.227 6.904-.34 11.657-.34h4.754c6.451.113 11.657.34 13.694.679.566 0 .792.113.792.227z" class="Vector_25"/>
    <path fill="#3F4F69" d="M190.435 281.839v4.187c0 .226-.905.34-2.603.453-2.603.113-7.017.226-12.11.226H169.611c-4.301 0-7.923 0-10.299-.226-2.038-.113-3.169-.227-3.169-.453v-4.187c0-.227 1.245-.453 3.395-.566 2.716-.227 6.904-.34 11.657-.34h4.753c6.451.113 11.658.34 13.695.679.566 0 .792.113.792.227z" class="Vector_26"/>
    <path fill="#3F4F69" d="M185.342 284.894h-1.471c-1.358 0-2.377-1.019-2.377-2.377v-6.451c0-1.358 1.019-2.377 2.377-2.377h1.471c1.358 0 2.377 1.019 2.377 2.377v6.451c0 1.358-1.019 2.377-2.377 2.377z" class="Vector_27"/>
    <path fill="#3F4F69" d="M242.609 281.839v4.187c0 .226.906.34 2.603.453 2.603.113 7.017.226 12.11.226h6.112c4.3 0 7.922 0 10.299-.226 2.037-.113 3.169-.227 3.169-.453v-4.187c0-.227-1.245-.453-3.396-.566-2.716-.227-6.903-.34-11.657-.34h-4.753c-6.451.113-11.657.34-13.694.679-.453 0-.793.113-.793.227z" class="Vector_28"/>
    <path fill="#3F4F69" d="M247.702 284.894h1.471c1.358 0 2.377-1.019 2.377-2.377v-6.451c0-1.358-1.019-2.377-2.377-2.377h-1.471c-1.358 0-2.377 1.019-2.377 2.377v6.451c0 1.358 1.132 2.377 2.377 2.377z" class="Vector_29"/>
    <path stroke="#3F4F69" stroke-linecap="round" stroke-miterlimit="10" stroke-width="11.318" d="M194.736 255.354h63.153" class="Vector_30"/>
    <path fill="#F2825D" d="M337.677 286.479h20.372c.566 0 .905-.453.905-.906v-6.338c0-.565-.453-.905-.905-.905h-20.372c-.566 0-.906.453-.906.905v6.338c0 .453.34.906.906.906z" class="Vector_31"/>
    <path fill="#C5D4BF" d="M316.627 277.424v4.187c0 .227.566.34 1.471.453 1.585.113 4.075.227 7.017.227h3.622c2.49 0 4.64 0 5.998-.227 1.132-.113 1.811-.226 1.811-.453v-4.187c0-.226-.792-.453-2.037-.566-1.585-.226-4.075-.339-6.791-.339h-2.829c-3.735.113-6.791.339-8.036.679a.243.243 0 00-.226.226z" class="Vector_32"/>
    <path fill="#F2825D" d="M309.496 281.839v4.187c0 .226.905.34 2.603.453 2.603.113 7.017.226 12.11.226h6.112c4.3 0 7.922 0 10.299-.226 2.037-.113 3.168-.227 3.168-.453v-4.187c0-.227-1.244-.453-3.395-.566-2.716-.227-6.904-.34-11.657-.34h-4.753c-6.451.113-11.658.34-13.695.679-.563.094-.792.113-.792.227z" class="Vector_33"/>
    <path fill="#A6635E" d="M108.043 286.705h-4.075c-.566-1.132.114-2.037.453-3.961.113-.792.34-1.358.792-1.811h2.943c-.113.792-.113 2.264-.34 3.282-.226.792-.452 1.811.227 2.49z" class="Vector_34"/>
    <path fill="#A6635E" d="M123.548 281.838v4.188c0 .226-.905.339-2.603.452-.226-1.131 1.358-2.037 1.698-3.848.113-.452.113-.792.113-1.131.566.113.792.226.792.339z" class="Vector_35"/>
    <path fill="#A6635E" d="M92.425 286.479c-2.037-.114-3.17-.227-3.17-.453v-4.188c0-.226 1.246-.452 3.396-.566-.34.793-1.018 2.038-1.132 2.943-.226.679.34 1.585.906 2.264z" class="Vector_36"/>
    <path fill="#A6635E" d="M325.114 286.705h4.075c.565-1.132-.114-2.037-.453-3.961-.113-.792-.34-1.358-.792-1.811h-2.943c.113.792.113 2.264.34 3.282.113.792.339 1.811-.227 2.49z" class="Vector_37"/>
    <path fill="#A6635E" d="M309.496 281.838v4.188c0 .226.905.339 2.603.453.226-1.132-1.358-2.038-1.698-3.848a3.537 3.537 0 01-.122-1.018c-.636.079-.783.112-.783.225z" class="Vector_38"/>
    <path fill="#A6635E" d="M340.62 286.479c2.037-.114 3.169-.227 3.169-.453v-4.188c0-.226-1.245-.452-3.395-.566.339.793 1.018 2.038 1.131 2.943.227.679-.339 1.585-.905 2.264z" class="Vector_39"/>
    <path fill="#F2825D" d="M141.09 282.292h-3.169c-1.019 0-1.924-.793-1.924-1.924v-3.282c0-1.019.792-1.924 1.924-1.924h3.169c1.019 0 1.924.792 1.924 1.924v3.282c0 1.131-.792 1.924-1.924 1.924z" class="Vector_40"/>
    <path fill="#F2825D" d="M151.842 285.46h-24.899a1.256 1.256 0 01-1.245-1.245v-3.621H153.2v3.621c0 .679-.566 1.245-1.358 1.245z" class="Vector_41"/>
    <path fill="#DADBBC" d="M153.313 280.594h-27.615v-1.174c0-1.173.909-1.995 1.932-1.995h23.637c1.137 0 1.932.939 1.932 1.995v1.174h.114z" class="Vector_42"/>
    <path fill="#F2825D" d="M295.18 282.517h-3.169c-1.019 0-1.924-.792-1.924-1.924v-3.282c0-1.019.792-1.924 1.924-1.924h3.169c1.018 0 1.924.792 1.924 1.924v3.282c0 1.132-.906 1.924-1.924 1.924z" class="Vector_43"/>
    <path fill="#F2825D" d="M306.101 285.573h-24.899a1.256 1.256 0 01-1.245-1.245v-3.622h27.502v3.622c-.113.679-.679 1.245-1.358 1.245z" class="Vector_44"/>
    <path fill="#DADBBC" d="M307.588 280.706h-27.615v-1.174c0-1.173.909-1.995 1.932-1.995h23.637c1.136 0 1.932.939 1.932 1.995v1.174h.114z" class="Vector_45"/>
    <path fill="#DADBBC" d="M358.049 510.567H74.995c-15.279 0-27.615-12.336-27.615-27.615V313.074c0-15.278 12.336-27.615 27.615-27.615h283.054c15.278 0 27.615 12.337 27.615 27.615v169.878c.113 15.279-12.337 27.615-27.615 27.615z" class="Vector_46"/>
    <path fill="#A6635E" d="M349.447 511.585a7.116 7.116 0 01-5.206-2.263c-1.358-1.471-1.924-3.395-1.697-5.319l2.829-19.353a20.999 20.999 0 0120.938-18.788h16.184a5.314 5.314 0 015.319 5.32v22.522c0 9.846-8.035 17.768-17.769 17.768l-20.598.113z" class="Vector_47"/>
    <path fill="#A6635E" d="M83.71 511.585a7.116 7.116 0 005.207-2.263c1.358-1.471 1.924-3.395 1.697-5.319l-2.83-19.353c-1.13-10.639-10.072-18.788-20.937-18.788H50.663a5.313 5.313 0 00-5.32 5.32v22.522c0 9.846 8.036 17.768 17.77 17.768l20.597.113z" class="Vector_48"/>
    <path fill="#fff" d="M64.697 499.815c-5.546-7.809-6.225-21.164-6.225-21.164s-7.696 1.697-13.128 2.829v11.318c0 9.846 8.035 17.768 17.768 17.768h9.734c.565-.339 1.018-.565 1.358-.792 3.282-2.263-3.961-2.15-9.507-9.959z" class="Vector_49" opacity=".1"/>
    <path fill="#fff" d="M368.348 500.268c5.546-7.809 6.225-21.164 6.225-21.164s7.696 1.698 13.128 2.829v11.318c0 9.846-8.035 17.769-17.769 17.769h-9.733c-.566-.34-1.018-.566-1.358-.793-3.282-2.263 3.961-2.15 9.507-9.959z" class="Vector_50" opacity=".1"/>
    <path fill="#A6635E" d="M90.614 292.024l-2.83 19.353c-1.13 10.638-10.072 18.787-20.937 18.787H50.663a5.313 5.313 0 01-5.32-5.319v-22.749c0-9.846 8.036-17.768 17.77-17.768h20.484c1.924 0 3.848.792 5.206 2.263 1.359 1.585 2.038 3.509 1.811 5.433z" class="Vector_51"/>
    <path fill="#fff" d="M64.697 295.306c-5.546 7.81-6.225 21.164-6.225 21.164s-7.696-1.697-13.128-2.829v-11.318c0-9.846 8.035-17.768 17.768-17.768h9.734c.565.339 1.018.566 1.358.792 3.282 2.263-3.961 2.15-9.507 9.959z" class="Vector_52" opacity=".1"/>
    <path stroke="#3F4F69" stroke-dasharray="1.13 1.13" stroke-miterlimit="10" stroke-width="1.132" d="M66.846 328.014H50.662a3.043 3.043 0 01-3.056-3.056V302.21a15.456 15.456 0 0115.506-15.505H83.71c2.829 0 4.98 2.376 4.64 5.206l-2.83 19.353c-1.018 9.393-9.054 16.75-18.674 16.75z" class="Vector_53"/>
    <path fill="#A6635E" d="M342.544 292.024l2.829 19.353c1.132 10.638 10.073 18.787 20.938 18.787h16.184a5.313 5.313 0 005.319-5.319v-22.749c0-9.846-8.035-17.768-17.769-17.768h-20.598a7.116 7.116 0 00-5.206 2.263c-1.358 1.585-1.924 3.509-1.697 5.433z" class="Vector_54"/>
    <path fill="#fff" d="M368.348 295.306c5.546 7.81 6.225 21.164 6.225 21.164s7.696-1.697 13.128-2.829v-11.318c0-9.846-8.035-17.768-17.769-17.768h-9.733c-.566.339-1.018.566-1.358.792-3.282 2.263 3.961 2.15 9.507 9.959z" class="Vector_55" opacity=".1"/>
    <path stroke="#3F4F69" stroke-dasharray="1.13 1.13" stroke-miterlimit="10" stroke-width="1.132" d="M366.198 328.014h16.184a3.043 3.043 0 003.056-3.056V302.21a15.456 15.456 0 00-15.505-15.505h-20.485c-2.829 0-4.98 2.376-4.64 5.206l2.829 19.353c.906 9.393 8.941 16.75 18.561 16.75z" class="Vector_56"/>
    <path fill="#A6635E" d="M149.692 281.611h-20.485v232.804h20.485V281.611z" class="Vector_57"/>
    <path stroke="#2C2C2C" stroke-miterlimit="10" stroke-width="1.132" d="M147.428 283.875v.566" class="Vector_58"/>
    <path stroke="#3F4F69" stroke-dasharray="1.13 1.13" stroke-miterlimit="10" stroke-width="1.132" d="M147.428 285.573V511.02" class="Vector_59"/>
    <path stroke="#2C2C2C" stroke-miterlimit="10" stroke-width="1.132" d="M147.428 511.586v.566" class="Vector_60"/>
    <path stroke="#2C2C2C" stroke-miterlimit="10" stroke-width="1.132" d="M131.471 512.152v-.566" class="Vector_61"/>
    <path stroke="#3F4F69" stroke-dasharray="1.13 1.13" stroke-miterlimit="10" stroke-width="1.132" d="M131.471 510.454V285.007" class="Vector_62"/>
    <path stroke="#2C2C2C" stroke-miterlimit="10" stroke-width="1.132" d="M131.471 284.441v-.566" class="Vector_63"/>
    <path fill="#A6635E" d="M118.908 345.555c-6.338 0-11.771-5.206-12.11-11.544-.113-3.395 1.018-6.564 3.282-8.941 2.263-2.376 5.432-3.735 8.828-3.735 1.131 0 2.15.114 3.169.453 5.998 1.585 11.204 2.377 15.957 2.377h2.717c4.753 0 9.959-.792 15.957-2.377 1.019-.339 2.151-.453 3.169-.453 3.396 0 6.451 1.359 8.828 3.735 2.264 2.377 3.509 5.659 3.282 8.941-.339 6.338-5.772 11.544-12.11 11.544h-.226a9.441 9.441 0 01-2.49-.339c-3.508-.793-6.451-1.245-9.054-1.245h-17.429c-2.603 0-5.546.339-9.054 1.245a9.441 9.441 0 01-2.49.339h-.226z" class="Vector_64"/>
    <path stroke="#3F4F69" stroke-dasharray="1.13 1.13" stroke-miterlimit="10" stroke-width="1.132" d="M169.837 334.011c-.226 5.32-4.866 9.507-10.072 9.394-.679 0-1.358-.113-2.037-.226-3.169-.679-6.338-1.245-9.62-1.245h-17.43c-3.282 0-6.451.566-9.62 1.245-.679.113-1.358.226-2.037.226-5.319.113-9.846-4.074-10.072-9.394-.34-5.658 4.187-10.412 9.846-10.412.905 0 1.811.113 2.603.34 5.432 1.471 10.978 2.49 16.524 2.49h2.716c5.659 0 11.091-1.019 16.524-2.49.792-.227 1.697-.34 2.603-.34 5.772 0 10.299 4.64 10.072 10.412z" class="Vector_65"/>
    <path fill="#A6635E" d="M118.908 473.219c-6.338 0-11.771-5.206-12.11-11.544-.113-3.396 1.018-6.564 3.282-8.941 2.263-2.377 5.432-3.735 8.828-3.735 1.131 0 2.15.113 3.169.453 5.998 1.584 11.204 2.376 15.957 2.376h2.717c4.753 0 9.959-.792 15.957-2.376 1.019-.34 2.151-.453 3.169-.453 3.396 0 6.451 1.358 8.828 3.735 2.264 2.377 3.509 5.659 3.282 8.941-.339 6.338-5.772 11.544-12.11 11.544h-.226a9.402 9.402 0 01-2.49-.34c-3.508-.792-6.451-1.245-9.054-1.245h-17.429c-2.603 0-5.546.34-9.054 1.245a9.402 9.402 0 01-2.49.34h-.226z" class="Vector_66"/>
    <path stroke="#3F4F69" stroke-dasharray="1.13 1.13" stroke-miterlimit="10" stroke-width="1.132" d="M169.837 461.561c-.226 5.319-4.866 9.507-10.072 9.394-.679 0-1.358-.113-2.037-.227-3.169-.679-6.338-1.245-9.62-1.245h-17.43c-3.282 0-6.451.566-9.62 1.245-.679.114-1.358.227-2.037.227-5.319.113-9.846-4.075-10.072-9.394-.34-5.659 4.187-10.412 9.846-10.412.905 0 1.811.113 2.603.339 5.432 1.472 10.978 2.49 16.524 2.49h2.716c5.659 0 11.091-1.018 16.524-2.49.792-.226 1.697-.339 2.603-.339 5.772.113 10.299 4.753 10.072 10.412z" class="Vector_67"/>
    <path fill="#F2825D" d="M139.392 309.001a2.264 2.264 0 100-4.528 2.264 2.264 0 000 4.528z" class="Vector_68"/>
    <path fill="#A6635E" d="M139.761 307.797c.766-.272 1.217-.97 1.009-1.559-.209-.589-.999-.846-1.765-.575-.766.272-1.218.969-1.009 1.558.209.59.999.847 1.765.576z" class="Vector_69"/>
    <path fill="#F2825D" d="M139.392 369.889a2.264 2.264 0 100-4.528 2.264 2.264 0 000 4.528z" class="Vector_70"/>
    <path fill="#A6635E" d="M139.795 368.676c.766-.271 1.218-.969 1.009-1.558-.209-.589-.999-.847-1.765-.575-.766.271-1.217.969-1.009 1.558.209.589.999.846 1.765.575z" class="Vector_71"/>
    <path fill="#F2825D" d="M139.392 430.665a2.263 2.263 0 10.002-4.526 2.263 2.263 0 00-.002 4.526z" class="Vector_72"/>
    <path fill="#A6635E" d="M139.792 429.449c.766-.271 1.218-.969 1.009-1.558-.209-.589-.999-.846-1.765-.575-.766.272-1.217.969-1.008 1.558.208.589.998.847 1.764.575z" class="Vector_73"/>
    <path fill="#F2825D" d="M139.392 491.441a2.264 2.264 0 100-4.528 2.264 2.264 0 000 4.528z" class="Vector_74"/>
    <path fill="#A6635E" d="M139.788 490.224c.766-.272 1.218-.969 1.009-1.558-.209-.59-.999-.847-1.765-.576-.766.272-1.217.97-1.008 1.559.208.589.999.846 1.764.575z" class="Vector_75"/>
    <path fill="#F2825D" d="M118.342 335.709a2.263 2.263 0 100-4.526 2.263 2.263 0 000 4.526z" class="Vector_76"/>
    <path fill="#A6635E" d="M118.717 334.489c.766-.271 1.218-.969 1.009-1.558-.209-.589-.999-.846-1.765-.575-.766.272-1.217.969-1.009 1.558.209.589.999.847 1.765.575z" class="Vector_77"/>
    <path fill="#F2825D" d="M160.556 335.709a2.263 2.263 0 10.002-4.526 2.263 2.263 0 00-.002 4.526z" class="Vector_78"/>
    <path fill="#A6635E" d="M160.928 334.478c.766-.271 1.217-.969 1.009-1.558-.209-.589-.999-.847-1.765-.575-.766.271-1.218.969-1.009 1.558.209.589.999.847 1.765.575z" class="Vector_79"/>
    <path fill="#F2825D" d="M118.342 463.372a2.264 2.264 0 10-.001-4.527 2.264 2.264 0 00.001 4.527z" class="Vector_80"/>
    <path fill="#A6635E" d="M118.735 462.144c.766-.272 1.217-.969 1.008-1.558-.209-.59-.999-.847-1.765-.576-.765.272-1.217.97-1.008 1.559.209.589.999.846 1.765.575z" class="Vector_81"/>
    <path fill="#F2825D" d="M160.556 463.372a2.264 2.264 0 100-4.528 2.264 2.264 0 000 4.528z" class="Vector_82"/>
    <path fill="#A6635E" d="M160.946 462.134c.766-.271 1.217-.969 1.008-1.558-.209-.589-.999-.847-1.765-.575-.765.271-1.217.969-1.008 1.558.209.589.999.846 1.765.575z" class="Vector_83"/>
    <path stroke="#F1EAB0" stroke-miterlimit="10" stroke-width="1.132" d="M129.207 282.516h20.485M129.207 513.396h20.485"/>
    <path fill="#A6635E" d="M303.837 281.611h-20.484v232.804h20.484V281.611z" class="Vector_86"/>
    <path stroke="#2C2C2C" stroke-miterlimit="10" stroke-width="1.132" d="M301.688 283.875v.566" class="Vector_87"/>
    <path stroke="#3F4F69" stroke-dasharray="1.13 1.13" stroke-miterlimit="10" stroke-width="1.132" d="M301.688 285.573V511.02" class="Vector_88"/>
    <path stroke="#2C2C2C" stroke-miterlimit="10" stroke-width="1.132" d="M301.688 511.586v.566" class="Vector_89"/>
    <path stroke="#2C2C2C" stroke-miterlimit="10" stroke-width="1.132" d="M285.616 512.152v-.566" class="Vector_90"/>
    <path stroke="#3F4F69" stroke-dasharray="1.13 1.13" stroke-miterlimit="10" stroke-width="1.132" d="M285.616 510.454V285.007" class="Vector_91"/>
    <path stroke="#2C2C2C" stroke-miterlimit="10" stroke-width="1.132" d="M285.616 284.441v-.566" class="Vector_92"/>
    <path fill="#A6635E" d="M273.166 345.555c-6.337 0-11.77-5.206-12.109-11.544-.114-3.395 1.018-6.564 3.282-8.941 2.263-2.376 5.432-3.735 8.827-3.735 1.132 0 2.151.114 3.169.453 5.999 1.585 11.205 2.377 15.958 2.377h2.716c4.754 0 9.96-.792 15.958-2.377 1.019-.339 2.151-.453 3.169-.453 3.395 0 6.451 1.359 8.828 3.735 2.263 2.377 3.508 5.659 3.282 8.941-.339 6.338-5.772 11.544-12.11 11.544h-.226a9.441 9.441 0 01-2.49-.339c-3.509-.793-6.451-1.245-9.054-1.245h-17.429c-2.603 0-5.546.339-9.054 1.245a9.447 9.447 0 01-2.49.339h-.227z" class="Vector_93"/>
    <path stroke="#3F4F69" stroke-dasharray="1.13 1.13" stroke-miterlimit="10" stroke-width="1.132" d="M324.096 334.011c-.226 5.32-4.866 9.507-10.072 9.394-.68 0-1.359-.113-2.038-.226-3.169-.679-6.338-1.245-9.62-1.245h-17.429c-3.282 0-6.451.566-9.62 1.245-.679.113-1.358.226-2.037.226-5.319.113-9.846-4.074-10.073-9.394-.339-5.658 4.188-10.412 9.847-10.412.905 0 1.811.113 2.603.34 5.432 1.471 10.978 2.49 16.523 2.49h2.717c5.659 0 11.091-1.019 16.523-2.49.793-.227 1.698-.34 2.604-.34 5.771 0 10.299 4.64 10.072 10.412z" class="Vector_94"/>
    <path fill="#A6635E" d="M273.166 473.219c-6.337 0-11.77-5.206-12.109-11.544-.114-3.396 1.018-6.564 3.282-8.941 2.263-2.377 5.432-3.735 8.827-3.735 1.132 0 2.151.113 3.169.453 5.999 1.584 11.205 2.376 15.958 2.376h2.716c4.754 0 9.96-.792 15.958-2.376 1.019-.34 2.151-.453 3.169-.453 3.395 0 6.451 1.358 8.828 3.735 2.263 2.377 3.508 5.659 3.282 8.941-.339 6.338-5.772 11.544-12.11 11.544h-.226a9.402 9.402 0 01-2.49-.34c-3.509-.792-6.451-1.245-9.054-1.245h-17.429c-2.603 0-5.546.34-9.054 1.245a9.407 9.407 0 01-2.49.34h-.227z" class="Vector_95"/>
    <path stroke="#3F4F69" stroke-dasharray="1.13 1.13" stroke-miterlimit="10" stroke-width="1.132" d="M324.096 461.561c-.226 5.319-4.866 9.507-10.072 9.394-.68 0-1.359-.113-2.038-.227-3.169-.679-6.338-1.245-9.62-1.245h-17.429c-3.282 0-6.451.566-9.62 1.245-.679.114-1.358.227-2.037.227-5.319.113-9.846-4.075-10.073-9.394-.339-5.659 4.188-10.412 9.847-10.412.905 0 1.811.113 2.603.339 5.432 1.472 10.978 2.49 16.523 2.49h2.717c5.659 0 11.091-1.018 16.523-2.49.793-.226 1.698-.339 2.604-.339 5.771.113 10.299 4.753 10.072 10.412z" class="Vector_96"/>
    <path stroke="#F1EAB0" stroke-miterlimit="10" stroke-width="1.132" d="M283.353 282.516h20.598M283.353 513.396h20.598"/>
    <path fill="#C5D4BF" d="M257.079 435.521l-60.389-17.274-12.573 43.958 60.388 17.274 12.574-43.958z" class="Vector_99"/>
    <path fill="#F1EAB0" d="M254.824 436.406l-56.58-16.184-11.796 41.238 56.58 16.184 11.796-41.238z" class="Vector_100"/>
    <path fill="#B29C6F" d="M379.503 396.509l-47.492-19.607-13.173 31.906 47.493 19.607 13.172-31.906z" class="Vector_101"/>
    <path fill="#F1EAB0" d="M379.503 396.509l-47.492-19.607-13.173 31.906 47.493 19.607 13.172-31.906z" class="Vector_102"/>
    <path fill="#DADBBC" d="M376.567 397.868l-43.539-17.975-11.324 27.573 43.609 17.888 11.254-27.486z" class="Vector_103"/>
    <path fill="#678297" d="M220.654 379.962c14.376 0 26.03-11.654 26.03-26.031 0-14.376-11.654-26.03-26.03-26.03-14.377 0-26.031 11.654-26.031 26.03 0 14.377 11.654 26.031 26.031 26.031z" class="Vector_104"/>
    <path fill="#F1EAB0" d="M220.653 376.001c12.189 0 22.07-9.881 22.07-22.07 0-12.188-9.881-22.069-22.07-22.069-12.188 0-22.069 9.881-22.069 22.069 0 12.189 9.881 22.07 22.069 22.07z" class="Vector_105"/>
    <path fill="#819A9F" d="M220.653 335.597c-10.186 0-18.335 8.262-18.335 18.334 0 5.32 2.264 10.073 5.886 13.468l13.694-31.689c-.453-.113-.906-.113-1.245-.113z" class="Vector_106"/>
    <path fill="#678297" d="M232.537 340.011l-13.921 32.255c.679.114 1.358.114 2.037.114 10.186 0 18.335-8.262 18.335-18.335 0-5.659-2.49-10.638-6.451-14.034z" class="Vector_107"/>
    <path fill="#C5D4BF" d="M221.785 335.597l-13.694 31.689c2.829 2.603 6.451 4.414 10.525 4.867l13.921-32.256a19.766 19.766 0 00-10.752-4.3z" class="Vector_108"/>
    <path fill="#F1EAB0" d="M117.578 436.741L101 365.185l-40.023 9.272 16.578 71.556 40.023-9.272z" class="Vector_109"/>
    <path fill="#445A6F" d="M72.053 422.29l10.865-2.49-4.754-20.146 10.526-2.49-2.037-8.601 3.282-.792-4.188-18.108 1.81-.453 6.226 26.596 3.055-.679 5.546 23.994 10.525-2.377 4.641 19.919-39.952 9.28-5.545-23.653z" class="Vector_110"/>
    <path fill="#F2825D" d="M84.05 434.399c.113.68 0 1.359-.34 1.924-.34.566-1.018 1.132-1.81 1.585l-.567.226.453 2.037-1.81 1.019-1.359-5.998 2.377-1.245c.905-.453 1.584-.679 2.037-.566.566 0 .905.339 1.019 1.018zm-2.943 2.377l.34-.226c.226-.113.452-.34.566-.566.113-.226.226-.453.113-.679-.114-.453-.453-.453-.906-.226l-.453.226.34 1.471z" class="Vector_111"/>
    <path fill="#F2825D" d="M91.292 435.192l-.566-.906-2.263 1.132-.113 1.358-2.037 1.019.792-7.243 2.49-1.245 3.621 4.866-1.924 1.019zm-1.358-2.037l-.566-.793c-.113-.226-.226-.452-.452-.679-.227-.339-.34-.566-.34-.679v.792c0 .34 0 1.132-.113 2.151l1.471-.792z" class="Vector_112"/>
    <path fill="#F2825D" d="M96.386 430.099l.453 2.151-1.811 1.018-1.358-5.998 2.263-1.132c1.924-1.018 2.943-.905 3.17.34.113.679-.114 1.471-.793 2.263l2.603 1.585-2.15 1.132-1.924-1.472-.453.113zm-.34-1.245l.34-.226c.68-.339.906-.792.792-1.245-.113-.453-.452-.453-1.131-.113l-.34.226.34 1.358z" class="Vector_113"/>
    <path fill="#F2825D" d="M102.497 429.419l-1.358-5.998 1.81-1.019 1.359 5.999-1.811 1.018z" class="Vector_114"/>
    <path fill="#F2825D" d="M110.872 422.969c.114.339 0 .792-.113 1.132-.113.452-.452.792-.792 1.131-.339.34-.792.679-1.358 1.019-.453.226-.792.453-1.132.566-.339.113-.679.226-1.018.226l-.34-1.471c.34 0 .792-.113 1.245-.226.453-.114.792-.227 1.132-.453.226-.113.452-.34.566-.453.113-.113.113-.339.113-.453 0-.113-.113-.113-.113-.226-.114 0-.114 0-.34-.113-.113 0-.453 0-1.018.113-.453 0-.906.113-1.132 0-.227 0-.453-.113-.679-.339-.113-.114-.227-.34-.34-.679-.113-.566 0-1.132.34-1.698.339-.566 1.018-1.019 1.811-1.471.679-.34 1.471-.566 2.263-.679l-.226 1.584c-.679.113-1.245.226-1.698.453-.226.113-.453.226-.453.339-.113.113-.113.227-.113.34 0 .113.113.226.227.226.113 0 .565 0 1.244-.113.68-.113 1.132 0 1.359.113.226.453.452.679.565 1.132z" class="Vector_115"/>
    <path fill="#445A6F" d="M196.094 439.831s7.583-2.829 10.865-1.471c3.282 1.245 7.244 2.49 7.923.566.679-1.924 6.224-4.301 7.922-2.377 1.698 1.924 8.035 2.264 10.299 3.508 2.263 1.245 8.601 5.207 8.601 5.207s-4.074 7.243-4.866 8.148c-.792.906-7.923-1.471-8.941.793-1.132 2.263-3.282 3.734-3.282 3.734l3.055 1.132c3.283 1.132 6.791.792 9.847-.905 1.697-1.019 3.508-1.472 4.074.339.792 2.151-8.488 6.338-7.243 8.715 1.245 2.263-13.694 2.15-13.694 2.15l-10.186-11.318s-4.754-7.243-4.075-8.148c.679-.906 3.056-4.075.453-4.414-2.603-.34-8.262-1.471-8.262-1.471s-6.338-1.472-2.49-4.188z" class="Vector_116"/>
    <path fill="#445A6F" d="M199.489 450.471l-4.301-.566s-1.81 1.924-1.131 2.49c.679.566 3.848 1.924 4.074 2.037.34.113 3.848 3.848 4.527 3.848.679 0 1.245-4.527 1.245-4.527s1.245-2.943 0-3.282c-1.245-.34-4.414 0-4.414 0z" class="Vector_117"/>
    <path fill="#C5D4BF" d="M247.81 467.794l-60.388-17.273-3.361 11.751 60.388 17.273 3.361-11.751z" class="Vector_118"/>
    <path fill="#A6635E" d="M334.169 387.431s5.319-2.942 7.809-.792c2.49 2.151 2.603 6.225 4.414 7.13 1.811.906 6.677 2.151 6.904 3.509.226 1.358 7.243 5.093 7.243 5.093l4.527 5.432 6.911 1.245-3.705 9.11-36.14-27.897 2.037-2.83z" class="Vector_119"/>
    <path fill="#819A9F" d="M255.127 436.414l-26.552-7.594-1.431 5.006 26.551 7.594 1.432-5.006z" class="Vector_120"/>
    <path fill="#445A6F" d="M253.655 441.38l-26.551-7.594-1.432 5.006 26.552 7.594 1.431-5.006z" class="Vector_121"/>
    <path fill="#678297" d="M252.293 446.378l-26.552-7.594-1.431 5.006 26.551 7.594 1.432-5.006z" class="Vector_122"/>
    <path fill="#F2825D" d="M329.102 389.258s5.067-7.825 7.897-6.92c0 0 .226 10.639 2.829 10.752 2.603.113 8.036-4.527 8.036-4.527l.452 9.054 8.715-3.735s-1.245 5.432-.792 8.149c.452 2.716 5.545-6.338 8.148-5.093 2.603 1.245.679 8.941 2.151 8.941 1.471.113 3.055 1.584 2.376 4.074-.679 2.49.888 4.543.888 4.543l-3.635 8.859-22.491-18.834-11.318-7.923-5.636-1.433 2.38-5.907z" class="Vector_123"/>
    <path fill="#445A6F" d="M192.698 457.148c1.358.34 1.472 1.245 1.358 1.811l-.679 2.377.679.226-.226.792-1.471-.452.113-.566c-.566.226-1.019.339-1.585.226a1.452 1.452 0 01-1.018-1.811c.226-.792 1.018-1.244 1.924-.905.453.113.792.34 1.018.679l.114-.566c.113-.339 0-.905-.679-1.018-.453-.114-.793 0-1.019.226l-.792-.453c.679-.679 1.358-.792 2.263-.566zm-2.037 2.83c-.113.453.113.792.566.905.453.113.905 0 1.245-.226l.113-.453c-.226-.339-.566-.679-1.019-.792-.339-.113-.792.113-.905.566z" class="Vector_124"/>
    <path fill="#445A6F" d="M201.64 457.828l-1.585 5.432.793.226-.227.793-1.584-.453.226-.679c-.566.339-1.018.453-1.697.226-1.019-.339-1.924-1.358-1.472-2.829.34-1.245 1.585-2.037 2.717-1.698.565.113 1.018.566 1.358 1.132l.452-1.698-.792-.226.226-.792 1.585.566zm-4.753 3.055c-.227.906.113 1.585.905 1.811.792.227 1.584-.226 1.811-1.132.226-.792-.113-1.584-1.019-1.81-.679-.227-1.471.226-1.697 1.131z" class="Vector_125"/>
    <path fill="#445A6F" d="M205.035 460.884l-.226.792-.566-.113.226 2.716 1.584-2.15-.565-.226.226-.792 2.15.565-.226.793-.679-.227-2.377 3.169-.792-.226-.34-3.961-.792-.227.227-.792 2.15.679z" class="Vector_126"/>
    <path fill="#445A6F" d="M211.26 462.468c1.132.339 2.037 1.584 1.585 3.169l-3.622-1.019c-.113.792.226 1.471 1.132 1.698.566.113 1.131.113 1.584-.34l.679.566c-.679.566-1.584.792-2.49.453-1.358-.34-2.15-1.585-1.697-2.943.339-1.358 1.697-1.924 2.829-1.584zm-1.811 1.471l2.716.792c.114-.679-.339-1.358-1.018-1.584-.792-.226-1.358.113-1.698.792z" class="Vector_127"/>
    <path fill="#445A6F" d="M218.163 464.505c.792.226 1.018.905.792 1.471l-.679 2.377.679.226-.226.793-1.585-.453.793-2.83c.226-.679-.114-.792-.34-.905-.34-.113-.792 0-1.358.226l-.679 2.264.679.226-.226.793-2.264-.68.226-.792.679.227.793-2.83-.793-.226.227-.792 1.584.452-.113.566c.905-.113 1.358-.226 1.811-.113z" class="Vector_128"/>
    <path fill="#445A6F" d="M223.257 464.505l-.453 1.472.792.226-.226.792-.792-.226-.68 2.49c-.113.226 0 .339.227.452h.453l-.227.793c-.339 0-.566 0-.679-.113-.679-.227-.905-.68-.679-1.245l.792-2.603-.566-.114.227-.792.566.113.226-.679 1.019-.566z" class="Vector_129"/>
    <path fill="#445A6F" d="M226.652 466.995l-.906 2.942c-.113.34 0 .679.34.793.339.113.905 0 1.358-.227l.679-2.263-.679-.227.226-.792 1.585.453-1.019 3.508.679.227-.226.792-1.584-.453.113-.453c-.679.227-1.132.227-1.585.114-.792-.227-1.018-.793-.792-1.585l.679-2.263-.566-.227.227-.792 1.471.453z" class="Vector_130"/>
    <path fill="#445A6F" d="M234.8 469.259l-.226.905-.566-.226c-.905-.227-1.358.113-1.698 1.132l-.339 1.244.905.227-.226.792-2.603-.792.226-.792.792.226.793-2.829-.906-.227.227-.792 1.471.453-.226.905c.565-.679 1.245-.792 1.584-.679l.792.453z" class="Vector_131"/>
    <path fill="#445A6F" d="M238.082 470.164c1.132.339 2.037 1.584 1.585 3.169l-3.622-1.019c-.113.792.226 1.471 1.132 1.698.566.113 1.132.113 1.584-.34l.679.566c-.679.566-1.584.792-2.489.453-1.359-.34-2.151-1.585-1.698-2.943.339-1.358 1.811-1.924 2.829-1.584zm-1.811 1.471l2.717.792c0-.679-.34-1.358-1.019-1.584-.679-.227-1.358.113-1.698.792z" class="Vector_132"/>
    <path fill="#DADBBC" d="M327.621 393.051s24.996.832 25.562 11.358c.566 10.525 13.517 17.742 13.517 17.742l-1.416 3.16-43.564-17.847 5.901-14.413z" class="Vector_133"/>
    <path fill="#C5D4BF" d="M327.004 394.513s22.897.727 23.349 10.347c.453 9.62 16.186 17.641 16.186 17.641l-1.219 2.876-43.624-17.887 5.308-12.977z" class="Vector_134"/>
    <path fill="#819A9F" d="M326.374 396.044s20.471.668 20.924 9.269c.452 8.602 18.526 18.893 18.526 18.893l-.495 1.172-43.656-17.88 4.701-11.454z" class="Vector_135"/>
    <path fill="#445A6F" d="M255.511 350.31l-4.98 19.466-64.171 15.053 4.98-19.353 64.171-15.166z" class="Vector_136"/>
    <path fill="#F1EAB0" d="M325.228 405.2l-.34-.227-.226-.113-.113-.113-.113-.34v-.452l.226-.566.226-.566.34-.679h-.227l-.226-.113v-.227l.113-.113v-.226l.227.113h.339l.113-.113.113-.113.114-.227.113-.339h.226l.113.113.453.226-.113.34-.226.452v.114h.113l.226.113h.113l.453.226h.113v.113l-.226.566-.227-.113-.339-.113-.34-.113h-.226l-.566 1.471-.113.226v.227h.113l.113.113h.227l.226-.227.113-.339.113-.34v-.113h.114l.565.227-.113.226-.113.339-.113.227-.113.226-.113.227-.227.113-.226.113h-.679v-.226zm-.227-1.019l.114-.113h-.114v.113z" class="Vector_137"/>
    <path fill="#F1EAB0" d="M329.415 406.783l-1.697-.679-.227-.113.113-.226v-.114l.114-.113h.113l.226.113h.113l.113-.113v-.113l.227-.339.452-1.359v-.113l-.113-.113h-.226v-.113l.113-.113.113-.227.34.114.792.339.34.113v.113l-.114.227-.113.113-.226.453v.113h.226l.113-.113.227-.227.113-.113H331v.113h.339l.113.113h.114l.113.114.113.113v.453l-.113.113-.113.113-.227.113h-.453l-.113-.113-.113-.113v-.227l.113-.113h-.226l-.34.113-.113.114-.226.226-.113.113-.113.113-.34.792v.114l.113.113h.227l.113.113h.113l-.113.113-.113.227v.226l-.227-.453z" class="Vector_138"/>
    <path fill="#F1EAB0" d="M331.793 407.916l-.114-.114-.113-.113-.113-.113-.113-.113v-.34l.113-.226v-.226l.113-.114.113-.113.114-.113.226-.113H333.83l.113-.113.113-.227v-.226l-.113-.226h-.34l-.226-.114h-.226v.114l.113.113v.226l-.113.113h-.34l-.226-.113-.227-.113-.113-.226v-.34l.113-.113.227-.113.113-.113H333.717l.339.113.34.113.113.113.113.113.226.113.113.114.114.113h.113l.113.226v.453l-.453 1.018v.227l-.113.113v-.113h-.113v.113h.113l-.113.226v.114l.113.113h.226l.114-.113v-.227l.113-.453.339.114-.113.339-.226.34-.113.113-.114.113-.226.113h-.453l-.226-.113-.226-.113-.113-.113-.114-.113-.113-.227v-.453.114l-.113.113h-.226l-.114.113h-.113l-.113.113h-.453l-.113-.113h-.113l-.339.34zm1.131-.34l.227-.113.113-.113.113-.114.113-.113.113-.113.114-.226v-.113l.113-.114h-.113l-.114.114h-.792l-.226.113-.113.113-.114.113v.34l.114.113.452.113zm1.245-.905v-.114.114zm.453 0h.113v-.114l-.113.114z" class="Vector_139"/>
    <path fill="#F1EAB0" d="M337.338 410.179l-.34-.113-.339-.113-.227-.113v-3.283l-.226-.113.113-.339v-.227h.113l.227.114h.113l.905.339.453.113h.226v.113l-.113.227v.226l-.339-.113h-.113V407.463l-.114.226V408.708h.227l.113-.113.113-.227.113-.226.227-.226.113-.114.113-.113.113-.113.34-.453v-.226h-.453l.113-.34v-.113h.113l.34.227.679.226h.113l.34.113v.227l-.227.452-.226-.113h-.113l-.113.113-.114.113-.339.453-.34.34-.113.226-.226.226-.34.227-.226.226-.679.679z" class="Vector_140"/>
    <path fill="#F1EAB0" d="M340.734 411.538l-.114-.114h-.113l-.113-.113-.113-.113-.113-.113v-.113l-.113-.113-.114-.114V409.5l.227-.452.113-.113.113-.114.113-.113.34-.226.452-.113h.453l.34.113h.113l.113.113h.113l.227.113.226.227.226.226.114.113.113.226v.679l-.113.453-.114.34v.226h-.113l-1.811-.792-.226-.113V410.859l.113.226.113.113.227.113.339.113h.34l.226-.113.113-.113.34.113.226.113v.114l-.113.113-.113.113-.227.113-.339.113H341.639l-.34-.113-.339-.113-.226-.226zm.679-1.924l.452.113.453.226h.113l.113-.339v-.34l-.113-.113H341.865l-.113.113-.113.113-.113.227h-.113z" class="Vector_141"/>
    <path fill="#F1EAB0" d="M343.449 412.668l.113-.226v-.227h.114l.226.114h.113l.113-.114.113-.339v-.226l.679-1.585.114-.113v-.113l.226-.679.113-.113v-.34l-.113-.113h-.226l.113-.113.113-.34.453.226 1.132.453-.114.34-.113.226-.566 1.358-.566 1.358-.226.453v.226l.34.114-.114.226v.226l-.226-.113-.113-.113-1.019-.453-.452-.113-.227.113z" class="Vector_142"/>
    <path fill="#DADBBC" d="M203.564 374.529c0-.34 0-.453-.227-.679-.226-.114-.679-.227-1.245-.227-1.018 0-1.81-.113-2.263-.566-.453-.339-.566-1.018-.453-2.037.227-1.018.679-1.924 1.585-2.829.792-.906 1.924-1.471 3.169-1.811 1.245-.339 2.15-.226 2.829.226.679.453.905 1.245.679 2.264v.113l-3.056.792c.113-.452.113-.792 0-.905-.113-.226-.339-.226-.792-.113-.226.113-.566.226-.792.452-.227.227-.34.566-.453.793-.113.339 0 .566.226.679.227.113.68.226 1.359.226 1.131 0 1.924.113 2.376.453.453.339.566 1.018.34 2.037a5.316 5.316 0 01-1.698 2.829c-.905.793-1.924 1.472-3.282 1.811-1.245.34-2.15.227-2.829-.339-.679-.566-.793-1.358-.679-2.264v-.113l2.829-.792c-.113.566 0 .905.113 1.018.227.227.453.227 1.019.113.339-.113.679-.226.905-.452.113-.113.227-.34.34-.679z" class="Vector_143"/>
    <path fill="#DADBBC" d="M209.223 370.567c.339-1.811 1.018-3.282 2.037-4.527 1.018-1.245 2.263-2.037 3.734-2.49 1.472-.339 2.49-.113 3.056.679.679.793.792 2.151.453 3.735v.226c-.34 1.811-1.019 3.283-2.037 4.528-1.019 1.244-2.264 2.037-3.735 2.489-1.471.34-2.49.114-3.056-.679-.679-.792-.792-2.15-.452-3.734v-.227zm3.168-.679c-.226 1.019-.226 1.698-.113 2.15.113.453.453.566 1.019.453.566-.113.905-.566 1.245-1.132.339-.565.566-1.358.792-2.263v-.226c.226-.906.226-1.698.113-2.151-.113-.453-.453-.679-1.018-.453-.566.114-.906.566-1.359 1.132-.339.679-.565 1.358-.792 2.264l.113.226z" class="Vector_144"/>
    <path fill="#DADBBC" d="M220.653 367.399c.34-1.811 1.019-3.282 2.037-4.527 1.019-1.245 2.264-2.037 3.735-2.49 1.471-.34 2.49-.113 3.056.679.679.792.792 2.15.453 3.735v.226c-.34 1.811-1.019 3.282-2.038 4.527-1.018 1.245-2.263 2.037-3.734 2.49-1.472.339-2.49.113-3.056-.679-.679-.792-.792-2.15-.453-3.735v-.226zm3.169-.566c-.226 1.018-.226 1.697-.113 2.15.113.453.453.566 1.019.453.565-.113.905-.566 1.244-1.132.34-.566.566-1.358.793-2.263v-.227c.226-.905.226-1.697.113-2.15-.113-.453-.453-.679-1.019-.453-.566.113-.905.566-1.358 1.132-.339.679-.566 1.358-.792 2.263l.113.227z" class="Vector_145"/>
    <path fill="#DADBBC" d="M236.498 359.25a6.603 6.603 0 011.471-1.584c.566-.453 1.019-.679 1.585-.792.905-.227 1.471-.114 1.924.565.339.566.452 1.698 0 3.169l-1.585 7.017-3.169.906 1.585-7.017c.113-.679.113-1.132 0-1.358-.113-.227-.453-.227-.906-.114l-.679.34c-.226.113-.452.34-.566.566l-1.924 8.149-3.169.905 2.603-11.431 2.943-.792-.113 1.471z" class="Vector_146"/>
    <path stroke="#3F4F69" stroke-dasharray="1.13 1.13" stroke-miterlimit="10" stroke-width="1.132" d="M366.198 468.013h16.184a3.043 3.043 0 013.056 3.056v22.635a15.456 15.456 0 01-15.505 15.505h-20.485c-2.829 0-4.98-2.376-4.64-5.206l2.829-19.353c.906-9.394 8.941-16.637 18.561-16.637z" class="Vector_147"/>
    <path stroke="#3F4F69" stroke-dasharray="1.13 1.13" stroke-miterlimit="10" stroke-width="1.132" d="M66.846 468.013H50.662a3.043 3.043 0 00-3.056 3.056v22.635a15.456 15.456 0 0015.506 15.505H83.71c2.829 0 4.98-2.376 4.64-5.206l-2.83-19.353c-1.018-9.394-9.054-16.637-18.674-16.637z" class="Vector_148"/>
    <path fill="#F2825D" d="M293.538 309.001a2.264 2.264 0 10-.001-4.527 2.264 2.264 0 00.001 4.527z" class="Vector_149"/>
    <path fill="#A6635E" d="M293.908 307.797c.765-.272 1.217-.97 1.008-1.559-.209-.589-.999-.846-1.765-.575-.766.272-1.217.969-1.008 1.558.209.59.999.847 1.765.576z" class="Vector_150"/>
    <path fill="#F2825D" d="M293.538 369.889a2.264 2.264 0 10-.001-4.527 2.264 2.264 0 00.001 4.527z" class="Vector_151"/>
    <path fill="#A6635E" d="M293.942 368.676c.766-.271 1.217-.969 1.008-1.558-.209-.589-.999-.847-1.764-.575-.766.271-1.218.969-1.009 1.558.209.589.999.846 1.765.575z" class="Vector_152"/>
    <path fill="#F2825D" d="M293.538 430.665a2.263 2.263 0 100-4.526 2.263 2.263 0 000 4.526z" class="Vector_153"/>
    <path fill="#A6635E" d="M293.938 429.449c.766-.271 1.217-.969 1.008-1.558-.208-.589-.999-.846-1.764-.575-.766.272-1.218.969-1.009 1.558.209.589.999.847 1.765.575z" class="Vector_154"/>
    <path fill="#F2825D" d="M293.538 491.441a2.264 2.264 0 10-.001-4.527 2.264 2.264 0 00.001 4.527z" class="Vector_155"/>
    <path fill="#A6635E" d="M293.934 490.224c.766-.272 1.217-.969 1.009-1.558-.209-.59-.999-.847-1.765-.576-.766.272-1.218.97-1.009 1.559.209.589.999.846 1.765.575z" class="Vector_156"/>
    <path fill="#F2825D" d="M272.488 335.709a2.264 2.264 0 100-4.527 2.264 2.264 0 000 4.527z" class="Vector_157"/>
    <path fill="#A6635E" d="M272.864 334.489c.765-.271 1.217-.969 1.008-1.558-.209-.589-.999-.846-1.765-.575-.765.272-1.217.969-1.008 1.558.209.589.999.847 1.765.575z" class="Vector_158"/>
    <path fill="#F2825D" d="M314.702 335.709a2.264 2.264 0 100-4.527 2.264 2.264 0 000 4.527z" class="Vector_159"/>
    <path fill="#A6635E" d="M315.075 334.478c.765-.271 1.217-.969 1.008-1.558-.209-.589-.999-.847-1.765-.575-.766.271-1.217.969-1.008 1.558.209.589.999.847 1.765.575z" class="Vector_160"/>
    <path fill="#F2825D" d="M272.488 463.372a2.264 2.264 0 10-.001-4.529 2.264 2.264 0 00.001 4.529z" class="Vector_161"/>
    <path fill="#A6635E" d="M272.881 462.144c.766-.272 1.218-.969 1.009-1.558-.209-.59-.999-.847-1.765-.576-.766.272-1.217.97-1.009 1.559.209.589.999.846 1.765.575z" class="Vector_162"/>
    <path fill="#F2825D" d="M314.702 463.372a2.264 2.264 0 10-.001-4.529 2.264 2.264 0 00.001 4.529z" class="Vector_163"/>
    <path fill="#A6635E" d="M315.092 462.134c.766-.271 1.218-.969 1.009-1.558-.209-.589-.999-.847-1.765-.575-.766.271-1.217.969-1.009 1.558.209.589.999.846 1.765.575z" class="Vector_164"/>
    <circle cx="370.431" cy="68.655" r="55.441" fill="#FCFBDB" class="Ellipse" opacity=".8"/>
    <circle cx="370.431" cy="68.654" r="35.265" fill="#FEFDF6" class="Ellipse_2" opacity=".53"/>
    <path fill="#2F2F2F" d="M665.1 362.301h-32.173v12.168H665.1v-12.168z" class="Vector_165"/>
    <path fill="#A0E7DB" d="M453.078 194.878c3.813-10.204 38.255-22.23 48.459-18.416s-7.069 12.633-10.883 22.837l-37.576-4.421zm37.576 4.421l-16.142 43.186-33.252-9.2 11.818-38.407 37.576 4.421z" class="Vector_166"/>
    <path fill="#ADFBE8" d="M560.296 188.544c-41.188-26.119-56.867-18.974-76.649-12.948-28.421 12.948-20.078 11.102-18.577 34.563 2.474 38.683 8.042 61.766 2.895 81.068-13.507 9.455 27.241 16.448 57.773 14.483 23.426 0 23.568 10.102 23.568 10.102s28.693-108.76 10.99-127.268z" class="Vector_167"/>
    <g class="Vector 3 (Stroke)">
      <path fill="#FFB877" fill-rule="evenodd" d="M563.803 278.619l2.106-40.782h-28.928c-.441 10.219-.612 18.73 2.949 33.202-26.328 9.368-41.11 14.564-68.924 19.821-2.335.481-4.837-1.211-6.64-.72-4.461 1.215-6.57 5.179-5.38 10.958 0 0 2.254 2.846 10.368 1.174l3.498-.226c27.529-1.801 44.008-3.367 72.516-7.32 8.102-1.669 18.699-7.839 18.435-16.107z" clip-rule="evenodd"/>
      <path fill="#FFB877" d="M464.366 290.14c-4.461 1.215-6.57 5.179-5.38 10.958 0 0 2.254 2.846 10.368 1.174l3.498-.226c-6.413 3.978-15.211 2.179-18.214.226-3.003-1.952-7.807-1.127-12.012-.226-3.363.721-12.237-1.765-10.353-4.65 1.885-2.885 14.992-9.075 14.992-9.075 1.701-1.299 8.811-.435 17.101 1.819z"/>
    </g>
    <path fill="#FFB877" d="M523.88 173.264c-2.886-5.262-6.287-10.492-9.296-19.526-1.756-1.509-3.424-.355-6.31-3.754-3.387-5.12 2.799-9.682 3.207-12.184l-12.879 9.849c-3.45 2.864-9.71 9.159-7.151 11.425 2.56 2.266-2.744 21.279-3.97 24.871 0 0 7.179 5.01 12.504 5.834 10.635 1.643 28.895-7.399 23.895-16.515z" class="Vector_168"/>
    <path fill="#474747" d="M501.086 156.645s-6.897 2.667-9.252 3.686c.681 1.82-1.613 12.781-2.057 15.47 0 0 9.128-14.459 11.309-19.156z" class="Vector_169"/>
    <path stroke="#F2825D" stroke-linecap="round" stroke-width="3" d="M425.872 478.593l14.351 2.915" class="Vector 2.3"/>
    <path stroke="#F2825D" stroke-linecap="round" stroke-width="3" d="M434.93 474.676l10.587 2.459" class="Vector 2.4"/>
  </g>
</svg>
