<svg xmlns="http://www.w3.org/2000/svg" width="801" height="602" fill="none" viewBox="0 0 801 602">
  <g class="adventure_three">
    <path fill="#FFCADC" d="M1 1h800v600H1z"/>
    <path fill="#fff" d="M800.8.4H.8v600h800V.4z" class="Vector"/>
    <path fill="#FFCADC" d="M801 .4H1V283h800V.4z" class="Vector_2"/>
    <g class="Group 3">
      <g class="Group">
        <path fill="#FFECF2" fill-opacity=".4" d="M384.703 136.92c33.148 0 60.02-26.872 60.02-60.02s-26.872-60.02-60.02-60.02-60.02 26.872-60.02 60.02 26.872 60.02 60.02 60.02z" class="Vector_3"/>
      </g>
      <g class="Group_2" opacity=".73">
        <path fill="#FFF1F6" d="M384.703 122.356c25.105 0 45.456-20.351 45.456-45.456 0-25.104-20.351-45.456-45.456-45.456-25.105 0-45.456 20.352-45.456 45.456 0 25.105 20.351 45.456 45.456 45.456z" class="Vector_4" opacity=".93"/>
      </g>
    </g>
    <path fill="#FFE8F0" fill-opacity=".4" d="M684.6 133c-25-31.8-48.9-58-66-69.5-63.9-43.1-47.2 23.1-92.2 42-45.1 18.9-101.7 35.7-97.5 71.4 4.2 35.7-37.4 79.1-42.6 79.1-5.2 0-31.6-15.9-41.2-48.9-9.5-33-71.2-80.6-93.2-101.6S202.3 16 181.3 30.7c-21 14.7-54 90.5-76 86.3-22-4.2-41.6-4.3-57.3 36.6-15.7 41-47 67.6-47 67.6v128.4l173.6-67.3 188.8 55.4L801 319.2V117.1l-23.1 36.6c-14.6-10.1-48.5-31.5-66.8-36.6-7.6-2.1-17.1 5-26.5 15.9z" class="Vector_5" opacity=".91"/>
    <path fill="#FFEDF3" fill-opacity=".5" d="M197.103 94.538H69.081c-15.636.785-47.004 1.912-47.2 0-.245-2.352 37.79-9.753 37.79-9.753S48.053 63.12 81.725 58.318c8.871-1.275 23.036 10.047 24.556 14.459 1.127-2.843 3.774-12.744 19.164-14.46 15.341-1.715 18.87 17.547 18.085 23.625 2.059-1.127 8.088-3.725 15.881-5.44 7.793-1.716 11.91 7.057 13.037 11.616 1.716.637 6.813 1.519 13.283 0 6.469-1.52 10.292 3.675 11.371 6.42z" class="Vector_6" opacity=".9"/>
    <path fill="#FFEDF3" fill-opacity=".5" d="M597.583 101.378H716.39c14.504.707 43.622 1.739 43.785 0 .217-2.227-35.039-9.017-35.039-9.017s-4.563-22.762-35.8-27.217c-13.689-1.955-44.437 5.596-41.992 24.61-1.902-1.033-7.551-3.478-14.722-5.053-7.225-1.575-11.082 6.519-12.114 10.756-1.63.598-6.356 1.413-12.332 0-6.03-1.467-9.561 3.314-10.593 5.921z" class="Vector_7" opacity=".9"/>
    <g class="Group_3" opacity=".5">
      <path fill="#76C7F8" fill-rule="evenodd" d="M232.055 210.194c.216 1.812.415 3.508.625 4.818.737-3.212 1.345-6.371 1.875-9.133 1.036-5.402 1.777-9.285 2.64-9.079.598.108 1.224 2.052 1.828 4.848.062-.621.132-1.367.211-2.206v-.012c.717-7.57 2.157-22.707 3.766-22.63 1.512.072 2.296 6.672 2.953 12.193.256 2.148.49 4.134.742 5.507 2.259 2.928 3.016 5.471 3.297 7.776.815-3.377 1.557-6.177 1.805-6.177.5 0 2.703 11.8 3.703 17.7.395.263.541.969.781 2.142.057.279.115.584.188.916l.031-.442c.503-7.543 1.517-22.792 2.594-22.715 1.099.073 1.667 6.92 2.125 12.499v.012c.166 2.026.317 3.884.476 5.189 2.317 4.268 2.408 7.718 2.485 10.804.021.841.037 1.654.101 2.45 1.262-4.776 2.819-9.351 4.117-9.255.183.007.36.103.54.276.872-3.64 1.697-6.775 1.96-6.775.5 0 2.696 11.799 3.696 17.699.328.247.456.881.664 1.922.161.809.374 1.863.765 3.172.736-6.265 1.668-12.141 2.672-12.094 1.512.072 2.304 6.672 2.961 12.193v.031c.093.776.185 1.531.274 2.242.902-6.179 2.037-11.912 3.265-11.865 1.884.072 2.874 6.759 3.696 12.302l.007.002v.005c.203 1.363.394 2.657.586 3.766.771-7.972 2.072-20.144 3.516-20.075 1.06.05 1.76 3.308 2.312 7.153.786-2.145 1.931-4.331 2.844-6.004.41-3.894.874-6.783 1.344-6.75.282.019.524.484.742 1.258l.227-.996c1.193-5.231 3.186-13.961 3.625-13.961.5 0 2.703 11.799 3.703 17.699.387.215.515.875.734 2.001.177.908.413 2.121.891 3.649.682-5.267 1.503-9.691 2.375-9.65 1.491.071 2.277 6.499 2.93 11.973 1.096-4.254 2.353-7.508 3.671-7.473 2.519.068 3.925 5.972 5.102 11.282.735-7.753 2.131-22.056 3.695-21.982 1.136.054 1.868 3.793 2.438 7.99.145-.53.501-2.113.961-4.126 1.203-5.263 3.083-13.463 3.508-13.463.451 0 2.286 9.62 3.375 15.831.924.187 1.689 1.181 2.351 2.629.234-.411.494-.647.774-.661 1.138-.054 2.182 7.497 2.953 14.602.112.398.228.766.343 1.099l.032.022c1.345-6.669 3.093-13.273 4.968-13.223 1.206.033 2.153 1.404 2.946 3.407.143-.201.296-.402.453-.606.252-1.373.486-3.358.742-5.507.658-5.52 1.449-12.121 2.961-12.193 1.154-.055 2.219 7.709 2.992 14.899H359c.712-.034 1.388 2.911 1.984 6.861.115-.501.242-1.072.383-1.692l.008-.007c1.194-5.231 3.186-13.961 3.625-13.961.323 0 1.352 4.926 2.312 10.004.057.022.117.047.172.075.432-.767.964-1.559 1.618-2.379.252-1.373.486-3.357.742-5.505.657-5.521 1.441-12.123 2.953-12.195 1.609-.077 3.041 15.061 3.758 22.631.218 2.307.375 3.912.445 4.168.077.285.474.95 1.008 1.841l.187.312c.361-.959.613-1.587.703-1.752.152-.279.467-2.14.907-4.764 1.297-7.739 3.702-22.111 6.39-22.036 2.541.071 3.935 6.416 5.133 11.866.5 2.274.969 4.392 1.469 5.834 1.167.869 2.108 1.706 2.859 2.514-.233-5.405 2.446-18.714 2.446-18.714s3.575 8.008 5.382 12.367c.346-.727.678-1.399.969-1.989.542-1.098.95-1.916 1.047-2.279.113-.423.467-2.169.938-4.46 1.199-5.847 3.131-15.24 3.562-15.24.5 0 2.695 13.1 3.695 19.7.38.337.516 1.1.727 2.335.195 1.14.454 2.683 1.047 4.663.672-5.967 2.133-13.198 2.133-13.198s1.625 3.646 3.242 7.357c1.188-8.084 2.758-15.756 2.758-15.756s6.69 14.825 9.336 21.491c.146-.631.325-1.429.531-2.33 1.193-5.231 3.193-13.961 3.633-13.961.344 0 1.49 5.602 2.5 11.017 1.454-3.324 2.796-6.318 2.796-6.318s.039.178.102.502c.647-2.58 1.192-4.502 1.398-4.502.5 0 2.704 11.8 3.704 17.7.328.246.448.88.656 1.922.298 1.496.768 3.835 2.242 7.078.485 1.066.754 2.704.852 4.723 1.196-3.671 2.317-6.88 2.546-6.823.356 0 1.064 7.196 1.516 11.775v.01c.183 1.849.325 3.27.383 3.615.049.295.322.976.687 1.889v.002c.214.534.46 1.148.711 1.81.144.02.354.638.594 1.618 1.495-4.713 3.217-9.891 3.508-9.819.353 0 1.055 7.084 1.508 11.667.77-1.793 1.38-3.002 1.593-2.966.346.049 1.052 3.551 1.719 7.233 1.28-3.957 2.537-7.595 2.781-7.534.219 0 .57 2.713.914 5.867 1.758-4.692 3.852-9.84 4.29-9.767.454.065 1.532 6.105 2.32 10.668 1.564-4.974 3.56-11.046 3.875-10.967.356 0 1.071 7.206 1.523 11.785.174 1.755.305 3.125.368 3.554.286-.548.499-.858.609-.839.183.026.469 1.024.797 2.505.251-.665.677-1.861 1.187-3.284 1.556-4.34 3.873-10.791 4.219-10.721.299.074.71 5.789 1.023 10.801.952-1.636 2.081-3.194 2.899-4.322.548-.756.959-1.318 1.078-1.58.154-.338.692-1.85 1.383-3.778 1.555-4.341 3.872-10.791 4.219-10.722.4.1.996 10.3 1.296 15.4.191.267.218.781.266 1.586.078 1.307.205 3.382 1.133 6.414.592 1.936.206 5.791-.711 10.233.637-1.438 1.125-2.364 1.312-2.333.097.014.222.3.368.785.214-.307.364-.541.429-.685.154-.337.694-1.844 1.383-3.767l.008-.01v-.003c1.555-4.34 3.865-10.789 4.211-10.72.4.1.997 10.299 1.297 15.4l.008.001c.105.148.157.371.195.679a56.07 56.07 0 011.031-1.494c1.247-3.123 2.365-5.637 2.672-5.586.053.008.112.096.18.252l.172-.486.226-.637.008-.005v-.004c1.555-4.341 3.865-10.788 4.211-10.719.193.048.433 2.461.664 5.516 1.459-3.748 2.882-7.076 3.234-7.017.36.051 1.115 3.849 1.805 7.693.303-1.142.698-2.063 1.195-2.692 2.019-2.554 2.773-4.473 3.258-5.715.332-.85.539-1.383.945-1.586 1.7-4.9 5.4-14.6 6-14.5.418.06 1.37 5.182 2.133 9.556 1.328-3.659 2.708-7.307 2.969-7.255.267.067.618 4.632.914 9.179 1.481-4.151 4.306-11.374 4.781-11.279.492.082 1.859 8.022 2.446 11.436v.004c.128.749.221 1.279.257 1.46.05.222.365.779.797 1.538.477.836 1.091 1.917 1.641 3.063 1.532-4.122 3.656-9.382 4.062-9.301.235.039.665 1.866 1.118 4.137.14-.195.278-.381.406-.557.548-.755.959-1.319 1.078-1.581.153-.335.684-1.825 1.367-3.731v-.005l.008-.015.008-.019v-.011l.008-.006c1.555-4.34 3.857-10.782 4.203-10.713.4.1 1.004 10.301 1.304 15.401.22.256.262.738.305 1.487 1.501-3.99 3.414-8.663 3.797-8.587.482.081 1.802 7.721 2.406 11.235 1.456-1.88 2.07-3.337 2.485-4.321.322-.765.522-1.244.906-1.415 1.4-4 4.5-11.999 5-11.899.492.082 1.859 8.023 2.445 11.436V237.95c.128.744.222 1.27.258 1.449.049.222.365.78.797 1.539.239.42.513.901.797 1.421 1.536-4.281 3.582-9.924 3.906-9.859.282.07.663 5.146.969 9.924.351-.721.608-1.148.726-1.124.408.068 1.419 5.533 2.086 9.346l.071-.066c.051-.828.073-1.472.046-1.881-.228-2.896 2.971-7.3 4.727-9.72v-.008c.545-.751.952-1.311 1.07-1.572.153-.335.692-1.825 1.375-3.731v-.005l.008-.015v-.019l.008-.006v-.011c1.555-4.34 3.865-10.782 4.211-10.713.4.1.997 10.301 1.297 15.401.185.221.208.689.242 1.443.043.968.111 2.406.57 4.402.158-.61.443-1.905.813-3.577v-.002c1.431-6.471 4.102-18.566 5.375-18.266 1.199.211 1.207 5.649 1.211 10.308.001 1.945.005 3.754.093 4.991v.004c.22-.607.49-1.346.782-2.161l.008-.019v-.004c1.555-4.34 3.864-10.789 4.21-10.72.317.079.759 6.469 1.079 11.662.897-3.232 1.748-5.596 2.32-5.462 1.199.212 1.207 5.65 1.211 10.309V241.316c.001 1.78-.003 3.437.07 4.638.953-2.62 1.795-5.216 2.531-7.495v-.002c1.472-4.556 2.538-7.85 3.289-7.558.451.15.766 1.614.985 3.741.127-.566.274-1.232.437-1.972v-.007c1.432-6.472 4.102-18.561 5.375-18.262 1.2.212 1.207 5.65 1.211 10.309.002 1.945.006 3.754.094 4.991 1.806 3.055 2.085 5.511 2.008 7.674 1.126-3.059 2.167-5.719 2.39-5.674.4.1.997 10.3 1.297 15.4.185.222.209.69.243 1.444.01.244.019.517.039.823l.023-.112v-.004c1.208-6.367 3.601-18.979 4.594-18.75.829.207.661 5.385.508 9.949-.047 1.37-.095 2.685-.11 3.793 1.328-3.041 2.697-5.5 3.602-5.343 1.366.238 1.923 6.301 2.148 11.183 1.113-3.02 2.131-5.626 2.352-5.582.4.1 1.004 10.3 1.304 15.4.192.23.225.726.274 1.53.044.729.096 1.712.305 2.982 1.281-5.306 2.699-10.306 3.523-10.112.34.06.583.54.758 1.304 1.471-5.581 3.17-11.109 4.242-10.905 1.485.283 1.67 5.764 1.828 10.437.065 1.935.119 3.733.266 4.963.94 1.293 1.557 2.473 1.945 3.569 1.21-4.899 2.488-9.25 3.258-9.069.33.059.568.512.742 1.235.922-4.215 1.836-7.655 2.359-7.534.763.19.678 4.584.54 8.838.426-.613.836-1.176 1.187-1.659.549-.755.951-1.318 1.07-1.58.154-.338.7-1.849 1.391-3.776v-.005c1.555-4.34 3.865-10.788 4.211-10.719.167.042.37 1.843.57 4.299.574-2.213 1.085-3.678 1.43-3.599.829.208.653 5.385.5 9.95-.069 2.038-.133 3.954-.102 5.251l.024.057c1.297-5.396 2.741-10.555 3.578-10.358 1.199.211 1.207 5.649 1.211 10.308v.004c.001 1.595-.003 3.098.047 4.269.985-2.072 1.941-3.41 2.742-3.281 2.167.349 2.719 5.733 3.164 10.411l.055-.242c1.431-6.471 4.109-18.569 5.382-18.269.738.13 1.022 2.237 1.133 4.924 1.075-2.805 2.176-5.129 3.149-6.03 1.211-3.31 2.379-6.341 2.617-6.293.358.089.875 8.295 1.195 13.668.071.622.135 1.251.196 1.873.158.31.192.828.234 1.587.028.51.057 1.129.14 1.867.636-1.904 1.296-3.231 1.938-3.196.249.015.432.5.57 1.32 2.006-6.608 5.138-16.257 7.227-15.92 2.212.357 2.745 5.959 3.195 10.701v.006a164 164 0 00.227 2.276c.97-3.74 2.04-7.24 3.078-7.182.93.054.992 6.666.891 12.806a.496.496 0 01.109-.007c.127.008.24.138.336.371 1.975-6.609 5.07-16.309 7.164-15.971 1.898.306 2.525 4.476 2.93 8.649.994-3.875 2.1-7.608 3.171-7.549.996.059.998 7.626.868 14.089.205-.652.479-1.577.804-2.679v-.003c1.875-6.356 5.482-18.586 7.828-18.207 2.196.354 2.683 5.875 3.102 10.594v.002c.172 1.943.331 3.75.594 5.004.495.475.934.934 1.32 1.379.705-4.923 3.984-14.679 3.984-14.679s3.196 10.2 3.696 12.8c.043.043.091.085.133.127l.085.085c.097-.5.13-.975.086-1.412-.3-3.5 4.102-16.6 4.102-16.6s2.388 7.619 3.359 11.366c1.118-3.254 2.122-6.008 2.336-5.965.233.058.505 3.901.727 8.21 1.183-5.073 3.375-11.611 3.375-11.611s2.747 8.765 3.547 12.116c1.962-7.911 4.953-16.915 4.953-16.915s5.201 16.599 6.101 20.899c4.477 4.292 4.252 7.306 4.055 9.964l.844 4.836s-237.314-7.316-389.367-5.067C288.936 272.066 117.364 316.894.898 285.899L.5 251.3H.398v-9.901S5.097 223.7 5.797 223.7c.565 0 2.589 6.432 4.14 11.562 1.383-5.519 2.969-11.362 3.461-11.362.09 0 .213.161.368.452 1.375-5.486 2.94-11.253 3.43-11.253.691 0 3.571 9.628 5.093 14.72l.414 1.39c1.367-5.443 2.906-11.11 3.39-11.11.44 0 1.767 3.893 3.063 8.038 1.04-5.626 2.281-11.737 2.64-11.737.44 0 2.432 8.731 3.626 13.962v.002c.437 1.915.768 3.36.875 3.735.094.307.48 1.003 1 1.945.353.64.765 1.396 1.195 2.218.128.177.287.492.469.916.141.282.283.569.422.861 1.054-5.732 2.342-12.139 2.71-12.139.413 0 2.203 7.712 3.407 12.983.586-1.97 1.063-3.284 1.297-3.284.449 0 1.819 4.052 3.14 8.289.915-4.777 1.851-9.188 2.157-9.188.252 0 1.02 2.894 1.851 6.348 1.404-5.629 3.05-11.748 3.555-11.748.59 0 2.77 7.02 4.344 12.242 1.088-6.016 2.556-13.443 2.953-13.443.439 0 2.431 8.731 3.625 13.961v.002c.321 1.408.582 2.561.742 3.223.182-.44.329-.686.43-.686.223 0 .681 1.007 1.242 2.54.16-.679.375-1.644.633-2.772v-.004c1.193-5.231 3.186-13.963 3.625-13.963.375 0 1.709 6.644 2.773 12.454.871-2.036 1.957-4 2.735-5.411.519-.942.897-1.638.992-1.944.107-.376.438-1.821.875-3.737 1.194-5.231 3.186-13.962 3.625-13.962.5 0 2.703 11.799 3.703 17.699.4.222.543.918.789 2.114.308 1.496.776 3.774 2.11 6.886.985 2.169 1.085 6.704.648 12.001.519-1.699.942-2.8 1.156-2.8.123 0 .313.306.555.838.174-.332.296-.585.343-.739.108-.376.438-1.822.875-3.738 1.194-5.231 3.186-13.962 3.625-13.962.5 0 2.696 11.8 3.696 17.7.151.094.266.275.359.543.4-.797.798-1.547 1.164-2.218.965-3.587 1.837-6.424 2.18-6.424.036 0 .077.026.125.076l.047-.215c1.193-5.231 3.186-13.962 3.625-13.962.245 0 .897 2.83 1.617 6.412 1.187-4.59 2.375-8.711 2.789-8.711.465 0 1.91 4.345 3.273 8.742.18-1.48.514-2.693 1.024-3.543 2.035-3.393 2.628-5.795 2.992-7.279.226-.923.366-1.491.711-1.721 1.4-5.9 4.3-17.699 5-17.699.535 0 2.379 5.761 3.891 10.727 1.026-4.39 2.097-8.727 2.406-8.727.326 0 1.369 5.004 2.336 10.125 1.255-5.104 3.398-13.625 3.961-13.625.536 0 2.955 7.934 4.234 12.132v.002l.008.003v.014c.387 1.269.665 2.193.758 2.448.101.278.579.918 1.218 1.778.667.896 1.515 2.03 2.297 3.242 1.252-5.012 2.907-11.32 3.391-11.32.277 0 1.05 2.116 1.914 4.741.133-.243.263-.475.383-.693v-.004l.008-.001c.519-.941.898-1.637.992-1.943.107-.375.438-1.821.875-3.737 1.194-5.231 3.186-13.962 3.625-13.962.5 0 2.703 11.799 3.703 17.699.293.22.421.735.594 1.573 1.224-4.869 2.743-10.572 3.203-10.572.536 0 2.955 7.931 4.234 12.131l.188.61c1.545-2.576 2.025-4.43 2.336-5.625.204-.785.332-1.285.64-1.516 1.2-4.9 3.603-14.6 4.203-14.6.537 0 2.956 7.934 4.235 12.133.389 1.278.672 2.21.765 2.467.101.277.58.917 1.219 1.777.34.457.725.976 1.125 1.535 1.189-5.182 2.771-11.912 3.156-11.912.35 0 1.528 5.753 2.547 11.233.288-.832.512-1.334.649-1.334.476 0 2.444 6.262 3.773 10.604l.047-.063c-.06-.951-.127-1.684-.219-2.141-.688-3.363 2.419-9.003 4.102-12.056l.008-.001c.519-.941.898-1.637.992-1.943.117-.38.496-2.047.992-4.218l.008-.008V204.764c1.203-5.263 3.076-13.464 3.5-13.464.5 0 2.703 11.799 3.703 17.699.33.248.454.871.664 1.912.224 1.109.54 2.693 1.305 4.802.082-.683.207-1.993.367-3.679v-.003c.717-7.57 2.148-22.708 3.758-22.632 1.511.072 2.303 6.673 2.961 12.194.221 1.856.425 3.594.64 4.917.12-.519.249-1.097.391-1.716l.008-.013V204.764c1.203-5.263 3.075-13.464 3.5-13.464.402 0 1.907 7.627 3 13.683.601-4.011 1.28-7.017 2-6.983 1.511.072 2.303 6.674 2.961 12.194z" class="Union" clip-rule="evenodd"/>
    </g>
    <path fill="#FFEDF3" fill-opacity=".5" d="M272.572 171.303h71.775c8.77.451 26.375 1.031 26.439 0 .129-1.355-21.216-5.482-21.216-5.482s-2.773-13.736-21.668-16.444c-8.254-1.161-26.891 3.353-25.343 14.896-1.161-.644-4.579-2.128-8.899-3.03-4.386-.968-6.707 3.933-7.287 6.513-.968.387-3.805.838-7.416 0-3.612-.903-5.74 1.999-6.385 3.547z" class="Vector_8"/>
    <g class="Group_4">
      <path fill="#000" d="M588.6 348.1l5.7-.7.4 2.2-6.1-1.5z" class="Vector_9"/>
    </g>
    <path fill="#FFDDE9" fill-rule="evenodd" d="M.657 257.663c6.7-5.5 25.643-14.8 47.243-8.2 27 8.3 41.6 8.3 57.9 8.2 5.779 0 12.439-5.686 20.436-12.513 14.698-12.549 33.911-28.953 60.464-20.987 25.107 7.575 50.812 16.867 70.228 23.885 12.369 4.471 22.186 8.02 27.672 9.615 5.442 1.583 37.59-5.742 76.738-14.662 62.29-14.192 142.302-32.422 160.662-25.238 29.9 11.7 62.1 23.5 89.1 31.7 27 8.2 100.2 5.9 118.4 0 8.854-2.886 16.793-4.891 24.972-6.956 8.541-2.158 17.345-4.381 27.728-7.744 2.636-.853 5.111-2.615 7.446-4.277 4.201-2.991 11.354-2.123 11.354-2.123l-.2 373.037H.8V315.924H.657v-58.261z" class="Union_2" clip-rule="evenodd"/>
    <path fill="#9D4B98" fill-opacity=".1" d="M460.8 497.2c0 3.7-10.184 12.159-32.184 12.159s-29.274-5.98-29.274-9.58c0-3.7 29.058-11.079 51.058-11.079s10.4 4.9 10.4 8.5z" class="Vector_10"/>
    <path fill="#FF92B8" fill-rule="evenodd" d="M456.764 484.798c2.409 1.1 3.543 7.448 2.148 9.348-2.148 2.4-8.98 7.535-16.309 9.5-6.34 1.7-13.347 3.6-18.927 4.2-9.511 1-15.091-1-18.642-2.7-2.409-1.1-2.156-6.7-.634-8.6 1.395-1.9 3.424.6 5.833 1.7 1.649.8 6.214 2.2 13.443 1.5 4.946-.5 11.413-1.6 16.993-3.2 2.79-.8 5.2-1.6 7.102-2.4 2.029-.9 2.79-1.6 2.917-1.8 1.268-2.1 3.666-8.748 6.076-7.548z" class="Vector_11" clip-rule="evenodd"/>
    <path fill="#9D4B98" fill-opacity=".1" d="M508.4 512.3c-22 0-39.8-3-39.8-6.6 0-3.7 17.8-13.9 39.8-13.9 15.6-.1 15.5 20.5 0 20.5z" class="Vector_12"/>
    <path fill="#9D4B98" fill-opacity=".1" d="M261.3 441.2c1.2-1.1 3-1.8 4.8-1.8h423.6c5.8 0 8.8 6 4.8 9.6l-27.9 25.8c-1.2 1.2-3 1.8-4.8 1.8H238.2c-5.8 0-8.8-6-4.8-9.6l27.9-25.8z" class="Vector_13"/>
    <path fill="#7672B3" d="M315.902 346h-32.2v108h32.2V346z" class="Vector_14"/>
    <path fill="#7672B3" d="M293.402 358.7h-32.2v108h32.2v-108z" class="Vector_15"/>
    <path fill="#B3DFFB" d="M691.3 327l-26.4 20.1L251.223 362v-14.9L277.9 327h413.4z" class="Vector_16"/>
    <path fill="#B3DFFB" d="M664.9 347.1l26.4-20.1v15.6l-26.4 20.1v-15.6z" class="Vector_17"/>
    <path fill="#B3DFFB" d="M664.9 347.1H251.5v15.6h413.4v-15.6z" class="Vector_18"/>
    <path fill="#7672B3" fill-rule="evenodd" d="M675.1 340l-411.4-2.2 1.9-1.5 411 2.2v15.3l-1.5 1.1V340z" class="Vector_19" clip-rule="evenodd"/>
    <path fill="#7672B3" fill-rule="evenodd" d="M686 331.1l-410.6-2.2 1.9-1.5 410.2 2.2v15.887l-1.5 1.181V331.1z" class="Vector_20" clip-rule="evenodd"/>
    <path fill="#FF92B8" fill-rule="evenodd" d="M511.2 471c1.9 1.1 3.2 11 2 15.9-2 8.4-.5 14.9-6.3 22.2-2.6 3.3-5.8 2.9-9.7 2.9-6.4 0-13-2.5-15.8-4.2-1.9-1.1-2.6-6.7-1.5-8.6 1.1-1.9 3.7.6 5.6 1.7 1.3.8 4.9 2.2 10.6 1.5 25.4-3.3 6-11.5 12.6-22.6 1.1-1.9.6-10 2.5-8.8z" class="Vector_21" clip-rule="evenodd"/>
    <path stroke="#F2A35E" stroke-linecap="round" stroke-width="12.2" d="M434.7 440.4l11.6 30.5" class="Vector_22"/>
    <path stroke="#F2A35E" stroke-linecap="round" stroke-width="10.2" d="M511.5 444.2l-6.8 30.6" class="Vector_23"/>
    <path fill="#36A1E4" d="M452.9 195.299c3.8-10.2 38.3-22.299 48.5-18.499 10.2 3.8-7.553 13.914-11.353 24.114l-37.147-5.615zm37.6 4.401l-16.1 43.2-33.3-9.2 11.8-38.401 37.6 4.401z" class="Vector_24"/>
    <path fill="#D68C56" fill-rule="evenodd" d="M472.441 242.359l-26.596-7.348c-.425 3.118-.783 6.25-1.151 9.469-.884 7.732-1.826 15.965-3.894 25.72L403.2 315l13.5 6.2 42.8-35 12.941-43.841z" class="Subtract" clip-rule="evenodd"/>
    <path fill="#F2A35E" d="M515.9 106.6l-46 4.7s.3 29.1 1.4 50.8c22.6 7.7 48.9-22 48.9-22l-4.3-33.5z" class="Vector_25"/>
    <path fill="#534A5C" fill-rule="evenodd" d="M664.796 436.034c-.738.424-1.2.724-1.2.724s.56-16.08-4.16-18.159c-4.72-2.08-9.12 0-9.12 0s-2.8-12.88-6.32-11.84c-2.509.741-3.514 4.045-4.928 8.692-.569 1.871-1.205 3.96-2.031 6.187-.827 2.149-2.762 1.715-4.441.794v45.377h32.2v-31.775z" class="Intersect" clip-rule="evenodd" opacity=".4"/>
    <path fill="#68C1F8" d="M496.4 186.7c15.3 3.4 21.126-3.089 25.826-14.989 4.9 3.2 24.474 15.389 22.374 20.689l-34.4 13.2c-7 .2-21.5.4-23.6 0-2.1-.4-8.3-11.1-11.1-16.5l11.1-9.8c.1-.1-5.5 3.9 9.8 7.4z" class="Vector_26"/>
    <path fill="#4A1242" fill-rule="evenodd" d="M487.2 117.7l11.4-1.5c2.3 2.6.7 9.7-1.2 14.5l8.2 1c1-5.1 5.7-10 9.7-5.4 2.53 2.909-.621 7.46-3.734 11.955-1.809 2.611-3.605 5.203-4.266 7.445-1.8 6.1 5.2 7.9 8.3 8.5 3.1.6 19.2 3 18.2-6.5-.9-9.5-2.1-26.6-.4-39 1.395-9.866-9.722-10.695-11.68-6.049 3.459-8.458-1.942-36.154-13.32-37.751-3.9-.6-7.8 3.8-10.7 9.2-9.2-7.2-19.4-10.4-27.9.3-1.1 1.4-1.9 3.3-2.4 5.4-1.8-.2-3.5.3-5.2 1.8-7.4 6.9 3 26.1 8 33.9-.1 0 6.5 3.1 17 2.2zm22.672 232.641a24.414 24.414 0 01-4.411-7.436c-2.27.145-4.392.237-6.296.296-3.844.121-7.173.117-9.561.083a169.54 169.54 0 01-3.479-.083h-15.103l-26.337 4.158 11.428 83.978c1.526 11.218-6.33 21.55-17.549 23.077-11.218 1.526-21.55-6.331-23.077-17.549l-15.2-111.7c-1.526-11.218 6.331-21.55 17.549-23.077a20.62 20.62 0 012.173-.18 24.574 24.574 0 013.47-.807l41.8-6.6 1.899-.3h19.973l.525.024H487.685l.08.003.48.016c.45.014 1.151.033 2.051.045 1.812.026 4.383.029 7.339-.064 6.261-.195 12.858-.784 17.579-1.931l.488-.119.493-.098c11.661-2.332 21.766 3.584 26.804 11.678l.019-.003c4.803 5.061 12.627 23.446 11.285 33.181a20.613 20.613 0 01-.467 4.106l-22.3 103c-2.396 11.065-13.308 18.093-24.374 15.697-11.065-2.395-18.093-13.308-15.698-24.373l18.408-85.022zM451.5 466.7l-12.9 1.4c-.817 1.328-.251 2.5.271 3.582.5 1.035.961 1.989.129 2.918-1.338 1.605-3.582 3.598-6.239 4.623-7.416-1.716-21.146 1.616-25.034 5.335-5.3 5-7.449 18.613 2.051 20.313 16.92 2.955 34.562-5.155 42.622-9.593 1.592-.771 3.02-1.578 4.051-2.385.295-.189.449-.292.449-.292l-.062-.029c.72-.631 1.178-1.26 1.262-1.872.5-2.9-5-24.1-6.6-24zm60 1.001c-4.5 2.4-6.7 1.6-10.2-2.5 0 0-2.8 3.6-3.7 5.6-1.1 2.6-3.1 6.8-4.4 8.6-2.263 3.394-4.355 5.736-6.25 7.856-3.129 3.503-5.719 6.402-7.65 12.444 0 6 8.4 9 15.5 9.5 5 .3 11.1 0 12.4-3.5 9.8-26.4 4.3-38 4.3-38zm-40.688-338.359a.667.667 0 01.546.77 10.057 10.057 0 01-.703 2.35l.157-3.12zm-.596 11.826l.439-8.706-.054.121.211-3.241a.667.667 0 00-.77.546c-.417 2.455-1.807 4.236-3.093 5.62-.225.242-.457.482-.682.714-.387.401-.751.778-1.018 1.102-.218.265-.423.553-.545.854-.128.316-.183.698-.017 1.085.227.531.731.971 1.218 1.312.511.358 1.116.682 1.683.952a22.478 22.478 0 002.007.838l.094.033.044.016.037.013.01.003.003.001.001.001.216-.632-.216.632a.668.668 0 00.432-1.264zm-.171-.06l.556-8.525c-.722 1.6-1.761 2.851-2.674 3.834-.277.297-.531.559-.761.797-.352.363-.648.669-.887.959-.189.23-.292.393-.337.506a.5.5 0 00-.022.071c.078.169.311.424.75.731.427.299.959.587 1.493.842a21.122 21.122 0 001.882.785zm0 0l.005.001.125.045.032.011.007.003h.002l-.216.632.045-.692zm-4.126-2.347v-.006.006zm4.949 11.972c3.861-.184 5.439-2.832 5.682-3.883l1.301.3c-.358 1.549-2.379 4.701-6.919 4.917l-.064-1.334z" class="Primary" clip-rule="evenodd"/>
    <path fill="#68C1F8" d="M532.8 197.6c0-10-10-21.4 0-21.4s36.3 11.3 36.3 21.4h-36.3zm36.3 0v40.5h-36.3v-40.5h36.3z" class="Vector_27"/>
    <path stroke="#FF92B8" stroke-linecap="round" stroke-width="3" d="M492.7 484.2l14.4 2.9" class="Vector_28"/>
    <path stroke="#FF92B8" stroke-linecap="round" stroke-width="3" d="M497.4 476.5L508 479" class="Vector_29"/>
    <path fill="#8D2E88" d="M278.366 333.6h-32.2v108h32.2v-108z" class="Vector_30"/>
    <path fill="#8D2E88" d="M251.966 346.3h-32.2v108h32.2v-108z" class="Vector_31"/>
    <path fill="#B3DFFB" d="M246.166 314.6v15.6l-6 4.5-.5.5-19.9 15.1v-15.6l19.6-14.9 6.8-5.2z" class="Vector_32"/>
    <path fill="#9D4B98" fill-opacity=".1" d="M54.865 513.1c1-.8 2.3-1.3 3.8-1.3h332.6c4.5 0 6.9 4.4 3.8 7l-21.9 18.9c-1 .8-2.3 1.3-3.8 1.3h-332.7c-4.5 0-6.9-4.4-3.8-7l22-18.9z" class="Vector_33"/>
    <path fill="#FBA9C5" d="M87.766 293.8h-10.1c-.8 0-1.4-.6-1.4-1.4V287c0-.8.6-1.4 1.4-1.4h10.1c.8 0 1.4.6 1.4 1.4v5.4c-.1.9-.7 1.4-1.4 1.4z" class="Vector_34"/>
    <path fill="#FBA9C5" d="M340.366 293.8h10.1c.8 0 1.4-.6 1.4-1.4V287c0-.8-.6-1.4-1.4-1.4h-10.1c-.8 0-1.4.6-1.4 1.4v5.4c0 .9.6 1.4 1.4 1.4z" class="Vector_35"/>
    <path stroke="#D9437A" stroke-miterlimit="10" stroke-width="2.881" d="M181.766 287.699l11.5-22" class="Vector_36"/>
    <path stroke="#D9437A" stroke-miterlimit="10" stroke-width="2.881" d="M256.466 265.8l-11.5 22" class="Vector_37"/>
    <path fill="#383838" d="M64.666 514.1h6.3c1.3 0 2.3 1 2.3 2.3v9c0 1.3-1 2.3-2.3 2.3h-6.3c-1.3 0-2.3-1-2.3-2.3v-9c.1-1.3 1.1-2.3 2.3-2.3z" class="Vector_38"/>
    <path fill="#383838" d="M357.066 514.1h6.3c1.3 0 2.3 1 2.3 2.3v9c0 1.3-1 2.3-2.3 2.3h-6.3c-1.3 0-2.3-1-2.3-2.3v-9c0-1.3 1-2.3 2.3-2.3z" class="Vector_39"/>
    <path fill="#FBA9C5" d="M92.966 296.899h-20.4c-.6 0-.9-.5-.9-.9v-6.4c0-.6.5-.9.9-.9h20.4c.6 0 .9.5.9.9v6.3c0 .5-.5 1-.9 1z" class="Vector_40"/>
    <path fill="#FBA9C5" d="M113.866 287.799v4.2c0 .2-.6.3-1.5.5-1.6.1-4.1.2-7 .2h-3.6c-2.5 0-4.6 0-6-.2-1.1-.1-1.8-.2-1.8-.5v-4.2c0-.2.8-.5 2-.6 1.6-.2 4.1-.3 6.8-.3h2.8c3.7.1 6.8.3 8 .7.2 0 .3.1.3.2z" class="Vector_41"/>
    <path fill="#FFCADC" d="M121.066 292.2v4.2c0 .2-.9.3-2.6.5-2.6.1-7 .2-12.1.2h-6.1c-4.3 0-7.9 0-10.3-.2-2-.1-3.2-.2-3.2-.5v-4.2c0-.2 1.2-.5 3.4-.6 2.7-.2 6.9-.3 11.7-.3h4.7c6.5.1 11.7.3 13.7.7.5 0 .8.1.8.2z" class="Vector_42"/>
    <path fill="#383838" d="M187.865 292.2v4.2c0 .2-.9.3-2.6.5-2.6.1-7 .2-12.1.2h-6.1c-4.3 0-7.9 0-10.3-.2-2-.1-3.2-.2-3.2-.5v-4.2c0-.2 1.2-.5 3.4-.6 2.7-.2 6.9-.3 11.7-.3h4.7c6.5.1 11.7.3 13.7.7.6 0 .8.1.8.2z" class="Vector_43"/>
    <path fill="#383838" d="M182.766 295.3h-1.5c-1.4 0-2.4-1-2.4-2.4v-6.5c0-1.4 1-2.4 2.4-2.4h1.5c1.4 0 2.4 1 2.4 2.4v6.5c0 1.4-1 2.4-2.4 2.4z" class="Vector_44"/>
    <path fill="#383838" d="M240.066 292.2v4.2c0 .2.9.3 2.6.5 2.6.1 7 .2 12.1.2h6.1c4.3 0 7.9 0 10.3-.2 2-.1 3.2-.2 3.2-.5v-4.2c0-.2-1.2-.5-3.4-.6-2.7-.2-6.9-.3-11.7-.3h-4.7c-6.5.1-11.7.3-13.7.7-.4 0-.8.1-.8.2z" class="Vector_45"/>
    <path fill="#383838" d="M245.166 295.3h1.5c1.4 0 2.4-1 2.4-2.4v-6.5c0-1.4-1-2.4-2.4-2.4h-1.5c-1.4 0-2.4 1-2.4 2.4v6.5c0 1.4 1.2 2.4 2.4 2.4z" class="Vector_46"/>
    <path stroke="#FF92B8" stroke-linecap="round" stroke-miterlimit="10" stroke-width="11.318" d="M192.166 265.8h63.2" class="Vector_47"/>
    <path fill="#FBA9C5" d="M335.166 296.899h20.4c.6 0 .9-.5.9-.9v-6.4c0-.6-.5-.9-.9-.9h-20.4c-.6 0-.9.5-.9.9v6.3c0 .5.3 1 .9 1z" class="Vector_48"/>
    <path fill="#FBA9C5" d="M314.066 287.799v4.2c0 .2.6.3 1.5.5 1.6.1 4.1.2 7 .2h3.6c2.5 0 4.6 0 6-.2 1.1-.1 1.8-.2 1.8-.5v-4.2c0-.2-.8-.5-2-.6-1.6-.2-4.1-.3-6.8-.3h-2.8c-3.7.1-6.8.3-8 .7-.2 0-.3.1-.3.2z" class="Vector_49"/>
    <path fill="#FFCADC" d="M306.966 292.2v4.2c0 .2.9.3 2.6.5 2.6.1 7 .2 12.1.2h6.1c4.3 0 7.9 0 10.3-.2 2-.1 3.2-.2 3.2-.5v-4.2c0-.2-1.2-.5-3.4-.6-2.7-.2-6.9-.3-11.7-.3h-4.7c-6.5.1-11.7.3-13.7.7-.6.1-.8.1-.8.2z" class="Vector_50"/>
    <path fill="#FBA9C5" d="M105.466 297.1h-4.1c-.6-1.1.1-2 .5-4 .1-.8.3-1.4.8-1.8h2.9c-.1.8-.1 2.3-.3 3.3-.2.8-.4 1.8.2 2.5z" class="Vector_51"/>
    <path fill="#FBA9C5" d="M121.065 292.2v4.2c0 .2-.9.3-2.6.5-.2-1.1 1.4-2 1.7-3.8.1-.5.1-.8.1-1.1.5 0 .8.1.8.2z" class="Vector_52"/>
    <path fill="#FBA9C5" d="M89.866 296.9c-2-.1-3.2-.2-3.2-.5v-4.2c0-.2 1.2-.5 3.4-.6-.3.8-1 2-1.1 2.9-.2.8.4 1.7.9 2.4z" class="Vector_53"/>
    <path fill="#FBA9C5" d="M322.566 297.1h4.1c.6-1.1-.1-2-.5-4-.1-.8-.3-1.4-.8-1.8h-2.9c.1.8.1 2.3.3 3.3.2.8.4 1.8-.2 2.5z" class="Vector_54"/>
    <path fill="#FBA9C5" d="M306.966 292.2v4.2c0 .2.9.3 2.6.5.2-1.1-1.4-2-1.7-3.8-.1-.5-.1-.7-.1-1-.7 0-.8 0-.8.1z" class="Vector_55"/>
    <path fill="#FBA9C5" d="M338.066 296.9c2-.1 3.2-.2 3.2-.5v-4.2c0-.2-1.2-.5-3.4-.6.3.8 1 2 1.1 2.9.3.8-.3 1.7-.9 2.4z" class="Vector_56"/>
    <path fill="#CFE2F6" d="M138.566 292.7h-3.2c-1 0-1.9-.8-1.9-1.9v-3.3c0-1 .8-1.9 1.9-1.9h3.2c1 0 1.9.8 1.9 1.9v3.3c0 1.1-.8 1.9-1.9 1.9z" class="Vector_57"/>
    <path fill="#CFE2F6" d="M149.266 295.9h-24.9c-.7 0-1.2-.6-1.2-1.2v-3.6h27.5v3.6c0 .6-.6 1.2-1.4 1.2z" class="Vector_58"/>
    <path fill="#383838" d="M150.766 291h-27.6v-1.2c0-1.2.9-2 1.9-2h23.6c1.1 0 1.9.9 1.9 2v1.2h.2z" class="Vector_59"/>
    <path fill="#CFE2F6" d="M292.666 292.9h-3.2c-1 0-1.9-.8-1.9-1.9v-3.3c0-1 .8-1.9 1.9-1.9h3.2c1 0 1.9.8 1.9 1.9v3.3c0 1.1-.9 1.9-1.9 1.9z" class="Vector_60"/>
    <path fill="#CFE2F6" d="M303.566 295.999h-24.9c-.7 0-1.2-.6-1.2-1.2v-3.6h27.5v3.6c-.2.6-.7 1.2-1.4 1.2z" class="Vector_61"/>
    <path fill="#383838" d="M305.066 291.099h-27.6v-1.2c0-1.2.9-2 1.9-2h23.6c1.1 0 1.9.9 1.9 2v1.2h.2z" class="Vector_62"/>
    <path fill="#7672B3" fill-rule="evenodd" d="M72.466 520.999h283.1c15.2 0 27.7-12.4 27.6-27.6v-169.9c0-15.3-12.3-27.6-27.6-27.6h-283.1c-15.3 0-27.6 12.3-27.6 27.6v169.9c0 15.3 12.3 27.6 27.6 27.6zM687.4 344.875L664.704 362.7H632.7v104h32.2V454h22.5V344.875z" class="Secondary" clip-rule="evenodd"/>
    <path fill="#3A3856" d="M346.866 521.999c-1.9 0-3.8-.8-5.2-2.3-1.4-1.5-1.9-3.4-1.7-5.3l2.8-19.4c1.1-10.6 10.1-18.8 20.9-18.8h16.2c2.9 0 5.3 2.4 5.3 5.3v22.5c0 9.8-8 17.8-17.8 17.8l-20.5.2z" class="Vector_63"/>
    <path fill="#3A3855" d="M81.166 521.999c1.9 0 3.8-.8 5.2-2.3 1.4-1.5 1.9-3.4 1.7-5.3l-2.8-19.4c-1.1-10.6-10.1-18.8-20.9-18.8h-16.2c-2.9 0-5.3 2.4-5.3 5.3v22.5c0 9.8 8 17.8 17.8 17.8l20.5.2z" class="Vector_64"/>
    <path fill="#fff" d="M62.166 510.2c-5.5-7.8-6.2-21.2-6.2-21.2s-7.7 1.7-13.1 2.8v11.3c0 9.8 8 17.8 17.8 17.8h9.7c.6-.3 1-.6 1.4-.8 3.2-2.2-4.1-2.1-9.6-9.9z" class="Vector_65" opacity=".1"/>
    <path fill="#fff" d="M365.766 510.7c5.5-7.8 6.2-21.2 6.2-21.2s7.7 1.7 13.1 2.8v11.3c0 9.8-8 17.8-17.8 17.8h-9.7c-.6-.3-1-.6-1.4-.8-3.1-2.2 4.1-2.1 9.6-9.9z" class="Vector_66" opacity=".1"/>
    <path fill="#3A3855" d="M88.066 302.4l-2.8 19.4c-1.1 10.6-10.1 18.8-21 18.8h-16.1c-2.9 0-5.3-2.4-5.3-5.3v-22.7c0-9.8 8-17.8 17.8-17.8h20.5c1.9 0 3.8.8 5.2 2.3 1.3 1.5 1.9 3.4 1.7 5.3z" class="Vector_67"/>
    <path fill="#fff" d="M62.166 305.7c-5.5 7.8-6.2 21.2-6.2 21.2s-7.7-1.7-13.1-2.8v-11.3c0-9.8 8-17.8 17.8-17.8h9.7c.6.3 1 .6 1.4.8 3.2 2.2-4.1 2.1-9.6 9.9z" class="Vector_68" opacity=".1"/>
    <path stroke="#9FD7FA" stroke-dasharray="1.13 1.13" stroke-miterlimit="10" stroke-width="1.132" d="M64.265 338.4h-16.1c-1.7 0-3.1-1.4-3.1-3.1v-22.7c0-8.6 6.9-15.5 15.5-15.5h20.6c2.8 0 5 2.4 4.6 5.2l-2.8 19.4c-1 9.4-9 16.7-18.7 16.7z" class="Vector_69"/>
    <path fill="#3A3856" d="M339.966 302.4l2.8 19.4c1.1 10.6 10.1 18.8 20.9 18.8h16.2c2.9 0 5.3-2.4 5.3-5.3v-22.7c0-9.8-8-17.8-17.8-17.8h-20.6c-1.9 0-3.8.8-5.2 2.3-1.2 1.5-1.8 3.4-1.6 5.3z" class="Vector_70"/>
    <path fill="#fff" d="M365.866 305.7c5.5 7.8 6.2 21.2 6.2 21.2s7.7-1.7 13.1-2.8v-11.3c0-9.8-8-17.8-17.8-17.8h-9.7c-.6.3-1 .6-1.4.8-3.2 2.2 4 2.1 9.6 9.9z" class="Vector_71" opacity=".1"/>
    <path stroke="#9FD7FA" stroke-dasharray="1.13 1.13" stroke-miterlimit="10" stroke-width="1.132" d="M363.665 338.4h16.2c1.7 0 3.1-1.4 3.1-3.1v-22.7c0-8.6-6.9-15.5-15.5-15.5h-20.5c-2.8 0-5 2.4-4.6 5.2l2.8 19.4c.8 9.4 8.9 16.7 18.5 16.7z" class="Vector_72"/>
    <path fill="#3A3856" d="M147.166 292h-20.5v232.8h20.5V292z" class="Vector_73"/>
    <path stroke="#9FD7FA" stroke-dasharray="1.13 1.13" stroke-miterlimit="10" stroke-width="1.132" d="M144.866 296v225.4" class="Vector_74"/>
    <path stroke="#9FD7FA" stroke-dasharray="1.13 1.13" stroke-miterlimit="10" stroke-width="1.132" d="M128.966 520.899v-225.5" class="Vector_75"/>
    <path fill="#3A3856" d="M116.366 355.999c-6.3 0-11.8-5.2-12.1-11.5-.1-3.4 1-6.6 3.3-8.9 2.3-2.4 5.4-3.7 8.8-3.7 1.1 0 2.2.1 3.2.5 6 1.6 11.2 2.4 16 2.4h2.7c4.8 0 10-.8 16-2.4 1-.3 2.2-.5 3.2-.5 3.4 0 6.5 1.4 8.8 3.7 2.3 2.4 3.5 5.7 3.3 8.9-.3 6.3-5.8 11.5-12.1 11.5h-.2c-.8 0-1.7-.1-2.5-.3-3.5-.8-6.5-1.2-9.1-1.2h-17.4c-2.6 0-5.5.3-9.1 1.2-.8.2-1.7.3-2.5.3h-.3z" class="Vector_76"/>
    <path stroke="#9FD7FA" stroke-dasharray="1.13 1.13" stroke-miterlimit="10" stroke-width="1.132" d="M167.265 344.4c-.2 5.3-4.9 9.5-10.1 9.4-.7 0-1.4-.1-2-.2-3.2-.7-6.3-1.2-9.6-1.2h-17.4c-3.3 0-6.5.6-9.6 1.2-.7.1-1.4.2-2 .2-5.3.1-9.8-4.1-10.1-9.4-.3-5.7 4.2-10.4 9.8-10.4.9 0 1.8.1 2.6.3 5.4 1.5 11 2.5 16.5 2.5h2.7c5.7 0 11.1-1 16.5-2.5.8-.2 1.7-.3 2.6-.3 5.8 0 10.4 4.6 10.1 10.4z" class="Vector_77"/>
    <path fill="#3A3856" d="M116.366 483.6c-6.3 0-11.8-5.2-12.1-11.5-.1-3.4 1-6.6 3.3-8.9 2.3-2.4 5.4-3.7 8.8-3.7 1.1 0 2.2.1 3.2.5 6 1.6 11.2 2.4 16 2.4h2.7c4.8 0 10-.8 16-2.4 1-.3 2.2-.5 3.2-.5 3.4 0 6.5 1.4 8.8 3.7 2.3 2.4 3.5 5.7 3.3 8.9-.3 6.3-5.8 11.5-12.1 11.5h-.2c-.8 0-1.7-.1-2.5-.3-3.5-.8-6.5-1.2-9.1-1.2h-17.4c-2.6 0-5.5.3-9.1 1.2-.8.2-1.7.3-2.5.3h-.3z" class="Vector_78"/>
    <path stroke="#9FD7FA" stroke-dasharray="1.13 1.13" stroke-miterlimit="10" stroke-width="1.132" d="M167.265 472c-.2 5.3-4.9 9.5-10.1 9.4-.7 0-1.4-.1-2-.2-3.2-.7-6.3-1.2-9.6-1.2h-17.4c-3.3 0-6.5.6-9.6 1.2-.7.1-1.4.2-2 .2-5.3.1-9.8-4.1-10.1-9.4-.3-5.7 4.2-10.4 9.8-10.4.9 0 1.8.1 2.6.3 5.4 1.5 11 2.5 16.5 2.5h2.7c5.7 0 11.1-1 16.5-2.5.8-.2 1.7-.3 2.6-.3 5.8.1 10.4 4.7 10.1 10.4z" class="Vector_79"/>
    <path fill="#9FD7FA" d="M136.865 319.4c1.3 0 2.3-1 2.3-2.3 0-1.3-1-2.3-2.3-2.3-1.3 0-2.3 1-2.3 2.3 0 1.3 1 2.3 2.3 2.3z" class="Vector_80"/>
    <path fill="#76C7F8" d="M137.266 318.2c.8-.3 1.2-1 1-1.6-.2-.6-1-.8-1.8-.6-.8.3-1.2 1-1 1.6.2.6 1 .9 1.8.6z" class="Vector_81"/>
    <path fill="#9FD7FA" d="M136.865 380.299c1.3 0 2.3-1 2.3-2.3 0-1.3-1-2.3-2.3-2.3-1.3 0-2.3 1-2.3 2.3 0 1.3 1 2.3 2.3 2.3z" class="Vector_82"/>
    <path fill="#76C7F8" d="M137.266 379.099c.8-.3 1.2-1 1-1.6-.2-.6-1-.8-1.8-.6-.8.3-1.2 1-1 1.6.2.6 1 .9 1.8.6z" class="Vector_83"/>
    <path fill="#9FD7FA" d="M136.865 441.1c1.3 0 2.3-1 2.3-2.3 0-1.3-1-2.3-2.3-2.3-1.3 0-2.3 1-2.3 2.3 0 1.3 1 2.3 2.3 2.3z" class="Vector_84"/>
    <path fill="#76C7F8" d="M137.266 439.9c.8-.3 1.2-1 1-1.6-.2-.6-1-.8-1.8-.6-.8.3-1.2 1-1 1.6.2.6 1 .8 1.8.6z" class="Vector_85"/>
    <path fill="#9FD7FA" d="M136.865 501.799c1.3 0 2.3-1 2.3-2.3 0-1.3-1-2.3-2.3-2.3-1.3 0-2.3 1-2.3 2.3 0 1.3 1 2.3 2.3 2.3z" class="Vector_86"/>
    <path fill="#76C7F8" d="M137.266 500.599c.8-.3 1.2-1 1-1.6-.2-.6-1-.8-1.8-.6-.8.3-1.2 1-1 1.6.2.6 1 .9 1.8.6z" class="Vector_87"/>
    <path fill="#9FD7FA" d="M115.766 346.1c1.3 0 2.3-1 2.3-2.3 0-1.3-1-2.3-2.3-2.3-1.3 0-2.3 1-2.3 2.3 0 1.3 1.1 2.3 2.3 2.3z" class="Vector_88"/>
    <path fill="#76C7F8" d="M116.165 344.9c.8-.3 1.2-1 1-1.6-.2-.6-1-.8-1.8-.6-.8.3-1.2 1-1 1.6.3.6 1.1.9 1.8.6z" class="Vector_89"/>
    <path fill="#9FD7FA" d="M158.066 346.1c1.3 0 2.3-1 2.3-2.3 0-1.3-1-2.3-2.3-2.3-1.3 0-2.3 1-2.3 2.3 0 1.3 1 2.3 2.3 2.3z" class="Vector_90"/>
    <path fill="#76C7F8" d="M158.366 344.9c.8-.3 1.2-1 1-1.6-.2-.6-1-.8-1.8-.6-.8.3-1.2 1-1 1.6.3.6 1.1.9 1.8.6z" class="Vector_91"/>
    <path fill="#9FD7FA" d="M115.766 473.799c1.3 0 2.3-1 2.3-2.3 0-1.3-1-2.3-2.3-2.3-1.3 0-2.3 1-2.3 2.3 0 1.3 1.1 2.3 2.3 2.3z" class="Vector_92"/>
    <path fill="#76C7F8" d="M116.165 472.599c.8-.3 1.2-1 1-1.6-.2-.6-1-.8-1.8-.6-.8.3-1.2 1-1 1.6.3.6 1.1.8 1.8.6z" class="Vector_93"/>
    <path fill="#9FD7FA" d="M158.066 473.799c1.3 0 2.3-1 2.3-2.3 0-1.3-1-2.3-2.3-2.3-1.3 0-2.3 1-2.3 2.3 0 1.3 1 2.3 2.3 2.3z" class="Vector_94"/>
    <path fill="#76C7F8" d="M158.366 472.5c.8-.3 1.2-1 1-1.6-.2-.6-1-.8-1.8-.6-.8.3-1.2 1-1 1.6.3.7 1.1.9 1.8.6z" class="Vector_95"/>
    <g class="Group_5">
      <path stroke="#7672B3" stroke-miterlimit="10" stroke-width="1.132" d="M126.666 292.899h20.5" class="Vector_96"/>
    </g>
    <g class="Group_6">
      <path stroke="#7672B3" stroke-miterlimit="10" stroke-width="1.132" d="M126.666 523.8h20.5" class="Vector_97"/>
    </g>
    <path fill="#3A3856" d="M301.266 292h-20.5v232.8h20.5V292z" class="Vector_98"/>
    <path stroke="#9FD7FA" stroke-dasharray="1.13 1.13" stroke-miterlimit="10" stroke-width="1.132" d="M299.166 296v225.4" class="Vector_99"/>
    <path stroke="#9FD7FA" stroke-dasharray="1.13 1.13" stroke-miterlimit="10" stroke-width="1.132" d="M283.066 520.899v-225.5" class="Vector_100"/>
    <path fill="#3A3855" d="M270.666 355.999c-6.3 0-11.8-5.2-12.1-11.5-.1-3.4 1-6.6 3.3-8.9 2.3-2.4 5.4-3.7 8.8-3.7 1.1 0 2.2.1 3.2.5 6 1.6 11.2 2.4 16 2.4h2.7c4.8 0 10-.8 16-2.4 1-.3 2.2-.5 3.2-.5 3.4 0 6.5 1.4 8.8 3.7 2.3 2.4 3.5 5.7 3.3 8.9-.3 6.3-5.8 11.5-12.1 11.5h-.2c-.8 0-1.7-.1-2.5-.3-3.5-.8-6.5-1.2-9.1-1.2h-17.4c-2.6 0-5.5.3-9.1 1.2-.8.2-1.7.3-2.5.3h-.3z" class="Vector_101"/>
    <path stroke="#9FD7FA" stroke-dasharray="1.13 1.13" stroke-miterlimit="10" stroke-width="1.132" d="M321.566 344.4c-.2 5.3-4.9 9.5-10.1 9.4-.7 0-1.4-.1-2-.2-3.2-.7-6.3-1.2-9.6-1.2h-17.4c-3.3 0-6.5.6-9.6 1.2-.7.1-1.4.2-2 .2-5.3.1-9.8-4.1-10.1-9.4-.3-5.7 4.2-10.4 9.8-10.4.9 0 1.8.1 2.6.3 5.4 1.5 11 2.5 16.5 2.5h2.7c5.7 0 11.1-1 16.5-2.5.8-.2 1.7-.3 2.6-.3 5.8 0 10.3 4.6 10.1 10.4z" class="Vector_102"/>
    <path fill="#3A3856" d="M270.666 483.6c-6.3 0-11.8-5.2-12.1-11.5-.1-3.4 1-6.6 3.3-8.9 2.3-2.4 5.4-3.7 8.8-3.7 1.1 0 2.2.1 3.2.5 6 1.6 11.2 2.4 16 2.4h2.7c4.8 0 10-.8 16-2.4 1-.3 2.2-.5 3.2-.5 3.4 0 6.5 1.4 8.8 3.7 2.3 2.4 3.5 5.7 3.3 8.9-.3 6.3-5.8 11.5-12.1 11.5h-.2c-.8 0-1.7-.1-2.5-.3-3.5-.8-6.5-1.2-9.1-1.2h-17.4c-2.6 0-5.5.3-9.1 1.2-.8.2-1.7.3-2.5.3h-.3z" class="Vector_103"/>
    <path stroke="#9FD7FA" stroke-dasharray="1.13 1.13" stroke-miterlimit="10" stroke-width="1.132" d="M321.566 472c-.2 5.3-4.9 9.5-10.1 9.4-.7 0-1.4-.1-2-.2-3.2-.7-6.3-1.2-9.6-1.2h-17.4c-3.3 0-6.5.6-9.6 1.2-.7.1-1.4.2-2 .2-5.3.1-9.8-4.1-10.1-9.4-.3-5.7 4.2-10.4 9.8-10.4.9 0 1.8.1 2.6.3 5.4 1.5 11 2.5 16.5 2.5h2.7c5.7 0 11.1-1 16.5-2.5.8-.2 1.7-.3 2.6-.3 5.8.1 10.3 4.7 10.1 10.4z" class="Vector_104"/>
    <g class="Group_7">
      <path stroke="#7672B3" stroke-miterlimit="10" stroke-width="1.132" d="M280.866 292.899h20.6" class="Vector_105"/>
    </g>
    <g class="Group_8">
      <path stroke="#7672B3" stroke-miterlimit="10" stroke-width="1.132" d="M280.866 523.8h20.6" class="Vector_106"/>
    </g>
    <path fill="#CFE2F6" d="M254.566 445.9l-60.4-17.3-12.6 44 60.4 17.3 12.6-44z" class="Vector_107"/>
    <path fill="#9FD7FA" d="M252.266 446.8l-56.6-16.2-11.8 41.2 56.6 16.2 11.8-41.2z" class="Vector_108"/>
    <path fill="#FF7DAA" d="M376.966 406.9l-47.5-19.6-13.2 31.9 47.5 19.6 13.2-31.9z" class="Vector_109"/>
    <path fill="#9FD7FA" d="M376.966 406.9l-47.5-19.6-13.2 31.9 47.5 19.6 13.2-31.9z" class="Vector_110"/>
    <path fill="#76C7F8" d="M374.066 408.3l-43.5-18-11.3 27.6 43.6 17.9 11.2-27.5z" class="Vector_111"/>
    <path fill="#525252" d="M218.166 390.399c14.4 0 26-11.7 26-26s-11.7-26-26-26c-14.4 0-26 11.7-26 26s11.6 26 26 26z" class="Vector_112"/>
    <path fill="#76C7F8" d="M218.166 386.399c12.2 0 22.1-9.9 22.1-22.1 0-12.2-9.9-22.1-22.1-22.1-12.2 0-22.1 9.9-22.1 22.1 0 12.2 9.9 22.1 22.1 22.1z" class="Vector_113"/>
    <path fill="#3A3855" d="M218.166 346c-10.2 0-18.3 8.3-18.3 18.3 0 5.3 2.3 10.1 5.9 13.5l13.7-31.7c-.6-.1-1-.1-1.3-.1z" class="Vector_114"/>
    <path fill="#9FD7FA" d="M229.966 350.399l-13.9 32.3c.7.1 1.4.1 2 .1 10.2 0 18.3-8.3 18.3-18.3.1-5.7-2.4-10.7-6.4-14.1z" class="Vector_115"/>
    <path fill="#CFE2F6" d="M219.266 346l-13.7 31.7c2.8 2.6 6.5 4.4 10.5 4.9l13.9-32.3c-2.9-2.4-6.6-4-10.7-4.3z" class="Vector_116"/>
    <path fill="#9FD7FA" d="M115.066 447.1l-16.6-71.5-40 9.3 16.6 71.6 40-9.4z" class="Vector_117"/>
    <path fill="#3A3855" d="M69.565 432.7l10.9-2.5-4.8-20.1 10.5-2.5-2-8.6 3.3-.8-4.2-18.1 1.8-.5 6.2 26.6 3.1-.7 5.5 24 10.5-2.4 4.6 19.9-40 9.3-5.4-23.6z" class="Vector_118"/>
    <path fill="#9FD7FA" d="M81.566 444.8c.1.7 0 1.4-.3 1.9-.3.6-1 1.1-1.8 1.6l-.6.2.5 2-1.8 1-1.4-6 2.4-1.2c.9-.5 1.6-.7 2-.6.5.1.8.4 1 1.1zm-3 2.4l.3-.2c.2-.1.5-.3.6-.6.1-.2.2-.5.1-.7-.1-.5-.5-.5-.9-.2l-.5.2.4 1.5z" class="Vector_119"/>
    <path fill="#9FD7FA" d="M88.766 445.6l-.6-.9-2.3 1.1-.1 1.4-2 1 .8-7.2 2.5-1.2 3.6 4.9-1.9.9zm-1.4-2l-.6-.8c-.1-.2-.2-.5-.5-.7-.2-.3-.3-.6-.3-.7v.8c0 .3 0 1.1-.1 2.2l1.5-.8z" class="Vector_120"/>
    <path fill="#9FD7FA" d="M93.866 440.499l.5 2.1-1.8 1-1.4-6 2.3-1.1c1.9-1 2.9-.9 3.2.3.1.7-.1 1.5-.8 2.3l2.6 1.6-2.2 1.1-1.9-1.5-.5.2zm-.4-1.2l.3-.2c.7-.3.9-.8.8-1.2-.1-.5-.5-.5-1.1-.1l-.3.2.3 1.3z" class="Vector_121"/>
    <path fill="#9FD7FA" d="M99.965 439.8l-1.4-6 1.8-1 1.4 6-1.8 1z" class="Vector_122"/>
    <path fill="#9FD7FA" d="M108.365 433.4c.1.3 0 .8-.1 1.1-.1.5-.5.8-.8 1.1-.3.3-.8.7-1.4 1-.5.2-.8.5-1.1.6-.3.1-.7.2-1 .2l-.3-1.5c.3 0 .8-.1 1.2-.2.5-.1.8-.2 1.1-.5.2-.1.5-.3.6-.5.1-.1.1-.3.1-.5 0-.1-.1-.1-.1-.2-.1 0-.1 0-.3-.1-.1 0-.5 0-1 .1-.5 0-.9.1-1.1 0-.2 0-.5-.1-.7-.3-.1-.1-.2-.3-.3-.7-.1-.6 0-1.1.3-1.7.3-.6 1-1 1.8-1.5.7-.3 1.5-.6 2.3-.7l-.2 1.6c-.7.1-1.2.2-1.7.5-.2.1-.5.2-.5.3-.1.1-.1.2-.1.3 0 .1.1.2.2.2s.6 0 1.2-.1 1.1 0 1.4.1c.1.7.4.9.5 1.4z" class="Vector_123"/>
    <path fill="#3A3855" d="M193.565 450.199s7.6-2.8 10.9-1.5c3.3 1.2 7.2 2.5 7.9.6.7-1.9 6.2-4.3 7.9-2.4 1.7 1.9 8 2.3 10.3 3.5 2.3 1.2 8.6 5.2 8.6 5.2s-4.1 7.2-4.9 8.1c-.8.9-7.9-1.5-8.9.8-1.1 2.3-3.3 3.7-3.3 3.7l3.1 1.1c3.3 1.1 6.8.8 9.8-.9 1.7-1 3.5-1.5 4.1.3.8 2.2-8.5 6.3-7.2 8.7 1.2 2.3-13.7 2.2-13.7 2.2l-10.2-11.3s-4.8-7.2-4.1-8.1c.7-.9 3.1-4.1.5-4.4-2.6-.3-8.3-1.5-8.3-1.5s-6.4-1.3-2.5-4.1z" class="Vector_124"/>
    <path fill="#383838" d="M196.966 460.9l-4.3-.6s-1.8 1.9-1.1 2.5c.7.6 3.8 1.9 4.1 2 .3.1 3.8 3.8 4.5 3.8.7 0 1.2-4.5 1.2-4.5s1.2-2.9 0-3.3c-1.2-.3-4.4.1-4.4.1z" class="Vector_125"/>
    <path fill="#3A3855" d="M245.266 478.199l-60.4-17.3-3.4 11.8 60.4 17.3 3.4-11.8z" class="Vector_126"/>
    <path fill="#76C7F8" d="M331.666 397.799s5.3-2.9 7.8-.8c2.5 2.1 2.6 6.2 4.4 7.1 1.8.9 6.7 2.1 6.9 3.5.2 1.4 7.2 5.1 7.2 5.1l4.5 5.4 6.9 1.2-3.7 9.1-36.1-27.9 2.1-2.7z" class="Vector_127"/>
    <path fill="#76C7F8" d="M252.566 446.799l-26.6-7.6-1.4 5 26.6 7.6 1.4-5z" class="Vector_128"/>
    <path fill="#3A3855" d="M251.166 451.799l-26.6-7.6-1.4 5 26.6 7.6 1.4-5z" class="Vector_129"/>
    <path fill="#7672B3" d="M249.766 456.799l-26.6-7.6-1.4 5 26.6 7.6 1.4-5z" class="Vector_130"/>
    <path fill="#9FD7FA" d="M326.566 399.7s5.1-7.8 7.9-6.9c0 0 .2 10.6 2.8 10.8 2.6.1 8-4.5 8-4.5l.5 9.1 8.7-3.7s-1.2 5.4-.8 8.1c.4 2.7 5.5-6.3 8.1-5.1 2.6 1.2.7 8.9 2.1 8.9 1.5.1 3.1 1.6 2.4 4.1-.7 2.5.9 4.5.9 4.5l-3.6 8.9-22.5-18.8-11.3-7.9-5.6-1.4 2.4-6.1z" class="Vector_131"/>
    <path fill="#9FD7FA" d="M190.165 467.599c1.4.3 1.5 1.2 1.4 1.8l-.7 2.4.7.2-.2.8-1.5-.5.1-.6c-.6.2-1 .3-1.6.2-.8-.2-1.2-1-1-1.8.2-.8 1-1.2 1.9-.9.5.1.8.3 1 .7l.1-.6c.1-.3 0-.9-.7-1-.5-.1-.8 0-1 .2l-.8-.5c.7-.6 1.4-.7 2.3-.4zm-2 2.8c-.1.5.1.8.6.9.5.1.9 0 1.2-.2l.1-.5c-.2-.3-.6-.7-1-.8-.4-.1-.8.1-.9.6z" class="Vector_132"/>
    <path fill="#9FD7FA" d="M199.066 468.2l-1.6 5.4.8.2-.2.8-1.6-.5.2-.7c-.6.3-1 .5-1.7.2-1-.3-1.9-1.4-1.5-2.8.3-1.2 1.6-2 2.7-1.7.6.1 1 .6 1.4 1.1l.5-1.7-.8-.2.2-.8 1.6.7zm-4.7 3.1c-.2.9.1 1.6.9 1.8.8.2 1.6-.2 1.8-1.1.2-.8-.1-1.6-1-1.8-.7-.3-1.5.2-1.7 1.1z" class="Vector_133"/>
    <path fill="#9FD7FA" d="M202.466 471.3l-.2.8-.6-.1.2 2.7 1.6-2.2-.6-.2.2-.8 2.1.6-.2.8-.7-.2-2.4 3.2-.6-.3-.3-4-.8-.2.2-.8 2.1.7z" class="Vector_134"/>
    <path fill="#9FD7FA" d="M208.766 472.899c1.1.3 2 1.6 1.6 3.2l-3.6-1c-.1.8.2 1.5 1.1 1.7.6.1 1.1.1 1.6-.3l.7.6c-.7.6-1.6.8-2.5.5-1.4-.3-2.2-1.6-1.7-2.9.3-1.6 1.6-2.2 2.8-1.8zm-1.8 1.4l2.7.8c.1-.7-.3-1.4-1-1.6-.8-.2-1.4.2-1.7.8z" class="Vector_135"/>
    <path fill="#9FD7FA" d="M215.666 474.9c.8.2 1 .9.8 1.5l-.7 2.4.7.2-.2.8-1.6-.5.8-2.8c.2-.7-.1-.8-.3-.9-.3-.1-.8 0-1.4.2l-.7 2.3.7.2-.2.8-2.3-.7.2-.8.7.2.8-2.8-.8-.2.2-.8 1.6.5-.1.6c.9-.2 1.3-.3 1.8-.2z" class="Vector_136"/>
    <path fill="#9FD7FA" d="M220.766 474.899l-.5 1.5.8.2-.2.8-.8-.2-.7 2.5c-.1.2 0 .3.2.5h.5l-.2.8c-.3 0-.6 0-.7-.1-.7-.2-.9-.7-.7-1.2l.8-2.6-.6-.1.2-.8.6.1.2-.7 1.1-.7z" class="Vector_137"/>
    <path fill="#9FD7FA" d="M224.166 477.4l-.9 2.9c-.1.3 0 .7.3.8.3.1.9 0 1.4-.2l.7-2.3-.7-.2.2-.8 1.6.5-1 3.5.7.2-.2.8-1.6-.5.1-.5c-.7.2-1.1.2-1.6.1-.8-.2-1-.8-.8-1.6l.7-2.3-.6-.2.2-.8 1.5.6z" class="Vector_138"/>
    <path fill="#9FD7FA" d="M232.266 479.7l-.2.9-.6-.2c-.9-.2-1.4.1-1.7 1.1l-.3 1.2.9.2-.2.8-2.6-.8.2-.8.8.2.8-2.8-.9-.2.2-.8 1.5.5-.2.9c.6-.7 1.2-.8 1.6-.7l.7.5z" class="Vector_139"/>
    <path fill="#9FD7FA" d="M235.566 480.599c1.1.3 2 1.601 1.6 3.201l-3.6-1c-.1.8.2 1.499 1.1 1.699.6.1 1.1.1 1.6-.3l.7.601c-.7.6-1.6.8-2.5.5-1.4-.3-2.2-1.601-1.7-2.901.3-1.6 1.8-2.2 2.8-1.8zm-1.8 1.4l2.7.801c0-.7-.3-1.401-1-1.601-.7-.2-1.4.2-1.7.8z" class="Vector_140"/>
    <path fill="#FFCADC" d="M325.066 403.5s25 .8 25.6 11.4c.6 10.5 13.5 17.7 13.5 17.7l-1.4 3.2-43.6-17.8 5.9-14.5z" class="Vector_141"/>
    <path fill="#CFE2F6" d="M324.466 404.899s22.9.7 23.4 10.3c.5 9.6 16.2 17.6 16.2 17.6l-1.2 2.9-43.6-17.9 5.2-12.9z" class="Vector_142"/>
    <path fill="#3A3855" d="M323.866 406.5s20.5.7 20.9 9.3c.5 8.5 18.5 18.8 18.5 18.8l-.5 1.2-43.7-17.9 4.8-11.4z" class="Vector_143"/>
    <path fill="#9FD7FA" d="M252.966 360.699l-5 19.5-64.2 15.1 5-19.4 64.2-15.2z" class="Vector_144"/>
    <path fill="#FFDDE9" d="M322.666 415.599l-.3-.2-.2-.1-.1-.1-.1-.3v-.4l.2-.6.2-.6.3-.7h-.2l-.2-.1v-.2l.1-.1v-.2l.2.1H322.866l.1-.1.1-.1.1-.2.1-.3h.2l.1.1.5.2-.1.3-.2.5v.1h.1l.2.1h.1l.5.2h.1v.1l-.2.6-.2-.1-.3-.1-.3-.1h-.2l-.6 1.5-.1.2v.2h.1l.1.1h.2l.2-.2.1-.3.1-.3v-.1h.1l.6.2h-.1l-.1.3-.1.2-.1.2-.1.2-.2.1-.2.1H322.866v-.1h-.2zm-.2-1l.1-.1h-.1v.1z" class="Vector_145"/>
    <path fill="#FFDDE9" d="M326.866 417.2l-1.7-.7-.2-.1.1-.2v-.1l.1-.1h.1l.2.1h.1l.1-.1v-.1l.2-.3.5-1.4v-.1l-.1-.1h-.2v-.1l.1-.1.1-.2.3.1.8.3.3.1v.1l-.1.2-.1.1-.2.5v.1h.2l.1-.1.2-.2.1-.1h.4v.1H328.566l.1.1h.1l.1.1.1.1v.4l-.1.1-.1.1-.2.1h-.4l-.1-.1-.1-.1v-.2l.1-.1h-.2l-.3.1-.1.1-.2.2-.1.1-.1.1-.3.8v.1l.1.1h.2l.1.1h.1l-.1.1-.1.2v.2l-.2-.3z" class="Vector_146"/>
    <path fill="#FFDDE9" d="M329.266 418.299l-.1-.1-.1-.1-.1-.1-.1-.1V417.599l.1-.2v-.2l.1-.1.1-.1.1-.1.2-.1h1.6l.1-.1.1-.2v-.2l-.1-.2h.1-.2l-.2-.1h-.2v.1l.1.1v.2l-.1.1h-.4l-.2-.1-.2-.1-.1-.2v-.6l.1-.1.2-.1.1-.1H331.066l.3.1.3.1.1.1.1.1.2.1.1.1.1.1h.1l.1.2v.4l-.5 1v.2l-.1.1v-.1h-.1v.1h.1l-.1.2v.1l.1.1h.2l.1-.1v-.2l.1-.5.3.1-.1.3-.2.3-.1.1-.1.1-.2.1h-.4l-.2-.1-.2-.1-.1-.1-.1-.1-.1-.2V417.499v.2l-.1.1h-.2l-.1.1h-.1l-.1.1h-.4l-.1-.1h-.1l-.3.4zm1.1-.3l.2-.1.1-.1.1-.1.1-.1.1-.1.1-.2v-.1l.1-.1h-.1l-.1.1h-.7l-.2.1-.1.1-.1.1V417.799l.1.1.4.1zm1.3-.9v-.1.1zm.4 0h.1v-.1l-.1.1z" class="Vector_147"/>
    <path fill="#FFDDE9" d="M334.766 420.599l-.3-.1-.3-.1-.2-.1V416.999l-.2-.1.1-.3v-.2h.1l.2.1h.1l.9.3.5.1h.2v.1l-.1.2v.2l-.3-.1h-.2v.5l-.1.2v1h.2l.1-.1.1-.2.1-.2.2-.2.1-.1.1-.1.1-.1.3-.5v-.2H336.166l.1-.3v-.1h.1l.3.2.7.2h.1l.3.1v.2l-.2.5-.2-.1h-.1l-.1.1-.1.1-.3.5-.3.3-.1.2-.2.2-.3.2-.2.2-.9.8z" class="Vector_148"/>
    <path fill="#FFDDE9" d="M338.166 421.9l-.1-.1h-.1l-.1-.1-.1-.1-.1-.1v-.1l-.1-.1-.1-.1V420.1l.2-.5.1-.1.1-.1.1-.1.3-.2.5-.1h.4l.3.1h.1l.1.1h.1l.2.1.2.2.2.2.1.1.1.2V420.6l-.1.5-.1.3v.2h-.1l-1.8-.8-.2-.1v.5l.1.2.1.1.2.1.3.1H339.266l.2-.1.1-.1.3.1.2.1v.1l-.1.1-.1.1-.2.1-.3.1h-.5l-.3-.1-.3-.1-.1-.1zm.7-1.9l.5.1.5.2h.1l.1-.3V419.7l-.1-.1h-.5l-.1.1-.1.1-.1.2h-.3z" class="Vector_149"/>
    <path fill="#FFDDE9" d="M340.966 423.099l.1-.2V422.599h.1l.2.1h.1l.1-.1.1-.3v-.2l.7-1.6.1-.1v-.1l.2-.7.1-.1V419.199l-.1-.1h-.2l.1-.1.1-.3.5.2 1.1.5-.1.3-.1.2-.6 1.4-.6 1.4-.2.5v.2l.3.1-.1.2v.2l-.2-.1-.1-.1-1-.5-.5-.1h-.1z" class="Vector_150"/>
    <path fill="#383838" d="M201.066 384.899c0-.3 0-.5-.2-.7-.2-.1-.7-.2-1.2-.2-1 0-1.8-.1-2.3-.6-.5-.3-.6-1-.5-2 .2-1 .7-1.9 1.6-2.8.8-.9 1.9-1.5 3.2-1.8 1.2-.3 2.2-.2 2.8.2.7.5.9 1.2.7 2.3v.1l-3.1.8c.1-.5.1-.8 0-.9-.1-.2-.3-.2-.8-.1-.2.1-.6.2-.8.5-.2.2-.3.6-.5.8-.1.3 0 .6.2.7.2.1.7.2 1.4.2 1.1 0 1.9.1 2.4.5.5.3.6 1 .3 2-.2 1-.8 2-1.7 2.8-.9.8-1.9 1.5-3.3 1.8-1.2.3-2.2.2-2.8-.3-.7-.6-.8-1.4-.7-2.3v-.1l2.8-.8c-.1.6 0 .9.1 1 .2.2.5.2 1 .1.3-.1.7-.2.9-.5.2-.1.4-.3.5-.7z" class="Vector_151"/>
    <path fill="#383838" d="M206.665 381c.3-1.8 1-3.3 2-4.5 1-1.2 2.3-2 3.7-2.5 1.5-.3 2.5-.1 3.1.7.7.8.8 2.2.5 3.7v.2c-.3 1.8-1 3.3-2 4.5-1 1.2-2.3 2-3.7 2.5-1.5.3-2.5.1-3.1-.7-.7-.8-.8-2.1-.5-3.7v-.2zm3.2-.7c-.2 1-.2 1.7-.1 2.2.1.5.5.6 1 .5.6-.1.9-.6 1.2-1.1.3-.6.6-1.4.8-2.3v-.2c.2-.9.2-1.7.1-2.2-.1-.5-.5-.7-1-.5-.6.1-.9.6-1.4 1.1-.3.7-.6 1.4-.8 2.3l.2.2z" class="Vector_152"/>
    <path fill="#383838" d="M218.165 377.799c.3-1.8 1-3.3 2-4.5 1-1.2 2.3-2 3.7-2.5 1.5-.3 2.5-.1 3.1.7.7.8.8 2.2.5 3.7v.2c-.3 1.8-1 3.3-2 4.5-1 1.2-2.3 2-3.7 2.5-1.5.3-2.5.1-3.1-.7-.7-.8-.8-2.1-.5-3.7v-.2zm3.1-.6c-.2 1-.2 1.7-.1 2.2.1.5.5.6 1 .5.6-.1.9-.6 1.2-1.1.3-.6.6-1.4.8-2.3v-.2c.2-.9.2-1.7.1-2.2-.1-.5-.5-.7-1-.5-.6.1-.9.6-1.4 1.1-.3.7-.6 1.4-.8 2.3l.2.2z" class="Vector_153"/>
    <path fill="#383838" d="M233.966 369.7c.5-.7.9-1.1 1.5-1.6s1-.7 1.6-.8c.9-.2 1.5-.1 1.9.6.3.6.5 1.7 0 3.2l-1.6 7-3.2.9 1.6-7c.1-.7.1-1.1 0-1.4-.1-.2-.5-.2-.9-.1-.2.1-.5.2-.7.3-.2.1-.5.3-.6.6l-1.9 8.1-3.2.9 2.6-11.4 2.9-.8v1.5z" class="Vector_154"/>
    <path stroke="#9FD7FA" stroke-dasharray="1.13 1.13" stroke-miterlimit="10" stroke-width="1.132" d="M363.665 478.399h16.2c1.7 0 3.1 1.4 3.1 3.1v22.6c0 8.6-6.9 15.5-15.5 15.5h-20.5c-2.8 0-5-2.4-4.6-5.2l2.8-19.4c.8-9.3 8.9-16.6 18.5-16.6z" class="Vector_155"/>
    <path stroke="#9FD7FA" stroke-dasharray="1.13 1.13" stroke-miterlimit="10" stroke-width="1.132" d="M64.265 478.399h-16.1c-1.7 0-3.1 1.4-3.1 3.1v22.6c0 8.6 6.9 15.5 15.5 15.5h20.6c2.8 0 5-2.4 4.6-5.2l-2.8-19.4c-1-9.3-9-16.6-18.7-16.6z" class="Vector_156"/>
    <path fill="#9FD7FA" d="M290.966 319.4c1.3 0 2.3-1 2.3-2.3 0-1.3-1-2.3-2.3-2.3-1.3 0-2.3 1-2.3 2.3 0 1.3 1.1 2.3 2.3 2.3z" class="Vector_157"/>
    <path fill="#76C7F8" d="M291.366 318.2c.8-.3 1.2-1 1-1.6-.2-.6-1-.8-1.8-.6-.8.3-1.2 1-1 1.6.3.6 1 .9 1.8.6z" class="Vector_158"/>
    <path fill="#9FD7FA" d="M290.966 380.299c1.3 0 2.3-1 2.3-2.3 0-1.3-1-2.3-2.3-2.3-1.3 0-2.3 1-2.3 2.3 0 1.3 1.1 2.3 2.3 2.3z" class="Vector_159"/>
    <path fill="#76C7F8" d="M291.366 379.099c.8-.3 1.2-1 1-1.6-.2-.6-1-.8-1.8-.6-.8.3-1.2 1-1 1.6.3.6 1.1.9 1.8.6z" class="Vector_160"/>
    <path fill="#9FD7FA" d="M290.966 441.1c1.3 0 2.3-1 2.3-2.3 0-1.3-1-2.3-2.3-2.3-1.3 0-2.3 1-2.3 2.3 0 1.3 1.1 2.3 2.3 2.3z" class="Vector_161"/>
    <path fill="#76C7F8" d="M291.366 439.9c.8-.3 1.2-1 1-1.6-.2-.6-1-.8-1.8-.6-.8.3-1.2 1-1 1.6.3.6 1.1.8 1.8.6z" class="Vector_162"/>
    <path fill="#9FD7FA" d="M290.966 501.799c1.3 0 2.3-1 2.3-2.3 0-1.3-1-2.3-2.3-2.3-1.3 0-2.3 1-2.3 2.3 0 1.3 1.1 2.3 2.3 2.3z" class="Vector_163"/>
    <path fill="#76C7F8" d="M291.366 500.599c.8-.3 1.2-1 1-1.6-.2-.6-1-.8-1.8-.6-.8.3-1.2 1-1 1.6.3.6 1.1.9 1.8.6z" class="Vector_164"/>
    <path fill="#9FD7FA" d="M269.966 346.1c1.3 0 2.3-1 2.3-2.3 0-1.3-1-2.3-2.3-2.3-1.3 0-2.3 1-2.3 2.3 0 1.3 1 2.3 2.3 2.3z" class="Vector_165"/>
    <path fill="#76C7F8" d="M270.366 344.9c.8-.3 1.2-1 1-1.6-.2-.6-1-.8-1.8-.6-.8.3-1.2 1-1 1.6.2.6 1 .9 1.8.6z" class="Vector_166"/>
    <path fill="#9FD7FA" d="M312.166 346.1c1.3 0 2.3-1 2.3-2.3 0-1.3-1-2.3-2.3-2.3-1.3 0-2.3 1-2.3 2.3 0 1.3 1.1 2.3 2.3 2.3z" class="Vector_167"/>
    <path fill="#76C7F8" d="M312.566 344.9c.8-.3 1.2-1 1-1.6-.2-.6-1-.8-1.8-.6-.8.3-1.2 1-1 1.6.2.6 1 .9 1.8.6z" class="Vector_168"/>
    <path fill="#9FD7FA" d="M269.966 473.799c1.3 0 2.3-1 2.3-2.3 0-1.3-1-2.3-2.3-2.3-1.3 0-2.3 1-2.3 2.3 0 1.3 1 2.3 2.3 2.3z" class="Vector_169"/>
    <path fill="#76C7F8" d="M270.366 472.599c.8-.3 1.2-1 1-1.6-.2-.6-1-.8-1.8-.6-.8.3-1.2 1-1 1.6.2.6 1 .8 1.8.6z" class="Vector_170"/>
    <path fill="#9FD7FA" d="M312.166 473.799c1.3 0 2.3-1 2.3-2.3 0-1.3-1-2.3-2.3-2.3-1.3 0-2.3 1-2.3 2.3 0 1.3 1.1 2.3 2.3 2.3z" class="Vector_171"/>
    <path fill="#76C7F8" d="M312.566 472.5c.8-.3 1.2-1 1-1.6-.2-.6-1-.8-1.8-.6-.8.3-1.2 1-1 1.6.2.7 1 .9 1.8.6z" class="Vector_172"/>
    <path fill="#000" fill-opacity=".47" d="M664.796 370.168l-32.524.123V362.7h32.524v7.468z" class="Vector_173" opacity=".2"/>
    <path fill="#F0C2D2" d="M643.775 459.295c-.06.806-.837 1.113-1.645 1.113h-35.345c-2.435 0-4.52-1.757-4.705-4.186-.209-2.739-.258-6.283.489-8.897 1.075-3.691 4.579-11.307 4.579-11.307l4.065 2.616c-.747-3.878-.233-5.56 1.496-8.037 0 0 3.364 3.224 4.298.795 1.682-4.533 2.009-8.084 4.065-8.691 2.056-.608 3.692 6.915 3.692 6.915s2.569-1.215 5.326 0c2.757 1.215 2.43 10.607 2.43 10.607s5.046-3.271 6.308-1.542c1.067 1.477 5.269 16.323 4.947 20.614z" class="Vector_174"/>
    <path fill="#FAD1DF" d="M679.463 475.481c-.177.788-1.01 1.028-1.819 1.028h-64.391c-2.435 0-4.511-1.757-4.775-4.178-.524-4.797-1.014-12.713.559-18.221 1.84-6.32 7.84-19.359 7.84-19.359l6.96 4.479c-1.28-6.639-.4-9.519 2.56-13.759 0 0 5.759 5.52 7.359 1.36 2.88-7.76 3.44-13.84 6.96-14.88 3.52-1.04 6.32 11.84 6.32 11.84s4.4-2.08 9.12 0c4.719 2.08 4.159 18.159 4.159 18.159s8.64-5.6 10.8-2.64c1.909 2.643 9.677 30.276 8.348 36.171z" class="Vector_175"/>
    <path fill="#FAD1DF" fill-rule="evenodd" d="M734.718 540.185c-12.173 7.832-4.148-6.846-11.249-17.045 0 0-9.057 8.634-11.511 2.116-1.343-3.581-2.364-6.942-3.277-9.945-2.193-7.219-3.757-12.365-7.642-13.501-5.502-1.608-9.988 18.621-9.988 18.621s-6.941-3.216-14.389 0c-7.449 3.217-6.518 28.61-6.518 28.61s-13.543-8.803-16.929-4.148c-1.022 1.347-2.977 6.732-5.092 13.734-2.269-5.34-4.303-9.755-4.303-9.755l-8.634 5.502c1.524-8.295.424-11.766-3.216-17.098 0 0-7.195 6.771-9.057 1.608-1.029-2.769-1.817-5.374-2.524-7.712-1.735-5.738-2.982-9.863-6.109-10.825-4.402-1.269-7.872 14.643-7.872 14.643s-1.673-.772-4.153-1.039a341.93 341.93 0 00-1.857-4.124l-8.633 5.502c1.523-8.295.423-11.765-3.217-17.098 0 0-7.194 6.772-9.057 1.608-1.028-2.766-1.815-5.37-2.522-7.707l-.001-.003-.001-.002c-1.735-5.738-2.982-9.862-6.109-10.824-4.317-1.27-7.872 14.643-7.872 14.643s-5.502-2.54-11.342 0c-5.84 2.539-5.163 22.515-5.163 22.515l-.048-.031c-.805-2.285-1.458-4.444-2.053-6.412-1.735-5.738-2.982-9.862-6.11-10.824-4.401-1.27-7.872 14.643-7.872 14.643s-5.501-2.539-11.342 0c-2.554 1.11-3.861 5.555-4.524 10.206-.423-3.02-1.668-5.435-3.72-8.441 0 0-7.194 6.772-9.056 1.609-1.029-2.769-1.817-5.375-2.524-7.712-1.735-5.738-2.983-9.863-6.11-10.825-4.401-1.27-7.872 14.643-7.872 14.643s-5.502-2.539-11.342 0c-5.84 2.539-5.163 22.515-5.163 22.515s-10.581-6.771-13.289-3.132c-1.1 1.439-3.47 8.719-5.756 17.098-1.947-2.793-4.401-5.248-7.448-6.687-10.665-5.163-21.33 11.85-22.515 18.96-.408 2.446-1.607 1.296-3.81-.817-4.203-4.03-12.06-11.565-25.054-4.346-15.828 8.888-25.308 19.564-28.017 21.765h437.808v-89.214s-4.487-32.672-17.437-27.763c-12.95 4.825-2.878 36.736-2.878 36.736s-10.834-7.703-15.151-8.973c-4.401-1.269-11.003 19.045-11.003 19.045s-11.258-7.702-17.098-5.163c-2.64 1.148-2.894 7.847-2.379 14.844z" class="Union_3" clip-rule="evenodd"/>
    <path stroke="#FF92B8" stroke-linecap="round" stroke-width="3" d="M421.4 478.501l14.4 2.9" class="Vector_176"/>
    <path stroke="#FF92B8" stroke-linecap="round" stroke-width="3" d="M432.328 475.449l10.6 2.5" class="Vector_177"/>
    <path fill="#000" fill-opacity=".47" d="M687.4 357.809l-16.937.356 15.53-12.199 1.407-.319v12.162z" class="Vector_178" opacity=".2"/>
    <path fill="#000" fill-opacity=".18" fill-rule="evenodd" d="M526.261 317.016c-9.83 3.449-10.7 13.688-16.37 33.066a24.408 24.408 0 01-4.297-7.31c-2.248.143-4.352.235-6.241.295-3.843.122-7.171.122-9.559.091a174.846 174.846 0 01-3.495-.08l-15.153.001-26.25 4.163s-1.111-12.451-4.171-30.659c-2.64-15.707-20.668-14.692-20.668-14.692s4.427-1.125 7.696-1.546c15.51-2.002 39.552-6.266 39.552-6.266l19.985-.001.508.022H487.807l.081.004c.094.003.257.009.484.015.453.014 1.156.031 2.061.043 1.818.024 4.398.024 7.363-.07 6.279-.2 12.901-.789 17.637-1.933 10.213-2.466 22.281 2.505 27.599 11.565.597.838 1.271 1.271 1.62 2.165 7.419 11.157 10.134 23 9.419 26.686-3.63-12.988-19.055-18.631-27.81-15.559z" class="Union_4" clip-rule="evenodd"/>
    <path fill="#F2A35E" d="M464.2 290.5c-4.5 1.2-6.6 5.2-5.4 11 0 0 2.3 2.8 10.4 1.2 1.2-.1 2.4-.2 3.5-.2-6.4 4-15.2 2.2-18.2.2s-7.8-1.1-12-.2c-3.4.7-12.2-1.8-10.4-4.7 1.9-2.9 15-9.1 15-9.1 1.7-1.3 8.8-.5 17.1 1.8z" class="Vector_179"/>
    <path fill="#68C1F8" d="M560.1 188.9c-41.2-26.1-56.9-19-76.6-12.9-28.4 12.9-20.1 11.1-18.6 34.6 2.5 38.7 8 61.8 2.9 81.1-13.5 9.5 27.2 16.4 57.8 14.5 11.87 0 15.587 1.629 18.741 3.196 3.064 1.523 5.731 2.985 5.731 2.985S577.8 207.4 560.1 188.9z" class="Vector_180"/>
    <path fill="#F2A35E" fill-rule="evenodd" d="M487.449 183.468c1.528 1.036 4.255 2.157 8.95 3.231 14.853 3.301 20.777-2.717 25.411-13.957-2.617-5.422-5.643-12.42-7.871-18.854-.519-.303-1.146-.562-1.811-.836-1.792-.741-3.854-1.593-4.798-3.701-1.189-2.656.636-5.625 2.077-7.969.704-1.144 1.316-2.139 1.44-2.876l-12.448 9.394c-3.5 2.9-9.7 9.2-7.2 11.4 2.457 2.173-2.139 19.253-3.75 24.168z" class="Subtract_2" clip-rule="evenodd"/>
    <path fill="#4A1242" d="M500.9 157s-6.9 2.7-9.3 3.7c.7 1.8-1.6 12.8-2.1 15.5.1 0 9.2-14.5 11.4-19.2z" class="Vector_181"/>
    <path fill="#F2A35E" fill-rule="evenodd" d="M536.806 238.1c-.447 10.261-.654 18.781 2.894 33.3-26.3 9.4-41.1 14.6-68.9 19.8-1.187.258-2.427-.07-3.596-.379-1.097-.29-2.133-.563-3.004-.321-4.5 1.2-6.6 5.2-5.4 11 0 0 2.3 2.8 10.4 1.2 1.2-.1 2.4-.2 3.5-.2 27.5-1.8 44-3.4 72.5-7.3 8.1-1.8 18.7-8 18.4-16.2l2.142-40.9h-28.936z" class="Subtract_3" clip-rule="evenodd"/>
  </g>
</svg>
