<svg xmlns="http://www.w3.org/2000/svg" width="800" height="600" fill="none" viewBox="0 0 800 600">
  <g class="angle">
    <path fill="#fff" d="M0 0h800v600H0z"/>
    <rect width="85.037" height="531.7" x="210.654" y="168.292" stroke="#265ADE" stroke-dasharray="2.2 2.2" class="Rectangle 2.2" rx="35.5" transform="rotate(-89.981 210.654 168.292)"/>
    <rect width="480.521" height="306.552" x="236.949" y="111.254" fill="#FFF2D9" class="Rectangle" opacity=".7" rx="23" transform="rotate(.019 236.949 111.254)"/>
    <path fill="#CFBBA4" fill-opacity=".2" d="M135.211 577.4c0 2.789-34.083 2.175-53.276 2.5a21007.39 21007.39 0 00-55.721 1.048l13.275-5.939s25.957-2.658 46.83-2.658c32.338 0 48.892 2.26 48.892 5.049z" class="Ellipse 4.2"/>
    <path fill="#000" fill-opacity=".05" fill-rule="evenodd" d="M717.434 222.867l-.057 172.099c-.003 7.907-3.996 14.881-10.074 19.019H659.97c-14.36 0-26-11.641-26-26V248.857c0-14.359 11.64-26 26-26h56.759c.236 0 .471.004.705.01z" class="Intersect" clip-rule="evenodd"/>
    <path fill="#F58F49" d="M131.136 53.607L27.768 27.182V572.35l103.368-26.001V53.607z" class="Rectangle 2.2_2"/>
    <path stroke="#424242" stroke-linecap="round" d="M105.357 33.238v506.709" class="Vector"/>
    <path stroke="#424242" stroke-linecap="round" d="M48.44 119.414h129.198" class="Vector 2"/>
    <path stroke="#424242" stroke-linecap="round" d="M48.44 206.572h129.198" class="Vector 2.1"/>
    <path stroke="#424242" stroke-linecap="round" d="M48.44 293.731H177.64" class="Vector 2.2"/>
    <path stroke="#424242" stroke-linecap="round" d="M48.44 380.89H177.64" class="Vector 2.3"/>
    <path stroke="#424242" stroke-linecap="round" d="M48.44 468.049H177.64" class="Vector 2.4"/>
    <path fill="#CFBBA4" fill-opacity=".2" d="M499.455 578.772c0 2.788-66.525 5.049-148.588 5.049-82.063 0-148.588-2.261-148.588-5.049 0-2.789 79.254-8.644 164.878-.001 83.815-4.22 132.298-2.788 132.298.001z" class="Ellipse 4.1"/>
    <path fill="#FCE38A" d="M564.185 554.244c-3.402 3.041-38.235 2.567-47.052 0 .727-2.334-8.8-22.511-5.18-26.073 4.524-4.452 43.815-8.476 47.236-9.112 3.42-.637-10.827 11.45-10.827 11.45s25.228-4.537 29.148-4.372c1.797.076-6.289 21.818-13.325 28.107z" class="Vector 2_2"/>
    <path fill="#FCE38A" d="M564.185 554.244c-3.402 3.041-38.235 2.567-47.052 0 .727-2.334-8.8-22.511-5.18-26.073 4.524-4.452 43.815-8.476 47.236-9.112 3.42-.637-10.827 11.451-10.827 11.451s25.228-4.538 29.148-4.372c1.797.075-6.289 21.817-13.325 28.106z" class="Vector 2.1_2"/>
    <rect width="97.654" height="171.612" x="653.765" y="233.656" fill="#FFFBF2" class="Rectangle 6" rx="25"/>
    <path fill="#E4C453" fill-opacity=".6" d="M569.922 533.646c0 1.153-17.516 6.732-26.597 6.732-9.082 0-13.352-5.579-13.352-6.732 0-1.153 9.072-5.628 18.154-5.628 9.081 0 21.795 4.475 21.795 5.628z" class="Ellipse 4.6"/>
    <path fill="#FCE38A" d="M52.846 337.679c-2.124 5.066 6.028 37.61 12.412 46.636 0 2.803 22.212 8.321 24.844 2.803 3.29-6.897.273-45.108-2.453-49.323-2.275-3.517-7.847 12.189-7.847 12.189s-4.213-29.296-5.94-33.692c-.791-2.015-16.622 10.91-21.016 21.387z" class="Vector 2.3_2"/>
    <path fill="#3E3C3C" fill-opacity=".2" d="M218.492 458.223c2.031.642 4.002.139 4.401-1.124.4-1.263-.41-2.243-2.441-2.885-2.032-.643-4.705-1.218-5.104.045-.4 1.263 1.112 3.321 3.144 3.964z" class="Ellipse 3"/>
    <path fill="#3E3C3C" fill-opacity=".2" d="M131.135 436.791c0 2.131-1.727 2.896-3.857 2.896-2.131 0-3.858-.765-3.858-2.896a3.857 3.857 0 017.715 0z" class="Ellipse 3.1"/>
    <path fill="#000" fill-opacity=".05" fill-rule="evenodd" d="M551.39 220.51l52.709 33.606 33.07-51.869-67.026-42.733-33.069 51.869-12.63 19.809 26.946-10.682z" class="Union" clip-rule="evenodd"/>
    <path fill="#0ACF83" d="M65.844 269.481c3.566 0 6.46-2.922 6.46-6.524v-6.524h-6.46c-3.565 0-6.458 2.923-6.458 6.524 0 3.602 2.893 6.524 6.458 6.524z" class="path0_fill"/>
    <path fill="#A259FF" d="M59.386 249.909c0-3.601 2.893-6.524 6.458-6.524h6.46v13.048h-6.46c-3.565 0-6.458-2.922-6.458-6.524z" class="path1_fill"/>
    <path fill="#F24E1E" d="M59.386 236.862c0-3.602 2.893-6.524 6.458-6.524h6.46v13.048h-6.46c-3.565 0-6.458-2.923-6.458-6.524z" class="path1_fill_1_"/>
    <path fill="#FF7262" d="M72.304 230.337h6.459c3.565 0 6.458 2.923 6.458 6.524s-2.893 6.524-6.459 6.524h-6.458v-13.048z" class="path2_fill"/>
    <path fill="#1ABCFE" d="M85.221 249.909c0 3.602-2.893 6.524-6.459 6.524-3.565 0-6.458-2.922-6.458-6.524 0-3.601 2.893-6.524 6.459-6.524 3.565 0 6.458 2.923 6.458 6.524z" class="path3_fill"/>
    <path fill="#FDCD23" d="M128.114 59.981h29.272v30.768h-29.272z" class="Rectangle 4.2"/>
    <path fill="#265ADE" fill-rule="evenodd" d="M323.74 179.315c-4.524-8.988-.904-19.941 8.084-24.464l118.935-59.857c8.988-4.524 19.941-.904 24.465 8.084l124.221 246.827c4.524 8.988.905 19.942-8.083 24.465l-118.936 59.857c-8.988 4.523-19.941.904-24.464-8.084L323.74 179.315zm267.675-13.81l7.007-10.991 4.77 3.04-7.008 10.992-4.746-3.026-6.788 9.999 4.871 3.165 6.68-10.128 34.878 22.238-29.163 45.742-39.141-24.954-25.454 8.343 11.138-17.471 4.61-7.229 24.554-38.513 13.792 8.793zm159.627 98.192h-115.57c-6.075 0-11 4.925-11 11v4.178c0 6.075 4.925 11 11 11h115.57c6.075 0 11-4.925 11-11v-4.178c0-6.075-4.925-11-11-11zm-115.57-1c-6.627 0-12 5.373-12 12v4.178c0 6.627 5.373 12 12 12h115.57c6.627 0 12-5.373 12-12v-4.178c0-6.627-5.373-12-12-12h-115.57zm-42.259 183.08l-.282-.256-.565-.513-.282-.256c-13.747 2.848-43.295 10.576-46.945 22.843-3.649 12.266-2.409 20.401-1.332 22.936l-8.527 9.4 3.988 3.617.565.513 3.988 3.617 8.527-9.401c2.626.825 10.843 1.269 22.697-3.556 11.854-4.826 16.671-34.986 18.168-48.944zm-277.547 3.392c.207 0 .374.167.374.374 0 5.738-.837 12.399-3.948 17.856-3.124 5.48-8.524 9.714-17.557 10.599-11.434 1.119-23.081-8.127-26.815-27.114a.374.374 0 01.734-.144c3.692 18.774 15.104 27.581 26.009 26.513 8.792-.861 13.976-4.956 16.979-10.225 3.017-5.292 3.85-11.8 3.85-17.485 0-.207.168-.374.374-.374zm262.722 85.224a.547.547 0 00-.672-.385c-.795.215-2.479.459-4.689.717a409.86 409.86 0 01-7.588.785l-2.112.202-.083.008h-.002c-4.723.452-9.315.892-11.596 1.261a.546.546 0 00-.453.628.546.546 0 00.628.453c2.242-.362 6.789-.798 11.523-1.251h.001l2.199-.211c2.729-.263 5.405-.529 7.61-.787 2.189-.255 3.96-.507 4.849-.748a.547.547 0 00.385-.672zm-3.866 6.308a.547.547 0 11.228 1.072c-1.466.311-6.714.81-11.859 1.271-1.355.122-2.706.241-3.985.354h-.003v.001c-3.611.318-6.646.586-7.592.714a.547.547 0 11-.147-1.085c.973-.132 4.055-.404 7.682-.724l.006-.001c1.27-.112 2.606-.23 3.941-.35 5.194-.466 10.347-.958 11.729-1.252zm-2.67 7.091a.549.549 0 01.216 1.074c-2.098.422-5.86.452-9.654.453l-.928-.001h-.115c-3.49-.001-6.92-.003-9.18.249a.547.547 0 11-.122-1.088c2.326-.26 5.821-.258 9.287-.256h1.058c3.844-.001 7.473-.036 9.438-.431zM65.992 317.538a.45.45 0 01.48.419c.28 4.171 1.945 16.639 3.034 22.908a.45.45 0 11-.887.154c-1.091-6.284-2.761-18.786-3.046-23.002a.45.45 0 01.42-.479zm-5.883 6.693a.45.45 0 00-.893.111c.434 3.497 2.746 15.97 3.366 19.061a.45.45 0 00.883-.177c-.622-3.094-2.927-15.536-3.356-18.995zm-4.716 5.862a.45.45 0 00-.892.12c.669 4.964 1.72 10.294 3.06 16.265a.45.45 0 10.879-.197c-1.34-5.96-2.383-11.261-3.047-16.188zm230.227 7.437a5.278 5.278 0 016.462-1.066c3.47 1.922 3.659 6.842.346 9.024l-20.157 13.277a15.586 15.586 0 00-3.967 3.763l-5.519 7.485a6.503 6.503 0 01-6.933 2.419c-5.411-1.463-6.561-8.628-1.88-11.711l6.57-4.328 18.381-12.107a13.22 13.22 0 002.499-2.138l4.198-4.618zm-10.012 52.814c3.208-.529 6.497 2.357 8.354 6.879.313-5.293 2.201-21.392 13.566-23.403 23.588 13.104 32.396 15.832 38.277 14.033.712 14.554-1.413 29.373-2.539 32.998-1.364 4.392-7.627 19.269-12.639 19.519-1.623.082-4.695-.508-8.443-1.541v-.001c.253 11.18.197 20.168-7.151 27.081-11.3 10.63-34.526-1.421-28.118-15.123 3.92-8.38 3.854-21.069-1.509-36.701-2.476-1.866-4.523-5.545-5.258-10-1.138-6.904 1.306-13.056 5.46-13.741zm72.748-6.627c-.886-1.244-2.439-2.913-4.561-3.34l.394-1.961c2.889.581 4.826 2.778 5.796 4.142a1 1 0 11-1.629 1.159zM142.75 231.896l15.902 27.543h-31.803l15.901-27.543zm0 203.641c10.024 0 18.151-8.126 18.151-18.15s-8.127-18.151-18.151-18.151-18.15 8.127-18.15 18.151 8.126 18.15 18.15 18.15z" class="Secondary" clip-rule="evenodd"/>
    <path fill="#FF26BE" d="M86.386 184.592H58.238c-4.268 0-7.718-3.468-7.718-7.758v-27.197c0-4.29 3.45-7.758 7.718-7.758h28.148c4.267 0 7.718 3.468 7.718 7.758v27.197c0 4.29-3.45 7.758-7.718 7.758z" class="Vector_2"/>
    <path fill="#2E001F" d="M85.696 182.766H58.928c-3.632 0-6.592-2.975-6.592-6.625V150.33c0-3.65 2.96-6.626 6.592-6.626h26.75c3.65 0 6.592 2.976 6.592 6.626v25.792c.018 3.669-2.942 6.644-6.574 6.644z" class="Vector_3"/>
    <path fill="#FFD9F2" d="M67.754 161.866l5.085 9.821c.091.146.037.292-.109.292h-3.16c-.2 0-.29-.055-.381-.238-1.162-2.409-2.343-4.818-3.56-7.41h-.036a277.542 277.542 0 01-3.45 7.429c-.091.146-.182.2-.327.2h-2.997c-.181 0-.2-.146-.108-.255l4.975-9.528-4.812-9.638c-.109-.146 0-.256.109-.256h3.123c.182 0 .255.037.327.201a380.704 380.704 0 013.396 7.32h.037c1.053-2.41 2.215-4.91 3.341-7.302.09-.146.145-.237.327-.237h2.924c.145 0 .2.11.109.256l-4.813 9.345zm5.975 2.976c0-4.253 2.815-7.575 7.282-7.575.382 0 .581 0 .945.036v-4.837c0-.11.09-.183.181-.183h2.87c.145 0 .181.055.181.146v16.757c0 .493 0 1.113.09 1.789 0 .109-.035.146-.144.201a10.773 10.773 0 01-4.65 1.058c-3.94.018-6.755-2.427-6.755-7.392zm8.227-4.673c-.255-.11-.618-.183-1.054-.183-2.288 0-3.886 1.771-3.886 4.71 0 3.358 1.634 4.709 3.686 4.709.436 0 .909-.055 1.254-.201v-9.035z" class="Vector_4"/>
    <path stroke="#2E001F" stroke-width="3" d="M126.62 147.1h32.279" class="Vector_5"/>
    <path stroke="#2E001F" stroke-width="3" d="M142.75 178.401V147.1" class="Vector_6"/>
    <path stroke="#2E001F" stroke-width="3" d="M138.6 177.966h8.299" class="Vector_7"/>
    <path stroke="#2E001F" stroke-width="3" d="M128.092 147.1v5.154" class="Vector_8"/>
    <path stroke="#2E001F" stroke-width="3" d="M157.386 147.1v5.154" class="Vector_9"/>
    <ellipse cx="702.591" cy="463.259" fill="#CFBBA4" fill-opacity=".2" class="Ellipse 4.5" rx="54.726" ry="2.923"/>
    <path fill="#EDE5D4" fill-opacity=".6" fill-rule="evenodd" d="M666.634 267.525c-5.14.028-9.267 4.203-9.267 9.343 0 5.163 4.186 9.348 9.349 9.348h71.581a9.517 9.517 0 009.517-9.517c0-5.099-3.993-9.238-9.091-9.281-18.127-.152-54.888.015-72.089.107z" class="Intersect_2" clip-rule="evenodd"/>
    <path fill="#EDE5D4" fill-opacity=".3" fill-rule="evenodd" d="M668.725 304.548c-4.84.026-8.727 3.958-8.727 8.799a8.805 8.805 0 008.805 8.805h67.418a8.963 8.963 0 008.963-8.963c0-4.803-3.761-8.702-8.563-8.742-17.072-.143-51.695.014-67.896.101z" class="Intersect_3" clip-rule="evenodd"/>
    <path fill="#EDE5D4" fill-opacity=".3" fill-rule="evenodd" d="M668.725 332.311c-4.84.026-8.727 3.958-8.727 8.799a8.805 8.805 0 008.805 8.804h67.418a8.963 8.963 0 008.963-8.963c0-4.802-3.761-8.701-8.563-8.741-17.072-.143-51.695.014-67.896.101z" class="Intersect_4" clip-rule="evenodd"/>
    <path fill="#EDE5D4" fill-opacity=".3" fill-rule="evenodd" d="M668.725 360.073c-4.84.026-8.727 3.959-8.727 8.8a8.805 8.805 0 008.805 8.804h67.418a8.963 8.963 0 008.963-8.963c0-4.802-3.761-8.701-8.563-8.742-17.072-.143-51.695.014-67.896.101z" class="Intersect_5" clip-rule="evenodd"/>
    <path fill="#FBFBFB" fill-opacity=".99" fill-rule="evenodd" d="M328.799 179.713c-3.794-7.539-.759-16.725 6.78-20.519l25.505-12.836 1.82 3.616c2.918 5.799 9.985 8.134 15.784 5.215l44.743-22.518c5.799-2.918 8.134-9.985 5.215-15.783l-1.82-3.617 25.183-12.674c7.538-3.793 16.725-.758 20.519 6.78L594.387 349.51c3.794 7.538.758 16.725-6.78 20.519l-116.431 58.596c-7.538 3.794-16.725.758-20.519-6.78l-46.849-93.088-33.074-65.719-41.935-83.325zm180.248 211.029a2.104 2.104 0 001.891 3.757l28.284-14.231a2.103 2.103 0 00-1.891-3.757l-28.284 14.231z" class="Subtract" clip-rule="evenodd"/>
    <path fill="#FBFBFB" d="M590.631 445.169a1.542 1.542 0 112.284 2.07l-2.284-2.07zm-25.615 28.264l25.615-28.264 2.284 2.07-25.614 28.264-2.285-2.07z" class="Vector 5"/>
    <path stroke="#F86902" stroke-linecap="round" stroke-width="2" d="M531.361 487.97l-9.291-9.285" class="Vector_10"/>
    <path stroke="#F86902" stroke-linecap="round" stroke-width="2" d="M531.357 478.682l-9.285 9.291" class="Vector_11"/>
    <path stroke="#F86902" stroke-linecap="round" stroke-width="2" d="M533.283 483.326l-13.135.004" class="Vector_12"/>
    <path stroke="#F86902" stroke-linecap="round" stroke-width="2" d="M526.713 476.76l.004 13.135" class="Vector_13"/>
    <path fill="#A259FF" d="M138.06 333.584l-15.449 20.782h40.278l-24.829-20.782z" class="Vector 2_3"/>
    <path stroke="#A259FF" stroke-width="2" d="M123.281 322.641h38.938v30.858h-38.938z" class="Rectangle 9"/>
    <circle cx="153.35" cy="331.802" r="5.303" fill="#0ACF83" class="Ellipse"/>
    <g class="sketch symbol">
      <path fill="#FDB300" d="M60.626 63.844l12.037-1.273L84.7 63.845l9.318 12.51-21.355 24.868-21.355-24.868 9.318-12.51z" class="Path"/>
      <g class="Group">
        <path fill="#EA6C00" d="M59.958 76.355l12.705 24.868-21.355-24.868h8.65z" class="Path_2"/>
        <path fill="#EA6C00" d="M85.368 76.354l-12.706 24.868 21.356-24.868h-8.65z" class="Path_3"/>
        <path fill="#FDAD00" d="M59.957 76.354h25.41l-12.705 24.868-12.705-24.868z" class="Path_4"/>
      </g>
      <g class="Group_2">
        <path fill="#FDD231" d="M72.663 62.572l-12.036 1.272-.669 12.51 12.705-13.782z" class="Path_5"/>
        <path fill="#FDD231" d="M72.663 62.572L84.7 63.844l.668 12.51-12.705-13.782z" class="Path_6"/>
        <path fill="#FDAD00" d="M94.019 76.354l-9.32-12.51.67 12.51h8.65z" class="Path_7"/>
        <path fill="#FDAD00" d="M51.308 76.354l9.318-12.51-.668 12.51h-8.65z" class="Path_8"/>
        <path fill="#FEEEB7" d="M72.663 62.572L59.958 76.354h25.41L72.664 62.572z" class="Path_9"/>
      </g>
    </g>
    <ellipse cx="471.451" cy="462.698" fill="#CFBBA4" fill-opacity=".2" class="Ellipse 4.4" rx="75.247" ry="3.484"/>
    <rect width="128.478" height="24.572" fill="#797979" fill-opacity=".1" class="Rectangle 5" rx="8.263" transform="scale(-1 1) rotate(26.71 -538.56 -1031.365)"/>
    <rect width="34.74" height="24.572" fill="#797979" fill-opacity=".1" class="Rectangle 5.1" rx="8.263" transform="scale(-1 1) rotate(26.71 -609.445 -732.777)"/>
    <rect width="128.478" height="24.572" fill="#797979" fill-opacity=".1" class="Rectangle 5_2" rx="8.263" transform="scale(-1 1) rotate(26.71 -625.507 -1052.007)"/>
    <rect width="34.74" height="24.572" fill="#797979" fill-opacity=".1" class="Rectangle 5.1_2" rx="8.263" transform="scale(-1 1) rotate(26.71 -696.39 -753.42)"/>
    <rect width="128.478" height="24.572" fill="#797979" fill-opacity=".1" class="Rectangle 5_3" rx="8.263" transform="scale(-1 1) rotate(26.71 -712.456 -1072.649)"/>
    <rect width="34.74" height="24.572" fill="#797979" fill-opacity=".1" class="Rectangle 5.1_3" rx="8.263" transform="scale(-1 1) rotate(26.71 -783.342 -774.06)"/>
    <path fill="#000" fill-opacity=".05" fill-rule="evenodd" d="M55.826 364.951l10.335-4.382 27.344-27.344a3 3 0 000-4.243l-1.71-1.71a3 3 0 00-4.242 0l-27.344 27.344-4.383 10.335z" class="Union_2" clip-rule="evenodd"/>
    <path fill="#FDB50D" d="M64.226 353.093l-10.335 4.383 4.383-10.335 27.344-27.345a3.001 3.001 0 014.242 0l1.71 1.71a3 3 0 010 4.243l-27.344 27.344z" class="Rectangle 9_2"/>
    <path stroke="#424242" stroke-linecap="round" d="M87.307 328.897l-4.747-5.008" class="Vector 2_4"/>
    <path fill="#F26578" fill-rule="evenodd" d="M527.523 128.006a8.261 8.261 0 00-11.095-3.667l-100.006 50.32a8.261 8.261 0 00-3.667 11.094l3.616 7.188a8.262 8.262 0 0011.095 3.667l100.007-50.32a8.262 8.262 0 003.667-11.094l-3.617-7.188zm-126.644 63.72a8.263 8.263 0 00-11.095-3.667l-16.271 8.187a8.263 8.263 0 00-3.667 11.095l3.617 7.188a8.262 8.262 0 0011.094 3.667l16.272-8.187a8.263 8.263 0 003.667-11.095l-3.617-7.188zm134.105-30.511a8.263 8.263 0 0111.095 3.668l3.616 7.188a8.26 8.26 0 01-3.667 11.094l-100.006 50.32a8.263 8.263 0 01-11.095-3.667l-3.617-7.188a8.262 8.262 0 013.667-11.094l100.007-50.321zm-115.549 67.39a8.263 8.263 0 00-11.095-3.667l-16.271 8.187a8.263 8.263 0 00-3.667 11.095l3.617 7.188a8.262 8.262 0 0011.094 3.667l16.272-8.187a8.263 8.263 0 003.667-11.095l-3.617-7.188zm7.461 33.214a8.262 8.262 0 0111.094 3.667l3.617 7.188a8.263 8.263 0 01-3.667 11.095l-16.271 8.187a8.263 8.263 0 01-11.095-3.667l-3.617-7.188a8.263 8.263 0 013.668-11.095l16.271-8.187zm123.255-62.02l-1.692 2.654-11.139 17.471 25.455-8.343 5.909 3.767a8.233 8.233 0 01-4.1 4.695l-100.006 50.32a8.263 8.263 0 01-11.095-3.667l-3.617-7.188a8.262 8.262 0 013.667-11.094l96.618-48.615zM241.675 356.203c2.895 3.815 6.777 5.454 11.025 5.599a6.74 6.74 0 011.271-1.082l6.571-4.328 18.38-12.107a13.154 13.154 0 002.499-2.138l4.199-4.618c.095-.104.193-.204.295-.3 1.087-4.243.522-8.596-2.557-12.654-7.543-9.941-27.153-6.011-37.094 1.532-9.941 7.543-12.132 20.155-4.589 30.096zm-132.721 94.9c28.437 19.33 64.648 32.616 99.279 34.474 2.794.15 5.511.293 8.153.429.466 3.547.901 6.974 1.321 10.279v.002c4.474 35.218 7.173 56.47 26.173 59.47 2.984.471 6.61 1.118 10.707 1.85h.002c29.472 5.263 83.305 14.877 97.702-5.518 7.945-11.255 12.592-27.101 15.272-40.449 1.094 1.279 2.29 2.712 3.583 4.26 5.948 7.124 13.932 16.686 23.386 24.887 12.766 11.073 29.18 20.834 51.558 25.313 22.042 4.412 48.427 3.414 80.935-4.594l-11.005-44.673c-27.899 6.873-47.214 6.893-60.9 4.154-13.349-2.672-22.69-8.232-30.441-14.955-6.387-5.54-11.174-11.254-16.755-17.916l-.002-.001c-1.941-2.317-3.978-4.749-6.212-7.328-7.45-8.6-18.582-20.639-35.241-25.07-21.873-5.818-37.418-8.78-54.225-10.578-.108 8.306-1.301 15.209-7.212 20.77-11.299 10.631-34.525-1.421-28.117-15.123 1.092-2.335 1.875-5.006 2.32-7.982a3719 3719 0 00-20.119-.892c-13.442-.573-29.19-1.245-48.418-2.277-25.417-1.364-53.647-11.469-75.879-26.582-22.951-15.6-34.863-33.166-36.314-47.047l-45.759 4.781c3.505 33.546 28.49 61.474 56.208 80.316zm161.194-47.018c.734 4.455 2.781 8.135 5.257 10.001a90.804 90.804 0 012.277 7.689c-.569.638-1.551 1.121-3.068 1.416-22.799-14.453-24.084-27.539-24.948-36.347l-.072-.724c-.527-5.263 1.17-10.329 3.87-14.884a6.534 6.534 0 002.387 1.196c2.589.7 5.342-.26 6.934-2.419l5.518-7.485a15.607 15.607 0 013.968-3.763l20.157-13.277c2.193-1.445 2.852-4.09 2.039-6.271 8.327-2.514 18.291-2.8 28.3 3.3 9.975 6.079 27.07 27.929 19.743 41.136-7.805 6.465-11.537 8.747-44.983-9.834-11.365 2.011-13.253 18.112-13.566 23.404-1.856-4.522-5.145-7.408-8.353-6.879-2.849.469-4.893 3.51-5.53 7.601-.526 1.554-.492 3.187-.103 4.843.043.429.101.862.173 1.297z" class="Primary" clip-rule="evenodd"/>
    <path fill="#3E3C3C" fill-opacity=".2" d="M472.841 553.007c2.032.643 4.002.14 4.402-1.123.399-1.263-.41-2.243-2.442-2.886-2.031-.642-4.704-1.217-5.104.046-.399 1.263 1.113 3.321 3.144 3.963z" class="Ellipse 3.4"/>
    <path fill="#3E3C3C" fill-opacity=".2" d="M263.81 540.128c-2.017-.688-6.573-3.396-7.26-1.38-.688 2.017 2.329 7.198 4.345 7.885 2.017.688 7.422 2.837 8.109.821.688-2.017-3.178-6.639-5.194-7.326z" class="Ellipse 3.3"/>
    <path fill="#fff" fill-opacity=".36" fill-rule="evenodd" d="M285.191 401.605c.886 5.372-.398 10.29-2.968 12.53a443.415 443.415 0 002.826 8.938c1.18 3.603 3.637 6.667 7.061 8.297 6.3 3.001 14.058 5.8 20.074 7.458v.001c3.748 1.033 6.82 1.623 8.443 1.541 5.012-.25 11.275-15.127 12.639-19.519 1.126-3.625 3.251-18.444 2.539-32.998-5.881 1.799-14.689-.929-38.277-14.033-11.365 2.011-13.253 18.11-13.566 23.403.547 1.333.97 2.809 1.229 4.382zm19.442-19.971c-10.162-.79-14.605 4.681-15.552 7.226a1 1 0 11-1.874-.697c1.261-3.391 6.538-9.381 17.581-8.523a1 1 0 01-.155 1.994zm15.6 16.323l7.167 17s-1.687 2.596-4.964 2.878c-3.277.282-5.574-2.295-5.574-2.295l3.371-17.583zm-4.221 25.608a.61.61 0 00-1.014.678c1.244 1.861 3.044 2.727 4.892 2.723 1.831-.005 3.663-.862 5.026-2.346a.609.609 0 10-.898-.825c-1.16 1.262-2.678 1.947-4.131 1.951-1.435.004-2.855-.655-3.875-2.181z" class="Subtract_2" clip-rule="evenodd"/>
    <circle cx="303.933" cy="397.763" r="11.27" fill="#fff" fill-opacity=".2" stroke="#FBFBFB" stroke-width="2.439" class="Ellipse 3_2" transform="rotate(-4.07 303.933 397.763)"/>
    <circle cx="336.527" cy="396.445" r="11.27" fill="#fff" fill-opacity=".2" stroke="#FBFBFB" stroke-width="2.439" class="Ellipse 3.1_2" transform="rotate(-4.07 336.527 396.445)"/>
    <g class="Rectangle 3">
      <path fill="#fff" fill-opacity=".392" d="M303.545 387.518l6.221-.443-12.779 18.977-4.025-4.022 10.583-14.512zM312.633 392.647l1.761 1.586-10.865 15.531-2.391-1.473 11.495-15.644z"/>
    </g>
    <g class="Rectangle 3.1">
      <path fill="#fff" fill-opacity=".392" d="M336.333 385.336l5.542 1.287-12.502 18.001-3.623-4.776 10.583-14.512zM345.422 390.466l1.76 1.585-10.865 15.532-2.391-1.473 11.496-15.644z"/>
    </g>
    <path fill="#3E3C3C" fill-opacity=".2" d="M360.901 474.305c-1.523 1.489-5.997 4.333-4.507 5.856 1.489 1.524 7.474 1.17 8.997-.32 1.524-1.489 5.881-5.343 4.391-6.866-1.489-1.523-7.358-.16-8.881 1.33z" class="Ellipse 3.2"/>
    <path fill="#FFF6E5" fill-rule="evenodd" d="M272.896 532.032c26.304 6.877 48.394 7.552 79.331-.952a3.723 3.723 0 014.077 1.495c-32.812 9.407-57.572 9.828-79.799 4.67-22.187-5.149-41.947-15.884-47.693-20.63-.643-.531-.761-1.538-.265-2.249.497-.712 1.42-.858 2.063-.328 5.328 4.401 20.4 12.915 42.286 17.994z" class="Vector 9 (Stroke)" clip-rule="evenodd"/>
    <path fill="#FFF6E5" fill-rule="evenodd" d="M271.402 503.099c28.757 7.551 52.934 8.775 86.88 1.011a4.186 4.186 0 014.335 1.624c-35.942 8.593-63.023 8.393-87.299 2.673-24.234-5.71-45.779-16.95-52.034-21.843a1.609 1.609 0 011.982-2.534c5.8 4.538 22.231 13.437 46.136 19.069z" class="Vector 9 (Stroke).1" clip-rule="evenodd"/>
  </g>
</svg>
