<svg xmlns="http://www.w3.org/2000/svg" width="1152" height="700" fill="none" viewBox="0 0 1152 700">
  <g class="animation">
    <path fill="#fff" d="M0 0h1152v700H0z"/>
    <path fill="#ECE6E6" d="M404.537 220.33c-82.01 73.689-41.583 199.183-5.231 230.175 69.82 59.524-2.068-68.22 181.836 44.017 183.904 112.236 173.005-239.65 51.001-230.429-79.257 5.99-125.095-135.874-227.606-43.763z" class="Vector"/>
    <g class="plant">
      <path fill="#FFEEC7" d="M486.696 319.634c7.446-.59 18.027 9.745 22.387 14.986 2.003 1.499 5.687 3.111 4.402-2.426-1.606-6.921.645-16.456 4.164-18.883 2.927 4.242 7.928 13.586 4.524 17.023-4.255 4.296-5.062 16.451-.543 11.033 4.52-5.418 2.899-14.77 16.873-19.055.952 5.004.729 17.357-7.785 26.733-10.643 11.719-4.09 19.818.959 12.157 5.05-7.662 7.905-18.505 20.995-22.791 1.626 6.422 3.079 20.649-4.118 26.176-8.996 6.909-22.232 20.546-17.387 23.73 4.845 3.185 15.444-19.244 23.439-23.162 6.397-3.134 11.117-4.662 12.678-5.035 1.513 6.485 1.506 21.321-10.626 28.788-15.166 9.333-28.079 20.351-20.921 23.726 7.157 3.374 11.453-16.07 24.941-22.039 10.79-4.775 13.636-4.098 13.709-3.163.851 5.549-1.148 18.587-15.943 26.35-18.494 9.703-23.75 16.99-18.698 20.549 5.052 3.559 10.349-18.876 35.824-20.716.06 5.984-2.299 19.221-12.218 24.297-12.398 6.344-29.109 18.48-23.026 23.91 6.082 5.431 13.633-15.319 27.475-19.043 11.073-2.979 11.358-2.356 10.116-1.671 1.434 4.739 1.838 15.673-8.022 21.496-12.324 7.28-35.073 21.279-29.314 29.327 5.76 8.048 10.145-8.03 17.168-15.315 5.618-5.828 16.526-9.269 21.277-10.261.129 6.109-1.687 19.372-9.98 23.552-10.366 5.224-31.73 23.339-28.842 28.579 2.887 5.24 11.249-5.223 16.314-10.454 5.065-5.23 12.352-13.637 22.543-14.374 1.822 5.176 2.486 17.171-9.435 23.74-14.901 8.211-28.183 14.554-24.471 21.291 3.712 6.736 3.901-6.541 16.653-10.641 10.202-3.279 15.747-3.472 17.244-3.159.187 4.613-1.676 14.585-10.629 17.567-11.191 3.727-27.462 10.253-23.485 15.868 3.977 5.615 9.674-7.282 15.917-8.771 4.995-1.191 11.132-2.231 13.577-2.602.933 4.364-1.95 14.248-20.951 18.864-3.323 1.18-9.354 4.178-6.891 6.724 3.078 3.183 13.002-7.653 18.377-6.711.56 2.618.119 8.228-6.124 9.717-6.244 1.489-12.153 9.461-14.326 13.261-.978-1.738-3.747-5.741-7.005-7.85-2.301-2.73-5.925-5.643-10.419-6.943-11.03-3.192-17.217-14.42-14.846-15.726 2.37-1.307 15.287 10.116 17.79 8.249 2.503-1.868-5.76-8.048-13.668-11.985-6.327-3.149-11.828-14.787-13.787-20.213 3.657 1.563 11.958 5.999 15.906 11.239l.288.382c4.785 6.356 8.265 10.977 10.979 8.047 2.768-2.989-8.779-12.727-18.883-19.845-8.082-5.694-12.442-18.84-13.611-24.701 2.749 1.25 9.366 4.499 13.844 7.496 5.596 3.747 14.052 19.092 15.995 14.606 1.943-4.486-13.831-16.286-26.129-26.586-9.838-8.239-11.367-20.896-10.902-26.194 3.132.877 10.126 4.276 13.049 10.862 3.654 8.233 18.928 27.138 21.813 21.157 2.885-5.981-20.753-25.644-28.148-34.255-5.915-6.889-6.59-17.836-6.189-22.448 4.36 1.501 9.279 5.621 14.552 11.985 5.273 6.365 18.103 25.641 20.973 17.229 2.87-8.412-20.061-23.586-30.165-30.704-8.082-5.694-11.539-19.338-12.256-25.447 3.401.565 15.949 7.311 20.677 13.488 4.729 6.177 18.353 22.088 19.117 13.861.764-8.228-22.358-21.345-31.784-28.836-7.541-5.993-11.676-19.587-12.801-25.635 14.373 5.253 22.312 14.051 25.406 19.665 3.093 5.614 17.601 21.526 19.132 16.292 1.53-5.235-16.734-23.957-27.499-28.27-8.612-3.451-15.009-16.287-17.13-22.274 1.767.002 20.293 6.382 22.768 10.873 2.475 4.491 8.086 10.669 15.185 15.539 7.099 4.87.793-14.586-17.66-20.03-14.762-4.356-22.893-19.912-25.113-27.146 30.176 10.695 20.37 18.538 35.759 23.231 15.39 4.693.337-11.407-13.757-15.351-11.274-3.155-20.526-18.288-23.743-25.46 8.879-3.917 25.788 15.551 35.258 19.115 9.469 3.564 4.431-8.784-10.826-14.038-12.206-4.203-19.501-17.227-21.622-23.214 7.333-1.114 14.432 3.757 24.418 13.867 9.986 10.11 10.264.199 1.118-5.983-7.317-4.946-12.319-13.541-13.905-17.221z" class="Vector 3"/>
      <path fill="#FFCB56" d="M531.9 451.34c-2.46 74.053 6.074 112.774 12.617 137.466-.978-1.738-3.747-5.741-7.005-7.85-2.301-2.73-5.925-5.643-10.419-6.943-11.03-3.192-17.217-14.42-14.846-15.726 2.37-1.307 15.287 10.116 17.79 8.249 2.503-1.868-5.76-8.048-13.668-11.985-6.327-3.149-11.828-14.787-13.787-20.213 3.657 1.563 11.958 5.999 15.906 11.239l.288.382c4.785 6.356 8.265 10.977 10.979 8.047 2.768-2.989-8.779-12.727-18.883-19.845-8.082-5.694-12.442-18.84-13.611-24.701 2.749 1.25 9.366 4.499 13.844 7.496 5.596 3.747 14.052 19.092 15.995 14.606 1.943-4.486-13.831-16.286-26.129-26.586-9.838-8.239-11.367-20.896-10.902-26.194 3.132.877 10.126 4.276 13.049 10.862 3.654 8.233 18.928 27.138 21.813 21.157 2.885-5.981-20.753-25.644-28.148-34.255-5.915-6.889-6.59-17.836-6.189-22.448 4.36 1.501 9.279 5.621 14.552 11.985 5.273 6.365 18.103 25.641 20.973 17.229 2.87-8.412-20.061-23.586-30.165-30.704-8.082-5.694-11.539-19.338-12.256-25.447 3.401.565 15.949 7.311 20.677 13.488 4.729 6.177 18.353 22.088 19.117 13.861.764-8.228-22.358-21.345-31.784-28.836-7.541-5.993-11.676-19.587-12.801-25.635 14.373 5.253 22.312 14.051 25.406 19.665 3.093 5.614 17.601 21.526 19.132 16.292 1.53-5.235-16.734-23.957-27.499-28.27-8.612-3.451-15.009-16.287-17.13-22.274 1.767.002 20.293 6.382 22.768 10.873 2.475 4.491 8.086 10.669 15.185 15.539 7.099 4.87.793-14.586-17.66-20.03-14.762-4.356-22.893-19.912-25.113-27.146 30.176 10.695 20.37 18.538 35.759 23.231 15.39 4.693.337-11.407-13.757-15.351-11.275-3.155-20.526-18.288-23.743-25.46 8.879-3.917 25.788 15.551 35.258 19.115 9.469 3.564 4.431-8.784-10.826-14.038-12.206-4.203-19.501-17.227-21.622-23.214 7.333-1.114 14.432 3.757 24.418 13.867 9.986 10.11 10.264.199 1.118-5.983-7.317-4.946-12.319-13.541-13.905-17.221 7.446-.59 18.027 9.745 22.386 14.986 8.426 14.223 24.786 57.478 22.818 116.72z" class="Vector 3.1"/>
    </g>
    <path fill="#4B5361" fill-opacity=".3" d="M351.276 402.295C123.427 467.382 520.03 562.137 549 566V352l-50.556 11.341-56.79 11.834-90.378 27.12z" class="Vector 2.3"/>
    <g class="clapboard">
      <path fill="#EE7E79" d="M577.295 432.224v-11.957l-2.989 1.495c-.249-16.69-.598-50.667 0-53.058.747-2.99 2.616-5.979 3.737-6.726 1.12-.747 12.33-9.754 15.319-9.548a1576.696 1576.696 0 00-9.444-5.824 1140.796 1140.796 0 00-9.612-5.819 21862.14 21862.14 0 0147.568-59.517 18827.29 18827.29 0 0136.68-45.585c6.439-7.975 12.823-15.864 19.05-23.54 6.382-7.867 12.6-15.51 18.547-22.792a5513.906 5513.906 0 0119.32-23.54c6.787-8.218 12.894-15.545 18.077-21.672 9.815-11.601 16.321-18.901 17.867-19.803 3.288 1.196 13.576 17.188 18.309 25.035l-15.569 19.429-17.312 21.607-19.513 24.352-18.562 23.166-19.093 23.829-17.935 22.383-19.43 24.248-14.199 17.721 132.271-76.224c6.278 1.195 22.046 11.956 29.145 17.188 4.783 11.358 1.993 34.873 0 45.211l-16.814 9.502-21.672 12.248-21.298 12.036-22.861 12.92-21.229 11.997-21.672 12.248-21.671 12.247-22.419 12.67-21.439 12.116-21.157 11.957z" class="color 2"/>
      <g class="clapboard purple bright">
        <path fill="#4B5361" d="M547.981 562.253V407.189l-16.067-9.715c-1.868-3.362 0-51.563 0-53.057 0-1.196 2.491-4.235 3.737-5.605 1.793-2.392 11.707-7.722 16.44-10.089.535 0 1.846.533 3.737 1.47 0-6.896 117.325-148.33 175.988-218.185 3.288-.299 14.572 8.095 19.803 12.33-1.546.902-8.051 8.202-17.867 19.803-5.183 6.127-11.29 13.454-18.077 21.672a5513.906 5513.906 0 00-19.32 23.54 9263.539 9263.539 0 00-18.547 22.792 13120.275 13120.275 0 00-19.05 23.54 16683.67 16683.67 0 00-17.468 21.672 21256.024 21256.024 0 00-66.78 83.43c3.135 1.875 6.388 3.847 9.612 5.819a1545.517 1545.517 0 0118.412 11.439l3.159-3.914 19.325-23.938 3.297-4.085 132.272-76.224c6.277 1.195 22.045 11.956 29.144 17.188-1.705 0-9.238 3.747-20.55 9.959-6.106 3.353-13.313 7.425-21.298 12.013a2911.918 2911.918 0 00-21.672 12.589 4881.827 4881.827 0 00-21.298 12.563 6893.88 6893.88 0 00-22.045 13.136 8260.168 8260.168 0 00-20.924 12.562 9711.317 9711.317 0 00-44.838 27.172 8355.55 8355.55 0 00-13.078 7.99c.498-4.36 1.196-13.676 0-16.067l-1.494-.944a1625.479 1625.479 0 00-8.968-5.615c-2.989-.206-14.198 8.801-15.319 9.548-1.121.747-2.989 3.736-3.737 6.726-.598 2.391-.249 36.368 0 53.058l2.989-1.495v159.921c-8.07 2.391-23.041-10.96-29.518-17.935z" class="clapboard bright purple shadow"/>
      </g>
      <g class="light">
        <path fill="#F1F1F1" d="M789.732 457.258c-2.69 10.762-142.609 86.438-212.232 122.93V420.267l-2.989 1.495c-.249-16.69-.598-50.667 0-53.058.747-2.989 2.616-5.978 3.737-6.726 1.121-.747 12.33-9.754 15.319-9.547a1570.892 1570.892 0 0110.462 6.558c1.196 2.391.498 11.708 0 16.067-.374 5.978-14.946 38.112-15.319 39.233-.299.897-7.598 4.359-11.21 5.978v11.957l21.157-11.957 21.439-12.116 22.419-12.669 21.672-12.248 21.671-12.247 21.229-11.998 22.862-12.92 21.297-12.036 21.672-12.248 16.814-9.502c1.495 4.185.623 98.394 0 144.975z" class="clapboard_2"/>
      </g>
      <g class="solid">
        <path fill="#fff" d="M577.499 420.267v11.957l21.157-11.957c4.78-16.038 15.161-49.131 18.45-53.201a7518.134 7518.134 0 00-13.078 7.99c-.374 5.978-14.946 38.112-15.32 39.233-.299.897-7.597 4.359-11.209 5.978zM751.619 124.338c3.288 1.196 13.576 17.188 18.308 25.035l-15.568 19.429c-2.291-2.69-2.782-30.763-2.74-44.464zM638.382 354.132c-4.203 6.277-13.943 38.628-18.287 54.019l22.419-12.67c4.857-16.549 15.543-50.835 19.429-55.587a9392.406 9392.406 0 00-23.561 14.238zM682.868 327.332c-3.587 4.268-13.95 39.046-18.683 55.902l21.672-12.248c4.359-16.673 14.273-51.373 19.056-56.79a6679.13 6679.13 0 00-22.045 13.136zM726.211 301.633c-5.68 5.829-15.117 40.666-19.125 57.356l22.861-12.92c3.861-15.794 12.854-49.311 17.935-57.025a2912.61 2912.61 0 00-21.671 12.589zM789.731 267.072c-1.705 0-9.239 3.747-20.551 9.959-4.484 3.783-13.825 39.578-17.935 57.002l21.672-12.248c4.11-17.117 13.226-52.023 16.814-54.713zM584.122 328.724c-3.357 4.209-6.57 8.241-9.612 12.063a1157.04 1157.04 0 019.612 5.819c-2.175-1.333-.906-12.477 0-17.882zM604.028 303.802c-1.332 6.966.555 36.455 1.664 50.33l19.325-23.939c-1.96-12.198-5.292-39.058-2.94-48.923a22296.411 22296.411 0 00-18.049 22.532zM642.514 308.388c-2.99-1.622-2.062-34.697-1.224-51.031 5.819-7.232 11.666-14.487 17.468-21.672-2.549 5.68 1.061 34.669 3.185 48.454l-19.429 24.249zM679.878 261.756c-2.391-4.253-2.377-34.846-2.071-49.61a9263.357 9263.357 0 0118.548-22.793c-2.094 5.978.872 34.874 2.616 48.574l-19.093 23.829zM717.534 214.761c-3.056-5.082-2.513-34.749-1.859-48.948 6.787-8.218 12.893-15.545 18.077-21.671-2.636 4.782 1.098 32.837 3.294 46.267l-19.512 24.352z"/>
      </g>
    </g>
    <g class="Group">
      <g class="Vector 9">
        <path fill="#4B5361" d="M384.872 558.087c.761-2.702.317-6.191 0-7.598-.952-.845-12.362-1.689-12.362.844 0 2.532-2.853 18.573 0 19.417 2.853.844 7.608.844 7.608 0s3.804-.844 7.608-1.688c3.804-.845 16.166-6.754 17.117-9.287.951-2.533-.951-5.91-3.804-5.91-2.282 0-11.729 2.815-16.167 4.222zM425.764 567.373c.317 1.407.761 4.897 0 7.598 4.438-1.407 13.885-4.221 16.167-4.221 2.853 0 4.755 3.377 3.804 5.91-.951 2.532-13.313 8.442-17.117 9.286-3.804.845-7.608.845-7.608 1.689 0 .844-4.755.844-7.608 0-2.853-.844 0-16.885 0-19.418 0-2.532 11.411-1.688 12.362-.844z"/>
      </g>
      <path fill="#C4B7B6" d="M382.018 433.986c4.565-.675 32.334 4.221 45.647 6.754 3.044 10.13 1.268 90.333 0 129.168-2.282 1.35-11.728.563-16.166 0-1.902-5.91-3.804-87.801-3.804-91.178 0-3.376-3.804-9.286-5.706-2.532-1.522 5.403-10.778 53.468-15.216 76.825-2.282 1.351-11.094.563-15.215 0-2.283-10.131 6.022-83.579 10.46-119.037z" class="Vector 8"/>
      <g class="Vector 6">
        <path fill="#FCF4F4" d="M425.764 328.457c0-2.026-4.438-6.473-6.657-8.442-16.167-2.533-14.264 11.819-14.264 20.261 0 8.443-4.755 10.975-3.804 14.352.761 2.702 12.363 5.628 18.068 6.754-1.267-5.628-3.042-16.716 0-16.04 3.804.844 6.657-.845 8.559-5.066 1.902-4.221-1.902-9.286-1.902-11.819zM460 409.503c0-5.403-9.51-16.885-14.265-21.95-5.706 0-13.313 5.91-13.313 7.598 0 1.689 13.313 14.352 13.313 18.573s-15.215 18.573-19.971 21.95c-4.755 3.377 0 16.885 1.902 22.795 1.902 5.909 4.756-2.533 4.756-13.508s9.509-12.664 13.313-16.04c3.804-3.377 14.265-12.664 14.265-19.418zM379.167 395.151c-3.804-1.351-1.585-6.754 0-9.286 0-1.689-7.608-6.754-9.51-1.689-1.902 5.066-1.902 16.041 0 19.418 1.902 3.376 14.265 0 19.97 0 5.706 0 0-5.91 0-8.443 0-2.533-5.705 1.689-10.46 0z"/>
      </g>
      <path fill="#A4C3FE" d="M399.138 350.407c6.086 0 20.288 7.879 26.628 11.819 3.486 1.97 12.287 5.843 16.166 9.287 4.755 4.221 10.144 15.759 12.363 21.95-2.282 6.754-14.265 8.442-19.971 8.442 0 3.377-2.853 7.598-2.853 13.508 0 5.91-1.902 9.287-5.705 12.664-3.804 3.377-2.853 14.352-8.559 13.507-5.706-.844-36.138-2.532-37.089-8.442-.76-4.728.317-31.799.951-44.744-6.847 0-14.898-5.629-18.068-8.443 0-9.286 12.363-21.106 13.314-26.171.951-5.066 15.215-3.377 22.823-3.377z" class="color 1"/>
      <path fill="#4B5361" d="M422.912 322.547c.761-2.702-.951-6.191-1.902-7.598-2.853-4.221-14.265-4.221-19.019-3.377-4.755.844-2.853 6.754-6.657 10.975s-2.853 10.975-.951 15.196c1.902 4.221 11.411 5.066 15.215 5.91 3.804.844 6.657-6.754 3.804-7.598-2.853-.844-.951-4.221-.951-6.754 0-2.533 3.804-1.689 6.657-1.689s2.853-1.688 3.804-5.065z" class="Vector 10"/>
    </g>
    <g class="Group_2">
      <g class="Ellipse">
        <path fill="#8A6564" d="M800.65 193.17c0 9.521-5.789 17.24-12.93 17.24-1.822 0-3.557-.503-5.129-1.41-3.019-1.741-5.442-4.973-6.746-9a22.182 22.182 0 01-1.055-6.83c0-9.522 5.789-17.24 12.93-17.24s12.93 7.718 12.93 17.24z"/>
        <path fill="#8A6564" d="M775.845 200L773 204l-2 3c1.167 1.833 5.8 7.5 7 7.5 1.2 0 3.561-3.667 4.591-5.5-3.019-1.741-5.442-4.973-6.746-9z"/>
      </g>
      <path fill="#8A6564" d="M744.916 291.853c0-3.366-2.353-6.311-3.529-7.363 0-3.155 5.294-3.681 8.382-2.104 3.088 1.578 6.176 7.364 6.617 9.467.441 2.104-.882 2.63-2.647 4.734-1.066 1.271-2.454 2.158-3.97 2.893-.993.482-2.041.898-3.088 1.314-2.647 1.052-1.765-4.733-1.765-8.941z" class="Vector 11"/>
      <path fill="#4B5361" d="M814.294 367.724c-1.724-3.879-4.31-12.75-5.388-16.701 0-2.586 6.465-4.31 9.698-4.849.898.719 3.124 2.694 4.848 4.849 2.155 2.694 7.004 10.236 13.469 12.93 6.465 2.694 11.314-3.232 14.546-2.694 3.233.539.539 4.31-5.926 9.159-6.465 4.849-9.697 4.849-12.93 4.849-3.232 0-2.155 1.616-2.694 3.232-.538 1.616-8.081 5.926-10.236 3.771-2.155-2.155-3.232-9.697-5.387-14.546z" class="Vector 9_2"/>
      <path fill="#4B5361" d="M829.788 310.711c-3.183-2.807-9.231-9.794-11.857-12.936-1.078-2.351 4.081-6.612 6.794-8.449 1.116.279 3.963 1.146 6.429 2.387 3.081 1.55 10.632 6.386 17.632 6.141 6.999-.246 8.937-7.654 12.1-8.511 3.163-.857 2.286 3.693-1.57 10.795-3.857 7.102-6.795 8.449-9.733 9.796-2.939 1.347-1.286 2.367-1.102 4.061.184 1.694-4.876 8.755-7.733 7.694-2.857-1.061-6.98-7.468-10.96-10.978z" class="Vector 9.1"/>
      <path fill="#A4C3FE" d="M800.825 256.743c-6.896-1.293-24.423 8.44-32.325 13.468.718 3.951 2.478 13.469 3.771 19.934 1.616 8.081 21.55 28.554 24.783 32.325-.431 7.327 7.003 23.525 10.775 30.709 3.017 1.293 9.877-3.412 12.93-5.927-2.694-3.771-7.004-30.708-7.543-36.096-.539-5.387-7.004-7.542-14.546-14.007-7.543-6.465-15.624-6.465-12.391-7.004 2.586-.431 8.62-9.159 11.313-13.469 2.155 6.896 14.547 17.599 20.473 22.089 3.017-.862 7.363-7.902 9.159-11.314-3.772-5.387-17.779-29.092-26.399-30.708z" class="color 1_2"/>
      <path fill="#C3B7B6" d="M753.586 208.28c4.523-4.33 13.192-5.412 16.962-5.412 1.57 1.082 5.182 4.113 7.067 7.576 2.356 4.33 5.183 10.824 7.538 13.53 2.356 2.706-1.884 25.977-4.711 35.718-2.827 9.742-5.654 15.153-2.827 18.942 2.262 3.03 11.622 10.282 16.019 13.529 2.042 5.593 4.9 19.483 0 30.307-6.125-6.675-19.034-21.215-21.673-25.977-2.638-4.763-13.697-12.808-18.897-16.236.024 2.322-.283 3.789-1.363 3.789-3.015 0-11.307 2.164-15.077 3.247-.471-.722-1.13-4.33 0-12.989.472-17.318 6.125-36.8 8.952-43.295 2.827-6.494 2.356-17.318 8.01-22.729z" class="Vector 7"/>
      <path fill="#4B5361" d="M789.917 181.637c2.449-.316 4.908-.125 5.832.01-.03 2.202.355 7.15 2.138 9.328 2.229 2.722.806 9.95-.196 12.703-1.002 2.754-3.507 4.659-5.534 5.531-2.028.871-5.841 5.82-6.691 11.748-.849 5.927 6.88 9.847 8.262 8.539 9.443-8.533 7.232-16.279 6.853-18.831-.379-2.552.59-4.11 2.618-7.195 2.028-3.084 2.894-8.503 3.209-11.305.316-2.802-2.171-7.027-2.914-9.409-.742-2.383-2.366-2.069-3.254-2.392-.889-.323-1.543.646-1.874-2.593-.33-3.238-8.149-3.871-12.874-2.774-4.725 1.097-2.448 2.026-7.698 3.737-5.251 1.71-4.459 3.406-7.32 9.607-2.861 6.202-5.299 3.504-10.607 8.412-5.308 4.908-.964 15.643-.319 18.292.646 2.649-3.118 3.593-.922 7.51 2.196 3.918.782 5.314-1.431 8.633-2.214 3.318-1.625 4.74-1.181 8.221.443 3.481.701 4.983 2.447.186 1.746-4.796 4.201-2.696 6.673-4.512 7.609-4.875 10.38-6.683 11.916-13.669 1.536-6.985-4.158-9.862-2.251-12.889 1.907-3.028 1.496-6.598 1.941-10.862.445-4.264 5.663-5.885 8.014-8.752 2.351-2.866 2.102-6.88 5.163-7.274z" class="Vector 10_2"/>
    </g>
    <g class="plant_2">
      <g class="Vector 5">
        <path fill="#EDC7C5" d="M778.823 489.748c-8.023-4.012-24.929-14.786-28.367-25.789 7.45 4.585 23.553 16.161 28.367 25.789zM783.121 487.169c-13.754-14.614-41.433-45.216-42.121-50.718 8.596 1.433 29.055 13.582 42.121 50.718-3.152-14.614-12.034-47.107-22.35-60.173 6.017 2.292 18.912 9.112 22.35 18.052 3.439 8.94 1.433 31.805 0 42.121z"/>
      </g>
      <g class="Vector 4">
        <path fill="#EE7E79" d="M779.628 486.577c1.62-17.519 6.06-54.234 10.865-60.944 4.783 11.531 9.306 39.863-10.865 60.944zM822.486 496.121c-22.765-15.456-34.796-10.467-37.965-6.041 1.522-3.101 3.31-5.697 5.288-7.843 3.421-14.467 14.239-43.937 30.15-46.076a32.735 32.735 0 013.036-.268c4.43-10.464 18.624-29.685 39.961-22.865-7.763 1.49-23.87 6.167-26.197 12.96 5.1-2.692 16.336-6.276 20.484.924-5.067-.798-16.1-1.141-19.69 3.873 5.197-.86 17.167.241 23.469 11.52-7.878-4.255-24.499-11.262-27.957-5.252 12.547 3.474 20.41 13.546 19.95 16.434-8.131-6.175-26.551-16.898-35.179-10.389 11.062 1.93 34.34 9.789 38.958 25.783-13.446-9.276-42.34-25.032-50.348-13.85 16.884 3.984 53.801 17.591 66.405 40.15-19.745-15.549-63.997-39.906-83.042-12.944 12.999-14.099 34.218-8.771 42.186.604 7.345 8.643 23.625 21.147 30.847 26.318-3.966 2.094-17.59 2.418-40.356-13.038z"/>
      </g>
      <path fill="#8A6564" d="M800.314 490.608c-.573 8.309-3.439 25.444-10.316 27.507-8.596 2.579-13.753-1.719-13.753-5.157 0-2.751-1.72-16.046-2.579-22.35-.86-.86-2.235-3.095-.86-5.158 8.31.573 25.445 1.375 27.508 0 2.579-1.719 1.719 4.662 0 5.158z" class="Vector 3_2"/>
    </g>
  </g>
</svg>
