<svg xmlns="http://www.w3.org/2000/svg" width="1152" height="700" fill="none" viewBox="0 0 1152 700">
  <g class="audience">
    <path fill="#fff" d="M0 0h1152v700H0z"/>
    <path fill="url(#paint0_linear)" d="M0 0h1152v700H0z"/>
    <g class="Group 11.1">
      <g class="Group 2">
        <path fill="#1B5C6A" fill-rule="evenodd" d="M728.614 263.819H512.152V624.59h216.462V488.297h30.065v-88.185h-30.065V263.819zm0 144.31v72.151h23.05v-72.151h-23.05z" class="Union" clip-rule="evenodd"/>
        <path fill="#000" fill-opacity=".44" fill-rule="evenodd" d="M728.614 400.112h30.064v8.017h-.001V488.297h-30.064v-8.017h23.275v-72.151h-23.274v-8.017z" class="Union_2" clip-rule="evenodd"/>
        <path fill="#000" fill-opacity=".34" d="M512.152 263.819l68.113 198.283L703.946 624.59H512.152V263.819z" class="Rectangle"/>
        <rect width="75.16" height="100.214" x="557.249" y="400.112" fill="#fff" fill-opacity=".51" class="Rectangle 2" rx="11.024"/>
        <g class="Group 2.1">
          <circle cx="588.815" cy="324.449" r="37.58" fill="#000" fill-opacity=".24" class="Ellipse"/>
          <circle cx="588.815" cy="324.449" r="31.567" fill="#fff" class="Ellipse_2"/>
          <g class="Group">
            <path fill="#000" fill-opacity=".16" fill-rule="evenodd" d="M596.097 296.534l-32.069 38.081-.766-.645 32.068-38.082.767.646zm-10.021.501l-23.049 27.558-.769-.643 23.05-27.558.768.643zm-16.533 46.596l36.077-43.593-.772-.639-36.077 43.593.772.639zm43.092-36.579l-36.077 43.593-.772-.639 36.077-43.593.772.639zM589.08 350.15l25.555-30.064-.764-.649-25.554 30.064.763.649z" class="Union_3" clip-rule="evenodd"/>
            <path fill="#000" fill-opacity=".16" fill-rule="evenodd" d="M580.796 296.534l32.069 38.081.766-.645-32.068-38.082-.767.646zm10.021.501l23.049 27.559.769-.643-23.049-27.559-.769.643zm16.533 46.597l-36.077-43.593.772-.639 36.078 43.593-.773.639zm-43.092-36.58l36.077 43.594.772-.639-36.077-43.593-.772.638zm23.555 43.099l-25.555-30.065.764-.649 25.555 30.065-.764.649z" class="Union_4" clip-rule="evenodd"/>
          </g>
        </g>
        <g class="Group 2.1_2">
          <circle cx="587.316" cy="573.569" r="39.349" fill="#000" fill-opacity=".24" class="Ellipse_3"/>
          <circle cx="587.316" cy="573.57" r="33.053" fill="#fff" class="Ellipse_4"/>
          <g class="Group_2">
            <path fill="#000" fill-opacity=".16" fill-rule="evenodd" d="M594.94 544.34l-33.578 39.874-.802-.676 33.577-39.873.803.675zm-10.492.525l-24.134 28.855-.805-.673 24.134-28.855.805.673zm-17.312 48.789l37.775-45.644-.809-.669-37.774 45.644.808.669zm45.12-38.3l-37.775 45.644-.808-.669 37.775-45.644.808.669zm-24.663 45.126l26.757-31.479-.799-.679-26.757 31.478.799.68z" class="Union_5" clip-rule="evenodd"/>
            <path fill="#000" fill-opacity=".16" fill-rule="evenodd" d="M578.92 544.341l33.577 39.873.803-.675-33.578-39.874-.802.676zm10.491.525l24.134 28.855.805-.673-24.134-28.855-.805.673zm17.312 48.789l-37.774-45.644.808-.669 37.774 45.644-.808.669zm-45.12-38.3l37.775 45.644.808-.669-37.774-45.644-.809.669zm24.663 45.126l-26.757-31.479.8-.68 26.757 31.479-.8.68z" class="Union_6" clip-rule="evenodd"/>
          </g>
        </g>
        <path fill="#000" fill-opacity=".66" fill-rule="evenodd" d="M567.27 422.154a6.013 6.013 0 0112.025 0v56.12a6.013 6.013 0 11-12.025 0v-56.12zm15.031 0a6.013 6.013 0 0112.026 0v8.018a6.013 6.013 0 01-12.026 0v-8.018zm6.013 18.041a6.013 6.013 0 00-6.013 6.013v8.017a6.013 6.013 0 1012.026 0v-8.017a6.013 6.013 0 00-6.013-6.013z" class="Union_7" clip-rule="evenodd"/>
        <path fill="#fff" fill-opacity=".25" fill-rule="evenodd" d="M693.54 392.092a6.013 6.013 0 00-12.026 0v8.018a6.013 6.013 0 0012.026 0v-8.018zm0 25.055a6.013 6.013 0 10-12.026 0v8.017a6.013 6.013 0 0012.026 0v-8.017zM681.514 442.2a6.013 6.013 0 1112.026 0v8.017a6.013 6.013 0 11-12.026 0V442.2zm12.026 87.188a6.013 6.013 0 10-12.026 0v8.017a6.013 6.013 0 0012.026 0v-8.017zm-12.026 25.053a6.013 6.013 0 1112.026 0v8.017a6.013 6.013 0 11-12.026 0v-8.017zm12.026 25.051a6.013 6.013 0 10-12.026 0v8.017a6.013 6.013 0 1012.026 0v-8.017z" class="Union_8" clip-rule="evenodd"/>
      </g>
      <g class="Group 2.1_3">
        <path fill="#FF5E5E" fill-rule="evenodd" d="M411.803 498.177v126.666h211.111V498.177H543.16v-17.594h-2.346v-.001h-46.327v.001h-2.931v17.594h-79.753zm84.444 0h42.222v-13.49h-42.222v13.49z" class="Union_9" clip-rule="evenodd"/>
        <path fill="#000" fill-opacity=".44" fill-rule="evenodd" d="M491.556 498.174v-17.592h2.931v-.001h48.673v17.593h-4.691v-13.621h-42.222v13.621h-4.691z" class="Union_10" clip-rule="evenodd"/>
        <path fill="#000" fill-opacity=".22" d="M411.803 624.843V498.177l131.5 46.736 79.611 79.93H411.803z" class="Rectangle_2"/>
        <rect width="43.981" height="58.642" x="491.556" y="598.453" fill="#fff" fill-opacity=".51" class="Rectangle 2_2" rx="6.451" transform="rotate(-90 491.556 598.453)"/>
        <g class="Group 2.1_4">
          <circle cx="450.49" cy="576.772" r="25.2" fill="#000" fill-opacity=".24" class="Ellipse_5" transform="rotate(-90 450.49 576.772)"/>
          <circle cx="450.49" cy="576.772" r="21.168" fill="#fff" class="Ellipse_6" transform="rotate(-90 450.49 576.772)"/>
          <g class="Group_3">
            <path fill="#000" fill-opacity=".16" fill-rule="evenodd" d="M431.771 571.889l25.536 21.504-.432.514-25.537-21.504.433-.514zm.336 6.719l18.48 15.456-.431.515-18.48-15.456.431-.515zm31.247 11.087l-29.232-24.192-.429.518 29.232 24.192.429-.518zm-24.529-28.896l29.232 24.192-.429.518-29.232-24.193.429-.517zm28.9 15.795l-20.16-17.136-.435.512 20.16 17.136.435-.512z" class="Union_11" clip-rule="evenodd"/>
            <path fill="#000" fill-opacity=".16" fill-rule="evenodd" d="M431.772 582.148l25.536-21.504-.433-.514-25.536 21.504.433.514zm.336-6.719l18.48-15.456-.431-.515-18.48 15.456.431.515zm31.246-11.087l-29.232 24.192-.428-.518 29.232-24.192.428.518zm-24.529 28.896l29.232-24.192-.428-.518-29.232 24.193.428.517zm28.901-15.795l-20.16 17.137-.436-.512 20.161-17.137.435.512z" class="Union_12" clip-rule="evenodd"/>
          </g>
        </g>
        <g class="Group 2.1_5">
          <circle cx="593.059" cy="580.858" r="23.025" fill="#000" fill-opacity=".24" class="Ellipse_7" transform="rotate(-90 593.059 580.858)"/>
          <circle cx="593.059" cy="580.858" r="19.341" fill="#fff" class="Ellipse_8" transform="rotate(-90 593.059 580.858)"/>
          <g class="Group_4">
            <path fill="#000" fill-opacity=".16" fill-rule="evenodd" d="M575.955 576.397l23.332 19.648-.395.47-23.332-19.648.395-.47zm.307 6.139l16.885 14.122-.393.471-16.886-14.122.394-.471zm28.55 10.131l-26.709-22.105-.392.473 26.71 22.105.391-.473zM582.4 566.264l26.709 22.104-.391.473-26.71-22.104.392-.473zm26.406 14.432l-18.42-15.657-.398.467 18.421 15.658.397-.468z" class="Union_13" clip-rule="evenodd"/>
            <path fill="#000" fill-opacity=".16" fill-rule="evenodd" d="M575.956 585.771l23.332-19.648-.396-.47-23.332 19.648.396.47zm.307-6.139l16.885-14.122-.394-.471-16.885 14.122.394.471zm28.55-10.131l-26.71 22.105-.391-.473 26.709-22.105.392.473zM582.4 595.904l26.71-22.104-.392-.473-26.709 22.104.391.473zm26.407-14.432l-18.421 15.657-.397-.467 18.42-15.658.398.468z" class="Union_14" clip-rule="evenodd"/>
          </g>
        </g>
        <path fill="#000" fill-opacity=".66" fill-rule="evenodd" d="M504.457 583.792a3.518 3.518 0 110-7.037h4.691a3.519 3.519 0 010 7.037h-4.691zm0 8.795a3.518 3.518 0 110-7.037h32.84a3.518 3.518 0 010 7.037h-32.84zm10.555-12.313a3.518 3.518 0 003.518 3.518h4.692a3.518 3.518 0 100-7.037h-4.692a3.519 3.519 0 00-3.518 3.519z" class="Union_15" clip-rule="evenodd"/>
        <path fill="#fff" fill-opacity=".25" fill-rule="evenodd" d="M486.864 518.699a3.519 3.519 0 000 7.037h4.692a3.518 3.518 0 100-7.037h-4.692zm14.66.001a3.518 3.518 0 100 7.037h4.692a3.519 3.519 0 000-7.037h-4.692zm14.66 7.037a3.519 3.519 0 010-7.037h4.691a3.518 3.518 0 110 7.037h-4.691zm51.02-7.037a3.518 3.518 0 100 7.037h4.691a3.519 3.519 0 000-7.037h-4.691zm14.659 7.037a3.519 3.519 0 010-7.037h4.691a3.518 3.518 0 110 7.037h-4.691zm14.661-7.037a3.519 3.519 0 100 7.037h4.691a3.52 3.52 0 000-7.037h-4.691z" class="Union_16" clip-rule="evenodd"/>
      </g>
      <g class="Group_5">
        <path fill="#FF8989" fill-rule="evenodd" d="M553.278 132.782l-1.691-13.524c-8.162 1.837-10.399-10.721-5.747-28.982 1.594-6.258 12.751-4.347 18.065 0 4.843 3.963 3.265 15.148 2.216 22.584a243.39 243.39 0 00-.284 2.051c-.966 7.245-1.449 7.487-1.449 7.487l-.483 10.384h-10.627zm-41.491 28.406c2.897-2.657 9.419-12.317 9.419-12.317s4.874-8.976 9.661-7.97c5.142 1.081 4.83 12.559 4.83 12.559l-2.701 11.17c-22.944 26.566-33.526 11.532-35.942 1.871-2.415-9.66-1.932-40.332-1.932-40.332s-3.737-14.176-.966-15.94c2.657-1.691 5.797 5.796 5.797 5.796s1.932-9.419 2.898 0c.312 3.039-.483 10.144-.483 10.144s6.521 37.676 9.419 35.019zm15.168 64.215l13.839-28.008c.264 4.929-.104 9.486-1.233 15.716l36.227 1.932c-.251-3.576-.616-6.574-.947-9.292-.943-7.743-1.609-13.212 1.43-23.312l-29.697 3.712 11.825-22.791-19.321-7.004-7.859 33.507-6.752 20.613-4.976 11.018c-.381.762-1.099 1.795-1.897 2.942-2.179 3.134-4.951 7.121-3.079 8.786 2.559 2.275 9.715-1.54 11.729-3.554 1.421 2.132 4.975 3.554 3.198 0-.164-.329-.43-.704-.736-1.134-.581-.817-1.305-1.836-1.751-3.131zm-38.712 53.578l-13.464 39.741-3.438 7.722c-3.184.389-6.62 1.24-9.896 2.051-3.916.97-7.605 1.884-10.362 1.884-2.521 0-5.161 5.303 9.536 5.303 6.152 0 10.964 1.708 14.107 2.824 1.45.514 2.545.903 3.252.939 1.803.094 5.605-9.289 8.43-16.259v-.001c.683-1.684 1.309-3.228 1.835-4.463 2.338-5.484 5.118-11.303 7.758-16.575l4.086 38.244v8.453c-5.032 3.019-10.902 7.379-14.815 10.287l-.006.004c-.78.58-1.483 1.102-2.085 1.543-2.034 1.491-1.208 2.804 10.868.966 8.888-1.352 15.296-2.817 17.389-3.622 1.402-.54.975-5.175.507-10.249-.231-2.5-.471-5.106-.507-7.382-.275-17.316 4.213-56.514 4.213-56.514h-10.669l-16.739-4.896z" class="Union_17" clip-rule="evenodd"/>
        <path fill="#4655D8" d="M449.12 330.249c1.777-.711 19.903-3.199 19.903-3.199s-2.608 2.036-1.777 3.199c1.777 2.488 15.638 1.066 15.638 1.066l-2.844 9.24s-30.92-4.62-31.986-5.686c-1.31-1.309-.653-3.933 1.066-4.62z" class="Vector 4"/>
        <path fill="#fff" fill-opacity=".09" d="M500.086 340.389l-6.037-56.515h21.602s-4.489 39.199-4.213 56.515c.109 6.894 2.093 16.825 0 17.63-2.094.805-8.502 2.27-17.389 3.623-12.076 1.837-12.902.525-10.868-.966 3.622-2.657 10.868-8.212 16.905-11.834v-8.453z" class="Vector 5.2"/>
        <path fill="#4655D8" d="M480.396 364.724c-1.422-5.687 13.86-12.44 13.86-12.44s5.47 1.665 7.464 1.067c3.554-1.067 7.463-2.844 7.463-2.844l3.199-2.843c2.962 1.54 4.182 10.936 0 12.084-18.126 4.976-30.565 10.662-31.986 4.976z" class="Vector 4_2"/>
        <path fill="#92CBD2" d="M491.741 231.227c25.366-9.966 48.061-20.046 48.061-20.046l35.882 1.69c4.209 33.571 4.934 53.134-46.509 53.134l-6.521 23.668H467.831s-3.14-47.82 23.91-58.446z" class="Vector 2"/>
        <path stroke="#fff" stroke-width=".483" d="M484.029 289.913s-7.507-32.104 8.961-44.281c16.605-12.278 30.272-6.642 42.865-19.372 4.66-4.712 7.991-14.115 7.991-14.115m-48.192 77.214s-2.664-22.417 4.359-33.487c11.068-17.446 35.187-4.774 46.013-22.417 5.311-8.654 8.476-21.31 8.476-21.31m-42.623 77.214s-2.906-16.328 0-25.738c4.53-14.668 17.904-6.961 34.147-12.731 17.921-6.365 16.952-38.745 16.952-38.745" class="Vector 4_3"/>
        <path fill="#1E4278" d="M499.469 117.232l-26.537 8.303s-3.757-6.11-3.894-10.477c-.157-5.011 3.894-12.979 3.894-12.979l26.537 10.805s6.038-1.207 8.453-2.656c2.911-1.747 1.69 8.694.724 10.385-.719 1.258-9.177-3.381-9.177-3.381z" class="Vector 4_4"/>
        <path fill="#FFD6B9" d="M535.696 194.759v-26.567l-18.838-19.321c20.287-22.943 44.197-27.049 51.684-17.147 6.644 8.788 9.419 21.494 9.419 60.619-17.389 2.657-24.091 7.851-42.265 2.416z" class="Vector"/>
        <path fill="#1E4278" d="M559.763 97.616c-2.181-2.415-5.796-5.555-11.445-5.555s-8.99-7.34-4.495-14.732c6.28-8.21 14.056 1.546 21.012 0 8.694-1.932 11.351 13.284 20.287 12.56 8.936-.725 12.076 4.346 18.113 12.316 6.038 7.97 13.767 1.449 21.495 7.97 7.729 6.521 5.555 23.186 0 26.808-5.555 3.623 0 17.389-11.834 17.389-14.591 0-21.012-1.932-27.774-9.902-5.152-3.059-5.313-11.11-13.042-7.487-4.726 2.216-14.973-13.525-12.317-25.118 2.657-11.593 3.54-10.329 0-14.249z" class="Vector 3"/>
      </g>
      <path stroke="#000" stroke-width=".711" d="M466.179 103.141l-28.787-7.464m28.787 16.704l-18.125-2.132m18.125 10.307l-17.414 3.909m-4.621-14.927l-6.752-1.066m8.885 16.704l-6.398 1.421" class="Vector_2"/>
      <path stroke="#000" stroke-width="2.843" d="M313 625.944h526" class="Vector 2_2"/>
    </g>
  </g>
  <defs>
    <linearGradient id="paint0_linear" x1="576" x2="576" y1="0" y2="700" class="paint0_linear" gradientUnits="userSpaceOnUse">
      <stop stop-color="#fff"/>
      <stop offset="1" stop-color="#fff" stop-opacity="0"/>
    </linearGradient>
  </defs>
</svg>
