<svg xmlns="http://www.w3.org/2000/svg" width="1152" height="700" fill="none" viewBox="0 0 1152 700">
  <g class="camera">
    <path fill="#fff" d="M0 0h1152v700H0z"/>
    <path fill="#FFCB56" d="M750.071 267.287c-6.854-1.741-12.001-3.022-18.071 2.117 6.313 1.19 16.089 2.891 24.971 4.141 6.134 5.043 19.189 15.194 22.343 15.455-3.469-2.831-10.384-9.602-10.296-14.044 3.567.291 6.321.335 7.668 0-.725-1.17-3.844-3.485-10.843-4.843-4.272-4.373-14.194-12.662-19.714-10.834l-.658-1.306c7.777.653 25.892 4.899 36.143 16.657-.511-3.375-3.747-11.105-12.596-15.024-8.849-3.919-16.756-4.681-19.604-4.572 4.491-.653 15.64-1.111 24.315 2.286 10.842 4.246 14.785 5.225 25.628 25.475.657-6.641-.066-20.903-8.214-24.822-10.186-4.899-25.3-7.512-37.786-5.226 14.238-3.919 43.7-13.978 47.643-22.861-1.533.108-6.703 1.241-15.114 4.899-8.412 3.657-21.248 10.451-26.615 13.39 5.367-3.593 16.692-12.28 19.058-18.289 2.365-6.01 10.842-27.761 14.785-37.886-6.024 5.334-19.32 19.661-24.314 34.293-4.994 14.632-10.843 18.943-13.143 19.269 2.629-11.648 7.163-37.428 4.272-47.357-2.41 9.472-7.295 32.072-7.558 46.704-.219 2.069-1.445 6.728-4.6 8.818 1.643-8.491 3.483-27.499-2.3-35.599-.657 7.294-1.774 23.254-.985 28.741.985 6.858-2.629 13.717-2.957 12.41-.329-1.306 2.957-24.821-3.286-39.845-1.972 10.831-5.126 34.027-1.972 40.172.658.653 1.578 2.417 0 4.246-1.577 1.829 1.972-.327 3.943-1.633 3.176.983 9.595 3.374 9.857 5.068z" class="plant"/>
    <path fill="#ECE6E6" d="M416.113 272.414c-66.384 22.917-108.419 39.398-149.948 80.817-71.645 79.807-13.314 198.002 74.182 200.696 87.495 2.694 65.051-70.617 184.818-30.643 127.123 42.429 227.933-114.154 179.43-196.992-48.503-82.837-225.08-75.766-288.482-53.878z" class="Vector"/>
    <path fill="#C3B7B6" d="M648.736 272.575V267h19.78v5.575h13.808V267h19.033v5.575h-52.621z" class="color 2"/>
    <path fill="#7D8CA6" d="M801 393h-50.381v-88.088H801V393z" class="Vector_2"/>
    <path fill="#F0EFEC" d="M739.797 272.575c.255-.009.528-.01.815 0h54.044c3.882 0 5.847 5.699 6.345 8.548v23.789h-50.382v-23.789c0-6.632-6.231-8.427-10.007-8.548h-.815z" class="Vector_3"/>
    <path fill="#DAE4FA" d="M576.337 283.354V393h174.282V281.124c0-7.137-7.215-8.673-10.823-8.549H586.414c-10.45 0-11.072 7.186-10.077 10.779z" class="color 1"/>
    <path fill="#fff" d="M701.357 297.85v-16.726h30.975v2.23h-18.286v9.292h18.286v5.204h-30.975z" class="Vector_4"/>
    <path fill="#EE7E79" fill-rule="evenodd" d="M643.139 301.567c-10.325-1.116-31.498 4.757-33.588 37.168-2.612 40.513 29.482 40.885 37.693 38.655h30.228c12.316-5.575 21.272-22.673 20.153-46.089-.896-18.733-16.794-27.628-24.631-29.734h-28.566a9.554 9.554 0 00-1.289 0zm1.119 10.035c6.718 1.487 12.838 7.805 14.928 18.212 3.673 19.952-3.632 32.987-13.062 37.907-27.765-22.602-12.813-46.83-1.866-56.119z" class="Vector_5" clip-rule="evenodd"/>
    <path fill="#fff" fill-rule="evenodd" d="M643.139 301.567c-10.325-1.116-31.498 4.757-33.588 37.168-2.612 40.513 29.482 40.885 37.693 38.655 8.21-2.23 24.257-13.009 22.765-46.089 0-18.212-18.287-30.335-26.87-29.734zm-25.004 44.973c-2.09-30.329 16.545-35.929 26.123-34.938 6.718 1.487 12.838 7.805 14.928 18.212 3.673 19.952-3.632 32.987-13.062 37.907-11.651 6.079-26.546-.228-27.989-21.181z" class="Vector_6" clip-rule="evenodd"/>
    <g class="Group 2">
      <path fill="#4B5361" d="M771.199 470.572c-12.071 11.846-33.754 3.366-43.087-2.355-4.289-2.356 1.677-5.553-2.347-11.61-4.024-6.058 2.347-12.956 5.365-16.322 2.414-2.692 2.123-11.105 1.676-14.975-1.117-2.187 1.719-12.044 8.157-12.717 8.047-.842 14.477 3.967 14.477 7.669 0 3.702 2.179 10.096 8.382 18.172 6.203 8.077 4.862 8.077 3.856 15.144-1.006 7.067 9.221 10.264 3.521 16.994z" class="Vector 9"/>
      <g class="Vector 12">
        <path fill="#8A6564" d="M742.796 584c.54-4.171-.901-7.007-1.69-7.904-1.351 1.749-5.743 1.289-7.77.841-5.068 2.354-14.967 7.433-14.021 8.913.946 1.48 16.048-.617 23.481-1.85zM786.209 568.36c-.27 1.884-4.617 4.036-6.757 4.877-2.534 5.045-7.601 14.665-6.926 14.799.845.168 19.427-11.94 19.427-14.799s-5.406-7.231-5.744-4.877zM741.106 441.14c-7.162-2.557-6.362-10.819-5.067-14.631 1.858.841 5.067-1.682 6.757-1.682 1.689 0 2.702 3.195 4.223 5.045 1.52 1.85 5.405 2.186 4.223 3.7-.946 1.211-3.21 4.316-4.223 5.718.563 1.513 1.621 4.978 1.351 6.727-.27 1.749-4.955.728-7.264 0v-4.877zM751.749 394.893c0 3.363 3.153 4.54 4.73 4.709 1.295-.393 3.885-1.379 3.885-2.187 0-1.009-.845-2.522-1.521-1.681-.675.84-4.054 1.177-4.392.504-.337-.672-2.702-3.027-2.702-1.345zM732.829 399.602c-1.216 0-3.772-1.458-4.899-2.187 2.196-6.222 4.561-4.372 4.561-2.859 0 1.514 1.352 1.178 2.196 1.178.845 0 2.365-1.178 2.365 0 0 1.177-2.703 3.868-4.223 3.868z"/>
      </g>
      <path fill="#C3B7B6" d="M758.969 483.692c-1.481-1.213-18.456.506-26.758 1.516l-3.029 90.962h13.968l2.187-74.622c2.412 7.692 7.237 24.054 7.237 27.962 0 3.908 14.585 32.735 21.877 46.66l11.949-7.074c-5.778-12.746-17.772-39.316-19.522-43.629-2.187-5.39-6.058-40.259-7.909-41.775z" class="color 2_2"/>
      <path fill="#DAE4FA" d="M747.945 443.46c-4.159 3.501-7.1 1.459-8.05 0-4.528-5.612-13.785-17.205-14.59-18.686-1.006-1.852 6.54-22.558 6.54-23.736 0-.943-3.242-2.077-4.863-2.525-2.851 7.238-8.687 22.625-9.223 26.261-.537 3.636 9.726 19.696 14.925 27.271l-2.18 31.985c4.695 6.734 22.863 1.571 31.36-1.852-1.286-9.595-3.589-29.055-2.516-30.133 1.342-1.346 12.243-24.746 12.243-27.271 0-2.525-9.559-25.756-10.23-26.261-.537-.404-4.249 1.515-6.037 2.525 2.739 7.631 8.217 23.433 8.217 25.588 0 2.154-7.603 12.12-11.404 16.834h-4.192z" class="color 1_2"/>
    </g>
    <g class="Group 2_2">
      <path fill="#FFCB56" d="M679.453 452.007c-7.702.504-13.326-9.871-15.176-15.121 5.548-4.725 1.306-12.128 3.59-11.183 2.285.945 15.339-4.095 18.929 4.725 3.59 8.821 2.284 20.949-7.343 21.579z" class="Vector 13"/>
      <g class="Vector 17">
        <path fill="#4B5361" d="M617.879 584.222c-4.353 0-5.655-1.687-5.762-2.53-.747 1.634-2.433 4.902-3.201 4.902-.96 0-12.324-2.372-11.204 0 1.121 2.373 10.564 5.22 12.164 4.112 1.281-.885 2.028.37 2.241 1.108h5.762c1.28 0 .534-5.061 0-7.592zM679.339 574.416c-1.024 2.657-4.268 3.005-5.762 2.847v5.694c0 3.005-14.084 10.913-5.921 9.964 8.162-.949 15.845-12.653 15.845-14.393 0-1.391-2.775-3.321-4.162-4.112z"/>
      </g>
      <path fill="#DAE4FA" d="M616.379 539.554c0-6.883 11.107-35.162 16.66-48.44 7.177 0 23.282 7.33 30.438 10.995-1.068 8.604-3.204 26.706-3.204 30.275 0 3.569 12.922 25.389 19.384 35.852l-10.573 10.517c-5.554-11.154-17.782-34.61-22.268-39.199-4.485-4.589-5.713-16.996-5.767-22.626-7.818 9.688-14.578 46.634-16.981 63.897l-14.257-2.072c2.189-10.198 6.568-32.315 6.568-39.199z" class="color 1_3"/>
      <path fill="#C3B7B6" d="M687.985 474.15c-3.578-7.211-20.341-20.066-28.275-25.593l-8.467-11.911-10.863 6.76 5.591 10.946-15.016 34.285c2.939 11.589 21.992 14.164 31.151 14.004l8.147-24.95c2.982 2.415 9.266 7.244 10.544 7.244 1.278 0 5.325-7.19 7.188-10.785z" class="color 2_3"/>
      <g class="Vector 14">
        <path fill="#EDC7C5" d="M668.848 431.483c-1.541 0-3.852 3.092-4.814 4.638-1.486 2.08 0 7.198 0 9.917 0 2.176-1.391 3.573-2.087 3.999-3.722 8.19 4.012 8.425 8.345 7.518 0-1.066.128-3.711.642-5.758.641-2.559 1.604-3.999 3.69-3.999s4.814-2.239 5.456-3.679c.514-1.152-.642-1.759-1.283-1.919-.642.106-1.798-.224-1.284-2.4.642-2.719-1.605-3.679-3.851-3.679-2.247 0-2.889-4.638-4.814-4.638zM651.036 438.841c-.642 2.175-4.44 4.425-6.259 5.278-6.258-3.679-9.949-41.108-11.874-43.507-1.926-2.399-3.049-7.198-2.407-7.358.642-.16 2.888-.64 3.53 1.12.642 1.759 2.888 3.519 2.888 2.079s1.124-3.039 1.605-1.44c.385 1.28-.16 3.2-.481 3.999.535 1.44 1.765 5.887 2.407 12.157.642 6.27 7.328 21.06 10.591 27.672zM680.08 480.588c.642-2.175 4.44-4.425 6.259-5.278 6.258 3.679 9.949 41.108 11.874 43.507 1.926 2.399 3.049 7.198 2.407 7.358-.642.16-2.888.64-3.53-1.12-.642-1.759-2.889-3.519-2.889-2.079s-1.123 3.039-1.604 1.44c-.385-1.28.16-3.199.481-3.999-.535-1.44-1.765-5.887-2.407-12.157-.642-6.27-7.328-21.06-10.591-27.672z"/>
      </g>
    </g>
    <path fill="#7D8CA6" d="M370.5 584H279l33-61h89l-30.5 61z" class="Vector_7"/>
    <path fill="#4B5361" d="M401 523l-30.5 61H433l-32-61z" class="Vector_8"/>
    <g class="standing">
      <path fill="#4B5361" d="M345.614 265.124c-15.423-2.04-19.844 12.406-20.127 19.883-18.717 6.324-13.391 23.104-8.389 30.703-5.722 3.374-14.848 13.644-5.572 27.728 11.595 17.606 48.337 7.227 56.163-14.615 6.261-17.474-1.018-29.052-5.44-32.657.881-9.497-1.213-29.003-16.635-31.042z" class="Vector 8"/>
      <g class="Vector 7">
        <path fill="#4B5361" d="M307.318 514.151c-.482-4.1 4.399-5.295 6.9-5.38 1.452 1.169 5.292 4.593 9.035 8.947 4.678 5.441 10.812 18.105 9.26 19.359-1.551 1.254-24.593-17.801-25.195-22.926zM395.071 527.652c-1.758-2.096-1.566-5.877-1.25-7.506 4.306-.717 9.438-3.728 11.465-5.144 5.557.65 17.258 2.151 19.605 2.955 2.347.803 2.304 3.265 1.99 4.396l-31.81 5.299z"/>
      </g>
      <path fill="#C4B7B6" d="M377.223 373.915c-6.344-5.223-30.427 2.452-41.676 6.942 4.723 16.686 14.644 52.914 16.548 64.346 1.904 11.431-24.231 43.199-37.537 57.654 4.108 7.621 14.669 13.003 19.436 14.741 12.485-18.876 37.841-57.047 39.387-58.723 1.545-1.675 1.551-14.522 1.361-20.737l12.394 74.406c6.575 2.956 18.522-1.397 23.674-3.944l-33.587-134.685z" class="color 2_4"/>
      <path fill="#DAE4FA" d="M349.221 304.298c-3.144 1.742-10.482 2.254-13.758 2.292-1.829.643-6.149 2.192-8.802 3.243-3.316 1.314-11.045 17.067-12.024 21.798-.783 3.785 5.903 8.66 9.345 10.625l6.016-4.809 6.873 45.805c4.253-7.205 27.321-10.303 38.322-10.952-4.857-16.025-14.212-48.034-12.771-47.868 1.442.166 7.782.734 10.771.998 2.815-3.718 1.192-12.55.029-16.501-6.69-2.269-20.857-6.372-24.001-4.631z" class="color 1_4"/>
      <g class="Vector 4">
        <path fill="#EDC7C5" d="M357.164 292.209c.03-8.064-5.686-16.961-8.547-20.401 2.424 6.311-5.901 16.092-10.367 20.194.829 1.541 1.982 5.714-.037 10.079-2.524 5.457-2.161 6.106-.219 7.461 1.942 1.355 11.69-1.947 9.748-3.303-1.554-1.084-.635-2.282-1.179-5.549 3.521.533 10.571-.418 10.601-8.481zM372.741 323.155c-3.129-1.714-2.484-7.798-1.77-10.626 8.123.001 24.913-.087 27.086-.449 2.717-.452 10.495-28.431 10.745-29.98.249-1.549.412-12.767.617-14.579.206-1.812 2.347-1.153 2.347.371 0 1.219.192 4.708.288 6.301 1.441.014 4.446.783 4.94 3.749.494 2.965-2.017 5.161-3.335 5.888-1.839 11.82-6.117 35.813-8.521 37.23-2.404 1.416-22.6 1.986-32.397 2.095zM324.125 339.126c-.494-2.965-5.475-5.437-7.904-6.303-2.113 3.061-6.71 9.702-8.192 11.778-1.482 2.075-19.498-4.795-28.321-8.489-1.276-1.565-13.667-7.374-14.243-7.786-.576-.412-1.235.205-1.07 1.194.131.791 3.622 3.46 5.351 4.696-.563 1.194-1.392 4.143-.206 6.383 1.186 2.241 6.12 1.182 8.439.372 6.82 3.859 21.974 12.137 28.033 14.378 6.06 2.242 14.6-9.881 18.113-16.223z"/>
      </g>
    </g>
    <g class="plant_2">
      <g class="Vector 5">
        <path fill="#FFCB56" d="M441.195 550.018c-8.526-4.264-26.492-15.713-30.146-27.406 7.917 4.872 25.03 17.174 30.146 27.406zM445.763 547.277c-14.617-15.53-44.032-48.051-44.763-53.898 9.135 1.523 30.877 14.434 44.763 53.898-3.35-15.53-12.79-50.061-23.752-63.947 6.395 2.436 20.098 9.684 23.752 19.184 3.654 9.501 1.522 33.801 0 44.763z"/>
      </g>
      <path fill="#8A6564" d="M464.033 550.931c-.609 8.831-3.655 27.04-10.963 29.233-9.135 2.741-14.616-1.827-14.616-5.481 0-2.923-1.827-17.053-2.741-23.752-.913-.913-2.375-3.289-.913-5.481 8.831.609 27.04 1.462 29.233 0 2.74-1.827 1.827 4.954 0 5.481z" class="Vector 3"/>
      <g class="Vector 4_2">
        <path fill="#FADB96" d="M450.331 549.104c-9.44-16.139-28.319-50.609-28.319-59.379 11.267 7.004 32.704 28.685 28.319 59.379zM493.267 530.833c-29.233.731-36.541 12.485-36.541 18.271-.604-3.621-.665-6.97-.283-10.049-5.996-14.616-14.882-46.772-2.458-58.465a35.042 35.042 0 012.458-2.11c-2.647-11.782-2.275-37.172 20.38-44.48-5.786 6.09-16.809 20.098-14.616 27.406 2.74-5.481 10.231-15.53 18.27-11.876-4.872 2.446-14.616 8.976-14.616 15.53 3.958-3.959 14.982-10.414 27.406-4.568-9.44 1.199-28.137 5.428-27.406 12.76 12.99-4.762 26.015-.924 27.406 1.857-10.847-.305-33.397 1.827-36.824 12.789 10.752-5.177 35.727-12.789 49.613-1.827-17.357.304-52.071 4.567-52.071 19.184 17.052-7.004 57.369-18.088 82.217-6.395-26.681-1.218-79.986 5.116-79.759 40.195 2.508-20.224 24.138-28.75 36.824-25.578 11.693 2.923 33.495 3.654 42.935 3.654-2.131 4.263-13.703 12.972-42.935 13.702z"/>
      </g>
    </g>
    <g class="Group 3.2">
      <path fill="#B6C7E5" d="M240.918 394.408c-4.432 1.499-7.507 9.142-8.491 12.776-.714 1.221-2.358 2.902-3.22-.139-1.077-3.801-5.115-7.964-7.83-8.316-.451 2.797-.619 8.609 2.321 9.487 3.675 1.097 7.643 6.9 3.493 5.313-4.15-1.587-5.919-6.591-15.154-5.346.899 2.698 4.59 8.74 12.168 11.319 9.472 3.224 8.057 8.795 2.957 6.229-5.1-2.566-9.862-7.23-18.591-6.198.922 3.56 4.194 10.928 9.908 11.925 7.142 1.247 18.652 4.793 16.797 7.529-1.855 2.736-14.391-5.782-20.098-5.793-4.565-.009-7.708.372-8.709.563 1.005 3.564 5.289 10.882 14.387 11.649 11.373.96 21.942 3.292 18.819 6.678-3.124 3.385-11.192-5.176-20.634-4.878-7.553.238-8.987 1.255-8.759 1.735 1.114 2.942 6.019 8.895 16.726 9.168 13.385.342 18.495 2.674 16.63 5.644-1.864 2.971-11.368-6.825-26.481-1.609 1.692 2.967 6.861 8.931 14.002 9.051 8.927.149 21.993 2.12 20.078 6.262-1.916 4.141-12.223-4.281-21.22-2.791-7.197 1.192-7.18 1.568-6.272 1.607.546 2.683 3.469 8.175 10.792 8.678 9.154.629 26.213 2.068 25.238 7.423-.975 5.356-8.123-1.523-14.244-3.429-4.897-1.525-12.133-.601-15.138.052 1.688 3.045 6.553 9.153 12.506 9.221 7.44.086 24.894 3.888 24.752 7.168-.141 3.279-7.945.127-12.353-1.236-4.408-1.364-11.004-3.76-17.049-1.673.45 2.992 3.53 9.069 12.248 9.445 10.898.469 20.33.406 20.148 4.622-.182 4.216-4.12-2.289-12.601-1.247-6.785.835-10.015 2.072-10.781 2.587 1.223 2.321 5.166 6.793 11.15 6.112 7.481-.851 18.677-1.542 18.02 2.184-.657 3.727-7.637-1.267-11.641-.501-3.202.613-7.015 1.575-8.521 1.98.724 2.378 5.226 6.561 17.433 4.271 2.243-.217 6.559-.187 5.884 1.661-.844 2.31-9.649-.65-12.454 1.106.434 1.427 2.305 4.089 6.308 3.323 4.003-.767 9.685 1.747 12.025 3.099.058-1.093.489-3.734 1.745-5.557.53-1.9 1.764-4.209 3.961-5.931 5.392-4.226 5.695-11.254 3.961-11.328-1.733-.075-5.832 8.666-7.803 8.347-1.971-.32.975-5.356 4.366-9.199 2.713-3.075 2.505-10.14 2.061-13.288-1.642 1.65-5.114 5.834-5.862 9.369l-.055.258c-.906 4.287-1.564 7.403-3.963 6.609-2.447-.809 1.354-8.389 5.084-14.33 2.984-4.753 1.687-12.287.666-15.46-1.213 1.278-4.064 4.472-5.762 7.027-2.123 3.194-2.536 12.797-4.942 11.051-2.407-1.746 3.218-11.36 7.287-19.398 3.254-6.431.478-13.043-1.316-15.545-1.54 1.185-4.563 4.543-4.336 8.496.283 4.94-3.006 17.94-6.383 15.682-3.376-2.257 4.482-17.642 6.23-23.668 1.399-4.821-1.372-10.384-2.932-12.564-2.062 1.789-3.69 5.004-4.872 9.412-1.182 4.408-2.966 17.003-7.035 13.543-4.069-3.461 4.679-16.46 8.409-22.401 2.984-4.753 1.027-12.315-.325-15.503-1.784 1.097-7.02 7.442-7.945 11.627-.924 4.184-4.133 15.31-6.944 11.434-2.81-3.876 6.641-15.906 9.875-21.869 2.588-4.769 1.033-12.471-.067-15.725-6.712 6.047-8.718 12.296-8.869 15.81-.152 3.514-3.866 14.853-6.252 12.638-2.386-2.215 2.668-15.843 7.585-20.559 3.934-3.773 3.893-11.645 3.38-15.109-1.011.426-9.774 8.028-9.896 10.839-.121 2.81-1.551 7.208-4.209 11.317-2.658 4.11-4.661-7.006 4.331-14.128 7.193-5.698 7.359-15.328 6.543-19.431-14.187 12.531-6.311 14.043-13.766 20.058-7.455 6.015-3.483-5.547 3.446-10.881 5.543-4.267 6.473-13.958 6.246-18.27-6.212.202-10.275 13.873-14.667 17.908-4.392 4.034-5.07-3.27 2.147-9.53 5.774-5.008 6.192-13.187 5.68-16.651-4.519 1.213-7.177 5.323-9.977 12.712-2.799 7.389-5.817 2.565-2.365-2.684 2.761-4.199 3.144-9.642 2.991-11.839z" class="Vector 3_2"/>
      <path fill="#DAE4FA" d="M253.036 470.259c22.769 35.947 29.053 57.104 32.431 70.86.058-1.093.489-3.734 1.745-5.557.53-1.9 1.764-4.209 3.961-5.931 5.392-4.226 5.695-11.254 3.961-11.328-1.733-.075-5.832 8.666-7.803 8.347-1.971-.32.975-5.356 4.366-9.199 2.713-3.075 2.505-10.14 2.061-13.288-1.642 1.65-5.114 5.834-5.862 9.369l-.055.258c-.906 4.287-1.564 7.403-3.963 6.609-2.447-.809 1.354-8.389 5.084-14.33 2.984-4.753 1.687-12.287.666-15.46-1.213 1.278-4.064 4.472-5.762 7.027-2.123 3.194-2.536 12.797-4.942 11.051-2.407-1.746 3.218-11.36 7.287-19.398 3.254-6.431.478-13.043-1.316-15.545-1.54 1.185-4.563 4.543-4.336 8.496.283 4.94-3.006 17.94-6.383 15.682-3.376-2.257 4.482-17.642 6.23-23.668 1.399-4.821-1.372-10.384-2.932-12.564-2.062 1.789-3.69 5.004-4.872 9.412-1.182 4.408-2.966 17.003-7.035 13.543-4.069-3.461 4.679-16.46 8.409-22.401 2.984-4.753 1.027-12.315-.325-15.503-1.784 1.097-7.02 7.442-7.945 11.627-.924 4.184-4.133 15.31-6.944 11.434-2.81-3.876 6.641-15.906 9.875-21.869 2.588-4.769 1.033-12.471-.067-15.725-6.712 6.047-8.718 12.296-8.869 15.81-.152 3.514-3.866 14.853-6.252 12.638-2.386-2.215 2.668-15.843 7.585-20.559 3.934-3.773 3.893-11.645 3.38-15.109-1.011.426-9.774 8.028-9.896 10.839-.121 2.81-1.551 7.208-4.209 11.317-2.658 4.11-4.661-7.006 4.331-14.128 7.193-5.698 7.359-15.328 6.543-19.431-14.187 12.531-6.311 14.043-13.766 20.058-7.455 6.015-3.483-5.547 3.446-10.881 5.543-4.267 6.473-13.958 6.246-18.27-6.212.202-10.275 13.873-14.667 17.908-4.392 4.034-5.07-3.27 2.147-9.53 5.774-5.008 6.192-13.187 5.68-16.651-4.519 1.213-7.177 5.323-9.977 12.712-2.799 7.389-5.817 2.565-2.365-2.684 2.761-4.199 3.144-9.642 2.991-11.839-4.432 1.499-7.507 9.142-8.491 12.776-.72 9.043 2.393 34.318 20.609 63.075z" class="Vector 3.1"/>
    </g>
  </g>
</svg>
