<svg xmlns="http://www.w3.org/2000/svg" width="1152" height="700" fill="none" viewBox="0 0 1152 700">
  <g class="congratulations">
    <path fill="#fff" d="M0 0h1152v700H0z"/>
    <path stroke="#000" d="M396 221.5l-4.5-12 10-4 4 18.5-9.5-2.5z" class="Vector 8"/>
    <path stroke="#000" d="M662 168.5l6.5-11.5h12l-5 11.5H662z" class="Vector 8_2"/>
    <path stroke="#000" d="M370.5 267.5L366 257l15.5-6.5 3.5 10-14.5 7z" class="Vector 8_3"/>
    <g class="Group">
      <path stroke="#000" d="M480.139 321.863c2.828-.257 7.82 3.321 9.962 5.142-2.313 1.8-3.32 9.962-3.535 13.819-3.535.964-12.855 15.104-13.497 17.675-.514 2.057-3.428.857-4.821 0-1.607-7.713 8.356-36.315 11.891-36.636z" class="Vector 3"/>
      <path stroke="#000" d="M520.485 332.481c2.828-.257 7.82 3.321 9.962 5.142-2.314 1.8-3.321 9.963-3.535 13.819-3.535.964-12.855 15.105-13.498 17.676-.514 2.056-3.428.857-4.82 0-1.607-7.713 8.356-36.315 11.891-36.637z" class="Vector 3.1"/>
      <g class="girl">
        <path stroke="#000" d="M526.894 225.762c-2.707 10.134-10.348 5.34-13.829 1.676-.508-1.525-1.688-4.877-2.351-6.087-.828-1.512 4.529-7.887.297-7.536-4.232.352-7.059-3.015-4.583-3.88 2.476-.864 2.404-2.791-.181-4.817-2.584-2.025.873-12.767 2.763-13.802 1.891-1.036 3.548 1.989 6.096 3.051 2.548 1.063 6.78.711 8.121.468 1.073-.195.406 2.236-.063 3.475 2.777.282 7.162 2.665 2.495 9.94-4.667 7.275-1.121 14.706 1.235 17.512z" class="Vector 3_2"/>
        <path stroke="#000" d="M514.009 216.597c.857 2.283-3.88 4.583-6.356 5.448a14.941 14.941 0 01-8.744-1.289c-3.926-1.855-6.745-5.102-8.372-7.525-2.657-3.952 1.026-3.511 1.854-1.999.829 1.513 1.404-3.718.09-7.914-1.315-4.195 1.358-10.084 4.005-11.533 2.647-1.45 1.954-4.511 3.358-8.23 1.404-3.718 1.989-3.547 4.195-1.315 2.207 2.233.306-2.134 2.953-3.583 2.647-1.45 4.511 1.953 6.033 6.527 1.522 4.573-5.761 11.021-6.202 14.703-.441 3.682 3.008 8.184 3.629 9.318.621 1.135-4.61.559-3.952 2.657.657 2.098 6.437 1.881 7.509 4.735z" class="Vector 6"/>
      </g>
      <path stroke="#000" d="M515.015 228.411c2.748-.214 8.834-1.922 11.19-7.046m-11.19 7.046h-6.774c-2.159 2.028-7.892 6.021-13.546 5.764-5.654-.256-23.167-12.917-31.216-19.215-2.16.64-6.479 2.818-6.479 6.405 0 4.484 27.682 24.66 34.75 24.66h12.074c.294 4.164 5.54 10.656 7.657 16.654 3.534 10.014 7.067 28.824 5.301 29.785-1.767.96 12.368 4.163 28.565 0a172.458 172.458 0 00-.857-4.804m-29.475-59.249c0 8.327 11.19 20.497 18.258 26.902 4.877 4.42 9.083 21.232 11.217 32.347m-18.285-66.295c2.356-5.124 7.461-8.754 9.718-9.928l2.356-53.164c3.043-.961 9.365-2.306 10.308 0 1.177 2.883 5.681 47.622.969 55.949 1.276.64 2.891 7.373 3.534 9.623.883 3.092 1.709 13.677 7.502 23.225 7.602 12.528 12.074 22.418 11.78 29.784-3.338 1.281-9.414 3.824-10.828 7.923m-35.339-63.412l3.24 4.484c6.478 0 9.718 4.804 15.902 15.052 4.948 8.199 12.86 32.667 16.197 43.876m0 0c-3.534 2.306-12.841 2.883-17.054 2.883" class="Vector"/>
      <path stroke="#000" d="M530.594 341.145c-7.07 7.713-39.207 4.178-41.136.643-1.542-2.828.643-10.177 1.929-13.498 6.748.429 20.953 1.029 23.781 0 2.828-1.028 4.82-25.709 5.463-37.921 11.998-2.464 37.472-8.42 43.385-12.534 5.035 15.962 14.655 49.941 12.855 58.168-2.25 10.284-3.535 17.354-10.284 18.318-6.749.964-30.209-.964-35.029-3.213-4.114-1.076-2.357-7.09-.964-9.963zm0 0c1.18-1.288 2.334-3.064 3.439-5.142m0 0c4.186-7.877 7.653-20.079 9.094-26.352 3.964 9.641 12.276 29.18 13.819 30.209 1.543 1.028-14.633-2.143-22.913-3.857z" class="Vector 2"/>
    </g>
    <path stroke="#000" d="M690.5 231.325c-6-.4-8.833-10.167-9.5-15 3.5-1 10.5-2.4 10.5 0s2 8 3 10.5c4.167-2.667 13.1-8.1 15.5-8.5 3-.5 15.5-2 21.5 3.5 4.8 4.4 5 14.5 4.5 19l-7.5-2.5c0-4.8-5-12.333-7.5-15.5-4.8 0-13.667 5.667-17.5 8.5-1.833.167-7 .4-13 0z" class="Vector 3_3"/>
    <path stroke="#000" d="M447 131c-1.6-.8-5-8.333-6.5-12-8 2.5-17.5 13.5-21.5 19.5-3.2 4.8-7 20.667-8.5 28 2-.4 9.167 1.167 12.5 2 3.6-2.4 3.5-20 3-28.5l21-9z" class="Vector 4"/>
    <path stroke="#000" d="M312 168.036l4 7c1.6-2.4 12-2.333 17-2 1.6 3.2-.667 15.333-2 21 2 0 7.167 3 9.5 4.5 2-2 5-27.5-4.5-33.5-7.6-4.8-19.167 0-24 3z" class="Vector 5"/>
    <path stroke="#000" d="M629.5 157l-5.5-10.5 21.5-1.5-4.5 10-11.5 2z" class="Vector 6_2"/>
    <path stroke="#000" d="M367 316.5v-16l15 5-5.5 14-9.5-3z" class="Vector 7"/>
    <path stroke="#000" d="M491.718 348.523c-11.749-7.818-4.895-16.94 0-20.523h96.926c7.833 8.6 3.264 17.265 0 20.523m-96.926 0h96.926m-96.926 0c-10.647-4.887-33.705-10.359-40.754 6.841-8.811 21.5-8.445 79.095 60.701 86.945m-19.947-93.786c-.25 3.525-.403 7.474-.423 11.727m97.349-11.727c7.302-4.561 24.256-10.946 33.654 0 11.749 13.682 28.902 82.091-58.488 91.863m24.834-91.863c.147 4.735.144 9.294.006 13.682m-57.15 96.75c1.685.752 4.781-.549 6.6 0 2.627-.843 4.274-.245 7.466-2.174m-14.066 2.174c1.099 11.727.947 35.963-8.452 39.09m8.452-39.09c-8.035-3.589-14.562-9.413-19.835-16.646m11.383 55.736h31.329m-31.329 0h-5.875v5.864m37.204-5.864c-4.242.18-11.944-7.821-8.811-41.264m8.811 41.264h5.875v5.864m-14.686-47.128c5.759-3.48 12.165-8.827 18.244-16.395m-46.637 63.523h43.079m-43.079 0h-14.685c-1.632.326-4.896 2.15-4.896 6.841V543h83.22v-32.25c0-2.28-.979-6.841-4.895-6.841h-15.665m3.558-63.523c2.965-3.692 5.853-7.913 8.549-12.704m-60.694 14.627c-2.163-2.968-4.116-6.173-5.874-9.559m0 0c-21.213-5.273-59.918-26.764-45.036-70.545 3.133-9.382 21.665-5.213 30.54-1.955m14.496 72.5c-11.314-21.784-14.598-51.025-14.496-72.5m97.355 1.955c5.342-3.584 18.179-9.382 26.795-3.91 10.77 6.841 17.607 59.614-43.086 69.387m16.291-65.477c-.904 28.667-7.602 50.033-16.291 65.477" class="Vector 8_4"/>
  </g>
</svg>
