<svg xmlns="http://www.w3.org/2000/svg" width="1152" height="700" fill="none" viewBox="0 0 1152 700">
  <g clip-path="url(#clip0)">
    <path fill="#fff" d="M0 0h1152v700H0z"/>
    <g class="Group 2">
      <path fill="#6A70FF" d="M362.743 108.533c34.35-11.03 111.93 48.083 111.93 48.083s8.67 12.673 16.553 18.129c33.838 23.42 4.541-175.984 81.977-66.212 71.73 101.683 69.297-22.775 113.506 0 36.959 19.04-1.959 77.046 31.53 101.683 27.957 20.568 64.671-15.192 88.283 10.247 36.286 39.095-87.654 45.644-94.589 98.53-8.101 61.778 135.343 81.353 94.589 128.483-31.611 36.557-87.509-31.968-123.754 0-41.092 36.245 42.243 105.409 0 140.307-51.897 42.873-79.403-86.861-146.612-90.648-62.915-3.544-96.444 99.809-148.189 63.848-55.104-38.295 84.146-132.153 28.376-169.472-34.026-22.768-104.836 40.941-104.836 0 0-30.741 139.974-58.942 87.495-84.342-23.275-11.264-75.671-27.588-50.447-39.411 25.223-11.824 57.541 24.435 67.788-33.107 10.247-57.541-94.056-113.127-53.6-126.118z" class="Vector"/>
      <g class="Group">
        <path fill="#37349F" d="M447.819 492.223V197.08l12.463-17.237 233.622-5.834v307.607l-13.259 10.607H447.819z" class="Vector 2"/>
        <path fill="#171717" fill-opacity=".15" d="M447.819 197.345l12.728-18.298 233.887-5.303-14.584 16.971-232.031 6.63z" class="Vector 4"/>
        <path fill="#000" fill-opacity=".21" d="M680.38 492.223V189.92l14.054-16.707v307.872l-14.054 11.138z" class="Vector 4_2"/>
        <path fill="#fff" fill-rule="evenodd" d="M562.863 457.219a7.389 7.389 0 105.077 13.199 7.388 7.388 0 01-5.077-13.199z" class="moon" clip-rule="evenodd"/>
        <path fill="#FDFDFD" d="M504.037 377.135l31.821-92.812h64.438v79.023l-23.335 52.24h-72.924v-38.451z" class="Vector_2"/>
        <path fill="#C4C4C4" fill-opacity=".17" d="M504.037 415.056v-38.451h73.189v38.451h-73.189z" class="Vector 3"/>
        <path fill="#060606" fill-opacity=".29" d="M576.695 415.321V376.34l23.866-92.017v79.023l-23.866 51.975z" class="Vector 2_2"/>
        <ellipse cx="562.111" cy="230.757" fill="#fff" class="Ellipse" rx="8.751" ry="9.016"/>
      </g>
      <path stroke="#FFD2BE" stroke-linecap="round" stroke-width="5.101" d="M661.318 164.516l122.42-124.12M680.871 211.13L856 186.62M680.871 296.638L856 306.49m-167.478 55.259L856 397.455m-175.129 35.362l148.775 42.85m-182.665 9.352l86.599 138.573M585.655 492.67l23.804 178.53m-85.864-178.53L493.84 635.494m-28.054-150.475L369.72 635.494m52.709-186.181L295.758 492.67m126.671-130.921l-99.467 18.703m99.467-73.962L249 285.236m173.429-28.905L249 176.418m166.627 0L281.305 65.05m194.682 111.368L415.627 0m126.671 164.516l8.619-156.07m49.191 156.07l46.873-99.466" class="Vector 2.1"/>
    </g>
  </g>
  <defs>
    <clipPath id="clip0" class="clip0">
      <path fill="#fff" d="M0 0h1152v700H0z"/>
    </clipPath>
  </defs>
</svg>
