<svg xmlns="http://www.w3.org/2000/svg" width="1155" height="700" fill="none" viewBox="0 0 1155 700">
  <g class="deliver">
    <path fill="#fff" d="M0 0h1155v700H0z"/>
    <g class="Group 10.1">
      <path fill="#E6ECFA" fill-opacity=".49" d="M381.208 151.153c8.806-37.98 62.854-29.692 91.273-29.693 22.791 0 170.409-9.841 185.947 9.841 23.369 29.6-63.555 16.766-74.586 35.999-34.92 60.886 216.481-2.875 172.998 52.223-21.646 27.43-88.57-.453-88.57 35.57 0 36.168 42.553 14.4 48.057 36.168 11.5 45.482 97.071 2.702 89.719 49.037-5.697 35.908-93.86 6.933-112.396 34.444-12.49 18.536-23.154 25.809-14.762 46.526 15.825 39.068 114.035 18.707 136.887 54.126 21.988 34.079 40.556 103.851 0 103.851H319.312c-6.472 0 0-16.575 0-16.575 5.177-47.836 105.923-14.816 105.923-62.932 0-30.728-56.086-20.887-101.925-20.887-30.645 0-16.244-29.492-3.998-57.583 25.111-57.601 186.789 23.853 157.719-31.855-17.62-33.763-90.987-6.149-87.017-44.026 3.79-36.166 74.544 1.009 87.017-33.149 16.383-44.868-130.901 3.328-121.09-43.419 13.208-62.932 123.885 3.629 121.09-49.296-2.425-45.905-106.205-23.588-95.823-68.37z" class="Vector"/>
      <g class="Group 9.3">
        <g class="Group 8.1">
          <path fill="#8280FF" d="M792.178 531.969c14.901 8.243-6.209 35.932-18.626 48.745h-22.59c-16.05-7.331-45.654-23.223-35.667-28.137 12.484-6.143-6.935-13.078-12.483-28.732-5.548-15.654 16.446-15.257 32.298-15.257s3.369-20.608 20.013-25.364c16.645-4.755 10.899 13.673 10.899 25.364 0 11.69 7.53 13.078 26.156 23.381z" class="Vector_2"/>
          <path fill="#fff" fill-opacity=".13" d="M749.915 510.739c4.203 7.006 7.096 45.956 12.909 69.206h-6.539c.991-3.17-19.221-13.474-25.76-17.635-6.539-4.162.793-11.295 3.369-12.484s-21.599-12.286-17.834-26.552c2.793-10.584 17.41 12.489 21.401 1.981 2.532-6.667 9.481-19.47 12.454-14.516z" class="Vector 3"/>
          <path stroke="#FBFBFB" stroke-linecap="round" stroke-width=".891" d="M764.409 580.342c-1.218-3.367-2.722-7.952-4.259-13.276m-2.082-71.134c-4.557 6.539-.395 9.879-2.97 21.768-2.896 13.366-.745 27.287 2.97 41.737m0 0c-8.454-11.393-19.22-21.895-36.658-32.595m36.658 32.595a268.589 268.589 0 002.082 7.629m0 0c4.788-6.803 16.307-21.242 24.074-24.57" class="Vector 2"/>
        </g>
        <g class="Group 8">
          <path fill="#DEC8FA" d="M739.978 522.58c-17.837 9.867 7.432 43.011 22.296 58.349h27.04c19.212-8.776 54.648-27.799 42.694-33.681-14.943-7.353 8.302-15.655 14.943-34.393s-19.687-18.264-38.662-18.264c-18.975 0-4.032-24.668-23.956-30.36-19.925-5.693-13.046 16.366-13.046 30.36 0 13.995-9.013 15.655-31.309 27.989z" class="Vector_3"/>
          <path fill="#fff" fill-opacity=".13" d="M790.567 497.168c-5.031 8.386-8.495 55.011-15.452 82.842h7.827c-1.186-3.795 23.008-16.129 30.835-21.11 7.827-4.981-12.397-5.726-12.397-12.098 0-9.927 34.218-17.551 29.712-34.629-3.343-12.669-20.84 14.949-25.617 2.372-3.031-7.982-11.35-23.306-14.908-17.377z" class="Vector 3_2"/>
          <path stroke="#FBFBFB" stroke-linecap="round" stroke-width="1.067" d="M773.217 580.484c1.458-4.03 3.258-9.519 5.098-15.892m2.492-85.15c5.455 7.828.472 11.827 3.556 26.058 3.466 15.999.891 32.663-3.556 49.96m0 0c10.12-13.638 23.007-26.209 43.88-39.017m-43.88 39.017c-.82 3.19-1.66 6.251-2.492 9.132m0 0c-5.732-8.143-19.52-25.427-28.817-29.411" class="Vector 2_2"/>
        </g>
      </g>
      <g class="Group 9.4">
        <g class="Group 8.1_2">
          <path fill="#8280FF" d="M358.652 550.194c8.402 4.647-3.5 20.259-10.502 27.484h-12.736c-9.05-4.134-25.741-13.094-20.11-15.865 7.038-3.464-3.911-7.374-7.039-16.2-3.128-8.826 9.273-8.603 18.211-8.603 8.938 0 1.899-11.619 11.284-14.3 9.385-2.681 6.145 7.709 6.145 14.3 0 6.592 4.245 7.374 14.747 13.184z" class="Vector_4"/>
          <path fill="#fff" fill-opacity=".13" d="M334.824 538.223c2.37 3.95 4.001 25.912 7.279 39.021h-3.687c.558-1.788-10.837-7.598-14.524-9.944-3.687-2.346.447-6.368 1.899-7.038 1.452-.671-12.178-6.927-10.055-14.971 1.575-5.967 9.816 7.041 12.066 1.117 1.428-3.759 5.346-10.978 7.022-8.185z" class="Vector 3_3"/>
          <path stroke="#FBFBFB" stroke-linecap="round" stroke-width=".503" d="M342.996 577.468c-.687-1.899-1.535-4.484-2.402-7.486m-1.173-40.107c-2.57 3.686-.223 5.57-1.675 12.273-1.633 7.536-.42 15.386 1.675 23.533m0 0c-4.767-6.424-10.838-12.345-20.669-18.378m20.669 18.378c.386 1.502.781 2.944 1.173 4.301m0 0c2.7-3.836 9.194-11.976 13.574-13.853" class="Vector 2_3"/>
        </g>
        <g class="Group 8_2">
          <path fill="#DEC8FA" d="M329.22 544.899c-10.057 5.564 4.19 24.251 12.571 32.899h15.246c10.832-4.948 30.812-15.674 24.072-18.99-8.425-4.146 4.681-8.827 8.425-19.392 3.745-10.565-11.1-10.297-21.798-10.297-10.699 0-2.274-13.909-13.508-17.118-11.233-3.21-7.355 9.227-7.355 17.118 0 7.89-5.082 8.826-17.653 15.78z" class="Vector_5"/>
          <path fill="#fff" fill-opacity=".13" d="M357.743 530.571c-2.837 4.729-4.789 31.017-8.712 46.709h4.413c-.669-2.14 12.972-9.094 17.386-11.903 4.413-2.808-6.99-3.228-6.99-6.821 0-5.597 19.293-9.896 16.752-19.525-1.885-7.143-11.75 8.429-14.443 1.338-1.709-4.501-6.4-13.141-8.406-9.798z" class="Vector 3_4"/>
          <path stroke="#FBFBFB" stroke-linecap="round" stroke-width=".602" d="M347.961 577.548c.822-2.272 1.837-5.367 2.875-8.96m1.404-48.01c3.076 4.413.267 6.668 2.005 14.692 1.955 9.021.503 18.417-2.005 28.169m0 0c5.706-7.69 12.973-14.778 24.741-21.999m-24.741 21.999a181.574 181.574 0 01-1.404 5.149m0 0c-3.232-4.592-11.006-14.337-16.249-16.583" class="Vector 2_4"/>
        </g>
      </g>
      <g class="Group 3.1">
        <g class="Group 3">
          <path fill="#09205B" d="M520.374 514.732c0 34.709-28.138 62.847-62.847 62.847s-62.847-28.138-62.847-62.847 28.138-62.847 62.847-62.847 62.847 28.138 62.847 62.847zm-119.409 0c0 31.239 25.324 56.562 56.562 56.562 31.238 0 56.562-25.323 56.562-56.562 0-31.238-25.324-56.562-56.562-56.562-31.238 0-56.562 25.324-56.562 56.562z" class="Ellipse"/>
          <path fill="#09205B" d="M752.179 514.731c0 34.709-28.137 62.847-62.847 62.847-34.709 0-62.847-28.138-62.847-62.847s28.138-62.847 62.847-62.847c34.71 0 62.847 28.138 62.847 62.847zm-119.409 0c0 31.239 25.324 56.562 56.562 56.562 31.239 0 56.562-25.323 56.562-56.562 0-31.238-25.323-56.562-56.562-56.562-31.238 0-56.562 25.324-56.562 56.562z" class="Ellipse_2"/>
          <g class="Group">
            <path fill="#09205B" fill-opacity=".27" d="M720.449 501.524a.53.53 0 01.724.215 35.745 35.745 0 01.351 32.706 35.76 35.76 0 01-26.405 19.302.53.53 0 01-.606-.451.542.542 0 01.455-.611 34.685 34.685 0 0014.847-6.105 34.675 34.675 0 0010.418-44.326.542.542 0 01.216-.73z" class="Ellipse_3"/>
            <path fill="#09205B" fill-opacity=".27" d="M717.267 505.146a.462.462 0 01.621.221 31.193 31.193 0 01-14.418 40.988.462.462 0 01-.623-.216.474.474 0 01.218-.628 30.248 30.248 0 0015.041-17.037 30.263 30.263 0 00-1.062-22.703.473.473 0 01.223-.625z" class="Ellipse_4"/>
          </g>
          <g class="Group_2">
            <path fill="#09205B" fill-opacity=".27" d="M422.312 501.524a.53.53 0 00-.724.215 35.745 35.745 0 00-.35 32.706 35.747 35.747 0 0026.405 19.302.53.53 0 00.605-.451.542.542 0 00-.455-.611 34.681 34.681 0 01-25.596-18.721 34.676 34.676 0 01.332-31.71.543.543 0 00-.217-.73z" class="Ellipse_5"/>
            <path fill="#09205B" fill-opacity=".27" d="M425.495 505.146a.463.463 0 00-.622.221 31.192 31.192 0 00-1.1 23.417 31.2 31.2 0 0015.519 17.571.462.462 0 00.623-.216.475.475 0 00-.218-.628 30.265 30.265 0 01-15.041-17.037 30.263 30.263 0 011.061-22.703.472.472 0 00-.222-.625z" class="Ellipse_6"/>
          </g>
        </g>
        <circle cx="539.729" cy="514.504" r="19.355" fill="#292929" class="Ellipse_7"/>
        <path stroke="#000" stroke-width="1.366" d="M540.868 495.376l-89.033 4.099s-11.693 2.96-11.385 15.939c.307 12.98 13.662 15.712 13.662 15.712l90.855 2.505s15.711-4.554 13.662-18.217c-2.175-14.498-17.761-20.038-17.761-20.038z" class="Vector 8"/>
        <path fill="#7E7E7E" fill-rule="evenodd" d="M577.11 525.467h-3.108v9.842h-34.185v2.589h37.293V525.467z" class="Union" clip-rule="evenodd"/>
        <path fill="#C44949" fill-rule="evenodd" d="M574.483 290.554l4.417-7.946c5.762 4.148 17.129 3.25 22.517-22.701-2.117-12.648-31.812-17.441-29.714 12.182l-9.63 13.041c.627 2.983 6.545 9.843 12.41 5.424zm94.355 79.186c-8.927 0-42.353-5.75-42.353-5.75l7.742-12.296s18.429 9.049 31.196 8.938c2.198-.019 3.893-.007 5.548.005 1.855.014 3.659.027 6.065-.005 3.965-.053 9.108.911 9.108.911l2.277 4.098s1.207 10.883-.911 8.369c-.269-.32-.511-.991-.809-1.816-.71-1.965-1.737-4.808-4.2-5.87-2.368-1.02-4.733-1.498-6.831 0-3.188 2.278-5.238 3.416-6.832 3.416zm-88.104 127.499l-4.403 16.79h-10.563l3.791-50.474h19.81l-8.635 33.684zm-26.432 16.411l-3.871 30h-12.979v-63.928l21.859 2.049-5.009 31.879z" class="Union_2" clip-rule="evenodd"/>
        <path fill="#A0EEF8" d="M564.093 524.264v-10.235c.001-2.426 3.716-.04 6.142-.001 2.713.044 7.65-.992 7.65-.992s4.797 4.265 17.093 6.474c1.269.229 2.331 1.68 3.022 2.92.498.893-.124 1.922-1.143 2.006-7.404.614-32.764 2.521-32.764-.172z" class="Vector 8.2"/>
        <path fill="#130D59" d="M594.378 469.248c5.291-16.841 6.797-24.637 4.782-33.245l-4.782-8.027h-40.076l14.118 14.175-1.822 27.097h27.78z" class="Vector 3_5"/>
        <rect width="57.837" height="19.583" x="466.635" y="397.975" fill="#0D0D0D" class="Rectangle 3" rx="9.791"/>
        <path fill="#40E2F8" fill-rule="evenodd" d="M677.036 413.857l-33.473 12.524h-.877l-.034-.171-107.705-.455v11.385l109.755-.455-.012-.057h.239l32.107-13.89.91 19.582 4.47 66.617a4.99 4.99 0 109.956-.684l-4.634-65.933-1.858-28.463-1.813-39.116h-6.733l-.298 39.116zM464.814 497.88l24.501-80.778h-9.472l-25.048 80.778-4.202 16.634a4.858 4.858 0 109.422 2.379l4.799-19.013z" class="Union_3" clip-rule="evenodd"/>
        <path fill="#0F69D2" fill-opacity=".15" d="M483.485 417.103l-24.592 78.33-3.735 21.943a2.568 2.568 0 11-5.021-1.059l4.658-18.436 25.047-80.778h3.643z" class="Vector 7.1"/>
        <path fill="#2B5DDC" fill-opacity=".13" d="M551.569 433.042h95.409l-2.049 3.416-91.766.455-1.594-3.871z" class="Vector 18"/>
        <path fill="#1118AC" fill-opacity=".09" d="M684.322 497.71l-2.277 2.505-5.01-77.192-32.106 13.435 2.049-3.644 33.245-14.345 4.099 79.241z" class="Vector 18_2"/>
        <path fill="#130D59" d="M513.77 447.331c-36.615-36.798-33.321-71.121-25.275-84.479 17.67 8.926 43.719 11.84 53.966 11.84 12.569 7.105 39.849 37.116 51.917 51.234h-42.581l-17.533-21.404s23.632 33.752 29.146 59.943c2.505 11.898-2.733 30.058-2.733 30.058h-26.413v-26.927l-20.494-20.265z" class="Vector 2_5"/>
        <path fill="#000" fill-opacity=".13" d="M536.768 407.311l15.029 18.444h12.523l-27.552-18.444z" class="Vector 13"/>
        <path fill="#000" fill-opacity=".23" d="M533.809 404.351s.227.338.64.97c33.499 50.897 32.113 64.986 26.229 88.518h-4.098s4.356-18.545 2.96-31.195c-2.386-21.619-21.35-51.587-25.091-57.323l-.64-.97z" class="Vector 12"/>
        <path fill="#000" fill-opacity=".22" d="M542.233 543.707l-4.554-.683v-48.502h3.643l.911 49.185z" class="Vector 11"/>
        <path fill="#000" fill-opacity=".22" d="M569.331 513.65l-3.416-.683 3.416-43.719h3.643l-3.643 44.402z" class="Vector 11.1"/>
        <path fill="#DEC8FA" d="M542.462 375.204c-22.315 8.425-51.234-5.294-54.422-12.125 45.177-53.739 66.49-76.434 75.598-80.153 21.86 0 26.946 31.423 27.553 43.492l48.729 24.364c1.744 7.717-3.871 12.297-9.791 20.551-41.716-11.659-62.316-26.319-64.669-33.758l-22.998 37.629z" class="Vector_6"/>
        <path fill="#fff" fill-opacity=".12" d="M528.116 377.709c1.639.911 9.867-1.214 14.117-2.504l22.771-37.344-9.108 2.96-1.594 2.732-26.186 34.156z" class="Vector 15"/>
        <circle cx="457.527" cy="514.732" r="16.395" fill="#000" class="Ellipse_8"/>
        <path fill="#ADEFF8" d="M575.348 556.48l-39.49 1.288s-1.915-1.493-1.821-4.782c.086-3.038 1.821-10.474 1.821-10.474s4.546 1.091 7.514 1.138c3.32.054 8.425-1.138 8.425-1.138s4.742 6.089 20.909 8.594c1.471.228 2.868 1.841 3.818 3.228.639.931-.047 2.109-1.176 2.146z" class="Vector 8_2"/>
        <rect width="40.987" height="4.099" x="530.848" y="556.459" fill="#000" class="Rectangle 2" rx="2.049"/>
        <ellipse cx="680.57" cy="371.339" fill="#0D0D0D" class="Ellipse 2" rx="6.603" ry="5.92"/>
        <path stroke="#000" stroke-width="1.822" d="M474.035 436.378l-26.416-10.1m22.432 22.248l-53.056-21.404" class="Vector 9"/>
        <path fill="#C4C4C4" d="M390.126 422.567h88.35l-2.049 5.465h-86.301v-5.465z" class="Rectangle 4"/>
        <path fill="#6989FA" d="M510.355 342.187c-5.917 5.64-15.306 1.261-20.266-5.237-5.476-7.174 2.277-22.998 2.277-22.998 7.211-12.752 31.651-39.621 64.669-20.038 0 0 11.162-6.117 17.988-3.871 4.056 1.334 8.881 6.375 8.881 6.375l1.594 3.871s-5.885-5.008-10.475-6.375c-8.823-2.629-22.998 5.18-22.998 5.18l-23.615 24.421s16.274 10.041 25.892 15.029c4.62 2.396 10.93 0 10.93 0l-2.277 3.643s-6.855 2.78-10.93 0c-8.954-6.107-27.78-14.364-27.78-14.364s-10.068 10.721-13.89 14.364z" class="Vector 10"/>
        <path fill="#fff" fill-opacity=".11" d="M549.976 288.449c-6.741 14.937-35.75 42.353-61.026 45.313-2.55-7.104 3.492-20.721 7.059-26.186 20.645-12.6 60.707-34.065 53.967-19.127z" class="Vector 14"/>
        <path fill="#fff" fill-opacity=".12" d="M539.273 291.41c-6.74 14.937-25.73 35.294-51.006 38.254 0-6.376 4.402-17.533 7.97-22.998 20.645-12.6 49.776-30.194 43.036-15.256z" class="Vector 14.1"/>
        <path fill="#15135D" d="M581.627 266.988c2.498-7.643 11.587 2.96 19.899-5.289 6.203-7.099-.532-8.711-8.312-14.962-7.78-6.25-23.619 1.544-28.628 4.618-5.008 3.074-12.893-8.206-22.761-10.722-9.867-2.516-4.338 6.544-11.152 6.068-6.815-.477-13.687-6.664-14.401 3.558-.715 10.222-15.469 5.766-27.699 7.65 0 0-14.943-.452-17.269 6.346-2.056 6.006 6.957 8.458 6.717 14.801-.241 6.343-8.575-.74-11.386 16.167s27.732 17.647 29.536 20.511c6.442 10.229 15.55-11.63 18.172 1.271 1.714 8.435 17.188-3.338 22.765-8.908 12.526-12.514 36.777-17.428 44.519-41.109z" class="Vector 6"/>
        <path fill="#000" fill-opacity=".05" d="M516.271 250.26c-.715 10.221-15.469 5.766-27.698 7.65 0 0-14.943-.452-17.27 6.346-2.055 6.005 6.958 8.458 6.717 14.801-.24 6.343-8.574-.74-11.385 16.167 17.634 6.926 61.912 11.396 97.951-26.13 7.03-7.662 24.26-19.868 36.94-7.395 6.203-7.098-.532-8.711-8.313-14.961-7.78-6.251-23.619 1.544-28.627 4.617-5.008 3.074-12.894-8.205-22.761-10.722-9.868-2.516-4.338 6.545-11.153 6.068-6.814-.476-13.686-6.663-14.401 3.559z" class="Vector 6.1"/>
        <g class="Group_3">
          <ellipse cx="582.765" cy="265.679" fill="#5EE5ED" class="Ellipse 3" rx="5.01" ry="5.237"/>
          <ellipse cx="582.765" cy="265.617" fill="#fff" fill-opacity=".33" class="Ellipse 3.1" rx="3.643" ry="3.809"/>
          <path fill="#19D6E2" d="M593.24 244.73l-9.336 15.712-2.05 3.643s-.39 1.223.228 1.594c1.139.683 1.822-.228 1.822-.228l2.277-3.415 11.157-14.574-4.098-2.732z" class="Vector 11_2"/>
          <path fill="#05C5D2" d="M593.241 244.73l-9.336 15.712-2.05 3.643s-.492 1.139.228 1.139c.456 0 .911-.684.911-.684l2.049-3.871 9.564-15.028-1.366-.911z" class="Vector 11.2"/>
        </g>
        <path fill="#000" fill-opacity=".19" d="M538.59 493.839v-33.245s-18.569-15.475-28.691-27.097c-11.243-12.91-25.047-35.977-25.047-35.977 2.96 24.592 29.829 53.51 49.867 69.45v26.869h3.871z" class="Vector 12_2"/>
        <rect width="30.968" height="3.643" x="561.816" y="523.669" fill="#000" class="Rectangle 2.1" rx="1.822"/>
        <path fill="#000" fill-opacity=".17" d="M572.518 469.02h-5.692l1.821-26.869-5.237-5.01h9.108l3.188 5.01-3.188 26.869z" class="Vector 13_2"/>
        <path fill="#fff" fill-opacity=".12" d="M591.418 330.802c-5.804-1.612-1.594-15.484-1.594-15.484l.911 5.92.456 5.237 38.254 19.128s-7.753.082-9.564-2.505c-1.594-2.277-24.365-11.158-28.463-12.296z" class="Vector 16"/>
        <path fill="#000" fill-opacity=".15" d="M663.145 368.374l-25.73-6.831-2.733 3.871 16.395 2.504 8.197 1.139 6.604.683-2.733-1.366z" class="Vector 17"/>
        <g class="Group 2">
          <path fill="#E4BE9A" d="M398.779 358.354h65.124v64.213h-65.124z" class="Rectangle 5"/>
          <path stroke="#000" stroke-width="1.366" d="M406.521 422.112v-63.53m-7.514 23.226h64.668" class="Vector 18_3"/>
          <path fill="#fff" fill-opacity=".19" d="M437.944 407.993h22.771v11.385h-22.771z" class="Rectangle 6"/>
        </g>
        <g class="Group 2.1">
          <path fill="#E0AC7C" d="M406.976 337.406h21.404v21.105h-21.404z" class="Rectangle 5_2"/>
          <path fill="#fff" fill-opacity=".19" d="M412.44 343.325h9.146v4.573h-9.146z" class="Rectangle 6_2"/>
        </g>
        <circle cx="689.56" cy="518.432" r="12.524" fill="#000" class="Ellipse 3_2"/>
      </g>
      <rect width="534.533" height="3.626" x="309.842" y="577.263" fill="#000" class="Rectangle" rx="1.813"/>
    </g>
  </g>
</svg>
