<svg xmlns="http://www.w3.org/2000/svg" width="1152" height="700" fill="none" viewBox="0 0 1152 700">
  <g class="desktop_altthree">
    <path fill="#fff" d="M0 0h1152v700H0z"/>
    <path fill="#000" fill-opacity=".1" d="M880.808 403.195L707.887 506.604 436 337.863l168.115-99.259 276.263 147.183c6.867 3.659 7.108 13.414.43 17.408z" class="Shadow"/>
    <path fill="#000" fill-rule="evenodd" d="M435.641 103.409c-4.031 1.176-7.236 4.847-7.236 9.617v210.412c0 3.202 1.531 6.185 4.075 8.056l-1.091-.629a10.104 10.104 0 00-4.416-1.34 9.74 9.74 0 00-5.753 1.206c-27.003 15.143-157.303 88.276-163.128 92.769l-.029.022-.255.147c-1.045.599-1.995 1.34-2.534 2.397-2.434 2.76-2.343 4.976-2.228 7.792.034.82.07 1.692.046 2.642-.102 3.999 2.498 5.999 8.494 9.497l.006.003c.116.067 268.979 156.455 272.159 157.514 2.811.938 8.591-.127 12.03-.997a8.896 8.896 0 002.313-.968l156.534-91.739c2.558-1.499 4.339-4.052 4.621-7.004.429-4.491.63-10.872-1.411-12.624l.063.036c3.58 2.062 8.051-.522 8.051-4.654V262.211a10 10 0 00-5.13-8.734L443.275 104.292a9.864 9.864 0 00-7.634-.883z" class="Primary" clip-rule="evenodd"/>
    <g class="Laptop">
      <path fill="#A4C3FE" d="M709.249 502.806c.446-4.664.645-11.367-1.657-12.806L431.013 330.832c-3.052-1.756-6.721-1.823-9.793-.101-27.003 15.143-157.303 88.276-163.128 92.769-6.5 5.014-4.87 7.842-5 13-.102 3.999 2.498 5.999 8.494 9.497l.006.003c.116.067 268.979 156.455 272.159 157.514 2.811.938 8.591-.127 12.03-.997a8.896 8.896 0 002.313-.968l156.534-91.739c2.558-1.499 4.339-4.052 4.621-7.004z" class="Vector 2.3" opacity=".2"/>
      <path fill="#4B5361" d="M428.404 323.438V113.026c0-7.632 8.205-12.451 14.87-8.734l267.548 149.185a10 10 0 015.13 8.734v223.353c0 4.132-4.471 6.717-8.052 4.654L433.413 332.103a10 10 0 01-5.009-8.665z" class="Vector 2" opacity=".5"/>
      <path fill="#fff" d="M436.355 320.775v-207.42c0-1.535 1.657-2.498 2.99-1.738l266.984 152.096a2 2 0 011.01 1.737v209.379c0 1.539-1.666 2.502-3 1.732L437.356 322.507a2 2 0 01-1.001-1.732z" class="Vector" opacity=".6"/>
      <path fill="#fff" fill-opacity=".1" d="M257.807 423.669c46.856-26.896 140.965-80.04 163.682-92.881 3.094-1.749 6.82-1.697 9.899.077l275.403 158.714c.735.424 1.384.833 1.637 1.643.789 2.52-1.075 5.065-3.353 6.4-52.347 30.692-151.859 89.16-158.074 93.304-5.593 3.728-10.229 3.973-12.468 3.528-.532-.106-1.019-.351-1.489-.621l-101.99-58.562c-.883.221-3.048.531-4.638 0-1.59-.53-42.624-24.956-62.942-37.102-1.767-1.105-5.3-3.711-5.3-5.301-31.14-18.11-94.745-55.124-100.046-58.304-2.594-1.557-3.495-3.495-3.558-5.301-.037-1.061.216-2.076.585-2.942.509-1.195 1.525-2.006 2.652-2.652z" class="color 2"/>
      <path fill="#fff" fill-opacity=".5" d="M368.112 495.519c-.832-.52-1.66-.947-2.466-1.295-4.043-1.745-5.906 1.611-2.172 3.945 20.318 12.147 61.353 36.573 62.943 37.103.089.029.18.057.272.081 2.502.666 4.347-2.353 2.705-4.354-.318-.388-.535-.484-.97-.733-18.776-10.73-56.12-32.127-60.312-34.747z" class="Vector 2.2"/>
      <path fill="#fff" fill-opacity=".5" d="M367.27 472.203l41.213-24.505a4.001 4.001 0 014.07-.011l86.937 51.068c2.609 1.532 2.637 5.294.052 6.866l-41.256 25.088a4 4 0 01-4.122.021l-86.894-51.65c-2.608-1.55-2.608-5.326 0-6.877z" class="Vector 3"/>
      <path stroke="#fff" stroke-opacity=".5" d="M367 394.604l237 141" class="Vector 5"/>
      <path stroke="#fff" stroke-opacity=".5" d="M384 380.604l237 142" class="Vector 5.1"/>
      <path stroke="#fff" stroke-opacity=".5" d="M406 366.604l238 142" class="Vector 5.2"/>
      <path stroke="#fff" stroke-opacity=".5" d="M422 352.604l237 142" class="Vector 5.3"/>
    </g>
    <path fill="#000" fill-opacity=".1" d="M473 267.007v-78.885a.884.884 0 011.32-.769l1.321.75 63.947 39.901a3 3 0 011.412 2.545v79.07c0 .861-.95 1.385-1.679.925l-64.923-41a3.001 3.001 0 01-1.398-2.537z" class="Shadow_2" opacity=".5"/>
    <path fill="#000" fill-opacity=".1" fill-rule="evenodd" d="M599 249.339l64.679 37.757a7.963 7.963 0 013.967 6.887v110.941l27.887 15.846a.982.982 0 001.467-.854V289.483a3 3 0 00-1.529-2.614l-94.205-52.991-1.133-.637a.76.76 0 00-1.133.663v15.435z" class="Shadow_3" clip-rule="evenodd"/>
    <path fill="#2636C4" fill-rule="evenodd" d="M450.115 201.639v78.953c0 .247.031.489.089.723.038.642.384 1.229.932 1.573l.268.168.112.074 64.658 40.737a2.999 2.999 0 003.87-.579l3.874-4.489a3.03 3.03 0 00.728-1.971v-72.984a7.974 7.974 0 00-3.777-6.78l-60.984-37.901a5 5 0 00-3.893-.593l-4.378 1.133a2.001 2.001 0 00-1.499 1.936zm113 35V366.52c0 .244.03.485.087.716a2 2 0 00.996 1.642l1.695.981 93.313 54.135a3 3 0 003.777-.635l3.934-4.56c.47-.545.729-1.225.729-1.945V293.983a7.963 7.963 0 00-3.967-6.887l-90.834-53.025a5 5 0 00-3.774-.522l-4.457 1.154a2.001 2.001 0 00-1.499 1.936z" class="Secondary" clip-rule="evenodd"/>
    <g class="small window" opacity=".5">
      <path fill="#CFC1A1" d="M450.115 280.592v-78.953c0-.911.617-1.707 1.499-1.936l4.378-1.134a5.004 5.004 0 013.893.594l60.984 37.901a7.974 7.974 0 013.777 6.78v72.984a3.03 3.03 0 01-.728 1.971l-3.874 4.489a2.998 2.998 0 01-3.87.578l-64.658-40.736a3 3 0 01-1.401-2.538z" class="Vector 4.2"/>
      <path fill="#434B57" d="M450.199 201.804a1 1 0 011.53-.848l64.92 40.575a5 5 0 012.35 4.24v76.111c0 1.573-1.731 2.531-3.063 1.694l-64.8-40.688a2 2 0 01-.937-1.694v-79.39z" class="Rectangle"/>
      <ellipse cx="456.741" cy="211.284" fill="#fff" class="Ellipse" rx="1.325" ry="1.988"/>
      <ellipse cx="460.716" cy="213.934" fill="#fff" class="Ellipse_2" rx="1.325" ry="1.988"/>
      <ellipse cx="464.692" cy="216.584" fill="#fff" class="Ellipse_3" rx="1.325" ry="1.988"/>
      <path fill="#FFEEC7" d="M462.041 221.222l44.391 27.165v17.272l-44.391-26.205v-18.232z" class="Rectangle_2"/>
      <path fill="#FFEEC7" d="M462.041 255.675l14.576 9.892v17.272l-14.576-8.933v-18.231z" class="Rectangle_3"/>
      <path fill="#FFEEC7" d="M488.543 271.576l14.576 9.892v17.272l-14.576-8.933v-18.231z" class="Rectangle_4"/>
      <path fill="#fff" d="M462.041 243.749l43.066 25.839v3.975l-43.066-25.839v-3.975z" class="Rectangle 2.6"/>
      <path fill="#fff" d="M462.041 276.876l13.914 8.613v3.976l-13.914-8.613v-3.976z" class="Rectangle 2.7"/>
      <path fill="#fff" d="M488.543 292.777l13.914 8.614v3.975l-13.914-8.613v-3.976z" class="Rectangle 2.8"/>
    </g>
    <g class="big window">
      <path fill="#434B57" d="M563.199 236.747a1 1 0 011.506-.863l94.826 55.667a4.999 4.999 0 012.468 4.312v126.168c0 1.541-1.669 2.503-3.002 1.731l-94.8-54.884a2.003 2.003 0 01-.998-1.731v-130.4z" class="Rectangle_5" opacity=".5"/>
      <path fill="#000" fill-rule="evenodd" d="M563.115 236.639V366.52c0 .244.03.484.087.716l-.002-.089v-130.4a1 1 0 011.506-.863l94.825 55.667a4.997 4.997 0 012.469 4.312v126.168c0 1.541-1.669 2.503-3.002 1.731l-93.109-53.905 93.317 54.137a3 3 0 003.777-.635l3.935-4.56a2.96 2.96 0 00.728-1.945V293.983a7.963 7.963 0 00-3.967-6.887l-90.834-53.025a5 5 0 00-3.774-.522l-4.457 1.154a2.001 2.001 0 00-1.499 1.936z" class="Subtract" clip-rule="evenodd" opacity=".5"/>
      <ellipse cx="568.595" cy="241.588" fill="#fff" class="Ellipse_4" opacity=".5" rx="1.13" ry="1.695"/>
      <ellipse cx="571.986" cy="243.849" fill="#fff" class="Ellipse_5" opacity=".5" rx="1.13" ry="1.695"/>
      <ellipse cx="575.376" cy="246.109" fill="#fff" class="Ellipse_6" opacity=".5" rx="1.13" ry="1.695"/>
      <path fill="#fff" fill-opacity=".5" d="M578.768 302.059l14.693 9.004v14.732l-14.693-8.184v-15.552z" class="Rectangle_6"/>
      <path fill="#000" d="M603.635 319.013l22.606 13.564v3.391l-22.606-13.564v-3.391z" class="Rectangle 2" opacity=".2"/>
      <path fill="#000" fill-opacity=".2" d="M602.504 326.926l15.824 10.172v3.391l-15.824-10.173v-3.39z" class="Rectangle 2.1"/>
      <path fill="#fff" fill-opacity=".5" d="M578.768 325.795l14.693 9.004v14.733l-14.693-8.185v-15.552z" class="Rectangle_7"/>
      <path fill="#000" fill-opacity=".2" d="M603.635 342.75l22.606 13.563v3.391l-22.606-13.563v-3.391z" class="Rectangle 2.2"/>
      <path fill="#000" fill-opacity=".2" d="M602.504 350.662l15.824 10.173v3.391l-15.824-10.173v-3.391z" class="Rectangle 2.3"/>
      <path fill="#fff" fill-opacity=".5" d="M578.768 349.532l14.693 9.003v14.733l-14.693-8.185v-15.551z" class="Rectangle_8"/>
      <path fill="#000" fill-opacity=".2" d="M603.635 366.486l22.606 13.563v3.391l-22.606-13.563v-3.391z" class="Rectangle 2.4"/>
      <path fill="#000" fill-opacity=".2" d="M602.504 374.398l15.824 10.173v3.391l-15.824-10.173v-3.391z" class="Rectangle 2.5"/>
      <g class="Vector 5_2" opacity=".5">
        <path fill="#fff" fill-opacity=".4" d="M647.716 294.688v22.278l-68.948-40.101v-22.278l68.948 40.101zM578.768 293.574v-7.798l68.948 38.987v6.684l-68.948-37.873z"/>
      </g>
    </g>
  </g>
</svg>
