<svg xmlns="http://www.w3.org/2000/svg" width="1152" height="700" fill="none" viewBox="0 0 1152 700">
  <g class="email">
    <path fill="#fff" d="M0 0h1152v700H0z"/>
    <path stroke="#000" stroke-linecap="round" stroke-width="3" d="M229 549h739" class="Vector"/>
    <g class="Group 8">
      <rect width="560" height="344" x="318" y="203" fill="#fff" class="Rectangle" rx="31"/>
      <g class="Polygon">
        <path fill="#000" fill-opacity=".01" d="M598 419l254.611-215.25H343.389L598 419z"/>
        <path stroke="#000" stroke-opacity=".08" d="M344.754 204.25L598 418.345 851.246 204.25H344.754z"/>
      </g>
    </g>
    <g class="Group 7">
      <path stroke="#fff" stroke-dasharray="8.36 8.36" stroke-width="2.507" d="M695.066 224.325c-4.178-23.812 3.207-47.002 61.412-33.003 66.007 15.875 62.665-15.04 92.744-46.372 24.064-25.066 59.741-19.635 78.123-9.191" class="Vector 2"/>
      <path stroke="#fff" stroke-dasharray="8.36 8.36" stroke-width="2.507" d="M720.967 233.099c10.444-18.814 17.961-32.813 76.166-18.814 66.007 15.875 62.665-15.04 92.744-46.373 24.064-25.066 59.741-19.635 78.123-9.19" class="Vector 2.1"/>
      <g class="Group">
        <path fill="#72483B" fill-rule="evenodd" d="M567.572 286.811c0 6.632-4.364 15.877-4.364 15.877l-1.809 4.824 18.634 5.548c.09-.359-.154-1.262-.47-2.431-.627-2.323-1.537-5.695-.682-7.941.415-1.992 1.406-3.957 1.983-5.1.169-.335.302-.6.375-.773.717.207 1.392.448 2.032.678 3.304 1.183 5.693 2.039 8.218-3.877 3.014-7.062 9.446-35.545-6.03-34.138-17.686 1.608-17.887 20.701-17.887 27.333zm-99.721 108.844c-6.8 8.209-19.007 24.38-13.434 23.385 5.572-.995 15.59-8.21 19.902-11.693-1.161 2.82-2.786 8.309 0 7.712 2.183-.467 3.537-6.057 4.659-10.688.31-1.28.603-2.487.89-3.492 0 0-.176-3.192 0-5.224.535-6.186 5.473-14.927 5.473-14.927l-7.214-2.985-5.971 12.936-4.305 4.976zm4.802 117.672l-16.171 23.634 7.713 3.483 17.912-17.912-9.454-9.205zm70.903 46.272l3.234-13.185 2.239-14.678 15.424 4.478-12.687 23.385h-8.21zm157.015-285.835c1.137-2.627 2.062-4.767 2.7-5.484 1.991-2.239 1.991 5.224 0 8.458-.678 1.102.403.21 2.301-1.355 3.672-3.031 10.405-8.587 13.372-7.103 2.348 1.174 1.644 3.101.859 5.249-.379 1.038-.777 2.128-.859 3.209-1.159 1.16-2.05 3.202-2.874 5.09-.707 1.622-1.365 3.13-2.101 3.866-1.99 1.99-5.971 3.483-10.698 5.225l-11.941 10.448-12.19 10.947-3.981-8.21 19.156-18.41c2.386-2.982 4.557-8.001 6.256-11.93z" class="Union" clip-rule="evenodd"/>
        <path fill="#000" fill-opacity=".06" d="M468.175 520.044l-10.697 15.673.746 2.239 15.424-12.439-5.473-5.473z" class="Vector 8"/>
        <path fill="#000" fill-opacity=".03" d="M546.79 561.092l9.951-24.38-8.708 4.229-4.726 20.151h3.483z" class="Vector 7"/>
        <path fill="#313EB1" fill-rule="evenodd" d="M542.782 467.681c3.774 5.226 7.775 10.306 11.968 15.046l-10.449 63.687h19.405s22.141-39.716 22.141-63.687c0-17.415-13.434-71.897-13.434-71.897l-6.717-27.615-56.722 8.956v13.932c.376.969.801 2.03 1.274 3.174l-2.517 53.547c-13.766 15.756-41.894 49.557-44.283 58.712l12.439 13.185s46.024-38.311 63.19-60.95c1.404-1.851 2.631-3.903 3.705-6.09z" class="Union_2" clip-rule="evenodd"/>
        <path fill="#000" fill-opacity=".14" d="M554.751 482.727c-22.888-25.873-40.054-61.863-45.775-76.624v-13.932l56.721-8.956 6.717 27.615s13.434 54.482 13.434 71.897c0 23.971-22.141 63.687-22.141 63.687h-19.405l10.449-63.687z" class="Vector 2.1_2"/>
        <path fill="#FD9B41" fill-rule="evenodd" d="M526.39 347.889c-9.62 16.834-26.769 52.194-18.41 58.96 9.288-2.156 29.306-5.821 35.078-3.234 3.634 1.629 3.922 2.753 4.204 3.849.278 1.08.548 2.133 4.005 3.615 3.675 1.575 6.727.796 9.557.073 2.535-.647 4.892-1.249 7.36-.073 5.225 2.487 9.454.995 9.205-9.454-.249-10.449 1.742-17.414 4.976-22.141.952-1.393 2.186-4.706 3.668-8.688 3.549-9.536 8.526-22.907 14.493-22.907 2.939 0 5.877.541 9.202 1.152 6.245 1.149 13.852 2.548 25.378 1.087 14.13-1.791 44.863-28.775 58.463-42.044 1.385-13.677-2.17-19.764-3.789-22.536-.428-.733-.721-1.234-.751-1.582.343-.401.457-.584.311-.511-.24.12-.332.283-.311.511-4.319 5.042-44.865 44.562-57.406 41.533-8.543-2.063-18.292-9.251-25.698-14.71-4.329-3.192-7.858-5.794-9.877-6.436-5.474-1.742-14.678 0-14.678 0-1.622 0-3.032.289-4.389.568-3.638.747-6.887 1.414-12.777-3.802-8.707-7.713-62.692 24.38-78.117 40.302l-17.165 40.799c4.063 2.82 13.583 8.111 19.156 6.717l13.434-29.355c6.302-3.898 20.101-11.693 24.878-11.693zm-77.122 196.329s-2.536-3.948 7.993-11.429c2.527 5.223 5.585 6.355 8.701 7.507 2.2.814 4.428 1.639 6.519 3.922.907.99 2.084 2.133 3.342 3.353 5.365 5.207 12.187 11.828 5.676 14.048l-32.231-17.401zm92.81 28.61c-6.438-.523-7.261-4.209-.685-15.327 3.623 2.151 5.564 1.949 7.715 1.725 2.432-.253 5.132-.535 10.838 2.526 1.581.848 3.747 1.681 5.998 2.547 6.618 2.547 13.966 5.374 9.318 9.682l-33.184-1.153z" class="Union_3" clip-rule="evenodd"/>
        <path fill="#000" fill-opacity=".08" d="M597.291 342.665c-6.801 6.49-8.458 20.151-8.458 20.151 5.722-12.688 9.868-14.844 11.444-15.176 14.329 2.985 27.614 3.732 35.078 2.488 9.553-.796 28.277-15.59 36.57-22.888 0 0-22.192 14.793-38.063 17.664-13.958 2.524-25.93-12.395-36.571-2.239z" class="Vector 6"/>
        <path fill="#000" fill-opacity=".05" d="M497.282 356.596c-1.887 5.229-1.244 14.181-1.244 14.181l5.474-11.195c7.363-5.573 20.317-10.615 25.624-12.191-23.087 37.815-22.888 55.976-19.156 59.459l32.59-4.478s-15.142-9.653-13.434-25.376c1.237-11.386 1.741-20.4 6.966-36.819 1.947-6.12-5.22-.61-11.195 1.741-13.042 5.132-20.866 1.496-25.625 14.678z" class="Vector 5"/>
        <path fill="#000" d="M590.754 267.798c10.116-8.824 4.136-16.249-2.249-19.908-21.093-6.027-25.855 16.895-39.846 19.908-13.99 3.013-25.737-6.409-34.652 3.013-6.222 6.576-3.318 13.887-8.179 21.524-5.706 8.962-18.202 6.79-20.232 17.218-1.643 8.442 4.532 11.257 6.672 19.586 1.671 6.506-2.927 13.164 2.583 17.004 4.344 3.028 8.585-1.815 13.56 0 5.095 1.859 5.121 9.04 10.546 9.04 8.98 0 4.03-8.524 16.083-9.04 12.053-.517 4.59-17.004 13.619-17.004 11.193 0 12.711-8.722 16.573-17.218 7.533-16.573 5.177-14.694 9.04-23.891 3.365-8.01.487-6.279 16.482-20.232z" class="Vector 2.2"/>
      </g>
      <g class="Group 5.1">
        <path fill="#F2F2F2" d="M691.591 268.955l8.025-23.305a3.342 3.342 0 014.089-2.122l43.284 12.524a3.342 3.342 0 012.231 4.299l-8.318 24.156a3.343 3.343 0 01-4.153 2.103l-42.991-13.375a3.342 3.342 0 01-2.167-4.28z" class="Vector_2"/>
        <path fill="#000" fill-opacity=".1" d="M696.414 267.854l12.147 3.359-.776 3.101-12.146-3.618.775-2.842z" class="Rectangle_2"/>
        <path fill="#000" fill-opacity=".1" d="M697.965 263.46l12.146 3.36-.775 3.101-12.147-3.618.776-2.843z" class="Rectangle_3"/>
      </g>
    </g>
    <g class="Group 6.4">
      <g class="Group 3">
        <path fill="#2C8B74" d="M279.449 488.886V379s21.977 67.992 30.218 105.079c3.219 14.483-9.615 37.773-9.615 37.773s-20.603-17.716-20.603-32.966z" class="Vector 2_2"/>
        <path fill="#000" fill-opacity=".05" d="M291.124 436.69l-4.808-35.026 19.23 66.618-14.422-31.592z" class="Vector 4"/>
        <path fill="#000" fill-opacity=".18" d="M279.448 438.064c1.649 9.889 16.025 56.545 23.351 78.294l-2.747 4.807c-12.362-8.928-18.543-21.29-20.604-30.219v-52.882z" class="Vector 4_2"/>
        <path stroke="#000" stroke-width=".687" d="M302.799 540.395L280.135 381.06" class="Vector_3"/>
      </g>
      <g class="Group 4">
        <path fill="#2C8B74" d="M316.202 517.044c-4.087-10.489-7.357-51.822 12.261-133.237 12.488 39.056 27.519 120.382-12.261 133.237z" class="Vector 4_3"/>
        <path fill="#000" fill-opacity=".11" d="M322.717 419.52c4.121 24.725-2.472 64.696-9.615 73.487-2.06-19.231 4.12-60.438 9.615-73.487z" class="Vector 4_4"/>
        <path fill="#000" fill-opacity=".18" d="M315.848 519.791c6.868-22.435 16.483-54.256 24.724-76.92 3.434 23.122 2.06 68.679-24.724 76.92z" class="Vector 4_5"/>
        <path stroke="#000" stroke-width=".687" d="M304.173 541.082c9.386-13.507 27.883-52.333 26.785-99.584-.559-24.038-2.519-60.667-2.748-55.63" class="Vector 3"/>
      </g>
      <g class="Group 5">
        <g class="Group_2">
          <path fill="#183D45" d="M264.339 506.055c6.044 18.132 24.267 24.954 39.834 34.34 0 0-11.421-27.446-24.038-40.521-14.948-15.49-47.388-28.158-47.388-28.158s25.549 16.208 31.592 34.339z" class="Vector 5_2"/>
          <path stroke="#fff" stroke-width=".412" d="M304.173 540.395c-18.543-22.206-48.075-58.377-65.932-65.932" class="Vector 4_6"/>
        </g>
        <g class="Group 2">
          <path fill="#285964" d="M258.845 521.165c17.805-1.594 44.641 19.23 44.641 19.23s-28.718-8.736-44.641-9.526c-11.279-.559-28.845 5.405-28.845 5.405s16.539-14.008 28.845-15.109z" class="Vector 6_2"/>
          <path stroke="#fff" stroke-width=".275" d="M231.373 535.587s18.103-10.578 30.905-10.988c16.379-.525 39.147 15.109 39.147 15.109" class="Vector 4_7"/>
        </g>
      </g>
      <g class="Group 5.1_2">
        <g class="Group_3">
          <path fill="#183D45" d="M343.32 506.055c-6.044 18.132-24.267 24.954-39.834 34.34 0 0 11.421-27.446 24.038-40.521 14.948-15.49 47.388-28.158 47.388-28.158s-25.548 16.208-31.592 34.339z" class="Vector 5_3"/>
          <path stroke="#fff" stroke-width=".412" d="M303.485 540.395c18.544-22.206 48.076-58.377 65.932-65.932" class="Vector 4_8"/>
        </g>
        <g class="Group 2_2">
          <path fill="#285964" d="M348.814 521.165c-17.804-1.594-44.641 19.23-44.641 19.23s28.719-8.736 44.641-9.526c11.28-.559 28.845 5.405 28.845 5.405s-16.539-14.008-28.845-15.109z" class="Vector 6_3"/>
          <path stroke="#fff" stroke-width=".275" d="M376.286 535.587s-18.102-10.578-30.905-10.988c-16.379-.525-39.147 15.109-39.147 15.109" class="Vector 4_9"/>
        </g>
      </g>
    </g>
  </g>
</svg>
