<svg xmlns="http://www.w3.org/2000/svg" width="1155" height="700" fill="none" viewBox="0 0 1155 700">
  <g class="fixing_server">
    <path fill="#fff" d="M0 0h1155v700H0z"/>
    <g class="Group 5">
      <rect width="504.363" height="323.817" x="323.735" y="279.04" fill="#F5F5F5" class="Rectangle" rx="16.307"/>
      <g class="Group 4">
        <g class="Group 3">
          <rect width="83.866" height="62.674" x="461.182" y="389.642" fill="#000" fill-opacity=".04" class="Rectangle 2" rx="8.116"/>
          <rect width="83.866" height="4.896" x="461.182" y="456.234" fill="#000" fill-opacity=".04" class="Rectangle 2.1" rx="2.448"/>
          <rect width="53.206" height="4.896" x="461.182" y="465.047" fill="#000" fill-opacity=".04" class="Rectangle 2.2" rx="2.448"/>
        </g>
        <g class="Group 3.1">
          <rect width="83.866" height="62.674" x="567.18" y="389.642" fill="#000" fill-opacity=".04" class="Rectangle 2_2" rx="8.116"/>
          <rect width="83.866" height="4.896" x="567.18" y="456.234" fill="#000" fill-opacity=".04" class="Rectangle 2.1_2" rx="2.448"/>
          <rect width="53.206" height="4.896" x="567.18" y="465.047" fill="#000" fill-opacity=".04" class="Rectangle 2.2_2" rx="2.448"/>
        </g>
        <g class="Group 3.2">
          <rect width="83.866" height="62.674" x="673.178" y="389.642" fill="#000" fill-opacity=".04" class="Rectangle 2_3" rx="8.116"/>
          <rect width="83.866" height="4.896" x="673.178" y="456.234" fill="#000" fill-opacity=".04" class="Rectangle 2.1_3" rx="2.448"/>
          <rect width="53.206" height="4.896" x="673.178" y="465.047" fill="#000" fill-opacity=".04" class="Rectangle 2.2_3" rx="2.448"/>
        </g>
        <rect width="80.372" height="8.854" x="358.679" y="389.642" fill="#000" fill-opacity=".03" class="Rectangle 2_4" rx="4.427"/>
        <rect width="80.372" height="8.854" x="358.679" y="408.616" fill="#000" fill-opacity=".03" class="Rectangle 2.1_4" rx="4.427"/>
        <rect width="80.372" height="8.854" x="358.679" y="427.59" fill="#000" fill-opacity=".03" class="Rectangle 2.2_4" rx="4.427"/>
        <rect width="80.372" height="8.854" x="358.679" y="446.563" fill="#000" fill-opacity=".03" class="Rectangle 2.3" rx="4.427"/>
        <rect width="218.984" height="22.768" x="461.182" y="331.457" fill="#000" fill-opacity=".06" class="Rectangle 3" rx="3.494"/>
      </g>
    </g>
    <path stroke="#000" stroke-dasharray="11.65 11.65" stroke-width="1.165" d="M490.303 171.968c8.542-39.604 52.999-107.396 162.491-61.735" class="Vector 2"/>
    <g class="Group">
      <path fill="#6043D1" d="M470.945 404.797l5.337-7.116 4.744 2.965-5.93 8.005v5.041l-4.151 4.151-3.854-.89 3.854-3.261.89-3.558-2.076-1.483h-4.151l-2.668 3.558-.593-5.337 4.744-3.261 3.854 1.186z" class="Vector 10"/>
      <path fill="#1E2884" d="M490.514 389.91l-5.053 5.322-4.525-3.289 6.474-7.572.351-5.028 4.431-3.851h3.362l-4.787 4.93v3.949l1.967.372 4.14.29 3.13-3.722v5.724l-4.45 2.578-5.04.297z" class="Vector 10.1"/>
      <path fill="#1E2884" d="M508.558 207.887c-2.106-6.62-8.631-9.59-11.508-9.59 0 6.073 1.438 19.947 1.438 26.852 0 8.631-4.315 10.549-6.233 18.221-1.918 7.672-.959 9.111 0 14.385.959 5.275 11.988 5.754 15.344 5.754 3.357 0 .959-9.59-1.438-16.783-2.398-7.192 1.438-6.713 1.438-10.069 0-3.357 4.316-18.221.959-28.77z" class="Vector 10_2"/>
      <g class="Union">
        <path fill="#fff" fill-rule="evenodd" d="M479.308 233.78c-1.918 7.288-3.516 13.312-4.795 14.91 7.672 8.823 18.143 10.456 22.778 8.219l-1.2-14.498s1.516.233 4.316 0c8.631-.719 4.795-33.04 4.795-33.04-9.207-15.344-20.14-7.992-24.455-2.398-5.754 9.207-3.836 21.373-1.439 26.807zm-16.782 149.605l7.672-6.713 4.795 4.315 7.193 2.398 11.029 6.233c1.758 1.279 5.274 4.795 5.274 8.631 0 4.795-12.916 11.968-18.67 7.173l-9.621-7.173-1.918-6.713-5.754-8.151z" clip-rule="evenodd"/>
        <path fill="#000" d="M474.513 248.69l-.374-.3-.25.313.263.301.361-.314zm4.795-14.91l.464.122.043-.162-.068-.154-.439.194zm17.983 23.129l.208.431.297-.143-.027-.328-.478.04zm-1.2-14.498l.073-.474-.601-.092.05.605.478-.039zm4.316 0l-.04-.478.04.478zm4.795-33.04l.476-.057-.012-.102-.053-.088-.411.247zm-24.455-2.398l-.38-.293-.014.019-.013.02.407.254zm-10.549 169.699l.321-.357-.316-.284-.32.28.315.361zm-7.672 6.713l-.315-.361-.326.284.25.353.391-.276zm12.467-2.398l-.32.357.074.067.095.031.151-.455zm7.193 2.398l.236-.418-.04-.023-.044-.014-.152.455zm11.029 6.233l.282-.388-.023-.016-.024-.013-.235.417zm-13.396 15.804l.307-.368-.01-.009-.011-.007-.286.384zm-9.621-7.173l-.461.132.045.156.13.097.286-.385zm-1.918-6.713l.461-.131-.022-.079-.047-.066-.392.276zm6.608-142.547c.367-.458.728-1.192 1.09-2.101.367-.921.751-2.065 1.152-3.379.802-2.628 1.684-5.966 2.642-9.607l-.927-.244c-.96 3.647-1.837 6.965-2.632 9.571-.398 1.302-.774 2.419-1.126 3.304-.357.898-.676 1.517-.948 1.857l.749.599zm22.194 7.488c-2.172 1.049-5.815 1.222-9.905.01-4.071-1.206-8.527-3.771-12.302-8.112l-.723.629c3.897 4.483 8.512 7.146 12.753 8.403 4.222 1.251 8.131 1.122 10.594-.067l-.417-.863zm-1.469-14.027l1.2 14.498.956-.079-1.2-14.498-.956.079zm4.754-.517a25.669 25.669 0 01-3.149.086 14.332 14.332 0 01-.8-.052l-.196-.022a1.552 1.552 0 00-.047-.006l-.01-.002h-.002.001l-.073.474-.073.474h.003l.005.001.016.002.06.008a15.024 15.024 0 001.078.082 27.02 27.02 0 003.266-.089l-.079-.956zm4.835-32.562l-.477.056.001.001v.005l.002.017.008.068.03.268a144.288 144.288 0 01.422 4.681c.224 3.034.433 7.081.373 11.147-.06 4.074-.389 8.133-1.227 11.205-.419 1.537-.957 2.793-1.626 3.676-.662.875-1.432 1.362-2.341 1.438l.079.956c1.249-.104 2.247-.784 3.027-1.815.773-1.021 1.352-2.409 1.787-4.003.87-3.19 1.2-7.346 1.26-11.443.06-4.104-.15-8.182-.376-11.231a145.986 145.986 0 00-.425-4.715 65.983 65.983 0 00-.038-.343l-.002-.018-.001-.005v-.001l-.476.056zm-24.075-2.105c2.119-2.747 5.831-5.876 10.08-6.471 2.11-.296 4.366.031 6.656 1.356 2.298 1.329 4.655 3.678 6.927 7.466l.823-.493c-2.331-3.884-4.793-6.37-7.269-7.803-2.484-1.437-4.957-1.8-7.27-1.476-4.598.644-8.51 3.988-10.707 6.835l.76.586zm-1.38 26.32c-1.17-2.653-2.237-6.988-2.297-11.801-.059-4.81.889-10.055 3.704-14.558l-.814-.508c-2.939 4.703-3.909 10.145-3.849 15.078.061 4.931 1.152 9.395 2.379 12.176l.877-.387zm-9.864 142.725l-7.672 6.713.631.722 7.672-6.713-.631-.722zm5.431 4.32l-4.795-4.316-.641.713 4.795 4.316.641-.713zm7.024 2.299l-7.193-2.398-.303.91 7.192 2.398.304-.91zm11.112 6.271l-11.028-6.234-.472.835 11.029 6.234.471-.835zm5.519 9.048c0-2.06-.941-3.996-2.069-5.555-1.132-1.564-2.488-2.797-3.403-3.464l-.565.776c.843.613 2.124 1.776 3.191 3.25 1.069 1.478 1.887 3.218 1.887 4.993h.959zm-19.457 7.541c1.556 1.297 3.572 1.763 5.669 1.688 2.097-.076 4.313-.694 6.329-1.61 2.016-.915 3.859-2.141 5.206-3.458 1.328-1.298 2.253-2.764 2.253-4.161h-.959c0 1.001-.691 2.23-1.964 3.475-1.255 1.227-3.001 2.394-4.933 3.271-1.932.878-4.024 1.454-5.967 1.524-1.943.071-3.7-.365-5.02-1.465l-.614.736zm-9.6-7.156l9.62 7.172.573-.768-9.62-7.173-.573.769zm-2.093-6.966l1.918 6.713.922-.263-1.918-6.713-.922.263zm-5.684-8.007l5.754 8.152.783-.553-5.754-8.152-.783.553z"/>
      </g>
      <path fill="#1E2884" d="M437.113 259.673c-12.659 5.754-25.414 67.13-23.496 78.638 1.918 11.509 47.565 53.716 47.565 53.716 6.228-6.423 7.669-9.701 9.016-15.355l-33.085-43.156 20.139-53.224 66.247-1.252s-1.73-5.419-2.329-8.736c-.599-3.317-24.119-16.864-24.119-16.864-12.276 3.452-20.779-1.439-23.496-4.316-6.873 1.119-23.783 4.795-36.442 10.549z" class="Vector 7"/>
      <path fill="#fff" fill-opacity=".05" stroke="#000" stroke-width=".959" d="M480.747 206.973c-5.754 9.207-3.836 21.373-1.438 26.807l8.631 6.713 8.151 1.918s1.517.233 4.316 0c8.631-.719 4.795-33.04 4.795-33.04-9.207-15.344-20.139-7.992-24.455-2.398z" class="Vector 8.1"/>
      <path fill="#1E2884" d="M484.595 214.843c13.427-2.877 14.865-9.111 14.386-10.07 1.917-2.877-1.93-8.394-6.246-10.312-4.316-1.918-15.569 2.64-17.742 6.713-9.59 17.978-7.193 21.098-8.631 33.085-1.439 11.988-20.126 15.108-19.647 25.657.48 10.549 11.016 1.438 19.647 5.274 14.353 6.379 13.905-11.987 16.782-17.262 2.302-4.219-.479-11.111-1.438-13.669-1.119-3.676-7.851-17.115 2.889-19.416z" class="Vector 9"/>
      <path fill="#010101" fill-opacity=".13" d="M484.595 214.843c13.426-2.877 14.865-9.111 14.386-10.07 1.917-2.877-1.93-8.394-6.246-10.312-4.316-1.918-15.569 2.64-17.742 6.713-9.59 17.978-7.193 21.098-8.631 33.085-1.439 11.988-20.126 15.108-19.647 25.657.48 10.549 11.016 1.438 19.647 5.274 14.353 6.379 13.905-11.987 16.782-17.262 2.302-4.219-.479-11.111-1.438-13.669-1.119-3.676-7.851-17.115 2.889-19.416z" class="Vector 9.1"/>
    </g>
    <g class="Group 2">
      <g class="Union_2">
        <path fill="#fff" fill-rule="evenodd" d="M679.641 171.612l-1.452-7.743s-5.324 1.02-8.189-1.31-6.04-28.503 2.865-33.536c10.164-4.356 22.747 1.452 16.456 30.974l1.936 11.615h-11.616zM614.213 279.04s-19.345 5.824-17.597 9.016c1.135 2.071 5.823 1.631 5.823 1.631s-14.992 14.543-7.571 12.929c.665-.144 1.343-.281 2.034-.42 7.013-1.416 15.233-3.075 22.635-15.412l-5.324-7.744z" clip-rule="evenodd"/>
        <path fill="#000" d="M678.189 163.869l.492-.092-.093-.494-.493.095.094.491zm1.452 7.743l-.492.093.077.407h.415v-.5zM670 162.559l.315-.388-.315.388zm2.865-33.536l-.197-.46-.025.011-.024.013.246.436zm16.456 30.974l-.489-.104-.02.093.015.093.494-.082zm1.936 11.615v.5h.59l-.097-.582-.493.082zm-94.641 116.444l-.438.24.438-.24zm17.597-9.016l.412-.283-.206-.301-.35.105.144.479zm-11.774 10.647l.348.359 1.021-.989-1.415.133.046.497zm-7.571 12.929l.106.489-.106-.489zm2.034-.42l.099.49-.099-.49zm22.635-15.412l.429.257.165-.276-.182-.265-.412.284zm58.161-122.823l1.451 7.744.983-.185-1.451-7.743-.983.184zm-8.014-1.014c1.566 1.273 3.755 1.603 5.474 1.64a17.212 17.212 0 002.873-.185c.079-.012.141-.022.183-.03l.05-.008a.086.086 0 00.013-.003l.004-.001h.002l-.094-.491-.094-.491h-.002l-.009.002-.041.007a15.16 15.16 0 01-.785.108c-.528.057-1.261.11-2.078.093-1.659-.036-3.565-.36-4.865-1.417l-.631.776zm2.935-34.36c-2.397 1.355-3.919 4.091-4.842 7.335-.927 3.259-1.278 7.127-1.258 10.885.019 3.762.409 7.441.977 10.333.284 1.446.614 2.705.969 3.686.178.49.365.919.56 1.271.192.345.409.646.659.85l.631-.776c-.107-.088-.251-.263-.416-.56a7.95 7.95 0 01-.494-1.126c-.332-.916-.65-2.123-.928-3.537-.555-2.828-.939-6.444-.958-10.146-.019-3.705.327-7.47 1.22-10.607.896-3.151 2.317-5.575 4.372-6.737l-.492-.871zm17.191 31.514c3.154-14.799 1.62-23.826-2.154-28.605-3.815-4.833-9.775-5.167-14.988-2.933l.394.919c4.951-2.121 10.365-1.729 13.809 2.633 3.486 4.416 5.098 13.055 1.961 27.778l.978.208zm1.94 11.429l-1.936-11.615-.987.164 1.936 11.616.987-.165zm-4.849.582h4.356v-1h-4.356v1zm-7.26 0h7.26v-1h-7.26v1zm-82.586 115.704c-.079-.144-.097-.362.21-.757.308-.396.862-.848 1.631-1.336 1.528-.969 3.747-1.983 6.05-2.908a117.744 117.744 0 016.43-2.341 134.46 134.46 0 012.767-.89l.16-.049a.974.974 0 00.051-.015l.003-.001-.144-.479-.144-.479-.001.001h-.003l-.011.004a.748.748 0 01-.042.012l-.163.05c-.142.044-.35.108-.614.192-.528.166-1.279.407-2.175.706a117.335 117.335 0 00-6.487 2.361c-2.315.93-4.604 1.971-6.213 2.992-.798.506-1.469 1.033-1.884 1.566-.417.535-.656 1.198-.298 1.851l.877-.48zm5.384 1.871l-.046-.497h-.002l-.008.001-.036.002-.142.01a12.85 12.85 0 01-2.195-.051c-.632-.072-1.274-.204-1.813-.429-.541-.226-.933-.526-1.142-.907l-.877.48c.358.655.978 1.076 1.634 1.35.659.275 1.403.422 2.085.499a13.879 13.879 0 002.572.042l.012-.001.003-.001h.002l-.047-.498zm-7.677 12.441c-.439.095-.766.124-1.002.11-.238-.014-.342-.07-.383-.103-.037-.03-.152-.166.02-.706.159-.501.513-1.155 1.021-1.917a31.71 31.71 0 011.839-2.438c1.398-1.702 3.03-3.459 4.316-4.793a116.855 116.855 0 012.173-2.194l.031-.031.008-.007.002-.002v-.001l-.348-.359-.348-.358h-.001a.002.002 0 01-.002.002l-.008.009-.033.031-.125.123-.466.461c-.397.397-.956.961-1.603 1.633-1.294 1.342-2.946 3.12-4.369 4.852a32.366 32.366 0 00-1.897 2.517c-.524.785-.941 1.532-1.143 2.168-.19.596-.259 1.331.304 1.787.26.211.594.303.952.324.36.022.785-.025 1.274-.131l-.212-.977zm2.041-.423c-.69.14-1.372.277-2.041.423l.212.977c.661-.144 1.336-.28 2.027-.419l-.198-.981zm22.305-15.179c-3.661 6.103-7.506 9.535-11.277 11.622-3.781 2.092-7.517 2.849-11.028 3.557l.198.981c3.502-.707 7.382-1.487 11.314-3.663 3.943-2.182 7.91-5.747 11.651-11.982l-.858-.515zm-5.307-7.203l5.324 7.744.824-.567-5.324-7.743-.824.566z"/>
      </g>
      <path fill="#fff" stroke="#000" stroke-width=".968" d="M626.888 324.549c1.866-10.164 44.526-54.689 44.526-54.689 19.746 0 36.621-6.453 42.59-9.68 11.131 35.814-26.135 55.657-60.497 74.532l15.003 59.045-12.584 6.292s-33.394-51.785-29.038-75.5z" class="Vector 3"/>
      <path fill="#000" stroke="#000" stroke-width=".968" d="M643.038 421.147c10.647-10.649 13.396-20.967 13.396-20.967l11.648-5.824s9.352 7.673 8.324 12.813c-1.164 5.824-33.367 22.132-33.367 22.132s-3.547-4.607-.001-8.154z" class="Vector 5"/>
      <path fill="#1E2884" d="M669.417 272.051l1.512-20.384-51.785 38.036-8.228-9.196 41.138-49.366 6.292-9.195s13.675-35.246 16.579-45.409c1.642-5.747 11.066-8.154 11.066-8.154 27.373-2.33 29.956 71.08 30.601 103.668-5.824 13.698-16.623-1.165-47.175 0z" class="Vector"/>
      <path fill="#000" fill-opacity=".07" d="M430.315 336.698c-4.52-18.08 26.208-55.911 26.208-55.911l-19.802 52.999 32.032 41.351s-36.108-29.12-38.438-38.439z" class="Vector 13"/>
      <path fill="#000" fill-opacity=".21" d="M626.003 281.952c-1.34 1.675-2.912 4.659-2.912 4.659l48.34-35.527 12.813-38.438s-6.989 1.83-6.989 5.241c0 11.066-3.563 10.665-10.483 23.297-10.456 19.083-26.791 23.296-40.769 40.768z" class="Vector 12"/>
      <path fill="#1E2884" stroke="#000" stroke-width=".968" d="M663.078 125.678c-3.097 4.259 3.226 8.228 6.776 9.68l9.195 3.872s1.452 9.195 2.42 8.711 1.324-7.008 2.904-7.743c1.821-.849 3.872 3.871 2.42 5.807l-2.42 4.356 2.42 6.292 1.936 3.388c1.29-2.904 3.581-15.488 4.355-19.359.968-4.84.484-8.712-6.291-13.068-7.529-4.839-5.808-.484-14.036-1.936-8.227-1.452-5.807-5.323-9.679 0z" class="Vector 11"/>
    </g>
    <path fill="#1E2884" fill-rule="evenodd" d="M733.748 255.744v5.824h1.165v17.472h51.252v-17.472h1.164v-5.824h-53.581z" class="Union_3" clip-rule="evenodd"/>
    <path fill="#fff" fill-opacity=".13" d="M734.913 279.04v-17.472h51.252v17.472h-51.252z" class="Vector_2"/>
    <path fill="#fff" fill-rule="evenodd" d="M762.974 265.062h-2.541v3.389h-3.389v2.541h3.389v3.389h2.541v-3.389h3.388v-2.541h-3.388v-3.389z" class="Union_4" clip-rule="evenodd"/>
    <g class="Icons / Medium / icon-settings">
      <mask id="a" width="36" height="36" x="563" y="125" class="mask0" maskUnits="userSpaceOnUse">
        <path fill="#000" fill-rule="evenodd" d="M579.565 125.285c-.644 0-1.165.522-1.165 1.165v2.789a13.726 13.726 0 00-4.848 2.01l-1.974-1.974a1.166 1.166 0 00-1.647 0l-2.254 2.255a1.164 1.164 0 000 1.647l1.973 1.973a13.706 13.706 0 00-2.009 4.848h-2.79c-.643 0-1.165.522-1.165 1.165v3.188c0 .643.522 1.165 1.165 1.165h2.79c.357 1.761 1.05 3.4 2.009 4.848l-1.974 1.973a1.167 1.167 0 000 1.648l2.255 2.254a1.164 1.164 0 001.647 0l1.973-1.974a13.713 13.713 0 004.849 2.01v2.79c0 .643.521 1.164 1.165 1.164h3.188c.643 0 1.164-.521 1.164-1.164v-2.79a13.703 13.703 0 004.849-2.009l1.973 1.973a1.164 1.164 0 001.647 0l2.254-2.254a1.165 1.165 0 000-1.648l-1.973-1.973a13.726 13.726 0 002.01-4.848h2.789c.643 0 1.165-.522 1.165-1.165v-3.188c0-.643-.522-1.165-1.165-1.165h-2.789a13.726 13.726 0 00-2.01-4.848l1.973-1.973a1.164 1.164 0 000-1.647l-2.254-2.255a1.165 1.165 0 00-1.648 0l-1.973 1.974a13.719 13.719 0 00-4.848-2.01v-2.789c0-.643-.521-1.165-1.164-1.165h-3.188zm1.593 23.909a6.437 6.437 0 100-12.874 6.437 6.437 0 000 12.874z" class="Settings" clip-rule="evenodd"/>
      </mask>
      <g class="Colors / Flat / Black" mask="url(#a)">
        <path fill="#2D3688" d="M552.038 113.637h326.147v232.962H552.038z" class="Black"/>
      </g>
    </g>
    <path stroke="#000" stroke-linecap="round" stroke-width="2.33" d="M273 604.173h640.522" class="Line"/>
    <circle cx="359.261" cy="302.919" r="5.242" fill="#000" fill-opacity=".26" class="Ellipse"/>
    <circle cx="380.228" cy="302.919" r="5.242" fill="#141414" fill-opacity=".09" class="Ellipse_2"/>
    <circle cx="401.195" cy="302.919" r="5.242" fill="#000" fill-opacity=".26" class="Ellipse_3"/>
    <g class="Group 7">
      <path fill="#1E2884" d="M735 354.854a7.854 7.854 0 017.854-7.854h120.42a8.726 8.726 0 018.726 8.726v247.248H735v-248.12z" class="Rectangle_2"/>
      <rect width="75.71" height="14.421" x="765.541" y="440.369" fill="#fff" fill-opacity=".12" class="Rectangle 2_5" rx="7.211"/>
      <rect width="120.42" height="27.924" x="744.599" y="360.089" fill="#000" fill-opacity=".12" class="Rectangle 2.4" rx="3.282"/>
      <rect width="120.42" height="27.924" x="744.599" y="392.376" fill="#000" fill-opacity=".12" class="Rectangle 2.5" rx="3.282"/>
      <rect width="75.71" height="14.421" x="765.541" y="460.198" fill="#fff" fill-opacity=".12" class="Rectangle 2.1_5" rx="7.211"/>
      <rect width="75.71" height="14.421" x="765.541" y="480.027" fill="#fff" fill-opacity=".12" class="Rectangle 2.2_5" rx="7.211"/>
      <rect width="75.71" height="66.697" x="763.796" y="507.561" fill="#fff" fill-opacity=".09" class="Rectangle 2.3_2" rx="7.211"/>
      <path fill="#000" fill-opacity=".1" d="M735 353.981s.068-4.882 3.49-5.672C744.162 347 754.829 347 754.829 347l37.855 255.974H735V353.981z" class="Rectangle_3"/>
    </g>
    <g class="Group 6.3">
      <g class="Group 3_2">
        <path fill="#253093" d="M303.375 558.944V467s18.389 56.89 25.285 87.921c2.693 12.118-8.046 31.606-8.046 31.606s-17.239-14.823-17.239-27.583z" class="Vector 2_2"/>
        <path fill="#000" fill-opacity=".05" d="M313.143 515.27l-4.022-29.307 16.09 55.741-12.068-26.434z" class="Vector 4"/>
        <path fill="#000" fill-opacity=".18" d="M303.374 516.42c1.38 8.275 13.409 47.312 19.538 65.51l-2.298 4.022c-10.344-7.47-15.516-17.814-17.24-25.284V516.42z" class="Vector 4_2"/>
        <path stroke="#000" stroke-width=".575" d="M322.912 602.042l-18.963-133.318" class="Vector_3"/>
      </g>
      <g class="Group 4_2">
        <path fill="#3544C2" d="M334.126 582.504c-3.42-8.776-6.155-43.36 10.259-111.481 10.449 32.678 23.026 100.725-10.259 111.481z" class="Vector 4_3"/>
        <path fill="#000" fill-opacity=".11" d="M339.577 500.904c3.448 20.688-2.068 54.132-8.045 61.488-1.723-16.091 3.448-50.569 8.045-61.488z" class="Vector 4_4"/>
        <path fill="#000" fill-opacity=".18" d="M333.831 584.803c5.746-18.772 13.791-45.397 20.687-64.361 2.873 19.347 1.724 57.465-20.687 64.361z" class="Vector 4_5"/>
        <path stroke="#000" stroke-width=".575" d="M324.062 602.617c7.853-11.301 23.33-43.788 22.411-83.324-.468-20.113-2.107-50.76-2.299-46.546" class="Vector 3_2"/>
      </g>
      <g class="Group 5_2">
        <g class="Group_2">
          <path fill="#202A8A" d="M290.733 573.31c5.056 15.17 20.304 20.879 33.329 28.732 0 0-9.556-22.965-20.113-33.904-12.507-12.961-39.65-23.561-39.65-23.561s21.377 13.562 26.434 28.733z" class="Vector 5_2"/>
          <path stroke="#fff" stroke-width=".345" d="M324.062 602.042c-15.516-18.58-40.225-48.845-55.166-55.166" class="Vector 4_6"/>
        </g>
        <g class="Group 2_2">
          <path fill="#3544C2" d="M286.135 585.952c14.898-1.333 37.352 16.09 37.352 16.09s-24.029-7.31-37.352-7.97c-9.437-.468-24.135 4.522-24.135 4.522s13.839-11.721 24.135-12.642z" class="Vector 6"/>
          <path stroke="#fff" stroke-width=".23" d="M263.149 598.02s15.147-8.851 25.86-9.194c13.704-.439 32.755 12.642 32.755 12.642" class="Vector 4_7"/>
        </g>
      </g>
      <g class="Group 5.1">
        <g class="Group_3">
          <path fill="#1C2473" d="M356.817 573.31c-5.057 15.17-20.305 20.879-33.33 28.732 0 0 9.556-22.965 20.113-33.904 12.507-12.961 39.65-23.561 39.65-23.561s-21.377 13.562-26.433 28.733z" class="Vector 5_3"/>
          <path stroke="#fff" stroke-width=".345" d="M323.487 602.042c15.515-18.58 40.225-48.845 55.166-55.166" class="Vector 4_8"/>
        </g>
        <g class="Group 2_3">
          <path fill="#3544C2" d="M361.414 585.952c-14.898-1.333-37.352 16.09-37.352 16.09s24.029-7.31 37.352-7.97c9.438-.468 24.135 4.522 24.135 4.522s-13.839-11.721-24.135-12.642z" class="Vector 6_2"/>
          <path stroke="#fff" stroke-width=".23" d="M384.399 598.02s-15.147-8.851-25.859-9.195c-13.704-.439-32.755 12.643-32.755 12.643" class="Vector 4_9"/>
        </g>
      </g>
    </g>
  </g>
</svg>
