<svg xmlns="http://www.w3.org/2000/svg" width="1152" height="700" fill="none" viewBox="0 0 1152 700">
  <g class="four_four2">
    <path fill="#fff" d="M0 0h1152v700H0z"/>
    <path fill="#ECE6E6" d="M441.294 281.614c122.357-83.974 303.91-62.754 379.392-41.647 89.632 25.064 93.892 100.292-116.409 261.354-210.301 161.062-522.991 41.647-524.266-20.823-1.275-62.47 108.337-93.918 261.283-198.884z" class="Vector"/>
    <g class="Group">
      <g class="4">
        <g class="color 2">
          <path fill="#DAE4FA" d="M260.92 421.895l81.25 32.881-16.17 5.98L260.92 434v-12.105zM463.578 500.552L500 485.079V497.5L463.578 515l-79.383-29.921L289.871 524 175 470.895v-16.119L289.871 507l94.324-36.105 79.383 29.657z"/>
        </g>
        <path fill="#EE7E79" d="M219.828 440.592L175 454.776 289.871 507l94.324-36.105 79.383 29.658L500 485.079l-71.911-27.724 24.282-11.605-37.357-14.829-30.819 9.671L300.144 409l-39.224 12.895 81.25 32.881-52.299 19.342-70.043-33.526z" class="color 1"/>
      </g>
      <g class="4_2">
        <g class="color 2_2">
          <path fill="#DAE4FA" d="M724.92 228.895l81.25 32.881-16.17 5.98L724.92 241v-12.105zM927.578 307.552L964 292.079V304.5L927.578 322l-79.383-29.921L753.871 331 639 277.895v-16.119L753.871 314l94.324-36.105 79.383 29.657z"/>
        </g>
        <path fill="#EE7E79" d="M683.828 247.592L639 261.776 753.871 314l94.324-36.105 79.383 29.658L964 292.079l-71.911-27.724 24.282-11.605-37.357-14.829-30.819 9.671L764.144 216l-39.224 12.895 81.25 32.881-52.299 19.342-70.043-33.526z" class="color 1_2"/>
      </g>
      <g class="hole">
        <g class="zero">
          <path fill="#DAE4FA" d="M357 368.288L564.089 435 758 373.712V390l-193.911 63.5L357 384v-15.712z" class="color 2_3"/>
          <path fill="#EE7E79" d="M564.089 435L357 368.288 564.089 307 758 373.712 564.089 435z" class="color 1_3"/>
        </g>
        <mask id="a" width="401" height="409" x="357" y="26" class="mask0" maskUnits="userSpaceOnUse">
          <path fill="#EE7E79" d="M564.089 435L357 368.288 485 26l273 347.712L564.089 435z" class="Vector 2.1"/>
        </mask>
        <g class="person" mask="url(#a)">
          <path fill="#DAE4FA" fill-rule="evenodd" d="M491.407 484.314l-49.589-341.255 11.654.914 5.134 38.642 1.042 7.332.684 4.804 79.981 21.584-18.242-85.993 11.156 1.019 70.903 334.251-11.526-2.765-12.742-60.07-90.655-4.994 12.729 89.507-10.529-2.976zm66.354-185.726l-14.858-70.04-81.025-22.925 10.716 75.347 85.167 17.618zm-83.765-7.757l85.933 17.977 17.976 84.746-90.209-6.39-13.7-96.333z" class="color 2_4" clip-rule="evenodd"/>
          <g class="hammer">
            <path fill="#4B5361" d="M496.208 257.336l7.184-1.568c-2.728-1.834-2.184-5.174-1.571-6.615l-.896-4.106-7.413 1.682 1.125 3.992c1.91 1.101 1.843 4.869 1.571 6.615z" class="Vector 11"/>
            <path fill="#DAE4FA" d="M505.071 263.75l-1.679-7.982-7.185 1.569c-.283 4.595 2.818 14.527 17.484 17.498l.917-1.592c-3.073-.846-9.284-3.931-9.537-9.493z" class="Vector 11.4"/>
            <path fill="#CDD6E6" d="M510.552 261.036c-.906-1.371-1.126-3.613-1.122-4.562-1.483.26-4.765.483-6.037-.706l1.68 7.982c.8-.68 3.016-2.176 5.479-2.714z" class="Vector 11.3"/>
            <path fill="#4B5361" d="M509.429 256.473l22.477-4.595c-.233 1.283.448 2.92 1.226 4.227l-22.58 4.931c-.907-1.371-1.127-3.613-1.123-4.563z" class="Vector 11.2"/>
            <path fill="#EE7E79" d="M572.013 249.639c1.721-3.412-.884-7.524-1.793-8.211l-37.752 9.319a2.154 2.154 0 00-.562 1.132c-.234 1.282.447 2.919 1.225 4.227.345.579.709 1.094 1.021 1.484l37.861-7.951z" class="Vector 11.1"/>
          </g>
          <g class="construction worker">
            <path fill="#EDC7C5" d="M634.083 259.609c-14.778-8.154-30.066 1.529-30.831 1.784-4.586 2.803-5.096 8.408-6.879 10.191-.806.806-6.37 4.332-7.389 5.096-1.02.765-.51 1.784.254 2.294.765.509.51.764-.254 2.293-.612 1.223-.255 2.888 0 3.567-2.039 0-1.529 1.784-1.529 2.548s-2.548 2.548-4.077 5.606c-1.529 3.057 9.428 7.898 12.485 11.72 2.446 3.058 22.083 1.274 31.595 0 .765-1.698 2.345-5.707 2.548-8.153.255-3.058 7.39-5.351 10.192-8.409 2.803-3.057 8.664-20.383-6.115-28.537z" class="Vector 5"/>
            <g class="Vector 6">
              <path fill="#EDC7C5" d="M599.339 310.765c-1.631.408-16.138-.849-20.129 3.567-6.625-5.606-16.817-49.176-18.091-49.941-.972-.583-2.176-3.839-2.727-5.612l-.076.007c-2.803.254-7.644-10.702-9.937-12.486-2.294-1.783-3.568-6.37-3.568-7.644s1.529-3.058 4.077 0 3.822-1.019 8.663 0c4.842 1.019 7.644 11.211 9.173 14.269s34.653 57.33 32.615 57.84zM534.11 370.388c-1.835-1.63 4.331-17.156 7.644-24.715-6.2-1.274-20.69-3.822-29.047-3.822-10.447 0-22.678-11.721-22.678-12.995 0-1.274-1.528-8.409-2.293-10.957-.764-2.548.765-10.447-3.822-9.682-4.586.764-1.529 12.74-3.058 13.759-1.528 1.019-7.389-2.038-10.956-1.019-3.567 1.019-2.293 2.803-2.803 4.332-2.548 1.783.765 4.841-1.274 6.37-1.63 1.223-1.189 3.397-.764 4.331-.425 1.019-1.019 3.618 0 5.861 1.274 2.802 5.605.509 8.408 3.057 2.803 2.548 8.154 1.274 11.976 3.822 3.567 6.625 50.96 23.697 48.667 21.658z"/>
            </g>
            <path fill="url(#paint0_linear)" d="M620.998 301.338c11.975-.255 6.115 3.567 9.173 6.88 3.057 3.312 15.288 14.778 17.836 24.206 2.548 9.427 14.778 47.392 14.778 50.705 0 3.312 3.058 55.546 1.529 56.566-1.529 1.019-75.676 2.293-77.46 0-1.783-2.294-2.548-17.327-4.841-22.932-2.293-5.606-11.975-42.552-10.701-51.98-9.088 4.332-29.302 12.333-37.456 9.683-8.154-2.65-8.493-3.313-7.644-3.313.085-8.493 1.733-25.989 7.644-28.028 7.389-2.548 4.332 3.313 15.798 0 11.466-3.312 16.816-10.447 20.893-11.975 4.077-1.529 4.841-13.505 6.115-16.562.816-2.447 1.189-3.058 1.274-3.058l.765-.243a404.767 404.767 0 0110.205-3.069c.851-3.07-1.5-16.005 0-12.005 1.2 3.2 17.316 3.216 25.649 5.824 2.492-.409 4.693-.662 6.443-.699z" class="Vector 7"/>
            <path fill="#8A6564" d="M581.758 359.432c-4.892 2.447-10.192 5.606-12.231 6.88 0 3.312 6.37 43.061 10.192 49.686s4.332 18.6 4.587 19.874c.255 1.274 6.115.51 8.153.51 10.702.51 70.325 9.682 73.128 3.312 2.803-6.37-.509-56.311-1.529-60.897-1.019-4.586-11.72-42.552-14.268-48.412-2.548-5.86-8.707-22.293-19.664-27.389-10.956-5.096-21.912-2.293-17.071-1.784 4.841.51 10.49 12.866 19.918 16.943 18.091 16.052 9.173 33.633 3.312 42.806-5.86 9.173-20.384 17.072-36.182 14.524-12.638-2.039-17.496-11.551-18.345-16.053z" class="Vector 9"/>
            <path fill="#FFCB56" d="M605.454 265.173c-1.835 0-9.088-5.946-12.485-8.918 0-1.427 5.775-.255 8.663.509.595-.509 2.038-1.528 3.058-1.528 1.274 0 .764-1.529 9.172-6.625 8.409-5.096 21.658-4.332 32.87 7.644 11.211 11.975 3.312 27.263 2.038 29.047-1.274 1.783-1.274 2.293-1.019 4.077.255 1.783-2.293 1.528-1.019 3.312 1.274 1.784 1.019 2.803-1.274 2.803-1.835 0-16.902-12.91-24.206-19.365-5.861-16.052-13.505-10.956-15.798-10.956z" class="Vector 8"/>
          </g>
        </g>
      </g>
    </g>
    <path fill="#B7CFFD" d="M358.768 331.84c1.715 14.049 3.05 24.58 17.141 32.106-2.356-12.636-6.272-32.097-10.387-49.563 5.025-15.134 14.623-46.92 12.818-52.987-2.801 8.543-10.51 26.407-18.933 29.509-2.05-6.857-3.973-12.021-5.583-14.283-1.674 2.21-3.761 9.724-1.221 23.761-5.12 11.173-13.495 35.755-6.035 44.692l-1.98 2.185c-4.432-14.966-9.631-51.834 5.033-79.578-5.979 3.435-18.17 15.149-19.103 34.515-.933 19.366 3.39 34.656 5.668 39.88-4.499-7.884-13.477-28.317-13.4-46.973.096-23.321-.931-31.387 29.283-66.479-12.976 3.661-39.29 15.498-40.733 33.559-1.804 22.578 4.283 52.654 17.677 74.23-17.743-23.639-58.124-71.121-77.713-71.931 1.321 2.777 7.215 11.573 20.224 24.551 13.008 12.978 35.138 31.892 44.577 39.727-10.668-7.355-35.263-22.06-48.295-22.046-13.032.014-60.14.223-82.065.325 14.425 7.297 51.069 21.527 82.241 20.067 31.173-1.459 43.544 6.264 45.834 10.308-23.837 3.672-75.654 14.189-92.235 26.878 19.579-2.478 65.67-10.004 93.398-20.277 4.052-1.113 13.714-2.256 19.944 2.083-17.177 3.185-54.289 13.74-65.322 30.47 14.206-4.141 45.055-13.8 54.807-19.305 12.19-6.881 27.729-5.194 25.51-3.621-2.22 1.573-48.867 12.75-72.596 35.43 21.818-4.294 67.77-15.481 77.038-25.877.751-1.705 3.4-4.716 7.99-3.123 4.591 1.592-2.05-3.432-5.944-6.143-.461-6.641-.635-20.354 2.362-22.09z" class="plant"/>
  </g>
  <defs>
    <linearGradient id="paint0_linear" x1="595.318" x2="595.318" y1="295.452" y2="440.98" class="paint0_linear" gradientUnits="userSpaceOnUse">
      <stop stop-color="#DAE4FA"/>
      <stop offset="1" stop-color="#fff"/>
    </linearGradient>
  </defs>
</svg>
