<svg xmlns="http://www.w3.org/2000/svg" width="1152" height="700" fill="none" viewBox="0 0 1152 700">
  <g class="four_four3">
    <path fill="#fff" d="M0 0h1152v700H0z"/>
    <path fill="#A61717" fill-rule="evenodd" d="M683.5 247.5l-20.768 6.767L639 261.776V278l114.5 53 .196-.081.175.081 94.324-38.921 11.5 4.334L927.5 322l.034-.016.044.016 36.22-17.403.202-.097V292l-55.197-21.383 7.197-2.861V253l-36.986-15.079-.398.125-.116-.046-30.5 9.5-21.56-8.085L764.144 216l-.077.025L764 216l-10.294 3.431-28.786 9.464V241l64.516 26.524-35.867 13.45-69.741-33.382-.082.026-.246-.118zM198.732 447.267L219.5 440.5l.246.118.082-.026 69.741 33.382 35.867-13.45L260.92 434v-12.105l28.786-9.464L300 409l.067.025.077-.025 62.288 23.412L384 440.5l30.5-9.5.116.046.398-.125L452 446v14.756l-7.197 2.861L500 485v12.5l-.209.1-36.213 17.4-.044-.016-.034.016-67.8-25.585-11.505-4.336L289.871 524l-.175-.081-.196.081L175 471v-16.224l23.732-7.509zM564.089 307L758 373.712V390l-193.911 63.5L357 384v-15.712L564.089 307z" class="Primary" clip-rule="evenodd"/>
    <g class="4">
      <path fill="#DAE4FA" d="M175 455l44.5-14.5 70 33.5 36-13.5L261 434v-12l39-13 84 31.5 30.5-9.5 37.5 15v14.5l-7.5 3L500 485v12.5L463.5 515 384 485l-94.5 39L175 471v-16z" class="Vector" opacity=".2"/>
      <path fill="#EE7E79" d="M219.828 440.592L175 454.776 289.871 507l94.324-36.105 79.383 29.658L500 485.079l-71.911-27.724L452 446l-36.986-15.079-30.819 9.671L300.144 409l-39.224 12.895 81.25 32.881-52.299 19.342-70.043-33.526z" class="4_2" opacity=".2"/>
    </g>
    <g class="4_3">
      <path fill="#DAE4FA" d="M639 262l44.5-14.5 70 33.5 36-13.5L725 241v-12l39-13 84 31.5 30.5-9.5 37.5 15v14.5l-7.5 3L964 292v12.5L927.5 322 848 292l-94.5 39L639 278v-16z" class="Vector_2" opacity=".2"/>
      <path fill="#EE7E79" d="M683.828 247.592L639 261.776 753.871 314l94.324-36.105 79.383 29.658L964 292.079l-71.911-27.724L916 253l-36.986-15.079-30.819 9.671L764.144 216l-39.224 12.895 81.25 32.881-52.299 19.342-70.043-33.526z" class="4_4" opacity=".2"/>
    </g>
    <g class="zero">
      <path fill="#DAE4FA" d="M357 368.288L564.089 435 758 373.712V390l-193.911 63.5L357 384v-15.712z" class="color 2" opacity=".2"/>
      <path fill="url(#paint0_linear)" d="M564.089 435L357 368.288 564.089 307 758 373.712 564.089 435z" class="0"/>
    </g>
    <path fill="#DAE4FA" fill-rule="evenodd" d="M525.708 116.279l12.415-.137L611 491.288l-13.986-4.577-16.835-88.769-83.615 9.384L513.578 507l-12.415-3.006L433 113.137l12.415-.137 12.515 67.122 81.188 3.08-13.41-66.923zm15.091 79.245l-81.158-3.084 16.765 95.204 82.416-4.725-18.023-87.395zm-45.946 199.484l-16.736-95.046 82.387-4.72 17.993 90.378-83.644 9.388z" class="ladder" clip-rule="evenodd"/>
    <g class="Vector 6">
      <path fill="#EDC7C5" d="M599.339 310.765c-1.631.407-16.138-.85-20.129 3.567C572.585 308.726 561.5 267 560 264.5l-3.5-6c-1.889-1.363-5.5-1-7-4-.463-.926 2.36-.179 1.5-1.575-1.547-2.514-1.644-5.865-2.621-6.625-2.294-1.784-3.568-6.37-3.568-7.644s.653-2.029 4.077 0c3.112 1.844 7.612 0 12.112 1.844 6.147 2.518 4.195 9.367 5.724 12.425 1.529 3.057 34.653 57.33 32.615 57.84zM534.11 370.388c-1.835-1.631 4.331-17.157 7.644-24.716-6.2-1.274-20.69-3.822-29.047-3.822-10.447 0-22.678-11.721-22.678-12.995 0-1.274-1.528-8.408-2.293-10.956-.764-2.548.765-10.447-3.822-9.682-4.586.764-1.529 12.74-3.058 13.759-1.528 1.019-7.389-2.039-10.956-1.019-3.567 1.019-2.293 2.802-2.803 4.331-2.548 1.784.765 4.841-1.274 6.37-1.63 1.223-1.189 3.398-.764 4.332-.425 1.019-1.019 3.618 0 5.86 1.274 2.803 5.605.51 8.408 3.058 2.803 2.548 8.154 1.274 11.976 3.822 3.567 6.625 50.96 23.696 48.667 21.658z"/>
    </g>
    <path fill="#56FFC2" fill-rule="evenodd" d="M572.013 249.639c1.722-3.412-.884-7.524-1.793-8.211l-37.752 9.319a2.162 2.162 0 00-.562 1.131l-22.477 4.595c-.003.95.216 3.192 1.123 4.563l22.579-4.931v.001c.345.579.709 1.094 1.021 1.484l37.861-7.951zm-75.805 7.698c.272-1.747.339-5.514-1.571-6.615l-1.125-3.993 7.413-1.682.896 4.106c-.613 1.441-1.157 4.781 1.571 6.615 1.272 1.19 4.554.966 6.037.706-.004.949.216 3.191 1.122 4.562-2.463.538-4.679 2.034-5.479 2.714.253 5.562 6.463 8.647 9.537 9.493l-.918 1.592c-14.665-2.971-17.766-12.903-17.484-17.498h.001zm141.536 32.796c3.862 3.101 6.946 5.361 7.713 5.361 2.293 0 2.548-1.019 1.274-2.803-.693-.971-.254-1.338.249-1.758.421-.352.887-.741.77-1.554-.254-1.784-.254-2.293 1.02-4.077 1.274-1.784 9.172-17.072-2.039-29.047-11.211-11.976-24.461-12.74-32.869-7.644-5.182 3.14-6.977 4.926-7.89 5.834-.568.566-.794.791-1.283.791-1.019 0-2.463 1.019-3.057 1.529-2.888-.765-8.664-1.937-8.664-.51 2.058 1.8 5.53 4.691 8.355 6.691-1.646 1.709-2.543 3.823-3.294 5.593-.551 1.299-1.023 2.413-1.656 3.045-.512.512-2.943 2.122-4.911 3.423v.001c-1.13.747-2.106 1.394-2.478 1.673-1.019.764-.51 1.783.255 2.293.681.454.553.706-.025 1.838l-.23.455c-.612 1.223-.255 2.888 0 3.567-1.732 0-1.625 1.288-1.553 2.144.012.151.024.289.024.404 0 .327-.465.839-1.117 1.558h-.001c-.874.964-2.083 2.297-2.959 4.048-.825 1.651 1.99 3.822 5.236 6.072l.044.469c.294 3.123.674 7.148.247 8.689a402.265 402.265 0 00-10.97 3.312c-.085 0-.458.612-1.274 3.058-.378.907-.711 2.599-1.099 4.571-.92 4.673-2.149 10.916-5.016 11.991-1.431.536-3.018 1.763-4.972 3.273-3.613 2.792-8.479 6.552-15.922 8.702-6.26 1.809-8.191.883-9.856.084-1.385-.664-2.587-1.24-5.941-.084-5.912 2.039-7.559 19.535-7.644 28.028.216.103.43.208.65.316 1.605.787 3.552 1.742 9.139 3.031 8.354 1.927 26.222-5.385 35.31-9.717-1.274 9.428 8.409 46.374 10.702 51.98 1.069 2.612 1.806 7.273 2.468 11.737l79.251-25c-.182-3.911-.363-7.607-.517-10.756v-.007c-.25-5.127-.43-8.805-.43-9.608 0-2.095-4.894-18.058-9.136-31.891v-.001c-2.464-8.034-4.707-15.35-5.643-18.813-2.197-8.129-11.592-17.774-16.099-22.4-.72-.739-1.316-1.35-1.737-1.806-1.016-1.101-1.047-2.258-1.075-3.303-.025-.92-.048-1.752-.737-2.384.726-1.896 1.51-4.302 1.65-5.976.151-1.812 2.718-3.356 5.368-4.949a60.985 60.985 0 002.369-1.473z" class="Secondary" clip-rule="evenodd"/>
    <mask id="a" width="401" height="427" x="357" y="8" class="mask0" maskUnits="userSpaceOnUse">
      <path fill="#EE7E79" d="M564.089 435L357 368.288 457.5 8.5 758 373.712 564.089 435z" class="Vector 2.1"/>
    </mask>
    <g class="person" mask="url(#a)">
      <g class="hammer">
        <path fill="#4B5361" d="M496.208 257.336l7.184-1.568c-2.728-1.834-2.184-5.174-1.571-6.615l-.896-4.106-7.413 1.682 1.125 3.992c1.91 1.101 1.843 4.869 1.571 6.615z" class="Vector 11"/>
        <path fill="#DAE4FA" d="M505.071 263.75l-1.679-7.982-7.185 1.569c-.283 4.595 2.818 14.527 17.484 17.498l.917-1.592c-3.073-.846-9.284-3.931-9.537-9.493z" class="Vector 11.4"/>
        <path fill="#CDD6E6" d="M510.552 261.036c-.906-1.371-1.126-3.613-1.122-4.562-1.483.26-4.765.483-6.037-.706l1.68 7.982c.8-.68 3.016-2.176 5.479-2.714z" class="Vector 11.3"/>
        <path fill="#4B5361" d="M509.429 256.473l22.477-4.595c-.233 1.283.448 2.92 1.226 4.227l-22.58 4.931c-.907-1.371-1.127-3.613-1.123-4.563z" class="Vector 11.2"/>
        <path fill="#EE7E79" d="M572.013 249.639c1.721-3.412-.884-7.524-1.793-8.211l-37.752 9.319a2.154 2.154 0 00-.562 1.132c-.234 1.282.447 2.919 1.225 4.227.345.579.709 1.094 1.021 1.484l37.861-7.951z" class="color 1"/>
      </g>
      <g class="construction worker">
        <path fill="#EDC7C5" d="M634.083 259.609c-14.778-8.154-30.066 1.529-30.831 1.784-4.586 2.803-5.096 8.408-6.879 10.191-.806.806-6.37 4.332-7.389 5.096-1.02.765-.51 1.784.254 2.294.765.509.51.764-.254 2.293-.612 1.223-.255 2.888 0 3.567-2.039 0-1.529 1.784-1.529 2.548s-2.548 2.548-4.077 5.606c-1.529 3.057 9.428 7.898 12.485 11.72 2.446 3.058 22.083 1.274 31.595 0 .765-1.698 2.345-5.707 2.548-8.153.255-3.058 7.39-5.351 10.192-8.409 2.803-3.057 8.664-20.383-6.115-28.537z" class="Vector 5"/>
        <path fill="url(#paint1_linear)" d="M620.997 301.338c11.975-.255 6.115 3.567 9.173 6.88 3.057 3.312 15.288 14.778 17.836 24.206 2.548 9.427 14.778 47.392 14.778 50.705 0 3.312 3.058 55.546 1.529 56.566-1.529 1.019-75.676 2.293-77.46 0-1.783-2.294-2.548-17.327-4.841-22.932-2.293-5.606-11.975-42.552-10.701-51.98-9.088 4.332-26.957 11.644-35.311 9.717-6.355-1.466-8-2.5-9.789-3.347.085-8.493 1.733-25.989 7.644-28.028 7.389-2.548 4.332 3.313 15.798 0 11.466-3.312 16.816-10.447 20.893-11.975 4.077-1.529 4.841-13.505 6.115-16.562.816-2.447 1.19-3.058 1.274-3.058l.765-.243a404.767 404.767 0 0110.205-3.069c.851-3.07-1.5-16.005 0-12.005 1.2 3.2 17.316 3.216 25.649 5.824 2.493-.409 4.693-.662 6.443-.699z" class="Vector 7" opacity=".2"/>
        <path fill="#8A6564" d="M581.758 359.432c-4.892 2.446-8.718 4.294-10.757 5.568-1 4 4.897 44.373 8.719 50.998 3.822 6.625 4.331 18.6 4.586 19.874.255 1.274 6.115.51 8.154.51 10.702.51 70.325 9.682 73.128 3.312 2.802-6.37-.51-56.311-1.529-60.897-1.019-4.586-11.721-42.552-14.269-48.412-2.548-5.861-16.789-27.386-22.789-28.386-7.018-1.169-10-.999-16.5-.999 12 4.499 13.045 13.078 22.472 17.155 18.091 16.052 9.173 33.633 3.313 42.806-5.861 9.173-20.384 17.072-36.182 14.524-12.638-2.039-17.496-11.551-18.346-16.053z" class="Vector 9"/>
        <path fill="#FFCB56" d="M605.454 265.173c-1.835 0-9.088-5.946-12.485-8.918 0-1.427 5.775-.255 8.663.509.595-.509 2.038-1.528 3.058-1.528 1.274 0 .764-1.529 9.172-6.625 8.409-5.096 21.658-4.332 32.87 7.644 11.211 11.975 3.312 27.263 2.038 29.047-1.274 1.783-1.274 2.293-1.019 4.077.255 1.783-2.293 1.528-1.019 3.312 1.274 1.784 1.019 2.803-1.274 2.803-1.835 0-16.902-12.91-24.206-19.365-5.861-16.052-13.505-10.956-15.798-10.956z" class="Vector 8"/>
      </g>
    </g>
  </g>
  <defs>
    <linearGradient id="paint0_linear" x1="558" x2="557.5" y1="297" y2="435" class="paint0_linear" gradientUnits="userSpaceOnUse">
      <stop stop-color="#F4F8F6"/>
      <stop offset="1" stop-color="#4D4D4D"/>
    </linearGradient>
    <linearGradient id="paint1_linear" x1="595.317" x2="595.317" y1="295.452" y2="440.98" class="paint1_linear" gradientUnits="userSpaceOnUse">
      <stop stop-color="#DAE4FA"/>
      <stop offset="1" stop-color="#fff"/>
    </linearGradient>
  </defs>
</svg>
