<svg xmlns="http://www.w3.org/2000/svg" width="1152" height="700" fill="none" viewBox="0 0 1152 700">
  <g class="frame_five_three">
    <path fill="#fff" d="M0 0h1152v700H0z"/>
    <g class="Group 9">
      <path fill="#18357E" stroke="#000" d="M847 546.782c40-51.5 4-222 60.5-201 37 31.5-11 170-60.5 201z" class="Vector"/>
      <path fill="#fff" stroke="#000" d="M850 545.5c62.357-51.5 60.5-209 117.5-182 39 18.474-53 152.5-117.5 182z" class="Vector_2"/>
      <path fill="#18357E" stroke="#000" d="M863 539.5c48-45 79.5-154 122.5-123 24.97 17.999-41.5 86.5-122.5 123z" class="Vector_3"/>
    </g>
    <g class="Group 9.1">
      <path fill="#18357E" stroke="#000" d="M347.827 546.782c-40-51.5-4-222-60.5-201-37 31.5 11 170 60.5 201z" class="Vector_4"/>
      <path fill="#fff" stroke="#000" d="M344.827 545.5c-62.357-51.5-60.5-209-117.5-182-39 18.474 53 152.5 117.5 182z" class="Vector_5"/>
      <path fill="#18357E" stroke="#000" d="M331.827 539.5c-48-45-79.5-154-122.5-123-24.966 17.999 41.5 86.5 122.5 123z" class="Vector_6"/>
    </g>
    <path stroke="#000" stroke-linecap="round" stroke-width="3" d="M229 545h739" class="Vector_7"/>
    <g class="Group 8">
      <rect width="559" height="343" x="318.5" y="203.5" fill="#fff" stroke="#000" class="Rectangle" rx="30.5"/>
      <path fill="#000" fill-opacity=".01" stroke="#000" d="M344.754 204.25L598 418.345 851.246 204.25H344.754z" class="Polygon"/>
    </g>
    <path stroke="#fff" stroke-dasharray="10 10" stroke-width="3" d="M725.501 176c-5-28.5 3.838-56.255 73.5-39.5 78.999 19 75-18 111-55.5 28.8-30 71.5-23.5 93.499-11" class="Vector 2"/>
    <path stroke="#fff" stroke-dasharray="10 10" stroke-width="3" d="M756.5 186.5c12.5-22.517 21.497-39.272 91.158-22.517 79 19 75-18 111-55.5 28.8-30 71.502-23.5 93.502-11" class="Vector 2.1"/>
    <g class="Group">
      <path fill="#FCC" fill-rule="evenodd" d="M576.786 241.282c0 7.986-5.255 19.119-5.255 19.119l-2.179 5.809 22.439 6.681c.108-.432-.186-1.52-.566-2.928-.755-2.797-1.851-6.858-.821-9.562.499-2.399 1.693-4.765 2.387-6.142h.001c.203-.403.363-.722.451-.931.864.249 1.676.54 2.448.817 3.979 1.425 6.854 2.455 9.895-4.669 3.63-8.504 11.375-42.803-7.26-41.109-21.298 1.936-21.54 24.928-21.54 32.915zM456.701 372.351c-8.189 9.886-22.888 29.359-16.178 28.161 6.711-1.199 18.774-9.886 23.967-14.081-1.398 3.396-3.356 10.006 0 9.287 2.629-.563 4.259-7.293 5.611-12.871v-.001c.373-1.54.725-2.993 1.071-4.204 0 0-.212-3.843 0-6.291.644-7.449 6.591-17.975 6.591-17.975l-8.688-3.595-7.19 15.579-5.184 5.991zm5.783 141.701l-19.473 28.461 9.287 4.194 21.57-21.57-11.384-11.085zm85.38 55.722l3.895-15.877 2.696-17.676 18.574 5.393-15.279 28.16h-9.886zm189.079-344.203c1.369-3.164 2.484-5.74 3.252-6.605 2.396-2.696 2.396 6.292 0 10.186-.817 1.327.485.253 2.77-1.632 4.422-3.65 12.53-10.34 16.103-8.553 2.827 1.413 1.979 3.734 1.034 6.32-.456 1.251-.936 2.563-1.034 3.865-1.396 1.397-2.469 3.856-3.461 6.129-.852 1.954-1.644 3.77-2.53 4.656-2.397 2.396-7.19 4.194-12.882 6.291l-14.38 12.583-14.679 13.181-4.794-9.886 23.068-22.169c2.872-3.591 5.487-9.635 7.533-14.366z" class="Union" clip-rule="evenodd"/>
      <path fill="#000" fill-opacity=".06" d="M457.092 522.141l-12.882 18.874.899 2.696 18.574-14.979-6.591-6.591z" class="Vector 8"/>
      <path fill="#000" fill-opacity=".03" d="M551.759 571.572l11.983-29.359-10.486 5.093-5.692 24.266h4.195z" class="Vector 7"/>
      <path fill="#181E55" d="M580.416 244.67c-1.161 2.13-3.872 0-5.324-2.662-1.936-6.535 1.21-16.699 4.114-25.654 2.315-7.137 9.197-11.133 12.343-11.133 3.147 0 16.215-1.452 18.878-7.261 2.662-5.808 17.667-2.904 13.795 7.261-3.122 8.195-11.375 5.808-12.343 10.407-.968 4.598-11.859.726-17.426 3.146-5.566 2.42-2.662 16.699-4.114 16.457-1.452-.242-2.42-6.05-6.05-6.292-3.631-.242-2.421 13.069-3.873 15.731z" class="Vector 4"/>
      <path fill="#313EB1" fill-rule="evenodd" d="M546.933 459.086c4.545 6.293 9.363 12.41 14.412 18.118l-12.583 76.692h23.368s26.662-47.825 26.662-76.692c0-20.971-16.177-86.579-16.177-86.579l-8.089-33.253-68.304 10.785v16.776c.453 1.168.964 2.445 1.534 3.822l-3.031 64.483c-16.577 18.973-50.45 59.676-53.326 70.701l14.979 15.877s55.423-46.135 76.094-73.397c1.69-2.229 3.168-4.7 4.461-7.333z" class="Union_2" clip-rule="evenodd"/>
      <path fill="#000" fill-opacity=".14" d="M561.344 477.204c-27.561-31.156-48.232-74.496-55.122-92.271v-16.776l68.304-10.785 8.088 33.253s16.178 65.608 16.178 86.579c0 28.867-26.663 76.692-26.663 76.692h-23.367l12.582-76.692z" class="Vector 2.1_2"/>
      <path fill="#FD4141" fill-rule="evenodd" d="M527.192 314.832c-11.583 20.271-32.234 62.852-22.168 71 11.184-2.596 35.29-7.01 42.24-3.894 4.376 1.961 4.724 3.315 5.063 4.635.334 1.3.66 2.568 4.824 4.352 4.424 1.897 8.099.958 11.507.088 3.053-.779 5.891-1.503 8.864-.088 6.291 2.996 11.384 1.198 11.084-11.384-.299-12.582 2.097-20.971 5.992-26.663 1.147-1.676 2.632-5.666 4.417-10.462 4.274-11.483 10.267-27.584 17.452-27.584 3.539 0 7.078.651 11.082 1.387 7.52 1.384 16.68 3.068 30.56 1.309 17.016-2.157 54.024-34.651 70.401-50.629 1.668-16.47-2.613-23.8-4.563-27.138-.515-.882-.867-1.486-.904-1.906.413-.482.551-.702.374-.614-.288.144-.398.34-.374.614-5.2 6.073-54.026 53.662-69.128 50.015-10.288-2.485-22.028-11.14-30.946-17.715-5.213-3.843-9.463-6.976-11.894-7.75-6.591-2.097-17.675 0-17.675 0-1.953 0-3.651.349-5.285.685-4.381.899-8.294 1.703-15.386-4.579-10.486-9.287-75.494 29.359-94.068 48.532l-20.671 49.131c4.893 3.395 16.357 9.766 23.067 8.089l16.178-35.351c7.589-4.693 24.205-14.08 29.957-14.08zm-92.869 236.419s-3.054-4.753 9.625-13.762c3.043 6.289 6.726 7.652 10.478 9.04 2.649.981 5.332 1.974 7.85 4.722 1.092 1.193 2.51 2.569 4.024 4.038v.001c6.461 6.27 14.676 14.243 6.836 16.916l-38.813-20.955zm112.982 30.817c-7.739-.765-8.653-5.22-.501-18.468 4.316 2.666 6.657 2.463 9.251 2.239 2.934-.254 6.192-.536 12.997 3.269 1.886 1.054 4.477 2.103 7.168 3.193 7.915 3.205 16.702 6.764 11.016 11.852l-39.931-2.085z" class="Union_3" clip-rule="evenodd"/>
      <path fill="#000" fill-opacity=".08" d="M612.573 308.541c-8.189 7.816-10.185 24.266-10.185 24.266 6.89-15.279 11.883-17.875 13.78-18.275 17.256 3.595 33.254 4.494 42.241 2.996 11.504-.959 34.052-18.774 44.038-27.561 0 0-26.723 17.813-45.835 21.27-16.809 3.04-31.225-14.926-44.039-2.696z" class="Vector 6"/>
      <path fill="#000" fill-opacity=".05" d="M492.142 325.318c-2.273 6.296-1.498 17.076-1.498 17.076l6.591-13.481c8.867-6.711 24.465-12.783 30.857-14.68-27.801 45.536-27.562 67.406-23.068 71.6l39.245-5.393s-18.234-11.623-16.177-30.557c1.489-13.711 2.097-24.565 8.388-44.338 2.345-7.369-6.285-.734-13.481 2.097-15.705 6.18-25.126 1.802-30.857 17.676z" class="Vector 5"/>
    </g>
    <g class="Group 5.1">
      <path fill="#fff" stroke="#000" stroke-width=".619" d="M721.342 229.415l9.604-27.893a4 4 0 014.893-2.54l51.804 14.989a4 4 0 012.671 5.145l-9.955 28.911a4 4 0 01-4.97 2.517l-51.454-16.008a3.999 3.999 0 01-2.593-5.121z" class="Vector_8"/>
      <path fill="#000" fill-opacity=".1" d="M727.114 228.096l14.538 4.021-.928 3.711-14.537-4.33.927-3.402z" class="Rectangle_2"/>
      <path fill="#000" fill-opacity=".1" d="M728.97 222.838l14.537 4.021-.928 3.712-14.537-4.331.928-3.402z" class="Rectangle_3"/>
    </g>
  </g>
</svg>
