<svg xmlns="http://www.w3.org/2000/svg" width="1155" height="700" fill="none" viewBox="0 0 1155 700">
  <g clip-path="url(#clip0)">
    <path fill="#fff" d="M0 0h1155v700H0z"/>
    <g class="Group 2">
      <path fill="#3E3E3E" fill-rule="evenodd" d="M288.08 597.729a1.664 1.664 0 000 3.328h397.485a1.664 1.664 0 000-3.328H288.08zm451.574.555a1.664 1.664 0 000 3.328h76.834a1.664 1.664 0 000-3.328h-76.834z" class="Union" clip-rule="evenodd"/>
      <path fill="#94CDEC" fill-opacity=".14" d="M769.861 187.447c-5.313-15.127 25.625-20.079 39.334-11.765 7.226 4.381-12.26 8.783-5.794 14.223 13.071 10.997 64.636-5.546 61.459 11.239-1.609 8.499-18.923 6.499-19.842 15.101-1.6 14.967 38.213-6.192 41.792 8.429 2.817 11.51 4.811 12.261-6.497 15.804-29.15 9.131-41.7 2.282-63.918 2.282-33.671 0-45.316.631-77.088 0-10.901-.216-28.786 4.111-31.959-6.321-2.827-9.295 9.045-15.502 18.965-22.477 20.166-14.179 75.216 8.596 59.001-12.818-5.856-7.734-12.238-4.545-15.453-13.697z" class="Vector"/>
      <path fill="#94CDEC" fill-opacity=".14" d="M329.937 114.773c-5.314-15.127 25.624-20.078 39.334-11.765 7.226 4.382-12.261 8.784-5.795 14.224 13.072 10.997 64.637-5.546 61.46 11.238-1.609 8.5-18.923 6.5-19.843 15.102-1.6 14.966 38.214-6.192 41.793 8.428 2.817 11.511 4.811 12.262-6.497 15.804-29.15 9.131-41.7 2.283-63.918 2.283-33.671 0-45.316.631-77.088 0-10.902-.216-28.786 4.11-31.959-6.322-2.827-9.295 9.045-15.502 18.965-22.476 20.166-14.179 75.216 8.595 59.001-12.819-5.856-7.733-12.238-4.545-15.453-13.697z" class="Vector_2"/>
      <g class="Group 9">
        <g class="Group 8.1">
          <path fill="#5955F8" d="M747.168 523.756c23.317 12.899-9.715 56.225-29.146 76.276h-35.347c-25.116-11.472-71.439-36.34-55.812-44.029 19.534-9.612-10.852-20.464-19.534-44.96-8.682-24.495 25.735-23.874 50.54-23.874 24.806 0 5.272-32.247 31.317-39.689 26.045-7.441 17.054 21.395 17.054 39.689s11.782 20.464 40.928 36.587z" class="Vector_3"/>
          <path fill="#fff" fill-opacity=".13" d="M681.037 490.539c6.578 10.962 11.105 71.912 20.2 108.293h-10.232c1.55-4.961-30.076-21.085-40.308-27.596-10.232-6.511 1.24-17.674 5.271-19.534 4.031-1.861-33.797-19.224-27.906-41.549 4.37-16.561 27.243 19.542 33.487 3.1 3.963-10.433 14.837-30.466 19.488-22.714z" class="Vector 3"/>
          <path stroke="#FBFBFB" stroke-linecap="round" stroke-width="1.395" d="M703.718 599.452c-1.906-5.269-4.26-12.444-6.665-20.774m-3.257-111.312c-7.132 10.233-.618 15.46-4.649 34.064-4.532 20.915-1.165 42.699 4.649 65.31m0 0c-13.23-17.829-30.077-34.262-57.362-51.005m57.362 51.005a417.452 417.452 0 003.257 11.938m0 0c7.492-10.646 25.517-33.239 37.671-38.449" class="Vector 2"/>
        </g>
        <g class="Group 8">
          <path fill="#FDB03E" d="M665.486 509.064c-27.911 15.44 11.629 67.303 34.888 91.305h42.312c30.064-13.733 85.514-43.5 66.808-52.705-23.383-11.506 12.991-24.496 23.383-53.817 10.392-29.322-30.806-28.579-60.498-28.579-29.693 0-6.31-38.6-37.487-47.508-31.177-8.908-20.414 25.61-20.414 47.508 0 21.898-14.104 24.496-48.992 43.796z" class="Vector_4"/>
          <path fill="#fff" fill-opacity=".13" d="M744.646 469.302c-7.873 13.122-13.293 86.081-24.18 129.629h12.248c-1.856-5.938 36.002-25.238 48.25-33.033 12.248-7.794-19.398-8.959-19.398-18.93 0-15.533 53.544-27.464 46.493-54.187-5.232-19.824-32.611 23.392-40.085 3.711-4.744-12.489-17.761-36.469-23.328-27.19z" class="Vector 3_2"/>
          <path stroke="#FBFBFB" stroke-linecap="round" stroke-width="1.67" d="M717.497 599.673c2.282-6.306 5.099-14.895 7.978-24.867m3.899-133.242c8.536 12.248.739 18.505 5.564 40.775 5.425 25.035 1.394 51.111-5.564 78.178m0 0c15.836-21.342 36.002-41.013 68.664-61.055m-68.664 61.055a503.33 503.33 0 01-3.899 14.289m0 0c-8.969-12.743-30.544-39.788-45.094-46.023" class="Vector 2_2"/>
        </g>
      </g>
      <g class="Group">
        <path fill="#31323B" fill-rule="evenodd" d="M333.849 427.695s-21.635-8.876-24.686-1.942c-3.051 6.935-4.438 66.339-4.438 66.339 2.681 3.791 9.541 1.841 13.314-7.257 2.301-5.549 2.554-7.003 2.791-8.359.248-1.423.477-2.737 3.034-8.561 1.279-2.913 2.893-6.11 4.325-8.946 1.671-3.309 3.093-6.125 3.441-7.419l2.219-23.855zm273.496 149.23s-2.774 23.3 1.109 24.732c3.883 1.432 71.009-6.425 59.914-20.803-2.755-.394-6.303-.713-10.138-1.057-12.381-1.112-27.767-2.494-29.25-7.542l-21.635 4.67z" class="Union_2" clip-rule="evenodd"/>
        <path stroke="#C4C8CA" stroke-width="1.664" d="M305.279 492.047c.463-21.728 1.997-65.794 4.438-68.235" class="Vector 15"/>
        <path fill="#13567B" fill-rule="evenodd" d="M524.098 404.139c-15.557 30.232-30.223 56.694-36.582 62.712-12.426 11.761-109.287-5.086-156.164-14.979l2.219-24.409c19.036 4.524 42.096 2.486 64.076.544 27.662-2.445 53.614-4.738 67.679 6.39 0-37.353 4.882-115.889 24.409-131.2 13.315 6.842 46.933 20.138 74.893 18.584l-.262.554 46.029 129.537 18.862 120.106c-4.993 1.941-16.476 5.436-22.467 4.992l-12.985-47.431c-7.674-10.356-22.523-38.001-20.526-65.739-13.253-9.506-41.882-36.325-49.181-59.661z" class="Union_3" clip-rule="evenodd"/>
        <path fill="#000" fill-opacity=".11" d="M333.572 427.463v9.108c62.133-4.393 118.719 13.037 135.362 9.709 16.642-3.329 16.642-80.163 41.606-134.271-8.73-3.114-16.057-6.373-20.803-8.812-19.528 15.311-24.409 93.847-24.409 131.2-25.242-19.971-88.762 3.284-131.756-6.934z" class="Vector 4.1"/>
        <path fill="#000" fill-opacity=".22" d="M610.397 451.872l-46.045-129.581-40.498 81.04c6.88 23.522 36.02 50.853 49.427 60.469-1.997 27.738 12.852 55.383 20.526 65.739l12.984 47.431c5.991.444 17.475-3.051 22.468-4.992l-18.862-120.106z" class="Vector 5.1"/>
        <path fill="#000" fill-opacity=".13" d="M606.791 576.97c5.991.444 6.102-.045 11.095-1.986 0 0-10.21-30.437-17.475-50.761-8.811-24.65-19.416-66.294-19.416-66.294s-15.94-17.91-25.242-29.402c-10.881-13.444-25.519-38.001-25.519-38.001l-6.38 12.805c6.88 23.521 36.02 50.852 49.427 60.468-1.997 27.738 12.852 55.384 20.526 65.739l12.984 47.432z" class="Vector 5.2"/>
        <path fill="#3E4EDD" fill-rule="evenodd" d="M487.794 309.299l-38.001-64.907c17.475-4.438 31.355-12.661 46.045-22.828-11.982-12.493-14.238-28.82-13.869-35.422-19.416 8.876-64.352 35.422-69.067 51.038.666 22.412 46.322 73.321 69.067 95.973l5.825 16.876 8.877 3.328 9.43 2.774 10.263-13.869-6.657-12.482-14.146-7.767-7.767-12.714zm156.997-.832c-21.968-12.649-33.563-42.624-36.614-56.031 14.146-4.161 25.519-13.314 28.57-19.971 3.078 4.103 5.628 12.333 8.321 21.023 2.55 8.228 5.227 16.867 8.599 22.803 16.921-5.593 43.919-10.078 57.418-9.709 13.499.37 33.286-6.379 33.286-6.379.789-.752 1.623-1.557 2.473-2.377l.006-.006c5.522-5.329 11.711-11.301 10.557-7.648l-1.109 7.812c9.431-3.374 26.813-4.161 25.519 0-1.644 14.792-14.948 14.314-25.612 13.931-1.933-.069-3.78-.136-5.455-.107-21.746 11.539-82.659 30.741-105.959 36.659z" class="Union_4" clip-rule="evenodd"/>
        <path fill="#000" fill-opacity=".12" d="M570.732 182.491c-1.554-.444-3.514-2.958-4.993-4.715l10.818-15.256 13.036-6.657s-8.472 5.752-11.65 10.263c-4.3 6.105-7.211 16.365-7.211 16.365z" class="Vector 7"/>
        <path fill="#000" fill-opacity=".1" d="M617.609 249.34c-1.997 1.997-6.01 2.219-9.431 3.329 7.766 33.84 31.898 55.476 36.891 55.476-31.066-41.607-25.463-60.802-27.46-58.805z" class="Vector 13"/>
        <path fill="#000" fill-opacity=".06" d="M650.617 277.91c-4.594-6.215-13.13-29.032-16.088-40.775-.17-.665 1.131-1.849 2.496-3.606 3.329 1.11 8.599 25.519 16.643 42.717 38.556-11.928 54.644-6.935 76.002-11.928-5.548 3.329-11.095 5.548-23.855 7.767-4.372.76-24.132-2.182-36.336 4.161-5.271 2.034-14.147 8.044-18.862 1.664z" class="Vector 12"/>
        <path fill="#000" fill-opacity=".09" d="M445.078 241.019c10.93-5.768 23.578-9.709 47.155-23.578l3.328 3.884c-12.482 10.54-33.84 20.248-45.49 23.3l34.95 60.191-8.321-9.986c-9.32-9.542-41.607-48.541-31.622-53.811z" class="Vector 11"/>
        <path fill="#071750" d="M589.871 155.908l-13.314 6.612c-5.547-60.469 51.592-44.613 48.819-19.649-3.329 3.606-15.85-7.522-21.913-3.884-4.161 2.497-3.976 8.044-4.993 11.928h-2.774c-3.883-8.044-9.153 0-5.825 4.993z" class="Vector 7_2"/>
        <path stroke="#fff" stroke-opacity=".07" stroke-width="1.664" d="M577.389 143.658c3.883 1.387 9.375-10.318 15.81-10.54 6.436-.222 18.03-4.716 20.249-9.154" class="Vector 18"/>
        <path stroke="#fff" stroke-opacity=".07" stroke-width="1.664" d="M579.331 135.614c3.883 1.387 8.816-10.263 15.255-10.263 4.993 0 7.767-.555 13.315-3.883" class="Vector 18.2"/>
        <path stroke="#fff" stroke-opacity=".07" stroke-width="1.664" d="M576.834 152.812c3.883 1.387 11.04-12.26 17.475-12.482 6.435-.222 21.636-8.599 23.855-13.037" class="Vector 18.1"/>
        <path fill="#E8F4F4" d="M508.599 216.886l-12.482 4.761c-11.539-9.098-14.424-28.2-14.424-36.614 27.294-18.64 67.033-12.945 83.491-7.767 11.539 13.758 23.3 13.499 27.738 11.65 24.853 12.871 39.758 34.765 44.103 44.103-7.1 11.761-22.005 18.215-28.57 19.972l-6.102-10.541-37.724 79.608c-31.51 1.776-62.595-11.835-74.892-18.862l18.862-86.31z" class="Vector 2_3"/>
        <path fill="#0A0A0A" fill-opacity=".05" d="M603.185 241.296l-38.556 79.885c-2.773 1.942-15.239.925-22.19 0 18.862-32.731 36.059-31.066 60.746-79.885z" class="Vector 19"/>
        <path fill="#737373" fill-rule="evenodd" d="M506.102 327.561L658.66 152.812l27.461-29.957 8.599 6.38-182.516 205.538s-1.207-2.913-2.496-4.438c-1.095-1.295-3.606-2.774-3.606-2.774zm-42.717 47.709l23.577-28.292c.805 2.574 2.542 3.188 4.401 3.846 1.346.476 2.756.975 3.921 2.256l-90.426 101.382-4.993-6.518 63.52-72.674z" class="Union_5" clip-rule="evenodd"/>
        <path fill="#CEE1F7" d="M739.656 191.09c-23.031-18.185-51.87-54.366-51.87-54.366s-17.711 20.833-29.68 34.395c-12.417 14.069-32.453 35.227-32.453 35.227s27.42 29.72 47.709 47.987c21.039 18.941 57.14 47.154 57.14 47.154s24.385-24.359 36.892-40.775c11.192-14.689 21.358-38.833 21.358-38.833s-31.334-16.764-49.096-30.789z" class="Vector 10"/>
        <path fill="#E8E8E8" d="M608.702 600.226a.832.832 0 10.062 1.663l-.062-1.663zm60.985-15.201a.831.831 0 00-1.525-.667l1.525.667zm-60.923 16.864c8.745-.324 22.39-1.088 34.591-3.447 6.099-1.179 11.876-2.764 16.514-4.912 4.616-2.138 8.239-4.897 9.818-8.505l-1.525-.667c-1.334 3.05-4.506 5.584-8.992 7.662-4.464 2.067-10.094 3.621-16.131 4.788-12.069 2.333-25.607 3.094-34.337 3.418l.062 1.663z" class="Vector 14"/>
        <path fill="#000" fill-opacity=".12" d="M590.425 171.674c-1.109 2.219-4.438 8.876-12.759 15.533 7.212 3.883 14.606 2.322 14.701 1.942.278-1.11 1.664-8.599 3.883-14.147-1.664.555-5.27-1.941-5.825-3.328z" class="Vector 17"/>
        <path fill="#000" fill-opacity=".06" d="M509.431 214.945l-19.417 88.207 12.76 6.657c-2.774-6.103 3.143-66.202 6.657-94.864z" class="Vector 20"/>
        <path fill="#000" fill-opacity=".04" d="M483.912 199.966c-1.775-4.438-2.034-12.02-1.942-15.256 24.41-17.308 64.352-13.036 83.769-7.212l1.664 3.052-5.547-.832-20.526-1.11c-41.718 0-54.274 14.886-57.418 21.358z" class="Vector 21"/>
        <path fill="#000" fill-opacity=".12" d="M691.392 127.293L510.541 331.444l1.941 2.774 182.239-204.429-3.329-2.496z" class="Vector 22"/>
        <path fill="#000" fill-opacity=".16" d="M402.362 451.827l90.149-100.689 2.773 1.664-90.703 101.799-2.219-2.774z" class="Vector 23"/>
      </g>
      <circle cx="697.216" cy="513.683" r="4.161" fill="#fff" fill-opacity=".2" class="Ellipse"/>
      <circle cx="714.968" cy="525.887" r="2.496" fill="#fff" fill-opacity=".2" class="Ellipse_2"/>
      <circle cx="722.735" cy="496.485" r="2.496" fill="#fff" fill-opacity=".2" class="Ellipse_3"/>
      <circle cx="742.706" cy="454.323" r="2.496" fill="#fff" fill-opacity=".2" class="Ellipse_4"/>
      <circle cx="774.882" cy="483.726" r="2.496" fill="#fff" fill-opacity=".2" class="Ellipse_5"/>
      <circle cx="798.182" cy="478.733" r="2.496" fill="#fff" fill-opacity=".2" class="Ellipse_6"/>
      <circle cx="820.372" cy="493.711" r="2.496" fill="#fff" fill-opacity=".2" class="Ellipse_7"/>
      <circle cx="686.12" cy="550.851" r="2.496" fill="#fff" fill-opacity=".2" class="Ellipse_8"/>
      <circle cx="709.975" cy="568.604" r="2.496" fill="#fff" fill-opacity=".2" class="Ellipse_9"/>
      <circle cx="795.408" cy="546.413" r="2.496" fill="#fff" fill-opacity=".2" class="Ellipse_10"/>
      <circle cx="694.442" cy="579.699" r="2.496" fill="#fff" fill-opacity=".2" class="Ellipse_11"/>
    </g>
  </g>
  <defs>
    <clipPath id="clip0" class="clip0">
      <path fill="#fff" d="M0 0h1155v700H0z"/>
    </clipPath>
  </defs>
</svg>
