<svg xmlns="http://www.w3.org/2000/svg" width="1152" height="700" fill="none" viewBox="0 0 1152 700">
  <g class="growth">
    <path fill="#fff" d="M0 0h1152v700H0z"/>
    <path fill="#C4C4C4" fill-opacity=".25" d="M691.665 388l129.196 5.396H833l-82.806 106.671h-10.405l4.686-40.676-202.815 97.955-90.177 76.787L347 647v-17.018l14.005-60.609 90.478-19.083 90.177-76.787 182.088-70.146L691.665 388z" class="Shadow"/>
    <path fill="#43A0F5" fill-rule="evenodd" d="M820.861 142.396L691.665 137l32.083 15.357-182.088 70.146-90.177 76.787-90.478 19.083L347 378.982V396l104.483-12.867 90.177-76.787 202.815-97.955-4.686 40.676h10.405L833 142.396h-12.139zM902.78 271.71c-5.073-5.505-23.386-12.615-31.909-15.481l-10.661-8.428-7.937 8.865 7.843 8.315-4.474 34.518c5.643 9.581 23.323 6.916 31.457 4.387l3.12-23.813c.528.221 1.086.46 1.658.705 2.995 1.282 6.337 2.712 7.295 2.432 1.141-.333 2.881-7.805 3.608-11.5zM406.962 492.815c-1.63-1.335-15.408-6.606-25.864-3.853 0 0-3.61 1.167-4.402 2.752-4.953 9.905-3.101 57.782-3.101 57.782v47.514h15.373s-.76-26.644 0-44.763c.55-13.114 3.136-35.219 3.136-35.219 1.651 8.804 5.789 24.577 7.236 28.627 1.569 4.391 13.961 28.219 21.987 43.545l13.15-7.787c-2.702-5.96-6.476-13.406-10.013-20.381-4.786-9.441-9.135-18.021-9.798-20.891-.631-2.736-1.608-10.057-2.688-18.149v-.001c-1.745-13.067-3.758-28.146-5.016-29.176z" class="Primary" clip-rule="evenodd"/>
    <g class="Arrow">
      <path fill="#E2E2E2" d="M691.665 137l129.196 5.396H833l-82.806 106.671h-10.405l4.686-40.676-202.815 97.955-90.177 76.787L347 396v-17.018l14.005-60.609 90.478-19.083 90.177-76.787 182.088-70.146L691.665 137z" class="Arrow_2" opacity=".2"/>
      <path fill="#FFCB56" d="M739.789 249.068l81.072-106.672H833l-82.806 106.672h-10.405l4.686-40.676-202.815 97.955-90.177 76.787L347 396.001v-17.018l104.483-14.527 90.177-77.202 204.632-94.635-1.817 15.773-4.686 40.676z" class="Vector"/>
    </g>
    <path fill="#4B5361" d="M419.839 480.786c-13.286 13.038-37.151 3.704-47.422-2.592-4.721-2.593 1.845-6.111-2.584-12.778-4.428-6.667 2.584-14.26 5.905-17.964 2.657-2.963 2.337-12.222 1.845-16.482-1.23-2.407 1.892-13.255 8.978-13.996 8.857-.926 15.933 4.366 15.933 8.441 0 4.074 2.398 11.111 9.226 20 6.827 8.889 5.351 8.889 4.244 16.667-1.107 7.778 10.148 11.297 3.875 18.704z" class="Hair"/>
    <path fill="#EE7E79" d="M406.962 492.815c-1.63-1.335-15.408-6.606-25.864-3.853 0 0-3.61 1.167-4.402 2.752-4.953 9.905-3.101 57.782-3.101 57.782v47.514h15.373s-.76-26.644 0-44.763c.55-13.114 3.136-35.219 3.136-35.219 1.651 8.804 5.789 24.577 7.236 28.627 1.569 4.391 13.961 28.219 21.987 43.545l13.15-7.787c-6.359-14.028-18.659-36.281-19.811-41.272-1.65-7.154-5.666-45.657-7.704-47.326z" class="Pant" opacity=".2"/>
    <path fill="#D74D4D" fill-rule="evenodd" d="M855.922 308.795c-1.68 13.556-3.89 31.383-2.328 38.201 1.042 4.549 2.439 13.199 3.821 21.748.962 5.957 1.917 11.865 2.737 16.301l13.355-1.453c-.585-3.994-1.417-8.953-2.324-14.355-1.171-6.979-2.466-14.698-3.516-22.035.911-8.5 2.695-20.646 4.07-25.891 1.515 5.012 8.422 24.183 10.494 26 2.071 1.818 19.568 15.602 30.923 22.705l6.699-12.143c-11.155-6.176-22.502-13.521-24.883-16.701-1.989-2.657-7.05-29.592-8.338-37.552-.906-.174-1.942-.381-3.075-.608-8.056-1.613-21.01-4.206-26.627-2.567-.276 2.449-.629 5.29-1.008 8.35zM385.386 450.946c1.046 1.605 4.282 3.853 8.859 0h4.615c4.183-5.188 12.551-16.157 12.551-18.528 0-2.372-6.03-19.763-9.044-28.162 1.968-1.112 6.054-3.224 6.644-2.779.738.555 11.709 27.474 11.709 30.253s-12.447 27.183-13.924 28.665c-1.181 1.186 1.354 22.604 2.769 33.165-9.352 3.767-29.347 9.449-34.515 2.038l2.399-35.203c-5.722-8.338-17.017-26.013-16.427-30.015.591-4.002 7.014-20.936 10.152-28.903 1.784.494 5.352 1.741 5.352 2.779 0 .426-.895 3.168-2.058 6.732-2.381 7.292-5.884 18.023-5.14 19.392.802 1.477 7.585 12.935 12.871 19.51.286.356 1.01.47 1.705.579.64.1 1.256.197 1.482.477z" class="Secondary" clip-rule="evenodd"/>
    <path fill="#FFCB56" fill-rule="evenodd" d="M810 348.087l7.901-.087 46.379 238.764-8.901-2.913-10.714-56.498-53.212 5.973 10.827 63.438-7.901-1.913L751 346.087l7.901-.087 7.964 42.72 51.669 1.961L810 348.087zm9.604 50.436l-51.65-1.963 10.67 60.593 52.45-3.007-11.47-55.623zm-29.24 126.963l-10.651-60.493 52.431-3.004 11.451 57.522-53.231 5.975z" class="ladder" clip-rule="evenodd"/>
    <g class="Girl">
      <g class="Vector 12">
        <path fill="#EDC7C5" d="M388.3 605.547c.595-4.591-.992-7.712-1.859-8.7-1.488 1.925-6.321 1.419-8.552.926-5.578 2.591-16.473 8.181-15.432 9.81 1.041 1.628 17.663-.679 25.843-2.036zM431.679 583.931c-.298 2.073-5.082 4.442-7.437 5.368-2.789 5.552-9.025 11.374-7.623 16.287.26.912 21.381-13.141 21.381-16.287 0-3.147-5.949-7.959-6.321-5.368zM386.441 448.314c-7.883-2.813-7.003-11.907-5.578-16.103 2.045.926 5.578-1.851 7.437-1.851s2.975 3.517 4.648 5.553c1.673 2.036 5.949 2.406 4.648 4.072-1.041 1.333-3.533 4.751-4.648 6.293.62 1.666 1.785 5.479 1.487 7.403-.297 1.925-5.453.803-7.994 0v-5.367zM398.154 397.415c0 2.776 3.47 4.997 5.205 5.182 1.426-.432 4.276-1.518 4.276-2.406 0-1.111-3.947-6.293-3.424-3.68.55 2.752.747 2.757-.852 1.829-1.971-1.145-5.205-2.517-5.205-.925zM377.331 402.597c-1.339 0-4.152-1.604-5.392-2.406 3.106-6.431 6.833-6.307 4.206-2.776-1.1 1.479 1.043 1.646 2.201.925 1.488-.925 4.403-1.296 4.403 0 0 1.295-3.745 4.257-5.418 4.257z"/>
      </g>
      <path fill="#EDF3FF" fill-opacity=".2" d="M394.245 450.946c-4.577 3.853-7.813 1.605-8.859 0-.47-.583-2.637-.372-3.187-1.056-5.286-6.576-12.069-18.033-12.871-19.51-1.107-2.038 7.198-24.827 7.198-26.124 0-1.038-3.568-2.285-5.352-2.779-3.138 7.967-9.561 24.901-10.152 28.903-.59 4.002 10.705 21.677 16.427 30.015l-2.399 35.203c5.168 7.411 25.163 1.729 34.515-2.039-1.415-10.56-3.95-31.978-2.769-33.164 1.477-1.482 13.924-25.886 13.924-28.665s-10.971-29.698-11.709-30.253c-.59-.445-4.676 1.667-6.644 2.779 3.014 8.399 9.044 25.79 9.044 28.162 0 2.371-8.368 13.34-12.551 18.528h-4.615z" class="Shirt"/>
    </g>
    <g class="Boy">
      <path fill="#4B5361" d="M889.394 254.165c-6.745 2.456-14.468-5.34-17.487-9.546 3.722-5.663-1.994-11.167.292-10.918 2.285.248 12.626-7.652 18.129-.713 5.502 6.939 7.496 18.106-.934 21.177z" class="Vector 13"/>
      <path fill="#4B5361" fill-rule="evenodd" d="M916.076 367.639c.789.052 2.56-.836 3.333-4.81 2.405-.038 7.158.18 6.93 1.348l-1.024 5.26c-.711.064-1.989.523-1.408 1.849.726 1.657-3.551 9.772-5.915 10.373-1.992.506.015-6.6.8-9.378.147-.52.251-.889.278-1.027.136-.701-1.635-2.643-2.994-3.615zm-53.011 19.839c.315.725 1.916 1.892 5.803.758 1.135 2.12 3.12 6.444 1.977 6.777l-5.144 1.501c-.382-.603-1.376-1.529-2.288-.404-1.141 1.405-10.313 1.323-11.931-.503-1.363-1.538 5.873-3.011 8.702-3.587a22.72 22.72 0 001.04-.224c.685-.2 1.6-2.665 1.841-4.318z" class="Union" clip-rule="evenodd"/>
      <path fill="#EE7E79" d="M902.78 271.711c-5.073-5.506-23.387-12.615-31.909-15.482l-10.662-8.428-7.936 8.865 7.843 8.315-4.474 34.519c5.643 9.58 23.322 6.916 31.457 4.386l3.12-23.812c3.291 1.378 7.812 3.47 8.953 3.137 1.141-.333 2.881-7.806 3.608-11.5z" class="Shirt_2" opacity=".2"/>
      <g class="Vector 14">
        <path fill="#8A6564" d="M874.58 238.604c-1.375.402-2.632 3.764-3.089 5.395-.784 2.244 1.875 6.426 2.583 8.854.567 1.942-.311 3.551-.82 4.113-1.19 8.281 5.776 6.475 9.407 4.537-.278-.952-.852-3.346-.927-5.307-.093-2.452.391-3.988 2.253-4.532 1.863-.543 3.715-3.253 3.913-4.705.158-1.162-1.032-1.404-1.646-1.379-.546.262-1.663.268-1.772-1.808-.135-2.595-2.39-2.866-4.396-2.281s-3.787-3.388-5.506-2.887zM860.368 250.809c-.007 2.109-3.785 5.288-5.571 5.809-2.728-2.709-7.701-7.858-10.264-11.651-2.563-3.792-7.699-21.193-8.876-22.016-2.344-1.641-5.805-8.174-5.273-8.484.531-.31 2.412-1.323 3.443.08 1.031 1.404 3.495 2.389 3.12 1.104-.375-1.285.211-3.006 1.058-1.703.677 1.042 1.898 5.439 1.82 6.237.911 3.124 5.806 13.321 9.359 20.519 1.302 2.636 7.343 7.021 11.184 10.105zM897.637 280.33c.007-2.11 2.574-5.921 3.975-7.157 1.924 1.076 6.034 5.205 9.699 9.463 5.787 10.156 9.407 22.304 10.916 23.359 2.344 1.64 5.916 8.556 5.385 8.866-.531.31-2.412 1.324-3.443-.079-1.032-1.404-3.496-2.389-3.121-1.104.376 1.285-.211 3.005-1.057 1.703-.677-1.042-2.01-5.823-1.932-6.62-.852-1.146-10.85-21.053-12.62-22.473-4.427-3.552-4.99-4.357-7.802-5.958z"/>
      </g>
    </g>
  </g>
</svg>
