<svg xmlns="http://www.w3.org/2000/svg" width="800" height="600" fill="none" viewBox="0 0 800 600">
  <g class="guy_illustration">
    <path fill="#fff" d="M0 0h800v600H0z"/>
    <path stroke="#FFE170" stroke-width=".922" d="M567.482 222.679l-9.206-8.987c-4.921-4.804-12.817-4.73-17.68.133v0c-4.875 4.875-12.806 4.902-17.681.026v0c-4.875-4.875-12.78-4.875-17.655 0v0c-4.875 4.876-12.78 4.876-17.655 0v0c-4.875-4.875-12.779-4.875-17.655 0v0c-4.875 4.876-12.779 4.876-17.654 0v0c-4.876-4.875-12.78-4.875-17.655 0v0c-4.875 4.876-12.78 4.876-17.655 0v0c-4.875-4.875-12.779-4.875-17.655 0v0c-4.875 4.876-12.779 4.876-17.654 0v0c-4.876-4.875-12.78-4.875-17.655 0v0c-4.876 4.876-12.78 4.876-17.655 0l-12.914-12.913" class="Vector 7.1"/>
    <rect width="545.147" height="83.623" x="225.39" y="247.499" stroke="#CACACA" stroke-opacity=".4" stroke-width=".922" class="Rectangle 3.5" rx="21.656"/>
    <rect width="352.941" height="93.256" x="658.09" y="113.33" stroke="#CACACA" stroke-opacity=".4" stroke-width=".922" class="Rectangle 3.7" rx="21.656" transform="rotate(90 658.09 113.33)"/>
    <rect width="390.667" height="65.692" x="80.035" y="481.264" stroke="#CACACA" stroke-opacity=".4" stroke-width=".922" class="Rectangle 3.6" rx="21.656"/>
    <g class="Group">
      <path fill="#F2F2F2" d="M238.569 224.991c-5.51 0-9.993-5.383-9.993-12V102.347c0-6.617 4.483-12 9.993-12h41.617c5.51 0 9.993 5.383 9.993 12v110.644c0 6.617-4.483 12-9.993 12h-41.617z" class="Vector"/>
      <path fill="#E6E6E6" d="M280.187 221.826H238.57c-3.987 0-7.218-3.88-7.218-8.668V102.515c0-4.787 3.231-8.668 7.218-8.668h41.617c3.986 0 7.218 3.88 7.218 8.668v110.643c0 4.788-3.232 8.668-7.218 8.668z" class="Vector_2"/>
      <path fill="#fff" d="M281.021 221.826h-43.286c-2.786 0-5.044-2.711-5.044-6.056V99.903c0-3.345 2.258-6.056 5.044-6.056h43.286c2.785 0 5.043 2.711 5.043 6.056V215.77c0 3.345-2.258 6.056-5.043 6.056z" class="Vector_3"/>
      <path fill="#E6E6E6" d="M265.328 217.816h-11.9c-.399 0-.722-.388-.722-.867 0-.478.323-.866.722-.866h11.9c.398 0 .721.388.721.866 0 .479-.323.867-.721.867z" class="Vector_4"/>
      <g class="Group_2">
        <path fill="#F2F2F2" d="M273.166 103.35h-27.575c-1.881 0-3.405-1.83-3.405-4.089v-5.414h34.385v5.414c0 2.259-1.525 4.089-3.405 4.089z" class="Vector_5"/>
        <path fill="#185BFF" d="M267.432 99.197c.462 0 .837-.45.837-1.005 0-.555-.375-1.005-.837-1.005-.463 0-.837.45-.837 1.005 0 .555.374 1.005.837 1.005z" class="Vector_6"/>
        <path fill="#185BFF" d="M272.319 99.197c.463 0 .837-.45.837-1.005 0-.555-.374-1.005-.837-1.005-.462 0-.837.45-.837 1.005 0 .555.375 1.005.837 1.005z" class="Vector_7"/>
      </g>
    </g>
    <g class="Group 13">
      <path fill="#F2F2F2" d="M153.659 224.991c-5.51 0-9.993-4.483-9.993-9.993v-92.136c0-5.51 4.483-9.993 9.993-9.993h41.617c5.51 0 9.993 4.483 9.993 9.993v92.136c0 5.51-4.483 9.993-9.993 9.993h-41.617z" class="Vector_8"/>
      <path fill="#fff" d="M196.11 222.355h-43.285a5.043 5.043 0 01-5.044-5.043v-96.485a5.044 5.044 0 015.044-5.044h43.285a5.044 5.044 0 015.044 5.044v96.485a5.043 5.043 0 01-5.044 5.043z" class="Vector_9"/>
      <g class="Group_3">
        <path fill="#F2F2F2" d="M188.255 123.697h-27.574a3.405 3.405 0 01-3.406-3.405v-4.509h34.386v4.509a3.405 3.405 0 01-3.406 3.405z" class="Vector_10"/>
        <path fill="#185BFF" d="M182.521 120.239a.837.837 0 100-1.673.837.837 0 000 1.673z" class="Vector_11"/>
        <path fill="#185BFF" d="M187.41 120.239a.837.837 0 100-1.675.837.837 0 000 1.675z" class="Vector_12"/>
      </g>
      <path fill="#E6E6E6" d="M180.417 219.016h-11.899a.722.722 0 110-1.444h11.899a.722.722 0 110 1.444z" class="Vector_13"/>
    </g>
    <path fill="#4E2FFB" fill-rule="evenodd" d="M693.001 165.814v-18.238a2.766 2.766 0 002.235-2.714v-18.571a2.766 2.766 0 00-2.235-2.714v-4.47a2.766 2.766 0 002.235-2.714V97.822a2.766 2.766 0 00-2.235-2.714v-20.61c0-12.214-9.902-22.116-22.117-22.116h-96.81a2.764 2.764 0 00-2.484-1.55h-18.571a2.765 2.765 0 00-2.484 1.55h-3.576c-10.688 0-19.605 7.58-21.668 17.66a22.262 22.262 0 00-.449 4.457v156.517c-4.234-2.446-9.064-3.606-14.573-3.042-.399.04-.792.091-1.181.151-3.448-1.082-7.233-1.993-11.377-2.728-9.117-1.616-19.023-3.268-28.976-4.719l-.335-23.72a35.072 35.072 0 008.526-8.445v.001a34.828 34.828 0 006.455-20.385 34.831 34.831 0 00-7.733-21.818c.17-.039.338-.08.504-.122 12.859-3.3 11.415-79.089 11.415-79.089s-24.007-2.216-46.279-1.719l-1.4 5.989-1.305-5.914c-4.565.15-9.011.424-13.111.866l-2.631 11.255-2.34-10.605c-5.973.937-10.838 2.342-13.689 4.387l12.121 77.933.3.113a34.826 34.826 0 00-5.503 18.976c.002.532.016 1.062.042 1.589a3589.024 3589.024 0 01-5.727 9.436c-.591.953 4.313 3.699 7.232 4.296v13.833a5.53 5.53 0 005.529 5.53c4.34-.005 8.681.027 13.021.058h.001c3.097.023 6.193.045 9.289.054l.188 14.347c-23.339-2.276-43.069-2.082-48.107 4.127a13.32 13.32 0 00-1.18 1.736c-8.058 2.169-15.397 6.123-21.842 11.459-11.738 9.72-19.6 23.202-25.244 35.653l12.336 5.592c-3.338 11.173-5.724 23.225-7.906 34.243l-.313 1.582-.187.942c-.671 3.381-1.335 6.698-2.006 9.94 12.351 4.056 24.402 10.019 35.171 16.249 1.422-6.379 2.665-12.637 3.836-18.534l.059-.296c1.5-7.557 2.881-14.447 4.286-20.641 1.961 15.764 4.809 33.085 8.47 51.251l130.215 29.875c3.776-4.585 5.543-20.167 6.39-37.992a95.989 95.989 0 008.858 7.456c22.779 16.931 51.101 22.293 80.691 20.062 20.064-1.512 42.689-10.829 59.226-28.253 5.996-6.317 11.104-13.615 14.975-21.82l6.43.001c7.171 0 13.004-6.171 13.004-13.757v-21.03h5.456a9.195 9.195 0 00.117-18.39 9.195 9.195 0 00-.117-18.389h-5.456v-.001h5.456a9.195 9.195 0 000-18.39h-5.456 5.456a9.195 9.195 0 000-18.39h-5.456V179.57c0-7.585-5.833-13.756-13.004-13.756h-14.462zm17.44 119.555h6.416v21.223c0 3.159-1.394 5.973-3.567 7.793-1.194 1.32-2.877 2.143-4.741 2.143H652.22c-1.866 0-3.55-.824-4.745-2.146-2.17-1.82-3.562-4.633-3.562-7.79v-14.807h26.97c7.091 0 13.402-3.336 17.449-8.525-.002.05-.003.1-.003.151v3.641c0 1.678 1.286 3.039 2.873 3.039h3.442c1.587 0 2.874-1.361 2.874-3.039v-3.641c0-1.679-1.287-3.04-2.874-3.04h-3.442c-.384 0-.75.08-1.085.225a22.099 22.099 0 001.856-4.245h9.275a9.14 9.14 0 001.097 4.185c-1.128.41-1.938 1.542-1.938 2.875v3.641c0 1.678 1.286 3.039 2.873 3.039h3.442c1.587 0 2.874-1.361 2.874-3.039v-1.722c.278.026.56.039.845.039zm-.845-18.352a8.94 8.94 0 01.679-.037h-.679v.037zm-15.818-15.948a9.164 9.164 0 016.281-2.479h16.798v-.001h-16.798a9.153 9.153 0 01-5.133-1.565c-.093.01-.187.015-.282.015H693v4.03h.778zm23.079-20.87h-7.263 7.263zm-7.261-18.39h7.261v-32.047c0-3.159-1.394-5.974-3.567-7.793-1.194-1.321-2.877-2.143-4.741-2.143h-5.791v6.207c0 2.589-1.984 4.687-4.431 4.687h-5.326v3.057h12.991c1.99 0 3.604 1.707 3.604 3.812v.569c0 2.105-1.614 3.812-3.604 3.812h-12.991v6.11h12.623c2.194 0 3.972 1.881 3.972 4.202v9.527zm-56.29 108.347l.845-.001c-9.087 7.486-20.428 11.663-30.159 12.397-23.534 1.774-41.938-2.77-55.311-12.71-7.394-5.496-14.061-13.244-19.345-23.992l6.348-4.065h84.618v14.614c0 7.586 5.833 13.757 13.004 13.757zM123.945 53.646c-14.759 0-26.724 11.966-26.724 26.725v45.191l.001.002v71.127h-.001v40.549c0 14.76 11.965 26.725 26.724 26.725h185.953c14.76 0 26.725-11.965 26.725-26.725V80.371c0-14.76-11.965-26.724-26.725-26.724H123.945zm19.72 143.303v-74.087a9.995 9.995 0 014.71-8.479 9.935 9.935 0 015.283-1.514h41.617c5.51 0 9.993 4.483 9.993 9.993v92.136c0 .603-.054 1.193-.156 1.767l-.009.05-.011.056-.006.032-.009.046c-.91 4.579-4.959 8.042-9.802 8.042h-41.617c-4.843 0-8.892-3.463-9.802-8.042a10.037 10.037 0 01-.191-1.951v-18.049zm84.911-94.601c0-.339.011-.674.034-1.005.427-6.149 4.73-10.995 9.959-10.995H280.186c.207 0 .412.007.616.022 5.224.384 9.377 5.61 9.377 11.978v110.644a14.14 14.14 0 01-.526 3.844l-.018.063-.014.05c-1.365 4.679-5.079 8.043-9.435 8.043h-41.617c-4.356 0-8.071-3.364-9.435-8.043a14.123 14.123 0 01-.558-3.957V102.348zm24.739 14.036a7.372 7.372 0 017.372-7.372h15.424c4.072 0 7.373 3.3 7.373 7.372v2.161a7.372 7.372 0 01-7.373 7.372h-15.424a7.372 7.372 0 01-7.372-7.372v-2.161zm0 35.947a7.373 7.373 0 017.372-7.372h15.424a7.373 7.373 0 017.373 7.372v2.161a7.373 7.373 0 01-7.373 7.373h-15.424a7.373 7.373 0 01-7.372-7.373v-2.161zm4.629 38.032a4.629 4.629 0 000 9.257h20.911a4.628 4.628 0 100-9.257h-20.911zm-17.436-59.552a4.628 4.628 0 100 9.257h20.912a4.629 4.629 0 000-9.257h-20.912zm2.744 35.947a7.373 7.373 0 00-7.372 7.372v2.161a7.372 7.372 0 007.372 7.372h15.424c4.072 0 7.373-3.3 7.373-7.372v-2.161a7.373 7.373 0 00-7.373-7.372h-15.424zm-88.464-34.889h39.357a2.769 2.769 0 002.769-2.769v-.413a2.77 2.77 0 00-2.769-2.769h-39.357a2.77 2.77 0 00-2.769 2.769v.413c0 1.53 1.24 2.769 2.769 2.769zm-1.104 74.202h7.061v7.062h-7.061v-7.062zm18.562 0h-7.061v7.061h7.061v-7.061zm4.44 0h7.062v7.061h-7.062v-7.061zm18.563 0h-7.061v7.061h7.061v-7.061zm-41.022-34.196h2.645c1.22 0 2.208-.988 2.208-2.208v-2.645a2.208 2.208 0 00-2.208-2.208h-2.645a2.209 2.209 0 00-2.208 2.208v2.645c0 1.22.989 2.208 2.208 2.208zm40.478 0h-2.645a2.208 2.208 0 01-2.208-2.208v-2.645c0-1.22.989-2.208 2.208-2.208h2.645c1.22 0 2.208.988 2.208 2.208v2.645c0 1.22-.988 2.208-2.208 2.208zm-11.926 0h2.645c1.22 0 2.208-.988 2.208-2.208v-2.645c0-1.22-.988-2.208-2.208-2.208h-2.645a2.208 2.208 0 00-2.208 2.208v2.645c0 1.22.989 2.208 2.208 2.208zm-25.907 31.276h-2.645a2.209 2.209 0 01-2.208-2.208v-2.645c0-1.22.989-2.208 2.208-2.208h2.645c1.22 0 2.208.988 2.208 2.208v2.645a2.208 2.208 0 01-2.208 2.208zm35.188-.001h2.645c1.22 0 2.208-.988 2.208-2.208v-2.645a2.208 2.208 0 00-2.208-2.208h-2.645a2.209 2.209 0 00-2.208 2.208v2.645c0 1.22.989 2.208 2.208 2.208zm-6.636 0h-2.645a2.208 2.208 0 01-2.208-2.208v-2.645c0-1.219.989-2.208 2.208-2.208h2.645c1.22 0 2.208.989 2.208 2.208v2.645c0 1.22-.988 2.208-2.208 2.208zm-33.405-9.981h44.895v-15.314a3.053 3.053 0 00-3.053-3.052h-38.79a3.053 3.053 0 00-3.052 3.052v15.314zm41.843-30.575h-38.79a3.052 3.052 0 01-3.052-3.053v-20.18a3.051 3.051 0 013.052-3.052h38.79a3.051 3.051 0 013.052 3.052v20.18a3.052 3.052 0 01-3.052 3.053zm113.891 118.371H126.089c-13.64 0-24.698 11.058-24.698 24.699 0 13.64 11.058 24.698 24.698 24.698h181.664c13.641 0 24.699-11.058 24.699-24.698 0-13.641-11.058-24.699-24.699-24.699zm-181.664-1c-14.193 0-25.698 11.506-25.698 25.699 0 14.193 11.505 25.698 25.698 25.698h181.664c14.194 0 25.699-11.505 25.699-25.698s-11.505-25.699-25.699-25.699H126.089zm90.199 13.012a1 1 0 00-1 1v2.168a10.99 10.99 0 00-3.885 1.61l-1.534-1.534a1 1 0 00-1.414 0l-1.712 1.712a1 1 0 000 1.414l1.534 1.534a10.972 10.972 0 00-1.61 3.885h-2.169a1 1 0 00-1 1v2.421a1 1 0 001 1h2.169a10.99 10.99 0 001.61 3.885l-1.534 1.534a.999.999 0 000 1.414l1.712 1.712a.999.999 0 001.414 0l1.534-1.534a11.008 11.008 0 003.885 1.61v2.169a1 1 0 001 1h2.421a1 1 0 001-1v-2.169a10.998 10.998 0 003.885-1.61l1.534 1.534a.999.999 0 001.414 0l1.712-1.712a.999.999 0 000-1.414l-1.534-1.534a11.008 11.008 0 001.61-3.885h2.168a1 1 0 001-1v-2.421a1 1 0 00-1-1h-2.168a10.99 10.99 0 00-1.61-3.885l1.534-1.534a1 1 0 000-1.414l-1.712-1.712a1 1 0 00-1.414 0l-1.534 1.534a10.99 10.99 0 00-3.885-1.61v-2.168a1 1 0 00-1-1h-2.421zm1.21 21.949a7.95 7.95 0 100-15.9 7.95 7.95 0 000 15.9zm-48-7.622l-13.971-13.655-2.015 2.049.009.008-12.023 11.75 2.096 2.049 12.016-11.744 11.792 11.591 2.096-2.048zm-23.073 2.424l9.179-8.97 9.024 8.871v10.675h-6.371v-6.714h-5.461v6.714h-6.371v-10.576zm-.778-16.079h3.952v3.077l-3.952 3.862v-6.939zm134.04.735l2.875 8.512 8.983.104c.773.009 1.093.994.473 1.455l-7.207 5.364 2.677 8.576c.23.738-.607 1.346-1.238.899l-7.328-5.197-7.329 5.196c-.63.447-1.468-.162-1.238-.899l2.677-8.576-7.207-5.364c-.62-.461-.3-1.446.473-1.455l8.983-.104 2.875-8.512c.248-.732 1.284-.732 1.531.001zm2.206 93.566c-11.245.79-21.922.68-31.015-1.049-8.639-1.643-13.917-4.419-16.96-7.502-2.618-2.652-5.265-7.2-5.265-16.56h-.068a13.926 13.926 0 00-.997-5.159h9.168c3.203 0 5.799-2.309 5.799-5.159 0-2.849-2.596-5.159-5.799-5.159H143.927c-4.929 0-8.926 3.556-8.926 7.941 0 4.386 3.997 7.941 8.926 7.941h46.944c.082 17.284 5.452 31.854 16.157 42.698 10.363 10.498 23.879 15.622 36.792 18.077 14.34 2.727 30.271 2.563 45.35 1.262a298.275 298.275 0 00-1.682-9.512c-.66-3.438-1.484-7.417-2.343-11.561-1.122-5.416-2.302-11.114-3.252-16.258zm65.486 22.275c5.653-4.142 10.42-9.138 14.451-14.602-6.985-4.416-13.577-8.093-19.559-10.96.335 1.633.686 3.309 1.052 5.058l.001.003c.907 4.335 1.907 9.112 2.989 14.745.359 1.868.717 3.79 1.066 5.756zM238.486 517.193l323.028-.001a4.147 4.147 0 100-8.294h-34.005c9.364-.292 17.633-1.022 22.514-2.487 5.88-1.763 5.529-14.025 4.385-14.323l-.059.013-.103.023c.547-11.538-.604-20.811-3.536-25.394 0 0-9.577 10.516-20.025 11.726-4.772.552-7.917-.812-10.216-2.563-2.803-7.587-7.6-19.251-9.853-21.349-3.517-3.276-22.405 4.111-24.912 7.806-.629.927 1.759 2.652 4.896 4.918 1.443 1.042 3.044 2.198 4.583 3.444a32.254 32.254 0 00-3.207-1.332c-3.054-1.085-6.544-1.839-9.824-1.873-3.253-.034-6.496.642-8.832 2.638-.44.376-.819.759-1.102 1.154-.278.388-.527.877-.564 1.447-.087 1.359.993 2.063 1.705 2.376.775.34 1.8.55 2.893.706 1.12.16 2.438.279 3.857.391l.743.058.903.069h.002c4.981.378 10.919.828 15.631 2.454l-.252.244-.238.224c-9.365.918-31.791 5.742-33.314 11.654a2.055 2.055 0 00-.484 1.166c-.015.216-.071.534-.141.933-.633 3.602-2.425 13.796 14.005 14.771 5.524.327 15.562.846 26.628 1.106l-177.39.001c9.369-.292 17.642-1.023 22.525-2.488 5.88-1.763 5.529-14.025 4.385-14.323l-.162.036c.547-11.537-.605-20.809-3.536-25.392 0 0-9.577 10.517-20.025 11.726-6.202.718-9.657-1.802-12.075-4.198.349-7.713.42-17.06-.603-19.447-1.893-4.418-22.156-5.292-25.943-2.926-.95.594.538 3.137 2.492 6.477 1.46 2.496 3.18 5.436 4.339 8.341-.766 2.826-1.155 6.077-1.213 9.295-2.838-3.872-6.556-8.304-10.337-11.785-2.564-2.362-5.246-4.369-7.77-5.425-2.523-1.056-5.228-1.28-7.373.553-1.045.893-1.625 2.017-1.629 3.302-.004 1.214.509 2.379 1.224 3.43 1.422 2.091 4.004 4.247 6.98 6.285 3.938 2.696 8.816 5.351 13.314 7.548-10.635 1.704-27.204 5.962-28.507 11.013a2.061 2.061 0 00-.484 1.167c-.015.216-.071.534-.141.933-.633 3.602-2.425 13.796 14.005 14.771 5.527.327 15.57.847 26.642 1.107h-63.824a4.146 4.146 0 100 8.294zm62.154 23.828c6.057 0 10.968-4.681 10.968-10.456 0-5.775-4.911-10.457-10.968-10.457-6.058 0-10.969 4.682-10.969 10.457s4.911 10.456 10.969 10.456zm209.689-10.454c0 5.775-4.911 10.456-10.969 10.456-6.057 0-10.968-4.681-10.968-10.456 0-5.776 4.911-10.457 10.968-10.457 6.058 0 10.969 4.681 10.969 10.457zm186.897-354.609c.601 0 1.089-.515 1.089-1.152 0-.636-.488-1.152-1.089-1.152-.602 0-1.089.516-1.089 1.152 0 .637.487 1.152 1.089 1.152zm-34.697 118.154h-9.189v9.72h9.189v-9.72zm5.778-.001h9.189v9.72h-9.189v-9.72zm24.155 0h-9.189v9.72h9.189v-9.72zm5.778 0h9.189v9.72h-9.189v-9.72zm10.805 107.686a9.55 9.55 0 00-9.551-9.551h-43.262a9.55 9.55 0 00-9.551 9.551v20.9h-.158c-.659 0-1.193.535-1.193 1.194v13.342c0 .659.534 1.194 1.193 1.194h.158v3.682h-.158c-.659 0-1.193.535-1.193 1.194v13.342c0 .659.534 1.194 1.193 1.194h.158v54.79a9.55 9.55 0 009.551 9.551h43.262a9.55 9.55 0 009.551-9.551v-74.203a1.193 1.193 0 001.176-1.193v-13.342c0-.653-.525-1.184-1.176-1.194v-20.9zm-424.868 64.452c3.979 3.663 7.925 8.473 10.751 12.455l-.063.03-.05.024c-5.109-2.366-11.146-5.512-15.772-8.679-2.923-2.002-5.14-3.917-6.257-5.559-.554-.815-.746-1.431-.745-1.867.001-.365.136-.76.661-1.209.995-.85 2.423-.977 4.509-.104 2.085.873 4.488 2.627 6.966 4.909zm217.144 11.434l.025-.092.038.078.056.121a2.945 2.945 0 00-.119-.107zm-26.205-5.437c1.613-1.378 4.072-2.005 7.007-1.974 2.908.03 6.091.706 8.928 1.713 2.856 1.014 5.229 2.316 6.575 3.509.298.264.519.498.678.698-5.116-1.762-11.421-2.235-16.308-2.601h-.001l-.969-.074-.698-.054c-1.416-.112-2.658-.225-3.685-.372-.902-.129-1.55-.272-1.975-.423a5.66 5.66 0 01.448-.422zm-.862.229l.004.002.014.012c-.015-.01-.02-.015-.019-.015l.001.001z" class="Primary" clip-rule="evenodd"/>
    <path fill="#fff" fill-opacity=".41" fill-rule="evenodd" d="M413.731 168.381a34.817 34.817 0 015.573-19.084c17.503 6.487 28.457-2.551 30.433-4.381l-6.251 10.609 7.626 10.166s11.863-9.429 20.696-5.991c7.949 3.094 5.658 24.546 5.119 28.813-6.289 8.842-16.587 14.622-28.244 14.664-4.95.018-9.902-.018-14.854-.054h-.001c-4.34-.031-8.681-.063-13.021-.058a5.53 5.53 0 01-5.53-5.53v-13.833c.526.108.987.146 1.341.091 1.85-.287 1.563-13.775 1.188-20.483l-4.033 6.66a34.917 34.917 0 01-.042-1.589zm37.283-23.558c-.613-.136-.954-.219-.954-.219s-.059.061-.174.171l1.128.048zm10.765 25.079a2.304 2.304 0 002.944-1.338l.007-.009c.029-.034.141-.169.431-.324a2.627 2.627 0 011.336-.301c.441.024.838.171 1.175.484.343.318.779.952 1.022 2.208.33 1.7.106 2.636-.128 3.108-.219.439-.55.692-.97.834a2.536 2.536 0 01-1.376.057c-.037-.009-.069-.019-.098-.028a2.304 2.304 0 00-4.201 1.787c.254.932.878 1.552 1.403 1.922a5.35 5.35 0 001.757.784 7.142 7.142 0 003.995-.159c1.415-.479 2.786-1.477 3.616-3.148.814-1.638.983-3.672.526-6.033-.386-1.994-1.202-3.588-2.413-4.711a6.418 6.418 0 00-4.063-1.706 7.23 7.23 0 00-3.756.84c-1.033.553-2.101 1.473-2.578 2.777a2.304 2.304 0 001.371 2.956z" class="Subtract" clip-rule="evenodd"/>
    <path fill="#FFEC3E" fill-rule="evenodd" d="M405.198 146.902c4.474 0 8.268 5.369 9.584 12.798a35.092 35.092 0 00-1.01 10.27 3589.024 3589.024 0 01-5.727 9.436c-.285.459.708 1.335 2.139 2.186-1.471 1.544-3.173 2.426-4.986 2.426-5.567 0-10.08-8.308-10.08-18.558 0-10.249 4.513-18.558 10.08-18.558zm-75.081 171.432c6.239.866 12.527 2.424 18.739 4.464 12.351 4.056 24.402 10.019 35.171 16.249a293.216 293.216 0 0110.753 6.543c1.88 1.198 3.74 2.412 5.577 3.635l.321 1.602 125.052 28.691-.064.186c.133.055.24.105.319.149-6.709 19.397-22.989 33.302-42.123 37.626l41.831 3.333c16.488 1.314 28.79 15.745 27.476 32.234-.66 8.286-4.633 15.515-10.515 20.49-.34.228-.687.455-1.041.678-3.214 2.026-7.01 3.788-10.927 4.242-4.772.552-7.918-.812-10.216-2.563a247.71 247.71 0 00-1.136-3.009c-2.827-7.345-6.747-16.504-8.717-18.34-3.517-3.276-22.406 4.111-24.913 7.806-.629.927 1.759 2.652 4.896 4.918 1.443 1.042 3.044 2.198 4.583 3.444a32.057 32.057 0 00-3.207-1.332c-3.054-1.085-6.544-1.839-9.824-1.873-3.253-.034-6.496.642-8.831 2.638-.44.376-.819.759-1.102 1.154-.278.388-.528.877-.564 1.447-.087 1.359.992 2.063 1.704 2.376.775.34 1.801.55 2.893.706 1.121.16 2.438.279 3.858.391l.742.058.898.069h.007c4.769.361 10.415.789 15.022 2.252l-95.396-7.601c-27.152-2.164-38.402-35.868-17.992-53.907l3.852-3.404c-7.189-5.665-15.69-11.868-24.657-17.583l-.756-.479v-.001c-6.984-4.416-13.576-8.093-19.559-10.96.335 1.631.686 3.306 1.052 5.053l.001.005v.003l.003.014.342 1.633a790.746 790.746 0 012.644 13.098c.359 1.868.717 3.79 1.066 5.756 1.868 10.532 3.468 22.346 3.468 34.086 0 16.541-13.409 29.95-29.95 29.95-1.209 0-2.401-.071-3.573-.211.34-7.671.401-16.872-.613-19.237-1.76-4.108-19.398-5.152-24.912-3.377a30.033 30.033 0 01-.852-7.125c0-5.643-.661-11.986-1.777-19.03a295.392 295.392 0 00-1.681-9.512l-.032-.162c-.655-3.4-1.466-7.318-2.311-11.396v-.002l-.001-.001c-1.122-5.416-2.302-11.114-3.252-16.258a234.057 234.057 0 01-.879-5.032c-1.464-9-3.627-24.272 1.162-37.815 1.64-4.64 4.216-9.449 7.992-13.741h17.586c9.586 0 17.946-5.248 22.363-13.028zm171.204 159.349l.026-.092.03.064.015.031.008.018.024.051.016.035a2.556 2.556 0 00-.078-.072l-.041-.035zM307.754 330.362h-16.676a39.118 39.118 0 0110.164-7.736c9.599-5.101 19.513-5.424 27.204-4.508l.598.073c-4.295 7.284-12.222 12.171-21.29 12.171zm174.37 139.91c-2.935-.031-5.394.596-7.007 1.974a5.699 5.699 0 00-.449.422c.425.151 1.074.294 1.975.423 1.027.147 2.27.26 3.685.372.533.043 1.09.084 1.667.128h.001c4.888.366 11.193.839 16.308 2.601a5.65 5.65 0 00-.677-.698c-1.347-1.193-3.72-2.495-6.576-3.509-2.837-1.007-6.02-1.683-8.927-1.713zm-7.866 2.205a.052.052 0 00-.005-.003l.003.003a.39.39 0 00.002 0zm-152.937-94.883l-.007-.001.009.002.012.001.028.002-.042-.004zm107.6-192.754c6.356 0 11.508-8.492 11.508-18.969 0-10.476-5.152-18.969-11.508-18.969-6.355 0-11.507 8.493-11.507 18.969 0 10.477 5.152 18.969 11.507 18.969z" class="Secondary" clip-rule="evenodd"/>
    <path fill="#000" fill-opacity=".38" fill-rule="evenodd" d="M439.889 71.235l-1.305-5.914c-4.565.15-9.011.424-13.111.866l-2.631 11.255-2.34-10.604c-5.973.936-10.838 2.34-13.69 4.386l12.122 77.933c1.181.45 2.331.829 3.452 1.145 1.644-2.141 3.65-3.4 5.817-3.4 2.52 0 6.093 1.05 7.91 4.447 9.245-1.501 13.947-6.746 13.947-6.746s16.207 3.987 26.093 1.451c12.859-3.299 11.415-79.089 11.415-79.089s-24.007-2.216-46.279-1.719l-1.4 5.989z" class="Subtract_2" clip-rule="evenodd"/>
    <path fill="#000" fill-opacity=".24" fill-rule="evenodd" d="M126.089 280.965h181.664c13.641 0 24.699 11.058 24.699 24.699 0 13.64-11.058 24.698-24.699 24.698H126.089c-13.64 0-24.698-11.058-24.698-24.698 0-13.641 11.058-24.699 24.698-24.699zm-25.698 24.699c0-14.193 11.505-25.699 25.698-25.699h181.664c14.194 0 25.699 11.506 25.699 25.699 0 14.193-11.505 25.698-25.699 25.698H126.089c-14.193 0-25.698-11.505-25.698-25.698zm114.897-11.687a1 1 0 011-1h2.421a1 1 0 011 1v2.168a10.99 10.99 0 013.885 1.61l1.534-1.534a1 1 0 011.414 0l1.712 1.712a1 1 0 010 1.414l-1.534 1.534a10.99 10.99 0 011.61 3.885h2.168a1 1 0 011 1v2.421a1 1 0 01-1 1h-2.168a11.008 11.008 0 01-1.61 3.885l1.534 1.534a.999.999 0 010 1.414l-1.712 1.712a.999.999 0 01-1.414 0l-1.534-1.534a10.998 10.998 0 01-3.885 1.61v2.169a1 1 0 01-1 1h-2.421a1 1 0 01-1-1v-2.169a11.008 11.008 0 01-3.885-1.61l-1.534 1.534a.999.999 0 01-1.414 0l-1.712-1.712a.999.999 0 010-1.414l1.534-1.534a10.99 10.99 0 01-1.61-3.885h-2.169a1 1 0 01-1-1v-2.421a1 1 0 011-1h2.169a10.972 10.972 0 011.61-3.885l-1.534-1.534a1 1 0 010-1.414l1.712-1.712a1 1 0 011.414 0l1.534 1.534a10.99 10.99 0 013.885-1.61v-2.168zm10.16 13a7.95 7.95 0 11-15.9-.002 7.95 7.95 0 0115.9.002zm-69.921-13.328l13.971 13.655-2.096 2.048-11.792-11.591-12.016 11.744-2.096-2.049 12.023-11.75-.009-.008 2.015-2.049zm.077 7.109l-9.179 8.97v10.576h6.371v-6.714h5.461v6.714h6.371v-10.675l-9.024-8.871zm-6.005-7.109h-3.952v6.939l3.952-3.862v-3.077zm132.963 9.247l-2.875-8.512c-.247-.733-1.283-.733-1.531-.001l-2.875 8.512-8.983.104c-.773.009-1.093.994-.473 1.455l7.207 5.364-2.677 8.576c-.23.737.608 1.346 1.238.899l7.329-5.196 7.328 5.197c.631.447 1.468-.161 1.238-.899l-2.677-8.576 7.207-5.364c.62-.461.3-1.446-.473-1.455l-8.983-.104z" class="Union" clip-rule="evenodd"/>
    <path fill="#000" fill-opacity=".25" fill-rule="evenodd" d="M391.163 290.549c-3.481-32.645-2.773-57.406 2.855-67.162-8.058 2.169-15.397 6.123-21.841 11.459-11.739 9.72-19.6 23.202-25.244 35.653l44.23 20.05z" class="Subtract_3" clip-rule="evenodd"/>
    <path stroke="#7A7A7A" stroke-opacity=".4" stroke-width=".922" d="M739.829 309.682l8.987-9.206c4.804-4.921 4.73-12.817-.132-17.68v0c-4.876-4.875-4.902-12.806-.027-17.681v0c4.875-4.876 4.875-12.78 0-17.655v0c-4.875-4.876-4.875-12.78 0-17.655v0c4.875-4.875 4.875-12.78 0-17.655v0c-4.875-4.875-4.875-12.779 0-17.655v0c4.875-4.875 4.875-12.779 0-17.654v0c-4.875-4.876-4.875-12.78 0-17.655v0c4.875-4.875 4.875-12.78 0-17.655v0c-4.875-4.875-4.875-12.78 0-17.655v0c4.875-4.875 4.875-12.779 0-17.655v0c-4.875-4.875-4.875-12.78 0-17.654l12.913-12.914" class="Vector 7.2"/>
    <path fill="#fff" fill-opacity=".47" d="M372.688 258.185c3.052-.18 3.759-.538 5.721-4.569.403 3.77.227 4.126 3.576 7.247-3.45-.182-5.484 1.575-6.155 3.269.123-2.846-.53-4.51-3.142-5.947z" class="Ellipse 4.13"/>
    <circle cx="363.273" cy="270.195" r="1.745" fill="#fff" fill-opacity=".24" class="Ellipse 5.15"/>
    <circle cx="384.439" cy="278.278" r="1.745" fill="#fff" fill-opacity=".24" class="Ellipse 5.16"/>
    <path fill="#000" fill-opacity=".53" fill-rule="evenodd" d="M509.088 228.125c-13.698 2.124-21.469 16.187-20.034 30.218 2.491 24.34 9.138 45.571 20.292 63.107l8.693-5.651c1.49 6.777 9.154 15.706 9.154 15.706l9.97 11.086s-1.042 32.664-6.27 38.111l-130.215-29.875c-3.661-18.166-6.509-35.487-8.47-51.251-.382-3.07-.731-6.081-1.045-9.028-3.481-32.644-2.773-57.405 2.855-67.161a13.32 13.32 0 011.18-1.736c5.038-6.209 24.768-6.403 48.107-4.127l.178 13.571s.033.587.207 1.459c.477 2.399 2.013 6.955 6.826 7.392.438.039.902.045 1.396.012 14.737-.99 16.965-9.196 16.965-9.196l-.142-10.084c9.953 1.451 19.859 3.103 28.976 4.719 4.144.735 7.929 1.646 11.377 2.728z" class="Subtract_4" clip-rule="evenodd"/>
    <ellipse cx="400.899" cy="547.417" fill="#002B6C" fill-opacity=".1" class="Ellipse 6.2" rx="163.474" ry="2.351"/>
    <path fill="#000" fill-opacity=".37" fill-rule="evenodd" d="M510.269 227.974c-14.43 1.476-22.691 15.939-21.214 30.369 2.491 24.34 9.138 45.571 20.292 63.107l49.472-31.672c-5.855-9.205-10.767-23.565-17.738-38.631-6.616-14.299-16.382-24.65-30.812-23.173z" class="Vector 3.2 (Stroke)" clip-rule="evenodd"/>
    <path fill="#000" fill-opacity=".28" fill-rule="evenodd" d="M669.614 165.76l16.468-17.202v17.202h-16.468zm-15.331 0l-10.472-24.808-13.951 30.502-.188-1.319-11.167-17.328-4.107 6.927-7.928-18.782-15.71 34.346-3.298-5.118-4.448 7.501-22.238-15.329-9.66 20.335-4.813-7.468-6.079 10.252-8.461-5.317v45.717h72.758l-.001-.001h7.552l-.003.003h28.234v-46.357c0-7.585 5.833-13.756 13.004-13.756h.976z" class="Subtract_5" clip-rule="evenodd"/>
    <path fill="#fff" fill-opacity=".47" d="M410.001 243.437c-3.674 3.147-4.223 4.274-2.839 11.23-4.113-4.366-4.232-4.982-11.437-5.712 4.522-3.07 5.404-7.23 4.629-10.005 2.567 3.703 4.982 5.175 9.647 4.487z" class="Ellipse 4"/>
    <path fill="#fff" fill-opacity=".47" d="M455.926 318.65c-4.351-2.114-5.604-2.168-11.43 1.876 2.362-5.514 2.879-5.868.675-12.767 4.619 2.922 8.786 2.072 11.021.254-2.371 3.831-2.758 6.633-.266 10.637z" class="Ellipse 4.1"/>
    <path fill="#fff" fill-opacity=".47" d="M472.368 255.525c2.417-2.607 2.723-3.476 1.127-8.438 3.371 2.841 3.509 3.281 8.831 3.207-3.043 2.622-3.337 5.734-2.537 7.694-2.186-2.487-4.073-3.358-7.421-2.463z" class="Ellipse 4.2"/>
    <path fill="#fff" fill-opacity=".47" d="M504.924 352.591c2.417-2.607 2.723-3.476 1.127-8.437 3.371 2.841 3.509 3.28 8.831 3.207-3.043 2.622-3.337 5.733-2.537 7.694-2.186-2.487-4.073-3.359-7.421-2.464z" class="Ellipse 4.3"/>
    <path fill="#fff" fill-opacity=".47" d="M409.228 335.455c3.549-.209 4.371-.625 6.651-5.312.468 4.384.264 4.797 4.158 8.426-4.011-.212-6.376 1.831-7.155 3.8.142-3.308-.618-5.243-3.654-6.914z" class="Ellipse 4.4"/>
    <path fill="#fff" fill-opacity=".47" d="M415.315 282.558c3.052-.181 3.759-.538 5.721-4.569.403 3.77.227 4.125 3.576 7.247-3.45-.183-5.485 1.575-6.155 3.269.123-2.846-.531-4.51-3.142-5.947z" class="Ellipse 4.5"/>
    <path fill="#fff" fill-opacity=".47" d="M380.362 240.898c3.052-.18 3.759-.538 5.721-4.569.402 3.771.227 4.126 3.576 7.247-3.45-.182-5.485 1.575-6.155 3.269.123-2.846-.531-4.51-3.142-5.947z" class="Ellipse 4.14"/>
    <path fill="#fff" fill-opacity=".47" d="M468.064 277.847c3.052-.18 3.759-.538 5.721-4.569.403 3.77.227 4.125 3.576 7.247-3.45-.183-5.485 1.575-6.155 3.269.123-2.846-.531-4.51-3.142-5.947z" class="Ellipse 4.9"/>
    <path fill="#fff" fill-opacity=".47" d="M435.347 255.986c1.906 1.496 2.513 1.655 5.793.294-1.741 2.448-2.031 2.567-1.684 6.177-1.951-1.92-4.08-1.946-5.367-1.293 1.567-1.624 2.053-2.954 1.258-5.178z" class="Ellipse 4.7"/>
    <path fill="#fff" fill-opacity=".13" fill-rule="evenodd" d="M558.563 83.648a4 4 0 00-4 4v10.738a4 4 0 004 4h10.738c2.21 0 4-1.79 4-4V87.648a4 4 0 00-4-4h-10.738zm30.738 0a4 4 0 00-4 4v10.738a4 4 0 004 4h10.738a4 4 0 004-4V87.648a4 4 0 00-4-4h-10.738zm26.738 4a4 4 0 014-4h10.738a4 4 0 014 4v10.738a4 4 0 01-4 4h-10.738a4 4 0 01-4-4V87.648zm34.738-4a4 4 0 00-4 4v10.738a4 4 0 004 4h10.738a4 4 0 004-4V87.648a4 4 0 00-4-4h-10.738zm-96.214 37.739a4 4 0 014-4h10.738a4 4 0 014 4v10.738a4 4 0 01-4 4h-10.738a4 4 0 01-4-4v-10.738zm34.738-4a4 4 0 00-4 4v10.738a4 4 0 004 4h10.738a4 4 0 004-4v-10.738a4 4 0 00-4-4h-10.738zm26.738 4a4 4 0 014-4h10.738a4 4 0 014 4v10.738a4 4 0 01-4 4h-10.738a4 4 0 01-4-4v-10.738zm34.738-4a4 4 0 00-4 4v10.738a4 4 0 004 4h10.738a4 4 0 004-4v-10.738a4 4 0 00-4-4h-10.738zm-96.214 37.738a4 4 0 014-4h10.738a4 4 0 014 4v10.738a4 4 0 01-4 4h-10.738a4 4 0 01-4-4v-10.738zm34.738-4a4 4 0 00-4 4v10.738a4 4 0 004 4h10.738a4 4 0 004-4v-10.738a4 4 0 00-4-4h-10.738zm26.738 4a4 4 0 014-4h10.738a4 4 0 014 4v10.738a4 4 0 01-4 4h-10.738a4 4 0 01-4-4v-10.738zm30.738 0a4 4 0 014-4h10.738a4 4 0 014 4v10.686c-1.935-.228-9.893-.621-15.031.289-2.005.355-1.883.634-3.292 1.284-.167-.441-.415-1.021-.415-1.521v-10.738z" class="Union_2" clip-rule="evenodd"/>
    <path fill="#fff" fill-opacity=".47" d="M475.244 307.675c1.905 1.496 2.512 1.655 5.793.294-1.741 2.448-2.032 2.567-1.685 6.177-1.95-1.92-4.08-1.946-5.367-1.293 1.567-1.624 2.054-2.954 1.259-5.178z" class="Ellipse 4.8"/>
    <path fill="#fff" fill-opacity=".47" d="M466.106 347.911c3.052-.181 3.759-.538 5.721-4.57.403 3.771.227 4.126 3.576 7.247-3.45-.182-5.485 1.575-6.155 3.269.123-2.845-.531-4.51-3.142-5.946z" class="Ellipse 4.6"/>
    <circle cx="426.085" cy="228" r="1.745" fill="#fff" fill-opacity=".24" class="Ellipse 5"/>
    <circle cx="368.73" cy="243.419" r="1.745" fill="#fff" fill-opacity=".24" class="Ellipse 5.18"/>
    <circle cx="403.228" cy="228.358" r="1.745" fill="#fff" fill-opacity=".24" class="Ellipse 5.9"/>
    <circle cx="445.601" cy="274.605" r="1.745" fill="#fff" fill-opacity=".24" class="Ellipse 5.1"/>
    <circle cx="459.384" cy="298.972" r="1.745" fill="#fff" fill-opacity=".24" class="Ellipse 5.10"/>
    <circle cx="487.003" cy="229.745" r="1.745" fill="#fff" fill-opacity=".24" class="Ellipse 5.2"/>
    <circle cx="490.493" cy="324.597" r="1.745" fill="#fff" fill-opacity=".24" class="Ellipse 5.3"/>
    <circle cx="438.487" cy="347.647" r="1.745" fill="#fff" fill-opacity=".24" class="Ellipse 5.4"/>
    <circle cx="460.825" cy="330.651" r="1.745" fill="#fff" fill-opacity=".24" class="Ellipse 5.11"/>
    <circle cx="399.737" cy="285.23" r="1.745" fill="#fff" fill-opacity=".24" class="Ellipse 5.5"/>
    <circle cx="421.749" cy="311.427" r="1.745" fill="#fff" fill-opacity=".24" class="Ellipse 5.6"/>
    <circle cx="515.834" cy="366.383" r="1.745" fill="#fff" fill-opacity=".24" class="Ellipse 5.7"/>
    <circle cx="488.748" cy="347.723" r="1.745" fill="#fff" fill-opacity=".24" class="Ellipse 5.8"/>
    <path fill="#fff" fill-opacity=".47" d="M514.388 239.632c2.938-.846 3.549-1.35 4.578-5.714 1.221 3.59 1.127 3.975 5.08 6.285-3.406.58-5.004 2.741-5.286 4.54-.505-2.802-1.509-4.283-4.372-5.111z" class="Ellipse 4.10"/>
    <path fill="#fff" fill-opacity=".47" d="M520.909 273.932c.61-2.997.446-3.772-2.946-6.703 3.747.579 4.045.84 7.922-1.595-1.062 3.288.114 5.705 1.578 6.788-2.718-.85-4.495-.645-6.554 1.51z" class="Ellipse 4.12"/>
    <path fill="#fff" fill-opacity=".47" d="M508.668 295.305c2.938-.847 3.55-1.351 4.578-5.715 1.221 3.59 1.128 3.975 5.08 6.285-3.406.58-5.004 2.741-5.286 4.541-.505-2.803-1.508-4.283-4.372-5.111z" class="Ellipse 4.11"/>
    <circle cx="502.054" cy="252.08" r="1.745" fill="#fff" fill-opacity=".24" class="Ellipse 5.12" transform="rotate(-12.689 502.054 252.08)"/>
    <circle cx="507.876" cy="277.938" r="1.745" fill="#fff" fill-opacity=".24" class="Ellipse 5.14" transform="rotate(-12.689 507.876 277.938)"/>
    <circle cx="530.623" cy="256.658" r="1.745" fill="#fff" fill-opacity=".24" class="Ellipse 5.17" transform="rotate(-12.689 530.623 256.658)"/>
    <circle cx="540.51" cy="284.675" r="1.745" fill="#fff" fill-opacity=".24" class="Ellipse 5.13" transform="rotate(-12.689 540.51 284.675)"/>
    <path fill="#E6E6E6" d="M688.128 311.931h-15.486c-.518 0-.939-.445-.939-.994 0-.548.421-.993.939-.993h15.486c.518 0 .939.445.939.993 0 .549-.421.994-.939.994z" class="Vector_14"/>
    <ellipse cx="677.871" cy="547.884" fill="#002B6C" fill-opacity=".1" class="Ellipse 6.1" rx="31.174" ry="1.883"/>
    <rect width="125.727" height="57.578" x="706.653" y="394.349" stroke="#000" stroke-opacity=".56" stroke-width=".398" class="Rectangle 3.9" rx="9.352" transform="rotate(90 706.653 394.349)"/>
    <circle cx="677.865" cy="508.574" r="4.574" fill="#000" fill-opacity=".49" class="Ellipse 3.1"/>
    <path fill="#000" fill-opacity=".49" d="M667.318 394.15h21.09v3.628c0 .879-.712 1.592-1.591 1.592H668.91a1.592 1.592 0 01-1.592-1.592v-3.628z" class="Rectangle 10"/>
    <circle cx="127.146" cy="82.172" r="15.016" fill="#000" fill-opacity=".47" class="Ellipse 7"/>
    <path fill="#000" fill-opacity=".55" d="M312.251 512.555c-17.288.291-41.845-2.226-51.962-3.521h95.303c-7.243 1.052-26.053 3.229-43.341 3.521z" class="Vector 16"/>
    <path fill="#000" fill-opacity=".55" d="M511.742 512.555c-18.247.291-44.165-2.226-54.844-3.521h100.589c-7.645 1.052-27.498 3.229-45.745 3.521z" class="Vector 16.1"/>
    <path stroke="#1D06A0" stroke-linecap="round" d="M59.335 518.219l4.909-4.974c4.287-4.344 11.291-4.367 15.607-.051l2.047 2.047c4.296 4.296 11.26 4.296 15.557 0l2.098-2.098c4.296-4.296 11.261-4.296 15.556 0l2.099 2.098c4.296 4.296 11.26 4.296 15.556 0l.453-.453a11 11 0 001.095-1.276l2.03-2.77" class="Vector 7.3"/>
    <path stroke="#1D06A0" stroke-linecap="round" d="M304.012 114.602l4.909-4.974c4.287-4.344 11.291-4.367 15.607-.051l2.047 2.047c4.296 4.296 11.261 4.296 15.556 0l2.099-2.098c4.296-4.296 11.26-4.296 15.556 0l2.099 2.098c4.295 4.296 11.26 4.296 15.556 0l.453-.453a11 11 0 001.095-1.276l2.029-2.77" class="Vector 7"/>
    <path fill="#000" fill-opacity=".4" fill-rule="evenodd" d="M113.44 196.963H97.229l-.039-71.895 36.859 23.189 9.616-22.726v71.434h-30.226l.001-.002zm91.828.002h23.308v-94.601c0-.343.012-.682.036-1.018L214.435 67.76l-20.639 45.125h1.48c5.51 0 9.992 4.483 9.992 9.993v74.087zm-39.544-84.08l-10.575-14.494-6.774 16.008a9.935 9.935 0 015.283-1.514h12.066zm114.462-22.521h-19.273l10.339-22.604 9.55 22.627a8.39 8.39 0 00-.616-.023zm9.993 106.601v-84.364l9.913 23.486 36.496-28.803v89.681h-46.409z" class="Subtract_6" clip-rule="evenodd"/>
    <path fill="#000" fill-opacity=".2" fill-rule="evenodd" d="M143.856 217.222a10.037 10.037 0 01-.191-1.951v-18.307H97.221v20.258h46.635zm61.221 0h24.057a14.123 14.123 0 01-.558-3.957v-16.301h-23.308v18.307c0 .667-.066 1.32-.191 1.951zm131.511 0h-46.967a14.16 14.16 0 00.558-3.957v-16.301h46.409v20.258z" class="Subtract_7" clip-rule="evenodd"/>
    <path fill="#000" fill-opacity=".2" fill-rule="evenodd" d="M143.856 217.222a10.03 10.03 0 01-.191-1.951v-18.306H97.221v20.257h46.635zm61.221 0h24.057a14.112 14.112 0 01-.558-3.957v-16.3h-23.308v18.306c0 .668-.066 1.32-.191 1.951zm131.511 0h-46.967c.361-1.239.558-2.571.558-3.957v-16.3h46.409v20.257z" class="Subtract_8" clip-rule="evenodd"/>
    <ellipse cx="216.923" cy="239.496" fill="#000" fill-opacity=".2" class="Ellipse 6" rx="80.993" ry="2.178"/>
    <path fill="#000" fill-opacity=".33" fill-rule="evenodd" d="M443.118 203.178l.137 10.476c7.791-1.669 20.509-6.172 22.1-13.925.068-.33.111-.646.132-.949a34.583 34.583 0 01-16.804 4.397c-1.855.007-3.71.006-5.565.001z" class="Subtract_9" clip-rule="evenodd"/>
    <path fill="#000" fill-opacity=".48" fill-rule="evenodd" d="M391.164 290.549l-32.061-14.533 32.731 25.493.404-1.69a522.36 522.36 0 01-1.074-9.27z" class="Subtract_10" clip-rule="evenodd"/>
    <path fill="#000" fill-opacity=".51" fill-rule="evenodd" d="M552.744 59.302c.091.009.183.013.276.013h18.571c.093 0 .185-.004.276-.013h99.018c8.393 0 15.197 6.804 15.197 15.197v91.315h6.92v-18.238a2.765 2.765 0 002.234-2.714v-18.571a2.765 2.765 0 00-2.234-2.714v-4.47a2.765 2.765 0 002.234-2.714V97.822a2.765 2.765 0 00-2.234-2.714v-20.61c0-12.214-9.903-22.116-22.117-22.116h-96.81a2.765 2.765 0 00-2.484-1.55H553.02a2.764 2.764 0 00-2.484 1.55h-3.576c-12.215 0-22.117 9.902-22.117 22.117v156.518c2.51 1.45 4.811 3.352 6.92 5.615V74.499c0-8.393 6.804-15.197 15.197-15.197h5.784zm3.263 225.562a66.5 66.5 0 002.813 4.914l-3.134 2.006h84.617v-6.92h-84.296z" class="Subtract_11" clip-rule="evenodd"/>
    <rect width="30.169" height="9.257" x="235.881" y="130.886" fill="#000" fill-opacity=".41" class="Rectangle 5.1" rx="4.629"/>
    <rect width="30.169" height="16.905" x="235.881" y="166.833" fill="#000" fill-opacity=".41" class="Rectangle 5.3" rx="7.372"/>
    <path fill="#000" fill-opacity=".43" fill-rule="evenodd" d="M537.395 342.816l-.264 3.959c-1.59-1.701-3.51-3.604-5.56-5.636v-.001c-5.855-5.804-12.768-12.658-16.077-18.829l-8.029 5.14c-11.154-17.536-17.802-38.766-20.292-63.106-.302-2.944.403-5.951 1.716-8.872.013.955.068 1.914.166 2.873 2.491 24.34 9.138 45.57 20.292 63.106l8.031-5.141c5.455 10.181 12.135 19.039 20.017 26.507z" class="Subtract_12" clip-rule="evenodd"/>
    <path fill="#000" fill-opacity=".46" d="M550.217 297.735l-30.408 23.083-2.369-4.579 31.944-20.45.833 1.946z" class="Vector 8"/>
    <path fill="#000" fill-opacity=".38" fill-rule="evenodd" d="M293.289 458.345c-1.954-3.34-3.442-5.883-2.492-6.477 3.787-2.366 24.049-1.492 25.943 2.926 1.023 2.387.952 11.734.603 19.446 2.418 2.397 5.873 4.917 12.075 4.199 10.448-1.21 20.024-11.726 20.024-11.726 2.952 4.613 4.099 13.98 3.525 25.625l-.088.01c-.418 6.493-5.818 11.63-12.417 11.63h-65.784c-6.872 0-12.443-5.571-12.443-12.443 0-5.327 17.513-9.872 28.589-11.646a148.907 148.907 0 006.583 3.022l.776.333.65-.539c3.339-2.766 8.172-7.074 11.181-11.307 1.491-2.096 2.664-4.35 2.836-6.5.089-1.106-.086-2.21-.64-3.227-.553-1.014-1.43-1.847-2.59-2.501-2.489-1.403-4.839-1.562-6.869-.481-1.927 1.026-3.281 3.026-4.22 5.305a22.645 22.645 0 00-.903 2.692c-1.159-2.905-2.879-5.845-4.339-8.341zm1.554 20.394l.114-.054.113.159a14.943 14.943 0 01-.227-.105zm12.918-8.943c-2.22 3.123-5.589 6.373-8.547 8.957-.215-4.909.394-10.114 1.874-13.706.834-2.025 1.86-3.33 2.962-3.917.999-.533 2.329-.613 4.213.449.802.452 1.261.941 1.519 1.415.257.47.366 1.02.313 1.683-.112 1.391-.928 3.142-2.334 5.119z" class="Subtract_13" clip-rule="evenodd"/>
    <path fill="#000" fill-opacity=".16" fill-rule="evenodd" d="M310.104 451.589c4.481-.126 10.41.371 11.294 3.021.33.99.514 2.401.717 3.952.636 4.854 1.45 11.077 7.458 10.044 6.342-1.09 16.515-13.171 20.809-19.075-.514 4.438-3 9.618-7.05 14.582-2.978 3.651-7.337 6.513-11.199 7.863-6.064 2.12-10.664 2.845-14.81 2.096.341-7.675.403-16.892-.612-19.259-.624-1.456-3.241-2.527-6.607-3.224z" class="Subtract_14" clip-rule="evenodd"/>
    <path fill="#000" fill-opacity=".16" d="M469.496 412.233l19.369 3.554-5.608 1.666 5.608.396-17.593 5.579 3.91-3.91-17.948-1.599 16.704-2.132-4.442-3.554z" class="Vector 9"/>
    <path fill="#000" fill-opacity=".16" d="M523.479 385.267l-89.604-26.655c5.236 0 91.444 18.974 91.801 20.878.285 1.523-1.285 4.151-2.197 5.777z" class="Vector 11"/>
    <path fill="#000" fill-opacity=".16" fill-rule="evenodd" d="M431.851 374.141l.002.118-44.739 39.541-11.331-8.756-1.26-.888c-8.239-5.775-23.223-14.555-32.255-19.494 6.4-3.2 35.925 4.686 49.564 11.536l40.019-22.057z" class="Subtract_15" clip-rule="evenodd"/>
    <path fill="#000" fill-opacity=".35" fill-rule="evenodd" d="M297.552 537.624c6.057 0 10.968-4.682 10.968-10.457 0-1.806-.48-3.505-1.325-4.987 2.679 1.906 4.413 4.953 4.413 8.385 0 5.775-4.91 10.457-10.968 10.457-4.163 0-7.785-2.212-9.643-5.47a11.279 11.279 0 006.555 2.072z" class="Subtract_16" clip-rule="evenodd"/>
    <path fill="#000" fill-opacity=".35" fill-rule="evenodd" d="M496.272 537.624c6.058 0 10.969-4.682 10.969-10.457 0-1.806-.48-3.505-1.326-4.987 2.679 1.906 4.414 4.952 4.414 8.385 0 5.775-4.911 10.456-10.968 10.456-4.164 0-7.785-2.211-9.643-5.469a11.276 11.276 0 006.554 2.072z" class="Subtract_17" clip-rule="evenodd"/>
    <path fill="#000" fill-opacity=".16" fill-rule="evenodd" d="M503.463 454.224c3.275-.684 6.017-.739 7.154.32 2.252 2.098 7.05 13.764 9.853 21.351 2.299 1.75 5.444 3.114 10.216 2.562 4.353-.504 8.555-2.624 11.976-4.925 3.954-3.539 6.038-7.068 6.038-7.068s-13.946 10.114-22.398 7.337c-5.661-1.86-7.74-8.428-9.378-13.606-.954-3.013-1.758-5.555-3.033-6.425-2.24-1.527-7.294-.877-10.428.454z" class="Subtract_18" clip-rule="evenodd"/>
    <path fill="#fff" fill-opacity=".62" fill-rule="evenodd" d="M640.302 265.405a11.668 11.668 0 01-9.783-4.407h-10.48a4 4 0 01-4-4V246.26a4 4 0 014-4h10.738c1.229 0 2.329.555 3.063 1.427a11.697 11.697 0 012.325-1.018l4.137-1.3v-4.4h-88.559a5 5 0 00-5 5v19.317a5 5 0 005 5h88.559v-.881zm-85.739-19.145a4 4 0 014-4h10.738a4 4 0 014 4v10.738a4 4 0 01-4 4h-10.738a4 4 0 01-4-4V246.26zm34.738-4a4 4 0 00-4 4v10.738a4 4 0 004 4h10.738a4 4 0 004-4V246.26a4 4 0 00-4-4h-10.738z" class="Subtract_19" clip-rule="evenodd"/>
    <path fill="#E6E6E6" fill-rule="evenodd" d="M716.857 179.871v31.938l-1.744-.001v-35.04a7.146 7.146 0 00-1.734-4.702c2.122 1.842 3.478 4.654 3.478 7.805zm0 105.498h-1.744v24.215c0 1.863-.693 3.554-1.822 4.8 2.173-1.819 3.566-4.634 3.566-7.793v-21.222zm-69.381 29.012c-2.17-1.82-3.562-4.633-3.562-7.79v-41.947l1.744-.548v45.488c0 1.861.692 3.551 1.818 4.797zm-1.818-74.695v-62.918a7.14 7.14 0 011.731-4.698c-2.12 1.842-3.475 4.652-3.475 7.801v60.363l1.744-.548z" class="Subtract_20" clip-rule="evenodd"/>
    <g class="Group 13_2">
      <path fill="#fff" fill-opacity=".31" d="M705.993 191.97h-51.216c-1.99 0-3.603-1.707-3.603-3.812v-.569c0-2.105 1.613-3.812 3.603-3.812h51.216c1.99 0 3.603 1.707 3.603 3.812v.569c0 2.105-1.613 3.812-3.603 3.812z" class="Vector_15"/>
      <path fill="#fff" fill-opacity=".31" fill-rule="evenodd" d="M692.429 234.262h-37.283c-2.194 0-3.972-1.881-3.972-4.201v-27.779c0-2.321 1.778-4.202 3.972-4.202h50.478c2.194 0 3.972 1.881 3.972 4.202v9.527h-9.537a9.195 9.195 0 000 18.39h9.535-9.534a9.187 9.187 0 00-7.631 4.063zm-1.329 3.058c-1.54.058-2.771 1.396-2.771 3.038v3.641c0 1.679 1.287 3.04 2.874 3.04h3.442c.095 0 .189-.005.281-.015a9.185 9.185 0 01-4.061-7.63c0-.713.081-1.407.235-2.074zm-33.611 52.771h-3.442c-1.587 0-2.873-1.36-2.873-3.039v-3.641c0-1.679 1.286-3.04 2.873-3.04h3.442c1.587 0 2.874 1.361 2.874 3.04v3.641c0 1.679-1.287 3.039-2.874 3.039zm45.792 0h3.442c1.587 0 2.873-1.361 2.873-3.039v-1.722a9.197 9.197 0 01-7.251-4.794c-1.128.41-1.938 1.542-1.938 2.875v3.641c0 1.678 1.287 3.039 2.874 3.039zm-2.033-13.74h-50.074v-13.989l11.5-3.615a11.628 11.628 0 007.637-7.678h23.468a9.168 9.168 0 00-2.914 6.716 9.195 9.195 0 009.195 9.195h9.536v.037c-4.682.427-8.35 4.363-8.35 9.157l.002.177zm-6.603 13.74h-3.442c-1.587 0-2.874-1.361-2.874-3.039v-3.641c0-1.679 1.287-3.04 2.874-3.04h3.442c1.587 0 2.873 1.361 2.873 3.04v3.641c0 1.678-1.286 3.039-2.873 3.039z" class="Subtract_21" clip-rule="evenodd"/>
    </g>
    <path fill="#fff" fill-opacity=".8" fill-rule="evenodd" d="M633.839 243.687c-4.631 2.665-6.959 8.273-5.291 13.581a11.624 11.624 0 001.97 3.73h-10.48a4 4 0 01-4-4V246.26a4 4 0 014-4h10.738c1.23 0 2.33.555 3.063 1.427zm-75.277-1.427a4 4 0 00-4 4v10.738a4 4 0 004.001 4H569.3a4 4 0 004-4V246.26a4 4 0 00-4-4h-10.738zm30.738 0a4 4 0 00-4 4v10.738a4 4 0 004 4h10.738a4 4 0 004-4V246.26a4 4 0 00-4-4H589.3z" class="Subtract_22" clip-rule="evenodd"/>
    <path fill="#000" fill-opacity=".55" fill-rule="evenodd" d="M690.864 221.162a9.195 9.195 0 019.195-9.195h25.864a9.195 9.195 0 010 18.39h-25.864a9.195 9.195 0 01-9.195-9.195zm9.196 9.195a9.195 9.195 0 00-9.195 9.195 9.194 9.194 0 009.195 9.195h25.863a9.195 9.195 0 000-18.39H700.06zm-9.195 27.586a9.195 9.195 0 019.195-9.195h25.863a9.195 9.195 0 01.118 18.389 9.195 9.195 0 01-.118 18.39h-15.482a9.195 9.195 0 01-.166-18.389H700.06a9.195 9.195 0 01-9.195-9.195zm-54.7-15.116c-6.134 1.928-9.545 8.464-7.616 14.599 1.928 6.135 8.464 9.545 14.599 7.617l19.526-6.138c6.135-1.928 9.545-8.464 7.617-14.599-1.928-6.134-8.465-9.544-14.599-7.616l-19.527 6.137z" class="Union_3" clip-rule="evenodd"/>
    <path fill="#fff" fill-rule="evenodd" d="M652.221 316.528c-1.866 0-3.55-.824-4.745-2.146a7.134 7.134 0 01-1.819-4.797v-45.489l5.517-1.734v13.989h50.074a9.153 9.153 0 001.097 4.185c-1.128.41-1.938 1.542-1.938 2.875v3.641c0 1.678 1.287 3.039 2.874 3.039h3.442c1.587 0 2.873-1.361 2.873-3.039v-1.722c.278.026.56.039.845.039h4.671v24.216a7.137 7.137 0 01-1.821 4.8c-1.195 1.32-2.878 2.143-4.742 2.143H652.221zm62.891-67.938v-.001H700.06a9.156 9.156 0 01-5.134-1.565c-.092.01-.186.015-.281.015h-3.442c-1.587 0-2.874-1.361-2.874-3.04v-3.641c0-1.642 1.231-2.98 2.771-3.038a9.139 9.139 0 011.329-3.058h-37.283c-2.194 0-3.972-1.881-3.972-4.201v-27.779c0-2.321 1.778-4.202 3.972-4.202h50.478c2.194 0 3.972 1.881 3.972 4.202v9.527h5.516v-35.04a7.135 7.135 0 00-1.821-4.8c-1.195-1.321-2.878-2.143-4.742-2.143h-5.791v6.207c0 2.589-1.983 4.687-4.431 4.687h-35.884c-2.447 0-4.431-2.098-4.431-4.687v-6.207h-5.791c-1.866 0-3.55.824-4.745 2.146a7.132 7.132 0 00-1.819 4.797v62.917l10.035-3.154c6.135-1.928 12.671 1.482 14.599 7.616.736 2.342.694 4.742.02 6.921h23.468a9.163 9.163 0 016.281-2.479h15.052zm-5.516 18.39v.037a8.94 8.94 0 01.679-.037h-.679zm5.516-36.781h-5.518 5.518zm-23.158-55.393c0 .637-.488 1.152-1.089 1.152-.602 0-1.089-.515-1.089-1.152 0-.636.487-1.152 1.089-1.152.601 0 1.089.516 1.089 1.152zm5.272 1.152c.602 0 1.089-.515 1.089-1.152 0-.636-.487-1.152-1.089-1.152-.601 0-1.089.516-1.089 1.152 0 .637.488 1.152 1.089 1.152zm8.767 16.012h-51.216c-1.99 0-3.603-1.707-3.603-3.812v-.569c0-2.105 1.613-3.812 3.603-3.812h51.216c1.99 0 3.603 1.707 3.603 3.812v.569c0 2.105-1.613 3.812-3.603 3.812zm-48.504 98.121h-3.442c-1.587 0-2.873-1.36-2.873-3.039v-3.641c0-1.679 1.286-3.04 2.873-3.04h3.442c1.587 0 2.874 1.361 2.874 3.04v3.641c0 1.679-1.287 3.039-2.874 3.039zm37.156 0h-3.442c-1.587 0-2.874-1.361-2.874-3.039v-3.641c0-1.679 1.287-3.04 2.874-3.04h3.442c1.587 0 2.873 1.361 2.873 3.04v3.641c0 1.678-1.286 3.039-2.873 3.039zm-26.338 4.02h9.189v9.72h-9.189v-9.72zm-5.778.001h-9.189v9.72h9.189v-9.72zm25.599 17.818h-15.486c-.519 0-.939-.444-.939-.993 0-.549.42-.994.939-.994h15.486c.518 0 .939.445.939.994 0 .549-.421.993-.939.993zm4.335-17.819h-9.189v9.72h9.189v-9.72zm5.778 0h9.189v9.72h-9.189v-9.72z" class="Subtract_23" clip-rule="evenodd"/>
    <path fill="#fff" fill-opacity=".35" fill-rule="evenodd" d="M440.019 359.853c-5.25-1.139-8.469-1.832-8.469-1.832l.303 16.238-48.462 42.831c-20.41 18.039-9.16 51.743 17.992 53.907l95.396 7.601c-4.607-1.463-10.253-1.89-15.022-2.252h-.001l-.006-.001a177.187 177.187 0 01-1.64-.126c-1.42-.112-2.738-.231-3.858-.391-1.092-.156-2.118-.366-2.893-.706-.712-.313-1.791-1.017-1.704-2.376.036-.57.286-1.059.563-1.447.284-.395.662-.778 1.103-1.154 2.335-1.996 5.578-2.672 8.831-2.638 3.28.034 6.77.788 9.824 1.873 1.122.398 2.204.848 3.207 1.332-1.346-1.09-2.741-2.112-4.035-3.048l-.548-.396c-3.137-2.266-5.525-3.991-4.896-4.918 2.194-3.233 16.93-9.293 22.935-8.563.858.104 1.538.347 1.977.757 2.253 2.098 7.05 13.762 9.854 21.349 2.154 1.641 5.054 2.943 9.34 2.644a20.2 20.2 0 00.875-.081c3.918-.454 7.714-2.216 10.928-4.242.354-.223.701-.45 1.04-.678 5.883-4.975 9.856-12.204 10.516-20.49 1.314-16.489-10.988-30.92-27.476-32.234l-41.831-3.333c19.134-4.324 35.414-18.229 42.123-37.626-.323-.18-1.105-.452-2.276-.799l-83.69-19.201zm61.328 117.738l-.026.092c.04.034.08.07.119.107a7.196 7.196 0 00-.093-.199zm-26.23-5.345c1.613-1.378 4.072-2.005 7.006-1.974 2.908.03 6.091.706 8.928 1.713 2.856 1.014 5.229 2.316 6.576 3.509.298.264.518.498.677.698-5.115-1.762-11.42-2.235-16.308-2.601h-.001c-.577-.044-1.134-.085-1.667-.128-1.415-.112-2.658-.225-3.685-.372-.901-.129-1.55-.272-1.975-.423.111-.118.257-.258.449-.422zm-.864.228l.005.003a298549186.422 298549186.422 0 00.014.012.094.094 0 01-.019-.015z" class="Subtract_24" clip-rule="evenodd"/>
    <path fill="#000" fill-opacity=".41" fill-rule="evenodd" d="M485.704 462.35c-.629.927 1.759 2.652 4.896 4.918 1.443 1.042 3.044 2.198 4.583 3.444 1.711.827 3.197 1.756 4.276 2.712.837.741 1.582 1.63 1.862 2.635a2.93 2.93 0 01.026 1.532c.032.066.063.132.093.199a2.898 2.898 0 01.843 1.594c.189 1.025-.092 2.151-.52 3.184-.875 2.112-2.7 4.614-4.957 6.912-2.271 2.312-5.078 4.518-8.012 5.985-2.91 1.455-6.121 2.267-9.095 1.496-.561-.146-1.069-.325-1.497-.556-.419-.227-.858-.558-1.14-1.054-.673-1.184-.011-2.29.492-2.882.548-.645 1.378-1.283 2.292-1.902.937-.634 2.07-1.318 3.297-2.04.462-.273.938-.551 1.425-.836 4.056-2.37 8.843-5.167 12.331-8.423-9.697.95-33.396 6.089-33.396 12.286 0 6.872 5.571 12.442 12.443 12.442 0 0 46.689 3.627 72.267-.928 4.786-.852 5.875-4.347 5.955-10.706l.067-.008c.573-11.645-.574-21.011-3.525-25.624 0 0-9.577 10.516-20.025 11.726-4.771.552-7.917-.812-10.215-2.563-2.804-7.587-7.601-19.251-9.854-21.349-3.516-3.276-22.405 4.111-24.912 7.806zm1.854 30.642c-2.626 1.312-5.111 1.826-7.165 1.293a6.14 6.14 0 01-.588-.183c.316-.322.837-.735 1.591-1.245.859-.582 1.927-1.228 3.15-1.948.461-.272.944-.553 1.444-.845 4.234-2.469 9.695-5.655 13.522-9.479-.055.25-.15.557-.303.925-.688 1.661-2.252 3.871-4.375 6.033-2.11 2.147-4.676 4.149-7.276 5.449zm-8.041 1.466c.001 0 .006-.008.011-.022-.009.015-.012.022-.011.022z" class="Subtract_25" clip-rule="evenodd"/>
    <path fill="#000" fill-opacity=".16" fill-rule="evenodd" d="M473.887 469.699c-28.762-3.528-59.814-7.425-71.272-9.14-17.8-2.664-26.981-23.617-26.461-34.198-8.204 17.087-.136 30.727 8.03 37.77 6.923 5.971 16.043 6.879 21.814 7.202l57.478 4.502 32.727 2.587c-4.496-1.322-9.873-1.729-14.445-2.076h-.002a448.515 448.515 0 01-1.646-.127c-1.419-.112-2.737-.231-3.857-.391-1.093-.156-2.118-.366-2.893-.706-.712-.313-1.792-1.017-1.705-2.376.037-.57.286-1.059.564-1.447.283-.395.662-.778 1.102-1.154.183-.157.372-.305.566-.446zm5.82.713c-1.869.254-3.443.855-4.59 1.834a5.66 5.66 0 00-.448.422c.425.151 1.073.294 1.975.423 1.027.147 2.269.26 3.685.372.533.043 1.09.084 1.667.128h.001c4.888.366 11.192.839 16.308 2.601-.159-.2-.38-.434-.678-.698-1.346-1.193-3.719-2.495-6.575-3.509a33.107 33.107 0 00-.873-.296c-3.402-.414-6.907-.841-10.472-1.277zm21.64 7.179l-.025.092c.04.034.08.07.119.107a7.223 7.223 0 00-.094-.199zm-27.093-5.117l.005.003.014.012c-.015-.01-.02-.015-.019-.015z" class="Subtract_26" clip-rule="evenodd"/>
    <circle cx="555.105" cy="98.665" r="15.016" fill="#000" fill-opacity=".15" class="Ellipse 7_2"/>
  </g>
</svg>
