<svg xmlns="http://www.w3.org/2000/svg" width="801" height="600" fill="none" viewBox="0 0 801 600">
  <g class="guy_and_girl_in_the_kitchen_two">
    <path fill="#fff" d="M1 0h800v600H1z"/>
    <path fill="#FFF8E9" d="M1 0h624.737v489.65H1z" class="Rectangle 4"/>
    <path fill="#A8A8A8" d="M299.864 266.755c-10.502-8.116-36.136-6.432-47.64-4.576l-1.392 5.868c4.608 6.266 13.904 18.857 14.222 19.096.319.239 23.34-8.255 34.81-12.532v-7.856z" class="Vector 20"/>
    <path fill="#E3D6B8" d="M543.713 548.183V495.31l-395.797-.001-2.266 49.853 398.063 3.021z" class="Vector 24"/>
    <path fill="#9E9A91" fill-opacity=".1" fill-rule="evenodd" d="M340.417 180.989l2.625-4.155.068.117.005-.009c4.008 1.024 14.428 4.828 19.238 9.842 4.809 5.014 8.399 10.702 9.593 12.919l-.057.065.057.024-3.517 5.276c-10.053 19.182-33.154 48.847-45.505 39.03-15.457-12.285-3.014-28.891 4.738-39.237.509-.68.998-1.333 1.458-1.956-4.498 4.18-14.417 10.525-18.112 2.466-2.035-4.438 6.603-9.417 15.44-14.511 4.854-2.798 9.768-5.631 13.008-8.428l.961-1.443z" class="Union" clip-rule="evenodd"/>
    <path fill="#9E9A91" fill-opacity=".1" d="M554.69 154.371l15.691-32.083H313.289v32.083H554.69z" class="Vector 16.2"/>
    <g class="Group 34">
      <path fill="#C9BEA6" d="M372.784 206.398l4.988-5.755c-1.193-2.218-4.783-7.905-9.593-12.919-4.809-5.014-15.229-8.819-19.237-9.842l-3.778 5.666c2.899 1.237 10.89 4.969 15.597 8.141 4.707 3.172 9.977 11.128 12.023 14.709z" class="Vector 19.1"/>
      <path stroke="#C9BEA6" d="M349.227 180.672c3.498-5.745 2.896-15.722 0-15.722-5.843 0-2.663 15.258 0 15.722z" class="Vector 6"/>
      <g class="Group 9">
        <path fill="#B9A57F" d="M328.75 245.038c13.179 10.474 38.595-24 47.342-42.729-9.544 2.637-22.539-13.556-27.938-22.106-5.494 8.832-34.897 18.307-31.32 26.108 3.695 8.059 13.615 1.714 18.112-2.466-7.454 10.1-22.669 28.1-6.196 41.193z" class="Vector 6_2"/>
      </g>
      <path fill="#C9BEA6" d="M350.122 167.166l.253.967-.253-.967zm-5.819-6.364a1 1 0 10-1.996.121l1.996-.121zm10.45-23.222l-.991.135.001.003.002.014.007.056.029.224c.025.198.06.49.103.862.084.745.196 1.814.305 3.105.217 2.583.42 6.041.364 9.558-.055 3.531-.371 7.057-1.161 9.807-.81 2.82-2.005 4.452-3.543 4.854l.506 1.935c2.643-.691 4.117-3.304 4.959-6.237.863-3.002 1.182-6.735 1.239-10.328.057-3.606-.15-7.135-.371-9.757a114.007 114.007 0 00-.311-3.163c-.044-.381-.08-.68-.106-.885l-.03-.235a2.17 2.17 0 00-.008-.061l-.002-.016-.001-.004v-.002l-.991.135zm-4.884 28.618c-1.376.36-2.325.177-3.004-.195-.702-.385-1.236-1.04-1.637-1.823-.4-.781-.635-1.628-.768-2.296a9.96 9.96 0 01-.152-1.02l-.004-.052-.001-.011v-.001.001l-.998.062-.998.061v.011l.002.024.006.08a11.918 11.918 0 00.184 1.238c.154.772.436 1.812.949 2.814.512 1 1.286 2.024 2.456 2.666 1.194.654 2.68.845 4.471.376l-.506-1.935z" class="Vector 6_3"/>
      <g class="Group 33">
        <path fill="#E3D6B8" d="M333.291 127.026l-20.044-11.585v19.488l20.044 11.523v-19.426z" class="Vector 24.2"/>
        <path fill="#E3D6B8" d="M590.75 122.629l-20.044-7.089v19.488l20.044 11.522v-23.921z" class="Vector 24.3"/>
        <path fill="#E3D6B8" d="M313.247 115.54h257.459v19.391H313.247z" class="Rectangle 2.12"/>
        <path fill="#fff" d="M333.291 122.488H590.75v23.994H333.291z" class="Rectangle 2.10"/>
      </g>
      <path fill="#C9BEA6" fill-rule="evenodd" d="M348.008 164.715c.307-.126.747-.265 1.219-.265.544 0 .997.272 1.352.66.35.384.631.909.855 1.505.448 1.197.707 2.8.756 4.497.05 1.702-.11 3.531-.521 5.188-.409 1.648-1.078 3.172-2.081 4.216l-.721-.693c.833-.866 1.444-2.2 1.832-3.764.385-1.555.539-3.292.492-4.917-.048-1.63-.297-3.116-.694-4.176-.199-.531-.425-.927-.657-1.182-.228-.249-.432-.334-.613-.334-.957 0-1.113 0-1.596-.175.031-.141-.155-.294-.155-.294l.001-.001.004-.002.009-.006.032-.018a4.303 4.303 0 01.486-.239z" class="Vector 6.4 (Stroke)" clip-rule="evenodd"/>
      <path fill="#E3D6B8" d="M348.869 177.774l-3.705 5.863c1.194 2.218 4.784 7.905 9.593 12.919s15.23 8.819 19.238 9.842l3.777-5.666c-2.899-1.237-10.889-4.969-15.596-8.141-4.707-3.172-11.261-11.236-13.307-14.817z" class="Vector 19"/>
    </g>
    <path fill="#FFB877" d="M239.042 276.16c19.608-3.578 18.427-19.023 15.386-26.298 11.306 11.593 32.739 5.903 42.042 1.61-4.723 10.018 5.069 22.422 10.555 27.372-3.041 3.578-12.988 11.665-28.445 15.386-15.458 3.721-32.799-10.496-39.538-18.07z" class="Vector 17"/>
    <ellipse cx="393.075" cy="117.153" fill="#4A3D24" fill-opacity=".3" class="Ellipse 6" rx="20.379" ry="1.198"/>
    <g class="Group 46">
      <path stroke="#ECE4D3" d="M1 360.829h623.194" class="Vector 7"/>
      <path stroke="#ECE4D3" d="M1 358.86h623.194" class="Vector 7.2"/>
      <path stroke="#ECE4D3" d="M1 354.922h623.194" class="Vector 7.6"/>
      <path stroke="#ECE4D3" d="M1 352.954h623.194" class="Vector 7.8"/>
      <path stroke="#ECE4D3" d="M1 349.016h623.194" class="Vector 7.12"/>
      <path stroke="#ECE4D3" d="M1 347.047h623.194" class="Vector 7.14"/>
      <path stroke="#ECE4D3" d="M1 343.11h623.194" class="Vector 7.18"/>
      <path stroke="#ECE4D3" d="M1 341.141h623.194" class="Vector 7.20"/>
      <path stroke="#ECE4D3" stroke-width="4" d="M1 336.219h623.194" class="Vector 7.25"/>
      <path stroke="#ECE4D3" stroke-width="4" d="M1 366.163h623.194" class="Vector 7.26"/>
    </g>
    <g class="Group 44">
      <path fill="#E3D6B8" d="M53.55 459.254l571.642-1.972 15.3 13.535 14.32 11.377-601.261 61.195v-84.135z" class="Rectangle 8.2"/>
      <path fill="#FEFEFE" d="M53.551 482.616h585.061v87.465H53.551z" class="Rectangle 8.3"/>
      <g class="Group 43">
        <path stroke="#B8B1A1" d="M195.817 482.616v55.997" class="Vector 2"/>
        <path stroke="#B8B1A1" d="M379.891 482.616v55.998" class="Vector 2.1"/>
      </g>
    </g>
    <path fill="#FCFCFC" d="M191.451 285.57c18.273-7.06 34.884-17.027 55.233-17.027 2.076 6.922 10.299 20.764 26.578 20.764s27.27-9.966 30.73-14.95c24.917 4.652 40.56 16.335 45.266 21.595 14.286 16.943 20.903 59.524 24.502 81.81l-47.522 11.798-4.338-23.841c-2.326 16.279 8.685 100.578 12.56 128.54l-149.568 2.639c6.312-25.581 1.379-99.296-5.403-134.595l-8.728 15.459c-1.661-15.614-19.887-30.9-30.546-40.452 9.124-20.231 31.718-48.003 51.236-51.74z" class="Vector 13"/>
    <path fill="#E6DBC4" d="M538.06 572.086v-89.458l59.375 55.753v33.705H538.06z" class="Vector 18"/>
    <path fill="#D69962" d="M540.201 457.915c-36.297-.931-67.476-20.165-78.528-29.666l6.398-59.915 30.248 51.189 51.189 27.921c7.446-.93 36.065 14.349 49.444 22.105-6.205 5.041-21.988 13.844-35.483 8.725-13.496-5.119-21.135-15.706-23.268-20.359z" class="Vector 11"/>
    <path fill="#FFB877" d="M429.215 241.657c13.364-8.622 41.123-31.775 45.032-43.024l12.547 21.261c2.555 6.365 9.153 23.287 4.06 24.47-5.093 1.185-14.564 26.727-15.531 32.451l-16.353-13.487c-9.952-3.129-43.119-13.049-29.755-21.671z" class="Vector"/>
    <path fill="#FFB877" d="M500.224 159.995l49.649 44.008s-24.773 33.604-44.203 57.978c-32.821-9.967-38.49-66.577-38.49-66.577l33.044-35.409z" class="Vector_2"/>
    <path fill="#FEFEFE" d="M155.131 151.891v389.554H135.74V151.891z" class="Rectangle 2.1"/>
    <path fill="#D5C7A6" d="M1 170.947h135.644v367.805H1V170.947z" class="Rectangle"/>
    <path fill="#E3D6B8" d="M1 171.281h104.693V539.01H1V171.281z" class="Rectangle_2"/>
    <path fill="#fff" fill-opacity=".35" fill-rule="evenodd" d="M433.794 459.79c-31.029-2.065-67.334.984-67.334.984v11.343c-.572 11.273 13.403 28.325 25.914 36.314v73.082h68.79V460.731s-.287-.815-27.37-.941z" class="Union_2" clip-rule="evenodd"/>
    <path fill="#B7AB8D" d="M1 488.982h104.16l32.191 10.341L1 500.31v-11.328z" class="Rectangle_3"/>
    <path fill="#FEFEFE" d="M1 498.891h154.45v19.391H1z" class="Rectangle 2.8"/>
    <path fill="#B7AB8D" d="M1 315.369h104.16l32.191 10.34L1 326.696v-11.327z" class="Rectangle_4"/>
    <g class="Group 3.1">
      <path fill="#E6E6E6" d="M34.821 263.786h23.91v12.289c0 6.603-5.352 11.955-11.955 11.955-6.602 0-11.955-5.352-11.955-11.955v-12.289z" class="Rectangle 4_2"/>
      <path fill="#E6E6E6" d="M45.339 285.386h2.875v33.501h-2.875z" class="Rectangle 5"/>
      <path fill="#E6E6E6" d="M36.915 320.31c0-1.048.85-1.898 1.899-1.898h15.924c1.05 0 1.9.85 1.9 1.898v.66H36.914v-.66z" class="Rectangle 6"/>
    </g>
    <g class="Group 3.6">
      <path fill="#E6E6E6" d="M2.752 263.786h23.91v12.289c0 6.603-5.353 11.955-11.955 11.955-6.603 0-11.955-5.352-11.955-11.955v-12.289z" class="Rectangle 4_3"/>
      <path fill="#E6E6E6" d="M13.27 285.386h2.875v33.501H13.27z" class="Rectangle 5_2"/>
      <path fill="#E6E6E6" d="M4.846 320.31c0-1.048.85-1.898 1.899-1.898h15.924c1.049 0 1.899.85 1.899 1.898v.66H4.846v-.66z" class="Rectangle 6_2"/>
    </g>
    <path fill="#F3ECDD" fill-rule="evenodd" d="M724.182 538.752H1V600v-16.554h799.704l-66.179-44.694h-10.343z" class="Subtract" clip-rule="evenodd"/>
    <g class="Group 3.5">
      <path fill="#E6E6E6" d="M69.11 263.786h23.909v12.289c0 6.603-5.352 11.955-11.955 11.955-6.602 0-11.955-5.352-11.955-11.955v-12.289z" class="Rectangle 4_4"/>
      <path fill="#E6E6E6" d="M79.627 285.386h2.875v33.501h-2.875z" class="Rectangle 5_3"/>
      <path fill="#E6E6E6" d="M71.203 320.31c0-1.048.85-1.898 1.899-1.898h15.924c1.05 0 1.9.85 1.9 1.898v.66H71.202v-.66z" class="Rectangle 6_3"/>
    </g>
    <path fill="#F7FAFF" fill-opacity=".81" fill-rule="evenodd" d="M17.898 260.74h25.183v12.944c0 6.442-4.837 11.753-11.077 12.501v32.09h6.872a2 2 0 012 2v.695H20.104v-.695a2 2 0 012-2h6.872v-32.09c-6.24-.748-11.078-6.059-11.078-12.501V260.74z" class="Union_3" clip-rule="evenodd"/>
    <path fill="#F7FAFF" fill-opacity=".81" fill-rule="evenodd" d="M53.347 260.74H78.53v12.944c0 6.442-4.838 11.753-11.078 12.501v32.09h6.873a2 2 0 012 2v.695H55.552v-.695a2 2 0 012-2h6.872v-32.09c-6.24-.748-11.077-6.059-11.077-12.501V260.74z" class="Union_4" clip-rule="evenodd"/>
    <path fill="#F7FAFF" fill-opacity=".81" fill-rule="evenodd" d="M83.873 260.74h25.183v12.944c0 6.442-4.837 11.753-11.078 12.501v32.09h6.873a2 2 0 012 2v.695H86.078v-.695a2 2 0 012-2h6.873v-32.09c-6.24-.748-11.078-6.059-11.078-12.501V260.74z" class="Union_5" clip-rule="evenodd"/>
    <path fill="#FEFEFE" d="M1 325.391h154.45v19.391H1z" class="Rectangle 2.7"/>
    <path fill="#BEBEBE" d="M23.576 487.654h74.589c0 1.469 0 2.203-.135 2.811-.802 3.61-13.04 4.446-16.205 4.446h-41.91c-3.164 0-14.792-1.762-16.204-4.446-.135-.608-.135-1.342-.135-2.811z" class="Rectangle 4_5"/>
    <g class="Ellipse">
      <path fill="#DBDBDB" d="M117.783 488.259c0 2.016-25.48 3.65-56.912 3.65s-56.913-1.634-56.913-3.65c0-.815 4.163-1.568 11.2-2.175 10.37-.895 26.985-1.476 45.713-1.476 17.098 0 32.434.484 42.867 1.25 8.746.641 14.045 1.481 14.045 2.401z"/>
      <path fill="#DBDBDB" d="M3.958 488.259c0-.815 4.163-1.568 11.2-2.175l-11.2.028v2.147zM103.738 485.858c8.746.641 14.045 1.481 14.045 2.401v-2.42h-6.634l-7.411.019z"/>
    </g>
    <ellipse cx="60.871" cy="486.038" fill="#fff" class="Ellipse_2" rx="56.913" ry="3.65"/>
    <g class="Ellipse_3">
      <path fill="#DBDBDB" d="M117.783 483.35c0 2.016-25.48 3.651-56.912 3.651s-56.913-1.635-56.913-3.651c0-.814 4.163-1.567 11.2-2.174 10.37-.896 26.985-1.476 45.713-1.476 17.098 0 32.434.484 42.867 1.249 8.746.642 14.045 1.482 14.045 2.401z"/>
      <path fill="#DBDBDB" d="M3.958 483.35c0-.814 4.163-1.567 11.2-2.174l-11.2.028v2.146zM103.738 480.949c8.746.642 14.045 1.482 14.045 2.401v-2.42h-6.634l-7.411.019z"/>
    </g>
    <ellipse cx="60.871" cy="481.129" fill="#fff" class="Ellipse_4" rx="56.913" ry="3.65"/>
    <g class="Ellipse_5">
      <path fill="#DBDBDB" d="M117.783 477.765c0 2.016-25.48 3.651-56.912 3.651s-56.913-1.635-56.913-3.651c0-.814 4.163-1.567 11.2-2.174 10.37-.896 26.985-1.476 45.713-1.476 17.098 0 32.434.484 42.867 1.249 8.746.642 14.045 1.482 14.045 2.401z"/>
      <path fill="#DBDBDB" d="M3.958 477.765c0-.814 4.163-1.567 11.2-2.174l-11.2.028v2.146zM103.738 475.364c8.746.642 14.045 1.482 14.045 2.401v-2.42h-6.634l-7.411.019z"/>
    </g>
    <ellipse cx="60.871" cy="475.545" fill="#fff" class="Ellipse_6" rx="56.913" ry="3.65"/>
    <g class="Ellipse_7">
      <path fill="#DBDBDB" d="M117.783 472.182c0 2.016-25.48 3.651-56.912 3.651s-56.913-1.635-56.913-3.651c0-.814 4.163-1.567 11.2-2.174 10.37-.896 26.985-1.476 45.713-1.476 17.098 0 32.434.484 42.867 1.249 8.746.642 14.045 1.482 14.045 2.401z"/>
      <path fill="#DBDBDB" d="M3.958 472.182c0-.814 4.163-1.567 11.2-2.174l-11.2.028v2.146zM103.738 469.781c8.746.642 14.045 1.482 14.045 2.401v-2.42h-6.634l-7.411.019z"/>
    </g>
    <ellipse cx="60.871" cy="469.962" fill="#fff" class="Ellipse_8" rx="56.913" ry="3.65"/>
    <g class="Ellipse_9">
      <path fill="#DBDBDB" d="M117.783 466.6c0 2.016-25.48 3.651-56.912 3.651S3.958 468.616 3.958 466.6c0-.814 4.163-1.567 11.2-2.174 10.37-.896 26.985-1.476 45.713-1.476 17.098 0 32.434.484 42.867 1.249 8.746.642 14.045 1.482 14.045 2.401z"/>
      <path fill="#DBDBDB" d="M3.958 466.6c0-.814 4.163-1.567 11.2-2.174l-11.2.028v2.146zM103.738 464.199c8.746.642 14.045 1.482 14.045 2.401v-2.42h-6.634l-7.411.019z"/>
    </g>
    <path fill="#F3ECDD" d="M538.053 482.635l115.572-1.613 133.904 93.986-190.27-36.302-59.206-56.071z" class="Vector_3"/>
    <path fill="#7E7460" d="M591.632 509.347h71.437l35.999 22.825h-70.324l-37.112-22.825z" class="Vector 6_4"/>
    <path fill="#C1B8A6" d="M676.968 531.727l-34.859-22.411h42.437l29.904 22.411h-37.482z" class="Vector 7_2"/>
    <path fill="#464646" d="M650.698 502.355l10.893-.217a35.997 35.997 0 0119.479 5.27l27.691 16.911c3.448 2.106 1.955 7.414-2.085 7.414h-21.404a4 4 0 01-2.107-.6l-34.494-21.379c-3.388-2.1-1.957-7.32 2.027-7.399z" class="Vector_4"/>
    <g class="Group 17">
      <g class="Group 2">
        <path fill="#1A1A1A" d="M664.593 492.209c0-5.276 4.277-4.063 9.554-4.063 5.276 0 9.554 5.728 9.554 11.005v8.638h-13.279l-5.829-4.686v-10.894z" class="Rectangle 5_4"/>
        <path fill="#393939" d="M664.593 487.831l12.439.001 6.669 3.856v13.317h-13.279l-5.829-4.686v-12.488z" class="Rectangle 5.1"/>
      </g>
      <rect width="4.698" height="9.383" x="671.217" y="482.191" fill="#2D2D2D" class="Rectangle 4_6" rx="1"/>
      <path fill="#E2E2E2" d="M666.479 482.648c0-1.347.918-2.438 2.05-2.438h10.074c1.132 0 2.049 1.091 2.049 2.438 0 1.346-.917 2.437-2.049 2.437h-10.074c-1.132 0-2.05-1.091-2.05-2.437z" class="Rectangle 7"/>
    </g>
    <rect width="14.844" height="12.171" x="628.495" y="423.408" fill="#FBFBFB" class="Rectangle 5_5" rx="3"/>
    <path fill="#000" fill-opacity=".06" fill-rule="evenodd" d="M631.128 423.43c.24 3.84.932 7.95 2.561 8.75 2.14 1.051 6.184 2.152 8.55 2.72a2.983 2.983 0 01-1.899.678h-8.845a3 3 0 01-3-3v-6.171a3 3 0 012.633-2.977z" class="Intersect" clip-rule="evenodd"/>
    <ellipse cx="60.871" cy="464.38" fill="#fff" class="Ellipse_10" rx="56.913" ry="3.65"/>
    <g class="Ellipse_11">
      <path fill="#DBDBDB" d="M117.783 461.017c0 2.016-25.48 3.651-56.912 3.651s-56.913-1.635-56.913-3.651c0-.814 4.163-1.567 11.2-2.174 10.37-.896 26.985-1.476 45.713-1.476 17.098 0 32.434.484 42.867 1.249 8.746.642 14.045 1.482 14.045 2.401z"/>
      <path fill="#DBDBDB" d="M3.958 461.017c0-.814 4.163-1.567 11.2-2.174l-11.2.028v2.146zM103.738 458.616c8.746.642 14.045 1.482 14.045 2.401v-2.42h-6.634l-7.411.019z"/>
    </g>
    <ellipse cx="60.871" cy="458.797" fill="#fff" class="Ellipse_12" rx="56.913" ry="3.65"/>
    <g class="Ellipse_13">
      <path fill="#DBDBDB" d="M117.783 455.435c0 2.016-25.48 3.651-56.912 3.651s-56.913-1.635-56.913-3.651c0-.814 4.163-1.567 11.2-2.174 10.37-.896 26.985-1.476 45.713-1.476 17.098 0 32.434.484 42.867 1.249 8.746.642 14.045 1.482 14.045 2.401z"/>
      <path fill="#DBDBDB" d="M3.958 455.435c0-.814 4.163-1.567 11.2-2.174l-11.2.028v2.146zM103.738 453.034c8.746.642 14.045 1.482 14.045 2.401v-2.42h-6.634l-7.411.019z"/>
    </g>
    <ellipse cx="60.871" cy="453.215" fill="#fff" class="Ellipse_14" rx="56.913" ry="3.65"/>
    <g class="Ellipse_15">
      <path fill="#DBDBDB" d="M117.783 449.852c0 2.016-25.48 3.651-56.912 3.651s-56.913-1.635-56.913-3.651c0-.814 4.163-1.567 11.2-2.174 10.37-.896 26.985-1.476 45.713-1.476 17.098 0 32.434.484 42.867 1.249 8.746.642 14.045 1.482 14.045 2.401z"/>
      <path fill="#DBDBDB" d="M3.958 449.852c0-.814 4.163-1.567 11.2-2.174l-11.2.028v2.146zM103.738 447.451c8.746.642 14.045 1.482 14.045 2.401v-2.42h-6.634l-7.411.019z"/>
    </g>
    <ellipse cx="60.871" cy="447.632" fill="#fff" class="Ellipse_16" rx="56.913" ry="3.65"/>
    <path fill="#FEFEFE" d="M.682 151.891h154.45v19.391H.682z" class="Rectangle 2.6"/>
    <path fill="#FFB877" d="M369.963 432.794c5.475-4.558-.642-37.322-2.912-53.399l-36.425 8.856c2.081 10.308 5.388 30.227 3.021 35.18-13.723 28.707 19.934 23.002 36.316 9.363z" class="Vector 9"/>
    <path fill="#FFB877" d="M107.239 405.317c-8.855-3.655 30.844-53.944 42.661-69.51l28.487 25.361-28.487 39.104c7.605 15.861-7.543 19.54-42.661 5.045z" class="Vector 8.3"/>
    <path fill="#D69962" d="M236.138 403.626c-5.432 1.253-17.018 5.597-18.634 9.723l14.948 5.429c.724-1.858 9.118-16.406 3.686-15.152z" class="Vector 12"/>
    <path fill="#D69962" d="M235.962 412.186c5.278-1.796 18.406-4.582 20.961-1.549l-9.847 12.488c-1.594-1.198-16.391-9.144-11.114-10.939z" class="Vector 12.1"/>
    <path fill="#D69962" d="M247.12 441.721c5.182.678 16.386 3.683 18.266 7.387l-13.457 6.418c-.843-1.667-9.991-14.483-4.809-13.805z" class="Vector 12.2"/>
    <rect width="7.031" height="27.718" x="232.265" y="199.513" fill="#FFB877" class="Rectangle 6_4" rx="3.515" transform="rotate(-8.624 232.265 199.513)"/>
    <rect width="7.031" height="27.718" fill="#FFB877" class="Rectangle 6.1" rx="3.515" transform="scale(-1 1) rotate(-9.566 1066.805 2056.03)"/>
    <path fill="#D69962" d="M246.797 451.011c-5.221-.23-17.767.713-19.269 4.113l12.142 8.651c1.12-1.497 12.349-12.535 7.127-12.764z" class="Vector 12.3"/>
    <path fill="#7A705E" fill-rule="evenodd" d="M233.837 389.829a3.346 3.346 0 00-2.805 3.812l.283 1.867 14.063-2.137-.284-1.868a3.345 3.345 0 00-3.811-2.805l-7.446 1.131z" class="Subtract_2" clip-rule="evenodd"/>
    <path fill="#fff" fill-rule="evenodd" d="M274.688 281.372c-11.691-.98-22.822-19.538-22.822-19.538s-11.609 12.022-16.549 13.463c-.997.291 7.892 15.686 16.549 20.049 16.911 13.792 59.42-3.914 60.405-16.885-4.432-2.298-12.135-11.866-12.135-11.866s-13.996 15.737-25.448 14.777z" class="Union_6" clip-rule="evenodd"/>
    <g class="Group 9.25">
      <path stroke="#3F6580" stroke-linecap="round" stroke-width=".997" d="M222.974 463.57l6.809 4.64" class="Vector 9.2"/>
      <path stroke="#3F6580" stroke-linecap="round" stroke-width=".997" d="M225.294 460.165l6.809 4.64" class="Vector 9.3"/>
    </g>
    <path fill="#424242" fill-rule="evenodd" d="M239.605 292.707l-5.877-6.044-2.296 8.111 8.173-2.067zm80.065 3.172a.498.498 0 01.53-.465l8.222.535a.5.5 0 01-.064.995l-8.223-.535a.498.498 0 01-.465-.53zm-129.649 1.054a.498.498 0 01.53-.465l8.223.535a.499.499 0 01-.065.995l-8.223-.535a.499.499 0 01-.465-.53zm.263 3.646a.498.498 0 10-.065.995l8.223.535a.498.498 0 10.065-.995l-8.223-.535zm166.821 55.771a.5.5 0 01.705.024l4.048 4.335a.498.498 0 11-.729.68l-4.048-4.334a.5.5 0 01.024-.705zm-1.462 2.049a.5.5 0 00-.729.68l4.048 4.335a.5.5 0 00.729-.681l-4.048-4.334zm-54.434 10.036a.498.498 0 01.53-.465l8.223.535a.498.498 0 11-.065.995l-8.223-.535a.499.499 0 01-.465-.53zm.263 3.646a.498.498 0 10-.065.995l8.223.535a.498.498 0 10.065-.995l-8.223-.535zm-31.294 63.156a.5.5 0 01.53-.466l8.222.535a.499.499 0 01-.064.996l-8.223-.536a.497.497 0 01-.465-.529zm-.267 4.111a.497.497 0 01.529-.465l8.223.535a.498.498 0 11-.065.995l-8.222-.535a.498.498 0 01-.465-.53zm44.845 33.555a.499.499 0 00-.065.995l8.223.536a.5.5 0 00.065-.996l-8.223-.535zm-.262-3.646a.497.497 0 01.529-.465l8.223.535a.498.498 0 11-.065.995l-8.222-.535a.498.498 0 01-.465-.53zm5.439-169.732a.5.5 0 00-.065.995l8.223.536a.499.499 0 00.064-.996l-8.222-.535zm-127.432 76.687a.498.498 0 10-.727.683l5.643 6.004a.498.498 0 10.727-.683l-5.643-6.004zm2.297-2.845a.498.498 0 01.704.022l5.644 6.004a.5.5 0 01-.727.683l-5.643-6.004a.498.498 0 01.022-.705zm75.975-53.36a.498.498 0 00-.954-.291l-2.406 7.881a.498.498 0 10.953.291l2.407-7.881zm3.609.58a.498.498 0 01.331.623l-2.406 7.881a.499.499 0 01-.954-.292l2.407-7.88a.498.498 0 01.622-.332zm64.705 14.393l-5.877-6.044-2.296 8.112 8.173-2.068zm-51.596 75.061l5.877 6.044-8.173 2.067 2.296-8.111z" class="Union_7" clip-rule="evenodd"/>
    <path fill="#D69962" d="M595.472 479.536c-6.816 2.793-20.169 0-26.37-2.235l6.201-5.126 25.979 4.12s-5.04 2.925-5.81 3.241z" class="Vector 13_2"/>
    <path fill="#BEBEBE" d="M544.001 460.419l81.417 12.584c-.248 1.603-.372 2.404-.622 3.045a6.268 6.268 0 01-5.432 3.978c-.687.045-1.488-.079-3.091-.327l-65.575-10.135c-1.603-.247-2.405-.371-3.046-.621a6.271 6.271 0 01-3.978-5.433c-.045-.686.079-1.488.327-3.091z" class="Rectangle 4_7"/>
    <g class="Ellipse_17">
      <path fill="#DBDBDB" d="M646.348 479.451c-.34 2.2-28.43-.314-62.739-5.617-34.31-5.303-61.847-11.386-61.507-13.586.137-.89 4.808-1.009 12.591-.485 11.473.773 29.706 2.942 50.148 6.102 18.663 2.884 35.322 6 46.581 8.595 9.438 2.177 15.081 3.987 14.926 4.991z"/>
      <path fill="#DBDBDB" d="M522.102 460.248c.137-.89 4.808-1.009 12.591-.485l-12.229-1.858-.362 2.343zM631.422 474.46c9.438 2.177 15.081 3.987 14.926 4.991l.408-2.642-7.242-1.119-8.092-1.23z"/>
    </g>
    <ellipse cx="584.599" cy="467.425" fill="#fff" class="Ellipse_18" rx="62.861" ry="4.032" transform="rotate(8.786 584.599 467.425)"/>
    <path fill="#DBDBDB" d="M623.824 472.689c.852.197.659 1.317-.211 1.22-9.846-1.1-25.599-2.97-39.481-5.116-13.931-2.153-28.726-5.008-37.807-6.834-.852-.172-.703-1.279.164-1.214 9.254.686 24.3 2.011 38.243 4.166 13.893 2.147 29.423 5.541 39.092 7.778z" class="Ellipse_19"/>
    <path fill="#D5E8FD" d="M628.04 473.345c.794.233.598 1.277-.227 1.212-5.573-.439-14.488-1.252-22.311-2.461-7.851-1.213-16.152-3.065-21.238-4.274-.796-.19-.673-1.222.145-1.211 5.259.068 13.821.386 21.693 1.602 7.841 1.212 16.543 3.555 21.938 5.132z" class="Ellipse_20"/>
    <path fill="#174B88" d="M608.52 470.631c-10.217 1.684-15.685 8.153-17.142 11.177-4.643 5.572 9.191 8.595 11.225 6.774 1.418-1.269 7.614.363 11.239 1.469 1.713.522 3.568.39 5.153-.442l5.205-2.733s5.567-7.741 14.698-7.235c9.131.507 7.919-2.317 9.097-7.7 1.177-5.384-4.625-5.354-9.386-8.254-4.76-2.901-11.205-7.125-19.558-8.642-8.352-1.518 2.241 13.482-10.531 15.586z" class="Vector 13_3"/>
    <path fill="#FFB877" d="M239.965 486.86c21.524 9.77 18.096-1.416 34.937-4.735 1.531-.301 6.245-4.574 11.256-6.399 25.91-9.435 87.116-37.18 83.625-45.915-11.426-28.59-33.443-15.675-40.636-12.602-3.671 1.568-29.673 21.933-51.497 35.958-3.618 2.325-9.225 2.616-9.225 2.616l-1.817-6.789c-1.737-2.582-4.74-4.561-7.548-3.218l-12.692 11c-4.03 1.591-10.46 2.948-10.46 2.948s3.659 8.005 2.97 14.04c5.212 8.452 1.164 6.507 1.087 13.096z" class="Vector 8.2"/>
    <path fill="#F0A968" d="M227.429 455.384c.182-.772 1.19-.997 1.861-.574 1.937 1.221 6.132 3.12 13.449 3.078 1.388 1.293 2.933 4.114 1.742 7.388.794 1.297 3.481 4.55 1.314 7.617 1.539 2.153 2.958 4.34 1.578 7.41.428 2.194 1.488 2.495 1.816 4.218.616 3.227 1.135 6.016 1.135 6.016-5.486-.911-9.387-2.493-12.966-4.564l-4.873-7.815c-2.019-3.047-2.019-4.716-.625-7.668-1.574-1.336-4.754-7.495-2.39-8.185-1.231-2.466-2.719-4.043-2.041-6.921z" class="Vector 12.4"/>
    <path fill="#FFB877" d="M248.379 450.814c-21.846 12.588-19.359.359-37.58-1.431-1.657-.163-7.101-4.214-12.61-5.635-28.48-7.351-96.319-30.51-93.511-40.144 9.189-31.53 33.894-20.084 41.848-17.562 4.059 1.288 33.76 20.234 58.375 32.879 4.08 2.095 10.063 1.827 10.063 1.827l2.256-7.282a6.694 6.694 0 018.179-3.106l17.402 7.922c4.443 1.275 7.093 3.305 7.093 3.305s5.702 9.635 7.055 15.972c-4.665 9.51-1.441 9.147-8.57 13.255z" class="Vector 8.1"/>
    <path fill="#F0A968" fill-rule="evenodd" d="M127.756 398.859c8.502 16.599 68.633 36.96 82.468 21.613 2.596.372 4.741.276 4.741.276l2.256-7.282c.031-.058.063-.116.096-.173 1.936-1.355 4.032-2.448 6.167-3.328a6.658 6.658 0 011.915.395l17.402 7.922c1.09.313 2.073.671 2.935 1.034l4.433 30.422c-.511.325-1.102.68-1.79 1.076-13.954 8.041-17.98 5.956-23.817 2.934-3.3-1.709-7.18-3.718-13.763-4.365-.673-.066-1.972-.774-3.645-1.687-2.446-1.333-5.694-3.104-8.965-3.949-28.479-7.35-96.318-30.509-93.511-40.143 1.667-5.719 3.845-10.025 6.34-13.226 8.447-14.85 25.449-37.032 35.066-49.58 1.461-1.905 2.751-3.589 3.816-4.991 0 0 22.751 5.623 16.067 7.305-27.754 6.983-49.885 32.955-38.211 55.747z" class="Union_8" clip-rule="evenodd"/>
    <path fill="#FCFCFC" fill-rule="evenodd" d="M164.01 303.078l19.164 57.692-.349 23.151c-1.008-8.012-2.135-15.366-3.336-21.618l-8.728 15.459c-1.557-14.641-17.679-28.993-28.47-38.599a828.118 828.118 0 01-2.076-1.852c4.9-10.867 13.687-23.909 23.795-34.233z" class="Subtract_3" clip-rule="evenodd"/>
    <path fill="#DBDBDB" d="M571.341 217.418v-17.557h7.949l1.94.862h-1.94v16.695h-5.911l.005.651-2.043-.651z" class="Vector_5"/>
    <path fill="#424242" fill-rule="evenodd" d="M316.727 151.694c4.418-4.668 9.591-13.675-.482-25.822-10.962-13.218-49.079-10.952-48.931-1.17.073 4.815-1.755 7.224-3.336 9.309-2.325 3.064-4.117 5.426 1.439 13.695-7.585-1.296-13.926 2.877-19.788 10.375-2.18 2.789-4.401 5.268-6.459 7.565-5.245 5.857-9.431 10.531-9.177 16.12.006.134.016.27.031.408-.646 4.28-.175 15.434 2.619 16.889.382.199.743.382 1.085.556l.002.001c3.121 1.584 4.732 2.402 7.261 7.574.181.371.361.706.538 1.006.689 6.076 2.008 12.511 4.1 11.047 2.83-1.981 3.537-5.07 3.537-6.367l2.296-6.721 3.317 11.646c21.581 6.495 38.863 8.061 58.805 1.442l3.074-13.088v13.088c2.275.212 2.884-1.313 3.68-3.303.977-2.445 2.235-5.593 7.208-7.085 6.669-2 7.531-24.075 3.333-32.835a387.34 387.34 0 01-2.415-5.169l-.001-.001c-3.563-7.724-6.87-14.892-11.736-19.16zm207.612 45.363l-12.012-11.332c-4.87 1.022-8.913 10.72-10.716 17.932l-10.417-5.705c3.159-6.763 1.737-16.417-6.687-14.437-5.313 1.25-5.47 9.146-5.625 16.982-.092 4.585-.182 9.15-1.306 12.349-3.043 8.664-12.712 4.777-16.827 2.962-4.115-1.818-8.11-5.261-9.933-14.825-2.738-14.364 7.124-26.478 16.331-37.788 4.285-5.263 8.427-10.352 11.093-15.412 6.713-12.748 20.312-4.239 18.652 2.846 3.3-14.129 24.946-37.152 39.41-31.77 5.029 2.637 13.73 9.912 12.543 18.674 16.771-.635 31.343 4.117 32.218 23.693.114 2.553-.555 5.378-1.781 8.34 2.27 1.213 3.893 3.264 4.517 6.422 2.834 14.323-25.463 27.893-37.724 32.793 0 0-10.293-1.891-21.736-11.724zM366.46 460.823h-7.165c1.262-6.978 2.28-14.707 3.146-22.948 2.72-1.5 5.282-3.216 7.522-5.081 4.649-3.871.938-28.088-1.677-45.149a762.68 762.68 0 01-1.231-8.218l6.704-1.665-.232-1.439c-1.149-7.13-2.596-16.098-4.474-25.557 2.981-32.913 7.791-62.459 18.784-77.173 20.516-27.46 34.472-35.461 46.878-42.573a289.52 289.52 0 005.574-3.25l39.376 39.935-1.447 9.972c13.72 21.334 23.657 65.337 27.663 90.658l-34.047 11.563-4.345 80.925h-6.325v77.929h-68.79v-30.321c-12.511-7.989-26.486-25.04-25.914-36.314v-11.294zm-43.513 34.369H195.212v44.013h127.735v-44.013zm-63.42-111.44l5.877 6.044-8.173 2.067 2.296-8.111zm79.928-13.817l-8.266-1.657 2.698 7.987 5.568-6.33zm-49.582-68.748l8.266 1.657-5.568 6.33-2.698-7.987zm-49.074 38.591l-8.266-1.657 2.698 7.987 5.568-6.33zm-56.364-1.657l8.266 1.657-5.568 6.33-2.698-7.987zm20.271 136.05l-8.266-1.658 2.698 7.987 5.568-6.329zm-.955-69.071l4.103 7.365-8.43-.13 4.327-7.235zm-49.06-70.364l-2.559-8.033-5.677 6.233 8.236 1.8zm160.734 77.691l5.877 6.045-8.173 2.067 2.296-8.112zm218.73-186.71a1.085 1.085 0 00-1.919-1.01c-1.939 3.688-1.915 7.259-1.69 9.946.045.549.096 1.036.142 1.474v.002c.072.687.132 1.256.141 1.765.007.397-.024.64-.066.782a.776.776 0 01-.025.068l-.002.005c-.238.136-.705.251-1.426.276-.706.024-1.515-.041-2.3-.146a27.162 27.162 0 01-2.671-.5l-.169-.041-.042-.011-.01-.003h-.001a1.084 1.084 0 00-.548 2.098l.022-.082-.021.082v.001h.002l.004.001.014.004.052.013.191.047c.108.025.245.058.408.094l.275.06c.571.122 1.355.273 2.207.387.846.113 1.787.193 2.662.163.838-.029 1.777-.163 2.5-.603.524-.32.809-.804.955-1.289.138-.46.165-.966.157-1.444-.011-.592-.087-1.329-.166-2.1v-.002a59.801 59.801 0 01-.124-1.282c-.213-2.539-.205-5.613 1.448-8.755zm-3.427 13.046l.003-.005-.003.005zm-43.986 9.884s-9.384-12.772-12.058-22.403c.307 9.789 5.489 36.066 5.489 36.066 1.47-3.55 6.569-13.663 6.569-13.663zm27.672 2.089c-5.192-4.01-4.978-9.551-4.012-11.706l1.978.887c-.599 1.338-.958 5.769 3.36 9.103l-1.326 1.716zm-239.962-24.833a.985.985 0 111.968-.079c.18 4.524-1.645 8.107-3.239 10.725-.32.525-.618.994-.889 1.419l-.001.001v.001c-.433.679-.797 1.25-1.07 1.774-.216.411-.318.695-.35.885a.412.412 0 00-.007.144l.001.005c.196.271.672.61 1.464.954.757.329 1.666.607 2.562.831.891.224 1.743.388 2.374.496a37.802 37.802 0 00.955.15l.051.007.012.002h.003a.985.985 0 01-.251 1.953l.005-.043-.005.043h-.002l-.005-.001-.016-.002-.061-.008-.081-.011-.071-.011-.071-.01a35.265 35.265 0 01-3.316-.654c-.948-.238-1.972-.546-2.868-.936-.859-.373-1.754-.885-2.275-1.605-.375-.519-.428-1.102-.341-1.627.083-.499.3-1.002.547-1.475.308-.589.753-1.288 1.226-2.032.263-.415.536-.843.798-1.274 1.534-2.518 3.11-5.689 2.953-9.622zm.568 33.108c4.448 0 7.529-4.502 8.527-6.528l-1.893-.245c-.119 1.195-3.5 4.719-6.634 4.719-3.135 0-6.327-3.524-6.445-4.719l-1.942.245c.614 1.766 3.938 6.528 8.387 6.528zm21.65 6.041c-.316-1.293-.707-3.04-.707-3.04s-10.906 10.72-19.501 10.521c-9.601-.221-20.229-14.107-20.229-14.107s.034 2.135 0 3.239a3326.889 3326.889 0 0014.597 12.964 7.098 7.098 0 004.641 1.776 6.938 6.938 0 003.379-.835c3.298-1.791 11.163-6.15 17.82-10.518z" class="Secondary" clip-rule="evenodd"/>
    <path fill="#F3F3F3" d="M573.273 218.191v-17.558h7.949v17.558h-7.949z" class="Vector_6"/>
    <path fill="#DBDBDB" fill-rule="evenodd" d="M578.284 222.503v-10.377l-1.998.077v10.378c.107 2.764 3.581 3.923 5.326 1.775l1.943-2.392a.999.999 0 10-1.552-1.261l-1.943 2.392c-.582.716-1.74.33-1.776-.592z" class="Vector 6.4 (Stroke)_2" clip-rule="evenodd"/>
    <path stroke="#C9BEA6" stroke-width="2" d="M580.237 238.368c3.499-5.745 2.366-15.908-.531-15.908-5.843 0-2.132 15.444.531 15.908z" class="Vector 6.4"/>
    <path fill="#C9BEA6" fill-rule="evenodd" d="M579.018 222.411c.306-.126.747-.265 1.219-.265.543 0 .997.272 1.351.66.351.384.632.908.856 1.505.448 1.197.707 2.8.756 4.497.05 1.702-.11 3.531-.521 5.188-.409 1.648-1.078 3.172-2.082 4.216l-.721-.693c.833-.867 1.444-2.201 1.832-3.764.386-1.555.54-3.292.493-4.918-.048-1.63-.297-3.115-.694-4.175-.199-.532-.425-.927-.657-1.182-.228-.25-.432-.334-.613-.334-.957 0-1.113 0-1.596-.175.031-.141-.156-.294-.156-.294l.002-.001.003-.002.01-.006.031-.019.11-.06a4.03 4.03 0 01.377-.178z" class="Vector 6.4 (Stroke)_3" clip-rule="evenodd"/>
    <path fill="#DBDBDB" fill-rule="evenodd" d="M580.74 225.106c1.406-1.221 1.839-1.912 2.815-3.142a1 1 0 10-1.552-1.261l-2.298 2.778c-.867 2.075 1.035 1.625 1.035 1.625z" class="Vector 6.4 (Stroke)_4" clip-rule="evenodd"/>
    <path fill="#C1B8A6" d="M642.437 532.209v-22.854h-60.428l25.501 22.854h34.927z" class="Vector 7_3"/>
    <path fill="#D0C6B4" d="M607.272 531.734h107.123l1.043.821-109.489.488 1.323-1.309z" class="Rectangle 5_6"/>
    <path fill="#D0C6B4" d="M607.365 531.774l-25.322-22.47-1.445.685 25.352 23.042 1.415-1.257z" class="Vector 8"/>
    <g class="Group 48">
      <path fill="#D1D95E" d="M234.006 531.553c-1.396 9.917 23.882 18.517 25.133 18.797l6.99-3.808c1.362-1.702 4.764-5.726 7.484-8.196 3.399-3.088-.204-6.646-4.765-8.968s-4.082-6.264-2.636-9.66c1.446-3.397-1.487-6.604-4.74-7.029-3.253-.426-1.23-4.688-.294-8.769.936-4.08-6.62-4.085-11.01-3.067-4.389 1.018-6.282-5.23-10.766-6.907-4.484-1.678-5.2 4.068-3.882 6.235 1.317 2.166-1.004 5.2-4.74 7.921-3.736 2.722.639 10.217 5.199 13.455 4.996 3.547-1.3 5.218-1.973 9.996z" class="Vector 6_5"/>
      <path fill="#C6D303" d="M230.882 527.746c1.495 6.351-13.521 14.796-14.273 15.118l-4.549-1.723c-.947-.966-3.301-3.228-5.134-4.547-2.291-1.649-.301-4.382 2.359-6.412 2.66-2.029 2.112-4.561 1.004-6.629-1.108-2.069.493-4.498 2.469-5.137 1.976-.64.457-3.212-.381-5.785-.838-2.573 3.815-3.414 6.583-3.233 2.769.181 3.534-4.127 6.188-5.725 2.654-1.598 3.463 2.092 2.79 3.66-.672 1.567.952 3.3 3.427 4.671 2.475 1.371.261 6.774-2.339 9.403-2.849 2.881 1.135 3.279 1.856 6.339z" class="Vector 6.1"/>
      <path fill="#B3C13C" d="M292.745 519.827c1.496 6.351-13.52 14.795-14.273 15.117l-4.549-1.723c-.947-.966-3.301-3.228-5.134-4.547-2.291-1.648-.3-4.382 2.359-6.411 2.66-2.03 2.113-4.562 1.005-6.63-1.109-2.068.492-4.497 2.468-5.137 1.976-.64.457-3.212-.381-5.785-.838-2.573 3.815-3.414 6.583-3.233 2.769.181 3.534-4.127 6.188-5.725 2.654-1.598 3.463 2.093 2.791 3.66-.673 1.567.951 3.3 3.426 4.671 2.476 1.372.261 6.774-2.339 9.403-2.849 2.881 1.135 3.279 1.856 6.34z" class="Vector 6.2"/>
      <rect width="2.81" height="44.545" x="265.022" y="497.784" fill="#EFC474" class="Rectangle 4.5" rx="1.405" transform="rotate(12.01 265.022 497.784)"/>
      <path fill="#B3C13C" d="M266.326 529.638c1.496 6.351-13.52 14.795-14.273 15.118l-4.549-1.723c-.947-.966-3.3-3.229-5.134-4.548-2.291-1.648-.3-4.382 2.359-6.411 2.66-2.029 2.113-4.562 1.005-6.63-1.108-2.068.492-4.497 2.468-5.137 1.976-.64.457-3.212-.381-5.785-.838-2.573 3.815-3.413 6.583-3.233 2.769.181 3.534-4.127 6.188-5.725 2.654-1.597 3.463 2.093 2.791 3.66-.673 1.567.951 3.3 3.426 4.672 2.476 1.371.261 6.773-2.339 9.403-2.849 2.88 1.135 3.279 1.856 6.339z" class="Vector 6.3"/>
      <ellipse cx="261.445" cy="573.36" fill="#4A3D24" fill-opacity=".1" class="Ellipse 4.2" rx="76.838" ry="4.341"/>
      <g class="Group 8">
        <g class="Ellipse_21">
          <path fill="#B9A57F" d="M324.755 571.49c0 2.817-28.287 5.1-63.18 5.1-34.894 0-63.18-2.283-63.18-5.1 0-1.138 4.621-2.19 12.432-3.038 11.514-1.251 29.958-2.062 50.748-2.062 18.98 0 36.006.676 47.588 1.745 9.709.897 15.592 2.071 15.592 3.355z"/>
          <path fill="#B9A57F" d="M198.395 571.49c0-1.138 4.621-2.19 12.432-3.038l-12.432.04v2.998zM309.163 568.135c9.709.897 15.592 2.071 15.592 3.355v-3.381h-7.365l-8.227.026z"/>
        </g>
        <ellipse cx="261.575" cy="568.387" fill="#E3D6B8" class="Ellipse_22" rx="63.18" ry="5.1"/>
      </g>
      <circle cx="257.559" cy="528.895" r="5.989" fill="#6E2AC4" class="Ellipse 5"/>
      <circle cx="223.514" cy="524.885" r="5.587" fill="#6E2AC4" class="Ellipse 5.1"/>
      <circle cx="322.539" cy="532.71" r="5.587" fill="#6E2AC4" class="Ellipse 5.2"/>
      <path fill="#4A3D24" fill-opacity=".1" d="M316.04 568.891c0 1.428-25.281 1.894-56.467 1.894-31.185 0-51.895-.521-51.895-1.948 2.153-4.307 20.71-2.531 51.895-2.531 31.186 0 56.467 1.158 56.467 2.585z" class="Ellipse 4.4"/>
      <path stroke="#FFD704" stroke-width="4" d="M241.232 520.309c2.578 1.243 7.141 4.841 4.776 9.288-2.957 5.558-9.675 5.862-11.493 3.746-1.455-1.692-2.856-4.933-3.375-6.341-2.839.867-9.197 1.282-11.922-3.996-2.726-5.278-2.014-9.367-1.318-10.751-1.628-1.273-4.127-4.847-1.098-8.959 3.787-5.141 12.575-1.281 11.828 3.227" class="Vector 2.2"/>
      <g class="Group 15.1">
        <circle cx="268.957" cy="521.744" r="10.093" fill="#FF2030" class="Ellipse 3.3"/>
        <circle cx="268.956" cy="522.441" r="7.758" fill="#FF616C" class="Ellipse 3.4"/>
      </g>
      <path fill="#138600" d="M272.814 545.361c13.288-10.618 29.208-39.205 35.506-52.172-12.31 34.713-26.587 47.179-33.524 53.107l-1.982-.935z" class="Vector 17.21"/>
      <circle cx="208.396" cy="526.049" r="8.489" fill="#FF2030" class="Ellipse 3"/>
      <circle cx="249.732" cy="534.257" r="8.489" fill="#FF2030" class="Ellipse 3.1"/>
      <path fill="#3F3F3F" d="M292.591 513.666c-.956 2.349-4.624 5.288-7.241 4.223-2.618-1.065-3.193-5.73-2.238-8.079.956-2.349 4.635-5.313 7.252-4.248 2.618 1.065 3.183 5.755 2.227 8.104z" class="Ellipse 5.4"/>
      <path fill="#3F3F3F" d="M244.098 516.638c.612 1.683.082 4.96-1.793 5.641-1.875.682-4.386-1.488-4.998-3.171-.612-1.683-.089-4.978 1.787-5.66 1.875-.682 4.392 1.507 5.004 3.19z" class="Ellipse 5.7"/>
      <path fill="#138600" d="M238.671 559.071c-13.288-10.617-29.207-39.205-35.506-52.171 12.311 34.713 26.587 47.179 33.524 53.107l1.982-.936z" class="Vector 17.20"/>
      <circle cx="306.194" cy="519.99" r="11.606" fill="#FF2030" class="Ellipse 3.2"/>
      <path fill="#B3C13C" d="M202.885 525.399c-3.751.694 1.563 9.784 4.689 14.241h10.595c9.089.637 28.206 1.286 31.957-1.215 4.689-3.126-3.821-5.558-7.121-8.337-3.3-2.779 4.342-10.942-3.994-15.284-8.337-4.342-12.332 14.068-15.632 14.068-3.3 0 .521-10.768-6.426-11.289-6.947-.521-3.126 9.379-5.037 11.289-1.91 1.911-4.342-4.342-9.031-3.473z" class="Vector 5"/>
      <path fill="#A7B200" d="M324.973 520.188c5.403 1.001-2.252 14.092-6.755 20.513h-15.26c-13.091.917-12.351 0-12.351 0l-4.503-8.211s8.599-22.809 18.605-23.56c10.007-.75 4.503 13.509 7.255 16.261 2.752 2.752 6.254-6.254 13.009-5.003z" class="Vector 5.1"/>
      <path stroke="#B61A26" stroke-width="4" d="M284.937 516.748c-2.744.811-7.828 3.626-6.211 8.396 2.021 5.963 8.602 7.346 10.738 5.551 1.708-1.435 3.614-4.407 4.354-5.714 2.661 1.314 8.869 2.75 12.41-2.02 3.541-4.769 3.499-8.919 3.035-10.398 1.812-.993 4.855-4.117 2.528-8.665-2.908-5.684-12.203-3.292-12.193 1.278" class="Vector 2.3"/>
      <path fill="#D1D95E" d="M276.565 501.105c-5.127-1.977-11.491 27.953-11.017 35.781l14.697 4.525c10.673 7.638 14.065.981 14.065.981l7.258 1.453s6.287-35.84-1.845-41.72c-8.132-5.879-10.91 9.151-14.695 10.054-3.786.904-2.053-8.603-8.463-11.074z" class="Vector 5.2"/>
      <path fill="#FFC940" d="M319.114 510.039l4.777 2.145-18.245 40.637-4.777-2.145z" class="Rectangle 4_8"/>
      <path fill="#EDB21B" d="M238.882 506.615l2.191-1.759 27.884 34.739-2.192 1.759z" class="Rectangle 4.1"/>
      <path fill="#EDB21B" d="M273.9 519.097l-2.191-1.759-27.884 34.739 2.192 1.759z" class="Rectangle 4.3"/>
      <path fill="#3F3F3F" d="M201.509 528.695c1.654 1.539 2.94 5.523 1.225 7.366-1.715 1.843-5.781.846-7.435-.693s-2.958-5.54-1.243-7.382c1.715-1.843 5.799-.83 7.453.709z" class="Ellipse 5.5"/>
      <path fill="#3F3F3F" d="M316.941 535.914c-1.518 1.517-5.344 2.602-7.034.911-1.691-1.69-.606-5.516.911-7.034 1.518-1.517 5.36-2.619 7.051-.928 1.691 1.691.589 5.533-.928 7.051z" class="Ellipse 5.6"/>
      <path fill="#3F3F3F" d="M284.644 528.027c1.592 1.482 2.831 5.318 1.179 7.092-1.651 1.775-5.566.815-7.159-.667-1.592-1.482-2.848-5.334-1.197-7.109 1.651-1.774 5.584-.798 7.177.684z" class="Ellipse 5.3"/>
      <path fill="#3F3F3F" d="M240.76 532.134c.612 1.683.082 4.959-1.793 5.641-1.875.682-4.386-1.489-4.998-3.172-.612-1.683-.089-4.978 1.787-5.659 1.875-.682 4.392 1.507 5.004 3.19z" class="Ellipse 5.8"/>
      <rect width="2.81" height="44.545" x="191.145" y="515.761" fill="#EFC474" class="Rectangle 4.2" rx="1.405" transform="rotate(-26.712 191.145 515.761)"/>
      <path fill="#138600" d="M282.599 562.337c13.287-10.617 29.207-39.205 35.506-52.171-12.311 34.713-26.588 47.179-33.524 53.107l-1.982-.936z" class="Vector 17.18"/>
      <path fill="#138600" d="M226.859 556.09c13.288-10.617 29.207-39.205 35.506-52.172-12.311 34.713-26.587 47.179-33.524 53.108l-1.982-.936z" class="Vector 17.19"/>
      <path stroke="#FFD704" stroke-width="4" d="M271.818 514.894c1.548-2.408 5.674-6.5 9.8-3.611 5.158 3.611 4.642 10.316 2.321 11.863-1.857 1.238-5.244 2.235-6.705 2.579.516 2.923.155 9.284-5.416 11.348-5.57 2.063-9.542.859-10.831 0-1.462 1.461-5.313 3.507-9.027 0-4.642-4.385.258-12.637 4.642-11.348" class="Vector 2_2"/>
      <g class="Group 30">
        <circle cx="251.505" cy="516.805" r=".755" fill="#FCFCFC" class="Ellipse 2.4"/>
        <circle cx="233.468" cy="530.029" r=".755" fill="#FCFCFC" class="Ellipse 2.5"/>
        <g class="Group 29">
          <circle cx="249.59" cy="501.581" r="1.223" fill="#FCFCFC" class="Ellipse 2"/>
          <circle cx="265.463" cy="512.421" r="1.013" fill="#FCFCFC" class="Ellipse 2.12"/>
          <circle cx="246.967" cy="520.855" r=".755" fill="#FCFCFC" class="Ellipse 2.10"/>
          <circle cx="242.133" cy="529.316" r=".755" fill="#FCFCFC" class="Ellipse 2.20"/>
          <circle cx="253.874" cy="502.336" r=".755" fill="#FCFCFC" class="Ellipse 2.9"/>
          <circle cx="256.491" cy="522.773" r=".755" fill="#FCFCFC" class="Ellipse 2.6"/>
          <circle cx="260.057" cy="507.935" r=".755" fill="#FCFCFC" class="Ellipse 2.5_2"/>
          <circle cx="246.57" cy="509.811" r=".755" fill="#FCFCFC" class="Ellipse 2.15"/>
          <circle cx="262.844" cy="503.845" r=".755" fill="#FCFCFC" class="Ellipse 2.14"/>
          <circle cx="254.441" cy="506.561" r=".755" fill="#FCFCFC" class="Ellipse 2.13"/>
          <circle cx="250.058" cy="506.258" r=".755" fill="#FCFCFC" class="Ellipse 2.19"/>
          <circle cx="258.859" cy="515.231" r=".755" fill="#FCFCFC" class="Ellipse 2.11"/>
          <circle cx="242.324" cy="515.007" r=".946" fill="#FCFCFC" class="Ellipse 2.16"/>
          <circle cx="276.313" cy="518.876" r=".755" fill="#FCFCFC" class="Ellipse 2.8"/>
          <circle cx="258.104" cy="502.05" r=".755" fill="#FCFCFC" class="Ellipse 2.1"/>
          <circle cx="255.957" cy="498.882" r=".533" fill="#FCFCFC" class="Ellipse 2.18"/>
          <circle cx="268.611" cy="507.18" r=".892" fill="#FCFCFC" class="Ellipse 2.2"/>
          <circle cx="261.606" cy="499.103" r=".892" fill="#FCFCFC" class="Ellipse 2.17"/>
          <circle cx="265.871" cy="520.612" r=".997" fill="#FCFCFC" class="Ellipse 2.7"/>
          <circle cx="276.555" cy="527.92" r=".997" fill="#FCFCFC" class="Ellipse 2.21"/>
          <circle cx="236.088" cy="520.099" r="1.092" fill="#FCFCFC" class="Ellipse 2.3"/>
        </g>
      </g>
      <g class="Group 15">
        <circle cx="292.503" cy="535.863" r="10.093" fill="#FF2030" class="Ellipse 3.3_2"/>
        <circle cx="292.502" cy="536.56" r="7.758" fill="#FF616C" class="Ellipse 3.4_2"/>
      </g>
      <g class="Group 15.2">
        <circle cx="219.893" cy="537.273" r="10.093" fill="#B61A26" class="Ellipse 3.3_3"/>
        <circle cx="219.893" cy="537.971" r="7.758" fill="#9E1A25" class="Ellipse 3.4_3"/>
      </g>
      <path fill="#B9A57F" fill-rule="evenodd" d="M192.158 533.499h138.833l-10.234 24.666a18.001 18.001 0 01-16.626 11.102H219.019a18 18 0 01-16.626-11.102l-10.235-24.666z" class="Union_9" clip-rule="evenodd"/>
      <path fill="#4A3D24" fill-opacity=".1" fill-rule="evenodd" d="M324.064 550.195l-2.824 6.806a19.887 19.887 0 01-18.369 12.266H220.28c-8.04 0-15.289-4.84-18.37-12.266l-2.648-6.383c7.078 5.863 17.73 13.114 27.542 13.57l5.487.261c20.46.979 43.426 2.079 62.49-.261 11.454-1.405 22.548-8.696 29.283-13.993z" class="Intersect_2" clip-rule="evenodd"/>
    </g>
    <path fill="#D0E6FF" fill-opacity=".9" d="M640.043 435.307h-7.472c0 2.159-9.377 27.159-10.341 28.814-.963 1.656 2.941 2.224 3.558 2.249.618.025 3.089-.297 4.325 1.31 2.256 2.933 6.05-1.326 5.313 3.072-3.483 4.766 1.115 14.634 2.436 20.066 3.125 12.844 3.267 27.758 2.97 40.945h3.337c-.991-23.756-2.827-72.435-2.275-72.481.552-.046 5.098 21.078 5.098 21.078s-4.124-31.868-6.949-45.053z" class="Vector 20_2"/>
    <path fill="#EDF5FF" d="M640.009 435.669h-7.361c.218.851 2.521 2.96 1.762 5.054-.949 2.617.065 4.875.294 7.852.229 2.977-5.79 5.071-6.707 7.427-.916 2.355.786 1.865 3.567 1.505 2.781-.36 4.449 2.323 7.066 3.271 2.618.949.954-1.333 1.379-3.688.425-2.356 1.963-3.174 3.108-.753.916 1.937-2.094-12.925-3.108-20.668z" class="Vector 21" opacity=".7"/>
    <path fill="#E5F1FF" d="M639.391 484.789c-1.018-5.167.425-14.949 1.274-19.194.481 1.736 1.284 5.619.649 7.267-.794 2.06.81 16.257.54 18.823-.216 2.053 1.409 27.543 2.259 40.069-3.507-18.126-3.477-40.654-4.722-46.965z" class="Vector 22"/>
    <path fill="#E5F1FF" d="M632.024 517.892c-1.203-3.61.502-13.456 1.505-17.927v15.922c0 2.107-.433 4.727-.872 6.786-.095 1.233-.388 2.147-.633 2.616.172-.617.404-1.54.633-2.616.1-1.292-.017-2.933-.633-4.781z" class="Vector 24_2"/>
    <path fill="#E5F1FF" d="M629.341 531.966s-2.349-6.281-1.346-10.752c0 3.97 3.116 10.752 3.116 10.752h-1.77z" class="Vector 24.1"/>
    <path fill="#E5F1FF" d="M643.972 495.333c-.353.512-.9 1.715-.265 2.436.794.9 1.324-.795.265-2.436z" class="Vector 25"/>
    <path fill="#D0E6FF" d="M632.176 437.836c-.578.23-1.701.927-1.572 1.878.16 1.19 1.541.075 1.572-1.878z" class="Vector 25.6"/>
    <path fill="#D0E6FF" d="M609.476 480.748c-.586.889-1.479 2.968-.366 4.178 1.392 1.513 2.237-1.407.366-4.178z" class="Vector 25.2"/>
    <path fill="#D0E6FF" d="M601.681 484.728c-.777.727-2.133 2.539-1.334 3.976.998 1.796 2.504-.844 1.334-3.976z" class="Vector 25.3"/>
    <path fill="#D0E6FF" d="M646.139 452.703c-.033 1.064.297 3.303 1.88 3.749 1.978.558 1.167-2.371-1.88-3.749z" class="Vector 25.4"/>
    <path fill="#464646" fill-rule="evenodd" d="M641.123 423.511a3.018 3.018 0 00-.783-.103h-8.845c-.159 0-.315.013-.468.036 5.165-27.595 21.661-32.263 37.527-29.378 23.178 4.215 26.639 41.393 23.907 93.851-.82 11.036-1.837 22.582-2.341 27.275-5.754 2.272-8.805 2.117-13.779-2.139.405-2.776.982-6.23 1.642-10.185 5.077-30.425 15.112-90.555-9.429-100.468-14.518-3.854-24.081 3.286-27.431 21.111z" class="Subtract_4" clip-rule="evenodd"/>
    <path fill="#D0E6FF" d="M626.822 454.304c-.307-1.019-1.332-3.037-2.975-2.957-2.052.1-.352 2.619 2.975 2.957z" class="Vector 25.5"/>
    <g class="Group 17.1">
      <g class="Group 2_2">
        <path fill="#1A1A1A" d="M689.097 508.418c0-5.277 4.277-4.064 9.554-4.064 5.276 0 9.554 5.729 9.554 11.005v8.639h-13.279l-5.829-4.687v-10.893z" class="Rectangle 5_7"/>
        <path fill="#393939" d="M689.097 504.04h12.439l6.669 3.856v13.318h-13.279l-5.829-4.687V504.04z" class="Rectangle 5.1_2"/>
      </g>
      <rect width="4.698" height="9.383" x="695.721" y="498.4" fill="#2D2D2D" class="Rectangle 4_9" rx="1"/>
      <path fill="#E2E2E2" d="M690.983 498.856c0-1.346.918-2.438 2.05-2.438h10.074c1.132 0 2.049 1.092 2.049 2.438s-.917 2.438-2.049 2.438h-10.074c-1.132 0-2.05-1.092-2.05-2.438z" class="Rectangle 7_2"/>
    </g>
    <path stroke="#fff" stroke-linecap="round" stroke-opacity=".8" stroke-width="3" d="M637.897 435.669l.762 11.451" class="Vector 27"/>
    <path fill="#F3ECDD" d="M729.274 538.747h-7.581v3.432l4.202 4.592 8.588-4.836-5.209-3.188z" class="Vector 7_4"/>
    <path fill="#E5F1FF" d="M618.759 517.421c.808-2.467.384-10.067-.964-16.81-.778-3.892.16-10.425 1.21-15.477a4.628 4.628 0 01-.71-.027c.186 2.08.097 4.878-1.396 6.022-2.398 1.836-1.011-1.22-2.857-1.726-1.846-.506-3.278 4.415-3.997 3.703-.719-.712 1.509-2.057 2.433-4.074.924-2.017-.529-8.345-.504-8.988l2.415.269c1.072-.26 2.149-.49 2.279-.411.2.123 2.281.779 3.297 1.091l.168-.638-.057.642 5.965 1.086.979.178 4.521.032c-.278.747-.919 2.239-1.267 2.226-.435-.017-.406 4.12-.955 5.467-.549 1.347-1.332 2.312-1.389 3.803-.057 1.49-1.464 2.991-1.388 1.004.076-1.987 1.984-3.593.27-7.077-1.22-2.479-1.129-4.437-.872-5.345-1.028.17-2.095.551-1.875 1.285.378 1.266-.461 3.112-1.205 2.486-.744-.626-1.725-1.773-1.942-.558-.217 1.216-.334 2.21-.708 2.136a3.095 3.095 0 01-.373-.104c.16 14.196 4.476 23.79 2.032 25.463-2.272 1.555-1.282 9.438-.503 13.186-.648-1.72-3.415-6.376-2.607-8.844z" class="Vector 23"/>
    <path fill="#000" fill-opacity=".2" fill-rule="evenodd" d="M440.289 227.77l15.869 16.094c-7.66 5.626-2.83 23.706-2.83 23.706l-6.852 1.251s-.26.024-.705.088c-1.032 18.518 5.292 51.499 5.292 51.499s2.362 32.661 22.891 42.364c3.146 1.487 6.336 3.58 9.307 5.531 3.171 2.08 6.093 3.998 8.451 4.844l-47.491 16.129c-9.307-29.279-26.525-91.209-20.94-104.705a17.962 17.962 0 012.12-3.741c-48.889 41.953-46.46 111.542-17.094 178.17l-49.012 1.823c1.262-6.978 2.024-13.505 2.89-21.746 2.72-1.5 6.324-4.674 8.563-6.539 4.65-3.871.153-27.832-2.462-44.893a762.68 762.68 0 01-1.231-8.218l6.705-1.665-.233-1.439c-1.149-7.13-2.595-16.098-4.474-25.557 1.118-12.342 2.493-24.211 4.355-35.002.234-1.356.476-2.695.725-4.016 2.545-12.278 5.969-23.378 10.811-33.704a43.014 43.014 0 012.893-4.451c7.694-10.297 14.465-17.859 20.577-23.662l.148-.141c5.793-5.066 11.999-9.866 17.868-13.863 2.867-1.801 5.612-3.374 8.285-4.906 1.888-1.083 3.74-2.145 5.574-3.251zm-2.316 43.655a58.454 58.454 0 014.546-1.842c-1.459.397-3.107.985-4.546 1.842z" class="Union_10" clip-rule="evenodd"/>
    <path fill="#fff" fill-opacity=".6" fill-rule="evenodd" d="M656.116 393.653c7.494.177 16.305 2.097 21.204 7.99a130.32 130.32 0 001.708 2c4.41 5.09 8.23 9.501 12.69 28.427l.09-.249c-2.767-21.519-9.579-35.286-23.149-37.754-4.211-.766-8.467-.999-12.543-.414z" class="Intersect_3" clip-rule="evenodd" opacity=".7"/>
    <path fill="#000" fill-opacity=".21" fill-rule="evenodd" d="M424.731 459.373c-5.951 32.361-7.682 57.253-7.518 79.467h-24.839v-30.409c-12.511-7.989-26.486-25.04-25.914-36.314v-11.284c23.104-1.72 29.47-1.936 58.271-1.46z" class="Intersect_4" clip-rule="evenodd"/>
    <path fill="#7A705E" d="M244.938 494.835l16.947-2.385c.397.974.478 2.066.625 3.1.173 1.219-.642 1.755-1.862 1.928l-12.605 1.794c-1.22.174-2.283-.324-2.456-1.544-.15-1.048-.361-1.872-.649-2.893z" class="Rectangle 8.1"/>
    <path fill="#D7E238" fill-rule="evenodd" d="M621.255 455.516c1.375.338 2.696.746 3.961 1.202.307-.804.625-1.646.95-2.512-2.884-.572-4.231-2.766-2.318-2.859 1.236-.06 2.122 1.067 2.616 2.063 1.701-4.554 3.535-9.633 4.744-13.275-.287.16-.541.05-.605-.42-.11-.819.707-1.45 1.305-1.756.335-1.089.56-1.916.635-2.38h-1.048a3 3 0 01-3-3v-6.171a3.002 3.002 0 012.532-2.964c5.165-27.595 21.661-32.263 37.527-29.378 23.178 4.215 26.639 41.393 23.907 93.851-.225 3.022-.464 6.083-.704 9.03.35-.331.794-.529 1.276-.529h10.074c1.132 0 2.049 1.091 2.049 2.438 0 1.346-.917 2.437-2.049 2.437h-2.688v2.747h1.117l6.669 3.856v11.836L801 584.369V0H623.639l-2.384 455.516zm70.123 46.008l.092-1.092c.376.527.937.861 1.563.861h2.688v2.747h-4.558c.071-.818.142-1.658.215-2.516zm-48.038-75.116c0-1.386-.94-2.552-2.217-2.897 3.35-17.825 12.913-24.965 27.431-21.111 21.34 8.62 16.535 55.213 11.581 87.225l-3.102-1.793h-1.118v-2.747h2.688c1.132 0 2.049-1.091 2.049-2.437 0-1.347-.917-2.438-2.049-2.438h-10.074c-1.132 0-2.049 1.091-2.049 2.438 0 1.346.917 2.437 2.049 2.437h2.688v2.747l-6.624-.001v1.128l-10.968-7.937-.283.004-6.126-4.867c.14-.576.245-1.218.359-1.923.114-.703.239-1.469.419-2.295.629-2.875-.732-4.206-2.862-5.264-1.432-10.168-3.432-23.537-5.031-31.098h.239a3 3 0 003-3v-6.171zm-.535 39.261c-.318-.129-.642-.26-.969-.397-.069-3.743-.06-5.98.058-5.99.209-.018.995 3.017 1.888 6.788a71.639 71.639 0 00-.973-.399l-.004-.002zm3.334-12.965c-.033 1.063.297 3.303 1.88 3.749 1.978.558 1.167-2.372-1.88-3.749zM35.314 146.035c-7.085-.382-20.736-15.785-19.287-23.74.783-4.296 2.876-6.315 4.51-7.89 2.147-2.071 3.5-3.376.036-8.078a312.913 312.913 0 00-1.583-2.123v-.002h-.001c-5.62-7.492-10.98-14.64-5.575-22.68 2.716-4.041 2.693-6.434 2.634-12.723-.01-1.024-.02-2.15-.02-3.405 0-6.644 6.096-10.926 12.491-6.195 2.671 1.976 4.258 4.392 5.775 6.7 2.115 3.22 4.094 6.232 8.685 7.559 10.996 3.176 14.63 10.764 10.602 17.307-4.029 6.542-6.283 13.233.703 16.227 6.986 2.994 12.177 32.751 5.154 35.56-2.659 1.064-6.645 1.277-10.844 1.502-4.674.25-9.613.514-13.28 1.981zm48.837.149c4.929-.265 14.535-2.18 13.528-7.715-.545-2.989-2.002-4.394-3.138-5.49-1.494-1.441-2.435-2.348-.025-5.62.364-.495.734-.988 1.102-1.479 3.91-5.212 7.64-10.186 3.879-15.78-1.89-2.811-1.874-4.476-1.833-8.852.007-.712.014-1.496.014-2.369 0-4.622-4.242-7.602-8.691-4.31-1.858 1.375-2.962 3.055-4.018 4.662-1.471 2.24-2.848 4.336-6.043 5.259-7.65 2.21-10.18 7.489-7.376 12.041 2.803 4.552 4.372 9.207-.489 11.29-4.86 2.083-8.581 13.985-3.695 15.94 1.85.74 4.623.888 7.545 1.045 3.252.174 6.688.358 9.24 1.378zm308.33-59.719l-.046.022c-.065-3.655-3.74-7.177-5.743-5.56-1.15.93-.061 1.678 1.45 2.716.922.634 2.001 1.375 2.826 2.332-9.147-2.825-18.84 2.018-18.84 12.66 0 11.21 9.087 19.164 20.297 19.164 11.209 0 20.296-7.954 20.296-19.164 0-10.795-9.504-16.513-19.182-12.633 2.553-5.552 6.419-7.8 9.153-9.108l-2.276-4.021c-4.826 3.197-7.024 8.425-7.935 13.592zm170.571 196.972l-.001.001c-10.464 29.04-21.199 58.831-22.781 67.057-2.506 13.03 18.938 55.736 29.973 75.46 10.866-9.707 32.312-31.811 31.169-42.575-.198-1.866-.656-4.121-1.289-6.683 3.67-2.088 6.509-4.101 7.691-5.799 3.492-5.012-.474-67.634-13.66-107.812-3.115-12.085-7.434-21.335-13.661-24.662a5.66 5.66 0 00-1.262-.651c-4.049 11.999-10.067 28.701-16.178 45.66l-.001.003v.001zM106.089 413.849v2.22c0 .665-2.202 1.288-6.049 1.825 3.838.536 6.039 1.158 6.049 1.821v2.225c0 .606-1.829 1.178-5.067 1.681 3.238.503 5.067 1.075 5.067 1.681v.02l-.001.008h.001v2.192c0 .607-1.83 1.178-5.07 1.681 3.24.504 5.07 1.075 5.07 1.682l-.001.029a.251.251 0 01-.004.027h.005v2.164c0 .606-1.829 1.178-5.067 1.681 3.238.503 5.067 1.075 5.067 1.681v.015l-.001.011v.005h.001v2.189c0 .607-1.83 1.178-5.07 1.682 3.189.495 5.013 1.057 5.069 1.652h.001v2.249c0 2.016-20.245 3.651-45.218 3.651-24.974 0-45.219-1.635-45.219-3.651v-2.146h.01a.303.303 0 01-.01-.074c0-.607 1.831-1.178 5.071-1.681-3.24-.504-5.07-1.075-5.07-1.682v-2.146h.009a.303.303 0 01-.01-.074c0-.606 1.83-1.178 5.068-1.681-3.238-.503-5.068-1.075-5.068-1.681v-2.146h.01a.303.303 0 01-.01-.074c0-.607 1.831-1.178 5.071-1.682-3.24-.503-5.07-1.074-5.07-1.681v-2.146h.009a.303.303 0 01-.01-.074c0-.606 1.83-1.178 5.068-1.681-3.238-.503-5.068-1.075-5.068-1.681v-2.146h.01a.309.309 0 01-.01-.074c0-.665 2.203-1.289 6.05-1.826-3.847-.537-6.05-1.16-6.05-1.825v-2.146h.01a.314.314 0 01-.01-.074c0-2.016 20.245-3.651 45.219-3.651 24.973 0 45.218 1.635 45.218 3.651zm121.785-2.152l14.357 6.286c2.966-1.028 9.331-3.538 11.06-5.353l-2.659-17.104a3 3 0 00-3.421-2.504l-18.687 2.881a3.001 3.001 0 00-2.51 3.411l1.86 12.383zm26.674 35.045l1.539 1.569-9.618 8.376c-1.026.424-3.179 1.266-3.582 1.243-.402-.024-5.636-.597-8.203-.88v-.651c1.82-.361 4.717-1.185 7.595-2.351 5.169-2.093 11.085-5.787 12.269-7.306zm-15.131 40.351l.752 4.967a4 4 0 004.574 3.352l16.754-2.624a4 4 0 003.313-4.686l-.374-2.003c-2.107 1.535-6.783 4.597-8.626 4.561-.581-.011-1.252-.014-1.949-.017h-.004c-2.062-.008-4.35-.018-5.227-.254-.94-.253-6.534-2.303-9.213-3.296z" class="Primary" clip-rule="evenodd"/>
    <g class="Group 49">
      <path fill="#7A705E" fill-opacity=".5" fill-rule="evenodd" d="M250.475 490.503c-4.519-.598-7.098-2.135-11.159-3.428l.762 4.38c.291 2.778 2.515 4.288 4.532 3.981l12.044-1.979c1.236-1.425 1.636-2.587-1.247-2.651-1.322-.029-3.019-.05-4.932-.303z" class="Subtract_5" clip-rule="evenodd"/>
      <path fill="#7A705E" fill-opacity=".5" fill-rule="evenodd" d="M256.126 448.319l-1.639-1.59c-2.369 2.164-4.813 3.643-8.921 5.641-4.686 2.473-8.115 3.638-10.89 3.966.009.11.022.219.039.329l.055.361c2.092.517 4.724.88 7.969.861l.087.083c1.24-.368 2.476-.773 3.543-1.194l9.757-8.457z" class="Subtract_6" clip-rule="evenodd"/>
      <path fill="#7A705E" fill-opacity=".5" fill-rule="evenodd" d="M253.306 412.503c-2.089 1.757-5.568 3.918-11.108 5.504l-14.351-6.533-.587-3.862c2.601 2.313 7.787 5.716 12.961 5.299 4.033-.325 9.093-1.084 12.885-1.725l.2 1.317z" class="Subtract_7" clip-rule="evenodd"/>
    </g>
    <path fill="#FFB877" fill-rule="evenodd" d="M470.559 403.662c7.601 13.197 15.377 24.539 20.881 27.192 25.594 12.336 72.015 25.897 94.108 31.659 13.908 17.509 19.694 17.829 25.977 18.176 3.198.176 6.525.36 11.119 2.823a53.23 53.23 0 003.082 1.522c-2.749 1.27-6.171 3.011-6.403 3.902-.39 1.504 8.696 5.109 15.186 3.657 3.332-.746 5.466-2.269 6.776-3.848 3.192-.659 4.31-3.413.712-9.889-4.008-7.214-9.488-11.728-14.862-14.838-.753-1.68-2.129-3.705-4.491-5.531-3.111-2.405-7.668-2.182-10.93-1.45-.189-.095-.372-.19-.547-.286-.313-.171-.883-.318-1.642-.514-2.608-.672-7.454-1.923-11.85-6.704-1.009-.538-2.291-.719-3.618-.907-1.422-.2-2.895-.409-4.139-1.071-16.162-8.603-38.134-21.041-53.747-29.879-10.392-5.883-17.968-10.171-19.137-10.672-2.498-1.07-9.233-17.285-15.473-32.308-.6-1.446-1.196-2.88-1.783-4.288l-27.943 9.49-1.276 23.764z" class="Subtract_8" clip-rule="evenodd"/>
    <path fill="#FFB877" fill-rule="evenodd" d="M455.996 385.047c7.601 13.197 29.94 43.153 35.444 45.806 25.594 12.337 72.015 25.898 94.108 31.66 13.908 17.509 19.694 17.828 25.977 18.175 3.198.177 6.526.361 11.119 2.824a53.883 53.883 0 003.082 1.522c-2.748 1.269-6.171 3.011-6.403 3.902-.39 1.504 8.696 5.109 15.186 3.656 3.332-.746 5.466-2.269 6.776-3.847 3.192-.659 4.31-3.414.712-9.89-4.008-7.213-9.488-11.727-14.862-14.838-.753-1.679-2.129-3.705-4.491-5.531-3.111-2.404-7.668-2.182-10.93-1.449-.189-.095-.372-.19-.547-.286-.313-.171-.883-.318-1.642-.514-2.608-.673-7.454-1.923-11.85-6.705-1.009-.537-2.291-.719-3.618-.906-1.422-.201-2.895-.409-4.139-1.071-16.162-8.604-38.134-21.041-53.747-29.879-10.392-5.883-17.968-10.171-19.137-10.672-2.497-1.071-9.232-17.286-15.472-32.309-.601-1.445-1.196-2.879-1.783-4.288l-27.944 9.491-15.839 5.149z" class="Subtract_9" clip-rule="evenodd"/>
    <path fill="#FFB877" fill-rule="evenodd" d="M238.463 203.012c.799.978 1.602 2.288 2.528 4.182.182.371.361.706.539 1.006.688 6.076 2.007 12.511 4.099 11.047 2.83-1.981 3.537-5.07 3.537-6.367l2.296-6.721 3.318 11.646c21.581 6.495 38.862 8.061 58.804 1.442l3.074-13.088v13.088c1.246.116 1.993-.289 2.544-1.006-4.272 14.592-10.036 30.411-11.373 34.069-1.615 4.419-21.932 15.794-28.028 19.127a7.515 7.515 0 01-3.681.914 7.514 7.514 0 01-4.475-1.502c-5.944-4.479-23.254-17.85-24.16-22.345-.185-.923-.583-2.681-1.117-5.044-2.024-8.962-6.015-26.627-7.905-40.448zm36.934 21.867a.986.986 0 00-.945 1.024c.158 3.933-1.419 7.104-2.952 9.622-.263.431-.535.859-.799 1.274-.473.744-.917 1.443-1.225 2.032-.247.473-.464.976-.547 1.475-.088.525-.034 1.108.341 1.627.521.72 1.415 1.232 2.275 1.605.895.39 1.92.698 2.868.936a35.367 35.367 0 003.315.654l.071.01.072.011.081.011.06.008.016.002.005.001h.002l.006-.043-.006.043a.984.984 0 10.252-1.953h-.003l-.012-.002-.052-.007a38.905 38.905 0 01-.955-.15 32.353 32.353 0 01-2.374-.496c-.896-.224-1.805-.502-2.561-.831-.793-.344-1.269-.683-1.465-.954l-.001-.005a.478.478 0 01.007-.144c.032-.19.135-.474.35-.885.274-.524.638-1.095 1.071-1.774v-.002c.271-.425.57-.894.89-1.419 1.594-2.618 3.419-6.201 3.238-10.725a.985.985 0 00-1.023-.945zm8.151 27.604c-.999 2.026-4.08 6.528-8.528 6.528s-7.773-4.762-8.386-6.528l1.941-.245c.119 1.195 3.311 4.719 6.445 4.719 3.135 0 6.516-3.524 6.634-4.719l1.894.245z" class="Subtract_10" clip-rule="evenodd"/>
    <path fill="#000" fill-opacity=".14" fill-rule="evenodd" d="M563.052 283.375c-10.464 29.04-21.2 58.833-22.782 67.059-2.506 13.03 18.938 55.735 29.973 75.459 10.866-9.706 32.535-32.074 31.17-42.813-.295-2.324-.483-2.976-1.325-6.397-6.082 10.528-15.823 20.193-21.684 27.126-5.33-11.843-17.006-33.685-22.431-41.011-4.996-6.746 11.045-75.961 20.911-115.44.85-3.399 1.651-6.604 2.386-9.562.415.164.823.353 1.223.566a5.633 5.633 0 00-1.262-.65c-4.049 12-10.067 28.703-16.179 45.663z" class="Subtract_11" clip-rule="evenodd"/>
    <path fill="#000" fill-opacity=".1" fill-rule="evenodd" d="M600.135 376.695c3.665-2.085 6.498-4.096 7.679-5.791 3.492-5.012-.475-67.635-13.661-107.812 4.695 18.214 6.653 42.866 8.284 63.385.997 12.556 4.327 20.234 2.853 32.158-.976 7.894-3.075 15.028-5.155 18.06z" class="Subtract_12" clip-rule="evenodd"/>
    <g class="Group 51">
      <path fill="#000" fill-opacity=".19" fill-rule="evenodd" d="M60.87 445.699c24.974 0 45.219-1.634 45.219-3.65v2.221c0 2.016-20.245 3.65-45.218 3.65-24.974 0-45.219-1.634-45.219-3.65v-2.146h.01c.491 1.981 20.544 3.575 45.209 3.575zm45.218-3.676h.001v.026l-.001-.026z" class="Subtract_13" clip-rule="evenodd"/>
      <path fill="#000" fill-opacity=".19" fill-rule="evenodd" d="M60.87 417.49c24.974 0 45.219-1.634 45.219-3.65v2.221c0 2.016-20.245 3.65-45.218 3.65-24.974 0-45.219-1.634-45.219-3.65v-2.146h.01c.491 1.981 20.544 3.575 45.209 3.575zm45.218-3.676h.001v.026l-.001-.026z" class="Subtract_14" clip-rule="evenodd"/>
      <path fill="#000" fill-opacity=".19" fill-rule="evenodd" d="M60.87 423.387c24.974 0 45.219-1.634 45.219-3.65v2.22c0 2.016-20.245 3.651-45.218 3.651-24.974 0-45.219-1.635-45.219-3.651v-2.146h.01c.491 1.982 20.544 3.576 45.209 3.576zm45.218-3.676h.001v.026l-.001-.026z" class="Subtract_15" clip-rule="evenodd"/>
      <path fill="#000" fill-opacity=".19" fill-rule="evenodd" d="M60.87 428.954c24.974 0 45.219-1.634 45.219-3.65v2.221c0 2.016-20.245 3.65-45.218 3.65-24.974 0-45.219-1.634-45.219-3.65v-2.146h.01c.491 1.981 20.544 3.575 45.209 3.575zm45.218-3.676h.001v.026l-.001-.026z" class="Subtract_16" clip-rule="evenodd"/>
      <path fill="#000" fill-opacity=".19" fill-rule="evenodd" d="M60.87 434.545c24.974 0 45.219-1.634 45.219-3.65v2.221c0 2.016-20.245 3.65-45.218 3.65-24.974 0-45.219-1.634-45.219-3.65v-2.147h.01c.491 1.982 20.544 3.576 45.209 3.576zm45.218-3.676h.001v.026l-.001-.026z" class="Subtract_17" clip-rule="evenodd"/>
      <path fill="#000" fill-opacity=".19" fill-rule="evenodd" d="M60.87 440.121c24.974 0 45.219-1.634 45.219-3.65v2.221c0 2.016-20.245 3.65-45.218 3.65-24.974 0-45.219-1.634-45.219-3.65v-2.146h.01c.491 1.981 20.544 3.575 45.209 3.575zm45.218-3.676h.001v.026l-.001-.026z" class="Subtract_18" clip-rule="evenodd"/>
    </g>
    <path fill="#919B02" d="M87.572 62.63c-7.47 40.532-9.694 54.226-8.079 73.933l1.75 1.124c-2.167-20.747 4.214-58.01 7.676-74.048l-1.347-1.01z" class="Vector 17.2"/>
    <path fill="#919B02" d="M91.141 47.385a6.333 6.333 0 00-.144.193c-1.418 4.466-4.268 82.227-2.778 93.568l-2.001.948c-3.337-21.596-2.654-84.164 4.78-94.516.05-.157.097-.223.143-.193z" class="Vector 17.6"/>
    <path fill="#919B02" d="M102.618 51.134a6.28 6.28 0 00-.169.172c-2.005 4.234-15.272 80.908-15.318 92.347l-2.11.67c-.407-21.848 8.672-83.758 17.428-93.017.071-.15.127-.209.169-.172z" class="Vector 17.13"/>
    <path fill="#919B02" d="M49.62 51.235a6.358 6.358 0 00-.091.223c-.27 4.677 16.194 80.729 20.442 91.349l-1.705 1.414c-8.572-20.101-23.38-80.895-18.737-92.763.01-.165.04-.241.092-.223z" class="Vector 17.16"/>
    <path fill="#A7B200" d="M82.241 131.675c2.353 5.109-6.475 9.354-11.183 10.837-5.173-.671-12.685 2.371-16.86 1.829-5.22-.678-4.576-13.131-.386-16.358 4.19-3.227 1.512-7.345-2.335-11.057-3.848-3.712-2.711-9.454 4.149-13.498 4.92-2.9 3.786-7.816 7.277-12.111 3.49-4.295 8.34-2.465 9.49 2.012 1.55 6.038 1.61 7.796 4.552 10.416 5.508 4.905 2.146 11.321-.531 17.956s2.886 3.587 5.827 9.974z" class="Vector 9.2_2"/>
    <path fill="#919B02" d="M27.675 84.923c-2.513 34.594-3.094 46.242.361 62.362l1.674.7c-4.053-16.91-2.176-48.65-.731-62.406l-1.304-.656z" class="Vector 17.10"/>
    <path fill="#919B02" d="M21.521 85.793c2.046 32.36 3.033 43.151 9.197 56.408l1.984-.026c-6.949-13.736-9.308-43.257-9.62-56.3l-1.56-.082z" class="Vector 17.11"/>
    <path fill="#919B02" d="M41.797 146.372c-6.949-13.736-9.308-43.258-9.62-56.301-2.914 33.207 4.154 48.838 7.636 56.326l1.984-.025z" class="Vector 17.12"/>
    <path fill="#919B02" d="M46.915 146.117c-4.594-14.692-2.065-44.199-.226-57.116-8.337 32.275-3.937 48.856-1.734 56.815l1.96.301z" class="Vector 17.14"/>
    <path fill="#919B02" d="M54.65 143.676c-4.594-14.692-2.065-44.2-.227-57.117-8.337 32.276-3.937 48.856-1.734 56.816l1.96.301z" class="Vector 17.15"/>
    <path fill="#919B02" d="M55.879 70.795c-1.903 41.171-2.248 55.04 2.026 74.346l1.885.876c-4.961-20.261-3.694-58.045-2.44-74.405l-1.471-.817z" class="Vector 17.9"/>
    <path stroke="#919B02" d="M48.395 142.158c.407-9.53 4.544-32.009 17.837-45.693 13.292-13.683 5.538-25.737 0-30.054" class="Vector 9_2"/>
    <path fill="#919B02" d="M57.086 109.312c2.233-4.09 7.592-11.808 11.163-9.957 3.571 1.851-5.954 7.409-11.163 9.957z" class="Vector 10"/>
    <path fill="#919B02" d="M65.083 141.149c.783-4.594 3.345-13.633 7.323-13.043 3.979.591-3.224 8.941-7.323 13.043z" class="Vector 10.4"/>
    <path fill="#919B02" d="M77.67 131.292c.784-4.593 3.346-13.633 7.324-13.042 3.979.591-3.224 8.941-7.323 13.042z" class="Vector 10.5"/>
    <path fill="#919B02" d="M48.395 141.149c-.167-7.733-2.17-23.2-8.845-23.2-6.676 0 3.115 15.467 8.845 23.2z" class="Vector 10.1"/>
    <path fill="#919B02" d="M52.779 119.75c-3.332-6.98-8.506-21.692-2.545-24.697 5.962-3.006 4.18 15.213 2.545 24.697z" class="Vector 10.2"/>
    <path fill="#919B02" d="M47.452 144.038c8.668-12.685 34.062-20.5 29.122-30.764-4.94-10.264-27.207 11.494-29.122 30.764z" class="Vector 10.3"/>
    <g class="Group 4">
      <g class="Group">
        <circle cx="58.68" cy="74.511" r="7.657" fill="#FEFEFE" class="Ellipse 4.1"/>
        <circle cx="62.663" cy="61.428" r="7.657" fill="#FEFEFE" class="Ellipse 4.2_2"/>
        <circle cx="75.556" cy="57.566" r="7.657" fill="#FEFEFE" class="Ellipse 4.3"/>
        <circle cx="84.279" cy="67.806" r="7.657" fill="#FEFEFE" class="Ellipse 4.4_2"/>
        <circle cx="83.214" cy="78.109" r="7.657" fill="#FEFEFE" class="Ellipse 4.5"/>
        <circle cx="73.434" cy="82.169" r="7.657" fill="#FEFEFE" class="Ellipse 4.6"/>
        <circle cx="62.663" cy="80.841" r="7.657" fill="#FEFEFE" class="Ellipse 4.7"/>
      </g>
      <circle cx="71.962" cy="70.451" r="9.13" fill="#FFC940" class="Ellipse 4"/>
    </g>
    <path stroke="#919B02" stroke-width=".5" d="M87.06 101.788c-9.769.707-29.73 9.64-31.428 39.709" class="Vector 11.3"/>
    <path stroke="#919B02" stroke-width=".5" d="M81.658 97.413c-8.779 4.341-23.894 20.145-14.121 48.632" class="Vector 11.1"/>
    <g class="Group 4.15">
      <circle cx="15.494" cy="98.528" r="3.548" fill="#FEFEFE" class="Ellipse 4.1_2" transform="rotate(-40.513 15.494 98.528)"/>
      <circle cx="12.958" cy="92.72" r="3.548" fill="#FEFEFE" class="Ellipse 4.2_3" transform="rotate(-40.513 12.958 92.72)"/>
      <circle cx="16.339" cy="87.478" r="3.548" fill="#FEFEFE" class="Ellipse 4.3_2" transform="rotate(-40.513 16.339 87.478)"/>
      <circle cx="22.494" cy="88.459" r="3.548" fill="#FEFEFE" class="Ellipse 4.4_3" transform="rotate(-40.513 22.494 88.46)"/>
      <circle cx="25.221" cy="92.41" r="3.548" fill="#FEFEFE" class="Ellipse 4.5_2" transform="rotate(-40.513 25.22 92.41)"/>
      <circle cx="22.997" cy="96.785" r="3.548" fill="#FEFEFE" class="Ellipse 4.6_2" transform="rotate(-40.513 22.997 96.785)"/>
      <circle cx="18.803" cy="99.56" r="3.548" fill="#FEFEFE" class="Ellipse 4.7_2" transform="rotate(-40.513 18.803 99.56)"/>
      <circle cx="18.951" cy="93.1" r="3.548" fill="#FFC940" class="Ellipse 4_2" transform="rotate(-40.513 18.951 93.1)"/>
    </g>
    <g class="Group 2_3">
      <g class="Group_2">
        <path fill="#B68300" d="M28.203 101.582v50.309H11.65v-50.31z" class="Rectangle 2.5"/>
        <path fill="#B68300" d="M106.23 101.582v50.309H89.676v-50.309z" class="Rectangle 2.6_2"/>
      </g>
      <g class="Group 2_4">
        <path fill="#FFC940" d="M6.381 107.818h105.118v8.678H6.381z" class="Rectangle 3"/>
        <path fill="#FFC940" d="M6.381 123.472h105.118v8.678H6.381z" class="Rectangle 3.1"/>
        <path fill="#FFC940" d="M6.381 139.125h105.118v8.678H6.381z" class="Rectangle 3.2"/>
      </g>
    </g>
    <g class="Group 4.16">
      <circle cx="73.675" cy="102.762" r="4.853" fill="#FEFEFE" class="Ellipse 4.1_3"/>
      <circle cx="76.198" cy="94.47" r="4.853" fill="#FEFEFE" class="Ellipse 4.2_4"/>
      <circle cx="84.37" cy="92.023" r="4.853" fill="#FEFEFE" class="Ellipse 4.3_3"/>
      <circle cx="89.899" cy="98.512" r="4.853" fill="#FEFEFE" class="Ellipse 4.4_4"/>
      <circle cx="89.224" cy="105.042" r="4.853" fill="#FEFEFE" class="Ellipse 4.5_3"/>
      <circle cx="83.026" cy="107.615" r="4.853" fill="#FEFEFE" class="Ellipse 4.6_3"/>
      <circle cx="76.198" cy="106.774" r="4.853" fill="#FEFEFE" class="Ellipse 4.7_3"/>
      <circle cx="82.092" cy="100.189" r="4.853" fill="#FFC940" class="Ellipse 4_3"/>
    </g>
    <path fill="#FFB877" d="M257.046 410.777c-.401-.685-1.429-.616-1.95-.018-1.578 1.814-5.304 5.078-12.922 7.255-1.035 1.739-1.773 5.089.425 8.086-.425 1.565-2.204 5.699.932 8.192-.932 2.664-1.731 5.328.6 8.059.217 2.374-.778 3-.6 4.862.334 3.488 1.559 5.387 1.559 5.387 5.344-2.573 7.944-4.247 10.99-7.438l2.654-9.458c1.155-3.724.657-5.433-1.653-8.039 1.212-1.838 2.626-9.096 0-9.096.529-2.926 1.6-5.001-.035-7.792z" class="Vector 12_2"/>
  </g>
</svg>
