<svg xmlns="http://www.w3.org/2000/svg" width="1155" height="700" fill="none" viewBox="0 0 1155 700">
  <g class="leave_feedback_man_blue_people">
    <path fill="#fff" d="M0 0h1155v700H0z"/>
    <g class="Group 11">
      <rect width="245" height="486" x="376" y="143" fill="#E7ECEF" class="Rectangle 4" rx="22"/>
      <g class="Group 10">
        <rect width="105" height="101" x="390" y="215" fill="#fff" fill-opacity=".75" class="Rectangle 5" rx="10"/>
        <g class="Group 8">
          <rect width="105" height="6" x="390" y="330" fill="#fff" class="Rectangle 6" rx="3"/>
          <rect width="76" height="6" x="390" y="339" fill="#fff" class="Rectangle 6.1" rx="3"/>
        </g>
      </g>
      <g class="Group 10_2">
        <rect width="105" height="101" x="505" y="215" fill="#fff" fill-opacity=".75" class="Rectangle 5_2" rx="10"/>
        <g class="Group 8_2">
          <rect width="105" height="6" x="505" y="330" fill="#fff" class="Rectangle 6_2" rx="3"/>
          <rect width="76" height="6" x="505" y="339" fill="#fff" class="Rectangle 6.1_2" rx="3"/>
        </g>
      </g>
      <g class="Group 10_3">
        <rect width="105" height="101" x="390" y="369" fill="#fff" fill-opacity=".75" class="Rectangle 5_3" rx="10"/>
        <g class="Group 8_3">
          <rect width="105" height="6" x="390" y="484" fill="#fff" class="Rectangle 6_3" rx="3"/>
          <rect width="76" height="6" x="390" y="493" fill="#fff" class="Rectangle 6.1_3" rx="3"/>
        </g>
      </g>
      <g class="Group 10_4">
        <rect width="105" height="101" x="505" y="369" fill="#fff" fill-opacity=".75" class="Rectangle 5_4" rx="10"/>
        <g class="Group 8_4">
          <rect width="105" height="6" x="505" y="484" fill="#fff" class="Rectangle 6_4" rx="3"/>
          <rect width="76" height="6" x="505" y="493" fill="#fff" class="Rectangle 6.1_4" rx="3"/>
        </g>
      </g>
      <rect width="115" height="38" x="390" y="523" fill="#fff" class="Rectangle 5_5" rx="8"/>
      <rect width="99" height="38" x="511" y="523" fill="#fff" fill-opacity=".41" class="Rectangle 5.1" rx="8"/>
    </g>
    <path stroke="#000" d="M327 631h537.5" class="Vector"/>
    <g class="Group 6">
      <g class="Union">
        <path fill="#fff" fill-rule="evenodd" d="M608.494 240.746v27.576h19.835l-1.451-6.773-1.452-6.773-1.633-7.35c15.805 2.32 13.446-16.947 9.374-30.386-6.58-14.32-22.738-12.095-26.608-1.935-3.301 7.012-.856 15.666 1.036 22.362.327 1.158.637 2.257.899 3.279zm-64.829 199.805c-5.418 2.323-5.644 2.097-1.935-6.289l1.935-9.192v-14.514h11.127v14.514s4.838 7.619 4.838 11.611c0 7.761 0 10.343-1.278 11.452-.637.553-1.592.74-3.023 1.021-.172.033-.35.068-.537.106-5.22 1.044-6.125-.998-7.861-4.914-.496-1.121-1.061-2.395-1.815-3.795h-1.451zm160.451-151.694c-1.201-7.377-2.582-15.865.652-13.278 2.191 1.753 2.521 3.537 2.747 4.755.172.933.283 1.534 1.123 1.534.484-9.353 3.483-24.093 5.805-21.771 1.791 1.791 1.108 6.858.48 11.524-.187 1.387-.369 2.738-.48 3.958 1.936-1.129 9.386 2.032 12.095 6.289 3.387 5.322-5.805 15.481-7.74 15.965-.959.24-1.41.924-1.883 1.64-.291.441-.59.894-1.02 1.263l-2.903 7.257-4.354 14.514-11.127-8.225 7.257-21.287c-.186-1.274-.416-2.684-.652-4.138z" clip-rule="evenodd"/>
        <path fill="#000" d="M608.494 240.746h.483v-.061l-.015-.059-.468.12zm0 27.576h-.484v.484h.484v-.484zm19.835 0v.484h.598l-.125-.585-.473.101zm-1.451-6.773l.473-.102-.473.102zm-1.452-6.773l.473-.102-.001-.003-.472.105zm-1.633-7.35l.07-.478-.695-.102.153.685.472-.105zm9.374-30.386l.463-.14-.01-.032-.014-.03-.439.202zm-26.608-1.935l.437.206.008-.017.007-.017-.452-.172zm1.036 22.362l-.466.132.466-.132zM541.73 434.262l.442.196.021-.047.01-.049-.473-.1zm1.935 6.289v-.483h-.099l-.091.039.19.444zm0-15.481l.474.1.01-.049v-.051h-.484zm0-14.514v-.483h-.484v.483h.484zm11.127 0h.484v-.483h-.484v.483zm0 14.514h-.483v.141l.075.118.408-.259zm3.56 23.063l-.317-.365.317.365zm-3.023 1.021l-.093-.475.093.475zm-.537.106l.095.474-.095-.474zm-7.861-4.914l.443-.196-.004-.009-.439.205zm0 0l-.442.196.004.009.438-.205zm-1.815-3.795l.426-.229-.137-.254h-.289v.483zm159.652-164.972l-.303.378.303-.378zm-.652 13.278l.477-.077-.477.077zm3.399-8.523l.475-.088-.475.088zm1.123 1.534v.484h.459l.024-.459-.483-.025zm5.805-21.771l.342-.342-.342.342zm.48 11.524l.479.065-.479-.065zm-.48 3.958l-.481-.044-.085.934.81-.472-.244-.418zm12.095 6.289l-.408.26.408-.26zm-7.74 15.965l.117.47-.117-.47zm-1.883 1.64l.404.267-.404-.267zm-1.02 1.263l-.315-.367-.09.077-.044.11.449.18zm-2.903 7.257l-.449-.18-.008.02-.006.021.463.139zm-4.354 14.514l-.288.389.554.408.197-.658-.463-.139zm-11.127-8.225l-.458-.156-.114.335.284.21.288-.389zm7.257-21.287l.457.156.038-.11-.017-.116-.478.07zm-95.791-31.446v-20.803h-.967v20.803h.967zm0 6.773v-6.773h-.967v6.773h.967zm19.352-.484h-19.835v.968h19.835v-.968zm-1.924-6.188l1.451 6.773.946-.202-1.451-6.774-.946.203zm-1.452-6.773l1.452 6.773.946-.203-1.452-6.773-.946.203zm-1.632-7.346l1.633 7.35.944-.21-1.633-7.35-.944.21zm9.383-30.351c2.032 6.705 3.612 14.797 2.751 20.895-.43 3.045-1.46 5.524-3.275 7.108-1.801 1.571-4.461 2.331-8.317 1.765l-.14.957c4.046.594 7.019-.184 9.093-1.993 2.06-1.797 3.15-4.539 3.597-7.701.892-6.316-.742-14.577-2.783-21.311l-.926.28zm-25.693-1.903c3.701-9.718 19.297-12.006 25.716 1.965l.879-.404c-6.74-14.669-23.461-12.507-27.5-1.905l.905.344zm1.049 22.059c-.947-3.354-2.019-7.154-2.449-10.985-.43-3.83-.212-7.646 1.385-11.04l-.875-.412c-1.703 3.618-1.912 7.635-1.472 11.56.44 3.922 1.536 7.798 2.48 11.14l.931-.263zm.902 3.29a137.718 137.718 0 00-.902-3.29l-.931.263c.328 1.159.636 2.252.896 3.267l.937-.24zm-67.674 193.44c-.927 2.094-1.615 3.697-2.038 4.88-.211.592-.362 1.095-.442 1.513-.077.405-.1.792.008 1.116.056.171.151.329.294.455.142.124.309.198.479.235.323.072.697.025 1.079-.067.774-.186 1.845-.626 3.188-1.202l-.381-.889c-1.366.585-2.356.987-3.033 1.15-.343.083-.541.087-.643.064a.24.24 0 01-.042-.013l-.006-.004-.001-.001h-.001l-.002-.003c-.002-.004-.007-.013-.013-.03-.028-.084-.043-.271.025-.63.066-.346.198-.796.402-1.368.409-1.145 1.083-2.715 2.011-4.814l-.884-.392zm1.904-9.096l-1.935 9.193.946.199 1.936-9.192-.947-.2zm-.011-14.414v14.514h.968v-14.514h-.968zm11.611-.483h-11.127v.967h11.127v-.967zm.484 14.997v-14.514h-.967v14.514h.967zm4.838 11.611c0-1.081-.324-2.367-.784-3.66-.463-1.301-1.077-2.648-1.687-3.86a57.173 57.173 0 00-2.438-4.344l-.003-.004-.001-.002-.409.259-.408.259v.001h.001l.002.004.01.016.039.063.152.245a56.633 56.633 0 012.191 3.938c.6 1.192 1.195 2.499 1.639 3.749.448 1.259.728 2.421.728 3.336h.968zm-1.445 11.817c.794-.689 1.122-1.788 1.283-3.553.162-1.782.162-4.395.162-8.264h-.968c0 3.892 0 6.45-.158 8.177-.158 1.743-.469 2.49-.953 2.91l.634.73zm-3.247 1.13c.708-.138 1.331-.26 1.857-.419.53-.162 1-.372 1.39-.711l-.634-.73c-.247.214-.574.374-1.037.515-.469.142-1.038.254-1.762.396l.186.949zm-.535.106l.535-.106-.186-.949-.538.106.189.949zm-8.398-5.192c.431.973.823 1.858 1.248 2.609.426.753.902 1.402 1.518 1.891 1.262 1.001 2.97 1.225 5.632.692l-.189-.949c-2.559.512-3.913.236-4.842-.501-.48-.381-.882-.911-1.277-1.609-.396-.701-.769-1.54-1.205-2.525l-.885.392zm.004.009l.877-.41h-.001l-.876.41zm-1.803-3.77c.744 1.381 1.302 2.64 1.799 3.761l.885-.392c-.497-1.12-1.068-2.41-1.832-3.828l-.852.459zm-1.025.254h1.451v-.967h-1.451v.967zM705.07 275.201c-.43-.344-.87-.579-1.306-.581-.494-.002-.841.29-1.053.668-.201.358-.31.834-.368 1.357-.059.532-.071 1.16-.047 1.853.092 2.759.744 6.762 1.342 10.437l.955-.155c-.602-3.702-1.241-7.632-1.33-10.315a12.034 12.034 0 01.042-1.713c.053-.479.144-.801.25-.991.094-.168.161-.173.205-.173.103 0 .327.066.705.369l.605-.756zm2.92 5.045c-.112-.609-.26-1.415-.674-2.295-.416-.885-1.094-1.828-2.246-2.75l-.605.756c1.039.831 1.623 1.657 1.976 2.406.355.755.485 1.451.598 2.059l.951-.176zm.648 1.138a.574.574 0 01-.275-.05.298.298 0 01-.118-.125c-.103-.178-.162-.464-.255-.963l-.951.176c.08.434.163.916.368 1.271.114.196.272.371.495.492.22.119.469.167.736.167v-.968zm6.147-21.629c-.198-.198-.442-.346-.729-.379a1.16 1.16 0 00-.773.201c-.418.273-.775.793-1.089 1.407-.643 1.254-1.261 3.218-1.813 5.507-1.108 4.593-1.983 10.646-2.226 15.352l.966.05c.24-4.647 1.107-10.641 2.201-15.175.548-2.275 1.145-4.145 1.733-5.293.301-.588.563-.911.756-1.037.084-.055.124-.052.134-.051.013.001.065.011.156.102l.684-.684zm.617 11.931c.313-2.325.646-4.79.672-6.899.013-1.056-.051-2.044-.24-2.895-.188-.847-.511-1.599-1.049-2.137l-.684.684c.358.358.621.911.789 1.663.166.749.229 1.655.216 2.673-.025 2.038-.347 4.44-.663 6.782l.959.129zm-.477 3.937c.11-1.207.29-2.548.477-3.937l-.959-.129c-.186 1.384-.369 2.746-.481 3.978l.963.088zm12.021 5.985c-1.421-2.234-4.05-4.138-6.535-5.34-1.248-.604-2.485-1.042-3.547-1.256a6.48 6.48 0 00-1.473-.145c-.437.014-.854.097-1.191.294l.487.836c.147-.086.386-.151.737-.163.346-.012.767.03 1.249.127.964.194 2.122.6 3.317 1.178 2.401 1.161 4.852 2.965 6.14 4.989l.816-.52zm-8.031 16.695c.349-.088.774-.358 1.207-.695.451-.351.972-.824 1.523-1.387a28.269 28.269 0 003.424-4.293c1.075-1.658 1.997-3.493 2.431-5.274.433-1.779.39-3.563-.554-5.046l-.816.52c.75 1.178.828 2.66.429 4.297-.398 1.636-1.26 3.369-2.301 4.977a27.408 27.408 0 01-3.304 4.142c-.53.541-1.018.983-1.426 1.301-.428.332-.713.485-.848.519l.235.939zm-1.596 1.437c.483-.732.843-1.249 1.596-1.437l-.235-.939c-1.163.291-1.706 1.142-2.169 1.843l.808.533zm-1.109 1.363c.489-.42.823-.93 1.109-1.363l-.808-.533c-.296.448-.56.844-.931 1.162l.63.734zm-2.769 7.069l2.903-7.256-.898-.36-2.903 7.257.898.359zm-4.34 14.474l4.354-14.514-.926-.278-4.354 14.513.926.279zm-11.878-7.975l11.127 8.225.575-.779-11.127-8.224-.575.778zm7.087-21.832l-7.257 21.287.916.312 7.256-21.287-.915-.312zm-.672-3.904c.237 1.455.466 2.861.651 4.13l.957-.14a251.63 251.63 0 00-.653-4.145l-.955.155z"/>
      </g>
      <path fill="#000" fill-opacity=".07" d="M615.266 263.484l-5.321-24.673-1.452 1.451v26.125l6.773 3.386v-6.289z" class="Vector 12"/>
      <path fill="#000" fill-opacity=".06" d="M645.262 311.863l-1.935 67.731h8.708c1.935-4.258.161-33.866-1.451-48.379 3.483 15.094 9.675 33.865 16.448 40.154l4.838 4.354-2.419-7.74s-4.838-17.9-17.416-41.122c-2.052-3.789-6.773-14.998-6.773-14.998z" class="Vector 11"/>
      <path fill="#000" fill-opacity=".06" d="M555.277 411.04l7.741-3.386c3.87-41.606 9.03-65.473 13.062-76.923v46.928l7.257 2.902-3.387-78.374-6.773 14.03c-9.192 15.965-15.32 69.827-17.9 94.823z" class="Vector 10"/>
      <path fill="#000" fill-opacity=".23" d="M536.893 625.36h70.633v4.838h-70.633z" class="Rectangle"/>
      <g class="Group">
        <path fill="#1E2884" d="M607.707 630.198v-40.155h-23.705v1.935c0 3.87-3.109 5.095-5.806 7.741-10.377 10.18-23.404 3.87-34.047 8.708-10.643 4.838-7.741 17.739-6.774 21.771h70.332z" class="Vector 4.1"/>
        <path fill="#1E2884" d="M628.813 630.682v-40.155h24.494v1.935c0 3.87 3 6.117 5.697 8.764 10.377 10.18 22.724 2.847 33.367 7.685 10.643 4.838 9.279 17.739 8.311 21.771h-71.869z" class="Vector 4.2"/>
      </g>
      <path fill="#1E2884" d="M600.269 203.978c-10.557 13.724.925 28.453 7.817 35.198h2.343c-1.319-2.639-2.903-6.17-2.903-10.041 0-3.871 2.741-2.185 4.354-1.451-1.451-5.806-4.864-15.947 3.871-14.9 7.257.87 12.094-2.419 14.513 0 0 0 4.838 2.036 8.709-2.517 3.87-4.553 1.114-11.669-3.871-15.481-4.926-14.78-15.14-3.849-20.418 3.042-3.167-1.407-11.043 4.244-14.415 6.15z" class="Vector 4"/>
      <path fill="#142191" fill-rule="evenodd" d="M571.242 268.322l35.8-7.741c10.837 6.58 19.03 2.742 21.771 0l34.833 15.482c.387 4.644 11.772 39.348 17.9 57.087 3.434-10.409 9.196-27.531 12.781-37.252l-1.654-1.935 2.419-7.741 2.419 2.419c.387 1.935 13.385 17.578 19.836 25.157l2.419 2.903-2.419 5.322-2.5-1.935c-1.397 3.325-2.775 6.667-4.14 9.977l-.001.003c-11.194 27.145-21.493 52.12-33.998 48.075-15.445-4.997-21.506-28.336-26.194-46.386-.304-1.173-.603-2.323-.898-3.445 3.781 15.267 2.614 37.12 1.962 49.322l-.027.509c-13.546 5.805-55.958 2.418-75.471 0v-48.38c-4.645 8.515-10.321 50.96-13.063 78.375l-1.451 12.578-27.092 1.935-2.419-12.094h2.419c0-43.542 21.448-110.144 36.768-142.235zM537.263 625.36h-.37v4.838h70.633V581.335h-23.705v11.127c0 2.89-1.734 4.305-3.735 5.938-.679.554-1.388 1.132-2.071 1.803-6.157 6.04-12.673 6.105-19.177 6.169-4.457.044-8.909.088-13.237 2.055-10.234 4.652-9.286 12.734-8.338 16.933zm92.518.967v-44.509h23.705v11.128c0 2.89 1.733 4.304 3.735 5.937.678.554 1.388 1.133 2.071 1.803 6.157 6.041 12.672 6.105 19.177 6.169 4.457.044 8.909.088 13.236 2.056 10.235 4.652 9.287 12.734 8.339 16.932h.37v4.838h-70.633v-4.354z" class="Union_2" clip-rule="evenodd"/>
      <g class="Group 2">
        <g class="Union_3">
          <path fill="#fff" d="M570.585 584.721c-5.272-33.809 1.855-149.251 6.462-207.062 4.872.709 17.292 1.853 21.771 2.306 11.224-84.92-.484-113.55-3.87-116.965l4.837-.967c9.289 7.353 9.192 82.008 4.355 117.932 14.401 1.157 19.693 1.072 29.027.45 2.903-36.881 8.128-111.609 5.806-115.48l5.805 2.419c-1.935 36.309-4.257 109.544-5.805 112.611 7.255-.648 10.561-1.462 13.546-2.306l6.773 94.823 3.194 112.239h3.095l-2.903 6.773h-37.735l-2.419-6.773h2.041l-8.814-158.199-3.712 158.199h3.228l-3.387 6.773h-39.671l-3.386-6.773h1.762z"/>
          <path fill="#000" d="M577.047 377.659l.07-.479-.511-.074-.041.514.482.039zm-4.838 213.835l-.432.217.133.267h.299v-.484zm39.671 0v.484h.299l.134-.267-.433-.217zm3.871-164.972l.483-.027-.967.015.484.012zm9.192 164.972l-.456.163.115.321h.341v-.484zm37.735 0v.484h.319l.126-.293-.445-.191zm-3.386-119.012l.483-.014v-.01l-.001-.011-.482.035zm-6.773-94.823l.482-.035-.042-.593-.572.162.132.466zm-83.696 207.062v-.484h-.783l.35.701.433-.217zm46.444 0l.432.217.351-.701h-.783v.484zm7.257 0v-.484h-.687l.231.647.456-.163zm43.057 0l.445.191.289-.675h-.734v.484zM604.14 379.965l-.039.482.039-.482zm-4.355-117.932l.301-.38-.176-.139-.219.044.094.475zm-4.837.967l-.095-.474-.882.176.633.639.344-.341zm3.87 116.965l-.049.481.049-.481zm34.349.45l.032.483-.032-.483zm5.806-115.48l.186-.446-1.358-.566.757 1.261.415-.249zm5.805 2.419l.483.026.018-.341-.315-.131-.186.446zm-5.805 112.611l.043.482-.043-.482zm-62.408-2.345c-2.304 28.91-5.238 72.23-6.937 112.55-1.698 40.298-2.166 77.664.479 94.626l.956-.149c-2.627-16.848-2.167-54.108-.468-94.436 1.698-40.306 4.631-83.613 6.935-112.514l-.965-.077zm-6.458 207.176c.45 2.89.995 5.218 1.653 6.877l.899-.357c-.618-1.559-1.15-3.804-1.596-6.669l-.956.149zm2.102 7.182h39.671v-.967h-39.671v.967zm40.155-.472l.159-6.773-.968-.023-.158 6.773.967.023zm.159-6.773l3.711-158.2-.967-.023-3.712 158.2.968.023zm2.745-158.185l8.814 158.2.966-.054-8.814-158.199-.966.053zm8.814 158.2l.378 6.773.966-.054-.378-6.773-.966.054zm.861 7.23h37.735v-.967h-37.735v.967zm38.219-.497l-.193-6.774-.967.028.193 6.773.967-.027zm-.193-6.774l-3.194-112.239-.967.027 3.194 112.24.967-.028zm-3.195-112.26l-6.773-94.823-.965.069 6.773 94.823.965-.069zm-87.132 118.831l-3.386-6.773-.866.433 3.387 6.773.865-.433zm-3.819-6.073h1.762v-.968h-1.762v.968zm1.762 0h41.454v-.968h-41.454v.968zm41.454 0h3.228v-.968h-3.228v.968zm2.795-.7l-3.386 6.773.865.433 3.386-6.773-.865-.433zm10.564 6.827l-2.419-6.773-.911.325 2.419 6.773.911-.325zm-2.874-6.127h2.041v-.968h-2.041v.968zm2.041 0h37.921v-.968h-37.921v.968zm37.921 0h3.095v-.968h-3.095v.968zm2.65-.674l-2.902 6.773.889.381 2.903-6.773-.89-.381zM604.619 380.03c2.423-17.994 3.657-45.665 3.125-69.756-.267-12.046-.975-23.211-2.2-31.832-.613-4.309-1.356-7.998-2.244-10.848-.444-1.425-.927-2.652-1.454-3.646-.525-.99-1.107-1.777-1.76-2.295l-.601.759c.508.402 1.014 1.06 1.506 1.989.49.924.952 2.091 1.385 3.481.866 2.78 1.601 6.411 2.21 10.696 1.218 8.567 1.924 19.69 2.19 31.718.532 24.055-.701 51.674-3.116 69.605l.959.129zm-4.928-118.472l-4.838.968.189.949 4.838-.968-.189-.949zm4.487 117.925c-1.063-.086-1.89-.029-2.693.019-.801.047-1.587.086-2.618-.018l-.098.962c1.112.113 1.962.07 2.773.022.81-.048 1.572-.1 2.559-.021l.077-.964zm-5.311.001c-4.493-.455-16.893-1.597-21.75-2.304l-.139.957c4.885.712 17.327 1.857 21.791 2.309l.098-.962zm-4.263-116.143c.368.371.894 1.136 1.508 2.394.609 1.249 1.292 2.956 1.985 5.183 1.388 4.455 2.813 10.976 3.784 20.051 1.942 18.151 2.066 46.499-3.543 88.933l.959.126c5.616-42.486 5.498-70.914 3.546-89.162-.977-9.123-2.412-15.708-3.822-20.235-.705-2.264-1.404-4.018-2.04-5.32-.63-1.292-1.211-2.169-1.69-2.652l-.687.682zm38.531 116.591c-9.308.621-14.577.706-28.957-.449l-.077.964c14.422 1.159 19.738 1.074 29.098.451l-.064-.966zm.514.521c1.452-18.442 3.484-46.348 4.863-70.129.69-11.889 1.216-22.752 1.425-30.886.104-4.066.13-7.457.055-9.956-.037-1.249-.099-2.284-.189-3.073a9.747 9.747 0 00-.163-1.014c-.061-.269-.14-.52-.253-.709l-.829.498c.032.054.084.183.139.426.052.232.101.535.144.91.087.749.148 1.753.184 2.99.074 2.473.049 5.843-.055 9.903-.209 8.119-.735 18.969-1.424 30.855-1.378 23.772-3.41 51.671-4.861 70.109l.964.076zm5.137-115.071l5.806 2.419.372-.893-5.805-2.419-.373.893zm13.601 111.811c-2.956.837-6.232 1.645-13.458 2.29l.087.964c7.286-.651 10.621-1.47 13.634-2.323l-.263-.931zm-13.458 2.29c-1.228.11-4.45.36-5.794.449l.064.966c1.351-.09 4.58-.341 5.817-.451l-.087-.964zm5.366-112.154c-.968 18.157-2.032 45.549-3.048 68.775-.508 11.615-1.004 22.189-1.469 30.049-.233 3.931-.458 7.179-.673 9.538a58.822 58.822 0 01-.312 2.834 12.61 12.61 0 01-.146.848 1.985 1.985 0 01-.106.374l.863.436c.079-.155.138-.372.189-.605.053-.245.105-.553.157-.915.105-.726.211-1.698.319-2.884.216-2.375.442-5.635.675-9.569.465-7.868.961-18.448 1.469-30.064 1.017-23.235 2.081-50.615 3.048-68.766l-.966-.051z"/>
        </g>
        <path fill="#000" fill-opacity=".13" d="M656.873 545.05l-8.708-165.94 3.87-1.935c3.097 8.128 9.192 123.85 9.192 182.389l-4.354-14.514z" class="Vector 9"/>
        <path fill="#000" fill-opacity=".13" d="M582.852 426.521l-5.321-48.862c-1.936 8.224-10.16 101.596-7.741 207.546l2.903 6.289h20.319l-10.16-164.973z" class="Vector 7"/>
        <path fill="#000" fill-opacity=".13" d="M615.751 427.005l9.192 157.716h-2.419l2.419 6.773h10.16l1.451-6.773-8.224-76.439-5.806-40.154-6.773-41.123z" class="Vector 8"/>
      </g>
    </g>
    <path stroke="#fff" stroke-dasharray="4.84 4.84" stroke-width="1.935" d="M657.358 140.117s5.115 27.401 18.868 32.898c11.768 4.704 20.81-11.886 31.93-5.806 14.799 8.093 3.387 43.058 3.387 43.058" class="Vector 5"/>
    <path stroke="#fff" stroke-dasharray="4.84 4.84" stroke-width="1.935" d="M746.858 137.698s-2.625 30.788 11.127 36.285c11.769 4.704 28.067-13.822 39.187-7.741 14.799 8.092 3.871 41.606 3.871 41.606" class="Vector 5.1"/>
    <rect width="160.619" height="70.633" x="700.898" y="198.172" fill="#fff" stroke="#000" stroke-width=".968" class="Rectangle_2" rx="7.257"/>
    <rect width="135.462" height="4.838" x="712.509" y="211.718" fill="#fff" stroke="#000" stroke-width=".968" class="Rectangle 2" rx="2.419"/>
    <rect width="75.471" height="4.838" x="712.509" y="223.329" fill="#fff" stroke="#000" stroke-width=".968" class="Rectangle 2.1" rx="2.419"/>
    <circle cx="653.487" cy="124.636" r="35.8" fill="#fff" stroke="#000" stroke-width=".968" class="Ellipse"/>
    <path fill="#504DF5" stroke="#000" stroke-width=".968" d="M653.486 138.182c19.835 0 25.157 12.579 25.157 12.579s-4.735 4.312-9.192 6.289c-5.935 2.633-10.643 3.387-17.416 3.387s-7.257-.484-13.063-2.419c-5.805-1.936-11.611-8.709-11.611-8.709s4.784-11.127 26.125-11.127z" class="Vector 6.1"/>
    <g class="Group_2">
      <path fill="#fff" stroke="#000" stroke-width=".968" d="M666.065 114.476h-17.9v25.641c3.565 3.242 5.576 3.837 9.192 1.452l-.968-9.192c9.676 2.322 10.16-10.966 9.676-17.901z" class="Vector 5_2"/>
      <path fill="#000" stroke="#000" stroke-width=".51" d="M644.826 109.94c-6.123 7.96-1.141 16.59 2.856 20.501l1.934.484c-.765-1.531-.484-5.979-.484-8.224s2.157-.94 3.093-.515c-1.361-1.021-3.735-5.038 1.02-6.889 4.595-1.788 9.917 2.082 12.756 2.082l3.45-3.87c5.511-2.654-.558-5.95-3.45-8.161-2.857-8.573-9.694-2.722-12.756 1.275-1.837-.816-6.463 2.211-8.419 3.317z" class="Vector 4.1_2"/>
    </g>
    <circle cx="752.181" cy="105.284" r="35.8" fill="#fff" stroke="#000" stroke-width=".968" class="Ellipse_2"/>
    <g class="Union_4">
      <path fill="#504DF5" fill-rule="evenodd" d="M777.338 131.409s-5.322-12.579-25.158-12.579c-21.341 0-26.124 11.128-26.124 11.128s5.805 6.773 11.611 8.708c.704.235 1.33.448 1.899.642 4.116 1.403 5.212 1.777 11.163 1.777 6.773 0 11.481-.754 17.416-3.387 4.457-1.977 9.193-6.289 9.193-6.289zm-123.852 6.773c19.835 0 25.157 12.579 25.157 12.579s-4.735 4.312-9.192 6.289c-5.935 2.633-10.643 3.387-17.416 3.387-5.952 0-7.047-.374-11.164-1.777v-.001c-.569-.193-1.194-.407-1.899-.641-5.805-1.936-11.611-8.709-11.611-8.709s4.784-11.127 26.125-11.127zm58.539 111.756a8.709 8.709 0 018.709-8.709h29.995a8.709 8.709 0 010 17.417h-29.995a8.709 8.709 0 01-8.709-8.708z" clip-rule="evenodd"/>
      <path fill="#000" d="M777.338 131.409l.325.358.254-.231-.134-.316-.445.189zm-51.282-1.451l-.445-.192-.119.277.196.229.368-.314zm11.611 8.708l-.153.459.153-.459zm1.899.642l.156-.458-.156.458zm28.579-1.61l.197.442-.197-.442zm-89.502 13.063l.326.357.253-.23-.133-.316-.446.189zm-9.192 6.289l-.196-.442.196.442zm-28.58 1.61l-.157.457.001.001.156-.458zm0-.001l.157-.457-.001-.001-.156.458zm-1.899-.641l.153-.459-.153.459zm-11.611-8.709l-.444-.191-.119.277.196.229.367-.315zm124.819-29.995c9.806 0 15.986 3.106 19.709 6.179 1.865 1.539 3.121 3.076 3.908 4.224.394.574.67 1.05.847 1.38.088.165.151.293.192.378l.044.096a.285.285 0 01.012.026v.001l.446-.189.445-.189-.001-.001-.001-.003a15.966 15.966 0 00-1.186-2.046c-.83-1.211-2.145-2.818-4.09-4.424-3.897-3.216-10.295-6.399-20.325-6.399v.967zm-26.124 10.644l.444.191c0 .001 0 .001 0 0l.001-.003.008-.018.039-.081c.037-.074.094-.185.176-.329.163-.288.422-.705.8-1.209.755-1.008 1.985-2.363 3.874-3.722 3.771-2.716 10.201-5.473 20.782-5.473v-.967c-10.759 0-17.392 2.806-21.348 5.654-1.975 1.422-3.274 2.849-4.083 3.928-.404.539-.685.991-.867 1.312a7.374 7.374 0 00-.251.482l-.014.03-.004.009-.001.003v.001l.444.192zm11.764 8.249c-2.807-.936-5.65-3.059-7.814-4.983a44.931 44.931 0 01-2.603-2.512c-.313-.329-.56-.597-.727-.783-.084-.093-.147-.165-.19-.214l-.048-.055-.012-.013-.002-.004h-.001l-.367.315c-.368.314-.368.314-.367.315l.001.001.003.004.014.016.052.059a35.314 35.314 0 00.945 1.027 45.264 45.264 0 002.659 2.568c2.189 1.946 5.152 4.177 8.151 5.177l.306-.918zm1.902.643c-.569-.194-1.196-.408-1.902-.643l-.306.918c.702.234 1.327.447 1.896.641l.312-.916zm11.007 1.751c-2.971 0-4.697-.094-6.186-.355-1.489-.261-2.756-.692-4.821-1.396l-.312.916c2.05.699 3.39 1.157 4.966 1.433s3.372.37 6.353.37v-.968zm17.22-3.345c-5.86 2.599-10.498 3.345-17.22 3.345v.968c6.824 0 11.602-.763 17.613-3.429l-.393-.884zm9.389-5.847l-.326-.358-.001.001-.002.002-.01.008-.039.036a38.476 38.476 0 01-.745.646 51.302 51.302 0 01-2.095 1.683c-1.731 1.318-3.994 2.863-6.171 3.829l.393.884c2.28-1.011 4.613-2.61 6.364-3.943a54.314 54.314 0 002.135-1.714 40.178 40.178 0 00.807-.703l.011-.01.003-.002.001-.001-.325-.358zm-98.695 19.352c.446-.189.446-.189.445-.19v-.001l-.001-.002-.004-.01-.014-.031a9.617 9.617 0 00-.267-.535 15.914 15.914 0 00-.901-1.47c-.831-1.211-2.145-2.819-4.09-4.424-3.897-3.216-10.295-6.4-20.325-6.4v.968c9.806 0 15.986 3.106 19.709 6.179 1.865 1.539 3.121 3.076 3.908 4.224.393.574.67 1.05.846 1.38.089.165.152.293.193.378l.044.096.01.022.002.004v.001l.445-.189zm-8.996 6.731c2.28-1.011 4.613-2.61 6.365-3.943a52.432 52.432 0 002.9-2.379l.042-.038.011-.01.003-.003h.001v-.001l-.326-.357-.326-.358-.002.003a.048.048 0 00-.01.008l-.039.035-.155.138a52.008 52.008 0 01-2.685 2.192c-1.731 1.317-3.994 2.863-6.171 3.829l.392.884zm-17.612 3.428c6.824 0 11.602-.762 17.612-3.428l-.392-.884c-5.86 2.599-10.498 3.345-17.22 3.345v.967zm-11.32-1.802c2.051.699 3.39 1.156 4.966 1.433 1.576.276 3.373.369 6.354.369v-.967c-2.971 0-4.698-.094-6.186-.355-1.489-.261-2.756-.692-4.822-1.396l-.312.916zm-.001-.001l.314-.915-.314.915zm-1.895-.64c.703.234 1.327.447 1.896.64l.312-.916c-.568-.193-1.196-.407-1.902-.642l-.306.918zm-11.458-9.168l-.367.315v.001l.002.001.003.004.014.016.051.059.199.223c.172.192.425.468.746.804a45.94 45.94 0 002.659 2.567c2.19 1.947 5.153 4.178 8.151 5.178l.306-.918c-2.807-.936-5.649-3.059-7.814-4.983a44.866 44.866 0 01-2.602-2.512 35.354 35.354 0 01-.917-.997l-.048-.055-.012-.014-.003-.003v-.001l-.368.315zm26.125-11.611c-10.759 0-17.392 2.807-21.348 5.655-1.975 1.422-3.274 2.849-4.083 3.928-.404.539-.685.991-.867 1.312-.091.16-.157.288-.202.377l-.05.105-.013.03-.004.008-.001.003-.001.001.444.192.445.192h-.001l.002-.003a.173.173 0 01.008-.018l.039-.081c.036-.074.094-.185.175-.329.163-.288.423-.705.8-1.209.756-1.008 1.986-2.363 3.874-3.723 3.772-2.715 10.201-5.472 20.783-5.472v-.968zm67.248 103.048a9.191 9.191 0 00-9.192 9.192h.967a8.224 8.224 0 018.225-8.225v-.967zm29.995 0h-29.995v.967h29.995v-.967zm9.192 9.192a9.192 9.192 0 00-9.192-9.192v.967a8.224 8.224 0 018.224 8.225h.968zm-9.192 9.192a9.193 9.193 0 009.192-9.192h-.968a8.224 8.224 0 01-8.224 8.224v.968zm-29.995 0h29.995v-.968h-29.995v.968zm-9.192-9.192a9.192 9.192 0 009.192 9.192v-.968a8.224 8.224 0 01-8.225-8.224h-.967z"/>
    </g>
    <path fill="#050505" fill-opacity=".38" stroke="#000" stroke-width=".968" d="M752.18 118.83c19.836 0 25.158 12.579 25.158 12.579s-4.736 4.312-9.193 6.289c-5.935 2.633-10.643 3.387-17.416 3.387s-6.924-1.452-12.729-3.387c-5.805-1.935-11.944-7.74-11.944-7.74s4.783-11.128 26.124-11.128z" class="Vector 6.3"/>
    <g class="Group_3">
      <path fill="#F3F3F3" stroke="#000" stroke-width=".968" d="M764.758 95.125h-17.9v25.641c3.565 3.242 5.577 3.837 9.192 1.451l-.968-9.192c9.676 2.322 10.16-10.966 9.676-17.9z" class="Vector 5_3"/>
      <path fill="#000" stroke="#000" stroke-width=".51" d="M743.52 90.588c-6.123 7.96-1.142 16.59 2.855 20.502l1.934.484c-.765-1.531-.483-5.98-.483-8.225 0-2.245 2.156-.94 3.092-.515-1.361-1.02-3.734-5.037 1.02-6.888 4.596-1.789 9.917 2.082 12.757 2.082l3.45-3.87c5.51-2.654-.559-5.95-3.45-8.162-2.858-8.572-9.695-2.721-12.757 1.276-1.836-.817-6.462 2.21-8.418 3.316z" class="Vector 4.1_3"/>
    </g>
    <rect width="116.065" height="48.335" x="474.506" y="298.823" fill="#F8F8F8" stroke="#000" stroke-width="1.012" class="Rectangle 4_2" rx="8.202"/>
    <g class="Star">
      <path fill="#3E4EDD" stroke="#000" stroke-width=".524" d="M494.615 316.711c.211-.65 1.131-.65 1.342 0l1.035 3.185c.165.507.637.85 1.17.85h3.349c.683 0 .967.875.414 1.276l-2.709 1.969a1.23 1.23 0 00-.447 1.375l1.035 3.185c.211.65-.533 1.19-1.086.789l-2.709-1.969a1.23 1.23 0 00-1.446 0l-2.709 1.969c-.553.401-1.297-.139-1.086-.789l1.035-3.185a1.23 1.23 0 00-.446-1.375l-2.71-1.969c-.553-.401-.269-1.276.415-1.276h3.349c.533 0 1.005-.343 1.169-.85l1.035-3.185z" class="Star_2"/>
    </g>
    <g class="Star_3">
      <path fill="#3E4EDD" d="M520.491 316.63c.29-.891 1.551-.891 1.841 0l1.035 3.185a.967.967 0 00.92.669h3.349c.937 0 1.327 1.199.569 1.75l-2.71 1.969a.967.967 0 00-.351 1.082l1.035 3.185c.289.891-.731 1.633-1.489 1.082l-2.71-1.969a.968.968 0 00-1.137 0l-2.709 1.969c-.759.551-1.779-.191-1.489-1.082l1.034-3.185a.967.967 0 00-.351-1.082l-2.709-1.969c-.759-.551-.369-1.75.568-1.75h3.349a.97.97 0 00.921-.669l1.034-3.185z" class="Star_4"/>
    </g>
    <g class="Star_5">
      <path fill="#3E4EDD" d="M546.615 316.63c.29-.891 1.551-.891 1.841 0l1.035 3.185a.967.967 0 00.92.669h3.349c.937 0 1.327 1.199.569 1.75l-2.71 1.969a.967.967 0 00-.351 1.082l1.035 3.185c.289.891-.731 1.633-1.489 1.082l-2.71-1.969a.968.968 0 00-1.137 0l-2.709 1.969c-.759.551-1.779-.191-1.489-1.082l1.035-3.185a.969.969 0 00-.352-1.082l-2.709-1.969c-.759-.551-.369-1.75.568-1.75h3.349c.42 0 .791-.27.921-.669l1.034-3.185z" class="Star_6"/>
    </g>
    <g class="Star_7">
      <path fill="#3E4EDD" d="M572.741 316.63c.29-.891 1.551-.891 1.84 0l1.035 3.185c.13.399.501.669.921.669h3.349c.937 0 1.327 1.199.568 1.75l-2.709 1.969a.969.969 0 00-.352 1.082l1.035 3.185c.29.891-.73 1.633-1.489 1.082l-2.709-1.969a.97.97 0 00-1.138 0l-2.709 1.969c-.758.551-1.779-.191-1.489-1.082l1.035-3.185a.966.966 0 00-.352-1.082l-2.709-1.969c-.758-.551-.368-1.75.569-1.75h3.349c.419 0 .791-.27.92-.669l1.035-3.185z" class="Star_8"/>
    </g>
  </g>
</svg>
