<svg xmlns="http://www.w3.org/2000/svg" width="1155" height="700" fill="none" viewBox="0 0 1155 700">
  <g class="leave_feedback_woman">
    <path fill="#fff" d="M0 0h1155v700H0z"/>
    <g class="Group 6">
      <g class="Group 11">
        <rect width="245" height="486" x="285" y="150" fill="#E7ECEF" class="Rectangle 4" rx="22"/>
        <g class="Group 10">
          <rect width="105" height="101" x="299" y="222" fill="#fff" fill-opacity=".75" class="Rectangle 5" rx="10"/>
          <g class="Group 8">
            <rect width="105" height="6" x="299" y="337" fill="#fff" class="Rectangle 6" rx="3"/>
            <rect width="76" height="6" x="299" y="346" fill="#fff" class="Rectangle 6.1" rx="3"/>
          </g>
        </g>
        <g class="Group 10_2">
          <rect width="105" height="101" x="414" y="222" fill="#fff" fill-opacity=".75" class="Rectangle 5_2" rx="10"/>
          <g class="Group 8_2">
            <rect width="105" height="6" x="414" y="337" fill="#fff" class="Rectangle 6_2" rx="3"/>
            <rect width="76" height="6" x="414" y="346" fill="#fff" class="Rectangle 6.1_2" rx="3"/>
          </g>
        </g>
        <g class="Group 10_3">
          <rect width="105" height="101" x="299" y="376" fill="#fff" fill-opacity=".75" class="Rectangle 5_3" rx="10"/>
          <g class="Group 8_3">
            <rect width="105" height="6" x="299" y="491" fill="#fff" class="Rectangle 6_3" rx="3"/>
            <rect width="76" height="6" x="299" y="500" fill="#fff" class="Rectangle 6.1_3" rx="3"/>
          </g>
        </g>
        <g class="Group 10_4">
          <rect width="105" height="101" x="414" y="376" fill="#fff" fill-opacity=".75" class="Rectangle 5_4" rx="10"/>
          <g class="Group 8_4">
            <rect width="105" height="6" x="414" y="491" fill="#fff" class="Rectangle 6_4" rx="3"/>
            <rect width="76" height="6" x="414" y="500" fill="#fff" class="Rectangle 6.1_4" rx="3"/>
          </g>
        </g>
        <rect width="115" height="38" x="299" y="530" fill="#fff" class="Rectangle 5_5" rx="8"/>
        <rect width="99" height="38" x="420" y="530" fill="#fff" fill-opacity=".41" class="Rectangle 5.1" rx="8"/>
      </g>
      <path fill="#FFA9A4" fill-rule="evenodd" d="M542.678 241.988v28.5h20.5l1-7s-2.5-3-2.5-6.5v-8.416c9.719-1.62 9.429-15.934 8.322-31.072-6.8-14.8-25.322-12.512-29.322-2.012-3.41 7.247-.884 16.191 1.071 23.112.338 1.196.659 2.332.929 3.388zM477.5 440l-1.5-5v-26h11.5v15s3.5 14.5 1.5 14.5c-1.451 0-2.127-1.381-2.769-2.691-.585-1.195-1.141-2.332-2.231-2.309-6.296.129 3.5 16.5 3.5 16.5-3 3-6.5-3.5-10-10zm164.326-156.776c-1.24-7.625-2.668-16.397.674-13.724 2.265 1.812 2.606 3.656 2.839 4.915.178.964.293 1.585 1.161 1.585.5-9.667 3.6-24.9 6-22.5 1.85 1.85 1.145 7.088.495 11.91-.193 1.433-.381 2.83-.495 4.09 2-1.167 9.7 2.1 12.5 6.5 3.5 5.5-6 16-8 16.5-.99.248-1.457.955-1.946 1.695-.301.456-.61.924-1.054 1.305l-3 7.5-4.5 15-11.5-8.5 7.5-22a264.957 264.957 0 00-.674-4.276zM524 619l-1-32.5V584h18v50.5c0 2-52 0-52 0 0-1.167 0-2.5 8.5-6.5 2.171-1.022 26.5-9 26.5-9zm66.5-31.5V623s27.828 4.978 30 6c8.499 4 8.5 5.333 8.5 6.5 0 0-52 2-52 0 0-6.5-4-50.5-4-50.5h17.5v2.5z" class="Union" clip-rule="evenodd"/>
      <g class="Vector 13">
        <path fill="#193272" d="M600.5 625.5c14.4 0 27.5 7.333 28.5 10h-33c-.2-4.8 2.833-9.333 4.5-10z"/>
        <path stroke="#193272" d="M577.5 635.5H596m0 0h33c-1-2.667-14.1-10-28.5-10-1.667.667-4.7 5.2-4.5 10z"/>
      </g>
      <g class="Vector 13.1">
        <path fill="#193272" d="M516.5 623c-14.4 0-28.5 9.333-29.5 12h33c.2-4.8-1.833-11.333-3.5-12z"/>
        <path stroke="#193272" d="M540.5 635H520m0 0h-33c1-2.667 15.1-12 29.5-12 1.667.667 3.7 7.2 3.5 12z"/>
      </g>
      <path fill="#000" fill-opacity=".07" d="M550 257l-5.5-25.5-1.5 1.5v27l7 3.5V257z" class="Vector 12"/>
      <path fill="#FFAFDF" d="M504.5 262l38-8c6 11 18 6.5 19 1l38.5 15c.4 4.8 12.167 40.667 18.5 59 3.549-10.758 9.504-28.453 13.209-38.5l-1.709-2 2.5-8 2.5 2.5c.4 2 13.833 18.167 20.5 26l2.5 3-2.5 5.5-2.583-2c-13.287 31.627-24.917 64.691-39.417 60-17-5.5-23-32.5-28-51.5 3.908 15.778 2.702 38.364 2.028 50.974l-.028.526c-14 6-57.833 2.5-78 0v-50c-4.8 8.8-10.667 52.667-13.5 81l-1.5 13-28 2L464 409h2.5c0-45 22.167-113.833 38-147z" class="Vector"/>
      <path fill="#000" fill-opacity=".06" d="M581 307l-2 70h9c2-4.4.167-35-1.5-50 3.6 15.6 10 35 17 41.5l5 4.5-2.5-8s-5-18.5-18-42.5c-2.121-3.915-7-15.5-7-15.5z" class="Vector 11"/>
      <path fill="#000" fill-opacity=".06" d="M488 409.5l8-3.5c4-43 9.333-67.667 13.5-79.5V375l7.5 3-3.5-81-7 14.5c-9.5 16.5-15.833 72.167-18.5 98z" class="Vector 10"/>
      <path fill="#0D293E" d="M556.46 196.094c-5.5 0-10.591 3.2-16.96 9.406-8.176 7.967-4.541 14.5-12.5 31.5-3.359 7.173-3 15 1.5 20l13.5-3c4.268-4.013 6.596-9.781 4.959-15.406-1.171-4.025-4.124-6.824-4.499-11-.455-5.056 4.499-10.5 4.499-10.5l4.541-4.594 20.959 4.594c1-6.666.501-19-15.999-21z" class="Vector 4"/>
      <path fill="#000" fill-opacity=".13" d="M550.5 426l9.5 163h-2.5l2.5 7h10.5l1.5-7-8.5-79-6-41.5-7-42.5z" class="Vector 8"/>
      <path stroke="#000" stroke-dasharray="5 5" stroke-width="2" d="M593.5 129.5s5.287 28.319 19.5 34c12.163 4.862 21.507-12.284 33-6 15.295 8.363 3.5 44.5 3.5 44.5" class="Vector 5"/>
      <path stroke="#000" stroke-dasharray="5 5" stroke-width="2" d="M686 127s-2.713 31.819 11.5 37.5c12.163 4.862 29.007-14.284 40.5-8 15.295 8.363 4 43 4 43" class="Vector 5.1"/>
      <g class="Group 2">
        <rect width="167" height="74" x="638" y="189" fill="#F7F7F7" class="Rectangle" rx="8"/>
        <rect width="141" height="6" x="650" y="203" fill="#E3E3E3" class="Rectangle 2" rx="3"/>
        <rect width="79" height="6" x="650" y="215" fill="#E3E3E3" class="Rectangle 2.1" rx="3"/>
        <rect width="49" height="18" x="650" y="234" fill="#18ABB3" class="Rectangle 3" rx="9"/>
      </g>
      <circle cx="589.5" cy="113.5" r="37.5" fill="#8AE3FF" class="Ellipse"/>
      <g class="Group 6_2">
        <path fill="#253093" fill-rule="evenodd" d="M615.5 140.5s-5.5-13-26-13c-22.056 0-27 11.5-27 11.5s6 7 12 9c.728.243 1.375.463 1.963.664 4.254 1.45 5.386 1.836 11.537 1.836 7 0 11.866-.779 18-3.5 4.606-2.043 9.5-6.5 9.5-6.5zM510.5 375c-4.761 59.748-12.127 179.058-6.679 214H502l3.5 7h41l3.5-7h-3.336l3.836-163.5 9.11 163.5h-2.11l2.5 7h39l3-7h-3.199L595.5 473l-7-98c-3.084.873-6.501 1.714-14 2.384-1.274.113-4.607.372-6 .465-9.647.642-15.117.73-30-.465-1.01-.081-1.804-.034-2.599.013-.871.052-1.743.104-2.901-.013-.998-.101-2.376-.235-3.976-.391-5.823-.567-14.574-1.418-18.524-1.993z" class="Union_2" clip-rule="evenodd"/>
      </g>
      <path fill="#000" fill-opacity=".13" d="M593 548l-9-171.5 4-2c3.2 8.4 9.5 128 9.5 188.5l-4.5-15z" class="Vector 9"/>
      <path fill="#000" fill-opacity=".13" d="M516.5 425.5L511 375c-2 8.5-10.5 105-8 214.5l3 6.5h21l-10.5-170.5z" class="Vector 7"/>
      <g class="Group">
        <path fill="#B58383" d="M602.5 103H584v26.5c3.685 3.351 5.764 3.965 9.5 1.5l-1-9.5c10 2.4 10.5-11.333 10-18.5z" class="Vector 5_2"/>
        <path fill="#000" stroke="#000" stroke-width=".527" d="M580.55 98.312c-6.328 8.226-1.18 17.145 2.951 21.188l1.999.5c-.791-1.582-.5-6.18-.5-8.5 0-2.32 2.229-.972 3.196-.532-1.406-1.055-3.86-5.206 1.055-7.119C594 102 599.5 106 602.434 106l3.566-4c5.695-2.742-.577-6.15-3.566-8.434-2.953-8.86-10.019-2.813-13.183 1.318-1.899-.844-6.68 2.285-8.701 3.428z" class="Vector 4.1"/>
      </g>
      <g class="Group 5">
        <circle cx="691.5" cy="93.5" r="37.5" fill="#A7B0FF" class="Ellipse_2"/>
        <g class="Group 2_2">
          <path fill="#504DF5" d="M691.5 107.5c20.5 0 26 13 26 13s-4.894 4.457-9.5 6.5c-6.134 2.721-11 3.5-18 3.5s-7.5-.5-13.5-2.5-12-9-12-9 4.944-11.5 27-11.5z" class="Vector 6.2"/>
          <g class="Group_2">
            <path fill="#F3F3F3" d="M704.5 83H686v26.5c3.685 3.351 5.764 3.965 9.5 1.5l-1-9.5c10 2.4 10.5-11.333 10-18.5z" class="Vector 5_3"/>
            <path fill="#000" stroke="#000" stroke-width=".527" d="M682.55 78.312c-6.328 8.226-1.18 17.145 2.951 21.188l1.999.5c-.791-1.582-.5-6.18-.5-8.5 0-2.32 2.229-.972 3.196-.532-1.406-1.055-3.86-5.207 1.055-7.12C696 82 701.5 86 704.434 86L708 82c5.695-2.742-.577-6.15-3.566-8.434-2.953-8.86-10.019-2.813-13.183 1.318-1.899-.844-6.68 2.285-8.701 3.428z" class="Vector 4.1_2"/>
          </g>
        </g>
      </g>
      <g class="Group 2_3">
        <rect width="121" height="51" x="404" y="293" fill="#F8F8F8" class="Rectangle 4_2" rx="9"/>
        <g class="Star">
          <path fill="#FFAF36" d="M425.049 311.927c.299-.921 1.603-.921 1.902 0l1.07 3.292a1 1 0 00.951.691h3.461c.969 0 1.371 1.239.588 1.809l-2.801 2.034a1 1 0 00-.363 1.118l1.07 3.292c.299.921-.755 1.688-1.539 1.118l-2.8-2.034a1 1 0 00-1.176 0l-2.8 2.034c-.784.57-1.838-.197-1.539-1.118l1.07-3.292a1 1 0 00-.363-1.118l-2.801-2.034c-.783-.57-.381-1.809.588-1.809h3.461a1 1 0 00.951-.691l1.07-3.292z" class="Star_2"/>
        </g>
        <g class="Star_3">
          <path fill="#FFAF36" d="M452.049 311.927c.299-.921 1.603-.921 1.902 0l1.07 3.292a1 1 0 00.951.691h3.461c.969 0 1.371 1.239.588 1.809l-2.801 2.034a1 1 0 00-.363 1.118l1.07 3.292c.299.921-.755 1.688-1.539 1.118l-2.8-2.034a1 1 0 00-1.176 0l-2.8 2.034c-.784.57-1.838-.197-1.539-1.118l1.07-3.292a1 1 0 00-.363-1.118l-2.801-2.034c-.783-.57-.381-1.809.588-1.809h3.461a1 1 0 00.951-.691l1.07-3.292z" class="Star_4"/>
        </g>
        <g class="Star_5">
          <path fill="#FFAF36" d="M479.049 311.927c.299-.921 1.603-.921 1.902 0l1.07 3.292a1 1 0 00.951.691h3.461c.969 0 1.371 1.239.588 1.809l-2.801 2.034a1 1 0 00-.363 1.118l1.07 3.292c.299.921-.755 1.688-1.539 1.118l-2.8-2.034a1 1 0 00-1.176 0l-2.8 2.034c-.784.57-1.838-.197-1.539-1.118l1.07-3.292a1 1 0 00-.363-1.118l-2.801-2.034c-.783-.57-.381-1.809.588-1.809h3.461a1 1 0 00.951-.691l1.07-3.292z" class="Star_6"/>
        </g>
        <g class="Star_7">
          <path fill="#FFAF36" d="M506.049 311.927c.299-.921 1.603-.921 1.902 0l1.07 3.292a1 1 0 00.951.691h3.461c.969 0 1.371 1.239.588 1.809l-2.801 2.034a1 1 0 00-.363 1.118l1.07 3.292c.299.921-.755 1.688-1.539 1.118l-2.8-2.034a1 1 0 00-1.176 0l-2.8 2.034c-.784.57-1.838-.197-1.539-1.118l1.07-3.292a1 1 0 00-.363-1.118l-2.801-2.034c-.783-.57-.381-1.809.588-1.809h3.461a1 1 0 00.951-.691l1.07-3.292z" class="Star_8"/>
        </g>
      </g>
      <path stroke="#000" stroke-opacity=".24" stroke-width="3" d="M234 635h537.5" class="Vector_2"/>
    </g>
  </g>
</svg>
