<svg xmlns="http://www.w3.org/2000/svg" width="800" height="600" fill="none" viewBox="0 0 800 600">
  <g class="male_editing">
    <path fill="#fff" d="M0 0h800v600H0z"/>
    <rect width="674.057" height="415.017" x="62.972" y="92.491" fill="#D5FDF8" class="Primary" rx="30"/>
    <path fill="#616161" fill-opacity=".15" fill-rule="evenodd" d="M105.789 143.488a9 9 0 00-9 9v22a9 9 0 009 9h588.422a9 9 0 009-9v-22a9 9 0 00-9-9H105.789zM460.971 254.05c0-11.046 8.955-20 20-20h190.231c11.046 0 20 8.954 20 20 0 11.045-8.954 20-20 20H480.971c-11.046 0-20-8.955-20-20zm-64.737 106.449c0 67.246-54.514 121.761-121.76 121.761-67.247 0-121.761-54.515-121.761-121.761 0-67.247 54.514-121.761 121.761-121.761 67.246 0 121.76 54.514 121.76 121.761zm84.737-60.013c-11.045 0-20 8.955-20 20 0 11.046 8.954 20 20 20h190.231c11.046 0 20-8.954 20-20 0-11.045-8.954-20-20-20H480.971zm43.116 93.465c0 11.045-8.955 20-20 20-11.046 0-20-8.955-20-20 0-11.046 8.954-20 20-20 11.045 0 20 8.954 20 20zm52 20c11.045 0 20-8.955 20-20 0-11.046-8.955-20-20-20-11.046 0-20 8.954-20 20 0 11.045 8.954 20 20 20zm92-20c0 11.045-8.955 20-20 20-11.046 0-20-8.955-20-20 0-11.046 8.954-20 20-20 11.045 0 20 8.954 20 20z" class="Shadow" clip-rule="evenodd"/>
    <path fill="#C4C4C4" d="M229.604 381.786s13.89-39.449 13.5-63.741c17.927-1.688 58.178-7.487 52.255 8.413-5.924 15.9 13.379 42.478 23.772 53.78l6.625 22.213-83.539 25.134-12.613-45.799z" class="Vector"/>
    <path fill="#C4C4C4" fill-rule="evenodd" d="M314.741 251.11l.001-.363c0-22.24-18.029-40.269-40.269-40.269-22.239 0-40.268 18.029-40.268 40.269 0 4.89.871 9.576 2.467 13.912l7.081 59.008s64.576 31.925 88.519 13.06c-6.53-36.278-17.53-85.617-17.53-85.617h-.001z" class="Union" clip-rule="evenodd"/>
    <path stroke="#4B4B4B" stroke-linecap="round" stroke-width="2" d="M314.999 266.536s12.284 18.786 10.598 22.158-12.525 6.744-12.525 6.744" class="Vector 2"/>
    <path fill="#8F8E8E" d="M322.111 307.149l-16.452 2.419c1.129 2.42 6.452 6.29 11.935 5.484 4.388-.645 4.839-5.538 4.517-7.903z" class="Vector 5"/>
    <path fill="#8F8E8E" d="M264.816 332.572l30.59 8.616c4.176 13.987 11.486 23.266 15.749 29.49 0 0-38.75-27.363-46.339-38.106z" class="Vector 6"/>
    <path fill="#0F006A" d="M385.528 311.738h5.019v5.018h-5.019v-5.018z" class="Rectangle"/>
    <path fill="#6319F5" fill-rule="evenodd" d="M311.664 163.084a1.985 1.985 0 11-3.969-.001 1.985 1.985 0 013.969.001zm1 0a2.984 2.984 0 01-3.129 2.981c-.465 1.707-.639 4.213-.416 7.371.26 3.677 1.055 8.186 2.506 13.245 2.901 10.117 8.42 22.403 17.498 34.585 18.04 24.205 47.075 43.525 62.345 52.45a2.986 2.986 0 015.687 1.27 2.985 2.985 0 11-5.958-.27c-15.235-8.881-44.619-28.357-62.876-52.853-9.153-12.282-14.724-24.678-17.658-34.906-1.466-5.114-2.275-9.693-2.541-13.451-.224-3.164-.065-5.783.436-7.655a2.987 2.987 0 011.121-5.752 2.984 2.984 0 012.985 2.985zm-38.845 91.133l-7.212-11.539c-3.923 4.385 0 25.511 3.338 33.643l-9.065 1.867c-1.731-8.655-9.851-16.855-16.486-9.066-4.186 4.914 1.199 12.546 6.542 20.119 3.127 4.432 6.239 8.843 7.411 12.677 3.173 10.385-8.761 13.458-13.953 14.612-5.193 1.154-10.153-2.323-8.711-18.479.766-8.574-3.897-17.712-8.917-27.549-4.438-8.697-9.155-17.941-10.644-27.824-2.539-16.848 10.289-16.059 17.021-13.559-2.02-2.115 4.231-15.748 11.251-22.741 17.831-17.762 61.257-11.579 79.085 10.514 12.962 16.063 1.402 29.825 1.402 29.825s-33.272 8.847-51.062 7.5zM394.17 276.97a1.985 1.985 0 10.001-3.969 1.985 1.985 0 00-.001 3.969zm30.596 91.169l-36.942-54.67 64.279 12.673-18.964 7.802 17.814 12.773-8.337 11.627-17.85-12.799v22.594zm-150.292 44.165c23.245 0 42.323-15.021 44.281-34.16 76.033 19.062 93.231 63.704 98.753 90.151 5.521 26.446-295.135 88.61-286.301 36.317 8.833-52.294 33.545-114.613 98.985-126.468 1.959 19.139 21.036 34.16 44.282 34.16z" class="Secondary" clip-rule="evenodd"/>
    <path stroke="#2041B6" stroke-dasharray="2 2" stroke-width="2" d="M282.271 151.407l106.56 163.471" class="Vector 8"/>
    <path fill="#0F006A" d="M279.016 148.085h5.018v5.018h-5.018v-5.018z" class="Rectangle_2"/>
    <path fill="#0F006A" d="M320 220.482l8.104-5.755 5.756 8.104-8.105 5.755z" class="Rectangle_3"/>
    <path fill="#000" fill-opacity=".32" fill-rule="evenodd" d="M318.755 378.144c-1.958 19.139-21.036 34.16-44.281 34.16-23.246 0-42.323-15.021-44.282-34.16-65.44 11.855-90.152 74.175-98.985 126.468-8.834 52.293 291.822-9.871 286.301-36.317-5.522-26.447-22.72-71.089-98.753-90.151z" class="Subtract" clip-rule="evenodd"/>
  </g>
</svg>
