<svg xmlns="http://www.w3.org/2000/svg" width="800" height="600" fill="none" viewBox="0 0 800 600">
  <g class="man_reading_a_book">
    <path fill="#fff" d="M0 0h800v600H0z"/>
    <path fill="#6C6867" d="M664.324 285.388c-5.738-3.905-27.888 44.355-34.895 61.775 3.335 11.915 20.264 34.078 25.61 35.917 6.681 2.298 64.379-36.753 70.047-43.54 5.669-6.786-2.606-43.98-12.066-50.568-7.568-5.27-29.987 13.6-43.763 29.362-1.63-16.668.805-29.04-4.933-32.946z" class="Vector 6"/>
    <path fill="#030C23" fill-opacity=".2" fill-rule="evenodd" d="M668.464 300.465l-23.046 11.6a449.42 449.42 0 00-3.389 6.882l47.14 46.591c9.312-5.983 18.698-12.435 25.601-17.531l-35.148-40.494a171.258 171.258 0 00-10.365 10.821c-.525-5.376-.628-10.305-.719-14.647a508.043 508.043 0 00-.074-3.222z" class="Intersect" clip-rule="evenodd"/>
    <path fill="#F4F2E3" d="M602.265 328.06C585.94 442.812 463.352 527.079 348.599 510.754 233.847 494.43 181.61 385.293 197.934 270.541 214.259 155.788 341.03 73.545 455.783 89.869c114.752 16.325 162.806 123.438 146.482 238.191z" class="Ellipse"/>
    <path stroke="#253080" stroke-linecap="round" d="M62.805 412.785c14.767-83.371 139.373-231.816 335.773-215.572 245.499 20.304-272.265 300.875-17.536 318.411 254.729 17.535 243.654-344.254 342.407-331.333 79.003 10.337 61.221 172.281 42.455 251.961" class="Vector"/>
    <path fill="#F9F07D" fill-rule="evenodd" d="M303.631 378.04c-7.751 11.342-17.841 24.597-31.293 37.002-13.268 12.236-28.619 21.594-45.893 25.451-17.775 3.969-35.441 1.604-51.545-6.283-30.491-14.934-52.201-47.765-67.379-86.821l61.517-23.907c13.144 33.821 26.84 47.512 34.893 51.455 3.169 1.553 5.559 1.716 8.132 1.142 3.073-.686 8.362-2.943 15.531-9.555 12.081-11.141 19.228-22.119 27.57-34.931l.001-.002a811.235 811.235 0 016.241-9.486c10.772-16.056 26.811-37.435 57.935-43.927 30.224-6.305 68.851-8.403 104.72-5.818 34.414 2.48 73.032 9.694 98.72 26.929 31.261 20.974 49.123 45.735 59.183 66.054 12.303-6.363 28.339-16.376 46.706-31.937l42.664 50.357c-30.895 26.174-57.811 40.604-76.66 48.422-16.238 6.735-32.443 3.837-44.554-3.148-10.098-5.824-17.847-14.602-22.769-24.381-.21 22.724-7.166 42.032-36.344 46.017-36.889 5.038-152.038 5.989-166.621-1.813-17.029-9.11-22.147-40.267-20.755-70.82z" class="{rimary" clip-rule="evenodd"/>
    <path fill="#6C6867" fill-rule="evenodd" d="M414.908 252.814c6.108 5.617 13.479 8.917 22.265 8.641 6.762-.212 12.601-2.488 17.603-6.257-.114 14.868-3.603 33.746-10.292 37.975-4.621 2.921-16.288 2.086-28.189.074-7.822-1.323-9.462-14.386-4.044-20.181 3.917-4.19 4.074-12.062 2.657-20.252z" class="Subtract" clip-rule="evenodd"/>
    <path fill="#081D52" fill-rule="evenodd" d="M480.25 183.223c-1.305-9.566-5.416-23.741-8.519-33.086-4.802-4.437-15.077-11.417-32.197-11.417-9.425 0-20.483-1.996-25.955-3.118-9.022 6.272-14.6 27.913-13.822 34.818l-9.425 15.04c.606 8.795 2.011 18.414 4.347 27.762-5.701 1.634-11.726-11.521-14.448-17.465-.568-1.24-.992-2.166-1.239-2.579-1.535-2.558-2.302-8.952 4.092-12.022 2.387-1.145 4.495-.74 6.195.288-2.321-10.801-6.788-39.748 9.365-49.341a17.448 17.448 0 0111.089-2.319c1.933-22.606 53.959-39.28 67.593-31.74 16.805 9.292 4.169 41.425-.65 52.157 1.751.751 3.238 2.12 4.068 5.232 2.014 7.54 2.127 20.003.833 25.801 1.632-.868 3.609-1.142 5.825-.078 6.395 3.07 5.627 9.464 4.093 12.022-.31.517-.783 1.806-1.399 3.487v.001c-2.431 6.631-7.102 19.372-12.887 14.998 1.964-9.6 2.921-19.458 3.041-28.441zm-78.904 1.986c.342-.621 1.142-1.505 2.388-2.486 1.218-.959 2.758-1.929 4.453-2.754 3.454-1.679 7.253-2.614 10.167-1.956a1.5 1.5 0 00.66-2.926c-3.898-.881-8.454.392-12.139 2.185-1.874.911-3.599 1.993-4.996 3.093-1.368 1.077-2.533 2.258-3.161 3.397a1.5 1.5 0 002.628 1.447zm29.359 2.984a.999.999 0 111.955.421c-.827 3.833-1.897 9.725-2.421 14.937-.262 2.611-.384 5.015-.28 6.892.052.94.16 1.713.319 2.297.166.61.355.888.472.989 2.448 2.122 5.693 2.388 6.951 2.256a1 1 0 11.209 1.989c-1.615.17-5.476-.139-8.47-2.734-.564-.488-.888-1.227-1.092-1.974-.21-.773-.329-1.699-.386-2.712-.113-2.029.02-4.552.287-7.203.534-5.311 1.619-11.28 2.456-15.158zm39.275-1.955c1.136 1.109 1.838 2.072 2.112 2.726a1.501 1.501 0 002.767-1.161c-.504-1.199-1.538-2.497-2.784-3.712-1.273-1.242-2.873-2.501-4.64-3.605-3.475-2.173-7.871-3.921-11.84-3.458a1.5 1.5 0 00.347 2.98c2.966-.346 6.646.986 9.902 3.021 1.599 1 3.028 2.128 4.136 3.209zm-41.137 46.87c1.482.978 4.153 2.113 7.184 2.229 2.978.113 6.306-.752 9.295-3.765a1.5 1.5 0 012.13 2.113c-3.653 3.683-7.832 4.791-11.539 4.649-3.654-.139-6.848-1.486-8.721-2.721a1.5 1.5 0 111.651-2.505zm-14.111-42.178a2.527 2.527 0 11-5.054 0 2.527 2.527 0 015.054 0zm41.349 2.506a2.527 2.527 0 100-5.054 2.527 2.527 0 000 5.054zm-18.908 68.02c-8.787.276-16.158-3.025-22.265-8.642.106.613.203 1.223.29 1.83 4.869 6.061 13.159 12.358 25.996 14.395 4.93.782 9.128.422 12.68-.697.568-4.42.87-8.942.902-13.143-5.002 3.769-10.841 6.044-17.603 6.257zM18.24 116.475l178.492 33.473 38.194 193.097-178.492-33.474L18.24 116.475zm696.476 250.454l57.823-84.408-2.18 9.687-54.688 79.83-.897-.615-2.135-1.462-87.115-59.678-5.544-8.254 39.766 27.243 11.312-4.212-.426 11.669 44.084 30.2z" class="Union" clip-rule="evenodd"/>
    <path fill="#6C6867" fill-rule="evenodd" d="M471.731 150.137c3.104 9.344 7.214 23.519 8.52 33.086-.437 32.791-12.032 77.257-43.077 78.232-31.232.982-44.584-43.231-46.841-75.996l9.424-15.039c-.778-6.906 4.801-28.547 13.822-34.818 5.472 1.121 16.531 3.117 25.956 3.117 17.12 0 27.394 6.98 32.196 11.418zm-67.996 32.586c-1.247.981-2.046 1.865-2.388 2.486a1.501 1.501 0 01-2.628-1.447c.627-1.139 1.793-2.32 3.16-3.397 1.398-1.1 3.123-2.182 4.996-3.093 3.685-1.793 8.242-3.066 12.14-2.185a1.5 1.5 0 11-.661 2.926c-2.913-.658-6.713.277-10.166 1.956-1.696.825-3.236 1.795-4.453 2.754zm28.159 4.703a1 1 0 00-1.189.767c-.836 3.878-1.921 9.847-2.455 15.158-.267 2.651-.4 5.174-.287 7.203.056 1.013.176 1.939.386 2.712.204.747.528 1.486 1.091 1.974 2.995 2.595 6.856 2.904 8.471 2.734a1 1 0 00-.209-1.989c-1.258.132-4.503-.134-6.952-2.256-.117-.101-.305-.379-.471-.989-.16-.584-.267-1.357-.319-2.297-.105-1.877.017-4.281.28-6.892.524-5.212 1.594-11.104 2.42-14.937a1 1 0 00-.766-1.188zm40.199 1.538c-.274-.654-.976-1.617-2.112-2.726-1.109-1.081-2.538-2.209-4.136-3.209-3.256-2.035-6.936-3.367-9.902-3.021a1.5 1.5 0 11-.348-2.98c3.97-.463 8.366 1.285 11.84 3.458 1.767 1.104 3.368 2.363 4.641 3.605 1.246 1.215 2.28 2.513 2.783 3.712a1.5 1.5 0 11-2.766 1.161zm-36.065 46.373c-3.032-.116-5.702-1.251-7.184-2.229a1.5 1.5 0 00-1.652 2.505c1.874 1.235 5.068 2.582 8.721 2.721 3.708.142 7.887-.966 11.539-4.649a1.5 1.5 0 10-2.13-2.113c-2.988 3.013-6.316 3.878-9.294 3.765zm-23.822-41.88a2.527 2.527 0 100-5.054 2.527 2.527 0 000 5.054zm46.403-2.548a2.528 2.528 0 11-5.056-.002 2.528 2.528 0 015.056.002z" class="Subtract_2" clip-rule="evenodd"/>
    <path fill="#000" fill-opacity=".1" fill-rule="evenodd" d="M111.716 357.629a296.343 296.343 0 01-4.195-10.239l61.517-23.907c3.996 10.282 8.043 18.704 11.967 25.556-.371 1.362-.857 2.614-1.464 3.735-8.939 16.498-41.62 14.843-67.825 4.855z" class="Intersect_2" clip-rule="evenodd"/>
    <path fill="#625F5E" d="M117.801 357.221c-20.427-6.888-41.561-18.673-47.15-32.522l67.043-1.919c10.788-.198 32.66.534 33.847 5.047 1.485 5.641-28.206 38.004-53.74 29.394z" class="Vector 11"/>
    <g class="Group 6">
      <path fill="#081D52" d="M363.697 360.385l4.879 1.321-5.159 15.702-4.56-2.157 4.84-14.866z" class="Rectangle 2.1"/>
      <path fill="#F4F2E3" d="M368.583 361.723l.368-9.049-5.271 7.744 4.903 1.305z" class="Vector 9.1"/>
      <path fill="#F4F2E3" fill-rule="evenodd" d="M366.968 366.609l-4.702-1.903.322-.954 4.709 1.928-.329.929z" class="Vector 10 (Stroke)" clip-rule="evenodd"/>
    </g>
    <path fill="#030C23" fill-opacity=".3" fill-rule="evenodd" d="M178.915 332.541l-96.54-18.105c-10.704-16.159-7.071-35.623-.915-52.696 7.708-15.62 27.384-20.691 54.566-18.257 22.461 8.695 25.153 24.147 28.574 43.789 2.326 13.352 4.99 28.641 14.43 45.059l-.115.21z" class="Intersect_3" clip-rule="evenodd"/>
    <path fill="#6C6867" d="M142.869 348.281c16.492-.758 11.781-26.617 11.781-26.617s4.149-40.915-3.049-56.357c-1.661-3.564-6.445-4.687-8.732-.431-2.287 4.256-7.353 36.101-9.736 41.298 1.229-7.912 12.551-60.561-.963-61.794-7.956-.726-14.766 46.352-16.91 56.206-.482-8.641 10.968-59.539-.403-60.876-10.805-1.27-17.5 46.446-18.7 56.432-1.113-6.404 4.029-48.15-3.667-49.661-10.466-2.054-24.897 61.272-24.15 68.509 3.553 34.363 54.056 34.232 74.529 33.291z" class="Vector 8"/>
    <path fill="#000" fill-opacity=".1" fill-rule="evenodd" d="M527.35 404.742c-3.075-5.347-6.406-10.832-9.269-15.547-2.368-3.899-4.417-7.272-5.736-9.605 0 39.752-10.111 59.868-16.324 70.204 24.941-5.426 31.116-23.727 31.329-45.052z" class="Intersect_4" clip-rule="evenodd"/>
    <g class="Group 7">
      <path fill="#FD5C39" d="M338.95 359.182l5.005-.7 1.208 13.719-5.211-.486-1.002-12.533z" class="Rectangle 2"/>
      <path fill="#081D53" d="M343.974 358.504l-3.217-8.477-1.811 9.192 5.028-.715z" class="Vector 9"/>
    </g>
    <g class="Group 7.1">
      <path fill="#B6AC2C" d="M350.883 363.072l6.326 1.03-1.571 11.658-6.131-2.543 1.376-10.145z" class="Rectangle 2_2"/>
      <path fill="#6C6867" d="M357.214 364.107l-2.354-5.588-4.004 4.563 6.358 1.025z" class="Vector 9_2"/>
    </g>
    <g class="Group 5">
      <path fill="#000" fill-opacity=".08" d="M370.735 414.081c10.196-1.055 8.14-27.122 7.392-39.31-17.151 2.087-34.366-2.859-47.324-10.588-3.842 3.669-8.261 26.649-5.005 38.07 4.071 14.277 32.191 13.147 44.937 11.828z" class="Vector 3"/>
      <path stroke="#000" stroke-linecap="round" stroke-width="5" d="M375.903 373.812c-8.049 2.089-27.995 3.382-43.389-8.159" class="Vector 2"/>
    </g>
    <path fill="#88B0FF" fill-rule="evenodd" d="M18.238 116.493l178.497 33.471 38.191 193.08 10.221-11.846-38.194-193.097-.06.07-178.18-32.21-10.475 10.532zm659.564 101.13l94.737 64.899-57.823 84.407-44.084-30.2.426-11.669-11.311 4.212-39.767-27.243 57.822-84.406zm-57.822 84.406l.002.003-.003-.002.001-.001z" class="Secondary" clip-rule="evenodd"/>
    <g class="Group">
      <path fill="#F4F2E3" d="M640.65 288.515l33.778 23.14-1.855 2.707-33.778-23.14z" class="Rectangle 2_3"/>
      <path fill="#F4F2E3" d="M648.069 277.684l33.778 23.14-1.855 2.707-33.778-23.14z" class="Rectangle 2.1_2"/>
      <path fill="#F4F2E3" d="M655.488 266.854l33.778 23.14-1.855 2.707-33.778-23.14z" class="Rectangle 2.2"/>
      <path fill="#F4F2E3" d="M662.908 256.024l33.778 23.14-1.855 2.707-33.778-23.14z" class="Rectangle 2.3"/>
      <path fill="#F4F2E3" d="M670.327 245.194l33.778 23.14-1.855 2.707-33.778-23.14z" class="Rectangle 2.4"/>
      <path fill="#F4F2E3" d="M677.746 234.364l33.778 23.14-1.855 2.707-33.778-23.14z" class="Rectangle 2.5"/>
    </g>
    <g class="Group_2">
      <path fill="#F4F2E3" d="M681.771 316.685l33.778 23.14-1.855 2.707-33.778-23.14z" class="Rectangle 2_4"/>
      <path fill="#F4F2E3" d="M689.19 305.855l33.778 23.14-1.855 2.707-33.778-23.14z" class="Rectangle 2.1_3"/>
      <path fill="#F4F2E3" d="M696.609 295.024l33.778 23.14-1.855 2.707-33.778-23.14z" class="Rectangle 2.2_2"/>
      <path fill="#F4F2E3" d="M718.867 262.534l33.778 23.14-16.693 24.367-33.778-23.14z" class="Rectangle 2.5_2"/>
    </g>
    <path fill="#000" fill-opacity=".1" fill-rule="evenodd" d="M556.221 327.902c11.704 12.818 19.91 25.711 25.623 37.199-4.368 5.287-9.536 9.886-9.01 2.697.571-7.801-9.339-27.216-16.613-39.896z" class="Intersect_5" clip-rule="evenodd"/>
    <path fill="#625F5E" d="M117.801 357.221c-20.427-6.888-49.47-17.781-49.47-42.835 0 0 1.468 9.526 9.883 11.565 4.541 1.1 14.7-11.5 14.7-11.5s.943 11.442 6.3 11.5c2.687.029 12.068-8.825 12.068-8.825s1.863 9.622 6.519 10.038c5.975.534 13.771-7.796 13.771-7.796s6.602 4.107 10.038 3.418c7.95-1.595 8.866-3.58 11.099-6.997 2.232-3.417 2.711-11.641 2.711-11.641s12.119 5.103 14.888 26.597c2.083 3.471-26.974 35.086-52.507 26.476z" class="Vector 11.1"/>
    <path fill="#030C23" fill-opacity=".2" fill-rule="evenodd" d="M471.731 150.137c3.104 9.345 7.214 23.52 8.519 33.086-.008.66-.022 1.324-.039 1.993-1.559-7.232-6.689-27.231-13.555-34.894-4.207-4.697-14.533-6.116-25.709-7.652-8.169-1.123-16.793-2.309-23.812-4.882-1.195-.438-2.112-1.191-2.812-2.035 5.686 1.141 16.196 2.967 25.212 2.967 17.12 0 27.394 6.98 32.196 11.417z" class="Subtract_3" clip-rule="evenodd"/>
  </g>
</svg>
