<svg xmlns="http://www.w3.org/2000/svg" width="800" height="600" fill="none" viewBox="0 0 800 600">
  <g class="man_coding">
    <path fill="#fff" d="M0 0h800v600H0z"/>
    <path fill="#262626" d="M0 0h800v600H0z" class="Rectangle 3"/>
    <path fill="#1C1C1C" d="M565.018 389.399c132.333 2.208 180.004 138.939 190.015 35.209 9.676-100.256-112.791-330.465-212.838-342.1-88.401-10.28-63.782 65.681-163.891 101.539-100.11 35.858-168.243-78.523-235.028-15.281-53.598 50.755 12.25 89.899-55.474 238.226-32.274 70.684 103.767 156.031 210.547 136.393 152.9-28.119 134.337-156.194 266.669-153.986z" class="Vector 18"/>
    <path fill="#3366E9" fill-rule="evenodd" d="M315.933 64.176l3.464-3.229.135.027 133.799 22.313 43.851 89.637-64.477 69.531-133.892-23.274-2.926-5.077 64.232-61.996-1.493-3.354 133.073 22.192-41.873-84.441-133.893-22.329z" class="Subtract" clip-rule="evenodd"/>
    <path fill="#000" fill-opacity=".21" fill-rule="evenodd" d="M352.095 526.916c40.158-18.285 63.968-45.361 86.219-70.666 31.44-35.752 59.77-67.968 126.705-66.851 63.403 1.058 107.372 32.996 137.075 54.573 32.293 23.457 47.725 34.667 52.94-19.364 9.675-100.256-112.792-330.465-212.839-342.1-47.367-5.509-62.285 13.743-81.33 38.319-8.248 10.644-17.271 22.288-30.04 33.351 93.214 8.63 186.255 43.199 165.946 120.758-17.616 67.27-65.885 85.955-109.767 102.943-5.464 2.114-10.859 4.203-16.118 6.356-45.508 18.625-89.743 36.73-105.92 102.718-3.641 14.85-7.995 28.121-12.871 39.963z" class="Intersect" clip-rule="evenodd"/>
    <path fill="#000" fill-opacity=".22" d="M301.055 213.208l58.505-62.414 127.286 21.227-58.505 62.414-127.286-21.227z" class="Rectangle 2"/>
    <path fill="#000" fill-opacity=".22" d="M301.055 213.208l58.505-62.414 127.286 21.227-58.505 62.413-127.286-21.226z" class="Rectangle 2.12"/>
    <path fill="#FFBD5A" fill-rule="evenodd" d="M258.575 311.037c23.8 2.675 53.442-3.587 75.859-39.078.949-1.502 2.183-3.626 3.648-6.147 3.98-6.848 9.663-16.628 15.956-24.841 8.481-11.068 21.524-24.242 39.063-24.574l.432 22.804c-6.143.116-13.354 5.154-21.39 15.642-5.371 7.01-9.545 14.211-13.302 20.694-1.773 3.059-3.453 5.959-5.123 8.602-27.875 44.131-66.779 53.038-97.69 49.564l2.547-22.666z" class="Vector 7 (Stroke)" clip-rule="evenodd"/>
    <path fill="#CFD4E8" d="M315.891 64.168l41.873 84.442 133.935 22.335-41.873-84.441-133.935-22.336z" class="Rectangle 2.5"/>
    <path fill="#E8ECFA" d="M324.435 69.357l37.803 76.235 120.917 20.164-37.803-76.234-120.917-20.165z" class="Rectangle 2.11"/>
    <g class="Group 4.1">
      <path fill="#000" fill-opacity=".7" fill-rule="evenodd" d="M356.684 169.129l-3.706-.624 3.548-3.244 3.706.624-3.548 3.244zm13.658 2.543l-7.411-1.247 4.712-3.292 7.412 1.248-4.713 3.291zm14.391 2.514l-7.412-1.248 5.145-3.309 7.412 1.248-5.145 3.309zm14.822 2.495l-7.411-1.247 5.145-3.31 7.411 1.248-5.145 3.309zm15.544 2.467l-7.411-1.248 4.424-3.28 7.411 1.248-4.424 3.28zm15.111 2.484l-7.411-1.248 4.136-3.268 7.411 1.248-4.136 3.268zm14.391 2.513l-7.412-1.248 4.569-3.286 7.411 1.248-4.568 3.286zm12.156 2.286l-3.706-.623 3.529-3.701 3.706.624c5.622.947.669 4.407-3.529 3.7z" class="Vector 21 (Stroke)" clip-rule="evenodd"/>
      <path fill="#000" fill-opacity=".7" fill-rule="evenodd" d="M347.369 178.123l-3.706-.624 3.549-3.244 3.705.624-3.548 3.244zm13.659 2.543l-7.412-1.247 4.713-3.292 7.411 1.248-4.712 3.291zm14.39 2.514l-7.411-1.248 5.145-3.309 7.411 1.247-5.145 3.31zm14.823 2.495l-7.412-1.248 5.145-3.309 7.412 1.248-5.145 3.309zm15.543 2.467l-7.411-1.248 4.424-3.28 7.412 1.248-4.425 3.28zm15.112 2.484l-7.412-1.248 4.136-3.268 7.412 1.247-4.136 3.269zm14.39 2.513l-7.411-1.248 4.568-3.286 7.412 1.248-4.569 3.286zm12.156 2.286l-3.706-.624 3.53-3.7 3.706.624c5.622.946.668 4.407-3.53 3.7z" class="Vector 21 (Stroke).1" clip-rule="evenodd"/>
      <path fill="#000" fill-opacity=".7" fill-rule="evenodd" d="M338.054 187.117l-3.706-.624 3.548-3.244 3.706.624-3.548 3.244zm13.658 2.543l-7.411-1.248 4.712-3.291 7.412 1.247-4.713 3.292zm14.391 2.513l-7.412-1.248 5.145-3.309 7.412 1.248-5.145 3.309zm14.822 2.496l-7.411-1.248 5.145-3.309 7.412 1.248-5.146 3.309zm15.544 2.466l-7.411-1.248 4.424-3.279 7.411 1.247-4.424 3.28zm15.111 2.484l-7.411-1.248 4.136-3.268 7.411 1.248-4.136 3.268zm14.391 2.513l-7.412-1.247 4.569-3.286 7.411 1.248-4.568 3.285zm12.156 2.287l-3.706-.624 3.53-3.7 3.705.624c5.622.946.669 4.407-3.529 3.7z" class="Vector 21 (Stroke).1.1" clip-rule="evenodd"/>
      <path fill="#000" fill-opacity=".7" fill-rule="evenodd" d="M328.739 196.111l-3.705-.624 3.548-3.244 3.705.623-3.548 3.245zm13.659 2.543l-7.412-1.248 4.713-3.292 7.411 1.248-4.712 3.292zm14.39 2.513l-7.411-1.248 5.145-3.309 7.411 1.248-5.145 3.309zm14.823 2.496l-7.411-1.248 5.145-3.309 7.411 1.247-5.145 3.31zm15.544 2.466l-7.412-1.248 4.424-3.28 7.412 1.248-4.424 3.28zm15.111 2.484l-7.412-1.248 4.136-3.268 7.412 1.248-4.136 3.268zm14.39 2.513l-7.411-1.248 4.568-3.285 7.412 1.247-4.569 3.286zm12.156 2.287l-3.705-.624 3.529-3.701 3.706.624c5.622.947.669 4.408-3.53 3.701z" class="Vector 21 (Stroke).1.1.1" clip-rule="evenodd"/>
    </g>
    <path fill="#FFBD5A" fill-rule="evenodd" d="M230.49 291.05c17.578-2.364 37.732-12.147 47.49-41.812 1.991-6.054 5.594-16.293 10.011-26.014 2.206-4.854 4.703-9.774 7.403-14.053 2.576-4.083 5.864-8.445 9.903-11.331 4.509-3.222 10.777-2.179 14 2.33 3.222 4.51 2.179 10.778-2.331 14-.825.59-2.438 2.29-4.597 5.711-2.035 3.225-4.107 7.252-6.105 11.648-3.99 8.779-7.332 18.248-9.218 23.981-12.568 38.207-40.062 52.229-63.882 55.432-5.493.739-10.545-3.116-11.283-8.609-.739-5.493 3.116-10.545 8.609-11.283z" class="Vector 7.1 (Stroke)" clip-rule="evenodd"/>
    <path fill="#5BE7E7" fill-rule="evenodd" d="M716.951 40.145L581.548 72.358l1.575 6.62 135.403-32.213-1.575-6.621zm-100.58 11.5l-37.622 8.95 1.576 6.622 37.621-8.951-1.575-6.621zM584.347 84.12L719.75 51.908l1.575 6.62-135.403 32.215-1.575-6.621zm43.22 14.576l-37.622 8.95 1.575 6.621 37.622-8.95-1.575-6.621zm-34.823 20.713l73.73-17.541 1.575 6.621-73.73 17.541-1.575-6.621zm43.22 14.575l-37.622 8.951 1.575 6.621 37.622-8.951-1.575-6.621zm-34.823 20.714l73.729-17.541 1.575 6.621-73.729 17.541-1.575-6.621zm43.22 14.575l-37.622 8.951 1.575 6.621 37.622-8.951-1.575-6.621zm-34.822 20.713l135.397-32.212 1.575 6.621-135.396 32.212-1.576-6.621zm138.196-20.449L612.338 201.75l1.576 6.621 135.396-32.212-1.575-6.621zM79.979 43.424l38.472 3.925-.691 6.77-38.472-3.925.69-6.77zM208.9 68.732l-130.15-13.28-.69 6.771 130.149 13.28.691-6.771zm-131.376-1.25L207.674 80.76l-.691 6.771-130.15-13.279.692-6.77zm36.018 27.983l-38.472-3.926-.69 6.771 38.472 3.925.69-6.77zm-39.699 8.103l90.222 9.205-.691 6.771-90.222-9.205.691-6.771zm36.019 27.983l-38.472-3.925-.691 6.771 38.472 3.925.691-6.771zm-39.7 8.104l90.221 9.205-.691 6.771-90.22-9.205.69-6.771zm36.02 27.983l-38.473-3.925-.69 6.771 38.472 3.925.691-6.771zm524.874 198.029c-6.884-.76-15.529-2.995-20.446-4.497-1.193 1.756-2.863 5.566 0 6.759 2.275.948 3.529 5.223 4.081 8.485l-11.721 13.539c-2.563 2.325-3.751 1.622-4.898.943-.895-.53-1.766-1.046-3.247-.093-2.81 1.807 5.235 13.088 11.274 20.041 3.231 1.586 9.062 3.72 11.682 1.973 1.373-.915 4.709-5.028 8.639-9.874 6.266-7.726 14.043-17.314 17.783-18.774 6.075-2.371 47.677-23.794 38.96-40.85-3.27-1.573-8.478-1.252-12.932 3.155-3.34 3.306-14.542 8.248-26.591 13.564h-.001l-.007.004h-.001c-4.188 1.847-8.477 3.74-12.575 5.625zm-50.013 77.09c-5.48.012-12.474-.98-16.473-1.727-.782 1.486-1.758 4.63.598 5.314 1.873.544 3.236 3.794 3.959 6.31l-8.018 11.681c-1.81 2.055-2.805 1.607-3.767 1.175-.751-.338-1.481-.666-2.562.214-2.049 1.669 5.273 9.826 10.636 14.759 2.68.961 7.454 2.124 9.36.519.999-.842 3.258-4.37 5.919-8.528 4.243-6.628 9.51-14.855 12.321-16.334 1.036-.544 3.423-2.022 6.398-4.129 3.203-2.675 6.447-5.17 9.172-7.266l.002-.001.001-.001.255-.196c8.348-7.439 15.849-16.928 11.192-23.969-2.71-.948-6.777-.235-9.889 3.624-2.334 2.895-10.704 7.771-19.706 13.016h-.001l-.001.001-.006.003c-3.129 1.823-6.335 3.691-9.39 5.535zM248.878 271.686c-4.369 5.421-10.558 9.526-17.671 12.446.085.102-4.88 0-4.88 0s-31.492-1.437-34.756 2.045l-5.937 10.389c-2.6 2.491-6.723 14.459-7.694 18.195-17.551 67.502 49.328 162.609 70.938 183.987 22.113-42.148 46.89-84.399 46.89-84.399s-.789-3.725-8.539-11.379c-1.997-1.972-4.199-3.884-6.371-5.77-7.74-6.72-11.763-22.465-11.763-22.465s-2.789-13.006-4.525-21.831c10.916 1.123 23.715-2.247 29.442-8.143.17-1.59-1.204-5.135-2.728-9.066-1.094-2.822-2.266-5.844-2.999-8.485-1.403-5.056-13.138-22.093-18.934-28.058a19.14 19.14 0 00-.256.064c3.534-.874 6.923-2.009 10.11-3.429 2.648-5.089-30.327-24.101-30.327-24.101z" class="Secondary" clip-rule="evenodd"/>
    <path fill="#000" fill-opacity=".25" fill-rule="evenodd" d="M243.912 300.96c3.494.339 7.182.606 10.944.373 8.727-.542 17.064-2.3 24.349-5.546 2.654-5.087-30.327-24.102-30.327-24.102-4.369 5.421-10.557 9.526-17.67 12.446 1.598 1.944 6.663 8.219 12.704 16.829z" class="Subtract_2" clip-rule="evenodd"/>
    <path fill="#D1D6EA" fill-opacity=".9" fill-rule="evenodd" d="M454.707 96.347l-7.761-1.225c-7.191-1.135-4.432 12.018 8.607 13.576 1.514.181 3.446.458 5.679.807l-6.525-13.158zm11.216 22.62l-7.882-1.245c-7.191-1.135-4.432 12.019 8.606 13.576 1.542.185 3.517.469 5.801.827l-6.525-13.158zm11.217 22.619l-8.005-1.264c-7.191-1.135-4.432 12.018 8.607 13.576 1.569.188 3.587.479 5.922.846l-6.524-13.158z" class="Intersect_2" clip-rule="evenodd"/>
    <path fill="#D1D6EA" fill-opacity=".9" fill-rule="evenodd" d="M348.878 130.69l47.63 8.571-3.047-7.509-48.046-8.046 3.463 6.984zm-7.908-15.947l49.121 8.839-3.047-7.508-49.526-8.294 3.452 6.963zm-7.236-14.592c15.14 2.79 30.249 5.779 30.249 5.779 13.627 2.152 7.283-12.329-1.833-13.768l-35.127-5.545 6.711 13.534z" class="Intersect_3" clip-rule="evenodd"/>
    <path fill="#C2BFBF" d="M574.777 481.002c-2.073 1.746-7.539.218-10.013-.764.302 2.684 1.145 2.826 7.454 7.434 6.31 4.609 17.403-11.294 18.747-15.109 1.343-3.815 11.389-17.472 17.224-18.128 5.836-.657 18.504-21.464 18.251-26.872-.203-4.326-4.432-6.647-6.447-7.051 8.512 12.634-22.401 33.224-26.976 35.629-4.575 2.406-15.649 22.679-18.24 24.861z" class="Vector 21"/>
    <path fill="#FFBD5A" fill-rule="evenodd" d="M565.169 446.343c1.873.544 3.237 3.795 3.959 6.311l-8.018 11.681c-1.81 2.055-2.805 1.607-3.767 1.175-.606-.273-1.198-.539-1.971-.17l-5.352-2.137c3.487-5.592 6.697-14.154 6.635-20.65l7.381 2.988c.232.362.596.646 1.133.802z" class="Subtract_3" clip-rule="evenodd"/>
    <path fill="#E8ECFA" d="M403.401 49.504l-59.443-9.965 24.565 54.229 58.516 10.312-23.638-54.576z" class="Vector 18_2" opacity=".9"/>
    <g class="Group 2.1">
      <path fill="#CFD4E8" fill-opacity=".91" d="M359.498 51.685l37.199 6.256 2.063 4.833-37.143-6.581-2.119-4.508z" class="Rectangle 2.11_2"/>
      <path fill="#CFD4E8" fill-opacity=".91" d="M364.07 61.847l36.992 6.182 1.957 4.808-36.828-6.622-2.121-4.368z" class="Rectangle 2.12_2"/>
      <path fill="#CFD4E8" fill-opacity=".91" d="M368.261 70.914l36.628 6.154 2.08 4.871-36.697-6.642-2.011-4.383z" class="Rectangle 2.13"/>
      <path fill="#CFD4E8" fill-opacity=".91" d="M372.829 81.012l36.511 6.217 2.163 4.705-36.579-6.354-2.095-4.568z" class="Rectangle 2.14"/>
    </g>
    <path fill="#FFBD5A" fill-rule="evenodd" d="M602.972 389.953l11.72-13.539c-.326-1.926-.896-4.205-1.777-5.944l-16.044-2.822c-1.186 6.916-4.44 15.357-7.957 23.192l5.379.789c.076-.363.249-.643.533-.826 1.482-.953 2.352-.437 3.248.093 1.146.679 2.334 1.383 4.898-.943z" class="Subtract_4" clip-rule="evenodd"/>
    <path fill="#E8ECFA" d="M483.085 130.697a.5.5 0 00-.721.693l.721-.693zm2.852 3.69l.272.419.508-.329-.42-.437-.36.347zm-3.119 1.427a.5.5 0 00.544.839l-.544-.839zm-.454-4.424l3.212 3.343.721-.693-3.212-3.343-.721.693zm3.301 2.577l-2.847 1.847.544.839 2.847-1.847-.544-.839z" class="Vector 21_2"/>
    <path fill="#E8ECFA" d="M473.892 129.898a.5.5 0 01.777.63l-.777-.63zm-1.681 2.871l-.297.403-.421-.311.329-.407.389.315zm2.97 1.566a.499.499 0 11-.593.805l.593-.805zm-.512-3.807l-2.069 2.556-.778-.63 2.07-2.556.777.63zm-2.162 1.838l2.674 1.969-.593.805-2.674-1.968.593-.806z" class="Vector 21.1"/>
    <path fill="#3366E9" fill-rule="evenodd" d="M357.382 54.805l37.198 6.255 2.064 4.833-37.143-6.581-2.119-4.507zm-2.166 41.453l-63.855-10.08c-7.191-1.134-4.432 12.019 8.607 13.577 13.039 1.557 57.081 10.272 57.081 10.272 13.627 2.151 7.282-12.33-1.833-13.769zm144.961 12.292l-63.854-10.08c-7.191-1.135-4.432 12.018 8.607 13.576 13.038 1.557 57.08 10.272 57.08 10.272 13.627 2.151 7.283-12.33-1.833-13.768zm-52.759 12.519l63.854 10.08c9.116 1.439 15.46 15.92 1.833 13.768 0 0-44.042-8.714-57.08-10.272-13.039-1.557-15.798-14.711-8.607-13.576zm74.949 32.682l-63.855-10.08c-7.191-1.135-4.431 12.018 8.607 13.576 13.039 1.558 57.081 10.272 57.081 10.272 13.627 2.151 7.282-12.329-1.833-13.768zM322.35 110.498l57.76 9.673 3.047 7.508-57.081-10.272-3.726-6.909zm64.176 25.351l-57.76-9.673 3.727 6.909 57.08 10.272-3.047-7.508zm12.419-64.701l-36.991-6.182 2.121 4.368 36.828 6.623-1.958-4.809zm-32.801 2.885l36.628 6.154 2.08 4.871-36.697-6.642-2.011-4.383zm41.078 16.315l-36.51-6.217 2.095 4.568 36.579 6.354-2.164-4.705zm-158.283 408.37c16.835 10.143 40.281 18.886 56.204 12.684 28.788-11.213 82.582-77.532 99.486-104.968.43-.593 1.053-1.592 1.838-2.848-.785 1.257-1.408 2.256-1.838 2.849-12.353 20.05-44.408 60.866-72.007 85.765 6.95-3.995 13.271-8.267 18.242-11.626 1.923-1.299 3.643-2.461 5.12-3.419 3.733-2.419 16.254-14.706 29.197-27.407 15.869-15.572 32.371-31.765 34.086-31.156 2.794.992 5.482 2.327 8.662 3.906v.001c8.283 4.114 19.905 9.887 45.448 15.58 27.471 17.888 50.246 27.284 70.274 30.878 5.495.987 18.74-26.832 10.222-33.859-7.338-6.053-80.496-38.319-112.945-51.518-8.03-.339-13.986-.124-17.033.931-7.044 2.438-13.874 13.381-17.423 19.067 3.549-5.687 10.379-16.629 17.424-19.068 8.217-2.845 37.597.416 71.75 4.206h.001l.039.004 2.403.267 2.44.27c10.832 1.199 22.148 3.126 32.913 4.959 26.676 4.543 49.978 8.51 54.198-.585 5.922-12.766 11.718-27.923 9.025-35.608-7.312-10.574-84.822-14.075-133.71-14.559-5.416-.054-11.256-.503-17.278-.966h-.001c-18.018-1.386-37.671-2.898-52.525 5.68l-3.624 2.091-.007.004-.069.04-.005.002-.002.002-.038.022-.012.006-.031.019c-32.476 18.729-63.621 40.157-94.433 62.064.703 1.285.838 1.92.838 1.92h-.001l.001.001s-27.397 43.261-46.829 84.369zm392.657-146.505c-.298-1.122.394-2.142 1.548-2.278 1.153-.136 2.33.664 2.628 1.786l3.491 13.115c.298 1.122-.395 2.142-1.548 2.278-1.153.136-2.33-.664-2.628-1.786l-3.491-13.115zm-12.222 4.994c-.299-1.122.394-2.142 1.547-2.278 1.153-.136 2.33.664 2.628 1.786l3.491 13.115c.299 1.122-.394 2.142-1.547 2.278-1.153.136-2.33-.663-2.629-1.786l-3.49-13.115zM188.1 179.507c-10.771 1.452-43.65 27.62-33.76 47.783-3.216 4.405-5.218 10.689-.966 17.552 4.03 6.506 9.193 9.902 13.482 12.725 4.27 2.809 7.675 5.05 8.238 9.221.901 6.689 1.146 17.186 0 17.834 4.84.211 34.429-6.429 40.838-15.723 12.589-18.255 5.124-24.57-.227-29.096v-.001h-.001c-.782-.661-1.518-1.285-2.141-1.901 4.792.664 9.111 1.012 12.182-.073 3.648-1.287 2.188-6.226.775-11.009-1.435-4.858-2.822-9.555 1.236-10.102 9.174-1.237 9.65-4.288 10.764-11.422l.162-1.034c.412-2.595.543-5.648.675-8.755.271-6.34.552-12.909 3.254-16.288-4.594.833-14.47 3.106-17.224 5.531 1.858-3.673 9.115-11.497 15.904-15.328-10.522-.293-32.952 5.497-41.063 11.981.325-.396.726-.857 1.177-1.377 3.258-3.751 9.167-10.554 8.209-17.658-4.269 5.98-11.716 15.819-21.514 17.14zm107.965 164.977l.447-.093v-.001l-.001-.003-.003-.012-.01-.048-.04-.184a38.916 38.916 0 00-.162-.706 76.764 76.764 0 00-.672-2.614 99.97 99.97 0 00-2.897-8.862c-2.68-7.068-6.952-15.894-13.313-22.85l-.673.615c6.25 6.835 10.472 15.541 13.133 22.558a99.121 99.121 0 012.87 8.781 75.46 75.46 0 01.823 3.275l.004.018c-2.005 2.28-5.704 4.171-10.493 5.711-3.248 1.044-6.964 1.916-10.927 2.639-.454-1.911-1.416-4.364-2.688-7.106-1.53-3.301-3.53-7.066-5.698-10.889-4.334-7.646-9.35-15.55-12.647-20.495l-.759.506c3.288 4.932 8.291 12.816 12.613 20.439 2.16 3.812 4.148 7.553 5.664 10.823 1.26 2.718 2.182 5.083 2.616 6.883-1.716.3-3.474.574-5.257.822-12.503 1.742-26.179 2.239-34.954 2.16l-.008.912c8.806.079 22.529-.418 35.088-2.168 1.8-.251 3.577-.528 5.314-.832l.023.151.903-.131-.028-.181c3.986-.728 7.735-1.607 11.024-2.665 4.937-1.587 8.913-3.597 11.058-6.161l.141-.168-.044-.216-.447.092zm-16.873-57.205a204.33 204.33 0 015.614 5.581c.266-.162.53-.326.792-.493a203.224 203.224 0 00-5.798-5.769 81.47 81.47 0 01-.608.681zm-14.798-13.58c-2.16-1.487-4.291-2.773-6.294-3.719l-.39.826c1.923.907 3.975 2.141 6.063 3.573.208-.224.415-.451.621-.68zm323.747 157.548c-.334-.856.12-1.719 1.015-1.928.895-.209 1.891.316 2.225 1.172l3.904 10.003c.334.856-.121 1.719-1.015 1.928-.895.208-1.891-.316-2.225-1.172l-3.904-10.003zm-9.168 5.008c-.334-.856.12-1.719 1.015-1.928.895-.209 1.891.316 2.225 1.172l3.904 10.003c.334.856-.121 1.719-1.015 1.928-.895.208-1.891-.316-2.225-1.172l-3.904-10.003z" class="Primary" clip-rule="evenodd"/>
    <path fill="#F1F7FF" fill-rule="evenodd" d="M277.653 464.734c9.296 2.573 20.723 3.248 30.452-1.211 6.39-2.929 14.681-10.409 23.868-19.932 7.264-7.529 15.126-16.378 23.099-25.351v-.001c2.129-2.396 4.266-4.801 6.401-7.192 10.14-11.353 20.247-22.394 29.358-30.726 4.555-4.167 8.849-7.646 12.765-10.146 3.923-2.506 7.425-4.002 10.4-4.255 9.828-.836 39.6.437 73.308 2.406 33.686 1.968 71.249 4.627 96.62 6.552a.457.457 0 10.069-.91c-25.375-1.925-62.943-4.584-96.636-6.553-33.672-1.967-63.528-3.248-73.438-2.404-3.194.272-6.845 1.86-10.814 4.395-3.977 2.54-8.316 6.057-12.89 10.241-9.149 8.368-19.285 19.441-29.422 30.792-2.14 2.396-4.279 4.805-6.41 7.203-7.971 8.971-15.817 17.801-23.066 25.316-9.203 9.539-17.382 16.889-23.592 19.735-9.402 4.31-20.506 3.709-29.646 1.212-.141.277-.283.553-.426.829z" class="Subtract_5" clip-rule="evenodd"/>
    <path fill="#F1F7FF" fill-rule="evenodd" d="M290.436 433.317c3.375 1.189 7.641 3.182 11.449 5.98 4.743 3.486 8.714 8.171 9.46 14.046a.456.456 0 10.905-.115c-.791-6.229-4.986-11.111-9.825-14.666-3.899-2.865-8.257-4.9-11.711-6.114-.091.288-.184.577-.278.869z" class="Subtract_6" clip-rule="evenodd"/>
    <path fill="#000" fill-opacity=".4" fill-rule="evenodd" d="M332.622 492.199c6.95-3.995 13.272-8.266 18.242-11.625 1.923-1.3 3.643-2.462 5.12-3.419 3.733-2.42 16.255-14.708 29.198-27.408 15.869-15.572 32.371-31.765 34.085-31.156 2.783.988 5.423 2.487 8.542 4.259 8.171 4.641 19.631 11.152 45.568 15.228 27.471 17.888 50.246 27.284 70.274 30.878 5.495.987 18.74-26.831 10.222-33.859-7.337-6.053-80.495-38.319-112.944-51.518-8.03-.339-13.986-.124-17.033.931-7.045 2.439-13.875 13.381-17.424 19.067l-.002.003-.001.003-.001.001-.001.002c-.784 1.256-1.408 2.255-1.838 2.848-12.353 20.05-44.408 60.866-72.007 85.765z" class="Subtract_7" clip-rule="evenodd"/>
    <path fill="#000" fill-opacity=".36" fill-rule="evenodd" d="M589.156 429.319c-.895.209-1.349 1.072-1.015 1.928l3.904 10.003c.334.856 1.33 1.38 2.225 1.172.894-.209 1.349-1.072 1.015-1.928l-3.904-10.003c-.334-.856-1.33-1.381-2.225-1.172zm-9.168 5.008c-.895.209-1.349 1.072-1.015 1.928l3.904 10.003c.334.856 1.33 1.38 2.225 1.171.894-.208 1.349-1.071 1.015-1.927l-3.904-10.004c-.334-.855-1.33-1.38-2.225-1.171z" class="Union" clip-rule="evenodd"/>
    <path fill="#fff" d="M617.782 412.817c-2.85 1.9-9.5-.791-12.469-2.375 0 3.414 1.04 3.711 8.313 10.391 7.273 6.679 23.453-11.727 25.68-16.328 2.226-4.602 16.773-20.336 24.195-20.336 7.422 0 26.273-24.344 26.719-31.172.356-5.463-4.627-8.975-7.101-9.767 8.906 17.071-32.829 38.564-38.915 40.939-6.086 2.375-22.859 26.273-26.422 28.648z" class="Vector 21_3"/>
    <path fill="#fff" fill-opacity=".15" fill-rule="evenodd" d="M716.951 40.145L581.548 72.358l1.575 6.62 135.403-32.213-1.575-6.621zm-100.58 11.5l-37.622 8.95 1.576 6.622 37.621-8.951-1.575-6.621zM584.347 84.12L719.75 51.908l1.575 6.62-135.403 32.215-1.575-6.621zm43.22 14.576l-37.622 8.95 1.575 6.621 37.622-8.95-1.575-6.621zm-34.823 20.713l73.73-17.541 1.575 6.621-73.73 17.541-1.575-6.621zm43.22 14.575l-37.622 8.951 1.575 6.621 37.622-8.951-1.575-6.621zm-34.823 20.714l73.729-17.541 1.575 6.621-73.729 17.541-1.575-6.621zm43.22 14.575l-37.622 8.951 1.575 6.621 37.622-8.951-1.575-6.621zm-34.822 20.713l135.397-32.212 1.575 6.621-135.396 32.212-1.576-6.621zm138.196-20.449L612.338 201.75l1.576 6.621 135.396-32.212-1.575-6.621zM79.979 43.424l38.472 3.925-.691 6.77-38.472-3.925.69-6.77zM208.9 68.732l-130.15-13.28-.69 6.771 130.149 13.28.691-6.771zm-131.376-1.25L207.674 80.76l-.691 6.771-130.15-13.279.692-6.77zm36.018 27.983l-38.472-3.926-.69 6.771 38.472 3.925.69-6.77zm-39.699 8.103l90.222 9.205-.691 6.771-90.222-9.205.691-6.771zm36.019 27.983l-38.472-3.925-.691 6.771 38.472 3.925.691-6.771zm-39.7 8.104l90.221 9.205-.691 6.771-90.22-9.205.69-6.771zm36.02 27.983l-38.473-3.925-.69 6.771 38.472 3.925.691-6.771z" class="Union_2" clip-rule="evenodd"/>
    <path fill="#FFBD5A" fill-rule="evenodd" d="M219.507 247.009s2.012 9.006 1.014 13.113c-.886 3.644-2.366 5.8-4.742 8.218-4.697 4.782-8.67 5.319-14.684 8.56-2.86 1.541-9.648 4.205-9.648 4.205s-.318 5.02.983 9.243c18.313 8.074 38.06-1.675 38.06-1.675s-6.422-16.769-6.422-21.875c5.59-1.742 22.591-6.599 23.35-7.267 4.295-3.776 3.839-4.803 2.898-6.92-2.256-5.079-.874-10.093-3.609-15.571 1.912-1.21 2.03-5.039 2.03-5.039s-4.089-5.222-7.938-8.2a115.431 115.431 0 00-5.659-9.545c-1.485 1.198-3.753 1.972-7.384 2.462-4.058.547-2.67 5.243-1.235 10.101 1.413 4.783 2.872 9.722-.775 11.01-1.064.375-2.277.579-3.607.658-1.887-.698-7.03-9.379-7.03-9.379s-1.203-1.508-3.517 0c-6.516 4.246 6.247 13.045 7.915 17.901z" class="Subtract_8" clip-rule="evenodd"/>
    <g class="Group 4">
      <path fill="#2E69FF" fill-rule="evenodd" d="M356.684 167.884l-3.706-.624 3.548-3.244 3.706.624-3.548 3.244zm13.658 2.543l-7.411-1.248 4.712-3.291 7.412 1.248-4.713 3.291zm14.391 2.514l-7.412-1.248 5.145-3.309 7.412 1.247-5.145 3.31zm14.822 2.495l-7.411-1.248 5.145-3.309 7.411 1.248-5.145 3.309zm15.544 2.467l-7.411-1.248 4.424-3.28 7.411 1.248-4.424 3.28zm15.111 2.484l-7.411-1.248 4.136-3.268 7.411 1.247-4.136 3.269zm14.391 2.513l-7.412-1.248 4.569-3.286 7.411 1.248-4.568 3.286zm12.156 2.286l-3.706-.624 3.529-3.7 3.706.624c5.622.946.669 4.407-3.529 3.7z" class="Vector 21 (Stroke)_2" clip-rule="evenodd"/>
      <path fill="#2E69FF" fill-rule="evenodd" d="M347.369 176.878l-3.706-.624 3.549-3.244 3.705.624-3.548 3.244zm13.659 2.543l-7.412-1.248 4.713-3.291 7.411 1.248-4.712 3.291zm14.39 2.514l-7.411-1.248 5.145-3.309 7.411 1.247-5.145 3.31zm14.823 2.495l-7.412-1.248 5.145-3.309 7.412 1.248-5.145 3.309zm15.543 2.467l-7.411-1.248 4.424-3.28 7.412 1.248-4.425 3.28zm15.112 2.483l-7.412-1.247 4.136-3.268 7.412 1.247-4.136 3.268zm14.39 2.514l-7.411-1.248 4.568-3.286 7.412 1.248-4.569 3.286zm12.156 2.286l-3.706-.624 3.53-3.7 3.706.624c5.622.946.668 4.407-3.53 3.7z" class="Vector 21 (Stroke).1_2" clip-rule="evenodd"/>
      <path fill="#2E69FF" fill-rule="evenodd" d="M338.054 185.872l-3.706-.624 3.548-3.244 3.706.624-3.548 3.244zm13.658 2.543l-7.411-1.248 4.712-3.292 7.412 1.248-4.713 3.292zm14.391 2.513l-7.412-1.248 5.145-3.309 7.412 1.248-5.145 3.309zm14.822 2.496l-7.411-1.248 5.145-3.309 7.412 1.248-5.146 3.309zm15.544 2.466l-7.411-1.248 4.424-3.279 7.411 1.247-4.424 3.28zm15.111 2.484l-7.411-1.248 4.136-3.268 7.411 1.248-4.136 3.268zm14.391 2.513l-7.412-1.247 4.569-3.286 7.411 1.248-4.568 3.285zm12.156 2.287l-3.706-.624 3.53-3.7 3.705.623c5.622.947.669 4.408-3.529 3.701z" class="Vector 21 (Stroke).1.1_2" clip-rule="evenodd"/>
      <path fill="#2E69FF" fill-rule="evenodd" d="M328.739 194.865l-3.705-.623 3.548-3.245 3.705.624-3.548 3.244zm13.659 2.544l-7.412-1.248 4.713-3.292 7.411 1.248-4.712 3.292zm14.39 2.513l-7.411-1.248 5.145-3.309 7.411 1.248-5.145 3.309zm14.823 2.495l-7.411-1.247 5.145-3.31 7.411 1.248-5.145 3.309zm15.544 2.467l-7.412-1.248 4.424-3.28 7.412 1.248-4.424 3.28zm15.111 2.484l-7.412-1.248 4.136-3.268 7.412 1.248-4.136 3.268zm14.39 2.513l-7.411-1.248 4.568-3.285 7.412 1.247-4.569 3.286zm12.156 2.287l-3.705-.624 3.529-3.701 3.706.624c5.622.947.669 4.407-3.53 3.701z" class="Vector 21 (Stroke).1.1.1_2" clip-rule="evenodd"/>
    </g>
    <path fill="#FFBD5A" d="M425.086 210.67c-3.208-10.203-9.304-9.878-9.304-9.878l-15.046.82s-10.592 7.698-28.402 21.425c1.279 2.716 1.973 7.69 8.101 13.186 1.536 1.377 10.205 8.905 29.305-5.942 19.458.669 19.977-4.881 15.346-19.611z" class="Vector 8"/>
    <path fill="#FFBD5A" d="M346.641 187.596c-2.444-7.776-7.09-7.527-7.09-7.527l-11.465.624s-12.324 4.199-25.581 19.204c.974 2.07 5.441 2.983 10.111 7.17 1.17 1.05 5.767 1.291 20.322-10.023 14.827.51 17.232 1.776 13.703-9.448z" class="Vector 8.1"/>
    <path fill="#FFBD5A" d="M328.903 212.719c-4.297 2.14-12.956-.114-16.749-1.509l1.638-9.707 13.016-5.524c.005 2.163.516 6.675 2.514 7.424 2.498.936 6.155-.238 8.544 1.585 2.389 1.824-3.591 5.055-8.963 7.731z" class="Vector 11"/>
  </g>
</svg>
