<svg xmlns="http://www.w3.org/2000/svg" width="804" height="602" fill="none" viewBox="0 0 804 602">
  <g class="man_learning_from_videos">
    <path fill="#fff" d="M2 0h800v600H2z"/>
    <path fill="#F7F8FF" d="M67.19 391.867L.856 407.749h802.422v-15.882H67.19z" class="Vector 6"/>
    <path fill="#E6EAFC" fill-rule="evenodd" d="M324.916 256.016a13.35 13.35 0 003.067-2.386c4.433-4.592 8.249-19.485 10.777-36.074 3.102-2.4 5.922-6.051 5.396-8.155-.432-1.727-1.854-5.169-3.337-8.52.85-8.875 1.277-17.43 1.183-24.389a159.448 159.448 0 012.993-6.021h223.772a9.169 9.169 0 019.169 9.169v94.934h-253.02v1.516-20.074z" class="Subtract" clip-rule="evenodd"/>
    <path fill="#DEE3FC" fill-rule="evenodd" d="M93.508 351.657c-3.32 0-6.03 2.697-5.727 6.002 1.673 18.305 10.927 42.149 35.265 42.149 25.715 0 34.448-23.843 36-42.147.281-3.308-2.43-6.004-5.749-6.004H93.508z" class="Subtract_2" clip-rule="evenodd"/>
    <path fill="#D1D8FC" fill-rule="evenodd" d="M104.362 354.94c3.586 9.977 7.583 21.1 17.528 29.877 5.416 4.78 11.794 7.363 17.337 9.607.475.192.945.382 1.406.571-4.71 3.003-10.505 4.812-17.587 4.812-24.338 0-33.592-23.844-35.265-42.149-.302-3.305 2.408-6.002 5.727-6.002h9.665c.397 1.077.79 2.173 1.189 3.284z" class="Intersect" clip-rule="evenodd"/>
    <rect width="41.676" height="8.159" x="159.066" y="445.142" fill="#A8B0D4" class="Rectangle" rx="4.08"/>
    <rect width="41.676" height="7.028" x="160.822" y="445.142" fill="#051972" class="Rectangle_2" rx="3.514"/>
    <path fill="#D1D8FC" d="M146.232 400.58c0 1.153-20.085 1.116-35.48 1.116-15.394 0-18.3.037-18.3-1.116s2.906-2.088 18.3-2.088c15.395 0 35.48.935 35.48 2.088z" class="Ellipse 3.1"/>
    <path stroke="#DEE3FC" stroke-linecap="round" stroke-width="7" d="M149.382 383.988c9.465 4.86 19.899-3.668 19.899-12.937 0-13.596-15.177-5.059-15.177-5.059" class="Ellipse"/>
    <path fill="#E6EAFC" fill-opacity=".54" d="M94.969 233.869c-2.182-18.523 22.903-27.718 33.272-34.262-3.926 6.544-23.305 16.945-19.984 30.94 3.645 15.357 29.592 2.592 36.845 16.611 9.477 18.317-25.633 29.297-30.819 49.258-4.929 18.974 13.958 49.614 13.958 49.614s-34.148-33.441-35.688-46.625c-2.182-18.673 31.915-20.135 28.69-38.657-2.518-14.461-24.557-12.3-26.274-26.879z" class="Vector 3"/>
    <path fill="#E6EAFC" fill-opacity=".54" d="M125.604 300.862c-.86-7.299 13.214-16.039 17.3-18.618-1.548 2.579-11.364 13.103-10.055 18.618 1.437 6.052 12.386 4.773 15.244 10.297 2.722 5.26-12.109 27.68-12.109 27.68s2.347-9.504 0-22.984c-.993-5.699-9.704-9.248-10.38-14.993z" class="Vector 3.1"/>
    <path fill="#E6EAFC" fill-opacity=".54" d="M95.875 274.828c.86-7.299-13.214-16.039-17.3-18.618 1.547 2.579 11.363 13.103 10.054 18.618-1.436 6.051-12.386 4.773-15.244 10.297-2.721 5.26 19.428 30.73 19.428 30.73s-9.666-12.554-7.318-26.034c.992-5.699 9.703-9.248 10.38-14.993z" class="Vector 3.2"/>
    <path fill="#D7DEFC" d="M455.961 354.536h86.658v36.898h-86.658z" class="Rectangle 3"/>
    <path fill="#000" fill-opacity=".09" d="M455.961 354.536h86.658v4.316l-86.658 7.18v-11.496z" class="Rectangle 3.2"/>
    <rect width="403.561" height="193.197" x="297.51" y="151.149" fill="#fff" class="Rectangle 3.1" rx="12"/>
    <path fill="#6C92FF" fill-rule="evenodd" d="M231.478 157.025c-4.39-22.606 16.425-39 50.283-45.141 33.888-6.146 92.118 17.406 82.645 30.779-3.366 4.752-6.961 9.235-10.367 13.482l-.001.001c-4.881 6.087-9.211 14.354-12.036 20.346.095 6.959-.332 15.514-1.182 24.389 1.483 3.351 2.904 6.793 3.336 8.52.526 2.104-2.293 5.755-5.395 8.155-2.529 16.589-6.345 31.482-10.778 36.074-3.625 3.754-8.383 4.711-13.67 3.697.609 7.182 1.76 13.406 3.203 18.763h8.282c4.216 4.238 10.366 15.441 9.56 18.551-1.336 5.153-100.534 24.741-110.686 8.206-4.785-7.792 8.584-26.757 14.087-26.757h11.922c2.485-5.356 4.751-11.652 6.556-19.033-3.688-5.61-7.987-10.694-12.308-15.805-11.875-14.045-23.92-28.29-23.92-54.201 0-11.412 4.077-21.679 10.469-30.026zm26.111 100.571l.106.165.059.093.106.166c4.971 7.796 38.119 10.476 51.07-2.31a18.76 18.76 0 001.191-1.288c.891-1.061 1.721-2.023 2.488-2.914l.001-.001.002-.001v-.001h.001v-.001c1.447-1.678 2.675-3.103 3.691-4.458-1.015 1.353-2.242 2.776-3.686 4.452l-.004.004-.001.001-.001.002-.001.001-.005.006-.002.002-.003.004c-.765.888-1.592 1.846-2.48 2.904-11.971 14.241-47.129 11.645-52.261 3.597l-.271-.423zm62.302-26.555a55.12 55.12 0 01-.165-4.103c-.016 1.015.026 2.316.165 4.103zm11.947 133.031H184.147c-.758 0-1.514.011-2.266.031-11.286.311-21.908 2.934-31.462 7.381 17.964-30.605 44.55-54.869 73.891-69.32.107.237.227.465.362.684 9.907 16.134 104.597-2.126 110.419-7.807a163.402 163.402 0 0118.682 7.123l.484.22-.007-.003-.477-.217h224.164v6.665H366.871a163.737 163.737 0 0112.437 7.812h198.629v27.705h-167.15c36.771 40.598 78.032 122.04 74.691 145.429-2.694 18.854-18.176 42.222-32.3 40.998l-6.44-92.271c-2.926-41.919-37.785-74.43-79.806-74.43h-35.094zm271.331-193.601a3.93 3.93 0 00-3.93 3.929v18.748a3.93 3.93 0 003.93 3.929h27.916a3.929 3.929 0 003.929-3.929V174.4a3.929 3.929 0 00-3.929-3.929h-27.916zm0 68.467a3.93 3.93 0 00-3.93 3.929v18.748a3.93 3.93 0 003.93 3.929h27.916a3.929 3.929 0 003.929-3.929v-18.748a3.929 3.929 0 00-3.929-3.929h-27.916zm39.472-64.538a3.93 3.93 0 013.93-3.929h27.916a3.929 3.929 0 013.929 3.929v18.748a3.929 3.929 0 01-3.929 3.929h-27.916a3.93 3.93 0 01-3.93-3.929V174.4zm-39.472 30.303a3.93 3.93 0 00-3.93 3.93v18.747a3.93 3.93 0 003.93 3.93h27.916a3.93 3.93 0 003.929-3.93v-18.747a3.93 3.93 0 00-3.929-3.93h-27.916zm39.472 3.93a3.93 3.93 0 013.93-3.93h27.916a3.93 3.93 0 013.929 3.93v18.747a3.93 3.93 0 01-3.929 3.93h-27.916a3.93 3.93 0 01-3.93-3.93v-18.747zm3.93 30.305a3.93 3.93 0 00-3.93 3.929v18.748a3.93 3.93 0 003.93 3.929h27.916a3.929 3.929 0 003.929-3.929v-18.748a3.929 3.929 0 00-3.929-3.929h-27.916zm-47.332 38.161a3.93 3.93 0 013.93-3.929h27.916a3.929 3.929 0 013.929 3.929v18.748a3.929 3.929 0 01-3.929 3.929h-27.916a3.93 3.93 0 01-3.93-3.929v-18.748zm47.332-3.929a3.93 3.93 0 00-3.93 3.929v18.748a3.93 3.93 0 003.93 3.929h27.916a3.929 3.929 0 003.929-3.929v-18.748a3.929 3.929 0 00-3.929-3.929h-27.916zm-47.332 38.164a3.93 3.93 0 013.93-3.93h27.916a3.93 3.93 0 013.929 3.93v18.747a3.93 3.93 0 01-3.929 3.93h-27.916a3.93 3.93 0 01-3.93-3.93v-18.747zm47.332-3.93a3.93 3.93 0 00-3.93 3.93v18.747a3.93 3.93 0 003.93 3.93h27.916a3.93 3.93 0 003.929-3.93v-18.747a3.93 3.93 0 00-3.929-3.93h-27.916zm-226.322-87.019a5.254 5.254 0 015.254-5.254h40.124a5.254 5.254 0 015.254 5.254v23.922a5.254 5.254 0 01-5.254 5.255h-40.124a5.254 5.254 0 01-5.254-5.255v-23.922zm-89.657 53.189a1 1 0 100 2h242.392a1 1 0 100-2H330.592z" class="Primary" clip-rule="evenodd"/>
    <path fill="#E6EAFC" fill-rule="evenodd" d="M283.151 264.536v.001c4.88-.187 9.86-.937 14.359-2.375v-.001c-4.499 1.438-9.479 2.188-14.359 2.375zm0 42.364c4.872-.643 9.708-1.38 14.359-2.171v.001c-4.651.79-9.487 1.527-14.359 2.17zm81.255-164.237c-2.074 2.928-4.235 5.754-6.385 8.485h331.05c6.627 0 12 5.373 12 12v169.197c0 6.628-5.373 12-12 12H410.786a223.764 223.764 0 018.657 10.191h283.986c6.628 0 12-5.373 12-12V152.959c0-6.627-5.372-12-12-12h-338.19a5.617 5.617 0 01-.833 1.704zm-39.489 113.353a13.345 13.345 0 003.066-2.386c4.433-4.592 8.249-19.485 10.778-36.074 3.102-2.4 5.921-6.051 5.395-8.155-.432-1.727-1.853-5.169-3.336-8.52.85-8.875 1.277-17.43 1.182-24.389a158.054 158.054 0 012.994-6.021h223.772a9.169 9.169 0 019.169 9.169v94.934h-3.953a1 1 0 00-1-1H403.908a1.495 1.495 0 00-1.118-.5h-71.954a1.5 1.5 0 00-1.5 1.5h-4.419v-18.558zm62.634-3.896c8.017 2.658 16.67-1.687 19.327-9.704 2.657-8.017-1.688-16.67-9.704-19.327-8.017-2.658-16.67 1.687-19.328 9.704-2.657 8.017 1.688 16.67 9.705 19.327zm32.698-31.735a5.254 5.254 0 015.254-5.254h40.124a5.254 5.254 0 015.254 5.254v23.922a5.254 5.254 0 01-5.254 5.255h-40.124a5.254 5.254 0 01-5.254-5.255v-23.922zm202.447-37.026a.851.851 0 010 1.474l-7.715 4.454a.851.851 0 01-1.277-.737v-8.908a.852.852 0 011.277-.738l7.715 4.455zM802 478.261H484.694c-2.871-14.584-11.857-36.419-23.834-59.212H802v59.212zM666.098 184.833a.851.851 0 000-1.474l-7.715-4.455a.852.852 0 00-1.277.738v8.908a.851.851 0 001.277.737l7.715-4.454zm-43.402 32.76a.851.851 0 010 1.474l-7.715 4.454a.851.851 0 01-1.277-.737v-8.908a.851.851 0 011.277-.737l7.715 4.454zm43.402 1.474a.851.851 0 000-1.474l-7.715-4.454a.851.851 0 00-1.277.737v8.908a.851.851 0 001.277.737l7.715-4.454zm-43.402 32.758a.852.852 0 010 1.475l-7.715 4.454a.851.851 0 01-1.277-.737v-8.909a.851.851 0 011.277-.737l7.715 4.454zm43.402 1.475a.852.852 0 000-1.475l-7.715-4.454a.851.851 0 00-1.277.737v8.909a.851.851 0 001.277.737l7.715-4.454zm-43.402 32.76a.851.851 0 010 1.474l-7.715 4.454a.851.851 0 01-1.277-.737v-8.908a.85.85 0 011.277-.737l7.715 4.454zm43.402 1.474a.851.851 0 000-1.474l-7.715-4.454a.85.85 0 00-1.277.737v8.908a.851.851 0 001.277.737l7.715-4.454zm-43.402 32.758a.851.851 0 010 1.474l-7.715 4.455a.852.852 0 01-1.277-.738v-8.908a.851.851 0 011.277-.737l7.715 4.454zm43.402 1.474a.851.851 0 000-1.474l-7.715-4.454a.851.851 0 00-1.277.737v8.908a.852.852 0 001.277.738l7.715-4.455zM4 419.049h104.123l-.06.18c-4.051 12.354-5.144 25.93-2.507 39.794l3.66 19.238H2v-57.212a2 2 0 012-2zm109.381 81.107H2V600h130.375l-18.994-99.844zm385.909 0H802V600H499.29v-99.844zm-54.164-108.722a466.3 466.3 0 015.88 9.819H635.95v-9.819H445.126z" class="Secondary" clip-rule="evenodd"/>
    <path fill="#453E5D" fill-opacity=".3" fill-rule="evenodd" d="M577.936 274.574v9.632a9.169 9.169 0 01-9.169 9.169H334.085a9.169 9.169 0 01-9.169-9.169v-9.632h253.02z" class="Intersect_2" clip-rule="evenodd"/>
    <g class="Group 3" opacity=".7">
      <circle cx="172.635" cy="109.167" r="31.734" fill="#F1F4FD" class="Ellipse 3" transform="rotate(-15.65 172.635 109.167)"/>
      <path fill="#D9DFFF" fill-rule="evenodd" d="M157.965 119.15s8.37 11.612 19.821 8.404c12.544-3.514 12.571-17.478 12.571-17.478s-6.88 10.021-14.094 12.041c-7.213 2.021-18.298-2.967-18.298-2.967z" class="Subtract_3" clip-rule="evenodd"/>
      <g class="Group 2">
        <circle cx="161.146" cy="105.218" r="3.318" fill="#D9DFFF" class="Ellipse 4" transform="rotate(-15.65 161.146 105.218)"/>
        <circle cx="180.401" cy="99.824" r="3.318" fill="#D9DFFF" class="Ellipse 4.1" transform="rotate(-15.65 180.401 99.824)"/>
      </g>
    </g>
    <g class="Group 3.6" opacity=".7">
      <circle cx="85.434" cy="54.687" r="11.162" fill="#F1F4FD" class="Ellipse 3_2" transform="rotate(18.601 85.434 54.687)"/>
      <path fill="#CBD4FD" fill-rule="evenodd" d="M79.192 54.685s.135 5.033 4.1 6.367c4.343 1.462 7.115-2.593 7.115-2.593s-3.984 1.552-6.482.711c-2.497-.84-4.733-4.485-4.733-4.485z" class="Subtract_4" clip-rule="evenodd"/>
      <g class="Group 2_2">
        <circle cx="82.875" cy="51.264" r="1.167" fill="#CBD4FD" class="Ellipse 4_2" transform="rotate(18.601 82.875 51.264)"/>
        <circle cx="89.541" cy="53.507" r="1.167" fill="#CBD4FD" class="Ellipse 4.1_2" transform="rotate(18.601 89.541 53.507)"/>
      </g>
    </g>
    <g class="Group 3.1" opacity=".6">
      <circle cx="330.48" cy="46.27" r="19.914" fill="#F1F4FD" class="Ellipse 3_3" transform="rotate(4.923 330.48 46.27)"/>
      <path fill="#D6DDFC" fill-rule="evenodd" d="M319.659 48.9s2.357 8.668 9.792 9.308c8.145.702 11.24-7.496 11.24-7.496s-6.252 4.37-10.936 3.966c-4.683-.403-10.096-5.778-10.096-5.778z" class="Subtract_5" clip-rule="evenodd"/>
      <g class="Group 2_3">
        <circle cx="324.601" cy="41.416" r="2.082" fill="#D6DDFC" class="Ellipse 4_3" transform="rotate(4.923 324.601 41.416)"/>
        <circle cx="337.103" cy="42.493" r="2.082" fill="#D6DDFC" class="Ellipse 4.1_3" transform="rotate(4.923 337.103 42.493)"/>
      </g>
    </g>
    <g class="Group 3.2" opacity=".5">
      <circle cx="39.857" cy="197.077" r="15.292" fill="#F1F4FD" class="Ellipse 3_4" transform="rotate(-13.888 39.857 197.077)"/>
      <path fill="#C3CDFA" fill-rule="evenodd" d="M32.643 201.668s3.86 5.717 9.422 4.341c6.095-1.506 6.314-8.232 6.314-8.232s-3.462 4.724-6.967 5.591c-3.504.866-8.77-1.7-8.77-1.7z" class="Subtract_6" clip-rule="evenodd"/>
      <g class="Group 2_4">
        <circle cx="34.381" cy="195.004" r="1.599" fill="#C3CDFA" class="Ellipse 4_4" transform="rotate(-13.888 34.381 195.004)"/>
        <circle cx="43.736" cy="192.691" r="1.599" fill="#C3CDFA" class="Ellipse 4.1_4" transform="rotate(-13.888 43.736 192.691)"/>
      </g>
    </g>
    <g class="Group 3.4">
      <circle cx="485.668" cy="76.37" r="15.292" fill="#F1F4FD" class="Ellipse 3_5" transform="rotate(19.356 485.668 76.37)"/>
      <path fill="#DAE1FC" fill-rule="evenodd" d="M477.117 76.254s.094 6.898 5.501 8.797c5.923 2.08 9.794-3.424 9.794-3.424s-5.486 2.053-8.892.857c-3.406-1.197-6.403-6.23-6.403-6.23z" class="Subtract_7" clip-rule="evenodd"/>
      <g class="Group 2_5">
        <circle cx="482.225" cy="71.634" r="1.599" fill="#DAE1FC" class="Ellipse 4_5" transform="rotate(19.356 482.225 71.634)"/>
        <circle cx="491.316" cy="74.828" r="1.599" fill="#DAE1FC" class="Ellipse 4.1_5" transform="rotate(19.356 491.316 74.828)"/>
      </g>
    </g>
    <g class="Group 3.5">
      <circle cx="667.305" cy="54.687" r="15.292" fill="#F1F4FD" class="Ellipse 3_6" transform="rotate(-3.77 667.305 54.687)"/>
      <path fill="#D2DAFB" fill-rule="evenodd" d="M659.396 57.939s2.796 6.306 8.514 5.93c6.264-.413 7.662-6.996 7.662-6.996s-4.239 4.043-7.841 4.28c-3.602.238-8.335-3.214-8.335-3.214z" class="Subtract_8" clip-rule="evenodd"/>
      <g class="Group 2_6">
        <circle cx="662.279" cy="51.684" r="1.599" fill="#D2DAFB" class="Ellipse 4_6" transform="rotate(-3.77 662.279 51.684)"/>
        <circle cx="671.894" cy="51.05" r="1.599" fill="#D2DAFB" class="Ellipse 4.1_6" transform="rotate(-3.77 671.894 51.05)"/>
      </g>
    </g>
    <g class="Group 3.7">
      <circle cx="392.363" cy="237.605" r="15.292" fill="#F1F4FD" class="Ellipse 3_7" transform="rotate(18.338 392.363 237.605)"/>
      <path fill="#D2DAFB" fill-rule="evenodd" d="M383.812 237.642s.216 6.895 5.656 8.698c5.959 1.975 9.731-3.598 9.731-3.598s-5.449 2.151-8.875 1.015c-3.427-1.136-6.512-6.115-6.512-6.115z" class="Subtract_9" clip-rule="evenodd"/>
      <g class="Group 2_7">
        <circle cx="388.836" cy="232.932" r="1.599" fill="#D2DAFB" class="Ellipse 4_7" transform="rotate(18.338 388.836 232.932)"/>
        <circle cx="397.982" cy="235.963" r="1.599" fill="#D2DAFB" class="Ellipse 4.1_7" transform="rotate(18.338 397.982 235.963)"/>
      </g>
    </g>
    <path fill="#000" fill-opacity=".1" fill-rule="evenodd" d="M319.15 241.903c2.078-3.033 3.471-6.218 2.865-8.764-1.062-4.461.372-13.707 1.586-21.535.646-4.163 1.229-7.925 1.342-10.354.081-1.727.562-3.799 1.005-5.702.936-4.031 1.696-7.3-1.912-4.904a4.688 4.688 0 00-.375.519l-.047.44c-.435 4.083-.961 9.027-1.459 15.868-.152 2.077-.546 4.166-.975 6.432-.865 4.579-1.867 9.883-1.276 17.287.386 4.838.149 8.042-.754 10.713z" class="Subtract_10" clip-rule="evenodd"/>
    <path fill="#D7DEFC" d="M132.487 449.343c-3.048-46.156 33.569-85.271 79.826-85.271h154.619c42.021 0 76.88 32.511 79.806 74.43l11.32 162.201H142.481l-9.994-151.36z" class="Rectangle 8.1"/>
    <path fill="#F7F8FF" d="M105.556 459.023c-9.377-49.293 28.413-94.951 78.59-94.951h147.691c41.393 0 75.95 31.575 79.676 72.8L426.435 602h-293.68l-27.199-142.977z" class="Rectangle 8"/>
    <path fill="#fff" fill-opacity=".57" fill-rule="evenodd" d="M603.169 170.471a3.93 3.93 0 00-3.93 3.929v18.748a3.93 3.93 0 003.93 3.929h27.916a3.929 3.929 0 003.929-3.929V174.4a3.929 3.929 0 00-3.929-3.929h-27.916zm0 68.467a3.93 3.93 0 00-3.93 3.929v18.748a3.93 3.93 0 003.93 3.929h27.916a3.929 3.929 0 003.929-3.929v-18.748a3.929 3.929 0 00-3.929-3.929h-27.916zm39.472-64.538a3.93 3.93 0 013.93-3.929h27.916a3.929 3.929 0 013.929 3.929v18.748a3.929 3.929 0 01-3.929 3.929h-27.916a3.93 3.93 0 01-3.93-3.929V174.4zm-39.472 30.303a3.93 3.93 0 00-3.93 3.93v18.747a3.93 3.93 0 003.93 3.93h27.916a3.93 3.93 0 003.929-3.93v-18.747a3.93 3.93 0 00-3.929-3.93h-27.916zm39.472 3.93a3.93 3.93 0 013.93-3.93h27.916a3.93 3.93 0 013.929 3.93v18.747a3.93 3.93 0 01-3.929 3.93h-27.916a3.93 3.93 0 01-3.93-3.93v-18.747zm3.93 30.305a3.93 3.93 0 00-3.93 3.929v18.748a3.93 3.93 0 003.93 3.929h27.916a3.929 3.929 0 003.929-3.929v-18.748a3.929 3.929 0 00-3.929-3.929h-27.916zm-47.332 38.161a3.93 3.93 0 013.93-3.929h27.916a3.929 3.929 0 013.929 3.929v18.748a3.929 3.929 0 01-3.929 3.929h-27.916a3.93 3.93 0 01-3.93-3.929v-18.748zm47.332-3.929a3.93 3.93 0 00-3.93 3.929v18.748a3.93 3.93 0 003.93 3.929h27.916a3.929 3.929 0 003.929-3.929v-18.748a3.929 3.929 0 00-3.929-3.929h-27.916zm-47.332 38.164a3.93 3.93 0 013.93-3.93h27.916a3.93 3.93 0 013.929 3.93v18.747a3.93 3.93 0 01-3.929 3.93h-27.916a3.93 3.93 0 01-3.93-3.93v-18.747zm47.332-3.93a3.93 3.93 0 00-3.93 3.93v18.747a3.93 3.93 0 003.93 3.93h27.916a3.93 3.93 0 003.929-3.93v-18.747a3.93 3.93 0 00-3.929-3.93h-27.916z" class="Union" clip-rule="evenodd"/>
    <path fill="#000" fill-opacity=".52" fill-rule="evenodd" d="M281.761 111.884c-33.857 6.141-54.673 22.535-50.283 45.141-6.392 8.347-10.468 18.614-10.468 30.026 0 25.911 12.044 40.156 23.919 54.201 4.567 5.401 9.109 10.773 12.932 16.767 5.131 8.048 40.289 10.644 52.26-3.597.89-1.06 1.718-2.02 2.485-2.91l.005-.006.001-.001.001-.002c5.891-6.834 8.157-9.463 7.29-20.313-.591-7.404.459-6.614.459-11.224l.818-6.063c.428-2.266.823-4.355.974-6.432.499-6.841 1.025-11.785 1.46-15.868l.047-.44a4.685 4.685 0 018.652 2.763l-1.057 17.393c1.191.466 1.876.746 1.876.746s6.155-16.316 5.458-27.808c-.498-8.225 6.875-17.419 15.449-28.111l.001-.001c3.405-4.247 7-8.73 10.367-13.482 9.472-13.373-48.758-36.925-82.646-30.779zm44.038 164.206h-87.04c-5.503 0-18.872 18.965-14.087 26.757 10.153 16.535 109.35-3.053 110.686-8.206.807-3.11-5.343-14.313-9.559-18.551z" class="Union_2" clip-rule="evenodd"/>
    <path fill="#051972" fill-rule="evenodd" d="M113.107 407.25H.323v2h111.778c.326-.672.662-1.338 1.006-2zm-1.646 82.812H.323v-2H111.08l.381 2zM454.44 407.25c.375.667.748 1.333 1.119 2h348.189v-2H454.44zm31.038 82.525l-.042.287h318.312v-2H485.639c-.03.601-.084 1.172-.161 1.713z" class="Subtract_11" clip-rule="evenodd"/>
    <path fill="#C5CEFC" d="M709.31 401.093c.124.602-12.111.602-27.506.602s-18.3.038-18.3-1.115 2.905-2.088 18.3-2.088c15.395 0 27.104.634 27.506 2.601z" class="Ellipse 3_8"/>
    <path fill="#D7DEFC" fill-rule="evenodd" d="M673.812 400.868c-1.907-.02-3.582-1.387-3.669-3.292-.425-9.363 5.751-14.693 14.838-14.693 12.158 0 24.698 7.127 24.698 16.107 0 1.317-1.172 2.253-2.489 2.239l-33.378-.361z" class="Subtract_12" clip-rule="evenodd"/>
    <path fill="#000" fill-opacity=".1" fill-rule="evenodd" d="M257.237 257.055c.21.321.417.643.623.966 5.131 8.047 40.29 10.644 52.26-3.598a303.426 303.426 0 012.492-2.917l.001-.001.001-.001v-.001l.346-.401c4.533 2.032 8.935 4.101 11.176 5.318-2.907 1.377-6.244 1.594-9.823.908l.003.044a12.032 12.032 0 01-3.201-1.365c-6.992 6.811-18.193 13.182-29.424 17.234 13.486.778 27.66 1.348 35.324.906.163.66.33 1.308.501 1.943h-66.835l.037-.082c2.47-5.338 4.723-11.609 6.519-18.953z" class="Subtract_13" clip-rule="evenodd"/>
    <path fill="#000" fill-opacity=".15" fill-rule="evenodd" d="M224.31 302.164c-29.342 14.45-55.928 38.715-73.892 69.32 9.554-4.447 20.177-7.07 31.462-7.381.753-.02 1.508-.031 2.266-.031h182.786c42.021 0 76.88 32.511 79.805 74.43l6.4 91.701c1.727-12.429.261-27.755-1.776-49.067v-.005l-.001-.004v-.007c-1.086-11.36-2.335-24.42-3.349-39.648-5.105-76.634-54.877-89.488-187.507-85.358 17.865-26.539 53.635-52.428 76.967-60.309-.791-.261-1.585-.516-2.38-.765-5.822 5.682-100.513 23.942-110.42 7.807a6.09 6.09 0 01-.361-.683z" class="Subtract_14" clip-rule="evenodd"/>
    <path fill="#000" fill-opacity=".32" fill-rule="evenodd" d="M312.447 137.135c6.971-8.365 9.48-16.203 7.918-22.972-13.3-3.076-27.305-4.328-38.604-2.279-33.629 6.1-54.392 22.315-50.368 44.684.162-.02.325-.042.49-.066-6.624 8.44-10.873 18.898-10.873 30.549 0 22.228 12.615 38.579 24.753 54.312 4.284 5.552 8.508 11.027 12.098 16.657 5.131 8.047 40.289 10.644 52.26-3.598.893-1.062 1.723-2.025 2.491-2.917l.002-.001v-.001c1.003-1.164 1.901-2.205 2.696-3.186-9.71-3.621-24.397-9.306-32.368-18.605-7.763-9.057-3.994-24.82-.324-40.164 3.466-14.495 6.843-28.615.324-36.356-.153-.181-.31-.358-.471-.529 9.55.915 20.782-4.495 29.976-15.528z" class="Union_3" clip-rule="evenodd"/>
    <path fill="#051972" fill-rule="evenodd" d="M329.336 274.574a1.5 1.5 0 011.5-1.5h71.954a1.5 1.5 0 010 3h-71.954a1.5 1.5 0 01-1.5-1.5z" class="Subtract_15" clip-rule="evenodd"/>
    <path fill="#fff" fill-opacity=".66" fill-rule="evenodd" d="M353.773 302.164a162.449 162.449 0 0113.098 6.665h211.066v-6.665H353.773zm45.761 30.969c3.666 3.224 7.435 6.998 11.253 11.213h167.15v-27.705H379.308a167.435 167.435 0 0120.226 16.492z" class="Union_4" clip-rule="evenodd"/>
    <path fill="#000" fill-opacity=".47" d="M453.977 231.233a1.285 1.285 0 010 2.227l-11.654 6.728a1.286 1.286 0 01-1.929-1.113v-13.458a1.286 1.286 0 011.929-1.113l11.654 6.729z" class="Polygon"/>
    <rect width="41.676" height="7.028" x="630.202" y="546.564" fill="#000" fill-opacity=".23" class="Rectangle_3" rx="3.514"/>
    <rect width="41.676" height="8.159" x="628.446" y="445.142" fill="#000" fill-opacity=".23" class="Rectangle_4" rx="4.08"/>
    <path fill="#051972" fill-rule="evenodd" d="M633.716 445.141a3.513 3.513 0 100 7.027h34.649a3.514 3.514 0 000-7.027h-34.649z" class="Subtract_16" clip-rule="evenodd"/>
    <path fill="#000" fill-opacity=".06" fill-rule="evenodd" d="M206.74 471.703c.894 12.782 1.736 24.808 1.979 35.159C209.687 548 239.176 577.6 285.144 602H132.755l-27.199-142.977c-9.377-49.293 28.414-94.951 78.591-94.951h26.703c-9.728 27.352-6.698 70.653-4.11 107.631z" class="Intersect_3" clip-rule="evenodd"/>
    <path fill="#000" fill-opacity=".23" fill-rule="evenodd" d="M122.209 546.564h-22.84a3.514 3.514 0 000 7.028h24.177l-1.337-7.028z" class="Subtract_17" clip-rule="evenodd"/>
  </g>
</svg>
