<svg xmlns="http://www.w3.org/2000/svg" width="800" height="600" fill="none" viewBox="0 0 800 600">
  <g class="navigating_two">
    <path fill="#fff" d="M0 0h800v600H0z"/>
    <path fill="#fff" d="M733.284 560.067c1.898 0 3.496-1.598 3.496-3.495 0-1.896-1.598-3.494-3.496-3.494-1.897 0-3.495 1.598-3.495 3.494.099 1.997 1.598 3.495 3.495 3.495zm5.493-3.495c0 2.995-2.497 5.491-5.493 5.491-2.996 0-5.493-2.496-5.493-5.491 0-2.995 2.497-5.49 5.493-5.49a5.475 5.475 0 015.493 5.49z" class="Vector"/>
    <path fill="#fff" fill-rule="evenodd" d="M532.935 197.172h148.214-32.759v13.278h30.163v5.291h-2.697v.001H648.39v42.23h27.466v-.001h46.841c11.086 0 20.075-9.085 20.075-20.167v-29.151c0-3.76-1.079-7.225-2.945-10.299l.049.016c-3.596-5.891-9.988-9.784-17.279-9.784v.1h-41.448v-.1H522.548c-11.087 0-20.075 8.985-20.075 20.066v29.052c0 7.105 3.61 13.234 9.094 16.845.03.109.062.217.094.325a20.188 20.188 0 0010.887 3.194H648.29v-42.229h-69.313v-5.292h69.313V197.27H532.835a22.002 22.002 0 00-15.4 6.261 22.004 22.004 0 0115.5-6.359zm35.355 3.891h-44.344v44.326h44.344v-44.326zm71.411 37.138v-1.996h-60.724v1.996h60.724zm0-8.286v-1.997h-60.724v1.997h60.724z" class="Union" clip-rule="evenodd"/>
    <path fill="#fff" d="M390.312 436.173a3.495 3.495 0 100-6.988 3.495 3.495 0 100 6.988z" class="Vector_2"/>
    <path fill="#fff" d="M343.571 318.968v3.894c-.199-.1-.299-.2-.399-.3-.4-.399-.699-.998-.699-1.597s.199-1.198.699-1.597c.1-.3.2-.4.399-.4z" class="Vector_3"/>
    <path fill="#fff" d="M343.571 290.316v1.897c-.1-.299-.2-.599-.2-.899 0-.399 0-.798.2-.998z" class="Vector_4"/>
    <path fill="#fff" d="M343.571 265.458v1.896c-.1-.299-.2-.599-.2-.898 0-.399 0-.699.2-.998z" class="Vector_5"/>
    <path fill="#fff" d="M343.57 257.671v4.392c-.5-.1-.899-.299-1.299-.599-.399-.399-.699-.998-.699-1.597s.3-1.198.699-1.597c.3-.4.799-.599 1.299-.599z" class="Vector_6"/>
    <path fill="#fff" d="M299.725 298.702c4.794 4.792 2.996 19.967.699 32.446-.899 4.892-1.898 9.285-2.597 12.479-.599 2.696-1.098 4.792-1.298 6.09l-5.893 30.05h-5.693l2.497-12.579c.799-4.892 7.291-26.556 10.088-44.825 3.196-5.691 2.996-11.98 1.897-17.371-.2-.899-.499-1.697-.999-2.396-.399-2.296-.998-4.193-2.097-5.391 1.398.1 2.497.599 3.396 1.497z" class="Vector_7"/>
    <path fill="#fff" d="M279.051 311.281c2.397-4.293 4.594-6.689 6.691-8.286-2.197 2.296-4.394 5.191-6.691 8.486v-.2z" class="Vector_8"/>
    <path fill="#fff" d="M283.844 239.301l3.396 2.296c.2.1.2.4.1.5-.1.099-.2.199-.3.199-.1 0-.1 0-.199-.1l-3.396-2.296c-.2-.1-.2-.399-.1-.499.1-.2.3-.2.499-.1z" class="Vector_9"/>
    <path fill="#fff" d="M280.05 138.07c1.898 0 3.496 1.597 3.496 3.494 0 1.897-1.598 3.494-3.496 3.494-1.897 0-3.495-1.597-3.495-3.494a3.473 3.473 0 013.495-3.494z" class="Vector_10"/>
    <path fill="#fff" d="M279.151 311.481l1.998 15.873-.1.3c0 .1-.1.1-.1.2-.699-.3-1.299-.599-1.898-.999l-1.598-12.479c.3-.599.5-1.198.799-1.697l.899-1.198z" class="Vector_11"/>
    <path fill="#fff" d="M295.929 318.469h-7.89c-.799 0-1.198.4-1.598 1.098H295.43c.799 0 1.099-.299 1.398-1.098h-.899zm-14.681 6.29c0 .1.1.199.1.299h8.389c.999 0 1.598-.399 2.497-1.098h-9.788c-.299 0-.799.499-1.198.799zm-.1 2.595l-1.998-15.873c2.298-3.394 4.595-6.29 6.692-8.486.899-.599 1.698-1.198 2.497-1.597.499-.3 1.598-.699 3.096-.699.799 0 2.697.1 4.295 1.198h-2.697c.1.399.1.699.2.998h3.695c.5.599.899 1.398 1.099 2.296.1.699.299 1.398.399 2.097h-3.795c-.999 0-.999.1-.899 1.098h4.894c.2 1.498.2 2.995.1 4.493h-6.292c-.799 0-1.199.399-1.398 1.098h7.49c-.399 3.993-1.798 7.587-4.294 10.582-2.198 2.596-5.094 3.993-8.59 3.993-.899 0-1.897-.099-2.896-.299-.599-.1-1.199-.3-1.698-.499 0-.1.1-.1.1-.2v-.2z" class="Vector_12"/>
    <path fill="#fff" d="M282.846 244.792l-2.297-1.597c0-.3.1-.5.1-.799.1 0 .199 0 .299.1l2.397 1.597c.2.1.2.3.1.499-.1.1-.2.2-.299.2-.1.1-.2 0-.3 0z" class="Vector_13"/>
    <path fill="#fff" d="M280.649 242.496c0 .299 0 .499-.1.799l-.1-.1c-.2-.1-.2-.4-.1-.499.1-.2.2-.2.3-.2z" class="Vector_14"/>
    <path fill="#fff" d="M279.051 311.281v.3c-.3.399-.499.798-.799 1.198.3-.599.599-1.098.799-1.498z" class="Vector_15"/>
    <path fill="#fff" d="M276.355 323.96c-1.098-1.897-1.198-3.993-.399-5.99.499-1.298.999-2.496 1.598-3.594l1.598 12.479c-1.199-.699-2.098-1.797-2.797-2.895z" class="Vector_16"/>
    <path fill="#fff" d="M229.513 145.058a3.495 3.495 0 10-3.495-3.494 3.494 3.494 0 003.495 3.494z" class="Vector_17"/>
    <path fill="#fff" d="M201.349 379.767h-1.798c.599-.2 1.198-.2 1.798 0z" class="Vector_18"/>
    <path fill="#fff" d="M198.454 237.005c-.2-.1-.4-.1-.6-.1v-2.096c.3.898.5 1.697.6 2.196z" class="Vector_19"/>
    <path fill="#fff" d="M182.571 379.767h-1.798c.6-.2 1.199-.2 1.798 0z" class="Vector_20"/>
    <path fill="#fff" fill-rule="evenodd" d="M343.57 322.763v23.661l-40.05-15.574c2.497-13.278 3.995-28.653-1.698-34.343-2.197-2.196-5.194-2.795-8.889-1.997-1.398.3-2.896 1.098-4.494 2.197-1.898 1.198-3.995 3.194-6.193 5.79l-.399.399a77.084 77.084 0 00-3.296 4.193l-4.794-37.437c0-.1 0-.2.1-.3 1.198-4.293 2.497-8.685 3.995-13.078 0-.05.025-.125.05-.2.025-.075.05-.149.05-.199 13.383 7.687 16.579-11.681 11.485-16.473-3.096-2.795-5.692-2.096-7.29-.998 2.596-3.195 6.891-9.285 7.59-15.574.499-4.093 1.398-13.278 1.398-13.278s1.798.299 8.09-6.589c4.894-5.291 1.099-28.253-.799-38.236h16.679v.998h7.391c5.194 0 9.988 1.897 13.683 4.992 3.795 3.294 6.492 7.886 7.191 13.078-.2.399-.3.798-.3 1.198 0 .599.2 1.098.5 1.497V193.279c-.2.1-.3.2-.4.299-.399.4-.699.999-.699 1.598 0 .599.2 1.198.699 1.597.05.05.125.1.2.15.075.05.15.1.2.15v53.411c-.5.099-.899.299-1.299.599-.399.399-.699.998-.699 1.597s.3 1.198.699 1.597c.4.4.799.599 1.299.599v2.496c-.5 0-.899.3-1.299.599-.399.399-.699.998-.699 1.598 0 .599.3 1.198.699 1.597.4.399.799.599 1.299.599v3.395c-.1.299-.2.598-.2.898 0 .299.1.699.2.898v22.962c-.1.3-.2.599-.2.898 0 .3.1.699.2.899v26.755c-.2.1-.3.2-.4.3-.399.399-.699.998-.699 1.597s.2 1.198.699 1.598c.1.599.2.698.4.798zm-50.437-157.837l-7.691 8.186-.799-8.186h8.49zm-84.994 28.251s3.695-20.466 20.175-20.067h4.394c.15 0 .3-.025.45-.05.15-.025.299-.05.449-.05.15 0 .3-.025.45-.05.15-.025.299-.05.449-.05 9.488-.898 21.873-3.893 31.86-7.887h-47.241v.999h-21.173v-.1h-5.294v28.452c.2-.499.4-.898.7-1.198.399-.399.898-.499 1.598-.399.442.055.885.141 1.31.224.343.066.675.131.987.175.165 0 .299.031.42.058.063.014.122.027.179.035v.107c6.592.899 10.287-.199 10.287-.199zm-10.187 65.592c1.798 0 3.695-.499 5.793-1.597.099.2.174.424.249.649.075.224.15.449.25.649.1.499 1.698 5.291 3.895 11.381l-3.695 52.712-6.492 1.797v-.099l-5.294 1.498v-69.185c1.399 1.498 3.196 2.197 5.294 2.197v-.002zm0-24.06v2.096c-.3-.099-.699-.099-.999-.099-1.498-.1-2.896.399-4.295 1.297v-30.249c1.199 9.684 3.896 21.564 5.294 26.955zm-5.393 21.862v69.184l-33.758 9.285V187.087c0-11.681 9.488-21.165 21.073-21.165h12.685v28.452c-.899 2.496-.7 7.588 0 13.378v30.25c-.4.299-.799.599-1.199.998-3.496 3.295-3.396 11.88.2 16.572l.999.999zm-15.581-27.654v-31.348h-.999v31.348h.999zm-5.793-16.872v-31.348h-.998v31.348h.998zm85.793 81.766c-.2.3-.399.399-.699.399-.1 0-.3 0-.4-.099-.399-.2-.499-.699-.299-1.099.2-.299.399-.399.699-.399.1 0 .3 0 .399.1.4.2.6.699.3 1.098zm-20.674 0c-.2 0-.4 0-.499-.1-.3-.199-.5-.699-.2-1.198.1-.299.399-.399.699-.399.1 0 .3 0 .399.1.4.299.5.798.3 1.198-.2.299-.399.399-.699.399zm-13.783-3.893c-.399-.2-.499-.699-.299-1.099.199-.299.399-.399.699-.499.1 0 .299 0 .399.1.4.3.5.799.3 1.198-.2.3-.4.399-.699.399-.1 0-.3 0-.4-.099zm-4.594-7.089c-.4-.299-.599-.798-.3-1.198.2-.299.5-.399.699-.299.1 0 .3 0 .4.1.399.199.599.699.3 1.098-.2.299-.4.399-.7.399-.099 0-.299 0-.399-.1zm-2.996-7.287c-.1 0-.3 0-.4-.1-.399-.2-.499-.699-.299-1.098.199-.3.399-.4.699-.4.099 0 .299 0 .399.1.4.2.499.699.3 1.098-.2.3-.4.4-.699.4zm-2.098-7.188c-.1 0-.299 0-.399-.1-.4-.3-.5-.799-.3-1.098.2-.3.4-.4.699-.4.1 0 .3 0 .4.1.399.2.499.699.299 1.098-.099.3-.399.4-.699.4zm54.133 11.78c.399.2.599.699.299 1.098-.1.2-.399.399-.699.499-.1 0-.3 0-.399-.1-.4-.299-.6-.798-.3-1.198.2-.299.399-.399.699-.399.1 0 .3 0 .4.1zm-1.798 8.186c2.597-4.792 4.394-11.081 6.392-18.07.1-.199.1-.499.1-.698.1-.1.1-.1.1-.2 0-.05.025-.125.05-.2.024-.075.049-.15.049-.199 1.199-4.293 2.497-8.686 3.995-13.178 1.598-4.793 2.897-12.18 2.897-18.17l-4.994-14.177c0-.099-.1-.199-.3-.299a1.432 1.432 0 00-.354-.109 3.16 3.16 0 01-.345-.091h-.199a3.04 3.04 0 00-.547-.104c-.177-.024-.365-.049-.552-.095-.15 0-.3-.025-.449-.05-.15-.025-.3-.05-.45-.05-.139 0-.3-.022-.472-.045-.198-.026-.412-.055-.627-.055-.399-.1-.798-.1-1.298-.1h-.3c-3.395-.1-7.79-.1-11.885 0h-.1c-.898.1-1.797.1-2.596.1-.726 0-1.426.027-2.098.053-.622.024-1.221.047-1.797.047-.4.1-.7.1-.999.1h-1.598c-.3.099-.5.099-.799.099-.381.043-.744.067-1.066.089-.438.029-.801.054-1.032.111-13.782 1.797-23.37.699-28.064-.699-.3-.1-.6-.199-.799-.299-.3-.1-.5-.2-.7-.3-.099 0-.199 0-.299-.1-.5-.199-.799-.399-1.099-.599l-.899-.599c-1.598-1.198-3.895-.399-4.594 1.498l-4.295 12.878c-.799 7.787.1 15.674 2.897 23.062.037.037.284.773.698 2.008h.001a370.36 370.36 0 003.296 9.473c2.996 8.086 7.291 18.269 11.086 22.363 2.996 3.194 10.986 5.091 21.373 4.891 9.888-.199 18.177-2.096 19.676-3.793.799-.999 1.598-1.997 2.297-3.195-.2 0-.3 0-.4-.1-.399-.199-.499-.699-.299-1.098.199-.299.399-.399.699-.399.199 0 .399 0 .499.1l.2.199zm6.392-18.07c0 .05-.025.075-.063.113a.651.651 0 00-.137.187c-.2.299-.399.399-.699.399-.1 0-.3 0-.4-.1a.952.952 0 01-.299-1.198c.2-.299.399-.399.699-.399.2 0 .399 0 .499.1.4.2.5.599.4.898zm-1.698-30.948l.599.998c-.1.999-.899 1.697-1.897 1.697l-18.178-.998c-.998-.1-3.995-1.597-3.895-2.596l.2-2.296c.1-.998 18.577.999 18.577.999.998 0 4.694 1.198 4.594 2.196zm-1.199 25.458c.4.199.6.698.3 1.098-.2.199-.399.399-.699.399-.1 0-.3 0-.4-.1-.399-.199-.599-.699-.299-1.098.2-.299.399-.399.699-.399.1 0 .3 0 .399.1zm-7.59 10.083c.399.199.499.699.3 1.098-.2.299-.4.399-.6.399-.2 0-.399 0-.499-.1-.4-.199-.599-.698-.3-1.098.1-.299.4-.399.699-.399h.001c.099 0 .299 0 .399.1zm-2.797-28.353c.899 0 1.598.699 1.598 1.597 0 .899-.699 1.598-1.598 1.598a1.578 1.578 0 01-1.598-1.598c0-.898.7-1.597 1.598-1.597zm-1.198 36.739c.399.199.599.699.3 1.098-.2.2-.4.399-.799.399-.1 0-.3 0-.4-.1-.399-.199-.499-.698-.3-1.098.2-.299.4-.399.7-.399.199 0 .399 0 .499.1zm-4.494-9.085c.399.2.599.699.299 1.098-.2.2-.399.399-.699.399-.1 0-.3 0-.399-.099-.4-.2-.6-.699-.3-1.099.2-.299.399-.399.699-.399.1 0 .3 0 .4.1zm-2.298 4.792c.1.2.1.499-.099.699-.1.1-3.796 3.194-9.189 3.095-.499 0-.999 0-1.498-.1-2.497-.2-4.794-1.298-6.692-3.095a.484.484 0 010-.699c.2-.2.5-.2.699 0 1.798 1.697 3.796 2.696 6.093 2.895 5.793.599 9.987-2.895 9.987-2.895.2-.1.5-.1.699.1zm-3.495 10.982c.399.199.499.698.299 1.098-.199.199-.399.299-.699.399-.1 0-.299 0-.399-.1-.4-.199-.599-.699-.3-1.098.1-.299.4-.399.699-.399.1 0 .3 0 .4.1zm-2.197-26.756c.099.3-.1.599-.4.599l-.036.002-.113.014h-.001c-.224.028-.674.084-1.348.084-1.598 0-3.895-.2-5.493-1.298-2.397-1.697 1.598-17.571 2.896-22.462.1-.3.3-.5.599-.4.3.1.5.3.4.599-2.497 9.584-4.494 20.466-3.296 21.365 2.097 1.497 6.192 1.098 6.192 1.098.3-.1.6.1.6.399zm-6.193 8.985c.4.3.5.799.3 1.198-.2.2-.499.3-.699.3-.1 0-.3 0-.4-.1-.399-.2-.599-.699-.299-1.098.199-.3.399-.4.699-.4.1 0 .299 0 .399.1zm-5.892-33.744c.1.999-.6 1.797-1.598 1.897l-20.475 1.598c-.999.099-1.798-.599-1.897-1.598l.599-.998c-.1-.899 3.595-2.097 4.594-2.196 0 0 18.477-1.997 18.577-.999l.2 2.296zm-2.897 49.817c.4.2.6.699.3 1.099-.2.199-.4.299-.699.399-.1 0-.3 0-.4-.1-.399-.2-.499-.699-.299-1.098.199-.3.399-.399.699-.399.1 0 .299 0 .399.099zm-3.795-8.885c.4.2.499.699.3 1.098-.153.153-.364.247-.544.328-.056.025-.108.048-.155.072h-.001c-.099 0-.299 0-.399-.1-.399-.2-.599-.699-.3-1.098.2-.3.4-.4.7-.4.099 0 .299 0 .399.1zm-3.595-32.745c.898 0 1.598.699 1.598 1.597 0 .998-.6 1.597-1.598 1.597-.999 0-1.698-.698-1.698-1.597 0-.898.799-1.597 1.698-1.597zm54.631 62.993l-.799-5.89c-6.592 1.298-38.352 7.188-46.841.798-5.294-3.993-8.49-8.785-10.387-12.179-3.895-5.691-6.193-10.882-9.089-17.871l-3.895 56.606c5.793 7.088 27.865 13.777 47.241 11.481l.759-.126.012-.002c1.565-.259 3.193-.528 4.822-.87 5.893-11.98 12.185-23.361 18.177-31.947zm66.717 49.118v-10.084l-.1-.099-40.25-15.674c-.508 2.429-1.017 4.73-1.489 6.867l-.002.008-.002.007v.001l-.001.003c-.36 1.633-.7 3.17-1.003 4.595l-.11.477-.102.441v.002c-.503 2.171-.91 3.929-1.086 5.07l-5.793 29.451h28.864c.999 0 2.098-.1 3.096-.2 10.188-1.498 17.978-10.283 17.978-20.865zm-151.111 9.05c-6.336 4.109-19.915 11.685-27.466 5.826 3.795 3.893 9.089 6.19 14.782 6.19h.898c.6-.2 1.199-.2 1.798 0h16.979c.599-.2 1.198-.2 1.798 0h40.05c4.494-10.783 10.087-23.661 16.179-36.04-1.398.299-2.796.499-4.194.698-2.597.4-5.394.5-8.19.5-4.694 0-9.388-.4-13.983-1.198-9.488.898-21.872 2.995-21.772 6.589.103 2.852 6.163 3.657 11.346 4.345 4.796.638 8.843 1.175 6.731 3.142-2.382 2.217-13.949 2.07-23.593 1.949a469.87 469.87 0 00-5.87-.052v12.18a2.685 2.685 0 01-2.697 2.695 2.684 2.684 0 01-1.946-.823 2.69 2.69 0 001.846.725 2.685 2.685 0 002.697-2.696v-12.179c-2.097 0-3.895.099-5.293.199v2.796c.43.127.875.242 1.307.353h.001c2.277.587 4.19 1.079 1.588 2.841l-.198.133-.002.001c-.612.411-1.544 1.037-2.796 1.663v.163zm4.294-129.049c.4 0 .799.1 1.099.2v17.97c-1.898 0-3.496-.899-4.694-2.496l-.599-.898v-.102c-2.397-4.093-2.098-10.382 0-12.778v.001l.199-.2c1.299-1.198 2.597-1.797 3.995-1.697zm1.199 18.17v-17.97c1.398.4 2.497 1.298 2.896 1.797 0 4.892.799 9.784 2.197 14.576-1.897.998-3.595 1.597-5.093 1.597zm-5.393 102.929v2.795c-1.299-.399-2.397-.898-2.697-1.797-.1-.499.899-.799 2.697-.998z" class="Union_2" clip-rule="evenodd"/>
    <path fill="#414042" d="M466.316 187.687l-50.337 40.633-31.161 25.257v.899l31.96-25.857 49.538-40.033 6.892-5.591.599-.499v-.998l-1.398 1.198-6.093 4.991z" class="Vector_21"/>
    <path fill="#414042" d="M466.317 299.601l-51.935 42.03-29.064 23.56c0 .3.1.499.2.799l29.763-24.06 51.036-41.331 5.393-4.293 2.198-1.797v-.998l-2.997 2.496-4.594 3.594z" class="Vector_22"/>
    <path fill="#414042" d="M467.416 382.662h1.099l2.097-1.597 3.196-2.696v-.898l-4.394 3.594-1.998 1.597z" class="Vector_23"/>
    <path fill="#414042" d="M466.316 178.303l-54.931 44.426-26.567 21.564v.898l27.466-22.263 54.032-43.727 2.298-1.896 5.193-4.193v-.899l-5.992 4.892-1.499 1.198z" class="Vector_24"/>
    <path fill="#414042" d="M466.316 290.316l-56.129 45.325-25.369 20.565v.999l25.469-20.666 56.029-45.324.3-.3h.1l7.091-5.79v-.999l-7.191 5.891-.3.299z" class="Vector_25"/>
    <path fill="#414042" d="M455.83 382.662h1.199l9.288-7.487 7.491-6.09v-.899l-7.491 6.09-10.487 8.386z" class="Vector_26"/>
    <path fill="#414042" d="M452.933 273.145l-56.429 45.624-11.686 9.484v.898l11.786-9.484 56.329-45.724 13.383-10.682 7.491-6.189v-.899l-7.491 6.09-13.383 10.882z" class="Vector_27"/>
    <path fill="#414042" d="M446.341 381.065l-1.997 1.597h1.098l1.798-1.397 19.076-15.375 7.491-6.19v-.898l-7.491 6.09-19.975 16.173z" class="Vector_28"/>
    <path fill="#414042" d="M441.749 375.374l-8.989 7.288h1.198l8.689-6.988 23.671-19.168 7.49-6.09v-.899l-7.49 6.09-24.569 19.767z" class="Vector_29"/>
    <path fill="#414042" d="M439.25 256.173L384.818 300.2v.998l54.432-44.126 27.066-21.864 7.491-6.09v-.898l-7.491 6.089-27.066 21.864z" class="Vector_30"/>
    <path fill="#414042" d="M437.653 369.484l-16.38 13.178h1.099l15.281-12.279 28.664-23.162 7.491-6.09v-.998l-7.491 6.09-28.664 23.261z" class="Vector_31"/>
    <path fill="#414042" d="M434.656 250.582l-49.838 40.333v.899l49.938-40.333 31.56-25.558 7.491-6.089v-.999l-7.491 6.09-31.66 25.657z" class="Vector_32"/>
    <path fill="#414042" d="M432.659 364.193l-22.971 18.469h1.198l22.572-18.269 32.859-26.556 7.49-6.09v-.898l-7.49 6.089-33.658 27.255z" class="Vector_33"/>
    <path fill="#414042" d="M430.062 244.892l-45.244 36.639v.998l45.344-36.739 36.154-29.251 7.491-6.09v-.898l-7.491 6.09-36.254 29.251z" class="Vector_34"/>
    <path fill="#414042" d="M428.465 358.203l-28.764 23.261c.3.1.5.2.799.3l27.965-22.662 37.753-30.55 7.491-6.089v-.999l-7.491 6.09-37.753 30.649z" class="Vector_35"/>
    <path fill="#414042" d="M425.168 239.601l-40.35 32.645v.899l41.149-33.245 40.349-32.645 7.491-6.09v-.999l-7.491 6.09-41.148 33.345z" class="Vector_36"/>
    <path fill="#414042" d="M423.47 352.912l-30.562 24.759c.2.099.4.299.599.499l30.862-24.959 41.947-33.943 7.491-6.09v-.898l-7.491 6.089-42.846 34.543z" class="Vector_37"/>
    <path fill="#414042" d="M420.973 233.611l-36.155 29.251v.998l36.155-29.351 45.343-36.639 7.491-6.09v-.898l-7.491 6.09-45.343 36.639z" class="Vector_38"/>
    <path fill="#414042" d="M418.976 347.221l-30.761 24.959c.1.199.299.399.399.599l31.261-25.258 46.442-37.638 7.491-6.089v-.999l-7.491 6.09-47.341 38.336z" class="Vector_39"/>
    <path fill="#414042" d="M384.818 189.185l29.963-24.26h-1.099l-28.864 23.361v.899z" class="Vector_40"/>
    <path fill="#414042" d="M384.818 235.807l22.472-18.17 56.43-45.624 2.596-2.096 5.793-4.792.3-.2h-1.199l-.199.2-4.695 3.794-2.696 2.196-56.33 45.624-22.472 18.17v.898z" class="Vector_41"/>
    <path fill="#414042" d="M461.622 284.725l-56.329 45.624-20.475 16.573v.898l21.274-17.271 56.429-45.624 3.795-3.095 7.491-6.09v-.898l-7.491 6.09-4.694 3.793z" class="Vector_42"/>
    <path fill="#414042" d="M384.818 226.523l18.278-14.876 56.429-45.624 1.398-1.098h-1.198l-1.099.899-56.329 45.624-17.479 14.176v.899z" class="Vector_43"/>
    <path fill="#414042" d="M387.316 176.805s0 .1 0 0c-.299.499-.499.999-.699 1.498l16.08-12.979c-.599.1-1.099.3-1.698.4l-13.683 11.081z" class="Vector_44"/>
    <path fill="#414042" d="M457.428 278.735l-56.729 45.924-15.881 12.878v.999l16.68-13.578 56.029-45.324 8.789-7.088 7.491-6.09v-.899l-7.491 6.09-8.888 7.088z" class="Vector_45"/>
    <path fill="#414042" d="M384.818 217.138l13.783-11.081 50.737-41.132h-1.099l-50.537 40.832-12.884 10.483v.898z" class="Vector_46"/>
    <path fill="#414042" d="M384.818 207.854l9.189-7.488 43.845-35.441h-1.198l-43.446 35.241-8.39 6.789v.899z" class="Vector_47"/>
    <path fill="#414042" d="M448.339 267.454l-56.829 46.024-6.692 5.391v.898l7.591-6.09 56.03-45.324 17.877-14.476 7.491-6.09v-.898l-7.491 6.089-17.977 14.476z" class="Vector_48"/>
    <path fill="#414042" d="M384.818 198.469l4.595-3.694 36.854-29.85h-1.099l-36.554 29.551-3.796 3.095v.898z" class="Vector_49"/>
    <path fill="#414042" d="M443.345 262.163l-56.329 45.624-2.198 1.797v.899l2.997-2.496 56.429-45.624 22.072-17.771 7.491-6.189v-.899l-7.491 6.09-22.971 18.569z" class="Vector_50"/>
    <path fill="#414042" d="M193.758 192.879c-.2.1-.3.2-.5.3.2-.1.3-.2.5-.3z" class="Vector_51"/>
    <path fill="#414042" d="M193.758 192.879c.299-.2.699-.2 1.198-.1.2 0 .4.1.5.1-.2 0-.4-.1-.5-.1-.499-.1-.899-.1-1.198.1z" class="Vector_52"/>
    <path fill="#414042" fill-rule="evenodd" d="M666.568 92.747h45.543c11.585 0 20.973-9.385 20.973-20.965 0-8.885-5.493-16.473-13.283-19.468V49.02c0-11.581-9.388-20.965-20.974-20.965-11.585 0-20.973 9.384-20.973 20.965v1.797h-11.286c-11.586 0-20.974 9.384-20.974 20.965 0 11.58 9.388 20.965 20.974 20.965zm0-39.934h13.283V49.02c0-10.483 8.489-18.969 18.976-18.969 10.487 0 18.977 8.486 18.977 18.969v4.692l1.298.5c7.291 2.894 11.985 9.783 11.985 17.67 0 10.482-8.489 18.968-18.976 18.968h-45.543c-10.487 0-18.977-8.486-18.977-18.968 0-10.483 8.59-19.069 18.977-19.069zm-411.186-7.988h97.378c.499 0 .999-.5.999-.998 0-.5-.5-.999-.999-.999h-97.378a1 1 0 00-.999.998c0 .5.499.999.999.999zm106.067 0H400.7c.499 0 .999-.5.999-.998 0-.5-.5-.999-.999-.999h-39.251c-.499 0-.999.5-.999.998 0 .5.5.999.999.999zM400.8 59.402h-18.377c-.5 0-.999.5-.999.999s.499.998.999.998H400.8c.499 0 .999-.5.999-.998 0-.5-.5-.999-.999-.999zm-101.274.999c0-.5.4-.999.999-.999h74.707c.599 0 .999.5.999.999s-.4.998-.999.998h-74.707c-.599 0-.999-.5-.999-.998zm443.246 139.065c-3.495-7.588-11.186-12.879-20.074-12.879h-41.549v-39.134c0-18.57-17.378-33.644-38.651-33.644H231.212c-21.274 0-38.652 15.074-38.652 33.644v16.472h-12.684c-12.784 0-23.171 10.383-23.171 23.062v171.614c0 10.083 6.492 18.768 15.68 21.863-.061 0-.085.038-.117.091l-.023.036a.51.51 0 01-.059.073c-.4.399-.699.998-.699 1.597s.199 1.198.699 1.597c.399.4.998.699 1.598.699.599 0 1.198-.199 1.598-.699.399-.399.699-.998.699-1.597 0-.299-.1-.599-.2-.799 1.099.2 2.297.3 3.496.3v.1c0 .599.199 1.198.699 1.597.399.399.999.699 1.598.699.599 0 1.198-.2 1.598-.699.399-.399.699-.998.699-1.597v-.1h14.182v.1c0 .599.2 1.198.699 1.597.4.399.999.699 1.598.699.6 0 1.199-.2 1.598-.699.4-.399.699-.998.699-1.597v-.1h6.392a.74.74 0 01-.049.25.729.729 0 00-.05.249c0 .599.299 1.198.699 1.597.399.4.998.699 1.598.699.599 0 1.198-.199 1.598-.699.399-.399.699-.998.699-1.597 0-.2 0-.299-.1-.499h14.482c-.1.299-.2.599-.2.898 0 .599.3 1.199.699 1.598.4.399.999.699 1.598.699.6 0 1.199-.2 1.598-.699.4-.399.699-.999.699-1.598 0-.299-.099-.599-.199-.898h8.389a2.89 2.89 0 01-.2.449v.001a3.51 3.51 0 00-.199.448c-.899-.698-2.198-.599-2.997.2-.399.399-.699.999-.699 1.598 0 .599.3 1.198.699 1.597.4.399.799.599 1.299.599-4.395 10.782-7.291 18.469-7.691 19.567-3.695 10.882-13.782 18.569-25.268 19.068l-56.429 2.496c-26.068 1.198-47.941 19.767-53.434 45.225L72.91 579.932c-.2.798.3 1.597 1.198 1.797.8.199 1.598-.3 1.798-1.198l22.771-106.822c5.094-24.16 25.968-41.731 50.637-42.829l56.43-2.496c8.489-.399 16.279-4.293 21.772-10.382 2.797-3.095 4.894-6.689 6.293-10.683 1.598-4.292 3.695-9.584 6.092-15.574.2-.449.374-.898.549-1.347l.001-.001c.174-.449.349-.898.549-1.347.665-1.531 1.331-3.15 1.997-4.769l.472-1.147c.176-.426.351-.851.527-1.272.05-.15.125-.325.2-.499v-.001c.075-.175.15-.349.199-.499.05-.149.125-.324.2-.499.075-.175.15-.349.2-.499 4.994-11.78 10.786-24.759 16.779-36.838.399-.799.799-1.598 1.198-2.496 3.796-7.488 7.591-14.676 11.386-20.865-.399 3.494 1.498 6.788 4.594 8.785.124.062.243.128.361.195l.118.069.099.058c.377.222.754.443 1.22.576.699.3 1.398.5 2.098.599.998.2 2.097.3 3.096.3 3.495 0 6.991-1.098 9.787-4.592.799-.999 1.499-2.097 2.098-3.095 3.196-5.691 2.996-11.98 1.897-17.471-.199-.899-.499-1.697-.998-2.396-1.598-2.496-4.495-3.395-6.992-3.395-.499 0-.998 0-1.398.1 1.299-.898 2.497-1.497 3.596-1.797.998-.199 1.897-.299 2.696-.299 1.399.1 2.497.499 3.396 1.397 4.794 4.792 2.996 19.967.699 32.446-.768 4.184-1.61 8.002-2.275 11.018v.001l-.001.004-.135.612-.107.485-.079.36-.068.307-.055.246-.07.31-.196.872v.002c-.421 1.867-.754 3.349-.909 4.352l-5.893 30.05h-5.692l-.2.999-.2.998h5.693V382.062l-11.386 57.204c-.2.998-.399 1.897-.599 2.795-2.097 9.884-3.596 17.072 0 20.367.799.698 1.698 1.098 2.796 1.397 2.098.499 4.894.1 8.59-.998l.299-.1.2-.2.499-.499c.223-.19.505-.441.845-.743l.002-.001.001-.001c.73-.648 1.723-1.529 2.948-2.549 7.59-6.39 23.47-19.268 35.555-24.659 2.198-.999 4.195-1.697 5.993-2.097 1.398-.299 2.896.1 3.895 1.198.999 1.098 1.398 2.596.899 3.994-14.083 46.023-40.849 81.364-79.601 105.324l-.599.399-4.494 22.862c-.2-.099-.4-.099-.6-.099H100.176c-.8 0-1.499.698-1.499 1.497 0 .799.7 1.498 1.499 1.498h155.605l-3.296 16.572c-.199.799.4 1.597 1.199 1.797h.299c.7 0 1.299-.499 1.499-1.198l8.089-41.032c39.052-24.259 66.118-60.199 80.3-106.622.799-2.496.2-5.092-1.598-6.988-1.698-1.897-4.295-2.696-6.791-2.097-4.695.998-10.487 3.894-16.38 7.587-13.982 8.586-28.464 21.365-30.662 23.362-4.095 1.297-6.891 1.297-8.09.199-2.397-2.096-.898-9.284.899-17.471l.043-.194.047-.214.082-.382.084-.4.044-.207.089-.421.074-.348c.045-.214.091-.424.137-.629l10.986-55.707c.499-.1.899-.3 1.198-.599.4-.4.699-.998.699-1.597v-.1h2.497c0 .1-.025.174-.05.249a7.03 7.03 0 00-.024.076.643.643 0 00-.026.174c0 .599.2 1.198.7 1.597.399.4.998.699 1.598.699.599 0 1.198-.2 1.598-.699.399-.399.699-.998.699-1.597 0-.2 0-.3-.1-.499H323.796v.1c0 .599.2 1.197.699 1.597.4.399.999.699 1.598.699.6 0 1.199-.2 1.598-.699.4-.4.699-.998.699-1.597v-.001c0-.299 0-.499-.099-.798 1.897-.499 3.695-1.198 5.293-2.097 5.293-2.895 9.388-7.787 11.186-13.777.1.1.2.2.3.4.399.399.998.698 1.598.698.599 0 1.198-.199 1.598-.698.399-.4.699-.999.699-1.598 0-.599-.2-1.198-.699-1.597-.7-.699-1.898-.799-2.797-.3.2-1.098.3-2.296.3-3.394v-23.461c.399.3.899.499 1.398.499.599 0 1.198-.199 1.598-.698.399-.4.699-.999.699-1.598 0-.599-.3-1.198-.699-1.597-.799-.799-2.097-.799-2.996-.2v-8.785c.299-.1.599-.3.799-.499.399-.4.699-.999.699-1.598 0-.599-.3-1.198-.699-1.597-.2-.2-.5-.399-.799-.499V304.491c.037 0 .071.003.102.009a.93.93 0 01.147.041c.075.025.15.05.25.05.599 0 1.199-.3 1.598-.699.4-.4.699-.999.699-1.598 0-.599-.2-1.198-.699-1.597-.499-.499-1.398-.699-2.097-.599v-6.589h.1c.599 0 1.198-.2 1.598-.699.399-.399.699-.998.699-1.597s-.2-1.198-.699-1.597c-.5-.4-.999-.599-1.698-.599v-2.995c.1 0 .174.025.249.049.075.025.15.05.25.05.599 0 1.199-.199 1.598-.698.4-.4.699-.999.699-1.598 0-.599-.2-1.198-.699-1.597-.499-.499-1.398-.699-2.097-.599v-4.493c.299.1.599.2.899.2.599 0 1.198-.2 1.598-.699.399-.399.699-.998.699-1.597s-.2-1.198-.699-1.597a2.144 2.144 0 00-2.497-.4v-4.392h.1c.599 0 1.198-.2 1.598-.699.399-.4.699-.999.699-1.598 0-.599-.2-1.198-.699-1.597-.4-.399-.999-.599-1.698-.599v-2.795c.399-.4.599-.999.599-1.498 0-.599-.2-1.098-.599-1.497v-3.994c.399-.399.599-.998.599-1.497 0-.499-.2-1.098-.599-1.498v-3.294h.499c.599 0 1.199-.2 1.598-.699.4-.399.699-.998.699-1.597s-.2-1.198-.699-1.598c-.499-.499-1.398-.699-2.097-.599v-2.995c.299.1.599.2.899.2.599 0 1.198-.2 1.598-.699.399-.399.699-.998.699-1.597s-.2-1.198-.699-1.598a2.145 2.145 0 00-2.497-.399v-26.655c.399.299.899.499 1.398.499.599 0 1.198-.3 1.598-.699.399-.399.699-.998.699-1.597s-.3-1.198-.699-1.598c-.799-.798-2.097-.798-2.996-.199v-8.786c.299-.1.599-.299.799-.499.399-.399.699-.998.699-1.597s-.3-1.198-.699-1.598c-.2-.199-.5-.399-.799-.499v-5.79c.499-.1.998-.3 1.298-.699.4-.399.699-.998.699-1.597s-.299-1.198-.699-1.598c-.399-.399-1.099-.699-1.698-.599-.299-1.897-.899-3.694-1.698-5.391.2.1.5.1.699.1.6 0 1.199-.2 1.598-.699.4-.399.7-.998.7-1.597 0-.399-.1-.699-.3-.998-.1-.2-.2-.4-.4-.5-.399-.399-.898-.599-1.498-.599-.599 0-1.298.2-1.797.599-.3.3-.5.599-.6.999a20.496 20.496 0 00-2.896-3.694c.1 0 .2-.1.2-.2.399-.399.699-.998.699-1.597s-.2-1.198-.699-1.597c-.799-.799-2.397-.799-3.196 0h-.001c-.199.199-.299.299-.399.499-3.795-2.696-8.389-4.293-13.383-4.293h-7.391V166.022h7.391c5.193 0 9.987 1.896 13.683 4.991 3.795 3.295 6.492 7.887 7.191 13.078l.004.04c-.224.353-.292.706-.204 1.059 0 .544.083 1.006.398 1.386l.001.111.001.1v6.7c-.137.033-.218.144-.3.389-.499.399-.699.998-.699 1.597s.299 1.198.699 1.598c.082.081.163.163.3.244v53.371c-.466.026-.919.231-1.199.696-.399.4-.699.999-.699 1.598 0 .599.3 1.198.699 1.597.373.279.745.472 1.199.577v91.267l-39.951-15.574c2.497-13.278 3.996-28.652-1.697-34.343-2.198-2.196-5.194-2.795-8.889-1.997-1.399.3-2.897 1.099-4.495 2.197-1.997 1.397-3.995 3.394-6.192 5.79-.05.1-.125.175-.2.25-.075.075-.149.149-.199.249a76.595 76.595 0 00-3.296 4.193l-4.794-37.437c0-.05.025-.1.05-.15.025-.05.05-.1.05-.15 1.198-4.293 2.496-8.685 3.995-13.078 0-.05.025-.125.05-.2.024-.075.049-.149.049-.199 13.384 7.687 16.58-11.681 11.486-16.473-3.096-2.795-5.693-2.096-7.291-.998 2.597-3.195 6.892-9.285 7.591-15.574.499-4.093 1.498-13.278 1.498-13.278s1.798.299 8.09-6.589c4.894-5.291 1.098-28.253-.799-38.236-.5-2.796-.899-4.593-.899-4.593l-4.295 4.593-7.69 8.086-.899-8.086-1.199-11.481c-1.697 3.993-8.389 8.086-16.978 11.481-9.988 3.993-22.372 6.988-31.96 7.886h.199c-12.584 10.882-26.467 24.36-16.179 39.235.399.599.898 1.198 1.398 1.697.699.799 1.498 1.398 2.297 1.997 7.841 5.878 16.726 4.793 25.726 3.694 1.776-.217 3.557-.435 5.335-.599 10.787-1.098 19.775-1.997 20.175 4.193v.199c.2.1.3.2.3.3l4.993 14.176c0 5.99-1.298 13.378-2.896 18.17-1.498 4.493-2.797 8.885-3.995 13.178l-.001.014a.686.686 0 01-.024.108l-.003.011-.006.019-.009.026-.007.022-.032.102-.01.036a.3.3 0 00-.008.061v.2c-.05.1-.075.225-.1.349-.025.125-.05.25-.1.35-1.997 6.988-3.795 13.278-6.392 18.07 0-.1-.1-.2-.199-.2-.1-.1-.3-.1-.5-.1-.299 0-.499.1-.699.4-.2.399-.1.898.3 1.098.1.1.199.1.399.1-.699 1.198-1.498 2.196-2.297 3.194-1.498 1.697-9.788 3.594-19.675 3.794-10.387.2-18.377-1.697-21.374-4.892-3.795-4.093-7.99-14.276-11.086-22.363a370.565 370.565 0 01-3.296-9.472c-.415-1.236-.661-1.971-.699-2.009-2.796-7.387-3.695-15.274-2.896-23.061l-1.299 3.794s0 .099-.099.299c-.1.3-.4.599-.899.499-.5-.1-1.199-.499-2.198-1.597 0 0-.099-.3-.199-.699-.2-.1-.4-.1-.6-.1-.299-.1-.699-.1-.998-.1-1.498-.099-2.897.4-4.295 1.298-.4.3-.799.599-1.198.999-3.496 3.294-3.396 11.98.199 16.572.3.399.6.799.999 1.098 1.498 1.398 3.296 2.196 5.293 2.196 1.798 0 3.696-.499 5.693-1.597.1.2.175.424.25.649.075.225.15.449.25.649.1.499 1.698 5.291 3.895 11.381l-3.696 52.712-.599 8.985.2.3c4.095 5.491 14.981 9.883 27.166 11.88a81.737 81.737 0 0013.983 1.198c2.796 0 5.593-.2 8.189-.499h.001c1.398-.2 2.796-.4 4.194-.699-5.992 12.379-11.685 25.258-16.18 36.04H179.876c-5.793 0-11.086-2.396-14.981-6.19-.4-.299-.699-.599-.999-.898-3.995-4.094-5.293-10.483-5.293-13.678v-23.96h.199V186.987c0-11.681 9.489-21.065 21.174-21.065H219.227V163.925h-21.274v-16.472c0-15.575 14.982-28.253 33.259-28.253h411.286c18.377 0 33.258 12.678 33.258 28.253v39.134H522.548c-12.185 0-22.073 9.884-22.073 22.163v29.152c0 8.685 4.994 16.273 12.285 19.867 3.496 7.587 11.186 12.878 20.075 12.878h142.921v162.429a2.685 2.685 0 002.697 2.696 2.685 2.685 0 002.696-2.696V270.647h51.736c12.185 0 22.172-9.883 22.172-22.163v-29.151c0-8.686-4.994-16.273-12.285-19.867zm-399.4 149.051h.1v10.084c0 10.582-7.791 19.367-17.978 20.865-.999.1-2.097.199-3.096.199h-28.764l5.793-29.45c.175-1.141.582-2.9 1.085-5.072l.137-.589.076-.329c.302-1.425.642-2.962 1.003-4.595l.001-.003v-.001l.002-.007.001-.008a615 615 0 001.49-6.867l40.15 15.773zm-60.125-109.118c.1-.199.299-.199.499-.1l3.396 2.297c.2.099.2.399.1.499-.1.1-.2.199-.3.199h-.034a.165.165 0 01-.054-.007c-.03-.011-.054-.035-.111-.092h-.001l-3.395-2.297c-.1-.099-.2-.299-.1-.499zm-2.897 3.195c.1-.1.2-.2.3-.2.1 0 .2 0 .3.1l2.397 1.597c.199.1.199.3.1.5-.1.099-.2.199-.3.199-.1 0-.1 0-.2-.1l-2.297-1.597-.1-.1c-.299.1-.299-.199-.2-.399zm-82.397 14.276c-1.897 0-3.495-.799-4.694-2.496l-.599-.898c-2.397-4.093-2.097-10.483 0-12.779l.2-.2c1.298-1.198 2.597-1.797 3.995-1.697.399 0 .799.1 1.098.2 1.399.399 2.497 1.298 2.897 1.797 0 4.892.799 9.784 2.197 14.576-1.898.898-3.595 1.497-5.094 1.497zm80.4 55.807c.15-.249.275-.499.399-.749.125-.249.25-.499.4-.748 2.397-4.293 4.594-6.689 6.692-8.287.898-.698 1.697-1.198 2.496-1.697.5-.299 1.598-.699 3.097-.699.799 0 2.696.1 4.294 1.198h-2.696c.045.183.07.344.093.494v.003c.027.178.052.34.106.502h3.696c.499.599.899 1.397 1.098 2.296.05.349.125.699.2 1.048.075.35.15.699.2 1.048h-3.795c-.484 0-.733 0-.851.125-.125.133-.1.407-.048.974h4.894c.199 1.497.199 2.995.199 4.492h-6.292c-.799 0-1.198.399-1.398 1.098h7.491c-.4 3.994-1.798 7.588-4.295 10.583-2.197 2.595-5.094 3.993-8.589 3.993-.899 0-1.898-.1-2.897-.299-.599-.1-1.198-.3-1.698-.5-.699-.299-1.298-.599-1.897-.998-1.099-.799-2.098-1.797-2.697-2.995-1.098-1.897-1.198-3.993-.399-5.89.499-1.298.998-2.496 1.598-3.594 0-.237.187-.599.414-1.037l.05-.096.045-.087.09-.178zm-25.268 29.751c-19.376 2.296-41.449-4.393-47.241-11.481l3.895-56.606c2.796 6.988 5.193 12.18 9.088 17.87 1.898 3.494 5.094 8.187 10.387 12.18 8.49 6.489 40.25.599 46.942-.699l.799 5.89c-5.993 8.586-12.285 19.967-18.178 31.947a66.91 66.91 0 01-5.692.899zm489.687-104.526c0 11.081-8.988 20.166-20.074 20.166h-200.15a20.18 20.18 0 01-10.887-3.195c-5.593-3.594-9.288-9.783-9.288-16.971v-29.251c0-11.082 8.989-20.167 20.075-20.167h200.05c7.291 0 13.683 3.894 17.278 9.784 1.798 2.995 2.897 6.589 2.897 10.383v29.251h.099zm-472.908 1.4l.599.999c-.1.998-.899 1.697-1.898 1.697L250.388 241c-.999-.1-3.995-1.598-3.895-2.596l.2-2.296c.099-.999 18.576.998 18.576.998.899 0 4.694 1.198 4.595 2.196zm-37.554-3.194l.2 2.296c.1.998-.599 1.897-1.598 1.897l-20.474 1.597c-.999.1-1.798-.599-1.898-1.597l.599-.999c-.099-.898 3.596-2.096 4.595-2.196 0 0 18.477-1.997 18.576-.998zm291.636 9.382h44.345v-44.326h-44.345v44.326zm2.297-1.797l19.476-19.467 19.575 19.467h-39.051zm40.25 0h-.4l.4-.399v.399zm0-1.198l-19.576-19.467 19.576-19.668v39.135zm-1.998-39.634l-18.776 18.869-18.977-18.869h37.753zm-38.851 1.398l18.776 18.669-18.776 18.868v-37.537zm53.333 23.663h60.724v1.997h-60.724v-1.997zm0 8.285h60.724v1.997h-60.724v-1.997zm-324.195-89.151a5.492 5.492 0 005.494-5.491 5.493 5.493 0 00-5.494-5.491 5.492 5.492 0 100 10.982zm-25.268 0c-2.996 0-5.493-2.496-5.493-5.491 0-2.995 2.497-5.491 5.493-5.491 2.996 0 5.493 2.496 5.493 5.491 0 2.995-2.497 5.491-5.493 5.491zm0-1.997c1.898 0 3.496-1.597 3.496-3.494 0-1.897-1.598-3.494-3.496-3.494s-3.496 1.597-3.496 3.494c0 1.897 1.598 3.494 3.496 3.494zm67.316 173.41c-.3.798-.599 1.098-1.398 1.098-1.869-.067-3.692-.044-5.501-.022-.899.011-1.794.022-2.689.022h-.799c.399-.699.799-1.098 1.598-1.098h8.789zm-4.495 5.492c-.898.699-1.498 1.098-2.496 1.098h-8.49c0-.1 0-.2-.1-.299l.153-.12.124-.1c.338-.276.71-.579 1.022-.579h9.787zm92.485 108.717c0-2.995 2.497-5.49 5.493-5.49 2.996 0 5.493 2.495 5.493 5.49s-2.497 5.491-5.493 5.491c-2.996 0-5.493-2.496-5.493-5.491zm1.997 0c0 1.897 1.598 3.495 3.496 3.495s3.496-1.598 3.496-3.495c0-1.896-1.598-3.494-3.496-3.494s-3.496 1.598-3.496 3.494zm154.807 73.877h97.378a1 1 0 01.999.998 1 1 0 01-.999.998h-97.378c-.599 0-.999-.399-.999-.998a1 1 0 01.999-.998zm12.185-16.571c-.5 0-.999.4-.999.999 0 .499.499.998.999.998h40.05c.499 0 .998-.499.998-.998a1 1 0 00-.998-.999h-40.05zm-7.091 1.997h-53.034a1 1 0 01-.999-.998c0-.599.4-.999.999-.999h53.034c.599 0 .998.4.998.999a1 1 0 01-.998.998zm-13.783 14.574h-39.251a1 1 0 00-.999.998c0 .599.4.998.999.998h39.251a1 1 0 00.998-.998 1 1 0 00-.998-.998zm-39.251-31.148a1 1 0 01-.999-.998c0-.6.4-.999.999-.999h21.972c.5 0 .999.499.999.999 0 .499-.499.998-.999.998h-21.972zm-107.566 60.799l-19.975.699c-.799 0-1.198-.499-1.398-.899-.2-.499-.2-1.098.399-1.497l16.779-7.987.2-.1c1.199-.998 1.598-2.496.999-3.993-.599-1.398-1.997-2.296-3.496-2.097l-.239.031c-.702.088-1.34.169-2.058.169l-.613.061c-5.897.582-11.852 1.17-14.168-.76-.4-.299-1.099-.299-1.399.2-.299.399-.299 1.098.2 1.398 3.052 2.46 9.308 1.816 15.991 1.128l.289-.03c.399-.05.774-.075 1.148-.1h.002c.374-.025.748-.05 1.147-.1.799-.1 1.298.399 1.498.899.2.499.2 1.098-.299 1.597l-16.78 7.987-.199.099c-1.199.899-1.598 2.496-1.099 3.894.499 1.398 1.798 2.196 3.196 2.196h.1l19.975-.699c.499 0 .999-.499.999-.998-.2-.699-.699-1.098-1.199-1.098zM117.154 278.934H73.609a1 1 0 00-.999.998c0 .599.4.998.999.998h43.645a1 1 0 00.999-.998c-.1-.499-.499-.998-1.099-.998zM83.397 397.937c.499 0 .998.499.998.998 0 .599-.4.998-.799 1.098l-19.975.699h-.1c-1.398 0-2.696-.799-3.196-2.196-.499-1.398-.1-2.996 1.1-3.894l.199-.1 16.779-7.987c.5-.499.5-1.098.3-1.597-.2-.499-.7-.998-1.499-.898-.718 0-1.356.08-2.058.169l-.239.03-.29.03c-6.682.688-12.937 1.332-15.99-1.128-.499-.299-.499-.998-.2-1.398.3-.499 1-.499 1.4-.199 2.316 1.929 8.27 1.341 14.167.759l.614-.06c.718 0 1.355-.081 2.057-.17l.24-.03c1.498-.2 2.896.699 3.495 2.096.6 1.498.2 2.995-.998 3.994l-.2.1-16.78 7.986c-.598.4-.598.999-.399 1.498.2.399.6.898 1.399.898l19.975-.698zm33.757-135.574H60.525c-.5 0-.998.499-.998.999a1 1 0 00.998.998h56.629a1 1 0 00.999-.998 1 1 0 00-.999-.999zm585.169 22.362c0-.499.499-.998.999-.998.599 0 .999.399.999.998v55.907a1 1 0 01-.999.998c-.5 0-.999-.499-.999-.998v-55.907zm14.682-.998a1 1 0 00-.999.998v55.907a1 1 0 00.999.998c.499 0 .998-.499.998-.998v-55.907c0-.599-.399-.998-.998-.998zm13.782 0a1 1 0 00-.998.998v33.644a1 1 0 00.998.998c.5 0 .999-.499.999-.998v-33.644a1 1 0 00-.999-.998zm-126.741 13.976c.499 0 .999.499.999.998 0 .599-.5.999-.999.999H502.473c-.5 0-.999-.4-.999-.999 0-.499.499-.998.999-.998h101.573zM641.1 418.402c.399 0 .799.3.799.799 0 .399-.3.799-.799.799-.4 0-.799-.3-.799-.799 0-.399.299-.799.799-.799zm4.494 6.889c0-.399.3-.799.799-.799.499 0 .899.3.799.799 0 .399-.3.798-.799.798a.787.787 0 01-.799-.798zm-1.698 13.276c0-.698.599-1.297 1.298-1.297.7 0 1.199.599 1.299 1.297 0 .699-.599 1.298-1.299 1.298a1.322 1.322 0 01-1.298-1.298zm-1.997-7.983a1.298 1.298 0 100-2.596 1.298 1.298 0 000 2.596zm-2.397 12.178c-.5 0-.799.399-.799.798 0 .5.399.799.799.799.399 0 .799-.399.799-.799 0-.499-.4-.798-.799-.798zm0-5.492a1.299 1.299 0 11-2.597-.001 1.299 1.299 0 012.597.001zm-8.49 8.387c0-.699-.599-1.298-1.298-1.298-.699 0-1.299.599-1.299 1.298 0 .699.6 1.298 1.299 1.298s1.298-.599 1.298-1.298zM502.473 316.274h56.629c.499 0 .999-.499.999-.998 0-.599-.5-.999-.999-.999h-56.629c-.5 0-.999.4-.999.999a1 1 0 00.999.998zm43.645 16.57h-43.645a1 1 0 01-.999-.998c0-.499.499-.998.999-.998h43.645c.5 0 .999.499.999.998a1 1 0 01-.999.998zm94.982 78.769a.788.788 0 00.799-.799c0-.399-.4-.798-.799-.798-.5 0-.799.399-.799.798 0 .4.399.799.799.799zM351.162 248.986c0-.599.3-1.198.699-1.597.799-.899 2.397-.899 3.196 0 .4.399.699.998.699 1.597s-.299 1.198-.699 1.597c-.399.5-.999.699-1.598.699-.599 0-1.198-.299-1.598-.699-.499-.399-.699-.998-.699-1.597zm7.99 4.889c.599 0 1.198-.199 1.598-.699.399-.399.699-.998.699-1.597s-.2-1.198-.699-1.597c-.799-.799-2.397-.799-3.196 0-.4.399-.699.998-.699 1.597s.299 1.198.699 1.597c.399.4.999.699 1.598.699zm1.997 8.688c.4.399.7.998.7 1.597s-.3 1.198-.7 1.597c-.399.5-.998.699-1.598.699-.599 0-1.198-.299-1.598-.699-.499-.399-.699-.998-.699-1.597s.3-1.198.699-1.597c.899-.899 2.397-.799 3.196 0zm2.706 10.962c.053.032.091.056.091.117.3.4.499.899.499 1.398 0 .499-.199.998-.499 1.398l-.2.199c-.399.4-.999.699-1.598.699-.599 0-1.198-.299-1.598-.699-.499-.399-.699-.998-.699-1.597s.3-1.198.699-1.597c.799-.799 2.397-.799 3.196 0a.687.687 0 00.064.053l.045.029zm.59 43.847c0 .499-.199.998-.499 1.398a.488.488 0 00-.081.108h-.001v.001c-.032.052-.056.09-.118.09-.399.4-.999.699-1.598.699-.599 0-1.198-.299-1.598-.699-.499-.399-.699-.998-.699-1.597s.3-1.198.699-1.597c.799-.799 2.397-.799 3.196 0 .038.038.077.061.109.082.053.032.091.056.091.117.3.4.499.899.499 1.398zm-4.694 19.266c-.399.399-.699.998-.699 1.597s.3 1.198.699 1.598c.4.399.999.699 1.598.699.599 0 1.199-.2 1.598-.699.4-.4.699-.999.699-1.598-.1-.499-.299-1.098-.699-1.597-.799-.799-2.397-.799-3.196 0zm3.096 10.483c.5.4.699.999.699 1.598 0 .599-.199 1.198-.699 1.597-.399.499-.998.699-1.598.699-.599 0-1.198-.3-1.598-.699-.399-.399-.699-.998-.699-1.597s.3-1.198.699-1.598c.799-.798 2.397-.898 3.196 0zm.3-59.401c0-.599-.3-1.198-.699-1.598-.799-.798-2.297-.798-3.196 0a.095.095 0 00-.035.006.084.084 0 00-.027.013c-.008.007-.016.014-.023.023a.185.185 0 00-.019.027l-.004.006-.01.016a.544.544 0 01-.082.109c-.3.399-.499.899-.499 1.398 0 .599.199 1.198.699 1.597.2.2.3.3.499.399.3.2.699.3 1.099.3.599 0 1.198-.2 1.598-.699.399-.399.699-.998.699-1.597zm-.899 22.262c0 .599-.3 1.198-.699 1.597-.4.399-.999.599-1.598.699-.599 0-1.199-.3-1.598-.699-.4-.399-.699-.998-.699-1.597s.299-1.198.699-1.598c.799-.799 2.397-.799 3.196 0 .499.4.699.999.699 1.598zm-.699 21.166c.399-.399.699-.998.699-1.597s-.2-1.198-.699-1.598c-.799-.898-2.397-.798-3.196 0-.4.4-.699.999-.699 1.598 0 .599.299 1.198.699 1.597.399.399.999.699 1.598.699.699 0 1.198-.3 1.598-.699zm.3 24.56c0-.599-.3-1.198-.7-1.597-.799-.799-2.297-.799-3.196 0-.399.399-.699.998-.699 1.597s.2 1.198.699 1.597c.4.4.999.699 1.598.699.6 0 1.199-.299 1.598-.699.4-.399.7-.998.7-1.597zm-2.697-64.493c.599 0 1.198.199 1.598.599.399.399.599.998.699 1.597 0 .599-.3 1.198-.699 1.597-.4.4-.999.699-1.598.699h-.2c-.499-.1-.999-.299-1.398-.699-.4-.399-.699-.998-.699-1.597s.299-1.198.699-1.597c.399-.4.999-.599 1.598-.599zm0 83.66c.599 0 1.198.2 1.598.599.399.399.599.998.699 1.597 0 .599-.3 1.198-.699 1.598-.4.399-.999.699-1.598.699-.599 0-1.199-.3-1.598-.699-.4-.4-.699-.999-.699-1.598 0-.599.299-1.198.699-1.597.399-.399.999-.599 1.598-.599zm-2.097-54.311c-.4.399-.7.998-.7 1.597s.3 1.198.7 1.597c.399.4.998.699 1.598.699.599 0 1.198-.299 1.598-.699.399-.399.699-.998.699-1.597s-.2-1.198-.699-1.597c-.799-.799-2.298-.799-3.196 0zm.699 40.433c.899-.3 1.897-.1 2.497.499.499.499.699.998.599 1.597 0 .599-.3 1.198-.699 1.598-.4.399-.999.699-1.598.699-.6 0-1.199-.3-1.598-.699-.4-.4-.699-.999-.699-1.598 0-.599.299-1.198.699-1.597.088-.059.167-.117.243-.174l.003-.001.001-.001c.18-.134.342-.253.552-.323zm.899 7.288c-.6 0-1.199.2-1.598.599-.4.4-.7.999-.7 1.598 0 .599.3 1.198.7 1.597.399.399.998.699 1.598.699h.199c.5 0 .999-.3 1.399-.599.399-.4.699-.999.699-1.598 0-.599-.2-1.198-.699-1.597-.4-.499-.999-.699-1.598-.699zm-1.998-100.433c.899-.799 2.397-.899 3.196 0 .4.399.699.998.699 1.597s-.299 1.198-.699 1.598c-.399.399-.999.698-1.598.698-.599 0-1.198-.299-1.598-.698-.499-.4-.699-.999-.699-1.598 0-.599.3-1.198.699-1.597zm1.998 29.453c-.6 0-1.199.199-1.598.599-.4.399-.7.998-.7 1.597s.3 1.198.7 1.597l.299.3c.4.299.799.399 1.299.399.599 0 1.198-.299 1.598-.699.399-.399.699-.998.699-1.597s-.2-1.198-.699-1.597c-.4-.4-.999-.599-1.598-.599zm-2.497-16.774c-.2-.1-.3-.2-.4-.3-.1-.199-.2-.299-.499-.299-.1-.2-.2-.499-.3-.799v-.499c0-.599.3-1.198.699-1.597.4-.3.799-.5 1.199-.599h.899c.499.099.899.299 1.198.599.4.399.699.998.699 1.597v.499c0 .3-.1.499-.299.799l-.3.299-.3.3c-.399.299-.898.399-1.298.399-.499 0-.899-.1-1.298-.399zm-1.498 62.997c0 .599.199 1.198.699 1.598.399.399.998.699 1.598.699.599 0 1.198-.3 1.598-.699.399-.4.699-.999.699-1.598 0-.599-.3-1.198-.699-1.597-.799-.799-2.297-.799-3.196 0-.4.399-.699.998-.699 1.597zm2.496 5.79c.5.399.7.998.7 1.597s-.2 1.198-.7 1.597c-.399.5-.998.699-1.598.699-.599 0-1.198-.299-1.598-.699-.499-.399-.699-.998-.699-1.597s.3-1.198.699-1.597c.899-.799 2.397-.799 3.196 0zm-1.498-89.849c.6 0 1.199-.2 1.598-.699.4-.399.699-.998.699-1.597s-.199-1.198-.699-1.597c-.799-.799-2.297-.799-3.196 0-.399.399-.699.998-.699 1.597s.2 1.198.699 1.597c.4.499.999.699 1.598.699zm-1.598 121.595c.4-.399.999-.599 1.598-.599.6 0 1.199.2 1.598.599.5.399.699.998.699 1.597s-.299 1.198-.699 1.598c-.399.499-.998.698-1.598.698-.599 0-1.198-.299-1.598-.698-.066 0-.133-.089-.199-.178l-.058-.075a.127.127 0 01-.011-.013l-.008-.009-.012-.013-.011-.012c-.3-.399-.4-.898-.4-1.298 0-.599.3-1.198.699-1.597zm-.499-66.888c.399.4.999.699 1.598.699.599 0 1.198-.199 1.598-.699.399-.499.699-.998.699-1.597s-.2-1.198-.699-1.597c-.799-.799-2.397-.799-3.196 0-.4.399-.699.998-.699 1.597.1.599.299 1.198.699 1.597zm.2-31.196c.075-.05.15-.1.199-.15.899-.599 2.098-.499 2.797.3.499.399.699.998.699 1.597s-.3 1.198-.699 1.598c-.4.399-.999.698-1.598.698-.599 0-1.199-.299-1.598-.698-.4-.4-.699-.999-.699-1.598 0-.599.299-1.198.699-1.597a.583.583 0 01.051-.045c.044-.035.096-.07.149-.105zm-.999 46.271c-.4.4-.699.999-.699 1.598 0 .599.2 1.198.699 1.597.399.399.999.699 1.598.699.599 0 1.198-.3 1.598-.699.399-.399.699-.998.699-1.597s-.2-1.198-.699-1.598c-.899-.798-2.397-.798-3.196 0zm1.149-24.259c-.025-.025-.05-.05-.05-.1-.3-.399-.5-.899-.6-1.398 0-.599.3-1.198.699-1.597.799-.799 1.998-.799 2.897-.3l.299.3c.5.399.7.998.7 1.597s-.3 1.198-.7 1.598c-.399.399-.998.698-1.598.698-.599 0-1.198-.299-1.598-.698a.109.109 0 00-.013-.055.178.178 0 00-.036-.045zm1.548 52.212c-.799-.798-2.397-.798-3.196 0-.2.2-.4.5-.5.699-.1.3-.2.599-.2.899 0 .599.3 1.198.7 1.597.399.4.998.699 1.598.699.399 0 .799-.1 1.098-.3.2-.099.4-.199.5-.399.399-.399.699-.998.699-1.597s-.2-1.198-.699-1.598zm-3.596 15.673c-.399.399-.699.998-.699 1.597s.2 1.198.699 1.598c.4.399.999.698 1.598.698.599 0 1.199-.299 1.598-.698.4-.4.699-.999.699-1.598 0-.599-.299-1.198-.699-1.597-.799-.898-2.397-.898-3.196 0zm3.196-33.943c-.399.5-.999.699-1.598.699-.599 0-1.198-.199-1.598-.699-.499-.399-.699-.998-.699-1.597s.3-1.198.699-1.597c.799-.799 2.397-.799 3.196 0 .4.399.699.998.699 1.597s-.299 1.198-.699 1.597zm-2.497-63.293c.599 0 1.199-.3 1.598-.699.4-.399.699-.998.699-1.597s-.199-1.198-.699-1.598c-.799-.798-2.397-.798-3.196 0-.399.4-.699.999-.699 1.598 0 .599.3 1.198.699 1.597.4.399.999.699 1.598.699zm-1.498 44.227c-.399-.399-.699-.998-.699-1.597s.2-1.198.699-1.598c.799-.798 2.397-.798 3.196 0 .499.4.699.999.699 1.598 0 .599-.299 1.198-.699 1.597-.399.499-.999.699-1.598.699-.599 0-1.198-.3-1.598-.699zm-.499-56.007c-.4.399-.699.998-.699 1.597s.199 1.198.699 1.597c.399.4.998.699 1.598.699.599 0 1.198-.199 1.598-.699.399-.399.699-.998.699-1.597s-.3-1.198-.699-1.597c-.799-.799-2.397-.799-3.196 0zm-.4 62.097c-.499-.4-.699-.999-.699-1.598 0-.599.2-1.198.699-1.597.799-.799 2.397-.799 3.196 0 .5.399.699.998.699 1.597s-.299 1.099-.699 1.598c-.399.499-.999.699-1.598.699-.599 0-1.198-.3-1.598-.699zm-.499-36.741c-.4.399-.699.998-.699 1.597s.299 1.198.699 1.597c.399.4.999.699 1.598.699.599 0 1.198-.299 1.598-.699.399-.399.699-.998.699-1.597s-.2-1.198-.699-1.597c-.799-.899-2.297-.899-3.196 0zm3.196 78.971c-.4.499-.999.699-1.598.699-.599 0-1.199-.2-1.598-.699-.4-.399-.699-.998-.699-1.597s.299-1.198.699-1.597c.799-.799 2.397-.799 3.196 0 .499.399.699.998.699 1.597s-.3 1.198-.699 1.597zm-2.497-106.125c.599 0 1.198-.2 1.598-.699.399-.499.699-.998.699-1.597s-.2-1.198-.699-1.598c-.799-.798-2.397-.798-3.196 0-.4.4-.699.999-.699 1.598 0 .599.299 1.198.699 1.597.499.499 1.099.699 1.598.699zm2.397 123.294c0 .599-.3 1.198-.699 1.597-.5.399-.999.699-1.598.699-.599 0-1.199-.3-1.598-.699-.4-.399-.699-.998-.699-1.597s.299-1.198.699-1.598c.799-.799 2.397-.799 3.196 0l.299.3c.3.399.4.898.4 1.298zm-5.094-130.782c0 .599.2 1.198.699 1.598.4.399.999.698 1.598.698.6 0 1.199-.299 1.598-.698.4-.4.7-.999.7-1.598 0-.599-.2-1.198-.7-1.597-.799-.799-2.397-.799-3.196 0-.399.399-.699.998-.699 1.597zm.699 127.187c-.499-.399-.699-.998-.699-1.597s.3-1.198.699-1.597c.799-.799 2.397-.799 3.196 0 .5.399.7.998.7 1.597s-.3 1.198-.7 1.597c-.399.5-.998.699-1.598.699-.599 0-1.198-.299-1.598-.699zm0-82.363c.4.399.999.699 1.598.699.6 0 1.199-.2 1.598-.699.4-.399.7-.998.7-1.597s-.2-1.198-.7-1.598c-.799-.798-2.397-.798-3.196 0-.399.4-.699.999-.699 1.598 0 .599.3 1.098.699 1.597zm1.598 10.286c-.599 0-1.198-.3-1.598-.699-.399-.499-.699-.999-.799-1.598 0-.599.3-1.198.7-1.597.799-.699 1.997-.799 2.896-.299.2.099.3.199.399.299.5.399.7.998.7 1.597s-.3 1.198-.7 1.598c-.399.499-.998.699-1.598.699zm-2.297-29.852c0 .599.2 1.198.699 1.597l.3.3c.05.05.1.075.15.1l.051.026.013.008.009.005.008.006.009.005.013.009a.522.522 0 01.047.041c.299.099.599.199.998.199.5 0 .899-.1 1.299-.399l.299-.3c.4-.399.7-.998.7-1.597s-.2-1.198-.7-1.597c-.299-.3-.699-.499-1.198-.599h-.799c-.4.1-.899.299-1.199.599-.399.499-.699 1.098-.699 1.597zm-1.298 69.383c0-.599.3-1.197.699-1.597.799-.898 2.397-.898 3.196 0 .499.4.699.998.699 1.597s-.299 1.199-.699 1.598c-.399.499-.999.699-1.598.699-.599 0-1.198-.3-1.598-.699-.499-.399-.699-.999-.699-1.598zm.2 9.385c.399.399.998.698 1.598.698.599 0 1.198-.299 1.598-.698.199-.2.399-.5.499-.799.1-.3.2-.599.2-.899 0-.599-.3-1.198-.699-1.597-.799-.799-2.397-.799-3.196 0-.4.399-.699.998-.699 1.597.099.699.299 1.298.699 1.698zm.1-28.35c-.5-.4-.7-.999-.7-1.598 0-.499.2-1.098.7-1.597.799-.799 2.297-.799 3.196 0 .399.399.699.998.699 1.597s-.3 1.198-.699 1.598c-.4.499-.999.699-1.598.699-.6 0-1.199-.3-1.598-.699zm-.7-15.977c0 .599.2 1.198.7 1.598.499.399.998.699 1.598.699.599 0 1.198-.3 1.598-.699.399-.4.699-.999.699-1.598 0-.599-.3-1.198-.699-1.597-.799-.799-2.397-.799-3.196 0-.5.499-.7.998-.7 1.597zm-.099 27.457c0-.599.299-1.198.699-1.597.899-.799 2.397-.799 3.196 0 .399.399.699.998.699 1.597s-.3 1.198-.699 1.598c-.4.499-.999.699-1.598.699-.6 0-1.199-.3-1.598-.699-.5-.4-.699-.999-.699-1.598zm1.797-159.933c0-.599.3-1.198.699-1.597.899-.799 2.397-.799 3.196 0 .4.399.7.998.7 1.597s-.3 1.198-.7 1.597c-.399.499-.998.699-1.598.699-.599 0-1.198-.299-1.598-.699-.499-.399-.699-.998-.699-1.597zm11.386 30.949c0-.599.3-1.198.699-1.597.799-.799 2.297-.799 3.196 0 .5.399.699.998.699 1.597s-.299 1.198-.699 1.597c-.399.5-.999.699-1.598.699-.599 0-1.198-.299-1.598-.699-.399-.399-.699-.998-.699-1.597zm4.494 10.48c0-.599-.199-1.198-.699-1.598-.799-.898-2.397-.798-3.196 0-.399.4-.699.999-.699 1.598 0 .599.3 1.198.699 1.597.4.399.999.699 1.598.699.6 0 1.199-.3 1.598-.699.5-.399.699-.998.699-1.597zm-5.892-19.168c0-.599.299-1.198.699-1.598.899-.798 2.397-.898 3.196 0 .499.4.699.999.699 1.598 0 .599-.3 1.198-.699 1.597-.4.399-.999.699-1.598.699-.599 0-1.199-.3-1.598-.699-.4-.399-.699-.998-.699-1.597zm3.495 24.56c-.799-.799-2.297-.799-3.196 0-.399.399-.699.998-.699 1.597s.2 1.198.699 1.597c.4.4.999.699 1.598.699.6 0 1.199-.2 1.598-.699.4-.399.7-.998.7-1.597s-.3-1.198-.7-1.597zm-4.794-31.945c0-.599.3-1.198.7-1.598.898-.898 2.397-.898 3.196 0 .499.4.699.999.699 1.598 0 .599-.3 1.198-.699 1.597-.4.399-.999.699-1.598.699-.6 0-1.199-.3-1.598-.699-.4-.399-.7-.998-.7-1.597zm.7 42.526c.399.399.998.699 1.598.699.599 0 1.198-.2 1.598-.699.399-.499.699-.998.699-1.597s-.2-1.198-.699-1.598c-.799-.798-2.397-.798-3.196 0-.4.4-.7.999-.7 1.598.1.599.3 1.198.7 1.597zm3.196 7.391c-.4.499-.999.698-1.598.698-.6 0-1.099-.199-1.598-.698-.4-.4-.7-.999-.7-1.598 0-.599.3-1.198.7-1.597.799-.799 2.397-.799 3.196 0 .499.399.699.998.699 1.597s-.3 1.198-.699 1.598zm-4.894-30.152c-.4.4-.699.999-.699 1.598 0 .599.199 1.198.699 1.597.399.4.998.699 1.598.699.599 0 1.198-.299 1.598-.699.399-.399.699-.998.699-1.597s-.3-1.198-.699-1.598c-.799-.898-2.397-.898-3.196 0zm-1.299 7.387c.899-.799 2.397-.799 3.196 0 .4.399.6.998.699 1.597 0 .599-.299 1.198-.699 1.597-.399.499-.998.699-1.598.699-.599 0-1.198-.299-1.598-.699-.499-.399-.699-.998-.699-1.597s.3-1.198.699-1.597zm-.499-38.336c-.4.4-.699.999-.699 1.598v.099c0 .599.299 1.099.699 1.498.399.399.999.699 1.598.699.2 0 .499 0 .699-.1.3-.1.699-.3.899-.599.399-.399.699-.998.699-1.597s-.2-1.198-.699-1.598c-.799-.898-2.297-.898-3.196 0zm-1.498 19.866c0-.599.299-1.198.699-1.597.799-.799 2.297-.799 3.196 0 .499.399.699.998.699 1.597s-.3 1.099-.699 1.598c-.4.499-.999.699-1.598.699-.599 0-1.199-.3-1.598-.699-.499-.4-.699-.999-.699-1.598zm1.798 30.152c.599 0 1.198-.2 1.598-.699.399-.499.699-.998.699-1.597s-.2-1.198-.699-1.597c-.799-.799-2.397-.799-3.196 0-.4.399-.7.998-.7 1.597s.3 1.198.7 1.597c.499.499.998.699 1.598.699zm1.198-22.062c-.399.499-.999.699-1.598.699-.599 0-1.198-.2-1.598-.699-.499-.399-.699-.998-.699-1.597s.3-1.198.699-1.598c.799-.798 2.397-.798 3.196 0 .4.4.699.999.699 1.598 0 .599-.299 1.098-.699 1.597zm-4.095-22.363c-.399.4-.699.999-.699 1.598 0 .599.3 1.198.699 1.597.4.399.999.699 1.598.699.599 0 1.199-.2 1.598-.699.4-.399.699-.998.699-1.597s-.199-1.198-.699-1.598c-.799-.798-2.297-.798-3.196 0zm-1.598 7.688c0-.599.3-1.198.699-1.598.899-.798 2.397-.798 3.196 0 .5.4.699.999.699 1.598 0 .599-.299 1.198-.699 1.597-.399.499-.998.699-1.598.699-.599 0-1.198-.3-1.598-.699-.499-.399-.699-.998-.699-1.597zm1.898 44.624c.599 0 1.198-.2 1.598-.699.399-.399.699-.998.699-1.597s-.2-1.198-.699-1.598c-.799-.798-2.397-.798-3.196 0-.4.4-.699.999-.699 1.598 0 .599.299 1.198.699 1.597.399.399.999.699 1.598.699zm-4.195-21.366c-.399.399-.699.998-.699 1.597s.2 1.198.699 1.597c.4.4.999.699 1.598.699.599 0 1.199-.199 1.598-.699.4-.399.699-.998.699-1.597s-.2-1.198-.699-1.597c-.799-.799-2.397-.799-3.196 0zm1.099 11.78c-.6 0-1.199-.3-1.598-.699-.4-.399-.6-.998-.699-1.597 0-.599.299-1.198.699-1.598.799-.798 2.397-.798 3.196 0 .399.4.699.999.699 1.598 0 .599-.3 1.198-.699 1.597-.4.499-.999.699-1.598.699zm-2.198-30.648c0 .599.2 1.198.7 1.598.499.399.998.698 1.598.698.599 0 1.198-.299 1.598-.698.399-.4.699-.999.699-1.598 0-.599-.3-1.198-.699-1.597-.899-.799-2.397-.799-3.196 0-.5.399-.7.998-.7 1.597zm-.099 13.078c0-.599.299-1.198.699-1.597.899-.799 2.397-.799 3.196 0 .399.399.699.998.699 1.597s-.3 1.198-.699 1.598c-.4.499-.999.698-1.598.698-.6 0-1.199-.299-1.598-.698-.5-.4-.699-.999-.699-1.598zm.099-27.453c0 .599.2 1.198.7 1.598.399.399.998.698 1.598.698.599 0 1.198-.199 1.598-.698.399-.4.699-.999.699-1.598 0-.599-.3-1.198-.699-1.597-.799-.799-2.397-.799-3.196 0-.5.499-.7.998-.7 1.597zm-1.498 180.997c-.399.399-.699.998-.699 1.597s.2 1.198.699 1.597c.5.4.999.699 1.598.699.6 0 1.199-.2 1.598-.699.4-.399.699-.998.699-1.597s-.199-1.198-.699-1.597c-.899-.799-2.397-.799-3.196 0zm5.394 21.266c0-.599.299-1.198.699-1.598.799-.898 2.397-.898 3.196 0 .399.4.699.999.699 1.598 0 .599-.3 1.198-.699 1.597-.4.399-.999.699-1.598.699-.6 0-1.199-.3-1.598-.699-.5-.399-.699-.998-.699-1.597zm-6.592.8c0-.599.299-1.198.699-1.598.899-.798 2.397-.798 3.196 0 .499.4.699.999.699 1.598 0 .599-.3 1.198-.699 1.597-.4.499-.999.699-1.598.699-.599 0-1.199-.3-1.598-.699-.499-.399-.699-.998-.699-1.597zm-.999-11.883c-.399-.4-.699-.999-.699-1.598 0-.599.3-1.198.699-1.597.799-.799 2.397-.799 3.196 0 .499.399.699.998.699 1.597s-.299 1.198-.699 1.598c-.399.499-.999.698-1.598.698-.599 0-1.198-.299-1.598-.698zm0 6.988c.4.399.999.699 1.598.699.599 0 1.199-.2 1.598-.699.4-.399.699-.998.699-1.597s-.2-1.198-.699-1.598c-.799-.799-2.397-.799-3.196 0-.399.4-.699.999-.699 1.598 0 .599.3 1.198.699 1.597zm-2.497 3.495c-.399.399-.999.698-1.598.698-.599 0-1.098-.299-1.698-.698-.499-.4-.699-.999-.699-1.598 0-.599.3-1.198.699-1.597.089-.06.17-.119.247-.176.181-.134.342-.253.552-.323.899-.3 1.898-.1 2.497.499.4.399.699.998.699 1.597s-.299 1.198-.699 1.598zm-2.896-5.889c.599 0 1.198-.2 1.598-.699.399-.399.699-.998.699-1.598 0-.599-.2-1.198-.699-1.597-.699-.699-1.998-.799-2.897-.299a.719.719 0 01-.087.074l-.035.025c-.088.067-.177.134-.177.2-.4.399-.699.998-.699 1.597 0 .6.199 1.199.699 1.598.399.499.999.699 1.598.699zm-2.297 9.783c-.4.5-.999.699-1.598.699-.6 0-1.199-.299-1.598-.699-.5-.399-.699-.998-.699-1.597s.299-1.198.699-1.597c.799-.799 2.397-.899 3.196 0 .499.399.699.998.699 1.597s-.3 1.198-.699 1.597zm-4.195-7.186c.599 0 1.198-.3 1.598-.699.399-.4.699-.999.699-1.598 0-.599-.2-1.198-.699-1.597-.799-.799-2.397-.799-3.196 0-.4.399-.699.998-.699 1.597s.2 1.198.699 1.598c.399.499.999.699 1.598.699zm-6.292 2.094c0-.599.299-1.198.699-1.597.899-.799 2.397-.799 3.196 0 .499.399.699.998.699 1.597s-.3 1.198-.699 1.597c-.4.5-.999.699-1.598.699-.599 0-1.199-.299-1.598-.699-.4-.399-.699-.998-.699-1.597zm-11.286-4.591c-.799-.798-2.397-.898-3.196 0-.4.4-.699.999-.699 1.598 0 .599.2 1.198.699 1.597.399.399.999.699 1.598.699.599 0 1.198-.2 1.598-.699.399-.399.699-.998.699-1.597-.1-.599-.3-1.198-.699-1.598zm-3.895 8.486c0-.599.299-1.198.699-1.598.799-.798 2.297-.798 3.196 0 .499.4.699.999.699 1.598 0 .599-.3 1.198-.699 1.597-.4.399-.999.699-1.598.699-.599 0-1.099-.3-1.598-.699-.499-.399-.699-.998-.699-1.597zm-5.194 2.296c.599 0 1.199-.3 1.598-.699.4-.399.699-.998.699-1.597s-.199-1.198-.699-1.598c-.799-.798-2.397-.798-3.196 0-.399.4-.699.999-.699 1.598 0 .599.3 1.198.699 1.597.5.499.999.699 1.598.699zm1.498-9.187c0 .599-.299 1.198-.699 1.597-.399.4-.999.599-1.598.699-.599 0-1.198-.299-1.598-.699-.499-.399-.699-.998-.699-1.597s.3-1.198.699-1.597c.799-.799 2.297-.799 3.196 0 .5.399.699.998.699 1.597zm-8.889 10.484c.6 0 1.199-.3 1.598-.699.4-.4.7-.999.7-1.598 0-.599-.2-1.198-.7-1.597-.799-.799-2.397-.799-3.196 0-.399.399-.699.998-.699 1.597s.3 1.198.699 1.598c.4.499.999.699 1.598.699zm.999-8.285c0 .599-.299 1.198-.699 1.598-.399.399-.999.599-1.598.698-.599 0-1.198-.299-1.598-.698-.399-.4-.699-.999-.699-1.598 0-.599.3-1.198.699-1.597.799-.799 2.397-.799 3.196 0 .499.399.699.998.699 1.597zm23.471-3.496c0-.599-.2-1.198-.699-1.597-.4-.4-.999-.599-1.598-.599-.599 0-1.199.199-1.598.599-.2.199-.4.499-.5.699-.1.099-.099.299-.099.399v.909l.001.011a.592.592 0 00.023.101l.014.042.011.035c.025.075.05.15.05.2.1.299.3.499.5.699.399.399.999.698 1.598.698h.399c.4-.099.899-.299 1.199-.599.499-.499.699-.998.699-1.597zm-1.099 7.786c.1.1.2.2.3.4.399.399.999.698 1.598.698.599 0 1.198-.199 1.598-.698.399-.4.699-.999.699-1.598 0-.599-.2-1.198-.699-1.597-.2-.2-.499-.4-.699-.499h-.001c-.299-.1-.599-.2-.898-.2-.599 0-1.199.2-1.598.599l-.3.299c-.2.3-.299.5-.299.799v.899l.299.898zm-117.253-7.785c0-.599.299-1.198.699-1.598.899-.898 2.397-.898 3.196 0 .499.4.699.999.699 1.598 0 .599-.3 1.198-.699 1.597-.4.399-.999.699-1.598.699-.599 0-1.199-.3-1.598-.699-.4-.399-.699-.998-.699-1.597zm20.774-1.199c-.4.399-.699.998-.699 1.597s.299 1.198.699 1.597c.399.4.999.699 1.598.699.599 0 1.198-.199 1.598-.699.399-.399.699-.998.699-1.597s-.2-1.198-.699-1.597c-.799-.899-2.297-.899-3.196 0zm13.084 5.99c0 .599-.3 1.198-.7 1.597-.399.4-.998.599-1.598.699-.599 0-1.198-.299-1.598-.699-.499-.399-.699-.998-.699-1.597s.3-1.198.699-1.597c.799-.899 2.397-.799 3.196 0 .5.399.7.998.7 1.597zm-11.286 2.894c-.5-.399-.7-.998-.7-1.597s.2-1.198.7-1.598c.799-.898 2.397-.798 3.196 0 .499.4.699.999.699 1.598 0 .599-.3 1.198-.699 1.597-.4.399-.999.699-1.598.699-.6 0-1.199-.3-1.598-.699zm-10.088-3.791c0 .599-.299 1.198-.699 1.597-.399.399-.999.699-1.598.699-.599 0-1.198-.3-1.598-.699-.399-.399-.699-.998-.699-1.597s.3-1.198.699-1.598c.799-.798 2.397-.798 3.196 0 .499.4.699.999.699 1.598zm-9.788 3.893c0 .599.3 1.198.7 1.597.399.4.998.699 1.598.699.599 0 1.198-.199 1.598-.699.399-.399.699-.998.699-1.597s-.2-1.198-.699-1.597c-.799-.899-2.397-.799-3.196 0-.5.399-.7.998-.7 1.597zm-5.892-5.092c-.4.399-.699.998-.699 1.597s.199 1.198.699 1.597c.399.4.999.699 1.598.699.599 0 1.198-.199 1.598-.699.399-.399.699-.998.699-1.597s-.2-1.198-.699-1.597c-.799-.799-2.297-.799-3.196 0zm-5.393 3.295c0-.099 0-.299.099-.399.1-.2.3-.499.6-.799.399-.399.998-.599 1.598-.599.299 0 .599.1.898.2h.001c.199.1.499.3.699.499.499.4.699.999.699 1.598 0 .599-.3 1.198-.699 1.597-.4.299-.799.499-1.199.599h-.499c-.599 0-1.199-.3-1.598-.699-.2-.2-.4-.399-.5-.699 0-.05-.025-.125-.049-.199l-.008-.022-.009-.028a1.67 1.67 0 01-.026-.091.347.347 0 01-.007-.059c-.1-.2-.1-.3-.1-.499a.172.172 0 01.009-.056.7.7 0 01.028-.075c.028-.069.063-.152.063-.269zm.399-7.888a2.772 2.772 0 00-1.298-.299c-.6 0-1.199.199-1.598.599l-.3.299c-.2.3-.3.499-.3.799v.898c.1.3.2.599.3.799l.3.3c.399.399.998.698 1.598.698.299 0 .599-.099.899-.199.299-.1.499-.3.699-.499.399-.4.699-.999.699-1.598 0-.599-.3-1.198-.699-1.597 0-.056-.063-.081-.136-.109a.464.464 0 01-.164-.091zm-6.392 3.197c0 .599-.3 1.198-.699 1.597-.4.399-.899.599-1.598.699-.599 0-1.199-.3-1.598-.699-.499-.399-.699-.998-.699-1.597s.299-1.198.699-1.598c.899-.898 2.397-.798 3.196 0 .399.4.699.999.699 1.598zm28.864-2.498c-.4.399-.699.998-.699 1.597s.2 1.198.699 1.597c.399.4.999.699 1.598.699.599 0 1.198-.199 1.598-.699.399-.399.699-.998.699-1.597s-.3-1.198-.699-1.597c-.899-.899-2.397-.899-3.196 0zm.999 8.089c0 .599.299 1.198.699 1.597.399.399.999.699 1.598.699.599 0 1.198-.2 1.598-.699.399-.399.699-.998.699-1.597s-.2-1.198-.699-1.598c-.799-.798-2.397-.798-3.196 0-.4.4-.699 1.099-.699 1.598zm-31.561-45.625c.1.2.3.3.5.3h.199l5.793-2.197 5.293-1.996 4.595-1.698c.299-.099.399-.399.299-.698-.1-.3-.399-.4-.599-.3l-4.195 1.597-5.293 1.997-6.192 2.296c-.4.1-.5.4-.4.699zM240.8 239.702c-.3-.1-.499.1-.599.399-1.299 4.792-5.294 20.765-2.897 22.463 1.498 1.098 3.895 1.297 5.493 1.297.591 0 1.072-.054 1.323-.082l.05-.006.055-.006a.977.977 0 01.071-.005c.299 0 .499-.3.399-.5 0-.299-.3-.499-.499-.399 0 0-4.195.399-6.193-1.098-1.198-.899.799-11.78 3.296-21.364-.1-.4-.199-.599-.499-.699zm19.076 8.386c0-.899-.699-1.697-1.598-1.697-.899 0-1.698.698-1.698 1.697 0 .998.699 1.697 1.698 1.697s1.598-.799 1.598-1.697zm7.69 16.87c.2-.3.4-.399.7-.399.117 0 .199.034.268.062.048.02.09.037.131.037.4.2.599.699.3 1.099-.2.299-.4.399-.699.399-.1 0-.3 0-.4-.1-.399-.2-.599-.699-.3-1.098zm3.097 4.292c.199 0 .399 0 .499.1.3.199.499.499.3.898 0 .05-.025.075-.05.1-.025.025-.05.05-.05.1-.2.299-.4.399-.699.399-.1 0-.3 0-.4-.099-.399-.2-.499-.699-.3-1.099.2-.299.4-.399.7-.399zm-3.995 10.684c-.3 0-.5.099-.7.399-.299.399-.099.898.3 1.198.1.1.3.1.4.1.299 0 .499-.1.699-.4.299-.399.1-.898-.3-1.198-.05 0-.125-.025-.2-.049-.075-.025-.15-.05-.199-.05zm-6.093-3.594c-.1 0-.299 0-.399-.1-.3-.3-.5-.799-.3-1.098.2-.3.4-.4.699-.4.1 0 .3 0 .4.1.399.2.499.699.299 1.098-.199.3-.399.4-.699.4zm-4.994 16.673c.2-.3.4-.4.7-.4.199 0 .299 0 .399.1.4.2.599.699.3 1.098-.2.3-.4.4-.699.4-.1 0-.3 0-.4-.1-.399-.2-.499-.699-.3-1.098zm-9.188-3.294c-.3 0-.499.1-.699.399-.3.399-.1.899.299 1.098.1.1.3.1.5.1.299 0 .499-.1.699-.399.2-.4.1-.899-.3-1.198h-.499zm-9.089-17.273c.2-.299.4-.399.699-.399.1 0 .3 0 .5.1a.952.952 0 01.299 1.198c-.199.299-.399.399-.699.399-.2 0-.399 0-.499-.1-.4-.299-.599-.798-.3-1.198zm-1.698 20.168c.2-.299.4-.399.7-.399h.399c.4.299.499.798.3 1.198-.2.299-.4.399-.699.399-.1 0-.3 0-.4-.1-.399-.199-.599-.699-.3-1.098zm-6.392-4.594c-.299 0-.499.099-.699.399-.2.399-.1.898.3 1.098.1.1.299.1.399.1.3 0 .5-.1.699-.399.3-.4.1-.899-.299-1.198h-.4zm-4.494-8.484c.2-.299.4-.399.699-.399.1 0 .3 0 .4.1.399.199.499.698.299 1.098-.199.299-.399.399-.699.399-.1 0-.299 0-.399-.1-.4-.199-.6-.699-.3-1.098zm-1.798 8.882c-.299 0-.499.1-.699.399-.2.4-.1.899.3 1.098.1.1.299.1.399.1.3 0 .5-.1.699-.399.2-.399.1-.899-.299-1.198h-.4zm-2.497-40.131c0-.998.799-1.697 1.698-1.697.899 0 1.698.699 1.698 1.697 0 .899-.699 1.597-1.698 1.597s-1.698-.698-1.698-1.597zm-2.097 32.943c-.3 0-.499.1-.699.4-.3.399-.1.898.299 1.098.1.1.3.1.4.1.3 0 .499-.1.699-.4.3-.399.1-.898-.3-1.098-.099-.1-.199-.1-.399-.1zm-3.995-6.885c.2-.3.399-.4.699-.4.1 0 .3 0 .499.1.4.2.5.699.3 1.098-.2.3-.399.4-.699.4-.2 0-.4 0-.499-.1-.4-.2-.5-.699-.3-1.098zm-1.398-7.591c-.3 0-.5.1-.699.399-.2.4-.1.899.299 1.098.1.1.3.1.4.1.299 0 .499-.1.699-.399.2-.399.1-.899-.3-1.098-.1-.1-.299-.1-.399-.1zm39.251 7.191c-.3 0-.5.1-.699.4-.3.399-.1.898.299 1.098.1.1.3.1.4.1.299 0 .499-.1.699-.4.299-.399.1-.898-.3-1.098-.1-.1-.299-.1-.399-.1zm4.894 9.182c-.1-.1-.3-.1-.5-.1-.299 0-.499.1-.699.4-.2.399-.1.898.3 1.098.1.1.299.1.399.1.3 0 .5-.1.699-.4.3-.299.2-.798-.199-1.098zm-24.27-3.493c-.2-.2-.2-.499 0-.699.2-.2.499-.2.699-.1 1.798 1.697 3.795 2.696 6.092 2.895 5.793.599 9.988-2.895 9.988-2.895.2-.1.499-.1.699.1.1.2.1.499-.1.699-.1.199-3.795 3.194-9.188 3.194h-.001c-.499 0-.998 0-1.497-.099-2.497-.2-4.695-1.298-6.692-3.095zm-61.623-98.935h-.999v31.348h.999v-31.348zm5.793 16.871h-.999v31.348h.999V197.57zM100.975 81.066c-.4 0-.799-.3-.799-.799 0-.399.399-.798.799-.798.399 0 .799.3.799.798 0 .4-.3.8-.799.8zm6.891 4.79c.499 0 .799-.4.799-.8 0-.499-.399-.798-.799-.798-.499 0-.799.4-.799.799s.4.798.799.798zm3.895 6.79c.699 0 1.299-.599 1.299-1.297 0-.7-.6-1.298-1.299-1.298s-1.298.599-1.298 1.298c.1.798.599 1.297 1.298 1.297zm6.592 13.579a1.298 1.298 0 100-2.596 1.298 1.298 0 000 2.596zm5.793 8.385c0 .699-.6 1.298-1.299 1.298a1.322 1.322 0 01-1.298-1.298c0-.698.599-1.298 1.298-1.298.699 0 1.299.6 1.299 1.298zm-2.098 10.482c0-.4.3-.799.799-.799.4 0 .799.399.799.799a.787.787 0 01-.799.798.787.787 0 01-.799-.798zm-4.194 5.889c0 .699-.6 1.298-1.299 1.298a1.322 1.322 0 01-1.298-1.298c0-.698.599-1.297 1.298-1.297.699 0 1.299.599 1.299 1.297zm-3.995-19.567c.499 0 .799-.4.799-.799 0-.499-.4-.799-.799-.799-.5 0-.799.4-.799.799s.399.799.799.799zm-.799 9.486c0-.399.299-.798.799-.798.499 0 .898.399.799.798 0 .4-.3.799-.799.799-.4 0-.799-.3-.799-.799zm-3.896-19.471a.787.787 0 01-.799-.798c0-.4.4-.799.799-.799.4 0 .799.3.799.799a.787.787 0 01-.799.798zm-2.496 30.849c0 .699-.6 1.298-1.299 1.298a1.322 1.322 0 01-1.298-1.298c0-.699.599-1.298 1.298-1.298.699 0 1.299.599 1.299 1.298zm-6.093-44.624c0 .5.4.799.799.799.5 0 .799-.4.799-.799 0-.499-.399-.798-.799-.798-.399 0-.799.399-.799.798zm22.772 46.422a27.88 27.88 0 01-9.289 1.598v.099H68.515c-3.895 0-8.789-1.597-12.784-4.692-3.895-3.194-6.891-7.687-6.891-13.477 0-11.581 8.09-18.07 19.675-18.07h11.286s2.397-22.762 20.974-22.762v-.1c2.896 0 5.593.4 7.99 1.298 7.69 2.695 12.984 9.284 12.984 18.07l.1 4.592v.299c.249.1.474.2.699.3.224.1.449.2.699.299 3.196 1.398 5.992 3.095 8.09 5.391 2.297 2.596 3.695 5.99 3.695 10.383 0 8.286-4.694 14.077-11.685 16.772zm-7.89-49.318c-3.396-3.793-8.59-6.09-14.682-6.09v.1c-16.373 0-18.845 19.907-18.974 20.948l-.002.017-.2 1.797H68.515c-11.086 0-17.678 5.99-17.678 16.074 0 10.782 11.286 16.173 17.678 16.173h45.543c5.394 0 10.787-1.598 14.482-5.192 2.797-2.695 4.495-6.389 4.495-11.181 0-4.393-1.499-7.787-4.695-10.483-1.897-1.497-4.294-2.895-7.39-4.093l-1.299-.499v-6.19c0-4.492-1.498-8.386-4.194-11.38zm584.569-49.516c.499 0 .799-.4.799-.799 0-.499-.4-.798-.799-.798-.5 0-.799.399-.799.798 0 .5.399.799.799.799zm7.69 3.994c0 .4-.299.799-.799.799a.788.788 0 01-.799-.799c0-.4.3-.798.799-.798.4 0 .799.299.799.798zm4.395 6.386a1.299 1.299 0 11-2.597-.002 1.299 1.299 0 012.597.002zm6.591 13.48c0 .7-.599 1.298-1.298 1.298a1.322 1.322 0 01-1.298-1.297c0-.7.599-1.298 1.298-1.298.699 0 1.298.599 1.298 1.297zm3.097 10.982c.699 0 1.298-.599 1.298-1.298 0-.699-.599-1.298-1.298-1.298-.7 0-1.299.6-1.299 1.298.1.699.599 1.298 1.299 1.298zm0 8.385c-.5 0-.799.4-.799.798 0 .4.399.8.799.8.499 0 .799-.4.799-.8 0-.399-.3-.798-.799-.798zm-6.293 7.986c.7 0 1.299-.599 1.299-1.298 0-.699-.599-1.298-1.299-1.298-.699 0-1.298.6-1.298 1.298 0 .699.599 1.298 1.298 1.298zm-1.797-21.664c0 .4-.3.799-.799.799-.5 0-.799-.4-.799-.8 0-.399.299-.798.799-.798.399 0 .799.3.799.799zm-.799 9.486c-.5 0-.799.4-.799.799 0 .5.399.799.799.799.499 0 .799-.4.799-.799 0-.4-.3-.799-.799-.799zm-5.493-19.467c0 .5.399.8.799.8.499 0 .799-.4.799-.8 0-.399-.4-.798-.799-.798-.4 0-.799.4-.799.798zm-2.997 32.844c.699 0 1.299-.599 1.299-1.298 0-.698-.6-1.297-1.299-1.297s-1.298.599-1.298 1.297c0 .8.599 1.298 1.298 1.298zm-3.995-45.025a.788.788 0 01-.799-.8c0-.398.4-.798.799-.798.4 0 .799.4.799.799 0 .4-.299.799-.799.799z" class="Secondary" clip-rule="evenodd"/>
    <path fill="#8ADFFF" fill-rule="evenodd" d="M114.058 135.673c3.296 0 6.492-.499 9.288-1.597-3.296 2.396-7.391 3.794-11.685 3.694H66.118c-10.987 0-19.975-8.985-19.975-19.967s8.988-19.967 19.975-19.967h12.284v-2.795c0-10.982 8.989-19.967 19.975-19.967 3.796 0 7.391 1.098 10.387 2.895-2.497-.798-5.193-1.297-7.99-1.297-18.576 0-20.974 22.762-20.974 22.762H68.516c-11.586 0-19.676 6.489-19.676 18.07 0 5.89 2.897 10.382 6.892 13.477 3.895 3.095 8.889 4.692 12.784 4.692h45.543zm-32.26-36.04l-.2 1.798H68.515c-11.087 0-17.678 5.99-17.678 16.073 0 10.782 11.385 16.173 17.678 16.173h45.543c5.393 0 10.886-1.697 14.482-5.191 1.997-3.095 3.096-6.689 3.096-10.583a20 20 0 00-3.296-10.982c-1.798-1.597-4.295-2.895-7.391-4.093l-1.298-.499V99.634c-.15-.05-.275-.1-.4-.15a7.17 7.17 0 00-.399-.15l-.6-.3v-3.893c0-3.794-1.098-7.288-2.896-10.383-3.396-3.793-8.589-6.09-14.682-6.09-16.304 0-18.726 19.741-18.872 20.934l-.004.032zm41.049 26.357c-.5 0-.799-.4-.799-.799 0-.499.399-.799.799-.799.499 0 .799.4.799.799s-.4.799-.799.799zm0-12.579c.699 0 1.298.599 1.298 1.297 0 .699-.599 1.298-1.298 1.298a1.322 1.322 0 01-1.299-1.298c0-.698.6-1.297 1.299-1.297zm-8.989 8.386a.788.788 0 01-.799-.799c0-.499.399-.799.799-.799.499 0 .799.4.799.799.1.399-.3.799-.799.799zm4.494-18.07c.699 0 1.299.599 1.299 1.298 0 .698-.6 1.297-1.299 1.297a1.321 1.321 0 01-1.298-1.297c0-.799.599-1.298 1.298-1.298zm-1.797 26.056c.699 0 1.298.599 1.298 1.298 0 .699-.599 1.298-1.298 1.298-.7 0-1.299-.599-1.299-1.298 0-.798.599-1.298 1.299-1.298zm-2.697-20.066c.499 0 .799.399.799.798 0 .5-.4.799-.799.799a.788.788 0 01-.799-.799c0-.399.399-.798.799-.798zm-2.097-19.568c.699 0 1.298.6 1.298 1.298 0 .7-.599 1.298-1.298 1.298-.7 0-1.299-.599-1.299-1.298.1-.699.599-1.298 1.299-1.298zm-1.698 10.483c0 .499-.4.799-.799.799-.5 0-.799-.4-.799-.799 0-.499.399-.799.799-.799.399 0 .799.4.799.799zm-2.198-16.473c.5 0 .799.4.799.8 0 .498-.399.798-.799.798a.788.788 0 01-.799-.799c0-.4.4-.799.799-.799zm-2.496 46.822c.699 0 1.298.599 1.298 1.298 0 .699-.599 1.298-1.298 1.298-.7 0-1.299-.599-1.299-1.298 0-.699.599-1.298 1.299-1.298zm-3.097-43.327c0 .499-.399.798-.799.798a.788.788 0 01-.799-.798c0-.5.4-.8.799-.8.4 0 .799.4.799.8zm-1.198-8.187c.499 0 .799.4.799.799 0 .5-.4.798-.799.798a.788.788 0 01-.799-.798c-.1-.4.3-.799.799-.799zm20.674 21.465v-.299c.5.299.999.599 1.398.898-.249-.1-.474-.199-.699-.299-.225-.1-.449-.2-.699-.3zm163.795 40.633c0 2.995-2.497 5.491-5.493 5.491a5.476 5.476 0 01-5.493-5.491c0-2.995 2.497-5.491 5.493-5.491 2.996 0 5.493 2.496 5.493 5.491zm-1.997 0c0-1.897-1.598-3.494-3.496-3.494a3.473 3.473 0 00-3.495 3.494c0 1.897 1.598 3.494 3.495 3.494 1.898 0 3.496-1.597 3.496-3.494zm187.066 239.498H648.39V270.647H532.934c-8.989 0-16.679-5.291-20.075-12.878-7.291-3.594-12.284-11.182-12.284-19.867v-29.251c0-12.18 9.887-22.163 22.072-22.163H648.39v-21.465H472.11l-5.893 4.792v8.386l1.499-1.198 5.992-4.891v.898l-5.193 4.193-2.397 1.897v8.386l6.092-4.892 1.398-1.198v.899l-.599.499-6.991 5.59v8.387l7.49-6.09v.898l-7.49 6.09v8.386l7.49-6.09v.899l-7.49 6.09v8.386l7.49-6.09v.898l-7.49 6.09v8.386l7.49-6.09v.899l-7.49 6.09v8.386l7.49-6.09v.898l-7.49 6.09v8.386l7.49-6.09v.899l-7.49 6.09v8.386l7.49-6.09v.898l-7.49 6.09v8.386l7.49-6.09v.899l-7.49 6.09v8.386l7.49-6.09v.898l-7.49 6.09v8.386l7.49-6.09v.899l-7.49 6.09v8.386l.299-.3 7.191-5.79v.898l-7.191 5.791-.399.299v8.386l4.494-3.594 2.996-2.496v.899l-2.197 1.797-5.393 4.293v8.386l7.491-6.09v.998l-7.491 6.09v8.386l7.491-6.09v.899l-7.491 6.09v8.386l7.491-6.09v.898l-7.491 6.09v8.386l7.491-6.09v.899l-7.491 6.09v8.386l7.491-6.09v.898l-7.491 6.09v8.386l7.491-6.09v.899l-7.491 6.09v8.386l7.491-6.09v.898l-7.491 6.09v8.386l7.491-6.09v.899l-7.491 6.09v5.89h3.196l4.394-3.494v.898l-2.796 3.594zm31.86-83.361h101.573c.5 0 .999.499.999.999a1 1 0 01-.999.998H502.472a1 1 0 01-.999-.998c0-.5.5-.999.999-.999zm0 16.573h56.629a1 1 0 01.999.998c0 .499-.499.998-.999.998h-56.629c-.499 0-.999-.499-.999-.998s.5-.998.999-.998zm0 16.572h43.646c.499 0 .998.499.998.998a1 1 0 01-.998.999h-43.646c-.499 0-.999-.4-.999-.999 0-.499.5-.998.999-.998zm257.71 172.6l1.366-.084c19.376-1.298 33.359-.599 38.053 0v96.239H512.859c-11.885-1.497-28.464-6.489 0-14.376 15.692-4.349 50.475-4.716 82.762-5.056 41.078-.433 78.115-.823 66.651-9.32-7.371-5.463-20.736-10.046-32.241-13.992-20.453-7.014-35.029-12.012.381-16.357 16.978-2.083 38.601-3.461 59.39-4.786 46.963-2.993 89.67-5.715 64.955-15.68-34.983-14.105-18.145-15.14 5.425-16.588zm-32.391 53.127c0 2.995 2.496 5.491 5.493 5.491 3.096 0 5.493-2.396 5.493-5.491 0-2.995-2.497-5.491-5.493-5.491-2.997 0-5.493 2.496-5.493 5.491zm1.997-.002c0-1.897 1.598-3.494 3.496-3.494a3.473 3.473 0 013.495 3.494c0 1.897-1.598 3.494-3.495 3.494-1.898 0-3.496-1.597-3.496-3.494zM578.977 215.74v-5.291h99.575v5.291H578.977zm57.028 233.413c6.792 0 12.385-5.491 12.385-12.38v-18.069c0-6.789-5.493-12.38-12.385-12.38H497.478c-6.791 0-12.384 5.491-12.384 12.38v18.069c0 6.789 5.493 12.38 12.384 12.38h138.527zm10.387-24.659c.5 0 .799.399.799.799a.787.787 0 01-.799.798.787.787 0 01-.799-.798c0-.5.4-.799.799-.799zm-1.198 12.779c.699 0 1.298.599 1.298 1.297 0 .699-.599 1.298-1.298 1.298a1.322 1.322 0 01-1.299-1.298c0-.698.6-1.297 1.299-1.297zm-1.998-7.987c0 .699-.599 1.298-1.298 1.298a1.322 1.322 0 01-1.298-1.298c0-.699.599-1.298 1.298-1.298.699 0 1.298.599 1.298 1.298zm-2.097-19.268c.499 0 .799.399.799.799 0 .399-.4.798-.799.798a.787.787 0 01-.799-.798c0-.4.399-.799.799-.799zm0 8.286c.499 0 .799.4.799.799 0 .499-.4.799-.799.799a.788.788 0 01-.799-.799c0-.399.399-.799.799-.799zm-.799 25.258c0 .499-.4.799-.799.799-.4 0-.799-.4-.799-.799 0-.499.399-.799.799-.799.399 0 .799.3.799.799zm-2.097-7.587c.699 0 1.298.599 1.298 1.298 0 .698-.599 1.297-1.298 1.297-.7 0-1.299-.599-1.299-1.297 0-.699.599-1.298 1.299-1.298zm-8.49 8.386c.699 0 1.298.599 1.298 1.298 0 .698-.599 1.297-1.298 1.297a1.321 1.321 0 01-1.298-1.297c0-.699.599-1.298 1.298-1.298zm-63.62-200.668l.4-.4v.4h-.4zm.399-40.431l-19.575 19.667 19.575 19.567v-39.234zm-40.25 40.43l19.476-19.567 19.576 19.567h-39.052zm38.253-40.829h-37.753l18.976 18.869 18.777-18.869zm-19.975 20.064l-18.877 18.868v-37.537l18.877 18.669zm-78.203-57.802v3.794l4.695-3.794h-4.695zM296.33 297.203c1.098 1.198 1.698 3.095 2.097 5.391-1.598-2.496-4.494-3.394-6.991-3.394-.5 0-.999 0-1.398.1 1.198-.899 2.497-1.498 3.595-1.797.999-.2 1.898-.3 2.697-.3zm-14.083 5.392zm.795-.917c1.831-2.05 3.652-3.652 5.398-4.873-1.668 1.052-3.49 2.722-5.398 4.873zm47.146 132.398c-11.985 5.391-27.966 18.269-35.556 24.658l-2.996 2.995c-.15.05-.275.1-.4.15a2.302 2.302 0 01-.088.035l-.049.02-.04.015c-.042.016-.086.033-.132.049l-.09.031a4.933 4.933 0 01-.109.105l-.074.066-.125.108-.002.001c-.119.101-.19.16-.19.219l-.199.2-.3.1c-3.596 1.098-6.492 1.497-8.589.998-7.89.299-12.185-3.694-9.988-14.276l13.284-67.787.199-.999.2-.998 2.497-12.579c.264-1.619 1.152-5.074 2.323-9.632 2.368-9.215 5.893-22.936 7.764-35.093-.599 1.098-1.298 2.096-2.097 3.094-2.797 3.395-6.292 4.593-9.788 4.593-.999 0-2.097-.1-3.096-.3-.699-.1-1.498-.299-2.097-.599l-1.798-.898c-2.996-1.897-4.994-5.291-4.594-8.786-3.796 6.19-7.591 13.378-11.386 20.866-.4.798-.799 1.597-1.199 2.495-5.992 12.18-11.785 25.159-16.779 36.839-.05.15-.124.325-.199.499-.075.175-.15.35-.2.499-.05.15-.125.325-.2.499v.001c-.075.175-.15.349-.2.499a259.532 259.532 0 01-2.996 7.188c-.2.449-.374.898-.549 1.348-.175.449-.35.898-.549 1.347-2.397 5.99-4.495 11.281-6.093 15.574-1.298 3.994-3.496 7.588-6.292 10.683-.3.898-.499 1.397-.499 1.397-3.596 10.583-13.284 17.97-24.57 18.469l-51.935 2.297c-23.271.998-42.946 17.67-47.84 40.532l-20.874 98.336 153.808 1.897 2.397-12.18H100.175c-.799 0-1.498-.699-1.498-1.497 0-.799.699-1.498 1.498-1.498h138.227l4.595-23.161c50.636-31.248 84.694-80.965 91.885-106.622-1.099-1.298-2.797-1.897-4.694-1.797zM197.853 234.709c-1.298-5.391-3.995-17.271-5.293-27.055-.7-5.79-.899-10.782 0-13.178.199-.499.399-.898.699-1.198.399-.399.899-.499 1.598-.399.399.05.774.125 1.148.2.375.075.749.149 1.149.199.165 0 .299.031.421.058.098.022.188.042.278.042 6.592.899 10.287-.199 10.287-.199s3.695-20.466 20.175-20.067c1.315.094 2.631.011 4.113-.082l.281-.018c.3-.1.6-.1.899-.1.15 0 .3-.025.45-.05a2.73 2.73 0 01.449-.05h.2c-12.584 10.982-26.467 24.46-16.18 39.235.4.599.899 1.198 1.398 1.697a21.916 21.916 0 002.297 1.997c7.691 5.391 20.275 4.193 31.062 3.095l.39-.036c10.61-.983 19.291-1.787 19.784 4.229v.199c-.112-.056-.224-.08-.354-.109-.101-.022-.213-.046-.345-.09h-.199c-.3-.1-.7-.2-1.099-.2-.3-.1-.599-.1-.899-.1-.3-.1-.699-.1-1.099-.1-.399-.099-.799-.099-1.298-.099h-.3c-1.697-.1-3.695-.1-5.692-.1-.986 0-1.997.024-3.019.049h-.003c-1.049.025-2.11.051-3.171.051h-.199c-.899.099-1.798.099-2.597.099-.726 0-1.425.027-2.098.053-.622.024-1.221.047-1.797.047h-3.296c-.381.043-.744.067-1.066.089-.438.029-.801.053-1.032.111-13.782 1.797-23.37.699-28.065-.699-.299-.1-.599-.2-.799-.299-.299-.1-.499-.2-.699-.3-.05 0-.1-.025-.149-.05-.05-.025-.1-.05-.15-.05-.5-.199-.799-.399-1.099-.599l-.899-.599c-1.598-1.198-3.995-.399-4.594 1.498l-4.295 12.878-1.298 3.794s0 .1-.1.3c-.1.299-.3.599-.899.499-.499-.1-1.198-.599-2.197-1.598 0 0-.1-.199-.2-.698-.2-.5-.399-1.298-.599-2.297zm-32.859 138.867c7.591 5.89 21.273-1.697 27.665-5.89 1.299-.799 2.298-1.498 2.797-1.897 2.562-1.817.748-2.268-1.482-2.822h-.002a31.613 31.613 0 01-1.412-.373c-1.299-.399-2.397-.898-2.697-1.797-.1-.499.899-.799 2.697-.998 1.398-.1 3.196-.2 5.293-.2 1.793 0 3.786.025 5.867.052 9.622.122 21.133.267 23.596-1.949 2.112-1.967-1.935-2.504-6.73-3.142-5.184-.688-11.244-1.493-11.347-4.345-.1-3.594 12.284-5.691 21.772-6.589-12.184-1.997-23.071-6.49-27.166-11.881l-.199-.299.599-8.985-6.492 1.797-5.293 1.497-33.758 9.285h-.2V359c0 3.195 1.298 9.584 5.294 13.677.332.2.577.4.821.599.122.1.244.2.377.3zm21.473-28.054l6.192-2.296 5.294-1.996 4.195-1.598c.299-.099.499 0 .599.3.1.299 0 .499-.3.699l-4.594 1.697-5.293 1.996-5.793 2.197h-.2c-.2 0-.399-.1-.499-.3 0-.299.1-.599.399-.699z" class="Primary" clip-rule="evenodd"/>
  </g>
</svg>
