<svg xmlns="http://www.w3.org/2000/svg" width="800" height="600" fill="none" viewBox="0 0 800 600">
  <g class="on_vacation_compas_icon">
    <path fill="#fff" d="M0 0h800v600H0z"/>
    <path fill="#E9E7D9" d="M676.082 315.849c-1.559-40.757-32.279-42.866-69.955-42.866-37.675 0-68.396 2.109-69.954 42.866v.001a83.383 83.383 0 00-.068 3.249c0 1.089.026 2.171.068 3.249v140.779c0 1.104 1.031 2 2.303 2h135.37c1.272 0 2.303-.896 2.303-2V315.849h-.067z" class="Vector" opacity=".6"/>
    <path fill="#E9E7D9" d="M660.479 483.485a5.98 5.98 0 100-11.958 5.98 5.98 0 000 11.958z" class="Vector_2" opacity=".49"/>
    <path fill="#C8753C" d="M660.818 476.219l-4.231 13.874s-.853 7.857-15.467 18.022c-1.666 1.158-3.399-.129-4.765-2.447.806.456 1.648.486 2.474-.093 14.614-10.165 15.467-18.022 15.467-18.022l4.839-14.458 1.313 1.456c.407.453.548 1.086.37 1.668z" class="Vector_3"/>
    <path fill="#000" fill-opacity=".04" d="M583.438 519.382c10.522 1.973 38.242 3.197 42.809 0l5.207-10.687c-12.057 1.918-24.705-7.04-35.666-1.56-13.701 6.851-25.503 9.78-12.35 12.247z" class="Vector 3"/>
    <path fill="#E9E7D9" d="M731.676 377.475c-.915-23.932-18.954-25.17-41.076-25.17s-40.16 1.238-41.075 25.17c-.024.633-.04 1.269-.04 1.908 0 .64.016 1.275.04 1.908v82.661c0 .649.605 1.174 1.352 1.174h79.486c.747 0 1.352-.525 1.352-1.174v-86.477h-.039z" class="Vector_4" opacity=".49"/>
    <path fill="#000" fill-opacity=".04" d="M584.701 506.289c15.831 1.478 47.532 1.288 54.403-1.108l7.833-8.009c-18.14 1.438-48.922-1.794-65.412 2.313-20.613 5.134-16.612 4.956 3.176 6.804z" class="Vector 3.1"/>
    <path fill="#F58F49" d="M641.41 510.119l-12.881 7.738s-6.24 5.57-24.93 3.2c-2.13-.27-2.58-2.51-2.01-5.3.31.93.95 1.55 2.01 1.68 18.69 2.37 24.93-3.2 24.93-3.2l14.052-7.933-.001 1.749c0 .847-.444 1.631-1.17 2.066z" class="Vector_5"/>
    <path fill="#F5B73C" d="M511.357 471.852h-250.1c-13.5 0-13.5-252.859 0-252.859h250.1c13.5 0 13.5 252.859 0 252.859z" class="Vector_6"/>
    <path fill="#A3D3EC" d="M581.465 108.366l4.192 14.524c1.765 2.809 1.471-10.665 1.765-15.336l-5.957.812z" class="Vector 3.3"/>
    <path fill="#66B6E0" fill-opacity=".6" d="M629.395 103.678l-4.257 19.492c-.493-10.486 1.234-9.746-2.035-17.518l6.292-1.974z" class="Vector 3.1_2"/>
    <path fill="#7BCFF1" d="M221.096 506.532l40.161-34.75h250.1l-40.161 34.75h-250.1z" class="Vector_7"/>
    <path fill="#E9E7D9" d="M623.998 270.889c-.398-7.026-8.246-7.389-17.871-7.389-9.624 0-17.472.363-17.871 7.389-.01.186-.017.372-.017.56 0 .188.007.374.017.56v8.589c0 2.49 35.759 2.49 35.759 0v-9.709h-.017z" class="Vector_8" opacity=".49"/>
    <path fill="#E9E7D9" d="M717.66 483.485a5.98 5.98 0 100-11.958 5.98 5.98 0 000 11.958z" class="Vector_9" opacity=".49"/>
    <path fill="#E9E7D9" d="M701.093 351.075c-.234-4.125-4.842-4.338-10.493-4.338-5.651 0-10.259.213-10.493 4.338v.001a5.956 5.956 0 000 .657v5.043c0 1.462 20.996 1.462 20.996 0v-5.701h-.01z" class="Vector_10" opacity=".49"/>
    <path fill="#E9E7D9" d="M586.997 321.972c7.081 113.854-180.206 179.92-238.269 166.984-58.062-12.937-181.884-56.999-190.9-157.461-16.192-50.793 79.747-184.034 198.259-186.664 135.17-117.94 221.893 76.679 230.91 177.141z" class="Vector_11" opacity=".49"/>
    <path fill="#F5B73C" d="M511.357 472.108h-250.1c-13.5 0-13.5-252.859 0-252.859h250.1c13.5 0 13.5 252.859 0 252.859z" class="Vector_12"/>
    <path fill="#E9E7D9" d="M209.321 224.298c-17.364 49.183-10.626 65.331-59.822 89.581-70.703 16.237-82.774-28.758-89.581-59.822-37.043-34.486 10.491-89.968 59.822-89.582 26.916-5.003 99.991 19.337 89.581 59.823z" class="Vector_13" opacity=".49"/>
    <path fill="#FBFBF6" d="M219.387 253.999l40.161-34.75h251.808l-40.161 34.75H219.387z" class="Vector_14"/>
    <path fill="#F5B73C" d="M452.098 219.103l-34.594 34.685h15.39l33.68-34.685h-14.476z" class="Vector 3.2"/>
    <path fill="#000" fill-opacity=".04" d="M483.644 244.803c-1.093-.184-11.91-1.266-18.606-2.202-2.47-.346 3.285-2.941.531-3.342-17.011 2.582-26.518-1.013-31.593-2.506-9.698-2.852 1.595-7.898 1.595-7.898l72.904 6.444s3.759 21.177 3.759 34.235c0 8.146-9.936 37.477-9.936 37.477s-8.956-15.676-8.327-28.738c1.479-30.685-10.327-33.47-10.327-33.47z" class="Vector 3_2"/>
    <path fill="#9E9E9E" d="M432.587 229.666h33.968l-9.41 6.958h-33.968l9.41-6.958z" class="Rectangle" opacity=".4"/>
    <path fill="#3E829D" d="M436.987 225.916h30.63l-8.485 5.877h-30.63l8.485-5.877z" class="Rectangle_2"/>
    <path fill="#3E829D" d="M467.383 226.025l-8.227 5.808v3.629l8.227-5.807v-3.63z" class="Vector 5"/>
    <path fill="#F5B73C" d="M441.046 223.911h19.55l-5.416 3.751h-19.549l5.415-3.751z" class="Rectangle_3"/>
    <path fill="#D08E0D" d="M435.665 227.665h19.526v2.391h-19.526z" class="Rectangle 2"/>
    <path fill="#D08E0D" d="M460.446 223.981l-5.251 3.706v2.317l5.251-3.706v-2.317z" class="Vector 5_2"/>
    <path stroke="#7BCFF1" stroke-linecap="round" stroke-miterlimit="10" stroke-width="2" d="M193.912 162.505h0c7.664-12.579 25.926-12.579 33.59 0h0c7.664 12.579 25.926 12.579 33.59 0l.001-.002c7.664-12.579 25.926-12.579 33.59 0l.003.005c7.664 12.578 25.925 12.578 33.589 0l.004-.006c7.664-12.578 25.925-12.578 33.589 0l.002.004c3.776 6.197 10.124 9.341 16.51 9.431" class="Vector_15"/>
    <path stroke="#7BCFF1" stroke-linecap="round" stroke-miterlimit="10" stroke-width="2" d="M160.108 162.503l.004.005c7.663 12.578 25.925 12.578 33.588 0l.004-.006c7.664-12.578 25.926-12.578 33.589 0l.003.004c3.775 6.197 10.124 9.341 16.51 9.431" class="Vector_16"/>
    <path fill="#F58F49" d="M616.703 300.458l-35.473 93.978-3.468-14.712 71.723 80.204-15.851 15.231-77.284-74.858a13.884 13.884 0 01-3.812-13.329l.344-1.384 24.285-97.471 39.536 12.341z" class="Vector_17"/>
    <path fill="#C8753C" fill-rule="evenodd" d="M626.857 468.595l-11.296-10.942-2.208-38.13 10.877 12.164 2.627 36.908z" class="Intersect" clip-rule="evenodd"/>
    <path fill="#686868" fill-opacity=".4" d="M587.177 377.443l-20.585 9.973 12.925.381-6.079 8.188 11.364-3.628 64.683 67.571-65.276-73.134 2.968-9.351z" class="Vector_18"/>
    <path fill="#F58F49" d="M571.856 278.977l2.922 29.756 67.935 8.576.506-38.332h-71.363z" class="Vector_19"/>
    <path fill="#F58F49" d="M643.062 290.854l-.351 194.149-22.811.776-13.545-193.676 36.707-1.249z" class="Vector_20"/>
    <path fill="#521F20" fill-opacity=".2" d="M694.317 279.59c-.54 1.486-1.785 2.414-2.677 2.09-.892-.324-1.146-1.291-.528-2.715.54-1.487 1.468-3.302 2.36-2.979.892.324 1.384 2.118.845 3.604z" class="Vector_21"/>
    <path stroke="#C8753C" stroke-miterlimit="10" d="M606.93 306.872a4.52 4.52 0 01-4.521-4.521v-15.127" class="Vector_22"/>
    <path stroke="#C8753C" stroke-miterlimit="10" d="M611.519 287.668v19.204" class="Vector_23"/>
    <path stroke="#C8753C" stroke-linecap="round" stroke-miterlimit="10" d="M569.049 279.251h75.83" class="Vector_24"/>
    <path stroke="#C8753C" stroke-linecap="round" stroke-miterlimit="10" d="M569.049 287.394h75.83" class="Vector_25"/>
    <path stroke="#C8753C" stroke-linecap="round" stroke-miterlimit="10" d="M578.113 279.351v8.043" class="Vector_26"/>
    <path stroke="#C8753C" stroke-linecap="round" stroke-miterlimit="10" d="M592.666 279.351v8.043" class="Vector_27"/>
    <path stroke="#C8753C" stroke-linecap="round" stroke-miterlimit="10" d="M607.219 279.351v8.043" class="Vector_28"/>
    <path stroke="#C8753C" stroke-linecap="round" stroke-miterlimit="10" d="M621.772 279.351v8.043" class="Vector_29"/>
    <path stroke="#C8753C" stroke-linecap="round" stroke-miterlimit="10" d="M636.325 279.351v8.043" class="Vector_30"/>
    <path fill="#686868" fill-opacity=".4" fill-rule="evenodd" d="M579.325 289.291l11.873 15.771s-2.873.828-5.937-2.842c-3.063-3.671-5.936-12.929-5.936-12.929zm17.321 21.641l-1.276-7.787 12.021 8.751v.004c.149.365 12.859 31.5 11.907 31.309-.305-.06-.972-.702-1.756-1.456-1.684-1.619-3.908-3.758-4.251-1.799-.193 1.101.193 3.754.602 6.563.658 4.518 1.375 9.441-.164 8.968-2.496-.765-2.266 8.788-2.266 8.788l-3.209-41.264-16.065 42.371s-.987-.622-.578-2.325c2.018-8.412 9.495-34.034 12.608-37.059 2.973-2.89-1.162-7.619-2.991-9.445l-10.03-3.444 5.448-2.175zm23.802-3.75l6.549-11.5-.862 4.393 5.17-1.255-14.362 15.782 3.505-7.42z" class="Union" clip-rule="evenodd"/>
    <ellipse cx="586.007" cy="128.867" fill="#D08E0D" class="Ellipse 4" rx="3.562" ry="7.001" transform="rotate(-16.193 586.007 128.867)"/>
    <path fill="#B87B05" fill-rule="evenodd" d="M586.6 135.499c-.604-2.004-1.002-4.454-1.386-6.825-.394-2.425-.774-4.767-1.348-6.464.062-.026.125-.048.189-.067 1.889-.548 4.294 2.017 5.373 5.73 1.078 3.713.421 7.168-1.469 7.716-.433.126-.893.088-1.359-.09z" class="Intersect_2" clip-rule="evenodd"/>
    <ellipse fill="#D08E0D" class="Ellipse 4.1" rx="3.562" ry="7.001" transform="scale(-1 1) rotate(-16.193 140.607 2260.015)"/>
    <path fill="#F5B73C" d="M604.335 106.191c-9.617 0-20.357-9.218-20.357 1.255 1.107 9.324 3.203 29.353 4.506 31.634 1.303 2.281 6.419 6.403 8.591 8.584a16.811 16.811 0 0010.13 3.394c3.096 0 5.746-1.051 8.725-2.998 3.744-2.446 5.381-6.205 6.563-8.916l.027-.064c1.907-4.377 1.392-8.037 2.442-15.052 0-5.336 2.486-16.83-1.267-18.828-3.613-1.923-14.643.991-19.36.991z" class="Ellipse 3"/>
    <path fill="#D08E0D" d="M603.264 141.388a.443.443 0 10-.651.604l.651-.604zm6.616.45a.443.443 0 10-.597-.657l.597.657zm-7.267.154c.964 1.04 2.303 1.444 3.625 1.371a5.997 5.997 0 003.642-1.525l-.597-.657a5.116 5.116 0 01-3.094 1.296c-1.112.061-2.175-.28-2.925-1.089l-.651.604z" class="Vector 2"/>
    <g class="Rectangle 3">
      <path fill="#fff" fill-opacity=".392" d="M595.054 119.196h4.017l-9.077 11.608-2.402-2.768 7.462-8.84zM600.659 122.907l1.058 1.099-7.69 9.482-1.469-1.055 8.101-9.526z"/>
    </g>
    <g class="Rectangle 3.1">
      <path fill="#fff" fill-opacity=".392" d="M616.265 118.651l3.502 1.08-8.855 10.993-2.109-3.233 7.462-8.84zM621.87 122.362l1.058 1.099-7.69 9.481-1.469-1.055 8.101-9.525z"/>
    </g>
    <circle cx="594.835" cy="125.797" r="7.157" fill="#fff" fill-opacity=".16" stroke="#2A7BBC" stroke-width="1.776" class="Ellipse 3_2"/>
    <circle cx="615.881" cy="125.797" r="7.157" fill="#fff" fill-opacity=".16" stroke="#2A7BBC" stroke-width="1.776" class="Ellipse 3.1"/>
    <path fill="#D08E0D" d="M608.692 133.901l-3.247-8.809-2.764 8.809s1.18 1.369 3.054 1.318c1.874-.052 2.957-1.318 2.957-1.318z" class="Vector_31"/>
    <path fill="#FBFBF6" d="M623.904 115.951a1.12 1.12 0 01-1.955 1.091l1.955-1.091zm-10.058-1.075a1.12 1.12 0 01-.864-2.065l.864 2.065zm8.103 2.166c-.396-.71-1.299-1.737-2.655-2.339-1.313-.584-3.12-.802-5.448.173l-.864-2.065c2.882-1.207 5.331-.994 7.221-.154 1.849.821 3.097 2.211 3.701 3.294l-1.955 1.091z" class="Vector 2.1"/>
    <path stroke="#D9D6BF" stroke-linecap="round" stroke-width="2" d="M123.043 419.042V268.551m0-57.271v57.271m0 0l36.124-23.523" class="Vector 2_2"/>
    <path fill="#F1D19D" fill-rule="evenodd" d="M674.39 180.863c-5.743-9.427-15.965-14.268-24.357-16.946-9.028-2.881-19.511-4.376-29.924-4.908-20.612-1.054-44.253 1.527-61.104 7.624-4.393 1.59-7.641 4.416-9.609 6.359-2.188 2.16-4.171 4.629-5.9 7.011-3.466 4.776-6.846 10.511-9.796 15.939-3.109 5.719-5.985 11.551-8.266 16.371l-53.916-7.616-4.522 32.008 64.372 9.093c7.878 1.113 15.818-3.034 19.172-10.663a372.316 372.316 0 016.909-14.771c1.503 5.396 3.404 11.683 4.196 14.087 1.108 3.36.504 6.493-.085 9.549-.545 2.825-1.077 5.585-.234 8.4 1.358 4.534 1.012 8.904.706 12.785-.262 3.31-.495 6.264.379 8.661 1.864 5.113 7.708 5.065 13.149 4.979l67.85-.287c5.403-.085 9.06-2.635 10.788-7.755.756-2.238.246-5.418-.313-8.912v-.001c-.771-4.81-1.637-10.215.569-14.577 2.938-5.81 3.6-15.254 3.8-24.306 5.835 18.869 7.763 42.716 2.582 74.994l31.916 5.124c8.849-55.121-.287-92.608-18.362-122.242zm-31.679 304.141l-7.466.255-13.778.468c-.717 4.451-2.854 12.891-8.848 14.388-.836.041-1.703.187-2.599.456-5.698 1.707-12.156 16.646-6.422 17.372 18.645 2.363 24.901-3.174 24.932-3.201l14.051-8.437s.127-1.313.258-3.115c11.072-8.805 11.776-15.284 11.776-15.284l4.521-14.812-.101.031c-.203-.296-3.437-4.979-5.893-7.702-1.305-1.447-3.073-3.16-4.601-4.587l-5.796 5.57-.034 18.598zm-391.579 50.998c0 9.649 7.823 17.472 17.473 17.472 9.649 0 17.472-7.823 17.472-17.472 0-9.65-7.823-17.473-17.472-17.473-9.65 0-17.473 7.823-17.473 17.473zm189.254 0c0 9.649 7.823 17.472 17.472 17.472 9.65 0 17.473-7.823 17.473-17.472 0-9.65-7.823-17.473-17.473-17.473-9.649 0-17.472 7.823-17.472 17.473zm-246.263-70.313c3.62-5.331 9.772-8.035 15.985-8.035 6.212 0 12.364 2.703 15.985 8.035 4.051 5.966 10.875 8.911 17.639 8.911 5.468 0 10.975-1.924 15.025-5.813l-.696-2.143c-3.682 3.955-8.983 5.956-14.329 5.956-6.212 0-12.364-2.703-15.985-8.035-4.051-5.965-10.875-8.911-17.639-8.911-6.764 0-13.588 2.946-17.64 8.912-3.62 5.331-9.772 8.034-15.984 8.034-6.213 0-12.365-2.703-15.985-8.035-4.052-5.965-10.876-8.911-17.64-8.911-6.764 0-13.588 2.946-17.639 8.912-3.621 5.331-9.772 8.034-15.985 8.035-6.212 0-12.364-2.703-15.985-8.035a1 1 0 00-1.654 1.124c4.05 5.965 10.875 8.911 17.639 8.911 6.764-.001 13.588-2.946 17.639-8.912 3.621-5.331 9.773-8.035 15.985-8.035 6.213 0 12.365 2.703 15.985 8.035 4.051 5.966 10.876 8.911 17.64 8.911 6.764 0 13.588-2.945 17.639-8.911z" class="Secondary" clip-rule="evenodd"/>
    <path fill="#F5B73C" d="M308.799 219.103l-40.762 34.685h15.391l39.848-34.685h-14.477z" class="Vector 3_3"/>
    <path fill="#D08E0D" d="M283.506 507.318V253.46H267.97v253.858h15.536z" class="Vector 4"/>
    <path fill="#D08E0D" d="M432.973 507.318V253.46h-15.536v253.858h15.536z" class="Vector 4.1"/>
    <path fill="#C4C4C4" d="M285.84 229.666h33.968l-9.41 6.958H276.43l9.41-6.958z" class="Rectangle_4" opacity=".4"/>
    <path fill="#60AECD" d="M290.241 225.916h30.63l-8.485 5.877h-30.63l8.485-5.877z" class="Rectangle_5"/>
    <path fill="#60AECD" d="M320.637 226.025l-8.227 5.808v3.629l8.227-5.807v-3.63z" class="Vector 5_3"/>
    <path fill="#F5B73C" d="M294.3 223.911h19.549l-5.415 3.751h-19.549l5.415-3.751z" class="Rectangle_6"/>
    <path fill="#D08E0D" d="M288.918 227.665h19.526v2.391h-19.526z" class="Rectangle 2_2"/>
    <path fill="#D08E0D" d="M313.7 223.981l-5.251 3.706v2.317l5.251-3.706v-2.317z" class="Vector 5_4"/>
    <path fill="#F5B73C" d="M269.106 371.286h13.263v19.21h-13.263z" class="Rectangle_7"/>
    <path fill="#F5B73C" d="M418.573 371.286h13.263v19.21h-13.263z" class="Rectangle_8"/>
    <path fill="#9C9238" d="M625.047 122.432c-.216.461-1.017-11.01-1.65-15.711l.949-1.155c.412 0 1.08 2.202 1.443 3.918.453 2.144-.484 12.397-.742 12.948z" class="Vector 5_5"/>
    <path fill="#9C9238" d="M587.238 109.219c.167 4.786.184 13.57-.866 13.994-.213.086-.471.028-.594-.009l.001.009c-.106-.05-.086-.034-.001-.009l-1.458-12.572c.836-.183 2.59-.721 2.918-1.413z" class="Vector 6"/>
    <path fill="#60AECD" fill-rule="evenodd" d="M344.516 207.26h-1.928c-.68 0-1.33-.126-1.929-.357v21.336h3.857V207.26z" class="Subtract" clip-rule="evenodd"/>
    <path fill="#60AECD" fill-rule="evenodd" d="M405.792 206.514v21.725h-3.856v-20.978h1.126c.997 0 1.931-.273 2.73-.747z" class="Subtract_2" clip-rule="evenodd"/>
    <path fill="#7BCFF1" fill-rule="evenodd" d="M309.493 86.99c19.504 6.724 33.095 21.815 33.095 39.352l-288.977-7.884c0-23.795 25.019-43.085 55.88-43.085 6.313 0 12.382.807 18.042 2.295 12.093-10.894 30.058-17.799 50.114-17.799 3.637 0 7.205.227 10.682.664 11.768-13.898 32.118-23.084 55.251-23.084 35.853 0 65.022 22.064 65.913 49.542zm433.288 40.046c5.911 2.038 10.03 6.611 10.03 11.927l-87.581-2.39c0-7.212 7.582-13.058 16.935-13.058 1.914 0 3.753.245 5.468.696 3.665-3.302 9.11-5.395 15.188-5.395 1.103 0 2.184.069 3.238.202 3.566-4.213 9.734-6.997 16.745-6.997 10.866 0 19.706 6.687 19.977 15.015zM604.188 87.653c-9.208 7.916-22.716 7.52-22.716 7.52a7.656 7.656 0 00-4.24 9.962c1.58 3.923 5.639 8.682 9.962 4.241 15.849 1.424 50.485.745 46.572-14.203-4.891-18.685-20.37-15.437-29.578-7.52zM470.264 213.57l-2.992 21.182c-2.827-.175-5.68-.454-8.123-.721v1.512h-30.593v-3.746h24.037c1.557-1.87 5.779-4.809 5.779-4.809s-16.904-1.358-20.142-2.341c-1.427-.414 4.246-8.072 11.521-11.821 2.033-1.032 12.265-.167 20.513.744zm195.34 85.176l21.187 3.401c-1.794 10.078-6.817 24.847-9.342 26.68-6.738 4.801-20.766 6.418-20.416 4.854.633-3.342 9.217-18.482 9.217-18.482s-12.861 8.283-11.714 5.529c.922-2.073 6.386-14.349 11.068-21.982zM403.062 207.26h-60.474a5.362 5.362 0 110-10.723h60.474a5.362 5.362 0 110 10.723zm-48.091 20.979l-1.366 4.947H331.57l-1.365-4.947h24.766zm61.276 0l-1.365 4.947h-22.035l-1.366-4.947h24.766zM286.664 365.066h-21.852v31.651h21.852v-31.651zm-4.294 6.219h-13.264v19.211h13.264v-19.211zm153.761-6.219h-21.852v31.651h21.852v-31.651zm-4.295 6.219h-13.263v19.211h13.263v-19.211zm-210.74 135.502l40.16-34.75h250.1l-40.16 34.75h-250.1zm60.713-274.99h30.593v3.746h-30.593v-3.746z" class="Primary" clip-rule="evenodd"/>
    <path fill="#000" fill-opacity=".17" fill-rule="evenodd" d="M452.54 231.795c-.685.822-.854 1.437.075 1.507.485.032 1.477.149 2.81.306h.001c1.041.123 2.29.27 3.669.421v1.512h-30.593v-3.746h24.038z" class="Subtract_3" clip-rule="evenodd"/>
    <path fill="#000" fill-opacity=".09" fill-rule="evenodd" d="M344.516 207.26h-1.928c-.68 0-1.33-.127-1.929-.358v21.336h3.857V207.26z" class="Subtract_4" clip-rule="evenodd"/>
    <path fill="#000" fill-opacity=".09" fill-rule="evenodd" d="M405.792 206.514v21.724h-3.856V207.26h1.126c.997 0 1.931-.272 2.73-.746z" class="Subtract_5" clip-rule="evenodd"/>
    <path fill="#FBFBF6" d="M586.005 117.644a.897.897 0 001.6.805l-1.6-.805zm11.795-2.59a.896.896 0 00.334-1.759l-.334 1.759zm-10.195 3.395c.735-1.462 3.854-4.597 10.195-3.395l.334-1.759c-7.118-1.35-11.031 2.166-12.129 4.349l1.6.805z" class="Vector 2_3"/>
    <path stroke="#2A7BBC" stroke-width="1.131" d="M188.698 92.89c28.64-17.4 66.534-36.008 60.81-40-7.156-4.989-83.364 20.933-88.111 26.434" class="Vector 4.1_2"/>
    <path fill="#F1F1EC" d="M302.004 143.254c-75.867-24.497-105.207-24.156-181.348-58.814-21.342-9.715-35.381-16.668-31.006-27.99 1.006-2.602 9.569-7.477 28.289-3.516 25.274 5.348 63.885 20.989 78.679 25.358 20.602 6.083 70.441 33.062 88.366 46.078l16.366-13.503 14.803 7.028-14.149 25.359z" class="Vector 3_4"/>
    <path stroke="#2A7BBC" stroke-linecap="round" stroke-width="1.131" d="M147.523 79.51c-28.639 17.399-66.533 36.008-60.81 39.999 7.156 4.989 81.599-21.2 88.571-25.962" class="Vector 4_2"/>
    <path stroke="#2A7BBC" stroke-linecap="round" stroke-width="1.131" d="M117.045 55.99c-4.667 5.597-17.42 14.67-31.087 6.19" class="Vector 5_6"/>
    <path fill="#F1F1EC" d="M154.143 83.854c.265-1.573 1.458-2.683 2.666-2.48 1.207.203 1.972 1.643 1.707 3.216l-.667 3.965c-.265 1.573-1.458 2.683-2.666 2.48-1.207-.203-1.972-1.643-1.707-3.215l.667-3.966zM163.492 87.124c.264-1.573 1.458-2.683 2.665-2.48 1.208.203 1.972 1.643 1.708 3.216l-.667 3.966c-.265 1.572-1.459 2.682-2.666 2.48-1.208-.204-1.972-1.644-1.708-3.216l.668-3.966zM182.185 93.672c.265-1.572 1.458-2.683 2.666-2.48 1.207.204 1.972 1.643 1.707 3.216l-.667 3.966c-.265 1.572-1.458 2.683-2.666 2.479-1.207-.203-1.972-1.642-1.707-3.215l.667-3.966zM191.533 96.946c.264-1.572 1.458-2.683 2.665-2.48 1.208.204 1.972 1.643 1.708 3.216l-.667 3.966c-.265 1.572-1.458 2.683-2.666 2.479-1.208-.203-1.972-1.642-1.708-3.215l.668-3.966zM200.88 100.22c.265-1.572 1.458-2.683 2.666-2.48 1.208.204 1.972 1.643 1.707 3.216l-.667 3.966c-.264 1.573-1.458 2.683-2.665 2.479-1.208-.203-1.973-1.642-1.708-3.215l.667-3.966zM210.227 103.494c.265-1.572 1.458-2.682 2.666-2.479 1.207.203 1.972 1.642 1.707 3.215l-.667 3.966c-.265 1.573-1.458 2.683-2.666 2.48-1.207-.204-1.972-1.643-1.707-3.216l.667-3.966zM219.575 106.768c.264-1.572 1.458-2.682 2.665-2.479 1.208.203 1.972 1.642 1.708 3.215l-.667 3.966c-.265 1.573-1.459 2.683-2.666 2.48-1.208-.204-1.972-1.643-1.708-3.216l.668-3.966z"/>
    <path fill="#E4E4DA" d="M275.738 139.753l7.001-9.353 14.875 5.733-3.327 2.479-18.549 1.141z" class="Vector 6_2"/>
    <path stroke="#2A7BBC" stroke-linecap="round" stroke-miterlimit="10" stroke-width="3" d="M618.02 493.721s6.017-2.196 11.507 3.804" class="Vector_32"/>
    <path stroke="#2A7BBC" stroke-linecap="round" stroke-miterlimit="10" stroke-width="3" d="M611.395 498.397s6.017-2.196 11.507 3.804" class="Vector_33"/>
    <g class="Group 2">
      <path stroke="#2A7BBC" stroke-linecap="round" stroke-width=".812" d="M677.508 321.445c-1.481 4.22-2.769 7.863-4.207 11.178" class="Vector_34"/>
      <path stroke="#2A7BBC" stroke-linecap="round" stroke-width=".812" d="M673.251 321.477c-.741 2.109-4.03 10.699-5.099 12.96" class="Vector_35"/>
      <path stroke="#2A7BBC" stroke-linecap="round" stroke-width=".812" d="M668.625 320.641c-1.695 4.287-5.348 12.616-6.791 15.323" class="Vector_36"/>
    </g>
    <path fill="#E9E7D9" d="M551.775 483.485a5.98 5.98 0 100-11.958 5.98 5.98 0 000 11.958z" class="Vector_37" opacity=".49"/>
    <path fill="#F5B73C" d="M514.349 534.305c25.025 0 45.311-20.286 45.311-45.311 0-25.024-20.286-45.311-45.311-45.311-25.024 0-45.311 20.287-45.311 45.311 0 25.025 20.287 45.311 45.311 45.311z" class="Vector_38"/>
    <g class="Group">
      <path fill="#F2F1E8" d="M514.35 459.944c1.041 4.839 1.582 9.678 1.971 14.517.369 4.839.541 9.678.544 14.517.004 4.839-.168 9.677-.537 14.516-.388 4.839-.93 9.678-1.978 14.517-1.048-4.839-1.59-9.678-1.978-14.517a188.762 188.762 0 01-.537-14.516c.003-4.839.175-9.678.544-14.517.39-4.839.93-9.678 1.971-14.517z" class="Vector_39"/>
    </g>
    <path stroke="#2A7BBC" stroke-linecap="round" stroke-miterlimit="10" stroke-width="2" d="M297.13 278.977c7.178 7.946 16.694 21.008 18.392 38.146 3.375 34.058-27.564 49.523-21.798 79.698 4.549 23.804 25.898 25.151 25.885 47.002-.013 21.454-20.598 29.133-19.754 49.726.623 15.184 12.48 27.253 23.16 35.422" class="Vector_40"/>
    <path stroke="#2A7BBC" stroke-linecap="round" stroke-miterlimit="10" stroke-width="2" d="M374.028 278.977c7.177 7.946 16.694 21.008 18.392 38.146 3.374 34.058-27.565 49.523-21.798 79.698 4.549 23.804 25.898 25.151 25.885 47.002-.013 21.454-20.599 29.133-19.755 49.726.623 15.184 12.481 27.253 23.161 35.422" class="Vector_41"/>
    <path fill="#D08E0D" d="M283.506 507.319v-35.468H267.97v35.468h15.536z" class="Vector 4.2"/>
    <path fill="#D08E0D" d="M432.973 507.319v-35.468h-15.536v35.468h15.536z" class="Vector 4.3"/>
    <path fill="#7BCFF1" fill-rule="evenodd" d="M604.877 66.086c-4.521-1.024-8.708-3.777-11.439-8.259l-.005-.007-.023.014-.004-.008v-.001l-.002-.003h-.001c-8.248-13.538-27.902-13.539-36.151-.001l-.001.002-.002.004-.002.002c-7.079 11.617-23.947 11.616-31.025-.002l-.005-.007-.005.002c-8.248-13.538-27.903-13.539-36.151-.001l-.002.002-.002.004-.001.002c-7.08 11.617-23.947 11.616-31.026-.002l-.005-.007-.023.014-.004-.008v-.001l-.002-.003h-.001c-8.248-13.538-27.902-13.539-36.151-.001l-.001.002-.002.004-.001.002c-7.08 11.617-23.948 11.616-31.026-.002l-.005-.007-2.559 1.565.002.003v.001c8.249 13.536 27.902 13.536 36.151 0l.001-.003.002-.004c4.07-5.297 8.709-8.5 13.915-9.063 6.186-.67 13.52 3.238 17.159 9.058l-.014.008.002.003.001.001c8.248 13.536 27.902 13.536 36.15 0l.001-.003.003-.004c4.07-5.297 8.709-8.5 13.914-9.063 6.312-.683 13.138 2.371 16.695 8.388l.045.076c.127.217.341.58.59.94 8.366 13.202 27.764 13.09 35.944-.335l.001-.002.002-.004c4.07-5.297 8.709-8.5 13.915-9.063 6.186-.67 13.52 3.238 17.159 9.058l-.014.008.002.003.001.001c3.317 5.443 8.478 8.698 14 9.763v-3.066z" class="Subtract_6" clip-rule="evenodd"/>
    <path fill="#fff" fill-rule="evenodd" d="M594.309 226.58c17.5 1.6 31.7-.5 50.6-10.2.9-.5 2-.2 2.7.6-20 10.5-35.8 13.8-50.5 12.8-14.7-.9-28.4-6.1-32.6-8.7-.5-.3-.6-1-.4-1.5.2-.6.8-.8 1.3-.5 3.9 2.5 14.4 6.6 28.9 7.5z" class="Vector_42" clip-rule="evenodd"/>
    <path fill="#fff" fill-rule="evenodd" d="M594.595 205.77c17.6 0 31.6-3.5 49.8-14.9.9-.6.862 2.101 1.562 2.801-19.3 12.3-33.662 14.599-48.362 14.999-14.7.4-28.7-3.4-33-5.6-.5-.2-.7-.9-.5-1.5.2-.6.8-.8 1.2-.6 4.1 2.1 14.8 5.3 29.3 4.8z" class="Vector_43" clip-rule="evenodd"/>
    <path fill="#521F20" fill-opacity=".2" d="M661.884 196.7c1.6 0 5.4-.7 5.4.8 0 1.6-3.4 4.4-5 4.4s-5.9.1-5.9-1.4c0-1.6 3.9-3.8 5.5-3.8z" class="Vector_44"/>
    <path fill="#521F20" fill-opacity=".2" d="M482.981 219.993c-.54 1.486-1.785 2.413-2.677 2.089-.891-.323-1.146-1.291-.528-2.715.54-1.486 1.468-3.302 2.36-2.978.892.324 1.384 2.118.845 3.604z" class="Vector_45"/>
    <path fill="#521F20" fill-opacity=".2" d="M545.843 188.053c0 1.6-1.3 2.1-2.9 2.1-1.6 0-2.9-.6-2.9-2.1 0-1.6 1.3-2.9 2.9-2.9 1.6 0 2.9 1.4 2.9 2.9z" class="Vector_46"/>
    <path stroke="#2A7BBC" stroke-linecap="round" stroke-width=".812" d="M457.194 215.978c-2.265-.281-11.362-1.18-13.884-1.276" class="Vector_47"/>
    <path stroke="#2A7BBC" stroke-linecap="round" stroke-width=".812" d="M455.914 220.481c-4.589-.479-13.678-.879-16.677-.826" class="Vector_48"/>
    <path fill="#D08E0D" fill-rule="evenodd" d="M594.476 145.25c1.011.913 1.94 1.752 2.599 2.414a16.817 16.817 0 0010.13 3.393c3.095 0 5.745-1.051 8.725-2.998a13.711 13.711 0 002.869-2.519c.399 2.092.824 3.912 1.212 5.571 1.151 4.926 1.972 8.441.814 13.462-2.19 9.494-30.966 12.164-25.892-2.835 1.913-5.657 1.075-9.485-.134-15-.105-.482-.214-.977-.323-1.488z" class="Subtract_7" clip-rule="evenodd"/>
    <path fill="#9D9737" fill-rule="evenodd" d="M594.476 145.25c1.011.912 1.94 1.752 2.599 2.414a16.817 16.817 0 0010.13 3.393c.809 0 1.587-.071 2.348-.212-.145.062-.3.13-.466.204-2.382 1.053-6.904 3.053-13.661-1.358-.185-.939-.399-1.915-.626-2.95-.106-.483-.214-.98-.324-1.491z" class="Subtract_8" clip-rule="evenodd"/>
    <path stroke="#2A7BBC" stroke-miterlimit="10" stroke-width="2" d="M45.176 497.882h0c7.663-12.579 25.926-12.58 33.59-.001v.001c7.664 12.579 25.926 12.579 33.59 0l.001-.002c7.664-12.579 25.926-12.579 33.589-.001l.004.006c7.663 12.578 25.925 12.578 33.589 0l.003-.007c7.664-12.578 25.926-12.578 33.589.001l.003.003c3.775 6.197 10.124 9.341 16.51 9.432" class="Vector_49"/>
    <path stroke="#2A7BBC" stroke-linecap="round" stroke-miterlimit="10" stroke-width="2" d="M214.428 445.432c-6.249-72.598-4.027-191.433 6.668-191.433h250.1c13.5 0 13.5 253.319 0 253.319h-241.55" class="Vector_50"/>
    <g class="Group_2">
      <path fill="#F58F49" d="M500.838 475.466c2.736 1.767 5.239 3.768 7.673 5.838a126.138 126.138 0 017.009 6.503 124.329 124.329 0 016.506 7.006c2.071 2.433 4.071 4.937 5.835 7.676-2.739-1.764-5.244-3.764-7.676-5.835a123.959 123.959 0 01-7.006-6.506 126.138 126.138 0 01-6.503-7.009c-2.071-2.433-4.071-4.937-5.838-7.673z" class="Vector_51"/>
    </g>
    <g class="Group_3">
      <path fill="#F58F49" d="M527.861 475.466c-1.767 2.737-3.768 5.24-5.838 7.673a126.907 126.907 0 01-6.503 7.009 124.346 124.346 0 01-7.006 6.507c-2.433 2.071-4.937 4.07-7.677 5.835 1.765-2.74 3.764-5.244 5.836-7.677a124.648 124.648 0 016.506-7.006 126.504 126.504 0 017.009-6.502c2.433-2.071 4.937-4.071 7.673-5.839z" class="Vector_52"/>
    </g>
    <g class="Group_4">
      <path fill="#F2F1E8" d="M543.383 488.978c-4.839 1.041-9.678 1.581-14.517 1.971a192.4 192.4 0 01-14.516.544c-4.839.004-9.678-.168-14.517-.537-4.839-.388-9.678-.93-14.517-1.978 4.839-1.048 9.678-1.59 14.517-1.978 4.839-.369 9.678-.541 14.517-.537 4.838.003 9.677.174 14.516.544 4.839.389 9.678.93 14.517 1.971z" class="Vector_53"/>
    </g>
    <circle cx="514.349" cy="488.953" r="48.337" stroke="#F0F0F0" stroke-linecap="round" class="Ellipse"/>
    <path fill="#F2F1E8" d="M517.841 455.621h-2.004l-2.964-5.204v5.204h-2.016v-8.363h2.016l2.958 5.204v-5.204h2.01v8.363z" class="N"/>
    <path fill="#F2F1E8" d="M515.66 528.905c0-.295-.105-.524-.315-.689-.207-.165-.573-.335-1.097-.511a10.613 10.613 0 01-1.287-.511c-1.083-.533-1.625-1.264-1.625-2.194 0-.464.134-.871.402-1.224.272-.356.654-.631 1.148-.827.494-.199 1.05-.298 1.666-.298.601 0 1.139.107 1.614.321.479.215.85.521 1.114.919.264.395.396.846.396 1.356h-2.01c0-.341-.105-.605-.316-.793-.206-.188-.488-.281-.844-.281-.36 0-.645.08-.856.241a.728.728 0 00-.31.603c0 .214.115.41.345.586.229.172.633.352 1.212.54.578.183 1.053.383 1.424.597.904.521 1.355 1.239 1.355 2.154 0 .731-.275 1.305-.827 1.723-.551.417-1.307.626-2.268.626a4.556 4.556 0 01-1.844-.362c-.547-.245-.961-.578-1.24-.999a2.631 2.631 0 01-.414-1.465h2.022c0 .448.115.779.344.994.234.21.611.315 1.132.315.333 0 .595-.07.787-.212a.716.716 0 00.292-.609z" class="S"/>
    <path fill="#F2F1E8" d="M556.424 489.423c0 .816-.151 1.537-.453 2.165a3.37 3.37 0 01-1.292 1.453c-.556.337-1.189.506-1.902.506-.712 0-1.344-.163-1.895-.488a3.392 3.392 0 01-1.292-1.408c-.306-.608-.467-1.307-.483-2.096v-.471c0-.819.15-1.541.448-2.165a3.372 3.372 0 011.293-1.453c.563-.341 1.202-.511 1.918-.511.708 0 1.34.168 1.895.505.555.337.986.817 1.293 1.442.31.62.467 1.332.47 2.136v.385zm-2.05-.35c0-.831-.14-1.461-.419-1.89-.276-.433-.672-.649-1.189-.649-1.011 0-1.545.758-1.602 2.274l-.006.615c0 .819.136 1.449.408 1.89.271.44.675.66 1.211.66.51 0 .902-.216 1.178-.649.276-.433.415-1.055.419-1.867v-.384z" class="O"/>
    <path fill="#F2F1E8" d="M479.265 490.313l.959-5.244h1.999l-1.775 8.363h-2.09l-1.12-4.767-1.097 4.767h-2.085l-1.781-8.363h2.005l.959 5.244 1.149-5.244h1.711l1.166 5.244z" class="W"/>
    <path fill="#000" fill-opacity=".11" fill-rule="evenodd" d="M642.105 485.025c.251 1.845.96 7.381 1.013 11.192.03 2.121-.128 4.877-.28 6.973 11.073-8.805 11.777-15.284 11.777-15.284l4.52-14.812-.1.031c-.204-.296-3.437-4.979-5.893-7.702-1.306-1.447-3.073-3.16-4.602-4.587l-5.795 5.57-.034 18.598-.606.021z" class="Subtract_9" clip-rule="evenodd"/>
    <path fill="#256EA9" fill-rule="evenodd" d="M642.655 473.63c.606-.014 1.242.008 1.909.073a1.5 1.5 0 11-.288 2.986 12.955 12.955 0 00-1.621-.058v-3.001z" class="Vector (Stroke)" clip-rule="evenodd"/>
    <path fill="#256EA9" fill-rule="evenodd" d="M642.695 481.154c.825.079 1.609.834 1.529 1.659-.079.824-.704 1.424-1.529 1.345v-3.004z" class="Vector (Stroke)_2" clip-rule="evenodd"/>
  </g>
</svg>
