<svg xmlns="http://www.w3.org/2000/svg" width="1152" height="700" fill="none" viewBox="0 0 1152 700">
  <g clip-path="url(#clip0)">
    <path fill="#fff" d="M0 0h1152v700H0z"/>
    <path fill="#FFD3D8" d="M235 232c30.084-275.635 394.158-165.185 594.5 26.5 126.48 121.014 77.872 434.61-72.5 345C462.5 427.999 507.842 739.684 307.5 548c-126.479-121.015-91-146.5-72.5-316z" class="Rectangle"/>
    <path fill="#040404" d="M312.012 333.528l-80.302 26.26a8.167 8.167 0 00-5.242 10.248l54.035 169.172a8.168 8.168 0 0010.266 5.295l82.364-26.311a8.167 8.167 0 005.267-10.351L322.303 338.72a8.167 8.167 0 00-10.291-5.192z" class="Vector"/>
    <g class="Group 8">
      <g class="Group 7">
        <path fill="#F0F0F0" d="M667.283 493.791l87.586-59.078 37.352 55.377a6.816 6.816 0 01-1.839 9.462l-76.285 51.455a6.816 6.816 0 01-9.462-1.839l-37.352-55.377z" class="Rectangle_2"/>
        <path fill="#E6E6E6" d="M729.589 492.676L667 493.982l87.869-59.269-19 53.432a6.817 6.817 0 01-6.28 4.531z" class="Vector_2"/>
      </g>
      <g class="Group 7.1">
        <path fill="#F4F3F3" d="M752.137 444.932l104.347-16.527 10.449 65.975a6.815 6.815 0 01-5.665 7.798l-90.884 14.395a6.816 6.816 0 01-7.798-5.666l-10.449-65.975z" class="Rectangle_3"/>
        <path fill="#E6E6E6" d="M809.077 470.254L751.8 444.986l104.684-16.58-39.801 40.396a6.816 6.816 0 01-7.606 1.452z" class="Vector_3"/>
      </g>
      <g class="Group 7.2">
        <path fill="#F0F0F0" d="M675.501 421.396L775.394 387l21.747 63.158a6.816 6.816 0 01-4.226 8.663l-87.003 29.958a6.817 6.817 0 01-8.664-4.226l-21.747-63.157z" class="Rectangle_4"/>
        <path fill="#E6E6E6" d="M735.973 436.445l-60.794-14.938L775.394 387l-32.182 46.694a6.817 6.817 0 01-7.239 2.751z" class="Vector_4"/>
      </g>
      <path fill="#FFEAEA" d="M501.529 149.178l286.606 104.316-125.863 345.807-286.606-104.316z" class="Rectangle_5"/>
      <path fill="#FFF2F2" d="M487.466 153.243l291.673 89.173-107.593 351.92-291.673-89.173z" class="Rectangle_6"/>
    </g>
    <path fill="#355095" fill-rule="evenodd" d="M772.445 240.371l-291.673-89.174-95.84 313.477-47.741-156.154c-1.776-5.81-7.926-9.08-13.735-7.304l-88.937 27.191c-5.809 1.776-9.079 7.926-7.303 13.735l57.012 186.48c1.777 5.809 7.926 9.079 13.736 7.303l88.936-27.19a11.101 11.101 0 001.975-.819l275.977 84.375 107.593-351.92z" class="Union" clip-rule="evenodd"/>
    <path fill="#000" fill-opacity=".06" d="M480.772 151.197l27.733 8.479-107.593 351.92L385 465l95.772-313.803z" class="Rectangle 2"/>
    <g class="Group 2">
      <path fill="#fff" d="M536.248 297.992l131.636 76-49 84.87-131.636-76z" class="Rectangle 3"/>
      <g class="Group">
        <rect width="112" height="5" x="539.068" y="333.107" fill="#C4C4C4" class="Rectangle 4" rx="2.5" transform="rotate(30 539.068 333.107)"/>
        <rect width="112" height="4" x="534.068" y="341.767" fill="#C4C4C4" class="Rectangle 4.1" rx="2" transform="rotate(30 534.068 341.767)"/>
        <rect width="90" height="4" x="529.068" y="350.427" fill="#C4C4C4" class="Rectangle 4.2" rx="2" transform="rotate(30 529.068 350.427)"/>
      </g>
    </g>
    <path fill="#fff" fill-opacity=".17" d="M228.97 347.88l109.975-33.623 52.627 172.135-109.975 33.623z" class="Rectangle 2.1"/>
    <circle cx="339.362" cy="512.288" r="4.5" fill="#fff" class="Ellipse" transform="rotate(-17 339.362 512.288)"/>
    <path fill="#FAA" d="M342.419 511.354a.284.284 0 00.189-.375 3.504 3.504 0 00-3.268-2.191 3.5 3.5 0 00-3.24 2.232.284.284 0 00.193.372.33.33 0 00.391-.201 2.894 2.894 0 015.342-.033.329.329 0 00.393.196z" class="Ellipse_2"/>
    <circle cx="281.141" cy="323.564" r="3" fill="#fff" class="Ellipse_3" transform="rotate(-17 281.141 323.564)"/>
    <g class="Group 5">
      <rect width="102" height="39" x="242.895" y="372.902" fill="#fff" class="Rectangle 3_2" rx="7" transform="rotate(-17 242.895 372.902)"/>
      <g class="Group 4">
        <path stroke="#000" stroke-linecap="round" stroke-opacity=".22" stroke-width="2" d="M255.01 381.747l28.211-8.625" class="Vector_5"/>
        <path stroke="#000" stroke-opacity=".22" d="M256.472 386.528l65.507-20.027" class="Vector_6"/>
        <path stroke="#000" stroke-opacity=".22" d="M257.934 391.31l65.506-20.028" class="Vector_7"/>
        <path stroke="#000" stroke-opacity=".22" d="M259.396 396.091l65.506-20.027" class="Vector_8"/>
      </g>
    </g>
    <g class="Group 10">
      <path fill="#42368C" fill-rule="evenodd" d="M385.489 296c27.614 0 50-22.386 50-50s-22.386-50-50-50-50 22.386-50 50c0 1.545.07 3.074.207 4.584a3.98 3.98 0 00-1.59-.131l-20.579 2.453a4 4 0 00-3.49 4.511l.464 3.416a4 4 0 004.7 3.393l20.447-3.829a4 4 0 001.72-.773c5.931 20.993 25.23 36.376 48.121 36.376z" class="Union_2" clip-rule="evenodd"/>
      <circle cx="385.989" cy="246.5" r="44.5" fill="#FFBFBF" class="Ellipse_4"/>
      <path fill="#fff" d="M423.935 246.5a.547.547 0 00.55-.554 40.496 40.496 0 00-35.724-39.664 40.49 40.49 0 00-18.752 2.208.548.548 0 00-.321.712c.11.286.43.428.718.323a39.386 39.386 0 0135.901 4.516 39.394 39.394 0 0117.07 31.905.56.56 0 00.558.554z" class="Ellipse_5"/>
      <path fill="#fff" d="M356.115 233.041a.702.702 0 00-.943.343 31.002 31.002 0 0011.872 38.894.701.701 0 00.974-.242.727.727 0 00-.245-.985 29.578 29.578 0 01-11.31-37.056.727.727 0 00-.348-.954z" class="Ellipse_6"/>
      <path fill="#fff" d="M407.244 247c.135 0 .245-.11.244-.245a24 24 0 00-28.959-23.237.244.244 0 00-.187.292c.029.132.16.215.293.187a23.504 23.504 0 0128.363 22.758.247.247 0 00.246.245z" class="Ellipse_7"/>
      <path fill="#fff" d="M373.557 268.579a.243.243 0 00.12.324c.464.207.934.4 1.41.578a.243.243 0 00.314-.146.247.247 0 00-.147-.315c-.463-.173-.92-.361-1.371-.563a.248.248 0 00-.326.122z" class="Ellipse_8"/>
    </g>
    <g class="Group 9">
      <path stroke="#fff" stroke-width="2" d="M238 281v9a2 2 0 002 2h6a2 2 0 012 2v6.5a2 2 0 002 2h7.5a2 2 0 012 2v4.5a2 2 0 002 2h7.5" class="Vector 2"/>
      <path stroke="#fff" stroke-width="2" d="M292.847 266l4.5 7.794a2 2 0 01-.732 2.732l-5.197 3a2.001 2.001 0 00-.732 2.732l3.25 5.629a2 2 0 01-.732 2.733l-6.495 3.75a2 2 0 00-.732 2.732l2.25 3.897a2 2 0 01-.732 2.732l-6.495 3.75" class="Vector 2.1"/>
    </g>
  </g>
  <defs>
    <clipPath id="clip0" class="clip0">
      <path fill="#fff" d="M0 0h1152v700H0z"/>
    </clipPath>
  </defs>
</svg>
