<svg xmlns="http://www.w3.org/2000/svg" width="1155" height="700" fill="none" viewBox="0 0 1155 700">
  <g class="payment">
    <path fill="#fff" d="M0 0h1155v700H0z"/>
    <g class="Group 4">
      <g class="Group 3">
        <path fill="#4D66EB" d="M582.825 281.103V71.82c0-4.593 4.159-8.064 8.677-7.242l135.066 24.557a7.36 7.36 0 016.044 7.242v211.939c0 4.649-4.256 8.133-8.814 7.215l-135.066-27.212a7.36 7.36 0 01-5.907-7.216z" class="Vector"/>
        <path fill="#3650DA" d="M575.464 289.936V80.652c0-4.592 4.16-8.063 8.678-7.242l135.066 24.558a7.36 7.36 0 016.044 7.242v211.938c0 4.649-4.257 8.134-8.815 7.216l-135.066-27.212a7.362 7.362 0 01-5.907-7.216z" class="Vector_2"/>
        <path fill="#F4F6F6" d="M589.818 119.604a3.68 3.68 0 014.285-3.63l36.803 6.134a3.68 3.68 0 013.075 3.63v38.138a3.68 3.68 0 01-4.315 3.625l-36.803-6.441a3.68 3.68 0 01-3.045-3.625v-37.831z" class="Rectangle"/>
        <path fill="#F4F6F6" d="M662.319 188.794a3.68 3.68 0 014.285-3.631l36.803 6.134a3.68 3.68 0 013.075 3.63v38.138a3.68 3.68 0 01-4.314 3.625l-36.803-6.44a3.682 3.682 0 01-3.046-3.626v-37.83z" class="Rectangle_2"/>
        <path fill="#fff" fill-opacity=".4" d="M589.45 180.608c0-2.227 2-3.922 4.197-3.556l37.21 6.202a3.298 3.298 0 01-1.032 6.515l-37.305-5.595a3.605 3.605 0 01-3.07-3.566z" class="Rectangle_3"/>
        <path fill="#fff" fill-opacity=".4" d="M589.45 190.913c0-2.228 2-3.922 4.197-3.556l37.21 6.202a3.298 3.298 0 01-1.032 6.515l-37.305-5.596a3.603 3.603 0 01-3.07-3.565z" class="Rectangle_4"/>
        <path fill="#fff" fill-opacity=".4" d="M589.45 201.218c0-2.228 2-3.923 4.197-3.556l37.21 6.201a3.299 3.299 0 01-1.032 6.516l-37.305-5.596a3.605 3.605 0 01-3.07-3.565z" class="Rectangle_5"/>
        <path fill="#fff" fill-opacity=".4" d="M589.45 211.523c0-2.228 2-3.923 4.197-3.557l37.21 6.202a3.299 3.299 0 01-1.032 6.516l-37.305-5.596a3.605 3.605 0 01-3.07-3.565z" class="Rectangle_6"/>
        <path fill="#fff" d="M589.818 261.004a3.68 3.68 0 014.347-3.62l120.345 22.197a3.68 3.68 0 013.013 3.619v20.828a3.68 3.68 0 01-4.368 3.616l-120.345-22.89a3.68 3.68 0 01-2.992-3.616v-20.134z" class="Rectangle_7"/>
        <g class="PAY">
          <path fill="#3650DA" d="M638.607 272.199l3.415.603c.924.162 1.62.36 2.089.592.474.233.81.508 1.009.826.204.318.314.681.331 1.088.023.403-.037 1.012-.181 1.829l-.201 1.135c-.146.833-.339 1.424-.578 1.775-.239.351-.608.588-1.106.711-.492.123-1.109.12-1.85-.011l-.91-.16-.926 5.252-3.392-.598 2.3-13.042zm2.998 2.83l-.585 3.318c.095.023.178.04.248.052.311.055.54.018.684-.111.151-.134.269-.443.354-.926l.189-1.072c.079-.445.06-.748-.056-.907-.116-.158-.394-.277-.834-.354zM652.744 274.692l-.358 13.384-3.472-.612.244-2.374-1.216-.215-.615 2.309-3.512-.619 4.023-12.738 4.906.865zm-3.275 8.069c.089-1.507.238-3.361.449-5.561-.783 2.432-1.319 4.217-1.609 5.356l1.16.205zM662.491 276.411l-3.94 7.885-.833 4.72-3.141-.554.832-4.72-.917-8.742 3.117.55c.041 2.626.014 4.385-.083 5.276.433-1.358 1.049-3.013 1.848-4.965l3.117.55z"/>
        </g>
      </g>
      <g class="Group 2">
        <path fill="#FFB5B5" d="M510.425 295.313v15.218c5.411 3.382 16.909 1.409 21.982 0v-15.218h-21.982z" class="Vector 6"/>
        <path fill="#FFB5B5" d="M676.239 303.322c-8.799-2.986 0 24.118 0 24.118l13.628 5.918s17.65-15.726 11.837-21.131c-3.226-3-11.837-6.764-11.837-6.764s-1.549-16.386-3.259-16.494c-6.764-.43-5.195 21.567-5.195 21.567s-1.409-5.937-5.174-7.214z" class="Vector 5"/>
        <path fill="#CD3F3E" fill-rule="evenodd" d="M550.269 317.024c16.36 9.352 39.065 22.331 62.454 53.768l58.483-51.026 26.208 13.527s-56.792 69.103-84.691 70.471c-3.958.194-9.3-2.536-9.3-2.536l-47.345-33.207c1.826 15.799 1.999 25.874 2.162 35.416.211 12.256.406 23.633 4.069 45.135h.643l13.211 163.991c9.108 1.96 20.496 7.473 20.496 22.793 0 3.404-60.871 0-60.871 0v-20.238L515.023 513.67l3.011 101.452h-.248c6.726 2.453 12.929 7.862 12.929 19.475 0 4.227-55.799 2.536-55.799 2.536v-23.672h.779l-6.571-161.825-1.124.017V350.501c0-21.981 19.445-51.271 73.553-38.589 2.642 1.64 5.561 3.309 8.716 5.112z" class="Union" clip-rule="evenodd"/>
        <g class="Group">
          <path fill="#000" fill-opacity=".09" d="M535.788 635.356v-23.827h29.25s31.621-1.702 31.621 23.827c0 3.404-60.871 0-60.871 0z" class="Vector 4.2"/>
          <path fill="#000" fill-opacity=".09" d="M474.917 637.133V613.46h26.208s29.59-4.227 29.59 21.136c0 4.227-55.798 2.537-55.798 2.537z" class="Vector 4.3"/>
        </g>
        <path fill="#000" fill-opacity=".21" d="M575.522 614.042h-40.58L514.177 512.59l3.01 101.452h-42.271l-6.764-166.551h94.43l12.94 166.551z" class="Vector 3.1"/>
        <path fill="#FFCACA" d="M540.86 277.559c0 14.008 4.227 28.745-6.763 26.209-11.673 0-30.436-2.901-30.436-16.909 0-14.007 1.009-29.59 12.682-29.59s24.517 6.283 24.517 20.29z" class="Ellipse"/>
        <path fill="#FFECA7" d="M534.942 287.704c3.382-2.029 3.664-16.063 3.382-22.826-4.734-19.614-22.827-10.709-32.972-4.227-10.145 6.481-13.527 33.817-13.527 33.817s-10.628 17.249-8.454 34.663c1.527 12.232-2.679 27.679 8.454 32.972 14.075 6.69 29.569-2.761 33.818-17.755 1.89-6.67.269-10.825 0-17.754-.4-10.275 5.072-24.517 5.072-24.517 2.537-3.382.846-12.344 4.227-14.373z" class="Vector 7"/>
      </g>
    </g>
  </g>
</svg>
