<svg xmlns="http://www.w3.org/2000/svg" width="800" height="600" fill="none" viewBox="0 0 800 600">
  <g class="person_at_computer_men">
    <path fill="#fff" d="M0 0h800v600H0z"/>
    <path fill="#FFFCDD" fill-opacity=".62" d="M613.1 333.261l51.11-86.207h19.002l19.446 86.207H613.1z" class="Vector 6"/>
    <path fill="#8FBCFF" d="M518.495 269.532h39.375v58.874h-39.375z" class="Rectangle 2"/>
    <path fill="#EAF2FF" d="M551.509 268.495h6.362v56.914h-6.362z" class="Rectangle 2.2"/>
    <path fill="#8FBCFF" d="M466.274 325.409h129.058v7.772H466.274z" class="Rectangle 2.1"/>
    <rect width="207.368" height="127.677" x="429.654" y="141.855" fill="#8FBCFF" class="Rectangle" rx="17.367"/>
    <path fill="#fff" fill-opacity=".9" d="M453.594 153.791H613.41v110.205H453.594z" class="Rectangle 6"/>
    <path fill="#EAF2FF" d="M586.069 325.409h9.262v10.039h-9.262z" class="Rectangle 2.3"/>
    <path fill="#DBEAFF" fill-rule="evenodd" d="M97.986 37.205H59.463v12.812h38.523V340.44a7.227 7.227 0 007.227 7.227c3.314 0 6.072-2.347 7.725-5.219 2.583-4.489 6.734-7.4 11.416-7.4 3.761 0 7.181 1.88 9.72 4.948 3.232 3.905 10.101 7.671 15.169 7.671h6.954c5.068 0 11.938-3.766 15.169-7.671 2.539-3.068 5.959-4.948 9.72-4.948 3.762 0 7.182 1.88 9.721 4.948 3.231 3.905 10.1 7.671 15.169 7.671h6.954c5.069 0 11.938-3.766 15.17-7.671 2.538-3.068 5.958-4.948 9.72-4.948 3.762 0 7.181 1.88 9.72 4.948 3.232 3.905 10.101 7.671 15.17 7.671h6.953c5.069 0 11.938-3.766 15.17-7.671 2.539-3.068 5.958-4.948 9.72-4.948 4.682 0 8.834 2.911 11.417 7.4 1.652 2.873 4.41 5.219 7.724 5.219a7.226 7.226 0 007.226-7.227V50.017h74.904V340.44a7.227 7.227 0 007.227 7.227c3.314 0 6.071-2.347 7.724-5.219 2.583-4.489 6.735-7.4 11.416-7.4 3.762 0 7.182 1.88 9.721 4.948 3.231 3.905 10.1 7.671 15.169 7.671h6.953c5.069 0 11.938-3.766 15.17-7.671 2.538-3.068 5.958-4.948 9.72-4.948 3.762 0 7.182 1.88 9.72 4.948 3.232 3.905 10.101 7.671 15.17 7.671v-14.485h-37.539v-7.773h37.539v-55.877h-56.792c-9.592 0-17.367-7.776-17.367-17.367v-92.943c0-9.591 7.775-17.367 17.367-17.367h56.792V50.017h36.023V37.205H97.986zM28.368 492.234H778.23v77.383H28.368v-77.383zm707.125-264.253h-62.25v.086h-14.53v13.702h-.815v5.294h29.653v-4.556h36.08l-20.17 76.887h-14.268v-7.474h-4.478v7.474H673.01a6.894 6.894 0 000 13.788h55.589a6.894 6.894 0 100-13.788h-15.88l19.977-76.887h2.797v-14.526zm-283.13-80.003c-9.591 0-17.367 7.775-17.367 17.367v81.283c0 9.592 7.776 17.368 17.367 17.368h1.231V153.791h159.815v110.205h.507c9.592 0 17.367-7.776 17.367-17.368v-81.283c0-9.592-7.775-17.367-17.367-17.367H452.363zm12.67 16.495a4.488 4.488 0 014.488-4.488h127.088a4.488 4.488 0 110 8.975H469.521a4.487 4.487 0 01-4.488-4.487zm81.712 24.484a4.487 4.487 0 014.487-4.487h42.683a4.487 4.487 0 010 8.975h-42.683a4.487 4.487 0 01-4.487-4.488zm0 14.907a4.487 4.487 0 014.487-4.488h42.683a4.487 4.487 0 010 8.975h-42.683a4.487 4.487 0 01-4.487-4.487zm9.466 20.642a4.488 4.488 0 100-8.975 4.488 4.488 0 000 8.975zm20.85-4.488a4.487 4.487 0 11-8.975.001 4.487 4.487 0 018.975-.001zm11.875 4.488a4.487 4.487 0 100-8.975 4.487 4.487 0 000 8.975zm-119.112-44.201a6.947 6.947 0 00-6.947 6.947v76.744h76.481v-76.744a6.947 6.947 0 00-6.947-6.947h-62.587zm83.135 53.77h2.293v-2.39h-2.293v2.39zm9.68 0h-2.293v-2.39h2.293v2.39zm5.095 0h2.292v-2.39h-2.292v2.39zm9.68 0h-2.293v-2.39h2.293v2.39zm5.094 0h2.293v-2.39h-2.293v2.39zm9.68 0h-2.292v-2.39h2.292v2.39zm-39.229 6.083h2.293v-2.39h-2.293v2.39zm9.68 0h-2.293v-2.39h2.293v2.39zm5.095 0h2.292v-2.39h-2.292v2.39zm9.68 0h-2.293v-2.39h2.293v2.39zm5.094 0h2.293v-2.39h-2.293v2.39zm9.68 0h-2.292v-2.39h2.292v2.39zm-39.229 6.002h2.293v-2.389h-2.293v2.389zm9.68 0h-2.293v-2.389h2.293v2.389zm5.095 0h2.292v-2.389h-2.292v2.389zm9.68 0h-2.293v-2.389h2.293v2.389zm5.094 0h2.293v-2.389h-2.293v2.389zm9.68 0h-2.292v-2.389h2.292v2.389zm39.113 23.079h-8.452c8.066-1.499 14.174-8.574 14.174-17.074v-92.943c0-8.5-6.107-15.574-14.173-17.074h8.451c9.592 0 17.367 7.776 17.367 17.368v92.356c0 9.591-7.775 17.367-17.367 17.367z" class="Primary" clip-rule="evenodd"/>
    <path fill="#F3D483" fill-rule="evenodd" d="M170.635 427.058c0 .14.002.279.005.418a18.5 18.5 0 00-.005.408c0 8.934 7.243 16.176 16.177 16.176h2.315v106.593h20.722V444.06h34.969v106.593h37.813V444.06H317.6v106.593h20.722v-108.74c5.205-2.907 8.725-8.47 8.725-14.855 0-9.39-7.612-17.002-17.002-17.002h-58.801l-31.987-144.665c-2.33-10.535-11.669-18.035-22.458-18.035h-61.07a16.935 16.935 0 00-10.916-.718c-9.07 2.431-14.453 11.754-12.022 20.824l40.372 150.672a16.92 16.92 0 00-2.528 8.924zm160.886-79.391c0-8 6.485-14.485 14.485-14.485h400.655c8 0 14.485 6.485 14.485 14.485 0 7.882-6.295 14.293-14.131 14.481v19.019H730.44v167.35h-29.351v-167.35H651.56v167.35h-29.35v-167.35h-18.279v-19.015h-94.88v19.015h-16.575v155.027h-29.351V381.167h-49.529v155.027h-29.35V381.167h-18.279v-19.015h-19.961c-8 0-14.485-6.485-14.485-14.485z" class="Secondary" clip-rule="evenodd"/>
    <path fill="#8FBCFF" d="M353.457 325.409h130.265v7.772H353.457z" class="Rectangle 5"/>
    <path fill="#EAF2FF" d="M454.07 325.409h29.651v7.772H454.07z" class="Rectangle 5.1"/>
    <path fill="#000" fill-opacity=".18" fill-rule="evenodd" d="M346.045 333.182c-8 0-14.485 6.485-14.485 14.485 0 8 6.485 14.485 14.485 14.485h19.961v19.015h30.954v-19.015h207.009v19.015h18.279v167.35h13.127v-186.41c7.46-.588 13.331-6.828 13.331-14.44 0-8-6.485-14.485-14.485-14.485H346.045zm368.209 47.985v167.35h-13.127l.001-167.35h13.126zM396.96 536.194V381.167h-13.127v155.027h13.127zm78.879-155.027v155.027h-13.127V381.167h13.127z" class="Union" clip-rule="evenodd"/>
    <path stroke="#D69962" stroke-linecap="round" stroke-width="12" d="M349.854 486.598l2.655 48.646" class="Vector 3.1"/>
    <path fill="#FFB877" d="M251.331 186.93l47.351 4.318s-.027 29.92-.892 52.243c-23.18 8.186-50.496-22.085-50.496-22.085l4.037-34.476z" class="Union_2"/>
    <path stroke="#FFB877" stroke-linecap="round" stroke-width="13" d="M396.533 494.256l16.046 44.491" class="Vector 3"/>
    <path fill="#FFB877" d="M242.984 260.905c5.05-9.426 13.832-32.09 12.464-39.98l14.308 8.416c3.577 2.911 10.078 9.322 7.469 11.678-2.609 2.357 3.037 21.856 4.335 25.538l-14.014-2.603c-6.873 1.403-29.612 6.377-24.562-3.049z" class="Vector 2"/>
    <path stroke="#D69962" stroke-linecap="round" stroke-width="23" d="M281.56 309.702l28.401 33.25 55.291-24.853" class="Vector 2.1"/>
    <path stroke="#FFB877" stroke-linecap="round" stroke-width="24" d="M297.646 302.975l28.401 33.251 51.954-23.553" class="Vector 2_2"/>
    <path fill="#32B394" d="M301.945 319.175l-17.827 18.56-8.792-24.177 7.571-15.874 19.048 21.491z" class="Vector"/>
    <path fill="#FFB877" d="M412.285 307.604c-12.081-8.295-25.705-11.451-38.63-6.139-8.651 3.556-3.282 13.924-.549 23.944h20.095c-3.005-2.404-3.511-6.758 4.963-6.217 2.058.132 8.035 4.264 9.613 6.217h19.158c.15-2.479-2.57-9.511-14.65-17.805z" class="Vector 2_3"/>
    <path fill="#000" fill-opacity=".44" fill-rule="evenodd" d="M173.365 418.888l-40.574-151.426c-2.431-9.07 2.952-18.393 12.022-20.824 9.07-2.43 18.393 2.953 20.823 12.023l41.009 153.046h80.096c8.934 0 16.177 7.243 16.177 16.177s-7.243 16.176-16.177 16.176h-15.564v106.593h-9.268V444.06h-7.823v106.593h-9.268V444.06h-46.423v106.593h-9.268V444.06h-2.315c-8.934 0-16.177-7.242-16.177-16.176 0-3.329 1.006-6.424 2.73-8.996zm153.503 131.765V444.06H317.6v106.593h9.268zM196.44 289.899l4.3 6.6 6.6 3.7-5.6 3.5-2.3 6.6-4.3-6.6-6.6-3.7 5.5-3.5 2.4-6.6zm33.8.4l3.8 5.9 5.8 3.2-4.9 3.1-2.1 5.9-3.8-5.9-5.8-3.2 4.9-3.2 2.1-5.8zm-16.7 52.7l-4.3-6.6-2.3 6.6-5.6 3.6 6.6 3.6 4.3 6.6 2.4-6.5 5.5-3.6-6.6-3.7zm29.5-6.2l3.8 5.9 5.9 3.2-5 3.2-2.1 5.8-3.7-5.9-5.9-3.2 4.9-3.1 2.1-5.9zm-16.6 52.8l-4.3-6.7-2.4 6.6-5.6 3.6 6.7 3.6 4.3 6.7 2.3-6.6 5.6-3.6-6.6-3.6zm29.5-6.2l3.8 5.8 5.8 3.3-4.9 3.1-2.1 5.8-3.8-5.8-5.9-3.3 5-3.1 2.1-5.8z" class="Union_3" clip-rule="evenodd"/>
    <path stroke="#4F4F4F" stroke-linecap="round" stroke-width="2" d="M298.062 210.575c.968 5.487 6.27 7.736 5.625 9.212-.645 1.477-4.808 2.961-4.808 2.961" class="Vector 2_4"/>
    <path fill="#174B88" d="M267.291 238.619s7.12 2.673 9.552 3.697c-.682 1.878 1.788 13.129 2.272 15.889 0 0-9.534-14.778-11.824-19.586z" class="Vector_2"/>
    <path stroke="#4F4F4F" stroke-width="2" d="M291.604 228.068c.29 1.341 2.242 4.34 6.547 4.441" class="Vector 5"/>
    <path fill="#2A71C4" d="M280.993 198.084l-11.748-1.439c-2.377 2.657-.592 9.973 1.431 14.902l-8.437 1.131c-1.049-5.245-5.97-10.215-9.991-5.494-4.022 4.72 6.533 13.581 8.456 19.875 1.923 6.294-5.309 8.157-8.456 8.856-3.147.7-18.008 5.189-17.134-4.601.874-9.791 1.923-27.394 0-40.157-1.539-10.21 6.236-9.732 10.315-8.217-.197-.206.032-.859.572-1.828 2.91-13.277 10.504-35.212 17.685-36.307 3.583-.547 6.13 2.714 7.879 7.205 8.953-6.548 18.664-8.974 26.954 1.298 1.15 1.426 1.963 3.341 2.514 5.572 1.826-.265 3.633.23 5.335 1.787 7.719 7.065-2.853 26.918-7.849 34.953 0 0-6.745 3.28-17.526 2.464z" class="Vector 4"/>
    <path stroke="#222" stroke-linecap="round" stroke-opacity=".29" stroke-width="2" d="M298.062 210.575c.968 5.487 6.27 7.736 5.625 9.212-.645 1.477-4.808 2.961-4.808 2.961" class="Vector 2.1_2"/>
    <path fill="#000" fill-opacity=".2" d="M267.291 238.619s7.12 2.673 9.552 3.697c-.682 1.878 1.788 13.129 2.272 15.889 0 0-9.534-14.778-11.824-19.586z" class="Vector_3"/>
    <path stroke="#222" stroke-opacity=".29" stroke-width="2" d="M291.604 228.068c.29 1.341 2.242 4.34 6.547 4.441" class="Vector 5.1"/>
    <path fill="#43FDD0" d="M218.078 384.454c-.885-13.548-25.333-75.808 11.615-122.323 8.854-11.145 38.01-4.288 64.989 11.324 30.021 33.649 33.312 39.582 33.312 39.582l-26.465 20.311-15.468-18.306 3.934 57.073-71.917 12.339z" class="Vector 2_5"/>
    <path fill="#2A71C4" fill-rule="evenodd" d="M269.246 196.645l11.747 1.439c10.782.816 17.526-2.464 17.526-2.464 4.997-8.035 15.569-27.888 7.85-34.953-1.702-1.557-3.509-2.052-5.335-1.787-.551-2.231-1.364-4.146-2.515-5.572-8.289-10.272-18-7.846-26.953-1.298-1.75-4.491-4.297-7.752-7.879-7.205-7.182 1.095-14.775 23.03-17.685 36.307-.54.969-.769 1.622-.572 1.828-4.08-1.515-11.854-1.993-10.316 8.217 1.924 12.763.875 30.366 0 40.157-.803 9.001 11.693 5.932 16.159 4.835l.002-.001c.391-.096.72-.177.973-.233 3.147-.699 10.38-2.562 8.456-8.856-.71-2.323-2.596-4.997-4.491-7.682-3.238-4.59-6.501-9.216-3.965-12.193 4.022-4.721 8.943.249 9.992 5.494l8.436-1.131c-2.023-4.929-3.808-12.245-1.43-14.902zM289.974 371.8l.021.315-66.239 11.365.3 8.364c.411 11.431 9.797 20.486 21.236 20.486 21.047 0 45.908.027 66.931 1.631 4.611.352 8.899.771 12.814 1.259 4.257 14.012 11.334 43.221 10.019 63.38-1.731 26.541 13.847 27.407 18.752 26.83l.227-.027c4.626-.536 16.89-1.956 15.874-29.646 3.265 9.812 6.134 19.527 8.288 28.14 2.746 10.984 13.876 17.662 24.86 14.916 10.983-2.746 17.661-13.876 14.915-24.86-4.391-17.565-11.239-38.556-18.553-56.949-3.663-9.211-7.545-18.031-11.415-25.593-3.68-7.191-8.017-14.589-12.849-19.957-4.202-4.669-9.372-7.563-13.623-9.434-4.439-1.954-9.277-3.393-14.045-4.503-9.521-2.216-20.745-3.567-32.144-4.437-8.14-.621-16.737-1.022-25.369-1.28zM403.3 533.641s8.792 7.454 14.226 0c7.697 3.589 17.2 6.367 25.405 8.766 10.297 3.01 18.547 5.421 18.61 8.086.113 4.787-46.392 3.768-57.297 2.862-4.567-4.981-.944-19.714-.944-19.714zm-57.054.173s7.431 4.075 12.348-2.033c6.395 3.363 14.641 6.204 21.827 8.681 9.007 3.104 16.349 5.634 16.294 7.897-.099 4.07-40.444 2.265-49.667 1.052-3.675-4.415-.802-15.597-.802-15.597z" class="Subtract" clip-rule="evenodd"/>
    <path fill="#000" fill-opacity=".19" d="M346.246 533.82s7.43 4.075 12.348-2.033c14.409 7.577 38.219 12.508 38.12 16.578-.099 4.07-40.443 2.264-49.667 1.052-3.675-4.416-.801-15.597-.801-15.597z" class="Rectangle 7.2"/>
    <path fill="#000" fill-opacity=".21" fill-rule="evenodd" d="M678.834 228.067h-20.121v13.702h-.815v5.294h20.936V228.067zm-5.823 91.327h30.45a6.895 6.895 0 000 13.788H673.01a6.894 6.894 0 01.001-13.788zm35.745 0l20.169-76.888h-5.295l-20.169 76.888h5.295zm-24.041-7.474h4.478v7.474h-4.478v-7.474z" class="Subtract_2" clip-rule="evenodd"/>
    <path fill="#000" fill-opacity=".06" d="M59.463 37.205h480.373v12.812H59.463z" class="Rectangle 2.1_2"/>
    <path fill="#000" fill-opacity=".04" fill-rule="evenodd" d="M622.744 269.239h8.452c9.592 0 17.368-7.776 17.368-17.367v-92.356c0-9.592-7.776-17.368-17.368-17.368h-8.451c8.066 1.5 14.173 8.574 14.173 17.074v92.943c0 8.5-6.108 15.575-14.174 17.074z" class="Subtract_3" clip-rule="evenodd"/>
    <path fill="#000" fill-opacity=".19" fill-rule="evenodd" d="M0 415.178c13.813 2.843 17.074 2.48 24.247 4.721 1.775.993 15.207 28.139 19.984 46.008 4.547 37.224-9.94 38.902-15.062 39.496l-.227.026c-4.905.577-20.483-.288-18.752-26.829 1.322-20.274-5.94-49.504-10.19-63.422z" class="Subtract_4" clip-rule="evenodd"/>
  </g>
</svg>
