<svg xmlns="http://www.w3.org/2000/svg" width="1155" height="700" fill="none" viewBox="0 0 1155 700">
  <g class="pet_walk">
    <path fill="#fff" d="M0 0h1155v700H0z"/>
    <path stroke="#083372" stroke-width="3" d="M137 572h848" class="Vector"/>
    <g class="Group 17">
      <g class="Group 14.1">
        <g class="city">
          <path fill="#849EFA" fill-opacity=".11" fill-rule="evenodd" d="M608.014 179.729c53.361 0 97.602 36.278 105.707 83.735 81.665 3.79 146.712 71.2 146.712 153.802v18.888h16.026c37.302 0 67.541 30.239 67.541 67.541v67.541H557.072v1.144H169v-92.152c0-50.895 41.258-92.153 92.153-92.153h86.397c12.649-71.397 77.01-126.605 156.16-131.321 10.941-44.124 53.487-77.025 104.304-77.025z" class="Union" clip-rule="evenodd"/>
          <g class="Group 12">
            <g class="Vector_2">
              <path fill="#1271F9" d="M519.078 387.395h-58.283v182.828h58.283V387.395z"/>
              <path fill="#1271F9" d="M460.795 318.565h-40.069v251.658h40.069V318.565zM420.726 443.318h-40.07v126.905h40.07V443.318zM546.398 346.527h-27.32v223.696h27.32V346.527zM622.894 475.582h-76.496v94.641h76.496v-94.641z"/>
            </g>
            <g class="Vector_3">
              <path fill="#0457CC" d="M570.814 350.185h69.707V568.85h-69.707V350.185zM640.521 267.864h47.923V568.85h-47.923V267.864zM688.444 417.071h47.924V568.85h-47.924V417.071z"/>
              <path fill="#0457CC" d="M538.138 301.307h32.676V568.85h-32.676V301.307zM446.648 455.659h91.49V568.85h-91.49V455.659z"/>
            </g>
            <g class="Vector_4">
              <path fill="#02419C" d="M708.222 343.158h84.951V568.81h-84.951V343.158zM793.173 258.207h58.405V568.81h-58.405V258.207zM851.578 412.181h58.404V568.81h-58.404V412.181zM668.401 292.718h39.821V568.81h-39.821V292.718z"/>
              <path fill="#02419C" d="M556.902 452.002h111.499V568.81H556.902V452.002z"/>
            </g>
          </g>
          <path fill="#0457CC" d="M583.46 318.15h19.315v53.115H583.46z" class="Rectangle"/>
          <path fill="#02419C" d="M792.702 216.749h19.315v53.115h-19.315z" class="Rectangle_2"/>
          <path fill="#0457CC" d="M551.269 260.207h19.315v53.115h-19.315z" class="Rectangle_3"/>
          <path fill="#02419C" d="M688.5 261l20.352 32.158h-40.704L688.5 261z" class="Polygon"/>
          <path fill="#000" fill-opacity=".12" d="M677 290.5l10-14.5 10.5 14.5H677z" class="Vector_5"/>
        </g>
        <path fill="#034AB0" d="M380.01 525.582c-22.745-.517-22.745 34.118 0 44.974h526.77c0-5.859 25.33-26.364 4.135-36.186-13.508-6.26-6.548-21.712-9.822-23.263-7.409 9.477-25.847 21.505-40.321-6.203-18.094-34.636-9.822 16.542-28.433 34.635-18.61 18.093-13.298-36.071-31.533-34.635-9.093.716-11.663 12.238-20.678 10.855-9.173-1.406-7.282-16.459-16.543-17.059-11.326-.733-8.748 29.189-18.093 22.746-3.876-2.673-2.311-7.689-6.203-10.339-8.564-5.829-10.649 6.617-22.229 14.475-14.474 9.822 1.034 6.72-9.305-20.679-10.339-27.398-21.319 10.856-32.095 16.543-29.179 15.397-17.532-1.551-37.176-16.542-19.644-14.992-29.983 4.652-59.966 20.678-29.983 16.025-1.551-26.882-14.474-37.221-12.924-10.339-42.39-4.135-72.89 16.543-30.5 20.677-7.237-11.89-19.127-20.678-11.823-8.739-22.624-.098-40.536 14.232l-.303.242c-14.474 11.58-6.598-13.108-14.474-14.474-13.269-2.302-13.958 12.096-13.958 31.533 0 24.297 0 10.339-22.746 9.823z" class="Vector 24.2"/>
        <path fill="#013581" d="M408.992 530.557c-19.989-.454-19.989 29.985 0 39.525h462.943c0-5.148 22.261-23.17 3.634-31.801-11.871-5.502-5.755-19.081-8.632-20.444-6.512 8.329-22.715 18.899-35.436-5.452-15.901-30.439-8.632 14.538-24.987 30.439-16.355 15.901-11.687-31.701-27.713-30.439-7.991.629-10.25 10.756-18.173 9.54-8.061-1.236-6.399-14.465-14.537-14.992-9.955-.645-7.689 25.652-15.901 19.99-3.407-2.349-2.031-6.758-5.452-9.086-7.526-5.123-9.359 5.815-19.535 12.72-12.721 8.632.908 5.906-8.178-18.172-9.086-24.079-18.736 9.54-28.207 14.538-25.643 13.531-15.407-1.363-32.671-14.538-17.263-13.175-36.297 7.659-62.647 21.743s-34.447-18.412-34.447-30.93c0-14.698-18.553-8.985-32.384 9.187-19.613 25.769-9.22-1.463-19.669-9.187-10.449-7.723-16.099-3.534-32 9.187-12.721 10.176-6.83-16.972-13.752-18.172-11.661-2.023-12.266 10.63-12.266 27.712 0 21.353 0 9.087-19.99 8.632z" class="Vector 24.3"/>
      </g>
      <g class="Group 16">
        <g class="Group 15">
          <path fill="#fff" fill-opacity=".78" d="M708 361h9v10h-9z" class="Rectangle_4"/>
          <path fill="#fff" fill-opacity=".78" d="M720 361h9v10h-9z" class="Rectangle_5"/>
          <path fill="#fff" fill-opacity=".78" d="M732 361h9v10h-9z" class="Rectangle_6"/>
          <path fill="#fff" fill-opacity=".78" d="M744 361h9v10h-9z" class="Rectangle_7"/>
        </g>
        <g class="Group 15.1">
          <path fill="#fff" fill-opacity=".78" d="M708 376h9v10h-9z" class="Rectangle_8"/>
          <path fill="#fff" fill-opacity=".78" d="M720 376h9v10h-9z" class="Rectangle_9"/>
          <path fill="#fff" fill-opacity=".78" d="M732 376h9v10h-9z" class="Rectangle_10"/>
          <path fill="#fff" fill-opacity=".78" d="M744 376h9v10h-9z" class="Rectangle_11"/>
        </g>
        <g class="Group 15.2">
          <path fill="#fff" fill-opacity=".78" d="M708 391h9v10h-9z" class="Rectangle_12"/>
          <path fill="#fff" fill-opacity=".78" d="M720 391h9v10h-9z" class="Rectangle_13"/>
          <path fill="#fff" fill-opacity=".78" d="M732 391h9v10h-9z" class="Rectangle_14"/>
          <path fill="#fff" fill-opacity=".78" d="M744 391h9v10h-9z" class="Rectangle_15"/>
        </g>
        <g class="Group 15.3">
          <path fill="#fff" fill-opacity=".78" d="M708 406h9v10h-9z" class="Rectangle_16"/>
          <path fill="#fff" fill-opacity=".78" d="M720 406h9v10h-9z" class="Rectangle_17"/>
          <path fill="#fff" fill-opacity=".78" d="M732 406h9v10h-9z" class="Rectangle_18"/>
          <path fill="#fff" fill-opacity=".78" d="M744 406h9v10h-9z" class="Rectangle_19"/>
        </g>
      </g>
      <g class="Group 16.10">
        <g class="Group 15_2">
          <path fill="#fff" fill-opacity=".78" d="M807 274h7.2v8H807z" class="Rectangle_20"/>
          <path fill="#fff" fill-opacity=".78" d="M816.6 274h7.2v8h-7.2z" class="Rectangle_21"/>
          <path fill="#fff" fill-opacity=".78" d="M826.2 274h7.2v8h-7.2z" class="Rectangle_22"/>
          <path fill="#fff" fill-opacity=".78" d="M835.8 274h7.2v8h-7.2z" class="Rectangle_23"/>
        </g>
        <g class="Group 15.1_2">
          <path fill="#fff" fill-opacity=".78" d="M807 286h7.2v8H807z" class="Rectangle_24"/>
          <path fill="#fff" fill-opacity=".78" d="M816.6 286h7.2v8h-7.2z" class="Rectangle_25"/>
          <path fill="#fff" fill-opacity=".78" d="M826.2 286h7.2v8h-7.2z" class="Rectangle_26"/>
          <path fill="#fff" fill-opacity=".78" d="M835.8 286h7.2v8h-7.2z" class="Rectangle_27"/>
        </g>
        <g class="Group 15.2_2">
          <path fill="#fff" fill-opacity=".78" d="M807 298h7.2v8H807z" class="Rectangle_28"/>
          <path fill="#fff" fill-opacity=".78" d="M816.6 298h7.2v8h-7.2z" class="Rectangle_29"/>
          <path fill="#fff" fill-opacity=".78" d="M826.2 298h7.2v8h-7.2z" class="Rectangle_30"/>
          <path fill="#fff" fill-opacity=".78" d="M835.8 298h7.2v8h-7.2z" class="Rectangle_31"/>
        </g>
        <g class="Group 15.3_2">
          <path fill="#fff" fill-opacity=".78" d="M807 310h7.2v8H807z" class="Rectangle_32"/>
          <path fill="#fff" fill-opacity=".78" d="M816.6 310h7.2v8h-7.2z" class="Rectangle_33"/>
          <path fill="#fff" fill-opacity=".78" d="M826.2 310h7.2v8h-7.2z" class="Rectangle_34"/>
          <path fill="#fff" fill-opacity=".78" d="M835.8 310h7.2v8h-7.2z" class="Rectangle_35"/>
        </g>
      </g>
      <g class="Group 16.11">
        <g class="Group 15_3">
          <path fill="#fff" fill-opacity=".78" d="M855 426h9v10h-9z" class="Rectangle_36"/>
          <path fill="#fff" fill-opacity=".78" d="M867 426h9v10h-9z" class="Rectangle_37"/>
          <path fill="#fff" fill-opacity=".78" d="M879 426h9v10h-9z" class="Rectangle_38"/>
          <path fill="#fff" fill-opacity=".78" d="M891 426h9v10h-9z" class="Rectangle_39"/>
        </g>
        <g class="Group 15.1_3">
          <path fill="#fff" fill-opacity=".78" d="M855 441h9v10h-9z" class="Rectangle_40"/>
          <path fill="#fff" fill-opacity=".78" d="M867 441h9v10h-9z" class="Rectangle_41"/>
          <path fill="#fff" fill-opacity=".78" d="M879 441h9v10h-9z" class="Rectangle_42"/>
          <path fill="#fff" fill-opacity=".78" d="M891 441h9v10h-9z" class="Rectangle_43"/>
        </g>
        <g class="Group 15.2_3">
          <path fill="#fff" fill-opacity=".78" d="M855 456h9v10h-9z" class="Rectangle_44"/>
          <path fill="#fff" fill-opacity=".78" d="M867 456h9v10h-9z" class="Rectangle_45"/>
          <path fill="#fff" fill-opacity=".78" d="M879 456h9v10h-9z" class="Rectangle_46"/>
          <path fill="#fff" fill-opacity=".78" d="M891 456h9v10h-9z" class="Rectangle_47"/>
        </g>
        <g class="Group 15.3_3">
          <path fill="#fff" fill-opacity=".78" d="M855 471h9v10h-9z" class="Rectangle_48"/>
          <path fill="#fff" fill-opacity=".78" d="M867 471h9v10h-9z" class="Rectangle_49"/>
          <path fill="#fff" fill-opacity=".78" d="M879 471h9v10h-9z" class="Rectangle_50"/>
          <path fill="#fff" fill-opacity=".78" d="M891 471h9v10h-9z" class="Rectangle_51"/>
        </g>
      </g>
      <g class="Group 16.1">
        <g class="Group 15_4">
          <path fill="#fff" fill-opacity=".78" d="M708 426h9v10h-9z" class="Rectangle_52"/>
          <path fill="#fff" fill-opacity=".78" d="M720 426h9v10h-9z" class="Rectangle_53"/>
          <path fill="#fff" fill-opacity=".78" d="M732 426h9v10h-9z" class="Rectangle_54"/>
          <path fill="#fff" fill-opacity=".78" d="M744 426h9v10h-9z" class="Rectangle_55"/>
        </g>
        <g class="Group 15.1_4">
          <path fill="#fff" fill-opacity=".78" d="M708 441h9v10h-9z" class="Rectangle_56"/>
          <path fill="#fff" fill-opacity=".78" d="M720 441h9v10h-9z" class="Rectangle_57"/>
          <path fill="#fff" fill-opacity=".78" d="M732 441h9v10h-9z" class="Rectangle_58"/>
          <path fill="#fff" fill-opacity=".78" d="M744 441h9v10h-9z" class="Rectangle_59"/>
        </g>
        <g class="Group 15.2_4">
          <path fill="#fff" fill-opacity=".78" d="M708 456h9v10h-9z" class="Rectangle_60"/>
          <path fill="#fff" fill-opacity=".78" d="M720 456h9v10h-9z" class="Rectangle_61"/>
          <path fill="#fff" fill-opacity=".78" d="M732 456h9v10h-9z" class="Rectangle_62"/>
          <path fill="#fff" fill-opacity=".78" d="M744 456h9v10h-9z" class="Rectangle_63"/>
        </g>
        <g class="Group 15.3_4">
          <path fill="#fff" fill-opacity=".78" d="M708 471h9v10h-9z" class="Rectangle_64"/>
          <path fill="#fff" fill-opacity=".78" d="M720 471h9v10h-9z" class="Rectangle_65"/>
          <path fill="#fff" fill-opacity=".78" d="M732 471h9v10h-9z" class="Rectangle_66"/>
          <path fill="#fff" fill-opacity=".78" d="M744 471h9v10h-9z" class="Rectangle_67"/>
        </g>
      </g>
      <g class="Group 16.2">
        <g class="Group 15_5">
          <path fill="#fff" fill-opacity=".35" d="M570 360h5v5.556h-5z" class="Rectangle_68"/>
          <path fill="#fff" fill-opacity=".35" d="M576.667 360h5v5.556h-5z" class="Rectangle_69"/>
          <path fill="#fff" fill-opacity=".35" d="M583.333 360h5v5.556h-5z" class="Rectangle_70"/>
          <path fill="#fff" fill-opacity=".35" d="M590 360h5v5.556h-5z" class="Rectangle_71"/>
        </g>
        <g class="Group 15.1_5">
          <path fill="#fff" fill-opacity=".35" d="M570 368.333h5v5.556h-5z" class="Rectangle_72"/>
          <path fill="#fff" fill-opacity=".35" d="M576.667 368.333h5v5.556h-5z" class="Rectangle_73"/>
          <path fill="#fff" fill-opacity=".35" d="M583.333 368.333h5v5.556h-5z" class="Rectangle_74"/>
          <path fill="#fff" fill-opacity=".35" d="M590 368.333h5v5.556h-5z" class="Rectangle_75"/>
        </g>
        <g class="Group 15.2_5">
          <path fill="#fff" fill-opacity=".35" d="M570 376.667h5v5.556h-5z" class="Rectangle_76"/>
          <path fill="#fff" fill-opacity=".35" d="M576.667 376.667h5v5.556h-5z" class="Rectangle_77"/>
          <path fill="#fff" fill-opacity=".35" d="M583.333 376.667h5v5.556h-5z" class="Rectangle_78"/>
          <path fill="#fff" fill-opacity=".35" d="M590 376.667h5v5.556h-5z" class="Rectangle_79"/>
        </g>
        <g class="Group 15.3_5">
          <path fill="#fff" fill-opacity=".35" d="M570 385h5v5.556h-5z" class="Rectangle_80"/>
          <path fill="#fff" fill-opacity=".35" d="M576.667 385h5v5.556h-5z" class="Rectangle_81"/>
          <path fill="#fff" fill-opacity=".35" d="M583.333 385h5v5.556h-5z" class="Rectangle_82"/>
          <path fill="#fff" fill-opacity=".35" d="M590 385h5v5.556h-5z" class="Rectangle_83"/>
        </g>
      </g>
      <g class="Group 16.3">
        <g class="Group 15_6">
          <path fill="#fff" fill-opacity=".35" d="M570 405h5v5.556h-5z" class="Rectangle_84"/>
          <path fill="#fff" fill-opacity=".35" d="M576.667 405h5v5.556h-5z" class="Rectangle_85"/>
          <path fill="#fff" fill-opacity=".35" d="M583.333 405h5v5.556h-5z" class="Rectangle_86"/>
          <path fill="#fff" fill-opacity=".35" d="M590 405h5v5.556h-5z" class="Rectangle_87"/>
        </g>
        <g class="Group 15.1_6">
          <path fill="#fff" fill-opacity=".35" d="M570 413.333h5v5.556h-5z" class="Rectangle_88"/>
          <path fill="#fff" fill-opacity=".35" d="M576.667 413.333h5v5.556h-5z" class="Rectangle_89"/>
          <path fill="#fff" fill-opacity=".35" d="M583.333 413.333h5v5.556h-5z" class="Rectangle_90"/>
          <path fill="#fff" fill-opacity=".35" d="M590 413.333h5v5.556h-5z" class="Rectangle_91"/>
        </g>
        <g class="Group 15.2_6">
          <path fill="#fff" fill-opacity=".35" d="M570 421.667h5v5.556h-5z" class="Rectangle_92"/>
          <path fill="#fff" fill-opacity=".35" d="M576.667 421.667h5v5.556h-5z" class="Rectangle_93"/>
          <path fill="#fff" fill-opacity=".35" d="M583.333 421.667h5v5.556h-5z" class="Rectangle_94"/>
          <path fill="#fff" fill-opacity=".35" d="M590 421.667h5v5.556h-5z" class="Rectangle_95"/>
        </g>
        <g class="Group 15.3_6">
          <path fill="#fff" fill-opacity=".35" d="M570 430h5v5.556h-5z" class="Rectangle_96"/>
          <path fill="#fff" fill-opacity=".35" d="M576.667 430h5v5.556h-5z" class="Rectangle_97"/>
          <path fill="#fff" fill-opacity=".35" d="M583.333 430h5v5.556h-5z" class="Rectangle_98"/>
          <path fill="#fff" fill-opacity=".35" d="M590 430h5v5.556h-5z" class="Rectangle_99"/>
        </g>
      </g>
      <g class="Group 16.4">
        <g class="Group 15_7">
          <path fill="#fff" fill-opacity=".35" d="M616 398h5v5.556h-5z" class="Rectangle_100"/>
          <path fill="#fff" fill-opacity=".35" d="M622.667 398h5v5.556h-5z" class="Rectangle_101"/>
          <path fill="#fff" fill-opacity=".35" d="M629.333 398h5v5.556h-5z" class="Rectangle_102"/>
          <path fill="#fff" fill-opacity=".35" d="M636 398h5v5.556h-5z" class="Rectangle_103"/>
        </g>
        <g class="Group 15.1_7">
          <path fill="#fff" fill-opacity=".35" d="M616 406.333h5v5.556h-5z" class="Rectangle_104"/>
          <path fill="#fff" fill-opacity=".35" d="M622.667 406.333h5v5.556h-5z" class="Rectangle_105"/>
          <path fill="#fff" fill-opacity=".35" d="M629.333 406.333h5v5.556h-5z" class="Rectangle_106"/>
          <path fill="#fff" fill-opacity=".35" d="M636 406.333h5v5.556h-5z" class="Rectangle_107"/>
        </g>
        <g class="Group 15.2_7">
          <path fill="#fff" fill-opacity=".35" d="M616 414.667h5v5.556h-5z" class="Rectangle_108"/>
          <path fill="#fff" fill-opacity=".35" d="M622.667 414.667h5v5.556h-5z" class="Rectangle_109"/>
          <path fill="#fff" fill-opacity=".35" d="M629.333 414.667h5v5.556h-5z" class="Rectangle_110"/>
          <path fill="#fff" fill-opacity=".35" d="M636 414.667h5v5.556h-5z" class="Rectangle_111"/>
        </g>
        <g class="Group 15.3_7">
          <path fill="#fff" fill-opacity=".35" d="M616 423h5v5.556h-5z" class="Rectangle_112"/>
          <path fill="#fff" fill-opacity=".35" d="M622.667 423h5v5.556h-5z" class="Rectangle_113"/>
          <path fill="#fff" fill-opacity=".35" d="M629.333 423h5v5.556h-5z" class="Rectangle_114"/>
          <path fill="#fff" fill-opacity=".35" d="M636 423h5v5.556h-5z" class="Rectangle_115"/>
        </g>
      </g>
      <g class="Group 16.5">
        <g class="Group 15_8">
          <path fill="#fff" fill-opacity=".35" d="M428 337h5v5.556h-5z" class="Rectangle_116"/>
          <path fill="#fff" fill-opacity=".35" d="M434.667 337h5v5.556h-5z" class="Rectangle_117"/>
          <path fill="#fff" fill-opacity=".35" d="M441.333 337h5v5.556h-5z" class="Rectangle_118"/>
          <path fill="#fff" fill-opacity=".35" d="M448 337h5v5.556h-5z" class="Rectangle_119"/>
        </g>
        <g class="Group 15.1_8">
          <path fill="#fff" fill-opacity=".35" d="M428 345.333h5v5.556h-5z" class="Rectangle_120"/>
          <path fill="#fff" fill-opacity=".35" d="M434.667 345.333h5v5.556h-5z" class="Rectangle_121"/>
          <path fill="#fff" fill-opacity=".35" d="M441.333 345.333h5v5.556h-5z" class="Rectangle_122"/>
          <path fill="#fff" fill-opacity=".35" d="M448 345.333h5v5.556h-5z" class="Rectangle_123"/>
        </g>
        <g class="Group 15.2_8">
          <path fill="#fff" fill-opacity=".35" d="M428 353.667h5v5.556h-5z" class="Rectangle_124"/>
          <path fill="#fff" fill-opacity=".35" d="M434.667 353.667h5v5.556h-5z" class="Rectangle_125"/>
          <path fill="#fff" fill-opacity=".35" d="M441.333 353.667h5v5.556h-5z" class="Rectangle_126"/>
          <path fill="#fff" fill-opacity=".35" d="M448 353.667h5v5.556h-5z" class="Rectangle_127"/>
        </g>
        <g class="Group 15.3_8">
          <path fill="#fff" fill-opacity=".35" d="M428 362h5v5.556h-5z" class="Rectangle_128"/>
          <path fill="#fff" fill-opacity=".35" d="M434.667 362h5v5.556h-5z" class="Rectangle_129"/>
          <path fill="#fff" fill-opacity=".35" d="M441.333 362h5v5.556h-5z" class="Rectangle_130"/>
          <path fill="#fff" fill-opacity=".35" d="M448 362h5v5.556h-5z" class="Rectangle_131"/>
        </g>
      </g>
      <g class="Group 16.6">
        <g class="Group 15_9">
          <path fill="#fff" fill-opacity=".35" d="M428 375h5v5.556h-5z" class="Rectangle_132"/>
          <path fill="#fff" fill-opacity=".35" d="M434.667 375h5v5.556h-5z" class="Rectangle_133"/>
          <path fill="#fff" fill-opacity=".35" d="M441.333 375h5v5.556h-5z" class="Rectangle_134"/>
          <path fill="#fff" fill-opacity=".35" d="M448 375h5v5.556h-5z" class="Rectangle_135"/>
        </g>
        <g class="Group 15.1_9">
          <path fill="#fff" fill-opacity=".35" d="M428 383.333h5v5.556h-5z" class="Rectangle_136"/>
          <path fill="#fff" fill-opacity=".35" d="M434.667 383.333h5v5.556h-5z" class="Rectangle_137"/>
          <path fill="#fff" fill-opacity=".35" d="M441.333 383.333h5v5.556h-5z" class="Rectangle_138"/>
          <path fill="#fff" fill-opacity=".35" d="M448 383.333h5v5.556h-5z" class="Rectangle_139"/>
        </g>
        <g class="Group 15.2_9">
          <path fill="#fff" fill-opacity=".35" d="M428 391.667h5v5.556h-5z" class="Rectangle_140"/>
          <path fill="#fff" fill-opacity=".35" d="M434.667 391.667h5v5.556h-5z" class="Rectangle_141"/>
          <path fill="#fff" fill-opacity=".35" d="M441.333 391.667h5v5.556h-5z" class="Rectangle_142"/>
          <path fill="#fff" fill-opacity=".35" d="M448 391.667h5v5.556h-5z" class="Rectangle_143"/>
        </g>
        <g class="Group 15.3_9">
          <path fill="#fff" fill-opacity=".35" d="M428 400h5v5.556h-5z" class="Rectangle_144"/>
          <path fill="#fff" fill-opacity=".35" d="M434.667 400h5v5.556h-5z" class="Rectangle_145"/>
          <path fill="#fff" fill-opacity=".35" d="M441.333 400h5v5.556h-5z" class="Rectangle_146"/>
          <path fill="#fff" fill-opacity=".35" d="M448 400h5v5.556h-5z" class="Rectangle_147"/>
        </g>
      </g>
      <g class="Group 16.7">
        <g class="Group 15_10">
          <path fill="#fff" fill-opacity=".35" d="M428 413h5v5.556h-5z" class="Rectangle_148"/>
          <path fill="#fff" fill-opacity=".35" d="M434.667 413h5v5.556h-5z" class="Rectangle_149"/>
          <path fill="#fff" fill-opacity=".35" d="M441.333 413h5v5.556h-5z" class="Rectangle_150"/>
          <path fill="#fff" fill-opacity=".35" d="M448 413h5v5.556h-5z" class="Rectangle_151"/>
        </g>
        <g class="Group 15.1_10">
          <path fill="#fff" fill-opacity=".35" d="M428 421.333h5v5.556h-5z" class="Rectangle_152"/>
          <path fill="#fff" fill-opacity=".35" d="M434.667 421.333h5v5.556h-5z" class="Rectangle_153"/>
          <path fill="#fff" fill-opacity=".35" d="M441.333 421.333h5v5.556h-5z" class="Rectangle_154"/>
          <path fill="#fff" fill-opacity=".35" d="M448 421.333h5v5.556h-5z" class="Rectangle_155"/>
        </g>
        <g class="Group 15.2_10">
          <path fill="#fff" fill-opacity=".35" d="M428 429.667h5v5.556h-5z" class="Rectangle_156"/>
          <path fill="#fff" fill-opacity=".35" d="M434.667 429.667h5v5.556h-5z" class="Rectangle_157"/>
          <path fill="#fff" fill-opacity=".35" d="M441.333 429.667h5v5.556h-5z" class="Rectangle_158"/>
          <path fill="#fff" fill-opacity=".35" d="M448 429.667h5v5.556h-5z" class="Rectangle_159"/>
        </g>
        <g class="Group 15.3_10">
          <path fill="#fff" fill-opacity=".35" d="M428 438h5v5.556h-5z" class="Rectangle_160"/>
          <path fill="#fff" fill-opacity=".35" d="M434.667 438h5v5.556h-5z" class="Rectangle_161"/>
          <path fill="#fff" fill-opacity=".35" d="M441.333 438h5v5.556h-5z" class="Rectangle_162"/>
          <path fill="#fff" fill-opacity=".35" d="M448 438h5v5.556h-5z" class="Rectangle_163"/>
        </g>
      </g>
      <g class="Group 16.8">
        <g class="Group 15_11">
          <path fill="#fff" fill-opacity=".35" d="M499 413h5v5.556h-5z" class="Rectangle_164"/>
          <path fill="#fff" fill-opacity=".35" d="M505.667 413h5v5.556h-5z" class="Rectangle_165"/>
          <path fill="#fff" fill-opacity=".35" d="M512.333 413h5v5.556h-5z" class="Rectangle_166"/>
          <path fill="#fff" fill-opacity=".35" d="M519 413h5v5.556h-5z" class="Rectangle_167"/>
        </g>
        <g class="Group 15.1_11">
          <path fill="#fff" fill-opacity=".35" d="M499 421.333h5v5.556h-5z" class="Rectangle_168"/>
          <path fill="#fff" fill-opacity=".35" d="M505.667 421.333h5v5.556h-5z" class="Rectangle_169"/>
          <path fill="#fff" fill-opacity=".35" d="M512.333 421.333h5v5.556h-5z" class="Rectangle_170"/>
          <path fill="#fff" fill-opacity=".35" d="M519 421.333h5v5.556h-5z" class="Rectangle_171"/>
        </g>
        <g class="Group 15.2_11">
          <path fill="#fff" fill-opacity=".35" d="M499 429.667h5v5.556h-5z" class="Rectangle_172"/>
          <path fill="#fff" fill-opacity=".35" d="M505.667 429.667h5v5.556h-5z" class="Rectangle_173"/>
          <path fill="#fff" fill-opacity=".35" d="M512.333 429.667h5v5.556h-5z" class="Rectangle_174"/>
          <path fill="#fff" fill-opacity=".35" d="M519 429.667h5v5.556h-5z" class="Rectangle_175"/>
        </g>
        <g class="Group 15.3_11">
          <path fill="#fff" fill-opacity=".35" d="M499 438h5v5.556h-5z" class="Rectangle_176"/>
          <path fill="#fff" fill-opacity=".35" d="M505.667 438h5v5.556h-5z" class="Rectangle_177"/>
          <path fill="#fff" fill-opacity=".35" d="M512.333 438h5v5.556h-5z" class="Rectangle_178"/>
          <path fill="#fff" fill-opacity=".35" d="M519 438h5v5.556h-5z" class="Rectangle_179"/>
        </g>
      </g>
      <g class="Group 13">
        <path fill="#0753BF" fill-rule="evenodd" d="M372 152h-8v418h8V177.146h56.212a4.041 4.041 0 000-8.083H372V152z" class="Union_2" clip-rule="evenodd"/>
        <path fill="#000" fill-opacity=".05" d="M364 152h4.49v413.11H364z" class="Rectangle_180"/>
        <path fill="#F7FAFE" d="M423.272 177.589c0 6.31-2.412 12.362-6.707 16.824-4.295 4.462-10.12 6.969-16.193 6.969-6.074 0-11.899-2.507-16.194-6.969-4.294-4.462-6.707-10.514-6.707-16.824h45.801z" class="Ellipse"/>
        <path fill="#311F9E" fill-opacity=".04" d="M390.044 177.146l11.675 23.799c-19.398-1.078-23.949-16.315-23.799-23.799h12.124z" class="Vector_6"/>
        <path fill="#FEBDA9" fill-opacity=".68" d="M230 571l133-370.532L370 175h51l182 396H230z" class="Vector 2"/>
        <path fill="#FBBA7D" fill-opacity=".15" d="M235 571l133-370.532L375 175h14.5l-58 396H235z" class="Vector 2.1"/>
        <path fill="#FBBA7D" fill-opacity=".15" d="M569.5 572l-133-370.532-7-25.468H415l58 396h96.5z" class="Vector 2.2"/>
      </g>
    </g>
    <g class="Group 10">
      <path stroke="#000" stroke-width="1.77" d="M568.22 441.211c3.982 14.307 24.025 9.394 37.299 68.685 12.935 57.776 74.89 12.6 131.526 37.6" class="Vector 23.1"/>
      <g class="Group 2.1">
        <path fill="#3A4DF8" fill-rule="evenodd" d="M667.247 602.547l-11.287 18.318 1.991 2.876h-7.079v-2.876l7.079-19.69-2.862-9.707c-6.548-8.304-4.9-18.935-3.111-23.477 1.272-2.241 2.481-4.015 3.639-5.435-11.776 3.24-16.807-7.265-12.93-15.019 1.185 6.517 6.534 9.41 10.472 11.541 1.479.8 2.759 1.493 3.545 2.229 2.629-2.821 5-3.919 7.263-4.768 2.731-1.024 15.677-1.132 28.259-1.236 11.745-.098 23.173-.193 25.68-1.028 1.315-.439 2.702-.741 4.109-1.047 3.564-.777 7.263-1.583 10.271-4.705 4.474-4.644 5.089-12.168 5.089-15.708v-9.513l5.752 9.513 3.097-9.292c.466 1.692.527 2.996.586 4.245.095 2.018.184 3.895 1.96 7.038L772 546.31c-1.327 3.982-8.511 19.911-19.139 11.504-2.978-2.356-4.372 2.028-5.438 5.381-.425 1.337-.798 2.511-1.199 3.026-.737.517-1.69 8.519-1.69 15.987 0 3.072-.346 4.552-.803 6.505-.464 1.985-1.043 4.458-1.489 9.587l-1.549 23.894 1.549 4.203h-4.867v-4.203l-3.982-21.018a15.696 15.696 0 01-.517-.263l-2.566 8.658 1.411 13.122h-3.982l.358-2.067-3.336-11.055-1.985-17.21a213.16 213.16 0 00-3.43-3.352c-5.973 3.761-12.881 5.752-22.394 4.203-7.61-1.239-14.647-2.212-17.795 0l4.015 8.849-7.079 20.133 5.53 4.203h-12.168l1.771-20.353-3.979-3.497z" class="Union_3" clip-rule="evenodd"/>
        <path fill="#000" fill-opacity=".14" d="M657.288 562.019c-2.324-3.024-16.647 4.342-14.601-14.482-4.056 8.112 1.637 19.233 14.601 14.482z" class="Vector 27.1"/>
        <path fill="#000" fill-opacity=".09" d="M724.761 610.034l-1.387-16.648s4.003 3.693 5.423 4.624c1.196.784 3.826 2.775 3.826 2.775l-2.313 7.399 1.388 13.41-2.901-1.85-.799.463-3.237-10.173z" class="Vector 31"/>
        <path fill="#000" fill-opacity=".07" d="M656.624 593.212c-8.319-8.495-6.563-20.354-4.646-25.221 4.646-8.185 8.449-10.124 11.989-11.452 5.281-1.98 48.747-.534 53.939-2.264 4.646-1.549 10.184-1.397 14.38-5.752 4.474-4.644 5.088-12.168 5.088-15.708v-9.513l5.753 9.513 3.097-9.292c1.219 4.425-.33 6.195 2.546 11.283L772 546.31c-1.327 3.982-8.511 19.911-19.139 11.504-4.167-3.295-5.232 6.599-6.637 8.407-.738.517-1.69 8.519-1.69 15.987 0 6.194-1.407 5.916-2.292 16.092l-1.549 23.894 1.549 4.203h-4.868v-4.203l-3.981-21.018c-4.558-2.217-8.567-6.96-14.047-12.167-5.973 3.761-12.881 5.752-22.394 4.203-7.61-1.239-14.647-2.212-17.795 0l4.015 8.849-7.08 20.133 5.531 4.203h-12.168l1.771-20.353-14.602-12.832z" class="Vector 24.1"/>
        <path fill="#000" fill-opacity=".04" d="M679.926 560.222c-10.476.328-23.734 8.321-29.054 12.277 5.32-27.418 42.558-12.277 69.976-18.824-1.637 3.683-27.827 6.138-40.922 6.547z" class="Vector 33"/>
        <path fill="#000" fill-opacity=".05" d="M672.151 595.415l2.046-11.868 9.003 18.415-5.32 14.732-5.729-21.279z" class="Vector 32"/>
        <path fill="#000" fill-opacity=".08" d="M742.536 571.271l4.501-7.366-2.046 6.956-.818 14.732-1.637 10.231-2.456-3.274 1.637-6.138.819-7.366-3.274-3.274 3.274-4.501z" class="Vector 30"/>
        <path fill="#000" fill-opacity=".03" d="M735.171 595.823c-4.597-5.098-15.96-7.365-15.96-7.365s4.869 4.563 7.366 7.775c2.865 3.683 6.957 4.91 6.957 4.91l4.092 21.279s4.529-18.85-2.455-26.599z" class="Vector 29"/>
        <path fill="#000" d="M770.362 550.401l-1.636-5.729 3.273 1.637s-.392 1.539-.818 2.455c-.393.845-.819 1.637-.819 1.637z" class="Vector 28"/>
        <path fill="#87AFFE" d="M749.949 558.223l-.021-.003c-.654-.084-1.548 2.779-1.921 3.975l-.014.043c-2.212 0-17.699-12.389-17.256-12.389.354 0 2.065-1.475 2.876-2.876 1.414 2.298 11.221 10.344 16.315 11.247l.021.003z" class="Vector 27"/>
        <path fill="#000" fill-opacity=".12" d="M731.896 548.765c1.416 2.301 11.28 10.982 16.369 11.867 0 0 0 .41-.272 1.607-2.212 0-17.699-12.389-17.256-12.389.354 0 .348.316 1.159-1.085z" class="Vector 27.1_2"/>
        <path fill="#000" fill-opacity=".07" d="M738.035 533.623h3.274s.4-2.68-.41-3.683c-.925-1.146-3.273-3.683-3.273-3.683s.377 1.986.409 3.274c.04 1.606 0 4.092 0 4.092z" class="Vector 24"/>
        <path fill="#000" fill-opacity=".08" d="M662.739 604.828l1.228-5.32 3.274 2.864-11.458 18.824-1.637-2.455 8.593-13.913z" class="Vector 25"/>
        <g class="Group 10_2">
          <circle cx="753.735" cy="541.435" r="1.228" fill="#000" class="Ellipse_2"/>
          <path fill="#000" fill-opacity=".05" d="M713.891 585.594c-7.882-1.603-22.098 6.548-22.098 6.548 15.141 4.092 23.871-.546 27.827-2.865 0 0-1.666-2.857-5.729-3.683z" class="Vector 26"/>
        </g>
      </g>
      <g class="Group 4">
        <path fill="#F0B2AE" d="M558.244 611.02l1.198-12.178v-4.392h11.779l-4.193 16.57h-8.784z" class="Vector 5.1"/>
        <path fill="#F0B2AE" d="M492.962 604.832l3.194-9.583 1.797-7.985 8.784 4.392-5.19 15.571-8.585-2.395z" class="Vector 7.1"/>
        <path fill="#FCD0CD" d="M541.911 287.842c5.016 10.269 2.822 17.825.53 22.895-.661 1.461-3.002 4.495-4.591 4.715-1.174.162-3.233-.864-4.347-1.551-.338 1.883-1.013 6.249-1.013 8.644 0 2.396-5.792 1.797-8.688 1.198.28-6.478.665-19.037.119-20.552l-.119-.15c-3.028-19.555 9.569-18.23 18.109-15.199z" class="Vector 10.1"/>
        <path fill="#FC78BF" fill-rule="evenodd" d="M560.24 476.863l16.171 38.929-2.595 90.436-15.971-1.996-9.583-78.458-4.998-7.767-32.933 83.232-16.37-4.592 19.964-83.649s-4.405-16.707-4.991-27.15c-.267-4.749 0-9.184 0-9.184l6.152-.526-1.162-1.671-11.779-18.167h49.511l8.584 20.563z" class="Union_4" clip-rule="evenodd"/>
        <path fill="#000" fill-opacity=".05" d="M519.713 514.594l-24.556 82.051h-.998l20.164-83.448-7.786-30.545h9.183l3.993 31.942z" class="Vector 22.1"/>
        <path fill="#000" fill-opacity=".02" d="M576.411 515.793l-16.171-38.929-8.584-20.563h-49.51l11.778 18.167 17.768 25.554 16.57 25.753 9.583 78.458 15.971 1.996 2.595-90.436z" class="Vector 3.2"/>
        <path fill="#000" fill-opacity=".03" d="M533.688 480.857l-18.567-5.59 33.34 50.309 9.583 78.458h2.795s-.493-52.189-9.383-81.652c-5.516-18.28-17.768-41.525-17.768-41.525z" class="Vector 22.2"/>
        <path fill="#504DF4" fill-rule="evenodd" d="M503.343 380.875l.001 1.958c0 10.381 2.395 14.973 2.395 14.973v23.357h.028c-2.177 3.175-9.826 15.635-9.826 33.957 0 21.361 3.011 26.012 5.007 28.208l64.74-11.099-6.245-18.923c-2.664-6.4-5.566-14.825-7.773-21.553l.984-1.406 3.793-4.193-6.388-8.584s1.797-17.768 1.797-37.732c0-7.322-1.797-27.949-6.788-36.733-6.709-11.808-14.574-27.75-14.574-27.75s-6.359-4.121-12.976-2.995c-3.902.664-7.786 8.785-7.786 8.785s-1.915 8.952-3.993 21.96c-2.407 15.078-2.402 25.305-2.396 37.77z" class="Union_5" clip-rule="evenodd"/>
        <path fill="#000" fill-opacity=".1" d="M546.931 437.324l9.003-11.048c-3.929 2.291-35.056-18.415-50.334-29.055 0 0 11.004 14.56 19.233 22.507 8.007 7.733 22.098 17.596 22.098 17.596z" class="Vector 2_2"/>
        <path fill="#000" fill-opacity=".05" d="M553.478 436.506l-4.502-2.047s1.642 5.55 6.273 19.447c4.129 12.391 3.04 19.711 3.04 19.711l7.399-1.387c-.925-2.312-5.549-16.647-12.21-35.724z" class="Vector 22.4"/>
        <path stroke="#000" stroke-linecap="round" stroke-opacity=".02" stroke-width=".399" d="M524.703 358.876v30.944l31.942 35.336" class="Vector 13.1"/>
        <path fill="#000" fill-opacity=".04" d="M518.316 327.136c.798-1.118 4.392-1.529 5.989-1.995 1.73-.333 5.271-.799 6.388-.001 1.398.999 5.391 2.396 8.984 3.993 3.594 1.597 0 5.59.799 8.584.798 2.995 1.198 5.99.798 5.391-.399-.599-.599-4.792-1.996-6.189-1.398-1.398-3.194-4.991-5.39-5.59-2.196-.599-1.797-.199-4.193-2.196-2.395-1.996-5.989 1.596-9.583 1.397-3.593-.2-2.794-1.997-1.796-3.394z" class="Vector 19.1"/>
        <g class="Group">
          <path fill="#F776BB" fill-rule="evenodd" d="M535.255 328.152c-3.613-.18-14.171-2.688-19.985-4.512-4.401-1.38-4.969-1.368-5.187-1.638-.119-.147-.134-.377-.603-.957-1.711-2.12-.826-3.436.486-5.386.417-.62.877-1.305 1.311-2.1.357-.821.433-1.579.502-2.268.125-1.237.227-2.253 1.894-3.023 2.595-1.198 4.192-1.198 7.985 0 .125.04.318.093.566.162 2.064.573 7.879 2.188 8.618 5.129.22.876 1.891 2.3 3.607 3.763 2.039 1.739 4.143 3.531 3.95 4.522-.078.4-.159.798-.242 1.189.125.181.24.373.36.574.598 1.001 1.344 2.247 4.286 3.626 6.389 2.995 9.184 4.392 11.779 16.371 1.63 7.523 4.992 9.455 7.317 10.791 1.378.791 2.391 1.373 2.465 2.784.072 1.369-.814 2.112-1.754 2.9-1.144.96-2.368 1.986-2.039 4.287.599 4.193-11.779 9.982-11.779 9.982-1.73-3.926-3.553-14.294-3.393-17.967.199-4.592 0-7.487-1.797-9.383-1.98-2.091-6.189-9.184-6.988-12.977-.155-.738-.29-1.483-.418-2.189-.297-1.642-.555-3.067-.941-3.68z" class="Union_6" clip-rule="evenodd"/>
          <path fill="#fff" fill-opacity=".2" d="M536.431 329.729c2.595.999.531 4.592 5.642 6.988 6.388 2.994 3.941 3.194 6.536 15.172 2.595 11.979 4.643 6.788 4.843 10.581.16 3.035 6.337-2.296 6.936 1.897.598 4.192-11.779 9.982-11.779 9.982-1.73-3.927-3.394-14.291-3.394-17.968 0-4.492.85-7.42-1.944-9.283-2.396-1.597-6.042-9.283-6.84-13.076-.478-2.269-.621-4.326-1.025-5.219l-.52-.471c.218 0 .384.169.52.471l1.025.926z" class="Vector 13"/>
        </g>
        <path fill="#FCD0CD" d="M571.619 438.933s-8.222-3.577-12.577-7.187c-1.741-1.443-4.192-3.993-4.192-3.993l-5.874 6.707 10.066 6.269c2.13 2.463 11.389 13.138 9.982 8.984-4.192-12.377 8.651 1.73 12.178 1.398l-9.583-12.178z" class="Vector 9.1"/>
        <path fill="#384AF0" d="M592.181 621.401h-33.739s-.338-1.923 0-4.192c.319-2.138 0-7.187 0-7.187s2.417.56 3.993.599c1.885.046 4.792-.599 4.792-.599s15.771 4.592 24.954 7.187c1.351.382 0 4.192 0 4.192z" class="Vector 6.1"/>
        <path stroke="#fff" stroke-linecap="round" stroke-width=".818" d="M573.121 614.515l4.092-3.683m-1.637 4.501l4.501-3.273m-1.227 3.273l3.273-2.046" class="Vector 24_2"/>
        <path fill="#384AF0" d="M517.517 621.202l-29.514-6.688s-.127-3.593 1.228-5.729c1.39-2.192 3.731-5.551 3.731-5.551s2.078 2.065 3.793 2.596c1.713.529 4.591 0 4.591 0s11.979 6.588 18.168 11.978c1.159 1.01-1.997 3.394-1.997 3.394z" class="Vector 8.1"/>
        <path stroke="#fff" stroke-linecap="round" stroke-width=".818" d="M503.962 610.832l5.32-2.046m-2.864 4.092l4.501-2.046m-2.455 3.683l4.501-1.637" class="Vector 23"/>
        <path fill="#000" fill-opacity=".02" d="M508.933 350.093c-.479-3.354.799-7.054 1.198-8.984l-3.593.998-1.398 4.991s-1.006 8.504-1.397 13.975c-.607 8.479-.599 5.789-.599 21.76 0 15.971 6.987 21.228 10.98 23.358-1.531-3.061-5.09-6.533-6.788-10.581-2.932-6.992 1.557-10.428-.798-18.167-1.398-4.592 0-6.588 0-10.98s2.994-12.178 2.395-16.37z" class="Vector 17.1"/>
        <path fill="#0B185D" d="M535.085 290.916c-2.795 2.795 0 2.772 0 9.867 0 2.595-4.837 1.397-4.837 4.392 0 9.984-5.864 7.051-4.745 17.169 1.118 10.118-11.258 7.625-11.919 15.182-.661 7.558 1.729 5.671-3.054 7.657-4.784 1.987-2.416 8.209-3.793 12.497-1.378 4.288-8.093 6.238-13.177 4.792-5.084-1.447-5.629-16.988-2.195-17.289 3.433-.301 5.763-3.752 4.791-13.256.783-8.95 2.127-14.796 6.987-15.372 4.86-.577 7.715-1.311 9.211-18.415 1.497-17.104 9.063-14.957 17.894-21.281 6.484-4.642 15.817 2.762 13.975 9.95-1.003 3.91-5.186.154-9.138 4.107z" class="Vector 11.1"/>
        <path fill="#000" fill-opacity=".1" d="M514.289 417.338c-6.162-5.022-6.676-13.058-8.281-18.482v22.098h12.277s-1.435-1.529-3.996-3.616z" class="Vector 14.1"/>
        <path fill="#000" fill-opacity=".08" d="M514.723 409.586c-2.153-2.818-4.991-7.586-4.991-7.586l18.766 18.966h-2.595s-7.398-6.43-11.18-11.38z" class="Vector 15.1"/>
        <path fill="#000" fill-opacity=".08" d="M527.101 388.026l-2.196-28.947-.599 30.944 25.753 27.749.399-3.793-23.357-25.953z" class="Vector 16.1"/>
        <path fill="#000" fill-opacity=".04" d="M549.859 383.034c0-5.191 1.73-7.054 2.396-9.183l-1.597 36.334s-1.398-8.651-1.398-13.775c0-5.124.599-10.182.599-13.376z" class="Vector 18.1"/>
        <path fill="#fff" fill-opacity=".16" d="M558.445 352.687v-.599c-2.236-1.917-4.259-8.984-4.792-11.978-1.757-8.305-7.253-11.513-9.982-12.378.2 1.73 2.672 4.284 3.594 4.592 4.791 1.597 3.394 6.388 4.392 7.786.998 1.397 1.597 4.99 1.597 7.386 0 1.917 4.924 3.261 5.191 5.191z" class="Vector 20.1"/>
        <path fill="#fff" fill-opacity=".03" d="M527.699 397.007c-.877-2.856-3.194-6.588-3.194-6.588l17.768 19.365 8.185 8.584 5.79 7.387s-3.633-.891-4.991-2.396c-5.59-6.189-4.141-5.915-7.187-9.383-6.313-7.185-13.561-7.827-16.371-16.969z" class="Vector 21.2"/>
        <path fill="#000" fill-opacity=".04" d="M570.222 605.83h3.593l2.595-89.238s-2.061 4.247-2.395 7.187c-3.793 33.339-3.793 82.051-3.793 82.051z" class="Vector 22.5"/>
        <g class="Group 10_3">
          <path fill="#856BF0" fill-rule="evenodd" d="M530.691 292.325l-2.333-13.999 2.361-1.416 2.758 15.171a6.14 6.14 0 01-.87 12.216 6.139 6.139 0 01-1.916-11.972z" class="Union_7" clip-rule="evenodd"/>
          <path fill="#000" fill-opacity=".13" d="M532.135 291.546l-1.416.944-1.417-8.499-.472-4.721 3.305 12.276z" class="Vector 13_2"/>
          <circle cx="533.08" cy="298.63" r="4.722" fill="#fff" fill-opacity=".2" class="Ellipse_3"/>
        </g>
        <path fill="#000" fill-opacity=".1" d="M516.914 420.901c-12.347 34.219-10.377 52.855-6.717 61.04l-9.711 1.387c-9.711-24.508-3.699-48.092 5.086-62.427h11.342z" class="Vector 21.1"/>
      </g>
    </g>
  </g>
</svg>
