<svg xmlns="http://www.w3.org/2000/svg" width="1152" height="700" fill="none" viewBox="0 0 1152 700">
  <g class="portfolio">
    <path fill="#fff" d="M0 0h1152v700H0z"/>
    <path fill="#E2E8F2" d="M523.176 316.687c-106.332-93.45-173.149-69.077-233.168-29.751-103.8 68.01-70.088 237.072 47.723 243.151 111.756 5.765 153.014 49.485 243.025 90.921 90.011 41.436 207.103-111.323 152.112-194.705-54.991-83.382-101.71-14.716-209.692-109.616z" class="Vector 4"/>
    <g class="book open">
      <path fill="#C4C4C4" d="M988 448.377L741.485 591 561 486.703 784.247 329 988 448.377z" class="shadow"/>
      <path fill="#DAE4FA" d="M534.443 160.585L327.001 277.628 305 266.93 511.813 148l22.63 12.585L555.816 148 762 267.56l-21.373 14.473-206.184-121.448z" class="Vector"/>
      <g class="Vector_2">
        <path fill="#B7CFFD" d="M327.001 591V277.628L305 266.931v311.484L327.001 591zM740.627 591V282.033L762 267.56v310.855L740.627 591z"/>
      </g>
      <path fill="#EDEBEB" d="M327.002 591V277.628l207.441-117.043 206.185 121.447V591L534.443 473.328 327.002 591z" class="Vector_3"/>
      <path stroke="#000" d="M534.443 473.328V160.585" class="Vector_4"/>
    </g>
    <g class="plant">
      <path fill="#EE7E79" d="M288.906 312.544c4.47-2.925 13.9-.207 18.056 1.518 1.659.232 4.396-.043 2.072-3.008-2.906-3.707-4.131-10.349-2.61-13.054 2.989 1.604 8.675 5.632 7.503 8.919-1.464 4.108 1.381 11.866 2.701 6.976s-2.264-10.087 5.25-17.533c1.971 2.752 5.234 10.431 2.519 19.13-3.395 10.875 2.913 13.603 3.945 7.151 1.032-6.453-.178-14.108 6.787-21.25 2.78 3.392 7.602 11.647 4.646 17.525-3.695 7.348-8.175 20.295-4.283 20.587 3.892.292 4.309-17.158 8.205-22.32 3.117-4.131 5.634-6.696 6.502-7.462 2.728 3.47 6.809 12.602 1.316 21.372-6.866 10.963-11.866 22.187-6.483 21.801 5.383-.387 2.701-13.831 9.45-22.146 5.399-6.652 7.355-7.215 7.659-6.665 2.057 3.122 4.404 11.834-2.664 21.702-8.835 12.336-10.098 18.629-5.975 19.081 4.123.451 1.241-15.178 16.585-25.078 1.686 3.662 3.863 12.62-.911 19.157-5.967 8.171-13.023 21.39-7.742 22.638 5.28 1.249 4.264-14.118 11.851-21.174 6.069-5.644 6.418-5.358 5.834-4.51 2.198 2.423 5.46 9.012.929 15.989-5.664 8.721-15.963 25.165-10.163 28.135 5.8 2.971 4.101-8.432 6.464-15.332 1.891-5.52 7.73-11.392 10.413-13.637 1.763 3.715 4.286 12.501.277 17.927-5.012 6.783-13.316 25.283-10.076 27.513 3.239 2.231 5.561-7.085 7.272-12.047 1.711-4.962 3.93-12.643 10.068-16.604 2.559 2.559 6.276 9.711.667 17.856-7.01 10.181-13.528 18.656-9.363 21.524 4.166 2.867.627-5.368 7.432-12.28 5.445-5.529 8.841-7.556 9.859-7.878 1.387 2.774 2.974 9.552-1.775 14.468-5.937 6.145-14.264 15.761-10.243 17.847 4.021 2.087 4.014-7.81 7.488-10.875 2.78-2.452 6.313-5.204 7.731-6.274 1.783 2.365 2.711 9.439-7.841 18.819-1.742 1.87-4.669 5.79-2.435 6.509 2.791.899 5.982-9.184 9.586-10.454 1.069 1.418 2.34 5.022-1.135 8.087-3.475 3.065-4.955 10.005-5.262 13.091-1.086-.733-3.912-2.244-6.52-2.42-2.184-.888-5.241-1.433-8.395-.687-7.742 1.832-14.684-2.948-13.569-4.568 1.116-1.62 12.298.964 13.342-1.046 1.043-2.011-5.801-2.971-11.805-2.671-4.804.239-11.432-5.029-14.146-7.694 2.706-.297 9.093-.424 12.993 1.442l.284.136c4.728 2.265 8.166 3.911 9.047 1.173.899-2.792-8.967-4.81-17.214-5.713-6.597-.722-12.93-7.311-15.272-10.516 2.055-.177 7.067-.455 10.678-.151 4.515.379 14.002 6.912 13.975 3.483-.026-3.43-13.091-5.262-23.579-7.368-8.391-1.684-12.828-8.946-13.998-12.367 2.191-.538 7.479-.854 11.111 2.193 4.541 3.809 19.251 10.186 19.399 5.513.149-4.674-19.975-8.639-26.947-11.393-5.578-2.203-9.013-8.707-10.034-11.684 3.126-.576 7.322.266 12.355 2.368 5.034 2.101 18.326 9.548 17.795 3.384-.531-6.164-18.978-7.61-27.225-8.513-6.597-.723-12.505-7.929-14.634-11.441 2.272-.824 11.937-.99 16.58 1.184 4.643 2.173 17.503 7.276 15.713 1.95-1.791-5.326-19.79-5.44-27.719-6.806-6.342-1.093-12.659-8.035-15.025-11.369 10.39-1.715 17.753.967 21.224 3.357s16.88 7.189 16.391 3.441c-.489-3.748-17.009-8.983-24.896-7.932-6.309.84-13.824-4.858-16.793-7.811 1.1-.607 14.385-3.057 17.162-1.146 2.776 1.912 7.969 3.783 13.728 4.337 5.758.554-3.524-9.249-16.505-6.248-10.385 2.4-19.728-4.375-23.102-8.062 21.721-3.804 17.78 4.397 28.648 1.988 10.868-2.408-2.932-7.135-12.787-4.711-7.885 1.939-17.809-4.19-21.786-7.497 4.446-5.466 20.329.695 27.203-.371 6.873-1.065.338-6.93-10.603-4.912-8.752 1.614-16.877-3.89-19.846-6.844 4.256-3.209 10.014-2.655 19.012.129 8.998 2.785 6.441-3.41-.952-4.066-5.915-.525-11.394-4.094-13.394-5.812z" class="Vector 3"/>
      <path fill="#EDC7C5" d="M353.304 378.035c18.864 46.416 34.837 67.307 45.708 80.25-1.086-.733-3.912-2.244-6.52-2.42-2.184-.888-5.241-1.433-8.395-.687-7.742 1.832-14.684-2.948-13.569-4.568 1.116-1.62 12.298.964 13.342-1.046 1.043-2.011-5.801-2.971-11.805-2.671-4.804.239-11.432-5.029-14.146-7.694 2.706-.297 9.093-.424 12.993 1.442l.284.136c4.728 2.265 8.166 3.911 9.047 1.173.899-2.792-8.967-4.81-17.214-5.713-6.597-.722-12.93-7.311-15.272-10.516 2.055-.177 7.067-.455 10.678-.151 4.515.379 14.002 6.912 13.975 3.483-.026-3.43-13.091-5.262-23.579-7.368-8.391-1.684-12.828-8.946-13.998-12.367 2.191-.538 7.479-.854 11.111 2.193 4.541 3.809 19.251 10.186 19.399 5.513.149-4.674-19.975-8.639-26.947-11.393-5.578-2.203-9.013-8.707-10.034-11.684 3.126-.576 7.322.266 12.355 2.368 5.034 2.101 18.326 9.548 17.795 3.384-.531-6.164-18.978-7.61-27.225-8.513-6.597-.723-12.505-7.929-14.634-11.441 2.272-.824 11.937-.99 16.58 1.184 4.643 2.173 17.503 7.276 15.713 1.95-1.791-5.326-19.79-5.44-27.719-6.806-6.342-1.093-12.659-8.035-15.025-11.369 10.39-1.715 17.753.967 21.224 3.357s16.88 7.189 16.391 3.441c-.489-3.748-17.009-8.983-24.896-7.932-6.309.84-13.824-4.858-16.793-7.811 1.1-.607 14.385-3.057 17.162-1.146 2.776 1.912 7.969 3.783 13.728 4.337 5.758.554-3.524-9.249-16.505-6.248-10.385 2.4-19.728-4.375-23.102-8.062 21.721-3.804 17.78 4.397 28.648 1.988 10.868-2.408-2.932-7.135-12.787-4.711-7.885 1.939-17.809-4.19-21.786-7.497 4.446-5.466 20.329.695 27.203-.371 6.873-1.065.338-6.93-10.603-4.912-8.752 1.614-16.877-3.89-19.846-6.844 4.256-3.209 10.014-2.655 19.012.129 8.998 2.785 6.441-3.41-.952-4.066-5.915-.525-11.394-4.094-13.394-5.812 4.47-2.925 13.9-.207 18.056 1.518 9.16 5.852 31.252 26.84 46.342 63.973z" class="Vector 3.1"/>
    </g>
    <g class="plant_2">
      <g class="Vector 5">
        <path fill="#EDC7C5" d="M744.432 552.202c-13.243-6.621-41.148-24.405-46.824-42.567 12.297 7.567 38.878 26.675 46.824 42.567zM751.527 547.946c-22.703-24.122-68.392-74.636-69.527-83.717 14.189 2.365 47.959 22.419 69.527 83.717-5.203-24.122-19.865-77.757-36.892-99.325 9.933 3.784 31.216 15.041 36.892 29.798 5.676 14.756 2.365 52.5 0 69.527z"/>
      </g>
      <g class="Vector 4_2">
        <path fill="#EE7E79" d="M745.763 546.968c2.673-28.917 10.002-89.521 17.933-100.596 7.895 19.033 15.361 65.799-17.933 100.596zM816.506 562.722c-37.578-25.513-57.436-17.278-62.668-9.971 2.512-5.118 5.464-9.404 8.73-12.946 5.646-23.881 23.503-72.524 49.766-76.056a55.04 55.04 0 015.012-.442c7.312-17.271 30.741-48.999 65.96-37.741-12.813 2.459-39.401 10.18-43.241 21.391 8.418-4.443 26.965-10.359 33.812 1.525-8.364-1.317-26.575-1.882-32.502 6.394 8.579-1.419 28.338.397 38.74 19.015-13.004-7.023-40.44-18.589-46.148-8.669 20.711 5.734 33.689 22.359 32.931 27.127-13.422-10.193-43.827-27.892-58.069-17.148 18.26 3.185 56.684 16.157 64.306 42.557-22.194-15.311-69.888-41.319-83.105-22.861 27.868 6.576 88.805 29.037 109.61 66.274-32.592-25.666-105.636-65.871-137.072-21.366 21.455-23.272 56.482-14.479 69.634.997 12.123 14.266 38.995 34.905 50.916 43.441-6.547 3.457-29.035 3.991-66.612-21.521z"/>
      </g>
      <path fill="#8A6564" d="M779.906 553.622c-.946 13.716-5.676 41.999-17.027 45.405-14.19 4.257-22.703-2.838-22.703-8.514 0-4.54-2.838-26.486-4.257-36.891-1.419-1.419-3.689-5.109-1.419-8.514 13.716.946 42 2.27 45.406 0 4.256-2.838 2.837 7.695 0 8.514z" class="Vector 3_2"/>
    </g>
    <g class="book inside">
      <path fill="#fff" d="M556 459.445V214.932l143.594 80.664V542L556 459.445z" class="Vector 2.2"/>
      <path fill="#B7CFFD" d="M699.594 295.596V542l9.405-7.563V289.294l-9.405 6.302z" class="Vector 2.6"/>
      <path fill="#DAE4FA" d="M709 289.294l-9.406 6.302L556 214.932 566.66 208 709 289.294z" class="Vector 2.5"/>
    </g>
    <g class="book inside_2">
      <path fill="#fff" d="M510 462.445V217.932l-143.594 80.664V545L510 462.445z" class="Vector 2.2_2"/>
      <path fill="#B7CFFD" d="M366.406 298.596V545l-9.405-7.563V292.294l9.405 6.302z" class="Vector 2.6_2"/>
      <path fill="#DAE4FA" d="M357 292.294l9.406 6.302L510 217.932 499.34 211 357 292.294z" class="Vector 2.5_2"/>
    </g>
    <path fill="#4B5361" d="M414.671 376.958c.884.667 1.929 1.199 3.15 1.578 3.069.952 6.255 1.252 9.453.977 11.286-.969 22.727-9.097 29.732-20.991l-9.525-7.505c-6.466 13.682-17.894 21.154-27.1 24.392a38.502 38.502 0 01-5.71 1.549z" class="Vector 2.12"/>
    <path fill="#B6C7E5" d="M417.82 410.433c28.028-6.398 46.706-24.673 57.698-45.031l-18.514-6.88c-7.005 11.894-18.445 20.022-29.732 20.991l-9.452 30.92z" class="Vector 2.11"/>
    <path fill="#605E5E" d="M451.849 316.12c1.92 14.589-.185 26.044-4.369 34.897l9.525 7.505c4.052-6.88 6.621-15.02 6.816-23.765.155-6.907-1.386-11.479-3.853-14.385-2.167-2.553-5.048-3.82-8.119-4.252z" class="Vector 2.10"/>
    <path fill="#C4C4C4" d="M457.005 358.522c4.052-6.88 6.621-15.021 6.816-23.765.155-6.907-1.386-11.479-3.853-14.385l22.128-24.857c.676.91 1.307 1.898 1.89 2.968 6.998 12.848 5.254 41.506-8.468 66.919l-18.513-6.88z" class="Vector 2.9"/>
    <path fill="#EE7E79" d="M437.985 291.603c8.637-4.204 25.489-8.886 37.32-2.132a669.72 669.72 0 013.09 2.132 21.893 21.893 0 00-3.09-2.132c-6.149-4.217-15.03-10.157-17.155-11.001-1.891-.751-15.137-1.728-30.877 6.948l10.712 6.185z" class="Vector 2.8"/>
    <path fill="#EDC7C5" d="M451.848 316.12c-4.827-.681-10.125.698-13.863 2.376v-26.893c9.421-4.586 28.618-9.74 40.409 0a22.288 22.288 0 013.702 3.912l-22.128 24.857c-2.167-2.553-5.048-3.82-8.12-4.252z" class="Vector 2.7"/>
    <path fill="#FFCB56" d="M437.984 291.603c-13.863 8.13-27.096 18.138-42.85 48.158-11.367 21.66-8.299 52.111 4.233 65.042-22.864-7.505-29.439-43.153-4.233-86.307 10.075-17.248 21.659-27.302 32.138-33.078l10.712 6.185z" class="Vector 2.6_3"/>
    <path fill="#FFEEC7" d="M414.669 376.958c.884.667 1.929 1.199 3.151 1.578 3.068.952 6.254 1.252 9.452.977l-9.452 30.92c-7.371 1.742-13.617-.639-18.453-5.63-12.532-12.931-15.6-43.382-4.233-65.042 15.754-30.02 28.987-40.028 42.85-48.158v26.893c-11.839 5.316-37.026 48.112-23.315 58.462z" class="Vector 2.5_3"/>
    <g class="box 1">
      <path fill="#FFCB56" d="M771.559 365.467V410l9.441-5.645v-44.533L683.441 304 674 309.645l97.559 55.822z" class="Vector 3.3"/>
      <path fill="#DAE4FA" d="M771.559 410v-44.533L674 309.645v43.905L771.559 410z" class="Vector 3.6"/>
      <g class="Vector 3.7">
        <path fill="#A4C3FE" d="M728.129 360.45v-8.154l-44.688-25.089v7.527l44.688 25.716zM726.241 376.13v-8.154l-44.689-25.088v7.526l44.689 25.716z"/>
      </g>
    </g>
    <g class="box 1.1">
      <path fill="#FFCB56" d="M717.559 413.467V458l9.441-5.645v-44.533L629.441 352 620 357.645l97.559 55.822z" class="Vector 3.3_2"/>
      <path fill="#DAE4FA" d="M717.559 458v-44.533L620 357.645v43.905L717.559 458z" class="Vector 3.6_2"/>
      <g class="Vector 3.7_2">
        <path fill="#A4C3FE" d="M674.129 408.45v-8.154l-44.688-25.089v7.527l44.688 25.716zM672.241 424.13v-8.154l-44.689-25.088v7.526l44.689 25.716z"/>
      </g>
    </g>
    <g class="box 1.2">
      <path fill="#FFCB56" d="M664.559 461.467V506l9.441-5.645v-44.533L576.441 400 567 405.645l97.559 55.822z" class="Vector 3.3_3"/>
      <path fill="#DAE4FA" d="M664.559 506v-44.533L567 405.645v43.905L664.559 506z" class="Vector 3.6_3"/>
      <g class="Vector 3.7_3">
        <path fill="#A4C3FE" d="M621.129 456.45v-8.154l-44.688-25.089v7.527l44.688 25.716zM619.241 472.13v-8.154l-44.689-25.088v7.526l44.689 25.716z"/>
      </g>
    </g>
    <path fill="#C4C4C4" d="M385 466v-18.154L490 389v16.276L385 466z" class="Vector 4.2"/>
    <path fill="#C4C4C4" d="M386 502v-18.154L491 425v16.276L386 502z" class="Vector 4.3"/>
  </g>
</svg>
