<svg xmlns="http://www.w3.org/2000/svg" width="1152" height="700" fill="none" viewBox="0 0 1152 700">
  <g class="presentation">
    <path fill="#fff" d="M0 0h1152v700H0z"/>
    <g class="Shadow">
      <ellipse cx="416" cy="578" fill="#000" fill-opacity=".1" class="shadow" rx="88" ry="23"/>
      <ellipse cx="735" cy="578" fill="#000" fill-opacity=".1" class="shadow_2" rx="88" ry="23"/>
    </g>
    <g class="Shoes">
      <g class="Shoes_2">
        <path fill="#4B5361" d="M471.144 533.076c.93-7.442-3.333-22.015-5.581-28.371 3.333 1.628 11.534 6 17.673 10.465 7.675 5.581 27.209-1.163 27.209 3.023s-40.464 24.185-39.301 14.883zM410.914 562.842c0-6.325 2.946-20.464 4.418-26.743h10c2.17 10.852 5.721 32.789 2.558 33.72-3.953 1.162-16.976.93-16.976-6.977z"/>
      </g>
      <g class="Shoes_3">
        <path fill="#4B5361" d="M674.806 535.377c-.93-7.442 3.333-22.015 5.581-28.371-3.333 1.628-11.534 6-17.673 10.465-7.674 5.581-27.208-1.163-27.208 3.023s40.463 24.185 39.3 14.883zM735.036 565.143c0-6.325-2.945-20.464-4.418-26.743h-10c-2.17 10.852-5.721 32.789-2.558 33.719 3.953 1.163 16.976.93 16.976-6.976z"/>
      </g>
    </g>
    <path fill="#79A1EE" fill-rule="evenodd" d="M565.717 98h-12.22v22.695H337.599v9.893h10.475v224.627h-11.638v15.712h182.429c-.38 6.409-2.371 14.257-8.431 14.257h19.494c2.005-3.15 5.045-9.291 5.189-14.257h46.326c.222 4.928 3.205 10.941 5.181 14.046h19.495c-5.994 0-8.008-7.677-8.419-14.046h182.169v-15.712H768.23V130.588h12.803v-9.893H565.717V98zM376.265 417.499c-3.566 2.945-10.697 9.999-10.697 14.65 0 .909-.102 2.282-.227 3.957-.673 9.042-1.997 26.848 8.598 27.437 5.854.325 17.719.701 29.121.562l7.622 77.343h18.604l8.473-70.097c8.302 15.172 20.64 35.164 27.241 45.649 7.287 1.395 17.725-2.435 17.539-5.784-.232-4.186-27.44-76.043-30.231-79.066-1.932-2.093-10.741.192-16.593 2.152-.89-3.973-2.482-8.278-5.034-12.85-8.93-15.999-39.998-9.302-54.416-3.953zm404.118 16.951c0-4.651-7.131-11.705-10.697-14.651-14.418-5.348-45.486-12.046-54.416 3.954-2.656 4.758-4.271 9.226-5.139 13.333-5.846-1.981-14.93-4.384-16.897-2.254-2.79 3.023-29.998 74.88-30.231 79.066-.186 3.349 8.302 7.878 15.589 6.483 1.345-2.137 2.96-4.679 4.754-7.504l.003-.004.001-.002c7.188-11.316 17.249-27.154 24.349-39.539l8.558 70.797h18.604l7.66-77.728c11.514.152 23.574-.228 29.491-.557 10.595-.589 9.271-18.395 8.598-27.437v-.001c-.125-1.674-.227-3.048-.227-3.956z" class="Primary" clip-rule="evenodd"/>
    <g class="presentation board" opacity=".5">
      <path fill="#EDF3FF" d="M348.074 120.695H768.23v239.757H348.074z" class="Rectangle"/>
      <path fill="#EE7E79" d="M553.497 98h12.221v32.588h-12.221z" class="Rectangle 3"/>
      <g class="Group">
        <path fill="#EE7E79" d="M510.434 385.185c7.681 0 8.826-12.609 8.438-18.913 3.685-2.037 11.871-4.889 15.13 0 3.259 4.888-1.358 14.645-4.074 18.913h-19.494z" class="Vector 7"/>
        <path fill="#EE7E79" d="M606.119 384.974c-7.681 0-8.826-12.608-8.438-18.913-3.685-2.037-11.871-4.888-15.13 0-3.259 4.888 1.358 14.646 4.073 18.913h19.495z" class="Vector 7.1"/>
      </g>
      <path fill="#EE7E79" d="M337.6 120.695h443.433v9.893H337.6z" class="Rectangle 2"/>
      <path fill="#EE7E79" d="M336.436 355.214h443.433v15.712H336.436z" class="Rectangle 2.1"/>
    </g>
    <path fill="#5CC988" fill-rule="evenodd" d="M407.659 342.618c-9.767-.62-30.929.744-37.441 11.162-8.139 13.023-15.58 32.79-15.58 41.859 0 9.069 15.115 25.115 24.882 27.441l.278.066c10.025 2.388 38.41 9.149 47.395-.066l.581-.597c8.966-9.189 19.824-20.318 17.092-30.332-.328-1.205-.673-2.764-1.075-4.584-3.014-13.634-9.255-41.872-36.132-44.949zm330.633 2.301c9.767-.62 30.929.744 37.44 11.162 8.139 13.023 15.581 32.789 15.581 41.859 0 9.069-15.116 25.115-24.883 27.44l-.278.067c-10.024 2.387-38.409 9.149-47.394-.067l-.582-.596c-8.966-9.19-19.823-20.318-17.092-30.332.329-1.205.674-2.765 1.076-4.584 3.013-13.634 9.255-41.872 36.132-44.949z" class="Secondary" clip-rule="evenodd"/>
    <g class="woman 1">
      <g class="Pant" opacity=".2">
        <path fill="#A79595" d="M433.239 435.173c5.426-2.015 16.837-5.441 19.069-3.023 2.791 3.023 29.999 74.88 30.231 79.066.186 3.349-10.252 7.179-17.539 5.784-6.601-10.485-18.939-30.477-27.241-45.649l-8.473 70.097h-18.604l-7.907-80.23 28.18-3.388c-1.063-2.492-1.669-4.38-1.669-5.448 0-6.884 2.635-14.341 3.953-17.209z" class="Vector 3"/>
        <path fill="#A79595" d="M365.568 432.149c0-4.651 7.132-11.705 10.697-14.65 14.418-5.349 45.487-12.046 54.417 3.953 11.162 19.999 3.953 34.882 0 39.301-3.954 4.418-44.185 3.488-56.742 2.79-12.558-.698-8.372-25.58-8.372-31.394z" class="Vector 3_2"/>
      </g>
      <path fill="#FFEEC7" d="M371.381 429.591c-5.581-2.418-7.286-25.967-7.441-37.44h71.392c.372 8.93 0 37.44-6.511 37.44h-24.418v34.185h36.975c-6.201 6.356-22.878 17.225-40.23 18.604v70.694c0 13.427 37.207 12.427 37.207 18.837h-75.81c0-4.41 29.955-6.91 36.045-16.891v-72.779c-16.457-1.419-32.731-12.717-39.069-18.465h35.58v-34.185h-23.72z" class="Chair"/>
      <ellipse cx="408.356" cy="309.132" fill="#EDC7C5" class="Ellipse" rx="8.604" ry="13.023"/>
    </g>
    <g class="woman 2">
      <path fill="#4B5361" d="M380.915 303.551c0-9.302 14.418-15.659 21.627-17.674 2.791 0 8.465 1.674 8.837 8.372.465 8.371-8.089 12.6-10.88 17.251-2.79 4.651 23.437 25.538 15.066 25.538-8.372 0-27.906 15.813-43.952 24.185-16.046 8.371-26.743-4.186-26.743-11.628 0-5.953 10.852-10.852 16.279-12.557-5.117-12.558-1.628-16.046 10.464-17.674 12.093-1.628 9.302-4.186 9.302-15.813z" class="Vector"/>
      <g class="Group_2" opacity=".5">
        <path fill="#A4C3FE" d="M712.303 437.855c-5.426-2.015-16.837-5.442-19.069-3.023-2.791 3.023-29.999 74.88-30.231 79.066-.186 3.349 8.302 7.878 15.588 6.483 6.734-10.695 20.233-31.569 29.107-47.049l8.558 70.797h18.604l7.907-80.229-28.28-3.401c1.126-2.491 1.769-4.376 1.769-5.436 0-6.883-2.635-14.34-3.953-17.208z" class="Vector 3_3"/>
        <path fill="#A4C3FE" d="M780.383 434.45c0-4.651-7.131-11.705-10.697-14.651-14.418-5.348-45.487-12.046-54.416 3.954-11.163 19.999-3.954 34.882 0 39.3 3.953 4.419 44.184 3.489 56.741 2.791 12.558-.698 8.372-25.58 8.372-31.394z" class="Vector 3_4"/>
      </g>
      <path fill="#4B5361" d="M775.732 356.081c-6.512-10.418-27.673-11.782-37.44-11.162-30.464 3.488-34.418 39.3-37.208 49.533-2.791 10.232 8.604 21.626 17.674 30.928 8.984 9.216 37.369 2.454 47.394.067l.278-.067c9.767-2.325 24.882-18.371 24.882-27.44 0-9.07-7.441-28.836-15.58-41.859z" class="Vector 2.1" opacity=".8"/>
      <path fill="#FFEEC7" d="M717.38 431.591c-5.581-2.419-7.286-25.968-7.441-37.441h71.392c.372 8.93 0 37.441-6.511 37.441h-24.418v34.184h36.975c-6.201 6.357-22.878 17.225-40.23 18.604v70.695c0 13.426 37.207 12.426 37.207 18.836h-75.81c0-4.41 29.955-6.91 36.045-16.891V484.24c-16.457-1.419-32.73-12.716-39.068-18.465H741.1v-34.184h-23.72z" class="Chair_2"/>
      <ellipse fill="#EDC7C5" class="Ellipse_2" rx="8.604" ry="13.023" transform="matrix(-1 0 0 1 737.594 311.432)"/>
      <path fill="#FFCB56" d="M764.011 304.117c0-9.318-15.292-13.92-22.938-15.939-2.96 0-8.978 1.677-9.372 8.386-.494 8.386 9.372 12.579 12.332 17.238 2.96 4.659-25.651 25.624-16.772 25.624 8.879 0 5.23 43.89 22.248 52.276 17.018 8.386 35.467-21.751 35.467-29.205 0-5.964-24.334-8.808-13.235-17.476 5.426-12.579 5.095-22.182-7.73-23.813-12.826-1.63 0-5.444 0-17.091z" class="Vector_2"/>
    </g>
  </g>
</svg>
