<svg xmlns="http://www.w3.org/2000/svg" width="1152" height="700" fill="none" viewBox="0 0 1152 700">
  <g class="profile">
    <path fill="#fff" d="M0 0h1152v700H0z"/>
    <g class="Group 4">
      <rect width="568.233" height="366.655" x="242" y="150" fill="#E2E7F3" class="Rectangle" rx="4.148"/>
      <circle cx="385.51" cy="333.328" r="91.249" fill="#FFF9EA" class="Ellipse"/>
      <g class="Group 3">
        <rect width="211.532" height="20.738" x="525.702" y="242.079" fill="#FFFEFE" class="Rectangle 2" rx="10.369"/>
        <rect width="140.192" height="14.102" x="525.702" y="271.942" fill="#FFFEFE" class="Rectangle 2.1" rx="7.051"/>
        <rect width="67.192" height="14.102" x="670.042" y="271.942" fill="#FFFEFE" class="Rectangle 2.2" rx="7.051"/>
        <rect width="67.192" height="14.102" x="525.702" y="333.328" fill="#FFFEFE" class="Rectangle 2.3" rx="7.051"/>
        <rect width="28.204" height="14.102" x="595.383" y="333.328" fill="#FFFEFE" class="Rectangle 2.6" rx="7.051"/>
        <rect width="97.885" height="14.102" x="525.702" y="355.725" fill="#FFFEFE" class="Rectangle 2.4" rx="7.051"/>
        <rect width="211.532" height="7.466" x="525.702" y="394.713" fill="#FFFEFE" class="Rectangle 2.5" rx="3.733"/>
        <rect width="211.532" height="7.466" x="525.702" y="410.474" fill="#FFFEFE" class="Rectangle 2.7" rx="3.733"/>
        <rect width="181.669" height="7.466" x="525.702" y="426.236" fill="#FFFEFE" class="Rectangle 2.8" rx="3.733"/>
        <rect width="140.192" height="7.466" x="525.702" y="441.997" fill="#FFFEFE" class="Rectangle 2.9" rx="3.733"/>
      </g>
      <g class="Group 2">
        <path fill="#8E8DE6" d="M416.618 380.611c-16.438-13.16-50.187-4.075-54.75 0-12.035 10.75-11.613 36.5-11.613 36.5 36.168 16.59 70.096 3.318 82.539-5.392 0 0-4.695-21.916-16.176-31.108z" class="Vector 2"/>
        <path fill="#000" fill-rule="evenodd" d="M383.436 286.044c-4.814 0-8.918 2.748-10.501 6.605-1.753-1.03-3.844-1.628-6.09-1.628-6.185 0-11.198 4.536-11.198 10.132 0 .221.007.441.023.658-6.004.187-10.807 4.649-10.807 10.126 0 .606.058 1.199.171 1.776-2.149 1.846-3.49 4.456-3.49 7.349 0 3.429 1.882 6.459 4.763 8.293a9.343 9.343 0 00-1.444 4.98c0 5.596 5.013 10.132 11.198 10.132l.27-.003c6.391 6.885 15.976 11.261 26.69 11.261 12.046 0 22.665-5.531 28.922-13.94a12.36 12.36 0 002.186.193c6.185 0 11.199-4.536 11.199-10.132 0-3.175-1.614-6.009-4.141-7.867 4.346-1.392 7.459-5.144 7.459-9.553 0-5.596-5.014-10.132-11.199-10.132-1.666 0-3.247.329-4.668.919a9.29 9.29 0 00.935-4.06c0-5.596-5.014-10.132-11.199-10.132-3.187 0-6.063 1.205-8.102 3.138-1.034-4.629-5.555-8.115-10.977-8.115z" class="Union" clip-rule="evenodd"/>
        <g class="Group">
          <path fill="#FFC8C8" d="M373.896 377.708v-14.517h26.131v14.517c-6.636 12.609-19.632 5.254-26.131 0z" class="Vector 2_2"/>
          <path fill="#FFD8D8" d="M406.249 316.737l-43.136 7.466s-4.956 23.673 2.488 35.255c6.279 9.769 13.79 12.26 24.471 10.784 8.876-1.226 11.662-3.044 16.177-10.784 4.514-7.739 0-42.721 0-42.721z" class="Vector"/>
        </g>
      </g>
    </g>
    <g class="Group 4.1">
      <rect width="413.962" height="267.111" x="495.838" y="308.442" fill="#69C6CC" class="Rectangle_2" rx="3.022"/>
      <circle cx="600.386" cy="441.997" r="66.476" fill="#FFEAEA" class="Ellipse_2"/>
      <g class="Group 3_2">
        <rect width="154.102" height="15.108" x="702.518" y="375.521" fill="#FFFEFE" class="Rectangle 2_2" rx="7.554"/>
        <rect width="102.131" height="10.274" x="702.517" y="397.277" fill="#FFFEFE" class="Rectangle 2.1_2" rx="5.137"/>
        <rect width="48.95" height="10.274" x="807.669" y="397.277" fill="#FFFEFE" class="Rectangle 2.2_2" rx="5.137"/>
        <rect width="48.95" height="10.274" x="702.517" y="441.997" fill="#FFFEFE" class="Rectangle 2.3_2" rx="5.137"/>
        <rect width="20.547" height="10.274" x="753.28" y="441.997" fill="#FFFEFE" class="Rectangle 2.6_2" rx="5.137"/>
        <rect width="71.31" height="10.274" x="702.517" y="458.314" fill="#FFFEFE" class="Rectangle 2.4_2" rx="5.137"/>
        <rect width="154.102" height="5.439" x="702.517" y="486.717" fill="#FFFEFE" class="Rectangle 2.5_2" rx="2.719"/>
        <rect width="154.102" height="5.439" x="702.517" y="498.198" fill="#FFFEFE" class="Rectangle 2.7_2" rx="2.719"/>
        <rect width="132.347" height="5.439" x="702.517" y="509.681" fill="#FFFEFE" class="Rectangle 2.8_2" rx="2.719"/>
        <rect width="102.131" height="5.439" x="702.517" y="521.163" fill="#FFFEFE" class="Rectangle 2.9_2" rx="2.719"/>
      </g>
      <g class="Group 2_2">
        <path fill="#2EB0A1" d="M623.048 476.442c-11.975-9.587-36.561-2.969-39.885 0-8.767 7.832-8.461 26.59-8.461 26.59 26.349 12.087 51.066 2.418 60.131-3.928 0 0-3.42-15.965-11.785-22.662z" class="Vector 2_3"/>
        <path fill="#F25DE3" fill-rule="evenodd" d="M598.875 407.55c-3.507 0-6.497 2.002-7.65 4.812a8.748 8.748 0 00-4.436-1.186c-4.506 0-8.159 3.305-8.159 7.382 0 .161.006.32.017.479-4.373.136-7.873 3.387-7.873 7.377 0 .441.043.874.125 1.294-1.566 1.345-2.542 3.246-2.542 5.354 0 2.497 1.371 4.705 3.469 6.041a6.807 6.807 0 00-1.052 3.627c0 4.077 3.653 7.382 8.159 7.382l.196-.002c4.656 5.015 11.638 8.203 19.444 8.203 8.776 0 16.512-4.029 21.07-10.155a9.047 9.047 0 001.592.141c4.506 0 8.159-3.305 8.159-7.382 0-2.313-1.176-4.377-3.016-5.73 3.166-1.015 5.433-3.748 5.433-6.96 0-4.077-3.652-7.381-8.158-7.381a8.856 8.856 0 00-3.401.669 6.76 6.76 0 00.681-2.957c0-4.077-3.652-7.382-8.158-7.382-2.322 0-4.417.878-5.903 2.287-.753-3.373-4.047-5.913-7.997-5.913z" class="Union_2" clip-rule="evenodd"/>
        <g class="Group_2">
          <path fill="#FFC8C8" d="M591.926 474.327v-10.576h19.036v10.576c-4.835 9.186-14.302 3.827-19.036 0z" class="Vector 2_4"/>
          <path fill="#FFD8D8" d="M615.494 429.909l-31.425 5.439s-3.61 17.246 1.813 25.684c4.574 7.117 10.046 8.931 17.828 7.856 6.466-.893 8.495-2.218 11.784-7.856 3.289-5.638 0-31.123 0-31.123z" class="Vector_2"/>
        </g>
      </g>
    </g>
  </g>
</svg>
