<svg xmlns="http://www.w3.org/2000/svg" width="1152" height="700" fill="none" viewBox="0 0 1152 700">
  <g class="profile_two">
    <path fill="#fff" d="M0 0h1152v700H0z"/>
    <g class="chair">
      <path fill="#9BA9C0" d="M890 510V398h10v112c12.833 2.333 37.6 7.3 34 8.5-4.5 1.5-64.5 2-79 0-7-.966 18-6.5 35-8.5z" class="Vector 3"/>
      <ellipse cx="894.5" cy="391" fill="#E2E8F2" class="Ellipse 2" rx="46.5" ry="17"/>
    </g>
    <path fill="#D2E3F9" fill-rule="evenodd" d="M320.774 543L211 161l183.503 22.953 22.143 66.812 9.102 1.089-1.558 12.907-3.027-.366L501 505.292 320.774 543zm593.234-175.993c1 4.667-.2 17.4-13 31-7.271 7.725-14.851 18.96-21.053 30l16.053 15.5c.8 11.6-6.334 16.166-10 17-6.326-3.03-12.052-5.964-17.236-8.809-1.276 3.577-2.073 6.606-2.264 8.809-.8 9.2-5.667 37.833-8 51-2.167 2.5-9.3 6.4-20.5 2 .93-18.822 3.363-50.939 7.368-76.619-22.196-16.711-25.368-30.156-25.368-42.381 0-14 19.666-31.5 29.5-38.5l29 2.5 35.5 8.5z" class="Secondary" clip-rule="evenodd"/>
    <g class="screen">
      <path fill="#DAE4FA" d="M320.774 543L211 161l183.503 22.953L501 505.292 320.774 543z" class="Vector" opacity=".2"/>
      <path fill="#fff" d="M269.538 233.168l156.211 18.686-1.558 12.907-150.653-18.186-4-13.407z" class="Rectangle 2.2"/>
      <path fill="#fff" d="M282.538 304.168l156.211 18.686-1.558 12.907-150.653-18.186-4-13.407z" class="Rectangle 2.3"/>
      <path fill="#fff" d="M323 486l35-5 12.5 33.5-36 7.5-11.5-36z" class="Rectangle 3.3"/>
      <path fill="#fff" d="M378 477l35-5 12.5 33.5-36 7.5-11.5-36z" class="Rectangle 3.4"/>
      <path fill="#fff" d="M432 469l35-5 12.5 33.5-36 7.5-11.5-36z" class="Rectangle 3.5"/>
    </g>
    <path fill="#637CAC" fill-opacity=".2" d="M901.008 398.007c12.8-13.6 14-26.333 13-31l-35.5-8.5-29-2.5c-9.833 7-29.5 24.5-29.5 38.5 0 12.225 3.172 25.67 25.369 42.381-4.006 25.68-6.438 57.797-7.369 76.619 11.2 4.4 18.333.5 20.5-2 2.333-13.167 7.2-41.8 8-51 .192-2.203.989-5.232 2.265-8.809 5.183 2.845 10.91 5.779 17.235 8.809 3.667-.833 10.8-5.4 10-17l-16.052-15.5c6.201-11.04 13.781-22.275 21.052-30z" class="Pant"/>
    <g class="add">
      <path stroke="#5B8FF1" d="M778 195v30m-13-15.385h26" class="Vector 2.1"/>
      <path stroke="#5B8FF1" stroke-dasharray="4 4" d="M822.739 201.072c.115 1.303.193 2.619.232 3.947l-.5.015a67.52 67.52 0 010 3.932l.5.015a67.393 67.393 0 01-.232 3.947l-.498-.044a65.884 65.884 0 01-.464 3.899l.494.074a63.646 63.646 0 01-.704 3.889l-.489-.104a62.788 62.788 0 01-.936 3.814l.481.134a61.936 61.936 0 01-1.182 3.771l-.472-.164a60.568 60.568 0 01-1.413 3.662l.46.195a59.186 59.186 0 01-1.664 3.586l-.446-.226a57.106 57.106 0 01-1.889 3.438l.429.256a55.433 55.433 0 01-2.143 3.322l-.41-.286a52.304 52.304 0 01-2.359 3.128l.388.316a51.039 51.039 0 01-2.615 2.968l-.362-.345a48.313 48.313 0 01-2.812 2.721l.332.373a46.07 46.07 0 01-3.062 2.503l-.299-.401a43.215 43.215 0 01-3.233 2.2l.262.426a42.182 42.182 0 01-3.459 1.914l-.221-.448a39.908 39.908 0 01-3.583 1.554l.177.468c-1.234.465-2.49.867-3.766 1.205l-.128-.483a37.715 37.715 0 01-3.818.803l.077.494c-1.295.203-2.607.34-3.933.409l-.026-.499a38.393 38.393 0 01-3.906 0l-.026.499a38.211 38.211 0 01-3.933-.409l.077-.494a37.715 37.715 0 01-3.818-.803l-.128.483a38.988 38.988 0 01-3.766-1.205l.177-.468a39.908 39.908 0 01-3.583-1.554l-.221.448a42.182 42.182 0 01-3.459-1.914l.262-.426a43.215 43.215 0 01-3.233-2.2l-.299.401a46.07 46.07 0 01-3.062-2.503l.332-.373a48.313 48.313 0 01-2.812-2.721l-.362.345a51.039 51.039 0 01-2.615-2.968l.388-.316a52.304 52.304 0 01-2.359-3.128l-.41.286a55.433 55.433 0 01-2.143-3.322l.429-.256a57.106 57.106 0 01-1.889-3.438l-.446.226a59.186 59.186 0 01-1.664-3.586l.46-.195a60.568 60.568 0 01-1.413-3.662l-.472.164a61.936 61.936 0 01-1.182-3.771l.481-.134a62.788 62.788 0 01-.936-3.814l-.489.104a63.646 63.646 0 01-.704-3.889l.494-.074a65.818 65.818 0 01-.464-3.9l-.498.045a67.393 67.393 0 01-.232-3.947l.5-.015a67.52 67.52 0 010-3.932l-.5-.015c.039-1.328.117-2.644.232-3.947l.498.044c.117-1.314.272-2.615.464-3.899l-.494-.074c.196-1.313.431-2.61.704-3.889l.489.104c.274-1.29.587-2.562.936-3.814l-.481-.134a61.936 61.936 0 011.182-3.771l.472.164a60.568 60.568 0 011.413-3.662l-.46-.195a59.186 59.186 0 011.664-3.586l.446.226a57.106 57.106 0 011.889-3.438l-.429-.256a55.433 55.433 0 012.143-3.322l.41.286a52.304 52.304 0 012.359-3.128l-.388-.316a51.039 51.039 0 012.615-2.968l.362.345a48.313 48.313 0 012.812-2.721l-.332-.373a46.07 46.07 0 013.062-2.503l.299.401a43.215 43.215 0 013.233-2.2l-.262-.426a42.182 42.182 0 013.459-1.914l.221.448a39.908 39.908 0 013.583-1.554l-.177-.468a38.988 38.988 0 013.766-1.205l.128.483a37.715 37.715 0 013.818-.803l-.077-.494a38.211 38.211 0 013.933-.409l.026.499a38.393 38.393 0 013.906 0l.026-.499c1.326.069 2.638.206 3.933.409l-.077.494c1.29.202 2.564.471 3.818.803l.128-.483c1.276.338 2.532.74 3.766 1.205l-.177.468c1.217.458 2.412.977 3.583 1.554l.221-.448a42.182 42.182 0 013.459 1.914l-.262.426a43.215 43.215 0 013.233 2.2l.299-.401a46.07 46.07 0 013.062 2.503l-.332.373c.967.862 1.905 1.77 2.812 2.721l.362-.345a51.039 51.039 0 012.615 2.968l-.388.316a52.304 52.304 0 012.359 3.128l.41-.286a55.433 55.433 0 012.143 3.322l-.429.256a57.106 57.106 0 011.889 3.438l.446-.226a59.186 59.186 0 011.664 3.586l-.46.195a60.568 60.568 0 011.413 3.662l.472-.164a61.936 61.936 0 011.182 3.771l-.481.134c.349 1.252.662 2.524.936 3.814l.489-.104c.273 1.279.508 2.576.704 3.889l-.494.074c.192 1.284.347 2.585.464 3.9l.498-.045z" class="Ellipse"/>
    </g>
    <g class="guy sitting">
      <g class="Vector 3_2">
        <path fill="#EDC7C5" d="M863.508 291.007c8.4 8.8 13.5-.334 15-6-.334-1.834-1-5.9-1-7.5 0-2-3.361-4.786-2-7.507 2-4 3-6.993 0-6.493s-4-1.5-2.5-5-8-12.5-10.5-12.5-2.5 4-4.5 6.5-6.5 4.5-8 5c-1.2.4.833 2.5 2 3.5-2.667 1.833-5.8 6.7 3 11.5s9.333 14.333 8.5 18.5zM781.008 231.507c.4 3.6 8.833 2.5 13 1.5.333-.834 1.9-3.1 5.5-5.5 4.5-3 6-13.5 5-15s-2.627 2.493-5 7.993c-1.508 3.493-5.5 5-7.508 5-.78-1.272 1.533-4.333 2.008-5.993 1-3.5-2.5-5.5-3-2.5s-10.5 10-10 14.5zM818.008 347.007c2.492-1.007 3.333-5.167 5-7-.364-2.91-6.508-8.007-7.508-11.507 0-3.5-2.844-1.189-2.5 1 .346 2.202 1.144 4.802 1.008 5.007-.536.804-4.438-.175-6.008-3.007-1.357-2.449-1.038-6.5-2-9-1.492-3.88-4 2.5-1.492 15 .793 3.952 12.109 10.069 13.5 9.507zM856.508 521.007c-1.2-1.6-2.167-8.334-2.5-11.5-3.334-2-9.8-4.3-9 2.5 1 8.5-3.5 6-3.5 12s16.5-1 15-3zM896.508 446.507c4.8 3.2 9.333 6 11 5 3 1-1.5 15.5-1.5 14s-6.5-7.5-13-7.5-2.5-15.5 3.5-11.5z"/>
      </g>
      <path fill="#4B5361" d="M871.508 274.507c.4 2.8 6.5 2.5 9.5 2 9.5-3.5 12-13 12.5-18.5s-1.218-4.614-3.008-5.507c-2.992-1.493-1.5-1-4.492-3.493-3.918-3.264-7-9.5-10.5-9.5s-4.5-3.5-8-6.5-4-2.5-5 1-1.5-2-5-2-3.5 4.5-2.5 10 12 8 14.5 11.5 1.5 10 1.5 11.5 5-2 5.5.5-5.5 5.5-5 9z" class="Vector 6"/>
      <g class="Vector 7">
        <path fill="#DAE4FA" d="M859.008 525.507c1.2-3.6-1.834-7.167-3.5-8.5-6 7-14 0-16.5 1.5s-3 7-5.5 14-14 14.5-9 14.5c13 .5 33-17 34.5-21.5zM917.508 450.007c0-2-8.667-.834-13 0 1.5.999 0 2.5 0 6s-3 7.5-2.5 10 2.5 24 9 28 6.5-41.5 6.5-44z"/>
      </g>
    </g>
    <path fill="#E25E58" fill-rule="evenodd" d="M669 288c28.719 0 52-28.206 52-63s-23.281-63-52-63-52 28.206-52 63 23.281 63 52 63zm-196-16.5c0 50.534-33.355 91.5-74.5 91.5S324 322.034 324 271.5s33.355-91.5 74.5-91.5 74.5 40.966 74.5 91.5zM606 243c0 40.317-27.311 73-61 73s-61-32.683-61-73 27.311-73 61-73 61 32.683 61 73zm255.008 46.007c12 4 16.666-1.667 17.5-5 30.5-3.5 41 75.5 37.5 85.5s-34.5-1-47.5-8c-8.081-4.351-13.264-4.452-16.03-4.506-1.683-.033-2.47-.048-2.47-.994 0-1.071-5.412-1.133-11.914-1.207-8.678-.099-19.3-.221-21.586-2.793-4-4.5 3-14 5.5-15.5 1.027-.617 6.873-.135 13.401.403 9.349.771 20.099 1.658 20.099-.403 0-2.8 3.666-18.167 5.5-25.5-58.5-1-82.5-74.5-82-79.5.4-4 10.833-1.667 16 0 18.888 44.367 43.952 51.299 59.933 55.719 2.209.611 4.245 1.174 6.067 1.781zM501.651 497.694c-10.22-10.941-28.183-30.957-28.651-34.704 6.03 1.005 20.216 9.378 29.582 34.734l.219.006c-.379-1.668-.84-3.576-1.373-5.642-6.444-11.623-14.278-26.923-14.278-31.559 1.373.853 2.97 2.03 4.647 3.507-1.479-3.08-3.039-5.777-4.647-7.814 4.307 1.641 13.535 6.522 15.996 12.92 1.142 2.969 1.445 8.085 1.339 13.453a37.556 37.556 0 012.03 15.205 78.676 78.676 0 003.701-.052c-.08-1.4-.034-2.732.122-3.997 1.69-13.62 16.257-19.362 24.8-17.226 7.875 1.969 22.559 2.461 28.916 2.461-1.435 2.871-9.228 8.736-28.916 9.228-15.619.391-21.945 5.454-23.892 9.476 1.254-.09 2.148-.239 2.494-.467 1.996-1.31 1.331 3.553 0 3.931-.225 1.306-.558 3.135-.919 5.123-.844 4.642-1.846 10.153-2.018 11.91l-.031.335c-.209 2.291-.317 3.478-7.615 3.478-7.647 0-8.044-1.192-8.044-3.813 0-2.096-1.331-12.229-1.996-17.033-.665-.655-1.73-2.358-.665-3.931.332.023.682.046 1.048.069-5.653-3.745-12.022-9.14-13.732-14.615 4.424 2.723 13.114 8.892 17.912 14.85 1.285.063 2.63.121 3.971.167zm8.687-3.943c-4.038-9.843-10.022-31.499-1.655-39.374a23.991 23.991 0 011.655-1.421c-1.782-7.935-1.532-25.034 13.726-29.956-3.896 4.102-11.32 13.535-9.844 18.457 1.846-3.691 6.891-10.459 12.305-7.998-3.281 1.647-9.844 6.045-9.844 10.459 2.666-2.666 10.09-7.014 18.457-3.076-6.357.807-18.949 3.655-18.457 8.593 8.749-3.207 17.521-.622 18.457 1.25-7.305-.205-22.491 1.231-24.8 8.614 7.242-3.487 24.062-8.614 33.413-1.231-11.689.205-35.068 3.076-35.068 12.92 11.485-4.717 38.637-12.182 55.371-4.307-17.969-.82-53.868 3.446-53.716 27.07zm-5.704 4.024c-.345-.601-.701-1.226-1.066-1.87-.073.646-.146 1.261-.218 1.841.432.011.86.021 1.284.029z" class="Primary" clip-rule="evenodd"/>
    <g class="girl 2">
      <mask id="a" width="104" height="126" x="617" y="162" class="mask0" maskUnits="userSpaceOnUse">
        <ellipse cx="669" cy="225" fill="#FFCB56" class="Ellipse_2" rx="52" ry="63"/>
      </mask>
      <g class="girl 2_2" mask="url(#a)">
        <path fill="#B7CFFD" d="M677.731 181.51c-13.545-6.059-32.08 7.574-39.654 15.149-9.802 6.683 1.337 22.277-5.792 23.168-7.129.891-7.575 11.585-2.673 16.486 3.92 3.92 1.633 7.871 0 9.356-4.01 3.565-9.09 11.941 2.673 16.931 27.624 13.367 56.139-20.495 53.466-28.07-2.673-7.574 2.673-16.485 6.683-20.049 4.01-3.565 6.238-20.05-4.01-23.169-10.247-3.119-6.238-8.02-10.693-9.802z" class="color 2"/>
        <g class="Ellipse_3">
          <path fill="#8A6564" d="M683.077 205.569c0-7.628-4.389-13.812-9.802-13.812-4.653 0-8.548 4.567-9.552 10.694-1.271 0-3.458.802-2.033 4.009 1.426 3.208 2.13 3.713 2.304 3.565l-.271 20.495c2.293 4.901 7.591 11.585 10.443-.891v-10.304c4.996-.634 8.911-6.551 8.911-13.756zM643.759 282.194h-13.812c2.971-7.426 10-26.456 10.357-27.168.445-.892 13.812-.446 12.921 4.009-.713 3.565-6.941 18.258-9.466 23.159zM712.483 278.194L698.999 280l-7.5-19.5c2.079-1.634 10.113-4.762 12.964-1.91 2.852 2.851 6.535 14.258 8.02 19.604z"/>
        </g>
        <path fill="#EDC7C5" d="M675.057 229.184c-5.346 3.564-9.951 1.485-11.584 0-9.624-.713-21.238 19.01-25.842 28.961l10.693 3.119.891 27.736h44.11v-25.954l13.812-2.673c-1.337-9.803-25.397-35.645-32.08-31.189z" class="Vector 3_3"/>
        <path fill="#000" fill-opacity=".1" d="M675.057 229.184c-5.346 3.564-9.951 1.485-11.584 0-9.624-.713-21.238 19.01-25.842 28.961l10.693 3.119.891 27.736h44.11v-25.954l13.812-2.673c-1.337-9.803-25.397-35.645-32.08-31.189z" class="Color"/>
      </g>
    </g>
    <g class="girl 1">
      <mask id="b" width="149" height="183" x="324" y="180" class="mask1" maskUnits="userSpaceOnUse">
        <ellipse cx="398.5" cy="271.5" fill="#C4C4C4" class="Ellipse_4" rx="74.5" ry="91.5"/>
      </mask>
      <g class="girl" mask="url(#b)">
        <path fill="#4B5361" d="M420.608 233.12c5.181 8.808 0 17.486-3.238 20.724-11.01 15.543 0 25.906 6.476 40.802 6.477 14.896 1.296 51.164-52.459 38.858-53.754-12.305-13.6-53.106-3.238-60.878 10.362-7.771-.647-21.372 11.01-36.268 11.658-14.896 34.973-14.248 41.449-3.238z" class="Vector 5"/>
        <g class="Ellipse_5">
          <path fill="#EDC7C5" d="M390.17 258.378c-2.073-4.663 1.106-5.829 2.955-5.829 4.412-.991 14.531-5.137 19.712-13.792 4.963 3.139 8.419 10.164 8.419 18.326 0 10.473-5.69 19.073-12.952 19.995v14.977c-4.145 18.134-11.847 8.42-15.179 1.296l.393-29.792c-.253.216-1.276-.518-3.348-5.181zM365.559 362.648h-20.077c4.318-10.794 13.083-32.641 13.601-33.677.648-1.295 20.077-.648 18.781 5.829-1.036 5.181-8.635 20.724-12.305 27.848zM464.001 362.648h-18.782L433.501 334.8c3.022-2.375 14.697-4.793 18.842-.648 4.145 4.145 9.499 20.724 11.658 28.496z"/>
        </g>
        <path fill="#FFCB56" d="M408.951 290.856c-7.772 5.181-14.464 2.159-16.839 0-13.989-1.036-30.871 27.633-37.563 42.097l19.543 6.533-.705 25.611h64.117l-2-25.02 20.077-3.886c-1.943-14.248-36.916-51.811-46.63-45.335z" class="Shirt"/>
        <path fill="#000" fill-opacity=".1" d="M408.951 290.856c-7.772 5.181-14.464 2.159-16.839 0-13.989-1.036-30.871 27.633-37.563 42.097l19.543 6.533-.705 25.611h64.117l-2-25.02 20.077-3.886c-1.943-14.248-36.916-51.811-46.63-45.335z" class="Color_2"/>
      </g>
    </g>
    <g class="guy">
      <mask id="c" width="122" height="146" x="484" y="170" class="mask2" maskUnits="userSpaceOnUse">
        <ellipse cx="545" cy="243" fill="#B7CFFD" class="Ellipse_6" rx="61" ry="73"/>
      </mask>
      <g class="guy_2" mask="url(#c)">
        <path fill="#4B5361" d="M550 252.435c-6 4-11.167 1.667-13 0-10.8-.8-23.833 21.334-29 32.501l12 3.5 1 29.064h49.5v-27.064l15.5-3.001c-1.5-11-28.5-40-36-35z" class="Vector 3.2"/>
        <path fill="#000" fill-opacity=".1" d="M550 252.435c-6 4-11.167 1.667-13 0-10.8-.8-23.833 21.334-29 32.501l12 3.5 1 29.064h49.5v-27.064l15.5-3.001c-1.5-11-28.5-40-36-35z" class="Color_3"/>
        <path fill="#FFCB56" d="M531.001 210.713c-5.6 15.2 6 24.334 12.5 27 4.333-2.166 13.8-7.8 17-13 4-6.5-1.5-22-2.5-25s-24.5 4-27 11z" class="Hair"/>
        <g class="Ellipse_7">
          <path fill="#CCAAA8" d="M535.5 227.361c-1.6-3.6.854-4.5 2.282-4.5 3.406-.765 11.218-3.966 15.218-10.648 3.832 2.424 6.5 7.847 6.5 14.148 0 8.086-4.394 14.725-10 15.437v11.563c-3.2 14-9.146 6.5-11.718 1l.303-23c-.195.167-.985-.4-2.585-4zM516.5 307.861H501c3.333-8.333 10.1-25.2 10.5-26 .5-1 15.5-.5 14.5 4.5-.8 4-6.667 16-9.5 21.5zM592.5 307.861H578L570 288c2.333-1.833 10.3-5.339 13.5-2.139 3.2 3.2 7.333 16 9 22z"/>
        </g>
      </g>
    </g>
    <g class="plant">
      <g class="Vector 5_2" opacity=".4">
        <path fill="#A9BCE4" d="M500.07 501.134c-5.742-2.871-17.842-10.582-20.302-18.457 5.332 3.282 16.857 11.567 20.302 18.457zM503.146 499.289c-9.843-10.459-29.654-32.362-30.146-36.299 6.152 1.025 20.795 9.721 30.146 36.299-2.256-10.459-8.613-33.715-15.996-43.067 4.307 1.641 13.535 6.522 15.996 12.92 2.461 6.399 1.026 22.764 0 30.147z"/>
      </g>
      <g class="Vector 4" opacity=".2">
        <path fill="#7D8CA6" d="M506.223 500.519c-6.358-10.869-19.073-34.084-19.073-39.99 7.588 4.717 22.026 19.318 19.073 39.99zM535.138 488.214c-19.687.493-24.609 8.409-24.609 12.305-.406-2.438-.448-4.694-.19-6.768-4.038-9.843-10.023-31.499-1.656-39.374a23.771 23.771 0 011.656-1.421c-1.783-7.935-1.533-25.034 13.725-29.956-3.896 4.102-11.32 13.535-9.843 18.457 1.845-3.691 6.89-10.459 12.304-7.998-3.281 1.647-9.844 6.045-9.844 10.459 2.666-2.666 10.09-7.014 18.457-3.076-6.357.807-18.949 3.655-18.457 8.593 8.749-3.207 17.521-.622 18.457 1.25-7.304-.205-22.491 1.231-24.799 8.614 7.241-3.487 24.061-8.614 33.413-1.231-11.69.205-35.069 3.076-35.069 12.92 11.485-4.717 38.637-12.182 55.371-4.307-17.969-.82-53.868 3.446-53.715 27.07 1.689-13.62 16.256-19.362 24.799-17.226 7.875 1.969 22.559 2.461 28.916 2.461-1.435 2.871-9.228 8.736-28.916 9.228z"/>
      </g>
      <path fill="#637CAC" d="M503.157 522c-7.647 0-8.044-1.192-8.044-3.813 0-2.096-1.331-12.229-1.996-17.033-.665-.655-1.73-2.358-.665-3.931 6.431.437 19.692 1.049 21.288 0 1.996-1.31 1.331 3.553 0 3.931-.752 4.352-2.691 14.523-2.937 17.033-.246 2.51 0 3.813-7.646 3.813z" class="Vector 3.1"/>
    </g>
  </g>
</svg>
