<svg xmlns="http://www.w3.org/2000/svg" width="1152" height="700" fill="none" viewBox="0 0 1152 700">
  <g class="secure">
    <path fill="#fff" d="M0 0h1152v700H0z"/>
    <path fill="#ECE6E6" d="M549.223 365.48c-75.616 49.115-241.052 50.114-315.068 73.725-99.521 31.746 0 70.576-53.011 97.599-83.947 42.794 285.061 110.194 561.121 5.772 276.055-104.421-98.521-238.489-193.042-177.096z" class="Vector"/>
    <g class="Group 3.3">
      <path fill="#B6C7E5" d="M314.836 258.876c-9.385 1.524-18.51 16.417-21.899 23.673-1.9 2.298-5.827 5.221-6.333-1.465-.633-8.357-6.998-18.555-12.244-20.281-2.002 5.695-4.634 17.813.851 20.725 6.856 3.639 12.432 17.246 4.827 12.407-7.605-4.839-9.135-15.97-27.948-16.73.715 5.982 5.647 19.987 19.66 28.156 17.515 10.211 12.505 21.368 3.402 14.13-9.103-7.238-16.704-18.747-34.43-19.769.421 7.796 3.997 24.43 14.937 28.603 13.677 5.217 35.107 16.846 30.344 21.903-4.762 5.057-26.261-17.366-37.578-19.471-9.053-1.684-15.439-2.032-17.5-1.996.583 7.833 6.185 24.731 23.931 29.657 22.183 6.159 42.228 14.902 34.692 20.856-7.536 5.955-20.154-14.926-39.004-17.747-15.079-2.257-18.325-.648-18.064.439 1.046 6.572 8.421 20.834 29.556 25.313 26.417 5.599 35.633 12.35 30.758 17.894-4.875 5.543-19.852-18.45-51.898-13.033 2.182 6.834 10.077 21.217 24.197 24.073 17.649 3.57 42.791 12.466 37.353 20.445-5.439 7.98-22.554-13.429-40.992-13.589-14.751-.128-14.866.667-13.08 1.08.022 5.821 3.647 18.395 17.976 22.121 17.912 4.657 51.186 13.894 47.132 24.76-4.053 10.866-15.512-6.154-26.901-12.382-9.112-4.982-23.832-5.684-30.053-5.413 2.144 6.997 9.379 21.569 21.161 23.884 14.726 2.894 47.848 17.228 46.27 24.048-1.578 6.82-15.814-2.632-24.018-7.096-8.205-4.464-20.344-11.891-33.162-9.725-.291 6.434 3.414 20.292 20.561 24.259 21.434 4.959 40.171 8.267 38.142 17.035-2.028 8.769-7.267-6.3-24.506-7.209-13.79-.727-20.687.689-22.411 1.487 1.508 5.31 7.561 16.119 19.703 16.875 15.178.946 37.662 3.581 34.885 11.15-2.778 7.569-14.651-5.442-22.896-5.297-6.596.117-14.541.742-17.689 1.04.497 5.247 7.771 15.654 32.896 15.309 4.534.364 13.086 2 11.015 5.627-2.589 4.533-18.886-4.882-25.146-2.225.298 3.148 2.956 9.408 11.201 9.263 8.245-.145 18.522 7.193 22.63 10.881.547-2.269 2.446-7.646 5.66-11.008 1.803-3.789 5.165-8.176 10.204-10.982 12.371-6.889 15.752-21.503 12.342-22.292-3.41-.789-14.999 16.032-18.783 14.643-3.785-1.389 4.053-10.866 12.302-17.682 6.598-5.453 8.98-20.333 9.346-27.091-3.911 2.859-12.455 10.359-15.337 17.493l-.21.52c-3.494 8.652-6.033 14.942-10.478 12.404-4.534-2.589 6.006-17.086 15.756-28.174 7.8-8.87 8.208-25.13 7.438-32.151-2.912 2.235-9.831 7.888-14.211 12.622-5.475 5.918-10.095 25.891-14.178 21.354-4.082-4.537 10.881-22.63 22.132-37.989 9.001-12.287 6.111-27.155 3.541-33.052-3.524 1.921-10.85 7.856-11.964 16.22-1.392 10.456-13.062 36.495-18.867 30.533-5.806-5.962 15.872-35.331 21.725-47.321 4.682-9.591 1.386-22.26-.847-27.395-4.799 2.995-9.299 9.139-13.389 17.943-4.09 8.805-12.611 34.547-19.315 25.811-6.703-8.736 15.796-32.783 25.546-43.871 7.8-8.87 6.91-25.43 5.489-32.601-3.973 1.646-16.871 13.032-20.361 21.462-3.49 8.431-14.258 30.574-18.301 21.427-4.042-9.147 19.468-30.907 28.244-42.221 7.02-9.05 6.984-25.755 6.089-32.976-15.708 10.223-22.161 22.587-23.852 29.894-1.69 7.307-13.545 29.711-17.402 24.2-3.857-5.511 11.56-32.224 23.183-40.312 9.297-6.471 12.33-22.979 12.683-30.424-2.173.523-22.568 13.254-23.92 19.1-1.352 5.845-5.929 14.537-12.829 22.179-6.9 7.641-6.475-16.381 14.181-28.025 16.525-9.315 20.666-29.433 20.671-38.327-33.103 21.081-18.079 27.123-35.248 37.007-17.17 9.885-4.715-12.894 11.142-21.543 12.686-6.918 18.366-26.885 19.62-36.004-12.404-1.843-25.873 25.32-36.183 32.173-10.309 6.852-8.764-8.7 8.031-19.184 13.436-8.387 17.503-25.374 17.857-32.82-9.445.895-16.345 8.536-24.822 22.997-8.478 14.462-12.557 3.254-3.632-6.485 7.14-7.791 10.054-19.058 10.619-23.717z" class="Vector 3"/>
      <path fill="#DAE4FA" d="M308.862 422.233c30.947 83.628 35.044 130.251 36.302 160.308.547-2.269 2.446-7.646 5.66-11.008 1.803-3.789 5.165-8.176 10.204-10.982 12.371-6.889 15.752-21.503 12.342-22.292-3.41-.789-14.999 16.032-18.783 14.643-3.785-1.389 4.053-10.866 12.302-17.682 6.598-5.453 8.98-20.333 9.346-27.091-3.911 2.859-12.455 10.359-15.337 17.493l-.21.52c-3.494 8.652-6.033 14.942-10.478 12.404-4.534-2.589 6.006-17.086 15.756-28.174 7.8-8.87 8.208-25.13 7.438-32.151-2.912 2.235-9.831 7.888-14.211 12.622-5.475 5.918-10.095 25.891-14.178 21.354-4.082-4.537 10.881-22.63 22.132-37.989 9.001-12.287 6.111-27.155 3.541-33.052-3.524 1.921-10.85 7.856-11.964 16.22-1.392 10.456-13.062 36.495-18.867 30.533-5.806-5.962 15.872-35.331 21.725-47.321 4.682-9.591 1.386-22.26-.847-27.395-4.799 2.995-9.299 9.139-13.389 17.943-4.09 8.805-12.611 34.547-19.315 25.811-6.703-8.736 15.796-32.783 25.546-43.871 7.8-8.87 6.91-25.43 5.489-32.601-3.973 1.646-16.871 13.032-20.361 21.462-3.49 8.431-14.258 30.574-18.301 21.427-4.042-9.147 19.468-30.907 28.244-42.221 7.02-9.05 6.984-25.755 6.089-32.976-15.708 10.223-22.161 22.587-23.852 29.894-1.69 7.307-13.545 29.711-17.402 24.2-3.857-5.511 11.56-32.224 23.183-40.312 9.297-6.471 12.33-22.979 12.683-30.424-2.173.523-22.568 13.254-23.92 19.1-1.352 5.845-5.929 14.537-12.829 22.179-6.9 7.641-6.475-16.381 14.181-28.025 16.525-9.315 20.666-29.433 20.671-38.327-33.103 21.081-18.079 27.123-35.248 37.007-17.17 9.885-4.715-12.894 11.142-21.543 12.686-6.918 18.366-26.885 19.62-36.004-12.404-1.843-25.873 25.32-36.183 32.173-10.309 6.852-8.764-8.7 8.031-19.184 13.436-8.387 17.503-25.374 17.857-32.82-9.445.895-16.345 8.536-24.822 22.997-8.478 14.462-12.557 3.254-3.632-6.485 7.14-7.791 10.054-19.058 10.619-23.717-9.385 1.524-18.51 16.417-21.899 23.673-5.007 18.686-8.832 72.782 15.925 139.684z" class="Vector 3.1"/>
    </g>
    <g class="phone">
      <path fill="#EE7E79" d="M610.862 360.19v170.441c0 5.728 2.278 8.422 4.913 9.508-10.219-.231-12.774-6.435-12.774-9.508V356.272c0-10.971 5.896-16.979 8.843-18.611 24.893-14.367 75.268-43.296 77.626-44.08 2.358-.784 6.481 2.285 8.247 3.918-2.637-1.32-6.11-.775-8.247 0-21.617 12.734-66.227 38.986-71.73 42.12-5.503 3.135-6.878 15.02-6.878 20.571z" class="color 2"/>
      <path fill="#B7CFFD" d="M691.435 499.284c10.219-7.053 12.118-19.264 11.791-24.489-.328-53.875-1.179-163.584-1.966-171.42-.319-3.189-1.735-4.972-3.544-5.878-2.637-1.319-6.11-.774-8.247 0-21.617 12.734-66.227 38.986-71.73 42.121-5.502 3.134-6.878 15.02-6.878 20.57V530.63c0 5.728 2.278 8.421 4.913 9.507 2.051.845 4.318.717 5.896.288 18.997-10.775 59.545-34.088 69.765-41.141z" class="Vector 2.2"/>
      <path fill="#71809A" d="M693.4 472.838c2.358-2.351 2.293-4.898 1.965-5.878V312.192c0-2.351-1.965-2.286-2.948-1.959-23.255 13.387-70.354 40.553-72.712 42.12-2.359 1.568-2.948 5.878-2.948 7.837v150.85c0 4.702 3.275 4.571 4.913 3.918 22.927-13.06 69.372-39.769 71.73-42.12z" class="Vector 2.1"/>
      <g class="stuff on iphone">
        <path fill="#DAE4FA" d="M679.865 398.728l-11.697 8.874v14.52l11.697-8.067v-15.327z" class="Rectangle"/>
        <path stroke="#fff" d="M655.971 413.15v-1.842l-19.052 11.431v1.842l19.052-11.431z" class="Rectangle 2"/>
        <path stroke="#fff" d="M655.971 426.435v-1.756l-19.052 11.511v1.756l19.052-11.511z" class="Rectangle 2.1"/>
        <path stroke="#fff" d="M655.971 439.886v-1.842l-19.052 11.431v1.842l19.052-11.431z" class="Rectangle 2.6"/>
        <path stroke="#fff" d="M655.971 446.487v-1.756l-19.052 11.511v1.756l19.052-11.511z" class="Rectangle 2.7"/>
        <path stroke="#fff" d="M655.971 459.938v-1.842l-19.052 11.431v1.842l19.052-11.431z" class="Rectangle 2.8"/>
        <path stroke="#fff" d="M655.971 466.539v-1.756l-19.052 11.511v1.756l19.052-11.511z" class="Rectangle 2.9"/>
        <path fill="#DAE4FA" d="M679.865 422.122l-11.697 8.24v13.483l11.697-7.491v-14.232z" class="Rectangle_2"/>
        <path fill="#DAE4FA" d="M679.865 443.845l-11.697 8.873v14.521l11.697-8.067v-15.327z" class="Rectangle_3"/>
        <g class="Vector 5">
          <path stroke="#fff" stroke-width=".5" d="M624.723 377.732v20.827l63.498-37.489v-20.827l-63.498 37.489zM688.221 376.69v-7.289l-63.498 36.447v6.248l63.498-35.406z"/>
        </g>
      </g>
    </g>
    <g class="ipad">
      <path fill="#EE7E79" d="M534.452 495.971c10.21-7.052 12.108-19.262 11.781-24.485-.327-53.868.785-256.731 0-264.566-.32-3.189-1.734-4.972-3.542-5.877-1.764-1.632-5.883-4.701-8.239-3.917-2.356.783-152.784 90.306-177.653 104.671-2.945 1.632-8.836 7.639-8.836 18.608 0 10.97-1.963 213.963-1.963 267.504 0 3.073 2.552 9.276 12.762 9.506 2.049.846 4.315.717 5.89.288 18.98-10.773 159.591-94.681 169.8-101.732z" class="color 2_2"/>
      <path fill="#B7CFFD" d="M534.452 495.97c10.21-7.052 12.108-19.262 11.781-24.486-.327-53.867.785-256.73 0-264.565-.32-3.189-1.734-4.972-3.542-5.877-2.634-1.319-6.104-.774-8.239 0-21.597 12.732-166.266 99.578-171.763 102.712-5.498 3.134-6.872 15.018-6.872 20.568 0 52.561-1.963 253.4-1.963 263.586 0 5.727 2.276 8.42 4.908 9.506 2.049.845 4.315.717 5.89.288 18.98-10.773 159.591-94.681 169.8-101.732z" class="Vector 2.3"/>
      <path fill="#71809A" d="M536.415 469.526c2.356-2.351 2.291-4.898 1.963-5.877 0-50.603 1.964-245.565 1.964-247.916 0-2.35-1.964-2.285-2.945-1.959-23.234 13.386-170.389 101.145-172.745 102.712-2.356 1.568-2.946 5.877-2.946 7.836 0 48.317-1.963 239.297-1.963 243.998 0 4.701 3.272 4.571 4.909 3.918 22.906-13.059 169.407-100.362 171.763-102.712z" class="Vector 2.2_2"/>
      <g class="stuff on ipad">
        <g class="Group">
          <path stroke="#fff" stroke-width=".5" d="M443.388 319.86l-1.202.681-58.082 36.156a3 3 0 00-1.414 2.547v71.652m60.698-111.036v0a.805.805 0 011.202.701v71.483a2.999 2.999 0 01-1.401 2.538l-58.974 37.156a.995.995 0 01-1.525-.842v0m60.698-111.036c-1.379-1.296-3.252-1.994-4.645-2.321-.855-.2-1.755.074-2.475.578-5.072 3.55-26.92 18.212-55.381 34.653-1.603 1.201-4.808 4.206-4.808 6.61v65.451c0 .796.312 1.577.908 2.104 1.315 1.162 3.461 2.84 5.703 3.961" class="Vector 4.2"/>
          <path fill="#DAE4FA" d="M433.771 338.346l-40.265 24.639v15.667l40.265-23.769v-16.537z" class="Rectangle_4"/>
          <path stroke="#fff" stroke-width=".8" d="M433.371 385.908V370.35l-12.421 8.43v14.741l12.421-7.613z" class="Rectangle_5"/>
          <path stroke="#fff" stroke-width=".8" d="M409.334 400.334v-15.559l-12.421 8.431v14.74l12.421-7.612z" class="Rectangle_6"/>
          <path stroke="#fff" stroke-width=".5" d="M433.521 362.244v-3.023l-38.563 23.138v3.023l38.563-23.138z" class="Rectangle 2.6_2"/>
          <path stroke="#fff" stroke-width=".5" d="M433.521 392.294v-3.017l-12.12 7.503v3.018l12.12-7.504z" class="Rectangle 2.7_2"/>
          <path stroke="#fff" stroke-width=".5" d="M409.484 406.717v-3.018l-12.12 7.503v3.018l12.12-7.503z" class="Rectangle 2.8_2"/>
        </g>
        <g class="Group_2">
          <path stroke="#fff" stroke-width=".5" d="M528.609 273.072l-1.202.681-58.082 36.156a2.998 2.998 0 00-1.415 2.547v71.652m60.699-111.036v0a.805.805 0 011.202.701v71.483a2.999 2.999 0 01-1.401 2.538l-58.974 37.156a.996.996 0 01-1.526-.842v0m60.699-111.036c-1.379-1.296-3.252-1.994-4.645-2.321-.856-.2-1.755.074-2.475.578-5.073 3.55-26.92 18.212-55.382 34.653-1.602 1.202-4.807 4.206-4.807 6.61v65.451c0 .796.312 1.577.908 2.104 1.315 1.162 3.46 2.84 5.702 3.961" class="Vector 4.2_2"/>
          <path fill="#DAE4FA" d="M518.992 291.559l-40.265 24.64v15.666l40.265-23.769v-16.537z" class="Rectangle_7"/>
          <path stroke="#fff" stroke-width=".8" d="M518.592 339.122v-15.559l-12.421 8.431v14.74l12.421-7.612z" class="Rectangle_8"/>
          <path stroke="#fff" stroke-width=".8" d="M494.555 353.547v-15.558l-12.421 8.43v14.74l12.421-7.612z" class="Rectangle_9"/>
          <path stroke="#fff" stroke-width=".5" d="M518.742 315.457v-3.023l-38.563 23.138v3.023l38.563-23.138z" class="Rectangle 2.6_3"/>
          <path stroke="#fff" stroke-width=".5" d="M518.742 345.508v-3.018l-12.12 7.503v3.018l12.12-7.503z" class="Rectangle 2.7_3"/>
          <path stroke="#fff" stroke-width=".5" d="M494.705 359.93v-3.018l-12.12 7.503v3.018l12.12-7.503z" class="Rectangle 2.8_3"/>
        </g>
        <g class="Group_3">
          <path stroke="#fff" stroke-width=".5" d="M443.388 421.791l-1.202.681-58.082 36.155a3.002 3.002 0 00-1.414 2.547v71.653m60.698-111.036v0a.805.805 0 011.202.7v71.484a3 3 0 01-1.401 2.538l-58.974 37.156a.995.995 0 01-1.525-.842v0m60.698-111.036c-1.379-1.296-3.252-1.994-4.645-2.321-.855-.201-1.755.074-2.475.578-5.072 3.549-26.92 18.212-55.381 34.652-1.603 1.202-4.808 4.207-4.808 6.611v65.451c0 .795.312 1.577.908 2.104 1.315 1.162 3.461 2.84 5.703 3.961" class="Vector 4.2_3"/>
          <path fill="#DAE4FA" d="M433.771 440.277l-40.265 24.64v15.667l40.265-23.77v-16.537z" class="Rectangle_10"/>
          <path stroke="#fff" stroke-width=".8" d="M433.371 487.84v-15.558l-12.421 8.43v14.74l12.421-7.612z" class="Rectangle_11"/>
          <path stroke="#fff" stroke-width=".8" d="M409.334 502.265v-15.558l-12.421 8.43v14.741l12.421-7.613z" class="Rectangle_12"/>
          <path stroke="#fff" stroke-width=".5" d="M433.521 464.175v-3.022l-38.563 23.138v3.022l38.563-23.138z" class="Rectangle 2.6_4"/>
          <path stroke="#fff" stroke-width=".5" d="M433.521 494.226v-3.018l-12.12 7.504v3.017l12.12-7.503z" class="Rectangle 2.7_4"/>
          <path stroke="#fff" stroke-width=".5" d="M409.484 508.648v-3.017l-12.12 7.503v3.018l12.12-7.504z" class="Rectangle 2.8_4"/>
        </g>
        <g class="Group_4">
          <path stroke="#fff" stroke-width=".5" d="M528.609 371.661l-1.202.681-58.082 36.156a2.998 2.998 0 00-1.415 2.546v71.653m60.699-111.036v0a.805.805 0 011.202.701v71.483a2.999 2.999 0 01-1.401 2.538l-58.974 37.156a.996.996 0 01-1.526-.842v0m60.699-111.036c-1.379-1.296-3.252-1.994-4.645-2.321-.856-.201-1.755.074-2.475.578-5.073 3.55-26.92 18.212-55.382 34.652-1.602 1.202-4.807 4.207-4.807 6.611v65.451c0 .795.312 1.577.908 2.104 1.315 1.162 3.46 2.84 5.702 3.961" class="Vector 4.2_4"/>
          <path fill="#DAE4FA" d="M518.992 390.146l-40.265 24.64v15.667l40.265-23.769v-16.538z" class="Rectangle_13"/>
          <path stroke="#fff" stroke-width=".8" d="M518.592 437.709v-15.558l-12.421 8.43v14.741l12.421-7.613z" class="Rectangle_14"/>
          <path stroke="#fff" stroke-width=".8" d="M494.555 452.135v-15.559l-12.421 8.431v14.74l12.421-7.612z" class="Rectangle_15"/>
          <path stroke="#fff" stroke-width=".5" d="M518.742 414.045v-3.023l-38.563 23.138v3.022l38.563-23.137z" class="Rectangle 2.6_5"/>
          <path stroke="#fff" stroke-width=".5" d="M518.742 444.095v-3.017l-12.12 7.503v3.018l12.12-7.504z" class="Rectangle 2.7_5"/>
          <path stroke="#fff" stroke-width=".5" d="M494.705 458.518V455.5l-12.12 7.503v3.018l12.12-7.503z" class="Rectangle 2.8_5"/>
        </g>
        <ellipse cx="375.243" cy="327.338" fill="#fff" class="Ellipse" rx="2.506" ry="3.342"/>
        <ellipse cx="383.598" cy="322.325" fill="#fff" class="Ellipse_2" rx="2.506" ry="3.342"/>
        <ellipse cx="391.952" cy="317.312" fill="#fff" class="Ellipse_3" rx="2.506" ry="3.342"/>
      </g>
    </g>
    <g class="lock">
      <path fill="#FFCB56" d="M403.594 193.197v-44.906l47.472-26.303c4.277-1.069 12.831-1.283 12.831 6.415v44.265c-45.677 38.492-59.234 29.724-60.303 20.529z" class="color 1"/>
      <path fill="#fff" d="M437.595 179.722v-11.547c-1.925-2.994-4.106-9.495 2.566-11.547 6.671-2.053 6.201 5.132 5.132 8.981v10.906l-7.698 3.207z" class="Vector 2"/>
      <path fill="#C4C4C4" d="M403.594 148.291c6.158 15.909 42.768-6.63 60.303-19.888 0-7.698-8.554-7.484-12.831-6.415l-47.472 26.303z" class="Vector_2"/>
      <path fill="#FFCB56" d="M417.708 148.288c-4.106 4.105-7.698 1.71-8.981 0 .427-14.541 1.283-44.136 1.283-46.19 0-2.567.641-19.245 21.811-28.226 26.174-6.158 28.441 21.811 26.303 36.566-3.08 3.592-6.416 1.497-7.699 0 1.283-27.585-8.339-31.434-18.604-28.868-8.211 2.052-12.83 14.54-14.113 20.528v46.19z" class="color 1_2"/>
    </g>
    <g class="lock_2">
      <path fill="#FFCB56" d="M625 291.72v-30.532l32.277-17.883c2.907-.727 8.723-.872 8.723 4.362v30.096c-31.055 26.17-40.273 20.209-41 13.957z" class="color 1_3"/>
      <path fill="#fff" d="M648.117 282.56v-7.851c-1.308-2.036-2.791-6.456 1.745-7.852 4.536-1.395 4.216 3.49 3.489 6.107v7.415l-5.234 2.181z" class="Vector 2_2"/>
      <path fill="#C4C4C4" d="M625 261.188c4.187 10.817 29.078-4.507 41-13.521 0-5.234-5.816-5.089-8.723-4.362L625 261.188z" class="Vector_3"/>
      <path fill="#FFCB56" d="M634.597 261.188c-2.792 2.792-5.234 1.163-6.107 0 .291-9.886.873-30.008.873-31.404 0-1.745.436-13.085 14.829-19.191 17.796-4.187 19.337 14.829 17.883 24.861-2.093 2.442-4.361 1.018-5.234 0 .873-18.755-5.67-21.372-12.649-19.628-5.583 1.396-8.723 9.887-9.595 13.958v31.404z" class="color 1_4"/>
    </g>
    <g class="plant">
      <g class="Vector 5_2">
        <path fill="#FFCB56" d="M557.85 527.286c7.076-3.538 21.987-13.04 25.019-22.744-6.571 4.043-20.773 14.253-25.019 22.744zM554.059 525.012c12.131-12.889 36.543-39.879 37.15-44.732-7.582 1.264-25.626 11.979-37.15 44.732 2.78-12.889 10.614-41.547 19.712-53.071-5.307 2.021-16.679 8.036-19.712 15.921-3.033 7.885-1.264 28.052 0 37.15z"/>
      </g>
      <path fill="#8A6564" d="M538.896 528.045c.506 7.329 3.033 22.442 9.098 24.261 7.582 2.275 12.131-1.516 12.131-4.549 0-2.426 1.516-14.152 2.274-19.712.758-.758 1.971-2.729.758-4.549-7.329.506-22.441 1.213-24.261 0-2.274-1.516-1.516 4.112 0 4.549z" class="Vector 3_2"/>
      <g class="Vector 4">
        <path fill="#FADB96" d="M550.268 526.528c7.835-13.394 23.503-42.002 23.503-49.28-9.35 5.812-27.142 23.806-23.503 49.28zM514.635 511.365c24.261.607 30.326 10.362 30.326 15.163.501-3.004.552-5.784.235-8.339 4.976-12.131 12.351-38.818 2.04-48.523a29.558 29.558 0 00-2.04-1.751c2.196-9.778 1.888-30.85-16.914-36.915 4.801 5.054 13.95 16.68 12.13 22.745-2.274-4.549-8.491-12.889-15.163-9.856 4.044 2.03 12.131 7.449 12.131 12.889-3.286-3.286-12.434-8.644-22.745-3.791 7.834.994 23.351 4.505 22.745 10.589-10.782-3.951-21.591-.766-22.745 1.541 9.002-.252 27.716 1.517 30.561 10.615-8.923-4.297-29.651-10.615-41.175-1.517 14.405.253 43.215 3.791 43.215 15.922-14.153-5.813-47.613-15.012-68.235-5.307 22.143-1.011 66.383 4.245 66.195 33.359-2.081-16.785-20.033-23.861-30.561-21.229-9.705 2.426-27.799 3.033-35.634 3.033 1.769 3.538 11.373 10.766 35.634 11.372z"/>
      </g>
    </g>
  </g>
</svg>
