<svg xmlns="http://www.w3.org/2000/svg" width="1155" height="700" fill="none" viewBox="0 0 1155 700">
  <g class="share">
    <path fill="#fff" d="M0 0h1155v700H0z"/>
    <g class="Group 2">
      <g class="Group 2_2">
        <g class="Rectangle">
          <rect width="279" height="337.277" x="507" y="208" fill="#fff" fill-opacity=".12" rx="11.655"/>
          <rect width="278.401" height="336.678" x="507.299" y="208.299" stroke="#000" stroke-opacity=".13" stroke-width=".599" rx="11.356"/>
        </g>
        <path fill="#17157C" d="M521.369 222.369H772.23v259.242H521.369z" class="Rectangle_2"/>
        <g class="Group">
          <path fill="#fff" fill-rule="evenodd" d="M659.322 286.65c0 3.882-2.555 9.293-2.555 9.293l-1.058 2.823 10.906 3.247c.052-.21-.09-.739-.275-1.423-.367-1.359-.9-3.333-.399-4.647.242-1.166.822-2.317 1.16-2.986.099-.196.177-.351.22-.452.419.121.814.262 1.189.397 1.934.692 3.332 1.193 4.81-2.269 1.764-4.134 5.528-20.804-3.529-19.981-10.352.941-10.469 12.116-10.469 15.998zm-58.367 63.705c-3.98 4.805-11.124 14.269-7.863 13.687 3.262-.582 9.125-4.805 11.649-6.844-.679 1.651-1.631 4.864 0 4.514 1.278-.274 2.07-3.545 2.727-6.256.182-.749.353-1.455.521-2.043 0 0-.103-1.868 0-3.058.313-3.621 3.203-8.737 3.203-8.737l-4.222-1.747-3.495 7.572-2.52 2.912zm2.812 68.873l-9.465 13.832 4.514 2.039 10.484-10.484-5.533-5.387zm41.498 27.083l1.893-7.718 1.31-8.59 9.028 2.62-7.426 13.688h-4.805zm91.9-167.297c.665-1.538 1.207-2.79 1.58-3.211 1.165-1.31 1.165 3.058 0 4.951-.397.645.236.123 1.346-.793 2.15-1.774 6.091-5.026 7.827-4.157 1.374.687.962 1.815.503 3.072-.222.608-.455 1.245-.503 1.878-.678.679-1.2 1.874-1.682 2.979-.414.95-.799 1.832-1.23 2.263-1.165 1.165-3.494 2.039-6.261 3.058l-6.989 6.115-7.135 6.407-2.33-4.805 11.212-10.775c1.396-1.745 2.667-4.683 3.662-6.982z" class="Union" clip-rule="evenodd"/>
          <path fill="#000" fill-opacity=".06" d="M601.146 423.159l-6.262 9.173.437 1.311 9.028-7.281-3.203-3.203z" class="Vector 8"/>
          <path fill="#000" fill-opacity=".03" d="M647.158 447.184l5.824-14.269-5.096 2.475-2.767 11.794h2.039z" class="Vector 7"/>
          <path fill="#1F1D89" fill-rule="evenodd" d="M644.813 392.512c2.209 3.059 4.551 6.032 7.005 8.806l-6.115 37.276h11.357s12.959-23.245 12.959-37.276c0-10.192-7.863-42.081-7.863-42.081l-3.931-16.162-33.199 5.242v8.154c.22.567.469 1.188.746 1.857l-1.474 31.341c-8.057 9.222-24.52 29.006-25.918 34.364l7.28 7.717s26.938-22.423 36.985-35.674a21.75 21.75 0 002.168-3.564z" class="Union_2" clip-rule="evenodd"/>
          <path fill="#fff" fill-opacity=".02" d="M651.817 401.318c-13.396-15.143-23.443-36.208-26.791-44.847v-8.154l33.198-5.242 3.932 16.162s7.862 31.888 7.862 42.081c0 14.03-12.959 37.275-12.959 37.275h-11.357l6.115-37.275z" class="Vector 2.1"/>
          <g class="Union_3">
            <path fill="#fff" fill-rule="evenodd" d="M635.217 322.398c-5.63 9.853-15.667 30.549-10.775 34.51 5.436-1.262 17.153-3.408 20.531-1.893 2.127.953 2.296 1.611 2.461 2.252.162.632.32 1.249 2.344 2.116 2.151.922 3.937.466 5.593.043 1.484-.379 2.864-.731 4.308-.043 3.058 1.456 5.533.582 5.388-5.533-.146-6.116 1.019-10.193 2.912-12.959.558-.815 1.279-2.755 2.147-5.085 2.077-5.582 4.99-13.408 8.482-13.408 1.72 0 3.441.317 5.387.675 3.655.672 8.107 1.491 14.853.636 8.27-1.048 26.258-16.842 34.218-24.608.81-8.005-1.27-11.568-2.218-13.19-.25-.429-.422-.722-.44-.926.201-.235.268-.342.182-.299-.14.07-.193.165-.182.299-2.527 2.951-26.258 26.082-33.599 24.309-5-1.208-10.706-5.414-15.04-8.61-2.534-1.868-4.6-3.391-5.782-3.767-3.203-1.019-8.59 0-8.59 0-.949 0-1.775.17-2.569.333-2.129.437-4.031.827-7.478-2.226-5.097-4.514-36.694 14.27-45.721 23.589l-10.047 23.879c2.378 1.651 7.95 4.747 11.212 3.932l7.862-17.182c3.689-2.281 11.765-6.844 14.561-6.844zm-45.137 114.91s-1.485-2.31 4.678-6.689c1.479 3.057 3.269 3.719 5.093 4.394 1.287.476 2.591.959 3.815 2.295.531.58 1.22 1.248 1.956 1.963 3.14 3.047 7.133 6.923 3.322 8.222l-18.864-10.185zm54.32 16.745c-3.768-.306-4.25-2.463-.401-8.97 2.121 1.258 3.256 1.14 4.515 1.009 1.424-.148 3.004-.313 6.344 1.478.925.497 2.193.985 3.51 1.491v.001c3.874 1.49 8.174 3.145 5.454 5.666l-19.422-.675z" clip-rule="evenodd"/>
            <path fill="#000" d="M624.442 356.908l-.091.113.055.044.069-.016-.033-.141zm10.775-34.51l.127.073.124-.218h-.251v.145zm9.756 32.617l.06-.133-.06.133zm2.461 2.252l.141-.036-.141.036zm2.344 2.116l-.057.134.057-.134zm5.593.043l-.036-.141.036.141zm4.308-.043l-.062.131.062-.131zm5.388-5.533l.145-.004-.145.004zm2.912-12.959l-.12-.083.12.083zm2.147-5.085l-.137-.051.137.051zm13.869-12.733l.026-.143-.026.143zm14.853.636l-.018-.145.018.145zm34.218-24.608l.101.104.038-.037.006-.052-.145-.015zm-2.218-13.19l.126-.074-.126.074zm-.258-1.225l-.065-.13.065.13zm-33.781 24.608l-.034.141.034-.141zm-15.04-8.61l-.087.117.087-.117zm-5.782-3.767l-.044.139.044-.139zm-8.59 0v.146h.013l.014-.003-.027-.143zm-2.569.333l-.029-.143.029.143zm-7.478-2.226l-.097.109.097-.109zm-45.721 23.589l-.105-.102-.019.02-.01.025.134.057zm-10.047 23.879l-.134-.056-.046.109.097.067.083-.12zm11.212 3.932l.035.141.068-.017.029-.064-.132-.06zm7.862-17.182l-.076-.124-.038.023-.018.04.132.061zm-25.898 101.377l.131-.064-.075-.155-.14.1.084.119zm-4.678 6.689l-.123.079.021.031.033.018.069-.128zm9.771-2.295l-.051.136.051-.136zm3.815 2.295l-.107.098.107-.098zm1.956 1.963l.102-.105-.102.105zm3.322 8.222l-.069.128.056.03.06-.02-.047-.138zm35.055-2.41l.074-.125-.125-.075-.074.126.125.074zm.401 8.97l-.012.146h.007l.005-.146zm4.114-7.961l.015.145-.015-.145zm6.344 1.478l.068-.128-.068.128zm3.51 1.491l-.052.136.001.001.051-.137zm0 .001l.053-.136-.002-.001-.051.137zm5.454 5.666l-.005.145.06.002.044-.04-.099-.107zm-39.288-97.934c-.576-.466-.943-1.186-1.121-2.129-.179-.944-.168-2.099.001-3.416.339-2.635 1.307-5.889 2.606-9.335 2.598-6.891 6.511-14.521 9.324-19.443l-.253-.145c-2.818 4.931-6.738 12.575-9.344 19.485-1.302 3.454-2.278 6.733-2.621 9.401-.172 1.333-.186 2.522.001 3.507.186.985.577 1.778 1.224 2.302l.183-.227zm20.499-1.912c-.876-.393-2.269-.541-3.929-.534-1.667.008-3.624.175-5.643.428-4.037.505-8.33 1.358-11.052 1.99l.066.283c2.715-.63 6.998-1.481 11.022-1.985 2.013-.252 3.958-.416 5.608-.424 1.657-.008 2.995.143 3.808.507l.12-.265zm2.542 2.349c-.084-.324-.174-.679-.528-1.071-.348-.385-.944-.798-2.014-1.278l-.12.265c1.056.474 1.609.867 1.918 1.209.304.336.38.631.462.948l.282-.073zm2.26 2.018c-1.004-.43-1.527-.791-1.82-1.11-.287-.314-.36-.595-.44-.908l-.282.073c.082.319.169.662.508 1.031.333.364.901.745 1.92 1.182l.114-.268zm5.5.036c-1.657.423-3.399.865-5.5-.036l-.114.268c2.2.943 4.03.473 5.686.05l-.072-.282zm4.407-.034c-1.499-.714-2.931-.343-4.407.034l.072.282c1.492-.381 2.82-.715 4.21-.053l.125-.263zm5.179-5.398c.073 3.052-.513 4.735-1.439 5.49-.914.745-2.224.63-3.74-.092l-.125.263c1.542.735 2.998.911 4.049.055 1.04-.848 1.619-2.659 1.546-5.723l-.291.007zm2.938-13.045c-1.916 2.8-3.084 6.911-2.938 13.045l.291-.007c-.145-6.096 1.017-10.14 2.887-12.873l-.24-.165zm2.13-5.053c-.434 1.166-.83 2.231-1.188 3.107-.358.878-.673 1.553-.942 1.946l.24.165c.289-.422.614-1.124.972-2.001.36-.881.758-1.951 1.191-3.116l-.273-.101zm8.619-13.502c-.93 0-1.802.521-2.611 1.354-.81.835-1.574 2.001-2.289 3.333-1.43 2.665-2.681 6.026-3.719 8.815l.273.101c1.04-2.793 2.284-6.134 3.703-8.778.709-1.322 1.458-2.461 2.241-3.268.785-.808 1.586-1.266 2.402-1.266v-.291zm5.413.677c-1.943-.358-3.677-.677-5.413-.677v.291c1.705 0 3.411.314 5.36.672l.053-.286zm14.809.634c-6.724.853-11.158.037-14.809-.634l-.053.286c3.66.673 8.129 1.495 14.898.637l-.036-.289zm34.134-24.567c-3.977 3.88-10.46 9.766-16.98 14.812-3.26 2.523-6.527 4.834-9.494 6.579-2.97 1.748-5.624 2.918-7.66 3.176l.036.289c2.099-.266 4.795-1.463 7.772-3.214 2.981-1.753 6.259-4.073 9.524-6.6 6.531-5.054 13.023-10.948 17.005-14.834l-.203-.208zm-2.242-13.013c.472.808 1.221 2.09 1.753 4.165.533 2.075.85 4.95.446 8.938l.29.029c.406-4.018.088-6.927-.454-9.04-.542-2.113-1.307-3.424-1.783-4.239l-.252.147zm-.459-.986c.012.131.07.276.148.431.079.157.187.342.311.555l.252-.147a10.095 10.095 0 01-.303-.539 1.024 1.024 0 01-.118-.326l-.29.026zm.393-.182c.007-.003-.003.003-.023.006a.13.13 0 01-.068-.011.136.136 0 01-.077-.164c.001-.004.001-.001-.005.008a2.41 2.41 0 01-.185.235l.221.189c.1-.116.174-.21.212-.271a.353.353 0 00.028-.055.16.16 0 00.011-.041.148.148 0 00-.006-.078.157.157 0 00-.166-.102.228.228 0 00-.073.024l.131.26zm-.103.156a.146.146 0 01.014-.086.208.208 0 01.089-.07l-.131-.26a.48.48 0 00-.207.181.422.422 0 00-.055.261l.29-.026zm-33.778 24.463c.958.232 2.164.054 3.529-.418 1.37-.473 2.918-1.248 4.571-2.233 3.306-1.971 7.046-4.794 10.632-7.761 7.169-5.933 13.741-12.459 15.012-13.944l-.221-.189c-1.256 1.467-7.814 7.982-14.977 13.909-3.581 2.963-7.308 5.775-10.595 7.734-1.644.98-3.173 1.745-4.517 2.209-1.346.465-2.488.622-3.365.41l-.069.283zm-15.093-8.634c2.167 1.597 4.682 3.452 7.281 5.057 2.598 1.605 5.29 2.968 7.812 3.577l.069-.283c-2.478-.598-5.139-1.942-7.728-3.541-2.588-1.599-5.093-3.446-7.261-5.044l-.173.234zm-5.739-3.745c.569.181 1.365.644 2.347 1.306.977.659 2.124 1.504 3.392 2.439l.173-.234c-1.266-.934-2.419-1.784-3.403-2.447-.98-.66-1.807-1.147-2.42-1.342l-.089.278zm-8.546-.139l.027.143.003-.001.012-.002a32.043 32.043 0 013.062-.377c1.745-.127 3.869-.125 5.442.376l.089-.278c-1.63-.518-3.802-.516-5.552-.388a32.292 32.292 0 00-2.87.342l-.178.031a.972.972 0 00-.046.008l-.012.002-.003.001h-.001l.027.143zm-2.54.475c.795-.163 1.607-.329 2.54-.329v-.292c-.966 0-1.805.173-2.598.336l.058.285zm-7.604-2.259c1.735 1.537 3.096 2.22 4.302 2.456 1.205.235 2.24.021 3.302-.197l-.058-.285c-1.067.219-2.048.419-3.188.196-1.139-.223-2.453-.872-4.165-2.388l-.193.218zm-45.52 23.581c4.499-4.644 14.64-11.661 24.3-16.955 4.829-2.646 9.53-4.858 13.338-6.126 1.905-.634 3.58-1.03 4.932-1.128 1.358-.099 2.358.104 2.95.628l.193-.218c-.682-.604-1.784-.801-3.164-.701-1.387.101-3.087.505-5.003 1.143-3.831 1.276-8.55 3.496-13.386 6.146-9.669 5.299-19.84 12.333-24.369 17.008l.209.203zm-10.017 23.835l10.047-23.88-.268-.113-10.047 23.88.268.113zm11.042 3.734c-.786.196-1.723.159-2.73-.04-1.005-.199-2.072-.558-3.115-.995a30.486 30.486 0 01-5.248-2.875l-.166.239a30.797 30.797 0 005.301 2.905c1.055.442 2.141.808 3.172 1.011 1.029.204 2.013.248 2.857.037l-.071-.282zm7.766-17.102l-7.863 17.182.265.121 7.863-17.181-.265-.122zm14.693-6.928c-.728 0-1.779.294-2.988.758-1.214.466-2.606 1.11-4.023 1.824-2.834 1.428-5.779 3.141-7.626 4.283l.153.248c1.842-1.139 4.779-2.848 7.604-4.271 1.413-.712 2.795-1.351 3.997-1.812 1.207-.463 2.214-.739 2.883-.739v-.291zM594.674 430.5c-3.093 2.197-4.29 3.891-4.703 5.057-.208.584-.217 1.034-.171 1.343a1.557 1.557 0 00.135.448l.015.026.005.008.001.003.001.001.123-.078.122-.078h.001l-.001-.002-.008-.014a1.131 1.131 0 01-.031-.068 1.367 1.367 0 01-.075-.289c-.039-.261-.035-.662.157-1.203.385-1.085 1.527-2.735 4.597-4.916l-.168-.238zm5.227 4.376c-.914-.338-1.798-.666-2.64-1.284-.838-.616-1.641-1.526-2.372-3.037l-.262.127c.748 1.547 1.58 2.497 2.462 3.145.879.645 1.801.986 2.711 1.322l.101-.273zm3.872 2.334c-1.249-1.365-2.584-1.857-3.872-2.334l-.101.273c1.287.477 2.561.95 3.759 2.257l.214-.196zm1.951 1.956c-.737-.715-1.423-1.381-1.951-1.956l-.214.196c.534.584 1.227 1.256 1.962 1.969l.203-.209zm3.267 8.465c.98-.334 1.501-.85 1.627-1.515.122-.649-.142-1.39-.604-2.154-.926-1.532-2.726-3.277-4.29-4.796l-.203.209c1.575 1.529 3.342 3.245 4.244 4.738.453.748.669 1.41.566 1.948-.099.523-.508.978-1.434 1.294l.094.276zm-18.98-10.195l18.864 10.185.139-.256-18.865-10.185-.138.256zm53.863 7.573c-.964 1.63-1.66 2.992-2.102 4.125-.44 1.13-.632 2.043-.574 2.771.058.737.373 1.28.927 1.653.545.368 1.311.563 2.263.64l.023-.29c-.932-.076-1.639-.265-2.123-.591-.476-.321-.748-.781-.8-1.435-.052-.664.122-1.529.556-2.643.433-1.111 1.12-2.459 2.08-4.082l-.25-.148zm4.625.938c-.63.066-1.211.126-1.897.018-.684-.108-1.48-.385-2.529-1.007l-.148.25c1.072.636 1.903.929 2.632 1.044.728.115 1.344.05 1.972-.015l-.03-.29zm6.427 1.495c-1.679-.901-2.924-1.314-3.935-1.482-1.011-.167-1.779-.087-2.492-.013l.03.29c.711-.074 1.445-.15 2.415.011s2.185.56 3.845 1.451l.137-.257zm3.494 1.483c-1.32-.508-2.578-.992-3.494-1.483l-.137.257c.935.501 2.213.993 3.527 1.498l.104-.272zm-.001 0l-.102.273.102-.273zm5.502 5.91c.698-.647.977-1.268.885-1.868-.09-.591-.532-1.111-1.151-1.575-1.239-.93-3.306-1.724-5.234-2.466l-.105.271c1.945.749 3.965 1.528 5.164 2.428.601.45.966.91 1.038 1.385.071.466-.132.997-.795 1.611l.198.214zm-19.526-.636l19.422.674.01-.291-19.422-.674-.01.291z"/>
          </g>
          <path fill="#000" fill-opacity=".08" d="M676.716 319.341c-3.98 3.799-4.95 11.794-4.95 11.794 3.349-7.426 5.775-8.688 6.698-8.882 8.387 1.748 16.162 2.184 20.53 1.456 5.592-.466 16.551-9.124 21.405-13.396 0 0-12.989 8.658-22.278 10.339-8.17 1.477-15.177-7.255-21.405-1.311z" class="Vector 6"/>
          <path fill="#000" fill-opacity=".05" d="M618.182 327.495c-1.104 3.06-.728 8.3-.728 8.3l3.204-6.553c4.31-3.261 11.891-6.212 14.997-7.134-13.512 22.132-13.396 32.761-11.212 34.8l19.075-2.621s-8.862-5.65-7.863-14.852c.724-6.664 1.02-11.94 4.077-21.55 1.14-3.582-3.054-.357-6.552 1.019-7.633 3.004-12.212.876-14.998 8.591z" class="Vector 5"/>
          <path fill="#000" d="M672.89 275.522c5.921-5.165 2.421-9.511-1.316-11.652-12.346-3.527-15.133 9.888-23.321 11.652-8.189 1.764-15.064-3.751-20.282 1.764-3.642 3.849-1.942 8.127-4.787 12.597-3.34 5.246-10.654 3.974-11.842 10.078-.961 4.941 2.653 6.588 3.905 11.464.978 3.807-1.713 7.704 1.512 9.952 2.543 1.772 5.025-1.063 7.936 0 2.983 1.088 2.998 5.291 6.173 5.291 5.256 0 2.359-4.989 9.413-5.291 7.055-.303 2.687-9.952 7.972-9.952 6.55 0 7.439-5.105 9.7-10.078 4.409-9.7 3.029-8.6 5.291-13.983 1.969-4.689.285-3.675 9.646-11.842z" class="Vector 2.2"/>
        </g>
      </g>
      <path fill="#F66" d="M545.461 502.125c1.526-5.152 9.188-1.862 13.681 1.78 17.278-14.528 21.285 9.875 0 18.212-8.013-4.007-16.594-10.158-13.681-19.992z" class="Vector"/>
    </g>
    <g class="Group 4">
      <rect width="322.307" height="389.774" x="302.347" y="155.347" fill="#fff" stroke="#000" stroke-width=".693" class="Rectangle_3" rx="13.147"/>
      <g class="Group 3">
        <g class="Rectangle_4">
          <path fill="#fff" d="M318.636 171.635h290.423v300.127H318.636z"/>
          <path stroke="#000" stroke-opacity=".17" stroke-width=".693" d="M318.982 171.981h289.73v299.433h-289.73z"/>
        </g>
        <path fill="#1E1C7C" stroke="#000" stroke-opacity=".17" d="M505.433 361.9c-159.42 10.923-186.799-163.926-186.799-163.926v273.788h248.142S529.693 360.238 505.433 361.9z" class="Vector_2"/>
        <g class="Group 2.1">
          <g class="book">
            <g class="Union_4">
              <path fill="#1E1C7C" fill-rule="evenodd" d="M542.227 270.159l4.759-6.582 6.348 16.056-1.027 1.237-19.509 24.341-4.107-3.174-11.763-9.522 21.658-25.578 3.641 3.222z" clip-rule="evenodd"/>
              <path fill="#000" d="M546.986 263.577l.174-.068-.125-.317-.2.276.151.109zm-4.759 6.582l-.123.14.154.136.121-.167-.152-.109zm11.107 9.474l.144.12.07-.085-.04-.103-.174.068zm-1.027 1.237l-.144-.12-.002.003.146.117zm-19.509 24.341l-.114.148.145.112.115-.143-.146-.117zm-4.107-3.174l-.118.145.003.003.115-.148zm-11.763-9.522l-.142-.12-.123.145.148.12.117-.145zm21.658-25.578l.123-.139-.143-.127-.123.146.143.12zm8.249-3.469l-4.759 6.581.303.219 4.759-6.581-.303-.219zm6.673 16.097l-6.348-16.056-.347.137 6.347 16.056.348-.137zm-1.058 1.424l1.028-1.236-.288-.239-1.027 1.236.287.239zm-19.506 24.339l19.508-24.342-.291-.233-19.509 24.341.292.234zm-4.368-3.143l4.108 3.174.228-.296-4.107-3.174-.229.296zm-11.765-9.525l11.762 9.522.235-.29-11.762-9.522-.235.29zm21.632-25.843l-21.657 25.578.285.241 21.657-25.578-.285-.241zm3.908 3.202l-3.642-3.221-.247.279 3.642 3.222.247-.28z"/>
            </g>
            <g class="Vector 6_2">
              <path fill="#E2FAFF" d="M541.189 269.341l2.306-2.516 2.307-.839 7.129 13.209h-.42l-11.322-9.854z"/>
              <path stroke="#000" stroke-width=".419" d="M543.495 266.825l-2.306 2.516 11.322 9.854m-9.016-12.37l9.016 12.37m-9.016-12.37l2.307-.839 7.129 13.209h-.42"/>
            </g>
            <path fill="#000" fill-opacity=".12" stroke="#000" stroke-width=".419" d="M543.495 266.825l9.016 12.37h.419l-7.129-13.209-2.306.839z" class="Vector 7_2"/>
            <path fill="#fff" fill-opacity=".09" stroke="#000" stroke-width=".419" d="M538.673 266.735l-21.596 25.579 16.354 13.209 19.499-25.789-14.257-12.999z" class="Vector 5_2"/>
          </g>
          <g class="Group_2">
            <path fill="#fff" stroke="#000" stroke-width=".419" d="M540.724 301.193c-20.964 16.044-38.354 20.095-38.354 20.095l-.783-12.688 27.749-9.455s4.631-10.092 5.387-11.096c2.38-3.157 1.367 6.008 1.367 6.008s6.465-5.918 9.07-5.095c5.526 1.745.192 8.69-4.436 12.231z" class="Vector 2"/>
            <path fill="#1E2884" stroke="#000" stroke-width=".419" d="M547.843 445.092c-.905-1.206-3.079-13.745-4.965-21.916l-3.206-14.541 12.362-3.143s3.041 23.133 10.567 27.545c5.855 3.432 16.881 1.765 19.604 3.884 4.145 3.224-3.771 6.286-9.219 7.124-4.044.622-11.943 2.514-11.943 2.514-11.677 3.346-11.943.21-13.2-1.467z" class="Vector 5_3"/>
            <path fill="#fff" d="M549.885 449.386l-.779-2.595c8.512 0 26.384-5.363 34.255-8.044 1.246 4.152-21.798 8.823-33.476 10.639z" class="Vector 2_2"/>
            <path fill="#1E2884" stroke="#000" stroke-width=".419" d="M507.405 445.931c0-5.657 1.258-17.159 0-27.426v-12.456l12.991 3.844c0 2.723.671 7.103 0 8.612-.67 1.509-1.775 9.446.944 15.571 3.645 8.214 17.913 11.226 18.332 14.16.42 2.933-13.409 1.257-15.714 1.257-2.305 0-16.552.215-16.553-3.562z" class="Vector 6_3"/>
            <path fill="#fff" d="M507.325 448.349v-2.077c3.737 1.246 23.269 1.904 32.438 2.077l-.519 1.557c-3.529 1.245-22.837-.519-31.919-1.557z" class="Vector 2_3"/>
            <g class="Union_5">
              <path fill="#fff" fill-rule="evenodd" d="M488.13 334.673c12.292 1.816 39.768 8.213 51.334 19.276 8.73 16.832 17.39 58.96 16.552 66.839l-.892.603c-5.383 3.644-7.944 5.377-12.518 3.587-1.905-8.678-8.153-23.27-13.189-35.033a826.92 826.92 0 01-3.778-8.914l-1.262 15.87-3.981 31.22c-5.028 3.562-6.495 3.352-12.571 0l-4.102-58.605c-21.771-3.278-47.504-7.827-49.536-10.748-2.682-3.855-3.073-10.406-2.934-13.2l36.877-10.895z" clip-rule="evenodd"/>
              <path fill="#000" d="M539.464 353.949l.443-.23-.038-.074-.06-.057-.345.361zm-51.334-19.276l.073-.495-.109-.016-.106.031.142.48zm67.886 86.115l.28.414.193-.13.024-.231-.497-.053zm-.892.603l-.28-.415.28.415zm-12.518 3.587l-.488.107.057.261.249.098.182-.466zm-13.189-35.033l-.46.197.46-.197zm-3.778-8.914l.462-.191-.961.151.499.04zm-1.262 15.87l.496.064.002-.012.001-.012-.499-.04zm-3.981 31.22l.289.408.18-.127.027-.218-.496-.063zm-12.571 0l-.499.035.019.271.238.131.242-.437zm-4.102-58.605l.498-.035-.028-.399-.396-.06-.074.494zm-49.536-10.748l.41-.285-.41.285zm-2.934-13.2l-.141-.479-.34.1-.018.354.499.025zm88.556 8.02c-5.869-5.614-15.722-10.007-25.585-13.22-9.881-3.219-19.851-5.278-26.021-6.19l-.146.989c6.122.905 16.036 2.952 25.857 6.152 9.839 3.205 19.507 7.542 25.204 12.991l.691-.722zm16.704 67.253c.218-2.046-.179-6.221-1.008-11.531-.833-5.334-2.112-11.877-3.69-18.697-3.152-13.624-7.511-28.418-11.908-36.894l-.887.46c4.333 8.356 8.67 23.042 11.821 36.66 1.573 6.801 2.848 13.319 3.676 18.626.832 5.331 1.203 9.376 1.002 11.27l.994.106zm-1.109.964l.892-.603-.56-.829-.892.603.56.829zm-12.98 3.639c2.388.934 4.295.958 6.304.249 1.959-.691 4.005-2.08 6.676-3.888l-.56-.829c-2.712 1.836-4.638 3.136-6.449 3.774-1.761.622-3.42.618-5.606-.238l-.365.932zm-13.467-35.302c5.046 11.785 11.268 26.324 13.161 34.943l.977-.214c-1.919-8.736-8.192-23.383-13.219-35.123l-.919.394zm-3.78-8.92c1.09 2.636 2.39 5.672 3.78 8.92l.919-.394a818.993 818.993 0 01-3.775-8.908l-.924.382zm-.037-.231l-1.261 15.871.997.079 1.261-15.87-.997-.08zm-1.259 15.847l-3.981 31.219.992.127 3.981-31.219-.992-.127zm-3.774 30.875c-2.514 1.781-4.019 2.524-5.596 2.501-1.608-.024-3.383-.842-6.445-2.531l-.483.875c3.015 1.664 5.012 2.627 6.913 2.655 1.933.029 3.675-.904 6.189-2.684l-.578-.816zm-11.783.373l-4.103-58.605-.997.07 4.102 58.605.998-.07zm-54.548-69.032c.183.262.466.493.794.702.335.213.752.425 1.236.636.968.423 2.248.86 3.776 1.307 3.059.894 7.162 1.842 11.871 2.799 9.421 1.915 21.307 3.873 32.195 5.513l.149-.989c-10.882-1.639-22.748-3.594-32.145-5.504-4.699-.955-8.771-1.897-11.789-2.779-1.51-.442-2.745-.865-3.657-1.263a8.23 8.23 0 01-1.099-.563c-.282-.181-.438-.327-.51-.43l-.821.571zm-3.022-13.511c-.071 1.431-.007 3.803.415 6.31.421 2.499 1.205 5.185 2.607 7.201l.821-.571c-1.279-1.84-2.031-4.357-2.442-6.796-.409-2.431-.47-4.731-.402-6.094l-.999-.05zm37.234-11.35l-36.876 10.896.283.959 36.877-10.896-.284-.959z"/>
            </g>
            <path stroke="#000" stroke-width=".419" d="M507.824 428.121l-4.132-58.923c11.546 2.353 16.45 4.944 22.058 12.196l-1.374 15.507-3.981 31.22c-5.028 3.562-6.495 3.352-12.571 0z" class="Vector 4.1"/>
            <g class="Vector_3">
              <path fill="#fff" d="M475.877 255.213c-3.143 2.933-16.552-2.515-16.552-2.515-4.358-3.017-4.191-11.593-3.562-15.505 2.849-12.403 16.133-11.593 22.419-9.638 4.191 17.265.838 24.724-2.305 27.658z"/>
              <path fill="#fff" d="M469.382 255.729c-4.727-.865-10.057-3.031-10.057-3.031-.489 3.772-1.676 11.901-2.515 14.248-1.047 2.933 12.153 6.122 12.572 1.303-.349-2.864-.982-7.786 0-12.52z"/>
              <path stroke="#000" stroke-width=".419" d="M459.325 252.698s13.409 5.448 16.552 2.515c3.143-2.934 6.496-10.393 2.305-27.658-6.286-1.955-19.57-2.765-22.419 9.638-.629 3.912-.796 12.488 3.562 15.505zm0 0c-.489 3.772-1.676 11.901-2.515 14.248-1.047 2.933 12.153 6.122 12.572 1.303-.349-2.864-.982-7.786 0-12.52-4.727-.865-10.057-3.031-10.057-3.031z"/>
            </g>
            <path fill="#000" stroke="#000" stroke-width=".419" d="M481.83 230.406c-3.184 4.191-8.578 3.974-11.511 3.276-4.358-.288-2.235 7.499-2.305 10.972 0 0-7.031-6.286-5.46 0 1.572 6.286 0 9.219-3.352 7.124-1.066-.667-3.143-2.934-4.191-5.029-1.047-2.095-3.771-6.495-1.257-15.714 2.151-7.886 11.311-7.543 17.6-7.543 4.413 0 9.022-5.524 13.632-3.639 4.609 1.886.825 5.315-3.156 10.553z" class="Vector 2_4"/>
            <g class="Vector_4">
              <path fill="#1E1C7C" d="M445.176 322.731c-2.514-41.067 7.543-64.534 16.343-63.696 7.962 0 14.457 9.01 14.457 14.877 0 0 8.915 28.779 16.343 30.171 3.352.629 9.848.629 9.848.629l11.523-.629c2.026 5.169 5.239 14.876 2.305 17.81-2.708 2.708-11.035 1.886-13.828 2.095 0 0-6.16.623-13.2.123l7.199 11.871c-9.498 7.193-32.72 23.206-42.609 23.206-6.37-2.682-8.381-4.19-8.381-36.457z"/>
              <path stroke="#000" stroke-width=".419" d="M462.566 281.664s-.706 24.169 7.753 35.619c3.438 4.654 11.497 6.321 18.648 6.828m0 0c7.04.5 13.2-.123 13.2-.123 2.793-.209 11.12.613 13.828-2.095 2.934-2.934-.279-12.641-2.305-17.81l-11.523.629s-6.496 0-9.848-.629c-7.428-1.392-16.343-30.171-16.343-30.171 0-5.867-6.495-14.877-14.457-14.877-8.8-.838-18.857 22.629-16.343 63.696 0 32.267 2.011 33.775 8.381 36.457 9.889 0 33.111-16.013 42.609-23.206l-7.199-11.871z"/>
            </g>
            <path stroke="#000" stroke-width=".419" d="M462.566 281.663s-.706 24.169 7.753 35.619c3.438 4.655 11.497 6.321 18.648 6.828 7.04.5 13.2-.123 13.2-.123 2.793-.209 11.12.613 13.828-2.095" class="Vector_5"/>
          </g>
        </g>
      </g>
      <path fill="#1E1C7C" d="M346.527 495.51c1.766-5.964 10.637-2.156 15.838 2.061 20.004-16.819 24.642 11.432 0 21.084-9.277-4.639-19.211-11.76-15.838-23.145z" class="Vector_6"/>
    </g>
    <path stroke="#000" stroke-width="3" d="M237 545h632" class="Vector_7"/>
    <path stroke="#000" stroke-dasharray="15 15" d="M301.5 253c-47.167 10.5-139.1 40.9-107.5 68.5 39.5 34.5 236.5-82 306.5-82s169 40 210.5 32.5 135-109 161.5-103.5" class="Vector 2_5"/>
    <path stroke="#000" stroke-dasharray="15 15" d="M496.232 153.099c-63-36-149.232-70.599-143.732-19.599 6.572 60.941 127 253 188.232 218.599C580.094 329.985 630 376.5 711.5 346.5" class="Vector 3"/>
    <g class="paper-plane">
      <path fill="#E0E1E7" stroke="#fff" stroke-width=".473" d="M888.262 176.657l-10.819-11.365 52.47-8.011-41.651 19.376z" class="Vector 4"/>
      <g class="Vector 5_4">
        <path fill="#E0E1E7" d="M871.225 179.495l6.439-13.967 11.389-11.506 40.388 3.7-58.216 21.773z"/>
        <path stroke="#fff" stroke-width=".473" d="M877.664 165.528l-6.439 13.967 58.216-21.773m-51.777 7.806l51.777-7.806m-51.777 7.806l11.389-11.506 40.388 3.7"/>
      </g>
    </g>
    <g class="paper-plane_2">
      <path fill="#E0E1E7" stroke="#fff" stroke-width=".518" d="M729.804 349.057l-8.483-14.939 57.861 5.388-49.378 9.551z" class="Vector 4_2"/>
      <g class="Vector 5_5">
        <path fill="#E0E1E7" d="M710.953 347.559l10.54-13.132 15.146-9.206 41.924 14.627-67.61 7.711z"/>
        <path stroke="#fff" stroke-width=".518" d="M721.493 334.427l-10.54 13.132 67.61-7.711m-57.07-5.421l57.07 5.421m-57.07-5.421l15.146-9.206 41.924 14.627"/>
      </g>
    </g>
    <g class="Group 6.4">
      <g class="Group 3_2">
        <path fill="#253093" d="M269.375 500.944V409s18.389 56.89 25.285 87.921c2.693 12.118-8.046 31.606-8.046 31.606s-17.239-14.823-17.239-27.583z" class="Vector 2_6"/>
        <path fill="#000" fill-opacity=".05" d="M279.143 457.27l-4.022-29.307 16.09 55.741-12.068-26.434z" class="Vector 4_3"/>
        <path fill="#000" fill-opacity=".18" d="M269.374 458.42c1.38 8.275 13.409 47.312 19.538 65.51l-2.298 4.022c-10.344-7.47-15.516-17.814-17.24-25.284V458.42z" class="Vector 4_4"/>
        <path stroke="#000" stroke-width=".575" d="M288.912 544.042l-18.963-133.318" class="Vector_8"/>
      </g>
      <g class="Group 4_2">
        <path fill="#3544C2" d="M300.126 524.504c-3.42-8.776-6.155-43.36 10.259-111.482 10.449 32.679 23.026 100.726-10.259 111.482z" class="Vector 4_5"/>
        <path fill="#000" fill-opacity=".11" d="M305.577 442.904c3.448 20.687-2.068 54.132-8.045 61.487-1.723-16.09 3.448-50.569 8.045-61.487z" class="Vector 4_6"/>
        <path fill="#000" fill-opacity=".18" d="M299.831 526.803c5.746-18.772 13.791-45.397 20.687-64.361 2.873 19.347 1.724 57.465-20.687 64.361z" class="Vector 4_7"/>
        <path stroke="#000" stroke-width=".575" d="M290.062 544.617c7.853-11.302 23.33-43.788 22.411-83.324-.468-20.113-2.107-50.761-2.299-46.547" class="Vector 3_2"/>
      </g>
      <g class="Group 5">
        <g class="Group_3">
          <path fill="#202A8A" d="M256.733 515.31c5.056 15.17 20.304 20.879 33.329 28.732 0 0-9.556-22.965-20.113-33.904-12.507-12.961-39.65-23.561-39.65-23.561s21.377 13.562 26.434 28.733z" class="Vector 5_6"/>
          <path stroke="#fff" stroke-width=".345" d="M290.062 544.042c-15.516-18.58-40.225-48.845-55.166-55.166" class="Vector 4_8"/>
        </g>
        <g class="Group 2_3">
          <path fill="#3544C2" d="M252.135 527.952c14.898-1.333 37.352 16.09 37.352 16.09s-24.029-7.31-37.352-7.97c-9.437-.468-24.135 4.522-24.135 4.522s13.839-11.721 24.135-12.642z" class="Vector 6_4"/>
          <path stroke="#fff" stroke-width=".23" d="M229.149 540.02s15.147-8.851 25.86-9.194c13.704-.439 32.755 12.642 32.755 12.642" class="Vector 4_9"/>
        </g>
      </g>
      <g class="Group 5.1">
        <g class="Group_4">
          <path fill="#1C2473" d="M322.817 515.31c-5.057 15.17-20.305 20.879-33.33 28.732 0 0 9.556-22.965 20.113-33.904 12.507-12.961 39.65-23.561 39.65-23.561s-21.377 13.562-26.433 28.733z" class="Vector 5_7"/>
          <path stroke="#fff" stroke-width=".345" d="M289.487 544.042c15.515-18.58 40.225-48.845 55.166-55.166" class="Vector 4_10"/>
        </g>
        <g class="Group 2_4">
          <path fill="#3544C2" d="M327.414 527.952c-14.898-1.333-37.352 16.09-37.352 16.09s24.029-7.31 37.352-7.97c9.438-.468 24.135 4.522 24.135 4.522s-13.839-11.721-24.135-12.642z" class="Vector 6_5"/>
          <path stroke="#fff" stroke-width=".23" d="M350.399 540.02s-15.147-8.851-25.859-9.194c-13.704-.439-32.755 12.642-32.755 12.642" class="Vector 4_11"/>
        </g>
      </g>
    </g>
    <g class="Group 6.5">
      <g class="Group 3_3">
        <path fill="#253093" d="M779.375 502.944V411s18.389 56.89 25.285 87.921c2.693 12.118-8.046 31.606-8.046 31.606s-17.239-14.823-17.239-27.583z" class="Vector 2_7"/>
        <path fill="#000" fill-opacity=".05" d="M789.143 459.27l-4.022-29.307 16.09 55.741-12.068-26.434z" class="Vector 4_12"/>
        <path fill="#000" fill-opacity=".18" d="M779.374 460.42c1.38 8.275 13.409 47.312 19.538 65.51l-2.298 4.022c-10.344-7.47-15.516-17.814-17.24-25.284V460.42z" class="Vector 4_13"/>
        <path stroke="#000" stroke-width=".575" d="M798.912 546.042l-18.963-133.318" class="Vector_9"/>
      </g>
      <g class="Group 4_3">
        <path fill="#3544C2" d="M810.126 526.504c-3.42-8.776-6.155-43.36 10.259-111.482 10.449 32.679 23.026 100.726-10.259 111.482z" class="Vector 4_14"/>
        <path fill="#000" fill-opacity=".11" d="M815.577 444.904c3.448 20.687-2.068 54.132-8.045 61.487-1.723-16.09 3.448-50.569 8.045-61.487z" class="Vector 4_15"/>
        <path fill="#000" fill-opacity=".18" d="M809.831 528.803c5.746-18.772 13.791-45.397 20.687-64.361 2.873 19.347 1.724 57.465-20.687 64.361z" class="Vector 4_16"/>
        <path stroke="#000" stroke-width=".575" d="M800.062 546.617c7.853-11.302 23.33-43.788 22.411-83.324-.468-20.113-2.107-50.761-2.299-46.547" class="Vector 3_3"/>
      </g>
      <g class="Group 5_2">
        <g class="Group_5">
          <path fill="#202A8A" d="M766.733 517.31c5.056 15.17 20.304 20.879 33.329 28.732 0 0-9.556-22.965-20.113-33.904-12.507-12.961-39.65-23.561-39.65-23.561s21.377 13.562 26.434 28.733z" class="Vector 5_8"/>
          <path stroke="#fff" stroke-width=".345" d="M800.062 546.042c-15.516-18.58-40.225-48.845-55.166-55.166" class="Vector 4_17"/>
        </g>
        <g class="Group 2_5">
          <path fill="#3544C2" d="M762.135 529.952c14.898-1.333 37.352 16.09 37.352 16.09s-24.029-7.31-37.352-7.97c-9.437-.468-24.135 4.522-24.135 4.522s13.839-11.721 24.135-12.642z" class="Vector 6_6"/>
          <path stroke="#fff" stroke-width=".23" d="M739.149 542.02s15.147-8.851 25.86-9.194c13.704-.439 32.755 12.642 32.755 12.642" class="Vector 4_18"/>
        </g>
      </g>
      <g class="Group 5.1_2">
        <g class="Group_6">
          <path fill="#1C2473" d="M832.817 517.31c-5.057 15.17-20.305 20.879-33.33 28.732 0 0 9.556-22.965 20.113-33.904 12.507-12.961 39.65-23.561 39.65-23.561s-21.377 13.562-26.433 28.733z" class="Vector 5_9"/>
          <path stroke="#fff" stroke-width=".345" d="M799.487 546.042c15.515-18.58 40.225-48.845 55.166-55.166" class="Vector 4_19"/>
        </g>
        <g class="Group 2_6">
          <path fill="#3544C2" d="M837.414 529.952c-14.898-1.333-37.352 16.09-37.352 16.09s24.029-7.31 37.352-7.97c9.437-.468 24.135 4.522 24.135 4.522s-13.839-11.721-24.135-12.642z" class="Vector 6_7"/>
          <path stroke="#fff" stroke-width=".23" d="M860.399 542.02s-15.147-8.851-25.859-9.194c-13.704-.439-32.755 12.642-32.755 12.642" class="Vector 4_20"/>
        </g>
      </g>
    </g>
  </g>
</svg>
