<svg xmlns="http://www.w3.org/2000/svg" width="800" height="600" fill="none" viewBox="0 0 800 600">
  <g class="shopping_online">
    <path fill="#fff" d="M0 0h800v600H0z"/>
    <g class="Group">
      <path fill="#fff" d="M733.773 553.439a3.494 3.494 0 013.489 3.49 3.493 3.493 0 01-3.489 3.489 3.494 3.494 0 01-3.49-3.489 3.494 3.494 0 013.49-3.49zm0-2a5.49 5.49 0 100 10.98 5.49 5.49 0 000-10.98z" class="Vector"/>
    </g>
    <path fill="#F0F1F1" d="M751.3 521.001v-13.7H37.6v32.2h535.5c-.5-.3-.8-.8-.8-1.4 0-.9.7-1.6 1.6-1.6.9 0 1.6.7 1.6 1.6 0 .6-.3 1.1-.8 1.4h176.5v-15.3c-.8-.1-1.5-.8-1.5-1.6.1-.9.7-1.6 1.6-1.6zm-383 9c-.9 0-1.6-.7-1.6-1.6 0-.9.7-1.6 1.6-1.6.9 0 1.6.7 1.6 1.6 0 .9-.7 1.6-1.6 1.6zm6.3-6c-.9 0-1.6-.7-1.6-1.6 0-.9.7-1.6 1.6-1.6.9 0 1.6.7 1.6 1.6 0 .9-.7 1.6-1.6 1.6zm5.6 11.4c-.9 0-1.6-.7-1.6-1.6 0-.9.7-1.6 1.6-1.6.9 0 1.6.7 1.6 1.6 0 .9-.7 1.6-1.6 1.6zm4-12c-.9 0-1.6-.7-1.6-1.6 0-.9.7-1.6 1.6-1.6.9 0 1.6.7 1.6 1.6 0 .9-.7 1.6-1.6 1.6zm9.3 8.2c-.9 0-1.6-.7-1.6-1.6 0-.9.7-1.6 1.6-1.6.9 0 1.6.7 1.6 1.6 0 .9-.7 1.6-1.6 1.6zm11.5-3.2c-.9 0-1.6-.7-1.6-1.6 0-.9.7-1.6 1.6-1.6.9 0 1.6.7 1.6 1.6 0 .9-.7 1.6-1.6 1.6zm1.6-9.1c-.9 0-1.6-.7-1.6-1.6 0-.9.7-1.6 1.6-1.6.9 0 1.6.7 1.6 1.6 0 .8-.7 1.6-1.6 1.6zm9.6 11.5c-.9 0-1.6-.7-1.6-1.6 0-.9.7-1.6 1.6-1.6.9 0 1.6.7 1.6 1.6 0 .9-.8 1.6-1.6 1.6zm3.7-11.5c-.9 0-1.6-.7-1.6-1.6 0-.9.7-1.6 1.6-1.6.9 0 1.6.7 1.6 1.6 0 .8-.7 1.6-1.6 1.6zm5.3 16.1c-.9 0-1.6-.7-1.6-1.6 0-.9.7-1.6 1.6-1.6.9 0 1.6.7 1.6 1.6 0 .9-.7 1.6-1.6 1.6zm0-6.2c-.9 0-1.6-.7-1.6-1.6 0-.9.7-1.6 1.6-1.6.9 0 1.6.7 1.6 1.6 0 .9-.7 1.6-1.6 1.6zm15.5-.8c-.9 0-1.6-.7-1.6-1.6 0-.9.7-1.6 1.6-1.6.9 0 1.6.7 1.6 1.6 0 .9-.7 1.6-1.6 1.6zm9.5.8c-.9 0-1.6-.7-1.6-1.6 0-.9.7-1.6 1.6-1.6.9 0 1.6.7 1.6 1.6 0 .9-.7 1.6-1.6 1.6zm7.8-8.3c-.9 0-1.6-.7-1.6-1.6 0-.9.7-1.6 1.6-1.6.9 0 1.6.7 1.6 1.6 0 .9-.7 1.6-1.6 1.6zm4.6 7.5c-.9 0-1.6-.7-1.6-1.6 0-.9.7-1.6 1.6-1.6.9 0 1.6.7 1.6 1.6 0 .9-.7 1.6-1.6 1.6zm7.4 7c-.9 0-1.6-.7-1.6-1.6 0-.9.7-1.6 1.6-1.6.9 0 1.6.7 1.6 1.6 0 .9-.8 1.6-1.6 1.6zm1.6-7c-.9 0-1.6-.7-1.6-1.6 0-.9.7-1.6 1.6-1.6.9 0 1.6.7 1.6 1.6 0 .9-.7 1.6-1.6 1.6zm13.9-5c-.9 0-1.6-.7-1.6-1.6 0-.9.7-1.6 1.6-1.6.9 0 1.6.7 1.6 1.6 0 .9-.7 1.6-1.6 1.6zm9.3 8.2c-.9 0-1.6-.7-1.6-1.6 0-.9.7-1.6 1.6-1.6.9 0 1.6.7 1.6 1.6 0 .9-.7 1.6-1.6 1.6zm9.5-8.2c-.9 0-1.6-.7-1.6-1.6 0-.9.7-1.6 1.6-1.6.9 0 1.6.7 1.6 1.6 0 .9-.7 1.6-1.6 1.6zm11.3 7.4c-.9 0-1.6-.7-1.6-1.6 0-.9.7-1.6 1.6-1.6.9 0 1.6.7 1.6 1.6 0 .9-.7 1.6-1.6 1.6zm5.6 4.6c-.9 0-1.6-.7-1.6-1.6 0-.9.7-1.6 1.6-1.6.9 0 1.6.7 1.6 1.6 0 .9-.8 1.6-1.6 1.6zm0-16.1c-.9 0-1.6-.7-1.6-1.6 0-.9.7-1.6 1.6-1.6.9 0 1.6.7 1.6 1.6 0 .8-.8 1.6-1.6 1.6zm10 16.1c-.9 0-1.6-.7-1.6-1.6 0-.9.7-1.6 1.6-1.6.9 0 1.6.7 1.6 1.6 0 .9-.7 1.6-1.6 1.6zm7.2-13.6c-.9 0-1.6-.7-1.6-1.6 0-.9.7-1.6 1.6-1.6.9 0 1.6.7 1.6 1.6 0 .9-.7 1.6-1.6 1.6zm7.7 13.6c-.9 0-1.6-.7-1.6-1.6 0-.9.7-1.6 1.6-1.6.9 0 1.6.7 1.6 1.6 0 .9-.7 1.6-1.6 1.6zm1.6-12.9c-.9 0-1.6-.7-1.6-1.6 0-.9.7-1.6 1.6-1.6.9 0 1.6.7 1.6 1.6 0 .9-.7 1.6-1.6 1.6zm3.8 6.7c-.9 0-1.6-.7-1.6-1.6 0-.9.7-1.6 1.6-1.6.9 0 1.6.7 1.6 1.6 0 .9-.7 1.6-1.6 1.6zm10.6 1.8c-.9 0-1.6-.7-1.6-1.6 0-.9.7-1.6 1.6-1.6.9 0 1.6.7 1.6 1.6 0 .9-.7 1.6-1.6 1.6zm21.8 1c-.9 0-1.6-.7-1.6-1.6 0-.9.7-1.6 1.6-1.6.9 0 1.6.7 1.6 1.6 0 .9-.7 1.6-1.6 1.6zm4-19.3c0-.9.7-1.6 1.6-1.6.9 0 1.6.7 1.6 1.6 0 .9-.7 1.6-1.6 1.6-.9 0-1.6-.7-1.6-1.6zm2.1 11.4c-.9 0-1.6-.7-1.6-1.6 0-.9.7-1.6 1.6-1.6.9 0 1.6.7 1.6 1.6 0 .9-.7 1.6-1.6 1.6zm13.3 7.9c-.9 0-1.6-.7-1.6-1.6 0-.9.7-1.6 1.6-1.6.9 0 1.6.7 1.6 1.6 0 .9-.7 1.6-1.6 1.6zm6.6-16.1c-.9 0-1.6-.7-1.6-1.6 0-.9.7-1.6 1.6-1.6.9 0 1.6.7 1.6 1.6 0 .9-.7 1.6-1.6 1.6zm8.4 14.5c-.9 0-1.6-.7-1.6-1.6 0-.9.7-1.6 1.6-1.6.9 0 1.6.7 1.6 1.6 0 .9-.7 1.6-1.6 1.6zm8.5-13.7c-.9 0-1.6-.7-1.6-1.6 0-.9.7-1.6 1.6-1.6.9 0 1.6.7 1.6 1.6 0 .9-.7 1.6-1.6 1.6zm6.8 19.8c-.9 0-1.6-.7-1.6-1.6 0-.9.7-1.6 1.6-1.6.9 0 1.6.7 1.6 1.6 0 .9-.7 1.6-1.6 1.6zm1.6-11.6c-.9 0-1.6-.7-1.6-1.6 0-.9.7-1.6 1.6-1.6.9 0 1.6.7 1.6 1.6 0 .9-.7 1.6-1.6 1.6zm7.6 11.6c-.9 0-1.6-.7-1.6-1.6 0-.9.7-1.6 1.6-1.6.9 0 1.6.7 1.6 1.6 0 .9-.7 1.6-1.6 1.6zm0-19.8c-.9 0-1.6-.7-1.6-1.6 0-.9.7-1.6 1.6-1.6.9 0 1.6.7 1.6 1.6 0 .9-.7 1.6-1.6 1.6zm8.9 15.3c-.9 0-1.6-.7-1.6-1.6 0-.9.7-1.6 1.6-1.6.9 0 1.6.7 1.6 1.6 0 .9-.7 1.6-1.6 1.6zm3.4-15.3c-.9 0-1.6-.7-1.6-1.6 0-.9.7-1.6 1.6-1.6.9 0 1.6.7 1.6 1.6 0 .9-.7 1.6-1.6 1.6zm6.6 9c-.9 0-1.6-.7-1.6-1.6 0-.9.7-1.6 1.6-1.6.9 0 1.6.7 1.6 1.6 0 .9-.7 1.6-1.6 1.6zm12 7.9c-.9 0-1.6-.7-1.6-1.6 0-.9.7-1.6 1.6-1.6.9 0 1.6.7 1.6 1.6 0 .9-.8 1.6-1.6 1.6zm1.6-16.9c-.9 0-1.6-.7-1.6-1.6 0-.9.7-1.6 1.6-1.6.9 0 1.6.7 1.6 1.6 0 .9-.7 1.6-1.6 1.6zm9.5 18.2c-.9 0-1.6-.7-1.6-1.6 0-.9.7-1.6 1.6-1.6.9 0 1.6.7 1.6 1.6 0 .9-.7 1.6-1.6 1.6zm4.1-22.2c0-.9.7-1.6 1.6-1.6.9 0 1.6.7 1.6 1.6 0 .9-.7 1.6-1.6 1.6-.9 0-1.6-.7-1.6-1.6zm2.4 11.4c-.9 0-1.6-.7-1.6-1.6 0-.9.7-1.6 1.6-1.6.9 0 1.6.7 1.6 1.6 0 .9-.7 1.6-1.6 1.6zm13.3 7.9c-.9 0-1.6-.7-1.6-1.6 0-.9.7-1.6 1.6-1.6.9 0 1.6.7 1.6 1.6 0 .9-.8 1.6-1.6 1.6zm6.6-16.1c-.9 0-1.6-.7-1.6-1.6 0-.9.7-1.6 1.6-1.6.9 0 1.6.7 1.6 1.6 0 .9-.7 1.6-1.6 1.6zm3.2 18.3c-.9 0-1.6-.7-1.6-1.6 0-.9.7-1.6 1.6-1.6.9 0 1.6.7 1.6 1.6 0 .9-.7 1.6-1.6 1.6zm6.9-10.1c-.9 0-1.6-.7-1.6-1.6 0-.9.7-1.6 1.6-1.6.9 0 1.6.7 1.6 1.6 0 .9-.7 1.6-1.6 1.6zm15.2.8c-.9 0-1.6-.7-1.6-1.6 0-.9.7-1.6 1.6-1.6.9 0 1.6.7 1.6 1.6 0 .9-.7 1.6-1.6 1.6zm1.6-9c-.9 0-1.6-.7-1.6-1.6 0-.9.7-1.6 1.6-1.6.9 0 1.6.7 1.6 1.6 0 .9-.7 1.6-1.6 1.6z" class="Vector_2"/>
    <path fill="#58595B" d="M731.8 425.201H595.6c-.6 0-1.2-.5-1.2-1.2 0-.6.5-1.2 1.2-1.2h136.2c.6 0 1.2.5 1.2 1.2s-.6 1.2-1.2 1.2z" class="Vector_3"/>
    <path fill="#58595B" d="M731.8 349H595.6c-.6 0-1.2-.5-1.2-1.2 0-.6.5-1.2 1.2-1.2h136.2c.6 0 1.2.5 1.2 1.2 0 .6-.6 1.2-1.2 1.2z" class="Vector_4"/>
    <path fill="#58595B" d="M731.8 161.7H545.3v-2.3h186.5c.6 0 1.2.5 1.2 1.2 0 .6-.6 1.1-1.2 1.1z" class="Vector_5"/>
    <path fill="#BBBDBF" d="M487.9 331.1h-56.2v3.5h56.2v-3.5z" class="Vector_6"/>
    <path fill="#BBBDBF" d="M479.8 351.9h-48.1v3.5h48.1v-3.5z" class="Vector_7"/>
    <path fill="#BBBDBF" d="M467.9 358.4h-36.2v3.5h36.2v-3.5z" class="Vector_8"/>
    <path fill="#BBBDBF" d="M459.8 345.5h-28.1v3.5h28.1v-3.5z" class="Vector_9"/>
    <g class="Group_2">
      <path fill="#D0D2D3" d="M531.7 111.1h-47.9v7.3h47.9v-7.3z" class="Vector_10"/>
      <path fill="#D0D2D3" d="M523.2 355.4h-17.4v6.4h17.4v-6.4z" class="Vector_11"/>
      <path fill="#D0D2D3" d="M523.2 346.6h-17.4v6.4h17.4v-6.4z" class="Vector_12"/>
      <path fill="#D0D2D3" d="M523.2 177.5h-17.4v6.5h17.4v-6.5z" class="Vector_13"/>
      <path fill="#D0D2D3" d="M523.2 168.8h-17.4v6.5h17.4v-6.5z" class="Vector_14"/>
      <path fill="#D0D2D3" d="M487.899 153.2h-56.2v3.5h56.2v-3.5z" class="Vector_15"/>
      <path fill="#D0D2D3" d="M479.799 174.1h-48.1v3.5h48.1v-3.5z" class="Vector_16"/>
      <path fill="#D0D2D3" d="M471.099 111.1h-47.9v7.3h47.9v-7.3z" class="Vector_17"/>
      <path fill="#D0D2D3" d="M467.899 180.5h-36.2v3.5h36.2v-3.5z" class="Vector_18"/>
      <path fill="#D0D2D3" d="M459.799 167.6h-28.1v3.5h28.1v-3.5z" class="Vector_19"/>
      <path fill="#D0D2D3" d="M410.4 111.1h-47.8v7.3h47.8v-7.3z" class="Vector_20"/>
    </g>
    <path fill="#3E3E3E" d="M216.9 227.801l1.4 14.5-3.3-11.1 1.9-3.4z" class="Vector_21"/>
    <path fill="#3E3E3E" d="M215 231.199l3.3 11.1-3.7 2.8h-7l7.4-13.9z" class="Vector_22"/>
    <path fill="#3E3E3E" d="M214.6 245.1l-11.6 8.5 4.6-8.5h7z" class="Vector_23"/>
    <path fill="#58595B" d="M349 161.7H73.4c-.6 0-1.2-.5-1.2-1.2 0-.6.5-1.2 1.2-1.2H349v2.4z" class="Vector_24"/>
    <g class="Group_3">
      <path fill="#fff" d="M733.8 551.6c-3 0-5.5 2.5-5.5 5.5s2.5 5.5 5.5 5.5 5.5-2.5 5.5-5.5-2.5-5.5-5.5-5.5z" class="Vector_25"/>
      <path fill="#fff" d="M523.2 266.5h-17.4v6.5h17.4v-6.5z" class="Vector_26"/>
      <path fill="#fff" d="M523.2 257.7h-17.4v6.5h17.4v-6.5z" class="Vector_27"/>
      <path fill="#fff" d="M487.9 242.2h-56.2v3.5h56.2v-3.5z" class="Vector_28"/>
      <path fill="#fff" d="M479.8 263h-48.1v3.5h48.1V263z" class="Vector_29"/>
      <path fill="#fff" d="M467.9 269.4h-36.2v3.5h36.2v-3.5z" class="Vector_30"/>
      <path fill="#fff" d="M459.8 256.5h-28.1v3.5h28.1v-3.5z" class="Vector_31"/>
      <path fill="#fff" d="M530.1 62.8h-38.3v11.3c0 6.3-5.1 11.4-11.4 11.4h-66.5c-6.3 0-11.4-5.1-11.4-11.4V62.8h-38.3c-7.1 0-12.9 5.8-12.9 12.9v260.2c.8-.2 1.7-.4 2.5-.6.6-.2 1.3.2 1.4.8.2.6-.2 1.3-.8 1.4-1.1.3-2.1.5-3.2.7v77.1c0 7.1 5.8 12.9 12.9 12.9H530c7.1 0 12.9-5.8 12.9-12.9V75.7c0-7.1-5.7-12.9-12.8-12.9zm-30.9 7.6c.7-.7 1.8-1.2 2.9-1.2h25.5c2.3 0 4.1 1.8 4.1 4.1 0 1.1-.5 2.1-1.2 2.9-.7.7-1.8 1.2-2.9 1.2h-25.5c-2.3 0-4.1-1.8-4.1-4.1 0-1.1.5-2.2 1.2-2.9zm-15.4 40.7h47.9v7.3h-47.9v-7.3zm4.1 42.1v3.5h-56.2v-3.5h56.2zm-64.7-42.1H471v7.3h-47.9v-7.3h.1zm-59.4-40.7c.7-.7 1.8-1.2 2.9-1.2h25.5c2.3 0 4.1 1.8 4.1 4.1 0 1.1-.5 2.1-1.2 2.9-.7.7-1.8 1.2-2.9 1.2h-25.5c-2.3 0-4.1-1.8-4.1-4.1 0-1.1.4-2.2 1.2-2.9zm-1.2 40.7h47.8v7.3h-47.8v-7.3zm26.7 206c-1.8 1.4-3.6 2.8-5.3 4.1-.2.2-.5.2-.7.2-.3 0-.7-.2-.9-.5-.4-.5-.3-1.2.2-1.6 1.7-1.3 3.5-2.6 5.3-4.1.5-.4 1.2-.3 1.6.2.4.5.3 1.3-.2 1.7zm4.4 98.5c0 3.6-2.9 6.5-6.5 6.5h-13.4c-3.6 0-6.5-2.9-6.5-6.5v-13.4c0-3.6 2.9-6.5 6.5-6.5h13.4c3.6 0 6.5 2.9 6.5 6.5v13.4zm15-47.4h-44.4v-34.6c-1.2.6-2.3 1.1-3.4 1.6-.2.1-.3.1-.5.1-.5 0-.9-.3-1.1-.7-.3-.6 0-1.3.6-1.5 1.4-.6 2.8-1.3 4.3-2.1v-7.3h12l.9-.6c.5-.4 1.3-.2 1.6.3.1.1.1.2.1.3h29.8v44.5h.1zm29.4 47.4c0 3.6-2.9 6.5-6.5 6.5h-13.4c-3.6 0-6.5-2.9-6.5-6.5v-13.4c0-3.6 2.9-6.5 6.5-6.5h13.4c3.6 0 6.5 2.9 6.5 6.5v13.4zm41.7-63.7v3.5h-48.1v-3.5h48.1zm-48.1-3v-3.4h28.1v3.5h-28.1v-.1zm36.2 9.5v3.5h-36.2v-3.5h36.2zm14.6 57.2c0 3.6-2.9 6.5-6.5 6.5h-13.4c-3.6 0-6.5-2.9-6.5-6.5v-13.4c0-3.6 2.9-6.5 6.5-6.5H476c3.6 0 6.5 2.9 6.5 6.5v13.4zm5.4-81.1h-56.2V331h56.2v3.5zm39 81.1c0 3.6-2.9 6.5-6.5 6.5H507c-3.6 0-6.5-2.9-6.5-6.5v-13.4c0-3.6 2.9-6.5 6.5-6.5h13.4c3.6 0 6.5 2.9 6.5 6.5v13.4zm-3.7-60.2v6.4h-17.4v-6.4h17.4zm-17.4-2.3v-6.4h17.4v6.4h-17.4zm-111.3-40.3c-.2.2-.5.3-.7.3-.3 0-.7-.1-.9-.4-.4-.5-.3-1.2.2-1.6 1.7-1.4 3.4-2.8 5.1-4.3.5-.4 1.2-.4 1.6.1.4.5.4 1.2-.1 1.6-1.7 1.5-3.3 2.8-4.9 4.2-.1 0-.2.1-.3.1zm148.3-12.3H408.7c-1.4 1.2-2.7 2.4-4 3.6-.2.2-.5.3-.8.3-.3 0-.6-.1-.9-.4-.4-.5-.4-1.2.1-1.6l2.1-1.8h-53.8v-89.2h191.4v89.1zm-63-126.4v3.5h-48.1v-3.5h48.1zm-48.1-3v-3.5h28.1v3.5h-28.1zm36.2 9.4v3.5h-36.2v-3.5h36.2zm55.3-3v6.5h-17.4v-6.5h17.4zm-17.4-2.2v-6.5h17.4v6.5h-17.4zm-97.1-13.6v29.6h-44.4V146.9h44.4v14.8z" class="Vector_32"/>
      <path fill="#fff" d="M229.1 380.6c0-.5-.5-1-1-1H103.9c-.2 0-.4.1-.6.2l.4 1.8h124.4c.6 0 1-.4 1-1z" class="Vector_33"/>
      <path fill="#fff" d="M221 157.8c-1.6 1.1-3.8 1.6-6.3 1.6h12.6c-2.5-.1-4.7-.5-6.3-1.6z" class="Vector_34"/>
      <path fill="#fff" d="M211.4 414.3h-99.6c-.4 0-.7.2-.9.6-.1.1-.1.3-.1.4 0 .3.2.6.4.8.2.1.4.2.6.2h99.6c.5 0 1-.5 1-1 0-.6-.5-1-1-1z" class="Vector_35"/>
      <path fill="#fff" d="M200.3 157.8c-1.6 1.1-3.8 1.6-6.3 1.6h12.6c-2.5-.1-4.8-.5-6.3-1.6z" class="Vector_36"/>
      <path fill="#fff" d="M176.9 431.6h-61.1c-.2 0-.4.1-.6.2-.3.2-.4.5-.4.8 0 .5.4.9.9 1h61.2c.5 0 1-.4 1-1s-.5-1-1-1z" class="Vector_37"/>
      <path fill="#fff" d="M141.1 158c-1.4 1-3.3 1.3-5.4 1.4h10.8c-2.1-.1-4-.4-5.4-1.4z" class="Vector_38"/>
      <path fill="#fff" d="M123.5 158c-1.4 1-3.3 1.3-5.4 1.4h10.8c-2.2-.1-4.1-.4-5.4-1.4z" class="Vector_39"/>
      <path fill="#fff" d="M244.699 397h-136.8c-.5 0-1 .5-1 1 0 .6.5 1 1 1h136.8c.5 0 1-.4 1-1s-.5-1-1-1z" class="Vector_40"/>
    </g>
    <path fill="#7BCBC9" fill-rule="evenodd" d="M480.4 85.5h-66.5c-6.3 0-11.4-5.1-11.3-11.4V62.8h89.2v11.3c0 6.3-5.1 11.4-11.4 11.4zm151.9 47V125l-6.2-4.2 4.9-5.7-2.1-7.3 7.4-1.2 3.1-6.9 6.4 3.8 6.8-3.3 2.5 7.1 7.3 1.8-.9 2.6-1.7 4.5 4.4 6.1-6.5 3.7-.5 7.5-7.4-1.4-5.3 5.4-.8-1-3.9-4.8-7.5.8zm.299 164.6v-2.6c0-8.6-7-15.6-15.6-15.6h-40.9c-9.3 0-16.9-7.6-16.9-16.9 0-4.7 1.9-8.9 4.9-11.9 3-3 7.2-4.9 11.9-4.9h132.8c9.3 0 16.9-7.6 16.9-16.9 0-9.3-7.6-16.9-16.9-16.9h-163.5v101.4h71.7c8.7-.1 15.6-7.1 15.6-15.7zm78.901 67.599v-6.5h-5.4v6.5c-5.4 1.2-9.4 6-9.4 11.8v42.7c0 2.2 2.3 3.6 4.3 2.6l2-1.1c1.2-.7 2.7-.4 3.6.7 1.2 1.4 3.3 1.4 4.4 0l.1-.1c.9-1.1 2.4-1.3 3.6-.7l1.9 1c1.9 1.1 4.3-.3 4.3-2.5v-42.6c0-5.8-4-10.6-9.4-11.8zm-28.8-6.5v6.5c5.4 1.2 9.4 6 9.5 11.8v42.6c0 2.2-2.4 3.6-4.3 2.5l-1.9-1c-1.2-.6-2.7-.4-3.6.7l-.1.1c-1.2 1.4-3.3 1.4-4.5 0-.9-1.1-2.4-1.4-3.6-.7l-2 1.1c-2 1-4.3-.4-4.3-2.6v-42.7c0-5.8 4-10.6 9.4-11.8v-6.5h5.4zm-33.5 16.5h-38.6c.4 1.2.7 2.4.9 3.5-7.4 16.5-3 38.3-.3 40.7.153.563-.06 1.125-.277 1.701-.208.55-.421 1.113-.323 1.699h36.5c.133-.532-.127-1.28-.354-1.931-.284-.817-.514-1.48.154-1.369 4.9 1.1 7.8-27.9 2-38.5-.2-1 0-4.8.3-5.8zm-128.8 21H507c-3.6 0-6.5 2.9-6.5 6.5v13.4c0 3.6 2.9 6.5 6.5 6.5h13.4c3.6 0 6.5-2.9 6.5-6.5v-13.4c0-3.6-2.9-6.5-6.5-6.5zm-44.4 0h-13.4c-3.6 0-6.5 2.9-6.5 6.5v13.4c0 3.6 2.9 6.5 6.5 6.5H476c3.6 0 6.5-2.9 6.5-6.5v-13.4c0-3.6-2.9-6.5-6.5-6.5zm-57.8 0h13.4c3.6 0 6.5 2.9 6.5 6.5v13.4c0 3.6-2.9 6.5-6.5 6.5h-13.4c-3.6 0-6.5-2.9-6.5-6.5v-13.4c0-3.6 2.9-6.5 6.5-6.5zm-66.801-95.198h53.8l.564-.507.872-.78.014-.013c.475-.425.95-.85 1.45-1.3.5-.4 1.2-.4 1.6.1.4.5.4 1.2-.1 1.6-.149.15-.324.299-.499.449l-.001.001c-.175.15-.35.3-.5.45h134.1v-89.2h-191.3v89.2zm154.4-42.8h17.4v6.5h-17.4v-6.5zm0 8.8h17.4v6.5h-17.4v-6.5zm-74.1-24.3h56.2v3.5h-56.2v-3.5zm0 14.3h28.1v3.5h-28.1v-3.5zm0 6.5h48.1v3.5h-48.1v-3.5zm0 6.4h36.2v3.5h-36.2v-3.5zm-8.8 14.5l2.3-2.3c.5-.5 1.2-.5 1.6 0 .4.5.5 1.2 0 1.7l-2.3 2.3c-.2.2-.5.3-.8.3-.3 0-.6-.1-.8-.3-.5-.5-.5-1.2 0-1.7zm-9.9 9.4l.002-.002c1.599-1.499 3.199-2.999 4.898-4.598.5-.5 1.2-.4 1.6 0 .4.5.4 1.2 0 1.6-1.7 1.6-3.3 3.1-4.9 4.6-.2.2-.5.3-.8.3-.3 0-.6-.1-.9-.4-.4-.3-.3-1 .1-1.5zm-48.7-58h44.4v44.4h-44.4v-44.4zm9.501 160.398h13.4c3.6 0 6.5 2.9 6.5 6.5v13.4c0 3.6-2.9 6.5-6.5 6.5h-13.4c-3.6 0-6.5-2.9-6.5-6.5v-13.4c0-3.6 2.9-6.5 6.5-6.5zM141.3 228.201c0 9.3 7.6 16.9 16.9 16.9h44.1l11.2-18.9 1.5 5.1 1.8-3.4 1.5 14.5 6-4.5-.1 7.3h85.2c9.3 0 16.8 7.6 16.8 16.9 0 4.7-1.9 8.9-5 12-3.1 3.1-7.3 5-12 5H244c-8.6 0-15.6 7-15.6 15.6v2.6c0 8.6 7 15.6 15.6 15.6h85.8v-1.4c0-1.5 0-3 .1-4.7 0-.7.6-1.2 1.2-1.1.6 0 1.1.6 1.1 1.2 0 .876-.027 1.699-.053 2.496v.001a68.86 68.86 0 00-.047 2.203v1.4H349v-101.7H158.2c-9.3 0-16.9 7.5-16.9 16.9zm191.392 68.746c-.072 1.026-.144 2.04-.192 3.054 0 .6-.5 1.1-1.2 1.1h-.1c-.6 0-1.1-.6-1.1-1.2.048-1.014.12-2.028.192-3.054.078-1.098.156-2.209.208-3.346v-.3c0-.6.6-1.1 1.2-1.1s1.1.6 1.1 1.2l.1.3a132.05 132.05 0 01-.208 3.346zm.608-10.346c0 .6-.6 1.1-1.2 1.1h-.1c-.6 0-1.1-.6-1.1-1.2.1-2.2.2-4.4.3-6.7 0-.6.5-1.1 1.2-1.1.6 0 1.1.6 1.1 1.2.1 2.2 0 4.5-.2 6.7zm.4-20.2c.1 1.799.1 3.699.1 5.598v1.202c0 .6-.5 1.1-1.2 1.1-.6 0-1.2-.5-1.2-1.2v-1.1c0-1.9 0-3.8-.1-5.5 0-.6.5-1.2 1.1-1.2.7 0 1.3.5 1.3 1.1zm-1.3-13.5c.4 2.1.7 4.4.9 6.7.1.6-.4 1.2-1 1.3h-.1c-.6 0-1.1-.5-1.1-1.1-.2-2.3-.5-4.5-.9-6.5-.1-.6.3-1.2.9-1.3.6-.1 1.2.3 1.3.9zm-5.2-13.7c.6-.2 1.3 0 1.5.6.8 2 1.6 4.2 2.2 6.5.2.6-.2 1.3-.8 1.4h-.3c-.5 0-1-.3-1.1-.8-.6-2.2-1.3-4.3-2.1-6.2-.3-.6 0-1.3.6-1.5zm-7.2-11.3c.5-.4 1.2-.4 1.6.1 1.5 1.7 2.8 3.6 4 5.6.3.6.1 1.3-.4 1.6-.2.1-.4.2-.6.2-.4 0-.8-.2-1-.6-1.1-1.9-2.4-3.7-3.8-5.3-.3-.5-.3-1.2.2-1.6zm-10.4-8.3c.3-.5 1-.7 1.6-.4 2 1.2 3.9 2.5 5.6 4 .5.4.5 1.2.1 1.6-.2.3-.5.4-.9.4-.3 0-.5-.1-.8-.3-1.6-1.4-3.4-2.7-5.3-3.8-.4-.3-.6-1-.3-1.5zm-12.4-4.9c.2-.6.8-1 1.4-.8 2.3.6 4.4 1.3 6.5 2.2.6.2.9.9.6 1.5-.2.5-.6.7-1.1.7-.2 0-.3 0-.5-.1-2-.8-4-1.5-6.2-2.1-.5-.1-.9-.8-.7-1.4zm-12.1-2.8c2.3.1 4.6.3 6.8.6.6.1 1.1.7 1 1.3-.1.6-.6 1-1.2 1h-.2c-2.1-.3-4.3-.5-6.5-.6-.6 0-1.1-.6-1.1-1.2 0-.7.6-1.1 1.2-1.1zm-13.6.5c2.3-.3 4.5-.5 6.8-.5.6 0 1.2.5 1.2 1.1 0 .7-.5 1.2-1.1 1.2-2.2.1-4.4.3-6.6.5h-.1c-.6 0-1.1-.4-1.2-1 0-.6.4-1.2 1-1.3zm-13.3 2.6c2.2-.6 4.4-1.1 6.6-1.5.6-.1 1.2.3 1.4.9.1.6-.3 1.2-.9 1.4-2.1.4-4.3.9-6.4 1.5h-.3c-.5 0-1-.3-1.1-.9-.2-.6.1-1.2.7-1.4zm-12.7 4.6l2.1-.9c1.077-.497 2.291-.926 3.472-1.342v-.001h.002l.726-.257c.6-.2 1.3.1 1.5.7.2.6-.1 1.3-.7 1.5h-.001c-1.399.5-2.799 1-3.999 1.5l-2.1.9c-.1.1-.3.1-.5.1-.4 0-.9-.3-1.1-.7-.3-.6 0-1.3.6-1.5zm-11.9 6.7c1.9-1.3 3.8-2.5 5.8-3.6.6-.3 1.3-.1 1.6.4.3.6.1 1.3-.4 1.6-1.9 1.1-3.8 2.3-5.6 3.5-.2.1-.4.2-.7.2-.4 0-.7-.2-1-.5-.3-.6-.2-1.3.3-1.6zm-6.653 5.102l.003-.002c.425-.375.85-.75 1.25-1.1.5-.4 1.2-.3 1.6.2.4.5.3 1.2-.2 1.6-.4.35-.825.7-1.25 1.05-.425.35-.85.7-1.25 1.05-.2.2-.5.3-.8.3-.3 0-.6-.1-.9-.4-.3-.4-.2-1.1.3-1.6.399-.349.823-.724 1.247-1.098zM224.3 491.301h7.7c1.9 1.2 3.2 3.4 3.1 5.9 0 3.9-3.1 7-7 7s-7-3.1-7-7c0-2.5 1.3-4.6 3.2-5.9zm-71.2 0h-7.7c-1.9 1.3-3.2 3.4-3.2 5.9 0 3.9 3.1 7 7 7s7-3.1 7-7c.1-2.5-1.2-4.7-3.1-5.9zm103.4-126h21.9c1.2 0 1.9 1.2 1.6 2.2l-37.4 79.5c-.3.5-.8.9-1.4.9h-108c0-.7-.5-1.2-1.2-1.2s-1.2.5-1.2 1.2h-10.2c-.7 0-1.3-.5-1.5-1.2l-3.3-13.1H177c.5 0 1-.4 1-1 0-.5-.5-1-1-1h-61.1c-.2 0-.4.1-.6.2l-4-15.7c.2.1.4.2.6.2h99.6c.5 0 1-.5 1-1 0-.6-.5-1-1-1h-99.6c-.4 0-.7.3-.9.6l-7.3-28.8c.6-.1 1-.8.8-1.4l-.8-3.1H228c.5 0 1-.5 1-1s-.5-1-1-1H103.8c-.2 0-.4.1-.6.2l-3.6-14.3c.2-.1.4-.2.7-.2h156.2zm-148.6 33.7h136.8c.5 0 1-.5 1-1s-.5-1-1-1H107.9c-.5 0-1 .5-1 1 0 .6.5 1 1 1z" class="Primary" clip-rule="evenodd"/>
    <path fill="#FCAD5E" fill-rule="evenodd" d="M395 76.2c-.8.7-1.8 1.2-2.9 1.2h-25.5c-2.3 0-4.1-1.8-4.1-4.1 0-1.1.5-2.2 1.2-2.9.8-.7 1.8-1.2 2.9-1.2h25.5c2.3 0 4.1 1.8 4.1 4.1 0 1.1-.5 2.2-1.2 2.9zm107.1-7h25.5c2.2 0 4.1 1.8 4.1 4.1 0 1.1-.5 2.2-1.2 2.9-.8.7-1.8 1.2-2.9 1.2h-25.5c-2.3 0-4.1-1.8-4.1-4.1 0-1.1.5-2.2 1.2-2.9.8-.7 1.8-1.2 2.9-1.2zm208.4 215.101v-6.5h-6.9v6.5h-5.3v61.7h17.6v-61.7h-5.4zM705 96v63.4h-27.2V96H705zm-15.2 206.301h-6.9v6.6h-5.3v37.7h17.6v-37.7h-5.4v-6.6zM664.2 122.3l-4.4-6.1 1.7-4.5h9.3v47.7h-27.1v-22.9l.8 1 5.3-5.4 7.4 1.4.5-7.5 6.5-3.7zM407 366.4v-.4l-.5.4h.5zm0-40.5v39.3l-19.7-19.6 19.7-19.7zm0-47.9v-.4l-.5.4h.5zm0-40.5v39.3l-19.7-19.6 19.7-19.7zm0-47.999v-.4l-.5.4h.5zm-19.7-20.7l7.1-7.1 2.3-2.3 10.3-10.3v39.2l-19.7-19.5zm-1.2 89.599L366.7 278h39l-19.6-19.6zm-19.4-68.9l19.4-19.5 19.6 19.5h-39zm0 176.9h39l-19.6-19.5-19.4 19.5zm38.2-217.7l-10.6 10.7-2.4 2.3-5.8 5.9-5.9-5.9-2.3-2.3-10.3-10.3-.5-.4h37.8zm-37.8 88.4l19 18.9 18.8-18.9h-37.8zm17.8 20.1l-18.8 18.9v-37.6l18.8 18.7zm-7.1-95.499l-2.4-2.3-9.3-9.3v37.6l18.8-18.9-7.1-7.1zm-5.2 164.449c-.325.225-.65.45-1 .65-.5.4-.7 1.1-.4 1.7.2.3.6.5 1 .5.2 0 .4-.1.6-.2 1.6-1 3.3-2.1 5-3.3h27.1l-18.8 18.9-19-18.9h6.5c-.35.2-.675.425-1 .65zm-6.5.75v3.2c.5-.2 1.1 0 1.4.5.3.6.1 1.3-.5 1.6-.15.1-.3.175-.45.25-.15.075-.3.15-.45.25v31.8l18.8-18.9-18.8-18.7zm-43-196.8v1.9h8.6v27.2h-55.2V132H296v-29h27.1v27.1zm-66.6 217.3v-14h-9.1v-6.9H242v6.9h-8V356l-3.7.4c0-2.9-1.6-5.4-4-6.7v-3.3h-13.9v3.3c-2.4 1.4-4 3.9-4 6.8v2.3l-13.8 1.5 27-34.2-19.8-11.3-35.2 45.5V342l-27.1-1.2-17.3-58.3-35.7 10.9 24.1 71.9h146v-5l19.5-26-4.3-3.5-15.3 16.6zm-43-121.201l1.5 5-7.4 13.9-4.6 8.5 11.6-8.5 3.7-2.8 6-4.5v7.3l-.1 5.5-36.8 19.7 14.9-25.2 11.2-18.9zM185.9 159.4h8.2c2.5 0 4.7-.5 6.3-1.6 1.6 1.1 3.8 1.6 6.3 1.6h8.2c2.5 0 4.7-.5 6.3-1.6 1.6 1.1 3.8 1.6 6.3 1.6h8.2c4.9-.1 8.7-1.8 8.7-6.7v-25.4c0-3.4-1.9-6.4-4.6-8v-3.9h-16.2v3.9c-.8.5-1.6 1.1-2.2 1.8-.6-.7-1.4-1.3-2.2-1.8v-3.9H203v3.9c-.8.5-1.6 1.1-2.2 1.8-.6-.7-1.4-1.3-2.2-1.8v-3.9h-16.2v3.9c-2.8 1.6-4.6 4.5-4.6 8v25.4c-.6 4.9 3.2 6.6 8.1 6.7zm-74.3 0h-.4c-4.2-.1-7.5-1.5-7.6-5.7V132c0-2.1.9-4 2.2-5.4.5-.5 1.1-1 1.8-1.4v-3.3h13.9v3.3c.7.4 1.3.9 1.9 1.5.5-.6 1.2-1.1 1.9-1.5v-3.3h13.9v3.3c.7.4 1.4.9 1.9 1.5.5-.6 1.2-1.1 1.9-1.5v-3.3h13.9v3.3c2.4 1.4 4 3.9 4 6.8v21.7c0 4.2-3.2 5.6-7.4 5.7h-6.9c-2.1-.1-4.1-.4-5.4-1.4-1.4 1-3.3 1.4-5.4 1.4h-6.9c-2.1-.1-4.1-.4-5.4-1.4-1.4 1-3.3 1.4-5.4 1.4h-6.5z" class="Secondary" clip-rule="evenodd"/>
    <g class="Group_4">
      <path fill="#414042" d="M426.9 281.6c-.5-.5-1.2-.5-1.6 0l-2.3 2.3c-.5.5-.5 1.2 0 1.7.2.2.5.3.8.3.3 0 .6-.1.8-.3l2.3-2.3c.4-.5.4-1.2 0-1.7z" class="Vector_41"/>
      <path fill="#414042" d="M417.9 288.7c-1.7 1.6-3.3 3.1-4.9 4.6-.5.4-.5 1.2-.1 1.6.2.3.5.4.9.4.3 0 .6-.1.8-.3 1.6-1.5 3.2-3 4.9-4.6.5-.4.5-1.2 0-1.6-.4-.5-1.1-.5-1.6-.1z" class="Vector_42"/>
      <path fill="#414042" d="M408.1 297.9c-1 .9-1.9 1.8-2.9 2.6-.7.6-1.4 1.3-2.1 1.8-.5.4-.5 1.2-.1 1.6.2.3.5.4.9.4.3 0 .5-.1.8-.3 1.3-1.2 2.6-2.4 4-3.6.3-.3.7-.6 1-.9.5-.4.5-1.2.1-1.6-.5-.4-1.2-.4-1.7 0z" class="Vector_43"/>
      <path fill="#414042" d="M398.2 306.7c-1.8 1.5-3.5 2.9-5.1 4.3-.5.4-.6 1.1-.2 1.6.2.3.6.4.9.4.3 0 .5-.1.7-.3l.2-.2c1.6-1.3 3.3-2.7 4.9-4.2.5-.4.6-1.2.1-1.6-.3-.3-1.1-.4-1.5 0z" class="Vector_44"/>
      <path fill="#414042" d="M387.8 315.2c-1.8 1.4-3.6 2.8-5.3 4.1-.5.4-.6 1.1-.2 1.6.2.3.6.5.9.5.2 0 .5-.1.7-.2 1.7-1.3 3.5-2.7 5.3-4.1.5-.4.6-1.1.2-1.6-.3-.6-1-.7-1.6-.3z" class="Vector_45"/>
      <path fill="#414042" d="M378.8 323.5c-.4-.5-1.1-.7-1.6-.3l-.9.6c-.4.3-.9.6-1.3.9-.4.3-.9.6-1.3.9-.7.4-1.4.9-2 1.3-.5.3-.7 1.1-.4 1.6.2.4.6.5 1 .5.2 0 .4-.1.6-.2 1.6-1 3.3-2.1 5-3.3.2-.1.4-.3.6-.4.2-.1.3-.3.4-.4.1-.3.2-.6.1-.9-.1-.1-.2-.3-.2-.3z" class="Vector_46"/>
      <path fill="#414042" d="M366.1 330.1c-.1 0-.1 0-.2.1-.2.1-.5.3-.7.4-.3.2-.6.3-.9.5-1.5.8-3 1.5-4.3 2.1-.6.3-.9.9-.6 1.5.2.4.6.7 1.1.7.2 0 .3 0 .5-.1 1.1-.5 2.2-1 3.4-1.6.3-.2.6-.3.9-.5.3-.1.6-.3.9-.5.3-.2.6-.3.9-.5.6-.3.8-1 .5-1.6-.4-.5-1-.7-1.5-.5z" class="Vector_47"/>
      <path fill="#414042" d="M353.8 335.3c-.9.2-1.7.4-2.5.6-.4.1-.8.1-1.2.2-.4.1-.8.1-1.2.2-.5 0-1 .1-1.5.1-.6 0-1.2.6-1.1 1.2 0 .6.5 1.1 1.2 1.1.5 0 .9 0 1.4-.1.4 0 .8-.1 1.2-.1.4-.1.8-.1 1.2-.2 1-.2 2.1-.4 3.2-.7.6-.2 1-.8.8-1.4-.2-.7-.8-1.1-1.5-.9z" class="Vector_48"/>
      <path fill="#414042" d="M341.4 335.4c-.5-.2-1.1-.5-1.5-.8-1.3-.7-2.3-1.7-3.3-2.8-.4-.5-1.1-.6-1.6-.2-.5.4-.6 1.1-.2 1.6 1.1 1.4 2.4 2.6 3.9 3.4.6.3 1.2.6 1.9.9.1.1.3.1.4.1.5 0 .9-.3 1.1-.7.2-.6-.1-1.3-.7-1.5z" class="Vector_49"/>
      <path fill="#414042" d="M331.4 266.5c.1 1.8.1 3.6.1 5.5v1.1c0 .6.5 1.2 1.2 1.2.6 0 1.2-.5 1.2-1.1V272c0-1.9 0-3.8-.1-5.6 0-.7-.6-1.1-1.2-1.1-.7 0-1.2.5-1.2 1.2z" class="Vector_50"/>
      <path fill="#414042" d="M333.3 286.6c.1-2.2.2-4.5.3-6.7 0-.6-.5-1.2-1.1-1.2-.7 0-1.2.5-1.2 1.1-.1 2.2-.2 4.5-.3 6.7 0 .6.5 1.2 1.1 1.2h.1c.6 0 1.1-.5 1.1-1.1z" class="Vector_51"/>
      <path fill="#414042" d="M332.6 319.9c-.1-.6-.7-1.1-1.3-1-.6.1-1.1.6-1 1.3.3 2.6.7 4.8 1.3 6.8.2.5.6.8 1.1.8.1 0 .2 0 .3-.1.6-.2 1-.8.8-1.4-.5-1.9-1-4-1.2-6.4z" class="Vector_52"/>
      <path fill="#414042" d="M330.6 293.2v.3c-.1 2.2-.3 4.3-.4 6.4 0 .6.5 1.2 1.1 1.2h.1c.6 0 1.1-.5 1.2-1.1.1-2.1.3-4.2.4-6.4v-.3c0-.6-.5-1.2-1.1-1.2-.7-.1-1.2.4-1.3 1.1z" class="Vector_53"/>
      <path fill="#414042" d="M330.1 253.3c.4 2.1.6 4.3.9 6.5.1.6.6 1.1 1.1 1.1h.1c.6-.1 1.1-.6 1-1.3-.2-2.3-.5-4.6-.9-6.7-.1-.6-.7-1-1.3-.9-.6.1-1 .7-.9 1.3z" class="Vector_54"/>
      <path fill="#414042" d="M331 314.5c.6 0 1.1-.5 1.1-1.2v-.6-1.4c0-1.4 0-3 .1-4.7 0-.6-.5-1.2-1.1-1.2-.6 0-1.2.5-1.2 1.1 0 1.7-.1 3.3-.1 4.7V313.3c0 .7.6 1.2 1.2 1.2z" class="Vector_55"/>
      <path fill="#414042" d="M330.9 246.3c-.6-2.3-1.4-4.4-2.2-6.5-.2-.6-.9-.9-1.5-.6-.6.3-.9.9-.6 1.5.8 2 1.5 4 2.1 6.2.1.5.6.8 1.1.8h.3c.6-.2 1-.8.8-1.4z" class="Vector_56"/>
      <path fill="#414042" d="M321.7 228c-.4-.5-1.1-.5-1.6-.1s-.6 1.1-.1 1.6c1.4 1.6 2.6 3.4 3.8 5.3.2.4.6.6 1 .6.2 0 .4 0 .6-.2.5-.3.7-1 .4-1.6-1.3-1.9-2.7-3.8-4.1-5.6z" class="Vector_57"/>
      <path fill="#414042" d="M311.2 219.2c-.5-.3-1.3-.1-1.6.4-.3.5-.2 1.3.4 1.6 1.9 1.1 3.6 2.4 5.3 3.8.2.2.5.3.8.3.3 0 .7-.1.9-.4.4-.5.4-1.2-.1-1.6-1.8-1.6-3.7-3-5.7-4.1z" class="Vector_58"/>
      <path fill="#414042" d="M305.1 216.1c-2-.9-4.2-1.6-6.5-2.2-.6-.2-1.3.2-1.4.8-.2.6.2 1.3.8 1.4 2.2.6 4.2 1.3 6.2 2.1.2.1.3.1.5.1.5 0 .9-.3 1.1-.7.2-.6-.1-1.3-.7-1.5z" class="Vector_59"/>
      <path fill="#414042" d="M291.9 212.5c-2.2-.3-4.5-.5-6.8-.6-.6 0-1.2.5-1.2 1.1 0 .6.5 1.2 1.1 1.2 2.2.1 4.4.3 6.5.6h.2c.6 0 1.1-.4 1.2-1 .1-.6-.4-1.2-1-1.3z" class="Vector_60"/>
      <path fill="#414042" d="M278.3 211.9c-2.2.1-4.5.3-6.8.5-.6.1-1.1.7-1 1.3.1.6.6 1 1.2 1h.1c2.2-.3 4.4-.5 6.6-.5.7 0 1.1-.6 1.1-1.2 0-.7-.5-1.1-1.2-1.1z" class="Vector_61"/>
      <path fill="#414042" d="M264.8 213.5c-2.2.4-4.4 1-6.6 1.5-.6.2-1 .8-.8 1.4.1.5.6.9 1.1.9h.3c2.1-.6 4.3-1.1 6.4-1.5.6-.1 1.1-.7.9-1.4 0-.6-.6-1-1.3-.9z" class="Vector_62"/>
      <path fill="#414042" d="M251.8 217c-1.4.5-2.8 1-4.2 1.6l-2.1.9c-.6.3-.8 1-.6 1.5.2.4.6.7 1.1.7.2 0 .3 0 .5-.1l2.1-.9c1.3-.5 2.7-1.1 4-1.5.6-.2.9-.9.7-1.5-.3-.5-.9-.9-1.5-.7z" class="Vector_63"/>
      <path fill="#414042" d="M234.3 228.4c.2 0 .5-.1.7-.2 1.8-1.2 3.7-2.4 5.6-3.5.6-.3.8-1 .4-1.6-.3-.6-1-.8-1.6-.4-2 1.1-3.9 2.3-5.8 3.6-.5.4-.7 1.1-.3 1.6.2.3.6.5 1 .5z" class="Vector_64"/>
      <path fill="#414042" d="M226.4 234.5c.3 0 .6-.1.8-.3.8-.7 1.6-1.4 2.5-2.1.5-.4.6-1.1.2-1.6-.4-.5-1.1-.6-1.6-.2-.8.7-1.7 1.4-2.5 2.2-.5.4-.5 1.2-.1 1.6.1.3.4.4.7.4z" class="Vector_65"/>
      <path fill="#414042" d="M237.4 468.7H149c-8.9 0-16.1-7.2-16.1-16.1v-4.8c0-.7-.5-1.2-1.2-1.2-.6 0-1.2.5-1.2 1.2v4.8c0 10.1 8.3 18.4 18.4 18.4h88.4c4.9 0 8.9 4 8.9 8.9s-4 8.9-8.9 8.9H131.7c-.6 0-1.2.5-1.2 1.2 0 .6.5 1.2 1.2 1.2H237.3c6.2 0 11.3-5.1 11.3-11.3.1-6.1-5-11.2-11.2-11.2z" class="Vector_66"/>
      <path fill="#414042" d="M103.7 381.6l-.4-1.8-3.6-14.3-7.7-31H67.4c-.6 0-1.2.5-1.2 1.2 0 .6.5 1.2 1.2 1.2h22.8l12 48.3c.1.5.6.9 1.1.9h.3c.6-.2 1-.8.8-1.4l-.7-3.1z" class="Vector_67"/>
      <path fill="#414042" d="M91.4 328c0-.6-.5-1.2-1.2-1.2h-37c-.7 0-1.2.5-1.2 1.2s.5 1.2 1.2 1.2h37.1c.6 0 1.1-.6 1.1-1.2z" class="Vector_68"/>
    </g>
    <g class="Group_5">
      <path fill="#231F20" d="M759.999 514.3c.9 0 1.6-.7 1.6-1.6 0-.9-.7-1.6-1.6-1.6-.9 0-1.6.7-1.6 1.6 0 .9.7 1.6 1.6 1.6z" class="Vector_69"/>
      <path fill="#231F20" d="M759.999 529.5c-.9 0-1.6.7-1.6 1.6 0 .9.7 1.6 1.6 1.6.9 0 1.6-.7 1.6-1.6 0-.9-.8-1.6-1.6-1.6z" class="Vector_70"/>
      <path fill="#231F20" d="M751.4 521h-.1c-.8.1-1.5.7-1.5 1.6 0 .8.6 1.5 1.5 1.6h.1c.9 0 1.6-.7 1.6-1.6 0-.9-.7-1.6-1.6-1.6z" class="Vector_71"/>
      <path fill="#231F20" d="M746.6 408.1c-.9 0-1.6.7-1.6 1.6 0 .9.7 1.6 1.6 1.6.9 0 1.6-.7 1.6-1.6 0-.9-.7-1.6-1.6-1.6z" class="Vector_72"/>
      <path fill="#231F20" d="M746.299 128.4c.9 0 1.6-.7 1.6-1.6 0-.9-.7-1.6-1.6-1.6-.9 0-1.6.7-1.6 1.6 0 .9.7 1.6 1.6 1.6z" class="Vector_73"/>
      <path fill="#231F20" d="M746.299 146.8c.9 0 1.6-.7 1.6-1.6 0-.9-.7-1.6-1.6-1.6-.9 0-1.6.7-1.6 1.6 0 .9.7 1.6 1.6 1.6z" class="Vector_74"/>
      <path fill="#231F20" d="M738.7 321.1c-.9 0-1.6.7-1.6 1.6 0 .9.7 1.6 1.6 1.6.9 0 1.6-.7 1.6-1.6 0-.9-.8-1.6-1.6-1.6z" class="Vector_75"/>
      <path fill="#231F20" d="M738.7 339.5c-.9 0-1.6.7-1.6 1.6 0 .9.7 1.6 1.6 1.6.9 0 1.6-.7 1.6-1.6 0-.9-.8-1.6-1.6-1.6z" class="Vector_76"/>
      <path fill="#231F20" d="M738.1 512.7c-.9 0-1.6.7-1.6 1.6 0 .9.7 1.6 1.6 1.6.9 0 1.6-.7 1.6-1.6 0-.9-.7-1.6-1.6-1.6z" class="Vector_77"/>
      <path fill="#231F20" d="M737.7 138.3c.9 0 1.6-.7 1.6-1.6 0-.9-.7-1.6-1.6-1.6-.9 0-1.6.7-1.6 1.6 0 .8.7 1.6 1.6 1.6z" class="Vector_78"/>
      <path fill="#231F20" d="M736.6 419c.9 0 1.6-.7 1.6-1.6 0-.9-.7-1.6-1.6-1.6-.9 0-1.6.7-1.6 1.6 0 .9.8 1.6 1.6 1.6z" class="Vector_79"/>
      <path fill="#231F20" d="M736.499 521.7c-.9 0-1.6.7-1.6 1.6 0 .9.7 1.6 1.6 1.6.9 0 1.6-.7 1.6-1.6 0-.8-.7-1.6-1.6-1.6z" class="Vector_80"/>
      <path fill="#231F20" d="M730.1 331c-.9 0-1.6.7-1.6 1.6 0 .9.7 1.6 1.6 1.6.9 0 1.6-.7 1.6-1.6 0-.9-.8-1.6-1.6-1.6z" class="Vector_81"/>
      <path fill="#231F20" d="M724.799 407.2c-.9 0-1.6.7-1.6 1.6 0 .9.7 1.6 1.6 1.6.9 0 1.6-.7 1.6-1.6 0-.9-.7-1.6-1.6-1.6z" class="Vector_82"/>
      <path fill="#231F20" d="M724.4 130c.9 0 1.6-.7 1.6-1.6 0-.9-.7-1.6-1.6-1.6-.9 0-1.6.7-1.6 1.6 0 .9.7 1.6 1.6 1.6z" class="Vector_83"/>
      <path fill="#231F20" d="M722.799 139c.9 0 1.6-.7 1.6-1.6 0-.9-.7-1.6-1.6-1.6-.9 0-1.6.7-1.6 1.6 0 .9.7 1.6 1.6 1.6z" class="Vector_84"/>
      <path fill="#231F20" d="M721.299 521c-.9 0-1.6.7-1.6 1.6 0 .9.7 1.6 1.6 1.6.9 0 1.6-.7 1.6-1.6 0-.9-.7-1.6-1.6-1.6z" class="Vector_85"/>
      <path fill="#231F20" d="M716.799 322.7c-.3 0-.7.1-.9.3v2.6c.3.2.6.3.9.3.9 0 1.6-.7 1.6-1.6 0-.9-.7-1.6-1.6-1.6z" class="Vector_86"/>
      <path fill="#231F20" d="M715.899 331.9v2.9c.5-.3.9-.8.9-1.4 0-.6-.4-1.2-.9-1.5z" class="Vector_87"/>
      <path fill="#231F20" d="M714.4 531c-.9 0-1.6.7-1.6 1.6 0 .9.7 1.6 1.6 1.6.9 0 1.6-.7 1.6-1.6 0-.9-.7-1.6-1.6-1.6z" class="Vector_88"/>
      <path fill="#231F20" d="M711.2 512.7c-.9 0-1.6.7-1.6 1.6 0 .9.7 1.6 1.6 1.6.9 0 1.6-.7 1.6-1.6 0-.9-.7-1.6-1.6-1.6z" class="Vector_89"/>
      <path fill="#231F20" d="M707.7 135.1c-.9 0-1.6.7-1.6 1.6 0 .9.7 1.6 1.6 1.6.9 0 1.6-.7 1.6-1.6-.1-.9-.8-1.6-1.6-1.6z" class="Vector_90"/>
      <path fill="#231F20" d="M704.6 528.8c-.9 0-1.6.7-1.6 1.6 0 .9.7 1.6 1.6 1.6.9 0 1.6-.7 1.6-1.6 0-.9-.8-1.6-1.6-1.6z" class="Vector_91"/>
      <path fill="#231F20" d="M693.9 411.5c-.9 0-1.6.7-1.6 1.6 0 .9.7 1.6 1.6 1.6.9 0 1.6-.7 1.6-1.6 0-.9-.7-1.6-1.6-1.6z" class="Vector_92"/>
      <path fill="#231F20" d="M691.299 521c-.9 0-1.6.7-1.6 1.6 0 .9.7 1.6 1.6 1.6.9 0 1.6-.7 1.6-1.6 0-.9-.7-1.6-1.6-1.6z" class="Vector_93"/>
      <path fill="#231F20" d="M692.099 512.7c0-.9-.7-1.6-1.6-1.6-.9 0-1.6.7-1.6 1.6 0 .9.7 1.6 1.6 1.6.8 0 1.6-.7 1.6-1.6z" class="Vector_94"/>
      <path fill="#231F20" d="M684.799 531.7c-.9 0-1.6.7-1.6 1.6 0 .9.7 1.6 1.6 1.6.9 0 1.6-.7 1.6-1.6 0-.9-.7-1.6-1.6-1.6z" class="Vector_95"/>
      <path fill="#231F20" d="M676 136.7c0 .9.7 1.6 1.6 1.6h.2v-3.1h-.2c-.9-.1-1.6.6-1.6 1.5z" class="Vector_96"/>
      <path fill="#231F20" d="M675.199 126.8c0 .9.7 1.6 1.6 1.6.4 0 .8-.2 1.1-.4v-2.3c-.3-.3-.7-.4-1.1-.4-.9-.1-1.6.6-1.6 1.5z" class="Vector_97"/>
      <path fill="#231F20" d="M675.299 513.5c-.9 0-1.6.7-1.6 1.6 0 .9.7 1.6 1.6 1.6.9 0 1.6-.7 1.6-1.6 0-.9-.7-1.6-1.6-1.6z" class="Vector_98"/>
      <path fill="#231F20" d="M673.7 530.4c-.9 0-1.6.7-1.6 1.6 0 .9.7 1.6 1.6 1.6.9 0 1.6-.7 1.6-1.6 0-.9-.8-1.6-1.6-1.6z" class="Vector_99"/>
      <path fill="#231F20" d="M672.7 147.4c0-.9-.7-1.6-1.6-1.6h-.3v3.1h.3c.9.1 1.6-.6 1.6-1.5z" class="Vector_100"/>
      <path fill="#231F20" d="M669.999 331c-.9 0-1.6.7-1.6 1.6 0 .9.7 1.6 1.6 1.6.9 0 1.6-.7 1.6-1.6 0-.9-.7-1.6-1.6-1.6z" class="Vector_101"/>
      <path fill="#231F20" d="M670.8 322.7c0-.9-.7-1.6-1.6-1.6-.9 0-1.6.7-1.6 1.6 0 .9.7 1.6 1.6 1.6.8 0 1.6-.7 1.6-1.6z" class="Vector_102"/>
      <path fill="#231F20" d="M665.399 401.2c0 .9.7 1.6 1.6 1.6.4 0 .7-.1 1-.4v-2.5c-.3-.2-.6-.4-1-.4-.9.1-1.6.8-1.6 1.7z" class="Vector_103"/>
      <path fill="#231F20" d="M663.499 341.7c-.9 0-1.6.7-1.6 1.6 0 .9.7 1.6 1.6 1.6.9 0 1.6-.7 1.6-1.6 0-.9-.8-1.6-1.6-1.6z" class="Vector_104"/>
      <path fill="#231F20" d="M661.7 522.5c-.9 0-1.6.7-1.6 1.6 0 .9.7 1.6 1.6 1.6.9 0 1.6-.7 1.6-1.6 0-.9-.7-1.6-1.6-1.6z" class="Vector_105"/>
      <path fill="#231F20" d="M657.499 407.7c-.9 0-1.6.7-1.6 1.6 0 .9.7 1.6 1.6 1.6.9 0 1.6-.7 1.6-1.6 0-.9-.8-1.6-1.6-1.6z" class="Vector_106"/>
      <path fill="#231F20" d="M655.1 513.5c-.9 0-1.6.7-1.6 1.6 0 .9.7 1.6 1.6 1.6.9 0 1.6-.7 1.6-1.6 0-.9-.7-1.6-1.6-1.6z" class="Vector_107"/>
      <path fill="#231F20" d="M653.999 326.7c.9 0 1.6-.7 1.6-1.6 0-.9-.7-1.6-1.6-1.6-.9 0-1.6.7-1.6 1.6 0 .9.7 1.6 1.6 1.6z" class="Vector_108"/>
      <path fill="#231F20" d="M652.299 340.4c-.9 0-1.6.7-1.6 1.6 0 .9.7 1.6 1.6 1.6.9 0 1.6-.7 1.6-1.6.1-.9-.7-1.6-1.6-1.6z" class="Vector_109"/>
      <path fill="#231F20" d="M651.7 528.8c-.9 0-1.6.7-1.6 1.6 0 .9.7 1.6 1.6 1.6.9 0 1.6-.7 1.6-1.6 0-.9-.7-1.6-1.6-1.6z" class="Vector_110"/>
      <path fill="#231F20" d="M642.799 513.5c-.9 0-1.6.7-1.6 1.6 0 .9.7 1.6 1.6 1.6.9 0 1.6-.7 1.6-1.6 0-.9-.7-1.6-1.6-1.6z" class="Vector_111"/>
      <path fill="#231F20" d="M642.799 533.3c-.9 0-1.6.7-1.6 1.6 0 .9.7 1.6 1.6 1.6.9 0 1.6-.7 1.6-1.6 0-.9-.7-1.6-1.6-1.6z" class="Vector_112"/>
      <path fill="#231F20" d="M642 334.2c0-.9-.7-1.6-1.6-1.6-.9 0-1.6.7-1.6 1.6 0 .9.7 1.6 1.6 1.6.9 0 1.6-.7 1.6-1.6z" class="Vector_113"/>
      <path fill="#231F20" d="M639.599 144.5c0-.9-.7-1.6-1.6-1.6-.9 0-1.6.7-1.6 1.6 0 .9.7 1.6 1.6 1.6.9 0 1.6-.7 1.6-1.6z" class="Vector_114"/>
      <path fill="#231F20" d="M635.2 521.7c-.9 0-1.6.7-1.6 1.6 0 .9.7 1.6 1.6 1.6.9 0 1.6-.7 1.6-1.6 0-.8-.7-1.6-1.6-1.6z" class="Vector_115"/>
      <path fill="#231F20" d="M633.799 326.7c.9 0 1.6-.7 1.6-1.6 0-.9-.7-1.6-1.6-1.6-.9 0-1.6.7-1.6 1.6 0 .9.7 1.6 1.6 1.6z" class="Vector_116"/>
      <path fill="#231F20" d="M633.6 533.3c-.9 0-1.6.7-1.6 1.6 0 .9.7 1.6 1.6 1.6.9 0 1.6-.7 1.6-1.6 0-.9-.7-1.6-1.6-1.6z" class="Vector_117"/>
      <path fill="#231F20" d="M630.4 338.8c-.9 0-1.6.7-1.6 1.6 0 .9.7 1.6 1.6 1.6.9 0 1.6-.7 1.6-1.6 0-.9-.7-1.6-1.6-1.6z" class="Vector_118"/>
      <path fill="#231F20" d="M629.2 130.8c.9 0 1.6-.7 1.6-1.6 0-.9-.7-1.6-1.6-1.6-.9 0-1.6.7-1.6 1.6 0 .9.7 1.6 1.6 1.6z" class="Vector_119"/>
      <path fill="#231F20" d="M629.2 150.6c.9 0 1.6-.7 1.6-1.6 0-.9-.7-1.6-1.6-1.6-.9 0-1.6.7-1.6 1.6 0 .9.7 1.6 1.6 1.6z" class="Vector_120"/>
      <path fill="#231F20" d="M626.799 513.5c-.9 0-1.6.7-1.6 1.6 0 .9.7 1.6 1.6 1.6.9 0 1.6-.7 1.6-1.6 0-.9-.7-1.6-1.6-1.6z" class="Vector_121"/>
      <path fill="#231F20" d="M621.499 323.5c-.9 0-1.6.7-1.6 1.6 0 .9.7 1.6 1.6 1.6.9 0 1.6-.7 1.6-1.6 0-.9-.7-1.6-1.6-1.6z" class="Vector_122"/>
      <path fill="#231F20" d="M621.499 343.3c-.9 0-1.6.7-1.6 1.6 0 .9.7 1.6 1.6 1.6.9 0 1.6-.7 1.6-1.6 0-.9-.7-1.6-1.6-1.6z" class="Vector_123"/>
      <path fill="#231F20" d="M621.499 139c.9 0 1.6-.7 1.6-1.6 0-.9-.7-1.6-1.6-1.6-.9 0-1.6.7-1.6 1.6 0 .9.7 1.6 1.6 1.6z" class="Vector_124"/>
      <path fill="#231F20" d="M621.5 149c0-.9-.7-1.6-1.6-1.6-.9 0-1.6.7-1.6 1.6 0 .9.7 1.6 1.6 1.6.9 0 1.6-.7 1.6-1.6z" class="Vector_125"/>
      <path fill="#231F20" d="M618.299 527.2c-.9 0-1.6.7-1.6 1.6 0 .9.7 1.6 1.6 1.6.9 0 1.6-.7 1.6-1.6 0-.9-.7-1.6-1.6-1.6z" class="Vector_126"/>
      <path fill="#231F20" d="M613.9 331.8c-.9 0-1.6.7-1.6 1.6 0 .9.7 1.6 1.6 1.6.9 0 1.6-.7 1.6-1.6 0-.9-.7-1.6-1.6-1.6z" class="Vector_127"/>
      <path fill="#231F20" d="M613.1 130.8c.9 0 1.6-.7 1.6-1.6 0-.9-.7-1.6-1.6-1.6-.9 0-1.6.7-1.6 1.6 0 .9.7 1.6 1.6 1.6z" class="Vector_128"/>
      <path fill="#231F20" d="M612.299 343.3c-.9 0-1.6.7-1.6 1.6 0 .9.7 1.6 1.6 1.6.9 0 1.6-.7 1.6-1.6 0-.9-.7-1.6-1.6-1.6z" class="Vector_129"/>
      <path fill="#231F20" d="M609.9 512.7c-.9 0-1.6.7-1.6 1.6 0 .9.7 1.6 1.6 1.6.9 0 1.6-.7 1.6-1.6 0-.9-.7-1.6-1.6-1.6z" class="Vector_130"/>
      <path fill="#231F20" d="M605.499 323.5c-.9 0-1.6.7-1.6 1.6 0 .9.7 1.6 1.6 1.6.9 0 1.6-.7 1.6-1.6 0-.9-.8-1.6-1.6-1.6z" class="Vector_131"/>
      <path fill="#231F20" d="M604.6 144.5c.9 0 1.6-.7 1.6-1.6 0-.9-.7-1.6-1.6-1.6-.9 0-1.6.7-1.6 1.6 0 .9.7 1.6 1.6 1.6z" class="Vector_132"/>
      <path fill="#231F20" d="M603.299 528.8c-.9 0-1.6.7-1.6 1.6 0 .9.7 1.6 1.6 1.6.9 0 1.6-.7 1.6-1.6 0-.9-.7-1.6-1.6-1.6z" class="Vector_133"/>
      <path fill="#231F20" d="M596.999 337.2c-.9 0-1.6.7-1.6 1.6 0 .9.7 1.6 1.6 1.6.9 0 1.6-.7 1.6-1.6 0-.9-.8-1.6-1.6-1.6z" class="Vector_134"/>
      <path fill="#231F20" d="M597.8 128.4c0-.9-.7-1.6-1.6-1.6-.9 0-1.6.7-1.6 1.6 0 .9.7 1.6 1.6 1.6.9 0 1.6-.7 1.6-1.6z" class="Vector_135"/>
      <path fill="#231F20" d="M589.999 521c-.9 0-1.6.7-1.6 1.6 0 .9.7 1.6 1.6 1.6.9 0 1.6-.7 1.6-1.6 0-.9-.7-1.6-1.6-1.6z" class="Vector_136"/>
      <path fill="#231F20" d="M589.6 146.1c.9 0 1.6-.7 1.6-1.6 0-.9-.7-1.6-1.6-1.6-.9 0-1.6.7-1.6 1.6 0 .9.7 1.6 1.6 1.6z" class="Vector_137"/>
      <path fill="#231F20" d="M591.099 512.7c0-.9-.7-1.6-1.6-1.6-.9 0-1.6.7-1.6 1.6 0 .9.7 1.6 1.6 1.6.9 0 1.6-.7 1.6-1.6z" class="Vector_138"/>
      <path fill="#231F20" d="M590.2 324.3c0-.9-.7-1.6-1.6-1.6-.9 0-1.6.7-1.6 1.6 0 .9.7 1.6 1.6 1.6.9 0 1.6-.7 1.6-1.6z" class="Vector_139"/>
      <path fill="#231F20" d="M583.9 528.8c-.9 0-1.6.7-1.6 1.6 0 .9.7 1.6 1.6 1.6.9 0 1.6-.7 1.6-1.6 0-.9-.7-1.6-1.6-1.6z" class="Vector_140"/>
      <path fill="#231F20" d="M583.5 340.4c0-.9-.7-1.6-1.6-1.6-.9 0-1.6.7-1.6 1.6 0 .9.7 1.6 1.6 1.6.9 0 1.6-.7 1.6-1.6z" class="Vector_141"/>
      <path fill="#231F20" d="M576.299 135.1c-.9 0-1.6.7-1.6 1.6 0 .9.7 1.6 1.6 1.6.9 0 1.6-.7 1.6-1.6 0-.9-.7-1.6-1.6-1.6z" class="Vector_142"/>
      <path fill="#231F20" d="M575.799 128.4c.9 0 1.6-.7 1.6-1.6 0-.9-.7-1.6-1.6-1.6-.9 0-1.6.7-1.6 1.6 0 .9.7 1.6 1.6 1.6z" class="Vector_143"/>
      <path fill="#231F20" d="M573.999 536.5c-.9 0-1.6.7-1.6 1.6 0 .6.3 1.1.8 1.4.2.2.5.2.8.2.3 0 .6-.1.8-.2.5-.3.8-.8.8-1.4 0-.9-.8-1.6-1.6-1.6z" class="Vector_144"/>
      <path fill="#231F20" d="M570.2 142.9c-.9 0-1.6.7-1.6 1.6 0 .9.7 1.6 1.6 1.6.9 0 1.6-.7 1.6-1.6 0-.9-.7-1.6-1.6-1.6z" class="Vector_145"/>
      <path fill="#231F20" d="M568.7 331c-.9 0-1.6.7-1.6 1.6 0 .9.7 1.6 1.6 1.6.9 0 1.6-.7 1.6-1.6 0-.9-.7-1.6-1.6-1.6z" class="Vector_146"/>
      <path fill="#231F20" d="M569.8 322.7c0-.9-.7-1.6-1.6-1.6-.9 0-1.6.7-1.6 1.6 0 .9.7 1.6 1.6 1.6.9 0 1.6-.7 1.6-1.6z" class="Vector_147"/>
      <path fill="#231F20" d="M562.1 527.9c-.9 0-1.6.7-1.6 1.6 0 .9.7 1.6 1.6 1.6.9 0 1.6-.7 1.6-1.6 0-.9-.7-1.6-1.6-1.6z" class="Vector_148"/>
      <path fill="#231F20" d="M561.899 152.2c0-.9-.7-1.6-1.6-1.6-.9 0-1.6.7-1.6 1.6 0 .9.7 1.6 1.6 1.6.9 0 1.6-.8 1.6-1.6z" class="Vector_149"/>
      <path fill="#231F20" d="M551.499 526c-.9 0-1.6.7-1.6 1.6 0 .9.7 1.6 1.6 1.6.9 0 1.6-.7 1.6-1.6 0-.9-.7-1.6-1.6-1.6z" class="Vector_150"/>
      <path fill="#231F20" d="M548.4 142c-.9 0-1.6.7-1.6 1.6 0 .9.7 1.6 1.6 1.6.9 0 1.6-.7 1.6-1.6 0-.9-.7-1.6-1.6-1.6z" class="Vector_151"/>
      <path fill="#231F20" d="M547.7 519.3c-.9 0-1.6.7-1.6 1.6 0 .9.7 1.6 1.6 1.6.9 0 1.6-.7 1.6-1.6 0-.9-.7-1.6-1.6-1.6z" class="Vector_152"/>
      <path fill="#231F20" d="M546.1 532.2c-.9 0-1.6.7-1.6 1.6 0 .9.7 1.6 1.6 1.6.9 0 1.6-.7 1.6-1.6 0-.9-.7-1.6-1.6-1.6z" class="Vector_153"/>
      <path fill="#231F20" d="M538.4 518.6c-.9 0-1.6.7-1.6 1.6 0 .9.7 1.6 1.6 1.6.9 0 1.6-.7 1.6-1.6 0-.9-.7-1.6-1.6-1.6z" class="Vector_154"/>
      <path fill="#231F20" d="M531.2 532.2c-.9 0-1.6.7-1.6 1.6 0 .9.7 1.6 1.6 1.6.9 0 1.6-.7 1.6-1.6 0-.9-.7-1.6-1.6-1.6z" class="Vector_155"/>
      <path fill="#231F20" d="M521.2 516.1c-.9 0-1.6.7-1.6 1.6 0 .9.7 1.6 1.6 1.6.9 0 1.6-.7 1.6-1.6 0-.9-.8-1.6-1.6-1.6z" class="Vector_156"/>
      <path fill="#231F20" d="M521.2 532.2c-.9 0-1.6.7-1.6 1.6 0 .9.7 1.6 1.6 1.6.9 0 1.6-.7 1.6-1.6 0-.9-.8-1.6-1.6-1.6z" class="Vector_157"/>
      <path fill="#231F20" d="M515.6 527.6c-.9 0-1.6.7-1.6 1.6 0 .9.7 1.6 1.6 1.6.9 0 1.6-.7 1.6-1.6 0-.9-.7-1.6-1.6-1.6z" class="Vector_158"/>
      <path fill="#231F20" d="M504.299 520.2c-.9 0-1.6.7-1.6 1.6 0 .9.7 1.6 1.6 1.6.9 0 1.6-.7 1.6-1.6 0-.9-.7-1.6-1.6-1.6z" class="Vector_159"/>
      <path fill="#231F20" d="M494.799 528.4c-.9 0-1.6.7-1.6 1.6 0 .9.7 1.6 1.6 1.6.9 0 1.6-.7 1.6-1.6 0-.9-.7-1.6-1.6-1.6z" class="Vector_160"/>
      <path fill="#231F20" d="M485.499 520.2c-.9 0-1.6.7-1.6 1.6 0 .9.7 1.6 1.6 1.6.9 0 1.6-.7 1.6-1.6 0-.9-.7-1.6-1.6-1.6z" class="Vector_161"/>
      <path fill="#231F20" d="M471.6 525.2c-.9 0-1.6.7-1.6 1.6 0 .9.7 1.6 1.6 1.6.9 0 1.6-.7 1.6-1.6 0-.9-.7-1.6-1.6-1.6z" class="Vector_162"/>
      <path fill="#231F20" d="M469.999 532.2c-.9 0-1.6.7-1.6 1.6 0 .9.7 1.6 1.6 1.6.9 0 1.6-.7 1.6-1.6 0-.9-.8-1.6-1.6-1.6z" class="Vector_163"/>
      <path fill="#231F20" d="M462.6 525.2c-.9 0-1.6.7-1.6 1.6 0 .9.7 1.6 1.6 1.6.9 0 1.6-.7 1.6-1.6 0-.9-.7-1.6-1.6-1.6z" class="Vector_164"/>
      <path fill="#231F20" d="M457.999 517.7c-.9 0-1.6.7-1.6 1.6 0 .9.7 1.6 1.6 1.6.9 0 1.6-.7 1.6-1.6 0-.9-.7-1.6-1.6-1.6z" class="Vector_165"/>
      <path fill="#231F20" d="M450.2 526c-.9 0-1.6.7-1.6 1.6 0 .9.7 1.6 1.6 1.6.9 0 1.6-.7 1.6-1.6 0-.9-.7-1.6-1.6-1.6z" class="Vector_166"/>
      <path fill="#231F20" d="M440.7 525.2c-.9 0-1.6.7-1.6 1.6 0 .9.7 1.6 1.6 1.6.9 0 1.6-.7 1.6-1.6 0-.9-.7-1.6-1.6-1.6z" class="Vector_167"/>
      <path fill="#231F20" d="M425.2 526c-.9 0-1.6.7-1.6 1.6 0 .9.7 1.6 1.6 1.6.9 0 1.6-.7 1.6-1.6 0-.9-.7-1.6-1.6-1.6z" class="Vector_168"/>
      <path fill="#231F20" d="M425.2 532.2c-.9 0-1.6.7-1.6 1.6 0 .9.7 1.6 1.6 1.6.9 0 1.6-.7 1.6-1.6 0-.9-.7-1.6-1.6-1.6z" class="Vector_169"/>
      <path fill="#231F20" d="M419.9 516.1c-.9 0-1.6.7-1.6 1.6 0 .9.7 1.6 1.6 1.6.9 0 1.6-.7 1.6-1.6 0-.9-.7-1.6-1.6-1.6z" class="Vector_170"/>
      <path fill="#231F20" d="M416.2 527.6c-.9 0-1.6.7-1.6 1.6 0 .9.7 1.6 1.6 1.6.9 0 1.6-.7 1.6-1.6 0-.9-.8-1.6-1.6-1.6z" class="Vector_171"/>
      <path fill="#231F20" d="M406.6 516.1c-.9 0-1.6.7-1.6 1.6 0 .9.7 1.6 1.6 1.6.9 0 1.6-.7 1.6-1.6 0-.9-.7-1.6-1.6-1.6z" class="Vector_172"/>
      <path fill="#231F20" d="M404.999 525.2c-.9 0-1.6.7-1.6 1.6 0 .9.7 1.6 1.6 1.6.9 0 1.6-.7 1.6-1.6 0-.9-.7-1.6-1.6-1.6z" class="Vector_173"/>
      <path fill="#231F20" d="M393.499 528.4c-.9 0-1.6.7-1.6 1.6 0 .9.7 1.6 1.6 1.6.9 0 1.6-.7 1.6-1.6 0-.9-.7-1.6-1.6-1.6z" class="Vector_174"/>
      <path fill="#231F20" d="M384.2 520.2c-.9 0-1.6.7-1.6 1.6 0 .9.7 1.6 1.6 1.6.9 0 1.6-.7 1.6-1.6 0-.9-.7-1.6-1.6-1.6z" class="Vector_175"/>
      <path fill="#231F20" d="M380.2 532.2c-.9 0-1.6.7-1.6 1.6 0 .9.7 1.6 1.6 1.6.9 0 1.6-.7 1.6-1.6 0-.9-.7-1.6-1.6-1.6z" class="Vector_176"/>
      <path fill="#231F20" d="M374.6 520.9c-.9 0-1.6.7-1.6 1.6 0 .9.7 1.6 1.6 1.6.9 0 1.6-.7 1.6-1.6 0-.9-.7-1.6-1.6-1.6z" class="Vector_177"/>
      <path fill="#231F20" d="M368.299 526.8c-.9 0-1.6.7-1.6 1.6 0 .9.7 1.6 1.6 1.6.9 0 1.6-.7 1.6-1.6 0-.9-.7-1.6-1.6-1.6z" class="Vector_178"/>
      <path fill="#231F20" d="M365.199 333.2c-.3.2-.6.3-.9.5v34.6h44.4v-44.4h-29.8c.1.3.1.6-.1.9-.1.2-.2.3-.4.4-.2.1-.4.3-.6.4h27.1l-18.8 18.9-19-18.9h6.5c.4-.3.9-.6 1.3-.9.4-.3.9-.6 1.3-.9h-12v7.3c.3-.2.6-.3.9-.5.2-.1.5-.2.7-.4.1 0 .1-.1.2-.1v-3.2l18.8 18.7-18.7 18.9v-31.8c-.3.2-.6.3-.9.5zm41.3 33.2l.4-.4v.4h-.4zm.5-40.5v39.2l-19.6-19.5 19.6-19.7zm-20.9 21l19.6 19.5h-39.1l19.5-19.5z" class="Vector_179"/>
      <path fill="#231F20" d="M364.3 279.8h44.4v-44.4h-44.4v44.4zm40.6-42.7L386.1 256l-19-18.9h37.8zm2.1 39.7l-19.6-19.5 19.6-19.8v39.3zm0 .8v.4h-.4l.4-.4zm-1.3.4h-39.1l19.5-19.5 19.6 19.5zm-20.8-20.8l-18.8 18.9v-37.6l18.8 18.7z" class="Vector_180"/>
      <path fill="#231F20" d="M408.7 161.7v-14.8h-44.4V191.3h44.4v-29.6zm-42.6 0V150.1l9.4 9.3 2.3 2.3 7.1 7.1-18.8 18.9v-26zm1.8-13h37l-10.7 10.7-2.3 2.3-5.8 5.9-5.9-5.9-2.3-2.3-10.3-10.3-.5-.5h.8v.1zm18.2 21.3l19.6 19.5h-39.1l19.5-19.5zm20.4 19.5l.4-.4v.4h-.4zm.5-27.8v26.6l-19.6-19.5 7-7.1 2.3-2.3 10.3-10.3V161.7z" class="Vector_181"/>
      <path fill="#231F20" d="M545.3 312.7v-237c0-8.4-6.8-15.2-15.2-15.2H364.2c-8.4 0-15.2 6.8-15.2 15.2v54.5c-.3-.2-.5-.3-.9-.3-.9 0-1.6.7-1.6 1.6 0 .9.7 1.6 1.6 1.6.3 0 .6-.1.9-.3v203.4c.4 0 .8-.1 1.2-.2.4-.1.8-.1 1.2-.2V75.7c0-7.1 5.8-12.9 12.9-12.9h165.8c7.1 0 12.9 5.8 12.9 12.9v339.7c0 7.1-5.8 12.9-12.9 12.9H364.2c-7.1 0-12.9-5.8-12.9-12.9v-77.1c-.4.1-.8.1-1.2.2-.4 0-.8.1-1.2.1v76.8c0 8.4 6.8 15.2 15.2 15.2H530c8.4 0 15.2-6.8 15.2-15.2V312.7h.1z" class="Vector_182"/>
      <path fill="#231F20" d="M341.499 120.8c-.9 0-1.6.7-1.6 1.6 0 .9.7 1.6 1.6 1.6.9 0 1.6-.7 1.6-1.6 0-.9-.7-1.6-1.6-1.6z" class="Vector_183"/>
      <path fill="#231F20" d="M338.1 136.2c-.9 0-1.6.7-1.6 1.6 0 .9.7 1.6 1.6 1.6.9 0 1.6-.7 1.6-1.6 0-.9-.7-1.6-1.6-1.6z" class="Vector_184"/>
      <path fill="#231F20" d="M329.299 120.8c-.9 0-1.6.7-1.6 1.6 0 .9.7 1.6 1.6 1.6.9 0 1.6-.7 1.6-1.6 0-.9-.7-1.6-1.6-1.6z" class="Vector_185"/>
      <path fill="#231F20" d="M323.1 131.3c.1-.2.1-.4.1-.6 0-.2 0-.4-.1-.6v1.2z" class="Vector_186"/>
      <path fill="#231F20" d="M294.699 121.7c0 .8.5 1.4 1.3 1.5v-3.1c-.7.2-1.3.8-1.3 1.6z" class="Vector_187"/>
      <path fill="#231F20" d="M276.499 128.3c-.9 0-1.6.7-1.6 1.6 0 .9.7 1.6 1.6 1.6.9 0 1.6-.7 1.6-1.6-.1-.9-.8-1.6-1.6-1.6z" class="Vector_188"/>
      <path fill="#231F20" d="M277.5 120c0-.9-.7-1.6-1.6-1.6-.9 0-1.6.7-1.6 1.6 0 .9.7 1.6 1.6 1.6.9.1 1.6-.7 1.6-1.6z" class="Vector_189"/>
      <path fill="#231F20" d="M270.4 136.2c-.9 0-1.6.7-1.6 1.6 0 .9.7 1.6 1.6 1.6.9 0 1.6-.7 1.6-1.6 0-.9-.8-1.6-1.6-1.6z" class="Vector_190"/>
      <path fill="#231F20" d="M260.4 143.8c-.9 0-1.6.7-1.6 1.6 0 .9.7 1.6 1.6 1.6.9 0 1.6-.7 1.6-1.6 0-.9-.7-1.6-1.6-1.6z" class="Vector_191"/>
      <path fill="#231F20" d="M248.499 135.2c-.9 0-1.6.7-1.6 1.6 0 .9.7 1.6 1.6 1.6.9 0 1.6-.7 1.6-1.6 0-.9-.7-1.6-1.6-1.6z" class="Vector_192"/>
      <path fill="#231F20" d="M171.9 127.6c-.9 0-1.6.7-1.6 1.6 0 .9.7 1.6 1.6 1.6.9 0 1.6-.7 1.6-1.6 0-.9-.7-1.6-1.6-1.6z" class="Vector_193"/>
      <path fill="#231F20" d="M106.299 123.4c-.9 0-1.6.7-1.6 1.6 0 .7.5 1.4 1.2 1.5.5-.5 1.1-1 1.8-1.4v-.9c-.3-.4-.8-.8-1.4-.8z" class="Vector_194"/>
      <path fill="#231F20" d="M101 136.6c0 .9.7 1.6 1.6 1.6.4 0 .8-.2 1.1-.5v-2.2c-.3-.3-.7-.5-1.1-.5-.9 0-1.6.7-1.6 1.6z" class="Vector_195"/>
      <path fill="#231F20" d="M93 123.4c-.9 0-1.6.7-1.6 1.6 0 .9.7 1.6 1.6 1.6.9 0 1.6-.7 1.6-1.6 0-.9-.7-1.6-1.6-1.6z" class="Vector_196"/>
      <path fill="#231F20" d="M91.4 132.6c-.9 0-1.6.7-1.6 1.6 0 .9.7 1.6 1.6 1.6.9 0 1.6-.7 1.6-1.6 0-.9-.7-1.6-1.6-1.6z" class="Vector_197"/>
      <path fill="#231F20" d="M79.9 135.8c-.9 0-1.6.7-1.6 1.6 0 .9.7 1.6 1.6 1.6.9 0 1.6-.7 1.6-1.6 0-.9-.7-1.6-1.6-1.6z" class="Vector_198"/>
      <path fill="#231F20" d="M70.6 127.6c-.9 0-1.6.7-1.6 1.6 0 .9.7 1.6 1.6 1.6.9 0 1.6-.7 1.6-1.6 0-.9-.7-1.6-1.6-1.6z" class="Vector_199"/>
      <path fill="#231F20" d="M66.7 139.6c-.9 0-1.6.7-1.6 1.6 0 .9.7 1.6 1.6 1.6.9 0 1.6-.7 1.6-1.6 0-.9-.8-1.6-1.6-1.6z" class="Vector_200"/>
      <path fill="#231F20" d="M61 128.2c-.9 0-1.6.7-1.6 1.6 0 .9.7 1.6 1.6 1.6.9 0 1.6-.7 1.6-1.6 0-.9-.7-1.6-1.6-1.6z" class="Vector_201"/>
      <path fill="#231F20" d="M54.7 134.2c-.9 0-1.6.7-1.6 1.6 0 .9.7 1.6 1.6 1.6.9 0 1.6-.7 1.6-1.6 0-.9-.7-1.6-1.6-1.6z" class="Vector_202"/>
    </g>
  </g>
</svg>
