<svg xmlns="http://www.w3.org/2000/svg" width="1152" height="700" fill="none" viewBox="0 0 1152 700">
  <g class="social">
    <path fill="#fff" d="M0 0h1152v700H0z"/>
    <path fill="#E1D5D5" d="M726.149 608.103h12.09l-1.511 11.711-9.823-.377-.756-11.334z" class="Vector 10.2"/>
    <path fill="#E1D5D5" d="M663.811 597.524l11.712.756-2.644 11.711-9.445-.755.377-11.712z" class="Vector 10.3"/>
    <g class="Group">
      <path fill="#246467" d="M669.629 619.814l-5.289-7.556h-2.645l1.511 2.267 4.156 5.289h2.267z" class="Vector 14"/>
      <path fill="#246467" d="M662.223 619.814l5.289-7.556h2.645l-1.511 2.267-4.156 5.289h-2.267z" class="Vector 14.1"/>
      <path fill="#3D3737" d="M658.9 620.192c1.209.907 33.499 6.549 49.115 9.068l-.756 1.889c-18.792-2.862-29.469-3.779-47.603-7.557l-.756-3.4z" class="Vector 13"/>
      <path fill="#246467" d="M697.058 623.592c1.564-.62 3.401-2.644 3.401-2.644l-22.669-17.757s-.945 5.531.756 8.312c3.928 6.422 13.751 13.978 18.512 12.089z" class="Vector 11"/>
    </g>
    <g class="Group_2">
      <path fill="#16494B" d="M735.116 632.74l-6.289-6.747-2.619.368 1.812 2.035 4.851 4.659 2.245-.315z" class="Vector 14_2"/>
      <path fill="#16494B" d="M727.816 633.958l4.187-8.218 2.619-.368-1.181 2.455-3.38 5.816-2.245.315z" class="Vector 14.1_2"/>
      <path fill="#3D3737" d="M724.51 634.418c1.323.73 34.084 1.823 49.898 2.144l-.485 1.976c-19.007-.218-29.708.36-48.192-.858l-1.221-3.262z" class="Vector 13_2"/>
      <path fill="#16494B" d="M764.397 632.058c1.666-.234 1.372-2.675 1.372-2.675l-24.919-14.429s.442 5.213 1.905 8.125c3.878 7.715 18.805 9.378 21.642 8.979z" class="Vector 11_2"/>
    </g>
    <g class="Group 5">
      <g class="Group 6.1">
        <path fill="#040404" d="M370.699 251.451l-25.115-22.674a1.097 1.097 0 00-1.475 1.624l24.972 22.831a1.204 1.204 0 101.618-1.781z" class="Vector 11_3"/>
        <path fill="#BE6565" fill-rule="evenodd" d="M454.612 192.578c-12.289 2.166-15.338-44.525-15.338-44.525 32.674-19.161 34.372-9.333 40.101 23.816l.444 2.565 8.464 17.328-17.887 5.796-3.081-9.716c-3.767 2.097-8.109 3.925-12.703 4.736zm-79.245 73.693l-12.846-5.667s-16.245-21.168-20.401-28.335c-6.44-11.105 27.957 20.768 27.957 20.768s-1.889-10.956 0-12.456c1.184-.94 7.179 13.967 7.179 13.967l5.667 6.056-2.267 7.934-5.289-2.267zm80.047 352.41l-2.267-23.424h13.978l-1.889 23.424h-9.822zm58.181-38.158l5.29 26.068h10.2l-1.889-26.068h-13.601z" class="Union" clip-rule="evenodd"/>
        <path fill="#FFF9F9" d="M370.03 245.032s-.756-2.645 0-3.022c.755-.378 1.889 2.644 1.889 2.644l-1.889.378z" class="Vector 12"/>
        <path fill="#E1D5D5" d="M466.37 608.102h-12.09l1.511 11.712 9.823-.377.756-11.335z" class="Vector 10"/>
        <path fill="#E1D5D5" d="M528.708 597.524l-11.712.755 2.644 11.712 9.445-.755-.377-11.712z" class="Vector 10.1"/>
        <path fill="#000" d="M423.322 147.295c7.421 7.198 26.434 1.186 29.447 0l8.603-3.44s4.242 21.838 6.131 21.838c1.889 0 2.359-15.896 6.045-5.289 3.686 10.606.589 23.243 7.352 19.24 4.115-.578 1.444-32.25-5.24-45.427-5.22-7.279-32.537-.769-35.431 3.072-1.819 2.414-19.607-1.06-21.214 1.074-1.608 2.133 4.307 8.932 4.307 8.932z" class="Vector 9"/>
        <path fill="#253981" d="M514.351 592.99l-38.914-108.052-7.178-20.401 34.38-74.05 27.958 202.503h-16.246z" class="Vector 3"/>
        <path fill="#22336F" d="M430.479 478.515l21.157-147.721 66.871-9.445 5.667 18.134c10.579 25.313-27.957 105.912-53.648 145.833v115.23h-20.024l-20.023-122.031z" class="Vector 2"/>
        <path fill="#60979A" fill-rule="evenodd" d="M446.305 265.335c1.474-12.53 5.178-39.565 10.62-49.016 4.565-7.929 10.862-17.997 16.752-23.693 5.675-7.118 13.097-6.612 17.747-.433 1.495 1.232 2.74 2.834 4.415 5.236 5.343 7.664 6.422 23.046 6.422 23.046l19.646 107.674c6.045 6.045-35.806 27.498-71.783 14.357l-3.274-51.028c-29.715-6.808-68.886-21.889-68.886-21.889l1.889-15.49 66.452 11.236zm9.357 347.999s-27.748 18.232-33.852 20.804c-1.631.687 0 4.533 0 4.533s47.108-.502 48.213-2.934c3.048-6.708 1.664-16.366.871-20.439-.191-.978-1.271-1.433-2.173-1.01-3.958 1.854-6.886 1.546-13.059-.954zm29.086 12.952c5.801-3.195 31.492-24.228 31.492-24.228 6.4 1.841 9.344 1.841 13.087-.417.853-.515 1.974-.175 2.266.778 1.215 3.967 3.601 13.428 1.271 20.418-.845 2.534-47.642 7.958-47.642 7.958s-2.025-3.655-.474-4.509z" class="Union_2" clip-rule="evenodd"/>
        <path fill="#fff" fill-opacity=".1" d="M458.058 267.322s3.023-40.519 10.579-64.604c7.556-24.085 27.202-17.757 27.202 5.289 0 0-6.018 80.543-19.646 85.762-17.757 6.8-98.229-24.18-98.229-24.18l1.889-15.49 78.205 13.223z" class="Vector 6.1"/>
        <g class="Group_3">
          <path fill="#32309B" d="M517.374 619.815l5.289-7.556h2.644l-1.511 2.266-4.156 5.29h-2.266z" class="Vector 14_3"/>
          <path fill="#32309B" d="M521.152 619.815l5.289-7.556h2.645l-1.512 2.266-4.156 5.29h-2.266z" class="Vector 14.1_3"/>
          <path fill="#32309B" d="M524.93 619.815l5.289-7.556h2.645l-1.512 2.266-4.155 5.29h-2.267z" class="Vector 14.2"/>
          <path fill="#3D3737" d="M533.619 620.192c-1.209.907-33.499 6.549-49.114 9.068l.755 1.889c18.792-2.861 29.469-3.778 47.604-7.556l.755-3.401z" class="Vector 13_3"/>
          <path fill="#32309B" d="M495.461 623.593l-3.4-2.645 22.668-17.757-.756 8.312-18.512 12.09z" class="Vector 11_4"/>
          <path stroke="#fff" stroke-width=".378" d="M495.083 618.681l3.778 2.267-.378-4.534 4.912 1.512-.378-4.534 4.156 1.511v-4.534l3.778 2.645" class="Vector 12_2"/>
        </g>
        <g class="Group_4">
          <path fill="#32309B" d="M455.285 630.715l6.05-6.962 2.63.277-1.74 2.096-4.686 4.826-2.254-.237z" class="Vector 14_4"/>
          <path fill="#32309B" d="M459.042 631.11l6.05-6.962 2.63.277-1.739 2.096-4.686 4.826-2.255-.237z" class="Vector 14.1_4"/>
          <path fill="#32309B" d="M462.8 631.505l6.05-6.962 2.63.277-1.74 2.096-4.686 4.826-2.254-.237z" class="Vector 14.2_2"/>
          <path fill="#3D3737" d="M470.904 633.038c-1.298.775-33.699 2.905-49.493 3.778l.378 1.889c19.646-.378 33.625.378 48.359-2.645l.756-3.022z" class="Vector 13_4"/>
          <path fill="#32309B" d="M433.097 632.182l-3.105-2.985 24.4-15.29-1.62 8.187-19.675 10.088z" class="Vector 11_5"/>
          <path stroke="#fff" stroke-width=".378" d="M433.235 627.258l3.52 2.65.099-4.549 4.726 2.017.098-4.549 3.975 1.938.474-4.509 3.481 3.025" class="Vector 12_3"/>
        </g>
        <g class="Group 5_2">
          <path fill="#fff" fill-opacity=".46" fill-rule="evenodd" d="M272.556 106a7.556 7.556 0 00-7.556 7.556v74.71a7.556 7.556 0 007.556 7.556h76.445a.571.571 0 00.039.047l8.279 9.704a2.267 2.267 0 003.474-.029l8-9.704.014-.018h26.913a7.556 7.556 0 007.557-7.556v-74.71A7.556 7.556 0 00395.72 106H272.556z" class="Union_3" clip-rule="evenodd"/>
          <rect width="124.676" height="50.626" x="273.312" y="118.845" fill="#fff" class="Rectangle 2" rx="3.778"/>
          <g class="Group 4">
            <g class="Group 2">
              <rect width="40.803" height="15.112" x="273.312" y="174.76" fill="#60BCFF" class="Rectangle 3" rx="7.556"/>
            </g>
            <rect width="6.8" height="6.8" x="277.09" y="179.294" fill="#fff" fill-opacity=".51" class="Rectangle 3_2" rx="3.4"/>
            <rect width="21.913" height="5.289" x="286.157" y="180.05" fill="#fff" fill-opacity=".51" class="Rectangle 3.1" rx="2.645"/>
          </g>
          <g class="Group 3">
            <rect width="107.297" height="5.289" x="280.868" y="128.668" fill="#000" fill-opacity=".06" class="Rectangle 3.2" rx="2.645"/>
            <rect width="93.125" height="5.289" x="280.868" y="138.491" fill="#000" fill-opacity=".06" class="Rectangle 3.3" rx="2.645"/>
            <rect width="74.905" height="5.289" x="280.868" y="148.314" fill="#000" fill-opacity=".06" class="Rectangle 3.4" rx="2.645"/>
          </g>
        </g>
      </g>
      <path fill="#040404" d="M821.82 251.451l25.115-22.674a1.098 1.098 0 011.475 1.623l-24.972 22.832a1.204 1.204 0 11-1.618-1.781z" class="Vector 11.1"/>
      <path fill="#FFB7B7" fill-rule="evenodd" d="M737.907 192.578c10.305 0 18.995-38.597 5.016-45.775-13.404-6.883-20.902-7.861-29.706 26.574l-8.981 18.385 17.887 5.796 2.769-8.732c3.816 2.146 8.261 3.752 13.015 3.752zm79.246 73.694s7.044-4.128 11.847-6.772c8.127-4.474 10.71-10.432 13.18-16.129.874-2.015 1.734-3.998 2.82-5.871 6.439-11.105-22.558 15.537-22.558 15.537s1.889-10.956 0-12.456c-1.184-.94-7.179 13.967-7.179 13.967l-5.667 6.057 2.267 7.933 5.29-2.266zm-80.048 352.409l2.267-23.424h-13.978l1.889 23.424h9.822zm-58.181-38.158l-5.29 26.068h-10.2l1.889-26.068h13.601z" class="Union_4" clip-rule="evenodd"/>
      <path fill="#FFF9F9" d="M822.489 245.032s.756-2.644 0-3.022c-.755-.378-1.889 2.644-1.889 2.644l1.889.378z" class="Vector 12.1"/>
      <path fill="#16494B" d="M678.168 592.99l38.914-108.052 7.178-20.401-34.38-74.05-27.958 202.503h16.246z" class="Vector 3.1"/>
      <path fill="#246467" d="M762.041 478.515l-21.157-147.721-66.872-9.445-5.667 18.134c-16.473 35.136 27.958 105.912 53.648 145.833v115.23h20.024l20.024-122.031z" class="Vector 2.1"/>
      <path fill="#FFBA33" fill-rule="evenodd" d="M746.215 265.335c-1.475-12.53-5.179-39.565-10.621-49.016-4.565-7.929-10.861-17.997-16.752-23.693-5.675-7.118-13.096-6.612-17.747-.433-1.494 1.232-2.74 2.834-4.415 5.236-5.343 7.664-6.422 23.046-6.422 23.046l-19.646 107.674c-6.045 6.045 35.806 27.498 71.783 14.357l3.274-51.028c29.715-6.808 68.887-21.889 68.887-21.889l-1.889-15.49-66.452 11.236zm-7.075 348.282s28.062 17.746 34.21 20.21c1.643.659.079 4.533.079 4.533s-47.109.32-48.257-2.092c-3.164-6.654-1.95-16.335-1.227-20.421.173-.981 1.245-1.455 2.155-1.048 3.99 1.785 6.911 1.426 13.04-1.182zm-31.369 12.669c-5.801-3.195-31.492-24.228-31.492-24.228-6.4 1.841-9.344 1.841-13.087-.417-.853-.515-1.974-.175-2.266.778-1.215 3.967-3.6 13.428-1.27 20.418.844 2.534 47.641 7.958 47.641 7.958s2.025-3.655.474-4.509z" class="Union_5" clip-rule="evenodd"/>
      <path fill="#fff" fill-opacity=".13" d="M734.461 267.322s-3.023-40.519-10.579-64.604c-7.556-24.085-27.202-17.757-27.202 5.289 0 0 6.018 80.543 19.646 85.762 17.757 6.8 98.23-24.18 98.23-24.18l-1.889-15.49-78.206 13.223z" class="Vector 6.2"/>
      <path fill="#100B31" d="M752.368 146.047s.338 1.664-2.267 3.401c-.549.366-1.085.66-1.609.892-6.489 2.882-11.049-3.689-16.147 1.374-3.909 3.882-1.889 14.137-1.889 19.646 0 18.513-8.854 10.629-11.335 16.246-3.431 7.768-13.373 6.188-20.401 10.956-4.423 3.001-1.889 25.313-1.889 25.313s-2.363 5.529-10.201 7.934c-9.282 2.848-26.924 12.596-25.313 3.022 1.022-6.07 9.139-15.039 9.823-21.157 1.049-9.377-11.712-5.676-11.712-15.112s14.376-9.102 18.135-17.757c2.351-5.413-.868-10.369 2.644-15.112 4.924-6.649 13.543-1.318 18.513-7.934 4.003-5.329.139-5.702 3.022-11.712 4.445-9.263 12.09 0 19.268-9.067 7.179-9.067 35.892-.378 31.358 9.067z" class="Vector 13.1"/>
      <g class="Group 2.1">
        <path stroke="#000" stroke-dasharray="3.78 3.78" stroke-linecap="round" stroke-opacity=".27" stroke-width=".756" d="M857.02 224.631l17.001-2.267" class="Vector 14_5"/>
        <path stroke="#000" stroke-dasharray="3.78 3.78" stroke-linecap="round" stroke-opacity=".27" stroke-width=".756" d="M874.777 222.364L888 220.097" class="Vector 14.1_5"/>
        <path stroke="#000" stroke-dasharray="3.78 3.78" stroke-linecap="round" stroke-opacity=".27" stroke-width=".756" d="M853.242 221.608l12.09-21.912" class="Vector 15"/>
        <path stroke="#000" stroke-dasharray="3.78 3.78" stroke-linecap="round" stroke-opacity=".27" stroke-width=".756" d="M856.264 221.986l10.579-8.312" class="Vector 16"/>
        <path stroke="#000" stroke-dasharray="3.78 3.78" stroke-linecap="round" stroke-opacity=".27" stroke-width=".756" d="M868.732 212.163l10.201-8.689" class="Vector 17"/>
        <path stroke="#000" stroke-dasharray="3.78 3.78" stroke-linecap="round" stroke-opacity=".27" stroke-width=".756" d="M867.221 218.857l11.434-6.987" class="Vector 17.1"/>
        <path stroke="#000" stroke-dasharray="3.78 3.78" stroke-linecap="round" stroke-opacity=".27" stroke-width=".756" d="M880.066 211.3l5.667-3.293" class="Vector 17.2"/>
      </g>
      <g class="Group 4.1">
        <path fill="#fff" fill-rule="evenodd" d="M799.985 155.115a6.058 6.058 0 00-6.058 6.058v23.397a6.058 6.058 0 006.058 6.058h21.775l3.85 5.434a1.817 1.817 0 003.025-.09l3.333-5.344h20.128a6.057 6.057 0 006.057-6.058v-23.397a6.057 6.057 0 00-6.057-6.058h-52.111z" class="Union_6" clip-rule="evenodd"/>
        <g class="Group 3_2">
          <circle cx="822.158" cy="171.256" r="4.807" fill="#FF6745" class="Ellipse"/>
          <circle cx="829.923" cy="171.256" r="4.807" fill="#FF6745" class="Ellipse_2"/>
          <path fill="#FF6745" d="M826.225 180.5l6.841-5.547-7.026-2.218-6.841 2.218 7.026 5.547z" class="Vector 14_6"/>
        </g>
      </g>
    </g>
  </g>
</svg>
