<svg xmlns="http://www.w3.org/2000/svg" width="1155" height="700" fill="none" viewBox="0 0 1155 700">
  <g clip-path="url(#clip0)">
    <path fill="#fff" d="M0 0h1155v700H0z"/>
    <g class="Group 8">
      <g class="Group 6">
        <path fill="#F1F6FA" stroke="#BFD7E8" stroke-width="3.572" d="M453.773 458.588l-81.563 63.703 123.536 53.581 76.8-72.93-118.773-44.354z" class="Vector"/>
        <path stroke="#000" stroke-dasharray="3.57 3.57" stroke-opacity=".15" stroke-width=".595" d="M453.179 477.342l-32.447 29.469-2.679 6.549 51.498 19.647 22.624-19.647h6.251l-16.968 19.647 10.717 6.549 33.042-36.317-72.038-25.897z" class="Vector 4"/>
        <path stroke="#000" stroke-opacity=".13" stroke-width=".595" d="M464.788 490.737l-8.037 8.335 15.479 5.953 8.335-8.632-15.777-5.656z" class="Vector 2"/>
        <path fill="#FB5B8C" d="M523.133 497.583l-6.252 5.954 8.931 3.87 6.251-6.251-8.93-3.573z" class="Vector 5"/>
        <path stroke="#000" stroke-opacity=".13" stroke-width=".595" d="M456.751 505.621l-9.823 8.93 22.325 9.228 11.014-11.014-23.516-7.144z" class="Vector 3"/>
        <path fill="#5B6CFB" d="M441.867 481.509l-6.251 5.954 8.93 3.869 6.251-6.251-8.93-3.572z" class="Vector 5.1"/>
      </g>
      <g class="Group 4">
        <path fill="#F2F2F2" d="M271.153 389.1c-1.628-28.748 10.17-44.75 15.933-48.479 0 0 6.97 2.507 9.154 3.051 3.315.826 1.701 2.123 3.814 4.808 4.667 5.93 0 19.324 0 19.324l-9.238 18.306c-8.223 20.28-19.376 8.075-19.663 2.99z" class="Vector 7"/>
        <path fill="#EFF4FE" d="M385.401 200.947c-12.135 17.968-57.972 104.417-57.972 104.417 40.14 23.053 75.94 17.741 88.822 12.204l16.612-30.927c18.054 23.816 40.329 49.174 54.92 64.829l13.9-14.917-49.703-83.737 19.015-25.426 79.845 77.974 15.595-14.578s-56.615-67.125-83.059-100.009c-10.105-12.568-45.089-13.223-45.089-13.223-20.002-3.729-40.752 5.425-52.886 23.393z" class="Vector_2"/>
        <g class="Vector 7_2">
          <path fill="#000" fill-opacity=".04" d="M471.172 226.373l-22.375 19.662 3.729 6.781 18.646-26.443zM416.929 317.568l15.934-31.19-5.085-6.441c-11.188 13.448-32.885 40.411-30.173 40.682 2.713.271 14.013-1.921 19.324-3.051z"/>
        </g>
        <path fill="#145A8D" d="M463.035 421.307c33.359-7.051-15.029-73.227-45.089-104.756-30.647 12.747-72.888-2.147-90.178-11.187-28.206 39.326 21.358 78.324 49.835 100.009l-37.97-28.138-43.054-33.562c-5.153 2.44-15.595 20.34-5.424 33.562 0 0 23.822 20.648 39.664 31.528 16.838 11.565 43.733 24.749 43.733 24.749 53.7 19.798 51.305-16.16 43.394-36.614 0 0 10.849 12.259 21.358 18.985 8.476 5.424 23.731 5.424 23.731 5.424z" class="Vector 2_2"/>
        <path fill="#000" fill-opacity=".1" d="M418.964 397.915l-23.392-46.445s13.309 14.854 16.951 18.985c22.714 25.765 30.511 47.123 30.511 47.123-5.424-1.356-18.307-13.674-24.07-19.663z" class="Vector 11"/>
        <path fill="#FA2D6B" fill-rule="evenodd" d="M460.62 183.08l1.282-7.592c6.94 1.069 15.39.601 14.355-14.545h2.818c-1.163-4.255-1.815-9.384-2.431-14.228-.876-6.893-1.679-13.208-3.777-15.606-4.747-5.424-42.716-14.916-30.173 35.258l-2.912 11.95c1.469 5.199 8.633 11.001 20.838 4.763zm99.374 136.861c-2.119 2.913-5.425-18.307-5.425-18.307l7.459-7.797c11.865 7.797 20.341 26.104 20.341 28.477 0 1.898-14.013-5.763-19.663-9.831-1.06 1.456-1.208 2.592-1.356 3.729-.149 1.136-.297 2.273-1.356 3.729zm-44.751 29.495c2.962-.998-3.944-4.078-10.366-6.94v-.001c-2.304-1.027-4.545-2.026-6.246-2.891l-8.137 8.475c1.357 5.764 12.205 22.375 19.325 25.088 7.119 2.712-2.712-23.731-2.712-23.731.526 0 1.18.085 1.917.182 1.795.236 4.084.537 6.219-.182z" class="Union" clip-rule="evenodd"/>
        <path fill="#071750" d="M474.015 132.177c-.271 4.34-13.465 9.552-20.472 13.394l1.696 9.831c-.566.113-2.306-.068-4.747-1.695s-4.068 3.846-1.695 7.459c-.678 3.051-3.865 7.371-5.763 6.557-1.899-.813-5.085-11.631-5.085-20.68 0-27.799 32.196-27.369 36.066-14.866z" class="Vector 6"/>
        <path fill="#000" fill-opacity=".07" d="M436.254 238.239c-2.647-3.309 0-10.849 0-10.849l62.718 103.061s-5.696 2.388-7.12 0c-22.036-36.953-42.038-75.262-55.598-92.212z" class="Vector 8"/>
        <path fill="#C4C4C4" fill-opacity=".29" d="M403.369 233.492c-1.898 3.255 5.312 16.951 9.154 23.392l9.492 14.578 6.441 8.475v-2.034l-15.933-29.494-9.154-14.917z" class="Vector 9"/>
        <path fill="#000" fill-opacity=".06" d="M510.159 257.902c-16.815-15.046-45.767-37.292-45.767-37.292l86.788 84.415 2.712-3.39s-25.355-27.289-43.733-43.733z" class="Vector 10"/>
        <path fill="#000" fill-opacity=".09" d="M409.81 319.263c1.356 0 6.215-2.034 8.475-3.051 34.241 37.97 56.277 72.21 56.277 92.212-14.066-32.206-66.447-89.161-64.752-89.161z" class="Vector 12"/>
        <path fill="#000" fill-opacity=".09" d="M352.516 384.354c-8.408-10.035-21.697-50.513-11.527-73.227l-12.883-5.425c-23.595 29.02 6.442 64.526 24.41 78.652z" class="Vector 13"/>
        <path fill="#000" fill-opacity=".13" d="M355.568 393.508c7.453 3.906 21.358 11.526 21.358 11.526l-71.871-54.581v4.068s27.401 26.874 50.513 38.987z" class="Vector 14"/>
      </g>
      <g class="Group 7">
        <g class="Group 5">
          <path fill="#FA2D6B" d="M526.406 408.314v-26.977l18.352-14.682 27.712 8.809v27.345l-15.232 16.15-30.832-10.645z" class="Vector_3"/>
          <path fill="#fff" fill-opacity=".22" d="M526.406 408.498v-27.161l30.832 9.359v28.263l-30.832-10.461z" class="Vector 3_2"/>
          <path fill="#ED0606" fill-opacity=".65" d="M557.237 391.063v27.162l15.233-15.416v-27.162l-15.233 15.416z" class="Vector 2_3"/>
        </g>
        <g class="Group 5.2">
          <path fill="#FA2D6B" d="M601.198 389.988V363.01l18.352-14.682 27.712 8.809v27.345l-15.232 16.15-30.832-10.644z" class="Vector_4"/>
          <path fill="#fff" fill-opacity=".22" d="M601.199 390.171V363.01l30.832 9.359v28.263l-30.832-10.461z" class="Vector 3_3"/>
          <path fill="#FC175B" d="M632.03 372.736v27.162l15.233-15.416V357.32l-15.233 15.416z" class="Vector 2_4"/>
        </g>
        <g class="Group 5.3">
          <path fill="#2D42FA" d="M536.312 442.491v-26.978l18.352-14.682 27.712 8.809v27.345l-15.233 16.15-30.831-10.644z" class="Vector_5"/>
          <path fill="#fff" fill-opacity=".22" d="M536.311 442.674v-27.161l30.832 9.36v28.262l-30.832-10.461z" class="Vector 3_4"/>
          <path fill="#000" fill-opacity=".28" d="M567.143 425.24v27.161l15.232-15.416v-27.161l-15.232 15.416z" class="Vector 2_5"/>
        </g>
        <g class="Group 5.1">
          <path fill="#F6A732" d="M542.256 383.626v-17.405l11.841-9.472 17.878 5.683v17.642l-9.827 10.419-19.892-6.867z" class="Vector_6"/>
          <path fill="#fff" fill-opacity=".22" d="M542.256 383.744v-17.523l19.892 6.038v18.234l-19.892-6.749z" class="Vector 3_5"/>
          <path fill="#FDEB4C" fill-opacity=".06" d="M562.147 372.496v17.523l9.827-9.945V362.55l-9.827 9.946z" class="Vector 2_6"/>
        </g>
        <g class="Group 5.4">
          <path fill="#FDAD35" d="M602.189 362.822v-17.405l11.84-9.472 17.879 5.684v17.641l-9.828 10.42-19.891-6.868z" class="Vector_7"/>
          <path fill="#fff" fill-opacity=".22" d="M602.188 362.941v-17.524l19.892 6.039v18.234l-19.892-6.749z" class="Vector 3_6"/>
          <path fill="#FAE73C" fill-opacity=".12" d="M622.079 351.693v17.523l9.827-9.945v-17.524l-9.827 9.946z" class="Vector 2_7"/>
        </g>
      </g>
      <g class="Group 3">
        <path fill="#FA2D6B" fill-rule="evenodd" d="M653.67 264.132c-4.663 9.923-2.649 53.758 15.509 38.576l.052.043c2.29 1.891 6.208 5.127 7.39 19.604l6.847-3.274 8.335-5.061-8.335-15.479c19.051-24.112-5.388-56.735-29.798-34.409zM594.166 466.43l14.288-19.944 4.465-7.144 14.289 13.991-7.145 9.228-25.302 19.646s-3.386 1.169-11.312.596c-11.11-.804-22.653-6.95-19.646-14.587 1.654-4.2 11.877-2.782 11.877-2.782l7.769.996s4.435 0 1.787-5.06c-3.21-6.132 8.93 5.06 8.93 5.06zm242.391 48.003l17.704 5.364c7.368 1.299 12.262 10.877 15.941 18.078 2.279 4.46 4.092 8.007 5.738 8.113 3.815.244 1.663-13.935-.238-26.467-.78-5.144-1.519-10.01-1.785-13.487-.391-5.11-6.131-4.332-11.805-3.563-2.866.388-5.716.774-7.851.398-6.361-1.122-11.239-4.526-11.239-4.526-3.121 3.984-8.783 12.78-6.465 16.09zm-18.182 37.129l18.366 2.209c7.482 0 13.965 8.583 18.839 15.035 3.018 3.996 5.42 7.175 7.059 6.993 3.799-.422-.782-14.012-4.83-26.024-1.662-4.929-3.234-9.593-4.1-12.971-1.467-5.722-6.862-3.797-12.207-1.89-2.655.947-5.297 1.89-7.44 1.89-6.459 0-12.115-2.209-12.115-2.209-2.381 4.465-6.429 14.11-3.572 16.967z" class="Union_2" clip-rule="evenodd"/>
        <path fill="#0A27C0" fill-rule="evenodd" d="M739.228 489.094c-5.07 2.508-10.56 5.018-16.497 7.523l102.996 36.019c-.452 1.121-.957 2.258-1.48 3.437-2.348 5.292-5.069 11.424-5.069 20.675l-5.555-.815c-59.38-8.698-165.218-24.202-162.334-52.469 0-12.503 25.838-44.414 58.94-63.703l74.121-36.316c11.34 11.99 20.998 35.864-9.152 62.55l38.622 19.608 33.34 12.503-7.74 21.135-100.192-30.147z" class="Union_3" clip-rule="evenodd"/>
        <path fill="#fff" fill-opacity=".1" d="M722.731 496.617c89.6-37.805 77.197-76.701 61.619-93.172l-74.121 36.316c-33.102 19.289-58.94 51.2-58.94 63.703-2.977 31.851 109.842 44.75 167.889 53.284 0-11.312 4.068-17.96 6.549-24.112l-102.996-36.019z" class="Vector 2.1"/>
        <path fill="#000" fill-opacity=".15" d="M816.499 551.39v4.762l-.276-.037c-11.803-1.595-77.352-10.451-105.994-19.014l19.349 2.977c18.456 4.167 62.413 8.831 86.921 11.312z" class="Vector 6_2"/>
        <path fill="#000" fill-opacity=".29" d="M706.359 503.762l16.968-6.847 102.401 35.721s-3.812 1.675-5.656 1.191c-23.814-6.251-113.713-30.065-113.713-30.065z" class="Vector 4_2"/>
        <path fill="#E8F4F4" d="M625.093 416.84c-10.418 15.479-27.088 28.279-27.088 28.279 0 7.144 9.823 18.456 19.944 26.493 10.121 8.038 15.436-13.67 24.41-22.623 6.173-6.158 10.554-8.509 13.693-16.67 5.953-15.479 13.395-49.712 13.395-49.712s25.983 11.897 33.935 26.791c5.434 10.178 6.251 28.875 6.251 28.875 6.192 11.669 17.266 6.251 44.354-5.954 46.735-6.846 39.889-25.005 30.958-32.447-8.93-7.441-30.958-47.33-30.958-47.33s-23.219-43.997-35.126-46.14c-11.907-2.143-45.643 14.586-61.023 23.219-13.336 8.097-22.326 71.74-32.745 87.219z" class="Vector_8"/>
        <path fill="#000" fill-opacity=".03" d="M709.634 437.677c1.786-35.423-26.196-47.33-39.889-55.367 19.349-8.038 49.415 16.669 55.963 61.916-13.395 2.382-14.884-3.969-16.074-6.549z" class="Vector 6_3"/>
        <path fill="#071750" d="M649.802 264.132c-12.384-5.001-4.465-14.586 0-18.456 6.549-6.549 8.93 5.477 20.837 0 14.883-6.846 16.967 8.335 20.837 15.182 3.87 6.846 3.274 5.358 13.098 10.716 9.823 5.359 13.097 8.931 13.395 15.479.298 6.549 0 9.824 9.823 14.289 9.824 4.465 5.359 11.907 8.633 18.456 3.274 6.549 12.205 5.953 10.716 13.693-1.488 7.74-8.632 9.228-10.716 18.754-2.084 9.525-17.498 1.833-23.814 0-18.456-5.359-7.442-18.754-15.777-20.838-8.335-2.084-11.221-3.045-16.967-7.442-9.104-6.967-13.179-16.182-14.884-25.302-.684-3.657-1.488-8.633 0-11.61 2.278-4.557-3.275-10.121-3.275-10.121-7.144-2.977.477-7.799-11.906-12.8z" class="Vector 2_8"/>
        <path fill="#000" fill-opacity=".24" d="M842.695 500.189l-76.503-27.088 8.93-7.144 39.293 19.944 31.554 11.907-3.274 2.381z" class="Vector 3_7"/>
        <path stroke="#fff" stroke-opacity=".12" stroke-width=".595" d="M771.848 450.478c-1.786 4.167-6.847 4.762-11.014 4.762v8.038l5.358 2.679 3.87-4.465 1.786-11.014z" class="Vector 4_3"/>
        <path fill="#000" fill-opacity=".13" d="M710.229 439.761c-47.33 30.065-60.13 57.749-58.94 66.679 0 0 7.804-20.539 23.517-36.911 11.867-12.366 37.805-27.089 37.805-27.089l-2.382-2.679z" class="Vector 5_2"/>
        <path fill="#000" fill-opacity=".03" d="M749.225 343.612l.233.653c2.852 7.213 23.098 41.224 34.892 55.608 4.763 3.572 6.549 8.037 6.549 11.311 0 0-5.233-3.431-8.037-6.251-3.888-3.91-8.037-11.609-8.037-11.609l-19.647-33.042-5.72-16.017a8.851 8.851 0 01-.233-.653z" class="Vector 7_3"/>
        <path fill="#000" fill-opacity=".02" d="M633.428 415.649c-5.674 9.597-22.028 18.159-22.028 18.159s10.702-11.463 15.48-20.54c5.953-11.312 10.418-31.554 10.418-31.554s2.75 22.74-3.87 33.935z" class="Vector 8_2"/>
        <path stroke="#fff" stroke-opacity=".08" stroke-width=".595" d="M720.946 445.119s-78.245 57.857-54.177 69.061c17.266 8.037 152.41 36.019 152.41 36.019" class="Vector 9_2"/>
        <g class="Group 2">
          <path fill="#4945EF" d="M862.639 575.799c-4.286.476-13.783-22.028-25.897-22.028 0 0 2.232-5.835 1.488-9.526-.658-3.265-4.168-7.442-4.168-7.442 6.46 0 17.451-8.563 19.647 0 2.977 11.61 14.289 38.401 8.93 38.996z" class="Vector 2.3"/>
          <g class="Group">
            <g class="Ellipse">
              <circle cx="845.673" cy="538.292" r=".893" fill="#FABDB9" class="Ellipse_2"/>
            </g>
            <g class="Ellipse_3">
              <circle cx="850.074" cy="542.098" r=".532" fill="#FABDB9" class="Ellipse_4"/>
            </g>
            <g class="Ellipse_5">
              <circle cx="853.051" cy="546.861" r=".532" fill="#FABDB9" class="Ellipse_6"/>
            </g>
            <g class="Ellipse_7">
              <circle cx="856.028" cy="551.623" r=".532" fill="#FABDB9" class="Ellipse_8"/>
            </g>
            <g class="Ellipse_9">
              <circle cx="855.433" cy="556.982" r=".532" fill="#FABDB9" class="Ellipse_10"/>
            </g>
            <g class="Ellipse_11">
              <circle cx="854.837" cy="562.34" r=".532" fill="#FABDB9" class="Ellipse_12"/>
            </g>
            <g class="Ellipse_13">
              <circle cx="860.195" cy="562.935" r=".532" fill="#FABDB9" class="Ellipse_14"/>
            </g>
            <g class="Ellipse_15">
              <circle cx="858.409" cy="568.293" r=".532" fill="#FABDB9" class="Ellipse_16"/>
            </g>
            <g class="Ellipse_17">
              <circle cx="848.884" cy="552.219" r=".532" fill="#FABDB9" class="Ellipse_18"/>
            </g>
            <g class="Ellipse_19">
              <circle cx="840.549" cy="541.502" r=".532" fill="#FABDB9" class="Ellipse_20"/>
            </g>
            <g class="Ellipse_21">
              <circle cx="839.358" cy="548.647" r=".532" fill="#FABDB9" class="Ellipse_22"/>
            </g>
            <g class="Ellipse_23">
              <circle cx="844.716" cy="545.67" r=".532" fill="#FABDB9" class="Ellipse_24"/>
            </g>
          </g>
        </g>
        <g class="Group 2.1">
          <path fill="#4945EF" d="M876.169 546.213c-4.304-.275-9.748-24.086-21.679-26.19 0 0 3.308-6.371 2.781-10.629-.336-2.712-2.473-6.546-2.473-6.546 6.361 1.121 18.673-5.403 19.348 3.412.916 11.949 7.404 40.297 2.023 39.953z" class="Vector 2.3_2"/>
          <g class="Group_2">
            <g class="Ellipse_25">
              <circle cx="865.679" cy="505.911" r=".532" fill="#FABDB9" class="Ellipse_26" transform="rotate(10 865.679 505.911)"/>
            </g>
            <g class="Ellipse_27">
              <circle cx="869.647" cy="510.842" r=".532" fill="#FABDB9" class="Ellipse_28" transform="rotate(10 869.647 510.842)"/>
            </g>
            <g class="Ellipse_29">
              <circle cx="871.75" cy="516.049" r=".532" fill="#FABDB9" class="Ellipse_30" transform="rotate(10 871.75 516.049)"/>
            </g>
            <g class="Ellipse_31">
              <circle cx="873.855" cy="521.257" r=".532" fill="#FABDB9" class="Ellipse_32" transform="rotate(10 873.855 521.257)"/>
            </g>
            <g class="Ellipse_33">
              <circle cx="872.339" cy="526.43" r=".532" fill="#FABDB9" class="Ellipse_34" transform="rotate(10 872.339 526.43)"/>
            </g>
            <g class="Ellipse_35">
              <circle cx="870.822" cy="531.603" r=".532" fill="#FABDB9" class="Ellipse_36" transform="rotate(10 870.822 531.603)"/>
            </g>
            <g class="Ellipse_37">
              <circle cx="875.995" cy="533.12" r=".532" fill="#FABDB9" class="Ellipse_38" transform="rotate(10 875.995 533.12)"/>
            </g>
            <g class="Ellipse_39">
              <circle cx="873.306" cy="538.087" r=".532" fill="#FABDB9" class="Ellipse_40" transform="rotate(10 873.306 538.087)"/>
            </g>
            <g class="Ellipse_41">
              <circle cx="866.716" cy="520.602" r=".532" fill="#FABDB9" class="Ellipse_42" transform="rotate(10 866.716 520.602)"/>
            </g>
            <g class="Ellipse_43">
              <circle cx="860.368" cy="508.602" r=".532" fill="#FABDB9" class="Ellipse_44" transform="rotate(10 860.368 508.602)"/>
            </g>
            <g class="Ellipse_45">
              <circle cx="857.956" cy="515.431" r=".532" fill="#FABDB9" class="Ellipse_46" transform="rotate(10 857.956 515.431)"/>
            </g>
            <g class="Ellipse_47">
              <circle cx="863.749" cy="513.429" r=".532" fill="#FABDB9" class="Ellipse_48" transform="rotate(10 863.749 513.429)"/>
            </g>
          </g>
        </g>
      </g>
    </g>
  </g>
  <defs>
    <clipPath id="clip0" class="clip0">
      <path fill="#fff" d="M0 0h1155v700H0z"/>
    </clipPath>
  </defs>
</svg>
