<svg xmlns="http://www.w3.org/2000/svg" width="1155" height="700" fill="none" viewBox="0 0 1155 700">
  <g class="stocks">
    <path fill="#fff" d="M0 0h1155v700H0z"/>
    <g class="Group 9">
      <rect width="583.962" height="366.556" x="289.312" y="211.208" fill="#F4F4F4" class="Rectangle" rx="8.848"/>
      <g class="Group 10">
        <path stroke="#000" stroke-opacity=".08" stroke-width="1.264" d="M341.135 235.225v300.829" class="Vector"/>
        <path stroke="#000" stroke-opacity=".08" stroke-width="1.264" d="M395.345 235.225v300.828" class="Vector_2"/>
        <path stroke="#000" stroke-opacity=".08" stroke-width="1.264" d="M449.556 235.225v300.828" class="Vector_3"/>
        <path stroke="#000" stroke-opacity=".08" stroke-width="1.264" d="M503.768 235.225v300.828" class="Vector_4"/>
        <path stroke="#000" stroke-opacity=".08" stroke-width="1.264" d="M557.978 235.225v300.828" class="Vector_5"/>
        <path stroke="#000" stroke-opacity=".08" stroke-width="1.264" d="M612.189 235.225v300.828" class="Vector_6"/>
        <path stroke="#000" stroke-opacity=".08" stroke-width="1.264" d="M666.4 235.225v300.828" class="Vector_7"/>
        <path stroke="#000" stroke-opacity=".08" stroke-width="1.264" d="M720.612 235.225v300.828" class="Vector_8"/>
        <path stroke="#000" stroke-opacity=".08" stroke-width="1.264" d="M774.822 235.225v300.828" class="Vector_9"/>
        <path stroke="#000" stroke-opacity=".08" stroke-width="1.264" d="M829.033 235.225v300.828" class="Vector_10"/>
      </g>
      <g class="Group">
        <path fill="#18357E" fill-opacity=".09" stroke="#18357E" stroke-width="2.528" d="M384.052 484.713l-47.196 49.418c-.768.804-.198 2.137.914 2.137h489.999c.698 0 1.264-.566 1.264-1.264V424.726a1.264 1.264 0 00-2.001-1.027l-46.74 33.543a1.265 1.265 0 01-1.87-.467l-26.949-54.46a1.264 1.264 0 00-1.765-.534l-54.971 31.736a1.265 1.265 0 01-1.55-.226l-29.819-31.507a1.267 1.267 0 00-1.478-.265l-40.931 20.186a1.265 1.265 0 01-1.692-.572l-35.616-71.79c-.511-1.03-2.02-.898-2.345.204l-39.173 132.849a1.264 1.264 0 01-1.865.726l-40.615-24.481a1.265 1.265 0 00-1.581.225l-55.591 60.176a1.265 1.265 0 01-1.602.213l-55.24-34.739a1.265 1.265 0 00-1.587.197z" class="Vector_11"/>
        <path fill="#7795FF" fill-opacity=".19" stroke="#18357E" stroke-width="2.528" d="M485.078 500.679l-31.148-41.332a1.264 1.264 0 00-1.957-.075l-37.97 43.071a1.265 1.265 0 01-.452.327l-73.05 31.171c-1.265.54-.879 2.427.497 2.427h486.771c.699 0 1.264-.566 1.264-1.264V424.726a1.263 1.263 0 00-2-1.027l-46.741 33.543a1.264 1.264 0 01-1.87-.467l-26.949-54.46a1.264 1.264 0 00-1.765-.534l-55.835 32.235-31.347 23.836c-.22.167-.488.258-.765.258h-40.19c-.299 0-.589-.106-.817-.299l-40.856-34.588a1.264 1.264 0 00-1.9.314l-35.062 58.324c-.53.881-1.834.794-2.243-.149l-24.482-56.5c-.457-1.053-1.968-1.002-2.351.081l-26.581 75.047a1.264 1.264 0 01-2.201.339z" class="Vector_12"/>
      </g>
    </g>
    <g class="Group 10_2">
      <path fill="#2D48D3" d="M818.921 462.742c0-11.867 9.621-21.488 21.488-21.488h32.864v136.511h-54.352V462.742z" class="Rectangle_2"/>
      <path fill="#2D48D3" d="M711.483 399.542c0-11.867 9.62-21.487 21.487-21.487h32.864v199.709h-54.351V399.542z" class="Rectangle_3"/>
      <path fill="#2D48D3" d="M604.044 336.343c0-11.867 9.62-21.488 21.487-21.488h32.864v262.91h-54.351V336.343z" class="Rectangle_4"/>
      <path fill="#2D48D3" d="M496.604 273.144c0-11.867 9.621-21.488 21.488-21.488h32.864v326.109h-54.352V273.144z" class="Rectangle_5"/>
    </g>
    <g class="Group 11">
      <circle cx="482" cy="147" r="14.546" fill="#fff" stroke="#1E2884" stroke-width=".909" class="Ellipse"/>
      <path fill="#1E2884" d="M483.022 149.918c0-.468-.115-.836-.347-1.103-.231-.266-.637-.518-1.218-.756a24.778 24.778 0 01-1.61-.72 5.596 5.596 0 01-1.272-.845 3.32 3.32 0 01-.819-1.112c-.189-.421-.284-.931-.284-1.53 0-1.002.338-1.827 1.014-2.473.676-.652 1.577-1.032 2.704-1.139v-1.876h1.414v1.912c1.086.16 1.936.608 2.553 1.343.623.73.934 1.658.934 2.784h-3.006c0-.616-.119-1.091-.356-1.423-.237-.332-.575-.498-1.014-.498-.392 0-.697.125-.916.374-.214.243-.321.581-.321 1.014 0 .438.125.788.374 1.049.249.255.649.501 1.201.739.551.231 1.07.474 1.556.729.493.249.917.534 1.272.854.356.32.635.694.837 1.121.201.427.302.94.302 1.539 0 1.014-.323 1.841-.97 2.481-.64.641-1.515 1.014-2.624 1.121v1.788h-1.414v-1.797c-1.293-.136-2.286-.578-2.98-1.325-.688-.753-1.032-1.744-1.032-2.971h2.998c0 .676.148 1.192.445 1.548.302.35.729.524 1.281.524.403 0 .72-.118.951-.355.232-.243.347-.576.347-.997z" class="$"/>
    </g>
    <path stroke="#000" stroke-width="3.792" d="M224 578h697.72" class="Vector 13.1"/>
    <g class="Group 6.7">
      <g class="Group 3">
        <path fill="#253093" d="M304.375 532.944V441s18.389 56.89 25.285 87.921c2.693 12.118-8.046 31.606-8.046 31.606s-17.239-14.823-17.239-27.583z" class="Vector 2"/>
        <path fill="#000" fill-opacity=".05" d="M314.143 489.27l-4.022-29.307 16.09 55.741-12.068-26.434z" class="Vector 4"/>
        <path fill="#000" fill-opacity=".18" d="M304.374 490.42c1.38 8.275 13.409 47.312 19.538 65.51l-2.298 4.022c-10.344-7.47-15.516-17.814-17.24-25.284V490.42z" class="Vector 4_2"/>
        <path stroke="#000" stroke-width=".575" d="M323.912 576.042l-18.963-133.318" class="Vector_13"/>
      </g>
      <g class="Group 4">
        <path fill="#3544C2" d="M335.126 556.504c-3.42-8.776-6.155-43.36 10.259-111.482 10.449 32.679 23.026 100.726-10.259 111.482z" class="Vector 4_3"/>
        <path fill="#000" fill-opacity=".11" d="M340.577 474.904c3.448 20.687-2.068 54.132-8.045 61.487-1.723-16.09 3.448-50.569 8.045-61.487z" class="Vector 4_4"/>
        <path fill="#000" fill-opacity=".18" d="M334.831 558.803c5.746-18.772 13.791-45.397 20.687-64.361 2.873 19.347 1.724 57.465-20.687 64.361z" class="Vector 4_5"/>
        <path stroke="#000" stroke-width=".575" d="M325.062 576.617c7.853-11.302 23.33-43.788 22.411-83.324-.468-20.113-2.107-50.761-2.299-46.547" class="Vector 3"/>
      </g>
      <g class="Group 5">
        <g class="Group_2">
          <path fill="#202A8A" d="M291.733 547.31c5.056 15.17 20.304 20.879 33.329 28.732 0 0-9.556-22.965-20.113-33.904-12.507-12.961-39.65-23.561-39.65-23.561s21.377 13.562 26.434 28.733z" class="Vector 5"/>
          <path stroke="#fff" stroke-width=".345" d="M325.062 576.042c-15.516-18.58-40.225-48.845-55.166-55.166" class="Vector 4_6"/>
        </g>
        <g class="Group 2">
          <path fill="#3544C2" d="M287.135 559.952c14.898-1.333 37.352 16.09 37.352 16.09s-24.029-7.31-37.352-7.97c-9.437-.468-24.135 4.522-24.135 4.522s13.839-11.721 24.135-12.642z" class="Vector 6"/>
          <path stroke="#fff" stroke-width=".23" d="M264.149 572.02s15.147-8.851 25.86-9.194c13.704-.439 32.755 12.642 32.755 12.642" class="Vector 4_7"/>
        </g>
      </g>
      <g class="Group 5.1">
        <g class="Group_3">
          <path fill="#1C2473" d="M357.817 547.31c-5.057 15.17-20.305 20.879-33.33 28.732 0 0 9.556-22.965 20.113-33.904 12.507-12.961 39.65-23.561 39.65-23.561s-21.377 13.562-26.433 28.733z" class="Vector 5_2"/>
          <path stroke="#fff" stroke-width=".345" d="M324.487 576.042c15.515-18.58 40.225-48.845 55.166-55.166" class="Vector 4_8"/>
        </g>
        <g class="Group 2_2">
          <path fill="#3544C2" d="M362.414 559.952c-14.898-1.333-37.352 16.09-37.352 16.09s24.029-7.31 37.352-7.97c9.438-.468 24.135 4.522 24.135 4.522s-13.839-11.721-24.135-12.642z" class="Vector 6_2"/>
          <path stroke="#fff" stroke-width=".23" d="M385.399 572.02s-15.147-8.851-25.859-9.194c-13.704-.439-32.755 12.642-32.755 12.642" class="Vector 4_9"/>
        </g>
      </g>
    </g>
    <g class="man">
      <g class="Group_4">
        <path fill="#FFFDFD" stroke="#000" stroke-width=".42" d="M492.159 315.999l8.797-62.565-23.472-1.642.302 31.822 1.798 31.506c4.781 3.914 6.263 3.807 12.575.879z" class="Vector 4_10"/>
        <path fill="#FFFDFD" stroke="#000" stroke-width=".42" d="M465.702 239.596c12.342-10.257 40.272-14.734 52.694-15.691l36.124 13.477c-.056 2.805-.905 9.33-3.858 12.999-2.952 3.668-47.403 7.285-69.26 8.635-1.046 5.318-19.484 36.686-23.812 51.406-4.952 1.55-7.396-.657-13.12-5.129-.287-7.939 11.322-49.472 21.232-65.697z" class="Vector 3_2"/>
        <g class="Union">
          <path fill="#fff" fill-rule="evenodd" d="M542.669 146.252c-2.807.314-5.375.195-6.461-.97-2.939-3.154-5.77-10.85-.371-27.826 6.424-1.516 19.768-1.397 21.751 11.209.355 3.956-.077 12.546-4.648 15.259.226 3.807.845 12.022 1.519 14.428.842 3.007-12.584 5.273-12.666.423l.033-.171c.555-2.862 1.481-7.643.843-12.352zm-37.582 63.269s-17.112-5.269-36.959-22.783c-4.381-3.866-9.23-11.186-3.58-12.545 2.663-.641 8.715 5.731 8.715 5.731s-.372-9.238 1.787-5.914c.687 1.057 4.613 11.476 4.613 11.476l27.095 11.398-1.671 12.637z" clip-rule="evenodd"/>
          <path fill="#000" d="M536.208 145.282l.272-.254-.272.254zm6.461.97l-.042-.369.361-.04.049.36-.368.049zm-6.832-28.796l-.354-.112.064-.201.205-.048.085.361zm21.751 11.209l.367-.058.002.012.001.013-.37.033zm-4.648 15.259l-.371.022-.013-.226.195-.115.189.319zm1.519 14.428l.358-.101-.358.101zm-12.666.423l-.372.007v-.039l.007-.038.365.07zm.033-.171l-.365-.071.365.071zm-73.698 28.134l.246-.279-.246.279zm36.959 22.783l.369.048-.058.436-.42-.129.109-.355zm-40.539-35.328l-.087-.361.087.361zm8.715 5.731l.371-.014.04.987-.681-.717.27-.256zm1.787-5.914l.312-.203-.312.203zm4.613 11.476l-.144.342-.147-.062-.057-.149.348-.131zm27.095 11.398l.144-.342.261.11-.037.281-.368-.049zm29.722-51.856c.452.486 1.257.792 2.357.925 1.089.131 2.401.085 3.79-.07l.083.739c-1.417.158-2.793.21-3.962.069-1.156-.14-2.179-.476-2.812-1.156l.544-.507zm-.289-27.459c-5.383 16.928-2.513 24.452.289 27.459l-.544.507c-3.075-3.301-5.868-11.167-.453-28.191l.708.225zm21.03 11.154c-.967-6.143-4.681-9.225-8.957-10.605-4.303-1.389-9.173-1.048-12.342-.3l-.17-.723c3.255-.769 8.27-1.127 12.74.316 4.498 1.452 8.446 4.732 9.463 11.196l-.734.116zm-4.47 14.882c2.146-1.274 3.367-3.966 3.997-6.922.625-2.937.645-6.035.47-7.985l.74-.066c.18 2.006.161 5.181-.483 8.206-.641 3.007-1.921 5.967-4.345 7.406l-.379-.639zm1.35 14.847c-.348-1.242-.674-3.934-.94-6.754a241.1 241.1 0 01-.592-7.752l.742-.043c.113 1.9.324 4.9.59 7.725.268 2.841.589 5.459.916 6.623l-.716.201zm-11.936.317c.016.987.693 1.658 1.879 2.057 1.187.399 2.788.479 4.391.314 1.6-.165 3.156-.57 4.248-1.105.548-.269.953-.558 1.193-.842.233-.277.288-.518.225-.741l.716-.201c.148.529-.033 1.017-.373 1.421-.333.396-.84.739-1.434 1.03-1.191.584-2.838 1.006-4.499 1.178-1.659.17-3.377.096-4.704-.35-1.329-.446-2.361-1.31-2.386-2.748l.744-.013zm.026-.095l-.033.172-.73-.141.033-.172.73.141zm.846-12.471c.648 4.777-.292 9.615-.846 12.471l-.73-.141c.556-2.867 1.468-7.591.839-12.231l.737-.099zm-74.663 40.256c9.898 8.734 19.112 14.414 25.848 17.908 3.367 1.747 6.116 2.948 8.02 3.712a54.04 54.04 0 002.194.83c.251.089.443.153.57.195l.144.047.036.011a.034.034 0 01.008.003h.003l-.11.356-.11.355-.003-.001-.01-.004a.368.368 0 01-.039-.012l-.151-.049a25.677 25.677 0 01-.584-.199 55.126 55.126 0 01-2.225-.842c-1.925-.772-4.695-1.983-8.086-3.742-6.782-3.519-16.047-9.231-25.996-18.01l.491-.558zm-3.739-11.904c-1.319.317-1.945.954-2.17 1.731-.237.816-.061 1.882.454 3.094 1.024 2.415 3.289 5.168 5.455 7.079l-.491.558c-2.216-1.955-4.566-4.795-5.649-7.346-.539-1.271-.79-2.532-.483-3.591.317-1.098 1.203-1.886 2.71-2.248l.174.723zm8.628 5.369l-.27.256h-.001l-.003-.004a.18.18 0 01-.012-.013l-.05-.052-.194-.198a45.102 45.102 0 00-.716-.707 39.656 39.656 0 00-2.349-2.1c-.915-.75-1.9-1.469-2.811-1.96a6.047 6.047 0 00-1.267-.532c-.385-.103-.704-.12-.955-.059l-.174-.723c.414-.1.867-.058 1.322.065.457.122.94.332 1.426.594.972.524 2 1.277 2.93 2.04a40.876 40.876 0 013.388 3.132l.004.004.001.001-.269.256zm1.476-5.712c-.266-.408-.437-.528-.503-.55-.013-.004-.004 0 .006-.005l-.02.016a.404.404 0 00-.054.066c-.094.14-.188.394-.269.762-.079.358-.139.789-.182 1.254-.087.93-.108 1.968-.107 2.777 0 .404.006.749.012.993l.008.284.003.075.001.019v.006l-.371.015-.372.015v-.002-.005l-.001-.02-.003-.078-.008-.291a42.227 42.227 0 01-.012-1.01c-.001-.819.02-1.883.11-2.847.045-.482.108-.946.196-1.346.086-.39.204-.757.379-1.016a.952.952 0 01.373-.339.722.722 0 01.546-.028c.327.109.617.428.891.85l-.623.405zm4.924 11.274l-.348.131v-.001-.001l-.002-.006-.009-.022a2.567 2.567 0 00-.033-.087l-.125-.332-.454-1.194c-.379-.993-.891-2.327-1.424-3.695a218.39 218.39 0 00-1.551-3.888 55.782 55.782 0 00-.61-1.433 7.417 7.417 0 00-.368-.746l.623-.405c.104.161.252.466.423.847.175.391.386.889.619 1.453a227.689 227.689 0 011.557 3.902c.534 1.37 1.046 2.706 1.425 3.7l.455 1.195a60.47 60.47 0 00.159.421l.008.022.002.006.001.001v.001l-.348.131zm26.951 11.741l-27.095-11.399.288-.685 27.095 11.399-.288.685zm-1.895 12.245l1.67-12.636.737.097-1.67 12.636-.737-.097z"/>
        </g>
        <path fill="#1E2884" fill-rule="evenodd" d="M531.988 120.053c2.892 4.414 7.199 5.479 10.181 4.985 3.645.014 3.173 4.681 2.812 8.252-.072.721-.141 1.396-.17 1.98 0 0 7.473-5.795 5.462.382-2.012 6.178-.001 10.128 3.498 8.267 1.113-.592 3.075-3.081 4.269-5.104.096-.162.208-.342.332-.543 1.431-2.305 4.484-7.226 2.701-16.185-1.448-7.275-9.966-7.752-16.234-8.103-.658-.037-1.291-.073-1.889-.115-1.864-.13-3.695-1.249-5.546-2.381-2.529-1.546-5.095-3.114-7.834-2.211-4.394 1.449-2.575 3.904.168 7.607.719.969 1.5 2.024 2.25 3.169zm-73.972 189.109c-2.457 8.042-6.084 19.87-7.074 21.014a8.253 8.253 0 00-.436.566c-1.177 1.619-2.679 3.684-12.87-.023 0 0-7.768-2.445-11.77-3.35-5.39-1.219-13.094-4.836-8.723-7.77 1.275-.857 4.135-.852 7.454-.847 4.158.007 9.037.014 12.427-1.667 7.836-3.886 7.306-14.655 7.306-14.655 2.268 1.662 9.786 6.459 13.686 6.732zm33.402 19.673c.021 1.627.041 3.193-.086 5.007-.253 3.617-13.308 2.661-16.446 2.431l-.36-.026c-.442-.031-1.315-.03-2.432-.028-4.696.006-13.702.018-13.198-2.328.252-1.171 2.485-1.964 5.378-2.992 4.287-1.523 10.023-3.561 12.908-8.103 2.946-4.639 3.106-8.139 2.54-9.695 2.283.408 8.067 1.309 12.945 1.65-1.342 6.918-1.294 10.636-1.249 14.084zm58.884-178.726c8.861-.223 17.279 23.953 11.892 64.855-2.257 32.274-4.374 33.643-10.933 35.88-9.892-.692-32-18.333-40.997-26.193l8.032-11.37c-7.078.008-13.195-1.046-13.195-1.046-.619-.09-1.517-.149-2.566-.217-3.659-.237-9.162-.594-11.12-2.846-2.728-3.139 1.164-12.625 3.551-17.653l11.483 1.435s6.497.454 9.894.06c7.528-.874 18.458-29.036 18.458-29.036.41-5.868 7.537-14.426 15.501-13.869z" class="Union_2" clip-rule="evenodd"/>
        <path fill="#fff" d="M448.6 334.327l1.149-2.831c-8.514-.595-26.204-6.92-33.89-10.153-1.536 4.066 21.187 10.351 32.741 12.984z" class="Vector 2_2"/>
        <path fill="#fff" d="M491.243 336.266l.145-2.076c-3.825.984-23.409.276-32.592-.193l.41 1.594c3.443 1.493 22.879 1.078 32.037.675z" class="Vector 2_3"/>
        <path stroke="#fff" stroke-opacity=".16" stroke-width=".42" d="M547.672 172.67s-.984 24.224-10.246 35.086c-3.764 4.415-11.942 5.518-19.13 5.526-7.077.007-13.195-1.047-13.195-1.047-2.779-.405-11.166-.165-13.685-3.063" class="Vector_14"/>
      </g>
    </g>
  </g>
</svg>
