<svg xmlns="http://www.w3.org/2000/svg" width="1152" height="700" fill="none" viewBox="0 0 1152 700">
  <g class="storage">
    <path fill="#fff" d="M0 0h1152v700H0z"/>
    <path fill="#79A8EE" fill-rule="evenodd" d="M802 213H493v32.5h-47v123h47V529h321V225c0-6.627-5.373-12-12-12z" class="Primary" clip-rule="evenodd"/>
    <g class="Drawer" opacity=".5">
      <path fill="#6B81AC" d="M702.5 213H802c6.627 0 12 5.373 12 12v304H493V213h209.5z" class="Vector"/>
      <path fill="#A4C3FE" d="M702.5 213v316H493V213h209.5z" class="Vector_2"/>
      <path fill="#6B81AC" d="M616.5 263v105.5H686V263h-69.5z" class="Vector 2.1"/>
      <g class="Vector 2">
        <path fill="#E6EDFC" d="M446 368.5v-123h170.5v123H446zM516 508.5V384h166v124.5H516z"/>
      </g>
    </g>
    <path fill="#fff" d="M558 441v-17h82.5v17H558z" class="handle"/>
    <path fill="#fff" d="M490 303v-17h82.5v17H490z" class="handle_2"/>
    <path fill="#E46060" fill-rule="evenodd" d="M557.458 142.6c29.811 14.615 86.91 52.092 76.82 120.4H616.5v-17.5h-34.591L579 219c-1.674 6.139-3.832 16.562-4.456 26.5h-9.99c.097-21.76 1.869-43.929 7.809-47.516.699-.421 1.361-.815 1.993-1.19 4.488-2.666 7.426-4.411 10.644-8.794 3.5-3 6-5 6-5s-26.204-28.631-33.542-32.323V142.6zm188.68 341.491c12.449-2.368 38.413-6.947 42.681-6.315 4.15 33.154 11.915 106.505 9.781 115.978-3.853.526-12.093 1.263-14.227 0-1.11-5.843-2.645-13.661-4.297-22.078-4.523-23.044-9.93-50.587-9.93-54.431 0-2.99-1.879-3.157-1.879 0 0 3.158-5.234 82.096-7.013 87.621-4.149.527-12.982 1.263-15.116 0-1.186-36.311-2.845-111.303 0-120.775z" class="Secondary" clip-rule="evenodd"/>
    <g class="woman">
      <path fill="#FFCB56" d="M552.112 171.184c6.417-9.196 16.252-4.521 20.367-1.034 12.469-6.879 18.803 4.116 20.412 10.474 4.579-1.402 14.481-1.261 17.46 10.525 3.724 14.731-19.67 29.226-35.095 22.764-12.34-5.17-14.958-14.674-14.724-18.78-5.481-4.151-14.837-14.754-8.42-23.949z" class="Vector 8.1"/>
      <g class="Vector 4.1">
        <path fill="#8A6564" d="M561.832 191.513c-4.304-3.906-6.188-10.282-6.626-13.478 2.178 4.36 14.43 3.689 18.784 3.309.417 1.19 2.076 3.834 5.38 4.883 4.13 1.313 4.453 1.26 5.631 3.273s-6.737 8.027-7.5 6.5c-1-2-4-4.487-6-6-1.43 2.132-5.365 5.42-9.669 1.513zM555.958 149.1v-6.5c-4.5 0-13.1.5-11.5 2.5 1.6 2 8.334 3.5 11.5 4z"/>
      </g>
    </g>
    <g class="Man">
      <g class="Vector 9">
        <path fill="#4B5361" d="M786.152 598.499c0-3-.297-5.801 0-7.117.889-.789 11.558-1.579 11.558.79 0 2.368 2.668 17.366 0 18.155-2.667.79-7.113.79-7.113 0 0-.789-3.557-.789-7.114-1.578-3.556-.79-15.116-3.51-16.005-5.879-.889-2.368.889-5.525 3.557-5.525 2.134 0 10.967-.162 15.117 1.154zM747.916 602.495c-.296 1.315 0 3.504 0 7.004-4.149-1.316-12.982-1.042-15.116-1.042-2.668 0-4.446 3.158-3.557 5.526.889 2.368 12.448 5.089 16.005 5.878 3.557.789 7.114.789 7.114 1.579 0 .789 4.446.789 7.113 0 2.668-.79 1.025-16.201 1.025-18.57 0-2.368-11.694-1.165-12.584-.375z"/>
      </g>
      <g class="Vector 6">
        <path fill="#EDC7C5" d="M747.916 379.102c0-1.895 3.315-7.936 5.39-9.778 15.117-2.368 14.172 12.935 14.172 20.829s2.191 10.026 3.557 13.419c.98 2.435-9.121 4.438-14.456 5.49 1.185-5.262.407-14.804-2.438-14.173-3.557.79-6.225-.789-8.003-4.736-1.778-3.947 1.778-8.683 1.778-11.051zM717.995 450.464c0-5.052 6.802-15.16 11.248-19.897 5.335 0 15.18 4.967 15.18 6.546 0 1.578-13.09 13.351-13.09 17.298 0 3.946 12.137 21.784 16.583 24.942 4.447 3.157 0 15.787-1.778 21.313-1.778 5.526-4.446-2.368-4.446-12.63s-9.535-13.971-12.449-17.73c-3.988-5.143-11.248-13.527-11.248-19.842zM788.369 442.255c3.557-1.263 1.95-7.917.468-10.285 0-1.579 11.779-8.009 13.558-3.273 1.778 4.737-.238 17.502-2.017 20.659-1.778 3.158-14.621 2.717-19.956 2.717-5.335 0 1.283-8.242 1.283-10.611 0-2.368 2.219 2.372 6.664.793z"/>
      </g>
      <path fill="#fff" d="M772.813 399.626c-5.691 0-24.799 3.884-30.727 7.568-3.261 1.842-9.146 8.706-11.22 13.09-3.298 6.971-7.551 13.812-9.626 19.601 2.134 6.315 9.626 8.45 13.833 9.852 3.273 0 6.291-7.747 7.013-6.545 1.402 2.338.935 10.753.935 16.363 0 3.201-.935 24.311 4.895 24.311 5.393 0 41.792-1.354 42.681-6.88.711-4.421-.296-29.733-.889-41.837 6.402 0 11.593-3.684 14.557-6.315 0-8.683-7.013-23.511-13.668-26.315-4.441-1.872-10.67-2.893-17.784-2.893z" class="Shirt"/>
      <path fill="#000" fill-opacity=".1" d="M772.813 399.626c-5.691 0-24.799 3.884-30.727 7.568-3.261 1.842-9.146 8.706-11.22 13.09-3.298 6.971-7.551 13.812-9.626 19.601 2.134 6.315 9.626 8.45 13.833 9.852 3.273 0 6.291-7.747 7.013-6.545 1.402 2.338.935 10.753.935 16.363 0 3.201-.935 24.311 4.895 24.311 5.393 0 41.792-1.354 42.681-6.88.711-4.421-.296-29.733-.889-41.837 6.402 0 11.593-3.684 14.557-6.315 0-8.683-7.013-23.511-13.668-26.315-4.441-1.872-10.67-2.893-17.784-2.893z" class="Color"/>
      <path fill="#4B5361" d="M749.566 373.576c-.712-2.526.981-5.274 1.87-6.589 2.667-3.947 14.263-4.462 18.709-3.673 4.446.79 4.85 4.868 8.407 8.815 3.556 3.947-.208 12.432-2.806 15.896-2.805 3.74-9.35 3.272-12.714 5.286-1.125.673-6.224-6.315-3.557-7.105 2.668-.789 1.779-10.804-.559-7.064-1.255 2.009-2.965.491-4.208-1.87-1.778-3.377-4.253-.538-5.142-3.696z" class="Vector 10"/>
      <path fill="#EDC7C5" d="M729.243 470.307c-3.988-5.142-11.248-13.527-11.248-19.842l13.338 3.947c0 3.947 12.137 21.784 16.583 24.942 4.447 3.157 0 15.787-1.778 21.313-1.778 5.526-4.446-2.368-4.446-12.63s-9.535-13.971-12.449-17.73z" class="Arm"/>
    </g>
    <g class="paper">
      <path fill="#BFBFBF" d="M236.902 114.049c-3.34-5.543-9.993-5.389-12.902-4.62 7.893-8.621 20.997-4.106 26.562-.77-.758-15.012 5.692-19.246 17.076-32.334 11.384-13.088 26.942-6.929 20.871-6.544-6.071.385-13.661 11.548-10.625 11.548h7.21c-14.268 8.315-16.57 19.631-15.938 24.251 16.393-11.702 27.069-2.823 30.357 3.079-9.992-1.283-28.308-1.386-21.629 8.469 6.679 9.854 23.527 11.547 31.116 11.163-58.058 18.861-67.924-7.314-72.098-14.242z" class="Vector 9_2"/>
      <path fill="#BFBFBF" d="M283.904 188.793c-4.34-4.808-9.994-5.408-12.904-4.635 7.894-8.652 21.001-4.121 26.568-.773-3.382-8.299-3.6-12.192 10.052-21.486 14.335-9.758 33.974-7.888 27.902-7.502-6.073.386-13.664 11.588-10.627 11.588h7.211l-.137.08c-14.148 8.272-16.434 9.609-15.804 14.229 16.396-11.743 27.546 5.666 30.835 11.589-9.995-1.288-28.785-9.889-22.105 0s12.49 10.422 20.081 10.036c-58.07 18.927-53.918-5.201-61.072-13.126z" class="Vector 9.1"/>
      <path fill="#BFBFBF" d="M382.441 164.072c-1.824-4.538-10.387 3.152-14.441 7.564 0-16.64 34.963-27.23 31.163-31.391-3.801-4.16-18.242-2.269-3.801-4.916 27.363-4.16 63.466 32.525 61.566 32.525-1.9 0-1.969 3.653 0 6.43 1.572 2.216-28.123-23.827-27.742-13.994.38 9.834-4.181 3.782-11.782-1.89-7.6-5.673-20.521.756-28.502 5.672-7.981 4.917-4.18 5.673-6.461 0z" class="Vector 9_3"/>
      <path fill="#BFBFBF" d="M341.635 99.25c0-1.615-4.887-4.11-7.33-5.157 15.771-9.865 52.421 18.385 49.534 17.712-2.888-.672-1.999 4.709-3.332 1.794-1.333-2.915-17.548-8.296-25.544-5.381-4.658 1.697-6.15 4.231-6.585 5.875-.025.707-.079 1.301-.079 1.524 0 .374-.233-.346.079-1.524.075-2.145-.127-5.323-2.967-2.288-3.776 4.036-6.219 9.193-6.441 5.605-.223-3.587-6.886 5.606-8.663 6.278-1.777.673-2.222 1.57 1.777-12.78 3.998-14.349 9.551-9.641 9.551-11.658z" class="Vector 9_4"/>
      <path fill="#BFBFBF" d="M452.3 187.958c-2.55 3.782-18.596 8.929-26.3 11.03 50.474 0 59.772 11.031 72.258 15.233 9.989 3.362 16.737 22.587 18.862 31.779 5.844-14.707 5.047-54.102-2.125-61.981-5.739-6.304-11.601-16.109-13.815-20.223-7.261-1.751-21.783-4.885-21.783-3.414 0 1.838 6.375 9.454 21.783 23.637 12.327 11.345 14.346 32.391 13.815 41.495-9.298-32.304-59.507-42.284-62.695-37.556z" class="Vector 7"/>
      <path fill="#BFBFBF" d="M502 90c-15.91 15.104-11.165 37.41-6.804 46.676-19.26-3.357-33.146 6.817-37.682 12.324.209-7.552-7.589-15.209-11.514-18.093 5.024-4.615 26.866-3.147 37.159-1.836-7.955-6.083-10.118-22.114-10.206-29.369L502 90z" class="Vector 8"/>
    </g>
  </g>
</svg>
