<svg xmlns="http://www.w3.org/2000/svg" width="1152" height="700" fill="none" viewBox="0 0 1152 700">
  <g class="team">
    <path fill="#fff" d="M0 0h1152v700H0z"/>
    <g class="chart">
      <rect width="150.3" height="99.351" x="454.301" y="119.992" fill="#E3F3FF" class="Rectangle 2" rx="7.642"/>
      <path fill="#FFD37C" d="M469.585 160.751h10.19v43.307h-10.19z" class="Rectangle 3"/>
      <path fill="#FFD37C" d="M492.512 183.678h10.19v20.38h-10.19z" class="Rectangle 3.1"/>
      <path fill="#FFD37C" d="M515.44 165.846h10.19v38.212h-10.19z" class="Rectangle 3.2"/>
      <path fill="#FFD37C" d="M538.367 158.204h10.19v45.854h-10.19z" class="Rectangle 3.3"/>
      <path fill="#FFD37C" d="M561.294 168.393h10.19v35.664h-10.19z" class="Rectangle 3.4"/>
      <path fill="#FFD37C" d="M584.221 148.014h10.19v56.044h-10.19z" class="Rectangle 3.5"/>
      <path stroke="#4050E2" stroke-width="1.019" d="M474.68 164.572l22.927 24.201 22.928-20.379 22.927-7.643 22.927 11.464 22.927-20.38" class="Vector 7"/>
    </g>
    <g class="Group 4">
      <path fill="#E8EDFF" d="M622.396 236.8V123.878a4.022 4.022 0 013.35-3.966l142.153-24.115a4.023 4.023 0 014.696 3.966v104.53a4.023 4.023 0 01-3.126 3.922l-142.153 32.507a4.023 4.023 0 01-4.92-3.922z" class="Vector 2"/>
      <g class="Group 2">
        <path stroke="#fff" stroke-width="1.341" d="M667.321 132.55l26.822-4.694" class="Vector 4"/>
        <path stroke="#fff" stroke-width="1.341" d="M667.321 138.585l26.822-4.694" class="Vector 4.1"/>
        <path stroke="#fff" stroke-width="1.341" d="M667.321 144.619l26.822-4.693" class="Vector 4.2"/>
        <path stroke="#fff" stroke-width="1.341" d="M667.321 150.654l26.822-4.693" class="Vector 4.3"/>
        <path stroke="#fff" stroke-width="1.341" d="M667.321 156.689l26.822-4.694" class="Vector 4.4"/>
        <path stroke="#fff" stroke-width="1.341" d="M667.321 162.724l26.822-4.694" class="Vector 4.5"/>
      </g>
      <g class="Group 3">
        <g class="Group 2.1">
          <path stroke="#fff" stroke-width="1.341" d="M636.903 186.046l27.446-4.532" class="Vector 4_2"/>
        </g>
        <g class="Group 2.3">
          <path stroke="#fff" stroke-width="1.341" d="M636.869 192.784l27.446-4.531" class="Vector 4_3"/>
        </g>
        <g class="Group 2.4">
          <path stroke="#fff" stroke-width="1.341" d="M636.835 199.523l27.446-4.532" class="Vector 4_4"/>
        </g>
        <g class="Group 2.5">
          <path stroke="#fff" stroke-width="1.341" d="M636.801 206.262l27.445-4.532" class="Vector 4_5"/>
        </g>
        <g class="Group 2.6">
          <path stroke="#fff" stroke-width="1.341" d="M636.767 213.001l27.446-4.532" class="Vector 4_6"/>
        </g>
      </g>
      <g class="Group 3.1">
        <g class="Group 2.1_2">
          <path stroke="#fff" stroke-width="1.341" d="M668.415 178.068l26.233-4.659" class="Vector 4_7"/>
        </g>
        <g class="Group 2.3_2">
          <path stroke="#fff" stroke-width="1.341" d="M668.351 184.804l26.233-4.66" class="Vector 4_8"/>
        </g>
        <g class="Group 2.4_2">
          <path stroke="#fff" stroke-width="1.341" d="M668.286 191.539l26.233-4.659" class="Vector 4_9"/>
        </g>
        <g class="Group 2.5_2">
          <path stroke="#fff" stroke-width="1.341" d="M668.222 198.274l26.233-4.659" class="Vector 4_10"/>
        </g>
        <g class="Group 2.6_2">
          <path stroke="#fff" stroke-width="1.341" d="M668.157 205.01l26.233-4.659" class="Vector 4_11"/>
        </g>
      </g>
      <path fill="#FF9EBB" d="M632.454 169.819v-33.455a1.34 1.34 0 011.116-1.322l28.833-4.908a1.342 1.342 0 011.566 1.322v32.841c0 .644-.457 1.197-1.089 1.318l-28.833 5.521a1.341 1.341 0 01-1.593-1.317z" class="Vector 3"/>
      <path fill="#808DFF" d="M733 194.472v-68.976c0-.653.471-1.212 1.116-1.322l28.833-4.907a1.34 1.34 0 011.566 1.322v68.051a1.34 1.34 0 01-1.075 1.314l-28.833 5.832a1.34 1.34 0 01-1.607-1.314z" class="Vector 3.1"/>
      <path fill="#BFC6FF" d="M698 200.385v-68.889c0-.653.471-1.212 1.116-1.322l28.833-4.907a1.34 1.34 0 011.566 1.322v66.434c0 .613-.415 1.148-1.009 1.3l-28.833 7.361a1.34 1.34 0 01-1.673-1.299z" class="Vector 3.2"/>
    </g>
    <g class="woman">
      <g class="Group 3_2">
        <path fill="#3177FF" fill-rule="evenodd" d="M419.66 357c1.181-4.239 2.763-7.926 4.796-10.802l54 16s18.023 104.396 14 122.5l-18 94.5c-6.381 2.761-10.137 3.217-17.5 0v-89.636l-4.338-12.04-13.197 89.324c-6.459 4.629-14.151 5.181-20.609 0v-103c-1.306-5.061-3.533-10.854-5.985-17.235-4.849-12.619-10.58-27.534-11.827-43.611-1.487-19.171-2.225-34.249 7.5-46h11.16z" class="Union" clip-rule="evenodd"/>
        <path fill="#000" fill-opacity=".04" d="M424.456 346.198c-8.802 12.457-9.168 40.117-5 62 4 21 24.109 39.933 28 55l9.5 26.364v89.636c7.363 3.217 11.119 2.761 17.5 0l18-94.5c4.023-18.104-14-122.5-14-122.5l-54-16z" class="Vector 2.1"/>
      </g>
      <g class="Group 4_2">
        <path fill="#FFCACA" d="M427 217l14 4s.225 4.042 0 5.5c-.468 3.033 1.086 7.782 1.086 7.782l-16.764 1.341L427 217z" class="Vector 6"/>
        <path fill="#FFCACA" d="M453.5 209c1.965-10.519-4.038-27.102-4.038-27.102-43.585-10.729-30.174 26.903-21.457 40.985 0 0 13.495 1.258 19.445 1.258 4.55 0 4.881-8.882 6.05-15.141z" class="Vector 7_2"/>
      </g>
      <path fill="#1F1E64" d="M437.5 221H427c-4.5-2.5-8.5-25-9-32s7-13.5 16-15 13-6 22-4.5 2.5 6.5 2.5 12.5c0 4.8-6.833 7.833-12.5 9-.333 2.833-1.6 8.4-4 8-2.4-.4-2 4.833-1.5 7.5l-3 14.5z" class="Vector"/>
      <g class="Group 5">
        <path fill="#282828" fill-rule="evenodd" d="M441.488 230.355c-5.898-2.362-12.176-3.023-18.988-.855-10.584 3.368-16 10-16 64 0 40.5-3.5 73-3.5 73 1.547.756 3.083 1.521 4.615 2.282 21.033 10.462 41.07 20.429 73.885 2.718 0 0-3.728-22.466-4.5-42.5-.408-10.586.382-21.449 1.271-31.401 17.433 13.431 26.391 13.29 31.729 8.901 22.5-18.5 38.5-57.5 38.5-57.5l-12-8c-3.873 4.662-6.907 8.51-9.636 11.972-7.074 8.972-12.097 15.343-24.364 26.528 0 0-41.942-49.695-61.012-49.145z" class="Union_2" clip-rule="evenodd"/>
        <path fill="#FFCACA" d="M554.438 232.782C557.962 238.218 548 249.5 548 249.5l-12.591-6.94s7.36-43.322 8.758-30.869c.731 6.505-1.461 16.699-1.461 16.699s9.07.288 11.732 4.392z" class="Vector 8"/>
      </g>
      <path fill="#000" d="M459.037 589.5c-1.933-7.85-1.8-10.875 0-14.5 9.5 3 15.5 2 19-6l19 1.5 12 4.5c-20 8-44.5 19-50 14.5z" class="Vector_2"/>
      <path fill="#000" d="M416.597 578.432c-.54-8.067.116-11.023 2.518-14.28 8.835 4.604 14.917 4.661 19.753-2.61l18.451 4.777v7.181c-21.085 4.405-36.087 10.318-40.722 4.932z" class="Vector_3"/>
    </g>
    <g class="woman_2">
      <g class="Group 3_3">
        <path fill="#1D4594" fill-rule="evenodd" d="M788.731 355.802c-1.181-4.239-2.764-7.926-4.796-10.802l-54 16s-18.023 104.396-14 122.5l18 94.5c6.381 2.761 10.137 3.217 17.5 0v-89.636l4.338-12.04 13.196 89.323c6.459 4.63 14.151 5.182 20.609 0V462.648c1.303-5.047 3.577-10.991 6.096-17.576 5.001-13.074 10.968-28.671 12.217-44.77 1.487-19.172 1.725-32.749-8-44.5h-11.16z" class="Union_3" clip-rule="evenodd"/>
        <path fill="#000" fill-opacity=".04" d="M783.935 345c8.802 12.457 9.168 40.117 5 62-4 21-24.109 39.933-28 55l-9.5 26.364V578c-7.363 3.217-11.119 2.761-17.5 0l-18-94.5c-4.023-18.104 14-122.5 14-122.5l54-16z" class="Vector 2.1_2"/>
      </g>
      <g class="Group 4_3">
        <path fill="#FFCACA" d="M781.391 215.802l-14 4s-.225 4.042 0 5.5c.467 3.032-1.086 7.782-1.086 7.782l16.763 1.341-1.677-18.623z" class="Vector 6_2"/>
        <path fill="#FFCACA" d="M754.891 207.802c-1.965-10.519 4.038-27.102 4.038-27.102 43.585-10.729 30.174 26.903 21.457 40.985 0 0-13.495 1.258-19.445 1.258-4.55 0-4.881-8.882-6.05-15.141z" class="Vector 7_3"/>
      </g>
      <g class="Group 5_2">
        <path fill="#2AB2C5" fill-rule="evenodd" d="M766.903 229.156c5.898-2.361 12.176-3.022 18.988-.854 10.584 3.367 16 10 16 64 0 40.5 3.5 73 3.5 73-1.547.756-3.084 1.521-4.615 2.282-21.033 10.462-41.07 20.428-73.885 2.718 0 0 3.727-22.466 4.499-42.5.408-10.586-.382-21.45-1.271-31.401-17.433 13.431-26.39 13.29-31.728 8.901-22.5-18.5-38.5-57.5-38.5-57.5l12-8c3.873 4.662 6.907 8.51 9.636 11.972 7.074 8.972 12.096 15.343 24.363 26.528 0 0 41.943-49.695 61.013-49.146z" class="Union_4" clip-rule="evenodd"/>
        <path fill="#FFCACA" d="M653.953 231.584c-3.525 5.435 6.438 16.718 6.438 16.718l12.591-6.94s-7.36-43.322-8.759-30.869c-.731 6.505 1.461 16.699 1.461 16.699s-9.07.287-11.731 4.392z" class="Vector 8_2"/>
      </g>
      <path fill="#000" d="M751.354 587.302c1.933-7.851 1.799-10.876 0-14.5-9.5 3-15.5 2-19-6l-19 1.5-12 4.5c20 8 44.5 19 50 14.5z" class="Vector_4"/>
      <path fill="#000" d="M791.794 577.234c.54-8.067-.117-11.023-2.518-14.28-8.835 4.604-14.918 4.661-19.754-2.61l-18.451 4.777v7.181c21.086 4.405 36.088 10.318 40.723 4.932z" class="Vector_5"/>
      <path fill="#EE8E64" d="M756.004 178.591c-.112-1.042 2.012-6.035 3.353-6.706 1.341-.67 28.162-18.775 36.879 12.07 0 0 3.063 23.312 9.388 33.526 5.758 9.301 17.946 16.258 20.786 26.822 2.773 10.315 3.278 13.633-6.705 17.434-6.826 2.598-12.748 3.495-20.116 0-9.422-4.47-16.763-24.14-16.763-24.14s-6.026-11.9-8.047-20.116c-.638-2.593-.942-4.065-1.341-6.705-1.251-8.286-6.774-11.841-5.938-17.276 1.341-8.717-10.65-7.095-11.496-14.909z" class="Vector_6"/>
    </g>
  </g>
</svg>
