<svg xmlns="http://www.w3.org/2000/svg" width="800" height="600" fill="none" viewBox="0 0 800 600">
  <g class="tech_illustration_three_two">
    <path fill="#fff" d="M0 0h800v600H0z"/>
    <path fill="#FAE4B0" fill-opacity=".5" fill-rule="evenodd" d="M612.437 153.262c7.072-11.86 11.135-25.722 11.135-40.533 0-43.77-35.484-79.254-79.255-79.254-43.771 0-79.255 35.483-79.255 79.254 0 43.771 35.484 79.255 79.255 79.255 10.599 0 20.713-2.081 29.954-5.856v-32.866h38.166zm-68.102-76.356l14.256-14.255a20.187 20.187 0 00-34.369 12.36l20.05 1.931.063-.036z" class="Subtract" clip-rule="evenodd"/>
    <path stroke="#DF0045" d="M314.262 202.594l5.392-36.848 23.191 6.184-28.583 30.664z" class="Vector"/>
    <path stroke="#00A8A6" stroke-linecap="round" d="M50.504 490.683H776.48" class="Vector_2"/>
    <path stroke="#00A8A6" stroke-linecap="round" d="M50.504 493.105H776.48" class="Vector_3"/>
    <path fill="#17B0AE" d="M345.588 528.452l-2.671-15.192h9.667l5.018 15.192c14.64 2.118 36.487 9.756 38.696 12.629 2.763 3.591-49.682 4.434-51.688 1.257-3.353-5.309-1.693-13.886.978-13.886z" class="Vector_4"/>
    <path fill="#26B5B3" d="M342.713 547.431l-2.671-15.193h9.667l5.018 15.193c14.64 2.117 36.487 9.756 38.696 12.628 2.763 3.591-49.682 4.434-51.688 1.258-3.353-5.309-1.693-13.886.978-13.886z" class="Vector_5"/>
    <path fill="#F1F0EC" fill-rule="evenodd" d="M737.72 490.683c4.733-15.391 7.224-31.354 7.224-47.721 0-126.049-147.733-228.233-329.971-228.233S85.002 316.913 85.002 442.962c0 16.367 2.49 32.33 7.224 47.721H737.72z" class="Vector_6" clip-rule="evenodd"/>
    <path fill="#E42963" fill-rule="evenodd" d="M332.606 428.962l6.283 98.496s22.966-2.588 22.875-1.023l2.517-110.592c.874-15.002-12.364-26.958-27.2-24.567l-96.716 15.59c-11.177 1.802-18.778 12.324-16.976 23.501 1.801 11.178 12.323 18.778 23.501 16.977l85.716-18.382z" class="Vector_7" clip-rule="evenodd"/>
    <path fill="#FAE4B0" fill-opacity=".5" d="M133.309 142.659c13.801 0 24.989-11.188 24.989-24.989 0-13.8-11.188-24.988-24.989-24.988S108.32 103.87 108.32 117.67c0 13.801 11.188 24.989 24.989 24.989z" class="Vector_8"/>
    <path stroke="#DF0045" d="M475.579 254.412l-5.392-36.849-23.191 6.184 28.583 30.665z" class="Vector_9"/>
    <path fill="#00A8A6" d="M469.672 188.703H368.147c-10.532 0-19.069 8.537-19.069 19.069 0 10.531 8.537 19.068 19.069 19.068h101.525c10.531 0 19.068-8.537 19.068-19.068 0-10.532-8.537-19.069-19.068-19.069z" class="Vector_10"/>
    <path stroke="#E42B65" stroke-linecap="round" stroke-width="3" d="M365.002 537.234l7.49-13.418" class="Vector_11"/>
    <path stroke="#E42B65" stroke-linecap="round" stroke-width="3" d="M361.355 532.623l14.784-4.192" class="Vector_12"/>
    <path fill="#fff" fill-opacity=".37" d="M62.37 413.078h63.151v50.603c0 6.075-4.925 27-11 27H73.369c-6.075 0-11-20.925-11-27v-50.603z" class="Vector_13"/>
    <path fill="#E53068" fill-rule="evenodd" d="M476.724 451.424l4.993 85.312s-4.008 4.686-11.445.921l-10.607-83.745c-1.974-9.077 10.219-8.276 17.059-2.488z" class="Vector_14" clip-rule="evenodd"/>
    <path fill="#E53068" d="M481.806 546.353s2.454-12.208 0-12.208c0 0-4.37 3.748-6.526 3.748-2.155 0-5.178-1.934-5.178-1.934-13.45 1.945-24.82 7.029-26.85 9.668-2.538 3.299 38.554.726 38.554.726z" class="Vector_15"/>
    <path fill="#08A9A6" d="M335.238 392.486c-7.265-7.837-22.816-7.371-29.012-5.908-1.443 2.597-2.985 9.136-2.984 12.511.002 4.219 16.766 7.977 19.478 7.977 3.65 0 6.819 4.136 17.331 2.593 1.423-2.459 2.452-9.336-4.813-17.173z" class="Vector_16"/>
    <path fill="#FAE28B" d="M255.855 311.057c-3.027-8.595-12.448-13.11-21.044-10.083-8.595 3.026-13.11 12.448-10.083 21.043l31.127-10.96zm8.168 72.878l-15.564 5.48 2.939 8.346 8.578 2.17 4.047-15.996zm-39.295-61.918l23.731 67.398 31.127-10.96-23.731-67.398-31.127 10.96zm35.248 77.914l53.237 13.47 8.095-31.992-53.238-13.47-8.094 31.992z" class="Vector_17"/>
    <path fill="#FFEFB3" d="M401.856 429.495a5.452 5.452 0 015.452 5.452v107.011a5.452 5.452 0 01-10.904 0V434.947a5.452 5.452 0 015.452-5.452z" class="Vector_18"/>
    <path fill="#000" fill-opacity=".4" d="M396.404 437.947a5.451 5.451 0 1110.903 0v2.479h-10.903v-2.479z" class="Vector_19"/>
    <path fill="#26B5B3" d="M486.99 429.495c0 4.186-38.098 7.581-85.095 7.581-46.998 0-85.096-3.395-85.096-7.581 0-1.129-2.697-8.261 2.269-9.224 13.455-2.608 48.5 1.643 82.827 1.643 34.326 0 69.208-4.148 82.663-1.54 4.966.962 2.432 7.992 2.432 9.121z" class="Vector_20"/>
    <path fill="#FFEFB5" d="M401.895 429.495c46.997 0 85.095-3.394 85.095-7.581s-38.098-7.581-85.095-7.581-85.096 3.394-85.096 7.581 38.099 7.581 85.096 7.581z" class="Vector_21"/>
    <path fill="#FFEFB5" d="M379.613 542.402h44.483a4.907 4.907 0 010 9.813h-44.483a4.907 4.907 0 010-9.813z" class="Vector_22"/>
    <path stroke="#fff" stroke-linecap="round" stroke-width="9" d="M319.947 415.914l47.738 2.662 25.408-53.006" class="Vector_23"/>
    <path stroke="#fff" stroke-linecap="round" stroke-width="9" d="M479.228 417.522h-45.883l-8.761-56.038" class="Vector_24"/>
    <path fill="#FFEEB0" fill-rule="evenodd" d="M264.098 357.688c2.197 22.882 7.569 39.335 12.096 45.951l-66.85 45.739c-16.257-23.761-23.275-56.869-25.875-83.95-1.21-12.605.192-30.236 6.132-44.176 8.408-19.731 23.558-33.992 45.713-25.911l13.943 10.483c10.799 13.886 12.706 29.619 14.841 51.864z" class="Vector_25" clip-rule="evenodd"/>
    <path fill="#3DBDBB" d="M335.131 396.568c-7.265-7.837-22.816-7.371-29.012-5.907-1.443 2.596-2.985 9.135-2.984 12.51.002 4.219 16.767 7.977 19.479 7.977 3.649 0 6.818 4.136 17.33 2.593 1.423-2.459 2.452-9.336-4.813-17.173z" class="Vector_26"/>
    <path fill="#F3C045" fill-rule="evenodd" d="M559.922 89.73a20.19 20.19 0 004.582-12.806h-20.186l14.273-14.274a20.184 20.184 0 00-32.922 21.999 20.186 20.186 0 0034.253 5.08zm-138.227 47.157H320.17c-10.531 0-19.068 8.537-19.068 19.068s8.537 19.069 19.068 19.069h101.525c10.531 0 19.069-8.538 19.069-19.069 0-10.531-8.538-19.068-19.069-19.068zm-177.208 92.316l17.704 9.695 11.649-8.96c3.389 4.237 11.234 10.497 19.621 8.132a37.701 37.701 0 01-.339 9.443c-3.33 20.516-22.659 34.448-43.174 31.119a38.35 38.35 0 01-3.806-.819l-7.77 16.113-.119-.003c-2.339-.045-5.076-.098-7.237-1.848-1.088-.881-2.132-2.326-3.189-3.787-.826-1.143-1.66-2.297-2.527-3.198l6.941-14.393a37.773 37.773 0 01-12.96-20.819c1.232.21 2.74.288 4.284.367 2.637.135 5.376.275 7.007 1.091-3.842-16.091 1.364-24.036 13.915-22.133zm-34.99 220.068l.064 2.183c2.475-.239 11.605.359 22.254 1.061 4.322.285 9.104.052 14.09-.191h.001c6.682-.326 13.732-.67 20.534.191 4.773.605 10.238.848 15.885 1.1 10.382.461 21.379.951 29.82 3.766l24.628 87.837 23.434-4.695c-4.008-25.896-13.709-83.142-23.434-109.749-4.79-5.042-11.274-7.58-14.698-8.822-4.398-1.596-9.483-2.957-14.675-4.131-10.459-2.365-23.21-4.385-35.807-5.981a654.928 654.928 0 00-6.275-.762l-55.821 38.193zm161.432 94.256a1.5 1.5 0 10-2.619-1.462l-3.443 6.166-6.794 1.926a1.5 1.5 0 10.819 2.886l3.907-1.107-1.979 3.546a1.5 1.5 0 102.619 1.462l3.442-6.166 6.795-1.926a1.5 1.5 0 00-.819-2.886l-3.908 1.108 1.98-3.547zm170.986-168.113l-6.407 23.886-55.485 2.112c-4.632-2.425-14.877-5.594-21.469-1.802-7.001 4.027-8.668 13.329-8.668 13.329s8.801.235 14.433 0c1.926-.08 4.091.049 6.19.174h.001c4.665.278 9.002.536 9.655-1.564.031-.099.062-.203.091-.311l61.839 4.811h6.521l1.689-6.298 8.46-31.538-16.85-2.799zm-48.457 177.83l-1.281-1.31c3.948.552 5.514-1.582 5.514-1.582l1.141-66.276-21.732-8.037 9.867 70.57-4.255-4.349a1.5 1.5 0 10-2.145 2.098l2.84 2.902-4.061-.045a1.5 1.5 0 00-.033 3l7.061.077 4.939 5.05a1.501 1.501 0 002.145-2.098zm-28.586-24.058a1.501 1.501 0 012.041.579l3.138 5.621 6.195 1.756a1.5 1.5 0 01-.819 2.887l-3.308-.938 1.676 3.002a1.5 1.5 0 11-2.619 1.462l-3.138-5.621-6.195-1.757a1.5 1.5 0 11.819-2.886l3.308.938-1.676-3.002a1.5 1.5 0 01.578-2.041zm98.143-234.719l-32.11 7.663-10.762-30.556c-2.835 2.464-12.168 4.947-18.07 6.328a31.86 31.86 0 00-.554 5.933c0 17.487 14.176 31.662 31.663 31.662 13.757 0 25.464-8.773 29.833-21.03zm186.992-131.826h-167.72v207.223a8 8 0 0113.727 7.699c-7.81 22.843-10.635 43.181-11.509 57.765-.437 7.287-.386 13.12-.231 17.089.078 1.984.182 3.499.263 4.496.041.498.076.866.099 1.097l.017.162.009.082.004.034.001.008v.004l1.077 8.945h-3.457v14.062h167.72V162.641zM595.386 209.75h141.52v-4h-141.52v4zm141.52 81.363h-141.52v-4h141.52v4zm-141.519 4.485h141.52v-4h-141.52v4zm.002 106.84H736.91v-4H595.389v4zm141.517-151.825h-71.125v-4h71.125v4zm-141.518 83.614h141.52v-4h-141.52v4zm141.521 63.73h-141.52v-4h141.52v4zM595.39 463.891h141.521v-4H595.39v4zm-60.348 6.875a45.376 45.376 0 012.966-3.52h2.737c-1.376 1.297-2.766 2.873-4.163 4.698-4.571 5.976-9.089 14.461-13.31 24.027-8.438 19.12-15.605 42.353-19.622 57.916l-1.878-.485c4.032-15.623 11.23-38.965 19.725-58.214 4.245-9.618 8.835-18.266 13.545-24.422zm27.492 2.712c-1.712-2.48-3.447-4.58-5.182-6.232h2.72c1.381 1.491 2.736 3.215 4.058 5.13 4.43 6.417 8.575 15.09 12.146 24.601 7.139 19.016 12.065 41.597 12.345 56.65l-1.939.036c-.275-14.77-5.135-37.127-12.222-56.004-3.542-9.434-7.621-17.945-11.926-24.181zm-326.144-5.306a53.676 53.676 0 00-1.241-1.563h-2.636c.76.851 1.524 1.778 2.288 2.778 4.715 6.162 9.373 14.912 13.727 24.776 8.7 19.717 16.091 43.674 20.233 59.722l1.937-.5c-4.159-16.11-11.581-40.18-20.341-60.029-4.377-9.918-9.11-18.836-13.967-25.184zm-29.995 1.66a53.58 53.58 0 012.4-3.223h2.613a47.563 47.563 0 00-3.367 4.36c-4.439 6.43-8.646 15.206-12.298 24.935-7.309 19.465-12.32 42.52-12.604 57.75l-1.999-.037c.289-15.523 5.368-38.808 12.73-58.416 3.683-9.808 7.957-18.752 12.525-25.369zM62.369 413.078h63.152v50.603c0 6.075-4.925 27-11 27H73.369c-6.075 0-11-20.925-11-27v-50.603zm175.015-93.399c-3.027-8.595-12.448-13.11-21.044-10.083-8.595 3.026-13.11 12.448-10.083 21.043l23.731 67.398 3.556 10.099 10.672.867 65.647 5.331 2.672-32.892-54.976-4.465-20.175-57.298z" class="Secondary" clip-rule="evenodd"/>
    <path fill="#fff" fill-opacity=".22" d="M237.43 319.713c-3.027-8.595-12.448-13.109-21.044-10.083-8.595 3.026-13.11 12.448-10.083 21.043l31.127-10.96zm8.168 72.878l-15.564 5.48 3.556 10.099 10.672.867 1.336-16.446zm-39.295-61.918l23.731 67.398 31.127-10.96-23.731-67.398-31.127 10.96zm37.959 78.364l65.647 5.331 2.672-32.892-65.648-5.331-2.671 32.892z" class="Vector_27"/>
    <path fill="#FFEEB0" d="M213.428 295.672s3.963-10.657 7.782-12.109c3.818-1.452 6.628 5.939 9.806 8.513 3.179 2.573 7.601 1.477 10.174 2.083 2.058.484.857 7.679 0 10.303l-5.298 4.228-14.682-.757-7.782-12.261z" class="Vector_28"/>
    <path stroke="#00A8A6" stroke-dasharray="4 4" d="M41.295 288.579C3.664 204.871 54.35 155.72 127.307 174.92c41.656 10.962 112.123-14.458 112.123-49.918 0-38.936 61.141-43.608 66.516-44.376" class="Vector_29"/>
    <path fill="#FAE3AD" d="M327.199 74.676l-12.775-15.414 63.997 8.785-62.778 35.05 11.556-28.421z" class="Vector_30"/>
    <path fill="#00A8A6" d="M318.254 82.211l9.642-7.626 49.131-6.357-58.773 13.983z" class="Vector_31"/>
    <path stroke="#000" stroke-linecap="round" stroke-opacity=".1" stroke-width="3" d="M494.72 548.886l-15.366-.169" class="Vector_32"/>
    <path fill="#000" fill-opacity=".16" fill-rule="evenodd" d="M591.085 367.429a8 8 0 014.982 10.158c-7.81 22.843-10.635 43.181-11.509 57.765-.437 7.287-.386 13.12-.231 17.089.078 1.984.181 3.5.263 4.496.04.498.076.866.099 1.097l.026.244.004.035v.007l.001.002v.002l1.077 8.945h-75.713a8 8 0 010-16h58.195c-.118-4.296-.104-10.014.307-16.875.943-15.725 3.979-37.522 12.341-61.983a8 8 0 0110.158-4.982z" class="Vector (Stroke)" clip-rule="evenodd"/>
    <path fill="#FFF1BD" fill-rule="evenodd" d="M542.093 416.048h6.521l1.073-4.001 19.657 1.199s.44 1.171 1.057 3.133a226.802 226.802 0 00-1.815 18.014c-.411 6.861-.425 12.579-.307 16.875h-58.195a8 8 0 00-6.035 13.252c-.467 2.667 0 6.129.544 10.154.483 3.579 1.027 7.605 1.027 11.914l-52.585-19.447s-.481-22.564 4.321-30.725c4.801-8.161 24.175-20.575 48.264-16.084 6.631 1.237 9.934-2.099 11.553-6.223l24.92 1.939z" class="Subtract_2" clip-rule="evenodd"/>
    <path fill="#26B5B3" fill-rule="evenodd" d="M492.176 551.934l1.281 1.31a1.5 1.5 0 01-2.145 2.098l-4.939-5.05-3.848-.042c-11.597 5.669-21.824 12.739-20.045 15.329 2.886 4.2 38.559-6.948 38.559-6.948s-.779-10.672-3.165-11.047l-1.044 1.957s-.706 2.945-4.654 2.393z" class="Subtract_3" clip-rule="evenodd"/>
    <path fill="#E42963" fill-rule="evenodd" d="M538.885 314.985a31.458 31.458 0 0011.292-4.431l1.617 11.632c-.277 2.76-1.55 3.422-3.45 4.41l-.161.083c-3.304 1.721-8.402-.969-8.402-.969l-.896-10.725z" class="Subtract_4" clip-rule="evenodd"/>
    <path fill="#000" fill-opacity=".25" fill-rule="evenodd" d="M604.176 181.074h10.17v23.449h-10.17v-23.449zm0 49.004h10.17v55.811h-10.17v-55.811zm12.858 0h10.17v55.811h-10.17v-55.811zm23.029 18.531h-10.17v37.279h10.17v-37.279zm2.688 0h10.17v37.279h-10.17v-37.279zm23.029 13.832h-10.17v23.449h10.17v-23.449zm-38.576-81.367h-10.17v23.449h10.17v-23.449zm2.689 0h10.17v23.449h-10.17v-23.449zm23.028 0h-10.17v23.449h10.17v-23.449zm2.689 0h10.17v23.449h-10.17v-23.449zm65.213 40.504h-10.17v23.448h10.17v-23.448zm3.584 0h10.17v23.448h-10.17v-23.448zm-6.509 81.367h-7.246v25.699h7.246v-25.699zm2.689 0h7.246v25.699h-7.246v-25.699zm-16.208 45.614h-7.246v43.814h7.246v-43.814zm2.688 0h7.246v43.814h-7.246v-43.814zm17.18 0h-7.246v43.814h7.246v-43.814zm2.688 0h7.246v43.814h-7.246v-43.814zm-2.803 83.957h-4.236v25.698h4.236v-25.698zm2.121 0h4.236v25.698h-4.236v-25.698zm-14.835 0h-4.236v25.698h4.236v-25.698zm2.121 0h4.236v25.698h-4.236v-25.698zm-14.834 0h-4.236v25.698h4.236v-25.698zm2.12 0h4.236v25.698h-4.236v-25.698zm-14.835 0h-4.236v25.698h4.236v-25.698zm2.121 0h4.236v25.698h-4.236v-25.698zm-14.835 0h-4.236v25.698h4.236v-25.698zm2.121 0h4.236v25.698h-4.236v-25.698zm-14.835 0h-4.236v25.698h4.236v-25.698zm2.121 0h4.236v25.698h-4.236v-25.698zm-14.835 0h-4.236v25.698h4.236v-25.698zm2.121 0h4.236v25.698h-4.236v-25.698z" class="Union" clip-rule="evenodd"/>
    <path fill="#FDF2D8" d="M611.584 51.165a7.408 7.408 0 100-14.817 7.408 7.408 0 000 14.817z" class="Vector_33"/>
    <path fill="#343C6E" fill-rule="evenodd" d="M558.592 62.65l-14.256 14.256-.063.036-20.05-1.932a20.183 20.183 0 0122.074-18.175 20.187 20.187 0 0112.295 5.816zm15.68 90.612h183.749v337.421H574.272v-23.438h-64.241a8 8 0 010-16h58.196c-.119-4.296-.105-10.014.306-16.875.635-10.589 2.219-23.931 5.739-38.986V153.262zm8.014 328.045v-14.062h3.458l-1.077-8.945v-.004l-.001-.008-.004-.034-.008-.074a55.328 55.328 0 01-.117-1.267c-.082-.997-.185-2.512-.263-4.496-.155-3.969-.206-9.802.231-17.089.874-14.584 3.699-34.922 11.509-57.765a8 8 0 00-4.982-10.158 8.005 8.005 0 00-8.746 2.459V162.641h167.721v318.666H582.286zM736.905 209.75h-141.52v-4h141.52v4zm-141.52 81.363h141.52v-4h-141.52v4zm141.521 4.485h-141.52v-4h141.52v4zm.003 106.84H595.388v-4h141.521v4zm-71.128-151.825h71.125v-4h-71.125v4zm71.126 83.614h-141.52v-4h141.52v4zm-141.519 63.73h141.52v-4h-141.52v4zm141.522 65.934H595.389v-4H736.91v4zM69.534 413.078h36.342c28.447-29.767 61.656-72.113 53.132-112.939-13.374-64.051-13.374-92.91 0-121.065-5.151 5.262-10.488 10.45-15.772 15.588-28.411 27.621-55.332 53.793-44.056 82.25 11.209 28.292 2.645 44.101-6.891 61.705-4.807 8.874-9.862 18.204-12.755 29.819-2.195-6.708-2.78-13.824.807-22.874 4.404-11.115-4.834-19.319-16.603-29.772-3.877-3.444-8.029-7.131-12.059-11.247 5.37 11.306 2.576 23.698-2.204 44.896v.001c-1.114 4.938-2.335 10.353-3.586 16.344-3.534 16.926 10.003 33.798 23.645 47.294zm114.446-42.776c1.921 16.963 5.6 35.839 12.14 53.112.392 3.672.67 7.121.862 10.319.411 6.861.425 12.579.307 16.875h58.196a8 8 0 010 16h-75.714l1.077-8.945v-.002l.001-.002v-.007l.004-.034.014-.127.012-.117c.023-.232.059-.6.099-1.098.082-.996.185-2.512.263-4.496.155-3.969.206-9.802-.231-17.089-.874-14.585-3.699-34.922-11.509-57.765a8 8 0 0114.479-6.624zm60.507-141.097l17.703 9.695 11.649-8.96c4.181 5.227 15.143 13.531 25.538 4.928 12.993-10.752-51.525-47.939-56.901-28.674-7.371-8.477-17.167-1.129-18.416 6.932l-.116-.028s-13.018 24.158-7.393 35.435c.693 1.389 3.777 1.548 7.014 1.713 2.637.136 5.376.276 7.007 1.092-3.842-16.091 1.364-24.036 13.915-22.133zm4.24 13.094a.639.639 0 01-1.275-.037c.072-2.493-.343-5.904-1.724-8.172-1.702-2.792-4.652-2.771-7.376-1.466-2.473 1.185-3.86 2.859-4.52 4.671-.666 1.827-.612 3.851-.094 5.743.519 1.893 1.491 3.609 2.6 4.802 1.135 1.22 2.289 1.767 3.175 1.646 1.088-.149 1.898-.54 2.472-1.071.575-.531.948-1.232 1.113-2.057.333-1.667-.189-3.832-1.626-5.889a.637.637 0 111.045-.731c1.575 2.255 2.251 4.77 1.831 6.87-.211 1.057-.703 2.01-1.497 2.744-.795.734-1.859 1.219-3.166 1.397-1.508.206-3.048-.717-4.28-2.041-1.258-1.352-2.327-3.254-2.896-5.334-.571-2.081-.652-4.383.124-6.515.961-2.405 4.348-6.917 10.218-5.725 5.869 1.192 6.362 7.94 5.876 11.165zm39.791 4.836a.637.637 0 01-.896.1c-1.846-1.477-4.759-1.536-7.842-.866-3.043.662-6.047 1.99-7.875 3.01l-.622-1.113c1.91-1.066 5.032-2.449 8.226-3.143 3.152-.685 6.583-.744 8.91 1.116.275.22.319.621.099.896zm-8.991 8.157c1.653-1.873 2.546-3.785 1.995-4.271-.55-.486-2.337.638-3.99 2.51-1.653 1.873-2.546 3.785-1.996 4.271.551.486 2.338-.638 3.991-2.51zm-15.97 15.453a.637.637 0 10-1.194.448c.637 1.697 2.173 3.99 4.74 5.426 2.594 1.452 6.174 1.991 10.796.268a.638.638 0 10-.445-1.195c-4.308 1.606-7.494 1.065-9.729-.185-2.262-1.267-3.619-3.299-4.168-4.762zm307.524 21.798l-40.176 9.588-10.762-30.556c-4.252 3.694-23.109 7.432-23.109 7.432s-1.501-7.263 4.331-17.039c15.277-25.603 50.679-18.041 51.305-11.214 8.975-7.173 22.788 34.618 18.411 41.789zm-66.614-9.435c1.854-.999 4.456-.498 7.036.65a.537.537 0 00.436-.981c-2.62-1.166-5.65-1.869-7.981-.614a.536.536 0 10.509.945zm5.373 10.917c.598-.157.65-1.932.116-3.964-.535-2.033-1.452-3.553-2.05-3.396-.598.157-.649 1.932-.115 3.964.534 2.033 1.452 3.553 2.049 3.396zm12.3 10.852a.536.536 0 10-.92-.551c-.675 1.128-2.105 2.605-4.17 3.311-2.038.697-4.757.663-8.079-1.318a.536.536 0 10-.55.921c3.565 2.126 6.61 2.222 8.977 1.412 2.341-.801 3.959-2.466 4.742-3.775zM450.176 411.71c-.269-.045-.416-.074-.416-.074s-2.255-6.724 3.859-12.001c6.102-5.267 17.712-3.629 22.26-2.012l29.475-9.915-.169-.083 12.889-25.958-5.158-1.962 9.684-25.464c2.43-6.389 8.401-10.393 14.829-10.628-6.855 3.388-11.102 10.974-12.521 15.308-.437 1.336-.875 2.644-1.309 3.943l-.003.007-.002.006-.002.007-.001.001c-3.522 10.525-6.861 20.497-8.367 40.286-.54 7.091.09 12.285 1.216 16.076l-1.535.393-2.041.522-32.841 1.25c-4.632-2.425-14.877-5.594-21.469-1.802-5.437 3.128-7.658 9.438-8.378 12.1z" class="Primary" clip-rule="evenodd"/>
    <path fill="#00A8A6" fill-rule="evenodd" d="M539.532 322.74c-8.093 2.731-13.066 11.419-14.624 16.18-.44 1.343-.88 2.658-1.317 3.964-3.523 10.525-6.861 20.497-8.367 40.286-.578 7.584.182 12.997 1.456 16.846l18.827-.716 6.407-23.886 16.85 2.799-8.46 31.538-8.21-2.202 8.21 2.202-1.689 6.298h-6.521l-8.893-.692c8.139 4.724 19.962 9.846 28.436 6.108a147.234 147.234 0 013.833-1.612h.001c1.827-.748 3.393-1.388 4.743-2.113a239.172 239.172 0 019.67-42.209c-.028-7.994-.893-16.247-3.737-24.662-5.323-15.744-15.09-24.811-24.483-27.832-.44 2.061-1.633 2.681-3.321 3.559l-.161.083c-3.304 1.721-8.402-.969-8.402-.969l-.248-2.97z" class="Subtract_5" clip-rule="evenodd"/>
    <path fill="#E42963" d="M538.983 347.312c1.494-8.99 9.992-15.067 18.982-13.573 8.989 1.493 15.065 9.991 13.573 18.98l-32.555-5.407zm32.555 5.407l-4.464 26.875-32.554-5.408 4.463-26.874 32.555 5.407z" class="Vector_34"/>
    <path fill="#FAE3AD" fill-rule="evenodd" d="M625.438 58.034a2.892 2.892 0 00-4.664 3.417c28.271 38.58 19.912 92.772-18.667 121.041a2.891 2.891 0 103.418 4.664c41.154-30.157 50.07-87.967 19.913-129.122zm-113.17 63.234a4.021 4.021 0 11-8.043 0 4.021 4.021 0 018.043 0zm4.971-3.662h55.283c.354 0 .642.287.642.642v6.245a.643.643 0 01-.642.643h-55.283a.643.643 0 01-.643-.643v-6.245c0-.355.288-.642.643-.642zm0 14.39h68.895c.355 0 .642.288.642.643v6.245a.641.641 0 01-.642.642h-68.895a.642.642 0 01-.643-.642v-6.245c0-.355.288-.643.643-.643zm-8.993 7.945a4.02 4.02 0 100-8.041 4.02 4.02 0 000 8.041z" class="Union_2" clip-rule="evenodd"/>
    <path fill="#24B4B2" fill-rule="evenodd" d="M559.921 89.73a20.184 20.184 0 004.582-12.805h-20.186l.035-.035-.147.026 3.035 19.982a20.186 20.186 0 0012.681-7.167z" class="Vector_35" clip-rule="evenodd"/>
    <path fill="#000" fill-opacity=".16" d="M237.037 272.135c1.764 2.28 6.83 4.75 9.142 5.7l-2.581 5.485c-2.667-.947-5.485-7.851-6.561-11.185z" class="Vector 2"/>
    <path fill="#000" fill-opacity=".29" fill-rule="evenodd" d="M546.2 312.706a31.45 31.45 0 01-7.315 2.28l.327 3.917c2.442-1.531 6.441-4.393 6.988-6.197z" class="Intersect" clip-rule="evenodd"/>
    <path fill="#000" fill-opacity=".2" d="M558.773 378.237l-16.871-2.83 15.356 8.248 1.515-5.418z" class="Vector 3"/>
    <path fill="#00A8A6" fill-rule="evenodd" d="M24.852 90.741l-.965-.847.138 1.277C30.51 151.165 45.9 204.208 60.552 254.704c2.26 7.789 4.502 15.518 6.691 23.202 12.958 45.477 24.061 89.399 26.02 135.172h1c-1.959-45.921-13.095-89.949-26.058-135.446a5030.194 5030.194 0 00-6.695-23.215C46.963 204.278 31.714 151.72 25.159 92.345c53.862 47.641 79.611 101.509 87.52 161.036 6.567 49.422.839 102.76-11.339 159.697h1.023c12.16-56.917 17.887-110.312 11.308-159.828-7.988-60.117-34.112-114.495-88.82-162.509z" class="Subtract_6" clip-rule="evenodd"/>
    <path stroke="#00A8A6" d="M62.37 161.364c25.727 46.88 41.972 95.575 36.39 189.604" class="Vector_36"/>
    <path fill="#000" fill-opacity=".1" d="M310.393 408.203l1.473-18.281c1.319 6.585 3.807 19.756 3.206 19.756s-3.37-.983-4.679-1.475z" class="Vector 2_2"/>
  </g>
</svg>
