<svg xmlns="http://www.w3.org/2000/svg" width="801" height="601" fill="none" viewBox="0 0 801 601">
  <g class="tech_illustration_two_one">
    <path fill="#fff" d="M0 0h800v600H0z"/>
    <g class="Group 6">
      <g class="Group">
        <path fill="#151515" d="M800 0H0v600h800V0z" class="Vector"/>
      </g>
      <g class="Group 6_2">
        <g class="Group 5">
          <path stroke="#fff" stroke-miterlimit="10" d="M0 184.148h800.5" class="Vector_2"/>
          <path stroke="#fff" stroke-miterlimit="10" d="M800.5 379.347H0" class="Vector_3"/>
        </g>
        <g class="Group 5.1">
          <path stroke="#fff" stroke-miterlimit="10" d="M0 220.653h800.5" class="Vector_4"/>
          <path stroke="#fff" stroke-miterlimit="10" d="M800.5 415.852H0" class="Vector_5"/>
        </g>
      </g>
    </g>
    <path fill="#C10303" fill-rule="evenodd" d="M82.3 60.6c-17.728 0-32.1 14.371-32.1 32.1 0 11.077 5.612 20.844 14.147 26.613V100.2c0-9.5 7.7-17.2 17.2-17.2h31.362C108.797 70.013 96.648 60.6 82.3 60.6zM132.481 83h578.766c9.5 0 17.2 7.7 17.2 17.2v364.6c0 9.5-7.7 17.2-17.2 17.2h-629.7c-9.5 0-17.2-7.7-17.2-17.2V140.557C44.982 133.289 31.2 114.604 31.2 92.7c0-28.222 22.878-51.1 51.1-51.1 24.905 0 45.649 17.817 50.181 41.4z" class="Primary" clip-rule="evenodd"/>
    <g class="Group 3">
      <path fill="#7083FE" d="M388.306 507.992c3.7 1.5 5.4 5.7 3.9 9.4l-16.8 40.5c-1.5 3.7-5.7 5.4-9.4 3.9-3.7-1.5-5.4-5.7-3.9-9.4l16.8-40.5c1.5-3.7 5.7-5.4 9.4-3.9z" class="Vector_6"/>
      <path fill="#7083FE" d="M404.007 545.992c-1.4 3.4-5.3 5-8.7 3.6l-41.5-17.2c-3.4-1.4-5-5.3-3.6-8.7 1.4-3.4 5.3-5 8.7-3.6l41.5 17.2c3.4 1.5 5 5.4 3.6 8.7z" class="Vector_7"/>
    </g>
    <path fill="#151515" fill-opacity=".2" fill-rule="evenodd" d="M123.777 393.699l-16.397 6.19c-13.552 5.187-20.411 20.412-15.225 33.964l10.068 26.537-26.632 10.104c-13.552 5.187-20.411 20.412-15.225 33.964l6.19 16.396c5.187 13.552 20.413 20.412 33.965 15.225l26.592-10.089 10.049 26.485c5.186 13.553 20.411 20.412 33.963 15.226l16.397-6.191c13.552-5.186 20.411-20.412 15.225-33.964l-10.034-26.445 26.43-10.028c13.552-5.186 20.412-20.412 15.225-33.964l-6.19-16.396a26.289 26.289 0 00-33.964-15.225l-26.39 10.012-10.083-26.576c-5.187-13.552-20.412-20.412-33.964-15.225z" class="Union" clip-rule="evenodd" opacity=".89"/>
    <path fill="#000" fill-opacity=".23" fill-rule="evenodd" d="M50.2 92.7c0-17.729 14.372-32.1 32.1-32.1 14.348 0 26.497 9.413 30.609 22.4h19.572c-4.532-23.583-25.276-41.4-50.18-41.4-28.223 0-51.1 22.878-51.1 51.1 0 21.904 13.78 40.589 33.146 47.857v-21.244C55.812 113.544 50.2 103.777 50.2 92.7z" class="Subtract" clip-rule="evenodd"/>
    <path stroke="#F2CB05" stroke-width="1.076" d="M170.1 107.4v364.8" class="Vector_8"/>
    <path stroke="#283959" stroke-linecap="round" stroke-width="1.076" d="M708 103.1l-9 9" class="Vector_9"/>
    <path stroke="#4F121D" d="M182.9 154.4H699" class="Vector_10"/>
    <path fill="#000" fill-opacity=".54" d="M350.4 460.7h-108v20.6h108v-20.6z" class="Vector_11"/>
    <path fill="#000" fill-opacity=".54" d="M492.2 460.7h-108v20.6h108v-20.6z" class="Vector_12"/>
    <path fill="#000" fill-opacity=".54" d="M633.9 460.7h-108v20.6h108v-20.6z" class="Vector_13"/>
    <path fill="#192439" fill-rule="evenodd" d="M671.4 102.262h-.538v10.476h11.476v-10.476H671.4zm.538 9.4v-8.324h9.324v8.324h-9.324zm27.443-8.943a.54.54 0 00-.762.761l9 9a.54.54 0 00.762-.761l-9-9zm-56.519 4.682c0-.298.241-.539.538-.539h10.8a.538.538 0 010 1.077h-10.8a.538.538 0 01-.538-.538zm45.438 17.698H193.7c-8.1 0-14.7 6.5-14.6 14.6 0 8 6.5 14.6 14.6 14.6h494.6c8 0 14.6-6.5 14.6-14.6 0-8-6.5-14.6-14.6-14.6zm-594 92.099H158v2.1H94.3v-2.1zm63.7 5.3H94.3v2.1H158v-2.1zm-63.7 5.3H158v2.1H94.3v-2.1zm63.7 14.801H94.3v2.1H158v-2.1zm-63.7 5.3H158v2.1H94.3v-2.1zm63.7 5.299H94.3v2.1H158v-2.1zm-63.7 14.8H158v2.1H94.3v-2.1zm63.7 5.3H94.3v2.1H158v-2.1zm-63.7 5.301H158v2.1H94.3v-2.1zm63.7 14.8H94.3v2.1H158v-2.1zm-63.7 5.299H158v2.1H94.3v-2.1zm63.7 5.3H94.3v2.1H158v-2.1zm-63.7 14.8H158v2.1H94.3v-2.1zm63.7 5.301H94.3v2.1H158v-2.1zm-63.7 5.3H158v2.1H94.3v-2.1zm63.7 14.799H94.3v2.1H158v-2.1zm-63.7 5.3H158v2.1H94.3v-2.1zm63.7 5.3H94.3v2.1H158v-2.1zm-63.7 14.801H158v2.1H94.3v-2.1zm63.7 5.3H94.3v2.1H158v-2.1zm-63.7 5.299H158v2.1H94.3v-2.1zm65.5 12H94.6v64.9h65.2v-64.9zm-65.2-252.5h65.2v64.9H94.6v-64.9zm109.1 186.773c0-14.23 11.6-25.673 25.8-25.673h422.9c14.3 0 25.8 11.543 25.8 25.673v155.528h-44.3v-21.3h-108v21.3h-33.7v-21.3h-108v21.3h-33.8v-21.3h-108v21.3h-38.7V326.471zm38.7 8.128h108v73h-108v-73zm141.8 0h108v73h-108v-73zm249.7 0h-108v73h108v-73zM242.4 417.9h108v8.2h-108v-8.2zm141.8 0h108v8.2h-108v-8.2zm249.7 0h-108v8.2h108v-8.2zm-391.5 12.298h108v8.2h-108v-8.2zm249.8 0h-108v8.2h108v-8.2zm33.7 0h108v8.2h-108v-8.2zM124.7 102.801H94.3v4.5h30.4v-4.5zm-8.5 7.5H94.3v4.5h21.9v-4.5zm-21.9 7.4h26.9v4.5H94.3v-4.5zM263.099 199.4h-65.4c-2.2 0-4 1.8-4 4v65.4c0 2.2 1.8 4 4 4h65.4c2.2 0 4-1.8 4-4v-65.4c0-2.2-1.8-4-4-4zm-16.674 35.616c1.442-8.887-4.592-17.259-13.478-18.701-8.887-1.443-17.259 4.592-18.701 13.478-1.106 6.81 2.18 13.319 7.776 16.637-12.666 2.607-21.923 11.05-21.923 21.07 0 1.799.3 3.599.9 5.299h58.6c.6-1.7.9-3.5.9-5.299 0-10.008-9.234-18.442-21.875-21.06a16.266 16.266 0 007.801-11.424zM365.999 199.4h-65.3c-2.2 0-4 1.8-4.1 4v65.4c0 2.2 1.8 4 4 4h65.4c2.2 0 4-1.8 4-4v-65.4c0-2.2-1.8-4-4-4zm-16.3 33c0 5.984-3.225 11.215-8.031 14.049 12.619 2.629 21.831 11.055 21.831 21.051 0 1.8-.3 3.6-.9 5.3h-58.6c-.6-1.7-.9-3.5-.9-5.3 0-10.035 9.285-18.488 21.98-21.081-4.778-2.842-7.98-8.057-7.98-14.019 0-9.003 7.298-16.3 16.3-16.3s16.3 7.297 16.3 16.3zm53.9-33h65.4c2.2 0 4 1.8 4 4v65.4c0 2.2-1.8 4-4 4h-65.4c-2.2 0-4-1.8-4-4v-65.4c.1-2.2 1.8-4 4-4zm40.995 47.034c4.792-2.838 8.005-8.061 8.005-14.034 0-9.003-7.298-16.3-16.3-16.3s-16.3 7.297-16.3 16.3c0 5.973 3.213 11.196 8.005 14.034-12.656 2.611-21.905 11.051-21.905 21.066 0 1.8.3 3.6.9 5.3h58.6c.6-1.7.9-3.5.9-5.3 0-10.016-9.248-18.455-21.905-21.066zM572.499 199.4h-65.4c-2.2 0-4 1.8-4 4v65.4c0 2.2 1.8 4 4 4h65.4c2.2 0 4-1.8 4-4v-65.4c0-2.2-1.8-4-4-4zm-16.4 33c0 5.973-3.213 11.196-8.005 14.034 12.657 2.611 21.905 11.05 21.905 21.066 0 1.8-.4 3.6-.9 5.3h-58.6c-.6-1.7-.9-3.5-.9-5.3 0-10.015 9.249-18.455 21.905-21.066-4.792-2.838-8.005-8.061-8.005-14.034 0-9.003 7.298-16.3 16.3-16.3s16.3 7.297 16.3 16.3zm-362.4 44.401h42.4v5.8h-42.4v-5.8zm103 0h42.4v5.8h-42.4v-5.8zm145.4 0h-42.4v5.8h42.4v-5.8zm61 0h42.4v5.8h-42.4v-5.8zm144.9 0h-42.4v5.8h42.4v-5.8zm27-77.401h-65.4c-2.2 0-4 1.8-4 4v65.4c0 2.2 1.8 4 4 4h65.4c2.2 0 4-1.8 4-4v-65.4c0-2.2-1.8-4-4-4zm-16.4 33c0 5.973-3.213 11.196-8.005 14.034 12.657 2.611 21.905 11.05 21.905 21.066 0 1.8-.3 3.6-.9 5.3h-58.6c-.6-1.7-.9-3.5-.9-5.3 0-10.015 9.249-18.455 21.905-21.066-4.792-2.838-8.005-8.061-8.005-14.034 0-9.003 7.298-16.3 16.3-16.3s16.3 7.297 16.3 16.3z" class="Secondary" clip-rule="evenodd"/>
    <path stroke="#121A2A" d="M230.9 449.2H651" class="Vector_14"/>
    <path stroke="#283959" stroke-opacity=".5" stroke-width="6.725" d="M296.4 385.8c8.119 0 14.7-6.581 14.7-14.7 0-8.118-6.581-14.7-14.7-14.7-8.118 0-14.7 6.582-14.7 14.7 0 8.119 6.582 14.7 14.7 14.7z" class="Vector_15"/>
    <path stroke="#283959" stroke-opacity=".5" stroke-width="6.725" d="M579.9 385.9c8.119 0 14.7-6.581 14.7-14.7s-6.581-14.7-14.7-14.7c-8.118 0-14.7 6.581-14.7 14.7s6.582 14.7 14.7 14.7z" class="Vector_16"/>
    <path stroke="#283959" stroke-opacity=".5" stroke-width="6.725" d="M438.2 385.8c8.119 0 14.7-6.581 14.7-14.7 0-8.118-6.581-14.7-14.7-14.7s-14.7 6.582-14.7 14.7c0 8.119 6.581 14.7 14.7 14.7z" class="Vector_17"/>
    <path fill="#15D8B4" fill-rule="evenodd" d="M303.5 370.501c.5.3.5 1 0 1.2l-10.1 5.8c-.5.3-1.1-.1-1.1-.6v-11.6c0-.5.6-.9 1.1-.6l10.1 5.8zm283.5 0c.5.3.5 1 0 1.2l-10.1 5.8c-.5.3-1.1-.1-1.1-.6v-11.6c0-.5.6-.9 1.1-.6l10.1 5.8zm-141.7 1.2c.5-.2.5-.9 0-1.2l-10.1-5.8c-.5-.3-1.1.1-1.1.6v11.6c0 .5.6.9 1.1.6l10.1-5.8z" class="Union_2" clip-rule="evenodd"/>
    <path fill="#222" fill-rule="evenodd" d="M176.7 481.4a2 2 0 012-2h524.4a2 2 0 010 4H178.7a2 2 0 01-2-2z" class="Vector (Stroke)" clip-rule="evenodd"/>
    <path fill="#000" fill-opacity=".31" fill-rule="evenodd" d="M284.021 168.777h-85.272v8.322h85.272v-8.322zm214.149 0h85.272v8.322H498.17v-8.322zm99.807 0h85.272v8.322h-85.272v-8.322zm-299.421 0h85.272v8.322h-85.272v-8.322zm185.079 0h-85.272v8.322h85.272v-8.322z" class="Union_3" clip-rule="evenodd"/>
    <g class="Group 4">
      <path fill="#15D8B4" d="M89.561 422.04l14.081-5.316c11.638-4.454 24.712 1.436 29.166 13.074l38.649 101.867c4.454 11.638-1.436 24.713-13.074 29.167l-14.081 5.316c-11.637 4.454-24.712-1.437-29.166-13.075l-38.65-101.867c-4.453-11.638 1.438-24.712 13.075-29.166z" class="Vector_18" opacity=".7"/>
      <path fill="#15D8B4" d="M193.296 457.097l5.316 14.08c4.454 11.638-1.437 24.713-13.075 29.167L83.67 538.993c-11.637 4.454-24.712-1.437-29.166-13.075l-5.316-14.08c-4.454-11.638 1.437-24.712 13.075-29.166l101.867-38.65a22.575 22.575 0 0129.166 13.075z" class="Vector_19" opacity=".89"/>
    </g>
    <g class="element up">
      <path fill="#151515" fill-opacity=".2" d="M525.63 40.338l41.797 20.954c4.459 2.23 6.242 7.58 4.013 11.926l-20.954 41.797c-2.23 4.459-7.58 6.242-11.927 4.013l-41.797-20.955c-4.458-2.229-6.241-7.579-4.012-11.926l20.954-41.797c2.229-4.458 7.579-6.242 11.926-4.012z" class="Vector_20" opacity=".89"/>
      <path fill="#7083FE" d="M521.5 28.6L559 47.4c4 2 5.6 6.8 3.6 10.7l-18.8 37.5c-2 4-6.8 5.6-10.7 3.6l-37.5-18.8c-4-2-5.6-6.8-3.6-10.7l18.8-37.5c2-4 6.8-5.6 10.7-3.6z" class="Vector_21"/>
    </g>
    <g class="man">
      <g class="man_2">
        <g class="man_3">
          <g class="man_4">
            <path fill="#543E36" d="M671.853 223.7c-7.1 38.4-15.5 58.6-32.1 68.6-.3.2-.5.3-.8.5-1.1.6-2.2 1.2-3.4 1.8-9.8 4.6-22.2 6.4-38.3 6.7h-5.4c-10.2 0-20.6-1.6-30.8-4.4-21-5.9-40.8-17.2-55.2-31-.4-.3-.7-.7-1.1-1l-.8-.8c-.3-.2-.5-.5-.7-.7l-.2-.2c-.4-.4-.8-.8-1.2-1.3-.7-.7-1.4-1.5-2-2.2-2.1-2.4-4-4.8-5.7-7.2-2.3-3.2-4.3-6.5-5.9-9.9-1.7-3.5-3.1-7-4-10.6-1-3.7-1.5-7.3-1.5-11 0-2.5.2-4.9.5-7.4 1.5-10.7 6-21.1 13-30.3 9.6-12.7 23.7-23.1 40.5-29.1 12.4-4.4 26.2-3.6 40.9-3.6 52.5-.1 94.2 34.2 94.2 73.1z" class="Vector_22"/>
            <path fill="#543E36" d="M475.853 337.7c-3.6-28.5 5.3-69.1 2.4-104.1-.3-3.8 2.4-7.2 2.9-10.7.9-5.6 2.2-8.7 3.1-13.2l117.4 30.6c-.9 28.5-9.656 97.537-17.456 103.637-6 4.7-68.044 23.863-94.244 23.863-5.8 0-18.5-5.9-17.8-14.7.2-2.1.9-4 1.9-5.7 1.6-3 2.3-6.4 1.8-9.7z" class="Vector_23"/>
            <path fill="#543E36" d="M647.853 397.6c-16.7-15.6-12.8-89.1-5.9-123.8h-69.5l-39.5 80.5s-.4 8.7 0 18c.4 11.2 6.6 20.9 5.5 30-1.5 13-1.1 28.8-3.5 31.8l112.9-36.5z" class="Vector_24"/>
            <path fill="#543E36" d="M456.87 280.6s10.2-9.7 15-17.2c6.6-10.4 9.445-15.754 9.445-15.754l8.382 61.327-25.027-9.573c-8.7-1.6-12.8-11.6-7.8-18.8z" class="Vector_25"/>
            <path fill="#543E36" d="M486.053 325.6c-2.2-.4-5.3-.9-8.5-1.6-2.6-.6-5.2-1.2-7.4-1.8-.2-.1-.3-.1-.5-.2s-.4-.1-.7-.2c-1.6-.5-2.8-1.1-3.6-1.6-4.5-2.5-1.1-11.1.6-11.4 2 .1 3.2-4.3 2.7-6.9-.3-1.4.9-2.3.9-2.3l8.9 4.3.8.4 5.7 2.8.8 12.9.3 5.6z" class="Vector_26"/>
            <path fill="#543E36" d="M488.153 319.4l-15.7 32.3c.3-3.3.8-6.9.4-8.1-.7-1.8-1.2-4.3-4.4-6.3-4.5-2.8-8.5-6.7-3-14.2.3-.4.7-.6 1.3-.9.1 0 .3-.1.4-.2 0 0 .1 0 .2-.1 1.9-.7 4.7-1.2 7.8-1.5.5 0 .9-.1 1.4-.1 2.3-.2 4.6-.3 6.7-.5 1.8 0 3.5-.2 4.9-.4z" class="Vector_27"/>
            <path fill="#192439" fill-rule="evenodd" d="M671.854 223.7c-7.1 38.4-15.501 58.6-32.101 68.6-.3.2-.5.3-.8.5 0 .3-.099.6-.099.9-.1.7-.2 1.3-.2 2l-3.1-1.1-32.801 1.1c.8-3.6 7.701-38-17.199-42.5-24.5-4.4-27.101 26.4-27.101 26.4l-18.399-7.6s2.8-28-15.7-33.9l6.3-16.4 6.2-16.2-40.5-22.3c9.6-12.7 23.7-23.1 40.5-29.1 12.4-4.4 26.199-3.6 40.899-3.6 52.4 0 94.101 34.3 94.101 73.2z" class="Vector_28" clip-rule="evenodd"/>
            <path fill="#090E17" fill-opacity=".2" d="M638.731 365.681L536.629 389.4l-.73-2.406s88.241-24.028 100.66-29.255c.229 6.713 2.172 7.942 2.172 7.942z" class="Vector 3"/>
            <g class="Group_2">
              <path fill="#192439" d="M710.153 474c-4.8-14.4-42.7-57.1-62-77.8-40.7 12-120 27.4-120 27.4-41.3 52.4-49.1 83.8-67.7 176.6h255c.1 0-.5-111.8-5.3-126.2z" class="Vector_29"/>
              <path fill="#192439" d="M524.553 397.1c.6-3.7 3.3-6.8 7-7.7l109.8-28.9c2.9-.9 5.7 1.5 5.4 4.5-.4 4.4-.8 10.2-.1 14.8 1.2 8.4 8.4 16.1 7.3 22-1.1 5.9-134.8 33.6-134.8 33.6l5.4-38.3z" class="Vector_30"/>
              <path stroke="#7083FE" stroke-linecap="round" d="M619.077 361.882l23.436-5.163c3.327-1.032 6.539 1.721 6.195 5.163-.459 5.047-.918 11.701-.114 16.978 1.376 9.636 9.636 18.47 8.374 25.238-.28 1.502-20.258 0-105.241 20.523" class="Vector_31"/>
            </g>
            <path fill="#2A2A2A" fill-opacity=".5" d="M483.453 240.7s-2.3-10.2 3-9.2 18.7 2.1 24 6.6c5.3 4.5 5.7 10.5 5.7 10.5s-7.2-1.7-11.7-4.3c-5.2-2.9-20.4-.2-21-3.6z" class="Vector_32"/>
            <path stroke="#7083FE" stroke-linecap="round" d="M534.747 388.513c-1.978 0-7.768 1.41-9.429 7.048-1.662 5.638-3.957 27.183-4.896 37.251" class="Vector 3_2"/>
            <path fill="#493630" d="M474.37 284.601c-.2.9 4.9 2.5 7.2 4.2 4.2 3.1 5.5 8.4-5.8 13.2 0 0 7.5-1.2 10.1-4.5 2.6-3.3.6-12.1-11.5-12.9z" class="Vector_33"/>
            <g class="Group_3">
              <path fill="#44322D" d="M490.653 258.201c-10 5.6 3 29.7 3 29.7s-.4-9.6-1.5-16.7c-.5-2.8-1.8-6.6-1.5-13z" class="Vector_34" opacity=".5"/>
              <g class="Group_4">
                <path fill="#493630" d="M496.753 251.4c-2.7-1.2-6 4.1-6 4.1s2.7 8.2 2.8 10c.1 2.5-4.3 4.9-4.3 4.9s.7.9 1.5 1.9c1.5 2 4.3 2.5 6.4 1.1l11.6-8s-.1-5.5-3.6-9.3c-.8-.8-6.3-3.7-8.4-4.7z" class="Vector_35"/>
              </g>
              <path fill="#FFF5EA" d="M502.753 265.1c-3.6-2.5-12.2-9.3-12.2-9.3s3.2 4.8 3.3 7.8c.1 4-3.2 7.7-3.2 7.7s10.9-5.6 12.1-6.2z" class="Vector_36"/>
              <path fill="#30281D" d="M496.653 265.301c.7-2.7-1.6-7.4-3.4-9.6-4.4 5.9-4.5 9.2-2.7 15.8 2-1.4 5.3-3.5 6.1-6.2z" class="Vector_37"/>
              <path fill="#282218" d="M491.753 258.4c2.2 3.7 2 8-1.8 9.8-.7-1.5-1.2-5.6 1.8-9.8z" class="Vector_38"/>
              <path fill="#493630" d="M493.453 252.8c-1.4 1-4 3.1-4 5.3l13.3 6.9.4-2.1-9.7-10.1z" class="Vector_39"/>
              <path fill="#493630" d="M490.053 271.901s-1.7-2.6-1.2-2.5c.5.1 13.9-4.3 13.9-4.3l1.6 1.2-14.3 5.6z" class="Vector_40"/>
              <g class="Group_5">
                <path fill="#282218" d="M488.353 269.1c.6-1.2 7.2-2.9 12.2-4.1-3.9-1.3-10.7-5.6-11.7-7-1.2-1.8-.7-4.7-.6-4.7.6 0 .5 2.5 1.6 4.1.7 1 7.9 5.5 13.1 7.2l2 .7-2.1.5c-6.1 1.4-12.9 3.2-13.5 4-.5.9-.7 1.7-.6 1.7.2.1-1.3-.8-.4-2.4z" class="Vector_41"/>
              </g>
              <path fill="#543E36" d="M509.753 265.601s-11.3 1.3-12.7 3.2c-1.4 1.9-2.3 6.1-2.3 6.1l6.5 1.6 8.5-10.9z" class="Vector_42"/>
            </g>
            <g class="sunglasses">
              <g class="Group 3_2">
                <g class="Group 2">
                  <path fill="#7083FE" d="M493.118 262.709c0 16.306-2.546 29.525-5.686 29.525h-5.32c-1.721-5.076-.366-18.514-.366-29.525 0-7.995-.994-24.208 0-29.525h5.686c3.14 0 5.686 13.219 5.686 29.525z" class="Ellipse 2.1"/>
                  <ellipse cx="482.334" cy="262.71" fill="#F2CB05" class="Ellipse 2" rx="5.686" ry="29.525"/>
                </g>
                <path fill="#7083FE" fill-opacity=".6" d="M585.571 247.342c-12.636-.397-96.743 3.919-96.743 3.919v15.238l95.563-9.705c5.663.991 17.383 8.376 22.844 11.976 1.598 1.053 3.765.597 4.773-1.03 1.973-3.183 1.299-7.324-1.755-9.49-6.08-4.311-16.375-10.647-24.682-10.908z" class="Vector 18"/>
              </g>
              <path fill="#F2CB05" d="M476.76 251.58c2.226.146 2.332-.83 3.465.608 0 4.396-.132 12.459-.663 9.539s-5.203-4.088-5.203-4.088-1.389-6.307 2.401-6.059z" class="Vector 3_3"/>
            </g>
            <g class="Group_6">
              <path fill="#3F2E2A" d="M586.211 273.005c-2.8-7.3-12.2-4.5-17.4-1.5l-.8 9.4c-2.1-2.2-3.5-11.9-1.7-16.8l10.1-7.9 12.5 1.1c2.7 3.7 11.7 11.5 7.3 22.7-2.3 6-12.3 16-19.9 19.6 4.6-5.8 12.8-19.3 9.9-26.6z" class="Vector_43"/>
              <path fill="#3F2E2A" d="M584.212 272.705c-3.7-5.1-10.6-6.2-15.3-3.8l.9 16.9-6.5 7.1 8 10 7.3-2.2 10.7-12c.9-4.7-1.4-10.9-5.1-16z" class="Vector_44"/>
              <path fill="#493630" d="M569.412 281.805s3.399-4.3 6.599-4.9c7.3-1.5 10.701 13.9 16.401 9.2 8.6-7.1.699-21.4-13.401-22.6-16.2-1.4-9.599 18.3-9.599 18.3z" class="Vector_45"/>
              <path fill="#493630" d="M563.312 271.705l7.6 17.8c2.3-7.3-3.8-22.3-.9-30.6-9 5.3-6.7 12.8-6.7 12.8z" class="Vector_46"/>
              <path fill="#493630" d="M596.311 263.905c-7.4-12.1-13.6-12.8-22.1-9.2-6.1 2.6-9.8 8.9-10.4 15.5l-.2 2.3c9.2-14.4 22.9-20.1 28.8-9 8.8 16.4-1 25.4-9.2 27.9-7.1 2.2-11.9-5.5-16.5-14.6-7.7 11.7-8.6 21.3 1.8 27.7 6.2 3.8 12.5-2.3 18.6-7.7 9.4-8.5 16.7-20.7 9.2-32.9z" class="Vector_47"/>
              <path fill="#fff" d="M584.666 291.939c2.26-2.03 1.727-6.307-1.189-9.552-2.916-3.245-7.112-4.23-9.371-2.2-2.26 2.03-1.727 6.307 1.189 9.552 2.916 3.246 7.112 4.23 9.371 2.2z" class="Vector_48"/>
              <path fill="#fff" d="M579.111 285.505c.9 1 .8 2.4-.2 3.3l-18.1 16.2c-1 .9-2.4.8-3.3-.2-.9-1-.8-2.4.2-3.3l18.1-16.2c.9-.9 2.4-.8 3.3.2z" class="Vector_49"/>
              <path fill="#192439" d="M580.012 281.505l2.8 3.2c.5.5.4 1.3-.1 1.8s-1.3.4-1.8-.1l-2.8-3.2c-.5-.5-.4-1.3.1-1.8.6-.5 1.4-.4 1.8.1z" class="Vector_50"/>
              <path fill="#493630" d="M573.612 287.205s-2.1-1.2 2.1-6.7c1.2-1.5-7.5-13.8-7.5-13.8-1 1.1 1.6 12-.6 15.6-2.2 3.6-1.3 7.1 1.3 9l4.7-4.1z" class="Vector_51"/>
              <path fill="#493630" d="M586.211 287.005c-1.5 1.5-5.2 7-10.1 4.5 0 0 3.3 4.4 7 4.6 7.4.4 12.4-16.6 12.4-16.6-3.5 3.4-7.8 6-9.3 7.5z" class="Vector_52"/>
            </g>
          </g>
          <path fill="#5B433B" d="M483.953 323.1c-1.2-.1-3.6-.4-6.4-.6-2.3-.2-10.6-.1-13-1.7-5.4-3.5-1.2-13.2 1.3-12v-.1c.1 0 .1 0 .1.1.7 2.7 2.5 6.2 6.3 8.2 1.7.9 3.5 1.8 5.2 2.6.5.2.9.5 1.4.7 2.2 1.1 4.1 2 5.1 2.5.2.2.2.3 0 .3z" class="Vector_53"/>
          <path fill="#5B433B" d="M479.253 326.1c.8-.6 4.7-2.9 4.7-2.9l-16.7-1.2c-.8.3-1.4.7-1.8 1.1-4.2 4.8-2.8 9-.4 11.6 0-.1 10.9-6.1 14.2-8.6z" class="Vector_54"/>
          <path fill="#192439" d="M553.332 347.117l-43.129 18.484c6.546 0 41.166-9.377 46.402-14.44 2.822-2.73 6.225-14.697 7.701-20.217l-10.974 16.173z" class="Vector 2"/>
        </g>
        <path fill="#47F4FF" fill-opacity=".2" fill-rule="evenodd" d="M560.986 309.912c-12.668 36.251-40.266 103.822-49.969 105.116l-.001-.004-.251.181c-12.774 8.996-36.401-2.556-52.773-25.802s-19.288-49.384-6.514-58.38c2.282-1.607 4.91-2.558 7.781-2.905 12.385-4.406 38.76-13.652 54.588-18.206 21.068-6.063 41.312-9.736 41.312-9.736s3.468 1.554 4.706 3.474c1.346 2.088 1.121 6.262 1.121 6.262z" class="Union_4" clip-rule="evenodd"/>
        <path stroke="#02FFD1" d="M550.167 313.648c3.734 5.95 5.883 12.081 6.355 17.168.475 5.119-.75 9.021-3.539 10.772-2.789 1.75-6.836 1.158-11.239-1.495-4.377-2.637-8.965-7.236-12.699-13.186-3.735-5.949-5.883-12.08-6.355-17.168-.476-5.119.75-9.021 3.539-10.771 2.789-1.751 6.835-1.159 11.239 1.494 4.376 2.637 8.964 7.237 12.699 13.186z" class="Ellipse"/>
        <path stroke="#02FFD1" d="M529.978 335.234c7.003 10.048 11.312 20.529 12.636 29.337 1.329 8.842-.366 15.827-5.12 19.14-4.755 3.314-11.895 2.486-19.73-1.822-7.805-4.291-16.146-11.963-23.149-22.011-7.002-10.048-11.311-20.529-12.635-29.337-1.329-8.842.366-15.827 5.12-19.14 4.755-3.314 11.894-2.486 19.73 1.822 7.804 4.291 16.146 11.963 23.148 22.011z" class="Ellipse_2"/>
        <path stroke="#02FFD1" d="M507.502 354.535c9.441 13.406 14.988 27.627 16.342 39.765 1.357 12.158-1.498 22.098-8.677 27.154-7.179 5.057-17.501 4.395-28.491-.978-10.972-5.364-22.492-15.377-31.934-28.784-9.442-13.406-14.989-27.627-16.343-39.764-1.357-12.158 1.498-22.099 8.678-27.155 7.179-5.056 17.5-4.395 28.49.978 10.972 5.364 22.493 15.377 31.935 28.784z" class="Ellipse_3"/>
        <path stroke="#02FFD1" d="M559.808 303.924c.886 1.41 1.359 2.864 1.428 4.059.071 1.215-.274 2.036-.854 2.401-.581.364-1.471.318-2.534-.274-1.046-.582-2.15-1.64-3.035-3.05-.885-1.411-1.359-2.865-1.428-4.059-.071-1.216.274-2.037.855-2.401.58-.365 1.47-.319 2.533.273 1.046.582 2.15 1.64 3.035 3.051z" class="Ellipse_4"/>
      </g>
      <g class="Group 11">
        <path stroke="#7083FE" stroke-linecap="round" d="M702.952 519.216c-3.566-13.375-10.334-41.596-29.562-54.006-32.026-20.671-73.695-7.414-94.249 9.597-16.444 13.609-15.914 28.535-21.725 48.389" class="Vector 2_2"/>
      </g>
    </g>
    <g class="element right">
      <path fill="#151515" fill-opacity=".2" fill-rule="evenodd" d="M732.618 338.791c-11.884 0-21.518 9.634-21.518 21.518s9.634 21.518 21.518 21.518 21.518-9.634 21.518-21.518-9.634-21.518-21.518-21.518zM690.1 360.309c0-23.482 19.036-42.518 42.518-42.518s42.518 19.036 42.518 42.518-19.036 42.518-42.518 42.518-42.518-19.036-42.518-42.518z" class="Vector (Stroke)_2" clip-rule="evenodd" opacity=".89"/>
      <path stroke="#F2CB05" stroke-width="20" d="M724.318 377.2c16.559 0 29.983-13.423 29.983-29.982 0-16.559-13.424-29.983-29.983-29.983-16.558 0-29.982 13.424-29.982 29.983S707.76 377.2 724.318 377.2z" class="Vector_55"/>
    </g>
    <path fill="#D6F3FF" fill-opacity=".6" d="M570.199 263.2h12.5c1.7 0 3 1.3 3 3v13.3c0 1.7-1.3 3-3 3h-12.5c-1.7 0-3-1.3-3-3v-13.3c0-1.6 1.4-3 3-3z" class="Vector_56"/>
    <path fill="#D6F3FF" fill-opacity=".6" d="M672.799 263.2h12.5c1.7 0 3 1.3 3 3v13.3c0 1.7-1.3 3-3 3h-12.5c-1.7 0-3-1.3-3-3v-13.3c0-1.6 1.3-3 3-3z" class="Vector_57"/>
    <path fill="#D6F3FF" fill-opacity=".6" d="M363.799 263.2h12.5c1.7 0 3 1.3 3 3v13.3c0 1.7-1.3 3-3 3h-12.5c-1.7 0-3-1.3-3-3v-13.3c0-1.6 1.3-3 3-3z" class="Vector_58"/>
    <path fill="#D6F3FF" fill-opacity=".6" d="M260.799 263.2h12.5c1.7 0 3 1.3 3 3v13.3c0 1.7-1.3 3-3 3h-12.5c-1.7 0-3-1.3-3-3v-13.3c0-1.6 1.4-3 3-3z" class="Vector_59"/>
    <path fill="#D6F3FF" fill-opacity=".6" d="M466.799 263.2h12.5c1.7 0 3 1.3 3 3v13.3c0 1.7-1.3 3-3 3h-12.5c-1.7 0-3-1.3-3-3v-13.3c0-1.6 1.3-3 3-3z" class="Vector_60"/>
    <path fill="#000" fill-opacity=".77" fill-rule="evenodd" d="M266.1 269.9c0-.5.4-1 1-1 .5 0 1 .4 1 1v2.1h2c.5 0 .9.4.9.9s-.4.9-.9.9h-2v2.1c0 .5-.4 1-1 1-.5 0-1-.4-1-1v-2.1H264c-.5 0-.9-.4-.9-.9s.4-.9.9-.9h2.1v-2.1zm103.9-1c-.6 0-1 .5-1 1v2.1h-2.1c-.5 0-.9.4-.9.9s.4.9.9.9h2.1v2.1c0 .6.5 1 1 1 .6 0 1-.5 1-1v-2.1h2.1c.5 0 .9-.4.9-.9s-.4-.9-.9-.9H371v-2.1c0-.6-.5-1-1-1zm205.5 1c0-.5.4-1 1-1 .5 0 1 .4 1 1v2.1h1.999c.5 0 .9.4.9.9s-.4.9-.9.9H577.5v2.1c0 .5-.4 1-1 1-.5 0-1-.4-1-1v-2.1h-2.201c-.5 0-.9-.4-.9-.9s.4-.9.9-.9h2.201v-2.1zm103.5-1c-.6 0-1 .5-1 1v2.1h-2.1c-.5 0-.9.4-.9.9s.4.9.9.9h2.1v2.1c0 .6.5 1 1 1 .6 0 1-.5 1-1v-2.1h2.099c.5 0 .901-.4.901-.9s-.401-.9-.901-.9H680v-2.1c0-.6-.5-1-1-1zm-207 1c0-.5.4-1 1-1 .5 0 1 .4 1 1v2.1h2.1c.5 0 .9.4.9.9s-.4.9-.9.9H474v2.1c0 .5-.4 1-1 1-.5 0-1-.4-1-1v-2.1h-2.1c-.5 0-.9-.4-.9-.9s.4-.9.9-.9h2.1v-2.1z" class="Union_5" clip-rule="evenodd"/>
  </g>
</svg>
