<svg xmlns="http://www.w3.org/2000/svg" width="800" height="600" fill="none" viewBox="0 0 800 600">
  <g clip-path="url(#clip0)">
    <path fill="#fff" d="M0 0h800v600H0z"/>
    <path fill="#F3EED8" fill-rule="evenodd" d="M202.659 274.146c0-8.723-6.758-16.228-16.461-19.573-.443-13.667-14.951-24.641-32.783-24.641-11.506 0-21.629 4.569-27.481 11.481a42.69 42.69 0 00-5.314-.33c-9.975 0-18.911 3.435-24.926 8.854a35.315 35.315 0 00-8.974-1.142c-15.35 0-27.794 9.594-27.794 21.43l143.733 3.921z" class="Vector" clip-rule="evenodd"/>
    <path fill="#ECECEC" d="M390.543 210.816L78.457 600.48h591.896l-279.81-389.664z" class="Vector 2"/>
    <path fill="#F8F7F2" d="M119.137 362.387L-.85 600.48h240.991L119.137 362.387z" class="Vector 2.1"/>
    <g class="Group 2.1">
      <path stroke="#2E4E5B" d="M251.61 74.619L625.933 596.57" class="Vector 2_2"/>
      <path stroke="#2E4E5B" d="M265.282 64.814l374.323 521.952" class="Vector 2.3"/>
      <path stroke="#2E4E5B" d="M278.955 55.008l374.323 521.953" class="Vector 2.4"/>
      <path stroke="#2E4E5B" d="M292.627 45.203L666.95 567.156" class="Vector 2.5"/>
    </g>
    <path fill="#F8F7F2" fill-rule="evenodd" d="M119.769 500.69c0-6.93-5.369-12.893-13.078-15.55-.352-10.859-11.878-19.578-26.046-19.578-9.141 0-17.183 3.63-21.833 9.122a33.992 33.992 0 00-4.222-.262c-7.925 0-15.024 2.729-19.803 7.035a28.054 28.054 0 00-7.13-.908c-12.195 0-22.082 7.623-22.082 17.026l114.194 3.115z" class="Vector_2" clip-rule="evenodd"/>
    <path fill="#2E4E5B" fill-rule="evenodd" d="M136.422 325.746l136.573 264.422.889-.459L137.31 325.287l-.888.459zm121.625 272.143L121.473 333.467l.889-.459L258.935 597.43l-.888.459zM106.525 341.187L240.408 600.4h1.125l-134.12-259.671-.888.458zm-14.949 7.721L221.471 600.4h1.126L92.465 348.449l-.889.459z" class="Union" clip-rule="evenodd"/>
    <g class="Group 2">
      <g class="Group">
        <path fill="#DADADA" d="M288.96 381.124c4.8-2.3 14.1-3.4 20.9-2.3l1.8.3c6.7 1 8.3 3.8 3.5 6.1l-123 60c-4.8 2.3-14.1 3.4-20.8 2.3l-1.8-.3c-6.7-1-8.3-3.8-3.5-6.1l122.9-60z" class="Vector_3"/>
      </g>
      <g class="Group_2">
        <path fill="#CDCDCD" d="M268.76 366.724c11-1.6 23.4-1.9 33.5-.3l405.7 62.6c10.1 1.6 15.8 4.6 16.4 8-1.3-1.9-5-3.6-11-4.5l-424.9-65.5c-5.9-1-13-1-19.7-.3z" class="Vector_4"/>
      </g>
      <g class="Group_3">
        <path fill="#D8D8D8" d="M121.66 448.325l424.9 65.5c6 .9 13 .9 19.7.2-11 1.7-23.4 1.9-33.5.3l-405.7-62.6c-10.1-1.6-15.8-4.6-16.4-8 1.3 2 5 3.7 11 4.6z" class="Vector_5"/>
      </g>
      <g class="Group_4">
        <path fill="#E5E5E5" d="M716.06 424.623l-405.8-62.6c-24.3-3.7-58 .1-75.2 8.5l-130.1 63.5c-17.2 8.4-11.5 18.3 12.8 22l405.7 62.5c24.3 3.7 58-.1 75.3-8.5l130.1-63.5c17.2-8.3 11.4-18.2-12.8-21.9zm3.7 18.9l-2.6 1.3-130.1 63.5-2.6 1.3c-4.5 2.2-11.1 3.7-18.2 4.5-11 1.7-23.4 1.9-33.5.3l-405.7-62.6c-10.1-1.6-15.8-4.6-16.4-8-1.4-2.1.1-4.4 4.5-6.6l13.9-6.8 107.5-52.4 13.9-6.8c4.5-2.2 11.2-3.8 18.3-4.5 11-1.6 23.4-1.9 33.5-.3l405.7 62.6c10.1 1.6 15.8 4.6 16.4 8 1.3 2-.1 4.3-4.6 6.5z" class="Vector_6"/>
      </g>
      <g class="Group_5">
        <path fill="#C1C1C1" d="M129.061 430.423l107.5-52.4 19.9 3.1c8.3 1.3 10.2 4.6 4.3 7.5l-86.2 42c-5.9 2.9-17.4 4.2-25.7 2.9l-19.8-3.1zm113.9-42.9c1.4-.7 1-1.5-1.1-1.8-2-.3-4.9 0-6.3.7-1.5.7-1 1.5 1.1 1.8 2 .3 4.8 0 6.3-.7zm-15.3 7.4c1.4-.7 1-1.5-1.1-1.8-2-.3-4.9 0-6.3.7-1.4.7-1 1.5 1.1 1.8 2 .3 4.8 0 6.3-.7z" class="Vector_7"/>
      </g>
      <g class="Group_6">
        <path fill="#F2FFF4" d="M236.66 388.223c2 .3 4.9 0 6.3-.7 1.4-.7 1-1.5-1.1-1.8-2-.3-4.9 0-6.3.7-1.5.6-1 1.5 1.1 1.8z" class="Vector_8"/>
      </g>
      <g class="Group_7">
        <path fill="#F2FFF4" d="M220.26 393.824c1.4-.7 4.3-1 6.3-.7 2 .3 2.5 1.1 1.1 1.8s-4.3 1-6.3.7c-2.1-.3-2.5-1.1-1.1-1.8z" class="Vector_9"/>
      </g>
      <path fill="#F1F1F1" fill-rule="evenodd" d="M288.461 366.923c-5.9-.9-13-.9-19.7-.2-7.1.7-13.8 2.3-18.1 4.6l-13.9 6.8 19.9 3.1c8.2 1.3 10.2 4.6 4.3 7.5l-86.2 42c-5.9 2.9-17.4 4.2-25.7 2.9l-19.9-3.1-13.9 6.8c-4.4 2.2-5.9 4.5-4.5 6.6 1.3 1.9 5 3.6 11 4.5l424.9 65.5c5.9.9 13 .9 19.7.2 7.1-.8 13.7-2.3 18.2-4.5l2.6-1.3 130.1-63.5 2.6-1.3c4.4-2.2 5.8-4.5 4.5-6.6-1.3-1.9-5-3.6-11-4.5l-424.9-65.5zm21.4 11.8l1.8.3c6.7 1 8.3 3.8 3.4 6.1l-123 60c-4.7 2.3-14.1 3.3-20.8 2.3l-1.8-.3c-6.7-1-8.3-3.8-3.5-6.1l123-60c4.8-2.3 14.2-3.3 20.9-2.3zm345.3 84.9c1.7.3 2.1 1 .9 1.6l-37.2 18.1c-1.2.6-3.6.9-5.4.6-1.7-.3-2.1-1-.9-1.6l37.2-18.1c1.2-.6 3.7-.9 5.4-.6zm83.602-26.249c.024.376.049.763.098 1.151.4 5.4.8 10.9 1 16.1.1 1.8-.8 3.5-2 4.8-2.6 3-6.3 4.8-9.9 6.5l-8.7 4.2-14.1 6.9-17.7 8.7c-3.251 1.6-6.526 3.2-9.802 4.8-3.274 1.6-6.549 3.2-9.798 4.8-3.301 1.6-6.626 3.225-9.952 4.85-3.324 1.625-6.649 3.25-9.948 4.85-.431.211-1.053.52-1.846.912-10.433 5.171-50.261 24.908-67.154 29.588-4.73 1.31-12.848 1.848-19.547 2.293-1.06.07-2.084.138-3.053.207-8.5.5-17 .5-25.4-.3-.785-.079-7.3-1.02-11.082-1.566l-2.318-.334c-2.051-.3-4.076-.625-6.101-.951-2.025-.324-4.05-.649-6.099-.949-5.7-.8-11.4-1.7-17.1-2.6-3.609-.552-7.193-1.103-10.777-1.654a8204.59 8204.59 0 00-10.723-1.646c-4.205-.651-8.384-1.302-12.563-1.952-4.171-.65-8.342-1.299-12.537-1.948-4.649-.7-9.298-1.425-13.947-2.15-4.651-.725-9.302-1.45-13.953-2.15-5.052-.801-10.079-1.576-15.105-2.351a3884.9 3884.9 0 01-15.095-2.349c-10.4-1.6-20.9-3.2-31.4-4.8-5.35-.85-10.725-1.675-16.099-2.5-5.376-.825-10.751-1.65-16.101-2.5-4.95-.779-9.879-1.538-14.796-2.294-5.812-.894-11.608-1.785-17.404-2.706-5.198-.8-10.42-1.6-15.643-2.399-5.227-.801-10.455-1.601-15.657-2.401-5.001-.75-9.976-1.525-14.951-2.3-4.975-.775-9.95-1.55-14.949-2.3-9.295-1.5-18.49-2.899-27.686-4.298l-.014-.002c-4.1-.65-8.2-1.275-12.3-1.9-4.1-.625-8.2-1.25-12.3-1.9-3.494-.549-7.013-1.098-10.532-1.648a7864.73 7864.73 0 01-10.568-1.652c-2.567-.413-5.113-.804-7.647-1.194-2.995-.461-5.974-.919-8.953-1.406-1.9-.3-3.825-.6-5.751-.9-1.924-.3-3.849-.6-5.749-.9-.951-.15-1.876-.3-2.801-.45-.925-.15-1.85-.3-2.799-.45-2.3-.4-4.6-.8-6.8-1.3-3.6-.8-7.3-1.9-10.6-3.7-1.9-1-4-2.5-5.1-4.5-.5-1-.6-2.1-.7-3.3-.103-1.185-.18-2.397-.257-3.622-.073-1.152-.147-2.315-.244-3.478-.194-3.403-.388-6.711-.675-10.017.36 3.143 3.45 5.257 5.976 6.617 3 1.6 6.3 2.6 9.6 3.4 1.8.5 12 2.2 14.1 2.5 2.003.3 3.981.601 5.96.901 1.971.3 3.943.599 5.94.899 2.8.45 5.6.875 8.4 1.3 2.8.425 5.6.85 8.4 1.3 3.5.55 7.025 1.1 10.55 1.65 3.525.55 7.05 1.1 10.55 1.65 4.337.696 8.703 1.363 13.083 2.033 3.799.581 7.608 1.163 11.417 1.767 9.1 1.4 18.3 2.8 27.5 4.2 8.653 1.412 17.384 2.747 26.055 4.073l3.445.527c5.141.798 10.307 1.597 15.473 2.396 5.184.801 10.368 1.602 15.527 2.404 5.3.8 10.6 1.625 15.9 2.45 5.3.825 10.6 1.65 15.9 2.45 5.3.8 10.575 1.625 15.85 2.45 5.275.825 10.55 1.65 15.85 2.45 10.5 1.6 20.9 3.2 31.3 4.8 4.95.75 9.9 1.525 14.85 2.3 4.95.775 9.9 1.55 14.85 2.3 4.648.699 9.271 1.424 13.894 2.149 4.627.725 9.254 1.45 13.906 2.151 8.3 1.2 16.6 2.5 24.9 3.8 3.598.549 7.171 1.099 10.744 1.649 3.577.55 7.154 1.1 10.756 1.651 2.893.448 5.761.897 8.629 1.346 2.882.451 5.764.903 8.671 1.354 2.05.3 4.125.625 6.2.95 2.075.325 4.15.65 6.2.95 1.15.2 2.3.375 3.45.55 1.15.175 2.3.35 3.45.55 7.6 1.2 15.2 1.7 22.9 1.6 8.7 0 17.4-.7 26-2.1 8.8-1.4 17.7-3.4 25.8-7 .25-.15.524-.275.799-.4s.55-.25.8-.4c.181-.272 1.017-.543 1.397-.666l.103-.034c.6-.3 1.174-.575 1.749-.85.575-.275 1.151-.55 1.751-.85 2.051-1.001 4.076-2.001 6.101-3.001 2.025-1 4.05-2 6.099-2.999 2.901-1.401 5.802-2.826 8.702-4.251 2.9-1.425 5.799-2.85 8.698-4.249 6.801-3.4 13.601-6.7 20.401-10 7.1-3.4 14.3-6.9 21.4-10.4l20.4-9.9c2.85-1.401 5.7-2.776 8.551-4.151 2.849-1.375 5.699-2.75 8.549-4.149 3.9-1.9 18.6-9.1 19.4-9.6 1.4-.8 2.7-1.8 3.9-2.9 1.5-1.5 3-3.4 2.8-5.7.051.361.076.748.102 1.149zm-643.702 6.651l.024.283a5.322 5.322 0 01-.024-.283z" class="Primary" clip-rule="evenodd"/>
      <path fill="#F1F1F1" d="M268.761 366.723c6.7-.7 13.8-.7 19.7.2l424.9 65.5c6 .9 9.7 2.6 11 4.5 1.3 2.1-.1 4.4-4.5 6.6l-2.6 1.3-130.1 63.5-2.6 1.3c-4.5 2.2-11.1 3.7-18.2 4.5-6.7.7-13.8.7-19.7-.2l-424.9-65.5c-6-.9-9.7-2.6-11-4.5-1.4-2.1.1-4.4 4.5-6.6l13.9-6.8 19.9 3.1c8.3 1.3 19.8 0 25.7-2.9l86.2-42c5.9-2.9 3.9-6.2-4.3-7.5l-19.9-3.1 13.9-6.8c4.3-2.3 11-3.9 18.1-4.6zm42.9 12.3l-1.8-.3c-6.7-1-16.1 0-20.9 2.3l-123 60c-4.8 2.3-3.2 5.1 3.5 6.1l1.8.3c6.7 1 16.1 0 20.8-2.3l123-60c4.9-2.3 3.3-5.1-3.4-6.1zm344.4 86.2c1.2-.6.8-1.3-.9-1.6-1.7-.3-4.2 0-5.4.6l-37.2 18.1c-1.2.6-.8 1.3.9 1.6 1.8.3 4.2 0 5.4-.6l37.2-18.1z" class="Vector_10"/>
      <path fill="#D0D0D0" d="M738.861 438.525c-.1-.8-.1-1.6-.2-2.3.2 2.3-1.3 4.2-2.8 5.7-1.2 1.1-2.5 2.1-3.9 2.9-.8.5-15.5 7.7-19.4 9.6-5.7 2.8-11.4 5.5-17.1 8.3l-20.4 9.9c-7.1 3.5-14.3 7-21.4 10.4-6.8 3.3-13.6 6.6-20.401 10-5.799 2.8-11.599 5.7-17.4 8.5-4.1 2-8.1 4-12.2 6-1.2.6-2.299 1.1-3.5 1.7-.299.1-1.299.4-1.5.7v.1-.1c-.5.3-1.099.5-1.599.8-8.1 3.6-17 5.6-25.8 7-8.6 1.4-17.3 2.1-26 2.1-7.7.1-15.3-.4-22.9-1.6-2.3-.4-4.6-.7-6.9-1.1-4.1-.6-8.3-1.3-12.4-1.9-5.8-.9-11.5-1.8-17.3-2.7-7.2-1.1-14.3-2.2-21.5-3.3-8.3-1.3-16.6-2.6-24.9-3.8-9.3-1.4-18.5-2.9-27.8-4.3-9.9-1.5-19.8-3.1-29.7-4.6-10.4-1.6-20.8-3.2-31.3-4.8-10.6-1.6-21.1-3.3-31.7-4.9-10.6-1.6-21.2-3.3-31.8-4.9-10.3-1.6-20.7-3.2-31-4.8-9.8-1.5-19.7-3-29.5-4.6-9.2-1.4-18.4-2.8-27.5-4.2-8.2-1.3-16.4-2.5-24.5-3.8-7-1.1-14.1-2.2-21.1-3.3-5.6-.9-11.2-1.7-16.8-2.6-4-.6-7.9-1.2-11.9-1.8-2.1-.3-12.3-2-14.1-2.5-3.3-.8-6.6-1.8-9.6-3.4-2.6-1.4-5.8-3.6-6-6.9.3 3.4.5 6.8.7 10.3.2 2.4.3 4.8.5 7.1.1 1.2.2 2.3.7 3.3 1.1 2 3.2 3.5 5.1 4.5 3.3 1.8 7 2.9 10.6 3.7 2.2.5 4.5.9 6.8 1.3 1.9.3 3.7.6 5.6.9 3.8.6 7.7 1.2 11.5 1.8 5.5.9 11 1.7 16.6 2.6 7 1.1 14.1 2.2 21.1 3.3 8.2 1.3 16.4 2.5 24.6 3.8 9.2 1.4 18.4 2.8 27.7 4.3 10 1.5 19.9 3.1 29.9 4.6 10.4 1.6 20.9 3.2 31.3 4.8 10.7 1.7 21.4 3.3 32.2 5 10.7 1.7 21.5 3.3 32.2 5 10.5 1.6 21 3.2 31.4 4.8 10.1 1.6 20.1 3.1 30.2 4.7 9.3 1.4 18.6 2.9 27.9 4.3 8.4 1.3 16.7 2.6 25.1 3.9 7.2 1.1 14.3 2.2 21.5 3.3 5.7.9 11.4 1.8 17.1 2.6 4.1.6 8.1 1.3 12.2 1.9 2.1.3 12.4 1.8 13.4 1.9 8.4.8 16.9.8 25.4.3 7.1-.5 17.121-.983 22.6-2.5 18.175-5.035 62.9-27.5 69-30.5 6.6-3.2 13.3-6.5 19.9-9.7 6.5-3.2 13.1-6.4 19.6-9.6l17.7-8.7 14.1-6.9 8.7-4.2c3.6-1.7 7.3-3.5 9.9-6.5 1.2-1.3 2.1-3 2-4.8-.2-5.2-.6-10.7-1-16.1z" class="Vector_11"/>
      <g class="Group_8">
        <path fill="#CDCDCD" d="M332.56 383.024c5.3-2.6 15.6-3.7 23-2.6l88.9 13.7c7.4 1.1 9.2 4.2 3.9 6.7l-121.3 59.1c-5.3 2.6-15.6 3.7-23 2.6l-88.9-13.7c-7.4-1.1-9.2-4.2-3.9-6.7l121.3-59.1z" class="Vector_12"/>
      </g>
      <path fill="#737373" fill-rule="evenodd" d="M444.46 394.124l-88.9-13.7 88.9 13.7zm-236.235 51.25c0 .04.003.08.005.12l.001.015c-.01.084-.006.167-.001.25l.001.014c-.01.084-.006.167-.001.25l.001.014c-.01.084-.006.167-.001.25l.001.014c-.01.085-.006.167-.001.25l.001.015c-.01.084-.006.167-.001.25l.001.014c-.01.084-.006.167-.001.25l.001.014c-.01.084-.006.167-.001.25l.001.015c-.01.084-.006.166-.001.25l.001.014c-.01.084-.006.167-.001.25l.001.014c-.01.084-.006.167-.001.25l.001.014c-.01.084-.006.167-.001.25l.001.015c-.01.084-.006.167-.001.25l.001.014c-.01.084-.006.167-.001.25l.001.014c-.01.084-.006.167-.001.25l.001.015c-.01.084-.006.166-.001.25l.001.014c-.01.084-.006.167-.001.25l.001.014c-.01.084-.006.167-.001.25l.001.014c-.01.084-.006.167-.001.25l.001.015c-.01.084-.006.167-.001.25l.001.014c-.195 1.643 2.236 3.146 6.929 3.844l88.9 13.7c7.4 1.1 17.7 0 23-2.6l121.3-59.1c2.12-1 3.086-2.095 3.03-3.121.01-.084.005-.167.001-.25l-.001-.014c.01-.084.005-.167.001-.25l-.001-.014c.01-.084.005-.167.001-.25l-.001-.015c.01-.084.005-.166.001-.25l-.001-.014c.01-.084.005-.167.001-.25l-.001-.014c.01-.084.005-.167.001-.25l-.001-.014c.011-.089.005-.177 0-.265.01-.084.005-.167.001-.25l-.001-.014c.01-.084.005-.167.001-.25l-.001-.014c.01-.084.005-.167.001-.25l-.001-.014c.01-.085.005-.167.001-.251l-.001-.014c.01-.084.005-.167.001-.251l-.001-.013c.01-.084.005-.168.001-.251l-.001-.013c.01-.085.005-.168.001-.251l-.001-.014c.01-.084.005-.167.001-.25l-.001-.014c.01-.084.005-.167.001-.251l-.001-.013c.01-.084.005-.168.001-.251l-.001-.013c.01-.085.005-.168.001-.251l-.001-.014c.01-.084.005-.167.001-.251l-.001-.013c.009-.072.006-.143.003-.214-.141.932-1.129 1.908-3.033 2.806l-121.3 59.1c-5.3 2.6-15.6 3.7-23 2.6l-88.9-13.7c-4.315-.642-6.726-1.963-6.935-3.45z" class="Subtract" clip-rule="evenodd"/>
      <g class="Group_9">
        <g class="Group_10">
          <path fill="#CDCDCD" d="M342.46 458.824c3.8-1.9 11.3-2.7 16.6-1.9l11.6 1.8c5.4.8 6.6 3 2.8 4.9l-8.3 4c-3.8 1.9-11.3 2.7-16.6 1.9l-11.6-1.8c-5.4-.8-6.6-3-2.8-4.9l8.3-4z" class="Vector_13"/>
        </g>
      </g>
      <path fill="#737373" fill-rule="evenodd" d="M371.281 458.825c-.2-.036-.407-.07-.621-.102l-11.6-1.8 11.6 1.8c.214.032.421.066.621.102zm-39.322 6.425l.002.058.002.027c-.007.055-.004.109-.002.164l.002.027c-.007.055-.004.109-.002.163l.002.027c-.007.055-.004.109-.002.163l.002.027c-.007.055-.004.109-.002.164l.002.027c-.007.055-.004.109-.002.163l.002.027c-.007.055-.004.109-.002.163l.002.027c-.007.055-.004.109-.002.164l.002.027c-.007.055-.004.109-.002.163l.002.027c-.007.055-.004.109-.002.163l.002.027c-.007.055-.004.109-.002.164l.002.027c-.007.055-.004.109-.002.163l.002.027c-.007.055-.004.109-.002.163l.002.027c-.007.055-.004.109-.002.164l.002.027c-.007.055-.004.109-.002.163l.002.027c-.007.055-.004.109-.002.163l.002.027c-.007.055-.004.109-.002.164l.002.027c-.007.055-.004.109-.002.163l.002.027c-.007.055-.004.109-.002.163l.002.027c-.007.055-.004.109-.002.164l.002.027c-.007.055-.004.109-.002.163l.002.027c-.007.055-.004.109-.002.163l.002.027c-.007.055-.004.109-.002.164l.002.027c-.007.054-.004.109-.002.163l.002.027c-.007.055-.004.109-.002.163l.002.027c-.007.055-.004.109-.002.164l.002.026c-.007.055-.004.11-.002.164l.002.027c-.007.055-.004.109-.002.163l.002.027c-.007.055-.004.109-.002.163l.002.027c-.007.055-.004.11-.002.164l.002.027c-.148 1.196 1.582 2.262 4.997 2.768l11.6 1.8c5.3.8 12.8 0 16.6-1.9l8.3-4c1.526-.762 2.232-1.572 2.198-2.322.007-.055.004-.109.001-.163l-.001-.027c.007-.055.004-.109.001-.163l-.001-.027c.007-.055.004-.109.001-.164l-.001-.027c.007-.055.004-.109.001-.163l-.001-.027c.007-.055.004-.109.001-.163l-.001-.027c.007-.055.004-.109.001-.163l-.001-.027a.899.899 0 00.001-.164l-.001-.027c.007-.055.004-.109.001-.163l-.001-.027c.007-.055.004-.109.001-.163l-.001-.027a.899.899 0 00.001-.164l-.001-.027c.007-.055.004-.109.001-.163l-.001-.027c.007-.055.004-.109.001-.163l-.001-.027a.899.899 0 00.001-.164l-.001-.027c.007-.055.004-.109.001-.163l-.001-.027c.007-.055.004-.109.001-.163l-.001-.027a.899.899 0 00.001-.164l-.001-.027c.007-.055.004-.109.001-.163l-.001-.027c.007-.055.004-.109.001-.163l-.001-.027c.007-.055.004-.109.001-.164l-.001-.027c.007-.055.004-.109.001-.163l-.001-.027c.007-.055.004-.109.001-.163l-.001-.027a.899.899 0 00.001-.164l-.001-.027c.007-.055.004-.109.001-.163l-.001-.027c.007-.055.004-.109.001-.163l-.001-.027c.007-.055.004-.109.001-.164l-.001-.027c.007-.055.004-.109.001-.163l-.001-.027c.007-.055.004-.109.001-.163l-.001-.027c.007-.055.004-.109.001-.164l-.001-.027c.007-.055.004-.109.001-.163l-.001-.027a.939.939 0 00.001-.159c-.103.685-.823 1.412-2.199 2.1l-8.3 4c-3.8 1.9-11.3 2.7-16.6 1.9l-11.6-1.8c-3.132-.464-4.851-1.399-5.001-2.473z" class="Subtract_2" clip-rule="evenodd"/>
      <g class="Group_11">
        <g class="Group_12">
          <path fill="#CDCDCD" d="M461.811 400.724c3.8-1.9 11.3-2.7 16.6-1.9l11.6 1.8c5.4.8 6.6 3 2.8 4.9l-8.3 4c-3.8 1.9-11.3 2.7-16.6 1.9l-11.6-1.8c-5.4-.8-6.6-3-2.8-4.9l8.3-4z" class="Vector_14"/>
        </g>
      </g>
      <path fill="#737373" fill-rule="evenodd" d="M490.011 400.624l-11.6-1.8 11.6 1.8zm-38.701 6.526l.002.059a.244.244 0 01.001.027.986.986 0 000 .19.986.986 0 000 .19.999.999 0 00-.001.164l.001.027a.986.986 0 00-.001.163l.001.027a.986.986 0 00-.001.163l.001.027a.998.998 0 000 .191.986.986 0 000 .19.986.986 0 000 .19.999.999 0 00-.001.164l.001.027a.986.986 0 00-.001.163l.001.027a.986.986 0 00-.001.163l.001.027a.998.998 0 000 .191.986.986 0 000 .19.986.986 0 000 .19.998.998 0 00-.001.164l.001.027a.986.986 0 00-.001.163l.001.027a.986.986 0 00-.001.163l.001.027a.998.998 0 000 .191.986.986 0 000 .19.986.986 0 000 .19.998.998 0 00-.001.164l.001.027a.986.986 0 00-.001.163l.001.027a.986.986 0 000 .19.998.998 0 000 .191.986.986 0 00-.001.163l.001.027a.986.986 0 00-.001.163l.001.027a.998.998 0 000 .191.986.986 0 000 .19.986.986 0 000 .19c-.147 1.196 1.582 2.263 4.998 2.769l11.6 1.8c5.3.8 12.8 0 16.6-1.9l8.3-4c1.525-.763 2.231-1.573 2.197-2.322.007-.055.004-.109.002-.163l-.002-.027c.007-.055.004-.11.002-.164l-.002-.027c.007-.055.004-.109.002-.163l-.002-.027c.007-.055.004-.109.002-.163l-.002-.027c.007-.055.004-.11.002-.164l-.002-.027c.007-.055.004-.109.002-.163l-.002-.027c.007-.055.004-.109.002-.163l-.002-.027c.007-.055.004-.11.002-.164l-.002-.027c.007-.055.004-.109.002-.163l-.002-.027c.007-.055.004-.109.002-.163l-.002-.027c.007-.055.004-.11.002-.164l-.002-.027c.007-.055.004-.109.002-.163l-.002-.027c.007-.055.004-.109.002-.163l-.002-.027c.007-.055.004-.11.002-.164l-.002-.027c.007-.055.004-.109.002-.163l-.002-.027c.007-.055.004-.109.002-.163l-.002-.027c.007-.055.004-.109.002-.164l-.002-.027c.007-.055.004-.109.002-.163l-.002-.027c.007-.055.004-.109.002-.163l-.002-.027c.007-.055.004-.109.002-.164l-.002-.027c.007-.055.004-.109.002-.163l-.002-.027c.007-.055.004-.109.002-.163l-.002-.027c.007-.055.004-.109.002-.164l-.002-.027c.007-.055.004-.109.002-.163l-.002-.027c.007-.055.004-.109.002-.163l-.002-.027c.007-.055.004-.109.002-.164l-.002-.027c.007-.055.004-.109.002-.163l-.002-.027c.007-.055.004-.109.002-.163l-.002-.027c.007-.055.004-.109.002-.164l-.002-.027a.845.845 0 00.002-.159c-.103.686-.824 1.413-2.199 2.101l-8.3 4c-3.8 1.9-11.3 2.7-16.6 1.9l-11.6-1.8c-3.132-.464-4.851-1.399-5.001-2.474z" class="Subtract_3" clip-rule="evenodd"/>
      <g class="Group_13">
        <g class="Group_14">
          <path fill="#CDCDCD" d="M433.061 414.925c3.8-1.9 11.3-2.7 16.6-1.9l11.6 1.8c5.4.8 6.6 3 2.8 4.9l-8.3 4c-3.8 1.9-11.3 2.7-16.6 1.9l-11.6-1.8c-5.4-.8-6.6-3-2.8-4.9l8.3-4z" class="Vector_15"/>
        </g>
      </g>
      <path fill="#737373" fill-rule="evenodd" d="M461.261 414.825l-11.6-1.8 11.6 1.8zm-38.701 6.527l.002.058.001.027a.986.986 0 00-.001.163l.001.027a.998.998 0 000 .191.986.986 0 000 .19.986.986 0 000 .19.998.998 0 00-.001.164l.001.027a.986.986 0 00-.001.163l.001.027a.986.986 0 00-.001.163l.001.027a.998.998 0 000 .191.986.986 0 000 .19.986.986 0 000 .19.998.998 0 00-.001.164l.001.027a.986.986 0 00-.001.163l.001.027a.986.986 0 00-.001.163l.001.027a.986.986 0 000 .19.999.999 0 000 .191.986.986 0 00-.001.163l.001.027a.986.986 0 00-.001.163l.001.027a.999.999 0 000 .191.986.986 0 000 .19.986.986 0 000 .19.999.999 0 00-.001.164l.001.027a.986.986 0 00-.001.163l.001.027a.986.986 0 00-.001.163l.001.027a.999.999 0 000 .191.986.986 0 000 .19.986.986 0 000 .19.999.999 0 00-.001.164l.001.027a.986.986 0 00-.001.163l.001.027a.986.986 0 00-.001.163l.001.027c-.147 1.196 1.582 2.263 4.998 2.769l11.6 1.8c5.3.8 12.8 0 16.6-1.9l8.3-4c1.525-.763 2.231-1.573 2.197-2.322.007-.055.004-.109.002-.163l-.002-.027c.007-.055.004-.109.002-.164l-.002-.027c.007-.055.004-.109.002-.163l-.002-.027c.007-.055.004-.109.002-.163l-.002-.027c.007-.055.004-.109.002-.164l-.002-.027c.007-.055.004-.109.002-.163l-.002-.027c.007-.055.004-.109.002-.163l-.002-.027c.007-.055.004-.109.002-.164l-.002-.027c.007-.055.004-.109.002-.163l-.002-.027c.007-.055.004-.109.002-.163l-.002-.027c.007-.055.004-.109.002-.164l-.002-.027c.007-.055.004-.109.002-.163l-.002-.027c.007-.055.004-.109.002-.163l-.002-.027c.007-.055.004-.109.002-.164l-.002-.027c.007-.054.004-.109.002-.163l-.002-.027c.007-.055.004-.109.002-.163l-.002-.027c.007-.055.004-.109.002-.164l-.002-.027c.007-.054.004-.109.002-.163l-.002-.027c.007-.055.004-.109.002-.163l-.002-.027c.007-.055.004-.109.002-.164l-.002-.026c.007-.055.004-.11.002-.164l-.002-.027c.007-.055.004-.109.002-.163l-.002-.027c.007-.055.004-.109.002-.163l-.002-.027c.007-.055.004-.11.002-.164l-.002-.027c.007-.055.004-.109.002-.163l-.002-.027c.007-.055.004-.109.002-.163l-.002-.027c.007-.055.004-.11.002-.164l-.002-.027c.007-.055.004-.109.002-.163l-.002-.027c.007-.055.004-.109.002-.163l-.002-.027a.856.856 0 00.002-.16c-.103.686-.824 1.413-2.199 2.101l-8.3 4c-3.8 1.9-11.3 2.7-16.6 1.9l-11.6-1.8c-3.132-.464-4.851-1.399-5.001-2.473z" class="Subtract_4" clip-rule="evenodd"/>
      <g class="Group_15">
        <g class="Group_16">
          <path fill="#CDCDCD" d="M481.588 479.624c3.8-1.9 11.3-2.7 16.6-1.9l11.6 1.8c5.4.8 6.6 3 2.8 4.9l-8.3 4c-3.8 1.9-11.3 2.7-16.6 1.9l-11.6-1.8c-5.4-.8-6.6-3-2.8-4.9l8.3-4z" class="Vector_16"/>
        </g>
      </g>
      <path fill="#737373" fill-rule="evenodd" d="M509.788 479.524l-11.6-1.8 11.6 1.8zm-38.701 6.527l.002.058.002.027c-.007.055-.004.109-.002.163l.002.027c-.007.055-.004.11-.002.164l.002.027c-.007.055-.004.109-.002.163l.002.027c-.007.055-.004.109-.002.163l.002.027c-.007.055-.004.11-.002.164l.002.027c-.007.055-.004.109-.002.163l.002.027c-.007.055-.004.109-.002.163l.002.027c-.007.055-.004.11-.002.164l.002.027c-.007.055-.004.109-.002.163l.002.027c-.007.055-.004.109-.002.163l.002.027c-.007.055-.004.11-.002.164l.002.027c-.007.055-.004.109-.002.163l.002.027c-.007.055-.004.109-.002.163l.002.027c-.007.055-.004.109-.002.164l.002.027c-.007.055-.004.109-.002.163l.002.027c-.007.055-.004.109-.002.163l.002.027c-.007.055-.004.109-.002.164l.002.027c-.007.055-.004.109-.002.163l.002.027c-.007.055-.004.109-.002.163l.002.027c-.007.055-.004.109-.002.164l.002.027c-.007.055-.004.109-.002.163l.002.027c-.007.055-.004.109-.002.163l.002.027c-.007.055-.004.109-.002.164l.002.027c-.007.055-.004.109-.002.163l.002.027c-.007.055-.004.109-.002.163l.002.027c-.007.055-.004.109-.002.164l.002.027c-.007.055-.004.109-.002.163l.002.027c-.007.055-.004.109-.002.163l.002.027c-.007.055-.004.109-.002.164l.002.027c-.148 1.196 1.582 2.262 4.997 2.768l11.6 1.8c5.3.8 12.8 0 16.6-1.9l8.3-4c1.525-.763 2.232-1.573 2.198-2.322a.986.986 0 00.001-.163l-.001-.027a.986.986 0 00.001-.163l-.001-.027a.999.999 0 00.001-.164l-.001-.027a.986.986 0 00.001-.163l-.001-.027a.986.986 0 00.001-.163l-.001-.027a.999.999 0 00.001-.164l-.001-.027a.986.986 0 00.001-.163l-.001-.027a.986.986 0 00.001-.163l-.001-.027a.999.999 0 00.001-.164l-.001-.027a.986.986 0 00.001-.163l-.001-.027a.986.986 0 00.001-.163l-.001-.027a.999.999 0 00.001-.164l-.001-.027a.986.986 0 00.001-.163l-.001-.027a.986.986 0 00.001-.163l-.001-.027a.998.998 0 00.001-.164l-.001-.027a.986.986 0 00.001-.163l-.001-.027a.986.986 0 00.001-.163l-.001-.027a.998.998 0 00.001-.164l-.001-.027a.986.986 0 00.001-.163l-.001-.027a.986.986 0 00.001-.163l-.001-.027a.998.998 0 00.001-.164l-.001-.027a.986.986 0 00.001-.163l-.001-.027a.986.986 0 00.001-.163l-.001-.027a.998.998 0 00.001-.164l-.001-.027a.986.986 0 00.001-.163l-.001-.027a.986.986 0 00.001-.163l-.001-.027a.998.998 0 00.001-.164l-.001-.027a.986.986 0 00.001-.163l-.001-.027a.986.986 0 00.001-.163l-.001-.027a.94.94 0 00.001-.159c-.103.685-.823 1.412-2.199 2.1l-8.3 4c-3.8 1.9-11.3 2.7-16.6 1.9l-11.6-1.8c-3.132-.464-4.851-1.399-5.001-2.473z" class="Subtract_5" clip-rule="evenodd"/>
      <g class="Group_17">
        <g class="Group_18">
          <path fill="#CDCDCD" d="M599.76 421.925c3.8-1.9 11.3-2.7 16.6-1.9l11.6 1.8c5.4.8 6.6 3 2.8 4.9l-8.3 4c-3.8 1.9-11.3 2.7-16.6 1.9l-11.6-1.8c-5.4-.8-6.6-3-2.8-4.9l8.3-4z" class="Vector_17"/>
        </g>
      </g>
      <path fill="#737373" fill-rule="evenodd" d="M611.879 419.717c-4.472-.001-9.308.803-12.119 2.208l-8.3 4 8.3-4c2.811-1.405 7.647-2.209 12.119-2.208zm21.08 4.909c-.104.685-.824 1.412-2.199 2.099l-8.3 4c-3.8 1.9-11.3 2.7-16.6 1.9l-11.6-1.8c-3.133-.464-4.853-1.4-5.001-2.475l.002.06.002.027c-.007.055-.004.109-.002.163l.002.028c-.007.054-.004.108-.002.162l.002.028c-.007.055-.004.109-.002.163l.002.027c-.007.055-.004.109-.002.163l.002.028c-.007.054-.004.108-.002.162l.002.028c-.007.055-.004.108-.002.162l.002.028c-.007.055-.004.109-.002.163l.002.028c-.007.054-.004.108-.002.162l.002.028c-.007.055-.004.109-.002.162l.002.028c-.007.055-.004.109-.002.163l.002.028c-.007.054-.004.108-.002.162l.002.028c-.007.055-.004.109-.002.162l.002.028c-.007.055-.004.109-.002.163l.002.027c-.007.055-.004.109-.002.163l.002.028c-.007.055-.004.108-.002.162l.002.028c-.007.055-.004.109-.002.163l.002.027c-.007.055-.004.109-.002.163l.002.028c-.007.054-.004.108-.002.162l.002.028c-.007.055-.004.109-.002.163l.002.027c-.007.055-.004.109-.002.163l.002.028c-.007.054-.004.108-.002.162l.002.028c-.007.055-.004.109-.002.163l.002.027c-.007.055-.004.109-.002.163l.002.028c-.007.054-.004.108-.002.162l.002.028c-.007.055-.004.109-.002.163l.002.027c-.007.055-.004.109-.002.163l.002.028c-.007.054-.004.108-.002.162l.002.028c-.007.055-.004.109-.002.163l.002.027c-.007.055-.004.109-.002.163l.002.028c-.148 1.196 1.582 2.262 4.997 2.768l11.6 1.8c5.3.8 12.8 0 16.6-1.9l8.3-4c1.525-.762 2.232-1.572 2.198-2.322a.974.974 0 00.001-.162l-.001-.028a.986.986 0 00.001-.163l-.001-.027a.986.986 0 00.001-.163l-.001-.028a.974.974 0 00.001-.162l-.001-.028a.986.986 0 00.001-.163l-.001-.027a.986.986 0 00.001-.163l-.001-.028a.974.974 0 00.001-.162l-.001-.028a.986.986 0 00.001-.163l-.001-.027a.986.986 0 00.001-.163l-.001-.028a.974.974 0 00.001-.162l-.001-.028a.986.986 0 00.001-.163l-.001-.027a.986.986 0 00.001-.163l-.001-.028a.974.974 0 00.001-.162l-.001-.028a.975.975 0 00.001-.162l-.001-.028a.986.986 0 00.001-.163l-.001-.028a.974.974 0 00.001-.162l-.001-.028a.975.975 0 00.001-.162l-.001-.028a.986.986 0 00.001-.163l-.001-.027a.986.986 0 00.001-.163l-.001-.028a.974.974 0 00.001-.162l-.001-.028a.986.986 0 00.001-.163l-.001-.027a.986.986 0 00.001-.163l-.001-.028a.974.974 0 00.001-.162l-.001-.028a.986.986 0 00.001-.163l-.001-.027a.986.986 0 00.001-.163l-.001-.028a.974.974 0 00.001-.162l-.001-.028a.986.986 0 00.001-.163l-.001-.027a.986.986 0 00.001-.163l-.001-.028a.974.974 0 00.001-.162l-.001-.028a.927.927 0 00.001-.158z" class="Subtract_6" clip-rule="evenodd"/>
      <g class="Group_19">
        <g class="Group_20">
          <path fill="#CDCDCD" d="M571.111 436.374c3.8-1.9 11.3-2.7 16.6-1.9l11.6 1.8c5.4.8 6.6 3 2.8 4.9l-8.3 4c-3.8 1.9-11.3 2.7-16.6 1.9l-11.6-1.8c-5.4-.8-6.6-3-2.8-4.9l8.3-4z" class="Vector_18"/>
        </g>
      </g>
      <path fill="#737373" fill-rule="evenodd" d="M599.311 436.274l-11.6-1.8 11.6 1.8zm-38.702 6.527l.003.058.001.027c-.007.055-.004.109-.001.163l.001.027a.899.899 0 00-.001.164l.001.027c-.007.055-.004.109-.001.163l.001.027c-.007.055-.004.109-.001.163l.001.027a.899.899 0 00-.001.164l.001.027c-.007.055-.004.109-.001.163l.001.027c-.007.055-.004.109-.001.163l.001.027a.899.899 0 00-.001.164l.001.027c-.007.055-.004.109-.001.163l.001.027c-.007.055-.004.109-.001.163l.001.027a.899.899 0 00-.001.164l.001.027c-.007.055-.004.109-.001.163l.001.027c-.007.055-.004.109-.001.163l.001.027c-.007.055-.004.109-.001.164l.001.027c-.007.055-.004.109-.001.163l.001.027c-.007.055-.004.109-.001.163l.001.027c-.007.055-.004.109-.001.164l.001.027c-.007.055-.004.109-.001.163l.001.027c-.007.055-.004.109-.001.163l.001.027c-.007.055-.004.109-.001.164l.001.027c-.007.055-.004.109-.001.163l.001.027c-.007.055-.004.109-.001.163l.001.027c-.007.055-.004.109-.001.164l.001.027c-.007.055-.004.109-.001.163l.001.027c-.007.055-.004.109-.001.163l.001.027c-.007.055-.004.109-.001.164l.001.027c-.007.055-.004.109-.001.163l.001.027c-.007.055-.004.109-.001.163l.001.027c-.007.055-.004.109-.001.164l.001.027c-.147 1.196 1.582 2.262 4.998 2.768l11.6 1.8c5.3.8 12.8 0 16.6-1.9l8.3-4c1.525-.763 2.231-1.572 2.197-2.322.007-.055.004-.109.001-.164l-.001-.026a.899.899 0 00.001-.164l-.001-.026c.007-.056.004-.11.001-.164l-.001-.027c.007-.055.004-.109.001-.164l-.001-.026a.899.899 0 00.001-.164l-.001-.026a.9.9 0 00.001-.164l-.001-.027c.007-.055.004-.109.001-.164l-.001-.026a.899.899 0 00.001-.164l-.001-.026c.007-.056.004-.11.001-.164l-.001-.027c.007-.055.004-.109.001-.164l-.001-.026a.899.899 0 00.001-.164l-.001-.026a.9.9 0 00.001-.164l-.001-.027c.007-.055.004-.109.001-.164l-.001-.026a.899.899 0 00.001-.164l-.001-.026c.007-.056.004-.11.001-.164l-.001-.027c.007-.055.004-.109.001-.164l-.001-.026a.899.899 0 00.001-.164l-.001-.026a.9.9 0 00.001-.164l-.001-.027c.007-.055.004-.109.001-.164l-.001-.026a.899.899 0 00.001-.164l-.001-.026a.899.899 0 00.001-.164l-.001-.027c.007-.055.004-.109.001-.164l-.001-.026a.899.899 0 00.001-.164l-.001-.026a.9.9 0 00.001-.164l-.001-.027c.007-.055.004-.109.001-.164l-.001-.026a.899.899 0 00.001-.164l-.001-.026a.899.899 0 00.001-.164l-.001-.027c.007-.055.004-.109.001-.164l-.001-.026a.899.899 0 00.001-.164l-.001-.026c.007-.054.004-.107.002-.159-.104.685-.824 1.412-2.199 2.1l-8.3 4c-3.8 1.9-11.3 2.7-16.6 1.9l-11.6-1.8c-3.132-.464-4.851-1.399-5.002-2.473z" class="Subtract_7" clip-rule="evenodd"/>
      <g class="Group_21">
        <path fill="#CDCDCD" d="M502.06 409.124c5.3-2.6 15.6-3.7 23-2.6l67.4 10.4-140.4 68.5-67.4-10.4c-7.4-1.1-9.2-4.2-3.9-6.7l121.3-59.2z" class="Vector_19"/>
      </g>
      <path fill="#737373" fill-rule="evenodd" d="M377.728 471.597c-.001.034 0 .068.001.102a1.383 1.383 0 000 .254 1.383 1.383 0 000 .254 1.383 1.383 0 000 .255 1.37 1.37 0 000 .254c-.009.078-.005.154-.001.231a.177.177 0 01.001.023c-.009.078-.005.154-.001.231a.185.185 0 01.001.023 1.383 1.383 0 000 .254 1.383 1.383 0 000 .255 1.37 1.37 0 000 .254c-.009.078-.005.154-.001.231a.177.177 0 01.001.023c-.009.078-.005.154-.001.231a.185.185 0 01.001.023 1.383 1.383 0 000 .254 1.383 1.383 0 000 .255 1.37 1.37 0 000 .254 1.37 1.37 0 000 .254c-.009.078-.005.154-.001.231a.177.177 0 01.001.023 1.383 1.383 0 000 .254c-.009.078-.005.154-.001.231l.001.023a1.383 1.383 0 000 .255 1.37 1.37 0 000 .254c-.191 1.642 2.24 3.144 6.931 3.841l67.4 10.4 140.4-68.5-.396-.061.396-.193-.396-.061.396-.194-.396-.061.396-.193-.396-.061.396-.193-.396-.061.396-.193-.396-.061.396-.193-.396-.061.396-.194-.396-.061.396-.193-.396-.061.396-.193-.396-.061.396-.193-.396-.061.396-.193-.396-.061.396-.193-.396-.062.396-.193-.396-.061.396-.193-.396-.061.396-.193-.396-.061.396-.193-.396-.061.396-.193-.396-.062.396-.193-.396-.061.396-.193-.396-.061.396-.193-.396-.061.396-.193-.408-.063-139.992 68.301-67.4-10.4c-4.294-.638-6.703-1.95-6.932-3.427z" class="Subtract_8" clip-rule="evenodd"/>
      <g class="Group_22">
        <path fill="#CDCDCD" d="M644.161 428.225l31.1 4.8-22.1 10.8-31.1-4.8 22.1-10.8z" class="Vector_20"/>
      </g>
      <path fill="#737373" fill-rule="evenodd" d="M622.062 439.024l-.001-.001v.002l.001-.001zm-.001.001l.4 5.698 31.1 4.8 22-10.7-.3-5.8-.002.001.002.001-22.1 10.8-31.1-4.8z" class="Subtract_9" clip-rule="evenodd"/>
      <g class="Group_23">
        <path fill="#CDCDCD" d="M608.161 445.824l31.1 4.8-22.1 10.7-31.1-4.7 22.1-10.8z" class="Vector_21"/>
      </g>
      <path fill="#737373" fill-rule="evenodd" d="M617.161 461.325l22.1-10.7.4 5.7-22.1 10.8-31.1-4.8-.4-5.7 31.1 4.7z" class="Subtract_10" clip-rule="evenodd"/>
      <g class="Group_24">
        <path fill="#CDCDCD" d="M572.26 463.324l31.1 4.8-22.1 10.8-31.1-4.8 22.1-10.8z" class="Vector_22"/>
      </g>
      <path fill="#737373" fill-rule="evenodd" d="M581.26 478.925l22.1-10.8.3 5.7-22 10.8-31.1-4.8-.4-5.7 31.1 4.8z" class="Subtract_11" clip-rule="evenodd"/>
      <g class="Group_25">
        <path fill="#CDCDCD" d="M536.26 480.924l31.1 4.8-22.1 10.7-31.1-4.8 22.1-10.7z" class="Vector_23"/>
      </g>
      <path fill="#737373" fill-rule="evenodd" d="M545.26 496.425l22.1-10.7.4 5.7-22.1 10.7-31.1-4.8-.4-5.7 31.1 4.8z" class="Subtract_12" clip-rule="evenodd"/>
    </g>
    <path fill="#000" fill-opacity=".1" d="M503.666 424.841c-8.356-3-12.359-4.987-6.456-6.718 3.155-1.017 19.447-6.349 29.218-9.769 5.579-1.953 39.774.104 30.235 6.198-10.993 7.023-30.672 18.304-52.997 10.289z" class="Vector 2.3_2"/>
    <path fill="#000" fill-opacity=".1" d="M320.257 410.087c-8.357-3-12.36-4.987-6.456-6.717 3.155-1.018 19.447-6.35 29.218-9.77 5.579-1.953 39.773.104 30.235 6.198-10.993 7.023-30.672 18.304-52.997 10.289z" class="Vector 2_3"/>
    <path fill="#A3D3EC" d="M417.448 107.26c-.024 3.673 1.832 17.489 7.819 23.85 2.403 2.937 1.131-17.466-.875-25.308-2.007-7.842-6.92-2.215-6.944 1.458z" class="Vector_24"/>
    <path fill="#FED075" fill-rule="evenodd" d="M442.241 168.318c.031 1.58-.12 3.259-.504 5.139-3.504 17.148 27.692 10.267 28.789-.447.235-2.291.148-4.268-.166-6.157l.919-.001c22.914.002 45.122 3.382 58.349 6.172 38.159 8.046 78.793 15.499 143.209.119l9.521 39.879c-72.922 17.411-120.434 8.714-161.19.119-.39-.082-.794-.165-1.211-.248-1.271 15.5 1.167 34.735 2.756 47.274.827 6.526 1.425 11.237 1.149 12.665-.99 5.137-4.18 8.068-9.382 8.869l-63.681 5.776c-5.237.807-10.868 1.631-13.342-3.021-1.161-2.182-1.326-5.044-1.512-8.251-.217-3.761-.462-7.995-2.371-12.159-1.185-2.585-1.037-5.301-.885-8.081.164-3.007.332-6.09-1.181-9.162-1.742-3.538-7.585-16.339-8.836-20.15a373.652 373.652 0 00-4.711-13.027l-62.499 19.219a760.78 760.78 0 01-7.731 2.358c-.954.283-1.847.543-2.571.741a38.62 38.62 0 01-1.327.342 21.44 21.44 0 01-2.877.488l-.038.004c-.391.041-2.338.243-4.767-.081l-91.942-12.299 5.436-40.638 87.752 11.739s39.103-14.443 65.112-20.049c15.56-3.354 27.243-5.737 39.732-7.132z" class="Subtract_13" clip-rule="evenodd"/>
    <path fill="#7BCFF1" fill-rule="evenodd" d="M684.721 110.714c0-5.315-4.118-9.888-10.03-11.926-.27-8.328-9.11-15.015-19.976-15.015-7.011 0-13.179 2.784-16.745 6.996a26.053 26.053 0 00-3.238-.2c-6.078 0-11.523 2.092-15.188 5.394a21.515 21.515 0 00-5.468-.696c-9.353 0-16.936 5.846-16.936 13.058l87.581 2.389zM341.201 371.08l24.361 4.108 2.722.456c.07 1.51.163 2.997.286 4.428l.101 1.179v.002l.001.009c.291 3.385.557 6.477.798 9.735l-.02.003-.025.005-.05.008.23.068.013.004c-.845.512-1.691 1.017-2.539 1.515-5.936 3.485-11.966 6.606-18.392 9.183l.069.088.062.079c-1.698.481-3.272.91-4.759 1.287-10.412 2.636-16.602 2.679-31.578-.514-.676-.145-1.204-.623-1.59-1.346-2.611-4.886 1.226-20.952 9.012-20.676a46.93 46.93 0 014.629.378 5.59 5.59 0 01.649-.25l1.042-.338c7.464-2.415 12.26-3.966 14.978-9.411zm173.895 17.873c2.528.246 4.844.314 6.636.134 7.029-.71 16.497-11.887 15.25-16.948 1.836 1.367 3.38 2.865 4.244 4.529v-.001c.338.652.572 1.328.679 2.032a5.862 5.862 0 01-.053 2.032c-.645 3.223-2.932 14.426-5.694 24.796-.794 2.984-2.451 5.341-4.59 7.112-9.006 8.922-26.791 9.85-35.796 1.977-3.914-3.422 3.538-12.744 7.49-12.993 2.025-.128 4.607-.629 7.472-1.268.361-.901.611-1.607.65-1.943.704-2.289 1.594-4.362 2.391-6.219l.001-.002c.499-1.165.963-2.244 1.32-3.238zm190.601-213.74c-3.227-1.398-19.434 1.85-31.047 5.809l6.255 25.137c10.856.269 27.701-1.686 30.495-2.012 3.585-.504-13.014-8.816-13.014-8.816s21.117-.392 24.998-1.797c1.85-.601-8.509-14.251-17.687-18.321zm-456.712 14.54c-9.485-1.222-34.088-4.16-37.817-2.266-9.611 4.952-17.105 15.068-15.22 15.616 4.277 1.299 26.609 3.093 26.609 3.093s-11.557 8.044-7.534 8.342c.64.044 1.951.198 3.713.406h.003c6.257.737 18.211 2.145 26.145 1.634l4.101-26.825zm177.545-61.562c.164-3.252-.119-8.486-.659-13.357 11.111 1.675 28.873-2.648 38.294-6.955 1.579 7.81 4.465 17.977 5.857 18.808a31.844 31.844 0 01-.148-1.682l-.008-.121c.418-.268.848-.425 1.275-.448l.077-.008.019-.067.006.065c.136-.009.272-.004.408.02 2.22.35 3.46 4.18 2.76 8.54-.35 2.19-1.119 4.109-2.079 5.419v.002c-.54.741-1.14 1.291-1.76 1.601l-.076.052-.02.013a52.603 52.603 0 01-1.071 4.175l-.021.076-.002.007v.001c-.709 2.403-1.619 5.492-3.629 8.276.704 2.157 1.397 4.033 2.031 5.748 1.939 5.245 3.322 8.987 2.741 14.654-1.097 10.714-32.293 17.595-28.789.446 1.322-6.467-.123-10.55-2.206-16.433l-.484-1.374-.666-.465c-2.921-2.039-6.357-4.439-7.603-6.1-.371-.495-.888-1.841-1.498-3.758-2.048.431-4.866-2.064-6.506-5.867-1.717-3.98-1.506-7.915.448-8.909l.007-.004.114-.053c.277-.12.573-.177.881-.177.266 0 .542.043.824.126l.001.001c.071.021.143.044.215.071l.017.068h.001l.188.75.125.142a.729.729 0 00.53-.099c.305-.17.419-1.388.406-3.184zm-189.811-8.742c-7.282-11.918-24.6-11.911-31.869.02l-.004.007-.002.003-.004.006c-8.057 13.208-27.239 13.205-35.291-.009l-.006-.011-.003-.005c-7.264-11.905-24.536-11.925-31.833-.059l-.001.002-.043.07c-8.054 13.219-27.244 13.218-35.298 0l-.063-.103c-7.31-11.837-24.566-11.803-31.819.103a1 1 0 01-1.708-1.041c8.054-13.219 27.244-13.219 35.298 0l.063.103c7.296 11.813 24.498 11.803 31.777-.033v-.002l.043-.07c8.054-13.218 27.244-13.218 35.298 0l.006.01.003.005c7.278 11.928 24.603 11.925 31.875-.01l.004-.006.002-.004.004-.006c8.056-13.208 27.239-13.204 35.291.01l.002.004.013.02-1.735.996zm.012.021l1.723-1.017c3.586 5.87 9.597 8.846 15.657 8.932a1 1 0 01-.028 2c-6.705-.096-13.383-3.401-17.35-9.912l-.002-.003zm500.403 190.944c-7.282-11.918-24.599-11.911-31.869.02l-.004.007-.001.003-.004.006c-8.058 13.208-27.24 13.205-35.292-.01l-.006-.01-.003-.005c-7.264-11.905-24.536-11.925-31.833-.059l-.001.002-.043.07c-8.053 13.218-27.244 13.218-35.297 0l-.064-.104c-7.31-11.836-24.565-11.802-31.819.103a1 1 0 11-1.707-1.04c8.053-13.219 27.244-13.219 35.297 0l.063.103c7.297 11.813 24.499 11.802 31.777-.033l.001-.002.043-.07c8.053-13.218 27.244-13.218 35.297 0l.007.01.003.005c7.278 11.928 24.602 11.925 31.875-.01l.003-.006.002-.004.004-.006c8.057-13.208 27.24-13.205 35.291.01l.002.004.013.02-1.735.996zm1.735-.996c3.586 5.87 9.598 8.846 15.658 8.932a1 1 0 01-.029 1.999c-6.705-.095-13.382-3.4-17.35-9.911l-.002-.003 1.723-1.017z" class="Primary_2" clip-rule="evenodd"/>
    <path fill="#000" fill-opacity=".19" fill-rule="evenodd" d="M439.046 155.647c1.046.732 1.992 1.403 2.702 1.957a19.227 19.227 0 0011.979 2.413c3.514-.44 6.372-2.01 9.476-4.643a15.481 15.481 0 002.542-2.755c.705 2.185 1.399 4.093 2.034 5.836 1.93 5.303 3.307 9.085 2.747 14.555-1.097 10.714-32.294 17.594-28.789.446 1.322-6.467-.123-10.55-2.206-16.434l-.485-1.375z" class="Subtract_14" clip-rule="evenodd"/>
    <path fill="#000" fill-opacity=".17" fill-rule="evenodd" d="M439.046 155.648c1.045.732 1.992 1.403 2.701 1.957a19.222 19.222 0 0011.979 2.412c.927-.116 1.808-.31 2.66-.582-.166.094-.345.202-.539.318l-.055.033c-2.468 1.482-7.154 4.296-15.171.388a150.404 150.404 0 00-1.091-3.153l-.006-.018c-.156-.441-.316-.892-.478-1.355z" class="Subtract_15" clip-rule="evenodd"/>
    <path fill="#000" fill-opacity=".15" fill-rule="evenodd" d="M470.901 124.441a2.805 2.805 0 00-1.037.422c.044.701.099 1.351.172 1.933-.069 2.848.023 5.199.104 7.277.088 2.251.164 4.182.01 6.08a3.028 3.028 0 00.751-.358v-15.354z" class="Subtract_16" clip-rule="evenodd"/>
    <path fill="#000" fill-opacity=".15" fill-rule="evenodd" d="M425.263 130.514c1.43 5.707 2.883 11.247 4.016 14.812-2.048.431-4.866-2.064-6.506-5.867-1.752-4.061-1.497-8.075.569-8.966.578-.249 1.235-.228 1.921.021z" class="Subtract_17" clip-rule="evenodd"/>
    <path fill="#000" fill-opacity=".15" fill-rule="evenodd" d="M429.109 145.355l-6.549-14.288c.222-.25.483-.445.783-.574.577-.249 1.234-.228 1.921.021 1.43 5.707 2.882 11.247 4.016 14.812a1.968 1.968 0 01-.171.029z" class="Subtract_18" clip-rule="evenodd"/>
    <path fill="#000" fill-opacity=".15" fill-rule="evenodd" d="M470.15 140.152c.154-1.897.078-3.828-.01-6.079-.081-2.079-.173-4.43-.104-7.278a31.814 31.814 0 01-.172-1.932c.418-.269.848-.425 1.275-.449.17-.02.34-.02.51.01 2.22.35 3.46 4.18 2.76 8.54-.35 2.19-1.12 4.11-2.08 5.42-.54.74-1.14 1.29-1.76 1.6a2.908 2.908 0 01-.419.168z" class="Subtract_19" clip-rule="evenodd"/>
    <path fill="#2E4E5B" d="M448.187 149.193a.666.666 0 00-.939.083.666.666 0 00.081.94l.858-1.023zm9.954-.564a.667.667 0 00-1.013-.869l1.013.869zm-10.812 1.587c1.632 1.371 3.705 1.724 5.664 1.368a9.017 9.017 0 005.148-2.955l-1.013-.869a7.678 7.678 0 01-4.374 2.511c-1.647.299-3.297-.011-4.567-1.078l-.858 1.023z" class="Vector_25"/>
    <path fill="#fff" fill-opacity=".392" d="M435.408 125.583l4.559-.571-8.652 14.464-3.12-2.8 7.213-11.093z" class="Vector_26"/>
    <path fill="#fff" fill-opacity=".392" d="M442.296 128.998l1.357 1.097-7.38 11.854-1.817-.988 7.84-11.963z" class="Vector_27"/>
    <path fill="#fff" fill-opacity=".392" d="M460.302 121.15l4.128.728-8.486 13.735-2.854-3.369 7.212-11.094z" class="Vector_28"/>
    <path fill="#fff" fill-opacity=".392" d="M467.191 124.564l1.358 1.097-7.38 11.854-1.818-.989 7.84-11.962z" class="Vector_29"/>
    <path fill="#fff" fill-opacity=".28" stroke="#2E4E5B" stroke-width="2.031" d="M437.113 141.227a8.184 8.184 0 007.105-9.139 8.184 8.184 0 00-9.139-7.105 8.185 8.185 0 00-7.105 9.139 8.185 8.185 0 009.139 7.105z" class="Vector_30"/>
    <path fill="#fff" fill-opacity=".28" stroke="#2E4E5B" stroke-width="2.031" d="M461.898 137.438a8.184 8.184 0 007.105-9.139 8.186 8.186 0 10-7.105 9.139z" class="Vector_31"/>
    <path fill="#2E4E5B" d="M454.152 141.422l-5.191-9.893-2.014 10.795s1.617 1.436 3.855 1.095c2.239-.342 3.35-1.997 3.35-1.997z" class="Vector_32"/>
    <path fill="#FE8475" fill-rule="evenodd" d="M425.871 114.833c.54 4.871.824 10.105.659 13.357.013 1.796-.101 3.015-.405 3.184a.731.731 0 01-.531.099l-.197-.224a1.496 1.496 0 01-.13-.139c-4.606-4.894-6.767-14.202-7.507-19.907-7.738-8.8-10.428-46.16-1.136-47.452l1.544-.294 1.691-.322 1.126-.214 2.439 7.616 2.386-8.552c8.157-1.63 15.669-3.472 23.254-7.07l5.615-2.496c1.142-.692 3.26-2.133 4.352-2.919 13.104 11.319 12.211 29.01 11.534 42.415-.177 3.502-.339 6.712-.233 9.439 1.341 3.885 3.479 17.108.237 24.952-.97 2.902-4.569-9.354-6.404-18.428-9.421 4.307-27.183 8.63-38.294 6.955zm-28.223 149.701c-13.848.434-29.727.932-47.215.931-6.438 8.805-13.723 103.243-11.911 105.163l27.04 4.56 3.82.64.02-.24.03-.23c2.016-20.765 6.502-48.061 11.21-70.23l.013-.078.007-.032s29.73.604 49.233 1.031c-9.336 6.162-17.613 12.442-23.603 17.748-4.62 4.09-12.25 12.71-12.82 21.08-.57 8.38 6.8 15.06 12.69 16.88 9.659 2.971 32.767 8.445 53.049 13.251 18.229 4.319 34.175 8.097 36.021 9.029.098.057.599.26 1.182.495l.004.002.002.001h.002l.24.097.16.065.18.074.142.057.008.003.003.001c.174.07.343.138.497.205 5.91 2.43 18.01 4.66 24.08 4.05 7.03-.71 16.5-11.89 15.25-16.95-2.06-8.33-13.02-14.46-26.47-19.05-6.38-2.18-13.33-4.02-20.14-5.58-2.44-.55-4.86-1.07-7.23-1.56-4-.83-7.86-1.56-11.44-2.21-2.059-.38-4.024-.734-5.866-1.066l-.005-.001-.014-.003-.008-.001h-.001l-.003-.001h-.002c-4.691-.846-8.584-1.548-11.201-2.158 4.35-2.01 8.8-3.81 13.21-5.44 6.312-2.329 12.53-4.319 18.218-6.139l.003-.001h.001l.001-.001c8.962-2.867 16.605-5.313 21.217-7.999 11.2-6.52 16.09-20.58 14.31-42.55l-.314.012c-1.616 1.768-3.882 2.868-6.768 3.312l-47.856 4.341h-.001l-15.601 1.415v.001l-.223.02c-5.237.807-10.868 1.631-13.343-3.021-1.16-2.182-1.326-5.044-1.511-8.251-.218-3.761-.462-7.995-2.371-12.159l-.017-.037c-9.499-.304-21.622.076-35.908.524h-.001zm97.137 146.362c-1.499 3.952.212 6.084 1.596 7.37 12.809 11.9 30.162 7.586 38.416-2.331 5.777-6.939 6.893-16.569 7.83-24.661.403-3.472.772-6.661 1.463-9.232.374-1.39-1.199-3.32-2.321-4.698-.2-.245-.385-.472-.543-.676.653 1.256.917 2.606.626 4.064-.644 3.223-2.932 14.425-5.693 24.795-.795 2.987-2.454 5.344-4.594 7.115-9.007 8.919-26.789 9.846-35.793 1.974-1.045-.914-1.28-2.249-.987-3.72zm-183.893-9.519c.386.723.913 1.201 1.59 1.346 17.115 3.649 22.754 3.072 36.336-.773l-.075-.096-.056-.071c7.344-2.945 14.172-6.601 20.931-10.698l-.013-.004.081-.048c-.051.494.08.873.21 1.249.126.366.252.731.209 1.197a4.19 4.19 0 00-.011.559c.016.508.024.759-.902 1.353-6.033 3.873-10.735 5.957-17.256 8.846a768.397 768.397 0 00-4.066 1.811c-8.796 3.952-22.755 3.205-33.529 1.681-1.139-.161-3.952-3.783-3.449-6.352zM615.267 600.48l96.017-119.123 86.889 119.123H615.267z" class="Secondary" clip-rule="evenodd"/>
    <g class="Group 3">
      <path fill="#521F20" fill-opacity=".2" d="M596.916 194.257c-.54 1.486-1.785 2.414-2.677 2.09-.892-.324-1.146-1.291-.528-2.715.54-1.486 1.468-3.302 2.36-2.979.892.324 1.384 2.118.845 3.604z" class="Vector_33"/>
      <path fill="#521F20" fill-opacity=".2" d="M313.592 199.622c-.54 1.486-1.785 2.413-2.677 2.09-.891-.324-1.146-1.291-.528-2.715.54-1.487 1.468-3.303 2.36-2.979.892.324 1.384 2.118.845 3.604z" class="Vector_34"/>
      <path fill="#521F20" fill-opacity=".2" d="M401.56 185.029c0 1.6-1.3 2.1-2.9 2.1-1.6 0-2.9-.6-2.9-2.1 0-1.6 1.3-2.9 2.9-2.9 1.6 0 2.9 1.4 2.9 2.9z" class="Vector_35"/>
      <path fill="#fff" fill-rule="evenodd" d="M446.627 232.21c17.5 1.6 31.7-.5 50.6-10.2.9-.5 2-.2 2.7.6-20 10.499-35.8 13.8-50.5 12.8-14.7-.9-28.4-6.1-32.6-8.7-.5-.3-.6-1-.4-1.5.2-.6.8-.8 1.3-.5 3.9 2.5 14.4 6.6 28.9 7.5z" class="Vector_36" clip-rule="evenodd"/>
      <path fill="#fff" fill-rule="evenodd" d="M446.913 211.398c17.6 0 31.6-3.5 49.8-14.9.9-.6.862 2.101 1.562 2.801-19.3 12.3-33.662 14.599-48.362 14.999-14.7.4-28.7-3.4-33-5.6-.5-.2-.7-.9-.5-1.5.2-.6.8-.8 1.2-.6 4.1 2.1 14.8 5.3 29.3 4.8z" class="Vector_37" clip-rule="evenodd"/>
      <path fill="#521F20" fill-opacity=".2" d="M506.096 177.638c1.6 0 5.4-.7 5.4.8 0 1.6-3.4 4.4-5 4.4s-5.9.1-5.9-1.4c0-1.6 3.9-3.8 5.5-3.8z" class="Vector_38"/>
    </g>
    <path fill="#2E4E5B" fill-rule="evenodd" d="M507.251 320.927c-4.612 2.686-12.255 5.132-21.217 8-5.689 1.82-11.909 3.811-18.223 6.14-4.384 1.621-13.109 5.397-13.209 5.44 2.638.611 6.565 1.318 11.299 2.171h.001c5.028.906 10.966 1.976 17.239 3.269 2.37.49 4.789 1.01 7.229 1.56l.001-.001c6.81 1.56 13.76 3.4 20.14 5.58 13.45 4.59 24.41 10.72 26.47 19.05 1.25 5.06-8.22 16.24-15.25 16.95-6.07.61-18.17-1.62-24.08-4.05a18.393 18.393 0 00-.497-.205c-.11-.044-.221-.088-.333-.135 10.62-2.27 31.9-9.68 32.69-15.96.66-5.179-16.488-12.359-28.807-16.829h-.003c-8.99-1.3-19.9-3.44-33.14-6.66-9.06-2.2-21.526-.644-21.526-.644l4.316-4.336-14.32 5.36 5.14-4.98-8.883-1.482 7.633-.898-5.695-2.343s5.394.068 12.006.027c25.111-3.888 53.007-15.2 61.015-23.771 9.231-9.882 8.986-18.732 8.785-25.981-.049-1.759-.095-3.423-.003-4.985 1.95-.07 3.933-1.581 5.364-3.021 2.163 22.357-2.942 36.214-14.142 42.734z" class="Union_2" clip-rule="evenodd"/>
    <path fill="#2E4E5B" d="M429.959 306.048c-19.502-.426-49.298-1.031-49.298-1.031s-.01.04-.02.11c-.48 2.26-8.069 38.68-10.11 58.91l-.359 3.65c-.031.35-.07.69-.1 1.02l-.051.51c-.05.51-.099.99-.139 1.45-.06.58-.111 1.11-.15 1.6l-.3 3.09-.031.23-.019.24-3.82-.64 9.48-71.05-5.201-7.43 8.854 4.336-9.224-16.826 16.721 16.97s59.82-7.14 65.41-10.2c-4.36 3.362-17.092 12.07-21.643 15.061z" class="Vector_39"/>
    <path fill="#FBFBF6" d="M470.569 117.884a1.282 1.282 0 01-2.065 1.517l2.065-1.517zm-11.569.21a1.28 1.28 0 01-1.274-2.221l1.274 2.221zm9.504 1.307c-.55-.75-1.721-1.787-3.344-2.278-1.573-.476-3.656-.465-6.16.971l-1.274-2.221c3.099-1.779 5.909-1.886 8.175-1.201 2.214.669 3.829 2.069 4.668 3.212l-2.065 1.517z" class="Vector_40"/>
    <path fill="#FBFBF6" d="M423.281 124.767a1.023 1.023 0 101.93.686l-1.93-.686zm13.018-4.616a1.024 1.024 0 10.129-2.043l-.129 2.043zm-11.088 5.302c.626-1.762 3.721-5.765 11.088-5.302l.129-2.043c-8.271-.521-12.211 4.025-13.147 6.659l1.93.686z" class="Vector_41"/>
    <path stroke="#2E4E5B" stroke-linecap="round" stroke-miterlimit="10" stroke-width="4" d="M336.88 374.609c5.954-.157 10.015 2.329 14.027 6.535" class="Vector_42"/>
    <path stroke="#2E4E5B" stroke-linecap="round" stroke-miterlimit="10" stroke-width="4" d="M324.175 378.02c6.806-.535 12.166 3.008 16.609 7.772" class="Vector_43"/>
    <path stroke="#2E4E5B" stroke-linecap="round" stroke-miterlimit="10" stroke-width="4" d="M510.512 390.727l21.453.811" class="Vector_44"/>
    <path stroke="#2E4E5B" stroke-linecap="round" stroke-miterlimit="10" stroke-width="4" d="M507.247 397.773s10.819.917 15.888 1.859" class="Vector_45"/>
    <g class="Group_26">
      <path stroke="#2A7BBC" stroke-linecap="round" stroke-width=".985" d="M699.023 179.076c5.323-1.061 9.923-1.967 14.275-2.514" class="Vector_46"/>
      <path stroke="#2A7BBC" stroke-linecap="round" stroke-width=".985" d="M701.688 183.503c2.662-.53 13.665-2.404 16.686-2.684" class="Vector_47"/>
      <path stroke="#2A7BBC" stroke-linecap="round" stroke-width=".985" d="M703.673 188.852c5.525-.881 16.481-2.213 20.2-2.379" class="Vector_48"/>
    </g>
    <g class="Group 4">
      <path stroke="#2A7BBC" stroke-linecap="round" stroke-width="1.072" d="M221.001 191.649c-2.992-.37-15.01-1.559-18.342-1.684" class="Vector_49"/>
      <path stroke="#2A7BBC" stroke-linecap="round" stroke-width="1.072" d="M219.309 197.599c-6.062-.632-18.068-1.161-22.032-1.091" class="Vector_50"/>
    </g>
  </g>
  <defs>
    <clipPath id="clip0" class="clip0">
      <path fill="#fff" d="M0 0h800v600H0z"/>
    </clipPath>
  </defs>
</svg>
