<svg xmlns="http://www.w3.org/2000/svg" width="1152" height="700" fill="none" viewBox="0 0 1152 700">
  <g class="time">
    <path fill="#fff" d="M0 0h1152v700H0z"/>
    <path fill="url(#paint0_linear)" d="M0 0h1152v700H0z"/>
    <g class="Group 2.1">
      <g class="Group">
        <g class="Group_2">
          <path fill="#2ABEA4" d="M471.826 596.616c8.588-11.047 12.45-47.436-40.809-104.616-7.069 23.322-8.804 76.897 40.809 104.616z" class="Vector 14"/>
          <path fill="#020202" fill-opacity=".21" d="M471.826 596.616c8.588-11.047-19.822-26.675-40.809-104.616-7.069 23.322-8.803 76.896 40.809 104.616z" class="Vector 14.1"/>
        </g>
        <path fill="#3AD1B6" d="M491.914 625.638c7.387-15.573 12.525-68.474-32.515-119.264-14.075 36.236-3.9 109.202 32.515 119.264z" class="Vector 12"/>
        <path fill="#000" fill-opacity=".21" d="M491.914 625.638c-15.788-38.407-22.077-62.065-32.515-119.264-14.075 36.236-3.9 109.202 32.515 119.264z" class="Vector 12.1"/>
        <path fill="#2AB39A" d="M491.792 626.162c3.394-23.758-9.943-81.456-90.44-122.183 1.997 33.341 22.879 104.454 90.44 122.183z" class="Vector 13"/>
        <path fill="#000" fill-opacity=".26" d="M491.792 626.162c-17.164-23.359-39.025-31.444-90.44-122.183 1.996 33.341 22.879 104.454 90.44 122.183z" class="Vector 13.1"/>
        <g class="Group_3">
          <path fill="#3AD1B6" d="M490.294 626.162c.699-13.975-17.009-45.998-93.434-62.29 7.587 23.159 36.895 68.04 93.434 62.29z" class="Vector 14_2"/>
          <path fill="#020202" fill-opacity=".21" d="M490.295 626.162c.698-13.975-31.538-10.481-93.435-62.289 7.587 23.159 36.895 68.039 93.435 62.289z" class="Vector 14.1_2"/>
        </g>
      </g>
      <g class="Group 2">
        <circle cx="683.239" cy="493.855" r="134.761" fill="#FF695F" class="Ellipse"/>
        <path fill="#000" fill-opacity=".62" fill-rule="evenodd" d="M681.442 427.973a1.199 1.199 0 012.396 0v69.026a7.497 7.497 0 015.84 5.84h42.075a1.198 1.198 0 010 2.396h-41.978a7.488 7.488 0 01-14.921-.899 7.488 7.488 0 016.588-7.433v-68.93z" class="Union" clip-rule="evenodd"/>
        <path fill="#fff" fill-opacity=".13" d="M753.914 405.509L582.618 545.96l6.588 10.781 174.291-141.948-9.583-9.284z" class="Vector 4"/>
        <path fill="#fff" fill-opacity=".06" d="M768.588 419.585L593.1 562.431c4.69 7.005 9.731 11.133 19.765 20.963l169.499-146.141-13.776-17.668z" class="Vector 4.1"/>
        <path fill="#000" fill-opacity=".14" d="M610.469 433.659c5.862-8.794 20.363-18.567 20.363-18.567s25.156-10.781 32.942 0c13.727 19.007-19.765 26.952-28.15 49.113-6.967 18.411-.599 43.99-16.171 48.813-26.03 8.063-34.14-41.626-8.984-79.359z" class="Vector 3"/>
        <path fill="#000" fill-opacity=".06" d="M774.573 484.417c-2.829-10.184-11.679-21.86-11.679-21.86s-23.957-23.36-31.744-12.579c-13.727 19.008 20.963 30.809 20.963 54.503 0 22.461-40.129 56.269-24.556 61.093 26.029 8.062 58.995-38.033 47.016-81.157z" class="Vector 3.1"/>
        <path fill="#000" fill-opacity=".1" d="M761.4 572.913c-179.381 72.771-216.815-119.787-129.37-179.382-74.268 40.429-66.782 117.692-50.011 153.927 56 88.942 149.534 56.999 179.381 25.455z" class="Vector 2"/>
        <path fill="#fff" fill-opacity=".17" d="M818 493.855c0 74.426-60.335 134.761-134.761 134.761-74.426 0-134.761-60.335-134.761-134.761 0-74.427 60.335-134.761 134.761-134.761 74.426 0 134.761 60.334 134.761 134.761zm-247.644 0c0 62.343 50.54 112.882 112.883 112.882 62.343 0 112.882-50.539 112.882-112.882 0-62.344-50.539-112.883-112.882-112.883s-112.883 50.539-112.883 112.883z" class="Ellipse_2"/>
        <path fill="#000" fill-opacity=".1" d="M557.939 444.25a134.764 134.764 0 00101.095 182.173 134.756 134.756 0 0077.73-8.895c24.461-10.586 14.454-30.095-8.689-20.078a112.884 112.884 0 01-149.793-145.147c11.179-28.242-10.532-32.835-20.343-8.053z" class="Ellipse_3"/>
        <path fill="#000" fill-opacity=".18" fill-rule="evenodd" d="M681.143 393.834a2.097 2.097 0 10-.002-4.194 2.097 2.097 0 00.002 4.194zm102.418 100.622a2.096 2.096 0 100-4.192 2.096 2.096 0 000 4.192zm-98.226 96.43a2.097 2.097 0 100-4.194 2.097 2.097 0 000 4.194zm-97.926-96.732a2.096 2.096 0 11-4.192 0 2.096 2.096 0 014.192 0z" class="Union_2" clip-rule="evenodd"/>
      </g>
      <g class="hourglass">
        <path fill="#fff" fill-opacity=".57" fill-rule="evenodd" d="M491.579 425.474v127.803c12.703-22.769 31.44-45.165 53.904-52.295v-24.631c-22.315-7.062-41.094-28.679-53.904-50.877zm137.156 125.108V428.189c-18.198 28.077-36.011 42.703-52.706 48.09V501.329c16.599 5.642 34.387 20.644 52.706 49.253zm11.68-225.029h.599l-6.289 15.572v270.721h1.797l6.289 15.572H479.6l6.588-12.687V341.125h-.299l-8.085-15.572h162.611z" class="Union_3" clip-rule="evenodd"/>
        <path fill="#FFBE73" fill-rule="evenodd" d="M503.858 437.254c5.889 9.683 31.144 34.659 42.824 35.936 3.234.354 5.389 1.263 7.393 2.109 5.233 2.208 9.437 3.983 29.142-5.703 27.251-13.395 43.123-35.037 29.348-35.037-4.587 0-11.238.989-18.566 2.079-14.682 2.184-32.079 4.771-41.029.616-12.596-5.848-20.462-4.431-26.389-3.364-1.964.354-3.715.669-5.354.669-5.271 0-15.473 1.797-17.369 2.695zm12.69 162.595c4.352-1.789 9.642-3.964 16.059-8.37 13.448-9.233 17.075-12.547 20.711-12.556 1.788-.004 3.578.791 6.54 2.075 2.847 1.234 6.586-.202 10.53-1.715 6.012-2.308 12.5-4.798 17.021 1.713 0 0 11.928 5.968 19.166 10.483 11.054 6.896 26.653 20.064 26.653 20.064H502.66c2.936-7.19 7.354-9.007 13.888-11.694z" class="Union_4" clip-rule="evenodd"/>
        <path fill="#000" fill-opacity=".12" d="M539.625 591.243c-4.312 3.593-15.572 7.287-21.562 10.481-5.989 3.194 3.617 1.261 6.589 1.498 11.802.94 14.973-7.487 28.749-11.979 3.024-.987-1.197-8.685-4.792-6.589-3.593 2.096-4.671 2.994-8.979 6.585l-.005.004z" class="Vector 3_2"/>
        <path fill="#000" fill-opacity=".09" d="M567.344 589.984c.97-6.735 14.375-12.578 14.375-8.386 0 4.639 7.385 4.932 10.481 8.385 7.785 8.685 25.156 8.985 25.156 13.776 0 5.847-12.877 2.096-12.877 2.096s-11.974-8.937-20.963-11.38c-4.677-1.27-17.14 2.239-16.172-4.491z" class="Vector 3_3"/>
        <path fill="#000" fill-opacity=".05" d="M629.335 424.977c-39.231 68.578-119.189-34.139-119.189-84.151h119.189v84.151z" class="Vector"/>
        <path fill="#000" fill-opacity=".12" d="M554.467 477.983l-8.684-1.497v24.856h4.791l3.893-23.359z" class="Vector_2"/>
        <path fill="#000" fill-opacity=".09" d="M490.979 425.279v-78.761s16.832 115.513 64.386 131.467c-12.278 0-37.733-10.182-64.386-52.706z" class="Vector 9.2"/>
        <path fill="#000" fill-opacity=".03" d="M543.687 611.846h-52.108c-1.797-67.98 31.744-100.223 54.204-110.504h4.791c-34.259 51.269-20.264 93.733-6.887 110.504z" class="Vector_3"/>
        <path fill="#505050" fill-rule="evenodd" d="M477.804 325.553l8.085 15.572h.299v273.606l-6.588 12.687h163.211l-6.289-15.572h-1.797V341.125l6.289-15.572h-163.21zm150.931 286.293V341.125H491.579v270.721h137.156z" class="Union_5" clip-rule="evenodd"/>
        <path fill="#000" fill-opacity=".25" d="M490.68 339.33l-5.69-11.38h65.584l6.588 11.38H490.68z" class="Vector 2_2"/>
        <path fill="#000" fill-opacity=".25" d="M589.506 339.33l-6.289-11.38h37.554l5.569 11.38h-36.834z" class="Vector 2.1"/>
        <path fill="#000" fill-opacity=".25" d="M497.269 625.622l-5.69-11.38h65.584l6.588 11.38h-66.482z" class="Vector 2.2"/>
        <path fill="#000" fill-opacity=".25" d="M596.094 625.622l-6.289-11.38h37.554l5.569 11.38h-36.834z" class="Vector 2.3"/>
      </g>
      <g class="Group 3">
        <g class="calender">
          <path fill="#DBDBDB" d="M531.409 132.094v-56.9l90.14-2.994v59.894h-90.14z" class="Vector 8"/>
          <path fill="#F3F0F0" d="M528.115 132.094V74.296l93.434-2.096v59.894h-93.434z" class="Vector 8.1"/>
          <path fill="#000" fill-opacity=".02" d="M611.067 89.869L605.976 72.2h15.572v59.894l-10.481-42.225z" class="Vector 8.3"/>
          <path fill="#000" fill-opacity=".04" d="M528.115 132.094V74.895l20.064 43.123 5.99 14.076h-26.054z" class="Vector 8.2"/>
          <path fill="#C4C4C4" d="M537.982 83.336l20.352-.71.041 1.197-20.351.71z" class="Rectangle"/>
          <path fill="#C4C4C4" d="M537.997 81.296l10.706-.374.042 1.197-10.706.374z" class="Rectangle_2"/>
          <path fill="#000" fill-opacity=".09" fill-rule="evenodd" d="M546.744 99.75l.537-10.196.598.032-.535 10.165h7.486l.536-10.197.598.032-.535 10.165h6.887l.537-10.197.598.032-.535 10.165h7.486l.537-10.197.598.032-.535 10.165h6.887l.537-10.197.598.032-.535 10.165h7.486l.536-10.197.598.032-.535 10.165h6.887l.537-10.197.598.032-.535 10.165h7.486l.537-10.197.598.032-.535 10.165h4.728v.598h-4.76l-.441 8.386h5.201v.599h-5.233l-.441 8.385h5.674v.599h-5.706l-.284 5.407-.598-.031.283-5.376h-7.486l-.285 5.407-.598-.031.283-5.376h-6.887l-.285 5.407-.598-.031.283-5.376h-7.486l-.284 5.407-.598-.031.283-5.376h-6.887l-.285 5.407-.598-.031.283-5.376h-7.486l-.285 5.407-.598-.031.283-5.376h-6.887l-.284 5.407-.598-.031.283-5.376h-7.486l-.285 5.407-.598-.031.283-5.376h-2.978v-.599h3.009l.442-8.385h-3.451v-.599h3.482l.442-8.386h-3.924v-.599h3.955zm.568.599l-.441 8.386h7.486l.441-8.386h-7.486zm8.086 0l-.441 8.386h6.887l.441-8.386h-6.887zm7.487 0l-.442 8.386h7.486l.442-8.386h-7.486zm8.085 0l-.441 8.386h6.887l.441-8.386h-6.887zm7.487 0l-.441 8.386h7.486l.441-8.386h-7.486zm8.086 0l-.442 8.386h6.887l.442-8.386h-6.887zm7.487 0l-.442 8.386h7.486l.441-8.386h-7.485zm7.013 8.985h-7.486l-.442 8.385h7.486l.442-8.385zm-8.527 8.385l.441-8.385h-6.887l-.441 8.385h6.887zm-7.487 0l.441-8.385h-7.486l-.441 8.385h7.486zm-8.086 0l.441-8.385h-6.886l-.442 8.385h6.887zm-7.487 0l.442-8.385h-7.486l-.441 8.385h7.485zm-8.085 0l.441-8.385h-6.887l-.441 8.385h6.887zm-7.487 0l.441-8.385h-7.486l-.441 8.385h7.486z" class="Union_6" clip-rule="evenodd"/>
          <circle cx="582.019" cy="104.842" r="2.096" fill="#FF5151" class="Ellipse 2"/>
          <circle cx="596.693" cy="121.312" r="1.198" fill="#FF5151" class="Ellipse 2.3"/>
          <circle cx="566.147" cy="113.527" r="1.198" fill="#41BFBF" class="Ellipse 2.1"/>
          <circle cx="559.559" cy="95.557" r="1.198" fill="#41BFBF" class="Ellipse 2.2"/>
          <path fill="#C4C4C4" fill-rule="evenodd" d="M590.397 71l.598.042-.292 4.182-.598-.042.292-4.182zm-25.155 1.2l.597.041-.292 4.182-.598-.041.293-4.183zm-28.894.582l.597.041-.292 4.183-.598-.042.293-4.182zm6.134.016l.597.042-.292 4.182-.597-.042.292-4.182zm5.988.042l-.597-.042-.292 4.182.597.042.292-4.182zm4.793-.042l.598.042-.293 4.182-.597-.042.292-4.182zm5.988.042l-.597-.042-.292 4.182.597.042.292-4.182zm11.978-.599l-.597-.042-.292 4.183.597.041.292-4.182zm4.794-.042l.597.042-.292 4.182-.598-.041.293-4.183zm5.987.042l-.597-.042-.292 4.183.597.041.292-4.182zm14.375-1.2l-.597-.041-.293 4.182.598.042.292-4.182zm4.794-.041l.597.042-.292 4.182-.598-.042.293-4.182zm5.987.042l-.597-.042-.293 4.182.598.042.292-4.182z" class="Union_7" clip-rule="evenodd"/>
        </g>
        <g class="man">
          <path fill="#608CFF" fill-rule="evenodd" d="M597.465 209.986l9.397-25.156 7.972-55.701s-4.885-10.24 0-7.187c4.791 2.994 4.492 0 4.492 0s-.414-5.69 2.096-9.284c3.762-5.386 1.312 14.375 1.312 14.375s-.074 53.354-4.606 75.466c-3.538 17.257-11.266 29.947-11.266 29.947-5.878-5.275-10.273-9.886-9.397-22.46zm-64.386-3.397l-6.589-23.358 2.915-48.712s-.068-3.194 5.391-8.386c2.801-2.664-5.391 0-5.391 0s-.691-7.213-1.417-10.481c-1.198-5.39-2.995 13.476-2.995 13.476s-10.781 39.93-14.674 62.889c-2.133 12.577 8.385 34.637 8.385 34.637 10.243-1.26 13.852-4.986 14.375-20.065zm39.53 11.402c3.787-3.159 6.38-9.431 6.38-15.74 0-8.959-5.229-16.222-11.679-16.222s-11.679 7.263-11.679 16.222c0 6.373 2.646 12.709 6.496 15.835v8.671h10.482v-8.766z" class="Union_8" clip-rule="evenodd"/>
          <path fill="#000" fill-opacity=".06" d="M611.839 190.522c-3.048 12.263-12.877 25.754-12.877 25.754l-2.396-5.989s9.168-18.54 10.781-28.45c2.097-12.877 4.492-30.845 4.492-30.845s3.543 25.277 0 39.53z" class="Vector 12_2"/>
          <path fill="#000" fill-opacity=".08" d="M513.613 209.088c-2.759-8.847-2.396-21.561-2.396-21.561-4.791 16.471 8.086 43.123 11.081 39.829 0 0-6.609-11.612-8.685-18.268z" class="Vector 12_3"/>
          <path fill="#000" fill-opacity=".06" d="M521.999 186.029c0-14.674 7.187-53.904 7.187-53.904 0 .958-1.997 34.638-2.995 51.209 6.588 18.567 2.995 18.567 14.375 30.546l-3.594 7.486s-14.973-21.098-14.973-35.337z" class="Vector 12_4"/>
          <path fill="#fff" fill-opacity=".16" d="M578.989 202.25c0 8.959-5.229 17.844-11.679 17.844s-11.679-8.885-11.679-17.844c0-8.958 5.229-16.221 11.679-16.221s11.679 7.263 11.679 16.221z" class="Ellipse_4"/>
          <path fill="#462EDC" d="M549.341 195.472c-3.354 5.031 1.307 11.12 5.299 11.519l2.097.599c.798-4.691-.221-16.675 3.593-13.775 7.487 5.69 17.07-3.155 17.07 2.395 0 3.115-.935 5.252.662 6.45 6.229 3.114 5.191-3.494 3.893-7.188 5.75-2.395 1.597-8.185-1.198-10.781 1.438-4.312-6.388-5.989-10.481-6.288-1.437-9.344-9.184-1.497-12.877 3.594-6.229-.24-6.36 3.932-5.961 6.727-4.073-.24-2.895 4.452-2.097 6.748z" class="Vector 7"/>
          <path fill="#5439FC" d="M508.222 354.03c2.455-14.567 14.974-34.738 14.974-34.738l7.487-25.754 61.69-3.294v12.278s21.55 42.524 19.765 55.401c-1.785 12.878-4.432 31.025-5.39 34.14-.959 3.114-9.983 4.292-14.375 4.492v-34.738l-29.048-36.536-28.15 28.749c-1.498 14.874-4.492 45.28-4.492 47.915 0 2.636-9.384 3.095-14.075 2.995 0 0-10.505-38.332-8.386-50.91z" class="Vector 3_4"/>
          <path fill="#000" fill-opacity=".15" d="M542.661 304.019c-8.864 6.708-26.253 40.528-33.839 56.6-2.696-15.872 14.873-40.429 23.658-56.6h10.181z" class="Vector 12_5"/>
          <path fill="#000" fill-opacity=".22" d="M599.86 338.16l-19.765-37.733h12.278l11.68 29.947c1.916 3.354 7.187 15.872 7.187 24.556 0 8.685-3.794 36.011-5.39 33.84-7.487-10.182 1.756-21.484 0-31.744-1.692-9.879-5.99-18.866-5.99-18.866z" class="Vector 12_6"/>
          <path fill="#000" fill-opacity=".2" d="M525.891 379.786c-2.395 16.471 4.792 22.161 4.792 22.161l4.192-48.215 28.15-28.449 5.69 6.289s4.3-5.368 0-7.188c-7.786-3.295-8.968-8.14-11.679-5.39-21.262 21.562-25.184 13.799-26.353 32.043-1.17 18.244-2.396 12.278-4.792 28.749z" class="Vector 12_7"/>
          <path fill="#FFC8C8" fill-rule="evenodd" d="M531.581 201.3c-7.387 8.086-18.028 21.502-15.871 33.241 4.791 1.098 10.241 11.919 9.283 22.461l-9.283 64.984 32.642-12.577v-6.888l29.647-2.695 2.995 15.272c4.192-1.896 15.273-4.552 22.46 0-7.786-60.193-6.588-73.309 8.984-83.851 2.129-8.674-4.713-23.306-12.578-30.546-3.494 9.084-14.075 21.263-25.155 23.658-4.193.907-29.348 4.492-43.124-23.059zm86.469 211.125c-27.462-2.327-26.589-6.765-25.632-11.626.274-1.393.555-2.822.177-4.246 3.594 0 10.881-2.595 14.075-3.893 5.673 8.441 11.602 12.086 14.921 14.127 3.865 2.376 4.192 2.577-3.541 5.638zm-111.924 17.967c-12.958 2.817 11.68-25.754 11.68-25.754 3.269 1.008 10.394-.64 12.577-2.696 0 0 4.08 9.64 0 11.68-6.373 3.186-10.747 7.065-14.407 10.311-3.564 3.16-6.452 5.72-9.85 6.459z" class="Union_9" clip-rule="evenodd"/>
          <path fill="#000" fill-opacity=".1" d="M618.05 412.427c-35.337-2.995-23.758-9.483-25.455-15.872 3.594 0 10.881-2.595 14.075-3.893 12.279 18.268 25.755 14.075 11.38 19.765z" class="Vector 11.1"/>
          <path fill="#fff" d="M594.47 404.341l.898-5.39c.719 2.635 6.688 7.686 9.583 9.883-4.312.239-8.784-2.895-10.481-4.493z" class="Vector 19"/>
          <path fill="#fff" d="M618.428 405.238l-1.797 1.198 1.797 1.198 1.796-1.198-1.796-1.198z" class="Vector 18"/>
          <path fill="#fff" d="M621.422 407.036l-1.797 1.198 1.797 1.198 1.797-1.198-1.797-1.198z" class="Vector 18.1"/>
          <path fill="#000" fill-opacity=".21" d="M604.053 397.153l3.893-1.497c1.917 4.072 7.587 7.886 10.182 9.283l-2.396 1.198c-5.27-1.677-9.982-6.688-11.679-8.984z" class="Vector 17"/>
          <path fill="#000" fill-opacity=".1" d="M506.126 430.396c-12.958 2.817 11.68-25.754 11.68-25.754 3.269 1.007 10.394-.64 12.577-2.696 0 0 4.08 9.64 0 11.68-12.577 6.288-17.369 15.272-24.257 16.77z" class="Vector 10.1"/>
          <path fill="#000" fill-opacity=".15" d="M525.592 407.036c-3.354 1.438-10.781 9.783-14.075 13.776-2.396 0-3.893 0-3.893-.599 0-.479 7.087-9.583 10.481-13.776.959.48 5.391.599 7.487.599z" class="Vector 16"/>
          <path fill="#fff" d="M508.522 427.4c-2.695.299-2.995.299-5.391.299.4-.798 1.438-2.695 1.198-2.695h5.091l-.898 2.396z" class="Vector 14_3"/>
          <path fill="#fff" d="M506.426 422.011l-.599.898h4.792l.599-.898h-4.792z" class="Vector 15.1"/>
          <path fill="#000" fill-opacity=".04" d="M599.261 250.771c3.744-23.868 1.56-41.027 0-47.072 8.19 4.68 11.797 19.772 12.577 27.182-7.956 3.042-11.7 14.527-12.577 19.89z" class="Vector 13_2"/>
          <path fill="#000" fill-opacity=".06" d="M527.09 317.495c5.091-45.819 15.487-63.563 1.497-107.509-9.283 2.995-14.576 19.861-12.577 23.658 15.871 15.273 10.182 27.551 0 87.744l11.08-3.893z" class="Vector 12_8"/>
          <path fill="#EBFFFB" d="M558.533 224.062c-1.916 2.395-7.586 53.305-10.181 78.46l29.647-2.695c-3.594-8.864-2.895-54.104-2.096-75.765-3.834 1.437-13.177.599-17.37 0z" class="Vector 2_3"/>
          <path fill="#000" fill-opacity=".04" d="M558.533 224.062c-1.916 2.395-7.586 53.305-10.181 78.46l15.572-1.497-2.695-49.412s0-11.38-2.696-27.551z" class="Vector 2.1_2"/>
          <path fill="#fff" d="M523.712 411.536c2.096-2.396 1.796-3.893 2.994-5.39 0 0 1.797-5.69 1.797 1.497 0 1.17-.299 3.294-.299 3.294l-6.589 3.893c-.199-.199-.27-.589 2.097-3.294z" class="Vector 2_4"/>
        </g>
        <path fill="#fff" fill-opacity=".15" d="M563.276 190.52c.967 1.796 9.882 3.893 11.38.898-7.487 0-13.477-4.792-11.38-.898z" class="Vector_4"/>
      </g>
      <path fill="#000" fill-opacity=".29" d="M487.985 345.318l2.995-6.589v259.939l-2.995-7.487V345.318z" class="Rectangle_3"/>
      <path fill="#000" fill-opacity=".29" d="M629.334 341.724l2.995-6.589v259.939l-2.995-7.487V341.724z" class="Rectangle_4"/>
      <g class="Group_4">
        <g class="Group_5">
          <path fill="#2ABEA4" d="M647.709 598.469c-8.588-11.047-12.45-47.436 40.809-104.616 7.069 23.322 8.804 76.896-40.809 104.616z" class="Vector 14_4"/>
          <path fill="#020202" fill-opacity=".21" d="M647.709 598.469c-8.588-11.047 19.822-26.675 40.809-104.616 7.069 23.322 8.804 76.896-40.809 104.616z" class="Vector 14.1_3"/>
        </g>
        <path fill="#3AD1B6" d="M627.621 627.491c-7.387-15.573-12.525-68.474 32.515-119.264 14.075 36.236 3.9 109.201-32.515 119.264z" class="Vector 12_9"/>
        <path fill="#000" fill-opacity=".21" d="M627.621 627.491c15.788-38.407 22.077-62.065 32.515-119.264 14.075 36.236 3.9 109.201-32.515 119.264z" class="Vector 12.1_2"/>
        <path fill="#2AB39A" d="M627.744 628.015c-3.394-23.758 9.942-81.456 90.439-122.184-1.996 33.341-22.879 104.455-90.439 122.184z" class="Vector 13_3"/>
        <path fill="#000" fill-opacity=".26" d="M627.744 628.015c17.163-23.359 39.024-31.445 90.439-122.184-1.996 33.341-22.879 104.455-90.439 122.184z" class="Vector 13.1_2"/>
        <g class="Group_6">
          <path fill="#3AD1B6" d="M629.241 628.015c-.699-13.976 17.01-45.999 93.434-62.29-7.587 23.159-36.894 68.039-93.434 62.29z" class="Vector 14_5"/>
          <path fill="#020202" fill-opacity=".21" d="M629.241 628.015c-.699-13.975 31.537-10.481 93.434-62.289-7.587 23.158-36.895 68.039-93.434 62.289z" class="Vector 14.1_4"/>
        </g>
      </g>
      <path stroke="#000" stroke-opacity=".23" stroke-width="1.797" d="M367 628.015h403.384" class="Vector_5"/>
    </g>
  </g>
  <defs>
    <linearGradient id="paint0_linear" x1="576" x2="576" y1="0" y2="700" class="paint0_linear" gradientUnits="userSpaceOnUse">
      <stop stop-color="#fff"/>
      <stop offset="1" stop-color="#fff" stop-opacity="0"/>
    </linearGradient>
  </defs>
</svg>
