<svg xmlns="http://www.w3.org/2000/svg" width="802" height="600" fill="none" viewBox="0 0 802 600">
  <g class="ui_threed_elements_and_backgrounds_for_your_composition_one">
    <path fill="#fff" d="M0 0h800v600H0z"/>
    <path fill="#1BA6DC" d="M800.432 0h-800v600h800V0z" class="Primary"/>
    <path fill="#fff" fill-opacity=".31" d="M800.432 467.592h-800v16.551h800v-16.551z" class="Vector"/>
    <path fill="#fff" fill-opacity=".15" d="M800.432 484.144h-800v16.551h800v-16.551z" class="Vector_2"/>
    <path stroke="#0D0D0D" d="M87.004 347.922s-100.32-55.28 14.796-88.871m595.723-59.258c42.942-13.176 81.604-37.319 103.17-64.259M275.591 53.672a1078.796 1078.796 0 00-18.918-6.528C120.256 1.45 18.324 54.604 101.8 135.904" class="Vector_3"/>
    <path stroke="#0D0D0D" d="M87.004 347.921s-107.971-59.495 28.645-92.547c51.878-12.551 151.174 3.76 12.731-97.305C.577 64.771 108.199-2.588 256.673 47.143c116.175 38.912 168.077 77.036 304.694 147.635 77.353 39.972 194.417-3.496 239.099-58.961" class="Vector_4" opacity=".1"/>
    <path fill="#fff" fill-opacity=".03" d="M800.432 500.695h-800v16.551h800v-16.551z" class="Vector_5"/>
    <path fill="#000" fill-opacity=".06" d="M800.432 517.246h-800v16.551h800v-16.551z" class="Vector_6"/>
    <path fill="#000" fill-opacity=".49" d="M800.432 533.796h-800v16.551h800v-16.551z" class="Vector_7"/>
    <path fill="#000" fill-opacity=".61" d="M800.432 550.347h-800v16.551h800v-16.551z" class="Vector_8"/>
    <path fill="#000" fill-opacity=".7" d="M800.432 566.898h-800v16.551h800v-16.551z" class="Vector_9"/>
    <path fill="#000" fill-opacity=".78" d="M800.432 583.448h-800V600h800v-16.552z" class="Vector_10"/>
    <path fill="#F2F2F2" fill-rule="evenodd" d="M748.25 119c0 23.999-19.455 43.454-43.454 43.454-23.999 0-43.454-19.455-43.454-43.454 0-23.998 19.455-43.453 43.454-43.453 23.999 0 43.454 19.455 43.454 43.453zM362.959 467.011l.011.58h171.885v.001H362.97v.001H237.765l-7.556.035-31.973.149 54.673-144.36 33.598 43.758 72.27-128.29 4.177 227.856.206.269-.201.001zm30.429-149.036l30.681 69.99 47.936-163.617 73.541 243.234 80.38.383-112.424-177.617-25.852-214.59-94.262 242.217zM148.824 168.449l-73.402 14.014 55.636 17.583 82.691.865-64.925-32.462zm36.482-32.219l66.36.576-45.236 16.855-21.124-17.431z" class="Secondary" clip-rule="evenodd"/>
    <path fill="#000" fill-opacity=".36" fill-rule="evenodd" d="M652.196 362.719L487.683 76.042l25.818 214.306 112.188 177.244h175.279l-.537-.379-148.235-104.494zM487.399 75.547l.198.345-.124.317-.074-.662zM362.969 467.59h182.579l-22.311-73.792-51.233-169.451-47.936 163.617-65.29-148.942 4.177 227.82.014.018h-.014l.014.73zm-164.911-.001H0l102.69-95.087 84.695 44.635 65.334-94.435 7.49 10.322-7.491-9.757-54.104 143.593-.556.729zM358.64 239.127l.094-.205.009.021-.103.184zm-131.599-25.596l-12.962-12.569-65.117-32.453 36.066-32.202 21.531 17.264 45.02-16.757 78.846 78.069-107.151-52.884 107.27 53.303H229.011l.015.154-.159-.154h-1.215l-.095-.275-125.395 1.141 28.855-16.203 82.397.672 13.806 13.414-.179-.52zM44.264 198.078l31.204-15.598 55.626 17.38-29.489 16.544-57.341-18.326z" class="Union" clip-rule="evenodd"/>
    <path fill="#fff" fill-opacity=".24" fill-rule="evenodd" d="M101.217 373.868l1.474-1.365 84.695 44.635 65.334-94.435 7.49 10.322 26.265 34.208 72.166-128.106.094-.205.009.021.033-.058.002.138 34.609 78.951 94.086-241.765-.074-.662.198.345.052-.134.034.284L652.197 362.72l45.551 32.11V161.885c-20.647-3.367-36.406-21.285-36.406-42.885 0-21.599 15.759-39.517 36.406-42.885v-8.93c0-7.804-6.326-14.13-14.13-14.13H115.346c-7.803 0-14.129 6.326-14.129 14.13v110.353l47.607-9.089 64.373 32.186.218.002.227.221.107.053h-.052l13.524 13.14-.179-.52-12.962-12.569-65.117-32.453 36.066-32.202 13.046 10.461-12.769-10.538 66.36.576-.069.026 78.829 78.051-107.152-52.885 107.271 53.304H229.012l.015.154-.159-.154h-1.215l-.095-.275-125.395 1.141 28.776-16.159-.069-.022-29.264 16.417-.389-.124v157.588z" class="Subtract" clip-rule="evenodd"/>
    <path stroke="#000" d="M.576 423.104c36.51 60.703 149.595 159.847 237.533 19.796 52.718-83.961 104.501-121.421 317.138-132.439 226.894-11.755 295.567 124.362 125.599 146.532-169.968 22.171-163.669 107.65 7.713 104.668h111.925" class="Vector_11"/>
    <path fill="#fff" fill-opacity=".16" d="M330.544 214.916l-78.846-78.069-45.225 16.833 124.071 61.236z" class="Vector_12"/>
    <path fill="#000" fill-opacity=".29" d="M227.651 215.398l-21.288-61.706 124.18 61.706H227.651z" class="Vector_13"/>
    <path fill="#000" fill-opacity=".46" fill-rule="evenodd" d="M207.266 154.142l-.902-.449 20.629 59.796-12.919-12.527-65.117-32.453 36.066-32.202 22.243 17.835zm21.75 61.257h-.053l.058.057-.005-.057z" class="Subtract_2" clip-rule="evenodd"/>
    <path fill="#fff" fill-opacity=".26" d="M75.468 182.48l-31.204 15.598 57.341 18.326 29.489-16.544-55.626-17.38z" class="Vector_14"/>
  </g>
</svg>
