<svg xmlns="http://www.w3.org/2000/svg" width="1152" height="700" fill="none" viewBox="0 0 1152 700">
  <g clip-path="url(#clip0)">
    <path fill="#fff" d="M0 0h1152v700H0z"/>
    <path fill="#ECE6E6" d="M309.881 283.953c17.221 134.004 184.383 214.372 245.846 212.572 118.051-3.457-75.633-60.032 186.951-109.448C1005.26 337.66 614.956 28.197 531.588 136.7c-54.159 70.486-243.232-20.252-221.707 147.253z" class="Vector"/>
    <g class="plant">
      <path fill="#EE7E79" d="M777.307 243.172c5.242 1.028 10.093 9.56 11.863 13.697 1.025 1.325 3.176 3.039 3.583-.706.509-4.682 4.271-10.292 7.249-11.165 1.019 3.235 2.275 10.089-.859 11.623-3.917 1.918-7.299 9.457-2.939 6.879 4.36-2.577 5.424-8.8 16.003-8.881-.512 3.346-3.539 11.12-11.558 15.45-10.025 5.412-7.416 11.77-2.171 7.873 5.245-3.897 9.725-10.221 19.699-10.469-.38 4.37-2.694 13.646-8.915 15.788-7.776 2.678-20.024 8.815-17.443 11.743 2.582 2.927 15.067-9.27 21.461-10.244 5.115-.779 8.708-.857 9.865-.799-.471 4.388-3.928 13.774-13.985 16.215-12.57 3.05-23.988 7.592-19.865 11.074 4.122 3.483 11.592-8.012 22.229-9.249 8.51-.991 10.304-.027 10.137.579-.708 3.671-5.112 11.545-17.063 13.672-14.939 2.658-20.238 6.28-17.603 9.483 2.636 3.203 11.488-9.996 29.385-6.365-1.351 3.798-6.049 11.73-14.031 13.074-9.977 1.68-24.26 6.214-21.353 10.795 2.908 4.581 12.913-7.127 23.271-6.878 8.286.2 8.336.648 7.325.847-.119 3.269-2.386 10.264-10.502 12.092-10.144 2.286-29 6.862-26.923 13.039 2.076 6.176 8.824-3.171 15.334-6.459 5.209-2.63 13.489-2.754 16.977-2.488-1.333 3.89-5.664 11.941-12.322 13.024-8.324 1.355-27.188 8.796-26.427 12.655.761 3.858 8.929-1.188 13.619-3.544 4.69-2.356 11.643-6.304 18.801-4.852.045 3.619-2.29 11.333-11.992 13.246-12.129 2.39-22.712 3.904-21.734 8.865.978 4.962 4.197-3.404 13.895-3.598 7.758-.155 11.605.767 12.559 1.247-.945 2.954-4.543 8.913-11.375 9.115-8.541.252-21.217 1.318-19.796 5.62 1.421 4.302 8.327-2.787 12.955-2.554 3.702.187 8.152.684 9.915.909-.376 2.938-4.652 8.649-18.755 7.993-2.553.121-7.386.883-6.29 2.957 1.371 2.594 10.696-2.394 14.163-.787-.226 1.763-1.833 5.229-6.461 4.996-4.627-.233-10.534 3.699-12.908 5.695-.266-1.284-1.234-4.339-2.976-6.286-.944-2.161-2.751-4.687-5.529-6.355-6.821-4.096-8.451-12.366-6.521-12.746 1.929-.38 8.128 9.279 10.279 8.569 2.151-.711-2.077-6.177-6.584-10.156-3.605-3.184-4.669-11.584-4.75-15.386 2.144 1.677 6.804 6.047 8.291 10.106l.109.296c1.802 4.923 3.113 8.502 5.656 7.158 2.593-1.37-3.059-9.705-8.33-16.111-4.218-5.125-4.148-14.264-3.586-18.192 1.594 1.308 5.375 4.61 7.748 7.349 2.966 3.424 5.193 14.725 7.569 12.253 2.376-2.473-5.694-12.909-11.73-21.741-4.829-7.066-2.933-15.362-1.381-18.627 1.944 1.144 5.949 4.612 6.42 9.329.59 5.897 6.665 20.735 10.035 17.494 3.37-3.242-8.264-20.134-11.331-26.974-2.453-5.473-.369-12.527.98-15.37 2.639 1.771 5.054 5.304 7.189 10.324 2.135 5.019 6.447 19.632 10.372 14.85 3.925-4.783-8.268-18.701-13.539-25.107-4.218-5.125-3.413-14.409-2.484-18.41 2.201.998 9.235 7.629 11.04 12.428 1.805 4.798 7.445 17.431 9.883 12.369 2.439-5.062-10.364-17.715-15.084-24.23-3.776-5.211-3.449-14.592-2.814-18.63 8.634 6.029 12.03 13.091 12.845 17.226.815 4.134 7.061 16.934 9.328 13.91 2.268-3.024-5.899-18.309-12.277-23.065-5.103-3.804-6.502-13.131-6.564-17.318 1.211.334 12.43 7.858 13.082 11.166.652 3.307 3.063 8.273 6.797 12.691 3.734 4.418 3.937-9.08-7.449-15.999-9.109-5.535-11.064-16.909-10.904-21.904 18.203 12.447 9.654 15.564 19.115 21.431 9.46 5.866 2.885-7.155-5.861-12.303-6.997-4.119-9.82-15.436-10.357-20.58 7-.807 14.064 14.695 19.728 18.733 5.664 4.037 5.082-4.725-4.157-10.921-7.391-4.957-9.363-14.572-9.425-18.759 5.288.675 9.022 5.093 13.517 13.371 4.495 8.277 6.992 2.058 2.159-3.576-3.866-4.506-5.296-10.887-5.527-13.514z" class="Vector 3"/>
      <path fill="#EDC7C5" d="M777.658 335.02c-18.917 46.395-22.074 72.502-23.333 89.359-.266-1.284-1.234-4.339-2.976-6.286-.944-2.161-2.751-4.687-5.529-6.355-6.821-4.096-8.451-12.366-6.521-12.746 1.929-.38 8.128 9.279 10.279 8.569 2.151-.711-2.077-6.177-6.584-10.156-3.605-3.184-4.669-11.584-4.75-15.386 2.144 1.677 6.804 6.047 8.291 10.106l.109.296c1.802 4.923 3.113 8.502 5.656 7.158 2.593-1.37-3.059-9.705-8.33-16.111-4.218-5.125-4.148-14.264-3.586-18.192 1.594 1.308 5.375 4.61 7.748 7.349 2.966 3.424 5.193 14.725 7.569 12.253 2.376-2.473-5.694-12.909-11.73-21.741-4.829-7.066-2.933-15.362-1.381-18.627 1.944 1.144 5.949 4.612 6.42 9.329.59 5.897 6.665 20.735 10.035 17.494 3.37-3.242-8.264-20.134-11.331-26.974-2.453-5.473-.369-12.527.98-15.37 2.639 1.771 5.054 5.304 7.189 10.324 2.135 5.019 6.447 19.632 10.372 14.85 3.925-4.783-8.268-18.701-13.539-25.107-4.218-5.125-3.413-14.409-2.484-18.41 2.201.998 9.235 7.629 11.04 12.428 1.805 4.798 7.445 17.431 9.883 12.369 2.439-5.062-10.364-17.715-15.084-24.23-3.776-5.211-3.449-14.592-2.814-18.63 8.634 6.029 12.03 13.091 12.845 17.226.815 4.134 7.061 16.934 9.328 13.91 2.268-3.024-5.899-18.309-12.277-23.065-5.103-3.804-6.502-13.131-6.564-17.318 1.211.334 12.43 7.858 13.082 11.166.652 3.307 3.063 8.273 6.797 12.691 3.734 4.418 3.937-9.08-7.449-15.999-9.109-5.535-11.064-16.909-10.904-21.904 18.203 12.447 9.654 15.564 19.115 21.431 9.46 5.866 2.885-7.155-5.861-12.303-6.997-4.119-9.82-15.436-10.357-20.58 7-.807 14.064 14.695 19.728 18.733 5.664 4.037 5.082-4.725-4.157-10.921-7.391-4.957-9.363-14.572-9.425-18.759 5.288.675 9.022 5.093 13.517 13.371 4.495 8.277 6.992 2.058 2.159-3.576-3.866-4.506-5.296-10.887-5.527-13.514 5.242 1.028 10.093 9.56 11.863 13.697 2.468 10.586 3.622 41.036-11.512 78.151z" class="Vector 3.1"/>
    </g>
    <circle cx="623" cy="289" r="145" fill="#4B5361" class="Ellipse 2"/>
    <path fill="#B7CFFD" d="M513.884 276.985c-9.518-7.207-26.722-11.65-33.384-12.985l-1.5 8.5-.5 9-.5 10 .5 10 1.5 10 1.5 9.5c6.662-1.335 22.866-5.778 32.384-12.985 11.896-9.009 45.683 14.013 62.815 48.547 17.131 34.533 66.146 29.528 98.506-31.03 12.943-22.422 67.256-25.692 92.795-24.524v-17.016c-25.539 1.168-66.05-1.54-78.994-23.962-32.36-60.558-81.375-65.563-98.506-31.03s-64.72 56.994-76.616 47.985z" class="color 1"/>
    <path fill="#EDC7C5" fill-opacity=".5" d="M739.219 281.979c11.719 0 21.867-14.139 26.781-15.479l1.5 9v6l.5 17-2.5 17c-4.914-1.34-14.562-15.479-26.281-15.479-12.179 0-31.428 40.814-44.064 75.479-12.635 34.665-39.41 36.675-63.277-24.115-9.546-22.507-49.605-50.514-68.44-49.342-5.782 1.668-19.313 8.217-27.188 21.066-9.844 16.061-47.344 27.66-56.25-8.003v-48.212c8.906-35.663 46.406-24.064 56.25-8.003 7.875 12.849 21.406 19.398 27.188 21.066 18.835 1.172 58.894-2.11 68.44-24.618 23.867-60.79 50.642-58.78 63.277-24.115 12.636 34.666 31.885 50.755 44.064 50.755z" class="Vector_2"/>
    <g class="lines">
      <path stroke="#fff" stroke-width="3" d="M483.5 281.418v19" class="Line"/>
      <path stroke="#fff" stroke-width="3" d="M533.414 281.418v19" class="Line_2"/>
      <path stroke="#fff" stroke-width="3" d="M489.373 273.418v35" class="Line_3"/>
      <path stroke="#fff" stroke-width="3" d="M526.564 273.418v35" class="Line_4"/>
      <path stroke="#fff" stroke-width="3" d="M496.223 255.418v69" class="Line_5"/>
      <path stroke="#fff" stroke-width="3" d="M519.713 255.418v69" class="Line_6"/>
      <path stroke="#fff" stroke-width="3" d="M502.096 236.418v108" class="Line_7"/>
      <path stroke="#fff" stroke-width="3" d="M514.818 236.418v108" class="Line_8"/>
      <path stroke="#fff" stroke-width="3" d="M507.969 229.418v122" class="Line_9"/>
      <path stroke="#fff" stroke-width="3" d="M539.287 282.418v19" class="Line_10"/>
      <path stroke="#fff" stroke-width="3" d="M589.201 282.418v19" class="Line_11"/>
      <path stroke="#fff" stroke-width="3" d="M545.16 274.418v35" class="Line_12"/>
      <path stroke="#fff" stroke-width="3" d="M582.352 274.418v35" class="Line_13"/>
      <path stroke="#fff" stroke-width="3" d="M552.01 256.418v69" class="Line_14"/>
      <path stroke="#fff" stroke-width="3" d="M575.5 256.418v69" class="Line_15"/>
      <path stroke="#fff" stroke-width="3" d="M557.883 237.418v108" class="Line_16"/>
      <path stroke="#fff" stroke-width="3" d="M570.605 237.418v108" class="Line_17"/>
      <path stroke="#fff" stroke-width="3" d="M563.756 230.418v122" class="Line_18"/>
      <path stroke="#fff" stroke-width="3" d="M596.053 282.418v19" class="Line_19"/>
      <path stroke="#fff" stroke-width="3" d="M645.969 282.418v19" class="Line_20"/>
      <path stroke="#fff" stroke-width="3" d="M601.926 274.418v35" class="Line_21"/>
      <path stroke="#fff" stroke-width="3" d="M639.117 274.418v35" class="Line_22"/>
      <path stroke="#fff" stroke-width="3" d="M608.777 256.418v69" class="Line_23"/>
      <path stroke="#fff" stroke-width="3" d="M632.266 256.418v69" class="Line_24"/>
      <path stroke="#fff" stroke-width="3" d="M614.648 237.418v108" class="Line_25"/>
      <path stroke="#fff" stroke-width="3" d="M627.373 237.418v108" class="Line_26"/>
      <path stroke="#fff" stroke-width="3" d="M620.521 230.418v122" class="Line_27"/>
      <path stroke="#fff" stroke-width="3" d="M652.818 282.418v19" class="Line_28"/>
      <path stroke="#fff" stroke-width="3" d="M702.734 282.418v19" class="Line_29"/>
      <path stroke="#fff" stroke-width="3" d="M658.691 274.418v35" class="Line_30"/>
      <path stroke="#fff" stroke-width="3" d="M695.883 274.418v35" class="Line_31"/>
      <path stroke="#fff" stroke-width="3" d="M665.543 256.418v69" class="Line_32"/>
      <path stroke="#fff" stroke-width="3" d="M689.031 256.418v69" class="Line_33"/>
      <path stroke="#fff" stroke-width="3" d="M671.414 237.418v108" class="Line_34"/>
      <path stroke="#fff" stroke-width="3" d="M684.139 237.418v108" class="Line_35"/>
      <path stroke="#fff" stroke-width="3" d="M677.287 230.418v122" class="Line_36"/>
      <path stroke="#fff" stroke-width="3" d="M709.586 282.418v19" class="Line_37"/>
      <path stroke="#fff" stroke-width="3" d="M759.5 282.418v19" class="Line_38"/>
      <path stroke="#fff" stroke-width="3" d="M715.457 274.418v35" class="Line_39"/>
      <path stroke="#fff" stroke-width="3" d="M752.648 274.418v35" class="Line_40"/>
      <path stroke="#fff" stroke-width="3" d="M722.309 256.418v69" class="Line_41"/>
      <path stroke="#fff" stroke-width="3" d="M745.799 256.418v69" class="Line_42"/>
      <path stroke="#fff" stroke-width="3" d="M728.182 237.418v108" class="Line_43"/>
      <path stroke="#fff" stroke-width="3" d="M740.904 237.418v108" class="Line_44"/>
      <path stroke="#fff" stroke-width="3" d="M734.053 230.418v122" class="Line_45"/>
    </g>
    <g class="Group 3">
      <path fill="#B7CFFD" d="M454.256 534.007c-16.607-1.66-24.911-20.528-26.986-29.755 6.642-15.5 25.833-14.762 34.598-12.455 25.603 1.153 78.331 7.335 84.421 22.835 6.089 15.5-28.371 58.126-46.362 77.501h-15.916l33.215-64.353c-8.304 3.459-42.21 8.303-62.97 6.227z" class="color 1_2"/>
      <path fill="#EDC7C5" d="M416.196 379.006c-1.107-1.107-4.613-.461-6.227 0-5.536 1.845-14.532 8.442-6.228 20.067s13.147 14.993 14.531 15.223c3.116-.461 9.277-1.937 8.996-4.151-.461-3.46-1.384-11.21-1.384-14.532 0-4.152 3.46-5.536 3.46-8.303 0-2.768-4.844-3.46-4.844-4.152 0-.692 0-3.46-1.384-2.768-1.384.692-5.536 0-6.92-1.384z" class="Vector 2"/>
      <path fill="#FFCB56" d="M405.126 376.238c2.537-1.384 7.75-2.768 8.303 2.768.692 6.919-2.076 11.763 1.384 17.299s5.536 11.764 2.076 12.456c-3.46.692-13.839 3.46-20.067-5.536 8.996 31.139-6.92 31.139-17.991 43.594-11.072 12.456 8.303 13.148 0 28.371-8.304 15.223-31.831-8.304-31.831-22.143 0-13.84 28.371-18.683 28.371-26.295 0-7.612 8.995-15.915 14.531-17.991 4.429-1.661 4.343-8.996 3.746-12.456-1.633-7.078 1.607-14.353 11.478-20.067z" class="Vector 5"/>
      <path fill="#EDC7C5" d="M455.639 419.14h-5.536c-1.661 2.215-.692 6.459 0 8.304 7.612.692 23.112 1.384 24.219-1.384 1.384-3.46.692-6.92-8.304-13.839-7.196-5.536-36.674-17.992-50.513-23.528 0-2.767-4.844-4.844-10.38-8.303-4.429-2.768-6.458-1.154-6.92 0 1.845 3.229 5.259 9.411 4.152 8.303-1.384-1.383-2.768 0-4.152 1.384-1.384 1.384 3.46 3.46 6.92 5.536 2.768 1.661 6.689.692 8.304 0l42.21 23.527z" class="Vector 6"/>
      <path fill="#C4C4C4" d="M413.43 413.605c3.459-2.076 11.348-6.228 15.223-6.228 1.641 0 4.151 2.448 6.942 6.228 4.144.692 12.987 2.491 15.201 4.152 2.076 2.998 6.228 9.826 6.228 13.147h-11.243c1.999 4.083 3.756 8.168 5.015 11.764a271.78 271.78 0 012.089 6.227c4.548 14.071 9.864 33.642 11.059 43.594l-37.367 13.84c-4.844-24.219-14.255-76.671-13.147-92.724z" class="Vector 3_2"/>
      <path fill="#4B5361" d="M413.429 523.628c-17.161-21.036-17.76-55.358-15.915-69.889 33.907-24.219 44.286 69.889 55.358 74.733 11.071 4.844 65.737-6.228 67.121 0 1.107 4.982-5.997 13.147-9.688 16.607-4.613 1.615-17.714 4.982-33.214 5.536-7.635.273-15.807.223-24.219-1.546v43.757c16.838 0 50.514.83 50.514 4.151 0 4.152-21.451 8.996-57.434 11.072-35.982 2.076-60.201-6.228-58.817-11.072 1.107-3.875 34.137-4.382 50.513-4.151v-49.042c-8.098-4.064-16.254-10.393-24.219-20.156z" class="Vector 8"/>
      <path fill="#EDC7C5" d="M477.783 605.973l4.844-11.071c34.875-1.661 39.904 6.689 38.058 11.071h-42.902z" class="Vector 7"/>
    </g>
    <g class="color 2">
      <path fill="#EE7E79" d="M572 467v-19.5l18.5 10.5-18.5 9zM626.5 457.5a9.5 9.5 0 01-9.5 9.5 9.5 9.5 0 01-9.5-9.5 9.5 9.5 0 019.5-9.5 9.5 9.5 0 019.5 9.5zM645.5 447h5v20h-5v-20zM654.5 447h5v20h-5v-20z"/>
    </g>
    <g class="plant_2">
      <g class="Vector 5_2">
        <path fill="#EDC7C5" d="M697.823 564.748c-8.023-4.012-24.929-14.786-28.367-25.789 7.45 4.585 23.553 16.161 28.367 25.789zM702.121 562.169c-13.754-14.614-41.433-45.216-42.121-50.717 8.596 1.432 29.055 13.581 42.121 50.717-3.152-14.614-12.034-47.107-22.35-60.173 6.017 2.292 18.912 9.112 22.35 18.052 3.439 8.94 1.433 31.805 0 42.121z"/>
      </g>
      <g class="Vector 4">
        <path fill="#EE7E79" d="M698.628 561.577c1.62-17.519 6.06-54.234 10.865-60.944 4.783 11.531 9.306 39.863-10.865 60.944zM741.486 571.121c-22.765-15.456-34.796-10.467-37.965-6.041 1.522-3.101 3.31-5.697 5.288-7.843 3.421-14.467 14.239-43.937 30.15-46.076a32.735 32.735 0 013.036-.268c4.43-10.464 18.624-29.685 39.961-22.865-7.763 1.49-23.87 6.167-26.197 12.96 5.1-2.692 16.336-6.276 20.484.924-5.067-.798-16.1-1.141-19.69 3.873 5.197-.86 17.167.241 23.469 11.52-7.878-4.255-24.499-11.262-27.957-5.252 12.547 3.474 20.41 13.546 19.95 16.434-8.131-6.175-26.551-16.898-35.179-10.389 11.062 1.93 34.34 9.789 38.958 25.783-13.446-9.276-42.34-25.032-50.348-13.85 16.884 3.984 53.801 17.591 66.405 40.15-19.745-15.549-63.997-39.906-83.042-12.944 12.999-14.099 34.218-8.771 42.186.604 7.345 8.643 23.625 21.147 30.847 26.318-3.966 2.094-17.59 2.418-40.356-13.038z"/>
      </g>
      <path fill="#8A6564" d="M719.314 565.608c-.573 8.309-3.439 25.444-10.316 27.507-8.596 2.579-13.753-1.719-13.753-5.157 0-2.751-1.72-16.046-2.579-22.35-.86-.86-2.235-3.095-.86-5.158 8.31.573 25.445 1.375 27.508 0 2.579-1.719 1.719 4.662 0 5.158z" class="Vector 3_3"/>
    </g>
  </g>
  <defs>
    <clipPath id="clip0" class="clip0">
      <path fill="#fff" d="M0 0h1152v700H0z"/>
    </clipPath>
  </defs>
</svg>
