<svg xmlns="http://www.w3.org/2000/svg" width="1155" height="700" fill="none" viewBox="0 0 1155 700">
  <g class="vr">
    <path fill="#fff" d="M0 0h1155v700H0z"/>
    <g class="Group 4.1">
      <path fill="#E785F7" fill-opacity=".1" d="M656.292 624.122c-37.49 29.062-95.904 18.891-117.701 8.356-34.874-16.857-75.198-8.356-112.252-21.797-41.86-15.184-169.606-83.1-118.428-113.342 47.953-28.335-18.163-112.615 47.953-125.693 54.436-10.767-7.629-53.765 10.534-139.498 18.164-85.733 60.888-127.227 128.314-115.884 77.741 13.078 202.465 140.103 252.476 143.857C823.85 282.789 848.439 387.63 859 429.77c0 57.761-83.554 145.674-83.554 145.674s-39.596 30.515-119.154 48.678z" class="Vector 20"/>
      <path fill="#000" fill-opacity=".11" d="M675.183 539.843c-.291 2.615-5.207 5.933-7.629 7.265 8.719 14.24 27.246 27.973 31.968 29.426-24.339-25.793-24.048-39.307-24.339-36.691z" class="Vector 9"/>
      <path fill="#1C0893" fill-rule="evenodd" d="M607.674 416.185s4.722-30.387-23.25-32.694c-35.237-2.907-30.152 35.601-30.152 35.601l5.491 17.156 3.909 9.052c-.607 5.099-1.871 11.015-2.688 14.835-.25 1.174-.459 2.15-.593 2.843 0 0 2.554 10.045 6.416 15.238 6.886 9.26 24.209 7.707 31.545 0 4.238-4.452 2.722-17.204 2.722-17.204-3.902-2.509-4.997-15.246-5.08-22.052.442-.426.859-.854 1.245-1.282 6.423-7.117 10.435-21.493 10.435-21.493zm84.22 105.858l14.531 17.801c.476-5.331 4.244-12.607 11.305-26.24l.002-.005c1.921-3.708 4.085-7.887 6.493-12.626l17.437-40.323-4.832-21.731c.374-1.537 3.07-1.476 3.525.04 1.02 3.395 2.593 7.108 4.94 9.339 2.255 2.144 4.002-14.356 4.494-19.586a2.754 2.754 0 011.551-2.229 1.36 1.36 0 011.947 1.228v17.681l5.399-20.2a1.677 1.677 0 013.282.659l-2.95 21.721 6.822-14.917a2.075 2.075 0 013.819 1.618l-6.096 15.606 8.02-6.95.366.843a3.538 3.538 0 01-.154 3.16c-1.463 2.585-4.563 7.87-7.43 11.502-4.01 5.079-9.357 9.891-9.357 9.891-6.66 35.844-22.355 108.863-45.314 110.026-5.328 1.211-21.288-3.342-42.503-31.242 3.39.242 13.078-4.432 24.703-25.066zM490.276 536.21c-1.816 3.875-6.393 16.493-5.812 24.34-10.275-21.006-25.347-42.008-35.94-56.77-6.262-8.725-10.958-15.27-12.175-18.346-2.508-6.344-2.736-9.037-3.071-12.994a111.139 111.139 0 00-.404-4.115c-.308-2.572-.151-4.926-.013-6.988.225-3.366.398-5.956-1.591-7.448-1.008-.756-2.406 1.604-2.406 2.406 0 5.287-.32 8.299-2.406 10.96-1.424 1.818-7.931-19.563-10.333-27.686-.374-1.264-2.03-1.572-2.831-.525l-1.108 1.45a1.6 1.6 0 00-.304 1.261l4.286 23.617-13.82-23.058c-.878-1.466-3.087-1.151-3.522.501-.11.419-.076.864.097 1.262l11.495 26.386-15.455-15.137c-1.517-1.486-4.044-.129-3.644 1.956.078.403.264.771.543 1.071 2.741 2.946 17.777 19.25 15.883 20.397-3.615 2.191-12.564-2.405-12.564-2.405-4.833 1.155-2.674 3.475 3.475 5.614 0 0 15.089 6.95 22.456 13.099 2.352 1.963 6.148 11.572 11.241 24.465 10.856 27.484 27.609 69.892 48.841 84.983 19.472-.581 33.301-25.671 37.781-38.144l-28.699-30.152z" class="Union" clip-rule="evenodd"/>
      <path fill="#fff" fill-opacity=".04" d="M736.83 438.919l4.832 21.73c1.33 2.559 5.861 7.676 13.346 7.676 0 0 5.347-4.812 9.357-9.891 2.867-3.632 5.967-8.918 7.43-11.503.55-.97.598-2.137.154-3.16l-.366-.843-8.02 6.951 6.096-15.607a2.075 2.075 0 00-3.819-1.618l-6.822 14.917 2.95-21.72a1.678 1.678 0 00-3.282-.659l-5.399 20.199V427.71a1.361 1.361 0 00-1.948-1.228 2.755 2.755 0 00-1.55 2.23c-.493 5.23-2.239 21.73-4.494 19.586-2.347-2.231-3.92-5.945-4.94-9.34-.455-1.515-3.151-1.577-3.525-.039z" class="Vector 2.1"/>
      <path fill="#fff" fill-opacity=".14" d="M398.656 481.959s10.027 4.175 17.512 9.521c0 0 7.094.374 11.747-1.255 5.346-1.871 7.027-10.541 7.027-10.541-3.274-8.28-1.256-4.591-2.068-11.359s1.604-12.03-1.604-14.436c-1.008-.756-2.406 1.604-2.406 2.406 0 5.287-.32 8.299-2.406 10.961-1.424 1.817-7.932-19.564-10.334-27.687-.373-1.263-2.029-1.572-2.83-.525l-1.109 1.45a1.608 1.608 0 00-.304 1.261l4.287 23.617-13.82-23.058c-.878-1.465-3.087-1.151-3.522.501-.11.419-.076.864.097 1.262l11.495 26.386-15.455-15.137c-1.517-1.486-4.044-.129-3.644 1.956.078.403.264.771.543 1.071 2.741 2.946 17.777 19.25 15.883 20.397-3.615 2.191-12.565-2.405-12.565-2.405-4.832 1.155-2.673 3.475 3.476 5.614z" class="Vector 3.1"/>
      <path fill="#fff" fill-opacity=".06" d="M484.463 567.453c4.65 0 8.961-13.199 10.899-21.797-1.453-3.027-4.65-8.864-5.813-7.992-1.162.872-3.633 15.742-5.086 22.886-9.808-19.253-21.433-36.69-31.605-51.585 12.788 27.609 17.074 32.695 31.605 58.488z" class="Vector 10"/>
      <path fill="#fff" fill-opacity=".05" d="M584.425 383.491c27.971 2.307 23.249 32.694 23.249 32.694s-4.012 14.376-10.434 21.493c-4.799 5.318-14.435 10.683-16.878 11.997a2.199 2.199 0 01-1.225.253l-12.563-.985a2.288 2.288 0 01-1.922-1.374l-4.888-11.321-5.491-17.156s-5.086-38.508 30.152-35.601z" class="Vector 5.1"/>
      <path fill="#000" fill-opacity=".07" d="M591.992 462.465c-.62-8.631 3.633-15.863 3.997-22.523 0 10.899 3.269 18.891 5.085 21.07.291 7.556-3.632 13.805-5.812 15.621-2.325.291-2.874-8.642-3.27-14.168z" class="Vector 12"/>
      <path fill="#E0AFFE" d="M520.428 478.5c-16.036 15.252-33.058 54.44-33.058 54.44 3.778 12.788 23.613 28.094 33.058 34.148l13.078-34.148 7.265 100.264c19.98 14.531 90.819 13.441 114.432-7.265 0 0-9.445-100.627-4.723-92.999 4.391 7.092 15.984 14.168 15.984 14.168 8.719 2.906 22.766-14.288 27.246-23.613-20.343-53.401-67.569-64.784-92.635-62.12-4.862 31.01-35.605 21.653-40.324 0 0 0-24.743 2.305-40.323 17.125z" class="Vector"/>
      <path fill="#fff" fill-opacity=".06" d="M616.696 510.781c14.531 7.266 28.456 20.344 32.331 25.793 0 0 .78 25.922 1.816 42.503 1.155 18.473 3.996 47.226 3.996 47.226-42.139 26.737-93.846 15.984-114.431 7.265 0 0 59.214-8.718 60.667-37.294 1.161-22.845 15.621-13.804 15.621-21.92 11.633 1.561-17.439-61.613 0-63.573z" class="Vector 19"/>
      <path fill="#fff" fill-opacity=".09" d="M552.759 474.09c4.36-.581 7.387-8.234 8.356-11.988C526.822 465.299 517 482 512.5 488c3.028-2.542 6.513-2.837 10-4 4.36-1.453 5.92-4.824 13.549-9.91s11.261.727 16.71 0z" class="Vector 13"/>
      <path fill="#fff" fill-opacity=".06" d="M707.514 546.745c-5.812 5.813-17.8-16.347-17.8-16.347l3.633-6.902 13.078 16.347c3.632-11.988 12.351-30.152 17.073-37.417l16.711-37.418c-.484 2.664-.769 8.619-1.453 10.535-1.816 5.086-7.265 15.258-7.992 18.527-.727 3.27-5.086 11.988-7.266 22.16-1.743 8.137-10.171 24.703-15.984 30.515z" class="Vector 8"/>
      <path fill="#000" fill-opacity=".09" d="M706.425 578.35c2.301-5.933 10.317-19.035 23.976-21.07-3.27 7.629-12.642 23.105-23.976 21.07z" class="Vector 9_2"/>
      <path fill="#000" fill-opacity=".11" d="M490.165 601.87c3.099-1.781 15.302-28.034 21.18-41.32l7.629 5.812c-8.611 22.246-21.948 32.916-28.809 35.508a.646.646 0 01-.253.093c.084-.029.168-.06.253-.093z" class="Vector 10_2"/>
      <path fill="#000" fill-opacity=".11" d="M434.668 523.966c-5.488-12.317-9.012-21.423-9.012-21.423a1585.205 1585.205 0 019.012 21.423c7.121 15.984 17.55 37.374 27.88 51.291 8.703 11.728 23.005 28.522 23.005 28.522l-3.996.727c-21.501-17-30.63-41.207-46.889-80.54z" class="Vector 11"/>
      <path fill="#fff" fill-opacity=".11" d="M608.703 471.184c-7.265.291-8.113-6.66-7.628-10.172 43.956 0 65.026 21.433 63.573 21.07-1.453-.363-13.441-1.453-15.621-1.453-2.18 0-13.804-3.269-21.07-7.629-7.265-4.359-10.172-2.179-19.254-1.816z" class="Vector 14"/>
      <path fill="#D685F6" fill-opacity=".25" d="M647.574 528.218c4.359-.871 18.89 14.531 29.062 16.348-5.521 2.906-8.598 3.391-9.445 2.906-3.813-2.179-10.172-6.539-17.074-14.531-2.469-2.86-.121 41.292 2.18 62.846-2.301-7.144-5.813-22.305-5.813-25.792 0-4.359.364-27.246.001-34.148-.364-6.902-4.36-6.539 1.089-7.629z" class="Vector 16"/>
      <path fill="#E965DE" fill-opacity=".15" d="M534.958 523.859c-4.65.581-6.781 15.015-7.265 22.159l5.449-12.714 6.902 88.639c1.453-5.933 2.253-23.831 3.996-36.328 2.18-15.62-2.543-18.89-3.996-31.605-1.453-12.714.727-30.878-5.086-30.151z" class="Vector 17"/>
      <path fill="#DC93F8" fill-opacity=".54" d="M498 515c0 10.263-2.982 27.559-2.452 30.59.343.45.443.629.177.429-.08-.06-.138-.206-.177-.429-1.529-2.005-7.882-9.386-8.178-12.649C491 525.5 497 511 498 515z" class="Vector 18"/>
      <g class="Group">
        <path fill="#6699FB" d="M561.204 424.287c-17.437 9.881-23.007-7.992-23.613-18.163-.497-8.356 5.377-24.848 16.711-22.524 11.334 2.325 29.183-.968 36.691-2.906 34.583-4.359 37.659 13.684 34.874 23.25-5.478 32.223-28.243 28.469-41.442 18.781-7.847-5.812-20.436-1.344-23.221 1.562z" class="Vector 6"/>
        <path fill="#fff" fill-opacity=".08" d="M573.595 406.827c-3.488 1.743-18.891 6.538-23.25 5.448-3.963-.99-2.219 7.652 2.504 7.652 2.766 0 16.71-10.172 22.522-10.172 5.813 0 21.797 14.168 28.699 14.168 9.816 0 10.938-10.194 8.032-9.105-5.292 1.984-13.804 1.455-17.074.364-4.825-1.609-17.074-10.535-21.433-8.355z" class="Vector 19_2"/>
        <path fill="#100E8E" d="M568.833 404.669c-11.523 4.414-31.121 6.66-30.879 3.633-1.453-8.718 2.907-28.335 19.617-24.339 7.992.726 20.198.508 32.695-3.27 11.504-2.058 34.875-1.598 36.328 16.711-1.453 5.812-7.972 12.297-18.164 15.257-14.077 4.09-22.524-14.531-39.597-7.992z" class="Vector 7"/>
        <path fill="#fff" fill-opacity=".08" d="M618.601 414.115c5.086-2.906 5.813-9.809 7.629-12.715 0 9.009-5.841 19.145-9.111 22.778-.726-4.723-.032-9.198 1.482-10.063z" class="Vector 20_2"/>
        <path fill="#fff" fill-opacity=".08" d="M577.188 411.936c-1.817-1.453-11.625 3.269-17.074 6.902-5.449 3.633 8.828-2.85 14.531-2.543 6.103.328 19.98 8.719 14.894 4.723-5.085-3.997-7.342-5.075-12.351-9.082z" class="Vector 21"/>
        <circle r="4.359" fill="#45DDF2" class="Ellipse" transform="matrix(.99786 .0654 -.30902 .95106 562.876 396.641)"/>
        <circle r="4.359" fill="#45DDF2" class="Ellipse_2" transform="matrix(.99307 .11754 -.18086 .9835 593.538 396.283)"/>
      </g>
      <g class="Group 2">
        <path fill="#3649F5" fill-opacity=".75" d="M499.781 345.71c7.628 54.128 38.87 63.573 38.87 63.573s1.09 1.816 13.078 0c13.01-1.971 13.805-4.722 23.613-5.812 10.409-1.157 19.254 9.808 27.609 9.808s16.294-5.255 17.074-6.176c0 0 17.637-15.735 26.882-27.609 10.822-13.899 7.119-21.793 22.887-38.87 14.845-16.078 43.693-20.466 54.854-46.136 10.898-25.066 4.538-44.673 25.793-55.944 23.976-12.715 24.97-11.245 36.69-23.613 18.902-19.948 21.877-38.458 25.066-65.753 12.46-106.61-133.367-21.463-273.546-118.791C468.539-18.293 335.555 65.013 338.85 153.9c1.005 27.125 32.05 41.136 21.433 66.117-12.351 29.062 31.249 36.144 58.851 43.956 19.253 5.449 7.039 42.206 25.429 59.577 16.891 15.955 51.975-.848 55.218 22.16z" class="Vector 19_3"/>
        <path fill="#7E48F1" fill-opacity=".08" d="M549.853 334.592c16.565 8.718 13.199 50.132 9.445 69.749-38.507 24.702-58.13-46.863-60.304-61.394-2.174-14.531-34.692-6.2-50.495-18.89-18.592-14.93-6.365-45.261-21.796-58.488-10.172-8.718-76.652-16.347-67.207-37.417 9.446-21.07-3.269-43.23-11.261-49.405-27.609-64.518 29.426-117.823 61.394-135.139 9.324 6.418 37.632 22.521 32.331 31.242-22.523 37.054-40.686 79.92-22.523 95.541 6.611 5.685-18.163 66.48 37.054 89.003 23.766 9.694 19.98 30.878 42.503 50.132 22.524 19.253 30.152 14.167 50.859 25.066z" class="Vector 20_3"/>
        <path fill="#36A5F5" fill-opacity=".3" d="M585.091 285.187c54.663 0 30.576 20.199 17.861 63.573-12.715 43.374-8.355 64.519 0 64.519s16.294-5.255 17.074-6.176c0 0 17.637-15.735 26.882-27.609 10.822-13.899 7.119-21.793 22.886-38.87 14.846-16.078 43.694-20.466 54.855-46.136 10.898-25.066 4.538-44.674 25.792-55.945 23.977-12.714 24.971-11.244 36.691-23.613 18.902-19.948 21.876-38.458 25.066-65.752 12.459-106.61-133.367-21.464-273.546-118.791-12.351 29.062-122.484 54.635-65.45 159.622 9.552 17.582 44.32 9.081 44.32 56.307 0 23.236-4.783 38.871 67.569 38.871z" class="Vector 19.1"/>
        <path fill="#4E22C8" fill-opacity=".11" d="M585.091 285.187c54.663 0 30.576 20.199 17.861 63.573-12.715 43.374-8.355 64.519 0 64.519s16.294-5.255 17.074-6.176c0 0 17.637-15.735 26.882-27.609 10.822-13.899 7.119-21.793 22.886-38.87 14.846-16.078 43.694-20.466 54.855-46.136 10.898-25.066 4.538-44.674 25.792-55.945 23.977-12.714 24.971-11.244 36.691-23.613 18.902-19.948 21.876-38.458 25.066-65.752 12.459-106.61-133.367-21.464-273.546-118.791-12.351 29.062-122.484 54.635-65.45 159.622 9.552 17.582 44.32 9.081 44.32 56.307 0 23.236-4.783 38.871 67.569 38.871z" class="Vector 19.3"/>
        <path fill="#fff" fill-opacity=".05" d="M630.691 255.147c35.251 0 19.717 13.026 11.518 40.997-8.199 27.97-5.388 41.606 0 41.606s10.508-3.389 11.011-3.983c0 0 11.373-10.147 17.335-17.804 6.979-8.963 4.591-14.054 14.759-25.066 9.573-10.368 28.176-13.198 35.374-29.752 7.028-16.164 2.926-28.808 16.633-36.076 15.461-8.2 16.103-7.252 23.66-15.228 12.189-12.864 6.955-27.261 16.165-42.402C841.2 62.136 660.289 94.104 629.047 71.944c-16.609-11.78-107.289 54.123-70.509 121.826 6.159 11.339 28.58 5.856 28.58 36.311 0 14.984-3.085 25.066 43.573 25.066z" class="Vector 19.2"/>
      </g>
      <g class="Group 3">
        <circle cx="492.022" cy="195.777" r="35.193" fill="#FA7AB7" class="Ellipse_3"/>
        <path fill="#fff" fill-opacity=".16" d="M492.023 230.97c19.436 0 35.193-15.757 35.193-35.193 0-19.437-15.757-35.193-35.193-35.193 0 0-22.758 17.77-22.758 38.712 0 20.177 22.758 31.674 22.758 31.674z" class="Ellipse_4"/>
        <path fill="#fff" fill-opacity=".16" d="M501.642 229.092c13.843-1.877 25.808-17.899 25.808-33.401 0-15.502-11.027-27.834-22.758-32.761 0 0-23.461 18.865-23.462 35.568 0 16.093 20.412 30.594 20.412 30.594z" class="Ellipse_5"/>
        <path stroke="#FDFEFF" stroke-linecap="round" stroke-width="3.754" d="M460.349 212.905c-7.821 4.458-14.219 10.051-12.201 14.546 5.162 11.497 98.321-39.47 93.379-49.973-1.877-3.989-12.279-1.877-17.831 0" class="Vector 19_4"/>
      </g>
      <g class="Group 3.1">
        <circle r="22.319" fill="#7AA6FA" class="Ellipse_6" transform="matrix(-1 0 0 1 652.932 261.369)"/>
        <path fill="#fff" fill-opacity=".16" d="M652.932 283.688c-12.327 0-22.319-9.993-22.319-22.319 0-12.326 9.992-22.318 22.319-22.318 0 0 14.432 11.269 14.432 24.55 0 12.796-14.432 20.087-14.432 20.087z" class="Ellipse_7"/>
        <path fill="#fff" fill-opacity=".16" d="M646.832 282.498c-8.779-1.191-16.367-11.352-16.367-21.183s6.993-17.652 14.432-20.776c0 0 14.879 11.964 14.879 22.556 0 10.206-12.944 19.403-12.944 19.403z" class="Ellipse_8"/>
        <path stroke="#FDFEFF" stroke-linecap="round" stroke-width="2.381" d="M673.019 272.231c4.96 2.827 9.017 6.374 7.737 9.225-3.273 7.29-62.353-25.031-59.218-31.692 1.19-2.53 7.787-1.191 11.308 0" class="Vector 19_5"/>
      </g>
      <g class="Star">
        <path fill="#fff" d="M685.612 226.924a.496.496 0 01.94 0l.831 2.465a.5.5 0 00.283.301l2.37.962a.496.496 0 010 .92l-2.37.962a.496.496 0 00-.283.301l-.831 2.464a.496.496 0 01-.94 0l-.831-2.464a.496.496 0 00-.283-.301l-2.37-.962a.496.496 0 010-.92l2.37-.962a.5.5 0 00.283-.301l.831-2.465z" class="Star_2"/>
      </g>
      <g class="Star_3">
        <path fill="#fff" d="M511.125 124.821c.22-.652 1.141-.652 1.361 0l1.203 3.567a.716.716 0 00.41.436l3.43 1.393a.718.718 0 010 1.33l-3.43 1.393a.716.716 0 00-.41.436l-1.203 3.567c-.22.652-1.141.652-1.361 0l-1.202-3.567a.72.72 0 00-.411-.436l-3.429-1.393a.717.717 0 010-1.33l3.429-1.393a.72.72 0 00.411-.436l1.202-3.567z" class="Star_4"/>
      </g>
      <g class="Star_5">
        <path fill="#fff" d="M428.298 113.923c.22-.652 1.141-.652 1.361 0l1.203 3.566a.713.713 0 00.41.436l3.429 1.393a.718.718 0 010 1.331l-3.429 1.393a.713.713 0 00-.41.436l-1.203 3.566c-.22.652-1.141.652-1.361 0l-1.203-3.566a.713.713 0 00-.41-.436l-3.429-1.393a.718.718 0 010-1.331l3.429-1.393a.713.713 0 00.41-.436l1.203-3.566z" class="Star_6"/>
      </g>
      <g class="Star_7">
        <path fill="#fff" d="M423.213 219.999c.22-.651 1.141-.651 1.361 0l1.203 3.567a.716.716 0 00.41.436l3.429 1.393a.718.718 0 010 1.331l-3.429 1.392a.716.716 0 00-.41.436l-1.203 3.567c-.22.652-1.141.652-1.361 0l-1.202-3.567a.72.72 0 00-.411-.436l-3.429-1.392a.718.718 0 010-1.331l3.429-1.393a.72.72 0 00.411-.436l1.202-3.567z" class="Star_8"/>
      </g>
      <path fill="#fff" d="M664.541 205.571a.496.496 0 01.94 0l.831 2.464c.046.137.15.247.284.302l2.369.962a.496.496 0 010 .919l-2.369.963a.495.495 0 00-.284.301l-.831 2.464a.496.496 0 01-.94 0l-.831-2.464a.493.493 0 00-.283-.301l-2.37-.963a.496.496 0 010-.919l2.37-.962a.497.497 0 00.283-.302l.831-2.464z" class="Star_9"/>
      <path fill="#fff" d="M629.667 289.124a.496.496 0 01.94 0l.831 2.464c.046.137.15.247.284.301l2.369.963a.496.496 0 010 .919l-2.369.963a.495.495 0 00-.284.301l-.831 2.464a.496.496 0 01-.94 0l-.831-2.464a.493.493 0 00-.283-.301l-2.37-.963a.496.496 0 010-.919l2.37-.963a.493.493 0 00.283-.301l.831-2.464z" class="Star_10"/>
    </g>
  </g>
</svg>
