<svg xmlns="http://www.w3.org/2000/svg" width="1155" height="700" fill="none" viewBox="0 0 1155 700">
  <g class="website_underconstruction_man">
    <path fill="#fff" d="M0 0h1155v700H0z"/>
    <g class="Group 7.1">
      <g class="Group 9.1">
        <path fill="#F7F7F7" d="M222 145.88c0-16.502 13.378-29.88 29.88-29.88h650.24c16.502 0 29.88 13.378 29.88 29.88v408.356c0 16.503-13.378 29.88-29.88 29.88H251.88c-16.502 0-29.88-13.377-29.88-29.88V145.88z" class="Rectangle"/>
        <g class="Group 7">
          <circle cx="262.577" cy="146.617" r="5.006" fill="#C4C4C4" class="Ellipse"/>
          <circle cx="284.604" cy="146.617" r="5.006" fill="#E1E1E1" class="Ellipse_2"/>
          <circle cx="306.632" cy="146.617" r="5.006" fill="#C4C4C4" class="Ellipse_3"/>
        </g>
        <rect width="388.437" height="38.417" x="382.781" y="182.874" fill="#3F3F3F" fill-opacity=".04" class="Rectangle 2" rx="5.691"/>
        <rect width="56.914" height="38.417" x="779.756" y="182.874" fill="#276DF4" fill-opacity=".21" class="Rectangle 2.4" rx="5.691"/>
        <g class="Group 8">
          <rect width="135.17" height="76.834" x="382.781" y="251.171" fill="#000" fill-opacity=".04" class="Rectangle 2.1" rx="5.691"/>
          <rect width="135.17" height="76.834" x="542.14" y="251.17" fill="#565656" fill-opacity=".04" class="Rectangle 2.2" rx="5.691"/>
          <rect width="135.17" height="76.834" x="701.499" y="251.17" fill="#575757" fill-opacity=".04" class="Rectangle 2.3" rx="5.691"/>
        </g>
        <rect width="122.365" height="276.032" x="244.765" y="251.171" fill="#7B7B7B" fill-opacity=".04" class="Rectangle 2.4_2" rx="5.691"/>
        <g class="Group 8.1">
          <rect width="135.17" height="76.834" x="382.781" y="350.768" fill="#000" fill-opacity=".04" class="Rectangle 2.1_2" rx="5.691"/>
          <rect width="135.17" height="76.834" x="542.14" y="350.768" fill="#000" fill-opacity=".04" class="Rectangle 2.2_2" rx="5.691"/>
          <rect width="135.17" height="76.834" x="701.498" y="350.768" fill="#000" fill-opacity=".04" class="Rectangle 2.3_2" rx="5.691"/>
        </g>
        <g class="Group 8.2">
          <rect width="135.17" height="76.834" x="382.782" y="450.369" fill="#000" fill-opacity=".04" class="Rectangle 2.1_3" rx="5.691"/>
          <rect width="135.17" height="76.834" x="542.141" y="450.37" fill="#6A6A6A" fill-opacity=".04" class="Rectangle 2.2_3" rx="5.691"/>
          <rect width="135.17" height="76.834" x="701.499" y="450.37" fill="#000" fill-opacity=".04" class="Rectangle 2.3_3" rx="5.691"/>
        </g>
      </g>
      <g class="Group">
        <path fill="#AAA" d="M513.683 137.341l18.497 26.323 49.088 13.517 34.86-12.094-102.445-27.746z" class="Vector 3"/>
        <path fill="#000" fill-opacity=".05" d="M513.683 137.341l5.691 7.826 84.66 23.477 12.094-3.557-102.445-27.746z" class="Vector 3.1"/>
        <path fill="#DBDBDB" d="M557.174 191.828l-5.127 19.655-3.418 10.254-9.4-2.563 3.418-14.528 5.127-15.382-18.8-7.69 3.418-18.801 24.782 6.837 24.782 6.836-4.273 17.946-20.509-2.564z" class="Vector 3_2"/>
        <path fill="#000" fill-opacity=".09" d="M555.465 187.556l-9.4 33.328h3.418l7.691-29.055 20.509 2.564 4.273-17.946-4.273-.854-3.418 13.673-18.8-1.71z" class="Vector 5"/>
      </g>
      <g class="Group 6">
        <g class="Group 5">
          <g class="Group 3">
            <path stroke="#000" stroke-width="1.709" d="M520.714 524.774V200.047M359.205 524.774V200.047" class="Vector 4"/>
            <path fill="#EB9F87" d="M358.351 524.776h164.073v18.8H358.351z" class="Rectangle_2"/>
            <path fill="#000" fill-opacity=".13" d="M358.351 524.776h164.073v8.545H358.351z" class="Rectangle_3"/>
          </g>
          <g class="Group 4">
            <path fill="#fff" d="M471.15 458.973c0-8.839-3.601-17.316-10.012-23.566-6.41-6.25-15.104-9.762-24.17-9.762-9.066 0-17.76 3.512-24.17 9.762-6.411 6.25-10.012 14.727-10.012 23.566h3.109c0-8.036 3.274-15.742 9.101-21.423 5.827-5.682 13.731-8.874 21.972-8.874 8.241 0 16.145 3.192 21.972 8.874 5.827 5.681 9.101 13.387 9.101 21.423h3.109z" class="Ellipse_4"/>
            <path fill="#C5F3F9" d="M402.786 456.407h68.364v68.364h-68.364z" class="Rectangle_4"/>
            <path fill="#000" fill-opacity=".09" d="M402.786 456.407l13.673 53.836 4.273 14.528h-17.946v-68.364z" class="Rectangle_5"/>
            <path fill="#000" fill-opacity=".03" d="M468.589 456.407h2.563v68.364h-8.545l5.982-68.364z" class="Rectangle_6"/>
          </g>
        </g>
        <g class="painter">
          <path fill="#F79C9C" fill-rule="evenodd" d="M527.993 234.23s-15.825 62.382-19.243 81.182c-2.486 13.673 2.979 33.279 10.698 52.128 9.449 23.072 11.109 20.509 11.109 20.509 8.546-1.709 28.953-12.818 30.321-26.491-12.647-15.326-23.928-43.582-23.928-43.582l7.28-89.727s2.964 1.709 6.836-8.546c3.696-9.787 2.775-9.348.938-8.472-1.104.526-2.539 1.21-3.501-.073-.56-.746-.712-3.901-.886-7.485-.302-6.267-.669-13.85-3.387-12.17-2.286 1.413-9.152 9.154-11.552 15.382-2.293 5.949-2.121 16.236-2.121 16.236l-2.564 11.109zm80.74 82.036c-12.819 25.637-2.716 46.736 6.684 50.154 0 0-.909 5.525-1.423 8.537-.547 3.206-1.423 7.114-1.423 7.114 19.407 12.046 30.987 2.961 37.612-2.238l.422-.33c-4.597-2.412-6.731-4.546-7.691-16.237 8.546-6.836 9.116-26.491 8.546-35.891-2.051-43.753-28.77-25.351-42.727-11.109zm90.583 201.675c32.472-3.418 25.636-40.733 15.381-61.527l-17.945 10.254 2.564 51.273z" class="Union" clip-rule="evenodd"/>
          <path fill="#000" fill-opacity=".13" d="M619.686 380.649c-1.264-4.421-4.269-14.228-4.269-14.228l-2.846 15.651 11.383 6.403s-3.037-3.518-4.268-7.826z" class="Vector 2"/>
          <path fill="#fff" fill-opacity=".24" d="M609.236 342.007c-.414 2.659 2.701 6.972 4.633 5.1 1.222-1.185 1.125-3.605 1.125-3.605s.843-3.641-.11-5.051c-1.459-2.159-5.246.981-5.648 3.556z" class="Vector 9"/>
          <path fill="#000" fill-opacity=".13" d="M692.782 491.087c14.693-1.547 11.599-18.43 6.96-27.838l-8.119 4.64 1.159 23.198z" class="Vector 2.1"/>
          <path fill="#000" fill-opacity=".06" d="M539.515 241.92l4.272-12.818-6.836 89.728-6.836-11.11 9.4-65.8z" class="Vector 2_2"/>
          <path fill="#000" fill-opacity=".1" d="M524.986 362.413l-16.236-35.036c-.855 11.109 10.255 41.872 20.509 59.818l7.691-4.273-11.964-20.509z" class="Vector 9_2"/>
          <path fill="#000" d="M617.278 336.777c-4.272 35.036 15.382 31.618 26.491 29.909 15.04-18.458 14.5-59.816-.027-64.943-10.255-6.836-33.328.855-36.746 12.818-3.418 7.52 11.116 15.379 10.282 22.216z" class="Vector 2_3"/>
          <g class="Group 2">
            <path fill="#5664E0" fill-rule="evenodd" d="M641.809 334.248c-16.927-1.472-32.015-12.9-39.058-20.546 8.702-14.918 19.665-19.663 29.888-18.634a140.53 140.53 0 00-.834-4.437l10.254 3.418c.43 1.145.867 2.585 1.289 4.219 12.874 6.439 22.23 20.901 20.076 31.671-6.539 3.451-13.182 4.686-19.6 4.436-.532.029-1.231-.022-2.015-.127z" class="Union_2" clip-rule="evenodd"/>
            <path fill="#000" fill-opacity=".06" d="M635.223 317.976c0-4.272-1.424-17.66-3.418-27.345l10.255 3.418c2.051 5.469 4.272 17.661 4.272 25.636 0 7.976-1.709 14.528-1.709 14.528-1.367.683-7.691-.855-10.254-1.709.683-1.368.854-10.255.854-14.528z" class="Vector 3.1_2"/>
          </g>
          <path fill="#FCD2C9" d="M571.133 447.011l-30.764-43.582s-4.273-4.272-11.964-17.091c0 0 9.113-4.498 15.382-8.545 8.911-5.752 14.527-19.655 14.527-19.655 9.017 10.927 15.857 20.427 29.91 22.219 8.511 1.085 24.347 0 24.347 0 19.826 10.938 32.622 1.994 39.743-2.564 44.437-.684 64.661 52.127 69.219 78.618l-23.073 13.673s1.963 34.617 1.709 56.4c-.262 22.517-3.418 50.418-3.418 50.418l-120.491-4.273-5.127-76.054v-49.564z" class="Vector"/>
          <path fill="#000" fill-opacity=".03" d="M549.769 372.666c-2.417 2.417 23.357 9.4 35.891 11.963l-.855-5.127c-8.204 0-22.218-14.527-26.491-21.364-1.709 4.273-6.836 12.819-8.545 14.528z" class="Vector 7"/>
          <path fill="#110FA0" d="M584.826 379.938c8.204 45.12-.874 84.165-16.256 87.583 0 7.691-3.419 64.091 8.545 116.219 0 0 37.875-.071 62.382 0 25.171.072 68.364 0 68.364 0s1.151-18.8 0-47c-.82-20.076-6.837-50.419-11.109-72.637-4.273-22.218-10.255-38.454-26.491-83.745l-8.546-1.709s10.466 27.292 13.673 45.291c2.868 16.098 6.836 47 6.836 47-42.727 7.69-74.345 26.49-74.345-3.419s-9.103-60.951-14.516-86.872c0 0-2.583-.291-4.284-.291-1.702 0-4.253-.42-4.253-.42z" class="Vector 3_3"/>
          <path fill="#000" fill-opacity=".1" d="M599.332 468.377c2.735-11.622-3.418-62.952-6.836-87.164 8.204 12.989 14.527 65.8 14.527 88.873.855 15.382 18.8 13.673 21.364 13.673 2.051 0 37.315-9.115 54.691-13.673.285 1.994-4.615 2.906-9.4 7.691-5.982 5.982-40.716 10.98-47 13.673-11.964 5.127-32.372-1.709-27.346-23.073z" class="Vector 8"/>
          <path fill="#000" fill-opacity=".07" d="M721.531 456.412l-23.927 14.527c0-9.571-17.091-64.945-27.346-90.582 29.055 9.4 47 51.273 51.273 76.055z" class="Vector 4_2"/>
          <path fill="#000" fill-opacity=".04" d="M576.26 443.594c-4.737-19.018-35.037-39.309-35.037-39.309l29.909 41.873v21.363s5.128-4.557 6.837-6.836c0 0 .387-8.671-1.709-17.091z" class="Vector 5_2"/>
          <path fill="#000" fill-opacity=".04" d="M604.731 432.799a55.157 55.157 0 01-.272-2.877l.272 2.877c.899 7.729 4.519 28.868 17.674 36.432 11.316 6.506 33.327 7.691 33.327 7.691l-33.327 7.69s-5.751-.62-8.546-2.563c-2.357-1.639-5.127-6.837-5.127-6.837l-4.001-42.413z" class="Vector 6"/>
          <path fill="#000" fill-opacity=".15" d="M601.041 582.885c-15.04-9.571-27.345-69.788-31.618-104.254-4.273 30.763 2.848 78.618 8.545 104.254h23.073z" class="Vector 9_3"/>
          <path fill="#000" fill-opacity=".1" d="M631.805 584.594c22.56-6.153 51.272-35.037 64.945-120.491 6.837 42.727 12.818 59.818 11.109 120.491h-76.054z" class="Vector 10"/>
        </g>
      </g>
    </g>
  </g>
</svg>
