<svg xmlns="http://www.w3.org/2000/svg" width="800" height="601" fill="none" viewBox="0 0 800 601">
  <g class="woman_coding">
    <path fill="#fff" d="M0 1h800v600H0z"/>
    <path fill="#431E4D" d="M0 0h800v600H0z" class="Primary"/>
    <path fill="#000" fill-opacity=".16" d="M572.638 366.402c131.478-15.174 196.678 114.119 192.992 9.973-3.562-100.659-155.176-312.809-255.885-311.216-88.986 1.407-54.612 73.482-149.151 122.165-94.539 48.684-177.091-55.769-235.001 15.689-46.475 57.349 23.94 87.515-23.737 243.445-22.72 74.308 123.342 141.067 226.623 107.589 147.889-47.939 112.681-172.471 244.159-187.645z" class="Vector 18"/>
    <path fill="#000" fill-opacity=".16" fill-rule="evenodd" d="M379.598 530.668c37.412-23.396 57.463-53.362 76.202-81.368 26.477-39.569 50.335-75.223 116.838-82.898 62.994-7.27 110.773 18.623 143.051 36.115 35.091 19.017 51.861 28.105 49.941-26.142-3.563-100.659-155.177-312.809-255.886-311.216-47.68.754-59.943 21.796-75.598 48.659-6.781 11.635-14.198 24.361-25.405 37.004 93.541-3.675 190.313 18.387 180.355 97.94-8.636 69-54.036 93.857-95.311 116.455-5.138 2.814-10.213 5.592-15.144 8.416-42.671 24.436-84.148 48.189-91.527 115.729-1.66 15.199-4.235 28.926-7.516 41.306z" class="Intersect" clip-rule="evenodd"/>
    <path fill="#000" fill-opacity=".41" fill-rule="evenodd" d="M286.044 73.017l-3.032 3.682 52.818 78.198-52.997 73.037 3.567 4.649 135.789 5.505 54.796-77.389-55.234-83.11-135.57-4.564-.137-.008z" class="Union" clip-rule="evenodd"/>
    <path fill="#fff" fill-opacity=".54" d="M283.17 228.072l52.411-73.183 135.708 4.568-52.412 73.184-135.707-4.569z" class="Rectangle 2"/>
    <path fill="#fff" fill-opacity=".46" d="M282.991 76.67l52.59 78.218 135.708 4.569-52.59-78.217-135.708-4.57z" class="Rectangle 2.5"/>
    <g class="Group">
      <path fill="#6A5050" fill-rule="evenodd" d="M244.524 304.57c12.508-11.148 24.46-25.038 27.196-39.56 2.725-14.465 4.984-30.714 11.232-44.291 2.018-4.385 3.45-6.752 7.076-10.143 4.047-3.786 10.398-3.574 14.184.473 6.874 7.349.009 5.209-3.045 11.845-3.744 1.834-6.333 8.774-7.736 13.393-2.804 9.227-3.873 31.837-4.991 37.767-3.878 20.586-16.331 32.816-30.56 45.5-14.213 12.668-30.614 21.815-42.554 25.059-5.349 1.452-10.863-1.706-12.316-7.054-1.453-5.349 1.705-10.863 7.054-12.316 8.215-2.232 21.936-9.509 34.46-20.673z" class="Vector 7.1 (Stroke)" clip-rule="evenodd"/>
    </g>
    <path fill="#FDD" fill-rule="evenodd" d="M236 344.064c-12.781 10.164-32.133-11.524-32.133-11.524s10.998-11.705 29.949-23.577c0 0 9.281 12.612 13.416 20.928 1.662 3.341-7.746 11.4-11.232 14.173z" class="Vector 6 (Stroke).1" clip-rule="evenodd"/>
    <path fill="#fff" fill-opacity=".41" d="M292.141 80.694l47.479 70.615 122.518 4.125-47.479-70.615-122.518-4.125z" class="Rectangle 2.11"/>
    <path fill="#373248" fill-opacity=".7" fill-rule="evenodd" d="M337.203 175.371l-3.756-.132 3.092-3.682 3.756.132-3.092 3.682zm13.874.729l-7.511-.265 4.24-3.881 7.511.264-4.24 3.882zm14.596.603l-7.511-.264 4.666-3.956 7.511.265-4.666 3.955zm15.022.529l-7.511-.264 4.666-3.956 7.511.265-4.666 3.955zm15.733.406l-7.511-.265 3.955-3.832 7.511.265-3.955 3.832zm15.306.48l-7.511-.265 3.672-3.782 7.511.264-3.672 3.783zm14.596.603l-7.511-.265 4.098-3.856 7.511.264-4.098 3.857zm12.351.672l-3.756-.132 3.014-4.132 3.755.132c5.698.201 1.242 4.282-3.013 4.132z" class="Vector 21 (Stroke)" clip-rule="evenodd"/>
    <g class="Group 4">
      <path fill="#240E29" fill-rule="evenodd" d="M337.04 174.138l-3.756-.132 3.092-3.682 3.756.132-3.092 3.682zm13.874.729l-7.511-.265 4.24-3.881 7.511.265-4.24 3.881zm14.596.603l-7.511-.264 4.666-3.956 7.511.265-4.666 3.955zm15.022.53l-7.511-.265 4.666-3.956 7.511.265-4.666 3.956zm15.733.405l-7.511-.265 3.955-3.832 7.511.265-3.955 3.832zm15.306.48l-7.511-.265 3.671-3.782 7.512.264-3.672 3.783zm14.596.603l-7.511-.264 4.098-3.857 7.511.264-4.098 3.857zm12.351.672l-3.756-.132 3.014-4.132 3.755.132c5.698.201 1.242 4.282-3.013 4.132z" class="Vector 21 (Stroke)_2" clip-rule="evenodd"/>
    </g>
    <g class="Group 4.1">
      <path fill="#373248" fill-opacity=".7" fill-rule="evenodd" d="M329.148 185.51l-3.755-.132 3.092-3.682 3.755.132-3.092 3.682zm13.874.729l-7.511-.265 4.24-3.881 7.511.265-4.24 3.881zm14.596.603l-7.511-.264 4.666-3.956 7.511.265-4.666 3.955zm15.022.53l-7.511-.265 4.666-3.956 7.512.265-4.667 3.956zm15.733.405l-7.511-.264 3.956-3.832 7.511.264-3.956 3.832zm15.306.48l-7.511-.265 3.672-3.782 7.511.264-3.672 3.783zm14.596.603l-7.511-.264 4.098-3.857 7.511.265-4.098 3.856zm12.351.672l-3.755-.132 3.013-4.132 3.756.132c5.697.201 1.241 4.282-3.014 4.132z" class="Vector 21 (Stroke).1" clip-rule="evenodd"/>
      <path fill="#373248" fill-opacity=".7" fill-rule="evenodd" d="M321.095 195.648l-3.756-.132 3.092-3.682 3.755.133-3.091 3.681zm13.874.729l-7.512-.264 4.24-3.882 7.512.265-4.24 3.881zm14.595.604l-7.511-.265 4.667-3.956 7.511.265-4.667 3.956zm15.023.529l-7.512-.265 4.667-3.956 7.511.265-4.666 3.956zm15.732.405l-7.511-.264 3.956-3.832 7.511.264-3.956 3.832zm15.307.48l-7.511-.265 3.671-3.782 7.511.264-3.671 3.783zm14.596.603l-7.512-.264 4.098-3.857 7.511.265-4.097 3.856zm12.351.672l-3.756-.132 3.013-4.132 3.756.133c5.698.2 1.241 4.281-3.013 4.131z" class="Vector 21 (Stroke).1.1" clip-rule="evenodd"/>
      <path fill="#373248" fill-opacity=".7" fill-rule="evenodd" d="M313.04 205.786l-3.756-.132 3.092-3.682 3.756.133-3.092 3.681zm13.874.729l-7.511-.264 4.24-3.882 7.511.265-4.24 3.881zm14.596.604l-7.511-.265 4.666-3.956 7.511.265-4.666 3.956zm15.022.529l-7.511-.265 4.666-3.955 7.511.264-4.666 3.956zm15.733.405l-7.511-.264 3.955-3.832 7.511.264-3.955 3.832zm15.306.48l-7.511-.264 3.671-3.783 7.512.265-3.672 3.782zm14.596.604l-7.511-.265 4.098-3.857 7.511.265-4.098 3.857zm12.351.671l-3.756-.132 3.014-4.132 3.755.133c5.698.2 1.242 4.281-3.013 4.131z" class="Vector 21 (Stroke).1.1.1" clip-rule="evenodd"/>
      <path fill="#240E29" fill-rule="evenodd" d="M328.985 184.276l-3.755-.133 3.091-3.681 3.756.132-3.092 3.682zm13.874.729l-7.511-.265 4.24-3.881 7.511.264-4.24 3.882zm14.596.603l-7.511-.265 4.666-3.955 7.511.264-4.666 3.956zm15.022.529l-7.511-.264 4.666-3.956 7.511.265-4.666 3.955zm15.733.406l-7.511-.265 3.956-3.832 7.511.265-3.956 3.832zm15.306.479l-7.511-.264 3.672-3.783 7.511.265-3.672 3.782zm14.596.604l-7.511-.265 4.098-3.856 7.511.264-4.098 3.857zm12.351.672l-3.755-.133 3.013-4.131 3.756.132c5.697.201 1.241 4.281-3.014 4.132z" class="Vector 21 (Stroke).1_2" clip-rule="evenodd"/>
      <path fill="#240E29" fill-rule="evenodd" d="M320.93 194.414l-3.755-.133 3.092-3.681 3.755.132-3.092 3.682zm13.874.729l-7.511-.265 4.24-3.881 7.511.264-4.24 3.882zm14.596.603l-7.511-.265 4.667-3.955 7.511.264-4.667 3.956zm15.022.529l-7.511-.264 4.667-3.956 7.511.265-4.667 3.955zm15.733.406l-7.511-.265 3.956-3.832 7.511.265-3.956 3.832zm15.307.479l-7.511-.264 3.671-3.783 7.511.265-3.671 3.782zm14.595.604l-7.511-.265 4.098-3.856 7.511.264-4.098 3.857zm12.352.672l-3.756-.133 3.013-4.131 3.756.132c5.697.201 1.241 4.281-3.013 4.132z" class="Vector 21 (Stroke).1.1_2" clip-rule="evenodd"/>
      <path fill="#240E29" fill-rule="evenodd" d="M312.877 204.552l-3.756-.133 3.092-3.681 3.756.132-3.092 3.682zm13.874.729l-7.511-.265 4.24-3.881 7.511.264-4.24 3.882zm14.596.603l-7.511-.264 4.666-3.956 7.511.264-4.666 3.956zm15.022.529l-7.511-.264 4.666-3.956 7.511.265-4.666 3.955zm15.733.406l-7.512-.265 3.956-3.832 7.511.265-3.955 3.832zm15.306.48l-7.511-.265 3.671-3.783 7.511.265-3.671 3.783zm14.596.603l-7.511-.265 4.098-3.856 7.511.264-4.098 3.857zm12.351.672l-3.756-.133 3.014-4.131 3.755.132c5.698.201 1.242 4.282-3.013 4.132z" class="Vector 21 (Stroke).1.1.1_2" clip-rule="evenodd"/>
    </g>
    <path fill="#FFF4F4" fill-rule="evenodd" d="M207.99 392.323c12.055 39.994 20.472 67.917 56.255 104.26 1.049 1.066 2.194 1.879 3.426 2.457 15.179 13.932 33.657 23.504 52.744 22.245 26.337-1.738 48.41-20.09 67.423-35.896 12.124-10.081 23.005-19.127 32.952-22.168 20.436-6.249 66.605 12.349 87.135 22.429 23.352-17.462 25.435-58.848 8.422-80.113-10.279-12.847-3.902-25.884 1.666-37.267 3.648-7.458 6.949-14.206 4.989-19.725-42.459.233-99.507 3.853-136.309 27.481l.005-.008-.037.028c-3.683 2.367-7.164 4.935-10.406 7.719-19.729 14.112-62.107 41.807-80.077 33.327-1.726-.814-3.818-2.162-6.128-3.651-6.99-4.504-21.668-6.531-28.504-2.688 8.987-6.462 5.916-12.232 2.82-16.494-2.045-2.816-.132-13.825.482-18.409 5.455-40.701-47.758-58.927-47.758-58.927s-.832 6.611-15.991 7.382c-2.22.113-4.422-1.117-6.953-2.53-3.23-1.804-6.995-3.907-12.016-3.898 12.438 29.917 19.634 53.791 25.86 74.446z" class="Union_2" clip-rule="evenodd"/>
    <path fill="#9D7F7F" d="M410.465 207.578c-4.519-9.694-10.52-8.571-10.52-8.571l-14.808 2.786s-9.491 9.022-25.346 24.967c1.625 2.525 2.965 7.365 9.761 12.009 1.704 1.164 11.286 7.489 28.273-9.735 19.377-1.89 19.164-7.461 12.64-21.456z" class="Vector 8"/>
    <path fill="#6A5050" d="M329.67 194.997c-3.443-7.388-8.016-6.532-8.016-6.532l-11.284 2.123s-11.667 5.78-22.841 22.395c1.238 1.924 5.786 2.243 10.965 5.782 1.298.887 5.887.522 18.831-12.603 14.766-1.441 17.316-.501 12.345-11.165z" class="Vector 8.1"/>
    <path fill="#6A5050" d="M315.382 222.229c-3.979 2.686-12.859 1.588-16.802.703l.35-9.839 12.179-7.184c.289 2.143 1.387 6.549 3.466 7.03 2.599.6 6.07-1.044 8.678.45 2.607 1.495-2.897 5.483-7.871 8.84z" class="Vector 11"/>
    <path fill="#000" fill-opacity=".17" fill-rule="evenodd" d="M424.829 90.357l-7.855-.196c-7.278-.182-2.816 12.496 10.314 12.329 1.525-.019 3.476.002 5.736.055l-8.195-12.188zm14.087 20.953l-7.978-.2c-7.277-.181-2.816 12.496 10.314 12.33 1.553-.02 3.548.003 5.859.058l-8.195-12.188zm14.087 20.951l-8.101-.202c-7.277-.182-2.816 12.496 10.314 12.329 1.58-.02 3.618.004 5.982.061l-8.195-12.188z" class="Intersect_2" clip-rule="evenodd"/>
    <path fill="#000" fill-opacity=".17" fill-rule="evenodd" d="M324.421 138.289l48.343 2.247-4.006-7.043-48.686-1.673 4.349 6.469zm-9.932-14.772l49.856 2.318-4.006-7.043-50.186-1.724 4.336 6.449zm-9.088-13.516c15.375.779 30.746 1.761 30.746 1.761 13.792.344 5.602-13.179-3.624-13.41l-35.55-.887L305.401 110z" class="Intersect_3" clip-rule="evenodd"/>
    <path fill="#9D7F7F" d="M193.447 250.229c5.184-5.435 10.674-1.356 11.275 3.179.998 7.541 8.906 8.508 8.906 8.508-.309 2.05-2.35 6.538-8.037 8.085-5.686 1.547-9.973-1.798-11.406-3.664-2.406-3.104-5.922-10.672-.738-16.108z" class="Vector 17"/>
    <path fill="#65DFE7" d="M261.561 101.71l64.626 1.614c9.225.23 17.415 13.753 3.623 13.409 0 0-44.805-2.861-57.935-2.694-13.13.166-17.591-12.511-10.314-12.329z" class="Rectangle 2_2"/>
    <path fill="#65DFE7" d="M406.883 94.874l64.625 1.614c9.225.23 17.415 13.753 3.623 13.409 0 0-44.804-2.861-57.935-2.694-13.13.167-17.591-12.511-10.313-12.33z" class="Rectangle 2.8"/>
    <path fill="#65DFE7" d="M420.847 115.823l64.625 1.614c9.225.231 17.415 13.754 3.623 13.409 0 0-44.804-2.86-57.935-2.694-13.13.167-17.591-12.511-10.313-12.329z" class="Rectangle 2.9"/>
    <path fill="#65DFE7" d="M434.811 136.772l64.626 1.614c9.225.231 17.415 13.754 3.623 13.409 0 0-44.805-2.86-57.935-2.694-13.13.167-17.591-12.511-10.314-12.329z" class="Rectangle 2.10"/>
    <path fill="#65DFE7" d="M555.337 464.944l-13.447 13.544c-3.827 3.023-3.691-1.301-6.475.232-2.785 1.533 6.082 14.727 10.242 19.432 4.159 4.704 13.64-6.335 21.827-14.797 8.186-8.463 26.907-14.966 30.705-17.744 3.799-2.778 11.344-11.915 11.804-15.829.46-3.915-6.592-7.223-12.664-1.984-4.857 4.192-28.452 10.965-41.992 17.146z" class="Vector 10"/>
    <path fill="#65DFE7" d="M549.109 461.516c2.195 1.097 2.83 6.264 2.873 8.71l2.763 2.239 19.895-2.739c.979-3.559 1.886-10.292-2.319-8.751-4.204 1.541-16.984-2.554-22.848-4.794-1.036 1.322-2.56 4.239-.364 5.335z" class="Vector 22"/>
    <path fill="#9D7F7F" fill-rule="evenodd" d="M541.889 478.489l9.983-10.055c-.259-2.599-1.015-6.031-2.752-6.912-6.292-2.633-14.471-5.516-22.688-8.21-1.183 6.494-3.324 12.753-6.447 18.327 7.77 2.53 15.375 5.184 20.965 7.495a7.56 7.56 0 00.939-.645z" class="Subtract" clip-rule="evenodd"/>
    <path fill="#65DFE7" d="M295.473 121.752l58.529 2.01 4.006 7.044-57.935-2.693-4.6-6.361z" class="Rectangle 2.6"/>
    <path fill="#65DFE7" d="M303.891 136.453l58.529 2.011 4.006 7.043-57.935-2.693-4.6-6.361z" class="Rectangle 2.7"/>
    <path fill="#E8ECFA" d="M367.821 50.651l-60.237-2.079 31.468 50.537 59.363 2.546-30.594-51.004z" class="Vector 18_2" opacity=".9"/>
    <g class="Group 2.1">
      <path fill="#CFD4E8" fill-opacity=".91" d="M324.583 58.575l37.698 1.32 2.68 4.52-37.686-1.65-2.692-4.19z" class="Rectangle 2.11_2"/>
      <path fill="#CFD4E8" fill-opacity=".91" d="M330.449 68.048l37.483 1.275 2.572 4.51-37.379-1.733-2.676-4.052z" class="Rectangle 2.12"/>
      <path fill="#CFD4E8" fill-opacity=".91" d="M335.793 76.487l37.119 1.295 2.702 4.556-37.252-1.77-2.569-4.08z" class="Rectangle 2.13"/>
      <path fill="#CFD4E8" fill-opacity=".91" d="M341.646 85.899l37.011 1.372 2.762 4.38-37.096-1.499-2.677-4.253z" class="Rectangle 2.14"/>
    </g>
    <g class="Group 2">
      <path fill="#65DFE7" d="M322.895 61.944l37.697 1.32 2.68 4.52-37.685-1.65-2.692-4.19z" class="Rectangle 2.11_3"/>
      <path fill="#65DFE7" d="M328.761 71.417l37.482 1.275 2.572 4.51-37.379-1.733-2.675-4.052z" class="Rectangle 2.12_2"/>
      <path fill="#65DFE7" d="M334.104 79.856l37.119 1.295 2.702 4.556-37.251-1.77-2.57-4.08z" class="Rectangle 2.13_2"/>
      <path fill="#65DFE7" d="M339.958 89.268l37.01 1.372 2.763 4.381-37.097-1.5-2.676-4.253z" class="Rectangle 2.14_2"/>
    </g>
    <path fill="#65DFE7" d="M585.924 355.963l-9.407 17.995c-2.939 4.276-4.161-.162-6.508 2.272-2.348 2.434 10.814 13.054 16.521 16.528 5.708 3.473 11.871-10.728 17.53-21.904 5.658-11.176 23.858-25.39 26.845-29.408 2.986-4.018 6.562-13.961 5.798-18.084-.764-4.123-8.971-5.267-13.494 1.967-3.618 5.788-25.468 20.093-37.285 30.634z" class="Vector 10_2"/>
    <path fill="#65DFE7" d="M578.515 354.439c2.576.423 4.847 5.475 5.66 7.948l3.513 1.406 19.358-9.041c-.125-3.926-1.321-11.054-5.109-8.165-3.788 2.889-18.064 2.747-24.729 2.314-.637 1.67-1.268 5.114 1.307 5.538z" class="Vector 22_2"/>
    <path fill="#9D7F7F" fill-rule="evenodd" d="M583.5 360.6c-1.045-2.475-2.807-5.595-4.768-6.116-15.313.273-39.07 2.69-56.661 4.782-1.047 2.85-2.521 5.865-4.058 9.006-2.146 4.388-4.413 9.021-5.799 13.795 14.22-1.871 40.071-4.854 57.793-5.835l.002-.002c1.029-1.067 1.842-.813 2.678-.552 1.071.335 2.18.681 3.83-1.72L583.5 360.6z" class="Subtract_2" clip-rule="evenodd"/>
    <path fill="#FFDEDE" fill-rule="evenodd" d="M214.142 418.809c-1.848-9.217-3.638-18.145-6.152-26.486-6.015-19.953-12.935-42.91-24.61-71.417 2.832-.461 5.135-.886 6.642-1.26 1.488.657 2.848 1.416 4.124 2.129l.006.003c3.059 3.036 4.933 6.561 7.054 10.552 1.861 3.5 3.911 7.357 7.118 11.557 10.5 13.757 13.981 16.004 17.086 18.008 2.582 1.667 4.902 3.165 10.783 10.974-4.272 5.561 1.475 16.971 5.576 25.113 1.598 3.174 2.947 5.851 3.354 7.491 15.798 63.569 58.778 83.268 96.819 54.479 47.808-36.18 126.672-65.195 169.782-63.147.822 2.906 2.296 5.824 4.622 8.732 16.663 20.827 15.009 60.953-7.004 79.003a347.959 347.959 0 00-17.419-6.701 288.462 288.462 0 00-8.577-2.88c-21.799-8.445-48.374-16.075-62.556-11.738-9.948 3.041-20.828 12.087-32.953 22.168-19.012 15.806-47.672 39.019-74.009 40.757-19.087 1.26-43.139-8.227-62.572-26.619-25.831-24.447-31.72-53.816-37.114-80.718z" class="Intersect_4" clip-rule="evenodd"/>
    <path fill="#A346BA" fill-rule="evenodd" d="M716.951 55.82L581.548 88.034l1.575 6.621 135.403-32.214-1.575-6.62zM578.749 76.272l37.622-8.951 1.575 6.62-37.622 8.951-1.575-6.62zM216.406 236.048l-5.578 17.197s-5.513.503-7.989-1.595c-1.645-1.393-3.283-4.436-3.283-4.436-.253 3.532 3.368 10.076 8.144 16.261 5.972 7.732 6.741 36.163-1.541 44.177-8.283 8.013-18.406 46.101 4.711 75.575 9.886 12.606 14.643 28.27 15.937 43.769 6.962-2.988 13.501-5.985 15.615-7.369 1.218-.798 3.69-2.478 6.724-4.54l.001-.001.013-.009.002-.001c6.807-4.626 16.432-11.167 21.086-13.991-.192-4.003.295-9.361 1.665-13.906.858-2.848 2.132-5.616 4.009-7.515 1.984-2.008 4.645-3.021 7.813-2.142 1.42.394 2.663 1.043 3.502 2.099.877 1.104 1.109 2.393.978 3.625-.125 1.181-.584 2.366-1.158 3.479-.512.993-1.163 2.019-1.885 3.051a44.087 44.087 0 013.37-2.73c2.899-2.11 6.098-3.808 9.209-4.255 3.262-.467 6.42.462 8.735 3.499 1.054 1.384 1.727 2.839 1.761 4.354.035 1.575-.626 2.889-1.598 3.923-.937.997-2.198 1.78-3.549 2.425-1.367.654-2.945 1.222-4.613 1.739-2.421.749-5.179 1.431-7.917 2.108l-.001.001h-.001c-1.004.248-2.005.496-2.987.746-1.048.267-2.077.538-3.073.816 1.79.461 3.746 1.289 5.848 2.608 6.704 4.209 20.689.664 21.688-.994l.006.102c.095 1.905.172 3.435-1.349 4.266-4.3 2.349-19.312 2.457-22.328-.523-2.651-2.619-5.469-4.568-9.905-3.434-.267.113-.528.228-.781.345l-1.465.678a1.728 1.728 0 01-.06.124c-.036.068-.08.141-.13.219 3.649.576 8.03 2.38 10.898 6.611 6.137 9.056 13.683 16.44 15.272 15.799-.865 1.516-2.261 3.599-4.469 3.479-2.956-.159-10.241-11.668-13.483-17.888-1.694-3.248-6.166-4.099-9.991-4.828l-.025-.004-.05-.01-.019-.004-.04-.007-.296-.057-.266-.051-.147-.028-.146-.029c-6.095 5.748-19.799 16.284-25.922 19.88-5.882 3.455-13.411 6.559-20.028 9.288l-.157.065c-.29 16.758-4.29 32.387-9.784 42.597-4.712 8.755-14.03 2.812-25.884-4.748-11.685-7.452-25.834-16.475-40.461-14.539-5.155.682-14.204 6.539-24.269 13.055-17.937 11.612-39.103 25.315-47.221 15.544-6.412-7.716-.998-28.581 4.254-48.828 5.308-20.459 10.452-40.287 3.066-45.278-49.696-33.577-4.516-64.046 30.324-87.542 15.88-10.709 29.612-19.97 31.23-27.415 8.016-36.87 12.307-44.761 31.773-52.229 15.827-6.072 26.39.922 34.501 6.293l.002.001c.583.386 1.153.764 1.712 1.128zM276 395.02c-.583.733-1.167 1.478-1.734 2.227.154-2.865.62-6.072 1.477-8.914.779-2.587 1.814-4.633 3.024-5.858 1.104-1.117 2.31-1.539 3.898-1.099.958.266 1.316.578 1.44.734.086.108.178.282.132.714-.051.483-.269 1.164-.735 2.068-.458.888-1.098 1.885-1.883 2.981-1.148 1.603-2.515 3.295-3.95 5.071v.001l-.002.002h-.001c-.548.679-1.106 1.37-1.666 2.073zm10.593 2.69c-1.554.396-3.12.812-4.638 1.266 2.404-3.006 5.601-6.265 8.94-8.696 2.679-1.95 5.251-3.217 7.424-3.529 2.023-.29 3.664.23 4.985 1.964.764 1.002.936 1.653.944 2.019.007.305-.092.646-.514 1.094-.456.485-1.221 1.011-2.359 1.556-1.121.536-2.495 1.038-4.071 1.526-2.302.712-4.887 1.352-7.584 2.019l-.004.001h-.001c-1.027.254-2.071.512-3.122.78zM584.347 99.797l135.402-32.214 1.576 6.621-135.403 32.214-1.575-6.62zm43.22 14.575l-37.622 8.951 1.575 6.621 37.622-8.951-1.575-6.621zm-34.823 20.714l73.73-17.541 1.575 6.621-73.73 17.541-1.575-6.621zm43.22 14.575l-37.622 8.951 1.575 6.621 37.622-8.951-1.575-6.621zm-34.823 20.714l73.729-17.541 1.575 6.621-73.729 17.541-1.575-6.621zm43.22 14.575l-37.622 8.95 1.575 6.621 37.622-8.95-1.575-6.621zm-34.822 20.713l135.397-32.213 1.575 6.621-135.397 32.213-1.575-6.621zm138.195-20.45l-135.396 32.213 1.575 6.621 135.397-32.213-1.576-6.621zM79.979 59.1l38.472 3.925-.691 6.77-38.472-3.925.69-6.77zM208.9 84.407L78.751 71.128l-.69 6.771L208.21 91.178l.691-6.77zm-131.377-1.25l130.149 13.28-.691 6.77L76.834 89.928l.69-6.77zm36.019 27.983l-38.472-3.925-.691 6.771 38.472 3.925.691-6.771zm-39.699 8.104l90.222 9.205-.691 6.771-90.222-9.205.691-6.771zm36.019 27.983l-38.473-3.925-.69 6.771 38.472 3.925.691-6.771zm-39.7 8.104l90.221 9.205-.691 6.77-90.22-9.205.69-6.77zm36.019 27.983l-38.472-3.925-.69 6.77 38.472 3.926.69-6.771zm495.504 150.09c-.918.335-1.289 1.304-.827 2.166l5.396 10.069c.462.862 1.581 1.289 2.499.954.918-.334 1.289-1.303.827-2.165l-5.396-10.069c-.462-.862-1.581-1.289-2.499-.955zm-9.874 8.621c-.461-.862-.091-1.831.827-2.166.918-.334 2.037.093 2.499.955l5.396 10.069c.462.862.092 1.831-.827 2.166-.918.334-2.037-.093-2.499-.955l-5.396-10.069zm-16.053 107.044c-.917.045-1.519.812-1.344 1.714l2.047 10.542c.175.901 1.061 1.596 1.979 1.551.917-.045 1.519-.813 1.344-1.715l-2.047-10.541c-.175-.902-1.061-1.596-1.979-1.551zm-9.917 3.283c-.918.045-1.52.813-1.345 1.714l2.048 10.542c.175.902 1.061 1.596 1.978 1.551.918-.045 1.52-.813 1.344-1.714l-2.047-10.542c-.175-.901-1.061-1.596-1.978-1.551zm27.23-62.528c-1.967 2.108-7.936 1.189-10.674.466.556 2.355 1.288 2.757 5.836 5.253.852.468 1.839 1.009 2.984 1.651 7.25 4.066 16.945-14.143 17.879-18.343.934-4.201 9.807-19.904 15.887-21.34 6.081-1.436 16.815-25.025 15.859-30.705-.764-4.544-5.526-6.457-7.706-6.627 10.598 12.261-19.435 37.942-23.961 41.065-2.782 1.919-7.297 11.278-10.936 18.819l-.001.002c-2.282 4.729-4.219 8.743-5.167 9.759zm-40.726 107.512c-2.352 1.346-7.456-1.138-9.714-2.548-.155 2.27.391 2.834 3.78 6.339a322.86 322.86 0 012.221 2.312c5.381 5.665 19.145-7.991 21.151-11.503 2.006-3.512 14.338-15.147 20.196-14.747 5.859.401 22.053-17.797 22.773-23.163.576-4.293-3.168-7.334-5.078-8.093 6.109 13.955-27.995 28.669-32.927 30.215-3.031.95-9.687 8.099-15.05 13.86v.001c-3.364 3.612-6.219 6.679-7.352 7.327z" class="Union_3" clip-rule="evenodd"/>
    <path fill="#9D7F7F" fill-rule="evenodd" d="M213.996 243.479l-3.167 9.766s-5.513.503-7.989-1.595c-1.645-1.393-3.284-4.436-3.284-4.436-.253 3.532 3.368 10.076 8.145 16.261 3.253 4.213 4.962 14.568 4.505 24.418 6.857-1.736 15.527-4.94 17.639-10.315 1.501-3.822-.587-11.173-5.036-19.141.942-1.373 1.439-2.828.666-3.937-.676-.971-2.807-2.22-5.369-3.454a83.123 83.123 0 00-6.11-7.567z" class="Subtract_3" clip-rule="evenodd"/>
    <path fill="#9D7F7F" fill-rule="evenodd" d="M277.385 320.355c26.239-14.768 51.505-47.147 66.622-73.415 6.955-12.086 18.156-26.857 35.5-29.488l3.42 22.551c-6.074.921-15.86 2.086-22.45 13.538-21.678 37.669-39.161 75.423-78.986 97.838-23.977 13.494-42.468 18.736-58.949 19.061-6.297.124-11.503-4.881-11.627-11.178-.124-6.297 3.507-15.096 9.804-15.22 11.041-.217 34.111-10.992 56.666-23.687z" class="Vector 7 (Stroke)" clip-rule="evenodd"/>
    <path fill="#FFF4F4" fill-rule="evenodd" d="M217.464 367.674c6.445 3.003 14.248 1.707 26.219.123-4.116 9.807-17.634 13.218-27.269 10.455-7.176-2.058-13.16-12.096-13.736-18.76-.557-6.448-1.18-11.986 4.959-17.07 8.755-7.25 20.144-4.163 22.54-.53-9.618 2.15-19.739 4.201-18.682 16.433.222 2.571 1.558 7.293 5.969 9.349z" class="Vector 26 (Stroke)" clip-rule="evenodd"/>
    <path stroke="#fff" stroke-linecap="round" stroke-opacity=".5" d="M161.617 488.499c-9.093-10.297-25.057-35.481-16.177-53.85 11.1-22.96 28.642-39.986 18.727-55.075" class="Vector 28"/>
    <path stroke="#fff" stroke-linecap="round" stroke-opacity=".5" d="M101.375 309.494c12.005-.457 37.995-4.35 45.921-16.258 9.907-14.884-5.689-55.803 34.445-64.508" class="Vector 29"/>
    <path fill="#240E29" d="M446.831 120.05a.5.5 0 00-.521-.854l.521.854zm-5.818 2.962l-.261-.427-.832.507.898.38.195-.46zm6.854 3.442a.5.5 0 10.389-.92l-.389.92zm-1.557-7.258l-5.558 3.389.521.854 5.558-3.389-.521-.854zm-5.492 4.276l7.049 2.982.389-.92-7.048-2.983-.39.921z" class="Vector"/>
    <path fill="#240E29" d="M461.531 120.327a.5.5 0 11.489-.872l-.489.872zm6.74 3.211l.244-.436.874.491-.917.403-.201-.458zm-5.671 3.038a.5.5 0 01-.403-.915l.403.915zm-.58-7.121l6.495 3.647-.489.872-6.495-3.647.489-.872zm6.452 4.541l-5.872 2.58-.403-.915 5.872-2.58.403.915z" class="Vector_2"/>
    <g class="Group 7">
      <path fill="#fff" fill-opacity=".18" d="M578.75 76.272l37.622-8.95 1.575 6.62-37.622 8.951z" class="Rectangle 4"/>
      <path fill="#fff" fill-opacity=".18" d="M581.549 88.034L716.953 55.82l1.575 6.621-135.404 32.214z" class="Rectangle 4.1"/>
      <path fill="#fff" fill-opacity=".18" d="M584.348 99.797L719.75 67.583l1.575 6.621-135.403 32.214z" class="Rectangle 4.2"/>
      <path fill="#fff" fill-opacity=".18" d="M589.945 123.323l37.622-8.95 1.575 6.62-37.622 8.951z" class="Rectangle 4.4"/>
      <path fill="#fff" fill-opacity=".18" d="M592.745 135.086l73.73-17.541 1.575 6.62-73.73 17.542z" class="Rectangle 4.5"/>
      <path fill="#fff" fill-opacity=".18" d="M598.343 158.612l37.622-8.95 1.575 6.62-37.622 8.951z" class="Rectangle 4.7"/>
      <path fill="#fff" fill-opacity=".18" d="M601.142 170.375l73.73-17.541 1.574 6.621-73.729 17.541z" class="Rectangle 4.8"/>
      <path fill="#fff" fill-opacity=".18" d="M606.74 193.9l37.622-8.95 1.575 6.62-37.622 8.951z" class="Rectangle 4.10"/>
      <path fill="#fff" fill-opacity=".18" d="M609.54 205.663l135.397-32.213 1.575 6.622-135.397 32.212z" class="Rectangle 4.11"/>
      <path fill="#fff" fill-opacity=".18" d="M612.339 217.426l135.396-32.212 1.575 6.62-135.396 32.213z" class="Rectangle 4.12"/>
    </g>
    <g class="Group 7.1">
      <path fill="#fff" fill-opacity=".18" d="M79.978 59.1l38.472 3.925-.69 6.771-38.473-3.925z" class="Rectangle 4_2"/>
      <path fill="#fff" fill-opacity=".18" d="M78.75 71.129L208.9 84.408l-.69 6.77L78.06 77.9z" class="Rectangle 4.1_2"/>
      <path fill="#fff" fill-opacity=".18" d="M77.524 83.157l130.15 13.279-.691 6.77-130.15-13.278z" class="Rectangle 4.2_2"/>
      <path fill="#fff" fill-opacity=".18" d="M75.071 107.215l38.472 3.925-.69 6.771-38.473-3.925z" class="Rectangle 4.4_2"/>
      <path fill="#fff" fill-opacity=".18" d="M73.844 119.244l90.222 9.205-.691 6.771-90.222-9.205z" class="Rectangle 4.5_2"/>
      <path fill="#fff" fill-opacity=".18" d="M71.391 143.302l38.472 3.925-.69 6.771-38.473-3.925z" class="Rectangle 4.7_2"/>
      <path fill="#fff" fill-opacity=".18" d="M70.164 155.331l90.22 9.205-.691 6.77-90.22-9.204z" class="Rectangle 4.8_2"/>
      <path fill="#fff" fill-opacity=".18" d="M67.71 179.389l38.472 3.925-.69 6.771-38.473-3.925z" class="Rectangle 4.10_2"/>
    </g>
    <path fill="#9D7F7F" fill-rule="evenodd" d="M198.637 323.942c.829.264 1.644.404 2.462.363 15.159-.771 15.991-7.382 15.991-7.382l.155.054c-.168-10.226-1.086-26.187-4.977-33.504.172 9.703-1.666 19.879-6.109 24.178-2.725 2.636-5.648 8.525-7.522 16.291z" class="Subtract_4" clip-rule="evenodd"/>
    <path fill="#000" fill-opacity=".28" fill-rule="evenodd" d="M281.955 398.974c2.321-.692 4.773-1.306 7.148-1.894l.526-.13c3.306-.818 6.429-1.59 9.019-2.479 2.833-.971 4.545-1.933 5.258-2.844.289-.368.365-.666.338-.982-.032-.377-.234-1.006-.939-1.932-1.211-1.589-2.667-2.133-4.39-2.026-1.857.116-4.088 1.01-6.501 2.552-3.832 2.451-7.661 6.237-10.459 9.735zm16.712-16.279c2.964-.184 5.744.871 7.819 3.594.978 1.283 1.625 2.623 1.744 4.019.123 1.456-.351 2.734-1.175 3.786-1.512 1.931-4.283 3.191-7.109 4.161-2.764.948-6.048 1.76-9.289 2.561-.198.049-5.952 1.509-6.149 1.558-3.336-1.558-8.011-.493-8.011-.493l1.892-4.058s5.584-8.584 11.871-11.954c2.672-1.709 5.578-2.998 8.407-3.174z" class="Vector 25.1 (Stroke)" clip-rule="evenodd"/>
  </g>
</svg>
