<svg xmlns="http://www.w3.org/2000/svg" width="804" height="602" fill="none" viewBox="0 0 804 602">
  <g class="woman_learning_from_videos">
    <path fill="#fff" d="M2 0h800v600H2z"/>
    <path fill="#fff" fill-rule="evenodd" d="M311.429 265.185c1.152-9.569 4.41-14.626 9.36-21.22l.001-.001v-.001c.601-.8 1.218-1.622 1.85-2.476 1.328-1.8 1.948-3.573 2.123-5.337-.175 1.764-.795 3.537-2.123 5.336-.632.855-1.25 1.678-1.851 2.478v.001c-4.95 6.594-8.208 11.65-9.36 21.22zm10.067-47.654c.431-3.374 2.334-6.9 7.192-10.671 2.018-.788 4.344-1.233 7.057-1.393 7.441-.439 12.778-2.386 16.549-5.422a216.103 216.103 0 01-.595 12.876c1.478 4.815 2.679 9.703 1.929 10.678-.597.775-1.897 1.457-3.272 1.993-1.838 13.253-4.954 24.95-9.298 29.449-4.666 4.833-11.211 5.029-18.342 2.355-.487 6.093-.313 12.81 1.412 18.157l5.894-.159a.999.999 0 01.57-1.822h242.392a1 1 0 110 2H333.962c4.25 4.6 11.269 19.581 10.479 22.626-.311 1.2-5.71 3.067-13.939 5.015-4.132-3.931-7.435-7.565-10.063-11.017l-.045.013a74.149 74.149 0 002.891 3.553l.06.007c2.053 2.374 4.424 4.844 7.157 7.445 5.606-1.328 9.899-2.617 12.164-3.684a133.668 133.668 0 0134.457 14.743c12.616 6.964 26.192 17.696 39.225 30.072h272.723c6.627 0 12-5.372 12-12V163.148c0-6.627-5.373-12-12-12H352.547c4.053 4.378 6.969 10.183 7.617 17.443 1.66 18.59-.581 35.469-24.419 36.875-2.713.161-5.039.605-7.057 1.394-4.858 3.771-6.761 7.297-7.192 10.671zm12.003 88.504c-1.314 2.078-2.43 4.279-3.575 6.537-4.655 9.18-9.792 19.311-30.654 26.032v.001c20.862-6.721 25.999-16.853 30.654-26.032v-.001l.001-.001c1.145-2.258 2.26-4.458 3.574-6.536zM599.239 174.4a3.93 3.93 0 013.93-3.929h27.916a3.929 3.929 0 013.929 3.929v18.748a3.929 3.929 0 01-3.929 3.929h-27.916a3.93 3.93 0 01-3.93-3.929V174.4zm43.402 0a3.93 3.93 0 013.93-3.929h27.916a3.93 3.93 0 013.93 3.929v18.748a3.93 3.93 0 01-3.93 3.929h-27.916a3.93 3.93 0 01-3.93-3.929V174.4zm-39.472 30.303a3.93 3.93 0 00-3.93 3.93v18.747a3.93 3.93 0 003.93 3.93h27.916a3.93 3.93 0 003.929-3.93v-18.747a3.93 3.93 0 00-3.929-3.93h-27.916zm39.472 3.93a3.93 3.93 0 013.93-3.93h27.916a3.93 3.93 0 013.93 3.93v18.747a3.93 3.93 0 01-3.93 3.93h-27.916a3.93 3.93 0 01-3.93-3.93v-18.747zm-39.472 30.305a3.93 3.93 0 00-3.93 3.929v18.748a3.93 3.93 0 003.93 3.929h27.916a3.929 3.929 0 003.929-3.929v-18.748a3.929 3.929 0 00-3.929-3.929h-27.916zm39.472 3.929a3.93 3.93 0 013.93-3.929h27.916a3.93 3.93 0 013.93 3.929v18.748a3.93 3.93 0 01-3.93 3.929h-27.916a3.93 3.93 0 01-3.93-3.929v-18.748zm-39.472 30.303a3.93 3.93 0 00-3.93 3.929v18.748a3.93 3.93 0 003.93 3.929h27.916a3.929 3.929 0 003.929-3.929v-18.748a3.929 3.929 0 00-3.929-3.929h-27.916zm39.472 3.929a3.93 3.93 0 013.93-3.929h27.916a3.93 3.93 0 013.93 3.929v18.748a3.93 3.93 0 01-3.93 3.929h-27.916a3.93 3.93 0 01-3.93-3.929v-18.748zm-39.472 30.305a3.93 3.93 0 00-3.93 3.93v18.747a3.93 3.93 0 003.93 3.93h27.916a3.93 3.93 0 003.929-3.93v-18.747a3.93 3.93 0 00-3.929-3.93h-27.916zm39.472 3.93a3.93 3.93 0 013.93-3.93h27.916a3.93 3.93 0 013.93 3.93v18.747a3.93 3.93 0 01-3.93 3.93h-27.916a3.93 3.93 0 01-3.93-3.93v-18.747zm-223.192-102.5a5.255 5.255 0 00-5.255 5.255v23.921a5.255 5.255 0 005.255 5.255h40.123a5.255 5.255 0 005.255-5.255v-23.921a5.255 5.255 0 00-5.255-5.255h-40.123z" class="Subtract" clip-rule="evenodd"/>
    <rect width="41.676" height="8.159" x="628.446" y="445.142" fill="#000" fill-opacity=".23" class="Rectangle" rx="4.08"/>
    <rect width="41.676" height="8.159" x="159.066" y="445.142" fill="#A8B0D4" class="Rectangle_2" rx="4.08"/>
    <rect width="41.676" height="7.028" x="160.822" y="445.142" fill="#051972" class="Rectangle_3" rx="3.514"/>
    <path fill="#fff" fill-opacity=".33" fill-rule="evenodd" d="M451.601 407.749h351.677v-15.882H635.95v9.386H464.48a266.55 266.55 0 00-6.501-9.386h-16.845a79.984 79.984 0 0110.467 15.882zm-292.173-15.882H67.19L.856 407.749h148.098a80.577 80.577 0 0110.474-15.882z" class="Subtract_2" clip-rule="evenodd"/>
    <path fill="#DEE3FC" fill-rule="evenodd" d="M350.321 47.98c-.944 10.957-10.592 19.075-21.55 18.131-10.958-.944-19.075-10.592-18.132-21.55.944-10.957 10.592-19.075 21.55-18.13 10.958.943 19.076 10.591 18.132 21.549zM81.873 65.266c5.843 1.966 12.173-1.176 14.14-7.019 1.966-5.842-1.176-12.173-7.019-14.14-5.843-1.966-12.173 1.177-14.14 7.02-1.966 5.842 1.176 12.173 7.02 14.139zm121.32 35.341c4.728 16.876-5.12 34.39-21.997 39.118-16.876 4.727-34.39-5.121-39.117-21.997-4.728-16.877 5.12-34.39 21.997-39.118 16.876-4.728 34.39 5.12 39.117 21.997zm79.958 52.352c0-6.627 5.373-12 12-12h408.278c6.628 0 12 5.373 12 12v189.577c0 6.627-5.372 12-12 12H542.62v36.897h-86.659v-36.897h-29.352a347.593 347.593 0 00-2.81-2.879h-98.882v-35.016h253.02v27.705h111.134c6.627 0 12-5.373 12-12V163.149c0-6.628-5.373-12-12-12H309.51c-6.628 0-12 5.372-12 12v169.197c0 2.293.643 4.437 1.76 6.259a103.487 103.487 0 01-7.31 2.049 52.044 52.044 0 01-8.809 1.341V152.959zm294.786 149.205h-253.02v6.666h253.02v-6.666zM148.954 407.749a79.813 79.813 0 00-4.619 11.3H4a2 2 0 00-2 2v57.213h143.451l3.863 21.895H2v99.844h164.927l.248 1.408h272.336l-.109-1.297h31.731l-8.504-121.85H802v-59.213H474.883c3.133 6.346 5.081 11.848 5.539 16.078 1.531 14.109-6.917 30.63-18.109 38.614l-2.5-35.83c-.755-10.812-3.634-20.998-8.212-30.162h351.677v-15.881H635.95v-.434H457.664l.202.277.252.348-.139-.191h-16.845c-14.721-17.415-36.715-28.387-61.127-28.387H220.551c-24.779 0-46.565 11.145-61.123 28.387H67.19L.856 407.749h148.098zm350.336 92.408H802v99.844H499.29v-99.844zM43.528 211.923c8.199-2.027 13.202-10.317 11.174-18.516-2.027-8.199-10.317-13.202-18.516-11.175-8.198 2.027-13.202 10.317-11.174 18.516 2.027 8.199 10.317 13.202 18.516 11.175zM500.097 81.439c-2.8 7.968-11.529 12.158-19.497 9.359-7.968-2.8-12.159-11.528-9.359-19.496 2.799-7.969 11.528-12.16 19.496-9.36 7.968 2.8 12.159 11.528 9.36 19.497zm168.214-11.492c8.428-.556 14.809-7.838 14.254-16.265-.556-8.428-7.838-14.81-16.265-14.254-8.428.556-14.809 7.838-14.254 16.265.556 8.428 7.838 14.81 16.265 14.254zM419.449 208.834a5.255 5.255 0 00-5.255 5.255v23.921a5.255 5.255 0 005.255 5.255h40.123a5.255 5.255 0 005.255-5.255v-23.921a5.255 5.255 0 00-5.255-5.255h-40.123zm149.319 84.541h-225.25c-1.973-5.745-6.487-14.481-9.556-17.803h239.022a1 1 0 100-2H330.592a1 1 0 00-.57 1.822l-5.105.137v-17.397c6.269 1.845 11.959 1.238 16.141-3.093 4.344-4.499 7.46-16.196 9.298-29.449 1.375-.536 2.675-1.218 3.272-1.993.75-.975-.451-5.863-1.929-10.678.332-4.374.53-8.728.595-12.876-3.771 3.036-9.108 4.983-16.549 5.422-2.713.16-5.039.605-7.057 1.393-1.537 1.194-2.779 2.362-3.771 3.51v-30.73a9.169 9.169 0 019.169-9.169h234.682a9.169 9.169 0 019.169 9.169v104.566a9.169 9.169 0 01-9.169 9.169z" class="Primary" clip-rule="evenodd"/>
    <path fill="#000" fill-opacity=".07" d="M445.434 391.434H635.95v9.82H445.434z" class="Rectangle 2"/>
    <path fill="#000" fill-opacity=".09" d="M455.961 354.536h86.658v4.316l-86.658 7.18v-11.496z" class="Rectangle 3.2"/>
    <path fill="#73E3EA" d="M453.977 231.233a1.285 1.285 0 010 2.227l-11.654 6.728a1.286 1.286 0 01-1.929-1.113v-13.458a1.286 1.286 0 011.929-1.113l11.654 6.729z" class="Polygon"/>
    <path fill="#9E8DF9" fill-rule="evenodd" d="M599.239 174.4a3.929 3.929 0 013.929-3.929h27.916a3.93 3.93 0 013.93 3.929v18.748a3.93 3.93 0 01-3.93 3.929h-27.916a3.929 3.929 0 01-3.929-3.929V174.4zm43.402 0a3.929 3.929 0 013.929-3.929h27.917a3.929 3.929 0 013.929 3.929v18.748a3.929 3.929 0 01-3.929 3.929H646.57a3.929 3.929 0 01-3.929-3.929V174.4zm-39.473 30.303a3.93 3.93 0 00-3.929 3.93v18.747a3.93 3.93 0 003.929 3.93h27.916a3.93 3.93 0 003.93-3.93v-18.747a3.93 3.93 0 00-3.93-3.93h-27.916zm39.473 3.93a3.93 3.93 0 013.929-3.93h27.917a3.93 3.93 0 013.929 3.93v18.747a3.93 3.93 0 01-3.929 3.93H646.57a3.93 3.93 0 01-3.929-3.93v-18.747zm-39.473 30.305a3.929 3.929 0 00-3.929 3.929v18.748a3.929 3.929 0 003.929 3.929h27.916a3.93 3.93 0 003.93-3.929v-18.748a3.93 3.93 0 00-3.93-3.929h-27.916zm39.473 3.929a3.929 3.929 0 013.929-3.929h27.917a3.929 3.929 0 013.929 3.929v18.748a3.929 3.929 0 01-3.929 3.929H646.57a3.929 3.929 0 01-3.929-3.929v-18.748zm-39.473 30.303a3.929 3.929 0 00-3.929 3.929v18.748a3.929 3.929 0 003.929 3.929h27.916a3.93 3.93 0 003.93-3.929v-18.748a3.93 3.93 0 00-3.93-3.929h-27.916zm39.473 3.929a3.929 3.929 0 013.929-3.929h27.917a3.929 3.929 0 013.929 3.929v18.748a3.929 3.929 0 01-3.929 3.929H646.57a3.929 3.929 0 01-3.929-3.929v-18.748zm-39.473 30.305a3.93 3.93 0 00-3.929 3.93v18.747a3.93 3.93 0 003.929 3.93h27.916a3.93 3.93 0 003.93-3.93v-18.747a3.93 3.93 0 00-3.93-3.93h-27.916zm39.473 3.93a3.93 3.93 0 013.929-3.93h27.917a3.93 3.93 0 013.929 3.93v18.747a3.93 3.93 0 01-3.929 3.93H646.57a3.93 3.93 0 01-3.929-3.93v-18.747zm-223.193-102.5a5.254 5.254 0 00-5.254 5.255v23.921a5.254 5.254 0 005.254 5.255h40.124a5.254 5.254 0 005.254-5.255v-23.921a5.254 5.254 0 00-5.254-5.255h-40.124zm-99.055 83.375c-6.097-8.003-8.567-15.027-9.334-22.501.602-12.642 4.053-18.182 9.73-25.743v-.001l.001-.001c.601-.8 1.218-1.622 1.849-2.476 3.543-4.798 2.045-9.412.506-14.155-2.059-6.342-4.193-12.915 5.542-20.472 2.019-.788 4.344-1.233 7.057-1.393 7.442-.439 12.778-2.386 16.549-5.422a216.086 216.086 0 01-.594 12.876c1.477 4.815 2.678 9.703 1.928 10.678-.596.775-1.897 1.457-3.272 1.993-1.837 13.253-4.954 24.95-9.298 29.449-4.666 4.833-11.211 5.029-18.342 2.355-.486 6.093-.313 12.81 1.412 18.157l5.894-.159a.999.999 0 01.57-1.822h242.393a1 1 0 010 2H333.961c4.251 4.6 11.269 19.581 10.479 22.626-.311 1.2-5.71 3.067-13.939 5.015-4.132-3.931-7.434-7.565-10.063-11.017l-.045.013zm2.891 3.553c2.783 3.219 6.15 6.616 10.214 10.273-1.313 2.078-2.429 4.278-3.574 6.536v.001l-.001.001c-5.156 10.168-10.905 21.505-37.964 28.08-24.821 6.032-48.738-8.467-48.738-8.467s3.7-5.417 5.2-9.297c1.596-4.127 2.458-11.062 2.458-11.062s-15.518 18.855-20.042 15.617a72.02 72.02 0 01-2.402-1.797c-13.638 11.55-25.532 25.905-34.421 42.321 8.268-2.901 17.189-4.487 26.536-4.487h159.456c42.021 0 76.88 32.511 79.806 74.43l2.501 35.83c11.192-7.984 19.639-24.505 18.109-38.614-2.75-25.348-58.959-96.38-103.3-120.854a133.676 133.676 0 00-34.456-14.743c-2.265 1.067-6.558 2.356-12.165 3.684-2.733-2.601-5.104-5.071-7.156-7.445l-.061-.007zm306.917 254.316a3.515 3.515 0 013.514-3.514h34.649a3.514 3.514 0 010 7.028h-34.649a3.514 3.514 0 01-3.514-3.514zm-530.833-3.514a3.514 3.514 0 000 7.028h34.649a3.514 3.514 0 100-7.028H99.368zm574.443-145.696c-1.907-.021-3.582-1.387-3.668-3.292-.425-9.364 5.75-14.693 14.838-14.693 12.158 0 24.697 7.127 24.697 16.106 0 1.317-1.171 2.253-2.488 2.239l-33.379-.36zm-580.303-49.21c-3.32 0-6.03 2.696-5.727 6.002 1.673 18.305 10.927 42.149 35.265 42.149 11.826 0 20.06-5.043 25.656-12.27 5.804 2.557 11.77 1.27 16.2-1.865 4.588-3.246 7.878-8.702 7.878-14.623 0-4.009-1.134-7.267-3.717-9.284-2.472-1.932-5.476-2.084-7.77-1.821-.869.099-1.722.268-2.532.473.114-.93.208-1.851.285-2.757.281-3.308-2.43-6.004-5.749-6.004H93.508zm67.35 28.302c-2.471 1.749-5.417 2.434-8.311 1.552 2.183-4.158 3.746-8.688 4.816-13.216.143-.062.292-.126.449-.191 1.282-.53 2.839-1.04 4.278-1.205 1.5-.172 2.291.091 2.664.383.263.205 1.026.978 1.026 3.768 0 3.347-1.927 6.79-4.922 8.909z" class="Secondary" clip-rule="evenodd"/>
    <path fill="#000" fill-opacity=".06" d="M455.961 354.535h86.658v36.898h-86.658z" class="Rectangle 3"/>
    <circle cx="392.363" cy="237.605" r="15.292" fill="#fff" fill-opacity=".31" class="Ellipse 3" transform="rotate(18.338 392.363 237.605)"/>
    <path fill="#000" fill-opacity=".11" fill-rule="evenodd" d="M383.812 237.642s.216 6.895 5.656 8.698c5.959 1.975 9.731-3.598 9.731-3.598s-5.449 2.151-8.875 1.015c-3.427-1.136-6.512-6.115-6.512-6.115z" class="Subtract_3" clip-rule="evenodd"/>
    <g class="Group 2">
      <circle cx="388.835" cy="232.932" r="1.599" fill="#000" fill-opacity=".11" class="Ellipse 4" transform="rotate(18.338 388.835 232.932)"/>
      <circle cx="397.981" cy="235.963" r="1.599" fill="#000" fill-opacity=".11" class="Ellipse 4.1" transform="rotate(18.338 397.981 235.963)"/>
    </g>
    <path fill="#9E8DF9" fill-rule="evenodd" d="M633.684 445.141a3.514 3.514 0 000 7.027h34.649a3.514 3.514 0 100-7.027h-34.649zM329.305 274.574a1.5 1.5 0 011.5-1.5h71.954a1.5 1.5 0 010 3h-71.954a1.5 1.5 0 01-1.5-1.5zM.323 407.25h148.893a79.443 79.443 0 00-1.005 2H.323v-2zm0 82.812H147.57l-.38-2H.323v2zm468.769-81.479a12.09 12.09 0 00-.892-1.333h335.548v2l-334.656-.667zm334.656 81.479l-340.344-.601s-.141-1.311-.106-2l340.45.601v2z" class="Secondary_2" clip-rule="evenodd"/>
    <path fill="#000" fill-opacity=".23" d="M709.31 401.093c.124.602-12.111.602-27.506.602s-18.3.038-18.3-1.115 2.905-2.088 18.3-2.088c15.395 0 27.104.634 27.506 2.601z" class="Ellipse 3_2"/>
    <path fill="#fff" fill-opacity=".71" d="M141.767 457.379c-8.641-48.986 29.042-93.898 78.784-93.898h125.444c41.593 0 76.247 31.872 79.721 73.319l13.794 164.609H167.175l-25.408-144.03z" class="Rectangle 8"/>
    <path fill="#000" fill-opacity=".03" fill-rule="evenodd" d="M267.279 363.481c-19.112 9.026-38.516 28.614-22.419 57.79 12.266 22.233 5.93 44.98.085 65.962-6.007 21.565-11.495 41.265 4.264 56.63 19.389 18.904 56.411 42.185 83.085 57.546H167.175l-25.407-144.03c-8.642-48.986 29.041-93.898 78.783-93.898h46.728z" class="Intersect" clip-rule="evenodd"/>
    <path fill="#fff" fill-opacity=".17" fill-rule="evenodd" d="M350.355 225.617c1.375-.535 2.676-1.217 3.272-1.993.75-.974-.45-5.862-1.928-10.677-.323 4.26-.771 8.541-1.344 12.67z" class="Subtract_4" clip-rule="evenodd"/>
    <path fill="#fff" fill-opacity=".37" d="M323.901 218.107c.873-8.92 7.26-10.479 9.489-10.029 4.682.946-.93 9.775-1.171 14.805-.347 7.239 1.423 10.187-2.056 10.18-3.48-.007-7.354-3.806-6.262-14.956z" class="Vector 8"/>
    <path fill="#73E3EA" fill-rule="evenodd" d="M311.059 269.708c1.175 11.452 6.35 21.846 22.439 36.327-1.313 2.078-2.429 4.279-3.575 6.537-5.156 10.169-10.905 21.506-37.963 28.081-24.822 6.031-48.739-8.468-48.739-8.468s3.7-5.416 5.2-9.296c1.596-4.128 2.458-11.062 2.458-11.062s-15.518 18.854-20.042 15.616c-4.525-3.238-9.166-7.39-14.022-12.635 31.364-20.517 26.663-53.824 22.421-83.882-4.559-32.304-8.399-65.75 33.244-65.75 10.437-20.888 40.733-24.217 57.105-24.217 12.391 0 28.919 9.043 30.579 27.632 1.66 18.59-.581 35.469-24.42 36.875-2.713.161-5.038.605-7.057 1.394-9.735 7.556-7.601 14.13-5.542 20.471 1.539 4.744 3.037 9.357-.506 14.155-.632.856-1.249 1.678-1.85 2.479-5.677 7.561-9.128 13.101-9.73 25.743z" class="Union" clip-rule="evenodd"/>
    <g class="Group 4">
      <path fill="#000" fill-opacity=".28" d="M447.923 224.935a1.286 1.286 0 010 2.227l-11.655 6.729a1.285 1.285 0 01-1.928-1.114V219.32c0-.99 1.071-1.609 1.928-1.114l11.655 6.729z" class="Polygon_2"/>
      <path fill="#fff" fill-opacity=".53" d="M622.695 183.036a.851.851 0 010 1.474l-7.715 4.455a.852.852 0 01-1.277-.738v-8.908a.851.851 0 011.277-.737l7.715 4.454z" class="Polygon_3"/>
      <path fill="#fff" fill-opacity=".53" d="M666.097 183.036a.85.85 0 010 1.474l-7.715 4.455a.851.851 0 01-1.276-.738v-8.908a.85.85 0 011.276-.737l7.715 4.454z" class="Polygon_4"/>
      <path fill="#fff" fill-opacity=".53" d="M622.695 217.271a.851.851 0 010 1.474l-7.715 4.454a.851.851 0 01-1.277-.737v-8.908a.852.852 0 011.277-.738l7.715 4.455z" class="Polygon_5"/>
      <path fill="#fff" fill-opacity=".53" d="M666.097 217.271a.85.85 0 010 1.474l-7.715 4.454a.85.85 0 01-1.276-.737v-8.908a.851.851 0 011.276-.738l7.715 4.455z" class="Polygon_6"/>
      <path fill="#fff" fill-opacity=".53" d="M622.695 251.503a.851.851 0 010 1.474l-7.715 4.454a.851.851 0 01-1.277-.737v-8.908a.851.851 0 011.277-.737l7.715 4.454z" class="Polygon_7"/>
      <path fill="#fff" fill-opacity=".53" d="M666.097 251.503a.85.85 0 010 1.474l-7.715 4.454a.85.85 0 01-1.276-.737v-8.908a.85.85 0 011.276-.737l7.715 4.454z" class="Polygon_8"/>
      <path fill="#fff" fill-opacity=".53" d="M622.695 285.737a.852.852 0 010 1.475l-7.715 4.454a.852.852 0 01-1.277-.737v-8.909a.852.852 0 011.277-.737l7.715 4.454z" class="Polygon_9"/>
      <path fill="#fff" fill-opacity=".53" d="M666.097 285.737a.851.851 0 010 1.475l-7.715 4.454a.85.85 0 01-1.276-.737v-8.909a.85.85 0 011.276-.737l7.715 4.454z" class="Polygon_10"/>
      <path fill="#fff" fill-opacity=".53" d="M622.695 319.97a.851.851 0 010 1.474l-7.715 4.454a.851.851 0 01-1.277-.737v-8.908a.851.851 0 011.277-.737l7.715 4.454z" class="Polygon_11"/>
      <path fill="#fff" fill-opacity=".53" d="M666.097 319.97a.85.85 0 010 1.474l-7.715 4.454a.85.85 0 01-1.276-.737v-8.908a.85.85 0 011.276-.737l7.715 4.454z" class="Polygon_12"/>
    </g>
    <path fill="#fff" fill-opacity=".55" fill-rule="evenodd" d="M673.812 400.868c-1.907-.021-3.582-1.387-3.669-3.292-.425-9.364 5.751-14.693 14.838-14.693 12.158 0 24.698 7.127 24.698 16.106 0 1.317-1.172 2.253-2.489 2.239l-33.378-.36z" class="Subtract_5" clip-rule="evenodd"/>
    <path fill="#000" fill-opacity=".12" fill-rule="evenodd" d="M228.437 325.647a148.525 148.525 0 00-20.969 21.807 146.732 146.732 0 00-13.452 20.513c8.267-2.901 17.188-4.487 26.535-4.487H380.007c42.021 0 76.88 32.511 79.806 74.431l2.501 35.829.089-.064c.045-.259.088-.52.129-.783 10.364-66.631-20.458-89.139-43.681-102.537-17.909-10.332-34.985-11.564-96.188-15.979h-.005c-4.576-.33-9.399-.678-14.488-1.049-10.736-.782-21.016-2.037-30.79-3.397 1.871-.342 3.704-.724 5.489-1.148 37.387-8.884 47.511-22.478 52.324-36.174.563-1.604-.597-2.976-3.136-4.125-.735 1.331-1.428 2.698-2.133 4.088-5.156 10.168-10.905 21.505-37.964 28.08-24.821 6.032-48.738-8.467-48.738-8.467s3.7-5.416 5.2-9.297c1.595-4.127 2.458-11.062 2.458-11.062s-15.518 18.855-20.043 15.617a73.334 73.334 0 01-2.4-1.796z" class="Subtract_6" clip-rule="evenodd"/>
    <path fill="#000" fill-opacity=".12" fill-rule="evenodd" d="M312.137 275.874a42.565 42.565 0 01-1.077-6.167c.602-12.641 4.052-18.181 9.729-25.742l.001-.001v-.001h.001c.6-.8 1.217-1.622 1.849-2.477 3.543-4.798 2.045-9.411.505-14.155-2.058-6.341-4.192-12.915 5.543-20.471 2.018-.789 4.344-1.234 7.057-1.394 7.406-.437 12.727-2.367 16.494-5.378-2.872 4.607-9.565 9.181-17.01 10.106-.104-1.098-.627-1.871-1.838-2.116-2.23-.45-8.616 1.109-9.49 10.029-.925 9.454 1.719 13.623 4.665 14.677 1.566 5.172-10.473 18.339-10.473 18.339s-7.532 18.986 1.751 24.544l-7.707.207z" class="Subtract_7" clip-rule="evenodd"/>
    <path fill="#000" fill-opacity=".29" fill-rule="evenodd" d="M330.493 303.213c8.229-1.948 13.628-3.815 13.939-5.015.806-3.11-6.529-18.665-10.745-22.903l-21.504.579c2.148 8.453 7.27 16.836 18.31 27.339z" class="Subtract_8" clip-rule="evenodd"/>
    <path fill="#000" fill-opacity=".19" fill-rule="evenodd" d="M121.89 384.817c-9.945-8.777-13.942-19.9-17.528-29.877-.399-1.111-.792-2.207-1.189-3.284h-9.665c-3.32 0-6.03 2.697-5.727 6.002 1.44 15.76 8.5 35.626 25.969 40.845a435.284 435.284 0 00-2.998-.011c-15.395 0-18.3.935-18.3 2.088 0 1.117 2.726 1.117 16.893 1.116h2.816c15.182.001 34.07.003 34.07-1.116 0-.661-6.609-1.251-15.15-1.633 3.592-.814 6.762-2.173 9.552-3.952-.461-.189-.931-.379-1.406-.571-5.543-2.244-11.921-4.827-17.337-9.607z" class="Union_2" clip-rule="evenodd"/>
    <g class="Group 5">
      <path fill="#000" fill-opacity=".08" d="M95.875 274.829c.86-7.299-13.214-16.04-17.3-18.618 1.547 2.578 11.363 13.103 10.054 18.618-1.436 6.051-12.386 4.773-15.244 10.297-2.721 5.26 19.428 30.73 19.428 30.73s-9.666-12.554-7.318-26.034c.992-5.699 9.703-9.249 10.38-14.993z" class="Vector 3.2"/>
      <path fill="#000" fill-opacity=".08" fill-rule="evenodd" d="M157.966 119.15s8.37 11.612 19.821 8.404c12.544-3.514 12.571-17.478 12.571-17.478s-6.88 10.021-14.094 12.041c-7.213 2.021-18.298-2.967-18.298-2.967z" class="Subtract_9" clip-rule="evenodd"/>
      <g class="Group 2_2">
        <circle cx="161.147" cy="105.218" r="3.318" fill="#000" fill-opacity=".08" class="Ellipse 4_2" transform="rotate(-15.65 161.147 105.218)"/>
        <circle cx="180.402" cy="99.824" r="3.318" fill="#000" fill-opacity=".08" class="Ellipse 4.1_2" transform="rotate(-15.65 180.402 99.824)"/>
      </g>
      <path fill="#000" fill-opacity=".08" fill-rule="evenodd" d="M79.191 54.685s.135 5.034 4.1 6.368c4.343 1.462 7.115-2.593 7.115-2.593s-3.984 1.551-6.482.71c-2.497-.84-4.733-4.485-4.733-4.485z" class="Subtract_10" clip-rule="evenodd"/>
      <g class="Group 2_3">
        <circle cx="82.874" cy="51.264" r="1.167" fill="#000" fill-opacity=".08" class="Ellipse 4_3" transform="rotate(18.601 82.874 51.264)"/>
        <circle cx="89.54" cy="53.507" r="1.167" fill="#000" fill-opacity=".08" class="Ellipse 4.1_3" transform="rotate(18.601 89.54 53.507)"/>
      </g>
      <path fill="#000" fill-opacity=".08" fill-rule="evenodd" d="M319.659 48.9s2.357 8.668 9.792 9.309c8.145.701 11.24-7.497 11.24-7.497s-6.252 4.37-10.936 3.967c-4.683-.404-10.096-5.779-10.096-5.779z" class="Subtract_11" clip-rule="evenodd"/>
      <g class="Group 2_4">
        <circle cx="324.601" cy="41.415" r="2.082" fill="#000" fill-opacity=".08" class="Ellipse 4_4" transform="rotate(4.923 324.601 41.415)"/>
        <circle cx="337.103" cy="42.492" r="2.082" fill="#000" fill-opacity=".08" class="Ellipse 4.1_4" transform="rotate(4.923 337.103 42.492)"/>
      </g>
      <path fill="#000" fill-opacity=".08" fill-rule="evenodd" d="M32.643 201.668s3.86 5.717 9.422 4.342c6.095-1.507 6.314-8.233 6.314-8.233s-3.462 4.725-6.967 5.591c-3.504.867-8.77-1.7-8.77-1.7z" class="Subtract_12" clip-rule="evenodd"/>
      <g class="Group 2_5">
        <circle cx="34.381" cy="195.005" r="1.599" fill="#000" fill-opacity=".08" class="Ellipse 4_5" transform="rotate(-13.888 34.381 195.005)"/>
        <circle cx="43.736" cy="192.691" r="1.599" fill="#000" fill-opacity=".08" class="Ellipse 4.1_5" transform="rotate(-13.888 43.736 192.691)"/>
      </g>
      <path fill="#000" fill-opacity=".08" fill-rule="evenodd" d="M477.118 76.254s.094 6.897 5.501 8.797c5.923 2.08 9.794-3.424 9.794-3.424s-5.486 2.053-8.892.857c-3.406-1.197-6.403-6.23-6.403-6.23z" class="Subtract_13" clip-rule="evenodd"/>
      <g class="Group 2_6">
        <circle cx="482.226" cy="71.634" r="1.599" fill="#000" fill-opacity=".08" class="Ellipse 4_6" transform="rotate(19.356 482.226 71.634)"/>
        <circle cx="491.317" cy="74.828" r="1.599" fill="#000" fill-opacity=".08" class="Ellipse 4.1_6" transform="rotate(19.356 491.317 74.828)"/>
      </g>
      <path fill="#000" fill-opacity=".08" fill-rule="evenodd" d="M659.396 57.94s2.796 6.306 8.514 5.929c6.264-.413 7.662-6.996 7.662-6.996s-4.239 4.043-7.841 4.28c-3.602.238-8.335-3.213-8.335-3.213z" class="Subtract_14" clip-rule="evenodd"/>
      <g class="Group 2_7">
        <circle cx="662.279" cy="51.684" r="1.599" fill="#000" fill-opacity=".08" class="Ellipse 4_7" transform="rotate(-3.77 662.279 51.684)"/>
        <circle cx="671.894" cy="51.05" r="1.599" fill="#000" fill-opacity=".08" class="Ellipse 4.1_7" transform="rotate(-3.77 671.894 51.05)"/>
      </g>
      <path fill="#000" fill-opacity=".08" d="M94.969 233.87c-2.182-18.523 22.903-27.719 33.272-34.263-3.926 6.544-23.305 16.945-19.984 30.941 3.645 15.356 29.592 2.592 36.845 16.61 9.477 18.317-25.633 29.298-30.819 49.259-4.929 18.973 13.958 49.613 13.958 49.613s-34.148-33.441-35.688-46.625c-2.182-18.673 31.915-20.135 28.69-38.657-2.518-14.461-24.557-12.3-26.274-26.878z" class="Vector 3"/>
      <path fill="#000" fill-opacity=".08" d="M125.604 300.862c-.86-7.299 13.214-16.039 17.3-18.618-1.548 2.579-11.364 13.103-10.055 18.618 1.437 6.051 12.386 4.773 15.244 10.297 2.722 5.26-12.109 27.68-12.109 27.68s2.347-9.504 0-22.984c-.993-5.699-9.704-9.248-10.38-14.993z" class="Vector 3.1"/>
    </g>
    <path fill="#453E5D" fill-opacity=".3" fill-rule="evenodd" d="M577.936 284.206v-9.632h-253.02v.957l8.77-.236c3.069 3.085 7.791 12.167 9.822 18.08h225.259a9.169 9.169 0 009.169-9.169z" class="Subtract_15" clip-rule="evenodd"/>
    <path fill="#000" fill-opacity=".35" fill-rule="evenodd" d="M630.3 448.654a3.514 3.514 0 013.514-3.513h34.649a3.513 3.513 0 110 7.027h-34.649a3.514 3.514 0 01-3.514-3.514zm-299.365-175.58a1.5 1.5 0 00-1.251 2.329l4.002-.108c.227.228.463.489.707.779h68.496a1.5 1.5 0 100-3h-71.954zM149.346 407.25H.453v2h147.888c.326-.672.661-1.339 1.005-2zm-1.646 82.812H.453v-2H147.32l.38 2zm320.63-82.812s.521.667.892 1.333l334.656.667v-2H468.33zm-4.796 82.211l340.344.601v-2l-340.451-.601c-.034.689.107 2 .107 2z" class="Subtract_16" clip-rule="evenodd"/>
  </g>
</svg>
