<svg xmlns="http://www.w3.org/2000/svg" width="800" height="600" fill="none" viewBox="0 0 800 600">
  <g class="woman_reading_a_book">
    <path fill="#fff" d="M0 0h800v600H0z"/>
    <path fill="#DCDCDC" d="M639.082 310.345c-6.208-3.104-17.481 20.621-24.079 38.344 4.896 11.363 17.129 31.886 22.672 32.995 6.929 1.385 63.189-41.295 67.901-48.778 4.711-7.483-14.689-29.654-24.943-34.92-8.204-4.213-26.144 12.918-37.692 30.378.554-4.25 2.349-14.915-3.859-18.019z" class="Vector 6"/>
    <path fill="#F4F2E3" d="M593.205 304.416c0 115.908-49.488 207.817-165.396 207.817-115.907 0-221.015-91.909-221.015-207.817S263.6 87.766 379.508 87.766s213.697 100.742 213.697 216.65z" class="Ellipse"/>
    <path stroke="#253080" stroke-linecap="round" d="M51.212 408.677c14.767-83.372 139.373-231.817 335.773-215.573 245.499 20.304-272.265 300.875-17.536 318.411 254.729 17.536 243.654-344.253 342.408-331.332 79.002 10.337 61.221 172.28 42.454 251.96" class="Vector"/>
    <path fill="#FD5C39" fill-rule="evenodd" d="M31.048 129.082l179.617 26.814 45.34 191.528 9.774-12.218-45.344-191.544-.057.072-179.253-25.566-10.077 10.914zm729.469 162.301l-90.501-70.686-62.978 80.633-.001.001.002.001 37.987 29.669 11.553-3.497-1.154 11.62 42.113 32.892 62.979-80.633zm-428.249 64.322c-.517.804-1.055 1.658-1.615 2.564a461.965 461.965 0 00-3.66 6.061l-.002.003-.001.001v.001c-7.873 13.183-19.243 32.219-38.373 49.86-12.531 11.556-26.801 20.636-42.86 24.235-16.845 3.775-33.252.958-47.877-7.309-26.771-15.133-45.634-47.315-60.153-84.673l54.061-21.009c13.804 35.519 26.603 50.651 34.633 55.19 2.774 1.568 4.552 1.675 6.651 1.205 2.885-.647 8.318-2.984 16.225-10.275 12.528-11.554 19.404-22.947 27.269-35.981l.004-.006c1.534-2.542 3.105-5.146 4.764-7.826 9.821-15.87 24.175-36.448 54.199-42.711 52.055-10.858 105.346-20.232 153.058 11.779 35.978 24.139 60.345 53.532 73.854 72.658 13.288-5.863 33.352-16.904 57.218-37.124l37.492 44.253c-34.999 29.652-64.725 43.978-83.07 50.697-23.91 8.758-45.464-4.137-55.645-19.45-5.87-8.83-15.608-21.952-29.226-35.607.225 25.393-4.329 48.187-28.846 53.232-28.316 5.827-85.62 14.869-96.602 7.399-13.352-9.083-25.413-43.956-31.498-77.167z" class="Primary" clip-rule="evenodd"/>
    <path fill="#000" fill-opacity=".12" fill-rule="evenodd" d="M146.429 366.954c-3.071-6.598-5.963-13.459-8.701-20.504l54.061-21.01a289.605 289.605 0 006.249 14.901c.005 4.565-.706 8.56-2.288 11.482-7.238 13.359-29.41 18.334-49.321 15.131z" class="Intersect" clip-rule="evenodd"/>
    <path fill="silver" d="M139.036 355.097c-19.01-8.633-38.164-21.767-42.045-34.923l65.098 6.203c10.462 1.098 31.55 4.347 32.202 8.56.814 5.265-31.492 30.95-55.255 20.16z" class="Vector 11"/>
    <g class="Group 3">
      <path fill="#081D52" d="M31.049 129.062L210.66 155.88l45.344 191.544-179.612-26.818-45.344-191.544z" class="Rectangle 2"/>
    </g>
    <g class="Group">
      <path fill="#F4F2E3" d="M628.511 289.132l32.268 25.203-2.02 2.587-32.268-25.203z" class="Rectangle 2_2"/>
      <path fill="#F4F2E3" d="M636.592 278.786l32.268 25.203-2.02 2.587-32.268-25.203z" class="Rectangle 2.1"/>
      <path fill="#F4F2E3" d="M644.672 268.44l32.268 25.203-2.02 2.587-32.268-25.203z" class="Rectangle 2.2"/>
      <path fill="#F4F2E3" d="M652.753 258.094l32.268 25.203-2.02 2.587-32.268-25.203z" class="Rectangle 2.3"/>
      <path fill="#F4F2E3" d="M660.833 247.749l32.268 25.203-2.02 2.587-32.268-25.203z" class="Rectangle 2.4"/>
      <path fill="#F4F2E3" d="M668.914 237.403l32.268 25.203-2.02 2.587-32.268-25.203z" class="Rectangle 2.5"/>
    </g>
    <g class="Group_2">
      <path fill="#F4F2E3" d="M667.794 319.815l32.268 25.203-2.02 2.587-32.268-25.203z" class="Rectangle 2_3"/>
      <path fill="#F4F2E3" d="M675.874 309.469l32.268 25.203-2.02 2.587-32.268-25.203z" class="Rectangle 2.1_2"/>
      <path fill="#F4F2E3" d="M683.955 299.123l32.268 25.203-2.02 2.587-32.268-25.203z" class="Rectangle 2.2_2"/>
      <path fill="#F4F2E3" d="M708.197 268.085l32.268 25.203-18.182 23.278-32.267-25.203z" class="Rectangle 2.5_2"/>
    </g>
    <path fill="#081D52" fill-rule="evenodd" d="M760.517 291.383l-62.979 80.633-42.113-32.892 1.154-11.62-11.553 3.497-37.989-29.671 5.018 8.583 83.221 65 2.039 1.593.857.669 59.564-76.261 2.781-9.531z" class="Union" clip-rule="evenodd"/>
    <path fill="#DCDCDC" d="M403.869 276.938c6.331-9.745 3.733-22.002-2.812-31.747 12.581-2.377 32.306.467 37.774 5.736 6.834 6.586 4.617 30.622-4.413 38.858-2.405 2.195-4.337 3.354-6.392 3.869-5.58 1.4-27.291-11.892-24.157-16.716z" class="Vector 2"/>
    <path fill="#081D52" fill-rule="evenodd" d="M441.469 255.416c.709 2.057 1.135 4.504 1.293 7.147-2.733 2.738-7.152 5.443-13.928 6.709-7.519 1.405-15.292-.65-21.38-3.354.372-6.182-1.566-12.603-4.905-18.344l38.92 7.842z" class="Intersect_2" clip-rule="evenodd"/>
    <path fill="#041235" fill-rule="evenodd" d="M192.686 337.97l-92.25-13.774c-19.341-30.861 7.748-67.5 10.401-70.315 3.249-3.447 30.051-9.402 49.485 0 9.589 4.639 25.009 23.868 20.832 53.573 13.49 12.163 14.044 24.687 11.532 30.516z" class="Intersect_3" clip-rule="evenodd"/>
    <path fill="#041235" fill-opacity=".09" fill-rule="evenodd" d="M324.844 288.071c-4.896 9.658-8.347 20.81-6.723 30.255 5.344 9.204 47.208 23.752 72.741 3.266 2.247-2.808-1.442-6.125-5.197-9.501-3.008-2.704-6.058-5.447-6.133-7.997l-24.1-23.045c-6.644 1.251-13.281 2.607-19.899 3.988a76.651 76.651 0 00-10.689 3.034z" class="Intersect_4" clip-rule="evenodd"/>
    <path fill="#F1F1F1" d="M464.105 216.812c0 34.462-13.444 51.894-25.934 49.436-32.54-6.405-44.189-21.084-45.08-49.436-.891-28.352 2.857-45.043 31.209-45.934 28.352-.891 38.914 17.582 39.805 45.934z" class="Ellipse 2"/>
    <path fill="#F1F1F1" d="M385.197 215.106c5.588-2.89 9.073 1.205 10.116 3.613 2.558 3.513 6.32 15.916-.703 17.477-4.335.963-16.397-17.477-9.413-21.09z" class="Vector 15"/>
    <g class="Group 6">
      <path fill="#081D52" d="M382.474 339.231l3.826.017-.72 12.491-3.756-.691.65-11.817z" class="Rectangle 2.1_3"/>
      <path fill="#F4F2E3" d="M386.297 339.249l-1.471-6.702-2.351 6.691 3.822.011z" class="Vector 9.1"/>
      <path fill="#F4F2E3" fill-rule="evenodd" d="M386.102 343.285l-3.847-.435.067-.977 3.886.413-.106.999z" class="Vector 10 (Stroke)" clip-rule="evenodd"/>
    </g>
    <path fill="#000" fill-opacity=".21" d="M364.134 343.163l3.526-1.485 3.551 9.802-3.907.658-3.17-8.975z" class="Rectangle 2_4"/>
    <path fill="#081D53" d="M367.657 341.701l-3.981-5.587.462 7.077 3.519-1.49z" class="Vector 9"/>
    <g class="Group 7.1">
      <path fill="#B6AC2C" d="M373.622 343.688l4.828-.477 1.118 8.835-4.98-.669-.966-7.689z" class="Rectangle 2_5"/>
      <path fill="#6C6867" d="M378.458 343.216l-2.81-3.63-2.034 4.118 4.844-.488z" class="Vector 9_2"/>
    </g>
    <path stroke="#000" stroke-linecap="round" stroke-width="5" d="M394.015 346.679c-5.483 3.094-19.824 7.92-33.331 2.47" class="Vector 2_2"/>
    <path fill="#000" fill-opacity=".12" d="M397.542 377.285c7.255-2.755.681-21.426-2.237-30.197-12.142 4.862-25.698 4.592-36.681 1.458-2.098 3.431-.861 21.103 3.743 28.825 5.755 9.653 26.107 3.358 35.175-.086z" class="Vector 3"/>
    <path stroke="#081D52" stroke-linecap="round" stroke-width="2" d="M437.826 214.637c1.682 5.51 7.634 14.222 4.881 15.908-2.753 1.685-7.047 1.846-8.5 1.738" class="Vector 9_3"/>
    <g class="Group 8">
      <path fill="#081D52" d="M409.532 210.286a1 1 0 101.127 1.652l-1.127-1.652zm11.757-2.76a1 1 0 000-2v2zm-10.63 4.412c.292-.2.513-.451.685-.671.162-.208.343-.474.487-.675.313-.435.673-.886 1.25-1.313 1.152-.853 3.369-1.753 8.208-1.753v-2c-5.052 0-7.761.934-9.398 2.146-.817.605-1.318 1.244-1.684 1.754-.195.272-.309.443-.44.611-.121.155-.193.22-.235.249l1.127 1.652z" class="Vector 10"/>
      <path fill="#081D52" d="M457.736 205.862a1 1 0 01-1.231 1.577l1.231-1.577zm-10.789 1.672a1.001 1.001 0 01-.939-1.767l.939 1.767zm9.558-.095c-.622-.485-2.071-.977-3.94-1.064-1.828-.084-3.873.232-5.618 1.159l-.939-1.767c2.134-1.133 4.554-1.486 6.649-1.389 2.054.094 3.987.632 5.079 1.484l-1.231 1.577z" class="Vector 10.3"/>
    </g>
    <path fill="#081D52" d="M427.309 245.557a1 1 0 111.594-1.207l-1.594 1.207zm12.535 1.57a1 1 0 01.811 1.828l-.811-1.828zm-10.941-2.777c1.459 1.926 5.673 5.114 10.941 2.777l.811 1.828c-6.474 2.871-11.603-1.096-13.346-3.398l1.594-1.207z" class="Vector 10.2"/>
    <g class="Group 9">
      <circle cx="420.129" cy="217.164" r="2.527" fill="#081D52" class="Ellipse 3"/>
    </g>
    <g class="Group 9.1">
      <circle cx="451.135" cy="217.578" r="2.527" fill="#081D52" class="Ellipse 3_2"/>
    </g>
    <path fill="#000" fill-opacity=".31" fill-rule="evenodd" d="M407.477 263.297c-3.438-4.257-7.722-9.241-12.992-15.107-2.731-3.04-3.043-7.502-2.128-12.67.857.554 1.634.812 2.253.675a5.13 5.13 0 001.356-.5c1.715 5.388 4.242 10.024 7.732 13.991 2.205 4.35 3.587 9.011 3.779 13.611z" class="Subtract" clip-rule="evenodd"/>
    <path stroke="#253080" stroke-linecap="round" d="M462.422 176.868c20.546-7.225 47.957-29.939 41.996-44.028-5.961-14.089-31.046-20.095-38.609-21.337" class="Vector 13"/>
    <path stroke="#253080" stroke-linecap="round" d="M464.082 436.493c14.944-3.516 31.206-10.548 31.206-23.295 0-10.197-1.758-17.141-2.637-19.339" class="Vector 14"/>
    <path fill="#F1F1F1" d="M460.509 351.932a3.364 3.364 0 11-6.728 0c0-1.857 3.364-5.624 3.364-5.624s3.364 3.767 3.364 5.624z" class="Ellipse 4"/>
    <path fill="#F1F1F1" d="M460.458 337.256a3.364 3.364 0 10-6.728 0c0 1.858 3.364 5.624 3.364 5.624s3.364-3.766 3.364-5.624z" class="Ellipse 4.1"/>
    <path fill="#F1F1F1" d="M449.782 347.983a3.364 3.364 0 110-6.728c1.858 0 5.624 3.364 5.624 3.364s-3.766 3.364-5.624 3.364z" class="Ellipse 4.2"/>
    <path fill="#F1F1F1" d="M464.458 347.933a3.364 3.364 0 100-6.728c-1.858 0-5.624 3.364-5.624 3.364s3.766 3.364 5.624 3.364z" class="Ellipse 4.3"/>
    <path fill="#F1F1F1" d="M449.534 341.802a3.365 3.365 0 014.758-4.757c1.313 1.313 1.598 6.355 1.598 6.355s-5.042-.285-6.356-1.598z" class="Ellipse 4.4"/>
    <path fill="#F1F1F1" d="M459.948 352.143a3.363 3.363 0 104.757-4.757c-1.313-1.314-6.355-1.598-6.355-1.598s.285 5.042 1.598 6.355z" class="Ellipse 4.5"/>
    <path fill="#F1F1F1" d="M459.912 337.008a3.365 3.365 0 014.757 4.758c-1.313 1.313-6.355 1.598-6.355 1.598s.284-5.042 1.598-6.356z" class="Ellipse 4.6"/>
    <path fill="#F1F1F1" d="M449.571 347.422a3.364 3.364 0 104.757 4.757c1.313-1.314 1.598-6.355 1.598-6.355s-5.042.284-6.355 1.598z" class="Ellipse 4.7"/>
    <path fill="#F9EB30" fill-rule="evenodd" d="M498.61 157.689c6.766-35.28-43.233-48.21-73.197-32.261-23.971 12.759-35.297 32.38-38.519 38.663-13.104-11.83-30.005 41.727-32.572 63.048-2.022 16.802-11.228 34.808-19.356 50.705-11.431 22.357-20.729 40.543-4.911 45.345 27.064 8.216 57.842 12.111 66.323-13.039 3.491-10.35 10.332-14.312 15.676-17.407 8.38-4.852 13.08-7.574-4.578-29.446-.191-4.6-1.573-9.261-3.778-13.611-3.491-3.967-6.017-8.603-7.732-13.991a5.144 5.144 0 01-1.356.5c-.619.137-1.396-.121-2.253-.675.957-5.401 3.255-11.572 5.535-17.695 4.411-11.847 8.756-23.516 3.196-29.082 22.043 4.484 41.463 3.577 57.068-.397 3.946 12.724 6.302 26.521 5.436 39.687-.87 9.132-2.796 16.707-5.392 22.651a54.13 54.13 0 01-2.785 5.364c-3.634 5.884-8.065 9.332-12.604 10.206-.162 5.404-1.321 11.215-3.378 15.998 6.059-.604 15.834-1.876 28.866-13.529 16.352-14.622 14.314-60.833 10.453-88.457 11.343-6.423 18.348-14.703 19.858-22.577zm-41.515 189.454a2.356 2.356 0 100-4.713 2.356 2.356 0 000 4.713z" class="Secondary" clip-rule="evenodd"/>
    <path fill="#000" fill-opacity=".12" fill-rule="evenodd" d="M417.895 432.666c-10.247-.254-25.475-1.567-40.262-5.49-20.229-5.367-38.704-50.229-45.412-71.989v.264c6.07 33.287 18.158 68.315 31.545 77.421 6.645 4.52 30.249 2.995 54.129-.206z" class="Intersect_5" clip-rule="evenodd"/>
    <path fill="#000" fill-opacity=".12" fill-rule="evenodd" d="M548.597 351.417a293.666 293.666 0 0113.758 17.929c-4.913 3-10.851 6.611-13.958 8.497 3.922-7.843 1.634-20.696 0-26.142l.2-.284z" class="Intersect_6" clip-rule="evenodd"/>
    <path fill="#DCDCDC" d="M159.392 349.341c14.927 1.133 13.532-22.659 13.532-22.659s8.237-36.366 3.458-51.057c-1.102-3.39-5.284-4.928-7.811-1.349-2.527 3.579-10.591 31.683-13.307 36.097 1.976-6.985 17.961-53.124 5.934-55.721-7.081-1.529-18.391 40.093-21.405 48.725.517-7.83 16.424-52.378 6.337-54.833-9.585-2.333-20.861 39.876-23.041 48.731-.297-5.886 8.925-42.892 2.165-45.099-9.193-3.001-29.15 52.406-29.274 59.001-.585 31.318 44.883 36.759 63.412 38.164z" class="Vector 8"/>
    <path fill="silver" d="M135.848 354.629c-17.626-8.448-42.566-21.448-39.809-43.997 0 0 .273 8.736 7.622 11.497 3.966 1.49 14.496-8.733 14.496-8.733s-.41 10.403 4.405 11.044c2.414.322 11.832-6.614 11.832-6.614s.618 8.865 4.762 9.751c5.319 1.139 13.252-5.5 13.252-5.5s5.491 4.422 8.658 4.18c7.331-.56 8.374-2.246 10.759-5.075 2.386-2.83 3.721-10.179 3.721-10.179s17.006 7.704 17.133 27.353c1.492 3.354-34.798 26.832-56.831 16.273z" class="Vector 11.1"/>
    <path fill="#041235" fill-opacity=".2" fill-rule="evenodd" d="M667.524 353.237c-5.501-3.479-10.727-7.232-15.651-10.767-10.825-7.772-20.186-14.493-27.776-14.947a122.108 122.108 0 013.081-5.798l40.346 31.512z" class="Subtract_2" clip-rule="evenodd"/>
    <path fill="#000" fill-opacity=".1" fill-rule="evenodd" d="M384.48 162.641c.816.259 1.622.735 2.414 1.45l.12-.233c.124.097.246.199.365.307 3.222-6.283 14.548-25.905 38.519-38.664 6.96-3.704 15-5.85 23.159-6.521-45.741 14.473-56.866 47.548-56.866 47.548s-4.155 8.342-2.207 12.297c6.132 12.453-4.672 21.554-14.475 29.81-6.572 5.536-12.694 10.693-12.957 16.226-.206 4.324-2.641 13.661-5.536 24.762-6.333 24.286-14.867 57.015-7.077 64.156 10.669 9.78 24.819 11.336 35.533 10.675-13.573 8.487-35.501 4.781-55.417-1.265-15.818-4.802-6.52-22.988 4.911-45.345 8.128-15.897 17.334-33.903 19.356-50.705 2.297-19.078 16.071-63.966 28.331-64.724a8.299 8.299 0 011.827.226z" class="Intersect_7" clip-rule="evenodd"/>
  </g>
</svg>
