<svg xmlns="http://www.w3.org/2000/svg" width="1152" height="700" fill="none" viewBox="0 0 1152 700">
  <g class="working">
    <path fill="#fff" d="M0 0h1152v700H0z"/>
    <g class="Group 14.1">
      <g class="Group 11">
        <g class="Group 4.1">
          <rect width="545.578" height="386.528" x="278" y="169.218" fill="#DDE4FF" class="Rectangle" rx="7.398"/>
          <g class="Group 3">
            <rect width="118.926" height="295.397" x="302.457" y="217.558" fill="#fff" fill-opacity=".8" class="Rectangle 2" rx="5.754"/>
            <rect width="118.926" height="295.397" x="440.564" y="217.557" fill="#fff" fill-opacity=".8" class="Rectangle 2.1" rx="5.754"/>
            <rect width="118.926" height="295.397" x="578.672" y="217.557" fill="#fff" fill-opacity=".8" class="Rectangle 2.2" rx="5.754"/>
            <rect width="97.826" height="49.872" x="709.107" y="282.775" fill="#fff" fill-opacity=".8" class="Rectangle 2.3" rx="5.754"/>
            <rect width="97.826" height="49.872" x="709.107" y="346.074" fill="#fff" fill-opacity=".8" class="Rectangle 2.4" rx="5.754"/>
            <rect width="97.826" height="49.872" x="709.107" y="409.373" fill="#fff" fill-opacity=".8" class="Rectangle 2.5" rx="5.754"/>
            <circle cx="756.102" cy="243.452" r="25.895" fill="#fff" fill-opacity=".8" class="Ellipse"/>
          </g>
        </g>
        <g class="Group 10">
          <g class="Group 9">
            <rect width="24.457" height="24.457" x="316.88" y="250.232" fill="#C4C4C4" fill-opacity=".26" class="Rectangle_2" rx="12.229"/>
            <rect width="60.829" height="3.135" x="346.354" y="255.249" fill="#C4C4C4" fill-opacity=".26" class="Rectangle 2_2" rx="1.568"/>
            <rect width="36.372" height="2.508" x="346.354" y="262.146" fill="#C4C4C4" fill-opacity=".26" class="Rectangle 2.1_2" rx="1.254"/>
          </g>
          <g class="Group 9.1">
            <rect width="24.457" height="24.457" x="316.88" y="290.366" fill="#C4C4C4" fill-opacity=".26" class="Rectangle_3" rx="12.229"/>
            <rect width="60.829" height="3.135" x="346.354" y="295.383" fill="#C4C4C4" fill-opacity=".26" class="Rectangle 2_3" rx="1.568"/>
            <rect width="36.372" height="2.508" x="346.354" y="302.281" fill="#C4C4C4" fill-opacity=".26" class="Rectangle 2.1_3" rx="1.254"/>
          </g>
          <g class="Group 9.2">
            <rect width="24.457" height="24.457" x="316.88" y="330.5" fill="#C4C4C4" fill-opacity=".26" class="Rectangle_4" rx="12.229"/>
            <rect width="60.829" height="3.135" x="346.354" y="335.518" fill="#C4C4C4" fill-opacity=".26" class="Rectangle 2_4" rx="1.568"/>
            <rect width="36.372" height="2.508" x="346.354" y="342.416" fill="#C4C4C4" fill-opacity=".26" class="Rectangle 2.1_4" rx="1.254"/>
          </g>
          <g class="Group 9.3">
            <rect width="24.457" height="24.457" x="316.88" y="370.635" fill="#C4C4C4" fill-opacity=".26" class="Rectangle_5" rx="12.229"/>
            <rect width="60.829" height="3.135" x="346.354" y="375.652" fill="#C4C4C4" fill-opacity=".26" class="Rectangle 2_5" rx="1.568"/>
            <rect width="36.372" height="2.508" x="346.354" y="382.55" fill="#C4C4C4" fill-opacity=".26" class="Rectangle 2.1_5" rx="1.254"/>
          </g>
          <g class="Group 9.4">
            <rect width="24.457" height="24.457" x="316.88" y="410.77" fill="#C4C4C4" fill-opacity=".26" class="Rectangle_6" rx="12.229"/>
            <rect width="60.829" height="3.135" x="346.354" y="415.786" fill="#C4C4C4" fill-opacity=".26" class="Rectangle 2_6" rx="1.568"/>
            <rect width="36.372" height="2.508" x="346.354" y="422.684" fill="#C4C4C4" fill-opacity=".26" class="Rectangle 2.1_6" rx="1.254"/>
          </g>
          <g class="Group 9.5">
            <rect width="24.457" height="24.457" x="316.88" y="450.904" fill="#C4C4C4" fill-opacity=".26" class="Rectangle_7" rx="12.229"/>
            <rect width="60.829" height="3.135" x="346.354" y="455.921" fill="#C4C4C4" fill-opacity=".26" class="Rectangle 2_7" rx="1.568"/>
            <rect width="36.372" height="2.508" x="346.354" y="462.819" fill="#C4C4C4" fill-opacity=".26" class="Rectangle 2.1_7" rx="1.254"/>
          </g>
        </g>
        <g class="Group 10.1">
          <g class="Group 9_2">
            <rect width="24.457" height="24.457" x="456.724" y="252.113" fill="#C4C4C4" fill-opacity=".26" class="Rectangle_8" rx="12.229"/>
            <rect width="60.829" height="3.135" x="486.198" y="257.13" fill="#C4C4C4" fill-opacity=".26" class="Rectangle 2_8" rx="1.568"/>
            <rect width="36.372" height="2.508" x="486.198" y="264.028" fill="#C4C4C4" fill-opacity=".26" class="Rectangle 2.1_8" rx="1.254"/>
          </g>
          <g class="Group 9.1_2">
            <rect width="24.457" height="24.457" x="456.724" y="292.247" fill="#C4C4C4" fill-opacity=".26" class="Rectangle_9" rx="12.229"/>
            <rect width="60.829" height="3.135" x="486.198" y="297.264" fill="#C4C4C4" fill-opacity=".26" class="Rectangle 2_9" rx="1.568"/>
            <rect width="36.372" height="2.508" x="486.198" y="304.162" fill="#C4C4C4" fill-opacity=".26" class="Rectangle 2.1_9" rx="1.254"/>
          </g>
          <g class="Group 9.2_2">
            <rect width="24.457" height="24.457" x="456.724" y="332.382" fill="#C4C4C4" fill-opacity=".26" class="Rectangle_10" rx="12.229"/>
            <rect width="60.829" height="3.135" x="486.198" y="337.399" fill="#C4C4C4" fill-opacity=".26" class="Rectangle 2_10" rx="1.568"/>
            <rect width="36.372" height="2.508" x="486.198" y="344.297" fill="#C4C4C4" fill-opacity=".26" class="Rectangle 2.1_10" rx="1.254"/>
          </g>
          <g class="Group 9.3_2">
            <rect width="24.457" height="24.457" x="456.724" y="372.516" fill="#C4C4C4" fill-opacity=".26" class="Rectangle_11" rx="12.229"/>
            <rect width="60.829" height="3.135" x="486.198" y="377.533" fill="#C4C4C4" fill-opacity=".26" class="Rectangle 2_11" rx="1.568"/>
            <rect width="36.372" height="2.508" x="486.198" y="384.431" fill="#C4C4C4" fill-opacity=".26" class="Rectangle 2.1_11" rx="1.254"/>
          </g>
          <g class="Group 9.4_2">
            <rect width="24.457" height="24.457" x="456.724" y="412.651" fill="#C4C4C4" fill-opacity=".26" class="Rectangle_12" rx="12.229"/>
            <rect width="60.829" height="3.135" x="486.198" y="417.667" fill="#C4C4C4" fill-opacity=".26" class="Rectangle 2_12" rx="1.568"/>
            <rect width="36.372" height="2.508" x="486.198" y="424.565" fill="#C4C4C4" fill-opacity=".26" class="Rectangle 2.1_12" rx="1.254"/>
          </g>
          <g class="Group 9.5_2">
            <rect width="24.457" height="24.457" x="456.724" y="452.785" fill="#C4C4C4" fill-opacity=".26" class="Rectangle_13" rx="12.229"/>
            <rect width="60.829" height="3.135" x="486.198" y="457.802" fill="#C4C4C4" fill-opacity=".26" class="Rectangle 2_13" rx="1.568"/>
            <rect width="36.372" height="2.508" x="486.198" y="464.7" fill="#C4C4C4" fill-opacity=".26" class="Rectangle 2.1_13" rx="1.254"/>
          </g>
        </g>
        <g class="Group 10.2">
          <g class="Group 9_3">
            <rect width="24.457" height="24.457" x="592.805" y="250.232" fill="#C4C4C4" fill-opacity=".26" class="Rectangle_14" rx="12.229"/>
            <rect width="60.829" height="3.135" x="622.278" y="255.249" fill="#C4C4C4" fill-opacity=".26" class="Rectangle 2_14" rx="1.568"/>
            <rect width="36.372" height="2.508" x="622.278" y="262.146" fill="#C4C4C4" fill-opacity=".26" class="Rectangle 2.1_14" rx="1.254"/>
          </g>
          <g class="Group 9.1_3">
            <rect width="24.457" height="24.457" x="592.805" y="290.366" fill="#C4C4C4" fill-opacity=".26" class="Rectangle_15" rx="12.229"/>
            <rect width="60.829" height="3.135" x="622.278" y="295.383" fill="#C4C4C4" fill-opacity=".26" class="Rectangle 2_15" rx="1.568"/>
            <rect width="36.372" height="2.508" x="622.278" y="302.281" fill="#C4C4C4" fill-opacity=".26" class="Rectangle 2.1_15" rx="1.254"/>
          </g>
          <g class="Group 9.2_3">
            <rect width="24.457" height="24.457" x="592.805" y="330.5" fill="#C4C4C4" fill-opacity=".26" class="Rectangle_16" rx="12.229"/>
            <rect width="60.829" height="3.135" x="622.278" y="335.518" fill="#C4C4C4" fill-opacity=".26" class="Rectangle 2_16" rx="1.568"/>
            <rect width="36.372" height="2.508" x="622.278" y="342.416" fill="#C4C4C4" fill-opacity=".26" class="Rectangle 2.1_16" rx="1.254"/>
          </g>
          <g class="Group 9.3_3">
            <rect width="24.457" height="24.457" x="592.805" y="370.635" fill="#C4C4C4" fill-opacity=".26" class="Rectangle_17" rx="12.229"/>
            <rect width="60.829" height="3.135" x="622.278" y="375.652" fill="#C4C4C4" fill-opacity=".26" class="Rectangle 2_17" rx="1.568"/>
            <rect width="36.372" height="2.508" x="622.278" y="382.55" fill="#C4C4C4" fill-opacity=".26" class="Rectangle 2.1_17" rx="1.254"/>
          </g>
          <g class="Group 9.4_3">
            <rect width="24.457" height="24.457" x="592.805" y="410.77" fill="#C4C4C4" fill-opacity=".26" class="Rectangle_18" rx="12.229"/>
            <rect width="60.829" height="3.135" x="622.278" y="415.786" fill="#C4C4C4" fill-opacity=".26" class="Rectangle 2_18" rx="1.568"/>
            <rect width="36.372" height="2.508" x="622.278" y="422.684" fill="#C4C4C4" fill-opacity=".26" class="Rectangle 2.1_18" rx="1.254"/>
          </g>
          <g class="Group 9.5_3">
            <rect width="24.457" height="24.457" x="592.805" y="450.904" fill="#C4C4C4" fill-opacity=".26" class="Rectangle_19" rx="12.229"/>
            <rect width="60.829" height="3.135" x="622.278" y="455.921" fill="#C4C4C4" fill-opacity=".26" class="Rectangle 2_19" rx="1.568"/>
            <rect width="36.372" height="2.508" x="622.278" y="462.819" fill="#C4C4C4" fill-opacity=".26" class="Rectangle 2.1_19" rx="1.254"/>
          </g>
        </g>
        <g class="Group 13">
          <rect width="512.969" height="28.847" x="302.457" y="178.625" fill="#fff" class="Rectangle_20" rx="4.39"/>
          <g class="Group 12">
            <rect width="8.152" height="8.152" x="316.88" y="188.658" fill="#FF4646" fill-opacity=".28" class="Rectangle 2_20" rx="4.076"/>
            <rect width="8.152" height="8.152" x="334.439" y="188.657" fill="#FFC738" fill-opacity=".28" class="Rectangle 2.1_20" rx="4.076"/>
            <rect width="8.152" height="8.152" x="351.998" y="188.657" fill="#9BFFA5" fill-opacity=".28" class="Rectangle 2.2_2" rx="4.076"/>
          </g>
        </g>
      </g>
      <g class="Group 2">
        <path fill="#2B164F" d="M612.699 155.759c0 16.79 7.376 33.107-32.436 36.347-26.966 2.195-24.778-19.557-24.778-36.347 0-16.79 11.002-34.201 27.983-34.201s29.231 12.436 29.231 34.201z" class="Ellipse_2"/>
        <circle cx="563.988" cy="174.76" r="3.109" fill="#FFC5C5" class="Ellipse 2"/>
        <path fill="#FEB69F" fill-rule="evenodd" d="M562.395 160.406s22.11-9.327 23.146-22.455c.464-5.873 12.303 22.455 12.303 22.455s1.13 11.741-2.512 21.07l.56 17.229c7.405 1.044 15.911 2.557 24.196 4.729 35.583 9.328 56.311 70.476 56.311 70.476l57.728-42.554 7.432-8.575s6.564-14.855 7.946-16.928c5.041-7.562 1.382 10.018 1.382 10.018s27.292-4.141 32.474-2.068c1.446.578.415 2.074-.722 3.725-.734 1.065-1.512 2.195-1.697 3.184-1.223 6.564-30.055 11.396-30.055 11.396l-6.893 6.127-18.193 22.201s-35.238 46.499-54.238 43.53c-23.838-3.726-39.038-54.93-39.038-54.93l-5.857 102.041c-1.769.884-3.578 1.818-5.429 2.772l-.001.001c-19.839 10.234-44.495 22.952-76.093 4.752-.547-7.318.42-16.676 1.506-27.191 2.571-24.893 5.812-56.267-8.785-82.375 0 0-41.221 58.079-55.62 46.638-17.922-14.239-22.848-39.797-28.042-66.75-1.524-7.904-3.07-15.929-4.975-23.823l-.839-2.358s-20.329-3.455-21.553-10.019c-.25-1.339-4.616-2.938-8.294-4.285-3.241-1.187-5.949-2.178-4.834-2.624 5.182-2.073 34.681 0 34.681 0s-3.102-19.654 1.939-12.092c1.382 2.073 7.043 19.001 7.043 19.001l.286.911 31.497 62.656s31.783-35.583 53.202-52.857c6.922-5.582 22.644-6.657 29.02-6.862v-6.466c-10.955-7.696-8.982-29.7-8.982-29.7zm57.002 397.134l9.328 55.275s.557 7.946 2.63 10.019c2.849 2.848 17.619 8.982 22.455 8.982 4.837 0 15.241-.138 11.055-3.8-1.29-1.129-3.106-2.258-4.922-3.386-2.076-1.29-4.152-2.58-5.442-3.869-4.223-2.203-11.267-10.364-11.267-10.364v-75.658l-25.91 6.564 2.073 16.237zm-62.184.691l6.218 55.966-24.316 12.437c-1.497 1.842-.549 5.644 3.109 5.182 26.019-3.29 30.908-2.437 32.562-2.149.256.045.435.076.603.076 5.822 0 5.837-9.189 3.243-15.546l4.491-71.512h-28.329l2.419 15.546z" class="Union" clip-rule="evenodd"/>
        <path fill="#25409D" d="M629.973 622.833l-1.382-11.055c1.382 1.497 5.209 6.821 11.055 7.945 8.982 1.728 7.6-3.109 3.455-9.327 8.685 8.704 24.182 17.964 24.182 19.346 0 1.382-2.418 3.109-2.418 3.109s-6.986.577-11.4 0c-9.998-1.306-17.044-6.449-23.492-10.018z" class="Vector 18"/>
        <path fill="#25409D" d="M539.114 631.815c-2.487-.553-5.527-1.036 0-5.182l15.546-8.291c10.779 2.487 20.613-1.267 24.183-3.8 1.935 3.592 2.764 12.091-.691 15.546-12.206 1.036-36.55 2.28-39.038 1.727z" class="Vector 9"/>
        <path fill="#000" fill-opacity=".06" d="M562.395 160.406s22.11-9.328 23.146-22.456c.464-5.873 12.303 22.456 12.303 22.456s3.109 32.318-17.619 32.318-17.83-32.318-17.83-32.318z" class="Vector 4.1"/>
        <path fill="#000" fill-opacity=".15" d="M741.214 235.562c-11.746 13.819-41.802 53.894-41.802 53.894 15.299-13.921 25.453-28.097 44.22-50.784l6.219-5.528s-7.763 1.39-8.637 2.418z" class="Vector 9_2"/>
        <path fill="#000" fill-opacity=".13" d="M577.807 611.086l-4.491-54.929v-15.892l9.807 2.419-4.625 71.512-.691-3.11z" class="Vector 15.2"/>
        <path fill="#000" fill-opacity=".06" d="M628.725 612.814l-9.328-55.275-2.073-16.237 6.43 5.873s4.971 37.311 5.873 60.802c.074 1.92-.902 4.837-.902 4.837z" class="Vector 15.2_2"/>
        <path fill="#F5C431" d="M527.157 553.394s-1.382-115.732 6.909-198.99c29.296 14.095 87.749 5.412 110.896-2.764 9.533 95.509 18.655 135.424 18.655 197.263-20.455 6.879-32.195 9.747-55.966 4.491-9.397-36.482-14.395-88.557-17.964-122.989V553.394c-23.77 7.896-37.584 10.155-62.53 0z" class="Vector 2"/>
        <path fill="#000" fill-opacity=".06" d="M527.157 553.394v-9.674c23.768 13.266 49.632 5.183 62.53-.345v10.019c-38.002 13.818-51.475 3.454-62.53 0z" class="Vector 13"/>
        <path stroke="#fff" stroke-dasharray="1.38 1.38" stroke-opacity=".37" stroke-width=".345" d="M527.714 544.066l3.244 9.141a.69.69 0 001.274.067l2.098-4.386c.295-.616 1.21-.476 1.307.201l.735 5.148c.097.677 1.014.817 1.308.199l1.792-3.762a.69.69 0 011.265.04l2.297 5.742a.691.691 0 001.26.052l2.183-4.366a.691.691 0 011.221-.028l3.381 6.039a.692.692 0 001.269-.152l1.472-5.259c.172-.614 1.013-.688 1.289-.113l2.51 5.231c.282.586 1.143.494 1.295-.138l1.302-5.424a.69.69 0 011.198-.286l3.927 4.619a.69.69 0 001.214-.385l.383-4.21a.691.691 0 011.235-.36l3.56 4.607c.403.521 1.237.236 1.237-.422V551.2c0-.652.819-.941 1.228-.435l3.417 4.221c.41.506 1.228.216 1.228-.435v-4.805c0-.643.801-.938 1.218-.448l3.438 4.045c.416.49 1.217.196 1.217-.447v-5.067c0-.717.957-.96 1.299-.329l1.894 3.496c.341.631 1.298.388 1.298-.329v-6.601" class="Vector 18_2"/>
        <path fill="#000" fill-opacity=".06" d="M607.651 553.394l-1.727-8.637c23.492 6.564 44.796 1.382 57.693-4.145v7.945c-23.146 10.019-42.147 8.292-55.966 4.837z" class="Vector 13.1"/>
        <path stroke="#fff" stroke-dasharray="1.38 1.38" stroke-opacity=".37" stroke-width=".345" d="M605.79 544.066l3.268 8.022a.691.691 0 001.238.086l2.005-3.463c.338-.583 1.225-.387 1.286.284l.274 3.016c.063.693.995.869 1.306.247l2.053-4.105a.69.69 0 011.251.034l2.304 5.298a.691.691 0 001.239.058l2.525-4.591a.691.691 0 011.207-.007l3.129 5.536a.69.69 0 001.254-.113l1.799-5.17a.69.69 0 011.232-.149l2.857 4.396a.691.691 0 001.25-.209l.975-3.9a.69.69 0 011.236-.229l3.041 4.345a.691.691 0 001.244-.261l.787-3.933a.69.69 0 011.202-.314l2.271 2.649a.691.691 0 001.205-.33l.551-3.126a.691.691 0 011.169-.369l2.374 2.373a.69.69 0 001.179-.488v-3.099a.691.691 0 011.127-.536l3.274 2.66a.691.691 0 001.127-.536v-2.14c0-.65.814-.941 1.225-.438l1.884 2.302" class="Vector 18.1"/>
        <path fill="#0A0A0A" fill-opacity=".06" d="M649.798 465.299c5.873-36.274-17.619-111.586-17.619-111.586l11.746-7.946c-1.036 12.437 18.655 130.933 19.692 187.59 0 0-15.084-60.241-13.819-68.058z" class="Vector 11"/>
        <path fill="#0A0A0A" fill-opacity=".06" d="M528.193 541.302l13.819-160.643v-8.291h-10.019c-3.978 63.792-4.45 101.093-3.8 168.934z" class="Vector 11_2"/>
        <path fill="#00818A" d="M632.525 249.036s19.001 112.277 13.474 118.15c-12.241 13.006-25.346 8.637-42.148 8.637-10.419 0-16.062-4.052-26.41-4.052-9.093 0-49.819 8.779-46.484-10.974 3.335-19.754 8.983-78.701 5.528-107.615l-5.528 11.745c-10.133 14.625-19.691 44.566-38.001 44.566-7.458 0-26.983-16.997-29.02-19.346a1.902 1.902 0 01-.38-.701c-3.983-7.559-1.934-11.579 1.071-18.646l3.806 7.929c6.873-9.712 18.272-22.172 16.922-25.547-1.658-4.146 8.177-10.249 14.856-11.055 14.647-21.005 34.662-35.814 39.729-37.657 5.182-3.454 6.597-6.052 19.346-6.909 0 0 4.944 14.582 24.874 16.658 1.549.161 4.49.076 4.49.076 14-.995 22.802-13.279 22.802-13.279 5.403.379 5.105.802 12.436 3.454 8.192 1.851 26.892 11.446 42.148 40.42l12.091 20.037 12.437-2.072c-2.969 5.764 4.855 22.194 7.6 27.637l4.146-3.8c3.43 4.573 3.47 8.201 2.86 10.099-.045.306-.185.625-.442.956-2.715 3.491-13.128 11.861-18.655 16.237-8.867 7.6-31.161 8.43-49.402-49.057l-4.146-15.891z" class="Vector"/>
        <path stroke="#000" stroke-opacity=".08" stroke-width=".691" d="M565.504 213.798l-4.491 6.218m7.6-4.836l-3.109 7.255m6.909-5.528l-1.727 6.91m6.218-5.873v7.6m4.837-7.6l1.382 7.6m3.8-7.6l1.727 7.6m3.11-8.637l2.763 6.91m2.764-8.637l3.8 7.255m1.382-8.637l3.455 6.218m0-8.636l5.182 3.8m-2.418-6.909l6.218 3.109m-52.511-1.037l-5.528 4.837" class="Vector 14"/>
        <path fill="#000" fill-opacity=".16" d="M702.31 286.691l-4.146 3.801 6.909 6.563c1.382-3.454-1.036-8.291-2.763-10.364z" class="Vector 12"/>
        <path fill="#000" fill-opacity=".21" d="M463.245 288.419l5.182-9.673-3.8-7.6c-4.698 7.462-2.879 14.624-1.382 17.273z" class="Vector 11_3"/>
        <path fill="#fff" fill-opacity=".12" d="M580.359 139.177c-3.109 4.491-10.134 13.703-15.201 16.582 0 0 6.162-2.455 9.328-5.527 3.65-3.542 5.873-11.055 5.873-11.055z" class="Vector 7"/>
        <path fill="#fff" fill-opacity=".12" d="M592.178 136.921c3.109 4.491 5.017 10.975 14.11 19.754 0 0-9.009-6.352-10.034-8.152-2.516-4.42-4.076-11.602-4.076-11.602z" class="Vector 7.1"/>
        <path fill="#000" fill-opacity=".1" d="M571.737 365.704c-26.602 0-33.49-113.396-33.49-113.396s.627 42.643-1.77 88.286c-.334 6.343-8.251 22.861 0 25.11 6.899 1.882 20.209 2.822 20.209 2.822s20.29-2.822 15.051-2.822z" class="Vector 8"/>
        <path fill="#000" fill-opacity=".07" d="M632.391 296.019c0-12.091 3.934-22.801 3.934-22.801 4.229 25.705 8.848 55.966 10.23 85.331v7.255c-4.975 8.291-15.431 10.638-20.037 10.984v-8.911c-3.493-8.612 9.896-31.909 3.934-39.038-2.45-2.929 1.939-29.001 1.939-32.82z" class="Vector 9_3"/>
        <path fill="#1C1515" fill-opacity=".16" d="M583.123 517.81c6.909-22.11 6.532-93.676 6.546-91.795.015 1.881.017 62.776.017 116.323 0 0-8.731-17.593-6.563-24.528z" class="Vector 10"/>
        <path stroke="#fff" stroke-width=".691" d="M587.56 217.403c-4.606-1.036-12.575-2.487-7.6 0 4.975 2.488 7.139 1.037 7.6 0zm0 0s-2.971 3.248-2.418 6.564c.553 3.317.921 5.067 1.036 5.528m1.382-12.092c.461-2.648 1.658-7.324 2.764-4.836 1.105 2.487-1.382 4.261-2.764 4.836zm0 0c.346 2.649 5.182 3.801 4.146 7.946" class="Vector 13_2"/>
        <g class="Group">
          <circle cx="587.96" cy="249.726" r="3.455" fill="#232323" fill-opacity=".57" class="Ellipse_3"/>
          <circle cx="586.578" cy="249.381" r=".691" fill="#FFFEFE" fill-opacity=".24" class="Ellipse_4"/>
          <circle cx="589.341" cy="250.417" r=".691" fill="#FFFEFE" fill-opacity=".24" class="Ellipse_5"/>
        </g>
        <g class="Group_2">
          <circle cx="587.96" cy="234.526" r="3.455" fill="#232323" fill-opacity=".57" class="Ellipse_6"/>
          <circle cx="586.578" cy="234.181" r=".691" fill="#FFFEFE" fill-opacity=".24" class="Ellipse_7"/>
          <circle cx="589.341" cy="235.217" r=".691" fill="#FFFEFE" fill-opacity=".24" class="Ellipse_8"/>
        </g>
        <g class="Group_3">
          <circle cx="588.65" cy="264.236" r="3.455" fill="#232323" fill-opacity=".57" class="Ellipse_9"/>
          <circle cx="587.268" cy="263.89" r=".691" fill="#FFFEFE" fill-opacity=".24" class="Ellipse_10"/>
          <circle cx="590.032" cy="264.927" r=".691" fill="#FFFEFE" fill-opacity=".24" class="Ellipse_11"/>
        </g>
        <path fill="#000" fill-opacity=".07" d="M630.106 237.635l2.419 11.746c11.884 50.853 31.207 66.099 39.383 67.366 7.186 4.146 18.655-5.643 23.492-11.055 0 0-5.32 3.04-16.928 4.146-11.608 1.105-36.965-50.439-48.366-72.203z" class="Vector 15"/>
        <path fill="#000" fill-opacity=".08" d="M530.957 263.891c-12.16 22.11-44.45 30.862-59.075 32.474 13.819 13.818 23.261 13.818 26.255 12.091 9.674 0 24.644-29.019 32.82-44.565z" class="Vector 16"/>
        <circle cx="597.153" cy="173.378" r="3.109" fill="#FFC5C5" class="Ellipse 2.1"/>
        <path fill="#000" fill-opacity=".09" d="M474.166 271.491c-1.105-.829-15.891-39.268-22.801-57.693 6.564 39.729 13.474 58.384 16.928 64.948l5.873-7.255z" class="Vector 17"/>
      </g>
      <g class="Group 10.1_2">
        <g class="Group 9_4">
          <g class="Group 8.2">
            <path fill="#4671A4" d="M812.644 561.177c-18.539-23.702-45.384-83.354-4.454-132.339 14.19 25.071 34.946 86.639 4.454 132.339z" class="Vector 3"/>
            <path fill="#0D0D0D" fill-opacity=".12" d="M812.644 561.177c-6.198-34.967-16.134-110.434-4.269-132.018 14.099 25.409 35.097 87.494 4.269 132.018z" class="Vector 4"/>
          </g>
          <g class="Group 8">
            <path fill="#3675A3" d="M808.84 574.952c-3.553-25.188 2.007-80.206 52.677-98.768-.209 24.352-11.037 78.199-52.677 98.768z" class="Vector 3_2"/>
            <path fill="#0D0D0D" fill-opacity=".12" d="M808.841 574.952c10.242-28.219 34.867-87.668 52.676-98.454-.418 24.561-11.288 78.889-52.676 98.454z" class="Vector 4_2"/>
          </g>
          <g class="Group 8.1">
            <path fill="#3A91C2" d="M809.762 575.621c2.664-18.882-1.504-60.125-39.488-74.039.157 18.255 8.274 58.62 39.488 74.039z" class="Vector 3_3"/>
            <path fill="#0D0D0D" fill-opacity=".12" d="M809.762 575.622c-7.678-21.154-26.137-65.719-39.488-73.805.314 18.412 8.462 59.138 39.488 73.805z" class="Vector 4_3"/>
          </g>
        </g>
        <g class="Group 7">
          <path fill="#C7E1FF" d="M830.789 566.173h-54.871l10.034 19.754h56.125l9.093-19.754h-20.381z" class="Vector_2"/>
          <path fill="#000" fill-opacity=".07" d="M823.891 585.927l6.898-19.754h20.381l-9.093 19.754h-18.186z" class="Vector 2_2"/>
        </g>
      </g>
      <g class="Group 6.4">
        <g class="Group_4">
          <rect width="31.982" height="102.217" fill="#444040" class="Rectangle_21" rx="2.508" transform="matrix(-1 0 0 1 863.711 154.794)"/>
          <path fill="#fff" fill-opacity=".85" d="M831.729 155.421H700.038v102.217h131.691z" class="Rectangle 2_21"/>
          <rect width="105.353" height="8.779" fill="#EEECEC" fill-opacity=".42" class="Rectangle 3" rx="1.881" transform="matrix(-1 0 0 1 827.967 241.961)"/>
          <g class="Group 5">
            <rect width="5.017" height="5.017" fill="#EAEAEA" class="Rectangle 4" rx="2.508" transform="matrix(-1 0 0 1 826.713 232.554)"/>
            <rect width="39.507" height="1.254" fill="#EAEAEA" class="Rectangle 5" rx=".627" transform="matrix(-1 0 0 1 818.561 233.181)"/>
            <rect width="32.609" height="1.254" fill="#EAEAEA" class="Rectangle 5.1" rx=".627" transform="matrix(-1 0 0 1 818.561 235.69)"/>
          </g>
          <g class="Group 5.1">
            <rect width="5.017" height="5.017" fill="#EAEAEA" class="Rectangle 4_2" rx="2.508" transform="matrix(-1 0 0 1 826.713 221.894)"/>
            <rect width="39.507" height="1.254" fill="#EAEAEA" class="Rectangle 5_2" rx=".627" transform="matrix(-1 0 0 1 818.561 222.521)"/>
            <rect width="32.609" height="1.254" fill="#EAEAEA" class="Rectangle 5.1_2" rx=".627" transform="matrix(-1 0 0 1 818.561 225.029)"/>
          </g>
          <g class="Group 5.2">
            <rect width="5.017" height="5.017" fill="#EAEAEA" class="Rectangle 4_3" rx="2.508" transform="matrix(-1 0 0 1 826.713 211.233)"/>
            <rect width="39.507" height="1.254" fill="#EAEAEA" class="Rectangle 5_3" rx=".627" transform="matrix(-1 0 0 1 818.561 211.861)"/>
            <rect width="32.609" height="1.254" fill="#EAEAEA" class="Rectangle 5.1_3" rx=".627" transform="matrix(-1 0 0 1 818.561 214.369)"/>
          </g>
          <g class="Group 5.3">
            <rect width="5.017" height="5.017" fill="#EAEAEA" class="Rectangle 4_4" rx="2.508" transform="matrix(-1 0 0 1 826.713 200.572)"/>
            <rect width="39.507" height="1.254" fill="#EAEAEA" class="Rectangle 5_4" rx=".627" transform="matrix(-1 0 0 1 818.561 201.199)"/>
            <rect width="32.609" height="1.254" fill="#EAEAEA" class="Rectangle 5.1_4" rx=".627" transform="matrix(-1 0 0 1 818.561 203.708)"/>
          </g>
          <g class="Group 5.4">
            <rect width="5.017" height="5.017" fill="#EAEAEA" class="Rectangle 4_5" rx="2.508" transform="matrix(-1 0 0 1 826.713 189.912)"/>
            <rect width="39.507" height="1.254" fill="#EAEAEA" class="Rectangle 5_5" rx=".627" transform="matrix(-1 0 0 1 818.561 190.539)"/>
            <rect width="32.609" height="1.254" fill="#EAEAEA" class="Rectangle 5.1_5" rx=".627" transform="matrix(-1 0 0 1 818.561 193.047)"/>
          </g>
          <g class="Group 5.5">
            <rect width="5.017" height="5.017" fill="#EAEAEA" class="Rectangle 4_6" rx="2.508" transform="matrix(-1 0 0 1 826.713 179.251)"/>
            <rect width="39.507" height="1.254" fill="#EAEAEA" class="Rectangle 5_6" rx=".627" transform="matrix(-1 0 0 1 818.561 179.878)"/>
            <rect width="32.609" height="1.254" fill="#EAEAEA" class="Rectangle 5.1_6" rx=".627" transform="matrix(-1 0 0 1 818.561 182.387)"/>
          </g>
          <g class="Group 5.6">
            <rect width="5.017" height="5.017" fill="#EAEAEA" class="Rectangle 4_7" rx="2.508" transform="matrix(-1 0 0 1 826.713 168.59)"/>
            <rect width="39.507" height="1.254" fill="#EAEAEA" class="Rectangle 5_7" rx=".627" transform="matrix(-1 0 0 1 818.561 169.217)"/>
            <rect width="32.609" height="1.254" fill="#EAEAEA" class="Rectangle 5.1_7" rx=".627" transform="matrix(-1 0 0 1 818.561 171.726)"/>
          </g>
          <rect width="22.576" height="3.135" fill="#fff" fill-opacity=".17" class="Rectangle 4_8" rx="1.568" transform="matrix(-1 0 0 1 858.695 161.692)"/>
          <g class="Group 6">
            <rect width="5.644" height="1.881" fill="#fff" fill-opacity=".17" class="Rectangle 4.1" rx=".941" transform="matrix(-1 0 0 1 858.695 168.59)"/>
            <rect width="15.678" height="1.881" fill="#fff" fill-opacity=".17" class="Rectangle 4.2" rx=".941" transform="matrix(-1 0 0 1 851.797 168.59)"/>
          </g>
          <g class="Group 6.1">
            <rect width="5.644" height="1.881" fill="#fff" fill-opacity=".17" class="Rectangle 4.1_2" rx=".941" transform="matrix(-1 0 0 1 858.695 174.861)"/>
            <rect width="15.678" height="1.881" fill="#fff" fill-opacity=".17" class="Rectangle 4.2_2" rx=".941" transform="matrix(-1 0 0 1 851.797 174.861)"/>
          </g>
          <g class="Group 6.2">
            <rect width="5.644" height="1.881" fill="#fff" fill-opacity=".17" class="Rectangle 4.1_3" rx=".941" transform="matrix(-1 0 0 1 858.695 181.133)"/>
            <rect width="15.678" height="1.881" fill="#fff" fill-opacity=".17" class="Rectangle 4.2_3" rx=".941" transform="matrix(-1 0 0 1 851.797 181.133)"/>
          </g>
          <g class="Group 6.3">
            <rect width="5.644" height="1.881" fill="#fff" fill-opacity=".17" class="Rectangle 4.1_4" rx=".941" transform="matrix(-1 0 0 1 858.695 187.404)"/>
            <rect width="15.678" height="1.881" fill="#fff" fill-opacity=".17" class="Rectangle 4.2_4" rx=".941" transform="matrix(-1 0 0 1 851.797 187.403)"/>
          </g>
          <rect width="5.644" height="1.881" fill="#fff" fill-opacity=".17" class="Rectangle 4.1_5" rx=".941" transform="matrix(-1 0 0 1 858.695 193.674)"/>
          <rect width="15.678" height="1.881" fill="#fff" fill-opacity=".17" class="Rectangle 4.2_5" rx=".941" transform="matrix(-1 0 0 1 851.797 193.674)"/>
        </g>
      </g>
      <g class="Group 13_2">
        <g class="Group 12_2">
          <rect width="184.995" height="75.252" x="338.202" y="67" fill="#fff" class="Rectangle_22" rx="37.626"/>
          <rect width="37.626" height="37.626" x="355.76" y="85.814" fill="#EBEBEB" class="Rectangle_23" rx="18.813"/>
          <rect width="102.845" height="8.152" x="402.793" y="94.593" fill="#EBEBEB" class="Rectangle_24" rx="4.076"/>
          <rect width="92.184" height="6.271" x="402.793" y="107.762" fill="#EBEBEB" class="Rectangle_25" rx="3.135"/>
          <path fill="#fff" d="M427.226 151.556c1.758 2.274 5.189 2.274 6.946 0l12.51-16.182c2.231-2.885.174-7.074-3.473-7.074h-25.02c-3.647 0-5.703 4.189-3.473 7.074l12.51 16.182z" class="Polygon"/>
        </g>
      </g>
      <path stroke="#fff" stroke-dasharray="3.76 18.81" stroke-linecap="round" stroke-width="2.508" d="M509.4 93.652c108.175 0 245.824-11.915 227.011 93.438" class="Vector_3"/>
    </g>
  </g>
</svg>
