<svg width="24" height="24" viewBox="0 0 24 24" fill="none" xmlns="http://www.w3.org/2000/svg">
<g id="Active_Lifestyle">
<g id="Group 17">
<circle id="Ellipse 11" cx="11.5" cy="12.5" r="11.5" fill="#979797" fill-opacity="0.45"/>
<path id="Vector" d="M18.375 17.4614C17.5068 17.4614 16.6328 17.4302 15.7645 17.4614C15.4033 17.4693 15.1702 17.2973 14.9663 16.9143C13.8125 14.7414 12.6471 12.5762 11.4818 10.4111C11.3827 10.2235 11.272 10.0359 11.138 9.79363C10.3222 11.3725 9.52392 12.928 8.68484 14.546C8.87713 14.5616 8.99949 14.585 9.11603 14.585C10.1008 14.585 11.0914 14.5929 12.0761 14.585C12.315 14.585 12.4782 14.6866 12.6122 14.9446C13.0084 15.6793 13.4163 16.4062 13.8184 17.1332C13.865 17.2113 13.8999 17.3051 13.9524 17.4224C10.631 17.4224 7.34465 17.4224 4 17.4224C4.29135 16.8596 4.55938 16.3437 4.82742 15.8356C6.27832 13.053 7.74088 10.2861 9.18013 7.49563C9.58801 6.70618 10.0483 6.04179 10.765 5.79167C10.9806 5.79167 11.1904 5.79167 11.406 5.79167C12.1926 6.04961 12.6821 6.78434 13.1191 7.63632C13.7193 8.80877 14.3486 9.95777 14.9779 11.1146C16.1083 13.1859 17.2446 15.2494 18.375 17.3129C18.375 17.3598 18.375 17.4067 18.375 17.4614Z" fill="#F9CA24"/>
</g>
</g>
</svg>
