<svg width="24" height="24" viewBox="0 0 24 24" fill="none" xmlns="http://www.w3.org/2000/svg">
<g id="check">
<g id="Group">
<g id="Group_2">
<mask id="mask0" mask-type="alpha" maskUnits="userSpaceOnUse" x="1" y="9" width="10" height="10">
<g id="check b">
<path id="Vector" d="M2.06863 12.3314C1.44379 11.7065 1.44379 10.6935 2.06863 10.0686C2.69347 9.44379 3.70653 9.44379 4.33137 10.0686L10.3379 16.1453C10.9627 16.7702 10.9627 17.7832 10.3379 18.4081C9.71305 19.0329 8.69999 19.0329 8.07515 18.4081L2.06863 12.3314Z" fill="white"/>
</g>
</mask>
<g mask="url(#mask0)">
<path id="Vector_2" d="M2.06863 12.3314C1.44379 11.7065 1.44379 10.6935 2.06863 10.0686C2.69347 9.44379 3.70653 9.44379 4.33137 10.0686L10.3379 16.1453C10.9627 16.7702 10.9627 17.7832 10.3379 18.4081C9.71305 19.0329 8.69999 19.0329 8.07515 18.4081L2.06863 12.3314Z" fill="#D8D8D8"/>
<g id="Group_3">
<path id="Vector_3" d="M-6.4 -8L-6.4 30.4L32 30.4V-8H-6.4Z" fill="#FFD740"/>
</g>
</g>
</g>
<mask id="mask1" mask-type="alpha" maskUnits="userSpaceOnUse" x="0" y="3" width="24" height="18">
<g id="check d">
<path id="Vector_4" d="M21.2686 3.66863C21.8935 3.04379 22.9065 3.04379 23.5314 3.66863C24.1562 4.29347 24.1562 5.30653 23.5314 5.93137L9.13137 20.3314C8.50653 20.9562 7.49347 20.9562 6.86863 20.3314L0.468629 13.9314C-0.15621 13.3065 -0.15621 12.2935 0.468629 11.6686C1.09347 11.0438 2.10653 11.0438 2.73137 11.6686L8 16.9373L21.2686 3.66863Z" fill="white"/>
</g>
</mask>
<g mask="url(#mask1)">
<path id="Vector_5" d="M21.2686 3.66863C21.8935 3.04379 22.9065 3.04379 23.5314 3.66863C24.1562 4.29347 24.1562 5.30653 23.5314 5.93137L9.13137 20.3314C8.50653 20.9562 7.49347 20.9562 6.86863 20.3314L0.468629 13.9314C-0.15621 13.3065 -0.15621 12.2935 0.468629 11.6686C1.09347 11.0438 2.10653 11.0438 2.73137 11.6686L8 16.9373L21.2686 3.66863Z" fill="black"/>
<g id="Group_4">
<path id="Vector_6" d="M-6.4 -8L-6.4 30.4L32 30.4V-8H-6.4Z" fill="#242C33"/>
</g>
</g>
</g>
</g>
</svg>
